<?xml version="1.0" encoding="utf-8"?>
<!-- Generator: Adobe Illustrator 27.3.1, SVG Export Plug-In . SVG Version: 6.00 Build 0)  -->
<svg version="1.1" id="Layer_1" xmlns="http://www.w3.org/2000/svg" xmlns:xlink="http://www.w3.org/1999/xlink" x="0px" y="0px"
	 viewBox="0 0 42.5 16" style="enable-background:new 0 0 42.5 16;" xml:space="preserve">
<style type="text/css">
	.st0{fill:#6CC04A;}
	.st1{fill:none;stroke:#6CC04A;}
	.st2{fill:none;stroke:#6CC04A;stroke-linecap:round;}
	.st3{fill:none;stroke:#FFFFFF;}
</style>
<g>
	<path class="st0" d="M10,15.5c4.1,0,7.5-3.4,7.5-7.5S14.1,0.5,10,0.5S2.5,3.9,2.5,8S5.9,15.5,10,15.5"/>
	<circle class="st1" cx="10" cy="8" r="7.5"/>
	<path class="st0" d="M32,15.5c4.1,0,7.5-3.4,7.5-7.5S36.1,0.5,32,0.5S24.5,3.9,24.5,8S27.9,15.5,32,15.5"/>
	<circle class="st1" cx="32" cy="8" r="7.5"/>
	<path class="st1" d="M24.5,8c0-1.9-1.6-3.5-3.5-3.5S17.5,6.1,17.5,8"/>
	<line class="st2" x1="0.5" y1="8" x2="2.5" y2="8"/>
	<line class="st2" x1="40" y1="8" x2="42" y2="8"/>
	<path class="st0" d="M10,14.5c3.6,0,6.5-2.9,6.5-6.5S13.6,1.5,10,1.5S3.5,4.4,3.5,8S6.4,14.5,10,14.5"/>
	<circle class="st3" cx="10" cy="8" r="6.5"/>
	<path class="st0" d="M32,14.5c3.6,0,6.5-2.9,6.5-6.5S35.6,1.5,32,1.5c-3.6,0-6.5,2.9-6.5,6.5S28.4,14.5,32,14.5"/>
	<circle class="st3" cx="32" cy="8" r="6.5"/>
</g>
</svg>