<?xml version="1.0" encoding="UTF-8"?>
<svg width="200px" height="200px" viewBox="0 0 200 200" version="1.1" xmlns="http://www.w3.org/2000/svg" xmlns:xlink="http://www.w3.org/1999/xlink">
    <!-- Generator: Sketch 54.1 (76490) - https://sketchapp.com -->
    <title>abilene-christian</title>
    <desc>Created with Sketch.</desc>
    <g id="abilene-christian" stroke="none" stroke-width="1" fill="none" fill-rule="evenodd">
        <g id="abilene-christian_BGL">
            <g id="abilene-christian" transform="translate(0.000000, 26.000000)">
                <g fill-rule="nonzero">
                    <g id="PMS_421" fill="#C4C6C8">
                        <g id="Group">
                            <path d="M160.784314,88.2236842 C162.128852,84.3586466 161.288515,80.7736842 161.288515,80.7736842 C166.778711,80.3255639 171.876751,77.1327068 173.389356,71.6432331 C174.061625,71.1390977 174.621849,70.5229323 175.12605,69.7947368 C182.408964,71.6992481 187.058824,74.0518797 187.058824,74.0518797 C187.058824,74.0518797 186.05042,71.0830827 184.817927,69.2345865 C188.067227,70.2428571 193.389356,72.8195489 193.389356,72.8195489 C193.389356,72.8195489 191.260504,67.9462406 187.955182,65.593609 L190.92437,66.2657895 C187.282913,60.4402256 178.991597,56.4631579 172.829132,54.5586466 C176.526611,47.2206767 171.540616,39.7146617 166.722689,35.2334586 C163.193277,31.9285714 157.591036,28.3996241 150.47619,25.5428571 C147.170868,21.7338346 142.913165,18.5969925 138.823529,16.0763158 C130.084034,10.6428571 124.145658,5.15338346 124.145658,5.15338346 C124.145658,5.15338346 122.80112,9.6906015 123.585434,12.8834586 C120.168067,10.8109023 116.526611,9.07443609 112.661064,7.95413534 C103.529412,5.37744361 95.9103641,3.19285714 89.6358543,0 C90.2521008,5.2093985 93.0532213,11.3150376 96.5266106,14.3398496 C96.7507003,18.3169173 97.3669468,22.4620301 98.6554622,26.2710526 C89.5798319,29.4639098 78.9355742,35.0654135 68.2352941,46.9966165 L44.2577031,46.9966165 L28.0672269,69.0105263 L6.61064426,69.0105263 L16.302521,84.974812 L0,107.324812 L58.0392157,107.324812 L54.0056022,124.129323 L79.047619,132.083459 L92.605042,132.083459 C92.0448179,134.32406 91.7647059,137.516917 95.4621849,138.805263 L126.554622,148.495865 L145.546218,148.495865 C150.140056,148.43985 155.35014,147.991729 160.112045,145.975188 C164.817927,144.070677 169.243697,140.093609 170.588235,133.931955 L176.414566,109.733459 L199.943978,88.2236842 L160.784314,88.2236842 Z M96.5266106,136.508647 L95.2380952,136.508647 L96.1344538,132.699624 L95.070028,132.699624 L95.3501401,131.635338 L98.7114846,131.635338 L98.4313725,132.699624 L97.3669468,132.699624 L96.5266106,136.508647 Z M103.865546,136.508647 L102.577031,136.508647 L102.913165,133.707895 L102.913165,133.707895 L101.064426,136.508647 L100.560224,136.508647 L100.112045,133.707895 L100.112045,133.707895 L99.047619,136.508647 L97.7591036,136.508647 L99.7759104,131.635338 L101.008403,131.635338 L101.344538,134.21203 L103.02521,131.635338 L104.257703,131.635338 L103.865546,136.508647 Z M173.333333,107.940977 L167.282913,133.203759 C164.985994,143.174436 154.229692,145.022932 145.546218,145.078947 L127.058824,145.078947 L105.658263,138.413158 L108.011204,128.610526 L79.5518207,128.610526 L58.0392157,121.776692 L62.3529412,103.85188 L6.77871148,103.85188 L20.4481793,85.1428571 L12.7170868,72.4274436 L29.8039216,72.4274436 L45.9943978,50.4135338 L69.9159664,50.4135338 C78.767507,40.6109023 86.2184874,34.281203 103.361345,28.343609 C100.336134,21.3977444 99.8879552,12.7714286 99.8879552,12.7714286 C99.8879552,12.7714286 96.2464986,8.96240602 94.8459384,6.04962406 C100.168067,8.57030075 105.714286,9.35451128 111.092437,11.2030075 C111.092437,11.2030075 120,14.1718045 126.946779,19.6612782 C127.45098,18.2609023 127.89916,17.1966165 127.89916,17.1966165 C127.89916,17.1966165 126.890756,15.2921053 127.114846,12.4353383 C131.708683,16.1883459 136.358543,18.5409774 140.392157,21.3417293 C143.697479,23.6383459 146.442577,26.4390977 148.067227,28.1755639 C157.983193,31.7605263 164.369748,36.9699248 168.011204,42.3473684 C173.389356,50.1894737 168.627451,54.3345865 168.627451,54.3345865 C169.747899,55.062782 170.92437,56.2951128 171.876751,57.8635338 C176.190476,58.8718045 180.504202,60.4962406 184.537815,62.9048872 C180.448179,61.5045113 176.582633,60.4402256 172.941176,59.9921053 C173.109244,60.3842105 173.221289,60.7203008 173.333333,61.112406 C177.19888,62.3447368 181.512605,64.1932331 185.714286,66.9379699 C181.176471,65.0334586 177.254902,63.9691729 173.72549,63.2969925 C173.781513,63.8011278 173.72549,64.3052632 173.669468,64.8093985 C176.190476,65.8736842 178.823529,67.1620301 181.232493,68.8424812 C178.543417,67.7221805 175.910364,66.9379699 173.277311,66.3778195 C172.773109,67.6661654 171.820728,68.7864662 170.308123,69.5706767 C169.243697,76.9086466 161.680672,77.5808271 159.159664,77.3567669 C158.487395,77.3007519 158.59944,77.0206767 158.711485,76.8526316 C159.439776,75.7883459 159.943978,74.2199248 159.943978,73.8838346 C158.543417,73.9398496 157.535014,73.8278195 156.078431,73.6037594 C154.061625,75.6763158 151.036415,75.5642857 150.196078,75.5642857 C150.364146,77.5808271 150.47619,80.1575188 152.436975,83.406391 C154.957983,82.9022556 157.030812,81.7259398 157.366947,81.5578947 C157.703081,81.3898496 157.871148,81.4458647 157.927171,81.893985 C157.983193,82.2860902 158.37535,85.5909774 157.086835,88.1676692 C155.686275,90.912406 153.445378,91.5285714 153.445378,91.5285714 C153.501401,91.5845865 153.501401,91.6406015 153.557423,91.6966165 L191.204482,91.6966165 L173.333333,107.940977 Z" id="Shape"></path>
                            <path d="M155.462185,47.2766917 C156.078431,48.2289474 157.759104,50.1334586 161.120448,51.1977444 C163.417367,51.9259398 166.554622,52.2620301 166.834734,49.4052632 C167.170868,45.5402256 161.288515,41.0030075 161.288515,41.0030075 C161.288515,41.0030075 162.745098,43.7477444 161.176471,46.4924812 C156.918768,36.9139098 142.352941,30.5842105 129.579832,29.9680451 C137.030812,31.9845865 148.627451,36.1296992 155.462185,47.2766917 Z" id="Shape"></path>
                            <path d="M138.543417,65.0894737 C138.543417,65.0894737 136.862745,66.3778195 136.862745,68.1142857 C136.862745,69.9067669 137.759104,74.7800752 147.226891,79.2052632 C145.770308,76.6285714 144.87395,72.7635338 145.154062,70.5789474 C145.434174,68.506391 144.089636,67.5541353 144.089636,67.5541353 C143.977591,69.8507519 142.296919,71.0830827 142.296919,71.0830827 C142.577031,67.05 138.543417,65.0894737 138.543417,65.0894737 Z" id="Shape"></path>
                            <path d="M114.061625,26.5511278 C109.131653,22.1259398 105.042017,15.6281955 105.042017,15.6281955 C105.826331,18.8210526 107.058824,23.3582707 109.803922,27.7834586 C111.204482,27.3353383 112.661064,26.9432331 114.061625,26.5511278 Z" id="Shape"></path>
                            <path d="M132.044818,77.6928571 C132.717087,78.4210526 133.445378,79.1492481 134.229692,79.8214286 C133.389356,77.9169173 132.32493,74.3879699 132.10084,72.0913534 C131.596639,67.3300752 132.661064,62.9048872 132.661064,62.9048872 C132.661064,62.9048872 125.602241,70.5789474 132.044818,77.6928571 Z" id="Shape"></path>
                            <path d="M146.722689,92.8169173 C147.67507,92.5368421 148.627451,92.1447368 149.243697,91.9206767 C142.745098,89.5120301 138.935574,87.1033835 137.254902,85.8710526 C138.487395,88.0556391 140.840336,90.3522556 146.722689,92.8169173 Z" id="Shape"></path>
                            <path d="M97.5910364,59.8240602 C97.5910364,59.8240602 103.137255,61.4484962 109.971989,64.4733083 C109.971989,64.4733083 106.610644,65.0334586 102.857143,66.9379699 C102.857143,66.9379699 106.610644,68.0022556 110.92437,69.962782 C112.380952,74.0518797 115.406162,78.4210526 118.767507,81.0537594 C115.742297,73.7157895 113.72549,64.8654135 117.310924,52.206015 C117.310924,52.206015 101.568627,48.1729323 87.8991597,49.2932331 C87.8991597,49.2932331 96.302521,51.8699248 106.27451,57.0793233 C106.27451,57.0793233 102.072829,57.6394737 97.5910364,59.8240602 Z" id="Shape"></path>
                        </g>
                    </g>
                    <g id="PMS_268" transform="translate(6.722689, 5.601504)" fill="#4F2683">
                        <g id="Group">
                            <polygon id="Shape" points="92.0448179 126.033835 88.6834734 126.033835 88.4033613 127.09812 89.4677871 127.09812 88.5714286 130.907143 89.8039216 130.907143 90.7002801 127.09812 91.7647059 127.09812"></polygon>
                            <polygon id="Shape" points="94.6218487 128.610526 94.2857143 126.033835 93.0532213 126.033835 91.0364146 130.907143 92.2689076 130.907143 93.3893557 128.050376 93.3893557 128.050376 93.837535 130.907143 94.3417367 130.907143 96.1904762 128.050376 96.1904762 128.050376 95.8543417 130.907143 97.1428571 130.907143 97.5910364 126.033835 96.302521 126.033835"></polygon>
                            <polygon id="Shape" points="42.2969188 62.7928571 46.6666667 66.8259398 41.512605 74.556015 53.3893557 74.556015 51.1484594 62.7928571"></polygon>
                            <path d="M146.778711,86.0951128 C146.722689,86.0390977 146.722689,85.9830827 146.666667,85.9270677 C146.666667,85.9270677 148.907563,85.2548872 150.308123,82.5661654 C151.596639,79.9894737 151.204482,76.6285714 151.148459,76.2924812 C151.092437,75.8443609 150.980392,75.7883459 150.588235,75.956391 C150.252101,76.1244361 148.123249,77.3007519 145.658263,77.8048872 C143.697479,74.556015 143.529412,71.9793233 143.417367,69.962782 C144.313725,69.962782 147.282913,70.074812 149.29972,68.0022556 C150.70028,68.2263158 151.764706,68.3383459 153.165266,68.2823308 C153.109244,68.562406 152.661064,70.1308271 151.932773,71.2511278 C151.820728,71.4191729 151.708683,71.6992481 152.380952,71.7552632 C154.901961,71.9793233 162.464986,71.2511278 163.529412,63.9691729 C165.042017,63.1289474 165.994398,62.0086466 166.498599,60.7763158 C169.131653,61.3924812 171.764706,62.1206767 174.453782,63.2409774 C171.988796,61.5605263 169.411765,60.2721805 166.890756,59.2078947 C166.946779,58.7037594 166.946779,58.1996241 166.946779,57.6954887 C170.532213,58.4236842 174.397759,59.4319549 178.935574,61.3364662 C174.733894,58.5917293 170.420168,56.7432331 166.554622,55.5109023 C166.442577,55.118797 166.330532,54.7266917 166.162465,54.3906015 C169.803922,54.8947368 173.669468,55.9590226 177.759104,57.3033835 C173.781513,54.8947368 169.411765,53.2703008 165.098039,52.2620301 C164.145658,50.7496241 163.02521,49.4612782 161.848739,48.7330827 C161.848739,48.7330827 166.610644,44.5879699 161.232493,36.7458647 C157.535014,31.3684211 151.204482,26.1590226 141.288515,22.5740602 C139.663866,20.7815789 136.862745,18.0368421 133.613445,15.7402256 C129.635854,12.9394737 124.929972,10.5868421 120.336134,6.83383459 C120.168067,9.6906015 121.120448,11.5951128 121.120448,11.5951128 C121.120448,11.5951128 120.672269,12.6593985 120.168067,14.0597744 C113.333333,8.51428571 104.42577,5.60150376 104.42577,5.60150376 C99.047619,3.75300752 93.5014006,2.96879699 88.1792717,0.448120301 C89.5798319,3.36090226 93.2212885,7.16992481 93.2212885,7.16992481 C93.2212885,7.16992481 93.6134454,15.7962406 96.6946779,22.7421053 C79.4957983,28.6796992 72.1008403,35.0093985 63.2492997,44.8120301 L39.2717087,44.8120301 L23.0812325,66.8259398 L5.99439776,66.8259398 L13.7254902,79.5413534 L0.056022409,98.2503759 L55.6302521,98.2503759 L51.3165266,116.175188 L72.8291317,123.009023 L101.288515,123.009023 L98.9355742,132.811654 L120.336134,139.477444 L138.823529,139.477444 C147.45098,139.421429 158.263305,137.572932 160.560224,127.602256 L166.610644,102.339474 L184.42577,86.0390977 L146.778711,86.0390977 L146.778711,86.0951128 Z M144.257703,80.7176692 C145.434174,80.6616541 146.778711,80.493609 148.291317,79.9334586 C148.291317,79.9334586 148.235294,81.893985 143.977591,83.7424812 C136.97479,81.2218045 131.932773,77.6928571 131.932773,77.6928571 C137.478992,78.1409774 139.831933,75.6763158 139.831933,75.6763158 C139.831933,75.6763158 140.392157,78.2530075 138.59944,80.1575188 C138.59944,80.1575188 139.159664,80.2695489 139.943978,79.8214286 C140.448179,80.1015038 141.344538,80.6056391 142.464986,81.0537594 C142.464986,81.7819549 142.80112,82.1180451 142.80112,82.1180451 C142.80112,82.1180451 143.081232,80.7736842 144.257703,80.7176692 Z M137.310924,62.0086466 C137.310924,62.0086466 138.655462,62.9609023 138.37535,65.0334586 C138.095238,67.2180451 138.991597,71.0830827 140.448179,73.6597744 C130.980392,69.2345865 130.084034,64.3612782 130.084034,62.568797 C130.084034,60.7763158 131.764706,59.543985 131.764706,59.543985 C131.764706,59.543985 135.798319,61.5045113 135.462185,65.593609 C135.57423,65.537594 137.19888,64.3052632 137.310924,62.0086466 Z M142.521008,86.3191729 C141.904762,86.5992481 140.952381,86.9353383 140,87.2154135 C134.117647,84.7507519 131.764706,82.3981203 130.532213,80.2135338 C132.212885,81.5018797 136.022409,83.9105263 142.521008,86.3191729 Z M155.686275,68.4503759 C156.638655,67.106015 157.142857,65.7056391 157.19888,64.5853383 C156.862745,65.4815789 155.686275,65.9296992 155.686275,65.9296992 C155.686275,65.9296992 155.686275,64.9774436 155.238095,64.3612782 C154.845938,65.537594 153.781513,65.7056391 153.781513,65.7056391 C153.781513,65.7056391 153.781513,64.8093985 153.333333,64.025188 C152.885154,65.2575188 151.708683,65.4255639 151.708683,65.4255639 C151.708683,65.4255639 151.652661,64.3612782 151.316527,63.6890977 C150.868347,64.9774436 149.691877,65.0894737 149.691877,65.0894737 C149.691877,65.0894737 149.635854,64.025188 149.187675,63.1849624 C148.179272,66.7139098 144.033613,66.9379699 144.033613,66.9379699 C145.658263,64.5853383 145.658263,62.7368421 145.434174,61.4484962 C147.114846,62.1766917 152.268908,63.9691729 160.336134,64.3052632 C159.439776,67.7781955 155.686275,68.4503759 155.686275,68.4503759 Z M161.176471,54.1665414 C161.176471,54.1665414 161.792717,53.4943609 162.352941,53.1582707 C162.352941,53.1582707 164.313725,55.5109023 163.865546,58.087594 C163.417367,60.5522556 160.784314,61.8406015 160.784314,61.8406015 C161.008403,59.9360902 159.551821,58.0315789 159.551821,58.0315789 C160.952381,57.0233083 161.904762,55.5109023 161.904762,55.5109023 C161.62465,54.7266917 161.176471,54.1665414 161.176471,54.1665414 Z M154.397759,40.9469925 C155.966387,38.2022556 154.509804,35.4575188 154.509804,35.4575188 C154.509804,35.4575188 160.448179,39.9947368 160.056022,43.8597744 C159.77591,46.7165414 156.638655,46.3244361 154.341737,45.6522556 C151.036415,44.5879699 149.29972,42.7394737 148.683473,41.731203 C141.904762,30.5842105 130.252101,26.3830827 122.745098,24.4785714 C135.518207,25.0387218 150.140056,31.312406 154.397759,40.9469925 Z M143.585434,43.2996241 C144.537815,44.3639098 145.098039,45.3161654 145.322129,45.9323308 C145.322129,45.9323308 143.137255,45.1481203 140.840336,44.5319549 C141.568627,44.5879699 142.857143,44.4759398 143.585434,43.2996241 Z M140.280112,44.3639098 C139.77591,44.2518797 139.327731,44.1398496 138.879552,44.0278195 C137.366947,43.1315789 135.798319,41.787218 135.742297,40.274812 C135.686275,39.5466165 136.582633,38.8184211 138.991597,39.8827068 C139.663866,40.162782 140.22409,40.4988722 140.840336,40.8909774 C141.008403,41.8992481 140.896359,43.4116541 140.280112,44.3639098 Z M146.442577,50.9176692 C143.641457,49.7973684 133.837535,45.7642857 122.016807,46.6605263 C135.630252,44.0278195 149.971989,48.9571429 156.022409,53.2142857 C154.621849,52.9902256 153.613445,53.4943609 153.613445,53.4943609 C153.613445,53.4943609 156.694678,55.2868421 158.37535,57.7515038 C155.57423,57.5834586 153.389356,57.8635338 150.644258,60.1041353 C146.27451,60.3281955 143.081232,58.4236842 141.792717,55.8469925 C144.481793,56.0710526 147.45098,56.631203 147.45098,56.631203 C143.193277,55.118797 132.941176,52.0379699 123.137255,53.2703008 C134.845938,50.3015038 147.002801,53.7184211 147.002801,53.7184211 C142.689076,51.9819549 132.10084,48.6770677 119.607843,49.9654135 C133.837535,46.7725564 146.442577,50.9176692 146.442577,50.9176692 Z M125.378151,66.5458647 C125.602241,68.8424812 126.666667,72.3714286 127.507003,74.2759398 C126.722689,73.6037594 125.994398,72.8755639 125.322129,72.1473684 C118.879552,64.9774436 125.938375,57.3593985 125.938375,57.3593985 C125.938375,57.3593985 124.87395,61.7845865 125.378151,66.5458647 Z M107.338936,20.9496241 C105.882353,21.3417293 104.481793,21.7338346 103.137255,22.1819549 C100.392157,17.7567669 99.1596639,13.2195489 98.3753501,10.0266917 C98.3753501,10.0266917 102.464986,16.5244361 107.338936,20.9496241 Z M110.588235,46.6605263 C107.002801,59.3199248 109.019608,68.1703008 112.044818,75.5082707 C108.683473,72.8755639 105.658263,68.4503759 104.201681,64.4172932 C99.8879552,62.4567669 96.1344538,61.3924812 96.1344538,61.3924812 C99.8879552,59.4879699 103.2493,58.9278195 103.2493,58.9278195 C96.4145658,55.9030075 90.8683473,54.2785714 90.8683473,54.2785714 C95.3501401,52.0379699 99.5518207,51.5338346 99.5518207,51.5338346 C89.6358543,46.2684211 81.232493,43.6917293 81.232493,43.6917293 C94.9019608,42.6274436 110.588235,46.6605263 110.588235,46.6605263 Z M103.137255,115.446992 L74.0056022,115.446992 L60.3921569,111.133835 L65.3221289,90.6883459 L56.3585434,90.6883459 L54.9019608,83.0142857 L35.8543417,83.0142857 L30.8123249,90.6323308 L15.1820728,90.6323308 L22.9691877,79.9894737 L19.6638655,74.556015 L27.0028011,74.556015 L43.1932773,52.5421053 L63.6414566,52.5421053 L69.6358543,79.6533835 C72.6610644,77.468797 77.5910364,77.3567669 81.6246499,77.3567669 L112.32493,77.3567669 L109.411765,89.5680451 L93.837535,89.5680451 L94.789916,85.5349624 L78.2072829,85.5349624 L82.2969188,89.2319549 L77.9271709,107.268797 L89.5798319,107.268797 L90.5882353,102.955639 L106.162465,102.955639 L103.137255,115.446992 Z M159.719888,98.306391 L153.109244,125.865789 C151.764706,131.523308 143.977591,131.859398 138.823529,131.859398 L121.512605,131.859398 L108.067227,127.658271 L115.12605,98.2503759 L112.32493,93.6571429 L132.268908,93.6571429 L124.985994,124.073308 L137.478992,124.073308 L144.761905,93.6571429 L164.705882,93.6571429 L159.719888,98.306391 Z" id="Shape"></path>
                        </g>
                    </g>
                    <g id="White" transform="translate(21.848739, 44.812030)" fill="#FFFFFF">
                        <g id="Group">
                            <path d="M131.820728,14.6199248 C131.820728,14.6199248 119.719888,11.2030075 107.955182,14.1718045 C117.815126,12.8834586 128.011204,16.0203008 132.268908,17.5327068 C132.268908,17.5327068 129.29972,16.9725564 126.610644,16.7484962 C127.89916,19.325188 131.148459,21.2296992 135.462185,21.0056391 C138.207283,18.7650376 140.392157,18.4849624 143.193277,18.6530075 C141.512605,16.1883459 138.431373,14.3958647 138.431373,14.3958647 C138.431373,14.3958647 139.439776,13.8917293 140.840336,14.1157895 C134.733894,9.85864662 120.448179,4.92932331 106.834734,7.56203008 C118.655462,6.66578947 128.515406,10.6428571 131.260504,11.8191729 C131.260504,11.8191729 118.655462,7.67406015 104.369748,10.9789474 C116.862745,9.57857143 127.507003,12.8834586 131.820728,14.6199248 Z" id="Shape"></path>
                            <path d="M144.42577,18.7650376 C144.42577,18.7650376 145.882353,20.6695489 145.658263,22.5740602 C145.658263,22.5740602 148.291317,21.2857143 148.739496,18.8210526 C149.187675,16.2443609 147.226891,13.8917293 147.226891,13.8917293 C146.666667,14.2278195 146.05042,14.9 146.05042,14.9 C146.05042,14.9 146.498599,15.4601504 146.778711,16.1883459 C146.778711,16.2443609 145.770308,17.7567669 144.42577,18.7650376 Z" id="Shape"></path>
                            <path d="M128.907563,27.7834586 C128.907563,27.7834586 133.053221,27.5593985 134.061625,24.0304511 C134.509804,24.8706767 134.565826,25.9349624 134.565826,25.9349624 C134.565826,25.9349624 135.742297,25.8789474 136.190476,24.5345865 C136.526611,25.262782 136.582633,26.2710526 136.582633,26.2710526 C136.582633,26.2710526 137.815126,26.1590226 138.207283,24.8706767 C138.655462,25.6548872 138.655462,26.5511278 138.655462,26.5511278 C138.655462,26.5511278 139.663866,26.3830827 140.112045,25.2067669 C140.560224,25.7669173 140.560224,26.775188 140.560224,26.775188 C140.560224,26.775188 141.736695,26.3270677 142.072829,25.4308271 C142.072829,26.5511278 141.512605,27.9515038 140.560224,29.2958647 C140.560224,29.2958647 144.313725,28.6236842 145.210084,25.2067669 C137.19888,24.8706767 131.988796,23.0781955 130.308123,22.35 C130.532213,23.5823308 130.532213,25.4308271 128.907563,27.7834586 Z" id="Shape"></path>
                            <path d="M127.731092,42.9635338 C127.731092,42.9635338 127.45098,42.6274436 127.394958,41.8992481 C126.27451,41.4511278 125.322129,40.9469925 124.87395,40.6669173 C124.089636,41.1150376 123.529412,41.0030075 123.529412,41.0030075 C125.266106,39.0984962 124.761905,36.5218045 124.761905,36.5218045 C124.761905,36.5218045 122.408964,38.9864662 116.862745,38.5383459 C116.862745,38.5383459 121.848739,42.0672932 128.907563,44.5879699 C133.165266,42.7394737 133.221289,40.7789474 133.221289,40.7789474 C131.764706,41.3390977 130.364146,41.5071429 129.187675,41.5631579 C127.955182,41.5631579 127.731092,42.9635338 127.731092,42.9635338 Z" id="Shape"></path>
                            <path d="M123.809524,0.672180451 C121.40056,-0.336090226 120.504202,0.336090226 120.560224,1.06428571 C120.616246,2.57669173 122.184874,3.92105263 123.697479,4.81729323 C124.145658,4.92932331 124.64986,5.04135338 125.098039,5.15338346 C125.714286,4.20112782 125.826331,2.6887218 125.602241,1.62443609 C125.098039,1.28834586 124.481793,0.952255639 123.809524,0.672180451 Z" id="Shape"></path>
                            <path d="M128.459384,4.08909774 C127.731092,5.26541353 126.442577,5.37744361 125.714286,5.32142857 C128.011204,5.99360902 130.196078,6.72180451 130.196078,6.72180451 C129.971989,6.1056391 129.355742,5.15338346 128.459384,4.08909774 Z" id="Shape"></path>
                            <path d="M122.352941,84.918797 L109.859944,84.918797 L117.142857,54.5026316 L97.1988796,54.5026316 L100,59.0958647 L92.9411765,88.5037594 L106.386555,92.7048872 L123.697479,92.7048872 C128.851541,92.7048872 136.582633,92.368797 137.983193,86.7112782 L144.593838,59.1518797 L149.579832,54.5586466 L129.635854,54.5586466 L122.352941,84.918797 Z" id="Shape"></path>
                            <path d="M74.3977591,68.0582707 L62.745098,68.0582707 L67.1148459,50.0214286 L63.0252101,46.3244361 L79.6078431,46.3244361 L78.6554622,50.3575188 L94.2296919,50.3575188 L97.1428571,38.1462406 L66.442577,38.1462406 C62.4089636,38.1462406 57.4789916,38.3142857 54.4537815,40.4428571 L48.4593838,13.3315789 L28.0672269,13.3315789 L11.8767507,35.3454887 L4.53781513,35.3454887 L7.84313725,40.7789474 L0.056022409,51.4218045 L15.6862745,51.4218045 L20.7843137,43.7477444 L39.8319328,43.7477444 L41.2885154,51.4218045 L50.2521008,51.4218045 L45.3221289,71.8672932 L58.9355742,76.1804511 L88.0672269,76.1804511 L91.0364146,63.6890977 L75.4621849,63.6890977 L74.3977591,68.0582707 Z M26.3865546,35.3454887 L31.5406162,27.5593985 L27.1708683,23.5263158 L36.022409,23.5263158 L38.2633053,35.2894737 L26.3865546,35.2894737 L26.3865546,35.3454887 Z" id="Shape"></path>
                        </g>
                    </g>
                </g>
            </g>
        </g>
    </g>
</svg>