<?xml version="1.0" encoding="UTF-8"?>
<svg width="200px" height="200px" viewBox="0 0 200 200" version="1.1" xmlns="http://www.w3.org/2000/svg" xmlns:xlink="http://www.w3.org/1999/xlink">
    <!-- Generator: Sketch 54.1 (76490) - https://sketchapp.com -->
    <title>air-force</title>
    <desc>Created with Sketch.</desc>
    <g id="air-force" stroke="none" stroke-width="1" fill="none" fill-rule="evenodd">
        <g id="air-force_BGL" transform="translate(0.000000, 0.000000)" fill="#2A3C98">
            <g id="air-force" transform="translate(14.000000, 0.000000)">
                <g id="g10" transform="translate(85.999998, 99.856942) scale(-1, 1) rotate(-180.000000) translate(-85.999998, -99.856942) translate(0.000000, 0.322656)" fill-rule="nonzero">
                    <g id="g12">
                        <path d="M47.9880598,124.1987 L57.4312255,156.775937 L66.8744522,124.1987 L47.9880598,124.1987 Z M93.9784799,137.081542 L93.9784799,118.842721 L107.176125,118.842721 L107.176125,79.9586015 L100.619388,79.9586015 L66.3145373,198.932208 L60.3684609,198.932208 L59.2081319,198.932208 L55.183332,198.932208 L52.826749,198.932208 L48.0771704,198.932208 L13.7720153,79.9586015 L0,79.9586015 L0,61.7197805 L46.989301,61.7197805 L46.989301,79.9586015 L35.1638133,79.9586015 L42.7010117,105.959879 L72.1613173,105.959879 L79.6988207,79.9586015 L67.873516,79.9586015 L67.873516,61.7197805 L107.176125,61.7197805 L107.176125,54.7170108 L107.176125,42.5574518 L107.176125,18.2393689 L92.8183948,18.2393689 L92.8183948,0 L139.80794,0 L139.80794,18.2393689 L125.4496,18.2393689 L125.4496,42.5574518 L125.4496,54.7170108 L125.4496,61.7197805 L148.896493,61.7197805 L148.896493,53.3959747 L159.2415,53.3959747 L159.2415,61.7197805 L159.2415,79.9586015 L159.2415,88.2817377 L148.896493,88.2817377 L148.896493,79.9586015 L125.4496,79.9586015 L125.4496,118.842721 L153.150138,118.842721 L153.150138,104.367331 L171.424223,104.367331 L171.424223,118.842721 L171.424223,119.132496 L171.424223,137.081542 L93.9784799,137.081542 L93.9784799,137.081542 Z" id="path14"></path>
                    </g>
                </g>
            </g>
        </g>
    </g>
</svg>