<?xml version="1.0" encoding="UTF-8"?>
<svg width="200px" height="200px" viewBox="0 0 200 200" version="1.1" xmlns="http://www.w3.org/2000/svg" xmlns:xlink="http://www.w3.org/1999/xlink">
    <!-- Generator: Sketch 54.1 (76490) - https://sketchapp.com -->
    <title>american</title>
    <desc>Created with Sketch.</desc>
    <g id="american" stroke="none" stroke-width="1" fill="none" fill-rule="evenodd">
        <g id="american_BGL">
            <g id="american" transform="translate(0.000000, 11.000000)">
                <g id="g10" transform="translate(99.999998, 88.614139) scale(-1, 1) rotate(-180.000000) translate(-99.999998, -88.614139) translate(0.000000, 0.129292)" fill-rule="nonzero">
                    <g id="g12">
                        <path d="M70.0080791,27.5224236 C73.5715133,15.4799592 83.2262605,2.21535348 118.490502,0.90483028 C154.422016,-0.430319181 165.570097,24.0307065 165.570097,24.0307065 C167.525652,23.6583832 199.060803,17.1830097 199.060803,17.1830097 L199.004844,67.6412104 C199.004844,67.6412104 178.493935,72.6242406 168.759592,74.0147456 C168.759592,74.0147456 168.480804,77.8682809 169.134137,83.5195939 C169.764642,88.9763614 184.492521,103.803634 184.492521,103.803634 L141.052926,103.803634 L113.90424,164.026865 C111.692724,169.310703 120.892926,176.087268 120.892926,176.087268 L54.8624229,175.917773 C54.8624229,175.917773 62.1402005,171.804036 61.5559581,163.904238 C61.3020187,160.470299 36.6115142,111.064846 30.467272,100.250907 C24.3230297,89.4373715 10.5602018,77.1500991 10.5602018,77.1500991 L52.9549482,77.1500991 C43.8616151,76.5355536 0.852587857,68.7937357 0.852587857,68.7937357 L0.852587857,17.1706864 C0.852587857,17.1706864 53.7563623,28.6684841 69.6915134,28.6684841 L70.0080791,27.5224236" id="path14" fill="#223B8C"></path>
                        <path d="M70.827877,27.756767 C73.9424224,17.2381612 82.2781798,3.10361608 118.522219,1.75694541 C126.589896,1.45659794 134.039189,2.46101004 140.667875,4.74060594 C145.960804,6.5606059 150.747269,9.19476745 154.894542,12.5695148 C161.966259,18.324646 164.767269,24.3250499 164.794541,24.3850499 L165.072925,24.9925246 L165.729491,24.8680802 C167.492723,24.5325246 192.678783,19.3636359 198.206864,18.2286864 L198.152924,66.9694933 C194.582823,67.8260589 177.250905,71.9404022 168.639188,73.1707052 L167.958784,73.267877 L167.909289,73.9531295 C167.897774,74.1137355 167.632117,77.9519172 168.287066,83.6173716 C168.835551,88.3638362 178.601006,98.9303006 182.46949,102.951109 L140.502017,102.951109 L140.275552,103.453331 L113.117775,163.697774 C111.336159,167.954339 115.810502,172.803026 118.515957,175.228682 L57.4521198,175.071713 C59.6969682,173.116359 62.8147459,169.365854 62.4062611,163.84141 C62.1202005,159.972521 36.5208072,109.179391 31.2084841,99.8296945 C26.2525246,91.1072704 16.5909895,81.6115131 12.7457371,78.0026243 L52.9549482,78.0026243 L53.0125239,76.299392 C44.7040393,75.7379779 7.31187861,69.0836346 1.70517774,68.0804023 L1.70517774,18.2268682 C9.37854522,19.8761813 54.8864633,29.5212114 69.6915134,29.5212114 L70.3406043,29.5212114 L70.827877,27.756767 Z M121.282825,0 C120.349694,0 119.408482,0.0175978581 118.458987,0.0527147462 C102.443432,0.648121196 90.1361594,3.82181809 81.8791899,9.48604017 C75.6119173,13.785434 71.4614124,19.6060601 69.1905033,27.2806054 L69.1860589,27.2955549 L69.0442407,27.8098983 C52.6357563,27.5141407 1.55468683,16.4506865 1.03369694,16.3375956 L0,16.1129289 L0,69.5064629 L0.701547457,69.6327255 C1.98674338,69.8642407 24.4591913,73.9032305 39.9844434,76.2975739 L8.32529272,76.2975739 L9.99226238,77.7860587 C10.1289492,77.9080789 23.7228277,90.1068664 29.7260599,100.672119 C36.0705041,111.838785 60.4721197,160.847673 60.705655,163.967067 C61.2418167,171.216965 54.7195946,175.017975 54.4416148,175.176157 L51.6577765,176.76141 L54.8602006,176.770299 L123.493936,176.946662 L121.398785,175.401006 C118.992926,173.626258 113.101411,168.186864 114.686462,164.366259 L141.603633,104.656361 L186.541005,104.656361 L185.097369,103.202826 C181.058783,99.1365632 170.470299,87.6563614 169.981006,83.4216141 C169.502016,79.2767657 169.532925,76.0880789 169.57838,74.7557557 C179.493127,73.248281 199.00545,68.5185841 199.206056,68.4698973 L199.856763,68.3115134 L199.91454,16.1373935 L198.889288,16.3480804 C198.59252,16.4088481 170.902824,22.0943429 166.041814,23.0682823 C165.134339,21.3470702 162.14343,16.2915147 156.044239,11.3068886 C151.740198,7.78929273 146.773936,5.04466654 141.283633,3.14907063 C135.222623,1.05634543 128.506057,0 121.282825,0 L121.282825,0 Z" id="path16" fill="#C4122E"></path>
                        <path d="M111.038381,93.2389876 C111.038381,93.2389876 102.461614,91.2298967 102.437775,83.0783818 C102.404846,71.5616144 102.120604,70.9448467 102.286462,42.4464636 C102.286462,42.4464636 101.578583,29.5628275 118.359997,29.6155548 C135.441007,29.6696962 135.506865,40.5189889 135.522623,41.5593929 C135.555552,43.8587868 135.522623,81.8688868 135.522623,81.8688868 C135.522623,81.8688868 135.256158,90.9371694 127.457573,93.1604017 L111.038381,93.2389876" id="path18" fill="#223B8C"></path>
                        <path d="M111.140603,92.4167654 C110.731714,92.3060583 108.938785,91.773129 107.179189,90.5143412 C104.58727,88.6604018 103.268684,86.1577756 103.259795,83.0759575 C103.249088,79.3381798 103.211715,76.7365637 103.172321,73.9824224 C103.089896,68.227069 102.996361,61.7038368 103.108482,42.4513121 L103.108684,42.4264636 L103.10727,42.4012111 C103.105048,42.3591909 102.922826,37.949898 106.168482,34.5476759 C108.7703,31.8202012 112.837169,30.437373 118.256563,30.437373 C118.290098,30.437373 118.323633,30.437373 118.357371,30.437575 C133.37131,30.4850497 134.662421,38.9579788 134.700603,41.5535343 C134.733128,43.821009 134.701411,80.9246444 134.700805,81.8533313 C134.69434,82.0044424 134.588481,84.1105029 133.634542,86.4167655 C132.365249,89.4848462 130.247471,91.4769674 127.338583,92.3391896 L111.140603,92.4167654 Z M118.256765,28.7935346 C112.356563,28.7935346 107.88323,30.3543427 104.959593,33.4335345 C101.332523,37.2531304 101.445048,42.0125242 101.464442,42.4636353 C101.352523,61.7163621 101.446058,68.2448468 101.528684,74.0060588 C101.568078,76.7553516 101.60525,79.3523212 101.615957,83.080604 C101.626462,86.6907049 103.236563,89.7355533 106.271917,91.8860583 C108.52424,93.4820179 110.756967,94.0173714 110.850906,94.0391896 L110.94525,94.0614118 L127.57434,93.9818158 L127.682825,93.9509067 C131.122825,92.9700987 133.713532,90.5640381 135.175148,86.9923211 C136.260603,84.3395939 136.341209,81.9917151 136.344037,81.8929272 L136.344441,81.8694929 C136.345855,80.3173717 136.376966,43.8270696 136.344239,41.5474737 C136.323229,40.1066657 135.985451,37.3240395 133.95838,34.6721203 C130.994542,30.7947467 125.747472,28.817171 118.362623,28.7937367 C118.327472,28.7937367 118.291916,28.7935346 118.256765,28.7935346 L118.256765,28.7935346 Z" id="path20" fill="#223B8C"></path>
                        <path d="M175.601006,98.9490884 C171.2804,96.0173713 166.272521,90.1953513 165.1004,87.0688867 C163.426057,83.1616141 163.651915,80.5737354 163.652319,75.7896951 L163.713531,38.3571708 C163.713531,38.3571708 164.888077,5.59777764 118.370704,6.08727258 C81.4074727,6.47616145 74.7226244,25.996969 74.1107052,37.6262617 L73.9933315,81.309897 C73.9933315,81.309897 74.3454527,86.8290887 71.4098972,90.2345432 C66.0905034,96.4052501 61.5638368,98.9989874 61.5638368,98.9989874 L109.243836,98.9989874 L110.941007,93.7529269 C110.941007,93.7529269 102.324442,91.4945432 102.300604,83.2597959 C102.267068,71.6268669 101.977371,71.0026245 102.146664,42.2147464 C102.146664,42.2147464 101.425856,29.2002013 118.502623,29.2535346 C135.885249,29.3082821 135.952724,40.2688879 135.967875,41.3187868 C136.001209,43.6422211 135.967875,82.0375737 135.967875,82.0375737 C135.967875,82.0375737 135.696966,91.1987856 127.760603,93.4442401 L127.914744,98.9989874 L175.601006,98.9490884" id="path22" fill="#FFFFFF"></path>
                        <path d="M74.9440385,37.649696 C75.5462607,26.3276761 81.9957555,7.30343416 118.379391,6.92038367 C134.707067,6.75410084 146.868279,10.6521411 154.542218,18.5231915 C163.170097,27.3723225 162.884642,38.2187869 162.880804,38.3272718 L162.880198,38.3557566 L162.818986,75.7882809 C162.818986,76.3181799 162.816158,76.8199981 162.813531,77.299594 C162.791713,81.1856545 162.77737,83.7551494 164.327067,87.3797958 C165.418986,90.2684826 169.351511,94.9824219 173.127066,98.1183814 L128.725047,98.164846 L128.611108,94.0511088 C131.800805,92.9583815 134.212926,90.6074725 135.610704,87.2163615 C136.715754,84.5355534 136.797774,82.1620181 136.800805,82.0622202 L136.801209,82.0383818 C136.802623,80.470301 136.834138,43.6100999 136.801007,41.3068677 C136.780603,39.8541404 136.438784,37.0438375 134.375754,34.3622214 C131.360805,30.4430295 126.021411,28.4440397 118.50525,28.4202013 C118.469694,28.4202013 118.432926,28.4199993 118.397371,28.4199993 C112.371916,28.4197973 107.810906,30.0080801 104.837371,33.1408073 C101.180402,36.9941405 101.293331,41.7757565 101.313331,42.2323222 C101.198987,61.6822207 101.294341,68.27717 101.378381,74.0969678 C101.418381,76.8739375 101.456361,79.4969677 101.46727,83.2622201 C101.477775,86.9034322 103.091715,90.0161594 106.134543,92.2646442 C107.581007,93.333533 109.019795,93.963836 109.892927,94.2856542 L108.637573,98.1658561 L64.2608065,98.1658561 C66.1232307,96.7658562 68.9432306,94.3721189 72.0410083,90.7785836 C75.0816143,87.251311 74.8545436,81.7888868 74.8266648,81.2862606 L74.9440385,37.649696 Z M119.404239,5.24850492 C119.058381,5.24850492 118.71131,5.2503231 118.362017,5.25410088 C101.88525,5.42747461 89.6577755,9.39717148 82.0189878,17.0531107 C75.3353517,23.7519186 73.5769679,31.9143426 73.278584,37.5824233 L73.2775739,37.6240395 L73.1599982,81.3353515 L73.1616143,81.3628262 C73.1648467,81.4139374 73.4513113,86.5900988 70.7787861,89.6905028 C65.6300994,95.6630279 61.1931298,98.2509066 61.1490894,98.2763612 L58.4456551,99.8319167 L109.850098,99.8323207 L112.00525,93.1705027 L111.15232,92.9468664 C110.827068,92.8604017 103.155553,90.7377755 103.133937,83.2575737 C103.123028,79.4826243 103.085048,76.8547456 103.044644,74.0729274 C102.960806,68.2589882 102.865654,61.6690894 102.979997,42.2195949 L102.978583,42.1684838 C102.976361,42.1262616 102.791917,37.7006051 106.063634,34.2698981 C108.710502,31.4939386 112.859997,30.0866659 118.397169,30.0866659 C118.431512,30.0866659 118.465452,30.0866659 118.499997,30.0868679 C133.789088,30.1349487 135.097572,38.6925243 135.134542,41.3143424 C135.167269,43.6052514 135.13535,81.1254525 135.134542,82.0234323 C135.11737,82.4993919 134.71333,90.6111088 127.533734,92.6424219 L126.909694,92.8189876 L127.104239,99.8331288 L178.308884,99.7795935 L176.068884,98.2595935 C172.494945,95.8345431 167.153531,90.1717149 165.880602,86.7765635 L165.866258,86.7408059 C164.445854,83.4258565 164.458582,81.1234323 164.479996,77.3086849 C164.482622,76.8264627 164.48545,76.3216143 164.485652,75.7896951 L164.546865,38.3715142 C164.567673,37.7113122 164.773127,26.6290902 155.735552,17.3597773 C147.897774,9.32103007 135.677572,5.24850492 119.404239,5.24850492 L119.404239,5.24850492 Z" id="path24" fill="#223B8C"></path>
                        <path d="M119.104441,9.97979773 C91.4404018,9.97979773 78.0264627,20.8783833 78.0264627,43.0949484 L78.0264627,80.5412101 C78.0264627,88.2258564 75.7913112,92.9769674 70.8999982,95.0725229 L105.41131,95.0725229 C100.241816,92.6971694 98.4258561,88.3656544 98.4258561,80.5412101 L98.4258561,43.7929282 C98.4258561,31.7769689 105.551715,25.2096963 119.104441,25.2096963 C132.658179,25.2096963 139.644643,31.6363628 139.644643,43.7929282 L139.644643,80.5412101 C139.644643,87.8064625 138.526259,92.2777755 132.658179,95.0725229 L167.310097,95.0725229 C162.55939,93.1165633 160.043632,88.0864624 160.043632,80.5412101 L160.043632,43.0949484 C160.043632,20.8783833 146.770905,9.97979773 119.104441,9.97979773" id="path26" fill="#C4122E"></path>
                        <path d="M104.712523,116.936563 L86.8688867,158.579188 L70.2703013,116.936563 L104.712523,116.936563 Z M108.821411,99.0270682 L65.575958,99.0319167 C63.125453,93.4428259 65.1824226,89.5086846 65.1824226,89.5086846 C65.7379782,87.5173715 69.137776,84.181412 71.2850487,82.2341394 L23.8949489,82.3064626 C28.1884841,86.8010079 33.1373729,92.4036341 36.4797971,98.4559571 L68.1846448,164.042218 C68.6159579,165.248885 68.7886851,166.372319 68.4434326,167.580602 C68.2995943,168.083632 68.0830286,169.377774 66.0119175,171.362622 L110.605452,171.355349 C108.80727,169.665248 108.154543,167.815955 108.054543,167.23939 C107.943836,166.601208 107.881815,165.341006 108.436765,164.104036 L137.9303,98.0874723 C141.155148,92.1080785 146.344441,86.6254524 151.399794,82.3151495 L104.630502,82.3329272 C104.630502,82.3329272 109.037371,85.8688867 110.327876,89.6387856 C111.862421,94.1230279 108.821411,99.0270682 108.821411,99.0270682 L108.821411,99.0270682 Z" id="path28" fill="#FFFFFF"></path>
                        <path d="M71.4991901,117.769694 L103.449088,117.769694 L86.8967655,156.398986 L71.4991901,117.769694 Z M105.975957,116.103431 L69.0412104,116.103431 L86.8410079,160.759592 L105.975957,116.103431 Z M25.826868,83.1367656 L69.1719175,83.070503 C67.0434327,85.131311 64.9216145,87.5070685 64.4032307,89.2052503 C64.0995944,89.8416139 62.3973722,93.8569674 64.8129277,99.3664622 L65.0315135,99.86525 L109.28525,99.8601995 L109.529492,99.4662601 C109.662219,99.2523208 112.759593,94.1715128 111.116159,89.3690887 C110.275553,86.9135332 108.250502,84.601008 106.791715,83.1652504 L149.184845,83.1490888 C145.181006,86.7587857 140.342421,91.8595937 137.196966,97.6921188 L137.169492,97.7476743 L107.675957,163.764238 C106.979795,165.316157 107.134543,166.810905 107.233735,167.381612 C107.336159,167.972723 107.775957,169.204238 108.752725,170.522622 L67.8913114,170.529289 C68.8541397,169.27939 69.0939377,168.375349 69.2141397,167.921814 C69.2250488,167.880602 69.2349478,167.843026 69.2444427,167.809491 C69.6044427,166.549693 69.5195942,165.301208 68.9690892,163.761612 L68.9347458,163.679592 L37.2202011,98.0731289 L37.209292,98.0533309 C34.0812113,92.3892906 29.647474,87.2210079 25.826868,83.1367656 L25.826868,83.1367656 Z M73.4476749,81.3975737 L21.9494944,81.4763616 L23.2925247,82.8820181 C27.2993933,87.0763615 32.3335345,92.6789876 35.7395951,98.8389874 L67.4147458,164.363834 C67.8331296,165.550299 67.9010084,166.446056 67.6424226,167.351713 C67.6300993,167.394339 67.617372,167.442016 67.6034327,167.494743 C67.4662609,168.011915 67.1808064,169.088279 65.4353519,170.761208 L63.9381802,172.196157 L112.708078,172.188279 L111.175957,170.748279 C109.549896,169.219996 108.955553,167.558582 108.875553,167.096966 C108.818583,166.769491 108.674139,165.610501 109.196765,164.445248 L138.678178,98.4561592 C142.156764,92.0199977 147.808481,86.471917 151.940198,82.9490888 L153.662016,81.4810081 L102.26525,81.500604 L104.108886,82.9826242 C104.151109,83.0165636 108.34424,86.4163615 109.539593,89.9086846 C110.68828,93.2654522 108.969694,96.9933309 108.333533,98.1939369 L66.1307054,98.1987854 C64.2080792,93.3496946 65.8494933,90.0345432 65.9226246,89.8913109 L65.9606044,89.8167654 L65.9850489,89.732523 C66.3513115,88.4189877 68.5420185,85.8464625 71.8446447,82.8513111 L73.4476749,81.3975737 L73.4476749,81.3975737 Z" id="path30" fill="#223B8C"></path>
                        <polygon id="path32" fill="#FFFFFF" points="86.9034322 157.421208 68.7983821 116.975553 105.549088 116.975553"></polygon>
                        <polygon id="path34" fill="#223B8C" points="86.852119 148.01232 76.0802001 120.835957 98.7276743 120.812724"></polygon>
                        <path d="M77.3064627,121.668078 L97.453937,121.64727 L86.8892908,145.844643 L77.3064627,121.668078 Z M100.00121,119.977977 L74.8541395,120.003835 L86.8149473,150.179996 L100.00121,119.977977 L100.00121,119.977977 Z" id="path36" fill="#223B8C"></path>
                        <path d="M104.701816,117.583431 L86.8579776,156.037976 L70.2595942,117.583431 L104.701816,117.583431 Z M142.464643,85.6300989 L111.203028,85.6300989 C113.278179,87.8432301 114.246462,89.7797957 114.246462,92.2696947 C114.246462,94.3446441 113.692926,96.2812097 113.278179,97.2494925 L110.926462,102.64424 L63.4814126,102.64424 L61.6832308,98.6327248 C61.1298975,97.3878764 60.714948,95.3129269 60.714948,93.2379775 C60.714948,89.9181796 61.8216146,87.4282806 63.8965641,85.6300989 L32.2197972,85.6300989 C36.3696961,89.7797957 39.1361606,94.7595936 41.9026252,100.430907 L71.0894932,161.155956 C71.9193921,162.815956 72.3343416,164.199188 72.3343416,165.029087 C72.3343416,165.58242 72.057776,166.412319 71.3660588,167.933935 L105.531715,167.933935 C104.978583,166.550703 104.425048,165.58242 104.425048,164.890905 C104.425048,164.199188 104.840199,162.954339 105.670098,161.155956 L132.782017,100.430907 C135.410098,94.6212098 138.591512,89.6416139 142.464643,85.6300989 L142.464643,85.6300989 Z" id="path38" fill="#C4122E"></path>
                        <path d="M194.065248,23.7941408 C194.065248,23.7941408 143.595148,35.8327264 100.208078,35.8327264 C56.8216147,35.8327264 6.24022207,23.9719186 6.24022207,23.9719186 L6.18678772,64.2149479 C6.18678772,64.2149479 57.6935339,75.4713112 101.079391,75.4713112 C144.466057,75.4713112 194.095349,63.9804024 194.095349,63.9804024 L194.065248,23.7941408" id="path40" fill="#FFFFFF"></path>
                        <path d="M100.208078,36.6660597 C139.805855,36.6660597 185.825652,26.5343428 193.232722,24.8422216 L193.261813,63.3145439 C187.287672,64.6490893 141.214138,74.6379779 101.079391,74.6379779 C60.9064631,74.6379779 13.1582219,64.8373721 7.02090892,63.5410085 L7.07204023,25.015959 C14.4806663,26.6799993 60.6044429,36.6660597 100.208078,36.6660597 Z M194.897773,22.7387873 L193.871914,22.9836358 C193.368076,23.1038378 142.996562,34.9993931 100.208078,34.9993931 C57.4185844,34.9993931 6.93537356,23.2789893 6.43040388,23.1606055 L5.4083837,22.9210095 L5.35266653,64.8854529 L6.00884833,65.0288873 C6.52484832,65.1418166 58.1006046,76.3046446 101.079391,76.3046446 C144.064037,76.3046446 193.786056,64.9072711 194.283429,64.7921196 L194.929086,64.6426246 L194.897773,22.7387873 L194.897773,22.7387873 Z" id="path42" fill="#223B8C"></path>
                        <path d="M190.440601,28.2810094 C190.440601,28.2810094 140.985855,39.5426253 100.345048,39.5426253 C59.7042409,39.5426253 9.27044421,28.2810094 9.27044421,28.2810094 L9.28179775,61.1571702 C9.28179775,61.1571702 59.7161601,72.4187861 100.356967,72.4187861 C140.997774,72.4187861 190.45252,61.1571702 190.45252,61.1571702 L190.440601,28.2810094" id="path44" fill="#FFFFFF"></path>
                        <path d="M10.9412927,59.8179783 L10.9311108,30.3357568 C20.7723227,32.4115143 64.5721196,41.2026252 100.345048,41.2026252 C136.066865,41.2026252 179.033127,32.4365648 188.781409,30.3434336 L188.792116,59.8236349 C180.739793,61.5731298 136.714946,70.7589881 100.356967,70.7589881 C63.966059,70.7589881 19.0943834,61.5573722 10.9412927,59.8179783 Z M192.099793,26.2008074 L190.071914,26.6624236 C189.579187,26.7747468 140.326865,37.8826253 100.345048,37.8826253 C60.3591904,37.8826253 10.1348684,26.7731306 9.63218158,26.6608074 L7.60977759,26.2094943 L7.62232304,62.4874732 L8.92006038,62.7773722 C9.42622199,62.8900994 59.9999985,74.078786 100.356967,74.078786 C140.717572,74.078786 190.324642,62.8888873 190.821005,62.775756 L192.112924,62.4816146 L192.099793,26.2008074 L192.099793,26.2008074 Z" id="path46" fill="#FFFFFF"></path>
                        <path d="M189.270904,29.7501003 C189.270904,29.7501003 140.496966,40.4692919 100.404846,40.4692919 C60.3133318,40.4692919 10.5483836,29.7501003 10.5483836,29.7501003 L10.5599795,60.4379783 C10.5599795,60.4379783 60.3127258,70.9496952 100.40424,70.9496952 C140.49636,70.9496952 189.282622,60.4379783 189.282622,60.4379783 L189.270904,29.7501003" id="path48" fill="#C4122E"></path>
                        <path d="M11.3593735,59.7864632 L11.3483229,30.7347467 C18.5036359,32.2159588 63.7517156,41.2688879 100.404846,41.2688879 C137.023835,41.2688879 181.385652,32.2333325 188.471712,30.7385851 L188.482824,59.7892914 C182.631107,61.0084833 137.499391,70.1500993 100.40424,70.1500993 C63.2822206,70.1500993 17.2794339,60.9973722 11.3593735,59.7864632 Z M190.070096,28.7559589 L189.099187,28.9690902 C188.612319,29.0763629 139.948077,39.669696 100.404846,39.669696 C60.8602005,39.669696 11.2136159,29.0755548 10.7167674,28.9684841 L9.74834319,28.7599993 L9.76056541,61.0862611 L10.3946462,61.2204025 C10.8929896,61.325453 60.6884833,71.7492911 100.40424,71.7492911 C140.122017,71.7492911 188.96242,61.324847 189.451106,61.2195944 L190.082419,61.0834328 L190.070096,28.7559589 L190.070096,28.7559589 Z" id="path50" fill="#C4122E"></path>
                        <path d="M30.857979,46.731918 L25.6107064,54.2361603 L23.5325247,45.431312 L30.857979,46.731918 Z M40.0955546,41.3626252 L33.4472719,40.1818172 C33.8048476,40.7309081 33.9377769,41.1793929 33.8438375,41.7088878 C33.7654537,42.1496959 33.5741406,42.541009 33.4494941,42.73111 L32.7458578,43.7898979 L22.6551509,41.9979787 L22.4242419,41.0767666 C22.3535348,40.7915141 22.3438378,40.3343424 22.4222217,39.8927263 C22.5474742,39.1870697 22.8771711,38.699191 23.386262,38.3949485 L16.6493127,37.1987869 C17.3755551,38.2383829 17.7753329,39.4016152 18.1497773,40.7125242 L22.0634338,54.7292916 C22.1773732,55.113534 22.2137368,55.4230289 22.1822217,55.5997966 C22.1612116,55.7177764 22.0709085,55.883635 21.8666661,56.1812107 L29.1327265,57.4715137 C29.067272,57.1565642 28.9862619,56.9296955 29.0121205,56.7826248 C29.0385851,56.6351501 29.1737366,56.3860592 29.4179791,56.0353521 L37.4775748,44.1440393 C38.2557566,43.0078777 39.1208071,42.0692919 40.0955546,41.3626252 L40.0955546,41.3626252 Z" id="path52" fill="#FFFFFF"></path>
                        <path d="M45.1286857,45.2232312 C45.3470696,43.5947464 45.9559584,42.6513121 47.0523221,42.3458575 L40.2408071,41.4329283 C41.2177767,42.0157565 41.5565646,43.0862615 41.3383828,44.7147464 L39.8010091,56.1753521 C39.5828273,57.8038369 38.9737364,58.7474733 37.8779789,59.0525238 L46.5547463,60.2163621 C46.4385847,59.9599985 46.4066655,59.7442409 46.4305039,59.5664632 C46.4505039,59.4183824 46.541615,59.1898975 46.711312,58.8208066 L52.6896957,46.8404029 L55.3723218,60.1026248 C55.4252511,60.3812106 55.4573724,60.5963621 55.4410087,60.714746 C55.413534,60.9220187 55.2967663,61.1177762 55.1131299,61.3642409 L63.9670691,62.5519176 C62.9646449,61.9347459 62.6810085,60.9022207 62.8997964,59.2735339 L64.436564,47.8131301 C64.6353519,46.3325241 65.0167661,45.5090898 66.1824226,44.9119181 L59.3119177,43.9903019 C60.3262611,44.9703019 60.4224227,45.8272716 60.2317157,47.2490897 L58.6907056,58.7391905 L55.3880794,44.7002009 C55.3351501,44.4218171 55.2999986,44.2361605 55.3195946,44.0880797 C55.343837,43.9100999 55.4307057,43.710908 55.6103016,43.4941403 L50.5759583,42.8187868 C50.6292917,43.0971706 50.6644432,43.2830292 50.652524,43.3715141 C50.6369684,43.4903019 50.5456553,43.7189888 50.3797967,44.0589888 L43.5357565,57.0981804 L45.1286857,45.2232312" id="path54" fill="#FFFFFF"></path>
                        <path d="M68.7791902,48.1690897 L67.8535337,59.81515 C67.7260589,61.4230288 67.2036347,62.3406045 66.1230286,62.7345439 L84.7082807,64.2117156 C84.521412,63.9268671 84.451109,63.6816146 84.4672706,63.4731297 C84.4959575,63.115958 85.0692908,61.9325237 85.8749473,59.7187864 C83.7822201,60.7812106 81.6737353,60.9135338 79.2612101,60.7216146 L72.2022204,60.1604025 L72.5313113,56.0204026 L80.3347455,56.6406046 C81.3771697,56.723837 82.1028262,57.0210087 82.6799979,57.3068673 L81.3894929,54.6866653 C81.0539374,54.0006047 80.4272707,53.5909078 79.6232303,53.5270694 L72.7729275,52.9824229 L73.127877,48.5149483 L80.5741394,49.1066654 C83.5228262,49.3412109 85.8165635,50.272524 87.3159574,51.7703017 C86.5341393,49.1606048 85.9608059,47.7066655 85.9959574,47.2597968 C86.0147453,47.021615 86.1531292,46.7929281 86.3854524,46.511312 L67.5315135,45.0125241 C68.5387862,45.5420191 68.907271,46.5604029 68.7791902,48.1690897" id="path56" fill="#FFFFFF"></path>
                        <path d="M99.0492905,56.5832309 C101.887876,56.6032309 103.078583,57.1791905 103.065654,59.0915137 C103.052119,61.0032308 101.853129,61.5327257 99.014745,61.5133318 L94.264038,61.4797964 L94.2987855,56.5503016 L99.0492905,56.5832309 Z M95.8905027,46.761211 L88.5111089,46.7092918 C89.5832301,47.1949483 89.9943412,48.1838372 89.9832301,49.8268674 L89.902018,61.4496954 C89.8907048,63.0630287 89.4361594,64.01616 88.3868665,64.4868671 L98.874341,64.5595943 C101.174341,64.575756 102.997169,64.5884832 104.314947,64.1791903 C106.381209,63.536362 107.708078,61.7228267 107.724442,59.3626248 C107.74222,56.8529279 106.052119,54.9589885 102.919189,54.3391906 C104.447876,53.6628269 105.231715,52.6523219 106.04727,51.403029 C107.164644,49.7078775 107.983432,47.9806049 109.66424,46.8565645 L102.045452,46.8036352 C102.401614,47.1648473 102.578987,47.4650493 102.576159,47.8531301 C102.569694,48.7494937 101.993735,49.9705038 100.758381,51.4559583 C99.5832298,52.8818169 98.1739369,53.5292916 96.3816138,53.5167663 L94.3197956,53.5028269 L94.3452502,49.8577765 C94.3565633,48.2139382 94.8418158,47.202019 95.8905027,46.761211 L95.8905027,46.761211 Z" id="path58" fill="#FFFFFF"></path>
                        <path d="M116.62828,60.9567662 L116.02828,49.4092917 C115.943027,47.7682816 116.339593,46.7606049 117.388886,46.2272716 L110.018785,46.6100998 C111.117775,47.031716 111.586664,47.9945443 111.672118,49.6355543 L112.271916,61.1830288 C112.356765,62.8240388 111.990502,63.8309075 110.941007,64.3634327 L118.31131,63.9810085 C117.212118,63.5595944 116.71333,62.5977762 116.62828,60.9567662" id="path60" fill="#FFFFFF"></path>
                        <path d="M135.17737,44.8767666 C133.868482,44.9995948 131.670906,44.6046453 128.904441,44.8634332 C122.597573,45.4523221 119.276765,49.0935341 119.810704,54.8056552 C120.349896,60.5767662 124.83535,63.9387863 131.469492,63.3185843 C134.503431,63.0347459 136.549087,62.1238368 137.709289,62.01515 C138.007067,61.9872712 138.312724,62.0486853 138.707875,62.1016146 L136.719391,57.8466652 C135.102825,59.1682813 133.367673,59.8700995 131.344643,60.0593924 C127.447674,60.4232308 124.801815,58.1199985 124.471108,54.5804027 C124.106866,50.682827 125.99434,48.4058574 129.951108,48.0361604 C132.182219,47.8276756 134.387875,48.311716 136.909087,49.2763624 L136.461007,44.4868676 C135.97232,44.7127262 135.564239,44.840807 135.17737,44.8767666" id="path62" fill="#FFFFFF"></path>
                        <path d="M154.787673,49.0460594 L152.143835,57.8131299 L147.422421,50.0959583 L154.787673,49.0460594 Z M161.889491,41.0628273 L155.204441,42.0151505 C155.71535,42.4254535 155.981814,42.8100999 156.05737,43.3424232 C156.120804,43.7858575 156.061208,44.2171706 156.00242,44.4371706 L155.66343,45.6620191 L145.517774,47.1072715 L145.010905,46.3044433 C144.854542,46.0553524 144.702825,45.6242413 144.639592,45.1804029 C144.538582,44.470706 144.699188,43.9042413 145.088279,43.4569686 L138.31434,44.4218171 C139.328077,45.1826251 140.071512,46.1634332 140.83636,47.291716 L148.927067,59.3880793 C149.155754,59.7177763 149.286461,60.0010086 149.311915,60.1781803 C149.328683,60.2965641 149.294744,60.4822207 149.193128,60.8290894 L156.49939,59.7880793 C156.338986,59.5090894 156.191107,59.3189884 156.169895,59.1709076 C156.148885,59.0228268 156.199592,58.7440389 156.322218,58.334544 L160.269895,44.5228272 C160.654541,43.200403 161.183632,42.0385848 161.889491,41.0628273 L161.889491,41.0628273 Z" id="path64" fill="#FFFFFF"></path>
                        <path d="M168.002016,43.0785848 C167.736763,41.4565646 167.893935,40.4860596 168.94444,39.7486859 L162.036764,41.0070697 C163.180602,41.2842414 163.768481,42.1795949 164.063026,43.7961605 L166.135753,55.1719178 C166.430299,56.7884834 166.195753,57.8335339 165.223026,58.4965642 L173.776561,56.9381804 C173.621612,56.753938 173.536157,56.6173723 173.519996,56.5292915 C173.498986,56.4119178 173.543834,56.1608067 173.637369,55.8397966 L178.052319,41.3993929 L180.039187,52.6387866 C180.333531,54.2555542 180.016561,55.3460592 179.067672,55.974342 L185.799187,54.7478774 C184.294339,54.323635 184.083026,53.3292916 183.842218,52.0064633 C183.836561,51.9773724 183.825854,51.9185846 183.815147,51.8595947 L181.474945,39.0143425 C181.36242,38.3971708 181.335349,37.9157566 181.613127,37.4402011 L174.588278,38.7204031 C174.777773,38.9282819 174.868682,39.0941404 174.890299,39.2113122 C174.911511,39.3290899 174.855753,39.5216152 174.762218,39.8424232 L169.834541,54.8018168 L168.002016,43.0785848" id="path66" fill="#FFFFFF"></path>
                    </g>
                </g>
            </g>
        </g>
    </g>
</svg>