<?xml version="1.0" encoding="UTF-8"?>
<svg width="200px" height="200px" viewBox="0 0 200 200" version="1.1" xmlns="http://www.w3.org/2000/svg" xmlns:xlink="http://www.w3.org/1999/xlink">
    <!-- Generator: Sketch 54.1 (76490) - https://sketchapp.com -->
    <title>arkansas</title>
    <desc>Created with Sketch.</desc>
    <g id="arkansas" stroke="none" stroke-width="1" fill="none" fill-rule="evenodd">
        <g id="arkansas_BGL">
            <g id="arkansas" transform="translate(0.000000, 56.000000)">
                <g id="g10" transform="translate(100.035572, 43.742442) scale(-1, 1) rotate(-180.000000) translate(-100.035572, -43.742442) translate(0.071149, 0.056921)" fill-rule="nonzero">
                    <g id="g12" transform="translate(0.128068, 0.000000)">
                        <path d="M150.057627,67.6082516 L150.057627,67.6082516 C150.642472,70.2814639 146.50302,74.393737 143.561718,76.9726057 C141.081462,79.1462093 138.51725,81.393808 136.017784,84.8120932 C134.295977,87.3215204 134.295977,87.3215204 134.295977,87.3215204 C134.295977,87.3215204 130.596937,69.7535379 139.234433,63.1694043 C141.205831,61.6664517 142.736389,62.924367 142.736389,62.924367 C142.736389,62.924367 148.75133,60.7352528 150.057627,67.6082516" id="path14" fill="#CE0F3E"></path>
                        <path d="M139.234433,63.1694043 C141.205831,61.6664517 142.736389,62.924367 142.736389,62.924367 C142.736389,62.924367 141.074632,62.9590877 139.975521,63.7945199 C133.009459,69.0895749 135.097684,84.1393078 135.097684,84.1393078 C140.746492,76.4147971 146.921377,74.3139078 150.057627,67.6082516 L150.057627,67.6082516 C150.642472,70.2814639 146.50302,74.393737 143.561718,76.9726057 C141.081462,79.1462093 138.51725,81.393808 136.017784,84.8120932 C134.295977,87.3215204 134.295977,87.3215204 134.295977,87.3215204 C134.295977,87.3215204 130.596937,69.7535379 139.234433,63.1694043" id="path16" fill="#231F20"></path>
                        <path d="M130.104159,26.8980427 C130.115159,26.9240427 130.125159,26.9520427 130.136159,26.9790427 M141.235713,43.4426172 C139.978936,69.2054056 128.263675,78.2854481 127.162572,79.083029 C126.779079,79.392812 124.32216,81.3521147 121.702309,82.8505138 L118.458055,84.7057965 L118.680609,82.8330111 C116.429453,84.2417624 112.492064,85.8197061 112.492064,85.8197061 L113.070079,83.6234771 C110.726287,84.6410509 106.942438,85.6230502 106.942438,85.6230502 L107.581641,83.8121644 C104.966344,84.6125913 101.277692,85.3240818 101.277692,85.3240818 L102.170897,83.3353234 C99.0064721,83.9281374 95.4764828,84.0704355 95.4764828,84.0704355 L96.5986458,82.264957 C93.9023811,82.5024526 89.9871909,82.2192793 89.9871909,82.2192793 L91.1736726,80.7123423 C88.427319,80.7059389 84.7674116,80.1302008 84.7674116,80.1302008 L85.8844518,78.9020258 C83.0380627,78.7383829 79.6291691,78.1572375 79.6291691,78.1572375 L80.9199553,76.8552097 C78.6466007,76.5997846 74.6746335,75.7615065 74.6746335,75.7615065 L75.8265367,74.7166114 C73.1432212,74.4041248 69.8525774,73.712556 69.8525774,73.712556 L70.8001405,72.837138 C68.0103861,72.4651707 64.7066508,71.708714 64.7066508,71.708714 L65.7085718,70.8456759 C63.3909625,70.5829936 59.9197424,69.7590875 59.9197424,69.7590875 L60.9528267,68.8297386 C58.4863735,68.6154376 54.8463878,67.5719656 54.8463878,67.5719656 L55.751973,66.7920296 C53.496121,66.5625028 49.9759504,65.7081449 49.9759504,65.7081449 L53.9511904,62.110991 L64.3334029,36.6611161 L72.4160779,13.8376517 L80.273495,9.08701507 C83.3744554,6.03198847 84.5410153,5.85072913 84.9283508,5.79109199 C85.457842,5.7097117 86.257842,5.69504077 87.184345,5.67797922 C87.7279238,5.66818911 88.5733169,5.65235134 89.0152948,5.61337588 C89.1456399,5.51277112 89.2882226,5.40176436 89.4436121,5.2805406 C91.8124488,3.4352187 96.2218404,0.00016675631 99.9408015,0.00016675631 C103.523156,0.00016675631 105.5556,1.71113478 107.178653,3.79953032 C107.178653,3.79953032 112.958944,3.20926353 112.962929,3.2088224 C116.60946,2.84441117 119.851011,4.79617206 121.422978,8.30309478 C122.048948,9.69945191 122.611594,9.96486635 124.28132,10.7530129 L124.523369,10.8649019 C126.217713,11.6427034 131.30672,13.9827958 132.654853,20.1775875 C133.24724,21.1373883 134.683597,23.1782278 136.163355,24.1950901 C136.7556,24.5023117 139.448164,24.8075412 142.215009,24.5720378 L144.893629,24.3440762 C144.893629,24.3440762 141.563568,36.716897 141.235713,43.4426172" id="path18" fill="#231F20"></path>
                        <path d="M191.436495,32.2744923 C195.639981,35.9484872 199.766626,35.6091062 199.766626,40.1000346 C199.766626,42.9659185 196.998928,44.0653137 195.288505,44.0653137 C193.578081,44.0653137 192.414083,43.5810733 192.414083,43.5810733 C190.575591,45.249234 187.856274,44.7534674 187.856274,44.7534674 C186.658124,45.8228377 178.951258,50.3506213 175.18605,52.1825672 C170.336531,54.7203117 168.106719,57.3657759 165.283525,60.7150465 C161.997861,64.6145839 157.908214,69.467661 148.364279,75.7691906 L145.764493,77.4857327 L145.687652,76.7110618 C145.35752,76.9538223 145.006044,77.2046939 144.633223,77.4598344 L142.164635,79.1484861 L141.962003,77.830521 C141.578509,78.0801119 141.165133,78.3328333 140.726428,78.5764477 L137.930413,80.1299162 L137.930413,78.8788312 C137.220061,79.2906419 136.430021,79.7193861 135.614511,80.1094252 L132.920381,81.3977923 L132.920381,80.2252559 C132.160367,80.7519012 131.308143,81.3138365 130.419207,81.8471698 L127.568976,83.5573085 L127.568976,80.2333669 L127.568976,78.297828 L127.568976,77.6388454 L127.97979,77.1238686 C132.822907,71.0551387 133.996581,67.5345412 134.239484,65.8575579 C129.461114,65.5573089 127.12714,61.3403044 127.01814,61.1375296 L125.646671,58.590678 L125.723512,58.5848438 C123.653643,56.783492 123.300317,54.7355376 123.279826,54.6046233 L122.989111,52.7443601 C120.185838,49.8740649 119.755102,46.1781561 119.731623,45.9565979 L119.175237,40.6697962 L122.178012,43.6725709 C121.42497,40.5808599 122.136745,37.9671282 122.850086,36.3392378 L120.379648,37.5742431 L121.395657,33.5857693 C122.786763,28.123941 125.405048,24.3245814 129.176802,22.2932759 C132.247738,20.6393449 135.17111,20.6739234 136.419634,20.6884378 L136.652433,20.6905722 C138.410384,20.6905722 139.413017,21.0985409 139.965133,21.4747771 C140.866165,21.8454637 143.513337,22.4226248 145.89683,22.4385622 C148.708641,21.6199212 151.950192,22.3225893 152.903589,22.5656344 L156.7371,23.5426533 L156.815364,23.5624327 L156.889359,23.588331 C160.42689,24.816506 164.80398,24.9710417 167.780857,23.9728205 C168.422621,23.7575234 173.115613,21.1928846 173.683382,20.9731763 C175.217356,20.3805046 176.544997,19.8688006 177.970824,19.9900386 C179.30985,20.043685 180.502308,20.6500173 181.616502,21.8447522 C182.249729,22.5255064 184.167907,24.5736031 183.480607,26.8032722 C187.204549,26.8032722 188.744214,29.9203123 191.436495,32.2744923" id="path20" fill="#231F20"></path>
                        <path d="M167.671287,39.4322295 C171.439341,37.1591595 178.497327,31.9523293 179.479184,30.931625 C180.462464,29.9109206 181.51547,28.6798997 183.268583,28.6798997 C185.89256,28.6798997 188.321589,32.0976157 189.985054,33.513055 C194.305225,37.1917458 197.885445,36.6356448 197.885445,40.144147 C197.885445,40.8274625 197.256487,42.1854134 195.117747,42.1854134 C190.951258,42.1854134 185.393094,36.7363918 185.393094,36.7363918 C186.706505,40.6991096 190.088932,42.7605824 190.088932,42.7605824 C186.433293,44.0173593 181.377441,38.6131616 181.377441,38.6131616 C181.95944,42.1960857 185.128419,44.4367118 185.128419,44.4367118 C183.541795,45.6179284 175.509067,49.8891485 174.31234,50.5149756 C163.305581,56.2749186 164.917819,62.583563 147.326926,74.1986463 L147.213088,73.0599768 C147.213088,73.0599768 145.733187,74.4263233 143.570256,75.9066505 L143.342579,74.4263233 C143.342579,74.4263233 141.86211,75.7928121 139.812448,76.9314815 L139.812448,75.4511543 C139.812448,75.4511543 137.42127,77.1591585 134.802558,78.4116665 L134.802558,76.4759853 C134.802558,76.4759853 132.2974,78.525505 129.450726,80.2333669 L129.450726,78.297828 C137.982921,67.6066863 135.974952,63.895267 135.974952,63.895267 C131.070505,64.6937017 128.675201,60.2453204 128.675201,60.2453204 C130.157948,60.1313397 131.184629,59.1048011 131.184629,59.1048011 C125.709424,57.9641394 125.139236,54.3141929 125.139236,54.3141929 C126.508001,54.7704006 128.675201,53.8578428 128.675201,53.8578428 C122.287581,52.2611157 121.603554,45.759515 121.603554,45.759515 C123.31412,47.4705075 125.591174,46.7618629 125.591174,46.7618629 C121.599143,40.7166123 125.352114,35.6764132 125.352114,35.6764132 C125.352114,34.3075054 126.04539,32.6373524 126.04539,32.6373524 L123.219492,34.0503727 C126.299107,21.9598714 134.819634,22.572607 136.652433,22.572607 C138.485233,22.572607 138.999072,23.1036636 138.999072,23.1036636 C140.103305,23.6471001 143.389538,24.3517603 146.184272,24.3200279 C148.627531,23.4959795 151.792241,24.2246881 152.438274,24.3891847 L156.273208,25.3662036 C159.866236,26.614158 164.749907,26.9740299 168.378509,25.7572388 C170.707929,24.9763067 176.432582,21.7252218 177.855563,21.8679468 C178.652432,21.8892915 179.412304,22.241337 180.239056,23.127712 C181.795798,24.7977226 182.251152,26.1640691 180.883667,27.9859118 C180.883667,27.9859118 181.035926,26.1640691 178.759156,26.1640691 C175.570255,26.1640691 167.823546,31.5376726 164.786904,33.5114897 C161.750263,35.4850222 156.58911,36.8513687 154.463177,36.8513687 C152.337243,36.8513687 149.908214,37.458697 149.908214,39.736036 C149.908214,42.3595863 157.395941,42.896477 163.339733,41.2769822 C165.516894,40.6837414 165.49128,40.7470641 167.671287,39.4322295" id="path22" fill="#CE0F3E"></path>
                        <path d="M150.493059,42.6665233 C152.300245,43.6486649 155.722515,43.9627168 159.278545,43.5927417 C155.866236,44.4227666 152.537883,44.5807175 150.666663,43.8010661 C149.091423,43.1443604 148.755599,42.0661676 148.694411,41.4817492 C148.650299,41.04774 148.678758,40.6305219 148.771252,40.2356447 C148.791174,40.8388464 149.055848,41.8861605 150.493059,42.6665233" id="path24" fill="#231F20"></path>
                        <path d="M155.501953,41.3348976 C154.99964,40.610031 153.771608,39.5221619 153.437207,39.0915679 C153.25222,38.8536454 153.542508,37.9254348 154.692276,37.7344708 C155.759512,37.5571673 156.083952,38.1891132 156.152255,38.5171104 C156.490925,40.164211 156.07826,40.960369 155.501953,41.3348976" id="path26" fill="#FFFFFF"></path>
                        <path d="M171.691209,34.9175374 C170.911415,34.419494 169.324791,33.8431866 168.829594,33.5601557 C168.556381,33.4036278 168.377086,32.4278896 169.297755,31.8332258 C170.152966,31.2803977 170.733543,31.7556733 170.945567,32.0389889 C172.012803,33.4615431 172.022763,34.3580212 171.691209,34.9175374" id="path28" fill="#FFFFFF"></path>
                        <path d="M173.828526,33.5995723 C173.048733,33.1015289 171.462109,32.5252215 170.966911,32.2423329 C170.693699,32.085805 170.514403,31.1100668 171.435072,30.5152607 C172.290284,29.9624325 172.87086,30.4377082 173.082884,30.7210238 C174.15012,32.143578 174.160081,33.0399138 173.828526,33.5995723" id="path30" fill="#FFFFFF"></path>
                        <path d="M169.232297,36.5556732 C168.543575,35.949341 167.070789,35.1473488 166.629665,34.795161 C166.384912,34.6004972 166.369259,33.6105292 167.37673,33.1577366 C168.311629,32.7372457 168.806826,33.2919237 168.970469,33.6028451 C169.790106,35.1645669 169.650654,36.051511 169.232297,36.5556732" id="path32" fill="#FFFFFF"></path>
                        <path d="M159.392383,36.7382417 C159.580217,39.1375301 159.723938,45.0706499 157.000352,48.3410874 C156.657413,48.7516174 156.647453,49.3445737 156.974738,49.7669144 C157.300601,50.1893975 157.878331,50.327569 158.360722,50.0993228 C158.575592,49.9981489 163.612945,47.5112048 165.182493,37.5728201 C165.408747,36.1468508 165.222337,35.0764844 164.613301,34.3002482 C164.09249,33.6360006 163.315542,33.2560646 162.306648,33.1709704 C161.522586,33.104944 160.831017,33.3468508 160.304514,33.8706502 C159.526143,34.6434712 159.32408,35.8586971 159.392383,36.7382417" id="path34" fill="#231F20"></path>
                        <path d="M165.479896,37.2983271 C164.186406,37.6549261 163.590177,38.3992875 163.316965,38.9609382 C162.871572,39.8790456 162.915684,41.0312334 163.446456,42.2932754 C164.993237,45.9749544 167.88758,47.7092838 168.009957,47.7812866 L170.268228,49.1090703 L169.795798,46.5329053 C169.38171,44.2746343 169.361789,43.9503369 169.317676,43.1668435 C169.286371,42.6292412 169.243681,41.8927062 169.074347,40.3194583 C168.979007,39.429099 168.549267,38.2538589 167.625752,37.6260396 C166.996794,37.1978646 166.255421,37.0845953 165.479896,37.2983271" id="path36" fill="#231F20"></path>
                        <path d="M160.527922,36.6493054 C160.839555,40.6245454 160.48381,45.9382415 157.874062,49.0699383 C157.874062,49.0699383 162.564208,46.8532183 164.058338,37.3952321 C164.280323,35.9863385 164.139448,34.4680176 162.211309,34.3056555 C160.822479,34.1884018 160.451081,35.6802552 160.527922,36.6493054" id="path38" fill="#FFFFFF"></path>
                        <path d="M167.883311,40.4470997 C168.308783,44.4118096 167.917463,42.9307709 168.61757,46.7489138 C168.61757,46.7489138 165.960864,45.1866228 164.55069,41.8295258 C163.998573,40.514549 163.933116,38.9671993 165.798644,38.4527916 C167.141938,38.0823897 167.780857,39.4804686 167.883311,40.4470997" id="path40" fill="#FFFFFF"></path>
                        <path d="M158.137314,40.7400915 C157.635001,40.0153672 156.405546,38.9272135 156.072568,38.4969041 C155.887581,38.2588393 156.177869,37.3306287 157.326214,37.1399493 C158.394873,36.9625035 158.719313,37.5943071 158.786193,37.9224466 C159.126286,39.5694049 158.713621,40.3657051 158.137314,40.7400915" id="path42" fill="#FFFFFF"></path>
                        <path d="M154.522942,36.9185334 C156.876552,36.8046949 158.279612,34.0718597 160.633223,33.0091774 C162.986833,31.9466374 165.568121,33.1990031 167.541796,31.8705079 L165.568121,33.5026673 L164.086798,34.4135175 L162.682315,33.3128416 L160.936318,33.5406608 L159.647097,34.8690137 L159.722515,36.4631795 L156.533614,37.2601912 L154.522942,36.9185334" id="path44" fill="#231F20"></path>
                        <path d="M24.6585551,43.4468861 L23.0863032,45.338028 C23.0807536,45.3448583 22.5246526,46.0395577 22.0478116,47.2017064 L21.8831727,47.6029871 L21.5595868,47.8915676 C21.4096046,48.0254702 17.8289572,51.1692623 12.8794305,51.1692623 C9.29373154,51.1692623 7.59271415,49.1225886 7.41061525,48.8892197 C7.41061525,48.8892197 7.29172518,48.7368184 7.11274262,48.5074339 C5.59654202,48.4260393 3.90547126,47.8451785 2.4400284,46.0913542 C2.4400284,46.0913542 0.00755958715,43.1803618 0.0142298111,43.1800772 L3.80369966,43.004339 C4.44826741,42.9744564 6.37985043,42.6989673 7.56125203,41.7953743 C10.3255067,39.6816781 14.8257556,38.6266799 19.7208106,41.5739584 C20.6477405,41.7610804 21.5564562,42.0408385 22.4142293,42.4332967 C22.4142293,42.4332967 24.6505864,43.4567047 24.6585551,43.4468861" id="path46" fill="#231F20"></path>
                        <path d="M57.4300946,22.6236565 C57.378725,22.5860059 57.3263593,22.552271 57.2728552,22.5236565 C57.3273554,22.5525722 57.3781558,22.5896204 57.4300946,22.6236565 Z M91.3400191,33.4403407 C86.439699,37.3178219 79.0300941,33.86197 71.8616844,30.512557 C77.1119155,40.877836 73.6836694,52.6978286 73.5204535,53.2432573 C73.5085005,53.2833854 73.4951245,53.3230865 73.4804677,53.3625031 C69.7309125,63.4016348 61.5460675,68.9070065 60.9541073,68.8283156 C57.5311263,68.3731039 54.2097461,67.7151175 52.4506568,67.1547475 C46.9404471,65.3992157 40.2522936,63.2681592 33.8813225,54.1088567 C32.3463528,56.0983266 29.9533255,57.3132679 27.3781566,57.3132679 C22.8970467,57.3132679 19.2885089,53.7272132 19.163002,49.149056 C19.1018138,46.9155449 19.9257199,44.8025602 21.4827458,43.1997143 C21.4874417,43.1945916 21.4921375,43.1897535 21.4968333,43.1850576 C23.0208461,41.649661 25.0872993,40.8507994 26.9102804,40.1459969 C28.0705792,39.6973309 29.3858406,39.1888998 29.7570964,38.7230158 C29.8262533,38.6362139 29.903948,38.1976511 29.960725,37.8773381 C30.1903941,36.5829945 30.530202,34.6722154 32.6754883,32.1972244 C32.7931689,30.6941294 33.5503371,27.7203835 37.1809311,24.1085729 C39.3420125,20.5810027 38.9331901,17.075631 38.5356091,13.6842401 C38.0986116,9.95686919 37.6035565,5.73250786 41.5849154,2.85307713 C45.394805,0.0980523633 52.8256123,3.98090349 61.4299522,8.4765704 C66.086231,10.9097116 70.9011722,13.4253856 73.5777997,13.8248164 C78.3312681,14.5344714 80.2619688,13.4915827 80.2808945,13.4810242 C80.2807522,13.4810242 80.2633918,13.4907005 80.2302363,13.5123725 C80.9807166,13.0256703 81.9698308,13.1344002 82.5966539,13.7726215 C83.2234771,14.4105297 83.3148325,15.4013514 82.8147969,16.1432938 C82.7341139,16.2631088 82.675914,16.3493415 82.8554942,16.7454994 C83.1231569,17.3358943 83.7425806,18.0883667 84.3415134,18.8160792 C85.4858748,20.2064741 86.8470985,21.8612588 87.0137296,23.8167194 L87.6258961,24.0677333 C88.4772657,24.4167906 88.9515453,25.3299175 88.7472052,26.2271071 L88.392456,27.7852715 L88.9945193,28.0744212 C89.7329042,28.4290281 90.1449995,29.2116677 90.047383,30.0007107 C90.3193147,30.0775517 90.4909262,30.1094265 90.4910685,30.1095688 C91.22305,30.2353603 91.8124488,30.7799352 91.9957288,31.4995367 C92.179151,32.2192806 91.9223029,32.9792948 91.3400191,33.4403407 L91.3400191,33.4403407 Z" id="path48" fill="#231F20"></path>
                        <path d="M6.3892421,45.3021689 C6.3892421,45.3021689 8.40086781,46.1750255 10.6780787,44.6948406 C12.9553608,43.2145133 17.8577014,42.4177862 21.6310204,44.1447161 C21.6310204,44.1447161 20.9139803,45.0071849 20.3066519,46.4873699 C20.3066519,46.4873699 17.1682671,49.2872275 12.8794305,49.2872275 C10.1087297,49.2872275 8.8941869,47.7311977 8.8941869,47.7311977 C8.8941869,47.7311977 12.0444821,47.2757014 13.828317,46.0991806 C13.828317,46.0991806 11.7028528,45.6436844 10.4882103,46.0231934 C9.27378134,46.4028448 6.19947334,47.6552105 3.88424039,44.884524 C3.88424039,44.884524 6.76883654,44.7708278 8.70441814,43.2905005 C10.6401136,41.8103156 13.5245959,40.9753103 16.8647452,42.3038054 C16.8647452,42.3038054 12.3913907,42.361863 9.65331886,44.3533251 C7.98325131,45.5676972 6.3892421,45.3021689 6.3892421,45.3021689" id="path50" fill="#CE0F3E"></path>
                        <path d="M15.2865169,46.5014574 C16.2014937,46.7075051 16.9411593,46.8527914 17.5456417,46.9404471 C16.3601561,47.5521866 14.7311273,48.1487003 12.8794305,48.1487003 C12.6261825,48.1487003 12.3909353,48.1324783 12.171042,48.1052994 C12.9675272,47.837779 13.7866806,47.4905716 14.4552113,47.049732 L15.2865169,46.5014574" id="path52" fill="#231F20"></path>
                        <path d="M18.8297398,44.4189245 C18.6729273,44.7343995 18.5087153,45.1001056 18.3521874,45.5102088 C17.6933471,46.0813934 12.5729773,44.8998922 12.0919527,44.8611871 C13.9344856,44.1983625 16.4725716,43.8628235 18.8297398,44.4189245" id="path54" fill="#231F20"></path>
                        <path d="M152.902166,67.465242 C154.263959,65.6821044 155.964422,63.8004964 157.755955,62.1644951 C156.81821,62.632229 155.795087,63.0144417 154.646741,63.2648864 C155.760935,61.8201336 159.460686,58.6548545 162.872995,58.4769818 C160.280323,61.872357 157.590889,65.3633566 152.902166,67.465242" id="path56" fill="#231F20"></path>
                        <path d="M164.489501,52.602062 C164.489501,52.602062 160.554959,52.1438621 155.363924,58.5780135 C149.888292,65.3647796 144.584842,63.9389525 144.584842,63.9389525 C153.253643,62.7984332 154.279612,50.3657049 164.489501,52.602062" id="path58" fill="#231F20"></path>
                        <path d="M155.281391,53.1039474 C156.244749,53.1039474 157.025965,53.8848795 157.025965,54.8480954 C157.025965,55.8113113 156.244749,56.5922433 155.281391,56.5922433 C154.319455,56.5922433 153.538239,55.8113113 153.538239,54.8480954 C153.538239,53.8848795 154.319455,53.1039474 155.281391,53.1039474" id="path60" fill="#231F20"></path>
                        <path d="M158.744927,53.0514394 C160.317321,52.3457831 162.16435,52.0927771 164.489501,52.602062 C164.489501,52.602062 160.554959,52.1438621 155.363924,58.5780135 C149.888292,65.3647796 144.584842,63.9389525 144.584842,63.9389525 C147.612945,63.5405178 149.708997,61.763499 151.588755,59.7156869 C151.159014,59.7444311 150.767695,59.7578071 150.431871,59.7629298 C149.3191,60.4231931 147.684094,61.2695822 146.067588,61.6577715 C146.067588,61.6577715 147.971537,60.5206673 149.169687,58.9209519 C149.161149,57.3504077 149.457129,50.4264662 155.289929,51.1139084 C155.436496,51.1171812 155.587332,51.1254345 155.739591,51.1393797 C154.78477,51.549056 154.562785,51.907078 154.562785,51.907078 C156.44112,51.5312687 158.029167,52.5033071 158.744927,53.0514394" id="path62" fill="#231F20"></path>
                        <path d="M156.883667,54.1673412 C156.618993,53.5429371 156.002842,53.1039474 155.281391,53.1039474 C154.319455,53.1039474 153.538239,53.8848795 153.538239,54.8480954 C153.538239,55.5291342 153.929559,56.1162562 154.498751,56.4028446 C154.352184,56.5622184 154.208463,56.7235845 154.063319,56.8862312 C153.45286,57.0053348 152.749907,57.0014927 151.941654,56.810244 C151.941654,56.810244 152.169331,50.479828 157.636424,53.4985401 C157.636424,53.4985401 157.613657,53.5706852 157.565275,53.6924924 C157.333329,53.8416209 157.105652,53.9999987 156.883667,54.1673412" id="path64" fill="#FFFFFF"></path>
                        <path d="M155.413728,55.4501587 C155.287083,55.5741004 155.163283,55.7000342 155.039484,55.8278179 C154.599783,55.7249364 154.272497,55.3316244 154.272497,54.8610445 C154.272497,54.3820691 154.611167,53.9822114 155.063675,53.8882946 C154.911416,54.0628944 154.817499,54.2905714 154.817499,54.5403046 C154.817499,54.9472772 155.063675,55.296619 155.413728,55.4501587" id="path66" fill="#CE0F3E"></path>
                        <path d="M151.134824,57.2667364 L150.25969,57.4374941 C150.25969,56.1542498 150.830306,54.1866938 152.142294,53.2657404 C151.250085,54.5938087 151.13767,56.4593369 151.134824,57.2667364" id="path68" fill="#CE0F3E"></path>
                        <path d="M153.348982,57.7057261 C153.101384,57.9938797 152.853785,58.2834564 152.60334,58.5718947 C151.947346,58.5552458 151.224471,58.4362846 150.427602,58.1866937 C151.040907,58.1175368 152.165062,57.9694045 153.348982,57.7057261" id="path70" fill="#CE0F3E"></path>
                        <path d="M155.408036,41.4224109 C154.905724,40.6976866 153.677691,39.609533 153.34329,39.1792235 C153.158303,38.9411588 153.448591,38.0129482 154.596937,37.8221264 C155.665596,37.6446807 155.990035,38.2766266 156.058338,38.604766 C156.397008,40.2517244 155.984343,41.0478823 155.408036,41.4224109" id="path72" fill="#FFFFFF"></path>
                        <path d="M158.043397,40.8278894 C157.541085,40.1028805 156.311629,39.0148692 155.978651,38.5844174 C155.793664,38.346495 156.083952,37.4182844 157.232298,37.2274626 C158.300957,37.0500169 158.625396,37.6818205 158.692276,38.0099599 C159.032369,39.6569183 158.618281,40.4533608 158.043397,40.8278894" id="path74" fill="#FFFFFF"></path>
                        <path d="M139.355671,43.3508349 C138.095336,69.1911758 126.020915,77.5857682 126.020915,77.5857682 C126.020915,77.5857682 123.456703,79.6789735 120.768122,81.2166468 L121.010314,79.1782264 C121.010314,79.1782264 118.480965,80.9744555 115.329488,82.4328688 L115.881747,80.334114 C115.881747,80.334114 112.921377,81.8142989 109.960865,82.7252914 L110.644039,80.7896102 C110.644039,80.7896102 107.824401,81.9211648 104.536604,82.6612573 L105.375878,80.7927408 C105.375878,80.7927408 102.743932,81.4724989 99.0858744,81.8282441 L100.166771,80.0893612 C100.166771,80.0893612 97.5215913,80.4813925 93.8067568,80.4101012 L95.0700794,78.80569 C95.0700794,78.80569 91.3156861,78.9679098 88.6397701,78.6690838 L90.0172158,77.1544627 C90.0172158,77.1544627 87.1447862,77.2368533 83.6435411,76.7814993 L85.0915667,75.3209515 C85.0915667,75.3209515 82.3358215,75.2757007 78.7490553,74.6068996 L80.2682299,73.2288847 C80.2682299,73.2288847 77.9082158,73.2118089 73.9230149,72.5142636 L75.2095321,71.3257898 C75.2095321,71.3257898 72.1804322,71.2658822 68.8641747,70.6111686 L70.3117734,69.3642103 C70.3117734,69.3642103 67.0036269,69.2572021 63.966416,68.6494469 L65.468088,67.298184 C64.4065441,67.2751317 61.5715388,67.1575935 58.9075759,66.5575223 L60.3551746,65.310564 C60.3551746,65.310564 57.0470281,65.2035558 54.0098172,64.5958006 L55.5318378,63.2186395 L66.0428301,37.4483093 L73.8844521,15.14863 L81.4374935,10.5824259 C81.4374935,10.5824259 84.2278172,7.80304498 85.2145123,7.65108483 C86.2013497,7.49955157 89.465526,7.63213072 89.8450351,7.3475345 C91.5887562,6.03982909 96.4490904,1.88217711 99.9408015,1.88217711 C106.089361,1.88217711 106.241335,7.954749 111.93454,12.6610883 C117.627745,17.3674844 124.080111,15.7733187 129.014013,29.2852358 L133.796368,27.6153675 C129.014013,24.1993591 128.234646,19.9506221 124.837848,17.1615791 C119.419848,12.7130555 112.882672,12.4244607 108.670364,6.36089632 L108.153822,5.59203117 L113.150193,5.08176437 C116.006685,4.7960013 118.457485,6.28802546 119.705582,9.07278526 C120.61629,11.1042616 121.693487,11.6126358 123.478047,12.4550833 C124.864031,13.1092135 129.773031,15.0522942 130.880537,20.8788326 C130.880537,20.8788326 132.771537,24.1616501 135.120025,25.7622192 C136.13703,26.4554956 139.591174,26.684311 142.374952,26.4472423 C142.374952,26.4472423 139.69804,36.3361072 139.355671,43.3508349" id="path76" fill="#CE0F3E"></path>
                        <path d="M120.31476,59.2223393 C120.31476,59.2223393 118.959229,61.6416918 115.889716,63.8269639 C116.199499,62.6460319 116.284878,60.8974727 116.284593,60.897615 C111.099108,64.1505498 106.273352,64.4525064 106.273352,64.4525064 L107.453857,62.6826025 C102.684024,63.0330827 98.065597,61.2014215 98.065597,61.2014215 C104.688151,62.1975082 109.038489,60.6022041 109.038489,60.6022041 L108.696973,61.6764125 C114.171893,59.8514393 117.052007,56.4850929 117.052007,56.4850929 C117.052149,56.4849506 117.366913,57.2963344 117.389823,58.5171099 C119.023974,55.8510125 120.243896,53.2495184 120.243896,53.2495184 C120.244323,53.2486646 120.595372,53.9953028 120.982281,55.097544 C121.993167,52.4815355 122.687439,49.5214502 122.687439,49.5214502 C122.687581,49.5210233 122.888079,52.0338657 124.787332,53.5298457 C124.248449,54.9837055 122.719598,58.7230153 120.4175,61.2295965 C120.344643,60.0637481 120.315472,59.2216278 120.31476,59.2223393" id="path78" fill="#231F20"></path>
                        <path d="M124.787332,53.5298457 C124.787332,53.5298457 121.977372,50.8220549 121.977372,44.3204542 C121.977372,44.3204542 119.296902,49.2821048 123.035216,54.9222327 L124.787332,53.5298457" id="path80" fill="#231F20"></path>
                        <path d="M127.877336,36.3978646 C127.089858,37.7859827 124.672213,41.1752391 127.731907,45.5970106 C127.731907,45.5970106 126.577869,40.6154383 129.516325,39.1463526 C129.516325,39.1463526 129.230449,36.2945562 131.927567,35.3602268 C131.927567,35.3602268 132.014511,33.183208 134.691565,32.2909988 C134.691565,32.2909988 135.822124,29.9833504 138.897755,30.1889711 C138.897755,30.1889711 140.62312,27.9335461 145.067232,28.3524717 C145.067232,28.3524717 144.179292,29.5679822 144.062608,30.5126993 C144.062608,30.5126993 145.980786,28.3154742 151.302735,28.2392024 C153.955172,28.3907499 157.309139,29.9018136 161.689075,30.0892202 C168.401276,30.3762355 171.395229,27.2885087 171.395229,27.2885087 C170.818921,27.5326923 170.148697,27.7711839 169.414439,28.0172174 C165.573813,29.304873 160.244749,29.1483451 155.837776,27.6183558 L152.18783,26.6968332 C152.18783,26.6968332 148.825325,25.839914 146.937029,26.6902875 C146.937029,26.6902875 142.787616,26.9260755 137.854426,24.9551043 C137.854426,24.9551043 130.32714,24.0175021 127.988898,29.4355026 C127.988898,29.4355026 131.182636,27.8384909 132.722302,29.0362141 C132.722302,29.0362141 127.706151,31.7213795 127.877336,36.3978646 L127.877336,36.3978646" id="path82" fill="#231F20"></path>
                        <path d="M129.87762,70.2012078 L132.648449,65.5834918 C132.648449,65.5834918 126.234931,71.7404464 118.587831,74.7356794 C118.930484,73.7509765 119.241406,72.8569174 119.240694,72.8570597 C119.240694,72.8570597 113.855707,75.0974012 113.111061,75.3580913 C113.496262,74.50971 113.833081,73.7677676 113.832228,73.7680522 L107.237422,76.2158643 C107.226607,76.2187103 108.367838,74.5838473 108.366842,74.5839896 C108.366842,74.5839896 103.011168,75.5886143 102.216433,75.6822464 C102.893772,74.8579135 103.508784,74.1095677 103.508642,74.1095677 C103.508642,74.1095677 97.8530036,74.7018124 97.0191367,74.7447865 C97.8739214,73.8466008 98.6891473,72.9899662 98.6884358,72.9899662 C98.6884358,72.9899662 93.1506202,73.2974724 86.5350387,71.9287068 L88.7252913,70.029454 C88.7252913,70.029454 80.6712182,69.1287069 73.599429,66.3913182 C73.599429,66.3913182 79.1314103,69.5708271 85.6162198,70.9169673 L83.2802541,72.9926698 C83.2802541,72.9926698 90.4186388,74.4031287 95.2971872,74.731695 C95.2977564,74.731695 94.4843804,75.6266079 93.6311609,76.5650639 C94.4231922,76.5532532 94.9582331,76.5310547 94.972036,76.5304855 L99.9269986,76.3176075 C99.9271409,76.3176075 99.3084287,77.10352 98.6268207,77.9692617 C99.3847005,77.9008163 99.8246862,77.8377782 99.835074,77.8363552 L104.687724,77.1265722 C104.688578,77.1265722 104.181854,77.9425096 103.616789,78.8520791 C104.363284,78.7002471 104.797721,78.589966 104.807966,78.5874047 L109.388827,77.4117377 C109.389681,77.4115954 109.035074,78.2020614 108.629097,79.1060813 C109.34756,78.8544982 109.786265,78.680183 109.796938,78.6757718 L114.463178,76.8083937 C114.463747,76.8082514 114.126216,77.7650639 113.754533,78.8186391 C114.428314,78.5135519 114.853217,78.3023815 114.864031,78.2969742 L119.363071,76.0512254 C119.363355,76.0510831 118.976304,77.5228725 118.627959,78.8470987 C121.90423,77.1416558 124.006116,75.3192439 124.042971,75.3023105 L123.27328,77.6549251 C123.27328,77.6549251 126.183561,75.6912112 128.389751,73.4336517 L129.005475,72.1509765 L129.87762,70.2012078" id="path84" fill="#231F20"></path>
                        <path d="M108.60448,7.42212717 C108.60448,7.42212717 113.600851,6.91195998 113.597293,6.91213074 C115.716539,6.70040538 117.474917,7.78971165 118.421342,9.90094603 C119.590748,12.509555 121.10608,13.2247738 123.024543,14.1303163 L123.301313,14.2586976 C124.885376,14.9856987 129.147204,17.1738167 130.344927,23.2762712 L128.462893,24.3595867 L125.089858,18.8418352 L117.64724,14.4791174 L112.942295,12.1692064 L108.60448,7.42212717" id="path86" fill="#231F20"></path>
                        <path d="M91.1521856,31.4487363 L88.802986,30.654286 L89.0547114,29.264318 L87.2096741,28.3560292 L87.8002113,25.215083 L85.9896101,24.5064384 C86.2601188,22.249448 83.9220185,20.110992 82.2359282,17.7387402 C86.8305919,16.6606897 85.9099231,13.1033793 88.5028793,13.2701384 C103.845177,14.2564208 113.830662,23.1523296 113.830662,23.1523296 C110.016504,27.085307 98.7112035,25.6557802 91.1521856,31.4487363" id="path88" fill="#231F20"></path>
                        <path d="M82.5767322,15.1617214 L78.4798273,14.2208605 L82.5730324,11.7526571 C83.1807877,11.255496 83.6997489,10.7729631 84.1576642,10.3470791 C84.5484148,9.98376354 85.0689413,9.50067568 85.3218051,9.34286707 C85.6428296,9.31541777 86.2764831,9.30501578 86.7570238,9.29734591 C88.4490906,9.26955509 89.5268565,9.23642809 90.3267142,8.9165277 C90.7837757,8.73383116 91.1883293,8.43343985 92.1654904,7.70754872 C93.6731389,6.58796141 97.6778346,3.6139309 99.5768029,3.6139309 C102.015508,3.6139309 102.90601,4.79144776 104.860616,7.69304854 C105.016006,7.92399838 105.176518,8.16234771 105.343149,8.40597631 C106.39089,9.88277457 107.388685,11.5311559 109.229738,13.0898752 C109.229738,13.0898752 106.912413,12.5723227 103.675985,8.39614351 C101.910919,6.11898953 100.933615,5.78724994 99.5768029,5.94817488 C96.217856,6.34660959 94.0165042,10.044966 91.5759493,10.8419492 C89.9442169,11.3750122 89.3380269,11.7002914 88.2562767,12.6114547 C87.1746688,13.5223191 87.3437189,13.5809033 87.0586958,14.8926357 L85.3192437,17.0598359 L82.6103145,18.2003553 L81.8403395,16.9458551 L82.5767322,15.1617214" id="path90" fill="#231F20"></path>
                        <path d="M57.4300946,22.6236565 C57.378725,22.5860059 57.3263593,22.552271 57.2728552,22.5236565 C57.3273554,22.5525722 57.3781558,22.5896204 57.4300946,22.6236565 Z M91.3400191,33.4403407 C86.439699,37.3178219 79.0300941,33.86197 71.8616844,30.512557 C78.504018,38.7886152 70.5687638,51.7023111 70.4056902,52.2477397 C70.3935948,52.2878678 54.2097461,67.7151175 52.4506568,67.1547475 C46.9404471,65.3992157 40.2522936,63.2681592 33.8813225,54.1088567 C32.3463528,56.0983266 29.9533255,57.3132679 27.3781566,57.3132679 C22.8970467,57.3132679 19.2885089,53.7272132 19.163002,49.149056 C19.1018138,46.9155449 19.9257199,44.8025602 21.4827458,43.1997143 C21.4874417,43.1945916 21.4921375,43.1897535 21.4968333,43.1850576 C23.0208461,41.649661 25.0872993,40.8507994 26.9102804,40.1459969 C28.0705792,39.6973309 29.3858406,39.1888998 29.7570964,38.7230158 C29.8262533,38.6362139 29.903948,38.1976511 29.960725,37.8773381 C30.1903941,36.5829945 30.530202,34.6722154 32.6754883,32.1972244 C32.7931689,30.6941294 33.5503371,27.7203835 37.1809311,24.1085729 C39.3420125,20.5810027 38.9331901,17.075631 38.5356091,13.6842401 C38.0986116,9.95686919 37.6035565,5.73250786 41.5849154,2.85307713 C45.394805,0.0980523633 52.8256123,3.98090349 61.4299522,8.4765704 C66.086231,10.9097116 70.9011722,13.4253856 73.5777997,13.8248164 C78.3312681,14.5344714 80.2619688,13.4915827 80.2808945,13.4810242 C80.2807522,13.4810242 80.2633918,13.4907005 80.2302363,13.5123725 C80.9807166,13.0256703 81.9698308,13.1344002 82.5966539,13.7726215 C83.2234771,14.4105297 83.3148325,15.4013514 82.8147969,16.1432938 C82.7341139,16.2631088 82.675914,16.3493415 82.8554942,16.7454994 C83.1231569,17.3358943 83.7425806,18.0883667 84.3415134,18.8160792 C85.4858748,20.2064741 86.8470985,21.8612588 87.0137296,23.8167194 L87.6258961,24.0677333 C88.4772657,24.4167906 88.9515453,25.3299175 88.7472052,26.2271071 L88.392456,27.7852715 L88.9945193,28.0744212 C89.7329042,28.4290281 90.1449995,29.2116677 90.047383,30.0007107 C90.3193147,30.0775517 90.4909262,30.1094265 90.4910685,30.1095688 C91.22305,30.2353603 91.8124488,30.7799352 91.9957288,31.4995367 C92.179151,32.2192806 91.9223029,32.9792948 91.3400191,33.4403407 L91.3400191,33.4403407 Z" id="path92" fill="#231F20"></path>
                        <path d="M87.7660597,31.1160433 C89.014441,31.7652073 90.1720362,31.9644247 90.1720362,31.9644247 C82.8359994,37.7693338 66.3119158,22.3221624 56.807825,24.3470645 C57.4551391,24.5122726 57.846032,25.2627528 58.6003543,25.3292061 C61.4888636,25.5842043 64.6046231,27.3691918 68.1245091,28.9791526 C74.6830291,31.887726 78.9602257,33.7697608 78.9602257,33.7697608 C75.4244022,43.2368541 65.3533957,67.3943775 65.3533957,67.3943775 C60.2944133,67.1916027 55.835502,66.2811794 54.5751676,65.8631076 C48.2429017,63.7622183 40.1810022,62.1521151 32.8055488,48.79388 C31.4512977,46.3409451 28.9341864,46.1750255 26.611312,48.0623254 C26.3056557,48.3107779 26.0899318,48.6733535 26.0899318,49.0975441 C26.0899318,49.8090347 26.6665237,50.3857689 27.3781566,50.3857689 C28.0895048,50.3857689 28.6663814,49.8090347 28.6663814,49.0975441 C28.6663814,48.7840614 28.5531121,48.4976153 28.3668438,48.2742073 C29.0033433,47.9625744 29.6193518,47.8487359 30.1634998,47.957594 C30.8315894,48.0912119 31.3832792,48.5541076 31.8030586,49.333759 C32.2434713,50.1518308 32.6938448,50.939024 33.1517601,51.6933463 C32.1599423,53.8956941 29.9501949,55.4313753 27.3781566,55.4313753 C23.8801844,55.4313753 21.140092,52.5942356 21.0443253,49.0975441 C20.9956594,47.3198138 21.6843822,45.6932041 22.832728,44.5108491 C25.2146561,42.1109915 29.7901095,41.7013152 31.2288857,39.8958368 C32.2742077,38.5841328 31.1355382,36.5346131 34.5514043,32.9289213 C34.5514043,32.9289213 34.0581991,29.7787257 38.6695117,25.2811093 C44.0005681,16.8886513 36.5865519,8.79029505 42.6877257,4.37805752 C47.5001055,0.898034841 65.904374,14.5825681 73.3000337,15.6863746 C79.0202755,16.5400209 81.2542136,15.0912839 81.2542136,15.0912839 C79.1457824,18.2201347 86.1219473,21.3548198 85.0259673,25.0362142 L86.9121287,25.8093199 L86.2239751,28.8317318 L88.1797203,29.770757 L87.7660597,31.1160433" id="path94" fill="#CE0F3E"></path>
                        <path d="M41.1746699,27.8019203 C39.7768756,29.5870501 39.5911765,30.7548907 39.5668436,31.017573 L39.7970819,32.4879394 L38.3279962,34.1625036 C37.1863385,36.0411233 37.2197785,36.9481314 37.2583413,37.9984338 C37.2584836,38.0036988 37.2583413,37.9984338 37.2583413,37.9984338 C35.2890777,40.4424038 36.9047305,42.8731402 36.9047305,42.8731402 C35.766061,45.0364983 36.221415,47.4275335 36.221415,47.4275335 L38.0434,44.9225176 C37.246246,47.4275335 37.7017422,51.0712189 37.7017422,51.0712189 L38.8404117,49.9325494 C38.8404117,52.5514039 39.7512619,54.2594081 39.7512619,54.2594081 L40.4344351,53.1207386 C41.3452853,55.7395931 43.2811088,58.016932 43.2811088,58.016932 L43.5087858,56.8782625 C46.1276403,61.2051212 53.5057973,63.8426167 53.5057973,63.8426167 C47.4935598,61.9271418 40.6790456,59.7562418 34.2012087,48.023478 C33.3687647,46.5158295 32.4872279,45.6331543 30.6588395,45.2776936 C28.6419061,44.88552 26.4324433,45.5622899 24.4374238,47.1830653 C23.5686938,47.8890063 23.0705081,48.9087145 23.0705081,49.9810731 C23.0705081,50.5909628 23.1978649,51.1655626 23.4407678,51.6675903 C22.9579503,50.9202406 22.6643893,50.0263239 22.6377796,49.0540009 C22.6024897,47.7654915 23.0779076,46.5464236 23.9641403,45.6337235 C24.9657767,44.6245453 26.5913903,43.9960146 28.1637844,43.3882593 C29.8884375,42.7214504 31.5174663,42.0916389 32.4755595,40.8893622 C33.0948409,40.1122722 33.3831368,39.1560289 33.5184623,38.3930264 C33.7235139,37.2368543 33.8209881,36.0179287 35.7087149,34.0251859 L36.2475978,33.4564204 L36.132194,32.7196007 C36.1228024,32.5370323 36.0711482,30.0421195 39.7825675,26.4223401 C41.7763063,24.0175021 42.4351466,21.1123438 42.4351466,17.120028 C42.4351466,13.1278403 41.0228378,9.07450707 42.6507282,6.77467077 C43.2019911,5.99585897 43.4848797,5.48530758 44.6232646,5.48530758 C52.3840613,5.48530758 69.7784401,20.2535747 79.3027373,17.4641049 C79.3027373,17.4641049 78.3329756,20.0254709 74.0556367,20.7099248 L75.5351102,19.3495548 C75.5351102,19.3495548 72.7877605,20.2355029 69.1948755,19.1517605 L70.9539648,18.180149 C70.9539648,18.180149 67.6219122,18.6100316 64.7133388,17.1842045 L66.5599414,16.4350049 C66.5599414,16.4350049 63.5955872,16.5807182 60.4589099,14.6986834 L61.5153311,14.4192099 C61.5153311,14.4192099 58.7379566,14.32572 56.2855909,12.3295764 L57.039344,12.1869936 C57.039344,12.1869936 47.6054061,7.21778708 44.7538943,7.21778708 C44.0005681,7.21778708 43.5447872,8.61926695 43.5447872,9.93451416 C43.5447872,11.2496618 43.7282095,12.4327425 43.7282095,12.4327425 L44.3997143,11.4137599 C44.3997143,11.4137599 45.1675549,14.66937 44.1410163,17.4066164 L45.4262529,15.9762358 C45.4262529,15.9762358 45.6049793,19.1937384 43.6088214,22.3873349 L45.540376,21.4512979 C45.540376,21.4512979 44.7363916,24.2864455 41.1746699,27.8019203" id="path96" fill="#231F20"></path>
                        <path d="M29.6058335,52.3860535 C30.1886865,51.8686575 30.6184268,51.2247586 30.8821052,50.5212367 C31.0675197,50.852649 31.2546417,51.1809308 31.4441828,51.5020976 C30.6016357,52.9299169 29.0599779,53.8296678 27.3824255,53.8296678 C26.7274273,53.8296678 26.1055845,53.6933462 25.5402342,53.4483089 C26.954962,53.7448581 28.459053,53.4036273 29.6058335,52.3860535" id="path98" fill="#231F20"></path>
                        <path d="M63.4410514,27.2544995 L64.6313751,26.7123437 C66.117252,27.307719 67.3260744,27.8242611 68.8658823,28.5514045 C68.9798631,28.6053355 70.1514034,30.6774806 70.1514034,30.6774806 C73.5823532,36.9807177 70.7479171,41.9822117 65.2813929,43.8605468 C65.2813929,43.8605468 73.4609729,37.274421 67.59701,32.4922084 L69.077195,32.3214506 C69.077195,32.3214506 68.7356795,31.3536812 66.4014213,29.7025962 L67.7677678,29.4178577 C67.7677678,29.4178577 66.7999983,28.0515112 63.4410514,27.2544995" id="path100" fill="#231F20"></path>
                        <path d="M72.0227659,28.868587 C79.3669137,42.3614362 60.9502653,46.63351 63.2843812,51.4157227 C63.2843812,51.4157227 65.0266793,49.4528625 67.1729617,47.8438978 C69.50537,46.0953386 72.9344699,43.6840971 74.8984684,40.5418702 C75.4678032,39.6308777 76.2430433,37.5372456 80.1210937,38.1074341 C80.1210937,38.1074341 79.5668426,43.369476 82.6981125,46.1210945 C82.6981125,46.1210945 79.0945551,36.8813936 85.2539289,33.5450721 L83.371894,33.2028451 L79.6078244,32.0621835 L75.729774,30.5225179 L72.0227659,28.868587" id="path102" fill="#231F20"></path>
                        <path d="M56.0340078,26.9687649 L53.7146909,27.3948054 C53.7814288,26.9385977 53.9826383,26.4930623 54.1714679,26.154962 C55.0592658,25.617502 55.7509769,24.7756664 56.807825,24.3470645 C58.7287072,24.3170396 61.1240113,24.9156877 61.1240113,24.9156877 L62.3215922,26.0277475 C52.9115604,28.1236564 53.4639617,34.8771247 53.4639617,34.8771247 C50.6872986,29.9630017 56.0340078,26.9687649 56.0340078,26.9687649" id="path104" fill="#231F20"></path>
                        <path d="M83.3861238,24.5478471 C83.1355369,25.3903942 83.5638542,26.2858763 84.3770879,26.6192807 L84.922232,26.8425465 L84.5558143,28.4517958 C84.3786532,29.2304511 84.7635696,30.0281743 85.4833134,30.3738164 L86.1141209,30.6769114 C86.0352878,30.9736029 86.0392721,31.276271 86.1148324,31.5581636 C82.6954088,31.6076833 77.9698309,29.4009242 73.3603681,27.2471 C67.451866,24.4865166 61.3421543,21.6317319 56.4512259,22.673781 C56.4512259,22.673781 61.7555303,19.5934538 74.3537513,25.8226959 C79.929845,28.5800064 82.8371377,29.304873 82.8371377,29.304873 C82.8371377,29.304873 82.4961915,28.294841 83.1806454,27.1541793 C83.1806454,27.1541793 81.8687991,25.7854138 83.3861238,24.5478471 L83.3861238,24.5478471" id="path106" fill="#231F20"></path>
                        <path d="M136.44724,22.691426 C136.44724,22.691426 125.274703,21.4019205 123.161719,36.4399849 C123.161719,36.4399849 121.90423,20.766844 136.404408,20.8095335 L136.44724,22.691426" id="path108" fill="#231F20"></path>
                        <path d="M188.488078,33.9261464 C190.64674,35.0382062 193.256488,35.8080389 194.710774,36.0426885 C195.366769,36.2454633 198.569899,36.8495188 195.139092,36.4496611 C186.464599,35.4390599 182.235499,31.6246168 183.168974,30.5724646 C184.10245,29.5204546 189.578081,33.2416925 188.488078,33.9261464" id="path110" fill="#000000"></path>
                        <path d="M145.343291,69.6720011 L145.343291,69.6720011 C145.418709,72.40754 140.585411,75.6752738 137.214226,77.6599056 C134.372391,79.3329045 131.434077,81.0626803 128.340516,83.9544625 C126.180715,86.0986104 126.180715,86.0986104 126.180715,86.0986104 C126.180715,86.0986104 125.824259,68.1489844 135.538666,63.2917807 C137.755813,62.1832784 139.024685,63.7045875 139.024685,63.7045875 C139.024685,63.7045875 145.343291,62.6760568 145.343291,69.6720011" id="path112" fill="#CE0F3E"></path>
                        <path d="M138.542295,65.3407312 L138.694127,66.670507 C139.986051,66.4045519 141.201846,65.4165761 141.201846,65.4165761 L140.897898,66.8984686 C142.53148,66.5945199 143.671288,65.6066864 143.671288,65.6066864 C141.84788,70.3938794 135.768762,74.9151173 132.995087,76.9287779 C132.995087,76.9287779 133.603127,75.3330469 135.084735,73.7373158 C135.084735,73.7373158 134.628954,72.2555656 136.14884,70.811809 C136.14884,70.811809 135.274703,69.3680523 136.300815,67.6963341 C137.326357,66.0244736 138.542295,65.3407312 138.542295,65.3407312" id="path114" fill="#231F20"></path>
                        <path d="M135.538666,63.2917807 C137.755813,62.1832784 139.024685,63.7045875 139.024685,63.7045875 C139.024685,63.7045875 137.385696,63.4286715 136.149979,64.0442531 C128.318175,67.9466365 127.562003,83.1218763 127.562003,83.1218763 C134.552967,76.5868355 141.011878,75.6749892 145.343291,69.6720011 L145.343291,69.6720011 C145.418709,72.40754 140.585411,75.6752738 137.214226,77.6599056 C134.372391,79.3329045 131.434077,81.0626803 128.340516,83.9544625 C126.180715,86.0986104 126.180715,86.0986104 126.180715,86.0986104 C126.180715,86.0986104 125.824259,68.1489844 135.538666,63.2917807" id="path116" fill="#231F20"></path>
                        <path d="M90.9677672,28.301529 L89.1308409,27.3972245 C92.8468138,25.4503017 97.5157571,25.093845 104.625255,24.7109208 C100.307219,25.5587329 95.8528614,26.2639623 90.7491973,29.5086439 L90.9677672,28.301529" id="path118" fill="#FFFFFF"></path>
                        <path d="M30.3950188,9.83107766 L30.623265,9.83107766 C30.8828167,9.83107766 31.1033788,9.92557784 31.1033788,10.169306 C31.1033788,10.3425113 30.9773027,10.5156596 30.623265,10.5156596 C30.5209526,10.5156596 30.4502305,10.5077194 30.3950188,10.5000495 L30.3950188,9.83107766 Z M30.3950188,8.73738861 L30.0803977,8.73738861 L30.0803977,10.7124864 C30.2457481,10.7359514 30.4029875,10.7595728 30.6389178,10.7595728 C30.9378861,10.7595728 31.1346844,10.6968194 31.2526495,10.6101598 C31.370757,10.5235003 31.433795,10.3895977 31.433795,10.2009389 C31.433795,9.94124486 31.2606182,9.78383469 31.0481671,9.72096738 L31.0481671,9.70528613 C31.2213439,9.67371018 31.3394514,9.51647077 31.3785833,9.22520077 C31.4259686,8.91824951 31.4732116,8.80014208 31.5045172,8.73738861 L31.1742433,8.73738861 C31.1267157,8.80014208 31.079615,8.98128757 31.0403407,9.24109546 C30.9930978,9.49283505 30.8671639,9.58716447 30.6154386,9.58716447 L30.3950188,9.58716447 L30.3950188,8.73738861 Z M30.725435,11.2631801 C29.9464952,11.2631801 29.3092842,10.5945355 29.3092842,9.7680396 C29.3092842,8.92620397 29.9464952,8.26541424 30.733546,8.26541424 C31.5203123,8.25757361 32.1496968,8.92620397 32.1496968,9.76019897 C32.1496968,10.5945355 31.5203123,11.2631801 30.733546,11.2631801 L30.725435,11.2631801 Z M30.733546,11.538655 C31.7014578,11.538655 32.4724289,10.7516184 32.4724289,9.7680396 C32.4724289,8.76883649 31.7014578,7.98975434 30.725435,7.98975434 C29.7575233,7.98975434 28.970757,8.76883649 28.970757,9.7680396 C28.970757,10.7516184 29.7575233,11.538655 30.725435,11.538655 L30.733546,11.538655 L30.733546,11.538655 Z" id="path120" fill="#231F20"></path>
                    </g>
                </g>
            </g>
        </g>
    </g>
</svg>