<?xml version="1.0" encoding="UTF-8"?>
<svg width="200px" height="200px" viewBox="0 0 200 200" version="1.1" xmlns="http://www.w3.org/2000/svg" xmlns:xlink="http://www.w3.org/1999/xlink">
    <!-- Generator: Sketch 54.1 (76490) - https://sketchapp.com -->
    <title>austin-peay</title>
    <desc>Created with Sketch.</desc>
    <g id="austin-peay" stroke="none" stroke-width="1" fill="none" fill-rule="evenodd">
        <g id="austin-peay_BGL" transform="translate(0.000000, 0.000000)">
            <g id="austin-peay" transform="translate(11.000000, 0.000000)">
                <g id="g10" transform="translate(89.384811, 100.068948) scale(-1, 1) rotate(-180.000000) translate(-89.384811, -100.068948) translate(0.000000, 0.326351)" fill-rule="nonzero">
                    <g id="g12">
                        <path d="M134.862789,111.738828 C154.787309,99.117942 178.41623,101.371573 178.41623,101.371573 C178.41623,101.371573 154.251461,23.6743421 89.2111097,0.000538646797 C24.1670728,23.6743421 0,101.371573 0,101.371573 C0,101.371573 23.6233459,99.1354084 43.54828,111.756294 L42.3103925,113.788837 L44.5590195,117.402553 L44.5590195,117.402553 C44.5590195,117.402553 44.7545142,117.740391 45.0336344,118.364586 C33.7701806,124.549087 33.133429,132.347855 33.8873484,136.714466 C35.4081803,145.096521 42.1838715,150.557084 51.2451416,150.811726 C51.4312831,152.983081 51.5261969,155.173282 51.5261969,157.357507 C51.5261969,166.374789 49.9610412,175.195344 47.003049,182.86771 C45.8507682,185.840223 46.8353373,189.25905 49.4007735,191.175763 C59.9306729,199.032446 87.9859849,199.120697 89.1774752,199.120697 C90.3648188,199.120697 118.424278,199.032446 128.950952,191.174844 C131.509938,189.269622 132.500542,185.854472 131.353744,182.874145 C128.393909,175.195344 126.828754,166.374789 126.828754,157.357507 C126.828754,155.300603 126.940254,153.134764 127.169245,150.812186 C136.301701,150.57455 143.135031,145.112609 144.649965,136.759971 C145.409276,132.351072 144.769299,124.549087 133.51142,118.365505 C133.798004,117.721085 134.004419,117.371297 134.008105,117.363023 L136.139518,113.788837 L134.862789,111.738828" id="path14" fill="#A9AFB3"></path>
                        <path d="M125.936748,111.244252 C125.588885,111.609668 125.220288,111.966351 124.822203,112.30327 L129.689528,114.741678 C129.689528,114.741678 128.252921,117.054603 127.342486,120.997883 C133.068182,123.393544 141.001775,128.158206 139.678051,135.859989 C138.334514,143.248755 131.40028,146.995308 122.744697,145.424247 C122.169685,149.31191 121.776669,153.298856 121.776669,157.357507 C121.776669,166.988413 123.455629,176.435921 126.63524,184.679164 C126.975732,185.564897 126.686844,186.569218 125.922005,187.137796 C118.292504,192.831858 96.6567724,194.07887 89.1774752,194.07887 C81.6963352,194.07887 60.0629071,192.831858 52.42926,187.137796 C51.6658031,186.569218 51.3755328,185.564897 51.7215534,184.679164 C54.8993217,176.435921 56.5801247,166.988413 56.5801247,157.357507 C56.5801247,153.298856 56.2801788,149.310991 55.7051672,145.422409 C47.0514274,146.995308 40.208928,143.248755 38.8684783,135.85907 C37.5414825,128.158206 45.476596,123.393544 51.2004492,120.997883 C50.2923179,117.054603 48.8534068,114.741678 48.8534068,114.741678 L53.723036,112.30327 C53.4396769,112.062876 53.1719832,111.808694 52.9093578,111.553132 C41.0073555,104.104153 28.2529262,96.3297457 7.37862401,96.3297457 C21.8942566,58.9363839 51.8238391,18.9190104 89.2111097,5.36362369 C126.593773,18.9190104 156.523862,58.9363839 171.039679,96.3297457 C150.360918,96.3297457 137.673343,103.891338 125.936748,111.244252" id="path16" fill="#000000"></path>
                        <path d="M98.4790246,119.805568 C98.4605947,119.60976 98.4214313,119.422225 98.4214313,119.221361 C98.4214313,115.080435 101.628687,111.72274 105.591568,111.72274 C109.556751,111.72274 112.769076,115.080435 112.769076,119.221361 C112.769076,121.506708 111.769256,123.528219 110.22852,124.903012 C108.757817,124.458997 106.950309,123.644968 104.774664,122.208583 C102.168682,120.48584 100.076433,119.883707 98.4790246,119.805568" id="path18" fill="#FFFFFF"></path>
                        <path d="M89.1774752,124.067381 C87.2303608,124.067381 85.5532437,117.477015 85.0731459,114.937486 C85.0505693,114.843718 84.9819181,114.768337 84.8888473,114.748113 C84.7976195,114.720074 84.7008627,114.757305 84.6414265,114.833606 C84.5796864,114.913125 83.1278744,116.785252 82.4150996,119.006248 L79.2728088,120.233496 C78.9880675,119.663538 78.0481448,118.25703 75.7287471,118.25703 C73.5153212,118.25703 70.6471746,119.517831 67.2049378,122.000365 C67.1141708,122.068392 67.0763896,122.187439 67.1215427,122.289021 C67.1639314,122.394279 67.2740498,122.460927 67.3837075,122.435187 L71.8008837,121.731933 C71.7677099,122.164917 71.7285465,122.975268 71.8068734,123.705182 C71.3636353,123.90007 70.010423,124.436015 68.480284,124.436015 C66.961203,124.436015 65.6955325,123.920754 64.7146033,122.903104 C62.9144669,121.030517 62.1086214,117.510569 62.3187217,112.438865 C62.3210255,112.357048 62.285548,112.27753 62.216436,112.232025 C62.1477848,112.184682 62.063929,112.173191 61.9856021,112.204906 C61.8552108,112.257765 59.0133267,113.457434 57.8011028,117.59974 C57.4140758,115.050558 57.0643692,108.744711 62.5702893,106.794904 C62.6670461,106.76227 62.7320113,106.67126 62.7320113,106.56922 C62.7320113,106.56922 62.7320113,105.024818 62.7564309,103.143038 C66.0304951,103.198655 69.5763998,103.995217 73.2992311,105.513419 C76.2664382,106.727797 78.9152696,107.482531 81.1733879,107.760155 C81.8898487,109.026932 82.7892257,110.104796 83.8480211,110.96341 C83.922662,111.029598 84.0323196,111.036953 84.1198615,110.986851 C84.2074033,110.935831 84.2557817,110.838387 84.2391948,110.738644 C84.2355088,110.716581 83.8839593,108.410091 83.8332772,107.504134 L89.272389,105.985013 L94.689385,107.498618 C92.3589295,121.906597 90.2367313,124.067381 89.1774752,124.067381" id="path20" fill="#FFFFFF"></path>
                        <path d="M83.7867418,87.3993359 C82.7256427,87.3993359 81.5848345,87.1460725 80.4901009,86.6629874 C80.413617,86.629893 80.326536,86.636328 80.253738,86.6845906 C80.1850868,86.7319338 80.1459234,86.8119118 80.1496093,86.8941879 C80.1551383,87.0412738 80.3988732,90.4968722 89.272389,90.4968722 C97.2096681,90.4968722 97.4050246,91.3752505 97.7008238,92.7022407 C97.7008238,92.7086757 97.7026668,92.7141915 97.7045098,92.7187879 C97.4160825,92.6999425 96.9562576,92.6755814 96.375717,92.6755814 C94.398654,92.6755814 91.5807287,92.938957 89.2908189,94.1753975 C88.7287082,93.7686132 86.4153003,92.2991336 82.4726929,92.2991336 C78.2287574,92.2991336 76.9704588,91.0346548 76.9589402,91.0227041 C76.9105618,90.9749012 76.8396068,90.9528383 76.7820135,90.9464033 C76.7133623,90.9464033 76.652083,90.9730626 76.6037046,91.0227041 C76.5774421,91.0539598 75.9651101,91.7204426 75.747177,92.9380378 C71.5700497,92.4053112 67.404441,92.4227776 63.8806522,93.0161771 C65.0758285,89.6253885 67.3726495,86.6629874 70.7066108,84.2066535 C70.7176688,85.1397294 70.849903,87.1819246 71.7285465,88.3802147 C71.7769248,88.4431859 71.8474191,88.4776591 71.923903,88.4776591 C71.9404898,88.4776591 71.9575375,88.4776591 71.9722813,88.4749013 C72.0671951,88.4542173 72.141836,88.3820533 72.1602659,88.2901247 C72.1786958,88.2083081 74.0069377,80.1990236 78.7494009,75.9445651 C80.3560237,74.5026641 82.1598461,73.7088601 83.8222193,73.7088601 C86.9829399,73.7088601 89.0304971,76.4304081 89.0304971,80.643039 C89.0304971,86.5223365 85.7449142,87.3993359 83.7867418,87.3993359" id="path22" fill="#FFFFFF"></path>
                        <path d="M96.5825922,87.0647156 C94.7672512,87.2991337 93.2596888,87.0959713 92.1373104,86.4667197 C91.9451792,85.6122428 91.5341933,83.199575 92.1838458,80.4081613 C92.5635009,81.6317317 93.4720929,83.7272456 95.3293618,84.3707462 C98.8324171,85.5846642 98.8715805,86.2332209 98.8646693,86.3049252 C98.8549937,86.3807664 98.7080156,86.7875507 96.5825922,87.0647156" id="path24" fill="#FFFFFF"></path>
                        <path d="M122.260913,120.295548 C122.260913,120.295548 122.056342,116.376629 121.151436,114.6355 C120.248373,112.892073 119.342085,110.278081 120.146087,109.189186 C120.146087,109.189186 125.983745,110.386098 122.260913,120.295548" id="path26" fill="#FFFFFF"></path>
                        <path d="M63.519427,126.741126 C63.519427,126.741126 67.566163,129.358794 74.9689762,125.087789 C82.3704072,120.822299 84.8796324,123.452838 84.8796324,123.452838 C84.8796324,123.452838 71.923903,134.396025 63.519427,126.741126" id="path28" fill="#FFFFFF"></path>
                        <path d="M102.017557,112.727061 L110.894759,121.545777 C110.630751,122.167675 110.29026,122.746825 109.880195,123.263924 L100.411395,114.048076 C100.880435,113.531896 101.421812,113.086962 102.017557,112.727061" id="path30" fill="#9FA7AA"></path>
                        <path d="M111.496033,118.996136 L104.171086,111.871665 C104.632754,111.773301 105.105941,111.72274 105.591568,111.72274 C105.725645,111.72274 105.854193,111.73607 105.984584,111.743424 L111.393748,117.124928 C111.473917,117.568024 111.519992,118.023071 111.519992,118.490988 C111.519992,118.659677 111.505248,118.828826 111.496033,118.996136" id="path32" fill="#9FA7AA"></path>
                        <path d="M115.027194,126.741126 C115.027194,126.741126 110.978615,129.358794 103.579488,125.087789 C96.1766746,120.822299 93.6651457,123.452838 93.6651457,123.452838 C93.6651457,123.452838 106.623179,134.396025 115.027194,126.741126" id="path34" fill="#FFFFFF"></path>
                        <path d="M70.4813058,185.575009 C65.8650872,185.072619 61.2488685,183.443183 61.2488685,183.443183 C61.2488685,183.443183 66.3189224,174.43969 65.0219212,152.999169 C67.1639314,153.208766 70.3753341,153.479036 70.4813058,153.702883 L70.4813058,185.575009" id="path36" fill="#FFFFFF"></path>
                        <path d="M83.1799387,105.223844 C80.7785282,105.223844 77.6459131,104.438313 73.8558128,102.889315 C68.485813,100.697736 63.2217848,100.165009 58.4788608,101.327907 C55.6848944,102.34188 54.0372651,104.406598 54.0372651,106.863391 C54.0372651,107.116195 54.0543127,107.36762 54.0856434,107.616287 C53.2645933,106.641384 52.812601,105.430683 52.812601,104.162527 C52.812601,102.8576 53.3060604,101.584848 54.2012908,100.580527 C55.3554606,99.2190635 57.1703409,98.0198541 59.5993962,97.0090985 C62.3541992,95.8627481 65.9374243,95.2573979 69.9657306,95.2573979 C79.4534214,95.2573979 88.0979463,98.5199461 88.0979463,102.103785 C88.0924174,102.21272 87.8763273,105.223844 83.1799387,105.223844" id="path38" fill="#FFFFFF"></path>
                        <path d="M124.81437,107.613529 C124.846162,107.364862 124.862748,107.115276 124.862748,106.863391 C124.862748,104.406598 123.217423,102.34188 120.458934,101.339858 C118.785503,100.926638 117.072908,100.725315 115.332669,100.725315 C112.020823,100.725315 108.558775,101.453849 105.042358,102.889315 C101.256404,104.438313 98.1196423,105.223844 95.7219178,105.223844 C91.024147,105.223844 90.8098999,102.214559 90.802528,102.085399 C90.802528,100.37047 92.8445562,98.6201483 96.4056655,97.3037299 C99.9197787,96.0011007 104.485776,95.2573979 108.932901,95.2573979 C112.957521,95.2573979 116.540746,95.8627481 119.297392,97.0090985 C121.730594,98.0212331 123.5487,99.2209021 124.695498,100.572713 C125.594414,101.583928 126.08603,102.855761 126.08603,104.162527 C126.08603,105.429764 125.633577,106.637706 124.81437,107.613529" id="path40" fill="#FFFFFF"></path>
                        <path d="M89.2221677,129.308693 C91.7498227,129.317886 104.074329,128.976371 117.253521,136.255742 C130.179302,143.554418 134.713508,138.343902 134.803353,138.338386 C134.654071,138.347579 130.750627,147.794168 113.958723,137.89529 C106.483112,133.583376 97.2557427,132.421857 89.2184817,132.458169 C81.1844458,132.404391 71.9533907,133.564071 64.4690254,137.809796 C47.6471726,147.515624 43.7548787,138.166479 43.6170234,138.171995 C43.7027222,138.167399 48.2277131,143.329653 61.1723846,136.170248 C74.3621732,129.00395 88.3098897,129.305935 89.2221677,129.308693" id="path42" fill="#A9AFB3"></path>
                        <path d="M110.686502,145.241309 L114.751668,149.027851 C111.008103,149.339948 101.602425,150.000916 89.276075,150.000916 L89.272389,150.000916 L89.2650171,150.000916 C76.9423533,150.000916 67.5422042,149.339948 63.7931104,149.030609 L67.8582763,145.241309 L61.8049894,143.679901 C61.7902456,143.640831 61.7755017,143.601761 61.76214,143.561772 C62.6260396,143.123732 63.523113,142.637889 64.4690254,142.08264 C71.9533907,137.755099 81.1844458,136.572896 89.2184817,136.628053 C97.2557427,136.589903 106.483112,137.775323 113.958723,142.169053 C114.912007,142.74085 115.816453,143.24232 116.687263,143.691852 L110.686502,145.241309" id="path44" fill="#C21B32"></path>
                        <path d="M80.5684278,53.2478383 C74.9187549,55.7372665 67.3781785,59.8510741 60.697355,66.0548798 C64.4109714,58.0750123 70.4550433,48.4542183 84.7437122,39.0976732 L86.0351845,45.1581621 C83.0255887,47.8263456 81.4079079,50.9992633 80.5684278,53.2478383" id="path46" fill="#FFFFFF"></path>
                        <path d="M97.8514879,53.2478383 C103.497475,55.7372665 111.038512,59.8510741 117.722561,66.0548798 C114.007101,58.0750123 107.961186,48.4542183 93.6725176,39.0976732 L92.3847313,45.1581621 C95.3911019,47.8263456 97.0101649,50.9992633 97.8514879,53.2478383" id="path48" fill="#FFFFFF"></path>
                        <path d="M93.2596888,67.2922395 L89.2111097,60.3759867 L85.1588447,67.2922395 C85.1588447,67.2922395 70.684495,72.0256463 61.8722584,84.5054217 L62.223808,77.8842599 C62.223808,77.8842599 62.907095,66.974626 84.7828756,57.3869263 C86.0835628,57.6443266 87.6210737,57.7937106 89.272389,57.7937106 C90.8900698,57.7937106 92.3902602,57.6507616 93.6725176,57.4057717 C115.512821,66.9865767 116.194265,77.8842599 116.194265,77.8842599 L116.548118,84.5054217 C107.734499,72.0256463 93.2596888,67.2922395 93.2596888,67.2922395" id="path50" fill="#FFFFFF"></path>
                        <path d="M51.5317259,96.0102936 C43.5835732,91.1679514 34.9242123,86.5701394 23.5414252,84.466352 C25.1666622,80.9096321 28.1075146,75.0914671 32.6067958,68.3498788 L46.839484,66.1132545 L43.5277768,54.2811165 C51.2787761,45.6761342 61.3658981,36.9921392 74.2004512,30.3244155 C74.2004512,30.3244155 44.3189706,65.0050545 51.5317259,96.0102936" id="path52" fill="#C21B32"></path>
                        <path d="M145.81335,68.3498788 C150.310696,75.0914671 153.253945,80.9096321 154.874851,84.466352 C143.493953,86.5701394 134.834684,91.1679514 126.88819,96.0102936 C134.09749,65.0050545 104.215779,30.3244155 104.215779,30.3244155 C117.052175,36.9921392 127.1416,45.6761342 134.890434,54.2811165 L131.577206,66.1132545 L145.81335,68.3498788" id="path54" fill="#C21B32"></path>
                        <path d="M141.519193,17.5542375 L143.441888,17.5542375 L144.983085,15.0465155 L146.545016,17.5542375 L148.447438,17.5542375 L148.447438,11.06412 L146.650987,11.06412 L146.650987,14.8570506 L145.003358,12.2857599 L144.940697,12.2857599 L143.292606,14.8570506 L143.292606,11.06412 L141.519193,11.06412 L141.519193,17.5542375 Z M136.746321,15.9740298 L134.803353,15.9740298 L134.803353,17.5542375 L140.506473,17.5542375 L140.506473,15.9740298 L138.561201,15.9740298 L138.561201,11.06412 L136.746321,11.06412 L136.746321,15.9740298 L136.746321,15.9740298 Z" id="path56" fill="#A9AFB3"></path>
                    </g>
                </g>
            </g>
        </g>
    </g>
</svg>