<?xml version="1.0" encoding="UTF-8"?>
<svg width="200px" height="200px" viewBox="0 0 200 200" version="1.1" xmlns="http://www.w3.org/2000/svg" xmlns:xlink="http://www.w3.org/1999/xlink">
    <title>baylor_BGL</title>
    <g id="baylor_BGL" stroke="none" stroke-width="1" fill="none" fill-rule="evenodd">
        <g id="baylor-bgl" transform="translate(19.000000, 0.000000)" fill="#1B3E30">
            <polyline id="Fill-1" points="73.0444444 107.949383 73.0444444 102.267901 82.3135802 102.27037 82.3135802 80.2938272 41.8012346 80.2938272 41.8012346 102.27037 51.0679012 102.27037 51.0679012 107.949383 73.0444444 107.949383"></polyline>
            <path d="M32.6851852,111.391358 L32.6851852,71.1716049 L82.9753086,71.1716049 C84.6148148,71.1716049 85.2296296,71.362963 85.9654321,72.0987654 L90.491358,76.6271605 C91.2493827,77.382716 91.4222222,77.9419753 91.4222222,79.6197531 L91.4222222,102.94321 C91.4222222,104.620988 91.2481481,105.181481 90.4864198,105.940741 L85.9691358,110.460494 C85.2728395,111.15679 84.6740741,111.365432 83.2395062,111.387654 L32.6851852,111.391358 Z M82.9753086,22.9814815 C84.6135802,22.9814815 85.2296296,23.1728395 85.9654321,23.908642 L90.491358,28.4358025 C91.2493827,29.1925926 91.4222222,29.7518519 91.4222222,31.4296296 L91.4222222,40.7493827 C91.4222222,42.4271605 91.2481481,42.9876543 90.4864198,43.7469136 L85.9691358,48.2666667 C85.2296296,49.0061728 84.6135802,49.1975309 82.9753086,49.1975309 L32.6851852,49.1975309 L32.6851852,27.9419753 L21.6975309,22.9814815 L82.9753086,22.9814815 Z M162.845679,102.267901 L162.845679,80.2938272 L122.333333,80.2938272 L122.333333,102.27037 L131.601235,102.27037 L131.601235,166.345679 C131.601235,167.982716 131.411111,168.598765 130.674074,169.335802 L126.146914,173.860494 C125.391358,174.618519 124.832099,174.792593 123.153086,174.792593 L81.4938272,174.792593 C79.817284,174.792593 79.2567901,174.618519 78.4950617,173.85679 L73.9765432,169.339506 C73.237037,168.598765 73.0444444,167.982716 73.0444444,166.345679 L73.0444444,133.367901 L82.9753086,133.367901 C89.6950617,133.367901 94.1345679,133.367901 99.3938272,128.114815 L108.133333,119.374074 C113.401235,114.114815 113.4,109.766667 113.4,103.183951 L113.4,79.3728395 C113.4,72.7938272 113.401235,68.4481481 108.151852,63.208642 L105.12963,60.1851852 L108.133333,57.1790123 C113.401235,51.9209877 113.4,47.5728395 113.4,40.9888889 L113.4,31.182716 C113.4,24.6037037 113.401235,20.2567901 108.151852,15.017284 L99.3777778,6.24074074 C94.1345679,1.00493827 89.6962963,1.00493827 82.9753086,1.00493827 L0.117283951,1.00493827 L0.117283951,22.9814815 L10.708642,22.9814815 L10.708642,111.391358 L0.117283951,111.391358 L0.117283951,133.367901 L51.0691358,133.367901 L51.0691358,166.345679 C51.0691358,173.065432 51.0691358,177.503704 56.3222222,182.764198 L65.0641975,191.503704 C70.3197531,196.769136 74.5765432,196.769136 81.017284,196.769136 L123.635802,196.769136 C130.07284,196.769136 134.325926,196.769136 139.564198,191.522222 L148.341975,182.748148 C153.579012,177.503704 153.579012,173.065432 153.579012,166.345679 L153.579012,107.22963 L142.588889,102.27037 L162.845679,102.267901 L162.845679,102.267901 Z" id="Fill-2"></path>
            <path d="M150.541975,191.261728 C151.292593,191.261728 151.958025,191.320988 151.958025,192.109877 C151.958025,192.959259 150.797531,192.816049 149.950617,192.816049 L148.98642,192.816049 L148.98642,191.261728 L150.541975,191.261728 Z M151.193827,193.720988 C152.025926,193.693827 152.859259,193.240741 152.859259,192.011111 C152.859259,190.696296 151.84321,190.35679 150.71358,190.35679 L148.083951,190.35679 L148.083951,196.604938 L148.98642,196.604938 L148.98642,193.720988 L150.145679,193.720988 L151.744444,196.604938 L152.776543,196.604938 L151.193827,193.720988 Z M150.232099,198.995062 C153.341975,198.995062 155.802469,196.535802 155.802469,193.439506 C155.802469,190.341975 153.341975,187.883951 150.232099,187.883951 C147.122222,187.883951 144.661728,190.341975 144.661728,193.439506 C144.661728,196.535802 147.122222,198.995062 150.232099,198.995062 L150.232099,198.995062 Z M150.232099,188.78642 C152.776543,188.78642 154.897531,190.812346 154.897531,193.439506 C154.897531,196.054321 152.776543,198.090123 150.232099,198.090123 C147.687654,198.090123 145.567901,196.054321 145.567901,193.439506 C145.567901,190.812346 147.687654,188.78642 150.232099,188.78642 L150.232099,188.78642 Z" id="Fill-3"></path>
        </g>
    </g>
</svg>