<?xml version="1.0" encoding="UTF-8"?>
<svg width="200px" height="200px" viewBox="0 0 200 200" version="1.1" xmlns="http://www.w3.org/2000/svg" xmlns:xlink="http://www.w3.org/1999/xlink">
    <title>brown_BGL</title>
    <defs>
        <polygon id="path-1" points="0 0 162.85952 0 162.85952 200 0 200"></polygon>
    </defs>
    <g id="brown_BGL" stroke="none" stroke-width="1" fill="none" fill-rule="evenodd">
        <g id="brown_bgl" transform="translate(19.000000, 0.000000)">
            <path d="M159.006548,192.008249 L157.324265,194.710756 L155.667306,192.008249 L153.597916,192.008249 L153.597916,199.005101 L155.508122,199.005101 L155.508122,194.916971 L157.280851,197.688217 L157.349589,197.688217 L159.122318,194.916971 L159.122318,199.005101 L161.050613,199.005101 L161.050613,192.008249 L159.006548,192.008249 Z M146.376759,192.008249 L146.376759,193.712239 L148.467856,193.712239 L148.467856,199.005101 L150.421475,199.005101 L150.421475,193.712239 L152.512572,193.712239 L152.512572,192.008249 L146.376759,192.008249 L146.376759,192.008249 Z" id="Fill-1" fill="#423228"></path>
            <g id="Group-5">
                <mask id="mask-2" fill="white">
                    <use xlink:href="#path-1"></use>
                </mask>
                <g id="Clip-3"></g>
                <path d="M68.9012699,84.1322673 L105.795738,84.1322673 L105.795738,49.2384501 L68.9012699,49.2384501 L68.9012699,84.1322673 Z M68.9012699,150.229731 L105.795738,150.229731 L105.795738,115.335914 L68.9012699,115.335914 L68.9012699,150.229731 Z M129.065519,97.5579755 L146.478058,81.6178865 L146.478058,36.2468796 L125.632213,14.1745957 L14.5399949,14.1745957 L14.5399949,49.962013 L30.1363916,49.962013 L30.1363916,149.810065 L14.5399949,149.810065 L14.5399949,185.843493 L125.632213,185.843493 L148.684925,163.771209 L148.684925,113.744076 L129.065519,97.5579755 L129.065519,97.5579755 Z" id="Fill-2" fill="#423228" mask="url(#mask-2)"></path>
                <path d="M78.9009081,141.322673 L95.9842263,141.322673 L95.9842263,124.601136 L78.9009081,124.601136 L78.9009081,141.322673 Z M72.537173,147.1365 L102.344344,147.1365 L102.344344,118.421909 L72.537173,118.421909 L72.537173,147.1365 Z M78.9009081,75.2252089 L95.9842263,75.2252089 L95.9842263,58.1418907 L78.9009081,58.1418907 L78.9009081,75.2252089 Z M72.537173,81.0390362 L102.344344,81.0390362 L102.344344,52.3244456 L72.537173,52.3244456 L72.537173,81.0390362 Z M152.320828,165.323252 L127.09381,189.475779 L10.9040917,189.475779 L10.9040917,146.901342 L26.352158,146.901342 L26.352158,52.8707355 L10.9040917,52.8707355 L10.9040917,10.5423103 L127.198727,10.5423103 L150.113961,34.8033718 L150.113961,83.2169603 L134.604392,97.4132629 L152.320828,112.029232 L152.320828,165.323252 Z M150.667487,97.0008321 L160.652654,87.8586158 L160.652654,30.6103252 L131.742701,0 L0,0 L0,62.6858652 L15.8134655,62.6858652 L15.8134655,137.08983 L0,137.08983 L0,200.021707 L131.323035,200.021707 L162.85952,169.82743 L162.85952,107.061973 L150.667487,97.0044499 L150.667487,97.0008321 L150.667487,97.0008321 Z" id="Fill-4" fill="#AD252A" mask="url(#mask-2)"></path>
            </g>
        </g>
    </g>
</svg>