<?xml version="1.0" encoding="UTF-8"?>
<svg width="200px" height="200px" viewBox="0 0 200 200" version="1.1" xmlns="http://www.w3.org/2000/svg" xmlns:xlink="http://www.w3.org/1999/xlink">
    <!-- Generator: Sketch 54.1 (76490) - https://sketchapp.com -->
    <title>bucknell</title>
    <desc>Created with Sketch.</desc>
    <g id="bucknell" stroke="none" stroke-width="1" fill="none" fill-rule="evenodd">
        <g id="bucknell_BGL" transform="translate(0.000000, 0.000000)">
            <g id="bucknell" transform="translate(0.000000, 34.000000)">
                <g id="g10" transform="translate(99.945797, 66.276425) scale(-1, 1) rotate(-180.000000) translate(-99.945797, -66.276425) translate(0.000000, 0.151765)">
                    <g id="g12">
                        <path d="M32.2059613,53.7105678 C31.0618962,53.5848225 28.9480752,53.7309472 27.245311,54.7904593 C25.6364221,55.7864485 24.8539831,57.2960419 24.8539831,59.4029253 C24.8539831,64.2530065 28.3002703,66.1630336 36.0975601,70.0216785 C37.3075329,70.6198356 38.6063947,71.2633045 39.9676955,71.9663939 C34.0726279,64.8513805 32.5775602,56.8960419 32.2059613,53.7105678 Z M199.735713,30.7781022 L199.76303,31.7118691 C200.099074,43.7016791 190.725415,49.6277494 190.3278,49.8742535 L189.784711,50.2096464 L189.152082,50.1665028 C184.146337,49.8311099 182.613112,51.2576681 180.989481,52.7655271 C180.5678,53.1592399 180.132028,53.5594567 179.643573,53.9343076 L184.93463,59.4144159 L189.091161,63.7194564 L183.22406,62.900161 L157.999779,58.9855812 C158.27295,59.5796191 158.419725,60.1511096 158.48585,60.6833589 C161.241188,60.6243887 163.377774,61.1865567 164.853329,62.3692125 C165.400104,62.8093209 165.786879,63.2773968 166.062001,63.7207572 C169.512841,63.9781014 171.54211,65.708833 172.098641,68.8910552 C172.098641,68.9025457 172.102326,68.9177219 172.106879,68.9322476 C172.264928,69.292356 172.313925,69.635337 172.34753,69.8870443 C172.421242,70.4502963 172.597069,71.7682367 175.376039,74.4791309 C178.706771,77.7242257 178.909481,80.9647676 178.608993,82.9192391 C179.709047,83.7354993 180.460483,84.635445 180.901892,85.2617865 C187.098532,87.333548 190.606608,90.3423284 191.321838,94.2194014 C192.501892,100.6168 185.303627,106.370729 185.000104,106.611379 L182.012787,108.964767 C180.390023,111.8452 178.147855,114.434035 175.311866,116.650187 C170.844657,120.137233 166.497774,121.483141 166.314142,121.537775 L162.675335,122.643032 L163.26547,120.620702 C151.598695,124.845092 140.186663,123.86623 137.061677,123.482057 C116.614631,136.981026 99.1882902,132.10623 88.1231414,125.581785 C76.1649845,118.533547 69.1642259,108.351217 68.8719766,107.921081 L67.2344699,105.512626 L70.0526812,104.773981 L70.1842801,104.74016 C65.6403236,100.804117 60.9851475,94.7098079 60.0572343,93.1312714 C59.9351747,92.9248757 59.8107302,92.6950654 59.6659064,92.4275316 C58.6642804,90.5766915 56.5428712,86.6653637 49.9581559,80.8847676 C50.0750123,81.3344153 50.1556627,81.7918679 50.1879662,82.2573421 C50.52466,87.0261225 46.0906222,90.4585343 45.9020043,90.6020574 L45.4655815,90.9337647 L44.9218417,91.0061766 C37.9484001,91.9182633 37.0592945,100.644767 37.0241725,101.016366 L36.588617,105.722924 C36.5866658,105.727911 33.4393488,102.201407 33.4393488,102.201407 C30.5374518,98.9539271 29.335067,95.6973418 29.8614627,92.5248757 C29.9160968,92.191434 29.9924112,91.8705668 30.0799992,91.5588053 L29.1698638,92.028182 C29.1692134,92.029266 29.1692134,89.4467186 29.1692134,88.7982634 C29.1635765,88.7709463 29.1570724,88.741678 29.152086,88.7163121 C28.4559342,85.2058515 29.2988611,82.5298624 31.657235,80.7603232 C32.5990236,80.0546321 33.0298095,79.2912717 32.959132,78.9309465 C32.9044978,78.6527894 32.3208664,78.0017325 30.5012458,77.5286701 C24.7917609,76.0442257 14.5960322,68.7182639 14.5960322,59.4029253 C14.5960322,54.3763672 17.5476852,50.6556085 20.2997935,48.2768552 L13.1193276,47.1761506 L8.80648216,46.5237929 L12.0884116,43.5924108 L17.9141242,38.3874245 L12.5831542,13.2571921 L4.28988607,5.11431966 L0,0.903202145 L5.91336571,1.58417991 L80.3492663,10.4890837 L64.0357708,0 L176.50341,13.9527368 L177.931269,14.1305146 L178.231757,15.5626663 L180.644115,27.0592947 C180.644115,27.0592947 192.602922,24.2124655 199.735713,30.7781022 L199.735713,30.7781022 Z" id="path14" fill="#A0ABB5" fill-rule="nonzero"></path>
                        <path d="M189.284765,48.1149039 C181.534521,47.5928443 180.517069,51.0289418 177.867096,52.694416 C177.384494,52.9942534 176.827313,53.2075867 176.276635,53.3550122 L183.497231,60.8613535 L148.852896,55.6555 C158.846608,57.8404322 156.14005,62.939619 156.14005,62.939619 C164.362272,61.7962044 164.675335,65.7519767 164.675335,65.7519767 C170.399562,65.5436298 169.880538,69.291272 170.192516,69.7073153 C170.505578,70.1231419 169.775172,71.8939819 173.940592,75.9527352 C178.10276,80.0134397 176.229589,83.8636293 176.229589,83.8636293 C178.521405,85.0096456 179.560538,86.9862309 179.560538,86.9862309 C198.921404,93.0233039 183.725957,104.994903 183.725957,104.994903 C185.598911,99.7903498 182.997285,98.228507 182.997285,98.228507 C182.163464,114.571271 165.716419,119.568777 165.716419,119.568777 L166.445091,117.070133 C152.182977,123.836311 136.570186,121.337666 136.570186,121.337666 C98.1593471,147.361514 70.5740904,106.763791 70.5740904,106.763791 L74.945906,105.619943 C70.0533316,103.121298 62.8708927,93.8566914 61.8311096,92.088453 C60.789592,90.3176129 58.3967465,84.48867 46.5294297,75.4326268 C34.662113,66.3757165 34.1424382,52.2191857 34.1424382,52.2191857 C32.579945,50.8682914 22.7958802,51.1776681 22.7958802,59.4029253 C22.7958802,67.6270986 31.1230345,69.291272 42.4702428,75.6409737 C53.8161504,81.9906755 44.655175,88.964117 44.655175,88.964117 C35.9108934,90.1105669 34.9745249,100.831434 34.9745249,100.831434 C27.1666118,92.088453 36.2233053,86.9862309 36.2233053,86.9862309 C34.2460696,87.0902959 31.2277499,88.6521387 31.2277499,88.6521387 C31.2277499,88.2360954 29.978319,84.5936022 32.8925737,82.4067188 C35.807262,80.2204858 36.2233053,76.8895374 31.019403,75.5366919 C25.8141999,74.1838464 16.6539616,67.4174509 16.6539616,59.4029253 C16.6539616,51.3873158 25.8141999,47.0148498 25.8141999,47.0148498 L13.4152192,45.1423295 L20.1352407,39.1369096 L14.4232625,12.207913 L5.6878481,3.63117606 L88.8572336,13.5397287 L72.8975592,3.24813 L176.258857,15.9945795 L179.150131,29.5668285 C179.523031,29.4016253 179.700809,29.3762594 179.700809,29.3762594 C188.87631,27.0846606 194.995551,30.1049315 194.995551,30.1049315 L190.711974,35.5182647 L197.747637,31.7708393 C198.052678,42.7000531 189.284765,48.1149039 189.284765,48.1149039" id="path16" fill="#274D87" fill-rule="nonzero"></path>
                        <path d="M74.1680198,46.6285083 L45.2279663,42.5890504 C45.2279663,42.5890504 45.7667197,47.43653 38.3624923,47.9737657 C38.3624923,47.9737657 37.4207037,64.2605946 50.8815163,73.6825998 C50.8815163,73.6825998 57.2078034,74.0873694 62.5920852,84.5864477 C67.9763669,95.0863933 81.0328435,106.392192 84.2631957,107.335499 C84.2631957,107.335499 81.3014614,109.085309 79.0128978,109.89203 C79.0128978,109.89203 104.723683,135.601514 130.702436,121.469265 C130.702436,121.469265 125.722273,118.238046 123.163141,115.142328 C123.163141,115.142328 152.104928,123.622328 170.67902,110.027965 L170.67902,112.451163 C170.67902,112.451163 178.221567,109.352192 179.596743,98.8858512 C180.970619,88.418426 174.415605,83.9787513 166.487584,84.4030331 C166.487584,84.4030331 167.122164,81.6533313 166.169318,80.2788056 C165.218424,78.9049303 163.844549,76.050513 164.372462,74.0416242 C164.372462,74.0416242 165.746988,76.5784263 167.333546,77.529971 C168.91902,78.4812989 170.505578,80.4897541 170.505578,82.3926267 L172.724115,82.9211903 C172.724115,82.9211903 173.147963,79.0098625 169.657015,75.9438463 C166.169318,72.8797814 166.909264,71.5048221 166.909264,71.5048221 C166.909264,71.5048221 165.640321,71.9791852 164.462652,71.9538193 C163.279996,71.9284535 161.692137,71.9538193 161.436744,72.1081825 C161.181351,72.2605944 160.001297,72.5940361 159.411161,73.3892665 C158.821243,74.1838464 154.722381,76.6946322 152.723682,74.6196187 C150.724115,72.5433044 151.749807,69.0319766 155.902002,67.647478 C155.902002,67.647478 151.083573,66.4444428 148.650186,70.9031961 C148.650186,70.9031961 144.966284,70.3423289 141.977883,65.3799442 C141.977883,65.3799442 151.194793,65.6327355 151.194793,62.7477491 C151.194793,59.8603779 139.853221,56.6196192 131.446934,59.103088 C131.446934,59.103088 136.003465,59.3541449 138.839021,61.0246055 C138.839021,61.0246055 134.232192,60.2159335 131.043032,61.8376136 C127.85062,63.4553914 122.78829,62.4429253 122.78829,62.4429253 C122.78829,62.4429253 124.610729,64.9751745 129.624712,64.6723019 C134.636094,64.3685621 138.28249,65.9375593 138.737341,66.3917599 C138.737341,66.3917599 140.612896,71.7099169 147.294305,73.3803776 C147.294305,73.3803776 139.751541,73.887261 135.497232,69.076421 C135.497232,69.076421 132.067422,77.1030875 123.778642,80.2484533 C123.778642,80.2484533 128.409536,75.730513 129.382544,68.0132232 C129.382544,68.0132232 122.577558,66.8108384 116.858534,60.8067193 C116.858534,60.8067193 123.93539,60.5576137 128.22417,58.3854728 L125.950132,56.5764756 C125.950132,56.5764756 136.472409,57.2624376 142.761622,55.0317601 C142.761622,55.0317601 129.734414,54.7364756 119.440431,51.9373429 L123.206284,54.9758252 C123.206284,54.9758252 108.054415,60.8067193 86.0988596,51.8304594 C86.0988596,51.8304594 89.7580465,56.404985 96.7898079,61.8376136 C96.7898079,61.8376136 90.5582633,65.0959333 83.4692662,60.5779931 C76.3789683,56.0639552 71.6888871,59.4937655 70.7178302,60.235012 C69.7459061,60.9801611 65.2286163,63.1542532 60.4262316,61.6641719 C60.4262316,61.6641719 73.844551,58.863088 74.1680198,46.6285083" id="path18" fill="#ED652D" fill-rule="nonzero"></path>
                        <path d="M181.366933,94.3178296 C181.366933,94.3178296 180.938749,91.7428703 180.571703,90.823846 C180.571703,90.823846 189.169209,93.1167456 186.005415,99.9150111 C186.005415,99.9150111 186.528776,94.8303499 181.366933,94.3178296" id="path20" fill="#FFFFFF" fill-rule="nonzero"></path>
                        <path d="M74.2321933,66.2690498 C79.314036,65.7927355 84.6710006,68.0526812 89.4779381,71.2951744 C91.3541441,71.8699169 94.4023825,72.459402 96.6183174,71.9982638 C96.4646046,72.3895917 96.3312713,72.778318 96.217667,73.1637922 C93.7151196,73.4922475 90.1040628,72.8702421 89.5204314,72.8958247 C84.7726808,69.8614617 74.4169087,64.3082911 67.648562,74.1018952 C75.3988057,69.5167462 81.6323015,72.7941445 87.8239544,78.217017 C90.0964747,77.031326 93.3372334,75.8677488 95.7927347,76.2887786 C95.8866101,77.7844967 96.5096995,79.0530062 97.8538729,79.8881281 C100.326502,79.6531145 102.122057,78.4476945 103.348507,77.4727352 C104.171054,79.3636837 101.425255,80.2965834 99.6385883,81.6019492 C101.870567,81.7461226 107.270675,81.1510007 109.39035,80.2547405 L107.536908,81.6316511 C106.845092,81.7981551 106.318046,82.4531145 105.682816,82.5298624 C101.135607,83.0755535 103.631867,81.6654722 98.9519758,84.1012445 C97.4408648,84.5745236 93.6229787,86.1953366 92.2237375,84.7815697 C89.4779381,82.0058516 87.1392932,80.7317053 87.0046591,80.7317053 C85.6581008,80.4706755 82.5120847,80.4147405 79.999998,81.0105129 C77.9414615,80.0615698 74.609429,79.0961498 74.0956079,79.1850387 C74.0956079,79.1850387 78.3523016,83.20325 81.5117595,83.5588055 L86.7555534,83.3498082 C87.8911631,84.1068814 89.0720845,85.1212987 90.3017864,86.5053637 C91.9746318,88.3917593 97.306881,86.9194558 99.6385883,86.2710006 C102.524875,85.4701334 100.876529,84.712193 106.917504,84.3343068 C109.046068,84.2029247 115.330946,81.4976673 115.330946,81.4976673 C116.796311,81.0042256 121.48184,76.1281282 121.310349,75.4504046 C121.194143,75.2197271 121.255715,69.7612991 119.616908,65.6630878 L112.600322,70.1612991 L117.895715,63.4603778 C108.159347,62.653657 97.7712713,66.4151745 97.7712713,66.4151745 C96.8628702,68.0856352 96.8019488,68.9957706 96.3427618,70.3360416 C93.5067727,70.2579928 90.6345777,68.8591853 85.9666103,66.0231962 C82.9439546,64.0828168 79.0194018,63.4718683 77.2680739,63.3175052 C72.1671527,62.8646055 65.3162043,67.4124644 64.8273155,69.1501338 C64.4919225,69.7073153 64.2434672,70.2248221 64.0700255,70.6579928 C63.7348494,71.4900795 63.4495377,71.4792394 63.2463941,71.6951744 L62.8518141,73.5505673 L62.5775594,75.4783721 L62.7895919,75.6561499 C62.0667735,79.0835753 62.8429253,80.6644966 66.1298628,81.9735481 C66.7791853,82.2306755 67.444768,82.5443882 68.1211907,82.904063 L70.257776,84.3655263 C72.7165293,85.6726266 73.8540903,86.5998894 73.8540903,86.5998894 C75.9247677,88.1060141 77.933223,89.6843338 79.7027622,90.9877484 C83.2253638,93.5562036 90.3969625,104.519889 102.694415,98.3950111 C102.694415,98.3950111 92.1055804,98.8147401 87.835445,94.7154448 C80.9272608,88.0817322 75.7881824,82.4257974 66.5853642,79.1514343 C64.6848764,77.1525184 65.9939279,67.7255268 74.2321933,66.2690498" id="path22" fill="#274D87" fill-rule="nonzero"></path>
                        <path d="M100.390025,68.0843343 C104.476095,66.890188 108.730404,66.2423832 112.942653,65.9629252 C109.341352,66.9233588 105.261786,67.7654184 102.010838,69.7281283 C101.340919,71.6158248 101.003575,73.6097543 100.816258,75.5817867 L99.1932767,76.7568544 C99.553385,73.8655808 99.7498078,70.9456893 100.390025,68.0843343" id="path24" fill="#FFFFFF"></path>
                        <polygon id="path26" fill="#FFFFFF" points="111.745471 76.4290496 111.490079 74.5610821 118.663628 68.4687246"></polygon>
                        <path d="M158.731487,108.481298 C158.731487,108.481298 150.614197,114.700919 140.886067,110.926826 C132.171704,107.543195 129.838696,99.8100788 133.511108,96.0708919 C132.300484,96.0754448 131.05062,95.9826534 130.038154,95.6923553 C127.030674,94.8234123 125.5781,96.3039542 125.5781,96.3039542 C126.267097,86.0010819 138.135715,88.2844422 138.135715,88.2844422 C138.135715,88.2844422 135.37604,89.2594016 134.19707,90.7330059 C133.017016,92.2072606 129.409211,92.0114882 129.409211,92.0114882 C129.409211,92.0114882 132.681623,94.8494285 139.061243,93.1490492 C145.442598,91.446285 147.710132,97.0757699 147.710132,97.0757699 C147.710132,97.0757699 141.282381,100.496041 143.511108,104.808236 C145.7394,109.11978 153.618424,109.366068 158.731487,108.481298" id="path28" fill="#274D87" fill-rule="nonzero"></path>
                        <path d="M174.906583,85.8718678 L174.644678,86.0803595 L174.463519,86.3141998 C174.562898,86.3452518 174.609481,86.3604609 174.658136,86.3718678 L174.963519,85.8896118 L174.906583,85.8718678" id="path30" fill="#E02F29" fill-rule="nonzero"></path>
                        <path d="M139.397937,98.6948485 C136.472409,100.626339 136.862869,105.731163 142.42688,109.446718 C142.42688,109.446718 135.008994,107.496799 134.956745,101.018751 C134.90211,94.5396182 140.345579,95.1512171 140.978208,95.4573418 C141.610837,95.7608648 142.327801,96.7631412 139.397937,98.6948485" id="path32" fill="#FFFFFF" fill-rule="nonzero"></path>
                        <path d="M142.555877,89.7643338 C142.555877,89.7643338 147.69127,89.4683988 150.284657,93.2266643 C150.284657,93.2266643 150.680972,84.8832499 158.128126,85.430025 L154.983411,84.0676402 C154.983411,84.0676402 155.351324,80.2642798 154.011053,76.8795645 C154.011053,76.8795645 153.569644,81.0601606 152.06417,83.8592933 C152.06417,83.8592933 148.956527,83.3365833 147.756527,85.8866103 C146.559996,88.4368542 144.703953,89.0230872 142.555877,89.7643338" id="path34" fill="#274D87" fill-rule="nonzero"></path>
                        <path d="M149.630349,87.1278027 C149.667205,87.3634667 149.835443,87.5082905 150.07501,87.5596726 C149.536256,88.4236292 149.319021,89.1375587 149.319021,89.1375587 C147.597178,86.1667187 149.620159,85.5913258 150.966067,85.5126266 C150.896256,85.5379924 150.823844,85.5679111 150.752083,85.6041171 C150.05398,85.9566374 149.550349,86.6360954 149.630349,87.1278027" id="path36" fill="#FFFFFF" fill-rule="nonzero"></path>
                        <path d="M154.343194,70.6122476 C154.343194,70.6122476 154.247367,74.0541987 157.371053,72.8086703 C160.496039,71.561841 160.940701,70.4058519 160.940701,70.4058519 C160.940701,70.4058519 164.608776,70.9920849 166.047909,69.2880199 C166.047909,69.2880199 162.687476,69.7179386 160.292896,69.3940362 C160.292896,69.3940362 159.97463,70.2198356 157.94276,71.3224914 C155.911541,72.4257976 154.837503,71.7491581 154.343194,70.6122476" id="path38" fill="#FFFFFF" fill-rule="nonzero"></path>
                        <path d="M147.665687,68.6751202 C147.665687,68.6751202 147.275227,68.4242801 146.732137,68.0270986 L148.96585,67.0248222 L145.937557,67.4174509 C145.608452,67.1518682 145.268723,66.8617869 144.946555,66.5567463 C144.946555,66.5567463 149.411812,66.7186975 152.184928,65.3977219 C152.184928,65.3977219 149.807476,67.4460688 147.665687,68.6751202" id="path40" fill="#FFFFFF" fill-rule="nonzero"></path>
                        <path d="M173.556202,106.206176 C173.556202,106.206176 176.79631,102.257342 176.083681,94.6094285 C175.370836,86.9589138 165.276961,87.2936564 165.276961,87.2936564 C165.276961,87.2936564 169.255497,92.4847673 169.548397,94.4169082 C169.548397,94.4169082 170.612245,92.1563121 169.897665,90.4288324 C169.897665,90.4288324 175.17528,92.191434 173.556202,106.206176" id="path42" fill="#274D87" fill-rule="nonzero"></path>
                        <path d="M119.16726,83.41138 C119.16726,83.41138 134.042273,83.2654722 143.753276,76.6343612 C143.753276,76.6343612 140.889753,75.8950659 138.514902,75.2249304 C138.514902,75.2249304 130.952842,80.6948489 119.430891,82.7908922 L119.16726,83.41138" id="path44" fill="#274D87" fill-rule="nonzero"></path>
                        <path d="M173.718153,44.2690504 C175.902001,43.3652022 178.075443,41.7092672 179.855172,38.6649313 C179.855172,38.6649313 181.853437,40.1131697 183.493329,40.6675329 C182.444657,42.947858 181.148397,43.6624379 180.153708,45.4014081 C182.569318,44.9402699 183.719453,44.4422753 185.68715,45.2388065 C180.153708,45.4014081 178.692895,48.7297549 177.030673,49.766286 C176.380917,50.1714893 175.675876,50.4015164 174.984061,50.5029798 L173.718153,44.2690504" id="path46" fill="#ED652D"></path>
                        <path d="M106.364875,11.8268181 C106.327585,11.6437937 106.305905,11.543436 105.360865,11.4278371 L99.5059054,10.7089211 L99.8601601,12.3984604 L105.753276,13.1173764 C106.36119,13.1924116 106.545905,13.1681081 106.595553,13.1312734 C106.618317,13.1141677 106.626122,13.0552192 106.608778,12.9775607 L106.364875,11.8268181 Z M100.390025,14.9211487 L106.282491,15.6390674 C107.007043,15.7278912 107.087043,15.6643899 107.092897,15.6548939 C107.095499,15.6548939 107.099184,15.6377015 107.091596,15.5958587 L106.968453,15.0050728 C106.952409,14.9307313 106.930946,14.830959 106.053764,14.7256148 L100.199455,14.0077828 L100.390025,14.9211487 Z M109.161623,14.2974305 C110.008886,14.6914034 110.252789,15.1637937 110.318263,15.4675552 L110.477612,16.2328018 C110.565851,16.6488885 110.466122,16.9632516 110.179076,17.1685199 C109.766935,17.4618966 108.987531,17.5267638 107.724225,17.3717069 L95.1117591,15.8308722 L96.9474231,14.7674359 L95.6440084,8.56953908 L105.452789,9.77515423 C106.403683,9.89075314 109.309482,10.2527911 109.626447,11.7530404 L109.934523,13.2240864 C110.046393,13.7449969 109.766935,14.1146663 109.161623,14.2974305 L109.161623,14.2974305 Z" id="path48" fill="#ED652D" fill-rule="nonzero"></path>
                        <path d="M139.281081,15.6593817 L140.128343,19.6799561 L148.396311,20.689864 L147.550782,16.6729318 L139.281081,15.6593817 Z M151.628614,22.2458531 C151.14211,22.5940374 150.206392,22.5610834 148.952625,22.4097555 L140.248885,21.345864 C138.10081,21.0822325 136.878262,20.6619182 136.570186,19.1843681 L135.7394,15.2483899 C135.612354,14.6481948 135.702544,14.2747314 136.034035,14.0370945 C136.520539,13.6903845 137.458642,13.7207801 138.711975,13.8764441 L147.415498,14.9465579 C149.565525,15.2101893 150.788289,15.6294847 151.09875,17.1073817 L151.923248,21.036509 C152.052246,21.638135 151.960105,22.0108396 151.628614,22.2458531 L151.628614,22.2458531 Z" id="path50" fill="#ED652D" fill-rule="nonzero"></path>
                        <polyline id="path52" fill="#ED652D" fill-rule="nonzero" points="113.895499 18.1300808 112.322165 10.6415173 115.868832 11.0773114 117.446718 18.5639453 113.895499 18.1300808"></polyline>
                        <path d="M132.987747,17.2809101 C132.499292,17.6301567 131.556203,17.5965524 130.292246,17.4428397 L123.337233,16.5949264 L123.563357,17.6778532 L130.876528,18.5747854 L133.62623,18.4336039 L133.730295,18.9164223 C133.837612,19.432173 133.739834,19.7897231 133.429157,20.0121187 C133.001189,20.3150347 132.222436,20.3659399 130.733655,20.1855605 L124.024929,19.3641621 C121.878154,19.1017881 120.65539,18.6801296 120.342978,17.2047692 L120.13203,16.1916527 C120.004983,15.5912842 120.097124,15.2184061 120.429265,14.9833926 C120.915986,14.6367693 121.852788,14.6683574 123.104604,14.8227422 L130.059617,15.6693763 L129.817666,14.5261785 L121.880105,13.4909482 L119.134306,13.676314 L119.020485,13.1459943 C118.897341,12.5571596 118.993818,12.1741135 119.324225,11.9435878 C119.813981,11.5980702 120.759672,11.6375282 122.022328,11.8037721 L129.339401,12.7553384 C131.509157,13.0410837 132.74146,13.4718913 133.051921,14.9497882 L133.288886,16.0722381 C133.412029,16.6627638 133.318154,17.0478478 132.987747,17.2809101" id="path54" fill="#ED652D" fill-rule="nonzero"></path>
                        <polyline id="path56" fill="#ED652D" fill-rule="nonzero" points="164.638045 19.881864 158.700484 23.602601 155.495497 23.2114899 153.896148 15.7120646 157.385579 16.1394034 158.356852 20.6872407 164.284874 16.9803573 167.519129 17.3779725 168.831215 23.5308395 171.272841 25.1360427 165.613004 24.4422758 164.638045 19.881864"></polyline>
                        <path d="M29.7725738,14.2872625 C29.1794031,13.8382436 27.2680752,13.6381352 25.8740373,13.5016148 L28.3416795,25.0679669 C28.4247147,25.078807 28.5138204,25.0902975 28.5912188,25.1041728 C30.6434681,25.4001078 32.1671537,25.5234682 32.4886713,24.6519235 C32.8277499,23.6852027 32.3501347,21.2652352 31.9156632,19.2277285 C31.3504599,16.5725741 30.6471537,14.9593492 29.7725738,14.2872625 Z M31.7402702,40.9706223 C32.9508935,41.1820044 34.7351753,41.4011914 35.0705682,41.1598906 C35.567262,40.7965301 35.2973433,38.1428717 34.8474788,36.0353379 C34.3050398,33.4922485 33.1338745,29.5605413 32.3462323,28.9487256 C31.877506,28.5836307 30.1162052,28.3624925 29.0168014,28.2278584 L31.7402702,40.9706223 Z M35.2687254,27.58504 C36.1712728,28.1136036 37.1481834,28.8663407 38.0888879,29.9618421 C38.9266115,30.9476415 40.3995654,34.7713812 40.8880207,37.0705682 C41.2919231,38.9654191 41.300812,41.9887252 40.3778852,43.0259068 C38.6241725,44.815175 34.6384815,44.3546872 32.7184816,44.1209745 L32.7046062,44.1196737 C32.6582106,44.1164217 32.643468,44.1120856 32.643468,44.1120856 L23.8161512,42.8695924 L23.8033598,42.8125735 L25.2706769,41.0328445 L19.0015171,11.6724333 L16.6571053,9.33315966 L25.083143,10.3659401 C27.5304058,10.7050404 32.2168014,11.2976041 35.2585357,14.7294956 C36.7219503,16.4201405 37.638373,18.233734 38.0760966,20.2821025 C38.974308,24.5027636 37.3120858,27.0465034 35.2687254,27.58504 L35.2687254,27.58504 Z" id="path58" fill="#FFFFFF" fill-rule="nonzero"></path>
                        <path d="M54.8184268,38.9114353 L56.5498089,37.271327 L52.9350664,20.3976147 C52.2928984,17.8367258 51.4634133,16.3980267 48.6794568,16.0581026 C45.497885,15.6693763 45.6314352,16.9970294 46.1133864,19.456303 C46.1114352,19.4467204 49.1392942,33.5696469 49.7294297,36.3338744 L52.0210285,38.5188066 L41.6793486,37.0642809 L43.1960965,35.408346 L39.6158256,18.6863952 C39.2505139,16.7963139 38.7030885,13.9570728 41.8742537,12.8823628 C43.567045,12.3043683 46.9517603,12.7076636 46.9855815,12.7141677 C47.5507847,12.7839563 50.4611369,13.1841948 52.2718686,14.2161297 C55.6344702,16.1343953 56.2918143,18.9660483 56.7720311,21.036509 C56.7759335,21.0441187 59.7821123,35.0547417 60.3696462,37.8074787 L62.9294293,40.0533323 L54.8184268,38.9114353" id="path60" fill="#FFFFFF" fill-rule="nonzero"></path>
                        <polyline id="path62" fill="#FFFFFF" fill-rule="nonzero" points="96.5725721 21.0453978 90.9647674 32.8804328 99.253114 43.2036846 101.831759 45.5221669 100.892355 45.3912184 93.2431413 44.3152292 94.777667 42.7540369 87.2110547 32.8251482 89.1642254 41.8744705 91.5167457 44.0739284 81.7625996 42.784606 82.628941 40.9565301 77.8525726 18.6929209 75.5061228 16.5294738 85.8853095 17.798612 84.3603231 19.4868721 86.0435751 27.3717066 89.3769083 19.9783193 87.4822742 17.9904386 98.0741439 19.2988613 96.5725721 21.0453978"></polyline>
                        <polyline id="path64" fill="#FFFFFF" fill-rule="nonzero" points="119.841298 48.0563674 116.122924 30.9368014 112.311976 46.997072 104.737125 45.8777224 104.404117 44.0021669 99.150133 19.4805198 105.067314 20.1474467 103.347206 21.8304602 107.067531 39.114579 111.82352 20.9756092 117.858859 21.7142542 123.215823 46.6508389 125.731813 48.8847684 119.841298 48.0563674"></polyline>
                        <path d="M70.6820579,38.1745248 C71.0181012,38.431869 71.598047,38.7874245 72.259944,38.8808662 C73.0506215,38.9927362 73.5479656,38.838373 73.9241174,38.3702971 C74.8730605,37.2281834 74.7293206,35.1226007 74.6837922,33.5887254 L74.6647136,32.9693217 L78.0977758,33.3905683 L80.0483449,42.4607035 L76.1051471,41.0931155 C75.4902962,41.5694299 74.5211905,41.9715979 72.8695917,41.7378851 C67.3628167,40.9641182 61.4252559,33.5854734 59.9137112,26.4971267 C59.6773969,25.3951213 58.9914348,21.5872298 60.0069362,18.8433166 C60.6655811,17.0985795 62.9699713,14.6703953 66.6189685,15.1180484 C68.4750118,15.3467964 69.7979386,16.1229698 70.7234671,16.8585795 L73.9468816,16.3345253 L75.8035753,24.9619506 L72.9998898,24.6202704 L72.7241174,24.0041186 C71.1705131,20.5285415 69.7439549,18.3143627 67.4378303,18.0366608 C65.4573425,17.7920863 65.0913805,19.0829047 65.8759875,23.5607582 C66.0669902,24.6298097 66.2855268,25.844769 66.5422206,27.0514898 C67.0629794,29.4868285 68.0264482,33.3840642 68.4832503,34.7841726 C69.0105132,36.4101888 69.5642259,37.2663405 70.6820579,38.1745248" id="path66" fill="#FFFFFF" fill-rule="nonzero"></path>
                        <path d="M173.845199,36.3325736 C173.845199,36.3325736 172.341242,31.1700805 166.243681,30.4242811 L171.097015,53.3626003 L173.372137,55.5514349 L163.112841,54.1057981 L164.524224,52.4416247 L159.511541,28.7245521 L157.2065,26.5688882 L174.84509,28.7284546 L176.567584,36.6640641 L173.845199,36.3325736" id="path68" fill="#FFFFFF" fill-rule="nonzero"></path>
                        <path d="M137.733763,31.9087255 L136.907314,31.8070453 L136.667964,31.1484003 C136.15978,29.7409207 135.691054,28.9151212 133.608886,27.3970725 C132.26688,26.4379397 130.783086,26.1159885 129.314035,25.8937663 L131.136257,34.4366387 C134.284224,34.8208121 134.20791,32.4008664 134.20791,32.4008664 L135.362598,32.5420046 L137.593276,42.7859068 L136.409969,42.6174515 C136.409969,42.6174515 134.743411,37.6652565 131.745471,37.2992945 L133.93669,47.3717061 C135.503086,47.5928443 136.95436,47.7387522 137.90959,47.0415164 C139.243574,46.1205409 139.130403,45.4504054 139.014847,44.7453647 L139.005308,44.6772889 L138.888452,43.973549 L141.701026,44.3705138 L143.196094,51.3784269 L126.124224,48.9756085 L127.552084,47.3177224 L122.581244,24.197723 L120.317612,22.050948 L136.607043,24.0453111 L137.501352,24.1552297 L137.69127,24.8678585 L139.430891,31.3656361 L139.640539,32.143739 L138.661026,32.0229802 L137.733763,31.9087255" id="path70" fill="#FFFFFF" fill-rule="nonzero"></path>
                        <path d="M147.837178,28.1708394 L152.726067,50.851164 L155.001839,53.037397 L144.744061,51.5943619 L146.155444,49.9301885 L141.106555,26.4698096 L138.800213,24.3152297 L156.441189,26.4747961 L158.16173,34.4093216 L155.439563,34.0778311 C155.439563,34.0778311 153.934739,28.9151212 147.837178,28.1708394" id="path72" fill="#FFFFFF" fill-rule="nonzero"></path>
                        <path d="M63.9442802,16.7999562 C63.2214618,17.4987313 62.9034131,18.4667963 62.6746868,19.183089 C61.8337112,21.8751214 62.5164212,25.5906769 62.7444971,26.6686172 C63.6826,31.0746876 66.2545241,36.3312728 69.1527354,38.9272619 C65.525852,36.3020045 62.2267735,31.1243353 61.2550662,26.5816796 C61.0252559,25.5030888 60.3683454,21.7860157 61.5516516,19.1165307 C61.9080743,18.3256364 62.8316515,17.5241405 63.9442802,16.7999562" id="path74" fill="#ED652D" fill-rule="nonzero"></path>
                        <path d="M68.6781555,38.5237931 C65.2750119,35.8194029 62.2148494,30.9029803 61.2888874,26.5743083 C61.0599443,25.5004872 60.4045513,21.7899182 61.5833047,19.1304277 C61.8801069,18.4718044 62.5959876,17.7541459 63.7127355,16.9955118 C63.1152288,17.6888451 62.8342532,18.5697773 62.6417329,19.1726824 C61.8018413,21.8614629 62.4821665,25.5954465 62.7106759,26.6757717 C63.6509469,31.0911645 66.1120851,35.9431969 68.6781555,38.5237931 L68.6781555,38.5237931 Z M63.9254185,16.7711649 C62.653657,17.5989155 61.8443345,18.3831323 61.5202153,19.1022217 C60.3330066,21.7808125 60.991218,25.5095929 61.2212451,26.588834 C62.1951204,31.1412458 65.5223832,36.3421129 69.1325728,38.9552294 L69.1757164,38.9016792 C66.4611365,36.470243 63.7708385,31.3224924 62.7783182,26.6614627 C62.5506759,25.5852568 61.8727356,21.8662325 62.7076407,19.1935171 C62.918806,18.531425 63.2383724,17.5304061 63.9683453,16.8249535 L63.9254185,16.7711649 L63.9254185,16.7711649 Z" id="path76" fill="#ED652D" fill-rule="nonzero"></path>
                        <polyline id="path78" fill="#ED652D" fill-rule="nonzero" points="128.739292 47.3907847 123.910024 24.5426552 124.952409 24.702872 129.774523 47.5082915 128.739292 47.3907847"></polyline>
                        <path d="M128.767693,47.3591316 L123.954035,24.584498 L124.923574,24.7332243 L129.730945,47.4686167 L128.767693,47.3591316 Z M123.866013,24.5010292 L123.87642,24.5498097 L128.710674,47.422221 L129.8181,47.5479663 L129.808127,47.501137 L124.981243,24.6723029 L123.866013,24.5010292 L123.866013,24.5010292 Z" id="path80" fill="#ED652D" fill-rule="nonzero"></path>
                        <polyline id="path82" fill="#ED652D" fill-rule="nonzero" points="147.312083 49.9683456 142.181243 25.9210834 143.224061 26.0797825 148.349265 50.0826004 147.312083 49.9683456"></polyline>
                        <path d="M147.340484,49.9366925 L142.225471,25.9627094 L143.195227,26.1103517 L148.305471,50.0429256 L147.340484,49.9366925 Z M142.136799,25.8792405 L142.147422,25.9282378 L147.283465,49.9997819 L148.393059,50.1222752 L148.382869,50.0754459 L143.252896,26.0492134 L142.136799,25.8792405 L142.136799,25.8792405 Z" id="path84" fill="#ED652D" fill-rule="nonzero"></path>
                        <polyline id="path86" fill="#ED652D" fill-rule="nonzero" points="165.61669 52.4689418 160.680972 28.413441 161.72379 28.5721402 166.650186 52.5851477 165.61669 52.4689418"></polyline>
                        <path d="M165.645524,52.4372887 L160.724766,28.4548502 L161.694739,28.6027093 L166.606825,52.5454729 L165.645524,52.4372887 Z M160.636961,28.371815 L165.587855,52.5003781 L166.693546,52.6248225 L166.684007,52.5782101 L161.752841,28.5417879 L160.636961,28.371815 L160.636961,28.371815 Z" id="path88" fill="#ED652D" fill-rule="nonzero"></path>
                        <polyline id="path90" fill="#ED652D" fill-rule="nonzero" points="120.722165 46.212465 115.928669 23.4718693 116.969536 23.6292677 121.757395 46.3269365 120.722165 46.212465"></polyline>
                        <path d="M120.750783,46.1810287 L115.97268,23.5132785 L116.940918,23.6598368 L121.713818,46.2872617 L120.750783,46.1810287 Z M115.884658,23.4302433 L115.894631,23.4790238 L120.693547,46.2441181 L121.801189,46.3663945 L121.791216,46.319782 L116.998371,23.5989154 L115.884658,23.4302433 L115.884658,23.4302433 Z" id="path92" fill="#ED652D" fill-rule="nonzero"></path>
                        <polyline id="path94" fill="#ED652D" fill-rule="nonzero" points="105.346772 44.1196737 100.553927 21.3777989 101.594794 21.5364981 106.38222 44.2352292 105.346772 44.1196737"></polyline>
                        <path d="M105.37539,44.0882374 L100.597938,21.4193816 L101.566176,21.5670672 L106.338426,44.1957713 L105.37539,44.0882374 Z M100.509916,21.3359561 L100.519889,21.38491 L105.318155,44.1513268 L106.425797,44.274904 L106.416041,44.2280748 L101.623629,21.505929 L100.509916,21.3359561 L100.509916,21.3359561 Z" id="path96" fill="#ED652D" fill-rule="nonzero"></path>
                        <polyline id="path98" fill="#ED652D" fill-rule="nonzero" points="83.753277 41.1711643 79.1260685 19.0911215 80.1415698 19.1718369 84.8017323 41.3153377 83.753277 41.1711643"></polyline>
                        <path d="M83.7818949,41.1403784 L79.1692121,19.1290619 L80.1131687,19.2040971 L84.7579383,41.2745789 L83.7818949,41.1403784 Z M79.0829249,19.0530077 L79.0922473,19.0980591 L83.7244424,41.202167 L83.7485074,41.205419 L84.8457431,41.3563133 L84.8355534,41.3081832 L80.1701877,19.1393166 L79.0829249,19.0530077 L79.0829249,19.0530077 Z" id="path100" fill="#ED652D" fill-rule="nonzero"></path>
                        <path d="M41.7415708,18.0793491 L45.4725192,35.9655276 L44.4297008,35.8066116 L40.698102,17.9191323 C40.698102,17.9191323 39.9752836,14.1559021 43.4876954,13.436314 C43.4876954,13.436314 40.941354,14.2510132 41.7415708,18.0793491" id="path102" fill="#ED652D" fill-rule="nonzero"></path>
                        <path d="M44.4585355,35.7762593 L40.7317063,17.912173 C40.7249854,17.8766174 40.0999448,14.4151324 43.1666114,13.5494631 C42.5084,13.9219075 41.0829258,15.097062 41.7077496,18.0862868 L45.4287252,35.9239015 L44.4585355,35.7762593 Z M43.4807577,13.4022761 C39.9755004,14.12052 40.6569096,17.887696 40.664064,17.9258098 L44.4006493,35.8371807 L45.51653,36.0069368 L45.5063403,35.9585899 L41.7753919,18.0721513 C40.9905681,14.3180918 43.4731696,13.4770512 43.4981019,13.4690945 L43.4807577,13.4022761 L43.4807577,13.4022761 Z" id="path104" fill="#ED652D" fill-rule="nonzero"></path>
                        <path d="M53.9100258,19.9529101 L57.5869904,37.5826549 L58.630676,37.7476413 L54.9110013,19.9186987 C54.9110013,19.9186987 54.0574512,16.1439779 50.1530611,14.9847584 C50.1530611,14.9847584 53.1091586,16.1281297 53.9100258,19.9529101" id="path106" fill="#ED652D" fill-rule="nonzero"></path>
                        <path d="M57.6158251,37.5523026 L53.9438469,19.9460591 C53.5282371,17.9612136 52.5237927,16.7093546 51.7543618,16.0091487 C51.3179391,15.6115335 50.9051478,15.3415498 50.6096464,15.17394 C54.0555,16.4635009 54.8691585,19.8903193 54.877397,19.9263301 L58.5864484,37.7057985 L57.6158251,37.5523026 Z M50.1628172,14.9517178 L50.1404866,15.0170186 C50.1699716,15.0282923 53.0887792,16.1988505 53.8762046,19.9601079 L57.5581557,37.6127904 L58.6746869,37.789701 L58.6642804,37.7407037 L54.9448225,19.911761 C54.9361504,19.8731269 54.0418415,16.1032408 50.1628172,14.9517178 L50.1628172,14.9517178 Z" id="path108" fill="#ED652D" fill-rule="nonzero"></path>
                        <polyline id="path110" fill="#ED652D" fill-rule="nonzero" points="26.3885088 41.2550667 20.2667746 11.993062 21.3135171 12.1189807 27.4237392 41.3682374 26.3885088 41.2550667"></polyline>
                        <path d="M26.4171267,41.2236304 L20.3103735,12.0331921 L21.2848125,12.1502436 L27.3801619,41.3287795 L26.4171267,41.2236304 Z M20.223154,11.9531704 L20.2329751,12.0002599 L26.3596741,41.2867198 L27.4673164,41.4074786 L27.4575603,41.361083 L21.3422217,12.0875661 L20.223154,11.9531704 L20.223154,11.9531704 Z" id="path112" fill="#ED652D" fill-rule="nonzero"></path>
                        <path d="M36.5567471,42.6269908 C38.3427633,42.3158797 38.7765844,39.1514353 38.2412999,36.5790777 C37.590243,33.4679666 35.4902972,28.6230887 33.1947959,27.7547961 C34.6430344,28.5595657 36.2360967,33.3359341 36.8717606,36.4468284 C37.3964218,39.0141996 37.6047687,42.2428174 36.5567471,42.6269908" id="path114" fill="#ED652D" fill-rule="nonzero"></path>
                        <path d="M36.7741996,42.5368011 C37.1317064,42.2282916 37.3257443,41.4840098 37.3385357,40.3559882 C37.3508934,39.2737118 37.1930614,37.8465031 36.9055817,36.4398907 C36.3260696,33.604552 34.88672,29.1635765 33.4983189,27.9321402 C35.6327362,29.0863949 37.5809205,33.5924111 38.2074787,36.5860153 C38.6311101,38.6217877 38.4210288,40.7180478 37.6847687,41.8024922 C37.4330614,42.1730071 37.1275871,42.4190775 36.7741996,42.5368011 L36.7741996,42.5368011 Z M33.2069368,27.7224925 L33.1781022,27.7847148 C34.631327,28.5925196 36.2211373,33.4352295 36.8381563,36.4539828 C37.3903514,39.1570722 37.534308,42.2317605 36.5448229,42.5946873 L36.5626007,42.6612455 C37.0311102,42.5795111 37.4278581,42.303522 37.7417877,41.841083 C38.3627091,40.9268282 38.7685627,38.9426549 38.2749042,36.57214 C37.6145248,33.4157173 35.4859612,28.5844979 33.2069368,27.7224925 L33.2069368,27.7224925 Z" id="path116" fill="#ED652D" fill-rule="nonzero"></path>
                        <path d="M33.5644436,26.530731 C35.3500262,26.2157175 35.8237389,23.2546336 35.325094,20.8587312 C34.7193487,17.9605416 32.8043352,13.9442815 30.5201076,13.1236419 C31.9581564,13.8783953 33.3721401,17.8545036 33.9627092,20.7507637 C34.4498636,23.1453653 34.6124653,26.1571809 33.5644436,26.530731" id="path118" fill="#ED652D" fill-rule="nonzero"></path>
                        <path d="M33.7914355,26.4381565 C34.145907,26.1404872 34.3457986,25.4449858 34.3737661,24.3995658 C34.4008663,23.3879669 34.2634138,22.0557176 33.9965303,20.7440645 C33.3972891,17.8055497 32.1214084,14.3592408 30.8368556,13.2969102 C31.9917607,13.8721297 32.9242268,15.1837828 33.5219504,16.2291595 C34.3117607,17.6101893 34.9730073,19.3435009 35.2914896,20.8656905 C35.6730614,22.69962 35.4575601,24.6282921 34.7553379,25.66504 C34.4912729,26.0546335 34.1680208,26.3137121 33.7914355,26.4381565 L33.7914355,26.4381565 Z M30.531815,13.0913818 L30.5042811,13.1542978 C31.1501347,13.4931379 31.8497553,14.5283682 32.5274789,16.1474468 C33.0991862,17.5134738 33.6099721,19.1939291 33.9291048,20.7577014 C34.4411916,23.2754466 34.5420046,26.1459072 33.5529531,26.4982107 L33.5705141,26.564769 C34.0667742,26.4771809 34.4847688,26.1875332 34.8123569,25.7036308 C35.524552,24.6525739 35.7441725,22.7026553 35.3589151,20.8517935 C34.7932783,18.1460808 32.921842,13.94994 30.531815,13.0913818 L30.531815,13.0913818 Z" id="path120" fill="#ED652D" fill-rule="nonzero"></path>
                        <polyline id="path122" fill="#ED652D" fill-rule="nonzero" points="108.056366 43.7055816 113.464279 23.2513815 112.573656 23.1581566 107.581352 41.4996196 108.056366 43.7055816"></polyline>
                        <path d="M107.616908,41.5004868 L112.599238,23.1954466 L113.420485,23.281517 L108.059835,43.5575057 L107.616908,41.5004868 Z M112.548073,23.1206498 L112.540485,23.1490509 L107.545797,41.4985355 L107.547531,41.506774 L108.022762,43.712736 L108.089753,43.7144705 L113.507856,23.2214628 L112.548073,23.1206498 L112.548073,23.1206498 Z" id="path124" fill="#ED652D" fill-rule="nonzero"></path>
                        <polyline id="path126" fill="#ED652D" fill-rule="nonzero" points="87.3456889 30.4700263 92.0160411 20.6491269 91.0720844 20.5563138 86.2105127 30.3189152 96.1114339 42.888671 97.1505667 43.0304596 87.3456889 30.4700263"></polyline>
                        <path d="M86.2512716,30.3145792 L91.0924638,20.5929968 L91.9637917,20.6787854 L87.3053637,30.4745792 L87.3183718,30.491273 L97.0712171,42.9847144 L96.1300789,42.8563675 L86.2512716,30.3145792 Z M91.0519218,20.5198911 L91.0412985,20.5408992 L86.1699707,30.3230345 L86.1834125,30.3401618 L96.0930057,42.9211913 L97.2301331,43.0762049 L97.1778837,43.009213 L87.3860141,30.4656903 L92.0682904,20.6194033 L91.0519218,20.5198911 L91.0519218,20.5198911 Z" id="path128" fill="#ED652D" fill-rule="nonzero"></path>
                        <path d="M134.912951,48.5708389 C134.912951,48.5708389 139.839997,49.0866112 140.202707,46.0771804 C140.202707,46.0771804 141.467964,50.8156085 134.912951,48.5708389" id="path130" fill="#ED652D" fill-rule="nonzero"></path>
                        <path d="M135.681731,48.6360963 C137.051921,48.6360963 139.801406,48.3696465 140.207259,46.2701343 C140.285525,46.7182644 140.399129,47.8798904 139.653763,48.5751749 C138.860918,49.3142535 137.356745,49.3305137 135.180701,48.6237386 C135.310566,48.6304595 135.481406,48.6360963 135.681731,48.6360963 Z M140.235877,46.0682915 L140.168235,46.0730612 C139.813763,49.0148497 134.9652,48.5420042 134.916636,48.5365842 L134.901677,48.603576 C137.24314,49.4053104 138.857666,49.4124649 139.701243,48.6252562 C140.664495,47.7261777 140.240213,46.0849853 140.235877,46.0682915 L140.235877,46.0682915 Z" id="path132" fill="#ED652D" fill-rule="nonzero"></path>
                        <path d="M129.925634,24.9283463 C129.925634,24.9283463 134.77268,25.0850942 136.423411,28.2311104 C136.423411,28.2311104 136.237395,23.4629804 129.925634,24.9283463" id="path134" fill="#ED652D" fill-rule="nonzero"></path>
                        <path d="M130.167368,24.9099181 C132.241081,24.4682921 133.848669,24.6690509 134.948723,25.5078584 C136.054848,26.3516525 136.314143,27.6171267 136.37268,28.0667744 C134.883465,25.4727365 131.15165,24.9920861 130.167368,24.9099181 L130.167368,24.9099181 Z M132.140485,24.6128991 C131.468398,24.6128991 130.726934,24.7067745 129.917829,24.8945251 L129.92455,24.9628178 C129.972896,24.9643354 134.770512,25.1553381 136.392842,28.2471538 L136.457883,28.2298096 C136.457232,28.2126822 136.375064,26.5097012 134.991216,25.4536579 C134.257558,24.8936579 133.302978,24.6128991 132.140485,24.6128991 L132.140485,24.6128991 Z" id="path136" fill="#ED652D" fill-rule="nonzero"></path>
                        <path d="M150.057882,27.5928448 C150.057882,27.5928448 154.904061,27.7465576 156.553709,30.8943082 C156.553709,30.8943082 156.218316,26.1571809 150.057882,27.5928448" id="path138" fill="#ED652D" fill-rule="nonzero"></path>
                        <path d="M150.299834,27.5741999 C152.302218,27.14775 153.877286,27.3452568 154.983411,28.1613001 C156.11295,28.9944708 156.418641,30.2532242 156.495389,30.7171808 C155.002706,28.1331158 151.282815,27.6559343 150.299834,27.5741999 Z M152.204007,27.2865034 C151.549048,27.2865034 150.830349,27.3771267 150.049861,27.5590237 L150.056798,27.6273164 C150.104928,27.628834 154.901893,27.8168015 156.52314,30.9103515 L156.58818,30.8917065 C156.58688,30.8745792 156.449644,29.1570724 155.024386,28.1057988 C154.284874,27.5601077 153.340484,27.2865034 152.204007,27.2865034 L152.204007,27.2865034 Z" id="path140" fill="#ED652D" fill-rule="nonzero"></path>
                        <path d="M167.108722,29.7511104 C167.108722,29.7511104 172.727367,30.4953922 174.623952,34.1844978 C174.623952,34.1844978 174.419508,28.5695386 167.108722,29.7511104" id="path142" fill="#ED652D" fill-rule="nonzero"></path>
                        <path d="M167.331595,29.7517608 C169.72444,29.4016253 171.58612,29.7578312 172.867855,30.8093217 C174.222868,31.9208664 174.51425,33.5052566 174.574521,34.0184273 C173.564657,32.1951211 171.631432,31.1293217 170.167801,30.5521944 C168.915985,30.0589694 167.790782,29.8313272 167.331595,29.7517608 L167.331595,29.7517608 Z M169.01463,29.5527364 C168.419074,29.5527364 167.781893,29.6073705 167.103302,29.7168556 L167.104386,29.7853651 C167.160104,29.7927364 172.726717,30.5697553 174.593383,34.2003243 L174.658424,34.183197 C174.657557,34.1626008 174.564548,32.1118691 172.911649,30.7557716 C171.935389,29.9549044 170.629156,29.5527364 169.01463,29.5527364 L169.01463,29.5527364 Z" id="path144" fill="#ED652D" fill-rule="nonzero"></path>
                        <path d="M186.277285,43.0157171 C188.542218,39.9371264 191.850835,37.8874787 196.00173,35.5208663 C191.772787,38.838373 190.112949,40.8626548 186.277285,43.0157171" id="path146" fill="#FFFFFF"></path>
                        <polyline id="path148" fill="#A0ABB5" fill-rule="nonzero" points="185.471215 21.0917935 186.656472 21.0917935 186.656472 18.0082164 187.129751 18.0082164 187.129751 21.0917935 188.315442 21.0917935 188.315442 21.5110889 185.471215 21.5110889 185.471215 21.0917935"></polyline>
                        <path d="M191.637502,18.0082164 L191.637502,20.0773979 C191.637502,20.1791214 191.646391,20.6237393 191.646391,20.9502867 L191.637502,20.9502867 L190.651703,18.0082164 L190.183627,18.0082164 L189.198478,20.9450401 L189.188288,20.9450401 C189.188288,20.6237393 189.198478,20.1791214 189.198478,20.0773979 L189.198478,18.0082164 L188.739291,18.0082164 L188.739291,21.5110889 L189.417014,21.5110889 L190.41799,18.5493762 L190.426879,18.5493762 L191.422868,21.5110889 L192.096039,21.5110889 L192.096039,18.0082164 L191.637502,18.0082164" id="path150" fill="#A0ABB5" fill-rule="nonzero"></path>
                    </g>
                </g>
            </g>
        </g>
    </g>
</svg>