<?xml version="1.0" encoding="UTF-8"?>
<svg width="200px" height="200px" viewBox="0 0 200 200" version="1.1" xmlns="http://www.w3.org/2000/svg" xmlns:xlink="http://www.w3.org/1999/xlink">
    <!-- Generator: Sketch 54.1 (76490) - https://sketchapp.com -->
    <title>buffalo</title>
    <desc>Created with Sketch.</desc>
    <g id="buffalo" stroke="none" stroke-width="1" fill="none" fill-rule="evenodd">
        <g id="buffalo_BGL" transform="translate(0.000000, 0.000000)" fill="#186BBE">
            <g id="buffalo" transform="translate(0.000000, 3.000000)">
                <g id="g10" transform="translate(99.979099, 97.342531) scale(-1, 1) rotate(-180.000000) translate(-99.979099, -97.342531) translate(0.000000, 0.122053)" fill-rule="nonzero">
                    <g id="g12">
                        <path d="M99.9710738,11.8955065 L99.946497,11.8955065 L99.946497,11.8955065 C92.4009172,11.8955065 85.4346478,9.38603111 79.8132477,5.14942516 C80.4626103,2.98099888 82.9294859,0.120363132 87.8438432,0.0100574794 C92.8397887,-0.101946246 97.1397259,0.894461838 99.946497,0.914511158 L99.9710738,0.914511158 C102.777678,0.894461838 107.077782,-0.101946246 112.07356,0.0100574794 C116.988085,0.120363132 119.454793,2.98099888 120.104156,5.14942516 C114.482756,9.38603111 107.516654,11.8955065 99.9710738,11.8955065 L99.9710738,11.8955065" id="path14"></path>
                        <path d="M144.782943,106.163759 C131.838659,96.3515963 123.245472,85.9524325 112.001168,90.5536445 C122.646267,89.7228818 130.293163,100.517782 142.660143,109.034396 C153.980184,116.830091 160.869547,118.104908 169.613371,115.957865 C164.512932,116.561753 154.07381,113.206768 144.782943,106.163759 Z M55.1346277,106.163759 C45.8437606,113.206768 35.4044714,116.561753 30.3036983,115.957865 C39.0480241,118.104908 45.9373865,116.830091 57.2572608,109.034396 C69.6242407,100.517782 77.271137,89.7228818 87.916236,90.5536445 C76.6719312,85.9524325 68.0787444,96.3515963 55.1346277,106.163759 Z M178.720163,123.610613 C186.982649,128.471136 199.468334,139.35264 199.906369,158.39264 C200.454749,182.267916 181.400204,194.887351 164.079912,194.425909 C167.194144,192.876066 174.363214,187.880455 176.36614,178.220267 C178.763632,166.654625 173.169484,154.858429 160.609233,151.157697 C156.370989,149.908795 152.40543,149.672389 147.347792,149.860978 C150.4759,146.474396 152.705033,140.046308 153.475273,133.18286 C150.240999,141.138053 144.327854,149.642629 139.735336,150.333455 C135.336089,150.870968 132.628795,151.175587 127.040331,151.38892 C114.286476,151.875607 103.84936,151.636527 99.9587018,147.47636 C96.0680436,151.636527 85.6309278,151.875607 72.8770724,151.38892 C67.2886086,151.175587 64.5814822,150.870968 60.1820675,150.333455 C55.5895493,149.642629 49.6764042,141.138053 46.4422977,133.18286 C47.2123708,140.046308 49.4416707,146.474396 52.5696121,149.860978 C47.5119737,149.672389 43.5464148,149.908795 39.3080032,151.157697 C26.7482543,154.858429 21.1534373,166.654625 23.5510966,178.220267 C25.5543567,187.880455 32.7240953,192.876066 35.8374913,194.425909 C18.5165304,194.887351 -0.53650657,182.267916 0.0115595567,158.39264 C0.448799153,139.35264 12.9340352,128.471136 21.1967393,123.610613 C18.1249734,123.115734 6.88297579,119.986622 1.42639746,124.585326 C4.82333948,109.642965 21.2142941,96.5179495 37.3492154,96.2365702 C36.1812321,93.2637803 33.8882332,77.7242196 37.253416,68.1802282 C40.6185988,58.636404 63.0413359,52.8399569 67.7933525,39.3544818 C71.7334987,41.6606886 76.4853481,42.9079195 79.6532477,43.4782016 C78.9154421,54.2254532 76.2661632,64.8844289 72.1033211,73.7546481 C71.1267694,75.8358184 70.0756513,77.8026313 68.9573232,79.6637807 C68.6236137,79.6445539 68.2900714,79.6241568 67.9515135,79.6241568 C58.4297582,79.6241568 50.7108033,87.4422549 50.7108033,97.0865597 C50.7108033,98.2608962 50.8251607,99.4079808 51.0435097,100.517281 C72.8127046,89.8810427 81.7864138,62.953896 82.6536238,40.9660178 C78.4986396,40.6884838 68.1787235,38.1478778 64.8103641,32.9213785 C61.4418375,27.6948791 64.5515553,19.6831761 67.0319732,15.5720289 C69.988713,10.6716988 74.6467693,7.30283785 77.3910116,7.30283785 C77.4990158,7.30283785 77.6616908,7.31452437 77.8119939,7.33124329 C81.851116,10.4309632 86.5446164,12.696309 91.6443864,13.8917113 C90.8763196,15.6807018 89.4929967,18.4192263 87.5776781,20.4338553 C82.6892351,25.8223609 76.0655362,25.2321833 74.4326,19.3387665 C73.2428822,21.0257048 72.2364036,27.6137924 75.396111,29.8661644 C78.809277,32.298599 88.1681901,30.5439491 93.8457657,14.3381731 C95.8308022,14.6758784 97.8668314,14.8597865 99.946497,14.8597865 L99.9587018,14.8848648 L99.9710738,14.8597865 C102.050572,14.8597865 104.086601,14.6758784 106.071805,14.3381731 C111.749214,30.5439491 121.108294,32.298599 124.521293,29.8661644 C127.681,27.6137924 126.674689,21.0257048 125.484971,19.3387665 C123.851867,25.2321833 117.228336,25.8223609 112.339726,20.4338553 C110.424407,18.4192263 109.041251,15.6807018 108.273184,13.8917113 C113.372787,12.696309 118.066288,10.4309632 122.10541,7.33124329 C122.25588,7.31452437 122.418388,7.30283785 122.526392,7.30283785 C125.270634,7.30283785 129.928691,10.6716988 132.88543,15.5720289 C135.365848,19.6831761 138.475566,27.6948791 135.107207,32.9213785 C131.738847,38.1478778 121.418764,40.6884838 117.263947,40.9660178 C118.13099,62.953896 127.104866,89.8810427 148.873894,100.517281 C149.092243,99.4079808 149.2066,98.2608962 149.2066,97.0865597 C149.2066,87.4422549 141.487645,79.6241568 131.96589,79.6241568 C131.627499,79.6241568 131.293957,79.6445539 130.960248,79.6637807 C129.841919,77.8026313 128.790801,75.8358184 127.814082,73.7546481 C123.651408,64.8844289 121.002129,54.2254532 120.264156,43.4782016 C123.432055,42.9079195 128.183905,41.6606886 132.123884,39.3544818 C136.876068,52.8399569 159.298972,58.636404 162.663988,68.1802282 C166.02917,77.7242196 163.736506,93.2637803 162.568188,96.2365702 C178.703444,96.5179495 195.094666,109.642965 198.491949,124.585326 C193.034896,119.986622 181.793099,123.115734 178.720163,123.610613 L178.720163,123.610613 Z" id="path16"></path>
                        <path d="M176.770737,85.8260376 L176.770737,91.3650134 L177.870842,91.3650134 L179.184948,87.445933 C179.305325,87.0811263 179.393935,86.8077721 179.449107,86.6265391 C179.512639,86.828002 179.611281,87.1230908 179.745032,87.5131431 L181.075858,91.3650134 L182.062273,91.3650134 L182.062273,85.8260376 L181.355063,85.8260376 L181.355063,90.4652015 L179.740016,85.8260376 L179.079619,85.8260376 L177.477947,90.5429444 L177.477947,85.8260376 L176.770737,85.8260376 Z M173.478784,85.8260376 L173.478784,90.7126414 L171.65475,90.7126414 L171.65475,91.3650134 L176.035105,91.3650134 L176.035105,90.7126414 L174.2094,90.7126414 L174.2094,85.8260376 L173.478784,85.8260376 L173.478784,85.8260376 Z" id="path18"></path>
                    </g>
                </g>
            </g>
        </g>
    </g>
</svg>