<?xml version="1.0" encoding="UTF-8"?>
<svg width="200px" height="200px" viewBox="0 0 200 200" version="1.1" xmlns="http://www.w3.org/2000/svg" xmlns:xlink="http://www.w3.org/1999/xlink">
    <!-- Generator: Sketch 54.1 (76490) - https://sketchapp.com -->
    <title>butler</title>
    <desc>Created with Sketch.</desc>
    <g id="butler" stroke="none" stroke-width="1" fill="none" fill-rule="evenodd">
        <g id="butler_BGL">
            <g id="butler" transform="translate(0.000000, 3.000000)">
                <g id="g10" transform="translate(99.999998, 96.858641) scale(-1, 1) rotate(-180.000000) translate(-99.999998, -96.858641) translate(0.000000, 0.000005)" fill-rule="nonzero">
                    <g id="g12">
                        <path d="M187.77661,171.588128 C180.984289,174.731235 179.710292,176.064568 179.710292,179.993015 C179.710292,188.198948 172.470153,193.717273 165.724603,193.717273 C152.563347,193.717273 143.756017,188.08551 137.936122,184.356016 C136.854621,183.654446 135.671899,182.902264 134.69162,182.3438 C132.143801,183.511339 128.633156,184.56544 124.279927,184.56544 C113.419369,184.56544 107.20087,180.762648 103.085512,178.246069 C102.022161,177.600345 100.42286,176.616051 99.9921441,176.616051 C99.5795787,176.616051 97.9755647,177.600345 96.9174496,178.246069 C92.7973799,180.762648 86.5881305,184.56544 75.7136107,184.56544 C71.3603822,184.56544 67.849911,183.511339 65.3064556,182.3438 C64.3167523,182.902264 63.1436284,183.654446 62.0530525,184.356016 C56.2286199,188.08551 47.4390913,193.717273 34.2731231,193.717273 C27.518673,193.717273 20.2916225,188.198948 20.2916225,179.993015 C20.2916225,176.064568 19.008551,174.731235 12.2170852,171.588128 C7.64848148,169.475388 0,165.928443 0,157.221811 C0,151.039787 2.64895281,146.920241 4.76623025,143.611515 C7.51561936,139.340311 10.6361777,134.482894 10.6361777,120.107327 L10.6361777,116.074517 L13.5324604,113.279055 C13.7065791,113.118671 14.068778,112.779927 14.6004359,112.36265 C12.6159683,106.313435 8.89479908,92.598078 12.1532807,82.5874325 L12.5381149,81.3865599 L13.2301916,80.3326332 C16.1902788,75.8052337 19.0499123,66.9973805 21.1396155,60.5544487 C23.0232106,54.7342046 24.1232106,51.4441523 25.5617795,49.1617789 C23.4722507,41.1331578 25.2502611,34.2041876 31.1294931,27.4219888 C46.8890041,9.21991251 60.5820229,0 71.8183228,0 C75.4066299,0 78.7427554,1.09947641 81.4921446,3.15186729 C83.3986018,2.31940657 85.236298,1.89701566 86.9776593,1.89701566 C89.7547971,1.89701566 92.0780082,2.71207672 93.759858,3.54623028 C95.7212891,2.97904007 97.8157044,2.69455491 99.9921441,2.69455491 C102.177833,2.69455491 104.272074,2.97904007 106.242929,3.54623028 C107.915355,2.71207672 110.238741,1.89701566 113.015879,1.89701566 C114.775564,1.89701566 116.608549,2.31940657 118.496681,3.15186729 C121.24607,1.09947641 124.600869,0 128.17504,0 C139.39319,0 153.076785,9.21991251 168.868582,27.4219888 C174.743451,34.2041876 176.521811,41.1331578 174.431584,49.1617789 C175.879577,51.4441523 176.970327,54.7342046 178.858634,60.5361241 C180.930187,66.9790559 183.797552,75.7959841 186.767884,80.3237327 L187.455493,81.3865599 L187.849908,82.5874325 C191.102962,92.598078 187.382194,106.309247 185.375214,112.36265 C185.916226,112.779927 186.291444,113.118671 186.446767,113.270329 L189.352526,116.074517 L189.352526,120.107327 C189.352526,134.482894 192.486906,139.340311 195.226871,143.611515 C197.354271,146.920241 199.993014,151.039787 199.993014,157.221811 C199.993014,165.928443 192.340309,169.475388 187.77661,171.588128" id="path14" fill="#7B7979"></path>
                        <path d="M186.731234,169.342579 C180.132631,172.403661 177.226872,174.337517 177.226872,179.993015 C177.226872,186.729489 171.269804,191.242578 165.724603,191.242578 C153.287431,191.242578 145.185686,186.059332 139.273993,182.270502 C137.661253,181.233852 136.00244,180.16579 134.728269,179.570676 C132.400346,180.799297 128.87155,182.090746 124.279927,182.090746 C114.115878,182.090746 108.483767,178.64921 104.373121,176.134376 C102.054448,174.722509 101.013959,174.14031 99.9921441,174.14031 C98.9794042,174.14031 97.93909,174.722509 95.6204165,176.134376 C91.5097708,178.64921 85.8870834,182.090746 75.7136107,182.090746 C71.1266998,182.090746 67.5979041,180.799297 65.2698064,179.570676 C64.000522,180.16579 62.3369967,181.233852 60.7195447,182.270502 C54.807852,186.059332 46.7150076,191.242578 34.2731231,191.242578 C28.719022,191.242578 22.7617795,186.729489 22.7617795,179.993015 C22.7617795,174.337517 19.865619,172.403661 13.2574517,169.342579 C8.70240816,167.234725 2.4749214,164.342753 2.4749214,157.221811 C2.4749214,151.768583 4.79821978,148.148164 6.85113421,144.958635 C9.63712018,140.609595 13.1110991,135.206977 13.1110991,120.107327 L13.1110991,117.133156 L15.2555843,115.057065 C15.5122509,114.814482 16.3095109,114.090573 17.5469455,113.306803 C16.185654,109.461777 11.0899299,93.8307132 14.4995459,83.3479909 L14.7881846,82.4682353 L15.3015179,81.6797536 C18.4357762,76.88656 21.3549733,67.8865603 23.4858633,61.3150072 C25.6031407,54.7984279 26.67068,51.6455484 28.2656188,49.6291436 L28.1553222,49.253751 C25.992495,41.7746935 27.5369976,35.3408368 32.9994756,29.0354268 C43.5071542,16.909284 58.7626512,2.45547987 71.8183228,2.45547987 C76.1856874,2.45547987 79.2012197,4.25303654 81.1438025,6.07677123 C83.2246052,4.94942396 85.1813242,4.38045364 86.9776593,4.38045364 C89.8003468,4.38045364 92.0827202,5.38047107 93.4986015,6.23214644 C95.5101198,5.51830702 97.6965072,5.16926689 99.9921441,5.16926689 C102.306455,5.16926689 104.483243,5.51830702 106.495111,6.23214644 C107.910818,5.38047107 110.183767,4.38045364 113.015879,4.38045364 C114.812214,4.38045364 116.773645,4.94942396 118.863173,6.07677123 C120.78813,4.25303654 123.812388,2.45547987 128.17504,2.45547987 C141.217274,2.45547987 156.486384,16.909284 166.9986,29.0354268 C172.470153,35.3502609 174.000868,41.7746935 171.838041,49.253751 L171.727744,49.6291436 C173.331584,51.6366479 174.385685,54.7984279 176.502613,61.2966826 C178.619542,67.8773107 181.544498,76.877485 184.687604,81.6797536 L185.209419,82.4682353 L185.493887,83.357066 C188.904009,93.8214636 183.816749,109.452877 182.441531,113.306803 C183.68935,114.090573 184.485161,114.814482 184.73298,115.057065 L186.897028,117.123732 L186.897028,120.107327 C186.897028,135.216052 190.361252,140.609595 193.146592,144.958635 C195.200693,148.148164 197.528791,151.768583 197.528791,157.221811 C197.528791,164.352177 191.286208,167.234725 186.731234,169.342579" id="path16" fill="#FFFFFF"></path>
                        <path d="M186.043625,167.848512 C179.535772,170.854621 175.577657,173.182544 175.577657,179.993015 C175.577657,185.734725 170.490921,189.593363 165.724603,189.593363 C153.773644,189.593363 145.90052,184.56195 140.163347,180.881322 C138.091969,179.553224 136.102789,178.282718 134.617972,177.738215 C132.501218,178.989524 128.990747,180.441531 124.279927,180.441531 C114.573819,180.441531 109.180102,177.143102 105.234552,174.731235 C102.833331,173.260554 101.513436,172.490921 99.9921441,172.490921 C98.4890028,172.490921 97.1600325,173.260554 94.7636975,174.731235 C90.8176243,177.143102 85.4239071,180.441531 75.7136107,180.441531 C71.0116911,180.441531 67.506281,178.989524 65.375391,177.738215 C63.8813248,178.282718 61.9015691,179.553224 59.8301905,180.881322 C54.0977299,184.56195 46.2340303,189.593363 34.2731231,189.593363 C29.5167532,189.593363 24.4164043,185.734725 24.4164043,179.993015 C24.4164043,173.182544 20.4661426,170.854621 13.9542405,167.848512 C9.57331564,165.823207 4.12425819,163.293539 4.12425819,157.221811 C4.12425819,152.24956 6.213944,148.995633 8.23966821,145.843277 C11.1495111,141.320066 14.7605057,135.692841 14.7605057,120.107327 L14.7605057,117.829491 L16.4009245,116.253226 C16.6163521,116.047292 17.7528791,114.988653 19.5722508,114.049212 L19.3479925,113.430364 C18.6422334,111.537694 12.5517449,94.6647446 16.0711165,83.861429 L16.2911689,83.182895 L16.6854097,82.5874325 C19.948167,77.6104693 22.8993013,68.4914468 25.0624776,61.8284452 C27.4272244,54.551133 28.3984286,51.7280964 30.1033151,50.0509586 L29.7410115,48.7952867 C27.7246066,41.8113428 29.1130883,36.046596 34.2547984,30.1164041 C44.5291437,18.256544 59.3811503,4.10647459 71.8183228,4.10647459 C76.0345531,4.10647459 78.9900504,6.02966826 80.8600329,8.15710276 C83.4535756,6.52534015 85.488305,6.02966826 86.9776593,6.02966826 C89.8787063,6.02966826 92.1240815,7.24087242 93.3013938,8.06460713 C95.2080255,7.27748673 97.4214635,6.8184815 99.9921441,6.8184815 C102.581498,6.8184815 104.785512,7.27748673 106.692144,8.06460713 C107.865268,7.24087242 110.119543,6.02966826 113.015879,6.02966826 C114.518845,6.02966826 116.553575,6.52534015 119.138217,8.15710276 C121.007676,6.02966826 123.968234,4.10647459 128.17504,4.10647459 C140.584639,4.10647459 155.469106,18.256544 165.742928,30.1164041 C170.894062,36.046596 172.277657,41.8207668 170.252526,48.7952867 L169.894935,50.0415345 C171.599821,51.7280964 172.580449,54.5329829 174.935423,61.8095971 C177.080275,68.4731222 180.050606,77.6015687 183.312386,82.5874325 L183.706802,83.182895 L183.917971,83.861429 C187.436295,94.6647446 181.342055,111.542406 180.64572,113.430364 L180.417098,114.0445 C182.240833,114.988653 183.385685,116.037868 183.588128,116.243976 L185.237343,117.829491 L185.237343,120.107327 C185.237343,135.692841 188.848163,141.320066 191.753922,145.843277 C193.788826,148.995633 195.877831,152.24956 195.877831,157.221811 C195.877831,163.293539 190.424079,165.823207 186.043625,167.848512" id="path18" fill="#0A0F25"></path>
                        <path d="M67.8225114,126.715355 C66.3514818,127.971026 64.7382183,127.494238 64.7382183,127.494238 C64.7382183,127.494238 59.569283,125.436646 59.569283,119.699473 C59.569283,115.432981 62.7771363,110.359858 68.3767871,110.359858 C75.8144833,110.359858 77.5329824,116.523557 77.5329824,119.245721 L76.9233838,119.86422 C76.9233838,115.739962 74.4809755,113.334029 71.9788813,112.307676 C71.7816736,112.22984 71.5204171,112.550433 71.685513,112.687955 C72.3635235,113.187606 72.8219877,114.003139 72.8219877,114.919718 C72.8219877,116.455145 71.5757399,117.706105 70.0450244,117.706105 C68.5006964,117.706105 67.2544486,116.455145 67.2544486,114.919718 C67.2544486,113.563522 68.2258273,112.44066 69.5087243,112.188653 C69.7104695,112.14258 69.6738202,111.721289 69.5087243,111.721289 C69.3806265,111.711865 69.2476422,111.702964 69.1144834,111.702964 C66.0853387,111.702964 61.4890037,113.801393 61.4890037,119.085163 C61.4890037,125.399997 67.8225114,126.715355 67.8225114,126.715355" id="path20" fill="#FFFFFF"></path>
                        <path d="M64.9352514,54.386037 C64.9352514,56.2926687 63.0474679,57.8504349 63.0474679,60.9574156 C63.0474679,64.0827209 63.8263509,70.0769616 71.932808,75.1820226 C71.1903996,84.1087239 82.2668391,93.4366469 86.1249542,91.0465946 C86.1249542,91.0465946 84.8420572,86.8764376 87.532284,83.0731218 C92.2886539,83.0731218 102.691271,89.5530519 97.7785316,97.3408353 C95.020242,98.1382174 93.837694,101.731237 92.6097708,103.747641 C92.6097708,103.747641 89.7682351,101.643977 86.8951113,101.643977 C86.8951113,101.643977 88.0315859,99.1600324 90.1855126,99.1600324 C92.3347272,99.1600324 94.1677114,97.368584 87.6467692,97.368584 C79.6502598,97.368584 79.5860364,100.869631 79.7553209,104.168933 C72.2951116,99.4078509 65.4764382,99.7378684 65.4764382,99.7378684 C61.4069793,89.0670135 54.6431051,77.2804518 54.6431051,77.2804518 C54.6431051,77.2804518 56.3019183,67.93211 61.6312376,60.1602079 L61.0399636,59.6746931 C61.0399636,59.6746931 47.9111681,72.5973804 49.9687597,82.3212894 C49.9687597,82.3212894 44.313786,79.5537502 42.9937162,75.3561936 L34.8921457,47.3106445 C33.4575908,42.3612555 34.1951126,38.3656186 38.3059327,33.6270498 C42.4071543,28.888481 59.4820229,9.47643955 71.8183228,9.47643955 C76.5568916,9.47643955 78.0322843,13.6561951 78.0322843,13.6561951 C78.0322843,13.6561951 61.3197192,30.4469451 61.3197192,37.9713778 C61.3197192,47.1181489 64.9352514,51.7008713 64.9352514,54.386037" id="path22" fill="#FFFFFF"></path>
                        <path d="M80.7497362,65.8790559 C74.2931919,65.8790559 73.0876072,71.0300157 73.0876072,71.0300157 C73.0876072,71.0300157 68.1891781,66.6584626 68.1891781,62.7998239 C68.1891781,58.9410107 71.8827207,55.3668398 78.1514815,55.3668398 C85.7219874,55.3668398 89.9748669,64.0279216 99.9921441,64.0279216 C110.032633,64.0279216 114.280451,55.3668398 121.842056,55.3668398 C128.110817,55.3668398 131.80436,58.9410107 131.80436,62.7998239 C131.80436,66.6584626 126.891794,71.0300157 126.891794,71.0300157 C126.891794,71.0300157 125.709595,65.8790559 119.24799,65.8790559 C113.327397,65.8790559 107.608549,69.9577644 99.9921441,69.9577644 C92.3942385,69.9577644 86.6614289,65.8790559 80.7497362,65.8790559" id="path24" fill="#FFFFFF"></path>
                        <path d="M75.9195443,76.6940644 C75.9195443,71.3322844 77.8445007,68.9404869 81.2448496,68.9404869 C83.8842911,68.9404869 86.6155301,71.2956352 86.6155301,73.7429301 C86.6155301,78.0506089 81.7256524,79.5537502 83.013785,87.1696313 C83.013785,87.1696313 75.9195443,83.5497361 75.9195443,76.6940644" id="path26" fill="#FFFFFF"></path>
                        <path d="M128.019369,112.307676 C125.517274,113.334029 123.06073,115.739962 123.06073,119.86422 L122.455843,119.245721 C122.455843,116.523557 124.188479,110.359858 131.630189,110.359858 C137.230363,110.359858 140.428792,115.432981 140.428792,119.699473 C140.428792,125.436646 135.259508,127.494238 135.259508,127.494238 C135.259508,127.494238 133.646768,127.971026 132.161951,126.715355 C132.161951,126.715355 138.513435,125.399997 138.513435,119.085163 C138.513435,113.801393 133.912213,111.702964 130.86963,111.702964 C130.750433,111.702964 130.622335,111.711865 130.484813,111.721289 C130.328967,111.721289 130.282894,112.14258 130.484813,112.188653 C131.76771,112.44066 132.730189,113.563522 132.730189,114.919718 C132.730189,116.455145 131.492841,117.706105 129.962126,117.706105 C128.431759,117.706105 127.166663,116.455145 127.166663,114.919718 C127.166663,114.003139 127.625128,113.187606 128.312562,112.687955 C128.468409,112.550433 128.22059,112.22984 128.019369,112.307676" id="path28" fill="#FFFFFF"></path>
                        <path d="M157.008548,75.3561936 C155.689176,79.5537502 150.024778,82.3212894 150.024778,82.3212894 C152.087082,72.5973804 138.953574,59.6746931 138.953574,59.6746931 L138.375738,60.1602079 C143.700869,67.93211 145.350433,77.2804518 145.350433,77.2804518 C145.350433,77.2804518 138.595983,89.0670135 134.526524,99.7378684 C134.526524,99.7378684 127.698426,99.4078509 120.238217,104.168933 C120.393889,100.869631 120.34799,97.368584 112.356018,97.368584 C105.825826,97.368584 107.663523,99.1600324 109.803313,99.1600324 C111.971376,99.1600324 113.107327,101.643977 113.107327,101.643977 C110.22984,101.643977 107.388479,103.747641 107.388479,103.747641 C106.165093,101.731237 104.969107,98.1382174 102.214832,97.3408353 C97.3111669,89.5530519 107.704709,83.0731218 112.465966,83.0731218 C115.160381,86.8764376 113.877484,91.0465946 113.877484,91.0465946 C117.726699,93.4366469 128.807152,84.1087239 128.056018,75.1820226 C136.176436,70.0769616 136.94607,64.0827209 136.94607,60.9574156 C136.94607,57.8504349 135.058286,56.2926687 135.058286,54.386037 C135.058286,51.7008713 138.669106,47.1181489 138.669106,37.9713778 C138.669106,30.4469451 121.970154,13.6561951 121.970154,13.6561951 C121.970154,13.6561951 123.44607,9.47643955 128.17504,9.47643955 C140.511515,9.47643955 157.586383,28.888481 161.692317,33.6270498 C165.807151,38.3656186 166.540659,42.3612555 165.092492,47.3106445 L157.008548,75.3561936" id="path30" fill="#FFFFFF"></path>
                        <path d="M118.743976,68.9404869 C122.162475,68.9404869 124.078182,71.3322844 124.078182,76.6940644 C124.078182,83.5497361 116.993714,87.1696313 116.993714,87.1696313 C118.258287,79.5537502 113.382371,78.0506089 113.382371,73.7429301 C113.382371,71.2956352 116.113784,68.9404869 118.743976,68.9404869" id="path32" fill="#FFFFFF"></path>
                        <path d="M108.781673,75.7685845 C108.181149,75.7685845 106.664395,73.4862111 105.596856,72.9638725 C105.010294,72.9638725 103.759334,76.6668393 103.099125,76.6668393 C102.439264,76.6668393 100.913086,73.5598585 99.9921441,73.5598585 C99.0755647,73.5598585 97.5542733,76.6668393 96.8945875,76.6668393 C96.230015,76.6668393 94.9832437,72.9638725 94.3924933,72.9638725 C93.3338546,73.4862111 91.8212892,75.7685845 91.2116906,75.7685845 C90.5472927,75.7685845 88.7923189,70.5167522 88.7923189,70.5167522 C88.7923189,70.5167522 92.980975,71.433157 99.9921441,71.433157 C107.012737,71.433157 111.201219,70.5167522 111.201219,70.5167522 C111.201219,70.5167522 109.455146,75.7685845 108.781673,75.7685845" id="path34" fill="#FFFFFF"></path>
                        <path d="M129.550084,51.1233844 C116.241882,47.6132623 108.300172,62.3872585 99.9921441,62.3872585 C91.6931914,62.3872585 83.7514813,47.6132623 70.4575899,51.1233844 C70.4575899,51.1233844 66.5209407,44.3959849 66.5209407,37.8794057 C66.5209407,29.5575909 81.5427554,11.3839613 86.9776593,11.3839613 C89.0719,11.3839613 90.5839419,12.7208025 90.5839419,12.7208025 C90.5839419,12.7208025 85.4150066,20.1174515 84.6727728,24.1043624 L85.226874,24.4158807 C88.3202421,20.8050606 90.7125632,12.1710643 99.9921441,12.1710643 C109.285687,12.1710643 111.678008,20.8050606 114.775564,24.4158807 L115.307152,24.1043624 C114.573819,20.1174515 109.413784,12.7208025 109.413784,12.7208025 C109.413784,12.7208025 110.926175,11.3839613 113.015879,11.3839613 C118.450782,11.3839613 133.472597,29.5575909 133.472597,37.8794057 C133.472597,44.3959849 129.550084,51.1233844 129.550084,51.1233844" id="path36" fill="#FFFFFF"></path>
                        <path d="M120.238217,141.397902 C116.352179,135.834901 117.671899,128.186559 113.602266,129.405232 C113.602266,129.405232 108.575215,132.090747 103.254797,132.787082 C102.920242,132.828269 102.535425,133.364744 102.856367,133.428967 C107.676961,134.611166 111.934203,134.010817 111.934203,134.010817 C113.437693,134.010817 114.775564,146.23682 117.910119,146.23682 C120.907327,146.23682 125.260555,143.533504 132.794587,147.859682 C130.374517,142.401742 122.657589,143.50593 120.238217,141.397902 L120.238217,141.397902 Z M96.738741,132.787082 C91.4183223,132.090747 86.3999978,129.405232 86.3999978,129.405232 C82.3263505,128.186559 83.6413592,135.834901 79.7553209,141.397902 C77.3406612,143.50593 69.6232094,142.401742 67.1989512,147.859682 C74.7375199,143.533504 79.090923,146.23682 82.083244,146.23682 C85.226874,146.23682 86.5558443,134.010817 88.0593346,134.010817 C88.0593346,134.010817 92.3211146,134.611166 97.1417079,133.428967 C97.4670133,133.364744 97.073296,132.828269 96.738741,132.787082 L96.738741,132.787082 Z M174.266488,117.866489 C177.539263,117.866489 179.86736,120.107327 179.86736,120.107327 C179.86736,147.277309 190.516575,147.99668 190.516575,157.221811 C190.516575,164.090746 170.215877,162.537518 170.215877,179.993015 C170.215877,182.626522 167.741008,184.235597 165.724603,184.235597 C148.430188,184.235597 141.015354,172.105755 133.362824,172.105755 C133.362824,172.105755 130.154971,175.083765 124.279927,175.083765 C110.165617,175.083765 107.374866,167.133853 99.9921441,167.133853 C92.6280954,167.133853 89.8415335,175.083765 75.7136107,175.083765 C69.8385672,175.083765 66.640138,172.105755 66.640138,172.105755 C58.987084,172.105755 51.5727736,184.235597 34.2731231,184.235597 C32.2661423,184.235597 29.7732977,182.626522 29.7732977,179.993015 C29.7732977,162.537518 9.48134357,164.090746 9.48134357,157.221811 C9.48134357,147.99668 20.1268756,147.277309 20.1268756,120.107327 C20.1268756,120.107327 22.4455492,117.866489 25.7176259,117.866489 C32.1286205,117.866489 40.0656185,124.86422 40.0656185,145.091445 C40.0656185,150.659159 30.8869102,152.923382 30.8869102,161.566139 C30.8869102,170.135249 40.9225121,172.665092 40.9225121,172.665092 C40.9225121,172.665092 37.7652696,162.363347 54.3999986,153.340136 L54.0977299,152.726349 C54.0977299,152.726349 47.0998243,154.614132 43.0167529,150.077309 C43.0167529,150.077309 48.2179744,117.925652 24.3657935,111.551306 C24.3657935,111.551306 18.1287954,94.8617777 21.1713782,85.5291427 C27.4176258,75.9792302 31.8399643,55.4493878 33.9661423,53.77225 L40.6155313,78.6371708 C40.6155313,78.6371708 42.7464213,84.0078513 54.8308887,91.4314113 L58.8312376,102.079404 C61.4483405,107.670154 71.0486893,99.7926677 80.2457223,108.316228 C80.2457223,108.316228 79.5766123,114.365442 95.0155299,115.057065 L92.7973799,117.156193 C90.254099,117.156193 81.2310625,118.324604 81.2310625,118.324604 C81.2310625,118.324604 80.3560189,106.643278 68.5095969,106.643278 C60.7973807,106.643278 56.0588119,113.02251 56.0588119,119.305407 C56.0588119,127.232981 62.0301904,130.445546 62.0301904,130.445546 C62.0301904,130.445546 58.982721,132.443627 54.6431051,133.094412 C54.6431051,133.094412 48.2504351,130.917623 43.0167529,118.324604 L42.3982537,118.631411 C44.0476429,129.441707 46.3390913,138.561253 51.1418835,140.04607 C51.1418835,140.04607 58.0293179,139.858286 66.0305394,138.570677 C67.6343788,138.327571 67.923035,135.656192 67.923035,135.656192 C67.923035,135.656192 74.7010453,125.922335 93.3792298,121.381323 C96.7842908,120.464918 97.4762628,114.938043 97.4762628,114.938043 L102.526524,114.938043 C102.526524,114.938043 103.199997,120.464918 106.618496,121.381323 C125.297205,125.922335 132.070503,135.656192 132.070503,135.656192 C132.070503,135.656192 132.354447,138.327571 133.976436,138.570677 C141.968408,139.858286 148.85148,140.04607 148.85148,140.04607 C153.663347,138.561253 155.936471,129.441707 157.604534,118.631411 L156.990397,118.324604 C151.747815,130.917623 145.350433,133.094412 145.350433,133.094412 C141.015354,132.443627 137.963347,130.445546 137.963347,130.445546 C137.963347,130.445546 143.930014,127.232981 143.930014,119.305407 C143.930014,113.02251 139.200869,106.643278 131.474517,106.643278 C119.642231,106.643278 118.762475,118.324604 118.762475,118.324604 C118.762475,118.324604 109.739613,117.156193 107.191446,117.156193 L104.973296,115.057065 C120.412213,114.365442 119.743103,108.316228 119.743103,108.316228 C128.944674,99.7926677 138.541009,107.670154 141.171201,102.079404 L145.158112,91.4314113 C157.255842,84.0078513 159.382719,78.6371708 159.382719,78.6371708 L166.027221,53.77225 C168.162823,55.4493878 172.580449,75.9792302 178.830711,85.5291427 C181.86387,94.8617777 175.623032,111.551306 175.623032,111.551306 C151.775563,117.925652 156.990397,150.077309 156.990397,150.077309 C152.893713,154.614132 145.90052,152.726349 145.90052,152.726349 L145.598077,153.340136 C162.223556,162.363347 159.079926,172.665092 159.079926,172.665092 C159.079926,172.665092 169.106453,170.135249 169.106453,161.566139 C169.106453,152.923382 159.932631,150.659159 159.932631,145.091445 C159.932631,124.86422 167.869629,117.866489 174.266488,117.866489 L174.266488,117.866489 Z" id="path38" fill="#FFFFFF"></path>
                        <path d="M37.2656186,46.6143095 L43.3926691,67.8221624 L42.6502607,48.9876079 C42.3706796,42.269807 43.8511333,37.7973813 48.071552,32.481151 C54.0382185,24.9748685 59.6331573,18.752181 64.6785324,13.9494063 C57.9057577,17.2757762 49.3729482,24.636125 40.1759152,35.2493883 C36.7893534,39.1535767 36.0008717,42.2420583 37.2656186,46.6143095" id="path40" fill="#C8C7C7"></path>
                        <path d="M26.9638737,108.875215 C26.9638737,108.875215 26.4280971,91.2207656 27.9677131,88.5357744 C29.0949382,86.5375197 31.8813256,80.4979037 33.3336815,76.7488637 C34.1909241,78.2890033 33.9202435,81.7900503 42.5954614,86.3176244 C38.8146587,82.6972056 37.7376954,80.2595093 37.581849,79.8469439 L37.5134371,79.6727729 L37.4537512,79.4895268 L33.402617,64.3027907 C33.3797548,64.3577645 33.3614302,64.4219879 33.3383936,64.4863858 C32.733507,66.3464207 32.0966833,68.3261763 31.4139608,70.3336806 L31.4139608,70.3336806 C29.402268,76.2542738 27.0418841,82.4682353 24.2282716,86.9223364 C22.4820239,93.0607307 25.2319365,103.687956 26.9638737,108.875215" id="path42" fill="#C8C7C7"></path>
                        <path d="M76.6808009,25.3874339 C77.381848,24.4253048 79.1003471,22.0237342 80.46108,20.3099471 C82.9495616,17.1658285 84.4572405,15.4607675 85.9190205,13.8115529 C84.1090729,14.178045 80.0945879,17.3682195 75.864745,22.5280972 C72.3040122,27.4952873 69.5635236,32.8481667 69.5635236,36.3947635 C70.828794,33.8104704 75.9839423,26.3591616 76.6808009,25.3874339" id="path44" fill="#C8C7C7"></path>
                        <path d="M22.3858633,143.130014 C24.2191966,139.454796 25.8870849,134.405058 26.8357759,126.861777 C27.3675386,126.646419 28.0916223,126.449735 28.8610813,126.536646 C31.1572418,126.779578 34.2825471,129.011515 35.6527042,135.073819 C35.5471195,134.038217 35.4006972,132.942929 35.2125646,131.788129 C32.9216397,123.681672 28.6184984,121.170678 25.72705,121.170678 C24.8242577,121.170678 24.0080273,121.482196 23.4078528,121.816402 C23.1376958,138.685162 18.7659681,145.513434 15.5211689,150.526349 C15.0448513,151.28237 14.6506105,152.034202 14.3527047,152.716925 C16.8411863,150.562998 19.5816749,147.662474 22.3858633,143.130014" id="path46" fill="#C8C7C7"></path>
                        <path d="M162.727919,46.6143095 L156.596157,67.8221624 L157.347815,48.9876079 C157.623033,42.269807 156.156366,37.7973813 151.931235,32.481151 C145.955319,24.9748685 140.364569,18.752181 135.323731,13.9494063 C142.087606,17.2757762 150.62949,24.636125 159.822335,35.2493883 C163.213608,39.1535767 164.001392,42.2420583 162.727919,46.6143095" id="path48" fill="#C8C7C7"></path>
                        <path d="M173.066139,108.875215 C173.066139,108.875215 173.616052,91.2207656 172.076435,88.5357744 C170.930537,86.5375197 168.162823,80.4979037 166.705406,76.7488637 C165.853224,78.2890033 166.118669,81.7900503 157.430537,86.3176244 C161.215528,82.6972056 162.278879,80.2595093 162.461776,79.8469439 L162.51675,79.6727729 L162.572073,79.4895268 L166.632282,64.3027907 C166.650432,64.3577645 166.668757,64.4219879 166.687081,64.4863858 C167.301392,66.3464207 167.942753,68.3261763 168.620764,70.3336806 C170.628268,76.2542738 172.983416,82.4682353 175.806278,86.9223364 C177.556715,93.0607307 174.788826,103.687956 173.066139,108.875215" id="path50" fill="#C8C7C7"></path>
                        <path d="M123.317274,25.3874339 C122.611515,24.4253048 120.907327,22.0237342 119.532458,20.3099471 C117.039264,17.1658285 115.545547,15.4607675 114.079229,13.8115529 C115.893714,14.178045 119.890049,17.3682195 124.123906,22.5280972 C127.680102,27.4952873 130.42059,32.8481667 130.42059,36.3947635 C129.164744,33.8104704 124.014308,26.3591616 123.317274,25.3874339" id="path52" fill="#C8C7C7"></path>
                        <path d="M177.60209,143.130014 C175.788826,139.454796 174.120065,134.405058 173.157587,126.861777 C172.617099,126.646419 171.901915,126.449735 171.132282,126.536646 C168.841008,126.779578 165.706279,129.011515 164.340834,135.073819 C164.45113,134.038217 164.597378,132.942929 164.789874,131.788129 C167.081322,123.681672 171.379577,121.170678 174.266488,121.170678 C175.16579,121.170678 175.989524,121.482196 176.575912,121.816402 C176.869106,138.685162 181.232107,145.513434 184.476435,150.526349 C184.961601,151.28237 185.356016,152.034202 185.64921,152.716925 C183.148337,150.562998 180.417098,147.662474 177.60209,143.130014" id="path54" fill="#C8C7C7"></path>
                        <path d="M91.3493869,21.0984288 C93.6176242,17.6335074 95.8082,15.4607675 100.001394,15.4607675 C104.194238,15.4607675 106.375739,17.6335074 108.644151,21.0984288 C108.644151,21.0984288 105.807502,18.8708547 100.088305,18.8708547 C94.3647446,18.8708547 91.3493869,21.0984288 91.3493869,21.0984288" id="path56" fill="#C8C7C7"></path>
                    </g>
                </g>
            </g>
        </g>
    </g>
</svg>