<?xml version="1.0" encoding="UTF-8"?>
<svg width="200px" height="200px" viewBox="0 0 200 200" version="1.1" xmlns="http://www.w3.org/2000/svg" xmlns:xlink="http://www.w3.org/1999/xlink">
    <title>cal-poly_BGL</title>
    <defs>
        <polygon id="path-1" points="0 0 200 0 200 195.378151 0 195.378151"></polygon>
    </defs>
    <g id="cal-poly_BGL" stroke="none" stroke-width="1" fill="none" fill-rule="evenodd">
        <g id="cal-poly" transform="translate(0.000000, 2.000000)">
            <polyline id="Fill-1" fill="#193E30" points="119.813168 188.412744 124.757282 188.412744 124.757282 189.142939 122.697234 189.142939 122.697234 194.497022 121.873215 194.497022 121.873215 189.142939 119.813168 189.142939 119.813168 188.412744"></polyline>
            <g id="Group-5">
                <mask id="mask-2" fill="white">
                    <use xlink:href="#path-1"></use>
                </mask>
                <g id="Clip-3"></g>
                <path d="M130.529493,194.497022 L130.529493,190.911316 C130.529493,190.723668 130.545811,189.95472 130.545811,189.389736 L130.529493,189.389736 L128.816187,194.497022 L128.004406,194.497022 L126.291099,189.397895 L126.274782,189.397895 C126.274782,189.95472 126.291099,190.723668 126.291099,190.911316 L126.291099,194.497022 L125.493595,194.497022 L125.493595,188.412744 L126.668434,188.412744 L128.410296,193.560822 L128.426613,193.560822 L130.158277,188.412744 L131.326997,188.412744 L131.326997,194.497022 L130.529493,194.497022" id="Fill-2" fill="#193E30" mask="url(#mask-2)"></path>
                <path d="M195.404667,54.3444562 C188.253651,45.0722036 175.593538,43.9993473 166.692502,43.9993473 C166.692502,43.9993473 151.423676,43.995268 134.708738,43.995268 C135.92029,38.8410704 137.835523,30.6743086 138.26181,28.5143183 C139.616138,21.6427348 138.090479,15.0974953 133.960186,10.0697561 C128.414375,3.31851187 119.136004,0.0346740638 105.607,0.0346740638 C105.586604,0.0346740638 61.5892959,0 61.5892959,0 C38.0863996,0 24.6573387,10.0473199 18.0447907,32.5752631 L18.0019581,32.7180387 C17.973403,32.8179816 17.9530064,32.9056865 1.55217427,96.314351 C-1.43591417,107.461043 -0.434445623,116.145876 4.6402056,122.758424 C11.6484458,131.89198 23.6089581,132.948519 31.9980419,132.948519 L64.36934,132.981154 C59.98817,147.122053 54.3097822,165.436077 53.8406625,166.949498 C52.5189688,168.913682 34.5985967,195.471975 34.5985967,195.471975 L111.946235,195.50053 C111.946235,195.50053 119.523538,171.104267 122.144489,162.666232 C129.466835,162.686628 140.59313,162.719262 140.59313,162.719262 C165.236192,162.719262 178.051318,153.26956 184.855593,130.101167 L184.914743,129.893122 L198.168394,80.6743086 C199.514563,75.5588643 202.62707,63.7105328 195.404667,54.3444562" id="Fill-4" fill="#193E30" mask="url(#mask-2)"></path>
            </g>
            <path d="M88.8879824,58.101493 C88.8879824,58.101493 91.6170352,65.4993065 92.2595252,67.2452476 C91.810802,68.7709064 88.2924043,80.6967447 88.2924043,80.6967447 L137.990536,80.6967447 C141.284572,80.6967447 141.910745,81.2984417 141.914824,81.302521 C141.99845,81.4391776 142.0576,81.6859754 142.0576,82.1041038 C142.0576,83.1504446 141.684344,85.285959 140.405483,89.5141552 C140.405483,89.5141552 131.596231,119.815208 131.573795,119.898833 C131.469772,120.161948 131.114873,121.073672 131.114873,121.073672 C129.454597,125.379375 129.279187,125.830138 125.242718,125.830138 L76.4032798,125.830138 C76.4032798,125.830138 62.6845884,170.080362 62.3867994,171.049196 C61.8564902,171.836502 52.231378,186.103859 52.231378,186.103859 L105.044056,186.118137 C105.044056,186.118137 113.924696,157.512034 115.24435,153.26956 C119.519458,153.281798 140.619646,153.340948 140.619646,153.340948 C161.024313,153.340948 170.247614,146.569307 175.860733,127.459819 C175.879089,127.384352 189.118463,78.2348862 189.118463,78.2348862 C190.819532,71.7589949 191.849555,65.093416 187.978298,60.0738354 C184.455821,55.5050175 177.692339,53.3776617 166.692502,53.3776617 L92.1881374,53.3654238 L87.1420413,53.3654238 L88.8879824,58.101493" id="Fill-6" fill="#A08E59"></path>
            <path d="M27.0416905,35.2145713 C27.0110957,35.3267521 10.6286204,98.6640287 10.6286204,98.6640287 L10.6347393,98.6415926 C8.39520274,106.993963 8.85820348,112.845721 12.0808518,117.049441 C15.5421392,121.559109 21.6855674,123.570205 31.9980419,123.570205 L76.3482092,123.610998 C95.8901036,123.610998 106.229094,116.568084 111.081423,100.063229 L115.542139,84.9432977 L67.9244513,84.947377 L67.4573713,87.9395447 C67.4451334,88.0190911 66.1499551,96.016562 60.8591009,96.016562 C59.5822795,96.016562 59.1906666,95.753447 59.1865873,95.7493677 C59.0805254,95.4780942 59.1641511,94.4786653 59.4945745,92.8530636 C59.9045443,90.8440075 66.3416823,64.9506405 71.7304397,43.3813331 L71.8242637,42.9958391 C73.0786489,37.7580158 76.5501346,36.5097495 78.5714286,36.9727503 C79.1262136,37.0992086 79.4280819,37.4112752 79.5463817,37.5826059 C79.2220772,38.9960839 76.9703027,48.8006853 76.9703027,48.8006853 L81.3800277,48.8190422 L123.916945,48.8557559 L124.561475,46.1470996 C124.720568,45.4740148 128.489843,29.5953333 129.062984,26.6990291 C129.876805,22.5748552 129.067064,18.8871665 126.717386,16.0255364 C123.060292,11.577058 116.156074,9.4129885 105.607,9.4129885 C105.586604,9.4129885 61.5811373,9.37831443 61.5811373,9.37831443 C42.1820184,9.37831443 32.499796,16.6231541 27.0416905,35.2145713" id="Fill-7" fill="#A08E59"></path>
            <path d="M95.9003019,67.3084768 L95.9553724,67.1208289 L92.1881374,56.8817818 C92.1881374,56.8817818 166.686383,56.8940197 166.692502,56.8940197 C188.520845,56.8940197 188.798238,65.6033287 185.720405,77.319083 C185.716325,77.3313209 172.485111,126.466509 172.485111,126.466509 C167.367627,143.891246 159.610835,149.82255 140.619646,149.82255 C140.615567,149.82255 112.653994,149.747083 112.653994,149.747083 L102.474096,182.601779 L58.8439259,182.589541 L65.5910908,172.587093 L78.9936363,129.346496 L125.242718,129.346496 C132.281553,129.346496 132.744554,126.474668 134.906584,121.024721 C134.910663,121.020641 141.186669,99.0780778 143.770906,90.5339806 C146.67129,80.9435425 146.803867,77.1763074 137.990536,77.1763074 C129.179245,77.1763074 92.9978788,77.1763074 92.9978788,77.1763074 L95.9003019,67.3084768" id="Fill-8" fill="#F4DB8A"></path>
            <path d="M14.0327976,99.5492372 C14.0368769,99.5288407 30.4152729,36.2078812 30.4152729,36.2078812 C35.467488,19.001387 43.6240516,12.8946724 61.5811373,12.8946724 L105.607,12.9313861 C121.501999,12.9313861 127.151832,18.2140817 125.613935,26.0177858 C125.046912,28.8814555 121.138941,45.3332789 121.138941,45.3332789 L81.3820674,45.3026842 C81.3820674,45.3026842 82.7975851,39.2795953 83.0688586,37.9477034 C83.4278372,36.191564 81.7553235,34.0968426 79.3566941,33.5461369 C75.6098556,32.6894836 70.157869,34.8617117 68.3854124,42.2595252 C68.3854124,42.2656441 56.647222,89.2224851 56.0475647,92.1473444 C55.449947,95.0722036 54.6830383,99.5288407 60.8591009,99.5288407 C69.3134535,99.5288407 70.9349759,88.4657747 70.9349759,88.4657747 L110.838704,88.4616954 L107.70784,99.0719589 C103.334829,114.006282 94.2828588,120.0926 76.3482092,120.0926 C76.3461695,120.0926 31.9980419,120.053847 31.9980419,120.053847 C16.0316554,120.053847 9.88006853,115.046504 14.0327976,99.5492372" id="Fill-9" fill="#F4DB8A"></path>
        </g>
    </g>
</svg>