<?xml version="1.0" encoding="UTF-8"?>
<svg width="200px" height="200px" viewBox="0 0 200 200" version="1.1" xmlns="http://www.w3.org/2000/svg" xmlns:xlink="http://www.w3.org/1999/xlink">
    <title>campbell_BGL</title>
    <defs>
        <polygon id="path-1" points="0 0 177.309995 0 177.309995 196.452161 0 196.452161"></polygon>
        <polygon id="path-3" points="-7.97497922e-15 0 149.948651 0 149.948651 99.1531466 -7.97497922e-15 99.1531466"></polygon>
    </defs>
    <g id="campbell_BGL" stroke="none" stroke-width="1" fill="none" fill-rule="evenodd">
        <g id="Campbell-Copy" transform="translate(0.000000, 2.000000)">
            <g id="Group-3">
                <mask id="mask-2" fill="white">
                    <use xlink:href="#path-1"></use>
                </mask>
                <g id="Clip-2"></g>
                <path d="M26.3758958,29.8709826 L26.3758958,29.8709826 C8.87352477,49.5990303 0,73.2071406 0,100.046579 C0,126.97693 8.80618206,150.012627 26.1738677,168.519527 C43.5808365,187.053363 67.5795345,196.452161 97.5021465,196.452161 C120.175316,196.452161 139.337684,189.450764 154.451634,175.647753 C169.831587,161.589961 177.309995,151.390908 177.309995,144.468077 C177.309995,140.150286 174.848619,137.675442 170.5645,137.675442 C167.956093,137.675442 165.514919,139.380335 163.100683,142.884401 C147.612981,165.257895 130.470894,176.602897 112.145819,176.602897 C95.3000398,176.602897 80.9784896,168.876443 69.576246,153.634542 C58.0404393,138.210816 52.1894799,117.027044 52.1894799,90.6713507 C52.1894799,75.2408905 54.2905726,61.8520368 58.4332718,50.8807866 C62.5456668,39.9993266 68.3292834,31.3379313 75.6258663,25.1435242 C82.8079666,19.0445191 91.8363797,15.9512439 102.461937,15.9512439 C116.846341,15.9512439 128.947826,21.7707766 138.439782,33.2437301 C148.197741,45.0432958 155.04425,55.9101648 158.789627,65.5401727 C160.403607,69.5829803 162.733665,71.6301987 165.723682,71.6301987 C167.764166,71.6301987 172.515194,70.860247 172.515194,63.7387552 L172.515194,63.6444754 C172.515194,63.6276397 172.245823,58.0258484 172.245823,58.0258484 C172.225621,57.7632118 169.543136,14.7502988 169.516199,14.3170607 C168.987558,7.41667742 168.335456,5.51761293 167.828141,4.6298115 C166.785452,2.93838703 164.889754,2.08425696 162.189312,2.08425696 C159.643757,2.08425696 157.03086,4.13484256 153.961154,8.53681121 C152.401048,10.715348 150.776967,12.8647029 149.018199,15.0870124 C130.211624,5.07988529 111.460046,-0.00336713563 93.2752689,-0.00336713563 C66.4695022,-0.00336713563 43.9613228,10.0497775 26.3758958,29.8709826" id="Fill-1" fill="#1B1A19" mask="url(#mask-2)"></path>
            </g>
            <path d="M170.5645,138.364582 C168.200771,138.364582 165.943668,139.969584 163.667484,143.273866 C148.04173,165.847143 130.708838,177.292037 112.144697,177.292037 C95.0699522,177.292037 80.5643319,169.471304 69.0240357,154.047578 C57.3973164,138.499268 51.5025843,117.178565 51.5025843,90.6713507 C51.5025843,75.1567121 53.6171455,61.6870472 57.7901489,50.6383528 C61.9429495,39.6468997 67.7939089,30.8901023 75.1802821,24.6193734 C82.4903335,18.41262 91.6669005,15.2654706 102.460815,15.2654706 C117.060715,15.2654706 129.344026,21.1658146 138.9673,32.8037577 C148.775766,44.6628094 155.658191,55.5914093 159.430505,65.2887599 C160.927758,69.0408714 163.042319,70.9410583 165.722559,70.9410583 C167.557648,70.9410583 171.824931,70.2418165 171.824931,63.7387552 L171.824931,63.6613111 C171.824931,63.6613111 171.555561,58.0595197 171.558928,58.0864568 C171.558928,58.0729883 171.555561,58.0494183 168.829303,14.3642006 C168.307397,7.53116003 167.665397,5.73198723 167.235526,4.98223836 C166.320787,3.49620917 164.669768,2.77339738 162.188189,2.77339738 C159.888436,2.77339738 157.453997,4.73082557 154.524589,8.93301084 C152.900507,11.1968484 151.222551,13.422525 149.387462,15.7357472 L149.209004,15.9613453 L148.956469,15.8266599 C130.161117,5.77912713 111.42862,0.685773291 93.2775137,0.685773291 C66.6771422,0.685773291 44.3406868,10.6581067 26.8888228,30.328913 C9.50542389,49.9256424 0.689140426,73.3822316 0.689140426,100.046579 C0.689140426,126.795104 9.43134691,149.675913 26.6766932,168.04925 C43.9467319,186.4383 67.7770732,195.761899 97.5043913,195.761899 C119.999102,195.761899 139.004338,188.825599 153.986969,175.140438 C169.215401,161.219577 176.619733,151.186635 176.619733,144.468077 C176.619733,140.588014 174.414259,138.364582 170.5645,138.364582 M151.815167,172.766607 C137.447599,185.890579 119.171909,192.545162 97.5043913,192.545162 C68.7007907,192.545162 45.6617263,183.563889 29.0247092,165.849388 C12.3562654,148.08887 3.90363258,125.951076 3.90363258,100.046579 C3.90363258,74.1959561 12.4471781,51.4588115 29.2963248,32.463677 C46.1050659,13.5134377 67.6322863,3.90363258 93.2775137,3.90363258 C111.415151,3.90363258 130.124079,9.1182033 148.818416,19.3834775 L148.969937,19.420516 L148.980038,19.4272502 C149.232574,19.5484671 149.451437,19.6057084 149.662445,19.6057084 C149.898144,19.6057084 150.147312,19.5383657 150.406582,19.4014355 L150.486271,19.3374599 C150.486271,19.3374599 150.597386,19.2431801 150.60412,19.239813 L150.725337,19.1556346 C150.725337,19.1556346 150.913897,19.0074807 150.91053,19.0108478 C152.924077,16.5225346 155.026292,13.7547491 157.154321,10.7894249 C160.257698,6.33470451 161.790867,5.99125667 162.188189,5.99125667 C163.394746,5.99125667 164.225306,6.22358903 164.477841,6.64335861 C164.541817,6.76120835 165.113108,7.99582475 165.618178,14.5920435 C165.618178,14.5920435 168.344436,58.2402227 168.344436,58.2503241 C168.344436,58.2503241 168.607072,63.7421223 168.610439,63.758958 C168.600338,67.7265661 166.727088,67.7265661 165.722559,67.7265661 C164.49131,67.7265661 163.3824,66.5087854 162.423889,64.1080177 C158.529235,54.0952787 151.471719,42.873738 141.445511,30.7520497 C131.182482,18.338543 118.065244,12.0442442 102.460815,12.0442442 C90.8834803,12.0442442 81.0043043,15.4495407 73.0993922,22.1647315 C65.2887599,28.7957439 59.124657,37.9913914 54.781052,49.5013833 C50.469996,60.9238298 48.284725,74.7773482 48.284725,90.6713507 C48.284725,117.887908 54.3938314,139.861835 66.448177,155.974702 C78.6271066,172.251435 94.0003255,180.506529 112.144697,180.506529 C131.824482,180.506529 150.053032,168.596971 166.31742,145.10671 C168.320866,142.191893 169.73394,141.582442 170.5645,141.582442 C172.631922,141.582442 173.401873,142.362495 173.401873,144.468077 C173.401873,148.375076 169.656496,156.45508 151.815167,172.766607" id="Fill-4" fill="#E6772F"></path>
            <path d="M198.217663,121.241575 C198.042572,120.59284 195.188363,117.939537 195.188363,117.939537 C195.188363,117.939537 195.426307,118.249314 195.742818,118.726325 L193.920075,117.075306 C194.85165,117.186421 195.874136,117.172953 196.495934,116.728491 C198.57009,115.25593 199.585842,112.855163 198.342247,108.245554 C197.55546,105.312779 194.484632,101.372108 192.467718,99.0050114 C191.499105,97.4516395 190.786395,96.3427295 190.786395,96.3427295 C190.786395,96.3427295 191.926731,95.8645963 192.420578,94.5199868 C192.914424,93.1787444 192.51149,92.7006111 191.526042,91.9845336 C190.537226,91.2684561 187.427116,89.4457134 187.427116,89.4457134 C187.427116,89.4457134 182.185608,83.9853417 179.071007,82.791131 C175.957529,81.5980426 166.297217,77.1523012 159.421526,76.2847025 C152.54808,75.4171039 130.278967,73.507938 130.278967,73.507938 C130.278967,73.507938 126.825408,69.3888088 123.802843,67.3269994 C120.782522,65.2696795 116.681351,62.575971 111.939302,61.8632606 C107.188273,61.143816 101.869321,58.8474295 98.2608744,59.3244404 C94.6535498,59.8025736 90.9743929,61.3795155 88.6005623,63.675902 C86.7912881,65.431302 83.4567014,67.9734894 81.9762841,69.0756651 C79.3779778,65.2999837 74.0882077,61.8161207 63.5838669,66.3393063 C62.4008799,66.8466214 58.4119466,70.4382327 58.4119466,70.4382327 C58.4119466,70.4382327 59.2963809,73.789655 60.126941,76.3318424 C60.6050743,77.8044031 61.9934565,79.606943 63.9677204,80.5149473 C64.710735,80.855028 65.6456763,80.9515525 66.6333694,80.905535 C65.6557777,81.940368 64.2292346,83.5240442 62.6522927,85.5319794 C61.8587711,83.6082225 60.9002598,81.4970285 60.2380565,80.7405454 C56.411868,72.2059789 53.0424876,65.5255818 42.6324266,66.1574809 C36.0586555,66.5570477 28.4971912,70.4820055 22.021067,86.8036343 C15.2789391,93.8409477 13.1239723,99.341725 11.2709253,104.328453 C6.88242524,116.11006 8.55364689,126.191265 9.82530178,130.885052 C9.91509206,132.108444 10.1002845,133.356529 10.3898582,134.630429 C14.6739771,153.38313 43.8199031,167.381435 48.261155,169.418552 C48.3082949,169.762 48.335232,169.953926 48.335232,169.953926 C48.335232,169.953926 48.4059419,169.802405 48.5305259,169.539769 C48.7224526,169.627314 48.8290786,169.674454 48.8290786,169.674454 C48.8290786,169.674454 48.7314316,169.610479 48.5507287,169.495996 C48.5675644,169.458957 48.5844001,169.425286 48.6046029,169.38488 C48.7359212,169.475793 48.8088758,169.5263 48.8088758,169.5263 C48.8088758,169.5263 48.7819387,169.374779 48.7381659,169.099796 C50.2488874,165.932444 55.6419163,154.741208 58.3019535,150.810638 C61.4154316,146.214498 64.4346299,141.618358 68.5369234,138.366827 C72.2149579,135.444153 77.4070811,131.446241 82.0436269,130.13867 C84.3209329,131.287985 87.161673,132.048958 90.7095116,132.162318 C99.7109875,132.448525 115.950683,129.109449 122.537922,126.883772 C125.876999,125.723233 132.716773,125.421313 136.62714,125.343869 C136.778661,125.411211 136.913347,125.475187 137.019973,125.54253 C137.954914,126.140757 141.192976,126.816429 143.785671,128.319294 C146.038284,129.626865 151.152963,131.261048 152.898262,132.084874 C154.414595,132.79534 159.371019,134.721341 163.628201,134.251065 C166.078353,133.978327 167.695701,133.417138 169.649762,132.468728 C172.104404,131.277884 174.208863,128.427043 176.572593,127.03866 C179.071007,125.569467 181.176589,125.300096 183.796221,125.101435 C186.41473,124.902774 192.72362,127.50557 195.190608,127.424759 C196.428591,127.380986 198.442139,126.019541 198.802422,125.081232 C199.44779,123.413378 198.392754,121.886943 198.217663,121.241575" id="Fill-5" fill="#1B1A19"></path>
            <path d="M197.756365,113.212079 L193.990785,109.802293 C193.990785,109.802293 196.37135,109.960548 197.265886,108.376872 C198.160422,106.793196 199.144748,104.109589 198.650901,101.957989 C198.160422,99.8120016 191.777455,89.9002767 191.777455,89.9002767 C191.777455,89.9002767 192.917791,89.4221434 193.411638,88.080901 C193.906607,86.7362915 193.502551,86.2615254 192.517102,85.5420808 C191.532776,84.8260033 188.419298,83.0066276 188.419298,83.0066276 C188.419298,83.0066276 183.176668,77.546256 180.066557,76.3520453 C176.949712,75.1555897 167.2894,70.7098483 160.415953,69.8456168 C153.540263,68.9813854 131.270027,67.0688523 131.270027,67.0688523 C131.270027,67.0688523 127.813102,62.9463559 124.793903,60.8912808 C121.774705,58.8305938 117.672411,56.1368853 112.928117,55.4208078 C108.180456,54.7047303 102.860382,52.4083438 99.2530571,52.8819875 C95.6479772,53.3601208 91.9665756,54.9404298 89.5927449,57.2368163 C87.2222815,59.5332028 82.2254522,63.1887897 82.2254522,63.1887897 C82.2254522,63.1887897 77.6326792,58.2626703 70.5134321,59.937259 C63.3919402,61.6084807 61.2672776,64.1439338 61.2672776,64.1439338 C61.2672776,64.1439338 62.5580129,71.1879816 64.2864759,72.38107 C66.0115717,73.5752807 71.1587997,73.0971475 72.639217,72.6201366 C74.118512,72.1431257 76.7381435,71.9040591 76.7381435,71.9040591 C76.7381435,71.9040591 64.6490042,80.632797 58.1740023,92.3616528 C55.4567239,97.2844051 53.2613515,101.312622 51.5665599,104.604558 C53.6541839,98.7502315 56.3243225,92.0283064 58.1537995,88.3199677 C60.7723087,83.0066276 63.6411082,80.2298631 63.6411082,80.2298631 C63.6411082,80.2298631 59.0135415,63.8173217 43.5235952,64.1540352 C31.3884384,64.4155494 24.9459855,80.8752308 18.112945,88.3233348 C10.1575258,96.9880972 10.9914531,109.569961 10.4964841,114.40629 C10.0026376,119.240374 11.6368208,125.746803 12.6256362,129.388921 C13.6110846,133.029917 22.8572391,144.519706 28.0998692,148.252737 C33.3380099,151.981279 49.8010584,163.083847 49.8010584,163.083847 C49.8010584,163.083847 49.71688,162.583266 49.5788275,161.712301 C49.7337157,162.613571 49.8212612,163.130987 49.8212612,163.130987 C49.8212612,163.130987 55.8529235,148.861066 58.9641568,144.268293 C62.0810021,139.671031 65.4268125,135.179272 69.5257389,131.927741 C73.6269101,128.672843 79.6058207,124.075581 84.6026499,123.356136 C89.5927449,122.643426 93.3515907,124.233836 98.5930985,123.760193 C103.832362,123.278692 109.000915,123.199003 116.609519,121.376261 C124.222613,119.556885 125.873631,118.921619 129.632477,118.685919 C133.395812,118.443485 138.883121,118.524297 138.883121,118.524297 C138.883121,118.524297 150.594019,123.209105 155.34168,125.030725 C160.090464,126.853468 162.211759,127.011723 165.325237,126.534712 C168.442082,126.059946 171.065081,124.163126 173.929391,122.253961 C176.798191,120.343672 179.323542,117.808219 183.176668,118.047286 C187.029794,118.286352 193.657439,120.195518 196.031269,119.957574 C198.408467,119.718507 199.144748,118.854276 199.144748,117.422121 C199.144748,115.985476 197.756365,113.212079 197.756365,113.212079" id="Fill-6" fill="#E6772F"></path>
            <g id="Group-10" transform="translate(50.051349, 64.194460)">
                <mask id="mask-4" fill="white">
                    <use xlink:href="#path-3"></use>
                </mask>
                <g id="Clip-8"></g>
                <path d="M14.4596028,1.12684931 L14.7491765,1.22449625 C16.7997621,3.11682647 18.7134175,4.01136217 25.8382765,1.43213628 C29.96414,2.6970569 31.9316696,4.8991636 31.9316696,4.8991636 C27.5364352,-2.05733862 17.0623986,0.131299544 14.4596028,1.12684931" id="Fill-7" fill="#1B1A19" mask="url(#mask-4)"></path>
                <path d="M149.158497,50.6057851 C148.981161,49.9570503 146.129197,47.3071145 146.129197,47.3071145 C146.129197,47.3071145 146.169603,47.3609887 146.240312,47.4552685 C145.906966,47.1185549 145.466994,46.7189882 144.989983,46.4395159 C145.876662,46.5472643 146.835173,46.5236943 147.43789,46.0971905 C149.512046,44.6212627 150.524431,42.2227397 149.283081,37.6097639 C148.079891,33.1449421 141.583564,26.32537 141.583564,26.32537 C141.583564,26.32537 148.184272,33.5512431 147.595023,38.861216 C147.404219,40.5896789 147.6691,41.9309213 146.331225,43.1711496 C145.672389,43.7839683 144.061776,44.331689 143.46916,44.5202486 C144.11565,43.3866463 145.163951,41.3966691 144.532052,36.9172563 C143.839545,32.018074 140.402822,26.8338075 140.402822,26.8338075 C140.402822,26.8338075 141.902319,30.8081499 142.134652,31.3794406 C142.366984,31.9507313 143.298558,35.2830732 143.268254,37.2438685 C143.244684,39.2035414 142.636355,40.9286373 142.141386,42.1497851 C141.644172,43.3731777 139.626136,46.0029107 136.876308,47.1017193 C134.121991,48.1982831 131.724591,47.5697511 129.175669,46.9445863 C126.630115,46.3160543 120.934043,43.024118 119.171909,42.0757081 C117.410897,41.1239311 114.400678,39.2338457 112.067253,38.6423522 C109.868513,38.0811629 107.975061,37.4346729 105.279107,37.3785539 C100.258708,37.280907 97.1216602,38.5783766 95.1574978,41.4830923 C94.0912382,43.0611565 93.3953635,44.5370843 93.9139023,46.1173933 L93.7590141,46.1274947 C93.7590141,46.1274947 95.0329138,49.9402146 100.137491,52.1120171 C103.419326,53.5048889 106.509234,53.9650641 108.16362,54.1031166 C111.266997,54.3623861 114.370374,53.591312 116.757673,52.8224827 C118.954168,52.1120171 121.791541,50.2331554 124.434742,49.7583893 C126.159838,49.4497352 127.676171,49.3891267 128.970274,49.4227981 C131.005146,50.0816343 134.239841,50.7977118 136.519392,50.347638 C136.785396,50.2937638 137.050277,50.2095854 137.316281,50.1153056 C137.944813,50.1893826 138.584568,50.2769282 139.223202,50.3745751 C141.536424,50.7202677 144.996717,50.5182395 144.996717,50.5182395 C144.996717,50.5182395 144.619598,50.4318164 144.058409,50.2937638 C144.11565,50.2870296 144.149321,50.2802953 144.149321,50.2802953 C144.149321,50.2802953 144.112283,49.5002422 144.112283,48.8234479 C144.112283,47.8761605 144.213297,47.8088177 144.589294,47.4822056 C145.086507,47.0456003 145.981043,47.4451671 146.469278,47.7751464 C147.07424,48.6461121 148.271818,50.5451766 148.244881,51.9649855 C148.204475,53.86405 147.09781,54.4387078 146.10226,54.5733932 C145.110077,54.7080787 143.566807,54.4286064 141.989865,54.1973964 C140.412923,53.9650641 137.174861,52.7484057 134.010876,52.8112589 C131.119629,52.8752345 129.391166,53.110934 126.771534,54.2681063 C123.94763,55.518436 122.531188,57.851861 119.208948,59.1403515 C117.070816,59.9709116 115.773347,60.3469085 113.460125,60.5624051 C109.558737,60.9283005 104.979432,59.4490056 103.557379,58.9652605 C101.660559,58.3266271 98.3888256,57.5263712 96.4022156,56.4735801 C94.4245846,55.4241562 90.7398158,54.0930152 89.2156258,53.3163293 C87.6858238,52.5362762 85.3187274,51.2747227 84.3871533,49.0355775 C83.6643415,47.2970131 84.1357405,44.8928783 84.2434888,44.2643463 C84.34787,43.6358143 86.6947635,42.1295823 86.6947635,42.1295823 C86.6947635,42.1295823 81.6002873,43.8412096 81.3376507,47.7212722 C81.3140808,48.0871676 81.3174479,48.4306155 81.3376507,48.7662066 C78.6080261,48.9345634 75.3969011,49.5743192 71.0555409,50.2129526 C65.5513965,51.026677 61.49961,52.2029297 61.49961,52.2029297 C61.49961,52.2029297 65.5581308,52.0379401 72.8412452,51.3420654 C77.5990078,50.8852573 80.9953253,51.5238907 82.5520643,51.9313141 C82.6025714,52.002024 82.6497113,52.0716115 82.7069526,52.1423213 C83.2681418,52.8550317 84.0852334,53.3432663 84.9225278,53.715896 C81.9628156,53.6463086 77.6158435,53.6552876 74.3811485,54.1468894 C71.9871151,54.492582 68.3113254,55.6632228 66.9128417,55.9022894 C63.7219195,56.446643 58.3524605,58.0740919 52.3937528,58.2626515 C28.2412889,59.0292361 23.8460546,43.2149224 23.8460546,43.2149224 C23.8460546,43.2149224 23.5778061,53.2456194 31.2200816,58.4646796 C27.4511344,60.2795657 21.7112906,63.6321105 15.8872683,69.2743074 C1.79580567,82.9325319 -7.97497922e-15,99.1531466 -7.97497922e-15,99.1531466 C-7.97497922e-15,99.1531466 3.86659409,84.7822118 20.1781215,71.1105187 C29.6532411,63.1685681 35.6489873,61.4805108 37.8409926,61.1202273 C39.0116335,61.3424582 40.2754317,61.4872451 41.6503454,61.5310178 C50.6518213,61.8127348 66.8926389,58.4770258 73.4765114,56.247982 C76.8189547,55.088565 83.6542401,54.7855228 87.5657293,54.7080787 C87.7194952,54.7754214 87.8541806,54.8393969 87.9619289,54.9101068 C88.8935031,55.5049674 92.1349323,56.1806393 94.7309939,57.6846266 C96.9802405,58.9921976 102.091552,60.6297479 103.839096,61.4502066 C105.356552,62.1595498 110.311853,64.0866738 114.565668,63.6152748 C117.016942,63.3425368 118.637657,62.7847147 120.591718,61.8329377 C123.042993,60.6432164 125.147452,57.7946197 127.514549,56.4028703 C130.012963,54.9336767 132.117423,54.6643059 134.737055,54.4656449 C137.356686,54.2681063 143.664454,56.8709021 146.129197,56.7867237 C147.370548,56.7463181 149.380728,55.3871177 149.744378,54.4454421 C150.386379,52.7787099 149.333588,51.2511527 149.158497,50.6057851" id="Fill-9" fill="#1B1A19" mask="url(#mask-4)"></path>
            </g>
            <path d="M97.322566,78.0255117 C97.8837553,80.9616539 100.489918,84.4185799 105.517052,84.7743739 C109.700157,84.7103983 114.860853,82.7843967 118.159524,77.2723957 C114.860853,81.0997065 110.842738,83.3253832 106.609126,83.3624216 C100.436044,83.4028273 98.6772769,79.7910131 97.322566,78.0255117" id="Fill-11" fill="#1B1A19"></path>
            <path d="M120.897005,70.9320793 C122.531188,69.8029664 122.998098,68.8882279 122.898206,68.9286336 C120.991285,69.6514453 119.951962,70.5594496 116.703799,71.0937018 C113.455635,71.6245868 110.825902,71.9006919 107.79997,70.6930126 C104.774037,69.4864557 103.102815,67.1664992 100.893975,66.4133832 C99.3641726,65.8881101 97.4168458,64.530032 89.9115005,67.1900692 C96.4516002,66.0194284 97.0632965,66.6816317 100.10382,69.2541233 C99.4786552,71.073499 98.6705426,74.7257187 101.084779,77.2634166 C102.211647,78.4407917 104.293659,79.9268209 108.099645,79.755097 C109.125499,79.7090795 111.629525,78.5687429 114.370374,76.9244583 C116.868788,75.4249606 119.958696,72.0488459 120.897005,70.9320793" id="Fill-12" fill="#1B1A19"></path>
            <path d="M16.5225346,127.427003 C12.0711812,109.988608 20.9817445,99.7334351 20.9817445,99.7334351 C20.9817445,99.7334351 11.486422,108.586757 10.7826907,121.051893 C10.4942394,117.854237 10.3965925,113.6846 11.0183902,109.186107 C11.7883419,103.620232 13.944431,97.5616326 17.4911472,92.2213555 C20.9043004,86.6296656 23.0592672,84.5757129 26.2737594,81.5396789 C30.8609205,70.3158934 38.1698495,65.5109909 44.1083544,65.2348858 C50.7191641,64.9318436 56.0785216,67.8208459 59.1897549,73.1027594 C61.0517809,75.2846633 62.4682227,77.5586022 63.4390801,79.3499183 C62.3739429,80.7225873 61.2437077,82.2759592 60.1404096,83.9808522 C58.9136498,85.8832839 57.6094459,88.0158031 56.3007526,90.3054553 C56.0325041,86.9663792 54.7574821,85.2783218 54.2366984,82.6283861 C53.5273552,78.9974915 48.7157184,71.886101 48.7157184,71.886101 C48.7157184,71.886101 53.8225407,79.514908 53.3387956,92.7769329 C53.2916557,94.037364 53.1940087,95.2282076 53.0660576,96.3236491 C51.0188391,100.392271 49.0950823,104.757201 47.5922174,109.165904 C44.6325052,117.837401 43.9938718,133.190417 44.9692188,140.739535 C45.0163587,131.276762 47.7471057,116.865421 51.4756472,106.915535 C55.0908285,97.2585904 59.969808,91.8116873 64.4110599,85.8395111 C71.0050339,76.9727206 77.9076619,71.7716184 77.9076619,71.7716184 L77.2117872,71.5493875 C77.9716375,71.4753105 77.8246059,71.7480485 77.9379661,71.68744 C77.8683787,69.4853333 77.7370604,69.1721897 73.8424068,71.0387052 C72.2789335,71.785087 69.0274029,72.3765804 67.0374257,72.2115908 C64.3942242,71.983748 64.1854618,70.107131 63.7656923,69.0240357 C63.3212304,67.871353 62.0641664,65.0766304 62.4974045,64.7230812 C63.27858,64.0844478 63.5097899,63.3784717 65.042959,62.7196355 C80.2691464,56.1728014 85.3389303,68.3753009 85.3389303,68.3753009 C85.3389303,68.3753009 85.0168076,66.2697188 83.7586213,63.9329267 C84.7474368,62.6287228 88.062943,58.4489851 91.223561,56.6296095 C95.2282076,54.3197544 100.023009,53.4386873 105.329615,55.2580629 C109.438642,56.666648 118.452464,62.030495 118.452464,62.030495 C118.452464,62.030495 116.771141,59.9350143 113.029131,56.8484733 C113.516244,56.9191831 114.209874,57.0302986 115.190832,57.1919211 C118.150545,57.6857677 121.203414,58.9203841 123.526738,60.3626405 C127.921972,63.0821637 130.587621,66.5256211 130.934436,66.9902858 C128.849057,66.9869187 127.598727,67.0071215 127.598727,67.0071215 C127.598727,67.0071215 149.165231,69.4045221 151.126026,69.5885921 C156.471915,70.107131 165.198408,71.5931602 167.752942,72.6291156 C170.311965,73.6673158 177.57151,76.1017548 179.928504,77.3969797 C182.285499,78.6910821 185.386631,81.9055743 187.030916,83.405072 C189.706666,85.8428782 191.286975,89.5658079 191.286975,89.5658079 C191.286975,89.5658079 191.172493,86.8552637 190.255509,84.1660447 C191.032195,84.7474368 192.67648,86.0550078 192.995236,86.9024036 C193.416127,88.0158031 192.252221,89.8172207 192.252221,89.8172207 L193.284809,90.1202629 C193.284809,90.1202629 194.518303,88.3850656 194.263523,86.8013895 C194.048027,85.5039199 191.196063,84.3534819 190.194901,83.9875865 C189.774009,82.8034771 189.199351,81.6362034 188.40583,80.7192202 C186.89623,78.9671873 182.733328,75.5001599 180.20461,74.4574703 C177.665789,73.4192701 174.774542,71.488779 166.032336,69.5223718 C155.971334,67.2551672 138.284893,66.9936529 130.944538,66.9902858 C130.651597,66.5054183 128.35521,62.7667754 124.84441,59.5354475 C122.958814,57.8002503 120.234802,55.9741404 118.265027,55.3557098 C117.790261,55.2041887 117.350289,55.086339 116.932764,54.9954263 C116.936131,54.9898144 116.942865,54.9864473 116.946232,54.979713 C117.8273,53.4891943 116.196484,49.1893621 113.305236,47.7269029 C115.177364,49.9963523 114.383842,52.323043 113.775513,53.7114253 C113.311971,51.8348083 112.326522,48.9031556 110.033503,46.4384123 C108.443093,44.7301521 107.528354,43.9568333 106.374549,43.1296403 C107.47448,44.4619037 107.228679,45.2711386 107.924554,46.7616573 C108.886432,48.3756377 106.660755,49.1725264 107.397036,50.7764054 C105.830195,47.8672002 105.191562,44.8345333 100.299114,42.6829337 C96.4493555,41.8591078 94.5458015,41.5089257 91.2067253,41.2092506 C94.3404062,42.2553074 97.7501922,43.8659207 99.1688787,45.3889883 C99.5426307,46.0893526 101.852486,49.3206804 101.680762,49.3229251 C98.8568575,46.2902583 93.9442066,45.1914497 88.0595759,44.8345333 C90.9171516,45.9176286 93.1304821,47.0635771 94.3707104,48.2039137 C95.0800536,48.8560157 94.8342527,49.5451561 94.9083297,50.294905 C94.4515217,49.1691593 93.3212865,48.83918 90.5815604,48.8694842 C89.1797096,48.8863199 87.360334,48.765103 84.9966048,49.1657921 C91.098977,49.9222753 90.7499172,52.2119275 91.2437638,53.0727919 C89.7981402,52.6653684 89.1022655,51.3005561 87.5690964,51.4049373 C85.5510598,51.5396228 84.1694118,52.050305 82.3500362,52.7158755 C83.8596353,52.7259769 85.175063,52.7259769 86.3243786,53.0997289 C87.6083797,53.8158065 87.6252154,54.8786989 88.0461073,55.5072309 C87.2088129,55.0695033 86.5971166,54.3231216 85.0976189,54.2894502 C83.3186489,54.5150483 82.4005432,54.5689225 80.7764615,55.2445943 C84.2401217,55.086339 84.7373354,56.8282705 85.332196,57.9349357 C84.777741,57.6150578 84.0448278,57.1851868 83.2412048,57.0606028 C82.0065884,56.865309 80.0199783,57.4904738 79.1254426,58.1201282 C80.2220065,57.8473902 81.7888469,58.140331 82.4645188,58.8160029 C82.9718339,59.323318 83.1132536,60.0663326 83.049278,61.226872 C82.7967429,61.458082 82.5722671,61.6702115 82.3803404,61.8486697 C79.5990864,58.4085795 74.3407429,55.6924234 64.5726824,59.8979758 C63.3919402,60.4064133 59.4041292,63.9969022 59.4041292,63.9969022 C59.4041292,63.9969022 60.0304165,67.2922056 60.8576094,69.8310259 C61.3413546,71.3035866 62.9856392,73.1667349 64.9621478,74.0713721 C65.7029176,74.4103304 66.6367366,74.5079773 67.6255521,74.4642045 C66.646838,75.5001599 65.2214172,77.0804689 63.6444754,79.0917713 C62.8509537,77.1680145 61.8924425,75.0568204 61.2302391,74.3003373 C57.4074178,65.7657708 54.0346703,59.0853737 43.6212421,59.7172728 C37.047471,60.1134725 29.4916186,64.040675 23.0121273,80.3623038 C16.2711218,87.3996173 14.1183997,92.9015169 12.2619856,97.8871224 C7.87460787,109.666485 9.54919666,119.751056 10.8129949,124.444844 C10.9072747,125.664869 11.0924672,126.916321 11.3820408,128.190221 C16.0219537,148.49966 49.8818697,163.455355 49.8818697,163.455355 C49.8818697,163.455355 21.0019473,144.982126 16.5225346,127.427003" id="Fill-13" fill="#1B1A19"></path>
            <path d="M191.476657,90.7566515 C191.517063,90.7768543 191.550734,90.0069026 191.550734,90.0069026 C182.077859,85.9450147 176.381788,83.7698451 168.746247,83.2445719 C175.390728,85.2154686 182.360699,86.9360749 191.476657,90.7566515" id="Fill-14" fill="#1B1A19"></path>
            <path d="M182.056534,83.2737537 C179.337011,81.8180288 174.800357,79.8673349 172.138075,79.5575584 C169.626192,79.2724742 167.127777,78.4082427 165.382479,78.9492292 C164.498044,79.2253343 162.634896,80.7349335 162.477763,82.6182847 C161.3913,82.2916725 158.515767,81.5116194 155.850118,81.5116194 C147.726342,81.5116194 141.088595,80.1064015 141.088595,80.1064015 C141.088595,80.1064015 149.148395,82.5172706 155.22832,83.2434495 C158.865949,83.6800548 162.050137,84.7429473 163.536166,85.2974023 C165.825818,87.7352085 172.268271,90.1528118 187.450685,91.084386 C187.981571,91.1180574 189.85482,91.1113231 190.412642,91.1416273 C178.021583,88.1426319 169.98872,86.6027285 167.279298,84.9685453 C163.579939,82.2209627 166.885343,79.8774363 171.646473,80.5800452 C181.683905,82.0728087 191.875102,90.2369902 191.875102,90.2369902 C191.942444,90.1595461 185.601006,85.1728182 182.056534,83.2737537" id="Fill-15" fill="#1B1A19"></path>
            <path d="M175.083196,112.087456 C174.53772,112.02797 173.976531,111.960627 173.395139,111.889917 C173.196478,111.607078 173.071894,111.219857 173.206579,110.712542 C174.117951,111.209756 174.948511,111.667686 175.637651,112.044805 C175.43899,112.04705 175.25492,112.063886 175.083196,112.087456" id="Fill-16" fill="#FFFFFE"></path>
            <path d="M173.15495,110.684483 C172.913639,110.990892 172.651002,111.437599 172.240211,111.747375 C170.428692,111.51841 168.44096,111.249039 166.252322,110.930283 C166.063762,110.718154 165.871836,110.455517 165.774189,110.160332 C166.100801,109.2961 166.584546,108.431869 167.283788,107.560903 C169.278254,108.580023 171.369246,109.712503 173.15495,110.684483" id="Fill-17" fill="#FFFFFE"></path>
            <path d="M166.768616,107.299389 C166.008766,108.264634 165.503695,109.22539 165.168104,110.183902 C164.976178,110.369094 164.747212,110.540818 164.468862,110.665402 C162.858249,110.422968 161.146622,110.156965 159.323879,109.868513 C159.195928,109.723727 159.06461,109.55537 158.964718,109.363443 C159.596617,107.63498 160.37667,106.007531 161.27794,104.838013 C162.561941,105.251048 164.579978,106.192724 166.768616,107.299389" id="Fill-18" fill="#FFFFFE"></path>
            <path d="M160.35759,104.622516 C160.455237,104.632617 160.573086,104.65282 160.694303,104.679757 C159.877212,105.803258 159.163379,107.245515 158.575253,108.778684 C158.327207,109.068257 158.024165,109.387013 157.593171,109.589041 C155.859097,109.306202 154.032987,109.004282 152.105863,108.67767 C151.998114,108.590124 151.903835,108.482376 151.837614,108.358914 C152.445943,106.734832 153.219262,105.167992 154.147469,103.943477 C156.514566,103.96368 158.854725,104.484463 160.35759,104.622516" id="Fill-19" fill="#FFFFFE"></path>
            <path d="M148.626489,105.474401 C149.984567,104.409264 151.699562,104.022044 153.44486,103.954701 C152.577262,105.191562 151.85445,106.685448 151.285404,108.218617 C151.133883,108.343201 150.993586,108.420645 150.848799,108.466663 C149.553574,108.245554 148.219066,108.016589 146.837418,107.774155 C147.176376,106.943595 147.752156,106.160175 148.626489,105.474401" id="Fill-20" fill="#FFFFFE"></path>
            <path d="M147.149439,112.663236 C147.019243,112.488145 146.904761,112.293973 146.800379,112.095312 C146.810481,112.088578 146.813848,112.081844 146.813848,112.07511 C146.42326,110.813556 146.315512,109.522821 146.655593,108.319631 C147.735321,108.503701 148.793724,108.688894 149.819578,108.863985 C150.156291,109.072747 150.555858,109.44201 150.670341,110.094111 C150.149557,111.896651 149.849882,113.628481 149.779172,114.946154 C148.586084,114.203139 147.748789,113.470226 147.149439,112.663236" id="Fill-21" fill="#FFFFFE"></path>
            <path d="M150.244959,115.225626 L150.329138,115.228993 C150.366176,113.852957 150.715236,111.873081 151.338156,109.841576 C151.515492,109.617101 151.727621,109.384768 151.973422,109.22988 C153.664847,109.516086 155.278827,109.784335 156.822097,110.03687 C157.098203,110.20186 157.588682,110.460007 157.86142,110.877532 C157.165545,113.177285 156.744653,115.456836 156.653741,116.997862 C154.391025,116.866544 152.067702,116.25148 150.524431,115.387249 C150.426784,115.333374 150.339239,115.2795 150.244959,115.225626" id="Fill-22" fill="#FFFFFE"></path>
            <path d="M157.216052,117.024799 C157.303598,115.498364 157.746937,113.148103 158.476483,110.806822 C158.607802,110.619385 158.772791,110.461129 158.978187,110.383685 C160.688691,110.65979 162.302672,110.907836 163.830229,111.140168 C164.098477,111.295056 164.482331,111.520655 164.733744,111.852879 C164.468862,113.325439 164.482331,114.775552 164.441925,116.194239 C162.22635,116.832872 159.56968,117.088775 157.216052,117.024799" id="Fill-23" fill="#FFFFFE"></path>
            <path d="M165.780923,115.737431 C165.535122,115.838445 165.276975,115.929357 165.014338,116.016903 C165.04801,114.685762 165.051377,113.377069 165.266874,112.079599 C165.410538,111.806861 165.612566,111.558815 165.881937,111.4477 C167.768655,111.722683 169.509464,111.965116 171.120078,112.173879 C171.278333,112.251323 171.957372,112.412946 172.189704,112.950565 C170.058308,113.771024 167.81804,114.913605 165.780923,115.737431" id="Fill-24" fill="#FFFFFE"></path>
            <path d="M192.23763,114.029171 C191.380133,113.817041 190.492331,113.5993 189.843597,113.430943 C190.005219,113.185142 190.199391,112.97638 190.41152,112.815879 C191.43064,112.583547 192.291504,112.287239 193.132166,111.958382 C193.105229,112.859652 192.744945,113.427576 192.23763,114.029171" id="Fill-25" fill="#FFFFFE"></path>
            <path d="M190.76058,112.150309 C191.630423,111.37699 192.344256,110.573367 192.780861,109.977384 C192.912179,110.448783 193.030029,110.959465 193.090638,111.363522 C192.347623,111.663197 191.607976,111.931445 190.76058,112.150309" id="Fill-26" fill="#FFFFFE"></path>
            <path d="M107.49356,78.239886 C105.412671,78.4520155 103.478812,77.3958573 102.378881,76.7471225 C99.5751797,75.0860023 99.8703653,71.3327684 100.250852,69.3764626 C100.493285,69.5818579 100.748065,69.7962322 101.02417,70.0218303 C102.516934,71.2497124 105.16687,73.1790811 107.170315,73.804246 C107.190518,74.658376 107.264595,75.8290169 107.389179,76.1107339 C107.698956,76.8110981 108.334222,77.412693 109.057034,77.7853227 C108.58339,78.0142879 108.061484,78.1826447 107.49356,78.239886" id="Fill-27" fill="#FFFFFE"></path>
            <path d="M156.162139,181.96001 L156.162139,178.338094 L154.880383,178.338094 L154.880383,177.598447 L158.32384,177.598447 L158.32384,178.338094 L157.038716,178.338094 L157.038716,181.96001 L156.162139,181.96001 Z M159.702121,181.96001 L159.705488,178.530021 L160.559618,181.96001 L161.407014,181.96001 L162.271245,178.530021 L162.274612,181.96001 L163.091704,181.96001 L163.091704,177.598447 L161.767297,177.598447 L160.990611,180.573872 L160.203824,177.598447 L158.885029,177.598447 L158.885029,181.96001 L159.702121,181.96001 L159.702121,181.96001 Z" id="Fill-28" fill="#1B1A19"></path>
        </g>
    </g>
</svg>