<?xml version="1.0" encoding="UTF-8"?>
<svg width="200px" height="200px" viewBox="0 0 200 200" version="1.1" xmlns="http://www.w3.org/2000/svg" xmlns:xlink="http://www.w3.org/1999/xlink">
    <!-- Generator: Sketch 54.1 (76490) - https://sketchapp.com -->
    <title>central-conn-st</title>
    <desc>Created with Sketch.</desc>
    <g id="central-conn-st" stroke="none" stroke-width="1" fill="none" fill-rule="evenodd">
        <g id="central-conn-st_BGL">
            <g id="central-conn-st" transform="translate(0.000000, 9.000000)">
                <g id="g10" transform="translate(99.789030, 90.652603) scale(-1, 1) rotate(-180.000000) translate(-99.789030, -90.652603) translate(0.000000, 0.146274)" fill-rule="nonzero">
                    <g id="g12">
                        <path d="M156.903512,101.535862 C159.566241,94.7521777 163.454286,92.7105462 164.608153,92.2334717 L163.578618,95.3175785 L165.507169,96.55921 C162.375242,98.9023885 158.773554,100.464695 156.903512,101.535862" id="path14" fill="#FFFFFF"></path>
                        <path d="M85.0846674,81.478479 L96.7251734,81.478479 L94.1406446,74.1822766 L111.898169,74.1822766 C113.706326,79.3158911 114.918703,82.8669459 115.07679,85.1898713 C115.453724,92.6430357 105.147677,92.738113 99.9246107,92.738113 L77.974119,92.738113 L70.8286902,72.5698997 L61.1831208,72.5698997 C61.1032334,72.3549912 61.0239085,72.1389574 60.9417706,71.9172978 L55.5210675,56.946834 C53.6201393,52.1949917 52.6905191,48.4447245 52.5316443,45.9344011 C52.0653152,38.6651467 62.272291,38.5596615 67.4801671,38.5596615 L99.206186,38.5596615 L103.193246,49.8105754 L73.688887,49.8105754 C76.8939503,60.9052024 80.0044987,69.8576635 85.0846674,81.478479" id="path16" fill="#FFFFFF"></path>
                        <path d="M68.5209547,92.7302368 L39.0130511,92.7302368 C42.2200271,103.82672 45.3318132,112.780307 50.4109692,124.40506 L62.0528817,124.40506 L59.4666652,117.102107 L77.2253145,117.102107 C79.033472,122.236846 80.2441611,125.787339 80.4028109,128.109701 C80.7797448,135.565116 70.4742598,135.658506 65.2511939,135.658506 L30.6577208,135.658506 L34.7085786,131.002528 C31.2796617,128.199716 29.8024184,124.40506 26.2664972,114.837691 L20.8472006,99.8694771 C18.9462724,95.1172972 18.015977,91.3687741 17.8566522,88.8551314 C17.3918983,81.5864959 27.5986491,81.4818545 32.8065815,81.4818545 L64.5333317,81.4818545 L68.5209547,92.7302368" id="path18" fill="#FFFFFF"></path>
                        <path d="M159.425594,118.706607 C159.425594,118.706607 167.517295,112.534456 172.365678,102.703232 L174.127141,104.907452 C174.127141,104.907452 176.084384,98.0686333 175.563427,92.7426137 C177.120671,83.7125155 177.220811,75.6686338 177.220811,75.6686338 C177.220811,75.6686338 174.742612,73.6708842 170.395495,72.0646958 C175.64444,70.05907 184.268912,67.8773541 184.268912,67.8773541 C182.700417,80.873697 177.854285,92.2992945 177.854285,92.2992945 C181.170741,94.7499273 183.777211,96.8354406 183.777211,96.8354406 C181.449784,106.492824 177.30745,114.377494 173.398027,120.194652 C167.53361,124.712796 160.313357,128.290292 154.702668,130.698168 C153.93136,129.697887 151.907732,127.386213 148.343175,125.232627 C144.126016,120.003373 142.544582,114.214906 142.544582,114.214906 C142.544582,114.214906 148.828126,118.511389 159.425594,118.706607" id="path20" fill="#FFFFFF"></path>
                        <path d="M160.714483,56.6526006 C158.323484,58.3932475 154.841065,60.0978888 153.83347,60.5597735 C152.671164,59.9668058 150.39437,58.639661 150.39437,58.639661 C154.84219,58.0416301 160.714483,56.6526006 160.714483,56.6526006" id="path22" fill="#FFFFFF"></path>
                        <path d="M143.228688,136.088885 C145.935299,136.047254 148.847254,137.090292 151.190432,140.515327 C154.237971,144.968773 150.214905,150.752739 149.509982,152.429251 C146.337549,159.960615 151.476789,167.398589 151.476789,167.398589 C145.565678,165.59662 133.419969,154.609279 143.228688,136.088885" id="path24" fill="#FFFFFF"></path>
                        <path d="M175.730516,151.851473 C175.730516,151.851473 174.803371,144.856255 169.154989,140.598027 C170.693104,139.01603 172.12264,137.359209 173.472851,135.661319 C176.154145,138.31167 179.466662,143.803653 175.730516,151.851473" id="path26" fill="#FFFFFF"></path>
                        <path d="M180.610403,36.248888 C181.814904,38.3772705 182.473694,42.2090566 182.167084,44.6855122 C184.280164,46.9380579 187.517857,50.6658778 189.771585,54.4176076 C192.909137,53.9135289 199.32939,52.9030648 199.330515,52.9030648 C199.330515,52.9030648 196.73586,74.4658209 193.26413,87.5004198 C194.722921,88.8005604 196.824186,90.8832607 196.824186,90.8832607 C195.682696,101.347395 191.674257,114.229533 186.997464,123.655693 C190.299292,128.411249 191.938673,134.252599 191.940361,140.075383 C191.938673,145.04641 190.743736,150.012936 188.329109,154.290292 C185.301261,159.664694 179.687197,166.891698 168.899011,170.363428 C168.865819,164.700418 166.261037,156.670038 164.453442,153.762584 C163.515045,155.852598 162.36399,157.809841 162.36399,159.60956 C162.36399,162.964834 168.901824,171.53361 172.328547,174.130516 C166.510826,178.753301 159.521234,180.736423 153.121234,180.735298 C141.83347,180.721233 130.658787,175.291135 124.269476,167.899293 C124.269476,167.899293 118.280728,168.685228 114.091699,168.685228 C99.315328,168.685228 84.7741188,163.733329 73.2731346,154.092823 C71.5746818,152.668913 69.9690559,151.156114 68.4585074,149.566241 C67.3879027,149.610123 66.3201109,149.629251 65.2573823,149.631501 L0,149.634314 L17.1490291,129.905482 C16.3629813,128.21153 15.655302,126.486073 14.987679,124.743738 L6.84663837,102.229533 C5.33535289,97.9887458 4.03766516,93.6303774 3.90844997,89.0970442 C3.77944857,84.5648361 5.07867217,80.1046393 7.85642737,76.4939503 C13.2775243,69.4480995 22.2760613,67.773838 30.7017151,67.5398014 L30.7017151,60.6008424 L41.9870594,60.6008424 L41.5201115,59.308578 C40.0085503,55.0683531 38.7108851,50.7093658 38.5818837,46.1765952 C38.4526573,41.6442746 39.7521228,37.1835715 42.5299005,33.5728824 C48.4023617,25.94014 58.4748227,24.6095071 67.4683527,24.5868348 L118.061882,24.5853158 C125.371586,21.3095353 132.509139,17.5914482 139.458224,13.7427282 C145.834033,10.2171024 151.991557,6.07308002 158.999715,3.41134731 C163.97693,1.52580024 170.535579,0.00109880729 177.392401,0 C182.813498,0.00109880729 189.224749,1.2686807 194.658786,4.01459343 C191.720952,6.75392388 182.200277,18.0551332 180.610403,36.248888 Z M37.2094505,66.95471 L36.0243029,66.95471 L36.0243029,62.6537256 L34.5909977,62.6537256 L34.5909977,66.95471 L33.4065252,66.95471 L33.4065252,68.1682121 L37.2094505,68.1682121 L37.2094505,66.95471 Z M42.4749356,65.8278465 L42.4606459,65.8278465 L41.1365953,62.6537256 L40.5663,62.6537256 L39.3004772,65.8278465 L39.2862437,65.8278465 L38.8258218,62.6537256 L37.399324,62.6537256 L38.3357515,68.1682121 L39.7470595,68.1682121 L40.8662718,65.2213767 L42.0508006,68.1682121 L43.4770735,68.1682121 L44.3110537,62.6537256 L42.8771297,62.6537256 L42.4749356,65.8278465 Z M149.970742,13.5269195 C145.590432,16.2223343 131.037409,24.4077631 121.237128,28.5843031 C120.461319,28.9167925 119.63544,29.2747672 118.774118,29.6486069 L67.4801671,29.6486069 C59.5482404,29.6637405 49.9890283,30.5570738 45.5333322,38.1641059 C41.5167922,45.019802 44.7549918,53.3913348 47.2239651,60.2120941 C48.6869186,64.2469745 50.143965,68.2728534 51.6086626,72.3105467 C51.6398299,72.3971853 51.6708285,72.4838238 51.7016021,72.5698997 L32.8065815,72.5698997 C24.8731921,72.5867774 15.3147113,73.4779166 10.8590715,81.0863552 C6.84292529,87.9403635 10.0815187,96.3127965 12.5505482,103.131362 C14.0130517,107.16793 15.4707169,111.194371 16.9336705,115.230939 C18.8176648,120.430939 20.5381711,125.804779 23.1946548,130.669476 L11.1106608,144.571023 L65.2511939,144.56821 C66.9423331,144.565397 68.7172979,144.513639 70.5035144,144.363991 C77.6360037,152.406185 88.6976068,160.1879 103.920673,162.902387 C111.530799,164.259349 119.184807,163.814342 126.371867,162.387619 C130.573836,168.369616 137.305763,172.676226 144.642472,174.564834 C156.160896,177.530235 164.423625,173.104918 164.423625,173.104918 C159.837408,168.132204 155.470038,160.929954 157.917296,156.089448 C159.317014,153.331642 160.544018,150.461881 161.11617,147.500981 C161.762584,147.044159 162.395495,146.573836 163.017717,146.093386 C168.261037,147.895918 172.539517,156.129391 172.703231,163.105481 C172.703231,163.105481 179.650628,159.97468 184.390994,150.948519 C188.761177,142.619406 187.129109,130.535018 180.978898,124.263851 C188.132203,111.094231 190.987337,97.8430355 191.527984,92.8236264 C191.527984,92.8236264 188.379742,89.8520371 187.539798,89.1527404 C191.39015,76.3679306 193.502105,58.9445836 193.502105,58.9445836 C193.502105,58.9445836 185.517858,60.2053431 183.553301,60.6025301 C184.088322,59.0357229 185.256254,56.7088593 185.256254,56.7088593 C183.045846,52.9052589 178.339236,47.9239369 176.86188,46.4765671 C177.499855,42.4424181 177.251191,39.7041903 175.405903,37.62194 C177.192119,16.1084665 185.683258,6.40888873 185.683258,6.40888873 C175.10098,3.27619682 162.615467,5.74672278 149.970742,13.5269195 L149.970742,13.5269195 Z" id="path28" fill="#D3D5D7"></path>
                        <path d="M170.395495,72.0646958 C174.742612,73.6708842 177.220811,75.6686338 177.220811,75.6686338 C177.220811,75.6686338 177.120671,83.7125155 175.563427,92.7426137 C164.217155,88.4990133 156.847816,83.891981 156.847816,83.891981 C156.847816,83.891981 156.790995,86.6255956 159.330516,90.4326278 C155.552176,94.4028106 154.121515,100.165961 153.893667,101.184245 C150.458505,105.997184 147.171304,109.300138 147.171304,109.300138 C154.72911,107.837972 160.781431,105.508296 163.998871,104.115891 C162.132204,109.674821 157.476789,113.66357 157.476789,113.66357 C152.066382,114.497325 142.544582,114.214906 142.544582,114.214906 C142.544582,114.214906 144.126016,120.003373 148.343175,125.232627 C144.036565,122.630658 137.478478,120.258787 128.126579,120.713358 C124.839378,118.456818 122.105763,116.364554 119.916734,114.567086 C121.017718,102.842754 124.053443,92.2222199 124.053443,92.2222199 C126.74205,89.1572411 140.765116,77.8368476 140.765116,77.8368476 C135.487479,77.8739784 129.201685,80.4438798 123.832908,83.2950753 C123.063851,77.1347379 120.249223,71.0841051 118.200278,65.271447 L104.122079,65.271447 C104.922642,63.267509 105.876228,60.9710252 106.891699,58.7161729 L115.802529,58.7161729 C115.802529,58.7161729 114.334737,54.5725443 112.649224,49.8176078 C119.189308,45.7669749 143.745707,31.2199148 168.512513,25.1292258 C167.274257,30.3006462 166.681852,34.8129949 166.410685,37.237805 C160.360052,38.9625307 159.381149,45.8293659 159.381149,45.8293659 C164.024187,43.2188456 168.621655,44.7692253 168.621655,44.7692253 C167.267506,48.4254278 165.38565,50.6157512 165.38565,50.6157512 C159.071163,53.6058496 149.395214,54.9944853 144.848379,55.2676779 L140.122641,52.2518693 C140.122641,52.2518693 141.320953,61.891419 150.757802,66.1952163 C158.141206,63.9533036 171.570179,55.2050619 173.227562,53.6308847 C175.445847,55.7120099 176.656536,57.9184233 176.656536,57.9184233 C174.847816,61.9144851 170.395495,72.0646958 170.395495,72.0646958 L170.395495,72.0646958 Z M141.644441,65.1257368 C141.644441,65.1257368 140.829251,66.4652585 140.964835,68.4315032 C140.964835,68.4315032 138.021375,69.6770728 137.372148,74.360617 C137.372148,74.360617 139.660193,71.7580854 143.71589,71.1774947 C145.73783,70.8838238 147.250629,70.3876213 148.383681,69.8666649 C144.752176,68.1074526 141.644441,65.1257368 141.644441,65.1257368 L141.644441,65.1257368 Z" id="path30" fill="#D3D5D7"></path>
                        <path d="M151.476789,167.398589 C151.476789,167.398589 138.82025,166.862443 132.698168,155.064412 C128.517015,147.007029 133.667507,140.534455 135.140362,139.147113 C135.907732,138.42475 139.358646,136.147395 143.228688,136.088885 C133.419969,154.609279 145.565678,165.59662 151.476789,167.398589" id="path32" fill="#D3D5D7"></path>
                        <path d="M173.472851,135.661319 C174.294792,134.62672 175.094229,133.580306 175.849785,132.514765 C178.377492,135.761459 181.515607,144.353302 175.730516,151.851473 C179.466662,143.803653 176.154145,138.31167 173.472851,135.661319" id="path34" fill="#D3D5D7"></path>
                        <path d="M99.9246107,101.645567 C102.410687,101.642754 105.075103,101.534175 107.696762,101.161741 C107.431221,101.488042 107.156115,101.812656 106.858506,102.135581 C103.532487,105.757522 87.4002791,117.157803 87.4002791,117.157803 C87.4002791,117.157803 87.1741188,110.019688 89.5898712,101.64613 L99.9246107,101.645567" id="path36" fill="#D3D5D7"></path>
                        <path d="M176.86188,46.4765671 C178.339236,47.9239369 183.045846,52.9052589 185.256254,56.7088593 C185.256254,56.7088593 184.088322,59.0357229 183.553301,60.6025301 C185.517858,60.2053431 193.502105,58.9445836 193.502105,58.9445836 C193.502105,58.9445836 191.39015,76.3679306 187.539798,89.1527404 C188.379742,89.8520371 191.527984,92.8236264 191.527984,92.8236264 C190.987337,97.8430355 188.132203,111.094231 180.978898,124.263851 C187.129109,130.535018 188.761177,142.619406 184.390994,150.948519 C179.650628,159.97468 172.703231,163.105481 172.703231,163.105481 C172.539517,156.129391 168.261037,147.895918 163.017717,146.093386 C162.395495,146.573836 161.762584,147.044159 161.11617,147.500981 C160.544018,150.461881 159.317014,153.331642 157.917296,156.089448 C155.470038,160.929954 159.837408,168.132204 164.423625,173.104918 C164.423625,173.104918 156.160896,177.530235 144.642472,174.564834 C137.305763,172.676226 130.573836,168.369616 126.371867,162.387619 C119.184807,163.814342 111.530799,164.259349 103.920673,162.902387 C88.6976068,160.1879 77.6360037,152.406185 70.5035144,144.363991 C68.7172979,144.513639 66.9423331,144.565397 65.2511939,144.56821 L11.1106608,144.571023 L23.1946548,130.669476 C20.5381711,125.804779 18.8176648,120.430939 16.9336705,115.230939 C15.4707169,111.194371 14.0130517,107.16793 12.5505482,103.131362 C10.0815187,96.3127965 6.84292529,87.9403635 10.8590715,81.0863552 C15.3147113,73.4779166 24.8731921,72.5867774 32.8065815,72.5698997 L51.7016021,72.5698997 C51.6708285,72.4838238 51.6398299,72.3971853 51.6086626,72.3105467 C50.143965,68.2728534 48.6869186,64.2469745 47.2239651,60.2120941 C44.7549918,53.3913348 41.5167922,45.019802 45.5333322,38.1641059 C49.9890283,30.5570738 59.5482404,29.6637405 67.4801671,29.6486069 L118.774118,29.6486069 C119.63544,29.2747672 120.461319,28.9167925 121.237128,28.5843031 C131.037409,24.4077631 145.590432,16.2223343 149.970742,13.5269195 C162.615467,5.74672278 175.10098,3.27619682 185.683258,6.40888873 C185.683258,6.40888873 177.192119,16.1084665 175.405903,37.62194 C177.251191,39.7041903 177.499855,42.4424181 176.86188,46.4765671 L176.86188,46.4765671 Z M175.730516,151.851473 C181.515607,144.353302 178.377492,135.761459 175.849785,132.514765 C175.094229,133.580306 174.294792,134.62672 173.472851,135.661319 C172.12264,137.359209 170.693104,139.01603 169.154989,140.598027 C174.803371,144.856255 175.730516,151.851473 175.730516,151.851473 Z M149.509982,152.429251 C150.214905,150.752739 154.237971,144.968773 151.190432,140.515327 C148.847254,137.090292 145.935299,136.047254 143.228688,136.088885 C139.358646,136.147395 135.907732,138.42475 135.140362,139.147113 C133.667507,140.534455 128.517015,147.007029 132.698168,155.064412 C138.82025,166.862443 151.476789,167.398589 151.476789,167.398589 C151.476789,167.398589 146.337549,159.960615 149.509982,152.429251 L149.509982,152.429251 Z M87.4002791,117.157803 C87.4002791,117.157803 103.532487,105.757522 106.858506,102.135581 C107.156115,101.812656 107.431221,101.488042 107.696762,101.161741 C105.075103,101.534175 102.410687,101.642754 99.9246107,101.645567 L89.5898712,101.64613 C87.1741188,110.019688 87.4002791,117.157803 87.4002791,117.157803 L87.4002791,117.157803 Z M32.8065815,81.4818545 C27.5986491,81.4818545 17.3918983,81.5864959 17.8566522,88.8551314 C18.015977,91.3687741 18.9462724,95.1172972 20.8472006,99.8694771 L26.2664972,114.837691 C29.8024184,124.40506 31.2796617,128.199716 34.7085786,131.002528 L30.6577208,135.658506 L65.2511939,135.658506 C70.4742598,135.658506 80.7797448,135.565116 80.4028109,128.109701 C80.2441611,125.787339 79.033472,122.236846 77.2253145,117.102107 L59.4666652,117.102107 L62.0528817,124.40506 L50.4109692,124.40506 C45.3318132,112.780307 42.2200271,103.82672 39.0130511,92.7302368 L68.5209547,92.7302368 L64.5333317,81.4818545 L32.8065815,81.4818545 Z M99.206186,38.5596615 L67.4801671,38.5596615 C62.272291,38.5596615 52.0653152,38.6651467 52.5316443,45.9344011 C52.6905191,48.4447245 53.6201393,52.1949917 55.5210675,56.946834 L60.9417706,71.9172978 C61.0239085,72.1389574 61.1032334,72.3549912 61.1831208,72.5698997 L70.8286902,72.5698997 L77.974119,92.738113 L99.9246107,92.738113 C105.147677,92.738113 115.453724,92.6430357 115.07679,85.1898713 C114.918703,82.8669459 113.706326,79.3158911 111.898169,74.1822766 L94.1406446,74.1822766 L96.7251734,81.478479 L85.0846674,81.478479 C80.0044987,69.8576635 76.8939503,60.9052024 73.688887,49.8105754 L103.193246,49.8105754 L99.206186,38.5596615 Z M173.227562,53.6308847 C171.570179,55.2050619 158.141206,63.9533036 150.757802,66.1952163 C141.320953,61.891419 140.122641,52.2518693 140.122641,52.2518693 L144.848379,55.2676779 C149.395214,54.9944853 159.071163,53.6058496 165.38565,50.6157512 C165.38565,50.6157512 167.267506,48.4254278 168.621655,44.7692253 C168.621655,44.7692253 164.024187,43.2188456 159.381149,45.8293659 C159.381149,45.8293659 160.360052,38.9625307 166.410685,37.237805 C166.681852,34.8129949 167.274257,30.3006462 168.512513,25.1292258 C143.745707,31.2199148 119.189308,45.7669749 112.649224,49.8176078 C114.334737,54.5725443 115.802529,58.7161729 115.802529,58.7161729 L106.891699,58.7161729 C105.876228,60.9710252 104.922642,63.267509 104.122079,65.271447 L118.200278,65.271447 C120.249223,71.0841051 123.063851,77.1347379 123.832908,83.2950753 C129.201685,80.4438798 135.487479,77.8739784 140.765116,77.8368476 C140.765116,77.8368476 126.74205,89.1572411 124.053443,92.2222199 C124.053443,92.2222199 121.017718,102.842754 119.916734,114.567086 C122.105763,116.364554 124.839378,118.456818 128.126579,120.713358 C137.478478,120.258787 144.036565,122.630658 148.343175,125.232627 C151.907732,127.386213 153.93136,129.697887 154.702668,130.698168 C160.313357,128.290292 167.53361,124.712796 173.398027,120.194652 C177.30745,114.377494 181.449784,106.492824 183.777211,96.8354406 C183.777211,96.8354406 181.170741,94.7499273 177.854285,92.2992945 C177.854285,92.2992945 182.700417,80.873697 184.268912,67.8773541 C184.268912,67.8773541 175.64444,70.05907 170.395495,72.0646958 C170.395495,72.0646958 174.847816,61.9144851 176.656536,57.9184233 C176.656536,57.9184233 175.445847,55.7120099 173.227562,53.6308847 L173.227562,53.6308847 Z M160.714483,56.6526006 C160.714483,56.6526006 154.84219,58.0416301 150.39437,58.639661 C150.39437,58.639661 152.671164,59.9668058 153.83347,60.5597735 C154.841065,60.0978888 158.323484,58.3932475 160.714483,56.6526006 L160.714483,56.6526006 Z" id="path38" fill="#1C4F9C"></path>
                        <polyline id="path40" fill="#1C4F9C" points="33.4065252 66.95471 34.5909977 66.95471 34.5909977 62.6537256 36.0243029 62.6537256 36.0243029 66.95471 37.2094505 66.95471 37.2094505 68.1682121 33.4065252 68.1682121 33.4065252 66.95471"></polyline>
                        <polyline id="path42" fill="#1C4F9C" points="43.4770735 68.1682121 42.0508006 68.1682121 40.8662718 65.2213767 39.7470595 68.1682121 38.3357515 68.1682121 37.399324 62.6537256 38.8258218 62.6537256 39.2862437 65.8278465 39.3004772 65.8278465 40.5663 62.6537256 41.1365953 62.6537256 42.4606459 65.8278465 42.4749356 65.8278465 42.8771297 62.6537256 44.3110537 62.6537256 43.4770735 68.1682121"></polyline>
                        <path d="M174.127141,104.907452 L172.365678,102.703232 C167.517295,112.534456 159.425594,118.706607 159.425594,118.706607 C148.828126,118.511389 142.544582,114.214906 142.544582,114.214906 C142.544582,114.214906 152.066382,114.497325 157.476789,113.66357 C157.476789,113.66357 162.132204,109.674821 163.998871,104.115891 C160.781431,105.508296 154.72911,107.837972 147.171304,109.300138 C147.171304,109.300138 150.458505,105.997184 153.893667,101.184245 C154.121515,100.165961 155.552176,94.4028106 159.330516,90.4326278 C156.790995,86.6255956 156.847816,83.891981 156.847816,83.891981 C156.847816,83.891981 164.217155,88.4990133 175.563427,92.7426137 C176.084384,98.0686333 174.127141,104.907452 174.127141,104.907452 L174.127141,104.907452 Z M164.608153,92.2334717 C163.454286,92.7105462 159.566241,94.7521777 156.903512,101.535862 C158.773554,100.464695 162.375242,98.9023885 165.507169,96.55921 L163.578618,95.3175785 L164.608153,92.2334717 L164.608153,92.2334717 Z" id="path44" fill="#1C4F9C"></path>
                        <path d="M137.372148,74.360617 C138.021375,69.6770728 140.964835,68.4315032 140.964835,68.4315032 C140.829251,66.4652585 141.644441,65.1257368 141.644441,65.1257368 C141.644441,65.1257368 144.752176,68.1074526 148.383681,69.8666649 C147.250629,70.3876213 145.73783,70.8838238 143.71589,71.1774947 C139.660193,71.7580854 137.372148,74.360617 137.372148,74.360617" id="path46" fill="#1C4F9C"></path>
                        <path d="M85.0846674,81.478479 L96.7251734,81.478479 L94.1406446,74.1822766 L111.898169,74.1822766 C113.706326,79.3158911 114.918703,82.8669459 115.07679,85.1898713 C115.453724,92.6430357 105.147677,92.738113 99.9246107,92.738113 L77.974119,92.738113 L70.8286902,72.5698997 L61.1831208,72.5698997 C61.1032334,72.3549912 61.0239085,72.1389574 60.9417706,71.9172978 L55.5210675,56.946834 C53.6201393,52.1949917 52.6905191,48.4447245 52.5316443,45.9344011 C52.0653152,38.6651467 62.272291,38.5596615 67.4801671,38.5596615 L99.206186,38.5596615 L103.193246,49.8105754 L73.688887,49.8105754 C76.8939503,60.9052024 80.0044987,69.8576635 85.0846674,81.478479" id="path16" fill="#FFFFFF"></path>
                    </g>
                </g>
            </g>
        </g>
    </g>
</svg>