<?xml version="1.0" encoding="UTF-8"?>
<svg width="200px" height="200px" viewBox="0 0 200 200" version="1.1" xmlns="http://www.w3.org/2000/svg" xmlns:xlink="http://www.w3.org/1999/xlink">
    <!-- Generator: Sketch 54.1 (76490) - https://sketchapp.com -->
    <title>cincinnati</title>
    <desc>Created with Sketch.</desc>
    <g id="cincinnati" stroke="none" stroke-width="1" fill="none" fill-rule="evenodd">
        <g id="cincinnati_BGL">
            <g id="cincinnati" transform="translate(36.000000, -3.000000)">
                <g transform="translate(0.000000, 0.278772)" fill-rule="nonzero" id="g10">
                    <g transform="translate(63.681836, 101.844722) scale(-1, 1) rotate(-180.000000) translate(-63.681836, -101.844722) translate(0.000000, 0.159210)">
                        <g id="g12" transform="translate(0.000000, 1.848827)">
                            <path d="M67.5600595,170.470111 C66.7632149,166.201991 67.8729222,162.997767 70.1118523,161.214676 C70.8821971,160.38106 71.865157,159.791078 73.0703871,159.536762 C76.8442549,158.736836 81.1733872,160.015814 84.8583058,162.875744 C87.3764088,164.828928 89.5927421,167.517945 91.1293232,170.783796 C92.148438,172.953703 92.7928571,174.954134 93.1219484,176.769272 C93.5872366,179.315313 93.4348111,181.496519 92.8290119,183.253726 C92.4734208,184.285783 91.9598576,185.172399 91.3324888,185.905767 C90.7082014,186.628864 89.9657944,187.202617 89.1418337,187.611002 C88.0423976,188.154352 86.8507255,188.438455 85.610984,188.493714 C87.2358979,189.295284 88.9507882,189.717433 90.6463684,189.661352 C92.0103922,189.616364 93.2437656,189.264059 94.3175235,188.663807 C94.3390932,188.65333 94.3592248,188.63895 94.3793565,188.627035 C94.7628855,189.508926 95.1977708,190.358565 95.6792877,191.17472 C97.9461556,195.025622 101.22803,198.07249 104.777368,199.744035 L104.758879,199.869139 C91.2256677,200.210967 70.3766455,185.560858 67.5600595,170.470111" id="path14" fill="#1A0F09"></path>
                            <path d="M42.5600088,161.62717 C42.6458766,158.08913 44.1103534,155.725301 46.2510902,154.679687 C47.0263652,154.14517 47.933934,153.840319 48.9641418,153.839497 C52.1948651,153.837032 55.5209058,155.582325 58.0455824,158.480054 C59.7691005,160.459532 61.1220314,162.975992 61.8153417,165.836744 C62.2759051,167.738572 62.4572957,169.439698 62.4139509,170.941973 C62.3521179,173.049842 61.8506748,174.760008 61.0530085,176.06076 C60.5803249,176.825353 60.0106806,177.445738 59.3654398,177.923146 C58.7300594,178.393364 58.0238073,178.728824 57.278319,178.91268 C56.2824173,179.162066 55.2569343,179.189387 54.232273,179.024842 C55.423945,179.934876 56.7551008,180.561628 58.1538415,180.801565 C59.2803938,180.994048 60.3516866,180.921944 61.3354682,180.62264 C61.3547782,180.61545 61.3749099,180.609698 61.3948361,180.602508 C61.554657,181.371209 61.7631636,182.119984 62.0160422,182.852531 C63.1955941,186.267726 65.3332495,189.215168 67.9170887,191.146576 L67.8706625,191.29099 C56.7318878,189.231191 42.2565957,174.096278 42.5600088,161.62717" id="path16" fill="#1A0F09"></path>
                            <path d="M35.0393894,164.545647 C35.0554126,164.54236 35.0708195,164.540922 35.0876644,164.537635 C35.1301874,165.139531 35.2072219,165.734032 35.3226709,166.318261 C35.8643773,169.055348 37.2035447,171.535652 39.0010159,173.286697 L38.9344581,173.383042 C30.5048319,170.611239 20.9285218,157.518664 22.5374125,148.038698 C22.9948946,145.348038 24.3934299,143.700527 26.1748779,143.134786 C26.8361419,142.806722 27.5750566,142.673401 28.3768314,142.781866 C30.8891826,143.125337 33.2805382,144.815987 34.9231187,147.296291 C36.0457679,148.99105 36.8200157,151.055779 37.0431076,153.312171 C37.1924517,154.815267 37.1449985,156.134509 36.9453251,157.274003 C36.6643034,158.875498 36.0866475,160.126538 35.3218492,161.033285 C34.8742275,161.56698 34.3590209,161.977831 33.8068378,162.27467 C33.2595848,162.567607 32.6755608,162.746532 32.072843,162.806722 C31.2751767,162.889508 30.4719638,162.800353 29.6944292,162.56432 C30.5216767,163.388486 31.4877918,164.006405 32.5494296,164.3394 C33.4017391,164.609123 34.2411068,164.666847 35.0393894,164.545647" id="path18" fill="#1A0F09"></path>
                            <path d="M94.5301387,166.361606 C93.0938051,163.514412 93.1780295,161.031025 94.3191669,159.3186 C94.666541,158.573934 95.2098909,157.95848 95.9722241,157.534687 C98.3594712,156.20271 101.565133,156.222636 104.658632,157.483331 C106.776977,158.347555 108.84335,159.794365 110.568512,161.783704 C111.716017,163.106026 112.568943,164.384388 113.174948,165.596808 C114.023149,167.297318 114.372166,168.862042 114.334368,170.223807 C114.311977,171.025376 114.147431,171.756485 113.872983,172.399877 C113.604286,173.036284 113.224661,173.59237 112.747252,174.049031 C112.117213,174.653186 111.369465,175.096905 110.540368,175.38902 C111.810718,175.622588 113.060115,175.57041 114.199609,175.188525 C115.110465,174.877922 115.875057,174.377917 116.476954,173.736784 C116.486608,173.721583 116.502632,173.709463 116.513108,173.696726 C116.956005,174.241514 117.429511,174.751174 117.925407,175.226939 C120.224321,177.436083 123.020776,178.891726 125.724994,179.378789 L125.742661,179.556071 C116.601236,182.432025 99.5710695,176.366433 94.5301387,166.361606" id="path20" fill="#1A0F09"></path>
                            <polyline id="path22" fill="#D01C2E" points="62.7116122 0.860218346 0 0.860218346 7.47394675 26.4139929 70.1839566 26.4139929 62.7116122 0.860218346"></polyline>
                            <path d="M100.056489,143.252906 C92.1548062,147.622096 84.1000811,150.546325 73.6159967,150.546325 C41.0127456,150.546325 13.5211533,121.340602 7.14013068,90.8885648 C-0.221475153,55.7594045 21.2278264,34.3341644 45.4511641,34.7955496 C71.3836402,35.2914462 83.7108002,63.0959628 85.8476339,68.8110995 L85.5949608,68.8456109 C76.7158641,54.1745485 63.4603873,48.9450372 57.6579449,48.9450372 C33.0671013,48.9450372 32.8440095,73.3448353 38.1072105,92.8546901 C45.3829629,119.823948 56.8089223,136.580487 73.4861679,136.580487 C79.5205354,136.580487 88.2188579,132.312366 90.1447199,113.005472 L90.4939428,112.967879 C92.0907135,117.450258 100.056489,143.252906 100.056489,143.252906" id="path24" fill="#1A0F09"></path>
                            <path d="M71.9590364,3.65110561 L72.6009904,3.65110561 C73.1465999,3.65110561 73.6441399,3.67678377 73.6441399,4.27301009 C73.6441399,4.77213189 73.1907664,4.85076868 72.7735476,4.85076868 L71.9590364,4.85076868 L71.9590364,3.65110561 Z M71.3411172,5.32581463 L72.8737952,5.32581463 C73.8166972,5.32581463 74.2620592,4.97112735 74.2620592,4.24653077 C74.2620592,3.56445723 73.8086856,3.27957346 73.2189096,3.21940439 L74.3526517,1.55272544 L73.6907715,1.55272544 L72.6114671,3.1752585 L71.9590364,3.1752585 L71.9590364,1.55272544 L71.3411172,1.55272544 L71.3411172,5.32581463 Z M72.6650831,0.679668016 C74.2339159,0.679668016 75.4496227,1.87129691 75.4496227,3.45211014 C75.4496227,4.99680551 74.2339159,6.18843646 72.6650831,6.18843646 C71.0787891,6.18843646 69.8630823,4.99680551 69.8630823,3.45211014 C69.8630823,1.87129691 71.0787891,0.679668016 72.6650831,0.679668016 Z M72.6650831,6.66428357 C74.5147323,6.66428357 76.0658985,5.27365716 76.0658985,3.45211014 C76.0658985,1.59445348 74.5147323,0.204622834 72.6650831,0.204622834 C70.8059843,0.204622834 69.2468065,1.59445348 69.2468065,3.45211014 C69.2468065,5.27365716 70.8059843,6.66428357 72.6650831,6.66428357 L72.6650831,6.66428357 Z" id="path26" fill="#231F20"></path>
                        </g>
                    </g>
                </g>
            </g>
        </g>
    </g>
</svg>