<?xml version="1.0" encoding="UTF-8"?>
<svg width="200px" height="200px" viewBox="0 0 200 200" version="1.1" xmlns="http://www.w3.org/2000/svg" xmlns:xlink="http://www.w3.org/1999/xlink">
    <title>citadel_BGL</title>
    <g id="citadel_BGL" stroke="none" stroke-width="1" fill="none" fill-rule="evenodd">
        <g id="C_2clr_WhiteBG" transform="translate(0.000000, 13.000000)">
            <path d="M198.847109,69.4161888 L198.847109,24.8625984 C198.847109,24.8625984 189.621598,23.4633839 183.103262,14.6839988 C176.58433,5.90461365 170.738166,0 161.212653,0 L37.6344567,0 C28.1089431,0 22.2633756,5.90461365 15.7438471,14.6839988 C9.22551151,23.4633839 0,24.8625984 0,24.8625984 L0,148.752725 C0,148.752725 9.22551151,150.151939 15.7438471,158.931325 C22.2633756,167.71071 28.1089431,173.615323 37.6344567,173.615323 L161.212653,173.615323 C170.738166,173.615323 176.58433,167.71071 183.103262,158.931325 C189.621598,150.151939 198.847109,148.752725 198.847109,148.752725 L198.847109,101.945839 L146.692671,101.945839 L146.692671,127.667886 L51.9069218,127.667886 L51.9069218,45.6999204 L146.692671,45.6999204 L146.692671,69.4161888 L198.847109,69.4161888" id="Fill-1" fill="#15233C"></path>
            <path d="M155.886572,60.4698045 L189.900725,60.4698045 L189.900725,31.3421664 C188.085205,30.5858987 182.534869,27.8727586 176.713158,20.992989 C175.65152,19.7387059 174.702607,18.5768688 173.82944,17.5080741 C169.025828,11.6297032 166.833964,8.94698074 161.212653,8.94698074 L37.6344567,8.94698074 C32.0131452,8.94698074 29.8212811,11.6297032 25.0176691,17.5080741 C24.144502,18.5768688 23.1955888,19.7387059 22.1339512,20.992989 C16.3122407,27.8727586 10.7619039,30.5858987 8.94638432,31.3421664 L8.94638432,142.273753 C10.7619039,143.029425 16.3122407,145.742565 22.1339512,152.622931 C23.1955888,153.876617 24.144502,155.039051 25.0176691,156.107249 C29.8212811,161.98562 32.0131452,164.668939 37.6344567,164.668939 L161.212653,164.668939 C166.833964,164.668939 169.025828,161.98562 173.82944,156.107249 C174.702607,155.039051 175.65152,153.876617 176.713158,152.622931 C182.534869,145.742565 188.085205,143.029425 189.900725,142.273753 L189.900725,110.892819 L155.886572,110.892819 L155.886572,136.861787 L42.9599411,136.861787 L42.9599411,36.7541325 L155.886572,36.7541325 L155.886572,60.4698045" id="Fill-2" fill="#77A5C3"></path>
            <polyline id="Fill-3" fill="#15233C" points="101.36492 50.8148665 111.086658 76.7414883 143.298413 76.7414883 117.094453 92.765059 126.816191 118.691681 100.899708 102.66811 74.6963448 118.691681 84.882698 92.765059 58.9668119 76.7414883 91.1785668 76.7414883 101.36492 50.8148665"></polyline>
            <path d="M200,168.462206 L198.560229,168.462206 L198.560229,164.258002 L198.403965,164.258002 L197.081689,167.198977 L196.071941,167.198977 L194.735351,164.206709 L194.542109,164.206709 L194.542109,168.462206 L193.175698,168.462206 L193.175698,163.086025 L195.514283,163.086025 L196.599778,165.713877 L197.728215,163.086025 L200,163.086025 L200,168.462206 Z M192.322213,164.251441 L190.784628,164.251441 L190.784628,168.462206 L189.33591,168.462206 L189.33591,164.251441 L187.798921,164.251441 L187.798921,163.086025 L192.322213,163.086025 L192.322213,164.251441 L192.322213,164.251441 Z" id="Fill-4" fill="#15233C"></path>
        </g>
    </g>
</svg>