<?xml version="1.0" encoding="UTF-8"?>
<svg width="200px" height="200px" viewBox="0 0 200 200" version="1.1" xmlns="http://www.w3.org/2000/svg" xmlns:xlink="http://www.w3.org/1999/xlink">
    <!-- Generator: Sketch 54.1 (76490) - https://sketchapp.com -->
    <title>clemson</title>
    <desc>Created with Sketch.</desc>
    <g id="clemson" stroke="none" stroke-width="1" fill="none" fill-rule="evenodd">
        <g id="clemson_BGL" fill="#F2541B">
            <g id="clemson" transform="translate(0.000000, 4.000000)">
                <g id="g10" transform="translate(99.895504, 96.367821) scale(-1, 1) rotate(-180.000000) translate(-99.895504, -96.367821) translate(0.000000, 0.234072)" fill-rule="nonzero">
                    <g id="g12" transform="translate(0.000000, 0.752351)">
                        <path d="M105.854125,190.723506 C105.653498,190.16593 105.986204,189.720371 106.054752,189.319118 C105.834898,189.275648 105.734585,188.948794 105.653498,188.917864 C104.927061,188.672932 103.998326,189.105951 103.245974,188.917864 C102.843885,188.823402 102.274606,188.002503 101.841586,187.914729 C100.913686,187.732493 100.41797,188.341061 99.6346893,187.714102 C99.2585137,187.425701 98.4434667,184.873559 98.2303006,184.303444 C98.0112828,184.422984 97.854125,184.215669 97.6284197,184.303444 C97.4027144,184.391218 97.1084615,184.993099 96.8259119,185.105951 C94.9885034,185.851615 95.0578869,184.341061 94.2177615,183.701563 C93.9109694,183.475857 93.3834877,183.475857 93.0139998,183.300309 C93.0139998,183.300309 92.8635295,183.896338 92.8133728,184.102817 C93.0516173,184.321834 93.7228817,184.566767 93.8165076,184.905325 C93.8733519,185.13103 93.7228817,185.500518 93.8165076,185.707832 C93.640959,185.845763 93.4595588,185.827373 93.4152537,186.109086 C93.0457657,186.109086 92.5692767,186.028 92.2114919,186.109086 C92.010865,185.833224 91.4842192,185.43197 91.4089841,185.105951 C91.3713666,184.96802 91.4967584,184.642002 91.4089841,184.504071 C91.2585139,184.290904 90.4743969,184.127895 90.4058494,183.90219 C90.1049089,182.992681 90.6064763,182.303862 90.8071033,181.695293 L90.4058494,181.695293 C90.1115965,181.600831 89.5222548,180.548376 89.6033415,180.090278 C89.6284199,179.927268 90.1425265,179.607937 90.2052224,179.488397 C90.2746059,179.350466 90.2996843,178.779515 90.4058494,178.685889 C90.5688588,178.542106 90.8697992,178.667498 91.0077302,178.485262 C90.6507814,177.727059 90.6817114,177.394353 90.4058494,176.478992 C90.2996843,176.548376 89.9109695,176.478992 89.8039685,176.478992 C89.2773227,177.59498 89.1460793,177.181187 89.4027146,178.886516 C89.2020876,178.980978 88.7757554,179.444928 88.6002068,179.488397 C87.9983259,179.651406 87.1774273,179.319536 86.5939372,179.488397 C86.3933103,179.551093 86.2804576,180.215669 85.9920564,180.290905 C85.7730386,180.353601 85.0265391,180.134583 85.1895485,180.090278 C84.9454524,179.663945 84.6503636,179.250152 84.3870407,178.685889 C84.3561107,178.623193 84.0050136,178.542106 83.9857868,178.485262 C83.8545434,178.159243 84.0234044,177.513893 83.7859958,177.2815 C83.4152539,176.942942 82.7697367,177.193726 82.3811056,176.880246 C82.0927879,176.661229 81.5471662,173.752138 81.9798517,173.469588 C82.6002069,173.06917 82.9640105,173.450361 83.383906,173.670215 C83.6973856,173.839912 83.5286082,174.05893 83.5847837,174.472723 C83.7166123,174.429254 84.1864138,174.272096 84.1864138,174.272096 C84.0735611,173.670215 84.0300919,173.551511 83.9857868,172.867707 C83.7667691,172.824238 83.6664556,172.498219 83.5847837,172.466453 C82.9763825,172.259975 82.0045957,172.623611 81.3776364,172.466453 L81.177511,172.065199 C80.851325,171.858721 80.5629238,172.05266 80.1740419,171.864573 C80.393812,172.937091 80.5002279,173.557362 80.7761735,174.472723 C80.3996636,174.629881 80.6756093,174.49195 80.5753794,174.873977 C79.610113,174.949212 78.7633836,175.262692 78.1677723,174.472723 C77.3840733,173.450361 77.6727253,172.416297 78.1677723,171.463319 C77.7664348,170.980978 77.0705937,170.416715 76.9641778,169.657676 C76.9265603,169.419432 77.0833001,168.867707 76.9641778,168.654541 C76.9203743,168.592681 76.0550869,168.478993 75.9613774,168.453914 C75.8983471,168.0652 75.9110535,167.563632 75.7604997,167.049526 C75.7980336,167.043674 76.4811684,166.917446 76.5628403,166.848899 C76.7826104,166.667498 76.7571141,166.008773 76.9641778,165.845764 C76.5253063,165.859139 74.2809595,165.651824 73.7542301,165.243883 C73.2526627,164.867707 74.0174694,162.824656 73.7542301,162.033852 C73.6102803,161.614207 72.9705311,161.187875 72.750761,160.83009 C71.8420045,159.376381 71.1775113,158.278784 70.1430285,157.018178 C69.9669784,156.811699 69.440667,156.616924 69.3406879,156.21567 C68.7137287,153.752138 69.9422344,154.64242 70.5443661,154.410863 C70.6821299,154.360707 71.3280651,153.764677 71.5471664,153.608356 C71.1775113,152.824239 70.2684204,151.582859 70.9457036,150.397488 C71.0641571,150.185158 71.6225687,150.065618 71.7479606,149.796443 C71.8795384,149.501355 71.4658289,149.651825 71.5471664,149.193727 C71.7414402,148.015879 73.058389,147.990801 74.1555676,147.990801 C74.0363618,147.946496 73.3905102,147.400623 73.3528926,147.38892 C71.415923,146.817969 71.7039063,147.663946 70.9457036,145.783068 C70.0489847,146.968439 69.3783055,147.250153 67.5349617,147.589547 C67.3844079,147.276067 67.1649722,147.200832 66.9328301,146.987666 C67.29655,146.078157 67.3090056,145.639286 67.7357559,144.78077 C67.4157559,144.567603 66.7698207,144.285054 66.5314926,143.978262 C66.3058709,143.7024 66.3747528,143.206684 66.1304895,142.975127 C65.9237601,142.786203 65.5724122,142.930822 65.3278145,142.7745 C65.0711791,142.617342 64.7198312,142.021313 64.5255574,141.770529 C64.6068113,141.633434 64.5255574,141.137719 64.5255574,140.968857 C65.5413986,140.711386 65.66027,140.598534 66.9328301,140.768231 C66.8201446,140.548377 67.0209388,140.404594 66.9328301,140.165514 L66.5314926,139.964887 C66.0994759,139.306998 66.3058709,138.911595 66.1304895,137.959453 C66.2562157,137.89007 66.8576786,137.664364 66.9328301,137.558199 C67.4974278,136.78077 67.7919314,136.122045 68.3372188,135.351303 C67.9421509,135.08798 66.8704685,134.62403 66.7322867,134.147541 C66.6258709,133.802296 66.832851,133.494668 66.7322867,133.14357 C67.2590161,133.006475 68.1867486,132.824239 68.7385563,132.542525 C68.8577621,132.485681 69.1585354,131.990801 69.3406879,131.940645 C69.6917851,131.85287 69.9862887,132.03427 70.3434883,131.940645 C70.2243661,131.482546 70.1178666,131.037823 69.9422344,130.335629 C69.440667,130.316402 69.3783055,130.724344 68.7385563,130.536256 C68.6193504,130.50449 68.3248468,130.028001 68.1370934,129.934375 C68.9018165,128.51076 68.0427151,128.899474 70.1430285,128.730613 C70.3373023,128.19728 70.5564037,127.58286 70.7448258,127.125598 C70.8137077,127.125598 70.8764037,127.125598 70.9457036,127.125598 C71.1024434,126.278785 70.6759439,125.984532 70.7448258,125.118492 C70.7951497,124.397907 71.4279606,122.950049 71.5471664,122.310551 C71.6287547,121.846601 71.3904266,121.350885 71.5471664,120.906162 C71.5726628,120.824239 71.89818,120.723926 71.9485039,120.504908 C73.6102803,121.09425 72.4500713,120.159663 73.553436,121.508043 C73.7732061,121.401042 73.9171559,121.601669 74.1555676,121.508043 C74.2117432,121.488816 74.6257871,120.937092 74.7573649,120.906162 C75.6224015,120.711387 75.7477933,121.276486 76.5628403,120.906162 C77.4471036,120.504908 76.4691308,119.908879 76.3619626,119.501773 C76.299601,119.276068 76.4436345,118.924971 76.3619626,118.699266 C77.8419207,117.639287 78.3875424,117.024866 80.5753794,117.09425 C80.6883156,117.370112 80.7761735,117.834062 80.9767169,118.096549 C81.1271871,118.310551 81.6287545,118.32309 81.7793083,118.498639 L81.7793083,116.291742 C81.8292978,116.04681 82.9450345,114.686726 83.1834462,114.285473 C83.7224639,114.328942 84.2365705,114.285473 84.7882946,114.285473 C84.8509906,114.416716 85.0708443,115.062902 85.1895485,115.08798 C86.9951911,115.495086 87.4783677,113.533122 88.3995798,113.282338 C88.9705307,113.131868 89.2965495,113.39519 89.8039685,113.482965 C89.9987438,113.24472 90.0990573,112.585995 90.4058494,112.47983 C90.6190155,112.410447 91.0018786,112.592683 91.2083572,112.47983 C91.2459747,112.692996 91.5786811,112.799161 91.6096111,112.881084 C91.7224637,113.225494 91.5092976,113.538973 91.6096111,113.884219 C91.4282109,113.921836 90.5312412,113.946915 90.2052224,114.084846 C89.8541252,114.241167 89.703655,115.188294 89.4027146,115.288607 L89.0014607,115.288607 C88.8952956,115.508461 89.1084617,115.884637 89.0014607,116.091115 C89.1393917,116.310133 89.4846373,116.648691 89.6033415,116.893623 C89.8666644,116.655378 90.4250761,116.617761 90.6064763,116.291742 C90.7067898,116.103654 90.5437804,115.7024 90.6064763,115.489234 C90.688399,115.181606 91.2334355,114.93751 91.4089841,114.686726 C91.7918472,114.761962 92.2240311,114.598952 92.6127459,114.686726 C93.302401,114.849736 93.472098,115.652244 94.4183884,115.689861 C95.5034459,115.740018 96.5249715,114.693414 98.0296736,115.08798 C99.0520351,115.363842 98.8004155,116.680457 99.4340623,117.09425 C100.136257,117.564051 101.120165,117.212954 102.042213,117.495504 C102.262066,117.570739 102.606476,117.990384 102.843885,118.096549 C102.843885,118.272933 102.763634,118.749422 102.843885,118.899893 C102.950886,119.11891 103.30867,119.036988 103.446601,119.301146 C104.38704,119.000206 105.578263,118.341481 106.656633,118.899893 C106.914104,119.036988 107.045347,119.74587 107.258514,119.903027 C107.45914,120.066037 107.835316,119.990802 108.061857,120.103654 C108.255797,120.210655 108.662066,120.805849 108.863529,120.906162 C109.333331,121.156946 109.80982,121.131867 110.267082,121.307416 C110.267082,121.307416 110.524553,122.247855 110.468545,122.511178 C110.39331,122.81797 109.722881,123.08798 109.666037,123.313686 C109.509715,123.903027 109.922672,123.821105 109.866664,124.31682 C110.149214,124.523299 110.273769,124.830927 110.468545,125.118492 C111.252662,125.012327 112.142108,124.768231 112.875232,125.118492 C113.31494,125.338346 113.18286,125.783905 113.477949,126.122463 C113.872515,126.592264 114.787876,126.980979 115.282756,127.326225 C115.195817,127.978262 114.99519,128.636151 115.082965,129.131867 C115.1582,129.583278 115.885473,130.008774 116.0861,130.335629 C116.342735,130.767813 116.274187,131.081292 116.487353,131.539391 C116.418806,131.589547 115.909715,131.865409 115.885473,131.940645 C115.791847,132.172202 115.998325,132.328523 115.885473,132.542525 C117.483801,133.676904 117.784741,134.284636 115.885473,135.351303 C117.076695,135.971574 118.11076,136.605221 119.295295,137.156109 C119.201669,137.419432 119.295295,137.877531 119.295295,138.159244 C119.057886,138.272933 118.713477,138.692578 118.493623,138.761961 C117.690279,139.012745 117.195399,138.736883 116.68798,139.163215 C116.474814,139.344615 116.56844,139.827792 116.487353,140.165514 C116.041794,140.009192 116.179725,140.723925 116.0861,140.968857 C116.117029,140.968857 117.208774,140.893622 116.888607,140.768231 C118.180143,140.917865 120.430509,141.075023 119.295295,142.7745 C119.18913,142.930822 118.54378,143.018596 118.493623,143.174918 C118.368231,143.57032 118.850572,144.141271 118.693414,144.78077 C118.56217,145.288189 117.816507,145.388502 117.690279,145.583277 C117.277322,146.210237 117.095086,146.391637 117.890906,146.786203 C117.790593,148.159662 117.722045,148.103654 118.493623,148.792473 C118.537092,148.836778 119.032808,148.792473 119.095504,148.792473 C119.12727,149.018178 119.113895,149.940226 119.295295,150.196861 L120.499057,150.798742 C120.22403,151.638868 119.898012,152.448063 120.097803,153.006475 C120.148795,153.168648 120.668754,153.657676 120.700519,153.808147 C120.775755,154.272096 120.424657,154.103235 120.499057,154.410863 C120.2675,154.360707 119.715775,154.209401 119.696549,154.209401 C119.195817,152.523298 119.383069,151.940644 118.292996,153.406893 C117.759663,153.344197 117.822359,153.150257 117.490488,153.006475 C117.490488,153.006475 117.459558,154.266245 117.490488,154.610654 C119.095504,154.980978 118.493623,154.705116 119.295295,155.814416 C119.470843,155.689024 119.684845,155.896339 119.898012,155.814416 C120.10449,155.733329 120.148795,155.118909 120.29843,155.011908 C121.227165,154.354019 122.475232,154.80543 123.30867,155.011908 C123.214208,155.400623 123.415671,155.839495 123.30867,156.21567 C123.239286,156.448063 122.575546,156.917864 122.506162,157.218805 C122.448482,157.44451 122.392473,158.322253 122.705953,158.22194 L122.705953,158.623194 C122.662484,158.749421 122.129986,159.162378 122.104908,159.225074 C122.054751,159.344615 122.155065,159.72079 122.104908,159.826955 C123.590384,160.478993 123.785159,160.591846 124.512432,162.033852 L124.913685,162.435106 C124.976381,162.873977 124.562588,163.206683 124.712223,163.839494 C124.787458,164.190592 125.45287,164.623611 125.51473,165.043256 C125.571575,165.488815 125.177008,165.977007 125.314103,166.648272 C125.396026,167.049526 126.223612,167.726642 126.317238,168.053496 C126.436778,168.491532 126.242839,169.012326 126.317238,169.457049 C125.000624,170.228627 125.06332,169.902608 124.913685,171.864573 C125.239704,172.071887 125.03239,172.040957 125.113476,172.466453 L125.51473,172.466453 C125.533957,172.065199 125.477949,171.457467 125.51473,170.861438 C125.552348,170.868125 126.630718,170.899055 126.317238,171.062065 C126.393309,171.300309 126.718492,172.090278 126.919955,172.265826 C126.944197,172.297592 126.925807,172.83009 126.919955,172.867707 C126.837196,173.193726 126.323926,173.588292 126.117447,173.870842 C126.279621,174.134165 126.574709,174.435105 126.718492,174.67335 C126.857259,174.918282 127.276904,175.513475 127.321209,175.676485 C127.533539,176.629463 126.932494,177.426119 126.919955,177.883381 C126.888189,178.685889 127.408147,179.099682 127.321209,180.090278 L126.919955,180.692158 C126.461857,182.911594 126.818806,182.567185 124.712223,183.099682 C124.618597,182.698428 124.405431,181.952765 124.310969,181.494666 C123.92309,181.394353 124.060185,181.670215 123.910551,181.294039 C123.208356,181.325805 122.318074,181.4629 121.904281,181.494666 C121.992055,183.030298 121.890906,183.582859 121.503027,184.905325 C120.919537,185.036568 119.928942,185.589128 119.095504,185.306578 C118.944198,185.262273 118.706789,184.811699 118.493623,184.704698 C118.493623,184.240748 118.56217,183.770946 118.493623,183.300309 L118.092369,183.300309 C117.890906,183.72079 118.092369,183.939807 117.890906,184.303444 C117.609192,184.799159 116.59937,185.231343 116.487353,185.908459 C116.292578,187.043673 117.039078,187.074603 116.888607,188.115356 C116.844302,188.397069 115.133121,190.673349 114.882338,190.723506 C113.772202,190.961751 113.609193,190.2094 113.076695,189.920998 C112.423822,189.58244 111.666455,189.40104 111.070426,189.118491 C111.396444,187.801876 112.168022,185.350048 109.666037,185.908459 C108.782442,186.109086 109.026539,186.717655 108.662066,187.513475 C108.600206,187.644718 108.0861,187.783485 108.061857,187.914729 C107.878785,188.836777 108.55005,189.639285 108.061857,190.522879 C107.77262,191.036986 107.052035,190.880664 106.456006,191.12476 C106.411701,191.011907 105.891742,190.843046 105.854125,190.723506 L105.854125,190.723506 Z M46.0681284,165.44451 C45.7794764,165.162796 46.0681284,164.428836 45.8675851,164.040121 C45.6794973,163.689024 44.6199362,163.174918 43.8610647,163.43824 C43.8610647,163.43824 43.48514,164.510759 42.8581807,164.642002 C42.2750251,164.767394 41.522674,164.453914 41.2532487,164.441375 L41.0524546,162.83636 L40.0496542,161.632598 L40.6511171,161.432807 C41.0397482,160.836778 41.0899885,160.598533 41.4537921,159.826955 C41.2405423,159.927269 40.8708872,159.75172 40.6511171,159.826955 C39.9617963,160.0652 39.2156312,162.097384 38.4447221,162.435106 C37.4660806,162.873977 35.7801454,162.824656 34.6326428,163.037822 C34.4255791,162.755273 34.1183691,162.629881 33.8299678,162.435106 C33.8362374,162.435106 33.8299678,161.864155 33.8299678,161.833225 C34.0807515,161.770529 34.149717,161.331657 33.8299678,161.432807 C33.7859135,161.44451 33.660856,161.770529 33.6291737,161.833225 C33.0710964,161.833225 32.3752552,161.814834 31.8236983,161.833225 C31.5857045,160.51661 31.0214412,159.91473 30.4193096,159.024447 C30.1750463,159.212535 29.8553807,159.042838 29.616969,159.225074 C29.5352971,159.28777 29.2346074,159.971574 29.2156315,160.027582 C30.5632594,160.404594 26.9523922,159.952347 28.4133744,159.826955 C28.0871048,159.733329 27.8552971,159.821104 27.6106994,159.626328 L26.4071049,158.22194 C26.0936253,157.664364 26.2565511,156.591846 25.6044299,156.21567 C25.3033223,156.046809 24.4383693,156.059348 24.1999576,156.015879 C23.2157988,153.432807 23.353897,155.143988 21.7923506,154.410863 C21.5353809,154.297175 21.416175,153.595816 21.1905533,153.406893 C20.9839075,153.250571 20.607732,153.325806 20.3879619,153.206266 L20.1874185,152.805848 C19.31001,152.240749 18.4822566,152.435524 17.5793517,152.403758 C17.4601459,152.122044 17.3850779,151.53939 17.1780142,151.199996 C16.8331866,150.660811 16.1121835,150.755273 15.5730822,150.397488 C14.883427,149.952765 13.2474814,147.350467 12.764472,147.187457 C12.7014417,147.169066 11.9177426,147.413162 11.5608775,147.38892 C10.820564,147.344615 9.56079391,146.949213 8.95247627,146.786203 C8.95247627,145.733748 9.04033415,145.012327 9.15327041,144.178053 C8.68923698,144.297593 9.22215233,143.952347 8.75193291,143.978262 L8.35096322,144.379516 C7.67372186,144.560916 6.90275427,143.908878 6.74601446,143.577008 C6.41327466,142.880665 6.69573233,142.260394 6.74601446,141.570738 C7.09051602,141.570738 7.61722865,141.676903 7.94965079,141.570738 C7.76743972,139.276068 8.0120207,139.244302 5.94305523,139.363842 C5.88656203,139.231762 5.44801658,138.855587 5.34123289,138.761961 C5.57308241,137.971156 5.51691522,137.608356 5.74255367,136.754856 C5.6547125,136.768231 4.87722454,136.605221 4.5389257,136.555065 C4.5389257,136.555065 4.62676686,137.595817 2.53265615,136.153811 C2.82751926,133.940227 1.79923924,133.175336 2.13133537,130.736883 C1.54192682,130.398325 0.865011473,129.884218 0.325561538,129.533121 C0.394788705,129.182024 0.250456838,128.886935 0.325561538,128.529986 C0.426136666,128.028419 1.05309924,127.363842 1.1282006,126.724344 C1.20330196,126.028001 1.12199788,125.431972 0.927707396,124.918701 C0.921170301,124.906162 0.52638494,124.717238 0.52638494,124.717238 C0.30074482,123.476695 0.801985351,121.997071 0.927707396,120.906162 C1.17228001,120.824239 1.44168021,120.917865 1.52952138,120.705535 C1.61703653,120.492369 1.41686099,120.116193 1.52952138,119.903027 C1.38518701,119.73333 0.846068944,119.501773 0.726880651,119.301146 C0.0751045331,118.247855 0.695532689,117.300729 0.52638494,116.091115 C0.52638494,116.091115 0.16882173,115.915567 0.125391846,115.890488 L0.125391846,115.489234 C0.0685737078,115.175755 -0.125718701,114.50449 0.125391846,113.884219 C0.175026119,113.758827 0.614224436,113.595817 0.726880651,113.482965 L0.726880651,113.081711 C2.802048,112.937092 2.82099053,112.918701 3.93678569,114.285473 C4.08731442,114.235316 4.51345443,114.072306 4.5389257,114.084846 C4.45108453,113.802296 4.16242414,113.420269 4.13760491,113.282338 C4.07490899,112.987249 4.33809812,112.078576 4.33809812,112.078576 C4.42593928,112.01588 4.90268744,111.790175 4.94024648,111.677322 C5.09044919,111.213372 4.89615871,110.567186 4.94024648,110.072307 C3.10279616,110.924971 1.90569692,110.749423 2.73314936,108.467291 C2.83339596,108.184741 2.71421519,108.009193 2.93397694,107.86541 C3.29773868,107.633853 3.85547326,107.877949 4.33809812,107.664783 C4.46348996,107.607939 4.80831754,106.887354 4.94024648,106.862275 C6.23171562,106.624031 6.75189116,107.933958 7.14700923,108.667918 C7.37297369,108.555065 7.69854108,108.279203 7.94965079,108.266664 C7.25378456,106.874814 7.5297135,107.081293 7.94965079,105.859141 C7.90556302,105.84075 7.94965079,105.307416 7.94965079,105.25726 C7.84319312,105.551513 7.72988904,104.737301 7.74882321,104.655379 C8.00580962,103.464156 9.65450342,103.577009 10.7582024,103.652244 C10.6955065,103.551931 10.79582,103.169903 10.7582024,103.050363 C10.5450363,102.511178 9.22842192,101.934376 8.75193291,101.645974 C8.87080438,101.307416 8.62687544,100.987249 8.75193291,100.64284 C8.8211492,100.442213 9.92459745,99.4959223 10.1560708,99.439078 C10.9839078,99.238451 12.457262,99.7650968 12.9650153,100.040959 C13.1531031,100.147124 13.4851407,100.799997 13.7676068,100.843467 C14.4070216,100.949632 14.6326433,100.592683 15.1717447,100.442213 C15.1593727,100.442213 15.1717447,99.8712619 15.1717447,99.8403319 C12.6704281,99.5644698 12.0121209,98.9441982 13.3663529,97.0315545 C14.4383695,97.3074166 14.6956736,97.1636339 15.7735419,97.4328084 C15.8552138,96.7749192 16.03745,95.4766956 16.5765513,95.2259119 C16.9396861,95.0629025 17.5666453,95.2827562 17.9806892,95.2259119 C20.112685,94.9375107 20.1622565,94.0154626 21.5915564,96.0284198 C22.6198531,95.9155671 23.2533328,95.7400185 23.9994978,96.0284198 L24.4008353,96.4296737 C25.0715145,96.5232996 25.7611697,96.0660373 26.2062271,96.0284198 C26.7766764,95.9908022 26.9775542,96.2290467 27.4099053,96.2290467 C27.5352971,96.7364657 27.635527,97.1761731 27.8111592,97.8340623 C27.4914936,98.0906977 27.1653076,98.2160895 26.8080244,98.4359432 L26.8080244,98.8371971 C27.4729356,99.1506767 28.2249523,99.6455565 28.814294,99.8403319 C29.5036983,100.072725 30.5760494,100.166351 31.221901,99.8403319 L31.6232385,99.439078 C32.6573869,99.2886078 33.1716606,99.9347937 33.8299678,100.040959 C34.2816292,100.122882 35.0150043,99.8654103 35.4349834,100.040959 C36.0491527,100.310133 36.0119531,101.5582 36.4381182,102.047228 C36.8831757,102.573874 37.8928308,102.81797 38.4447221,103.25099 C38.2563,103.740018 39.046185,103.25099 39.046185,103.25099 C39.3283167,101.426957 39.0213574,101.733749 40.8519112,101.445348 C41.1526844,102.015462 41.6480658,103.231763 42.4569268,103.25099 C42.8079404,103.263529 42.5695287,102.975128 43.0587241,103.050363 C43.158954,102.768649 42.9519738,102.33563 43.0587241,102.047228 C43.0965924,101.940227 43.5602915,101.651826 43.6605214,101.445348 C43.8802915,101.533122 44.2313051,101.388503 44.4631964,101.445348 C45.0901556,101.620896 45.4284628,103.075442 45.6667909,103.652244 C47.9114722,103.746706 47.4474387,103.539391 48.2748577,105.056633 C49.1715766,104.937092 49.63561,105.000624 50.4816706,105.056633 C50.525725,105.276486 50.851911,105.375964 50.8830081,105.457887 C51.0334783,105.896758 50.7327887,106.423404 50.8830081,106.862275 C51.0021304,107.219224 51.8485253,107.557782 52.0866027,107.86541 C52.3435724,108.20982 52.3811063,108.799997 52.6887343,109.069172 C53.2781596,109.601669 54.1996225,109.626748 54.4945441,110.47356 C54.6447635,110.918284 54.4066862,111.413999 54.4945441,111.877949 C54.5320781,112.116194 55.0711794,112.843466 55.096007,113.081711 C55.2468952,114.611491 54.3626319,114.749422 53.4910749,115.288607 C53.2278357,114.93751 52.9581596,114.630718 52.6887343,114.285473 C53.1903017,114.191011 52.0866027,113.884219 52.0866027,113.884219 C52.2746904,114.96844 51.9298629,114.93751 53.0900718,115.689861 C53.5541052,115.996653 53.8547949,115.965723 54.2936664,116.291742 C54.4253278,116.397907 54.5379297,116.82424 54.6946695,116.893623 C55.3781386,117.225493 56.2121616,116.918701 56.9018168,117.294877 C57.2214824,117.476277 57.052287,118.103236 57.3030707,118.298012 C56.9895911,118.874814 57.2280027,118.962588 56.700939,119.301146 C56.4002494,119.495086 56.0805002,119.539391 55.6981386,119.7024 C55.9113884,119.846183 56.0554218,120.410446 56.2996015,120.504908 C56.8766548,120.736465 57.4598105,120.448064 57.9046172,120.705535 C58.2996851,120.94378 58.0365294,121.332494 58.3058711,121.70867 C58.4754008,121.959454 59.1526004,122.078158 59.3093402,122.310551 C59.4909076,122.598952 60.2243663,124.761543 60.1116808,125.319955 C60.0427989,125.639286 59.4158397,125.896758 59.3093402,126.122463 C59.0895701,126.592264 59.2652859,126.911596 59.1085461,127.526852 C59.3717018,127.538555 59.4030497,127.903027 59.5098836,127.928105 C59.9362994,128.040958 60.0868533,127.58286 60.3121406,127.526852 C61.5285251,127.25099 61.7854948,127.965723 62.3187445,128.329359 C62.2181803,129.187876 62.0866024,130.247855 62.1179504,130.93751 C61.1648052,131.41985 60.7703224,131.11891 60.7138125,132.542525 C60.6507822,133.921836 61.3972816,133.834061 61.5164875,134.348168 C61.610197,134.767813 61.321545,135.470007 61.3152754,135.55193 C61.1648052,137.319955 61.8044708,137.501355 61.3152754,139.163215 C61.5853694,139.262692 62.0362785,139.163215 62.3187445,139.163215 C62.920291,140.448063 62.8451395,139.921418 62.5192879,141.370111 C62.2498626,141.451198 61.8861427,141.419432 61.7166129,141.570738 C61.2718898,141.983696 60.8705523,142.717656 60.5130183,143.174918 C61.3783057,143.864573 61.9925585,144.548377 62.920291,145.181188 C62.8137915,145.532285 63.0208553,145.839913 62.920291,146.185158 C62.8826735,146.303863 62.3625481,146.780352 62.3187445,146.987666 C62.1306568,147.858721 62.2309702,148.417133 62.1179504,149.193727 C62.3435721,149.187875 63.208943,149.044092 63.7228824,148.993936 C63.7228824,148.993936 63.9612941,149.920999 63.9237602,150.196861 C63.9051186,150.298011 62.9646797,152.761543 62.920291,152.805848 C62.720082,152.9931 62.1244708,153.075022 61.9174906,153.206266 C62.2123286,154.135001 62.8954634,155.802713 61.7166129,156.21567 C61.3717853,156.341062 61.0521197,156.096966 60.7138125,156.21567 C60.5691939,155.839495 60.4688804,155.495085 60.3121406,155.212535 C59.3093402,153.463737 60.1368428,155.099683 59.3093402,154.812117 C59.3093402,155.175754 59.3968637,155.670634 59.3093402,156.015879 C59.3717018,156.053497 59.6979713,156.178053 59.7103433,156.21567 C59.7982012,156.510759 59.9108867,156.466454 60.1116808,156.616924 C59.9490894,157.055795 59.7668533,157.513894 59.7103433,157.820686 C59.3531438,157.651825 58.0930393,157.125179 57.7044082,157.218805 C57.6603538,157.231344 57.2025064,157.795607 57.1022765,157.820686 C56.8704688,157.883382 56.5193716,157.739599 56.2996015,157.820686 C56.1428617,157.671051 55.6726423,156.880247 55.4973445,156.817551 C55.2782431,156.749003 54.8955472,156.930404 54.6946695,156.817551 C55.3967802,156.817551 54.2996016,159.413162 54.2936664,159.425701 C55.3216287,159.808564 55.3657666,159.927269 56.0994761,160.428836 C56.0050979,160.779933 56.0994761,161.275649 56.0994761,161.632598 C55.2213988,161.802295 55.0456831,161.920999 53.8924124,161.833225 C53.6350248,162.359871 53.6980551,162.297175 53.2905316,162.636569 C52.6760279,162.259557 52.5946904,162.009609 51.6859339,161.632598 C51.4534574,159.595398 51.5788493,159.620477 53.2905316,159.626328 C52.8768221,158.79289 52.9519736,158.479411 52.6887343,157.419432 C52.1868326,158.084009 51.4599778,158.837196 50.6824648,159.225074 C50.6194345,159.225074 50.5505526,159.225074 50.4816706,159.225074 C50.1371774,159.921417 50.3879611,160.899474 50.2811273,161.632598 C50.7072924,161.714521 50.6576372,161.632598 50.8830081,161.833225 C51.1775118,162.109087 51.8609809,162.316401 52.0866027,162.636569 C52.1809809,162.773664 52.2498629,163.475858 52.0866027,163.237613 C52.0242411,163.269379 51.7986194,163.984113 51.6859339,164.040121 C50.7327887,164.535837 49.2845129,163.846182 48.4754011,164.040121 C47.9049518,164.18474 47.6106989,165.463737 47.0712632,165.645137 L46.6702601,165.645137 C46.5569894,165.457885 46.2058923,165.589129 46.0681284,165.44451 L46.0681284,165.44451 Z M170.455168,162.83636 C170.229463,162.491114 170.361542,162.297175 170.254541,161.833225 C169.338345,162.078157 168.956318,161.996234 168.047645,162.234479 C166.824656,159.607937 167.264364,160.347749 164.235733,160.228209 L163.232598,159.826955 C163.07544,159.796025 162.875649,160.00334 163.031971,160.027582 C162.749421,160.152974 162.304698,159.908878 162.028836,160.027582 C161.772201,160.140435 161.727896,161.41358 160.624447,161.031553 C160.599369,161.024865 160.141271,160.265827 160.624447,160.428836 C160.624447,160.428836 160.781605,159.444928 160.825074,159.225074 C159.903862,158.573037 160.047645,158.80543 159.420686,157.820686 C158.824656,157.996234 158.612326,157.958617 158.216924,158.22194 C157.457885,158.729359 157.859975,159.169066 158.016297,159.024447 C158.084845,159.470006 158.605639,159.45078 158.417551,160.228209 C158.367394,160.416297 157.722044,160.667081 157.615043,160.83009 C157.446182,161.080874 157.508878,161.313267 157.414416,161.632598 C157.345869,161.620059 156.70637,161.783904 156.411281,161.833225 C156.330195,160.836778 156.248272,159.808564 156.411281,158.623194 C155.922253,158.573037 154.668335,158.64242 154.004594,158.422567 C153.715357,158.335628 153.088397,157.457885 152.799996,157.218805 C152.549212,157.331658 152.054333,157.218805 151.796861,157.218805 C151.703235,157.544824 151.665618,157.902608 151.59707,158.422567 C151.032807,158.567185 150.216924,159.10637 149.189547,158.82382 C149.063319,158.79289 148.649526,158.247854 148.58683,158.22194 L148.185576,158.22194 C146.731031,156.805012 148.982232,156.485681 149.790592,156.015879 C150.041376,155.87126 150.343152,155.369693 150.5931,155.212535 C150.260393,154.987666 150.041376,154.843047 149.790592,154.610654 C148.912849,155.231762 147.935628,155.964886 146.379934,155.413162 C146.041376,155.301146 145.715357,154.705116 145.376799,154.610654 C144.993936,154.510341 144.5559,154.686725 144.173873,154.610654 C143.966559,155.407311 143.526851,156.987248 142.568857,157.018178 C142.255378,157.030717 141.979516,156.704698 141.565723,156.616924 C141.51473,156.403758 141.188711,156.303444 141.163633,156.21567 C140.976381,155.683173 141.001459,154.80543 140.963842,154.410863 C139.496757,154.033852 138.499474,153.608356 136.74984,153.406893 C136.455587,152.61776 136.261648,152.084427 135.948168,151.401459 L135.546078,151.401459 L135.546078,151.801877 C135.208356,152.767394 134.229464,152.34775 133.540645,152.203131 C133.283173,150.67335 132.888607,150.359871 132.336883,149.193727 C130.625702,149.764678 131.007729,149.732912 129.727896,149.193727 C129.727896,148.83009 129.809819,148.353601 129.727896,147.990801 L130.329777,147.790174 C130.32309,147.790174 130.329777,147.219223 130.329777,147.187457 C129.314103,147.338763 128.750676,147.219223 127.922254,147.187457 C127.847019,146.736882 127.364678,146.792891 127.521836,145.984531 C127.528523,145.940226 128.155483,145.200414 128.123717,145.181188 C127.552766,144.942943 127.271052,143.577008 127.119746,142.975127 C125.458722,142.554646 124.680457,142.604803 123.509297,141.770529 C123.577844,141.319955 123.352975,140.799161 123.509297,140.366141 C123.646392,139.990801 124.649527,139.695712 124.913685,139.363842 C125.227165,138.96844 125.296549,138.022149 125.716193,137.758826 C126.174292,137.469589 126.612327,137.821522 126.919955,137.758826 C126.963424,137.752139 127.132285,137.388502 127.321209,137.357572 C127.314521,137.344197 126.963424,136.165514 127.119746,136.153811 C125.784741,136.304281 125.390175,136.285054 124.111178,135.953184 C124.198952,136.893622 124.430509,138.247854 123.509297,138.561334 C123.283591,138.642421 122.913268,138.466872 122.705953,138.561334 C122.656632,138.348168 122.330613,138.247854 122.305535,138.159244 C121.985368,137.23218 122.737719,136.856005 122.506162,135.953184 C122.374919,135.470007 119.64054,133.219641 119.095504,132.542525 C119.333748,132.31682 119.18913,132.16635 119.295295,131.739182 C119.778471,131.61379 120.594354,131.23845 121.101773,131.138137 C118.793727,130.567186 117.660185,129.746287 118.693414,127.526852 C117.997907,127.031136 116.274187,125.169485 116.487353,123.915566 C116.530823,123.639704 117.220478,123.313686 117.289861,123.112223 C117.365096,122.893205 117.189548,122.523717 117.289861,122.310551 C116.850154,122.059767 114.581397,120.379516 114.481084,120.103654 C114.342317,119.74587 114.562171,119.28192 114.481084,118.899893 C114.568858,118.880666 115.133121,118.78704 115.282756,118.699266 C115.434062,118.611491 115.365514,118.17262 115.484219,118.096549 C115.164887,117.5582 114.2303,116.84263 114.07983,116.291742 C113.847437,115.457468 114.456005,113.946915 113.67774,113.683592 C113.227165,113.538973 114.280457,112.47983 114.280457,112.47983 C114.280457,112.410447 114.280457,112.347751 114.280457,112.279203 C114.418388,112.210656 114.800415,111.583696 114.882338,111.476695 C115.088816,111.188294 115.226747,111.10052 115.484219,110.874814 C115.057886,110.253707 114.028837,109.207103 114.481084,107.86541 C114.525389,107.720791 114.975964,107.482547 115.082965,107.263529 C115.641376,107.357155 116.079412,107.451617 116.487353,107.464156 C116.487353,106.793728 116.487353,106.135003 116.487353,105.457887 C116.530823,105.896758 116.499057,103.357155 116.68798,103.050363 C116.812536,102.843885 117.653498,102.81797 117.890906,102.649109 C118.029673,102.548796 118.104072,101.965306 118.292996,101.846601 C118.751094,101.564052 119.665619,101.388503 120.097803,101.244721 C120.097803,100.723926 119.916402,99.7274792 120.097803,99.238451 C120.311805,98.6491093 121.270634,98.6992661 121.904281,98.4359432 C122.104908,98.731032 122.475232,98.9441982 122.705953,99.238451 C122.889025,99.4833831 122.970112,99.8027143 123.108043,100.040959 C123.271052,99.5577823 123.7024,98.147542 124.111178,97.8340623 C124.813372,97.2890258 125.552348,97.5080435 126.518701,97.6334354 C126.430927,97.4955044 126.550467,97.1820247 126.518701,97.0315545 C126.461857,96.8183884 125.684427,96.1981167 125.51473,96.0284198 C125.696967,95.7717844 125.803968,95.2827562 125.91682,95.025285 C126.574709,95.025285 127.14566,95.1130593 127.922254,95.025285 C128.235733,94.993519 128.724762,94.4484825 129.528105,94.6240311 C129.702818,94.6683362 130.155065,95.3705305 130.329777,95.4265389 C130.549631,95.5084616 130.912431,95.3387646 131.133121,95.4265389 C132.280038,93.8031325 131.534375,93.7145222 133.941898,93.2196424 C134.612327,94.179308 135.220059,96.2231951 137.151094,95.8277928 C137.264782,95.809402 137.740435,95.0754417 137.953602,95.025285 C138.700101,94.8689631 139.113894,95.4583048 139.960707,95.2259119 C140.154646,95.1757552 140.380352,94.5362568 140.561752,94.4234041 C140.881919,94.2286288 141.207938,94.4300917 141.565723,94.2227772 C141.765514,94.1107604 141.79728,93.5398096 141.966141,93.4211053 C142.311386,93.1761732 144.794145,92.1981168 145.577426,92.4171346 C145.922671,92.5232997 146.135838,93.3141043 146.581397,93.4211053 C147.653079,93.6902798 148.148795,92.9630071 149.189547,93.2196424 C149.896757,93.4010426 150.348168,94.7870405 150.5931,95.4265389 C153.339181,95.0570509 152.430508,95.363843 154.004594,96.4296737 C154.323925,96.655379 154.711804,96.6110739 155.007729,96.8309276 C155.182441,96.9688586 155.401459,97.5707395 155.608774,97.6334354 C156.423821,97.9026099 157.376799,97.4269568 158.216924,97.6334354 C158.568021,97.7270613 158.931657,98.254543 159.220895,98.4359432 C159.157363,98.7686496 159.006893,99.3387645 159.020268,99.439078 C158.542943,99.6580957 158.028836,100.035107 157.615043,100.241586 C158.286307,100.191429 159.214207,99.9782629 159.621313,100.040959 C160.330195,100.153811 162.109923,101.526434 162.228627,102.247855 C162.329777,102.899893 161.308251,103.696549 162.228627,104.053498 C162.718491,104.248273 163.502608,103.972411 164.035942,104.053498 C164.505743,104.128733 165.414416,104.698848 165.840748,104.856006 C165.746286,105.119329 165.840748,105.577427 165.840748,105.859141 C164.473977,106.504491 164.210654,106.554647 162.831344,105.658514 L162.630717,105.25726 C161.921835,105.138555 162.059766,105.627584 161.628418,105.658514 C161.677739,105.965306 161.834897,106.592265 161.828209,106.661648 C163.413998,106.511178 164.185576,106.511178 165.03824,107.464156 C166.555482,109.169485 165.696966,109.658513 163.833643,110.272934 C163.940644,110.498639 163.740017,110.643257 163.833643,110.874814 C163.916401,111.10052 164.5559,111.457468 164.636151,111.677322 C164.712222,111.903028 164.543361,112.266664 164.636151,112.47983 L165.03824,112.47983 C165.076694,112.460603 165.03824,111.752557 165.03824,111.677322 C165.301563,111.545243 165.508042,111.545243 165.640121,111.276068 C166.71264,111.633017 168.524134,112.347751 168.649526,113.482965 C168.825074,115.200833 166.737718,115.157364 165.640121,115.08798 C166.110759,116.234898 166.254541,116.856005 166.041375,118.298012 C166.517028,118.47356 166.737718,118.391638 167.244301,118.498639 C167.288606,118.717656 167.614625,118.81797 167.646391,118.899893 C168.010027,119.965723 167.595398,119.915566 168.248272,120.705535 C168.498219,121.019015 168.937927,121.238032 169.251406,121.508043 C169.20125,121.332494 168.862692,120.8117 168.849317,120.705535 C168.749003,120.040958 169.226328,119.871261 169.051615,119.301146 C168.982232,119.100519 168.210654,118.649109 168.047645,118.498639 C168.135419,118.241167 168.047645,117.783069 168.047645,117.495504 C169.031553,117.307416 168.932075,116.592683 170.053914,117.696131 C170.410863,118.059767 170.254541,118.360708 170.455168,118.899893 C170.643256,118.780352 171.043674,118.987667 171.25684,118.899893 C171.413998,118.837197 171.596234,118.059767 171.65893,117.896758 C172.45475,118.278785 173.488815,118.373247 173.86499,119.100519 C173.953601,119.28192 174.480246,121.952766 174.467707,122.109924 C174.436777,122.441794 173.921835,122.749422 174.066453,123.514312 C174.066453,123.514312 174.975126,125.100101 175.069588,125.319955 C174.374081,125.508043 174.210236,125.764678 173.464572,125.921836 C173.570738,125.990383 173.35172,126.461021 173.464572,126.523717 C173.758825,126.699265 174.160915,126.65496 174.467707,126.724344 C174.454332,126.950049 174.335628,127.933957 174.467707,128.329359 C174.517864,128.49822 175.118909,128.8117 175.270215,128.93124 C174.799578,129.927687 174.680873,130.50449 174.26708,131.539391 C174.699264,131.745869 175.076276,131.677322 175.470842,131.940645 C175.628,132.052661 175.884635,132.673769 176.072723,132.743152 C176.705534,132.999788 177.307415,132.755692 177.87753,132.943779 C178.247853,133.075023 178.498637,133.551512 179.082127,133.54566 C180.316819,133.533121 180.57429,132.266663 180.88777,131.338764 C181.06917,131.444929 181.558198,131.745869 181.690278,131.739182 C181.608355,132.818387 181.746286,133.250571 181.890905,134.147541 C181.928522,134.385786 181.701981,134.661648 181.690278,134.548795 C181.690278,134.579725 181.690278,135.14984 181.690278,135.14984 C182.379933,135.695712 183.000204,136.215671 183.696547,136.754856 C183.621312,137.144406 183.796025,137.583278 183.696547,137.959453 L183.295293,138.359871 C183.295293,138.359871 183.113057,138.723508 183.094666,138.761961 C182.442629,138.667499 181.708668,138.366559 181.088397,138.561334 C180.988083,138.592264 180.649525,139.08798 180.486516,139.163215 C180.957153,139.927269 181.081709,140.19728 181.690278,140.768231 C181.420267,141.821522 180.718909,144.793309 180.88777,145.783068 C181.012326,146.567185 182.253705,147.163215 182.492785,147.790174 C183.069588,149.375963 181.997906,153.012326 181.088397,153.406893 C180.134583,153.821522 179.025283,153.168648 178.078992,153.608356 C177.778052,153.752138 177.87753,154.334792 177.677739,154.610654 C177.263945,155.181605 176.42382,154.993518 175.872096,155.413162 C175.232598,155.896339 174.548794,158.359871 173.86499,158.623194 C173.65266,158.705116 173.44033,158.497802 173.263946,158.623194 C172.900309,156.623612 172.969693,156.704698 171.057049,156.21567 C170.91243,156.478993 170.86311,156.924552 170.655795,157.218805 C170.499473,157.438659 169.715356,157.614207 169.651824,157.820686 C169.421103,158.573037 170.08568,158.968439 169.853287,159.826955 C169.765513,160.128732 169.06917,160.435524 168.849317,160.630299 C168.849317,160.630299 169.031553,161.005639 169.051615,161.031553 C169.539808,160.993099 170.185994,161.187875 170.655795,161.031553 C171.057049,160.899474 171.351302,159.959035 171.859557,159.826955 C174.405011,159.181605 173.871678,161.055795 172.862692,161.833225 C172.186412,162.359871 171.596234,162.573037 170.856422,163.037822 L170.455168,162.83636 Z M161.226328,136.754856 C161.207937,136.761543 159.803549,136.422985 159.220895,136.354438 C159.250989,136.159662 159.031971,135.633016 159.420686,135.752557 C159.647227,135.470007 159.816088,135.08798 160.023402,134.748586 C161.151093,134.924971 161.057467,134.373246 161.828209,135.55193 L162.228627,135.752557 C162.272932,135.915566 162.109923,136.585994 162.028836,136.354438 C161.690278,136.485681 161.890905,136.730613 161.226328,136.754856 Z M95.4215232,109.470426 C95.4282108,109.364261 95.4215232,106.862275 95.4215232,106.862275 C95.3212097,106.711805 94.9141042,106.618179 94.8196424,106.461021 C94.7318681,106.328942 94.7251805,105.551513 94.6190154,105.457887 C94.318075,105.21379 94.117448,105.351722 93.6158806,105.25726 C93.8666643,105.126016 93.1393916,105.019015 93.0139998,105.056633 C92.9203739,105.088399 92.8200604,105.395191 92.6127459,105.457887 C92.7506769,106.511178 93.0139998,107.68401 92.010865,108.066037 C91.6096111,108.223195 91.5469152,107.783487 91.0077302,107.86541 C90.8388692,107.89634 90.3682318,108.435525 90.2052224,108.467291 C88.6194335,108.811701 87.93563,107.752557 87.1958181,107.263529 C86.9951911,107.394773 86.8071034,107.181607 86.5939372,107.263529 C86.2871452,107.382233 86.073979,108.13542 85.7914294,108.266664 C85.0833835,108.605222 83.308838,108.460603 82.5816489,108.066037 C81.6225685,107.55193 82.1299875,105.401878 81.5785142,104.454752 C81.4909906,104.310133 80.1930178,103.263529 79.9735821,103.050363 C79.7416908,103.269381 78.9890053,104.191429 78.769904,104.254125 C76.6754422,104.856006 75.3905101,101.269799 74.355693,105.056633 C74.2434255,105.069172 73.5847839,105.364261 73.1520985,105.25726 L72.9516387,104.856006 C72.2870619,104.429673 71.7355886,103.558618 72.750761,103.050363 C72.9202908,102.96844 72.4689637,102.830509 72.5506356,102.649109 C72.1117641,102.536257 71.5847004,102.165933 71.1461633,102.247855 C70.6322239,102.354856 70.6945855,103.238451 69.5412313,103.050363 C69.2590996,103.006058 67.8608134,101.67774 67.7357559,101.645974 C67.290364,101.552349 66.3561112,101.778054 65.729152,101.846601 L65.5286922,101.244721 C63.9423182,100.830927 65.66027,102.059768 65.9300297,102.247855 C65.8735198,102.554647 65.71678,103.181607 65.729152,103.25099 C64.920291,103.376382 64.6822972,103.338764 63.9237602,103.451617 C63.8675846,103.188294 63.6853485,103.181607 63.5224227,103.050363 C63.7294028,102.235316 63.7228824,101.890071 63.9237602,101.244721 C63.4159232,101.013164 62.7387236,101.119329 62.5192879,100.64284 C62.3250141,100.248273 62.3497581,99.1255984 62.3187445,98.8371971 C61.9108866,98.962589 61.9174906,98.5178659 61.5164875,98.6365702 C61.2525795,98.7176569 61.1024436,99.5268523 60.7138125,99.6397049 C59.6666234,99.9531845 58.7199985,99.7024009 57.7044082,99.8403319 C57.5414824,97.8215232 56.6072295,96.517448 55.6981386,95.2259119 C55.6037604,95.2952954 55.1903852,95.2259119 55.096007,95.2259119 C54.6761115,96.116194 54.7322034,95.9406455 54.4945441,97.2321815 C54.1555681,97.3258074 54.1810645,97.0817113 54.0932066,97.4328084 C53.8861429,97.3258074 53.5037813,97.5080435 53.2905316,97.4328084 C53.1964877,97.4077301 53.0959234,97.1067896 52.8889433,97.0315545 C52.8889433,97.0257029 52.90817,96.0911157 53.0900718,96.4296737 C53.0397479,96.2357343 52.8889433,95.6271658 52.8889433,95.6271658 C52.4255786,95.5586183 51.9174909,95.7776361 51.4851398,95.6271658 C51.1964877,95.532704 50.9645964,94.7494229 50.6824648,94.6240311 C49.2152966,93.9845327 47.9362997,94.8313456 46.870469,95.2259119 C46.444304,94.6491094 46.1431963,94.5362568 45.8675851,93.6208963 C45.8738547,93.7772181 45.9427366,94.9692766 45.8675851,95.2259119 C45.8300511,95.3454522 45.4973447,95.3763822 45.4659968,95.6271658 C45.1776791,95.5268524 44.745328,95.7341669 44.4631964,95.6271658 C44.3064566,95.5770091 43.936467,95.1824428 43.6605214,95.025285 C43.4662476,95.1506768 43.2591839,95.7216277 43.0587241,95.8277928 C42.7704065,95.978263 40.688651,96.3669777 40.2497796,96.2290467 C40.2122456,96.2231951 40.0871881,95.8654104 40.0496542,95.8277928 C38.8767388,94.7995797 39.4850565,95.0436758 39.6483167,93.8215233 L39.8485256,93.0190154 C39.8547116,93.0248671 40.7889645,93.0440938 40.4506573,93.2196424 C40.682465,93.2196424 41.0149206,93.2071032 41.2532487,93.2196424 C41.2532487,93.1569465 41.2215664,92.4296738 41.2532487,92.4171346 C40.7765089,92.5115964 40.9208767,92.1295693 40.4506573,92.2165076 C40.2873971,92.2474376 39.8109081,92.9872495 39.6483167,93.0190154 C39.0272091,93.1502589 36.8773241,92.4739789 36.4381182,92.2165076 C36.2375749,92.103655 36.3816083,91.7592454 36.2375749,91.6137908 C35.9929772,91.3830698 35.5475853,91.4139998 35.2341057,91.2133729 C35.1028622,91.1381377 34.9582436,90.6624847 34.8328518,90.611492 C34.7139803,90.5671869 34.3378048,90.6741879 34.2313053,90.611492 C34.0870211,90.9818159 33.9302813,90.6048044 33.8299678,90.8121189 C33.7483795,90.9759643 33.8299678,91.4390782 33.8299678,91.6137908 C33.4789542,91.6965494 33.7170315,91.6898619 33.6291737,92.0158807 C33.2781601,92.0158807 32.7517651,91.9164031 32.4255791,92.0158807 C31.9804381,91.395609 31.4851403,90.5554836 30.8205635,90.2102381 C29.8487767,89.7153583 27.5603755,89.6016697 27.0085678,88.8058494 C26.7956524,88.5115965 27.0150881,88.304282 26.8080244,88.0033416 C26.4570108,88.1287334 26.6512846,87.7784722 26.6072303,87.6020877 C26.0936253,87.7584095 26.6072303,87.0002068 26.6072303,87.0002068 C27.134294,86.843049 27.2596858,87.2142089 27.8111592,87.2008338 C27.8111592,87.1765913 27.8049732,86.6048045 27.8111592,86.5989529 C27.3161958,86.4551703 27.3595813,86.536257 26.8080244,86.3983259 C27.109132,86.1910114 26.2437611,86.2110741 26.2062271,86.197699 L26.0057674,87.2008338 C25.8675856,87.2827564 25.0588082,87.0938327 25.0026326,87.2008338 C24.8331028,87.5335401 25.0026326,88.4238222 25.0026326,88.8058494 C22.8519952,89.2823384 23.5416504,89.1510949 22.5950256,87.4014607 C22.5574916,87.3387648 21.9928939,86.8179707 21.9928939,86.8004158 C21.8303025,86.0848463 22.2877319,85.4520355 22.1936881,84.9939373 C22.1437821,84.7807711 21.6607727,84.5926834 21.5915564,84.3928924 C21.3472931,84.4990574 20.8581813,84.3928924 20.588756,84.3928924 C20.6204384,84.9571557 20.6766139,85.1887126 20.7892158,85.7964451 C20.613918,85.9343761 20.4320162,85.9159853 20.3879619,86.197699 C20.0055167,86.1784722 18.983824,85.997072 18.983824,85.997072 C18.971034,85.9845329 18.4133747,85.8340626 18.3820267,85.7964451 C18.0998951,85.5264346 18.2566349,84.674606 17.9806892,84.3928924 C17.5793517,83.9966541 16.7894667,84.1538119 16.3757572,83.7901755 C16.2375754,83.6771557 16.3757572,83.2761526 16.1752138,83.1883783 C15.8927478,83.08121 15.4480247,83.3009802 15.1717447,83.1883783 C15.3788084,83.2886082 14.7707415,83.5896322 14.7707415,83.5896322 C14.8083591,83.6523281 15.1717447,84.1922654 15.1717447,84.1922654 C15.8865618,84.4104472 16.5885889,84.2975945 16.9778888,84.7933103 C17.0154228,84.8434671 17.3788919,85.3951912 17.3788919,85.3951912 C17.4481082,85.6961316 17.1780142,86.5989529 17.1780142,86.5989529 C15.2785785,86.5989529 14.1813999,86.3732476 13.1658095,84.9939373 C12.9963633,84.7749195 12.9963633,84.2975945 12.764472,84.1922654 C12.1503027,83.922255 11.4475232,84.2792037 10.9587458,83.9908025 C10.7017761,83.8461839 9.94315545,81.4579708 10.1560708,80.7807712 C10.2002087,80.6429238 10.6579726,80.3921401 10.7582024,80.178974 C11.122006,80.178974 11.5984114,80.2667483 11.962215,80.178974 C11.9367186,80.1413564 11.7176173,79.7900085 11.7610028,79.7776365 C10.2252871,79.5085456 10.1750468,79.169904 9.55460791,77.9718267 C7.55453273,77.9718267 7.24105311,77.809904 6.74601446,76.3668946 L6.74601446,75.9655571 C6.33816494,75.6397055 5.56720571,75.8663304 5.14041366,75.564554 C4.15654744,74.8815028 4.94024648,72.0728927 4.94024648,70.3490892 C5.81145231,70.1100087 7.05296534,69.7028196 7.34750243,68.9436137 C7.42914088,68.7306984 7.21623388,68.5426106 7.34750243,68.3428196 C6.877283,68.0159649 4.22544608,65.6592669 4.13760491,65.3334153 C3.94951714,64.6930809 4.28161327,64.2724331 4.33809812,63.7284833 C4.6012956,63.7408553 5.00261638,63.4273756 5.54173445,63.5269368 C5.96819212,63.6144603 6.0687731,64.1480444 6.34436766,64.3302805 C6.35090475,64.3302805 7.23485039,64.0168009 6.94619,63.9279399 C7.07158185,63.8345648 7.47943137,63.6657873 7.54833001,63.5269368 C7.77396846,63.0763621 7.5920834,62.7377205 7.74882321,62.1225481 C7.47289428,62.0732273 7.45396011,61.7404373 7.34750243,61.5206672 C7.1280667,61.6275011 6.89002282,62.0780758 6.74601446,62.1225481 C6.31923077,62.2671667 5.78010435,62.0598522 5.34123289,62.1225481 C5.12833425,61.47143 4.43835308,60.2733527 4.5389257,59.5143977 C4.55165715,59.3896746 5.10286299,59.0011271 5.14041366,58.912266 C5.44181387,58.235986 5.08424648,58.223614 5.14041366,57.5087969 C4.88375327,57.640124 4.97779716,57.2005837 4.5389257,57.307334 C4.48863521,57.3200404 4.31328725,57.6652023 4.13760491,57.7096746 C4.93370939,58.0096955 3.01528101,58.0096955 3.53546491,57.9101344 L3.33528936,57.1068742 C4.13760491,56.618682 5.59855367,56.2676684 6.14387445,55.5018586 C6.44462262,55.0754427 6.35090475,54.4243247 6.74601446,54.0980551 C7.37297369,53.5775953 8.150144,53.8852233 8.35096322,52.8944605 C8.57630073,51.7467072 7.78017117,51.4149203 7.94965079,50.4861847 C8.0374836,49.9794345 8.95247627,49.6904481 9.15327041,49.283259 C9.30348984,48.9629246 9.53563195,47.8412527 9.55460791,47.6783269 C9.63594542,46.775422 9.32246581,44.530072 9.75506768,43.4649101 C9.82403319,43.4649101 9.88672912,43.4649101 9.95594541,43.4649101 C10.5574083,43.1632173 10.9962798,42.0539174 11.5608775,41.8599781 L11.962215,41.8599781 C12.0624448,41.7714514 12.0245765,41.3325799 12.1623403,41.2581808 C12.6077322,41.0325591 13.1027792,41.3149415 13.567147,41.057303 C13.9368022,40.8509917 15.5607102,38.5622561 14.7707415,37.847439 C15.7673559,37.0640743 17.7864154,36.5491318 17.5793517,34.6375749 C17.5731657,34.6375749 17.0526224,33.8097379 16.9778888,33.6344401 C17.2283381,33.7656836 17.1346286,33.3274809 17.5793517,33.4335624 C17.7991218,33.4897379 17.8552974,34.0164673 17.9806892,34.2362374 C18.137429,34.2362374 18.6451824,34.1542311 18.7829462,34.2362374 C19.2032597,33.8283795 20.8333537,32.6068121 19.3851615,32.2299678 C19.241128,32.4046805 18.983824,32.9630086 18.7829462,33.0316397 C18.5573245,33.1142311 18.187335,32.9379302 17.9806892,33.0316397 C17.8801249,32.8376167 17.5356317,32.5686094 17.3788919,32.4304276 C17.3788919,32.4304276 17.3788919,31.6973869 17.5793517,32.0285049 C17.7171155,31.5713263 17.6672096,31.6973869 17.7801458,31.2268331 C18.1814833,31.4149208 17.9806892,29.8223608 17.9806892,29.8223608 C19.1908041,30.2168435 19.6234896,30.3239282 20.9900935,30.2236983 C21.0214415,30.2929146 21.1530193,30.6191006 21.1905533,30.6250358 C21.3724551,30.6749418 22.1751301,30.474482 21.9928939,30.4234893 C22.2942523,29.9102187 22.6453495,29.472016 22.9963631,29.0196858 C22.0744822,28.7441581 21.0027999,28.7121414 20.7892158,27.8160913 C20.7578678,27.7158614 20.8395397,27.3086723 20.7892158,27.214294 C20.6638239,27.0134163 20.062361,26.8446388 19.9869587,26.6124967 C19.8801249,26.3306159 20.0871886,25.8976796 19.9869587,25.609362 C20.3503443,25.783991 20.6576379,25.6275856 20.9900935,25.8098217 C21.3600831,26.0237402 21.6484007,26.7444089 21.9928939,27.0134163 C22.6700935,27.5653076 23.3346703,27.8664152 23.9994978,28.4178885 C24.4631969,27.7410233 25.0150046,26.7937297 25.6044299,26.2111592 C25.8490276,25.9662271 26.6764466,25.7212951 26.8080244,25.4078155 C27.0402501,24.8259137 26.5638447,24.6629879 26.6072303,24.2048897 L27.0085678,23.6030924 C27.3034058,22.1359242 27.0901561,22.4993098 27.6106994,21.3952764 C27.8298008,21.483803 28.1811487,21.3391844 28.4133744,21.3952764 C28.9648478,21.5464989 29.5729146,22.4425491 30.0183065,22.8004174 C31.5291946,21.4328939 32.802089,20.3360496 35.2341057,21.5968229 C35.1028622,20.4056003 34.97095,19.2277529 36.0367807,18.7878783 C36.3567807,18.6566349 36.6512844,18.8447226 36.8391213,18.5874186 C36.9772196,18.3993308 37.3475435,17.0065617 37.441253,16.7816088 C39.7171986,17.1202504 40.3187451,16.8443047 41.8547952,15.9789338 C42.1620052,16.1729568 42.9833218,17.0699264 43.4597272,16.9820685 C43.4597272,16.9820685 43.3029874,16.0100309 43.2591839,15.7794771 C43.4035517,15.6840957 44.3815245,15.1205012 44.4631964,14.975799 C44.6261222,14.6623194 44.3815245,14.123218 44.4631964,13.7722045 C44.5382643,13.4277113 45.4221932,12.7942317 45.4659968,12.5686099 C45.5475851,12.1045765 45.1717439,11.8227792 45.065328,11.3639287 C45.6165506,11.4899893 46.456676,11.8661648 47.0712632,11.7659349 C47.6355265,11.6774083 48.0616916,10.8196445 48.4754011,10.5623404 C48.7954011,10.3614626 49.1212527,10.5688608 49.4788702,10.3614626 C50.0241576,10.047983 51.0334783,7.94246166 51.2839277,7.15158185 C52.0428827,7.40236554 53.4348994,7.75339584 54.2936664,7.75339584 C54.54445,7.76025059 54.9768011,7.35207505 55.4973445,7.55290263 C55.4973445,7.61559856 55.4973445,7.68482321 55.4973445,7.75339584 C55.8235305,7.92221506 55.8548784,8.3927605 56.0994761,8.55607084 C56.4253277,8.78236133 56.719915,8.55607084 57.1022765,8.75653061 C57.7044082,6.76855155 56.9145231,7.49020671 58.9080863,6.95075427 C58.9518063,7.01933525 59.2277519,7.52840943 59.3093402,7.55290263 C59.5350455,7.64629448 59.6917853,7.43991622 59.9108867,7.55290263 C60.0803329,7.41477097 60.3187446,6.85737078 60.5130183,6.75123912 C61.0710957,6.44918688 62.6883997,6.42437601 63.3215449,6.34894028 C63.3905104,5.89766338 63.1648051,5.37682745 63.3215449,4.94448472 C63.6288385,4.09188705 67.3533943,3.40223189 68.5380965,3.1396948 C68.6259544,2.78801247 68.4440526,2.49281498 68.5380965,2.13590799 C68.5442825,2.10488605 70.287062,0.355276898 70.3434883,0.330133325 C72.1052438,-0.465647637 72.1613357,0.894396634 72.9516387,1.13277322 C74.5569051,1.62846391 75.145996,0.674634048 75.7604997,0.330133325 C76.0864349,0.147923173 76.3933105,0.304989752 76.7636344,0.129636862 C76.8763199,0.424830083 77.09609,0.398706782 77.3654317,0.530955891 C77.2086919,1.65262274 77.2648675,2.26782857 77.1649719,2.93821518 C77.4846376,2.85723713 77.647229,3.0453249 77.9673126,3.1396948 C78.1429448,2.83209188 78.6379918,1.65948585 78.9704473,1.53409401 C80.10516,1.10860603 81.5974065,1.91026954 82.3811056,1.93508041 C83.7291515,1.99222566 83.8980125,1.49065827 84.5876677,0.93194564 C86.4685454,1.75973245 86.6257032,0.976359432 88.8008337,1.33326642 C89.0014607,1.3708171 89.8858912,1.92267498 90.0045955,1.93508041 C90.7001022,2.04904488 91.3780541,1.65948585 91.810238,1.73556526 C91.9983258,1.77213789 92.3995797,2.24203129 92.6127459,2.3364012 C92.5191199,2.69331655 92.7005201,2.98948373 92.6127459,3.33953597 C92.5943551,3.4149717 90.6064763,6.26109911 93.2146267,5.54663309 C93.302401,5.52801658 93.6601857,4.97649308 93.8165076,4.94448472 C94.2244491,4.87036142 94.4309276,5.18384104 94.6190154,5.14531231 C94.4058493,5.30825483 94.7820248,6.01031542 94.8196424,6.14844708 C94.593937,6.26796223 94.7318681,6.49947737 94.6190154,6.54976786 C94.2620666,6.72511582 93.9544386,6.66829659 93.6158806,6.75123912 C93.640959,7.15811058 93.3968629,7.35207505 93.4152537,7.55290263 C93.4654104,8.27325371 94.6817113,8.64351076 95.0202693,9.15853687 C95.271053,9.55920561 95.1582003,10.1368441 95.4215232,10.5623404 C95.7224636,11.0772829 98.085682,12.1045765 99.0328084,11.9663947 C99.1272702,11.9540227 99.5912201,11.3839078 99.6346893,11.3639287 C99.8420038,11.2953811 100.243258,11.4776173 100.437197,11.3639287 C100.707208,11.2075232 100.945452,10.4810029 101.238869,10.3614626 C101.390175,10.3056215 101.685264,10.4616925 101.841586,10.3614626 C102.017134,12.6313058 101.922672,12.1045765 103.646392,12.1672724 C103.62215,11.6346915 103.77262,10.8823404 103.646392,10.3614626 C103.635525,10.3431554 103.077113,9.99214186 103.046183,9.96012514 C103.408984,8.6059768 102.963425,9.00146268 103.847855,8.15536866 C103.635525,8.0920207 103.534376,7.78506982 103.446601,7.75339584 C103.133122,7.65314923 102.763634,7.8471137 102.443467,7.75339584 C102.763634,7.63485874 101.672725,7.55943137 101.640959,7.55290263 C101.589966,7.69755467 101.552349,7.98491098 101.441168,8.15536866 C100.443049,9.63427353 100.694668,9.55920561 98.2303006,9.55920561 C98.0923695,9.16957135 98.0923695,8.51159853 97.8290467,8.15536866 C97.6033413,7.86638225 96.901147,7.80368633 96.6252849,7.55290263 C96.3243445,7.28937913 96.4371972,7.35795175 96.224031,6.95075427 C96.2307186,6.95075427 96.224031,6.38094028 96.224031,6.34894028 C96.3619621,6.34894028 96.9078346,6.4377595 97.0265388,6.34894028 C97.0139997,6.28036766 97.1711574,5.65340843 97.2271658,5.34580551 C96.2365702,5.34580551 97.3024009,3.77253073 97.4277928,3.54036355 C96.7699035,3.02605635 96.224031,2.49281498 95.6221502,1.93508041 C95.7291512,1.58405012 95.8729339,1.50307206 95.8227771,1.13277322 C97.9101334,-0.0894720981 98.3247624,0.129636862 99.4340623,2.13590799 C99.5653058,1.97296547 100.098639,1.92267498 100.23657,1.73556526 C100.412119,1.49620895 100.274188,1.18959245 100.437197,0.93194564 C101.245557,-0.377808141 102.224449,0.255028625 103.245974,0.732432166 C103.077113,2.24856003 103.215044,2.51861227 103.446601,3.54036355 C103.640541,3.42737713 104.035943,3.6337554 104.249109,3.54036355 C104.55005,3.4149717 104.82006,2.44938761 105.252244,2.3364012 C106.762798,1.96022566 106.975964,3.10149209 107.659767,3.54036355 C108.010865,3.77253073 108.299266,3.56517441 108.662066,3.74085675 C109.013163,3.92306782 109.352557,4.51149832 109.666037,4.74399152 C109.829046,4.66889017 110.099057,4.7874189 110.267082,4.74399152 C110.587249,4.66889017 110.832181,4.05433637 111.070426,3.94134995 C111.747542,3.62787034 112.130405,3.90379928 112.875232,3.94134995 C112.906998,4.08013365 113.264783,4.50561326 113.277322,4.54349832 C113.553184,5.62761114 112.65705,6.16085251 113.477949,6.75123912 C113.684428,6.6565432 114.054752,6.83222553 114.280457,6.75123912 C114.593937,6.64413776 114.649945,5.91693193 114.882338,5.74810435 C115.954856,4.96375327 116.832599,5.74810435 117.690279,6.14844708 C117.666037,6.73785563 117.690279,7.3713436 117.690279,7.95388904 C117.233017,8.14197681 116.041794,8.49989529 115.885473,8.95699037 C115.80355,9.18303007 115.979098,9.55235086 115.885473,9.75966538 C116.406267,9.61596632 116.330196,10.0923717 116.888607,9.75966538 C117.553184,9.37111784 117.157782,8.45542299 118.493623,8.55607084 C119.27774,8.61876676 120.023403,9.49650969 120.29843,10.1610029 C120.29843,10.1610029 120.794145,10.4300938 120.499057,10.5623404 C120.167186,10.719331 119.778471,11.3528942 119.898012,11.9663947 C119.910551,12.0601878 120.443048,12.2991846 120.499057,12.3677322 C120.969694,12.9946914 120.862693,13.4845556 121.101773,14.3740017 C120.925389,14.5121835 120.743989,14.493542 120.700519,14.7753392 C120.631972,14.7753392 120.148795,14.738474 120.097803,14.7753392 L120.097803,15.3771365 C122.84472,14.1049108 123.144825,15.2265827 125.716193,15.9789338 C125.772202,16.3368857 125.734584,17.1202504 125.91682,17.5842838 C125.997907,17.8164259 126.637405,18.0982232 126.718492,18.3865408 C126.825493,18.7878783 126.637405,19.1832806 126.718492,19.5905533 C126.537092,19.7341688 126.38077,19.7217968 126.317238,19.9914729 C126.048064,19.9914729 125.547332,19.891243 125.314103,19.9914729 C125.177008,20.0541688 124.993936,20.7506787 124.913685,20.795151 C125.100937,20.8010026 125.383487,21.1017759 125.51473,21.1954854 C126.624866,20.4496547 126.191846,20.5433642 127.721627,20.5936881 C127.672306,21.0766139 127.966559,20.9195397 127.922254,21.3952764 C127.898011,21.6026745 127.333748,22.117617 127.321209,22.1986201 C127.183278,22.9065825 127.64054,23.0887351 127.721627,23.4022147 C127.810237,23.7911802 127.615462,24.2300516 127.721627,24.6062272 C127.835316,25.0382439 128.468962,25.4394978 128.724762,25.8098217 C128.637823,25.9544403 128.755692,26.2679199 128.724762,26.4109502 C128.612745,26.869132 127.697384,27.189132 127.321209,27.4147538 C127.810237,29.0892365 128.424657,29.6284214 128.724762,31.6281706 C128.555901,31.6663733 128.192264,32.0167181 128.123717,32.0285049 C126.919955,32.2985154 126.330613,31.0821309 125.716193,30.6250358 C125.603341,30.5495499 125.383487,30.1299888 125.314103,30.0228206 C125.227165,30.4300933 125.089234,31.3839073 124.913685,32.0285049 C124.863529,32.1924339 124.336047,32.6688393 124.310969,32.8317651 C124.117029,34.0229877 125.289861,34.1852447 125.51473,35.0384944 C125.51473,35.1011903 125.51473,35.170741 125.51473,35.2393722 C125.477949,35.0888183 125.264783,35.8287974 125.314103,36.0416292 C125.383487,36.3678988 126.957573,39.1265194 126.117447,39.6532487 C124.926225,40.4055998 124.198952,39.2208977 123.509297,39.0510335 C123.388921,39.0262895 123.006893,39.1013574 122.90658,39.0510335 C122.857259,39.2702185 122.53124,39.3704483 122.506162,39.452371 C122.286308,40.0852655 122.506162,41.1886301 122.506162,41.8599781 C122.612327,41.4955893 122.705953,42.0598527 122.705953,42.0598527 C122.017134,43.5719947 122.161752,43.1889644 120.499057,43.0629874 C120.318492,42.3673971 119.898012,39.7968642 119.295295,39.452371 C118.81379,39.1892153 118.155065,39.4583062 117.690279,39.2519112 C117.596653,39.2143773 117.126016,38.662486 117.089234,38.650114 C116.650363,38.5563209 116.499057,38.9008977 116.285891,38.8505737 C116.519119,38.8505737 116.0861,39.452371 116.0861,39.452371 C116.029255,40.178975 116.825911,41.4269582 116.888607,41.8599781 C116.988921,42.6626531 116.587667,43.3336666 116.487353,43.8662476 L116.68798,44.4673761 C117.06332,44.3861222 117.515567,44.592768 117.890906,44.4673761 C118.831345,44.1538965 118.506162,42.3615454 120.097803,43.0629874 C121.678576,43.7718693 120.731449,45.4839696 120.29843,46.4736457 C119.245138,46.3933113 118.793727,46.4109497 117.890906,46.2738546 C118.287144,47.6338546 118.155065,47.4902391 117.890906,48.6814617 C117.703654,48.7056205 117.226329,48.9387658 116.888607,49.0823812 C116.888607,49.0823812 115.552766,47.7850772 115.885473,47.6783269 C116.74984,47.4140845 116.280039,45.1201661 115.885473,44.4673761 C115.590384,43.9974911 114.618179,43.6899467 114.07983,43.4649101 C114.2303,46.0289226 114.004595,45.4839696 115.684846,47.0755265 C115.439914,47.8160908 115.502609,48.0041785 115.282756,48.6814617 C115.383069,48.7623812 115.829464,48.9697793 115.885473,49.0823812 C116.061021,49.4703436 115.715776,49.6718065 116.0861,49.8850562 C116.0861,49.8850562 115.715776,50.9309914 115.684846,51.0880656 C115.885473,50.9632589 116.280039,51.0194345 116.487353,50.888191 C116.612745,50.8131231 116.763215,50.3297793 116.888607,50.2863937 C117.107625,50.216843 117.853289,50.4369475 117.690279,50.4861847 C117.728733,50.6063937 118.248691,50.774586 118.292996,50.888191 C118.500311,51.4959235 118.07983,52.493123 118.292996,53.0943351 C118.443466,53.5406465 119.534375,53.3516392 119.295295,54.7002703 C119.214208,55.1515138 118.399997,55.6155472 118.092369,55.9038649 C118.693414,57.2081072 118.693414,56.6872295 118.292996,57.9101344 C117.997907,58.8130393 117.734584,59.7844917 116.888607,60.1168637 C114.69425,60.9812315 114.405013,59.7406882 114.681711,57.9101344 C114.537928,57.8030498 113.722045,57.4520362 113.67774,57.307334 L113.67774,56.9059965 L113.277322,56.9059965 C113.126852,57.4454322 113.239705,57.827543 112.875232,58.110009 L112.675441,58.3114719 C112.769067,58.4051814 112.618597,58.7813569 112.675441,58.912266 C112.743989,58.912266 112.806685,58.912266 112.875232,58.912266 C113.64681,59.3012315 113.96029,60.060103 114.481084,60.7180758 C112.50658,61.0759441 112.50658,61.9595387 111.872933,64.1294028 C112.349422,64.3554425 113.370948,65.1136452 113.879203,65.1325376 C114.945034,65.1818583 114.69425,64.5742095 115.082965,64.3302805 C115.446601,64.1036557 115.690697,64.3678145 116.0861,64.1294028 C116.336883,64.2992669 116.606058,64.5993714 116.888607,64.7306149 C116.738137,65.3200402 116.944616,65.7212941 116.68798,66.1350872 C116.656214,66.1794759 115.885473,66.5363411 115.885473,66.5363411 C115.696549,67.2886922 116.443048,67.2701342 116.285891,68.1413567 C116.20564,68.5926002 115.502609,68.831597 115.282756,69.1450766 C115.101356,69.4017955 115.233435,69.7028196 115.082965,69.9477516 C114.731868,70.5110118 113.859976,70.8244914 113.277322,71.150761 C113.36426,71.5403117 113.164469,71.97818 113.277322,72.3543556 C113.340018,72.57446 114.042212,73.0633211 114.07983,73.3584935 C114.192683,74.4742301 113.019851,75.0689218 112.274187,75.364763 C111.866246,75.5266857 112.825911,75.808483 113.076695,75.7650974 L113.477949,75.364763 C115.258513,74.8883576 114.931659,76.6118267 114.882338,77.5708236 C114.624867,77.6149615 114.593937,77.9342927 114.481084,77.9718267 C113.502192,78.3104683 112.230718,77.2005832 111.672307,76.9686919 L111.270217,77.5708236 C111.307834,77.6893606 111.828628,77.8592248 111.872933,77.9718267 C111.985786,78.3104683 111.872933,78.8188904 111.872933,79.1764244 C112.179726,79.0435926 111.985786,79.5016908 112.474814,79.3773021 C112.555901,79.3570722 112.769067,78.8440524 112.875232,78.7745017 C113.89843,78.1410221 114.318074,78.6432582 115.082965,79.1764244 C114.262066,81.2137911 114.242003,82.0163825 111.872933,80.7807712 C111.903863,80.8059332 111.872933,81.3450345 111.872933,81.3825685 C112.668754,81.7335821 113.064156,81.6708862 113.477949,82.3857033 C113.528106,82.4804159 113.76635,82.5362571 113.879203,82.5864974 C113.784741,82.805348 113.954438,83.1700711 113.879203,83.3898412 C113.741272,83.783488 112.97053,84.1596635 112.875232,84.5926834 C112.618597,85.7529759 113.050781,86.6181797 112.875232,87.8035506 C113.070844,87.689862 113.271471,88.1412726 113.67774,87.8035506 C114.104908,87.4449299 113.73542,85.7839059 113.67774,84.9939373 C114.060603,85.0507816 114.405013,84.737302 115.082965,84.9939373 C115.145661,85.0257032 115.226747,85.382652 115.282756,85.3951912 C115.296131,85.5774273 115.853707,85.9159853 115.684846,86.5989529 C115.672306,86.6491096 115.258513,87.0570511 115.282756,87.2008338 C115.321209,87.4959226 116.173874,87.6965495 116.0861,88.8058494 C116.029255,89.4645746 115.352139,89.2697992 115.684846,90.2102381 C115.696549,90.2662464 116.217343,90.7118055 116.285891,90.8121189 C116.285891,90.8121189 116.243257,91.3329131 116.0861,91.0127459 C115.960708,91.0821294 115.866246,91.7467062 115.684846,91.8160897 C115.276904,91.9657239 114.518701,91.8160897 114.07983,91.8160897 L114.07983,92.2165076 C114.148378,92.2165076 114.211909,92.2165076 114.280457,92.2165076 C114.311387,92.3602903 114.374083,93.1318681 114.481084,93.2196424 C115.3396,93.9845327 116.268336,93.1318681 117.289861,93.4211053 C117.402714,93.4578869 117.696967,93.9343759 117.890906,94.0221502 C117.890906,94.2043864 117.810655,94.6616486 117.890906,94.824658 C117.226329,95.6463926 116.650363,96.0911157 115.684846,96.6303006 C115.684846,96.8810843 115.80355,97.6334354 115.684846,97.8340623 C115.446601,98.2294646 115.052035,97.9594542 114.681711,98.2353162 C114.224449,98.5738742 114.022986,99.6580957 113.879203,100.241586 C113.659349,100.291743 113.559036,100.617761 113.477949,100.64284 C110.9768,101.508043 111.910551,98.6056402 112.274187,97.6334354 C111.92309,97.5147311 111.903863,97.6208962 111.672307,97.4328084 C110.894041,96.8183884 110.994355,96.9003111 109.866664,97.2321815 C110.016298,97.4771136 109.446183,97.5080435 109.666037,97.6334354 C110.794564,98.3172389 110.329778,99.6020874 110.267082,101.244721 L110.869799,101.445348 C111.879621,103.225912 111.057886,103.113059 109.264783,103.050363 C109.402714,101.037406 109.691115,101.608357 108.061857,101.244721 C107.014417,102.768649 106.612328,103.050363 104.650363,103.050363 C104.575964,102.880666 104.411283,102.278785 104.249109,102.047228 C104.324344,101.927688 104.82006,101.526434 104.85099,101.445348 C104.743989,101.370112 104.85099,100.592683 104.85099,100.442213 C104.293414,100.336048 104.060185,100.429674 103.646392,100.241586 C103.352975,101.3768 103.133122,103.106372 102.644094,104.053498 C103.233435,104.523299 103.615462,104.825076 104.048482,105.457887 C103.879621,105.733749 103.910551,106.185159 103.847855,106.461021 C103.709924,106.4861 102.819642,106.598952 103.046183,106.461021 C102.436779,106.135003 102.399161,106.410865 102.042213,105.859141 C101.954438,105.733749 101.653498,104.786622 101.640959,104.655379 C101.409402,104.711387 100.851826,104.862693 100.838451,104.856006 C100.718911,105.019015 100.600206,105.351722 100.437197,105.457887 C100.218179,105.314104 100.111178,105.803132 100.035943,105.859141 C101.528106,106.699266 101.572411,106.435943 101.238869,108.066037 C100.98307,108.110342 100.951304,108.429673 100.838451,108.467291 C100.587667,108.555065 99.8980121,108.304282 100.035943,108.266664 L99.6346893,108.266664 C99.3396004,108.16635 99.3655148,107.382233 99.0328084,107.263529 C98.8137906,107.194982 98.4309275,107.376382 98.2303006,107.263529 C97.9795169,108.19728 97.6225681,109.564888 96.8259119,109.87168 C96.6060582,109.959454 96.4188064,109.746288 96.224031,109.87168 C96.1237176,109.70867 95.6037594,109.564888 95.4215232,109.470426 L95.4215232,109.470426 Z M179.683172,99.439078 C179.67732,99.4265388 179.827791,98.8622755 179.884635,98.6365702 C179.664781,98.593101 179.564468,98.2662462 179.483381,98.2353162 C178.963423,98.0597677 178.26708,98.1040728 177.87753,98.0346893 C177.727895,96.1663508 177.18871,95.3136862 177.275649,93.8215233 C176.473977,95.3203738 175.909713,95.2008336 174.667498,94.2227772 C174.474395,94.4610217 174.329776,95.0812933 174.066453,95.2259119 C173.420267,95.5895483 170.555482,95.4014605 169.452033,95.6271658 C169.401877,95.4139997 169.075858,95.3136862 169.051615,95.2259119 C168.794144,94.4927876 169.051615,93.2071032 169.051615,92.4171346 C169.019014,92.4045954 168.649526,92.2165076 168.649526,92.2165076 C168.504907,92.5174481 168.27335,92.6177615 168.047645,92.8183885 C168.567603,94.5421084 168.104489,96.8309276 166.041375,95.4265389 C165.783904,95.2576779 165.859975,94.6307186 165.640121,94.4234041 C165.439494,94.2420039 164.850153,94.1166121 164.636151,94.0221502 C164.780769,93.4637385 164.580142,93.087563 164.837613,92.6177615 C165.226328,91.9097156 166.962587,92.0158807 167.244301,91.2133729 C167.364677,90.8756508 167.119745,90.5554836 167.244301,90.2102381 C167.175753,90.2102381 166.693413,90.2537073 166.644092,90.2102381 C166.017133,90.780353 165.790591,91.1439894 165.439494,92.0158807 C164.763214,92.1095066 163.646391,91.9782631 162.831344,92.2165076 C162.76196,92.24075 162.349003,92.7991617 162.228627,92.8183885 C161.47126,92.9437803 161.207937,92.3477511 160.42382,92.6177615 C160.336882,92.6495275 160.229881,92.9813979 160.023402,93.0190154 C161.075858,93.6208963 160.988084,93.5205828 160.825074,95.025285 L160.223193,95.2259119 C160.054332,94.9876674 159.759244,95.0319725 159.621313,94.824658 C159.502608,94.655797 159.564468,93.9410635 159.420686,93.8215233 C158.944197,93.4453477 158.236151,93.9034459 157.81567,93.2196424 C157.640121,92.9437803 157.289024,91.3203739 157.212953,91.0127459 C153.333329,92.1538117 154.7745,89.2196425 152.398742,89.2079393 C152.398742,89.2079393 151.897175,89.3951911 151.796861,89.4085662 L151.796861,89.8089842 C152.072723,89.903446 152.511595,89.8089842 152.799996,89.8089842 C152.70637,89.8716801 152.969693,90.1600813 153.000623,90.2102381 C152.799996,90.3732475 152.693831,90.3172391 152.600205,90.611492 C151.790174,90.7619622 150.573873,91.1197469 149.992055,91.0127459 C149.615879,90.95005 149.100937,90.1976989 148.787457,90.0096111 C148.035106,89.5774272 147.225911,89.6083572 146.379934,89.2079393 C146.230299,89.1444074 145.971992,88.6495276 145.778053,88.6052224 C145.100937,88.4798306 144.937927,88.9997888 144.373664,88.8058494 C144.305117,88.7874586 144.022567,88.2792036 143.973246,88.2039685 C143.251825,87.2886081 143.420686,86.8497366 143.973246,85.7964451 C143.509296,85.6835924 143.063737,85.5774273 142.368231,85.3951912 C142.461856,85.6091933 142.286308,85.9778453 142.368231,86.197699 C142.386621,86.2670825 142.89404,86.5496321 142.969275,86.5989529 C142.84472,86.9441985 143.088816,87.2635297 142.969275,87.6020877 C142.925806,87.720792 142.455169,88.0100291 142.368231,88.2039685 C141.959453,88.0342716 141.508878,88.0718891 141.163633,88.0033416 C141.070007,87.2008338 140.850153,85.8031327 140.762379,84.9939373 C140.142107,84.9939373 140.192264,85.0758599 139.558617,84.9939373 C139.658931,84.7122236 139.451616,84.2792037 139.558617,83.9908025 C139.664782,83.6771557 140.643675,83.3696113 140.963842,83.1883783 C140.957154,83.1566959 140.881919,82.066372 140.762379,82.3857033 C140.636987,82.1783888 140.844302,82.0163825 140.762379,81.7849091 C140.71891,81.6777409 140.267499,81.3707817 140.160498,81.1821087 L139.759244,81.1821087 C139.458304,81.8224431 139.32706,82.2923281 138.957572,82.7880439 C138.053915,83.9841149 138.211073,83.2761526 136.74984,83.7901755 C136.687144,83.8152539 136.40543,84.3728297 136.348586,84.3928924 C136.00334,84.5174483 135.684009,84.2725162 135.345451,84.3928924 C135.239286,84.1788903 134.787875,83.9406458 134.74357,83.7901755 C134.549631,83.2134566 134.787875,82.6247001 134.542943,82.1852435 C134.142525,81.4887336 133.182024,81.7645957 132.53751,81.3825685 C131.753393,80.931325 131.346287,79.169904 131.133121,78.1727044 C129.533957,78.9250555 130.512013,78.9250555 128.926225,78.1727044 C128.995608,77.8275425 128.825075,77.7155257 128.724762,77.3700294 C129.559035,76.7750869 129.578262,76.7179082 130.530404,76.5676888 C130.461857,76.5426104 130.486935,75.8346481 130.329777,75.7650974 C130.092369,75.6648675 129.589965,75.7650974 129.326643,75.7650974 C129.214626,75.5394756 128.769067,75.1756721 128.724762,74.9634255 C128.53751,74.1542301 129.082546,73.3209595 129.126852,72.7566962 C129.15193,72.3543556 128.906998,72.1604162 128.926225,71.9530181 L128.524971,71.9530181 C128.10449,72.0977202 127.735002,73.2389532 127.321209,73.3584935 C126.675023,73.5455781 126.612327,73.1387234 126.117447,73.1570306 C125.603341,71.4266231 125.464574,71.5654737 126.718492,70.5488802 C126.311387,70.1861633 126.806266,67.928107 126.919955,67.1382219 C126.619015,67.4333943 126.223612,67.6472292 125.91682,67.9414821 C126.330613,67.9414821 124.819224,68.1096744 125.314103,67.9414821 C125.083382,67.746874 124.738137,67.9414821 124.512432,67.7410223 L124.512432,67.3386817 C123.885472,65.5332063 125.076695,65.314105 125.716193,63.7284833 C125.647646,63.6657873 125.747123,63.2134571 125.716193,63.1256829 C125.61588,62.8814195 124.649527,62.5989535 124.512432,62.3230078 C124.412118,62.1424436 124.543362,61.7280653 124.512432,61.5206672 C124.473978,61.3325794 123.92309,60.5802284 123.910551,60.5175324 C123.809401,60.1355053 123.997489,59.7031542 123.910551,59.3146067 C124.273351,59.0011271 125.044929,58.5054113 125.314103,58.110009 C125.533957,57.7847425 125.45287,57.371033 125.716193,57.1068742 C125.997907,56.8250769 126.474396,56.8377833 126.718492,56.5049934 C127.314521,55.6906151 127.828628,53.6092777 128.123717,52.493123 C128.41797,52.4245755 128.831763,52.4738963 129.126852,52.2916601 C129.038241,52.2171774 128.982233,51.7777208 128.926225,51.690866 C128.738137,51.4266236 128.066872,51.3462892 127.922254,51.0880656 C127.559453,50.4685463 127.991637,48.9011482 127.922254,47.8787867 C128.292578,47.7275641 128.017552,47.8654116 128.123717,47.4774492 C128.932076,47.4517021 129.371784,47.3396853 130.329777,47.4774492 C130.242839,47.2576791 130.386622,46.9066655 130.329777,46.6751921 C130.155065,46.0413782 128.982233,45.5773447 129.727896,44.4673761 C129.834897,44.3051191 130.474396,44.25421 130.530404,44.0667074 C130.812954,43.1073761 129.853288,42.5806468 130.731867,42.0598527 C130.970112,41.922674 131.841167,41.7153595 132.13542,41.6595183 C132.054333,40.9447012 131.721627,39.9974076 132.13542,39.2519112 C132.203967,39.1265194 132.700519,38.9828203 132.737301,38.8505737 C132.862693,38.3806887 132.549213,37.6962164 132.737301,37.2456417 C132.781606,37.1326219 133.033226,37.1454118 133.139391,37.0441788 C133.67774,36.5683585 134.198534,36.6438444 134.74357,36.2425069 C134.938346,36.0978047 134.800415,35.8728518 134.945033,35.6407097 C135.728314,34.3681496 136.794981,35.082298 137.752975,35.6407097 C137.640122,34.2427578 137.590801,33.72188 137.352557,32.4304276 C137.495503,32.3928937 138.556318,32.1362583 138.354855,32.2299678 C138.90658,32.5933534 139.546914,32.4679616 139.759244,33.2337714 C139.810237,33.4463524 139.653915,33.8541266 139.759244,34.0353597 C139.860394,34.2228623 140.487353,34.1108455 140.561752,34.2362374 C140.636987,34.0733116 140.518283,33.8032175 140.561752,33.6344401 C140.594354,33.5090483 141.145242,33.0949208 141.163633,33.0316397 C141.23218,32.713228 140.894458,31.8730191 140.963842,31.8286303 C140.83845,31.7910964 140.587666,31.4899888 140.561752,31.4266241 C140.59937,31.3956105 140.561752,30.8823399 140.561752,30.8254956 C141.552348,30.3924757 141.822358,30.2553806 143.370529,30.4234893 C143.370529,30.305621 143.289443,29.472016 143.370529,29.4210233 C143.20752,29.1830296 142.799578,29.0196858 142.568857,28.819226 C142.631553,28.637993 142.568857,28.2180975 142.568857,28.0159659 C142.857259,27.9046179 142.831344,27.6848478 142.969275,27.4147538 C144.066872,27.6221519 144.136256,27.6021728 144.774918,28.0159659 C144.963006,28.1419429 145.645973,28.4365301 145.778053,28.6187663 C146.12915,29.1327056 145.859975,29.7221309 146.379934,30.0228206 C146.630717,30.1727056 147.08798,29.9477526 147.383068,30.0228206 L147.784322,30.4234893 C148.831762,30.6684214 148.448899,30.3431549 149.189547,30.2236983 C149.082546,29.8968436 149.189547,29.3711173 149.189547,29.0196858 C148.636987,28.819226 148.048481,28.6119115 147.584531,28.4178885 C147.622149,28.0851822 147.784322,27.0134163 147.784322,27.0134163 C148.097802,26.9693619 148.417969,26.6999366 148.98892,26.8129565 C149.263946,26.869132 149.721208,27.4522877 149.992055,27.6156315 C151.239286,28.4055165 151.959871,27.9291111 153.401877,28.4178885 C153.482964,28.4489021 153.584113,28.7757569 153.803131,28.819226 C153.715357,29.2649522 153.984531,29.8282124 153.803131,30.2236983 C153.740435,30.2236983 153.671052,30.2236983 153.602504,30.2236983 C153.238868,30.2236983 152.868544,30.680877 152.600205,30.8254956 C152.600205,31.1958195 152.681292,31.6715562 152.600205,32.0285049 C152.781605,32.1855791 152.88777,32.6313053 153.20125,32.6313053 C153.270634,32.6313053 153.333329,32.6313053 153.401877,32.6313053 C153.778053,32.2733534 154.254542,31.3773869 154.806266,31.2268331 C155.031971,31.1706575 155.383068,31.314691 155.608774,31.2268331 C155.370529,30.4927892 155.445764,30.2103232 155.20752,29.4210233 C155.928941,29.1075437 157.132702,28.4365301 158.216924,29.0196858 C159.189129,29.5523504 158.505325,30.3297798 158.417551,30.8254956 C158.323925,31.3462897 158.643256,31.5713263 158.618178,31.8286303 C159.954019,31.910553 161.088397,32.116948 162.43009,32.6313053 C162.492786,32.6629041 162.573873,33.0198529 162.630717,33.0316397 L163.031971,33.0316397 C163.326224,33.5214203 163.006892,34.1852447 163.232598,34.8380347 C163.37638,35.2769061 164.047645,35.4966762 164.235733,35.8411694 C164.443047,36.2490273 164.260811,36.4557567 164.43636,36.8443042 C165.301563,36.8132906 167.138136,36.724764 168.047645,37.2456417 C168.455586,37.4836354 168.668752,38.1732906 169.051615,38.4492362 C169.226328,38.5874181 169.438658,38.3741683 169.651824,38.4492362 C170.956736,38.9567388 170.072305,40.2615664 169.651824,40.8568433 C170.348167,41.0449311 171.646391,41.2388704 171.859557,41.8599781 C171.966558,42.1858297 171.702399,42.7811902 171.859557,43.0629874 C171.92894,43.0629874 171.9908,43.0629874 172.060184,43.0629874 C172.862692,43.4708453 173.433642,44.2741055 174.066453,44.8693824 C174.272932,44.7750041 174.643256,44.9503855 174.868961,44.8693824 C175.357989,44.6996018 175.464154,43.6657878 176.674604,44.0667074 C176.819222,44.1170313 177.056631,44.5676896 177.275649,44.6689226 C177.088397,44.9755475 177.263945,45.407815 177.075858,45.6710542 C176.982232,45.7974492 175.965722,46.2294659 175.872096,46.4736457 C175.784322,46.6934158 175.996652,46.8815035 175.872096,47.0755265 C177.759661,47.5711587 178.115774,47.4833844 177.87753,49.6845965 C178.555481,50.1100092 179.213371,50.2236978 179.884635,50.6867281 C180.09195,50.8372819 180.047644,51.1331231 180.285053,51.2895285 C180.14127,52.2299673 179.897174,53.4770311 180.686307,53.8975953 C182.154227,54.6816287 182.61149,53.4335619 183.295293,53.295798 C184.134583,53.1328722 184.235732,53.6092777 184.698846,53.6971355 C184.649525,54.1793926 184.943778,54.0229872 184.900309,54.4987238 C184.881082,54.6874803 184.45475,55.1391418 184.499055,55.5018586 C184.505743,55.5962369 185.081709,56.0661219 185.100936,56.1037395 C185.18871,56.3427363 184.987247,56.4864354 185.100936,56.7065399 C184.780769,56.8560905 184.241584,57.1202494 183.896338,57.307334 C184.480664,58.5739588 184.405429,59.0076474 183.896338,60.3177414 C184.549212,59.9598731 185.18871,59.6078564 185.903444,59.3146067 C185.853287,59.3077519 186.913266,59.2943768 187.107205,59.3146067 C187.257676,59.6590999 187.87126,61.5582848 188.109504,61.7222137 C188.624447,62.0915345 189.37011,61.7972816 189.915983,62.1225481 C190.341479,62.3867069 190.08568,63.2585146 189.915983,63.1256829 C190.002921,63.4525376 189.809818,63.8218584 189.915983,64.1294028 C189.941061,64.2165919 190.272932,64.3234258 190.316401,64.5300715 C191.897174,64.4106149 192.134582,64.5300715 193.125178,64.9320778 C193.282336,66.374084 193.294875,66.9752125 192.32267,67.7410223 C192.222357,67.8150871 191.759243,68.02934 191.721625,68.1413567 C191.570319,68.5802282 191.790173,69.0883159 191.721625,69.5457454 C192.040957,69.6392041 192.046808,69.3824852 192.122879,69.7462887 C192.45475,69.6015866 192.787456,69.8968426 193.125178,69.7462887 C193.382649,69.634272 193.294875,68.9011477 193.527268,68.7441571 C194.705115,67.9414821 196.203966,68.4923703 196.535836,69.5457454 C196.774917,70.3229241 196.429671,70.3040317 196.335209,70.9498833 L195.934791,70.9498833 L196.135418,72.5558185 C195.419849,72.5059125 195.307832,72.5241361 194.931657,72.5558185 C194.805429,72.9003117 195.050361,73.2203116 194.931657,73.5582845 C194.8815,73.6902803 194.405011,73.8407505 194.32894,73.9592876 C194.115774,74.3037808 194.304697,74.5807296 194.129149,74.9634255 C194.348167,75.082297 194.491949,75.5084621 194.730194,75.564554 C194.862273,75.6021716 195.200831,75.4767797 195.332075,75.564554 C195.701563,75.8346481 195.915565,76.8250764 196.335209,76.9686919 C196.78662,77.1385561 197.651824,76.9497995 198.140852,76.9686919 C198.454332,78.0538329 198.817968,78.9191203 199.144823,79.7776365 C198.993516,79.8778663 198.930821,80.4741464 198.743569,80.5802279 C198.354018,80.8059332 197.839911,80.787626 197.539807,80.981231 C196.366139,81.7335821 198.856421,82.3230073 199.344614,82.7880439 C199.532701,82.9751285 199.344614,83.4015444 199.546077,83.5896322 C199.326223,83.6396217 196.818386,84.1412727 196.737299,84.1922654 C196.630298,84.2608129 196.05266,85.7596635 195.934791,85.997072 C196.93709,86.3230908 197.062482,86.536257 197.739598,87.0002068 C197.445345,87.2635297 197.463736,87.7584095 197.138553,88.0033416 C196.856003,88.2165077 196.679619,88.1036551 196.335209,88.2039685 C196.341897,88.2415861 196.185575,88.9379288 196.135418,89.2079393 C196.762378,89.5021921 197.212952,89.7086707 197.739598,90.0096111 C197.633433,90.2980124 197.839911,90.7310322 197.739598,91.0127459 C197.689441,91.1439894 197.212952,91.2952955 197.138553,91.4139998 C196.868543,91.8470196 196.699682,92.6177615 196.535836,93.0190154 C196.429671,92.687145 196.335209,93.6208963 196.335209,93.6208963 C197.195397,94.1216277 196.568438,95.301147 195.532701,95.2259119 L195.132284,94.824658 C194.74942,94.6365703 194.467707,94.5738743 194.129149,94.4234041 C194.122461,94.3924741 194.103234,93.1193289 194.129149,93.2196424 C194.247853,92.9696946 194.636568,92.8125369 194.730194,92.6177615 C194.931657,92.1914293 194.805429,91.7901753 194.931657,91.4139998 C194.485262,91.8027145 194.134164,92.0158807 193.727895,92.4171346 C193.382649,92.2984303 193.063318,92.5433624 192.723924,92.4171346 C192.473976,92.3360478 192.166348,91.50261 191.921416,91.4139998 C191.577007,91.2952955 191.25684,91.5402276 190.919117,91.4139998 C190.893203,91.457469 190.717655,91.8160897 190.717655,91.8160897 C190.617341,91.5076257 190.517864,92.580144 190.517864,92.6177615 C190.561333,92.656215 191.100518,92.9747103 191.119744,93.0190154 C191.263527,93.5272704 190.874812,93.7839057 190.919117,94.0221502 L190.517864,94.0221502 C190.247853,93.9343759 189.990382,93.0064763 189.71452,92.8183885 C189.577425,92.7306142 189.251406,92.856842 189.113475,92.8183885 C188.975544,92.7874585 188.45475,92.2666644 188.310967,92.2165076 C187.107205,91.8336445 186.010445,91.8160897 184.499055,91.8160897 C184.14127,91.0695902 184.167185,91.0938326 183.896338,90.0096111 C183.865408,90.0096111 183.295293,90.0221503 183.295293,90.0096111 C183.251824,90.4927877 183.094666,91.4457657 183.094666,92.2165076 C183.545241,92.3736654 183.715774,92.3101335 184.298428,92.4171346 C184.229045,93.3199559 184.229045,94.3983257 183.896338,95.4265389 C184.843465,95.2509903 184.93709,95.1255985 185.903444,95.4265389 L186.104071,95.8277928 C186.44848,95.9657238 187.138135,95.8277928 187.508459,95.8277928 C187.470842,96.0158806 187.784321,96.2231951 187.70825,96.6303006 C187.551092,97.470426 186.392472,98.2353162 185.903444,98.8371971 C185.690277,98.5429442 185.910131,98.3356297 185.701981,98.0346893 C185.545659,97.8148356 185.314102,98.0037593 185.100936,97.8340623 C184.862691,97.6585138 184.687143,97.0758596 184.499055,96.8309276 C184.460601,96.8877719 183.953182,96.9755462 183.896338,97.0315545 C183.721626,97.2012515 183.771782,97.5707395 183.696547,97.8340623 C183.482545,97.8783675 183.37638,98.2102379 183.295293,98.2353162 C182.548794,98.4919516 182.141688,97.9719934 181.690278,97.8340623 L181.488815,98.0346893 C181.558198,99.2443026 181.420267,99.3956088 181.288188,100.241586 C181.131866,100.241586 180.617759,100.160499 180.486516,100.241586 C180.323506,99.9849505 179.790173,99.7709484 179.683172,99.439078 L179.683172,99.439078 Z M113.477949,95.8277928 C113.377636,95.5644699 113.120164,95.5519307 112.875232,95.4265389 C113.044929,94.9751282 112.994773,94.6240311 113.076695,94.2227772 C113.408566,94.1851596 113.271471,93.9845327 113.477949,93.8215233 C113.571575,93.9101335 114.148378,93.8215233 114.280457,93.8215233 C114.167604,94.6365703 114.185995,95.0879809 114.07983,95.8277928 C114.0489,95.8277928 113.477949,95.8219412 113.477949,95.8277928 L113.477949,95.8277928 Z M111.270217,93.2196424 C111.214208,93.0633206 110.794564,92.7247626 110.669172,92.6177615 C111.120582,91.6965494 111.301983,90.5304053 112.675441,91.0127459 C113.064156,91.1573645 113.013999,91.6087751 113.277322,91.8160897 C113.076695,91.9473331 112.888607,91.733331 112.675441,91.8160897 C112.193101,92.0033415 112.130405,93.0633206 111.672307,93.2196424 L111.270217,93.2196424 Z M179.082127,91.0127459 C178.975126,90.7995798 178.524551,90.5621712 178.480246,90.410865 C178.310549,89.9151493 178.342315,89.1887125 178.279619,88.8058494 C177.589128,88.5742925 176.906161,88.2675004 176.272514,88.0033416 C176.780769,87.1882946 177.025701,86.4610219 177.87753,85.997072 C181.508041,84.0417952 179.696547,89.0817115 179.483381,91.0127459 L179.082127,91.0127459 Z M103.646392,86.5989529 L103.646392,86.197699 C103.628002,86.2913249 103.383905,85.4771139 103.446601,85.1945642 C103.509297,84.8685454 104.035943,84.1922654 104.249109,83.7901755 L104.650363,83.7901755 C104.756528,83.6965496 104.906998,83.2382842 105.051617,83.1883783 C105.271471,83.1128924 105.640959,83.2886082 105.854125,83.1883783 C105.904282,83.3078349 106.456006,83.9908025 106.456006,83.9908025 C106.518702,84.4798307 106.098221,84.4045956 106.054752,84.5926834 C105.923508,85.0817116 106.29216,85.3701128 106.254543,85.5958181 C106.18098,85.9778453 104.593519,87.0378244 103.646392,86.5989529 L103.646392,86.5989529 Z M142.568857,83.1883783 C143.182442,82.066372 143.765096,81.3518893 143.973246,79.7776365 C144.173873,79.7466229 144.473978,79.3949405 144.574291,79.3773021 C145.696966,79.169904 146.4117,79.9790994 146.981815,78.5739583 C147.320372,77.7403533 146.931658,76.1981172 147.984949,76.7692353 C148.28589,76.9380127 148.330195,78.5864139 148.386203,78.9749615 C147.001041,79.3329134 146.034688,79.9347106 145.176172,80.7807712 C145.227165,80.931325 145.383486,81.3707817 145.376799,81.3825685 C145.207102,81.6275006 142.969275,82.944115 142.568857,83.1883783 L142.568857,83.1883783 Z M114.681711,73.759831 C115.020269,73.0316387 115.00773,71.8654945 116.487353,72.3543556 C116.631136,72.4046795 116.870217,72.8569261 117.089234,72.957156 C117.089234,73.2448049 116.994772,73.7029867 117.089234,73.9592876 C116.901147,74.1039898 116.430509,74.7061214 116.285891,74.7619626 C116.066873,74.8498205 115.878785,74.6375739 115.684846,74.7619626 C115.408984,74.4301758 114.963425,74.1108445 114.681711,73.759831 Z M119.095504,57.1068742 C119.157364,57.0200195 119.095504,56.605892 119.095504,56.5049934 C119.30867,56.4054322 119.703236,55.9466653 119.898012,55.9038649 C122.042212,55.4215242 121.170321,57.4454322 120.901146,58.110009 C120.724762,58.110009 120.249109,58.0355262 120.097803,58.110009 C119.847855,57.7905942 119.340436,57.4402493 119.095504,57.1068742 L119.095504,57.1068742 Z M117.089234,41.4579718 C117.177009,41.1134786 117.089234,40.6184316 117.089234,40.255046 C119.069589,39.7534786 118.343153,39.2385361 118.894877,41.2581808 C118.713477,41.4018798 118.556319,41.3894243 118.493623,41.6595183 C118.160917,41.7597482 117.954438,41.6970522 117.690279,41.8599781 C117.64681,41.746373 117.208774,41.5523501 117.089234,41.4579718 Z M120.499057,36.8443042 C119.709924,36.0978047 119.170739,35.3144401 118.493623,34.4366972 C118.493623,34.4426324 118.894877,34.8380347 118.894877,34.8380347 C119.608774,35.082298 120.148795,35.1949834 121.301564,35.2393722 C121.194563,35.8846386 121.176173,36.10374 121.101773,36.8443042 C121.070007,36.8443042 120.499057,36.8377838 120.499057,36.8443042 L120.499057,36.8443042 Z M115.282756,35.6407097 C115.289443,35.571159 115.133121,34.9441998 115.082965,34.6375749 C116.449736,33.5648894 118.600624,32.2106575 117.289861,35.4391632 C116.443048,35.5593722 116.048482,35.5276898 115.282756,35.6407097 Z M13.7676068,34.4366972 C14.056008,34.3547745 14.871055,33.3075018 13.7676068,33.6344401 C13.4917447,33.7153597 13.209613,34.5990378 13.7676068,34.4366972 Z M15.5730822,34.4366972 C15.6047645,34.3240953 16.1373455,34.1542311 16.1752138,34.0353597 C16.2817133,33.6719741 16.1686934,33.5337923 15.9744197,33.4335624 C15.9744197,33.4335624 16.3127269,32.4679616 16.3757572,32.2299678 C16.0808355,32.4363628 15.9302817,32.3243461 15.5730822,32.4304276 C15.5227582,32.6940013 15.1969066,32.882089 15.1717447,33.0316397 C15.0653288,33.6033429 15.5103862,34.0856836 15.5730822,34.4366972 L15.5730822,34.4366972 Z" id="path14"></path>
                        <path d="M127.226747,8.02083157 L128.008356,8.02083157 C128.810864,8.02083157 129.070843,8.25169467 129.070843,8.72325997 C129.070843,9.13370928 128.871052,9.36518263 128.119537,9.36518263 L127.226747,9.36518263 L127.226747,8.02083157 Z M127.226747,5.61520571 L126.564678,5.61520571 L126.564678,9.90528711 L128.208983,9.90528711 C129.232181,9.90528711 129.732912,9.52484825 129.732912,8.68204785 C129.732912,7.91143972 129.251407,7.57967797 128.610237,7.4993436 L129.833226,5.61520571 L129.110969,5.61520571 L127.968231,7.48008341 L127.226747,7.48008341 L127.226747,5.61520571 Z M128.019224,10.8780771 C126.293832,10.8780771 124.960498,9.54482735 124.960498,7.77102593 C124.960498,5.9561127 126.293832,4.64211483 128.019224,4.64211483 C129.723717,4.64211483 131.056214,5.9561127 131.056214,7.77102593 C131.056214,9.54482735 129.723717,10.8780771 128.019224,10.8780771 Z M128.019224,11.4802087 C130.043884,11.4802087 131.778471,9.90528711 131.778471,7.77102593 C131.778471,5.61520571 130.043884,4.04094452 128.019224,4.04094452 C125.972829,4.04094452 124.239077,5.61520571 124.239077,7.77102593 C124.239077,9.90528711 125.972829,11.4802087 128.019224,11.4802087 L128.019224,11.4802087 Z" id="path16"></path>
                    </g>
                </g>
            </g>
        </g>
    </g>
</svg>