<?xml version="1.0" encoding="UTF-8"?>
<svg width="200px" height="200px" viewBox="0 0 200 200" version="1.1" xmlns="http://www.w3.org/2000/svg" xmlns:xlink="http://www.w3.org/1999/xlink">
    <!-- Generator: Sketch 54.1 (76490) - https://sketchapp.com -->
    <title>columbia</title>
    <desc>Created with Sketch.</desc>
    <g id="columbia" stroke="none" stroke-width="1" fill="none" fill-rule="evenodd">
        <g id="columbia_BGL" transform="translate(-0.000000, 0.000000)">
            <g id="columbia" transform="translate(15.000000, 0.000000)">
                <g id="g10" transform="translate(85.472355, 99.628333) scale(-1, 1) rotate(-180.000000) translate(-85.472355, -99.628333) translate(0.000000, 0.037586)" fill-rule="nonzero">
                    <g id="g12">
                        <path d="M142.628481,127.220381 C142.628481,127.220381 159.950289,101.482418 146.83664,68.7578496 L130.051993,87.7395586 C130.051993,87.7395586 129.944074,75.4055596 122.809289,60.9309675 C115.368218,45.8342924 107.632804,46.1050997 105.255943,45.4094014 C104.411613,45.2652656 91.8203081,21.0763422 89.1645836,21.7766608 C81.5235983,23.7839505 73.4978216,43.7319439 72.6605685,43.1706545 C69.0048285,40.7386949 67.2067025,45.2486856 67.2067025,45.2486856 C81.6613714,16.9167208 84.6704848,22.6912156 84.6704848,20.9388606 C84.6704848,19.9597763 83.0293713,11.5618115 82.6114082,11.7090422 C71.3210962,15.4705659 53.9754051,60.4620841 53.9754051,60.4620841 L49.220798,48.1506339 C42.2257759,54.5903198 45.49009,89.6681483 44.3713199,89.1101749 C30.4471767,82.1445703 27.7887985,73.3973857 25.8946958,69.0777338 L23.9795843,74.9150116 C11.3923923,94.635527 27.3737103,127.774818 27.3737103,127.774818 C23.7407482,128.055352 14.5050014,119.802695 14.5050014,120.223606 C14.5050014,138.303583 35.3481815,155.03947 31.1568295,154.624527 C26.955526,154.200742 21.0818171,152.527042 21.0818171,152.527042 C19.6501497,158.240744 29.3452136,167.628581 28.7142883,167.628581 C17.3838607,167.628581 13.6047884,172.452487 13.6047884,172.452487 C19.063011,173.078328 24.8228083,184.26742 30.6946374,184.551934 C40.0063695,184.992521 41.1850698,179.512266 41.1850698,179.512266 C47.6922471,183.711215 56.7153856,184.347004 56.7153856,184.347004 C55.2491975,187.707004 50.8386913,189.664332 50.8386913,189.664332 C58.9588967,192.616242 71.7335307,186.855453 71.7335307,186.855453 C72.3615811,191.678475 70.5417829,193.223734 70.5417829,193.223734 C76.765453,194.253686 85.4064537,184.26742 85.4064537,184.26742 L85.6693946,183.6376 C85.6693946,183.6376 94.0368396,193.699471 100.26051,192.660455 C100.26051,192.660455 98.4407114,191.126028 99.0709733,186.295269 C99.0709733,186.295269 111.840963,192.0523 119.964928,189.105917 C119.964928,189.105917 115.558624,187.147925 114.090445,183.786599 C114.090445,183.786599 120.715493,183.153021 127.219574,178.961809 C127.219574,178.961809 130.804327,184.432336 140.110088,183.992855 C145.984349,183.711215 151.737866,172.524113 157.195713,171.890313 C157.195713,171.890313 153.420113,167.065523 142.089995,167.065523 C141.459954,167.065523 151.949059,157.677686 150.524225,151.966858 C150.524225,151.966858 144.64355,153.642547 140.448881,154.061469 C136.253327,154.479286 155.495996,137.745388 155.495996,119.662317 C155.495996,119.24251 146.268962,127.493178 142.628481,127.220381" id="path14" fill="#88C3EC"></path>
                        <path d="M69.1158431,94.1096083 C69.1158431,94.1096083 63.118625,88.4478577 71.1147683,75.0591474 C71.1147683,75.0591474 70.9164017,79.2121147 72.5106325,84.8661279 C73.5066674,88.3850747 74.7107993,91.8412383 74.7107993,93.3551061 C74.7107993,94.8630051 70.5139187,94.1096083 69.1158431,94.1096083" id="path16" fill="#FFFFFF"></path>
                        <path d="M69.3310167,93.6298926 C68.9807238,93.2255608 67.9548344,91.8655557 67.5817636,89.4453127 C67.193655,86.9286843 67.4554901,82.7628951 70.6572203,76.8418328 C70.7487742,78.5979902 71.0597034,81.504802 72.044681,84.9972207 C72.312487,85.9438302 72.5931194,86.878281 72.8646849,87.7822246 C73.5650496,90.114704 74.2264928,92.3178591 74.2264928,93.3551061 C74.2264928,93.4192156 74.2096858,93.4574602 74.1623609,93.5012315 C73.6563823,93.9679042 71.5223377,93.7943665 70.3763668,93.7017394 C69.9769798,93.6694636 69.6209372,93.6405038 69.3310167,93.6298926 L69.3310167,93.6298926 Z M70.6992378,74.8111101 C67.3230245,80.464239 65.9567937,85.4674305 66.6388034,89.6825177 C67.1587141,92.8966129 68.7173407,94.3992062 68.7834629,94.4615472 L68.9232262,94.5937453 L69.1158431,94.5937453 C69.3969178,94.5937453 69.8146597,94.6275686 70.2980817,94.6666975 C72.3237654,94.8311714 74.0626247,94.9103134 74.818939,94.2128466 C75.0648517,93.9860317 75.1951058,93.6895807 75.1951058,93.3551061 C75.1951058,92.1754918 74.5449409,90.0105813 73.792165,87.503901 C73.5219264,86.6037156 73.2423997,85.6728019 72.976584,84.7343719 C71.4250341,79.2324529 71.5966422,75.1228147 71.5986325,75.0821384 L70.6992378,74.8111101 L70.6992378,74.8111101 Z" id="path18" fill="#114781"></path>
                        <path d="M103.739113,94.1096083 C103.739113,94.1096083 109.729033,88.4478577 101.739082,75.0591474 C101.739082,75.0591474 101.935237,79.2121147 100.342775,84.8661279 C99.3418753,88.3850747 98.1426086,91.8412383 98.1426086,93.3551061 C98.1426086,94.8630051 102.341037,94.1096083 103.739113,94.1096083" id="path20" fill="#FFFFFF"></path>
                        <path d="M100.400715,93.8111676 C99.6377667,93.8111676 98.9504495,93.7402051 98.6908259,93.5010104 C98.6435009,93.4574602 98.6266939,93.4192156 98.6266939,93.3551061 C98.6266939,92.3072479 99.2976464,90.0751329 100.007741,87.7119252 C100.272894,86.8305305 100.546671,85.9192918 100.808506,84.9983261 C101.79282,81.504581 102.10397,78.5968849 102.196188,76.8409486 C108.029095,87.6241616 104.264552,92.7763523 103.524824,93.6298926 C103.234461,93.6405038 102.878197,93.6694636 102.478589,93.7017394 C101.919757,93.7468371 101.125848,93.8111676 100.400715,93.8111676 Z M102.155055,74.8111101 L101.255439,75.0819173 C101.257429,75.1225937 101.426383,79.2322318 99.8768239,84.734814 C99.6169791,85.6478213 99.3440868,86.555523 99.0802613,87.4333806 C98.3173128,89.9721157 97.6583021,92.1648806 97.6583021,93.3551061 C97.6583021,93.6893596 97.7883351,93.9860317 98.0344689,94.2128466 C98.790562,94.9103134 100.530085,94.8311714 102.557095,94.6666975 C103.040296,94.6275686 103.458038,94.5937453 103.739113,94.5937453 L103.93173,94.5937453 L104.071935,94.4613261 C104.137836,94.3989852 105.694473,92.8963918 106.213499,89.6822966 C106.89396,85.4674305 105.528393,80.464239 102.155055,74.8111101 L102.155055,74.8111101 Z" id="path22" fill="#114781"></path>
                        <path d="M73.1094919,56.7751263 C73.1094919,56.7751263 67.1166967,62.434003 75.1101863,75.8233765 C75.1101863,75.8233765 74.9093871,71.6737252 76.5091465,66.0110904 C77.5042968,62.4956807 78.707323,59.039296 78.707323,57.5316181 C78.707323,56.0237191 74.5086732,56.7751263 73.1094919,56.7751263" id="path24" fill="#FFFFFF"></path>
                        <path d="M73.3246655,57.254842 C73.6143648,57.2442308 73.9699652,57.2154921 74.3684676,57.1834373 C75.5162076,57.0912523 77.6524636,56.9185989 78.1588846,57.3854927 C78.2064306,57.429264 78.2232376,57.4675086 78.2232376,57.5316181 C78.2232376,58.5648859 77.5617944,60.7673778 76.8616508,63.099194 C76.5907488,64.0018112 76.3103376,64.9349356 76.043195,65.8791133 C75.0555636,69.3746269 74.743971,72.2807756 74.652196,74.0373751 C72.7116529,70.4377388 70.915296,65.7371882 71.5771815,61.4378745 C71.94981,59.0185157 72.9745937,57.6591738 73.3246655,57.254842 L73.3246655,57.254842 Z M76.4339574,56.1066193 C75.7862251,56.1066193 75.0591019,56.1563594 74.2906247,56.2184793 C73.8076451,56.2573871 73.3905665,56.2912103 73.1094919,56.2912103 L72.916875,56.2912103 L72.7771117,56.4231874 C72.7109895,56.4857494 71.1534686,57.9876796 70.6342213,61.2011115 C69.9533174,65.4150934 71.319327,70.4182849 74.6944346,76.0714138 L75.5938293,75.8003855 C75.591839,75.7594881 75.4182406,71.653166 76.975098,66.1424043 C77.2402503,65.2059639 77.5193346,64.2765976 77.7893521,63.3777386 C78.5416857,60.8715004 79.1916294,58.7072531 79.1916294,57.5316181 C79.1916294,57.1973646 79.0615965,56.9009135 78.8156838,56.6738776 C78.3455305,56.2403649 77.4961145,56.1066193 76.4339574,56.1066193 L76.4339574,56.1066193 Z" id="path26" fill="#114781"></path>
                        <path d="M99.7401566,56.7751263 C99.7401566,56.7751263 105.734721,62.434003 97.740789,75.8233765 C97.740789,75.8233765 97.941146,71.6737252 96.3427134,66.0110904 C95.3475631,62.4956807 94.1460849,59.039296 94.1460849,57.5316181 C94.1460849,56.0237191 98.3387638,56.7751263 99.7401566,56.7751263" id="path28" fill="#FFFFFF"></path>
                        <path d="M98.1987793,74.0400279 C98.1072255,72.2836494 97.7956329,69.3761744 96.808886,65.8795554 C96.5424069,64.9391358 96.2637648,64.0097696 95.9939685,63.1109106 C95.2927192,60.7740098 94.6303914,58.5668755 94.6303914,57.5316181 C94.6303914,57.4672875 94.6471984,57.4288219 94.6947445,57.3850506 C95.200502,56.919041 97.3334408,57.0908102 98.4796328,57.1834373 C98.8787987,57.2154921 99.2348414,57.2442308 99.5252041,57.254842 C99.875497,57.6591738 100.900281,59.0187367 101.27313,61.4380955 C101.661018,63.9542817 101.398962,68.1191866 98.1987793,74.0400279 L98.1987793,74.0400279 Z M96.4172391,56.1066193 C95.3561877,56.1066193 94.5076562,56.2403649 94.0381664,56.6734354 C93.7920326,56.9004714 93.6619996,57.1971435 93.6619996,57.5316181 C93.6619996,58.7088006 94.3126068,60.8776903 95.0664884,63.389013 C95.3349578,64.284335 95.6127154,65.2101641 95.8767619,66.1428464 C97.4320713,71.653166 97.2591363,75.7594881 97.257146,75.8003855 L98.1565407,76.0714138 C101.531869,70.4182849 102.897658,65.4150934 102.216312,61.2011115 C101.696622,57.9876796 100.138659,56.4857494 100.072758,56.4231874 L99.9325523,56.2912103 L99.7401566,56.2912103 C99.4584185,56.2912103 99.0408976,56.2573871 98.5576969,56.2184793 C97.7903254,56.1563594 97.064308,56.1066193 96.4172391,56.1066193 L96.4172391,56.1066193 Z" id="path30" fill="#114781"></path>
                        <path d="M74.23755,92.8831278 L77.8318118,83.0765894 L81.6277574,91.0938103 L85.9279125,82.9852887 L90.4228959,91.4764776 L94.4172081,83.0765894 L98.3210722,92.3220594 C98.3210722,92.3220594 88.8251268,96.851504 86.0261007,96.851504 C83.2257477,96.851504 75.034776,93.7337941 74.23755,92.8831278" id="path32" fill="#FFFFFF"></path>
                        <path d="M81.6032104,92.1732812 L85.9274702,84.0196618 L90.4458949,92.5552852 L94.3911131,84.2592986 L97.6941275,92.0817594 C95.8393885,92.9472372 88.3596176,96.367588 86.0261007,96.367588 C83.5008515,96.367588 76.2891077,93.6579681 74.8127469,92.7208645 L77.888646,84.3282716 L81.6032104,92.1732812 Z M77.7747565,81.8249072 L73.6802659,92.9965352 L73.88394,93.2140653 C74.8218138,94.2146152 83.1235789,97.3356411 86.0261007,97.3356411 C88.9016428,97.3356411 98.1379646,92.9456898 98.5298326,92.7591091 L98.9471323,92.5597065 L94.4433032,81.8938802 L90.3996757,90.3976699 L85.9283548,81.9509155 L81.6523045,90.0141184 L77.7747565,81.8249072 L77.7747565,81.8249072 Z" id="path34" fill="#114781"></path>
                        <path d="M78.6347876,59.4122362 L81.2312453,67.5158944 L86.0261007,61.857902 L91.0202072,67.7033594 L94.0213594,59.9735257 C94.0213594,59.9735257 87.6236486,58.2770565 85.6256079,58.2770565 C83.6295576,58.2770565 78.6347876,59.4122362 78.6347876,59.4122362" id="path36" fill="#FFFFFF"></path>
                        <path d="M79.2579728,59.7705861 C80.5775421,59.4851884 84.0771541,58.7611935 85.6256079,58.7611935 C87.2120987,58.7611935 91.8130103,59.905216 93.3729637,60.3053475 L90.8620889,66.7728878 L86.0245527,61.1109161 L81.4260736,66.5370091 L79.2579728,59.7705861 Z M85.6256079,57.7931405 C83.5985973,57.7931405 78.7336392,58.8933917 78.5275325,58.9402579 L78.0124869,59.0574235 L81.036417,68.4947797 L86.0276487,62.605109 L91.1783256,68.633831 L94.6686494,59.6443567 L94.1456427,59.5057476 C93.8818172,59.4356694 87.6634546,57.7931405 85.6256079,57.7931405 L85.6256079,57.7931405 Z" id="path38" fill="#114781"></path>
                        <path d="M106.561801,80.4030034 C104.347481,74.4943209 103.599349,70.0391548 103.944556,68.0858055 C104.44191,65.2280706 104.013995,61.4411905 101.814934,59.786945 C100.314027,58.6528706 98.3210722,59.5309493 96.6899103,59.6573997 C95.0706902,59.786945 84.3832181,60.7702517 77.6907216,59.0355378 C73.694198,57.9967433 71.2938954,58.1408791 70.4413833,59.5309493 C68.4435638,62.8076065 69.6919245,65.2928433 69.5665356,67.8357786 C69.3179692,72.9881904 69.7556142,74.6904074 67.0671603,79.5289039 C64.3276221,84.4569326 63.782722,89.206118 69.5037306,93.0469385 C72.7673813,92.6094466 74.3826208,92.165986 79.128161,92.6967682 C82.1240057,93.035443 85.3783684,93.7337941 85.6256079,95.4928254 L86.1065973,95.4928254 C86.3564906,93.7337941 89.8143062,92.8831278 92.6073614,92.7301493 C98.1622905,92.4173393 97.5026164,92.0406409 103.836638,93.2275504 C105.58965,91.4282849 109.847345,89.1521776 106.561801,80.4030034 L106.561801,80.4030034 Z M112.602585,101.782407 C112.104125,100.774783 110.910608,100.013648 109.103636,99.264894 C105.002511,97.5706354 93.604502,98.010338 91.1064536,100.021386 L89.6081995,107.563754 L82.1266594,107.563754 L80.6284054,100.021386 C78.1270398,98.010338 69.1302175,97.4461746 64.127044,99.264894 C62.2911022,99.9362749 61.132305,100.774783 60.625884,101.782407 L56.6313507,101.091793 C56.6313507,101.091793 58.6572556,98.2104037 59.1280722,97.2538462 C59.5716881,96.3768729 61.3844097,95.3033708 63.787366,94.8013273 C62.7260935,93.4503861 58.9768094,86.8495423 62.4447977,80.1558503 C64.287816,76.5964483 66.9404445,73.0845757 66.3148267,67.962229 C65.5759828,61.8864197 64.4198393,58.6283322 67.3188228,55.3870457 C69.5665356,52.8666593 73.3328478,53.1383508 78.5680019,54.6248062 C86.0614838,56.7693786 94.4426397,54.8816863 96.8157415,54.3794217 C99.2259956,53.8683145 103.812975,53.3740084 105.940828,55.7646284 C108.06669,58.153701 108.215741,64.1174293 108.06669,68.0858055 C107.817239,74.6904074 109.68591,77.642538 111.067621,80.1558503 C114.380808,86.1905411 111.326802,93.0657292 109.661142,95.0721346 C112.455303,95.3789758 113.77642,96.6054563 114.102166,97.2538462 C114.575194,98.2104037 116.065045,100.905433 116.065045,100.905433 L112.602585,101.782407 L112.602585,101.782407 Z" id="path40" fill="#114781"></path>
                        <path d="M68.4218916,75.2762353 C68.77904,72.4319855 71.6295928,67.0910034 71.6295928,67.0910034 C70.2023261,62.822418 73.4098061,56.4132394 73.4098061,56.4132394 L69.4926733,56.0548896 L67.0003747,66.019712 L68.4218916,75.2762353" id="path42" fill="#114781"></path>
                        <path d="M105.189821,73.14139 C104.96934,70.6535004 102.109278,66.7339799 102.109278,66.7339799 L101.885701,57.8335958 L104.96934,56.4132394 L106.511823,67.0910034 L105.189821,73.14139" id="path44" fill="#114781"></path>
                        <polygon id="path46" fill="#114781" points="75.1880292 71.7208125 80.5255732 65.3114129 78.3899806 60.3256857"></polygon>
                        <polygon id="path48" fill="#114781" points="97.2593574 71.0036707 91.5613479 66.019712 94.0213594 59.9735257"></polygon>
                        <polygon id="path50" fill="#114781" points="72.5106325 84.8661279 78.0348225 81.6823189 74.5416237 92.0503678"></polygon>
                        <polygon id="path52" fill="#114781" points="77.8318118 83.0765894 81.6277574 91.0938103 84.4420425 85.5910071"></polygon>
                        <polygon id="path54" fill="#114781" points="86.2184964 82.0347 93.768149 84.2164116 90.4228959 91.4764776"></polygon>
                        <polygon id="path56" fill="#114781" points="94.4172081 83.0765894 100.342775 84.8661279 98.3173128 92.423087"></polygon>
                        <path d="M71.9825394,80.9682721 C79.4592143,81.6823189 83.3750202,77.0527309 85.5119397,76.3377997 C87.6453208,75.6264057 90.6053401,84.1704296 101.287062,80.609259 L100.145293,85.5910071 L94.4172081,83.0765894 L90.2028571,88.3919277 L85.8140231,82.6782264 L82.3057865,88.2672459 L77.8318118,83.0765894 L73.0557538,87.0144584 L71.9825394,80.9682721" id="path58" fill="#114781"></path>
                        <polygon id="path60" fill="#114781" points="62.3724834 83.4621305 67.7131234 83.1011279 66.5711332 93.848528"></polygon>
                        <polygon id="path62" fill="#114781" points="105.569968 83.2346524 111.493545 84.1704296 105.842639 94.4863067"></polygon>
                        <path d="M54.7471994,138.379187 C54.7471994,138.379187 35.9625209,122.801691 57.1446271,109.613268 C57.1446271,109.613268 38.9835761,106.8192 33.7601427,118.006303 C30.9675298,124.001644 40.0687323,132.577059 40.7558283,132.987139" id="path64" fill="#114781"></path>
                        <path d="M116.936575,138.379187 C116.936575,138.379187 135.726561,122.801691 114.543792,109.613268 C114.543792,109.613268 132.705727,106.8192 137.923411,118.006303 C140.724427,124.001644 131.614379,132.577059 130.929494,132.987139" id="path66" fill="#114781"></path>
                        <path d="M85.5119397,43.6074831 C85.5479263,43.4317348 85.5792907,43.2531125 85.6113155,43.0627737 C86.4036809,43.2228263 85.5119397,43.6074831 85.5119397,43.6074831" id="path68" fill="#114781"></path>
                        <path d="M33.2977295,180.196911 C37.8154908,180.414883 40.3159718,179.165854 41.6864044,177.892507 L32.7320419,169.438679 C22.7071187,169.705507 19.3103169,174.003494 19.3103169,174.003494 C24.5054659,174.606786 27.7049848,179.929199 33.2977295,180.196911 L33.2977295,180.196911 Z M57.8127047,186.594594 C65.5461283,189.405242 74.6652435,182.391666 74.6652435,182.391666 C75.2665355,186.994726 73.5334259,188.456643 73.5334259,188.456643 C79.4625315,189.445476 85.4064537,179.929199 85.4064537,179.929199 L85.6556836,179.334528 C85.6556836,179.334528 91.3441839,188.91182 97.2690878,187.922765 C97.2690878,187.922765 95.5377474,186.45709 96.1326261,181.861768 C96.1326261,181.861768 105.259703,188.87446 112.987376,186.061822 C112.987376,186.061822 108.794698,184.196679 107.391978,180.998501 C107.391978,180.998501 117.293724,179.485738 124.118464,176.611202 C127.957754,173.602257 134.767457,166.514181 139.147888,156.080476 C138.174189,156.250255 137.197172,156.404339 136.307508,156.496524 C134.073727,156.715159 134.700672,146.028553 138.620458,137.843542 C142.381242,132.030581 143.277983,125.102337 142.855376,121.610803 C141.607236,111.363456 133.418255,100.180333 127.720909,92.350577 C122.02688,84.5217053 119.892393,69.9381271 117.757021,63.1765675 C115.620102,56.4132394 113.360226,45.3830944 98.8060421,44.6717004 C89.7415496,44.2313346 82.1043238,43.0167917 73.0557538,45.0240814 C60.23866,47.874079 57.0351606,56.7693786 54.896472,63.5287275 C52.7641965,70.293382 50.627056,84.879613 44.9292675,92.702737 C39.2339117,100.538462 29.2731205,109.521083 28.2023388,121.974679 C27.6532369,128.344729 29.038265,130.233305 31.6926626,137.202889 C35.517357,142.791024 35.9722513,157.171442 34.5009768,157.026201 C33.7119332,156.945732 32.8658343,156.822156 32.0080147,156.674041 C36.7161814,167.747294 44.1351376,174.997412 47.7362549,177.560906 C54.477182,180.158666 63.4072186,181.527293 63.4072186,181.527293 C62.0084795,184.728566 57.8127047,186.594594 57.8127047,186.594594 L57.8127047,186.594594 Z M137.504784,179.665245 C143.097529,179.398417 146.296384,174.071362 151.491954,173.471828 C151.491954,173.471828 148.196458,169.287469 138.494185,168.913865 L129.3461,177.558033 C130.760761,178.758648 133.22984,179.86929 137.504784,179.665245 L137.504784,179.665245 Z M155.890518,142.907748 C155.890518,142.907748 159.688454,143.908298 167.27946,139.510388 C167.27946,139.510388 162.48372,158.29181 152.292718,164.487217 C151.782316,164.792289 156.685311,164.884474 163.885113,175.870406 C163.885113,175.870406 156.047752,179.186413 152.494844,181.26157 C146.697319,184.659814 141.101479,187.655937 137.903287,187.856224 C136.490837,187.94244 130.444524,189.393525 127.113867,186.061822 C126.513681,185.462288 122.585491,187.655937 120.984625,187.655937 C120.984625,187.655937 121.5826,188.723471 128.180226,190.325323 C128.766259,190.465701 117.054224,197.376039 104.194671,193.517754 C104.194671,193.517754 105.526624,196.715048 109.793828,197.512216 C109.793828,197.512216 96.4983991,202.158163 85.6556836,193.415842 C74.8001417,202.272234 61.0120024,198.044546 61.0120024,198.044546 C65.271688,197.244504 66.6034203,194.050747 66.6034203,194.050747 C53.7502799,197.913232 42.0420048,190.994493 42.622288,190.849473 C49.220798,189.257127 49.8181093,188.192688 49.8181093,188.192688 C48.2243208,188.192688 44.2925925,185.992186 43.6943966,186.594594 C40.3599796,189.927181 34.3118983,188.479191 32.8998905,188.387891 C29.6994871,188.192688 24.1074058,185.193471 18.3136186,181.801195 C14.7537005,179.717195 6.91801961,176.405167 6.91801961,176.405167 C14.1167158,165.413488 19.0247309,165.327935 18.5097959,165.016009 C8.32151327,158.823477 3.52303114,140.042055 3.52303114,140.042055 C11.1211586,144.438196 14.9139418,143.444278 14.9139418,143.444278 C-4.47213917,128.459463 0.518393702,91.2224714 0.724420777,94.8981548 C0.926560132,98.4929275 8.20636333,102.979264 9.75437493,103.42383 C8.97638852,97.8690761 8.88870472,90.6366435 10.7140979,81.1155028 C15.5112974,56.072796 32.5628663,43.8181601 32.5628663,43.8181601 C30.07875,51.4275122 30.5809692,58.3957695 31.4356927,62.895149 C31.6103969,62.5743806 31.7368915,62.2514015 31.7640923,61.933507 C32.7559255,51.0320231 36.1670796,41.7463189 38.3610543,38.7588175 C44.6227613,30.2362371 41.315545,32.497754 54.2425476,22.5094984 L53.6834943,35.6988062 C54.1669162,34.6071766 56.1010461,29.2896276 56.6824351,28.1761124 C67.8763281,6.6967869 90.5896389,0 90.5896389,0 C88.6568358,12.6510093 92.9056854,12.4763883 98.4469035,16.9793491 C103.960257,21.4784855 106.108234,24.6140576 108.303978,27.9258644 L108.326313,27.9455394 L108.386465,28.0604943 C109.451054,29.6645575 110.532451,31.3165922 112.031369,33.1817357 C111.022507,27.1952375 110.117584,23.3718813 105.79244,20.1147002 C105.083229,19.584139 137.069129,35.5557757 135.616652,61.6677843 C135.483081,64.0665838 138.992644,49.2787396 138.237657,43.287599 C138.237657,43.287599 155.289889,55.5420138 160.08961,80.5864891 C161.912504,90.1058613 161.8267,97.3332093 161.044733,102.895038 C162.59562,102.450693 169.875697,97.9612611 170.077823,94.3627301 C170.28393,90.6817412 175.275383,127.926912 155.890518,142.907748 L155.890518,142.907748 Z" id="path70" fill="#114781"></path>
                        <path d="M78.8621241,147.637479 C78.8621241,147.637479 84.6581007,153.63282 92.8528318,148.238782 L90.2519512,147.037945 C90.2519512,147.037945 85.8553771,149.737838 81.2624267,147.037945 L78.8621241,147.637479" id="path72" fill="#114781"></path>
                        <path d="M113.908001,110.551256 C113.908001,110.551256 112.653669,108.162183 114.660335,108.479193 C125.513886,110.167704 140.37325,105.872591 151.138565,97.6805058 C151.138565,97.6805058 133.828478,113.274582 113.908001,110.551256" id="path74" fill="#114781"></path>
                        <path d="M112.953762,110.448239 C112.953762,110.448239 112.183295,108.95692 112.885871,108.371313 C113.150139,108.137866 111.617165,108.178984 111.617165,108.178984 C111.617165,108.178984 111.222643,109.910603 111.752727,110.177431 C112.290329,110.448239 112.953762,110.448239 112.953762,110.448239" id="path76" fill="#114781"></path>
                        <path d="M110.113825,106.340369 C110.113825,106.340369 108.805313,103.990867 110.818391,104.250842 C121.707989,105.683357 136.46452,101.051559 147.029036,92.6017093 C147.029036,92.6017093 130.088039,108.605644 110.113825,106.340369" id="path78" fill="#114781"></path>
                        <path d="M109.204921,106.250174 C109.204921,106.250174 108.44153,104.766813 109.140125,104.170374 C109.405056,103.945549 107.876727,103.990867 107.876727,103.990867 C107.876727,103.990867 107.473801,105.719612 108.005654,105.982461 C108.539497,106.250174 109.204921,106.250174 109.204921,106.250174" id="path80" fill="#114781"></path>
                        <path d="M106.596963,101.929637 C106.596963,101.929637 105.152447,99.6555196 107.179237,99.8076138 C118.135842,100.614067 132.599799,95.1358019 142.66099,86.10123 C142.66099,86.10123 126.664059,103.038289 106.596963,101.929637" id="path82" fill="#114781"></path>
                        <path d="M105.656215,101.855138 C105.656215,101.855138 104.892603,100.374651 105.59341,99.7711377 C105.855245,99.5476389 104.327357,99.5918523 104.327357,99.5918523 C104.327357,99.5918523 103.924874,101.323471 104.456727,101.590299 C104.994771,101.855138 105.656215,101.855138 105.656215,101.855138" id="path84" fill="#114781"></path>
                        <path d="M56.6824351,110.551256 C56.6824351,110.551256 57.9405262,108.162183 55.9329763,108.479193 C45.0831841,110.167704 30.219619,105.872591 19.4611596,97.6805058 C19.4611596,97.6805058 36.7657178,113.274582 56.6824351,110.551256" id="path86" fill="#114781"></path>
                        <path d="M57.6450771,110.448239 C57.6450771,110.448239 58.4095737,108.95692 57.7105359,108.371313 C57.4458259,108.137866 58.9768094,108.178984 58.9768094,108.178984 C58.9768094,108.178984 59.3724369,109.910603 58.8416901,110.177431 C58.3074049,110.448239 57.6450771,110.448239 57.6450771,110.448239" id="path88" fill="#114781"></path>
                        <path d="M60.4755058,106.340369 C60.4755058,106.340369 61.7895465,103.990867 59.7775737,104.250842 C48.8897447,105.683357 34.129454,101.051559 23.5656017,92.6017093 C23.5656017,92.6017093 40.5077041,108.605644 60.4755058,106.340369" id="path90" fill="#114781"></path>
                        <path d="M61.3941401,106.250174 C61.3941401,106.250174 62.1562041,104.766813 61.4593777,104.170374 C61.1924563,103.945549 62.7236609,103.990867 62.7236609,103.990867 C62.7236609,103.990867 63.118625,105.719612 62.5883205,105.982461 C62.0549199,106.250174 61.3941401,106.250174 61.3941401,106.250174" id="path92" fill="#114781"></path>
                        <path d="M63.9987802,101.929637 C63.9987802,101.929637 65.4421904,99.6555196 63.4204873,99.8076138 C52.4623343,100.614067 37.9966082,95.1358019 27.9332059,86.10123 C27.9332059,86.10123 43.927704,103.038289 63.9987802,101.929637" id="path94" fill="#114781"></path>
                        <path d="M64.9382021,101.855138 C64.9382021,101.855138 65.7033621,100.374651 65.0027763,99.7711377 C64.7367394,99.5476389 66.2723669,99.5918523 66.2723669,99.5918523 C66.2723669,99.5918523 66.6691002,101.323471 66.1354785,101.590299 C65.6029625,101.855138 64.9382021,101.855138 64.9382021,101.855138" id="path96" fill="#114781"></path>
                        <polygon id="path98" fill="#114781" points="30.6152466 134.051577 37.0218031 142.887189 25.5267113 138.936498"></polygon>
                        <polygon id="path100" fill="#114781" points="141.941385 132.750818 134.111764 142.028564 145.609952 138.078978"></polygon>
                        <path d="M71.3082698,154.301769 L67.6443475,161.386087 C58.2251392,163.841701 54.5921771,167.736462 52.5408406,173.060643 C65.2431603,166.915197 74.5615267,163.432505 74.5615267,163.432505 L75.4045296,149.180528 L71.3082698,154.301769" id="path102" fill="#114781"></path>
                        <path d="M81.7573481,190.574687 L90.3127659,190.574687 C88.6725371,175.828182 87.6749542,162.723322 87.6749542,162.723322 L84.3949387,163.130307 C83.1689135,178.696971 81.7573481,190.574687 81.7573481,190.574687" id="path104" fill="#114781"></path>
                        <path d="M104.564866,115.598882 C104.384855,115.412301 104.555136,115.209362 104.329348,115.013054 C104.755935,115.519298 104.086089,115.536099 104.039648,116.096283 C106.087889,117.463804 104.039648,118.142701 104.039648,118.142701 C100.287932,118.827567 96.0959161,116.318898 91.4160559,115.466463 C89.3470278,115.089543 84.2419067,114.167472 80.8641454,115.466463 C76.4282076,117.170448 71.9922698,118.827567 68.2396685,118.142701 C68.2396685,118.142701 67.1352728,117.771751 67.3670323,117.03405 C66.8101904,116.749536 66.2922699,115.88428 66.8736589,113.369862 C67.8957888,108.934592 78.8128089,107.573702 81.2042657,105.862643 C81.2042657,105.862643 81.1602579,106.201097 81.0366381,106.673075 C82.9975265,104.902106 84.3615459,102.381941 84.2516371,98.359624 C84.2516371,98.359624 83.9769756,96.5789282 86.1406535,97.4481642 C88.3047737,96.5789282 88.0321026,98.359624 88.0321026,98.359624 C87.0800754,102.144515 88.7609949,104.856124 91.3373285,106.998928 C91.1378561,106.353191 91.0743876,105.862643 91.0743876,105.862643 C93.4640753,107.573702 104.384855,108.934592 105.404994,113.369862 C106.431547,117.801374 104.564866,115.598882 104.564866,115.598882" id="path106" fill="#114781"></path>
                        <path d="M74.7079244,142.677175 C72.9392106,138.609539 69.4342912,118.142701 69.4342912,118.142701 L66.2736938,113.420928 C59.9011935,118.142701 68.4022097,138.265338 68.4022097,143.044146 C68.4022097,147.816986 74.7079244,142.677175 74.7079244,142.677175" id="path108" fill="#114781"></path>
                        <path d="M100.236847,154.301769 L103.900106,161.386087 C113.324843,163.841701 116.960238,167.736462 119.004055,173.060643 C106.303947,166.915197 96.9864651,163.432505 96.9864651,163.432505 L96.1403662,149.180528 L100.236847,154.301769" id="path110" fill="#114781"></path>
                        <path d="M97.1925718,142.677175 C98.8942788,138.609539 102.311625,118.142701 102.311625,118.142701 L105.359881,113.420928 C111.499516,118.142701 103.310756,138.265338 103.310756,143.044146 C103.310756,147.816986 97.1925718,142.677175 97.1925718,142.677175" id="path112" fill="#114781"></path>
                        <path d="M61.4496473,148.501852 C61.4496473,145.724364 59.2003865,144.377402 56.4248017,144.377402 C53.6467843,144.377402 51.3961966,145.724364 51.3961966,148.501852 C51.3961966,151.273371 53.6467843,153.527592 56.4248017,153.527592 C59.2003865,153.527592 61.4496473,151.273371 61.4496473,148.501852" id="path114" fill="#114781"></path>
                        <path d="M56.4248017,152.406782 C54.2704118,152.406782 52.5173993,150.655046 52.5173993,148.501852 C52.5173993,145.714858 55.5081577,145.498213 56.4248017,145.498213 C57.3405611,145.498213 60.3284447,145.714858 60.3284447,148.501852 C60.3284447,150.655046 58.5772013,152.406782 56.4248017,152.406782 Z M56.4248017,143.256592 C52.6890074,143.256592 50.2749939,145.31539 50.2749939,148.501852 C50.2749939,151.891253 53.0337717,154.648624 56.4248017,154.648624 C59.8138414,154.648624 62.57085,151.891253 62.57085,148.501852 C62.57085,145.31539 60.1583845,143.256592 56.4248017,143.256592 L56.4248017,143.256592 Z" id="path116" fill="#114781"></path>
                        <path d="M41.7476614,154.187036 C49.4567592,156.093076 48.5739503,156.148122 55.7339462,156.296237 C73.1366926,156.663209 70.381232,145.127925 74.476165,143.39918 L69.04375,137.907209 C66.7044833,140.235267 67.9714202,141.498887 64.9244911,145.090565 C65.6051739,152.936238 58.8416901,153.551246 55.3597697,152.717381 C52.4895351,150.164719 49.4496826,153.564068 51.6819153,150.052859 C38.9623463,151.96111 41.7476614,154.187036 41.7476614,154.187036" id="path118" fill="#114781"></path>
                        <path d="M110.345363,148.501852 C110.345363,145.724364 112.591528,144.377402 115.370872,144.377402 C118.149332,144.377402 120.401467,145.724364 120.401467,148.501852 C120.401467,151.273371 118.149332,153.527592 115.370872,153.527592 C112.591528,153.527592 110.345363,151.273371 110.345363,148.501852" id="path120" fill="#114781"></path>
                        <path d="M115.370872,152.406782 C113.218251,152.406782 111.466787,150.655046 111.466787,148.501852 C111.466787,145.714858 114.454891,145.498213 115.370872,145.498213 C116.287958,145.498213 119.280265,145.714858 119.280265,148.501852 C119.280265,150.655046 117.526368,152.406782 115.370872,152.406782 Z M115.370872,143.256592 C111.636847,143.256592 109.22416,145.31539 109.22416,148.501852 C109.22416,151.891253 111.981611,154.648624 115.370872,154.648624 C118.763008,154.648624 121.52267,151.891253 121.52267,148.501852 C121.52267,145.31539 119.107993,143.256592 115.370872,143.256592 L115.370872,143.256592 Z" id="path122" fill="#114781"></path>
                        <path d="M130.048012,154.187036 C123.223493,156.727981 123.222166,156.139279 116.057305,156.296237 C99.4144107,156.663209 101.412673,145.127925 97.3144224,143.39918 L102.753029,137.907209 C105.092738,140.235267 103.819167,141.498887 106.871846,145.090565 C106.190057,152.936238 112.952436,153.551246 116.434135,152.717381 C119.307687,150.164719 123.229242,154.200742 120.995683,150.687543 C132.760792,151.006322 130.048012,154.187036 130.048012,154.187036" id="path124" fill="#114781"></path>
                        <path d="M60.3786445,148.846053 C60.3786445,147.025123 58.6572556,145.550606 56.535374,145.550606 C54.4187998,145.550606 52.6954206,147.025123 52.6954206,148.846053 C52.6954206,150.656151 54.4187998,152.134648 56.535374,152.134648 C58.6572556,152.134648 60.3786445,150.656151 60.3786445,148.846053" id="path126" fill="#FFFFFF"></path>
                        <path d="M59.2328947,150.215564 C59.2328947,148.678263 58.0701169,147.424592 56.6382061,147.424592 C55.2104972,147.424592 54.0446233,148.678263 54.0446233,150.215564 C54.0446233,151.758834 55.2104972,153.008748 56.6382061,153.008748 C58.0701169,153.008748 59.2328947,151.758834 59.2328947,150.215564" id="path128" fill="#114781"></path>
                        <path d="M119.393933,148.846053 C119.393933,147.025123 117.674534,145.550606 115.548893,145.550606 C113.431656,145.550606 111.710046,147.025123 111.710046,148.846053 C111.710046,150.656151 113.431656,152.134648 115.548893,152.134648 C117.674534,152.134648 119.393933,150.656151 119.393933,148.846053" id="path130" fill="#FFFFFF"></path>
                        <path d="M118.244424,150.215564 C118.244424,148.678263 117.081646,147.424592 115.655485,147.424592 C114.220036,147.424592 113.059912,148.678263 113.059912,150.215564 C113.059912,151.758834 114.220036,153.008748 115.655485,153.008748 C117.081646,153.008748 118.244424,151.758834 118.244424,150.215564" id="path132" fill="#114781"></path>
                    </g>
                </g>
            </g>
        </g>
    </g>
</svg>