<?xml version="1.0" encoding="UTF-8"?>
<svg width="200px" height="200px" viewBox="0 0 200 200" version="1.1" xmlns="http://www.w3.org/2000/svg" xmlns:xlink="http://www.w3.org/1999/xlink">
    <!-- Generator: Sketch 54.1 (76490) - https://sketchapp.com -->
    <title>bakersfield</title>
    <desc>Created with Sketch.</desc>
    <g id="bakersfield" stroke="none" stroke-width="1" fill="none" fill-rule="evenodd">
        <g id="bakersfield_BGL" transform="translate(-0.000000, 0.000000)">
            <g id="bakersfield" transform="translate(0.000000, 29.000000)">
                <g id="g10" transform="translate(99.829057, 71.138465) scale(-1, 1) rotate(-180.000000) translate(-99.829057, -71.138465) translate(0.000000, 0.027356)" fill-rule="nonzero">
                    <g id="g12">
                        <path d="M151.74427,47.3087851 C146.620851,56.1621183 143.174697,59.143178 143.174697,59.143178 C143.432475,75.5500836 131.329911,84.7480321 124.380852,89.5117926 C107.47145,101.098117 86.7152115,90.1798268 74.229058,114.875211 C67.6445111,110.462903 68.6297419,102.079314 68.6297419,102.079314 C50.0357594,109.331279 42.7507682,128.06974 42.7507682,128.06974 C36.5184264,124.272134 36.7735375,114.616066 36.7735375,114.616066 C28.1789395,123.414698 23.8792473,141.736749 23.8792473,141.736749 C10.3763416,121.217091 21.7027003,101.141878 21.7027003,101.141878 C20.9561704,85.142562 32.4041018,75.0078614 48.2366484,68.8670068 C64.0616736,62.7219813 72.2270067,55.8453319 72.2270067,55.8453319 C70.3254683,51.3757936 71.9514512,44.7876912 71.9514512,44.7876912 C71.9514512,44.7876912 51.5868021,53.374973 33.6784265,53.374973 C13.1974014,53.374973 0,42.2721357 0,42.2721357 C46.7137082,44.3808536 63.0833489,18.328273 63.0833489,18.328273 C56.1426311,4.78151783 69.9083743,0 69.9083743,0 L84.0923056,0 L84.0923056,10.3042049 C90.0895704,13.1842732 95.4215361,14.7959654 95.4215361,14.7959654 L93.3182883,21.4262559 C108.128544,13.0256407 121.564441,19.3654012 121.564441,19.3654012 C144.551791,10.5272476 182.05538,12.2134014 199.038628,24.0307003 C164.228372,26.7595891 157.565808,37.2553153 151.74427,47.3087851" id="path14" fill="#FFFFFF"></path>
                        <path d="M140.237261,57.6463575 C140.242732,57.6853319 140.242732,57.7195199 140.246834,57.7615028 C141.808543,74.3658101 125.249911,91.5022199 103.026322,93.2423908 C80.8013655,94.9791429 73.3688871,110.197604 73.3688871,110.197604 C69.7326478,104.551108 72.3152119,98.1572625 72.3152119,98.1572625 C53.1215029,100.983245 41.7598622,123.075552 41.7598622,123.075552 C37.4121016,116.521706 40.983999,107.245126 40.983999,107.245126 C28.3493326,115.096749 23.0646148,134.056749 23.0646148,134.056749 C15.5785295,119.900852 24.6076575,101.730596 24.6076575,101.730596 C23.3480336,89.9083738 30.8423924,78.5955536 49.5189731,71.552135 C68.2016393,64.5149386 75.5070067,56.8157251 75.5070067,56.8157251 C75.5070067,56.8157251 72.6133315,50.6810928 75.7729896,42.3808536 L73.7743571,40.6175033 C73.7743571,40.6175033 34.7326487,58.6823917 11.442051,45.2799305 C11.442051,45.2799305 49.8306312,44.9113151 66.5684086,18.5982901 C63.8419129,13.2382219 61.9142549,7.90755536 69.2198273,3.91372982 C69.2198273,3.91372982 75.254699,11.264957 91.6376045,16.806085 L89.3052969,24.1599994 L90.384955,26.5491275 C110.309057,14.6707005 119.309399,23.0734353 121.526151,22.5347003 C155.999312,9.36540148 189.130935,22.2756234 189.130935,22.2756234 C146.5388,27.9295036 153.169227,49.1821526 140.237261,57.6463575" id="path16" fill="#1E59AE"></path>
                        <path d="M108.193502,36.6639991 C106.788373,37.8803409 105.280681,39.1041358 103.766151,40.125811 C102.601023,39.5980161 102.274869,40.0814349 102.606493,40.8677597 C101.059827,41.7956913 99.5261514,42.4623579 98.1025617,42.6407511 C97.8133309,42.6802724 97.550083,42.7048878 97.2950403,42.7165801 C97.1993138,41.2486827 96.3432455,41.5494007 95.6916215,42.6298109 C93.0605105,42.1135032 93.6464934,39.7852298 93.6464934,39.7852298 C93.6464934,39.7852298 94.3726472,39.857093 95.5876899,39.6142896 C96.4082027,40.9094691 97.0762369,40.3549392 97.164442,39.1768195 C98.0875189,38.8573665 99.1452967,38.3664264 100.297433,37.629264 C100.473844,37.5173324 100.663929,37.3955546 100.858801,37.2780162 C102.123074,37.9636914 102.482049,37.409982 102.107348,36.5080333 C103.271109,35.8146316 104.597604,35.055794 105.971963,34.3466658 C107.042049,35.1308709 107.475553,34.6145632 107.280681,33.6882727 C109.925467,32.4014351 112.595553,31.3846146 114.430766,31.3621873 C113.21504,32.1305975 111.370937,33.8659137 109.238288,35.7505632 C107.842732,35.4222897 107.632134,35.9548709 108.193502,36.6639991" id="path18" fill="#FFFFFF"></path>
                        <path d="M113.306664,54.4273491 C109.03316,56.8739131 102.054698,65.7660154 96.5880318,61.2096395 C92.4300832,57.7435883 99.9569206,50.962597 102.542903,50.5974688 C102.542903,50.5974688 102.278288,55.9351097 106.391792,55.1335371 C110.507348,54.3295713 115.469399,47.8763065 118.544271,49.1151441 C121.111108,50.1538449 121.497433,53.5876226 120.635894,56.4765114 C119.187689,54.9716909 116.309057,52.7056397 113.306664,54.4273491" id="path20" fill="#FFFFFF"></path>
                        <path d="M129.221877,66.0245454 C129.221877,66.0245454 129.905638,56.6946994 125.044783,56.5632806 C125.044783,56.5632806 125.22051,49.7989047 127.821535,52.4041013 C130.417091,55.0112123 129.857091,57.6853319 133.092646,57.5275199 C133.092646,57.5275199 134.462903,62.4545625 129.221877,66.0245454" id="path22" fill="#FFFFFF"></path>
                        <path d="M111.390083,50.3576056 C111.390083,50.9401697 110.945638,51.4070414 110.388373,51.4070414 C109.837946,51.4070414 109.389399,50.9401697 109.389399,50.3576056 C109.389399,49.776409 109.837946,49.3052979 110.388373,49.3052979 C110.945638,49.3052979 111.390083,49.776409 111.390083,50.3576056" id="path24" fill="#FFFFFF"></path>
                        <path d="M130.950424,54.0205798 C130.593501,54.0205798 130.300851,53.7155542 130.300851,53.3341525 C130.300851,52.9593833 130.593501,52.6549047 130.950424,52.6549047 C131.310766,52.6549047 131.598629,52.9593833 131.598629,53.3341525 C131.598629,53.7155542 131.310766,54.0205798 130.950424,54.0205798" id="path26" fill="#FFFFFF"></path>
                        <path d="M119.446835,77.6793143 C120.793159,78.302904 122.810253,78.7890579 125.435211,78.2270066 C117.69504,87.499485 96.7993138,80.6160664 80.2304253,94.9497412 C86.6639295,78.3391433 110.419143,83.1247842 119.446835,77.6793143" id="path28" fill="#FCD006"></path>
                        <path d="M119.837262,69.1295709 C115.586322,72.8143572 111.72239,72.1504255 111.72239,72.1504255 C117.491279,69.2355538 117.991792,63.8002035 117.991792,63.8002035 C107.579484,74.4526477 97.9268352,68.8116222 97.9268352,68.8116222 C105.685467,68.1437248 109.018117,62.4006138 113.078288,58.7350413 C117.128202,55.0694687 121.174698,58.9331951 121.174698,58.9331951 C128.065638,57.7660156 125.897433,69.3073487 125.897433,69.3073487 C122.560681,70.5668358 119.837262,69.1295709 119.837262,69.1295709" id="path30" fill="#FCD006"></path>
                        <path d="M30.4476574,97.3613651 C30.8237257,81.6006817 66.7617761,73.9801691 75.8584596,64.8581864 C76.9073485,65.7812633 77.8776049,66.4492291 78.6331604,66.9094684 C64.1549386,77.3791434 37.124717,83.9008526 30.4476574,97.3613651" id="path32" fill="#FCD006"></path>
                        <path d="M83.8023911,82.4458099 C81.6745279,83.9261517 78.0827331,88.4116217 78.0827331,88.4116217 C69.8071777,90.3097413 63.993024,95.6642711 63.993024,95.6642711 C67.9075539,85.9097414 83.8023911,82.4458099 83.8023911,82.4458099" id="path34" fill="#FCD006"></path>
                        <path d="M77.5753827,73.7504255 C77.5753827,73.7504255 82.8560663,74.8464939 84.485468,76.8150408 C84.485468,76.8150408 57.5379131,86.8205107 45.9377766,105.33675 C45.9377766,105.33675 54.1014687,83.4229039 77.5753827,73.7504255" id="path36" fill="#FCD006"></path>
                        <path d="M48.2443749,87.5056388 L46.684033,91.1541858 C32.112683,99.6519633 26.6658455,116.227006 26.6658455,116.227006 C30.5982898,92.8396558 48.2443749,87.5056388 48.2443749,87.5056388" id="path38" fill="#FCD006"></path>
                        <path d="M125.82974,43.6033493 C125.82974,43.6033493 127.392134,40.6316571 129.774356,38.6754862 C129.774356,38.6754862 123.89333,40.1621187 122.477946,42.9778451 C122.477946,42.9778451 124.932646,41.8824605 125.82974,43.6033493 Z M129.323757,45.5576741 C140.94974,29.6677599 158.30974,23.7969909 158.30974,23.7969909 C136.254356,31.0769223 126.123758,46.102563 126.123758,46.102563 C128.504612,45.1650587 129.323757,45.5576741 129.323757,45.5576741 Z M114.201707,34.4075889 C129.548715,19.5296405 164.368543,23.1466661 164.368543,23.1466661 C158.17709,25.1282045 146.697432,34.9551444 142.873843,44.6864262 C138.914868,54.7433149 133.07145,49.7238278 131.23692,48.490392 C129.398287,47.2531954 124.721364,48.8472466 124.721364,48.8472466 C115.153501,43.9698451 103.562391,46.8042381 95.8523053,51.6369902 C89.5405106,55.585708 80.5531604,46.1388706 87.4290576,36.6754863 L86.8676901,35.8624265 C86.8676901,35.8624265 83.3777757,38.4246828 81.9391433,42.9572639 C81.7230749,44.9634177 81.7230749,47.9369561 82.7870065,51.2224944 C82.7870065,51.2224944 81.3422202,52.4821183 83.5104253,54.1266311 C83.5104253,54.1266311 83.5104253,58.3029045 90.4929892,63.1124771 C90.4929892,63.1124771 90.6981174,63.9446822 91.2061516,65.2575026 C90.4246131,65.2649556 89.6779465,65.2096394 88.9661516,65.1063232 C88.9948696,65.0980497 89.0099123,65.094836 89.0099123,65.094836 C89.0099123,65.094836 82.6666646,63.4925112 80.4984595,54.1266311 C79.0721348,47.9807851 80.3521347,43.9610245 81.3962373,41.9228024 C79.6929895,38.2024606 73.2512802,33.651965 67.7713487,32.3760676 C67.7713487,32.3760676 67.0990752,34.0955889 64.7798958,35.6151102 C64.7798958,35.6151102 67.4350752,36.4540846 69.1617077,37.3416059 C63.916101,39.4770588 42.5697083,47.6156569 22.6052644,47.1741527 C22.6052644,47.1741527 58.411349,46.1591783 70.9579469,21.4228371 C70.9579469,21.4228371 74.6229041,30.9524779 80.991451,33.383794 C80.991451,33.383794 72.706323,22.4514182 69.2211949,11.308786 C69.2211949,11.308786 80.0519638,17.1925466 85.8188013,20.0053328 C85.8188013,20.0053328 84.8519637,23.0480678 84.2707671,24.8691276 L86.7835876,30.0272129 C86.7835876,30.0272129 87.9295705,31.9644436 89.6929892,34.1196573 C89.9275191,33.8947684 90.1770918,33.6730932 90.4293994,33.450871 C103.79145,21.8843755 119.442048,28.2865634 119.442048,28.2865634 C111.496749,26.7718968 96.7740147,39.7457084 89.9275191,38.2139478 C90.3029037,44.3322382 97.8953822,50.2139475 114.201707,34.4075889 L114.201707,34.4075889 Z" id="path40" fill="#FCD006"></path>
                        <path d="M125.82974,43.6033493 C124.932646,41.8824605 122.477946,42.9778451 122.477946,42.9778451 C123.89333,40.1621187 129.774356,38.6754862 129.774356,38.6754862 C127.392134,40.6316571 125.82974,43.6033493 125.82974,43.6033493" id="path42" fill="#1E59AE"></path>
                        <path d="M129.323757,45.5576741 C129.323757,45.5576741 128.504612,45.1650587 126.123758,46.102563 C126.123758,46.102563 136.254356,31.0769223 158.30974,23.7969909 C158.30974,23.7969909 140.94974,29.6677599 129.323757,45.5576741" id="path44" fill="#FEEB96"></path>
                        <path d="M82.1620492,2.02938115 L81.4803398,2.02938115 L81.4803398,4.69204091 L81.4611945,4.69204091 L80.5565792,2.02938115 L80.1490578,2.02938115 L79.2396561,4.69204091 L79.2246134,4.69204091 L79.2246134,2.02938115 L78.540169,2.02938115 L78.540169,5.32585286 L79.6444425,5.32585286 L80.3507672,3.37500163 L81.0591433,5.32585286 L82.1620492,5.32585286 L82.1620492,2.02938115 Z M78.157263,4.69204091 L77.2013656,4.69204091 L77.2013656,2.02938115 L76.4478613,2.02938115 L76.4478613,4.69204091 L75.4899126,4.69204091 L75.4899126,5.32585286 L78.157263,5.32585286 L78.157263,4.69204091 L78.157263,4.69204091 Z" id="path46" fill="#1E59AE"></path>
                    </g>
                </g>
            </g>
        </g>
    </g>
</svg>