<?xml version="1.0" encoding="UTF-8"?>
<svg width="200px" height="200px" viewBox="0 0 200 200" version="1.1" xmlns="http://www.w3.org/2000/svg" xmlns:xlink="http://www.w3.org/1999/xlink">
    <!-- Generator: Sketch 54.1 (76490) - https://sketchapp.com -->
    <title>dartmouth</title>
    <desc>Created with Sketch.</desc>
    <g id="dartmouth" stroke="none" stroke-width="1" fill="none" fill-rule="evenodd">
        <g id="dartmouth_BGL">
            <g id="Group" transform="translate(22.000000, 0.000000)">
                <path d="M1.42108547e-14,2.52953214e-12 L1.42108547e-14,62.0688347 L7.89987674,62.0688347 L7.89987674,137.809804 L1.42108547e-14,137.809804 L1.42108547e-14,199.878638 L126.530767,199.878638 L157.064568,172.494548 L157.064568,27.3765052 L126.530767,2.52953214e-12 L1.42108547e-14,2.52953214e-12 Z M72.139945,137.809804 L92.8244999,137.809804 L92.8244999,62.0688347 L72.139945,62.0688347 L72.139945,137.809804 Z" id="Fill-1" fill="#000000"></path>
                <path d="M68.1824215,141.767706 L96.7839196,141.767706 L96.7839196,58.1097943 L68.1824215,58.1097943 L68.1824215,141.767706 Z M3.95941974,3.95979899 L3.95941974,58.1097943 L11.8592965,58.1097943 L11.8592965,141.767706 L3.95941974,141.767706 L3.95941974,195.919598 L125.015644,195.919598 L153.105148,170.725704 L153.105148,29.1423154 L125.015644,3.95979899 L3.95941974,3.95979899 Z" id="Fill-2" fill="#FFFFFF"></path>
                <g id="Group-7" transform="translate(13.273917, 14.044183)">
                    <path d="M90.1647862,33.144022 C91.2096331,34.078885 93.5268797,36.1590974 94.4314023,36.9707026 L94.4314023,134.922727 C92.8935242,136.276666 90.2046079,138.64132 90.2027117,138.647009 L43.9848298,138.647009 L43.9848298,33.144022 L90.1647862,33.144022 Z M1.60690244,0.837204892 L1.60690244,33.144022 L9.50677918,33.144022 L9.50677918,138.647009 L1.60690244,138.647009 L1.60690244,170.953826 L107.561202,170.953826 L128.909453,151.805253 L128.909453,19.9762966 L107.561202,0.837204892 L1.60690244,0.837204892 Z" id="Fill-3" fill="#000000"></path>
                    <path d="M40.0254101,142.60567 L40.0254101,29.1838437 L91.679909,29.1838437 C92.7247559,30.1187067 97.1942733,34.1331184 98.390822,35.2026169 L98.390822,136.713947 C97.1753105,137.783446 92.7266521,141.695458 91.6950792,142.60567 L40.0254101,142.60567 Z M106.046079,4.79586612 L5.56632218,4.79586612 L5.56632218,29.1838437 L13.4661989,29.1838437 L13.4661989,142.60567 L5.56632218,142.60567 L5.56632218,166.993647 L106.046079,166.993647 L124.950033,150.039063 L124.950033,21.7447615 L106.046079,4.79586612 Z" id="Fill-5" fill="#005F2F"></path>
                </g>
            </g>
        </g>
    </g>
</svg>