<?xml version="1.0" encoding="UTF-8"?>
<svg width="200px" height="200px" viewBox="0 0 200 200" version="1.1" xmlns="http://www.w3.org/2000/svg" xmlns:xlink="http://www.w3.org/1999/xlink">
    <!-- Generator: Sketch 54.1 (76490) - https://sketchapp.com -->
    <title>davidson</title>
    <desc>Created with Sketch.</desc>
    <g id="davidson" stroke="none" stroke-width="1" fill="none" fill-rule="evenodd">
        <g id="davidson_BGL">
            <g id="davidson">
                <g id="g10" transform="translate(99.945442, 99.971628) scale(-1, 1) rotate(-180.000000) translate(-99.945442, -99.971628) translate(0.000000, 0.026186)" fill-rule="nonzero">
                    <g id="g12">
                        <polyline id="path14" fill="#E51636" points="99.875393 199.752314 0 99.8799757 99.875393 0 199.748167 99.8799757 99.875393 199.752314"></polyline>
                        <path d="M175.835457,147.866227 L177.301905,152.013089 L172.90867,152.2228 C165.696886,152.567809 158.123509,153.981447 149.755152,156.543804 C147.602397,157.202397 145.527547,158.011562 143.331366,158.867863 C140.760717,159.869936 138.102561,160.90627 135.235785,161.717181 C133.857716,162.107143 132.521983,162.465462 131.222037,162.798905 C127.04375,164.01178 122.250952,165.101796 116.651606,165.821491 C110.623456,166.758316 107.018437,166.896886 106.757008,166.906051 C104.972174,166.95166 103.256953,166.974137 101.63033,166.974137 C94.3190375,166.974137 87.8843404,166.5246 81.9572265,165.599341 C75.4849954,164.58963 68.9300583,162.834038 61.9162014,160.233057 C60.9139101,159.861425 59.9162014,159.477356 58.9184928,159.093067 C55.3977073,157.737694 52.0715753,156.458043 48.5950888,155.724382 C44.6070911,154.882484 40.3995625,154.256406 36.0477896,153.836112 C25.0121107,152.987448 19.7593667,154.895795 19.7593667,154.895795 L22.4412433,149.132129 C22.4643748,149.077356 22.521767,148.944895 22.6092738,148.753079 C24.3196939,144.607089 26.9774134,140.372064 30.7410794,135.820182 C31.4020723,135.020182 32.0768132,134.259898 32.757446,133.516636 C35.9096554,130.033385 39.7809046,126.629348 44.3827594,124.106271 C43.7750125,122.893832 43.2373148,121.665682 42.7268947,120.473319 C41.7091097,118.096233 40.7279859,115.518819 39.7431523,112.671465 C36.7266767,104.20578 34.0379697,94.2921962 33.8280406,86.7231839 C33.6388426,79.9055081 33.803818,74.177194 33.803818,74.177194 L38.9318048,80.5071447 C38.8331687,74.9789398 39.5552636,68.2825951 42.7384605,60.849753 C43.7086732,58.5176199 45.9087823,54.7216571 46.7312591,53.572721 C50.2594641,48.5641014 55.4361143,44.0244397 63.0289128,41.6026176 L68.0589181,39.9993443 L67.2541172,45.2172384 C66.8992891,47.5622465 66.4846683,54.9955251 69.1489344,58.2164743 C69.8022896,59.0059996 70.6070904,59.4769216 71.6403692,59.665465 C71.9897418,58.1490438 72.5195836,56.3945431 73.4125459,54.5394422 C73.4568449,54.4462616 73.5061629,54.3513352 73.5524259,54.2581547 C73.6290216,54.1043085 73.7038716,53.951117 73.7861411,53.7966162 C74.9394417,51.5958525 76.6175649,49.2824865 79.1194743,47.078013 L79.1810128,47.0238941 L79.2449516,46.9728302 C80.4067629,46.0421156 84.5560263,42.8971075 89.7222018,41.0618648 L94.5003795,39.5253673 L93.9692284,42.5857054 C95.2711378,41.8873967 96.751116,41.2163656 98.4312032,40.6051272 L103.792687,38.6553182 L103.144787,42.1957436 C104.438841,41.7955254 105.641459,41.5096553 106.506926,41.3569002 L111.124056,40.6657928 L110.082485,45.9447888 C110.096669,45.9581003 110.109981,45.9703207 110.124602,45.9831958 C110.44626,46.1752307 110.918928,46.4019628 111.270046,46.570648 C111.80338,46.8261854 112.355044,47.0902334 112.903871,47.4221483 C116.649642,49.6901242 119.775229,53.0411334 121.941295,57.1129282 C122.483139,58.1331137 122.957116,59.1927972 123.350788,60.2653558 C123.568573,60.862628 123.727875,61.4441883 123.867755,61.9576635 C123.996724,62.4314223 124.118273,62.8789946 124.259462,63.2368779 C124.405016,63.6030535 124.700051,64.0379689 125.056407,64.0608822 C125.086085,64.0621915 125.116636,64.0635009 125.146969,64.0635009 C125.244514,64.0635009 125.342277,64.0530262 125.443314,64.0336045 C125.572283,64.0008713 125.693177,63.9583181 125.816254,63.9181653 C127.234039,63.3475161 128.804798,61.1539537 129.553079,59.0821589 C131.834148,52.9699932 129.837204,45.2981985 126.609926,40.6025085 L126.637204,40.5782859 C123.864045,36.6328414 120.652479,34.4460439 120.652479,34.4460439 C120.652479,34.4460439 123.765627,33.7861421 131.262845,37.0812866 C137.167482,39.6774676 147.419964,46.4903425 151.893941,51.230768 C154.800869,54.3114007 157.200651,57.374794 158.734093,60.6212751 C160.554715,64.473539 161.769118,68.9359503 162.555588,74.6642644 C162.829238,76.6557537 162.985048,78.6967793 163.023891,80.7698834 C163.445932,80.550789 163.783084,80.3768665 163.966826,80.2819402 L169.275282,77.5384596 L168.724273,83.4889232 C167.575773,95.8895775 163.86579,106.657062 160.94184,113.533221 C159.748823,116.823565 158.377301,120.054989 156.846041,123.179702 C168.786902,128.307689 175.522527,146.984175 175.835457,147.866227" id="path16" fill="#FFFFFF"></path>
                        <path d="M127.710417,107.105507 C127.706271,106.991159 127.695141,106.802616 127.677029,106.57632 C127.67441,106.547079 127.673319,106.518492 127.670919,106.488595 C127.602615,105.685758 127.422583,104.32733 126.973701,102.771192 C126.917836,102.571738 126.862408,102.383194 126.807635,102.213418 L155.494595,105.824329 L127.710417,107.105507" id="path18" fill="#E51636"></path>
                        <path d="M125.920128,100.358099 C125.219419,99.1057258 124.040586,97.2436419 122.527657,95.5775208 L157.781556,97.5026708 L125.920128,100.358099" id="path20" fill="#E51636"></path>
                        <path d="M152.186576,114.627166 L126.127002,114.355044 C126.690886,113.197597 127.141077,112.114782 127.417782,110.775993 C127.436767,110.689577 127.453134,110.602507 127.470155,110.515655 C127.521874,110.234585 127.564208,109.937586 127.60087,109.629894 C127.612435,109.533221 127.63513,109.440696 127.643641,109.342714 C127.651497,109.254553 127.653243,109.167046 127.660008,109.079321 C127.661099,109.073865 127.6659,109.06841 127.667209,109.062954 L152.186576,114.627166" id="path22" fill="#E51636"></path>
                        <path d="M58.8752849,110.043642 C59.0974344,111.06841 59.3929063,112.072665 59.7689019,113.03524 C59.7824317,113.069719 59.7933427,113.105725 59.8066543,113.139768 L48.8829229,113.763227 L58.8752849,110.043642" id="path24" fill="#E51636"></path>
                        <path d="M60.7986892,97.296015 C60.74828,97.3739201 60.6935064,97.4505158 60.6454977,97.529512 C60.037969,98.5235109 59.5653013,99.5879953 59.2124371,100.696997 C59.209382,100.707253 59.2074181,100.717073 59.2045812,100.727548 L44.0488805,97.6244384 L60.7986892,97.296015" id="path26" fill="#E51636"></path>
                        <path d="M58.5863597,103.367373 C58.5913788,103.370428 58.5937792,103.374138 58.5979254,103.377848 C58.4375326,104.513473 58.3954159,105.671138 58.4501895,106.825747 L46.6382967,106.513473 L58.5863597,103.367373" id="path28" fill="#E51636"></path>
                        <path d="M75.5792671,121.602397 C78.1913783,121.602397 80.3039805,123.699724 80.3238387,126.297215 C80.9243842,126.116527 81.5240569,125.917073 82.140969,125.696887 C82.140969,125.696887 79.018656,119.908999 73.2216021,120.536167 C67.4219296,121.158971 66.7096546,126.406762 67.0636099,128.09776 C67.0636099,128.09776 68.647025,128.216473 71.1629006,128.029675 C70.9562448,127.503543 70.8375323,126.932894 70.8375323,126.336276 C70.8375323,123.720455 72.9592999,121.602397 75.5792671,121.602397 Z M101.067101,88.0133093 L85.4317491,87.902671 C84.5335494,84.5994523 84.3648642,79.9705381 84.3648642,79.9705381 C80.615819,84.3574447 81.5855953,88.6915417 81.5855953,88.6915417 L91.9565716,93.0651368 C96.6908868,91.7636638 101.398361,90.3548259 106.089686,88.9064899 C104.722311,86.2103634 104.311618,82.8344769 104.005453,79.85619 C101.629021,82.0327312 101.127766,85.834586 101.067101,88.0133093 L101.067101,88.0133093 Z M103.297542,62.1091092 C97.7451149,64.7583181 90.6280392,64.7690109 85.0764845,62.1091092 C85.0426602,62.1228571 83.6665555,66.6014168 85.4238931,71.1223114 L88.5931238,66.1966159 C88.5931238,66.1966159 95.2735383,65.9323497 98.3138001,66.4584817 C98.3138001,66.4584817 98.8667733,69.1255847 101.514455,71.5194745 C101.514455,71.5194745 100.905617,65.9323497 103.297542,62.1091092 L103.297542,62.1091092 Z M154.905397,90.2897959 C155.615926,83.2480066 155.516199,76.151662 153.445714,69.3270032 C149.898087,57.6312042 139.383739,50.5763217 138.806325,50.1920337 C138.941404,56.1968344 138.406761,62.1169652 134.828147,67.1463158 C133.108562,69.5637735 131.074738,71.3145645 128.190504,72.1617003 C126.852152,72.5553719 125.409271,72.7906147 124.008944,72.7330042 C123.814945,72.6849955 118.169337,73.1223113 116.438622,67.2971069 C116.412436,67.2362231 116.394323,67.1755575 116.371192,67.1146737 C115.663063,63.3950884 114.148388,59.9319134 111.701907,57.0321862 C111.683576,57.0145103 111.6659,56.9968344 111.647788,56.9785038 C109.335513,54.370757 107.134094,53.4756124 107.134094,53.4756124 C100.24506,49.6661199 98.0711378,55.2735393 98.0711378,55.2735393 L95.424984,50.7581002 C93.1814488,50.6262944 88.9929056,54.5252578 88.9929056,54.5252578 L87.2298942,50.2533539 C84.1241659,51.3276583 81.7200198,53.8330592 80.3410782,56.7705387 C79.6292397,58.0436428 79.1962883,59.4725572 78.7777394,60.8639374 C78.3476249,62.2945975 78.0495343,63.5098729 78.1226385,65.0210567 C78.1256936,65.0190928 78.1335496,65.0125461 78.1335496,65.0125461 C78.8488796,71.126894 78.2649189,80.6651371 77.3110728,82.8178921 C77.0367684,83.5899597 76.3426058,85.4097087 75.2648099,86.7395505 C74.2745208,88.1106361 71.9336589,90.0244386 71.79487,90.1479519 C71.7944336,90.1479519 71.7937789,90.1483884 71.7937789,90.1483884 C73.9264575,89.4463698 76.1809037,88.2559716 77.5587542,86.4403688 C78.5623548,85.1168555 79.1432604,83.3732658 79.6635005,81.8149461 C80.1433695,80.3742479 80.4693924,78.8890324 80.6743024,77.3859228 C80.9043079,75.6892507 80.9894142,73.9744662 81.011891,72.263828 C81.0400416,70.1331134 80.8196379,68.1097637 80.9894142,65.8581544 C81.2205108,62.7799221 82.5771938,58.6108005 86.1300579,58.0364415 C91.5172918,59.8553177 101.157663,58.1732664 101.157663,58.1732664 C106.119583,60.6703749 112.575447,63.6357867 115.477575,85.936059 C115.304743,87.8003251 113.835676,89.2493158 112.099506,89.7665008 C115.722638,90.1438057 118.910635,92.2014161 121.528202,94.6376408 L121.629893,94.7118361 C121.946751,94.9795939 122.247897,95.2698285 122.527657,95.5775208 C124.040586,97.2436419 125.219419,99.1057258 125.920128,100.358099 C126.161044,100.788214 126.747405,102.028584 126.807635,102.213418 C126.869173,102.403271 126.920237,102.586359 126.973701,102.771192 C127.422583,104.32733 127.602615,105.685758 127.670919,106.488595 C127.673319,106.520892 127.67441,106.545769 127.677029,106.57632 C127.695141,106.802616 127.706271,106.991159 127.710417,107.105507 C127.74686,108.090777 127.68423,108.783194 127.660008,109.079321 C127.645387,109.270483 127.622255,109.449206 127.60087,109.629894 C127.564208,109.937586 127.521874,110.234585 127.470155,110.515655 C127.454443,110.604253 127.436112,110.690232 127.417782,110.775993 C127.141077,112.114782 126.690886,113.197597 126.127002,114.355044 C119.806216,113.397051 113.549152,111.808835 107.43284,109.963336 C111.415818,108.341514 116.564536,104.932021 116.564536,100.102125 C116.694814,96.1291847 112.754825,94.7788301 109.502234,94.3142366 L96.0248748,98.4353494 C102.98614,103.439823 105.020838,109.925584 105.020838,109.925584 L81.1786123,109.364754 C81.490669,104.304198 84.9335494,100.406981 87.8097087,98.0028344 L76.0178923,93.4138547 C74.1881051,93.337259 71.9605001,94.1206741 70.4975432,95.2168007 C69.3283125,96.0927417 68.5339863,97.3558077 68.291324,98.79847 C67.5753393,101.528639 69.322857,104.835131 71.3503528,106.600543 C73.009709,108.044733 75.2611001,108.767264 77.4400417,108.851279 L59.8066543,113.139768 C59.7933427,113.105725 59.7824317,113.069719 59.7689019,113.03524 C59.3929063,112.072665 59.0974344,111.06841 58.8752849,110.043642 C58.6472435,108.986358 58.5025626,107.908344 58.4501895,106.825747 C58.3954159,105.671138 58.4375326,104.513473 58.5979254,103.377848 C58.7251486,102.475066 58.9320225,101.589959 59.2045812,100.727548 C59.2074181,100.717073 59.209382,100.707253 59.2124371,100.696997 C59.5653013,99.5879953 60.037969,98.5235109 60.6454977,97.529512 C60.6935064,97.4505158 60.74828,97.3739201 60.7986892,97.296015 C60.7999985,97.2936146 60.8013078,97.2912142 60.8030536,97.2894684 C61.3852685,96.3786119 62.0720115,95.5271116 62.8883781,94.7655186 L63.6170197,94.3395503 C68.4591363,91.32242 71.4762666,87.6728838 72.3484979,86.2566263 C76.7100908,78.3847225 72.8144008,69.5055084 73.2469158,67.5138008 C69.5260212,68.4619732 62.5226389,67.9626824 57.8869598,52.9383511 C43.4810682,65.0385145 46.429677,87.8915417 47.0197479,91.1570081 C44.4222575,90.1150005 42.4141833,89.2469154 41.6137469,88.8960152 C45.5629012,112.783194 53.4518263,126.052152 53.4518263,126.052152 C54.1555906,127.452916 55.4402605,128.516309 57.0777945,128.10758 C58.7061633,127.701906 59.9696657,126.272992 60.7951976,124.886631 C61.7520988,123.278993 62.7965069,121.839604 64.2138555,120.582867 C66.6895783,118.388213 69.6811767,117.255425 72.9963975,117.475611 C74.7039807,117.588868 80.333004,117.576647 79.1286396,113.562027 C79.1286396,113.562027 94.4213833,125.630548 77.1821039,131.470155 L64.4067633,135.43153 C61.8627371,136.373592 59.3248212,137.480848 57.064483,138.997923 C55.6549904,139.943914 54.2127646,141.122746 53.4834684,142.696996 C51.3191477,147.368027 58.0680837,150.847569 61.2903422,152.399342 C65.7193655,154.176756 70.2439699,155.919472 74.8772485,157.081938 C82.3794851,158.964099 90.244624,159.767154 97.9681372,159.91489 L97.9681372,159.938021 C102.043205,160.012871 104.518928,159.826073 104.518928,159.826073 C112.919583,159.415381 121.260663,157.675064 129.373046,155.523619 C132.667973,154.650078 135.942386,153.689031 139.181229,152.622582 C142.423128,151.555043 145.588867,150.272118 148.834039,149.21178 C154.627601,147.320673 160.759843,146.030329 166.820945,145.433712 C165.618981,143.082593 161.79945,130.593777 146.017236,128.465245 L147.627929,125.421273 C159.954388,102.206871 160.233711,88.4525892 160.233711,88.4525892 C158.49885,89.1083447 156.710962,89.7215471 154.905397,90.2897959 L154.905397,90.2897959 Z M157.975119,112.3162 C156.296341,116.962354 154.321655,121.28423 152.179811,125.220073 C164.981338,126.751115 172.829674,148.937476 172.829674,148.937476 C164.629783,149.329838 156.706161,151.000324 148.875501,153.398141 C143.991486,154.893395 139.496123,157.116199 134.42291,158.55166 C117.862081,163.237966 106.72231,163.618763 106.72231,163.618763 C98.6622998,163.823236 90.5147822,163.593886 82.5387868,162.349369 C75.8900145,161.312162 69.4337135,159.48543 63.1310404,157.147623 C58.5785037,155.45968 54.1167471,153.512053 49.3475165,152.505834 C43.3363874,151.236221 37.1463166,150.480084 31.0136381,150.13944 C29.8011995,150.072664 26.5352967,149.767809 25.5648657,150.340204 C25.5648657,150.340204 25.5729399,150.321437 25.5770861,150.311617 C25.574031,150.314017 25.568139,150.315326 25.5648657,150.317727 C27.3606103,145.821273 30.2714668,141.594759 33.3390063,137.884776 C37.6067639,132.722746 42.8480077,128.184176 49.0153834,125.462081 C47.7064909,123.511181 46.7319137,121.320673 45.811019,119.167918 C44.5328958,116.181776 43.4125467,113.128202 42.3838505,110.048442 C40.2681932,103.717182 38.3938888,97.1799212 37.5124922,90.5492612 C37.1975986,88.1789394 37.1292953,85.8003252 37.1513357,83.4116728 L37.1519903,83.4116728 C37.1519903,83.4049079 37.1513357,83.3977066 37.1513357,83.3902871 L37.1823231,83.4280394 L42.9446798,86.5121637 C41.1550453,80.8080722 41.462083,51.9181656 64.0999438,44.699617 C64.0999438,44.699617 61.3420607,62.5791583 72.4440789,63.0049084 C73.0797581,62.986796 73.7280942,62.9486073 74.4399327,62.8327317 C74.9946517,59.5967252 75.918165,54.3063816 81.358645,49.5129284 C81.5897415,49.3287494 85.7324583,45.958755 90.8942694,44.1246034 C90.8602269,44.1477348 90.0809579,50.0141831 90.0809579,50.0141831 C90.8451696,48.5682476 93.7398776,45.8005444 99.6272752,43.6593552 L98.8410232,47.9522083 C99.3863587,47.0537904 103.390068,45.2226939 107.152861,44.557773 C107.152861,44.557773 106.356789,45.9836322 107.076266,47.3791587 C107.803816,48.790397 109.873211,49.3444614 111.288377,50.2009807 C114.60338,52.2077456 117.317618,55.2194203 119.131694,58.6302222 C119.601743,59.5140192 120.012436,60.4301131 120.356571,61.3704295 C120.722965,62.3705385 120.906707,63.4343683 121.296451,64.4205112 C121.909653,65.9698838 123.211999,67.1980343 124.930493,67.3056175 C128.68674,67.5386781 131.592141,63.2589182 132.70638,60.1728299 C135.280739,53.2763762 133.205234,44.8606645 129.139768,38.9451163 C136.263172,43.2949253 143.704306,47.6126557 149.667645,53.5325682 C152.158643,56.0058906 154.350242,58.8126554 155.854442,61.9989073 C157.781556,66.0770305 158.78232,70.6426605 159.392904,75.0900145 C159.902233,78.7965065 159.962898,82.5174011 159.651715,86.2420055 C160.247677,85.9063808 165.545877,83.1683558 165.545877,83.1683558 C164.579374,93.6037074 161.5749,103.873647 157.975119,112.3162 L157.975119,112.3162 Z" id="path30" fill="#231F20"></path>
                        <path d="M113.098961,120.346969 C107.300161,119.720237 104.179594,125.50878 104.179594,125.50878 C105.546533,126.001743 106.876811,126.388431 108.149479,126.707253 C108.102561,126.44626 108.068519,126.181121 108.068519,125.909217 C108.068519,123.293396 110.192032,121.177957 112.811345,121.177957 C115.433276,121.177957 117.554825,123.293396 117.554825,125.909217 C117.554825,126.640913 117.381339,127.318491 117.083903,127.939113 C118.447788,127.967045 119.252588,127.907907 119.252588,127.907907 C119.613963,126.217564 118.896233,120.968682 113.098961,120.346969 L113.098961,120.346969 Z M132.379047,139.256516 L107.268519,131.470155 C90.7227473,125.435894 105.321983,113.562027 105.321983,113.562027 C105.061645,115.638622 104.350025,117.883903 111.745551,117.455098 C125.176865,116.676484 124.203598,130.496887 124.203598,130.496887 L132.379047,139.256516 L132.379047,139.256516 Z" id="path32" fill="#231F20"></path>
                        <path d="M166.820945,145.433712 C157.768899,142.054115 148.814617,139.823237 139.052042,140.120891 C141.825419,136.654661 143.739222,132.284121 146.017236,128.465245 C161.79945,130.593777 165.618981,143.082593 166.820945,145.433712" id="path34" fill="#E51636"></path>
                        <polygon id="path36" fill="#E51636" points="111.347079 127.324601 112.656844 123.174247 113.891541 127.719582"></polygon>
                        <polygon id="path38" fill="#E51636" points="74.2245481 127.53824 75.5410783 122.988104 76.7716293 127.15788"></polygon>
                        <path d="M116.695905,138.782539 L98.1198011,137.309762 L93.7915961,150.103651 L95.197379,127.172064 C95.197379,127.172064 95.914673,133.935621 116.695905,138.782539" id="path40" fill="#231F20"></path>
                        <path d="M69.776103,137.999778 L85.9836312,137.250188 L90.0257479,150.760498 L88.813964,127.817345 C88.813964,127.817345 86.8047987,134.3701 69.776103,137.999778" id="path42" fill="#231F20"></path>
                        <path d="M85.3315854,106.553189 C85.3315854,106.553189 85.8649187,104.422911 86.840587,103.653243 C86.840587,103.653243 86.8150551,104.167373 87.5116181,104.620619 C88.2153824,105.0647 89.4734293,104.2647 89.4897959,102.847351 C89.4965608,102.354607 89.2298941,101.155699 89.2298941,101.155699 L91.8797577,98.9080172 L94.4255296,101.664809 C94.4255296,101.664809 93.3280937,102.471356 93.2606632,103.020838 C93.1997794,103.578612 93.6401504,104.445387 94.3561351,104.815273 C95.4845584,105.405344 96.7426053,104.31751 96.7426053,104.31751 L99.1969424,106.932021 C99.1969424,106.932021 88.8541167,106.573265 85.3315854,106.553189" id="path44" fill="#E51636"></path>
                    </g>
                </g>
            </g>
        </g>
    </g>
</svg>