<?xml version="1.0" encoding="UTF-8"?>
<svg width="200px" height="200px" viewBox="0 0 200 200" version="1.1" xmlns="http://www.w3.org/2000/svg" xmlns:xlink="http://www.w3.org/1999/xlink">
    <!-- Generator: Sketch 54.1 (76490) - https://sketchapp.com -->
    <title>delaware-st</title>
    <desc>Created with Sketch.</desc>
    <g id="delaware-st" stroke="none" stroke-width="1" fill="none" fill-rule="evenodd">
        <g id="delaware-st_BGL" transform="translate(0.000000, -0.000000)">
            <g id="delaware-st" transform="translate(0.000000, 24.000000)">
                <g id="g10" transform="translate(99.978616, 75.983748) scale(-1, 1) rotate(-180.000000) translate(-99.978616, -75.983748) translate(0.000000, 0.037630)" fill-rule="nonzero">
                    <g id="g12">
                        <path d="M79.6004256,78.5825082 C79.6004256,78.5825082 77.5047233,77.1448345 77.4843684,77.12944 C77.3618967,77.0562307 77.0454546,76.9363248 76.6465664,76.8058138 C76.8381422,77.3583047 76.9977317,77.9205454 77.1332031,78.4602076 C77.2190701,78.8076097 77.4226194,79.4476782 77.8516123,80.0827861 C78.6218496,79.7530021 79.5357688,79.6281357 80.4493459,79.6387408 C80.0602075,79.2733784 79.7728438,78.8939899 79.6004256,78.5825082 Z M199.3979,149.41492 C198.795804,150.628861 197.425695,151.389519 195.325204,151.674488 C188.929651,152.542566 175.611713,149.066663 157.946372,138.868502 C148.395121,134.59927 135.166471,125.899847 120.304295,111.230273 C118.548981,109.679535 116.779129,108.076799 114.993198,106.426168 C111.00004,108.580369 105.948768,109.519433 100.177547,107.890354 C96.8111158,110.154199 93.0204809,110.01599 92.9063907,110.025227 C91.8174875,114.272565 89.2914239,118.573784 84.0513128,121.681417 L83.9426962,121.74556 L83.8239876,121.790375 C82.4980095,122.289157 80.8123136,122.135554 80.0779967,120.726275 C79.8289482,120.404701 79.6151359,120.006839 79.6151359,119.482742 C79.6151359,119.463756 79.6161622,119.444769 79.6161622,119.426125 C79.6389118,118.587981 80.1318774,117.830572 81.0806907,117.174938 L81.1662156,117.115926 L81.2642272,117.067348 C81.5423542,116.929653 85.6355762,114.798372 87.8511845,109.689969 C87.8279217,109.684838 84.3836626,109.12465 80.6599082,106.488772 C77.5286703,110.028306 72.967798,113.239937 66.6404944,113.543209 C35.4396399,131.123537 12.5366856,134.572244 3.92672216,131.720501 C1.89324776,131.046565 0.64170364,130.012911 0.206062,128.646907 C-2.21964502,121.031085 17.1711777,108.344321 37.4652118,99.1476563 L38.338079,99.0623024 C53.4766717,101.483341 69.0954013,95.5270449 77.1870838,92.4401089 C77.2045309,92.4238591 77.2245437,92.4035042 77.2394251,92.3887939 C77.6463526,91.3813105 78.0642273,90.4501153 78.4872334,89.5729719 C77.1643342,88.8980093 76.2543492,87.7873829 75.8070539,86.9506072 C74.1784886,86.5679688 72.5425682,85.6336947 70.9365815,84.7141309 C69.7168253,84.0171029 68.4567013,83.2951016 67.1180655,82.7285846 C62.6827438,80.8504577 61.8531522,77.2685035 62.0324124,75.4873618 C61.9985445,75.460678 61.9646767,75.4379284 61.9318351,75.4112446 L61.7961926,75.3045096 L61.6921943,75.1668145 C60.9053652,74.1228974 59.9695516,71.76241 61.3492394,69.5916168 C59.1358548,68.6364747 58.3219998,66.8744905 58.3219998,66.8744905 C57.5078027,65.2252282 57.76643,64.0044457 58.1261478,63.2720104 C58.992344,61.5148157 61.1089144,61.0461392 61.3482131,60.9980742 C61.3482131,60.9980742 63.9307232,63.8467378 65.4263828,62.7928999 C65.4912107,61.3090427 61.6596948,60.8068405 61.6596948,60.8068405 C61.6596948,60.8068405 68.8906547,59.4054293 72.3304664,62.4490897 L72.6426324,62.4482345 C76.1050227,62.4482345 78.6274943,67.4247578 79.0983944,68.4223203 C79.5114797,69.2999769 80.3075456,70.2896711 81.0529807,71.1014735 C81.9627946,70.7564661 82.8951872,70.6731648 83.8000407,70.8108599 C83.7415416,70.6478494 83.7023712,70.492023 83.6835557,70.3454333 C79.7152001,69.7881531 79.3240091,66.093306 79.3240091,66.093306 C78.8782533,63.6180442 81.6680758,62.8383991 81.6680758,62.8383991 C80.6205667,63.2803918 80.8610628,64.2993356 80.8610628,64.2993356 C81.4966839,66.9476998 84.8744045,67.2203532 84.8744045,67.2203532 C87.3421402,67.4199684 86.9463309,65.2481489 86.9463309,65.2481489 L86.5662583,65.4539218 C86.5123776,64.8145376 84.7209729,63.085395 84.7209729,63.085395 C87.6276224,63.8978817 88.4755163,65.7580484 88.7228543,66.7205457 C88.7748535,66.2792372 88.7645905,65.9501373 88.7645905,65.9501373 C90.1911459,66.3592885 91.0073956,68.7917879 91.2744044,70.443958 C91.3683107,71.0215933 91.7016868,71.700661 92.0925356,72.3409005 C93.0302307,71.3392328 94.1316205,70.4586683 95.4297175,69.7459038 C95.6537928,69.6218926 95.8770128,69.5059209 96.100917,69.3937122 L97.0064547,69.3800282 C77.5704064,56.2449419 90.0077805,39.0099627 73.8095342,13.7356422 C73.7395748,13.6686248 73.6709838,13.6046009 73.6013666,13.5404572 C52.9002339,3.68391695 26.4138544,0 26.4138544,0 C26.4138544,0 55.5167829,1.5333008 74.9855017,6.58815464 C84.0814176,6.49888374 115.637885,8.60534509 131.423559,40.7062637 C131.423559,40.7062637 132.60175,43.1045531 133.756507,46.8965564 C136.138718,48.4818461 138.506218,50.9196481 139.421848,54.5951665 L139.432453,54.6309159 L139.437585,54.6675205 C139.558004,55.2962997 139.609148,55.8898425 139.595977,56.447807 C142.290182,59.9746831 141.522682,64.4442148 140.044127,67.2029062 C139.275943,68.6364747 138.290867,72.7698934 137.975964,74.241606 L137.960741,74.3083154 L137.939359,74.3717749 C136.850627,77.6756021 134.218855,76.9958501 132.956336,76.6686318 C132.638355,76.5870411 132.340557,76.5435944 132.063114,76.5167396 C131.899077,76.8080374 131.725462,77.0964274 131.548083,77.3855016 C131.610516,78.9769491 131.020737,79.9247361 130.495271,80.4399381 C129.908571,81.012955 129.208977,81.2767138 128.615605,81.3991855 C128.292492,81.7679689 127.936195,82.1281998 127.587254,82.4903122 C128.582079,83.4410071 129.490354,84.7413278 129.300489,86.4049583 C129.17853,87.4851379 128.431727,88.4939897 126.883042,89.5893927 C125.806625,90.3505643 124.450542,90.0344643 124.450542,90.0344643 C124.450542,90.0344643 125.369593,95.5128477 122.684111,99.0773548 C132.23998,104.819155 140.920587,109.070085 148.570276,111.740173 C156.91802,114.653664 162.265893,115.062815 165.282527,114.893305 L165.733244,114.867476 L166.136066,115.125248 C185.110109,127.313745 202.752187,142.642374 199.3979,149.41492 L199.3979,149.41492 Z" id="path14" fill="#231F20"></path>
                        <path d="M66.7367954,73.1958074 C66.7367954,73.1958074 65.8032055,72.8850099 65.2866351,72.297967 C65.2866351,72.297967 65.0442575,71.1928141 66.0806483,70.4668787 C66.0806483,70.4668787 66.7367954,71.5039537 66.7367954,73.1958074" id="path16" fill="#289EE0"></path>
                        <path d="M67.5590319,71.1380782 C67.5590319,71.1380782 67.8841976,72.0879178 67.9178944,72.8485763 C67.9178944,72.8485763 71.1733144,73.5433807 72.9657454,70.8000838 C72.9657454,70.8000838 70.6333102,72.6917236 67.5590319,71.1380782" id="path18" fill="#289EE0"></path>
                        <path d="M73.9102825,73.4410929 C73.9102825,73.4410929 75.4317706,74.5462457 75.8824869,74.9974751 C75.8824869,74.9974751 77.9333741,75.5306374 78.4263397,75.8994208 C78.9177658,76.2685463 80.5860147,77.7270881 82.3136178,76.8980096 C82.3136178,76.8980096 84.2947167,75.7701072 81.7900343,73.3978173 C81.7900343,73.3978173 79.0816315,71.0190275 78.0560169,68.8444712 C77.0315995,66.670257 74.9389761,63.6349781 72.806156,63.6349781 C72.806156,63.6349781 74.5915739,66.494931 72.2863356,68.5663442 C72.2863356,68.5663442 70.2593953,70.1961069 68.0448134,69.3345289 L67.4333103,69.7881531 L67.8303169,70.2443429 C67.8303169,70.2443429 71.7160555,71.6854376 73.9722026,68.551805 C73.9722026,68.551805 74.6623886,71.2466948 73.9102825,73.4410929" id="path20" fill="#289EE0"></path>
                        <path d="M61.9516769,63.6341228 C61.9516769,63.6341228 62.07928,66.230488 67.0263828,65.890612 L65.9658739,64.0617474 C65.9658739,64.0617474 62.8257414,64.953259 61.9516769,63.6341228" id="path22" fill="#289EE0"></path>
                        <path d="M67.2186427,63.8725663 L67.9599726,65.557578 C67.9599726,65.557578 69.0054291,65.4227908 69.341542,64.7146445 C69.341542,64.7146445 69.2738063,63.9731436 68.0280505,63.3666009 C68.0280505,63.3666009 67.6572145,63.8048306 67.2186427,63.8725663" id="path24" fill="#289EE0"></path>
                        <path d="M72.5049373,72.7225126 C72.8692734,72.3248218 73.1831498,71.810304 73.4067119,71.1428676 L73.4186854,71.1314072 C73.3884095,71.4478494 73.0851382,74.1148581 71.4115868,75.2431027 C71.4115868,75.2431027 71.1531306,75.4372442 70.6892435,75.6525959 C71.1331177,75.1074602 71.8546059,74.1107529 72.5049373,72.7225126" id="path26" fill="#289EE0"></path>
                        <path d="M66.0166757,100.115114 C63.6946745,99.9211435 61.6626027,99.6544769 60.0063273,99.383534 C61.1718608,99.1141305 62.3868276,98.8100039 63.6488331,98.4708122 C63.6495173,98.4711543 63.6495173,98.4711543 63.6503726,98.4711543 C65.6456687,98.6721378 67.9091708,98.8166749 70.3669856,98.8609768 C68.8798785,99.325206 67.4223631,99.7514621 66.0166757,100.115114" id="path28" fill="#FFFFFF"></path>
                        <path d="M86.5920868,79.14492 C85.3488967,78.9967908 84.6188561,79.3862713 84.6188561,79.3862713 C82.1170815,79.9189204 80.9281143,77.7866134 80.9281143,77.7866134 C81.5842614,78.2787237 82.8555036,77.9511633 82.8555036,77.9511633 C85.686207,76.7606566 83.2661942,73.726404 82.7326898,73.561683 C82.1990144,73.3978173 81.4609345,72.2904408 81.4609345,72.2904408 C83.5118217,71.3883241 85.2341223,72.2493888 86.3007889,73.3155423 C87.3684819,74.3825511 90.4025635,75.4076526 90.4025635,75.4076526 C90.3170386,76.318835 89.995636,77.0261259 89.5916163,77.5762221 C89.0109022,77.7621533 87.9401304,78.1985014 86.5920868,79.14492" id="path30" fill="#289EE0"></path>
                        <path d="M79.1762221,88.2042313 C77.744022,87.4360466 77.0717962,86.0310434 77.0717962,86.0310434 C78.1377787,86.0310434 78.8580694,85.8598225 79.3479561,85.6408788 C79.4967694,86.0079517 79.7110949,86.4087214 79.9497094,86.8112016 C79.6902268,87.2538785 79.4329679,87.7194761 79.1762221,88.2042313" id="path32" fill="#7DD5F7"></path>
                        <path d="M79.9497094,86.8112016 C79.7110949,86.4087214 79.4967694,86.0079517 79.3479561,85.6408788 C80.2160339,85.2543062 80.353558,84.7184071 80.353558,84.7184071 C81.2972398,83.1194335 78.3842615,81.2318988 78.3842615,81.2318988 C80.0053005,80.4219779 82.8332671,80.9539428 83.8499872,81.5322622 C82.6009815,82.8394249 81.2662798,84.5553966 79.9497094,86.8112016" id="path34" fill="#289EE0"></path>
                        <path d="M44.5695948,122.791872 C43.7914892,123.113446 43.0226203,123.424585 42.2635012,123.724265 C42.4593532,123.59324 42.688731,123.439296 42.8998065,123.297837 C43.447508,123.13859 44.0047883,122.968224 44.5695948,122.791872" id="path36" fill="#FFFFFF"></path>
                        <path d="M73.3559101,97.8770983 C72.3434662,98.2256978 71.3445353,98.556166 70.3669856,98.8609768 C67.9091708,98.8166749 65.6456687,98.6721378 63.6503726,98.4711543 C63.6495173,98.4711543 63.6495173,98.4711543 63.6488331,98.4708122 C67.0971974,97.5449195 70.9328184,96.3272159 75.1375649,94.7963201 C74.4528525,95.7105813 73.7816531,96.7762217 73.3559101,97.8770983" id="path38" fill="#289EE0"></path>
                        <path d="M72.9337591,99.5149002 C72.8620893,100.146758 72.9087859,100.770064 73.1171245,101.362922 C73.1273875,101.391146 73.1436373,101.41629 73.1542423,101.443829 C70.8719247,101.35762 68.8236032,101.169465 67.1637358,100.953942 C68.9703639,100.465253 70.917766,99.8703417 72.9907187,99.1722875 C72.9705348,99.2865487 72.94693,99.4013232 72.9337591,99.5149002" id="path40" fill="#7DD5F7"></path>
                        <path d="M73.8652964,102.598928 C69.6807338,102.620823 66.1644627,102.215435 63.7293976,101.80902 C64.8148797,101.566472 65.9639924,101.279963 67.1637358,100.953942 C68.8236032,101.169465 70.8719247,101.35762 73.1542423,101.443829 C73.3165686,101.874532 73.5560384,102.258368 73.8652964,102.598928" id="path42" fill="#FFFFFF"></path>
                        <path d="M80.9419693,93.8351912 C79.5763076,94.9824223 79.0963418,96.1289692 79.0963418,96.1289692 C78.6877038,92.8083791 79.3301669,88.2979666 83.4399808,84.505108 C83.052724,84.8020505 79.9645907,89.2662796 80.9419693,93.8351912" id="path44" fill="#FFFFFF"></path>
                        <path d="M100.804958,99.229076 C100.868931,98.7846886 101.31195,94.6658091 99.6643978,90.2298032 C102.135897,93.398501 103.251141,96.6436581 103.258839,100.667434 C103.258839,100.667434 101.818428,100.496384 100.804958,99.229076" id="path46" fill="#FFFFFF"></path>
                        <path d="M87.7393179,88.8504575 C87.1160124,88.8504575 86.5672846,89.0179152 86.1033975,89.2527666 C86.2568291,88.5961064 86.462431,87.7865276 86.5190485,87.2774834 C86.6469938,86.1524888 86.6179153,85.2613192 86.5342719,84.5432521 C87.0737631,84.233823 88.1915736,84.069102 88.8886016,83.9941822 C88.4009386,85.5931559 88.017787,87.2497733 87.7393179,88.8504575" id="path48" fill="#FFFFFF"></path>
                        <path d="M86.5264037,84.4722664 C86.4752598,84.0603785 86.4106029,83.6919372 86.3367094,83.4107313 C88.052339,81.6607206 89.4149219,80.981995 90.1022,80.7269597 C89.7664292,81.4475926 89.4741051,82.2135536 89.2045306,82.9974749 C87.5845178,83.3541138 86.7764785,84.1664294 86.5264037,84.4722664" id="path50" fill="#FFFFFF"></path>
                        <path d="M92.3559524,91.7471861 C90.5722449,89.539104 89.003205,88.8504575 87.7393179,88.8504575 C88.0579837,87.0236455 88.5063052,85.123111 89.1007034,83.3226406 C89.0290335,83.5463738 88.9573636,83.7687386 88.8886016,83.9941822 C89.2317275,83.9579196 89.4788945,83.9399594 89.4788945,83.9399594 C90.4526811,84.0501155 92.1375218,85.2274514 92.1375218,85.2274514 L92.6044877,84.1222985 C91.3274298,82.9892645 89.9077164,82.8719244 89.9077164,82.8719244 C89.6537074,82.9001476 89.4282637,82.9476994 89.2045306,82.9974749 C89.4741051,82.2135536 89.7664292,81.4475926 90.1022,80.7269597 C89.4149219,80.981995 88.052339,81.6607206 86.3367094,83.4107313 C86.5423113,84.1888369 86.7260188,85.4576844 86.5190485,87.2774834 C86.462431,87.7865276 86.2568291,88.5961064 86.1033975,89.2527666 C85.0081655,89.8083364 84.3887941,90.7419263 84.3887941,90.7419263 C86.7893072,84.5297392 84.8908253,83.0966838 84.8908253,83.0966838 C88.0954436,79.5653604 90.438826,79.323667 90.438826,79.323667 C94.7737415,81.7968763 97.1922148,85.768653 97.1922148,85.768653 C90.098779,84.3778469 92.3559524,91.7471861 92.3559524,91.7471861" id="path52" fill="#ED192D"></path>
                        <path d="M92.6044877,84.1222985 L92.1375218,85.2274514 C92.1375218,85.2274514 90.4526811,84.0501155 89.4788945,83.9399594 C89.4788945,83.9399594 89.2317275,83.9579196 88.8886016,83.9941822 C88.9573636,83.7687386 89.0290335,83.5463738 89.1007034,83.3226406 C89.1369659,83.2148793 89.1677549,83.1043811 89.2045306,82.9974749 C89.4282637,82.9476994 89.6537074,82.9001476 89.9077164,82.8719244 C89.9077164,82.8719244 91.3274298,82.9892645 92.6044877,84.1222985" id="path54" fill="#231F20"></path>
                        <path d="M89.2045306,82.9974749 C89.0923219,83.3246932 88.9902052,83.6590956 88.8886016,83.9941822 C88.1915736,84.069102 87.0737631,84.233823 86.5342719,84.5432521 C86.531193,84.5201604 86.5294825,84.4958713 86.5264037,84.4722664 C86.7764785,84.1664294 87.5845178,83.3541138 89.2045306,82.9974749" id="path56" fill="#231F20"></path>
                        <path d="M83.3320484,102.93966 C83.3578769,102.900831 83.3869554,102.859608 83.4122707,102.82078 C84.4383986,101.420395 85.3391469,99.424757 85.8709408,98.1240942 C86.2010669,97.3369229 86.3635642,96.8473784 86.3739983,96.8174447 L86.4381419,96.6137243 L85.5308937,104.369123 L85.5201176,104.472266 C86.503483,104.992771 87.5905045,105.331962 88.5063052,105.387553 C88.6980521,104.671881 88.9982445,103.122854 89.2324117,101.861875 C89.2423326,102.13162 89.2606349,102.407695 89.2606349,102.66923 C89.2606349,104.860378 88.903825,106.745518 88.3568077,108.384004 C88.3297818,108.38178 88.3150716,108.390846 88.3037823,108.405043 C85.2402801,107.868802 83.0138957,106.404445 81.6802203,105.259437 C82.2587108,104.511949 82.8821874,103.644043 83.3315352,102.942054 L83.3320484,102.93966" id="path58" fill="#861810"></path>
                        <path d="M93.6685886,105.905834 C93.6685886,105.905834 95.8005535,106.228605 97.6679043,105.244556 C97.8632432,105.388751 98.041135,105.515499 98.205685,105.631642 C98.2087638,105.633694 98.2104743,105.635576 98.2123559,105.636773 C98.6914664,105.974254 99.0292898,106.193711 99.1678402,106.280947 C99.1760505,106.286078 99.1750242,106.286078 99.1822083,106.290012 C99.2179578,106.312933 99.2431021,106.32867 99.2431021,106.32867 C97.0716247,107.450414 95.0753023,108.093733 93.2587533,108.397346 C93.4142376,107.508913 93.5148149,106.631257 93.5692087,105.773784 C93.6058134,105.818599 93.6306156,105.861533 93.6685886,105.905834" id="path60" fill="#861810"></path>
                        <path d="M94.5128905,105.983491 C95.307588,105.983491 96.5379493,105.867519 97.6653386,105.278424 C97.8687168,105.428263 98.0515691,105.558261 98.1890931,105.655246 C98.1933694,105.658838 98.195593,105.660378 98.1976456,105.661575 C98.7256764,106.033951 99.0621314,106.248447 99.1524457,106.305407 C99.1609982,106.311051 99.1628797,106.312249 99.1680112,106.315157 C99.1739979,106.319091 99.1796426,106.322683 99.1849451,106.326104 C97.1886228,107.352403 95.2071817,108.037457 93.2941606,108.36211 C93.436303,107.541755 93.5367092,106.69865 93.5929846,105.854006 C93.6095764,105.87744 93.6263393,105.900874 93.6466943,105.92465 L93.6537073,105.93286 L93.6643124,105.9344 C93.6725228,105.935768 94.002991,105.983491 94.5128905,105.983491 L94.5128905,105.983491 Z M97.6704701,105.210517 L97.6545625,105.218898 C95.8841969,106.151804 93.8493883,105.901558 93.683641,105.878809 C93.6670492,105.858625 93.6528521,105.838612 93.6386549,105.818599 C93.6237736,105.797731 93.6090633,105.776863 93.5916162,105.755653 L93.5450907,105.698693 L93.5404723,105.772073 C93.484539,106.654519 93.3801986,107.53611 93.230359,108.392386 L93.223346,108.432582 L93.2635427,108.425911 C95.2090633,108.100575 97.2253985,107.403547 99.256444,106.354327 L99.3014301,106.330893 L99.2584966,106.304209 C99.2583255,106.304038 99.2333522,106.288473 99.1977739,106.265723 L99.1748532,106.285394 L99.191274,106.261789 L99.1832346,106.256487 C99.0930914,106.199869 98.7578338,105.985886 98.2289477,105.613168 C98.226382,105.610945 98.2241583,105.609234 98.2214215,105.607353 C98.0818449,105.508999 97.8938611,105.375238 97.6850093,105.221293 L97.6704701,105.210517 L97.6704701,105.210517 Z" id="path62" fill="#861810"></path>
                        <path d="M119.056144,68.4360043 L119.222233,68.6166329 C119.259351,68.6593953 120.164205,69.6494317 120.932903,70.2833423 C121.202648,70.5045097 121.618299,71.1399597 121.703653,72.2221919 C120.983191,71.0150934 120.008721,69.6940757 118.808122,68.5442788 C118.890568,68.5068189 118.973869,68.4741484 119.056144,68.4360043" id="path64" fill="#861810"></path>
                        <path d="M118.864226,68.5540286 C118.888515,68.5435946 118.912633,68.5331606 118.936922,68.5228976 C118.974211,68.5069899 119.0115,68.4912534 119.048276,68.4744905 L119.1988,68.6381852 C119.205984,68.6463955 120.12264,69.6562736 120.912719,70.3078024 C121.198885,70.5423117 121.556721,71.144407 121.659009,72.0863784 C121.08069,71.133973 120.145731,69.7893504 118.864226,68.5540286 L118.864226,68.5540286 Z M119.063841,68.397347 L119.042802,68.4070969 C118.999356,68.4271097 118.955738,68.4457541 118.91212,68.4643985 C118.87295,68.4809904 118.833779,68.4975822 118.794951,68.5153714 L118.752189,68.5347 L118.786056,68.5670284 C120.134955,69.8589677 121.102242,71.2766285 121.676456,72.2384416 L121.735297,72.2196262 C121.653193,71.1782749 121.262687,70.512549 120.953087,70.2587111 C120.166428,69.6099191 119.254049,68.6046594 119.246352,68.5955938 L119.063841,68.397347 L119.063841,68.397347 Z" id="path66" fill="#861810"></path>
                        <path d="M125.32837,80.4938188 C125.657127,80.724394 126.021977,80.9265748 126.402905,81.116098 C126.329866,81.1923863 126.249131,81.2643982 126.175408,81.3401733 C126.005214,81.2175306 125.851269,81.1085718 125.72435,81.0146655 C125.618128,80.9234959 125.482486,80.7404726 125.32837,80.4938188" id="path68" fill="#861810"></path>
                        <path d="M126.171987,81.2984371 L126.027792,81.194952 C125.923281,81.1200322 125.827151,81.0512702 125.743166,80.9891791 C125.663969,80.9211012 125.561682,80.7928139 125.439552,80.607909 C125.695614,80.7777615 125.989477,80.9445351 126.349708,81.1249926 C126.320972,81.153729 126.291551,81.1821233 126.262131,81.2105175 C126.231684,81.239596 126.201408,81.2688455 126.171987,81.2984371 L126.171987,81.2984371 Z M125.346672,80.4676482 L125.301515,80.5105817 C125.464868,80.7722879 125.600168,80.9500087 125.703653,81.0389546 C125.789691,81.1025851 125.885821,81.1715182 125.990675,81.246609 L126.179172,81.3819094 L126.198158,81.3624098 C126.233052,81.3264893 126.269657,81.2914241 126.30609,81.2563589 C126.346629,81.2173595 126.38751,81.1783602 126.425825,81.1381635 L126.45593,81.1070324 L126.417102,81.0877038 C125.979043,80.8697863 125.638996,80.6727369 125.346672,80.4676482 L125.346672,80.4676482 Z" id="path70" fill="#861810"></path>
                        <path d="M87.815093,15.9433821 C86.8832136,19.1074616 84.4856083,20.8685905 84.4856083,20.8685905 C86.7032692,19.6455843 88.0603784,18.1039123 88.8896279,16.5371131 C93.2202671,19.0236472 96.8567861,22.1343591 99.9101963,25.5637368 C98.710453,28.0085518 96.6894994,30.4571299 93.4113297,32.6190285 C93.4113297,32.6190285 98.0626873,31.3944829 101.460763,27.391233 C105.350949,32.2076537 108.193968,37.5025007 110.25871,42.5026288 C101.821336,49.3292269 89.755311,47.1587758 89.0023497,47.0140677 C88.6510134,35.3708779 85.0517832,20.1729309 79.350864,13.3485735 C79.5527027,13.1253364 79.7350418,12.8980283 79.8776974,12.6769978 C82.7417555,13.5404572 85.3849882,14.6418641 87.815093,15.9433821" id="path72" fill="#ED192D"></path>
                        <path d="M106.657085,73.4024356 C106.884239,74.2612767 107.512676,75.3980738 109.056572,76.6219352 C109.057598,76.6219352 109.057598,76.6221063 109.057598,76.6221063 C107.864868,76.174811 106.783662,75.769423 105.893519,75.4350206 C104.109127,77.506947 104.794524,80.6183431 104.795037,80.6222772 L104.795037,80.6227904 C101.532433,81.4905261 100.263585,83.5761365 100.016931,85.3235814 C98.3331171,83.1527882 96.1623239,80.9789161 93.3268311,79.0676055 C92.801024,78.1172527 92.4017937,77.1730577 92.248362,76.2805198 C92.248362,76.2805198 93.0794931,71.0318563 100.405043,70.100319 C101.374554,71.8015804 103.269957,73.3913174 106.657085,73.4024356" id="path74" fill="#861810"></path>
                        <path d="M92.2776115,76.2803487 C92.2926639,76.1939686 92.5300811,74.9198185 93.6042739,73.5550121 C95.4499014,71.2102612 98.308828,70.3986298 100.389649,70.13145 C101.250201,71.6313859 103.030658,73.4121855 106.634849,73.431172 C106.988238,74.73594 108.030957,75.8198826 108.898693,76.531792 C107.772843,76.10947 106.751676,75.7264894 105.903782,75.4079947 L105.884795,75.4009817 L105.871624,75.4162051 C104.182508,77.3772912 104.698052,80.281546 104.761511,80.6019223 C100.986613,81.6165898 100.172245,84.1400877 99.998287,85.2525957 C98.1225547,82.8460959 95.8859074,80.7586039 93.3487255,79.0475926 C92.7683535,77.9975178 92.4178724,77.0923222 92.2776115,76.2803487 L92.2776115,76.2803487 Z M100.420609,70.0693589 L100.401451,70.0717536 C98.3074596,70.3379072 95.4201387,71.1527885 93.5568931,73.5218284 C92.4416483,74.9400024 92.2218493,76.2627306 92.2197967,76.2759014 L92.2191125,76.2806908 L92.2197967,76.2854802 C92.3609128,77.1065193 92.7148149,78.0211227 93.3016868,79.0816315 L93.3107524,79.0915524 C95.8636709,80.8124846 98.1122918,82.9152 99.9940108,85.3411995 L100.035918,85.3952512 L100.045497,85.3275155 C100.19585,84.2617041 100.960613,81.6725231 104.802392,80.6506715 L104.823944,80.6450268 L104.822918,80.614751 C104.796063,80.48749 104.185073,77.4814605 105.902242,75.4692305 C106.757663,75.7904621 107.787724,76.1768636 108.922982,76.6026066 L109.086506,76.6638424 L109.086506,76.5931989 L109.066835,76.5930278 C108.177889,75.8871052 107.046224,74.7610843 106.684966,73.3950805 L106.679322,73.3736993 L106.657256,73.3735282 C103.05221,73.3617258 101.281161,71.5792157 100.430188,70.0859508 L100.420609,70.0693589 L100.420609,70.0693589 Z" id="path76" fill="#861810"></path>
                        <path d="M104.795037,80.6227904 L104.795037,80.6222772 C105.073677,81.2799638 105.514472,86.2556318 114.409405,86.1848172 C114.639125,86.1935407 117.972886,86.3450908 119.878038,87.8994205 C119.878038,87.8994205 120.587724,88.4159909 121.589221,88.9441928 C121.563392,90.0734636 121.428092,91.235405 121.141241,92.4081226 C115.104038,93.4990783 108.82001,92.6410924 103.090868,90.2053431 C102.327472,88.659908 101.31195,86.9921723 100.016931,85.3235814 C100.263585,83.5761365 101.532433,81.4905261 104.795037,80.6227904" id="path78" fill="#ED192D"></path>
                        <path d="M127.57357,63.61736 C127.790974,62.1228977 127.614279,60.8319848 127.614279,60.8319848 C131.501215,62.5154571 130.702071,69.0165473 130.343037,70.5532589 C130.00453,66.0271097 128.401109,64.2445996 127.57357,63.61736" id="path80" fill="#289EE0"></path>
                        <path d="M139.685607,65.2115442 C139.770961,63.6112022 139.551504,61.1054934 137.777375,59.174341 C138.603888,58.1904625 138.774082,57.0849676 138.774082,57.0849676 C140.842759,59.7878967 140.451055,63.057856 139.685607,65.2115442" id="path82" fill="#289EE0"></path>
                        <path d="M78.5481272,84.5973039 C78.0828717,84.9245221 77.6328396,85.1261899 77.1894785,85.2442142 C77.053836,85.0230468 76.8723522,84.7916164 76.7283282,84.7060915 C74.5279434,83.375495 73.7659165,81.1369661 73.5403018,80.2375862 C73.1761367,78.7682683 72.7009603,77.6631154 72.3183219,77.0350205 C71.9781038,77.4238168 71.2088928,77.2515696 70.3690382,77.1159271 C72.6185143,76.4004257 73.4717108,74.5063911 73.4717108,74.5063911 C75.1531305,74.5874687 75.9243941,78.3192625 76.006498,78.6485334 C76.0882598,78.9754096 76.6008961,81.1415845 78.5898633,82.2983944 C79.7381207,82.9671991 78.5481272,84.5973039 78.5481272,84.5973039" id="path84" fill="#289EE0"></path>
                        <path d="M72.3183219,77.0350205 C72.7009603,77.6631154 73.1761367,78.7682683 73.5403018,80.2375862 C73.7659165,81.1369661 74.5279434,83.375495 76.7283282,84.7060915 C76.8723522,84.7916164 77.053836,85.0230468 77.1894785,85.2442142 C74.4593524,85.9670708 71.964933,83.1194335 67.8020937,81.3543704 C62.9622392,79.3034832 63.6308729,75.9471437 63.6308729,75.9471437 C66.656231,77.5491963 68.8347214,77.6044454 70.3690382,77.1159271 C71.2088928,77.2515696 71.9781038,77.4238168 72.3183219,77.0350205" id="path86" fill="#7DD5F7"></path>
                        <path d="M61.1137569,64.1875759 C61.1044235,64.1822426 61.1004235,64.1755759 61.1004235,64.1702426 C61.0897569,64.1462426 61.1004235,64.1062426 61.0897569,64.0875759 C61.1004235,64.1169092 61.1044235,64.1529092 61.1137569,64.1875759" id="path88" fill="#289EE0"></path>
                        <path d="M69.0136395,68.7666436 L69.4147513,68.2986513 C67.1160129,67.0275801 63.5357692,68.5983305 63.5357692,68.5983305 C61.5009606,68.5121214 60.3809264,67.2271952 59.9269602,66.5505222 C60.1323911,65.7594168 60.4854379,64.8206954 61.0911253,64.098181 C61.0911253,64.098181 61.2223205,65.9783605 62.8974113,67.0154356 C62.8974113,67.0154356 63.0272381,66.5467591 63.0970264,66.337052 C63.9688673,67.3301672 66.2491324,67.573229 66.2491324,67.573229 L66.1593313,67.0559744 C67.1849459,67.0847107 67.9401309,66.9360685 67.9401309,66.9360685 C71.4273234,66.230488 70.0168467,63.3886664 70.0168467,63.3886664 L69.5739987,63.8246723 C69.2447278,62.9627523 66.0866351,61.2869773 66.0866351,61.2869773 C72.068076,61.2435306 72.3533871,64.9585616 72.3533871,64.9585616 C73.1985442,68.2759016 69.0136395,68.7666436 69.0136395,68.7666436" id="path90" fill="#289EE0"></path>
                        <path d="M59.6801353,66.1374369 C58.0803064,62.8972402 61.7724167,62.157963 61.7724167,62.157963 C60.9382067,62.8315571 60.9712193,63.6188994 61.0897569,64.0875759 C61.0911253,64.0899706 61.0897569,64.0951021 61.0911253,64.098181 C60.4854379,64.8206954 60.1323911,65.7594168 59.9269602,66.5505222 C59.7630945,66.3067762 59.6801353,66.1374369 59.6801353,66.1374369" id="path92" fill="#7DD5F7"></path>
                        <path d="M71.4115868,75.2431027 C71.4115868,75.2431027 68.1146017,77.7264039 63.7709627,74.8411356 C63.0669217,73.3923437 62.3851171,70.6625597 65.5998273,68.496898 C66.2711978,68.3742553 67.0631585,68.3193483 68.0078666,68.4336096 C68.0078666,68.4336096 62.511694,70.1157134 64.4787668,73.8073105 L65.0129554,73.2743193 C65.0129554,73.2743193 65.0250999,73.2830429 65.0274946,73.2844113 C65.1819526,73.6538789 65.7854164,74.5447063 68.0448134,74.7954653 L67.937052,73.8209945 C68.4216361,73.9400452 72.2315996,74.746203 73.4224485,71.1014735 C73.4224485,71.1014735 73.1930707,74.042504 71.4115868,75.2431027" id="path94" fill="#289EE0"></path>
                        <path d="M63.7709627,74.8411356 C63.4919805,74.6552045 63.2075246,74.4494315 62.9206741,74.2171459 C62.9206741,74.2171459 61.0341657,71.7152003 63.1257628,69.5425255 C63.1257628,69.5425255 63.9645911,68.7964062 65.5998273,68.496898 C62.3851171,70.6625597 63.0669217,73.3923437 63.7709627,74.8411356" id="path96" fill="#7DD5F7"></path>
                        <path d="M68.1565089,107.901131 C70.3331178,106.431471 72.5136608,104.950008 74.5965344,103.522597 C75.4642701,103.503611 76.336111,103.441862 77.208465,103.381994 C74.1047662,106.363735 70.7663869,107.513361 68.1565089,107.901131" id="path98" fill="#7DD5F7"></path>
                        <path d="M54.7403878,116.875259 C56.6328829,115.620267 58.8257415,114.161725 61.1834922,112.58533 C61.5897355,112.921443 62.0743196,113.178873 62.5756666,113.336238 C62.5544564,113.32991 62.5344436,113.319989 62.5140887,113.313318 C59.8109885,114.650585 57.2105181,115.843144 54.7403878,116.875259" id="path100" fill="#7DD5F7"></path>
                        <path d="M50.7833214,119.495229 C51.8298041,118.804872 53.185545,117.907716 54.7403878,116.875259 C57.2105181,115.843144 59.8109885,114.650585 62.5140887,113.313318 C62.5344436,113.319989 62.5544564,113.32991 62.5756666,113.336238 L62.6989935,113.375238 L62.8272809,113.391658 C63.2205244,113.442631 63.5997418,113.46846 63.9808408,113.498223 C59.2473793,115.94988 54.8344652,117.929439 50.7833214,119.495229" id="path102" fill="#FFFFFF"></path>
                        <path d="M69.4104751,106.038569 C55.871027,110.652638 45.0435738,108.051996 39.9505656,106.190974 C42.3185792,104.96985 44.8436166,103.757449 47.4947176,102.578744 C49.9318354,103.178787 54.3466311,103.617188 61.5028422,102.268802 C65.5649331,103.103525 69.3446209,103.511992 73.0971117,103.532347 C71.8891579,104.357492 70.6522967,105.197688 69.4104751,106.038569" id="path104" fill="#7DD5F7"></path>
                        <path d="M69.4104751,106.038569 C68.8398529,106.426168 68.2694018,106.812912 67.696727,107.199484 C66.7947813,107.517466 65.9048091,107.802948 65.028863,108.060036 C64.1563379,108.016418 63.596834,107.910196 63.4960856,107.889328 L63.3864427,107.867092 C63.3864427,107.867092 61.2284783,107.753001 60.4219784,109.172031 C49.7807984,111.211629 41.5620259,109.055375 37.4682907,107.503782 C38.2732511,107.065552 39.1031848,106.627836 39.9505656,106.190974 C45.0435738,108.051996 55.871027,110.652638 69.4104751,106.038569" id="path106" fill="#FFFFFF"></path>
                        <path d="M60.585331,111.94663 C56.592002,114.611415 52.5629236,117.288002 49.1982027,119.519689 C49.192216,119.522768 49.192216,119.521742 49.1864003,119.525505 C40.9801144,122.378787 34.4514851,123.465466 29.9205466,123.488558 C29.9171256,123.488558 29.9135336,123.488558 29.9102836,123.488216 C35.8575146,122.274275 43.8203966,118.914344 53.4667509,110.856871 C55.561769,110.776991 57.7931138,110.540429 60.1402593,110.108015 C60.13547,110.155054 60.1243517,110.196106 60.1222991,110.244684 C60.1094704,110.347827 60.1450487,110.46893 60.1450487,110.568823 C60.1450487,111.084539 60.3116513,111.548084 60.585331,111.94663" id="path108" fill="#7DD5F7"></path>
                        <path d="M49.1864003,119.525505 C49.192216,119.521742 49.192216,119.522768 49.1982027,119.519689 C48.5459898,119.952103 47.9096845,120.373228 47.3137469,120.768524 C34.9365824,125.070598 26.3734866,125.360698 22.7267046,124.033181 C24.6210813,124.164205 27.0308311,124.076285 29.9102836,123.488216 C29.9135336,123.488558 29.9171256,123.488558 29.9205466,123.488558 C34.4514851,123.465466 40.9801144,122.378787 49.1864003,119.525505" id="path110" fill="#FFFFFF"></path>
                        <path d="M116.541199,95.2579835 C117.652338,95.1851163 118.761938,95.0641841 119.862302,94.8693583 L120.949666,95.8877889 C120.678381,96.3751098 120.361254,96.9007459 120.008721,97.443658 C118.864568,96.7348276 117.709127,96.0080369 116.541199,95.2579835" id="path112" fill="#289EE0"></path>
                        <path d="M109.64601,101.368396 L110.342525,102.039595 C111.184432,102.851398 112.023602,103.649687 112.857812,104.436174 C111.847421,105.009704 110.75407,105.50096 109.560656,105.864269 C109.586997,105.739574 109.62001,105.619155 109.635234,105.486591 C109.72264,104.712249 108.960613,99.4954005 105.457513,97.1853728 C105.34137,96.5141733 105.046138,95.1382486 104.429161,93.3865275 C105.75685,93.9301238 107.12388,94.3447486 108.51212,94.6574276 C105.55809,97.3935404 109.64601,101.368396 109.64601,101.368396" id="path114" fill="#289EE0"></path>
                        <path d="M166.006068,141.674574 C167.646607,142.04216 169.051781,142.197987 170.182249,142.148553 C170.411456,142.138119 170.607479,142.102028 170.814792,142.075686 C175.866577,144.364846 180.472948,146.037884 184.232623,147.111906 C188.662813,148.991743 192.403673,149.834848 195.306388,150.160184 C190.54094,150.941369 180.267688,148.871324 166.006068,141.674574" id="path116" fill="#FFFFFF"></path>
                        <path d="M170.814792,142.075686 C171.932431,141.932346 172.734655,141.554155 173.205042,140.939231 C177.228133,143.722725 180.922809,145.707416 184.232623,147.111906 C180.472948,146.037884 175.866577,144.364846 170.814792,142.075686" id="path118" fill="#289EE0"></path>
                        <path d="M198.255287,148.279492 C191.320927,147.260719 182.581992,144.122981 173.456485,137.32033 C173.389775,137.112676 173.314514,136.900916 173.227278,136.683683 C176.088942,137.441262 177.648916,137.556208 177.648916,137.556208 C185.226423,144.801365 195.848616,145.530379 198.063711,145.601536 C198.424626,146.644769 198.486204,147.539359 198.255287,148.279492" id="path120" fill="#289EE0"></path>
                        <path d="M173.456485,137.32033 C182.581992,144.122981 191.320927,147.260719 198.255287,148.279492 C198.215945,148.406753 198.186867,148.538974 198.12871,148.655801 C197.997002,148.922126 197.78661,149.160911 197.500957,149.368737 C190.735937,148.762023 182.749621,146.217999 173.687402,139.937221 C173.865294,139.187852 173.778059,138.307972 173.456485,137.32033" id="path122" fill="#FFFFFF"></path>
                        <path d="M172.514,135.20376 C172.127428,134.501087 171.658751,133.762665 171.114813,132.995678 C175.982891,134.424799 182.60936,135.657897 190.111605,135.252509 C190.612781,135.738119 191.100273,136.218256 191.560397,136.689327 C184.078678,137.447249 177.542865,136.511949 172.514,135.20376" id="path124" fill="#FFFFFF"></path>
                        <path d="M171.114813,132.995678 C169.804229,131.138077 168.060547,129.11011 166.013765,126.998671 C171.171259,127.277653 175.416716,126.844726 178.415219,126.311222 L179.409018,126.135554 C183.567239,129.328712 187.179811,132.411372 190.111605,135.252509 C182.60936,135.657897 175.982891,134.424799 171.114813,132.995678" id="path126" fill="#289EE0"></path>
                        <path d="M164.802562,125.77327 C164.067903,125.045795 163.302797,124.31011 162.509639,123.570662 C168.004614,124.238098 172.695313,124.090482 176.169335,123.71537 C176.83814,124.203888 177.508655,124.693091 178.151802,125.177846 C175.1208,125.717337 170.519217,126.1985 164.802562,125.77327" id="path128" fill="#FFFFFF"></path>
                        <path d="M144.146757,112.581396 C144.986441,112.588751 145.818598,112.606027 146.678294,112.590632 C147.762066,112.990718 148.794352,113.347357 149.78798,113.672009 C148.431726,113.583063 146.579599,113.299121 144.146757,112.581396" id="path130" fill="#289EE0"></path>
                        <path d="M162.509639,123.570662 C159.1078,120.403161 155.201878,117.159373 151.178102,114.11041 C158.042844,116.209191 162.665636,116.531791 165.464011,116.373912 C169.280475,118.824714 172.857811,121.290226 176.169335,123.71537 C172.695313,124.090482 168.004614,124.238098 162.509639,123.570662" id="path132" fill="#289EE0"></path>
                        <path d="M138.149066,110.35159 C137.596405,110.107844 137.006112,109.81056 136.400937,109.490354 C137.693903,109.650286 138.936067,109.783876 140.066535,109.881032 C141.344277,110.452338 142.575322,110.976777 143.756593,111.456743 C142.790674,111.438612 141.696469,111.397389 140.504422,111.32589 C139.755566,111.03425 138.97575,110.715755 138.149066,110.35159" id="path134" fill="#FFFFFF"></path>
                        <path d="M127.073078,103.53286 C127.248917,103.546373 127.440493,103.562794 127.607095,103.575281 C132.194309,106.141712 136.337478,108.213981 140.066535,109.881032 C138.936067,109.783876 137.693903,109.650286 136.400937,109.490354 C133.63968,108.031128 130.388194,105.852296 127.073078,103.53286" id="path136" fill="#7DD5F7"></path>
                        <path d="M110.810859,100.46149 L109.179557,97.889927 L111.406967,99.7100681 C114.681716,101.522341 120.017786,102.611244 123.157577,103.111223 C126.044384,105.029546 128.689328,106.63502 131.113617,107.985458 C126.920672,107.384902 120.243401,105.983662 113.853151,103.280904 C112.821207,102.378445 111.732646,101.491723 110.810859,100.46149" id="path138" fill="#7DD5F7"></path>
                        <path d="M115.349837,104.692236 C114.890568,104.202349 114.377419,103.740173 113.853151,103.280904 C120.243401,105.983662 126.920672,107.384902 131.113617,107.985458 C132.332004,108.663671 133.49959,109.283042 134.604572,109.835704 C130.426338,109.394395 123.232154,108.157705 115.349837,104.692236" id="path140" fill="#FFFFFF"></path>
                        <path d="M128.218256,112.303269 C127.158432,111.186655 126.10237,110.07295 125.072479,108.981139 C128.755695,109.942439 132.541711,110.552745 136.694117,110.841135 C143.431769,113.95407 147.848788,114.701558 150.356721,114.783149 C152.726616,116.570961 154.962579,118.355695 157.041689,120.107416 C151.652081,120.461318 140.271282,119.768567 128.218256,112.303269" id="path142" fill="#7DD5F7"></path>
                        <path d="M129.62001,113.776692 C129.152188,113.285608 128.685736,112.794524 128.218256,112.303269 C140.271282,119.768567 151.652081,120.461318 157.041689,120.107416 C157.774638,120.725077 158.490995,121.339488 159.182891,121.947741 C153.910965,122.391615 142.469101,122.079279 129.62001,113.776692" id="path144" fill="#FFFFFF"></path>
                        <path d="M123.605727,108.581396 C129.206924,114.536324 135.675344,121.260292 140.167112,125.904808 C133.659522,121.150307 125.824927,114.524521 118.088686,106.681545 C119.931064,107.400126 121.761468,108.049944 123.605727,108.581396" id="path146" fill="#7DD5F7"></path>
                        <path d="M116.749024,106.168567 C117.198714,106.354156 117.642246,106.507759 118.088686,106.681545 C125.824927,114.524521 133.659522,121.150307 140.167112,125.904808 C141.559287,127.344192 142.767754,128.590461 143.694501,129.54355 C135.803974,124.135297 126.666321,116.53658 116.749024,106.168567" id="path148" fill="#FFFFFF"></path>
                        <path d="M145.238568,129.97682 C141.313146,125.920886 136.308057,120.738419 131.823986,116.060891 C135.690567,118.286078 139.396362,119.823987 142.821292,120.867562 C150.624414,130.8112 157.735981,135.990931 163.314428,138.667689 C158.888172,137.418342 152.539145,134.651269 145.250713,129.987938 C145.244555,129.982464 145.244042,129.981951 145.238568,129.97682" id="path150" fill="#7DD5F7"></path>
                        <path d="M146.833779,131.624029 C146.326787,131.100617 145.793283,130.549494 145.238568,129.97682 C145.244042,129.981951 145.244555,129.982464 145.250713,129.987938 C152.539145,134.651269 158.888172,137.418342 163.314428,138.667689 C166.026423,139.968694 168.378187,140.681459 170.266064,141.056571 C166.420693,141.328711 158.088685,138.826595 146.833779,131.624029" id="path152" fill="#FFFFFF"></path>
                        <path d="M159.473505,131.269101 C159.473505,131.269101 159.469571,131.267561 159.469057,131.267561 C162.846949,132.034207 166.396746,132.037115 168.264952,131.965616 C169.194608,133.280647 169.87436,134.466022 170.262985,135.486505 C165.163819,134.608848 161.56322,132.689327 159.473505,131.269101" id="path154" fill="#7DD5F7"></path>
                        <path d="M172.353214,137.191188 C163.738119,135.707159 159.39944,131.25268 159.39944,131.25268 C159.423216,131.258154 159.446137,131.262259 159.469057,131.267561 C159.469571,131.267561 159.473505,131.269101 159.473505,131.269101 C161.56322,132.689327 165.163819,134.608848 170.262985,135.486505 C169.87436,134.466022 169.194608,133.280647 168.264952,131.965616 C168.568223,131.954155 168.830785,131.940471 169.037584,131.927814 C170.65982,133.950136 171.795591,135.736238 172.353214,137.191188" id="path156" fill="#FFFFFF"></path>
                        <path d="M168.365529,131.109169 C158.723793,131.215733 151.467176,127.874104 148.380753,126.151804 C148.022575,125.768823 147.661489,125.365317 147.300574,124.962152 C151.11105,126.820095 158.420864,129.516353 166.885948,129.539103 C166.809831,129.45546 166.721398,129.366685 166.643058,129.281673 C166.681886,129.281673 166.72003,129.28441 166.758003,129.28441 C167.329481,129.908229 167.868972,130.518534 168.365529,131.109169" id="path158" fill="#FFFFFF"></path>
                        <path d="M147.300574,124.962152 C147.240706,124.932903 147.173655,124.902456 147.116182,124.873719 C146.174211,123.815263 145.225739,122.697966 144.268716,121.504038 C150.731491,123.279535 156.083811,123.318363 159.432453,123.036986 L160.17823,122.973185 C162.6499,125.184688 164.816246,127.306561 166.643058,129.281673 C166.721398,129.366685 166.809831,129.45546 166.885948,129.539103 C158.420864,129.516353 151.11105,126.820095 147.300574,124.962152" id="path160" fill="#7DD5F7"></path>
                        <path d="M171.142181,138.85516 C171.028091,139.038012 170.857383,139.197431 170.630913,139.328968 C164.761339,138.294117 157.80919,135.212141 150.130422,127.939616 C155.088643,130.373142 158.007779,130.832924 158.007779,130.832924 C162.381694,135.689199 168.676327,137.287146 171.470597,137.778744 C171.458623,137.77652 171.44665,137.77652 171.436387,137.774981 C171.426124,138.18875 171.333757,138.552744 171.142181,138.85516" id="path162" fill="#7DD5F7"></path>
                        <path d="M150.079107,127.914472 C150.197773,127.973139 150.313773,128.026472 150.43644,128.086472 C150.38844,128.066472 150.281773,128.026472 150.139107,127.973139 C150.115107,127.951805 150.091107,127.935805 150.079107,127.914472" id="path164" fill="#7DD5F7"></path>
                        <path d="M172.454133,140.154968 C172.33953,140.338504 172.166769,140.497067 171.940984,140.628262 C165.728796,139.533886 158.300445,136.146415 150.086804,127.921998 C150.105106,127.92884 150.11879,127.933972 150.124948,127.936537 C150.126488,127.937564 150.128027,127.93859 150.130422,127.939616 C157.80919,135.212141 164.761339,138.294117 170.630913,139.328968 C170.857383,139.197431 171.028091,139.038012 171.142181,138.85516 C171.333757,138.552744 171.426124,138.18875 171.436387,137.774981 C171.44665,137.77652 171.458623,137.77652 171.470597,137.778744 C171.961509,137.864953 172.356635,137.920544 172.601236,137.950307 C172.837285,138.857897 172.797943,139.603845 172.454133,140.154968" id="path166" fill="#FFFFFF"></path>
                        <path d="M112.9341,95.7388045 C113.422961,96.0749174 115.855802,97.9183213 118.15112,99.6048724 C115.917893,99.0864204 111.789435,98.0413061 109.633694,97.1959779 C108.882443,96.1984154 109.010902,95.2547336 112.9341,95.7388045" id="path168" fill="#7DD5F7"></path>
                        <path d="M111.670726,99.0188558 C111.670726,99.0188558 110.302841,98.0859501 109.633694,97.1959779 C111.789435,98.0413061 115.917893,99.0864204 118.15112,99.6048724 C119.202905,100.37836 120.226638,101.118321 121.019283,101.66551 C118.847292,101.348383 115.349324,100.626724 111.670726,99.0188558" id="path170" fill="#FFFFFF"></path>
                        <path d="M23.9113956,118.33534 C24.4779126,117.443486 25.4619622,116.320202 26.5689966,115.272351 C28.3480857,115.853065 31.7791739,116.82326 35.2073543,116.961126 C32.8915108,117.844598 29.0139826,118.827451 23.9113956,118.33534" id="path172" fill="#7DD5F7"></path>
                        <path d="M21.5351716,119.510623 C22.3832366,118.173869 23.8564886,116.655802 25.8505873,115.028434 C26.0426763,115.096512 26.2872775,115.180155 26.5689966,115.272351 C25.4619622,116.320202 24.4779126,117.443486 23.9113956,118.33534 C29.0139826,118.827451 32.8915108,117.844598 35.2073543,116.961126 L35.2073543,116.961126 C35.2126568,116.961639 35.2355775,116.968823 35.2607218,116.977889 C35.0438306,117.117123 29.9669011,120.321913 21.5351716,119.510623" id="path174" fill="#FFFFFF"></path>
                        <path d="M48.6954873,113.528156 C44.8424192,114.459009 37.4051733,115.502413 28.5841344,112.962495 C30.828479,111.373613 33.4821458,109.71768 36.4673072,108.054904 L37.1735719,108.322939 C40.3417565,109.524222 45.5067767,110.942738 52.1140889,110.887831 C50.9519765,111.836131 49.8139821,112.709512 48.6954873,113.528156" id="path176" fill="#7DD5F7"></path>
                        <path d="M48.6954873,113.528156 C48.6465671,113.56459 48.5966206,113.601195 48.5475293,113.637457 C48.0229195,114.019582 47.5007044,114.392984 46.9856734,114.748768 C43.6459258,115.670213 35.9435527,117.111308 26.6721396,114.375366 C26.9800293,114.136409 27.3002345,113.895229 27.6283081,113.651654 C27.8147524,113.514301 28.0102623,113.375238 28.2032065,113.236858 C28.3299544,113.145347 28.4546497,113.054177 28.5841344,112.962495 C37.4051733,115.502413 44.8424192,114.459009 48.6954873,113.528156" id="path178" fill="#FFFFFF"></path>
                        <path d="M44.92076,116.100061 C35.975539,121.44896 28.6180023,122.707716 22.7414149,122.165659 C22.5518917,121.970491 22.4203544,121.761468 22.3486845,121.542695 C22.2308312,121.181438 22.2178314,120.783576 22.295488,120.357662 C22.2455415,120.353044 22.2118446,120.348425 22.1642928,120.343807 C24.9093002,120.609105 31.4061142,120.734485 36.7117374,116.9146 C36.7117374,116.9146 39.6437022,117.2437 44.9734434,116.088259 C44.9566805,116.093219 44.9385492,116.095956 44.92076,116.100061" id="path180" fill="#7DD5F7"></path>
                        <path d="M22.3486845,121.542695 C22.4203544,121.761468 22.5518917,121.970491 22.7414149,122.165659 C28.6180023,122.707716 35.975539,121.44896 44.92076,116.100061 C44.9385492,116.095956 44.9566805,116.093219 44.9734434,116.088259 C35.3065632,122.269657 27.4245877,123.712462 21.2019665,123.139274 C21.0124433,122.942909 20.8814192,122.73457 20.8097493,122.515798 C20.5933713,121.856743 20.7153298,121.08394 21.1354282,120.219796 C21.2469526,120.237072 21.3935423,120.256914 21.5611712,120.277611 C21.6176176,120.285308 21.6810771,120.291808 21.7438524,120.299505 C21.8735081,120.314216 22.010348,120.328755 22.1642928,120.343807 C22.2118446,120.348425 22.2455415,120.353044 22.295488,120.357662 C22.2178314,120.783576 22.2308312,121.181438 22.3486845,121.542695" id="path182" fill="#FFFFFF"></path>
                        <path d="M63.0171462,111.926788 C63.0171462,111.926788 61.553815,111.46769 61.6316427,110.471838 C62.0395965,110.839082 62.59414,111.01475 62.59414,111.01475 C77.5336307,112.9471 83.5190058,98.2898415 84.4197541,95.8111586 C84.6349348,95.8079087 84.8543917,95.9303803 84.9659162,96.3682678 C84.9659162,96.3682678 79.3291406,114.037029 63.0171462,111.926788" id="path184" fill="#289EE0"></path>
                        <path d="M62.59414,111.01475 C62.59414,111.01475 62.0395965,110.839082 61.6316427,110.471838 C61.6354058,110.407181 61.4003833,109.229161 63.191788,109.335041 C63.191788,109.335041 76.8738916,112.261703 83.8310007,96.0583256 C83.8310007,96.0583256 84.1224696,95.8150928 84.4197541,95.8111586 C83.5190058,98.2898415 77.5336307,112.9471 62.59414,111.01475" id="path186" fill="#FFFFFF"></path>
                        <path d="M183.271323,138.287617 C187.349151,138.438483 191.031853,137.969635 192.559328,137.737007 C194.158644,139.447506 195.45178,141.038953 196.416501,142.483127 C190.660675,141.661574 185.912332,139.79371 183.273034,138.289669 C183.273034,138.289156 183.273034,138.28813 183.271323,138.287617" id="path188" fill="#289EE0"></path>
                        <path d="M179.566384,137.967583 C180.806495,138.145303 182.055159,138.242289 183.271323,138.287617 C183.273034,138.28813 183.273034,138.289156 183.273034,138.289669 C185.912332,139.79371 190.660675,141.661574 196.416501,142.483127 C196.910835,143.223772 197.324776,143.92884 197.637797,144.584816 C185.915753,143.579727 179.566384,137.967583 179.566384,137.967583" id="path190" fill="#FFFFFF"></path>
                        <path d="M88.6411156,108.594278 C88.5304489,108.578278 88.4104489,108.566278 88.3037823,108.550278 C88.3917823,108.439611 88.5064489,108.368945 88.7171156,108.386278 C88.6944489,108.456945 88.6597823,108.522278 88.6411156,108.594278" id="path192" fill="#ED192D"></path>
                        <path d="M93.511736,101.628734 C95.2839831,103.449559 97.1054925,104.854391 98.205685,105.631642 C98.041135,105.515499 97.8632432,105.388751 97.6679043,105.244556 C95.8005535,106.228605 93.6685886,105.905834 93.6685886,105.905834 C93.6306156,105.861533 93.6058134,105.818599 93.5692087,105.773784 C93.6607203,104.311479 93.6215499,102.910752 93.511736,101.628734" id="path194" fill="#ED192D"></path>
                        <path d="M83.3180223,120.445753 C83.3180223,120.445753 82.2660659,120.841049 81.6360895,120.417359 C82.0334382,120.382293 82.3586039,120.260335 82.3586039,120.260335 C95.1868268,112.652381 90.600126,97.4359608 89.923624,95.4172309 C90.0775688,95.1955503 90.3497091,95.0277505 90.8047016,95.3782315 C90.8047016,95.3782315 97.0735062,112.288045 83.3180223,120.445753" id="path196" fill="#289EE0"></path>
                        <path d="M82.3586039,120.260335 C82.3586039,120.260335 82.0334382,120.382293 81.6360895,120.417359 C81.4929208,120.321913 81.3719886,120.183191 81.2893715,119.988195 C81.2893715,119.988195 80.4620035,119.348639 81.8977957,118.356721 C81.8977957,118.356721 94.1295679,112.399227 89.748469,95.8203953 C89.748469,95.8203953 89.796534,95.6000831 89.923624,95.4172309 C90.600126,97.4359608 95.1868268,112.652381 82.3586039,120.260335" id="path198" fill="#FFFFFF"></path>
                        <path d="M60.204232,101.370107 C53.8675206,102.437457 49.940901,102.022833 47.7618975,101.485907 L47.4357055,101.405514 L47.1194344,101.54509 C42.6777838,103.520374 38.3009612,105.721272 34.3875125,107.986142 C31.298695,107.526189 28.616976,106.88441 26.4542221,106.230658 C30.0360052,104.316782 33.8835998,102.411629 37.9646773,100.561212 C41.2649124,101.365317 47.2535374,101.933716 56.9761799,100.030273 C58.8394255,100.407267 60.6491325,100.693262 62.4386557,100.939232 C61.684155,101.094032 60.9305095,101.247977 60.204232,101.370107" id="path200" fill="#289EE0"></path>
                        <path d="M31.7878974,109.543038 C28.7110534,108.902969 26.1875555,108.099035 24.3073759,107.387981 C25.0052592,107.002435 25.732563,106.616204 26.4542221,106.230658 C28.616976,106.88441 31.298695,107.526189 34.3875125,107.986142 C33.4949746,108.502884 32.6270678,109.021849 31.7878974,109.543038" id="path202" fill="#FFFFFF"></path>
                        <path d="M17.5509083,120.037457 C14.7479663,121.121571 9.78457961,122.269657 3.98720537,122.08116 C5.13356412,120.740301 6.63719462,119.301087 8.46970259,117.79106 C9.96519111,118.315327 13.6208506,119.490269 17.7341026,120.060549 C17.6740641,120.052851 17.6080389,120.045496 17.5509083,120.037457" id="path204" fill="#289EE0"></path>
                        <path d="M22.0488342,117.155439 C18.7022446,117.057598 15.0269314,116.642631 11.1557149,115.696897 C14.4248532,113.272608 18.4059863,110.720545 22.9461615,108.152574 L23.9019879,108.513831 C25.6242884,109.165702 27.8046604,109.857769 30.3555263,110.449944 C26.838229,112.734656 23.9394478,115.023132 22.0488342,117.155439" id="path206" fill="#289EE0"></path>
                        <path d="M20.729527,118.865937 C17.3037413,118.63844 13.5517636,118.048319 9.59028413,116.887232 C10.090468,116.494844 10.6161725,116.096982 11.1557149,115.696897 C15.0269314,116.642631 18.7022446,117.057598 22.0488342,117.155439 C21.5322637,117.737692 21.0861658,118.310025 20.729527,118.865937" id="path208" fill="#FFFFFF"></path>
                        <path d="M19.7295697,121.200596 C17.0868159,122.487232 11.0831556,124.74509 2.56928794,123.96459 C2.94954878,123.363521 3.42989087,122.733031 3.98720537,122.08116 C9.78457961,122.269657 14.7479663,121.121571 17.5509083,120.037457 C17.6080389,120.045496 17.6740641,120.052851 17.7341026,120.060549 C18.4762878,120.16335 19.2343805,120.237414 19.994868,120.29369 C19.8766726,120.60175 19.7837925,120.905022 19.7295697,121.200596" id="path210" fill="#FFFFFF"></path>
                        <path d="M19.8185156,122.917081 C19.9567239,123.338718 20.2257853,123.707502 20.5762663,124.041733 C13.338875,126.980882 6.86530665,127.958945 1.49668587,127.770961 C1.33392171,126.940856 1.50737649,125.994267 2.01951673,124.941113 C3.91609997,125.221293 12.0791273,126.117765 19.6941624,122.386655 C19.719991,122.567455 19.7617271,122.743807 19.8185156,122.917081" id="path212" fill="#289EE0"></path>
                        <path d="M22.5756676,125.173741 C22.6750475,125.20624 22.7886246,125.233437 22.892965,125.263884 C14.8287531,128.635105 7.91291834,129.451526 2.08200123,128.940258 C1.82696596,128.674275 1.6512328,128.388622 1.5551507,128.088943 C1.52314557,127.987681 1.51760013,127.87667 1.49668587,127.770961 C6.86530665,127.958945 13.338875,126.980882 20.5762663,124.041733 C21.0562321,124.500147 21.708445,124.88518 22.5756676,125.173741" id="path214" fill="#FFFFFF"></path>
                        <path d="M31.1921309,125.678509 C25.2112031,127.437585 19.8130421,128.485778 15.534402,128.977546 C18.3449215,128.273334 21.4617912,127.20701 24.8598668,125.668588 C26.5724176,125.89711 28.6939484,125.91661 31.1921309,125.678509" id="path216" fill="#289EE0"></path>
                        <path d="M39.4285216,124.228348 C38.7816112,124.662644 38.1475295,125.0889 37.5433816,125.494459 C20.7025011,131.484795 9.07993991,131.947313 4.14161204,130.155224 C7.06288629,130.343208 10.8859865,130.142567 15.534402,128.977546 C19.8130421,128.485778 25.2112031,127.437585 31.1921309,125.678509 C33.6005123,125.449644 36.3571511,124.979086 39.4285216,124.228348" id="path218" fill="#FFFFFF"></path>
                        <path d="M89.6814175,93.8555461 C88.8921936,94.1468439 88.4726084,94.9081866 88.3429527,95.5234528 L88.271796,95.857171 L88.3598866,96.186955 C88.907246,98.2590525 89.1689522,100.139916 89.2324117,101.861875 C88.9982445,103.122854 88.6980521,104.671881 88.5063052,105.387553 C87.5905045,105.331962 86.503483,104.992771 85.5201176,104.472266 L85.5308937,104.369123 L86.4381419,96.6137243 L86.5022856,96.413425 L86.3976031,96.0025633 C86.3969189,95.9994845 86.3955505,95.9972608 86.3945242,95.9941819 C86.379814,95.9334592 86.3579196,95.8828285 86.3396173,95.8265531 C86.0342933,94.888858 85.3952512,94.5431663 85.0232179,94.4239446 C84.1990999,94.1593306 83.3751529,94.51118 82.8792795,94.9280284 L82.6120997,95.1536431 L82.4733783,95.4757299 C81.3521468,98.0883448 80.0502866,100.157363 78.667862,101.809533 C77.3158843,101.632155 76.2475072,100.930851 76.2475072,100.930851 C74.9687388,99.1231962 77.5823799,94.9138313 78.2765001,93.8603355 C78.2794079,93.8509277 78.2845394,93.8184283 78.2913814,93.779771 C78.2944603,93.7753237 78.3066048,93.7630081 78.3066048,93.7630081 C77.3288841,96.8661939 78.2166326,99.8463948 78.2166326,99.8463948 C82.3026706,93.3880669 86.8395959,91.726318 86.8395959,91.726318 C89.1776758,90.6456253 91.5549261,94.1270021 91.5549261,94.1270021 C91.5766494,94.1521465 91.5980306,94.1735277 91.619754,94.198501 C90.7865703,93.5917873 90.050543,93.7185352 89.6814175,93.8555461" id="path220" fill="#ED192D"></path>
                        <path d="M76.2475072,100.930851 C76.2475072,100.930851 77.3158843,101.632155 78.667862,101.809533 C78.4071821,102.120502 78.145818,102.421721 77.8806908,102.70344 C74.7342295,102.687019 74.5838767,100.20406 74.5838767,100.20406 C74.5407721,97.8517829 78.1280288,93.9561234 78.2913814,93.779771 C78.2845394,93.8184283 78.2794079,93.8509277 78.2765001,93.8603355 C77.5823799,94.9138313 74.9687388,99.1231962 76.2475072,100.930851" id="path222" fill="#FFFFFF"></path>
                        <path d="M80.0152214,10.1790034 C79.8246719,9.63111372 79.4755593,9.03296963 78.8673061,8.46068826 C81.2992924,8.62900128 84.2150075,8.94831707 87.3643767,9.52901409 C87.6123989,10.1532091 87.8202244,10.7628477 87.9476566,11.3397303 C85.4501582,10.8300532 82.8074386,10.4381781 80.0152214,10.1790034" id="path224" fill="#861810"></path>
                        <path d="M80.0383132,10.1492749 C79.8255272,9.54717958 79.4605069,8.99207162 78.952831,8.49864422 C81.7884949,8.6980883 84.6101326,9.05421401 87.341456,9.55706626 C87.6064122,10.2259052 87.791317,10.7965103 87.9059204,11.2988494 C85.3938828,10.7879578 82.7472291,10.4013681 80.0383132,10.1492749 Z M78.7805839,8.42266389 L78.8454118,8.48393393 C79.3843897,8.99087427 79.7678834,9.56462666 79.9851167,10.1894203 L79.9917876,10.2088003 L80.0123136,10.2106647 C82.7432949,10.4641776 85.4109878,10.8545133 87.9413277,11.3710666 L87.9892217,11.3806283 L87.9787876,11.3329225 C87.8635,10.8115456 87.6722664,10.2176948 87.3939683,9.5173827 L87.3874684,9.50094481 L87.3701924,9.49774618 C84.6031195,8.98747038 81.7429956,8.62792367 78.8693587,8.42882168 L78.7805839,8.42266389 L78.7805839,8.42266389 Z" id="path226" fill="#861810"></path>
                        <path d="M128.750221,47.2898 C128.431727,46.3303816 128.076627,45.3314507 127.669186,44.2911257 C128.014023,44.4647412 128.978744,44.9929431 129.914728,45.8511 C129.588023,46.280264 129.186056,46.7730585 128.750221,47.2898" id="path228" fill="#861810"></path>
                        <path d="M90.0804767,11.8069187 C90.0943317,11.1315969 90.0495167,10.5418171 89.9920439,10.067821 C91.4829141,10.4046352 93.0073101,10.7985971 94.5404295,11.2681118 C96.6612762,11.9173655 98.7131897,12.6809319 100.705407,13.5307074 C100.881588,14.1350606 101.057427,14.8353727 101.19632,15.6332859 C97.8714536,14.0876969 94.1793434,12.7868459 90.0804767,11.8069187" id="path230" fill="#861810"></path>
                        <path d="M90.1128051,11.7819283 C90.122897,11.2309597 90.0946738,10.6683598 90.0289907,10.1087019 C91.6050437,10.4660421 93.1195187,10.8661447 94.5310218,11.2985073 C96.5485544,11.9161511 98.6170598,12.6751333 100.679065,13.5540215 C100.879365,14.2426338 101.03502,14.9056571 101.154413,15.5787039 C97.7392321,13.9960142 94.0248854,12.7189563 90.1128051,11.7819283 L90.1128051,11.7819283 Z M89.9549261,10.0267862 L89.9603997,10.0716354 C90.0307012,10.6519903 90.0604639,11.2354412 90.0486614,11.8061832 L90.0481483,11.8317038 L90.0729505,11.8376563 C94.0113725,12.7792855 97.749153,14.0661104 101.182978,15.6622104 L101.238056,15.6876797 L101.227793,15.627607 C101.105663,14.9270383 100.944706,14.2380326 100.735854,13.5218299 L100.731578,13.5073249 L100.717723,13.5015092 C98.6490461,12.6190632 96.5738697,11.8573613 94.5496662,11.2376307 C93.1236239,10.8009234 91.592557,10.3967498 89.999057,10.0366899 L89.9549261,10.0267862 L89.9549261,10.0267862 Z" id="path232" fill="#861810"></path>
                        <path d="M104.950179,17.5604871 C104.9536,16.8975151 104.915969,16.2001621 104.848233,15.4808805 C107.855118,17.048381 110.69044,18.8560183 113.326831,20.9021162 C115.045026,22.2373311 116.681973,23.6746627 118.235105,25.2110321 C118.148212,26.2024368 118.032411,27.1574079 117.88565,28.0687613 C114.501943,24.2179169 110.263842,20.5692533 104.950179,17.5604871" id="path234" fill="#861810"></path>
                        <path d="M104.981994,17.5420137 C104.98456,16.9344618 104.95189,16.2600295 104.885351,15.5361296 C107.882486,17.1024499 110.715926,18.9160568 113.307331,20.9272605 C115.011842,22.2518703 116.658539,23.6968991 118.202092,25.2230056 C118.116567,26.1940554 118.003333,27.1266189 117.864782,27.9970915 C114.181738,23.816805 109.847677,20.2995077 104.981994,17.5420137 Z M104.811116,15.4256143 L104.816418,15.4839423 C104.887404,16.2350391 104.921614,16.9337947 104.918364,17.560316 L104.918193,17.5791315 L104.934443,17.5881971 C109.820309,20.3545858 114.169764,23.8877907 117.861703,28.0898005 L117.906347,28.1404312 L117.916952,28.0737218 C118.061147,27.1786181 118.17883,26.2162918 118.266749,25.2137689 L118.267947,25.1988875 L118.257341,25.1884535 C116.708999,23.6567024 115.056657,22.206029 113.34633,20.8771429 C110.736965,18.8519131 107.882657,17.0269998 104.862944,15.4526744 L104.811116,15.4256143 L104.811116,15.4256143 Z" id="path236" fill="#861810"></path>
                        <path d="M127.652253,44.247679 C126.132646,40.3807559 123.945603,36.0278802 120.831641,31.7518059 C121.206753,30.4502879 121.4115,29.4017525 121.514985,28.7813549 C124.720459,32.5497533 127.509597,36.7869993 129.824756,41.4942902 C129.837927,41.5194345 130.343037,42.5763513 131.000895,44.3359407 C130.850371,44.5608712 130.671795,44.8237748 130.433865,45.1530457 C130.435917,45.1539009 129.071795,44.5822525 127.652253,44.247679" id="path238" fill="#861810"></path>
                        <path d="M125.32837,80.4938188 C125.657127,80.724394 126.021977,80.9265748 126.402905,81.116098 C126.329866,81.1923863 126.249131,81.2643982 126.175408,81.3401733 C126.005214,81.2175306 125.851269,81.1085718 125.72435,81.0146655 C125.618128,80.9234959 125.482486,80.7404726 125.32837,80.4938188" id="path240" fill="#861810"></path>
                        <path d="M119.222233,68.6166329 C119.259351,68.6593953 120.164205,69.6494317 120.932903,70.2833423 C121.202648,70.5045097 121.618299,71.1399597 121.703653,72.2221919 C120.983191,71.0150934 120.008721,69.6940757 118.808122,68.5442788 C118.890568,68.5068189 118.973869,68.4741484 119.056144,68.4360043 L119.222233,68.6166329" id="path242" fill="#861810"></path>
                        <path d="M107.492321,82.4535365 C107.492321,82.4535365 108.304808,85.1357687 114.596875,84.8289053 C114.596875,84.8289053 119.599227,85.2750032 120.839338,86.8250566 C119.60624,84.1568506 119.183063,80.9941395 117.464012,80.2362178 C117.464012,80.2362178 117.175794,81.9203743 113.362409,80.5725017 C113.362409,80.5725017 109.239082,77.6689311 107.649858,80.8626022 C107.649858,80.8626022 107.233181,81.9463738 107.492321,82.4535365" id="path244" fill="#289EE0"></path>
                        <path d="M116.424543,61.8416918 C116.424543,61.8416918 116.907074,66.6497311 122.238526,67.1184076 C122.238526,67.1184076 127.445453,67.5160984 127.187339,61.0788097 C127.187339,61.0788097 126.83549,59.4274948 125.871111,57.989479 C125.871111,57.989479 127.95005,62.1412001 125.151162,65.5004474 L124.757919,64.3802421 C124.757919,64.3802421 124.305321,65.639853 122.631769,66.1160556 L122.518877,64.716355 C122.518877,64.716355 122.060805,65.3555682 121.326146,65.5476571 C121.326146,65.5476571 118.222276,65.4607638 116.424543,61.8416918" id="path246" fill="#289EE0"></path>
                        <path d="M126.12512,54.6575997 C126.12512,54.6575997 128.27915,60.066879 134.800595,59.5309799 C134.800595,59.5309799 139.098735,59.1690385 138.164803,54.2332251 C138.164803,54.2332251 137.365658,50.7313222 133.49959,48.4115447 C133.49959,48.4115447 136.850969,51.1124212 135.507886,56.0384848 L134.611585,54.3025002 C134.611585,54.3025002 134.819411,56.0720106 133.883597,57.4383565 L133.044769,56.0384848 C133.044769,56.0384848 132.820694,57.3264899 131.86863,57.8856517 C131.86863,57.8856517 128.734485,57.9985446 126.12512,54.6575997" id="path248" fill="#289EE0"></path>
                        <path d="M106.506219,61.0309157 C106.506219,61.0309157 110.257684,65.2199257 107.458967,70.6512704 L106.22775,69.1393611 L105.722811,70.9870412 C105.722811,70.9870412 102.196961,70.9870412 100.958561,67.0161198 C100.958561,67.0161198 101.108229,72.0718391 106.906134,72.0484053 C106.906134,72.0484053 109.474276,71.9166969 109.922426,68.9380355 C109.922426,68.9380355 110.978659,63.8992501 106.506219,61.0309157" id="path250" fill="#289EE0"></path>
                        <path d="M104.857128,69.8273235 C104.857128,69.8273235 101.469144,68.4175309 100.928114,65.2695301 C100.928114,65.2695301 102.004188,66.7906761 103.69416,66.9536866 C103.69416,66.9536866 103.973143,69.0387838 104.857128,69.8273235" id="path252" fill="#289EE0"></path>
                        <path d="M105.289029,69.1301244 C105.289029,69.1301244 104.328584,67.308786 104.362281,66.7419269 C104.362281,66.7419269 105.108571,66.1056216 105.173057,65.3540287 C105.173057,65.3540287 105.68672,65.6962994 106.014451,66.3890512 C106.014451,66.3890512 106.750649,63.586742 106.500575,61.6983521 C106.500575,61.6983521 107.584346,65.7677982 106.78828,68.5595022 L105.876756,67.1929853 L105.289029,69.1301244" id="path254" fill="#289EE0"></path>
                        <path d="M126.337051,88.4625165 C126.023516,88.684026 125.700403,88.7887085 125.376777,88.8237737 C122.941712,88.2865062 121.80423,84.9303378 120.568567,81.4698291 C119.054947,77.2336094 114.365274,75.4184287 112.549922,75.1149864 C110.734742,74.8130834 109.977162,73.602906 110.279065,72.5434235 C110.484325,71.8287773 110.343038,70.9769493 110.230316,70.4983519 C110.221079,70.5176805 110.207395,70.5335881 110.198158,70.5530878 C110.980027,68.9517195 110.771346,66.7234535 110.771346,66.7234535 C118.134528,65.5598017 122.078423,74.904424 122.167369,75.7281999 C122.255802,76.5528311 124.12589,81.1489396 125.151675,81.9025851 C126.179,82.6570858 127.217957,82.5115224 128.079535,84.3701497 C128.530251,85.7074171 128.440963,86.9754094 126.337051,88.4625165" id="path256" fill="#289EE0"></path>
                        <path d="M110.279065,72.5434235 C109.977162,73.602906 110.734742,74.8130834 112.549922,75.1149864 C114.365274,75.4184287 119.054947,77.2336094 120.568567,81.4698291 C121.80423,84.9303378 122.941712,88.2865062 125.376777,88.8237737 C122.466193,88.6980521 121.684325,86.6233889 121.684325,86.6233889 C120.744748,85.5026705 120.540685,78.8248858 112.779642,77.2366883 C108.209191,76.0386554 107.992813,72.1399169 107.992813,72.1399169 C108.251783,72.1200752 109.614023,71.5542424 110.198158,70.5530878 C110.208935,70.5349565 110.221079,70.5176805 110.230316,70.4983519 C110.343038,70.9769493 110.484325,71.8287773 110.279065,72.5434235" id="path258" fill="#7DD5F7"></path>
                        <path d="M130.318064,70.6562309 C129.975109,71.9840906 130.228092,73.8759015 130.474061,77.1544133 C130.721912,80.432583 127.651226,80.1361537 127.651226,80.1361537 C126.240921,79.5680972 125.261489,78.6967695 124.580027,77.7341011 C124.3149,76.0549051 124.80376,73.9822945 124.80376,72.0892862 C124.80376,69.8404943 123.97605,68.6279222 123.437072,68.0785102 C123.436559,68.0761155 123.43348,68.0754313 123.432454,68.0732076 C128.550093,67.6808193 127.614279,60.8319848 127.614279,60.8319848 C131.593753,62.5549696 130.662558,69.3288843 130.318064,70.6562309" id="path260" fill="#289EE0"></path>
                        <path d="M124.80376,72.0892862 C124.80376,73.9822945 124.3149,76.0549051 124.580027,77.7341011 C123.329824,75.9680118 123.095143,73.8894144 123.136366,72.7743407 C123.202392,71.0532375 122.607309,69.7951661 121.900189,69.2117152 C121.19153,68.627238 120.315584,67.6678196 120.315584,67.6678196 C121.549537,68.0290768 122.573955,68.1388907 123.432454,68.0732076 C123.43348,68.0754313 123.436559,68.0761155 123.437072,68.0785102 C123.97605,68.6279222 124.80376,69.8404943 124.80376,72.0892862" id="path262" fill="#7DD5F7"></path>
                        <path d="M139.120458,66.5048519 C138.100317,68.4093205 136.931363,73.8717963 136.931363,73.8717963 C136.209019,76.0584971 134.768609,75.6955294 133.441091,75.3525746 C132.114087,75.0094486 131.720672,75.1360255 131.720672,75.1360255 C130.791017,73.8206524 131.984431,70.574298 132.223901,67.7271738 C132.392385,65.7130623 132.126231,64.4921087 131.744619,63.744621 C132.173441,62.6290341 132.851312,61.1703213 133.810388,60.6535798 L133.825611,60.6392117 C138.180198,60.9074178 138.774082,57.0849676 138.774082,57.0849676 C141.321356,60.4113733 140.140257,64.599699 139.120458,66.5048519" id="path264" fill="#289EE0"></path>
                        <path d="M131.744619,63.744621 C131.156721,62.5939689 130.290696,62.5732719 130.290696,62.5732719 C130.130593,60.812143 130.989263,60.0249718 130.989263,60.0249718 C132.085008,60.4129128 133.013296,60.5896072 133.825611,60.6392117 L133.810388,60.6535798 C132.851312,61.1703213 132.173441,62.6290341 131.744619,63.744621" id="path266" fill="#7DD5F7"></path>
                        <path d="M125.707929,53.3766076 C125.707929,53.3766076 127.332218,55.9409864 131.309298,56.8783394 C131.309298,56.8783394 132.531277,56.6482774 132.912719,54.4229193 C132.912719,54.4229193 133.580155,54.9836206 133.670298,55.5713478 C133.670298,55.5713478 134.186355,53.6867209 134.06491,52.9017733 C134.06491,52.9017733 134.681716,53.3902916 135.090525,54.3512494 C135.090525,54.3512494 135.328455,51.846396 133.251055,48.7507364 C133.251055,48.7507364 133.777888,50.4974971 133.546116,51.4752179 L132.7338,51.0186859 C132.7338,51.0186859 133.157662,53.0009822 132.656657,54.0609779 L131.732988,53.1379931 C131.732988,53.1379931 131.810816,54.1699366 131.176734,55.2709843 C131.176734,55.2709843 128.511949,55.9591177 125.707929,53.3766076" id="path268" fill="#289EE0"></path>
                        <path d="M116.745945,60.9477855 C116.745945,60.9477855 117.711864,63.8505009 121.328541,64.6628164 C121.328541,64.6628164 122.549494,63.8535798 122.852766,63.2051299 C122.852766,63.2051299 123.148511,64.0829576 123.070683,64.898352 C123.070683,64.898352 124.705235,63.9054079 124.959586,62.8026497 C124.959586,62.8026497 125.27466,63.5569794 125.282871,63.8765004 C125.282871,63.8765004 126.166856,62.4369452 125.919347,60.166601 C125.919347,60.166601 125.616076,61.1970051 125.171004,61.5666437 L124.854049,60.812143 C124.854049,60.812143 124.444384,62.4596948 123.399954,62.9808836 L123.363349,62.08253 C123.363349,62.08253 122.231513,63.480178 121.3855,63.5906762 C121.3855,63.5906762 119.039894,64.2695729 116.745945,60.9477855" id="path270" fill="#289EE0"></path>
                        <path d="M77.9453476,11.8723965 C77.5544988,12.370716 76.9457325,12.8403674 76.1361538,12.5071453 C75.6543064,12.2678808 68.4994638,8.78600791 55.5248222,4.88333535 C55.527388,4.88333535 55.5297827,4.88259984 55.5314932,4.8817959 C64.348769,5.98079096 74.691296,10.4046352 77.9453476,11.8723965" id="path272" fill="#FFFFFF"></path>
                        <path d="M75.577163,8.84775689 L75.762752,8.89578768 C75.762752,8.89578768 75.9425254,8.89493243 75.9444069,8.89412849 C75.9533015,8.89578768 76.9072463,8.91323476 77.5254203,9.55420972 C77.6692732,9.70192834 77.7898634,9.88120565 77.8856512,10.0830444 C78.0681614,10.4677868 78.1528311,10.9754455 78.1610414,11.5706476 C78.1001477,11.6681973 78.0253989,11.7711693 77.9453476,11.8723965 C74.691296,10.4046352 64.348769,5.98079096 55.5314932,4.8817959 C55.5297827,4.88259984 55.527388,4.88333535 55.5248222,4.88333535 C55.187512,4.78270674 54.8638857,4.68214656 54.5192204,4.58073112 C60.8812471,5.52270245 68.3872551,6.89537721 75.577163,8.84775689" id="path274" fill="#289EE0"></path>
                        <path d="M104.379044,65.0959146 C104.21552,65.4402378 104.022918,65.7838769 103.771988,66.1268318 C102.824201,66.1466736 102.126831,65.6321557 101.614195,64.9243516 C102.472009,65.028692 103.389521,65.0889015 104.377333,65.0950593 C104.378531,65.0950593 104.378531,65.0959146 104.379044,65.0959146" id="path276" fill="#861810"></path>
                        <path d="M114.599612,63.5959787 C114.922554,63.3209306 115.238654,63.0291197 115.542952,62.7135327 C115.552189,62.7523611 115.568952,62.7911894 115.58007,62.8308729 C115.919262,64.180456 116.56104,65.6354057 117.739232,66.9848177 C117.544577,67.0564875 117.348041,67.1259338 117.149965,67.1945247 C115.654819,66.1771204 114.073634,65.612485 112.427451,65.5072894 C113.479236,64.7184076 114.340814,63.902329 114.599612,63.5959787" id="path278" fill="#231F20"></path>
                        <path d="M115.542952,62.7135327 C115.238654,63.0291197 114.922554,63.3209306 114.599612,63.5959787 C114.599612,63.5959787 114.600125,63.593584 114.601494,63.593584 C113.187083,63.9763935 111.860592,64.2719676 110.603033,64.5013454 C110.715926,64.8367741 110.808806,65.1817816 110.867305,65.5399599 C110.603547,63.9473151 109.76831,62.5823375 108.736025,61.4484483 C108.736538,61.4484483 108.738077,61.4484483 108.739617,61.4484483 C110.827793,61.4720532 113.030059,61.323582 115.268588,60.9096414 C115.269101,60.9089572 115.269101,60.9089572 115.27047,60.9089572 C115.311351,61.5033553 115.410388,62.1548841 115.58007,62.8308729 C115.568952,62.7911894 115.552189,62.7523611 115.542952,62.7135327" id="path280" fill="#ED192D"></path>
                        <path d="M114.601494,63.593584 C114.600125,63.593584 114.599612,63.5952945 114.599612,63.5952945 C114.441562,63.7827651 114.0437,64.1676272 113.529525,64.6125278 C113.206925,64.8877469 112.840536,65.1848605 112.398543,65.5066052 C111.892578,65.475303 111.383534,65.4836845 110.867305,65.5399599 C110.808806,65.1817816 110.715926,64.8367741 110.603033,64.5013454 C111.860592,64.2719676 113.187083,63.9763935 114.601494,63.593584" id="path282" fill="#861810"></path>
                        <path d="M107.475559,106.01924 C107.430401,106.118791 107.396876,106.173698 107.396876,106.173698 C105.883427,107.724778 101.31195,105.664141 101.31195,105.664141 C97.9085714,103.773356 95.1329461,101.361383 93.2486613,99.4810324 C92.8198395,96.753472 92.1720738,94.9362388 92.1517189,94.8787661 L92.0933909,94.7232818 C98.6273227,101.997004 104.777419,103.343337 104.777419,103.343337 C105.024757,102.035148 104.239809,98.641862 104.239809,98.641862 C106.715071,101.285779 107.334442,104.876115 107.474532,106.01924 C107.474532,106.01924 107.474532,106.01924 107.475559,106.01924" id="path284" fill="#ED192D"></path>
                        <path d="M107.475559,106.01924 C107.474532,106.01924 107.474532,106.01924 107.474532,106.01924 C107.334442,104.876115 106.715071,101.285779 104.239809,98.641862 C108.50887,102.788794 107.758133,105.388238 107.475559,106.01924" id="path286" fill="#861810"></path>
                        <path d="M129.870427,52.9140889 L130.189948,53.9030989 C130.189948,53.9030989 130.605085,53.2484913 130.541113,52.17943 L129.870427,52.9140889" id="path288" fill="#861810"></path>
                        <path d="M92.2564014,62.6632441 C92.1014302,62.4795366 91.9608273,62.2944607 91.8144087,62.1105822 C82.4271949,50.3122502 89.2866345,37.5375659 76.6104749,14.6647848 C77.7677979,14.6906475 78.7037825,14.0625013 79.350864,13.3485735 C85.2286487,20.3846905 88.8735492,36.3229411 89.0262967,48.0877474 C89.0801774,52.1878114 89.6653388,55.4546918 90.4244579,58.0334388 C90.9923432,59.9654464 91.6553323,61.5216576 92.2808615,62.6930068 C92.2731643,62.6830859 92.2639276,62.6729939 92.2564014,62.6632441" id="path290" fill="#FFFFFF"></path>
                        <path d="M106.76536,59.6803064 C104.796063,58.2104753 102.876029,57.4445143 102.876029,57.4445143 C102.876029,57.4445143 103.720673,58.4054721 104.331492,59.8481063 C100.794182,60.0774841 95.2138527,58.9206742 94.366814,58.7012173 C94.366814,58.7012173 100.544791,61.117809 104.776393,61.200084 C105.042546,62.3774199 105.030744,63.7276871 104.379044,65.0959146 C104.378531,65.0959146 104.378531,65.0950593 104.377333,65.0950593 C103.389521,65.0889015 102.472009,65.028692 101.614195,64.9243516 C100.51691,63.4107318 100.270427,61.0056004 100.265296,60.9987584 C100.265296,60.9987584 99.9243935,62.7935841 99.7075023,64.606541 L99.7075023,64.606541 C92.0008529,62.8957008 90.3428671,57.3133191 90.3428671,57.3133191 C90.3199464,57.4118438 90.3507354,57.6732079 90.4244579,58.0334388 C90.7058348,58.9914888 91.0111587,59.8549483 91.3236667,60.6262119 C90.1632648,57.7980742 89.1007034,53.7127205 89.0262967,48.0877474 C89.0213362,47.7341874 89.0131258,47.3768643 89.0023497,47.0162913 C99.3807972,49.7765222 106.477825,48.3125068 111.330166,45.2421626 C111.529781,45.7838774 113.623089,51.5597165 114.782465,57.6159062 C114.782465,57.6196693 114.784004,57.6244587 114.784517,57.6273665 C112.310795,58.9976466 107.494545,59.5982025 106.76536,59.6803064" id="path292" fill="#ED192D"></path>
                        <path d="M90.3428671,57.3133191 C90.3428671,57.3133191 92.0008529,62.8957008 99.7075023,64.606541 L99.7075023,64.606541 C99.5982015,65.5324337 99.5200317,66.4629447 99.5383341,67.1625384 C99.5453471,67.445968 99.5951226,67.775923 99.6661083,68.1212726 C98.8460955,67.9024999 98.0187275,67.6389121 97.1460314,67.3217858 C95.1728007,65.7816533 93.5921294,64.2468233 92.2844535,62.6989935 C92.1228115,62.3964064 91.9580905,62.0602935 91.7923432,61.7091282 C91.6544771,61.4111595 91.5160978,61.0909542 91.3785737,60.757236 C91.3607845,60.7129341 91.3411138,60.6718822 91.3236667,60.6262119 C91.0111587,59.8549483 90.7058348,58.9914888 90.4244579,58.0334388 C90.3507354,57.6732079 90.3199464,57.4118438 90.3428671,57.3133191" id="path294" fill="#861810"></path>
                        <path d="M97.1615969,67.2935626 C95.2761148,65.8216789 93.6887725,64.3119933 92.3087426,62.6784675 C92.1676265,62.4129982 92.011458,62.0987797 91.8210796,61.6956153 C91.6900554,61.4121858 91.5549261,61.1013883 91.4079943,60.7450915 C91.400126,60.7259339 91.3919156,60.7067763 91.3837052,60.6877898 C91.3734422,60.6638428 91.3630082,60.640238 91.3534294,60.6147515 C91.0214217,59.7954229 90.7191767,58.9240952 90.4549047,58.0245442 C90.4099186,57.8038899 90.3813533,57.6206956 90.3712614,57.4918951 C90.5281141,57.9131908 91.0209086,59.0658955 92.111009,60.3391903 C93.3683962,61.807824 95.6998052,63.7427395 99.6726082,64.6313433 C99.5465444,65.7060492 99.4907822,66.5577063 99.5065188,67.1632226 C99.5126766,67.411929 99.5515049,67.7112662 99.6247142,68.0773128 C98.8332667,67.8643558 98.0269379,67.6077811 97.1615969,67.2935626 L97.1615969,67.2935626 Z M90.339104,57.1891369 L90.3119071,57.306135 C90.2818023,57.4359618 90.3394461,57.7768641 90.3931557,58.0399387 C90.6587961,58.944108 90.9617253,59.8173173 91.2942462,60.6380143 C91.303996,60.6636718 91.3147721,60.688474 91.3253772,60.7129341 C91.3334166,60.7315786 91.3412849,60.7500519 91.3489821,60.7692095 C91.496427,61.1263615 91.6318985,61.4381853 91.7634358,61.7224701 C91.9543274,62.1270029 92.111009,62.4419056 92.2564014,62.7140459 C93.6439575,64.3574925 95.2359181,65.8712834 97.1263606,67.3469301 L97.1350842,67.3517195 C98.0221485,67.6739774 98.8472928,67.9356836 99.6578979,68.1520616 L99.7076734,68.1652324 L99.6972393,68.1149438 C99.6180433,67.7295685 99.5764782,67.4177447 99.5701493,67.1616832 C99.5542417,66.5537721 99.6110302,65.6954442 99.7391465,64.6103041 L99.7423965,64.5817388 L99.7145154,64.575581 C95.7420545,63.6936482 93.4133823,61.7624958 92.1594161,60.2977962 C90.8016227,58.7118224 90.3774192,57.3182795 90.373314,57.3044245 L90.339104,57.1891369 L90.339104,57.1891369 Z" id="path296" fill="#861810"></path>
                        <polyline id="path298" fill="#231F20" points="127.511136 94.579942 126.775964 94.579942 126.775964 96.9361532 125.712034 96.9361532 125.712034 97.4421186 128.575066 97.4421186 128.575066 96.9361532 127.511136 96.9361532 127.511136 94.579942"></polyline>
                        <polyline id="path300" fill="#231F20" points="132.699248 94.579942 132.013339 94.579942 132.013339 96.9719026 132.002733 96.9719026 131.346929 94.579942 130.625954 94.579942 129.983319 96.9719026 129.974083 96.9719026 129.974083 94.579942 129.286805 94.579942 129.286805 97.4421186 130.360655 97.4421186 130.998329 95.1861426 131.008421 95.1861426 131.635318 97.4421186 132.699248 97.4421186 132.699248 94.579942"></polyline>
                    </g>
                </g>
            </g>
        </g>
    </g>
</svg>