<svg width="200" height="200" viewBox="0 0 200 200" fill="none" xmlns="http://www.w3.org/2000/svg">
<path d="M59.2909 28.0181C39.71 28.0181 20.1291 28.0181 0.548229 28.0073C0.111815 28.0073 0 28.1083 0 28.5519C0.0144269 35.5021 0.0144304 42.4486 0.00361024 49.3988C0.00361024 49.7342 0.10459 49.9182 0.400341 50.0696C1.94762 50.8703 3.47689 51.7071 5.03138 52.4934C5.42452 52.6917 5.54353 52.919 5.54353 53.3518C5.5291 63.8185 5.5327 74.2852 5.5327 84.7519C5.5327 97.783 5.53271 110.818 5.53992 123.849C5.53992 124.173 5.46418 124.361 5.154 124.52C3.56704 125.335 1.99813 126.193 0.411172 127.012C0.0865666 127.178 0.00722049 127.38 0.00722049 127.719C0.0144339 134.64 0.014419 141.558 0.014419 148.479C0.014419 149.139 -0.0468856 149.06 0.587898 149.06C18.3799 149.06 36.1754 149.06 53.9674 149.06C54.0972 149.06 54.2271 149.071 54.3569 149.056C54.5841 149.035 54.7284 149.117 54.8474 149.319C55.1937 149.9 55.5724 150.463 55.9222 151.043C59.2584 156.555 63.5865 161.124 68.9641 164.673C76.1523 169.412 84.0691 171.804 92.6856 171.807C112.815 171.815 132.944 171.807 153.073 171.811C155.919 171.811 158.743 171.562 161.527 170.989C170.735 169.095 178.536 164.699 184.877 157.756C188.866 153.391 191.795 148.389 193.71 142.795C195.322 138.077 196.029 133.219 196.011 128.238C195.989 122.457 196.007 116.675 196.007 110.893C196.007 98.1653 196.007 85.4336 196 72.7054C196 72.3736 196.058 72.1608 196.393 71.9949C197.45 71.4719 198.478 70.884 199.535 70.3575C199.881 70.1843 199.996 69.9824 199.996 69.5964C199.982 62.6751 199.986 55.7575 199.986 48.8361C199.986 48.2771 199.986 48.2771 199.437 48.2771C182.479 48.2771 165.523 48.2735 148.565 48.2915C148.049 48.2915 147.8 48.1545 147.569 47.6748C145.423 43.1592 142.444 39.2675 138.588 36.0828C132.118 30.734 124.659 28.0362 116.259 28.029C97.2697 28.0073 78.2803 28.0181 59.2909 28.0181Z" fill="#FEFEFD"/>
<path d="M59.2907 28.018C78.2801 28.018 97.2695 28.0072 116.263 28.0216C124.663 28.0289 132.121 30.7267 138.592 36.0755C142.447 39.2602 145.426 43.1518 147.572 47.6675C147.8 48.1472 148.049 48.2842 148.568 48.2842C165.527 48.2698 182.482 48.2698 199.441 48.2698C199.989 48.2698 199.989 48.2698 199.989 48.8288C199.989 55.7501 199.985 62.6678 200 69.5891C200 69.9786 199.884 70.177 199.538 70.3501C198.481 70.8767 197.453 71.461 196.397 71.9876C196.061 72.1535 196.004 72.3663 196.004 72.6981C196.011 85.4262 196.011 98.158 196.011 110.886C196.011 116.668 195.993 122.449 196.014 128.231C196.032 133.212 195.325 138.066 193.713 142.788C191.798 148.382 188.869 153.384 184.88 157.748C178.536 164.691 170.735 169.088 161.53 170.981C158.746 171.555 155.922 171.804 153.076 171.804C132.947 171.8 112.818 171.807 92.689 171.8C84.0725 171.796 76.1557 169.405 68.9675 164.666C63.5899 161.121 59.2619 156.547 55.9256 151.036C55.5758 150.455 55.1971 149.893 54.8509 149.312C54.7318 149.11 54.5875 149.027 54.3603 149.049C54.2305 149.06 54.1007 149.052 53.9708 149.052C36.1788 149.052 18.3833 149.052 0.591316 149.052C-0.0470744 149.052 0.0178369 149.132 0.0178369 148.472C0.0178369 141.55 0.0178299 134.633 0.0106164 127.711C0.0106164 127.372 0.0899626 127.174 0.414568 127.005C2.00153 126.189 3.57046 125.331 5.15742 124.512C5.46759 124.354 5.54334 124.166 5.54334 123.841C5.53613 110.81 5.53612 97.7757 5.53612 84.7446C5.53612 74.2779 5.53252 63.8112 5.54695 53.3444C5.54695 52.9116 5.42791 52.6844 5.03478 52.486C3.48028 51.6998 1.95104 50.863 0.403759 50.0623C0.108008 49.9108 0.00702821 49.7269 0.00702821 49.3915C0.0178484 42.4413 0.0214516 35.4948 0.00341797 28.5446C0.00341797 28.1046 0.115211 28 0.551625 28C20.1289 28.018 39.7098 28.018 59.2907 28.018ZM60.6432 30.7844C44.3805 30.7844 28.1142 30.7844 11.8515 30.7844C8.96611 30.7844 6.08435 30.788 3.19897 30.7808C2.92486 30.7808 2.75535 30.788 2.75535 31.1559C2.76617 36.7211 2.76615 42.2862 2.75894 47.8478C2.75894 48.1039 2.85273 48.2301 3.06913 48.3455C4.67773 49.1859 6.27551 50.0443 7.89132 50.8738C8.20871 51.0361 8.29888 51.2309 8.29888 51.5735C8.29167 76.2255 8.29167 100.877 8.29888 125.529C8.29888 125.865 8.2051 126.038 7.90574 126.193C6.31878 127.012 4.74626 127.859 3.1593 128.678C2.86355 128.83 2.75535 128.999 2.75535 129.338C2.76617 134.817 2.76255 140.295 2.76255 145.774C2.76255 145.86 2.76976 145.947 2.76255 146.034C2.74812 146.218 2.82747 146.301 3.01502 146.29C3.14486 146.282 3.27471 146.29 3.40455 146.29C20.8358 146.29 38.2707 146.29 55.702 146.279C56.088 146.279 56.2971 146.398 56.4847 146.722C56.968 147.541 57.5018 148.327 57.9887 149.146C60.4773 153.319 63.5431 156.994 67.3373 160.046C74.6698 165.939 83.041 169.012 92.4581 169.03C112.659 169.07 132.861 169.041 153.062 169.044C155.432 169.044 157.78 168.853 160.109 168.439C167.918 167.043 174.731 163.631 180.534 158.239C184.256 154.776 187.196 150.726 189.378 146.131C191.96 140.699 193.237 134.965 193.244 128.963C193.266 109.645 193.255 90.3278 193.244 71.0102C193.244 70.6603 193.345 70.4728 193.659 70.3141C194.712 69.7839 195.744 69.2068 196.801 68.673C197.129 68.5071 197.241 68.3196 197.241 67.9481C197.226 62.4983 197.233 57.0485 197.23 51.5988C197.23 50.9568 197.306 51.0289 196.646 51.0289C179.936 51.0289 163.222 51.0253 146.512 51.0361C146.187 51.0361 146.007 50.9712 145.87 50.6394C143.252 44.2735 139.046 39.2241 133.203 35.5849C128.15 32.4363 122.625 30.8024 116.663 30.7988C97.9872 30.7736 79.3153 30.7844 60.6432 30.7844Z" fill="#A89968"/>
<path d="M60.6435 30.7845C79.3155 30.7845 97.9875 30.7737 116.659 30.7917C122.621 30.7989 128.147 32.4292 133.2 35.5778C139.043 39.2206 143.248 44.27 145.867 50.6323C146.004 50.9641 146.184 51.029 146.509 51.029C163.219 51.0218 179.932 51.0218 196.642 51.0218C197.302 51.0218 197.226 50.9497 197.226 51.5917C197.23 57.0414 197.223 62.4912 197.237 67.9409C197.237 68.3124 197.125 68.5036 196.797 68.6659C195.744 69.1961 194.713 69.7768 193.656 70.307C193.338 70.4657 193.237 70.6532 193.241 71.0031C193.248 90.3207 193.263 109.638 193.241 128.956C193.234 134.957 191.957 140.689 189.375 146.124C187.193 150.719 184.253 154.769 180.531 158.232C174.728 163.627 167.918 167.036 160.106 168.431C157.776 168.85 155.428 169.037 153.059 169.037C132.857 169.03 112.656 169.059 92.4547 169.023C83.0376 169.005 74.67 165.932 67.3339 160.039C63.5397 156.991 60.4739 153.312 57.9853 149.139C57.4984 148.324 56.961 147.538 56.4813 146.715C56.2901 146.391 56.0809 146.272 55.6986 146.272C38.2673 146.283 20.8325 146.283 3.40116 146.283C3.27132 146.283 3.14147 146.275 3.01163 146.283C2.82768 146.293 2.74833 146.21 2.75915 146.027C2.76637 145.94 2.75915 145.853 2.75915 145.767C2.75915 140.288 2.76277 134.81 2.75195 129.331C2.75195 128.992 2.85655 128.822 3.1559 128.671C4.74286 127.852 6.31538 127.005 7.90234 126.186C8.2017 126.031 8.29548 125.858 8.29548 125.522C8.28827 100.87 8.28827 76.2184 8.29548 51.5664C8.29548 51.2238 8.20531 51.0326 7.88792 50.8667C6.27572 50.0372 4.67794 49.1788 3.06574 48.3384C2.84933 48.2266 2.75556 48.0968 2.75556 47.8407C2.76278 42.2755 2.76638 36.7103 2.75195 31.1488C2.75195 30.7773 2.92146 30.7701 3.19557 30.7737C6.08095 30.7809 8.96272 30.7773 11.8481 30.7773C28.1144 30.7845 44.3771 30.7845 60.6435 30.7845ZM63.6262 36.9231C45.5601 36.9231 27.4905 36.9231 9.42439 36.9159C9.02404 36.9159 8.89059 36.9917 8.8978 37.4245C8.92305 39.6282 8.91584 41.8355 8.90141 44.0428C8.8978 44.353 8.97716 44.5297 9.26569 44.6776C10.8527 45.4927 12.418 46.3439 14.0049 47.159C14.3295 47.3249 14.4413 47.5089 14.4413 47.8804C14.4305 61.7771 14.4305 75.6738 14.4305 89.5741C14.4305 102.778 14.4269 115.986 14.4413 129.19C14.4413 129.565 14.3187 129.746 14.0013 129.908C12.418 130.727 10.849 131.574 9.26208 132.393C8.99519 132.53 8.8978 132.685 8.90141 132.988C8.91584 135.167 8.90863 137.342 8.90863 139.52C8.90863 140.144 8.90863 140.148 9.51456 140.148C45.1742 140.148 80.8339 140.148 116.49 140.148C120.504 140.148 124.356 139.329 127.887 137.432C137.005 132.545 141.928 124.895 142.018 114.525C142.166 97.1554 142.058 79.7818 142.058 62.4118C142.058 60.7924 141.899 59.191 141.589 57.6041C139.227 45.5901 128.688 36.9267 116.443 36.9267C98.8386 36.9231 81.2306 36.9231 63.6262 36.9231ZM63.5433 146.286C63.5469 146.362 63.5397 146.394 63.5505 146.416C63.6046 146.517 63.6587 146.618 63.72 146.715C65.6063 149.767 67.893 152.475 70.6413 154.787C77.018 160.154 84.3793 162.877 92.7108 162.888C112.854 162.91 132.998 162.895 153.141 162.895C155.919 162.895 158.663 162.585 161.35 161.9C168.207 160.154 174.014 156.656 178.659 151.318C184.235 144.916 187.052 137.443 187.055 128.938C187.063 112.199 187.059 95.4639 187.059 78.7251C187.059 74.92 187.063 71.1113 187.052 67.3062C187.052 66.9707 187.153 66.794 187.452 66.6425C188.531 66.0979 189.591 65.5136 190.666 64.9582C190.962 64.8067 191.099 64.6264 191.095 64.2657C191.073 62.0584 191.073 59.8547 191.095 57.6474C191.099 57.2687 191.008 57.1677 190.623 57.1677C178.381 57.1785 166.14 57.1785 153.895 57.1749C153.545 57.1749 153.206 57.229 152.875 57.3264C151.158 57.8349 150.101 59.3137 150.101 61.2108C150.101 79.8215 150.101 98.4358 150.101 117.046C150.101 118.752 149.946 120.444 149.625 122.114C148.298 128.963 145.023 134.705 139.703 139.224C134.228 143.873 127.862 146.265 120.667 146.275C101.793 146.301 82.915 146.283 64.041 146.283C63.8859 146.286 63.7272 146.286 63.5433 146.286Z" fill="#FEFEFD"/>
<path d="M63.6259 36.9229C81.2304 36.9229 98.8384 36.9229 116.443 36.9229C128.684 36.9229 139.226 45.5863 141.589 57.6003C141.899 59.1872 142.058 60.7886 142.058 62.408C142.058 79.7816 142.162 97.1516 142.018 114.522C141.932 124.891 137.008 132.541 127.887 137.428C124.352 139.321 120.504 140.144 116.49 140.144C80.83 140.144 45.1704 140.144 9.51429 140.144C8.90836 140.144 8.90836 140.144 8.90836 139.516C8.90836 137.338 8.91557 135.163 8.90114 132.984C8.89754 132.681 8.99492 132.526 9.26182 132.389C10.8452 131.571 12.4141 130.719 14.0011 129.904C14.3221 129.738 14.4411 129.558 14.4411 129.187C14.4302 115.982 14.4303 102.774 14.4303 89.5703C14.4303 75.6736 14.4266 61.7769 14.4411 47.8766C14.4411 47.5051 14.3293 47.3211 14.0047 47.1552C12.4177 46.3401 10.8488 45.4889 9.26543 44.6738C8.97689 44.5259 8.89754 44.3492 8.90114 44.039C8.91557 41.8317 8.92278 39.628 8.89753 37.4207C8.89393 36.9879 9.02378 36.9121 9.42412 36.9121C27.4902 36.9265 45.5599 36.9229 63.6259 36.9229ZM49.3974 88.0627C49.3974 100.358 49.3974 112.653 49.3974 124.949C49.3974 125.58 49.3181 125.497 49.9493 125.497C65.2309 125.497 80.5126 125.5 95.7979 125.493C96.1983 125.493 96.6058 125.461 97.0026 125.396C101.579 124.635 104.771 120.859 104.771 116.206C104.771 97.4654 104.771 78.7285 104.771 59.9879C104.771 59.3243 104.71 58.6679 104.587 58.015C103.794 53.8854 99.9492 50.7042 95.751 50.7042C80.4693 50.7042 65.1877 50.7078 49.9024 50.6934C49.4768 50.6934 49.3902 50.8052 49.3902 51.2164C49.401 63.5009 49.3974 75.7818 49.3974 88.0627Z" fill="#B90C2F"/>
<path d="M63.543 146.286C63.7269 146.286 63.8856 146.286 64.0443 146.286C82.9183 146.286 101.796 146.304 120.67 146.279C127.865 146.268 134.228 143.877 139.706 139.228C145.026 134.708 148.305 128.967 149.628 122.117C149.953 120.447 150.104 118.756 150.104 117.05C150.101 98.4393 150.101 79.825 150.104 61.2143C150.104 59.3207 151.161 57.842 152.878 57.3298C153.21 57.2325 153.549 57.1784 153.899 57.1784C166.14 57.182 178.381 57.182 190.626 57.1711C191.012 57.1711 191.102 57.2721 191.098 57.6508C191.08 59.8581 191.08 62.0619 191.098 64.2692C191.102 64.6334 190.969 64.8102 190.669 64.9617C189.594 65.5171 188.534 66.1014 187.456 66.646C187.153 66.7975 187.052 66.9706 187.055 67.3096C187.07 71.1147 187.062 74.9198 187.062 78.7285C187.062 95.4673 187.066 112.203 187.059 128.941C187.055 137.446 184.238 144.919 178.662 151.321C174.017 156.659 168.206 160.158 161.354 161.903C158.663 162.588 155.922 162.899 153.145 162.899C133.001 162.899 112.858 162.913 92.7141 162.891C84.3826 162.884 77.0177 160.157 70.6446 154.791C67.8999 152.479 65.6096 149.77 63.7233 146.719C63.662 146.621 63.6079 146.52 63.5538 146.419C63.5394 146.394 63.5466 146.362 63.543 146.286Z" fill="#A89968"/>
<path d="M49.3975 88.0627C49.3975 75.7818 49.4011 63.5009 49.3867 51.22C49.3867 50.8088 49.4733 50.697 49.8989 50.697C65.1806 50.7078 80.4622 50.7078 95.7475 50.7078C99.9458 50.7078 103.791 53.889 104.584 58.0187C104.71 58.6715 104.768 59.3279 104.768 59.9916C104.768 78.7321 104.768 97.469 104.768 116.21C104.768 120.862 101.58 124.638 96.9991 125.399C96.6023 125.464 96.1948 125.497 95.7944 125.497C80.5127 125.5 65.231 125.5 49.9458 125.5C49.3146 125.5 49.3939 125.583 49.3939 124.952C49.3975 112.653 49.3975 100.358 49.3975 88.0627ZM95.6826 88.1492C95.6826 79.2406 95.6826 70.332 95.6826 61.4234C95.6826 61.1926 95.679 60.9618 95.6718 60.7309C95.5961 58.8626 93.8901 57.1855 92.0218 57.1855C79.7229 57.1783 67.4239 57.1855 55.125 57.1747C54.7788 57.1747 54.7319 57.2973 54.7319 57.6003C54.7427 59.8653 54.7427 62.1267 54.7319 64.3917C54.7319 64.6586 54.8112 64.7993 55.0529 64.9255C56.1061 65.4629 57.134 66.0472 58.1943 66.5666C58.6055 66.7686 58.7281 67.0102 58.7281 67.4575C58.7173 84.4812 58.7173 101.509 58.7101 118.532C58.7101 118.897 58.757 119.048 59.1898 119.048C70.0893 119.034 80.9924 119.037 91.8919 119.037C92.3897 119.037 92.8694 118.954 93.3202 118.749C94.9685 117.991 95.6934 116.678 95.6898 114.882C95.6754 105.966 95.6826 97.0578 95.6826 88.1492Z" fill="#FEFEFD"/>
<path d="M95.6829 88.1495C95.6829 97.0581 95.6756 105.967 95.6865 114.875C95.6901 116.671 94.9615 117.981 93.3168 118.742C92.8696 118.947 92.3863 119.03 91.8886 119.03C80.9891 119.027 70.0859 119.027 59.1864 119.041C58.7572 119.041 58.7067 118.89 58.7067 118.525C58.714 101.502 58.7103 84.4742 58.7248 67.4505C58.7248 67.0033 58.6021 66.7616 58.191 66.5596C57.1306 66.0403 56.1027 65.456 55.0495 64.9186C54.8079 64.796 54.7285 64.6517 54.7285 64.3848C54.7393 62.1198 54.7393 59.8583 54.7285 57.5933C54.7285 57.294 54.7754 57.1677 55.1217 57.1677C67.4206 57.1785 79.7195 57.1713 92.0184 57.1785C93.8831 57.1785 95.5891 58.8557 95.6684 60.724C95.6793 60.9548 95.6792 61.1856 95.6792 61.4164C95.6828 70.3287 95.6829 79.2373 95.6829 88.1495Z" fill="#A89968"/>
</svg>
