<?xml version="1.0" encoding="UTF-8"?>
<svg width="200px" height="200px" viewBox="0 0 200 200" version="1.1" xmlns="http://www.w3.org/2000/svg" xmlns:xlink="http://www.w3.org/1999/xlink">
    <!-- Generator: Sketch 54.1 (76490) - https://sketchapp.com -->
    <title>detroit</title>
    <desc>Created with Sketch.</desc>
    <g id="detroit" stroke="none" stroke-width="1" fill="none" fill-rule="evenodd">
        <g id="detroit_BGL" transform="translate(0.000000, 0.000000)">
            <g id="detroit" transform="translate(0.000000, 25.000000)">
                <g id="g10" transform="translate(99.999998, 75.281048) scale(-1, 1) rotate(-180.000000) translate(-99.999998, -75.281048) translate(0.000000, 0.444448)" fill-rule="nonzero">
                    <g id="g12">
                        <path d="M199.65359,95.726795 C199.65359,97.0058799 199.035289,98.2058799 197.998034,98.9522851 C193.034636,102.514377 185.024832,104.728102 177.092806,104.728102 C176.539865,104.728102 175.988884,104.717644 175.439865,104.694769 L162.128754,104.693461 C160.58431,122.294768 153.019604,136.903265 139.813722,144.271892 C139.556206,144.416336 139.299997,144.546402 139.039212,144.682349 L136.718297,142.714376 L135.341827,146.385617 C114.953592,154.47516 88.728756,144.267317 68.711763,121.851631 L68.7705865,124.671239 L65.114116,130.427448 L48.952221,125.341827 L45.7707832,120.820912 C41.4315022,123.94967 36.3089533,127.586925 34.1324828,128.921565 C31.318692,130.643134 28.3307836,132.077121 25.9522869,133.113069 C25.7804569,133.386925 25.5869275,133.64967 25.3689536,133.894768 C17.5696728,142.677121 16.6653591,144.086271 13.4852284,144.028101 C9.5430063,143.955552 6.16549004,141.605225 3.80515023,138.195421 C1.45118297,134.790193 0.662019591,131.004572 1.58190192,127.539212 C2.40911105,124.411762 4.38113061,123.645749 15.3147709,119.392807 C15.5491499,119.303919 15.7868624,119.226794 16.0281042,119.167971 C17.8260126,117.256206 20.2180387,114.888232 22.8028099,112.81503 C24.772287,111.233984 29.8432672,107.697383 34.2243782,104.686925 L3.97084304,104.686925 C1.77696074,104.686925 0,102.910455 0,100.716991 L0,72.6692792 C0,71.5464034 0.47692025,70.4725473 1.31254899,69.7196061 C2.04529407,69.0614362 2.99249666,68.6999983 3.97084304,68.6999983 C4.10666656,68.6999983 4.24275153,68.7058806 4.38113061,68.7202597 L9.79777753,69.2856192 C9.47686251,68.7071878 9.30045728,68.0490179 9.30045728,67.3614362 L9.30045728,51.6209791 C9.30045728,49.4281033 11.0773853,47.6509138 13.270784,47.6509138 L37.5858161,47.6509138 C38.7206526,47.6509138 39.7352278,48.1372537 40.4585611,48.9006524 C40.6643127,42.0084957 41.7450316,35.4973194 43.6922865,29.6086267 L46.9875805,28.4561431 L44.9486917,25.7817641 C48.7252275,16.9569277 55.0332012,9.33718931 63.0320899,4.87132668 C74.9869262,-1.80121564 89.4901938,-1.38556859 103.729409,4.69490184 L104.192154,7.93196059 L106.239213,5.81954887 C107.804572,6.56405212 109.36405,7.37516321 110.916337,8.25241809 L111.229409,12.3626141 L115.588232,11.1077775 C122.609147,15.7314375 129.365356,21.7072544 135.496729,28.8444437 L143.182349,23.4288229 C167.801303,6.53339199 187.620257,8.45947691 187.620257,8.45947691 C187.620257,8.45947691 183.578427,26.9058817 158.529408,45.2354237 L156.019604,47.0039204 C161.798035,47.9868615 166.516989,48.0228746 170.810453,48.05477 C176.884963,48.0999988 182.620257,48.1431361 188.977119,50.9679072 C189.054244,51.0038549 189.130061,51.0406523 189.20457,51.0797373 C196.09542,54.6836588 199.600649,60.7856194 199.624832,69.2130702 C199.692152,71.2509786 199.647054,73.6738544 199.030714,76.1490177 C199.424178,76.764704 199.65359,77.4960765 199.65359,78.2830046 L199.65359,95.726795" id="path14" fill="#E8E5DE"></path>
                        <path d="M195.681694,95.726795 C190.974505,99.1052263 182.992806,101.035292 175.5098,100.725488 L158.192807,100.725488 C157.664702,118.160128 151.011107,132.754899 138.506532,140.007186 C138.27516,140.143134 138.040519,140.267317 137.803265,140.395421 L135.609147,138.55882 L134.434637,142.007186 C112.650324,150.977774 82.8581679,136.486925 63.1058808,107.60784 L58.1865345,111.073853 L64.6252271,116.297383 L64.7760768,123.554899 L63.3986912,125.725487 L51.425685,121.958167 L46.7095413,115.255553 C44.2271884,117.071892 35.48562,123.433984 32.0590842,125.534637 C28.7635287,127.552284 25.1475811,129.167971 22.8704569,130.103918 C22.8349667,130.536598 22.6915027,130.927448 22.3996726,131.255552 C15.5236597,138.999997 14.3898036,140.148363 13.3762088,140.052284 C11.4179736,139.867317 9.06176448,138.813722 7.07130701,135.937252 C5.08093451,133.05882 4.91447047,130.463395 5.4204966,128.553592 C5.68423515,127.564049 6.72464035,126.994768 16.7636597,123.090847 C17.1287577,122.948363 17.5015028,122.938559 17.8727447,123.02418 C19.5248361,121.19869 22.269738,118.33333 25.2882347,115.911762 C28.4229405,113.395422 37.3618945,107.316337 39.9093454,105.590847 L36.480522,100.716991 L3.97084304,100.716991 L3.97084304,72.667972 L14.5749016,73.7705864 L14.5749016,67.9718937 L13.2710454,67.3614362 L13.2710454,51.6222209 L37.5850317,51.6222209 L37.5850317,54.9849659 L44.4377767,54.9777764 C44.0456198,47.0143779 44.8481035,39.5047049 46.8346394,32.8372541 L50.2182994,31.57196 L48.2367962,28.7640516 C51.498953,20.4730714 56.7907175,13.7758166 64.0615017,9.5575161 C75.0444426,3.18499992 88.6169912,3.59349664 102.056207,9.41307166 L102.191501,13.2046402 L104.396076,10.4817644 C105.720912,11.1169932 107.043135,11.8012415 108.360782,12.5411108 L108.439867,16.9046401 L112.745095,15.2014375 C120.467971,20.2437903 127.897382,27.0253588 134.502611,35.2575808 L145.46797,26.6779078 C156.113068,19.1863394 170.176466,13.0392154 181.684309,12.6399343 C177.422871,23.337189 166.887578,34.4988227 156.243133,41.9888878 L146.503918,48.8503256 C147.14248,49.0430707 147.794114,49.2312406 148.466663,49.4117635 C167.305878,54.4523516 176.159473,49.6162733 187.365355,54.5953581 C192.348361,57.2045737 195.654897,61.6326782 195.654897,69.3013055 C195.758819,72.3797368 195.518949,75.5562073 193.9464,78.2830046 L195.681694,78.2830046 L195.681694,95.726795" id="path16" fill="#19336E"></path>
                        <path d="M69.3202597,54.94843 L67.2967303,52.2766 L67.5176454,52.5301294 L59.2762077,40.9648356 C60.1047044,39.5463389 61.0434625,38.2352932 62.0874494,37.0424827 L65.790848,40.7260774 L63.7872533,35.3084305 C65.0362729,34.1587573 66.4039199,33.1502606 67.908495,32.3182345 C80.8732006,25.1562739 99.3032655,32.5196724 113.741827,49.0300641 L105.402612,54.9052927 L69.3202597,54.94843 Z M54.9233973,54.9652927 C55.3546391,51.149149 56.2201293,47.6092799 57.5321554,44.4615675 L69.3071878,54.94843 L54.9233973,54.9652927 Z M134.437905,103.311109 C133.943134,113.009801 130.784964,121.196729 125.018951,126.281696 L119.679082,120.526141 L124.136598,127.038559 C123.21699,127.765356 122.241827,128.417644 121.202611,128.992154 C106.153592,137.305225 83.7398672,126.050977 68.7588218,103.624834 L69.2039198,103.311109 L134.437905,103.311109 L134.437905,103.311109 Z" id="path18" fill="#E8E5DE"></path>
                        <path d="M69.2581682,103.311109 L93.578429,103.311109 C93.5522852,105.144442 93.0045728,106.768625 91.933331,107.850324 C90.1470566,109.658167 87.0999978,109.772546 83.9823508,108.467971 C96.1601283,120.249017 110.64052,126.270585 120.580389,123.545095 L122.243788,125.954899 C121.469278,126.528101 120.658821,127.054899 119.803919,127.519605 C105.068625,135.557513 83.4398672,124.808494 69.2581682,103.311109 M64.4656193,47.0626786 L67.5660114,52.5653582 L59.2080377,40.8739205 L60.1664691,39.4377768 L61.8869919,42.4920904 C62.5375148,41.5438552 63.2337893,40.6469271 63.994835,39.8164042 L66.6751617,42.9261427 C65.7928088,44.2877113 65.0952271,45.5220904 64.4656193,47.0626786 M67.2816977,42.0445088 L65.624835,38.2097376 C66.8281029,37.1333978 68.1418284,36.1877115 69.5784296,35.4033978 C74.0450962,32.965424 79.1503248,32.2594763 84.4862724,33.0530057 C80.4803901,33.1640515 76.71307,34.1960122 73.3895406,36.2568618 C70.9653577,37.7606527 68.9398676,39.7255546 67.2816977,42.0445088 M124.772546,123.750324 L123.592154,122.471892 C124.44967,122.088232 125.296075,121.658167 126.103918,121.155553 C126.706533,120.779082 127.280389,120.36601 127.843134,119.935945 C126.934637,121.330716 125.910454,122.602611 124.772546,123.750324 M63.3539853,50.4177112 C62.9409135,51.8660771 62.6335278,53.388234 62.4016978,54.9555542 L57.0388875,54.9622208 C57.5426129,52.1933974 58.2988874,49.5960772 59.3173188,47.2255544 L63.3539853,50.4177112" id="path20" fill="#FFFFFF"></path>
                        <path d="M125.16601,128.012415 L132.994114,137.629408 C113.248363,147.505879 84.8862724,133.477774 66.1379068,105.471893 L68.7594754,103.624834 C79.8267954,120.193461 94.9470564,130.652938 108.163396,131.637905 C113.701958,132.324833 118.981043,131.512415 123.609801,128.954245 C124.143788,128.660128 124.662088,128.345095 125.16601,128.012415" id="path22" fill="#AD0C3C"></path>
                        <path d="M146.243134,124.56601 C146.053591,124.918951 140.689539,122.294115 140.689539,122.294115 L144.898689,126.826794 C142.488232,130.559474 139.453591,133.688232 135.818297,136.046402 L126.15686,127.301304 C132.92614,122.2915 136.781042,113.68235 137.622219,103.311109 L151.814375,103.311109 C151.373199,111.339213 149.509147,118.605226 146.243134,124.56601" id="path24" fill="#AD0C3C"></path>
                        <path d="M118.973853,34.8927442 L120.352938,39.4888879 C119.37516,38.739803 107.008494,30.0313718 100.462743,25.427385 L102.409148,16.3745748 C103.983658,17.1770584 105.559474,18.0667969 107.120259,19.0351629 C107.28954,19.1406531 105.842481,26.1430059 105.842481,26.1430059 L109.637906,20.6522871 C116.61503,25.3732673 123.35882,31.6599992 129.388232,39.2580382 L126.939866,41.1739205 C125.305879,39.9086265 120.31699,36.0307181 118.973853,34.8927442" id="path26" fill="#AD0C3C"></path>
                        <path d="M54.1255542,54.9652927 L48.6721556,54.9718941 C48.4119596,48.42294 49.0198681,42.2444434 50.4879072,36.6980383 L56.7759463,42.2661427 C55.3104561,46.0620904 54.4232666,50.3451621 54.1255542,54.9652927" id="path28" fill="#AD0C3C"></path>
                        <path d="M68.2019591,28.4640516 C64.3111749,30.6137901 61.2167959,33.807973 58.9164691,37.7739206 L53.7339202,28.0535287 C56.7032012,22.2058818 60.9469266,17.5163394 66.4542467,14.48098 C75.9915014,9.21111088 87.6875795,9.77509779 99.3601282,14.9405225 L99.6111086,24.8286922 C97.699344,23.4842478 96.4555531,22.6092805 96.4555531,22.6092805 C96.4555531,22.6092805 97.7130695,24.582287 99.6797361,27.5653588 L99.6980367,28.2850973 L99.6980367,28.9798032 L99.9241805,27.9340516 C101.209801,29.881045 102.776468,32.2267966 104.48235,34.716339 C92.0045729,25.6477118 78.4986908,22.7769929 68.2019591,28.4640516" id="path30" fill="#AD0C3C"></path>
                        <path d="M130.839866,138.386925 C111.488886,146.014375 84.159475,132.585618 65.2305212,106.109801 L66.7758153,105.021566 C85.1169913,130.943134 111.516337,144.525487 130.839866,138.386925 L130.839866,138.386925 Z M112.316337,33.7778423 L114.69869,30.7646398 C112.554246,28.8477771 110.393461,27.1190843 108.237252,25.5777771 L105.985618,29.3145091 C105.464703,28.9483653 104.950978,28.586862 104.44771,28.2314372 L107.550324,23.6981693 L109.800651,20.3896073 L112.609148,19.4771237 L111.583657,21.6273197 L108.921566,23.8196726 C111.481697,25.6234634 114.04052,27.6705222 116.572546,29.9790842 L117.205879,30.5588881 L113.820912,34.8404566 C113.332023,34.4947704 112.832677,34.1406527 112.316337,33.7778423 L112.316337,33.7778423 Z M126.728755,130.090193 L127.001958,130.265356 L130.755552,134.878428 L126.631369,132.215683 C125.36601,132.850323 124.028755,133.377121 122.623526,133.788232 L127.04052,137.247709 L125.114376,137.655552 C122.712415,138.165356 120.159474,138.369931 117.4732,138.24967 L117.132677,138.235291 L113.417644,134.775814 C112.038559,134.690846 110.62418,134.509801 109.176468,134.228755 L112.351631,137.774506 L109.352285,136.958167 C106.633331,136.217644 103.841174,135.168624 100.994769,133.798689 L100.792154,133.70065 L98.4241805,130.530716 C96.871893,129.763395 95.3078408,128.889539 93.7326774,127.911762 L92.6568604,128.918951 C89.946403,127.04248 87.2405207,124.883003 84.5640502,122.439866 L84.4222201,122.311108 L83.517645,120.286272 C88.9843115,124.862742 94.7294094,128.192154 100.350324,130.041827 L101.995422,132.238559 C103.576468,132.9915 105.135945,133.64052 106.669278,134.186925 L103.816337,131.003265 C103.978429,131.039212 104.137252,131.062088 104.298037,131.095422 L106.785618,131.780389 C109.246402,132.458167 111.608494,132.844441 113.849017,132.958167 L114.183004,132.97516 L117.890847,136.42614 C119.567317,136.484964 121.181696,136.406533 122.726794,136.203265 L118.46601,132.862742 L120.390847,132.455552 C122.50784,132.007186 124.461435,131.296729 126.250324,130.343134 L126.728755,130.090193 Z M142.822872,124.589539 C142.782349,124.652938 142.746402,124.71503 142.708493,124.777775 L142.304572,125.445748 L136.485618,123.109147 C135.57516,124.532023 134.556859,125.854899 133.428101,127.067317 L138.874506,129.917644 L137.959474,130.801304 C136.953591,131.773199 135.858167,132.639866 134.711761,133.441173 L136.188885,134.599343 L139.703918,133.057513 L135.803918,136.197382 L126.14967,127.345748 L126.538559,127.030716 L133.209147,132.260781 C134.089539,131.672546 134.937905,131.043788 135.734637,130.349016 L130.355552,127.536598 L131.263395,126.651631 C132.811108,125.143134 134.165356,123.41503 135.322872,121.494115 L135.726794,120.823526 L141.463395,123.126794 L142.822872,124.589539 Z M148.176467,108.609801 L148.044441,109.542481 L141.720911,108.483657 C141.384964,110.605226 140.91699,112.661435 140.311761,114.638559 L146.462088,116.400651 L146.152284,117.314376 C145.471892,119.313723 144.64967,121.214376 143.695421,123.014376 C145.032023,123.277775 146.404572,123.541173 146.797382,123.592807 C146.697382,123.803918 146.50065,124.237252 146.40065,124.445749 C146.366663,124.515683 145.82614,124.780389 145.82614,124.780389 L140.771238,122.430062 C140.771238,122.430062 141.193461,122.515683 141.809147,122.637905 C142.677774,121.060781 143.445094,119.394115 144.089539,117.63333 L137.974506,115.881043 L138.276467,114.971239 C139.082349,112.549017 139.665356,109.980389 140.039866,107.295422 L140.170585,106.358821 L146.481696,107.417644 C146.64967,106.068625 146.767317,104.697383 146.841173,103.311109 L148.679735,103.311109 C148.584964,105.102612 148.422872,106.8732 148.176467,108.609801 L148.176467,108.609801 Z M101.177775,25.9300647 C100.916991,25.745751 100.664703,25.5698686 100.419605,25.3967314 L102.353592,16.3465355 L104.650978,14.3660781 L104.630063,17.7267316 L101.177775,25.9300647 Z M123.550324,37.0940514 L124.186271,37.8339206 C125.095422,38.8942474 125.989539,39.99745 126.873853,41.1228748 C126.016337,40.4582996 124.345749,39.1615676 122.726794,37.8901298 L123.550324,37.0940514 Z M49.3974497,54.9706522 L47.4769923,54.9744431 C47.1397374,48.373136 47.6667308,41.9620905 49.077319,35.7718292 L50.5678419,36.9973193 C49.4230053,42.8707179 49.0405216,48.8569922 49.3974497,54.9706522 L49.3974497,54.9706522 Z M99.8888864,27.882483 C99.983004,28.0254241 100.075814,28.1673849 100.175814,28.3149666 L99.4045727,30.1445091 L99.8888864,27.882483 Z M69.8705865,105.29869 L69.8751617,105.253592 C72.2254884,108.603919 74.7365994,111.694768 77.3653575,114.481043 L76.8019589,114.941827 C74.41307,112.158821 72.2562073,108.796076 70.0588218,105.574507 L69.8705865,105.29869 Z M54.736796,43.6353584 L54.8876457,44.062744 C55.0934627,43.0986917 55.3408483,42.1581689 55.6056195,41.2293454 L56.1986914,41.7537244 L56.7759463,42.2661427 C55.0909137,46.7366001 54.4156196,50.9443778 54.1250313,54.9652927 L52.9894104,54.9665346 L52.3703255,53.6601294 L52.3679725,53.4581686 C52.3235935,50.1687569 52.5160771,46.9411099 52.9595412,43.8125479 L54.736796,43.6353584 Z M95.9032656,25.7268621 L96.9548995,23.3894765 C97.4954224,24.2274504 98.44771,25.6959471 99.6803897,27.5653588 L99.6843112,27.7132019 C98.6823505,27.1405222 97.6901936,26.5992804 96.702612,26.1149667 L95.9032656,25.7268621 Z M97.1019584,23.0634635 L98.5274485,19.8968622 C96.3555531,18.8947708 94.226795,18.090261 92.1496709,17.4765355 L90.1973834,23.5449667 L89.3483638,23.3098687 C86.8862723,22.6327445 84.5287561,22.2477772 82.2836581,22.13464 L81.2098019,22.0810452 L82.4954228,15.9778427 C80.5960764,15.9581695 78.7810438,16.1136597 77.0542464,16.4320257 L76.392155,22.5020256 L75.7418282,22.6378426 C73.626142,23.0843785 71.674508,23.7975157 69.881044,24.7482347 L68.5065342,25.4777118 L68.6019591,19.7058819 C67.2267957,20.5588884 65.9477108,21.5443785 64.7661422,22.6457511 L65.1756846,28.1431366 L64.8679722,28.4418294 C63.321567,29.9522868 60.5701292,32.6360776 59.4107175,34.5575155 L58.731894,30.8894764 C58.1778417,31.9914371 57.6789528,33.1398031 57.2281031,34.3216331 L58.2710443,36.1935939 L59.5529397,36.7215677 C59.3201292,37.08562 59.0982338,37.4568618 58.8799332,37.8339206 L57.541894,37.38562 L52.6447699,30.37196 L52.6585608,30.3549012 C52.5911752,30.2828751 52.5628091,30.20196 52.6018941,30.111045 C55.5397372,23.3810452 60.0441815,18.0065355 66.0954232,14.6726794 C68.2071878,13.5033984 70.4379067,12.6419605 72.7418282,12.0437905 C71.1065342,12.5901304 69.5176453,13.2671892 67.9869264,14.1125487 C61.737907,17.5549015 57.643724,22.8750321 54.7599986,29.8894764 L56.0786914,32.2569273 C56.7652273,30.6451626 57.5431358,29.1026137 58.4277763,27.6432019 L59.7245083,25.503202 L60.555554,30.6528097 C61.3850311,29.5005875 62.2918939,28.4234633 63.279737,27.4295418 L62.8691488,21.9201955 L63.1778416,21.6201955 C64.944116,19.9149668 66.9241813,18.4581695 69.1156845,17.2901303 L70.4941159,16.5535944 L70.3947695,22.453006 C71.7562074,21.8392805 73.1960766,21.3477772 74.7084949,20.986274 L75.3699328,14.9027447 L76.0222203,14.7645748 C78.424181,14.256797 80.9771222,14.0515029 83.6640502,14.1725487 L84.7464031,14.2210454 L83.4477103,20.3712413 C85.2392136,20.5241825 87.0862723,20.8386923 88.9830043,21.3150975 L90.9392134,15.2341173 L91.7869258,15.4633983 C94.2843114,16.1430061 96.841174,17.0876466 99.4450956,18.2998688 L99.4522851,18.6111106 L99.5405204,22.1137249 L98.6300629,24.1378425 C97.9908472,23.6902608 97.4732002,23.3241171 97.1019584,23.0634635 L97.1019584,23.0634635 Z" id="path32" fill="#FFFFFF"></path>
                        <path d="M152.149669,40.3293454 L142.143787,47.3797374 C136.294114,45.1835936 132.781696,42.9508486 132.781696,42.9508486 L130.763395,43.9018943 C130.763395,43.9018943 130.416337,43.6445741 129.854245,43.2215022 L146.119604,31.7621561 C156.262088,24.6249667 165.57712,20.1687577 175.115028,17.7639865 C169.630715,25.9313719 162.292153,33.1947051 152.149669,40.3293454 L152.149669,40.3293454 Z M51.4718941,103.311109 L62.7583644,103.311109 L55.2132012,108.628755 L51.4718941,103.311109 Z M117.392154,52.0005869 C118.438559,53.1862732 119.39869,54.17843 120.22418,54.8881686 L113.284311,54.8968614 L117.392154,52.0005869 L117.392154,52.0005869 Z" id="path34" fill="#FFFFFF"></path>
                        <path d="M117.374507,51.9824824 C118.428102,53.1758157 119.394115,54.1745738 120.224834,54.8889529 L113.237252,54.8960771 L117.374507,51.9824824 Z M167.42614,23.1262739 L136.461434,44.9399989 C134.106533,43.7895414 132.781042,42.9503911 132.781042,42.9503911 L132.913722,45.4620904 C132.913722,45.4620904 130.409801,43.6386917 129.832023,43.2051623 L143.714375,33.4242475 C150.832676,28.4130058 160.139212,23.9562739 167.430061,23.1183654 C167.430061,23.1222216 167.428754,23.1234635 167.42614,23.1262739 L167.42614,23.1262739 Z" id="path36" fill="#E8E5DE"></path>
                        <polyline id="path38" fill="#FFFFFF" points="44.4737897 100.716991 44.4737897 100.726141 46.0386263 100.726141 53.9481032 111.967317 61.0347697 117.764049 61.364639 122.10784 52.7262078 118.471239 40.2346395 100.716991 44.4737897 100.716991"></polyline>
                        <polyline id="path40" fill="#E8E5DE" points="44.4737897 100.716991 44.4737897 100.726141 46.0386263 100.726141 52.532417 109.953592 43.9220904 105.958821 40.2346395 100.716991 44.4737897 100.716991"></polyline>
                        <path d="M30.3015025,120.079082 C32.9437247,118.219605 37.7377115,114.78235 43.2623519,110.877775 L45.2118943,113.64967 C40.2693454,117.157513 34.9583651,120.6732 32.1310449,122.663396 C28.482679,125.229409 22.6728753,127.873199 21.787908,126.614376 C21.6018295,126.34967 27.3858817,122.130716 30.3015025,120.079082" id="path42" fill="#E8E5DE"></path>
                        <path d="M20.5486923,131.048363 C19.8684962,131.821565 14.8649669,137.779735 13.5547055,138.115683 C12.2459474,138.450977 10.5034638,137.480389 8.81967298,135.045748 C8.68718933,134.855552 8.56947691,134.669278 8.45816972,134.48431 C10.0058821,136.380389 11.6909147,135.855552 12.6062088,135.598689 C13.6284964,135.311761 19.0612414,130.597382 19.3734636,130.218297 C19.6872544,129.839866 21.2277772,130.27516 20.5486923,131.048363" id="path44" fill="#FFFFFF"></path>
                        <path d="M165.677774,68.2176454 L166.84444,69.3954231 L169.313068,71.8941158 C170.407185,71.550325 171.575159,71.2444427 172.800649,70.9464035 L173.266662,70.8365995 C175.267316,70.3607826 176.169277,70.1130701 176.56078,69.4437891 C172.675159,69.2529394 169.066662,68.8470571 165.677774,68.2176454 M159.791499,71.3751616 L159.791499,79.5039196 L159.788231,79.7679719 C159.787578,80.0372529 159.783656,80.4477104 159.827447,80.551632 L159.843787,80.5777758 L160.047708,80.6856189 L160.103264,80.7163379 L160.331369,80.8411744 C161.137251,76.4549 163.537251,74.2209132 166.945094,72.7568609 L165.246401,72.47124 C163.396074,72.1633969 161.577774,71.7967302 159.791499,71.3751616 M192.645093,94.126795 L191.850322,94.6686251 C187.092152,97.9182982 181.288231,97.9182982 176.173198,97.9182982 L175.741826,97.9182982 C170.739211,97.9182982 167.250323,97.0555531 164.765355,95.202612 C162.55163,93.5490173 161.372545,91.9267951 160.735944,89.9862723 L145.141173,89.9862723 L145.141173,85.0235273 L143.099343,88.9954226 L142.592153,89.9862723 L126.628755,89.9862723 L126.628755,81.1771222 L127.678428,80.6856189 C127.834637,80.6117627 127.890193,80.5607823 127.894114,80.5607823 C127.941173,80.4477104 127.937905,80.0431353 127.933984,79.7771222 L127.932677,79.5039196 L127.932677,67.9588218 L127.933984,67.6856192 C127.937905,67.418299 127.941173,67.0124166 127.904572,66.9169918 C127.901958,66.9156846 127.852938,66.8620898 127.679082,66.7810441 L127.126794,66.521567 L126.794114,66.6928088 C126.474507,66.8581683 126.320912,67.3555539 126.106533,68.1522859 C126.044441,68.3934623 125.977121,68.6281029 125.912415,68.8509787 L120.984311,88.5052265 L120.639866,89.8816971 L100.453592,89.8816971 L100.090194,88.5385599 L97.0601283,77.3803902 L97.0601283,89.9307167 L61.2821553,89.9307167 L61.2821553,89.9548997 L43.8495414,89.9548997 L43.8495414,97.6830041 L7.00620898,97.6830041 L7.00620898,76.0320242 L9.01627428,76.2418282 L17.5076466,77.1254883 L17.6105224,77.133985 L17.6105224,67.1045735 L17.6115682,66.8313709 C17.6141172,66.5640506 17.6179734,66.1594755 17.578627,66.0627434 C17.578627,66.0627434 17.5283656,66.0078415 17.3532022,65.9241814 L16.3054244,65.4352925 L16.3054244,54.6576457 L34.5503913,54.6576457 L34.5503913,65.4352925 L33.5041168,65.9241814 C33.3471233,65.9967304 33.2907181,66.0516323 33.2858162,66.0516323 C33.2403913,66.1660114 33.2439861,66.5653578 33.2452279,66.8313709 L33.2465351,67.1045735 L33.2465351,77.133985 L33.3496724,77.1254883 L44.4058812,75.9712399 L44.4058812,67.9248349 L44.4071884,67.6535931 C44.4097375,67.38758 44.4132669,66.9882336 44.3765348,66.8921552 C44.3765348,66.8921552 44.328561,66.8385604 44.1559466,66.7575147 L43.1091492,66.2673186 L43.1091492,57.476992 L61.2821553,57.476992 L61.2821553,66.2673186 L60.2343776,66.7575147 C60.0834626,66.8274493 60.028626,66.8803905 60.0234626,66.8803905 C59.976992,66.994116 59.9821554,67.3901944 59.9841815,67.6535931 L59.9854233,67.9248349 L59.9854233,72.4098021 L70.6816976,73.2614361 L70.8300636,73.2725472 L70.8300636,67.9365996 L70.8313708,67.6660114 C70.8339852,67.3986911 70.8372531,66.9928088 70.7980374,66.8960768 C70.7980374,66.8960768 70.7490178,66.8398676 70.5738544,66.7575147 L69.5261421,66.2673186 L69.5261421,57.4267306 L87.7627429,57.4267306 L87.7627429,66.2673186 L86.7156841,66.7575147 C86.5581678,66.8313709 86.5039194,66.8843121 86.4986906,66.8843121 C86.4516318,66.9980375 86.4548998,67.3999983 86.4588214,67.6660114 L86.4588214,67.9365996 L86.4588214,73.2725472 L86.607841,73.2614361 L95.0980368,72.5947694 L95.7490172,72.5444426 L94.6078408,68.3411748 C94.257514,66.9352924 93.9673179,66.8542467 93.9548996,66.8509787 L92.533331,66.5326781 L92.533331,57.4267306 L111.039867,57.4267306 L111.039867,66.4490179 L109.715684,66.8235277 C109.709801,66.8261421 109.706533,66.8274493 109.702612,66.8300637 C109.76601,67.1241813 109.873853,67.590848 110.032677,68.2562074 C110.526141,67.8078414 111.132677,67.1313709 111.848363,66.0934624 C114.05686,62.8947043 113.914376,59.3803907 113.913069,59.3438547 L113.820912,57.4267306 L127.778428,57.4267306 L127.778428,57.4811097 L128.044441,57.4811097 C122.026141,53.8398679 104.881697,31.3156201 104.881697,31.3156201 C104.881697,31.3156201 121.611762,44.5830708 125.735291,47.2007831 L125.220912,44.0359466 C125.220912,44.0359466 129.807186,48.5750968 141.296075,53.8595411 L136.701304,47.6031361 C136.701304,47.6031361 141.03333,49.422221 145.224179,51.1223517 C151.165356,53.5386261 167.953591,54.7503254 175.043133,54.7503254 C175.380388,54.7503254 175.715028,54.7503254 176.058819,54.7490182 C187.047054,54.7490182 192.618949,59.6438547 192.618949,69.3019591 L192.618949,69.4771224 L192.621564,70.0248349 C192.629407,71.6732008 192.63725,73.5359459 191.974505,75.3052269 C191.347054,77.1562072 190.17908,78.6045732 188.286923,79.8679719 C187.456204,80.4143771 186.496727,80.8941156 185.476466,81.317645 L192.645093,81.317645 L192.645093,94.126795" id="path46" fill="#FFFFFF"></path>
                        <path d="M190.824178,83.1398672 L190.824178,93.1647036 C186.466008,96.1379061 180.952283,96.096076 175.742479,96.096076 C172.146401,96.096076 168.417643,95.6522852 165.856205,93.7444421 C162.7098,91.3934618 162.037251,89.3535925 161.858819,85.2699325 L161.858819,84.4267953 C161.858819,76.2182987 165.945094,74.4901942 173.224832,72.7176452 C176.550976,71.919606 178.666009,71.6078413 178.666009,67.7039199 C171.150976,67.484312 165.096074,66.5026127 159.915029,64.9844428 L165.548362,70.6764688 C153.254898,68.6182989 141.201304,63.8804559 130.444441,54.9279725 C130.572546,55.7587568 130.707186,56.5882992 130.84052,57.4196064 C124.983657,52.7673189 119.799343,47.1203256 114.852285,41.2568617 C118.62418,44.3777767 124.22418,48.4561426 128.227448,51.115685 C128.088886,50.283136 127.949016,49.4528746 127.813069,48.6177766 C135.649016,55.2563385 142.532023,58.0026783 150.501957,59.6816325 L143.408493,52.6352928 C152.685617,55.5874496 165.188231,56.6398679 176.059473,56.568626 C187.516335,56.568626 190.797381,61.983005 190.797381,69.3013055 L190.797381,69.4790832 C190.797381,71.2529394 190.880387,73.07124 190.252936,74.7124164 C189.713067,76.3078412 188.681041,77.4156843 187.28627,78.3444425 C184.86078,79.945096 180.996074,80.9647039 178.121564,81.720913 C177.133329,81.9856189 175.425486,82.517645 174.75163,83.2294097 C174.121564,83.8496711 174.032675,84.604573 174.032675,85.3581678 C174.032675,85.986926 174.237251,86.5509782 174.584963,86.9875795 L170.227447,87.8888867 L176.454244,87.8888867 L176.437904,87.8777756 C176.476466,87.8790828 176.508492,87.8875795 176.547054,87.8875795 C178.882348,87.8875795 179.282348,85.8888867 179.282348,84.2039195 L179.282348,83.1398672 L190.824178,83.1398672 Z M140.402611,62.9730703 L140.402611,65.1315016 C138.962742,65.8039199 139.098689,66.8810441 139.098689,67.9588218 L139.098689,72.2686256 L139.189539,72.2686256 L143.420911,64.5876454 C147.992153,66.8777761 152.848362,68.6999983 157.969931,70.0483643 L157.969931,79.5052268 C157.969931,80.2098019 157.914375,80.9156843 158.276467,81.5078411 L153.971238,82.29673 L159.198689,82.29673 C159.223525,82.3104555 159.245748,82.3222202 159.271891,82.3333313 L159.271891,88.1647037 L146.962741,88.1647037 L146.962741,82.3333313 C148.399996,81.6620895 148.265356,80.5836581 148.265356,79.5052268 L148.265356,75.1281027 L148.175813,75.1281027 L141.479735,88.1647037 L128.450324,88.1647037 L128.450324,82.3333313 C129.888886,81.6620895 129.752938,80.5836581 129.752938,79.5052268 L129.752938,67.9588218 C129.752938,66.8810441 129.888886,65.8039199 128.450324,65.1315016 L128.450324,59.3007175 L134.56797,59.3007175 C136.451631,60.6175802 138.396075,61.8443775 140.402611,62.9730703 L140.402611,62.9730703 Z M44.9295414,82.2405208 C46.3620903,81.5699326 46.2275152,80.4980372 46.2275152,79.424181 L46.2275152,67.9241813 C46.2275152,66.8542467 46.3620903,65.7836585 44.9295414,65.1118284 L44.9295414,59.2965998 L59.46026,59.2965998 L59.46026,65.1118284 C58.0299985,65.7836585 58.163528,66.8542467 58.163528,67.9241813 L58.163528,79.424181 C58.163528,80.1424817 58.106077,80.8640503 58.4982338,81.4607823 L58.4860116,81.4548999 L54.196796,82.2431352 L59.46026,82.2431352 L59.46026,88.1352919 L44.9295414,88.1352919 L44.9295414,82.2405208 Z M8.82686252,78.0490177 L17.3192153,78.9352921 L17.3192153,85.9895403 C17.3192153,87.3026122 17.7236597,88.0091481 19.4306531,88.0418279 L19.4306531,67.1045735 C19.4306531,66.0287565 19.5656858,64.952286 18.1267969,64.2771879 L18.1267969,56.4772535 L32.7298031,56.4772535 L32.7298031,64.2771879 C31.2923522,64.952286 31.4258816,66.0287565 31.4258816,67.1045735 L31.4258816,87.0797364 L26.8142477,88.0457494 L31.4516986,88.0457494 L31.4516986,88.0418279 C33.1380384,88.0026122 33.5386266,87.2954227 33.5386266,85.9895403 L33.5386266,78.9352921 L42.0289532,78.0490177 L42.0289532,95.8620891 L8.82686252,95.8620891 L8.82686252,78.0490177 Z M109.177121,72.2921551 L111.356206,81.675815 L111.444442,81.675815 L113.549017,72.2921551 L109.177121,72.2921551 Z M115.730716,59.2463384 L125.95686,59.2463384 L125.95686,65.0765997 C124.654899,65.7503252 124.518951,67.2320245 124.160128,68.3437891 L119.216337,88.0614357 L101.850978,88.0614357 L96.3745074,67.9045735 C96.1496708,66.9967304 95.7019584,65.3810441 94.354246,65.0765997 L94.354246,59.2463384 L109.21503,59.2463384 L109.21503,65.0765997 C108.268625,65.3484951 107.820259,65.8862729 107.820259,66.6594755 C107.820259,66.8810441 108.362089,69.1215669 108.644442,70.2823512 C108.500651,70.4169917 108.288886,70.5888871 108.018298,70.7431355 C107.534638,71.0163381 106.76405,71.2320244 106.76405,71.2320244 C106.76405,71.2320244 108.015684,71.3522858 109.281043,70.8633969 C110.137906,70.5346388 111.494768,69.8091486 113.34771,67.1254885 C115.969278,63.3325474 115.730716,59.2463384 115.730716,59.2463384 L115.730716,59.2463384 Z M95.2411741,74.4098021 L95.2411741,88.1091481 L62.0458154,88.1091481 L62.0458154,74.4098021 L70.5385603,75.0751615 L70.5385603,80.1424817 C70.5385603,81.4562071 70.9431355,82.1647038 72.650325,82.1973836 L72.650325,67.9379068 C72.650325,66.8620898 72.7849655,65.7869265 71.3477106,65.1118284 L71.3477106,59.2463384 L85.9405207,59.2463384 L85.9405207,65.1118284 C84.5045731,65.7869265 84.6405208,66.8620898 84.6405208,67.9379068 L84.6405208,81.2352921 L80.0261418,82.1986908 L84.6647038,82.1986908 L84.6647038,82.1960764 C86.3483639,82.1555535 86.7509782,81.4496712 86.7509782,80.1424817 L86.7509782,75.0751615 L95.2411741,74.4098021 L95.2411741,74.4098021 Z" id="path48" fill="#AD0C3C"></path>
                        <path d="M93.7522852,74.5261419 L95.2405205,74.4091485 L95.2405205,88.1091481 L93.7522852,88.1091481 L93.7522852,74.5261419 Z M57.9718286,82.2431352 L59.4594756,82.2431352 L59.4594756,88.1346383 L57.9718286,88.1346383 L57.9718286,82.2431352 Z M69.0503251,80.1424817 L69.0503251,75.0745079 L62.0465998,74.5261419 L62.0465998,74.4091485 L70.5379067,75.0745079 L70.5379067,80.1424817 C70.5379067,80.924181 70.8189525,81.6058803 71.3267956,81.8287561 C71.8359459,82.0516319 72.6509786,82.1973836 72.6509786,82.1973836 C69.6091486,82.1973836 69.0503251,81.4562071 69.0503251,80.1424817 L69.0503251,80.1424817 Z M107.820912,66.6594755 C107.820912,66.8810441 108.361435,69.1215669 108.645095,70.2816976 C108.501304,70.4169917 108.288233,70.5882335 108.017644,70.7431355 C107.927448,70.7928087 107.824834,70.8418283 107.719605,70.8888871 C106.479082,71.3444427 105.274507,71.2320244 105.274507,71.2320244 C105.274507,71.2320244 106.045095,71.0156845 106.526795,70.7431355 C106.79869,70.5882335 107.011108,70.4169917 107.154246,70.2816976 C106.872546,69.1215669 106.33137,66.8810441 106.33137,66.6594755 C106.33137,65.8862729 106.779082,65.3484951 107.725488,65.0765997 L107.725488,59.2463384 L109.214376,59.2463384 L109.214376,65.0765997 C108.267971,65.3484951 107.820912,65.8862729 107.820912,66.6594755 L107.820912,66.6594755 Z M84.6398672,67.9379068 L84.6398672,81.2352921 L80.0267954,82.1986908 L78.5379065,82.1986908 L83.1522855,81.2352921 L83.1522855,67.9379068 C83.1522855,66.8620898 83.0156842,65.7869265 84.4522855,65.1118284 L84.4522855,59.2463384 L85.9411743,59.2463384 L85.9411743,65.1118284 C84.5039195,65.7869265 84.6398672,66.8620898 84.6398672,67.9379068 L84.6398672,67.9379068 Z M175.741826,96.096076 C175.681041,96.096076 175.617643,96.0934616 175.556858,96.0934616 C180.371237,96.0810433 185.337904,95.8901937 189.334636,93.1647036 L189.334636,83.1398672 L190.824832,83.1398672 L190.824832,93.1647036 C186.465355,96.1372525 180.952937,96.096076 175.741826,96.096076 L175.741826,96.096076 Z M107.687579,72.2921551 L109.177775,72.2921551 L111.410455,81.7823509 L110.721566,84.8529391 L107.687579,72.2921551 Z M187.286923,78.3444425 C184.861433,79.945096 180.996728,80.9647039 178.120911,81.720913 C177.133982,81.9856189 175.424832,82.517645 174.752283,83.2294097 C174.122218,83.8496711 174.033329,84.604573 174.033329,85.3581678 C174.033329,85.986926 174.236597,86.5503246 174.585617,86.9875795 L170.226793,87.8888867 L168.736597,87.8888867 L173.095421,86.9875795 C172.747708,86.5503246 172.542479,85.986926 172.542479,85.3581678 C172.542479,84.604573 172.632675,83.8496711 173.262087,83.2294097 C173.934636,82.517645 175.643133,81.9856189 176.632022,81.720913 C179.506531,80.9647039 183.371891,79.945096 185.79542,78.3444425 C187.190845,77.4156843 188.222871,76.3078412 188.763394,74.7124164 C189.390191,73.07124 189.307838,71.2522858 189.307838,69.4790832 L189.307838,69.3013055 C189.307838,62.0843775 186.11176,56.7269267 175.042479,56.5765345 L175.042479,56.568626 C175.382349,56.568626 175.724179,56.5699332 176.060126,56.568626 C187.515682,56.568626 190.798034,61.983005 190.798034,69.3013055 L190.798034,69.4790832 C190.798034,71.2522858 190.879734,73.07124 190.25359,74.7124164 C189.713067,76.3078412 188.681695,77.4156843 187.286923,78.3444425 L187.286923,78.3444425 Z M156.479081,79.5052268 L156.479081,69.6647041 L157.969277,70.0483643 L157.969277,79.5052268 C157.969277,80.2098019 157.913722,80.9156843 158.27712,81.5078411 L153.971892,82.29673 L152.481696,82.29673 L156.786924,81.5078411 C156.422872,80.9156843 156.479081,80.2098019 156.479081,79.5052268 L156.479081,79.5052268 Z M148.230062,72.3359459 L148.230062,75.0594752 L141.479081,88.1640501 L139.990193,88.1640501 L148.230062,72.3359459 Z M58.1640508,67.9241813 L58.1640508,79.424181 C58.1640508,80.1424817 58.1065999,80.8640503 58.4977763,81.4607823 L58.4865345,81.4548999 L54.1973189,82.2431352 L52.7093451,82.2431352 L56.9975803,81.4548999 L57.0098025,81.4607823 C56.6176456,80.8640503 56.6750966,80.1424817 56.6750966,79.424181 L56.6750966,67.9241813 C56.6750966,66.8542467 56.5418287,65.7836585 57.9718286,65.1118284 L57.9718286,59.2965998 L59.4607828,59.2965998 L59.4607828,65.1118284 C58.029541,65.7836585 58.1640508,66.8542467 58.1640508,67.9241813 L58.1640508,67.9241813 Z M159.271238,82.3333313 L159.271238,88.1640501 L157.780388,88.1640501 L157.780388,82.3333313 C157.756205,82.3222202 157.733983,82.3104555 157.7098,82.29673 L159.199342,82.29673 C159.224179,82.3104555 159.245748,82.3222202 159.271238,82.3333313 L159.271238,82.3333313 Z M140.401957,62.9730703 L140.401957,65.1315016 C138.962088,65.8039199 139.099343,66.8810441 139.099343,67.9588218 L139.099343,72.3287564 L137.609147,74.8790831 L137.609147,67.9588218 C137.609147,66.8810441 137.471892,65.8039199 138.911761,65.1315016 L138.911761,62.0835932 L140.401957,62.9730703 Z M31.4264044,67.1045735 L31.4264044,87.0797364 L26.8137248,88.0457494 L25.325751,88.0457494 L29.9374502,87.0797364 L29.9374502,67.1045735 C29.9374502,66.0287565 29.8039208,64.952286 31.2400646,64.2771879 L31.2400646,56.4772535 L32.7292802,56.4772535 L32.7292802,64.2771879 C31.2918946,64.952286 31.4264044,66.0287565 31.4264044,67.1045735 L31.4264044,67.1045735 Z M40.5405219,78.2039196 L42.0294761,78.0490177 L42.0294761,95.8614355 L40.5405219,95.8614355 L40.5405219,78.2039196 Z M124.467317,65.0765997 L124.467317,59.2463384 L125.95686,59.2463384 L125.95686,65.0765997 C124.655552,65.7503252 124.518298,67.2313709 124.159474,68.3431355 L119.215683,88.0614357 L117.725487,88.0614357 L122.670585,68.3431355 C123.028101,67.2313709 123.165356,65.7503252 124.467317,65.0765997 L124.467317,65.0765997 Z M15.8307839,85.9888867 L15.8307839,78.7732006 L17.3199996,78.9352921 L17.3199996,85.9888867 C17.3199996,86.7705861 17.5038558,87.428756 17.9422218,87.673854 C18.3823525,87.9189521 19.4314374,88.0431351 19.4314374,88.0431351 C16.0820257,88.0431351 15.8307839,87.3026122 15.8307839,85.9888867 L15.8307839,85.9888867 Z" id="path50" fill="#19336E"></path>
                        <path d="M50.0704563,94.8490172 L53.5480379,94.8490172 C54.3864692,94.8490172 54.7130052,95.0875793 54.7130052,95.9967296 L54.7130052,96.8614355 C54.7130052,97.7705858 54.3864692,98.0091479 53.5480379,98.0091479 L50.0704563,98.0091479 L50.0704563,94.8490172 Z M48.1109792,99.5973831 L54.0247045,99.5973831 C55.984247,99.5973831 56.6725476,98.9529387 56.6725476,97.3738538 L56.6725476,95.4320238 C56.6725476,93.8516316 55.984247,93.2071872 54.0247045,93.2071872 L48.1109792,93.2071872 L48.1109792,99.5973831 L48.1109792,99.5973831 Z" id="path52" fill="#FFFFFF"></path>
                        <polyline id="path54" fill="#FFFFFF" points="57.8523515 99.5973831 64.8427435 99.5973831 64.8427435 98.1150302 59.8118286 98.1150302 59.8118286 97.0915008 64.5779722 97.0915008 64.5779722 95.7666643 59.8118286 95.7666643 59.8118286 94.7431349 64.957384 94.7431349 64.957384 93.2071872 57.8523515 93.2071872 57.8523515 99.5973831"></polyline>
                        <polyline id="path56" fill="#FFFFFF" points="65.669933 99.5973831 73.1365995 99.5973831 73.1365995 98.0091479 70.3830048 98.0091479 70.3830048 93.2071872 68.4235277 93.2071872 68.4235277 98.0091479 65.669933 98.0091479 65.669933 99.5973831"></polyline>
                        <path d="M75.9503249,96.4555531 L79.1895405,96.4555531 C79.7189523,96.4555531 79.9130699,96.6673178 79.9130699,97.1261414 L79.9130699,97.3379061 C79.9130699,97.9032655 79.630717,98.0091479 79.0130699,98.0091479 L75.9503249,98.0091479 L75.9503249,96.4555531 Z M73.9908478,99.5973831 L79.9039196,99.5973831 C81.4137235,99.5973831 81.8196058,98.8470564 81.8196058,97.6999976 L81.8196058,97.2941152 C81.8196058,96.4379061 81.6254882,95.9346381 80.7248346,95.7228734 L80.7248346,95.7052264 C81.3071875,95.599344 81.7928084,95.3437885 81.7928084,94.2934617 L81.7928084,93.2071872 L79.8339849,93.2071872 L79.8339849,93.975161 C79.8339849,94.6464029 79.6392137,94.8666643 79.030717,94.8666643 L75.9503249,94.8666643 L75.9503249,93.2071872 L73.9908478,93.2071872 L73.9908478,99.5973831 L73.9908478,99.5973831 Z" id="path58" fill="#FFFFFF"></path>
                        <path d="M85.0117626,96.0588211 C85.0117626,95.1320238 85.2058802,94.778429 86.1326776,94.778429 L88.6392135,94.778429 C89.5660108,94.778429 89.7601285,95.1320238 89.7601285,96.0588211 L89.7601285,96.7470564 C89.7601285,97.541174 89.5660108,98.0267949 88.5333311,98.0267949 L86.2385599,98.0267949 C85.2058802,98.0267949 85.0117626,97.541174 85.0117626,96.7470564 L85.0117626,96.0588211 Z M82.9993443,97.3555531 C82.9993443,99.2274485 84.0496711,99.668625 85.8150305,99.668625 L88.9575141,99.668625 C90.72222,99.668625 91.7725467,99.2274485 91.7725467,97.3555531 L91.7725467,95.4496708 C91.7725467,93.578429 90.72222,93.1372526 88.9575141,93.1372526 L85.8150305,93.1372526 C84.0496711,93.1372526 82.9993443,93.578429 82.9993443,95.4496708 L82.9993443,97.3555531 L82.9993443,97.3555531 Z" id="path60" fill="#FFFFFF"></path>
                        <polyline id="path62" fill="#FFFFFF" points="93.0588212 99.5973831 95.0176447 99.5973831 95.0176447 93.2071872 93.0588212 93.2071872 93.0588212 99.5973831"></polyline>
                        <polyline id="path64" fill="#FFFFFF" points="95.9790826 99.5973831 103.445749 99.5973831 103.445749 98.0091479 100.692154 98.0091479 100.692154 93.2071872 98.7333309 93.2071872 98.7333309 98.0091479 95.9790826 98.0091479 95.9790826 99.5973831"></polyline>
                        <polyline id="path66" fill="#FFFFFF" points="108.658167 99.5973831 111.667971 99.5973831 113.883004 95.4843113 116.09869 99.5973831 119.108494 99.5973831 119.108494 93.2071872 117.201958 93.2071872 117.201958 97.7973832 117.184311 97.7973832 114.615683 93.2071872 113.150978 93.2071872 110.58235 97.7973832 110.564703 97.7973832 110.564703 93.2071872 108.658167 93.2071872 108.658167 99.5973831"></polyline>
                        <polyline id="path68" fill="#FFFFFF" points="120.428755 99.5973831 127.418951 99.5973831 127.418951 98.1150302 122.388232 98.1150302 122.388232 97.0915008 127.154245 97.0915008 127.154245 95.7666643 122.388232 95.7666643 122.388232 94.7431349 127.533984 94.7431349 127.533984 93.2071872 120.428755 93.2071872 120.428755 99.5973831"></polyline>
                        <path d="M130.673853,96.4555531 L133.913069,96.4555531 C134.44248,96.4555531 134.636598,96.6673178 134.636598,97.1261414 L134.636598,97.3379061 C134.636598,97.9032655 134.354245,98.0091479 133.735944,98.0091479 L130.673853,98.0091479 L130.673853,96.4555531 Z M128.714376,99.5973831 L134.627448,99.5973831 C136.137251,99.5973831 136.543134,98.8470564 136.543134,97.6999976 L136.543134,97.2941152 C136.543134,96.4379061 136.348363,95.9346381 135.448363,95.7228734 L135.448363,95.7052264 C136.031369,95.599344 136.516336,95.3437885 136.516336,94.2934617 L136.516336,93.2071872 L134.556859,93.2071872 L134.556859,93.975161 C134.556859,94.6464029 134.362742,94.8666643 133.754245,94.8666643 L130.673853,94.8666643 L130.673853,93.2071872 L128.714376,93.2071872 L128.714376,99.5973831 L128.714376,99.5973831 Z" id="path70" fill="#FFFFFF"></path>
                        <path d="M137.722872,97.3555531 C137.722872,99.2274485 138.772546,99.668625 140.537905,99.668625 L142.841826,99.668625 C145.630715,99.668625 145.992807,99.068625 145.97516,97.2588211 L144.015683,97.2588211 L144.015683,97.4352917 C144.015683,97.8941152 143.680389,98.0267949 143.097382,98.0267949 L140.962088,98.0267949 C139.929408,98.0267949 139.735291,97.541174 139.735291,96.7470564 L139.735291,96.0588211 C139.735291,95.1320238 139.929408,94.778429 140.856206,94.778429 L142.947709,94.778429 C143.830715,94.778429 144.095421,94.8666643 144.095421,95.6607819 L146.054898,95.6607819 L146.054898,95.0614355 C146.054898,93.9843114 145.666009,93.1372526 143.697382,93.1372526 L140.537905,93.1372526 C138.772546,93.1372526 137.722872,93.578429 137.722872,95.4496708 L137.722872,97.3555531" id="path72" fill="#FFFFFF"></path>
                        <polyline id="path74" fill="#FFFFFF" points="149.732676 95.4320238 146.19346 99.5973831 148.55882 99.5973831 150.712415 96.9856185 152.866009 99.5973831 155.231369 99.5973831 151.692153 95.4320238 151.692153 93.2071872 149.732676 93.2071872 149.732676 95.4320238"></polyline>
                    </g>
                </g>
            </g>
        </g>
    </g>
</svg>