<?xml version="1.0" encoding="UTF-8"?>
<svg width="200px" height="200px" viewBox="0 0 200 200" version="1.1" xmlns="http://www.w3.org/2000/svg" xmlns:xlink="http://www.w3.org/1999/xlink">
    <!-- Generator: Sketch 54.1 (76490) - https://sketchapp.com -->
    <title>drake</title>
    <desc>Created with Sketch.</desc>
    <g id="drake" stroke="none" stroke-width="1" fill="none" fill-rule="evenodd">
        <g id="drake_BGL">
            <g id="drake" transform="translate(8.000000, 0.000000)">
                <g fill-rule="nonzero" id="Shape">
                    <path d="M92.1450292,0 L94.6152047,0 L94.7836257,0.112280702 L94.9146199,0.187134503 C96.2994152,0.505263158 97.6280702,0.898245614 98.9005848,1.57192982 C100.116959,2.13333333 101.146199,2.91929825 102.231579,3.66783626 C102.699415,3.96725146 103.054971,4.47251462 103.653801,4.41637427 C105.992982,4.32280702 108.31345,4.60350877 110.596491,5.16491228 C110.877193,5.20233918 111.214035,5.31461988 111.494737,5.23976608 C112.037427,4.84678363 112.48655,4.34152047 113.010526,3.92982456 C114.17076,2.91929825 115.480702,2.09590643 116.865497,1.42222222 C118.437427,0.673684211 120.290058,0.280701754 121.992982,0.767251462 C122.797661,1.02923977 123.677193,1.42222222 124.25731,2.05847953 C124.968421,2.76959064 125.679532,3.40584795 126.091228,4.34152047 C127.307602,6.4748538 127.962573,8.77660819 128.467836,11.1532164 C128.654971,11.8081871 128.636257,12.5380117 128.879532,13.174269 C129.983626,13.9976608 131.125146,14.7461988 132.135673,15.7005848 C133.333333,16.6549708 134.250292,18.0584795 135.223392,19.1812865 C135.822222,19.4807018 136.45848,19.6491228 137.05731,19.948538 C139.826901,21.0339181 142.334503,22.6432749 144.59883,24.5707602 C146.264327,26.1239766 147.761404,27.8643275 148.865497,29.8666667 C149.352047,30.671345 149.80117,31.4947368 150.063158,32.4116959 C150.867836,34.4327485 151.335673,36.5099415 151.504094,38.6619883 C151.822222,39.0549708 152.327485,39.2982456 152.701754,39.6538012 C155.826901,42.348538 158.053801,46.128655 158.764912,50.2081871 C159.195322,52.6035088 159.139181,55.2421053 158.577778,57.6 C158.42807,58.3298246 158.016374,58.928655 158.315789,59.6584795 C159.195322,62.3345029 158.615205,65.6842105 156.425731,67.574269 C155.864327,68.1169591 155.415205,68.6783626 154.74152,69.071345 C154.217544,69.3894737 153.65614,69.6888889 153.150877,70.0444444 C152.795322,74.8163743 150.138012,79.3076023 146.451462,82.3017544 C146.039766,82.6573099 145.553216,82.9005848 145.328655,83.4245614 C149.557895,84.2105263 153.712281,85.3146199 157.660819,87.0736842 C158.97076,87.6725146 160.299415,88.2339181 161.534503,89.0011696 C165.932164,91.2467836 169.824561,94.5216374 173.136842,98.1520468 C174.97076,100.247953 176.636257,102.493567 178.002339,104.926316 C180.453801,109.024561 182.156725,113.609357 183.092398,118.306433 C183.447953,120.046784 183.616374,121.824561 183.934503,123.583626 L183.934503,131.162573 C183.616374,132.902924 183.48538,134.680702 183.148538,136.421053 C182.194152,141.791813 180.491228,146.938012 178.283041,151.915789 C177.122807,154.647953 175.681871,157.267836 174.203509,159.831579 C172.107602,163.312281 169.730994,166.643275 167.111111,169.749708 C165.782456,171.452632 164.28538,173.043275 162.769591,174.577778 C161.908772,175.569591 160.898246,176.449123 159.925146,177.347368 C156.949708,180.135673 153.749708,182.736842 150.34386,185.019883 C144.430409,189.136842 137.955556,192.430409 131.162573,194.844444 C130.11462,195.293567 129.010526,195.630409 127.906433,195.911111 C122.404678,197.651462 116.640936,198.755556 110.895906,199.223392 C109.960234,199.410526 109.005848,199.373099 108.051462,199.504094 L57.0385965,199.504094 C57.6748538,198.100585 58.180117,196.659649 58.7602339,195.237427 C59.7146199,192.54269 60.8561404,189.922807 61.8853801,187.246784 C63.8315789,182.4 65.7403509,177.553216 67.6678363,172.687719 C68.2105263,171.190643 68.7906433,169.693567 69.4269006,168.215205 C69.5017544,167.934503 69.9695906,168.02807 70.194152,167.990643 C72.271345,167.990643 74.3672515,168.009357 76.4444444,167.97193 C78.5590643,161.890058 80.8233918,155.864327 82.994152,149.80117 C83.2374269,149.164912 83.5181287,148.547368 83.6116959,147.854971 C83.4619883,147.892398 83.3309942,147.911111 83.1812865,147.948538 C81.328655,149.539181 79.5321637,151.129825 77.754386,152.795322 C76.3321637,154.236257 74.7976608,155.602339 73.5438596,157.192982 C73.0947368,157.679532 72.5894737,158.109942 72.1403509,158.596491 C70.7929825,160.168421 69.3894737,161.721637 68.0795322,163.330994 C65.9461988,165.745029 64.1684211,168.552047 61.8853801,170.778947 C61.3988304,171.377778 60.8374269,171.864327 60.2385965,172.332164 C58.3859649,173.88538 56.2152047,175.157895 53.819883,175.607018 C52.7719298,175.756725 51.6678363,175.812865 50.6385965,175.607018 C50.1520468,175.51345 49.6467836,175.288889 49.1602339,175.438596 C48.580117,175.607018 48.0187135,175.831579 47.4385965,175.962573 C45.5859649,176.280702 43.7146199,176 41.974269,175.326316 C41.5812865,175.139181 41.1695906,174.97076 40.7578947,174.821053 C40.1216374,177.964912 39.1298246,181.090058 37.6140351,183.915789 C36.5473684,185.805848 35.1438596,187.583626 33.3473684,188.818713 C32.3368421,189.417544 31.3637427,189.960234 30.2035088,190.184795 C29.380117,190.37193 28.5754386,190.353216 27.7333333,190.334503 C27.302924,190.315789 26.9847953,190.502924 26.5918129,190.652632 C24.4023392,191.550877 22.0818713,192.037427 19.7052632,191.756725 C17.9649123,191.51345 16.3181287,190.783626 15.1017544,189.492398 C14.7836257,189.136842 14.3345029,189.155556 13.8853801,189.061988 C11.7146199,188.781287 9.35672515,188.070175 7.67251462,186.62924 C6.73684211,185.824561 5.95087719,184.776608 5.63274854,183.560234 C5.50175439,183.129825 5.48304094,182.643275 5.27719298,182.250292 C4.82807018,181.838596 4.28538012,181.520468 3.83625731,181.108772 C2.58245614,179.929825 1.62807018,178.432749 1.29122807,176.729825 C0.842105263,174.577778 1.08538012,172.369591 2.24561404,170.479532 C2.76959064,169.674854 3.3871345,168.851462 4.15438596,168.290058 C4.86549708,167.784795 5.40818713,166.980117 5.83859649,166.212865 C6.1754386,165.557895 6.5871345,164.902924 6.83040936,164.210526 C7.24210526,162.975439 7.72865497,161.796491 7.95321637,160.505263 C8.04678363,160.037427 7.69122807,159.625731 7.46666667,159.251462 C6.00701754,157.061988 5.14619883,154.385965 4.95906433,151.766082 C4.92163743,149.576608 5.44561404,147.349708 6.5871345,145.478363 C6.84912281,144.973099 7.24210526,144.561404 7.01754386,143.962573 C3.78011696,134.587135 1.36608187,124.968421 0.430409357,115.087719 C0.355555556,114.208187 0.318128655,113.328655 0.187134503,112.467836 C0.0561403509,111.625731 0.149707602,110.783626 0,109.960234 L0,104.439766 C0.130994152,103.953216 0.0748538012,103.42924 0.112280702,102.923977 C0.392982456,100.435088 0.561403509,97.9461988 1.01052632,95.4760234 C1.89005848,90.5169591 3.3871345,85.3520468 5.95087719,80.9918129 C6.26900585,80.2432749 6.2877193,79.3450292 6.45614035,78.5590643 C7.33567251,73.4128655 8.88888889,68.3415205 10.722807,63.4573099 C13.5859649,56.1590643 17.3099415,48.9169591 22.1754386,42.7415205 C22.8491228,41.7309942 23.6538012,40.851462 24.4023392,39.9157895 C25.1321637,39.0736842 25.805848,38.194152 26.5918129,37.4081871 C28.3883041,35.405848 30.2783626,33.4596491 32.374269,31.7567251 C34.3017544,29.9976608 36.3976608,28.3883041 38.5309942,26.8725146 C40.7204678,25.2444444 43.0596491,23.897076 45.4175439,22.5497076 C50.9567251,19.5555556 56.8140351,17.1602339 62.8959064,15.5134503 C65.1415205,14.877193 67.4619883,14.4467836 69.7076023,13.8853801 C70.4748538,13.2678363 71.1298246,12.425731 71.7847953,11.677193 C72.8327485,10.5169591 73.7122807,9.05730994 74.928655,8.08421053 C77.3426901,5.87602339 80.748538,4.95906433 83.948538,4.94035088 C85.2023392,3.51812865 86.4748538,2.20818713 88.1777778,1.32865497 C89.3754386,0.65497076 90.7789474,0.318128655 92.1450292,0 Z M138.947368,118.88655 C137.281871,123.377778 135.747368,127.906433 134.063158,132.378947 C131.723977,138.947368 129.291228,145.440936 126.97076,152.046784 C126.278363,153.955556 125.567251,155.864327 124.893567,157.773099 C125.267836,157.548538 125.604678,157.28655 125.922807,156.987135 C129.272515,154.011696 132.416374,150.605848 134.88655,146.863158 C137.019883,143.756725 138.74152,140.369591 140.014035,136.832749 C141.211696,133.221053 142.053801,129.197661 141.585965,125.380117 C141.267836,123.059649 140.631579,120.888889 139.22807,118.99883 C139.17193,118.923977 139.078363,118.88655 138.947368,118.88655 Z" fill="#00539F"></path>
                    <path d="M93.380117,5.74502924 C95.1578947,5.91345029 96.8608187,6.84912281 98.3953216,7.72865497 C99.574269,8.45847953 100.753216,9.18830409 101.819883,10.0865497 C100.865497,9.8245614 99.7988304,9.6748538 98.825731,9.69356725 C97.328655,9.73099415 95.794152,10.4233918 95.0081871,11.7520468 C94.2035088,11.9766082 94.128655,12.6502924 93.754386,13.2865497 C91.9017544,16.6923977 89.4128655,19.9672515 86.3064327,22.3064327 C82.994152,25.019883 78.8023392,26.5918129 74.4982456,26.5918129 C72.7017544,26.5730994 70.5309942,26.7789474 68.8280702,26.0678363 C68.3602339,25.8432749 67.7426901,25.5251462 67.780117,24.9076023 C67.6491228,23.9719298 68.4725146,23.0923977 69.0152047,22.4187135 C70.9239766,20.3976608 73.019883,18.5450292 75.1345029,16.748538 C75.9953216,16.0374269 76.7251462,15.2140351 77.380117,14.3157895 C78.128655,13.3052632 78.6152047,12.2947368 79.794152,11.677193 C80.6549708,11.2280702 81.7403509,10.8538012 82.7134503,10.7415205 C84.2105263,10.6479532 85.8011696,10.3672515 87.1859649,9.7122807 C88.5707602,9.05730994 89.6,7.69122807 90.6666667,6.64327485 C91.3777778,5.91345029 92.3883041,5.63274854 93.380117,5.74502924 Z" fill="#BFC0C2"></path>
                    <path d="M121.618713,6.56842105 C122.816374,7.91578947 123.153216,10.1052632 123.284211,11.845614 C122.460819,11.8830409 121.693567,11.6397661 120.888889,11.6210526 C120.364912,11.5649123 119.803509,11.6210526 119.279532,11.5274854 C118.961404,11.2280702 118.699415,10.8538012 118.418713,10.5356725 C117.651462,9.6374269 116.734503,8.94502924 115.948538,8.08421053 C116.715789,7.27953216 117.651462,6.53099415 118.661988,6.04444444 C119.691228,5.57660819 120.870175,5.67017544 121.618713,6.56842105 Z" fill="#BFC0C2"></path>
                    <path d="M98.8070175,9.6748538 C99.7988304,9.65614035 100.846784,9.80584795 101.80117,10.0678363 C102.119298,10.2175439 102.362573,10.2736842 102.718129,10.2549708 C104.009357,10.1988304 105.356725,10.1614035 106.666667,10.2736842 C108.463158,10.4421053 110.222222,10.928655 111.869006,11.6210526 C113.235088,12.2947368 114.676023,13.2304094 115.611696,14.4654971 C113.235088,15.1953216 111.120468,16.8608187 110.278363,19.2561404 C111.083041,19.0877193 111.775439,18.6947368 112.561404,18.4327485 C114.825731,17.702924 117.202339,17.328655 119.578947,17.4222222 C121.693567,17.4783626 123.752047,18.0584795 125.660819,18.9567251 C127.925146,20.0421053 129.815205,21.819883 131.312281,23.8035088 C131.499415,24.0280702 131.611696,24.2339181 131.948538,24.271345 C135.97193,25.0385965 139.957895,27.1532164 142.540351,30.3719298 C143.251462,31.251462 143.850292,32.1122807 143.831579,33.2912281 C143.925146,34.7134503 142.727485,36.0233918 141.305263,36.0233918 C140.182456,36.0982456 139.265497,35.780117 138.460819,35.0315789 C137.65614,34.3578947 137.375439,33.4596491 136.701754,32.6736842 C135.597661,31.2701754 134.138012,30.1473684 132.547368,29.3614035 C130.844444,28.6690058 129.197661,28.0327485 127.307602,28.1450292 C128.561404,29.1929825 129.890058,30.3719298 130.582456,31.8690058 C130.956725,32.6736842 131.14386,33.5345029 130.788304,34.3766082 C130.283041,35.8175439 129.010526,36.7157895 127.607018,37.1461988 C126.446784,37.4269006 125.267836,37.5766082 124.088889,37.4081871 C122.909942,37.2397661 121.749708,37.071345 120.626901,36.6222222 C118.923977,36.154386 117.501754,35.2748538 115.873684,34.6011696 C112.860819,33.2725146 109.623392,32.1122807 106.311111,31.9251462 C104.346199,31.8315789 102.212865,32.205848 100.603509,33.3847953 C100.060819,33.7964912 99.4807018,34.1894737 99.1625731,34.8070175 C101.819883,34.9192982 104.383626,35.1438596 106.872515,36.1169591 L106.947368,36.2853801 C106.666667,37.8011696 106.535673,39.2795322 106.872515,40.7953216 C103.766082,40.271345 100.547368,40.5146199 97.5719298,41.6 C93.754386,42.9660819 90.2923977,45.6233918 88.3274854,49.1976608 C87.5602339,50.5263158 87.148538,51.9672515 86.7929825,53.445614 C83.9859649,54.7368421 81.5719298,56.7391813 80.0374269,59.4339181 C78.1847953,62.5777778 77.9976608,66.6760234 79.5695906,69.9508772 C79.7192982,70.2502924 79.7567251,70.5684211 79.7754386,70.9052632 C79.5883041,72.477193 79.7005848,73.8619883 80.1309942,75.3964912 C79.3450292,75.7520468 78.5403509,76.0701754 77.7730994,76.4444444 C75.8643275,77.4736842 74.0116959,78.5777778 72.3836257,80.0187135 C69.2959064,82.619883 66.9192982,86.1754386 66.2269006,90.1988304 C65.9649123,90.9847953 65.9461988,91.7894737 65.9649123,92.6128655 C67.2748538,90.4421053 68.8654971,88.4959064 70.7181287,86.774269 C74.0491228,83.6865497 78.0350877,81.2725146 82.3204678,79.8502924 C82.8070175,79.6818713 83.5929825,79.1953216 84.0795322,79.5134503 C87.4666667,81.3660819 91.4152047,82.2081871 95.2701754,82.0959064 C97.8900585,82.1333333 100.547368,81.9274854 103.129825,81.4035088 C105.281871,81.0105263 107.433918,80.4116959 109.39883,79.4760234 C110.465497,79.0830409 111.419883,78.5216374 112.392982,77.9602339 C114.825731,76.594152 116.940351,74.8538012 118.923977,72.8888889 C122.404678,69.1649123 126.016374,65.3473684 130.264327,62.502924 C132.023392,61.3614035 133.91345,60.3695906 135.897076,59.7146199 C139.490058,58.4421053 143.494737,58.0865497 147.293567,58.2736842 C148.790643,58.4046784 150.493567,58.5918129 151.822222,59.3216374 C152.552047,59.7146199 153.132164,60.3321637 153.207018,61.1929825 C153.300585,62.3719298 152.290058,63.419883 151.279532,63.8502924 C150.437427,64.0935673 149.445614,63.9625731 148.603509,63.7005848 C147.443275,63.3450292 146.245614,63.2140351 145.08538,62.877193 C142.933333,62.4842105 140.706433,62.4467836 138.647953,63.251462 C137.469006,63.7192982 136.495906,64.4865497 135.616374,65.3660819 C135.48538,65.4783626 135.373099,65.5906433 135.242105,65.702924 C136.215205,66.3391813 137.188304,66.825731 137.936842,67.7426901 C138.760234,68.697076 139.246784,69.9134503 138.909942,71.1672515 C138.554386,72.7578947 137.487719,73.9368421 136.215205,74.8538012 C134.194152,76.2760234 131.873684,76.8748538 129.459649,77.1929825 C126.952047,77.3988304 124.425731,77.174269 122.049123,76.3321637 C121.674854,76.2011696 121.281871,76.0327485 120.888889,75.9391813 C120.645614,76.051462 120.45848,76.3321637 120.290058,76.5380117 C117.632749,80.1122807 113.684211,82.6573099 109.417544,83.7988304 C106.292398,84.6783626 103.148538,84.7906433 99.9298246,84.5847953 C96.8982456,84.322807 93.7918129,84.1169591 90.7602339,84.3415205 C87.354386,84.4912281 83.7614035,85.071345 80.6362573,86.4374269 C78.0350877,87.5789474 75.7894737,89.3754386 74.554386,91.9766082 C74.1239766,92.9122807 73.6935673,94.0163743 73.7684211,95.0643275 C73.8619883,95.0081871 73.9555556,94.9707602 74.0678363,94.9146199 C75.0783626,94.3157895 76.1637427,93.9415205 77.2491228,93.5298246 C80.9356725,92.1824561 84.8093567,91.471345 88.7204678,91.3216374 C91.4526316,91.2654971 94.128655,91.3403509 96.8233918,91.9017544 C96.1684211,92.2573099 95.4947368,92.2947368 94.7836257,92.5567251 C87.8222222,94.6526316 80.7859649,97.6467836 75.1345029,102.287719 C71.2982456,105.431579 68.0982456,109.567251 66.8818713,114.432749 C65.6654971,119.054971 66.3766082,123.995322 68.0608187,128.392982 C67.5555556,128.411696 67.0690058,128.48655 66.5637427,128.523977 C64.3555556,128.130994 62.7649123,126.895906 60.7812865,125.978947 C59.3964912,125.305263 57.8432749,125.005848 56.3087719,125.118129 C54.1380117,125.230409 52.2853801,126.166082 50.1333333,126.240936 C48.6923977,126.297076 47.2701754,126.278363 45.8666667,125.922807 C42.5169591,125.136842 39.522807,123.284211 37.1461988,120.795322 C36.9216374,120.57076 36.7345029,120.290058 36.6035088,120.009357 C38.7368421,120.02807 40.851462,119.728655 42.8912281,119.073684 C46.0725146,118.025731 49.1789474,116.77193 52.5660819,116.247953 C53.6327485,116.060819 54.6619883,116.135673 55.7473684,116.135673 C53.6140351,115.181287 51.1812865,114.807018 48.8608187,114.65731 C48.580117,113.553216 48.1684211,112.523977 48.1122807,111.363743 C47.8877193,108.444444 49.1789474,105.506433 50.6573099,103.073684 C51.3871345,101.763743 52.3976608,100.678363 53.1274854,99.3684211 C54.1192982,97.5532164 54.5122807,95.4573099 54.6432749,93.3988304 C54.9052632,89.1321637 54.4187135,85.0339181 53.7637427,80.8233918 C53.2397661,76.9871345 53.5017544,73.0947368 55.0736842,69.5204678 C56.7017544,65.7964912 59.845614,62.8210526 63.6444444,61.3614035 C63.4947368,61.0994152 63.3263158,60.8561404 63.0643275,60.6877193 C59.2093567,56.7391813 56.8888889,51.4994152 56.271345,46.0350877 C55.8035088,42.0678363 56.271345,38.025731 57.4690058,34.2269006 C58.0865497,32.5614035 58.5918129,30.877193 59.4152047,29.2865497 C59.8643275,28.4631579 60.1263158,27.4339181 60.7625731,26.7415205 C61.380117,28.5754386 62.7461988,30.1099415 64.4116959,31.0269006 C66.2643275,32.0935673 68.4350877,32.4865497 70.5497076,32.580117 C73.5812865,32.6736842 76.594152,32.1684211 79.4760234,31.1953216 C81.8526316,30.4842105 84.1169591,29.3426901 86.194152,27.9766082 C89.019883,26.0865497 91.3964912,23.5789474 93.0245614,20.5847953 C94.3532164,18.077193 95.1017544,15.3263158 95.251462,12.5005848 C95.2701754,12.219883 95.1017544,11.9578947 94.9894737,11.6959064 C95.7754386,10.4046784 97.3099415,9.73099415 98.8070175,9.6748538 Z" fill="#FFFFFF"></path>
                    <path d="M57.974269,23.0549708 C57.3567251,23.5976608 56.7017544,24.0842105 56.1403509,24.7017544 C52.9403509,27.7520468 50.2081871,31.3263158 48.1871345,35.2561404 C47.7005848,36.3789474 47.1017544,37.4643275 46.671345,38.6245614 C45.0432749,42.7976608 44.2011696,47.3263158 44.4070175,51.8175439 C44.7625731,51.0877193 44.9871345,50.3391813 45.2678363,49.5906433 C46.7087719,45.7356725 48.4865497,41.8807018 50.8444444,38.4935673 C51.0128655,38.2502924 51.2187135,38.025731 51.4245614,37.8011696 C51.405848,38.9239766 51.2,40.0280702 51.2187135,41.1695906 C51.1625731,45.1555556 52.2292398,49.1415205 54.3251462,52.528655 C54.9239766,53.5578947 55.728655,54.4935673 56.4584795,55.4666667 C58.2549708,57.4690058 60.3134503,59.1532164 62.5777778,60.5754386 C62.7461988,60.6877193 62.877193,60.7064327 63.0643275,60.6877193 C63.3263158,60.8561404 63.4947368,61.0994152 63.6444444,61.3614035 C59.845614,62.8210526 56.7017544,65.7777778 55.0736842,69.5204678 C53.5017544,73.0947368 53.2397661,76.9871345 53.7637427,80.8233918 C54.4,85.0339181 54.9052632,89.1321637 54.6432749,93.3988304 C54.5122807,95.4573099 54.1192982,97.5532164 53.1274854,99.3684211 C52.4163743,100.678363 51.3871345,101.763743 50.6573099,103.073684 C49.1789474,105.525146 47.8877193,108.463158 48.1122807,111.363743 C48.1684211,112.523977 48.580117,113.553216 48.8608187,114.65731 C46.5590643,114.638596 44.3883041,114.582456 42.1052632,114.956725 C38.6245614,115.499415 35.0128655,114.619883 32.2994152,112.374269 C29.9602339,110.540351 27.9578947,107.901754 27.2093567,105.00117 C26.8725146,105.787135 27.0222222,106.797661 27.0222222,107.639766 C27.2467836,110.783626 28.5005848,114.095906 30.8023392,116.304094 C31.4011696,116.959064 32.1122807,117.483041 32.7672515,118.081871 C32.1309942,118.549708 31.4011696,119.017544 30.8959064,119.635088 C30.5216374,120.084211 30.1660819,120.477193 30.2409357,121.11345 C30.7087719,125.698246 32.1122807,129.964912 33.8900585,134.194152 C34.3578947,135.298246 34.7883041,136.421053 35.1438596,137.562573 L34.994152,137.54386 C34.7695906,137.843275 34.7134503,138.292398 34.5824561,138.647953 C33.8339181,141.230409 32.7672515,143.775439 31.2888889,146.039766 C29.8479532,148.210526 27.8643275,150.100585 25.3754386,150.980117 C23.4666667,151.653801 21.3894737,152.065497 19.3871345,151.466667 C17.4035088,150.905263 15.8877193,149.520468 14.8584795,147.761404 C14.3719298,146.994152 14.1473684,146.133333 13.7356725,145.328655 C13.4923977,144.748538 13.3614035,144.112281 13.0994152,143.532164 C12.7251462,142.633918 12.5005848,141.679532 12.1637427,140.762573 C9.7122807,133.108772 7.78479532,125.136842 6.84912281,117.146199 C6.49356725,114.676023 6.3251462,112.149708 6.26900585,109.660819 C6.2877193,106.460819 6.15672515,103.316959 6.45614035,100.116959 C6.92397661,95.4760234 7.87836257,90.8912281 9.6374269,86.5497076 C9.7497076,86.3438596 9.7122807,86.1380117 10.0116959,86.1567251 C10.6479532,87.9906433 11.3777778,89.9368421 12.5567251,91.4900585 C12.8,91.8643275 12.9871345,92.2385965 13.3988304,92.4444444 C13.1368421,91.1532164 13.005848,89.8432749 12.9871345,88.5146199 C12.9684211,86.6432749 12.9684211,84.7719298 12.9871345,82.9005848 C13.0994152,79.794152 13.548538,76.7438596 14.1847953,73.7122807 C14.4093567,72.9076023 14.5964912,72.102924 14.7461988,71.2795322 C16.3555556,65.1789474 18.825731,59.302924 22.0070175,53.8573099 C22.4748538,53.1274854 22.9052632,52.3789474 23.354386,51.6491228 C26.1988304,47.1766082 29.4736842,42.9847953 33.1789474,39.2046784 C39.8409357,32.3929825 47.8690058,26.7415205 56.8140351,23.3730994 C57.225731,23.2233918 57.6,23.1298246 57.974269,23.0549708 Z" fill="#BFC0C2"></path>
                    <path d="M112,36.7532164 C112.336842,36.7345029 112.654971,36.9777778 112.954386,37.1274854 C113.384795,37.3894737 113.890058,37.5578947 114.264327,37.8947368 C114.320468,38.5122807 114.077193,39.0549708 114.339181,39.6725146 C114.750877,40.8701754 116.060819,41.6 117.295906,41.3005848 C117.932164,41.1695906 118.287719,40.6269006 118.830409,40.4023392 C119.466667,40.6643275 119.953216,41.0573099 120.533333,41.394152 C119.709942,42.9660819 117.745029,43.845614 116.023392,43.6959064 C113.852632,43.5461988 111.962573,41.8245614 111.588304,39.6725146 C111.494737,38.6807018 111.494737,37.6327485 112,36.7532164 Z" fill="#FFFFFF"></path>
                    <path d="M135.897076,39.2046784 C139.284211,38.8491228 143.045614,39.1111111 146.11462,40.7204678 C143.794152,40.7017544 141.642105,40.5707602 139.359064,41.0947368 C138.404678,41.2818713 137.525146,41.6748538 136.626901,41.9929825 C136.645614,42.2175439 136.701754,42.3859649 136.888889,42.5356725 C138.367251,43.7894737 140.051462,44.7625731 141.866667,45.4175439 C143.756725,46.1099415 145.796491,46.6526316 147.817544,46.7461988 C148.977778,46.3906433 150.119298,45.7169591 151.036257,44.9122807 C151.223392,44.8561404 151.391813,45.1929825 151.522807,45.3052632 C152.57076,46.8584795 153.431579,48.4491228 153.487719,50.3766082 C152.364912,50.0023392 151.560234,49.1602339 150.325146,48.9918129 C150.661988,50.7321637 150.867836,52.5660819 150.549708,54.3438596 C150.45614,54.605848 150.493567,55.0736842 150.081871,54.9988304 C149.37076,54.9052632 148.659649,54.7929825 147.948538,54.6245614 C145.964912,54.194152 144.05614,54.2690058 142.035088,54.2877193 C141.473684,54.2877193 140.930994,54.4 140.388304,54.4187135 C140.032749,53.7450292 139.883041,52.9777778 139.452632,52.3415205 C137.824561,49.5719298 134.661988,48.0187135 131.555556,47.7380117 C131.892398,49.1602339 132.360234,50.5263158 132.472515,52.0046784 C132.566082,53.445614 132.603509,55.0923977 132.098246,56.477193 C132.004678,56.851462 131.667836,56.9076023 131.368421,57.0760234 C128.711111,58.2549708 126.446784,60.0701754 124.20117,61.8853801 C123.77076,62.2596491 123.359064,62.671345 122.947368,63.045614 C120.814035,64.9730994 118.980117,67.1812865 116.846784,69.1087719 C114.750877,71.0549708 112.392982,72.7578947 109.866667,74.1052632 C107.097076,75.5461988 104.046784,76.5192982 100.884211,76.4444444 C99.2374269,76.4070175 97.7216374,75.7894737 96.3555556,74.8912281 C94.2783626,73.4877193 92.8748538,71.2046784 92.5192982,68.7345029 C92.1637427,66.7695906 92.425731,64.9169591 92.7438596,62.9707602 C92.9497076,62.2035088 93.2865497,61.4923977 93.3614035,60.6877193 C91.2654971,61.7169591 89.6561404,63.7754386 89.019883,66.0023392 C88.2526316,68.4538012 88.477193,71.2421053 89.1321637,73.6935673 C89.3380117,74.6105263 89.6935673,75.471345 89.8994152,76.4070175 C88.8140351,76.5192982 87.6350877,76.1637427 86.605848,75.845614 C83.9859649,75.0035088 81.4409357,73.225731 80.0561404,70.8116959 C79.9625731,70.8304094 79.8690058,70.8678363 79.7754386,70.9239766 C79.7567251,70.5871345 79.7192982,70.2877193 79.5695906,69.9695906 C77.9976608,66.6760234 78.1847953,62.5964912 80.0374269,59.4526316 C81.5719298,56.7578947 83.9859649,54.7555556 86.7929825,53.4643275 C87.148538,51.9859649 87.5602339,50.5450292 88.3274854,49.2163743 C90.2923977,45.6421053 93.754386,42.9847953 97.5719298,41.6187135 C100.547368,40.5333333 103.766082,40.3087719 106.872515,40.8140351 C106.947368,41.1134503 107.022222,41.4315789 107.097076,41.7309942 C104.065497,41.9929825 101.108772,42.6292398 98.6385965,44.5380117 C96.8233918,45.8666667 95.5508772,47.794152 94.877193,49.9461988 C94.6152047,50.825731 94.3532164,51.6865497 94.3532164,52.6222222 C94.6152047,52.3789474 94.8584795,52.1169591 95.0643275,51.8362573 C97.6280702,48.6736842 101.445614,46.5964912 105.54386,46.5216374 C107.059649,46.4280702 108.500585,46.6900585 109.997661,46.877193 C110.895906,47.1017544 111.794152,47.4011696 112.654971,47.7005848 C113.02924,47.8128655 112.673684,48.205848 112.59883,48.4116959 C110.895906,51.405848 110.37193,54.980117 111.045614,58.348538 C111.419883,59.8269006 111.850292,61.4362573 112.748538,62.671345 C112.654971,57.6374269 114.769591,52.7345029 117.988304,48.9356725 C118.755556,48.1871345 119.354386,47.3076023 120.215205,46.671345 C121.338012,45.5111111 122.62924,44.5754386 123.939181,43.677193 C127.494737,41.3005848 131.649123,39.6725146 135.897076,39.2046784 Z" fill="#BFC0C2"></path>
                    <path d="M134.381287,51.4245614 C134.587135,51.4619883 134.755556,51.5368421 134.923977,51.6304094 C136.215205,52.4350877 137.207018,53.6327485 137.637427,55.1111111 C137.674854,55.2421053 137.674854,55.3730994 137.637427,55.4666667 C136.814035,55.6912281 135.990643,55.8035088 135.185965,56.0842105 C135.204678,55.1672515 135.204678,54.2690058 135.017544,53.3707602 C134.88655,52.697076 134.512281,52.1169591 134.381287,51.4245614 Z" fill="#FFFFFF"></path>
                    <path d="M153.300585,53.0339181 C153.768421,53.3894737 154.049123,54.2128655 154.311111,54.7368421 C154.704094,55.5415205 154.704094,56.3649123 154.68538,57.2444444 C153.955556,57.0011696 153.281871,56.645614 152.552047,56.4210526 C152.626901,55.9345029 152.757895,55.4853801 152.870175,55.0175439 C153.05731,54.3438596 153.019883,53.6888889 153.300585,53.0339181 Z" fill="#FFFFFF"></path>
                    <path d="M135.597661,65.3473684 C135.915789,65.5157895 136.046784,65.5157895 136.402339,65.4596491 C139.976608,64.954386 143.681871,65.7403509 146.676023,67.780117 C146.844444,67.9111111 147.125146,68.0608187 147.125146,68.3040936 C147.330994,70.4187135 146.432749,72.6269006 145.309942,74.3859649 C144.205848,76.0327485 142.764912,77.5111111 141.099415,78.5964912 C138.404678,80.5239766 135.036257,81.5157895 131.74269,81.5345029 C129.347368,81.5906433 126.91462,81.1602339 124.612865,80.5052632 C123.527485,80.205848 122.516959,79.7005848 121.450292,79.3263158 C120.926316,79.8128655 120.57076,80.4491228 120.02807,80.9169591 C119.522807,81.3473684 119.054971,81.8152047 118.549708,82.245614 C116.22924,84.1918129 113.459649,85.6701754 110.521637,86.4374269 C108.912281,86.9426901 107.209357,87.1859649 105.54386,87.1859649 C101.071345,87.3169591 96.9169591,86.774269 92.4444444,86.605848 C88.7391813,86.5309942 84.7157895,86.8491228 81.3099415,88.4210526 C78.3719298,89.7497076 75.9766082,91.9017544 74.1052632,94.502924 C74.0116959,94.6152047 73.9929825,94.7461988 74.0678363,94.8959064 C73.974269,94.9520468 73.8807018,95.0081871 73.7684211,95.045614 C73.6935673,93.9976608 74.1426901,92.8935673 74.554386,91.9578947 C75.7894737,89.3567251 78.0350877,87.5602339 80.6362573,86.4187135 C83.780117,85.0526316 87.354386,84.4725146 90.7602339,84.322807 C93.7918129,84.0982456 96.8982456,84.2853801 99.9298246,84.5660819 C103.148538,84.7719298 106.292398,84.6596491 109.417544,83.780117 C113.702924,82.619883 117.651462,80.0935673 120.290058,76.5192982 C120.45848,76.3134503 120.645614,76.0327485 120.888889,75.9204678 C121.281871,76.0140351 121.65614,76.1824561 122.049123,76.3134503 C124.425731,77.1555556 126.952047,77.3988304 129.459649,77.174269 C131.873684,76.8561404 134.194152,76.2385965 136.215205,74.8350877 C137.487719,73.9181287 138.573099,72.7391813 138.909942,71.148538 C139.22807,69.8947368 138.74152,68.6783626 137.936842,67.7239766 C137.188304,66.8070175 136.215205,66.3017544 135.242105,65.6842105 C135.354386,65.5719298 135.48538,65.4596491 135.597661,65.3473684 Z" fill="#BFC0C2"></path>
                    <path d="M21.651462,75.0596491 C21.7076023,77.0432749 21.5953216,79.0269006 21.7450292,81.0292398 C21.7637427,83.0315789 22.0444444,85.0526316 22.2502924,87.0362573 C22.4187135,87.8409357 22.5871345,88.645614 22.6807018,89.4502924 C22.8304094,90.8725146 23.2982456,92.1637427 23.5976608,93.548538 C23.9532164,94.8397661 24.3461988,96.1122807 24.8327485,97.3660819 C25.0385965,97.8339181 25.2070175,98.3017544 25.3192982,98.8070175 C24.645614,98.4140351 24.102924,97.702924 23.5976608,97.1040936 C21.277193,94.2596491 19.5555556,90.8350877 19.0690058,87.1859649 C18.5450292,83.6304094 19.2,80.0561404 20.7157895,76.8187135 C20.9777778,76.219883 21.2210526,75.6023392 21.651462,75.0596491 Z" fill="#00539F"></path>
                    <path d="M133.80117,87.8035088 C134.867836,87.728655 135.915789,87.7099415 136.982456,87.8035088 C139.265497,87.8222222 141.548538,88.0842105 143.812865,88.3836257 C147.106433,88.9263158 150.437427,89.6187135 153.54386,90.8350877 C157.39883,92.2385965 161.047953,94.2409357 164.322807,96.748538 C171.939181,102.587135 177.197661,111.550877 178.451462,121.076023 C178.676023,122.62924 178.863158,124.20117 178.881871,125.773099 C179.031579,127.345029 178.844444,128.879532 178.807018,130.451462 C178.60117,132.416374 178.395322,134.4 178.021053,136.364912 C177.684211,137.712281 177.459649,139.078363 177.066667,140.425731 C176.074854,143.925146 174.839766,147.368421 173.267836,150.643275 C172.238596,153.019883 170.966082,155.284211 169.637427,157.511111 C164.603509,165.782456 157.904094,173.043275 150.156725,178.825731 C146.470175,181.501754 142.559064,184.065497 138.442105,186.030409 C136.252632,187.153216 134.025731,188.145029 131.723977,189.024561 C125.436257,191.45731 118.792982,193.122807 112.074854,193.702924 C110.297076,193.946199 108.463158,194.002339 106.666667,194.002339 C93.0807018,194.002339 79.4573099,194.002339 65.871345,194.002339 C65.5157895,193.964912 65.0666667,194.05848 65.2538012,193.515789 C65.5906433,192.505263 66.0397661,191.532164 66.4327485,190.559064 C66.8818713,189.118129 67.5368421,187.77076 68.0608187,186.367251 C69.7450292,181.969591 71.5976608,177.590643 73.2444444,173.174269 C75.5649123,172.987135 77.922807,173.192982 80.2432749,173.061988 C80.5988304,172.575439 80.7298246,171.901754 80.954386,171.340351 C84.0046784,163.012865 86.9426901,154.68538 90.0116959,146.357895 C91.5461988,141.978947 93.2116959,137.65614 94.7087719,133.25848 C95.1017544,132.023392 95.7567251,130.825731 95.9812865,129.553216 C95.2140351,128.823392 94.2035088,128.318129 93.3614035,127.681871 C89.2631579,124.987135 85.2584795,122.161404 81.1415205,119.48538 C79.794152,118.512281 78.3157895,117.670175 77.0245614,116.622222 C78.7461988,114.432749 80.7859649,112.430409 82.7695906,110.484211 C92.8561404,100.865497 105.169591,93.4362573 118.699415,89.9181287 C120.215205,89.6 121.693567,89.1321637 123.22807,88.9637427 C126.708772,88.2900585 130.264327,87.8596491 133.80117,87.8035088 Z M138.947368,118.88655 C137.281871,123.377778 135.747368,127.906433 134.063158,132.378947 C131.723977,138.947368 129.291228,145.440936 126.97076,152.046784 C126.278363,153.955556 125.567251,155.864327 124.893567,157.773099 C125.267836,157.548538 125.604678,157.28655 125.922807,156.987135 C129.272515,154.011696 132.416374,150.605848 134.88655,146.863158 C137.019883,143.756725 138.74152,140.369591 140.014035,136.832749 C141.211696,133.221053 142.053801,129.197661 141.585965,125.380117 C141.267836,123.059649 140.631579,120.888889 139.22807,118.99883 C139.17193,118.923977 139.078363,118.88655 138.947368,118.88655 Z" fill="#FFFFFF"></path>
                    <path d="M96.8046784,91.8830409 C97.4222222,91.9391813 98.0210526,92.0327485 98.619883,92.1824561 C98.3204678,92.5005848 97.9087719,92.6690058 97.5345029,92.8748538 C93.6608187,95.0830409 89.9368421,97.5532164 86.4187135,100.28538 C85.5204678,100.940351 84.7157895,101.707602 83.8175439,102.34386 C79.9438596,105.562573 76.3321637,109.080702 72.9450292,112.804678 C71.5976608,114.470175 70.0631579,116.060819 68.902924,117.85731 C71.8596491,119.840936 74.9099415,121.918129 77.8479532,123.939181 C75.4339181,126.166082 72.4397661,127.738012 69.2397661,128.467836 C68.322807,128.59883 67.4807018,128.842105 66.5824561,128.505263 C67.0877193,128.467836 67.574269,128.392982 68.0795322,128.374269 C66.3953216,123.976608 65.6842105,119.017544 66.9005848,114.414035 C68.1169591,109.548538 71.3169591,105.412865 75.1532164,102.269006 C80.8046784,97.6280702 87.8409357,94.6339181 94.8023392,92.5380117 C95.4760234,92.2760234 96.1684211,92.2385965 96.8046784,91.8830409 Z" fill="#BFC0C2"></path>
                    <path d="M135.48538,92.7251462 C138.292398,92.6877193 141.136842,93.0245614 143.925146,93.380117 C145.459649,93.6795322 147.012865,94.0538012 148.528655,94.4280702 C150.287719,94.9707602 152.046784,95.5321637 153.730994,96.2619883 C157.118129,97.6842105 160.280702,99.7052632 163.031579,102.138012 C167.878363,106.404678 171.433918,112.224561 172.874854,118.512281 C174.315789,124.163743 174.184795,130.301754 173.024561,136.009357 C171.22807,144.580117 167.223392,152.776608 162.039766,159.812865 C156.388304,167.504094 149.127485,174.035088 140.949708,178.975439 C139.452632,179.817544 138.049123,180.697076 136.495906,181.426901 C130.189474,184.683041 123.396491,186.984795 116.378947,188.163743 C115.555556,188.238596 114.769591,188.388304 113.946199,188.519298 C111.288889,188.762573 108.575439,189.080702 105.899415,189.043275 C95.7380117,189.043275 85.5578947,189.043275 75.3964912,189.043275 C74.4046784,189.043275 73.4128655,189.061988 72.4023392,189.005848 C72.6269006,187.976608 73.0947368,187.078363 73.4315789,186.08655 C73.9555556,184.683041 74.5918129,183.335673 75.0783626,181.932164 C75.4339181,180.959064 75.9017544,180.023392 76.2385965,179.031579 C76.3508772,178.71345 76.4631579,178.395322 76.6502924,178.11462 C76.8561404,177.983626 77.1929825,178.039766 77.4175439,178.021053 C79.4760234,178.021053 81.5345029,178.05848 83.5929825,178.002339 C84.0421053,177.590643 84.154386,176.842105 84.3602339,176.280702 C90.6666667,158.839766 97.0105263,141.34269 103.316959,123.920468 C104.02807,122.011696 104.664327,120.065497 105.431579,118.175439 C106.049123,117.670175 106.853801,117.333333 107.546199,116.940351 C111.345029,114.900585 115.424561,113.384795 119.616374,112.392982 C123.209357,111.588304 126.895906,111.288889 130.563743,111.588304 C130.545029,111.94386 130.470175,112.261988 130.339181,112.59883 C127.794152,119.578947 125.417544,126.353216 122.816374,133.333333 C121.132164,138.030409 119.391813,142.821053 117.688889,147.536842 C115.25614,154.367251 112.692398,161.160234 110.297076,168.009357 C109.380117,170.516959 108.463158,173.043275 107.564912,175.569591 C107.321637,176.187135 107.078363,176.804678 106.928655,177.459649 C107.71462,177.440936 108.444444,177.197661 109.230409,177.08538 C116.397661,175.45731 123.040936,172.070175 128.954386,167.747368 C135.691228,162.750877 141.436257,156.500585 145.646784,149.25848 C148.191813,144.954386 150.119298,140.31345 151.242105,135.447953 C152.046784,131.817544 152.421053,127.962573 151.97193,124.25731 C151.878363,122.704094 151.42924,121.132164 151.054971,119.635088 C150.063158,116.266667 148.322807,113.14152 145.871345,110.633918 C143.270175,107.939181 139.939181,105.955556 136.327485,104.982456 C135.054971,104.608187 133.80117,104.252632 132.453801,104.140351 C128.374269,103.522807 124.25731,103.859649 120.233918,104.720468 C118.774269,104.907602 117.408187,105.431579 115.985965,105.805848 C109.34269,107.995322 103.129825,111.588304 97.7216374,115.985965 C95.7754386,117.557895 93.9789474,119.298246 92.1824561,121.019883 C89.9181287,119.597661 87.728655,118.044444 85.5204678,116.547368 C85.1274854,116.304094 84.7532164,116.023392 84.4163743,115.705263 C84.8280702,115.25614 85.2210526,114.807018 85.6701754,114.414035 C90.5918129,109.623392 96.1309942,105.412865 102.138012,102.044444 C106.591813,99.5555556 111.270175,97.4222222 116.135673,95.8690058 C117.183626,95.5134503 118.269006,95.3076023 119.298246,94.9333333 C121.674854,94.3906433 123.995322,93.7730994 126.42807,93.4549708 C129.459649,93.005848 132.491228,92.6877193 135.48538,92.7251462 Z" fill="#00539F"></path>
                    <path d="M136.51462,110.297076 C136.945029,110.240936 137.394152,110.577778 137.768421,110.746199 C140.987135,112.261988 143.700585,114.900585 145.197661,118.119298 C145.946199,119.466667 146.357895,121.00117 146.750877,122.479532 C147.106433,124.294737 147.312281,126.147368 147.25614,128 C147.162573,130.432749 146.919298,132.809357 146.245614,135.167251 C145.964912,136.45848 145.609357,137.674854 145.122807,138.909942 C144.617544,140.631579 143.794152,142.184795 143.045614,143.812865 C141.585965,146.676023 139.901754,149.408187 137.936842,151.953216 C137.150877,153.019883 136.346199,154.105263 135.42924,155.059649 C133.183626,157.679532 130.676023,160.05614 128,162.245614 C124.051462,165.408187 119.635088,168.196491 114.938012,170.08655 C115.499415,168.065497 116.378947,166.119298 117.033918,164.135673 C117.595322,162.676023 118.081871,161.197661 118.605848,159.719298 C119.354386,157.735673 120.102924,155.733333 120.814035,153.730994 C122.778947,148.210526 124.781287,142.877193 126.746199,137.375439 C127.214035,135.878363 127.850292,134.437427 128.318129,132.959064 C130.152047,128.037427 131.892398,123.097076 133.707602,118.175439 C134.493567,116.191813 135.092398,114.133333 135.897076,112.149708 C136.102924,111.532164 136.215205,110.91462 136.51462,110.297076 Z M138.947368,118.88655 C137.281871,123.377778 135.747368,127.906433 134.063158,132.378947 C131.723977,138.947368 129.291228,145.440936 126.97076,152.046784 C126.278363,153.955556 125.567251,155.864327 124.893567,157.773099 C125.267836,157.548538 125.604678,157.28655 125.922807,156.987135 C129.272515,154.011696 132.416374,150.605848 134.88655,146.863158 C137.019883,143.756725 138.74152,140.369591 140.014035,136.832749 C141.211696,133.221053 142.053801,129.197661 141.585965,125.380117 C141.267836,123.059649 140.631579,120.888889 139.22807,118.99883 C139.17193,118.923977 139.078363,118.88655 138.947368,118.88655 Z" fill="#00539F"></path>
                    <path d="M80.9356725,126.390643 C81.1976608,126.128655 81.4596491,126.42807 81.7216374,126.559064 C84.0982456,128.187135 86.4748538,129.796491 88.851462,131.405848 C89.019883,131.555556 89.3192982,131.68655 89.3567251,131.929825 C89.2631579,132.472515 89.019883,133.015205 88.8327485,133.539181 C88.271345,135.036257 87.728655,136.57076 87.1859649,138.067836 C87.0736842,138.404678 86.8678363,138.591813 86.5871345,138.778947 C84.9590643,139.883041 83.3871345,141.024561 81.871345,142.297076 C80.0187135,143.812865 78.128655,145.272515 76.3508772,146.863158 C74.348538,148.453801 72.477193,150.250292 70.6245614,152.009357 C69.277193,153.338012 67.9298246,154.68538 66.7134503,156.145029 C66.0397661,156.818713 65.5157895,157.604678 64.8421053,158.259649 C64.5614035,158.184795 64.4865497,158.203509 64.2245614,158.334503 C62.5216374,159.232749 60.5192982,159.962573 58.5918129,159.962573 C56.9263158,159.962573 55.354386,159.195322 54.3812865,157.847953 C53.0339181,156.070175 52.528655,153.54386 52.3040936,151.354386 C52.1169591,149.015205 52.154386,146.638596 52.3415205,144.280702 C52.1730994,144.243275 52.0233918,144.243275 51.8549708,144.224561 C53.0526316,143.850292 54.2877193,143.40117 55.3730994,142.727485 C56.3836257,142.128655 57.2070175,141.34269 58.0304094,140.500585 C59.7146199,138.516959 60.6690058,136.327485 61.8292398,134.044444 C67.8175439,133.950877 73.7309942,132.060819 78.5403509,128.467836 C79.3637427,127.831579 80.1309942,127.083041 80.9356725,126.390643 Z" fill="#BFC0C2"></path>
                    <path d="M34.9754386,137.506433 L35.1251462,137.525146 C35.574269,138.947368 35.9111111,140.425731 36.2105263,141.88538 C36.4725146,143.644444 36.8467836,145.459649 36.8280702,147.237427 C35.9859649,147.312281 35.1812865,147.312281 34.3766082,147.611696 C32.205848,148.28538 30.4654971,149.969591 29.2678363,151.840936 C28.2573099,153.469006 27.4900585,155.134503 27.2093567,157.043275 C26.9660819,158.596491 27.2093567,160.261988 27.8830409,161.684211 C28.1263158,162.226901 28.5567251,162.65731 28.8187135,163.181287 C28.9122807,163.723977 28.8374269,164.304094 28.8935673,164.846784 C29.0994152,166.381287 29.5672515,167.859649 30.6339181,169.019883 C31.8128655,170.479532 33.702924,171.340351 35.5181287,171.65848 C35.1438596,173.623392 34.5450292,175.51345 33.8526316,177.384795 C33.1976608,179.012865 32.4116959,180.566082 31.3076023,181.932164 C30.8959064,182.418713 30.6152047,182.905263 30.0163743,183.167251 C30.2783626,181.969591 30.3157895,180.678363 30.0538012,179.480702 C29.6233918,179.349708 29.174269,179.25614 28.9871345,179.780117 C28.1637427,181.932164 26.554386,183.840936 24.4210526,184.776608 C23.1298246,185.375439 21.8011696,185.412865 20.3976608,185.338012 C20.528655,184.945029 20.697076,184.608187 20.9216374,184.271345 C21.651462,183.092398 22.2877193,181.745029 22.5122807,180.378947 C22.5684211,180.060819 22.4748538,179.780117 22.4,179.480702 C21.5766082,179.405848 21.3894737,180.004678 20.8467836,180.472515 C19.8549708,181.408187 18.6760234,182.156725 17.3847953,182.624561 C15.9064327,183.092398 14.2409357,183.017544 12.8374269,182.325146 C12.4444444,182.119298 11.8830409,181.894737 11.6210526,181.520468 C11.7894737,181.239766 12.2573099,181.127485 12.5192982,180.940351 C13.9415205,180.023392 15.3263158,178.807018 16.1497076,177.309942 C16.3368421,176.916959 15.9625731,176.48655 15.5508772,176.54269 C14.9333333,176.729825 14.3906433,177.104094 13.754386,177.291228 C12.8748538,177.553216 11.9578947,177.796491 11.0409357,177.852632 C10.0116959,177.815205 8.85146199,177.57193 8.15906433,176.729825 C7.54152047,176 7.18596491,174.97076 7.11111111,174.035088 C7.05497076,173.660819 7.24210526,173.529825 7.48538012,173.305263 C8.45847953,172.481871 9.3005848,171.471345 10.0678363,170.442105 C12.1076023,167.560234 13.6795322,164.098246 13.922807,160.54269 C13.9976608,159.681871 14.1847953,158.783626 14.0725146,157.94152 C13.548538,157.211696 12.8748538,156.594152 12.3883041,155.826901 C11.097076,154.067836 10.6105263,151.840936 11.0596491,149.707602 C11.4900585,148.023392 12.5380117,146.526316 13.7356725,145.291228 C14.1473684,146.095906 14.3719298,146.956725 14.8584795,147.723977 C15.8877193,149.464327 17.4035088,150.867836 19.3871345,151.42924 C21.3894737,152.02807 23.4479532,151.616374 25.3754386,150.94269 C27.8643275,150.063158 29.8479532,148.173099 31.2888889,146.002339 C32.7672515,143.756725 33.8152047,141.192982 34.5824561,138.610526 C34.6947368,138.273684 34.7508772,137.824561 34.9754386,137.506433 Z" fill="#FFFFFF"></path>
                    <path d="M51.8362573,144.243275 C52.0046784,144.243275 52.1730994,144.261988 52.322807,144.299415 C52.1169591,146.638596 52.0795322,149.015205 52.2853801,151.373099 C52.5099415,153.562573 53.0152047,156.088889 54.3625731,157.866667 C55.3356725,159.214035 56.9263158,159.981287 58.5730994,159.981287 C60.5192982,159.981287 62.5216374,159.251462 64.205848,158.353216 C64.4491228,158.222222 64.5426901,158.203509 64.8233918,158.278363 C62.297076,161.609357 59.8081871,164.865497 56.8140351,167.803509 C56.0093567,168.57076 55.0362573,169.076023 53.9695906,169.412865 C53.071345,169.712281 52.0233918,169.674854 51.0877193,169.637427 C50.4140351,169.618713 49.871345,169.300585 49.2350877,169.188304 C48,169.674854 46.8397661,170.08655 45.4736842,170.030409 C43.7520468,170.011696 42.0491228,169.225731 41.1321637,167.747368 C39.2421053,167.859649 37.277193,167.466667 36.0608187,165.894737 C35.4245614,165.108772 35.405848,164.266667 35.2561404,163.312281 C34.7695906,162.956725 34.2643275,162.750877 33.8526316,162.283041 C33.3660819,161.721637 33.0479532,161.02924 32.8421053,160.318129 C32.6175439,159.008187 32.8046784,157.698246 33.3099415,156.481871 C33.6842105,155.602339 34.077193,154.666667 34.6760234,153.936842 C34.994152,153.974269 35.2561404,154.273684 35.574269,154.311111 C36.3789474,154.404678 37.1649123,154.236257 37.8760234,153.899415 C39.728655,153.05731 41.394152,151.709942 42.9099415,150.362573 C44.0888889,149.295906 44.9497076,147.911111 46.1473684,146.863158 C47.7754386,145.609357 49.9087719,144.860819 51.8362573,144.243275 Z" fill="#FFFFFF"></path>
                    <path d="M159.288889,192.617544 C160.654971,192.561404 162.021053,192.636257 163.387135,192.59883 C163.443275,192.954386 163.405848,193.291228 163.349708,193.62807 C162.900585,193.609357 162.451462,193.646784 162.002339,193.665497 C161.946199,194.975439 161.983626,196.28538 161.983626,197.576608 C161.57193,197.576608 161.160234,197.576608 160.748538,197.595322 C160.654971,196.304094 160.711111,194.994152 160.711111,193.684211 C160.243275,193.62807 159.756725,193.590643 159.288889,193.62807 C159.270175,193.272515 159.232749,192.954386 159.288889,192.617544 Z" fill="#00539F"></path>
                    <path d="M164.378947,192.636257 C165.090058,192.580117 165.782456,192.617544 166.493567,192.617544 C166.792982,193.403509 167.167251,194.17076 167.410526,194.975439 C167.597661,194.863158 167.747368,194.807018 167.822222,194.60117 C168.140351,193.964912 168.383626,193.291228 168.664327,192.617544 C169.338012,192.59883 170.011696,192.59883 170.666667,192.59883 C170.760234,193.403509 170.722807,194.189474 170.722807,194.994152 C170.722807,195.873684 170.760234,196.715789 170.666667,197.595322 C170.273684,197.576608 169.899415,197.557895 169.506433,197.595322 C169.394152,196.304094 169.506433,194.994152 169.431579,193.684211 C168.701754,194.021053 168.533333,195.237427 168.159064,195.892398 C167.990643,196.397661 167.560234,196.435088 167.092398,196.304094 C166.45614,195.574269 166.381287,194.17076 165.576608,193.609357 C165.483041,194.919298 165.539181,196.247953 165.539181,197.576608 C165.127485,197.557895 164.734503,197.557895 164.322807,197.557895 C164.378947,195.929825 164.322807,194.283041 164.378947,192.636257 Z" fill="#00539F"></path>
                </g>
            </g>
        </g>
    </g>
</svg>