<?xml version="1.0" encoding="UTF-8"?>
<svg width="200px" height="200px" viewBox="0 0 200 200" version="1.1" xmlns="http://www.w3.org/2000/svg" xmlns:xlink="http://www.w3.org/1999/xlink">
    <!-- Generator: Sketch 54.1 (76490) - https://sketchapp.com -->
    <title>eastern-wash</title>
    <desc>Created with Sketch.</desc>
    <g id="eastern-wash" stroke="none" stroke-width="1" fill="none" fill-rule="evenodd">
        <g id="eastern-wash_BGL">
            <g id="eastern-wash" transform="translate(0.000000, 6.000000)">
                <g id="g10" transform="translate(99.999998, 93.776400) scale(-1, 1) rotate(-180.000000) translate(-99.999998, -93.776400) translate(0.000000, 0.091102)" fill-rule="nonzero">
                    <g id="g12" transform="translate(0.000000, 0.186335)">
                        <path d="M46.3708063,71.1225655 C46.3708063,71.1225655 32.0898543,113.269976 2.48066246,139.746373 L50.2041395,134.171425 L65.5322965,114.6648 C65.5322965,114.6648 44.979709,123.025256 43.5877836,115.362109 C42.1929596,107.69772 67.2724621,109.786954 67.2724621,109.786954 L75.6314681,92.3722544 C75.6314681,92.3722544 54.0366446,96.202068 56.4741187,89.5828135 C58.9115927,82.9662505 77.3755674,85.0556915 77.3755674,85.0556915 C77.3755674,85.0556915 80.8585901,72.8654226 80.1625239,70.7734972 L46.3708063,71.1225655 L46.3708063,71.1225655" id="path14" fill="#FFFFFF"></path>
                        <path d="M75.283642,64.1581764 L95.4877823,82.9662505 C95.4877823,82.9662505 102.45859,60.6737045 110.120701,62.4140771 C110.120701,62.4140771 109.772875,74.6068304 101.409935,89.9308466 C101.409935,89.9308466 113.954034,112.575152 131.368941,122.676187 C131.368941,122.676187 132.41304,86.448031 137.291094,92.7204946 C137.291094,92.7204946 141.469769,106.653413 138.683019,124.419873 C138.683019,124.419873 142.166042,119.889231 166.549271,142.880328 C166.549271,142.880328 158.191093,84.3610745 160.630017,77.3937869 C160.630017,77.3937869 154.009313,73.2122135 150.526497,67.6383006 C150.526497,67.6383006 145.303516,61.3689426 141.121736,60.3221517 C141.121736,60.3221517 137.984262,69.7277415 124.400825,79.4819856 C124.400825,79.4819856 126.839748,57.8869551 129.626291,54.7519655 C129.626291,54.7519655 113.954034,42.9074523 106.635194,41.8616967 C106.635194,41.8616967 90.2648011,60.6737045 75.283642,64.1581764 L75.283642,64.1581764" id="path16" fill="#FFFFFF"></path>
                        <path d="M83.9948219,32.1076597 C83.9948219,32.1076597 101.409935,34.1975147 102.105588,36.2894401 C102.105588,36.2894401 116.390887,15.3877843 124.052585,20.9614902 C124.052585,20.9614902 128.582191,21.3095233 110.120701,39.4246367 C110.120701,39.4246367 118.478672,41.8616967 121.616146,46.0436841 C121.616146,46.0436841 128.234158,39.0726698 161.671632,31.0635603 C161.671632,31.0635603 138.683019,12.5985918 105.591095,3.19503098 C105.591095,3.19503098 99.3215296,23.0509311 83.9948219,32.1076597 L83.9948219,32.1076597" id="path18" fill="#FFFFFF"></path>
                        <path d="M30.6975148,55.0977212 L24.4275356,52.6600401 C24.4275356,52.6600401 26.5159414,59.976189 35.5739122,59.6273277 L30.6975148,55.0977212 Z M17.8085296,52.6600401 C17.8085296,52.6600401 17.1113246,42.2111791 26.1681153,37.3318831 L25.1238089,45.3436842 C25.1238089,45.3436842 43.2383012,54.054657 52.2939946,42.2111791 L58.9115927,41.8616967 C58.9115927,41.8616967 64.834781,55.0977212 71.1045531,55.7950297 C71.1045531,55.7950297 79.1159401,57.5347812 83.9948219,36.6372662 C83.9948219,36.6372662 92.6995836,34.1975147 101.409935,39.7722557 C101.409935,39.7722557 59.6103505,89.9308466 17.8085296,52.6600401 L17.8085296,52.6600401 L17.8085296,52.6600401 Z" id="path20" fill="#FFFFFF"></path>
                        <path d="M60.3064167,40.1192537 C60.3064167,40.1192537 71.8020686,42.5590051 80.8585901,35.5904753 C80.8585901,35.5904753 79.4639732,54.054657 69.7124206,52.3105577 C69.7124206,52.3105577 67.9695635,53.0078662 60.3064167,40.1192537 L60.3064167,40.1192537" id="path22" fill="#FFFFFF"></path>
                        <path d="M61.350309,37.3318831 C61.350309,37.3318831 58.2155265,34.8948231 58.5637667,31.7585913 C58.5637667,31.7585913 48.8097296,23.4018628 61.6985492,18.1749892 C61.6985492,18.1749892 55.7768102,28.2768109 64.1374725,29.3211173 C64.1374725,29.3211173 74.2395427,26.8807447 74.2395427,21.6587986 C74.2395427,21.6587986 72.8484454,20.2617179 71.1018616,18.8697718 C71.1018616,18.8697718 77.3755674,15.737246 80.510557,25.4886122 C80.510557,25.4886122 72.49917,28.972463 73.193994,35.5904753 C73.193994,35.5904753 65.5322965,38.0293986 61.350309,37.3318831 L61.350309,37.3318831" id="path24" fill="#FFFFFF"></path>
                        <path d="M57.8664582,38.3776388 C57.8664582,38.3776388 44.979709,19.569337 57.8664582,16.7798961 L50.2041395,11.5552999 C50.2041395,11.5552999 44.6304337,18.5227325 39.0581771,18.5227325 C39.0581771,18.5227325 46.3708063,25.4886122 52.2939946,39.0726698 L57.8664582,38.3776388 L57.8664582,38.3776388" id="path26" fill="#FFFFFF"></path>
                        <path d="M42.5411998,0.0598474105 C42.5411998,0.0598474105 49.8548642,-0.985296042 49.8548642,7.72192527 C49.8548642,7.72192527 44.6304337,11.5552999 43.9331252,11.2064179 C43.9331252,11.2064179 24.4275356,26.5337467 18.1563764,9.11409915 C18.1563764,9.11409915 16.7617801,1.80019043 22.6836433,0.757552776 C22.6836433,0.757552776 18.1563764,10.8579914 28.6080738,9.11409915 C28.6080738,9.11409915 32.7869557,17.4776807 40.7983427,8.07146978 C40.7983427,8.07146978 51.2496882,3.19503098 42.5411998,0.0598474105 L42.5411998,0.0598474105" id="path28" fill="#FFFFFF"></path>
                        <path d="M46.3708063,71.1225655 C46.3708063,71.1225655 32.0898543,113.269976 2.48066246,139.746373 L50.2041395,134.171425 L65.5322965,114.6648 C65.5322965,114.6648 44.979709,123.025256 43.5877836,115.362109 C42.1929596,107.69772 67.2724621,109.786954 67.2724621,109.786954 L75.6314681,92.3722544 C75.6314681,92.3722544 54.0366446,96.202068 56.4741187,89.5828135 C58.9115927,82.9662505 77.3755674,85.0556915 77.3755674,85.0556915 C77.3755674,85.0556915 80.8585901,72.8654226 80.1625239,70.7734972 L46.3708063,71.1225655 L46.3708063,71.1225655" id="path30" fill="#C4122E"></path>
                        <path d="M75.283642,64.1581764 L95.4877823,82.9662505 C95.4877823,82.9662505 102.45859,60.6737045 110.120701,62.4140771 C110.120701,62.4140771 109.772875,74.6068304 101.409935,89.9308466 C101.409935,89.9308466 113.954034,112.575152 131.368941,122.676187 C131.368941,122.676187 132.41304,86.448031 137.291094,92.7204946 C137.291094,92.7204946 141.469769,106.653413 138.683019,124.419873 C138.683019,124.419873 142.166042,119.889231 166.549271,142.880328 C166.549271,142.880328 158.191093,84.3610745 160.630017,77.3937869 C160.630017,77.3937869 154.009313,73.2122135 150.526497,67.6383006 C150.526497,67.6383006 145.303516,61.3689426 141.121736,60.3221517 C141.121736,60.3221517 137.984262,69.7277415 124.400825,79.4819856 C124.400825,79.4819856 126.839748,57.8869551 129.626291,54.7519655 C129.626291,54.7519655 113.954034,42.9074523 106.635194,41.8616967 C106.635194,41.8616967 90.2648011,60.6737045 75.283642,64.1581764 L75.283642,64.1581764" id="path32" fill="#C4122E"></path>
                        <path d="M83.9948219,32.1076597 C83.9948219,32.1076597 101.409935,34.1975147 102.105588,36.2894401 C102.105588,36.2894401 116.390887,15.3877843 124.052585,20.9614902 C124.052585,20.9614902 128.582191,21.3095233 110.120701,39.4246367 C110.120701,39.4246367 118.478672,41.8616967 121.616146,46.0436841 C121.616146,46.0436841 128.234158,39.0726698 161.671632,31.0635603 C161.671632,31.0635603 138.683019,12.5985918 105.591095,3.19503098 C105.591095,3.19503098 99.3215296,23.0509311 83.9948219,32.1076597 L83.9948219,32.1076597" id="path34" fill="#C4122E"></path>
                        <path d="M45.3279492,138.003723 L51.5989635,136.609106 C51.5989635,136.609106 50.2041395,151.939334 54.7339531,152.634365 C54.7339531,152.634365 48.8097296,152.286125 45.3279492,138.003723 L45.3279492,138.003723" id="path36" fill="#FFFFFF"></path>
                        <path d="M37.3142848,139.050514 C37.3142848,139.050514 36.2712206,152.982191 49.5070381,160.298754 C49.5070381,160.298754 39.4035187,146.712419 43.9331252,138.701032 L37.3142848,139.050514 L37.3142848,139.050514" id="path38" fill="#FFFFFF"></path>
                        <path d="M26.8652167,140.093371 C26.8652167,140.093371 22.6836433,165.174944 41.4956511,172.837263 C41.4956511,172.837263 34.1815726,162.040369 35.5739122,157.858795 L38.0113862,156.815938 C38.0113862,156.815938 32.7869557,144.273702 34.1815726,139.746373 L26.8652167,140.093371 L26.8652167,140.093371" id="path40" fill="#FFFFFF"></path>
                        <path d="M15.0216766,141.138713 C15.0216766,141.138713 5.96362304,175.278671 29.9999993,187.119457 C29.9999993,187.119457 20.2461072,170.747615 25.4703927,165.174944 C25.4703927,165.174944 18.505838,148.455069 23.0329187,140.79068 L15.0216766,141.138713 L15.0216766,141.138713" id="path42" fill="#FFFFFF"></path>
                        <path d="M4.91840567,143.228154 C4.91840567,143.228154 -11.8015732,168.310141 16.4139333,182.592335 C16.4139333,182.592335 12.5841198,175.278671 9.79716332,174.23188 C9.79716332,174.23188 5.26761892,149.499168 11.8855069,142.880328 L4.91840567,143.228154 L4.91840567,143.228154" id="path44" fill="#FFFFFF"></path>
                        <path d="M171.426704,149.149893 C171.426704,149.149893 188.496062,163.434986 171.426704,180.850927 C171.426704,180.850927 190.937469,182.940368 185.709519,167.961901 C185.709519,167.961901 194.069767,161.34306 183.618629,150.195648 C183.618629,150.195648 181.530223,142.185504 171.426704,141.138713 L171.426704,149.149893 L171.426704,149.149893" id="path46" fill="#FFFFFF"></path>
                        <path d="M170.382397,135.217181 C170.382397,135.217181 195.114074,146.363143 196.163349,170.399582 C196.163349,170.399582 203.126703,165.872253 194.765627,156.118423 C194.765627,156.118423 202.775564,144.622978 193.373701,137.306415 C193.373701,137.306415 185.363763,125.810763 170.382397,124.765421 L170.382397,135.217181 L170.382397,135.217181" id="path48" fill="#FFFFFF"></path>
                        <path d="M168.990679,121.283848 C168.990679,121.283848 193.023184,124.419873 199.991713,139.39834 C199.991713,139.39834 194.069767,127.205587 196.163349,124.765421 C196.163349,124.765421 194.069767,115.711591 168.990679,114.31656 L168.990679,121.283848 L168.990679,121.283848" id="path50" fill="#FFFFFF"></path>
                        <path d="M167.943681,111.529604 C167.943681,111.529604 188.496062,110.137678 198.599581,121.63333 C198.599581,121.63333 199.64368,113.269976 184.662728,104.910763 C184.662728,104.910763 173.167076,101.775774 167.598339,105.608072 L167.943681,111.529604 L167.943681,111.529604" id="path52" fill="#FFFFFF"></path>
                        <path d="M166.549271,102.821115 C166.549271,102.821115 174.216559,97.5966849 189.540161,100.034159 C189.540161,100.034159 177.696683,91.6724615 180.138091,90.6296044 C180.138091,90.6296044 166.20393,90.280122 166.20393,94.8097285 L166.549271,102.821115 L166.549271,102.821115" id="path54" fill="#FFFFFF"></path>
                        <path d="M165.504965,90.9774304 C165.504965,90.9774304 166.902273,86.448031 178.047201,87.495857 C178.047201,87.495857 178.047201,80.8741181 165.157139,84.358383 L165.504965,90.9774304 L165.504965,90.9774304" id="path56" fill="#FFFFFF"></path>
                        <path d="M30.6975148,55.0977212 L24.4275356,52.6600401 C24.4275356,52.6600401 26.5159414,59.976189 35.5739122,59.6273277 L30.6975148,55.0977212 Z M17.8085296,52.6600401 C17.8085296,52.6600401 17.1113246,42.2111791 26.1681153,37.3318831 L25.1238089,45.3436842 C25.1238089,45.3436842 43.2383012,54.054657 52.2939946,42.2111791 L58.9115927,41.8616967 C58.9115927,41.8616967 64.834781,55.0977212 71.1045531,55.7950297 C71.1045531,55.7950297 79.1159401,57.5347812 83.9948219,36.6372662 C83.9948219,36.6372662 92.6995836,34.1975147 101.409935,39.7722557 C101.409935,39.7722557 59.6103505,89.9308466 17.8085296,52.6600401 L17.8085296,52.6600401 L17.8085296,52.6600401 Z" id="path58" fill="#231F20"></path>
                        <path d="M60.3064167,40.1192537 C60.3064167,40.1192537 71.8020686,42.5590051 80.8585901,35.5904753 C80.8585901,35.5904753 79.4639732,54.054657 69.7124206,52.3105577 C69.7124206,52.3105577 67.9695635,53.0078662 60.3064167,40.1192537 L60.3064167,40.1192537" id="path60" fill="#231F20"></path>
                        <path d="M61.350309,37.3318831 C61.350309,37.3318831 58.2155265,34.8948231 58.5637667,31.7585913 C58.5637667,31.7585913 48.8097296,23.4018628 61.6985492,18.1749892 C61.6985492,18.1749892 55.7768102,28.2768109 64.1374725,29.3211173 C64.1374725,29.3211173 74.2395427,26.8807447 74.2395427,21.6587986 C74.2395427,21.6587986 72.8484454,20.2617179 71.1018616,18.8697718 C71.1018616,18.8697718 77.3755674,15.737246 80.510557,25.4886122 C80.510557,25.4886122 72.49917,28.972463 73.193994,35.5904753 C73.193994,35.5904753 65.5322965,38.0293986 61.350309,37.3318831 L61.350309,37.3318831" id="path62" fill="#231F20"></path>
                        <path d="M57.8664582,38.3776388 C57.8664582,38.3776388 44.979709,19.569337 57.8664582,16.7798961 L50.2041395,11.5552999 C50.2041395,11.5552999 44.6304337,18.5227325 39.0581771,18.5227325 C39.0581771,18.5227325 46.3708063,25.4886122 52.2939946,39.0726698 L57.8664582,38.3776388 L57.8664582,38.3776388" id="path64" fill="#231F20"></path>
                        <path d="M42.5411998,0.0598474105 C42.5411998,0.0598474105 49.8548642,-0.985296042 49.8548642,7.72192527 C49.8548642,7.72192527 44.6304337,11.5552999 43.9331252,11.2064179 C43.9331252,11.2064179 24.4275356,26.5337467 18.1563764,9.11409915 C18.1563764,9.11409915 16.7617801,1.80019043 22.6836433,0.757552776 C22.6836433,0.757552776 18.1563764,10.8579914 28.6080738,9.11409915 C28.6080738,9.11409915 32.7869557,17.4776807 40.7983427,8.07146978 C40.7983427,8.07146978 51.2496882,3.19503098 42.5411998,0.0598474105 L42.5411998,0.0598474105" id="path66" fill="#231F20"></path>
                        <path d="M45.3279492,138.003723 L51.5989635,136.609106 C51.5989635,136.609106 50.2041395,151.939334 54.7339531,152.634365 C54.7339531,152.634365 48.8097296,152.286125 45.3279492,138.003723 L45.3279492,138.003723" id="path68" fill="#231F20"></path>
                        <path d="M37.3142848,139.050514 C37.3142848,139.050514 36.2712206,152.982191 49.5070381,160.298754 C49.5070381,160.298754 39.4035187,146.712419 43.9331252,138.701032 L37.3142848,139.050514 L37.3142848,139.050514" id="path70" fill="#231F20"></path>
                        <path d="M26.8652167,140.093371 C26.8652167,140.093371 22.6836433,165.174944 41.4956511,172.837263 C41.4956511,172.837263 34.1815726,162.040369 35.5739122,157.858795 L38.0113862,156.815938 C38.0113862,156.815938 32.7869557,144.273702 34.1815726,139.746373 L26.8652167,140.093371 L26.8652167,140.093371" id="path72" fill="#231F20"></path>
                        <path d="M15.0216766,141.138713 C15.0216766,141.138713 5.96362304,175.278671 29.9999993,187.119457 C29.9999993,187.119457 20.2461072,170.747615 25.4703927,165.174944 C25.4703927,165.174944 18.505838,148.455069 23.0329187,140.79068 L15.0216766,141.138713 L15.0216766,141.138713" id="path74" fill="#231F20"></path>
                        <path d="M4.91840567,143.228154 C4.91840567,143.228154 -11.8015732,168.310141 16.4139333,182.592335 C16.4139333,182.592335 12.5841198,175.278671 9.79716332,174.23188 C9.79716332,174.23188 5.26761892,149.499168 11.8855069,142.880328 L4.91840567,143.228154 L4.91840567,143.228154" id="path76" fill="#231F20"></path>
                        <path d="M171.426704,149.149893 C171.426704,149.149893 188.496062,163.434986 171.426704,180.850927 C171.426704,180.850927 190.937469,182.940368 185.709519,167.961901 C185.709519,167.961901 194.069767,161.34306 183.618629,150.195648 C183.618629,150.195648 181.530223,142.185504 171.426704,141.138713 L171.426704,149.149893 L171.426704,149.149893" id="path78" fill="#231F20"></path>
                        <path d="M170.382397,135.217181 C170.382397,135.217181 195.114074,146.363143 196.163349,170.399582 C196.163349,170.399582 203.126703,165.872253 194.765627,156.118423 C194.765627,156.118423 202.775564,144.622978 193.373701,137.306415 C193.373701,137.306415 185.363763,125.810763 170.382397,124.765421 L170.382397,135.217181 L170.382397,135.217181" id="path80" fill="#231F20"></path>
                        <path d="M168.990679,121.283848 C168.990679,121.283848 193.023184,124.419873 199.991713,139.39834 C199.991713,139.39834 194.069767,127.205587 196.163349,124.765421 C196.163349,124.765421 194.069767,115.711591 168.990679,114.31656 L168.990679,121.283848 L168.990679,121.283848" id="path82" fill="#231F20"></path>
                        <path d="M167.943681,111.529604 C167.943681,111.529604 188.496062,110.137678 198.599581,121.63333 C198.599581,121.63333 199.64368,113.269976 184.662728,104.910763 C184.662728,104.910763 173.167076,101.775774 167.598339,105.608072 L167.943681,111.529604 L167.943681,111.529604" id="path84" fill="#231F20"></path>
                        <path d="M166.549271,102.821115 C166.549271,102.821115 174.216559,97.5966849 189.540161,100.034159 C189.540161,100.034159 177.696683,91.6724615 180.138091,90.6296044 C180.138091,90.6296044 166.20393,90.280122 166.20393,94.8097285 L166.549271,102.821115 L166.549271,102.821115" id="path86" fill="#231F20"></path>
                        <path d="M165.504965,90.9774304 C165.504965,90.9774304 166.902273,86.448031 178.047201,87.495857 C178.047201,87.495857 178.047201,80.8741181 165.157139,84.358383 L165.504965,90.9774304 L165.504965,90.9774304" id="path88" fill="#231F20"></path>
                    </g>
                </g>
            </g>
        </g>
    </g>
</svg>