<?xml version="1.0" encoding="UTF-8"?>
<svg width="200px" height="200px" viewBox="0 0 200 200" version="1.1" xmlns="http://www.w3.org/2000/svg" xmlns:xlink="http://www.w3.org/1999/xlink">
    <!-- Generator: Sketch 54.1 (76490) - https://sketchapp.com -->
    <title>eastern-ky</title>
    <desc>Created with Sketch.</desc>
    <g id="eastern-ky" stroke="none" stroke-width="1" fill="none" fill-rule="evenodd">
        <g id="eastern-ky_BGL" fill="#860533">
            <g id="eastern-ky" transform="translate(0.000000, 22.000000)">
                <g id="g10" transform="translate(99.928003, 78.439165) scale(-1, 1) rotate(-180.000000) translate(-99.928003, -78.439165) translate(0.000000, 0.397411)" fill-rule="nonzero">
                    <g id="g12">
                        <path d="M141.735346,36.2189768 L15.0949456,36.2189768 C16.839222,37.9535772 18.2552623,39.8899918 19.323484,42.0918636 L69.7439867,145.944993 C71.4321076,149.449672 72.0092135,152.783294 71.4609053,155.786893 L199.463782,156.0478 L187.414826,129.537218 C179.556511,134.029082 164.817274,138.522675 150.514611,138.522675 L115.417708,138.076886 L100.564432,107.504677 L140.613387,107.058889 L129.814828,87.7235399 L91.1164844,87.7235399 L76.263785,56.7049086 L121.26364,57.1553045 C138.36256,56.7049086 157.889701,62.6505384 159.062919,63.0018703 L141.735346,36.2189768 L141.735346,36.2189768" id="path14"></path>
                        <polyline id="path16" points="8.71470101 15.5979838 146.065943 13.6195245 0 0 8.71470101 15.5979838 8.71470101 15.5979838"></polyline>
                        <path d="M154.462775,38.2145419 L154.835417,38.2145419 C155.270838,38.2145419 155.624474,38.3596823 155.624474,38.7115325 C155.624474,39.0226628 155.39582,39.229891 154.898196,39.229891 C154.690277,39.229891 154.545712,39.2098478 154.462775,39.1891711 L154.462775,38.2145419 Z M154.442041,36.2868817 L153.654136,36.2868817 L153.654136,39.6861617 C153.965151,39.7482495 154.400572,39.7902942 154.960399,39.7902942 C155.602588,39.7902942 155.892869,39.6861617 156.142257,39.5410213 C156.32829,39.3959385 156.474006,39.1268529 156.474006,38.7945275 C156.474006,38.4220005 156.183149,38.1310862 155.769039,38.0070833 L155.769039,37.9657298 C156.100788,37.840863 156.287397,37.5924541 156.391069,37.1364138 C156.494165,36.6180552 156.556944,36.4106542 156.639305,36.2868817 L155.789773,36.2868817 C155.686677,36.4106542 155.624474,36.7217845 155.520226,37.1150459 C155.458023,37.4894159 155.251256,37.6547723 154.815259,37.6547723 L154.442041,37.6547723 L154.442041,36.2868817 Z M152.348448,38.0694015 C152.348448,36.555737 153.467527,35.3532029 155.001868,35.3532029 C156.494165,35.3532029 157.593661,36.555737 157.593661,38.0487248 C157.593661,39.5621588 156.494165,40.7849666 154.980558,40.7849666 C153.467527,40.7849666 152.348448,39.5621588 152.348448,38.0694015 L152.348448,38.0694015 Z M158.463927,38.0694015 C158.463927,36.141799 156.95032,34.6274433 154.980558,34.6274433 C153.032682,34.6274433 151.47703,36.141799 151.47703,38.0694015 C151.47703,39.9561113 153.032682,41.4698334 154.980558,41.4698334 C156.95032,41.4698334 158.463927,39.9561113 158.463927,38.0694015 L158.463927,38.0694015 Z" id="path18"></path>
                    </g>
                </g>
            </g>
        </g>
    </g>
</svg>