<?xml version="1.0" encoding="UTF-8"?>
<svg width="200px" height="200px" viewBox="0 0 200 200" version="1.1" xmlns="http://www.w3.org/2000/svg" xmlns:xlink="http://www.w3.org/1999/xlink">
    <!-- Generator: Sketch 55.2 (78181) - https://sketchapp.com -->
    <title>evansville</title>
    <desc>Created with Sketch.</desc>
    <g id="evansville" stroke="none" stroke-width="1" fill="none" fill-rule="evenodd">
        <g id="evansville_BGD">
            <g id="Group" transform="translate(0.000000, 17.000000)">
                <polygon id="Path" fill="#FFFFFF" points="84.6060811 91.6668919 90.4094595 86.4087838 90.4094595 25.3527027 81.9574324 17.8405405 81.9574324 4.22567568 129.190541 4.22567568 129.190541 17.8405405 120.832432 25.3527027 120.832432 47.8905405 195.560811 47.8905405 195.560811 83.2675676 181.878378 83.2675676 173.7 74.1824324 120.832432 74.1824324 120.832432 91.7418919 162.432432 91.7418919 162.432432 117.941216 120.832432 117.941216 120.832432 135.5 173.7 135.5 181.878378 126.298649 195.560811 126.298649 195.560811 161.699324 81.9574324 161.699324 81.9574324 147.989189 90.4094595 140.664865 90.4094595 117.941216 37.2601351 117.941216 12.5635135 95.9675676 12.5635135 25.3527027 4.1972973 17.8405405 4.1972973 4.22567568 51.4391892 4.22567568 51.4391892 17.8405405 43.0817568 25.3527027 43.0817568 86.4087838 48.9040541 91.6668919"></polygon>
                <path d="M77.7317568,0 L77.7317568,19.7189189 L86.2777027,27.2317568 L86.2777027,84.5304054 L82.9905405,87.4175676 L50.5,87.4175676 L47.2135135,84.5304054 L47.2135135,27.2317568 L55.6648649,19.8128378 L55.6648649,0 L0,0 L0,19.8128378 L8.41351351,27.2317568 L8.41351351,97.8459459 L35.7425676,122.166892 L86.2777027,122.166892 L86.2777027,138.693919 L77.7317568,146.112162 L77.7317568,165.944595 L199.710811,165.944595 L199.710811,122.166892 L179.991892,122.166892 L171.915541,131.275 L125.058784,131.275 L125.058784,122.166892 L166.752027,122.166892 L166.752027,87.5162162 L125.058784,87.5162162 L125.058784,78.4081081 L171.915541,78.4081081 L179.991892,87.5162162 L199.710811,87.5162162 L199.710811,43.6641892 L125.058784,43.6641892 L125.058784,27.2317568 L133.510135,19.7189189 L133.510135,0 L77.7317568,0 Z M84.6060811,91.6668919 L90.4094595,86.4087838 L90.4094595,25.3527027 L81.9574324,17.8405405 L81.9574324,4.22567568 L129.190541,4.22567568 L129.190541,17.8405405 L120.832432,25.3527027 L120.832432,47.8905405 L195.560811,47.8905405 L195.560811,83.2675676 L181.878378,83.2675676 L173.7,74.1824324 L120.832432,74.1824324 L120.832432,91.7418919 L162.432432,91.7418919 L162.432432,117.941216 L120.832432,117.941216 L120.832432,135.5 L173.7,135.5 L181.878378,126.298649 L195.560811,126.298649 L195.560811,161.699324 L81.9574324,161.699324 L81.9574324,147.989189 L90.4094595,140.664865 L90.4094595,117.941216 L37.2601351,117.941216 L12.5635135,95.9675676 L12.5635135,25.3527027 L4.1972973,17.8405405 L4.1972973,4.22567568 L51.4391892,4.22567568 L51.4391892,17.8405405 L43.0817568,25.3527027 L43.0817568,86.4087838 L48.9040541,91.6668919 L84.6060811,91.6668919 L84.6060811,91.6668919 Z" id="Fill-1" fill="#ED8B00"></path>
                <polyline id="Fill-2" fill="#470A68" points="8.41351351 8.41351351 47.2141892 8.41351351 47.2141892 16.0574324 38.8567568 23.475 38.8567568 88.3810811 47.2141892 95.8932432 86.277027 95.8932432 94.6344595 88.3810811 94.6344595 23.475 86.277027 16.0574324 86.277027 8.41351351 125.058784 8.41351351 125.058784 16.0574324 116.701351 23.475 116.701351 94.0898649 94.6344595 113.715541 38.8567568 113.715541 16.7891892 94.0898649 16.7891892 23.475 8.41351351 16.0574324 8.41351351 8.41351351"></polyline>
                <polyline id="Fill-3" fill="#470A68" points="120.833108 52.2087838 191.353378 52.2087838 191.353378 79.0655405 183.747973 79.0655405 175.672297 69.9567568 120.833108 69.9567568 120.833108 52.2087838"></polyline>
                <polyline id="Fill-4" fill="#470A68" points="158.3 95.9675676 158.3 113.715541 116.701351 113.715541 116.701351 139.632432 175.671622 139.632432 183.747973 130.524324 191.353378 130.524324 191.353378 157.473649 86.2777027 157.473649 86.2777027 149.961486 94.6351351 142.449324 94.6351351 119.35 120.833784 95.9675676 158.3 95.9675676"></polyline>
                <polyline id="Fill-5" fill="#3C1053" points="8.41689189 16.0574324 27.8168919 16.0574324 27.8168919 91.2168919 42.972973 104.907432 90.4878378 104.907432 94.6378378 113.715541 38.8601351 113.715541 16.7925676 94.0905405 16.7925676 23.4756757 8.41689189 16.0574324"></polyline>
                <polyline id="Fill-6" fill="#3C1053" points="105.681081 91.2168919 105.681081 16.0567568 86.2810811 16.0567568 94.6567568 23.4756757 94.6567568 88.3851351 94.6378378 88.3804054 86.2682432 95.8986486 90.5060811 104.907432 105.681081 91.2168919"></polyline>
                <polyline id="Fill-7" fill="#3C1053" points="47.2175676 16.0574324 27.8175676 16.0574324 38.8594595 23.4756757 47.2175676 16.0574324"></polyline>
                <polyline id="Fill-8" fill="#3C1053" points="125.081081 16.0574324 105.681081 16.0574324 116.723649 23.4756757 125.081081 16.0574324"></polyline>
                <polyline id="Fill-9" fill="#3C1053" points="110.808108 104.907432 116.70473 113.715541 158.284459 113.715541 152.519595 104.907432 110.808108 104.907432"></polyline>
                <polyline id="Fill-10" fill="#3C1053" points="120.836486 61.0925676 120.836486 69.9574324 175.675676 69.9574324 183.750676 79.0466216 191.339189 79.0466216 185.855405 61.0925676 120.836486 61.0925676"></polyline>
                <polyline id="Fill-11" fill="#3C1053" points="191.338514 157.492568 185.85473 148.646622 105.662162 148.646622 105.662162 109.508108 94.675 119.368243 94.675 142.468243 86.3182432 149.981081 86.3182432 157.492568 191.338514 157.492568"></polyline>
            </g>
        </g>
    </g>
</svg>