<svg width="200" height="200" viewBox="0 0 200 200" fill="none" xmlns="http://www.w3.org/2000/svg">
<path d="M157.224 95.6297C157.224 92.3977 156.147 89.3559 154.214 86.6943C153.834 86.8844 153.422 87.1063 153.041 87.2964C153.041 87.2964 150.887 88.4687 147.37 90.3382C149.334 92.4611 150.475 95.0277 150.475 97.816C150.475 105.009 142.839 110.807 133.428 110.807C127.503 110.807 122.275 108.494 119.233 105.009C117.522 105.864 115.843 106.688 114.227 107.512C118.694 111.599 125.412 114.197 132.921 114.197C146.324 114.197 157.224 105.864 157.224 95.6297Z" fill="#CFD4D8"/>
<path d="M101.394 105.579L100.919 139.134C96.5776 132.797 93.6308 126.206 93.6308 120.471C93.6308 116.352 94.9616 112.74 96.8945 109.635C93.6625 112.898 90.6841 117.525 90.6841 123.45C90.6841 130.642 95.6904 138.215 100.855 143.95C106.242 138.184 111.502 130.642 111.502 123.45C111.502 114.007 101.394 105.579 101.394 105.579Z" fill="#CFD4D8"/>
<path d="M48.2255 87.2964C47.8136 87.1063 47.4333 86.8844 47.0531 86.6943C45.152 89.3559 44.043 92.3977 44.043 95.6297C44.043 105.864 54.9428 114.197 68.3775 114.197C75.887 114.197 82.6043 111.599 87.072 107.512C85.4244 106.688 83.745 105.864 82.0657 105.009C79.0239 108.526 73.7957 110.807 67.8705 110.807C58.4599 110.807 50.8237 104.977 50.8237 97.816C50.8237 95.0277 51.9644 92.4611 53.9289 90.3382C50.3801 88.4687 48.2255 87.2964 48.2255 87.2964Z" fill="#CFD4D8"/>
<path d="M183.523 72.7845V70.0278C183.523 69.1406 182.826 68.4435 181.939 68.4435H179.499C182.382 61.5994 178.738 55.8644 178.738 55.8644C178.738 55.8644 177.027 58.5893 174.651 59.4765C176.837 50.763 171.387 43 171.387 43C171.387 43 170.342 50.256 149.873 57.9556C134.886 53.8998 117.712 51.6819 100.031 51.6819C82.636 51.6819 65.6842 53.8365 50.8554 57.7655C30.8618 50.1609 29.8161 43 29.8161 43C29.8161 43 24.3662 50.7313 26.5525 59.4765C24.2078 58.5893 22.4651 55.8644 22.4651 55.8644C22.4651 55.8644 18.4093 62.0114 22.1165 69.204C8.46005 77.1571 0 87.4866 0 99.3687C0 125.826 41.825 144.489 89.8604 146.834C92.4903 149.59 94.8984 151.713 96.451 153.012L100.665 156.561L104.911 153.012C106.559 151.65 109.03 149.495 111.723 146.739C159.093 144.077 200 125.541 200 99.3687C200.063 89.1976 193.884 80.1672 183.523 72.7845ZM109.315 142.556C105.988 146.137 102.788 148.925 100.729 150.636C98.669 148.925 95.5954 146.137 92.4269 142.62C43.5677 140.845 5.13307 122.151 5.13307 99.337C5.13307 88.6906 13.5298 78.9315 27.4397 71.3586C24.5563 67.2395 24.1127 63.9759 24.5563 62.455C29.1508 66.1305 33.4917 66.7325 33.4917 66.7325C28.1368 61.1875 29.024 51.4601 30.1013 49.7807C30.9251 50.8897 36.787 56.5931 51.2356 62.0114L51.3624 62.0747C65.5892 58.1774 82.2241 55.9594 99.9998 55.9594C118.061 55.9594 134.917 58.2725 149.303 62.2648L149.936 62.043C164.417 56.6248 170.247 50.8897 171.071 49.8124C172.148 51.4917 173.035 61.2192 167.68 66.7642C167.68 66.7642 172.021 66.1939 176.616 62.4866C177.091 64.0709 176.616 67.493 173.415 71.8656C186.85 79.3434 194.898 88.9441 194.898 99.3687C194.962 121.897 157.382 140.433 109.315 142.556Z" fill="#CFD4D8"/>
<path d="M173.479 71.8656C176.679 67.5247 177.154 64.1026 176.679 62.4867C172.084 66.1622 167.743 66.7642 167.743 66.7642C173.098 61.2193 172.211 51.4918 171.134 49.8124C170.31 50.9214 164.448 56.6249 149.999 62.0431L149.366 62.2649C134.981 58.2725 118.124 55.9595 100.063 55.9595C82.2874 55.9595 65.6524 58.2091 51.4256 62.0748L51.2988 62.0114C36.8185 56.5932 30.9884 50.8581 30.1645 49.7808C29.0872 51.4601 28.2 61.1876 33.5549 66.7326C33.5549 66.7326 29.214 66.1622 24.6196 62.455C24.176 64.0076 24.5879 67.2395 27.503 71.3587C13.5613 78.8998 5.19629 88.659 5.19629 99.337C5.19629 122.151 43.6309 140.845 92.4901 142.62C95.6587 146.137 98.7322 148.893 100.792 150.636C102.82 148.925 106.052 146.137 109.379 142.556C157.446 140.433 195.025 121.897 195.025 99.337C194.961 88.9125 186.913 79.3434 173.479 71.8656ZM140.43 72.1825C157.287 67.1445 167.87 57.417 167.87 57.417C167.87 57.417 168.029 71.7389 139.638 81.403C120.31 87.9619 107.858 96.9606 103.327 102.791C102.883 86.6945 132.065 74.7173 140.43 72.1825ZM137.484 99.6222C137.484 102.284 134.664 104.438 131.178 104.438C128.707 104.438 126.584 103.361 125.538 101.809C129.087 99.9708 132.604 98.1647 135.868 96.4537C136.882 97.2775 137.484 98.3865 137.484 99.6222ZM33.3648 57.417C33.3648 57.417 43.9478 67.1445 60.8045 72.1825C69.2012 74.6856 98.352 86.6945 97.9084 102.759C93.3773 96.9289 80.9249 87.9302 61.5967 81.3713C33.2064 71.7389 33.3648 57.417 33.3648 57.417ZM67.8387 110.839C73.7639 110.839 78.9921 108.526 82.0339 105.04C83.7449 105.896 85.4242 106.72 87.0402 107.544C82.5725 111.631 75.8552 114.229 68.3457 114.229C54.911 114.229 44.0112 105.928 44.0112 95.6615C44.0112 92.4296 45.0885 89.3878 47.0213 86.7262C47.4015 86.9163 47.8134 87.1381 48.1937 87.3282C48.1937 87.3282 50.3483 88.5006 53.8654 90.37C51.9009 92.4929 50.7602 95.0595 50.7602 97.8478C50.7919 105.009 58.4281 110.839 67.8387 110.839ZM63.783 99.6222C63.783 98.3865 64.385 97.2775 65.3672 96.422C68.6309 98.133 72.148 99.9707 75.6968 101.777C74.6511 103.329 72.5282 104.407 70.0567 104.407C66.603 104.438 63.783 102.284 63.783 99.6222ZM22.2115 99.337C22.2115 91.7642 26.7742 84.73 34.6005 78.8365C35.2659 79.3751 35.9313 79.8821 36.6918 80.4207C33.5232 84.5715 31.7171 89.4194 31.7171 94.5525C31.7171 96.5804 32.0023 98.5449 32.5093 100.446L26.9009 97.9112C24.9047 114.451 54.4357 128.234 77.0909 123.386L73.7956 129.724L82.224 126.84C83.5865 130.357 85.5193 133.684 87.6739 136.694C50.5701 133.811 22.2115 118.19 22.2115 99.337ZM100.855 143.95C95.6904 138.215 90.684 130.642 90.684 123.45C90.684 117.525 93.6625 112.898 96.8944 109.635C94.9616 112.708 93.6308 116.352 93.6308 120.471C93.6308 126.175 96.6093 132.797 100.918 139.134L101.394 105.579C101.394 105.579 111.501 114.007 111.501 123.45C111.501 130.642 106.21 138.184 100.855 143.95ZM119.201 105.009C122.243 108.526 127.471 110.807 133.396 110.807C142.807 110.807 150.443 104.977 150.443 97.8161C150.443 95.0278 149.302 92.4613 147.338 90.3383C150.855 88.4689 153.01 87.2965 153.01 87.2965C153.422 87.1064 153.802 86.8846 154.182 86.6945C156.083 89.3561 157.192 92.3979 157.192 95.6298C157.192 105.864 146.292 114.198 132.858 114.198C125.348 114.198 118.631 111.599 114.163 107.512C115.842 106.72 117.522 105.864 119.201 105.009ZM114.322 136.536C116.444 133.653 118.346 130.516 119.74 127.157L127.154 129.724L123.891 123.386C146.546 128.203 176.045 114.419 174.049 97.8795L168.441 100.414C168.979 98.5132 169.233 96.5487 169.233 94.5208C169.233 89.4194 167.458 84.6666 164.385 80.5475C164.987 80.1039 165.557 79.692 166.096 79.2484C173.574 85.0785 177.915 91.9543 177.915 99.3054C177.883 117.873 150.475 133.272 114.322 136.536Z" fill="#00447C"/>
<path d="M61.5966 81.3713C80.9249 87.9302 93.3773 96.9289 97.9083 102.759C98.3519 86.6945 69.2012 74.6856 60.8045 72.1825C43.9478 67.1445 33.3648 57.417 33.3648 57.417C33.3648 57.417 33.2063 71.7389 61.5966 81.3713Z" fill="#D31245"/>
<path d="M139.638 81.3713C168.028 71.7071 167.87 57.3853 167.87 57.3853C167.87 57.3853 157.287 67.1127 140.43 72.1507C132.033 74.6539 102.883 86.6627 103.326 102.727C107.889 96.9289 120.341 87.9619 139.638 81.3713Z" fill="#D31245"/>
<path d="M73.7956 129.723L77.1226 123.355C54.4674 128.203 24.9047 114.419 26.9009 97.8794L32.5092 100.414C31.9706 98.5131 31.7171 96.5486 31.7171 94.5207C31.7171 89.356 33.5232 84.5398 36.6917 80.389C35.963 79.8503 35.2659 79.3117 34.6005 78.8047C26.7425 84.7299 22.2114 91.7641 22.2114 99.3053C22.2114 118.158 50.5384 133.811 87.6422 136.694C85.4876 133.684 83.5547 130.357 82.1923 126.84L73.7956 129.723Z" fill="white"/>
<path d="M166.064 79.2483C165.525 79.6602 164.955 80.1038 164.353 80.5474C167.458 84.6665 169.201 89.4511 169.201 94.5207C169.201 96.5486 168.916 98.5131 168.409 100.414L174.017 97.8794C176.013 114.419 146.514 128.171 123.859 123.386L127.122 129.723L119.708 127.157C118.314 130.484 116.412 133.652 114.29 136.536C150.443 133.272 177.851 117.841 177.851 99.3053C177.883 91.9542 173.542 85.0784 166.064 79.2483Z" fill="white"/>
<path d="M75.6965 101.808C72.1477 99.9707 68.6306 98.1646 65.367 96.4536C64.3847 97.3091 63.7827 98.4181 63.7827 99.6539C63.7827 102.315 66.6027 104.47 70.0881 104.47C72.5279 104.438 74.6509 103.361 75.6965 101.808Z" fill="white"/>
<path d="M125.538 101.808C126.584 103.361 128.707 104.438 131.178 104.438C134.664 104.438 137.484 102.284 137.484 99.6221C137.484 98.3864 136.882 97.2774 135.899 96.4219C132.604 98.1329 129.119 99.9707 125.538 101.808Z" fill="white"/>
<path d="M181.337 73.45C180.893 73.8619 180.386 74.0837 179.784 74.0837C179.15 74.0837 178.643 73.8619 178.2 73.45C177.756 73.0064 177.566 72.4994 177.566 71.8657C177.566 71.232 177.788 70.6616 178.263 70.2497C178.707 69.8378 179.214 69.6477 179.784 69.6477C180.386 69.6477 180.925 69.8695 181.368 70.3131C181.812 70.7567 182.034 71.2637 182.034 71.8974C182.002 72.4994 181.78 73.0381 181.337 73.45ZM178.453 70.5666C178.105 70.9151 177.914 71.3587 177.914 71.8657C177.914 72.3727 178.105 72.8163 178.453 73.1648C178.802 73.5134 179.245 73.7035 179.752 73.7035C180.259 73.7035 180.703 73.5134 181.051 73.1648C181.4 72.8163 181.59 72.3727 181.59 71.8657C181.59 71.3587 181.4 70.9468 181.051 70.5666C180.703 70.1864 180.259 70.0279 179.752 70.0279C179.245 70.0279 178.833 70.218 178.453 70.5666ZM178.802 73.1014V70.63C178.96 70.63 179.182 70.63 179.499 70.63C179.816 70.63 179.974 70.63 180.006 70.63C180.196 70.63 180.354 70.6933 180.481 70.7567C180.703 70.8834 180.798 71.0736 180.798 71.3587C180.798 71.5805 180.734 71.7073 180.639 71.8023C180.513 71.8974 180.386 71.9608 180.228 71.9608C180.386 71.9924 180.513 72.0558 180.576 72.0875C180.734 72.2142 180.798 72.4044 180.798 72.6261V72.848C180.798 72.8796 180.798 72.9113 180.798 72.9113C180.798 72.943 180.798 72.9747 180.83 72.9747L180.861 73.0381H180.259C180.228 72.9747 180.228 72.848 180.228 72.6895C180.228 72.5311 180.196 72.436 180.196 72.3727C180.164 72.2776 180.101 72.2142 180.006 72.1826C179.942 72.1509 179.879 72.1509 179.784 72.1509H179.657H179.53V73.0064H178.802V73.1014ZM179.974 71.1369C179.879 71.1052 179.752 71.0736 179.594 71.0736H179.435V71.8023H179.689C179.847 71.8023 179.942 71.7706 180.037 71.7073C180.132 71.6439 180.164 71.5488 180.164 71.4221C180.164 71.2954 180.101 71.1686 179.974 71.1369Z" fill="#00447C"/>
</svg>
