<?xml version="1.0" encoding="UTF-8"?>
<svg width="200px" height="200px" viewBox="0 0 200 200" version="1.1" xmlns="http://www.w3.org/2000/svg" xmlns:xlink="http://www.w3.org/1999/xlink">
    <!-- Generator: Sketch 54.1 (76490) - https://sketchapp.com -->
    <title>georgia-st</title>
    <desc>Created with Sketch.</desc>
    <g id="georgia-st" stroke="none" stroke-width="1" fill="none" fill-rule="evenodd">
        <g id="georgia-st_BGL" transform="translate(-0.000000, 0.000000)">
            <g id="georgia-st" transform="translate(0.000000, 19.000000)">
                <g id="g10" transform="translate(99.453549, 81.229510) scale(-1, 1) rotate(-180.000000) translate(-99.453549, -81.229510) translate(0.000000, 0.355195)" fill-rule="nonzero">
                    <g id="g12">
                        <path d="M191.843492,142.21486 C191.843492,142.21486 187.143165,142.209614 183.565678,142.209614 C181.49923,142.209614 180.233875,142.210488 179.781416,142.21486 C162.266881,142.262729 154.918029,145.809395 145.611362,150.299668 L145.220324,150.488302 C135.226226,155.380761 122.786008,161.466007 98.7593418,161.466007 L98.4843691,161.466007 L98.1940959,161.466007 C74.1658998,161.466007 61.7272116,155.380761 51.733332,150.488302 L51.3405452,150.299668 C42.0356274,145.809395 34.6865565,142.262729 17.1499231,142.21486 C16.7187537,142.210488 15.4525242,142.209614 13.3854204,142.209614 C9.81044784,142.209614 5.11014195,142.21486 5.11014195,142.21486 L0,142.219887 L1.08008959,137.226007 C1.25341636,136.42251 5.41495068,117.958467 21.3558683,110.131582 C22.6955186,107.619451 24.8207644,104.460325 28.084808,101.402839 C28.1309283,98.8883035 28.2299446,94.3460086 28.3785785,91.4789048 C28.6397807,81.8673204 30.5370484,73.3315829 34.0163926,66.1057907 C37.9567204,56.8869931 43.9267749,49.2196709 51.7589058,43.3213104 L51.8185779,43.2769388 C53.3615287,42.1114744 55.6933319,40.3525673 56.1816379,39.6354088 C56.9586871,38.4102723 57.763933,35.3422942 58.4758455,32.6273216 C60.0222936,26.7530048 62.1405449,18.7081525 67.7569382,12.1379888 C74.4133315,4.34255727 85.0205443,0.146004149 98.4314729,0.000853825115 L98.4767188,0.000853825115 L98.5210904,0.000853825115 C111.932238,0.146004149 122.538358,4.34255727 129.194095,12.1354095 C134.812237,18.7081525 136.929614,26.7530048 138.477592,32.6358462 C139.187975,35.3422942 139.993221,38.4102723 140.774423,39.6413105 C141.258576,40.3525673 143.592128,42.1114744 145.13486,43.2769388 L145.190379,43.3197803 C153.026881,49.2196709 158.996717,56.8869931 162.937264,66.1057907 C166.416389,73.3315829 168.311908,81.8673204 168.574859,91.4789048 C168.721744,94.3460086 168.820105,98.8883035 168.866881,101.402839 C172.132892,104.460325 174.257263,107.619451 175.597591,110.131582 C191.538574,117.958467 195.698356,136.42251 195.873438,137.226007 L196.953656,142.219887 L191.843492,142.21486" id="path14" fill="#FFFFFF"></path>
                        <path d="M70.7973753,14.5944259 C65.7744246,20.4713219 63.8703809,27.7116933 62.3385777,33.5280866 C61.4727853,36.8279772 60.6539876,39.9427312 59.5328947,41.7119115 C58.7140969,43.0166109 56.4686325,44.7044798 54.0939877,46.4959551 C48.9497256,50.3696162 42.1866656,56.9339876 37.5862286,67.7219655 L37.5615291,67.7748617 C37.5530045,67.7818562 37.5512559,67.7945338 37.5512559,67.7989054 C34.6251357,73.8542058 32.5453544,81.5820745 32.278032,91.6760633 C32.067103,95.6942053 31.9543161,103.354752 31.9543161,103.354752 C27.8697261,106.78273 25.4883054,110.515626 24.1462289,113.3718 C8.74316918,120.040216 4.79849168,138.284587 4.79849168,138.284587 C4.79849168,138.284587 15.414098,138.273658 16.9151253,138.284587 C35.6933324,138.336827 43.8310372,142.39322 53.3871025,147.002182 C63.8004356,152.09945 75.4236047,157.645242 98.4767188,157.599996 C121.529177,157.645242 133.151472,152.09945 143.566335,147.002182 C153.122401,142.39322 161.25945,138.336827 180.037591,138.284587 C181.5377,138.273658 192.154968,138.284587 192.154968,138.284587 C192.154968,138.284587 188.210487,120.040216 172.807427,113.3718 C171.465132,110.515626 169.083056,106.78273 164.999122,103.354752 C164.999122,103.354752 164.886335,95.6942053 164.67475,91.6760633 C164.408302,81.5820745 162.326772,73.8542058 159.4024,67.7989054 C159.4024,67.7945338 159.398029,67.7818562 159.392127,67.7748617 L159.366553,67.7219655 C154.766116,56.9339876 148.003712,50.3696162 142.85945,46.4959551 C140.484149,44.7044798 138.238466,43.0166109 137.420543,41.7119115 C136.29792,39.9427312 135.480652,36.8279772 134.613986,33.5280866 C133.083057,27.7116933 131.179232,20.4713219 126.154314,14.5944259 C120.194751,7.61698342 110.670161,3.99846985 98.4767188,3.86612012 C86.2832765,3.99846985 76.7580309,7.61698342 70.7973753,14.5944259" id="path16" fill="#264391"></path>
                        <path d="M139.075406,66.8485229 C139.085461,66.8614191 140.626663,68.748195 141.726335,71.4891785 C141.758029,71.5702714 141.786226,71.6496157 141.816171,71.7307086 C130.434532,73.286337 120.442183,72.4196703 117.810707,72.1422933 C123.913002,71.2585775 131.887866,69.3571567 138.742292,66.4472115 L139.075406,66.8485229 Z M128.201745,92.0858993 C129.061636,92.0841507 129.93945,92.0227299 130.824696,91.8946425 C128.754314,93.4358447 126.52568,94.9565004 124.24874,96.3643692 C121.91344,95.1186861 120.534423,93.1873201 119.63803,91.2721289 L119.010489,89.9565005 L120.382511,90.5132218 C122.593877,91.4087409 125.298795,92.0858993 128.201745,92.0858993 Z M142.447865,73.734643 C142.932018,75.7283041 142.947319,77.606774 142.488084,79.3554079 C132.172237,79.1853532 123.639778,77.2994516 121.943385,76.8981402 C124.069287,76.8083041 132.963713,76.2944243 142.447865,73.734643 L142.447865,73.734643 Z M141.476281,81.7589051 C140.763275,82.9046974 139.600434,84.2690689 138.101854,85.7505989 C131.68721,84.7473203 126.61792,82.8791236 124.570489,82.045681 C127.396718,82.2627302 134.402401,82.6358449 141.476281,81.7589051 L141.476281,81.7589051 Z M89.4015278,16.3063602 C80.5335499,16.3063602 77.3967194,21.9672126 77.3967194,21.9672126 C74.6139872,26.3669939 73.2854626,31.6880866 72.0935501,36.4139882 C71.0620747,40.5062285 70.093113,44.331365 68.3683043,47.1763923 C66.7965011,49.7975944 64.1265558,51.91519 60.9674302,54.3980314 C54.4526762,59.5038236 45.8043704,66.8638235 42.9995618,82.3787958 L45.7744251,82.3787958 C49.0974851,99.4159538 57.9499439,111.344697 59.4065559,113.219669 C58.2010914,115.644587 57.9123483,118.52109 57.9029494,118.555407 C58.7175942,118.317156 59.9565012,118.023385 61.1175941,117.770707 C64.8310366,119.81639 68.1197797,121.228631 70.7999982,122.196937 C71.3123479,125.325243 71.9868834,127.870598 72.6024026,129.570489 C73.5160637,132.085024 74.8804353,133.361527 75.5379216,133.898576 C78.1720199,136.051144 80.3884133,137.127647 80.3884133,137.127647 C79.239998,133.1071 78.6142057,128.024259 78.2804352,124.122183 C79.7191237,121.736609 83.1634952,118.427319 85.1392328,116.624041 C86.4924569,117.786008 87.8723475,119.036937 88.8874295,119.9718 C89.1923475,125.935735 89.3912546,134.018139 89.483495,138.355625 C87.1267738,143.133548 84.5252438,147.321526 82.8850253,149.819013 C55.2791243,145.751472 53.3495069,130.544696 17.5145132,130.544696 C17.9952127,129.738795 18.8977044,128.375953 20.2655295,126.893767 C22.4445896,124.523494 26.1278682,121.777702 30.7659009,120.599341 C30.7752998,120.599341 31.0808735,118.841309 32.1558462,116.763057 C33.1814199,114.775516 34.9436057,112.225134 37.9355182,109.846336 C37.9355182,109.846336 37.9372668,109.848959 37.9414198,109.850489 C38.7637149,111.233877 39.6644799,112.623822 40.5720208,113.96262 C38.2069936,116.075844 36.741857,118.249615 35.8393434,119.995625 C34.767868,122.074751 34.4476494,123.829505 34.4476494,123.829505 C33.1626221,124.088084 29.4620758,124.963276 26.2013108,127.087647 C31.5984692,126.428412 39.8745345,127.198685 51.9501626,132.306226 L51.948414,132.305352 L51.9501626,132.305352 C51.9501626,132.305352 51.0826217,129.106008 49.1248075,125.863166 C53.2531134,126.594095 59.1068838,127.856827 63.8574847,130.790598 C59.1768291,123.879778 54.6218566,121.972237 52.9687418,119.998248 C51.0041517,117.698139 41.4233869,105.688085 39.7335509,98.8063363 C35.7497259,62.0397799 60.7973755,54.5578128 66.1398891,45.891365 C71.4703807,36.8579226 69.6644791,15.7428193 88.6756262,10.8230817 C88.6756262,10.8230817 97.6546424,8.2590599 100.492675,20.6779448 C100.492675,20.6779448 96.0211998,16.3063602 89.4015278,16.3063602 Z M113.678249,94.0275386 C113.003713,96.2909266 111.925462,98.5304893 111.163713,98.8959538 C109.94885,99.5969374 106.157812,100.289396 103.167648,99.8625112 C104.14273,101.462511 106.670161,102.755189 108.640653,103.357156 C107.283057,104.214424 105.686555,104.415954 104.469724,104.412675 C103.816609,104.368959 103.173768,104.308413 102.570052,104.237593 C103.604806,106.841746 107.156719,108.740544 109.127429,109.083932 C107.020107,110.461855 102.41814,111.764806 98.4767188,105.589068 C94.5440414,111.75038 89.9547518,110.46885 87.8415279,109.093986 C89.8754076,108.801309 93.7381397,107.136172 94.3818556,104.237593 L94.3827299,104.237593 L94.3827299,104.237593 L94.3827299,104.237593 C94.1829485,104.271691 93.9855714,104.301637 93.7901616,104.331364 C92.6802163,104.467976 90.2203256,104.583385 88.273659,103.331582 C90.1724568,102.687866 92.571801,101.318249 93.5536589,99.7123472 C89.1503803,100.456828 84.8504897,98.4546423 83.4655717,97.1302708 L82.5742056,96.2909266 C79.9377029,101.139888 74.4406539,97.4692872 72.7178124,96.3584675 C75.0461183,95.1127845 76.4190145,93.1838228 77.3147522,91.2721289 L77.9440418,89.9556262 L77.476938,90.14426 C75.4609817,90.8957354 67.2275393,93.2854621 59.0974849,85.9606536 C62.3471023,85.1416372 66.5359546,83.8371564 69.5363917,82.1995608 C62.6467744,82.8902712 54.8052445,80.4021838 54.8052445,80.4021838 C54.8052445,80.4021838 65.7873208,79.6430581 72.2439326,76.7145336 C61.9816378,76.5265555 54.7669932,72.8192332 54.7669932,72.8192332 C54.7669932,72.8192332 60.0410914,73.2290692 63.44437,73.2290692 C67.0918016,73.2290692 71.8450255,72.8365009 76.358468,71.6622933 C67.2703808,70.6163917 58.9711461,65.6061186 58.9711461,65.6061186 C58.9711461,65.6061186 73.7816375,66.9278672 84.7182492,67.3267743 C84.8207629,67.3309273 82.5742056,69.6618562 81.2952985,73.6406539 C85.6257902,71.273878 90.3134404,69.7473207 94.4518009,69.6004354 C92.9737682,70.7377031 91.4063365,72.2959545 89.8522382,74.0231675 C89.7165005,74.1956266 89.5713639,74.3536593 89.557812,74.6806539 C89.5816371,75.2826211 90.1962819,75.4080855 90.4107081,75.4080855 C90.6122382,75.4080855 90.796719,75.3722386 90.9965005,75.3125664 C91.1901617,75.2570473 91.3652436,75.2314735 91.5224021,75.2314735 C91.7307081,75.2314735 91.8911452,75.2782495 92.0268829,75.361091 C92.2839321,75.5276484 92.4837135,75.9075391 92.4837135,76.5547522 C92.4922381,77.4555172 92.0603256,78.7508177 91.2244786,79.9700526 C90.0998885,81.635845 88.5169377,82.6255717 87.6749705,82.5930034 C87.4531126,82.5871018 87.2994514,82.5444788 87.1628394,82.4504897 C86.9081945,82.292457 86.716282,81.9254624 86.7084131,81.2994515 C86.6854623,80.7650253 86.5949705,80.0349707 85.7154077,79.9239324 C85.2074296,79.9530035 84.9385771,80.2518013 84.6850252,80.6078668 C82.3591236,84.0028394 80.7095062,86.8655716 80.6539871,88.3862273 C80.65661,88.5989049 80.6780308,88.8507082 80.8572657,89.0719103 C81.3610909,89.7311453 82.1746428,89.8454622 83.0909269,89.8651344 C87.4743148,89.8360633 96.9151888,86.1228394 98.4802161,85.5071017 C100.044369,86.1228394 109.479123,89.8292874 113.859232,89.8590141 C114.194751,89.8539868 114.503822,89.8360633 114.796718,89.7864458 C114.557811,90.8657901 114.169177,92.4581398 113.678249,94.0275386 L113.678249,94.0275386 Z M114.071035,149.819887 C112.429068,147.322401 109.827538,143.133548 107.471036,138.355625 C107.562402,134.018139 107.761309,125.935735 108.066008,119.9718 C109.082183,119.036937 110.460981,117.786008 111.814423,116.624041 C113.816609,118.45027 117.325899,121.823822 118.72874,124.215297 C118.72874,124.215297 127.399341,123.13945 139.399778,115.681309 C138.375079,118.49639 136.716281,122.157593 136.300324,123.065134 C134.799341,123.866882 132.515407,125.172456 130.276718,126.791254 C126.397811,129.595188 127.60415,135.078467 127.60415,135.078467 C133.55956,131.218357 142.336827,127.824478 147.623821,126.208959 C145.809395,129.330707 145.002619,132.305352 145.002619,132.305352 C157.078247,127.196937 173.03628,124.941855 179.439996,130.543822 C143.604805,130.543822 141.672565,145.750597 114.071035,149.819887 L114.071035,149.819887 Z M110.123713,80.3731127 C110.339888,81.3370471 110.220325,82.1182493 109.726773,82.4478668 C108.828631,83.0480854 107.037156,81.944916 105.724806,79.9846975 C104.407429,78.023386 104.068413,75.946009 104.966773,75.3466648 C105.265571,75.1460091 105.662511,75.1348615 106.106664,75.2826211 C106.243276,75.3269927 106.529178,75.4594517 106.815298,75.805244 C107.833877,77.0244789 108.826008,78.3051347 109.746445,79.5772658 C110.011145,79.9409816 110.093986,80.2323477 110.123713,80.3731127 L110.123713,80.3731127 Z M91.3396698,56.5984685 L94.7532217,52.363496 C94.7532217,52.363496 96.6572653,54.7352992 98.4802161,57.1361734 C100.294642,54.7352992 102.208741,52.363496 102.208741,52.363496 L105.622511,56.5984685 C106.926336,54.3938784 108.147101,52.363496 108.147101,52.363496 C110.123713,54.7840423 110.964806,57.8262281 111.323494,59.7473209 C107.27038,59.9095067 102.941418,60.0161734 98.4802161,60.0161734 C94.0155168,60.0161734 89.6883038,59.9095067 85.6343148,59.7473209 C85.9947519,57.8262281 86.8382492,54.7840423 88.8115825,52.363496 C88.8115825,52.363496 90.0340961,54.3938784 91.3396698,56.5984685 Z M116.209833,43.5586874 C121.560871,48.2052447 123.242838,55.5438237 123.750817,59.0214193 C120.753877,59.2408728 117.413768,59.4612007 113.83191,59.6336597 C116.034751,53.9455724 115.287647,44.8137694 115.302292,43.9855727 C115.317593,43.0550809 115.676281,43.0909279 116.209833,43.5586874 Z M73.2010911,59.0214193 C73.7208725,55.5438237 75.399561,48.2052447 80.7479761,43.5586874 C81.2891783,43.0909279 81.6393422,43.0550809 81.6555171,43.9855727 C81.6692876,44.8137694 80.9239324,53.9455724 83.1267739,59.6336597 C79.5431674,59.4612007 76.2065555,59.2408728 73.2010911,59.0214193 Z M86.6349705,28.5672124 C86.8767191,28.7575949 87.1243694,28.9429501 87.3890689,29.1162834 C88.5348612,29.8778135 89.8249158,30.2579227 91.2236043,30.2579227 C92.6622928,30.2579227 93.9720195,29.8719118 95.1178118,29.5219665 C96.2500522,29.1803271 97.3258992,28.8618572 98.4767188,28.8618572 C99.6218554,28.8618572 100.695954,29.1803271 101.831473,29.5219665 C102.981637,29.8719118 104.286118,30.2579227 105.729178,30.2579227 C107.125243,30.2579227 108.416172,29.8778135 109.558467,29.1162834 C109.827538,28.9429501 110.076937,28.7575949 110.318467,28.5672124 C115.219451,35.2100538 111.360216,45.5352994 111.129615,43.1206547 C110.711254,38.7687422 109.005243,36.089398 107.421418,34.521092 C106.226008,35.8590155 104.859888,37.0330045 104.859888,37.0330045 C104.859888,37.0330045 102.949943,34.9497259 101.671036,33.2548626 C100.396937,34.9521303 98.4767188,37.0330045 98.4767188,37.0330045 C98.4767188,37.0330045 96.5693965,35.3892887 95.2911452,33.7584691 C94.0163911,35.3936603 92.0944239,37.0330045 92.0944239,37.0330045 C92.0944239,37.0330045 90.7326753,35.8590155 89.5363912,34.5099445 C87.9490688,36.0834964 86.2380306,38.7560646 85.8222929,43.1206547 C85.5899432,45.5352994 81.7383586,35.2100538 86.6349705,28.5672124 L86.6349705,28.5672124 Z M75.5088506,106.8365 C75.5258998,106.823822 75.5217467,106.751254 75.5217467,106.74273 C75.5217467,106.636719 75.496173,106.500981 75.3851347,106.398467 C75.2817468,106.290926 75.1416375,106.261855 75.0605446,106.267975 C74.836938,106.2765 74.7540965,106.354096 74.729397,106.363495 C72.5606539,107.873877 71.3422933,110.717156 70.7700529,112.771582 C68.880654,112.664041 66.7307087,112.369396 64.4406541,111.82885 C66.2891787,110.713003 69.5672114,108.402402 71.9543151,104.824915 C73.97202,105.140981 76.1698342,105.233003 77.987539,105.233003 C78.6039325,105.233003 79.1674297,105.219451 79.6703805,105.201527 C79.7003259,105.209178 79.7361729,105.209178 79.7661182,105.201527 C80.8854625,105.219451 81.4874297,105.849615 81.5018559,106.618795 C81.5018559,106.858795 81.4351892,107.123495 81.2900526,107.401746 C80.2596701,109.361309 79.0146428,111.144041 77.5186866,112.032128 C77.2797795,112.174642 76.882621,112.325025 76.3669926,112.449615 C75.6404353,111.140762 75.4236047,109.52109 75.4236047,108.246992 C75.4236047,107.691363 75.4594517,107.20721 75.5088506,106.8365 Z M121.529177,108.246992 C121.529177,109.52109 121.313221,111.140762 120.585789,112.449615 C120.070817,112.325025 119.672128,112.174642 119.434751,112.032128 C117.93639,111.144041 116.692238,109.361309 115.660762,107.401746 C115.515626,107.123495 115.451582,106.858795 115.451582,106.618795 C115.464478,105.849615 116.066445,105.219451 117.184915,105.201527 C117.217483,105.209178 117.251582,105.209178 117.281527,105.201527 C117.785134,105.219451 118.348631,105.233003 118.965243,105.233003 C120.782073,105.233003 122.980762,105.140981 124.997374,104.824915 C127.386445,108.402402 130.66251,110.713003 132.511035,111.82885 C130.222948,112.369396 128.071254,112.664041 126.182511,112.771582 C125.610489,110.717156 124.391254,107.873877 122.222511,106.363495 C122.19956,106.354096 122.115844,106.2765 121.892019,106.267975 C121.810926,106.261855 121.671691,106.290926 121.567647,106.398467 C121.456609,106.500981 121.431035,106.636719 121.431035,106.74273 C121.431035,106.751254 121.426664,106.823822 121.443713,106.8365 C121.492456,107.20721 121.529177,107.691363 121.529177,108.246992 L121.529177,108.246992 Z M139.687428,110.116937 L144.562838,108.440872 C143.532237,108.043057 135.762401,104.821637 130.464478,97.8902708 C128.492237,99.0061177 126.273877,99.8240412 124.621855,100.347538 C125.778795,100.386008 127.106445,100.386008 128.398248,100.289396 L128.791035,100.263823 L128.991691,100.59344 C132.208084,105.876937 138.106226,109.275189 139.687428,110.116937 L139.687428,110.116937 Z" id="path18" fill="#FFFFFF"></path>
                        <path d="M138.590379,9.86850249 L139.631909,9.86850249 L139.631909,14.205945 L141.326772,14.205945 L141.326772,15.070863 L136.889614,15.070863 L136.889614,14.205945 L138.590379,14.205945 L138.590379,9.86850249 Z M143.166772,14.069333 L144.62098,9.86850249 L145.449177,9.86850249 L146.893767,14.069333 L146.893767,9.86850249 L147.845898,9.86850249 L147.845898,15.070863 L146.364368,15.070863 L145.036718,11.3481964 L143.702947,15.070863 L142.21486,15.070863 L142.21486,9.86850249 L143.166772,9.86850249 L143.166772,14.069333 L143.166772,14.069333 Z" id="path20" fill="#264391"></path>
                    </g>
                </g>
            </g>
        </g>
    </g>
</svg>