<?xml version="1.0" encoding="UTF-8"?>
<svg width="200px" height="200px" viewBox="0 0 200 200" version="1.1" xmlns="http://www.w3.org/2000/svg" xmlns:xlink="http://www.w3.org/1999/xlink">
    <!-- Generator: Sketch 54.1 (76490) - https://sketchapp.com -->
    <title>hartford</title>
    <desc>Created with Sketch.</desc>
    <g id="hartford" stroke="none" stroke-width="1" fill="none" fill-rule="evenodd">
        <g id="hartford_BGL" transform="translate(0.000000, 0.000000)">
            <g id="hartford" transform="translate(0.000000, 8.000000)">
                <g id="g10" transform="translate(100.015451, 92.277548) scale(-1, 1) rotate(-180.000000) translate(-100.015451, -92.277548) translate(0.061814, 0.050692)" fill-rule="nonzero">
                    <g id="g12" transform="translate(0.111266, 0.000000)">
                        <path d="M147.666818,177.215264 L133.050221,115.214956 L122.939388,122.642062 L90.1098417,122.600522 L90.2052829,122.642062 L90.2052829,122.643051 L103.070558,177.215264 L58.5876666,177.215264 L53.7980515,156.899393 L43.1316324,110.388005 C47.10975,110.437828 51.1729241,110.489752 55.2393125,110.547857 C57.369555,110.573695 59.498685,110.615234 61.616441,110.657763 L61.616441,106.843576 C59.4871875,106.931723 57.3466838,107.016904 55.2040784,107.087495 C48.2645638,107.330178 34.8214487,107.776353 34.819347,107.776353 L34.203059,105.13775 L41.420614,104.79431 L39.7738825,97.2375188 C39.7790749,97.2375188 39.7842673,97.2375188 39.7894597,97.2375188 C46.4861679,97.3641144 54.0325748,97.4595556 61.616441,97.5851621 L61.616441,94.209857 C53.8520772,94.527335 46.1292524,94.8136586 39.3153444,95.1114796 L39.311141,95.1114796 C36.6975111,95.2267014 31.9172917,95.4632027 31.914201,95.4632027 L31.4451545,93.4285249 L38.6013899,93.0269796 L37.0263629,86.1093473 C43.8910822,86.3333621 52.6567133,86.4527872 61.616441,86.6136279 L61.616441,83.3451378 C52.5031667,83.7622603 43.5880688,84.1306732 36.6725381,84.5539772 L36.6725381,84.5528645 L29.4374278,84.9596023 L29.4374278,84.9607149 L29.4363151,84.9607149 C29.2537159,84.187666 29.0700039,83.4115263 28.8864156,82.6322959 L28.9019928,82.6301942 L35.6391275,81.9931366 L18.5052074,7.19643932 L62.9892118,7.19643932 L77.981392,70.8846219 L77.6421554,71.0589381 L122.637487,71.0589381 L122.637487,70.8846219 L122.599162,70.8846219 L107.5851,7.19643932 L152.069228,7.19643932 L192.150822,177.215264 L147.666818,177.215264" id="path14" fill="#DD1731"></path>
                        <polyline id="path16" fill="#FFFFFF" points="140.011741 84.9589841 128.590941 84.9589841 128.590941 93.4279068 140.011741 93.4279068 140.011741 84.9589841"></polyline>
                        <path d="M92.8224981,86.2759985 C88.9740667,86.6215401 84.4843743,86.9058856 79.671888,86.9815463 C74.8585362,86.9867387 69.7223905,86.7543171 64.5883464,86.6682717 C54.6149886,86.4772656 44.6488012,86.3579642 37.0267337,86.1089764 L38.6017607,93.0266087 L31.4454018,93.4292667 L29.6597118,85.898437 C25.8216652,85.7903857 23.5088234,85.7249863 23.5088234,85.7249863 L23.5057327,85.2924102 C23.5057327,85.2924102 25.7324055,85.1677926 29.437675,84.960344 L29.437675,84.959355 L36.6727854,84.5526173 L36.6727854,84.5536063 C44.3313233,84.0846834 54.4448758,83.6840035 64.562508,83.2088992 C69.6954395,82.9795683 74.8263928,82.604974 79.6387555,82.4764003 C84.4511183,82.4181713 88.9448904,82.578023 92.7965361,82.816626 C100.501682,83.2616885 105.641907,84.1520609 105.641907,84.1520609 L107.016904,84.5837716 C107.016904,84.5837716 100.518248,85.6160696 92.8224981,86.2759985" id="path18" fill="#231F20"></path>
                        <path d="M109.002501,95.5331764 C109.002501,95.5331764 103.217924,96.5583039 94.5332692,97.2130404 C90.1908183,97.5554913 85.124399,97.8387242 79.693523,97.9133958 C74.2616579,97.9175992 68.4666959,97.6871556 62.6717339,97.6020992 C54.7341665,97.4682096 46.7964754,97.3696777 39.7895833,97.2369007 C39.7843909,97.2369007 39.7791985,97.2369007 39.7740061,97.2369007 L41.4207376,104.793692 L34.2031826,105.138121 L32.3033835,97.0687659 C31.7948995,97.0543014 31.2927206,97.0407023 30.8029045,97.0251251 C22.110956,96.8093933 16.315994,96.6662316 16.315994,96.6662316 L16.3119143,96.2366225 C16.3119143,96.2366225 22.1037856,95.951288 30.7895526,95.5227916 C31.1609326,95.5030111 31.5438101,95.4822415 31.9245858,95.4625845 C34.2207378,95.342294 36.6976347,95.2259596 39.3112647,95.1118505 C39.3122537,95.1118505 39.3133663,95.1118505 39.3143554,95.1118505 C46.4302878,94.800554 54.5348773,94.5028565 62.6426812,94.1676997 C68.4345525,93.9404705 74.2243221,93.5689669 79.6550745,93.4402696 C85.0859506,93.3821643 90.1566969,93.5409032 94.5042165,93.7785172 C103.198267,94.2206127 112.063419,95.1035674 112.063419,95.1035674 L109.002501,95.5331764" id="path20" fill="#231F20"></path>
                        <path d="M198.423732,182.18142 C197.302421,183.598203 195.621074,184.411678 193.813625,184.411678 L146.586304,184.411678 C143.867714,184.411678 141.533608,182.563432 140.909284,179.917783 L126.74764,119.844349 L122.939635,122.641814 L97.599503,122.641814 L110.457361,177.181884 C110.872382,178.942354 110.465644,180.763401 109.345075,182.18142 C108.222405,183.598203 106.542541,184.411678 104.735092,184.411678 L57.506659,184.411678 C54.7881921,184.411678 52.4545807,182.563432 51.8309985,179.917783 L37.5599434,119.378517 L35.4069532,110.295408 C35.2107548,110.293306 35.0106003,110.290215 34.8205833,110.288113 L35.4048515,110.288113 C28.7683504,110.198854 22.5686287,110.101311 17.2748566,109.966432 C6.91967221,109.749588 0.0165160002,109.604324 0.0165160002,109.604324 L0.0123145569,109.171625 C0.0123145569,109.171625 6.91131493,108.884188 17.2592794,108.452601 C22.4027193,108.215976 28.3999375,107.996041 34.8247866,107.776106 C41.3252964,107.552957 48.264811,107.329931 55.204202,107.088114 C62.1032901,106.858783 69.0012655,106.484312 75.4706209,106.355615 C81.9399763,106.297509 87.9808354,106.457237 93.159633,106.695964 C103.515868,107.141027 114.077574,108.030286 114.077574,108.030286 L110.431523,108.462986 C110.431523,108.462986 103.540718,109.495408 93.1948671,110.155336 C88.0213855,110.500754 81.9857189,110.7851 75.5162398,110.860884 C69.0457717,110.866077 62.1416149,110.633655 55.2395597,110.547486 C51.1731713,110.489381 47.1099973,110.438569 43.1318796,110.387758 L53.7973097,156.899393 L58.5868012,177.215264 L103.070806,177.215264 L90.2055301,122.642803 L90.2055301,122.641814 L77.3694309,116.991992 L119.469878,117.180896 L148.171222,97.2890719 L149.397616,91.0063955 C148.280015,90.5767865 147.320658,89.9439322 146.513364,89.1875731 L144.234891,95.5209372 L119.718,109.998576 C120.326994,97.2797998 126.284033,94.1534824 126.284033,94.1534824 L116.871702,97.7685032 C116.871702,90.5384617 120.442092,86.5053293 124.662027,84.2599886 L113.003613,84.4031504 L126.464531,76.3462815 L67.2144629,76.413659 L77.9805266,70.8853637 L62.9893355,7.19517831 L18.5054546,7.19517831 L35.6393748,81.9928893 L28.9021164,82.630936 L28.7444901,82.6476258 L11.1260328,7.25453235 C10.7099982,5.4891051 11.1167607,3.66066441 12.2435231,2.23767573 C13.3693089,0.814740205 15.0564669,0 16.8702206,0 L64.022746,0 C66.7682876,0 69.1267484,1.86679025 69.7565119,4.53967536 L85.5030731,70.8853637 L115.205437,70.8853637 L100.205963,7.25453235 C99.78884,5.4891051 100.196567,3.66066441 101.322328,2.23767573 C102.449202,0.814740205 104.135247,0 105.949001,0 L153.102762,0 C155.848551,0 158.206147,1.86679025 158.836652,4.53967536 L199.536388,177.181884 C199.95178,178.942354 199.545042,180.763401 198.423732,182.18142 L198.423732,182.18142 Z M134.489256,92.0035829 L140.011741,87.5937546 C140.011741,87.5937546 137.189303,86.8632338 135.344766,87.467159 C133.940346,87.9185266 133.0972,89.1304567 134.489256,92.0035829 L134.489256,92.0035829 Z M144.996442,79.64061 L145.979289,79.6344285 L149.926746,76.4219421 L147.056093,80.8939556 L147.152523,81.4792129 C147.184666,81.6804801 147.896767,85.7437778 150.945445,86.9089763 L155.383708,78.2180169 L148.323285,65.9038772 C146.3749,70.6674067 143.001078,76.3514739 138.000306,76.3514739 C137.908821,76.3514739 137.817335,76.3492486 137.724614,76.3462815 L134.941737,76.3462815 L129.111417,79.8366848 L144.996442,79.64061 Z M152.069228,7.19517831 L107.585224,7.19517831 L122.59941,70.8853637 L137.786428,70.8853637 L137.928601,70.8884544 C137.949618,70.8894434 137.971871,70.8905561 137.994124,70.8905561 C140.31834,70.8905561 143.567297,64.4760917 145.054547,58.6369944 L146.696334,52.1934773 L161.530517,78.0654593 L154.874359,91.1018367 L153.031058,100.536792 L133.050221,115.214585 L147.666818,177.215264 L192.149586,177.215264 L152.069228,7.19517831 L152.069228,7.19517831 Z" id="path22" fill="#231F20"></path>
                    </g>
                </g>
            </g>
        </g>
    </g>
</svg>