<?xml version="1.0" encoding="UTF-8"?>
<svg width="200px" height="200px" viewBox="0 0 200 200" version="1.1" xmlns="http://www.w3.org/2000/svg" xmlns:xlink="http://www.w3.org/1999/xlink">
    <!-- Generator: Sketch 63.1 (92452) - https://sketch.com -->
    <title>harvard</title>
    <desc>Created with Sketch.</desc>
    <defs>
        <polygon id="path-1" points="0.0794701987 0.0556291391 162.119205 0.0556291391 162.119205 199.92053 0.0794701987 199.92053"></polygon>
    </defs>
    <g id="harvard" stroke="none" stroke-width="1" fill="none" fill-rule="evenodd">
        <g id="harvard_BGL" transform="translate(-0.000000, 0.000000)">
            <g id="Harvard-Primary" transform="translate(19.000000, 0.000000)">
                <g id="Group-3">
                    <mask id="mask-2" fill="white">
                        <use xlink:href="#path-1"></use>
                    </mask>
                    <g id="Clip-2"></g>
                    <path d="M154.708609,72.613245 C154.708609,145.986755 108.239735,175.576159 81.1470199,191.323179 C54.0529801,175.576159 7.58410596,145.986755 7.58410596,72.613245 L7.58410596,7.55364238 L154.708609,7.55364238 L154.708609,72.613245 Z M0,0.0556291391 L0,72.610596 C0,107.111258 9.99470199,136.54702 29.7099338,160.098013 C46.0993377,179.67947 65.6264901,191.030464 77.2927152,197.811921 L81.0596026,200 L84.8278146,197.811921 C96.4940397,191.030464 116.021192,179.67947 132.409272,160.098013 C152.123179,136.54702 162.119205,107.112583 162.119205,72.610596 L162.119205,0.0556291391 L0,0.0556291391 L0,0.0556291391 Z" id="Fill-1" fill="#FFFEFE" mask="url(#mask-2)"></path>
                </g>
                <path d="M99.4278146,46.2370861 L99.4278146,70.9086093 L62.6927152,70.9086093 L62.6927152,46.2370861 C62.6927152,42.7337748 64.9443709,37.781457 69.9589404,34.4198675 L69.9589404,26.6516556 L40.4953642,26.6516556 L40.4953642,42.4927152 L46.7456954,42.4927152 L46.7456954,116.790728 L40.4953642,116.790728 L40.4953642,132.598675 L69.9589404,132.598675 L69.9589404,124.833113 C64.9430464,121.468874 62.6927152,116.517881 62.6927152,113.015894 L62.6966887,86.7178808 L99.4278146,86.7178808 L99.4278146,113.015894 C99.4278146,116.519205 97.1761589,121.468874 92.1602649,124.831788 L92.1602649,132.598675 L121.623841,132.598675 L121.623841,116.790728 L115.374834,116.790728 L115.374834,42.4927152 L121.623841,42.4927152 L121.623841,26.6516556 L92.1602649,26.6516556 L92.1602649,34.4198675 C97.1748344,37.7774834 99.4278146,42.7311258 99.4278146,46.2370861" id="Fill-4" fill="#FFFEFE"></path>
                <path d="M92.1602649,26.6516556 L121.623841,26.6516556 L121.623841,42.4927152 L115.374834,42.4927152 L115.374834,116.790728 L121.623841,116.790728 L121.623841,132.598675 L92.1602649,132.598675 L92.1602649,124.831788 C97.1761589,121.468874 99.4278146,116.519205 99.4278146,113.015894 L99.4278146,86.7178808 L62.6966887,86.7178808 L62.6927152,113.015894 C62.6927152,116.517881 64.9430464,121.468874 69.9589404,124.833113 L69.9589404,132.598675 L40.4953642,132.598675 L40.4953642,116.790728 L46.7456954,116.790728 L46.7456954,42.4927152 L40.4953642,42.4927152 L40.4953642,26.6516556 L69.9589404,26.6516556 L69.9589404,34.4198675 C64.9443709,37.781457 62.6927152,42.7337748 62.6927152,46.2370861 L62.6927152,70.9086093 L99.4278146,70.9086093 L99.4278146,46.2370861 C99.4278146,42.7311258 97.1748344,37.7774834 92.1602649,34.4198675 L92.1602649,26.6516556 Z M7.58410596,7.55364238 L7.58410596,72.613245 C7.58410596,145.986755 54.0529801,175.576159 81.1470199,191.323179 C108.239735,175.576159 154.708609,145.986755 154.708609,72.613245 L154.708609,7.55364238 L7.58410596,7.55364238 L7.58410596,7.55364238 Z" id="Fill-5" fill="#912235"></path>
            </g>
        </g>
    </g>
</svg>