<?xml version="1.0" encoding="UTF-8"?>
<svg width="200px" height="200px" viewBox="0 0 200 200" version="1.1" xmlns="http://www.w3.org/2000/svg" xmlns:xlink="http://www.w3.org/1999/xlink">
    <!-- Generator: Sketch 54.1 (76490) - https://sketchapp.com -->
    <title>hawaii</title>
    <desc>Created with Sketch.</desc>
    <g id="hawaii" stroke="none" stroke-width="1" fill="none" fill-rule="evenodd">
        <g id="hawaii_BGL" transform="translate(0.000000, 0.000000)">
            <g id="hawaii" transform="translate(0.000000, 21.000000)">
                <g id="g10" transform="translate(99.999998, 79.355286) scale(-1, 1) rotate(-180.000000) translate(-99.999998, -79.355286) translate(0.000000, 0.013971)" fill-rule="nonzero">
                    <g id="g12">
                        <path d="M175.061872,42.1391207 L187.1976,56.1317351 L175.927341,67.7744494 L187.90279,81.0435109 L176.398598,93.1592791 L188.020754,105.840117 L175.927341,118.373051 L197.775045,142.409178 L110.550895,158.42814 L110.550895,112.682432 C108.738919,112.967462 102.446904,113.069658 100.104588,113.118959 C97.3347281,113.179438 92.1115745,112.754488 89.4866245,112.495606 L89.4866245,158.547501 L2.21237519,142.392611 L24.0826341,118.356684 L11.9723151,105.82355 L24.5343307,93.1427122 L12.441836,81.0283413 L24.8830333,67.7580821 L12.2901793,56.1145695 L24.9263467,42.123951 L0,7.87564851 L89.3988002,22.0556881 L89.509379,63.1806371 C91.6860257,63.7868248 97.9792391,64.152693 100.104588,64.152693 C102.445506,64.152693 108.206185,63.893212 110.528341,63.2782419 L110.639518,21.9343308 L199.988019,7.89217545 L175.061872,42.1391207" id="path14" fill="#C6C5C3"></path>
                        <path d="M168.695205,42.5345299 L180.443508,56.0003978 L168.293609,68.13413 L180.443508,81.0435109 L168.867461,93.1201574 L180.671652,106.087223 L168.638319,118.4487 L187.784626,139.84311 L115.565466,153.421753 L115.565466,107.459279 C111.949299,107.775047 105.967462,108.383231 100.104588,108.429937 C96.5872231,108.45888 88.8097782,107.825945 84.4227524,107.442712 C84.4227524,107.442712 84.4227524,111.295207 84.4227524,153.403988 L12.2037123,139.825945 L31.350099,118.431534 L19.3166063,106.069858 L31.1201589,93.1029917 L19.5452091,81.0277425 L31.6940112,68.1189604 L19.5452091,55.9832321 L31.2930132,42.5173642 L10.9276844,14.0325545 L84.7343292,26.1331331 L84.8057863,67.0866251 C90.9391195,68.3089803 97.4419137,68.4135711 100.104588,68.4614753 C103.409778,68.5225532 111.296604,68.0956071 115.182432,67.1029923 L115.252492,26.1508975 L189.060474,14.048303 L168.695205,42.5345299" id="path16" fill="#1D1B19"></path>
                        <path d="M161.921553,42.5788413 L173.775644,55.9995994 L161.923948,67.8506969 C161.923948,68.2954075 173.775644,81.0435109 173.775644,81.0435109 L161.918559,92.8997981 C161.918559,93.3445086 173.775644,106.087223 173.775644,106.087223 L161.91317,118.377243 L178.490015,136.714368 L124.538719,146.490615 L124.537522,101.045107 C118.023151,102.104189 105.754888,103.267862 100.104588,103.208181 C93.7103769,103.140916 84.1956067,102.643111 75.4508963,101.029339 L75.4502975,146.473449 L21.4982031,136.697801 L38.0736517,118.361474 L26.2119754,106.069858 C26.2119754,106.069858 38.0690609,93.327343 38.0690609,92.8826324 L26.2119754,81.0277425 C26.2119754,81.0277425 38.0634721,68.2790402 38.0634721,67.8327328 L26.2119754,55.9832321 L38.0668653,42.562474 L21.1329336,20.5365264 L75.4317346,29.4590811 L75.4624732,71.4359264 C81.4532914,72.9988006 94.7241493,74.0217546 100.104588,73.8968045 C104.68882,73.7910161 118.069658,72.8397187 124.525745,71.4522936 C124.534727,67.5279424 124.624548,29.4968056 124.624548,29.4968056 L178.854087,20.5536921 L161.921553,42.5788413" id="path18" fill="#FFFFFF"></path>
                        <path d="M159.250295,120.052891 L172.763868,134.837522 L127.202192,143.300994 L127.200795,98.2053868 C119.951095,99.580237 105.274249,100.625746 100.104588,100.662872 C93.3906164,100.709578 81.8101776,100.124548 72.7874233,98.1888199 L72.7860261,143.28303 L27.2239514,134.821753 L40.7373243,120.036324 L40.7227535,41.0586816 L27.7496999,24.3483028 L72.7049882,31.7427138 L72.802593,73.603591 C79.854489,75.6624732 93.976844,76.5932117 100.104588,76.5554871 C106.607183,76.5155669 120.023151,75.327543 127.185626,73.6209562 L127.283829,31.7598794 L172.238519,24.3662669 L159.264866,41.0764461 L159.250295,120.052891" id="path20" fill="#1B4F31"></path>
                        <polygon id="path22" fill="#FFFFFF" points="153.078439 92.2099777 142.034927 103.570656 153.078439 114.929139"></polygon>
                        <polygon id="path24" fill="#FFFFFF" points="153.078439 69.7067847 142.034927 81.0688602 153.078439 92.4267442"></polygon>
                        <polygon id="path26" fill="#FFFFFF" points="153.078439 47.0149689 142.034927 58.3748488 153.078439 69.7369244"></polygon>
                        <polygon id="path28" fill="#FFFFFF" points="46.9091805 92.1920137 57.9526932 103.55349 46.9091805 114.91357"></polygon>
                        <polygon id="path30" fill="#FFFFFF" points="46.9091805 69.6902178 57.9526932 81.0502974 46.9091805 92.4109757"></polygon>
                        <polygon id="path32" fill="#FFFFFF" points="46.9091805 46.9997992 57.9526932 58.3596792 46.9091805 69.7197587"></polygon>
                        <polyline id="path34" fill="#1D1B19" points="182.702989 4.82994 182.702989 4.26287414 181.322351 4.26287414 181.322351 0 180.755285 0 180.755285 4.26287414 179.376443 4.26287414 179.376443 4.82994 182.702989 4.82994"></polyline>
                        <path d="M183.203189,4.82994 L183.999397,4.82994 L185.181033,0.74608581 L186.365664,4.82994 L187.15788,4.82994 L187.15788,0 L186.628738,0 L186.628738,2.85007977 C186.628738,2.94910172 186.630534,3.11237517 186.634925,3.33950091 C186.638917,3.56746498 186.640913,3.81237515 186.640913,4.07349291 L185.454087,0 L184.900794,0 L183.721552,4.07349291 L183.721552,3.92510968 C183.721552,3.80698593 183.723548,3.62656678 183.727141,3.38487017 C183.731732,3.14269453 183.733329,2.96345302 183.733329,2.85007977 L183.733329,0 L183.203189,0 L183.203189,4.82994" id="path36" fill="#1D1B19"></path>
                    </g>
                </g>
            </g>
        </g>
    </g>
</svg>