<svg width="200" height="200" viewBox="0 0 200 200" fill="none" xmlns="http://www.w3.org/2000/svg">
<path d="M194.078 115.062L192.96 108.56C190.37 93.1166 183.969 84.5314 180.26 80.6198L181.784 78.537L179.498 76.251C178.736 75.489 177.873 74.8794 177.009 74.4222C177.111 74.3206 177.162 74.2698 177.212 74.219L182.496 68.6817L176.146 67.2593C175.485 67.1069 174.825 67.0053 174.114 66.9545C174.418 64.8717 174.52 63.3985 174.52 63.2969L174.876 58.4709L170.1 59.2837C169.592 59.3853 169.084 59.5377 168.576 59.6901C168.526 59.4869 168.475 59.2329 168.424 59.0297L168.373 58.5217C167.967 55.0673 166.9 45.9233 159.178 29.5149C150.898 11.938 137.487 2.032 136.928 1.6256L134.693 0L132.457 1.5748C122.094 8.89002 115.643 21.9456 112.29 30.7341L111.934 30.2261L108.835 32.5629C108.327 32.9185 107.819 33.4773 107.362 34.0361C106.092 33.0709 104.975 32.5629 104.721 32.4613L100.707 30.6325L99.539 32.2581L98.3706 30.6325L94.3574 32.4613C94.1034 32.5629 93.0366 33.1217 91.7158 34.0361C91.2586 33.4265 90.7506 32.9185 90.2426 32.5629L87.1438 30.2261L86.7881 30.7341C83.3845 21.9456 76.9329 8.94082 66.6205 1.5748L64.3853 0L62.1501 1.6256C61.5913 2.032 48.1801 11.938 39.8997 29.5149C32.1273 45.9741 31.1112 55.1181 30.7048 58.5217L30.654 59.0297C30.654 59.2329 30.6032 59.4361 30.5016 59.6901C29.9936 59.4869 29.5364 59.3853 28.9776 59.2837L24.2024 58.4709L24.558 63.2969C24.558 63.3985 24.6596 64.8717 24.9644 66.9545C24.304 67.0053 23.6436 67.1069 22.9324 67.2593L17.0904 67.9705L21.8656 74.1682C21.9164 74.219 21.9672 74.2697 22.0688 74.3713C21.2052 74.8793 20.3416 75.489 19.5796 76.2002L17.2936 78.4862L18.8176 80.569C15.0584 84.4806 8.70841 93.1166 6.1176 108.509L5 115.062L7.1844 114.249C5.0508 121.057 3.476 131.775 7.8448 144.831L9.77521 150.673L12.5184 147.93C13.7376 155.296 16.8872 165.913 25.1168 171.908L30.5525 175.87L31.162 169.164C31.162 168.961 31.2128 168.707 31.2636 168.402C34.0069 169.52 37.6137 171.349 40.3061 174.041C41.9825 175.718 43.4049 177.902 44.8781 180.188C48.0785 185.166 51.7361 190.805 59.7625 194.818L69.9733 199.949L64.8425 189.738C64.3853 188.773 60.5245 179.528 73.0721 170.434C73.7833 170.028 75.1549 169.317 76.6281 168.758C77.4917 170.434 78.3553 171.958 79.2189 173.381C80.5905 175.718 82.5717 178.359 85.5181 179.375L84.4514 182.525L90.5474 183.49C90.649 183.49 90.8014 183.439 91.0554 183.439L91.2586 187.605C91.2586 187.605 93.951 187.249 95.983 186.233C98.015 185.217 98.8278 184.15 99.4374 183.592C100.047 184.1 101.368 185.674 103.095 186.69C104.771 187.706 108.531 188.214 108.531 188.214L107.87 183.338C108.073 183.388 108.277 183.388 108.378 183.388L114.627 182.423L113.407 179.274C116.354 178.258 118.335 175.565 119.707 173.279C120.519 171.908 121.383 170.333 122.247 168.707C124.025 169.418 125.345 170.13 125.803 170.384C138.35 179.528 134.54 188.722 134.032 189.738L129.054 200C129.054 199.949 139.315 194.869 139.315 194.869C147.342 190.856 150.999 185.217 154.2 180.239C155.673 177.953 157.095 175.768 158.772 174.092C161.464 171.4 165.122 169.571 167.814 168.453C167.865 168.707 167.865 168.961 167.916 169.215L168.526 175.921L173.961 171.958C182.191 165.964 185.34 155.347 186.56 147.981L189.303 150.724L191.233 144.882C195.602 131.826 194.027 121.107 191.894 114.3L194.078 115.062Z" fill="white"/>
<path d="M152.574 131.217C141.754 121.666 129.918 139.599 126.108 147.777C122.298 156.058 118.792 161.493 114.627 164.033C110.461 166.573 106.956 164.999 103.806 162.459C100.606 159.919 101.266 156.718 101.266 153.213C101.266 149.708 105.432 147.473 107.312 144.933C109.242 142.393 109.242 142.088 107.007 141.123C104.772 140.157 104.162 140.818 104.467 138.583C104.772 136.347 107.312 137.008 111.172 138.583C114.982 140.157 114.373 138.583 113.408 134.773C112.442 130.963 107.667 130.912 105.127 131.217C102.79 131.521 99.9455 131.572 99.4883 131.572C99.0819 131.572 96.4911 131.521 94.1543 131.217C91.6143 130.912 86.8391 130.912 85.8739 134.773C84.9087 138.583 84.2991 140.208 88.1091 138.583C91.9191 137.008 94.4591 136.347 94.8147 138.583C95.1195 140.818 94.5099 140.157 92.2747 141.123C90.0395 142.088 90.0395 142.393 91.9699 144.933C93.9003 147.473 98.0151 149.708 98.0151 153.213C98.0151 156.718 98.6755 159.919 95.4751 162.459C92.2747 164.999 88.7695 166.624 84.6547 164.033C80.4891 161.493 76.9839 156.058 73.1739 147.777C67.9923 136.551 56.1559 121.869 46.707 131.217C46.707 131.217 53.057 129.947 55.6479 133.757C55.6479 133.757 49.2978 135.077 50.5678 141.427C50.5678 141.427 54.073 132.842 63.6235 139.497C63.6235 139.497 58.8483 140.462 56.9179 144.272C56.9179 144.272 62.6583 141.072 66.4683 143.002C70.2783 144.933 72.2087 147.777 74.4439 153.823C76.6791 159.868 79.8795 166.573 82.7243 171.349C85.5691 176.124 87.8043 176.429 90.3951 175.514C90.3951 175.514 91.6651 178.054 90.3951 179.68C90.3951 179.68 93.2399 179.375 94.5607 177.75C94.5607 177.75 96.7959 179.985 96.1355 181.56C96.1355 181.56 98.5739 179.629 99.6915 178.359C100.809 179.629 103.248 181.56 103.248 181.56C102.587 179.985 104.822 177.75 104.822 177.75C106.092 179.324 108.988 179.68 108.988 179.68C107.718 178.105 108.988 175.514 108.988 175.514C111.528 176.48 113.763 176.175 116.659 171.349C119.504 166.573 122.704 159.868 124.939 153.823C127.174 147.777 129.105 144.882 132.915 143.002C136.725 141.072 142.465 144.272 142.465 144.272C140.535 140.462 135.76 139.497 135.76 139.497C145.31 132.791 148.815 141.427 148.815 141.427C150.695 135.077 143.735 133.757 143.735 133.757C146.224 129.896 152.574 131.217 152.574 131.217Z" fill="#00529B" stroke="#F47937" stroke-width="1.5"/>
<path d="M135.353 89.459C135.353 89.459 131.442 83.4646 127.632 85.0902C123.822 86.665 121.688 89.1034 119.25 93.2183C116.202 98.2983 112.392 101.753 109.902 101.092C107.058 100.381 108.886 95.1995 108.886 95.1995C108.886 95.1995 106.346 97.1299 104.416 97.1299C104.416 97.1299 105.94 101.549 108.48 102.057C113.255 103.023 115.897 99.9239 115.897 99.9239C117.268 101.905 119.25 102.667 122.806 102.921C127.327 103.226 131.035 100.33 131.035 94.3866C131.035 92.8118 130.578 91.3386 129.765 90.1194C129.765 90.1194 129.511 87.9858 131.899 88.9002C134.286 89.8654 133.575 89.1542 134.54 90.1194C135.506 91.0338 135.912 90.475 135.353 89.459Z" fill="#00529B" stroke="#F47937" stroke-width="1.5"/>
<path d="M64.538 90.0686C65.5032 89.1034 64.792 89.8146 67.1796 88.8494C69.5672 87.8842 69.3132 90.0686 69.3132 90.0686C68.5004 91.2878 68.0432 92.761 68.0432 94.3358C68.0432 100.33 71.7008 103.175 76.2728 102.87C79.8796 102.616 81.81 101.803 83.1817 99.873C83.1817 99.873 85.8232 102.972 90.5985 102.007C93.1385 101.499 94.6625 97.079 94.6625 97.079C92.7321 97.079 90.1921 95.1486 90.1921 95.1486C90.1921 95.1486 92.0209 100.33 89.1761 101.041C86.6869 101.702 82.8768 98.2474 79.8288 93.1674C77.3904 89.0526 75.3076 86.6142 71.4468 85.0394C67.6368 83.4646 63.7252 89.4082 63.7252 89.4082C63.1664 90.4242 63.5728 90.983 64.538 90.0686Z" fill="#00529B" stroke="#F47937" stroke-width="1.5"/>
<path d="M185.086 108.255C186.661 108.255 189.252 109.22 189.252 109.22C185.747 88.4937 175.231 81.1785 175.231 81.1785L176.806 78.9433C174.875 77.0129 171.726 76.4033 171.726 76.4033C172.996 72.2377 175.231 70.9677 175.231 70.9677C172.691 70.3073 169.491 71.2725 169.491 71.2725C170.456 67.1069 170.761 62.9921 170.761 62.9921C168.83 63.2969 166.951 65.2273 166.951 65.2273C166.951 65.2273 165.02 62.0269 164.715 59.4869C164.411 56.9469 163.75 48.0061 155.775 31.1404C147.799 14.224 134.743 4.67358 134.743 4.67358C119.452 15.494 113.052 40.6909 113.052 40.6909C112.747 37.8461 111.121 35.6108 111.121 35.6108C109.851 36.576 107.921 40.3861 107.921 40.3861C106.651 37.5412 103.146 35.9156 103.146 35.9156L103.806 39.7257C102.993 38.608 100.25 38.2525 99.5388 38.1509C99.5388 38.1509 99.488 38.1509 99.4372 38.1509C99.3864 38.1509 99.3356 38.1509 99.3356 38.1509C98.6244 38.2525 96.186 38.6588 95.3732 39.7257L96.0336 35.9156C96.0336 35.9156 92.5284 37.4904 91.2584 40.3861C91.2584 40.3861 89.328 36.576 88.058 35.6108C88.058 35.6108 86.4832 37.8461 86.1276 40.6909C86.1276 40.6909 79.7776 15.494 64.4359 4.67358C64.4359 4.67358 51.3803 14.224 43.4047 31.1404C35.4291 48.0569 34.8195 56.9469 34.4639 59.4869C34.1591 62.0269 32.2287 65.2273 32.2287 65.2273C32.2287 65.2273 30.2983 63.2969 28.4186 62.9921C28.4186 62.9921 28.7234 67.1577 29.6887 71.2725C29.6887 71.2725 26.4883 70.3073 23.9482 70.9677C23.9482 70.9677 26.1834 72.2377 27.4535 76.4033C27.4535 76.4033 24.253 77.0637 22.3734 78.9433L23.9482 81.1785C23.9482 81.1785 13.4326 88.4937 9.92742 109.22C9.92742 109.22 12.4674 108.255 14.093 108.255C14.093 108.255 4.5426 122.581 11.553 143.612C11.553 143.612 13.4834 141.681 15.7186 139.802C15.7186 139.802 15.7186 160.223 27.5043 168.809C27.5043 168.809 27.8091 165.304 28.4695 163.373C28.4695 163.373 37.4103 165.608 43.1507 171.349C48.8911 177.089 50.8215 186.03 61.6419 191.415C61.6419 191.415 55.2919 178.664 71.1923 167.183C71.1923 167.183 61.2863 165.913 53.0059 177.699C53.0059 177.699 48.2307 160.173 56.8159 148.031C56.8159 148.031 47.8751 150.876 43.7603 166.827C43.7603 166.827 36.0895 163.017 36.4451 151.841C36.6991 142.24 41.0171 139.497 42.1855 138.887C43.6587 138.227 31.0603 137.16 26.8946 154.991C26.8946 154.991 19.5794 127.559 42.8459 120.244C42.8459 120.244 26.7423 115.265 18.6142 130.455C18.6142 130.455 17.3442 106.883 45.0811 109.119C45.0811 109.119 34.4639 100.025 18.6142 103.378C18.6142 103.378 20.8494 99.2126 33.9051 99.5682C46.9607 99.873 56.5111 93.2182 64.1819 83.6169C71.8527 74.0665 73.1227 72.1361 74.6975 68.9357C76.2723 65.7353 78.5075 63.8557 83.2828 66.0909C88.058 68.3261 89.9884 71.8313 89.9884 77.2669C89.9884 82.7025 92.2236 89.713 96.3384 91.2878C96.3384 91.2878 93.7984 85.5473 94.1032 74.0665C94.408 62.6873 96.2876 56.9977 99.4372 54.1021C102.892 56.9977 104.771 62.7381 105.076 74.0665C105.381 85.5473 102.841 91.2878 102.841 91.2878C107.006 89.713 109.191 82.7025 109.191 77.2669C109.191 71.8313 111.121 68.3261 115.896 66.0909C120.672 63.8557 122.907 65.7861 124.482 68.9357C126.056 72.1361 127.326 74.0157 134.997 83.6169C142.668 93.1674 152.219 99.873 165.274 99.5682C178.33 99.2634 180.565 103.378 180.565 103.378C163.801 99.873 154.098 109.119 154.098 109.119C181.835 106.883 180.565 130.455 180.565 130.455C172.234 114.91 156.333 120.244 156.333 120.244C179.6 127.559 172.285 154.991 172.285 154.991C168.525 138.989 154.708 137.871 156.994 138.887C158.162 139.446 162.48 142.189 162.734 151.841C163.039 163.017 155.419 166.827 155.419 166.827C151.253 150.876 142.363 148.031 142.363 148.031C150.949 160.122 146.173 177.699 146.173 177.699C137.893 165.913 127.987 167.183 127.987 167.183C143.938 178.664 137.537 191.415 137.537 191.415C148.358 185.979 150.288 177.089 156.029 171.349C161.769 165.608 170.71 163.373 170.71 163.373C171.37 165.304 171.675 168.809 171.675 168.809C183.461 160.223 183.461 139.802 183.461 139.802C185.696 141.732 187.626 143.612 187.626 143.612C194.637 122.581 185.086 108.255 185.086 108.255Z" fill="#00529B" stroke="#F47937" stroke-width="1.5"/>
<path d="M77.542 53.7465C77.542 53.7465 70.5316 55.3213 67.3312 53.0861C64.1308 50.8509 64.4864 47.3457 65.7564 42.2657C67.0264 37.1857 63.2164 34.2901 63.2164 34.2901C64.1816 39.3701 61.286 41.6053 61.286 41.6053C58.4412 35.8649 53.6152 37.7953 53.6152 37.7953C56.8156 39.0653 57.4252 43.5357 57.4252 43.5357C52.9548 42.2657 50.7196 45.4661 50.7196 45.4661C55.4948 44.8057 56.46 49.2761 56.46 49.2761C49.4496 50.8509 49.4496 56.9469 49.4496 56.9469C56.1552 51.5113 58.3904 58.8773 58.3904 58.8773C57.4252 61.7221 55.19 64.6178 55.19 64.6178C57.4252 64.6178 59 63.9573 59 63.9573C59 63.9573 58.0348 68.2246 48.4844 70.9678C42.6932 72.6442 38.5784 69.6978 38.5784 69.6978C42.744 69.0374 44.6236 66.853 44.6236 66.853C40.458 66.1926 37.918 60.8077 37.918 60.8077C42.3884 62.9921 45.5888 61.773 45.5888 61.773C40.8136 60.1981 39.2388 55.4229 39.2388 55.4229C39.2388 55.4229 40.8136 52.2225 41.7788 50.6477C42.744 49.0729 40.8136 47.8029 41.1184 45.8725C41.4232 43.9421 47.824 30.8865 52.5992 22.3013C57.3744 13.7161 63.4196 12.7509 63.4196 12.7509C64.9436 17.7293 64.08 24.5365 64.08 24.5365C66.4676 22.0981 70.1252 20.7265 70.1252 20.7265C70.1252 23.2665 68.5504 26.7717 68.5504 26.7717C80.3868 33.3249 77.542 53.7465 77.542 53.7465Z" fill="white" stroke="#F47937" stroke-width="1.5"/>
<path d="M160.549 69.6978C160.549 69.6978 156.333 73.1014 150.643 70.9678C141.55 67.5642 140.128 63.9574 140.128 63.9574C140.128 63.9574 141.703 64.6178 143.938 64.6178C143.938 64.6178 141.703 61.773 140.737 58.8774C140.737 58.8774 142.973 51.5622 149.678 56.947C149.678 56.947 149.678 50.9018 142.668 49.2762C142.668 49.2762 143.633 44.8058 148.408 45.4662C148.408 45.4662 146.173 42.2657 141.703 43.5358C141.703 43.5358 142.363 39.0653 145.513 37.7953C145.513 37.7953 140.737 35.8649 137.842 41.6053C137.842 41.6053 134.997 39.3701 135.911 34.2901C135.911 34.2901 132.101 37.1349 133.371 42.2657C134.641 47.3458 134.946 50.851 131.797 53.0862C128.596 55.3214 121.586 53.7466 121.586 53.7466C121.586 53.7466 118.741 33.3249 130.527 26.6701C130.527 26.6701 128.952 23.1649 128.952 20.6249C128.952 20.6249 132.863 21.6917 134.997 24.4349C134.997 24.4349 134.387 17.5769 135.657 12.6493C135.657 12.6493 141.703 13.6145 146.478 22.1997C151.253 30.7849 157.654 43.8914 157.959 45.771C158.263 47.7014 156.384 48.9714 157.298 50.5462C158.263 52.121 159.838 55.3214 159.838 55.3214C159.838 55.3214 158.263 60.0966 153.488 61.6714C153.488 61.6714 156.079 62.9414 161.159 60.7062C161.159 60.7062 158.619 66.1418 154.453 66.7514C154.504 66.8022 156.384 69.0374 160.549 69.6978Z" fill="white" stroke="#F47937" stroke-width="1.5"/>
<path d="M109.242 173.584C107.667 175.159 104.467 173.584 104.467 173.584L105.737 176.124L101.927 173.889V177.699L99.8949 174.6V173.838L99.6409 174.194L99.3869 173.838V174.6L97.3549 177.699V173.889L93.5449 176.124L94.8149 173.584C94.8149 173.584 91.6145 175.159 90.0396 173.584C88.4648 172.009 88.4648 169.418 88.4648 169.418C88.4648 169.418 90.3952 168.758 92.6304 167.183C94.8656 165.608 96.1356 166.878 97.7105 166.878C98.7265 166.878 99.2345 166.878 99.4377 166.878C99.5901 166.878 99.6409 166.878 99.6409 166.878C99.9457 166.878 100.555 166.878 101.673 166.878C103.248 166.878 104.518 165.608 106.753 167.183C108.988 168.758 110.918 169.418 110.918 169.418C110.918 169.418 110.817 172.009 109.242 173.584Z" fill="white" stroke="#F47937" stroke-width="1.5"/>
<path d="M70.583 94.4881C70.583 92.5577 71.5482 90.7289 73.1738 89.6113C73.4786 89.6621 74.2406 89.7637 74.901 90.2209C74.0882 90.7289 72.5642 92.0497 72.5642 94.3357C72.5642 94.4373 72.5642 94.5389 72.5642 94.5897C72.7166 97.1806 74.6978 98.3489 76.0694 98.2981C77.187 98.2981 78.1014 97.6886 78.5078 97.0789C78.8126 96.6725 78.9142 96.2661 78.8126 95.9105L78.6602 95.4533L78.2538 95.6565C77.949 95.8089 77.5934 95.8598 77.0854 95.8598C76.2218 95.8089 75.6122 95.1485 75.6122 94.3865C75.6122 93.7769 75.917 92.9641 76.3234 92.5577C76.4758 92.4053 76.5774 92.3037 76.679 92.2529H76.7806H76.933C77.1362 92.3037 77.8474 93.0149 78.4062 93.8277C79.219 94.8945 80.0318 96.3169 80.7938 97.5361C80.7938 97.5361 81.2002 98.1965 81.251 98.2981C81.0478 98.8061 78.3554 100.381 76.5266 100.381C73.2246 100.432 70.583 97.7901 70.583 94.4881Z" fill="white"/>
<path d="M125.955 89.7638C127.53 90.8814 128.444 92.6086 128.444 94.539C128.444 97.7394 125.803 100.381 122.602 100.381C120.824 100.381 118.284 98.9586 117.979 98.3998C118.132 98.1966 118.386 97.6886 118.386 97.6886C119.148 96.4694 119.961 95.047 120.773 93.9802C121.332 93.2182 121.993 92.507 122.196 92.4562H122.399C122.501 92.507 122.602 92.5578 122.704 92.7102C123.11 93.1166 123.415 93.8786 123.415 94.4374C123.415 95.1994 122.805 95.7582 121.993 95.809C121.535 95.8598 121.129 95.7582 120.875 95.6566L120.367 95.3518L120.215 95.9106C120.113 96.317 120.265 96.825 120.723 97.333C121.332 97.9934 122.348 98.5522 123.161 98.3998C124.228 98.1966 126.666 97.6886 126.666 94.5898C126.666 92.2022 125.244 90.8306 124.38 90.221C124.99 89.9162 125.65 89.8146 125.955 89.7638ZM123.466 92.0498C123.415 92.0498 123.466 92.0498 123.466 92.0498V92.0498Z" fill="white"/>
</svg>
