<?xml version="1.0" encoding="UTF-8"?>
<svg width="200px" height="200px" viewBox="0 0 200 200" version="1.1" xmlns="http://www.w3.org/2000/svg" xmlns:xlink="http://www.w3.org/1999/xlink">
    <!-- Generator: Sketch 54.1 (76490) - https://sketchapp.com -->
    <title>holy-cross</title>
    <desc>Created with Sketch.</desc>
    <g id="holy-cross" stroke="none" stroke-width="1" fill="none" fill-rule="evenodd">
        <g id="holy-cross_BGL">
            <g id="holy-cross" transform="translate(15.000000, 0.000000)">
                <path d="M85.1554878,0.0519480519 C90.1310976,2.7012987 95.3140244,4.83116883 100.652439,6.64935065 C122.679878,14.1298701 146.417683,16.8831169 169.585366,16.8311688 C170.310976,38.8051948 169.740854,61.038961 166.942073,82.8051948 C165.283537,95.6363636 162.847561,108.779221 158.64939,121.090909 C156.472561,127.480519 153.621951,133.506494 150.564024,139.480519 C144.085366,152 136.207317,163.74026 126.204268,173.766234 C114.698171,185.454545 100.54878,194.233766 85.1036585,199.74026 C81.2682927,198.285714 77.4847561,196.779221 73.804878,195.012987 C60.3292683,188.571429 48.3567073,179.272727 38.6128049,167.948052 C28.5060976,156.311688 20.9390244,143.064935 14.6676829,129.090909 C12.4390244,124 10.6768293,118.649351 9.17378049,113.298701 C5.28658537,99.2207792 3.21341463,84.4675325 1.86585366,69.9220779 C0.362804878,52.2597403 -0.103658537,34.4415584 0.673780488,16.7272727 C22.804878,16.8831169 45.5579268,14.2337662 66.652439,7.53246753 C73.0792683,5.61038961 79.2469512,3.16883117 85.1554878,0.0519480519 Z" id="Shape" fill="#642C91" fill-rule="nonzero"></path>
                <path d="M85.1554878,4.72727273 C90.6493902,7.37662338 96.2469512,9.66233766 102.103659,11.5324675 C122.472561,18.0779221 144.344512,20.7792208 165.646341,20.9350649 C166.164634,41.5584416 165.439024,62.3896104 162.847561,82.9090909 C161.189024,95.3246753 158.856707,108 154.814024,119.896104 C152.689024,126.181818 149.890244,132 146.884146,137.87013 C140.97561,149.298701 133.823171,160 124.908537,169.350649 C113.868902,180.987013 100.185976,189.922078 85.1554878,195.428571 C68.8810976,189.402597 54.6280488,179.688312 43.0182927,166.753247 C32.5487805,155.064935 24.8262195,141.766234 18.4512195,127.480519 C16.4817073,123.012987 14.9268293,118.337662 13.5792683,113.61039 C10.054878,101.246753 8.03353659,88.3116883 6.68597561,75.5324675 C4.82012195,57.4025974 4.25,39.1168831 4.66463415,20.8831169 C20.0060976,20.7272727 35.2957317,19.3766234 50.3262195,16.2077922 C62.3506098,13.6623377 74.0121951,10.1818182 85.1554878,4.72727273 Z" id="Shape" fill="#FFFFFF" fill-rule="nonzero"></path>
                <path d="M85.1554878,9.61038961 C89.0945122,11.5844156 93.1890244,13.2987013 97.3353659,14.8051948 C117.60061,21.9220779 139.783537,24.7792208 161.189024,24.9350649 C161.707317,42.7012987 161.033537,61.038961 159.115854,78.7012987 C157.612805,91.9480519 155.332317,105.506494 151.082317,118.181818 C148.957317,124.675325 145.89939,130.701299 142.789634,136.779221 C137.762195,146.285714 131.801829,155.220779 124.545732,163.168831 C113.817073,175.064935 100.237805,184.155844 85.2591463,189.714286 C76.3445122,186.337662 67.8445122,181.87013 60.2256098,176.103896 C46.6463415,165.974026 36.3841463,152.727273 28.3506098,137.922078 C24.8262195,131.272727 21.4054878,124.311688 19.0731707,117.142857 C15.4969512,106.12987 13.3719512,94.4935065 11.8689024,83.012987 C9.4847561,63.7922078 8.81097561,44.2597403 9.22560976,24.9350649 C26.6920732,24.8311688 44.4176829,22.9090909 61.3140244,18.4415584 C69.3993902,16.2077922 77.6402439,13.4545455 85.1554878,9.61038961 Z" id="Shape" fill="#642C91" fill-rule="nonzero"></path>
                <path d="M65.5640244,31.1168831 C66.8597561,34.3896104 67.9481707,37.7662338 69.0884146,41.0909091 C79.402439,38.6493506 90.2347561,38.5974026 100.60061,40.987013 C101.689024,37.5584416 102.829268,34.1818182 104.073171,30.8571429 C111.536585,32.8831169 118.533537,35.7922078 125.115854,39.9480519 C123.871951,43.2727273 122.835366,46.7012987 121.79878,50.0779221 C129.417683,55.3246753 135.067073,61.6103896 139.472561,69.8181818 C133.045732,73.6103896 126.567073,77.2467532 120.140244,81.038961 C119.103659,79.1168831 118.015244,77.1948052 116.719512,75.4285714 C115.631098,84.7792208 115.631098,93.974026 116.719512,103.272727 C118.118902,101.350649 119.259146,99.3246753 120.347561,97.1948052 C126.722561,101.038961 133.14939,104.883117 139.52439,108.727273 C138.073171,111.220779 136.72561,113.714286 134.963415,116 C131.335366,120.935065 126.82622,125.038961 121.79878,128.571429 C122.835366,132 123.871951,135.376623 125.115854,138.701299 C118.585366,142.857143 111.536585,145.766234 104.073171,147.792208 C102.829268,144.415584 101.740854,141.038961 100.652439,137.662338 C90.3902439,140.051948 79.7134146,140 69.4512195,137.662338 C68.4146341,141.038961 67.3262195,144.415584 66.1341463,147.74026 C58.6707317,145.662338 51.6737805,142.701299 45.1432927,138.545455 C46.2835366,135.220779 47.3719512,131.844156 48.3567073,128.467532 C37.9908537,121.402597 30.0609756,111.064935 27.3658537,98.6493506 C25.0853659,88.4675325 26.6920732,77.6103896 31.6158537,68.4675325 C35.554878,61.1428571 41.3079268,55.0649351 48.097561,50.3376623 C47.0091463,47.012987 45.9207317,43.6883117 44.7286585,40.4155844 C51.1036585,36.2597403 58.1006098,33.038961 65.5640244,31.1168831 Z" id="Shape" fill="#000000" fill-rule="nonzero"></path>
                <path d="M64.6310976,32.987013 C65.8231707,36.3116883 66.9634146,39.6363636 68.0518293,43.012987 C78.9878049,40.1038961 90.6493902,40.1038961 101.637195,42.9090909 C102.67378,39.5324675 103.762195,36.1558442 105.006098,32.7792208 C111.381098,34.6493506 117.445122,37.1428571 123.146341,40.6233766 C121.954268,43.9480519 120.917683,47.3766234 119.932927,50.7532468 C127.189024,55.4805195 133.097561,61.6103896 137.295732,69.1948052 C131.75,72.4155844 126.204268,75.5844156 120.710366,78.8051948 C119.259146,76.1558442 117.60061,73.8701299 115.527439,71.5844156 C113.868902,83.5324675 113.868902,95.0649351 115.527439,106.961039 C117.704268,104.623377 119.414634,102.233766 120.917683,99.3766234 C126.411585,102.701299 131.905488,105.922078 137.39939,109.246753 C133.253049,116.831169 127.240854,123.064935 119.984756,127.792208 C120.969512,131.220779 122.057927,134.597403 123.198171,137.974026 C117.496951,141.402597 111.484756,143.948052 105.057927,145.818182 C103.865854,142.493506 102.777439,139.116883 101.740854,135.688312 C90.8567073,138.493506 79.2987805,138.441558 68.4146341,135.688312 C67.3780488,139.064935 66.3414634,142.441558 65.097561,145.766234 C58.722561,143.896104 52.6585366,141.298701 47.0091463,137.766234 C48.1493902,134.441558 49.1859756,131.116883 50.1707317,127.74026 C40.3231707,121.246753 32.4969512,111.948052 29.3871951,100.415584 C26.5365854,90.1818182 27.7804878,79.012987 32.7042683,69.6103896 C36.695122,61.9220779 42.7591463,55.7402597 49.9115854,50.961039 C48.8231707,47.6363636 47.7865854,44.3116883 46.5945122,41.038961 C52.2957317,37.5064935 58.152439,34.9090909 64.6310976,32.987013 Z" id="Shape" fill="#642C91" fill-rule="nonzero"></path>
                <path d="M106.042683,34.8571429 C111.329268,36.2077922 116.460366,38.6493506 121.228659,41.3506494 C120.036585,44.6753247 119.051829,48.1038961 118.015244,51.4805195 C125.012195,55.8961039 130.817073,61.5584416 135.118902,68.6753247 C130.506098,71.3246753 125.893293,73.974026 121.280488,76.6753247 C119.414634,73.5584416 117.030488,70.9090909 114.335366,68.4675325 C113.765244,72.4675325 113.246951,76.5194805 112.935976,80.5194805 C112.158537,90.4935065 112.780488,100.415584 114.335366,110.285714 C117.134146,107.74026 119.570122,104.987013 121.435976,101.714286 C125.996951,104.467532 130.609756,107.168831 135.170732,109.974026 C130.817073,117.142857 125.064024,122.857143 118.015244,127.272727 C119,130.649351 119.984756,134.077922 121.176829,137.402597 C116.304878,140.207792 111.329268,142.38961 105.939024,144 C104.79878,140.675325 103.710366,137.298701 102.72561,133.922078 C91.1158537,137.142857 78.8323171,137.142857 67.222561,133.922078 C66.2378049,137.298701 65.2012195,140.623377 64.0609756,143.948052 C58.6707317,142.285714 53.695122,140.103896 48.875,137.246753 C50.0152439,133.922078 51,130.545455 51.9847561,127.220779 C46.9573171,124 42.3963415,120.155844 38.7164634,115.428571 C33.8445122,109.246753 30.5792683,101.922078 29.6981707,94.0779221 C28.6097561,84.987013 30.7865854,75.6883117 35.5030488,67.9480519 C39.5457317,61.2987013 45.195122,56 51.6737805,51.7922078 C50.6371951,48.4675325 49.652439,45.1428571 48.4085366,41.8701299 C53.1768293,38.961039 58.2042683,36.7272727 63.5426829,35.0649351 C64.7347561,38.3896104 65.8231707,41.7142857 66.8597561,45.038961 C78.5213415,41.7142857 91.0121951,41.6623377 102.67378,44.9350649 C103.865854,41.5064935 104.695122,38.0779221 106.042683,34.8571429 Z" id="Shape" fill="#FFFFFF" fill-rule="nonzero"></path>
                <path d="M99.0457317,60.3636364 C97.8018293,66.9090909 96.8689024,73.5064935 96.4542683,80.1038961 C88.9390244,80.1038961 81.3719512,80.1038961 73.8567073,80.1038961 C73.2865854,73.4545455 72.3536585,66.9090909 70.902439,60.3636364 C80.1280488,57.7142857 89.9237805,57.7142857 99.0457317,60.3636364 Z" id="Shape" fill="#642C91" fill-rule="nonzero"></path>
                <path d="M97.2317073,61.5064935 C96.195122,67.1688312 95.4176829,72.8831169 94.9512195,78.5974026 C88.4207317,78.5974026 81.8384146,78.5974026 75.3079268,78.5974026 C74.7378049,72.8831169 73.9603659,67.1688312 72.7682927,61.5584416 C81.0091463,59.4805195 89.0426829,59.4805195 97.2317073,61.5064935 Z" id="Shape" fill="#000000" fill-rule="nonzero"></path>
                <path d="M95.4176829,62.7012987 C94.5365854,67.4285714 93.9664634,72.2077922 93.5,76.987013 C87.902439,76.9350649 82.3567073,76.987013 76.7591463,76.987013 C76.2408537,72.2077922 75.5670732,67.4285714 74.6341463,62.7532468 C81.5792683,61.1948052 88.472561,61.1948052 95.4176829,62.7012987 Z" id="Shape" fill="#642C91" fill-rule="nonzero"></path>
                <path d="M55.7164634,68.5194805 C56.804878,74.3896104 57.4786585,80.3116883 57.6859756,86.2337662 C57.945122,94.2857143 57.1676829,102.337662 55.820122,110.233766 C51.9329268,106.753247 48.7713415,102.701299 46.9573171,97.7662338 C44.9878049,92.4155844 44.9359756,86.5974026 46.8536585,81.1948052 C48.5640244,76.1558442 51.8292683,72.1038961 55.7164634,68.5194805 Z" id="Shape" fill="#642C91" fill-rule="nonzero"></path>
                <path d="M54.6280488,71.6883117 C56.597561,83.4805195 56.5457317,95.2727273 54.679878,107.064935 C50.7408537,102.805195 47.8384146,97.8181818 47.1646341,91.9480519 C46.3353659,84.987013 48.9786585,78.1818182 53.5396341,72.987013 C53.902439,72.5194805 54.2652439,72.1038961 54.6280488,71.6883117 Z" id="Shape" fill="#000000" fill-rule="nonzero"></path>
                <path d="M53.5396341,75.3766234 C54.8871951,84.6233766 54.8353659,94.1298701 53.5914634,103.376623 C50.1707317,98.6493506 48.097561,93.1948052 48.7195122,87.2207792 C49.1341463,82.9090909 51,78.961039 53.5396341,75.3766234 Z" id="Shape" fill="#642C91" fill-rule="nonzero"></path>
                <path d="M73.9085366,98.5454545 C81.4237805,98.5454545 88.9908537,98.5454545 96.5060976,98.5454545 C96.9207317,105.194805 97.9054878,111.792208 99.097561,118.337662 C89.9756098,120.935065 80.2317073,120.987013 71.1097561,118.285714 C72.4573171,111.792208 73.3384146,105.194805 73.9085366,98.5454545 Z" id="Shape" fill="#642C91" fill-rule="nonzero"></path>
                <path d="M75.3597561,100.155844 C81.8902439,100.155844 88.4207317,100.155844 94.9512195,100.155844 C95.4176829,105.87013 96.195122,111.584416 97.2317073,117.246753 C89.1463415,119.272727 80.9573171,119.272727 72.8719512,117.246753 C73.9085366,112.103896 74.6341463,106.961039 75.152439,101.766234 C75.2560976,101.194805 75.3079268,100.675325 75.3597561,100.155844 Z" id="Shape" fill="#000000" fill-rule="nonzero"></path>
                <path d="M76.8109756,101.714286 C82.3567073,101.714286 87.9542683,101.714286 93.5,101.714286 C94.0182927,106.493506 94.5884146,111.272727 95.4695122,116 C88.5243902,117.506494 81.7347561,117.506494 74.7896341,116 C75.6189024,111.792208 76.1890244,107.532468 76.6554878,103.220779 C76.7073171,102.753247 76.7591463,102.233766 76.8109756,101.714286 Z" id="Shape" fill="#642C91" fill-rule="nonzero"></path>
            </g>
        </g>
    </g>
</svg>