<?xml version="1.0" encoding="UTF-8"?>
<svg width="200px" height="200px" viewBox="0 0 200 200" version="1.1" xmlns="http://www.w3.org/2000/svg" xmlns:xlink="http://www.w3.org/1999/xlink">
    <!-- Generator: Sketch 54.1 (76490) - https://sketchapp.com -->
    <title>houston</title>
    <desc>Created with Sketch.</desc>
    <g id="houston" stroke="none" stroke-width="1" fill="none" fill-rule="evenodd">
        <g id="houston_BGL">
            <g id="houston" transform="translate(0.000000, 13.000000)">
                <g id="g10" transform="translate(99.999998, 87.535915) scale(-1, 1) rotate(-180.000000) translate(-99.999998, -87.535915) translate(0.184162, 0.243099)" fill-rule="nonzero">
                    <g id="g12" transform="translate(0.331492, 0.331492)">
                        <polyline id="path14" fill="#E51636" points="182.75285 81.5263331 182.75285 115.426148 133.24751 115.426148 133.24751 140.324858 143.557271 140.324858 143.557271 174.222463 79.813626 174.222463 79.813626 140.324858 89.4338836 140.324858 89.4338836 115.426148 54.160588 115.426148 54.160588 140.324858 63.7815822 140.324858 63.7815822 174.222463 0.036688535 174.222463 0.036688535 140.324858 10.3517861 140.324858 10.3517861 78.443092 30.1834247 61.3720058 50.2397777 61.3720058 50.2397777 34.3355793 39.9274391 34.3355793 39.9274391 0.453355421 103.671084 0.453355421 103.671084 34.3355793 94.0500897 34.3355793 94.0500897 40.5812145 128.626516 40.5812145 128.626516 34.3355793 119.011047 34.3355793 119.011047 0.453355421 182.75285 0.453355421 182.75285 34.3355793 172.44309 34.3355793 172.44309 81.5263331 182.75285 81.5263331"></polyline>
                        <path d="M118.081028,71.0935526 L133.142538,84.4497216 L133.142538,71.0935526 L118.081028,71.0935526 Z M177.931487,86.3476958 L177.931487,110.604049 L128.424306,110.604049 L128.424306,145.147326 L138.734067,145.147326 L138.734067,169.400732 L84.636462,169.400732 L84.636462,145.147326 L94.2556146,145.147326 L94.2556146,110.604049 L49.338857,110.604049 L49.338857,145.147326 L58.9580096,145.147326 L58.9580096,169.400732 L4.85944739,169.400732 L4.85944739,145.147326 L15.1753956,145.147326 L15.1753956,80.6559833 L31.9728537,66.1963151 L55.0615088,66.1963151 L55.0615088,29.5112331 L44.7499068,29.5112331 L44.7499068,5.27624296 L98.849353,5.27624296 L98.849353,29.5112331 L89.2276221,29.5112331 L89.2276221,45.4025771 L133.448615,45.4025771 L133.448615,29.5112331 L123.834619,29.5112331 L123.834619,5.27624296 L177.931487,5.27624296 L177.931487,29.5112331 L167.619885,29.5112331 L167.619885,86.3476958 L177.931487,86.3476958 L177.931487,86.3476958 Z" id="path16" fill="#FFFFFF"></path>
                        <polyline id="path18" fill="#E51636" points="98.8383032 86.3561673 89.2206239 86.3561673 89.2206239 70.7790038 110.354693 70.7790038 123.841986 82.756904 123.841986 149.729646 134.15101 149.729646 134.15101 164.818044 89.2180457 164.818044 89.2180457 149.729646 98.8383032 149.729646 98.8383032 86.3561673"></polyline>
                        <polyline id="path20" fill="#E51636" points="55.0718218 86.3561673 44.756905 86.3561673 44.756905 149.729646 54.3760576 149.729646 54.3760576 164.818044 9.44232021 164.818044 9.44232021 149.729646 19.7571266 149.729646 19.7571266 82.756904 33.6721539 70.7790038 55.0718218 70.7790038 55.0718218 86.3561673"></polyline>
                        <polyline id="path22" fill="#E51636" points="173.349535 90.9311211 173.349535 106.023202 128.417308 106.023202 128.417308 90.9311211 138.032041 90.9311211 138.032041 66.2022083 84.6449334 66.2022083 84.6449334 90.9311211 94.2666643 90.9311211 94.2666643 106.023202 49.3318588 106.023202 49.3318588 90.9311211 59.6453024 90.9311211 59.6453024 24.9310859 49.3318588 24.9310859 49.3318588 9.85856329 94.2666643 9.85856329 94.2666643 24.9310859 84.6449334 24.9310859 84.6449334 49.9845291 138.032041 49.9845291 138.032041 24.9310859 128.417308 24.9310859 128.417308 9.85856329 173.349535 9.85856329 173.349535 24.9310859 163.037933 24.9310859 163.037933 90.9311211 173.349535 90.9311211"></polyline>
                        <path d="M194.028724,5.47738476 C194.499443,5.47738476 194.766846,5.6927807 194.766846,6.04755049 L194.766846,6.07373834 C194.766846,6.4655247 194.475133,6.65557994 194.015096,6.65557994 L193.137012,6.65557994 L193.137012,5.47738476 L194.028724,5.47738476 Z M191.774213,7.8216941 L194.053034,7.8216941 C194.830566,7.8216941 195.366109,7.618858 195.709387,7.27627974 C195.989314,6.99771622 196.129645,6.63057074 196.129645,6.16095749 L196.129645,6.13561679 C196.129645,5.38931847 195.73517,4.89539583 195.123752,4.64132585 L196.295759,2.94371632 L194.72854,2.94371632 L193.73517,4.42508276 L193.710124,4.42508276 L193.137012,4.42508276 L193.137012,2.94371632 L191.774213,2.94371632 L191.774213,7.8216941 Z M197.874765,5.24906064 L197.874765,5.27436451 C197.874765,7.51712688 196.129645,9.3546959 193.81215,9.3546959 C191.481763,9.3546959 189.72412,7.49163886 189.72412,5.24906064 L189.72412,5.22430926 C189.72412,2.98155425 191.468135,1.14396314 193.785999,1.14396314 C196.117859,1.14396314 197.874765,3.00658924 197.874765,5.24906064 Z M188.586367,5.22099434 L188.586367,5.24906064 C188.586367,8.07174934 190.890971,10.4618414 193.813255,10.4618414 C196.735907,10.4618414 199.012518,8.09911582 199.012518,5.27767943 L199.012518,5.24906064 C199.012518,2.42719699 196.707914,0.0365446584 193.785262,0.0365446584 C190.8604,0.0365446584 188.586367,2.39784893 188.586367,5.22099434 L188.586367,5.22099434 Z" id="path24" fill="#E51636"></path>
                    </g>
                </g>
            </g>
        </g>
    </g>
</svg>