<?xml version="1.0" encoding="UTF-8"?>
<svg width="200px" height="200px" viewBox="0 0 200 200" version="1.1" xmlns="http://www.w3.org/2000/svg" xmlns:xlink="http://www.w3.org/1999/xlink">
    <!-- Generator: Sketch 54.1 (76490) - https://sketchapp.com -->
    <title>high-point</title>
    <desc>Created with Sketch.</desc>
    <g id="high-point" stroke="none" stroke-width="1" fill="none" fill-rule="evenodd">
        <g id="high-point_BGL">
            <g id="high-point" transform="translate(0.000000, 41.000000)">
                <g id="g10" transform="translate(99.999998, 58.993509) scale(-1, 1) rotate(-180.000000) translate(-99.999998, -58.993509) translate(0.000000, 0.119051)" fill-rule="nonzero">
                    <g id="g12">
                        <path d="M146.715148,77.5915565 C146.525754,82.5638507 144.960386,86.7069242 142.027269,89.962119 C137.166014,95.3577898 129.002594,97.5865776 117.764499,96.5863612 C117.764499,96.5863612 111.944586,96.0688288 105.101729,95.4601708 L109.133114,116.0974 L21.5415363,108.30346 C21.5415363,108.30346 35.1971853,93.6961016 37.6378778,91.0850627 C36.6164493,85.8554091 31.2640685,58.4504314 30.6463196,55.287661 C27.3608218,52.3891762 3.82770553,31.6233758 3.82770553,31.6233758 L74.9315999,37.9712112 C69.3993489,33.0891767 49.2939382,15.3500429 49.2939382,15.3500429 L108.775106,20.6558653 C108.775106,20.6558653 112.659305,40.5461029 113.011036,42.3454535 C113.448266,42.3841981 114.501729,42.4777046 114.501729,42.4777046 C118.454542,42.8298691 122.178568,43.7422067 125.596534,45.1380941 C124.471209,38.5803021 123.371642,32.1718607 123.371642,32.1718607 C122.97662,29.8757568 122.777053,27.6517309 122.777053,25.562337 C122.777053,18.9328783 124.735711,13.4090906 128.598482,9.14528116 C136.627053,0.279270556 149.214498,1.17838525 153.351944,1.47338308 C172.301944,2.82510815 184.386359,13.1664282 187.379,30.5906919 C187.379,30.5915577 189.984627,45.764501 191.409303,54.0688298 C192.520991,54.1491328 193.683545,54.2324662 193.683545,54.2324662 L198.337224,81.2755391 L146.715148,77.5915565" id="path14" fill="#302A83"></path>
                        <path d="M127.272291,47.2253235 L124.651728,31.9521637 C124.269477,29.7307352 124.075754,27.5811681 124.075754,25.562337 C124.075754,19.2651727 125.921425,14.0348481 129.560819,10.0170777 C137.163849,1.62100862 149.276403,2.48487007 153.257788,2.76887439 C162.406922,3.42119039 169.891338,6.18785699 175.50519,10.9915365 C181.098047,15.7775321 184.662549,22.4456704 186.09913,30.8106053 L186.104108,30.8097395 C186.146532,31.0865793 186.26558,31.7794364 186.59848,33.7188303 C187.42532,38.5354969 189.090904,48.236146 190.129216,54.2883103 L190.301077,55.2906913 L192.576186,55.4547605 L196.776186,79.8621192 L145.468395,76.2006474 L145.417529,77.5422059 C145.240256,82.1961018 143.774888,86.0822489 141.062551,89.0928549 C136.489174,94.1686124 128.689607,96.2549759 117.879651,95.2928548 L103.495885,94.013634 L107.52727,114.650646 L24.3080081,107.245885 L39.0396094,91.4874436 L31.8363628,54.6056263 L31.5056269,54.313635 C28.9450209,52.0549771 14.088636,38.94567 7.65549764,33.2690468 L78.7590889,39.6166657 L75.7909072,36.9974017 C71.5800848,33.2813844 58.9259726,22.1166661 53.1216437,16.9952377 L107.68766,21.86277 C108.467097,25.8543284 111.431382,41.0335488 111.736577,42.5945877 L111.923807,43.5525963 L114.38701,43.771211 C118.144802,44.1060595 121.751296,44.9703452 125.105408,46.340475 L127.272291,47.2253235 Z M149.145234,0 C143.27294,-0.000169101727 134.104542,1.13010603 127.635928,8.27337642 C123.550213,12.783333 121.478352,18.6002593 121.478352,25.562337 C121.478352,27.7281378 121.684845,30.0259733 122.091555,32.3917741 L123.934629,43.1318171 C120.967529,42.1253236 117.843071,41.4714275 114.61688,41.1839817 L114.098482,41.1380942 C113.236794,36.7270554 110.049781,20.4069475 110.049781,20.4069475 L109.862551,19.4491554 L45.4662326,13.7045018 L48.4346308,16.3238091 C48.4346308,16.3238091 63.4564919,29.5777049 71.1038943,36.3255402 L0,29.9779213 L2.96850642,32.5971853 C2.96850642,32.5971853 25.1735924,52.1913407 29.4562763,55.9694791 L36.2361463,90.6828982 L18.7750212,109.361036 L110.738958,117.544153 L106.707573,96.906924 L117.649564,97.8800841 C129.31688,98.91753 137.842854,96.5465344 142.992204,90.831383 C145.854325,87.6549762 147.511685,83.6731581 147.928568,78.9800846 L199.898263,82.688959 L194.791121,53.0095225 L192.517311,52.846319 C191.474887,46.7716439 189.940904,37.8378778 189.158437,33.2794364 C188.906705,31.8132027 188.732679,30.7999992 188.677701,30.4800858 L188.677701,30.4798694 L188.65887,30.3707785 C187.116878,21.3928999 183.259519,14.2084412 177.193935,9.01820324 C171.148697,3.84504319 163.158221,0.870790022 153.444368,0.178148697 C152.437009,0.106280517 150.945234,0 149.145234,0 L149.145234,0 Z" id="path16" fill="#FFFFFF"></path>
                        <path d="M182.490039,73.2796518 L164.794801,72.0175307 L162.534628,58.8681803 C162.534628,58.8681803 163.80216,58.9597388 164.649779,59.019479 C163.186143,50.4974013 160.437442,34.4902589 160.437442,34.4902589 C159.405407,28.4748911 158.068178,27.7311681 153.238741,27.3874452 C151.808871,27.2854972 151.370992,27.19935 151.030299,27.4246746 C150.690689,27.6495664 150.470559,28.0519474 150.470559,28.5424235 C150.470559,29.1794365 150.515797,29.4673153 150.768178,30.9322503 C150.768178,30.9322503 154.282031,51.40541 155.477269,58.3673146 C156.523589,58.4424228 157.588957,58.5183968 157.588957,58.5183968 L159.848914,71.6645004 L134.533546,69.8586563 L129.220776,56.3177475 C129.220776,56.3177475 133.60043,56.8047605 134.558438,56.8729423 C133.041122,48.0313841 130.119477,31.0134191 130.119477,31.0134191 C129.788525,29.0857136 129.624023,27.2668824 129.624023,25.562337 C129.624023,20.6783545 130.977702,16.7171424 133.672724,13.7422291 C138.864282,8.0097617 147.112983,7.89222924 152.864498,8.30264049 C168.81255,9.44028115 178.154974,17.3291987 180.631164,31.7497828 C180.631164,31.7497828 184.337441,53.3402584 185.569692,60.5140678 C186.70822,60.5965353 187.847831,60.6777041 187.847831,60.6777041 L190.10887,73.8235912 L182.490039,73.2796518" id="path18" fill="#FFFFFF"></path>
                        <path d="M182.764281,69.4166649 L168.097615,68.3707775 L167.206056,63.1742408 C167.206056,63.1742408 168.598697,63.227704 169.305407,63.2554097 C168.766446,60.1127691 164.255624,33.8348476 164.255624,33.8348476 C162.984412,26.427705 160.474671,24.0196964 153.513416,23.5227267 C150.287442,23.2935059 148.292853,23.6510817 147.417745,24.617099 C146.476403,25.6571422 146.324239,27.9365794 146.950646,31.5874451 L152.054975,61.3207777 C152.120559,61.7032452 152.380949,62.0283534 152.635061,62.0478339 L154.285927,62.16515 L155.195234,67.4502148 L137.837875,66.2119031 L136.953027,61.0612539 C136.953027,61.0612539 138.633763,61.0974011 139.215148,61.1086565 C138.666014,57.9108211 133.93701,30.3595231 133.93701,30.3595231 C133.634845,28.6023802 133.484196,26.9790037 133.484196,25.4841985 C133.484196,21.6156055 134.497616,18.6004324 136.541555,16.3426619 C139.630732,12.934004 144.729867,11.6056274 152.588524,12.165346 C161.607139,12.8092854 173.930515,15.6073373 176.813632,32.405194 L182.145017,63.4675309 C182.212117,63.8510807 182.609952,64.1854962 182.895017,64.206059 L184.546965,64.3244573 L185.454324,69.6088727 L182.764281,69.4166649" id="path20" fill="#FFFFFF"></path>
                        <path d="M152.65584,65.1502148 L152.48571,64.1545439 C151.217529,64.0638512 150.201295,63.0067084 149.97294,61.6774876 L144.869477,31.946536 C143.44307,23.6409085 145.633763,20.8441553 153.664931,21.4151293 C161.694152,21.9889605 164.912334,25.1718608 166.337658,33.4772719 L171.440905,63.2101716 C171.670342,64.5383101 170.996533,65.4742408 169.728351,65.3837646 L169.899996,66.3813836 L182.91558,67.3093057 L182.743935,66.3125525 C181.477485,66.2220763 180.29242,65.1534616 180.063415,63.8242408 L174.731597,32.7623368 C172.33571,18.8106272 163.004758,15.0270559 152.438524,14.2732031 C141.87294,13.5190906 133.625538,16.04961 136.019044,30.001298 L141.351728,61.0634184 C141.577919,62.3924227 140.735278,63.3160157 139.467096,63.2244573 L139.637875,64.2225092 L152.65584,65.1502148" id="path22" fill="#302A83"></path>
                        <path d="M118.466014,69.6588727 C118.371209,69.1731584 118.27359,68.8417732 118.195452,68.6157992 C117.788309,68.4867948 117.020993,68.2984831 115.573374,68.1699117 C115.573374,68.1699117 112.42056,67.8893922 109.26688,67.6082234 C109.517963,68.9006476 109.536144,68.990258 109.788525,70.2818164 C113.267313,70.5913402 116.775755,70.903245 116.775755,70.903245 C117.791123,70.9930718 118.322075,70.9502147 118.60714,70.9045437 C118.61017,70.6735913 118.59069,70.2904744 118.466014,69.6588727 Z M118.370343,89.766448 L96.5857119,87.8300844 L89.2190454,87.1744567 L86.697184,74.2575739 C86.697184,74.2575739 89.1088722,74.4720761 90.0742402,74.5580068 C88.9153657,68.6257559 82.8664481,37.6493497 82.4461018,35.494155 C82.3331148,35.3841982 82.2177469,35.2688303 82.1175304,35.1805186 L69.4731584,24.0235925 L103.041339,27.0179647 L105.563417,39.9339817 C105.563417,39.9339817 104.788958,39.8311678 103.825106,39.7458865 C104.37121,42.5393929 104.791989,44.6976179 105.546101,48.5560594 C109.621426,48.9170983 113.894586,49.2980507 113.894586,49.2980507 C126.967962,50.4601719 136.950862,59.0867951 139.331382,71.2701281 C142.017096,85.0209935 134.965581,91.2432878 118.370343,89.766448 L118.370343,89.766448 Z" id="path24" fill="#FFFFFF"></path>
                        <path d="M122.425322,70.0106043 C121.720776,66.4073576 120.507789,64.819046 114.82056,64.3140677 C114.82056,64.3140677 107.503461,63.662769 104.555625,63.3995655 C105.057357,65.9619031 106.083114,71.2235913 106.583114,73.7865782 C109.596101,74.0538943 117.529867,74.7599548 117.529867,74.7599548 C122.014932,75.1595219 123.204109,74.0054094 122.425322,70.0106043 Z M117.616231,85.9095217 L95.8313829,83.9720758 L93.674673,83.7803009 L92.6766211,78.672076 C92.6766211,78.672076 94.6385258,78.7619028 94.7547595,78.7664482 C94.7619024,78.7251063 94.7651491,78.6608205 94.7422054,78.5474006 C94.7422054,78.5474006 86.2155823,34.8803022 86.1783528,34.691774 C86.0002143,34.3155836 85.1229416,33.346536 84.3413399,32.6655836 L79.7982664,28.7082244 L85.1311667,29.1803023 L100.226188,30.5225101 L101.222508,35.6290034 C101.222508,35.6290034 99.2603871,35.5415576 99.1439369,35.5365792 C99.1389586,35.5796528 99.1337638,35.6426398 99.1558417,35.7545446 C99.1558417,35.7545446 101.695668,48.7588732 102.338742,52.059739 C105.467097,52.3380939 114.647616,53.1543277 114.647616,53.1543277 C125.645019,54.1341978 133.391772,60.7740245 135.375321,70.91818 C138.324455,86.0346299 126.653027,86.7136342 117.616231,85.9095217 L117.616231,85.9095217 Z" id="path26" fill="#FFFFFF"></path>
                        <path d="M104.835495,75.6971843 L101.984846,61.1043275 L114.409088,62.20844 C120.365798,62.7396088 123.499131,64.6476174 124.584412,70.2025956 C125.667529,75.7584397 123.216447,77.3331149 117.940473,76.863418 L104.835495,75.6971843 Z M100.593504,53.9714272 L96.998266,35.5623368 C96.7378764,34.2352805 97.3963179,33.3158 98.671859,33.4307351 L98.4768374,32.4350641 L85.5432879,31.2831161 C85.5432879,31.2831161 88.0582229,33.4627697 88.3183961,34.7906918 L96.9010798,78.739392 C97.1608201,80.0679634 96.504543,80.987011 95.2259716,80.8731582 L95.422292,81.8668811 L117.206058,83.8075737 C130.140256,84.9567078 135.270343,81.2569244 133.214066,70.7261887 C131.433546,61.6051933 124.674889,56.1149337 115.058872,55.2588731 L100.593504,53.9714272 L100.593504,53.9714272 Z" id="path28" fill="#302A83"></path>
                        <path d="M98.1441534,95.5534608 L100.667097,108.470344 L94.5519457,107.925971 L75.4993488,106.231383 L72.9770545,93.3149327 C72.9770545,93.3149327 74.1400414,93.4183959 75.1054094,93.5034609 C74.5848466,90.848699 74.224457,88.9913398 73.5127687,85.3569243 C69.6305177,85.0116862 67.759955,84.8445866 63.8785698,84.5002143 C64.5880936,88.1339805 64.949349,89.9915562 65.4688295,92.6474003 C66.4341975,92.7318159 67.5961022,92.8354955 67.5961022,92.8354955 L70.1183965,105.752595 L36.1266225,102.727703 L44.8075746,93.4415561 C44.8759729,93.3690453 44.949566,93.2692617 45.0222932,93.1761881 C44.57554,90.8883094 37.3731592,54.0108212 36.926406,51.7233753 C36.8145012,51.6129857 36.6978346,51.4971849 36.5987004,51.4093061 L23.9543284,40.251947 L38.8608215,41.5521635 L57.9114704,43.2463193 L60.4335483,56.1625527 C60.4335483,56.1625527 59.2716435,56.0599553 58.3071414,55.9735917 C58.8777042,58.897834 59.3610375,61.3764054 60.1571414,65.4476174 C64.0396088,65.792639 65.9099551,65.9590893 69.7926389,66.3045438 C68.9963186,62.2333318 68.5134182,59.7556262 67.9428554,56.8313839 C66.9766217,56.7461025 65.816665,56.6406912 65.816665,56.6406912 L63.2935049,43.7248907 L87.6170974,46.0761893 L90.140041,58.9930721 C90.140041,58.9930721 89.8205605,58.7770548 88.8560584,58.6919899 C89.9435042,64.2619032 94.9296513,89.7948029 96.017963,95.3647162 C96.982898,95.4495647 98.1441534,95.5534608 98.1441534,95.5534608" id="path30" fill="#FFFFFF"></path>
                        <path d="M92.8432877,98.8748893 C92.9623353,98.8909066 94.8586556,99.1439369 94.8586556,99.1439369 L95.3523786,101.162119 L95.9556253,104.26082 L93.7976167,104.068829 L78.7047599,102.72727 L77.7075738,97.6203439 C77.7075738,97.6203439 79.6692621,97.7077898 79.7857123,97.7134175 C79.7928551,97.6707768 79.7948032,97.6075733 79.7727253,97.4945863 C79.7727253,97.4945863 77.3562751,85.1207771 76.7186128,81.8515131 C73.5956692,81.5733746 62.2898253,80.5681798 59.1662323,80.2902577 C59.8049769,83.5599546 62.221427,95.9337638 62.221427,95.9337638 C62.2424227,96.0454521 62.2716435,96.1123353 62.2950201,96.1571405 C62.4116868,96.1725084 64.3088729,96.4261881 64.3088729,96.4261881 L64.8028122,98.4443698 L65.4069248,101.543288 L44.9759729,99.7255386 L48.1095226,96.4493482 C48.6471849,95.8839803 49.1712109,95.0398245 49.2060594,94.6824652 C49.1694793,94.4961015 40.6958864,51.1082238 40.6593063,50.9209944 C40.4822501,50.5450204 39.6049774,49.5757563 38.8225099,48.8932888 L34.2796528,44.9350638 L39.6140683,45.4086569 L54.7071415,46.7508646 L55.7041112,51.8582238 C55.7041112,51.8582238 53.7417735,51.7699121 53.6253233,51.7638515 C53.6196956,51.8064922 53.6162324,51.8716437 53.6387432,51.983332 C53.6387432,51.983332 56.3012973,65.6225092 56.952596,68.9515134 C60.0748903,69.229219 71.3813835,70.2354961 74.5038942,70.5127688 C73.8532449,67.1831152 71.1900415,53.5454532 71.1900415,53.5454532 C71.1683965,53.4324662 71.1400415,53.3653666 71.1153662,53.3214272 C70.9969679,53.3043277 69.1028121,53.0515138 69.1028121,53.0515138 L68.6088727,51.0324663 L68.003678,47.933765 L85.255842,49.4688299 L86.2530281,54.5759727 C86.2530281,54.5759727 84.2904741,54.4872281 84.1738074,54.4818168 C84.1675304,54.5244575 84.1647165,54.5900419 84.1876602,54.7008644 L92.7712098,98.6515127 C92.7932877,98.7629845 92.8205605,98.8307335 92.8432877,98.8748893" id="path32" fill="#FFFFFF"></path>
                        <path d="M82.0294352,54.5097389 C81.769262,53.1809511 82.4253226,52.2623364 83.7025953,52.3759727 L83.5086559,51.3809511 L70.5731584,50.2309511 L70.7688294,51.2248905 C72.0445869,51.3385269 73.0887428,52.4095225 73.3493488,53.7363623 L77.0733747,72.8093055 L55.2045441,70.8636346 L51.4794359,51.7917736 C51.220345,50.4634187 51.8761892,49.544804 53.1536783,49.6590897 L52.9588731,48.6629858 L40.0244579,47.5123365 C40.0244579,47.5123365 42.5402587,49.6911243 42.799566,51.0190463 L51.3831156,94.9686123 C51.6415572,96.2956686 49.9028126,98.0965343 49.9028126,98.0965343 L62.8385266,99.2476166 L62.6437214,98.2525949 C61.3662322,98.1383092 60.3216435,97.0688287 60.0625526,95.7413396 L56.5967518,77.9945868 L78.4662318,79.9393919 L81.9309503,97.6861447 C82.1911235,99.0136339 81.5344135,99.9331144 80.2580067,99.8190451 L80.4536776,100.815149 L93.3863613,101.965149 L93.1924219,100.970777 C91.916015,100.857573 90.8699111,99.7863611 90.6114696,98.4590884 L82.0294352,54.5097389" id="path34" fill="#302A83"></path>
                        <polyline id="path36" fill="#302A83" points="181.929866 11.3874889 181.080515 11.3874889 181.080515 11.7270343 183.147831 11.7270343 183.147831 11.3874889 182.294151 11.3874889 182.294151 8.63619026 181.929866 8.63619026 181.929866 11.3874889"></polyline>
                        <path d="M185.803891,9.99331144 C185.783112,10.424437 185.75822,10.9469694 185.75822,11.3279651 L185.749779,11.3279651 C185.650861,10.9701296 185.53874,10.580108 185.397614,10.1538742 L184.90519,8.65387424 L184.630731,8.65387424 L184.175969,10.1259738 C184.043069,10.5669045 183.934844,10.9608439 183.856272,11.3279651 L183.848264,11.3279651 C183.839822,10.9424023 183.819476,10.4290041 183.794584,9.96144997 L183.720125,8.63619026 L183.375969,8.63619026 L183.570991,11.7270343 L184.030948,11.7270343 L184.506922,10.2315798 C184.623156,9.85110365 184.714065,9.51129846 184.788956,9.19093051 L184.796965,9.19093051 C184.87164,9.50283526 184.970991,9.8415582 185.09545,10.2315798 L185.592203,11.7270343 L186.052593,11.7270343 L186.226186,8.63619026 L185.870342,8.63619026 L185.803891,9.99331144" id="path38" fill="#302A83"></path>
                    </g>
                </g>
            </g>
        </g>
    </g>
</svg>