<svg width="200" height="200" viewBox="0 0 200 200" fill="none" xmlns="http://www.w3.org/2000/svg">
<path d="M163.356 53.8813V0H25V53.8813H55.7078V146.119H25V200H163.47V146.119H132.763V53.8813H163.356ZM132.648 153.767H155.708V192.237H32.6484V153.767H55.7078C59.9315 153.767 63.3562 150.342 63.3562 146.119V53.8813C63.3562 49.6575 59.9315 46.2329 55.7078 46.2329H32.6484V7.6484H155.708V46.1187H132.648C128.425 46.1187 125 49.5434 125 53.7671V146.005C124.886 150.342 128.425 153.767 132.648 153.767Z" fill="#11294B"/>
<path d="M132.648 46.1188H155.708V7.64844H32.6484V46.1188H55.7078C59.9315 46.1188 63.3562 49.5434 63.3562 53.7672V146.005C63.3562 150.228 59.9315 153.653 55.7078 153.653H32.6484V192.123H155.708V153.653H132.648C128.425 153.653 125 150.228 125 146.005V53.8813C124.886 49.5434 128.425 46.1188 132.648 46.1188Z" fill="#F15A22"/>
<path d="M175.685 200H175V196.233L173.516 200H173.06L171.576 196.233V200H170.891V195.548H172.032L173.288 198.63L174.544 195.548H175.685V200ZM170.206 196.233H168.722V200H168.037V196.233H166.553V195.548H170.092V196.233H170.206Z" fill="#F15A22"/>
</svg>
