<?xml version="1.0" encoding="UTF-8"?>
<svg width="200px" height="200px" viewBox="0 0 200 200" version="1.1" xmlns="http://www.w3.org/2000/svg" xmlns:xlink="http://www.w3.org/1999/xlink">
    <!-- Generator: Sketch 54.1 (76490) - https://sketchapp.com -->
    <title>iona</title>
    <desc>Created with Sketch.</desc>
    <g id="iona" stroke="none" stroke-width="1" fill="none" fill-rule="evenodd">
        <g id="iona_BGL">
            <g id="iona" transform="translate(0.000000, 24.000000)">
                <g id="g10" transform="translate(99.907147, 76.404831) scale(-1, 1) rotate(-180.000000) translate(-99.907147, -76.404831) translate(0.000000, 0.267414)" fill-rule="nonzero">
                    <g id="g12">
                        <path d="M96.9901554,0.883242318 C96.8163393,0.975654572 79.5108615,10.3313646 62.5585871,28.1544654 C52.5682438,38.6581235 44.6001846,50.0363961 38.8772507,61.9725147 C31.6930726,76.9556155 28.0501386,92.8449373 28.0501386,109.197769 L28.0501386,152.262206 L169.23825,152.262206 L169.23825,109.197769 C169.23825,92.8449373 165.595539,76.9556155 158.410767,61.9725147 C152.688204,50.037139 144.720516,38.6588663 134.729059,28.1544654 C117.793869,10.3487834 100.472421,0.97638252 100.299348,0.883966552 L98.6436373,0 L96.9901554,0.883242318" id="path14" fill="#FFFFFF"></path>
                        <path d="M136.529244,111.5636 L138.853107,118.076506 L138.25515,118.613182 L136.529244,116.890248 L136.529244,111.5636 Z M68.1203326,76.3765998 C66.7832852,76.3765998 65.4480949,76.4657362 64.1363029,76.6421522 L0.00290157839,76.6421522 L18.0086532,94.8883913 L18.0086532,116.925902 L15.6062763,119.357843 L0,135.172513 L64.1600727,135.172513 C65.4636938,135.347072 66.7910847,135.435094 68.1203326,135.435094 C69.4224681,135.435094 70.7324031,135.347072 72.0315674,135.172513 L188.1285,135.172513 L172.812995,119.415039 L171.9402,118.514389 L179.922001,96.2354665 L199.519772,76.6421522 L72.0553371,76.6421522 C70.7483733,76.4657362 69.4310103,76.3765998 68.1203326,76.3765998 L68.1203326,76.3765998 Z" id="path16" fill="#FFFFFF"></path>
                        <path d="M31.5598878,148.752457 C31.5598878,148.752457 31.5598878,142.044936 31.5598878,109.19814 C31.5598878,39.8232116 98.6436373,3.97879284 98.6436373,3.97879284 C98.6436373,3.97879284 165.72813,39.8232116 165.72813,109.19814 C165.72813,141.709931 165.72813,148.752457 165.72813,148.752457 L31.5598878,148.752457" id="path18" fill="#6B2439"></path>
                        <path d="M98.6469799,9.62744637 C93.5788277,12.6904732 80.9229321,20.9763783 68.4323103,34.1649388 C59.1012056,44.0181976 51.6791073,54.650695 46.3714009,65.7675007 C39.7868142,79.5591438 36.4486156,94.171214 36.4486156,109.19814 L36.4486156,143.864063 L160.839736,143.864063 L160.839736,109.19814 C160.839736,94.1114183 157.474834,79.4443806 150.838251,65.6037124 C145.495632,54.46128 138.028223,43.8087269 128.644008,33.9420976 C116.17827,20.8360998 103.677249,12.661021 98.6469799,9.62744637" id="path20" fill="#F3A00F"></path>
                        <path d="M98.6488369,14.0508817 C92.9563579,17.6635093 81.9829135,25.3255704 71.1624866,36.7506769 C62.102134,46.3182904 54.902877,56.625811 49.7649013,67.3879277 C43.4239543,80.6692645 40.2090983,94.7361165 40.2090983,109.19814 L40.2090983,140.103618 L157.07929,140.103618 L157.07929,109.19814 C157.07929,94.6785492 153.838436,80.5585867 147.44735,67.2297105 C142.275205,56.4427098 135.032123,46.1147621 125.919031,36.5337781 C115.126831,25.187446 104.280777,17.6208352 98.6488369,14.0508817" id="path22" fill="#6B2439"></path>
                        <path d="M98.6495797,16.7331101 C92.8527368,20.5118286 82.7558011,27.7909 72.8011124,38.3023203 C63.9026911,47.6980489 56.8371388,57.8109549 51.8009272,68.3598869 C45.6063127,81.3351883 42.4649943,95.0752065 42.4649943,109.19814 L42.4649943,137.84735 L154.823023,137.84735 L154.823023,109.19814 C154.823023,95.0191248 151.656821,81.2271103 145.413181,68.2050122 C140.342801,57.6308249 133.233794,47.4982347 124.284119,38.0887641 C114.360257,27.6549297 104.377713,20.4639549 98.6495797,16.7331101" id="path24" fill="#FFFFFF"></path>
                        <path d="M98.0222817,18.4998695 C93.0076114,21.8574553 83.1688001,28.9953196 73.6200539,39.0781792 C64.8029696,48.3877425 57.8046411,58.4029698 52.8189402,68.8456807 C46.6971205,81.6687073 43.5933137,95.2449373 43.5933137,109.19814 L43.5933137,136.719031 L153.695075,136.719031 L153.695075,109.19814 C153.695075,95.1895984 150.566013,81.5617436 144.395911,68.6926631 C139.376412,58.2250682 132.335001,48.1901566 123.467035,38.86648 C114.427109,29.3623762 105.322931,22.5448462 99.2772491,18.4998695 L98.6495797,18.0798881 L98.0222817,18.4998695" id="path26" fill="#6B2439"></path>
                        <path d="M92.0727925,117.832866 C92.0018547,117.97437 91.9301741,118.115503 91.8570079,118.255522 L92.0727925,118.040108 L92.0727925,117.832866 Z M133.761928,118.038251 L137.005382,121.276134 L138.1519,122.423767 L142.084305,118.89619 L133.761928,95.569914 L133.761928,118.038251 Z M91.864436,93.5673143 C91.9350023,93.702876 92.0040831,93.8388092 92.0727925,93.9758565 L92.0727925,93.7752994 L91.864436,93.5673143 Z M192.836764,79.4098402 L177.526087,94.7179178 L168.753199,119.20334 L170.828594,121.344101 L181.578826,132.404825 L77.7151327,132.404825 L80.4820778,129.63528 C76.7821708,131.570656 72.577157,132.667035 68.1203326,132.667035 C63.8837496,132.667035 59.874836,131.676134 56.3108621,129.914946 L58.7973987,132.404825 L6.619647,132.404825 L17.5755984,121.302875 L20.7764526,118.062393 L20.7764526,93.7526439 L6.62258108,79.4098402 L58.7959131,79.4098402 L56.3145761,81.893777 C59.8778072,80.1348169 63.8852352,79.1442877 68.1203326,79.1442877 C72.5823566,79.1442877 76.7918272,80.2432663 80.4950769,82.1823563 L77.727389,79.4098402 L192.836764,79.4098402 L192.836764,79.4098402 Z" id="path28" fill="#6B2439"></path>
                        <polyline id="path30" fill="#FFFFFF" points="41.2193119 119.37827 45.398699 123.558028 51.0094695 129.176227 14.3425066 129.176227 19.8727572 123.572142 24.0053476 119.387926 24.0053476 92.4278528 14.345255 82.638438 51.0068697 82.638438 41.2193119 92.4375093 41.2193119 119.37827"></polyline>
                        <path d="M68.1203326,129.438437 C55.1457739,129.438437 44.5905281,118.88022 44.5905281,105.903061 C44.5905281,92.9285028 55.1457739,82.3728856 68.1203326,82.3728856 C81.0971196,82.3728856 91.6542224,92.9285028 91.6542224,105.903061 C91.6542224,118.88022 81.0971196,129.438437 68.1203326,129.438437" id="path32" fill="#FFFFFF"></path>
                        <path d="M152.142615,87.9041761 L148.163042,91.8830061 L148.568613,93.0674071 L155.715502,93.0674071 L156.122559,91.8822633 L152.142615,87.9041761 Z M136.13593,92.6150395 L130.532959,84.0237676 L130.532959,119.377156 L134.720888,123.558028 L138.029709,126.870935 L145.853293,119.852922 L136.13593,92.6150395 Z M174.730172,92.9467015 L165.035465,120.007425 L173.937972,129.176227 L85.5056617,129.176227 L95.3017618,119.377899 L95.3017618,92.4382521 L91.1168037,88.2529226 L85.5127184,82.638438 L117.240851,82.638438 L107.432495,92.4389949 L107.432495,102.574556 L121.602597,82.638438 L129.629709,82.638438 L130.532959,82.638438 L185.040292,82.638438 L174.730172,92.9467015 L174.730172,92.9467015 Z" id="path34" fill="#FFFFFF"></path>
                        <polyline id="path36" fill="#F3A00F" points="44.0932208 124.862021 46.5589589 127.33073 18.7556541 127.33073 21.1855891 124.868706 25.8505843 120.145958 25.8505843 91.6705641 21.1855891 86.9426162 18.7585511 84.4839347 22.2150784 84.4839347 43.0700082 84.4839347 46.5559877 84.4839347 44.0932208 86.9496728 39.3741866 91.6739067 39.3741866 120.142615 44.0932208 124.862021"></polyline>
                        <polyline id="path38" fill="#F3A00F" points="135.881148 127.33073 113.120517 127.33073 115.589598 124.862021 120.309003 120.142615 120.309003 109.592198 108.029709 126.727573 107.597769 127.33073 106.856079 127.33073 93.4462372 127.33073 89.9572865 127.33073 92.4245102 124.862021 97.1468871 120.142615 97.1468871 91.6739067 92.4226532 86.9496728 89.9617433 84.4839347 93.4462372 84.4839347 108.03788 84.4839347 109.296933 84.4839347 112.784398 84.4839347 110.317175 86.9496728 105.58737 91.6739067 105.58737 108.355058 122.124417 85.0889487 122.5545 84.4839347 123.301018 84.4839347 127.243822 84.4839347 128.687833 84.4839347 128.687833 85.9275745 128.687833 120.142615 133.41541 124.862021 135.881148 127.33073"></polyline>
                        <path d="M68.1203326,95.2438231 C62.2399242,95.2438231 57.4584944,100.02711 57.4584944,105.903433 C57.4584944,111.785698 62.2399242,116.570471 68.1203326,116.570471 C74.0022266,116.570471 78.7866276,111.785698 78.7866276,105.903433 C78.7866276,100.02711 74.0022266,95.2438231 68.1203326,95.2438231 L68.1203326,95.2438231 Z M68.1203326,127.59294 C56.1645297,127.59294 46.4356534,117.863321 46.4356534,105.903433 C46.4356534,93.9461444 56.1645297,84.2180109 68.1203326,84.2180109 C80.0791066,84.2180109 89.8090971,93.9461444 89.8090971,105.903433 C89.8090971,117.863321 80.0791066,127.59294 68.1203326,127.59294 L68.1203326,127.59294 Z" id="path40" fill="#F3A00F"></path>
                        <path d="M152.140758,85.2954482 L150.48839,86.9496728 L146.044565,91.3916412 L147.249764,94.9129038 L157.033237,94.9129038 L158.241779,91.3916412 L153.797953,86.9496728 L152.140758,85.2954482 Z M154.349114,102.812254 L150.08319,102.812254 L152.236579,108.995726 L154.349114,102.812254 Z M178.119587,86.9496728 L173.133143,91.9342595 L162.910674,120.466849 L167.189968,124.880591 L169.571769,127.33073 L166.15487,127.33073 L159.220052,127.33073 L144.054592,127.33073 L140.279662,127.33073 L143.093404,124.806311 L148.007424,120.399626 L137.800554,91.7901556 L134.491362,86.716061 L133.035837,84.4839347 L135.704732,84.4839347 L149.466663,84.4839347 L152.954128,84.4839347 L154.818195,84.4839347 L177.096374,84.4839347 L180.585325,84.4839347 L178.119587,86.9496728 L178.119587,86.9496728 Z" id="path42" fill="#F3A00F"></path>
                        <path d="M68.1233038,96.732031 C67.3481877,96.732031 66.5697291,96.8349094 65.8090977,97.0373235 L64.9032481,97.2783634 L64.9032481,99.8024116 L64.7981414,99.8603503 C63.6505091,100.492477 62.7097477,101.433238 62.0772501,102.580499 L62.0193114,102.685606 L59.4919205,102.685606 L59.251252,103.591455 C59.0503235,104.347258 58.9485593,105.125717 58.9485593,105.904918 C58.9485593,106.687834 59.0506949,107.467035 59.2516234,108.219496 L59.4934061,109.124231 L62.0170829,109.124231 L62.0753931,109.229338 C62.7090049,110.37957 63.6505091,111.321446 64.7981414,111.953201 L64.9032481,112.011139 L64.9032481,114.532959 L65.8064979,114.775113 C66.5537588,114.97567 67.3329602,115.077434 68.1233038,115.077434 C68.9129045,115.077434 69.6909918,114.97567 70.4352814,114.774742 L71.337417,114.531845 L71.337417,112.011882 L71.4428951,111.953943 C72.5927558,111.322188 73.5350028,110.37957 74.1678719,109.229338 L74.2258106,109.124231 L76.7483732,109.124231 L76.9897845,108.219496 C77.1929414,107.459607 77.2961912,106.681149 77.2961912,105.904918 C77.2961912,105.132402 77.1933128,104.354315 76.9905273,103.591455 L76.7494874,102.685606 L74.2246964,102.685606 L74.1667577,102.580499 C73.53426,101.432867 72.5923844,100.491734 71.4428951,99.8596075 L71.337417,99.8020402 L71.337417,97.2794776 L70.433053,97.0376949 C69.6746501,96.8352808 68.8973056,96.732031 68.1233038,96.732031" id="path44" fill="#F3A00F"></path>
                        <path d="M76.0768783,105.904918 C76.0768783,106.597212 75.9825422,107.267964 75.8124401,107.904547 L73.4384383,107.904547 C72.8635079,109.432866 71.6479091,110.649579 70.1181041,111.22451 L70.1181041,113.597769 C69.4826352,113.768985 68.8122545,113.858122 68.1233038,113.858122 C67.4313818,113.858122 66.7610011,113.768985 66.122561,113.597769 L66.122561,111.22451 C64.5957273,110.649579 63.381614,109.432866 62.803341,107.904547 L60.4297107,107.904547 C60.2596085,107.267964 60.1678722,106.597212 60.1678722,105.904918 C60.1678722,105.215596 60.2596085,104.545216 60.4297107,103.904918 L62.8051981,103.904918 C63.381614,102.379942 64.5957273,101.165086 66.122561,100.58867 L66.122561,98.2157821 C66.7610011,98.04568 67.4313818,97.9517153 68.1233038,97.9517153 C68.8122545,97.9517153 69.4826352,98.04568 70.1181041,98.2157821 L70.1181041,100.58867 C71.6479091,101.165086 72.8635079,102.379942 73.4384383,103.904918 L75.8124401,103.904918 C75.9825422,104.545216 76.0768783,105.215596 76.0768783,105.904918" id="path46" fill="#6B2439"></path>
                        <polyline id="path48" fill="#6B2439" points="22.2150784 85.9275745 27.2955982 91.077435 27.2955982 120.74243 22.2150784 125.883748 43.0700082 125.883748 37.9294327 120.74243 37.9294327 91.077435 43.0700082 85.9275745 22.2150784 85.9275745"></polyline>
                        <polyline id="path50" fill="#6B2439" points="93.4462372 85.9275745 109.296933 85.9275745 104.14373 91.077435 104.14373 112.881706 123.301018 85.9275745 127.243822 85.9275745 127.243822 120.74243 132.393683 125.883748 116.607982 125.883748 121.751158 120.74243 121.751158 105.096376 106.856079 125.883748 93.4462372 125.883748 98.5890412 120.74243 98.5890412 91.077435 93.4462372 85.9275745"></polyline>
                        <path d="M68.1203326,93.7983263 C61.435096,93.7983263 56.0133691,99.217082 56.0133691,105.903433 C56.0133691,112.585698 61.435096,118.017824 68.1203326,118.017824 C74.8077976,118.017824 80.2302673,112.585698 80.2302673,105.903433 C80.2302673,99.217082 74.8077976,93.7983263 68.1203326,93.7983263 L68.1203326,93.7983263 Z M68.1203326,126.1493 C56.9422456,126.1493 47.8792931,117.083377 47.8792931,105.903433 C47.8792931,94.724603 56.9422456,85.663879 68.1203326,85.663879 C79.3039906,85.663879 88.3643432,94.724603 88.3643432,105.903433 C88.3643432,117.083377 79.3039906,126.1493 68.1203326,126.1493 L68.1203326,126.1493 Z" id="path52" fill="#6B2439"></path>
                        <path d="M148.05125,101.366757 L152.24475,113.422838 L156.374741,101.366757 L148.05125,101.366757 Z M177.096374,85.9275745 L171.884118,91.1442874 L161.245307,120.827852 L166.15487,125.883748 L159.220052,125.883748 L144.054592,125.883748 L149.693218,120.827852 L139.103432,91.1442874 L135.704732,85.9275745 L149.466663,85.9275745 L144.38254,91.0050117 L146.217638,96.3584006 L158.066848,96.3584006 L159.897118,91.0050117 L154.818195,85.9275745 L177.096374,85.9275745 L177.096374,85.9275745 Z" id="path54" fill="#6B2439"></path>
                        <path d="M71.8161542,107.400554 C71.5884847,107.279849 71.3311031,107.212254 71.0544086,107.212254 C70.1552443,107.212254 69.4276677,107.941687 69.4276677,108.839366 C69.4276677,109.113089 69.4986055,109.373813 69.618197,109.60074 C70.6165256,109.194055 71.4124402,108.40074 71.8161542,107.400554" id="path56" fill="#F3A00F"></path>
                        <path d="M66.6246966,109.60074 C66.746145,109.373813 66.8155972,109.113089 66.8155972,108.839366 C66.8155972,107.941687 66.088392,107.212254 65.1921989,107.212254 C64.9140188,107.212254 64.6566372,107.279849 64.4285963,107.404268 C64.8341674,108.40074 65.6282249,109.194055 66.6246966,109.60074" id="path58" fill="#F3A00F"></path>
                        <path d="M64.4285963,104.408911 C64.6566372,104.529988 64.9140188,104.600554 65.1903419,104.600554 C66.088392,104.600554 66.8155972,103.871121 66.8155972,102.975299 C66.8155972,102.697862 66.746145,102.437509 66.6246966,102.212068 C65.6282249,102.615411 64.8341674,103.412439 64.4285963,104.408911" id="path60" fill="#F3A00F"></path>
                        <path d="M69.618197,102.212068 C69.4971199,102.437509 69.4276677,102.697862 69.4276677,102.975299 C69.4276677,103.871121 70.1552443,104.600554 71.0544086,104.600554 C71.3311031,104.600554 71.5884847,104.529988 71.8161542,104.407054 C71.4124402,103.412439 70.6165256,102.615411 69.618197,102.212068" id="path62" fill="#F3A00F"></path>
                        <path d="M60.9634154,71.5190326 L60.9634154,71.5491161 C60.9634154,74.6250678 63.3756716,77.0376954 66.6480949,77.0376954 C68.5028767,77.0376954 69.8142972,76.464622 70.9303603,75.4993482 L69.2111403,73.4339815 C68.4575656,74.0672219 67.7036195,74.4289675 66.662951,74.4289675 C65.1402026,74.4289675 63.9639724,73.1472591 63.9639724,71.5338886 L63.9639724,71.5041765 C63.9639724,69.7998126 65.1550587,68.5786427 66.8289677,68.5786427 C67.5376028,68.5786427 68.0805925,68.7298033 68.5177327,69.0154115 L68.5177327,70.2974913 L66.4367671,70.2974913 L66.4367671,72.438624 L71.2924773,72.438624 L71.2924773,67.6891348 C70.1764142,66.769172 68.6232109,66.0601655 66.708262,66.0601655 C63.4209826,66.0601655 60.9634154,68.3220039 60.9634154,71.5190326" id="path64" fill="#FFFFFF"></path>
                        <path d="M84.5541297,70.433053 L83.3782709,73.4339815 L82.1868132,70.433053 L84.5541297,70.433053 Z M81.9907129,76.9017622 L84.8103971,76.9017622 L89.3039903,66.2714932 L86.1675002,66.2714932 L85.398698,68.1563586 L81.3273889,68.1563586 L80.5734427,66.2714932 L77.4971197,66.2714932 L81.9907129,76.9017622 L81.9907129,76.9017622 Z" id="path66" fill="#FFFFFF"></path>
                        <polyline id="path68" fill="#FFFFFF" points="95.7559865 76.826739 104.245123 76.826739 104.245123 74.3383454 98.6514367 74.3383454 98.6514367 72.7402025 103.716989 72.7402025 103.716989 70.433053 98.6514367 70.433053 98.6514367 68.7591441 104.320146 68.7591441 104.320146 66.2714932 95.7559865 66.2714932 95.7559865 76.826739"></polyline>
                        <polyline id="path70" fill="#FFFFFF" points="112.450879 76.826739 115.376042 76.826739 115.376042 68.8349101 120.488019 68.8349101 120.488019 66.2714932 112.450879 66.2714932 112.450879 76.826739"></polyline>
                        <path d="M126.366199,67.8391812 L127.994426,69.7849565 C129.034351,68.9552443 130.196468,68.5184755 131.417638,68.5184755 C132.201668,68.5184755 132.623581,68.789599 132.623581,69.2423381 L132.623581,69.2724217 C132.623581,69.7095619 132.27632,69.9509732 130.844565,70.2830066 C128.597211,70.79517 126.863135,71.4287819 126.863135,73.5999982 L126.863135,73.6293389 C126.863135,75.5903417 128.415967,77.0076118 130.9493,77.0076118 C132.743915,77.0076118 134.147072,76.5247892 135.292104,75.6051977 L133.829152,73.5390882 C132.864992,74.2176397 131.809096,74.5797567 130.874277,74.5797567 C130.165642,74.5797567 129.819495,74.2781783 129.819495,73.9015766 L129.819495,73.8711216 C129.819495,73.3890418 130.18087,73.177714 131.643822,72.846052 C134.070934,72.3179183 135.578455,71.5338886 135.578455,69.5584012 L135.578455,69.5286891 C135.578455,67.3723289 133.874834,66.0906204 131.311789,66.0906204 C129.442522,66.0906204 127.662392,66.6785499 126.366199,67.8391812" id="path72" fill="#FFFFFF"></path>
                        <path d="M103.662022,45.7897853 C102.154501,45.7897853 100.934445,47.0150406 100.934445,48.5192188 C100.934445,48.9764147 101.054036,49.4120693 101.252737,49.797956 C102.92776,49.1123479 104.262207,47.7831 104.940759,46.1077054 C104.558586,45.9004631 104.124788,45.7897853 103.662022,45.7897853 L103.662022,45.7897853 Z M101.252737,37.4016704 C101.050694,37.7805004 100.934445,38.2194977 100.934445,38.6837502 C100.934445,40.1849572 102.154501,41.4098411 103.662022,41.4098411 C104.124788,41.4098411 104.558586,41.2921067 104.940759,41.0844929 C104.262207,39.4165264 102.92776,38.0802219 101.252737,37.4016704 L101.252737,37.4016704 Z M93.8306383,45.7897853 C93.3645288,45.7897853 92.9322168,45.9004631 92.5500441,46.1114195 C93.2304526,47.7831 94.5611861,49.1123479 96.2332381,49.797956 C96.4367664,49.4120693 96.5545008,48.9764147 96.5545008,48.5192188 C96.5545008,47.0150406 95.3348166,45.7897853 93.8306383,45.7897853 Z M96.2332381,37.4016704 C94.5611861,38.0802219 93.2304526,39.4165264 92.5500441,41.0885784 C92.9322168,41.2921067 93.3645288,41.4098411 93.8287813,41.4098411 C95.3348166,41.4098411 96.5545008,40.1849572 96.5545008,38.6837502 C96.5545008,38.2194977 96.4367664,37.7805004 96.2332381,37.4016704 L96.2332381,37.4016704 Z M111.641223,46.9507881 L107.659793,46.9507881 C106.697119,49.5123479 104.657008,51.5520878 102.092105,52.5166189 L102.092105,56.4999057 C101.02581,56.7858853 99.9019474,56.9318463 98.7465156,56.9318463 C97.5855129,56.9318463 96.4620217,56.7858853 95.3901555,56.4999057 L95.3901555,52.5166189 C92.8304526,51.5520878 90.7940553,49.5123479 89.8258102,46.9507881 L85.8447518,46.9507881 C85.5587722,45.8826358 85.4068688,44.7572876 85.4068688,43.5962849 C85.4068688,42.4423388 85.5587722,41.3169906 85.8447518,40.2454957 L89.8295242,40.2454957 C90.7940553,37.6876499 92.8304526,35.64791 95.3901555,34.6830075 L95.3901555,30.6997207 C96.4620217,30.4178265 97.5855129,30.2604264 98.7465156,30.2604264 C99.9019474,30.2604264 101.02581,30.4178265 102.092105,30.6997207 L102.092105,34.6830075 C104.657008,35.64791 106.697119,37.6876499 107.659793,40.2454957 L111.641223,40.2454957 C111.926831,41.3169906 112.084305,42.4423388 112.084305,43.5962849 C112.084305,44.7572876 111.926831,45.8826358 111.641223,46.9507881 L111.641223,46.9507881 Z" id="path74" fill="#FFFFFF"></path>
                    </g>
                </g>
            </g>
        </g>
    </g>
</svg>