<?xml version="1.0" encoding="UTF-8"?>
<svg width="200px" height="200px" viewBox="0 0 200 200" version="1.1" xmlns="http://www.w3.org/2000/svg" xmlns:xlink="http://www.w3.org/1999/xlink">
    <!-- Generator: Sketch 54.1 (76490) - https://sketchapp.com -->
    <title>iowa-st</title>
    <desc>Created with Sketch.</desc>
    <g id="iowa-st" stroke="none" stroke-width="1" fill="none" fill-rule="evenodd">
        <g id="iowa-st_BGL">
            <g id="iowa-st" transform="translate(0.000000, 31.000000)">
                <g id="g10" transform="translate(99.964347, 68.956865) scale(-1, 1) rotate(-180.000000) translate(-99.964347, -68.956865) translate(0.000000, 0.079862)" fill-rule="nonzero">
                    <g id="g12" transform="translate(0.000000, 0.142602)">
                        <polyline id="path14" fill="#FBC621" points="120.868731 33.1562202 120.868731 104.349659 134.734827 104.349659 140.046485 137.477644 58.9299094 137.477644 64.2438487 104.349659 78.1752565 104.349659 78.1752565 33.1562202 64.4514779 33.1562202 59.1401055 0.0153725486 139.884488 0.0153725486 134.571975 33.1562202 120.868731 33.1562202"></polyline>
                        <polyline id="path16" fill="#B81938" points="130.433081 109.395505 134.129622 132.433793 64.846772 132.433793 68.5424582 109.395505 83.216825 109.395505 83.216825 28.1126553 68.752369 28.1126553 65.0566829 5.05927973 133.967626 5.05927973 130.27194 28.1126553 115.82374 28.1126553 115.82374 109.395505 130.433081 109.395505"></polyline>
                        <polyline id="path18" fill="#80142D" points="122.191797 16.8099247 104.467163 16.8099247 115.82374 28.1126553 115.82374 109.395505 130.433081 109.395505 134.129622 132.433793 122.191797 120.916361 99.5208531 120.916361 99.5208531 16.8099247 77.079499 16.8099247 65.0566829 5.05927973 133.967626 5.05927973 130.27194 28.1126553 122.191797 16.8099247"></polyline>
                        <polyline id="path20" fill="#80142D" points="95.2935449 120.916361 77.0772173 120.916361 68.5424582 109.395505 83.216825 109.395505 95.2935449 120.916361"></polyline>
                        <path d="M67.8280197,57.7554353 C67.8280197,65.8198914 67.8280197,73.8840623 67.8280197,81.9476628 C68.8730108,82.0762903 69.9202835,82.1994988 70.970123,82.3164329 C70.8802834,80.6619588 70.7932959,79.0077699 70.705738,77.3532957 C74.9712637,77.8315845 79.2479125,78.2054882 83.525702,78.4741513 C83.8334382,84.1890888 84.1400335,89.9037411 84.4469141,95.6195342 C68.8570393,94.6980368 53.3281983,92.3767535 38.056327,88.6536876 C38.3549367,83.0300157 38.6558279,77.4069143 38.9544375,71.7818164 C43.1517993,72.7894456 47.3676994,73.6909785 51.5984301,74.4869857 C51.5137242,76.1157913 51.4250255,77.743171 51.3366119,79.3705506 C52.3758989,79.5681977 53.4163267,79.7581442 54.4581805,79.9412458 C54.4581805,71.8782157 54.4581805,63.8146152 54.4581805,55.7504442 C53.1602126,55.5217098 51.8628151,55.2841341 50.5671289,55.0325833 C49.9148651,50.8557563 49.2614604,46.6757921 48.6103375,42.4955426 C56.7412464,44.122637 64.9326187,45.3584302 73.1542228,46.2034926 C72.4951141,50.187521 71.8357201,54.1689826 71.1766114,58.1470217 C70.0606043,58.0243836 68.944312,57.8957561 67.8280197,57.7554353" id="path22" fill="#80142D"></path>
                        <path d="M115.498892,78.5120836 C119.780104,78.2548287 124.056753,77.892048 128.322278,77.4234562 C128.234721,79.0776451 128.147448,80.731834 128.06046,82.3857377 C129.108589,82.2719409 130.157287,82.1504436 131.20456,82.0238126 C131.20456,73.9604973 131.20456,65.8966115 131.20456,57.8335814 C130.088268,57.9690538 128.969694,58.0956848 127.85112,58.2174674 C127.194293,54.2365762 126.535184,50.254259 125.873794,46.2668081 C134.113366,45.4411397 142.321565,44.2224588 150.473009,42.6090542 C149.818178,46.7904445 149.167055,50.9684123 148.511369,55.1452393 C147.203419,55.3945084 145.89062,55.6320842 144.579248,55.8608186 C144.579248,63.9224226 144.579248,71.9880196 144.579248,80.0521905 C145.635647,79.8676629 146.69005,79.677146 147.744167,79.4800693 C147.656895,77.8518341 147.569622,76.223884 147.480923,74.5947931 C151.715362,73.8087682 155.932403,72.9172174 160.129764,71.9201408 C160.428659,77.5446683 160.730406,83.169481 161.031297,88.7937233 C145.73661,92.4837054 130.18923,94.7724753 114.580247,95.6551848 C114.885701,89.9411029 115.192011,84.2267359 115.498892,78.5120836" id="path24" fill="#80142D"></path>
                        <path d="M186.581386,49.8156137 C186.65725,48.1431717 186.730548,46.4724409 186.806412,44.8002841 C184.629158,45.570908 182.442491,46.3104445 180.248979,47.0226013 C180.248979,49.0495531 180.248979,51.0753641 180.248979,53.102316 C182.986947,52.2158989 185.713222,51.2807117 188.429229,50.300177 C189.377821,54.009553 190.32299,57.7117989 191.2693,61.4097667 C187.61725,62.7753282 183.942384,64.0581802 180.248979,65.2557559 C180.248979,67.2419235 180.248979,69.2266649 180.248979,71.2139733 C182.442491,70.5032424 184.629158,69.7611391 186.806412,68.9910856 C186.730548,67.3742586 186.65725,65.7554351 186.581386,64.1360412 C190.678926,62.6914779 194.753649,61.1399628 198.791581,59.4829219 C199.083061,65.0618166 199.372544,70.6392852 199.659745,76.2158983 C187.532259,81.2392137 175.121279,85.3096592 162.532616,88.4263793 C163.178891,84.2139016 163.826591,79.9988572 164.472295,75.7821015 C165.376966,75.5508003 166.281921,75.3137949 167.185736,75.0730819 C167.185736,73.0869144 167.185736,71.1013173 167.185736,69.1157202 C165.530691,69.5572175 163.872509,69.9833138 162.212046,70.3917273 C163.015754,66.1435991 163.820887,61.8897667 164.623739,57.633938 C165.477928,57.4131893 166.333828,57.1895886 167.185736,56.9631358 C167.185736,54.9364692 167.185736,52.9080914 167.185736,50.8837064 C165.900602,51.2256672 164.610905,51.5599274 163.32349,51.8827795 C162.676074,47.9940095 162.029229,44.1006763 161.382955,40.2053466 C174.355504,37.0563984 187.142954,32.894402 199.632081,27.7242061 C199.354006,33.5363984 199.076501,39.3485908 198.794719,45.161924 C194.753649,46.8192502 190.678926,48.3696245 186.581386,49.8156137" id="path26" fill="#80142D"></path>
                        <path d="M102.027805,69.9884474 C100.431798,70.0024225 98.8363612,69.9998556 97.2414949,69.9838842 C98.0383576,72.9123689 98.837502,75.8351496 99.6357907,78.7556487 C100.433794,75.8362904 101.230657,72.9146506 102.027805,69.9884474 L102.027805,69.9884474 Z M122.469872,69.0130464 C120.414115,69.193296 118.354935,69.3481623 116.293473,69.4787861 C113.941673,78.3175738 111.587306,87.1264149 109.233224,95.9038835 C102.784739,96.1357552 96.3305502,96.1294807 89.8834915,95.883634 C86.7493739,83.6483402 83.6163972,71.356861 80.4882689,59.0083408 C78.4185364,58.8534745 76.3513706,58.6755066 74.2853457,58.4721554 C74.8780017,54.4804264 75.4709429,50.4849898 76.0621728,46.4875568 C81.3356129,46.9684124 86.6181797,47.2901236 91.9033132,47.4498384 C92.6796412,50.8982518 93.4525467,54.3426724 94.2288746,57.784241 C97.831584,57.8612463 101.437716,57.863528 105.038999,57.7922267 C105.815612,54.351799 106.589373,50.9088044 107.364561,47.4612466 C112.649409,47.3095175 117.928838,46.9960773 123.202279,46.524063 C123.792938,50.5229221 124.385309,54.5183587 124.977965,58.5126545 C123.681138,58.6375743 122.384596,58.7522267 121.089195,58.8591786 C121.549801,62.2448469 122.010407,65.6302301 122.469872,69.0130464 L122.469872,69.0130464 Z" id="path28" fill="#80142D"></path>
                        <path d="M117.784239,80.8906932 C120.453188,80.706736 123.115291,80.4811388 125.774828,80.2161834 C125.686414,81.8689463 125.598,83.5231352 125.510728,85.1764685 C128.266949,84.9029569 131.018606,84.587235 133.765701,84.2267359 C133.765701,74.4801407 133.765701,64.7332604 133.765701,54.983528 C132.520781,55.1486617 131.278143,55.3001056 130.037786,55.4472713 C129.65333,53.1228507 129.266022,50.7998561 128.882421,48.4740095 C135.109016,47.7781093 141.314221,46.8549008 147.491476,45.7075211 C147.110442,48.1454533 146.729123,50.5836707 146.344096,53.0196065 C144.910086,53.2814247 143.4698,53.529553 142.028374,53.765988 C142.028374,63.5137239 142.028374,73.2597486 142.028374,83.0074846 C144.783454,82.5568607 147.528267,82.0608892 150.269658,81.5209962 C150.180959,79.8936165 150.093686,78.2662369 150.006699,76.6388573 C152.640852,76.122351 155.266164,75.5653457 157.884631,74.9669856 C158.098534,78.9313349 158.309586,82.8945434 158.523205,86.8588927 C144.875576,90.0101225 131.034578,92.0473417 117.138821,92.9711207 C117.354721,88.9448819 117.570621,84.9175023 117.784239,80.8906932" id="path30" fill="#FAE54E"></path>
                        <path d="M189.025307,46.4125479 C189.102313,44.7395354 189.177036,43.0670934 189.252616,41.3952218 C185.447696,42.7835996 181.615682,44.0827083 177.762562,45.2882698 C177.762562,48.9987867 177.762562,52.7081627 177.762562,56.4201055 C180.685343,55.5048827 183.594149,54.5377526 186.48955,53.5178596 C187.045414,55.6894104 187.598712,57.8589647 188.153721,60.027093 C184.707304,61.2651678 181.243489,62.4319414 177.762562,63.5205688 C177.762562,67.1908718 177.762562,70.8608895 177.762562,74.5300516 C181.615682,73.3242049 185.447696,72.0270927 189.252616,70.6372888 C189.177036,69.0204617 189.102313,67.4033495 189.025307,65.7865224 C191.573614,64.8598914 194.10709,63.8927613 196.632295,62.8822801 C196.836787,66.814116 197.042419,70.7442407 197.24577,74.6746505 C186.836644,78.8640265 176.227304,82.3557912 165.482777,85.1510852 C165.859532,82.6843473 166.236003,80.2187502 166.614755,77.7505863 C167.639497,77.4790711 168.668231,77.1995703 169.692687,76.9152209 C169.692687,73.244918 169.692687,69.5757558 169.692687,65.9068789 C168.278926,66.2996062 166.86431,66.6786436 165.443704,67.0474137 C165.822741,64.5840982 166.199212,62.1185011 166.575112,59.6503372 C167.616395,59.3748292 168.654826,59.0936171 169.692687,58.8052748 C169.692687,55.093332 169.692687,51.3819595 169.692687,47.6714427 C168.287197,48.0630291 166.87914,48.4417813 165.46652,48.8094105 C165.090905,46.5388937 164.711868,44.2683768 164.333115,41.9981451 C175.461243,39.1557922 186.448195,35.5704804 197.218106,31.2373611 C197.021599,35.3269153 196.825378,39.4187512 196.632295,43.5083055 C194.10709,44.5165051 191.573614,45.4859169 189.025307,46.4125479" id="path32" fill="#FAE54E"></path>
                        <path d="M98.804133,86.4276627 C99.3588567,86.4290887 99.9124396,86.4305148 100.466022,86.4290887 C102.031513,80.1055238 103.595292,73.7679839 105.1585,67.4164689 C101.476789,67.4923334 97.7936517,67.4894814 94.1130814,67.4084832 C95.6771456,73.7622798 97.2414949,80.1021014 98.804133,86.4276627 Z M116.171691,59.8593924 C116.934329,59.8091964 117.696967,59.7584299 118.459605,59.7042409 C118.808696,62.0471999 119.153223,64.3887328 119.497466,66.7294101 C117.772546,66.8588932 116.043348,66.9735456 114.314721,67.0682336 C111.964061,75.891335 109.608553,84.681923 107.253331,93.4402829 C102.140461,93.585167 97.0230279,93.5811741 91.9078765,93.4254522 C88.7600691,81.2144008 85.60998,68.9468788 82.4667359,56.6208899 C80.7281263,56.5062374 78.9929392,56.3730467 77.2563261,56.2235993 C77.6034205,53.8854888 77.9502298,51.5473784 78.297039,49.2092679 C82.1555773,49.5284123 86.0178232,49.760284 89.8834915,49.9074497 C91.0168961,54.6387152 92.1514415,59.3585725 93.2848462,64.0718701 C93.8854878,62.8246687 94.4884112,61.5774673 95.0893381,60.3279842 C99.0248817,60.3992855 102.958144,60.381888 106.892546,60.2752213 C107.724204,56.8276635 108.555577,53.377824 109.386949,49.9234212 C113.250336,49.7808187 117.110015,49.555792 120.965416,49.2412109 C121.313081,51.581603 121.661316,53.9185726 122.008125,56.2558275 C120.276361,56.4038489 118.547733,56.5347579 116.816254,56.6485547 C116.602635,57.7166474 116.387876,58.7878773 116.171691,59.8593924 L116.171691,59.8593924 Z" id="path34" fill="#FAE54E"></path>
                        <path d="M133.765701,84.2267359 C135.012902,85.2474845 136.260104,86.258251 137.505023,87.2607465 C132.118927,88.046201 126.712011,88.6633846 121.295113,89.1108712 C121.323633,89.0740798 121.348731,89.03957 121.375255,89.0039193 C121.348731,89.0281618 121.323633,89.0518338 121.295113,89.0763614 C121.375255,87.6240976 121.452261,86.1715486 121.532689,84.7192849 C120.282065,83.4509783 119.036004,82.1755416 117.784239,80.8906932 C120.453188,80.706736 123.115291,80.4811388 125.774828,80.2161834 C125.686414,81.8689463 125.598,83.5231352 125.510728,85.1764685 C128.266949,84.9029569 131.018606,84.587235 133.765701,84.2267359" id="path36" fill="#FBC621"></path>
                        <path d="M154.431369,84.1836699 C154.333829,82.6900514 154.236288,81.1952921 154.138463,79.7019588 C152.761779,78.6911923 151.384809,77.6704437 150.006699,76.6388573 C152.640852,76.122351 155.266164,75.5653457 157.884631,74.9669856 C158.098534,78.9313349 158.309586,82.8945434 158.523205,86.8588927 C157.161351,85.9790353 155.79693,85.0860585 154.431369,84.1836699" id="path38" fill="#FBC621"></path>
                        <path d="M142.700317,50.1011039 C142.571405,50.1253463 140.550727,50.4607474 138.797857,50.7225656 C139.876218,51.7435994 140.953722,52.7589292 142.028374,53.765988 C142.028374,63.5137239 142.028374,73.2597486 142.028374,83.0074846 C144.783454,82.5568607 147.528267,82.0608892 150.269658,81.5209962 C151.640638,82.4339373 153.012189,83.3366111 154.379747,84.2284471 C148.910941,85.3980727 143.416752,86.3897305 137.902029,87.2025647 C137.902029,75.0867717 137.902029,62.9715492 137.902029,50.8557563 C136.059034,51.1292679 134.026378,51.4024943 132.740104,51.5644907 C131.45497,50.5445977 130.170977,49.5144373 128.882421,48.4740095 C135.109016,47.7781093 141.314221,46.8549008 147.491476,45.7075211 C147.110442,48.1454533 146.729123,50.5836707 146.344096,53.0196065 C145.130264,52.0584657 143.917572,51.0833499 142.700317,50.1011039" id="path40" fill="#FBC621"></path>
                        <path d="M41.1984303,74.8360766 C43.8168973,75.4389999 46.4422092,76.0022797 49.0732252,76.5242049 C48.9848116,78.1515845 48.8995353,79.7789641 48.8122626,81.4060586 C51.5353998,81.9505149 54.2673783,82.448768 57.0039201,82.9048108 C57.0039201,73.1576452 57.0039201,63.4104797 57.0039201,53.6616029 C55.5787508,53.4248828 54.1572892,53.1770397 52.7329755,52.9163623 C52.3530825,50.4770041 51.9717634,48.0387867 51.5904443,45.5982876 C57.7471643,46.7559347 63.9372533,47.6919774 70.1455954,48.4038491 C69.7619947,50.7274141 69.3758271,53.0504087 68.99023,55.3714068 C67.7487327,55.2245262 66.5060946,55.0682339 65.2668789,54.9008186 C65.2668789,64.6482693 65.2668789,74.3962905 65.2668789,84.143456 C68.0128325,84.5102296 70.7633494,84.8342225 73.5195704,85.1137234 C73.430016,83.4586788 73.3404616,81.8062012 73.2531889,80.1508714 C75.9127254,80.4249534 78.5748287,80.6551138 81.2414953,80.8462012 C81.4573955,84.8744364 81.6732956,88.9006751 81.8891958,92.9289103 C68.0105509,91.9709068 54.1892322,89.9037411 40.562138,86.7245611 C40.7757566,82.7619231 40.9870934,78.799285 41.1984303,74.8360766" id="path42" fill="#FAE54E"></path>
                        <path d="M57.0039201,82.9048108 C58.2476991,84.2957555 59.4903372,85.6770032 60.7352569,87.0494096 C55.3525833,86.2340085 49.9895888,85.2486253 44.6528331,84.0938303 C44.6782164,84.0658803 44.7035996,84.0382154 44.7298385,84.0105505 C44.7035996,84.0268072 44.6782164,84.0427786 44.6528331,84.0590353 C44.7298385,82.631014 44.8045622,81.2004258 44.8827083,79.7712636 C43.65376,78.1347574 42.4248118,76.4896951 41.1984303,74.8360766 C43.8168973,75.4389999 46.4422092,76.0022797 49.0732252,76.5242049 C48.9848116,78.1515845 48.8995353,79.7789641 48.8122626,81.4060586 C51.5353998,81.9505149 54.2673783,82.448768 57.0039201,82.9048108" id="path44" fill="#FBC621"></path>
                        <path d="M77.732048,89.0230281 C77.6330818,87.4994631 77.5344009,85.9770388 77.4334383,84.4529034 C76.0393564,83.0300157 74.6449892,81.5968607 73.2531889,80.1508714 C75.9127254,80.4249534 78.5748287,80.6551138 81.2414953,80.8462012 C81.4573955,84.8744364 81.6732956,88.9006751 81.8891958,92.9289103 C80.5030996,91.637217 79.1170034,90.3355414 77.732048,89.0230281" id="path46" fill="#FBC621"></path>
                        <path d="M65.3290536,51.3565763 C65.1958629,51.3380379 63.7832426,51.1520843 62.0317988,50.8962554 C63.1078772,52.2387153 64.1873781,53.5729042 65.2668789,54.9008186 C65.2668789,64.6482693 65.2668789,74.3962905 65.2668789,84.143456 C68.0128325,84.5102296 70.7633494,84.8342225 73.5195704,85.1137234 C74.9033849,86.4373597 76.2917628,87.7512991 77.679285,89.0529746 C72.1483048,88.5826716 66.6290179,87.9344007 61.1316919,87.1093026 C61.1316919,74.9932245 61.1316919,62.8797132 61.1316919,50.7627795 C59.2895529,50.4906939 56.6998916,50.0657385 55.4193213,49.8418526 C54.1421733,48.437218 52.8638846,47.0226013 51.5904443,45.5982876 C57.7471643,46.7559347 63.9372533,47.6919774 70.1455954,48.4038491 C69.7619947,50.7274141 69.3758271,53.0504087 68.99023,55.3714068 C67.7684119,54.041496 66.5485901,52.7047402 65.3290536,51.3565763" id="path48" fill="#FBC621"></path>
                        <path d="M196.632295,43.5083055 C195.426448,42.7961487 194.215182,42.0740096 193.003632,41.3424589 C193.100031,39.6725837 193.197286,38.0007121 193.295111,36.3305517 C188.414398,38.4587513 170.5175,44.1169329 168.119497,44.5532966 C166.858605,43.7105158 165.595147,42.8594642 164.333115,41.9981451 C175.461243,39.1557922 186.448195,35.5704804 197.218106,31.2373611 C197.021599,35.3269153 196.825378,39.4187512 196.632295,43.5083055" id="path50" fill="#FBC621"></path>
                        <path d="M189.025307,65.7865224 C190.357214,66.6030643 191.687125,67.4090536 193.01504,68.2044903 C193.109157,69.6824225 193.205557,71.1623512 193.299674,72.6414242 C194.618177,73.3293386 195.934113,74.0069857 197.24577,74.6746505 C197.042419,70.7442407 196.836787,66.814116 196.632295,62.8822801 C194.10709,63.8927613 191.573614,64.8598914 189.025307,65.7865224" id="path52" fill="#FBC621"></path>
                        <path d="M169.692687,76.9152209 C170.912509,77.7599981 172.132046,78.5953635 173.34816,79.4221727 C172.299746,79.7293385 171.249907,80.031941 170.199211,80.3254169 C169.005914,79.475506 167.809479,78.6181799 166.614755,77.7505863 C167.639497,77.4790711 168.668231,77.1995703 169.692687,76.9152209" id="path54" fill="#FBC621"></path>
                        <path d="M169.692687,58.8052748 C170.912509,59.6480555 172.132046,60.4854174 173.34816,61.3110858 C172.299746,61.618822 171.249907,61.9208541 170.199211,62.2149004 C168.992224,61.368412 167.784096,60.5139379 166.575112,59.6503372 C167.616395,59.3748292 168.654826,59.0936171 169.692687,58.8052748" id="path56" fill="#FBC621"></path>
                        <path d="M189.252616,70.6372888 C190.605343,71.3286257 191.954933,72.0079839 193.299674,72.674508 C186.846626,75.1512281 180.321422,77.3618519 173.737464,79.3066647 C173.735183,67.192583 173.735183,55.0776457 173.73176,42.9615676 C175.078784,43.5636353 176.422669,44.1537244 177.762562,44.7335461 C177.762562,48.629161 177.762562,52.5236351 177.762562,56.4201055 C180.685343,55.5048827 183.594149,54.5377526 186.48955,53.5178596 C187.045414,55.6894104 187.598712,57.8589647 188.153721,60.027093 C186.905379,59.2932605 185.655896,58.5491607 184.403846,57.7945084 C182.200352,58.5503016 179.98488,59.275863 177.762562,59.9720484 C177.762562,64.8250964 177.762562,69.6772888 177.762562,74.5300516 C181.615682,73.3242049 185.447696,72.0270927 189.252616,70.6372888" id="path58" fill="#FBC621"></path>
                        <path d="M118.212617,53.0002126 C116.507377,53.1205691 114.800425,53.2252393 113.096325,53.3099452 C111.860817,52.1905156 110.622742,51.0605335 109.386949,49.9234212 C113.250336,49.7808187 117.110015,49.555792 120.965416,49.2412109 C121.313081,51.581603 121.661316,53.9185726 122.008125,56.2558275 C120.743526,55.1808899 119.478072,54.0942589 118.212617,53.0002126" id="path60" fill="#FBC621"></path>
                        <path d="M113.314507,53.5016029 C114.482421,54.5582874 115.648054,55.6069861 116.816254,56.6485547 C116.602635,57.7166474 116.387876,58.7878773 116.171691,59.8593924 C116.934329,59.8091964 117.696967,59.7584299 118.459605,59.7042409 C118.808696,62.0471999 119.153223,64.3887328 119.497466,66.7294101 C118.259676,65.6407827 117.017038,64.5401766 115.777822,63.4324405 C109.621102,63.8100519 103.451833,63.967485 97.2885537,63.9067364 C96.5544361,62.7168612 95.8217445,61.5247043 95.0893381,60.3279842 C100.617466,60.4269504 106.146165,60.3533675 111.670015,60.1018167 C112.219035,57.902601 112.765773,55.7022446 113.314507,53.5016029" id="path62" fill="#FBC621"></path>
                        <path d="M100.466022,86.4290887 C101.607698,87.6144007 102.746807,88.7928677 103.885915,89.9642045 C101.191869,90.0049888 98.5001045,90.0049888 95.8080546,89.9642045 C92.7372526,77.800212 89.6661653,65.5843121 86.5999265,53.3133677 C85.0954702,53.2355067 83.5932956,53.1479488 82.0891245,53.0449898 C80.8245256,51.7758276 79.5613527,50.4952572 78.297039,49.2092679 C82.1555773,49.5284123 86.0178232,49.760284 89.8834915,49.9074497 C92.8576091,62.132191 95.830871,74.3050249 98.804133,86.4276627 C99.3588567,86.4290887 99.9124396,86.4305148 100.466022,86.4290887" id="path64" fill="#FBC621"></path>
                        <path d="M110.657252,63.8847756 C111.876789,64.9551499 113.098607,66.0161124 114.314721,67.0682336 C111.964061,75.891335 109.608553,84.681923 107.253331,93.4402829 C106.129908,92.2837767 105.009053,91.1192847 103.885915,89.9490887 C106.142742,81.2899801 108.400425,72.6012103 110.657252,63.8847756" id="path66" fill="#FBC621"></path>
                        <path d="M26.7099031,66.9510144 C22.1713506,65.7323335 17.6604345,64.3864512 13.1838285,62.914223 C12.9714934,62.8452034 12.7991441,62.9672712 12.7991441,63.1831713 C12.7991441,64.9848112 12.7991441,66.7844547 12.7991441,68.5829573 C12.7991441,68.7982871 12.9679284,69.0318699 13.1770407,69.1054528 C16.3674292,70.2291605 19.5736466,71.288697 22.793782,72.2843476 C22.7077641,70.6119055 22.6215467,68.9406043 22.5341884,67.2678771 C26.6559708,68.5478771 30.8007122,69.7214956 34.9658458,70.7912995 C35.2655963,76.5592851 35.5656319,82.3267003 35.8650971,88.0938302 C27.1509441,85.8906217 18.521725,83.2285184 10.0175969,80.1089463 C4.45812467,78.0751496 0,72.5490178 0,65.8312996 C0,62.97269 0,60.8059878 0,57.9485191 C0,52.2304443 4.45587155,48.6645264 10.0119213,50.5654176 C14.4769479,52.0972536 18.9741457,53.503029 23.4988942,54.7824585 C23.7126839,54.8420664 23.8871438,54.7145797 23.8871438,54.4975387 C23.8871438,52.5989292 23.8871438,50.6997492 23.8871438,48.8014248 C23.8871438,48.5889471 23.7160208,48.3639204 23.5071367,48.2983232 C19.9848551,47.221104 16.4763775,46.0657386 12.9897466,44.8359347 C13.0748802,46.5092323 13.1596432,48.18253 13.2447769,49.8566832 C9.16198195,48.4212466 5.10705157,46.880284 1.08411263,45.2343661 C0.794675203,39.4244553 0.505349007,33.6148298 0.215909014,27.8037783 C8.91288391,31.3970759 17.7546662,34.5001061 26.7019744,37.1125837 C32.354509,38.7676283 36.9985017,43.3728331 36.9985017,50.2633856 C36.9985017,53.2169684 36.9985017,56.173118 36.9985017,59.1278417 C36.9996426,64.8379306 32.3567906,68.4731534 26.7099031,66.9510144" id="path68" fill="#80142D"></path>
                        <path d="M26.7145804,64.4266651 C22.1771403,63.2074137 17.6672224,61.8612462 13.1896182,60.3901589 C11.6128625,59.8745083 10.3381103,60.749232 10.3381103,62.3643478 C10.3381103,64.1420305 10.3381103,65.920854 10.3381103,67.6979662 C10.3381103,69.3042407 11.6082992,71.0785009 13.1770407,71.6312282 C17.1838284,73.0421372 21.2159139,74.3520837 25.2698176,75.5613528 C25.1848265,73.8914777 25.0998354,72.2216025 25.0149299,70.5494457 C27.5782096,71.3177879 30.1518709,72.0453458 32.7321204,72.7332602 C32.9437425,76.7962904 33.1547942,80.8587502 33.3638494,84.9214952 C25.5007765,82.8497662 17.7085486,80.4029926 10.0175969,77.5817449 C5.81438845,76.0436345 2.43003488,71.1460945 2.43003488,66.8235277 C2.43003488,63.9443834 2.43003488,61.0655243 2.43003488,58.1872356 C2.43003488,53.8715138 5.80971108,51.6563267 10.0050194,53.0906226 C14.4689052,54.6227437 18.9673578,56.0285191 23.494331,57.3088043 C25.0837783,57.7580021 26.3815751,56.7920128 26.3815751,55.178323 C26.3815751,53.2996778 26.3815751,51.4241698 26.3815751,49.5489471 C26.3815751,47.9398205 25.0894539,46.2553999 23.5071367,45.7708366 C19.162438,44.4432074 14.8421244,42.9960774 10.5539249,41.4342949 C10.6664382,43.1201415 10.780178,44.8059882 10.8916076,46.4918348 C8.33066646,45.5637778 5.78230289,44.5923697 3.24543307,43.5818884 C3.04099814,39.4911933 2.83656321,35.4027799 2.63224236,31.3132256 C10.5482493,34.4909795 18.581447,37.2665944 26.7019744,39.6380739 C30.9795358,40.8901238 34.4824234,45.2988224 34.4824234,49.6270932 C34.4824234,52.601496 34.4824234,55.5784656 34.4824234,58.5548648 C34.4824234,62.868305 30.9843843,65.5763263 26.7145804,64.4266651" id="path70" fill="#FAE54E"></path>
                        <path d="M10.8916076,46.4918348 C10.780178,44.8059882 10.6664382,43.1201415 10.5539249,41.4342949 C9.22638123,39.7587156 7.90106219,38.0717281 6.57811035,36.3721916 C6.66643834,38.1290543 6.75490892,39.8813537 6.84235277,41.6365052 C8.19040265,43.2673073 9.53876625,44.8841344 10.8916076,46.4918348" id="path72" fill="#FBC621"></path>
                        <path d="M34.4824234,49.6270932 C34.4824234,52.601496 34.4824234,55.5784656 34.4824234,58.5548648 C34.4824234,60.8792855 33.4625304,62.7282694 31.8582523,63.7686972 C30.821247,62.6421375 29.7853825,61.5087329 28.749518,60.3659165 C29.7417461,59.5376812 30.3583593,58.2941875 30.3583593,56.6944727 C30.3583593,54.6812108 30.3583593,52.6679488 30.3583593,50.6538312 C30.3583593,46.8606049 27.2991366,43.3568617 23.5644914,42.2129045 C17.8532616,40.4671648 12.1892902,38.5194999 6.57811035,36.3721916 C5.25980736,34.6977531 3.94361487,33.0107657 2.63224236,31.3132256 C10.5482493,34.4909795 18.581447,37.2665944 26.7019744,39.6380739 C30.9795358,40.8901238 34.4824234,45.2988224 34.4824234,49.6270932" id="path74" fill="#FBC621"></path>
                        <path d="M12.7966913,75.0650962 C9.10226002,73.7577165 6.49765403,70.0494813 6.49765403,66.2608183 C6.49765403,64.5093745 6.49765403,62.7579307 6.49765403,61.0067721 C6.49765403,59.1475208 7.02608182,57.9393925 8.19508001,57.2098381 C9.15063079,58.3711928 10.1049552,59.5285547 11.0615042,60.6793568 C10.6183242,61.0447044 10.3381103,61.6222444 10.3381103,62.3643478 C10.3381103,64.1420305 10.3381103,65.920854 10.3381103,67.6979662 C10.3381103,69.3042407 11.6082992,71.0785009 13.1770407,71.6312282 C17.1838284,73.0421372 21.2159139,74.3520837 25.2698176,75.5613528 C26.615871,77.1525114 27.9628941,78.7331175 29.3099458,80.3003188 C23.7641349,78.742244 18.2551154,76.9979303 12.7966913,75.0650962" id="path76" fill="#FBC621"></path>
                        <path d="M23.8904807,60.5724049 C20.0972544,59.5080199 16.3213115,58.3552214 12.5707519,57.1103016 C10.8502814,56.5407472 9.29078052,56.5407472 8.11017449,57.120569 C7.07776096,55.8422802 6.04879842,54.5582874 5.0208341,53.2674496 C6.3519428,52.5507295 8.09180728,52.4372179 10.0050194,53.0906226 C14.4689052,54.6227437 18.9673578,56.0285191 23.494331,57.3088043 C24.3695395,57.554651 25.1435003,57.3638488 25.6752364,56.882708 C26.6984093,58.0509076 27.7228086,59.2116919 28.749518,60.3659165 C27.6160849,61.2041339 26.2747373,61.2971108 23.8904807,60.5724049" id="path78" fill="#FBC621"></path>
                        <path d="M25.0149299,70.5494457 C26.3332329,72.1494456 27.653846,73.7371818 28.9768264,75.3132245 C29.0894823,76.9588573 29.1998567,78.60449 29.3099458,80.2486967 C30.6606766,81.8181798 32.0111222,83.3751138 33.3638494,84.9214952 C33.1547942,80.8587502 32.9437425,76.7962904 32.7321204,72.7332602 C30.1518709,72.0453458 27.5782096,71.3177879 25.0149299,70.5494457" id="path80" fill="#FBC621"></path>
                        <path d="M143.484916,0.0153725486 L143.120995,0.0153725486 L143.120995,1.07576468 L143.082207,1.07576468 L142.748517,0.333661311 L142.493544,0.333661311 L142.156146,1.08922635 L142.107947,1.08922635 L142.107947,0.0153725486 L141.763134,0.0153725486 L141.763134,1.37189301 L142.353223,1.37189301 L142.626734,0.708791426 L142.911369,1.37189301 L143.484916,1.37189301 L143.484916,0.0153725486 Z M141.547519,1.07776111 L141.15964,1.07776111 L141.15964,0.0153725486 L140.794292,0.0153725486 L140.794292,1.07776111 L140.406699,1.07776111 L140.406699,1.37189301 L141.547519,1.37189301 L141.547519,1.07776111 L141.547519,1.07776111 Z" id="path82" fill="#FBC621"></path>
                    </g>
                </g>
            </g>
        </g>
    </g>
</svg>