<?xml version="1.0" encoding="UTF-8"?>
<svg width="200px" height="200px" viewBox="0 0 200 200" version="1.1" xmlns="http://www.w3.org/2000/svg" xmlns:xlink="http://www.w3.org/1999/xlink">
    <!-- Generator: Sketch 54.1 (76490) - https://sketchapp.com -->
    <title>james-madison</title>
    <desc>Created with Sketch.</desc>
    <g id="james-madison" stroke="none" stroke-width="1" fill="none" fill-rule="evenodd">
        <g id="james-madison_BGL">
            <g id="james-madison" transform="translate(-1.000000, 66.000000)">
                <g id="g10" transform="translate(100.270453, 34.318122) scale(-1, 1) rotate(-180.000000) translate(-100.270453, -34.318122) translate(0.270453, 0.818122)" fill-rule="nonzero">
                    <g id="g12" transform="translate(0.486815, 0.000000)">
                        <path d="M35.9417435,66.4129801 L30.1016355,42.85436 L5.83313035,42.85436 L0.547667329,21.5308176 C-0.660922228,16.6586608 0.373774703,11.6332654 3.38636908,7.74296127 C6.40551708,3.8442352 11.0044622,1.6085625 16.0047055,1.6085625 L166.949015,1.6085625 C176.200131,1.6085625 184.541442,8.16935747 186.782416,17.2084377 L198.977683,66.4129801 L35.9417435,66.4129801" id="path14" fill="#AEA057"></path>
                        <path d="M38.1636772,63.5732236 L32.3233528,40.0146035 L8.05484767,40.0146035 L3.30417301,20.8468419 C2.30561184,16.8228258 3.15458004,12.6802431 5.63175104,9.48148725 C8.10893827,6.28251506 11.8901958,4.44831902 16.0047055,4.44831902 L166.949015,4.44831902 C174.913315,4.44831902 182.094924,10.1020687 184.025959,17.8917102 L195.348203,63.5732236 L38.1636772,63.5732236" id="path16" fill="#302566"></path>
                        <path d="M9.38580098,15.9721816 C9.39620098,15.9341816 9.41126765,15.896715 9.42166765,15.858715 C9.41286765,15.891515 9.40500098,15.924315 9.39620098,15.9576483 C9.39246765,15.9628483 9.38886765,15.9669816 9.38580098,15.9721816" id="path18" fill="#FFFFFF"></path>
                        <path d="M43.0723992,57.2354279 L34.2873284,21.799756 L26.7680859,21.799756 L29.7124536,33.6770783 L12.963786,33.6770783 L9.45633513,19.5256249 C8.92451634,17.3806081 9.37628104,15.1730625 10.696849,13.4681268 C12.0165514,11.7636238 14.0322917,10.7855575 16.2250706,10.7855575 L41.0213918,10.7855575 C46.0773484,10.7855575 50.6366451,14.3745771 51.8619054,19.3196479 L61.2613913,57.2354279 L43.0723992,57.2354279" id="path20" fill="#AEA057"></path>
                        <polyline id="path22" fill="#AEA057" points="107.620281 57.2100053 94.7104777 34.0143332 92.4094635 57.2100053 68.8162255 57.2100053 57.3019594 10.7608381 75.4910056 10.7608381 81.9986457 37.0110606 84.1617288 10.7608381 97.4317758 10.7608381 112.685866 37.1435285 106.145772 10.7608381 124.335359 10.7608381 135.849625 57.2100053 107.620281 57.2100053"></polyline>
                        <path d="M169.108312,57.2354279 L160.322917,21.799756 L152.803783,21.799756 L161.582146,57.2100053 L143.3931,57.2100053 L134.053276,19.5256249 C133.521024,17.3803917 133.972681,15.1730625 135.293032,13.4681268 C136.613384,11.7636238 138.6288,10.7855575 140.821633,10.7855575 L167.057197,10.7855575 C172.113045,10.7855575 176.672342,14.3745771 177.897494,19.3196479 L187.297358,57.2354279 L169.108312,57.2354279" id="path24" fill="#AEA057"></path>
                        <path d="M16.2250706,10.7855575 L41.0213918,10.7855575 C46.0773484,10.7855575 50.6366451,14.3745771 51.8619054,19.3198643 L61.2613913,57.2354279 L57.9240013,57.2354279 L48.753589,20.2387554 C47.8653132,16.6552531 44.6112227,14.09336 40.9472336,14.09336 L10.2674778,14.09336 C10.3991343,13.8791072 10.5406894,13.6692897 10.696849,13.4681268 C12.0165514,11.7636238 14.0320754,10.7855575 16.2250706,10.7855575" id="path26" fill="#FFFFFF"></path>
                        <polyline id="path28" fill="#FFFFFF" points="132.508448 57.2100053 121.813114 14.0650166 106.964703 14.0650166 106.145772 10.7608381 124.335359 10.7608381 135.849625 57.2100053 132.508448 57.2100053"></polyline>
                        <path d="M140.821633,10.7855575 L167.057197,10.7855575 C172.113045,10.7855575 176.672342,14.3745771 177.898035,19.3198643 L187.297358,57.2354279 L183.959968,57.2354279 L174.789448,20.2387554 C173.90128,16.6552531 170.64719,14.09336 166.983093,14.09336 L134.864094,14.09336 C134.995534,13.8791072 135.137252,13.6692897 135.293032,13.4681268 C136.613384,11.7636238 138.6288,10.7855575 140.821633,10.7855575" id="path30" fill="#FFFFFF"></path>
                        <polyline id="path32" fill="#FFFFFF" points="72.9822835 14.0650166 58.120891 14.0650166 57.3019594 10.7608381 75.4910056 10.7608381 81.9986457 37.0110606 81.168355 47.0879772 72.9822835 14.0650166"></polyline>
                        <polyline id="path34" fill="#FFFFFF" points="95.73279 14.0650166 83.8891122 14.0650166 84.1611879 10.7608381 97.4317758 10.7608381 112.685866 37.1435285 115.378496 48.0062733 95.73279 14.0650166"></polyline>
                        <polyline id="path36" fill="#FFFFFF" points="161.582146 57.2100053 158.240429 57.2100053 149.462606 21.799756 152.804323 21.799756 161.582146 57.2100053"></polyline>
                        <polyline id="path38" fill="#FFFFFF" points="23.4267472 21.799756 26.7680859 21.799756 29.7122373 33.6770783 26.3708445 33.6770783 23.4267472 21.799756"></polyline>
                        <path d="M192.327243,4.20131971 C192.327243,4.27210267 192.312098,4.33696811 192.281807,4.39655432 C192.251516,4.45550226 192.200671,4.50367534 192.129272,4.54044072 C192.063281,4.57720611 191.987554,4.60044884 191.90155,4.60953606 C191.815546,4.61819596 191.718724,4.62305871 191.610543,4.62305871 L191.344958,4.62305871 L191.344958,3.66463818 L191.547257,3.66463818 C191.686811,3.66463818 191.806892,3.67435826 191.9075,3.69379842 C192.008109,3.71387144 192.088163,3.74746711 192.149285,3.79436907 C192.209867,3.83937786 192.254762,3.89452323 192.283971,3.96044885 C192.31318,4.02594716 192.327243,4.10666115 192.327243,4.20131971 L192.327243,4.20131971 Z M193.793099,1.80231503 L192.718859,1.80231503 L191.685188,3.0544313 L191.344958,3.0544313 L191.344958,1.80231503 L190.504931,1.80231503 L190.504931,5.21319257 L191.800401,5.21319257 C192.041104,5.21319257 192.233667,5.20410535 192.37917,5.18572536 C192.524133,5.16734537 192.668014,5.11958878 192.810813,5.04289372 C192.966594,4.95584031 193.080725,4.85040691 193.153207,4.72637716 C193.226229,4.60192551 193.26247,4.44726426 193.26247,4.26280449 C193.26247,4.01453945 193.192693,3.80958476 193.052598,3.64836772 C192.912504,3.48778896 192.730218,3.36228254 192.505742,3.27248132 L193.793099,1.80231503 Z M194.537926,3.42672608 C194.537926,4.16392146 194.277209,4.79673822 193.755776,5.32623651 C193.233802,5.85595658 192.604728,6.12089234 191.868014,6.12089234 C191.130759,6.12089234 190.501686,5.85595658 189.980252,5.32623651 C189.458278,4.79673822 189.197561,4.16392146 189.197561,3.42672608 C189.197561,2.6899526 189.458278,2.05649758 189.980252,1.52700469 C190.501686,0.997506398 191.130759,0.732970908 191.868014,0.732970908 C192.604728,0.732970908 193.233802,0.997506398 193.755776,1.52700469 C194.277209,2.05649758 194.537926,2.6899526 194.537926,3.42672608 Z M195.294654,3.42672608 C195.294654,2.48119534 194.959833,1.6736389 194.290732,1.00384582 C193.62109,0.334897084 192.813518,0 191.868014,0 C190.92251,0 190.114938,0.334897084 189.445296,1.00384582 C188.775655,1.6736389 188.440834,2.48119534 188.440834,3.42672608 C188.440834,4.37204046 188.775655,5.17980785 189.445296,5.84941162 C190.114938,6.51899916 190.92251,6.85387407 191.868014,6.85387407 C192.813518,6.85387407 193.62109,6.51899916 194.290732,5.84941162 C194.959833,5.17980785 195.294654,4.37204046 195.294654,3.42672608 L195.294654,3.42672608 Z" id="path40" fill="#302566"></path>
                    </g>
                </g>
            </g>
        </g>
    </g>
</svg>