<?xml version="1.0" encoding="UTF-8"?>
<svg width="200px" height="200px" viewBox="0 0 200 200" version="1.1" xmlns="http://www.w3.org/2000/svg" xmlns:xlink="http://www.w3.org/1999/xlink">
    <!-- Generator: Sketch 54.1 (76490) - https://sketchapp.com -->
    <title>saint-josephs</title>
    <desc>Created with Sketch.</desc>
    <g id="saint-josephs" stroke="none" stroke-width="1" fill="none" fill-rule="evenodd">
        <g id="saint-josephs_BGL">
            <g id="saint-josephs" transform="translate(0.000000, 38.000000)">
                <g id="g10" transform="translate(99.999998, 61.657008) scale(-1, 1) rotate(-180.000000) translate(-99.999998, -61.657008) translate(0.000000, 0.304352)">
                    <g id="g12">
                        <path d="M187.437193,92.0299494 C184.959416,130.831398 115.433814,121.183572 108.852654,121.314007 C53.4951677,122.411108 42.2724144,110.231398 21.3383086,93.3178721 C29.7216418,96.2627995 38.849999,97.0661811 38.849999,97.0661811 C7.69057952,81.8487902 0,51.722704 0,51.722704 C12.801932,61.8676313 23.9381637,66.2135249 23.9381637,66.2135249 C8.96231862,57.517873 1.94802894,42.8285497 1.94802894,42.8285497 C15.8401445,50.0318828 28.9942022,51.938163 35.4585498,52.438646 C22.4467627,44.9854578 25.6759414,31.8493229 25.6759414,31.8493229 C20.1445406,21.9754101 23.4141057,13.6435745 23.4141057,13.6435745 L20.2243956,5.97014478 L35.8014484,2.0738985 L36.6564725,2.93817867 C36.6564725,2.93817867 42.1252163,0.693690804 53.296617,0.693690804 C66.340095,0.693690804 71.9584523,5.12323659 71.9584523,5.12323659 L80.4995149,0 L82.8217371,2.11446855 C82.8217371,2.11446855 86.005795,0.693313992 93.5541039,0.693313992 C112.797582,0.693313992 116.106277,12.2082606 116.106277,12.2082606 C116.106277,12.2082606 121.754586,0.694256021 141.138644,0.694256021 C161.770527,0.694256021 169.112073,13.5758451 169.112073,25.9952651 L169.112073,37.8362792 L171.464247,38.0449749 L171.464247,42.9164724 L178.174392,44.8928008 C178.174392,44.8928008 199.773908,52.0072451 199.853618,72.2371963 C199.90386,84.8574858 187.437193,92.0299494 187.437193,92.0299494" id="path14" fill="#FFFFFF"></path>
                        <path d="M184.571493,90.7792248 C183.993715,112.787437 163.737194,116.85362 143.563281,119.275842 C135.385504,119.919321 126.243475,119.884538 117.896132,118.940094 C110.60821,118.400963 85.7454085,119.180673 70.1806746,116.417871 C51.2845398,113.061833 39.0991295,103.702413 34.8605305,100.523186 C34.8605305,100.523186 49.5183562,103.525118 60.997583,101.935746 C60.997583,101.935746 59.771013,101.676809 57.5188391,100.818355 C19.9507241,92.0371958 7.53961334,61.6830902 7.53961334,61.6830902 C7.53961334,61.6830902 35.920144,81.4502395 63.1724622,79.4062782 C63.1541047,79.3695632 63.134781,79.3328483 63.1169066,79.2966164 C60.2420275,78.7347806 26.0301443,70.3241528 11.1958451,51.2502403 C18.4365696,54.6062788 36.4498542,57.7855058 47.1497573,56.2869551 C44.7956511,54.3908199 42.6285013,52.1985494 40.6550231,49.8772934 C33.5113035,47.160337 29.1693229,41.6570521 29.1693229,34.5357962 C29.1693229,33.6894194 29.2404341,32.8772456 29.3761345,32.0976804 C27.5222698,28.2571007 26.5598544,25.6434776 26.5598544,25.6434776 C26.5598544,25.6434776 28.5456515,27.1163761 30.7289847,28.2667143 C31.2953132,27.2624148 32.0112552,26.3353134 32.8800475,25.4908206 C31.6849751,22.6377772 25.341352,7.48792252 25.341352,7.48792252 L35.2445885,5.029082 C35.2445885,5.029082 35.9767624,5.76333319 36.1846851,5.97202884 C39.3989845,4.91019311 44.8765689,3.29427045 53.6420276,3.29427045 C62.782124,3.29427045 68.6294669,5.45743948 72.3690803,8.30821235 L80.5898531,3.41202407 C80.5898531,3.41202407 82.3072443,4.9643477 82.4521719,5.09415446 C84.8695631,4.33574868 88.8120751,3.29427045 93.77536,3.29427045 C96.4937174,3.29427045 101.55507,3.29427045 106.101447,5.351739 C110.191785,7.20391286 115.06763,11.3356519 115.06763,20.5043956 C115.06763,20.5043956 115.06763,36.1473421 115.06763,40.029999 C115.257485,40.0445401 115.510142,40.0647333 115.772461,40.0855062 C116.034297,40.0647333 116.28792,40.0445401 116.477292,40.029999 C116.477292,36.3990812 116.477292,25.0643472 116.477292,25.0643472 C116.477292,11.2290335 125.551688,3.29427045 141.37391,3.29427045 C157.195165,3.29427045 166.270044,11.2290335 166.270044,25.0643472 C166.270044,25.0643472 166.270044,36.3990812 166.270044,40.029999 C166.901928,40.0796125 168.248788,40.1864241 168.248788,40.1864241 L168.248788,50.2628007 C171.680672,50.7710132 174.816421,51.4246364 177.762797,52.9251194 C178.157,51.5637668 176.799512,48.9623176 175.393232,48.469564 C194.23043,52.7550711 207.986951,76.7999981 184.571493,90.7792248" id="path16" fill="#231F20" fill-rule="nonzero"></path>
                        <path d="M184.446855,79.2497565 C194.159415,72.3439595 184.782604,59.292269 184.782604,59.292269 C189.237193,72.3072446 177.918353,74.8584522 177.918353,74.8584522 L172.726083,64.7478245 C160.739126,60.9623173 157.623668,70.0869548 157.623668,70.0869548 L128.570528,61.618839 L154.994199,63.3207714 C164.367146,53.6149745 179.369561,61.6999985 179.369561,61.6999985 C175.343474,56.3106266 165.403378,52.6676315 153.223185,56.3869551 C136.830914,61.3879212 129.337678,57.9313995 129.337678,57.9313995 C115.652171,59.1270517 122.973427,64.6797085 122.973427,64.6797085 C150.2256,65.3439597 161.543474,77.6033797 161.543474,77.6033797 C163.172943,81.863283 176.433329,88.2454084 176.433329,88.2454084 C187.055551,88.7864712 188.964246,80.4850221 188.964246,80.4850221 C186.923667,81.9492733 184.446855,79.2497565 184.446855,79.2497565" id="path18" fill="#BDBCBC"></path>
                        <path d="M153.030431,85.8840558 C153.057001,85.8202877 153.085503,85.7574858 153.108209,85.6908191 C153.83188,83.5714955 152.699513,81.2714956 150.583088,80.5483072 C148.464731,79.8231864 146.163764,80.9516888 145.439127,83.0719786 C145.349272,83.3352636 145.287919,83.6014472 145.254103,83.8676308 C144.728499,84.1260849 144.301929,84.5840559 144.097098,85.1830897 C143.686953,86.3782587 144.330431,87.685022 145.524634,88.0946838 C146.151204,88.3082104 146.802412,88.2304326 147.342991,87.9415437 C147.3599,87.9497563 147.375842,87.9579688 147.392267,87.9661814 C144.726566,89.0516886 142.262798,90.2439591 141.111108,91.3111088 C141.111108,91.3111088 136.284538,81.94251 146.380673,78.5990319 C146.380673,78.5990319 154.357484,76.183573 157.334296,84.5014472 C157.334296,84.5014472 155.495165,85.0468578 153.030431,85.8840558" id="path20" fill="#A21A34"></path>
                        <path d="M141.133813,91.1922683 C140.845407,90.5830895 139.196615,86.8304326 140.580673,83.4420269 C141.47246,81.257969 143.431397,79.6516888 146.403378,78.6676309 C146.421252,78.6623169 148.410624,78.0743942 150.73333,78.5033797 C152.859416,78.8966164 155.708209,80.2487903 157.23961,84.4541042 C156.881155,84.5618336 155.250238,85.0565196 153.15845,85.7642491 C153.16473,85.7478239 153.171011,85.7313988 153.176325,85.7144906 C153.911107,83.5632829 152.75845,81.2149738 150.60676,80.4797081 C149.563281,80.1227033 148.443958,80.1932347 147.456518,80.6777758 C146.468112,81.1627999 145.727049,82.0048289 145.370528,83.0487902 C145.284537,83.3009641 145.222702,83.5603844 145.186953,83.8198047 C144.639127,84.100481 144.228499,84.5748771 144.028982,85.1594182 C143.824151,85.7555534 143.865214,86.3970993 144.143958,86.9652152 C144.422702,87.5333311 144.904827,87.958935 145.501446,88.1632828 C145.809658,88.2685968 146.129465,88.3072442 146.443475,88.2826065 C143.849755,89.385505 142.06618,90.3627997 141.133813,91.1922683 L141.133813,91.1922683 Z M148.927049,78.2140077 C147.446373,78.2140077 146.388402,78.520771 146.359417,78.5294666 C143.343475,79.5285004 141.354586,81.1627999 140.446373,83.3879206 C138.917388,87.1328481 141.025117,91.3024132 141.046373,91.3444422 L141.090335,91.4289832 L141.1599,91.3642489 C142.1599,90.4386451 144.265697,89.3178722 147.41932,88.0333311 L147.563281,87.974877 L147.426083,87.9019302 C147.409175,87.8932345 147.392267,87.8845389 147.373909,87.8763263 L147.341059,87.8603843 L147.309175,87.8777756 C146.757001,88.1724616 146.132363,88.2256017 145.548306,88.0260848 C144.988402,87.8342973 144.535745,87.4347804 144.273909,86.9014471 C144.012074,86.3681138 143.973426,85.7656983 144.165697,85.2062781 C144.357484,84.6458916 144.755552,84.1937177 145.285987,83.9328481 L145.320769,83.9154568 L145.3256,83.8768095 C145.3599,83.6135245 145.420769,83.3507226 145.507243,83.095167 C145.851687,82.0884037 146.566663,81.2758434 147.520286,80.8082105 C148.474392,80.3400946 149.554103,80.2719787 150.559417,80.6169062 C152.635745,81.3260849 153.748305,83.5922684 153.03961,85.6676307 C153.023185,85.7154568 153.003861,85.7613505 152.984537,85.8072442 L152.902895,86.0043457 L153.053619,85.9531379 C155.488402,85.1256017 157.336711,84.5763264 157.355069,84.5714955 L157.428015,84.5492732 L157.402412,84.4772926 C155.505793,79.178742 151.552653,78.2140077 148.927049,78.2140077 L148.927049,78.2140077 Z" id="path22" fill="#A21A34" fill-rule="nonzero"></path>
                        <path d="M147.009175,83.7541042 C148.207243,84.163766 148.846856,85.4656983 148.436711,86.6647321 C148.241059,87.2367128 147.838161,87.6768094 147.342991,87.9415437 C146.802412,88.2304326 146.151204,88.3082104 145.524634,88.0946838 C144.330431,87.685022 143.686953,86.3782587 144.097098,85.1830897 C144.301929,84.5840559 144.728499,84.1260849 145.254103,83.8676308 C145.781639,83.6072443 146.408692,83.5487902 147.009175,83.7541042" id="path24" fill="#FFFFFF"></path>
                        <path d="M127.304345,86.2908191 C127.97391,82.2313989 131.636712,78.8381623 131.636712,78.8381623 C128.865697,77.5342976 127.929465,73.9970996 110.24879,78.6801913 C92.5681136,83.3589351 68.5676311,75.1613508 68.5676311,75.1613508 C76.8632831,81.2120753 101.412558,87.811592 101.412558,87.811592 C68.5913026,92.222703 36.6262793,87.100964 20.3791299,74.20966 C40.5115932,98.4038623 85.6758433,100.72222 85.721737,100.699514 C85.7661814,100.677775 78.657486,105.46763 68.9444427,106.52705 C88.5473408,115.357968 114.820287,103.788403 126.055069,108.954587 C137.289369,114.121253 152.057001,107.970529 165.986469,104.865215 C179.908208,101.757968 176.126566,92.9603841 176.126566,92.9603841 C175.422701,86.6473408 156.712556,85.974394 145.524634,94.6608672 C137.038644,101.254104 129.656518,100.40193 126.588886,99.607727 C126.588886,99.6067608 126.589852,99.6067608 126.590818,99.6067608 C125.616905,99.3541038 125.070045,99.1086932 125.070045,99.1086932 C129.573427,97.4304323 132.275842,93.7067609 132.275842,93.7067609 C130.228982,95.5091764 118.160384,93.6792247 115.14106,96.786471 C115.823186,94.6391281 117.302413,93.596616 117.302413,93.596616 L110.135263,93.6502392 C110.135263,93.6502392 111.309176,94.4937174 127.304345,86.2908191" id="path26" fill="#A21A34"></path>
                        <path d="M85.7053119,100.626568 C85.263766,100.609176 74.1685972,100.020287 60.4468584,96.4256015 C52.4618344,94.3338141 45.2564723,91.6516885 39.0300473,88.4541041 C31.5142021,84.5937177 25.4134776,79.9676309 20.8852169,74.6961334 C37.1057962,87.1202877 68.5913026,92.2951668 101.421737,87.8835727 L101.431398,87.7415437 C101.189853,87.6768094 77.5473411,81.2782588 69.0009645,75.3797083 C70.5545876,75.8797082 75.920288,77.5256019 82.7652153,78.7468579 C90.2627997,80.084056 101.12077,81.1700463 110.267147,78.7502396 C125.235263,74.7859885 128.218354,76.752172 130.397581,78.1874377 C130.770045,78.4333314 131.124151,78.6661816 131.511591,78.857969 C130.982122,79.3743942 127.865697,82.5473409 127.238644,86.242993 C115.481157,92.2714953 111.769562,93.3937175 110.640094,93.5739107 L109.913041,93.5792247 L110.093234,93.7091764 C110.105794,93.7178721 110.197582,93.7705291 110.571012,93.7193213 L117.093717,93.6705291 C116.682123,94.0183551 115.617388,95.0468575 115.071978,96.7642488 L115.192751,96.8367126 C116.888886,95.091302 121.496132,94.9222198 125.560866,94.7724614 C128.346857,94.6695629 130.795649,94.5792247 131.94589,94.007244 C131.154586,94.9656981 128.675359,97.6874372 125.044441,99.0405772 L124.878741,99.102413 L125.040093,99.1743937 C125.045891,99.1772922 125.582606,99.4159395 126.516422,99.6623163 L126.516422,99.6637656 L126.570528,99.6777753 C128.176808,100.093717 130.776325,100.483089 134.035745,99.976326 C137.989852,99.3608671 141.870528,97.591785 145.569078,94.717872 C153.79275,88.3333311 166.502894,86.832365 172.767629,89.4797079 C174.757484,90.3207707 175.894199,91.5270509 176.054585,92.9685967 L176.059899,92.9888866 C176.072459,93.0178721 177.270527,95.8859879 175.742508,98.8714951 C174.308208,101.674394 171.020769,103.667147 165.97101,104.7942 C162.9913,105.458451 159.926083,106.274877 156.961349,107.063765 C146.11304,109.953137 134.8942,112.940094 126.085021,108.888403 C121.203862,106.643959 113.585987,107.535263 104.764732,108.569563 C93.27536,109.914973 80.2647323,111.439128 69.2173896,106.569079 C78.3072444,105.509659 85.0396114,101.244442 85.732365,100.764249 C85.7458916,100.764249 85.7526549,100.764732 85.753621,100.764249 L85.748307,100.753138 C85.7763264,100.733331 85.790336,100.72222 85.7908191,100.720287 L85.8405776,100.559418 L85.7053119,100.626568 Z M20.4240092,74.1526552 L20.3234294,74.2555537 C24.9222699,79.7826067 31.2203857,84.616423 39.0427043,88.6231862 C45.3009651,91.8289832 52.5420277,94.5144904 60.5647328,96.6062778 C73.1671479,99.8913019 83.7753602,100.659418 85.5067611,100.753621 C84.3729448,101.478258 77.7265681,105.496133 68.9367133,106.45507 L68.6724621,106.484055 L68.9149741,106.593234 C80.0512057,111.610142 93.1893697,110.071495 104.78164,108.713041 C113.580673,107.682606 121.18019,106.792751 126.024635,109.020287 C134.881156,113.093717 146.1256,110.099031 156.998547,107.204345 C159.961832,106.415456 163.0256,105.599514 166.001928,104.935746 C171.09758,103.798548 174.418836,101.779708 175.872942,98.9352632 C177.384054,95.9797077 176.276807,93.1367126 176.19758,92.9420267 C176.026566,91.4497562 174.860382,90.206761 172.82415,89.3463746 C166.522701,86.6835727 153.742991,88.1879205 145.480673,94.6033793 C142.629465,96.817872 135.082122,101.730915 126.608692,99.5381618 L126.609176,99.5367125 C125.958934,99.3676304 125.497581,99.2009637 125.267147,99.1111086 C129.637678,97.4144903 132.307243,93.7864711 132.334296,93.749273 L132.227533,93.6521716 C131.363765,94.4130411 128.542509,94.5173889 125.555552,94.6275339 C121.621736,94.7724614 117.182606,94.9362295 115.302896,96.5362295 C116.001929,94.6202875 117.330432,93.6656981 117.344442,93.6555532 L117.53333,93.5222199 L111.287437,93.5690798 C113.025118,93.1149735 117.234297,91.5367127 127.337195,86.3555534 L127.369562,86.3386452 L127.375842,86.3028964 C128.033813,82.3135245 131.649755,78.9246357 131.685987,78.8913024 L131.764731,78.8183555 L131.66763,78.7724618 C131.251688,78.5768096 130.875842,78.3289835 130.477291,78.0666647 C128.275359,76.6159401 125.2599,74.6299498 110.230432,78.6096599 C101.110142,81.0231864 90.2758432,79.9386453 82.7932346,78.6043459 C74.6816406,77.1579691 68.6507229,75.1135247 68.5908195,75.0927517 L68.5251191,75.2198049 C76.2004812,80.8183555 98.0313985,86.9560365 101.047824,87.7869543 C68.003863,92.1603842 36.388115,86.8198046 20.4240092,74.1526552 L20.4240092,74.1526552 Z" id="path28" fill="#A21A34" fill-rule="nonzero"></path>
                        <path d="M80.0338144,75.1410609 L100.205312,75.0632831 C100.205312,75.0632831 82.1154569,73.3850223 65.6550708,62.334298 C65.6550708,62.334298 73.1144909,72.2845393 80.0338144,75.1410609" id="path30" fill="#A21A34"></path>
                        <path d="M80.0483072,75.0690802 C73.9618339,72.5478243 67.3777761,64.424153 65.9816409,62.6386458 C79.8193217,71.7975827 94.8647319,74.4169064 99.0594178,74.9956503 L80.0483072,75.0690802 Z M65.6951674,62.2739115 L65.5970998,62.3772931 C65.6714959,62.4772931 73.1478243,72.3768098 80.0062782,75.2082107 L80.0342975,75.2135247 L100.205795,75.1357469 L100.212075,74.9913025 C100.031398,74.9743943 81.9512057,73.1869547 65.6951674,62.2739115 L65.6951674,62.2739115 Z" id="path32" fill="#A21A34" fill-rule="nonzero"></path>
                        <path d="M98.7270507,58.9270517 L61.3106265,59.0705299 C52.180675,53.9468586 50.9729456,51.5313997 50.9729456,51.5313997 C56.2869551,51.5313997 60.876327,50.806762 65.4656988,50.0821244 L98.7270507,58.9270517" id="path34" fill="#A21A34"></path>
                        <path d="M51.1033804,51.6038634 C56.3628005,51.5917861 60.9879212,50.8623176 65.4618341,50.1565205 L98.1801908,58.8565203 L61.3294671,58.9975831 C53.3937185,54.5429938 51.4536219,52.1198055 51.1033804,51.6038634 Z M65.4695636,50.0082113 L65.4541046,50.0106268 C60.9444429,50.722704 56.281158,51.4589359 50.9729456,51.4589359 L50.8555543,51.4589359 L50.9077282,51.5637668 C50.9574866,51.6632837 52.2294673,54.0574866 61.2753608,59.1338149 L61.2917859,59.1429937 L61.3111096,59.1429937 L98.7270507,58.9995154 L98.7454082,58.8570034 L65.4695636,50.0082113 L65.4695636,50.0082113 Z" id="path36" fill="#A21A34" fill-rule="nonzero"></path>
                        <path d="M170.342025,48.4405785 L169.645889,48.4405785 L169.645889,48.795651 L171.460382,48.795651 L171.460382,48.4405785 L170.763764,48.4405785 L170.763764,46.6672452 L170.342025,46.6672452 L170.342025,48.4405785 Z M171.820769,48.795651 L172.429464,48.795651 L172.972459,47.2724143 L173.520769,48.795651 L174.1256,48.795651 L174.1256,46.6672452 L173.735261,46.6672452 L173.735261,48.3845399 L173.145406,46.6672452 L172.804827,46.6672452 L172.21159,48.3845399 L172.21159,46.6672452 L171.820769,46.6672452 L171.820769,48.795651 L171.820769,48.795651 Z" id="path38" fill="#231F20"></path>
                        <path d="M145.591301,48.658936 L145.591301,42.6483081 C145.591301,42.6483081 146.923668,42.5420762 147.570045,42.4903854 C147.570045,40.1270038 147.570045,25.0643472 147.570045,25.0643472 C147.570045,22.0459898 146.533813,20.174927 141.37391,20.174927 C136.213523,20.174927 135.177291,22.0459898 135.177291,25.0643472 C135.177291,25.0643472 135.177291,40.1270038 135.177291,42.4903854 C135.823668,42.5420762 137.156035,42.6483081 137.156035,42.6483081 L137.156035,48.658936 L117.184055,48.658936 L117.184055,42.6483081 C117.184055,42.6483081 118.516422,42.5420762 119.162799,42.4903854 C119.162799,40.1270038 119.162799,25.0643472 119.162799,25.0643472 C119.162799,12.7443958 127.050721,5.96033802 141.37391,5.96033802 C155.696614,5.96033802 163.584537,12.7443958 163.584537,25.0643472 C163.584537,25.0643472 163.584537,40.1270038 163.584537,42.4903854 C164.231397,42.5420762 165.563281,42.6483081 165.563281,42.6483081 L165.563281,48.658936 L145.591301,48.658936" id="path40" fill="#A21A34" fill-rule="nonzero"></path>
                        <path d="M117.257002,42.7149265 L119.235263,42.5575352 L119.235263,25.0643472 C119.235263,12.7917388 127.097581,6.03338149 141.37391,6.03338149 C155.649755,6.03338149 163.512073,12.7917388 163.512073,25.0643472 L163.512073,42.5575352 L165.490334,42.7149265 L165.490334,48.5864722 L145.663764,48.5864722 L145.663764,42.7149265 L147.642508,42.5575352 L147.642508,25.0643472 C147.642508,23.3206757 147.276325,22.2014487 146.456518,21.4347338 C145.483571,20.5261348 143.869079,20.1024633 141.37391,20.1024633 C136.15362,20.1024633 135.104828,22.0010623 135.104828,25.0643472 L135.104828,42.5575352 L137.083571,42.7149265 L137.083571,48.5864722 L117.257002,48.5864722 L117.257002,42.7149265 Z M141.37391,5.88787425 C127.003862,5.88787425 119.090335,12.6981639 119.090335,25.0643472 L119.090335,42.4237671 L117.111591,42.5811584 L117.111591,48.7313997 L137.228982,48.7313997 L137.228982,42.5811584 L135.250238,42.4237671 L135.250238,25.0643472 C135.250238,22.0903376 136.274393,20.2473908 141.37391,20.2473908 C146.472943,20.2473908 147.497098,22.0903376 147.497098,25.0643472 L147.497098,42.4237671 L145.518837,42.5811584 L145.518837,48.7313997 L165.635745,48.7313997 L165.635745,42.5811584 L163.657484,42.4237671 L163.657484,25.0643472 C163.657484,12.6981639 155.743474,5.88787425 141.37391,5.88787425 L141.37391,5.88787425 Z" id="path42" fill="#A21A34" fill-rule="nonzero"></path>
                        <path d="M94.3898527,42.6483081 C94.3898527,42.6483081 95.7212536,42.5420762 96.3681135,42.4903854 C96.3681135,40.0783082 96.3681135,22.2584535 96.3681135,22.2584535 C96.3681135,19.6135261 96.1135242,19.6135261 94.1285001,19.6135261 C91.5995146,19.6135261 87.8884036,20.5314005 87.1149737,21.3173908 C87.1405775,21.4705792 87.5560365,23.9290815 87.5560365,23.9290815 L82.1149738,25.8163279 L75.4869546,9.55995145 L80.2589352,6.71835732 C80.2589352,6.71835732 81.7743941,8.08801912 81.7975825,8.10879207 C81.8700463,8.08652154 81.9975825,8.04497564 81.9975825,8.04497564 C84.031882,7.36811576 88.2656983,5.96033802 93.77536,5.96033802 C98.8637656,5.96033802 112.382123,5.96033802 112.382123,20.5043956 C112.382123,20.5043956 112.382123,40.0535739 112.382123,42.4903854 C113.028983,42.5420762 114.360867,42.6483081 114.360867,42.6483081 L114.360867,48.658936 L94.3898527,48.658936 L94.3898527,42.6483081" id="path44" fill="#A21A34" fill-rule="nonzero"></path>
                        <path d="M81.7801912,8.19028965 L81.8193216,8.17821236 C81.8917854,8.15502395 82.0198047,8.11347806 82.0198047,8.11347806 C84.0512056,7.43811576 88.2763263,6.03338149 93.77536,6.03338149 C98.844442,6.03338149 112.309176,6.03338149 112.309176,20.5043956 L112.309176,42.5575352 L114.28792,42.7149265 L114.28792,48.5864722 L94.4623165,48.5864722 L94.4623165,42.7149265 L96.4405773,42.5575352 L96.4405773,22.2584535 C96.4405773,19.5410623 96.1328478,19.5410623 94.1285001,19.5410623 C91.6202876,19.5410623 87.8565195,20.4604343 87.0632828,21.2666178 L87.0371959,21.2928497 L87.0434761,21.3299995 C87.0671476,21.4681637 87.4106258,23.5024149 87.4743939,23.8807723 L82.1560366,25.7252167 L75.5777759,9.59033792 L80.2497564,6.80782592 C80.4888869,7.02371963 81.7285004,8.14444424 81.7492733,8.16275342 L81.7801912,8.19028965 Z M93.77536,5.88787425 C88.2531379,5.88787425 84.0125583,7.29864716 81.9748772,7.97594183 L81.9748772,7.97594183 C81.9748772,7.97594183 81.8864714,8.00478241 81.8154569,8.02705294 C81.5980656,7.8310143 80.3072444,6.66420273 80.3072444,6.66420273 L80.2676308,6.62855056 L75.3966165,9.52995145 L75.420288,9.58748768 L82.0734279,25.907294 L87.637679,23.9777772 L87.627534,23.9170042 C87.627534,23.9170042 87.2512055,21.6883569 87.1927514,21.3430429 C88.0202877,20.5627048 91.6758431,19.6859898 94.1285001,19.6859898 C96.0908189,19.6859898 96.2961329,19.6859898 96.2961329,22.2584535 L96.2961329,42.4237671 L94.3173889,42.5811584 L94.3173889,48.7313997 L114.43333,48.7313997 L114.43333,42.5811584 L112.454587,42.4237671 L112.454587,20.5043956 C112.454587,5.88787425 98.8840555,5.88787425 93.77536,5.88787425 L93.77536,5.88787425 Z" id="path46" fill="#A21A34" fill-rule="nonzero"></path>
                        <path d="M64.5734283,34.6469073 C64.5734283,34.5212552 64.5734283,34.390289 64.5734283,34.1372455 C61.0652159,35.0024629 57.3149744,35.3198542 54.1434769,35.5782117 C52.3357475,35.7261344 49.912076,35.9280667 48.2985978,36.245458 C49.1632838,36.4773904 50.4942016,36.6889363 52.5816412,36.6889363 C57.8405783,36.6889363 62.8574864,35.4753614 64.5734283,34.6469073 Z M41.2447333,22.5477289 C41.3105787,22.7685502 41.42797,23.1623666 41.5862792,23.6903859 C45.5928974,22.4845405 50.1613514,22.0646371 53.9140083,21.7260864 C56.1840566,21.520241 59.1062787,21.2516903 60.5995154,20.8503376 C59.581641,19.856956 56.4381628,19.4738642 53.4294673,19.4738642 C47.8512065,19.4738642 42.6411584,21.4579705 41.2447333,22.5477289 L41.2447333,22.5477289 Z M69.9821239,32.1295644 C70.2666649,32.6985016 76.7753604,45.715023 76.7753604,45.715023 L71.4768098,47.6290809 C71.4768098,47.6290809 70.1400949,46.216424 70.098549,46.1724626 C69.6193219,46.2570037 68.7140079,46.4904336 67.8739113,46.7091293 C64.4753607,47.5960375 58.7884043,49.080192 51.7338151,49.080192 C39.8433806,49.080192 31.854975,43.2352163 31.854975,34.5357962 C31.854975,30.6917867 33.5499509,28.0778254 36.1061827,26.2492264 C35.7900957,25.4936709 29.01855,9.32309155 29.01855,9.32309155 L34.4123663,7.98458917 C34.4123663,7.98458917 35.3814001,8.95608673 35.4499025,9.02512055 C35.7138638,8.9411592 36.0180667,8.8390819 36.2894194,8.74792249 C39.1898541,7.77400947 44.5891776,5.96033802 53.6420276,5.96033802 C74.6439595,5.96033802 76.2763266,17.7366179 76.2763266,21.3468111 C76.2763266,26.8484051 73.6589354,30.1217384 69.9821239,32.1295644 L69.9821239,32.1295644 Z" id="path48" fill="#A21A34" fill-rule="nonzero"></path>
                        <path d="M48.6405785,36.255458 C50.2734287,35.9676803 52.5855059,35.7787914 54.149274,35.650289 C57.1797087,35.4028977 60.9454091,35.0966175 64.5009646,34.2299025 L64.5009646,34.6008687 C62.7632835,35.4212068 57.8241531,36.6158928 52.5816412,36.6158928 C51.0091775,36.6158928 49.685506,36.4947334 48.6405785,36.255458 L48.6405785,36.255458 Z M64.645409,34.0449267 L64.5555539,34.0671972 C60.9855057,34.9479218 57.1884044,35.2575837 54.1376798,35.5057479 C52.4623175,35.6434774 49.9309166,35.8506754 48.2846365,36.1739604 L48.2797572,36.3149266 C49.3821244,36.6112068 50.8294673,36.7614 52.5816412,36.7614 C57.8888874,36.7614 62.8932351,35.5385498 64.6048293,34.7120281 L64.645409,34.6922214 L64.645409,34.0449267 Z M41.3283081,22.574927 C42.7911584,21.4719318 48.0051679,19.546328 53.4294673,19.546328 C56.8913029,19.546328 59.4908198,20.0183087 60.4507231,20.8141058 C58.9038633,21.2009173 56.0251194,21.4619318 53.907245,21.6540091 C50.2342983,21.9856033 45.6674385,22.3981154 41.6347816,23.6005308 L41.3283081,22.574927 Z M53.4294673,19.4010623 C47.6562307,19.4010623 42.5373419,21.4473908 41.2001922,22.4907724 L41.1611101,22.5207724 L41.5375835,23.7807724 L41.6072453,23.7599994 C45.6427525,22.5454584 50.2323659,22.1314487 53.9207716,21.7980188 C56.1043464,21.6004342 59.0956507,21.3294681 60.618356,20.9203376 L60.7415444,20.8874874 L60.65024,20.7985985 C59.7536217,19.9237676 57.0545879,19.4010623 53.4294673,19.4010623 Z M35.4298542,9.10777755 L35.4719798,9.09420267 C35.7363276,9.01024132 36.0411102,8.90811572 36.3126561,8.8164249 C39.2115932,7.84342976 44.6035255,6.03338149 53.6420276,6.03338149 C74.5768097,6.03338149 76.2038628,17.7542025 76.2038628,21.3468111 C76.2038628,26.2609655 74.157003,29.7667625 69.9478243,32.0657963 L69.8864717,32.0995644 L69.9173896,32.1618349 L76.6739111,45.6744433 L71.4970997,47.5449263 L70.1246359,46.0946848 L70.0859886,46.1009167 C69.6101432,46.1850713 68.7231867,46.4130423 67.8555539,46.6391293 C64.460868,47.5251196 58.7797087,49.0077282 51.7338151,49.0077282 C39.8869555,49.0077282 31.9274388,43.1917864 31.9274388,34.5357962 C31.9274388,31.0314968 33.3080668,28.3395645 36.1484532,26.3083085 L36.1952648,26.2749269 L36.1729943,26.2216902 C35.8697576,25.496666 29.6252167,10.5840577 29.1179703,9.37347803 L34.3899025,8.06478241 L35.4298542,9.10777755 Z M53.6420276,5.88787425 C44.5799506,5.88787425 39.1734773,7.70342976 36.2686947,8.67830896 C36.0099508,8.76565195 35.7235257,8.86135244 35.4700474,8.94246354 L34.4346368,7.90439594 L28.9188882,9.27347803 L28.9517384,9.3512075 C28.9517384,9.3512075 35.4899025,24.9637675 36.0169556,26.2241539 C33.1678253,28.2806756 31.7827045,30.9999509 31.7827045,34.5357962 C31.7827045,43.2782115 39.8003372,49.1526558 51.7338151,49.1526558 C58.7980662,49.1526558 64.4908196,47.6671969 67.8922688,46.7793225 C68.7338147,46.5598539 69.5942012,46.339081 70.0729451,46.25111 L71.457003,47.7130423 L76.8763266,45.7556027 L76.8400947,45.6825592 L70.0782591,32.1599509 C74.2970996,29.8324147 76.3487904,26.2947336 76.3487904,21.3468111 C76.3487904,17.7202411 74.7111092,5.88787425 53.6420276,5.88787425 L53.6420276,5.88787425 Z" id="path50" fill="#A21A34" fill-rule="nonzero"></path>
                        <path d="M148.298547,45.1294675 C150.065697,44.9888878 150.277291,44.4985979 150.277291,43.8662308 L150.277291,25.0643472 C150.277291,19.662415 147.026566,17.4879223 141.37391,17.4879223 C135.720286,17.4879223 132.469562,19.662415 132.469562,25.0643472 L132.469562,43.8662308 C132.469562,44.4985979 132.681639,44.9888878 134.449272,45.1294675 L134.449272,45.97111 L119.891784,45.97111 L119.891784,45.1294675 C121.658451,44.9888878 121.870045,44.4985979 121.870045,43.8662308 L121.870045,25.0643472 C121.870045,12.717391 130.561832,8.64792249 141.37391,8.64792249 C152.18502,8.64792249 160.877291,12.717391 160.877291,25.0643472 L160.877291,43.8662308 C160.877291,44.4985979 161.088885,44.9888878 162.855551,45.1294675 L162.855551,45.97111 L148.298547,45.97111 L148.298547,45.1294675" id="path52" fill="#FFFFFF" fill-rule="nonzero"></path>
                        <path d="M99.0753598,43.8662308 L99.0753598,22.2584535 C99.0753598,18.7501928 98.2270507,16.9261348 94.1285001,16.9261348 C92.0797078,16.9261348 84.3768095,17.7690817 84.3768095,21.1352652 C84.3768095,21.4864729 84.447824,21.8372458 84.5178723,22.1884536 L83.6705293,22.4686951 L78.8647323,10.6821736 L79.9251188,10.0507727 C80.631399,10.6821736 80.8439593,10.9633331 81.5502395,10.9633331 C82.3275342,10.9633331 86.9917853,8.64792249 93.77536,8.64792249 C102.678741,8.64792249 109.674393,10.6121736 109.674393,20.5043956 L109.674393,43.8662308 C109.674393,44.4985979 109.886954,44.9888878 111.653137,45.1294675 L111.653137,45.97111 L97.0966159,45.97111 L97.0966159,45.1294675 C98.8632826,44.9888878 99.0753598,44.4985979 99.0753598,43.8662308" id="path54" fill="#FFFFFF" fill-rule="nonzero"></path>
                        <path d="M44.3138636,36.0792262 C44.3138636,37.6926561 46.4340085,39.375941 52.5816412,39.375941 C59.2241531,39.375941 67.2801916,37.4126078 67.2801916,35.6584049 L67.2801916,34.8863759 L68.1280176,34.4657479 L73.0038629,44.2174385 L72.2265682,44.4985979 C71.7318823,43.9366173 71.2367132,43.4454095 70.3183557,43.4454095 C68.4106263,43.4454095 61.4149743,46.3922694 51.7338151,46.3922694 C41.3460376,46.3922694 34.5623663,41.5511584 34.5623663,34.5357962 C34.5623663,20.9946855 63.6763269,26.7483568 63.6763269,21.5560864 C63.6763269,18.4701445 60.4966168,16.786473 53.4294673,16.786473 C46.080337,16.786473 38.5195643,19.9429947 38.5195643,21.8372458 C38.5195643,22.4686951 38.5195643,22.9595163 38.6607237,23.3101443 L37.9545884,23.6613038 L32.7249267,11.1733814 L33.5728011,10.9633331 C33.9968107,11.3839611 34.4210619,11.875362 34.986231,11.875362 C36.6117382,11.875362 41.8410134,8.64792249 53.6420276,8.64792249 C68.9758437,8.64792249 73.5690803,15.3130431 73.5690803,21.3468111 C73.5690803,37.4820764 44.3138636,29.8348785 44.3138636,36.0792262" id="path56" fill="#FFFFFF" fill-rule="nonzero"></path>
                        <path d="M52.8734286,27.823236 C46.3581148,28.4120283 40.5984048,29.1564727 37.498888,31.4019316 C39.8983082,27.9883568 46.584395,27.0676805 54.3396122,26.3662312 C58.3570034,26.0039124 61.8328487,25.6859414 63.8391288,24.5339124 C62.6062786,26.9333327 58.2217377,27.3392264 52.8734286,27.823236" id="path58" fill="#BDBCBC"></path>
                        <path d="M157.423668,26.5202409 C157.423668,16.8010141 151.694199,12.0763282 139.90676,12.0763282 C134.024151,12.0763282 129.649272,13.2540576 126.743958,15.6419803 C129.544441,12.2763765 134.398064,10.6208693 141.37391,10.6208693 C153.160383,10.6208693 158.890334,15.3449755 158.890334,25.0643472 L158.890334,43.8662308 C158.890334,43.9136221 158.900479,43.9532356 158.901928,43.9981632 C158.361349,43.9981632 157.881155,43.9981632 157.423668,43.9981632 L157.423668,26.5202409" id="path60" fill="#BDBCBC"></path>
                        <path d="M132.246857,19.0353135 C130.894683,20.8193715 130.483572,23.032898 130.483572,25.0643472 L130.483572,43.8662308 C130.483572,43.9136221 130.49275,43.9532356 130.494683,43.9981632 C129.954103,43.9981632 129.47391,43.9981632 129.016422,43.9981632 L129.016422,26.5202409 C129.016422,23.8870042 129.710625,20.9488401 132.246857,19.0353135" id="path62" fill="#BDBCBC"></path>
                        <path d="M82.2917854,13.8303861 C82.1748772,13.5435745 82.053138,13.2444441 81.9154569,12.9077775 C82.3193216,12.8512074 82.7656984,12.704734 83.4884037,12.4643475 C85.4251186,11.8199031 89.0309156,10.6208693 93.77536,10.6208693 C103.917389,10.6208693 107.68792,13.2995649 107.68792,20.5043956 L107.68792,43.8662308 C107.68792,43.9136221 107.698548,43.9532356 107.699031,43.9981632 C107.158935,43.9981632 106.678741,43.9981632 106.221736,43.9981632 L106.221736,21.9599028 C106.221736,14.7550721 102.450239,12.0763282 92.3091764,12.0763282 C87.7739108,12.0763282 84.2830897,13.1710625 82.2917854,13.8303861" id="path64" fill="#BDBCBC"></path>
                        <path d="M68.7541046,27.3569558 C69.6342978,26.1699993 70.1159403,24.6831395 70.1159403,22.8019318 C70.1159403,15.9854102 63.5772931,12.0763282 52.175361,12.0763282 C43.8953129,12.0763282 38.9721246,13.7294199 36.3273904,14.6184537 C36.3249266,14.6193716 36.3226561,14.6193716 36.3198059,14.6203378 C36.2022696,14.3391301 36.0792262,14.0458934 35.9424146,13.7192267 C36.464202,13.6014972 37.0478735,13.4126084 37.7936222,13.1623668 C40.4383565,12.2739127 45.361738,10.6208693 53.6420276,10.6208693 C65.0429935,10.6208693 71.5821238,14.5295649 71.5821238,21.3468111 C71.5821238,24.0932361 70.5507229,26.0005308 68.7541046,27.3569558" id="path66" fill="#BDBCBC"></path>
                        <path d="M42.777197,34.2430909 C42.4914965,34.760917 42.3269555,35.3613518 42.3269555,36.0792262 C42.3269555,37.6638155 43.3265207,41.3488879 52.5816412,41.3488879 C52.7178731,41.3488879 63.6763269,41.1271487 67.75652,38.1589846 C68.4545877,39.5550232 68.6700466,39.9864241 69.4555538,41.5573903 C68.9096601,41.6430907 68.2685973,41.7942502 67.4806746,41.9952163 C67.0618341,41.1594193 66.8091771,40.6531391 66.2898534,39.6144918 C62.2096603,42.5830424 51.2512064,42.8053129 51.1154577,42.8053129 C41.8599023,42.8053129 40.8606753,39.1193227 40.8606753,37.5352648 C40.8606753,35.9931875 41.5760859,34.960917 42.777197,34.2430909" id="path68" fill="#BDBCBC"></path>
                    </g>
                </g>
            </g>
        </g>
    </g>
</svg>