<?xml version="1.0" encoding="UTF-8"?>
<svg width="200px" height="200px" viewBox="0 0 200 200" version="1.1" xmlns="http://www.w3.org/2000/svg" xmlns:xlink="http://www.w3.org/1999/xlink">
    <!-- Generator: Sketch 54.1 (76490) - https://sketchapp.com -->
    <title>kansas-st</title>
    <desc>Created with Sketch.</desc>
    <g id="kansas-st" stroke="none" stroke-width="1" fill="none" fill-rule="evenodd">
        <g id="kansas-st_BGL" fill="#3A276F">
            <g id="kansas-st" transform="translate(0.000000, 25.000000)">
                <g id="g10" transform="translate(99.999998, 75.155555) scale(-1, 1) rotate(-180.000000) translate(-99.999998, -75.155555) translate(0.000000, 0.488890)" fill-rule="nonzero">
                    <g id="g12">
                        <path d="M138.863108,141.843552 C142.34933,140.663108 145.779552,139.280885 149.112885,137.692441 C149.31733,137.282663 149.828441,137.282663 149.775996,136.82133 C149.775996,136.412441 149.57333,136.001774 149.163552,135.950219 C144.859552,136.05333 140.606219,136.258663 136.300441,136.463108 C135.890663,136.258663 135.380441,136.360885 135.071108,135.898663 C135.123552,135.540441 135.480886,135.591997 135.68533,135.386663 C146.036441,133.900441 156.079996,131.697774 165.815996,128.827552 C177.397329,125.190219 188.311106,119.911997 198.302217,112.430219 C199.071106,111.508442 200.251551,110.636442 199.790217,109.254219 C196.458662,98.596442 191.029329,88.8079978 184.056884,79.6864869 C181.855995,79.8409758 179.650662,80.3531535 177.447996,80.6617758 C175.706662,76.7659536 173.349329,72.9239982 169.710218,69.8999983 C169.40444,69.8493316 168.992885,69.7975983 168.78844,70.0541316 C167.918218,71.283376 169.095107,72.7173315 169.199996,74.0506648 C170.119996,78.4048869 168.992885,82.8635535 166.227551,86.092709 C164.227551,87.93822 162.07644,89.2177755 159.615996,89.8319978 C149.265774,91.8844421 139.786663,86.3493312 133.994663,77.8944869 C133.12533,77.6899536 132.456886,78.2524425 131.688886,78.4048869 C113.959997,83.9916423 94.5919976,88.0927089 74.8125315,85.6826645 C47.6544877,81.7868424 20.4965328,73.5892426 3.6388888,49.1475543 C2.3055555,47.0985766 1.07639108,45.0471989 0,42.9464878 L0,135.540441 C7.43055981,138.563552 15.1684441,140.716441 23.0590216,142.663108 L23.4687105,142.559996 C31.6684437,132.209774 42.52951,125.446219 54.9322653,123.856886 C64.2065762,122.628441 73.3246204,126.624886 77.5295092,135.027552 C79.4739536,138.768885 80.2951091,143.329774 79.4253313,147.838219 L79.5781313,147.940441 C92.2346644,149.015996 105.761775,148.45333 118.060441,146.761774 C125.234664,145.788441 132.151108,144.046219 138.863108,141.843552" id="path14"></path>
                        <path d="M75.0173315,147.633774 C75.786487,147.375996 75.4774203,146.403552 75.633687,145.737774 C76.144087,139.588441 73.5295093,134.003552 68.3559094,130.671108 C63.6927095,127.59733 56.8784875,127.187552 51.394132,128.623108 C40.6336879,130.825775 31.5642659,138.46133 24.8003549,147.633774 L75.0173315,147.633774" id="path16"></path>
                        <path d="M131.588441,74.6652426 C131.639108,73.4360871 130.817775,72.4621315 130.612441,71.283376 C130.100441,69.5927094 129.795552,67.8524427 129.435552,66.1093317 C120.161775,67.8524427 110.116442,68.9781316 100.535997,67.5433761 C87.1093312,65.8003539 73.1198204,59.0888874 67.2291539,45.7652433 C61.2326207,34.1333325 62.7708429,18.0961773 70.8142205,7.94930647 C72.0954649,6.35903095 73.3246204,4.97777765 74.7604426,3.59548435 C72.0954649,2.0576355 68.9704872,1.39096885 65.8455095,0.72430576 C56.7759986,-1.17152886 47.6544877,0.828471979 40.0191101,4.72083544 C27.8246215,10.2551997 19.0121773,23.0159994 18.8575995,36.2861324 C18.8575995,40.6923545 20.1371551,44.6888878 21.5728883,48.5850655 C24.8524438,57.4496875 33.2031103,64.9287984 41.4531545,69.3874649 C52.5225765,75.946487 65.0260428,79.2763536 78.142398,80.6617758 C91.7208866,82.0437313 105.455108,80.3531535 118.366219,77.8423981 C122.824886,76.9711981 127.180441,75.6899537 131.588441,74.6652426" id="path18"></path>
                        <path d="M122.260441,62.3176873 L122.415108,62.4183984 C124.567997,62.1128873 126.719108,61.8038207 128.768886,61.2413318 C129.588441,55.8597319 133.227552,49.967021 138.761774,48.3805321 C141.37333,48.0194655 144.039996,47.8666655 146.550219,48.6336877 C146.907552,48.4808877 147.215107,48.838221 147.574219,48.943021 C153.364441,50.2239987 158.129774,54.9874653 161.717329,59.9600874 C162.178663,59.9079985 162.690663,59.8559096 162.843551,59.3458652 C162.639107,55.0399097 161.256885,51.0433765 159.56444,47.3041766 L159.615996,46.9947544 C161.409774,45.1510211 163.255107,43.7173322 164.791996,41.7173323 C163.305774,39.2586657 161.050663,37.1058657 159.258663,34.8524436 C151.418663,26.4496882 142.091552,19.7343995 132.098663,15.1750218 L131.535997,15.2763552 C128.001775,22.3493328 120.723553,27.0125327 112.883553,26.7555549 C108.375108,26.7555549 104.480886,25.1687105 100.89422,22.8631994 C97.9217753,20.5020439 95.4115532,17.3767107 94.2826643,13.9464885 L93.9759977,13.9464885 C91.5155533,15.9947552 89.0568867,18.2479107 87.6735978,20.9145773 C82.1406202,28.6517326 82.4462202,40.6923545 87.4183978,48.5850655 C95.1546643,60.3176874 108.581331,63.8020428 122.107553,62.4183984 L122.260441,62.3176873" id="path20"></path>
                        <path d="M81.7360868,8.65416867 C79.9531536,8.65416867 78.4982203,7.19999982 78.4982203,5.41527986 C78.4982203,3.63020435 79.9531536,2.17881772 81.7360868,2.17881772 C83.5225757,2.17881772 84.9635534,3.63020435 84.9635534,5.41527986 C84.9635534,7.19999982 83.5225757,8.65416867 81.7360868,8.65416867 Z M81.7360868,1.87014218 C79.7812424,1.87014218 78.1823092,3.46041769 78.1823092,5.41527986 C78.1823092,7.37326204 79.7812424,8.96008866 81.7360868,8.96008866 C83.692709,8.96008866 85.2795534,7.37326204 85.2795534,5.41527986 C85.2795534,3.46041769 83.692709,1.87014218 81.7360868,1.87014218 Z M81.3784869,5.54652431 C81.439198,5.52985764 81.5642646,5.5190932 81.6544868,5.5190932 C82.1666646,5.5190932 82.4531535,5.96007096 82.4531535,6.42951095 C82.4531535,6.7972265 82.3315535,7.26944871 81.6145757,7.26944871 L81.3784869,7.26944871 L81.3784869,5.54652431 Z M80.3836424,6.53333317 C80.3836424,6.9635376 80.3836424,7.31111093 79.9322647,7.31111093 L79.9322647,7.49513759 L82.0017757,7.49513759 C82.8628424,7.49513759 83.529509,7.14757315 83.529509,6.40798206 C83.529509,5.86666652 83.1406201,5.48784875 82.6267535,5.36249764 L83.2517313,4.22743101 C83.376709,4.01249768 83.5590201,3.63367991 83.8385757,3.63367991 L83.8385757,3.44617769 L82.6267535,3.44617769 L81.602398,5.29340431 L81.3784869,5.29340431 L81.3784869,4.42222211 C81.3784869,3.89062212 81.3784869,3.63367991 81.9704868,3.63367991 L81.9704868,3.44617769 L79.8628424,3.44617769 L79.8628424,3.63367991 C80.3836424,3.63367991 80.3836424,3.89062212 80.3836424,4.42222211 L80.3836424,6.53333317 L80.3836424,6.53333317 Z" id="path22"></path>
                    </g>
                </g>
            </g>
        </g>
    </g>
</svg>