<?xml version="1.0" encoding="UTF-8"?>
<svg width="200px" height="200px" viewBox="0 0 200 200" version="1.1" xmlns="http://www.w3.org/2000/svg" xmlns:xlink="http://www.w3.org/1999/xlink">
    <!-- Generator: Sketch 54.1 (76490) - https://sketchapp.com -->
    <title>kansas</title>
    <desc>Created with Sketch.</desc>
    <g id="kansas" stroke="none" stroke-width="1" fill="none" fill-rule="evenodd">
        <g id="kansas_BGL" transform="translate(0.000000, 0.000000)">
            <g id="kansas" transform="translate(0.000000, 11.000000)">
                <g id="g10" transform="translate(99.939501, 89.064732) scale(-1, 1) rotate(-180.000000) translate(-99.939501, -89.064732) translate(0.000000, 0.014522)" fill-rule="nonzero">
                    <g id="g12" transform="translate(0.000000, 0.435572)">
                        <path d="M136.416694,6.12370221 C136.416694,3.92846451 134.637141,2.14836534 132.44186,2.14836534 C130.246095,2.14836534 128.466058,3.92846451 128.466058,6.12370221 C128.466058,8.31898346 130.246095,10.0990681 132.44186,10.0990681 C134.637141,10.0990681 136.416694,8.31898346 136.416694,6.12370221" id="path14" fill="#FFFFFF"></path>
                        <path d="M136.381848,6.12370221 C136.381848,3.92846451 134.602295,2.14836534 132.407014,2.14836534 C130.211249,2.14836534 128.431213,3.92846451 128.431213,6.12370221 C128.431213,8.31898346 130.211249,10.0990681 132.407014,10.0990681 C134.602295,10.0990681 136.381848,8.31898346 136.381848,6.12370221" id="path16" fill="#FFFFFF"></path>
                        <path d="M136.381848,6.15849954 C136.381848,3.96324733 134.602295,2.18371924 132.407014,2.18371924 C130.211249,2.18371924 128.431213,3.96324733 128.431213,6.15849954 C128.431213,8.35431316 130.211249,10.1338654 132.407014,10.1338654 C134.602295,10.1338654 136.381848,8.35431316 136.381848,6.15849954" id="path18" fill="#FFFFFF"></path>
                        <path d="M136.381848,6.12370221 C136.381848,3.92846451 134.602295,2.14836534 132.407014,2.14836534 C130.211249,2.14836534 128.431213,3.92846451 128.431213,6.12370221 C128.431213,8.31898346 130.211249,10.0990681 132.407014,10.0990681 C134.602295,10.0990681 136.381848,8.31898346 136.381848,6.12370221" id="path20" fill="#FFFFFF"></path>
                        <path d="M118.679731,62.0926784 C120.722078,63.5658786 122.772169,64.9263142 124.78209,66.1996354 C123.228551,63.2754975 122.842828,60.6891697 122.63327,59.2392 C122.63327,59.2392 122.622622,59.1743482 122.620203,59.1603131 C121.776645,58.7508757 120.661098,58.0815472 119.269688,56.8271008 C117.866664,55.5620071 116.916633,54.1134893 116.36249,53.1910453 C115.019477,52.8919527 113.849241,52.5323641 113.097638,51.6302467 C112.642223,51.0848142 112.499937,50.5108275 112.241497,49.4702952 C112.012096,48.5468832 111.698485,47.2827574 111.201933,46.175873 C111.051419,45.8414508 110.91494,45.5439069 110.786204,45.2665445 C110.124619,46.0239069 109.379308,46.8229873 108.602538,47.5368409 C107.420687,48.6243182 105.926192,49.7176031 104.67465,50.5853587 C107.754141,53.3357518 113.954746,58.6840881 118.679731,62.0926784 L118.679731,62.0926784 Z M118.141558,177.299451 L118.141558,177.299451 C112.760312,177.040044 109.178461,173.59806 107.535871,171.601206 C101.242829,173.617902 94.5819698,173.579669 88.6514194,171.421653 C79.3045352,168.02129 76.2850556,162.442585 75.1167555,160.156318 C73.9044144,159.948211 71.9346624,159.422138 70.1299438,157.781484 C69.3962475,157.114576 68.3179656,155.632664 66.4750135,153.071503 C64.7312748,150.647788 62.5616439,147.63218 61.3846325,146.520021 C57.8734408,143.2029 56.3136102,142.68215 54.3351469,142.814274 C53.0748928,142.898484 51.9675728,142.061218 51.702842,140.824195 C51.6694482,140.668841 51.6534772,140.50526 51.6534772,140.335871 C51.6534772,138.091225 54.4459757,134.754262 56.6983652,133.91748 C57.7190548,133.539017 58.6666652,133.314455 59.5232895,133.18088 C59.3359937,132.597214 59.1709604,131.991285 59.0625515,131.405199 C58.9144571,130.606651 58.4362962,128.910342 58.0147596,127.413427 C57.3144571,124.9297 56.9205067,123.532483 56.9205067,122.588261 C56.9205067,121.823106 57.1794299,121.355593 57.7422853,120.84791 C58.2882018,120.355714 58.8767075,120.185841 59.4516622,120.189229 C59.2967922,119.565393 59.115304,118.898969 58.8878388,118.19431 C58.5301861,117.085055 57.7950379,115.625889 57.2050802,114.453718 C56.5894723,113.231697 56.0232291,112.107438 56.0232291,111.12111 C56.0232291,110.429519 56.301511,109.805684 57.0347233,109.262671 C57.3531746,109.026979 57.9639429,108.610766 59.7197807,108.677553 C59.6621885,108.582695 59.5508757,108.398303 59.5508757,108.398303 C58.7687826,107.165152 58.1846325,106.243676 58.1846325,105.291225 C58.1846325,104.963579 58.25384,104.63206 58.407742,104.283119 C58.6608576,103.710584 59.1075605,103.305503 59.6621885,103.020445 C59.007863,102.51615 58.4324244,101.894734 58.0679961,101.139743 C57.7882623,100.559465 57.6479114,99.9428892 57.6479114,99.3229255 C57.6479114,98.7552304 57.7655158,98.1836636 58.0021764,97.6348433 C58.2746507,97.0013285 58.6110088,96.5134882 58.9856005,96.1108264 C58.6255279,95.9583763 58.2770705,95.8068942 57.94652,95.655896 C56.2531141,101.561764 54.0786435,104.54543 51.4608578,104.507196 C50.9560786,104.499937 50.319176,104.408467 49.6793696,104.140832 C49.4983654,104.66739 49.3255886,105.177977 49.1789461,105.611129 L48.1327514,108.618025 C44.5757763,118.151237 41.3507552,117.923772 40.2911545,117.848757 C36.9768896,117.614516 36.1050203,114.354504 35.9271134,111.212096 C35.3019229,111.845127 34.5508037,112.221171 33.5730421,112.151479 C33.0385957,112.11373 32.6062666,111.949181 32.2151232,111.73817 C31.6447179,112.945672 31.0144457,114.14543 30.3748813,115.05771 L29.9873193,115.61379 C28.0845486,118.353536 25.4784749,122.10526 21.9818022,120.644159 C19.115789,119.446337 18.3577007,116.724498 18.3577007,113.702598 C18.3577007,111.86255 18.6390316,109.910705 18.8963093,108.124861 C19.044936,107.092556 19.2417176,105.981365 19.4589227,104.867269 C19.2292312,104.943736 19.0003141,105.03569 18.7685416,105.06618 C17.6440407,105.21379 16.5840528,104.849846 15.7832301,104.041619 C14.6088321,102.856864 14.2190438,101.546761 14.2190438,100.283603 C14.2190438,98.6932825 14.8368296,97.1760411 15.286388,96.0730768 C15.286388,96.0730768 15.5263396,95.4700521 15.5593947,95.3872934 C15.5180153,95.3669668 15.4796366,95.3509958 15.4370958,95.3282493 C13.2219718,97.3831797 10.0094371,99.6626714 7.15610387,98.1217156 C6.16358121,97.5859625 5.47392606,96.6983642 5.1625891,95.5547466 C5.0364669,95.0930406 4.9811009,94.5969728 4.9811009,94.0805784 C4.9811009,90.5843897 7.53272818,86.1623693 8.11121577,85.2050795 C8.39816071,84.7303064 8.95511169,83.7483343 9.51830587,82.7436156 C8.83300643,82.5001794 8.12728352,82.0123391 7.72423453,81.0042327 C7.55726539,80.5875358 7.48355698,80.169387 7.48355698,79.7555939 C7.48355698,78.5916496 8.06659387,77.4591632 8.80522664,76.462188 C7.90606151,76.2831197 7.16384737,75.7918916 6.67915289,74.8878384 C5.20377482,75.3519642 1.29310584,76.2918311 0.18432377,73.6082256 C0.0574712629,73.3018735 0,72.987294 0,72.6698106 C0,70.3259511 3.12235201,67.8073788 4.50109608,66.8089517 C4.32660122,66.4493631 4.20599143,66.0684799 4.20599143,65.666302 C4.20599143,65.4867497 4.22394666,65.3057455 4.26043789,65.1257092 C4.61736468,63.3708393 6.43489397,62.0708998 10.374301,59.8194782 C10.374301,59.8194782 10.5849241,59.6980021 10.7891104,59.5799138 C10.7652992,59.499575 10.7272593,59.4366591 10.7087717,59.3500288 C10.6644885,59.1395025 10.6435327,58.9342998 10.6435327,58.7339368 C10.6435327,56.2124608 13.9505865,54.5238946 15.0935749,53.9402285 C15.0935749,53.9402285 15.2986808,53.8434348 15.587368,53.7064717 C14.7837383,52.4926787 14.2791527,51.195643 14.1634358,49.8032655 C14.1494491,49.6358124 14.1428672,49.4707792 14.1428672,49.3071978 C14.1428672,46.0781598 16.7886263,43.6564296 19.4323044,43.3675488 C19.4386928,43.3669681 19.5912881,43.3520618 19.8283359,43.3374944 C19.8961883,42.9885047 19.9920624,42.6217533 20.1652264,42.0558973 C20.1703564,42.0394908 20.4249723,41.3333807 20.8826613,40.5329451 C20.0894369,40.4272464 19.1290497,40.2497268 17.9024799,39.9501018 C15.3104412,39.3161999 11.5914335,37.9722677 9.59356298,37.2500898 L8.60558962,36.8954377 C4.99774942,35.6297148 4.75328724,34.1266053 4.67294362,33.6324251 C4.65082626,33.4974462 4.64004828,33.3624674 4.64004828,33.2282145 C4.64004828,32.4636894 4.99073188,31.7324614 5.60571069,31.2551232 C5.79044148,31.1120137 5.97889882,31.0050083 6.16740456,30.9218141 C2.89530301,28.9621287 1.54851055,25.6474767 1.54851055,23.363 C1.54851055,23.0973981 1.56628187,22.8467024 1.60106469,22.6128488 C1.7655414,21.5090134 1.97727763,20.6698119 2.16046456,20.0794187 C1.96045004,19.3872953 1.81393825,18.5670171 1.81393825,17.639685 C1.81393825,15.8428066 2.33646939,13.7089894 3.95001563,11.6462671 C7.21490605,7.47295807 13.9137081,5.7316393 19.104077,5.85659997 C23.0423709,5.95242574 25.2576884,6.56987279 26.3704289,6.89558361 C32.4692067,4.88808215 39.2691097,4.27688314 46.5931023,5.0918813 C54.4004826,5.96152435 61.6130656,8.74676324 64.7641847,10.1003748 C65.8095567,9.20846922 67.2924363,8.40706573 69.1760418,8.32672695 C73.7519643,8.1306713 76.4960658,12.6228672 78.5761626,17.0434358 C79.3814862,18.7552808 79.9908026,20.1172167 80.4742872,21.238475 C80.7351462,20.9940225 81.0027808,20.7603625 81.2800948,20.5571441 L81.7979411,20.1722439 C83.1617644,19.1511671 84.7075599,17.9943855 86.8558962,18.3805924 C87.71978,18.5365755 88.3634582,18.9473679 88.8474267,19.4430485 C89.3618852,19.0732966 89.9470032,18.6724738 90.6981224,18.2164787 L91.0141538,18.0253595 C92.1103425,17.3589832 93.1837847,16.7075132 94.2194774,16.2206892 C94.0263739,15.9675737 93.8332705,15.7197334 93.6440388,15.4370958 C91.195158,11.7778097 90.4193565,8.52558962 90.4193565,6.03692665 C90.4193565,4.20239554 90.8408931,2.78338529 91.3248616,1.92226492 C92.272956,0.23612389 93.6270999,0.107947729 94.1647889,0.131578944 C94.4024175,0.141787776 96.4897738,0.303047542 96.6523872,2.76485898 C96.747245,4.19559094 98.6318185,6.2515183 100.195521,7.72457331 C101.271383,8.73713227 102.226737,9.37253455 102.978824,9.78448856 C103.480699,8.87588605 104.123893,7.83743477 104.847426,6.9895703 C105.848757,5.81536586 107.49425,4.99547477 108.696428,4.39693153 C108.696428,4.39693153 109.086991,4.19408096 109.287354,4.09047782 C109.367692,3.98896058 109.465938,3.86494364 109.465938,3.86494364 C110.406773,2.64046454 112.364909,0.0915003002 116.580759,0.048396853 C120.807257,0.00623864473 126.099936,4.20277303 128.50768,7.19656364 C131.427946,10.8263276 132.968418,14.2581485 133.611128,15.9172894 C135.312761,16.8371684 138.863154,19.1747848 143.899815,24.6513726 C152.179549,33.6541552 155.816572,44.2027817 156.461702,46.2258186 C157.782452,50.3695087 158.437746,53.7142152 158.437746,56.4031444 C158.437746,58.2659393 158.123166,59.8146386 157.496911,61.0957033 C156.19068,63.7672095 154.3395,64.9214745 152.816935,65.3192966 C151.417782,67.4637612 147.859645,71.9690242 142.012822,73.1600708 C140.455895,73.4770702 139.006409,73.6304882 137.633874,73.663882 C139.902235,74.9168765 141.60048,75.8688426 142.614878,76.5947954 C143.589591,77.292678 151.29195,83.0083464 151.29195,89.3846318 C151.29195,90.1357509 151.185477,90.8965495 150.947849,91.6587999 C149.710825,95.6287937 146.304655,97.3212317 143.512156,98.0481524 C143.597819,98.4280677 143.659283,98.8200822 143.659283,99.238231 C143.659283,99.5799128 143.627341,99.9336938 143.557165,100.298606 C143.354866,101.348818 142.907679,102.174952 142.284328,102.834117 C147.422622,103.09304 153.420444,103.702357 159.201932,105.041498 C167.280335,106.913488 171.986929,108.579308 175.769627,109.917965 C177.492555,110.527765 178.980758,111.054323 180.549784,111.521836 C184.216329,112.614637 187.108041,113.357529 188.66158,113.756803 C190.198664,114.151721 190.359342,114.192859 190.752808,114.45517 C191.525706,114.970112 191.989348,115.838836 191.989348,116.753052 C191.989348,116.808225 191.987412,116.863881 191.984508,116.919053 C191.92498,117.875859 191.37132,118.707317 190.502113,119.142889 C190.500177,119.143373 190.128973,119.309374 190.128973,119.309374 C185.162004,121.441739 180.66884,123.999997 177.77374,125.770838 C174.698604,127.652507 171.737201,129.893766 169.554019,131.654927 C172.18584,132.269567 175.349058,132.9297 177.282996,133.060372 C184.655773,133.559827 189.39818,132.125829 191.094974,131.486022 C193.449481,130.598908 194.931393,129.199755 194.946396,129.18572 L197.645004,126.611491 L198.906226,130.114939 C199.09933,130.6565 203.48602,143.526675 191.002536,156.92486 C178.831695,169.987171 160.520262,171.911429 147.968538,168.225525 C146.188986,169.797939 142.558254,172.759342 139.594431,173.581605 C135.062066,174.837987 132.238593,174.167691 130.586325,173.301871 C128.13696,174.823468 123.041739,177.536112 118.141558,177.299451 L118.141558,177.299451 Z" id="path22" fill="#FFFFFF"></path>
                        <path d="M33.6732236,39.323411 C33.0191401,38.7919652 32.5289284,38.3011727 32.5289284,38.0970347 C32.5289284,37.8922677 32.4878879,37.1160305 32.3653954,36.7481661 C32.2430966,36.379866 32.4878879,35.3582568 32.6514208,35.3170227 C32.8147602,35.2760306 33.5100778,35.6036289 34.2867021,35.8896543 C35.0631328,36.1756797 36.0032901,36.6664722 36.0032901,36.6664722 C36.0032901,36.6664722 35.6762242,37.4839434 35.5537317,38.0153409 C35.4314329,38.5462059 35.2266658,39.6506221 35.1860124,39.9361152 C35.1453591,40.2221406 34.8179544,40.4680934 34.8179544,40.4680934 C34.8179544,40.4680934 34.3271619,39.8542277 33.6732236,39.323411 L33.6732236,39.323411 Z M48.5115535,42.3894 C48.3076092,40.9992972 48.7569256,39.8542277 48.6344815,39.2417171 C48.5120375,38.6284322 47.8987042,36.5846331 47.8987042,36.5846331 C47.8987042,36.5846331 48.3076092,36.7075127 48.9616443,36.7831086 C49.642104,36.8619471 49.8197205,36.9524976 49.8603738,37.1160305 C49.9010272,37.2795635 49.6682383,38.5055526 49.6682383,39.0779906 C49.6682383,39.6506221 49.9421645,40.9586923 50.0650925,42.4710939 C50.1880205,43.9834956 49.6154858,44.4326668 49.6154858,44.4326668 C49.6154858,44.4326668 48.673683,43.4928967 48.5115535,42.3894 L48.5115535,42.3894 Z M191.948211,133.750511 C189.488199,134.677795 184.406529,135.968539 177.119415,135.474891 C173.076342,135.201449 164.387655,132.862429 164.387655,132.862429 C164.387655,132.862429 170.165755,127.58814 176.511066,123.706712 C183.761399,119.271624 189.16394,117.106349 189.418023,116.979065 C189.671139,116.852266 189.563698,116.570596 189.411248,116.469447 C189.259281,116.367813 185.495458,115.520868 179.858677,113.841013 C174.648271,112.288442 170.21028,110.076222 158.655531,107.398908 C142.877673,103.743494 125.101025,105.496912 125.075859,105.522078 C125.050209,105.547729 124.97471,104.88808 124.847426,104.330548 C124.720142,103.772532 124.492193,103.1637 124.517843,103.138049 C124.543494,103.112399 127.454564,103.214033 132.507196,103.023349 C139.254201,102.768781 140.827099,101.677432 141.18088,99.8412558 C141.610644,97.608225 139.513608,96.1771301 139.513608,96.1771301 C139.513608,96.1771301 146.974467,96.2773116 148.637383,90.9391387 C150.094128,86.2635187 144.150995,80.6693265 141.20653,78.5626115 C138.271745,76.462672 127.494734,71.433755 117.264123,64.0546868 C110.604716,59.2517832 101.159102,50.7397446 101.032302,50.5113115 C100.905503,50.2828784 100.829036,50.3593454 100.981002,50.181245 C101.133452,50.0036285 104.765152,47.7788252 106.964789,45.7563691 C109.125224,43.7687103 111.152084,40.9495937 111.152084,40.9495937 C111.152084,40.9495937 111.523772,40.984391 113.409314,45.1852862 C114.370475,47.3271857 114.703445,49.7776152 114.955593,50.0805795 C115.475859,50.703931 117.770838,50.9430114 117.922804,51.0949775 C118.075254,51.2469437 119.089168,53.4064112 120.890015,55.0296417 C122.690862,56.6523882 123.85529,57.0874759 124.565272,57.3662418 C125.275254,57.6450076 124.631576,61.3512386 127.357771,65.8565017 C130.605199,71.2217768 135.583784,71.9995142 141.529821,70.788625 C148.063396,69.4577115 151.350026,63.0669071 151.350026,63.0669071 C151.350026,63.0669071 153.682271,63.3877782 155.322924,60.0329084 C156.492192,57.6406519 156.210522,53.4059273 154.156076,46.9608216 C152.822743,42.7775428 149.031333,33.8052018 142.118327,26.2897029 C135.481182,19.072135 131.66993,17.663351 131.66993,17.663351 C131.66993,17.663351 130.358375,13.3575314 126.622138,8.71332102 C124.460251,6.0254082 119.728491,2.43685898 116.605442,2.4682395 C112.612701,2.50888318 111.506349,5.56810633 110.745551,6.05018739 C109.984752,6.53207485 107.642345,7.44198408 106.687475,8.56096772 C105.31252,10.1716634 104.15148,12.8478642 104.15148,12.8478642 C104.15148,12.8478642 101.675013,12.4408466 98.5369606,9.48578319 C93.0119759,4.28312149 94.6632765,2.57524011 94.0607357,2.5491542 C93.132968,2.50888318 91.1970939,7.42891693 95.654928,14.0918085 C97.8787634,17.4151236 100.498969,18.2257709 100.498969,18.3274527 C100.498969,18.4289893 99.4865069,18.6052022 98.6986061,19.2212941 C97.8535971,19.8808948 97.5912861,20.5075857 97.6077411,20.4240527 L96.9771301,20.7113848 C96.9771301,20.7113848 98.2146376,18.1571441 97.7858415,17.9471018 C96.6335124,17.381633 94.1401065,18.9609675 91.9525688,20.2866057 C89.0598889,22.0398301 88.3474872,23.0958978 88.1190541,23.0703443 C87.8911049,23.0446455 87.6950976,20.9906347 86.4271001,20.7622499 C85.1591025,20.5342524 84.2327868,21.3929093 82.7107057,22.5088924 C81.1891087,23.6244882 79.7347832,25.9968536 79.7347832,25.9968536 C79.7347832,25.9968536 79.2275842,24.1099571 76.386689,18.0737564 C73.5457937,12.0372169 71.3974574,10.6535509 69.2791271,10.7441014 C66.636175,10.8569628 65.3730171,13.0270777 65.3730171,13.0270777 C65.3730171,13.0270777 56.2506943,8.60254062 46.3254193,7.4971565 C34.1292187,6.13865683 26.872159,9.37403485 26.4405559,9.39920122 C26.0089528,9.42431918 24.0467992,8.39685399 19.0454684,8.27586186 C14.3957891,8.16358116 8.50158478,9.75535366 5.85582562,13.1372773 C3.06923162,16.6997697 4.72814507,20.0930183 4.72814507,20.0930183 C4.72814507,20.0930183 4.28482506,21.020302 3.99463269,22.9692432 C3.81371073,24.1857465 4.56707551,27.5538771 8.0276344,29.2090011 C11.401621,30.8225522 14.8757891,28.2463877 14.8757891,28.2463877 C14.8757891,28.2463877 15.3070051,28.8295698 15.839564,29.2608341 C16.3723166,29.6914693 16.9559342,30.0215358 16.9559342,30.0215358 C16.9559342,30.0215358 16.9209433,30.4779182 16.8954382,30.8331511 C16.8698846,31.1879968 16.9048756,31.4927518 16.9048756,31.4927518 C16.9048756,31.4927518 15.7890861,31.6195999 14.4194068,31.7464481 C13.0497758,31.8727155 10.2348213,32.6591643 9.14400461,32.8875491 C8.05313954,33.1161274 7.31813654,32.9892793 7.08994538,33.1664118 C6.86156063,33.3435442 7.96147591,34.1052139 9.40675113,34.6120741 C10.8520263,35.1190796 15.4964303,36.8702713 18.4771925,37.5990795 C22.2956558,38.5326064 23.042758,38.1633868 23.042758,38.1633868 C23.042758,38.1633868 23.2206649,39.0007008 23.448856,39.4822011 C23.6771924,39.9637014 23.9050448,40.5996844 23.8798784,40.5996844 C23.8549056,40.5996844 22.859576,41.5220316 22.4790315,42.7644756 C22.0873074,44.0439916 22.1377853,43.9046571 22.0787895,45.8743606 C22.0787895,45.8743606 21.0895095,45.6208579 19.6948573,45.7732112 C18.30006,45.9252257 16.394434,47.4294967 16.5749542,49.6029026 C16.8273438,52.6398051 19.4661338,54.3457942 19.5166117,54.4725939 C19.5672832,54.5989097 18.5074406,54.9139732 16.1940226,56.0953404 C13.6414758,57.3986677 12.9750995,58.3685406 13.0765877,58.8505732 C13.1783179,59.3330899 14.1145066,59.2914686 14.9260734,59.2914686 C15.7374951,59.2914686 16.4479125,59.1646688 16.5239439,59.2914686 C16.599927,59.4177844 13.6698363,60.6857819 12.3506349,61.4722308 C11.0316271,62.2586796 6.86591634,64.4563807 6.63186916,65.6072579 C6.43581351,66.5727751 11.1460372,65.9373244 11.0698122,66.0892905 C10.9938291,66.2417406 10.2937686,65.9087703 6.45381714,68.3978204 C4.67955947,69.5477297 2.18731029,72.1195384 2.42078639,72.6838457 C2.61702111,73.1586189 4.44608337,73.0874755 6.13996355,72.5231682 C7.57807604,72.0440393 9.62414979,71.6452493 9.62414979,71.6452493 C9.62414979,71.6452493 8.35789453,72.7651524 8.7365999,73.6740453 C9.32960654,75.0988487 14.8107437,72.8053218 15.1292918,73.218147 C15.2724013,73.4035069 13.9619113,74.4604942 11.9577976,76.5144566 C9.95407114,78.5689031 9.77674507,79.6200827 9.97105843,80.1055031 C10.2130427,80.7104638 10.9182332,80.5222 11.6534298,80.5725328 C12.3890136,80.6233495 13.4032665,80.6741662 13.3525949,80.8009659 C13.302117,80.9277657 10.9176525,85.2394413 10.1822623,86.4566222 C9.44682372,87.674287 5.69606761,94.5839057 8.30552913,95.9927381 C10.9034722,97.3952789 15.7683239,91.4172996 15.9715423,91.3921332 C16.1747606,91.3669669 15.6174225,92.8091931 16.7006892,93.2529922 C17.707005,93.6648494 19.2071139,91.841256 19.6683843,92.2129439 C19.783714,92.3053818 18.6044278,94.1759202 17.8419838,96.1945529 C17.1099814,98.1328469 15.7421896,100.562369 17.5022863,102.338533 C19.4891707,104.344099 23.8048149,96.8019335 23.8048149,96.8019335 C23.8048149,96.8019335 21.9899329,103.618146 21.2914211,108.469931 C20.6363213,113.017783 20.1347847,117.249604 22.9147968,118.411612 C24.7447786,119.176283 26.6689407,116.128733 28.3934657,113.668721 C30.118136,111.208709 31.994482,105.907801 32.1211365,105.857469 C32.2477911,105.806652 32.1933446,109.627099 33.7450929,109.737928 C34.6071377,109.799392 35.4166718,107.378582 36.2305133,104.716271 C37.1946754,101.56128 38.2340946,99.6946134 38.3355828,99.6946134 C38.437313,99.6946134 38.5129089,103.701873 38.3607492,107.557166 C38.2085411,111.411975 38.3059156,115.282756 40.461463,115.434722 C42.617204,115.587172 44.9419468,110.247547 45.8654556,107.772048 C46.80087,105.265091 48.6485166,99.2217761 49.1407126,99.16128 C49.396732,99.1298221 49.0608578,102.052024 51.4961875,102.087838 C54.0931626,102.125587 56.3445842,92.1616432 56.3445842,92.1616432 C56.3445842,92.1616432 60.6267377,94.5030829 63.5707183,95.1080436 C66.8016922,95.7720484 70.4208089,95.6365372 70.4208089,95.6365372 C70.4208089,95.6365372 69.5840273,96.0672692 66.0583166,96.5241355 C62.5326058,96.9805178 61.0298835,96.7215947 60.2245599,98.5911651 C59.4739247,100.336356 61.5545054,101.641619 63.0402888,102.045249 C64.1776149,102.354504 67.2246807,102.584873 67.5039306,102.787656 C67.7836644,102.990439 67.9211114,104.226979 68.1442209,104.797578 C68.3808815,105.40399 68.8740455,106.312883 68.8740455,106.312883 C68.8740455,106.312883 67.0393208,105.312036 64.790319,104.994069 C62.2044752,104.628673 60.699333,105.084571 60.6214141,105.260735 C60.4892907,105.559344 61.9876573,107.59298 62.4953402,108.607378 C63.0030232,109.621776 63.5721702,111.790923 63.5721702,111.790923 C63.5721702,111.790923 62.1584981,111.426494 61.2708999,111.274528 C60.3833016,111.122562 58.8118558,110.958013 58.4745297,111.207741 C58.1817287,111.424559 60.3847535,114.950753 61.1910451,117.451419 C62.3341787,120.996488 62.5514806,123.805442 62.5514806,123.805442 C62.5514806,123.805442 61.7582562,123.506833 61.3526905,123.380033 C60.9466409,123.253233 59.6157275,122.41742 59.362128,122.645369 C59.1090124,122.873802 61.0613415,128.909858 61.4417408,130.964304 C61.82214,133.01875 63.1128841,135.574588 63.1128841,135.574588 C63.1128841,135.574588 60.7477299,134.995278 57.5409544,136.186324 C55.5649109,136.920021 53.5690247,140.439924 54.1739853,140.399755 C57.2418618,140.195036 59.4976392,141.407861 63.0465804,144.761279 C65.4344811,147.01754 70.4271005,154.780879 71.7580139,155.990801 C73.8894113,157.928611 76.3479715,157.799391 76.5976992,157.943614 C77.3638214,158.387413 78.6545655,165.209433 89.4785217,169.147485 C97.9915281,172.244884 105.414637,169.843432 107.773016,168.994067 C108.26618,168.816451 108.572532,168.938895 108.572532,168.938895 C108.572532,168.938895 112.008709,174.580516 118.258678,174.882512 C124.106954,175.164666 130.640529,170.365634 130.640529,170.365634 C130.640529,170.365634 132.53575,173.027461 138.947849,171.249361 C142.330789,170.311429 147.337443,165.525949 147.337443,165.525949 C159.961279,169.800843 177.864242,167.475858 189.232179,155.275011 C200.856619,142.79927 196.626734,130.927038 196.626734,130.927038 C196.626734,130.927038 194.856861,132.653838 191.948211,133.750511 L191.948211,133.750511 Z" id="path24" fill="#1967B8"></path>
                        <path d="M164.266663,124.923409 C164.12002,125.02117 161.816814,125.808103 159.804957,126.828793 C158.168175,127.659767 155.003021,129.506107 155.003021,129.506107 C155.003021,129.506107 154.46872,129.850208 153.838593,129.634359 C151.653475,128.885659 147.396004,127.396004 145.040045,126.537444 C142.636657,125.660977 136.493161,122.923167 135.272108,122.48324 C134.051055,122.043796 133.63339,121.738896 133.239924,121.724861 C132.196004,121.686627 131.311309,121.406894 131.840771,121.081667 C131.931273,121.026494 138.548091,120.983421 142.972047,121.074407 C148.295701,121.1833 155.544098,121.214758 156.130184,121.263155 C156.857588,121.323651 158.005562,121.815363 160.473801,123.069809 C163.007376,124.356682 163.545065,124.436537 163.986929,124.575435 C164.660129,124.787414 164.266663,124.923409 164.266663,124.923409" id="path26" fill="#E51635"></path>
                        <path d="M145.063759,164.61996 C145.063759,164.61996 143.653475,166.973983 139.926917,168.698362 C137.35898,169.886989 135.391648,170.136717 134.298363,170.010401 C133.447547,169.912155 132.428309,169.496426 132.384752,168.917116 C132.359101,168.576402 132.900178,168.2444 133.692919,167.844158 C134.651176,167.360673 135.298726,167.243553 135.423106,166.992857 C135.548938,166.742646 135.778823,166.166723 135.570717,166.141557 C134.519053,166.015241 133.345429,166.4542 132.773862,166.772168 C131.302114,167.592494 127.874649,170.010401 125.424316,171.401811 C122.927523,172.819354 120.438472,173.524013 116.88082,172.889046 C112.534782,172.113244 109.959102,167.739621 109.959102,167.739621 C109.959102,167.739621 112.735145,166.015241 114.459525,165.089893 C116.064849,164.228429 116.749664,163.953535 118.002175,163.828187 C119.255169,163.702839 120.473318,163.708163 120.569628,163.335991 C120.651903,163.018508 119.995641,162.237866 119.053839,162.230123 C116.625284,162.209312 117.251056,161.984267 109.139259,166.180274 C101.937807,169.90538 95.9433733,168.807739 95.8238331,168.789348 C95.0194774,168.664969 87.2692053,167.8761 82.2248013,163.084811 C79.5097379,160.506227 78.5103429,157.599028 78.584874,157.099573 C78.7213531,156.184872 79.1738637,155.974346 79.4724723,155.160311 C79.7352672,154.444521 79.722684,153.087957 79.3161505,153.155713 C78.8055637,153.241375 77.984753,155.88336 75.8819098,155.922077 C74.7465196,155.943372 73.1460357,155.996124 70.0128234,151.025284 C67.9637007,147.773983 65.2162113,144.544945 64.1200226,143.417298 C63.0243178,142.289652 59.9728963,139.778823 59.0054432,139.415846 C57.1552315,138.721836 56.7859635,139.161763 56.6606156,138.942525 C56.5352678,138.723288 57.5675727,137.196851 60.3199017,136.987292 C63.9046566,136.71385 66.7755579,138.973983 66.9328477,138.890257 C66.9943117,138.857347 64.5159089,134.688442 63.8422247,132.857105 C63.0949772,130.825889 62.8321823,129.49062 62.4329083,128.28457 C62.0583167,127.152084 61.8419827,125.965877 61.6019343,125.569023 C61.4804582,125.36866 64.6310934,126.266905 66.743616,127.840287 C69.2152433,129.680336 70.3399861,131.309858 70.3399861,131.309858 C70.3399861,131.309858 70.1715651,128.659162 68.0706577,127.040771 C66.0888066,125.514334 64.6838459,125.02117 64.1776149,124.286506 C64.0851769,124.151963 64.0474273,121.374952 63.3098593,118.980759 C62.0012084,114.72958 60.7186918,112.795157 60.7186918,112.795157 C60.7186918,112.795157 62.8408938,112.818872 65.8158483,114.752326 C68.7099801,116.632544 69.9402281,117.957166 69.9402281,117.957166 C69.9402281,117.957166 70.1822124,116.338291 68.1316377,114.540348 C66.4169372,113.036658 65.6338762,112.773863 65.4610994,112.542526 C65.3667255,112.416694 64.9698713,110.409677 64.5943118,109.333331 C64.0411357,107.748818 63.068359,106.486628 63.2106457,106.287233 C63.3684195,106.066543 66.1333317,106.623591 69.2921943,108.800481 C71.4071368,110.258678 73.771323,111.776404 73.771323,111.776404 C73.771323,111.776404 72.2153642,109.666785 71.0969129,107.244038 C69.7195385,104.257953 69.0255276,102.607136 69.1983044,100.656259 C69.2084677,100.543494 71.1395022,101.62952 72.8851766,102.228673 C74.2344809,102.69183 75.8393205,103.122562 77.6556544,105.166846 C78.969145,106.644401 80.4742872,108.423954 80.4742872,108.423954 C80.4742872,108.423954 79.6747711,106.420808 79.3616435,104.542042 C79.0489998,102.662792 79.0044747,99.884329 79.2358117,99.6316974 C79.3553519,99.5010259 83.8073784,102.214637 85.1774933,103.785115 C87.3335731,106.255775 89.1842688,109.693403 89.1842688,109.693403 C89.1842688,109.693403 89.3105846,109.50272 89.3420425,109.283482 C89.3730165,109.064244 88.9529318,104.731274 89.089411,103.143373 C89.2539603,101.230729 89.3522059,100.725466 89.488685,98.254807 C89.5249826,97.5970937 89.4480316,97.1184489 89.6048374,97.024559 C89.7611593,96.9306691 89.9881405,97.2684791 90.6139118,97.5501488 C91.2401671,97.8323025 95.3645469,99.3655148 97.6590417,101.408346 C101.685176,104.994069 102.556803,107.234359 102.556803,107.234359 C102.556803,107.234359 101.696307,102.701994 101.633391,101.093282 C101.52837,98.4329074 101.856501,94.1212318 102.169144,93.901994 C102.482272,93.6827563 103.851419,94.9851156 105.576283,95.9733793 C106.420324,96.4568639 108.05275,97.316876 110.769749,100.988261 C112.476706,103.294371 113.725829,104.922925 113.92716,104.978582 C114.134298,105.036174 112.818388,101.506108 112.809193,100.347003 C112.798545,99.053839 113.423349,96.9926171 113.755351,96.0885638 C114.018146,95.3737423 114.081546,94.9851156 114.291104,93.9862045 C114.291104,93.9862045 117.309616,96.9190538 119.158376,98.8708989 C123.333572,103.280336 123.070777,105.77229 123.070777,105.77229 C116.867753,106.45517 110.989471,108.47719 107.3418,109.798424 C97.7640629,113.267995 92.4404091,117.661945 86.8912259,122.867027 C83.6742871,125.88457 82.6095563,128.951479 83.2938878,130.537928 C83.6950977,131.467147 84.6301249,131.845611 84.6301249,131.845611 C84.6301249,131.845611 79.9728958,137.301872 80.676586,142.212217 C81.0898951,145.094249 85.2094353,146.215604 92.8638815,144.745792 C102.658921,142.864606 112.598182,137.312035 112.598182,137.312035 C112.598182,137.312035 108.82226,139.934661 107.350512,142.00169 C105.877795,144.069204 105.126192,145.697758 105.126192,145.697758 C105.126192,145.697758 102.571806,145.281545 99.8949763,145.979912 C97.2104029,146.680214 94.6792475,147.199996 92.7680558,150.55777 C92.1868096,151.577976 92.9408325,151.201448 93.7572874,150.149301 C93.8182675,150.070898 94.4164526,149.53708 95.2638815,149.490135 C96.3286122,149.431091 99.5595861,149.942162 104.368781,154.152688 C109.373016,158.534539 113.646458,161.830365 116.622381,160.67126 C119.597335,159.51264 120.66255,156.724981 118.908648,154.43823 C117.154262,152.151962 116.747245,151.212095 116.747245,151.212095 C116.747245,151.212095 117.404958,150.804594 118.375799,149.802779 C119.347123,148.80048 120.411854,147.829155 120.411854,147.829155 C120.411854,147.829155 123.826736,152.120504 132.346518,157.601932 C140.865816,163.08336 145.063759,164.61996 145.063759,164.61996" id="path28" fill="#E51635"></path>
                        <path d="M127.072229,44.7468591 C126.893161,44.9253467 123.932725,46.2242699 122.078158,46.5524973 C120.316996,46.8646086 117.240892,46.5748083 117.084571,46.4857581 C116.928733,46.3961271 116.193101,44.3237738 115.902719,43.4764417 C115.613306,42.6289161 114.738291,40.5792609 114.810886,40.4665931 C115.011733,40.1544334 116.638836,40.8900655 119.670898,40.0875489 C122.284328,39.3956191 124.285538,38.3932719 124.419114,38.3709609 C124.552689,38.34865 125.043433,40.0431206 125.667268,41.5142881 C126.16382,42.684524 126.893645,44.3233867 126.983179,44.4568652 C127.072229,44.5908761 127.072229,44.7468591 127.072229,44.7468591 L127.072229,44.7468591 Z M131.374709,45.4824429 C131.218388,45.2593818 129.749059,42.4846934 128.832907,40.666956 C127.272592,37.5686379 127.049967,34.8714329 126.53696,34.7145303 C126.307075,34.644984 123.772532,36.1418503 120.049846,36.9218624 C117.144583,37.5307916 113.227825,37.6576881 113.09425,37.6798055 C112.960191,37.7021164 112.893403,37.8578575 112.804353,38.0142277 C112.715303,38.1701624 112.558981,38.4377002 112.513972,38.504633 C112.469931,38.5717111 112.425406,38.7048024 112.403143,38.861705 C112.38088,39.0180752 112.425406,39.418656 112.469931,39.6190674 C112.514456,39.8194787 114.309979,43.5872221 114.68941,44.7245482 C115.068358,45.8618742 116.071624,48.6257701 116.383784,48.8043545 C116.69546,48.9824549 119.648152,49.9857217 124.530426,49.0052014 C128.038714,48.3006401 131.173862,46.4411362 131.530547,45.8168652 C131.530547,45.8168652 131.530547,45.7055524 131.374709,45.4824429 L131.374709,45.4824429 Z" id="path30" fill="#E51635"></path>
                        <path d="M42.9418017,33.0376761 C42.2536469,33.7776156 41.2791278,34.7774946 41.1237255,34.8035805 C40.9681296,34.82986 39.292195,34.3235805 38.5649355,34.0114692 C37.837434,33.6996967 35.8240765,32.7516023 35.7594183,32.6476459 C35.6945666,32.5434959 36.8373615,31.3099085 37.5648629,30.4266659 C38.2429513,29.6029999 39.3180873,28.4524131 39.4349173,28.4263272 C39.5517473,28.4002413 41.396345,29.2180997 42.1496904,29.4655528 C42.9030358,29.71228 44.7733322,30.4391523 44.8253104,30.4527518 C44.8772887,30.465819 43.6176638,32.3107554 42.9418017,33.0376761 L42.9418017,33.0376761 Z M49.734542,29.0124131 C49.488202,28.8169382 46.2800714,28.4573496 43.0198658,27.4056859 C40.6505011,26.6414996 37.7992489,25.0767326 37.6692066,25.1415844 C37.5393094,25.2066297 36.5127638,26.9632903 34.6686017,29.0027821 C32.8243912,31.0416447 32.6684565,30.6357887 32.4482025,31.8820077 C32.3962242,32.1770833 33.3049719,33.011929 34.8117112,33.9345182 C36.3184504,34.8568654 37.0840886,35.1674764 37.0840886,35.1674764 C37.0840886,35.1674764 37.4460971,34.9431086 38.2013784,34.8553651 C38.6428061,34.8045 40.0952924,35.2412332 40.578293,35.7140221 C41.2148568,36.3373252 41.5261938,37.0517595 41.8250927,36.9727274 C41.9924006,36.9292671 41.97159,36.6658914 41.9848507,36.4192126 C41.9980631,36.1722919 42.9943607,35.0514208 43.6957279,34.6356918 C43.9954012,34.4585593 44.3836892,34.6099931 45.0071858,34.4020318 C45.2062421,34.3356797 46.1032777,33.6944214 46.9941186,32.8038225 C48.3448748,31.4541795 49.8366594,29.0936714 49.734542,29.0124131 L49.734542,29.0124131 Z" id="path32" fill="#E51635"></path>
                        <path d="M118.111068,157.761642 C117.645974,159.002053 116.173742,159.234358 115.553778,159.312277 C114.93333,159.389712 112.492193,159.002053 107.68687,154.932845 C102.881062,150.863638 101.408346,149.701146 100.090984,149.158133 C98.7731373,148.615604 97.377856,148.344582 97.5327259,148.189228 C97.6880798,148.034358 99.9753151,147.423106 101.059405,147.298242 C103.423591,147.02722 104.776283,147.44924 104.776283,147.44924 C104.776283,147.44924 104.664002,151.057226 106.485176,152.607377 C109.637747,155.290982 115.243554,152.258919 115.243554,152.258919 C115.243554,152.258919 117.301388,154.576161 117.800844,155.668962 C118.421292,157.025525 118.111068,157.761642 118.111068,157.761642" id="path34" fill="#FCD006"></path>
                        <path d="M161.916511,132.194552 C161.916511,132.194552 160.641738,131.822864 159.686384,131.557165 C158.731514,131.291951 156.819839,130.86751 156.873075,130.761521 C156.925828,130.655048 160.907437,127.947728 162.287715,127.416815 C163.668477,126.885901 166.110099,125.876827 166.959463,125.664849 C167.808828,125.452386 168.976644,125.293161 168.976644,125.080699 C168.976644,124.868236 167.383904,124.231334 165.260734,123.328733 C163.13708,122.426615 161.013426,121.258315 161.013426,121.09909 C161.013426,120.939864 167.862549,120.302961 171.154019,119.931273 C174.445005,119.559586 178.638592,119.028672 179.700903,118.869447 C180.762246,118.710221 181.876825,118.39177 181.823589,118.550995 C181.770836,118.710221 181.399149,118.869447 180.284569,119.347123 C179.169506,119.825284 174.922682,122.426615 172.586566,124.072108 C170.250933,125.717601 166.322561,128.849846 164.782573,129.964909 C163.243553,131.079973 161.916511,132.194552 161.916511,132.194552" id="path36" fill="#FCD006"></path>
                        <path d="M141.64307,157.552083 C138.317722,155.719294 139.159827,153.54676 139.529579,153.236536 C139.898847,152.926312 141.465453,151.315665 144.849845,153.443674 C148.234237,155.571684 147.267268,157.042948 146.918327,157.581605 C146.43097,158.335628 144.851297,159.32002 141.64307,157.552083 L141.64307,157.552083 Z M121.972169,130.132362 C121.701146,130.636173 119.214032,133.318327 114.738291,136.167934 C114.738291,136.167934 119.892072,134.121715 122.517117,137.238472 C125.764546,141.093281 121.346397,145.29316 121.714214,145.941678 C123.843191,149.701146 134.801207,159.210643 148.625768,163.78463 C163.450692,168.690619 176.123892,163.807376 184.922439,156.560432 C198.04331,145.753414 195.191284,133.927643 195.191284,133.927643 C195.191284,133.927643 187.943371,139.430366 172.57737,136.524618 C157.562247,133.684691 156.707558,132.175193 144.461702,128.144703 C136.160674,125.412701 130.897516,120.867269 121.286869,121.138291 C103.561038,121.63823 99.2769485,127.920626 99.2769485,127.920626 C99.2769485,127.920626 99.5455511,130.168176 96.1379286,133.578702 C95.3045348,134.41258 93.2675113,136.601569 91.6012076,135.670898 C89.8715041,134.705381 94.8181464,128.686748 99.1966097,125.207498 C102.02589,122.959949 106.359828,121.217662 110.24174,120.518327 C122.720868,118.270777 129.890378,119.510705 142.371926,119.239682 C151.208224,119.047547 157.289772,119.548938 168.569627,118.537928 C175.18838,117.944583 181.43351,116.720142 181.43351,116.565272 C181.43351,116.410402 178.369989,115.526192 174.770232,114.317722 C169.459161,112.534782 159.123045,108.530911 148.938411,107.574589 C129.541437,105.752931 118.799755,107.032544 105.320264,112.457347 C92.8029015,117.49546 84.121474,127.687353 85.1702338,129.300904 C85.5109477,129.825042 86.3690239,129.509979 86.3690239,129.509979 C86.3690239,129.509979 89.0042325,127.455532 90.3220788,126.409676 C91.6399251,125.363336 95.2125808,123.320021 96.0987272,123.115302 C97.1039298,122.882998 97.8990901,123.180638 97.8816672,123.425042 C97.840046,124.006772 97.7418003,123.883844 95.2851761,125.207982 C91.8335125,127.068357 87.8151218,130.482755 86.2102822,132.420565 C85.120385,133.735992 80.230851,140.83823 83.4269792,142.762489 C89.0511774,146.148333 108.745793,137.265574 110.29546,136.526554 C114.370959,134.581001 118.145914,132.150027 122.285296,129.27961 C122.285296,129.27961 122.164304,129.776161 121.972169,130.132362 L121.972169,130.132362 Z" id="path38" fill="#FCD006"></path>
                        <path d="M142.499694,156.310704 C141.480456,155.556681 140.40169,154.744582 141.007135,154.079125 C141.613064,153.413668 143.164667,154.093644 143.830123,154.418871 C144.495096,154.744098 145.829397,155.823348 145.381727,156.502839 C144.982453,157.108768 143.519416,157.064243 142.499694,156.310704" id="path40" fill="#FCD006"></path>
                        <path d="M151.523771,52.4055643 C149.344945,44.0619469 144.356681,41.0492428 143.870293,40.2777001 C143.48941,39.6761757 140.89437,32.9359459 138.279972,29.6716266 C135.695096,26.4454924 133.320263,24.4196001 129.077311,21.9024314 C128.327643,21.4577611 128.99068,20.8711429 128.96261,20.4985355 C128.934056,20.1262669 127.973862,15.3064727 123.741074,11.3872471 C117.266059,5.39286133 114.026373,5.7654687 113.568055,5.3071989 C113.367692,5.10683593 114.91494,3.98896058 116.463639,4.13452863 C117.964909,4.2759394 122.743615,6.53507546 126.669083,12.0755956 C129.794068,16.4859524 130.374346,19.8585839 130.424679,20.0982935 C130.53938,20.6427581 130.711189,20.8150025 131.227099,20.4747242 C131.43327,20.3393582 131.673318,19.6113244 131.915302,19.7014877 C134.065574,20.4985355 140.008224,25.5588136 145.376887,33.344851 C149.288321,39.0171073 152.854201,48.1703557 153.674043,51.918208 C154.820565,57.1610391 153.702597,60.5396234 152.46993,60.915667 C151.117238,61.3289761 153.096669,58.4280687 151.523771,52.4055643" id="path42" fill="#FCD006"></path>
                        <path d="M103.023833,16.7502476 C102.495339,16.9481423 100.378945,17.1629276 97.6585578,14.0273439 C94.9342989,10.8877916 93.9547466,6.86857817 94.1536577,6.60239548 C94.3525687,6.33659996 94.6516613,8.62920729 98.7048977,11.7024075 C102.758134,14.7750269 103.588624,14.1105381 104.070173,14.9744703 C104.30393,15.3930547 103.821413,16.4511551 103.023833,16.7502476" id="path44" fill="#FCD006"></path>
                        <path d="M28.1363332,42.3506341 C28.03862,42.3259034 27.6211971,41.2955828 27.1060126,40.9766475 C26.5908765,40.6577122 26.5413182,40.9030843 26.0507193,40.3877546 C25.5601687,39.8721829 23.9904652,37.5631207 25.9278396,35.8968654 C26.983133,34.9890372 28.9951838,35.2586077 29.7807131,35.5285654 C30.563387,35.797797 31.1857221,36.8402169 30.8601565,37.4920741 C30.5656617,38.0805798 29.9275976,37.8357401 29.4861699,38.4488315 C29.0447422,39.0625036 28.9469805,39.7992489 28.6520501,40.437071 C28.3571681,41.0743607 28.1596121,41.2496057 28.21009,41.5409548 C28.308384,42.1052621 28.1363332,42.3506341 28.1363332,42.3506341" id="path46" fill="#FCD006"></path>
                        <path d="M21.7318809,36.5101503 C20.9222015,36.4365871 19.5723649,36.3382931 17.0693281,35.6269078 C14.5663396,34.915474 10.983811,33.9088195 10.983811,33.6144698 C10.983811,33.3730179 16.1562246,32.9161032 17.9039802,32.9524009 C20.2349662,33.0007977 22.9346395,34.0810155 23.3023104,35.0625521 C23.6700297,36.044137 22.541415,36.5842459 21.7318809,36.5101503" id="path48" fill="#FCD006"></path>
                        <path d="M32.750102,28.7560549 C32.750102,28.7560549 32.1372043,29.4432419 32.0143247,29.4432419 C31.8912515,29.4432419 31.0822981,27.2595274 30.1985231,26.4246817 C29.3146998,25.5904168 28.1373012,24.3141434 27.6707071,25.0013303 C27.2043066,25.6885172 29.3638226,26.890695 30.0510579,28.4123405 C30.7382448,29.9334536 31.2288437,30.9405437 31.2779666,32.60888 C31.3271378,34.2770711 31.3757282,34.1796967 31.2042581,34.2040887 C31.0325945,34.2277063 29.7064239,33.5917717 27.890574,33.6165509 C25.433853,33.6494123 25.3890859,34.3506343 25.1678639,34.3999507 C24.9466902,34.4493155 24.7003503,33.1992732 22.4190678,32.3160307 C20.6316268,31.624488 19.2538168,31.7256374 18.9592736,31.3819714 C18.6649239,31.0384505 18.6645367,29.2487349 19.2778217,27.4570834 C19.7027944,26.2161397 21.0692796,24.0702716 20.259939,23.7991525 C19.4126069,23.5150145 19.1797212,24.1683721 18.3214031,26.2528245 C17.7414152,27.660689 17.7079729,28.0440888 17.6096305,28.1421893 C17.5113365,28.2405317 17.1676705,28.2898481 16.9962004,28.1917476 C16.8245368,28.0934052 15.9167086,27.0131875 15.793829,26.8171318 C15.6709494,26.6211246 16.4073075,25.6643188 16.7016572,25.1977247 C16.9962004,24.7313726 17.6586081,23.529582 17.3642585,23.0384023 C17.0697152,22.5476582 16.8733208,22.4986806 16.7016572,22.7194671 C16.5301871,22.9401083 15.5909494,25.7433508 12.8001933,27.3327035 C9.60943715,29.1498601 5.93577723,27.0451294 5.58509363,23.9970956 C5.18151227,20.489824 8.6982212,16.722613 15.1066421,14.6429034 C22.1245246,12.3653959 26.2713605,15.187368 26.2713605,15.187368 C26.2713605,15.187368 32.7986925,11.6288442 45.2160666,12.9045853 C57.9232895,14.2097516 62.2698109,17.3710824 63.6699319,18.4261338 C65.0221399,19.4453232 65.190561,20.0707073 65.0192361,20.0213425 C64.8474273,19.9720261 62.9817286,18.9169263 61.5341787,20.2913486 C58.9357517,22.7576522 60.4297626,28.1179908 60.1843905,28.3150144 C59.9395024,28.5116024 59.2725938,28.1195395 58.516151,28.2656496 C57.239926,28.5119896 56.8014505,29.7413665 56.5531746,29.7137803 C56.1108274,29.6653834 55.7178449,27.5306466 53.7553526,27.7261215 C52.1611602,27.8849116 51.4240761,29.3952322 51.5082867,32.0207614 C51.57943,34.2417414 51.8165746,35.0886864 51.8165746,35.0886864 C51.8165746,35.0886864 50.810888,35.0886864 49.7800351,34.9661455 C48.7496661,34.8438467 47.4733442,34.5978939 47.4733442,34.5978939 C47.4733442,34.5978939 49.0439189,33.0028788 50.0254071,31.6530422 C51.0073792,30.3032539 52.2811844,28.2748934 52.1601923,27.8737319 C52.0866291,27.628747 50.7620072,28.1684687 44.4305857,26.2717477 C39.4496784,24.7797695 36.9948448,23.0644882 36.8231812,23.015559 C36.6517111,22.9661942 36.5046331,24.0454924 35.8174462,25.0763938 C35.1302593,26.1072468 34.4426852,27.0891705 34.3447299,27.0891705 C34.2470167,27.0891705 34.1235563,24.666908 33.3248147,23.0892674 C32.4797572,21.4205439 31.5757524,20.1979426 31.0813785,20.586037 C30.3941916,21.1258071 31.7931511,23.0892674 32.4311668,24.8557526 C32.8820802,26.103859 32.750102,28.7560549 32.750102,28.7560549" id="path50" fill="#FCD006"></path>
                        <path d="M64.9025997,17.0667146 C64.9025997,17.0667146 62.8742876,15.5552325 54.6545661,12.9461582 C50.3385347,11.5760917 45.170138,10.710272 36.9092308,11.1656864 C29.5352927,11.5721231 27.2633024,13.2898726 26.6589225,13.4015726 C26.1002776,13.5051902 22.8066298,10.7785115 14.6302235,13.0085417 C8.02366586,14.8100178 6.76099197,17.5017056 5.85016319,17.9359705 C5.63087705,18.0405077 4.35949656,12.8431213 14.484065,10.1720506 C17.2570595,9.44077411 22.5158615,9.96917095 24.6300296,10.6066543 C26.3485051,11.1244522 26.6595033,11.4936718 26.8041131,11.5180638 C27.0521469,11.5596851 27.3839074,11.5174831 27.3839074,11.3519174 C27.3839074,11.186497 27.404718,10.8964547 27.404718,10.8964547 C27.404718,10.8964547 32.5814874,8.57737426 40.1179905,8.70180257 C47.6544453,8.82618248 55.6476695,10.3376646 61.5283711,13.1121594 C64.4592845,14.4948575 64.6552918,14.7682029 64.7588611,14.9962005 C64.8624303,15.224198 65.0066529,15.8856862 64.9858423,16.1762609 C64.9650316,16.4660613 64.9025997,17.0667146 64.9025997,17.0667146" id="path52" fill="#FCD006"></path>
                        <path d="M113.530306,27.5242098 C113.365756,26.9126188 114.632786,26.7668475 115.043675,25.6425886 C115.469084,24.4791766 115.295823,23.8053957 115.281788,23.6753049 C115.238231,23.2639317 114.395157,21.6209069 115.324861,21.5989831 C116.32716,21.5753655 117.231697,25.2945184 115.973863,26.9400114 C114.84912,28.410453 113.681788,28.0860489 113.530306,27.5242098 Z M143.714939,44.691106 C143.668478,45.4945421 143.42601,46.7243062 143.074165,46.6980267 C142.485175,46.6545663 142.882997,43.9226123 142.166724,41.3647419 C140.636415,35.8983657 139.601206,33.6121952 136.68094,30.1071983 C131.462308,23.8431936 125.980396,22.3975312 126.097033,22.0742402 C126.26013,21.6231816 127.383905,21.1004471 127.383905,21.1004471 C127.383905,21.1004471 127.456016,19.1142887 125.136355,15.7662428 C120.739985,9.42243171 115.28082,7.47634585 113.626615,7.17633376 C112.837747,7.03303068 110.555351,7.50983647 108.575436,9.04246801 C107.319054,10.0147608 106.264002,12.0852266 106.275133,13.3323651 C106.279489,13.847356 107.907075,14.5780517 109.203143,15.4546639 C110.433391,16.286509 110.961401,17.7384146 110.406289,18.1792615 C109.760675,18.6927037 109.047789,17.0924134 108.150512,16.5250571 C107.25275,15.9578943 105.843434,15.2329095 105.770838,15.4903807 C105.655654,15.8973983 105.691467,16.3125949 104.976646,17.0198181 C104.406047,17.5850933 103.886265,18.0104533 103.886265,18.0104533 C103.886265,18.0104533 105.186688,18.3191768 106.443071,19.7086504 C107.429882,20.8004351 107.536839,23.1873678 106.443071,25.1208221 C105.487233,26.8099691 103.341316,28.07545 103.010766,28.07545 C102.679731,28.07545 102.818146,27.3916509 103.054807,27.0137682 C103.290984,26.6356436 103.638473,26.5450931 104.23085,26.0762728 C104.816936,25.6125341 106.265938,23.7052142 105.788261,21.7869081 C105.475617,20.5329456 104.364426,19.6016934 102.099453,19.6990195 C100.303446,19.7759705 99.3940689,20.2429517 97.7727743,21.2645609 C97.5917701,21.3793098 97.3091325,21.1949662 97.5922541,20.5221531 C97.7901972,20.0533328 98.6361742,19.2594793 98.6361742,19.2594793 C98.6361742,19.2594793 97.8424658,19.80738 97.6062892,19.9491344 C97.3696285,20.0909372 97.1963678,20.250308 97.1963678,20.250308 C97.1963678,20.250308 96.7269183,21.2148573 96.377977,22.2640527 C96.1098585,23.0694247 96.2424658,24.6513726 96.2424658,24.6513726 C96.2424658,24.6513726 98.2020544,23.8625039 100.312157,22.883 C102.789592,21.7326552 104.208104,21.5579426 104.886144,21.9886262 C105.5637,22.4198421 103.907075,24.2598905 103.214033,25.8448874 C102.629882,27.1797694 102.134299,29.4897512 102.417904,29.5698964 C102.792496,29.6765147 103.390681,28.6146393 107.619598,26.5354621 C109.066664,25.8240768 112.494129,24.4220684 112.971806,24.5545789 C113.42722,24.6814271 113.079247,28.0077912 111.488442,32.1975068 C110.804111,34.0006767 108.150028,36.4437982 108.345067,36.8048388 C108.354262,36.8207613 109.929096,36.795595 109.929096,36.6630844 C109.929096,36.6891703 109.918933,36.200846 110.14059,35.9995151 C110.297396,35.8577124 111.098848,35.4990917 111.636053,35.6805799 C112.500905,35.9728485 114.233996,36.1921346 119.235811,35.5040282 C123.924498,34.8588013 127.82722,31.766678 127.887716,32.3111426 C128.101146,34.2311425 128.755472,37.3251049 130.258678,40.3251775 C132.541074,44.8809184 133.903929,45.9193697 133.780033,46.1904405 C133.408345,47.0044755 130.170596,49.2355705 126.631334,50.1449473 C122.500178,51.2067743 120.14422,50.780882 119.957892,51.1128844 C119.802054,51.3921342 122.283361,55.0780386 125.729216,55.6563809 C128.471866,56.116635 129.763578,54.824923 130.22238,55.0044753 C130.381122,55.0664233 130.076706,56.0174215 129.330426,56.5856005 C128.10889,57.5143361 126.472592,57.408347 126.472592,57.408347 C126.472592,57.408347 126.242707,63.052388 130.506954,67.1753159 C132.981001,69.5670884 139.105139,70.9067133 144.150027,67.9186916 C150.972531,63.8775544 150.831696,58.6748927 149.63581,52.37943 C148.696427,47.434772 145.403021,44.1069075 143.821412,42.7886741 C143.449724,42.4788374 143.762368,43.8872342 143.714939,44.691106 L143.714939,44.691106 Z" id="path54" fill="#FCD006"></path>
                        <path d="M116.356682,149.35172 C116.356682,149.35172 111.309858,153.609192 108.161159,151.688804 C104.869689,149.680819 107.00883,144.381848 110.23448,141.188623 C113.395278,138.060735 117.668721,136.32232 119.908043,137.339621 C122.511794,138.522925 121.951842,140.826615 121.951842,140.826615 C121.951842,140.826615 120.520263,138.327401 118.035569,138.390801 C114.184631,138.490015 111.09062,142.93333 111.09062,142.93333 C111.09062,142.93333 111.688805,143.152084 112.998908,143.361158 C114.047184,143.528611 114.941558,143.821896 114.941558,143.821896 C114.941558,143.821896 113.485297,144.357165 112.306349,144.6761 C111.088684,145.005199 109.839562,145.402053 109.839562,145.402053 C109.839562,145.402053 108.677553,147.82238 110.563579,149.38463 C112.670294,151.128853 116.356682,149.35172 116.356682,149.35172" id="path56" fill="#FFFFFF"></path>
                        <path d="M124.894855,43.94623 C124.814032,44.1494484 123.30889,44.7192729 121.498848,44.9833746 C119.688805,45.2476698 118.386446,45.1663631 118.162852,45.044403 C117.938775,44.9224913 117.613548,44.3528604 117.349301,43.7023583 C117.085055,43.051469 116.820808,41.9532476 116.820808,41.8309487 C116.820808,41.7088435 117.450935,42.054397 119.911915,41.3634351 C122.373379,40.6716989 123.247426,40.6310456 123.410039,40.6716989 C123.572653,40.7123523 123.999997,41.6271496 124.285054,42.3593456 C124.570112,43.0921223 124.894855,43.94623 124.894855,43.94623" id="path58" fill="#FFFFFF"></path>
                        <path d="M140.723529,96.1122783 C140.723529,96.1122783 140.309736,96.1524477 140.159222,96.1650309 C139.977734,96.1800339 139.554261,96.1877774 139.554261,96.1877774 C139.554261,96.1877774 138.147365,95.3708385 137.557891,95.1138512 C136.967934,94.8568639 135.947728,94.2431918 135.954504,94.0854181 C135.969507,93.7374447 136.861945,93.7679347 139.221291,93.4349644 C141.530789,93.1097375 143.04803,92.0687212 142.957044,91.257106 C142.821049,90.0471847 140.703687,88.0416191 137.118932,87.1491811 C133.534661,86.2567432 127.515544,85.0414982 125.745671,85.0260112 C125.06376,85.0206875 125.261703,84.5725327 125.503687,84.4365375 C125.745671,84.3000584 127.383905,83.060131 127.444401,82.4701734 C127.504897,81.8802157 126.898968,80.8953398 125.065212,80.3678141 C122.962852,79.7628534 119.817057,79.6873543 119.197093,79.7178443 C118.57713,79.7478504 118.57713,79.4758601 118.652629,79.3093749 C118.728128,79.1428897 120.029035,78.1449466 120.119537,77.3280077 C120.210523,76.5115528 119.8248,75.2077416 114.115424,74.6105245 C105.252992,73.6832407 102.409677,73.6125813 102.39419,73.2747713 C102.379187,72.9422849 103.277432,73.0584374 107.249362,72.7757998 C110.863639,72.5188125 117.017299,73.1605547 119.409071,74.2577114 C123.099331,75.9516012 121.063276,78.4798528 121.057468,78.6289152 C121.042465,79.0523876 125.019719,78.6134282 126.108648,78.9463985 C127.688321,79.4289151 129.18814,81.04537 128.755472,82.3946743 C128.377492,83.5741056 127.742042,83.8765859 127.712036,83.9975781 C127.681546,84.1185702 131.373741,83.9148194 136.04549,84.9810021 C138.828309,85.6159688 142.700057,87.4763439 143.909978,89.9111895 C144.878883,91.8620667 143.441013,93.5259505 141.384146,94.055412 C139.32728,94.5843896 138.582453,94.4958234 138.525828,94.5998766 C138.434842,94.7658778 139.11869,94.9555935 139.448272,95.1593443 C140.022743,95.5145772 140.723529,96.1122783 140.723529,96.1122783" id="path60" fill="#FFFFFF"></path>
                        <path d="M68.758377,95.6433128 C68.758377,95.6433128 69.0836038,95.6660593 69.4615833,95.6660593 C69.8429505,95.6660593 70.3845112,95.6433128 70.3845112,95.6433128 C70.3845112,95.6433128 68.8140334,94.2741658 69.5864471,93.0981223 C70.3593449,91.9215948 72.8619462,91.8407721 74.0723514,91.7943111 C75.247427,91.748818 75.6810628,91.9937061 75.7914077,91.7831798 C75.9177234,91.5407116 75.3911657,91.3292173 75.1104639,90.7682978 C74.8336339,90.2146378 75.0209298,88.934541 77.4519037,88.4849343 C81.5704759,87.7236518 85.1808811,87.6883221 85.8729561,87.6539603 C86.5645471,87.6195985 86.8994534,87.458437 86.8994534,87.3776143 C86.8989694,87.135146 86.7547468,87.305019 84.2463379,87.089169 C82.1013894,86.904293 78.2514197,86.8689633 76.4384736,87.227584 C74.0515408,87.7004213 73.6343599,88.5885035 73.5893509,89.1992718 C73.5535372,89.6846923 73.7393811,90.5950371 73.6817888,90.6642446 C73.6241966,90.7334521 69.696792,89.8177836 68.4563806,91.6558961 C66.8534769,94.0321816 68.758377,95.6433128 68.758377,95.6433128" id="path62" fill="#FFFFFF"></path>
                        <path d="M93.9649099,41.6615598 C91.4453698,36.7787529 90.856864,33.414252 90.8210504,33.2336834 C90.7765253,33.0106223 89.6643656,34.5733083 89.550149,36.9345423 C89.3720486,40.635982 90.3307902,44.1810515 89.550149,44.4487345 C88.8096772,44.7022372 85.7151824,38.6507431 84.8677535,36.9785835 C84.0203246,35.3064722 80.4089514,28.8407494 80.9882617,28.3494246 C81.6498467,27.7885051 84.3774934,33.0095092 85.1353881,34.258148 C85.859889,35.4516628 87.9003003,39.096333 87.9003003,39.096333 C87.9003003,39.096333 87.8335126,35.1050929 88.5023571,33.7897148 C89.1712016,32.4742884 90.0859022,30.7798177 90.9996347,30.9584989 C91.9138513,31.1365509 91.3117945,31.7387046 91.8025385,33.2104529 C92.2927987,34.6822012 94.8128228,40.32329 95.6820303,41.7950383 C96.5512378,43.2667866 99.8291566,48.0828542 99.7401064,48.8188736 C99.6675111,49.4170587 96.2603727,46.1095209 93.9649099,41.6615598" id="path64" fill="#FFFFFF"></path>
                        <path d="M48.4839673,64.3566832 C47.4134289,66.2882016 44.2037013,72.6054428 44.0123885,72.6243176 C43.8208821,72.6431924 43.6834351,69.5482136 43.6645603,68.2289154 C43.6456371,66.9101012 43.6082264,65.1126421 43.5123522,65.0550498 C43.4163329,64.9974575 41.5418743,66.7954006 40.203411,68.1146988 C38.8649476,69.4339971 37.1823826,71.2120974 36.8377486,71.9966104 C36.4933082,72.7806394 36.0726912,74.0399256 35.7285895,73.9436158 C35.2508642,73.8100405 35.1553772,72.3402281 35.1936107,70.4280684 C35.231941,68.5159088 35.3467384,67.9230473 35.1741068,67.8083468 C35.0017172,67.6941302 32.870707,68.7051404 31.1394064,69.5104641 C28.9596605,70.5243782 26.1102958,72.3600708 25.938245,72.3213533 C25.7293641,72.2753763 27.8886865,69.4722306 28.634482,67.865939 C29.5141432,65.9721702 30.2981239,64.2332712 30.0495092,64.1369615 C29.800943,64.0411357 28.6350628,64.5768889 27.1623466,65.0932833 C25.6896787,65.6091938 24.1218627,66.2020552 24.0071137,66.0684799 C23.8921712,65.9344206 25.7817295,63.8499682 26.6617295,62.4735617 C27.5417779,61.0966712 27.841064,60.8256488 27.841064,60.6344812 C27.841064,60.4428297 27.6018868,60.1984256 27.4109612,60.1790669 C27.2200356,60.1597081 26.0148088,60.0827571 25.039709,60.0638823 C24.0647544,60.0450076 22.9559825,60.1403494 22.821778,60.0256488 C22.6875251,59.9109483 24.6332238,57.6512992 26.1295577,56.1824547 C28.2522437,54.0980023 29.9928365,53.2762237 30.05009,53.1803979 C30.1071983,53.0840882 29.0176883,52.5009061 27.6788378,51.8799745 C24.7527157,50.5219588 24.1984265,50.7518439 24.1413182,50.5219588 C24.10202,50.364669 26.6139134,49.6029026 28.4246333,48.9698717 C30.77643,48.1480448 32.7079484,48.0180024 33.224246,47.9603134 C33.74035,47.9022856 32.7454075,47.425141 32.4208098,47.2338282 C32.0960186,47.0423219 31.4645848,46.7755584 31.4645848,46.6405796 C31.4645848,46.3728966 35.7786803,44.2418864 39.390489,43.9316625 C43.1771556,43.6065325 46.5466413,44.1056008 48.3883351,45.0729571 C48.7516019,45.2637375 48.7327272,45.5506825 48.3694604,45.684161 C47.9091095,45.85355 47.2971313,45.0009426 41.8670528,45.1300654 C37.029255,45.2448144 33.5682992,46.5452862 33.4151716,46.7169498 C33.2838225,46.8646086 34.7341794,47.3674519 35.3656132,47.6926304 C35.9970469,48.0180024 36.7806403,48.2662299 36.7040765,48.6102831 C36.6186561,48.9950381 35.2947118,48.919539 33.9316628,49.0690853 C32.1914572,49.2607368 27.7170229,50.3893514 27.6211971,50.503568 C27.525323,50.6182685 28.9596605,51.3074397 29.6670773,51.7086496 C30.3746877,52.1098596 31.0634233,52.549787 31.2736108,52.5880205 C31.4838468,52.626254 31.8441613,52.795643 31.8663271,52.9703556 C31.9239677,53.4286738 31.4838468,53.5051408 31.2736108,53.6392001 C31.0634233,53.7727754 30.3308401,54.4483955 28.0040162,56.2782805 C26.5696787,57.4064111 25.2122922,58.7837856 25.1357283,58.9173609 C25.0591645,59.0509362 26.3397937,59.0891697 27.3343974,59.1274032 C28.3288075,59.1656368 28.8458311,59.223229 29.1133689,59.3568043 C29.3806647,59.4908636 29.6670773,59.6050802 29.6483477,59.930307 C29.6294729,60.2555339 29.1511668,60.9437371 28.3102715,62.052993 C27.6930181,62.8670281 26.5124252,64.0996959 26.5507555,64.2139125 C26.5889891,64.328613 27.4491463,63.9849954 28.5966841,63.6404098 C29.7442219,63.2958242 31.1144336,62.6492422 31.439612,62.8980021 C31.7647905,63.1462779 31.6239557,64.2352071 30.8151958,65.8390788 C29.6865328,68.0764653 28.440701,69.6406516 28.5745667,69.7369614 C28.7082388,69.8327871 30.7004469,68.5541423 32.0199871,67.8277055 C33.3395757,67.1012687 35.5735744,65.8995749 35.8221891,65.9378084 C36.0708037,65.9760419 36.5141189,66.9096172 36.4564298,67.7701132 C36.3987892,68.6306093 36.2462423,70.1986673 36.3416809,70.2562596 C36.4371679,70.3138518 38.7505858,67.5794296 39.8026366,66.6419826 C40.8546874,65.7050195 41.9436166,64.8445235 42.4603014,64.4239548 C42.9767926,64.0033862 43.7987648,63.1999984 43.9900775,63.0277056 C44.1815839,62.8558968 44.6022493,62.8936463 44.6976879,63.2382319 C44.7929813,63.5828175 44.7164175,65.2849348 44.6976879,65.8584376 C44.6788132,66.4314563 44.7355343,68.0382318 44.83136,68.1146988 C44.9274278,68.1911659 45.9217895,66.2020552 46.8967441,64.7874152 C47.5688312,63.8122186 49.0385953,61.4596476 49.4591639,60.7520856 C49.8797326,60.0445236 50.5587404,59.1225636 50.7789461,59.2604946 C51.3911663,59.6433137 49.5128844,62.5006639 48.4839673,64.3566832" id="path66" fill="#FFFFFF"></path>
                        <path d="M41.513175,32.4529453 C41.2012089,32.8556072 40.746956,33.3227336 40.6429512,33.3879725 C40.5389948,33.4533567 39.7342035,33.0370954 39.3702591,32.9200718 C39.0063632,32.8034354 37.9155465,32.4137923 37.837434,32.3228546 C37.7618381,32.2341916 38.4348448,31.5562485 38.668892,31.2445243 C38.9027455,30.9333326 39.6561394,30.0888559 39.7988617,30.0757887 C39.8565023,30.0709006 40.7601684,30.4652382 41.2535743,30.6212213 C41.7470286,30.7775431 42.2016686,30.9851172 42.344391,31.1278879 C42.4115174,31.1951595 41.8250927,32.049848 41.513175,32.4529453" id="path68" fill="#FFFFFF"></path>
                        <path d="M50.2659395,46.0021767 C49.9532958,46.1584985 49.0836043,47.8926546 49.3275245,49.5767683 C49.5714446,51.2614627 50.5398656,54.4672703 50.8249231,55.409073 C51.1153042,56.3692666 51.4405311,57.5641849 51.6355704,57.5888673 C51.8310937,57.6135497 52.4781596,56.6823942 52.4781596,56.3692666 C52.4781596,55.9545056 51.4124609,53.0022975 51.1685408,51.8310937 C50.9246206,50.6594059 50.2659395,46.0021767 50.2659395,46.0021767" id="path70" fill="#FFFFFF"></path>
                        <path d="M131.760432,7.38202038 L131.760432,6.35358726 L132.419597,6.35358726 C132.699815,6.35358726 132.904534,6.39462779 133.033753,6.47801557 C133.162489,6.560629 133.227341,6.69183286 133.227341,6.87177236 C133.227341,7.06008452 133.164909,7.19220793 133.040045,7.26785221 C132.914697,7.34383527 132.694492,7.38202038 132.37846,7.38202038 L131.760432,7.38202038 Z M131.760432,4.44759336 L131.215968,4.44759336 L131.215968,7.83535371 L132.375072,7.83535371 C132.78451,7.83535371 133.073923,7.80302461 133.243312,7.73667252 C133.412217,7.67148196 133.547728,7.56200828 133.649361,7.40868705 C133.750995,7.25459147 133.802296,7.09163927 133.802296,6.9188625 C133.802296,6.65950377 133.712277,6.43963686 133.533693,6.26114927 C133.355109,6.08251648 133.125224,5.9822866 132.844522,5.95963687 C132.970354,5.9068843 133.087474,5.82030233 133.198303,5.6993102 C133.308164,5.57831807 133.449482,5.38037494 133.621775,5.10586799 L134.029277,4.44759336 L133.36382,4.44759336 L133.068599,4.9765516 C132.855169,5.35709605 132.687232,5.60343604 132.565756,5.71576513 C132.443796,5.82843301 132.281182,5.88457336 132.077916,5.88457336 L131.760432,5.88457336 L131.760432,4.44759336 Z M132.465574,8.77342991 C131.750269,8.77342991 131.139017,8.51687819 130.631334,8.00285521 C130.123651,7.48883224 129.870051,6.87085282 129.870051,6.14698109 C129.870051,5.4210283 130.123167,4.80187768 130.628914,4.29144091 C131.135629,3.78024915 131.747849,3.52521709 132.465574,3.52521709 C133.181364,3.52521709 133.791648,3.78081539 134.297879,4.29332839 C134.80411,4.80584622 135.05771,5.42383532 135.05771,6.14698109 C135.05771,6.87085282 134.803626,7.48883224 134.295943,8.00285521 C133.78826,8.51687819 133.17846,8.77342991 132.465574,8.77342991 L132.465574,8.77342991 Z M132.465574,9.2872593 C133.025042,9.2872593 133.54676,9.14603728 134.031697,8.86436759 C134.516149,8.58269791 134.898968,8.19949163 135.180154,7.71494234 C135.46134,7.23039304 135.602174,6.70790062 135.602174,6.14698109 C135.602174,5.58359333 135.461824,5.05993938 135.18209,4.57690491 C134.902356,4.09388012 134.520505,3.71199991 134.035568,3.43183053 C133.551116,3.1516563 133.027946,3.01119412 132.465574,3.01119412 C131.900783,3.01119412 131.375677,3.15071256 130.891709,3.42937197 C130.406772,3.70859761 130.024921,4.09047782 129.745187,4.57501743 C129.465454,5.05935862 129.325587,5.58359333 129.325587,6.14698109 C129.325587,6.71070764 129.465937,7.23474876 129.747123,7.71929805 C130.027825,8.20384734 130.410644,8.58666645 130.895581,8.86683583 C131.380517,9.14700522 131.903687,9.2872593 132.465574,9.2872593 L132.465574,9.2872593 Z" id="path72" fill="#1967B8"></path>
                        <path d="M99.0354482,81.906834 C99.0354482,81.906834 98.084934,81.8782799 98.0747707,81.8782799 C98.0597677,81.8782799 97.9837846,81.8811837 97.9837846,81.8811837 C96.0754967,81.9624904 94.8384731,81.9789453 94.1372027,81.9789453 C93.28687,81.9789453 92.8551701,81.6856604 92.8551701,81.106834 C92.8551701,80.845491 92.9679348,80.2361746 94.0012076,80.2361746 C94.4067732,80.2361746 94.9071967,80.1964892 95.0944925,80.1500282 C95.9065917,79.9777354 96.0779165,79.7376871 96.1379286,78.7160295 C96.2052003,77.6387155 96.2052003,76.7017525 96.2052003,71.5024786 L96.2052003,67.2295204 C96.2052003,63.6820311 96.071141,60.8343602 94.3888664,59.1525696 C92.8701731,57.6362962 90.8626717,57.4722309 90.0694472,57.4722309 C88.8987274,57.4722309 87.519417,57.623229 86.1570456,58.7441002 C84.6785218,59.9506337 83.6946138,61.7689035 83.6946138,66.7169977 L83.6946138,71.5024786 C83.6946138,76.7017525 83.6946138,77.6387155 83.7614014,78.7136096 C83.829157,79.8790059 84.0706573,80.0503307 84.5691449,80.1432527 C84.9572877,80.2066526 85.1305484,80.2361746 85.4543233,80.2361746 C86.4880801,80.2361746 86.5679349,80.9016314 86.5679349,81.106834 C86.5679349,81.9789453 85.5757994,81.9789453 85.2500886,81.9789453 L82.737808,81.9203851 L81.0468219,81.8777959 L74.4842087,81.8753761 L72.5352674,81.9324843 L70.9546262,81.9789453 C69.9871731,81.9789453 69.8419825,81.4325448 69.8419825,81.106834 C69.8419825,80.4094354 70.4856607,80.2666647 70.7286129,80.2129442 C70.7339365,80.2119762 70.7450678,80.2090724 70.7557151,80.2066526 C70.7610388,80.1877778 70.7682983,80.154384 70.7682983,80.077433 C70.7682983,79.7318794 70.0055639,78.8350857 69.3318797,78.0423453 L69.188141,77.8729563 C68.6025391,77.1866889 66.5693873,75.0765861 64.7767679,73.2142752 C64.0425876,72.4525088 63.3703553,71.7546262 62.8491212,71.2072577 C62.8491212,71.2861446 62.8491212,71.4768282 62.8491212,71.4768282 C62.8491212,76.6882013 62.8491212,77.6280682 62.9163929,78.708286 C62.9831805,79.87707 63.2251648,80.0488788 63.7231684,80.1408328 C64.1021158,80.2042327 64.2797322,80.2342388 64.5793087,80.2342388 C65.5738641,80.2342388 65.6246808,80.9606755 65.6246808,81.106834 C65.6246808,81.6856604 65.1924969,81.9789453 64.3416802,81.9789453 L61.9155459,81.9203851 L60.1935859,81.8753761 L58.6797324,81.9121577 C57.7035678,81.9426477 56.4902587,81.9789453 55.3950379,81.9789453 C54.0786435,81.9789453 54.0786435,81.3222 54.0786435,81.106834 C54.0786435,80.8440391 54.1899563,80.2342388 55.2237131,80.2342388 C55.7125213,80.2342388 56.2274638,80.1974572 56.4234711,80.1476084 C57.2297626,79.9767675 57.4117348,79.7222001 57.4722309,78.7097379 C57.5399865,77.6266163 57.5399865,76.6882013 57.5399865,71.4768282 L57.5399865,65.4451284 C57.5399865,62.3182078 57.5399865,59.6186313 57.3715654,58.2141546 C57.2370222,57.2360542 57.0937675,56.8687221 56.8266168,56.8145176 C56.4360542,56.7274033 56.0822733,56.6877179 55.7042938,56.6877179 C54.671505,56.6877179 54.5916502,56.0469435 54.5916502,55.8509363 C54.5916502,55.578462 54.7126423,54.9444632 55.840773,54.9444632 C56.6291577,54.9444632 57.6580748,54.9773731 58.5655158,55.0068952 L60.1597081,55.0475485 L61.698728,55.010283 C62.6952192,54.9807609 63.9361146,54.9444632 65.0952192,54.9444632 C66.2504521,54.9444632 66.3094962,55.6994541 66.3094962,55.8509363 C66.3094962,56.254566 65.9929808,56.6877179 65.298002,56.6877179 C64.8798532,56.6877179 64.1432531,56.7554735 63.7004219,56.8203253 C63.5102222,56.8508153 63.0383529,56.9272823 62.9512386,58.1517227 C62.8491212,59.6045962 62.8491212,62.3114322 62.8491212,65.4451284 C62.8491212,65.4451284 62.8491212,66.3312748 62.8491212,67.1922548 C63.6607365,66.2964291 75.9041723,52.7733804 75.9041723,52.7733804 L75.9283708,52.7525698 C77.4460961,51.4076212 78.4822727,50.5718076 80.492194,50.3859637 C81.2365376,50.3157882 81.8661807,50.3157882 82.9081649,50.3157882 L85.8908629,50.3157882 C86.2702943,50.3157882 87.2784007,50.3157882 87.2784007,51.2227452 C87.2784007,51.6404101 86.966241,52.0609787 86.2678744,52.0609787 C86.0234703,52.0609787 85.351238,52.225528 84.2003609,52.6857821 C82.5553518,53.3260725 80.9926175,54.6961874 79.6796108,55.9545056 C79.6529926,55.9830597 75.7115529,60.2627934 75.7115529,60.2627934 C75.7105849,60.2652133 68.0130655,68.5439789 66.2465803,70.4421035 C67.8451284,72.095824 72.2323031,76.4999376 73.2525088,77.4359327 C74.7078021,78.76975 76.3165135,80.1330893 77.2186309,80.1330893 C77.6512987,80.1330893 78.0481529,80.0246804 78.123652,78.7160295 C78.1918916,77.6377476 78.1918916,76.7003006 78.1918916,71.5024786 L78.1918916,66.513247 C78.1918916,62.0316984 79.2179049,59.0189943 81.4218975,57.0352073 C84.1897136,54.5311541 87.8306088,54.5311541 89.3860837,54.5311541 C91.4603728,54.5311541 94.1846316,54.8263749 96.8633975,57.1295811 C99.8911046,59.7226845 100.307318,63.8117346 100.307318,67.8451284 L100.307318,71.5024786 C100.307318,76.7017525 100.307318,77.6387155 100.375073,78.7136096 C100.440893,79.8790059 100.682393,80.0503307 101.179913,80.1432527 C101.569023,80.2066526 101.743736,80.2361746 102.067511,80.2361746 C103.094976,80.2361746 103.246942,80.7820911 103.246942,81.106834 C103.246942,81.6856604 102.81621,81.9789453 101.966846,81.9789453 C101.097154,81.9789453 99.9061076,81.937808 99.0354482,81.906834" id="path74" fill="#FFFFFF"></path>
                    </g>
                </g>
            </g>
        </g>
    </g>
</svg>