<?xml version="1.0" encoding="UTF-8"?>
<svg width="200px" height="200px" viewBox="0 0 200 200" version="1.1" xmlns="http://www.w3.org/2000/svg" xmlns:xlink="http://www.w3.org/1999/xlink">
    <!-- Generator: Sketch 51.3 (57544) - http://www.bohemiancoding.com/sketch -->
    <title>loyola-il</title>
    <desc>Created with Sketch.</desc>
    <defs>
        <polygon id="path-1" points="0.00427350417 139.478629 55.6940157 139.478629 55.6940157 110.448715 46.8094005 110.448715 46.8094005 29.0811959 63.7923061 29.0811959 63.7923061 53.7683747 99.3427326 53.7683747 99.3427326 0.0477777766 0.00427350417 0.0477777766 0.00427350417 29.0811959 8.89230747 29.0811959 8.89230747 110.448715 0.00427350417 110.448715"></polygon>
    </defs>
    <g id="loyola-il" stroke="none" stroke-width="1" fill="none" fill-rule="evenodd">
        <g id="loyola-il_BGL" transform="translate(0.000000, 19.000000)">
            <g id="loyola-il">
                <g id="g10" transform="translate(99.999998, 81.401714) scale(-1, 1) rotate(-180.000000) translate(-99.999998, -81.401714) translate(0.000000, 0.632485)">
                    <g id="g12">
                        <path d="M155.835039,160.892304 L78.6732459,160.892304 L78.6732459,110.396578 L87.5598269,110.396578 L87.5598269,50.4984603 L78.6732459,50.4984603 L78.6732459,39.7649563 L78.6732459,10.7315382 L78.6732459,0 L89.4059807,0 L188.74444,0 L199.476063,0 L199.476063,10.7315382 L199.476063,64.4521351 L199.476063,75.1856391 L188.74444,75.1856391 L153.194013,75.1856391 L146.944441,75.1856391 L146.944441,110.396578 L155.835039,110.396578 L155.835039,121.132476 L155.835039,150.162389 L155.835039,160.892304 Z M145.095723,150.162389 L145.095723,121.132476 L136.211108,121.132476 L136.211108,39.7649563 L153.194013,39.7649563 L153.194013,64.4521351 L188.74444,64.4521351 L188.74444,10.7315382 L89.4059807,10.7315382 L89.4059807,39.7649563 L98.2940146,39.7649563 L98.2940146,121.132476 L89.4059807,121.132476 L89.4059807,150.162389 L145.095723,150.162389 Z" id="path14" fill="#511D20" fill-rule="nonzero"></path>
                        <g id="g16" transform="translate(89.401707, 10.683760)">
                            <g id="g18-Clipped">
                                <mask id="mask-2" fill="white">
                                    <use xlink:href="#path-1"></use>
                                </mask>
                                <g id="path20"></g>
                                <g id="g18" mask="url(#mask-2)" fill-rule="nonzero">
                                    <polygon id="path24" fill="#FDDD4E" points="0.00427350417 139.015381 99.3427326 139.015381 99.3427326 139.55992 0.00427350417 139.55992"></polygon>
                                    <polygon id="path26" fill="#FDDD4E" points="0.00427350417 138.470937 99.3427326 138.470937 99.3427326 139.015808 0.00427350417 139.015808"></polygon>
                                    <polygon id="path28" fill="#FDDD4E" points="0.00427350417 137.925638 99.3427326 137.925638 99.3427326 138.470176 0.00427350417 138.470176"></polygon>
                                    <polygon id="path30" fill="#FDDD4E" points="0.00427350417 137.381193 99.3427326 137.381193 99.3427326 137.925732 0.00427350417 137.925732"></polygon>
                                    <polygon id="path32" fill="#FDDD4E" points="0.00427350417 136.836749 99.3427326 136.836749 99.3427326 137.38162 0.00427350417 137.38162"></polygon>
                                    <polygon id="path34" fill="#FDDD4E" points="0.00427350417 136.292304 99.3427326 136.292304 99.3427326 136.836843 0.00427350417 136.836843"></polygon>
                                    <polygon id="path36" fill="#FDDD4E" points="0.00427350417 135.74786 99.3427326 135.74786 99.3427326 136.292398 0.00427350417 136.292398"></polygon>
                                    <polygon id="path38" fill="#FDDD4E" points="0.00427350417 135.202561 99.3427326 135.202561 99.3427326 135.747433 0.00427350417 135.747433"></polygon>
                                    <polygon id="path40" fill="#FDDD4E" points="0.00427350417 134.658116 99.3427326 134.658116 99.3427326 135.202655 0.00427350417 135.202655"></polygon>
                                    <polygon id="path42" fill="#FDDD4E" points="0.00427350417 134.113672 99.3427326 134.113672 99.3427326 134.65821 0.00427350417 134.65821"></polygon>
                                    <polygon id="path44" fill="#FDDD4E" points="0.00427350417 133.568373 99.3427326 133.568373 99.3427326 134.113245 0.00427350417 134.113245"></polygon>
                                    <polygon id="path46" fill="#FDDD4E" points="0.00427350417 133.023928 99.3427326 133.023928 99.3427326 133.568467 0.00427350417 133.568467"></polygon>
                                    <polygon id="path48" fill="#FDDD4E" points="0.00427350417 132.479484 99.3427326 132.479484 99.3427326 133.024022 0.00427350417 133.024022"></polygon>
                                    <polygon id="path50" fill="#FDDD4E" points="0.00427350417 131.935039 99.3427326 131.935039 99.3427326 132.479911 0.00427350417 132.479911"></polygon>
                                    <polygon id="path52" fill="#FDDD4E" points="0.00427350417 131.390595 99.3427326 131.390595 99.3427326 131.935133 0.00427350417 131.935133"></polygon>
                                    <polygon id="path54" fill="#FDDD4E" points="0.00427350417 130.845296 99.3427326 130.845296 99.3427326 131.389834 0.00427350417 131.389834"></polygon>
                                    <polygon id="path56" fill="#FDDD4E" points="0.00427350417 130.300851 99.3427326 130.300851 99.3427326 130.845723 0.00427350417 130.845723"></polygon>
                                    <polygon id="path58" fill="#FDDD4E" points="0.00427350417 129.756407 99.3427326 129.756407 99.3427326 130.300945 0.00427350417 130.300945"></polygon>
                                    <polygon id="path60" fill="#FDDD4E" points="0.00427350417 129.211963 99.3427326 129.211963 99.3427326 129.756501 0.00427350417 129.756501"></polygon>
                                    <polygon id="path62" fill="#FDDD4E" points="0.00427350417 128.666663 99.3427326 128.666663 99.3427326 129.211535 0.00427350417 129.211535"></polygon>
                                    <polygon id="path64" fill="#FDDD4E" points="0.00427350417 128.122219 99.3427326 128.122219 99.3427326 128.666757 0.00427350417 128.666757"></polygon>
                                    <polygon id="path66" fill="#FDDD4E" points="0.00427350417 127.577775 99.3427326 127.577775 99.3427326 128.122313 0.00427350417 128.122313"></polygon>
                                    <polygon id="path68" fill="#FDDD4E" points="0.00427350417 127.03333 99.3427326 127.03333 99.3427326 127.578202 0.00427350417 127.578202"></polygon>
                                    <polygon id="path70" fill="#FDDD4E" points="0.00427350417 126.488031 99.3427326 126.488031 99.3427326 127.032569 0.00427350417 127.032569"></polygon>
                                    <polygon id="path72" fill="#FDDD4E" points="0.00427350417 125.943587 99.3427326 125.943587 99.3427326 126.488125 0.00427350417 126.488125"></polygon>
                                    <polygon id="path74" fill="#FDDD4E" points="0.00427350417 125.399142 99.3427326 125.399142 99.3427326 125.944014 0.00427350417 125.944014"></polygon>
                                    <polygon id="path76" fill="#FDDD4E" points="0.00427350417 124.854698 99.3427326 124.854698 99.3427326 125.399236 0.00427350417 125.399236"></polygon>
                                    <polygon id="path78" fill="#FDDD4E" points="0.00427350417 124.310253 99.3427326 124.310253 99.3427326 124.854792 0.00427350417 124.854792"></polygon>
                                    <polygon id="path80" fill="#FDDD4E" points="0.00427350417 123.764954 99.3427326 123.764954 99.3427326 124.309826 0.00427350417 124.309826"></polygon>
                                    <polygon id="path82" fill="#FDDD4E" points="0.00427350417 123.22051 99.3427326 123.22051 99.3427326 123.765048 0.00427350417 123.765048"></polygon>
                                    <polygon id="path84" fill="#FDDD4E" points="0.00427350417 122.675211 99.3427326 122.675211 99.3427326 123.220082 0.00427350417 123.220082"></polygon>
                                    <polygon id="path86" fill="#FDDD4E" points="0.00427350417 122.130766 99.3427326 122.130766 99.3427326 122.675305 0.00427350417 122.675305"></polygon>
                                    <polygon id="path88" fill="#FDDD4E" points="0.00427350417 121.586322 99.3427326 121.586322 99.3427326 122.13086 0.00427350417 122.13086"></polygon>
                                    <polygon id="path90" fill="#FDDD4E" points="0.00427350417 121.041877 99.3427326 121.041877 99.3427326 121.586749 0.00427350417 121.586749"></polygon>
                                    <polygon id="path92" fill="#FDDD4E" points="0.00427350417 120.497433 99.3427326 120.497433 99.3427326 121.041971 0.00427350417 121.041971"></polygon>
                                    <polygon id="path94" fill="#FDDD4E" points="0.00427350417 119.952988 99.3427326 119.952988 99.3427326 120.497527 0.00427350417 120.497527"></polygon>
                                    <polygon id="path96" fill="#FDDD4E" points="0.00427350417 119.407689 99.3427326 119.407689 99.3427326 119.952561 0.00427350417 119.952561"></polygon>
                                    <polygon id="path98" fill="#FDDD4E" points="0.00427350417 118.863245 99.3427326 118.863245 99.3427326 119.407783 0.00427350417 119.407783"></polygon>
                                    <polygon id="path100" fill="#FDDD4F" points="0.00427350417 118.3188 99.3427326 118.3188 99.3427326 118.863339 0.00427350417 118.863339"></polygon>
                                    <polygon id="path102" fill="#FDDC50" points="0.00427350417 117.773501 99.3427326 117.773501 99.3427326 118.318373 0.00427350417 118.318373"></polygon>
                                    <polygon id="path104" fill="#FDDB52" points="0.00427350417 117.229057 99.3427326 117.229057 99.3427326 117.773595 0.00427350417 117.773595"></polygon>
                                    <polygon id="path106" fill="#FDDA52" points="0.00427350417 116.684612 99.3427326 116.684612 99.3427326 117.229151 0.00427350417 117.229151"></polygon>
                                    <polygon id="path108" fill="#FDD953" points="0.00427350417 116.140168 99.3427326 116.140168 99.3427326 116.68504 0.00427350417 116.68504"></polygon>
                                    <polygon id="path110" fill="#FCD854" points="0.00427350417 115.594869 99.3427326 115.594869 99.3427326 116.139407 0.00427350417 116.139407"></polygon>
                                    <polygon id="path112" fill="#FCD755" points="0.00427350417 115.050424 99.3427326 115.050424 99.3427326 115.594963 0.00427350417 115.594963"></polygon>
                                    <polygon id="path114" fill="#FCD756" points="0.00427350417 114.50598 99.3427326 114.50598 99.3427326 115.050852 0.00427350417 115.050852"></polygon>
                                    <polygon id="path116" fill="#FCD656" points="0.00427350417 113.961536 99.3427326 113.961536 99.3427326 114.506074 0.00427350417 114.506074"></polygon>
                                    <polygon id="path118" fill="#FCD557" points="0.00427350417 113.417091 99.3427326 113.417091 99.3427326 113.96163 0.00427350417 113.96163"></polygon>
                                    <polygon id="path120" fill="#FCD458" points="0.00427350417 112.871792 99.3427326 112.871792 99.3427326 113.416664 0.00427350417 113.416664"></polygon>
                                    <polygon id="path122" fill="#FCD358" points="0.00427350417 112.327348 99.3427326 112.327348 99.3427326 112.871886 0.00427350417 112.871886"></polygon>
                                    <polygon id="path124" fill="#FCD258" points="0.00427350417 111.782903 99.3427326 111.782903 99.3427326 112.327442 0.00427350417 112.327442"></polygon>
                                    <polygon id="path126" fill="#FCD159" points="0.00427350417 111.237604 99.3427326 111.237604 99.3427326 111.782476 0.00427350417 111.782476"></polygon>
                                    <polygon id="path128" fill="#FBD059" points="0.00427350417 110.69316 99.3427326 110.69316 99.3427326 111.237698 0.00427350417 111.237698"></polygon>
                                    <polygon id="path130" fill="#FBCF59" points="0.00427350417 110.148715 99.3427326 110.148715 99.3427326 110.693254 0.00427350417 110.693254"></polygon>
                                    <polygon id="path132" fill="#FBCE59" points="0.00427350417 109.604271 99.3427326 109.604271 99.3427326 110.149143 0.00427350417 110.149143"></polygon>
                                    <polygon id="path134" fill="#FBCE59" points="0.00427350417 109.059826 99.3427326 109.059826 99.3427326 109.604365 0.00427350417 109.604365"></polygon>
                                    <polygon id="path136" fill="#FBCD59" points="0.00427350417 108.515382 99.3427326 108.515382 99.3427326 109.05992 0.00427350417 109.05992"></polygon>
                                    <polygon id="path138" fill="#FBCC59" points="0.00427350417 107.970083 99.3427326 107.970083 99.3427326 108.514955 0.00427350417 108.514955"></polygon>
                                    <polygon id="path140" fill="#FBCB59" points="0.00427350417 107.425638 99.3427326 107.425638 99.3427326 107.970177 0.00427350417 107.970177"></polygon>
                                    <polygon id="path142" fill="#FBCA59" points="0.00427350417 106.881194 99.3427326 106.881194 99.3427326 107.425732 0.00427350417 107.425732"></polygon>
                                    <polygon id="path144" fill="#FBC959" points="0.00427350417 106.335895 99.3427326 106.335895 99.3427326 106.880767 0.00427350417 106.880767"></polygon>
                                    <polygon id="path146" fill="#FBC858" points="0.00427350417 105.79145 99.3427326 105.79145 99.3427326 106.335989 0.00427350417 106.335989"></polygon>
                                    <polygon id="path148" fill="#FBC758" points="0.00427350417 105.247006 99.3427326 105.247006 99.3427326 105.791544 0.00427350417 105.791544"></polygon>
                                    <polygon id="path150" fill="#FAC758" points="0.00427350417 104.702561 99.3427326 104.702561 99.3427326 105.247433 0.00427350417 105.247433"></polygon>
                                    <polygon id="path152" fill="#FAC657" points="0.00427350417 104.157262 99.3427326 104.157262 99.3427326 104.701801 0.00427350417 104.701801"></polygon>
                                    <polygon id="path154" fill="#FAC557" points="0.00427350417 103.612818 99.3427326 103.612818 99.3427326 104.157356 0.00427350417 104.157356"></polygon>
                                    <polygon id="path156" fill="#FAC457" points="0.00427350417 103.068373 99.3427326 103.068373 99.3427326 103.613245 0.00427350417 103.613245"></polygon>
                                    <polygon id="path158" fill="#FAC356" points="0.00427350417 102.523929 99.3427326 102.523929 99.3427326 103.068468 0.00427350417 103.068468"></polygon>
                                    <polygon id="path160" fill="#FAC256" points="0.00427350417 101.979485 99.3427326 101.979485 99.3427326 102.524023 0.00427350417 102.524023"></polygon>
                                    <polygon id="path162" fill="#FAC255" points="0.00427350417 101.434185 99.3427326 101.434185 99.3427326 101.979057 0.00427350417 101.979057"></polygon>
                                    <polygon id="path164" fill="#FAC154" points="0.00427350417 100.889741 99.3427326 100.889741 99.3427326 101.43428 0.00427350417 101.43428"></polygon>
                                    <polygon id="path166" fill="#FAC054" points="0.00427350417 100.345297 99.3427326 100.345297 99.3427326 100.889835 0.00427350417 100.889835"></polygon>
                                    <polygon id="path168" fill="#FABF53" points="0.00427350417 99.7999975 99.3427326 99.7999975 99.3427326 100.344869 0.00427350417 100.344869"></polygon>
                                    <polygon id="path170" fill="#FABF53" points="0.00427350417 99.2555531 99.3427326 99.2555531 99.3427326 99.8000915 0.00427350417 99.8000915"></polygon>
                                    <polygon id="path172" fill="#F9BE52" points="0.00427350417 98.7111086 99.3427326 98.7111086 99.3427326 99.2556471 0.00427350417 99.2556471"></polygon>
                                    <polygon id="path174" fill="#F9BD51" points="0.00427350417 98.1666642 99.3427326 98.1666642 99.3427326 98.711536 0.00427350417 98.711536"></polygon>
                                    <polygon id="path176" fill="#F9BC50" points="0.00427350417 97.6222198 99.3427326 97.6222198 99.3427326 98.1667582 0.00427350417 98.1667582"></polygon>
                                    <polygon id="path178" fill="#F9BB50" points="0.00427350417 97.0769206 99.3427326 97.0769206 99.3427326 97.6214591 0.00427350417 97.6214591"></polygon>
                                    <polygon id="path180" fill="#F9BB4F" points="0.00427350417 96.5324762 99.3427326 96.5324762 99.3427326 97.077348 0.00427350417 97.077348"></polygon>
                                    <polygon id="path182" fill="#F9BA4E" points="0.00427350417 95.9880318 99.3427326 95.9880318 99.3427326 96.5325702 0.00427350417 96.5325702"></polygon>
                                    <polygon id="path184" fill="#F9B94D" points="0.00427350417 95.4427327 99.3427326 95.4427327 99.3427326 95.9876044 0.00427350417 95.9876044"></polygon>
                                    <polygon id="path186" fill="#F9B84C" points="0.00427350417 94.8982882 99.3427326 94.8982882 99.3427326 95.4428267 0.00427350417 95.4428267"></polygon>
                                    <polygon id="path188" fill="#F9B84C" points="0.00427350417 94.3538438 99.3427326 94.3538438 99.3427326 94.8983822 0.00427350417 94.8983822"></polygon>
                                    <polygon id="path190" fill="#F9B74A" points="0.00427350417 93.8093994 99.3427326 93.8093994 99.3427326 94.3542711 0.00427350417 94.3542711"></polygon>
                                    <polygon id="path192" fill="#F9B64A" points="0.00427350417 93.2649549 99.3427326 93.2649549 99.3427326 93.8094934 0.00427350417 93.8094934"></polygon>
                                    <polygon id="path194" fill="#F9B549" points="0.00427350417 92.7196558 99.3427326 92.7196558 99.3427326 93.2641942 0.00427350417 93.2641942"></polygon>
                                    <polygon id="path196" fill="#F9B548" points="0.00427350417 92.1752114 99.3427326 92.1752114 99.3427326 92.7200832 0.00427350417 92.7200832"></polygon>
                                    <polygon id="path198" fill="#F8B447" points="0.00427350417 91.6307669 99.3427326 91.6307669 99.3427326 92.1753054 0.00427350417 92.1753054"></polygon>
                                    <polygon id="path200" fill="#F8B346" points="0.00427350417 91.0863225 99.3427326 91.0863225 99.3427326 91.630861 0.00427350417 91.630861"></polygon>
                                    <polygon id="path202" fill="#F8B345" points="0.00427350417 90.5410234 99.3427326 90.5410234 99.3427326 91.0858952 0.00427350417 91.0858952"></polygon>
                                    <polygon id="path204" fill="#F8B244" points="0.00427350417 89.9965789 99.3427326 89.9965789 99.3427326 90.5411174 0.00427350417 90.5411174"></polygon>
                                    <polygon id="path206" fill="#F8B143" points="0.00427350417 89.4521345 99.3427326 89.4521345 99.3427326 89.996673 0.00427350417 89.996673"></polygon>
                                    <polygon id="path208" fill="#F8B142" points="0.00427350417 88.9068354 99.3427326 88.9068354 99.3427326 89.4517072 0.00427350417 89.4517072"></polygon>
                                    <polygon id="path210" fill="#F8B041" points="0.00427350417 88.362391 99.3427326 88.362391 99.3427326 88.9069294 0.00427350417 88.9069294"></polygon>
                                    <polygon id="path212" fill="#F8AF40" points="0.00427350417 87.8179465 99.3427326 87.8179465 99.3427326 88.362485 0.00427350417 88.362485"></polygon>
                                    <polygon id="path214" fill="#F8AF3F" points="0.00427350417 87.2735021 99.3427326 87.2735021 99.3427326 87.8183739 0.00427350417 87.8183739"></polygon>
                                    <polygon id="path216" fill="#F8AE3E" points="0.00427350417 86.7290577 99.3427326 86.7290577 99.3427326 87.2735961 0.00427350417 87.2735961"></polygon>
                                    <polygon id="path218" fill="#F8AE3D" points="0.00427350417 86.1846132 99.3427326 86.1846132 99.3427326 86.7291517 0.00427350417 86.7291517"></polygon>
                                    <polygon id="path220" fill="#F8AD3C" points="0.00427350417 85.6393141 99.3427326 85.6393141 99.3427326 86.1841859 0.00427350417 86.1841859"></polygon>
                                    <polygon id="path222" fill="#F8AC3B" points="0.00427350417 85.0948697 99.3427326 85.0948697 99.3427326 85.6394081 0.00427350417 85.6394081"></polygon>
                                    <polygon id="path224" fill="#F8AC3A" points="0.00427350417 84.5504252 99.3427326 84.5504252 99.3427326 85.0949637 0.00427350417 85.0949637"></polygon>
                                    <polygon id="path226" fill="#F8AB39" points="0.00427350417 84.0051261 99.3427326 84.0051261 99.3427326 84.5499979 0.00427350417 84.5499979"></polygon>
                                    <polygon id="path228" fill="#F7AB38" points="0.00427350417 83.4606817 99.3427326 83.4606817 99.3427326 84.0052201 0.00427350417 84.0052201"></polygon>
                                    <polygon id="path230" fill="#F7AA37" points="0.00427350417 82.9162372 99.3427326 82.9162372 99.3427326 83.4607757 0.00427350417 83.4607757"></polygon>
                                    <polygon id="path232" fill="#F7AA36" points="0.00427350417 82.3717928 99.3427326 82.3717928 99.3427326 82.9166646 0.00427350417 82.9166646"></polygon>
                                    <polygon id="path234" fill="#F7A935" points="0.00427350417 81.8273484 99.3427326 81.8273484 99.3427326 82.3718868 0.00427350417 82.3718868"></polygon>
                                    <polygon id="path236" fill="#F7A835" points="0.00427350417 81.2820492 99.3427326 81.2820492 99.3427326 81.8265877 0.00427350417 81.8265877"></polygon>
                                    <polygon id="path238" fill="#F7A833" points="0.00427350417 80.7376048 99.3427326 80.7376048 99.3427326 81.2824766 0.00427350417 81.2824766"></polygon>
                                    <polygon id="path240" fill="#F7A732" points="0.00427350417 80.1931604 99.3427326 80.1931604 99.3427326 80.7376988 0.00427350417 80.7376988"></polygon>
                                    <polygon id="path242" fill="#F7A731" points="0.00427350417 79.648716 99.3427326 79.648716 99.3427326 80.1932544 0.00427350417 80.1932544"></polygon>
                                    <polygon id="path244" fill="#F7A630" points="0.00427350417 79.1034168 99.3427326 79.1034168 99.3427326 79.6482886 0.00427350417 79.6482886"></polygon>
                                    <polygon id="path246" fill="#F7A630" points="0.00427350417 78.5589724 99.3427326 78.5589724 99.3427326 79.1035108 0.00427350417 79.1035108"></polygon>
                                    <polygon id="path248" fill="#F7A52F" points="0.00427350417 78.014528 99.3427326 78.014528 99.3427326 78.5590664 0.00427350417 78.5590664"></polygon>
                                    <polygon id="path250" fill="#F7A52D" points="0.00427350417 77.4692288 99.3427326 77.4692288 99.3427326 78.0141006 0.00427350417 78.0141006"></polygon>
                                    <polygon id="path252" fill="#F7A42D" points="0.00427350417 76.9247844 99.3427326 76.9247844 99.3427326 77.4693228 0.00427350417 77.4693228"></polygon>
                                    <polygon id="path254" fill="#F7A42C" points="0.00427350417 76.38034 99.3427326 76.38034 99.3427326 76.9248784 0.00427350417 76.9248784"></polygon>
                                    <polygon id="path256" fill="#F7A32B" points="0.00427350417 75.8358955 99.3427326 75.8358955 99.3427326 76.3807673 0.00427350417 76.3807673"></polygon>
                                    <polygon id="path258" fill="#F7A32A" points="0.00427350417 75.2914511 99.3427326 75.2914511 99.3427326 75.8359896 0.00427350417 75.8359896"></polygon>
                                    <polygon id="path260" fill="#F7A329" points="0.00427350417 74.7465793 99.3427326 74.7465793 99.3427326 75.2911178 0.00427350417 75.2911178"></polygon>
                                    <polygon id="path262" fill="#F7A228" points="0.00427350417 74.2017075 99.3427326 74.2017075 99.3427326 74.7465793 0.00427350417 74.7465793"></polygon>
                                    <polygon id="path264" fill="#F6A228" points="0.00427350417 73.6571776 99.3427326 73.6571776 99.3427326 74.2017152 0.00427350417 74.2017152"></polygon>
                                    <polygon id="path266" fill="#F6A126" points="0.00427350417 73.1126477 99.3427326 73.1126477 99.3427326 73.6571853 0.00427350417 73.6571853"></polygon>
                                    <polygon id="path268" fill="#F6A126" points="0.00427350417 72.567776 99.3427326 72.567776 99.3427326 73.1126477 0.00427350417 73.1126477"></polygon>
                                    <polygon id="path270" fill="#F6A125" points="0.00427350417 72.0232461 99.3427326 72.0232461 99.3427326 72.5677837 0.00427350417 72.5677837"></polygon>
                                    <polygon id="path272" fill="#F6A024" points="0.00427350417 71.4787162 99.3427326 71.4787162 99.3427326 72.0232538 0.00427350417 72.0232538"></polygon>
                                    <polygon id="path274" fill="#F6A023" points="0.00427350417 70.9338444 99.3427326 70.9338444 99.3427326 71.4787162 0.00427350417 71.4787162"></polygon>
                                    <polygon id="path276" fill="#F69F23" points="0.00427350417 70.3893145 99.3427326 70.3893145 99.3427326 70.9338521 0.00427350417 70.9338521"></polygon>
                                    <polygon id="path278" fill="#F69F22" points="0.00427350417 69.8447846 99.3427326 69.8447846 99.3427326 70.3893222 0.00427350417 70.3893222"></polygon>
                                    <polygon id="path280" fill="#F69F21" points="0.00427350417 69.2999128 99.3427326 69.2999128 99.3427326 69.8447846 0.00427350417 69.8447846"></polygon>
                                    <polygon id="path282" fill="#F69E20" points="0.00427350417 68.7553829 99.3427326 68.7553829 99.3427326 69.2999205 0.00427350417 69.2999205"></polygon>
                                    <polygon id="path284" fill="#F69E20" points="0.00427350417 68.2105111 99.3427326 68.2105111 99.3427326 68.7553829 0.00427350417 68.7553829"></polygon>
                                    <polygon id="path286" fill="#F69E1F" points="0.00427350417 67.6658957 99.3427326 67.6658957 99.3427326 68.2104333 0.00427350417 68.2104333"></polygon>
                                    <polygon id="path288" fill="#F69D1E" points="0.00427350417 67.1213658 99.3427326 67.1213658 99.3427326 67.6659034 0.00427350417 67.6659034"></polygon>
                                    <polygon id="path290" fill="#F69D1E" points="0.00427350417 66.5764941 99.3427326 66.5764941 99.3427326 67.1213658 0.00427350417 67.1213658"></polygon>
                                    <polygon id="path292" fill="#F69D1D" points="0.00427350417 66.0319642 99.3427326 66.0319642 99.3427326 66.5765018 0.00427350417 66.5765018"></polygon>
                                    <polygon id="path294" fill="#F69D1C" points="0.00427350417 65.4874343 99.3427326 65.4874343 99.3427326 66.0319719 0.00427350417 66.0319719"></polygon>
                                    <polygon id="path296" fill="#F69C1C" points="0.00427350417 64.9425625 99.3427326 64.9425625 99.3427326 65.4874343 0.00427350417 65.4874343"></polygon>
                                    <polygon id="path298" fill="#F69C1B" points="0.00427350417 64.3980326 99.3427326 64.3980326 99.3427326 64.9425702 0.00427350417 64.9425702"></polygon>
                                    <polygon id="path300" fill="#F69C1A" points="0.00427350417 63.8535027 99.3427326 63.8535027 99.3427326 64.3980403 0.00427350417 64.3980403"></polygon>
                                    <polygon id="path302" fill="#F69B1A" points="0.00427350417 63.3086309 99.3427326 63.3086309 99.3427326 63.8535027 0.00427350417 63.8535027"></polygon>
                                    <polygon id="path304" fill="#F69B19" points="0.00427350417 62.764101 99.3427326 62.764101 99.3427326 63.3086386 0.00427350417 63.3086386"></polygon>
                                    <polygon id="path306" fill="#F69B18" points="0.00427350417 62.2195711 99.3427326 62.2195711 99.3427326 62.7641087 0.00427350417 62.7641087"></polygon>
                                    <polygon id="path308" fill="#F69B18" points="0.00427350417 61.6746993 99.3427326 61.6746993 99.3427326 62.2195711 0.00427350417 62.2195711"></polygon>
                                    <polygon id="path310" fill="#F69B18" points="0.00427350417 61.1301694 99.3427326 61.1301694 99.3427326 61.674707 0.00427350417 61.674707"></polygon>
                                    <polygon id="path312" fill="#F69A17" points="0.00427350417 60.5856395 99.3427326 60.5856395 99.3427326 61.1301771 0.00427350417 61.1301771"></polygon>
                                    <polygon id="path314" fill="#F69A16" points="0.00427350417 60.0407677 99.3427326 60.0407677 99.3427326 60.5856395 0.00427350417 60.5856395"></polygon>
                                    <polygon id="path316" fill="#F69A16" points="0.00427350417 59.4961524 99.3427326 59.4961524 99.3427326 60.04069 0.00427350417 60.04069"></polygon>
                                    <polygon id="path318" fill="#F69A16" points="0.00427350417 58.9516225 99.3427326 58.9516225 99.3427326 59.4961601 0.00427350417 59.4961601"></polygon>
                                    <polygon id="path320" fill="#F69915" points="0.00427350417 58.4067507 99.3427326 58.4067507 99.3427326 58.9516225 0.00427350417 58.9516225"></polygon>
                                    <polygon id="path322" fill="#F69914" points="0.00427350417 57.8622208 99.3427326 57.8622208 99.3427326 58.4067584 0.00427350417 58.4067584"></polygon>
                                    <polygon id="path324" fill="#F69914" points="0.00427350417 57.3176909 99.3427326 57.3176909 99.3427326 57.8622285 0.00427350417 57.8622285"></polygon>
                                    <polygon id="path326" fill="#F59914" points="0.00427350417 56.7728191 99.3427326 56.7728191 99.3427326 57.3176909 0.00427350417 57.3176909"></polygon>
                                    <polygon id="path328" fill="#F59914" points="0.00427350417 56.2282892 99.3427326 56.2282892 99.3427326 56.7728268 0.00427350417 56.7728268"></polygon>
                                    <polygon id="path330" fill="#F59913" points="0.00427350417 55.6837593 99.3427326 55.6837593 99.3427326 56.2282969 0.00427350417 56.2282969"></polygon>
                                    <polygon id="path332" fill="#F59913" points="0.00427350417 55.1388875 99.3427326 55.1388875 99.3427326 55.6837593 0.00427350417 55.6837593"></polygon>
                                    <polygon id="path334" fill="#F59812" points="0.00427350417 54.5943576 99.3427326 54.5943576 99.3427326 55.1388952 0.00427350417 55.1388952"></polygon>
                                    <polygon id="path336" fill="#F59812" points="0.00427350417 54.0498277 99.3427326 54.0498277 99.3427326 54.5943653 0.00427350417 54.5943653"></polygon>
                                    <polygon id="path338" fill="#F59812" points="0.00427350417 53.5049559 99.3427326 53.5049559 99.3427326 54.0498277 0.00427350417 54.0498277"></polygon>
                                    <polygon id="path340" fill="#F59812" points="0.00427350417 52.960426 99.3427326 52.960426 99.3427326 53.5049636 0.00427350417 53.5049636"></polygon>
                                    <polygon id="path342" fill="#F59811" points="0.00427350417 52.4158961 99.3427326 52.4158961 99.3427326 52.9604337 0.00427350417 52.9604337"></polygon>
                                    <polygon id="path344" fill="#F59811" points="0.00427350417 51.8710243 99.3427326 51.8710243 99.3427326 52.4158961 0.00427350417 52.4158961"></polygon>
                                    <polygon id="path346" fill="#F59811" points="0.00427350417 51.3264944 99.3427326 51.3264944 99.3427326 51.871032 0.00427350417 51.871032"></polygon>
                                    <polygon id="path348" fill="#F59710" points="0.00427350417 50.7818791 99.3427326 50.7818791 99.3427326 51.3264167 0.00427350417 51.3264167"></polygon>
                                    <polygon id="path350" fill="#F59710" points="0.00427350417 50.2370073 99.3427326 50.2370073 99.3427326 50.7818791 0.00427350417 50.7818791"></polygon>
                                    <polygon id="path352" fill="#F59710" points="0.00427350417 49.6924774 99.3427326 49.6924774 99.3427326 50.237015 0.00427350417 50.237015"></polygon>
                                    <polygon id="path354" fill="#F59710" points="0.00427350417 49.1479475 99.3427326 49.1479475 99.3427326 49.6924851 0.00427350417 49.6924851"></polygon>
                                    <polygon id="path356" fill="#F59710" points="0.00427350417 48.6030757 99.3427326 48.6030757 99.3427326 49.1479475 0.00427350417 49.1479475"></polygon>
                                    <polygon id="path358" fill="#F59710" points="0.00427350417 48.0585458 99.3427326 48.0585458 99.3427326 48.6030834 0.00427350417 48.6030834"></polygon>
                                    <polygon id="path360" fill="#F59710" points="0.00427350417 47.5140159 99.3427326 47.5140159 99.3427326 48.0585535 0.00427350417 48.0585535"></polygon>
                                    <polygon id="path362" fill="#F59710" points="0.00427350417 46.9691441 99.3427326 46.9691441 99.3427326 47.5140159 0.00427350417 47.5140159"></polygon>
                                    <polygon id="path364" fill="#F59710" points="0.00427350417 46.4246142 99.3427326 46.4246142 99.3427326 46.9691518 0.00427350417 46.9691518"></polygon>
                                    <polygon id="path366" fill="#F59710" points="0.00427350417 45.8800843 99.3427326 45.8800843 99.3427326 46.4246219 0.00427350417 46.4246219"></polygon>
                                    <polygon id="path368" fill="#F59710" points="0.00427350417 45.3352125 99.3427326 45.3352125 99.3427326 45.8800843 0.00427350417 45.8800843"></polygon>
                                    <polygon id="path370" fill="#F59710" points="0.00427350417 44.7906826 99.3427326 44.7906826 99.3427326 45.3352202 0.00427350417 45.3352202"></polygon>
                                    <polygon id="path372" fill="#F59710" points="0.00427350417 44.2461527 99.3427326 44.2461527 99.3427326 44.7906903 0.00427350417 44.7906903"></polygon>
                                    <polygon id="path374" fill="#F59710" points="0.00427350417 43.701281 99.3427326 43.701281 99.3427326 44.2461527 0.00427350417 44.2461527"></polygon>
                                    <polygon id="path376" fill="#F5970F" points="0.00427350417 43.1567511 99.3427326 43.1567511 99.3427326 43.7012887 0.00427350417 43.7012887"></polygon>
                                    <polygon id="path378" fill="#F5970F" points="0.00427350417 42.6122212 99.3427326 42.6122212 99.3427326 43.1567588 0.00427350417 43.1567588"></polygon>
                                    <polygon id="path380" fill="#F5970F" points="0.00427350417 42.0673494 99.3427326 42.0673494 99.3427326 42.6122212 0.00427350417 42.6122212"></polygon>
                                    <polygon id="path382" fill="#F5970F" points="0.00427350417 41.522734 99.3427326 41.522734 99.3427326 42.0672716 0.00427350417 42.0672716"></polygon>
                                    <polygon id="path384" fill="#F5970F" points="0.00427350417 40.9778622 99.3427326 40.9778622 99.3427326 41.522734 0.00427350417 41.522734"></polygon>
                                    <polygon id="path386" fill="#F5970F" points="0.00427350417 40.4333323 99.3427326 40.4333323 99.3427326 40.9778699 0.00427350417 40.9778699"></polygon>
                                    <polygon id="path388" fill="#F5970F" points="0.00427350417 39.8888024 99.3427326 39.8888024 99.3427326 40.43334 0.00427350417 40.43334"></polygon>
                                    <polygon id="path390" fill="#F5970F" points="0.00427350417 39.3439306 99.3427326 39.3439306 99.3427326 39.8888024 0.00427350417 39.8888024"></polygon>
                                    <polygon id="path392" fill="#F5970F" points="0.00427350417 38.7994007 99.3427326 38.7994007 99.3427326 39.3439383 0.00427350417 39.3439383"></polygon>
                                    <polygon id="path394" fill="#F5970F" points="0.00427350417 38.2548708 99.3427326 38.2548708 99.3427326 38.7994084 0.00427350417 38.7994084"></polygon>
                                    <polygon id="path396" fill="#F5970F" points="0.00427350417 37.7099991 99.3427326 37.7099991 99.3427326 38.2548708 0.00427350417 38.2548708"></polygon>
                                    <polygon id="path398" fill="#F5970F" points="0.00427350417 37.1654692 99.3427326 37.1654692 99.3427326 37.7100067 0.00427350417 37.7100067"></polygon>
                                    <polygon id="path400" fill="#F5970F" points="0.00427350417 36.6209393 99.3427326 36.6209393 99.3427326 37.1654768 0.00427350417 37.1654768"></polygon>
                                    <polygon id="path402" fill="#F5970F" points="0.00427350417 36.0760675 99.3427326 36.0760675 99.3427326 36.6209393 0.00427350417 36.6209393"></polygon>
                                    <polygon id="path404" fill="#F5970F" points="0.00427350417 35.5315376 99.3427326 35.5315376 99.3427326 36.0760752 0.00427350417 36.0760752"></polygon>
                                    <polygon id="path406" fill="#F5970F" points="0.00427350417 34.9870077 99.3427326 34.9870077 99.3427326 35.5315453 0.00427350417 35.5315453"></polygon>
                                    <polygon id="path408" fill="#F5970F" points="0.00427350417 34.4421359 99.3427326 34.4421359 99.3427326 34.9870077 0.00427350417 34.9870077"></polygon>
                                    <polygon id="path410" fill="#F5970F" points="0.00427350417 33.897606 99.3427326 33.897606 99.3427326 34.4421436 0.00427350417 34.4421436"></polygon>
                                    <polygon id="path412" fill="#F5970F" points="0.00427350417 33.3529906 99.3427326 33.3529906 99.3427326 33.8975282 0.00427350417 33.8975282"></polygon>
                                    <polygon id="path414" fill="#F5970F" points="0.00427350417 32.8081188 99.3427326 32.8081188 99.3427326 33.3529906 0.00427350417 33.3529906"></polygon>
                                    <polygon id="path416" fill="#F5970F" points="0.00427350417 32.2635889 99.3427326 32.2635889 99.3427326 32.8081265 0.00427350417 32.8081265"></polygon>
                                    <polygon id="path418" fill="#F5970F" points="0.00427350417 31.719059 99.3427326 31.719059 99.3427326 32.2635966 0.00427350417 32.2635966"></polygon>
                                    <polygon id="path420" fill="#F5970F" points="0.00427350417 31.1741873 99.3427326 31.1741873 99.3427326 31.719059 0.00427350417 31.719059"></polygon>
                                    <polygon id="path422" fill="#F5970F" points="0.00427350417 30.6296574 99.3427326 30.6296574 99.3427326 31.1741949 0.00427350417 31.1741949"></polygon>
                                    <polygon id="path424" fill="#F5970F" points="0.00427350417 30.0851275 99.3427326 30.0851275 99.3427326 30.629665 0.00427350417 30.629665"></polygon>
                                    <polygon id="path426" fill="#F5970F" points="0.00427350417 29.5402557 99.3427326 29.5402557 99.3427326 30.0851275 0.00427350417 30.0851275"></polygon>
                                    <polygon id="path428" fill="#F5970F" points="0.00427350417 28.9957258 99.3427326 28.9957258 99.3427326 29.5402634 0.00427350417 29.5402634"></polygon>
                                    <polygon id="path430" fill="#F5970F" points="0.00427350417 28.4511959 99.3427326 28.4511959 99.3427326 28.9957335 0.00427350417 28.9957335"></polygon>
                                    <polygon id="path432" fill="#F5970F" points="0.00427350417 27.9063241 99.3427326 27.9063241 99.3427326 28.4511959 0.00427350417 28.4511959"></polygon>
                                    <polygon id="path434" fill="#F5970F" points="0.00427350417 27.3617942 99.3427326 27.3617942 99.3427326 27.9063318 0.00427350417 27.9063318"></polygon>
                                    <polygon id="path436" fill="#F5970F" points="0.00427350417 26.8172643 99.3427326 26.8172643 99.3427326 27.3618019 0.00427350417 27.3618019"></polygon>
                                    <polygon id="path438" fill="#F5970F" points="0.00427350417 26.2723925 99.3427326 26.2723925 99.3427326 26.8172643 0.00427350417 26.8172643"></polygon>
                                    <polygon id="path440" fill="#F5970F" points="0.00427350417 25.7278626 99.3427326 25.7278626 99.3427326 26.2724002 0.00427350417 26.2724002"></polygon>
                                    <polygon id="path442" fill="#F5970F" points="0.00427350417 25.1833327 99.3427326 25.1833327 99.3427326 25.7278703 0.00427350417 25.7278703"></polygon>
                                    <polygon id="path444" fill="#F5970F" points="0.00427350417 24.6384609 99.3427326 24.6384609 99.3427326 25.1833327 0.00427350417 25.1833327"></polygon>
                                    <polygon id="path446" fill="#F5970F" points="0.00427350417 24.0938456 99.3427326 24.0938456 99.3427326 24.6383831 0.00427350417 24.6383831"></polygon>
                                    <polygon id="path448" fill="#F5970F" points="0.00427350417 23.5493157 99.3427326 23.5493157 99.3427326 24.0938532 0.00427350417 24.0938532"></polygon>
                                    <polygon id="path450" fill="#F5970F" points="0.00427350417 23.0044439 99.3427326 23.0044439 99.3427326 23.5493157 0.00427350417 23.5493157"></polygon>
                                    <polygon id="path452" fill="#F5970F" points="0.00427350417 22.459914 99.3427326 22.459914 99.3427326 23.0044516 0.00427350417 23.0044516"></polygon>
                                    <polygon id="path454" fill="#F5970F" points="0.00427350417 21.9153841 99.3427326 21.9153841 99.3427326 22.4599217 0.00427350417 22.4599217"></polygon>
                                    <polygon id="path456" fill="#F5970F" points="0.00427350417 21.3705123 99.3427326 21.3705123 99.3427326 21.9153841 0.00427350417 21.9153841"></polygon>
                                    <polygon id="path458" fill="#F5970F" points="0.00427350417 20.8259824 99.3427326 20.8259824 99.3427326 21.37052 0.00427350417 21.37052"></polygon>
                                    <polygon id="path460" fill="#F5970F" points="0.00427350417 20.2814525 99.3427326 20.2814525 99.3427326 20.8259901 0.00427350417 20.8259901"></polygon>
                                    <polygon id="path462" fill="#F5970F" points="0.00427350417 19.7365807 99.3427326 19.7365807 99.3427326 20.2814525 0.00427350417 20.2814525"></polygon>
                                    <polygon id="path464" fill="#F5970F" points="0.00427350417 19.1920508 99.3427326 19.1920508 99.3427326 19.7365884 0.00427350417 19.7365884"></polygon>
                                    <polygon id="path466" fill="#F5970F" points="0.00427350417 18.6475209 99.3427326 18.6475209 99.3427326 19.1920585 0.00427350417 19.1920585"></polygon>
                                    <polygon id="path468" fill="#F5970F" points="0.00427350417 18.1026491 99.3427326 18.1026491 99.3427326 18.6475209 0.00427350417 18.6475209"></polygon>
                                    <polygon id="path470" fill="#F5970F" points="0.00427350417 17.5581192 99.3427326 17.5581192 99.3427326 18.1026568 0.00427350417 18.1026568"></polygon>
                                    <polygon id="path472" fill="#F5970F" points="0.00427350417 17.0135893 99.3427326 17.0135893 99.3427326 17.5581269 0.00427350417 17.5581269"></polygon>
                                    <polygon id="path474" fill="#F5970F" points="0.00427350417 16.4687175 99.3427326 16.4687175 99.3427326 17.0135893 0.00427350417 17.0135893"></polygon>
                                    <polygon id="path476" fill="#F5970F" points="0.00427350417 15.9241876 99.3427326 15.9241876 99.3427326 16.4687252 0.00427350417 16.4687252"></polygon>
                                    <polygon id="path478" fill="#F5970F" points="0.00427350417 15.3795723 99.3427326 15.3795723 99.3427326 15.9241099 0.00427350417 15.9241099"></polygon>
                                    <polygon id="path480" fill="#F5970F" points="0.00427350417 14.8347005 99.3427326 14.8347005 99.3427326 15.3795723 0.00427350417 15.3795723"></polygon>
                                    <polygon id="path482" fill="#F5970F" points="0.00427350417 14.2901706 99.3427326 14.2901706 99.3427326 14.8347082 0.00427350417 14.8347082"></polygon>
                                    <polygon id="path484" fill="#F5970F" points="0.00427350417 13.7452988 99.3427326 13.7452988 99.3427326 14.2901706 0.00427350417 14.2901706"></polygon>
                                    <polygon id="path486" fill="#F5970F" points="0.00427350417 13.2007689 99.3427326 13.2007689 99.3427326 13.7453065 0.00427350417 13.7453065"></polygon>
                                    <polygon id="path488" fill="#F5970F" points="0.00427350417 12.656239 99.3427326 12.656239 99.3427326 13.2007766 0.00427350417 13.2007766"></polygon>
                                    <polygon id="path490" fill="#F5970F" points="0.00427350417 12.1113672 99.3427326 12.1113672 99.3427326 12.656239 0.00427350417 12.656239"></polygon>
                                    <polygon id="path492" fill="#F5970F" points="0.00427350417 11.5668373 99.3427326 11.5668373 99.3427326 12.1113749 0.00427350417 12.1113749"></polygon>
                                    <polygon id="path494" fill="#F5970F" points="0.00427350417 11.0223074 99.3427326 11.0223074 99.3427326 11.566845 0.00427350417 11.566845"></polygon>
                                    <polygon id="path496" fill="#F5970F" points="0.00427350417 10.4774356 99.3427326 10.4774356 99.3427326 11.0223074 0.00427350417 11.0223074"></polygon>
                                    <polygon id="path498" fill="#F5970F" points="0.00427350417 9.93290573 99.3427326 9.93290573 99.3427326 10.4774433 0.00427350417 10.4774433"></polygon>
                                    <polygon id="path500" fill="#F5970F" points="0.00427350417 9.38837583 99.3427326 9.38837583 99.3427326 9.93291343 0.00427350417 9.93291343"></polygon>
                                    <polygon id="path502" fill="#F5970F" points="0.00427350417 8.84350405 99.3427326 8.84350405 99.3427326 9.38837583 0.00427350417 9.38837583"></polygon>
                                    <polygon id="path504" fill="#F5970F" points="0.00427350417 8.29897415 99.3427326 8.29897415 99.3427326 8.84351174 0.00427350417 8.84351174"></polygon>
                                    <polygon id="path506" fill="#F5970F" points="0.00427350417 7.75444425 99.3427326 7.75444425 99.3427326 8.29898184 0.00427350417 8.29898184"></polygon>
                                    <polygon id="path508" fill="#F5970F" points="0.00427350417 7.20957247 99.3427326 7.20957247 99.3427326 7.75444425 0.00427350417 7.75444425"></polygon>
                                    <polygon id="path510" fill="#F5970F" points="0.00427350417 6.6649571 99.3427326 6.6649571 99.3427326 7.20949469 0.00427350417 7.20949469"></polygon>
                                    <polygon id="path512" fill="#F5970F" points="0.00427350417 6.1204272 99.3427326 6.1204272 99.3427326 6.66496479 0.00427350417 6.66496479"></polygon>
                                    <polygon id="path514" fill="#F5970F" points="0.00427350417 5.57555542 99.3427326 5.57555542 99.3427326 6.1204272 0.00427350417 6.1204272"></polygon>
                                    <polygon id="path516" fill="#F5970F" points="0.00427350417 5.03102552 99.3427326 5.03102552 99.3427326 5.57556311 0.00427350417 5.57556311"></polygon>
                                    <polygon id="path518" fill="#F5970F" points="0.00427350417 4.48649561 99.3427326 4.48649561 99.3427326 5.03103321 0.00427350417 5.03103321"></polygon>
                                    <polygon id="path520" fill="#F5970F" points="0.00427350417 3.94162383 99.3427326 3.94162383 99.3427326 4.48649561 0.00427350417 4.48649561"></polygon>
                                    <polygon id="path522" fill="#F5970F" points="0.00427350417 3.39709393 99.3427326 3.39709393 99.3427326 3.94163153 0.00427350417 3.94163153"></polygon>
                                    <polygon id="path524" fill="#F5970F" points="0.00427350417 2.85256403 99.3427326 2.85256403 99.3427326 3.39710162 0.00427350417 3.39710162"></polygon>
                                    <polygon id="path526" fill="#F5970F" points="0.00427350417 2.30769225 99.3427326 2.30769225 99.3427326 2.85256403 0.00427350417 2.85256403"></polygon>
                                    <polygon id="path528" fill="#F5970F" points="0.00427350417 1.76316235 99.3427326 1.76316235 99.3427326 2.30769994 0.00427350417 2.30769994"></polygon>
                                    <polygon id="path530" fill="#F5970F" points="0.00427350417 1.21863245 99.3427326 1.21863245 99.3427326 1.76317004 0.00427350417 1.76317004"></polygon>
                                    <polygon id="path532" fill="#F5970F" points="0.00427350417 0.673760667 99.3427326 0.673760667 99.3427326 1.21863245 0.00427350417 1.21863245"></polygon>
                                    <polygon id="path534" fill="#F5970F" points="0.00427350417 0.0477777766 99.3427326 0.0477777766 99.3427326 0.67377947 0.00427350417 0.67377947"></polygon>
                                </g>
                            </g>
                        </g>
                        <polyline id="path536" fill="#AB590C" fill-rule="nonzero" points="137.413672 128.511108 128.524783 128.511108 128.666663 38.1964093 136.352988 38.1964093 136.211108 120.821365 145.095723 120.821365 145.095723 149.853842 137.413672 149.853842 137.413672 128.511108"></polyline>
                        <polyline id="path538" fill="#AB590C" fill-rule="nonzero" points="181.058115 18.1109397 89.4059807 18.1109397 89.4059807 10.4247006 188.74444 10.4247006 188.74444 64.1435881 181.058115 64.1435881 181.058115 18.1109397"></polyline>
                        <path d="M90.6974336,11.71641 L187.453841,11.71641 L187.453841,62.8522207 L154.484612,62.8522207 L154.484612,38.1623922 L134.919655,38.1623922 L134.919655,122.112817 L143.80427,122.112817 L143.80427,148.563244 L90.6974336,148.563244 L90.6974336,122.112817 L99.5854676,122.112817 L99.5854676,38.1623922 L90.6974336,38.1623922 L90.6974336,11.71641 Z M190.035893,9.13324763 L88.1145277,9.13324763 L88.1145277,40.7445289 L97.0025617,40.7445289 L97.0025617,119.529912 L88.1145277,119.529912 L88.1145277,151.145295 L146.387176,151.145295 L146.387176,119.529912 L137.501706,119.529912 L137.501706,40.7445289 L151.901706,40.7445289 L151.901706,65.4343573 L190.035893,65.4343573 L190.035893,9.13324763 Z" id="path540" fill="#FFFFFF" fill-rule="nonzero"></path>
                        <path d="M98.3239292,60.4180327 C98.3239292,60.4180327 104.269228,59.3666652 111.438459,54.5852978 L110.233331,56.0016225 C101.296579,66.6069214 89.4871773,70.9411948 88.5820491,71.2239298 C87.6777756,71.5060666 82.6182031,73.0231606 78.4264938,73.6093999 C80.7909382,72.716323 90.2683738,70.0837589 93.1709378,64.8213659 C88.7179465,66.3976052 80.8096561,64.8213659 80.8096561,64.8213659 C80.8096561,64.8213659 89.2068354,62.1204258 93.1709378,53.9693149 C89.3999978,56.9504259 81.5908527,58.8137592 80.1148698,59.1470071 C80.1816219,59.0855541 80.247092,59.0317934 80.3154681,58.9683746 C81.5184595,58.3052977 84.8170064,56.1571781 87.2598269,51.4486312 C86.6769209,51.973503 85.9136731,52.1444431 85.0627329,52.103332 C85.8803397,50.3171782 86.4290577,48.4846142 86.4290577,46.8793151 C85.0627329,47.8846142 83.58675,48.3306826 83.58675,48.3306826 C83.58675,48.3306826 84.6243569,44.168375 84.2962372,40.6323067 C83.129656,41.5153836 82.3330749,41.5153836 82.3330749,41.5153836 C82.3330749,41.5153836 83.011109,36.7598281 82.4138441,36.3307683 C80.6687159,38.2000845 78.7981177,37.565811 78.7981177,37.565811 C78.7981177,37.565811 83.8524765,32.6341872 83.1029894,25.4306831 C83.1233313,25.3511959 83.1370065,25.2958113 83.1370065,25.2958113 C90.8829037,32.3630761 90.556408,40.4847853 90.556408,40.4847853 C94.5940147,38.7205973 96.7042711,35.0700846 96.7042711,35.0700846 C96.852989,35.4476914 96.9786301,35.8240162 97.1119634,36.1992299 C97.3196557,36.9898281 97.6170916,38.0231614 97.9726471,39.0334178 C98.8478608,42.5924776 98.8923052,45.958204 97.7376044,48.8564945 C101.564955,47.0633322 104.919655,43.7042724 106.996579,41.3000844 L109.031621,39.7392298 C107.582049,49.5195714 100.946151,57.6912806 98.3239292,60.4180327" id="path542" fill="#DAD9D9" fill-rule="nonzero"></path>
                        <path d="M64.0554685,72.4699127 C61.8372634,73.8384597 59.8758105,74.7933315 59.0111096,73.1557247 C58.887178,72.9186307 58.7636737,68.8394855 58.7636737,68.8394855 C58.7636737,68.8394855 58.3233319,69.0027333 57.2626481,68.9512803 C58.4378618,68.2769214 58.757349,67.3453829 58.757349,67.3453829 L58.7636737,64.6223915 C58.7636737,64.6223915 58.1630755,65.0504257 56.8249558,64.9709385 C57.6408533,64.2992292 58.7990584,63.7249557 58.7990584,63.1974343 C58.7990584,62.6676053 58.7860669,60.5324771 58.7860669,60.5324771 C58.4378618,60.8580327 57.1754687,61.0743574 56.3011097,61.232648 C57.8959815,60.2394002 58.3597421,59.18299 58.814443,58.1847849 C59.1329045,57.478631 58.9806823,56.6229046 58.9994002,56.2223063 C57.6472635,56.1571781 55.4954687,55.7565798 54.7085456,54.0838448 C56.5120499,54.501879 58.0599131,54.4948704 60.4223062,54.3486311 C64.195383,54.1256397 66.4149556,52.9016226 67.2987163,52.0743577 L67.3094,52.0819645 C71.9694854,47.9487168 66.7818787,45.279486 69.4975196,43.9753835 C71.7852119,42.8752981 73.8281178,45.5742724 73.8281178,45.5742724 C77.0526476,49.3299133 77.1237588,59.0401695 75.7842716,62.0512805 C75.3511947,63.0221352 75.077434,63.6785454 74.7819639,64.2164087 C74.5636733,60.957178 73.1657247,57.2171781 73.1657247,57.2171781 C73.1657247,57.2171781 72.996152,63.5069215 71.1524769,65.3555539 C69.3829897,67.1213658 66.2199129,69.5222205 65.2664086,77.4094852 C65.2630753,77.438887 65.2888018,77.4315365 65.2977761,77.4455536 C65.0574343,79.0581177 65.0770924,80.8346988 65.5565796,82.7741005 C65.5565796,82.7550407 65.5592291,82.7443569 65.5632462,82.7266646 C65.6513659,83.1380321 65.7615368,83.5770919 65.9321351,83.8194851 C65.9321351,83.8194851 65.8356394,82.6555535 66.1375197,81.5731604 C67.3511094,85.0236731 70.0387162,86.7829038 70.7799128,87.0863226 C70.7799128,87.0863226 69.3899983,85.6837585 69.1002547,84.5495705 C71.9938444,86.245297 75.5175195,87.1119636 80.8967501,87.9093995 L82.4842714,88.0752115 C82.9353825,88.1376046 86.2555534,88.3316217 86.8341859,88.4017072 C82.5784595,89.905126 72.1668358,87.8410234 72.1668358,87.8410234 C71.966152,87.7683739 76.9180323,91.0128182 82.4803398,91.7974336 C82.4803398,91.7974336 72.6091435,92.8051259 67.7010239,88.8709379 C67.7010239,88.8709379 70.9888871,93.8435874 71.9164085,94.7529891 C71.9164085,94.7529891 60.9294857,91.4008524 62.3330754,77.4910237 C62.8001694,74.671793 63.8498275,72.9470067 64.0211095,72.6665794 L64.0554685,72.62487 C63.961024,72.6923059 63.8825625,72.7651264 63.8037591,72.8358956 C63.2428189,73.303246 61.8209386,74.4143571 60.4310241,74.9271776 C61.872648,74.1212802 64.0771779,72.8282033 64.0554685,72.4699127" id="path544" fill="#DAD9D9" fill-rule="nonzero"></path>
                        <path d="M88.1025619,133.899142 C88.1025619,133.899142 85.4299979,128.944441 86.1324765,121.282048 C86.2974337,119.471792 86.6418782,117.597433 87.0683739,115.777775 C87.5700833,119.286322 88.4991431,121.43333 88.4991431,121.43333 C88.7803397,116.408544 89.682049,113.136749 90.8658097,110.366664 C90.8829037,110.351279 91.1641003,109.709399 91.1641003,109.709399 C91.4683738,112.527348 92.4179464,113.634185 92.4179464,113.634185 C92.9376045,110.633331 94.4897412,108.641023 95.3076899,107.776066 C95.3076899,107.776066 95.5811942,109.082903 95.8136728,110.837604 C96.0410232,112.594014 98.2564078,124.041023 94.7658096,137.14786 C93.7487156,140.942732 92.0615362,142.87521 90.3358952,141.770937 C89.7683738,141.408543 88.9153824,140.752133 87.9179465,139.722219 C86.3401688,137.009398 84.3993996,133.126492 84.1335876,130.043586 C86.2752115,133.345296 88.1025619,133.899142 88.1025619,133.899142" id="path546" fill="#AEACAC" fill-rule="nonzero"></path>
                        <path d="M81.7351262,115.415382 C81.7491433,123.279484 85.9897414,128.652988 85.9897414,128.652988 C83.8838441,120.544441 85.8418782,116.007689 86.8025619,113.206835 C86.8555534,114.137604 86.953844,114.981194 87.0683739,115.777775 C86.6418782,117.597433 86.2974337,119.471792 86.1324765,121.282048 C85.4299979,128.944441 88.1025619,133.899142 88.1025619,133.899142 C88.1025619,133.899142 86.2752115,133.345296 84.1335876,130.043586 C84.3993996,133.126492 86.3401688,137.009398 87.9179465,139.722219 C85.9008526,137.637603 83.2865791,133.999142 81.1876048,127.982903 C78.042904,118.948715 80.5021347,118.051279 81.7351262,115.415382" id="path548" fill="#DAD9D9" fill-rule="nonzero"></path>
                        <path d="M22.4241875,110.821365 C22.6549567,109.067519 22.9366661,107.759826 22.9366661,107.759826 C23.7480336,108.624784 25.2974353,110.616237 25.8186318,113.617091 C25.8186318,113.617091 26.7641874,112.507689 27.0752985,109.688886 C27.0752985,109.688886 27.3541019,110.330766 27.3667515,110.351279 C28.555042,113.117946 29.4605121,116.388886 29.73923,121.410253 C29.73923,121.410253 31.1511958,118.216236 31.4342727,113.190595 C32.3951274,115.994869 34.6591444,120.393159 32.9747855,128.502561 C32.9747855,128.502561 36.4806828,123.261535 36.5081187,115.398288 C37.7353837,118.032476 40.0303409,118.93333 36.8810247,127.963245 C34.6394008,134.38974 32.7406829,137.298287 31.1454693,139.164954 C29.333589,141.272646 25.7382045,144.81709 23.6899139,138.488885 C23.5723926,138.072646 23.4485464,137.621364 23.3052986,137.128202 C19.7276063,124.288031 22.1985465,112.572647 22.4241875,110.821365" id="path550" fill="#696566" fill-rule="nonzero"></path>
                        <path d="M12.5380407,54.0150482 C12.5256407,53.9905149 12.512574,53.9666482 12.498974,53.9426482 C12.5479074,53.9827816 12.6099074,54.0415816 12.6547074,54.0733149 C12.614574,54.0561149 12.5787074,54.0347816 12.5380407,54.0150482" id="path552" fill="#AEACAC" fill-rule="nonzero"></path>
                        <g id="path554"></g>
                        <path d="M39.8046999,37.565811 C39.8046999,37.565811 37.9417085,38.2000845 36.1952128,36.3307683 C35.6029906,36.7598281 36.2776914,41.5153836 36.2776914,41.5153836 C36.2776914,41.5153836 35.4864094,41.5153836 34.3169222,40.6323067 C33.9873496,44.168375 35.0273496,48.3306826 35.0273496,48.3306826 C35.0273496,48.3306826 33.5540163,47.8846142 32.1901701,46.8793151 C32.1901701,48.9195714 33.0665804,51.3237594 34.2731615,53.537691 C33.159059,52.9206824 32.0332471,52.1784602 31.0483753,51.2941013 C33.7780333,56.5367507 37.5520503,58.604443 38.3136743,58.9803404 C38.3333324,58.9983746 38.3513666,59.0127336 38.3700845,59.0307678 C37.4726486,58.8341011 29.0882044,56.9367507 25.1505977,53.8137593 C29.1102557,61.9668361 37.504358,64.666836 37.504358,64.666836 C37.504358,64.666836 29.6010249,66.2443573 25.1505977,64.666836 C28.0499138,69.9299128 34.6711102,70.7725623 38.7159819,71.256323 C44.0388023,71.8966649 46.6927339,71.2249555 48.3870928,72.3914512 C48.5246142,72.486323 48.6912808,72.6505965 48.8692295,72.8572631 C48.776409,72.8051264 48.6839304,72.7530751 48.5846996,72.7026478 L48.462221,72.6325623 C48.462221,72.6325623 48.4632467,72.6418785 48.4692296,72.6462375 C48.4475202,72.6325623 48.4308535,72.6271777 48.4091441,72.6171777 C48.4091441,72.6171777 48.4475202,72.6462375 48.5079475,72.6993144 C48.7629902,73.0511948 49.9952979,74.8941862 49.6397423,76.3995707 C45.1308536,76.4309383 42.8658964,74.7582887 37.8692298,75.2657246 C38.2746144,77.5627331 31.6723069,82.0516219 30.0483753,82.862562 C33.3707684,79.2584596 33.9997427,74.471793 32.9517086,74.133246 C33.5169222,73.7146135 35.9128196,73.5623913 38.0909392,73.5673486 C38.8288024,73.6351264 39.4060674,73.6615366 39.7446144,73.6077759 C39.7849563,73.6077759 39.8210246,73.6093999 39.8651272,73.6093999 C39.8367511,73.6077759 39.8046999,73.6051264 39.7766657,73.5974341 C39.789999,73.5974341 39.8036742,73.5947845 39.8120503,73.5930751 C35.6252983,73.0035024 30.5632471,71.4870068 29.6541018,71.2042717 C29.6541018,71.2042717 17.0486321,66.6069214 8.11030749,56.0016225 L6.91139299,54.5852978 C14.0792304,59.3666652 20.027008,60.4180327 20.027008,60.4180327 C17.2923073,57.578802 10.1986322,48.8384603 9.14760661,38.5205973 C9.14760661,38.5205973 14.2414526,45.8710245 20.6076063,48.8564945 C19.0367517,44.9001698 19.6775209,40.0767511 21.6499995,35.0700846 C21.6499995,35.0700846 23.7533327,38.7205973 27.7891446,40.4847853 C27.7891446,40.4847853 27.4639309,32.3630761 35.2063239,25.2958113 C35.2063239,25.2958113 35.2884607,25.6350421 35.4634179,26.2058968 C35.134529,32.9827342 39.8046999,37.565811 39.8046999,37.565811" id="path556" fill="#696566" fill-rule="nonzero"></path>
                        <path d="M39.8835033,83.378374 C39.7589734,83.0431603 39.6824776,82.6789723 39.6651272,82.2989723 C39.5736742,80.2677758 41.1775203,78.549998 43.244187,78.4605109 C45.0093151,78.3877758 46.5414518,79.5299125 47.0055544,81.1354681 C46.2953835,81.5992287 45.8159818,81.7752116 45.2674348,81.927092 C45.0924775,81.3405108 44.1706827,81.0319638 43.5226485,81.0590578 C42.7530759,81.0874339 42.2452981,81.5608527 41.9675203,82.275639 C41.9207682,82.4005108 41.8716229,82.8529039 41.9036742,82.9700834 C41.2233323,83.2158099 40.8123067,83.2688868 39.8835033,83.378374" id="path558" fill="#FAB20B" fill-rule="nonzero"></path>
                        <path d="M45.2410245,21.1144576 C45.3790245,21.0087243 45.4847578,20.9301909 45.5890245,20.8529909 C45.5644912,20.9635243 45.5338245,21.0811243 45.5114245,21.1889909 C45.4234245,21.1701909 45.3300912,21.1368576 45.2410245,21.1144576" id="path560" fill="#AEACAC" fill-rule="nonzero"></path>
                        <path d="M82.1945279,44.8684604 C82.1945279,44.8684604 81.2042715,46.4442723 79.9111946,47.5043578 C79.9111946,47.5043578 80.4303399,45.2821356 80.1595706,41.2853836 C80.1595706,41.2853836 79.1796561,42.6024776 78.8341006,43.3673493 C77.9727331,41.1478622 72.743417,33.5941017 71.9824768,29.3025634 C71.9824768,29.3025634 71.6780324,29.8982044 71.4617076,30.9000847 C71.3825623,31.2436744 71.3939298,31.7017086 71.3939298,31.7017086 C71.3939298,31.7017086 71.3127333,31.5888881 71.1081179,30.9641873 C71.1081179,30.9641873 70.74487,29.686495 70.4557247,28.4128198 C70.1662376,27.1050421 69.9539299,26.8759822 68.9833316,22.1127345 L68.1420496,23.5710251 C66.5411094,18.6631619 64.3813659,16.3351278 62.4752976,15.2400851 C61.1375198,14.4724783 59.9241865,14.3085467 59.1219643,14.3085467 C57.1694858,14.3085467 52.8185457,15.2187176 50.097862,23.5710251 L49.2568364,22.1127345 C48.2855543,26.8759822 48.0746142,27.1050421 47.7804262,28.4128198 C47.4926484,29.686495 47.1270928,30.9641873 47.1270928,30.9641873 C46.9330757,31.5888881 46.8459817,31.7017086 46.8459817,31.7017086 C46.8459817,31.7017086 46.8570074,31.2436744 46.783845,30.9000847 C46.555127,29.8982044 46.2563236,29.3025634 46.2563236,29.3025634 C45.4961527,33.5941017 40.2674349,41.1478622 39.4060674,43.3673493 C39.0545289,42.6024776 38.0762384,41.2853836 38.0762384,41.2853836 C37.8017939,45.2581185 38.3136743,47.4726484 38.319999,47.4999988 C38.311623,47.4923065 38.3089734,47.4923065 38.3002555,47.485298 C37.0246145,46.4256399 36.0436743,44.8684604 36.0436743,44.8684604 C36.2817085,55.2427337 40.6823921,60.2623917 40.6823921,60.2623917 C40.6823921,60.2623917 40.4073494,59.2137592 40.1238452,55.2010243 C40.3799135,52.6896568 41.4076058,44.5272638 44.1412809,41.8386314 C45.4730758,40.5275204 47.6245287,40.5725631 49.7382894,40.7916229 C52.7597423,41.1094007 55.6974345,42.0682895 55.9418789,42.1915374 C56.3511952,42.4024776 56.424614,42.8993152 56.2199131,43.2138451 C56.0209388,43.5289733 54.7412807,44.1957254 54.7412807,44.1957254 C53.6805969,45.0050416 52.723332,46.2333322 52.723332,46.2333322 C50.5024774,49.6931612 50.6741013,51.0129902 50.6741013,51.0129902 C50.6757252,51.0163235 50.6797423,51.0189731 50.6811098,51.0223064 C50.6874346,51.0540158 50.7245286,51.2463235 50.7912808,51.577862 C51.2482893,53.8368363 53.0926482,62.4709386 55.9608533,69.5222205 C55.9608533,69.5222205 54.5556397,59.8991438 53.4895713,52.8145286 C55.0507679,53.2993149 57.0499131,53.5673491 59.0975199,53.5673491 C59.1085455,53.5673491 59.114272,53.5673491 59.1219643,53.5673491 C59.1219643,53.5673491 59.1289729,53.5673491 59.1329045,53.5673491 C63.0182036,53.5673491 66.7711949,52.6292295 67.5658103,51.0129902 C67.5658103,51.0129902 67.5858103,50.7939304 67.4799983,50.3282039 C67.3190581,49.6180329 66.8552975,48.3212808 65.516836,46.2333322 C65.516836,46.2333322 64.5605967,45.0050416 63.4965796,44.1957254 C63.4965796,44.1957254 62.2169215,43.5289733 62.0195711,43.2138451 C61.8165797,42.8993152 61.8810241,42.4024776 62.2996566,42.1915374 C62.5511095,42.0639306 65.3618787,40.752905 68.4258103,40.42564 C70.4082888,40.2213665 72.5093144,40.2751272 74.0941862,41.8386314 C77.2803399,44.9693151 78.3273485,51.9554688 78.1390579,54.7605969 C77.8511946,59.1649558 77.5514511,60.2614515 77.5514511,60.2623917 C77.5514511,60.2623917 81.9574338,55.2427337 82.1945279,44.8684604 Z M80.8096561,64.8213659 C80.8096561,64.8213659 88.7179465,66.3976052 93.1709378,64.8213659 C90.2683738,70.0837589 80.7909382,72.716323 78.4264938,73.6093999 C80.854357,73.4992289 84.6134167,73.5974341 85.3278611,74.133246 C84.2892287,74.4735024 84.9098269,79.2594852 88.2358952,82.862562 C86.6145277,82.0589723 80.0080322,77.5627331 80.4217074,75.2657246 C75.4170067,74.7582887 73.1573486,76.4309383 68.6528188,76.3995707 C68.4468359,75.5515366 68.7536735,74.5950409 69.1055538,73.8564939 C69.4464085,73.1427332 69.8283743,72.6325623 69.8283743,72.6325623 C68.5987162,73.2101691 68.2555538,73.8368358 67.6926479,74.4591434 C67.6926479,74.4307674 67.6946137,74.4034169 67.7010239,74.3716221 C68.2575197,72.3854683 69.4424769,69.7852974 70.9094854,67.843588 C70.9094854,67.843588 66.1935881,71.4386307 65.2977761,77.4455536 C65.2888018,77.4315365 65.2630753,77.438887 65.2664086,77.4094852 C66.2199129,69.5222205 69.3829897,67.1213658 71.1524769,65.3555539 C72.996152,63.5069215 73.1657247,57.2171781 73.1657247,57.2171781 C73.1657247,57.2171781 74.5636733,60.957178 74.7819639,64.2164087 C75.077434,63.6785454 75.3511947,63.0221352 75.7842716,62.0512805 C77.1237588,59.0401695 77.0526476,49.3299133 73.8281178,45.5742724 C73.8281178,45.5742724 71.7965794,42.8649562 69.4975196,43.9753835 C66.7845282,45.285469 71.9694854,47.9487167 67.3094,52.0819645 L67.2987163,52.0743577 C66.4149556,52.9016226 64.195383,54.1256397 60.4223062,54.3486311 C58.0599131,54.4948704 56.5120499,54.501879 54.7085456,54.0838448 C55.4954687,55.7565798 57.6472635,56.1571781 58.9994002,56.2223063 C58.9806823,56.6229046 59.1329045,57.478631 58.814443,58.1847849 C58.3597421,59.18299 57.8959815,60.2394002 56.3011097,61.232648 C57.1754687,61.0743574 58.4378618,60.8580327 58.7860669,60.5324771 C58.7860669,60.5324771 58.7990584,62.6676053 58.7990584,63.1974343 C58.7990584,63.7249557 57.6408533,64.2992292 56.8249558,64.9709385 C58.1630755,65.0504257 58.7636737,64.6223915 58.7636737,64.6223915 L58.757349,67.3453829 C58.757349,67.3453829 58.4378618,68.2769214 57.2626481,68.9512803 C58.3233319,69.0027333 58.7636737,68.8394855 58.7636737,68.8394855 C58.7636737,68.8394855 58.887178,72.9186307 59.0111096,73.1557247 C59.8758105,74.7933315 61.8372634,73.8384597 64.0554685,72.4699127 C64.0771779,72.8282033 61.872648,74.1212802 60.4310241,74.9271776 C59.9846139,75.0914511 59.5423062,75.1966648 59.1329045,75.1966648 C57.4208533,75.1966648 55.0941867,73.3657247 54.3976909,72.7837589 C54.3279474,72.7229896 54.2588021,72.6665794 54.1906824,72.6078614 L54.2200841,72.6565794 C54.4106824,72.9557247 55.4490584,74.6744426 55.9024772,77.4756391 C57.3153832,91.3803396 46.3291441,94.733331 46.3291441,94.733331 C47.2449561,93.8273481 50.5341868,88.8546986 50.5341868,88.8546986 C45.6263236,92.7871772 35.7575205,91.7811943 35.7575205,91.7811943 C41.312734,90.9965789 46.2717082,87.7512799 46.072392,87.8213653 C46.072392,87.8213653 35.663076,89.8888866 31.4088881,88.3820491 C31.9838454,88.3162371 35.3031615,88.1196559 35.7525632,88.0546987 L37.3411102,87.888032 C42.7203408,87.0948696 46.2440159,86.2290577 49.1456398,84.5342714 C48.8488022,85.6692286 47.4542723,87.0683739 47.4542723,87.0683739 C48.1970928,86.7632457 50.8921355,85.0033312 52.1013662,81.5545279 C52.3988021,82.6322202 52.3026483,83.8027329 52.3026483,83.8027329 C52.4723064,83.5590577 52.5924773,83.1199979 52.6763235,82.7099979 C52.6763235,82.7246988 52.6776055,82.7380321 52.6776055,82.7550407 C54.9442721,73.5870922 47.3304262,67.8248701 47.3304262,67.8248701 C48.6298278,69.547947 49.7115372,71.7898273 50.3255543,73.6615366 L48.9232466,72.8872631 C48.9062381,72.8769213 48.88658,72.867605 48.8692295,72.8572631 C48.6912808,72.6505965 48.5246142,72.486323 48.3870928,72.3914512 C46.6927339,71.2249555 44.0388023,71.8966649 38.7159819,71.256323 C34.6711102,70.7725623 28.0499138,69.9299128 25.1505977,64.666836 C29.6010249,66.2443573 37.504358,64.666836 37.504358,64.666836 C37.504358,64.666836 29.1102557,61.9668361 25.1505977,53.8137593 C29.0882044,56.9367507 37.4726486,58.8341011 38.3700845,59.0307678 C38.3513666,59.0127336 38.3333324,58.9983746 38.3136743,58.9803404 C37.5520503,58.604443 33.7780333,56.5367507 31.0483753,51.2941013 C32.0332471,52.1784602 33.159059,52.9206824 34.2731615,53.537691 C33.0665804,51.3237594 32.1901701,48.9195714 32.1901701,46.8793151 C33.5540163,47.8846142 35.0273496,48.3306826 35.0273496,48.3306826 C35.0273496,48.3306826 33.9873496,44.168375 34.3169222,40.6323067 C35.4864094,41.5153836 36.2776914,41.5153836 36.2776914,41.5153836 C36.2776914,41.5153836 35.6029906,36.7598281 36.1952128,36.3307683 C37.9417085,38.2000845 39.8046999,37.565811 39.8046999,37.565811 C39.8046999,37.565811 35.134529,32.9827342 35.4634179,26.2058968 C36.0543581,28.1393155 37.7511102,32.8572641 41.3088024,37.1204264 C41.3088024,37.1204264 43.5987169,32.7981188 44.4264091,24.3358968 L46.3037595,25.8847857 C46.3291441,23.7299994 46.8288877,20.9735892 47.8849561,19.2111106 C48.7987167,17.6872645 50.2070073,16.114444 50.2070073,16.114444 C50.2070073,16.114444 53.3182893,12.7437604 59.5519643,12.7437604 C61.2843574,12.7437604 62.6986309,13.0101706 63.852477,13.3870937 C66.8509385,14.3682902 68.0335026,16.1314526 68.0335026,16.1314526 C68.0335026,16.1314526 69.442135,17.7033329 70.3545282,19.2324782 C71.4109384,20.9932473 71.9164085,23.7452986 71.9370922,25.9051276 L73.9249554,24.2598285 C74.7486306,32.7206829 77.0409382,37.1204264 77.0409382,37.1204264 C81.2717074,32.0479479 82.8695706,26.3291446 83.1029894,25.4306831 C83.8524765,32.6341872 78.7981177,37.565811 78.7981177,37.565811 C78.7981177,37.565811 80.6687159,38.2000845 82.4138441,36.3307683 C83.011109,36.7598281 82.3330749,41.5153836 82.3330749,41.5153836 C82.3330749,41.5153836 83.129656,41.5153836 84.2962372,40.6323067 C84.6243569,44.168375 83.58675,48.3306826 83.58675,48.3306826 C83.58675,48.3306826 85.0627329,47.8846142 86.4290577,46.8793151 C86.4290577,48.4846142 85.8803397,50.3171782 85.0627329,52.103332 C85.9136731,52.1444431 86.6769209,51.973503 87.2598269,51.4486312 C84.8170064,56.1571781 81.5184595,58.3052977 80.3154681,58.9683746 C80.247092,59.0317934 80.1816219,59.0855541 80.1148698,59.1470071 C81.5908527,58.8137592 89.3999978,56.9504259 93.1709378,53.9693149 C89.2068354,62.1204258 80.8096561,64.8213659 80.8096561,64.8213659 Z" id="path562" fill="#AEACAC" fill-rule="nonzero"></path>
                        <path d="M74.7165793,81.0757245 C74.0691434,81.0487159 73.1470067,81.3578612 72.969058,81.9477757 C72.429229,81.7978612 71.9400837,81.6139296 71.2336734,81.1505108 C71.6927333,79.5465792 73.2258101,78.40581 74.9943571,78.4782032 C77.0596562,78.5664083 78.6638442,80.2874339 78.5723912,82.3160663 C78.5557245,82.6959808 78.4755536,83.0618783 78.3557245,83.4000834 C77.4269211,83.2855535 77.0209382,83.2335022 76.3321348,82.9900834 C76.3675195,82.8746133 76.3154682,82.4192287 76.2699981,82.294015 C75.993246,81.5805108 75.4877759,81.1058099 74.7165793,81.0757245" id="path564" fill="#FAB20B" fill-rule="nonzero"></path>
                        <path d="M38.3002555,47.485298 C38.3138555,47.4962313 38.3179888,47.4962313 38.3310555,47.5082313 L38.3330555,47.5150313 C38.3226555,47.5055646 38.3117221,47.4946313 38.3002555,47.485298" id="path566" fill="#100F0D" fill-rule="nonzero"></path>
                        <path d="M59.1329045,19.2027346 C61.8092292,19.2027346 65.4009385,19.7623072 65.4009385,20.4350422 C65.4009385,22.7947858 63.6762377,23.4658968 63.5299984,23.0418798 C63.3794001,22.6222217 63.6030753,21.8957259 63.2595711,21.8102559 C62.0145284,21.5067516 62.1243574,20.8606832 59.1329045,20.8606832 C56.1541866,20.8606832 56.2576909,21.5067516 55.0123918,21.8102559 C54.6707679,21.8957259 54.8964944,22.6222217 54.7476055,23.0418798 C54.6003405,23.4658968 52.8719645,22.7947858 52.8719645,20.4350422 C52.8719645,19.7623072 56.4633319,19.2027346 59.1329045,19.2027346" id="path568" fill="#FFFFFF" fill-rule="nonzero"></path>
                        <path d="M59.1329045,19.2027346 C56.4633319,19.2027346 52.8719645,19.7623072 52.8719645,20.4350422 C52.8719645,22.7947858 54.6003405,23.4658968 54.7476055,23.0418798 C54.8964944,22.6222217 54.6707679,21.8957259 55.0123918,21.8102559 C56.2576909,21.5067516 56.1541866,20.8606832 59.1329045,20.8606832 C62.1243574,20.8606832 62.0145284,21.5067516 63.2595711,21.8102559 C63.6030753,21.8957259 63.3794001,22.6222217 63.5299984,23.0418798 C63.6762377,23.4658968 65.4009385,22.7947858 65.4009385,20.4350422 C65.4009385,19.7623072 61.8092292,19.2027346 59.1329045,19.2027346 Z M82.1945279,44.8684604 C81.9574338,55.2427337 77.5514511,60.2623917 77.5514511,60.2623917 C77.5514511,60.2614515 77.8511946,59.1649558 78.1390579,54.7605969 C78.3273485,51.9554688 77.2803399,44.9693151 74.0941862,41.8386314 C72.5093144,40.2751272 70.4082888,40.2213665 68.4258103,40.42564 C65.3618787,40.752905 62.5511095,42.0639306 62.2996566,42.1915374 C61.8810241,42.4024776 61.8165797,42.8993152 62.0195711,43.2138451 C62.2169215,43.5289733 63.4965796,44.1957254 63.4965796,44.1957254 C64.5605967,45.0050416 65.516836,46.2333322 65.516836,46.2333322 C66.8552975,48.3212808 67.3190581,49.6180329 67.4799983,50.3282039 C67.5858103,50.7939304 67.5658103,51.0129902 67.5658103,51.0129902 C66.7711949,52.6292295 63.0182036,53.5673491 59.1329045,53.5673491 C59.1289729,53.5673491 59.1219643,53.5673491 59.1219643,53.5673491 C59.114272,53.5673491 59.1085455,53.5673491 59.0975199,53.5673491 C57.0499131,53.5673491 55.0507679,53.2993149 53.4895713,52.8145286 C54.5556397,59.8991438 55.9608533,69.5222205 55.9608533,69.5222205 C53.0926482,62.4709386 51.2482893,53.8368363 50.7912808,51.577862 C50.7245286,51.2463235 50.6874346,51.0540158 50.6811098,51.0223064 C50.6797423,51.0189731 50.6757252,51.0163235 50.6741013,51.0129902 C50.6741013,51.0129902 50.5024774,49.6931612 52.723332,46.2333322 C52.723332,46.2333322 53.6805969,45.0050416 54.7412807,44.1957254 C54.7412807,44.1957254 56.0209388,43.5289733 56.2199131,43.2138451 C56.424614,42.8993152 56.3511952,42.4024776 55.9418789,42.1915374 C55.6974345,42.0682895 52.7597423,41.1094007 49.7382894,40.7916229 C47.9096569,40.6026486 46.0546997,40.5468366 44.7239305,41.3829049 C44.5489732,41.5094007 44.3716228,41.6282896 44.2070929,41.7855545 C44.1857254,41.804187 44.1613664,41.8179477 44.1412809,41.8386314 C41.4076058,44.5272638 40.3799135,52.6896568 40.1238452,55.2010243 C40.4073494,59.2137592 40.6823921,60.2623917 40.6823921,60.2623917 C40.6823921,60.2623917 36.2817085,55.2427337 36.0436743,44.8684604 C36.0436743,44.8684604 37.0246145,46.4256399 38.3002555,47.485298 C38.3076059,47.4912809 38.3146144,47.4982894 38.3212811,47.5043578 L38.319999,47.4999988 C38.3136743,47.4726484 37.8017939,45.2581185 38.0762384,41.2853836 C38.0762384,41.2853836 39.0545289,42.6024776 39.4060674,43.3673493 C40.2674349,41.1478622 45.4961527,33.5941017 46.2563236,29.3025634 C46.2563236,29.3025634 46.555127,29.8982044 46.783845,30.9000847 C46.8570074,31.2436744 46.8459817,31.7017086 46.8459817,31.7017086 C46.8459817,31.7017086 46.9330757,31.5888881 47.1270928,30.9641873 C47.1270928,30.9641873 47.4926484,29.686495 47.7804262,28.4128198 C48.0746142,27.1050421 48.2855543,26.8759822 49.2568364,22.1127345 L50.097862,23.5710251 C52.8185457,15.2187176 57.1694858,14.3085467 59.1219643,14.3085467 C59.9241865,14.3085467 61.1375198,14.4724783 62.4752976,15.2400851 C64.3813659,16.3351278 66.5411094,18.6631619 68.1420496,23.5710251 L68.9833316,22.1127345 C69.9539299,26.8759822 70.1662376,27.1050421 70.4557247,28.4128198 C70.74487,29.686495 71.1081179,30.9641873 71.1081179,30.9641873 C71.3127333,31.5888881 71.3939298,31.7017086 71.3939298,31.7017086 C71.3939298,31.7017086 71.3825623,31.2436744 71.4617076,30.9000847 C71.6780324,29.8982044 71.9824768,29.3025634 71.9824768,29.3025634 C72.743417,33.5941017 77.9727331,41.1478622 78.8341006,43.3673493 C79.1796561,42.6024776 80.1595706,41.2853836 80.1595706,41.2853836 C80.4303399,45.2821356 79.9111946,47.5043578 79.9111946,47.5043578 C81.2042715,46.4442723 82.1945279,44.8684604 82.1945279,44.8684604 Z" id="path570" fill="#100F0D" fill-rule="nonzero"></path>
                        <path d="M59.1329045,41.0967511 C58.3767507,41.0967511 57.5901695,41.0623921 56.8011952,41.0093152 C53.6271781,40.3111956 50.6136739,39.3332469 48.2862381,38.9205973 C48.8281184,36.7958965 50.4567509,35.5001701 50.6888022,35.9324777 C50.9652124,36.4606828 50.7758962,38.9212811 51.4219645,39.025811 C53.7510243,39.4034178 53.5366653,40.1966657 59.1329045,40.1966657 C64.7348702,40.1966657 64.5222206,39.4034178 66.8499983,39.025811 C67.4926479,38.9212811 67.3073487,36.4606828 67.5811094,35.9324777 C67.8158103,35.5041017 69.4130752,36.7708538 69.9705965,38.8582042 C67.7400838,39.2204264 64.7742719,40.2290588 61.5130754,40.9605118 C60.714101,41.0419648 59.9122207,41.0967511 59.1329045,41.0967511" id="path572" fill="#FFFFFF" fill-rule="nonzero"></path>
                        <path d="M106.996579,41.3000844 C104.919655,43.7042724 101.564955,47.0633322 97.7376044,48.8564945 C98.8923052,45.958204 98.8478608,42.5924776 97.9726471,39.0334178 C97.7435873,38.099999 97.4504249,37.1547854 97.1119634,36.1992299 C96.9786301,35.8240162 96.852989,35.4476914 96.7042711,35.0700846 C96.7042711,35.0700846 94.5940147,38.7205973 90.556408,40.4847853 C90.556408,40.4847853 90.8829037,32.3630761 83.1370065,25.2958113 C83.1370065,25.2958113 83.1233313,25.3511959 83.1029894,25.4306831 C82.8695706,26.3291446 81.2717074,32.0479479 77.0409382,37.1204264 C77.0409382,37.1204264 74.7486306,32.7206829 73.9249554,24.2598285 L71.9370922,25.9051276 C71.9164085,23.7452986 71.4109384,20.9932473 70.3545282,19.2324782 C69.442135,17.7033329 68.0335026,16.1314526 68.0335026,16.1314526 C68.0335026,16.1314526 66.8509385,14.3682902 63.852477,13.3870937 C62.6986309,13.0101706 61.2843574,12.7437604 59.5519643,12.7437604 C53.3182893,12.7437604 50.2070073,16.114444 50.2070073,16.114444 C50.2070073,16.114444 48.7987167,17.6872645 47.8849561,19.2111106 C46.8288877,20.9735892 46.3291441,23.7299994 46.3037595,25.8847857 L44.4264091,24.3358968 C43.5987169,32.7981188 41.3088024,37.1204264 41.3088024,37.1204264 C37.7511102,32.8572641 36.0543581,28.1393155 35.4634179,26.2058968 C35.2884607,25.6350421 35.2063239,25.2958113 35.2063239,25.2958113 C27.4639309,32.3630761 27.7891446,40.4847853 27.7891446,40.4847853 C23.7533327,38.7205973 21.6499995,35.0700846 21.6499995,35.0700846 C19.6775209,40.0767511 19.0367517,44.9001698 20.6076063,48.8564945 C14.2414526,45.8710245 9.14760661,38.5205973 9.14760661,38.5205973 C10.1986322,48.8384603 17.2923073,57.578802 20.027008,60.4180327 C20.027008,60.4180327 14.0792304,59.3666652 6.91139299,54.5852978 L8.11030749,56.0016225 C17.0486321,66.6069214 29.6541018,71.2042717 29.6541018,71.2042717 C30.5632471,71.4870068 35.6252983,73.0035024 39.8120503,73.5930751 C39.8036742,73.5947845 39.789999,73.5974341 39.7766657,73.5974341 C39.8046999,73.6051264 39.8367511,73.6077759 39.8651272,73.6093999 C39.8210246,73.6093999 39.7849563,73.6077759 39.7446144,73.6077759 C39.4060674,73.6615366 38.8288024,73.6351264 38.0909392,73.5673486 C35.9128196,73.5623913 33.5169222,73.7146135 32.9517086,74.133246 C33.9997427,74.471793 33.3707684,79.2584596 30.0483753,82.862562 C31.6723069,82.0516219 38.2746144,77.5627331 37.8692298,75.2657246 C42.8658964,74.7582887 45.1308536,76.4309383 49.6397423,76.3995707 C49.9952979,74.8941862 48.7629902,73.0511948 48.5079475,72.6993144 C48.4475202,72.6462375 48.4091441,72.6171777 48.4091441,72.6171777 C48.4308535,72.6271777 48.4475202,72.6325623 48.4692296,72.6462375 C48.4632467,72.6418785 48.462221,72.6325623 48.462221,72.6325623 L48.5846996,72.7026478 C48.6839304,72.7530751 48.776409,72.8051264 48.8692295,72.8572631 C48.88658,72.867605 48.9062381,72.8769213 48.9232466,72.8872631 L50.3255543,73.6615366 C49.7115372,71.7898273 48.6298278,69.547947 47.3304262,67.8248701 C47.3304262,67.8248701 54.9442721,73.5870922 52.6776055,82.7550407 C52.6776055,82.7380321 52.6763235,82.7246988 52.6763235,82.7099979 C52.5924773,83.1199979 52.4723064,83.5590577 52.3026483,83.8027329 C52.3026483,83.8027329 52.3988021,82.6322202 52.1013662,81.5545279 C50.8921355,85.0033312 48.1970928,86.7632457 47.4542723,87.0683739 C47.4542723,87.0683739 48.8488022,85.6692286 49.1456398,84.5342714 C46.2440159,86.2290577 42.7203408,87.0948696 37.3411102,87.888032 L35.7525632,88.0546987 C35.3031615,88.1196559 31.9838454,88.3162371 31.4088881,88.3820491 C35.663076,89.8888866 46.072392,87.8213653 46.072392,87.8213653 C46.2717082,87.7512799 41.312734,90.9965789 35.7575205,91.7811943 C35.7575205,91.7811943 45.6263236,92.7871772 50.5341868,88.8546986 C50.5341868,88.8546986 47.2449561,93.8273481 46.3291441,94.733331 C46.3291441,94.733331 57.3153832,91.3803396 55.9024772,77.4756391 C55.4490584,74.6744426 54.4106824,72.9557247 54.2200841,72.6565794 L54.1906824,72.6078614 C54.2588021,72.6665794 54.3279474,72.7229896 54.3976909,72.7837589 C55.0941867,73.3657247 57.4208533,75.1966648 59.1329045,75.1966648 C59.5423062,75.1966648 59.9846139,75.0914511 60.4310241,74.9271776 C61.8209386,74.4143571 63.2428189,73.303246 63.8037591,72.8358956 C63.8825625,72.7651264 63.961024,72.6923059 64.0554685,72.62487 L64.0211095,72.6665794 C63.8498275,72.9470067 62.8001694,74.671793 62.3330754,77.4910237 C60.9294857,91.4008524 71.9164085,94.7529891 71.9164085,94.7529891 C70.9888871,93.8435874 67.7010239,88.8709379 67.7010239,88.8709379 C72.6091435,92.8051259 82.4803398,91.7974336 82.4803398,91.7974336 C76.9180323,91.0128182 71.966152,87.7683739 72.1668358,87.8410234 C72.1668358,87.8410234 82.5784595,89.905126 86.8341859,88.4017072 C86.2555534,88.3316217 82.9353825,88.1376046 82.4842714,88.0752115 L80.8967501,87.9093995 C75.5175195,87.1119636 71.9938444,86.245297 69.1002547,84.5495705 C69.3899983,85.6837585 70.7799128,87.0863226 70.7799128,87.0863226 C70.0387162,86.7829038 67.3511094,85.0236731 66.1375197,81.5731604 C65.8356394,82.6555535 65.9321351,83.8194851 65.9321351,83.8194851 C65.7615368,83.5770919 65.6513659,83.1380321 65.5632462,82.7266646 C65.5592291,82.7443569 65.5565796,82.7550407 65.5565796,82.7741005 C65.0770924,80.8346988 65.0574343,79.0581177 65.2977761,77.4455536 C66.1935881,71.4386307 70.9094854,67.843588 70.9094854,67.843588 C69.4424769,69.7852974 68.2575197,72.3854683 67.7010239,74.3716221 C67.6946137,74.4034169 67.6926479,74.4307674 67.6926479,74.4591434 C68.2555538,73.8368358 68.5987162,73.2101691 69.8283743,72.6325623 C69.8283743,72.6325623 69.4464085,73.1427332 69.1055538,73.8564939 C68.7536735,74.5950409 68.4468359,75.5515366 68.6528188,76.3995707 C73.1573486,76.4309383 75.4170067,74.7582887 80.4217074,75.2657246 C80.0080322,77.5627331 86.6145277,82.0589723 88.2358952,82.862562 C84.9098269,79.2594852 84.2892287,74.4735024 85.3278611,74.133246 C84.6134167,73.5974341 80.854357,73.4992289 78.4264938,73.6093999 C82.6182031,73.0231606 87.6777756,71.5060666 88.5820491,71.2239298 C89.4871773,70.9411948 101.296579,66.6069214 110.233331,56.0016225 L111.438459,54.5852978 C104.269228,59.3666652 98.3239292,60.4180327 98.3239292,60.4180327 C100.946151,57.6912806 107.582049,49.5195714 109.031621,39.7392298 C109.092305,39.3342725 109.158117,38.931623 109.200852,38.5205973 C109.200852,38.5205973 108.37863,39.7018793 106.996579,41.3000844 Z M23.6899139,138.488885 C25.7382045,144.81709 29.333589,141.272646 31.1454693,139.164954 C32.7406829,137.298287 34.6394008,134.38974 36.8810247,127.963245 C40.0303409,118.93333 37.7353837,118.032476 36.5081187,115.398288 C36.4806828,123.261535 32.9747855,128.502561 32.9747855,128.502561 C34.6591444,120.393159 32.3951274,115.994869 31.4342727,113.190595 C31.1511958,118.216236 29.73923,121.410253 29.73923,121.410253 C29.4605121,116.388886 28.555042,113.117946 27.3667515,110.351279 C27.3541019,110.330766 27.0752985,109.688886 27.0752985,109.688886 C26.7641874,112.507689 25.8186318,113.617091 25.8186318,113.617091 C25.2974353,110.616237 23.7480336,108.624784 22.9366661,107.759826 C22.9366661,107.759826 22.6549567,109.067519 22.4241875,110.821365 C22.1985465,112.572647 19.7276063,124.288031 23.3052986,137.128202 C23.4485464,137.621364 23.5723926,138.072646 23.6899139,138.488885 Z M41.9675203,82.275639 C42.2452981,81.5608527 42.7530759,81.0874339 43.5226485,81.0590578 C44.1706827,81.0319638 45.0924775,81.3405108 45.2674348,81.927092 C45.8159818,81.7752116 46.2953835,81.5992287 47.0055544,81.1354681 C46.5414518,79.5299125 45.0093151,78.3877758 43.244187,78.4605109 C41.1775203,78.549998 39.5736742,80.2677758 39.6651272,82.2989723 C39.6824776,82.6789723 39.7589734,83.0431603 39.8835033,83.378374 C40.8123067,83.2688868 41.2233323,83.2158099 41.9036742,82.9700834 C41.8716229,82.8529039 41.9207682,82.4005108 41.9675203,82.275639 Z M87.9179465,139.722219 C88.9153824,140.752133 89.7683738,141.408543 90.3358952,141.770937 C92.0615362,142.87521 93.7487156,140.942732 94.7658096,137.14786 C98.2564078,124.041023 96.0410232,112.594014 95.8136728,110.837604 C95.5811942,109.082903 95.3076899,107.776066 95.3076899,107.776066 C94.4897412,108.641023 92.9376045,110.633331 92.4179464,113.634185 C92.4179464,113.634185 91.4683738,112.527348 91.1641003,109.709399 C91.1641003,109.709399 90.8829037,110.351279 90.8658097,110.366664 C89.682049,113.136749 88.7803397,116.408544 88.4991431,121.43333 C88.4991431,121.43333 87.5700833,119.286322 87.0683739,115.777775 C86.953844,114.981194 86.8555534,114.137604 86.8025619,113.206835 C85.8418782,116.007689 83.8838441,120.544441 85.9897414,128.652988 C85.9897414,128.652988 81.7491433,123.279484 81.7351262,115.415382 C80.5021347,118.051279 78.042904,118.948715 81.1876048,127.982903 C83.2865791,133.999142 85.9008526,137.637603 87.9179465,139.722219 Z M76.3321348,82.9900834 C77.0209382,83.2335022 77.4269211,83.2855535 78.3557245,83.4000834 C78.4755536,83.0618783 78.5557245,82.6959808 78.5723912,82.3160663 C78.6638442,80.2874339 77.0596562,78.5664083 74.9943571,78.4782032 C73.2258101,78.40581 71.6927333,79.5465792 71.2336734,81.1505108 C71.9400837,81.6139296 72.429229,81.7978612 72.969058,81.9477757 C73.1470067,81.3578612 74.0691434,81.0487159 74.7165793,81.0757245 C75.4877759,81.1058099 75.993246,81.5805108 76.2699981,82.294015 C76.3154682,82.4192287 76.3675195,82.8746133 76.3321348,82.9900834 Z M106.350425,63.928289 C111.447006,60.9522207 115.788886,59.9999985 119.101706,59.9162378 C119.101706,59.9162378 115.242732,62.4094856 111.758972,68.7052974 C109.013672,73.658887 106.4641,80.5765792 105.854698,85.6948697 C107.813673,84.6544423 110.03504,84.1930748 112.657262,84.6794851 C108.983758,87.6188012 105.723929,92.9957242 104.027348,96.8957241 C100.397433,105.225638 100.350425,108.894869 99.9623907,124.874356 C99.8367496,130.078629 98.5923052,135.754697 98.0076899,137.44615 C96.8384591,140.790595 95.1914506,144.307689 90.8333311,143.46068 C83.8027329,142.096578 77.3307673,130.329911 76.1170921,128.203416 C74.8831605,126.039313 73.4671777,124.467518 71.3624768,119.041023 C64.1920497,120.393159 56.9190584,115.246151 56.8783746,115.188031 C56.9717934,117.311108 57.727349,119.188886 59.4134173,121.146151 C53.3673491,118.741023 51.8729902,112.404271 51.8729902,112.404271 C51.8729902,117.293159 53.4939303,121.053843 54.9712807,122.369228 C52.7360671,122.202561 50.2721355,120.846151 47.3170074,118.289741 C45.2257254,123.717946 44.0541869,126.039313 42.8255545,128.203416 C41.6052126,130.329911 35.1311957,142.096578 28.1012813,143.46068 C23.7480336,144.307689 22.0983755,140.790595 20.9317943,137.44615 C20.3378627,135.754697 19.1008542,130.078629 18.9753841,124.874356 C18.5883756,108.894869 18.7105978,105.225638 15.0801706,96.8957241 C13.3814527,92.9957242 10.1192305,87.6188012 6.44998274,84.6794851 C9.06717926,84.1930748 11.2874356,84.6544423 13.2492304,85.6948697 C12.6408544,80.5765792 10.089145,73.658887 7.34475195,68.7052974 C3.86117939,62.4094856 0,59.9162378 0,59.9162378 C3.32164949,59.9999985 7.66693143,60.9522207 12.7500852,63.928289 C1.71808543,54.3940157 1.01763245,44.685469 1.01763245,44.685469 C1.01763245,44.685469 5.31784602,50.5742722 12.5240168,53.9890585 C12.5500852,54.0017081 12.5730766,54.0153833 12.5988031,54.0264089 C12.5700852,54.006067 12.5303416,53.9683747 12.498974,53.9426482 C10.8594014,52.6385457 5.51048704,45.9024775 6.34382035,32.0025633 C8.01048698,33.6708539 13.6184612,39.727264 16.7584611,42.5437596 C17.6518799,37.6138452 18.8578628,33.9289735 20.9051277,29.7469223 C20.965555,29.6307685 25.7028199,34.9078624 26.4092301,35.2941017 C26.4947002,35.3352128 29.6344437,25.2273498 38.1320503,21.3368371 C38.9703409,23.317008 39.6581187,24.2888883 40.7835887,25.3128199 C40.7835887,25.3128199 41.551452,22.9504268 42.3344434,19.6170935 C42.3344434,19.6170935 43.8888878,20.6727345 45.2410245,21.0205978 C45.2981185,21.0349567 45.3579476,21.0563243 45.4143578,21.0683755 C45.4287168,20.9992302 45.4483749,20.9238456 45.4641014,20.8529909 C46.2717082,17.1684611 48.9085458,11.1298288 48.9085458,11.1298288 C48.9232466,11.1375211 48.9372637,11.1394869 48.9603407,11.1445296 C48.9623065,11.1375211 48.9623065,11.1298288 48.9623065,11.1298288 C49.3523065,11.2733331 49.9362381,11.6052134 50.4580329,11.3317946 C60.6203404,5.94451267 67.963759,11.3034185 67.963759,11.3034185 C69.0638444,11.5838459 68.3146137,11.7905125 70.1476051,11.1298288 C70.1476051,11.1298288 72.8905965,17.4085466 73.6307674,21.0683755 C75.0183742,20.7735892 76.7144425,19.6170935 76.7144425,19.6170935 C77.5006818,22.9504268 78.2735878,25.3128199 78.2735878,25.3128199 C79.8029895,24.371025 80.2103399,23.317008 80.972904,21.3368371 C89.4717926,25.2273498 92.6119635,35.3352128 92.6940148,35.2941017 C93.4034165,34.9078624 98.1461514,29.6307685 98.2017069,29.7469223 C100.245297,33.9289735 101.44957,37.614529 102.345297,42.5437596 C105.483758,39.727264 111.285467,33.6708539 112.948715,32.0025633 C113.503416,46.0119647 108.029057,52.9110243 106.505126,54.0264089 C113.755553,50.6179475 118.088886,44.685469 118.088886,44.685469 C118.088886,44.685469 117.390595,54.3940157 106.350425,63.928289 Z" id="path574" fill="#100F0D" fill-rule="nonzero"></path>
                    </g>
                </g>
            </g>
        </g>
    </g>
</svg>