<?xml version="1.0" encoding="UTF-8"?>
<svg width="200px" height="200px" viewBox="0 0 200 200" version="1.1" xmlns="http://www.w3.org/2000/svg" xmlns:xlink="http://www.w3.org/1999/xlink">
    <!-- Generator: Sketch 54.1 (76490) - https://sketchapp.com -->
    <title>la-lafayette</title>
    <desc>Created with Sketch.</desc>
    <g id="la-lafayette" stroke="none" stroke-width="1" fill="none" fill-rule="evenodd">
        <g id="la-lafayette_BGL" transform="translate(0.000000, 0.000000)">
            <g id="la-lafayette" transform="translate(0.000000, 51.000000)">
                <g id="g10" transform="translate(99.929226, 49.055911) scale(-1, 1) rotate(-180.000000) translate(-99.929226, -49.055911) translate(0.000000, 0.082097)" fill-rule="nonzero">
                    <g id="g12">
                        <path d="M177.066662,15.7752862 L177.066662,18.0296669 C177.066662,21.816843 175.923562,24.4580319 175.923562,24.4580319 L175.923562,28.7241323 C175.923562,34.0124549 177.984709,36.5432404 181.889309,39.8754413 L191.711248,47.6617115 L170.704313,47.6617115 C170.704313,47.6617115 170.704313,56.5885336 170.707144,64.6239191 C177.41599,66.240055 184.468219,73.9538552 184.468219,81.5244141 C184.468219,90.1007762 178.484355,94.130217 177.213018,94.5050224 C177.213018,94.5050224 175.017972,97.8182566 170.590512,97.8182566 C164.824907,97.8182566 163.825049,92.5633381 163.665389,91.2905851 C162.309125,91.8779878 160.792919,92.2202383 159.148474,92.2748738 L1.72505304,92.2748738 C9.99623471,87.2738832 20.5541113,81.4774219 20.5541113,76.5630554 L20.5541113,74.911817 C19.6886053,71.7228574 8.2502758,69.2116048 8.2502758,69.2116048 C15.6612593,65.8191066 20.5563194,64.1412581 20.5563194,60.9225746 L20.5563194,58.7909398 C20.5563194,53.5354551 11.0898794,48.2791212 4.06768567,43.4952572 C1.14152014,41.1646133 -0.0455592345,37.6818108 0.00221160646,33.8856326 L0,14.4274023 C0,7.33701326 5.10550589,0 13.6482658,0 L193.516768,0 C183.565176,6.68622772 177.066662,11.1227173 177.066662,15.7752862" id="path14" fill="#D11C2E"></path>
                        <path d="M175.37013,84.8175492 C176.298085,84.4033949 176.448969,83.1292265 176.448969,83.1292265 C176.838495,82.0467071 176.496811,77.1903732 170.42236,72.9092692 C170.426606,72.9160633 176.722147,78.4602953 175.37013,84.8175492 L175.37013,84.8175492 Z M170.274306,71.7820223 C172.443874,73.120168 178.786974,77.16348 177.418821,84.5811727 C177.150456,85.5450792 176.717618,86.4291557 175.989521,87.0094812 C176.481807,86.0928499 176.581737,85.0825173 176.581737,85.0825173 C175.137434,87.5266786 173.655764,86.6655322 173.655764,86.6655322 C174.551163,85.2628429 173.361638,83.3961763 173.361638,83.3961763 C173.102048,85.3913638 171.83071,86.1650368 171.83071,86.1650368 C170.083223,85.9150722 170.522006,83.312666 170.522006,83.312666 C170.04897,83.9229986 169.758241,84.4503871 169.583577,84.9174784 C169.358241,83.9447962 169.43156,82.615143 170.034249,80.7745203 C170.37282,79.7777758 171.410045,77.1731049 168.149465,72.80934 C167.275014,71.6215127 167.985275,70.4016968 170.274306,71.7820223 L170.274306,71.7820223 Z" id="path16" fill="#D11C2E"></path>
                        <path d="M40.3648964,76.1129493 C40.3648964,76.1129493 40.3515913,76.2794036 40.3402679,76.4209464 C40.2448681,76.4322699 40.148619,76.4441594 40.148619,76.4441594 C40.148619,76.4441594 38.7810323,76.4441594 37.5694258,76.4441594 C37.5694258,75.087047 37.5694258,73.8610031 37.5694258,72.5027583 C38.6861986,72.5027583 40.0113224,72.5027583 40.3665949,72.5027583 C40.3665949,72.6496797 40.3648964,76.1129493 40.3648964,76.1129493" id="path18" fill="#181210"></path>
                        <path d="M70.4033953,69.3630556 C69.9883917,66.8605787 69.7228574,65.2693543 69.5544215,64.2516615 C70.319885,64.2516615 70.488604,64.2516615 71.2532183,64.2516615 C71.0844993,65.2693543 70.818965,66.8605787 70.4033953,69.3630556" id="path20" fill="#181210"></path>
                        <path d="M43.3874016,86.8393467 C46.1398431,86.8484055 48.542957,85.9232816 50.1477694,84.2332605 C51.36617,82.952298 52.0458586,81.2869053 52.0458586,79.6942655 C52.0427446,79.4890284 52.0668069,72.7062968 52.0668069,72.7062968 C51.9793334,70.1166295 50.6847829,68.4752991 49.3338983,67.4128787 C50.9752287,66.2196728 51.9793334,64.5486183 52.0645422,62.4894535 L53.9065804,50.0498218 L46.2270335,50.0498218 C43.7882509,50.0498218 41.9796168,51.8261841 41.626609,54.530218 C41.626609,54.530218 40.7515913,59.9235654 40.7388525,60.0331195 C40.591931,61.6277409 39.8502467,61.9074295 39.6384987,61.958951 C39.464401,61.958951 38.6318462,61.958951 37.6738844,61.958951 C37.6738844,59.5997154 37.6738844,50.0498218 37.6738844,50.0498218 L21.1001552,50.0498218 L24.0965599,52.8005649 C24.1136866,52.814153 25.663269,54.2717609 25.663269,58.5723977 L25.663269,62.8696375 C25.663269,66.5234237 20.5093272,68.6632679 20.5093272,68.6632679 C20.5093272,68.6632679 25.663269,69.8839331 25.663269,74.257323 L25.663269,77.2433102 C25.663269,83.2090567 18.6441609,86.8394126 18.6441609,86.8394126 L43.3874016,86.8393467 Z M69.7525814,86.8393467 C75.5589507,86.8393467 79.1221495,83.7834374 80.3397008,77.7573937 L85.99377,50.0498218 L73.6183987,50.0498218 C73.6183987,50.0498218 73.1391348,52.920027 72.9384271,54.1288026 C71.4986536,54.1288026 69.3126663,54.1288026 67.8720436,54.1288026 C67.6727513,52.920027 67.1974505,50.0498218 67.1974505,50.0498218 L54.8682223,50.0498218 L57.2297226,62.8668066 C57.5951861,64.9387103 56.1636221,65.9728221 56.0008479,66.0832255 L53.8542096,67.5510245 L56.1321996,68.7728221 C56.2171253,68.8192481 58.2154267,69.9235651 58.9837211,72.8713358 L60.183438,78.1616399 C60.1947614,78.2012719 61.0250516,82.2825174 58.289029,83.9430977 L53.5179038,86.8393467 L69.7525814,86.8393467 Z M104.23326,86.8393467 C110.828872,86.7790495 114.037081,84.0183985 114.037081,78.3960348 L114.037081,74.0008474 L103.14706,73.9903732 L103.177067,76.2703449 C103.177067,76.4441594 103.162064,76.5630554 103.14706,76.6828006 C103.072609,76.6927086 102.991929,76.7031828 102.848688,76.7031828 C102.848688,76.7031828 100.982871,76.7031828 99.5450789,76.7031828 C99.5450789,74.1140817 99.5450789,60.867939 99.5450789,60.867939 C99.5501744,60.471053 99.6450081,60.2995031 99.671052,60.2743085 C99.6880371,60.2644005 99.7746613,60.2324118 99.984994,60.2369412 L102.357818,60.2355257 C102.687329,60.2309964 102.839629,60.2898782 102.868221,60.3105434 C102.893416,60.3405505 102.962205,60.5010601 102.962205,60.8450091 C102.962205,60.8450091 102.962205,61.9128081 102.962205,62.9370119 C102.67544,62.9370119 100.722998,62.9370119 100.722998,62.9370119 L100.722998,72.402829 L114.4535,72.402829 L114.4535,59.8601542 C114.493415,54.0348182 111.297379,50.0908692 106.489735,50.0498218 L94.7074286,50.0498218 C89.9957515,50.0498218 87.5337558,54.1545634 87.5337558,58.2083496 L87.5337558,64.273176 C87.5538549,65.9012015 85.4983701,67.1442305 85.478271,67.1575355 L82.5757941,68.8676557 L85.7579596,69.9898072 C85.9413991,70.0546338 87.5538549,70.68365 87.5337558,72.7651786 L87.5337558,76.406226 C87.5337558,80.492567 86.6457162,82.8090567 84.658172,83.9133737 L79.3825882,86.8393467 L104.23326,86.8393467 Z M124.185418,86.8393467 C131.311816,86.8393467 131.311816,83.1889576 131.311816,79.662843 L131.311816,50.1013434 L133.981596,52.7229994 C136.179473,54.8843581 136.516628,57.3197438 136.524271,58.5723977 L136.524271,64.0107557 C136.530216,65.9094109 134.912665,67.132907 134.89483,67.1442305 L133.181596,68.4351009 L134.915496,69.6832254 C134.981171,69.7293684 136.516628,70.8574646 136.524271,72.8062261 L136.524271,78.267514 C136.53333,81.0304297 135.646989,82.8277403 133.732198,83.9215832 L128.629013,86.8393467 L141.973953,86.8393467 C145.777208,86.8393467 148.724129,84.9438054 150.497095,81.3474856 C150.497095,81.3474856 151.830994,78.584853 153.155835,75.837507 C153.155835,80.3932039 153.155835,86.7357374 153.155835,86.7357374 L158.96362,86.7334727 C165.305304,86.5157799 165.281525,80.4605783 165.269635,76.4563321 L165.269635,50.0498218 L153.834957,50.0498218 C153.834957,50.0498218 150.826889,56.3974508 148.531914,61.244726 C148.531914,56.5542803 148.531914,50.0498218 148.531914,50.0498218 L131.311816,50.0498218 L131.259728,50.0498218 L112.929933,50.0498218 L116.711108,52.5956109 C116.711108,52.5956109 119.402969,54.34508 119.402969,58.5723977 L119.402969,64.1112511 C119.406083,66.223636 117.880818,67.318045 117.815425,67.3622064 L115.943946,68.6915765 L117.845149,69.9600832 C117.90488,70.0011306 119.374378,71.0007059 119.402969,72.7651786 L119.406083,78.3094106 C119.444866,79.6920008 118.917761,82.6420362 116.630429,83.9133737 L111.35711,86.8393467 L124.185418,86.8393467 Z M167.039203,73.6852069 C169.802968,77.3723972 169.071475,79.4091983 168.758382,80.3343221 C168.747908,80.3620645 168.737434,80.3852775 168.731489,80.4096229 L168.728375,80.4096229 C168.104737,82.2825174 167.994334,83.673034 168.157108,84.8257587 C167.934886,85.580748 167.922713,86.2621351 168.134745,86.9276694 C168.504737,88.0467069 169.361355,88.6547749 170.09398,89.0097642 C169.935735,89.3525809 168.695537,90.1171952 169.243308,91.5600826 C169.540265,92.0846403 170.071333,92.3578179 170.892282,92.3963176 C171.336726,92.4150012 172.270909,92.4747323 174.127384,89.7998562 C176.025473,89.7282355 176.769989,88.2995024 177.047412,87.8423191 C180.534461,83.9416823 179.748332,75.0819514 171.042883,70.5970258 C166.700633,68.1746621 165.177066,71.6515198 167.039203,73.6852069 L167.039203,73.6852069 Z M23.2481806,77.4737419 L23.2481806,75.0428856 C23.2481806,71.1708404 18.6305728,70.1868348 14.1839204,68.9585262 C19.1386832,67.0009891 23.2623349,65.7528646 23.2623349,61.5371535 L23.2623349,59.1229992 C23.2623349,53.5012018 18.9709266,51.1054481 14.1474306,47.6362338 L40.0852078,47.6362338 C40.0852078,47.6362338 40.0852078,51.1623483 40.0852078,51.452228 C41.28266,49.0955402 43.5181872,47.6362338 46.2270335,47.6362338 L69.2461412,47.6362338 C69.2461412,47.6362338 69.8796869,51.4890291 69.9176203,51.7157807 C70.3988659,51.7157807 70.4144356,51.7157807 70.8942657,51.7157807 C70.9344639,51.4861983 71.5748036,47.6362338 71.5748036,47.6362338 L88.9483346,47.6362338 L88.4498209,50.0781304 C90.1038902,48.5435232 92.2706276,47.6362338 94.7074286,47.6362338 L150.944653,47.6362338 C150.944653,47.6362338 150.944653,49.3687178 150.944653,50.5183285 C150.962487,50.4750164 152.30856,47.6362338 152.30856,47.6362338 L167.680958,47.6362338 L167.680958,67.1994321 C167.680958,67.1994321 168.037646,67.1159219 168.313372,67.1159219 C174.518042,67.1159219 181.540264,74.5273867 181.540264,82.1480517 C181.540264,89.7695661 175.674447,92.2046686 175.674447,92.2046686 C175.674447,92.2046686 173.768998,95.1241307 170.713088,95.1241307 C165.654631,95.1241307 166.525969,89.7282355 166.525969,89.7282355 C165.360789,88.751024 165.239911,86.4857728 165.239911,86.4857728 C163.962346,87.9838619 162.021227,89.0434514 159.048545,89.1447961 L150.744795,89.1464946 C150.744795,89.1464946 150.744795,85.6152845 150.744795,85.3279526 C148.53616,87.8839327 145.516203,89.2515194 141.973953,89.2515194 L11.3077138,89.2515194 C18.4711106,84.5378606 23.2481806,81.8482641 23.2481806,77.4737419 L23.2481806,77.4737419 Z" id="path22" fill="#181210"></path>
                        <path d="M46.7912232,19.6384992 C47.5589514,19.6384992 47.7273873,19.6384992 48.4922847,19.6384992 C48.3221502,20.6590511 48.0594468,22.2496527 47.6424617,24.7535167 C47.226892,22.2496527 46.9619238,20.6590511 46.7912232,19.6384992" id="path24" fill="#181210"></path>
                        <path d="M154.084356,5.4358102 C151.654915,5.4358102 149.742105,6.1191789 148.407923,7.4680536 C147.151589,8.73806064 146.471051,10.5955836 146.491999,12.6816699 L146.491999,19.0026888 L158.035665,19.0026888 C158.035665,19.0026888 158.035665,16.5826181 158.035665,15.7257462 C158.611461,15.7257462 159.208206,15.7257462 159.208206,15.7257462 C159.745502,15.7288319 159.902331,15.8154278 159.91875,15.8244865 C159.951305,15.8807639 160.057462,16.1347767 160.057462,17.0805657 L160.058878,18.7340689 C160.058878,19.1113654 159.983011,19.2922854 159.936585,19.3398438 C159.891574,19.384628 159.70219,19.4681099 159.289168,19.4624765 L157.071758,19.4624765 C153.842317,19.45472 150.920874,20.5950455 148.840478,22.674819 C146.856047,24.6564184 145.811461,27.2976356 145.817689,30.3043163 L145.817689,33.1411174 C145.808347,35.837508 146.651659,38.0968143 148.252792,39.6721858 C150.025474,41.4227874 152.618821,42.2808199 155.934603,42.2256182 L176.714504,42.2256182 C173.694263,39.3305015 170.820378,36.8968144 170.820378,32.7190367 L170.820378,29.2300063 C170.820378,29.2300063 166.881241,29.2300063 164.681666,29.2300063 C169.406082,27.6127948 171.924695,22.8585982 171.963478,18.086284 L171.963478,13.7441469 C171.963478,10.6465673 173.745219,8.83515901 174.512098,8.19787665 L177.844015,5.4358102 L154.084356,5.4358102 Z M131.827031,5.4358102 C131.827031,5.4358102 128.860294,11.3107145 126.598157,15.7916486 C126.598157,11.4881809 126.598157,5.4358102 126.598157,5.4358102 L114.489169,5.4358102 L114.489169,23.1629152 L113.823635,22.674819 C113.2535,22.2556258 111.622927,20.7512804 111.619813,19.3935735 C111.619813,19.3935735 111.613585,13.3458171 111.613585,13.318839 C111.613585,11.3537152 110.822927,9.47229983 109.384286,8.01874007 C107.757959,6.3787118 105.430146,5.4358102 102.99476,5.4358102 L94.0365157,5.4358102 C88.1641875,5.4358102 85.4012718,10.1330217 85.3200262,14.5262841 L85.3200262,23.1447977 L84.6805357,22.674819 C84.1098351,22.2556258 82.4818097,20.7512804 82.4781296,19.3935735 L82.4682216,12.8101908 C82.4682216,9.32911512 79.0275989,5.4358102 74.4212296,5.4358102 L68.2188235,5.4358102 C65.2469906,5.4358102 63.3840041,7.51881085 62.3045986,9.86610025 L63.211888,5.4358102 L50.8557666,5.4358102 C50.8557666,5.4358102 50.3759365,8.30822343 50.176078,9.51388511 C48.7331906,9.51388511 46.5412586,9.51388511 45.1026174,9.51388511 C44.899645,8.30822343 44.4087745,5.4358102 44.4087745,5.4358102 L13.6482658,5.4358102 C8.50782711,5.4358102 5.43600836,10.009285 5.43600836,14.4274023 L5.43600836,33.9513084 C5.40849243,36.2822355 6.2127387,38.3980174 7.7041187,39.9065807 C9.20447252,41.4244859 11.2570698,42.2270336 13.6393203,42.2270336 L37.7990083,42.2270336 L34.7111102,39.4978051 C31.7924974,36.9149318 31.2365173,35.5569701 31.2648258,34.058881 L31.2648258,28.24685 L20.036376,28.24685 C20.036376,28.24685 20.036376,31.053644 20.036376,32.1936298 C19.1843732,32.1936298 18.3306719,32.1936298 18.3306719,32.1936298 C17.7965742,32.187685 17.6502756,32.1203106 17.625732,32.1070056 C17.5861284,32.0532193 17.3966025,31.7132335 17.3966025,30.2553425 L17.3951588,17.3703888 C17.366737,16.0393485 17.5422501,15.7916486 17.5637929,15.7647838 C17.5667936,15.7616698 17.7539981,15.6274306 18.4948898,15.6259869 C18.4948898,15.6259869 19.2656471,15.6259869 20.036376,15.6259869 C20.036376,17.1791079 20.036376,20.9276711 20.036376,20.9276711 L31.6803955,20.9276711 L31.6753,13.1385984 C31.6566163,11.801585 31.6642596,10.7538285 32.8280247,9.34978037 C34.3940543,16.9882232 37.7072885,33.1515915 37.7126671,33.1722568 C39.0966728,39.4335447 42.3609331,42.2270336 48.2921432,42.2270336 L67.7183281,42.2270336 L60.6907274,39.2277414 C57.1878259,37.7432404 57.8423199,33.6619949 57.8720438,33.4918605 C57.8720438,33.4918605 58.636092,29.2362342 58.6697791,29.0448683 C59.3978754,26.2845004 61.6605788,25.6413582 61.7590926,25.6147198 L64.9404089,24.7535167 L62.2768562,22.8317333 C62.2559079,22.8152577 60.037932,21.2020094 60.4192483,19.0533329 L61.0870473,15.8003676 L69.4021214,15.8003676 C70.4467074,15.8003676 70.4877548,15.8003676 70.5106847,18.4475579 L70.5106847,31.8236369 C70.5721143,34.6689305 70.7368701,42.2270336 78.0135862,42.2270336 L88.1169122,42.2270336 L84.3470609,39.4128794 C82.7951855,38.2607209 82.4670892,35.0168427 82.4670892,33.8038208 L82.4670892,33.735031 L82.4699201,33.735031 L82.4682216,33.6334033 L82.4557658,33.6334033 C82.4721848,33.3919312 82.4781296,33.1484776 82.4781296,32.9336156 L82.4840744,28.1944508 C82.4840744,26.9740687 84.0801111,25.609964 84.6375067,25.2283362 L85.3200262,24.7592634 L85.3200262,33.675583 C85.3041734,36.6745921 86.0846405,39.0576069 87.580748,40.55881 C88.6677968,41.6495389 90.0687876,42.2270336 91.6379312,42.2270336 L97.0188228,42.2270336 L97.0188228,16.1183011 C97.026183,15.878018 97.0434512,15.7406649 97.0595871,15.6259869 C97.3372941,15.6259869 99.5167703,15.6259869 99.608207,15.6259869 C99.6277399,15.7455339 99.6501037,15.9108559 99.6537838,16.1794476 L99.6537838,31.8236369 C99.7149303,34.6689305 99.8828001,42.2270336 107.154987,42.2270336 L117.603394,42.2270336 L113.543097,39.3888171 C111.954137,38.2728936 111.613585,34.9658873 111.613585,33.7664535 L111.613585,33.7423912 L111.615001,33.7423912 L111.613585,33.6351018 L111.598865,33.6351018 C111.616699,33.3919312 111.621229,33.1484776 111.621229,32.9336156 L111.625475,28.1944508 C111.625475,26.9740687 113.222361,25.609964 113.780323,25.2283362 L114.489169,24.7400135 L114.489169,31.8326956 C114.462276,35.6373664 114.416133,42.0059437 120.844441,42.2270336 L125.999997,42.2270336 C125.999997,42.2270336 128.964753,36.3419665 131.225474,31.8533608 C131.225474,32.8472745 131.225474,34.4498222 131.225474,34.5033254 C131.225474,37.034394 131.943096,39.0932757 133.301058,40.469355 C134.43793,41.6195319 135.986975,42.2270336 137.780605,42.2270336 L149.562912,42.2270336 L144.93701,39.3409757 C143.325686,38.3368709 143.213585,36.4014145 143.230003,33.9782016 L143.233117,28.7646136 C143.238779,26.6561635 144.999855,24.9415139 145.017406,24.9237078 L146.178623,23.8015281 L145.030994,22.674819 C145.011744,22.6555975 143.227173,20.8784425 143.233117,18.8237504 L143.233117,13.9651801 C143.242176,11.7059304 143.409197,9.42001392 144.584851,7.98720433 L146.674023,5.4358102 L131.827031,5.4358102 Z M174.376216,15.9406082 L174.376216,18.0849819 C174.349606,21.4825472 173.346917,24.4566165 171.690583,26.8187113 C172.423209,26.8187113 173.231701,26.8187113 173.231701,26.8187113 L173.231701,32.6397727 C173.231701,32.6397727 173.112522,34.7691428 174.801694,36.726963 C176.492282,38.687614 179.538,41.8658164 183.195183,44.6366585 L137.780605,44.638357 C135.327385,44.638357 133.18471,43.7848538 131.584993,42.1644717 C130.904738,41.4762905 130.38839,40.6423203 129.952721,39.7409757 C129.555552,40.529086 127.484498,44.638357 127.484498,44.638357 L107.154987,44.638357 C104.454067,44.638357 101.426466,43.782023 99.4315616,40.6929926 C99.4315616,40.7422495 99.4315616,44.638357 99.4315616,44.638357 L13.6393203,44.638357 C10.6422644,44.638357 7.92351006,43.5598008 5.9895823,41.600282 C4.04093408,39.6308553 2.98952576,36.9058731 3.0247133,33.9244153 L3.0247133,14.4274023 C3.0247133,8.8215426 6.99841455,3.02281663 13.6482658,3.02281663 L46.4441602,3.02281663 C46.4441602,3.02281663 47.0986542,6.86539261 47.1402678,7.10125955 C47.6288735,7.10125955 47.6438771,7.10125955 48.1324829,7.10125955 C48.1706994,6.87278114 48.81387,3.02281663 48.81387,3.02281663 L74.4212296,3.02281663 C78.6513781,3.02281663 82.4818097,5.66259009 84.0835082,9.2153147 C85.8491132,5.40294396 89.4706276,3.02281663 94.0365157,3.02281663 L102.99476,3.02281663 C106.06907,3.02281663 109.021653,4.22561914 111.100351,6.32220791 C111.458737,6.68622772 111.778058,7.07714066 112.076147,7.48141524 L112.076147,3.02281663 L129.011179,3.02281663 C129.011179,3.02281663 129.011179,4.48382154 129.011179,5.65973093 L130.340832,3.02281663 L185.169139,3.02281663 C175.819387,9.01848527 174.376216,10.8999006 174.376216,15.9406082 L174.376216,15.9406082 Z" id="path26" fill="#181210"></path>
                        <path d="M157.799855,32.1234245 C157.780039,32.0368003 157.759373,31.9040332 157.752013,31.6384989 L157.752013,30.5387112 C157.752013,30.375937 157.811744,29.8627027 158.55173,29.8581734 C158.55173,29.8581734 159.323421,29.8581734 160.057462,29.8581734 C160.057462,30.3074302 160.057462,31.4952575 160.057462,32.1936298 C159.355976,32.1936298 158.647413,32.1936298 158.647413,32.1936298 C158.101058,32.1936298 157.898085,32.154847 157.799855,32.1234245" id="path28" fill="#181210"></path>
                        <path d="M176.448969,83.1292265 C176.448969,83.1292265 176.298085,84.4033949 175.37013,84.8175492 C176.722147,78.4602953 170.426606,72.9160633 170.42236,72.9092692 C176.496811,77.1903732 176.838495,82.0467071 176.448969,83.1292265" id="path30" fill="#181210"></path>
                        <path d="M197.237929,0.268378479 C195.829578,0.268378479 194.689309,1.41144795 194.689309,2.81979894 C194.689309,4.22703457 195.829578,5.36846413 197.237929,5.36846413 C198.648261,5.36846413 199.788247,4.22703457 199.788247,2.81979894 C199.788247,1.41144795 198.648261,0.268378479 197.237929,0.268378479 M197.237929,4.82261842 C196.133895,4.82261842 195.234248,3.92583147 195.234248,2.81979894 C195.234248,1.71122996 196.133895,0.815861268 197.237929,0.815861268 C198.34536,0.815861268 199.24359,1.71122996 199.24359,2.81979894 C199.24359,3.92583147 198.34536,4.82261842 197.237929,4.82261842" id="path32" fill="#928B8A"></path>
                        <path d="M198.285628,1.36223917 L197.681524,1.36223917 L197.130639,2.54555974 L196.738282,2.54555974 L196.738282,1.36223917 L196.19221,1.36223917 L196.19221,4.27493266 L197.421651,4.27493266 C197.897518,4.27493266 198.285628,3.88843585 198.285628,3.4092002 C198.285628,3.03643305 198.046987,2.71707 197.712663,2.59620376 L198.285628,1.36223917 M196.738282,3.72877556 L196.738282,3.09305017 L197.421651,3.09305017 C197.596315,3.09305017 197.737858,3.23481945 197.737858,3.4092002 C197.737858,3.58556254 197.596315,3.72877556 197.421651,3.72877556 L196.738282,3.72877556" id="path34" fill="#928B8A"></path>
                        <path d="M170.274306,71.7820223 C167.985275,70.4016968 167.275014,71.6215127 168.149465,72.80934 C171.410045,77.1731049 170.37282,79.7777758 170.034249,80.7745203 C169.43156,82.615143 169.358241,83.9447962 169.583577,84.9174784 C168.615141,87.4932745 171.533754,88.043593 171.533754,88.043593 C171.8426,89.4859143 170.46369,90.7252631 170.46369,90.7252631 C170.46369,90.7252631 170.307144,90.9936283 171.047413,91.0332603 C171.790512,91.0114627 173.427313,88.4399129 173.427313,88.4399129 C174.765742,88.6077826 175.540265,87.8465654 175.989521,87.0094812 C176.717618,86.4291557 177.150456,85.5450792 177.418821,84.5811727 C178.786974,77.16348 172.443874,73.120168 170.274306,71.7820223 L170.274306,71.7820223 Z M177.047412,87.8423191 C176.769989,88.2995024 176.025473,89.7282355 174.127384,89.7998562 C172.270909,92.4747323 171.336726,92.4150012 170.892282,92.3963176 C170.071333,92.3578179 169.540265,92.0846403 169.243308,91.5600826 C168.695537,90.1171952 169.935735,89.3525809 170.09398,89.0097642 C169.361355,88.6547749 168.504737,88.0467069 168.134745,86.9276694 C167.922713,86.2621351 167.934886,85.580748 168.157108,84.8257587 C167.994334,83.673034 168.104737,82.2825174 168.728375,80.4096229 L168.731489,80.4096229 C168.737434,80.3852775 168.747908,80.3620645 168.758382,80.3343221 C169.071475,79.4091983 169.802968,77.3723972 167.039203,73.6852069 C165.177066,71.6515198 166.700633,68.1746621 171.042883,70.5970258 C179.748332,75.0819514 180.534461,83.9416823 177.047412,87.8423191 L177.047412,87.8423191 Z" id="path36" fill="#FFFFFF"></path>
                        <path d="M36.0079255,78.0056598 C36.0079255,78.0056598 38.4251937,78.0215126 40.1636225,78.0056598 C41.9012021,77.9878254 41.9012021,76.9194602 41.9286614,76.1166294 L41.9286614,72.425759 C41.9286614,72.425759 41.9363047,70.924839 40.4469912,70.9404087 C38.9571116,70.9596585 36.0079255,70.9404087 36.0079255,70.9404087 L36.0079255,78.0056598 Z M27.2240899,78.1593753 L27.2240899,72.7108262 C27.1517898,69.5875425 24.3867227,68.5460705 24.3867227,68.5460705 C24.3867227,68.5460705 27.1994331,67.2223621 27.2240899,64.1007769 L27.2240899,58.5723977 C27.2240899,53.3027588 25.1076002,51.610756 25.1076002,51.610756 L36.1129503,51.610756 L36.1129503,63.5210175 L39.80835,63.5210175 C39.80835,63.5210175 42.0079253,63.2973799 42.2927095,60.1743792 L43.1680102,54.7784841 C43.428449,52.7932046 44.5678687,51.610756 46.2270335,51.610756 L52.0987956,51.610756 L50.5044573,62.4243438 C50.3999987,64.9715483 48.6861984,66.5817393 46.0891708,67.3067216 C48.1656039,68.2440181 50.3999987,69.6458581 50.5044573,72.7592338 L50.4761488,79.3786251 C50.6318459,82.2434516 48.1109684,85.2942654 43.3950449,85.2786957 L23.4057744,85.278755 C27.1607353,82.9435223 27.2240899,78.1593753 27.2240899,78.1593753 L27.2240899,78.1593753 Z" id="path38" fill="#FFFFFF"></path>
                        <path d="M67.7121002,62.6901612 L70.4033953,78.8900193 L73.0961057,62.6901612 L67.7121002,62.6901612 Z M69.7525814,85.2786957 L59.0995031,85.2786957 C62.8529354,82.9992902 61.7121004,77.8290143 61.7121004,77.8290143 L60.5050233,72.5256882 C59.5238485,68.7453628 56.854351,67.3905149 56.854351,67.3905149 C56.854351,67.3905149 59.3353134,65.8123126 58.7657452,62.596743 L56.7447969,51.610756 L65.8723267,51.610756 L66.5483352,55.6903029 L74.2612862,55.6903029 L74.9412579,51.610756 L84.0801111,51.610756 L78.8118876,77.4431686 C77.8077829,82.4053766 75.1620646,85.2786957 69.7525814,85.2786957 L69.7525814,85.2786957 Z" id="path40" fill="#FFFFFF"></path>
                        <path d="M86.2556242,68.5101186 C86.2556242,68.5101186 89.1289433,66.8764314 89.0944068,64.2516615 L89.0944068,58.2083496 C89.0944068,54.8843581 91.0165582,51.610756 94.7074286,51.610756 L106.489735,51.610756 C110.287046,51.6441601 112.923706,54.7447969 112.891151,59.8502462 L112.891151,70.8404795 L102.284499,70.8404795 L102.284499,64.4999276 L104.52314,64.4999276 L104.52314,60.8450091 C104.516912,59.4966723 103.89016,58.6454338 102.328094,58.676007 L99.984994,58.676007 C98.4936989,58.6454338 98.0005637,59.7115342 97.9832955,60.8450091 L97.9832955,78.2624184 L102.848688,78.2624184 C104.930217,78.2728926 104.740832,77.0256173 104.72866,75.5623477 L112.476147,75.5623477 L112.476147,78.3960348 C112.476147,81.282659 111.789948,85.2093397 104.218256,85.2786957 L85.4148599,85.2786957 C88.6080657,83.5060135 89.0944068,79.6784127 89.0944068,76.406226 L89.0944068,72.7651786 C89.1289433,69.4332608 86.2556242,68.5101186 86.2556242,68.5101186" id="path42" fill="#FFFFFF"></path>
                        <path d="M120.966734,78.2624184 L120.966734,72.7651786 C120.922007,70.0702035 118.697237,68.6519445 118.697237,68.6519445 C118.697237,68.6519445 120.966734,67.1368702 120.966734,64.1112511 L120.966734,58.5723977 C120.922007,55.0275995 119.307286,52.4133037 117.701908,51.610756 L129.749749,51.610756 L129.749749,79.662843 C129.749749,83.2591628 129.749749,85.2786957 124.185418,85.2786957 L117.388532,85.2786957 C120.497945,83.5530057 121.011745,79.7868345 120.966734,78.2624184" id="path44" fill="#FFFFFF"></path>
                        <path d="M163.707285,51.610756 L163.707285,76.4563321 C163.723987,80.8953978 163.640194,85.0108967 158.911532,85.1748032 L154.716769,85.1748032 L154.716769,69.0131618 L149.091291,80.6709109 C147.312664,84.2737417 144.598439,85.2786957 141.973953,85.2786957 L134.508135,85.2786957 C137.620945,83.4975209 138.093981,80.4328359 138.084922,78.2624184 L138.084922,72.8062261 C138.074731,69.9665941 135.814009,68.4050938 135.814009,68.4050938 C135.814009,68.4050938 138.093981,66.7739545 138.084922,64.0062263 L138.084922,58.5723977 C138.074731,56.3111097 137.243592,53.740126 135.075156,51.610756 L146.969565,51.610756 L146.969565,68.1879672 L154.824341,51.610756 L163.707285,51.610756" id="path46" fill="#FFFFFF"></path>
                        <path d="M29.7027593,29.8089165 L29.7027593,34.058881 C29.6614288,36.2762907 30.7017685,38.0339693 33.6769985,40.6663826 L13.6393203,40.6663826 C9.48435928,40.6663826 6.95272453,37.7503175 6.99841455,33.9722568 L6.99841455,14.4274023 C6.99841455,10.8432835 9.38881788,6.99640464 13.6482658,6.99640464 L32.9562624,6.99640464 C29.7228584,9.83779169 30.1353142,11.7313514 30.1191783,13.8129084 L30.1191783,19.3652649 L21.5978763,19.3652649 L21.5978763,14.0633825 L18.4948898,14.0633825 C16.2722147,14.0724413 15.7746068,14.9975651 15.8351022,17.407558 L15.8351022,30.1823064 C15.821599,33.1125257 16.4864256,33.7290862 18.3060151,33.7559793 L21.5978763,33.7559793 L21.5978763,29.8089165 L29.7027593,29.8089165" id="path48" fill="#FFFFFF"></path>
                        <path d="M44.9497512,18.077565 L47.6424617,34.2768569 L50.3343229,18.077565 L44.9497512,18.077565 Z M61.3718314,24.1030709 C61.3718314,24.1030709 58.1324826,24.8908699 57.1513078,28.6689306 L56.3337566,33.2144365 C56.3337566,33.2144365 55.343523,38.657607 60.0812441,40.6663826 L48.2921432,40.6663826 C42.8039621,40.6663826 40.4016975,38.1010606 39.2353847,32.8336864 L33.9405512,6.99640464 L43.0904448,6.99640464 L43.7865523,11.0762913 L51.4997864,11.0762913 L52.1777765,6.99640464 L61.2979461,6.99640464 L58.8888874,18.7399288 C58.3227162,21.9572818 61.3718314,24.1030709 61.3718314,24.1030709 L61.3718314,24.1030709 Z" id="path50" fill="#FFFFFF"></path>
                        <path d="M80.9203094,28.1944508 C80.9203094,28.1944508 80.9231402,34.8928512 80.9075705,33.6526531 C80.9075705,33.6526531 80.786693,38.7085624 83.4128783,40.6663826 L78.0135862,40.6663826 C73.4587384,40.6663826 72.1865516,37.0878972 72.0716189,31.7905158 L72.0716189,18.4475579 C72.0509536,15.8958241 72.0509536,14.238103 69.4021214,14.238103 L62.682801,14.238103 C62.682801,14.238103 63.5334733,6.99640464 68.2188235,6.99640464 L74.4212296,6.99640464 C78.0135862,6.99640464 80.9075705,10.0061993 80.9075705,12.8101908 L80.9171954,19.3950172 C80.9203094,21.8765458 83.7599413,23.9357673 83.7599413,23.9357673 C83.7599413,23.9357673 80.9203094,25.8519173 80.9203094,28.1944508" id="path52" fill="#FFFFFF"></path>
                        <path d="M110.064824,28.1944508 C110.064824,28.1944508 110.064824,34.8928512 110.051519,33.6526531 C110.051519,33.6526531 109.953005,38.780183 112.646282,40.6663826 L107.154987,40.6663826 C102.600988,40.6663826 101.329368,37.0878972 101.212453,31.7905158 L101.212453,16.1794476 C101.193203,14.2873033 100.51946,14.0724413 99.6784122,14.0633825 L96.9007761,14.0633825 C95.9413989,14.0724413 95.4958221,14.4724129 95.4578886,16.0823492 L95.4578886,40.6663826 L91.6379312,40.6663826 C88.9752278,40.6663826 86.8560488,38.4161349 86.8823757,33.6826602 L86.8823757,14.5262841 C86.9517317,10.7374661 89.2048102,6.99640464 94.0365157,6.99640464 L102.99476,6.99640464 C106.965886,6.99640464 110.085772,9.88532176 110.051519,13.3768999 L110.058879,19.3950172 C110.064824,21.8765458 112.902757,23.9357673 112.902757,23.9357673 C112.902757,23.9357673 110.064824,25.8519173 110.064824,28.1944508" id="path54" fill="#FFFFFF"></path>
                        <path d="M144.111815,40.6663826 L137.780605,40.6663826 C134.321582,40.6663826 132.745927,37.9295107 132.786125,34.363198 L132.786125,25.2801126 L125.037223,40.6663826 L120.844441,40.6663826 C116.115779,40.5021929 116.021795,36.0435943 116.04982,31.8443021 L116.04982,6.99640464 L125.037223,6.99640464 L125.037223,22.3512804 L132.786125,6.99640464 L143.376359,6.99640464 C141.815425,8.90216538 141.681242,11.6939841 141.672183,13.9575651 L141.672183,18.8237504 C141.661709,21.5932337 143.940548,23.7924693 143.940548,23.7924693 C143.940548,23.7924693 141.681242,25.9204806 141.672183,28.7572534 L141.672183,33.6526531 C141.661709,35.8196736 141.506578,39.0397726 144.111815,40.6663826" id="path56" fill="#FFFFFF"></path>
                        <path d="M170.402544,13.7441469 L170.402544,18.086284 C170.359514,23.4703462 167.024483,28.2960786 161.15725,28.2960786 L158.55173,28.2960786 C156.942954,28.3108273 156.185134,29.5108273 156.191079,30.5520162 L156.191079,31.6384989 C156.235806,33.2724691 156.73432,33.7573948 158.650527,33.7559793 L161.619812,33.7559793 L161.619812,30.7937713 L169.256613,30.7937713 L169.256613,34.3527238 C169.223775,36.1002114 170.26553,38.8934173 173.231701,40.6663826 L155.934603,40.6663826 C149.803252,40.7648964 147.367866,37.4728936 147.37834,33.1470622 L147.37834,30.3043163 C147.367866,24.6043306 151.719175,21.011153 157.068644,21.0261849 L159.289168,21.0261849 C160.614009,21.0412167 161.654065,20.442434 161.619812,18.6446138 L161.619812,17.1524412 C161.631702,15.1677562 161.276429,14.1755127 159.217264,14.1650103 L156.474731,14.1650103 L156.474731,17.4417264 L148.052933,17.4417264 L148.052933,12.6816699 C148.028871,10.2228164 149.140548,6.99640464 154.084356,6.99640464 L173.515353,6.99640464 C171.799571,8.42179738 170.402544,10.7835808 170.402544,13.7441469" id="path58" fill="#FFFFFF"></path>
                        <path d="M175.989521,87.0094812 C175.540265,87.8465654 174.765742,88.6077826 173.427313,88.4399129 C173.427313,88.4399129 171.790512,91.0114627 171.047413,91.0332603 C170.307144,90.9936283 170.46369,90.7252631 170.46369,90.7252631 C170.46369,90.7252631 171.8426,89.4859143 171.533754,88.043593 C171.533754,88.043593 168.615141,87.4932745 169.583577,84.9174784 C169.758241,84.4503871 170.04897,83.9229986 170.522006,83.312666 C170.522006,83.312666 170.083223,85.9150722 171.83071,86.1650368 C171.83071,86.1650368 173.102048,85.3913638 173.361638,83.3961763 C173.361638,83.3961763 174.551163,85.2628429 173.655764,86.6655322 C173.655764,86.6655322 175.137434,87.5266786 176.581737,85.0825173 C176.581737,85.0825173 176.481807,86.0928499 175.989521,87.0094812" id="path60" fill="#181210"></path>
                    </g>
                </g>
            </g>
        </g>
    </g>
</svg>