<?xml version="1.0" encoding="UTF-8"?>
<svg width="200px" height="200px" viewBox="0 0 200 200" version="1.1" xmlns="http://www.w3.org/2000/svg" xmlns:xlink="http://www.w3.org/1999/xlink">
    <!-- Generator: Sketch 54.1 (76490) - https://sketchapp.com -->
    <title>lafayette</title>
    <desc>Created with Sketch.</desc>
    <g id="lafayette" stroke="none" stroke-width="1" fill="none" fill-rule="evenodd">
        <g id="lafayette_BGL" transform="translate(0.000000, 0.000000)">
            <g id="lafayette" transform="translate(0.000000, 26.000000)">
                <g id="g10" transform="translate(99.999998, 74.151929) scale(-1, 1) rotate(-180.000000) translate(-99.999998, -74.151929) translate(0.000000, 0.002271)" fill-rule="nonzero">
                    <g id="g12">
                        <path d="M196.057591,64.2086152 C196.057591,64.2086152 184.216322,78.3326511 158.708386,82.4965966 C158.724939,82.7029458 158.724486,82.909295 158.73401,83.1151907 C181.873918,85.7458028 199.9136,78.4471636 199.9136,78.4471636 C199.9136,78.4471636 186.006571,90.1521519 158.329248,88.2730137 C157.538545,92.1013582 155.663261,95.9340112 152.755098,99.6954624 C154.057593,103.865077 157.507706,118.565076 146.132649,124.74036 C146.132649,124.74036 143.958273,125.034691 140.315416,124.409747 C136.479135,127.144668 131.99977,128.277094 130.328795,128.622899 C119.760541,144.267343 105.85714,149.872105 101.714056,147.672559 C98.0605418,145.453284 102.327662,142.31655 102.267118,135.521765 C90.9736939,135.526527 76.0217668,130.921312 67.0793634,124.650337 C60.9346924,126.712468 53.2918354,125.880949 47.0489784,133.114736 C45.9015862,134.443988 44.1630374,134.561901 42.7233549,133.407253 C40.1464843,131.340813 38.5723346,125.867117 39.4537405,119.419725 C35.0877542,119.419725 32.2088427,119.419725 31.9977316,119.419725 C31.7551012,118.513602 21.8680947,81.6147372 21.4592285,80.0884334 C22.7217681,80.0884334 27.9063485,80.0884334 27.9063485,80.0884334 L16.9857139,39.330838 C16.9857139,39.330838 11.3752378,39.330838 10.5383671,39.330838 C10.2954873,38.4249424 0.408961441,1.52627207 0,0 C1.38260087,0 70.6650776,0 92.1596349,0 C94.4904738,8.60385466 97.8036257,20.842902 100.155326,29.5553281 C101.542628,29.4551013 103.404079,29.4859403 103.404079,29.4859403 C103.404079,29.4859403 110.043535,28.7775503 118.6907,30.7380945 C118.350791,30.1986387 115.74104,26.2700674 115.74104,26.2700674 C125.74172,28.4612238 148.581856,37.7303845 137.280269,58.669613 C137.256459,59.0791368 137.221539,59.4909282 137.173239,59.9027196 C140.411561,60.5530597 143.038092,62.4950098 143.775733,63.0845789 C146.161448,64.0233544 148.665529,65.6117897 150.853284,67.5623566 C163.987751,55.6984113 173.252377,35.8780036 173.252377,35.8780036 C173.252377,35.8780036 173.914055,51.6630373 154.354871,71.3773225 C154.489339,71.5564608 154.61791,71.7365061 154.746028,71.9181388 C173.114962,64.426529 187.975959,50.0492051 187.975959,50.0492051 C187.975959,50.0492051 181.565528,65.3902478 157.25147,76.4775491 C157.380268,76.7931954 157.494554,77.1097486 157.606572,77.429023 C172.489792,76.414057 196.057591,64.2086152 196.057591,64.2086152" id="path14" fill="#FFFFFF"></path>
                        <path d="M186.334236,70.2233543 C186.334236,70.2233543 174.969157,78.6548733 156.990699,81.1882066 C157.163261,82.2668914 157.24308,83.3838981 157.214735,84.535372 C162.399996,85.0471634 176.697501,86.0478437 188.215415,83.0040796 C188.215415,83.0040796 175.133782,88.4634899 157.049883,86.5993176 C156.517456,90.5510181 154.696822,94.8614489 151.022899,99.4056664 C151.022899,99.4056664 157.33469,116.503852 145.657593,123.222673 C143.099316,123.439906 139.946935,122.759861 139.946935,122.759861 C135.395915,126.269611 129.41655,127.215643 129.41655,127.215643 C116.897503,146.182083 99.7192719,149.703171 101.94875,144.324033 C102.767344,142.349883 104.260542,137.316323 103.696596,133.943307 C92.9278888,134.3585 76.7453496,129.859861 67.3287965,122.935825 C58.8113364,126.037412 52.8138309,124.059407 45.8734682,132.100223 C43.5907019,134.745802 39.2557813,127.533557 41.261677,117.823126 L33.2224481,117.823126 L23.5399087,81.6848052 L29.9868473,81.6848052 L18.2107478,37.7346929 L11.7634918,37.7346929 L2.08058725,1.59660313 L90.9666644,1.59660313 L100.239227,36.0217678 C100.862809,36.7575955 101.517231,37.4594095 102.205893,38.1029469 C107.006347,34.8074821 110.499544,34.8249424 113.34104,34.6210876 C111.624714,32.7224482 108.84807,31.016099 108.84807,31.016099 C112.759861,31.0004527 118.156006,32.1410423 121.835825,33.0505661 C120.797049,31.0707475 119.400224,28.9702941 119.400224,28.9702941 C138.955779,34.7492055 142.150337,47.7099761 135.751471,58.2197264 C135.614963,62.0199531 134.051244,66.4879802 134.051244,66.4879802 C135.18367,65.2916083 136.655552,64.5426288 137.719724,64.1151911 C137.200223,62.5376402 136.451697,61.3451232 136.451697,61.3451232 C140.037638,61.9061209 142.96825,64.4301571 142.96825,64.4301571 C145.465756,65.365758 148.350336,67.1820845 150.868704,69.7065742 C153.815869,66.9090686 164.900449,55.9503387 170.354418,44.4222211 C170.354418,44.4222211 165.947842,58.4521527 152.264395,71.2283429 C152.951924,72.0435356 153.595688,72.9156444 154.17732,73.8424018 C158.062354,72.2410413 172.252377,66.0390006 181.458045,57.31179 C181.458045,57.31179 172.380495,68.661903 155.195461,75.6587283 C155.746935,76.7637169 156.205665,77.9328779 156.546708,79.1587282 C161.634463,78.4263019 175.838771,75.9721069 186.334236,70.2233543" id="path16" fill="#231F20"></path>
                        <path d="M111.644215,133.254645 C111.196369,135.317457 110.224034,136.90045 109.709068,137.629248 C111.84943,136.181629 113.527435,134.310201 114.64172,132.854872 C117.046029,132.510428 118.82426,132.199997 119.277095,132.119725 C119.831063,131.946935 120.381403,131.756686 120.930382,131.557366 C116.893421,136.986618 110.378682,142.276414 105.894328,143.147162 C106.471879,141.748749 107.81587,137.985938 107.662809,133.681856 C109.022446,133.559634 110.370519,133.411561 111.644215,133.254645" id="path18" fill="#C3B597"></path>
                        <path d="M113.525621,53.9680259 C113.525621,53.9680259 113.774147,51.3954636 117.243081,51.9922889 C117.243081,51.9922889 120.117231,54.409976 118.286392,59.199545 C118.286392,59.199545 117.001811,55.7755088 113.525621,53.9680259" id="path20" fill="#FFFFFF"></path>
                        <path d="M132.958727,59.8659849 C132.958727,59.8659849 132.141493,56.6079351 130.493194,55.5863932 C130.493194,55.5863932 131.458954,54.6074816 131.89977,53.4952368 C132.914963,54.3736948 134.711108,56.5387741 132.958727,59.8659849" id="path22" fill="#FFFFFF"></path>
                        <path d="M112.613376,72.200225 C109.95782,72.2594086 109.512696,72.6907011 109.512696,72.6907011 C107.046256,64.2229009 113.634691,56.8566879 113.634691,56.8566879 C117.555553,58.2321981 118.352151,63.0664383 118.352151,63.0664383 C119.763716,61.9029463 120.723126,57.4151913 120.723126,57.4151913 C126.260768,57.0730144 130.960541,59.507028 130.960541,59.507028 C131.853738,66.4544201 125.658047,70.2956899 125.658047,70.2956899 C122.859861,68.0081616 122.658274,63.0063476 122.658274,63.0063476 C117.39909,66.22086 117.533557,72.3033996 117.533557,72.3033996 L114.700224,72.2063474 C113.032877,68.5732409 115.849884,60.0868466 115.849884,60.0868466 C111.09773,63.8770959 112.613376,72.200225 112.613376,72.200225" id="path24" fill="#8E0A26"></path>
                        <path d="M124.131063,72.3083882 C121.071199,71.8197261 119.697276,72.4433088 119.697276,72.4433088 C119.937639,68.6587284 122.135144,66.6056673 122.135144,66.6056673 C121.552605,69.199318 124.131063,72.3083882 124.131063,72.3083882" id="path26" fill="#FFFFFF"></path>
                        <path d="M128.97528,55.6473909 C128.568251,56.3739215 128.027888,56.1934226 127.972786,55.4727877 C127.942627,55.0657583 127.686618,54.4140576 127.510654,54.0063479 C127.360995,54.5340122 127.178908,55.0900213 127.075507,55.366892 C126.789566,56.1514725 126.227208,56.0566879 126.060314,55.3560077 C125.977094,55.0095224 125.83265,54.4730145 125.72358,54.0741483 C125.535825,54.5535134 125.321766,55.0448966 125.231516,55.2632639 C124.902491,56.0394544 124.318591,55.9988648 124.165983,55.3383206 C124.093874,55.0219941 123.936505,54.4623569 123.809521,54.0231279 C123.652831,54.4843524 123.50045,54.9487515 123.393194,55.1614499 C123.225394,55.4988648 122.519045,56.2614498 122.248977,55.136053 C122.155779,54.750112 122.056233,54.102493 122.00045,53.71179 C121.832877,54.0340123 121.581856,54.5623569 121.510881,54.9643977 C121.389113,55.6757356 120.960314,56.0081619 120.589566,55.1600893 C120.409521,54.7399079 120.088886,54.109976 120.094555,53.532425 C120.094555,53.532425 122.089113,53.2068014 123.993874,53.2718808 C127.519498,53.3927424 129.223126,54.2301574 129.223126,54.2301574 C129.156006,54.8700667 129.15079,55.3390009 128.97528,55.6473909" id="path28" fill="#FFFFFF"></path>
                        <path d="M139.489792,69.5730141 C139.489792,69.5730141 138.126754,65.6977308 139.620405,64.4938759 C139.620405,64.4938759 141.53401,66.113377 142.36689,69.5233543 C142.412015,69.7102023 139.653738,70.8902477 139.489792,69.5730141" id="path30" fill="#FFFFFF"></path>
                        <path d="M143.109747,74.3405877 C140.21587,76.035599 137.628341,75.6766421 137.628341,75.6766421 C132.325394,73.1977306 127.291153,72.7058939 127.291153,72.7058939 C128.08299,71.5911547 133.16553,71.5047601 136.36757,72.2791365 C140.604305,73.3009052 143.220405,71.7281161 143.220405,71.7281161 C143.220405,71.7281161 143.584123,73.2734676 143.109747,74.3405877" id="path32" fill="#FFFFFF"></path>
                        <path d="M136.538999,92.9723333 C134.659407,92.9904739 133.920178,91.5061202 133.920178,91.5061202 C133.920178,91.5061202 133.302264,92.8848049 135.607026,93.7312902 C137.908387,94.5764149 142.706799,91.7149637 142.706799,91.7149637 C141.929248,92.0115623 138.419044,92.9546462 136.538999,92.9723333 L136.538999,92.9723333 Z M148.951243,91.9872993 C150.595461,91.3058934 150.231516,90.6927415 149.564622,89.9653039 C149.553284,90.377322 149.965529,92.1988639 144.379361,91.4709728 C144.379361,91.4709728 147.303171,92.6705192 148.951243,91.9872993 Z M137.022446,86.2097484 C137.022446,86.2097484 137.731062,83.3698392 140.513375,81.9358256 C140.513375,81.9358256 141.710201,84.5850319 142.499316,88.5027189 C142.499316,88.5027189 144.20884,87.8705193 142.328795,81.5993177 C142.328795,81.5993177 145.362581,82.6022655 146.687751,85.003626 C146.687751,85.003626 144.425847,86.2328777 145.352831,87.7546463 C146.279361,89.2743742 149.410427,86.7283425 151.007026,90.2591814 C152.602491,93.7907006 146.18503,93.5936485 143.745575,92.3768684 C143.745575,92.3768684 137.208613,96.2621291 134.629475,94.4476167 C132.053738,92.6308367 132.199543,90.7870726 134.762128,89.7430817 C137.281176,88.7192722 140.17596,90.6589546 139.979362,87.9863924 C139.814962,85.7750545 137.022446,86.2097484 137.022446,86.2097484 L137.022446,86.2097484 Z" id="path34" fill="#4F4C4C"></path>
                        <path d="M135.607026,93.7312902 C133.302264,92.8848049 133.920178,91.5061202 133.920178,91.5061202 C133.920178,91.5061202 134.659407,92.9904739 136.538999,92.9723333 C138.419044,92.9546462 141.929248,92.0115623 142.706799,91.7149637 C142.706799,91.7149637 137.908387,94.5764149 135.607026,93.7312902" id="path36" fill="#989696"></path>
                        <path d="M149.564622,89.9653039 C150.231516,90.6927415 150.595461,91.3058934 148.951243,91.9872993 C147.303171,92.6705192 144.379361,91.4709728 144.379361,91.4709728 C149.965529,92.1988639 149.553284,90.377322 149.564622,89.9653039" id="path38" fill="#989696"></path>
                        <path d="M112.083217,102.886846 C110.790927,102.689793 109.526981,103.400904 109.021766,104.594102 C108.344895,104.973467 107.700451,105.335598 107.103852,105.670972 C107.005666,104.696369 107.130383,103.437412 107.694102,101.826755 C107.694102,101.826755 106.331743,102.936279 105.556006,104.558728 C105.230836,105.242174 105.010201,106.01519 105.037639,106.835825 C104.271653,107.269612 103.670519,107.610428 103.29909,107.821993 C102.225394,104.703172 104.248977,99.9160973 107.688433,99.9140565 C109.460995,100.84875 111.51587,101.585031 113.493421,102.105213 C113.017004,102.368251 112.546936,102.629249 112.083217,102.886846" id="path40" fill="#DEDDDE"></path>
                        <path d="M105.037639,106.835825 C105.054192,107.344895 105.166211,107.871199 105.409748,108.405439 C105.537866,108.688433 105.70544,108.974147 105.912923,109.260088 C105.54807,109.458727 105.189793,109.652151 104.841947,109.839226 C104.138319,109.401131 103.596596,108.699771 103.296596,107.823127 C103.668478,107.611562 104.270292,107.270519 105.037639,106.835825" id="path42" fill="#B4B3B3"></path>
                        <path d="M107.261449,106.526074 C107.190247,106.269839 107.136279,105.984351 107.103852,105.670972 C107.700451,105.335598 108.344895,104.973467 109.021766,104.594102 C108.712242,105.326981 108.626301,106.397049 109.339907,107.380723 C108.919725,107.61383 108.498183,107.846029 108.076641,108.077548 C107.784124,107.743988 107.460315,107.242854 107.261449,106.526074" id="path44" fill="#B4B3B3"></path>
                        <path d="M112.083217,102.886846 C112.546936,102.629249 113.017004,102.368251 113.493421,102.105213 C113.494782,102.104306 113.496596,102.103399 113.498183,102.102492 C114.572333,102.384805 116.406346,102.748524 117.399997,102.866891 C117.399997,102.866891 116.138773,103.582537 114.295916,104.617458 C113.757367,103.331517 112.654646,102.97392 112.083217,102.886846" id="path46" fill="#B4B3B3"></path>
                        <path d="M112.394328,105.681857 C112.375961,105.197503 111.796596,104.655326 111.146709,104.991607 C111.874147,105.116777 111.878228,105.734464 111.858501,105.981403 C111.571199,106.141947 111.285258,106.301585 110.985712,106.468025 C110.594328,106.217231 110.399544,105.730836 110.519498,105.286845 C110.672333,104.713376 111.263943,104.37256 111.838773,104.526528 C112.255099,104.638546 112.625394,105.028342 112.634691,105.54739 C112.556233,105.591834 112.47392,105.637866 112.394328,105.681857" id="path48" fill="#8E0A26"></path>
                        <path d="M105.409748,108.405439 C105.166211,107.871199 105.054192,107.344895 105.037639,106.835825 C105.010201,106.01519 105.230836,105.242174 105.556006,104.558728 C106.331743,102.936279 107.694102,101.826755 107.694102,101.826755 C107.130383,103.437412 107.005666,104.696369 107.103852,105.670972 C107.136279,105.984351 107.190247,106.269839 107.261449,106.526074 C107.460315,107.242854 107.784124,107.743988 108.076641,108.077548 C108.077322,108.077548 108.077322,108.077548 108.077322,108.077548 C108.023807,108.1068 105.929249,109.251698 105.912923,109.260088 L105.912923,109.260088 C105.70544,108.974147 105.537866,108.688433 105.409748,108.405439" id="path50" fill="#FFFFFF"></path>
                        <path d="M148.602944,107.239 C148.274826,107.138093 148.183216,107.10748 148.183216,107.10748 C148.337865,106.773013 148.362581,106.46553 148.315189,106.187752 C148.604985,106.284578 149.003398,106.419045 149.004758,106.419045 C148.969384,106.695689 148.833783,107.024487 148.602944,107.239" id="path52" fill="#B4B3B3"></path>
                        <path d="M146.744214,105.666664 C147.022445,105.757594 147.272785,105.840814 147.506572,105.917458 C147.549883,106.348977 147.44376,106.652378 147.33537,106.841494 C147.167117,106.787526 147.000677,106.734238 146.836051,106.680723 C147.061901,106.187979 146.857139,105.826981 146.744214,105.666664" id="path54" fill="#B4B3B3"></path>
                        <path d="M145.568477,105.286165 C145.35147,105.359635 145.000903,105.548977 144.898409,106.047163 C144.433103,105.892741 144.137411,105.793648 144.137411,105.793648 C144.544668,105.660768 144.873693,105.463263 145.307706,105.190474 C145.345348,105.201811 145.531289,105.274601 145.568477,105.286165" id="path56" fill="#B4B3B3"></path>
                        <path d="M145.755098,105.850564 C145.947842,105.755553 146.179135,105.834238 146.275507,106.026528 C146.3263,106.128569 146.338318,106.345349 146.195915,106.474601 C146.194327,106.474374 146.192513,106.473693 146.190473,106.473013 C146.075053,106.435598 145.96757,106.401358 145.856459,106.365303 C145.810654,106.25782 145.815869,106.046483 146.033103,105.965757 C146.000223,105.956913 145.968477,105.947843 145.934237,105.951018 C145.67596,105.960542 145.633556,106.163943 145.6424,106.296823 C145.613148,106.287752 145.548069,106.265984 145.545801,106.26553 C145.514736,106.087526 145.626073,105.912923 145.755098,105.850564" id="path58" fill="#8E0A26"></path>
                        <path d="M147.506572,105.917458 C147.471198,105.568025 147.338318,105.135145 147.026754,104.608614 C147.026754,104.608614 148.147842,105.206573 148.315189,106.187752 C148.362581,106.46553 148.337865,106.773013 148.183216,107.10748 C147.992513,107.04875 147.423806,106.869612 147.33469,106.841947 C147.33469,106.841494 147.33469,106.840587 147.33537,106.841494 C147.44376,106.652378 147.549883,106.348977 147.506572,105.917458" id="path60" fill="#FFFFFF"></path>
                        <path d="M148.315189,106.187752 C148.604985,106.284578 149.003398,106.419045 149.004758,106.419045 C149.120858,104.829249 147.751017,103.7068 146.894101,103.93265 C146.894101,103.93265 145.75079,104.875961 145.307706,105.190474 C145.345348,105.201811 145.531289,105.274601 145.568477,105.286165 C145.568477,105.286165 146.311561,105.019952 146.744214,105.666664 C147.022445,105.757594 147.272785,105.840814 147.506572,105.917458 C147.506572,105.917458 147.400223,105.119952 147.026754,104.608614 C147.026754,104.608614 148.107479,105.132197 148.315189,106.187752" id="path62" fill="#DEDDDE"></path>
                        <path d="M104.117458,123.74943 C103.17188,123.885711 102.358274,124.252605 102.359408,124.986845 C98.6628093,124.241267 95.8931949,122.220632 95.8931949,122.220632 C95.8931949,122.220632 100.271653,123.717911 104.117458,123.74943" id="path64" fill="#AC9C77"></path>
                        <path d="M106.757594,123.935371 C106.478229,123.813376 105.986845,123.723353 105.43129,123.695235 C106.264623,123.614963 107.041494,123.443308 107.701811,123.139906 C111.595462,121.352378 120.523126,117.090247 120.523126,117.090247 C120.523126,117.090247 118.090927,119.405212 114.372106,121.722446 C114.122673,121.697956 113.814736,121.685258 113.433104,121.6907 C111.035825,121.721085 109.701585,122.99909 110.186845,123.772333 C110.222219,123.828115 110.260315,123.88367 110.300678,123.938092 C109.924714,124.112695 109.542401,124.282083 109.153966,124.444215 C108.553512,124.695915 107.950337,124.880949 107.350111,125.011335 C107.241947,124.487525 107.036279,124.059181 106.757594,123.935371" id="path66" fill="#AC9C77"></path>
                        <path d="M121.425847,105.652378 C120.921539,105.98095 120.359861,106.341947 119.75011,106.726981 C119.536051,106.683444 119.306346,106.720179 119.105439,106.807934 C118.887299,106.903625 118.434464,107.31451 117.985031,107.820632 C116.938546,108.45782 115.801811,109.129476 114.609521,109.803172 C114.258727,109.624714 114.318591,109.94875 113.248296,110.532197 C113.15646,110.581403 113.066891,110.640133 112.979362,110.704986 C111.629249,111.435825 110.231063,112.151244 108.828795,112.809294 C108.587072,112.640587 108.199771,112.660768 107.494555,113.143081 C107.265303,113.300677 107.074374,113.479362 106.910882,113.670519 C105.550111,114.251925 104.204759,114.760315 102.916777,115.15646 C102.883898,115.14807 102.856006,115.138319 102.821086,115.130383 C101.242174,114.772333 98.7909272,114.569385 99.1031721,115.662355 C99.1342379,115.772106 99.1802696,115.875054 99.2362787,115.972106 C98.4972764,116.056233 97.8015849,116.075281 97.1587277,116.019271 C97.2807232,115.498183 96.9861654,114.769612 96.5342379,114.162355 C98.7292492,114.507027 101.577548,114.278909 105.054192,112.627888 C108.831517,110.832197 121.928115,103.188433 121.928115,103.188433 C121.928115,103.188433 122.352831,103.537639 123.072106,104.001585 C122.155099,104.392288 121.476187,104.894555 121.425847,105.652378" id="path68" fill="#AC9C77"></path>
                        <path d="M83.6587281,53.056688 C83.6970501,53.0698399 83.7346918,53.0795905 83.7725603,53.0895678 C83.0770954,53.4639442 82.3730138,53.8224476 81.6677984,54.1666653 C81.3399073,53.7843524 80.360769,53.3746018 80.2433087,53.1326517 C80.2238075,53.0916087 80.1993177,53.0274363 80.1689322,52.949205 C81.0122429,52.5458037 81.8628097,52.1181393 82.7124696,51.6650781 C82.8907009,52.2986381 83.1528324,52.885713 83.6587281,53.056688" id="path70" fill="#AC9C77"></path>
                        <path d="M68.2698396,59.2775495 C67.3480709,59.5476176 66.7251684,59.7129237 66.5036265,59.7702933 C66.4963702,59.739681 66.4895675,59.708842 66.4798169,59.6782298 C66.2655312,59.0376402 65.804987,58.5394543 65.2727875,58.343536 C65.2832183,58.3265292 65.2927421,58.3092956 65.3029462,58.292062 C65.3029462,58.292062 66.0632637,58.1172321 67.3569144,57.7530598 C67.6054405,58.490248 68.1421752,59.1376402 68.2648509,59.2739214 C68.2664382,59.2757355 68.2682523,59.2757355 68.2698396,59.2775495" id="path72" fill="#AC9C77"></path>
                        <path d="M72.940361,57.7709736 C71.2848055,58.3521527 69.8328781,58.8108829 68.7210867,59.1437627 C68.9786831,58.9163251 69.2666649,58.4873001 69.4174586,57.9553273 C69.4616763,57.7993183 69.3877534,57.5079351 69.2412681,57.1952367 C70.0641706,56.9412684 70.9904744,56.6405882 71.993649,56.2920621 C71.9943293,56.3029464 71.992742,56.3133773 71.9941025,56.3244884 C72.1365061,57.6160983 71.6993179,57.8045337 72.940361,57.7709736" id="path74" fill="#AC9C77"></path>
                        <path d="M80.408388,54.7639442 C78.2882067,55.7444431 76.189794,56.5870734 74.2872997,57.2866199 C74.7557804,56.7757355 74.8630367,55.9512458 74.6895673,55.3047605 C75.8643972,54.8519261 77.1006783,54.3435361 78.3689323,53.7793637 C78.6530593,53.887527 78.8936488,54.0009057 79.0589549,54.1138308 C79.5018121,54.418366 79.9687055,54.6557809 80.408388,54.7639442" id="path76" fill="#AC9C77"></path>
                        <path d="M78.9453495,60.9478443 C80.5151907,60.2607695 82.040134,59.452833 83.4764151,58.6022661 C83.5124696,58.9712003 83.6297031,59.2952366 83.7995444,59.5700665 C82.0941023,60.3421754 80.4235808,60.868706 78.9453495,60.9478443" id="path78" fill="#AC9C77"></path>
                        <path d="M94.7956892,52.315645 C94.1428548,52.8544204 93.3027188,53.5281166 92.3335578,54.2612231 C91.6108821,53.8199533 90.7820839,53.6811778 89.9049864,54.5655315 C89.3503379,55.127663 89.4106554,55.6791369 89.7541928,56.1204068 C88.767118,56.7956902 87.720406,57.4680258 86.652152,58.0877536 C86.7355987,57.4950099 86.8165511,56.9047605 86.8464831,56.4378671 C90.7215397,53.7535134 93.3573673,51.2723343 93.3573673,51.2723343 C91.1022653,50.0693865 87.727889,50.7179126 87.727889,50.7179126 C86.8702926,51.2972776 85.9752813,51.8492051 85.058728,52.3752821 C85.0664378,52.1253955 84.9977303,51.8183661 84.8244877,51.4498853 C84.7090682,51.201586 84.5424015,50.96984 84.3498845,50.7596359 C85.2641702,50.2344659 86.1718799,49.6802709 87.0614491,49.0945566 C87.0614491,49.0945566 87.3757348,49.0083888 87.9083878,48.9290237 C88.1571407,49.8160985 88.8555533,50.229704 89.6043061,50.2700668 C90.5562336,50.4310645 91.6630363,49.9476178 92.0494308,49.0387743 C92.8838979,49.2136042 93.7591813,49.5027199 94.6229001,49.9578219 C93.6011314,50.7956903 93.9213128,51.7528332 94.7956892,52.315645" id="path80" fill="#AC9C77"></path>
                        <path d="M72.3999982,120.531516 C74.7503383,122.078001 92.0510181,132.640586 120.556913,128.6424 C119.319045,129.155326 118.002718,129.582083 116.561222,129.926754 C115.083897,129.364623 113.052378,129.308387 112.801358,129.955099 C112.728115,130.143307 112.743535,130.363262 112.827208,130.60045 C111.297956,130.797502 109.626981,130.926754 107.782083,130.994101 C106.75714,130.602038 105.936959,130.194781 105.592061,129.844214 C105.11383,129.353512 103.800224,130.135598 103.308387,131.04104 C102.3907,131.029475 101.434918,131.006799 100.439,130.973693 C100.591607,130.729929 100.578002,130.455099 100.256007,130.171199 C99.1789091,129.223806 96.1707459,128.714056 95.4975033,129.413602 C95.112696,129.815416 95.3380929,130.247162 95.8013581,130.635144 C94.7707459,130.515416 93.7596348,130.367797 92.7671179,130.195235 C92.6263015,129.803625 92.256687,129.293648 91.6573673,128.678682 C90.584805,127.580269 88.1909275,127.051471 87.8711996,127.968251 C87.7219933,128.396142 87.6918345,128.76621 87.7482971,129.088886 C87.0600885,128.904532 86.3827643,128.709294 85.7156441,128.505666 C85.39705,127.422899 84.6446691,125.924033 82.9052133,125.743988 C81.347617,125.58367 81.0646238,126.272786 81.1126964,126.902038 C80.1907009,126.541947 79.2929685,126.168478 78.4188189,125.785711 C78.51315,125.127661 78.1734674,124.298863 77.4033994,123.678001 C76.3213133,122.802038 75.1773224,122.345122 74.5922884,122.940813 C74.3258485,123.209521 74.2816308,123.536278 74.3820843,123.88231 C72.9249415,123.148523 71.548751,122.408614 70.2571411,121.689339 C70.9551003,121.346029 71.6689324,120.962128 72.3999982,120.531516" id="path82" fill="#DFD7C6"></path>
                        <path d="M136.329475,79.3319708 C133.76689,80.2820842 132.211788,86.2480704 132.211788,86.2480704 C127.981629,88.2673447 127.884577,92.5281156 127.884577,92.5281156 C124.643081,94.733331 121.256686,95.521086 119.067344,95.7981835 C118.742401,95.3430815 118.284578,94.8394534 117.809748,94.4433083 C120.460995,91.8192721 126.586391,88.292288 126.586391,88.292288 C122.436505,86.3841248 118.09138,87.6006781 116.154419,88.3408141 C116.012015,88.2580477 115.870292,88.1798164 115.731743,88.1074808 C119.331743,84.6158709 127.942627,83.2154174 127.942627,83.2154174 C123.322219,80.8260751 118.521993,81.5258483 116.19138,82.1068007 C116.223807,81.9755082 116.244442,81.8480705 116.250564,81.7294764 C121.009521,79.6884334 129.460087,79.8752814 129.460087,79.8752814 C119.340813,75.0319709 109.279362,77.2362792 109.279362,77.2362792 C118.002945,72.5895673 138.892967,78.3793631 136.329475,79.3319708" id="path84" fill="#EAE4D8"></path>
                        <path d="M133.130382,121.105893 C134.578681,120.513149 135.693194,119.810428 136.472105,119.262809 C137.069838,120.017684 137.655779,120.459634 137.655779,120.459634 C137.40884,120.711562 137.129702,120.945348 136.831289,121.160995 C136.700904,120.937639 136.417684,120.913829 135.505212,120.943308 C134.452378,120.979362 134.16689,121.856233 134.452378,122.440813 C132.994554,123.038092 131.72562,123.30884 131.72562,123.30884 C132.550564,122.412922 132.949657,121.675507 133.130382,121.105893" id="path86" fill="#DFD7C6"></path>
                        <path d="M148.117683,114.898637 C148.22494,114.99841 148.409747,115.024487 148.637638,114.992287 C147.608613,118.822446 144.726073,119.929249 144.726073,119.929249 C144.191153,119.907934 143.68503,119.860768 143.20045,119.794782 C143.202491,119.765303 143.206119,119.738092 143.207706,119.707253 C143.218591,119.512695 143.219498,119.332423 143.216776,119.160088 C143.614509,118.909521 144.02494,118.607253 144.437638,118.243761 C144.505439,118.367797 144.605892,118.485485 144.755098,118.592061 C145.712241,119.271199 148.09342,117.684804 147.319271,116.256913 C147.117683,115.885258 146.888658,115.657367 146.652604,115.541494 C147.440586,114.230836 148.145121,112.558727 148.662808,110.416777 C148.745348,110.372333 148.817683,110.317684 148.877774,110.254419 C149.011107,111.340587 149.027434,112.31587 148.95215,113.184124 C148.290926,113.794782 147.683897,114.493421 148.117683,114.898637" id="path88" fill="#DFD7C6"></path>
                        <path d="M115.626528,44.8725612 C114.250564,45.081178 113.067344,45.4804977 112.036732,46.0217676 C112.079362,45.7244887 111.801131,45.0739218 111.414963,44.6052143 C112.941947,44.30272 114.451698,44.463491 115.626528,44.8725612" id="path90" fill="#EAE4D8"></path>
                        <path d="M114.976641,112.772786 C117.0585,111.628569 118.463262,110.787752 118.463262,110.787752 C116.301358,112.814056 114.374374,114.409294 112.658954,115.660315 C111.826981,115.901811 111.042174,116.355099 110.893648,116.877775 C102.853966,122.087072 100.245802,118.975961 100.245802,118.975961 C103.424487,118.580949 108.689793,116.09977 112.745122,113.971199 C113.8229,113.868478 114.543988,113.377321 114.976641,112.772786" id="path92" fill="#DFD7C6"></path>
                        <path d="M139.080949,104.418591 C137.079135,106.091607 135.066437,107.35578 133.568251,108.195235 C133.28299,107.978682 132.965756,107.863716 132.635144,107.937639 C132.122219,108.053739 131.900677,108.521539 131.972559,109.036732 C131.451697,109.292741 131.146709,109.423807 131.146709,109.423807 C131.098409,109.351244 131.031516,109.272106 130.953285,109.190473 C131.13401,108.72222 131.220858,108.178002 131.217684,107.712242 C131.980722,107.591834 132.719951,107.368478 133.420632,107.078229 C134.626981,107.273013 135.590926,106.637639 135.980949,105.670519 C136.987752,104.981403 137.815416,104.257367 138.380949,103.716324 C138.62494,104.074374 138.876867,104.290474 139.080949,104.418591" id="path94" fill="#DFD7C6"></path>
                        <path d="M83.8492043,94.9145101 C83.8492043,94.9145101 83.5306102,94.6945555 82.994329,94.2936484 C83.0215399,94.25578 83.0478437,94.2165509 83.0725603,94.1764149 C83.3315172,94.4346915 83.5902473,94.6827641 83.8492043,94.9145101" id="path96" fill="#AC9C77"></path>
                        <path d="M96.7607686,107.446256 C96.4215395,105.323807 96.3569137,102.416097 97.9582742,100.539907 C99.5863921,98.6308365 101.863716,98.4163241 103.464623,98.5641699 C101.705213,99.7183649 98.1213127,102.722673 97.4972765,108.344895 C97.4179114,108.191154 97.3174579,108.03197 97.1888865,107.866891 C97.0600883,107.701358 96.9156438,107.563036 96.7607686,107.446256" id="path98" fill="#AC9C77"></path>
                        <path d="M120.823353,107.934011 C120.823353,107.934011 123.241267,108.476188 125.419044,109.993648 C125.213376,110.05782 125.023806,110.154873 124.858274,110.28934 C123.446255,108.964623 121.721766,108.186845 120.823353,107.934011" id="path100" fill="#DFD7C6"></path>
                        <path d="M127.0068,115.823126 C127.039453,115.658954 127.063942,115.492287 127.072786,115.320632 C127.109747,114.583217 127.010428,113.902718 126.814509,113.276641 C127.126981,112.952832 127.400677,112.53197 127.612922,112.119272 C128.207253,112.960315 128.636505,113.954192 128.773466,115.119952 C128.253512,115.298637 127.726754,115.518591 127.2746,115.704986 C127.18299,115.742627 127.093874,115.782537 127.0068,115.823126" id="path102" fill="#DFD7C6"></path>
                        <path d="M128.123126,118.093421 C127.398636,119.230609 126.170518,120.248523 124.723126,121.136958 C124.568251,120.6585 123.060995,120.529249 121.529475,120.886392 C119.93968,121.253965 118.780496,122.928795 119.684351,123.483897 C119.702718,123.494555 119.7229,123.502945 119.741494,123.513376 C116.44172,124.775054 113.507027,125.443534 113.507027,125.443534 C116.031063,124.314509 118.174147,121.618818 118.174147,121.618818 C120.473693,121.025847 124.00045,119.854419 125.848976,117.912695 C125.923126,117.980723 126.005893,118.048523 126.109067,118.114056 C126.602491,118.427888 127.34943,118.362809 128.123126,118.093421" id="path104" fill="#DFD7C6"></path>
                        <path d="M139.219271,102.854192 C140.04172,102.943762 140.948296,102.720859 140.948296,102.720859 C140.338545,103.326982 139.710427,103.892288 139.080949,104.418591 C138.876867,104.290474 138.62494,104.074374 138.380949,103.716324 C138.916777,103.203626 139.219271,102.854192 139.219271,102.854192" id="path106" fill="#A08F66"></path>
                        <path d="M104.966437,57.3516992 C104.873694,57.6854861 104.783217,58.014511 104.693648,58.3401346 C104.575508,58.0961437 104.463943,57.8798171 104.352378,57.7310643 C104.092741,57.3843523 104.429703,57.2680258 104.966437,57.3516992" id="path108" fill="#A08F66"></path>
                        <path d="M101.682991,67.6365062 C101.439453,68.2721071 101.202492,68.8655312 100.973467,69.4224472 C100.814963,68.7659847 100.930383,68.0181389 101.682991,67.6365062" id="path110" fill="#A08F66"></path>
                        <path d="M102.689113,63.2077082 C102.934011,62.9600891 103.175281,62.7927422 103.411335,62.6888873 C103.163489,63.4659848 102.917231,64.2074814 102.672787,64.9140573 C102.217458,64.4516991 102.069385,63.8355993 102.689113,63.2077082" id="path112" fill="#A08F66"></path>
                        <path d="M112.036732,46.0217676 C111.502718,46.3024932 111.009521,46.6217675 110.555099,46.9741485 C110.234918,46.521314 109.815644,45.7850329 109.847616,45.0918356 C110.363263,44.8693866 110.89002,44.7092959 111.414963,44.6052143 C111.801131,45.0739218 112.079362,45.7244887 112.036732,46.0217676" id="path114" fill="#A08F66"></path>
                        <path d="M108.232424,49.4532867 C107.509975,50.491382 106.933784,51.6385475 106.449204,52.8256223 C106.332877,52.5496586 106.26553,52.2349193 106.270746,51.8859397 C106.288433,50.8353729 107.324034,49.9424024 108.232424,49.4532867" id="path116" fill="#A08F66"></path>
                        <path d="M132.635144,107.937639 C132.965756,107.863716 133.28299,107.978682 133.568251,108.195235 C132.927661,108.553966 132.38299,108.834691 131.972559,109.036732 C131.900677,108.521539 132.122219,108.053739 132.635144,107.937639" id="path118" fill="#A08F66"></path>
                        <path d="M112.658954,115.660315 C112.042854,116.109294 111.455553,116.513376 110.893648,116.877775 C111.042174,116.355099 111.826981,115.901811 112.658954,115.660315" id="path120" fill="#A08F66"></path>
                        <path d="M112.745122,113.971199 C113.544215,113.551698 114.296369,113.146029 114.976641,112.772786 C114.543988,113.377321 113.8229,113.868478 112.745122,113.971199" id="path122" fill="#A08F66"></path>
                        <path d="M133.420632,107.078229 C134.354192,106.691834 135.218817,106.192061 135.980949,105.670519 C135.590926,106.637639 134.626981,107.273013 133.420632,107.078229" id="path124" fill="#A08F66"></path>
                        <path d="M130.953285,109.190473 C130.35079,108.562809 128.991607,107.740133 128.991607,107.740133 C129.746936,107.849884 130.492287,107.826528 131.217684,107.712242 C131.220858,108.178002 131.13401,108.72222 130.953285,109.190473" id="path126" fill="#A08F66"></path>
                        <path d="M124.858274,110.28934 C125.023806,110.154873 125.213376,110.05782 125.419044,109.993648 C126.229929,110.558954 127.006119,111.260315 127.612922,112.119272 C127.400677,112.53197 127.126981,112.952832 126.814509,113.276641 C126.44036,112.079816 125.706573,111.085938 124.858274,110.28934" id="path128" fill="#A08F66"></path>
                        <path d="M128.123126,118.093421 C127.34943,118.362809 126.602491,118.427888 126.109067,118.114056 C126.005893,118.048523 125.923126,117.980723 125.848976,117.912695 C126.436278,117.296142 126.851017,116.601131 127.0068,115.823126 C127.093874,115.782537 127.18299,115.742627 127.2746,115.704986 C127.726754,115.518591 128.253512,115.298637 128.773466,115.119952 C128.80045,115.346709 128.820178,115.577775 128.823353,115.817911 C128.835598,116.622219 128.577321,117.381176 128.123126,118.093421" id="path130" fill="#A08F66"></path>
                        <path d="M121.529475,120.886392 C123.060995,120.529249 124.568251,120.6585 124.723126,121.136958 C123.193421,122.075961 121.420632,122.871425 119.741494,123.513376 C119.7229,123.502945 119.702718,123.494555 119.684351,123.483897 C118.780496,122.928795 119.93968,121.253965 121.529475,120.886392" id="path132" fill="#A08F66"></path>
                        <path d="M114.747843,82.5421748 C115.184804,82.2380932 115.692741,81.9687054 116.250564,81.7294764 C116.244442,81.8480705 116.223807,81.9755082 116.19138,82.1068007 C115.281857,82.3337848 114.747843,82.5421748 114.747843,82.5421748" id="path134" fill="#A08F66"></path>
                        <path d="M119.067344,95.7981835 C117.610201,95.9825373 116.681856,95.9424012 116.681856,95.9424012 C116.841494,95.5115622 117.249884,94.9963695 117.809748,94.4433083 C118.284578,94.8394534 118.742401,95.3430815 119.067344,95.7981835" id="path136" fill="#A08F66"></path>
                        <path d="M115.115643,88.7882064 C115.298637,88.5528323 115.505893,88.3265284 115.731743,88.1074808 C115.870292,88.1798164 116.012015,88.2580477 116.154419,88.3408141 C115.497049,88.5920613 115.115643,88.7882064 115.115643,88.7882064" id="path138" fill="#A08F66"></path>
                        <path d="M105.328796,54.1480712 C105.23129,55.6263025 104.192288,55.7319714 103.209294,55.349205 C103.551245,54.395917 103.920406,53.4244885 104.312923,52.4646245 C104.977322,52.7335588 105.386845,53.2351461 105.328796,54.1480712" id="path140" fill="#A08F66"></path>
                        <path d="M148.662808,110.416777 C148.783061,110.201585 148.901205,109.982537 149.013546,109.758047 C149.073146,109.927662 149.116395,110.09002 149.162808,110.254419 C149.02304,110.317684 148.854791,110.372333 148.662808,110.416777" id="path142" fill="#A08F66"></path>
                        <path d="M148.117683,114.898637 C147.683897,114.493421 148.290926,113.794782 148.95215,113.184124 C148.894554,113.846482 148.78435,114.446029 148.637638,114.992287 C148.409747,115.024487 148.22494,114.99841 148.117683,114.898637" id="path144" fill="#A08F66"></path>
                        <path d="M147.319271,116.256913 C148.09342,117.684804 145.712241,119.271199 144.755098,118.592061 C144.605892,118.485485 144.505439,118.367797 144.437638,118.243761 C145.193874,117.576868 145.955779,116.700677 146.652604,115.541494 C146.888658,115.657367 147.117683,115.885258 147.319271,116.256913" id="path146" fill="#A08F66"></path>
                        <path d="M135.505212,120.943308 C136.417684,120.913829 136.700904,120.937639 136.831289,121.160995 C136.098636,121.691153 135.247389,122.114056 134.452378,122.440813 C134.16689,121.856233 134.452378,120.979362 135.505212,120.943308" id="path148" fill="#A08F66"></path>
                        <path d="M74.5922884,122.940813 C75.1773224,122.345122 76.3213133,122.802038 77.4033994,123.678001 C78.1734674,124.298863 78.51315,125.127661 78.4188189,125.785711 C77.0097486,125.168478 75.6639437,124.528115 74.3820843,123.88231 C74.2816308,123.536278 74.3258485,123.209521 74.5922884,122.940813" id="path150" fill="#A08F66"></path>
                        <path d="M82.9052133,125.743988 C84.6446691,125.924033 85.39705,127.422899 85.7156441,128.505666 C84.1204061,128.017457 82.5857122,127.477094 81.1126964,126.902038 C81.0646238,126.272786 81.347617,125.58367 82.9052133,125.743988" id="path152" fill="#A08F66"></path>
                        <path d="M87.8711996,127.968251 C88.1909275,127.051471 90.584805,127.580269 91.6573673,128.678682 C92.256687,129.293648 92.6263015,129.803625 92.7671179,130.195235 C91.0360521,129.895688 89.362356,129.521539 87.7482971,129.088886 C87.6918345,128.76621 87.7219933,128.396142 87.8711996,127.968251" id="path154" fill="#A08F66"></path>
                        <path d="M112.801358,129.955099 C113.052378,129.308387 115.083897,129.364623 116.561222,129.926754 C115.405893,130.202945 114.170519,130.427661 112.827208,130.60045 C112.743535,130.363262 112.728115,130.143307 112.801358,129.955099" id="path156" fill="#A08F66"></path>
                        <path d="M95.4975033,129.413602 C96.1707459,128.714056 99.1789091,129.223806 100.256007,130.171199 C100.578002,130.455099 100.591607,130.729929 100.439,130.973693 C100.317004,130.969611 100.19705,130.96621 100.07392,130.961675 C98.6151903,130.909294 97.1916075,130.796595 95.8013581,130.635144 C95.3380929,130.247162 95.112696,129.815416 95.4975033,129.413602" id="path158" fill="#A08F66"></path>
                        <path d="M105.592061,129.844214 C105.936959,130.194781 106.75714,130.602038 107.782083,130.994101 C106.396142,131.044895 104.909748,131.060087 103.308387,131.04104 C103.800224,130.135598 105.11383,129.353512 105.592061,129.844214" id="path160" fill="#A08F66"></path>
                        <path d="M135.35079,115.142174 C135.422899,115.50816 138.285257,114.307027 137.935144,112.957367 C137.587525,111.60612 134.802491,112.371653 135.35079,115.142174 Z M142.005439,115.511335 C143.395915,115.303625 143.631289,114.764169 143.631289,114.764169 C143.272105,113.575281 143.69274,113.460315 142.031289,113.514283 C140.371652,113.569838 140.613148,115.718591 142.005439,115.511335 L142.005439,115.511335 Z M121.429929,126.053285 C121.401131,126.015416 121.356006,125.976187 121.303625,125.935825 C128.424487,123.679589 133.264169,118.360088 131.784124,113.762582 C131.317684,112.312696 130.544441,111.218818 129.620178,110.391607 C129.813602,110.338546 130.008614,110.26485 130.199997,110.168251 C130.533103,109.999317 130.78367,109.628795 130.953285,109.190473 C131.031516,109.272106 131.098409,109.351244 131.146709,109.423807 C131.146709,109.423807 131.451697,109.292741 131.972559,109.036732 C132.021992,109.392061 132.212695,109.768705 132.542854,110.067117 C132.470972,113.212015 133.806346,114.702718 133.806346,114.702718 C133.678681,113.126981 134.259861,111.377095 134.259861,111.377095 C136.986164,111.080043 140.331743,107.977548 140.331743,107.977548 C140.607253,108.723807 140.921765,109.34739 141.260767,109.873013 C140.480269,110.051471 139.557593,110.623807 139.187298,111.524941 C138.62494,112.89977 139.323806,113.04807 140.228341,112.574147 C140.89977,112.222673 141.831742,111.743535 142.268704,111.095689 C144.665076,113.34036 147.585484,112.116324 147.585484,112.116324 C145.678681,111.637412 144.330609,110.451018 143.45986,109.384351 C143.945801,109.580723 144.419724,109.641494 144.770064,109.422219 C145.144441,109.187072 145.256686,108.83129 145.217683,108.454646 C145.705665,108.630156 146.190246,108.805893 146.638545,108.968251 C146.624713,109.44943 147.167117,110.472786 147.758953,110.551018 C148.098182,110.596369 148.421085,110.547616 148.662808,110.416777 C148.145121,112.558727 147.440586,114.230836 146.652604,115.541494 C146.148976,115.293648 145.611788,115.560995 145.231062,116.060541 C144.7585,116.68163 144.067117,117.571426 144.437638,118.243761 C144.02494,118.607253 143.614509,118.909521 143.216776,119.160088 C143.189339,117.249203 142.438999,116.676868 142.367343,116.895235 C142.30884,117.070745 141.388432,118.536278 140.90816,119.296596 C140.049883,119.032197 139.299316,118.70748 138.648523,118.359634 C138.655099,118.356913 138.661675,118.355099 138.668024,118.351924 C139.485031,117.9746 140.309974,116.814056 140.390699,116.423353 C140.390699,116.423353 140.72426,115.925167 139.142627,116.009748 C137.906799,116.077321 137.082536,116.69773 136.923806,117.235144 C135.767797,116.321766 135.242627,115.529476 135.242627,115.529476 C135.06757,117.084578 135.781176,118.390927 136.477094,119.269158 C136.475053,119.266437 136.473919,119.264623 136.472105,119.262809 C135.693194,119.810428 134.578681,120.513149 133.130382,121.105893 C133.130382,121.107026 133.129929,121.10748 133.129929,121.10748 C133.261901,120.690473 133.27392,120.368251 133.249657,120.13333 C134.192514,119.889113 134.369158,119.487752 134.369158,119.487752 C134.00952,118.298863 134.429929,118.18163 132.769838,118.237185 C131.210654,118.290473 131.329702,120.188206 132.504532,120.247616 C131.347389,121.269385 130.355326,122.130382 129.468251,122.873693 C129.268477,122.851924 128.983217,122.855326 128.568704,122.868931 C127.479815,122.906119 127.214963,123.840813 127.549883,124.422899 C127.225394,124.67324 126.911335,124.908614 126.604532,125.130836 C126.409067,125.055552 126.174147,124.998863 125.888432,124.968704 C123.811562,124.754645 123.998863,126.048296 124.218137,126.700224 C123.694328,127.011108 123.154872,127.311108 122.575734,127.617457 C122.564623,126.977094 121.680042,126.385938 121.429929,126.053285 L121.429929,126.053285 Z" id="path162" fill="#C3B597"></path>
                        <path d="M133.568251,108.195235 C135.066437,107.35578 137.079135,106.091607 139.080949,104.418591 C139.329928,104.574147 139.507253,104.601358 139.507253,104.601358 C140.405212,104.576868 140.859634,103.772333 140.972559,102.88095 C141.017003,102.525394 141.018364,102.124487 140.93401,101.770973 C142.573693,101.701358 145.009747,101.076415 147.533783,98.5591812 C144.660541,101.955099 141.760087,104.427889 139.252151,106.195689 C139.093421,106.194555 138.905892,106.198183 138.674146,106.205893 C137.818364,106.234691 137.470972,106.817911 137.521992,107.348523 C136.301584,108.114963 135.221765,108.695689 134.345348,109.1229 C134.136731,108.767117 133.870065,108.424034 133.568251,108.195235" id="path164" fill="#C3B597"></path>
                        <path d="M138.248069,103.50544 C138.291607,103.58095 138.336051,103.650111 138.380949,103.716324 C137.815416,104.257367 136.987752,104.981403 135.980949,105.670519 C136.071198,105.446256 136.134237,105.206573 136.158273,104.953059 C136.199316,104.527208 136.160994,104.20612 136.074827,103.965304 C136.970291,103.328115 137.70816,102.68866 138.203171,102.227435 C138.045121,102.666891 138.03265,103.133558 138.248069,103.50544" id="path166" fill="#C3B597"></path>
                        <path d="M102.126755,67.4725607 C101.957594,67.514284 101.811789,67.5709734 101.682991,67.6365062 C102.004306,66.796597 102.336052,65.8884337 102.672787,64.9140573 C103.076415,65.3235811 103.720179,65.6108827 104.285258,65.6811775 C104.044215,66.4131503 103.791607,67.1498849 103.524487,67.8879802 C103.134465,67.5623566 102.630383,67.3496582 102.126755,67.4725607" id="path168" fill="#D1C6AE"></path>
                        <path d="M123.011335,42.4977314 C123.001131,41.2297042 122.727208,40.3734684 122.727208,40.3734684 C124.848976,40.7002257 127.337412,42.0292506 127.337412,42.0292506 C125.078228,39.7367337 120.724033,38.6786838 120.724033,38.6786838 C121.771879,39.7668924 121.646482,40.9451237 121.646482,40.9451237 C118.769385,39.7866203 114.538546,40.3056679 114.538546,40.3056679 C118.179135,40.3689332 123.011335,42.4977314 123.011335,42.4977314 L123.011335,42.4977314 Z M109.526528,49.0807244 C109.359181,48.9877539 108.822673,49.1349194 108.232424,49.4532867 C108.878002,48.5242618 109.641721,47.6834455 110.555099,46.9741485 C110.700904,47.1809512 110.825848,47.3294773 110.877321,47.3863934 C111.084578,47.6122437 111.765984,46.9927426 112.029249,46.0643979 C112.032877,46.0507925 112.034918,46.0369603 112.036732,46.0217676 C113.067344,45.4804977 114.250564,45.081178 115.626528,44.8725612 C114.451698,44.463491 112.941947,44.30272 111.414963,44.6052143 C111.004532,44.1063481 110.473013,43.8140579 110.08163,44.3770964 C109.926528,44.5990919 109.858727,44.8430828 109.847616,45.0918356 C108.343988,45.7430828 106.932877,46.9340124 105.934918,48.8900215 C105.359861,50.0154183 104.817231,51.2290237 104.312923,52.4646245 C103.858954,52.2809511 103.286165,52.2052141 102.658728,52.185713 C102.538546,52.1820849 102.433558,52.1825384 102.334918,52.185713 C102.810428,51.2467107 103.288886,50.2555543 103.767798,49.2043072 C103.410201,48.2877539 102.867571,47.1516995 102.142174,46.3623571 C102.142174,46.3623571 105.519272,42.1244887 112.08231,41.8455772 C111.392741,40.808389 110.204079,39.6088425 108.212015,39.076643 C108.212015,39.076643 112.481403,36.9061215 118.602491,38.1362802 C118.143308,37.0081623 117.392741,35.7469379 116.202038,35.1083891 C116.202038,35.1083891 123.3068,35.7523801 127.868251,39.1675727 C127.773466,38.0399083 127.53197,36.6943301 126.938772,35.6677996 C126.938772,35.6677996 134.457366,38.8621305 135.589112,47.5811779 C133.173693,47.026983 132.289339,47.7990918 132.289339,47.7990918 C133.190246,45.0748288 131.439906,43.7945567 131.439906,43.7945567 C131.677774,45.950339 129.427434,46.9770963 129.427434,46.9770963 C130.361221,45.6575952 129.486845,43.272788 129.486845,43.272788 C127.446709,43.9469377 127.012015,46.4473911 127.012015,46.4473911 C126.562582,43.7693867 123.987979,42.0927427 123.987979,42.0927427 C125.076187,43.8945567 124.31723,46.0764161 124.31723,46.0764161 C123.375507,43.7317449 119.780042,42.8294774 119.780042,42.8294774 C120.951471,44.5378674 120.929022,45.9267562 120.929022,45.9267562 C119.792968,44.5179127 116.837185,43.6124706 116.837185,43.6124706 C117.743308,44.6074819 117.783217,45.9090691 117.733557,46.5612233 C115.723353,46.3371871 112.354646,46.8142845 109.678002,50.3952368 C109.65578,50.4256223 109.634464,50.4594092 109.612696,50.4904749 C109.691834,49.7569149 109.705893,49.1818582 109.526528,49.0807244 L109.526528,49.0807244 Z" id="path170" fill="#D1C6AE"></path>
                        <path d="M103.411335,62.6888873 C103.752152,61.6190461 104.094102,60.4866198 104.43197,59.283672 C104.518818,58.9755087 104.605666,58.6598625 104.693648,58.3401346 C105.01519,59.0040802 105.388659,59.8791368 105.951018,60.229477 C105.695462,61.1038533 105.43197,62.0038533 105.154192,62.9222206 C104.623807,62.5888873 104.035372,62.4149644 103.411335,62.6888873" id="path172" fill="#D1C6AE"></path>
                        <path d="M106.449204,52.8256223 C106.731063,53.4900213 107.301811,53.9358263 107.854192,54.124942 C107.429476,55.2925156 107.018138,56.6113365 106.595689,58.0342389 C106.077775,57.6609963 105.443535,57.4269827 104.966437,57.3516992 C105.38095,55.8662118 105.842628,54.3147379 106.449204,52.8256223" id="path174" fill="#D1C6AE"></path>
                        <path d="M116.358954,90.876415 C115.22426,91.6219932 114.144895,92.6276621 113.24104,93.9798162 C113.24104,93.9798162 112.398637,91.8321973 113.733784,89.3346916 C113.75646,89.3895669 113.777548,89.4444422 113.804532,89.5027189 C114.270292,90.5043061 115.284351,91.0804966 116.358954,90.876415" id="path176" fill="#D1C6AE"></path>
                        <path d="M116.154419,88.3408141 C118.09138,87.6006781 122.436505,86.3841248 126.586391,88.292288 C126.586391,88.292288 120.460995,91.8192721 117.809748,94.4433083 C117.577775,94.2494308 117.34172,94.0816303 117.116097,93.9580475 C118.614283,92.0947823 121.156006,89.8800431 125.202945,88.8691588 C125.202945,88.8691588 121.465983,88.3494309 117.788886,90.077322 C118.035144,89.6351452 117.097276,88.8888867 116.154419,88.3408141" id="path178" fill="#D1C6AE"></path>
                        <path d="M134.674827,87.7804967 C129.927208,89.5249411 130.302718,92.9727868 132.33401,95.0167777 C134.494554,97.1918343 138.631516,97.8160973 143.905665,94.4841246 C143.905665,94.4841246 147.677094,95.7922879 150.374373,94.8587278 C149.439679,96.4081609 148.480949,97.6142833 147.533783,98.5591812 C145.009747,101.076415 142.573693,101.701358 140.93401,101.770973 C140.864169,101.475961 140.734464,101.21587 140.518591,101.043762 C145.030382,99.2872991 145.163715,95.8693854 145.163715,95.8693854 C141.302264,98.4596347 138.034917,97.1340112 138.034917,97.1340112 C139.012922,98.107027 139.95011,98.6111086 140.673239,98.8746007 C139.003171,99.8489771 137.088205,99.7569136 137.088205,99.7569136 C128.100224,109.658274 122.110655,101.136732 122.110655,101.136732 L122.995915,99.0965962 C122.995915,99.0965962 125.231063,102.953285 128.755099,102.63061 C132.279362,102.306573 133.607026,100.460088 133.607026,100.460088 C133.607026,100.460088 130.036958,97.5297028 129.833103,94.1755078 C129.833103,94.1755078 120.826301,100.69909 115.27324,97.0045327 C115.27324,97.0045327 115.379135,96.7156438 115.620405,96.2451223 C115.733104,96.3598615 115.864169,96.4691586 116.022219,96.5666643 C117.478228,97.4598615 118.52494,97.5113354 119.449657,96.9580475 C119.660995,96.8331042 119.462355,96.351925 119.067344,95.7981835 C121.256686,95.521086 124.643081,94.733331 127.884577,92.5281156 C127.884577,92.5281156 127.981629,88.2673447 132.211788,86.2480704 C132.211788,86.2480704 133.76689,80.2820842 136.329475,79.3319708 C138.892967,78.3793631 118.002945,72.5895673 109.279362,77.2362792 C109.279362,77.2362792 119.340813,75.0319709 129.460087,79.8752814 C129.460087,79.8752814 121.009521,79.6884334 116.250564,81.7294764 C116.260541,81.5272088 116.230836,81.3492043 116.151018,81.2163245 C116.02358,81.0043064 115.85714,80.8755082 115.644215,80.8204061 C117.860315,79.8229005 121.098183,79.1281159 125.825167,79.1380933 C125.825167,79.1380933 114.843081,77.09637 108.839453,79.7746012 C108.839453,79.7746012 107.758047,77.6092951 109.326528,74.6192725 C109.326528,74.6192725 133.155779,71.6480708 139.885257,80.107481 C139.885257,80.107481 135.279362,81.8448959 134.674827,87.7804967" id="path180" fill="#D1C6AE"></path>
                        <path d="M114.509521,84.1995444 C115.305213,83.9265285 115.988659,82.9253948 116.19138,82.1068007 C118.521993,81.5258483 123.322219,80.8260751 127.942627,83.2154174 C127.942627,83.2154174 119.331743,84.6158709 115.731743,88.1074808 C115.413829,87.9428549 115.117911,87.8108822 114.891607,87.7326509 C116.443081,86.0639434 119.185031,84.4068006 123.954872,83.257821 C123.954872,83.257821 116.550564,81.5872995 110.966437,87.7487506 C110.966437,87.7487506 110.549204,85.6668913 112.084804,83.5501113 C112.112922,83.9544197 112.279362,84.3167779 112.544668,84.5510183 C112.544668,84.5510183 113.367571,84.5907008 114.509521,84.1995444" id="path182" fill="#D1C6AE"></path>
                        <path d="M152.96689,89.9907007 C152.633783,89.01383 152.162581,87.7033992 150.193647,86.767118 C148.745348,84.803626 149.814962,83.6417213 143.117457,79.6167781 C143.296368,77.9147373 142.510881,76.7802702 142.510881,76.7802702 C147.999543,75.1659845 144.293874,68.4575947 144.293874,68.4575947 C148.634463,70.2941026 156.816323,79.3589549 152.96689,89.9907007" id="path184" fill="#D1C6AE"></path>
                        <path d="M96.8013581,95.6453491 C97.7535123,95.4344647 98.7292492,95.1990906 99.7258478,94.9358253 C99.8340111,95.1371858 99.9444419,95.3340112 100.060315,95.5226733 C100.060315,95.5226733 98.6049862,95.6124693 97.0120157,96.5158706 C97.0229001,96.1863922 96.9680248,95.8875259 96.8013581,95.6453491" id="path186" fill="#C3B597"></path>
                        <path d="M100.060315,95.5226733 C99.9444419,95.3340112 99.8340111,95.1371858 99.7258478,94.9358253 C100.284805,94.7886598 100.850338,94.6317437 101.421766,94.4664375 C101.902265,95.2764149 102.458501,96.0464829 103.1068,96.7523785 C101.243308,96.9113354 98.1721064,97.4741472 96.3337844,99.4160973 C96.4485237,98.5680247 96.9825373,97.4247141 97.0120157,96.5158706 C98.6049862,95.6124693 100.060315,95.5226733 100.060315,95.5226733" id="path188" fill="#AC9C77"></path>
                        <path d="M122.110655,101.136732 C119.909067,101.441267 114.384124,100.857367 109.658501,98.7206325 C109.69909,98.1049862 109.500678,97.1643967 109.047843,96.6160974 C108.448977,95.8920611 106.564396,96.173467 106.032877,96.5954624 C105.210428,95.966891 104.469612,95.2646235 103.849204,94.4816303 C104.429703,94.6136031 105.12222,94.5802697 105.916551,94.2777754 C106.463489,94.0698389 106.408387,93.5265283 106.042854,92.9630362 C106.484351,92.8031723 106.928342,92.6374127 107.374827,92.4659841 C109.768705,96.0242606 113.069612,97.5680248 113.069612,97.5680248 C113.069612,97.5680248 116.704079,101.963943 122.995915,99.0965962 L122.110655,101.136732" id="path190" fill="#AC9C77"></path>
                        <path d="M155.892286,85.0349185 C155.908613,85.3965965 155.913828,85.5160976 155.929021,85.8240341 C163.376867,86.7117892 173.52698,86.4691588 180.624939,84.8290228 C170.19478,86.7485239 158.308613,85.3068006 155.892286,85.0349185" id="path192" fill="#B4B3B3"></path>
                        <path d="M155.461221,79.9514719 C155.566663,80.2972769 155.599996,80.4120161 155.687071,80.7070275 C163.132422,79.7825377 172.91927,77.112243 179.4102,73.8160979 C169.750563,78.183218 157.871651,79.6335581 155.461221,79.9514719" id="path194" fill="#B4B3B3"></path>
                        <path d="M154.10045,74.5600888 C154.289339,74.8698394 154.350336,74.9736943 154.51088,75.2360525 C161.470291,72.4530594 170.248749,67.3814042 175.682762,62.5467105 C167.462127,69.222674 156.349202,73.6439891 154.10045,74.5600888" id="path196" fill="#B4B3B3"></path>
                        <path d="M151.034463,70.3986377 C151.323125,70.6204064 151.41859,70.6929688 151.662581,70.8789098 C157.129248,65.7662115 163.46054,57.860316 166.760767,51.385713 C161.534917,60.585486 152.794554,68.7308373 151.034463,70.3986377" id="path198" fill="#B4B3B3"></path>
                        <path d="M108.57392,86.1174582 C108.578682,86.482084 108.578909,86.6002246 108.582764,86.9079343 C101.196823,88.2018119 91.0494308,88.5099751 83.8677984,87.2616758 C94.3941019,88.6088413 106.177095,86.5210863 108.57392,86.1174582" id="path200" fill="#B4B3B3"></path>
                        <path d="M107.362129,80.72993 C107.3068,81.0882066 107.2907,81.2061204 107.245122,81.5097485 C99.7435349,81.6077077 89.6759615,80.2922882 82.7843517,77.9124697 C92.9625827,80.9229005 104.931063,80.7446692 107.362129,80.72993" id="path202" fill="#B4B3B3"></path>
                        <path d="M108.344215,74.7235809 C108.194555,75.0557804 108.145122,75.1643972 108.019272,75.443989 C100.768705,73.5079347 91.4319705,69.5204064 85.4448958,65.365758 C94.424941,71.0154177 105.997957,74.0811773 108.344215,74.7235809" id="path204" fill="#B4B3B3"></path>
                        <path d="M109.772786,89.9424014 C109.861675,90.2938753 109.89138,90.4115624 109.966664,90.7065737 C103.089113,93.6857119 93.2981836,96.3471631 86.0244876,96.8018116 C96.573467,95.6641699 107.537412,90.892288 109.772786,89.9424014" id="path206" fill="#B4B3B3"></path>
                        <path d="M105.396142,88.0464831 C105.635145,88.9891134 105.95646,89.854873 106.334238,90.646483 C105.673467,90.901585 104.940133,91.177322 104.143535,91.4680249 C104.01383,91.4226735 103.884124,91.3877528 103.756006,91.3664376 C102.467798,91.15578 102.49909,90.7993175 102.167118,91.1995442 C101.901358,90.2516984 101.760315,89.3258481 101.71519,88.4276622 C102.91451,88.3344649 104.143081,88.2086146 105.396142,88.0464831" id="path208" fill="#AC9C77"></path>
                        <path d="M96.9414942,81.5696125 C97.4619023,81.6362791 97.9897935,81.6977304 98.5242606,81.7544197 C98.5238071,81.8945558 98.5229,82.0371862 98.5238071,82.1857122 C98.0065735,82.4149639 97.5015849,83.0510183 97.3063468,84.5721067 C97.1687051,85.6405874 97.4591812,86.3451226 97.9392266,86.7485239 C97.751018,86.7625829 97.5619023,86.7768686 97.3705191,86.790474 C97.1950089,85.6068006 97.075281,84.4911544 96.9954624,83.5396805 C97.6160973,82.9673449 97.3421744,82.0619027 96.9414942,81.5696125" id="path210" fill="#AC9C77"></path>
                        <path d="M92.4263015,79.2031726 C88.6566871,77.8727872 85.9768686,76.3324244 84.0841249,74.7575945 C84.0396804,74.419726 83.9131498,74.1383201 83.7487507,74.0467102 C83.4179117,73.8587283 82.8673449,73.2006784 82.2464832,72.9537397 C78.5312906,68.5875266 79.9555536,64.4936492 79.9555536,64.4936492 C79.9555536,64.4936492 77.2854856,74.8428553 98.6530588,79.1573676 C98.6530588,79.1573676 98.6260746,79.3854855 98.5972764,79.7952361 C96.7015849,79.662583 94.6158707,79.4734674 92.4263015,79.2031726" id="path212" fill="#AC9C77"></path>
                        <path d="M105.088206,82.154193 C104.912923,83.541948 104.906573,84.8253947 105.03197,86.0072541 C104.687979,86.0532858 104.326982,86.0999978 103.948297,86.1471634 C104.037866,85.1337847 103.78934,83.9666646 103.121539,83.687753 C102.885031,83.5882065 102.630383,83.5734673 102.368478,83.610202 C102.537412,83.079363 102.730836,82.5705195 102.939907,82.0866193 C103.646709,82.1192723 104.361902,82.1426283 105.088206,82.154193" id="path214" fill="#AC9C77"></path>
                        <path d="M103.97392,80.0557803 C105.239453,77.9045332 106.560542,76.6052135 106.560542,76.6052135 C106.079362,77.8258484 105.720632,78.9845785 105.463489,80.085939 C105.014737,80.0802701 104.516777,80.0707463 103.97392,80.0557803" id="path216" fill="#AC9C77"></path>
                        <path d="M95.7766416,55.6337855 C95.7766416,55.6337855 94.8535124,59.2820847 92.6176848,63.4011322 C92.2521519,62.7204066 91.8145102,62.2580483 91.2972766,62.4691594 C90.3956894,62.8367331 89.9709728,65.2324247 90.8043061,66.360089 C90.5825374,66.6814042 90.3498844,66.9993181 90.1117891,67.3154178 C86.4335579,65.5705199 82.7117893,63.5038533 79.4380933,61.1256221 C81.0872996,61.6185926 86.8276622,62.5448964 95.7766416,55.6337855" id="path218" fill="#C3B597"></path>
                        <path d="M87.4580477,68.3303838 C87.3324241,68.4290232 87.2641702,68.5312908 87.2795897,68.6276627 C87.3687053,69.1752817 89.7603152,71.1761887 91.092288,70.9984109 C91.4108821,70.9560073 91.4351451,70.1637171 91.2029456,69.3764155 C92.1104285,69.8757352 93.0648503,70.3764155 94.065984,70.8725606 C93.7387732,70.9587284 93.5378661,71.1657579 93.5748276,71.508615 C93.6265283,71.9911547 94.8058933,73.295463 95.7972765,73.5124698 C95.3188185,73.9603156 94.826755,74.2480707 94.3344648,74.2961433 C95.5920611,74.7362793 96.8945554,75.1120163 98.1539658,75.3442158 C98.1539658,75.3442158 98.3489771,75.020633 98.684578,74.3845786 C98.9609953,75.1156444 99.6469363,75.7036262 100.025621,75.6068008 C99.6979567,76.1734675 99.3555531,76.7312906 98.9952356,77.2755083 C98.9952356,77.2755083 81.5079345,74.0993179 79.9882066,64.6975041 C79.975735,64.6294768 79.9648506,64.5625834 79.9560071,64.4938759 C79.9662112,64.509749 82.7798165,68.867572 87.4580477,68.3303838" id="path220" fill="#D1C6AE"></path>
                        <path d="M99.2163241,62.8476175 C98.3142833,62.0074814 97.1240339,61.07891 95.8283423,62.3909281 C94.4111088,63.8240347 97.0013581,65.194783 98.107027,64.8183657 C99.2133762,64.4385471 100.119045,63.6875268 99.2163241,62.8476175 L99.2163241,62.8476175 Z M97.8505644,70.6043066 C95.4807232,69.7013588 92.9111088,68.6360527 90.3136032,67.4111094 C90.5521519,67.2716536 90.8748277,67.068479 91.278229,66.7770958 C91.3746009,66.8281162 91.4793628,66.8696128 91.5927415,66.8979575 C93.3850317,67.3467103 93.5984104,65.9111095 93.5984104,65.9111095 C93.5131496,65.6727875 93.4170045,65.3843521 93.3097482,65.0764156 C94.7970498,63.6712002 96.6637164,61.5664384 98.7086143,58.475282 C98.8945554,59.2993182 99.1385463,60.2433092 99.8047594,60.4675722 C100.805213,60.8058942 101.630156,60.268706 100.969839,58.8628103 C100.663943,58.2074815 100.007027,57.6600893 99.4319703,57.3507922 C100.0907,56.2999986 100.764397,55.1480712 101.44739,53.8841256 C101.612016,54.3736948 102.3907,55.0308376 103.209294,55.349205 C101.537186,60.0077083 100.504533,64.202266 100.504533,64.202266 C100.504533,64.202266 99.4024918,67.7206332 97.8505644,70.6043066 L97.8505644,70.6043066 Z" id="path222" fill="#D1C6AE"></path>
                        <path d="M96.2251677,73.5310639 C96.9732402,73.4040798 97.4258479,72.9213134 97.1564602,72.3151909 C97.6938751,72.5514721 98.2408139,72.7848054 98.7999975,73.0151909 C98.5009046,73.4426285 98.5163241,73.9396807 98.684578,74.3845786 C98.3489771,75.020633 98.1539658,75.3442158 98.1539658,75.3442158 C96.8945554,75.1120163 95.5920611,74.7362793 94.3344648,74.2961433 C94.826755,74.2480707 95.3188185,73.9603156 95.7972765,73.5124698 C95.9453491,73.5448961 96.0897935,73.5539664 96.2251677,73.5310639" id="path224" fill="#EAE4D8"></path>
                        <path d="M108.232424,49.4532867 C107.324034,49.9424024 106.288433,50.8353729 106.270746,51.8859397 C106.26553,52.2349193 106.332877,52.5496586 106.449204,52.8256223 C105.842628,54.3147379 105.38095,55.8662118 104.966437,57.3516992 C104.429703,57.2680258 104.092741,57.3843523 104.352378,57.7310643 C104.463943,57.8798171 104.575508,58.0961437 104.693648,58.3401346 C104.605666,58.6598625 104.518818,58.9755087 104.43197,59.283672 C104.094102,60.4866198 103.752152,61.6190461 103.411335,62.6888873 C103.175281,62.7927422 102.934011,62.9600891 102.689113,63.2077082 C102.069385,63.8355993 102.217458,64.4516991 102.672787,64.9140573 C102.336052,65.8884337 102.004306,66.796597 101.682991,67.6365062 C100.930383,68.0181389 100.814963,68.7659847 100.973467,69.4224472 C100.668705,70.1641706 100.378909,70.8358259 100.108614,71.4387737 C99.3816302,71.1782295 98.6269817,70.8999982 97.8505644,70.6043066 C99.4024918,67.7206332 100.504533,64.202266 100.504533,64.202266 C100.504533,64.202266 101.537186,60.0077083 103.209294,55.349205 C104.192288,55.7319714 105.23129,55.6263025 105.328796,54.1480712 C105.386845,53.2351461 104.977322,52.7335588 104.312923,52.4646245 C104.817231,51.2290237 105.359861,50.0154183 105.934918,48.8900215 C106.932877,46.9340124 108.343988,45.7430828 109.847616,45.0918356 C109.815644,45.7850329 110.234918,46.521314 110.555099,46.9741485 C109.641721,47.6834455 108.878002,48.5242618 108.232424,49.4532867" id="path226" fill="#EAE4D8"></path>
                        <path d="M100.108614,71.4387737 C100.378909,70.8358259 100.668705,70.1641706 100.973467,69.4224472 C101.143535,70.1274359 101.625848,70.7258486 101.97256,70.6507919 C102.10544,70.6217669 102.308387,70.547844 102.538093,70.4442159 C102.316777,70.9816309 102.08231,71.5154177 101.841494,72.0462567 C101.285031,71.8557805 100.70544,71.6528327 100.108614,71.4387737" id="path228" fill="#D1C6AE"></path>
                        <path d="M97.1564602,72.3151909 C97.4258479,72.9213134 96.9732402,73.4040798 96.2251677,73.5310639 C96.0897935,73.5539664 95.9453491,73.5448961 95.7972765,73.5124698 C96.1711994,73.1614494 96.5358253,72.708615 96.8882062,72.1961433 C96.9773218,72.2360526 97.0666642,72.2757352 97.1564602,72.3151909" id="path230" fill="#A08F66"></path>
                        <path d="M99.2807231,73.209522 C99.0512447,73.6777759 98.8505644,74.0705197 98.684578,74.3845786 C98.5163241,73.9396807 98.5009046,73.4426285 98.7999975,73.0151909 C98.9587277,73.0800435 99.1199522,73.1448961 99.2807231,73.209522" id="path232" fill="#A08F66"></path>
                        <path d="M104.442855,75.0711999 C102.54739,76.3845786 100.934465,77.8004516 100.934465,77.8004516 C100.934465,77.8004516 101.607707,76.4927419 102.558501,74.4426285 C103.175281,74.658048 103.803852,74.8675718 104.442855,75.0711999" id="path234" fill="#8E0A26"></path>
                        <path d="M132.171425,52.5984114 C130.085711,51.6208604 128.321085,52.2972776 128.321085,52.2972776 C123.6746,51.0553275 119.519271,51.756688 119.519271,51.756688 C118.889113,50.6065747 117.568251,50.1070282 117.568251,50.1070282 C116.559634,50.138094 114.576188,49.8498854 112.993194,51.1412686 C111.866891,52.0605429 111.535825,53.9970508 111.437185,55.0392276 C111.75646,55.1750553 112.077095,55.3378671 112.346256,55.4836721 C105.781403,63.7734678 106.911562,70.640361 107.704532,73.2108825 C107.412922,73.325395 107.109521,73.4666648 106.79909,73.626302 C105.877322,73.3546467 104.727889,73.0022657 103.407934,72.570293 C104.926755,69.1505652 106.780496,64.5598623 107.856233,60.3843522 C109.905666,52.4310644 112.624487,46.2646247 119.257367,48.9569149 C125.8907,51.647391 129.847389,50.0251688 132.517003,50.8358264 C135.185031,51.648298 134.258727,53.5768694 132.171425,52.5984114" id="path236" fill="#8E0A26"></path>
                        <path d="M123.011335,42.4977314 C123.001131,41.2297042 122.727208,40.3734684 122.727208,40.3734684 C124.848976,40.7002257 127.337412,42.0292506 127.337412,42.0292506 C125.078228,39.7367337 120.724033,38.6786838 120.724033,38.6786838 C121.771879,39.7668924 121.646482,40.9451237 121.646482,40.9451237 C118.769385,39.7866203 114.538546,40.3056679 114.538546,40.3056679 C118.179135,40.3689332 123.011335,42.4977314 123.011335,42.4977314" id="path238" fill="#DFD7C6"></path>
                        <path d="M87.3911543,117.823126 L87.2920613,117.452605 C88.5319706,118.89002 89.7290227,120.051924 90.3433084,120.625621 C90.1569138,120.558274 89.9519252,120.500224 89.7417211,120.455326 C88.8083878,119.915643 87.3634899,119.007253 85.9365058,117.823126 L87.3911543,117.823126" id="path240" fill="#AC9C77"></path>
                        <path d="M84.8489775,85.6659843 C84.7371861,86.0102019 84.9677983,86.4956894 85.449431,86.9666645 C83.2768687,86.8589547 81.0907009,86.6607688 78.9562339,86.3426282 L78.2269822,83.6208596 C78.4349187,83.6650773 78.6396806,83.7054401 78.8367327,83.7383199 C79.6267554,84.4700659 80.7619027,85.2256215 81.5696125,85.17188 C82.0723335,85.1390001 81.977549,83.2315172 81.2331045,82.3337848 C80.9290229,81.9655308 80.3095218,81.8439889 79.6870728,81.8668914 C77.7473903,79.754193 76.5052135,77.5412679 75.7176852,75.4492045 C76.7675718,75.9857124 80.6090683,77.8412679 86.474601,79.4666647 C86.5628096,80.560769 87.9786826,81.854193 89.1936486,81.4963698 C89.8360522,81.3068007 90.0761882,80.8492043 90.1002245,80.3725603 C91.3278889,80.6469368 92.6188185,80.9029458 93.9705192,81.1306102 C93.8739206,81.2090683 93.7872992,81.3097485 93.7149636,81.4387735 C93.0272086,82.662583 95.2197255,84.4827643 96.6503377,83.778456 C96.7904738,83.7095217 96.9004511,83.6274356 96.9954624,83.5396805 C97.075281,84.4911544 97.1950089,85.6068006 97.3705191,86.790474 C94.7655305,86.9752813 91.8936485,87.0931951 88.9269819,87.0668912 C88.653966,86.3768686 88.0872994,85.6355988 87.5442155,85.4346917 C86.4031724,85.0174582 85.1033992,84.8800432 84.8489775,85.6659843" id="path242" fill="#C3B597"></path>
                        <path d="M77.9253949,82.495236 L77.7081613,81.6848052 L71.6598622,81.6848052 C71.3482975,80.9619027 71.1038531,80.2340116 70.9510186,79.5068007 C70.9510186,79.5068007 72.0975039,80.2068007 74.0185923,80.6941023 C74.2621297,81.0333313 74.5492045,81.301812 74.8582748,81.4070274 C75.8594085,81.7433086 76.8834448,81.4174583 76.0256217,79.7986375 C75.7192725,79.2197259 75.2303836,78.7083881 74.7476172,78.3789096 C73.6700662,75.8621296 72.6907011,71.7260753 74.3351455,66.5414949 C74.4396807,66.4131503 74.5226739,66.2677988 74.5877532,66.1120165 C74.3054403,68.2022659 73.8374131,75.4950095 79.6870728,81.8668914 C78.8485241,81.8979571 78.0063473,82.1911544 77.9253949,82.495236" id="path244" fill="#AC9C77"></path>
                        <path d="M80.8918347,91.7217664 C80.7537395,91.9036258 80.6410411,92.1056666 80.5566873,92.3154172 L80.1399073,90.7598617 C80.3870728,91.0843515 80.6376397,91.4061202 80.8918347,91.7217664" id="path246" fill="#AC9C77"></path>
                        <path d="M78.8367327,83.7383199 C78.6396806,83.7054401 78.4349187,83.6650773 78.2269822,83.6208596 L77.9988643,82.7693857 C78.137413,83.0183653 78.4451228,83.3755081 78.8367327,83.7383199" id="path248" fill="#AC9C77"></path>
                        <path d="M83.6154174,102.354646 C83.4351453,101.890247 83.1916079,101.456233 82.9310637,101.176188 L82.8276623,100.7907 C84.1492042,100.203399 85.4106555,99.9197254 86.5716532,99.8376392 C86.559635,100.432877 87.012016,101.083444 87.6702926,101.365984 C88.8462563,101.872333 89.4732404,101.305893 90.0140567,100.960768 C90.2215397,100.826982 90.2126962,100.510882 90.0537392,100.156914 C92.0625827,100.670973 93.3111088,101.574147 93.3111088,101.574147 C93.3290226,101.500904 93.3505646,101.432877 93.3705192,101.361449 C93.6936485,102.492741 94.0829908,103.577548 94.5244874,104.227889 C93.2222199,103.365984 88.3560069,100.507934 83.6154174,102.354646" id="path250" fill="#AC9C77"></path>
                        <path d="M94.0537391,110.351244 C89.9040794,105.846029 86.6868459,106.165757 85.4417212,106.541267 C85.3573675,106.355099 85.2571407,106.182084 85.1380931,106.037186 C84.9235806,105.777775 84.5424015,105.650111 84.118592,105.609068 L84.0299299,105.278002 C85.0451226,104.712469 86.3995443,104.595235 87.868025,104.854646 C87.5068005,105.355099 87.4011316,105.920406 87.852152,106.21383 C88.5993175,106.699544 90.0033991,106.064623 90.6786825,105.747163 C91.5285691,106.133557 92.3668911,106.620859 93.1535124,107.194782 C92.3902471,108.714737 95.6269817,110.747843 96.6179114,110.998183 C96.7655305,111.260995 96.9049862,111.527435 97.0265282,111.801585 C97.0265282,111.801585 93.187526,112.590927 91.1541927,111.551925 C91.1541927,111.551925 91.9360521,112.426074 93.4621292,113.189113 C93.0530589,113.305893 92.7219931,113.513603 92.5773219,113.815643 C92.4770952,114.026981 92.7401337,114.394101 93.1786825,114.792061 C91.9920612,114.199544 91.0532857,113.500904 90.3233538,112.8229 C90.4024921,112.79002 90.4793628,112.749657 90.5519252,112.694328 C91.1117891,112.268931 90.8523787,111.410882 90.2752812,110.570292 C93.2126961,111.125394 94.0537391,110.351244 94.0537391,110.351244" id="path252" fill="#AC9C77"></path>
                        <path d="M118.005893,113.233104 C117.144442,114.011789 118.067117,116.597049 119.020178,117.019725 C119.972786,117.439453 123.078908,113.44875 121.601131,113.260768 C120.631516,113.137639 118.86553,112.454872 118.005893,113.233104 L118.005893,113.233104 Z M107.402945,119.933557 C106.756687,119.376868 104.467344,119.442401 104.591834,120.765757 C104.85578,123.550564 109.812469,122.180949 109.94807,121.552831 C110.043308,121.10748 108.051244,120.487979 107.402945,119.933557 Z M101.138546,119.769838 C99.9689317,119.187072 97.7462561,120.19909 98.3705191,121.276641 C98.9922878,122.35011 101.295916,122.766437 101.829929,122.567797 C102.186619,122.433104 102.310882,120.347843 101.138546,119.769838 L101.138546,119.769838 Z M95.4993173,118.827435 C94.9197255,118.423126 93.7106553,116.953965 92.9972766,117.882763 C92.280043,118.819045 92.4385464,120.170745 94.5691586,121.021539 C96.7027187,121.874827 96.0780021,119.228795 95.4993173,118.827435 Z M84.4478437,121.707933 C83.66349,120.845802 81.2739209,119.654646 80.8845785,121.010428 C80.524261,122.260088 83.0519254,124.255779 84.4907008,123.950791 C85.9285693,123.648069 85.2315171,122.567571 84.4478437,121.707933 L84.4478437,121.707933 Z M132.696595,106.871199 C132.945348,106.974827 133.186845,107.040814 133.420632,107.078229 C132.719951,107.368478 131.980722,107.591834 131.217684,107.712242 C131.214963,107.207934 131.107026,106.796823 130.892514,106.687299 C129.64172,106.052832 127.889339,107.901585 127.611788,109.070519 C124.443761,107.55714 120.823353,107.934011 120.823353,107.934011 C121.721766,108.186845 123.446255,108.964623 124.858274,110.28934 C124.838319,110.305666 124.816097,110.318365 124.797049,110.335825 C124.183217,110.889793 123.907026,113.279589 125.379589,113.800677 C125.89206,113.98163 126.388886,113.718818 126.814509,113.276641 C127.010428,113.902718 127.109747,114.583217 127.072786,115.320632 C127.063942,115.492287 127.039453,115.658954 127.0068,115.823126 C125.824713,116.380042 125.086618,117.20816 125.848976,117.912695 C124.00045,119.854419 120.473693,121.025847 118.174147,121.618818 C118.171199,121.622899 118.167117,121.627208 118.163716,121.631516 C120.082083,119.245802 120.523126,117.090247 120.523126,117.090247 C120.523126,117.090247 111.595462,121.352378 107.701811,123.139906 C107.041494,123.443308 106.264623,123.614736 105.43129,123.695235 C105.008841,123.673013 104.549204,123.687298 104.117458,123.74943 C100.270973,123.717911 95.8931949,122.221539 95.8931949,122.221539 C96.5548729,123.176414 97.2346914,123.990927 97.9231268,124.684124 C96.4385463,124.079815 94.3027187,124.002491 94.0439886,124.665076 C93.703399,125.547389 95.2764149,127.118364 96.8872992,127.869158 C98.4582742,128.604532 99.762129,127.404759 99.3401336,125.935825 C104.43265,129.843307 109.680043,127.864849 111.606346,126.898183 C113.859634,127.146709 116.066664,127.055099 118.149203,126.69977 C118.487525,127.517684 119.677548,128.329248 120.735825,128.553285 C120.676187,128.58299 120.617684,128.611788 120.556913,128.6424 C92.0510181,132.640586 74.7503383,122.078001 72.3999982,120.531516 C72.3981841,120.531516 72.3970503,120.531743 72.3952363,120.533104 C73.103853,120.115643 73.8283428,119.650564 74.5700662,119.136051 C74.7424018,119.709067 75.0535129,120.375961 75.6081614,120.643988 C76.6619028,121.151698 78.6936488,121.880723 79.4006783,121.012922 C79.7920615,120.533557 79.5405876,119.932877 79.0823109,119.386618 C79.8548733,119.36689 80.537413,119.313829 81.0258483,119.265303 C79.5752815,118.843988 78.2725604,118.343308 77.1172316,117.823126 L82.2691589,117.823126 C83.7349185,118.868251 85.6941022,119.811335 88.3170046,120.492514 C88.1634899,120.55782 88.0315171,120.64943 87.9394536,120.779816 C86.973694,122.150564 90.4637166,124.341947 91.7814036,123.434011 C93.0993174,122.527208 91.4975034,121.552378 91.1448957,121.086392 C91.0321973,120.937639 90.7263016,120.764623 90.3433084,120.625621 C89.7290227,120.051924 88.5319706,118.89002 87.2920613,117.452605 L86.997957,116.354872 C87.9619026,117.10748 89.6113356,117.642401 90.1709728,117.352832 C91.093195,116.8746 90.1759615,115.634918 89.160542,114.986165 C88.1793629,114.361448 87.30544,113.921539 86.5532858,114.696142 L84.9412677,108.679136 C85.1222201,108.728569 85.29705,108.754419 85.4566872,108.743761 C85.8555534,108.716324 85.8575942,107.458274 85.4417212,106.541267 C86.6868459,106.165757 89.9040794,105.846029 94.0537391,110.351244 C94.0537391,110.351244 93.2126961,111.125394 90.2752812,110.570292 C89.3294762,109.191834 87.5294763,107.860995 87.0795897,108.56553 C86.1562337,110.012242 88.7929683,113.452605 90.3233538,112.8229 C91.0532857,113.500904 91.9920612,114.199544 93.1786825,114.792061 C94.2269818,115.742627 96.2841246,116.872786 96.8355985,116.500224 C97.0120157,116.380949 97.1129227,116.214283 97.1587277,116.019271 C97.8015849,116.075281 98.4972764,116.056233 99.2362787,115.972106 C100.026982,117.33333 103.087753,117.404305 103.446483,116.970745 C103.821313,116.516324 104.369839,115.536052 102.916777,115.15646 C104.204759,114.760315 105.550111,114.251925 106.910882,113.670519 C105.911335,114.835145 106.065303,116.46553 106.654873,116.615417 C107.393195,116.79841 109.761675,114.303172 109.410201,113.837866 C109.210655,113.573467 109.143761,113.029702 108.828795,112.809294 C110.231063,112.151244 111.629249,111.435825 112.979362,110.704986 C111.74104,111.624033 110.946256,113.954192 112.183217,113.990247 C112.380496,113.995689 112.567117,113.988206 112.745122,113.971199 C108.689793,116.09977 103.424487,118.580949 100.245802,118.975961 C100.245802,118.975961 102.853966,122.087072 110.893648,116.877775 C110.841494,117.060088 110.864396,117.250564 110.992741,117.442854 C111.97392,118.909294 112.394101,119.452151 113.31587,118.977095 C114.238773,118.497729 115.133557,117.047616 114.81451,115.911788 C114.665757,115.385485 113.631743,115.378228 112.658954,115.660315 C114.374374,114.409294 116.301358,112.814056 118.463262,110.787752 C118.463262,110.787752 117.0585,111.628569 114.976641,112.772786 C115.688432,111.777095 115.617911,110.475734 115.063716,110.096596 C114.84943,109.950337 114.712242,109.856006 114.609521,109.803172 C115.801811,109.129476 116.938546,108.45782 117.985031,107.820632 C117.1746,108.734238 116.377095,109.958727 116.995462,110.216551 C118.831516,110.978909 120.307934,109.856913 120.456233,108.295689 C120.556913,107.245122 120.188432,106.815417 119.75011,106.726981 C120.359861,106.341947 120.921539,105.98095 121.425847,105.652378 C121.409748,105.900904 121.45714,106.174601 121.589793,106.482764 C122.595008,108.832877 124.949657,106.176188 124.990246,105.069158 C126.452605,105.761902 128.302491,106.366437 130.240133,106.302038 C131.082536,106.273467 131.920632,106.079136 132.72562,105.785485 C132.444441,106.29773 132.35714,106.730383 132.696595,106.871199 L132.696595,106.871199 Z" id="path254" fill="#C3B597"></path>
                        <path d="M47.8873004,117.823126 C46.4412687,120.485711 46.1562347,122.667117 46.1562347,122.667117 C47.3569149,120.610201 49.3088423,119.011108 51.2521529,117.823126 L55.4750553,117.823126 C53.8882073,118.447843 52.8263025,119.160088 52.2467107,119.617457 C53.501586,119.60816 54.4632639,119.804079 55.080951,119.986845 C50.3194999,121.718591 45.4195,127.982763 44.5360533,129.151471 C43.6632642,127.361902 43.3580488,122.517457 45.4090692,117.823126 L47.8873004,117.823126" id="path256" fill="#C3B597"></path>
                        <path d="M98.2412674,93.4519251 C95.9684783,94.1514716 93.4893401,94.8392267 90.9097483,95.4331042 C91.2755079,94.0569137 90.9807233,92.1666644 90.1587279,92.0723333 C88.9079343,91.9353719 87.2349185,93.9689319 87.2349185,93.9689319 C87.2349185,93.9689319 87.5616758,95.1596348 88.1970499,96.012696 C86.0875262,96.4283423 83.9387734,96.757594 81.8047599,96.9730134 L81.132651,94.465077 C81.5442156,94.8424013 81.8897939,94.8943287 81.8897939,94.8943287 C82.3782292,94.8807233 82.7412678,94.6455759 82.994329,94.2936484 C83.5306102,94.6945555 83.8492043,94.9145101 83.8492043,94.9145101 C83.5902473,94.6827641 83.3315172,94.4346915 83.0725603,94.1764149 C83.2609957,93.8675713 83.3768687,93.4868457 83.426982,93.0897936 C83.5430818,92.1530589 83.3857122,90.9176848 82.223354,90.932424 C81.7247145,90.9385465 81.2378664,91.2671179 80.8918347,91.7217664 C80.6367327,91.4054399 80.3868461,91.0823106 80.139227,90.7569138 L79.044896,86.673694 C81.0204061,87.1675715 83.9462564,87.7775488 87.6013584,88.189567 C87.8387733,88.2628096 88.0863924,88.3256214 88.344669,88.3718799 C88.5700658,88.4122427 88.7365057,88.3886599 88.8555533,88.3197257 C89.6550998,88.3956894 90.4850318,88.461449 91.3442154,88.514737 C91.107254,88.8505647 91.0537392,89.214737 91.3287959,89.5687052 C92.078229,90.5392268 94.8594081,89.8489773 95.6963695,88.6532858 C96.3476166,88.6553266 97.0095214,88.6496576 97.6841245,88.6335579 C97.6854851,88.6417211 97.6866189,88.6501112 97.6884329,88.6580477 C97.2727867,88.9768685 96.9002243,89.629703 96.7385463,90.885712 C96.5303831,92.5063469 97.3088411,93.2888866 98.2412674,93.4519251" id="path258" fill="#C3B597"></path>
                        <path d="M63.408842,118.674827 C64.1158714,118.485485 64.8430823,118.178455 65.541495,117.823126 L69.7945561,117.823126 C67.1886605,119.877775 63.5909281,121.913602 61.1106561,121.461448 C63.6743748,121.027208 65.7439893,119.4907 66.7564609,118.604532 C65.4104292,118.76621 64.2208601,118.737639 63.408842,118.674827" id="path260" fill="#C3B597"></path>
                        <path d="M93.3705192,101.361449 C93.3505646,101.432877 93.3290226,101.500904 93.3111088,101.574147 C93.3111088,101.574147 92.0625827,100.670973 90.0537392,100.156914 C89.7095216,99.3907005 88.6630363,98.4426279 87.5732404,98.7464828 C86.8739207,98.9421744 86.5814037,99.3727866 86.5716532,99.8376392 C85.4106555,99.9197254 84.1492042,100.203399 82.8276623,100.7907 L81.9070274,97.3555531 C84.5492042,97.3487504 88.4682518,97.1526053 93.1879795,96.3507912 C92.7242607,96.8741472 92.4594081,97.5342379 92.6179115,98.2646234 C92.7963696,99.090247 93.0510181,100.24739 93.3705192,101.361449" id="path262" fill="#C3B597"></path>
                        <path d="M78.6659844,59.7791368 C78.0058937,58.3721074 75.726302,57.4600893 76.12154,58.3503387 C76.4487509,59.091155 76.5004516,61.047164 77.4988643,61.3859395 C78.5006783,61.7235812 79.3235808,61.1857128 78.6659844,59.7791368 L78.6659844,59.7791368 Z M75.9265287,70.8315175 C77.1714266,72.124488 77.6591817,72.5102023 78.3176851,70.877776 C78.9752815,69.2462568 78.9941023,68.8870731 77.2077078,68.2897942 C75.4235809,67.6956899 75.2510185,70.1324246 75.9265287,70.8315175 Z M69.3825379,72.8043066 C69.4054404,73.4675719 69.7605425,75.4979573 70.7575946,75.8399074 C71.7580481,76.1784561 72.5829914,75.6401342 71.925395,74.2312907 C71.2668916,72.8247147 69.3489779,71.8297034 69.3825379,72.8043066 Z M92.4263015,79.2031726 C91.2535125,79.0585014 90.0505646,78.890701 88.8319706,78.6963699 C88.2999978,78.4451228 87.6140568,78.1426284 87.0677983,78.3984107 C83.2319707,77.7104289 79.3054402,76.7460298 75.698184,75.3977305 C74.1321977,71.2018123 74.3997714,67.5040799 74.5877532,66.1120165 C74.8641705,65.448978 74.7895673,64.6018124 74.4503383,64.1002252 C74.0489777,63.5090687 71.831064,64.2632637 71.9829914,65.6428555 C72.1353723,67.0253951 71.6213134,67.1453498 73.2201796,67.0789099 C73.7190458,67.058275 74.0852589,66.8482976 74.3351455,66.5414949 C72.6907011,71.7260753 73.6700662,75.8621296 74.7476172,78.3789096 C74.0841251,77.9260751 73.4321977,77.8165513 73.2777759,78.358955 C73.1467102,78.8213132 73.4739211,79.9365059 74.0185923,80.6941023 C72.0975039,80.2068007 70.9510186,79.5068007 70.9510186,79.5068007 C71.1038531,80.2340116 71.3482975,80.9619027 71.6598622,81.6848052 L71.2607692,81.6848052 L68.0396808,69.6625833 C68.5281162,63.4993181 72.4684789,60.0922887 72.4684789,60.0922887 C69.6172318,60.7884339 67.8002251,62.688207 66.666665,64.5385471 L65.8943294,61.6557808 C66.3244881,61.0603159 66.6281162,60.3126969 66.5036265,59.7702933 C66.7251684,59.7129237 67.3480709,59.5476176 68.2698396,59.2775495 C68.3596355,59.367799 68.5317443,59.3102026 68.7210867,59.1437627 C69.8328781,58.8108829 71.2848055,58.3521527 72.940361,57.7709736 C73.0297034,57.768706 73.1258485,57.7650779 73.232878,57.7607695 C73.694556,57.7417219 74.0399074,57.5569147 74.2872997,57.2866199 C76.189794,56.5870734 78.2882067,55.7444431 80.408388,54.7639442 C80.86349,54.8764159 81.2895671,54.851019 81.6301567,54.6154181 C81.8283426,54.480044 81.8038528,54.325849 81.6677984,54.1666653 C82.3730138,53.8224476 83.0770954,53.4639442 83.7725603,53.0895678 C84.4619027,53.2798173 85.0390001,53.0405882 85.058728,52.3752821 C85.9752813,51.8492051 86.8702926,51.2972776 87.727889,50.7179126 C87.727889,50.7179126 91.1022653,50.0693865 93.3573673,51.2723343 C93.3573673,51.2723343 90.7215397,53.7535134 86.8464831,56.4378671 C86.8777756,55.9489782 86.8532858,55.5952367 86.7160976,55.518366 C86.2950092,55.2823115 83.48866,56.5875269 83.46349,58.322901 C83.4619027,58.4183659 83.4673449,58.5115632 83.4764151,58.6022661 C82.086846,59.4249418 80.6138302,60.2052139 79.0979572,60.8775495 C79.0884334,60.8700665 79.0789096,60.8632638 79.0693858,60.8560075 C79.0693858,60.8560075 79.0784561,60.8655314 79.0934221,60.8793636 C79.0437622,60.901359 78.9947826,60.9258488 78.9453495,60.9478443 C78.9453495,60.9478443 79.0698393,61.0074815 79.3138302,61.0866198 C79.7648506,61.5036266 80.8380932,62.4616764 82.4911544,63.725622 C81.9637168,63.7018125 81.6555535,63.8519258 81.9437621,64.1650778 C82.4897939,64.7621299 83.1657576,66.5990913 84.2215398,66.6013589 C84.8782292,66.6004518 85.3605421,66.3006786 85.3739208,65.8043067 C86.3460296,66.466665 87.4263017,67.165758 88.6097484,67.8804972 C88.1281157,67.975962 87.6920613,68.14603 87.4580477,68.3303838 C82.7714265,68.8682522 79.9557803,64.4929689 79.9557803,64.4929689 C79.9560071,64.4934224 79.9560071,64.4938759 79.9560071,64.4938759 L79.9555536,64.4936492 C79.9555536,64.4936492 78.5312906,68.5875266 82.2464832,72.9537397 C81.9117893,72.8204063 81.5566873,72.8047601 81.2038528,73.0512453 C80.0516987,73.8528326 81.2287962,76.4462566 82.8238075,76.4360525 C83.9038528,76.4287963 84.1773222,75.4668915 84.0841249,74.7575945 C85.9768686,76.3324244 88.6566871,77.8727872 92.4263015,79.2031726 L92.4263015,79.2031726 Z" id="path264" fill="#C3B597"></path>
                        <path d="M86.8888867,6.9176869 L9.01537392,6.9176869 L15.846893,32.4129244 L22.2940584,32.4129244 L36.9217678,87.0061203 L30.4748292,87.0061203 L37.3058948,112.501811 L80.4562338,112.501811 L73.6249415,87.0061203 L67.1777761,87.0061203 L52.5498853,32.4129244 L67.204987,32.4129244 L69.6183656,41.263491 L96.1399069,41.263491 L86.8888867,6.9176869 Z M67.9247149,43.4807245 L65.5113362,34.6303846 L55.4394544,34.6303846 L68.8791366,84.7891135 L75.3260752,84.7891135 L83.3460297,114.719045 L35.604761,114.719045 L27.5850333,84.7891135 L34.0324255,84.7891135 L20.5925845,34.6303846 L14.1454191,34.6303846 L6.12598624,4.70070283 L88.5879796,4.70070283 L99.0333309,43.4807245 L67.9247149,43.4807245 L67.9247149,43.4807245 Z" id="path266" fill="#A08F66"></path>
                        <path d="M85.1897938,9.13512449 L11.904943,9.13512449 L17.5480041,30.1961444 L23.9954643,30.1961444 L39.8113369,89.2235805 L33.3643983,89.2235805 L39.0072553,110.284578 L77.5668915,110.284578 L71.923581,89.2235805 L65.4764156,89.2235805 L49.6603162,30.1961444 L68.898411,30.1961444 L71.3117896,39.0464843 L93.2464829,39.0464843 L85.1897938,9.13512449 Z M69.6183656,41.263491 L67.204987,32.4129244 L52.5498853,32.4129244 L67.1777761,87.0061203 L73.6249415,87.0061203 L80.4562338,112.501811 L37.3058948,112.501811 L30.4748292,87.0061203 L36.9217678,87.0061203 L22.2940584,32.4129244 L15.846893,32.4129244 L9.01537392,6.9176869 L86.8888867,6.9176869 L96.1399069,41.263491 L69.6183656,41.263491 L69.6183656,41.263491 Z" id="path268" fill="#FFFFFF"></path>
                        <path d="M83.4081612,11.8509974 L15.1239225,11.8509974 L19.4196367,27.7566886 L25.7154189,27.7566886 L42.840135,91.6689319 L36.5426295,91.6689319 L40.8789105,107.866891 L74.3433088,107.866891 L74.3433088,107.866891 L70.0521524,91.662356 L63.6888873,91.662356 L46.1165521,26.0877544 L70.4369597,26.0877544 L73.242175,36.565532 L90.0172313,36.565532 L83.4081612,11.8509974 Z M71.3117896,39.0464843 L68.898411,30.1961444 L49.6603162,30.1961444 L65.4764156,89.2235805 L71.923581,89.2235805 L77.5668915,110.284578 L39.0072553,110.284578 L33.3643983,89.2235805 L39.8113369,89.2235805 L23.9954643,30.1961444 L17.5480041,30.1961444 L11.904943,9.13512449 L85.1897938,9.13512449 L93.2464829,39.0464843 L71.3117896,39.0464843 L71.3117896,39.0464843 Z" id="path270" fill="#8E0A26"></path>
                        <polyline id="path272" fill="#8E0A26" points="75.1138303 34.165532 72.308615 23.6875278 43.0421758 23.6875278 61.9083885 94.0977301 68.1804972 94.0977301 71.269386 105.467571 71.2687057 105.467571 42.7503391 105.467571 39.7213142 94.1013582 45.9138311 94.1013582 27.4643984 25.3176864 21.1452149 25.3408157 18.1956912 14.2938545 18.1924032 14.2820858 81.6285694 14.2820858 86.9430817 34.165532 75.1138303 34.165532"></polyline>
                        <polyline id="path274" fill="#B9505A" points="42.7505658 105.467571 71.269386 105.467571 74.3433088 107.866891 74.3433088 107.866891 40.8789105 107.866891 36.5426295 91.6689319 39.7213142 94.1013582 42.7505658 105.467571"></polyline>
                        <polyline id="path276" fill="#B9505A" points="63.6886605 91.662356 70.0523792 91.662356 68.1804972 94.0977301 61.9083885 94.0977301 63.6886605 91.662356"></polyline>
                        <polyline id="path278" fill="#B9505A" points="73.242175 36.565532 70.4369597 26.0877544 46.1165521 26.0877544 43.0421758 23.6875278 72.3083882 23.6875278 75.1138303 34.165532 86.9430817 34.165532 90.0172313 36.565532 73.242175 36.565532"></polyline>
                        <polyline id="path280" fill="#B9505A" points="42.840135 91.6689319 25.7154189 27.7566886 19.4196367 27.7566886 15.1241039 11.8509974 18.1924032 14.2820858 18.1955097 14.2938545 21.1452149 25.3408157 27.4643984 25.3176864 45.9138311 94.1013582 42.840135 91.6689319"></polyline>
                        <path d="M104.775281,33.819727 L104.83197,32.5843529 L105.543535,33.819727 L106.432877,33.819727 L105.858954,31.6761897 L105.285938,31.6761897 L105.69002,33.1852599 L104.831517,31.6761897 L104.341267,31.6761897 L104.289793,33.2009062 L103.881857,31.6761897 L103.309294,31.6761897 L103.883671,33.819727 L104.775281,33.819727 Z M101.665757,33.3024935 L101.804986,33.819727 L103.689567,33.819727 L103.550338,33.3024935 L102.92222,33.3024935 L102.486846,31.6761897 L101.858501,31.6761897 L102.293875,33.3024935 L101.665757,33.3024935 L101.665757,33.3024935 Z" id="path282" fill="#231F20"></path>
                    </g>
                </g>
            </g>
        </g>
    </g>
</svg>