<?xml version="1.0" encoding="UTF-8"?>
<svg width="200px" height="200px" viewBox="0 0 200 200" version="1.1" xmlns="http://www.w3.org/2000/svg" xmlns:xlink="http://www.w3.org/1999/xlink">
    <!-- Generator: Sketch 54.1 (76490) - https://sketchapp.com -->
    <title>lehigh</title>
    <desc>Created with Sketch.</desc>
    <g id="lehigh" stroke="none" stroke-width="1" fill="none" fill-rule="evenodd">
        <g id="lehigh_BGL" transform="translate(0.000000, -0.000000)">
            <g id="lehigh" transform="translate(0.000000, 2.000000)">
                <g id="g10" transform="translate(99.999998, 98.330436) scale(-1, 1) rotate(-180.000000) translate(-99.999998, -98.330436) translate(0.000000, 0.359424)" fill-rule="nonzero">
                    <g id="g12">
                        <path d="M130.318837,122.722316 C130.380287,122.244055 130.420866,121.759417 130.420866,121.260867 C130.420866,120.982026 130.398258,120.709562 130.380287,120.435939 C128.947823,120.838838 127.495069,121.201736 126.135649,121.5142 C122.572751,122.330432 119.683475,122.79478 119.683475,122.79478 C119.683475,122.79478 121.8342,122.266664 125.902026,119.429562 C126.964635,118.686374 128.161736,117.784345 129.485214,116.696229 C127.712461,112.571591 123.617968,109.679997 118.842316,109.679997 C112.449273,109.679997 107.264345,114.864925 107.264345,121.260867 C107.264345,125.616229 109.673041,129.401156 113.222026,131.382026 C111.441157,131.948402 109.679997,132.422026 107.959997,132.800576 C104.889273,129.904345 102.965215,125.811011 102.965215,121.260867 C102.965215,112.490432 110.0742,105.383186 118.842316,105.383186 C120.297388,105.383186 121.700287,105.595939 123.037678,105.958838 C123.708403,106.144345 124.368113,106.353041 125.002316,106.623186 C130.107823,108.773331 133.836518,113.518838 134.57275,119.207533 C133.208692,120.463185 131.787823,121.637098 130.318837,122.722316" id="path14" fill="#FFFFFF"></path>
                        <path d="M145.408112,49.8940277 L135.207533,49.8940277 C135.207533,49.8940277 126.649852,21.7855647 98.2220265,21.7855647 L73.8979692,21.7855647 L83.4591283,58.7936217 C77.4991285,80.5542009 67.1570998,96.0278237 55.7463754,107.028403 L37.0907817,34.8480571 C37.0907817,34.8480571 33.7151296,21.7855647 16.4143764,21.7855647 L13.1227243,9.04869543 L132.471881,9.04869543 L145.408112,49.8940277" id="path16" fill="#CBA569"></path>
                        <path d="M69.5866649,160.580286 L68.3715925,155.889271 C77.1797082,156.119996 87.4098529,155.902605 98.0243454,154.674199 L89.4828963,159.909561 C96.6759396,160.294489 103.377968,160.321735 109.638838,160.085793 L109.765794,160.580286 C113.142606,173.633619 124.451591,173.647532 124.451591,173.647532 L130.441156,173.647532 L133.734489,186.379126 L58.9518826,186.379126 L55.6626073,173.647532 L61.6533318,173.647532 C61.6533318,173.647532 72.9588388,173.633619 69.5866649,160.580286" id="path18" fill="#CBA569"></path>
                        <path d="M123.037678,105.958838 C112.406374,102.477679 101.333331,100.132171 93.1565194,92.5246354 C108.653331,85.9252152 123.207533,81.9142009 139.442895,79.5339111 C153.743185,77.4330415 164.663764,71.6979692 171.378546,67.9582592 C156.981445,85.53565 122.226084,84.0852153 101.15478,93.0255049 C126.711301,105.873041 151.929851,113.269562 172.779126,108.438258 C177.969271,106.470722 180.217967,100.633041 181.6313,96.023186 C187.972169,101.09507 192.572749,111.171012 190.825502,117.53507 C188.203474,127.075939 168.403474,120.836519 158.427822,116.633041 C155.102605,116.9142 150.848692,116.379128 150.848692,116.379128 C155.356518,122.21449 163.224923,128.566953 171.136228,131.044055 C159.93217,134.722315 151.735069,125.550721 144.67304,118.287533 C139.130431,112.322316 132.215649,109.11362 125.002316,106.623186 C124.368113,106.353041 123.708403,106.144345 123.037678,105.958838" id="path20" fill="#CBA569"></path>
                        <path d="M123.465504,94.2469542 C128.704924,91.9170992 136.11362,89.2521717 143.368112,88.4568094 L128.679997,95.0173889 C127.164055,95.8742005 124.322316,95.7628962 123.465504,94.2469542" id="path22" fill="#963A0E"></path>
                        <path d="M109.673041,152.739127 L115.463186,146.579706 C102.289853,149.815648 79.1704328,148.088692 61.7362303,145.222025 C44.6114192,142.400576 25.5996515,133.783765 25.5996515,133.783765 C80.63594,122.976229 90.9768093,59.695071 90.9768093,59.695071 C90.9768093,59.695071 99.4318816,72.3275344 118.964635,76.4023169 C109.927533,81.4944907 92.9234759,86.4440558 83.2568095,87.3484036 C85.8028964,97.5507222 95.8602875,102.888113 103.073621,106.860867 C103.073621,106.860867 97.0457947,111.452171 97.0457947,121.777388 C97.0457947,124.795939 97.0544903,130.409272 101.564635,133.806373 C96.2527512,134.296229 91.7791281,133.765794 89.0481137,132.374489 C89.0481137,132.374489 109.288113,153.695648 142.774489,127.308982 C142.774489,127.308982 149.060866,137.726953 160.37159,140.77333 C160.37159,140.77333 149.260286,152.03188 109.673041,152.739127" id="path24" fill="#963A0E"></path>
                        <path d="M118.842316,113.945504 C114.799417,113.945504 111.524635,117.217388 111.524635,121.260867 C111.524635,125.299127 114.799417,128.578548 118.842316,128.578548 C119.771591,128.578548 120.651591,128.390142 121.471881,128.07304 C118.729272,129.412171 115.953041,130.511301 113.222026,131.382026 C109.673041,129.401156 107.264345,125.616229 107.264345,121.260867 C107.264345,114.864925 112.449273,109.679997 118.842316,109.679997 C123.617968,109.679997 127.712461,112.571591 129.485214,116.696229 C128.161736,117.784345 126.964635,118.686374 125.902026,119.429562 C125.088693,116.279417 122.251011,113.945504 118.842316,113.945504" id="path26" fill="#006838"></path>
                        <path d="M130.318837,122.722316 C127.884634,124.528693 125.328693,126.092171 122.729272,127.438258 C124.716519,126.184924 126.046953,124.016229 126.135649,121.5142 C127.495069,121.201736 128.947823,120.838838 130.380287,120.435939 C130.398258,120.709562 130.420866,120.982026 130.420866,121.260867 C130.420866,121.759417 130.380287,122.244055 130.318837,122.722316" id="path28" fill="#006838"></path>
                        <path d="M61.7362303,145.222025 C79.1704328,148.088692 102.289853,149.815648 115.463186,146.579706 L109.673041,152.739127 C149.260286,152.03188 160.37159,140.77333 160.37159,140.77333 C149.060866,137.726953 142.774489,127.308982 142.774489,127.308982 C109.288113,153.695648 89.0481137,132.374489 89.0481137,132.374489 C91.7791281,133.765794 96.2527512,134.296229 101.564635,133.806373 C97.0544903,130.409272 97.0457947,124.795939 97.0457947,121.777388 C97.0457947,111.452171 103.073621,106.860867 103.073621,106.860867 C95.8602875,102.888113 85.8028964,97.5507222 83.2568095,87.3484036 C92.9234759,86.4440558 109.927533,81.4944907 118.964635,76.4023169 C99.4318816,72.3275344 90.9768093,59.695071 90.9768093,59.695071 C90.9768093,59.695071 80.63594,122.976229 25.5996515,133.783765 C25.5996515,133.783765 44.6114192,142.400576 61.7362303,145.222025 Z M55.6626073,173.647532 L58.9518826,186.379126 L133.734489,186.379126 L130.441156,173.647532 L124.451591,173.647532 C124.451591,173.647532 113.142606,173.633619 109.765794,160.580286 L109.638838,160.085793 C103.377968,160.321735 96.6759396,160.294489 89.4828963,159.909561 L98.0243454,154.674199 C87.4098529,155.902605 77.1797082,156.119996 68.3715925,155.889271 L69.5866649,160.580286 C72.9588388,173.633619 61.6533318,173.647532 61.6533318,173.647532 L55.6626073,173.647532 Z M171.136228,131.044055 C163.224923,128.566953 155.356518,122.21449 150.848692,116.379128 C150.848692,116.379128 155.102605,116.9142 158.427822,116.633041 C168.403474,120.836519 188.203474,127.075939 190.825502,117.53507 C192.572749,111.171012 187.972169,101.09507 181.6313,96.023186 C180.217967,100.633041 177.969271,106.470722 172.779126,108.438258 C151.929851,113.269562 126.711301,105.873041 101.15478,93.0255049 C122.226084,84.0852153 156.981445,85.53565 171.378546,67.9582592 C164.663764,71.6979692 153.743185,77.4330415 139.442895,79.5339111 C123.207533,81.9142009 108.653331,85.9252152 93.1565194,92.5246354 C101.333331,100.132171 112.406374,102.477679 123.037678,105.958838 C121.700287,105.595939 120.297388,105.383186 118.842316,105.383186 C110.0742,105.383186 102.965215,112.490432 102.965215,121.260867 C102.965215,125.811011 104.889273,129.904345 107.959997,132.800576 C109.679997,132.422026 111.441157,131.948402 113.222026,131.382026 C115.953041,130.511301 118.729272,129.412171 121.471881,128.07304 C120.651591,128.390142 119.771591,128.578548 118.842316,128.578548 C114.799417,128.578548 111.524635,125.299127 111.524635,121.260867 C111.524635,117.217388 114.799417,113.945504 118.842316,113.945504 C122.251011,113.945504 125.088693,116.279417 125.902026,119.429562 C121.8342,122.266664 119.683475,122.79478 119.683475,122.79478 C119.683475,122.79478 122.572751,122.330432 126.135649,121.5142 C126.046953,124.016229 124.716519,126.184924 122.729272,127.438258 C125.328693,126.092171 127.884634,124.528693 130.318837,122.722316 C131.787823,121.637098 133.208692,120.463185 134.57275,119.207533 C133.836518,113.518838 130.107823,108.773331 125.002316,106.623186 C132.215649,109.11362 139.130431,112.322316 144.67304,118.287533 C151.735069,125.550721 159.93217,134.722315 171.136228,131.044055 L171.136228,131.044055 Z M143.368112,88.4568094 C136.11362,89.2521717 128.704924,91.9170992 123.465504,94.2469542 C124.322316,95.7628962 127.164055,95.8742005 128.679997,95.0173889 L143.368112,88.4568094 Z M98.2220265,21.7855647 C126.649852,21.7855647 135.207533,49.8940277 135.207533,49.8940277 L145.408112,49.8940277 L132.471881,9.04869543 L13.1227243,9.04869543 L16.4143764,21.7855647 C33.7151296,21.7855647 37.0907817,34.8480571 37.0907817,34.8480571 L55.7463754,107.028403 C67.1570998,96.0278237 77.4991285,80.5542009 83.4591283,58.7936217 L73.8979692,21.7855647 L98.2220265,21.7855647 Z M48.3562307,113.455649 L29.1961152,39.3217961 C29.1961152,39.3217961 26.9889269,30.836521 18.753159,30.836521 L9.70313019,30.836521 L1.73369851,0 L138.670141,0 L157.339706,58.9431869 L129.035939,58.9431869 C126.819707,50.3763466 121.772751,30.836521 100.560577,30.836521 L85.2875341,30.836521 L89.5623166,47.375651 C98.8086932,58.1860855 130.112461,87.3982587 178.660285,57.3634768 C178.660285,57.3634768 183.940865,84.1124617 138.844054,100.216229 C138.844054,100.216229 147.923475,104.848113 157.561155,104.848113 C179.723474,104.848113 176.604633,82.5170994 176.604633,82.5170994 C183.397097,87.6794181 202.816807,100.839418 199.582604,117.027243 C197.080575,134.151301 172.33101,124.542026 178.467822,140.514779 C178.467822,140.514779 160.118257,156.063764 118.552461,159.544344 L118.817388,160.580286 C119.646954,163.789561 120.705504,164.473619 122.355359,164.5913 L137.15362,164.5913 L145.124054,195.43072 L52.239361,195.43072 L44.2703757,164.5913 L61.5727521,164.5913 L59.2162304,155.476518 C48.0197089,154.755938 40.7450425,153.507243 40.7450425,153.507243 L48.5769843,148.559996 C32.7497963,146.230141 16.6582605,140.834199 0,133.783765 C0,133.783765 24.9220863,131.805794 48.3562307,113.455649 L48.3562307,113.455649 Z" id="path30" fill="#5B2D05"></path>
                        <path d="M156.21275,5.259739 C156.21275,2.97961732 154.359416,1.12635939 152.075359,1.12635939 C149.790721,1.12635939 147.941446,2.97961732 147.941446,5.259739 C147.941446,7.54440561 149.790721,9.39831861 152.075359,9.39831861 C154.359416,9.39831861 156.21275,7.54440561 156.21275,5.259739 Z M146.81275,5.259739 C146.81275,2.35642893 149.169851,0 152.075359,0 C154.982605,0 157.339706,2.35642893 157.339706,5.259739 C157.339706,8.16985487 154.982605,10.5264925 152.075359,10.5264925 C149.169851,10.5264925 146.81275,8.16985487 146.81275,5.259739 L146.81275,5.259739 Z" id="path32" fill="#5B2D05"></path>
                        <path d="M151.041156,7.14313026 L152.451011,7.14313026 C152.813909,7.14313026 153.108402,6.85055055 153.108402,6.48823172 C153.108402,6.1206955 152.813909,5.82678246 152.451011,5.82678246 L151.041156,5.82678246 L151.041156,7.14313026 Z M149.91304,2.25497965 L151.041156,2.25497965 L151.041156,4.69746655 L151.850431,4.69746655 L152.99304,2.25497965 L154.237098,2.25497965 L153.049272,4.80457379 C153.743185,5.05162886 154.237098,5.70901435 154.237098,6.48823172 C154.237098,7.46968097 153.439416,8.27356501 152.451011,8.27356501 L149.91304,8.27356501 L149.91304,2.25497965 L149.91304,2.25497965 Z" id="path34" fill="#5B2D05"></path>
                    </g>
                </g>
            </g>
        </g>
    </g>
</svg>