<?xml version="1.0" encoding="UTF-8"?>
<svg width="200px" height="200px" viewBox="0 0 200 200" version="1.1" xmlns="http://www.w3.org/2000/svg" xmlns:xlink="http://www.w3.org/1999/xlink">
    <!-- Generator: Sketch 54.1 (76490) - https://sketchapp.com -->
    <title>loyola-marymount</title>
    <desc>Created with Sketch.</desc>
    <defs>
        <polygon id="path-1" points="5.48696845e-05 0.216790123 199.851852 0.216790123 199.851852 93.0041152 5.48696845e-05 93.0041152"></polygon>
    </defs>
    <g id="loyola-marymount" stroke="none" stroke-width="1" fill="none" fill-rule="evenodd">
        <g id="loyola-marymount_BGL">
            <g id="Group-16" transform="translate(0.000000, 53.000000)">
                <path d="M196.559616,3.56652949 L196.559616,27.5308642 L193.031495,27.2427984 L193.031495,78.8559671 L181.481427,89.2537723 L179.613114,88.4965706 C169.849053,84.5349794 159.577449,81.1056241 149.078134,78.3017833 L148.057558,78.0301783 L137.157695,65.4650206 L137.157695,23.473251 L134.455364,23.3854595 L134.455364,3.56652949 L162.929986,3.56652949 L162.929986,24.6803841 L159.799671,24.5102881 L159.799671,59.8710562 L170.340137,63.1522634 L170.340137,25.0973937 L166.99583,24.8806584 L166.99583,3.56652949 L196.559616,3.56652949 Z" id="Fill-1" fill="#FFFFFF"></path>
                <path d="M53.722963,49.9424143 L53.722963,72.4142936 L50.94107,72.8505075 C36.6036214,75.0974211 22.0192593,78.603594 7.59950617,83.2757476 L3.29223594,84.6694376 L3.29223594,62.8971468 L6.78469136,61.906749 L6.81761317,26.417037 L3.29223594,26.7023594 L3.29223594,3.56655693 L33.1276269,3.56655693 L33.1303704,24.6063374 L29.4239232,24.8258162 L29.4239232,56.241454 C31.0343484,55.906749 32.9218656,55.5199177 34.669465,55.1769822 L34.6859259,52.5898765 L37.4211797,52.1317147 C42.8066392,51.2318519 44.6228258,51.0041427 50.0192593,50.3210151 L53.722963,49.9424143 Z" id="Fill-3" fill="#FFFFFF"></path>
                <path d="M131.434842,51.2400823 L131.459534,74.2167627 L127.580247,73.5308916 C119.610425,72.1207407 111.599451,71.1083951 103.772291,70.5240329 L100.727023,70.2990672 L100.727023,56.1810974 L94.5871056,65.9725926 L88.4032922,56.2606584 L88.4032922,69.8875446 L85.1467764,69.9232099 C77.3717421,70.0055144 69.3360768,70.518546 61.2620027,71.4458436 L57.5610425,71.8710837 L57.5610425,49.3992044 L62.005487,48.9190947 L62.005487,23.5665569 L58.8175583,23.6762963 L58.8175583,3.56655693 L82.7626886,3.56655693 L94.5761317,22.6694376 L106.449931,3.56655693 L130.422497,3.56655693 L130.422497,23.3361043 L127.179698,23.2510562 L127.15775,50.8175857 L131.434842,51.2400823 Z" id="Fill-5" fill="#FFFFFF"></path>
                <g id="Group-9" transform="translate(0.000000, 0.057613)">
                    <mask id="mask-2" fill="white">
                        <use xlink:href="#path-1"></use>
                    </mask>
                    <g id="Clip-8"></g>
                    <path d="M53.722963,72.3567078 L53.722963,49.8848285 L50.0192593,50.2634294 C44.6228258,50.9465569 42.8066392,51.1742661 37.4211797,52.0741289 L34.6859259,52.5322908 L34.669465,55.1193964 C32.9218656,55.462332 31.0343484,55.8491632 29.4239232,56.1838683 L29.4239232,24.7682305 L33.1303704,24.5487517 L33.1276269,3.50897119 L3.29223594,3.50897119 L3.29223594,26.6447737 L6.81761317,26.3594513 L6.78469136,61.8491632 L3.29223594,62.839561 L3.29223594,84.6118519 L7.59950617,83.2181619 C22.0192593,78.5460082 36.6036214,75.0398354 50.94107,72.7929218 L53.722963,72.3567078 Z M131.459588,74.159177 L131.434897,51.1824966 L127.157805,50.76 L127.179753,23.1934705 L130.422551,23.2785185 L130.422551,3.50897119 L106.449986,3.50897119 L94.5761866,22.6118519 L82.7627435,3.50897119 L58.8176132,3.50897119 L58.8176132,23.6187106 L62.0055418,23.5089712 L62.0055418,48.8615089 L57.5610974,49.3416187 L57.5610974,71.8134979 L61.2620576,71.3882579 C69.3361317,70.4609602 77.371797,69.9479287 85.1468313,69.8656241 L88.4033471,69.8299588 L88.4033471,56.2030727 L94.5871605,65.9150069 L100.727078,56.1235117 L100.727078,70.2414815 L103.772346,70.4664472 C111.599506,71.0508093 119.61048,72.063155 127.580302,73.4733059 L131.459588,74.159177 Z M133.865624,48.1015638 L133.865624,26.6036214 L133.714733,26.5981344 L133.714733,26.6612346 L130.477421,26.5734431 C130.477421,30.1838683 130.469191,33.5117147 130.46096,36.7517695 C130.449986,40.2497119 130.441756,43.8409328 130.444499,47.7860631 L131.739424,47.9040329 L133.865624,48.1015638 Z M167.048066,58.6173388 L167.048066,28.1262551 L163.091962,27.9287243 L163.091962,57.4102058 C164.219534,57.7503978 165.613224,58.1756379 167.048066,58.6173388 L167.048066,58.6173388 Z M196.559726,27.4733059 L196.559726,3.50897119 L166.99594,3.50897119 L166.99594,24.8231001 L170.340247,25.0398354 L170.340247,63.0947051 L159.799781,59.8134979 L159.799781,24.4527298 L162.930096,24.6228258 L162.930096,3.50897119 L134.455473,3.50897119 L134.455473,23.3279012 L137.157805,23.4156927 L137.157805,65.4074623 L148.057668,77.97262 L149.078244,78.244225 C159.577558,81.0480658 169.849163,84.4774211 179.613224,88.4390123 L181.481536,89.196214 L193.031605,78.7984088 L193.031605,27.1852401 L196.559726,27.4733059 Z M199.851907,0.216790123 L199.851907,31.0425789 L196.323786,30.754513 L196.323786,80.2305075 L182.109794,93.0041701 L180.244225,92.2469684 L178.375912,91.4897668 C168.738052,87.5803018 158.595391,84.1920988 148.227764,81.4239232 L147.207188,81.1523182 L146.189355,80.8807133 L134.735309,67.6406584 L134.762743,78.0878464 L130.8862,77.4019753 L127.006914,76.7133608 C119.146831,75.3224143 111.245597,74.3265295 103.528176,73.7503978 L100.480165,73.5226886 L97.4348971,73.2977229 L97.4348971,67.5693278 L94.6091084,72.0823594 L91.6955281,67.5034842 L91.6955281,73.0892181 L88.4390123,73.1221399 L85.1824966,73.1578052 C77.5199451,73.2401097 69.5995062,73.7449108 61.637915,74.6584911 L57.9369547,75.0837311 L54.233251,75.6077366 L51.451358,76.0439506 C37.2840055,78.2634294 22.8697394,81.7311934 8.61185185,86.3484774 L4.3073251,87.7449108 L5.48696845e-05,89.1386008 L5.48696845e-05,60.3484774 L3.49525377,59.3580796 L3.52268861,29.9314678 L5.48696845e-05,30.2140466 L5.48696845e-05,0.216790123 L36.419808,0.216790123 L36.4225514,27.6543759 L32.7161043,27.8711111 L32.7161043,49.5226886 L34.142716,49.2840055 L36.8779698,48.8285871 C42.329273,47.9177503 44.1619204,47.6845542 49.6049931,46.9959396 L53.3114403,46.5268038 L58.7133608,45.9150069 L58.7133608,26.9163786 L55.5254321,27.026118 L55.5254321,0.216790123 L84.6091084,0.216790123 L94.5734431,16.3951166 L104.614595,0.216790123 L199.851907,0.216790123 Z" id="Fill-7" fill="#107FB8" mask="url(#mask-2)"></path>
                </g>
                <path d="M6.58392318,65.3842798 L6.58392318,80.1434019 C18.6925652,76.2215912 33.6969547,72.2196708 50.4316598,69.5968999 L50.4316598,53.5859259 C45.0879012,54.2627435 43.2826886,54.4915501 37.9619753,55.3798903 C37.9531962,56.9038957 37.9702058,56.3787929 37.9619753,57.9030727 C33.7164335,58.6715226 26.1306996,60.3014266 26.1306996,60.3014266 L26.1306996,21.7189849 C27.5466118,21.6306447 28.4217833,21.5878464 29.8382442,21.5041701 L29.8360494,6.85917695 L6.58392318,6.85917695 L6.58392318,23.1346228 C7.99517147,23.0202195 8.70353909,22.9637037 10.114513,22.8539643 L10.0736351,64.4166529 C8.67720165,64.7955281 7.97788752,64.9892181 6.58392318,65.3842798" id="Fill-10" fill="#AB0C2F"></path>
                <path d="M140.448669,64.222716 L149.927407,75.1212071 C162.473086,78.4710014 173.019314,82.2682579 180.851139,85.4460357 C184.33454,82.4331413 186.148532,80.7755281 189.739753,77.4249108 L189.739753,23.6773114 C191.151824,23.7867764 191.857449,23.8427435 193.268697,23.9579698 L193.268697,6.85920439 L170.289547,6.85920439 L170.289547,21.7939095 L173.632209,22.0089986 L173.632209,65.4534431 C172.904636,66.1283402 172.618491,66.4638683 171.889822,67.1299863 C168.485432,65.9478189 158.524664,62.9681207 158.524664,62.9681207 C157.755665,62.0358848 157.27583,61.5736077 156.506557,60.657284 L156.506557,21.0183265 C157.92439,21.0904801 158.222058,21.1275171 159.639067,21.2046091 L159.639067,6.85920439 L137.748807,6.85920439 L137.748807,20.1985734 C139.169108,20.2441152 139.029739,20.3212071 140.448669,20.3716872 L140.448669,64.222716 Z" id="Fill-12" fill="#AB0C2F"></path>
                <path d="M60.8866941,52.3294376 L60.8866941,68.1760768 C68.6962963,67.2786831 76.8068587,66.7201097 85.1124829,66.6314952 L85.1124829,51.3074897 C83.6828532,51.367572 82.9832647,51.4021399 81.5539095,51.4792318 C81.5720165,45.5116049 81.5816187,45.4021399 81.6002743,39.434513 C86.7635117,47.5917147 89.3561043,51.6153086 94.5646091,59.8032373 C99.7838134,51.4679835 102.38299,47.4010425 107.559122,39.2188752 C107.570096,45.1426063 107.575857,46.5722359 107.586283,52.4959671 C106.156927,52.4545405 105.449108,52.4383539 104.017833,52.4133882 L104.017833,67.2421948 C112.442524,67.869904 120.522908,68.9373937 128.155281,70.2882853 C128.139918,65.2419204 128.183265,59.2070782 128.158299,54.2432922 C126.73251,54.1113306 125.304252,53.8679835 123.87572,53.7522085 C123.818381,40.936845 123.932785,32.6822497 123.87572,19.8655144 C125.296296,19.8992593 125.710837,19.9173663 127.131413,19.9555007 L127.131413,6.85920439 L108.286694,6.85920439 C102.827984,15.6948697 100.08834,20.04 94.5829904,28.8847188 C89.0916324,20.1085871 86.3588477,15.7648285 80.915775,6.85920439 L62.1097394,6.85920439 L62.1097394,20.2688066 C63.5292181,20.2199726 63.8770919,20.197476 65.2973937,20.1535802 L65.2973937,51.9316324 C65.2973937,51.9316324 62.3108368,52.1618107 60.8866941,52.3294376" id="Fill-14" fill="#AB0C2F"></path>
            </g>
        </g>
    </g>
</svg>