<?xml version="1.0" encoding="UTF-8"?>
<svg width="200px" height="200px" viewBox="0 0 200 200" version="1.1" xmlns="http://www.w3.org/2000/svg" xmlns:xlink="http://www.w3.org/1999/xlink">
    <!-- Generator: Sketch 54.1 (76490) - https://sketchapp.com -->
    <title>longwood</title>
    <desc>Created with Sketch.</desc>
    <g id="longwood" stroke="none" stroke-width="1" fill="none" fill-rule="evenodd">
        <g id="longwood_BGL">
            <g id="longwood" transform="translate(0.000000, 63.000000)">
                <g id="g10" transform="translate(100.023756, 36.908530) scale(-1, 1) rotate(-180.000000) translate(-100.023756, -36.908530) translate(0.047517, 0.035165)" fill-rule="nonzero">
                    <g id="g12" transform="translate(0.076028, 0.000000)">
                        <g id="g14" transform="translate(0.006750, 0.000000)" fill="#999D9E">
                            <path d="M160.188846,27.2067684 L137.979039,23.5178813 L112.763554,23.5178813 C112.537411,28.0590024 115.16692,31.7605143 116.593397,33.4182827 C118.353512,32.6933997 120.443342,32.2680795 122.693249,32.2680795 C126.896198,32.2680795 130.557384,33.7372116 132.495227,35.9123509 C134.152382,35.153761 135.689419,34.3054493 136.986216,33.3496431 C144.917765,27.5063312 151.709406,29.5625769 151.709406,29.5625769 L158.640778,38.7607709 L157.282695,41.1057931 L158.176235,43.9919649 L154.067666,49.9077161 L152.780674,49.9077161 L142.311912,57.7359377 L140.595923,60.6938133 C134.234505,64.3005781 128.412397,65.7437253 128.412397,65.7437253 C119.61648,73.2951822 108.962269,73.7788461 105.368987,73.7044457 C106.781124,72.4174536 107.614605,70.9648685 107.614605,70.9648685 C102.937062,71.7751832 99.5690652,71.6408458 97.4450379,71.3453279 C97.2986885,69.2268163 97.4659975,67.5473528 97.4659975,67.5473528 C79.945377,66.8152381 66.7946463,61.9342286 63.9304147,60.791257 C66.8080065,60.4302863 72.9967226,59.6186233 76.5625488,58.8903083 C76.5625488,58.8903083 68.5144355,56.2990416 58.3025819,50.519589 C58.3025819,50.519589 56.770571,51.1017997 54.5044843,51.8701953 C52.3168428,50.6144587 49.4114275,48.7884007 45.9766293,46.2499619 C45.9766293,46.2499619 36.262045,49.6676002 24.1412758,52.1513724 C25.7148381,48.4596661 27.9397411,43.1620388 28.2358719,42.0332855 C28.2358719,42.0332855 17.2285346,41.2829078 4.67230848,38.8452221 C12.2654885,36.0675254 28.5986811,29.875745 41.3737326,23.5178813 L7.04489685,23.5178813 L0.0122199451,12.2244273 L80.7252942,12.2244273 C83.952335,9.98819882 89.2266739,6.28558375 94.8133229,2.15605501 C100.817815,-2.2816777 105.696864,1.50658976 105.696864,1.50658976 L122.874654,12.2244273 L133.80183,12.2244273 L151.514519,8.55619332 L199.806141,18.8789488 L160.188846,27.2067684" id="path16"></path>
                        </g>
                        <g id="g18" transform="translate(114.112370, 12.873673)" fill="#15213B">
                            <path d="M46.0352376,11.9574795 L24.0632433,8.30912906 L8.94911139,8.30912906 L0.007055652,8.30912906 C1.38313912,7.37176834 2.77483756,6.41809866 4.19406461,5.42799405 C5.52538518,4.49965531 6.69245942,3.94515046 7.66752739,3.62093747 L21.1577027,3.62093747 L38.626803,0.00474232347 L74.4429119,5.98608455 L46.0352376,11.9574795" id="path20"></path>
                        </g>
                        <g id="g22" transform="translate(144.477016, 18.857584)" fill="#FFFFFF">
                            <polyline id="path24" points="15.997092 2.65216623 0 0.00222978184 28.6155336 0.00222978184 15.997092 2.65216623"></polyline>
                        </g>
                        <g id="g26" transform="translate(6.607870, 2.266416)" fill="#15213B">
                            <path d="M148.15666,38.6271862 L149.042188,41.3268987 L146.219209,45.3623622 L145.436005,45.3900948 L134.006383,53.9036901 L132.324263,56.7124201 C126.78541,59.9031894 120.687125,61.3877397 120.687125,61.3877397 C112.979399,68.192247 104.000758,68.6985089 104.000758,68.6985089 C105.436154,66.9175076 106.796004,64.3614304 106.796004,64.3614304 C99.5262598,67.6200965 93.0741467,66.9583413 93.0741467,66.9583413 C93.0626711,65.4380257 93.651748,63.9400874 94.1719718,62.9157056 C81.0554483,63.2735507 67.7046329,59.4151928 67.7046329,59.4151928 C73.5140211,58.5562499 78.5291118,56.5189619 78.5291118,56.5189619 C78.5291118,56.5189619 67.6074735,54.8928802 51.9026456,45.7002208 C49.4182904,46.6995476 48.1119933,47.1255764 48.1119933,47.1255764 C44.0476497,44.675839 39.748823,41.4040716 39.748823,41.4040716 C28.788646,45.083507 21.3106211,46.7049029 21.3106211,46.7049029 C22.0768992,44.8216738 25.1247026,37.5487739 25.1247026,37.5487739 C16.1709253,37.2924872 6.60818026,35.8875962 6.60818026,35.8875962 C6.85758164,35.7970352 22.56021,30.1434272 38.2930572,22.0832107 C39.0685157,21.642455 39.8728543,21.580774 40.4399364,22.0031689 C41.2179769,22.5867949 41.2876907,23.9061933 40.6928761,25.1769162 C40.6928761,25.1769162 38.9542386,28.7567058 38.5455187,29.6049383 C37.8523971,30.9729163 37.9560593,32.4231356 38.7978846,33.0553413 C39.4030272,33.5087201 40.0258612,33.5258378 41.1001615,32.9376216 C41.1001615,32.9376216 51.1594142,27.6087709 64.8189212,18.9163487 L2.910757,18.9163487 L0.00565169537,14.2281192 L72.0245937,14.2281192 C77.7036391,10.4496118 83.7576472,6.21890181 89.8160543,1.64564746 C89.8160543,1.64564746 93.74929,-1.38516073 97.1699523,0.787039223 L114.672995,11.7084767 C114.672995,11.7084767 112.098652,10.8492469 107.835495,13.8212162 C84.0100131,30.4331842 66.2963949,39.3943249 56.5797822,43.7132339 C64.8592768,42.2612932 72.0991846,38.8299204 72.0991846,38.8299204 C84.969845,55.5322581 100.805781,58.8397909 100.805781,58.8397909 C98.5374522,61.3367692 98.3127232,63.3320759 98.3127232,63.3320759 L110.16407,58.4085025 C110.109561,59.888845 109.473626,61.0431871 109.473626,61.0431871 C119.574,59.8611125 126.931723,56.8485007 129.908665,55.4562328 C131.017009,53.9252067 131.999123,52.215258 131.999123,52.215258 C136.221159,49.43646 141.300991,45.7825577 141.300991,45.7825577 C142.969723,44.6985032 144.239681,42.8774332 144.359218,41.2016243 C144.5084,39.0756879 142.741169,37.9895296 140.416419,38.7800975 C138.494269,39.433533 136.797804,41.1633725 136.180038,42.9455213 C133.585614,43.7117038 127.866022,45.179997 125.430342,45.7993884 C123.215566,43.7589447 120.018676,42.4744511 116.459351,42.4744511 C111.150009,42.4744511 106.646822,45.3298483 105.01156,49.2981799 C94.3660994,43.9703812 88.3554114,30.6144975 88.3554114,30.6144975 C93.049283,28.0351823 103.66988,21.3617828 103.66988,21.3617828 C103.604852,27.4361599 107.230161,31.7829927 109.577862,33.9577 C111.407252,32.941638 113.637329,32.3385036 116.047189,32.3385036 C119.978512,32.3385036 123.432644,33.9282462 125.439905,36.3315077 C127.903317,35.3894628 130.179296,34.138057 132.220027,32.6449957 C138.298229,28.1958396 143.783529,29.4059336 143.783529,29.4059336 L149.286999,36.6950905 L148.15666,38.6271862" id="path28"></path>
                        </g>
                        <path d="M107.413635,61.1064846 C107.413635,61.1064846 91.5780448,57.7989057 78.7073394,41.0965065 C78.7073394,41.0965065 94.9323806,56.0068411 110.909952,58.7558075 C110.909952,58.7558075 109.161318,59.2691836 107.413635,61.1064846" id="path30" fill="#FFFFFF"></path>
                        <path d="M147.909714,48.0491316 C147.909714,48.0491316 142.829172,51.7031111 138.607742,54.4819183 C138.607742,54.4819183 137.625086,56.1917781 136.516984,57.7228781 C133.540505,59.1151328 126.181988,62.1277247 116.081727,63.3098582 C116.081727,63.3098582 116.717507,62.1554748 116.772627,60.6751232 C116.772627,60.6751232 126.541218,60.3329992 135.113325,56.3657862 L137.14041,53.1362306 C137.14041,53.1362306 142.318837,50.1242088 147.496314,46.3147529 C149.409357,44.9071027 150.265618,43.1621752 150.379659,41.5403173 C150.802562,42.0018996 151.024943,42.6590628 150.967922,43.4681861 C150.848179,45.1440236 149.578518,46.9650737 147.909714,48.0491316" id="path32" fill="#FFFFFF"></path>
                        <path d="M135.29294,54.8335458 C130.002373,57.6286039 126.46424,58.5257291 126.46424,58.5257291 C123.044901,58.5257291 121.481584,56.9054868 121.481584,56.9054868 C121.597526,56.8945579 122.863385,56.884009 124.330717,56.3080052 C124.221427,56.1293405 124.136847,55.9419326 124.087429,55.7463517 C123.70634,54.2152517 125.382748,52.8061759 127.835587,52.5991909 C129.722021,52.4402933 131.713943,53.110001 132.645281,54.3083854 C134.553572,54.2372046 135.29294,54.8335458 135.29294,54.8335458" id="path34" fill="#15213B"></path>
                        <path d="M128.109286,56.4134935 C127.717744,56.1933937 127.449747,55.9050592 127.369918,55.5860285 C127.306245,55.3270597 127.365167,55.0655249 127.54003,54.8288891 C127.859346,54.3976228 128.512232,54.1009252 129.285813,54.0361117 C130.21525,53.9574232 131.09907,54.2292217 131.578994,54.6837715 C130.966022,54.9377986 130.288426,55.2774517 129.534803,55.7289604 C129.018766,56.0382975 128.554048,56.2551661 128.109286,56.4134935" id="path36" fill="#FFFFFF"></path>
                    </g>
                </g>
            </g>
        </g>
    </g>
</svg>