<?xml version="1.0" encoding="UTF-8"?>
<svg width="200px" height="200px" viewBox="0 0 200 200" version="1.1" xmlns="http://www.w3.org/2000/svg" xmlns:xlink="http://www.w3.org/1999/xlink">
    <!-- Generator: Sketch 54.1 (76490) - https://sketchapp.com -->
    <title>loyola-maryland</title>
    <desc>Created with Sketch.</desc>
    <g id="loyola-maryland" stroke="none" stroke-width="1" fill="none" fill-rule="evenodd">
        <g id="loyola-maryland_BGL" transform="translate(0.000000, 0.000000)">
            <g id="loyola-maryland" transform="translate(9.000000, 0.000000)">
                <g id="g10" transform="translate(90.899888, 99.941996) scale(-1, 1) rotate(-180.000000) translate(-90.899888, -99.941996) translate(0.000000, 0.132017)" fill-rule="nonzero">
                    <g id="g12">
                        <polyline id="path14" fill="#03090D" points="112.622158 56.0892075 148.073915 199.45354 31.2573079 199.45354 17.9988585 145.642561 35.9412149 145.642561 0 0.00437543743 167.782372 0.00437543743 181.636796 56.0892075 112.622158 56.0892075"></polyline>
                        <polyline id="path16" fill="#CACAC7" points="13.2758285 10.3989996 49.2152815 156.0352 31.2684401 156.0352 39.4070635 189.063302 134.792921 189.063302 99.3395619 45.6981687 168.357404 45.6981687 159.637422 10.3989996 13.2758285 10.3989996 13.2758285 10.3989996"></polyline>
                        <polyline id="path18" fill="#0E6343" points="87.7203938 36.6077399 156.740238 36.6077399 152.511992 19.4871082 24.8957974 19.4871082 60.8344495 165.124508 42.8831232 165.124508 46.5415434 179.970793 123.172151 179.970793 87.7203938 36.6077399"></polyline>
                        <path d="M177.656022,3.96117602 L178.467313,3.96117602 L179.659423,2.08786473 L180.853536,3.96117602 L181.636796,3.96117602 L181.636796,0.010782318 L180.903991,0.010782318 L180.903991,2.81824975 L179.685852,0.921344111 L179.609368,0.921344111 L178.387225,2.81824975 L178.387225,0.010782318 L177.656022,0.010782318 L177.656022,3.96117602 Z M174.83332,3.26829475 L173.613179,3.26829475 L173.613179,3.96117602 L176.810693,3.96117602 L176.810693,3.26829475 L175.590552,3.26829475 L175.590552,0.010782318 L174.83332,0.010782318 L174.83332,3.26829475 L174.83332,3.26829475 Z" id="path20" fill="#CACAC7"></path>
                    </g>
                </g>
            </g>
        </g>
    </g>
</svg>