<?xml version="1.0" encoding="UTF-8"?>
<svg width="200px" height="200px" viewBox="0 0 200 200" version="1.1" xmlns="http://www.w3.org/2000/svg" xmlns:xlink="http://www.w3.org/1999/xlink">
    <!-- Generator: Sketch 54.1 (76490) - https://sketchapp.com -->
    <title>lsu</title>
    <desc>Created with Sketch.</desc>
    <g id="lsu" stroke="none" stroke-width="1" fill="none" fill-rule="evenodd">
        <g id="lsu_BGL" fill="#402A7A">
            <g id="lsu" transform="translate(0.000000, 69.000000)">
                <g id="g10" transform="translate(99.999998, 30.763949) scale(-1, 1) rotate(-180.000000) translate(-99.999998, -30.763949) translate(0.143062, 0.005723)" fill-rule="nonzero">
                    <g id="g12" transform="translate(0.257511, 0.000000)">
                        <path d="M123.607436,14.6151928 L123.607436,37.4366228 L79.9141611,37.4366228 L79.9141611,43.8921305 C79.9141611,46.7459216 83.0686675,49.0732463 86.895849,49.0732463 L123.607436,49.0732463 L123.607436,61.3084391 L77.0623729,61.3084391 C67.1530741,61.3084391 59.045206,55.3044335 59.045206,47.9473522 L59.045206,25.1999421 L102.736764,25.1999421 L102.736764,18.6669523 C102.736764,15.8165661 99.5845469,13.4884689 95.6801121,13.4884689 L59.045206,13.4884689 L59.045206,1.252123 L105.515591,1.252123 C115.497565,1.252123 123.607436,7.25690969 123.607436,14.6151928" id="path14"></path>
                        <polyline id="path16" points="54.0815437 13.4129038 20.7492985 13.4129038 20.7492985 61.3084391 0.0285005358 61.3084391 0.0285005358 1.252123 54.0815437 1.252123 54.0815437 13.4129038"></polyline>
                        <path d="M192.950496,14.6151928 L192.950496,61.3084391 L172.154502,61.3084391 L172.154502,18.6669523 C172.154502,15.7393415 169.002285,13.4129038 165.098708,13.4129038 L149.183973,13.4129038 L149.183973,61.1599412 L128.539339,61.1599412 L128.539339,1.252123 L174.933901,1.252123 C184.844058,1.252123 192.950496,7.25690969 192.950496,14.6151928" id="path18"></path>
                        <path d="M195.503286,0.811985674 C193.863514,0.811985674 192.537048,2.13709294 192.537048,3.77682394 C192.537048,5.41430602 193.863514,6.74188824 195.503286,6.74188824 C197.142198,6.74188824 198.468665,5.41430602 198.468665,3.77682394 C198.468665,2.13709294 197.142198,0.811985674 195.503286,0.811985674 Z M195.503286,7.552532 C193.418593,7.552532 191.726462,5.86037181 191.726462,3.77682394 C191.726462,1.69214874 193.418593,0 195.503286,0 C197.589695,0 199.279251,1.69214874 199.279251,3.77682394 C199.279251,5.86037181 197.589695,7.552532 195.503286,7.552532 L195.503286,7.552532 Z" id="path20"></path>
                        <path d="M195.773672,4.18286113 L194.764516,4.18286113 L194.764516,5.12452062 L195.773672,5.12452062 C196.033758,5.12452062 196.244916,4.91158786 196.244916,4.65150203 C196.244916,4.39030032 196.033758,4.18286113 195.773672,4.18286113 Z M197.052642,4.65150203 C197.052642,5.35911288 196.480968,5.92989971 195.773672,5.92989971 L193.952499,5.92989971 L193.952499,1.61882972 L194.764516,1.61882972 L194.764516,3.37221737 L195.342484,3.37221737 L196.16051,1.61882972 L197.052642,1.61882972 L196.203429,3.44609433 C196.700138,3.62203138 197.052642,4.09467801 197.052642,4.65150203 L197.052642,4.65150203 Z" id="path22"></path>
                    </g>
                </g>
            </g>
        </g>
    </g>
</svg>