<?xml version="1.0" encoding="UTF-8"?>
<svg width="200px" height="200px" viewBox="0 0 200 200" version="1.1" xmlns="http://www.w3.org/2000/svg" xmlns:xlink="http://www.w3.org/1999/xlink">
    <!-- Generator: Sketch 54.1 (76490) - https://sketchapp.com -->
    <title>marquette</title>
    <desc>Created with Sketch.</desc>
    <g id="marquette" stroke="none" stroke-width="1" fill="none" fill-rule="evenodd">
        <g id="marquette_BGL" transform="translate(-0.000000, 0.000000)">
            <g id="marquette" transform="translate(0.000000, 25.000000)">
                <g id="g10" transform="translate(99.999998, 75.367523) scale(-1, 1) rotate(-180.000000) translate(-99.999998, -75.367523) translate(0.000000, 0.153850)" fill-rule="nonzero">
                    <g id="g12" transform="translate(0.000000, 1.538461)">
                        <path d="M162.021193,22.1741875 L142.177432,3.84948708 L82.3030749,3.84948708 L62.4593147,22.1741875 L67.6642718,30.3972642 L67.6642718,39.085811 L29.026495,39.085811 L36.9924777,52.3892295 C30.9776061,50.7712808 27.1394865,49.3676911 25.6697429,48.7946996 L16.8516235,41.7401699 L4.31823921,73.2738443 L9.07586302,75.2738443 C9.32358951,75.3786306 20.3947003,80.0080322 39.9733323,84.0271774 L39.9733323,125.597604 L29.0117941,143.902219 L75.7752118,143.82615 L84.8777757,134.218116 L93.5008524,143.775381 L141.870253,143.924954 L130.896065,125.597604 L130.896065,103.755382 L164.466492,103.755382 L156.816235,86.4203397 L156.816235,84.3970919 C177.550423,80.2977758 189.323072,75.3818785 189.577773,75.2750409 L194.340166,73.2765794 L181.806833,41.7401699 L172.98632,48.7946996 C171.153842,49.507862 165.643757,51.5143577 156.816235,53.6177764 L156.816235,30.3972642 L162.021193,22.1741875 Z M63.1063232,35.6123068 L63.0962377,35.6123068 L62.7964087,33.5470077 L61.8690583,33.5470077 L62.4786309,37.1346999 L63.395383,37.1346999 L64.1232463,35.2164094 L64.8938445,37.1346999 L65.8213659,37.1346999 L66.3641009,33.5470077 L65.4312804,33.5470077 L65.1702548,35.6123068 L65.1603403,35.6123068 L64.2994856,33.5470077 L63.9282035,33.5470077 L63.1063232,35.6123068 Z M61.7454685,36.3447854 L60.9748703,36.3447854 L60.9748703,33.5470077 L60.0427335,33.5470077 L60.0427335,36.3447854 L59.2721353,36.3447854 L59.2721353,37.1346999 L61.7454685,37.1346999 L61.7454685,36.3447854 Z M171.304269,45.8586313 L183.24444,36.3068367 L198.658115,75.0893998 L190.87179,78.3581177 C190.482047,78.5222203 179.864953,82.9441005 161.151107,86.9217072 L170.329227,107.718972 L134.717603,107.718972 L134.717603,124.541193 L148.624441,147.766492 L91.7969208,147.590766 L84.8090577,139.846492 L77.4211946,147.644954 L22.2629054,147.734355 L36.151794,124.541193 L36.151794,86.636579 C18.2752132,82.7350407 8.16305962,78.5176049 7.78044425,78.3567502 L0,75.086152 L15.4126663,36.3068367 L27.3517942,45.8586313 C27.7770933,46.0189732 28.3213668,46.2193151 28.9823924,46.4495715 L22.2842729,35.2651273 L57.9179473,35.2651273 L57.9179473,31.6225633 L63.8275198,31.6225633 L57.527349,21.6700849 L80.8080322,0.170272432 L143.671791,0.170272432 L166.953842,21.6700849 L160.635722,31.6473496 L160.635722,49.2041013 C165.99897,47.7664945 169.601363,46.5010245 171.304269,45.8586313 L171.304269,45.8586313 Z" id="path14" fill="#FBC01D"></path>
                        <polyline id="path16" fill="#FBC01D" points="85.282391 103.04957 85.2952115 98.0916215 103.487519 117.806493 103.487519 117.761023 106.499143 126.041022 85.282391 103.04957"></polyline>
                        <path d="M119.332988,54.4924773 L121.441023,50.973503 L104.620681,50.973503 L99.0083736,47.8618791 L98.9803394,47.813845 L126.681364,47.813845 L122.452647,55.3271781 L122.451279,58.8875199 C121.426322,58.9697421 120.38598,59.044443 119.332988,59.1165797 L119.332988,54.4924773" id="path18" fill="#FBC01D"></path>
                        <path d="M66.9191436,57.9781182 C65.9588018,57.8646139 65.0107676,57.7497421 64.081195,57.6309387 L64.0798275,54.6627337 L66.1798274,51.1552124 L49.4276911,51.1552124 L43.8020502,47.8384603 L43.7866656,47.813845 L71.4203401,47.813845 L66.9157248,55.8092294 L66.9191436,57.9781182" id="path20" fill="#FBC01D"></path>
                        <polyline id="path22" fill="#FBC01D" points="85.0326474 118.699997 85.0326474 122.582048 85.0293996 122.578117 72.1287161 136.195894 70.7945281 133.545638 85.0326474 118.699997"></polyline>
                        <polyline id="path24" fill="#FBC01D" points="49.4338449 133.579655 43.9876912 136.248031 43.9870074 136.248031 48.4355543 128.821364 51.5357252 130.069398 49.4338449 133.579655"></polyline>
                        <path d="M129.746322,88.3746986 C130.87145,88.2639294 131.983245,88.1470063 133.081535,88.0261516 L131.499142,93.4923054 L126.986493,95.7145275 L126.936407,95.7145275 L129.746322,88.4461516 L129.746322,88.3746986" id="path26" fill="#FBC01D"></path>
                        <path d="M94.6841002,29.3837599 L98.5543565,26.481025 L100.043416,28.9830762 L97.218801,31.332136 L95.5548694,34.6206829 L95.5709378,59.7309387 C94.5393139,59.7229045 93.5155532,59.7075199 92.5039293,59.6875199 L92.5073481,33.7859821 L94.6841002,29.3837599" id="path28" fill="#FBC01D"></path>
                        <path d="M64.0945283,87.8639294 C65.0374343,87.9735021 65.9948701,88.0776046 66.9591436,88.1798269 L66.9984599,117.776407 L64.1105967,125.666322 L64.0945283,87.8639294" id="path30" fill="#FBC01D"></path>
                        <path d="M119.332988,130.069398 L119.332988,89.2273482 C120.377946,89.1599978 121.410937,89.0858097 122.435894,89.0090576 L122.417946,128.792134 L126.789569,136.087005 L121.430937,133.572304 L119.332988,130.069398" id="path32" fill="#FBC01D"></path>
                        <path d="M145.162219,89.3596559 L145.162219,86.4369209 C146.210595,86.27675 147.242219,86.1131602 148.255894,85.9461517 L148.255894,88.2591431 L151.649227,95.7145275 L151.627859,95.7145275 L146.847005,93.0622199 L145.162219,89.3596559" id="path34" fill="#FBC01D"></path>
                        <path d="M148.255894,55.4507678 C147.252304,55.6444431 146.22068,55.8326482 145.162219,56.0196567 L145.162219,27.1822215 L147.007176,24.2688883 L137.565467,15.5482047 L86.8249551,15.5482047 L77.383075,24.2688883 L73.4341862,23.6598285 L73.403417,23.609743 L85.6189722,12.3283929 L138.78068,12.3283929 L150.996919,23.609743 L148.255894,27.938119 L148.255894,55.4507678" id="path36" fill="#FBC01D"></path>
                        <path d="M72.7651264,95.7145275 L72.7511093,95.7145275 L75.8140152,88.9823909 C76.8890579,89.0644422 77.9740151,89.1418781 79.0711091,89.2128183 L77.5413656,92.5741857 L72.7651264,95.7145275" id="path38" fill="#FBC01D"></path>
                        <path d="M98.6646129,95.7145275 L94.6507669,93.538972 L92.9080319,89.8063225 C93.990425,89.8297413 95.0808523,89.8470063 96.1811942,89.8591431 L98.6664933,95.7145275 L98.6646129,95.7145275" id="path40" fill="#FBC01D"></path>
                        <path d="M155.268372,63.5003403 L152.816577,64.0223916 L154.657432,72.6883743 L149.812988,73.7172631 L150.213671,75.5976049 L156.816235,74.1940152 L162.373158,73.0121349 L161.974526,71.1324769 L157.110082,72.1654683 L156.816235,70.7799982 L155.268372,63.5003403 Z M166.853671,71.7615367 L177.459825,68.7199983 L176.952132,66.9538445 L168.756748,69.3029043 L168.095551,66.9938445 L172.875209,65.6235881 L172.367517,63.855554 L167.588201,65.2263232 L166.850252,62.655554 L175.147004,60.2764087 L174.58803,58.3287165 L163.882218,61.3982891 L166.853671,71.7615367 Z M147.05521,74.2500836 L145.162219,74.5492289 L142.142731,75.0266648 L140.757261,66.278118 L138.281193,66.6700838 L139.666834,75.4193144 L134.775723,76.194528 L135.076065,78.0929895 L145.162219,76.4964083 L147.355723,76.1478613 L147.05521,74.2500836 Z M130.418629,76.6680323 L129.756236,76.737434 L122.442561,77.5066647 L121.94051,77.5594852 L121.690082,75.1695708 L122.442561,75.0900836 L126.635894,74.6493998 L126.44239,72.8211948 L122.444612,73.2418785 L121.497775,73.3406819 L121.217262,70.6817076 L122.444612,70.5516222 L129.762903,69.783588 L129.799655,69.7782889 L129.762903,69.4210239 L129.587347,67.763759 L122.44598,68.515041 L119.332988,68.8422205 L118.512988,68.9270068 L119.332988,76.7360665 L119.640168,79.6500835 L122.441194,79.3555536 L129.754356,78.5870066 L130.610937,78.4969211 L130.418629,76.6680323 Z M112.037946,71.5545281 C111.96786,69.5299128 111.301365,69.0304256 109.27692,69.1005111 L103.454185,69.3042718 L102.469228,69.3396564 C100.443416,69.4097419 99.8136727,69.9538444 99.8858095,71.980511 L100.172989,80.2070065 L102.677604,80.1194852 L102.372476,71.3709384 L103.455553,71.3328187 L109.513843,71.120511 L109.818972,79.8697416 L112.325125,79.782904 L112.037946,71.5545281 Z M92.5034165,69.6401692 C92.1188011,69.4731607 91.6092285,69.3897419 90.9482029,69.3543572 L89.7796559,69.2928188 L91.2813652,66.5899129 L88.7981174,66.4582889 L87.4425619,69.1705966 L83.0194851,68.9389726 C80.9955535,68.832135 80.3211946,69.320853 80.2150407,71.3441008 L79.9179467,77.0198271 C79.8116219,79.0430749 80.43128,79.5993142 82.4545279,79.7054681 L90.3839294,80.1208527 C91.393502,80.1736732 92.0673481,80.0788014 92.5013652,79.7194852 C92.9386302,79.3582886 93.1350404,78.7292288 93.1883737,77.7157246 L93.4856387,72.040682 C93.5564079,70.6770923 93.2965789,69.9820495 92.5034165,69.6401692 L92.5034165,69.6401692 Z M71.2466649,67.9974342 L66.9364086,71.1458102 L66.4362377,71.5111093 L64.0864941,71.2225623 L64.072477,71.220682 L64.0864941,71.1023914 L64.5692292,67.1760667 L64.0851266,67.1174342 L62.1220497,66.8757248 L60.8085455,77.577434 L64.0905967,77.980169 L66.9458103,78.3305963 L69.9746991,78.7025621 C71.6133315,78.9042715 72.4512802,78.4174339 72.63487,76.9244425 L72.9427332,74.4150409 C73.126323,72.9220495 72.4305965,72.2475196 70.791964,72.0452973 L69.3823914,71.8716221 L74.8136733,68.4348701 L71.2466649,67.9974342 Z M54.8444431,65.9374342 L53.1217081,68.0075197 L48.4381184,67.0974342 L46.4148706,66.7034171 L45.6350416,64.1459813 L43.1743579,63.6685454 L47.105298,75.4160665 L48.4401697,75.6757246 L49.485127,75.8781178 L57.6128191,66.4750411 L54.8444431,65.9374342 Z M36.6505974,62.1394856 L34.9252983,68.5784598 C34.8711102,68.7799983 34.7943581,69.149229 34.7082043,69.7102547 C34.6107684,69.1859812 34.5119649,68.7487162 34.3950419,68.4581179 L31.8743582,62.2015369 L31.3902556,62.0712805 L26.0743583,66.2494001 C25.7451276,66.5083744 25.4312814,66.7902547 25.1622216,67.1514513 C25.3165806,66.7388018 25.4287173,66.4015368 25.5201703,66.0577761 L27.2456403,59.6206823 L25.2871789,59.0945284 L22.4972644,69.5099128 L24.4552131,70.0340153 L31.046324,65.0507676 L34.1627342,72.63487 L36.0998282,73.1536734 L38.8909392,62.7403403 L36.6505974,62.1394856 Z M175.670081,53.3887166 L179.540166,50.2924774 L187.540166,70.4213658 C187.540166,70.4213658 176.494013,75.0581178 156.816235,79.0297416 C154.121876,79.5740151 151.267347,80.1047843 148.255894,80.6109382 C147.242219,80.7805108 146.210595,80.9475193 145.162219,81.1117928 C140.377945,81.8576048 135.236407,82.5333313 129.750937,83.0876902 C127.377091,83.3259808 124.936578,83.5417073 122.439313,83.7319637 C121.412988,83.8093996 120.379313,83.8835876 119.332988,83.9523056 C114.279484,84.2842714 108.984442,84.5039295 103.464271,84.5820492 C102.090083,84.6013654 100.706493,84.6146987 99.304271,84.6160663 C98.0521343,84.6146987 96.8148694,84.6034167 95.5856386,84.5880321 C94.5499122,84.5746987 93.5217071,84.5565791 92.5013652,84.533844 C86.7921346,84.4044423 81.3348698,84.1246133 76.1437588,83.7292287 C72.9801691,83.4888868 69.9138444,83.2058099 66.952477,82.8873484 C65.9875197,82.7837586 65.0340155,82.6755535 64.0919642,82.5647843 C58.4728191,81.9044424 53.2485457,81.1230749 48.442221,80.2805108 C45.4546997,79.7562373 42.6302553,79.208716 39.9733323,78.6517929 C21.4610251,74.768887 11.1157775,70.4213658 11.1157775,70.4213658 L19.115897,50.2924774 L22.986837,53.3887166 C22.986837,53.3887166 28.8776061,55.896067 39.9733323,58.5803404 C42.522734,59.1981182 45.345298,59.8244429 48.4367509,60.4319643 C53.0635884,61.3401694 58.2885456,62.2061523 64.08393,62.9360668 C65.0174343,63.0541865 65.9622206,63.169742 66.9258103,63.2799984 C69.8623914,63.6150411 72.9367503,63.9141864 76.1437588,64.1646138 C81.2620493,64.5652975 86.7201688,64.8437591 92.5034165,64.9526479 C93.516237,64.9726479 94.5411942,64.9859813 95.5729891,64.9940155 C96.8116215,65.00393 98.0608522,65.0094001 99.3282026,65.00393 C100.72051,65.0094001 102.093331,65.00393 103.450938,64.9905967 C109.043074,64.9372633 114.339655,64.7235881 119.332988,64.3929898 C120.384612,64.3229044 121.42427,64.2494001 122.44786,64.1694001 C124.971963,63.9723061 127.410595,63.7452976 129.767689,63.4948702 C135.383244,62.8972634 140.521535,62.1627335 145.162219,61.3635882 C146.219313,61.1811951 147.250936,60.9962378 148.255894,60.8073489 C151.360851,60.2263233 154.216748,59.6241011 156.816235,59.0230754 C169.119312,56.1786311 175.670081,53.3887166 175.670081,53.3887166 L175.670081,53.3887166 Z" id="path42" fill="#FBC01D"></path>
                        <path d="M70.4641008,74.7215366 L70.3058102,76.0070066 C70.2189726,76.7121348 69.8483743,76.8128186 69.0818786,76.7194853 L66.9430752,76.4569212 L64.0892292,76.1064938 L63.4815369,76.031622 L63.8482035,73.0454683 L64.0878616,73.0755537 L66.9391436,73.4254682 L69.4478615,73.7333315 C70.215041,73.8275195 70.5495709,74.0150409 70.4641008,74.7215366" id="path44" fill="#FBC01D"></path>
                        <polyline id="path46" fill="#FBC01D" points="48.4401697 73.0401691 47.0905971 68.8153829 48.4381184 69.0758957 51.7254688 69.7155538 48.6124774 73.58034 48.4401697 73.0401691"></polyline>
                        <polyline id="path48" fill="#FBC01D" points="82.3885449 77.7770921 82.7463227 70.9535025 86.439656 71.1471777 85.3158953 73.4321349 87.0926474 74.257434 88.7140149 71.2659811 91.0088866 71.3861521 90.6517926 78.2104254 82.3885449 77.7770921"></polyline>
                        <polyline id="path50" fill="#1D2953" points="59.2721353 36.3447854 60.0427335 36.3447854 60.0427335 33.5470077 60.9748703 33.5470077 60.9748703 36.3447854 61.7454685 36.3447854 61.7454685 37.1346999 59.2721353 37.1346999 59.2721353 36.3447854"></polyline>
                        <polyline id="path52" fill="#1D2953" points="64.2994856 33.5470077 65.1603403 35.6123068 65.1702548 35.6123068 65.4312804 33.5470077 66.3641009 33.5470077 65.8213659 37.1346999 64.8938445 37.1346999 64.1232463 35.2164094 63.395383 37.1346999 62.4786309 37.1346999 61.8690583 33.5470077 62.7964087 33.5470077 63.0962377 35.6123068 63.1063232 35.6123068 63.9282035 33.5470077 64.2994856 33.5470077"></polyline>
                        <path d="M148.255894,60.8073489 C147.250936,60.9962378 146.219313,61.1811951 145.162219,61.3635882 C140.521535,62.1627335 135.383244,62.8972634 129.767689,63.4948702 C127.410595,63.7452976 124.971963,63.9723061 122.44786,64.1694001 C121.42427,64.2494001 120.384612,64.3229044 119.332988,64.3929898 C114.339655,64.7235881 109.043074,64.9372633 103.450938,64.9905967 C102.093331,65.00393 100.72051,65.0094001 99.3282026,65.00393 C98.0608522,65.0094001 96.8116215,65.00393 95.5729891,64.9940155 C94.5411942,64.9859813 93.516237,64.9726479 92.5034165,64.9526479 C86.7201688,64.8437591 81.2620493,64.5652975 76.1437588,64.1646138 C72.9367503,63.9141864 69.8623914,63.6150411 66.9258103,63.2799984 C65.9622206,63.169742 65.0174343,63.0541865 64.08393,62.9360668 C58.2885456,62.2061523 53.0635884,61.3401694 48.4367509,60.4319643 C45.345298,59.8244429 42.522734,59.1981182 39.9733323,58.5803404 C28.8776061,55.896067 22.986837,53.3887166 22.986837,53.3887166 L19.115897,50.2924774 L11.1157775,70.4213658 C11.1157775,70.4213658 21.4610251,74.768887 39.9733323,78.6517929 C42.6302553,79.208716 45.4546997,79.7562373 48.442221,80.2805108 C53.2485457,81.1230749 58.4728191,81.9044424 64.0919642,82.5647843 C65.0340155,82.6755535 65.9875197,82.7837586 66.952477,82.8873484 C69.9138444,83.2058099 72.9801691,83.4888868 76.1437588,83.7292287 C81.3348698,84.1246133 86.7921346,84.4044423 92.5013652,84.533844 C93.5217071,84.5565791 94.5499122,84.5746987 95.5856386,84.5880321 C96.8148694,84.6034167 98.0521343,84.6146987 99.304271,84.6160663 C100.706493,84.6146987 102.090083,84.6013654 103.464271,84.5820492 C108.984442,84.5039295 114.279484,84.2842714 119.332988,83.9523056 C120.379313,83.8835876 121.412988,83.8093996 122.439313,83.7319637 C124.936578,83.5417073 127.377091,83.3259808 129.750937,83.0876902 C135.236407,82.5333313 140.377945,81.8576048 145.162219,81.1117928 C146.210595,80.9475193 147.242219,80.7805108 148.255894,80.6109382 C151.267347,80.1047843 154.121876,79.5740151 156.816235,79.0297416 C176.494013,75.0581178 187.540166,70.4213658 187.540166,70.4213658 L179.540166,50.2924774 L175.670081,53.3887166 C175.670081,53.3887166 169.119312,56.1786311 156.816235,59.0230754 C154.216748,59.6241011 151.360851,60.2263233 148.255894,60.8073489 L148.255894,60.8073489 Z M122.452647,55.3271781 L126.681364,47.813845 L98.9803394,47.813845 L99.0083736,47.8618791 L103.445467,55.2683747 L103.447519,59.7275199 C109.046493,59.672819 114.344954,59.4538447 119.332988,59.1165797 C120.38598,59.044443 121.426322,58.9697421 122.451279,58.8875199 L122.452647,55.3271781 Z M138.78068,12.3283929 L85.6189722,12.3283929 L73.403417,23.609743 L73.4341862,23.6598285 L76.1437588,27.938119 L76.1437588,58.8829045 C81.2546988,59.2902549 86.7114508,59.5753831 92.5039293,59.6875199 C93.5155532,59.7075199 94.5393139,59.7229045 95.5709378,59.7309387 L95.5548694,34.6206829 L97.218801,31.332136 L100.043416,28.9830762 L100.113502,28.9249565 L125.330595,28.9249565 L128.225125,31.332136 L129.792988,34.2280333 L129.772988,58.1984601 C135.406663,57.5875199 140.546834,56.8341866 145.162219,56.0196567 C146.22068,55.8326482 147.252304,55.6444431 148.255894,55.4507678 L148.255894,27.938119 L150.996919,23.609743 L138.78068,12.3283929 Z M43.7866656,47.813845 L43.8020502,47.8384603 L47.9447851,54.964614 C52.6576055,55.9282037 58.0482037,56.8543576 64.081195,57.6309387 C65.0107676,57.7497421 65.9588018,57.8646139 66.9191436,57.9781182 L66.9157248,55.8092294 L71.4203401,47.813845 L43.7866656,47.813845 Z M92.9080319,89.8063225 C88.122391,89.7061516 83.5063227,89.5025619 79.0711091,89.2128183 C77.9740151,89.1418781 76.8890579,89.0644422 75.8140152,88.9823909 L72.7511093,95.7145275 L72.7651264,95.7145275 L98.6646129,95.7145275 L98.6664933,95.7145275 L96.1811942,89.8591431 C95.0808523,89.8470063 93.990425,89.8297413 92.9080319,89.8063225 L92.9080319,89.8063225 Z M48.4355543,128.821364 L43.9870074,136.248031 L43.9870074,136.248031 L72.1220495,136.202561 L72.1287161,136.195894 L85.0293996,122.578117 L85.0326474,122.582048 L97.2810232,136.156578 L126.806151,136.116407 L126.789569,136.087005 L122.417946,128.792134 L122.435894,89.0090576 C121.410937,89.0858097 120.377946,89.1599978 119.332988,89.2273482 C114.274869,89.5533311 108.979655,89.7688866 103.467519,89.8458097 L103.487519,117.761023 L103.487519,117.806493 L85.2952115,98.0916215 L85.2885449,98.0842711 L66.9984599,117.811792 L66.9984599,117.776407 L66.9591436,88.1798269 C65.9948701,88.0776046 65.0374343,87.9735021 64.0945283,87.8639294 C58.4936738,87.2182884 53.2685457,86.4529893 48.4429048,85.6230748 L48.4528193,128.792134 L48.4355543,128.821364 Z M126.986493,95.7145275 L151.649227,95.7145275 L148.255894,88.2591431 L148.255894,85.9461517 C147.242219,86.1131602 146.210595,86.27675 145.162219,86.4369209 C141.351449,87.0211944 137.319655,87.5581175 133.081535,88.0261516 C131.983245,88.1470063 130.87145,88.2639294 129.746322,88.3746986 L129.746322,88.4461516 L126.936407,95.7145275 L126.986493,95.7145275 Z M172.98632,48.7946996 L181.806833,41.7401699 L194.340166,73.2765794 L189.577773,75.2750409 C189.323072,75.3818785 177.550423,80.2977758 156.816235,84.3970919 L156.816235,86.4203397 L164.466492,103.755382 L130.896065,103.755382 L130.896065,125.597604 L141.870253,143.924954 L93.5008524,143.775381 L84.8777757,134.218116 L75.7752118,143.82615 L29.0117941,143.902219 L39.9733323,125.597604 L39.9733323,84.0271774 C20.3947003,80.0080322 9.32358951,75.3786306 9.07586302,75.2738443 L4.31823921,73.2738443 L16.8516235,41.7401699 L25.6697429,48.7946996 C27.1394865,49.3676911 30.9776061,50.7712808 36.9924777,52.3892295 L29.026495,39.085811 L67.6642718,39.085811 L67.6642718,30.3972642 L62.4593147,22.1741875 L82.3030749,3.84948708 L142.177432,3.84948708 L162.021193,22.1741875 L156.816235,30.3972642 L156.816235,53.6177764 C165.643757,51.5143577 171.153842,49.507862 172.98632,48.7946996 L172.98632,48.7946996 Z" id="path54" fill="#1D2953"></path>
                        <path d="M34.1627342,72.63487 L31.046324,65.0507676 L24.4552131,70.0340153 L22.4972644,69.5099128 L25.2871789,59.0945284 L27.2456403,59.6206823 L25.5201703,66.0577761 C25.4287173,66.4015368 25.3165806,66.7388018 25.1622216,67.1514513 C25.4312814,66.7902547 25.7451276,66.5083744 26.0743583,66.2494001 L31.3902556,62.0712805 L31.8743582,62.2015369 L34.3950419,68.4581179 C34.5119649,68.7487162 34.6107684,69.1859812 34.7082043,69.7102547 C34.7943581,69.149229 34.8711102,68.7799983 34.9252983,68.5784598 L36.6505974,62.1394856 L38.8909392,62.7403403 L36.0998282,73.1536734 L34.1627342,72.63487" id="path56" fill="#1D2953"></path>
                        <path d="M48.4381184,69.0758957 L47.0905971,68.8153829 L48.4401697,73.0401691 L48.6124774,73.58034 L51.7254688,69.7155538 L48.4381184,69.0758957 Z M48.4401697,75.6757246 L47.105298,75.4160665 L43.1743579,63.6685454 L45.6350416,64.1459813 L46.4148706,66.7034171 L48.4381184,67.0974342 L53.1217081,68.0075197 L54.8444431,65.9374342 L57.6128191,66.4750411 L49.485127,75.8781178 L48.4401697,75.6757246 L48.4401697,75.6757246 Z" id="path58" fill="#1D2953"></path>
                        <path d="M64.0878616,73.0755537 L63.8482035,73.0454683 L63.4815369,76.031622 L64.0892292,76.1064938 L66.9430752,76.4569212 L69.0818786,76.7194853 C69.8483743,76.8128186 70.2189726,76.7121348 70.3058102,76.0070066 L70.4641008,74.7215366 C70.5495709,74.0150409 70.215041,73.8275195 69.4478615,73.7333315 L66.9391436,73.4254682 L64.0878616,73.0755537 Z M70.791964,72.0452973 C72.4305965,72.2475196 73.126323,72.9220495 72.9427332,74.4150409 L72.63487,76.9244425 C72.4512802,78.4174339 71.6133315,78.9042715 69.9746991,78.7025621 L66.9458103,78.3305963 L64.0905967,77.980169 L60.8085455,77.577434 L62.1220497,66.8757248 L64.0851266,67.1174342 L64.5692292,67.1760667 L64.0864941,71.1023914 L64.072477,71.220682 L64.0864941,71.2225623 L66.4362377,71.5111093 L66.9364086,71.1458102 L71.2466649,67.9974342 L74.8136733,68.4348701 L69.3823914,71.8716221 L70.791964,72.0452973 L70.791964,72.0452973 Z" id="path60" fill="#1D2953"></path>
                        <path d="M88.7140149,71.2659811 L87.0926474,74.257434 L85.3158953,73.4321349 L86.439656,71.1471777 L82.7463227,70.9535025 L82.3885449,77.7770921 L90.6517926,78.2104254 L91.0088866,71.3861521 L88.7140149,71.2659811 Z M93.1883737,77.7157246 C93.1350404,78.7292288 92.9386302,79.3582886 92.5013652,79.7194852 C92.0673481,80.0788014 91.393502,80.1736732 90.3839294,80.1208527 L82.4545279,79.7054681 C80.43128,79.5993142 79.8116219,79.0430749 79.9179467,77.0198271 L80.2150407,71.3441008 C80.3211946,69.320853 80.9955535,68.832135 83.0194851,68.9389726 L87.4425619,69.1705966 L88.7981174,66.4582889 L91.2813652,66.5899129 L89.7796559,69.2928188 L90.9482029,69.3543572 C91.6092285,69.3897419 92.1188011,69.4731607 92.5034165,69.6401692 C93.2965789,69.9820495 93.5564079,70.6770923 93.4856387,72.040682 L93.1883737,77.7157246 L93.1883737,77.7157246 Z" id="path62" fill="#1D2953"></path>
                        <path d="M109.513843,71.120511 L103.455553,71.3328187 L102.372476,71.3709384 L102.677604,80.1194852 L100.172989,80.2070065 L99.8858095,71.980511 C99.8136727,69.9538444 100.443416,69.4097419 102.469228,69.3396564 L103.454185,69.3042718 L109.27692,69.1005111 C111.301365,69.0304256 111.96786,69.5299128 112.037946,71.5545281 L112.325125,79.782904 L109.818972,79.8697416 L109.513843,71.120511" id="path64" fill="#1D2953"></path>
                        <polyline id="path66" fill="#1D2953" points="122.441194 79.3555536 119.640168 79.6500835 119.332988 76.7360665 118.512988 68.9270068 119.332988 68.8422205 122.44598 68.515041 129.587347 67.763759 129.762903 69.4210239 129.799655 69.7782889 129.762903 69.783588 122.444612 70.5516222 121.217262 70.6817076 121.497775 73.3406819 122.444612 73.2418785 126.44239 72.8211948 126.635894 74.6493998 122.442561 75.0900836 121.690082 75.1695708 121.94051 77.5594852 122.442561 77.5066647 129.756236 76.737434 130.418629 76.6680323 130.610937 78.4969211 129.754356 78.5870066 122.441194 79.3555536"></polyline>
                        <polyline id="path68" fill="#1D2953" points="135.076065 78.0929895 134.775723 76.194528 139.666834 75.4193144 138.281193 66.6700838 140.757261 66.278118 142.142731 75.0266648 145.162219 74.5492289 147.05521 74.2500836 147.355723 76.1478613 145.162219 76.4964083 135.076065 78.0929895"></polyline>
                        <polyline id="path70" fill="#1D2953" points="157.110082 72.1654683 161.974526 71.1324769 162.373158 73.0121349 156.816235 74.1940152 150.213671 75.5976049 149.812988 73.7172631 154.657432 72.6883743 152.816577 64.0223916 155.268372 63.5003403 156.816235 70.7799982 157.110082 72.1654683"></polyline>
                        <polyline id="path72" fill="#1D2953" points="175.147004 60.2764087 166.850252 62.655554 167.588201 65.2263232 172.367517 63.855554 172.875209 65.6235881 168.095551 66.9938445 168.756748 69.3029043 176.952132 66.9538445 177.459825 68.7199983 166.853671 71.7615367 163.882218 61.3982891 174.58803 58.3287165 175.147004 60.2764087"></polyline>
                        <path d="M121.441023,50.973503 L119.332988,54.4924773 L119.332988,59.1165797 C114.344954,59.4538447 109.046493,59.672819 103.447519,59.7275199 L103.445467,55.2683747 L99.0083736,47.8618791 L104.620681,50.973503 L121.441023,50.973503" id="path74" fill="#FFFFFF"></path>
                        <path d="M64.0945283,87.8639294 L64.1105967,125.666322 L66.9984599,117.776407 L66.9984599,117.811792 L85.2885449,98.0842711 L85.2952115,98.0916215 L85.282391,103.04957 L106.499143,126.041022 L103.487519,117.761023 L103.467519,89.8458097 C108.979655,89.7688866 114.274869,89.5533311 119.332988,89.2273482 L119.332988,130.069398 L121.430937,133.572304 L126.789569,136.087005 L126.806151,136.116407 L97.2810232,136.156578 L85.0326474,122.582048 L85.0326474,118.699997 L70.7945281,133.545638 L72.1287161,136.195894 L72.1220495,136.202561 L43.9876912,136.248031 L49.4338449,133.579655 L51.5357252,130.069398 L48.4355543,128.821364 L48.4528193,128.792134 L48.4429048,85.6230748 C53.2685457,86.4529893 58.4936738,87.2182884 64.0945283,87.8639294" id="path76" fill="#FFFFFF"></path>
                        <path d="M66.1798274,51.1552124 L64.0798275,54.6627337 L64.081195,57.6309387 C58.0482037,56.8543576 52.6576055,55.9282037 47.9447851,54.964614 L43.8020502,47.8384603 L49.4276911,51.1552124 L66.1798274,51.1552124" id="path78" fill="#FFFFFF"></path>
                        <path d="M86.8249551,15.5482047 L137.565467,15.5482047 L147.007176,24.2688883 L145.162219,27.1822215 L145.162219,56.0196567 C140.546834,56.8341866 135.406663,57.5875199 129.772988,58.1984601 L129.792988,34.2280333 L128.225125,31.332136 L125.330595,28.9249565 L100.113502,28.9249565 L100.043416,28.9830762 L98.5543565,26.481025 L94.6841002,29.3837599 L92.5073481,33.7859821 L92.5039293,59.6875199 C86.7114508,59.5753831 81.2546988,59.2902549 76.1437588,58.8829045 L76.1437588,27.938119 L73.4341862,23.6598285 L77.383075,24.2688883 L86.8249551,15.5482047" id="path80" fill="#FFFFFF"></path>
                        <path d="M133.081535,88.0261516 C137.319655,87.5581175 141.351449,87.0211944 145.162219,86.4369209 L145.162219,89.3596559 L146.847005,93.0622199 L151.627859,95.7145275 L126.986493,95.7145275 L131.499142,93.4923054 L133.081535,88.0261516" id="path82" fill="#FFFFFF"></path>
                        <path d="M98.6646129,95.7145275 L72.7651264,95.7145275 L77.5413656,92.5741857 L79.0711091,89.2128183 C83.5063227,89.5025619 88.122391,89.7061516 92.9080319,89.8063225 L94.6507669,93.538972 L98.6646129,95.7145275" id="path84" fill="#FFFFFF"></path>
                    </g>
                </g>
            </g>
        </g>
    </g>
</svg>