<?xml version="1.0" encoding="UTF-8"?>
<svg width="200px" height="200px" viewBox="0 0 200 200" version="1.1" xmlns="http://www.w3.org/2000/svg" xmlns:xlink="http://www.w3.org/1999/xlink">
    <!-- Generator: Sketch 54.1 (76490) - https://sketchapp.com -->
    <title>maryland</title>
    <desc>Created with Sketch.</desc>
    <g id="maryland" stroke="none" stroke-width="1" fill="none" fill-rule="evenodd">
        <g id="maryland_BGL" transform="translate(0.000000, -0.000000)">
            <g id="maryland" transform="translate(9.000000, 0.000000)">
                <g id="g10" transform="translate(91.559748, 99.921497) scale(-1, 1) rotate(-180.000000) translate(-91.559748, -99.921497) translate(0.119496, 0.439631)" fill-rule="nonzero">
                    <g id="g12">
                        <polyline id="path16" fill="#231F20" points="181.292733 26.9663988 125.098228 26.9663988 125.098228 92.2962762 102.560127 41.6202687 80.5447218 41.6202687 57.9889092 92.3143324 57.9889092 26.9663988 2.57451189 26.9663988 17.0597936 58.6669004 17.0686889 163.550003 3.77104408 198.88679 55.9585042 198.88679 91.5276278 116.883338 127.123673 198.88679 179.091743 198.88679 166.025926 163.735276 166.025926 58.7070951 181.292733 26.9663988"></polyline>
                        <polyline id="path18" fill="#FCD213" points="174.90388 30.9772324 129.118419 30.9772324 129.118419 111.231744 99.9450744 45.6310238 83.1582 45.6310238 53.967144 111.24352 53.967144 30.9772324 8.8271798 30.9772324 21.0815587 57.7947855 21.0901391 164.278532 9.57721656 194.875957 53.3167658 194.875957 91.5260535 106.784422 129.763129 194.875957 173.309816 194.875957 162.002587 164.455169 162.002587 57.7947855 174.90388 30.9772324"></polyline>
                        <polyline id="path20" fill="#E51635" points="170.25551 33.8963719 159.076593 57.1320441 159.076593 164.978014 169.106997 191.958701 131.68624 191.958701 91.5260535 99.4378995 51.3949147 191.958701 13.7987711 191.958701 24.0169198 164.806873 24.0077097 57.1621116 13.3744745 33.8963719 51.0409931 33.8963719 51.0409931 125.011772 85.0608437 48.5483577 98.0400692 48.5483577 132.044412 125.002352 132.044412 33.8963719 170.25551 33.8963719"></polyline>
                        <polyline id="path22" fill="#231F20" points="141.918951 14.0737943 132.142811 14.0737943 140.213106 8.87187888 140.213106 3.58996663 150.129366 3.58996663 141.918951 9.07921127 141.918951 14.0737943"></polyline>
                        <polyline id="path24" fill="#231F20" points="162.078157 10.7088234 170.450734 5.20576185 170.450734 3.58996663 174.730698 3.58996663 172.161303 5.30695512 172.161303 14.0737943 160.396715 14.0737943 160.396715 13.143978 158.970322 14.0737943 150.289954 14.0737943 150.289954 3.58996663 162.078157 3.58996663 162.078157 10.7088234"></polyline>
                        <polyline id="path26" fill="#231F20" points="121.688111 14.0737943 121.688111 3.58996663 131.838955 3.58996663 131.838955 14.0737943 121.688111 14.0737943"></polyline>
                        <polyline id="path28" fill="#FCD213" points="132.142811 14.0737943 131.838955 14.0737943 131.838955 3.58996663 140.213106 3.58996663 140.213106 8.87187888 132.142811 14.0737943"></polyline>
                        <polyline id="path30" fill="#FCD213" points="141.918951 14.0737943 141.918951 9.07921127 150.129366 3.58996663 150.289954 3.58996663 150.289954 14.0737943 141.918951 14.0737943"></polyline>
                        <polygon id="path32" fill="#FCD213" points="160.396715 14.0737943 158.970322 14.0737943 160.396715 13.143978"></polygon>
                        <polyline id="path34" fill="#FCD213" points="162.078157 10.7088234 162.078157 3.58996663 170.450734 3.58996663 170.450734 5.20576185 162.078157 10.7088234"></polyline>
                        <polyline id="path36" fill="#FCD213" points="174.730698 3.58996663 177.73856 3.58996663 174.078903 8.92220075 177.703923 14.0737943 172.161303 14.0737943 172.161303 5.30695512 174.730698 3.58996663"></polyline>
                        <path d="M62.6772687,8.87344899 C62.6849831,10.62812 65.2645334,12.0756 68.8305142,12.2892913 C68.96906,12.9391578 69.169794,13.538938 69.4201212,14.0737943 L62.2695818,14.0737943 L62.2621822,8.87344899 L62.6772687,8.87344899" id="path38" fill="#FFFFFF"></path>
                        <path d="M87.4302923,12.8333327 L87.4302923,14.0737943 L75.6570452,14.0737943 C75.8349507,13.6898251 75.9963251,13.2807342 76.1214886,12.8333327 L87.4302923,12.8333327" id="path40" fill="#FFFFFF"></path>
                        <path d="M121.195329,8.87344899 C121.195329,8.87187888 121.195329,8.87187888 121.195329,8.86332181 C121.195329,7.10244888 118.6157,5.65960074 115.043421,5.44033556 C114.894642,4.75985198 114.682887,4.13950343 114.418391,3.58996663 L121.688111,3.58996663 L121.688111,8.87344899 L121.195329,8.87344899" id="path42" fill="#FFFFFF"></path>
                        <path d="M96.3129694,4.89323241 L96.3129694,3.58996663 L108.246016,3.58996663 C108.053942,3.99136401 107.883121,4.42377097 107.752447,4.89323241 L96.3129694,4.89323241" id="path44" fill="#FFFFFF"></path>
                        <path d="M76.1214886,4.89323241 C75.9900275,4.42377097 75.8176324,3.99136401 75.6271319,3.58996663 L87.4302923,3.58996663 L87.4302923,4.89323241 L76.1214886,4.89323241" id="path46" fill="#E51635"></path>
                        <path d="M62.675773,8.86332181 C62.675773,8.87187888 62.6772687,8.87187888 62.6772687,8.87344899 L62.2621822,8.87344899 L62.2560421,3.58996663 L69.452396,3.58996663 C69.1878995,4.13950343 68.9761447,4.75985198 68.8305142,5.44033556 C65.2583933,5.65960074 62.675773,7.10244888 62.675773,8.86332181" id="path48" fill="#E51635"></path>
                        <path d="M121.195329,8.87344899 L121.688111,8.87344899 L121.688111,14.0737943 L114.45224,14.0737943 C114.70178,13.538938 114.90094,12.9391578 115.043421,12.2892913 C118.608615,12.0756 121.183521,10.6232527 121.195329,8.87344899" id="path50" fill="#E51635"></path>
                        <path d="M107.752447,12.8333327 C107.875249,13.2807342 108.035836,13.6898251 108.21689,14.0737943 L96.3129694,14.0737943 L96.3129694,12.8333327 L107.752447,12.8333327" id="path52" fill="#E51635"></path>
                        <path d="M62.6772687,8.87344899 C62.6772687,8.87187888 62.675773,8.87187888 62.675773,8.86332181 C62.675773,7.10244888 65.2583933,5.65960074 68.8305142,5.44033556 C68.9761447,4.75985198 69.1878995,4.13950343 69.452396,3.58996663 L75.6271319,3.58996663 C75.8176324,3.99136401 75.9900275,4.42377097 76.1214886,4.89323241 L87.4302923,4.89323241 L87.4302923,3.58996663 L91.8747796,3.58996663 L91.8747796,8.87344899 L62.6772687,8.87344899" id="path54" fill="#FFFFFF"></path>
                        <path d="M121.195329,8.86332181 C121.195329,8.87187888 121.195329,8.87187888 121.195329,8.87344899 L91.8747796,8.87344899 L91.8747796,3.58996663 L96.3129694,3.58996663 L96.3129694,4.89323241 L107.752447,4.89323241 C107.883121,4.42377097 108.053942,3.99136401 108.246016,3.58996663 L114.418391,3.58996663 C114.682887,4.13950343 114.894642,4.75985198 115.043421,5.44033556 C118.6157,5.65960074 121.195329,7.10244888 121.195329,8.86332181" id="path56" fill="#E51635"></path>
                        <path d="M121.195329,8.87344899 C121.183521,10.6232527 118.608615,12.0756 115.043421,12.2892913 C114.90094,12.9391578 114.70178,13.538938 114.45224,14.0737943 L108.21689,14.0737943 C108.035836,13.6898251 107.875249,13.2807342 107.752447,12.8333327 L96.3129694,12.8333327 L96.3129694,14.0737943 L91.8747796,14.0737943 L91.8747796,8.87344899 L121.195329,8.87344899" id="path58" fill="#FFFFFF"></path>
                        <path d="M62.6772687,8.87344899 L91.8747796,8.87344899 L91.8747796,14.0737943 L87.4302923,14.0737943 L87.4302923,12.8333327 L76.1214886,12.8333327 C75.9963251,13.2807342 75.8349507,13.6898251 75.6570452,14.0737943 L69.4201212,14.0737943 C69.169794,13.538938 68.96906,12.9391578 68.8305142,12.2892913 C65.2645334,12.0756 62.6849831,10.62812 62.6772687,8.87344899" id="path60" fill="#E51635"></path>
                        <polyline id="path62" fill="#231F20" points="6.17930128 14.0737943 9.80684053 8.92832416 6.14057142 3.58996663 12.9008996 3.58996663 12.9008996 14.0737943 6.17930128 14.0737943"></polyline>
                        <polyline id="path64" fill="#231F20" points="53.2454462 14.0737943 41.4787328 14.0737943 41.4787328 13.143978 40.0470663 14.0737943 31.3636275 14.0737943 31.3636275 3.58996663 43.1582862 3.58996663 43.1582862 10.7088234 51.5320436 5.20576185 51.5320436 3.58996663 55.8185414 3.58996663 53.2454462 5.30695512 53.2454462 14.0737943"></polyline>
                        <polyline id="path66" fill="#231F20" points="22.9868001 14.0737943 13.2047558 14.0737943 21.274657 8.87187888 21.274657 3.58996663 31.203119 3.58996663 22.9868001 9.07921127 22.9868001 14.0737943"></polyline>
                        <polyline id="path68" fill="#FCD213" points="13.2047558 14.0737943 12.9008996 14.0737943 12.9008996 3.58996663 21.274657 3.58996663 21.274657 8.87187888 13.2047558 14.0737943"></polyline>
                        <polyline id="path70" fill="#FCD213" points="22.9868001 14.0737943 22.9868001 9.07921127 31.203119 3.58996663 31.3636275 3.58996663 31.3636275 14.0737943 22.9868001 14.0737943"></polyline>
                        <polygon id="path72" fill="#FCD213" points="41.4787328 14.0737943 40.0470663 14.0737943 41.4787328 13.143978"></polygon>
                        <polyline id="path74" fill="#FCD213" points="43.1582862 10.7088234 43.1582862 3.58996663 51.5320436 3.58996663 51.5320436 5.20576185 43.1582862 10.7088234"></polyline>
                        <polyline id="path76" fill="#FCD213" points="62.2695818 14.0737943 53.2454462 14.0737943 53.2454462 5.30695512 55.8185414 3.58996663 62.2560421 3.58996663 62.2621822 8.87344899 62.2695818 14.0737943"></polyline>
                        <path d="M6.14057142,3.58996663 L177.73856,3.58996663 L174.078903,8.92220075 L177.703923,14.0737943 L6.17930128,14.0737943 L9.80684053,8.92832416 L6.14057142,3.58996663 Z M182.838778,0.80703374 L1.03248102,0.80703374 L5.84017887,8.90806981 L1.04995669,16.8552356 L182.838778,16.8552356 L178.040841,8.91356518 L182.838778,0.80703374 L182.838778,0.80703374 Z" id="path78" fill="#231F20"></path>
                    </g>
                </g>
            </g>
        </g>
    </g>
</svg>