<?xml version="1.0" encoding="UTF-8"?>
<svg width="200px" height="200px" viewBox="0 0 200 200" version="1.1" xmlns="http://www.w3.org/2000/svg" xmlns:xlink="http://www.w3.org/1999/xlink">
    <!-- Generator: Sketch 54.1 (76490) - https://sketchapp.com -->
    <title>minnesota</title>
    <desc>Created with Sketch.</desc>
    <g id="minnesota" stroke="none" stroke-width="1" fill="none" fill-rule="evenodd">
        <g id="minnesota_BGL" transform="translate(0.000000, 0.000000)">
            <g id="minnesota" transform="translate(0.000000, 45.000000)">
                <g id="g10" transform="translate(99.999998, 55.126080) scale(-1, 1) rotate(-180.000000) translate(-99.999998, -55.126080) translate(0.000000, 0.031090)" fill-rule="nonzero">
                    <g id="g12">
                        <path d="M194.856299,7.59972347 C195.067007,7.53751276 195.229356,7.43146786 195.347491,7.28221053 C195.464244,7.13191692 195.522966,6.95205509 195.522966,6.74303956 C195.522966,6.54683921 195.472879,6.36994803 195.368562,6.21208965 C195.268043,6.05219329 195.113639,5.93264234 194.908803,5.85423129 C194.705004,5.77613112 194.487042,5.73713284 194.260444,5.73713284 L193.353363,5.73713284 L193.353363,7.69012071 L194.260444,7.69012071 C194.444209,7.69012071 194.642137,7.66082882 194.856299,7.59972347 L194.856299,7.59972347 Z M194.132983,4.76725377 C194.484624,4.76725377 194.750254,4.71948175 194.93471,4.62421405 C195.116748,4.52856638 195.248009,4.39834186 195.325729,4.23454221 C195.406904,4.06804826 195.45699,3.8031778 195.480479,3.43210354 C195.508803,2.91329181 195.543346,2.60308802 195.587905,2.5049913 L196.892914,2.5049913 C196.8411,2.67500511 196.808976,2.94432808 196.79965,3.31403791 C196.791014,3.6825215 196.769252,3.94604481 196.735056,4.10231423 C196.682551,4.34504307 196.601377,4.54742648 196.490496,4.71395498 C196.376852,4.87706378 196.236265,5.00756464 196.064589,5.10051801 C195.89395,5.19592388 195.668389,5.27188242 195.386524,5.329499 C195.705349,5.36891178 195.931947,5.42110522 196.064589,5.48777188 C196.312603,5.61001713 196.511221,5.79177878 196.66079,6.02898085 C196.811049,6.26766824 196.88566,6.54065614 196.88566,6.85084612 C196.88566,7.16822089 196.814848,7.44697736 196.675297,7.6849739 C196.53471,7.92369583 196.353363,8.1125732 196.132983,8.25937803 C195.911567,8.40483571 195.627284,8.50956801 195.279788,8.57554383 C195.032465,8.62034521 194.668043,8.64044883 194.186178,8.64044883 L191.983069,8.64044883 L191.983069,2.5049913 L193.353363,2.5049913 L193.353363,4.76725377 L194.132983,4.76725377 Z M199.376161,7.86348858 C199.124002,8.42967164 198.765798,8.95267681 198.300168,9.43246954 C197.833156,9.91471478 197.257335,10.3139894 196.574779,10.6308115 C195.891878,10.9512605 195.139891,11.1102242 194.315712,11.1102242 C193.469771,11.1102242 192.664935,10.9260446 191.905349,10.5602415 C191.352327,10.2956474 190.841446,9.93050062 190.369598,9.46946436 C189.903968,9.00732275 189.520203,8.43654556 189.221757,7.75651103 C188.921584,7.076062 188.772361,6.34269414 188.772361,5.55927447 C188.772361,4.58860092 189.016921,3.66352322 189.505695,2.78375813 C189.997923,1.90778924 190.680133,1.2238238 191.555781,0.734428306 C192.430392,0.244224864 193.3506,0 194.315712,0 C195.173743,0 195.980306,0.183775816 196.742655,0.554701195 C197.327802,0.839675281 197.862171,1.23003106 198.343346,1.72603795 C198.82832,2.22001722 199.201377,2.80723654 199.470807,3.48566485 C199.73471,4.16234877 199.86908,4.85388589 199.86908,5.55927447 C199.86908,6.34784095 199.704313,7.11678739 199.376161,7.86348858 L199.376161,7.86348858 Z M196.064589,9.94089785 C196.637646,9.71126055 197.13022,9.3906388 197.549909,8.97896351 C197.967525,8.56784089 198.296714,8.11568201 198.534019,7.62034523 C198.848354,6.97578566 199.005176,6.28601021 199.005176,5.55927447 C199.005176,4.73053529 198.795159,3.94200336 198.380306,3.19718818 C197.963035,2.44872533 197.386178,1.86798268 196.6449,1.45077717 C195.906385,1.03424522 195.13022,0.826991344 194.315712,0.826991344 C193.508113,0.826991344 192.733329,1.03424522 191.994468,1.45077717 C191.253881,1.86798268 190.673916,2.44872533 190.259753,3.19718818 C189.841791,3.94200336 189.634538,4.73053529 189.634538,5.55927447 C189.634538,6.26283231 189.769253,6.90428307 190.039028,7.48151967 C190.306731,8.05875628 190.643864,8.54787543 191.0525,8.94335038 C191.458717,9.34017248 191.902931,9.64728819 192.383069,9.86048335 C193.014848,10.1432813 193.66079,10.2832122 194.315712,10.2832122 C194.910876,10.2832122 195.493605,10.1689462 196.064589,9.94089785 L196.064589,9.94089785 Z" id="path14" fill="#841C32"></path>
                        <polyline id="path16" fill="#841C32" points="173.240756 28.0569941 140.848701 81.9046612 149.771326 81.9046612 149.771326 109.962001 95.8528473 109.962001 95.8528473 81.9046612 104.775818 81.9046612 92.396198 61.3333318 80.0238322 81.9046612 88.9447301 81.9046612 88.9447301 109.962001 35.0272876 109.962001 35.0272876 81.9046612 43.9474946 81.9046612 11.5558892 28.0569941 0 28.0569941 0 0 54.9910176 0 54.9910176 28.0569941 45.1126068 28.0569941 61.9872178 56.1088069 68.529532 45.231087 62.2552661 45.231087 62.2552661 17.1744037 122.540239 17.1744037 122.540239 45.231087 116.269427 45.231087 122.811396 56.1088069 139.684625 28.0569941 129.806214 28.0569941 129.806214 0 184.792741 0 184.792741 28.0569941 173.240756 28.0569941"></polyline>
                        <path d="M146.173053,106.369255 C146.173053,101.703279 146.173053,90.1630375 146.173053,85.5025885 C143.609668,85.5025885 134.486352,85.5025885 134.486352,85.5025885 L171.209668,24.459723 C171.209668,24.459723 177.789287,24.459723 181.201377,24.459723 C181.201377,19.7993432 181.201377,8.25872173 181.201377,3.59861822 C175.354745,3.59861822 139.242484,3.59861822 133.40276,3.59861822 C133.40276,8.25872173 133.40276,19.7993432 133.40276,24.459723 C136.308459,24.459723 146.046283,24.459723 146.046283,24.459723 L122.811396,63.0853179 L109.907078,41.6341959 C109.907078,41.6341959 117.634194,41.6341959 118.944038,41.6341959 C118.944038,36.9747832 118.944038,25.4344726 118.944038,20.7716748 C112.987907,20.7716748 71.8093246,20.7716748 65.8483576,20.7716748 C65.8483576,25.4344726 65.8483576,36.9747832 65.8483576,41.6341959 C67.1592384,41.6341959 74.8915353,41.6341959 74.8915353,41.6341959 L61.9872178,63.0853179 L38.7502581,24.459723 C38.7502581,24.459723 48.484282,24.459723 51.3944719,24.459723 C51.3944719,19.7993432 51.3944719,8.25872173 51.3944719,3.59861822 C45.5537122,3.59861822 9.44449026,3.59861822 3.59861822,3.59861822 C3.59861822,8.25872173 3.59861822,19.7993432 3.59861822,24.459723 C7.00994801,24.459723 13.5864591,24.459723 13.5864591,24.459723 L50.3105341,85.5025885 C50.3105341,85.5025885 41.1889454,85.5025885 38.6255603,85.5025885 C38.6255603,90.1630375 38.6255603,101.703279 38.6255603,106.369255 C44.4397226,106.369255 79.5316042,106.369255 85.3481844,106.369255 C85.3481844,101.703279 85.3481844,90.1630375 85.3481844,85.5025885 C82.7875627,85.5025885 73.6614835,85.5025885 73.6614835,85.5025885 L92.396198,54.3585479 L111.136785,85.5025885 C111.136785,85.5025885 102.01036,85.5025885 99.4514656,85.5025885 C99.4514656,90.1630375 99.4514656,101.703279 99.4514656,106.369255 C105.265628,106.369255 140.352674,106.369255 146.173053,106.369255" id="path18" fill="#F9B428"></path>
                        <path d="M142.576508,102.772709 C142.576508,98.8718455 142.576508,93.0003431 142.576508,89.0994796 C139.129876,89.0994796 128.12504,89.0994796 128.12504,89.0994796 L169.176162,20.8631428 C169.176162,20.8631428 174.658027,20.8631428 177.604486,20.8631428 C177.604486,16.9620376 177.604486,11.0949565 177.604486,7.19519844 C171.953364,7.19519844 142.649737,7.19519844 136.999651,7.19519844 C136.999651,11.0949565 136.999651,16.9620376 136.999651,20.8631428 C140.682553,20.8631428 152.406559,20.8631428 152.406559,20.8631428 L122.812432,70.0621744 L103.547148,38.0376502 C103.547148,38.0376502 112.74093,38.0376502 115.347147,38.0376502 C115.347147,34.1375121 115.347147,28.2693603 115.347147,24.368255 C109.550602,24.368255 75.2424852,24.368255 69.4449033,24.368255 C69.4449033,28.2693603 69.4449033,34.1375121 69.4449033,38.0376502 C72.0542296,38.0376502 81.2528477,38.0376502 81.2528477,38.0376502 L61.9865269,70.061829 L32.3897747,20.8631428 C32.3897747,20.8631428 44.1150248,20.8631428 47.7979263,20.8631428 C47.7979263,16.9620376 47.7979263,11.0949565 47.7979263,7.19519844 C42.1464584,7.19519844 12.8454228,7.19519844 7.19519844,7.19519844 C7.19519844,11.0949565 7.19519844,16.9620376 7.19519844,20.8631428 C10.1403452,20.8631428 15.6202759,20.8631428 15.6202759,20.8631428 L56.6711558,89.0994796 C56.6711558,89.0994796 45.6690835,89.0994796 42.2224514,89.0994796 C42.2224514,93.0003431 42.2224514,98.8718455 42.2224514,102.772709 C47.839377,102.772709 76.1343677,102.772709 81.7516387,102.772709 C81.7516387,98.8718455 81.7516387,93.0003431 81.7516387,89.0994796 C78.3043158,89.0994796 67.3012073,89.0994796 67.3012073,89.0994796 L92.3951618,47.3823822 L117.499824,89.0994796 C117.499824,89.0994796 106.49568,89.0994796 103.048357,89.0994796 C103.048357,93.0003431 103.048357,98.8718455 103.048357,102.772709 C108.664591,102.772709 136.959237,102.772709 142.576508,102.772709" id="path20" fill="#841C32"></path>
                    </g>
                </g>
            </g>
        </g>
    </g>
</svg>