<?xml version="1.0" encoding="UTF-8"?>
<svg width="200px" height="200px" viewBox="0 0 200 200" version="1.1" xmlns="http://www.w3.org/2000/svg" xmlns:xlink="http://www.w3.org/1999/xlink">
    <!-- Generator: Sketch 54.1 (76490) - https://sketchapp.com -->
    <title>montana-st</title>
    <desc>Created with Sketch.</desc>
    <g id="montana-st" stroke="none" stroke-width="1" fill="none" fill-rule="evenodd">
        <g id="montana-st_BGL" transform="translate(0.000000, -0.000000)">
            <g id="montana-st" transform="translate(0.000000, 25.000000)">
                <g id="g10" transform="translate(99.999998, 75.196724) scale(-1, 1) rotate(-180.000000) translate(-99.999998, -75.196724) translate(0.000000, 0.060114)" fill-rule="nonzero">
                    <g id="g12">
                        <path d="M149.876226,39.516458 C149.901559,39.500458 149.941559,39.4937914 149.956226,39.4857914 C149.946892,39.4857914 149.941559,39.4937914 149.941559,39.4937914 C149.925559,39.500458 149.901559,39.516458 149.876226,39.516458" id="path14" fill="#1D2953"></path>
                        <path d="M5.66352445,42.8010918 C5.66352445,42.8010918 33.6122942,95.2319648 100.383604,109.298085 C105.418577,117.541254 117.800544,124.815024 126.062019,128.892073 C142.183876,136.845352 140.606281,143.64863 140.606281,143.64863 C140.606281,143.64863 152.666663,135.215024 145.327865,119.286882 C144.273494,116.995352 143.485242,114.86885 142.925953,112.900817 C154.940433,110.236882 166.002728,104.513659 174.725679,96.9939866 C178.889613,93.4046425 180.266389,90.0923475 180.768575,87.9076481 C181.097263,86.4972656 181.124039,86.3857902 182.332782,85.5715826 C185.494531,83.4603804 193.890432,76.5300527 196.798629,68.7964464 C196.798629,68.7964464 197.613656,65.4786869 193.322126,62.5213099 C190.433329,55.0849713 184.520214,53.0412555 177.829777,52.2819659 C173.497263,46.5360644 164.364477,44.7863377 164.364477,44.7863377 C164.364477,44.7863377 165.392892,49.3142064 165.653275,54.5557363 C155.130324,59.0773209 148.864477,53.8822391 148.864477,53.8822391 C148.677045,52.6773211 148.418849,51.4669386 148.16475,50.2822392 C146.695625,43.3849716 146.687155,41.4784143 149.876226,39.4920755 C149.815297,39.5352449 149.767756,39.5625673 149.889614,39.4874307 C150.034149,39.3967203 149.96475,39.4398897 149.892619,39.4857914 C154.518302,37.029234 160.046717,39.9297804 162.386881,40.9147531 C162.386881,40.9147531 164.167755,35.427868 159.095351,29.9693982 C159.172674,28.4330594 158.709559,25.4177316 155.616663,23.6300267 C153.465023,22.3814202 150.050269,20.8562836 146.012018,20.6727044 C132.417483,20.0355459 133.92568,32.6978134 119.75956,37.0144799 C109.039888,40.2775946 94.2606534,30.649726 99.0784128,7.74836046 C91.8341507,14.0906827 81.0450799,27.1426769 80.9964461,43.8562831 C60.1327854,44.6551901 40.7729498,42.0193979 36.8224035,40.9349717 C37.953551,43.241529 39.1595619,45.4218568 40.4226766,47.490436 C19.2414749,45.7341519 5.66352445,42.8010918 5.66352445,42.8010918" id="path16" fill="#1D2953"></path>
                        <path d="M196.798629,68.7964464 C193.890432,76.5300527 185.494531,83.4603804 182.332782,85.5715826 C181.124039,86.3857902 181.097263,86.4972656 180.768575,87.9076481 C180.266389,90.0923475 178.889613,93.4046425 174.725679,96.9939866 C166.002728,104.513659 154.940433,110.236882 142.925953,112.900817 C143.485242,114.86885 144.273494,116.995352 145.327865,119.286882 C152.666663,135.215024 140.606281,143.64863 140.606281,143.64863 C140.606281,143.64863 142.183876,136.845352 126.062019,128.892073 C117.800544,124.815024 105.418577,117.541254 100.383604,109.298085 C33.6122942,95.2319648 5.66352445,42.8010918 5.66352445,42.8010918 C5.66352445,42.8010918 19.2414749,45.7341519 40.4226766,47.490436 C39.1595619,45.4218568 37.953551,43.241529 36.8224035,40.9349717 C40.7729498,42.0193979 60.1327854,44.6551901 80.9964461,43.8562831 C81.0450799,27.1426769 91.8341507,14.0906827 99.0784128,7.74836046 C94.2606534,30.649726 109.039888,40.2775946 119.75956,37.0144799 C133.92568,32.6978134 132.417483,20.0355459 146.012018,20.6727044 C150.050269,20.8562836 153.465023,22.3814202 155.616663,23.6300267 C158.709559,25.4177316 159.172674,28.4330594 159.095351,29.9693982 C164.167755,35.427868 162.386881,40.9147531 162.386881,40.9147531 C160.046717,39.9297804 154.518302,37.029234 149.892619,39.4857914 C149.96475,39.4398897 150.034149,39.3967203 149.889614,39.4874307 C149.767756,39.5625673 149.815297,39.5352449 149.876226,39.4920755 C146.687155,41.4784143 146.695625,43.3849716 148.16475,50.2822392 C148.418849,51.4669386 148.677045,52.6773211 148.864477,53.8822391 C148.864477,53.8822391 155.130324,59.0773209 165.653275,54.5557363 C165.392892,49.3142064 164.364477,44.7863377 164.364477,44.7863377 C164.364477,44.7863377 173.497263,46.5360644 177.829777,52.2819659 C184.520214,53.0412555 190.433329,55.0849713 193.322126,62.5213099 C197.613656,65.4786869 196.798629,68.7964464 196.798629,68.7964464 Z M195.763383,60.6158455 C192.375405,52.8289604 186.186607,50.4612009 179.377318,49.4658458 C176.891252,46.7213103 171.833875,43.3472667 165.200816,41.9106547 L165.224313,41.8385235 C165.312837,41.5595618 167.292619,35.2005456 162.051089,28.8161195 C161.817482,26.1212835 160.439613,22.9693983 157.11393,21.046147 C154.67404,19.6341252 150.234149,17.8893438 145.594259,17.6756826 C130.643166,17.6756826 131.527046,30.3071031 118.888248,34.1590155 C117.820489,34.4822396 116.699724,34.675409 115.548631,34.6489062 C100.624314,34.2923489 98.7587407,16.2434969 103.389068,0 C95.0398883,7.31663916 79.6256811,19.8232509 78.1180308,40.9595618 C62.4696706,41.3374307 46.3360644,40.6948077 31.2259555,36.3046439 C32.4756822,38.8795072 33.709562,41.4672121 35.0270483,44.0040973 C23.2400541,42.8461738 11.5597265,41.0909826 0,38.5229499 C18.2115569,73.6131129 54.6346981,102.336336 98.5516369,111.957374 C104.577593,120.729232 117.46885,127.878959 124.744259,131.568576 C142.753822,140.70792 136.426226,149.273767 136.17486,150.127045 C136.17486,150.127045 144.713658,145.991253 147.922947,139.712565 C150.343166,134.964751 152.330871,127.354368 148.038794,118.036063 C147.569395,117.013112 147.14863,116.009287 146.777865,115.031691 C157.799176,112.078959 168.078138,106.665844 176.674039,99.2565549 C180.434148,96.0125659 182.926771,92.1207627 183.815296,88.2797792 C183.831689,88.2704896 183.828684,88.2704896 183.82158,88.2737683 C187.865569,85.5683039 196.550542,77.8978123 199.64617,69.6770474 C200.10464,67.8133863 199.7877,63.7803263 195.763383,60.6158455 Z M185.676498,60.9144794 C181.738247,57.6232226 175.704914,57.3983592 175.466936,57.3658456 C174.012837,54.4606544 170.83169,51.6163922 168.882783,50.5549168 C169.686608,53.1459003 169.806007,56.2117472 169.740979,58.434698 C162.142892,63.7193973 149.840433,62.6327853 141.779231,56.0674849 C147.017483,53.999179 138.291253,40.7931684 146.511472,35.3325128 C151.345351,32.7158462 156.297537,35.2336057 159.024859,36.3868843 C159.067756,36.1409827 157.690706,32.9166658 153.366116,30.7019118 L153.444532,30.6396167 C153.444532,30.6396167 154.716936,29.2953545 153.032783,28.2866113 C151.34863,27.2775676 149.130597,26.4988791 145.780597,26.0199993 C141.751636,25.4456005 137.298904,28.5855184 134.753275,32.4341522 C131.6418,37.142622 125.499997,42.1442612 117.61721,43.6300536 C119.616117,44.7366109 121.918303,45.5734961 121.918303,45.5734961 C116.20027,46.3109278 111.491527,45.7756819 107.655189,44.6071027 C117.31721,55.798086 131.388795,59.4486324 131.388795,59.4486324 C130.11721,60.0341515 128.268576,60.5251351 126.305188,60.9243154 C138.62486,67.2237688 152.173493,69.2478125 163.534695,65.8139328 C166.587701,72.2811457 179.862017,73.2101075 184.386607,69.7016376 C184.386607,69.7016376 184.383602,69.7016376 184.383602,69.6983589 C186.641252,68.1732223 188.974312,63.6644793 185.676498,60.9144794 L185.676498,60.9144794 Z" id="path18" fill="#FFFFFF"></path>
                        <path d="M115.789888,97.132238 C107.465571,104.519396 125.726773,116.253549 127.852729,116.639068 C123.103002,111.416664 122.044806,107.296445 122.503002,104.221036 C120.435789,104.837429 119.878686,106.574587 119.878686,106.574587 C118.525407,101.31967 122.186063,98.0655713 124.7918,96.46885 C122.072948,95.7986315 117.941527,95.2240413 115.789888,97.132238 L115.789888,97.132238 Z M170.650815,85.601364 C171.958739,80.6486319 176.235788,77.1360636 176.235788,77.1360636 C174.693165,77.2232221 173.578957,77.4499981 172.762564,77.7295063 C171.045624,78.5439871 170.969395,80.0163914 169.525406,80.9079215 C169.754367,80.057375 169.522127,79.5355171 168.67322,79.5696701 C168.266936,79.6273204 167.893985,79.7125663 167.559012,79.8193969 C167.493165,79.8407084 167.440433,79.8576483 167.371581,79.8833313 C163.878411,81.1401619 163.827592,84.9923476 158.985515,85.1948066 C158.985515,85.1948066 162.816936,86.1024569 165.554641,85.5073749 C159.665843,90.3849704 146.613111,93.2573833 146.613111,93.2573833 C146.613111,93.2573833 160.429504,93.3081944 170.650815,85.601364 L170.650815,85.601364 Z M131.388795,59.4486324 C130.11721,60.0341515 128.268576,60.5251351 126.305188,60.9243154 C138.62486,67.2237688 152.173493,69.2478125 163.534695,65.8139328 C166.587701,72.2811457 179.862017,73.2101075 184.386607,69.7016376 C184.386607,69.7016376 184.383602,69.7016376 184.383602,69.6983589 C186.319121,70.2964463 189.011744,69.3568289 190.893438,68.492348 C188.61311,72.9183042 182.040979,79.3677576 179.457919,81.0953532 C173.628411,84.9923476 177.11311,87.9237683 171.337701,92.9027299 C163.129231,99.978686 153.004914,105.130872 141.976226,107.469396 C141.859286,105.123495 142.209833,103.116937 143.006554,101.470762 C140.039068,103.342347 138.655734,105.673221 138.186335,108.163112 C138.175133,108.164205 138.161199,108.166937 138.154641,108.166937 L138.179232,108.169943 C136.617483,116.455462 145.167483,126.430051 139.05874,126.629778 C131.460652,126.879505 113.425407,117.060926 106.831145,105.199178 L106.837975,105.199178 C104.166664,100.399178 103.366664,95.2650249 105.895079,90.3273201 C99.9267735,94.4986315 97.8125659,98.8382489 98.1724019,103.072675 C65.1612006,93.7767736 39.910928,72.6131129 26.8480048,53.5647528 C33.743715,54.3453538 39.6713105,54.9010915 45.7357912,55.1245888 C54.2193976,65.866665 64.2013645,72.5896157 72.5980856,76.7371566 C62.8387962,69.0639327 57.7718565,60.349452 55.4196707,55.1928948 C62.8090148,55.0322391 71.1087414,54.3732227 81.9475389,53.0573757 C84.3530034,64.6404355 91.2972655,75.5907085 102.037976,83.070763 C107.906008,87.1579213 113.670216,89.8385223 119.841254,91.0456261 C107.581418,86.3073749 98.0611997,76.6896156 93.7338774,64.9084683 C97.6642052,69.0904354 102.408741,72.6289599 107.749997,75.3286866 C99.9926205,67.6934409 94.8071015,57.7415286 93.596719,46.4816928 C93.1918009,42.7292339 93.4458993,38.7887968 94.1890687,35.098633 C95.763932,37.3595619 99.9360631,42.262294 107.656555,44.6087421 C117.321035,55.798086 131.388795,59.4486324 131.388795,59.4486324 L131.388795,59.4486324 Z" id="path20" fill="#B88F4B"></path>
                    </g>
                </g>
            </g>
        </g>
    </g>
</svg>