<?xml version="1.0" encoding="UTF-8"?>
<svg width="200px" height="200px" viewBox="0 0 200 200" version="1.1" xmlns="http://www.w3.org/2000/svg" xmlns:xlink="http://www.w3.org/1999/xlink">
    <!-- Generator: Sketch 54.1 (76490) - https://sketchapp.com -->
    <title>morehead-st</title>
    <desc>Created with Sketch.</desc>
    <g id="morehead-st" stroke="none" stroke-width="1" fill="none" fill-rule="evenodd">
        <g id="morehead-st_BGL">
            <g id="morehead-st" transform="translate(0.000000, 2.000000)">
                <g id="g10" transform="translate(99.890708, 98.063390) scale(-1, 1) rotate(-180.000000) translate(-99.890708, -98.063390) translate(0.000000, 0.139896)" fill-rule="nonzero">
                    <g id="g12">
                        <path d="M186.022728,116.540762 C190.222509,119.816828 194.37464,121.519997 199.479776,124.800871 C194.299012,128.260543 172.399121,142.266226 168.275406,145.135297 C168.281089,145.146226 176.737482,163.743384 179.148848,167.006772 C174.770269,167.153657 169.852236,166.105351 169.852236,166.105351 C169.852236,166.105351 170.507974,170.367646 171.682182,173.458356 C158.286335,169.685242 148.974423,175.882837 135.49333,180.028411 C122.363276,184.070815 100.99803,183.652892 99.278686,195.558028 L99.157156,195.659012 C97.5042599,183.426006 76.7921292,184.021853 63.593441,179.958028 C50.111037,175.812455 40.6027968,170.204586 27.2074747,173.977263 C28.2129392,171.679121 29.8736167,166.410925 29.8736167,166.410925 C29.8736167,166.410925 24.9999994,166.563493 20.7248957,165.95322 C23.0327863,161.64546 31.3951468,145.076281 31.4011358,145.064477 C27.2758026,142.195406 5.18102719,128.190161 0,124.730489 C5.10452446,121.449614 9.06080852,119.747319 13.2598904,116.469505 C7.41495063,111.267757 7.20883042,101.396282 6.36782498,96.1425113 C5.52681953,90.8900524 6.8741419,73.1108178 6.8741419,73.1108178 C6.8741419,73.1108178 14.2810925,76.3025118 16.9777919,77.8487412 C24.6063819,72.3348616 33.5001522,74.1901621 39.8864252,72.9801075 C44.2854634,72.1464463 60.1280859,68.7947524 69.4902715,59.0583592 C78.4179215,49.7739878 97.3224019,4.36424033 99.1029483,0.166154313 L99.2340959,0 C100.997156,4.19586875 120.667975,49.8439332 129.595188,59.1287417 C138.957374,68.8651349 154.757592,73.2756266 159.199996,73.836938 C167.557154,74.8926757 175.098138,72.9905993 182.107974,78.115845 C184.805241,76.5696156 192.21158,73.3779217 192.21158,73.3779217 C192.21158,73.3779217 193.559777,90.9604349 192.717809,96.2137681 C191.877591,101.467101 191.867973,111.338139 186.022728,116.540762" id="path14" fill="#244BA6"></path>
                        <path d="M99.1418554,188.678902 C97.6087407,177.408083 78.3772658,180.342728 66.0144246,176.535515 C53.3862282,172.652673 46.5062283,166.111471 33.9600429,169.645023 C35.6198898,168.673657 41.181682,158.01792 42.4017913,157.307537 C37.8645674,158.353657 32.0910156,159.996936 28.8089173,160.288521 C31.700808,157.227537 37.5141849,143.864914 37.5196493,143.853548 C33.655562,141.166772 12.9610489,128.048521 8.10876482,124.808303 C12.8893549,121.735079 16.4108411,120.140325 20.3440869,117.071035 C14.8693767,112.198904 13.2035407,102.95344 12.4154751,98.0327844 C11.6277156,93.112566 12.337792,81.6161728 12.337792,81.6161728 C12.337792,81.6161728 19.8275405,84.6054624 22.3531361,86.0537683 C24.870207,78.8834953 37.8281958,79.4963915 43.809835,78.3632767 C47.9300534,77.5820746 62.768523,72.4179217 71.5374846,63.2987962 C80.3064461,54.1787965 99.1829483,8.39873203 99.1829483,8.39873203 L99.2437134,8.4643058 C99.2437134,8.4643058 119.064478,54.2448074 127.833002,63.36437 C136.602401,72.4839326 151.441308,77.6485226 155.561089,78.4292877 C161.541854,79.5624024 174.500542,78.9495062 177.0177,86.1197793 C179.543602,84.6714733 187.033438,81.6821838 187.033438,81.6821838 C187.033438,81.6821838 187.743383,93.1785769 186.955187,98.0987954 C186.167427,103.019451 184.501416,112.264478 179.026444,117.137046 C182.959995,120.206336 186.481307,121.80109 191.262509,124.874314 C186.410487,128.114532 165.714531,141.232346 161.851362,143.919559 C161.857045,143.930488 167.669941,157.293111 170.562619,160.354094 C167.279559,160.06251 161.506007,158.420105 156.968739,157.373111 C158.188849,158.08393 163.75169,168.739668 165.411581,169.711034 C152.864696,166.177919 145.984259,172.718247 133.357374,176.601088 C121.057483,180.388629 100.87344,177.645897 99.2542052,188.591471" id="path16" fill="#101011"></path>
                        <path d="M130.153439,129.494204 C132.22557,127.669505 137.258576,127.658139 138.818794,129.932674 C139.703603,131.22098 138.780324,132.659232 139.150598,133.900762 C139.497701,135.035188 140.994532,135.817264 142.185789,136.641308 C142.440652,133.688303 142.495734,129.283057 139.054423,127.6118 C135.412018,125.844368 130.200652,126.496172 128.388194,129.456172 C129.142729,129.573767 130.073877,129.510816 130.605461,129.320653" id="path18" fill="#FFFFFF"></path>
                        <path d="M148.168302,106.632128 C144.421854,108.536828 128.780325,107.339014 126.081745,108.665352 C120.400434,111.608303 123.11956,125.140106 118.332237,132.02098 C113.926117,138.365024 103.182074,138.826226 99.209615,145.077155 C95.239779,138.826226 84.4970471,138.365024 80.0926756,132.02098 C75.3075391,125.140106 78.0236046,111.608303 72.3457905,108.665352 C69.640654,107.339014 53.99825,108.536828 50.2522392,106.632128 C46.0620754,104.497484 43.6091355,101.819888 46.3213103,98.9289593 C49.9899441,95.0155168 72.7908179,96.0546424 81.13661,81.2375936 C86.8008721,71.1886321 99.1978117,24.9639775 99.1978117,24.9639775 C99.1978117,24.9639775 110.56568,69.3119108 117.28568,81.2375936 C125.632347,96.0546424 148.427974,95.0155168 152.103603,98.9289593 C154.816608,101.819888 152.363712,104.497484 148.168302,106.632128" id="path20" fill="#FCD213"></path>
                        <path d="M99.0614183,124.910161 L96.7143145,58.7151898 L96.0852435,49.7949714 L99.1965003,36.0669281 L102.391691,49.9387966 C102.391691,49.9387966 102.146008,55.4487418 102.002183,58.7151898 L99.0614183,124.910161" id="path22" fill="#FFFFFF"></path>
                        <path d="M78.1919106,99.7757352 C78.1919106,99.7757352 65.9121295,101.420325 63.2878673,102.014424 C60.9324575,102.551691 49.4802173,103.450489 47.7066655,102.127211 C45.5549715,100.523713 55.8924576,99.7237134 57.3022936,99.5510358 C62.503605,98.9123473 65.160217,98.5674292 69.9173753,96.9232763 C74.9538779,95.1829484 77.8268833,89.8229486 80.115845,87.3643694" id="path24" fill="#231F20"></path>
                        <path d="M95.7075386,118.653986 C95.7075386,121.021636 96.5704894,123.084587 96.3064457,125.364806 C96.1442599,126.726554 96.5468828,130.363275 95.3368282,131.367428 C93.5938774,132.817046 86.8664459,127.175953 88.3829486,125.523494 C90.6509267,123.040871 92.2666644,132.177046 94.7134403,127.507756" id="path26" fill="#231F20"></path>
                        <path d="M102.175735,118.875625 C102.175735,121.243276 101.311036,123.303603 101.583823,125.586882 C101.742511,126.942948 101.340325,130.582292 102.548194,131.590379 C104.289833,133.039122 111.015079,127.39803 109.502511,125.740325 C107.235844,123.262948 105.619232,132.399122 103.173331,127.726773" id="path28" fill="#231F20"></path>
                        <path d="M119.757374,99.4666642 C119.757374,99.4666642 132.035844,101.11038 134.661417,101.705353 C137.015516,102.239123 148.470379,103.137921 150.243056,101.817265 C152.396936,100.214642 142.057701,99.413768 140.64874,99.2384675 C135.447865,98.6002161 132.793002,98.2574839 128.034969,96.6111451 C122.996281,94.8703801 120.122401,89.5160633 117.832565,87.0552984" id="path30" fill="#231F20"></path>
                        <path d="M178.852017,125.290489 C177.678684,124.841527 152.560871,140.803931 152.108849,139.909068 C152.116718,139.915625 158.200215,151.362182 160.685898,154.163931 C157.865788,153.898138 151.382728,149.694422 147.913439,152.209832 C148.960871,152.855515 153.742073,162.595406 155.172455,163.488958 C144.380761,160.255734 140.009614,168.260979 127.608303,170.024914 C103.294861,173.4824 99.104697,180.839777 99.104697,180.839777 C99.104697,180.839777 94.9342053,173.318466 70.2024026,169.960214 C58.8804357,168.422728 53.4264468,160.429723 42.6369388,163.659012 C44.0642612,162.771143 48.8472119,153.029504 49.8968294,152.379887 C46.4266655,149.865789 39.9444799,154.069504 37.1222723,154.336608 C39.6089608,151.535734 45.6931136,140.089614 45.6979224,140.079559 C45.2489606,140.978794 20.1301416,125.013767 18.9586881,125.463603 C23.0246114,123.901199 27.2634747,123.243713 31.122797,121.325461 C26.601442,113.592128 22.0787317,105.888959 22.9738573,96.3038227 C26.1885458,97.50732 30.1579446,99.5811997 33.8900101,99.2660084 C28.5596058,86.8743148 34.7569827,85.7591235 44.6334415,83.9199979 C54.5599986,82.0708176 67.6091786,76.9779216 79.5352986,63.9995612 C74.9752987,95.217484 31.4810484,84.6946427 38.1454854,106.090489 C40.3235837,113.083713 60.197157,118.508849 64.6876487,116.242183 C64.6469929,116.264478 57.7634958,119.752565 53.8369385,123.243713 C45.5475398,130.612456 52.4375943,138.555188 45.8749715,146.323931 C52.7680861,138.862947 65.1248071,137.468849 74.3121293,129.546663 C79.7901619,143.46098 94.4926752,143.113002 99.137921,157.02251 C103.779232,143.043494 118.490489,143.530925 123.96721,129.610926 C133.155407,137.533111 145.041745,138.692018 151.930925,146.149942 C145.370925,138.383822 152.260105,130.440652 143.969832,123.071035 C140.043275,119.582948 133.160215,116.093986 133.118248,116.072565 C137.609614,118.335735 158.639559,113.580762 160.244368,106.455079 C165.806335,81.7674296 123.622729,96.2692872 118.508849,63.8102716 C125.262073,74.3020746 143.246335,81.8977029 153.174641,83.7451345 C163.051362,85.5890689 169.248958,86.6994514 163.917373,99.0959538 C167.652018,99.405462 171.619668,97.3372653 174.834531,96.1342052 C175.730706,105.719779 171.208739,113.416828 166.687646,121.150161 C170.545132,123.067975 174.784258,123.731582 178.852017,125.290489" id="path32" fill="#FFFFFF"></path>
                        <path d="M67.9344245,129.494204 C65.8649164,127.669505 60.8314739,127.658139 59.2751898,129.932674 C58.3886324,131.22098 59.3132226,132.659232 58.9394521,133.900762 C58.59978,135.035188 57.0985778,135.817264 55.9007636,136.641308 C55.6555177,133.688303 55.5934412,129.283057 59.0395614,127.6118 C62.6767197,125.844368 67.8920202,126.496172 69.701419,129.456172 C68.9495065,129.573767 68.0148617,129.510816 67.4872114,129.320653" id="path34" fill="#FFFFFF"></path>
                    </g>
                </g>
            </g>
        </g>
    </g>
</svg>