<?xml version="1.0" encoding="UTF-8"?>
<svg width="200px" height="200px" viewBox="0 0 200 200" version="1.1" xmlns="http://www.w3.org/2000/svg" xmlns:xlink="http://www.w3.org/1999/xlink">
    <!-- Generator: Sketch 54.1 (76490) - https://sketchapp.com -->
    <title>missouri-st</title>
    <desc>Created with Sketch.</desc>
    <g id="missouri-st" stroke="none" stroke-width="1" fill="none" fill-rule="evenodd">
        <g id="missouri-st_BGL" transform="translate(0.000000, 0.000000)">
            <g id="missouri-st" transform="translate(0.000000, 13.000000)">
                <g id="g10" transform="translate(99.500000, 87.877891) scale(-1, 1) rotate(-180.000000) translate(-99.500000, -87.877891) translate(0.000000, 0.877891)" fill-rule="nonzero">
                    <g id="g12">
                        <path d="M30.7596032,171.34653 L31.2958408,171.470623 C37.0740585,172.829039 42.5325402,174.113527 48.9474575,170.229699 C50.8297017,169.100986 52.9646191,166.83696 54.7230349,164.827719 C57.1982824,167.44026 61.555774,171.225078 66.6480511,172.0396 L66.6455429,172.068643 L67.3778201,172.14785 L71.3485131,172.617817 C78.9238264,173.524748 86.7465325,174.471283 94.6364333,173.453461 L96.0468623,173.277883 L96.1989415,173.262042 L96.3279184,173.174913 C96.353661,173.161712 98.2359051,172.014517 99.4116147,171.374253 C100.589964,172.014517 102.469568,173.161712 102.487654,173.174913 L102.613991,173.262042 L102.784156,173.277883 L104.186796,173.453461 C112.076565,174.471283 119.899403,173.524748 127.46706,172.617817 L131.444881,172.14785 C131.444881,172.14785 132.178215,172.068643 132.178215,172.058082 L132.178215,172.0396 C137.272604,171.225078 141.625079,167.44026 144.100326,164.827719 C145.864023,166.83696 147.993396,169.100986 149.865343,170.229699 C156.285145,174.113527 161.746531,172.829039 167.532669,171.470623 L168.058082,171.34653 C177.103626,169.229039 187.137949,158.884484 189.994715,155.765013 L191.470622,154.155772 L191.965672,152.03696 C196.405276,133.111548 195.990754,128.754188 195.166992,125.904947 C194.389434,123.179667 192.187454,119.98508 190.212536,117.811482 C191.460061,116.362373 192.855441,114.980459 193.997355,113.856235 C195.203956,112.680525 195.837619,112.043562 196.110886,111.607918 C196.275903,111.32937 196.529368,110.983892 196.781513,110.607522 C197.879863,109.081053 199.231678,107.16277 198.699665,105.662176 C198.194054,104.197621 196.183493,103.609766 194.411876,103.083694 C193.770292,102.898083 193.159071,102.717621 192.707586,102.526862 C192.609896,102.472605 192.480523,102.444354 191.831018,102.294783 C193.759731,89.6710209 195.223757,69.6215164 195.214517,67.6516155 C195.214517,67.3783482 195.234319,67.0559719 195.255441,66.7079851 C195.34785,64.9288433 195.518147,61.9482493 192.671942,61.2984803 C191.04686,60.9324077 188.881843,61.525411 185.936629,63.1394044 C179.784814,49.0563684 169.834979,27.7330686 167.93927,24.5977552 C165.974913,21.3593394 163.526069,19.7710886 161.058742,20.1114186 C159.431019,20.3357091 156.430359,23.6798674 155.454782,24.8298344 C154.504287,24.4998014 152.546531,23.7726727 150.159732,22.8908245 C143.357092,20.3692404 132.038281,16.1613197 126.425343,14.6710227 L120.113396,8.96761694 L119.914848,8.78455424 L119.620987,8.78455424 L108.900063,8.78455424 L99.4116147,0 L89.9180176,8.78455424 L78.9135294,8.78455424 L72.3900972,14.6710227 C66.7795363,16.1613197 55.4547841,20.3692404 48.6638932,22.8908245 C46.2660054,23.7726727 44.3161705,24.4998014 43.3576227,24.8298344 C42.3829692,23.6798674 39.389438,20.3357091 37.7573588,20.1114186 C35.2897681,19.7710886 32.8455437,21.3593394 30.8832996,24.5977552 C28.9804613,27.7330686 19.0331348,49.0563684 12.8862439,63.1394044 C9.93915487,61.525411 7.77588099,60.9324077 6.1515114,61.2984803 C3.30446196,61.9482493 3.46947846,64.9288433 3.56281179,66.7079851 C3.58343225,67.0559719 3.59375569,67.3783482 3.59375569,67.6516155 C3.59375569,69.6215164 5.0582705,89.6710209 6.98690412,102.294783 C6.34231007,102.444354 6.20822427,102.472605 6.10509556,102.526862 C5.6564619,102.717621 5.0582705,102.898083 4.40594048,103.083694 C2.63458739,103.609766 0.625515496,104.197621 0.118089898,105.662176 C-0.410479198,107.16277 0.948328689,109.081053 2.03124747,110.607522 C2.29424417,110.983892 2.54176891,111.32937 2.71452138,111.607918 C2.97235636,112.043562 3.61953786,112.680525 4.81590747,113.856235 C5.96586124,114.980459 7.36333975,116.362373 8.61128691,117.811482 C6.62592723,119.98508 4.4291484,123.179667 3.65046856,125.907588 C2.83312204,128.754188 2.41284482,133.111548 6.85231666,152.03696 L7.34529355,154.155772 L8.82013179,155.765013 C11.6847126,158.884484 21.7197354,169.229039 30.7596032,171.34653" id="path14" fill="#231F20"></path>
                        <path d="M99.4116147,7.47215823 L92.8469944,14.3873264 L81.0690409,14.3873264 L80.2851465,15.083564 L75.1335955,19.734917 C62.1379522,23.045544 49.3033651,27.6196693 41.6198009,29.7597352 C41.3258075,29.4348507 41.0628373,29.1614514 40.9132663,29.0120125 C40.4980848,28.5838937 38.7267317,26.8616495 38.1775568,26.4491082 C37.8217812,26.1911545 36.9631674,26.1318805 36.6073918,26.5211875 C35.8699661,27.3075901 20.6007916,55.7033649 14.9747851,69.6962359 C14.9180194,69.6730016 11.8033264,67.8191402 10.9576103,67.7392722 C10.302706,67.6851468 9.49772914,67.7985462 9.33581495,68.5824405 C9.16769614,69.4151798 10.4419403,93.4458062 12.0508512,106.577423 C11.7698083,106.698611 8.19358395,107.993001 7.84241565,108.14772 C7.45617143,108.312737 6.75999983,108.714981 7.115815,109.382704 C7.49742556,110.076301 13.1956432,116.269568 16.0158412,119.208974 L15.8153131,119.456499 C12.210706,120.534254 9.93141889,124.296103 9.02640241,127.444353 C8.43079847,129.532802 8.36117471,133.941911 12.3030096,150.757752 L12.4680261,151.449501 L12.9507059,151.977554 C14.0774914,153.215838 24.2001314,164.067323 32.0359068,165.887785 L32.5696361,166.022438 C37.8088439,167.251481 41.5933983,168.14125 46.0596688,165.433659 C48.942309,163.701646 52.503101,161.061382 54.9293716,158.550491 C55.9606587,159.271283 57.0797345,160.774913 58.1883814,161.721448 C61.1794044,164.253461 64.2038268,166.269303 68.1023085,166.594055 L68.0327376,166.594055 L72.0034305,167.053461 C79.2435624,167.924748 86.7234302,168.822438 93.9351792,167.904946 L99.4116147,164.335309 L104.882902,167.904946 C112.097291,168.822438 119.579667,167.924748 126.809502,167.053461 L130.790492,166.594055 L130.713132,166.594055 C134.611218,166.269303 137.643561,164.253461 140.63498,161.721448 C141.728049,160.774913 142.862043,159.271283 143.889105,158.550491 C146.312868,161.061382 149.883825,163.701646 152.757752,165.433659 C157.223758,168.14125 161.008577,167.251481 166.248181,166.022438 L166.784154,165.887785 C174.612537,164.067323 184.740589,153.215838 185.860061,151.977554 L186.34983,151.449501 L186.509566,150.757752 C190.464682,133.941911 190.381513,129.532802 189.794055,127.444353 C188.887124,124.296103 186.604616,120.534254 183.005936,119.456499 L182.796035,119.208974 C185.622438,116.269568 191.330688,110.076301 191.697685,109.382704 C192.063362,108.714981 191.367652,108.312737 190.984814,108.14772 C190.624418,107.993001 187.058741,106.698611 186.764352,106.577423 C188.365672,93.4458062 189.65016,69.4151798 189.479863,68.5824405 C189.317487,67.7985462 188.514847,67.6851468 187.865342,67.7392722 C187.020457,67.8191402 183.899665,69.6730016 183.837619,69.6962359 C178.215177,55.7033649 162.950491,27.3075901 162.216498,26.5211875 C161.854781,26.1318805 160.994055,26.1911545 160.6429,26.4491082 C160.104286,26.8616495 158.322108,28.5838937 157.899666,29.0120125 C157.758412,29.1614514 157.502306,29.4348507 157.193395,29.7597352 C149.514188,27.6196693 136.674584,23.045544 123.684485,19.734917 L118.527786,15.083564 L117.754188,14.3873264 L116.697027,14.3873264 L105.965806,14.3873264 L99.4116147,7.47215823" id="path16" fill="#FFFFFF"></path>
                        <path d="M99.4116147,12.3556169 L92.7955092,17.3654121 L82.120922,17.3654121 C78.9804601,24.2368311 72.2896352,41.119999 72.2896352,41.119999 L48.5091737,48.8913519 C48.5091737,48.8913519 33.1007252,80.7652785 32.4947847,84.6740573 C31.0844877,93.7242221 31.8270619,101.531615 35.1067978,108.451878 C40.8772267,120.565146 57.5799326,134.153132 61.6306255,134.617818 C69.9355758,134.73399 94.4559712,120.397621 94.4559712,120.397621 C94.4559712,120.397621 92.0657403,115.542439 91.7899647,114.815443 L71.1937936,122.493858 C66.3928696,121.947192 57.064289,121.379931 57.064289,121.379931 C57.064289,121.379931 45.3532662,104.723562 44.0382827,102.176103 C43.8370946,101.76871 44.2368306,101.66046 44.2368306,101.66046 L53.1709558,112.448446 C58.4694375,117.218479 61.2489754,118.755113 64.4900314,119.554452 C66.5630346,120.064947 71.7867969,120.431152 75.548645,118.265212 C71.4258728,117.914585 68.5895692,115.222835 68.5895692,115.222835 L68.5844207,114.454387 C68.5844207,114.454387 71.6528035,112.288578 75.0613843,112.350492 C70.6213844,109.957753 56.6620448,98.6901625 55.3522098,96.1324068 C55.1407247,95.7379514 55.5372923,95.6219118 55.5372923,95.6219118 C55.5372923,95.6219118 57.0075233,95.4182154 57.3735959,95.3279184 C57.4252131,91.2592716 60.4368302,79.8576878 63.5308235,72.7928695 C66.2019785,71.7151137 69.4327375,70.9159058 72.3411203,69.9231666 C74.2052787,65.1712195 85.0732652,29.1048178 86.3495688,26.5522106 C91.6759053,25.9333327 95.8586115,25.5569631 95.8586115,25.5569631 L99.4116147,22.2978212 L102.954321,25.5569631 C102.954321,25.5569631 107.151945,25.9333327 112.467984,26.5522106 C113.737159,29.1048178 124.61267,65.1712195 126.479469,69.9231666 C129.393,70.9159058 132.619139,71.7151137 135.281845,72.7928695 C138.381515,79.8576878 141.398016,91.2592716 141.452142,95.3279184 C141.809897,95.4182154 143.269963,95.6219118 143.269963,95.6219118 C143.269963,95.6219118 143.680524,95.7379514 143.470623,96.1324068 C142.166333,98.6901625 128.201845,109.957753 123.759337,112.350492 C127.170426,112.288578 130.23366,114.454387 130.23366,114.454387 L130.22838,115.222835 C130.22838,115.222835 127.392208,117.914585 123.271944,118.265212 C127.026135,120.431152 132.260063,120.064947 134.33267,119.554452 C137.572274,118.755113 140.345871,117.218479 145.652802,112.448446 L154.583494,101.66046 C154.583494,101.66046 154.980854,101.76871 154.774914,102.176103 C153.474584,104.723562 141.761053,121.379931 141.761053,121.379931 C141.761053,121.379931 132.43564,121.947192 127.629436,122.493858 L107.033265,114.815443 C106.762638,115.542439 104.351813,120.397621 104.351813,120.397621 C104.351813,120.397621 128.890294,134.73399 137.182835,134.617818 C141.240921,134.153132 157.951151,120.565146 163.705606,108.451878 C166.996695,101.531615 167.728049,93.7242221 166.326068,84.6740573 C165.717488,80.7652785 150.303627,48.8913519 150.303627,48.8913519 L126.525937,41.119999 C126.525937,41.119999 119.842769,24.2368311 116.697027,17.3654121 L106.022572,17.3654121 L99.4116147,12.3556169" id="path18" fill="#711F23"></path>
                        <path d="M99.4116147,12.2602109 L99.365146,12.2952736 L92.7696346,17.2896365 L82.0719451,17.2896365 L82.0513511,17.3334649 C79.0125393,23.9841578 72.568051,40.2124082 72.2318134,41.0582168 L48.4550483,48.8294377 L48.4406589,48.8578206 C48.2864674,49.1775565 33.0198012,80.7874567 32.4190091,84.6627042 C30.9751807,93.9279184 31.8322104,101.720261 35.0376229,108.484882 C40.9045534,120.799865 57.6732659,134.241581 61.6217806,134.693066 C61.6547839,134.693066 61.6888433,134.694386 61.7223747,134.694386 C70.057292,134.694386 94.2496346,120.606466 94.4946511,120.463627 L94.5549811,120.427984 L94.52409,120.364089 C94.4997996,120.315641 92.132803,115.503759 91.8605918,114.788512 L91.8337931,114.717357 L71.1840246,122.415971 C66.5820445,121.893066 57.7500976,121.345872 57.1049491,121.306664 C56.5433649,120.505872 45.3768966,104.603958 44.1058735,102.141648 C44.0542563,102.036961 44.0439593,101.948776 44.0753784,101.878545 C44.1058735,101.811615 44.1697679,101.771351 44.2125401,101.751285 L53.1120779,112.496895 C58.6809226,117.511284 61.3996024,118.870624 64.4719456,119.628776 C66.8687772,120.219139 72.0096352,120.390888 75.5862687,118.331218 L75.7972258,118.21003 L75.5548496,118.189436 C71.7027045,117.862043 68.9465329,115.444486 68.6654768,115.189304 L68.6607244,114.494123 C68.9933976,114.269304 71.8162358,112.425212 74.918546,112.425212 C74.9659387,112.425212 75.0129354,112.42574 75.0598001,112.426268 L75.0974239,112.28343 C73.0403942,111.174651 68.6133316,107.944024 64.0810545,104.243958 C59.3229028,100.359997 56.003563,97.2380174 55.4198006,96.0978194 C55.3656752,95.9957732 55.3527379,95.9106247 55.3811207,95.8426379 C55.4254772,95.7368953 55.5574904,95.6957072 55.5589425,95.6946511 C55.6084475,95.6889745 57.0261372,95.4924069 57.3916817,95.4022418 L57.4489755,95.3878524 L57.4495035,95.3284465 C57.5031009,91.0999317 60.6559721,79.5585459 63.5881172,72.8521434 C65.1969621,72.2050147 67.0440907,71.6471269 68.8304933,71.108249 C70.0051468,70.7533976 71.2184801,70.387325 72.3654107,69.9953778 L72.3989421,69.9840247 L72.4118794,69.9515494 C73.2900312,67.7135297 76.1056087,58.7215827 79.0862026,49.2006588 C82.330823,38.8345865 85.6852784,28.1188112 86.3996018,26.6233657 C91.6455423,26.0149168 95.823496,25.636831 95.8648161,25.6332667 L95.8905587,25.6306264 L95.9102286,25.6135967 L99.4116147,22.4010555 L102.921846,25.6306264 L102.947588,25.6332667 C102.988908,25.636831 107.182836,26.0149168 112.417951,26.6233657 C113.124486,28.1120785 116.455707,38.7469297 119.677753,49.0356423 C122.684089,58.6339259 125.523957,67.7005924 126.408314,69.9515494 L126.421251,69.9840247 L126.454782,69.9953778 C127.59432,70.3836286 128.799997,70.7482491 129.963957,71.1004603 C131.757488,71.6419784 133.611878,72.2014503 135.225079,72.8521434 C138.161053,79.5560376 141.318808,91.0974235 141.375574,95.3289745 L141.376894,95.3873243 L141.43366,95.4022418 C141.791416,95.4920108 143.193396,95.6884465 143.259402,95.6971593 C143.256762,95.6971593 143.394056,95.7404597 143.43894,95.8483144 C143.466663,95.9153771 143.456102,95.9988095 143.404617,96.0968953 C142.821119,97.2380174 139.502307,100.359997 134.743231,104.243958 C130.210426,107.944024 125.781779,111.174651 123.723165,112.28343 L123.760261,112.426268 C123.808314,112.42574 123.854122,112.425212 123.901119,112.425212 C127.00805,112.425212 129.824683,114.268776 130.157224,114.494123 L130.152076,115.189304 C129.87102,115.444486 127.114848,117.862043 123.265211,118.189436 L123.022835,118.21003 L123.233264,118.331218 C126.802769,120.391944 131.949304,120.218611 134.351152,119.628776 C137.415178,118.87168 140.13201,117.512868 145.704287,112.505212 L154.607257,101.751285 C154.649501,101.771879 154.712867,101.811615 154.74059,101.877621 C154.772273,101.947192 154.760392,102.036433 154.706267,102.142176 C153.450821,104.604486 142.282505,120.505872 141.720128,121.306664 C141.075904,121.345872 132.245541,121.893066 127.638149,122.415971 L106.987984,114.717357 L106.96211,114.78904 C106.695575,115.503759 104.307984,120.315113 104.283166,120.363561 L104.252275,120.427456 L104.313133,120.463627 C104.558017,120.606466 128.767522,134.694386 137.082505,134.694386 C137.118148,134.694386 137.149832,134.694386 137.182835,134.693066 C141.148511,134.240261 157.923428,120.799865 163.774253,108.484882 C166.980854,101.74046 167.84026,93.9479844 166.399996,84.6627042 C165.796696,80.7874567 150.526729,49.1775565 150.372273,48.8578206 L150.357752,48.8294377 L150.327389,48.8191407 L126.583627,41.0582168 C126.246862,40.2099 119.810294,23.9831017 116.76673,17.3334649 L116.746136,17.2896365 L106.048314,17.2896365 L99.4116147,12.2602109 Z M82.1700309,17.4411877 L92.8212518,17.4411877 L92.8418459,17.4262702 L99.4116147,12.4510096 L105.996829,17.4411877 L116.64805,17.4411877 C119.76541,24.2615175 126.38772,40.979801 126.454782,41.1483818 L126.467588,41.1819132 L126.502703,41.1922102 L150.249501,48.9531341 C150.792075,50.0789426 165.659402,80.8838264 166.250821,84.6854104 C167.684484,93.9403277 166.829039,101.70376 163.63696,108.418875 C157.804617,120.696103 141.107587,134.092406 137.173594,134.542571 C137.140591,134.542571 137.107587,134.542571 137.074584,134.542571 C129.015046,134.542571 105.821516,121.162901 104.452407,120.367126 C104.739535,119.786004 106.724882,115.778611 107.077093,114.912868 L127.620195,122.571614 L127.638149,122.569106 C132.388116,122.029172 141.672604,121.461911 141.766333,121.456235 L141.803297,121.453726 L141.823099,121.423759 C141.940591,121.256763 153.555112,104.733859 154.84224,102.211219 C154.917488,102.061648 154.930689,101.928578 154.880524,101.814651 C154.803957,101.642902 154.612537,101.588776 154.604617,101.587192 L154.557092,101.574387 L154.524089,101.612011 L145.593396,112.399997 C140.054122,117.378347 137.354452,118.729898 134.315508,119.480261 C131.981779,120.054122 127.044089,120.230492 123.520525,118.317357 C127.491218,117.886202 130.25267,115.304816 130.281053,115.278413 L130.304287,115.255839 L130.309436,114.415179 L130.277488,114.392472 C130.247521,114.37135 127.33135,112.337027 124.054254,112.274585 C128.771614,109.598809 142.246861,98.7004596 143.53927,96.1675223 C143.613198,96.0271923 143.626399,95.8994035 143.578874,95.7874564 C143.503627,95.6105587 143.299006,95.5512847 143.291086,95.5486445 C143.267323,95.5445521 141.953792,95.3609217 141.527389,95.2675884 C141.441581,90.9668624 138.283825,79.4451465 135.351812,72.7619784 L135.33861,72.7335955 L135.310888,72.7217144 C133.684485,72.0648167 131.815178,71.5000642 130.007786,70.9535296 C128.856762,70.6054108 127.665475,70.2454108 126.537291,69.8628365 C125.639997,67.5629026 122.81399,58.5396685 119.823099,48.9907579 C116.57069,38.6060716 113.206994,27.8686462 112.536631,26.5186792 L112.518545,26.4815835 L112.477357,26.476435 C107.434057,25.8895043 103.348776,25.5156429 102.986268,25.4836957 L99.4116147,22.1947189 L99.3599975,22.2411876 L95.8261362,25.4836957 C95.4650801,25.5156429 91.392869,25.8895043 86.3401959,26.476435 L86.2990077,26.4815835 L86.2809219,26.5186792 C85.6027701,27.8748508 82.2163676,38.6937284 78.9403281,49.1543222 C75.9751796,58.6273253 73.1729355,67.5758399 72.2829025,69.8628365 C71.1483811,70.2496352 69.9483811,70.6116154 68.7866649,70.9622425 C66.986401,71.5052127 65.1247508,72.0673249 63.5024407,72.7217144 L63.4731337,72.7335955 L63.4612525,72.7619784 C60.5331998,79.4476548 57.3803286,90.9700307 57.2978203,95.2675884 C56.864157,95.3609217 55.5409887,95.5445521 55.5275234,95.5466643 C55.5079854,95.5512847 55.31353,95.6095026 55.2402626,95.783892 C55.193398,95.8957072 55.2083155,96.0257402 55.2851471,96.1685785 C56.5825728,98.7030998 70.0551798,109.600921 74.7663348,112.274585 C71.4902952,112.336499 68.5700313,114.37135 68.5405923,114.392076 L68.507589,114.415179 L68.5132656,115.255839 L68.537028,115.278413 C68.5648828,115.304816 71.3268629,117.886202 75.298612,118.317357 C71.7729355,120.229436 66.8378861,120.055179 64.5079852,119.480261 C61.4604605,118.728842 58.7588104,117.376235 53.2213848,112.39168 L44.2636293,101.574387 L44.2166326,101.587192 C44.2084477,101.588776 44.0139923,101.643958 43.9366326,101.815707 C43.8851474,101.929106 43.8970286,102.062176 43.9696359,102.209634 C45.2723421,104.733859 56.8847511,121.256763 57.0013187,121.423759 L57.0224408,121.453726 L57.0596685,121.456235 C57.1530019,121.461911 66.4407904,122.029172 71.1850807,122.569106 L71.2030345,122.571614 L71.2200642,122.565541 L91.7461363,114.912868 C92.1003277,115.777159 94.0702287,119.786532 94.3564333,120.367126 C92.9898327,121.160789 69.8112194,134.542571 61.7310876,134.542571 C61.6975562,134.542571 61.6645529,134.542571 61.6315496,134.541251 C57.7130019,134.092406 41.0241574,120.696103 35.1753127,108.418875 C31.9828375,101.683694 31.1308243,93.9201297 32.5701642,84.6854104 C33.1590751,80.8838264 48.0203288,50.0789426 48.5638272,48.9531341 L72.3467969,41.1819132 L72.3602622,41.1483818 C72.4267969,40.979801 79.0578198,24.2615175 82.1700309,17.4411877 L82.1700309,17.4411877 Z" id="path20" fill="#FFFFFF"></path>
                        <path d="M99.4116147,28.7025735 L87.7057404,28.7025735 C81.9817801,47.921847 80.0324732,62.1390083 79.0836944,71.0498992 C76.329371,71.6790741 63.8865991,75.4718133 63.8865991,75.4718133 C63.8865991,75.4718133 61.4088433,90.2331331 61.7800645,96.9729349 C64.1728037,100.897291 66.9060049,103.697423 70.6522755,106.48211 C74.408975,109.266664 82.8274567,113.510756 90.5986776,112.195773 L79.9912851,93.1312188 C81.4042224,89.041846 83.0440903,86.7986777 85.410955,83.0238923 C85.9446843,83.2069946 85.7926051,83.3024402 86.6331331,83.6273246 C84.9082487,87.1906249 84.0753774,90.382572 83.4720771,93.1827039 C83.3173577,93.8608557 83.1986778,94.2708887 83.1986778,94.4359052 C83.1986778,94.9515488 83.4128032,95.3768953 83.76079,95.70442 C88.1801958,99.8865982 93.723694,103.310624 99.4116147,103.310624 C105.102044,103.310624 110.637885,99.8865982 115.052142,95.70442 C115.413066,95.3768953 115.614123,94.9515488 115.614123,94.4359052 C115.614123,94.2708887 115.500723,93.8608557 115.351152,93.1827039 C114.737555,90.382572 113.907324,87.1906249 112.190096,83.6273246 C113.025476,83.3024402 112.875905,83.2069946 113.412274,83.0238923 C115.768314,86.7986777 117.418479,89.041846 118.831944,93.1312188 L108.209106,112.195773 C116.000921,113.510756 124.414254,109.266664 128.165673,106.48211 C131.919865,103.697423 134.653462,100.897291 137.040261,96.9729349 C137.411218,90.2331331 134.941251,75.4718133 134.941251,75.4718133 C134.941251,75.4718133 122.488182,71.6790741 119.731878,71.0498992 C118.782967,62.1390083 116.836301,47.921847 111.117489,28.7025735 L99.4116147,28.7025735" id="path22" fill="#711F23"></path>
                        <path d="M111.174255,28.626798 L87.6489747,28.626798 L87.632077,28.6809234 C81.9044204,47.9140582 79.9691069,62.0307575 79.0139914,70.987985 C76.1854766,71.6455428 63.9877212,75.3609222 63.8644208,75.398678 L63.8196684,75.4125394 L63.8108235,75.459008 C63.7866651,75.6075229 61.3366321,90.3057403 61.7037608,96.9771593 L61.7145859,97.0131989 C63.9980182,100.757489 66.6574241,103.607654 70.6069949,106.543364 C74.3250146,109.298215 82.7295029,113.603562 90.6116149,112.27102 L90.7173575,112.252934 L90.6657403,112.159073 L80.0737934,93.1239581 C81.2685128,89.6777535 82.6056745,87.5778196 84.4543873,84.6766976 C84.7700309,84.1816481 85.0990078,83.6649484 85.4429022,83.1157735 C85.6389418,83.1878527 85.7265985,83.2456745 85.8348493,83.3168296 C85.9654104,83.4019781 86.1262025,83.5075887 86.5284467,83.6685128 C84.7998659,87.26178 83.9758395,90.4847502 83.3972256,93.1667303 C83.3467966,93.3869284 83.300328,93.5797996 83.2600639,93.7448161 C83.1739913,94.1007237 83.1223742,94.3161693 83.1223742,94.4359052 C83.1223742,94.9412518 83.3251464,95.3996016 83.7093048,95.7601296 C87.3845523,99.2393375 93.0945191,103.386928 99.4116147,103.386928 C105.72871,103.386928 111.432076,99.2393375 115.104684,95.7601296 C115.492934,95.4073904 115.69003,94.9618458 115.69003,94.4359052 C115.69003,94.3147171 115.639997,94.0954432 115.554849,93.7324069 C115.517225,93.5710868 115.473396,93.3817798 115.426004,93.1667303 C114.832868,90.4641562 113.997489,87.2241562 112.294255,83.6685128 C112.69135,83.5086448 112.85267,83.4029022 112.982703,83.3178857 C113.092538,83.2472586 113.180195,83.1889088 113.379799,83.1157735 C113.743231,83.6968956 114.090294,84.2425061 114.421383,84.7643543 C116.245938,87.6356414 117.56607,89.712737 118.749436,93.1239581 L108.090426,112.252934 L108.196169,112.27102 C116.104024,113.603033 124.497687,109.299667 128.210558,106.543364 C132.166333,103.609766 134.825079,100.759601 137.104947,97.0121428 L137.116828,96.9771593 C137.483825,90.3057403 135.040261,75.6075229 135.016498,75.459008 L135.008577,75.4125394 L134.963693,75.398678 C134.839601,75.3609222 122.632472,71.6455428 119.801449,70.987985 C118.845938,62.025609 116.911152,47.9053453 111.190756,28.6809234 L111.174255,28.626798 Z M87.7625061,28.7788772 L111.060723,28.7788772 C116.777027,48.0032991 118.703099,62.1132658 119.655575,71.057688 L119.662175,71.1118134 L119.714848,71.1247507 C122.354056,71.7269949 134.047521,75.2794701 134.875244,75.5310872 C135.027059,76.4516153 137.316168,90.4744532 136.966333,96.9498326 C134.699667,100.670361 132.052802,103.504024 128.120393,106.420723 C124.443561,109.150228 116.154057,113.407126 108.327654,112.138479 L118.914452,93.1383475 L118.903627,93.1058723 C117.713,89.6596677 116.386136,87.571615 114.549304,84.6818461 C114.208974,84.1454764 113.851614,83.5834963 113.476697,82.9841563 L113.444222,82.9326712 L113.387456,82.9516811 C113.12805,83.040922 113.022835,83.110625 112.899139,83.190493 C112.759865,83.2817141 112.601053,83.3849484 112.162769,83.5565656 L112.08541,83.5860045 L112.121449,83.660724 C113.842769,87.231813 114.681845,90.4863344 115.276433,93.1986775 C115.323825,93.4153112 115.367654,93.6046181 115.406334,93.7675224 C115.482637,94.0950472 115.537819,94.3321429 115.537819,94.4359052 C115.537819,94.9164333 115.357357,95.3248821 115.000525,95.6476544 C111.346928,99.1099645 105.678149,103.234849 99.4116147,103.234849 C93.1445521,103.234849 87.4695688,99.1099645 83.8134633,95.6492385 C83.4566316,95.3130009 83.2745854,94.9050801 83.2745854,94.4359052 C83.2745854,94.3342551 83.331219,94.1021759 83.4085788,93.7804597 C83.4488428,93.6154432 83.4953114,93.4220439 83.5467966,93.1997336 C84.1269946,90.5069284 84.9545853,87.2694368 86.701252,83.660724 L86.7372916,83.5860045 L86.6599318,83.5565656 C86.2154434,83.3849484 86.0582157,83.28079 85.9189417,83.1889088 C85.7961695,83.1090408 85.6904269,83.0393379 85.4352454,82.9516811 L85.3784797,82.9326712 L85.3465325,82.9841563 C84.990757,83.5514171 84.6504269,84.0851464 84.3255424,84.5941893 C82.4665326,87.5144533 81.1231663,89.6240242 79.9190739,93.1058723 L79.9087769,93.1383475 L79.9242224,93.1677864 L90.4801298,112.138479 C82.6675887,113.411746 74.378612,109.1497 70.6971599,106.420723 C66.7708234,103.501912 64.1248829,100.66838 61.8549159,96.9498326 C61.5042889,90.4733971 63.8015826,76.4505591 63.9541898,75.5310872 C64.7803284,75.2794701 76.4640245,71.7269949 79.100196,71.1247507 L79.1532653,71.1118134 L79.15947,71.057688 C80.1108891,62.1173582 82.0384138,48.012012 87.7625061,28.7788772 L87.7625061,28.7788772 Z" id="path24" fill="#FFFFFF"></path>
                        <path d="M99.1898325,64.8205924 L97.513925,68.2935957 L97.2071263,68.3038927 L95.5801956,64.4802624 L95.2578194,64.3306915 L92.7955092,68.0435627 L92.553133,68.0384141 C92.4887106,67.3989422 91.903364,59.9215827 91.4283806,58.0290415 C91.382572,57.8769622 91.0318129,57.8563682 91.0060703,57.9981504 C89.3198658,61.8605925 88.4483146,64.846335 87.5252783,68.7139257 C92.8006577,71.797622 96.543892,72.0657408 99.4116147,72.0657408 C102.268512,72.0657408 106.012275,71.797622 111.295443,68.7139257 C110.372274,64.846335 109.497687,61.8605925 107.817159,57.9981504 C107.780987,57.8563682 107.425212,57.8769622 107.384024,58.0290415 C106.909568,59.9215827 106.332011,67.3989422 106.270096,68.0384141 L106.02772,68.0435627 L103.557093,64.3306915 L103.26376,64.4802624 L101.613595,68.3038927 L101.299007,68.2935957 L99.6282483,64.8205924 L99.1898325,64.8205924" id="path26" fill="#FFFFFF"></path>
                        <path d="M99.4116147,36.5305601 C96.1680504,36.5305601 92.8547832,35.4347186 92.8547832,35.4347186 C92.8547832,35.4347186 91.7743871,39.8928043 91.2175555,43.1827052 L91.3669944,43.2137283 C93.5277864,41.5067976 95.7452121,38.2322103 95.7452121,38.2322103 L97.183892,41.470758 L97.3024398,41.4990089 L99.4116147,38.639603 L101.515509,41.4990089 L101.641978,41.470758 L103.062044,38.2322103 C103.062044,38.2322103 105.289766,41.5067976 107.450954,43.2137283 L107.608314,43.1827052 C107.038413,39.8928043 105.965806,35.4347186 105.965806,35.4347186 C105.965806,35.4347186 102.644882,36.5305601 99.4116147,36.5305601" id="path28" fill="#FFFFFF"></path>
                        <path d="M99.1073243,136.53069 C99.1073243,136.53069 98.0167632,150.722108 97.1478524,162.370953 L93.4658723,165.749171 C85.2666645,166.801316 76.5103611,165.0429 68.3260709,164.129369 C66.1015165,163.94455 64.0516156,162.660062 62.0611206,161.077224 C59.6168962,159.153791 55.3367643,153.13531 55.3367643,153.13531 C54.4962363,154.244221 52.0518799,157.885145 50.5512859,159.13795 C48.7464014,160.653461 46.6372266,162.154451 44.6462035,163.355771 C41.0112201,165.552471 38.0048835,164.74587 32.6650817,163.495705 C27.3097023,162.23762 19.4611216,155.306927 14.954059,150.389435 C13.2265343,143.023099 10.7487654,131.631548 11.6537687,128.455046 C12.1642901,126.686201 13.943366,122.581515 17.3056101,122.171482 C17.3056101,122.171482 33.2657417,134.650822 38.0435634,137.654122 C38.0719462,137.621119 37.8036954,139.753132 37.8036954,139.753132 C37.8036954,139.753132 34.678679,138.097686 34.3848176,138.405277 C34.0753787,138.706267 33.68858,144.307587 37.6386789,147.178874 C35.4109562,147.498346 34.8644216,147.498346 31.3449497,145.796696 C29.8314184,145.065343 27.5185472,142.922769 26.6702304,140.996696 C25.5434977,138.418478 28.0620455,137.376894 28.0620455,137.376894 L24.3807255,134.988776 C23.555643,136.990096 23.1044219,138.175574 22.9676562,140.264023 C22.9676562,140.264023 29.9757088,149.066663 38.8454116,153.284485 C40.4414511,152.369633 41.5933983,141.073264 41.4986128,137.386135 C27.9749168,128.547852 14.5725409,114.464684 12.0044353,110.607522 C11.6022043,110.009238 12.2313264,109.751416 12.2313264,109.751416 C12.2313264,109.751416 14.6291746,108.977951 15.3460062,108.818083 C13.4715508,94.9205257 12.2880525,76.9956416 12.8192076,72.3906253 C12.9068644,71.6584801 13.5405937,71.8827705 13.5405937,71.8827705 C13.5405937,71.8827705 15.9519468,72.9992061 16.6120128,73.3395361 C21.4413196,60.1742559 34.4054117,35.249108 37.0224413,31.4407913 C37.4273258,30.8348507 37.8913522,31.327392 37.8913522,31.327392 C37.8913522,31.327392 39.5622432,33.2250817 39.99023,33.838679 C46.2349823,31.3401972 62.2880512,26.0596693 76.4640245,22.4731348 L69.1181501,40.2072597 L48.7155103,45.4671936 C42.9295039,53.553002 30.9658078,76.8950476 29.0578211,81.0617802 C28.6298343,80.7910211 26.386666,80.4429023 26.386666,80.4429023 C26.386666,80.4429023 25.9792733,80.3114171 25.8916165,80.7523412 C26.5516825,90.7436281 29.7746527,100.061912 32.598019,112.329766 C32.2190091,112.417555 29.2899003,112.690822 29.2899003,112.690822 C29.2899003,112.690822 28.8310224,112.866136 29.1119465,113.211614 C35.0551806,120.441449 53.8102957,134.704947 64.4481832,139.650162 C66.0937277,139.423099 99.4116147,122.97333 99.4116147,122.97333 C99.4116147,122.97333 132.73003,139.423099 134.369634,139.650162 C145.012538,134.704947 163.762372,120.441449 169.713527,113.211614 C169.992075,112.866136 169.523428,112.690822 169.523428,112.690822 C169.523428,112.690822 166.604616,112.417555 166.217818,112.329766 C169.0429,100.061912 172.266662,90.7436281 172.926728,80.7523412 C172.83828,80.3114171 172.429039,80.4429023 172.429039,80.4429023 C172.429039,80.4429023 170.183494,80.7910211 169.754451,81.0617802 C167.84158,76.8950476 155.893065,53.553002 150.113528,45.4671936 L129.705079,40.2072597 L122.348908,22.4731348 C136.525409,26.0596693 152.583495,31.3401972 158.83828,33.838679 C159.266003,33.2250817 160.926729,31.327392 160.926729,31.327392 C160.926729,31.327392 161.386135,30.8348507 161.798016,31.4407913 C164.413197,35.249108 177.382174,60.1742559 182.208576,73.3395361 C182.868642,72.9992061 185.276563,71.8827705 185.276563,71.8827705 C185.276563,71.8827705 185.922108,71.6584801 185.998675,72.3906253 C186.529368,76.9956416 185.34653,94.9205257 183.466662,108.818083 C184.199335,108.977951 186.576893,109.751416 186.576893,109.751416 C186.576893,109.751416 187.210556,110.009238 186.813197,110.607522 C184.256101,114.464684 170.84092,128.547852 157.320128,137.386135 C157.223758,141.073264 158.376234,152.369633 159.974913,153.284485 C168.847521,149.066663 175.850821,140.264023 175.850821,140.264023 C175.705606,138.175574 175.262042,136.990096 174.436959,134.988776 L170.755111,137.376894 C170.755111,137.376894 173.281844,138.418478 172.153131,140.996696 C171.296365,142.922769 168.994055,145.065343 167.475903,145.796696 C163.959072,147.498346 163.407257,147.498346 161.178874,147.178874 C165.127389,144.307587 164.74323,138.706267 164.44092,138.405277 C164.134649,138.097686 161.008577,139.753132 161.008577,139.753132 C161.008577,139.753132 160.74323,137.621119 160.777554,137.654122 C165.560392,134.650822 181.507586,122.171482 181.507586,122.171482 C184.875243,122.581515 186.658741,126.686201 187.159071,128.455046 C188.071282,131.631548 185.586794,143.023099 183.858741,150.389435 C179.362372,155.306927 171.503626,162.23762 166.155771,163.495705 C160.815838,164.74587 157.809897,165.552471 154.166333,163.355771 C152.178214,162.154451 150.073924,160.653461 148.271943,159.13795 C146.768313,157.885145 144.316828,154.244221 143.486465,153.13531 C143.486465,153.13531 139.203957,159.153791 136.764353,161.077224 C134.764353,162.660062 132.708908,163.94455 130.486333,164.129369 C122.292142,165.0429 113.546268,166.801316 105.357357,165.749171 L101.675377,162.370953 C100.814255,150.722108 99.7159051,136.53069 99.7159051,136.53069 L99.1073243,136.53069" id="path30" fill="#711F23"></path>
                        <path d="M122.262307,22.3984153 L122.302439,22.4928047 L129.667323,40.250164 L129.692142,40.2562366 L150.081844,45.5126061 C155.733329,53.4256092 167.625078,76.5444205 169.708247,81.0823742 L169.733329,81.1355755 L169.782174,81.1045524 C170.195375,80.8426382 172.414517,80.4971597 172.436959,80.4934633 C172.44488,80.4909551 172.604616,80.4419782 172.726068,80.5166977 C172.801316,80.559998 172.851481,80.6414501 172.875243,80.7564336 C172.410557,87.7671265 170.699666,94.3867963 168.718148,102.052935 C167.878544,105.304288 167.008577,108.667456 166.168973,112.318545 L166.157092,112.36805 L166.205936,112.379271 C166.586134,112.464948 169.313527,112.722241 169.511547,112.740327 C169.54323,112.754717 169.710887,112.829568 169.74521,112.955905 C169.763692,113.022835 169.73993,113.098743 169.673923,113.180195 C166.829039,116.635773 160.884484,121.89465 153.770293,127.247258 C146.418478,132.778875 139.345211,137.280525 134.361713,139.597356 C132.578215,139.285805 99.7659381,123.09201 99.4332648,122.927522 L99.4116147,122.916697 L99.3894365,122.927522 C99.0567632,123.09201 66.2448828,139.285805 64.4554439,139.597356 C59.4724738,137.279204 52.4010548,132.778875 45.0500319,127.247258 C37.9342565,121.892538 31.9904942,116.63366 29.1511544,113.179139 C29.0842237,113.096631 29.0588772,113.020327 29.077491,112.95168 C29.1104943,112.827984 29.2693062,112.754717 29.3017814,112.740327 C29.5013854,112.722241 32.2369629,112.464948 32.6093721,112.379271 L32.6588771,112.36805 L32.6475239,112.318545 C31.8054117,108.662308 30.9359728,105.295443 30.0949167,102.039469 C28.1157749,94.3791396 26.406204,87.7625061 25.9421776,80.7564336 C25.966864,80.640526 26.016369,80.559998 26.0912205,80.5166977 C26.2138607,80.4419782 26.3696363,80.4909551 26.3712205,80.4920112 C26.4010554,80.4971597 28.6159729,80.8426382 29.0304943,81.1045524 L29.0794712,81.1355755 L29.1042897,81.0823742 C31.1695042,76.5717473 43.0290418,53.5091736 48.7453453,45.5126061 L69.1553778,40.250164 L69.1651468,40.2269297 L76.549041,22.3999994 L76.4510872,22.4241579 C62.1622427,26.0390753 46.1304279,31.3314844 40.0083158,33.7767648 C39.549834,33.1347847 37.9460057,31.3119464 37.929108,31.2938606 C37.9202631,31.2835636 37.7320123,31.087524 37.4819793,31.087524 C37.469042,31.087524 37.4561047,31.0891081 37.4427713,31.0891081 C37.269042,31.1045537 37.1137945,31.2129365 36.979669,31.4124085 C34.2001312,35.4579529 21.3185473,60.3898335 16.584158,73.2689091 C15.8653461,72.9037606 13.5860063,71.848183 13.5622439,71.8363018 C13.5467983,71.8311533 13.2683825,71.7331995 13.0383627,71.877622 C12.8888182,71.9704272 12.7975442,72.1405923 12.7686729,72.3845526 C12.2137951,77.1957736 13.4617818,95.2098986 15.2892405,108.778875 C14.5276564,108.957753 12.2390624,109.695179 12.2158677,109.702968 C12.2003957,109.7097 11.9198677,109.826796 11.8399337,110.089766 C11.789399,110.256235 11.8301383,110.439865 11.9621515,110.635773 C14.5287125,114.490558 28.0352468,128.641713 41.4480518,137.413858 C41.540857,141.269963 40.3656756,152.253462 38.8427713,153.227719 C30.2686461,149.14059 23.355511,140.664023 23.0198014,140.248181 C23.1564351,138.192736 23.6128047,136.986135 24.4043558,135.065343 L27.957359,137.368973 C27.6862039,137.499667 26.8574251,137.963033 26.496501,138.859402 C26.2370951,139.503627 26.2793393,140.229699 26.6238937,141.016498 C27.4654779,142.929369 29.7757088,145.094386 31.3227715,145.842901 C34.8679859,147.557752 35.4011872,147.552472 37.6454116,147.230359 L37.76924,147.211878 L37.6681179,147.13795 C34.9004612,145.124749 34.3770288,141.800657 34.2806592,140.464683 C34.198151,139.324089 34.3296361,138.529369 34.4198011,138.440921 C34.6029034,138.249501 36.4954446,139.118148 37.779537,139.799336 L37.8450156,139.83234 L37.8537284,139.759732 C38.1214512,137.633 38.1115502,137.629039 38.0646855,137.607917 L38.0631014,137.607917 C33.3338606,134.63102 17.4963692,122.256103 17.3370293,122.131746 L17.3199996,122.118413 L17.2988775,122.121449 C13.4003957,122.596433 11.7765014,127.843957 11.6047918,128.441053 C10.9220327,130.838017 12.0008314,138.021119 14.904026,150.401316 L14.9077224,150.414518 L14.9164353,150.423759 C18.8015837,154.662702 26.9090422,162.195375 32.6532005,163.54455 L33.1601312,163.663362 C38.1317482,164.830359 41.1355765,165.53795 44.6730022,163.399336 C46.6980846,162.176894 48.7969625,160.677224 50.5837611,159.176234 C51.7656753,158.190095 53.4916158,155.780854 54.6343221,154.187455 C54.913926,153.798016 55.1572263,153.458742 55.3351801,153.221118 C55.7786125,153.83894 59.7338599,159.309567 62.0291734,161.116828 C65.1898334,163.630359 67.0529356,164.073923 68.3219785,164.180854 C70.117094,164.380194 71.9801962,164.627059 73.7815163,164.864682 C80.3108891,165.728049 87.062176,166.621778 93.4720769,165.799336 L93.4875224,165.796696 L93.5004597,165.786134 L97.1968293,162.394715 L97.1977533,162.374913 C98.0322088,151.190755 99.0842219,137.493066 99.154849,136.582175 L99.6694365,136.582175 C99.7390074,137.491746 100.797225,151.190755 101.624948,162.374913 L101.6264,162.394715 L101.640393,162.407917 L105.335179,165.796696 L105.350624,165.799336 C111.738875,166.620458 118.487522,165.729369 125.010822,164.867323 C126.818215,164.627059 128.687654,164.381514 130.491482,164.179534 C132.888446,163.980194 135.023099,162.518808 136.796036,161.116828 C139.086465,159.310887 143.042901,153.84026 143.487785,153.222438 C143.648841,153.43894 143.865343,153.74257 144.113528,154.089765 C145.205277,155.615838 147.029699,158.168973 148.23894,159.177554 C150.026399,160.679864 152.122768,162.180854 154.13993,163.399336 C157.685805,165.53663 160.687785,164.830359 165.660722,163.663362 L166.166332,163.54455 C171.182834,162.364352 178.872603,155.916828 183.895705,150.423759 L183.904946,150.414518 L183.907586,150.401316 C186.813197,138.010558 187.894385,130.826663 187.207916,128.441053 C186.595375,126.276829 184.707586,122.509832 181.512867,122.121449 L181.493065,122.118413 L181.475903,122.131746 C181.316167,122.256103 165.493065,134.6297 160.757752,137.606597 L160.753791,137.609237 C160.710227,137.629039 160.694385,137.63828 160.958412,139.759732 L160.967653,139.83234 L161.032339,139.799336 C162.53597,139.001977 164.233659,138.262703 164.405276,138.440921 C164.496366,138.53333 164.627059,139.349171 164.534649,140.516168 C164.406597,142.163693 163.794055,145.214518 161.149831,147.13795 L161.048181,147.211878 L161.172273,147.230359 C163.417818,147.552472 163.953791,147.557752 167.497026,145.842901 C169.036299,145.100986 171.34653,142.93597 172.199336,141.016498 C172.54389,140.23102 172.587454,139.504947 172.327388,138.862043 C171.964352,137.963033 171.132669,137.499667 170.860722,137.368973 L174.414517,135.065343 C175.198675,136.971614 175.651481,138.170294 175.799336,140.248181 C175.461382,140.665343 168.551811,149.14059 159.977554,153.227719 C158.454121,152.254782 157.276564,141.269963 157.368973,137.413858 C170.825078,128.612802 184.308906,114.477621 186.855441,110.635773 C186.984814,110.441449 187.024418,110.257819 186.972933,110.092274 C186.892405,109.82772 186.607256,109.7097 186.595375,109.704552 C186.568972,109.695179 184.298345,108.957357 183.523428,108.778875 C185.320127,95.4698326 186.594055,77.1168298 186.04884,72.3845526 C186.023758,72.1431005 185.935309,71.9729355 185.787454,71.8801302 C185.560391,71.7305593 185.271282,71.8311533 185.259401,71.8352457 C185.231679,71.848183 182.954451,72.9037606 182.237619,73.2689091 C177.512867,60.4141239 164.627059,35.4707582 161.84026,31.4124085 C161.702966,31.2113524 161.545871,31.1029695 161.370293,31.0891081 C161.106267,31.0669299 160.896366,31.2835636 160.888445,31.2928045 C160.872603,31.3119464 159.277884,33.1363688 158.819798,33.7767648 C152.681184,31.3299002 136.6363,26.0355109 122.361845,22.4241579 L122.262307,22.3984153 Z M39.9710881,33.9005932 L40.0087119,33.8865998 C46.0864675,31.4537286 62.0884473,26.1680522 76.378876,22.5479862 L69.0805263,40.1650155 L48.6850153,45.4223091 L48.6741902,45.4377546 C42.9790088,53.3972264 31.1659398,76.3561697 29.0347187,80.9911531 C28.506666,80.7230343 26.4830356,80.4068627 26.3944548,80.3930013 C26.3948508,80.3914171 26.2040918,80.3310871 26.0401314,80.4274567 C25.9379531,80.4883148 25.8710225,80.5940574 25.8415835,80.7420442 L25.8405274,80.7564336 C26.3046858,87.7749153 28.0151808,94.3972254 29.9964349,102.065344 C30.8333986,105.305344 31.6991411,108.655179 32.5366328,112.29069 C32.0091081,112.385476 29.3131346,112.637225 29.2852798,112.639733 L29.2718144,112.643298 C29.2620455,112.646994 29.0294382,112.737687 28.9790092,112.924882 C28.9522105,113.027588 28.9836296,113.134255 29.0723425,113.24409 C31.9172269,116.704288 37.8666657,121.968842 44.9886457,127.328314 C52.3519459,132.868644 59.4368302,137.376894 64.4270611,139.696366 L64.4410545,139.702967 L64.4554439,139.700327 C66.0818465,139.477224 97.7573573,123.846994 99.4116147,123.030096 C101.065344,123.846994 132.740591,139.477224 134.363033,139.700327 L134.377554,139.702967 L134.390756,139.696366 C139.382175,137.378214 146.467323,132.869964 153.832339,127.328314 C160.950491,121.970954 166.902966,116.705872 169.753131,113.24409 C169.84026,113.135311 169.870623,113.02904 169.8429,112.92805 C169.791415,112.738215 169.551151,112.646994 169.54059,112.643298 L169.528709,112.639733 C169.499666,112.637225 166.810557,112.385476 166.279864,112.290162 C167.115507,108.659799 167.981514,105.314585 168.817157,102.078677 C170.799996,94.4054102 172.512207,87.7784797 172.976893,80.7564336 L172.978213,80.7487769 L172.976893,80.7420442 C172.94653,80.5940574 172.880524,80.4883148 172.777553,80.4290409 C172.617817,80.3335954 172.421118,80.3914171 172.413197,80.3939254 C172.331349,80.4068627 170.304946,80.7230343 169.778214,80.9911531 C167.629039,76.3304271 155.784815,53.313266 150.154452,45.4377546 L150.143891,45.4223091 L150.125409,45.4182167 L129.742175,40.1650155 L122.43498,22.5479862 C136.707587,26.1643558 152.726069,31.4526725 158.818478,33.8865998 L158.856762,33.9005932 L158.879204,33.868646 C159.300326,33.2637615 160.947851,31.3804613 160.965012,31.3609233 C160.965012,31.3598672 161.127389,31.1897022 161.334649,31.1897022 C161.34389,31.1897022 161.353131,31.1897022 161.363692,31.1907583 C161.504946,31.2010553 161.63828,31.2954448 161.755772,31.4691741 C164.54389,35.5316163 177.456101,60.5239589 182.161052,73.3576219 L182.180854,73.4117473 L182.232339,73.3849487 C182.883164,73.048183 185.273923,71.9394041 185.299005,71.9291071 L185.299005,71.9291071 C185.299005,71.9291071 185.54455,71.8465989 185.734649,71.9652787 C185.854781,72.0426385 185.926068,72.1869289 185.94851,72.3957738 C186.493725,77.1271268 185.215837,95.5048161 183.416497,108.810822 L183.409896,108.858347 L183.456101,108.867588 C184.176893,109.024816 186.535969,109.792208 186.561051,109.799865 L186.561051,109.799865 C186.559731,109.799865 186.809236,109.904024 186.876563,110.123298 C186.917487,110.257819 186.883164,110.411482 186.770952,110.579139 C184.225738,114.418347 170.74323,128.550492 157.291085,137.343891 L157.268643,137.358412 L157.268643,137.386135 C157.178874,140.863363 158.273263,152.369633 159.949831,153.328049 L159.972273,153.34257 L159.997356,153.330689 C168.777554,149.156432 175.819138,140.384155 175.890425,140.295706 L175.902306,140.279864 L175.900986,140.261383 C175.753131,138.13465 175.291085,136.924089 174.483164,134.968974 L174.460722,134.912208 L174.410557,134.946531 L170.64686,137.386135 L170.735309,137.423099 C170.74587,137.428379 171.823098,137.882505 172.232339,138.900327 C172.481844,139.518148 172.4396,140.215178 172.106926,140.975574 C171.262042,142.875244 168.976893,145.016498 167.453461,145.751812 C164.002636,147.421778 163.428379,147.448181 161.309567,147.145871 C163.902306,145.194716 164.506927,142.167653 164.634979,140.524089 C164.722108,139.43366 164.620458,138.512208 164.476564,138.368313 C164.176894,138.067323 161.702966,139.33069 161.050821,139.673924 C160.957092,138.922769 160.831679,137.858742 160.825078,137.684485 C165.511547,134.73399 180.925408,122.690294 181.520788,122.224683 C184.65082,122.620723 186.506926,126.333066 187.110226,128.46838 C187.791414,130.83696 186.711546,137.999997 183.812537,150.365673 C178.799996,155.844221 171.135309,162.270623 166.14389,163.44554 L165.63696,163.564352 C160.687785,164.726068 157.701646,165.428379 154.191415,163.312207 C152.179534,162.096366 150.088445,160.599336 148.303627,159.099666 C147.104947,158.099006 145.284485,155.551151 144.196696,154.030359 C143.926069,153.651481 143.692406,153.326729 143.527389,153.104947 L143.485145,153.049501 L143.445541,153.106267 C143.401977,153.165673 139.13927,159.13927 136.73399,161.03762 C134.972934,162.430359 132.852802,163.881184 130.482109,164.077884 C128.6763,164.279864 126.806994,164.526729 124.997885,164.765672 C118.487522,165.626398 111.755377,166.517488 105.379007,165.700326 L101.724486,162.347191 C100.873529,150.83432 99.7776873,136.669304 99.7659381,136.526729 L99.7617137,136.479205 L99.0594035,136.479205 L99.0567632,136.526729 C99.0455421,136.669304 97.9573573,150.83432 97.0987434,162.347191 L93.443694,165.700326 C87.0570275,166.517488 80.3135293,165.626398 73.7953777,164.764352 C71.9931335,164.526729 70.1293712,164.279864 68.3322755,164.079204 C65.9405924,163.879864 63.7412525,162.348511 62.0926717,161.03762 C59.6818467,159.13927 55.4208567,153.165673 55.3779524,153.106267 L55.3378204,153.049501 L55.2959722,153.104947 C55.113926,153.345211 54.853596,153.708247 54.5518138,154.128049 C53.4122759,155.718808 51.6898997,158.121448 50.5182826,159.098346 C48.7361044,160.596696 46.6409229,162.092405 44.6199329,163.312207 C41.1180188,165.429699 38.1317482,164.726068 33.1832335,163.564352 L32.6763028,163.44554 C30.287788,162.884484 27.1225076,161.095706 23.5226397,158.274584 C20.6533328,156.025079 17.5479864,153.14191 15.0005277,150.365673 C12.1034452,138.010558 11.0246466,130.847786 11.7027588,128.469436 C11.872937,127.879997 13.4720789,122.70838 17.2906926,122.224683 C17.8872603,122.690294 33.3106262,134.73267 37.9945865,137.683165 C37.9852136,137.860063 37.8563687,138.922769 37.7625073,139.673924 C37.1812532,139.368973 35.1469298,138.322109 34.5111543,138.322109 C34.4348506,138.322109 34.3796691,138.33795 34.3477219,138.369634 C34.2068638,138.508247 34.1021774,139.404617 34.179009,140.471284 C34.2755107,141.805937 34.7932665,145.100986 37.5087779,147.145871 C35.3933985,147.446861 34.8211212,147.420458 31.3665999,145.751812 C29.8355108,145.011217 27.5499663,142.867323 26.716699,140.975574 C26.3840257,140.215178 26.3412535,139.515508 26.5908904,138.896366 C27.0007914,137.879865 28.0708904,137.428379 28.0817155,137.423099 L28.1713524,137.386135 L28.0899003,137.33333 L24.356435,134.912208 L24.3332007,134.968974 C23.5205275,136.939931 23.0543889,138.157092 22.9166991,140.261383 L22.9151149,140.279864 L22.9275242,140.295706 C22.9976232,140.384155 30.0443557,149.156432 38.8232334,153.330689 L38.8469957,153.34257 L38.870098,153.328049 C40.5461376,152.368313 41.6388108,140.863363 41.5490419,137.386135 L41.5485138,137.358412 L41.5259396,137.343891 C28.117227,128.579799 14.6112208,114.431152 12.0467192,110.579139 C11.9327522,110.410426 11.8961449,110.256235 11.937399,110.120129 C12.0023759,109.903628 12.2478281,109.799865 12.2504155,109.798413 C12.2705211,109.792208 14.6504287,109.024816 15.3568313,108.867588 L15.4027719,108.857291 L15.3960392,108.810822 C13.6003957,95.4950471 12.3251878,77.1184139 12.8692274,72.3973579 C12.8950096,72.1860048 12.969267,72.0399982 13.0914848,71.9642226 C13.2781515,71.8455428 13.5215838,71.9317474 13.5240921,71.9306913 C13.543762,71.9394041 15.9370293,73.048183 16.5887785,73.3849487 L16.6393395,73.4117473 L16.6594055,73.3576219 C21.375841,60.5007246 34.2817153,35.518811 37.0642895,31.4691741 C37.1803291,31.2963689 37.309702,31.2025075 37.4509562,31.1907583 C37.4613852,31.1897022 37.4716822,31.1897022 37.4819793,31.1897022 C37.6887119,31.1897022 37.8526723,31.3609233 37.8542565,31.3623755 C37.869702,31.3804613 39.5265997,33.2637615 39.9478538,33.868646 L39.9710881,33.9005932 L39.9710881,33.9005932 Z" id="path32" fill="#FFFFFF"></path>
                        <path d="M92.7722749,90.1144532 C92.9759713,87.7733311 94.3580174,85.6384137 94.3580174,85.6384137 L91.2633641,85.091747 C91.2633641,85.091747 89.5931331,87.6702288 89.2192717,90.0267964 C90.3589416,91.9761033 93.4788095,92.5999977 94.0047501,92.3524729 C93.9815158,92.293199 92.7644861,90.1763674 92.7722749,90.1144532" id="path34" fill="#FFFFFF"></path>
                        <path d="M106.053463,90.1144532 C105.852407,87.7733311 104.460063,85.6384137 104.460063,85.6384137 L107.559337,85.091747 C107.559337,85.091747 109.219799,87.6702288 109.596169,90.0267964 C108.466928,91.9761033 105.341912,92.5999977 104.800393,92.3524729 C104.836565,92.293199 106.053463,90.1763674 106.053463,90.1144532" id="path36" fill="#FFFFFF"></path>
                        <polyline id="path38" fill="#231F20" points="136.096366 13.5004617 134.516168 13.5004617 134.516168 14.4749831 138.83036 14.4749831 138.83036 13.5004617 137.251482 13.5004617 137.251482 9.21514168 136.096366 9.21514168 136.096366 13.5004617"></polyline>
                        <polyline id="path40" fill="#231F20" points="139.43366 14.4749831 141.057422 14.4749831 142.279864 10.8601449 142.298346 10.8601449 143.460062 14.4749831 145.082505 14.4749831 145.082505 9.21514168 144.005277 9.21514168 144.005277 12.9408974 143.992076 12.9408974 142.697026 9.21514168 141.809897 9.21514168 140.526729 12.9073792 140.510888 12.9073792 140.510888 9.21514168 139.43366 9.21514168 139.43366 14.4749831"></polyline>
                    </g>
                </g>
            </g>
        </g>
    </g>
</svg>