<?xml version="1.0" encoding="UTF-8"?>
<svg width="200px" height="200px" viewBox="0 0 200 200" version="1.1" xmlns="http://www.w3.org/2000/svg" xmlns:xlink="http://www.w3.org/1999/xlink">
    <title>mississippi-st_BGL</title>
    <defs>
        <polygon id="path-1" points="0 0 200 0 200 121.752608 0 121.752608"></polygon>
    </defs>
    <g id="mississippi-st_BGL" stroke="none" stroke-width="1" fill="none" fill-rule="evenodd">
        <g id="mississippi-st" transform="translate(0.000000, 39.000000)">
            <g id="Group-3">
                <mask id="mask-2" fill="white">
                    <use xlink:href="#path-1"></use>
                </mask>
                <g id="Clip-2"></g>
                <path d="M188.790129,63.3548074 L196.48845,46.5214696 C183.808189,37.1256638 164.792852,29.4111701 164.792852,29.4111701 L171.4433,18.7329847 L171.4433,0 L123.016793,0 L106.471873,25.7170005 C104.320197,25.6354619 102.157066,25.5876169 99.9791099,25.5876169 C97.8018275,25.5876169 95.6393703,25.6354619 93.4890428,25.7170005 L76.9421009,0 L28.5162673,0 L28.5162673,18.7329847 L35.1667161,29.4111701 C35.1667161,29.4111701 16.1513787,37.1256638 3.47111782,46.5214696 L11.1687647,63.3548074 L-0.0404323567,99.185288 C-0.0404323567,99.185288 9.67815844,92.4324106 21.640745,85.3324887 L21.640745,101.100434 C21.640745,101.100434 27.9919944,97.0497857 34.1444513,93.9991644 L28.5236799,102.597779 L28.5236799,121.79304 L81.628211,121.79304 L81.628211,82.15181 L99.9791099,111.076444 L118.331357,82.15181 L118.331357,121.79304 L171.435888,121.79304 L171.435888,102.597779 L165.81579,94.0005121 C171.967573,97.0504596 178.317475,101.100434 178.317475,101.100434 L178.317475,85.3318149 C190.280735,92.4317367 200,99.185288 200,99.185288 L188.790129,63.3548074" id="Fill-1" fill="#BBC0BD" mask="url(#mask-2)"></path>
            </g>
            <path d="M160.731421,31.6005822 C171.834146,35.828459 182.374188,41.2443732 192.017979,47.5417127 L184.982749,62.9235289 L193.557104,90.329928 C187.148575,86.1060945 180.525082,82.3020836 174.684628,79.3700639 L174.681932,94.4459419 C170.274131,91.8259252 165.60352,89.4485027 160.731421,87.30424 L160.731421,93.6453813 L167.371762,103.80738 L167.371762,117.730262 L122.393461,117.730262 L122.393461,76.5222782 C120.767406,76.2911399 119.129896,76.0862826 117.481603,75.9077064 L99.9791099,103.494029 L82.4766166,75.904337 C80.8289981,76.0862826 79.1914876,76.2911399 77.5667808,76.5222782 L77.5667808,117.730262 L32.5878056,117.730262 L32.5878056,103.80738 L39.2288202,93.6453813 L39.2288202,87.3028923 C34.3546996,89.4471549 29.6840885,91.8259252 25.27494,94.4459419 L25.27494,79.3700639 C19.43516,82.3020836 12.8116661,86.1060945 6.40313755,90.329928 L14.9774927,62.9235289 L7.94226259,47.5417127 C17.5860535,41.2443732 28.126095,35.828459 39.2288202,31.6005822 L39.2288202,28.2507615 L32.5776975,17.5719022 L32.5776975,4.06277797 L74.7257338,4.06277797 L91.0684924,29.4623844 C94.0470094,29.2804388 97.0201353,29.1820534 99.9784361,29.1820534 C102.937411,29.1820534 105.910537,29.2804388 108.889727,29.4623844 L125.234508,4.06277797 L167.380522,4.06277797 L167.380522,17.5719022 L160.731421,28.2507615 L160.731421,31.6005822" id="Fill-4" fill="#491A22"></path>
            <path d="M39.2288202,36.4187714 C29.9886789,40.0455538 21.6131163,44.2410847 13.653333,49.2243726 L19.7828782,62.6202863 L14.2975552,80.1517561 C17.8825575,78.094423 21.5517938,76.1657996 25.27494,74.3524084 L25.27494,48.2991455 C29.4664277,46.1178199 35.6741422,43.0611337 39.2288202,41.65274 L39.2288202,36.4187714" id="Fill-5" fill="#FFFFFE"></path>
            <path d="M99.9791099,70.1319443 C123.478396,70.1319443 148.506024,76.1455834 169.871829,86.8426373 L169.871829,51.2453166 C148.522197,40.1540473 123.437289,33.9921561 99.9791099,33.9921561 C76.5202566,33.9921561 51.4360225,40.1540473 30.0863905,51.2453166 L30.0863905,86.8426373 C51.4521955,76.1455834 76.4798243,70.1319443 99.9791099,70.1319443" id="Fill-6" fill="#FFFFFE"></path>
            <path d="M160.7294,36.4187714 C169.969541,40.0455538 178.345104,44.2410847 186.304887,49.2243726 L180.176016,62.6202863 L185.660665,80.1517561 C182.075662,78.094423 178.406426,76.1657996 174.682606,74.3524084 L174.682606,48.2991455 C170.491792,46.1178199 164.284078,43.0611337 160.7294,41.65274 L160.7294,36.4187714" id="Fill-7" fill="#FFFFFE"></path>
            <path d="M183.181487,107.614087 L183.641068,107.614087 C184.154559,107.614087 184.531928,107.424728 184.531928,107.046686 C184.531928,106.668643 184.235424,106.451656 183.694978,106.451656 C183.479339,106.451656 183.316936,106.479285 183.181487,106.479285 L183.181487,107.614087 Z M183.154532,110.098655 L181.966495,110.098655 L181.966495,105.750155 C182.317583,105.696245 182.965848,105.61538 183.775843,105.61538 C184.694331,105.61538 185.099329,105.750155 185.395833,105.938839 C185.693684,106.128198 185.882369,106.451656 185.882369,106.884956 C185.882369,107.343864 185.478045,107.721906 184.910644,107.883636 L184.910644,107.937545 C185.369552,108.099949 185.61282,108.451036 185.747594,109.044718 C185.882369,109.692984 185.990862,109.936252 186.071727,110.098655 L184.748241,110.098655 C184.613467,109.936252 184.531928,109.558883 184.424108,109.099302 C184.343244,108.639721 184.10065,108.451036 183.614114,108.451036 L183.154532,108.451036 L183.154532,110.098655 Z M180.399741,107.856681 C180.399741,109.801477 181.858002,111.368231 183.803472,111.368231 C185.747594,111.368231 187.1789,109.801477 187.1789,107.856681 C187.1789,105.912558 185.747594,104.345804 183.803472,104.345804 C181.858002,104.345804 180.399741,105.912558 180.399741,107.856681 Z M188.475431,107.8304 C188.475431,110.395833 186.422815,112.42082 183.803472,112.42082 C181.21041,112.42082 179.10321,110.395833 179.10321,107.8304 C179.10321,105.318203 181.21041,103.292542 183.803472,103.292542 C186.422815,103.292542 188.475431,105.318203 188.475431,107.8304 L188.475431,107.8304 Z" id="Fill-8" fill="#BBC0BD"></path>
            <path d="M110.876304,65.2450201 C107.714494,65.0010782 104.520337,64.8535001 101.354484,64.8130677 L101.354484,60.3756166 L103.452923,60.410658 C103.458988,60.410658 102.043856,56.3856169 102.043856,56.3856169 L93.5274536,56.4759158 L92.0449338,60.5359983 C92.0462816,60.5359983 94.175719,60.4591768 94.175719,60.4591768 L94.175719,64.8959541 C91.1688994,64.9983827 88.1405159,65.1971751 85.1478477,65.4828971 L85.1478477,61.0508369 L87.2368527,60.8574355 C87.240896,60.85474 95.0187337,38.9606189 95.0187337,38.9606189 C97.0450686,38.9013181 99.1017278,38.885819 101.157039,38.9087307 L108.606027,60.6438179 C108.606027,60.6438179 110.197714,60.7550069 110.876304,60.8089167 L110.876304,65.2450201 Z M97.8880832,44.3576646 C97.8907787,44.3563169 94.9708887,52.4785035 94.9708887,52.4785035 L100.673199,52.4151594 L97.8880832,44.3576646 Z M144.674385,50.375347 L144.674385,56.6720127 C144.674385,56.6720127 149.684628,58.3533249 151.965686,59.2131863 L151.965686,63.1775789 C149.803903,62.3723011 144.674385,60.648535 144.674385,60.648535 L144.674385,67.430389 L152.429985,70.1427262 L152.429985,68.1763659 C154.195531,68.8488908 155.964446,69.556457 157.709777,70.2983908 L157.709777,76.618642 C150.99531,73.7924203 144.049031,71.4392571 137.042104,69.6157578 L137.042104,65.2173913 L139.244993,65.8016389 C139.247689,65.8016389 139.247689,48.7647915 139.247689,48.7647915 C139.250384,48.7647915 137.042104,48.1812178 137.042104,48.1812178 L137.042104,43.7532009 C144.056444,45.5901776 151.004744,47.9588399 157.709777,50.8052778 L157.709777,56.7636594 C155.961751,56.0277905 154.195531,55.3182026 152.429985,54.6510688 L152.429985,53.0654465 C152.429985,53.0688159 144.674385,50.375347 144.674385,50.375347 Z M133.1141,50.2122699 C131.691555,49.8820723 130.256206,49.5700693 128.824901,49.2789563 L128.824901,46.2835925 L124.107119,45.4149708 L124.107119,62.4275587 C124.109814,62.4302542 126.297205,62.8237958 126.297205,62.8237958 L126.297205,67.2470956 C123.002642,66.6426319 119.655516,66.1439661 116.325912,65.7632281 L116.325912,61.3318418 L118.52341,61.5906089 C118.530149,61.595326 118.530149,44.5928462 118.530149,44.5928462 L113.830561,44.0604868 L113.830561,47.0558506 C112.383083,46.9156851 110.921453,46.7916925 109.46791,46.699372 L109.46791,39.2436454 C117.401412,39.7813957 125.348392,40.9694331 133.1141,42.7781072 L133.1141,50.2122699 Z M59.6020108,50.6954365 C57.781207,51.1974716 55.9624249,51.7372436 54.1705976,52.3039705 L54.1705976,50.3921939 L46.3725437,53.1045311 L46.3725437,58.9301598 C46.3725437,58.9301598 53.5641122,56.3404674 56.46446,55.4651069 L59.6020108,57.5136796 L59.6020108,65.8723955 L55.1531039,71.4904714 C51.7594814,72.540365 48.3611418,73.7236853 45.0450147,75.0148252 C43.7195073,74.1819187 42.3946737,73.3658589 41.0954473,72.5807973 L41.0954473,69.4600933 C42.8299954,68.7228766 44.5995849,68.0132888 46.3725437,67.3380684 L46.3725437,70.3859942 L47.1346937,70.1022939 C49.2917599,69.2943206 54.1705976,67.6608534 54.1705976,67.6608534 L54.1705976,60.1680638 C54.1705976,60.1680638 46.931858,62.6202863 43.9364942,63.8096714 L41.0954473,61.8978948 L41.0954473,55.01496 L45.3543222,49.0680342 C48.6421467,47.7903717 52.0357692,46.6070514 55.4442168,45.551093 C56.813526,46.4338661 58.2091161,47.3590932 59.6020108,48.2951023 L59.6020108,50.6954365 Z M86.7098844,46.8954689 C85.2509502,47.0228308 83.7913421,47.1683873 82.3465592,47.33416 L82.3465592,44.3374484 L77.6072131,44.9580851 L77.6072131,61.965956 C77.6126041,61.965956 79.8060595,61.6654088 79.8060595,61.6654088 L79.8060595,66.0927518 C76.4858891,66.5334645 73.1488719,67.0900833 69.8603736,67.7518262 L69.8603736,63.3332435 L72.0383299,62.9060082 C72.0437209,62.9060082 72.0437209,45.8880293 72.0437209,45.8880293 L67.3805224,46.8307771 L67.3805224,49.8268147 C65.9573034,50.1354484 64.5280196,50.4764279 63.1061484,50.8308849 L63.1061484,43.4041349 C70.8502925,41.4539475 78.7831208,40.1250708 86.7098844,39.4458072 L86.7098844,46.8954689 L86.7098844,46.8954689 Z" id="Fill-9" fill="#491A22"></path>
        </g>
    </g>
</svg>