<?xml version="1.0" encoding="UTF-8"?>
<svg width="200px" height="200px" viewBox="0 0 200 200" version="1.1" xmlns="http://www.w3.org/2000/svg" xmlns:xlink="http://www.w3.org/1999/xlink">
    <title>middle-tenn_BGL</title>
    <defs>
        <polygon id="path-1" points="0 0 69.0892995 0 69.0892995 74.7179941 0 74.7179941"></polygon>
    </defs>
    <g id="middle-tenn_BGL" stroke="none" stroke-width="1" fill="none" fill-rule="evenodd">
        <g id="Middle-Tennessee" transform="translate(0.000000, 43.000000)">
            <path d="M103.002351,71.3643849 C101.798174,75.6108938 100.584478,79.852643 99.3660222,84.1039114 L93.8429905,84.1039114 L98.1332876,69.0902514 L103.649656,69.0902514 C103.434522,69.8479786 103.217485,70.6066577 103.002351,71.3643849 Z M163.124578,31.980657 C156.797175,31.9758974 150.48881,31.9749455 144.189013,31.9749455 L129.859782,31.9720897 C122.812729,31.9682821 115.779954,31.9663782 108.748132,31.9644744 L108.770026,31.887369 C109.341177,29.8654939 109.923751,27.841715 110.49871,25.8226956 L65.1217028,26.0073678 L61.1284043,14.3501728 C60.6086567,12.8870739 60.0889092,11.4258789 59.5710655,9.96087615 L58.2526582,6.23221102 L23.4828797,6.23221102 L15.0060447,35.9415903 L20.4909996,35.9415903 C19.5647828,39.1733539 18.6366622,42.4079733 17.7066377,45.6406888 C16.7985074,48.8001066 15.8970405,51.9604763 14.9946217,55.1227499 L14.0560299,58.406869 L8.56250773,58.406869 L7.40402281,62.464898 C5.61727161,68.7237627 3.83528001,74.9550218 2.04472114,81.2081751 L0,88.3466126 L43.9262834,88.3199589 L45.0847684,84.2676414 C45.9215048,81.3395398 46.7620489,78.4133421 47.602593,75.4861924 C48.5211945,72.2858421 49.4397959,69.0845399 50.3555416,65.87943 L55.1237018,65.87943 L48.7115782,88.3228146 L92.5064968,88.3113916 L85.1624449,113.998915 L130.694615,113.998915 L131.850244,109.936126 C133.625572,103.701059 135.41042,97.4564735 137.195267,91.2195029 L139.236181,84.0886807 L133.724572,84.0886807 L133.870215,83.5813081 C134.745029,80.5237456 135.61889,77.4699908 136.485136,74.4238513 L138.003446,69.0902514 L159.934698,69.0902514 L161.16077,64.7932909 C162.369706,60.5610608 163.58245,56.3136001 164.797099,52.0842258 L170.526697,31.9863685 L163.124578,31.980657 L163.124578,31.980657 Z" id="Fill-1" fill="#1A1919"></path>
            <path d="M94.9910044,106.585373 L125.097334,106.585373 C126.527115,101.560195 127.965464,96.5283529 129.403813,91.5022227 L123.897916,91.5022227 L126.743201,81.5384908 C127.617062,78.4856879 128.489972,75.4366927 129.356217,72.3915051 L131.463765,64.9865304 C132.356665,61.8471028 133.248613,58.7076753 134.14532,55.5711036 L134.523232,54.2498406 L141.932014,54.2498406 L141.268527,56.57157 C140.96772,57.62344 140.66977,58.6800697 140.371819,59.7347955 C140.189051,60.383052 140.007235,61.0294048 139.823514,61.6767094 L154.341225,61.6767094 C155.448306,57.799545 156.559195,53.9119095 157.66818,50.04712 L160.707656,39.3922952 C155.188432,39.3884875 149.681583,39.3884875 144.181398,39.3875356 L129.856927,39.3846798 C119.218284,39.3808721 108.616767,39.3761126 97.9904999,39.3751606 L91.6183568,61.6767094 L106.120837,61.6767094 C106.415931,60.6391181 106.71293,59.599623 107.009929,58.5610799 L108.239807,54.2498406 L115.597186,54.2498406 L114.933699,56.57157 C113.33162,62.1745628 111.730493,67.7861229 110.134125,73.3891158 C108.696728,78.4561784 107.246004,83.5194334 105.789569,88.598871 L104.952832,91.5174534 L99.2993879,91.5174534 L94.9910044,106.585373 Z M127.846475,110.227413 L90.1628733,110.227413 L96.5540547,87.874461 L102.209403,87.874461 L102.289364,87.5955488 C103.743896,82.518967 105.193668,77.4595197 106.631065,72.3934089 C107.302168,70.0355066 107.975174,67.6766523 108.64818,65.317798 L86.7883219,65.317798 L95.2432628,35.734072 L96.6178332,35.734072 C107.703877,35.734072 118.760412,35.7388316 129.857879,35.7435912 L144.181398,35.746447 C150.483099,35.7473989 156.793367,35.7473989 163.12077,35.7521585 L165.531028,35.7540623 L161.169337,51.0485383 C159.957544,55.2722011 158.7448,59.5196619 157.536815,63.7518919 L157.089414,65.317798 L135.155306,65.317798 C135.093431,65.5395951 135.029652,65.7604402 134.966826,65.9812853 L132.859278,73.3891158 C131.99208,76.4352553 131.119171,79.4861543 130.245309,82.5408611 L128.724144,87.8601822 L134.233848,87.8601822 L133.569409,90.1819116 C131.78361,96.4207861 129.997811,102.668228 128.223434,108.904247 L127.846475,110.227413 L127.846475,110.227413 Z" id="Fill-2" fill="#FFFFFE"></path>
            <g id="Group-6" transform="translate(91.618357, 39.375161)">
                <mask id="mask-2" fill="white">
                    <use xlink:href="#path-1"></use>
                </mask>
                <g id="Clip-4"></g>
                <path d="M69.0892995,0.0171345347 C63.5700755,0.0133268603 58.0632264,0.0133268603 52.5630408,0.0123749417 L38.2385698,0.00951918592 C27.5999277,0.00571151155 16.9984103,0.000951918592 6.37214305,0 L0,22.3015488 L14.5024797,22.3015488 C14.7975745,21.2639575 15.0945731,20.2244624 15.3915717,19.1859192 L16.6214505,14.8746799 L23.9788293,14.8746799 L23.3153421,17.1964094 C21.7132631,22.7994022 20.112136,28.4109623 18.5157685,34.0139551 C17.0783715,39.0810178 15.6276475,44.1442728 14.1712121,49.2237104 L13.3344756,52.1422928 L7.68103112,52.1422928 L3.37264757,67.2102122 L33.4789769,67.2102122 C34.9087586,62.1850339 36.3471076,57.1531923 37.7854566,52.1270621 L32.2795595,52.1270621 L35.1248441,42.1633302 C35.9987054,39.1105273 36.8716147,36.061532 37.7378607,33.0163444 L39.8454084,25.6113697 C40.7383081,22.4719422 41.6302558,19.3325147 42.5269631,16.1959429 L42.9048748,14.8746799 L50.3136572,14.8746799 L49.6501699,17.1964094 C49.3493636,18.2482794 49.0514131,19.304909 48.7534626,20.3596348 C48.5706942,21.0078914 48.3888778,21.6542441 48.2051575,22.3015488 L62.7228679,22.3015488 C63.8299493,18.4243843 64.9408383,14.5367488 66.0498234,10.6719593 L69.0892995,0.0171345347" id="Fill-3" fill="#006FAB" mask="url(#mask-2)"></path>
                <path d="M42.4355789,69.8689208 C42.1357246,70.0002856 41.8720431,70.1668713 41.6369192,70.4010433 C41.4065549,70.6656767 41.2076039,70.9284062 41.0752872,71.2625296 C40.9429706,71.5595282 40.8763363,71.8917478 40.8763363,72.2239674 C40.8763363,72.556187 40.9429706,72.8845989 41.042922,73.1844533 C41.1742868,73.4814519 41.3732378,73.748941 41.604554,74.0126224 C41.8368221,74.2458425 42.1024074,74.4447935 42.4355789,74.5761582 C42.7325775,74.7084749 43.0638452,74.7751092 43.3941609,74.7751092 C43.7606496,74.7751092 44.0909653,74.7084749 44.3908197,74.5761582 C44.6878183,74.4447935 44.9857688,74.2782077 45.2199408,74.0459396 C45.4531608,73.8136715 45.6511599,73.5176248 45.7815728,73.2158666 C45.9148414,72.9160122 45.9805237,72.5876003 45.9805237,72.2239674 C45.9805237,71.8917478 45.9148414,71.5595282 45.7815728,71.2625296 C45.6511599,70.9636272 45.486478,70.6961381 45.252306,70.4667257 C45.0209898,70.2001885 44.7544526,70.0345546 44.4231849,69.8984303 C44.1261863,69.7699213 43.7920629,69.703287 43.3941609,69.703287 C43.0638452,69.703287 42.7325775,69.7699213 42.4355789,69.8689208 Z M44.2604069,70.2972842 C44.4869635,70.4343605 44.7211354,70.5666771 44.9210384,70.7989453 C45.1218932,70.9636272 45.252306,71.1911357 45.3503536,71.4253077 C45.4531608,71.6927968 45.5150356,71.9564783 45.5150356,72.2239674 C45.5150356,72.520966 45.4531608,72.7875032 45.3503536,73.0502327 C45.252306,73.2834528 45.088576,73.5176248 44.8867693,73.7175277 C44.6878183,73.9145748 44.4869635,74.0459396 44.2251859,74.146843 C43.9596006,74.2458425 43.6949672,74.3115249 43.3941609,74.3115249 C43.1304795,74.3115249 42.86775,74.2458425 42.6002608,74.146843 C42.3346755,74.0459396 42.1357246,73.8812577 41.9358216,73.6832586 C41.7378226,73.4814519 41.5731407,73.2510876 41.4703335,73.0178675 C41.3732378,72.7541861 41.3408725,72.520966 41.3408725,72.2239674 C41.3408725,71.9564783 41.3732378,71.6927968 41.5065064,71.4253077 C41.604554,71.1625782 41.7711397,70.9284062 41.9710426,70.732311 C42.1671379,70.5352638 42.3698965,70.4010433 42.633578,70.2972842 C42.86775,70.2001885 43.1304795,70.1668713 43.3941609,70.1668713 C43.7292363,70.1668713 43.9919658,70.2001885 44.2604069,70.2972842 Z M43.0962104,73.5842591 L43.0962104,72.4571875 L43.3303824,72.4571875 L43.860601,73.5842591 L44.7211354,73.5842591 L44.0909653,72.3553322 C44.2880125,72.2906017 44.4231849,72.1906503 44.5240883,72.0564297 C44.6230878,71.925065 44.6878183,71.7927483 44.6878183,71.5928454 C44.6878183,71.3272601 44.5878668,71.1311649 44.3908197,70.9931367 C44.1575996,70.8674834 43.860601,70.7989453 43.4969681,70.7989453 L42.3346755,70.7989453 L42.3346755,73.5842591 L43.0962104,73.5842591 Z M43.7606496,71.3624811 C43.860601,71.4253077 43.8939182,71.5281149 43.8939182,71.6575758 C43.8939182,71.7603831 43.860601,71.8584307 43.7606496,71.925065 C43.6949672,71.9897954 43.5607467,72.0221607 43.3617957,72.0221607 L43.0962104,72.0221607 L43.0962104,71.2625296 L43.3303824,71.2625296 C43.5283815,71.2625296 43.6949672,71.2958468 43.7606496,71.3624811 L43.7606496,71.3624811 Z" id="Fill-5" fill="#1A1919" mask="url(#mask-2)"></path>
            </g>
            <polyline id="Fill-7" fill="#FFFFFE" points="102.940477 32.5108757 104.737699 31.2134106 105.073726 29.9825799 105.40309 28.7860182 105.740069 27.5551875 106.104654 26.3262606 106.439729 25.1354104 106.770045 23.9026758 107.104168 22.7070661 107.435436 21.480043 107.770511 20.2825294 108.135096 19.0555064 108.471124 17.8246756 108.804295 16.6300178 109.132707 15.400139 109.469686 14.172164 109.802858 12.9775062 110.168394 11.7457235 106.535873 10.8594873 106.206509 12.0884142 105.870482 13.2849759 105.538262 14.5148547 105.205091 15.7066568 104.873823 16.9365356 104.504479 18.1664144 104.172259 19.3953413 103.838136 20.591903 103.50782 21.819878 103.172745 23.0164396 102.50545 25.4733415 102.140865 26.6660955 101.841011 27.8969263 101.475474 29.1229974 101.142302 30.3252706 102.940477 29.0239979 102.940477 32.5108757 104.373114 32.5108757 104.737699 31.2134106 102.940477 32.5108757"></polyline>
            <polyline id="Fill-8" fill="#1A1919" points="162.695262 19.8037144 162.795214 20.0445498 162.828531 20.3177504 162.896117 20.8974688 161.23026 20.3853366 159.530133 19.9074735 159.664354 19.7723011 159.79667 19.6704458 159.997525 19.5981 161.029405 19.5981 162.695262 19.8037144"></polyline>
            <polyline id="Fill-9" fill="#FFFFFE" points="192.969129 35.7274086 186.932062 32.4071165 189.326137 31.1553436 188.806389 30.7136534 182.148671 28.8688351 183.471837 27.689408 177.327203 26.1406365 177.290078 26.5090289 178.947368 29.1648818 183.39854 31.4114097 181.779326 32.5946445 192.672131 36.2452523 192.969129 35.7274086"></polyline>
            <polyline id="Fill-10" fill="#1A1919" points="182.279083 26.3614816 182.17818 25.8493494 170.688523 23.1849292 170.554302 23.7675034 182.048719 26.3938468 181.914499 25.9159837 182.279083 26.3614816 182.744572 25.9854737 182.17818 25.8493494 182.279083 26.3614816"></polyline>
            <polyline id="Fill-11" fill="#1A1919" points="179.949739 27.5904085 180.045882 28.1025407 182.279083 26.3614816 181.914499 25.9159837 179.684153 27.6579947 179.781249 28.1368097 179.684153 27.6579947 179.250079 28.0006854 179.781249 28.1368097 179.949739 27.5904085"></polyline>
            <polyline id="Fill-12" fill="#1A1919" points="190.140027 30.800278 190.10671 30.2548286 179.949739 27.5904085 179.781249 28.1368097 189.975345 30.800278 189.905855 30.2881458 190.140027 30.800278"></polyline>
            <polyline id="Fill-13" fill="#1A1919" points="186.412314 32.0634739 186.412314 32.57751 190.140027 30.800278 189.905855 30.2881458 186.178142 32.0634739 186.178142 32.57751 186.178142 32.0634739 185.645068 32.3385784 186.178142 32.57751 186.412314 32.0634739"></polyline>
            <polyline id="Fill-14" fill="#1A1919" points="199.835318 39.0277104 200 38.5193858 186.412314 32.0634739 186.178142 32.57751 199.764876 39.0277104 199.969539 38.482261 199.835318 39.0277104"></polyline>
            <polyline id="Fill-15" fill="#1A1919" points="179.351934 32.6803172 179.383347 33.1905455 199.835318 39.0277104 199.969539 38.482261 179.548981 32.6431924 179.613711 33.1905455 179.351934 32.6803172"></polyline>
            <polyline id="Fill-16" fill="#1A1919" points="182.382843 31.4494864 182.312401 30.9383062 179.351934 32.6803172 179.613711 33.1905455 182.614159 31.4133135 182.577034 30.9011813 182.614159 31.4133135 183.079647 31.139161 182.577034 30.9011813 182.382843 31.4494864"></polyline>
            <polyline id="Fill-17" fill="#1A1919" points="174.451457 27.3514769 174.420996 27.8636091 182.382843 31.4494864 182.577034 30.9011813 174.652312 27.3514769 174.652312 27.8636091 174.451457 27.3514769 173.851748 27.5904085 174.420996 27.8636091 174.451457 27.3514769"></polyline>
            <polyline id="Fill-18" fill="#1A1919" points="176.882657 26.8383928 176.882657 26.3262606 174.451457 27.3514769 174.652312 27.8636091 177.085416 26.8383928 177.120637 26.3262606 177.085416 26.8383928 177.683221 26.6346822 177.120637 26.3262606 176.882657 26.8383928"></polyline>
            <polyline id="Fill-19" fill="#1A1919" points="170.688523 23.1849292 170.523841 23.7332343 176.882657 26.8383928 177.120637 26.3262606 170.755157 23.2201502 170.554302 23.7675034 170.688523 23.1849292"></polyline>
            <polyline id="Fill-20" fill="#1A1919" points="143.876784 29.8435998 147.542622 31.2467278 150.038553 32.1672331 151.172288 32.6108271 150.738213 34.4861067 159.328326 37.3551894 165.226414 39.2675938 167.890834 40.1214648 168.128814 40.2233201 168.291592 40.3613483 168.423908 40.5336456 168.557177 40.7373561 168.657128 40.9420186 168.722811 41.1799983 168.856079 41.5902752 168.955079 42.3775119 169.023617 42.6488087 169.092155 42.715443 169.12452 42.7525678 169.191155 42.785885 169.28825 42.785885 169.489105 42.715443 169.723277 42.6488087 169.957449 42.5479053 170.354399 42.3422909 170.554302 42.2385318 172.389601 43.229479 176.518072 45.4150841 180.650351 47.6006892 182.513255 48.5916364 181.147252 48.9666924 177.949758 49.8881496 174.153506 50.877193 172.454332 51.3245947 171.087377 51.6625258 170.322986 51.8024579 169.924132 51.835775 169.590009 51.8671883 169.224472 51.8671883 168.856079 51.835775 168.488639 51.8024579 168.189736 51.6967949 167.825152 51.5939877 167.523393 51.4588152 167.190222 51.2855661 166.892271 51.0837593 166.590513 50.8124625 166.32588 50.5021371 166.061246 50.1603983 165.792805 49.7510733 165.659537 49.4788246 165.559585 49.2732102 165.360634 49.1380377 165.195001 49.0685477 164.963684 49.0342786 164.661926 48.9666924 163.828997 48.8981542 161.192183 48.5230983 161.192183 48.2841667 161.23026 47.7701307 161.23026 46.9838459 159.631036 46.3374932 155.763391 44.8001447 151.000942 42.9553265 148.738232 42.1043112 146.773472 41.3503917 136.712644 37.7321491 143.876784 29.8435998"></polyline>
            <polyline id="Fill-21" fill="#FFFFFE" points="149.43694 32.985883 149.970015 35.3076125 155.133221 36.9477682 160.861867 38.7916345 165.494855 40.2928102 167.389173 40.9067977 167.591932 41.0457778 167.728056 41.2152193 167.789931 41.3846608 167.890834 41.5902752 167.926055 41.8311106 167.926055 42.0690903 167.990785 42.5479053 168.024103 42.7525678 168.059324 42.9553265 168.128814 43.1609409 168.258275 43.2961133 168.423908 43.4693625 168.590494 43.569314 168.856079 43.6416598 169.191155 43.6730731 169.590009 43.569314 169.988863 43.4341415 170.487668 43.229479 176.518072 46.3708104 180.313372 48.3174839 179.416664 48.6240017 177.120637 49.3065273 175.620413 49.7177561 174.052603 50.1261292 172.389601 50.5021371 171.621403 50.6734824 170.822743 50.8438758 170.454351 50.877193 170.090718 50.947635 169.023617 50.947635 168.690446 50.877193 168.356322 50.8124625 168.059324 50.6734824 167.757565 50.5354542 167.456759 50.3317436 167.190222 50.1261292 166.958906 49.8548324 166.724734 49.5511704 166.5591 49.1713549 166.391562 48.761078 166.225928 48.2841667 162.097457 47.7701307 162.126967 46.4031756 149.738698 41.7273515 137.379939 37.0153544 137.679794 36.7078847 137.982504 36.3318769 141.44368 37.6645629 145.44269 39.1314695 153.66917 42.1709455 157.332153 43.5379006 160.328793 44.6297513 163.09602 45.6530637 163.060799 46.4031756 163.027482 47.0876051 164.963684 47.3255847 166.892271 47.567372 166.958906 47.976697 167.056953 48.350801 167.225443 48.7268089 167.456759 49.1018648 167.728056 49.4102864 168.059324 49.7177561 168.356322 49.9576396 168.557177 50.0252258 168.722811 50.093764 168.925569 50.1261292 169.191155 50.1603983 169.757546 50.1603983 170.421034 50.093764 171.154011 50.0252258 171.952671 49.8881496 172.786551 49.7177561 174.451457 49.3065273 175.986902 48.8981542 177.318636 48.5230983 178.552322 48.1128214 170.586667 44.0471771 169.957449 44.2546953 169.357741 44.3546468 169.023617 44.4250888 168.722811 44.4593578 168.323957 44.3546468 168.024103 44.2880125 167.789931 44.1509362 167.591932 43.9786389 167.456759 43.7768322 167.389173 43.569314 167.322539 43.2961133 167.291125 43.0952585 167.259712 42.5793186 167.190222 42.3422909 167.15976 42.1043112 167.056953 41.896793 166.923685 41.6892747 166.724734 41.5255447 166.459148 41.3503917 164.36112 40.6697699 162.226918 39.9862924 157.931862 38.6545583 149.37221 35.99109 148.639232 33.5341882 142.67927 31.139161 143.109537 30.6974708 145.475055 31.5513417 147.574987 32.3385784 149.43694 32.985883"></polyline>
            <polyline id="Fill-22" fill="#FFFFFE" points="147.273229 34.5555968 147.904351 36.4680013 156.43259 39.2009595 152.702973 38.3804057 146.67352 37.0153544 146.441252 36.2985597 146.273715 35.8197447 146.209936 35.581765 145.340834 35.2390744 143.375123 34.5555968 140.546972 33.4970633 141.576948 32.3699917 147.273229 34.5555968"></polyline>
            <polyline id="Fill-23" fill="#1A1919" points="137.947283 37.62839 134.58701 40.9420186 132.884028 42.5793186 131.15344 44.1842534 129.4219 45.7568229 128.55375 46.5069347 127.656091 47.2589504 126.790797 47.976697 125.888378 48.6592227 124.95645 49.3065273 124.057839 49.9576396 123.724667 50.1956193 123.390544 50.3650608 123.022151 50.5021371 122.65947 50.6049443 122.291078 50.6734824 121.924589 50.6734824 121.526687 50.6049443 121.127833 50.5354542 121.594273 47.6673235 122.125444 44.7335104 122.65947 41.7958896 123.156372 38.8944417 123.189689 38.6193373 123.322006 38.3118676 123.45813 38.0396189 123.588543 37.7635625 123.757032 37.5608038 123.988349 37.3228242 124.257741 37.1505269 124.522375 36.9477682 124.789864 36.844961 125.123035 36.7078847 125.457159 36.6383947 125.822696 36.5727123 126.588038 36.5727123 126.98594 36.6031737 127.421919 36.7078847 127.6856 36.0586763 127.956897 35.4446888 128.78697 35.5151307 129.357169 35.581765 129.587534 35.581765 129.653216 35.4446888 129.786485 35.1362671 129.956878 34.6926731 124.854594 36.5013184 117.826579 38.996297 117.295409 38.6193373 116.793748 38.2090604 115.662869 37.4941695 114.560547 36.7773748 113.398254 36.1281663 112.197885 35.4761021 110.970862 34.9325566 109.739079 34.3842515 108.501585 33.9425612 107.234581 33.4970633 106.003751 33.1220074 104.806237 32.8154896 104.265547 33.1077286 102.621584 33.2505164 100.834833 32.8212011 100.30747 32.1672331 58.9056744 32.1672331 63.1379044 29.7407926 65.7004693 28.2053479 65.2045197 28.1368097 64.7019067 28.1025407 63.5015373 27.830292 62.2373895 27.4885532 60.8694824 27.0449591 59.4073355 26.5661441 57.9727942 26.0530599 55.0418368 24.9602574 52.3774167 23.8703106 50.1794367 22.9126805 48.7125301 22.2644239 48.1480424 21.9902714 48.5821173 21.3410629 47.5169204 21.2744286 46.4498196 21.2744286 42.8525193 19.8751083 39.2199979 18.439615 39.3218532 18.3691731 39.487487 18.1664144 39.6226595 17.9941171 39.686438 17.8922619 37.4903618 17.8246756 36.3908959 17.3810816 33.8911576 16.3872786 31.3600061 15.400139 30.1939058 14.9584488 30.6279807 14.3758746 29.5932452 14.3406536 28.5965864 14.3406536 25.1296989 12.9422852 21.6666191 11.5772339 21.8341567 11.3363985 21.9664734 11.131736 21.9997906 11.061294 21.0678623 11.061294 20.1340301 11.0279769 17.0383909 9.8000019 14.8718242 8.94613093 13.8732616 8.5349021 13.973213 8.29787437 14.0741164 8.12748094 14.0741164 8.05703896 12.6043541 8.12748094 7.71434827 6.04468306 5.51351248 5.01851482 4.51494988 4.54350744 3.5839735 4.06469239 2.74818897 3.54970443 2.01901933 3.07374513 1.35077248 2.55970909 1.08328336 2.32077753 0.850063303 2.08184596 0.615891329 1.81054916 0.450257494 1.56780992 0.28367174 1.29841696 0.183720288 1.05948539 0.0837688361 0.818649989 0.051403604 0.54735319 0.051403604 0 46.3498682 0.0352209879 78.1601317 0.0694900572 93.0814557 0.0694900572 93.5478958 0.102807208 94.0124321 0.169441509 94.4493627 0.237979648 94.9119951 0.343642612 95.3479738 0.444545982 96.1456816 0.751063769 96.9091203 1.05948539 97.6773186 1.46881039 98.3122483 1.94857736 98.9757356 2.42453665 99.5754443 2.96998601 100.108519 3.54970443 100.574959 4.13132669 101.043303 4.74816994 101.409791 5.35834975 101.775328 5.97424108 102.074231 6.62344956 102.307451 7.24124473 102.773891 7.13653368 103.838136 6.86142921 105.306946 6.4206909 105.008996 6.14653835 104.404527 5.63630998 103.538281 4.91570761 105.139408 4.54350744 106.603459 4.19891291 107.966607 3.9628371 109.132707 3.79149175 110.136029 3.65441547 110.866151 3.54970443 111.50108 3.48307013 110.136029 2.11897079 112.698594 1.94857736 115.262111 1.84481823 117.8618 1.74201102 120.329173 1.70774195 119.961733 1.19465783 119.661879 0.854822896 121.392467 0.786284757 123.126862 0.751063769 124.854594 0.751063769 126.623259 0.818649989 128.389068 0.890043883 130.152973 0.989043417 131.91783 1.16038876 133.684591 1.3669551 135.449448 1.56780992 137.182892 1.87718346 138.911576 2.18465317 140.612655 2.55970909 142.345147 3.00520699 144.008148 3.41833966 145.672102 3.92761611 147.304643 4.4749693 149.672064 3.99615425 150.871481 3.79149175 152.103264 3.65441547 152.702973 3.58492542 153.305537 3.54970443 153.934755 3.54970443 154.533512 3.58492542 155.133221 3.65441547 155.733882 3.75627076 156.334542 3.89525088 156.866665 4.09705762 155.471152 5.39737842 154.500195 6.28266271 154.068024 6.69389154 156.233639 7.75337693 158.398302 8.84522756 159.464451 9.42399406 160.528696 10.0379816 161.561527 10.722411 162.593407 11.4392057 161.961333 11.5429648 161.330211 11.6800411 163.363509 12.9051604 164.326851 13.5562727 165.326365 14.2054811 166.061246 14.1036259 166.69332 14.0341358 167.259712 14.5148547 167.728056 14.9584488 168.158323 15.3658699 168.526716 15.7751949 168.824666 16.1502508 169.092155 16.5272106 169.32252 16.8679974 169.522422 17.1431019 169.757546 17.656186 169.890815 18.0293381 169.957449 18.2673178 169.957449 18.334904 169.590009 18.4082017 169.32252 18.4729322 169.092155 18.5414703 168.925569 18.7118638 168.856079 18.8156229 168.824666 18.9526992 168.789445 19.0878716 168.824666 19.2249479 168.889397 19.3953413 168.955079 19.5010043 169.12452 19.7723011 169.28825 19.9074735 169.357741 19.9741078 169.357741 20.2149432 169.32252 20.4548267 169.191155 21.001228 169.023617 21.480043 168.824666 21.9560023 168.590494 22.3662792 168.423908 22.672797 168.258275 22.9812186 166.660003 22.672797 165.026511 22.3662792 164.893242 22.672797 164.727608 22.9812186 164.461071 23.3210536 164.162169 23.6637443 163.828997 23.9721659 163.396826 24.2786837 162.92753 24.5509324 162.661945 24.6518358 162.361139 24.7879601 162.097457 24.8584021 161.795699 24.9602574 161.428259 25.0297475 161.096991 25.0630646 160.763819 25.0982856 160.36211 25.0982856 159.962304 25.0630646 159.530133 24.9983341 159.065597 24.9269402 158.628666 24.8231811 158.133668 24.6889606 157.631055 24.5509324 157.098933 24.3472218 156.568714 24.1082903 156.002323 23.8341377 155.40071 23.5599852 155.471152 23.3905436 155.535883 23.152564 155.535883 22.8793634 155.500662 22.6071146 155.471152 22.4700384 155.40071 22.3320102 155.33598 22.1930301 155.23698 22.1263958 155.133221 22.0616653 154.969491 22.0254924 154.801001 22.0254924 154.567781 22.0616653 153.965217 22.1930301 153.399777 22.3995964 152.237485 22.7746523 151.672045 22.9812186 151.10375 23.152564 150.470724 23.2544193 149.871015 23.3210536 149.43694 23.3905436 149.005721 23.4248127 148.106158 23.4248127 147.139961 23.3210536 146.67352 23.2886884 145.672102 23.0811701 145.175201 22.9459977 144.641174 22.7746523 144.142369 22.6071146 143.643564 22.3995964 143.142854 22.1606648 142.67927 21.8884161 142.211878 21.5809464 141.777803 21.6152155 140.87824 21.7161188 139.780678 21.854147 139.278065 21.9560023 138.844942 22.0940305 141.112412 22.2948853 142.477463 22.3995964 143.043855 23.1182949 144.041466 24.3814909 144.608809 25.1658718 145.175201 25.9521566 145.640689 26.7013165 145.805371 27.0449591 145.974812 27.3866979 146.006226 27.5551875 146.040495 27.6913118 146.040495 28.0349545 145.974812 28.3766932 145.872957 28.6841629 145.707323 28.9554597 145.539785 29.2657852 145.340834 29.5028129 145.142835 29.7407926 137.947283 37.62839"></polyline>
            <polyline id="Fill-24" fill="#FFFFFE" points="91.8820382 1.12611969 92.6140636 1.16038876 93.3137238 1.19465783 93.9467497 1.29841696 94.5788236 1.46881039 95.1480709 1.60493475 95.7458758 1.81054916 96.246585 2.04757689 96.7444384 2.28746038 97.2108785 2.55970909 97.6773186 2.83481357 98.0780764 3.14133135 98.444565 3.48307013 98.8101018 3.79149175 99.1413694 4.16464384 99.4754929 4.4749693 99.7448858 4.84812139 100.240835 5.53064702 100.642545 6.18271125 100.971909 6.86142921 101.21084 7.4087824 101.409791 7.85523222 101.541156 8.26265338 101.609694 8.57202692 102.307451 8.33309535 103.040428 8.09130803 104.572065 7.68198304 107.569657 6.89950595 106.735776 6.21698032 105.938068 5.56396417 106.535873 5.42974365 107.206976 5.29457121 108.532998 5.08514912 109.867588 4.91570761 111.168861 4.74816994 112.301644 4.67772796 113.199303 4.57587267 113.997011 4.50733453 113.398254 3.85812605 112.799497 3.21177333 115.396331 3.1080142 116.793748 3.0413799 118.161655 3.00520699 120.796565 3.00520699 122.026444 3.0413799 123.189689 3.1080142 122.723249 2.55970909 122.257761 2.04757689 122.925055 2.01330782 125.990233 2.01330782 127.357188 2.08184596 128.855508 2.11897079 130.451876 2.25319131 132.18532 2.39026758 133.983494 2.595882 135.815937 2.83481357 137.749284 3.1080142 139.646457 3.44975298 141.612169 3.85812605 143.541708 4.30267204 144.508858 4.57587267 145.475055 4.84812139 146.406983 5.12227394 147.338912 5.46401272 147.904351 5.35834975 148.472647 5.25649446 149.672064 5.01851482 150.871481 4.78148709 151.505459 4.71104511 152.136581 4.64726657 152.770559 4.57587267 153.468315 4.54350744 154.132755 4.54350744 154.801001 4.57587267 154.002342 5.22508115 153.100875 5.97424108 152.071851 6.86142921 154.168927 7.82001123 156.19937 8.77478558 158.133668 9.73241568 159.065597 10.243596 159.997525 10.7880934 158.932328 11.0279769 157.830958 11.2354951 158.734329 11.6438682 160.795233 12.7024017 162.027015 13.3525621 163.228337 14.0341358 164.36112 14.6833443 164.825656 15.0241311 165.260683 15.2973318 166.459148 15.0926693 166.759955 15.2621108 167.023636 15.469629 167.259712 15.7066568 167.490076 15.9132231 167.926055 16.3568172 168.258275 16.8346803 168.526716 17.2097362 168.690446 17.5533788 168.824666 17.8246756 168.389639 18.0293381 168.128814 18.2330487 167.990785 18.334904 167.926055 18.439615 167.825152 18.5757394 167.789931 18.7461328 167.757565 18.9174782 167.789931 19.0878716 167.856565 19.293486 167.990785 19.5010043 168.189736 19.7723011 168.423908 20.0102807 168.389639 20.252068 168.258275 20.8298826 168.128814 21.1373523 167.990785 21.480043 167.789931 21.7837051 167.690931 21.9560023 167.556711 22.0616653 167.056953 21.9560023 165.893709 21.7161188 164.227851 21.2744286 164.128852 21.5114563 164.027948 21.7161188 163.893728 21.9902714 163.692873 22.3320102 163.427288 22.638528 163.126481 22.9812186 162.761897 23.2886884 162.527725 23.4590818 162.294505 23.5599852 162.027015 23.7332343 161.762382 23.8341377 161.462528 23.9026758 161.129356 24.0054831 160.795233 24.040704 160.428744 24.0721174 160.02989 24.0721174 159.598671 24.040704 159.162692 23.9721659 158.699108 23.8703106 158.201255 23.7332343 157.664373 23.5599852 157.131298 23.3905436 156.568714 23.152564 156.599176 22.7746523 156.599176 22.4700384 156.568714 22.1606648 156.467811 21.9560023 156.334542 21.7161188 156.19937 21.5457254 156.002323 21.3762839 155.800516 21.2744286 155.535883 21.1725733 155.33598 21.1030833 155.035173 21.0345451 154.500195 21.0345451 154.238418 21.1030833 153.965217 21.1725733 153.66917 21.2744286 153.100875 21.480043 152.237485 21.7837051 151.672045 21.9902714 151.069481 22.1606648 150.404089 22.3320102 149.703477 22.4367212 148.903866 22.5052594 148.106158 22.5366727 147.673035 22.5052594 147.241816 22.4700384 146.773472 22.3995964 146.307984 22.3320102 145.83964 22.1930301 145.376055 22.0940305 144.908663 21.9217333 144.408906 21.7161188 143.909149 21.5114563 143.409392 21.2392076 142.909634 20.9317379 142.411781 20.6252201 141.714025 20.6937583 140.913461 20.7937097 139.213334 21.0688142 137.414208 21.4429182 135.682668 21.854147 134.084397 22.2644239 132.78598 22.638528 131.887369 22.9126805 131.649389 23.0164396 131.551342 23.0478529 132.717442 23.0164396 137.379939 23.0164396 139.147652 23.0811701 140.844923 23.1182949 142.311829 23.2201502 142.70878 23.7675034 143.143806 24.4176638 144.008148 25.8160322 144.675443 26.9431038 144.941981 27.420015 145.043836 27.5904085 145.076201 27.75985 145.076201 27.8969263 145.043836 28.0682716 144.97149 28.2405689 144.941981 28.3424242 142.411781 31.2467278 139.848264 34.1148585 138.546991 35.5151307 137.28094 36.8782782 135.950158 38.2090604 134.649837 39.5407945 133.318103 40.8382595 131.952099 42.1366765 130.585144 43.3656034 129.187728 44.6297513 127.754138 45.79014 126.323405 47.0209708 124.854594 48.1813595 123.322006 49.3065273 123.126862 49.3760174 122.891738 49.4436036 122.625201 49.4436036 122.360568 49.4102864 123.988349 40.7373561 124.257741 39.1314695 124.39101 38.7564136 124.591865 38.3804057 124.691816 38.2423775 124.789864 38.0738879 124.95645 37.9368116 125.123035 37.7635625 125.324842 37.6645629 125.556158 37.5950729 125.857917 37.5293905 126.125406 37.4941695 126.488087 37.4941695 126.920258 37.5293905 127.38765 37.62839 127.887407 37.7635625 128.155848 37.0467678 128.322434 36.5727123 128.422385 36.3318769 129.254362 36.4680013 130.085387 36.6031737 130.350972 36.1948006 130.986854 35.2029014 131.320026 34.5908178 131.686514 33.9425612 132.01683 33.3295257 132.251002 32.7802686 132.18532 32.7802686 132.051099 32.8154896 131.483756 32.9544697 129.851215 33.5341882 127.556139 34.4194724 124.95645 35.3761506 120.160684 37.2552379 118.561461 37.9025426 117.959848 38.1091089 117.230678 37.5293905 116.395846 36.9477682 115.463918 36.3670979 114.429182 35.7512066 113.33162 35.1362671 112.168375 34.5555968 110.970862 34.0091955 109.70481 33.4970633 108.406393 33.0182483 107.069899 32.57751 105.672483 32.2005502 104.305528 31.8588114 103.605868 31.7217352 102.909063 31.5894185 102.208451 31.4837555 101.504983 31.4133135 100.810083 31.3466792 100.108519 31.3152659 99.4421757 31.2762373 98.7434675 31.2762373 62.4039752 31.2467278 65.6347869 29.2657852 68.7656472 27.3514769 68.2658899 27.3866979 67.7014022 27.3866979 67.0997896 27.3162559 66.4667638 27.2515254 65.8032765 27.1468144 65.0674434 27.01069 63.6033926 26.6660955 62.0374866 26.2244053 60.4373114 25.7122731 58.839992 25.199189 57.2740859 24.6518358 54.3431286 23.5276199 51.9128804 22.5366727 49.6806313 21.5457254 49.6463622 21.5457254 49.6130451 21.5114563 50.4802429 20.521461 46.948625 20.4548267 40.8544421 17.9941171 40.9553455 17.8246756 41.2190269 17.5172059 41.6197847 17.0383909 38.0919744 16.9708047 31.7617157 14.4796337 32.1929349 13.9979629 32.6270097 13.4886864 28.8954889 13.4191964 27.9968777 13.0441405 26.0311658 12.2930767 23.0973527 11.0984189 23.8341377 10.243596 23.7665515 10.1741059 20.6347393 10.1741059 15.3715814 8.09130803 15.973194 7.24124473 12.9413333 7.27360996 11.8085501 6.82906398 10.6100846 6.31693178 9.10795709 5.66867521 7.47732054 4.94997668 5.77719393 4.13132669 4.21414361 3.31362862 3.48116629 2.86908264 2.81672711 2.49212287 2.41501747 2.18465317 2.01901933 1.87718346 1.81721259 1.70774195 1.648723 1.50117562 1.48308917 1.3669551 1.35077248 1.12611969 5.24697528 1.12611969 15.5058019 1.09280254 46.6154534 1.09280254 63.236904 1.12611969 91.8820382 1.12611969"></polyline>
            <polygon id="Stroke-25" stroke="#1A1919" stroke-width="0.108" points="91.8820382 1.12611969 92.6140636 1.16038876 93.3137238 1.19465783 93.9467497 1.29841696 94.5788236 1.46881039 95.1480709 1.60493475 95.7458758 1.81054916 96.246585 2.04757689 96.7444384 2.28746038 97.2108785 2.55970909 97.6773186 2.83481357 98.0780764 3.14133135 98.444565 3.48307013 98.8101018 3.79149175 99.1413694 4.16464384 99.4754929 4.4749693 99.7448858 4.84812139 100.240835 5.53064702 100.642545 6.18271125 100.971909 6.86142921 101.21084 7.4087824 101.409791 7.85523222 101.541156 8.26265338 101.609694 8.57202692 102.307451 8.33309535 103.040428 8.09130803 104.572065 7.68198304 107.569657 6.89950595 106.735776 6.21698032 105.938068 5.56396417 106.535873 5.42974365 107.206976 5.29457121 108.532998 5.08514912 109.867588 4.91570761 111.168861 4.74816994 112.301644 4.67772796 113.199303 4.57587267 113.997011 4.50733453 113.398254 3.85812605 112.799497 3.21177333 115.396331 3.1080142 116.793748 3.0413799 118.161655 3.00520699 120.796565 3.00520699 122.026444 3.0413799 123.189689 3.1080142 122.723249 2.55970909 122.257761 2.04757689 122.925055 2.01330782 125.990233 2.01330782 127.357188 2.08184596 128.855508 2.11897079 130.451876 2.25319131 132.18532 2.39026758 133.983494 2.595882 135.815937 2.83481357 137.749284 3.1080142 139.646457 3.44975298 141.612169 3.85812605 143.541708 4.30267204 144.508858 4.57587267 145.475055 4.84812139 146.406983 5.12227394 147.338912 5.46401272 147.904351 5.35834975 148.472647 5.25649446 149.672064 5.01851482 150.871481 4.78148709 151.505459 4.71104511 152.136581 4.64726657 152.770559 4.57587267 153.468315 4.54350744 154.132755 4.54350744 154.801001 4.57587267 154.002342 5.22508115 153.100875 5.97424108 152.071851 6.86142921 154.168927 7.82001123 156.19937 8.77478558 158.133668 9.73241568 159.065597 10.243596 159.997525 10.7880934 158.932328 11.0279769 157.830958 11.2354951 158.734329 11.6438682 160.795233 12.7024017 162.027015 13.3525621 163.228337 14.0341358 164.36112 14.6833443 164.825656 15.0241311 165.260683 15.2973318 166.459148 15.0926693 166.759955 15.2621108 167.023636 15.469629 167.259712 15.7066568 167.490076 15.9132231 167.926055 16.3568172 168.258275 16.8346803 168.526716 17.2097362 168.690446 17.5533788 168.824666 17.8246756 168.389639 18.0293381 168.128814 18.2330487 167.990785 18.334904 167.926055 18.439615 167.825152 18.5757394 167.789931 18.7461328 167.757565 18.9174782 167.789931 19.0878716 167.856565 19.293486 167.990785 19.5010043 168.189736 19.7723011 168.423908 20.0102807 168.389639 20.252068 168.258275 20.8298826 168.128814 21.1373523 167.990785 21.480043 167.789931 21.7837051 167.690931 21.9560023 167.556711 22.0616653 167.056953 21.9560023 165.893709 21.7161188 164.227851 21.2744286 164.128852 21.5114563 164.027948 21.7161188 163.893728 21.9902714 163.692873 22.3320102 163.427288 22.638528 163.126481 22.9812186 162.761897 23.2886884 162.527725 23.4590818 162.294505 23.5599852 162.027015 23.7332343 161.762382 23.8341377 161.462528 23.9026758 161.129356 24.0054831 160.795233 24.040704 160.428744 24.0721174 160.02989 24.0721174 159.598671 24.040704 159.162692 23.9721659 158.699108 23.8703106 158.201255 23.7332343 157.664373 23.5599852 157.131298 23.3905436 156.568714 23.152564 156.599176 22.7746523 156.599176 22.4700384 156.568714 22.1606648 156.467811 21.9560023 156.334542 21.7161188 156.19937 21.5457254 156.002323 21.3762839 155.800516 21.2744286 155.535883 21.1725733 155.33598 21.1030833 155.035173 21.0345451 154.500195 21.0345451 154.238418 21.1030833 153.965217 21.1725733 153.66917 21.2744286 153.100875 21.480043 152.237485 21.7837051 151.672045 21.9902714 151.069481 22.1606648 150.404089 22.3320102 149.703477 22.4367212 148.903866 22.5052594 148.106158 22.5366727 147.673035 22.5052594 147.241816 22.4700384 146.773472 22.3995964 146.307984 22.3320102 145.83964 22.1930301 145.376055 22.0940305 144.908663 21.9217333 144.408906 21.7161188 143.909149 21.5114563 143.409392 21.2392076 142.909634 20.9317379 142.411781 20.6252201 141.714025 20.6937583 140.913461 20.7937097 139.213334 21.0688142 137.414208 21.4429182 135.682668 21.854147 134.084397 22.2644239 132.78598 22.638528 131.887369 22.9126805 131.649389 23.0164396 131.551342 23.0478529 132.717442 23.0164396 137.379939 23.0164396 139.147652 23.0811701 140.844923 23.1182949 142.311829 23.2201502 142.70878 23.7675034 143.143806 24.4176638 144.008148 25.8160322 144.675443 26.9431038 144.941981 27.420015 145.043836 27.5904085 145.076201 27.75985 145.076201 27.8969263 145.043836 28.0682716 144.97149 28.2405689 144.941981 28.3424242 142.411781 31.2467278 139.848264 34.1148585 138.546991 35.5151307 137.28094 36.8782782 135.950158 38.2090604 134.649837 39.5407945 133.318103 40.8382595 131.952099 42.1366765 130.585144 43.3656034 129.187728 44.6297513 127.754138 45.79014 126.323405 47.0209708 124.854594 48.1813595 123.322006 49.3065273 123.126862 49.3760174 122.891738 49.4436036 122.625201 49.4436036 122.360568 49.4102864 123.988349 40.7373561 124.257741 39.1314695 124.39101 38.7564136 124.591865 38.3804057 124.691816 38.2423775 124.789864 38.0738879 124.95645 37.9368116 125.123035 37.7635625 125.324842 37.6645629 125.556158 37.5950729 125.857917 37.5293905 126.125406 37.4941695 126.488087 37.4941695 126.920258 37.5293905 127.38765 37.62839 127.887407 37.7635625 128.155848 37.0467678 128.322434 36.5727123 128.422385 36.3318769 129.254362 36.4680013 130.085387 36.6031737 130.350972 36.1948006 130.986854 35.2029014 131.320026 34.5908178 131.686514 33.9425612 132.01683 33.3295257 132.251002 32.7802686 132.18532 32.7802686 132.051099 32.8154896 131.483756 32.9544697 129.851215 33.5341882 127.556139 34.4194724 124.95645 35.3761506 120.160684 37.2552379 118.561461 37.9025426 117.959848 38.1091089 117.230678 37.5293905 116.395846 36.9477682 115.463918 36.3670979 114.429182 35.7512066 113.33162 35.1362671 112.168375 34.5555968 110.970862 34.0091955 109.70481 33.4970633 108.406393 33.0182483 107.069899 32.57751 105.672483 32.2005502 104.305528 31.8588114 103.605868 31.7217352 102.909063 31.5894185 102.208451 31.4837555 101.504983 31.4133135 100.810083 31.3466792 100.108519 31.3152659 99.4421757 31.2762373 98.7434675 31.2762373 62.4039752 31.2467278 65.6347869 29.2657852 68.7656472 27.3514769 68.2658899 27.3866979 67.7014022 27.3866979 67.0997896 27.3162559 66.4667638 27.2515254 65.8032765 27.1468144 65.0674434 27.01069 63.6033926 26.6660955 62.0374866 26.2244053 60.4373114 25.7122731 58.839992 25.199189 57.2740859 24.6518358 54.3431286 23.5276199 51.9128804 22.5366727 49.6806313 21.5457254 49.6463622 21.5457254 49.6130451 21.5114563 50.4802429 20.521461 46.948625 20.4548267 40.8544421 17.9941171 40.9553455 17.8246756 41.2190269 17.5172059 41.6197847 17.0383909 38.0919744 16.9708047 31.7617157 14.4796337 32.1929349 13.9979629 32.6270097 13.4886864 28.8954889 13.4191964 27.9968777 13.0441405 26.0311658 12.2930767 23.0973527 11.0984189 23.8341377 10.243596 23.7665515 10.1741059 20.6347393 10.1741059 15.3715814 8.09130803 15.973194 7.24124473 12.9413333 7.27360996 11.8085501 6.82906398 10.6100846 6.31693178 9.10795709 5.66867521 7.47732054 4.94997668 5.77719393 4.13132669 4.21414361 3.31362862 3.48116629 2.86908264 2.81672711 2.49212287 2.41501747 2.18465317 2.01901933 1.87718346 1.81721259 1.70774195 1.648723 1.50117562 1.48308917 1.3669551 1.35077248 1.12611969 5.24697528 1.12611969 15.5058019 1.09280254 46.6154534 1.09280254 63.236904 1.12611969"></polygon>
            <polyline id="Fill-26" fill="#1A1919" points="91.5136458 2.42453665 92.1485755 2.49212287 92.8834566 2.63110299 93.6811644 2.83481357 94.5140932 3.14133135 95.3793872 3.54970443 95.8106063 3.79149175 96.246585 4.06469239 96.644487 4.30267204 97.0757061 4.60918982 97.4764638 4.9871015 97.8772215 5.29457121 98.245614 5.66867521 98.6130546 6.07895213 98.9414665 6.48922904 99.2774938 6.96614026 99.5430791 7.4087824 99.8096163 7.92186652 100.042836 8.43495064 100.240835 8.98230383 100.376008 9.52775319 100.508325 10.1093754 100.574959 10.722411 100.609228 11.3706676 100.609228 12.0503375 100.539738 12.7357188 100.409325 13.4191964 100.240835 14.172164 101.440253 13.6600318 102.637766 13.1802648 103.838136 12.7357188 105.008996 12.2930767 107.303119 11.471571 108.438758 11.131736 109.566782 10.7880934 110.666248 10.4501623 111.800935 10.1093754 112.867084 9.8000019 113.964646 9.56107034 116.062674 9.04893813 118.161655 8.60534407 120.160684 8.22933623 122.125444 7.92186652 123.988349 7.68198304 125.822696 7.44495531 127.586601 7.27360996 129.288631 7.16889892 130.92022 7.10512037 132.449953 7.03277456 135.315228 7.03277456 136.649818 7.06704363 137.882552 7.13653368 140.081484 7.27360996 141.944389 7.51063769 143.441757 7.68198304 144.508858 7.85523222 145.405565 8.02276989 145.475055 8.02276989 145.607372 7.92186652 146.106177 7.61439682 146.572617 7.30883095 146.773472 7.16889892 146.273715 7.03277456 145.607372 6.86142921 143.774928 6.48922904 141.511266 6.11226928 140.24807 5.90760678 138.945845 5.73816527 137.614111 5.53064702 136.282377 5.35834975 134.950643 5.22508115 133.651274 5.12227394 132.417588 5.01851482 131.251487 4.9871015 130.219608 4.94997668 129.288631 4.9871015 129.920705 5.66867521 130.319559 6.14653835 130.451876 6.31693178 130.521366 6.35310468 129.151555 6.14653835 127.789359 5.97424108 126.421452 5.84002056 125.052594 5.70294428 123.689446 5.60013708 122.291078 5.53064702 120.926978 5.46401272 119.495293 5.42974365 120.992661 6.86142921 118.929853 6.89950595 116.828969 6.96614026 114.731892 7.16889892 113.732378 7.24124473 112.732863 7.37546525 113.598157 7.95708751 114.429182 8.50158494 112.765228 8.63961314 111.066054 8.77478558 109.369735 8.98230383 107.701021 9.18601441 106.003751 9.45921505 104.373114 9.73241568 102.741526 10.0379816 101.142302 10.4149413 102.140865 10.0379816 103.241283 9.6971947 104.572065 9.25455255 106.03802 8.77478558 107.569657 8.33309535 109.034659 7.92186652 109.70481 7.75337693 110.33498 7.61439682 109.369735 6.86142921 108.438758 6.11226928 109.96754 5.87333771 111.401129 5.66867521 112.765228 5.53064702 113.964646 5.42974365 114.963208 5.39737842 115.729503 5.35834975 116.360625 5.35834975 115.860868 4.84812139 115.429648 4.40357541 115.03365 3.9628371 116.331115 3.92761611 117.695215 3.89525088 120.426269 3.89525088 123.089737 3.92761611 125.590428 4.06469239 125.157305 3.54970443 124.854594 3.17369659 124.758451 3.0413799 124.724182 2.96998601 127.720821 3.07374513 130.719365 3.24509048 132.216733 3.38121484 133.716957 3.5173392 135.248594 3.68868454 136.712644 3.89525088 138.21382 4.09705762 139.679775 4.37121017 141.177143 4.64726657 142.612636 4.94997668 144.074783 5.29457121 145.475055 5.63630998 146.907692 6.04468306 148.307013 6.45495997 149.30272 6.18271125 150.337455 5.87333771 150.838164 5.7705305 151.371239 5.66867521 151.870044 5.56396417 152.369801 5.53064702 152.037582 5.80479957 151.272239 6.38642183 150.53831 6.93091927 150.168966 7.16889892 154.300292 8.98230383 156.764809 10.0379816 155.932833 9.76668475 153.965217 9.0832072 152.770559 8.67293029 151.536873 8.33309535 150.337455 7.98945274 149.807236 7.85523222 149.337941 7.75337693 147.175182 9.52775319 145.774909 9.35545592 144.375589 9.15174534 142.977221 9.04893813 141.576948 8.91186186 140.177628 8.84522756 138.780212 8.77478558 137.351382 8.74337227 135.950158 8.74337227 134.514664 8.77478558 133.117248 8.81000657 131.7541 8.91186186 130.319559 9.01562098 128.921191 9.15174534 127.519966 9.2878697 126.125406 9.49348412 124.789864 9.6971947 123.390544 9.93707818 122.026444 10.2093269 120.659489 10.4834795 119.293486 10.8261701 117.959848 11.131736 116.629066 11.5077439 115.262111 11.9180208 113.964646 12.2930767 112.665277 12.7357188 111.335447 13.213582 110.036078 13.7266661 108.769074 14.2054811 107.503974 14.7157095 106.27124 15.2973318 105.008996 15.878954 103.838136 16.4919896 114.165501 25.0297475 113.264034 24.4481252 112.168375 23.7675034 110.80142 23.0811701 109.268831 22.2644239 107.634387 21.4429182 105.904751 20.591903 104.136086 19.7723011 102.371229 18.9174782 99.0442737 17.3477644 96.246585 16.0502994 93.5478958 14.8537377 93.7487506 14.2740193 93.9143844 13.7266661 94.1133354 13.0441405 94.2799212 12.2245386 94.4141417 11.3706676 94.4493627 10.8928044 94.4798241 10.4149413 94.4493627 9.93707818 94.4493627 9.45921505 94.3465555 8.98230383 94.2475559 8.50158494 94.1133354 8.05703896 93.9467497 7.58107967 93.7135296 7.16889892 93.4136753 6.72625677 93.1147728 6.31693178 92.7121113 5.97424108 92.2799402 5.63630998 91.7820868 5.32884028 91.1814262 5.05468772 90.5493522 4.81480424 89.8496921 4.64726657 89.0481766 4.50733453 88.1505174 4.40357541 87.1852719 4.37121017 56.1079856 4.37121017 56.6753291 4.8842943 57.2740859 5.35834975 57.9080637 5.84002056 58.5077724 6.28266271 59.1741154 6.72625677 59.8385546 7.16889892 61.1721926 7.98945274 62.570561 8.74337227 64.0365156 9.45921505 65.5015183 10.1417407 66.9998382 10.7566801 68.4648409 11.3363985 69.9983817 11.8494826 71.5328745 12.3625668 73.0635596 12.8052089 74.5618795 13.213582 76.0601993 13.5895898 77.5575673 13.9332324 78.9911567 14.2407021 80.4218903 14.5148547 81.7564802 14.7499786 84.354266 15.1602555 86.6874185 15.469629 88.7169089 15.6742915 90.3818145 15.8085121 91.6478663 15.9132231 92.4484298 15.9132231 92.7121113 15.9474922 91.9144035 16.0836165 91.0481576 16.2549619 89.9172783 16.4253553 88.5845922 16.6300178 87.1195895 16.8346803 85.5879525 16.9365356 84.7864371 16.9708047 84.0201426 17.0050737 87.219541 18.3034907 90.4494008 19.5981 96.8786589 22.0940305 103.33933 24.5861534 109.802858 27.0782763 110.201712 26.3262606 114.930843 29.3657366 109.166976 28.5137695 109.501099 27.7969748 108.769074 27.5904085 108.036097 27.3514769 107.26885 27.1791796 106.535873 27.01069 105.740069 26.8717099 104.972823 26.7717585 104.204624 26.6346822 103.440234 26.5328269 101.841011 26.4290678 100.275104 26.3614816 98.6768332 26.3614816 97.0757061 26.4290678 95.4479253 26.4985578 93.8134811 26.6013651 92.2494788 26.7717585 90.6493037 26.9431038 87.5165396 27.3162559 84.4865827 27.6579947 82.8216771 27.8969263 80.9549647 28.203444 77.1596653 28.8545564 74.0592665 29.3657366 72.7960705 29.5732549 76.3924189 27.8969263 80.0239883 26.2244053 79.6565478 26.087329 78.8226671 25.7465422 77.6251535 25.268679 76.192516 25.268679 74.8617338 25.3372172 72.3962647 25.4048034 71.1977992 25.4733415 69.9983817 25.4733415 68.7989643 25.4048034 67.4986435 25.3039 66.1345442 25.1354104 64.6352724 24.8584021 63.0036839 24.5166633 61.2064616 24.0054831 59.2397978 23.4248127 57.0094526 22.638528 54.5763486 21.7503879 51.8452942 20.6575854 51.8452942 20.6252201 51.9452456 20.4881439 52.2451 20.1454532 52.7115401 19.5981 48.8467506 19.5657347 45.8158418 18.4082017 43.7501785 17.6190612 42.8172983 17.2097362 42.8172983 17.106929 43.2513731 16.6300178 43.5835927 16.3225481 43.650227 16.218789 43.6835442 16.1502508 40.586953 16.1502508 40.0224653 16.1169337 39.0219988 15.7066568 36.8230669 14.8537377 33.6912547 13.6219551 34.1234258 13.1469477 34.5241835 12.7024017 30.9925655 12.6024502 25.1296989 10.3454513 25.2648713 10.1741059 25.5989948 9.8000019 25.8978972 9.45921505 25.9978487 9.35545592 26.0311658 9.2878697 25.4333609 9.32309069 24.1673092 9.2878697 22.3015488 9.25455255 21.5333505 8.98230383 19.8684449 8.33309535 17.504831 7.37546525 17.5362443 7.30883095 17.6371477 7.16889892 17.9379539 6.79574683 18.4043941 6.24839364 16.4386822 6.24839364 15.1050442 6.18271125 14.5415084 6.18271125 13.0422366 5.60013708 9.80952109 4.30267204 5.11275476 2.42453665 91.5136458 2.42453665"></polyline>
            <polygon id="Stroke-27" stroke="#1A1919" stroke-width="0.108" points="91.5136458 2.42453665 92.1485755 2.49212287 92.8834566 2.63110299 93.6811644 2.83481357 94.5140932 3.14133135 95.3793872 3.54970443 95.8106063 3.79149175 96.246585 4.06469239 96.644487 4.30267204 97.0757061 4.60918982 97.4764638 4.9871015 97.8772215 5.29457121 98.245614 5.66867521 98.6130546 6.07895213 98.9414665 6.48922904 99.2774938 6.96614026 99.5430791 7.4087824 99.8096163 7.92186652 100.042836 8.43495064 100.240835 8.98230383 100.376008 9.52775319 100.508325 10.1093754 100.574959 10.722411 100.609228 11.3706676 100.609228 12.0503375 100.539738 12.7357188 100.409325 13.4191964 100.240835 14.172164 101.440253 13.6600318 102.637766 13.1802648 103.838136 12.7357188 105.008996 12.2930767 107.303119 11.471571 108.438758 11.131736 109.566782 10.7880934 110.666248 10.4501623 111.800935 10.1093754 112.867084 9.8000019 113.964646 9.56107034 116.062674 9.04893813 118.161655 8.60534407 120.160684 8.22933623 122.125444 7.92186652 123.988349 7.68198304 125.822696 7.44495531 127.586601 7.27360996 129.288631 7.16889892 130.92022 7.10512037 132.449953 7.03277456 135.315228 7.03277456 136.649818 7.06704363 137.882552 7.13653368 140.081484 7.27360996 141.944389 7.51063769 143.441757 7.68198304 144.508858 7.85523222 145.405565 8.02276989 145.475055 8.02276989 145.607372 7.92186652 146.106177 7.61439682 146.572617 7.30883095 146.773472 7.16889892 146.273715 7.03277456 145.607372 6.86142921 143.774928 6.48922904 141.511266 6.11226928 140.24807 5.90760678 138.945845 5.73816527 137.614111 5.53064702 136.282377 5.35834975 134.950643 5.22508115 133.651274 5.12227394 132.417588 5.01851482 131.251487 4.9871015 130.219608 4.94997668 129.288631 4.9871015 129.920705 5.66867521 130.319559 6.14653835 130.451876 6.31693178 130.521366 6.35310468 129.151555 6.14653835 127.789359 5.97424108 126.421452 5.84002056 125.052594 5.70294428 123.689446 5.60013708 122.291078 5.53064702 120.926978 5.46401272 119.495293 5.42974365 120.992661 6.86142921 118.929853 6.89950595 116.828969 6.96614026 114.731892 7.16889892 113.732378 7.24124473 112.732863 7.37546525 113.598157 7.95708751 114.429182 8.50158494 112.765228 8.63961314 111.066054 8.77478558 109.369735 8.98230383 107.701021 9.18601441 106.003751 9.45921505 104.373114 9.73241568 102.741526 10.0379816 101.142302 10.4149413 102.140865 10.0379816 103.241283 9.6971947 104.572065 9.25455255 106.03802 8.77478558 107.569657 8.33309535 109.034659 7.92186652 109.70481 7.75337693 110.33498 7.61439682 109.369735 6.86142921 108.438758 6.11226928 109.96754 5.87333771 111.401129 5.66867521 112.765228 5.53064702 113.964646 5.42974365 114.963208 5.39737842 115.729503 5.35834975 116.360625 5.35834975 115.860868 4.84812139 115.429648 4.40357541 115.03365 3.9628371 116.331115 3.92761611 117.695215 3.89525088 120.426269 3.89525088 123.089737 3.92761611 125.590428 4.06469239 125.157305 3.54970443 124.854594 3.17369659 124.758451 3.0413799 124.724182 2.96998601 127.720821 3.07374513 130.719365 3.24509048 132.216733 3.38121484 133.716957 3.5173392 135.248594 3.68868454 136.712644 3.89525088 138.21382 4.09705762 139.679775 4.37121017 141.177143 4.64726657 142.612636 4.94997668 144.074783 5.29457121 145.475055 5.63630998 146.907692 6.04468306 148.307013 6.45495997 149.30272 6.18271125 150.337455 5.87333771 150.838164 5.7705305 151.371239 5.66867521 151.870044 5.56396417 152.369801 5.53064702 152.037582 5.80479957 151.272239 6.38642183 150.53831 6.93091927 150.168966 7.16889892 154.300292 8.98230383 156.764809 10.0379816 155.932833 9.76668475 153.965217 9.0832072 152.770559 8.67293029 151.536873 8.33309535 150.337455 7.98945274 149.807236 7.85523222 149.337941 7.75337693 147.175182 9.52775319 145.774909 9.35545592 144.375589 9.15174534 142.977221 9.04893813 141.576948 8.91186186 140.177628 8.84522756 138.780212 8.77478558 137.351382 8.74337227 135.950158 8.74337227 134.514664 8.77478558 133.117248 8.81000657 131.7541 8.91186186 130.319559 9.01562098 128.921191 9.15174534 127.519966 9.2878697 126.125406 9.49348412 124.789864 9.6971947 123.390544 9.93707818 122.026444 10.2093269 120.659489 10.4834795 119.293486 10.8261701 117.959848 11.131736 116.629066 11.5077439 115.262111 11.9180208 113.964646 12.2930767 112.665277 12.7357188 111.335447 13.213582 110.036078 13.7266661 108.769074 14.2054811 107.503974 14.7157095 106.27124 15.2973318 105.008996 15.878954 103.838136 16.4919896 114.165501 25.0297475 113.264034 24.4481252 112.168375 23.7675034 110.80142 23.0811701 109.268831 22.2644239 107.634387 21.4429182 105.904751 20.591903 104.136086 19.7723011 102.371229 18.9174782 99.0442737 17.3477644 96.246585 16.0502994 93.5478958 14.8537377 93.7487506 14.2740193 93.9143844 13.7266661 94.1133354 13.0441405 94.2799212 12.2245386 94.4141417 11.3706676 94.4493627 10.8928044 94.4798241 10.4149413 94.4493627 9.93707818 94.4493627 9.45921505 94.3465555 8.98230383 94.2475559 8.50158494 94.1133354 8.05703896 93.9467497 7.58107967 93.7135296 7.16889892 93.4136753 6.72625677 93.1147728 6.31693178 92.7121113 5.97424108 92.2799402 5.63630998 91.7820868 5.32884028 91.1814262 5.05468772 90.5493522 4.81480424 89.8496921 4.64726657 89.0481766 4.50733453 88.1505174 4.40357541 87.1852719 4.37121017 56.1079856 4.37121017 56.6753291 4.8842943 57.2740859 5.35834975 57.9080637 5.84002056 58.5077724 6.28266271 59.1741154 6.72625677 59.8385546 7.16889892 61.1721926 7.98945274 62.570561 8.74337227 64.0365156 9.45921505 65.5015183 10.1417407 66.9998382 10.7566801 68.4648409 11.3363985 69.9983817 11.8494826 71.5328745 12.3625668 73.0635596 12.8052089 74.5618795 13.213582 76.0601993 13.5895898 77.5575673 13.9332324 78.9911567 14.2407021 80.4218903 14.5148547 81.7564802 14.7499786 84.354266 15.1602555 86.6874185 15.469629 88.7169089 15.6742915 90.3818145 15.8085121 91.6478663 15.9132231 92.4484298 15.9132231 92.7121113 15.9474922 91.9144035 16.0836165 91.0481576 16.2549619 89.9172783 16.4253553 88.5845922 16.6300178 87.1195895 16.8346803 85.5879525 16.9365356 84.7864371 16.9708047 84.0201426 17.0050737 87.219541 18.3034907 90.4494008 19.5981 96.8786589 22.0940305 103.33933 24.5861534 109.802858 27.0782763 110.201712 26.3262606 114.930843 29.3657366 109.166976 28.5137695 109.501099 27.7969748 108.769074 27.5904085 108.036097 27.3514769 107.26885 27.1791796 106.535873 27.01069 105.740069 26.8717099 104.972823 26.7717585 104.204624 26.6346822 103.440234 26.5328269 101.841011 26.4290678 100.275104 26.3614816 98.6768332 26.3614816 97.0757061 26.4290678 95.4479253 26.4985578 93.8134811 26.6013651 92.2494788 26.7717585 90.6493037 26.9431038 87.5165396 27.3162559 84.4865827 27.6579947 82.8216771 27.8969263 80.9549647 28.203444 77.1596653 28.8545564 74.0592665 29.3657366 72.7960705 29.5732549 76.3924189 27.8969263 80.0239883 26.2244053 79.6565478 26.087329 78.8226671 25.7465422 77.6251535 25.268679 76.192516 25.268679 74.8617338 25.3372172 72.3962647 25.4048034 71.1977992 25.4733415 69.9983817 25.4733415 68.7989643 25.4048034 67.4986435 25.3039 66.1345442 25.1354104 64.6352724 24.8584021 63.0036839 24.5166633 61.2064616 24.0054831 59.2397978 23.4248127 57.0094526 22.638528 54.5763486 21.7503879 51.8452942 20.6575854 51.8452942 20.6252201 51.9452456 20.4881439 52.2451 20.1454532 52.7115401 19.5981 48.8467506 19.5657347 45.8158418 18.4082017 43.7501785 17.6190612 42.8172983 17.2097362 42.8172983 17.106929 43.2513731 16.6300178 43.5835927 16.3225481 43.650227 16.218789 43.6835442 16.1502508 40.586953 16.1502508 40.0224653 16.1169337 39.0219988 15.7066568 36.8230669 14.8537377 33.6912547 13.6219551 34.1234258 13.1469477 34.5241835 12.7024017 30.9925655 12.6024502 25.1296989 10.3454513 25.2648713 10.1741059 25.5989948 9.8000019 25.8978972 9.45921505 25.9978487 9.35545592 26.0311658 9.2878697 25.4333609 9.32309069 24.1673092 9.2878697 22.3015488 9.25455255 21.5333505 8.98230383 19.8684449 8.33309535 17.504831 7.37546525 17.5362443 7.30883095 17.6371477 7.16889892 17.9379539 6.79574683 18.4043941 6.24839364 16.4386822 6.24839364 15.1050442 6.18271125 14.5415084 6.18271125 13.0422366 5.60013708 9.80952109 4.30267204 5.11275476 2.42453665"></polygon>
            <polyline id="Fill-28" fill="#FFFFFE" points="49.5806799 4.37121017 50.3783876 5.22508115 45.6492561 5.25649446 40.7868559 5.25649446 35.1562574 5.29457121 19.8684449 5.29457121 18.5357588 4.84812139 17.5695615 4.50733453 17.1373904 4.37121017 17.1373904 4.30267204 49.5806799 4.37121017"></polyline>
            <polyline id="Fill-29" fill="#1A1919" points="156.801934 10.8594873 157.234105 12.0884142 158.232668 12.4977392 159.261692 12.9051604 160.26311 13.3525621 161.263577 13.8294733 162.226918 14.3758746 163.19502 14.9222758 164.162169 15.469629 165.06078 16.0836165 165.226414 16.1502508 165.394903 16.1502508 165.593854 16.1169337 165.827074 16.0502994 166.125977 15.9474922 166.259246 15.878954 166.493417 16.0502994 166.69332 16.2549619 166.923685 16.4596244 167.092174 16.663335 167.456759 17.1431019 167.757565 17.6190612 167.556711 17.7237723 167.361567 17.8922619 167.15976 18.1321453 167.056953 18.2673178 166.992223 18.439615 166.923685 18.6119123 166.892271 18.7804019 166.892271 18.9526992 166.923685 19.1564097 166.992223 19.3296589 167.092174 19.5324176 167.259712 19.7723011 167.456759 19.9741078 167.456759 20.1454532 167.322539 20.521461 167.092174 21.0688142 165.426317 20.6937583 163.761411 20.3177504 163.761411 19.8751083 163.729046 19.5981 163.660508 19.3296589 163.627191 19.2249479 163.528191 19.0878716 163.427288 19.0193335 163.328288 18.9174782 163.19502 18.84894 163.060799 18.84894 162.896117 18.7804019 162.427773 18.7118638 161.762382 18.6442775 161.361624 18.6119123 160.96277 18.6119123 160.528696 18.6442775 160.162207 18.7118638 159.729084 18.7804019 159.364499 18.9174782 159.031328 19.0878716 158.86379 19.2249479 158.76479 19.3620242 158.628666 19.5010043 158.533474 19.6704458 158.431619 19.8389354 158.333571 20.0102807 160.597234 20.9317379 162.126967 21.5457254 162.828531 21.819878 162.761897 21.9217333 162.527725 22.1606648 162.327822 22.2948853 162.097457 22.4700384 161.829016 22.6071146 161.530114 22.7746523 161.192183 22.8793634 160.795233 22.9812186 160.397331 23.0478529 159.929939 23.0811701 159.430182 23.0164396 158.86379 22.9126805 158.333571 22.7746523 157.69769 22.5052594 157.664373 22.1930301 157.631055 21.8884161 157.532056 21.5809464 157.399739 21.3086977 157.234105 21.0345451 157.033251 20.8298826 156.832396 20.626172 156.568714 20.4548267 156.19937 20.3177504 155.868102 20.2149432 155.500662 20.1454532 155.168442 20.1130879 154.801001 20.1130879 154.466878 20.1454532 154.103245 20.2149432 153.770074 20.2825294 153.071365 20.4881439 152.336484 20.7270754 151.600651 21.001228 150.838164 21.2392076 150.004284 21.4429182 149.570209 21.5457254 149.138038 21.5809464 148.704915 21.6485326 147.742525 21.6485326 147.241816 21.6152155 146.70779 21.5457254 146.209936 21.4134087 145.640689 21.2744286 145.076201 21.0345451 144.477444 20.7937097 143.843467 20.4881439 143.241854 20.1130879 142.575511 19.6704458 141.612169 19.8037144 140.577434 19.9741078 138.312819 20.3853366 135.981571 20.8631998 133.716957 21.3410629 130.018753 22.2644239 128.520433 22.638528 129.721754 22.0940305 130.953537 21.5457254 133.284785 20.591903 135.516083 19.7037629 137.516064 18.9831606 139.213334 18.4082017 140.513655 17.9588962 141.645486 17.5533788 141.6769 17.2097362 141.713073 16.8679974 141.777803 16.5595758 141.876803 16.218789 141.976754 15.9132231 142.078609 15.6048015 142.374656 15.0241311 142.70878 14.4796337 143.109537 13.9665496 143.508391 13.4886864 143.876784 13.0441405 144.308955 12.6681326 144.708761 12.3273458 145.405565 11.7818964 145.908178 11.471571 146.07286 11.3706676 145.44269 12.0503375 144.875346 12.7024017 144.408906 13.3154373 144.041466 13.9332324 143.743515 14.5148547 143.508391 15.0926693 143.341805 15.6048015 143.276123 16.1169337 143.241854 16.5957487 143.30944 17.0383909 143.409392 17.4496197 143.575025 17.8589447 143.843467 18.2330487 144.074783 18.5414703 144.408906 18.84894 144.774443 19.0878716 145.175201 19.3620242 145.640689 19.5657347 146.140446 19.7037629 146.639251 19.8751083 147.206595 19.9407907 147.77489 20.0102807 148.341282 20.0445498 148.973356 20.0445498 149.604478 19.9741078 150.236552 19.9074735 150.871481 19.7723011 151.536873 19.5981 152.203216 19.3953413 152.867655 19.1564097 153.50544 18.84894 154.168927 18.5414703 156.866665 19.1211888 157.298836 18.5072013 157.532056 18.2330487 157.799545 17.9588962 158.063226 17.6885513 158.365937 17.5172059 158.564888 17.4153506 158.76479 17.3810816 158.932328 17.3477644 159.162692 17.3115915 161.561527 17.2097362 163.961314 17.0745638 163.427288 16.697604 162.727628 16.2549619 161.829016 15.7418778 160.697185 15.0926693 160.02989 14.7880553 159.364499 14.4796337 158.628666 14.136943 157.830958 13.8294733 157.000885 13.5562727 156.132736 13.248803 155.932833 12.6024502 155.733882 12.020828 148.602108 9.8000019 149.20372 9.32309069 149.807236 8.81000657 153.305537 9.86949196 155.700564 10.5520176 156.501128 10.7880934 156.801934 10.8594873"></polyline>
            <polyline id="Fill-30" fill="#FFFFFE" points="64.6685895 13.4534655 65.9679584 13.9332324 67.2340101 14.3758746 68.5314752 14.7499786 69.8298921 15.0926693 44.3832043 15.0926693 40.3537329 13.4534655 64.6685895 13.4534655"></polyline>
            <polyline id="Fill-31" fill="#1A1919" points="155.035173 13.0441405 154.937126 13.7609352 156.467811 14.8537377 154.068024 14.4796337 151.635872 14.0693568 155.035173 13.0441405"></polyline>
            <polyline id="Fill-32" fill="#FFFFFE" points="77.5908844 17.0050737 79.6260864 17.7904066 81.6565287 18.6119123 53.543517 18.6119123 49.5140456 17.0050737 77.5908844 17.0050737"></polyline>
            <polyline id="Fill-33" fill="#1A1919" points="128.823143 25.0630646 130.451876 24.8584021 132.051099 24.6889606 133.684591 24.5861534 135.282863 24.4481252 136.913499 24.3472218 138.581261 24.2786837 140.24807 24.2444146 141.976754 24.2091936 142.909634 25.6789559 143.843467 27.1791796 143.975783 27.455236 144.041466 27.6579947 144.041466 27.8636091 144.008148 28.0349545 143.943418 28.1701269 143.843467 28.3424242 143.609295 28.613721 141.34468 31.1772377 139.01248 33.7731197 136.611741 36.3318769 135.383766 37.5608038 134.150079 38.8259036 131.61988 41.2818536 130.319559 42.4441462 129.023046 43.6416598 127.6856 44.8001447 126.354818 45.8919953 124.986911 46.9838459 123.625668 48.0442833 124.190155 44.8344138 125.157305 39.4722563 125.256304 39.2342767 125.357207 38.996297 125.457159 38.8944417 125.556158 38.7564136 125.653254 38.6545583 125.822696 38.5841163 126.024502 38.482261 126.220598 38.4489438 126.488087 38.4146748 126.824114 38.4146748 127.221064 38.4489438 127.623726 38.5193858 128.088262 38.6193373 128.655605 38.7916345 128.921191 38.0034459 129.187728 37.2552379 130.688903 37.4941695 131.718879 35.9235038 132.216733 35.1362671 132.717442 34.3176172 133.651274 32.6108271 134.052032 31.7550523 134.381396 30.9011813 133.617957 31.0725267 132.751711 31.3466792 130.652731 31.993032 128.254848 32.8154896 125.757013 33.7007739 121.127833 35.3761506 119.427707 36.0586763 118.361558 36.5013184 117.561946 35.8197447 116.763286 35.1362671 115.963675 34.4861067 115.129794 33.9092441 114.297817 33.3295257 113.432523 32.7488553 112.565325 32.2357712 111.665762 31.7217352 110.770007 31.2762373 109.867588 30.8364509 108.938516 30.4242701 108.004683 30.0492142 107.036582 29.7074754 106.071337 29.3657366 105.107043 29.0611227 104.136086 28.8212392 104.873823 28.9221426 105.672483 29.0239979 106.471143 29.1962951 107.337389 29.3990538 108.204586 29.6370334 109.103197 29.8778688 110.036078 30.1529733 110.970862 30.4909044 111.900886 30.8364509 112.867084 31.2134106 114.832795 32.0634739 115.797089 32.5108757 116.763286 32.985883 117.725676 33.4637462 118.695681 34.0091955 123.523812 31.9635225 125.925503 30.9383062 127.15443 30.4594911 128.355751 30.015897 129.587534 29.5732549 130.818364 29.1229974 132.083464 28.7174801 133.318103 28.3766932 134.618423 28.0349545 135.915888 27.7274847 137.216209 27.455236 138.546991 27.2515254 138.012965 30.5946635 139.714044 29.0611227 140.844923 28.0006854 141.34468 27.5209184 141.278998 27.3162559 141.012461 26.8050756 140.612655 26.087329 138.844942 26.1568191 137.013451 26.2596263 135.185767 26.3938468 133.383785 26.5661441 131.551342 26.7717585 129.753168 27.01069 128.023531 27.2515254 126.254867 27.5551875 125.857917 26.9078828 125.388621 26.2596263 124.924084 25.6456388 124.425279 25.0630646 123.891253 24.5166633 123.356275 23.9721659 122.793691 23.4590818 122.225395 22.9812186 121.625687 22.5052594 121.025978 22.0616653 120.392952 21.6485326 119.760878 21.2392076 119.1269 20.8631998 118.462461 20.521461 117.826579 20.1797222 117.164044 19.8751083 117.260188 19.7723011 118.794681 20.1797222 119.560975 20.3853366 120.329173 20.626172 121.825589 21.1725733 123.293448 21.819878 124.724182 22.5052594 125.457159 22.9126805 126.125406 23.2886884 127.487601 24.1425593 128.155848 24.5861534 128.823143 25.0630646"></polyline>
            <polyline id="Fill-34" fill="#FFFFFE" points="87.0186862 20.7270754 88.5531789 21.3410629 90.0848159 21.9560023 91.6145491 22.5366727 93.1147728 23.152564 71.8641422 23.1849292 70.5638214 23.1849292 69.0997706 23.152564 68.2325728 23.1182949 67.3339616 23.0164396 66.3020818 22.9126805 65.2702021 22.7413352 64.2040533 22.5366727 63.1379044 22.2948853 62.0688999 21.9902714 61.037972 21.6152155 60.5382148 21.4134087 60.0375056 21.2068424 59.5710655 20.9317379 59.1065292 20.6937583 87.0186862 20.7270754"></polyline>
            <polyline id="Fill-35" fill="#1A1919" points="170.623792 23.4590818 182.111546 26.1244538 179.885008 27.8969263 190.042932 30.5261254 186.315218 32.3385784 199.900049 38.7564136 179.483299 32.9173449 182.479938 31.1772377 174.519043 27.6256295 176.984512 26.5661441 170.623792 23.4590818"></polyline>
            <polyline id="Fill-36" fill="#FFFFFE" points="181.082522 26.4985578 178.980686 27.6913118 188.440853 30.4909044 185.678385 32.0967911 195.269917 36.8782782 181.112983 32.5394332 183.314771 31.139161 175.685143 27.5551875 177.815537 26.5661441 173.388164 24.3814909 181.082522 26.4985578"></polyline>
            <path d="M69.995526,27.7655615 L61.3292591,37.0781811 L57.4454313,26.1425403 C55.9651979,21.9788484 54.4849644,17.8151564 53.0104425,13.645753 L29.0782572,13.645753 L24.8279407,28.5280483 L30.3214629,28.5280483 L29.6579756,30.8488258 C28.0568486,36.4546744 26.4471542,42.0757537 24.8317484,47.6892176 C23.9255219,50.841972 23.0250069,53.998534 22.1244919,57.1550961 L19.6475997,65.820411 L14.1559814,65.820411 C12.7157286,70.8627238 11.2783315,75.8898059 9.83617481,80.9254553 L38.3347136,80.9102246 C39.0477006,78.4190536 39.7625915,75.9278826 40.4784343,73.4357598 C41.206652,70.8988967 41.9348697,68.3601298 42.6621355,65.820411 L36.9372971,65.820411 L37.6103036,63.493922 C38.8687399,59.1427021 40.1119456,54.7905303 41.3541994,50.4421662 L42.3698965,46.8886541 L45.8158418,46.725876 L46.7601451,49.1361339 C47.976697,52.2431962 49.1951528,55.3540661 50.4107529,58.465888 L58.6277142,58.465888 C60.7381177,56.2488696 62.8561365,54.0328031 64.9741554,51.8176886 C66.7847046,49.9233706 68.5952537,48.0300045 70.4019952,46.1337826 L73.4709808,47.8891205 L68.3477549,65.820411 L62.850425,65.820411 L58.5372819,80.9083207 L87.0472437,80.8988015 L91.3613388,65.8127957 L86.1210269,65.8127957 L87.3318674,61.5710464 C88.7464184,56.6115506 90.1609694,51.6558624 91.5878954,46.6925589 C93.182359,41.0962295 94.7872938,35.4722944 96.3884209,29.8664458 L96.9186395,27.8160132 L69.995526,27.7655615" id="Fill-37" fill="#006FAB"></path>
            <path d="M95.0900039,47.6939772 C96.2998924,43.4465165 99.5097619,31.8083597 100.607324,27.8226766 L96.8567648,27.8160132 C95.8163178,31.5732359 92.8872643,42.1328688 91.5878954,46.6925589 C90.1609694,51.6558624 88.7464184,56.6115506 87.3318674,61.5710464 L86.1210269,65.8127957 L91.3613388,65.8127957 L87.0472437,80.8988015 L58.5372819,80.9083207 L62.850425,65.820411 L68.3477549,65.820411 L73.4709808,47.8891205 L70.4019952,46.1337826 C68.5952537,48.0300045 66.7847046,49.9233706 64.9741554,51.8176886 C62.8561365,54.0328031 60.7381177,56.2488696 58.6277142,58.465888 L50.4107529,58.465888 C49.1951528,55.3540661 47.976697,52.2431962 46.7601451,49.1361339 L45.8158418,46.725876 L42.3698965,46.8886541 L41.3541994,50.4421662 C40.1119456,54.7905303 38.8687399,59.1427021 37.6103036,63.493922 L36.9372971,65.820411 L42.6621355,65.820411 C41.9348697,68.3601298 41.206652,70.8988967 40.4784343,73.4357598 C39.7625915,75.9278826 39.0477006,78.4190536 38.3347136,80.9102246 L9.83617481,80.9254553 C11.2783315,75.8898059 12.7157286,70.8627238 14.1559814,65.820411 L19.6475997,65.820411 L22.1244919,57.1550961 C23.0250069,53.998534 23.9255219,50.841972 24.8317484,47.6892176 C26.4471542,42.0757537 28.0568486,36.4546744 29.6579756,30.8488258 L30.3214629,28.5280483 L24.8279407,28.5280483 L29.0782572,13.645753 L53.0104425,13.645753 C54.4849644,17.8151564 55.9651979,21.9788484 57.4454313,26.1425403 L61.3292591,37.0781811 L69.995526,27.7655615 L68.2573226,27.7627057 L68.2344766,27.7769845 C67.1645201,27.7807922 66.1811882,27.7865037 65.3311249,27.7969748 C65.2892405,27.7979267 62.8351943,30.6308365 62.8237713,30.6070385 C62.6628971,30.28529 61.6852767,27.75985 61.6805171,27.748427 C60.3402157,24.1739726 58.4858783,18.4291439 56.8790397,13.6552722 C56.5915603,12.8423337 56.302177,12.0312991 56.0146976,11.2183606 L55.5853823,10.0037125 L26.3300683,10.0037125 L20.0017135,32.1691369 L24.0883,32.1691369 C24.5376055,32.1653292 24.9926226,32.1586658 25.4333609,32.1586658 L25.4305052,32.1691369 L25.4933318,32.1691369 C24.7784409,34.670779 24.0578386,37.1752768 23.33914,39.6788227 L22.6708932,42.0814652 L22.6489991,42.0871767 C22.2092127,43.6197656 21.772282,45.1514027 21.3315437,46.6820877 C20.4243653,49.8386498 19.5238503,52.9961638 18.6223834,56.1546297 L16.9013146,62.1783705 L11.4087443,62.1783705 L11.0308326,63.4996335 C9.24312953,69.7604021 7.46113792,75.9926131 5.67057905,82.2457663 L5.00518796,84.5703515 L41.0809988,84.5503613 L41.4589104,83.2310021 C42.2965988,80.3000447 43.1371429,77.3709912 43.9786389,74.4409858 C44.9286537,71.1302129 45.8805723,67.8175362 46.8277313,64.5001 L47.4902666,62.1783705 L41.7806589,62.1783705 C42.6545202,59.1427021 43.5236219,56.1060818 44.3908197,53.0713653 C45.4179399,55.6967568 46.4460119,58.3231002 47.4712283,60.9484917 L47.9233896,62.1079285 L60.1898126,62.1079285 L60.7276466,61.541537 C63.014155,59.1369906 65.3101827,56.7362519 67.6062103,54.3336094 C67.7185367,54.2165234 67.8308631,54.0994374 67.9431895,53.9813995 L65.6005178,62.1783705 L60.1041399,62.1783705 L53.7101027,84.5513132 L89.7944808,84.5408421 L96.1894699,62.1717071 L90.9472542,62.1717071 C92.3237285,57.3464317 93.7002028,52.5268679 95.0900039,47.6939772" id="Fill-38" fill="#FFFFFE"></path>
            <path d="M95.0900039,47.6939772 C96.2998924,43.4465165 99.5097619,31.8083597 100.607324,27.8226766 L96.8567648,27.8160132 C95.8163178,31.5732359 92.8872643,42.1328688 91.5878954,46.6925589 C90.1609694,51.6558624 88.7464184,56.6115506 87.3318674,61.5710464 L86.1210269,65.8127957 L91.3613388,65.8127957 L87.0472437,80.8988015 L58.5372819,80.9083207 L62.850425,65.820411 L68.3477549,65.820411 L73.4709808,47.8891205 L70.4019952,46.1337826 C68.5952537,48.0300045 66.7847046,49.9233706 64.9741554,51.8176886 C62.8561365,54.0328031 60.7381177,56.2488696 58.6277142,58.465888 L50.4107529,58.465888 C49.1951528,55.3540661 47.976697,52.2431962 46.7601451,49.1361339 L45.8158418,46.725876 L42.3698965,46.8886541 L41.3541994,50.4421662 C40.1119456,54.7905303 38.8687399,59.1427021 37.6103036,63.493922 L36.9372971,65.820411 L42.6621355,65.820411 C41.9348697,68.3601298 41.206652,70.8988967 40.4784343,73.4357598 C39.7625915,75.9278826 39.0477006,78.4190536 38.3347136,80.9102246 L9.83617481,80.9254553 C11.2783315,75.8898059 12.7157286,70.8627238 14.1559814,65.820411 L19.6475997,65.820411 L22.1244919,57.1550961 C23.0250069,53.998534 23.9255219,50.841972 24.8317484,47.6892176 C26.4471542,42.0757537 28.0568486,36.4546744 29.6579756,30.8488258 L30.3214629,28.5280483 L24.8279407,28.5280483 L29.0782572,13.645753 L53.0104425,13.645753 C54.4849644,17.8151564 55.9651979,21.9788484 57.4454313,26.1425403 L61.3292591,37.0781811 L69.995526,27.7655615 L68.2573226,27.7627057 L68.2344766,27.7769845 C67.1645201,27.7807922 66.1811882,27.7865037 65.3311249,27.7969748 C65.2892405,27.7979267 62.8351943,30.6308365 62.8237713,30.6070385 C62.6628971,30.28529 61.6852767,27.75985 61.6805171,27.748427 C60.3402157,24.1739726 58.4858783,18.4291439 56.8790397,13.6552722 C56.5915603,12.8423337 56.302177,12.0312991 56.0146976,11.2183606 L55.5853823,10.0037125 L26.3300683,10.0037125 L20.0017135,32.1691369 L24.0883,32.1691369 C24.5376055,32.1653292 24.9926226,32.1586658 25.4333609,32.1586658 L25.4305052,32.1691369 L25.4933318,32.1691369 C24.7784409,34.670779 24.0578386,37.1752768 23.33914,39.6788227 L22.6708932,42.0814652 L22.6489991,42.0871767 C22.2092127,43.6197656 21.772282,45.1514027 21.3315437,46.6820877 C20.4243653,49.8386498 19.5238503,52.9961638 18.6223834,56.1546297 L16.9013146,62.1783705 L11.4087443,62.1783705 L11.0308326,63.4996335 C9.24312953,69.7604021 7.46113792,75.9926131 5.67057905,82.2457663 L5.00518796,84.5703515 L41.0809988,84.5503613 L41.4589104,83.2310021 C42.2965988,80.3000447 43.1371429,77.3709912 43.9786389,74.4409858 C44.9286537,71.1302129 45.8805723,67.8175362 46.8277313,64.5001 L47.4902666,62.1783705 L41.7806589,62.1783705 C42.6545202,59.1427021 43.5236219,56.1060818 44.3908197,53.0713653 C45.4179399,55.6967568 46.4460119,58.3231002 47.4712283,60.9484917 L47.9233896,62.1079285 L60.1898126,62.1079285 L60.7276466,61.541537 C63.014155,59.1369906 65.3101827,56.7362519 67.6062103,54.3336094 C67.7185367,54.2165234 67.8308631,54.0994374 67.9431895,53.9813995 L65.6005178,62.1783705 L60.1041399,62.1783705 L53.7101027,84.5513132 L89.7944808,84.5408421 L96.1894699,62.1717071 L90.9472542,62.1717071 C92.3237285,57.3464317 93.7002028,52.5268679 95.0900039,47.6939772" id="Fill-39" fill="#FFFFFE"></path>
            <path d="M109.98753,27.8407631 L102.464517,24.7679698 L64.9693958,24.7679698 C62.1802743,16.9032184 61.1007987,14.0217609 58.3164368,6.14082684 C48.725857,6.14082684 50.1337446,6.18842277 40.540309,6.18842277 L23.3924475,6.18842277 C23.0211992,7.48969548 22.5452399,9.1650722 22.006454,11.0641498 L25.4638223,12.6529019 C25.7398787,11.6857526 26.0016563,10.7671512 26.2424917,9.9227994 L42.3203968,9.94945312 C51.1532494,9.94945312 46.7801354,9.94945312 55.6082284,9.94945312 C57.4092584,15.0469772 59.9661117,23.17541 61.6805171,27.748427 C61.6852767,27.75985 62.6628971,30.28529 62.8237713,30.6071876 C62.8351943,30.6308365 65.2892405,27.7979267 65.3311249,27.7969748 C66.1811882,27.7865037 67.1645201,27.7807922 68.2344766,27.7769845 L68.2573226,27.7627057 L100.867198,27.8236285 C101.165148,27.8226766 101.470714,27.8217247 101.763905,27.8207728 L101.762001,27.8245804 L109.98753,27.8407631" id="Fill-40" fill="#1A1919"></path>
        </g>
    </g>
</svg>