<?xml version="1.0" encoding="UTF-8"?>
<svg width="200px" height="200px" viewBox="0 0 200 200" version="1.1" xmlns="http://www.w3.org/2000/svg" xmlns:xlink="http://www.w3.org/1999/xlink">
    <!-- Generator: Sketch 54.1 (76490) - https://sketchapp.com -->
    <title>navy</title>
    <desc>Created with Sketch.</desc>
    <g id="navy" stroke="none" stroke-width="1" fill="none" fill-rule="evenodd">
        <g id="navy_BGL" transform="translate(-0.000000, 0.000000)">
            <g id="navy" transform="translate(0.000000, -2.000000)">
                <g id="g10" transform="translate(99.940791, 102.133808) scale(-1, 1) rotate(-180.000000) translate(-99.940791, -102.133808) translate(0.000000, 0.298405)" fill-rule="nonzero">
                    <g id="g12">
                        <polyline id="path14" fill="#B1A46D" points="1.5423327 140.735106 57.8363514 140.735106 105.261809 61.3058599 105.261809 115.286676 92.5385412 115.286676 92.5385412 140.735106 148.446651 140.735106 148.446651 115.286676 136.879097 115.286676 136.879097 1.54214798 97.9362912 1.54214798 45.8834802 89.4526917 45.8834802 28.1462634 57.8363514 28.1462634 57.8363514 1.54214798 1.5423327 1.54214798 1.5423327 28.1462634 13.881018 28.1462634 13.881018 115.286676 1.5423327 115.286676 1.5423327 140.735106"></polyline>
                        <path d="M98.8158649,3.08448068 L135.336882,3.08448068 L135.336882,116.82889 L146.904437,116.82889 L146.904437,139.192418 L94.0802818,139.192418 L94.0802818,116.82889 L106.804023,116.82889 L106.804023,55.7139122 L56.9610406,139.192418 L3.08485013,139.192418 L3.08485013,116.82889 L15.423327,116.82889 L15.423327,26.6041438 L3.08485013,26.6041438 L3.08485013,3.08448068 L56.2941371,3.08448068 L56.2941371,26.6041438 L44.3411238,26.6041438 L44.3411238,95.0844263 L98.8158649,3.08448068 Z M138.421311,0 L97.0571912,0 L47.4259313,83.8204834 L47.4259313,29.6886197 L59.3785657,29.6886197 L59.3785657,0 L0,0 L0,29.6886197 L12.3384722,29.6886197 L12.3384722,113.743988 L0,113.743988 L0,142.27732 L58.7116622,142.27732 L103.719595,66.897334 L103.719595,113.743988 L90.9963269,113.743988 L90.9963269,142.27732 L149.988865,142.27732 L149.988865,113.743988 L138.421311,113.743988 L138.421311,0 L138.421311,0 Z" id="path16" fill="#10234F"></path>
                        <polyline id="path18" fill="#B1A46D" points="195.101002 183.147894 178.778918 183.147894 173.508581 198.507041 168.238717 183.147894 151.465716 183.147894 165.219179 172.99372 160.206509 156.736053 173.766722 166.503726 187.389457 156.864887 182.249374 172.99372 195.101002 183.147894"></polyline>
                        <path d="M156.151091,181.605206 L167.015271,173.584365 L163.034691,160.674004 L173.758669,168.398812 L184.522435,160.783418 L180.45565,173.54221 L190.660978,181.605206 L177.677675,181.605206 L173.508581,193.754406 L169.33996,181.605206 L156.151091,181.605206 Z M157.378326,152.798102 L163.423087,172.403074 L146.779866,184.690108 L167.137474,184.690108 L173.508581,203.259202 L179.880161,184.690108 L199.541025,184.690108 L184.043098,172.44523 L190.256952,152.946355 L173.7743,164.60864 L157.378326,152.798102 L157.378326,152.798102 Z" id="path20" fill="#10234F"></path>
                    </g>
                </g>
            </g>
        </g>
    </g>
</svg>