<?xml version="1.0" encoding="UTF-8"?>
<svg width="200px" height="200px" viewBox="0 0 200 200" version="1.1" xmlns="http://www.w3.org/2000/svg" xmlns:xlink="http://www.w3.org/1999/xlink">
    <!-- Generator: Sketch 54.1 (76490) - https://sketchapp.com -->
    <title>notre-dame</title>
    <desc>Created with Sketch.</desc>
    <g id="notre-dame" stroke="none" stroke-width="1" fill="none" fill-rule="evenodd">
        <g id="notre-dame_BGL">
            <g id="notre-dame" transform="translate(0.000000, 13.000000)">
                <g id="g10" transform="translate(99.956987, 86.826668) scale(-1, 1) rotate(-180.000000) translate(-99.956987, -86.826668) translate(0.000000, 0.116993)" fill-rule="nonzero">
                    <g id="g12">
                        <path d="M176.132813,64.3117403 L172.006533,60.1844286 L165.798878,60.1844286 L165.798878,114.649115 L171.397157,114.649115 L176.132813,109.913116 L176.132813,64.3117403 Z M135.758104,62.1467511 L104.76903,114.649115 L135.758104,114.649115 L135.758104,62.1467511 Z M74.0036111,60.1844286 L74.0036111,110.589589 L102.621245,60.1844286 L74.0036111,60.1844286 Z M43.9635258,60.1844286 L34.9312679,60.1844286 L34.9990529,114.649115 L43.9635258,114.649115 L43.9635258,60.1844286 Z M179.059608,140.629674 L165.798878,140.629674 L165.798878,147.936684 L179.600856,147.936684 L179.600856,173.105544 L122.768169,173.105544 L122.768169,147.936684 L135.758104,147.936684 L135.758104,140.629674 L89.4341483,140.629674 L70.2654606,173.105544 L30.2119562,173.105544 L30.2119562,147.987609 L43.9635258,147.987609 L43.9635258,140.629674 L0.172043006,140.629674 L0.172043006,114.108212 L9.91466642,114.108212 L9.91466642,59.4401706 L0.172043006,59.4401706 L0.172043006,32.647982 L43.9635258,32.647982 L43.9635258,25.3408682 L28.5884552,25.3408682 L28.5884552,0.172043006 L85.4210731,0.172043006 L85.4210731,25.3915176 L74.0036111,25.3915176 L74.0036111,32.647982 L119.142535,32.647982 L138.464685,0.442876548 L165.798878,0.442876548 L165.798878,32.647982 L178.788469,32.647982 L199.627006,53.4861062 L199.627006,120.061588 L179.059608,140.629674 L179.059608,140.629674 Z" id="path14" fill="#1E2E56"></path>
                        <path d="M105.070449,114.477072 L135.586061,62.7764285 L135.586061,114.477072 L105.070449,114.477072 Z M135.930147,61.5167296 L104.46761,114.821158 L135.930147,114.821158 L135.930147,61.5167296 Z M35.103655,60.3564716 L43.7914828,60.3564716 L43.7914828,114.477072 L35.1707518,114.477072 L35.103655,60.3564716 Z M44.1355688,60.0123856 L34.7592249,60.0123856 L34.8270099,114.821158 L44.1355688,114.821158 L44.1355688,60.0123856 Z M74.1756541,60.3564716 L102.326019,60.3564716 L74.1756541,109.93789 L74.1756541,60.3564716 Z M102.916815,60.0123856 L73.831568,60.0123856 L73.831568,111.241288 L102.916815,60.0123856 Z M165.970921,60.3564716 L171.935308,60.3564716 L175.96077,64.3829661 L175.96077,109.84189 L171.325931,114.477072 L165.970921,114.477072 L165.970921,60.3564716 Z M172.077759,60.0123856 L165.626835,60.0123856 L165.626835,114.821158 L171.468383,114.821158 L176.304856,109.984341 L176.304856,64.2405145 L172.077759,60.0123856 Z M28.7604982,0.344086013 L85.2490301,0.344086013 L85.2490301,25.2194746 L73.831568,25.2194746 L73.831568,32.820025 L119.239911,32.820025 L119.290148,32.7362745 L138.562061,0.614919555 L165.626835,0.614919555 L165.626835,32.820025 L178.717243,32.820025 L199.454963,53.557332 L199.454963,119.990363 L178.988383,140.457631 L165.626835,140.457631 L165.626835,148.108727 L179.428813,148.108727 L179.428813,172.933501 L122.940212,172.933501 L122.940212,148.108727 L135.930147,148.108727 L135.930147,140.457631 L89.3357397,140.457631 L89.2858472,140.542276 L70.1673961,172.933501 L30.3839992,172.933501 L30.3839992,148.159652 L44.1355688,148.159652 L44.1355688,140.457631 L0.344086013,140.457631 L0.344086013,114.280255 L10.0867094,114.280255 L10.0867094,59.2681276 L0.344086013,59.2681276 L0.344086013,32.820025 L44.1355688,32.820025 L44.1355688,25.1688252 L28.7604982,25.1688252 L28.7604982,0.344086013 Z M85.5931161,0 L28.4164122,0 L28.4164122,25.5129112 L43.7914828,25.5129112 L43.7914828,32.475939 L0,32.475939 L0,59.6122136 L9.74262341,59.6122136 L9.74262341,113.936169 L0,113.936169 L0,140.801717 L43.7914828,140.801717 L43.7914828,147.815566 L30.0399132,147.815566 L30.0399132,173.277587 L70.3638692,173.277587 L70.4137617,173.192942 L89.5325569,140.801717 L135.586061,140.801717 L135.586061,147.764641 L122.596126,147.764641 L122.596126,173.277587 L179.772899,173.277587 L179.772899,147.764641 L165.970921,147.764641 L165.970921,140.801717 L179.130834,140.801717 L199.799049,120.132814 L199.799049,53.4148804 L178.860039,32.475939 L165.970921,32.475939 L165.970921,0.270833198 L138.367308,0.270833198 L138.317072,0.35443612 L119.045158,32.475939 L74.1756541,32.475939 L74.1756541,25.5635607 L85.5931161,25.5635607 L85.5931161,0 L85.5931161,0 Z" id="path16" fill="#1E2E57"></path>
                    </g>
                </g>
            </g>
        </g>
    </g>
</svg>