<?xml version="1.0" encoding="UTF-8"?>
<svg width="200px" height="200px" viewBox="0 0 200 200" version="1.1" xmlns="http://www.w3.org/2000/svg" xmlns:xlink="http://www.w3.org/1999/xlink">
    <!-- Generator: Sketch 54.1 (76490) - https://sketchapp.com -->
    <title>nevada</title>
    <desc>Created with Sketch.</desc>
    <g id="nevada" stroke="none" stroke-width="1" fill="none" fill-rule="evenodd">
        <g id="nevada_BGL" fill="#182545">
            <g id="nevada" transform="translate(-1.000000, 36.000000)">
                <g id="g10" transform="translate(100.323361, 64.507928) scale(-1, 1) rotate(-180.000000) translate(-100.323361, -64.507928) translate(0.000000, 0.730934)" fill-rule="nonzero">
                    <g id="g12">
                        <polyline id="path14" points="78.6777361 11.9604221 77.5635735 11.9604221 77.5635735 12.3618302 80.2715877 12.3618302 80.2715877 11.9604221 79.1512624 11.9604221 79.1512624 8.70607562 78.6777361 8.70607562 78.6777361 11.9604221"></polyline>
                        <path d="M83.7453557,10.3116937 C83.7195583,10.82115 83.6871682,11.4397726 83.6871682,11.8904394 L83.675416,11.8904394 C83.5471454,11.4660859 83.3988102,11.0059027 83.2157917,10.5003589 L82.5702825,8.72734417 L82.2096917,8.72734417 L81.6152041,10.4684561 C81.4433645,10.9891057 81.3010487,11.4565696 81.1981456,11.8904394 L81.1873966,11.8904394 C81.1756445,11.4341831 81.1499904,10.825077 81.1174569,10.2736281 L81.0189967,8.70607562 L80.5682582,8.70607562 L80.821933,12.3618302 L81.4270262,12.3618302 L82.049031,10.5927424 C82.2025257,10.1420612 82.3206207,9.74178533 82.4163578,9.36276367 L82.4286833,9.36276367 C82.5271435,9.72945989 82.6559873,10.1325448 82.8187978,10.5927424 L83.4698964,12.3618302 L84.07069,12.3618302 L84.3001439,8.70607562 L83.8327804,8.70607562 L83.7453557,10.3116937" id="path16"></path>
                        <path d="M161.186678,39.7592946 C161.368693,39.0298004 161.555008,38.5499681 162.019362,37.6582368 C162.019362,37.6582368 162.369061,36.8688352 162.578306,36.8241197 C162.786119,36.7821272 163.515613,37.1784045 164.335398,38.1257436 C164.632069,38.4661265 164.885744,38.9261807 165.089257,39.3786391 C165.45472,40.1719102 160.970266,40.6018675 161.186678,39.7592946" id="path18"></path>
                        <path d="M154.741619,30.5119171 C154.741619,30.5119171 157.824412,31.8068051 159.120017,33.7969339 C159.120017,33.7969339 159.377991,34.1536551 159.548541,34.0544783 C159.724823,33.9565914 160.070222,33.0731725 160.232173,31.572765 C160.395557,30.0835364 160.351128,28.8155924 160.351128,28.8155924 C160.351128,28.8155924 160.385524,28.5915847 160.012895,28.7566883 C159.643131,28.9263781 154.741619,30.5119171 154.741619,30.5119171" id="path20"></path>
                        <path d="M169.470521,38.4576706 C169.374498,37.6890504 169.165252,36.6157337 168.722396,35.469181 C168.722396,35.469181 168.48162,34.9334543 168.834185,35.0314845 C169.191049,35.1222055 170.733162,35.8946954 172.217948,37.5759716 C172.217948,37.5759716 172.381332,37.6946398 172.13769,37.8502843 C171.886881,37.9930302 169.557946,39.1669568 169.470521,38.4576706" id="path22"></path>
                        <path d="M166.63137,39.7956976 C166.538213,39.0315203 166.328967,37.9593502 165.886111,36.8089279 C165.886111,36.8089279 165.645335,36.2726278 165.9979,36.3677917 C166.356198,36.4646754 167.896878,37.2315758 169.383097,38.9139986 C169.383097,38.9139986 169.54648,39.0342433 169.301405,39.1837251 C169.054896,39.3322037 166.721661,40.5067036 166.63137,39.7956976" id="path24"></path>
                        <path d="M171.312172,30.6646953 C171.452624,30.6591058 173.616742,32.6661463 175.292143,35.2245353 C175.918447,36.1662851 173.249846,38.3596404 172.775459,36.2529931 C172.3627,34.4239549 171.787991,32.3089952 171.079995,30.8074411 C171.079995,30.8074411 171.016934,30.6702847 171.108658,30.6171133 C171.201816,30.5622221 171.312172,30.6646953 171.312172,30.6646953" id="path26"></path>
                        <path d="M177.181088,35.4849461 C177.181088,35.4849461 176.984741,33.7186817 176.411465,32.2462214 C176.411465,32.2462214 176.35987,32.0894303 176.428663,32.0738085 C176.546185,32.0474378 177.737166,32.8844213 179.456995,35.1361075 L177.181088,35.4849461" id="path28"></path>
                        <path d="M160.543175,30.2139567 C160.543175,30.2139567 162.655699,31.1193034 164.15195,32.6784718 C164.15195,32.6784718 164.358329,32.9516379 164.48445,32.9348696 C164.589073,32.9236907 164.607705,32.7819481 164.626336,32.579295 C164.738125,31.1276159 164.720927,30.7402244 164.382694,29.2370938 L160.543175,30.2139567" id="path30"></path>
                        <path d="M164.382694,27.042592 C164.382694,27.042592 166.270206,28.3022234 167.578709,29.9172862 C167.578709,29.9172862 167.796554,30.144017 167.868214,30.066768 C167.915509,30.0220525 167.882546,29.9872259 167.868214,29.7829962 C167.779356,27.9998202 167.775056,26.6153578 167.112922,25.2230128 L164.382694,27.042592" id="path32"></path>
                        <path d="M168.478753,24.2640648 C168.478753,24.2640648 170.28744,25.9060716 171.770793,28.3217148 C171.770793,28.3217148 171.905513,28.5289542 171.985771,28.2781458 C172.064597,28.0306338 171.894047,25.6887999 171.422527,23.7534189 L168.478753,24.2640648" id="path34"></path>
                        <path d="M170.607042,23.0799625 C170.607042,23.0799625 172.417162,24.7258389 173.897648,27.1404789 C173.897648,27.1404789 174.032368,27.347575 174.10976,27.0984864 C174.191452,26.8505444 174.151323,25.6652955 173.676937,23.7349307 L170.607042,23.0799625" id="path36"></path>
                        <path d="M159.99713,50.7584613 C159.99713,50.7584613 158.472215,52.0365809 156.943,52.5164132 C156.943,52.5164132 157.828712,51.3294445 157.638097,50.3710698 C157.638097,50.3710698 159.347894,49.6936005 159.99713,50.7584613" id="path38"></path>
                        <path d="M178.065367,40.0262981 C178.065367,40.0262981 177.043502,40.7653946 177.623944,41.9846101 C178.202953,43.202249 180.508957,43.2286197 181.433366,42.8843673 C182.36064,42.5372485 185.055039,41.559239 183.931417,39.1669568 C182.809229,36.7698017 181.695639,36.5020817 181.695639,36.5020817 C181.695639,36.5020817 181.153893,36.3945924 180.944647,36.6465473 C180.731102,36.9040917 180.647977,37.1235133 180.844324,37.2439013 C181.042104,37.3586999 182.556987,38.0444817 182.632946,38.9486818 C182.711772,39.855605 182.170026,40.1158725 181.967946,40.1187389 C181.761566,40.1260481 181.229852,39.9888918 181.49356,39.3198783 C181.761566,38.6547344 181.133829,38.2029926 181.133829,38.2029926 C181.133829,38.2029926 180.686673,37.8317962 180.391436,38.145235 C180.093332,38.4576706 178.386402,39.821925 178.065367,40.0262981 M165.209645,40.3695473 C165.062026,40.1998575 163.48265,40.6270917 163.41099,40.6421402 C162.51238,40.8033741 161.592271,40.8353343 160.682195,40.7474797 C159.75922,40.6521725 158.854876,40.4423534 157.974897,40.1410966 C157.345727,39.9299876 156.494411,39.3181584 155.823678,39.4682135 C155.817945,39.9413098 156.43565,40.5150161 156.816879,40.8156996 C157.48188,41.3504231 158.232872,41.7859698 159.051224,42.0433709 C160.385524,42.461576 161.795784,42.3525102 163.099988,41.864222 C163.719126,41.6374912 164.994666,41.1264154 165.218244,40.4182758 C165.22111,40.3974945 165.22111,40.3845958 165.209645,40.3695473 M155.597234,48.2588331 C155.597234,48.2588331 155.485445,48.179291 155.419518,48.2588331 C155.353591,48.3399517 155.430983,48.2559667 155.405186,48.4732384 C154.960897,52.2072739 152.72082,56.1385165 152.72082,56.1385165 C152.72082,56.1385165 152.502975,56.4089596 152.700755,56.6227917 C152.897102,56.8400634 153.14791,56.6060234 153.14791,56.6060234 L169.327202,45.8794496 C157.817246,52.166428 155.597234,48.2588331 155.597234,48.2588331 M120.040341,57.8544759 C120.040341,57.8544759 118.973904,57.1338676 118.004207,58.3722878 C117.030067,59.6140044 112.569261,64.201935 111.283402,71.1802847 C111.283402,71.1802847 110.875802,73.0725266 111.684695,73.5664042 C112.57657,74.1071471 114.563976,73.1934879 114.563976,73.1934879 C114.563976,73.1934879 121.991487,69.9391414 127.7661,66.1881942 C127.7661,66.1881942 128.453602,65.7208307 128.148475,65.3338691 C128.006876,65.1547203 127.623354,65.0562601 127.623354,65.0562601 C125.185353,64.2366182 119.902038,64.5332887 119.902038,64.5332887 C119.902038,64.5332887 121.526704,61.955265 123.785699,60.7432155 C123.785699,60.7432155 121.364466,60.2130782 120.422717,60.2701192 C120.422717,60.2701192 122.677269,59.1549533 120.040341,57.8544759 M40.1903984,55.8697932 C71.2318796,62.4871221 101.825919,61.7497454 101.825919,61.7497454 C101.825919,61.7497454 76.4562902,58.5558795 57.8953219,53.5660822 C57.8953219,53.5660822 62.0885517,52.9781873 63.6011414,51.4236052 C63.6011414,51.4236052 38.4044993,45.6975777 13.8246882,34.9793164 C13.8246882,34.9793164 27.890611,34.2728966 40.0056601,32.2714456 L41.3637518,32.0233602 C71.1596467,43.5830478 98.6780581,45.6348039 98.6780581,45.6348039 C73.1481991,40.7334344 52.5790436,29.8136665 52.5790436,29.8136665 C57.2968214,28.6661106 58.5828235,28.3357601 63.1303382,26.881358 C63.1303382,26.881358 89.9814558,39.8796826 115.981545,42.0071112 C115.981545,42.0071112 112.530135,39.9592247 111.675236,36.4001818 C111.675236,36.4001818 121.837419,39.6277277 132.394877,38.9978403 C132.394877,38.9978403 121.837419,37.2652558 113.327849,32.6940935 C108.758406,30.2391809 101.984429,24.500828 101.984429,24.500828 C101.984429,24.500828 101.984429,30.0153165 104.19011,33.6430092 C104.19011,33.6430092 89.6953909,30.8970155 78.0724996,20.5399183 C78.0724996,20.5399183 92.6821607,12.977658 95.6693605,1.78925281 C95.6693605,1.78925281 95.9365072,0.543604999 95.9611581,0.272082688 L95.9835159,0.000559840185 C116.782125,33.0926639 169.064928,21.783928 169.064928,21.783928 C169.064928,21.783928 170.837785,21.5263836 173.932044,23.4623378 C173.932044,23.4623378 174.801991,24.0389105 174.780493,24.7583724 C174.753263,25.707288 170.12119,25.8529002 170.12119,25.8529002 C165.567943,27.2508346 167.366597,28.2238279 163.111453,30.2027778 C159.706192,31.79104 156.74092,31.7827275 153.913234,31.6427047 C153.913234,31.6427047 152.955863,31.6556034 152.662059,32.2015058 C151.807877,33.8082561 153.575001,35.5352511 153.575001,35.5352511 C155.683225,37.2847472 161.880342,41.5771539 170.985404,36.2770707 C177.441929,32.5122216 181.718571,35.0817895 182.601416,35.6315616 C183.253518,36.0447505 183.355274,36.1690081 183.355274,36.1690081 C183.763734,36.5273059 184.063271,36.9220066 184.434467,37.4808077 C187.144631,41.5340149 183.793831,43.0286896 183.793831,43.0286896 C181.909185,43.8825847 180.023106,44.4955605 180.023106,44.4955605 C176.848588,45.9493893 168.182083,49.2497412 164.302435,54.0671257 C158.884973,60.8036961 156.110316,62.4166091 156.110316,62.4166091 C150.910699,65.4111181 141.773391,70.4754414 137.317027,72.1740592 C136.896099,72.3626672 136.317663,72.6331103 135.893869,72.8083895 C120.613044,79.3047571 114.528719,84.9893654 113.71309,84.8689774 C112.892875,84.7508824 110.771036,84.7826993 111.174193,81.9656193 C111.351622,80.6863531 111.586808,78.1195083 111.928338,76.6309962 C111.928338,76.6309962 89.9304342,76.5776815 78.9682439,78.4049999 L82.1291464,75.3964456 C82.1291464,75.3964456 57.9922056,72.2730927 47.8283025,72.9813757 L51.6407336,69.7253093 C51.6407336,69.7253093 38.8007765,66.2744723 16.7151618,63.5054042 C16.7151618,63.5054042 31.6829774,61.7761161 40.1903984,55.8697932" id="path40"></path>
                        <path d="M0.000559840185,64.9694087 C0.00895744296,66.693824 0.0173550816,68.4192425 0.0246329681,70.1440877 C0.742348444,70.7296895 1.23836721,71.3051156 1.50933631,71.8812583 C1.77917748,72.4572577 1.91521596,73.3479859 1.91521596,74.5573123 L1.91521596,89.3673336 C1.91521596,90.2663742 1.77580948,90.8032475 1.49645192,90.9746571 C1.21821224,91.1447769 0.726113258,91.0552024 0.0246329681,90.6969047 C0.0173550816,92.3433544 0.00895744296,93.9899474 0.000559840185,95.6363971 C3.24594802,97.9177503 6.54956764,100.074846 9.90581403,102.108687 C13.1360973,98.3163207 16.4139051,94.409729 19.7354683,90.3884821 L19.7354683,99.5765254 C19.7354683,100.664891 19.5753809,101.343363 19.2546328,101.612086 C18.933168,101.880236 18.3839693,101.864615 17.608613,101.554472 L17.608613,106.51016 C21.7733224,108.751813 26.0079715,110.811452 30.3002348,112.687929 L30.3002348,107.731238 C29.4655445,107.17688 28.8938446,106.632267 28.5842754,106.103133 C28.2735596,105.574143 28.1190616,104.650881 28.1190616,103.334209 L28.1190616,81.0486638 C25.2975388,79.768251 22.5010967,78.4084395 19.7354683,76.9690859 C16.4139051,81.0436476 13.1360973,85.0038406 9.90581403,88.8499516 L9.90581403,79.7027542 C9.90581403,78.5600711 10.0485742,77.8681266 10.3363302,77.6246274 C10.6235274,77.3811283 11.1475449,77.4404624 11.9111634,77.7954638 C11.9195619,76.0806509 11.9279604,74.3669846 11.9363589,72.652745 C7.88031403,70.2694919 3.89816452,67.709383 0.000559840185,64.9694087" id="path42"></path>
                        <path d="M35.4473965,84.1731632 L35.4473965,89.3315038 C36.2564328,89.7876884 36.8100744,90.254622 37.1078915,90.7400438 C37.404562,91.224319 37.5528972,92.0903962 37.5528972,93.339852 L37.5528972,107.525145 C37.5528972,108.774744 37.404562,109.526596 37.1078915,109.781274 C36.8100744,110.034949 36.2564328,110.072355 35.4473965,109.883174 L35.4473965,114.840582 C45.0749995,118.684399 54.969606,121.63362 65.0058118,123.685519 L65.0058118,114.316034 C61.9167121,113.683996 58.8403679,112.967974 55.7813653,112.166247 L55.7813653,112.488715 C55.7813653,113.669951 55.4101689,114.400592 54.6706424,114.671465 C53.9288228,114.941908 52.6154467,114.82152 50.7366768,114.268452 C49.5391025,113.915743 48.3449678,113.550136 47.1542729,113.171201 L47.1542729,106.763834 C50.9655574,107.976314 54.8095186,109.054073 58.6785607,109.9974 L58.6785607,104.839059 C54.8095186,103.895733 50.9655574,102.817973 47.1542729,101.604777 L47.1542729,94.2300069 C48.5649626,94.6801721 49.9802386,95.1095561 51.4001008,95.5221718 C53.0409611,95.9979911 54.1836441,96.5377308 54.8228473,97.1726344 C55.4616204,97.8073946 55.7813653,98.7591767 55.7813653,100.035576 L55.7813653,101.14415 C58.8403679,101.946307 61.9167121,102.661755 65.0058118,103.293936 L65.0058118,93.0179573 C54.969606,90.9662013 45.0749995,88.0181277 35.4473965,84.1731632" id="path44"></path>
                        <path d="M77.7109055,95.127471 C75.490033,102.506111 73.2724567,109.842328 71.0604699,117.134833 C70.7967628,118.003634 70.4777345,118.583646 70.1015219,118.874727 C69.724736,119.165378 69.1604888,119.338364 68.4096401,119.388669 L68.4096401,124.346077 C73.3491324,125.253 78.3200117,125.944514 83.3059394,126.419761 L83.3059394,121.4635 C82.5092286,121.266436 81.9409684,121.018351 81.6005856,120.727843 C81.2590562,120.436762 81.0889364,120.05496 81.0889364,119.58473 C81.0889364,119.410597 81.103555,119.24707 81.1315022,119.095869 C81.160596,118.944237 81.2025885,118.784723 81.2590562,118.61618 C82.8311233,113.035621 84.4054834,107.433278 85.9808468,101.809723 C87.4234968,107.60741 88.8672933,113.386609 90.3122363,119.147463 C90.3497859,119.296945 90.3783064,119.459756 90.3973678,119.635608 C90.415856,119.811461 90.4258883,120.033032 90.4258883,120.302329 C90.4258883,120.812975 90.2540487,121.186321 89.9119461,121.422081 C89.57056,121.658271 88.9815186,121.805029 88.1451084,121.857054 L88.1451084,126.813315 C92.5812641,127.111705 97.0241558,127.239976 101.467621,127.197983 L101.467621,122.241149 C100.820535,122.058561 100.307166,121.758021 99.9269406,121.342539 C99.5451385,120.926053 99.2411588,120.334289 99.0127081,119.567245 C96.8910124,111.880756 94.7703198,104.154854 92.6496273,96.3905421 C87.6581101,96.1844493 82.6739022,95.7635211 77.7109055,95.127471" id="path46"></path>
                        <path d="M113.091659,109.188937 C115.054987,109.038452 117.018888,108.854717 118.978347,108.637588 C117.994175,112.655539 117.007709,116.665033 116.022391,120.666216 C115.045528,116.849342 114.068522,113.023295 113.091659,109.188937 M100.542783,96.536011 L100.542783,101.694352 C101.228135,101.839964 101.755979,102.111983 102.127175,102.517433 C102.497798,102.922166 102.844917,103.711568 103.168532,104.888361 C105.214698,112.277033 107.258142,119.630019 109.301585,126.946602 C114.271175,126.675585 119.231448,126.19131 124.169221,125.493203 C126.405715,117.580413 128.63834,109.624483 130.864945,101.623265 C131.147571,100.645256 131.466742,99.939266 131.822174,99.5031461 C132.179325,99.0664528 132.686101,98.7115947 133.342216,98.4349889 L133.342216,93.2772216 C128.487282,94.2305801 123.599814,94.9752661 118.694002,95.5115662 L118.694002,100.669907 C119.357426,100.637373 119.882547,100.724225 120.269939,100.933614 C120.657903,101.143003 120.852101,101.454865 120.852101,101.871351 C120.852101,101.978267 120.842642,102.111553 120.824153,102.267198 C120.804519,102.423846 120.776571,102.591816 120.739022,102.772111 C120.615911,103.216114 120.492656,103.660546 120.369545,104.105122 C117.588295,104.435902 114.800309,104.69961 112.009456,104.895527 C111.885199,104.514871 111.760368,104.134216 111.637113,103.752414 C111.599707,103.540731 111.571616,103.363876 111.553128,103.224426 C111.533637,103.084547 111.524035,102.954556 111.524035,102.833738 C111.524035,102.323092 111.709919,101.935128 112.079396,101.666978 C112.450592,101.398828 113.044077,101.221972 113.859706,101.128958 L113.859706,95.9706172 C109.42742,96.3294882 104.985101,96.5186694 100.542783,96.536011" id="path48"></path>
                        <path d="M148.766646,95.6508723 C149.715418,95.3721167 150.662757,95.0854785 151.605797,94.7899545 C153.900336,94.0722126 155.420951,93.825847 156.186275,94.1153516 C156.951599,94.402993 157.334261,95.422565 157.334261,97.18324 L157.334261,106.431191 C157.334261,108.472914 156.964498,109.939785 156.229271,110.825354 C155.489744,111.708773 154.119614,112.494305 152.103114,113.132505 C151.919666,113.189546 151.736217,113.247303 151.552769,113.304344 C150.624061,113.580377 149.696787,113.848527 148.766646,114.107791 L148.766646,95.6508723 Z M150.863404,88.8751758 C146.215566,90.3039238 141.523156,91.5321684 136.795203,92.5617727 L136.795203,97.7201133 C137.636199,97.6708115 138.210049,97.7923461 138.516751,98.091883 C138.824744,98.3897001 138.978669,99.1644831 138.978669,100.413509 L138.978669,114.598659 C138.978669,115.848258 138.824744,116.693124 138.516751,117.13254 C138.210049,117.5721 137.636199,117.954905 136.795203,118.272357 L136.795203,123.229764 C141.523156,122.19973 146.215566,120.971342 150.863404,119.542737 C157.070554,117.625845 161.242572,115.167492 163.492682,112.629741 C165.739925,110.081385 166.853515,106.576803 166.853515,102.185936 L166.853515,94.8514384 C166.853515,90.2288246 165.792954,87.569109 163.654633,86.8055049 C161.513446,86.0301486 157.291265,86.8894899 150.863404,88.8751758 L150.863404,88.8751758 Z" id="path50"></path>
                        <path d="M181.618247,89.2228679 C183.405436,88.2672162 185.179726,87.2790311 186.939685,86.2568794 C186.053973,90.6795631 185.168261,95.0933611 184.276816,99.4987032 C183.393971,96.0825494 182.508259,92.6569366 181.618247,89.2228679 M170.059563,81.7047785 L170.059563,86.8625459 C170.697333,86.7276826 171.19035,86.7841503 171.535749,87.0372518 C171.878282,87.2907833 172.202183,87.9391588 172.503153,88.9820918 C174.400698,95.5350705 176.286777,102.052649 178.158524,108.533395 C182.714638,106.227391 187.190493,103.709848 191.577491,100.976753 C193.563893,92.1429943 195.531664,83.2645202 197.479371,74.3417604 C197.725879,73.2483791 198.005352,72.4091025 198.316354,71.8252206 C198.62879,71.2401921 199.068779,70.6765181 199.642056,70.1267461 L199.642056,64.9694087 C195.417009,67.9376903 191.094505,70.697156 186.68601,73.2472326 L186.68601,78.4049999 C187.280784,78.1010201 187.752304,77.9717463 188.099136,78.0221946 C188.445968,78.0719263 188.619385,78.30267 188.619385,78.7203019 C188.619385,78.8277912 188.610785,78.963801 188.59502,79.127758 C188.577822,79.2924317 188.552025,79.4721538 188.519061,79.6674977 C188.408706,80.1629518 188.29835,80.6572593 188.187994,81.1521401 C185.697108,82.6267502 183.177559,84.034287 180.633645,85.3734605 C180.521856,85.04311 180.408634,84.7127596 180.296845,84.3824091 C180.259582,84.1853453 180.235218,84.020815 180.21802,83.8886748 C180.199388,83.7576812 180.190789,83.6299838 180.190789,83.5097391 C180.190789,82.9990932 180.359906,82.535026 180.699572,82.1151011 C181.034938,81.6957494 181.576685,81.2753946 182.317644,80.8487336 L182.317644,75.690393 C178.293244,77.8654035 174.205784,79.8701509 170.059563,81.7047785" id="path52"></path>
                    </g>
                </g>
            </g>
        </g>
    </g>
</svg>