<?xml version="1.0" encoding="UTF-8"?>
<svg width="200px" height="200px" viewBox="0 0 200 200" version="1.1" xmlns="http://www.w3.org/2000/svg" xmlns:xlink="http://www.w3.org/1999/xlink">
    <!-- Generator: Sketch 54.1 (76490) - https://sketchapp.com -->
    <title>niagara</title>
    <desc>Created with Sketch.</desc>
    <defs>
        <path d="M16.3440406,2.03078571 C-11.0912165,28.4186571 4.51394759,48.1313571 6.23607162,50.1370714 L6.23607162,50.1370714 C2.95742719,26.4260571 21.9503573,20.1616714 21.9503573,20.1616714 L21.9503573,20.1616714 C19.5542919,16.1255571 31.8354722,12.3039 31.8354722,12.3039 L31.8354722,12.3039 C35.8829632,11.0256429 37.588181,9.37054286 37.588181,9.37054286 L37.588181,9.37054286 C47.2104818,-0.0590142857 24.4943518,0.322457143 24.4943518,0.322457143 L24.4943518,0.322457143 C23.9956198,0.284657143 23.5210943,0.267685714 23.0700069,0.267685714 L23.0700069,0.267685714 C18.4926612,0.267685714 16.3440406,2.03078571 16.3440406,2.03078571 M6.30600169,50.6253857 L6.38476908,50.3056286 C6.38476908,50.3056286 6.33174518,50.2489286 6.23607162,50.1370714 L6.23607162,50.1370714 C6.25835703,50.2990714 6.28179513,50.4622286 6.30600169,50.6253857" id="path-1"></path>
        <linearGradient x1="21.6075176%" y1="29.052071%" x2="35.5971378%" y2="39.3293933%" id="linearGradient-3">
            <stop stop-color="#4F2683" offset="0%"></stop>
            <stop stop-color="#FEFEFE" offset="100%"></stop>
        </linearGradient>
        <path d="M29.8382387,7.72431429 C29.8382387,7.72431429 26.3932222,9.97727143 27.8563744,7.24371429 L27.8563744,7.24371429 C27.8563744,7.24371429 23.2675017,10.4355 24.133943,10.8736714 L24.133943,10.8736714 C24.133943,10.8736714 22.3384308,12.0281143 20.4533928,12.6811286 L20.4533928,12.6811286 C20.4533928,12.6811286 18.3466533,12.7497857 17.1198033,13.8205286 L17.1198033,13.8205286 C17.1198033,13.8205286 16.1354031,14.5645714 15.3592561,14.6270571 L15.3592561,14.6270571 C15.3592561,14.6270571 14.4305694,14.8145143 13.5429955,15.9897857 L13.5429955,15.9897857 C13.5429955,15.9897857 12.6216092,16.1078143 10.0138323,21.8877429 L10.0138323,21.8877429 C10.0138323,21.8877429 9.63882272,23.5366714 6.17267348,26.7003 L6.17267348,26.7003 C6.17267348,26.7003 1.457773,33.9544286 10.204411,31.8843 L10.204411,31.8843 C10.204411,31.8843 11.4032122,31.7948143 12.4421732,31.8993429 L12.4421732,31.8993429 C12.4421732,31.8993429 13.3089987,31.6351286 12.664643,31.0785429 L12.664643,31.0785429 C12.664643,31.0785429 13.3366633,31.3570286 13.7036041,31.8854571 L13.7036041,31.8854571 C13.7036041,31.8854571 17.5708906,31.0106571 21.742104,32.6958429 L21.742104,32.6958429 C21.742104,32.6958429 22.4698379,32.4177429 21.8531469,31.5826714 L21.8531469,31.5826714 C21.8531469,31.5826714 22.7472527,31.7427429 23.1207254,32.9049 L23.1207254,32.9049 C23.1207254,32.9049 24.5208638,33.6080571 24.3475755,32.5365429 L24.3475755,32.5365429 C24.3475755,32.5365429 25.1863521,32.5508143 27.1605318,34.5063857 L27.1605318,34.5063857 L27.2089449,34.0196143 C27.2089449,34.0196143 28.2901714,34.4095714 28.6571121,35.6407714 L28.6571121,35.6407714 C28.6571121,35.6407714 30.3961423,36.4480714 31.1023592,37.7841857 L31.1023592,37.7841857 L31.2410666,37.0956857 C31.2410666,37.0956857 34.0609391,38.9953286 32.7849074,41.9591571 L32.7849074,41.9591571 C32.7849074,41.9591571 33.5606701,42.5986714 33.5257051,43.6497429 L33.5257051,43.6497429 C33.5257051,43.6497429 32.7706908,42.8004 32.8602167,44.0042143 L32.8602167,44.0042143 C32.8602167,44.0042143 33.3243679,44.9642571 33.0815339,45.2909571 L33.0815339,45.2909571 C33.0815339,45.2909571 32.6869285,44.3378571 32.6242988,44.9638714 L32.6242988,44.9638714 C32.6242988,44.9638714 32.817567,46.5294857 32.2562053,47.2461429 L32.2562053,47.2461429 L32.8037347,47.3711143 C32.8037347,47.3711143 54.7137478,32.6453143 60.7477138,38.8040143 L60.7477138,38.8040143 C60.7477138,38.8040143 63.6294475,42.1855714 58.8327058,45.3561429 L58.8327058,45.3561429 C58.8327058,45.3561429 50.182894,49.9650429 55.269346,49.4937 L55.269346,49.4937 C55.269346,49.4937 57.182433,48.5625857 57.722662,48.7573714 L57.722662,48.7573714 C57.722662,48.7573714 55.5325444,50.3634857 53.5706601,52.4849143 L53.5706601,52.4849143 C53.5706601,52.4849143 47.8167986,58.2289714 48.4888189,59.2098429 L48.4888189,59.2098429 C48.4888189,59.2098429 13.6202259,65.1587143 0.138707446,80.0546143 L0.138707446,80.0546143 C0.138707446,80.0546143 10.6197649,71.8362 18.04849,70.3361571 L18.04849,70.3361571 L17.8959502,71.1639 C17.8959502,71.1639 19.5389226,69.4324286 21.2230078,68.6887714 L21.2230078,68.6887714 C21.2230078,68.6887714 32.7422577,63.3852 49.4924306,61.7702143 L49.4924306,61.7702143 C49.4924306,61.7702143 48.8419273,59.8782857 52.0371936,57.3190714 L52.0371936,57.3190714 C52.0371936,57.3190714 81.4619995,35.3399143 66.0235918,32.9411571 L66.0235918,32.9411571 C66.0235918,32.9411571 63.5495274,32.4813857 59.2038731,34.6429286 L59.2038731,34.6429286 C59.2038731,34.6429286 64.943518,29.7408857 61.6402828,24.2787857 L61.6402828,24.2787857 C61.6402828,24.2787857 64.7725352,23.7515143 64.0878352,20.8011857 L64.0878352,20.8011857 C64.0878352,20.8011857 68.3639437,19.3350857 68.5453009,15.4185429 L68.5453009,15.4185429 C68.5453009,15.4185429 66.7570891,16.5031714 65.1218013,16.0572857 L65.1218013,16.0572857 C65.1218013,16.0572857 60.1256436,14.9213571 57.977023,16.8129 L57.977023,16.8129 C57.977023,16.8129 57.2942442,16.1826429 58.4676862,14.7080571 L58.4676862,14.7080571 C57.8778913,15.2530714 55.9002536,16.5078 49.5569815,17.7212571 L49.5569815,17.7212571 C49.5569815,17.7212571 44.8236379,18.8606571 46.7494044,20.6002286 L46.7494044,20.6002286 L46.6448936,21.6439714 C46.6448936,21.6439714 45.6743257,22.9511571 42.3196035,24.2996143 L42.3196035,24.2996143 C42.3196035,24.2996143 36.1373242,26.6277857 33.7508645,34.3976143 L33.7508645,34.3976143 C33.7508645,34.3976143 33.7178206,29.8269 35.6455083,26.6482286 L35.6455083,26.6482286 C35.6455083,26.6482286 36.4220395,25.1809714 36.6660263,22.0435714 L36.6660263,22.0435714 C36.6660263,22.0435714 36.4493199,26.3076429 38.6478906,21.1190143 L38.6478906,21.1190143 C38.6478906,21.1190143 38.4742181,22.8582 39.6457389,21.6412714 L39.6457389,21.6412714 C39.6457389,21.6412714 42.0233613,19.5618857 42.5293937,19.4018143 L42.5293937,19.4018143 C42.5293937,19.4018143 43.7627757,18.9644143 44.0198263,17.7957 L44.0198263,17.7957 C44.0198263,17.7957 44.8805041,14.0882143 47.9159302,13.1293286 L47.9159302,13.1293286 C47.9159302,13.1293286 49.8774303,12.4134429 51.3809268,12.7756286 L51.3809268,12.7756286 C51.3809268,12.7756286 53.3489587,13.3958571 55.5117959,11.3650714 L55.5117959,11.3650714 C55.5117959,11.3650714 60.2328441,6.14944286 70.5033428,4.93598571 L70.5033428,4.93598571 C70.5033428,4.93598571 81.3486513,3.56901429 86.0750788,3.90497143 L86.0750788,3.90497143 C86.0750788,3.90497143 91.1749789,4.69992857 102.430262,2.03965714 L102.430262,2.03965714 L83.5126412,0.133457143 C83.5126412,0.133457143 82.7049873,0.119957143 81.2814109,0.119957143 L81.2814109,0.119957143 C72.6515792,0.119957143 41.3632521,0.622542857 29.8382387,7.72431429 M58.4676862,14.7080571 C58.6609544,14.5294714 58.705141,14.4272571 58.705141,14.4272571 L58.705141,14.4272571 C58.618689,14.5240714 58.5399216,14.6174143 58.4676862,14.7080571" id="path-4"></path>
        <linearGradient x1="10.8783324%" y1="33.0016199%" x2="26.0006659%" y2="39.8557481%" id="linearGradient-6">
            <stop stop-color="#4F2683" offset="0%"></stop>
            <stop stop-color="#FEFEFE" offset="100%"></stop>
        </linearGradient>
        <path d="M41.2402982,1.2312 C0.156382079,11.7068143 56.6080074,17.3054571 56.6080074,17.3054571 L56.6080074,17.3054571 C-25.4583878,27.4462714 36.289864,41.1526286 36.289864,41.1526286 L36.289864,41.1526286 C-39.3164528,45.4795714 27.0252824,60.1270714 27.0252824,60.1270714 L27.0252824,60.1270714 C-2.6800123,44.0181 46.8869592,41.9337 46.8869592,41.9337 L46.8869592,41.9337 C9.79020979,25.0803 66.0527934,18.2574 66.0527934,18.2574 L66.0527934,18.2574 C39.7552448,3.32447143 80.8226389,1.21654286 80.8226389,1.21654286 L80.8226389,1.21654286 C75.9421348,0.4482 69.9415969,0.1917 64.1001306,0.1917 L64.1001306,0.1917 C52.345347,0.1917 41.2402982,1.2312 41.2402982,1.2312" id="path-7"></path>
        <linearGradient x1="25.6882329%" y1="37.3888013%" x2="39.742482%" y2="42.4679522%" id="linearGradient-9">
            <stop stop-color="#4F2683" offset="0%"></stop>
            <stop stop-color="#FEFEFE" offset="100%"></stop>
        </linearGradient>
    </defs>
    <g id="niagara" stroke="none" stroke-width="1" fill="none" fill-rule="evenodd">
        <g id="niagara_BGL">
            <g id="Group-68" transform="translate(0.000000, 51.000000)">
                <g id="Group-25" fill="#231F20">
                    <path d="M19.5364251,97.6142857 C19.5364251,97.6142857 5.88546069,95.5364429 2.72900177,85.1005571 C2.72900177,85.1005571 -8.46096211,61.2074857 19.2524783,38.8453143 C19.2524783,38.8453143 14.4999232,35.9771429 20.7667333,29.3015857 C20.7667333,29.3015857 25.6191885,25.5744286 26.4936986,21.0253143 C26.4936986,21.0253143 26.6992623,17.9191571 29.7696534,16.9637429 C29.7696534,16.9637429 28.4417506,18.6921286 29.8591793,18.1671714 C29.8591793,18.1671714 37.2060632,15.0428857 41.1432798,11.7157143 C41.1432798,11.7157143 43.5908322,8.94088571 46.2796819,8.64967143 C46.2796819,8.64967143 43.8532621,10.8644429 46.1025513,9.7208 C46.1025513,9.7208 48.6945747,8.29597143 53.6012065,7.52531429 C53.6012065,7.52531429 65.7160148,3.96787143 76.0345424,3.67241429 C76.0345424,3.67241429 76.5194421,3.7214 77.122685,3.29055714 C77.122685,3.29055714 80.3594482,1.71915714 81.5582494,1.62928571 C81.5582494,1.62928571 79.0695843,3.4163 82.4588873,2.4227 C82.4588873,2.4227 85.5776915,1.33151429 86.3884193,1.62427143 C86.3884193,1.62427143 84.2394144,2.81304286 86.7065627,2.64024286 C86.7065627,2.64024286 91.9113579,2.39145714 94.8837701,2.76097143 C94.8837701,2.76097143 95.4174671,3.02595714 97.0250903,2.3444 C97.0250903,2.3444 101.599746,0.6974 103.082494,1.26825714 C103.082494,1.26825714 99.7139399,2.75595714 103.07481,2.74322857 L199.899139,11.4206429 C199.899139,11.4206429 99.0895643,13.9844857 167.716706,30.4544857 C167.716706,30.4544857 74.2759164,37.3626286 149.430762,54.3498714 C149.430762,54.3498714 48.4478983,53.0604286 147.802006,82.3697 C147.802006,82.3697 90.2595481,66.5164571 69.2470991,69.4583 C69.2470991,69.4583 68.2285023,69.8474857 69.6628372,70.2031143 C69.6628372,70.2031143 68.2834473,70.6964429 67.1196112,69.7360143 C67.1196112,69.7360143 66.898294,69.1512714 60.023246,70.7072429 C60.023246,70.7072429 58.5331976,70.9085857 60.7436794,71.2013429 C60.7436794,71.2013429 59.1844694,71.3957429 58.4290709,71.2491714 C58.4290709,71.2491714 57.2160532,71.4782857 58.8517252,71.9237857 C58.8517252,71.9237857 55.2553216,70.7890143 54.3681319,71.2619 C54.3681319,71.2619 52.9610774,72.0333286 54.1183816,72.3608 C54.1183816,72.3608 50.9722969,72.3249286 50.7087144,72.1575286 C50.7087144,72.1575286 39.8557212,74.9990857 40.4793284,75.7647286 C40.4793284,75.7647286 38.0678936,75.3809429 39.2859064,79.2982571 C39.2859064,79.2982571 35.8708599,75.6517143 33.8451933,81.9118571 C33.8451933,81.9118571 32.9303389,81.9600714 32.993737,79.2261286 C32.993737,79.2261286 7.2817567,85.7697714 19.5364251,97.6142857" id="Fill-23"></path>
                </g>
                <g id="Group-28" transform="translate(5.256282, 40.177957)">
                    <mask id="mask-2" fill="white">
                        <use xlink:href="#path-1"></use>
                    </mask>
                    <g id="Clip-27"></g>
                    <path d="M16.3440406,2.03078571 C-11.0912165,28.4186571 4.51394759,48.1313571 6.23607162,50.1370714 L6.23607162,50.1370714 C2.95742719,26.4260571 21.9503573,20.1616714 21.9503573,20.1616714 L21.9503573,20.1616714 C19.5542919,16.1255571 31.8354722,12.3039 31.8354722,12.3039 L31.8354722,12.3039 C35.8829632,11.0256429 37.588181,9.37054286 37.588181,9.37054286 L37.588181,9.37054286 C47.2104818,-0.0590142857 24.4943518,0.322457143 24.4943518,0.322457143 L24.4943518,0.322457143 C23.9956198,0.284657143 23.5210943,0.267685714 23.0700069,0.267685714 L23.0700069,0.267685714 C18.4926612,0.267685714 16.3440406,2.03078571 16.3440406,2.03078571 M6.30600169,50.6253857 L6.38476908,50.3056286 C6.38476908,50.3056286 6.33174518,50.2489286 6.23607162,50.1370714 L6.23607162,50.1370714 C6.25835703,50.2990714 6.28179513,50.4622286 6.30600169,50.6253857" id="Fill-26" fill="url(#linearGradient-3)" mask="url(#mask-2)"></path>
                </g>
                <g id="Group-35" transform="translate(13.709368, 45.577957)" fill="#FEFEFE">
                    <path d="M23.2846384,9.28314 C23.2846384,9.28314 14.7877507,11.65914 16.3112272,14.6233543 C16.3112272,14.6233543 16.2824099,17.7121543 23.2846384,9.28314" id="Fill-29"></path>
                    <path d="M0.112771844,43.6264071 C0.112771844,43.6264071 -1.20091447,35.7647786 13.5620149,28.1179929 C13.5620149,28.1179929 9.75197879,24.2207357 21.7292323,17.8394786 C21.7292323,17.8394786 53.4459771,1.64179286 57.0081841,1.01693571 C57.0081841,1.01693571 64.6732114,-1.44276429 59.931799,2.57637857 C59.931799,2.57637857 60.6380158,3.91249286 57.2152847,3.14607857 C57.2152847,3.14607857 28.008722,15.2397643 19.3715899,21.81735 C19.3715899,21.81735 13.0221701,26.51805 16.4306847,28.8288643 C16.4306847,28.8288643 2.43006993,35.8500214 0.112771844,43.6264071" id="Fill-31"></path>
                    <path d="M18.6070852,28.0641086 C18.6070852,28.0641086 38.7903635,18.0123943 51.2790287,14.9139514 C51.2790287,14.9139514 51.7089833,13.41198 53.0818412,12.2853086 C53.0818412,12.2853086 52.6803197,10.6988657 41.8538385,16.7750229 C41.8538385,16.7750229 47.20541,12.2556086 49.2706524,11.1983657 C49.2706524,11.1983657 20.6880811,22.6529229 18.4829786,26.5062086 C18.4829786,26.5062086 17.5120264,27.8133943 17.8586029,28.55088 C18.2047952,29.2883657 18.6070852,28.0641086 18.6070852,28.0641086" id="Fill-33"></path>
                </g>
                <g id="Group-38" transform="translate(17.551679, 5.463671)">
                    <mask id="mask-5" fill="white">
                        <use xlink:href="#path-4"></use>
                    </mask>
                    <g id="Clip-37"></g>
                    <path d="M29.8382387,7.72431429 C29.8382387,7.72431429 26.3932222,9.97727143 27.8563744,7.24371429 L27.8563744,7.24371429 C27.8563744,7.24371429 23.2675017,10.4355 24.133943,10.8736714 L24.133943,10.8736714 C24.133943,10.8736714 22.3384308,12.0281143 20.4533928,12.6811286 L20.4533928,12.6811286 C20.4533928,12.6811286 18.3466533,12.7497857 17.1198033,13.8205286 L17.1198033,13.8205286 C17.1198033,13.8205286 16.1354031,14.5645714 15.3592561,14.6270571 L15.3592561,14.6270571 C15.3592561,14.6270571 14.4305694,14.8145143 13.5429955,15.9897857 L13.5429955,15.9897857 C13.5429955,15.9897857 12.6216092,16.1078143 10.0138323,21.8877429 L10.0138323,21.8877429 C10.0138323,21.8877429 9.63882272,23.5366714 6.17267348,26.7003 L6.17267348,26.7003 C6.17267348,26.7003 1.457773,33.9544286 10.204411,31.8843 L10.204411,31.8843 C10.204411,31.8843 11.4032122,31.7948143 12.4421732,31.8993429 L12.4421732,31.8993429 C12.4421732,31.8993429 13.3089987,31.6351286 12.664643,31.0785429 L12.664643,31.0785429 C12.664643,31.0785429 13.3366633,31.3570286 13.7036041,31.8854571 L13.7036041,31.8854571 C13.7036041,31.8854571 17.5708906,31.0106571 21.742104,32.6958429 L21.742104,32.6958429 C21.742104,32.6958429 22.4698379,32.4177429 21.8531469,31.5826714 L21.8531469,31.5826714 C21.8531469,31.5826714 22.7472527,31.7427429 23.1207254,32.9049 L23.1207254,32.9049 C23.1207254,32.9049 24.5208638,33.6080571 24.3475755,32.5365429 L24.3475755,32.5365429 C24.3475755,32.5365429 25.1863521,32.5508143 27.1605318,34.5063857 L27.1605318,34.5063857 L27.2089449,34.0196143 C27.2089449,34.0196143 28.2901714,34.4095714 28.6571121,35.6407714 L28.6571121,35.6407714 C28.6571121,35.6407714 30.3961423,36.4480714 31.1023592,37.7841857 L31.1023592,37.7841857 L31.2410666,37.0956857 C31.2410666,37.0956857 34.0609391,38.9953286 32.7849074,41.9591571 L32.7849074,41.9591571 C32.7849074,41.9591571 33.5606701,42.5986714 33.5257051,43.6497429 L33.5257051,43.6497429 C33.5257051,43.6497429 32.7706908,42.8004 32.8602167,44.0042143 L32.8602167,44.0042143 C32.8602167,44.0042143 33.3243679,44.9642571 33.0815339,45.2909571 L33.0815339,45.2909571 C33.0815339,45.2909571 32.6869285,44.3378571 32.6242988,44.9638714 L32.6242988,44.9638714 C32.6242988,44.9638714 32.817567,46.5294857 32.2562053,47.2461429 L32.2562053,47.2461429 L32.8037347,47.3711143 C32.8037347,47.3711143 54.7137478,32.6453143 60.7477138,38.8040143 L60.7477138,38.8040143 C60.7477138,38.8040143 63.6294475,42.1855714 58.8327058,45.3561429 L58.8327058,45.3561429 C58.8327058,45.3561429 50.182894,49.9650429 55.269346,49.4937 L55.269346,49.4937 C55.269346,49.4937 57.182433,48.5625857 57.722662,48.7573714 L57.722662,48.7573714 C57.722662,48.7573714 55.5325444,50.3634857 53.5706601,52.4849143 L53.5706601,52.4849143 C53.5706601,52.4849143 47.8167986,58.2289714 48.4888189,59.2098429 L48.4888189,59.2098429 C48.4888189,59.2098429 13.6202259,65.1587143 0.138707446,80.0546143 L0.138707446,80.0546143 C0.138707446,80.0546143 10.6197649,71.8362 18.04849,70.3361571 L18.04849,70.3361571 L17.8959502,71.1639 C17.8959502,71.1639 19.5389226,69.4324286 21.2230078,68.6887714 L21.2230078,68.6887714 C21.2230078,68.6887714 32.7422577,63.3852 49.4924306,61.7702143 L49.4924306,61.7702143 C49.4924306,61.7702143 48.8419273,59.8782857 52.0371936,57.3190714 L52.0371936,57.3190714 C52.0371936,57.3190714 81.4619995,35.3399143 66.0235918,32.9411571 L66.0235918,32.9411571 C66.0235918,32.9411571 63.5495274,32.4813857 59.2038731,34.6429286 L59.2038731,34.6429286 C59.2038731,34.6429286 64.943518,29.7408857 61.6402828,24.2787857 L61.6402828,24.2787857 C61.6402828,24.2787857 64.7725352,23.7515143 64.0878352,20.8011857 L64.0878352,20.8011857 C64.0878352,20.8011857 68.3639437,19.3350857 68.5453009,15.4185429 L68.5453009,15.4185429 C68.5453009,15.4185429 66.7570891,16.5031714 65.1218013,16.0572857 L65.1218013,16.0572857 C65.1218013,16.0572857 60.1256436,14.9213571 57.977023,16.8129 L57.977023,16.8129 C57.977023,16.8129 57.2942442,16.1826429 58.4676862,14.7080571 L58.4676862,14.7080571 C57.8778913,15.2530714 55.9002536,16.5078 49.5569815,17.7212571 L49.5569815,17.7212571 C49.5569815,17.7212571 44.8236379,18.8606571 46.7494044,20.6002286 L46.7494044,20.6002286 L46.6448936,21.6439714 C46.6448936,21.6439714 45.6743257,22.9511571 42.3196035,24.2996143 L42.3196035,24.2996143 C42.3196035,24.2996143 36.1373242,26.6277857 33.7508645,34.3976143 L33.7508645,34.3976143 C33.7508645,34.3976143 33.7178206,29.8269 35.6455083,26.6482286 L35.6455083,26.6482286 C35.6455083,26.6482286 36.4220395,25.1809714 36.6660263,22.0435714 L36.6660263,22.0435714 C36.6660263,22.0435714 36.4493199,26.3076429 38.6478906,21.1190143 L38.6478906,21.1190143 C38.6478906,21.1190143 38.4742181,22.8582 39.6457389,21.6412714 L39.6457389,21.6412714 C39.6457389,21.6412714 42.0233613,19.5618857 42.5293937,19.4018143 L42.5293937,19.4018143 C42.5293937,19.4018143 43.7627757,18.9644143 44.0198263,17.7957 L44.0198263,17.7957 C44.0198263,17.7957 44.8805041,14.0882143 47.9159302,13.1293286 L47.9159302,13.1293286 C47.9159302,13.1293286 49.8774303,12.4134429 51.3809268,12.7756286 L51.3809268,12.7756286 C51.3809268,12.7756286 53.3489587,13.3958571 55.5117959,11.3650714 L55.5117959,11.3650714 C55.5117959,11.3650714 60.2328441,6.14944286 70.5033428,4.93598571 L70.5033428,4.93598571 C70.5033428,4.93598571 81.3486513,3.56901429 86.0750788,3.90497143 L86.0750788,3.90497143 C86.0750788,3.90497143 91.1749789,4.69992857 102.430262,2.03965714 L102.430262,2.03965714 L83.5126412,0.133457143 C83.5126412,0.133457143 82.7049873,0.119957143 81.2814109,0.119957143 L81.2814109,0.119957143 C72.6515792,0.119957143 41.3632521,0.622542857 29.8382387,7.72431429 M58.4676862,14.7080571 C58.6609544,14.5294714 58.705141,14.4272571 58.705141,14.4272571 L58.705141,14.4272571 C58.618689,14.5240714 58.5399216,14.6174143 58.4676862,14.7080571" id="Fill-36" fill="url(#linearGradient-6)" mask="url(#mask-5)"></path>
                </g>
                <g id="Group-59" transform="translate(29.078614, 12.792243)">
                    <path d="M43.6100438,50.4901543 C43.6100438,50.4901543 37.8335126,55.0608686 42.4446707,53.7451971 C42.4446707,53.7451971 42.3897257,52.4279829 43.6100438,50.4901543" id="Fill-39" fill="#FEFEFE"></path>
                    <path d="M45.8550296,51.3719357 C45.8550296,51.3719357 46.4744102,50.7787071 49.0337739,50.38065 L49.2474064,47.31075 C49.2474064,47.31075 46.003727,48.9515786 45.8550296,51.3719357" id="Fill-41" fill="#FEFEFE"></path>
                    <path d="M48.6720203,28.7967343 C48.6720203,28.7967343 57.6088527,24.3571629 56.4696073,31.08132 C56.4696073,31.08132 56.9771767,32.5377771 47.7529394,40.7893629 C47.7529394,40.7893629 57.6987628,29.9874343 48.6720203,28.7967343" id="Fill-43" fill="#231F20"></path>
                    <path d="M24.727388,28.3982143 C24.727388,28.3982143 24.5291247,27.1137857 25.0144087,26.46 C25.0144087,26.46 25.8466533,25.1385429 25.3156459,24.3825429 C24.7846384,23.6261571 25.3294782,24.2433 25.3294782,24.2433 C25.3294782,24.2433 24.4334512,23.8722429 26.4107047,23.2281 C26.4107047,23.2281 27.1365173,22.9731429 27.5480289,21.6563143 C27.5480289,21.6563143 28.1720203,20.0795143 32.8896104,18.1659857 C32.8896104,18.1659857 34.3788903,14.0064429 39.1787059,14.0685429 C39.1787059,14.0685429 39.1475832,10.6461 45.1581111,10.7359714 C45.1581111,10.7359714 50.8539537,12.1064143 53.5481826,9.89511429 C53.5481826,9.89511429 52.072735,14.3840571 47.5357335,15.8941286 C47.5357335,15.8941286 51.0867978,20.5149857 47.4723354,24.9283286 C47.4723354,24.9283286 45.3878813,28.0441286 40.1669484,28.9231714 C40.1669484,28.9231714 36.6047414,29.5480286 33.4548144,26.514 C33.4548144,26.514 31.3907247,24.2919 32.1860831,21.9363429 C32.1860831,21.9363429 27.953777,23.6647286 24.727388,28.3982143" id="Fill-45" fill="#231F20"></path>
                    <path d="M36.1969185,20.0918186 C36.1969185,20.0918186 38.1676401,25.1149757 42.5716975,21.6713186 C42.5716975,21.6713186 44.4801737,20.3174614 43.714401,17.2421614 C43.714401,17.2421614 43.5810728,15.7768329 41.4466687,15.6553329 C41.4466687,15.6553329 40.8284408,12.96999 45.4161608,13.2916757 C45.4161608,13.2916757 47.8967571,13.6820186 48.4419811,13.3622614 C48.4419811,13.3622614 47.476024,14.1549043 45.1756321,14.2980043 C45.1756321,14.2980043 43.1238377,15.2152329 44.6158073,16.1621614 C44.6158073,16.1621614 46.8508799,18.5420186 46.4754861,21.36159 C46.4754861,21.36159 46.3083455,23.9682471 42.5889879,25.2326186 C42.5889879,25.2326186 34.6607623,27.0574329 36.1969185,20.0918186" id="Fill-47" fill="#4F2683"></path>
                    <path d="M60.7719204,28.18881 C60.7719204,28.18881 61.8984861,29.5202957 60.280873,32.1678386 C60.280873,32.1678386 65.6043956,27.4574957 60.7719204,28.18881" id="Fill-49" fill="#FEFEFE"></path>
                    <path d="M50.2832552,6.14658857 C50.2832552,6.14658857 51.5266272,3.97694571 53.2268501,4.24193143 C53.2268501,4.24193143 53.5872589,4.37153143 53.7862906,3.78293143 C53.7862906,3.78293143 54.1689849,5.08587429 53.0508722,5.53561714 C53.0508722,5.53561714 51.5081841,5.09898857 50.2832552,6.14658857" id="Fill-51" fill="#FEFEFE"></path>
                    <path d="M60.9321448,6.04846286 C60.9321448,6.04846286 60.3454238,6.31730571 59.9892415,7.54619143 C59.9892415,7.54619143 59.7295013,10.1432057 57.9685699,11.8862486 C57.9685699,11.8862486 57.1735956,13.7735486 59.1931146,12.2438057 C59.1931146,12.2438057 60.7000692,10.2407914 60.4649197,7.92187714 C60.4649197,7.92187714 60.3727042,6.97572 60.9321448,6.04846286" id="Fill-53" fill="#FEFEFE"></path>
                    <path d="M64.1895028,5.20563857 C64.1895028,5.20563857 62.3828479,6.00715286 62.840083,6.56875286 C62.840083,6.56875286 64.0365788,7.67266714 64.1895028,5.20563857" id="Fill-55" fill="#FEFEFE"></path>
                    <path d="M23.5225159,0.0777040781 C23.5225159,0.0777040781 19.0527549,-0.02133 11.0814954,6.20178429 C11.0814954,6.20178429 9.41047414,7.50935571 7.06820103,7.83528429 C7.06820103,7.83528429 3.15941751,9.12781286 2.61803581,11.7433414 C2.61803581,11.7433414 0.21966495,14.0310129 0.253477292,15.7910271 C0.253477292,15.7910271 2.96499654,10.3728986 9.00779989,10.13877 C9.00779989,10.13877 12.1335203,8.97815571 9.09655729,14.1525129 C9.09655729,14.1525129 10.5516407,14.29947 12.2856759,10.2583414 C12.2856759,10.2583414 16.0576731,4.03329857 23.5225159,0.0777040781" id="Fill-57" fill="#231F20"></path>
                </g>
                <g id="Group-62" transform="translate(82.486744, 10.092243)">
                    <mask id="mask-8" fill="white">
                        <use xlink:href="#path-7"></use>
                    </mask>
                    <g id="Clip-61"></g>
                    <path d="M41.2402982,1.2312 C0.156382079,11.7068143 56.6080074,17.3054571 56.6080074,17.3054571 L56.6080074,17.3054571 C-25.4583878,27.4462714 36.289864,41.1526286 36.289864,41.1526286 L36.289864,41.1526286 C-39.3164528,45.4795714 27.0252824,60.1270714 27.0252824,60.1270714 L27.0252824,60.1270714 C-2.6800123,44.0181 46.8869592,41.9337 46.8869592,41.9337 L46.8869592,41.9337 C9.79020979,25.0803 66.0527934,18.2574 66.0527934,18.2574 L66.0527934,18.2574 C39.7552448,3.32447143 80.8226389,1.21654286 80.8226389,1.21654286 L80.8226389,1.21654286 C75.9421348,0.4482 69.9415969,0.1917 64.1001306,0.1917 L64.1001306,0.1917 C52.345347,0.1917 41.2402982,1.2312 41.2402982,1.2312" id="Fill-60" fill="url(#linearGradient-9)" mask="url(#mask-8)"></path>
                </g>
                <g id="Group-67" transform="translate(67.117498, 30.535100)" fill="#FEFEFE">
                    <path d="M1.66095443,3.24995143 C2.41865826,3.32632286 3.09452086,2.77128 3.17059863,2.01103714 C3.2466764,1.25002286 2.694152,0.571551429 1.93644817,0.49518 C1.17874433,0.418808571 0.502497502,0.973851429 0.426803965,1.73448 C0.350726197,2.49472286 0.903250596,3.17358 1.66095443,3.24995143" id="Fill-63"></path>
                    <path d="M1.7962038,0.660882857 C1.5187889,0.660882857 1.25213248,0.755768571 1.03465765,0.934354286 C0.7849074,1.13955429 0.629678014,1.42961143 0.597786829,1.75168286 C0.531314839,2.41626857 1.01583032,3.01142571 1.67824483,3.07815429 C2.33604857,3.14681143 2.93275955,2.65888286 2.99961577,1.99352571 C3.06608776,1.32855429 2.58118804,0.733397143 1.91915777,0.667054286 C1.87804503,0.662811429 1.8369323,0.660882857 1.7962038,0.660882857 M1.80004611,3.42954 C1.7481749,3.42954 1.6963037,3.42684 1.64366403,3.42182571 C0.792976255,3.33581143 0.170521786,2.57132571 0.255436871,1.71735429 C0.296933835,1.30348286 0.496349804,0.930497143 0.817182817,0.66744 C1.1376316,0.403997143 1.53953739,0.280182857 1.95373857,0.323768571 C2.36563437,0.36504 2.73718589,0.565225714 2.99923154,0.887297143 C3.26127718,1.20898286 3.38307846,1.61436857 3.3415815,2.02785429 C3.26127718,2.82975429 2.58579882,3.42954 1.80004611,3.42954" id="Fill-65"></path>
                </g>
            </g>
        </g>
    </g>
</svg>