<?xml version="1.0" encoding="UTF-8"?>
<svg width="200px" height="200px" viewBox="0 0 200 200" version="1.1" xmlns="http://www.w3.org/2000/svg" xmlns:xlink="http://www.w3.org/1999/xlink">
    <!-- Generator: Sketch 54.1 (76490) - https://sketchapp.com -->
    <title>njit</title>
    <desc>Created with Sketch.</desc>
    <g id="njit" stroke="none" stroke-width="1" fill="none" fill-rule="evenodd">
        <g id="njit_BGL">
            <g id="njit" transform="translate(0.000000, 12.000000)">
                <g id="g10" transform="translate(99.999998, 87.882829) scale(-1, 1) rotate(-180.000000) translate(-99.999998, -87.882829) translate(0.000000, 0.206064)" fill-rule="nonzero">
                    <g id="g12" transform="translate(0.000000, 0.363636)">
                        <path d="M193.297369,55.4420188 L199.815753,60.4565641 L192.238379,63.6505035 L183.623026,67.2812104 C185.283632,70.6096952 186.672723,74.1397961 187.739793,77.8529273 C192.094541,93.0044421 190.429086,109.003634 183.173733,121.749492 C176.925652,132.724441 167.026662,140.45939 155.300198,143.526865 C149.669491,144.999188 143.936158,145.340602 138.302623,144.59434 C137.969694,146.755552 137.414542,148.941006 136.618178,151.123229 C134.470704,157.018582 130.037168,163.854137 124.016563,165.359996 C123.786664,165.418178 123.551108,165.446461 123.317977,165.491309 C122.456967,167.828683 120.739795,169.852925 118.258987,171.394743 C112.834341,174.76848 104.167674,175.534945 95.6448461,173.390703 C89.2985836,171.795551 80.4153515,166.987067 73.0137355,161.144642 L71.587877,159.944642 C66.9418165,155.948683 49.7959584,139.703431 29.4660599,147.515148 C32.9692113,135.980603 38.9518778,133.183027 43.8375747,131.430704 C40.8315141,129.720401 35.8617365,127.431512 25.6461408,129.772118 C27.6690498,122.429088 32.7335749,119.54828 34.2678375,118.802017 C26.6197973,113.749896 16.8061814,103.275553 20.1496157,85.7478766 C14.3795956,76.929291 9.44509067,67.307069 9.19854522,60.9208066 L9.11870684,58.8464632 L10.6298987,57.424241 L12.9523229,55.2375744 C12.5528886,53.583837 12.0397573,51.2399987 11.5427876,48.3785846 C11.5168886,48.3664634 11.4913128,48.3559584 11.4654543,48.3434331 L9.86630278,47.5745443 L9.15406038,45.9494938 L6.39284833,39.6501 C2.65009286,38.1321203 0,34.4638375 0,30.1846457 C0,24.5514337 4.58379787,19.9688884 10.2170098,19.9688884 C10.4160401,19.9688884 10.6109492,19.9854944 10.808727,19.998747 C12.5164037,18.804444 14.4256562,17.6521612 16.4461814,16.7648481 L18.5748278,15.829535 L20.624848,16.9248885 L21.7570904,17.5288885 C22.1915954,17.2391107 22.6073126,16.9681208 22.9228277,16.7762016 L25.1950701,15.3947471 L27.5688074,16.5928077 L27.6109488,16.6133329 C28.3923629,13.6440805 30.0511508,10.9802826 32.3680396,9.10052503 C34.7378577,7.18985841 37.5948677,6.19886853 40.519999,6.24193924 L47.141413,4.06628677 C52.3551502,2.35148277 57.8989885,1.17329694 63.6214126,0.558711097 C76.3313112,-0.807608061 90.4456543,0.530460593 105.575755,4.53171706 C138.110704,13.1372926 150.574138,10.8202422 158.821006,8.66226241 L176.072723,3.45375749 C176.072723,3.45375749 175.956359,16.6835551 175.950703,16.8194339 L175.950703,42.1034333 L193.297369,55.4420188" id="path14" fill="#FFFFFF"></path>
                        <path d="M161.558784,41.8678777 L168.860198,42.6913121 L190.377773,59.2387864 L176.852521,64.9402004 C179.512319,69.2513114 181.656965,74.0262608 183.138177,79.1773718 C190.832723,105.949896 177.82747,132.684845 154.089693,138.894138 C147.199592,140.695754 140.323229,140.559188 133.837168,138.820199 C134.275956,149.19838 128.103431,159.402016 122.854946,160.715147 C121.592724,161.030703 120.295755,161.028279 118.998381,160.747875 C119.185048,161.548279 119.20929,162.347067 119.041613,163.128481 C117.863431,168.616561 107.821411,171.515955 96.8121188,168.74545 C91.623028,167.442016 83.440806,163.27636 75.9806042,157.386663 C72.9474729,154.991915 55.0686855,137.593532 37.3526051,141.423431 C38.6578172,139.406057 45.4448473,133.587875 55.623837,134.83636 C55.1216148,134.311512 54.6193926,133.791108 54.1115138,133.283229 C51.0795947,130.250502 41.8197969,122.58828 33.8399587,124.664239 C35.2130496,123.48727 41.039999,120.145452 49.1038372,121.214946 C47.2282816,120.080401 45.1159585,118.990704 42.7377767,117.960401 C33.1614537,113.810098 22.8810095,103.486866 24.7941812,90.292119 C24.7941812,90.292119 28.7768478,101.338987 39.321494,102.913937 C31.4755548,95.0787855 14.1521613,71.0307053 13.7567673,60.7446449 L18.0506662,56.7026248 C18.0506662,56.7026248 16.6707875,52.0755543 15.5928077,44.8618171 C14.8644441,44.6072716 14.1723633,44.331312 13.5400805,44.0266656 L9.84311087,35.5915547 C7.02113114,35.3980597 4.78945443,33.0553931 4.78945443,30.1846457 C4.78945443,27.1862215 7.21890891,24.7570903 10.2170098,24.7570903 C10.8397977,24.7570903 11.4355957,24.8671105 11.9935351,25.0601206 C13.8243229,23.6452115 16.030141,22.1776964 18.3716763,21.1499389 L22.057454,23.1159994 C22.057454,23.1159994 24.4206055,21.4706257 25.4117569,20.8678783 L29.4498174,22.9023025 C29.4498174,22.9023025 30.9272316,22.495757 32.0536558,22.1870297 C31.9509083,21.6130096 31.8928477,21.0250904 31.8928477,20.4237571 C31.8928477,20.0621813 31.9130497,19.6925652 31.9509083,19.3244844 C32.2271103,16.7365652 33.478383,14.3685249 35.3849284,12.8202421 C37.0558779,11.4742623 39.1008475,10.8505452 41.1454535,11.0670704 C42.6824232,11.2307472 44.0593928,11.8492926 45.1943423,12.7974946 L45.1943423,10.1688886 L48.762423,8.99511089 C53.6278774,7.39442406 58.8129278,6.29212105 64.1765641,5.71636349 C76.2517153,4.42060595 89.7345432,5.70864632 104.248886,9.54909067 C138.102219,18.5009288 151.359592,15.7414946 160.134541,13.4460199 L170.702218,10.5752725 L170.761612,16.7487269 L170.761612,38.8508677 L167.357572,40.0966051 C165.510299,40.7737364 163.573733,41.3628272 161.558784,41.8678777" id="path16" fill="#142C61"></path>
                        <path d="M86.021816,45.0557564 C86.4941393,46.1034332 86.8844423,47.1571705 87.2076746,48.1781806 L44.2694938,40.3094939 L43.2121201,38.0008071 L86.021816,45.0557564" id="path18" fill="#FFFFFF"></path>
                        <path d="M151.860602,55.9022208 L158.181814,54.6416148 L180.40848,58.244847 L168.811713,63.1309075 L110.613331,52.4658573 C110.190704,51.192726 109.703432,49.9955543 109.164442,48.8674735 L151.860602,55.9022208" id="path20" fill="#FFFFFF"></path>
                        <path d="M163.32444,108.865452 L154.785451,109.377775 L154.785451,75.1894931 C154.774542,75.0254527 154.547067,70.4319174 157.290501,66.8517155 L140.483229,63.7317156 C142.51434,67.11717 142.330097,70.9442407 142.316764,71.1498972 C142.316764,71.0824225 142.316764,107.042826 142.316764,107.042826 L133.24929,103.50424 L136.477572,113.026664 L166.363632,119.069492 L163.32444,108.865452 Z M114.957573,109.151512 L131.768078,112.269492 C129.736562,108.882826 129.923229,105.058987 129.931714,104.851715 C129.931714,104.867876 129.931714,70.6852508 129.931714,70.73818 C129.923229,70.5135336 129.696158,65.9107054 132.433936,62.3276752 L115.623431,59.2076753 C117.657775,62.5943419 117.473532,66.4238367 117.459795,66.6323216 C117.462623,66.5591903 117.462623,100.813735 117.462623,100.813735 C117.473532,100.978987 117.698179,105.573331 114.957573,109.151512 Z M106.786664,63.9244428 C106.786664,46.3975746 94.4666643,39.9046859 88.2113109,37.7378576 C94.1090886,45.8763625 94.3151492,56.2517158 94.3204017,56.7422208 C94.3204017,56.7555541 94.3204017,97.1818158 94.3204017,97.1818158 C94.3313108,97.3470683 94.5559572,101.938987 91.812523,105.520805 L108.625452,108.640805 C106.591512,105.252523 106.778583,101.42424 106.789492,101.221008 C106.786664,101.288886 106.786664,63.9244428 106.786664,63.9244428 L106.786664,63.9244428 Z M83.7143413,96.4694925 C83.7115131,96.5321188 83.7115131,59.8525238 83.7115131,53.4040391 L70.7183821,50.9745442 L57.9098975,75.9507052 L57.9098975,57.4690895 C57.8973723,57.3022208 57.674342,52.7119179 60.4161601,49.1276755 L43.6044434,46.0105039 C45.6387867,49.3999988 45.4529282,53.2250492 45.4395948,53.4294936 C45.4408069,53.3688876 45.4408069,90.0905028 45.4408069,96.5414117 L58.4363622,98.9733309 L71.2424225,73.998786 L71.2424225,92.4315128 C71.2561598,92.5939371 71.4808063,97.1874723 68.7385841,100.768886 L85.5478766,103.890098 C83.5163615,100.50222 83.700604,96.674341 83.7143413,96.4694925 L83.7143413,96.4694925 Z" id="path22" fill="#FFFFFF"></path>
                        <path d="M154.928885,132.202421 C159.987875,130.789492 164.461814,128.186259 168.237572,124.715552 L168.386258,124.742623 C164.212925,129.385855 158.972521,132.829492 152.897774,134.549492 C138.974542,138.488481 124.344239,132.33535 114.52727,120.012118 L115.875957,118.294138 L113.246058,118.330098 C112.30626,117.040401 111.417775,115.690906 110.586664,114.284846 L114.261411,114.9503 C124.046462,129.043229 139.898178,136.403229 154.928885,132.202421" id="path24" fill="#FFFFFF"></path>
                        <path d="M132.69131,38.573696 C118.941411,37.5091708 106.044442,34.3988274 97.5406036,32.147878 C78.7470687,27.1797569 66.1753519,28.3103023 58.4812107,30.2387871 L50.3834331,29.3260599 L50.3834331,13.9240805 C54.193938,12.6715552 58.944241,11.497333 64.7292913,10.8772118 C76.1745436,9.64771693 89.0250483,10.8880805 102.922018,14.566141 C143.608481,25.32606 155.947067,18.7422622 165.572925,16.7487269 L165.572925,35.2246052 C156.740602,38.455797 145.73737,39.583797 132.69131,38.573696" id="path26" fill="#EE2922"></path>
                        <path d="M28.4233124,53.1022209 C28.4233124,57.6791905 31.5284033,61.5737358 35.7370496,62.0230288 C36.7796758,62.1341399 37.7940193,62.0189883 38.7474738,61.7240389 L38.7474738,64.2234327 C28.8322417,62.9818166 25.4348276,60.2137359 23.4348277,58.0121198 C22.5126459,56.0703016 20.5462621,50.8650492 20.5462621,49.042423 L28.7578983,50.532928 C28.6317973,51.0169684 28.5344235,51.5094937 28.4802821,52.0214128 C28.4411306,52.3842411 28.4233124,52.7446451 28.4233124,53.1022209" id="path28" fill="#EE2922"></path>
                        <path d="M38.7474738,91.0880785 C33.2061406,85.7745433 22.2255348,72.0791901 19.6931712,63.6505035 L21.3277974,61.9268671 C22.2852116,62.6703015 23.2708277,63.3070691 24.2646863,63.8727257 L32.0524032,77.779796 L28.4018175,65.7793923 C30.1229487,66.4052509 31.7992315,66.8303014 33.3388679,67.1131296 L35.39709,74.4351497 L35.8617365,67.4763619 C36.9667061,67.5927256 37.9498172,67.6440387 38.7474738,67.6589882 L38.7474738,91.0880785" id="path30" fill="#EE2922"></path>
                        <path d="M84.9656544,113.911108 C85.570907,114.301007 86.1923211,114.692926 86.851715,115.093734 C83.3947454,117.389896 80.9002,119.863835 79.3931293,122.50828 C78.7903011,122.181815 78.2109071,121.854138 77.6424223,121.526462 C79.149493,118.911916 81.5450485,116.380603 84.9656544,113.911108" id="path32" fill="#EE2922"></path>
                        <path d="M79.9442404,124.463835 C79.9551495,124.436361 79.970099,124.408078 79.9822202,124.379795 C80.8666646,124.840401 81.7870687,125.294946 82.7365636,125.747472 C81.0682808,129.564037 83.0315131,132.298179 84.3450484,133.559593 C82.6226242,132.787471 81.0141394,132.010906 79.5030283,131.235956 C78.9814122,129.534138 78.7769677,127.182623 79.9442404,124.463835" id="path34" fill="#EE2922"></path>
                        <path d="M78.7717152,123.739795 C78.7446445,123.801613 78.7131293,123.861007 78.6864627,123.923229 C77.6206041,126.402825 77.5907051,128.637169 77.9119172,130.398785 C77.1264627,129.976158 76.3664627,129.553936 75.6395941,129.136158 C75.598786,126.946259 76.0359577,124.823835 77.0032304,122.753128 C77.5769678,123.081613 78.1636344,123.410098 78.7717152,123.739795" id="path36" fill="#EE2922"></path>
                        <path d="M88.1935331,115.890098 C89.10222,116.417371 90.06222,116.951108 91.0650482,117.483633 C87.0141392,120.077573 84.6496949,122.444845 83.3757555,124.53333 C82.4197959,124.078381 81.4961596,123.619391 80.6064626,123.155552 C81.8751495,120.97131 84.1664625,118.467472 88.1935331,115.890098" id="path38" fill="#EE2922"></path>
                        <path d="M67.4250488,120.48929 C67.6488872,119.524441 68.0791902,118.460603 68.79717,117.316361 C70.3325235,118.498583 72.0929275,119.737775 74.0767658,120.991916 C72.9406042,123.14626 72.4113113,125.258583 72.5345436,127.246461 C70.568079,125.986259 68.8565639,124.763633 67.3830286,123.610906 C67.1894933,122.727674 67.1474731,121.683633 67.4250488,120.48929" id="path40" fill="#EE2922"></path>
                        <path d="M96.324442,111.705856 L100.557573,112.469896 C97.134543,114.008886 94.3098966,115.491714 91.9886846,116.909896 L89.3313109,115.190704 C91.2791896,114.031512 93.5919169,112.862623 96.324442,111.705856" id="path42" fill="#EE2922"></path>
                        <path d="M93.8763613,111.262219 C91.7094927,112.248482 89.7575735,113.277169 88.0230281,114.34424 L86.1135332,113.110704 C87.3636342,112.267068 88.7341392,111.431512 90.2315129,110.602017 L93.8763613,111.262219" id="path44" fill="#EE2922"></path>
                        <path d="M83.2876747,111.280401 L79.1373718,108.594341 L85.5531292,109.756361 C84.7652504,110.258179 84.0080787,110.76727 83.2876747,111.280401" id="path46" fill="#EE2922"></path>
                        <path d="M74.3761598,107.733331 L76.9705031,108.20323 C72.9054527,110.753129 70.2363619,113.157169 68.5478771,115.334139 C68.0036347,114.896159 67.5010084,114.469492 67.0189882,114.052926 C68.6884831,112.052522 71.1139376,109.892927 74.3761598,107.733331" id="path48" fill="#EE2922"></path>
                        <path d="M74.7700991,119.787068 C72.8270689,118.5503 71.1030285,117.330098 69.5987861,116.164037 C71.2561598,114.001613 73.9616143,111.581815 78.2258566,108.987068 C79.299796,109.884442 80.6363616,110.92929 82.2274727,112.058583 C78.9030283,114.576563 76.4004021,117.199189 74.7700991,119.787068" id="path50" fill="#EE2922"></path>
                        <path d="M63.5781802,112.78626 C62.0698974,114.650098 61.1894934,116.45333 61.2759581,117.957169 C60.3187864,116.875149 59.7228268,116.057775 59.4197965,115.605654 C59.4197965,115.605654 58.4622208,113.24525 61.0133318,110.033533 C61.6404025,110.777371 62.4868671,111.711108 63.5781802,112.78626" id="path52" fill="#EE2922"></path>
                        <path d="M64.4973721,111.726462 C63.3927257,110.637977 62.5490893,109.70626 61.945049,108.989896 C62.8428267,108.081209 64.0303014,107.124038 65.5931297,106.145048 L70.0860589,106.958785 C67.9397963,108.453735 66.0048468,110.096159 64.4973721,111.726462" id="path54" fill="#EE2922"></path>
                        <path d="M66.1620185,115.164846 C66.6573721,115.592724 67.1745438,116.029492 67.7325236,116.478381 C66.8646448,117.816159 66.3527256,119.059391 66.0913115,120.181411 C65.9127256,120.9503 65.8492913,121.683633 65.8678771,122.383835 C65.2492913,121.863027 64.686059,121.364037 64.1644428,120.884441 C63.9167661,119.414947 64.5422206,117.420199 66.1620185,115.164846" id="path56" fill="#EE2922"></path>
                        <path d="M167.595551,100.702624 L160.315956,101.539795 L160.315956,76.9947455 C160.315956,72.1939376 162.542218,68.7761599 164.735349,68.4646448 C167.384238,72.4460588 169.477976,77.1349476 170.761612,82.3652505 C171.308683,84.5882807 171.677167,86.811715 171.896561,89.0137351 L165.994743,91.1587856 L172.102218,92.2218159 C172.270299,97.8561592 171.389895,103.261816 169.637572,108.052927 L167.595551,100.702624" id="path58" fill="#EE2922"></path>
                        <path d="M152.802824,125.56727 C151.489289,125.968078 150.168077,126.23232 148.843229,126.375754 L146.129693,122.989088 L146.083633,126.495754 C139.3103,126.347068 132.699391,122.989088 127.418583,117.330098 L158.411713,122.938179 C156.673127,124.063027 154.801612,124.955956 152.802824,125.56727" id="path60" fill="#EE2922"></path>
                        <path d="M73.9466648,149.371713 C69.2884831,144.776562 62.4541399,142.165653 59.5822207,141.207673 C59.5822207,141.207673 66.9907054,141.302219 73.8476749,145.265451 C67.9616145,138.825855 57.7175743,128.55434 50.4294937,125.801613 C50.4294937,125.801613 60.6682813,128.174542 72.4816143,138.551512 C79.7167657,144.907067 94.5074724,166.696561 111.296159,163.258178 C103.766866,168.559996 86.7422201,161.997976 73.9466648,149.371713" id="path62" fill="#EE2922"></path>
                        <path d="M87.8456544,150.186259 C97.8464622,149.761612 108.38222,155.719996 110.829896,158.275148 C105.297371,155.879592 97.6327248,153.166865 87.8456544,150.186259" id="path64" fill="#EE2922"></path>
                        <path d="M121.538583,156.907471 C129.836764,146.479188 125.370906,135.410502 125.370906,135.410502 C126.646461,136.475552 129.200401,137.753936 129.200401,137.753936 C130.901007,147.11838 124.517573,155.41737 121.538583,156.907471" id="path66" fill="#EE2922"></path>
                        <path d="M33.6530901,104.60929 C38.9599182,109.919593 49.9595947,112.013735 49.9595947,112.013735 C52.703029,116.7103 56.9321198,119.148684 56.9321198,119.148684 C49.1337361,117.414138 36.8948678,110.096159 33.6530901,104.60929" id="path68" fill="#EE2922"></path>
                        <polyline id="path70" fill="#FFFFFF" points="60.1967662 26.2848882 60.1967662 20.681656 57.2735339 21.3963227 57.2735339 26.9968478 54.0222209 27.7873932 55.1119178 26.5459387 55.1119178 21.9204439 54.0222209 22.1870297 55.1119178 20.9437975 55.1119178 16.4128885 57.2735339 15.8860602 57.2735339 19.5583833 60.1967662 19.8132924 60.1967662 15.1753532 62.3579782 14.6501006 62.3579782 25.7591509 60.1967662 26.2848882"></polyline>
                        <polyline id="path72" fill="#FFFFFF" points="65.1284832 25.3934539 65.8937357 24.6433125 65.8937357 14.2190704 68.377372 14.0080401 68.377372 25.119959 65.1284832 25.3934539"></polyline>
                        <polyline id="path74" fill="#FFFFFF" points="88.2642402 26.4917973 88.2642402 20.7922823 85.3389878 20.3333328 85.3389878 26.0355145 82.0892909 25.5224236 83.180604 24.701858 83.180604 19.9919591 82.0892909 19.8214945 83.180604 18.9991914 83.180604 14.3882421 85.3389878 14.7267875 85.3389878 18.4630702 88.2642402 19.905454 88.2642402 15.1862218 90.4254523 15.5231915 90.4254523 26.8303428 88.2642402 26.4917973"></polyline>
                        <polyline id="path76" fill="#FFFFFF" points="117.933734 33.0173729 117.933734 26.9753933 114.984644 32.4892517 111.477573 31.7746255 112.547068 31.0105851 112.547068 20.6242015 114.705452 21.0647267 114.705452 28.1657367 117.96929 21.727757 120.095351 22.1600399 120.095351 33.401979 117.933734 33.0173729"></polyline>
                        <path d="M129.027067,25.3421812 L125.776967,24.9114741 L125.776967,32.3494133 L129.027067,32.7790295 L129.027067,25.3421812 Z M130.654946,34.2916759 C130.303027,34.604484 129.866259,34.7260193 129.349088,34.6570496 L122.548684,33.7567668 L123.618987,32.9414537 L123.618987,22.7883631 L129.349088,23.5490903 C130.57333,23.7107065 131.185451,24.4012115 131.185451,25.6221408 L131.185451,33.0719588 C131.185451,33.5713527 131.006865,33.9777365 130.654946,34.2916759 L130.654946,34.2916759 Z" id="path78" fill="#FFFFFF"></path>
                        <path d="M106.935755,24.9655751 L103.709896,24.1370095 L103.709896,27.9976155 L106.935755,28.8251306 L106.935755,24.9655751 Z M108.509088,30.5094538 C108.119189,30.8101406 107.70222,30.9046861 107.260603,30.7899386 L103.382624,29.7959184 C102.824644,29.6524437 102.377371,29.3584235 102.04727,28.9090902 C101.717169,28.4605245 101.549088,27.9745852 101.549088,27.4517165 L101.549088,23.5846055 L100.457371,23.3071509 L101.549088,22.5827065 L101.549088,17.9389086 L103.709896,18.4933733 L103.709896,22.2561611 L106.935755,24.0730903 L106.935755,19.3188278 L109.094139,19.8730904 L109.094139,29.3858983 C109.094139,29.8352316 108.898987,30.2089689 108.509088,30.5094538 L108.509088,30.5094538 Z" id="path80" fill="#FFFFFF"></path>
                        <polyline id="path82" fill="#FFFFFF" points="98.1660582 19.0766864 95.8775734 18.5280803 95.8775734 28.0230296 92.6303007 27.2419387 93.7001997 26.5187872 93.7001997 16.1284844 99.4282803 17.5029895 99.4282803 20.795151 98.1660582 19.0766864"></polyline>
                        <path d="M75.0315133,19.4517167 L77.3983819,17.7264642 L77.3983819,15.890141 L74.1511093,15.7386259 L74.1511093,23.1766055 L77.9862607,23.3571711 L79.249695,22.0323631 L79.249695,25.2512721 L73.8262608,24.9979388 C73.29818,24.9741004 72.8622204,24.768161 72.5139376,24.3833529 C72.1660588,23.9947873 71.9927255,23.5612519 71.9927255,23.0836358 L71.9927255,15.6327269 C71.9927255,15.4125653 72.0129275,15.2105451 72.0525235,15.023838 C72.2529275,14.221737 72.8444426,13.841535 73.8262608,13.8860603 L79.559594,14.1583027 L79.559594,19.6658581 L75.0315133,19.4517167" id="path84" fill="#FFFFFF"></path>
                        <path d="M160.735754,26.8627064 C160.386259,27.2978175 159.949895,27.5793932 159.422218,27.7034337 L156.494542,28.3918781 L156.494542,32.1564032 L159.367673,31.4815346 L160.629895,29.8028679 L160.629895,33.0202012 L156.169289,34.066585 C155.630299,34.1955547 155.186259,34.1144234 154.836764,33.8258981 C154.490501,33.5374133 154.313936,33.1530901 154.313936,32.6736153 L154.313936,28.8977367 C154.313936,28.7192316 154.332925,28.5475144 154.373734,28.3806862 C154.471107,27.9518781 154.677168,27.5806458 154.996764,27.2662619 C155.310703,26.9523226 155.703834,26.7425852 156.169289,26.6311508 L159.096966,25.9435145 L159.096966,24.1069893 L154.473936,25.1934943 L154.473936,23.3571711 L159.422218,22.1968075 C159.990703,22.0626661 160.442824,22.1381005 160.78141,22.4254944 C161.098178,22.6827469 161.258178,23.0727671 161.258178,23.5943832 L161.258178,25.4412923 C161.258178,25.9515549 161.082016,26.4254943 160.735754,26.8627064" id="path86" fill="#FFFFFF"></path>
                        <polyline id="path88" fill="#FFFFFF" points="139.109896 33.4400396 140.371714 32.1253325 140.371714 35.3139385 133.57131 35.0217769 134.641209 34.1168072 134.641209 29.5127669 133.552724 29.4670296 134.641209 28.5459387 134.641209 24.0541408 140.371714 24.3017772 140.371714 26.1220195 136.821411 25.9681206 136.821411 28.1046458 140.371714 29.7604033 136.821411 29.6076356 136.821411 33.3410497 139.109896 33.4400396"></polyline>
                        <path d="M148.884037,29.5374134 L145.959188,29.6751912 L145.959188,33.3641204 L148.884037,33.228686 L148.884037,29.5374134 Z M148.897774,27.7361205 L149.209289,27.722868 C150.430703,27.6674741 151.039996,28.2359589 151.039996,29.4302215 L151.039996,33.1341406 C151.039996,33.6213729 150.863835,34.0533325 150.511915,34.4214133 C150.159592,34.7910294 149.723633,34.9862618 149.209289,35.010585 L142.728077,35.3167668 L143.797976,34.3240395 L143.797976,29.7782619 L142.706663,29.8270296 L143.797976,28.8194336 L143.797976,24.3781408 L145.959188,24.2791913 L145.959188,27.8772114 L146.568481,27.8472316 L149.258178,24.1232721 L151.789895,23.8893731 L148.897774,27.7361205 L148.897774,27.7361205 Z" id="path90" fill="#FFFFFF"></path>
                        <path d="M153.057774,128.928482 C156.749087,127.886461 160.082824,126.111512 162.999592,123.768482 L168.234743,124.715552 C164.45939,128.185047 159.987875,130.789492 154.928885,132.202421 C139.898178,136.403229 124.046462,129.043229 114.261411,114.9503 L119.277169,115.857371 C127.827472,126.853734 140.759188,132.39636 153.057774,128.928482" id="path92" fill="#CCCBCC"></path>
                        <path d="M177.42141,80.0032303 C181.199187,94.2246441 179.059794,108.423836 172.668279,118.941411 L171.222218,113.74424 C176.045248,104.806866 177.518783,93.203634 174.420602,81.5850485 C173.142218,76.7886849 171.189491,72.4092911 168.741006,68.5486852 L172.161612,67.076766 C174.385046,70.9943417 176.178177,75.328483 177.42141,80.0032303" id="path94" fill="#CCCBCC"></path>
                        <path d="M90.2315129,110.602017 C88.7341392,111.431512 87.3636342,112.267068 86.1135332,113.110704 L83.2876747,111.280401 C84.0080787,110.76727 84.7652504,110.258179 85.5531292,109.756361 L90.2315129,110.602017" id="path96" fill="#FFFFFF"></path>
                        <path d="M77.6424223,121.526462 C76.6335334,120.94626 75.678786,120.364845 74.7700991,119.787068 C76.4004021,117.199189 78.9030283,114.576563 82.2274727,112.058583 C83.0666646,112.654139 83.9797959,113.273937 84.9656544,113.911108 C81.5450485,116.380603 79.149493,118.911916 77.6424223,121.526462" id="path98" fill="#FFFFFF"></path>
                        <path d="M74.0767658,120.991916 C75.0016143,121.577371 75.9753516,122.164441 77.0032304,122.753128 C76.0359577,124.823835 75.598786,126.946259 75.6395941,129.136158 C75.6137355,129.120401 75.5882809,129.104239 75.5608062,129.08929 C75.088483,128.815754 74.6307052,128.544239 74.1838365,128.273128 C74.0727254,128.206461 73.9644426,128.137371 73.8533315,128.071108 C73.438786,127.816562 73.0311093,127.563229 72.6359578,127.3103 C72.6020184,127.28929 72.568079,127.26828 72.5345436,127.246461 C72.4113113,125.258583 72.9406042,123.14626 74.0767658,120.991916" id="path100" fill="#FFFFFF"></path>
                        <path d="M66.1620185,115.164846 C64.5422206,117.420199 63.9167661,119.414947 64.1644428,120.884441 C64.1579782,120.879189 64.1523216,120.873936 64.1454529,120.866664 C62.9648469,119.778583 62.025049,118.802017 61.2965641,117.981411 C61.2896954,117.97333 61.2828268,117.966058 61.2759581,117.957169 C61.1894934,116.45333 62.0698974,114.650098 63.5781802,112.78626 C64.3228267,113.519593 65.1830287,114.318381 66.1620185,115.164846" id="path102" fill="#FFFFFF"></path>
                        <path d="M67.0189882,114.052926 C66.0614125,113.223027 65.2222206,112.441613 64.4973721,111.726462 C66.0048468,110.096159 67.9397963,108.453735 70.0860589,106.958785 L74.3761598,107.733331 C71.1139376,109.892927 68.6884831,112.052522 67.0189882,114.052926" id="path104" fill="#FFFFFF"></path>
                        <path d="M96.6307047,129.601209 L94.2311088,135.560805 C94.2311088,135.560805 94.6185835,130.33737 95.2549471,129.141815 C95.8561592,128.011714 96.7175733,127.345855 98.7971692,126.119997 L98.0634319,127.5903 L96.6307047,129.601209 Z M120.219391,143.945855 L118.613734,145.259794 L116.400805,144.087673 L113.181007,144.496158 L112.000401,147.268683 L119.185048,149.993532 C118.155957,153.810501 115.236361,154.487673 115.236361,154.487673 C114.808482,154.037976 103.490502,150.866259 100.573735,150.151107 L107.244442,148.106259 L109.381007,147.469087 L109.381007,139.249693 L111.431512,138.997572 L112.539391,140.676764 L113.952724,137.021815 L108.305856,137.021815 L108.305856,134.597572 L113.259391,134.597572 L114.767674,130.709088 L113.971714,130.709088 L111.970098,131.894542 L107.006058,131.894542 L107.006058,129.006865 L111.507068,129.006865 L109.676361,126.022219 L106.293735,126.163229 L104.557977,123.303027 L108.338583,121.097371 C108.338583,121.097371 109.812118,123.398785 112.368482,125.544239 C114.922421,127.692522 115.881209,128.298583 115.881209,128.298583 L118.399997,135.666259 L116.582623,135.666259 L119.688886,140.010906 L120.219391,143.945855 Z M101.437573,144.399188 L97.5107046,145.323633 L94.4125229,142.005249 L99.7426238,138.986663 L98.9163612,135.871108 L102.656563,137.507875 L106.296563,145.144239 L101.437573,144.399188 L101.437573,144.399188 Z" id="path106" fill="#CCCBCC"></path>
                        <path d="M37.4324435,19.9067066 C37.3268678,20.8937773 37.5205243,21.845656 37.937494,22.6068681 C39.1523223,22.9196762 40.6985848,21.2501409 40.6985848,21.2501409 C37.9010496,25.6019388 36.0377365,30.6881204 35.4499789,36.2279183 C34.862383,41.7676757 35.6152314,47.1300998 37.4378172,51.9769684 C37.4378172,51.9769684 36.2760395,50.0173725 35.0235143,50.0674735 C34.4547062,50.7268674 34.0661406,51.6177765 33.9632315,52.603635 C33.7302618,54.7903017 34.9165244,56.7147461 36.6051304,56.893736 C38.2110293,57.063837 39.7452515,55.4258572 40.1014939,53.1640391 L40.1014939,53.162827 C40.2381808,52.2909078 40.1461404,51.4472714 39.8347465,50.7171704 L39.8210091,50.6808068 L39.807595,50.6444432 C38.3764031,46.8379786 37.5962819,42.3963626 38.2204839,36.5221001 C38.8448475,30.6488477 40.5377768,26.4703428 42.7353525,23.0481206 L42.7567666,23.0157974 L42.7797969,22.9834338 C43.2335343,22.3385449 43.5018171,21.5273126 43.5531302,20.6459793 L43.5531302,20.6459793 C43.6804029,18.3612521 42.5240393,16.4348279 40.9167667,16.2638784 C39.2280798,16.0865046 37.6627061,17.7184238 37.4324435,19.9067066" id="path108" fill="#CCCBCC"></path>
                        <path d="M30.2799992,38.6739384 C30.2799992,40.0564838 30.3936154,41.4319182 30.5981811,42.7995949 L17.028242,40.3188273 L14.2145047,31.782181 L17.6674743,31.1325649 L21.1150702,32.4214133 L24.9176155,32.0978578 L28.3623831,33.6985446 L30.7376962,33.6593931 C30.615676,34.3338173 30.5102619,35.010585 30.4384639,35.6961607 C30.3314336,36.6925647 30.2799992,37.6840395 30.2799992,38.6739384" id="path110" fill="#CCCBCC"></path>
                        <path d="M84.0335333,41.4848474 L43.6100999,35.7228678 L45.0739383,33.4900598 L81.2226242,37.5846051 L83.7046444,41.0068677 C83.8185838,41.1652515 83.9252504,41.3264636 84.0335333,41.4848474" id="path112" fill="#CCCBCC"></path>
                        <path d="M180.40848,58.244847 L158.181814,54.6416148 L158.328077,54.6117158 L152.581006,51.2573725 L106.743432,44.7228272 C105.48929,42.9284838 104.097371,41.3684838 102.653735,40.0113525 L167.145854,47.3171705 L180.40848,58.244847" id="path114" fill="#CCCBCC"></path>
                        <path d="M74.4804022,67.7511094 L74.4804022,94.7430279 C74.4804022,94.7430279 73.8775739,98.2840379 68.8484831,100.613331 C71.4686851,97.0557551 71.2549477,92.592725 71.2424225,92.4315128 L71.2424225,73.998786 L71.077574,74.3252507 L71.0961598,74.1195941 L74.4804022,67.7511094" id="path116" fill="#CCCBCC"></path>
                        <path d="M145.677572,111.099795 L137.609694,108.050098 L139.434744,113.623836 L136.477572,113.026664 L133.24929,103.50424 L142.316764,107.042826 C142.316764,107.042826 142.316764,71.0824225 142.316764,71.1498972 C142.330097,70.9442407 142.51434,67.11717 140.483229,63.7317156 L157.290501,66.8517155 C156.589087,67.767271 156.08242,68.7543417 155.717168,69.7131296 L145.677572,67.8703013 L145.677572,111.099795" id="path118" fill="#CCCBCC"></path>
                        <path d="M97.6436339,57.6016147 L97.6436339,99.234745 C97.6436339,99.234745 97.8278763,103.650502 91.8181795,105.520805 L91.812523,105.520805 C94.5559572,101.938987 94.3313108,97.3470683 94.3204017,97.1818158 C94.3204017,97.1818158 94.3204017,56.7555541 94.3204017,56.7422208 C94.3151492,56.2517158 94.1090886,45.8763625 88.2113109,37.7378576 C97.6597955,45.5890898 97.6436339,57.6016147 97.6436339,57.6016147" id="path120" fill="#CCCBCC"></path>
                        <path d="M49.1551503,93.8210078 L45.9228271,96.6323208 L45.4408069,96.5414117 C45.4408069,90.0905028 45.4408069,53.3688876 45.4395948,53.4294936 C45.4529282,53.2250492 45.6387867,49.3999988 43.6044434,46.0105039 L60.4161601,49.1276755 C59.7204025,50.0363624 59.2153521,51.0113119 58.8492915,51.9644431 L49.1551503,50.1935341 L49.1551503,93.8210078" id="path122" fill="#CCCBCC"></path>
                        <path d="M57.9208066,81.6622202 L57.9208066,75.9300991 L70.7183821,50.9745442 L83.7115131,53.4040391 C83.7115131,54.0864633 83.7115131,55.1062612 83.7115131,56.3818168 L72.2109073,54.3507057 L57.9208066,81.6622202" id="path124" fill="#CCCBCC"></path>
                        <path d="M120.509492,63.2852509 L120.509492,103.423028 C120.509492,103.423028 120.040805,106.874745 115.220199,109.201613 L114.957573,109.151512 C117.698179,105.573331 117.473532,100.978987 117.462623,100.813735 C117.462623,100.813735 117.462623,66.5591903 117.459795,66.6323216 C117.473532,66.4238367 117.657775,62.5943419 115.623431,59.2076753 L132.433936,62.3276752 C131.737774,63.2408065 131.237168,64.2169681 130.871512,65.1700994 L120.509492,63.2852509" id="path126" fill="#CCCBCC"></path>
                        <polyline id="path128" fill="#CCCBCC" points="154.785451 112.587068 154.785451 109.377775 163.32444 108.865452 164.242824 111.951512 154.785451 112.587068"></polyline>
                    </g>
                </g>
            </g>
        </g>
    </g>
</svg>