<?xml version="1.0" encoding="UTF-8"?>
<svg width="200px" height="200px" viewBox="0 0 200 200" version="1.1" xmlns="http://www.w3.org/2000/svg" xmlns:xlink="http://www.w3.org/1999/xlink">
    <!-- Generator: Sketch 54.1 (76490) - https://sketchapp.com -->
    <title>north-florida</title>
    <desc>Created with Sketch.</desc>
    <g id="north-florida" stroke="none" stroke-width="1" fill="none" fill-rule="evenodd">
        <g id="north-florida_BGL">
            <g id="north-florida" transform="translate(0.000000, 30.000000)">
                <g id="g10" transform="translate(99.855697, 70.170277) scale(-1, 1) rotate(-180.000000) translate(-99.855697, -70.170277) translate(0.000000, 0.329009)" fill-rule="nonzero">
                    <g id="g12">
                        <path d="M159.973445,103.946318 C160.297254,101.351801 160.300717,97.7240957 159.3847,93.8678187 C160.632031,93.9041824 161.695811,94.6406903 162.218178,95.7044709 C162.593358,95.3119745 162.938524,94.8946585 163.202305,94.3971116 C164.045595,92.8311665 164.128712,91.0216427 163.592492,89.2906183 C164.181237,88.97893 164.750934,88.6747453 165.277341,88.3769098 C166.932752,94.3001419 164.023084,100.312263 159.973445,103.946318" id="path14" fill="#FFFFFF"></path>
                        <path d="M131.279073,81.0897527 C130.039246,78.2285695 126.708799,76.1789303 122.778641,76.1789303 C117.796245,76.1789303 113.760459,79.4764771 113.760459,83.5445867 C113.760459,84.3746011 113.935351,85.1676746 114.243576,85.9128406 C114.802883,85.6721479 115.421642,85.5382374 116.069261,85.5382374 C118.058872,85.5382374 119.749492,86.786145 120.416159,88.5425663 C116.27359,91.9226528 111.307934,95.6028836 104.133908,97.9803727 C103.337948,95.8580063 102.898122,93.5590164 102.898122,91.1624797 C102.898122,80.3896084 111.627126,71.6594499 122.405769,71.6594499 C129.462046,71.6594499 135.648481,75.4112535 139.070126,81.0314554 C136.087154,80.1621914 133.587875,80.2949475 131.279073,81.0897527" id="path16" fill="#FFFFFF"></path>
                        <path d="M199.46897,57.7800851 C198.742852,69.5757558 191.703891,81.6075016 174.094657,86.6256833 C173.883978,86.8640671 173.498408,87.2629127 172.985277,87.6519459 C174.437514,100.538526 167.234628,112.701873 158.125826,121.215581 C148.006346,130.67359 132.451368,137.751223 117.313706,138.364787 C123.146317,135.229434 133.384701,128.210675 136.507933,123.280228 C120.225682,135.88802 98.3769095,140.877341 78.1269822,138.622219 C62.0115425,136.828857 44.2802875,128.486577 37.849696,111.587876 C54.3688875,123.276765 76.1367946,128.087731 95.1532444,123.686577 C111.582681,119.882825 126.270704,109.489752 134.730155,94.818468 C134.730155,94.818468 133.449347,95.198266 132.697255,95.7720034 C121.265221,104.482537 111.230589,111.433186 97.6917724,111.237515 C87.3027395,111.087443 75.6450198,104.580084 72.1823936,93.8678187 C76.6303011,95.6121188 82.9425665,96.6395358 87.7010079,96.5598821 C87.6271262,95.129002 87.5751782,93.6854233 87.6507915,92.2539659 C75.668685,92.1598823 46.2540825,91.0903296 28.3434914,73.8562752 C33.0005187,74.7821049 40.1465502,75.2230861 44.6117161,75.0949476 C28.7732172,68.6083677 7.76178913,55.5595946 1.71987874,35.3068389 C6.00784978,38.5604031 18.0690905,43.9991331 24.6823082,46.3598257 C16.9724094,38.8005185 3.81380654,21.5627123 0,0 C8.96958131,12.2361902 19.9260601,21.8373443 31.3629429,29.2816731 C32.4014422,26.8612403 35.4403454,25.1082245 39.030937,25.1082245 C43.4780942,25.1082245 47.0831157,27.7958435 47.0831157,31.1124379 C47.0831157,33.266839 45.556882,35.1501867 43.2718027,36.2098692 C56.4290318,43.0363626 69.5393922,47.2955255 80.4011524,49.6584115 C78.0617585,52.759306 74.0317442,56.1469539 69.8753229,58.6753232 C77.3096662,60.7855685 86.2562749,61.2461745 93.934774,60.6002871 C93.4372271,63.4303014 91.3720035,68.0923504 88.4594494,70.8069246 C98.5546873,71.5665206 107.55613,66.4571412 117.1746,64.4294356 C125.980372,62.571427 135.205769,63.6767661 142.409232,69.3893201 C146.084268,69.9353518 150.002882,70.1396808 153.661179,69.3800848 C156.550068,62.7059147 167.086865,65.9930719 166.00115,73.0816721 C164.899852,80.3030283 155.417601,80.5466069 150.095812,78.6545435 C150.990472,80.3053371 151.687153,81.9238075 152.23434,83.4268377 C163.079361,82.8034611 174.937947,81.27792 181.628278,71.7004311 C189.485132,60.4554097 187.772578,44.3903596 179.374887,33.9601146 C166.764787,50.5181517 142.141411,51.9503017 123.42626,47.7881662 C125.328713,51.421586 131.134773,57.5599986 134.703027,59.9838369 C124.310531,60.3105324 114.207212,57.6174877 106.075611,50.8924085 C96.2839803,42.7827406 92.1489154,29.6773441 99.9399686,16.6858293 C100.815005,21.0678205 104.005192,29.6227987 107.55613,34.5542271 C107.55613,34.5542271 107.836072,31.442308 108.371714,28.8104466 C121.275033,34.2645302 137.443575,38.0185849 151.085133,34.409927 C161.145739,31.7516875 172.198553,24.8816155 173.502449,12.9290617 C191.856849,19.1700428 200.6176,39.9740827 199.46897,57.7800851 Z M37.6894074,32.8605475 L35.9771997,32.8605475 L35.9771997,28.4902735 L34.9352949,28.4902735 L34.9352949,32.8605475 L33.2230872,32.8605475 L33.2230872,33.7346601 L37.6894074,33.7346601 L37.6894074,32.8605475 Z M40.0782097,33.7346601 L41.4186425,29.983549 L42.7655978,33.7346601 L44.2550638,33.7346601 L44.2550638,28.4902735 L43.2943135,28.4902735 L43.2943135,32.722308 L41.8445588,28.4902735 L41.0055978,28.4902735 L39.5414132,32.722308 L39.5414132,28.4902735 L38.5791044,28.4902735 L38.5791044,33.7346601 L40.0782097,33.7346601 Z M160.395956,74.9085118 C162.399419,73.7627687 162.604902,72.2389592 161.973445,70.8525235 C161.391627,69.5838366 160.017312,68.9991325 158.503315,69.582105 C156.539679,70.3347746 156.971425,72.255698 156.971425,72.255698 C153.130732,73.896102 148.540833,73.5809505 148.540833,73.5809505 C152.766519,76.9806619 158.645306,75.9174584 160.395956,74.9085118 Z M149.536504,87.3148607 C148.0075,81.862047 144.40346,73.5959578 135.055119,69.2357847 C122.902161,63.569984 111.025683,70.8808063 100.754976,73.3789303 C86.5541104,76.8305897 78.9483386,72.1419895 78.9483386,72.1419895 C86.3220758,69.5434326 88.2903297,64.7705612 88.2903297,64.7705612 C88.2903297,64.7705612 75.4378048,65.820489 60.5956695,59.3217878 C69.3950921,55.2906191 73.0655104,51.7852801 73.0655104,51.7852801 C29.7215577,41.8071562 8.10608926,14.6453099 8.10608926,14.6453099 C19.7488018,43.8401721 41.2713987,54.1125528 41.2713987,54.1125528 C41.2713987,54.1125528 23.050389,51.9194215 9.06724364,43.6988156 C25.789148,69.3321772 62.7290028,76.9864339 62.7290028,76.9864339 C51.1404316,79.5878768 40.2567955,78.3907628 40.2567955,78.3907628 C55.8861169,88.3151493 83.1861451,88.6556976 92.1864335,88.4761883 C91.6150049,90.3128405 91.2992762,92.26551 91.2992762,94.2897523 C91.2992762,96.3619024 91.6288577,98.3520899 92.2279919,100.232032 C84.1217872,100.674168 78.3757556,98.91082 78.3757556,98.91082 C92.0017293,111.201729 106.307068,111.685423 130.355552,92.8380929 C132.951223,90.7994205 138.289174,89.7500699 140.444441,91.9809501 C122.353821,130.265509 75.4124079,137.295235 46.9834332,120.948915 C58.3907633,132.677053 84.0398247,141.51053 117.564211,129.945163 C130.845018,125.363922 146.641266,110.854831 151.439534,100.715149 C151.062045,114.272436 142.742276,125.366808 129.581526,133.706202 C155.234628,124.260892 172.547759,103.964211 168.92698,86.0121191 C170.66089,84.7365058 171.534195,83.8447309 171.534195,83.8447309 C163.047615,86.4121191 154.872723,87.145741 149.536504,87.3148607 L149.536504,87.3148607 Z M176.120631,18.1903603 C173.039534,29.9253672 151.02799,49.3010666 111.483403,34.0570843 C111.104182,38.0057133 111.648482,41.3374881 112.756707,44.1441259 C103.192494,39.1364492 99.7904737,27.4842129 99.7904737,27.4842129 C96.7746008,40.5483395 112.691483,54.6559294 126.174311,56.4236061 C126.174311,56.4236061 119.604037,51.7356408 117.276765,42.1769109 C136.722075,48.8552946 168.189318,47.7250205 178.778639,27.9554394 C185.202304,33.3614999 191.639822,45.1355256 190.241265,59.6225093 C189.564786,66.5841253 185.303314,75.2184685 178.039245,81.1111091 C189.003747,76.9985551 195.03203,68.0952364 195.719476,57.5362756 C196.719187,42.1025098 189.314281,24.3558435 176.120631,18.1903603 L176.120631,18.1903603 Z" id="path18" fill="#BBBABA"></path>
                        <path d="M161.380083,90.3636341 C162.013849,91.0008635 162.449058,91.7974003 162.589895,92.6909068 C161.799707,91.9584393 160.780371,91.4124075 159.632319,91.1111088 C160.237225,90.8663758 160.822507,90.6135619 161.380083,90.3636341" id="path20" fill="#BBBABA"></path>
                        <path d="M116.869261,83.4129849 C116.952955,80.799998 119.564788,78.6955247 122.781527,78.6955247 C126.01789,78.6955247 128.641267,80.825972 128.698987,83.4632014 C127.406635,81.9105319 125.228857,80.8842693 122.761324,80.8842693 C120.315726,80.8842693 118.16219,81.8839806 116.869261,83.4129849" id="path22" fill="#BBBABA"></path>
                        <path d="M178.039245,81.1111091 C185.303314,75.2184685 189.564786,66.5841253 190.241265,59.6225093 C191.639822,45.1355256 185.202304,33.3614999 178.778639,27.9554394 C168.189318,47.7250205 136.722075,48.8552946 117.276765,42.1769109 C119.604037,51.7356408 126.174311,56.4236061 126.174311,56.4236061 C112.691483,54.6559294 96.7746008,40.5483395 99.7904737,27.4842129 C99.7904737,27.4842129 103.192494,39.1364492 112.756707,44.1441259 C111.648482,41.3374881 111.104182,38.0057133 111.483403,34.0570843 C151.02799,49.3010666 173.039534,29.9253672 176.120631,18.1903603 C189.314281,24.3558435 196.719187,42.1025098 195.719476,57.5362756 C195.03203,68.0952364 189.003747,76.9985551 178.039245,81.1111091" id="path24" fill="#0C1E3D"></path>
                        <path d="M156.971425,72.255698 C156.971425,72.255698 156.539679,70.3347746 158.503315,69.582105 C160.017312,68.9991325 161.391627,69.5838366 161.973445,70.8525235 C162.604902,72.2389592 162.399419,73.7627687 160.395956,74.9085118 C158.645306,75.9174584 152.766519,76.9806619 148.540833,73.5809505 C148.540833,73.5809505 153.130732,73.896102 156.971425,72.255698" id="path26" fill="#0C1E3D"></path>
                        <path d="M129.581526,133.706202 C142.742276,125.366808 151.062045,114.272436 151.439534,100.715149 C146.641266,110.854831 130.845018,125.363922 117.564211,129.945163 C84.0398247,141.51053 58.3907633,132.677053 46.9834332,120.948915 C75.4124079,137.295235 122.353821,130.265509 140.444441,91.9809501 C138.289174,89.7500699 132.951223,90.7994205 130.355552,92.8380929 C106.307068,111.685423 92.0017293,111.201729 78.3757556,98.91082 C78.3757556,98.91082 84.1217872,100.674168 92.2279919,100.232032 C91.6288577,98.3520899 91.2992762,96.3619024 91.2992762,94.2897523 C91.2992762,92.26551 91.6150049,90.3128405 92.1864335,88.4761883 C83.1861451,88.6556976 55.8861169,88.3151493 40.2567955,78.3907628 C40.2567955,78.3907628 51.1404316,79.5878768 62.7290028,76.9864339 C62.7290028,76.9864339 25.789148,69.3321772 9.06724364,43.6988156 C23.050389,51.9194215 41.2713987,54.1125528 41.2713987,54.1125528 C41.2713987,54.1125528 19.7488018,43.8401721 8.10608926,14.6453099 C8.10608926,14.6453099 29.7215577,41.8071562 73.0655104,51.7852801 C73.0655104,51.7852801 69.3950921,55.2906191 60.5956695,59.3217878 C75.4378048,65.820489 88.2903297,64.7705612 88.2903297,64.7705612 C88.2903297,64.7705612 86.3220758,69.5434326 78.9483386,72.1419895 C78.9483386,72.1419895 86.5541104,76.8305897 100.754976,73.3789303 C111.025683,70.8808063 122.902161,63.569984 135.055119,69.2357847 C144.40346,73.5959578 148.0075,81.862047 149.536504,87.3148607 C154.872723,87.145741 163.047615,86.4121191 171.534195,83.8447309 C171.534195,83.8447309 170.66089,84.7365058 168.92698,86.0121191 C172.547759,103.964211 155.234628,124.260892 129.581526,133.706202 Z M128.698987,83.4632014 C128.641267,80.825972 126.01789,78.6955247 122.781527,78.6955247 C119.564788,78.6955247 116.952955,80.799998 116.869261,83.4129849 C118.16219,81.8839806 120.315726,80.8842693 122.761324,80.8842693 C125.228857,80.8842693 127.406635,81.9105319 128.698987,83.4632014 L128.698987,83.4632014 Z M122.405769,71.6594499 C111.627126,71.6594499 102.898122,80.3896084 102.898122,91.1624797 C102.898122,93.5590164 103.337948,95.8580063 104.133908,97.9803727 C111.307934,95.6028836 116.27359,91.9226528 120.416159,88.5425663 C119.749492,86.786145 118.058872,85.5382374 116.069261,85.5382374 C115.421642,85.5382374 114.802883,85.6721479 114.243576,85.9128406 C113.935351,85.1676746 113.760459,84.3746011 113.760459,83.5445867 C113.760459,79.4764771 117.796245,76.1789303 122.778641,76.1789303 C126.708799,76.1789303 130.039246,78.2285695 131.279073,81.0897527 C133.587875,80.2949475 136.087154,80.1621914 139.070126,81.0314554 C135.648481,75.4112535 129.462046,71.6594499 122.405769,71.6594499 L122.405769,71.6594499 Z M161.380083,90.3636341 C160.822507,90.6135619 160.237225,90.8663758 159.632319,91.1111088 C160.780371,91.4124075 161.799707,91.9584393 162.589895,92.6909068 C162.449058,91.7974003 162.013849,91.0008635 161.380083,90.3636341 L161.380083,90.3636341 Z M165.277341,88.3769098 C164.750934,88.6747453 164.181237,88.97893 163.592492,89.2906183 C164.128712,91.0216427 164.045595,92.8311665 163.202305,94.3971116 C162.938524,94.8946585 162.593358,95.3119745 162.218178,95.7044709 C161.695811,94.6406903 160.632031,93.9041824 159.3847,93.8678187 C160.300717,97.7240957 160.297254,101.351801 159.973445,103.946318 C164.023084,100.312263 166.932752,94.3001419 165.277341,88.3769098 L165.277341,88.3769098 Z" id="path28" fill="#0C1E3D"></path>
                        <polyline id="path30" fill="#0C1E3D" points="38.5791044 28.4902735 39.5414132 28.4902735 39.5414132 32.722308 41.0055978 28.4902735 41.8445588 28.4902735 43.2943135 32.722308 43.2943135 28.4902735 44.2550638 28.4902735 44.2550638 33.7346601 42.7655978 33.7346601 41.4186425 29.983549 40.0782097 33.7346601 38.5791044 33.7346601 38.5791044 28.4902735"></polyline>
                        <polyline id="path32" fill="#0C1E3D" points="33.2230872 33.7346601 33.2230872 32.8605475 34.9352949 32.8605475 34.9352949 28.4902735 35.9771997 28.4902735 35.9771997 32.8605475 37.6894074 32.8605475 37.6894074 33.7346601 33.2230872 33.7346601"></polyline>
                    </g>
                </g>
            </g>
        </g>
    </g>
</svg>