<?xml version="1.0" encoding="UTF-8"?>
<svg width="200px" height="200px" viewBox="0 0 200 200" version="1.1" xmlns="http://www.w3.org/2000/svg" xmlns:xlink="http://www.w3.org/1999/xlink">
    <!-- Generator: Sketch 54.1 (76490) - https://sketchapp.com -->
    <title>northwestern-st</title>
    <desc>Created with Sketch.</desc>
    <g id="northwestern-st" stroke="none" stroke-width="1" fill="none" fill-rule="evenodd">
        <g id="northwestern-st_BGL">
            <g id="northwestern-st" transform="translate(2.000000, 27.000000)">
                <g id="g10" transform="translate(97.500000, 73.456441) scale(-1, 1) rotate(-180.000000) translate(-97.500000, -73.456441) translate(0.000000, 0.456441)" fill-rule="nonzero">
                    <g id="g12">
                        <path d="M57.8145004,114.838182 C57.1847664,116.206987 58.443817,117.877931 58.443817,117.877931 C58.443817,117.877931 60.8016678,115.902762 60.8016678,114.079079 C60.8016678,112.252892 61.2753245,109.976836 60.8016678,108.606361 C60.3296803,107.238391 60.4882614,107.087739 59.5442865,106.935 C58.5994769,106.785183 58.5998942,107.846841 57.6567539,109.519872 C56.7111097,111.190399 58.443817,113.470628 57.8145004,114.838182 L57.8145004,114.838182 Z M67.407823,112.557535 C68.0392263,112.557535 68.388522,112.610117 68.388522,112.610117 C68.388522,112.610117 67.5668215,115.293059 68.0392263,114.68586 C68.5103791,114.079079 68.388522,117.324567 68.388522,117.324567 C68.388522,117.324567 71.1849747,115.293059 70.7134046,111.799684 C70.2397479,108.304223 69.454354,106.630775 68.8262894,106.328219 C68.1961381,106.02441 67.7245679,107.392381 67.8814798,107.999163 C67.9561798,108.288365 67.6811668,108.438599 67.4324448,108.482 C67.5772544,109.320394 66.8782456,112.557535 67.407823,112.557535 Z M77.6329662,107.391129 C78.1057883,107.391129 78.1057883,107.391129 78.1057883,107.391129 L78.5773585,112.252892 C78.5773585,112.252892 81.4092833,109.671776 81.2515368,107.543451 C81.095877,105.415542 81.4092833,104.503284 80.7799667,103.744598 C80.1510674,102.985078 81.095877,101.614186 80.1510674,101.614186 C79.2070924,101.614186 78.4216986,102.68294 78.8932688,103.439538 C79.3644216,104.20031 78.1057883,105.110483 78.1057883,105.110483 C78.1057883,105.110483 77.1618134,107.391129 77.6329662,107.391129 L77.6329662,107.391129 Z M81.2515368,121.677201 C81.2515368,121.677201 81.8825227,117.877931 82.1959291,117.118411 C82.5093354,116.358474 81.7235243,115.141572 82.8252457,114.68586 C83.9261325,114.230566 82.0385999,112.10224 82.8252457,111.342303 C83.6114742,110.584452 82.6683339,109.063325 82.1959291,109.063325 C81.7235243,109.063325 79.2070924,112.252892 79.2070924,114.989668 C79.2070924,117.726445 81.2515368,121.677201 81.2515368,121.677201 L81.2515368,121.677201 Z M88.9598308,118.181739 C89.1179946,119.397806 89.5891475,123.348145 90.5335397,123.653622 C90.5335397,123.653622 91.7917557,122.28273 91.9503368,121.067916 C92.1059967,119.852683 92.1059967,116.206987 91.7917557,115.598954 C91.4770973,114.989668 91.7917557,113.014916 90.8469461,112.862595 C89.9025538,112.710274 88.6464245,113.925923 89.1179946,114.68586 C89.5878955,115.446215 88.8033363,116.96609 88.9598308,118.181739 L88.9598308,118.181739 Z M93.3654645,114.838182 C93.8362001,114.989668 93.5215417,118.940842 95.0952506,118.940842 C95.0952506,118.940842 96.1957201,116.206987 96.0413122,114.534791 C95.8818964,112.862595 95.7254019,109.671776 94.7793404,109.366299 C93.8362001,109.063325 92.7357306,109.671776 93.3654645,110.733435 C93.9964504,111.799684 92.8918078,114.68586 93.3654645,114.838182 L93.3654645,114.838182 Z M36.5049547,102.058631 L39.6496599,95.8259757 L37.9305155,92.1310358 L38.0609276,91.8614479 L40.2775994,90.2213853 L41.8887835,86.4872175 L43.1290547,84.9777757 L42.8724037,82.7100657 L43.5017204,82.0678122 L44.358893,80.6368264 C46.8878444,82.5018237 47.8543546,84.7411559 47.8543546,84.7411559 L47.7888355,85.4827313 L45.9931131,85.4827313 L45.9931131,103.772141 L49.6734469,103.772141 C49.9346884,103.916534 50.3461646,104.238704 50.8256638,104.956492 C51.6490337,106.192173 53.3571192,108.208239 52.2170044,112.608448 C53.1922783,114.017733 58.6700037,109.310795 57.9113183,104.911421 C59.2951472,103.56849 60.1907132,104.540425 60.1907132,104.540425 C60.1907132,104.540425 63.983723,108.574645 63.2262895,110.407926 C64.3300975,111.639434 65.1225857,110.592381 65.1225857,110.592381 C65.1225857,110.592381 67.4003113,106.376627 66.2614485,103.990816 L66.1529457,103.772141 L67.1949905,103.772141 C67.1949905,103.772141 67.7471032,102.980905 68.6714641,101.656753 C69.6104312,102.121646 72.1756894,109.166403 73.8528933,109.493164 C74.6170039,109.563691 74.6128307,106.049867 75.899007,104.291703 C77.1856006,102.531036 78.7918603,96.4148124 80.1143433,93.3596221 L81.4288973,92.8705245 L84.2132478,94.1279058 L84.2132478,103.772141 L85.977254,103.772141 C86.4479895,104.272507 86.8690641,105.647989 86.5660907,107.109439 C86.186748,108.940216 84.8600918,110.774332 85.0495545,113.892955 C85.120916,115.046007 85.1643171,115.745015 85.2406864,116.183617 C85.2206551,116.189877 85.2039624,116.196554 85.1835138,116.206987 C84.3977026,116.661447 84.8688555,117.877931 84.7119436,119.397806 C84.5541972,120.917681 84.8688555,122.892433 85.4990067,122.892433 C86.127906,122.892433 84.7119436,124.869272 85.4990067,124.716533 C86.2864871,124.563377 85.9726635,126.389981 85.9726635,126.389981 C85.9726635,126.389981 88.0175252,125.172662 87.8581094,122.739694 C87.7020322,120.310065 87.6431903,117.835782 86.9149691,117.421385 C86.739278,117.324567 86.5957203,117.174332 86.4642649,117.011578 C87.2792884,116.893894 87.8768888,115.543868 87.7078747,113.892955 C87.5159081,112.058839 91.4449638,111.419924 92.420655,109.537399 C93.3996847,107.657796 95.1069355,105.642147 94.7275928,104.540425 C95.9298881,104.706518 96.4356783,107.475428 96.245381,110.774332 C96.055501,114.074906 98.7113173,116.274175 99.471672,116.457378 C100.22994,116.642668 100.611369,114.074906 99.0914947,113.158057 C99.2492411,111.846841 102.019403,109.585391 102.167551,105.138026 C102.167551,105.138026 102.677932,105.429731 102.677932,107.187478 C102.677932,108.948145 101.821594,107.70537 101.821594,111.949084 C101.928427,114.95211 101.928427,115.571828 102.998432,115.674489 C104.071776,115.776314 104.218672,111.433696 106.609074,110.550649 C107.818881,109.982261 108.997389,106.670003 109.533226,105.738964 C109.560352,105.692642 109.627123,105.6338 109.712673,105.569533 C112.870941,106.988834 115.886069,108.343868 118.699632,109.607092 L120.065933,114.620341 L121.468542,116.675219 L125.13886,118.516012 L125.187269,120.348041 L123.516742,121.873341 L121.094624,126.151275 L120.860926,133.03912 L117.140529,140.067602 L117.327071,142.227644 L31.0659564,142.227644 L31.0659564,107.689929 L31.9442872,105.886278 L36.5049547,102.058631 L36.5049547,102.058631 Z" id="path14" fill="#FFFFFF"></path>
                        <path d="M190.461758,9.07797578 L179.912776,13.5278035 L173.318306,17.6471983 L171.341467,20.9285336 L171.728739,25.4267704 L177.072505,28.6864051 L181.711002,34.683442 L184.476573,36.2036924 L184.671044,37.1046835 L183.594779,38.6399573 L184.680642,41.1727481 L184.183198,41.8937913 L183.745848,41.9029723 L181.535311,40.7260501 L175.806777,38.6662066 L173.364211,34.4017519 L170.820236,32.6490133 L167.909438,33.5703695 L165.302448,35.1628578 L164.027122,38.8277507 L167.276782,41.1230037 L163.67407,41.3717674 L162.004378,40.2975055 L157.933434,38.0297956 L151.060194,37.7686376 L147.512985,38.5886271 L144.672297,42.2531028 L145.066246,45.9200823 L151.218776,51.1649439 L153.989772,52.6831494 L156.732808,51.8142919 L163.880225,48.3430348 L170.059464,47.0547719 L169.403021,51.391548 L163.169949,57.3087101 L163.173705,66.1746462 L164.778713,71.1294714 L164.31382,71.7341662 L112.220341,71.7341662 C112.348458,70.158788 113.189773,67.333123 112.744494,61.2423563 C112.389773,56.3434519 111.075636,54.3707863 110.394155,53.6050065 C110.996346,53.6050065 111.442042,53.6050065 111.442042,53.6050065 L111.442042,35.3177247 L90.2409993,35.3177247 C90.2409993,35.3177247 90.1879998,35.3907555 90.0932685,35.527177 C89.706414,36.0662693 88.611787,37.4894096 87.5421992,37.9313501 C86.2151256,38.4810423 85.2381825,36.8931029 84.1014063,36.8931029 C82.9617089,36.8931029 81.8971289,36.7189975 78.9750632,37.0737184 C76.6531019,37.5215014 75.3155954,37.4651217 73.2219074,38.2518092 L73.2219074,35.3177247 L45.9931131,35.3177247 L45.9931131,52.4999465 L45.1810109,54.3707863 L41.0010631,52.4932694 L40.832842,51.9186216 L40.9855806,49.4614489 L40.3120282,47.8493467 L40.2634523,45.9810108 L42.3507553,42.5748555 L39.1761284,33.8611572 L36.6565666,31.3561182 L35.805612,29.254042 L35.1889402,28.5716425 L35.7320805,27.2161913 L36.0540419,26.8269164 L57.7994769,29.3891698 L67.2788716,25.5469164 L83.4950423,22.0895143 L91.4157515,22.5394674 L89.0741762,25.0728841 L96.5967634,31.5163685 L100.497859,31.7649653 C100.497859,31.7649653 101.435157,29.0734265 101.551588,28.7390707 L101.674698,28.5750645 L103.887321,28.1184761 L105.403858,28.7048506 L109.333748,27.4633274 L108.641833,25.3112148 L108.742407,25.242399 L110.061552,24.6977563 L111.644024,22.0689822 L115.27428,20.2883667 L120.280435,19.3256125 L127.560143,9.93168468 L132.65477,8.85675513 L134.078244,7.59603528 L137.937607,7.80223246 L142.273966,12.1664681 L144.978191,12.4765359 L146.351587,11.0827332 L148.950648,12.1790294 L151.654874,11.4615751 L153.930095,7.78967117 L154.693789,7.69577446 L158.326965,9.91344785 L157.132182,10.8786643 L159.329782,18.794324 L163.245066,20.8806255 L166.081999,18.6386641 L167.340215,16.0550439 L181.459359,9.91002583 L182.174226,4.08727794 L189.245692,6.75142393 L190.679599,7.13272804 L191.131138,8.10349484 L190.461758,9.07797578" id="path16" fill="#FFFFFF"></path>
                        <path d="M28.2357009,60.8438169 C28.2925815,60.5324972 28.3924876,60.3517982 28.552112,60.4315061 C28.8706513,60.5817408 29.1071459,60.3881049 29.2646419,60.0413131 L30.7800097,59.9236292 C30.6813973,60.2553976 30.5803227,60.5988509 30.4776205,60.9519025 L28.1970572,61.1288456 C28.2073232,61.0270199 28.218883,60.9285326 28.2357009,60.8438169" id="path18" fill="#FFFFFF"></path>
                        <path d="M18.5395509,68.6981725 C20.1552003,69.464787 31.2866763,74.7434514 32.8116841,75.4674994 C33.4089924,74.3357311 34.8689402,71.5672387 35.4916632,70.3853921 C34.1881682,69.7994766 30.7661547,68.2629091 29.7310373,67.798016 C29.4750958,68.1151783 28.3647776,69.4889915 28.3647776,69.4889915 L25.6644334,65.8332795 C25.751653,65.4543541 25.8162122,65.1693254 25.87881,65.2920171 C25.923004,65.3775675 26.1344177,65.2895132 26.412352,65.1238377 L28.4019607,67.81763 L29.4218042,66.5556582 L30.2301923,66.9187255 C30.2358678,66.923316 30.2399575,66.9304104 30.2445063,66.9345836 C30.4083456,67.0731334 30.6193002,67.170786 30.8668954,67.2279587 C30.8972345,67.2346358 30.9292011,67.2392263 30.9591646,67.2463207 L36.9020752,69.9159085 L33.2720284,76.7995808 L17.1087737,69.1351052 L18.1789458,67.2529978 L9.17854959,68.7503374 L34.6319032,80.1861221 L39.4454242,71.0585272 L50.72509,76.1264457 C50.72509,76.498694 50.72509,76.8671864 50.72509,77.229419 C44.3868534,74.3824708 40.2719239,72.5333315 39.9144069,72.3730811 C39.1702442,73.7840357 35.1010529,81.5002588 35.1010529,81.5002588 L5.73650481,68.3075622 L20.12194,65.9159086 C20.12194,65.9159086 18.8126026,68.218256 18.5395509,68.6981725" id="path20" fill="#FFFFFF"></path>
                        <path d="M22.3153359,61.0971294 L21.8153359,60.6218034 L22.3009414,60.5942604 C22.3070085,60.7465817 22.311886,60.9126745 22.3153359,61.0971294" id="path22" fill="#FFFFFF"></path>
                        <path d="M42.7793417,66.420447 C43.083567,66.5569102 46.0423567,67.8860703 50.72509,69.9893566 C50.72509,70.3582664 50.72509,70.7267588 50.72509,71.0931646 L41.4371612,66.9212294 L45.5603536,57.482732 L20.1066244,46.0473645 L24.7215852,53.6609272 L25.5210009,51.6594666 L42.0031288,58.6595708 L38.8936036,65.7781935 L36.1096287,64.5270719 C36.3582255,64.2695863 36.5968901,64.0083448 36.8262484,63.7450167 C37.4382046,64.0208643 37.9851425,64.2670824 38.3566396,64.4319233 C38.8903485,63.212518 40.1415118,60.3492943 40.6522264,59.1791326 C39.0960867,58.5176824 27.7453514,53.6963993 26.0971094,52.9969731 C26.0229101,53.1822626 25.8463843,53.6242031 25.6527067,54.1095448 L23.1005524,52.9673435 L17.5378191,43.7896703 L46.9024506,56.9836188 C46.9024506,56.9836188 43.4170047,64.9610834 42.7793417,66.420447" id="path24" fill="#FFFFFF"></path>
                        <path d="M110.666247,98.0227414 L110.666247,96.9197681 C125.251536,103.472507 136.384347,108.474906 136.384347,108.474906 L136.384347,115.714134 C136.384347,115.714134 124.014186,110.1567 108.13187,103.021385 L110.589877,103.021385 L135.349397,114.145015 L135.349397,109.112986 L110.666247,98.0227414" id="path26" fill="#FFFFFF"></path>
                        <path d="M106.609074,48.9368793 L106.609074,39.986144 L92.810848,39.986144 L64.6251418,80.3601441 L64.6251418,48.6576931 L68.388522,48.6576931 L68.388522,39.986144 L50.8256638,39.986144 L50.8256638,48.6576931 L54.7818453,48.6576931 L54.7818453,90.1508585 L50.8256638,90.1508585 L50.8256638,99.1027623 L64.6251418,99.1027623 L92.810848,58.7280111 L92.810848,90.4300447 L89.0462158,90.4300447 L89.0462158,99.1027623 L106.609074,99.1027623 L106.609074,90.4300447 L102.65331,90.4300447 L102.65331,48.9368793 L106.609074,48.9368793 Z M109.025349,88.0951465 L109.025349,101.437243 L86.6299405,101.437243 L86.6299405,88.0951465 C86.6299405,88.0951465 89.7748543,88.0951465 90.393738,88.0951465 C90.393738,85.1305143 90.393738,74.3123612 90.393738,66.3645262 C84.1089181,75.3669256 65.9096488,101.437243 65.9096488,101.437243 L48.4093885,101.437243 L48.4093885,87.8167949 C48.4093885,87.8167949 51.6335929,87.8167949 52.3647353,87.8167949 C52.3647353,83.9065185 52.3647353,54.9020331 52.3647353,50.993426 C51.6335929,50.993426 48.4093885,50.993426 48.4093885,50.993426 L48.4093885,37.6509537 L70.805632,37.6509537 L70.805632,50.993426 C70.805632,50.993426 67.6607182,50.993426 67.0409999,50.993426 C67.0409999,53.9563888 67.0409999,64.7757939 67.0409999,72.7244635 C73.3258198,63.7212295 91.5255063,37.6509537 91.5255063,37.6509537 L109.025349,37.6509537 L109.025349,51.2705256 C109.025349,51.2705256 105.80198,51.2705256 105.069585,51.2705256 C105.069585,55.1812193 105.069585,84.1852874 105.069585,88.0951465 C105.80198,88.0951465 109.025349,88.0951465 109.025349,88.0951465 L109.025349,88.0951465 Z" id="path28" fill="#FFFFFF"></path>
                        <path d="M46.0640573,76.9748546 C47.2104318,77.4898259 48.5116315,78.0744894 49.9484599,78.7204988 C50.2030243,78.8344268 50.4621792,78.9504414 50.72509,79.0689599 C50.72509,82.1704726 50.72509,84.7482504 50.72509,86.232653 C50.5331234,86.232653 46.7697432,86.232653 46.7697432,86.232653 L46.7697432,103.021385 L66.781845,103.021385 C66.781845,103.021385 80.6994242,83.0839833 88.7540927,71.5463728 C88.7540927,78.7551363 88.7540927,83.2688555 88.7540927,86.5114219 C88.2512237,86.5114219 84.9898779,86.5114219 84.9898779,86.5114219 L84.9898779,103.021385 L104.04006,103.021385 C105.968072,103.888991 107.865203,104.739486 109.712673,105.569533 C109.627123,105.6338 109.560352,105.692642 109.533226,105.738964 C108.997389,106.670003 107.818881,109.982261 106.609074,110.550649 C104.218672,111.433696 104.071776,115.776314 102.998432,115.674489 C101.928427,115.571828 101.928427,114.95211 101.821594,111.949084 C101.821594,107.70537 102.677932,108.948145 102.677932,107.187478 C102.677932,105.429731 102.167551,105.138026 102.167551,105.138026 C102.019403,109.585391 99.2492411,111.846841 99.0914947,113.158057 C100.611369,114.074906 100.22994,116.642668 99.471672,116.457378 C98.7113173,116.274175 96.055501,114.074906 96.245381,110.774332 C96.4356783,107.475428 95.9298881,104.706518 94.7275928,104.540425 C95.1069355,105.642147 93.3996847,107.657796 92.420655,109.537399 C91.4449638,111.419924 87.5159081,112.058839 87.7078747,113.892955 C87.8768888,115.543868 87.2792884,116.893894 86.4642649,117.011578 C86.5957203,117.174332 86.739278,117.324567 86.9149691,117.421385 C87.6431903,117.835782 87.7020322,120.310065 87.8581094,122.739694 C88.0175252,125.172662 85.9726635,126.389981 85.9726635,126.389981 C85.9726635,126.389981 86.2864871,124.563377 85.4990067,124.716533 C84.7119436,124.869272 86.127906,122.892433 85.4990067,122.892433 C84.8688555,122.892433 84.5541972,120.917681 84.7119436,119.397806 C84.8688555,117.877931 84.3977026,116.661447 85.1835138,116.206987 C85.2039624,116.196554 85.2206551,116.189877 85.2406864,116.183617 C85.1643171,115.745015 85.120916,115.046007 85.0495545,113.892955 C84.8600918,110.774332 86.186748,108.940216 86.5660907,107.109439 C86.8690641,105.647989 86.4479895,104.272507 85.977254,103.772141 L84.2132478,103.772141 L84.2132478,94.1279058 L81.4288973,92.8705245 L80.1143433,93.3596221 C78.7918603,96.4148124 77.1856006,102.531036 75.899007,104.291703 C74.6128307,106.049867 74.6170039,109.563691 73.8528933,109.493164 C72.1756894,109.166403 69.6104312,102.121646 68.6714641,101.656753 C67.7471032,102.980905 67.1949905,103.772141 67.1949905,103.772141 L66.1529457,103.772141 L66.2614485,103.990816 C67.4003113,106.376627 65.1225857,110.592381 65.1225857,110.592381 C65.1225857,110.592381 64.3300975,111.639434 63.2262895,110.407926 C63.983723,108.574645 60.1907132,104.540425 60.1907132,104.540425 C60.1907132,104.540425 59.2951472,103.56849 57.9113183,104.911421 C58.6700037,109.310795 53.1922783,114.017733 52.2170044,112.608448 C53.3571192,108.208239 51.6490337,106.192173 50.8256638,104.956492 C50.3461646,104.238704 49.9346884,103.916534 49.6734469,103.772141 L45.9931131,103.772141 L45.9931131,85.4827313 L47.7888355,85.4827313 L47.8543546,84.7411559 C47.8543546,84.7411559 46.8878444,82.5018237 44.358893,80.6368264 L45.8520594,78.1450163 L46.0640573,76.9748546" id="path30" fill="#F4731C"></path>
                        <path d="M23.8336144,85.5040146 C24.6200098,85.8128304 24.7770051,88.0901386 25.249243,89.4581094 C25.7226493,90.8260801 22.7327694,93.2586309 22.7327694,93.2586309 C22.1025764,92.801667 20.6884085,89.4581094 21.1588936,87.3297839 C21.6312984,85.2018758 23.0460923,85.2018758 23.8336144,85.5040146" id="path32" fill="#F4731C"></path>
                        <path d="M10.618007,83.6840876 C9.36196116,83.5326009 8.26032322,77.6029193 8.26032322,76.6898259 C8.26032322,75.7792365 9.67444942,73.955971 10.934585,74.1070404 C12.1927175,74.2597791 11.4056961,77.4501806 12.3501718,79.1244633 C13.2940633,80.7945728 10.618007,83.6840876 10.618007,83.6840876" id="path34" fill="#F4731C"></path>
                        <path d="M33.2707347,83.378193 C33.2707347,83.378193 32.3281786,85.8128304 31.5411573,86.4183599 C30.7549288,87.0259759 27.9251323,90.0665601 27.4517677,90.8260801 C26.9785283,91.5847656 24.9339587,82.9254022 23.9907767,82.9254022 C23.0460923,82.9254022 24.3050594,78.513926 23.5194986,78.3624394 C22.7327694,78.2097007 22.7327694,78.972142 22.2600307,79.2742808 C21.7887527,79.5793407 22.2600307,83.378193 22.2600307,83.8318185 C22.2600307,84.290869 21.0018983,87.4821053 20.0585076,87.4821053 C19.1138649,87.4821053 18.1699735,81.5532583 17.3849135,81.4034408 C16.5963898,81.2486156 17.5415749,79.5793407 17.0691702,79.1244633 C16.5963898,78.6654127 16.1246527,80.0329662 14.5509021,79.5793407 C12.9794467,79.1244633 11.5634843,75.0184645 12.036223,73.1926951 C12.0422741,73.167656 12.0540007,73.0887827 12.0673549,72.9911302 L33.4220127,82.5848701 L33.2707347,83.378193" id="path36" fill="#F4731C"></path>
                        <path d="M10.4634322,72.4348443 C9.83257148,72.2858615 7.9429106,77.6029193 6.05550324,77.1472073 C4.16845895,76.6898259 5.8987166,75.0184645 4.80012508,74.4100138 C3.69636715,73.8023977 4.01082515,72.1302016 3.53905886,71.9791323 C3.06810634,71.8280629 4.32592582,69.8520588 3.53905886,69.3950948 C3.43326022,69.3341662 3.36691489,69.1889393 3.33529047,69.0687515 L10.8479914,72.4427734 C10.684319,72.4498678 10.5213143,72.4486158 10.4634322,72.4348443" id="path38" fill="#F4731C"></path>
                        <path d="M57.6567539,109.519872 C58.5998942,107.846841 58.5994769,106.785183 59.5442865,106.935 C60.4882614,107.087739 60.3296803,107.238391 60.8016678,108.606361 C61.2753245,109.976836 60.8016678,112.252892 60.8016678,114.079079 C60.8016678,115.902762 58.443817,117.877931 58.443817,117.877931 C58.443817,117.877931 57.1847664,116.206987 57.8145004,114.838182 C58.443817,113.470628 56.7111097,111.190399 57.6567539,109.519872" id="path40" fill="#F4731C"></path>
                        <path d="M67.4324448,108.482 C67.6811668,108.438599 67.9561798,108.288365 67.8814798,107.999163 C67.7245679,107.392381 68.1961381,106.02441 68.8262894,106.328219 C69.454354,106.630775 70.2397479,108.304223 70.7134046,111.799684 C71.1849747,115.293059 68.388522,117.324567 68.388522,117.324567 C68.388522,117.324567 68.5103791,114.079079 68.0392263,114.68586 C67.5668215,115.293059 68.388522,112.610117 68.388522,112.610117 C68.388522,112.610117 68.0392263,112.557535 67.407823,112.557535 C66.8782456,112.557535 67.5772544,109.320394 67.4324448,108.482" id="path42" fill="#F4731C"></path>
                        <path d="M78.8932688,103.439538 C78.4216986,102.68294 79.2070924,101.614186 80.1510674,101.614186 C81.095877,101.614186 80.1510674,102.985078 80.7799667,103.744598 C81.4092833,104.503284 81.095877,105.415542 81.2515368,107.543451 C81.4092833,109.671776 78.5773585,112.252892 78.5773585,112.252892 L78.1057883,107.391129 C78.1057883,107.391129 78.1057883,107.391129 77.6329662,107.391129 C77.1618134,107.391129 78.1057883,105.110483 78.1057883,105.110483 C78.1057883,105.110483 79.3644216,104.20031 78.8932688,103.439538" id="path44" fill="#F4731C"></path>
                        <path d="M82.1959291,109.063325 C82.6683339,109.063325 83.6114742,110.584452 82.8252457,111.342303 C82.0385999,112.10224 83.9261325,114.230566 82.8252457,114.68586 C81.7235243,115.141572 82.5093354,116.358474 82.1959291,117.118411 C81.8825227,117.877931 81.2515368,121.677201 81.2515368,121.677201 C81.2515368,121.677201 79.2070924,117.726445 79.2070924,114.989668 C79.2070924,112.252892 81.7235243,109.063325 82.1959291,109.063325" id="path46" fill="#F4731C"></path>
                        <path d="M89.1179946,114.68586 C88.6464245,113.925923 89.9025538,112.710274 90.8469461,112.862595 C91.7917557,113.014916 91.4770973,114.989668 91.7917557,115.598954 C92.1059967,116.206987 92.1059967,119.852683 91.9503368,121.067916 C91.7917557,122.28273 90.5335397,123.653622 90.5335397,123.653622 C89.5891475,123.348145 89.1179946,119.397806 88.9598308,118.181739 C88.8033363,116.96609 89.5878955,115.446215 89.1179946,114.68586" id="path48" fill="#F4731C"></path>
                        <path d="M94.7793404,109.366299 C95.7254019,109.671776 95.8818964,112.862595 96.0413122,114.534791 C96.1957201,116.206987 95.0952506,118.940842 95.0952506,118.940842 C93.5215417,118.940842 93.8362001,114.989668 93.3654645,114.838182 C92.8918078,114.68586 93.9964504,111.799684 93.3654645,110.733435 C92.7357306,109.671776 93.8362001,109.063325 94.7793404,109.366299" id="path50" fill="#F4731C"></path>
                        <path d="M122.303179,100.309648 C118.789355,98.7300966 114.85404,96.9623346 110.666247,95.0802271 L110.666247,86.5114219 C110.666247,86.5114219 106.899111,86.5114219 106.710065,86.5114219 C106.710065,80.7549276 106.710065,58.6115791 106.710065,52.8550848 C106.899111,52.8550848 110.666247,52.8550848 110.666247,52.8550848 L110.666247,36.0662693 L90.6533102,36.0662693 C90.6533102,36.0662693 76.735731,56.0033371 68.6810624,67.5417823 C68.6810624,60.3334362 68.6810624,55.8180476 68.6810624,52.5779851 C69.1839315,52.5779851 72.4456946,52.5779851 72.4456946,52.5779851 L72.4456946,36.0662693 L46.7697432,36.0662693 L46.7697432,52.5779851 C46.7697432,52.5779851 50.5331234,52.5779851 50.72509,52.5779851 C50.72509,55.2822104 50.72509,61.6087622 50.72509,68.1506504 C50.4584234,68.0317145 50.1992684,67.9148653 49.9484599,67.8026065 C48.660197,67.2233682 47.5818454,66.7388611 46.756389,66.3691168 L45.995617,63.3489812 C47.3393833,60.271673 49.1401135,56.149816 49.1401135,56.149816 L45.1810109,54.3707863 L45.9931131,52.4999465 L45.9931131,35.3177247 L73.2219074,35.3177247 L73.2219074,38.2518092 C75.3155954,37.4651217 76.6531019,37.5215014 78.9750632,37.0737184 C81.8971289,36.7189975 82.9617089,36.8931029 84.1014063,36.8931029 C85.2381825,36.8931029 86.2151256,38.4810423 87.5421992,37.9313501 C88.611787,37.4894096 89.706414,36.0662693 90.0932685,35.527177 C90.1879998,35.3907555 90.2409993,35.3177247 90.2409993,35.3177247 L111.442042,35.3177247 L111.442042,53.6050065 C111.442042,53.6050065 110.996346,53.6050065 110.394155,53.6050065 C111.075636,54.3707863 112.389773,56.3434519 112.744494,61.2423563 C113.189773,67.333123 112.348458,70.158788 112.220341,71.7341662 C112.202397,71.9482507 112.197389,72.1414692 112.21116,72.3134046 L112.890555,73.9705772 C112.964421,74.2280628 113.005318,74.4492417 113.028688,74.652476 C113.240686,76.3956162 111.832652,76.2937905 112.317994,77.0762631 C112.9615,78.1095442 114.566925,77.0762631 115.317264,79.9728723 C115.960352,84.3192467 114.996346,83.1808013 114.782261,84.7328096 C114.566925,86.2856525 117.35211,87.6285841 117.993946,89.698485 C118.636199,91.7696378 118.318203,93.7372955 118.102031,95.1833049 C119.386538,96.8400602 120.138129,97.6688551 121.743555,98.4963982 C122.997597,99.1453288 122.558161,99.9749584 122.303179,100.309648" id="path52" fill="#F4731C"></path>
                        <path d="M36.8262484,63.7450167 C36.5968901,64.0083448 36.3582255,64.2695863 36.1096287,64.5270719 C35.5847252,65.0700036 35.0236402,65.5895654 34.4424822,66.0281674 C34.409055,66.0532065 34.3769631,66.0749071 34.3471249,66.0999462 C33.2707347,66.8924344 32.1377978,67.3948862 31.0702131,67.2692732 C31.0305678,67.2642654 30.995513,67.2542498 30.9591646,67.2463207 C30.9292011,67.2392263 30.8972345,67.2346358 30.8668954,67.2279587 C30.6193002,67.170786 30.4083456,67.0731334 30.2445063,66.9345836 C30.2399575,66.9304104 30.2358678,66.923316 30.2301923,66.9187255 C29.594741,66.3670302 29.5468329,65.2469467 29.7512356,63.9419911 C29.7677197,63.8460078 29.7848297,63.7475206 29.8034004,63.6536239 C29.9603957,62.7810104 30.217631,61.8445472 30.4776205,60.9519025 C30.5803227,60.5988509 30.6813973,60.2553976 30.7800097,59.9236292 C30.9629205,59.3051628 31.129681,58.730515 31.2408547,58.2497638 C31.2413555,58.2439213 31.2434838,58.2384962 31.2451114,58.2322364 C31.4179231,57.4789761 31.459488,56.9423043 31.2262068,56.7816366 C30.9192272,56.5713079 30.6745532,56.4477816 30.4818772,56.3868531 C30.0102653,56.2345317 29.8324041,56.4348447 29.4969215,56.3263418 C29.0841933,56.1936345 29.3922997,57.455189 29.4768902,58.3824712 C29.4886169,58.5151785 29.4969215,58.6424607 29.4969215,58.756806 C29.4969215,59.2112661 29.4195089,59.6999463 29.2646419,60.0413131 C29.1071459,60.3881049 28.8706513,60.5817408 28.552112,60.4315061 C28.3924876,60.3517982 28.2925815,60.5324972 28.2357009,60.8438169 C28.218883,60.9285326 28.2073232,61.0270199 28.1970572,61.1288456 C28.0958157,62.1170564 28.2384552,63.7725597 28.2384552,63.7725597 C28.2384552,63.7725597 27.111027,64.7035978 26.412352,65.1238377 C26.1344177,65.2895132 25.923004,65.3775675 25.87881,65.2920171 C25.8162122,65.1693254 25.751653,65.4543541 25.6644334,65.8332795 C25.5400724,66.3782978 25.3700567,67.1156999 25.0914548,67.1156999 C25.008158,67.1156999 24.9259879,67.1661955 24.8425242,67.2417302 C24.7952419,67.2851313 24.7479597,67.3402174 24.7003854,67.3994767 C24.3485857,67.8380786 23.9751272,68.635992 23.5194986,68.635992 C23.0912462,68.635992 22.5974747,68.635992 22.3208341,68.635992 C22.1894621,68.635992 22.1025764,68.635992 22.1025764,68.635992 C22.1033693,68.5996853 22.104037,68.5675518 22.104037,68.5333316 C22.1211471,67.3948862 22.1342091,66.5110051 22.1431398,65.8266024 C22.162086,64.3588925 22.1668017,63.7884178 22.1684293,63.5618137 C22.1744387,62.6483031 22.1751064,61.773603 22.166134,61.0971294 C22.1637136,60.9126745 22.1602916,60.7465817 22.1560349,60.5942604 C22.145435,60.195721 22.1286588,59.9165348 22.1025764,59.822638 C22.0583823,59.6465295 21.8805628,59.3293673 21.6516635,58.9708905 C21.0900777,58.0845056 20.2145431,56.9352098 20.2145431,56.9352098 C20.2145431,56.9352098 19.7427642,51.9186216 19.7427642,51.4629095 L20.3429938,51.7308281 L23.1005524,52.9673435 L25.6527067,54.1095448 L39.4079489,60.2758462 C39.4079489,60.2758462 39.0541879,60.852998 38.465685,61.6705253 C38.0272082,62.2818972 37.4656224,63.013457 36.8262484,63.7450167" id="path54" fill="#F4731C"></path>
                        <path d="M31.2408547,58.2497638 C31.129681,58.730515 30.9629205,59.3051628 30.7800097,59.9236292 L29.2646419,60.0413131 C29.4195089,59.6999463 29.4969215,59.2112661 29.4969215,58.756806 C29.4969215,58.6424607 29.4886169,58.5151785 29.4768902,58.3824712 L31.2408547,58.2497638" id="path56" fill="#432C91"></path>
                        <path d="M26.0971094,52.9969731 C27.7453514,53.6963993 39.0960867,58.5176824 40.6522264,59.1791326 C40.1415118,60.3492943 38.8903485,63.212518 38.3566396,64.4319233 C37.9851425,64.2670824 37.4382046,64.0208643 36.8262484,63.7450167 C37.4656224,63.013457 38.0272082,62.2818972 38.465685,61.6705253 C39.0541879,60.852998 39.4079489,60.2758462 39.4079489,60.2758462 L25.6527067,54.1095448 C25.8463843,53.6242031 26.0229101,53.1822626 26.0971094,52.9969731" id="path58" fill="#432C91"></path>
                        <path d="M29.4218042,66.5556582 L28.4019607,67.81763 L26.412352,65.1238377 C27.111027,64.7035978 28.2384552,63.7725597 28.2384552,63.7725597 C28.2384552,63.7725597 28.0958157,62.1170564 28.1970572,61.1288456 L30.4776205,60.9519025 C30.217631,61.8445472 29.9603957,62.7810104 29.8034004,63.6536239 C29.7848297,63.7475206 29.7677197,63.8460078 29.7512356,63.9419911 C29.5468329,65.2469467 29.594741,66.3670302 30.2301923,66.9187255 L29.4218042,66.5556582" id="path60" fill="#432C91"></path>
                        <polyline id="path62" fill="#432C91" points="92.810848 58.7280111 64.6251418 99.1027623 50.8256638 99.1027623 50.8256638 90.1508585 54.7818453 90.1508585 54.7818453 48.6576931 50.8256638 48.6576931 50.8256638 39.986144 68.388522 39.986144 68.388522 48.6576931 64.6251418 48.6576931 64.6251418 80.3601441 92.810848 39.986144 106.609074 39.986144 106.609074 48.9368793 102.65331 48.9368793 102.65331 90.4300447 106.609074 90.4300447 106.609074 99.1027623 89.0462158 99.1027623 89.0462158 90.4300447 92.810848 90.4300447 92.810848 58.7280111"></polyline>
                        <path d="M167.037659,44.0279593 L162.861133,44.3543025 C162.861133,44.3543025 160.554613,42.8715691 160.410638,42.7776724 C160.275844,42.7042243 157.961811,41.4138331 157.070836,40.9159719 C155.966193,40.8747408 152.007925,40.7249233 151.358577,40.7006354 C150.937085,40.7971612 150.149605,40.9801972 149.277409,41.1805519 C148.754091,41.8570673 148.352213,42.3745425 147.798431,43.0889921 C147.862698,43.6865925 147.883982,43.8894094 147.947831,44.4857579 C149.187685,45.5424089 152.612203,48.4607187 152.981113,48.7757943 C153.219401,48.9072497 153.667602,49.1522158 154.317784,49.507354 C154.942093,49.3103796 155.396136,49.1659873 155.57767,49.1088146 C155.957012,48.9235251 162.868228,45.5687 162.868228,45.5687 C162.868228,45.5687 166.145849,44.8863839 168.71069,44.3505466 L167.037659,44.0279593 Z M192.484085,11.4077827 C192.484085,11.4077827 181.776939,15.9252578 181.345848,16.1063741 C180.994883,16.3246736 176.531242,19.1153256 175.565149,19.7170157 C175.223783,20.2825243 174.847361,20.9122165 174.429625,21.6037553 C174.488885,22.2957532 174.534372,22.8035466 174.613246,23.7358367 C176.090971,24.6381214 179.158681,26.5085439 179.158681,26.5085439 C179.158681,26.5085439 183.114028,31.6239533 183.751273,32.4481578 C184.457794,32.8354713 187.157429,34.3177874 187.157429,34.3177874 L187.889823,37.7205624 C187.889823,37.7205624 187.050595,38.9144696 187.008446,38.9754398 C187.235885,39.5034732 188.086798,41.4932071 188.086798,41.4932071 L185.820757,44.7833061 L182.994257,44.8350537 C182.994257,44.8350537 180.597179,43.5584757 180.272922,43.3865404 C179.884816,43.2471559 173.703908,41.0237235 173.703908,41.0237235 C173.703908,41.0237235 171.548457,37.2593835 171.053517,36.3947409 C170.798535,36.2182151 170.681269,36.1373387 170.308603,35.8806042 C169.75816,36.0547096 169.443919,36.1556172 169.206882,36.2299417 C168.911837,36.4097643 168.451952,36.6914545 167.823887,37.0750121 C167.734164,37.3350434 167.707873,37.4080742 167.595614,37.7344174 L169.645484,39.2113501 L170.945431,41.5812613 L170.165463,44.0484079 L173.650074,43.3443912 C173.574122,43.854772 172.244127,52.7849752 172.244127,52.7849752 C172.244127,52.7849752 167.512568,57.2786631 166.190919,58.5314539 C166.192171,60.2441299 166.193423,65.0399566 166.193423,65.7281152 C166.423366,66.438809 168.121018,71.6757416 168.121018,71.6757416 L165.832025,74.652476 C165.832025,74.652476 122.642042,74.652476 113.028688,74.652476 C113.005318,74.4492417 112.964421,74.2280628 112.890555,73.9705772 L112.21116,72.3134046 C112.197389,72.1414692 112.202397,71.9482507 112.220341,71.7341662 L164.31382,71.7341662 L164.778713,71.1294714 L163.173705,66.1746462 L163.169949,57.3087101 L169.403021,51.391548 L170.059464,47.0547719 L163.880225,48.3430348 L156.732808,51.8142919 L153.989772,52.6831494 L151.218776,51.1649439 L145.066246,45.9200823 L144.672297,42.2531028 L147.512985,38.5886271 L151.060194,37.7686376 L157.933434,38.0297956 L162.004378,40.2975055 L163.67407,41.3717674 L167.276782,41.1230037 L164.027122,38.8277507 L165.302448,35.1628578 L167.909438,33.5703695 L170.820236,32.6490133 L173.364211,34.4017519 L175.806777,38.6662066 L181.535311,40.7260501 L183.745848,41.9029723 L184.183198,41.8937913 L184.680642,41.1727481 L183.594779,38.6399573 L184.671044,37.1046835 L184.476573,36.2036924 L181.711002,34.683442 L177.072505,28.6864051 L171.728739,25.4267704 L171.341467,20.9285336 L173.318306,17.6471983 L179.912776,13.5278035 L190.461758,9.07797578 L191.131138,8.10349484 L190.679599,7.13272804 L189.245692,6.75142393 L182.174226,4.08727794 L181.459359,9.91002583 L167.340215,16.0550439 L166.081999,18.6386641 L163.245066,20.8806255 L159.329782,18.794324 L157.132182,10.8786643 L158.326965,9.91344785 L154.693789,7.69577446 L153.930095,7.78967117 L151.654874,11.4615751 L148.950648,12.1790294 L146.351587,11.0827332 L144.978191,12.4765359 L142.273966,12.1664681 L137.937607,7.80223246 L134.078244,7.59603528 L132.65477,8.85675513 L127.560143,9.93168468 L120.280435,19.3256125 L115.27428,20.2883667 L111.644024,22.0689822 L110.061552,24.6977563 L108.742407,25.242399 L108.641833,25.3112148 L109.333748,27.4633274 L105.403858,28.7048506 L103.887321,28.1184761 L101.674698,28.5750645 L101.551588,28.7390707 C101.435157,29.0734265 100.497859,31.7649653 100.497859,31.7649653 L96.5967634,31.5163685 L89.0741762,25.0728841 L91.4157515,22.5394674 L83.4950423,22.0895143 L67.2788716,25.5469164 L57.7994769,29.3891698 L36.0540419,26.8269164 L35.7320805,27.2161913 L35.1889402,28.5716425 L35.805612,29.254042 L36.6565666,31.3561182 L39.1761284,33.8611572 L42.3507553,42.5748555 L40.2634523,45.9810108 L40.3120282,47.8493467 L40.9855806,49.4614489 L40.832842,51.9186216 L41.0010631,52.4932694 L37.8587784,51.0802282 C37.8850277,50.6658308 37.9116109,50.2330713 37.9298895,49.944704 C37.7327899,49.47063 37.305998,48.4494511 37.305998,48.4494511 L37.2223674,45.2160656 C37.2223674,45.2160656 38.4156485,43.2676046 39.0338227,42.2597799 C38.4094722,40.5449755 36.8689819,36.3158676 36.5471874,35.4365354 C35.9313084,34.8227847 34.0661024,32.9681786 34.0661024,32.9681786 C34.0661024,32.9681786 33.4143341,31.3582465 33.1838489,30.7906096 C33.0505156,30.644089 31.7115068,29.1601453 31.7115068,29.1601453 L33.0837759,25.744809 L34.7464989,23.7333745 C34.7464989,23.7333745 55.8935823,26.2239326 57.3696386,26.3975372 C58.6253506,25.889243 66.361605,22.7534684 66.361605,22.7534684 L83.2529974,19.151674 L93.5399038,19.7354194 L96.5283231,21.3862905 C95.2225328,22.79929 93.3950942,24.7787996 93.3454332,24.832592 C95.2329658,26.4492012 96.9998932,27.9628162 97.8266016,28.6702966 C98.0402688,28.6839847 98.111213,28.6885335 98.3762104,28.7048506 C98.5059965,28.3313921 98.8348436,27.3857061 98.8348436,27.3857061 L99.9111086,25.9555966 L104.154823,25.0787266 C104.154823,25.0787266 105.287426,25.5169112 105.50777,25.6008757 C105.529888,25.5949915 105.541155,25.5904428 105.56536,25.5837657 C105.518203,25.4347411 105.463951,25.2702758 105.410952,25.107605 L106.230983,23.3719765 L107.276367,22.6733015 C107.276367,22.6733015 107.785913,22.4651012 107.95451,22.3950333 C108.421072,21.6166087 109.481896,19.8568592 109.481896,19.8568592 L114.27814,17.504058 C114.27814,17.504058 117.197702,16.9423053 118.556074,16.6818149 C119.691598,15.2155239 125.815333,7.31221682 125.815333,7.31221682 C125.815333,7.31221682 130.079496,6.41122571 131.213768,6.17339578 C131.615646,5.81817409 132.973601,4.613834 132.973601,4.613834 L139.292224,4.95273853 C139.292224,4.95273853 142.679183,8.35972853 143.704117,9.39129867 C143.766298,9.39926946 143.768385,9.39926946 143.833486,9.40628041 C143.954091,9.2837139 145.622949,7.58931645 145.622949,7.58931645 C145.622949,7.58931645 148.420654,8.77087093 149.181008,9.09249847 C149.420132,9.0287739 149.438911,9.02401647 149.686381,8.95766279 C150.344493,7.89725593 152.093476,5.07417828 152.093476,5.07417828 L155.389876,4.66858622 L161.618775,8.47240459 L161.20563,11.3903388 C160.910585,11.629838 160.667289,11.8243085 160.549187,11.9203336 C161.029104,13.6471567 161.562437,15.5747936 161.914237,16.8388102 C162.323209,17.0587372 162.417523,17.1066454 162.913715,17.3725191 C163.271775,17.0883668 163.420758,16.9719766 163.63985,16.797913 C163.984555,16.0921853 165.08419,13.8370367 165.08419,13.8370367 C165.08419,13.8370367 176.195718,9.00118913 178.661654,7.92692729 C178.868644,6.23465816 179.633172,0 179.633172,0 C179.633172,0 189.918409,3.87193731 190.196761,3.97822004 C190.437971,4.04130611 192.852995,4.68356796 192.852995,4.68356796 L194.568592,8.37817402 L192.484085,11.4077827 L192.484085,11.4077827 Z" id="path64" fill="#432C91"></path>
                        <path d="M136.384347,108.474906 C136.384347,108.474906 125.251536,103.472507 110.666247,96.9197681 L110.666247,98.0227414 L135.349397,109.112986 L135.349397,114.145015 L110.589877,103.021385 L108.13187,103.021385 C124.014186,110.1567 136.384347,115.714134 136.384347,115.714134 L136.384347,108.474906 Z M109.025349,88.0951465 C109.025349,88.0951465 105.80198,88.0951465 105.069585,88.0951465 C105.069585,84.1852874 105.069585,55.1812193 105.069585,51.2705256 C105.80198,51.2705256 109.025349,51.2705256 109.025349,51.2705256 L109.025349,37.6509537 L91.5255063,37.6509537 C91.5255063,37.6509537 73.3258198,63.7212295 67.0409999,72.7244635 C67.0409999,64.7757939 67.0409999,53.9563888 67.0409999,50.993426 C67.6607182,50.993426 70.805632,50.993426 70.805632,50.993426 L70.805632,37.6509537 L48.4093885,37.6509537 L48.4093885,50.993426 C48.4093885,50.993426 51.6335929,50.993426 52.3647353,50.993426 C52.3647353,54.9020331 52.3647353,83.9065185 52.3647353,87.8167949 C51.6335929,87.8167949 48.4093885,87.8167949 48.4093885,87.8167949 L48.4093885,101.437243 L65.9096488,101.437243 C65.9096488,101.437243 84.1089181,75.3669256 90.393738,66.3645262 C90.393738,74.3123612 90.393738,85.1305143 90.393738,88.0951465 C89.7748543,88.0951465 86.6299405,88.0951465 86.6299405,88.0951465 L86.6299405,101.437243 L109.025349,101.437243 L109.025349,88.0951465 Z M32.0463216,73.2465292 C32.5386325,72.3134046 32.6380795,72.1235245 33.1417832,71.1686993 C31.8298584,70.5802799 31.3781108,70.3762111 30.2476362,69.8679169 C29.8806878,70.3227943 29.2560034,71.0952512 28.7729988,71.6953555 C30.269295,72.4027108 31.2063007,72.8467379 32.0463216,73.2465292 Z M122.258109,111.20584 C121.115907,110.69379 119.925714,110.15837 118.699632,109.607092 C115.886069,108.343868 112.870941,106.988834 109.712673,105.569533 C107.865203,104.739486 105.968072,103.888991 104.04006,103.021385 L84.9898779,103.021385 L84.9898779,86.5114219 C84.9898779,86.5114219 88.2512237,86.5114219 88.7540927,86.5114219 C88.7540927,83.2688555 88.7540927,78.7551363 88.7540927,71.5463728 C80.6994242,83.0839833 66.781845,103.021385 66.781845,103.021385 L46.7697432,103.021385 L46.7697432,86.232653 C46.7697432,86.232653 50.5331234,86.232653 50.72509,86.232653 C50.72509,84.7482504 50.72509,82.1704726 50.72509,79.0689599 C50.4621792,78.9504414 50.2030243,78.8344268 49.9484599,78.7204988 C48.5116315,78.0744894 47.2104318,77.4898259 46.0640573,76.9748546 C44.9710996,76.4836705 44.0200302,76.0571708 43.2292112,75.7007806 C41.9246729,75.1148651 41.0480115,74.7213336 40.6962535,74.5640044 C39.3402598,77.1346877 35.8827325,83.6907647 35.8827325,83.6907647 L33.4220127,82.5848701 L12.0673549,72.9911302 L10.8479914,72.4427734 L3.33529047,69.0687515 L0,67.5689081 C0,67.5689081 20.5961393,64.144808 22.1112149,63.8939994 C21.9605628,63.687844 18.6417523,59.195408 18.6417523,59.195408 L21.6516635,58.9708905 C21.8805628,59.3293673 22.0583823,59.6465295 22.1025764,59.822638 C22.1286588,59.9165348 22.145435,60.195721 22.1560349,60.5942604 L21.8153359,60.6218034 L22.166134,61.0971294 C22.1751064,61.773603 22.1744387,62.6483031 22.1684293,63.5618137 C22.1668017,63.7884178 22.162086,64.3588925 22.1431398,65.8266024 C21.663724,66.666665 21.184976,67.5083969 20.9218565,67.970786 C21.3186432,68.1598314 21.7064575,68.3430343 22.104037,68.5333316 C22.104037,68.5675518 22.1033693,68.5996853 22.1025764,68.635992 C22.1025764,68.635992 22.1894621,68.635992 22.3208341,68.635992 C23.6127276,69.2473639 25.0588622,69.932184 27.388836,71.0380786 C27.0160035,70.5343749 25.8543551,68.9610833 24.7003854,67.3994767 C24.7479597,67.3402174 24.7952419,67.2851313 24.8425242,67.2417302 C24.9259879,67.1661955 25.008158,67.1156999 25.0914548,67.1156999 C25.3700567,67.1156999 25.5400724,66.3782978 25.6644334,65.8332795 L28.3647776,69.4889915 C28.3647776,69.4889915 29.4750958,68.1151783 29.7310373,67.798016 C30.7661547,68.2629091 34.1881682,69.7994766 35.4916632,70.3853921 C34.8689402,71.5672387 33.4089924,74.3357311 32.8116841,75.4674994 C31.2866763,74.7434514 20.1552003,69.464787 18.5395509,68.6981725 C18.8126026,68.218256 20.12194,65.9159086 20.12194,65.9159086 L5.73650481,68.3075622 L35.1010529,81.5002588 C35.1010529,81.5002588 39.1702442,73.7840357 39.9144069,72.3730811 C40.2719239,72.5333315 44.3868534,74.3824708 50.72509,77.229419 C50.72509,76.8671864 50.72509,76.498694 50.72509,76.1264457 L39.4454242,71.0585272 L34.6319032,80.1861221 L9.17854959,68.7503374 L18.1789458,67.2529978 L17.1087737,69.1351052 L33.2720284,76.7995808 L36.9020752,69.9159085 L30.9591646,67.2463207 C30.995513,67.2542498 31.0305678,67.2642654 31.0702131,67.2692732 C32.1377978,67.3948862 33.2707347,66.8924344 34.3471249,66.0999462 C34.3769631,66.0749071 34.409055,66.0532065 34.4424822,66.0281674 C35.0236402,65.5895654 35.5847252,65.0700036 36.1096287,64.5270719 L38.8936036,65.7781935 L42.0031288,58.6595708 L25.5210009,51.6594666 L24.7215852,53.6609272 L20.1066244,46.0473645 L45.5603536,57.482732 L41.4371612,66.9212294 L50.72509,71.0931646 C50.72509,70.7267588 50.72509,70.3582664 50.72509,69.9893566 C46.0423567,67.8860703 43.083567,66.5569102 42.7793417,66.420447 C43.4170047,64.9610834 46.9024506,56.9836188 46.9024506,56.9836188 L17.5378191,43.7896703 L23.1005524,52.9673435 L20.3429938,51.7308281 L13.2562125,40.027542 L37.8587784,51.0802282 L41.0010631,52.4932694 L45.1810109,54.3707863 L49.1401135,56.149816 C49.1401135,56.149816 47.3393833,60.271673 45.995617,63.3489812 L46.756389,66.3691168 C47.5818454,66.7388611 48.660197,67.2233682 49.9484599,67.8026065 C50.1992684,67.9148653 50.4584234,68.0317145 50.72509,68.1506504 C50.72509,61.6087622 50.72509,55.2822104 50.72509,52.5779851 C50.5331234,52.5779851 46.7697432,52.5779851 46.7697432,52.5779851 L46.7697432,36.0662693 L72.4456946,36.0662693 L72.4456946,52.5779851 C72.4456946,52.5779851 69.1839315,52.5779851 68.6810624,52.5779851 C68.6810624,55.8180476 68.6810624,60.3334362 68.6810624,67.5417823 C76.735731,56.0033371 90.6533102,36.0662693 90.6533102,36.0662693 L110.666247,36.0662693 L110.666247,52.8550848 C110.666247,52.8550848 106.899111,52.8550848 106.710065,52.8550848 C106.710065,58.6115791 106.710065,80.7549276 106.710065,86.5114219 C106.899111,86.5114219 110.666247,86.5114219 110.666247,86.5114219 L110.666247,95.0802271 C114.85404,96.9623346 118.789355,98.7300966 122.303179,100.309648 C131.726653,104.542929 138.111629,107.410743 138.111629,107.410743 L138.111629,118.329053 C138.111629,118.329053 131.738755,115.465412 122.258109,111.20584 L122.258109,111.20584 Z" id="path66" fill="#432C91"></path>
                        <path d="M36.3140732,95.7767321 C35.8052782,94.6816878 34.6076152,92.1076659 34.6076152,92.1076659 L35.6375578,89.9780885 C35.6375578,89.9780885 37.1521326,88.8571704 37.8004372,88.3793405 C38.2050277,87.4403734 39.2613866,84.9907125 39.2613866,84.9907125 C39.2613866,84.9907125 39.7703068,84.3714116 39.9908597,84.1030756 C39.9305572,83.5664038 39.7163475,81.6830444 39.7163475,81.6830444 C39.7163475,81.6830444 40.8825446,80.49619 41.0657893,80.3092312 C41.33183,79.8635348 42.5844538,77.772768 42.969639,77.1305145 C43.0218038,76.8446512 43.1219603,76.2929558 43.2292112,75.7007806 C44.0200302,76.0571708 44.9710996,76.4836705 46.0640573,76.9748546 L45.8520594,78.1450163 L44.358893,80.6368264 L43.5017204,82.0678122 L42.8724037,82.7100657 L43.1290547,84.9777757 L41.8887835,86.4872175 L40.2775994,90.2213853 L38.0609276,91.8614479 L37.9305155,92.1310358 L39.6496599,95.8259757 L36.5049547,102.058631 L31.9442872,105.886278 L31.0659564,107.689929 L31.0659564,142.227644 L117.327071,142.227644 L117.140529,140.067602 L120.860926,133.03912 L121.094624,126.151275 L123.516742,121.873341 L125.187269,120.348041 L125.13886,118.516012 L121.468542,116.675219 L120.065933,114.620341 L118.699632,109.607092 C119.925714,110.15837 121.115907,110.69379 122.258109,111.20584 C122.512673,112.142303 122.730096,112.941051 122.859882,113.413038 C123.07814,113.733956 123.260508,113.999371 123.557222,114.434217 C124.471984,114.893685 128.114759,116.719872 128.114759,116.719872 L128.240372,121.575375 C128.240372,121.575375 126.372454,123.280122 125.936356,123.67741 C125.62128,124.235782 124.540842,126.143763 124.090138,126.941677 C124.05091,128.064681 123.858109,133.786538 123.858109,133.786538 C123.858109,133.786538 120.850075,139.469584 120.222428,140.655604 C120.275427,141.284504 120.608865,145.145119 120.608865,145.145119 L28.0452784,145.145119 L28.0452784,107.038495 L29.481439,104.087634 C29.481439,104.087634 33.3098792,100.874698 34.0602182,100.245381 C34.4133116,99.5447028 35.6008755,97.1914425 36.3140732,95.7767321" id="path68" fill="#432C91"></path>
                    </g>
                </g>
            </g>
        </g>
    </g>
</svg>