<?xml version="1.0" encoding="UTF-8"?>
<svg width="200px" height="200px" viewBox="0 0 200 200" version="1.1" xmlns="http://www.w3.org/2000/svg" xmlns:xlink="http://www.w3.org/1999/xlink">
    <!-- Generator: Sketch 54.1 (76490) - https://sketchapp.com -->
    <title>ohio-st</title>
    <desc>Created with Sketch.</desc>
    <g id="ohio-st" stroke="none" stroke-width="1" fill="none" fill-rule="evenodd">
        <g id="ohio-st_BGL">
            <g id="ohio-st" transform="translate(0.000000, 2.000000)">
                <g id="g10" transform="translate(99.947171, 98.315904) scale(-1, 1) rotate(-180.000000) translate(-99.947171, -98.315904) translate(0.000000, 0.059171)" fill-rule="nonzero">
                    <g id="g12">
                        <path d="M165.975273,35.7839611 L165.072156,35.7839611 L165.072156,34.7286204 L166.188268,34.7286204 C166.654829,34.7286204 166.91896,34.8303002 166.91896,35.357548 C166.91896,35.7839611 166.380978,35.7839611 165.975273,35.7839611" id="path14" fill="#FFFFFF"></path>
                        <path d="M165.741993,37.4575796 C163.986895,37.4575796 162.678496,36.1793546 162.678496,34.3738396 C162.678496,32.5884831 163.986895,31.3102581 165.741993,31.3102581 C167.466662,31.3102581 168.80549,32.5884831 168.80549,34.3738396 C168.80549,36.1793546 167.466662,37.4575796 165.741993,37.4575796 L165.741993,37.4575796 Z M167.669092,32.3345792 L166.654829,32.3345792 L165.721707,34.0996505 L165.072156,34.0996505 L165.072156,32.3345792 L164.138612,32.3345792 L164.138612,36.5139769 L166.167983,36.5139769 C167.131956,36.5139769 167.790804,36.3414677 167.790804,35.2359209 C167.790804,34.4649542 167.395664,34.1504904 166.654829,34.0996505 L167.669092,32.3345792 L167.669092,32.3345792 Z" id="path16" fill="#FFFFFF"></path>
                        <polyline id="path18" fill="#FFFFFF" points="140.850287 101.146537 145.163863 100.060431 145.174006 116.937345 140.846061 118.008238 140.850287 101.146537"></polyline>
                        <path d="M167.398622,133.635073 L167.365659,158.900366 L129.919067,196.254406 L71.2118313,196.254406 L33.2912406,159.0225 L33.3433906,133.679447 C14.8855781,127.328893 0,119.730795 0,119.730795 L0,22.8126777 L11.1250288,15.5787846 L25.8181504,24.4445002 L32.5897932,37.5784037 L71.2845201,0 L129.711143,0 L159.746853,30.0283986 C161.085257,28.1794816 163.260852,26.9755514 165.741993,26.9755514 C168.512621,26.9755514 170.913466,28.4860426 172.181295,30.7238872 C180.120862,24.7378335 199.457787,9.16319047 199.457787,9.16319047 L199.48103,119.986473 C199.48103,119.986473 180.423873,129.461803 167.398622,133.635073 Z M25.4108816,35.4166711 L21.921225,28.0865497 C21.3376434,27.7651129 12.1946114,22.2261378 11.2217641,21.6182985 L5.3984996,25.5208446 L5.3984996,100.543051 L9.07718942,107.564709 C12.6877123,109.586051 16.2970519,111.232538 20.0625457,112.994398 L25.4108816,109.087794 L25.4108816,35.4166711 Z M41.9341141,96.8393003 L41.9341141,120.808449 C44.3503423,121.701846 46.7697822,122.229685 49.1985196,122.93333 L49.1896448,63.6179593 C46.7275213,62.575804 44.2865282,61.8189102 41.9341141,60.6791321 L41.9341141,88.9787616 C39.8474792,88.2658192 37.6046478,87.0833576 37.6046478,87.0833576 L37.6046478,58.1865807 C34.5204429,56.317801 32.5427567,55.3669294 29.9790378,53.5966178 L29.9920965,116.837609 C32.4045634,117.819754 35.1616262,118.472686 37.6046478,119.352559 L37.6046478,95.0275729 L41.9341141,96.8393003 Z M73.0814562,66.1506587 L73.0814562,54.2516627 L87.5625969,39.9633587 L113.508713,39.9633587 L127.691914,54.2863167 L127.713045,66.2301093 C136.581507,64.4868447 144.257366,62.1633371 151.801792,58.9675632 L151.798834,44.2806117 L123.433277,15.9686842 L77.6029563,15.9686842 L48.9927088,44.1479123 L48.9927088,58.9434745 C56.1635485,62.0340185 64.5367126,64.4602203 73.0814562,66.1506587 Z M52.8933954,65.0151067 L52.8933954,123.965343 C55.2300039,124.59165 57.7149484,125.04511 60.0540925,125.581825 L60.0540925,67.3381917 C57.4343356,66.5546735 55.2524022,65.8074997 52.8933954,65.0151067 Z M91.9251958,50.524246 L109.105544,50.524246 L117.250076,58.677653 L117.250076,67.7739022 C119.243103,67.5266755 120.751819,67.2980437 122.702585,66.96545 L122.702585,56.4188047 L111.208027,45.0189107 L89.654937,45.0189107 L78.1527714,56.2882183 L78.1527714,67.090965 C80.1031147,67.4332788 81.6536694,67.4797659 83.6466963,67.7367125 L83.6466963,58.5352336 L91.9251958,50.524246 Z M104.37781,62.7697818 L104.37781,94.9088196 L94.4524012,94.9088196 L88.7180115,100.357948 L88.7180115,135.617535 L94.0006316,140.810562 L106.851767,140.809294 L112.120018,135.642046 L112.120018,114.222924 L104.37781,114.209823 L104.37781,132.799997 L96.5785501,132.799997 L96.6034841,103.862227 L106.330267,103.868988 L112.120018,98.4604307 L112.120018,60.7623862 L106.890224,55.4725818 L94.0133099,55.5520324 L88.7180115,60.7623862 L88.7180115,84.3866857 L96.4095063,84.3866857 L96.4095063,62.7697818 L104.37781,62.7697818 Z M119.037715,71.8296865 L119.044477,121.568724 C119.044477,121.568724 115.838138,121.9309 113.739036,122.134598 L113.725935,129.49519 C120.104382,128.929738 125.769463,128.334704 132.113679,127.213098 L132.113679,119.785311 C129.451238,120.240039 126.528048,120.651238 126.528048,120.651238 L126.528048,70.6937119 C124.150446,71.1163215 121.654936,71.4514509 119.037715,71.8296865 Z M122.702585,133.182458 C120.720124,133.43053 119.052506,133.675644 117.091598,133.859902 L117.091598,137.780451 L108.936923,145.924983 L91.9885872,145.924983 L83.6357084,137.780451 L83.6357084,133.769041 C81.6743773,133.578021 80.1348105,133.505755 78.1527714,133.250921 L78.1527714,140.01521 L89.8062312,151.42736 L111.257472,151.42736 L122.702585,140.01521 L122.702585,133.182458 Z M82.9291052,123.798835 L82.9291052,76.0879009 L79.3073409,71.5317468 C75.176332,70.8978324 71.972106,70.3767547 67.6927611,69.3468551 L63.8461685,72.749285 L63.8461685,121.607604 L68.0228192,127.098148 C71.3846786,127.726146 74.7372406,128.12847 78.0690947,128.571365 L82.9291052,123.798835 Z M145.33333,65.7808753 L145.33333,92.2683548 L140.78436,93.5687245 L140.78436,67.3394595 C138.508607,68.0714193 136.193129,68.5506586 133.840884,69.1617521 L133.832009,121.787213 L138.488745,126.047963 C141.879764,125.322342 144.852823,124.777599 148.240884,123.863917 L152.231164,116.686315 L152.231164,63.1661897 C149.983303,64.16059 147.682616,64.9128351 145.33333,65.7808753 L145.33333,65.7808753 Z M151.78362,127.656838 C143.592178,129.919067 135.772633,131.412147 127.675855,132.604751 L127.675855,142.146853 L113.374324,156.465712 L87.6796597,156.465712 L73.0958249,142.146853 L73.0958249,132.54305 C64.9943988,131.322554 57.1309019,129.918222 48.9432634,127.628523 L48.9432634,151.777281 L77.71368,180.529525 L123.322976,180.529525 L151.78362,152.068459 L151.78362,127.656838 Z M165.741993,30.3564282 C163.500049,30.3564282 161.724243,32.1521809 161.724243,34.3738396 C161.724243,36.6156568 163.500049,38.4112405 165.741993,38.4112405 C167.973794,38.4112405 169.75932,36.6156568 169.75932,34.3738396 C169.75932,32.1521809 167.973794,30.3564282 165.741993,30.3564282 Z M172.916636,40.4038025 C169.692547,43.1437918 166.217428,45.5133639 162.296879,47.8656089 L162.299837,39.7302473 L127.611196,5.06966707 L73.2855766,5.06966707 L38.3607386,39.8824713 L38.3607386,48.1796079 C35.5593018,46.5390374 32.4780552,43.9378753 29.989434,41.9575267 L29.989434,48.4893807 C34.1227672,51.5161107 38.1568717,53.9959839 43.9213935,56.7970403 L43.9213935,41.9898986 L75.5321693,10.5206548 L125.498148,10.5206548 L156.876066,42.1673524 L156.876066,56.7974629 C162.898675,53.9448481 168.194819,50.4262005 172.916636,46.8162693 L172.916636,40.4038025 Z M174.094872,107.64585 C173.638031,107.84828 167.355939,110.275327 167.355939,110.275327 L167.336499,55.7705216 C165.059478,57.2471195 162.859373,58.4380334 160.319066,59.7092431 L160.30512,112.7421 C160.30512,112.7421 155.1197,114.341677 154.582141,114.495507 L154.582141,122.167984 C161.023134,120.198624 167.834755,118.221233 174.094872,115.560483 L174.094872,107.64585 Z M194.386472,97.7360779 C190.859372,99.7333308 184.051554,103.114208 184.051554,103.114208 L184.03803,76.4395121 C184.03803,76.4395121 191.361855,72.5515037 194.386472,70.6624388 L194.386472,61.5184348 C191.285362,63.4020058 184.343154,67.1716835 184.343154,67.1716835 L184.343154,37.8503107 C184.343154,37.8503107 191.102372,32.4055776 194.386472,29.7466025 L194.386472,20.1119065 C189.573371,24.1927516 181.69466,30.2817953 176.456837,34.2652289 L176.456837,114.621867 C182.459161,111.928999 188.724771,109.542522 194.386472,106.195454 L194.386472,97.7360779 Z M194.386472,111.280716 C183.920967,117.1178 167.742204,123.286209 156.876066,126.338296 L156.876066,154.582986 L125.463071,185.621548 L75.6809278,185.621548 L43.9049117,153.998094 L43.9049117,126.238983 C34.48824,123.471312 17.1338612,117.680293 5.51653446,110.977282 L5.51653446,116.647858 C16.0819436,122.338719 27.4574108,126.503959 38.3607386,129.993024 L38.3607386,156.793234 L73.2855766,191.183091 L127.822078,191.183091 L162.296879,156.793234 L162.331956,129.947804 C173.455463,126.390699 183.857153,122.60285 194.386472,116.952982 L194.386472,111.280716 L194.386472,111.280716 Z" id="path20" fill="#FFFFFF"></path>
                        <polyline id="path22" fill="#FFFFFF" points="70.883041 77.4672986 75.7878481 78.3856293 75.7878481 120.489802 70.883041 119.830953 70.883041 77.4672986"></polyline>
                        <polyline id="path24" fill="#FFFFFF" points="12.8773795 30.7940404 18.2227148 34.4306383 18.2332801 104.046062 12.9122025 101.239934 12.8773795 30.7940404"></polyline>
                        <path d="M78.1527714,67.090965 L78.1527714,56.2882183 L89.654937,45.0189107 L111.208027,45.0189107 L122.702585,56.4188047 L122.702585,66.96545 C120.751819,67.2980437 119.243103,67.5266755 117.250076,67.7739022 L117.250076,58.677653 L109.105544,50.524246 L91.9251958,50.524246 L83.6466963,58.5352336 L83.6466963,67.7367125 C81.6536694,67.4797659 80.1031147,67.4332788 78.1527714,67.090965" id="path26" fill="#A9AFB3"></path>
                        <path d="M89.8062312,151.42736 L78.1527714,140.01521 L78.1527714,133.250921 C80.1348105,133.505755 81.6743773,133.578021 83.6357084,133.769041 L83.6357084,137.780451 L91.9885872,145.924983 L108.936923,145.924983 L117.091598,137.780451 L117.091598,133.859902 C119.052506,133.675644 120.720124,133.43053 122.702585,133.182458 L122.702585,140.01521 L111.257472,151.42736 L89.8062312,151.42736" id="path28" fill="#A9AFB3"></path>
                        <path d="M162.296879,156.793234 L127.822078,191.183091 L73.2855766,191.183091 L38.3607386,156.793234 L38.3607386,129.993024 C27.4574108,126.503959 16.0819436,122.338719 5.51653446,116.647858 L5.51653446,110.977282 C17.1338612,117.680293 34.48824,123.471312 43.9049117,126.238983 L43.9049117,153.998094 L75.6809278,185.621548 L125.463071,185.621548 L156.876066,154.582986 L156.876066,126.338296 C167.742204,123.286209 183.920967,117.1178 194.386472,111.280716 L194.386472,116.952982 C183.857153,122.60285 173.455463,126.390699 162.331956,129.947804 L162.296879,156.793234" id="path30" fill="#A9AFB3"></path>
                        <path d="M156.876066,42.1673524 L125.498148,10.5206548 L75.5321693,10.5206548 L43.9213935,41.9898986 L43.9213935,56.7970403 C38.1568717,53.9959839 34.1227672,51.5161107 29.989434,48.4893807 L29.989434,41.9575267 C32.4780552,43.9378753 35.5593018,46.5390374 38.3607386,48.1796079 L38.3607386,39.8824713 L73.2855766,5.06966707 L127.611196,5.06966707 L162.299837,39.7302473 L162.296879,47.8656089 C166.217428,45.5133639 169.692547,43.1437918 172.916636,40.4038025 L172.916636,46.8162693 C168.194819,50.4262005 162.898675,53.9448481 156.876066,56.7974629 L156.876066,42.1673524" id="path32" fill="#A9AFB3"></path>
                        <path d="M77.71368,180.529525 L48.9432634,151.777281 L48.9432634,127.628523 C57.1309019,129.918222 64.9943988,131.322554 73.0958249,132.54305 L73.0958249,142.146853 L87.6796597,156.465712 L113.374324,156.465712 L127.675855,142.146853 L127.675855,132.604751 C135.772633,131.412147 143.592178,129.919067 151.78362,127.656838 L151.78362,152.068459 L123.322976,180.529525 L77.71368,180.529525" id="path34" fill="#CE0F3E"></path>
                        <path d="M48.9927088,44.1479123 L77.6029563,15.9686842 L123.433277,15.9686842 L151.798834,44.2806117 L151.801792,58.9675632 C144.257366,62.1633371 136.581507,64.4868447 127.713045,66.2301093 L127.691914,54.2863167 L113.508713,39.9633587 L87.5625969,39.9633587 L73.0814562,54.2516627 L73.0814562,66.1506587 C64.5367126,64.4602203 56.1635485,62.0340185 48.9927088,58.9434745 L48.9927088,44.1479123" id="path36" fill="#CE0F3E"></path>
                        <path d="M165.741993,38.4112405 C163.500049,38.4112405 161.724243,36.6156568 161.724243,34.3738396 C161.724243,32.1521809 163.500049,30.3564282 165.741993,30.3564282 C167.973794,30.3564282 169.75932,32.1521809 169.75932,34.3738396 C169.75932,36.6156568 167.973794,38.4112405 165.741993,38.4112405 Z M165.741993,31.3102581 C163.986895,31.3102581 162.678496,32.5884831 162.678496,34.3738396 C162.678496,36.1793546 163.986895,37.4575796 165.741993,37.4575796 C167.466662,37.4575796 168.80549,36.1793546 168.80549,34.3738396 C168.80549,32.5884831 167.466662,31.3102581 165.741993,31.3102581 L165.741993,31.3102581 Z" id="path38" fill="#231F20"></path>
                        <path d="M167.790804,35.2359209 C167.790804,36.3414677 167.131956,36.5139769 166.167983,36.5139769 L164.138612,36.5139769 L164.138612,32.3345792 L165.072156,32.3345792 L165.072156,34.0996505 L165.721707,34.0996505 L166.654829,32.3345792 L167.669092,32.3345792 L166.654829,34.0996505 C167.395664,34.1504904 167.790804,34.4649542 167.790804,35.2359209 Z M166.188268,34.7286204 L165.072156,34.7286204 L165.072156,35.7839611 L165.975273,35.7839611 C166.380978,35.7839611 166.91896,35.7839611 166.91896,35.357548 C166.91896,34.8303002 166.654829,34.7286204 166.188268,34.7286204 L166.188268,34.7286204 Z" id="path40" fill="#231F20"></path>
                        <path d="M176.456837,34.2652289 C181.69466,30.2817953 189.573371,24.1927516 194.386472,20.1119065 L194.386472,29.7466025 C191.102372,32.4055776 184.343154,37.8503107 184.343154,37.8503107 L184.343154,67.1716835 C184.343154,67.1716835 191.285362,63.4020058 194.386472,61.5184348 L194.386472,70.6624388 C191.361855,72.5515037 184.03803,76.4395121 184.03803,76.4395121 L184.051554,103.114208 C184.051554,103.114208 190.859372,99.7333308 194.386472,97.7360779 L194.386472,106.195454 C188.724771,109.542522 182.459161,111.928999 176.456837,114.621867 L176.456837,34.2652289" id="path42" fill="#231F20"></path>
                        <path d="M29.9920965,116.837609 L29.9790378,53.5966178 C32.5427567,55.3669294 34.5204429,56.317801 37.6046478,58.1865807 L37.6046478,87.0833576 C37.6046478,87.0833576 39.8474792,88.2658192 41.9341141,88.9787616 L41.9341141,60.6791321 C44.2865282,61.8189102 46.7275213,62.575804 49.1896448,63.6179593 L49.1985196,122.93333 C46.7697822,122.229685 44.3503423,121.701846 41.9341141,120.808449 L41.9341141,96.8393003 L37.6046478,95.0275729 L37.6046478,119.352559 C35.1616262,118.472686 32.4045634,117.819754 29.9920965,116.837609" id="path44" fill="#231F20"></path>
                        <path d="M152.231164,116.686315 L148.240884,123.863917 C144.852823,124.777599 141.879764,125.322342 138.488745,126.047963 L133.832009,121.787213 L133.840884,69.1617521 C136.193129,68.5506586 138.508607,68.0714193 140.78436,67.3394595 L140.78436,93.5687245 L145.33333,92.2683548 L145.33333,65.7808753 C147.682616,64.9128351 149.983303,64.16059 152.231164,63.1661897 L152.231164,116.686315 Z M145.163863,100.060431 L140.850287,101.146537 L140.846061,118.008238 L145.174006,116.937345 L145.163863,100.060431 L145.163863,100.060431 Z" id="path46" fill="#231F20"></path>
                        <path d="M68.0228192,127.098148 L63.8461685,121.607604 L63.8461685,72.749285 L67.6927611,69.3468551 C71.972106,70.3767547 75.176332,70.8978324 79.3073409,71.5317468 L82.9291052,76.0879009 L82.9291052,123.798835 L78.0690947,128.571365 C74.7372406,128.12847 71.3846786,127.726146 68.0228192,127.098148 Z M75.7878481,78.3856293 L70.883041,77.4672986 L70.883041,119.830953 L75.7878481,120.489802 L75.7878481,78.3856293 L75.7878481,78.3856293 Z" id="path48" fill="#231F20"></path>
                        <path d="M126.528048,120.651238 C126.528048,120.651238 129.451238,120.240039 132.113679,119.785311 L132.113679,127.213098 C125.769463,128.334704 120.104382,128.929738 113.725935,129.49519 L113.739036,122.134598 C115.838138,121.9309 119.044477,121.568724 119.044477,121.568724 L119.037715,71.8296865 C121.654936,71.4514509 124.150446,71.1163215 126.528048,70.6937119 L126.528048,120.651238" id="path50" fill="#231F20"></path>
                        <path d="M154.582141,114.495507 C155.1197,114.341677 160.30512,112.7421 160.30512,112.7421 L160.319066,59.7092431 C162.859373,58.4380334 165.059478,57.2471195 167.336499,55.7705216 L167.355939,110.275327 C167.355939,110.275327 173.638031,107.84828 174.094872,107.64585 L174.094872,115.560483 C167.834755,118.221233 161.023134,120.198624 154.582141,122.167984 L154.582141,114.495507" id="path52" fill="#231F20"></path>
                        <path d="M52.8933954,123.965343 L52.8933954,65.0151067 C55.2524022,65.8074997 57.4343356,66.5546735 60.0540925,67.3381917 L60.0540925,125.581825 C57.7149484,125.04511 55.2300039,124.59165 52.8933954,123.965343" id="path54" fill="#231F20"></path>
                        <polyline id="path56" fill="#231F20" points="88.7180115 84.3866857 88.7180115 60.7623862 94.0133099 55.5520324 106.890224 55.4725818 112.120018 60.7623862 112.120018 98.4604307 106.330267 103.868988 96.6034841 103.862227 96.5785501 132.799997 104.37781 132.799997 104.37781 114.209823 112.120018 114.222924 112.120018 135.642046 106.851767 140.809294 94.0006316 140.810562 88.7180115 135.617535 88.7180115 100.357948 94.4524012 94.9088196 104.37781 94.9088196 104.37781 62.7697818 96.4095063 62.7697818 96.4095063 84.3866857 88.7180115 84.3866857"></polyline>
                        <path d="M9.07718942,107.564709 L5.3984996,100.543051 L5.3984996,25.5208446 L11.2217641,21.6182985 C12.1946114,22.2261378 21.3376434,27.7651129 21.921225,28.0865497 L25.4108816,35.4166711 L25.4108816,109.087794 L20.0625457,112.994398 C16.2970519,111.232538 12.6877123,109.586051 9.07718942,107.564709 Z M18.2227148,34.4306383 L12.8773795,30.7940404 L12.9122025,101.239934 L18.2332801,104.046062 L18.2227148,34.4306383 L18.2227148,34.4306383 Z" id="path58" fill="#231F20"></path>
                    </g>
                </g>
            </g>
        </g>
    </g>
</svg>