<?xml version="1.0" encoding="UTF-8"?>
<svg width="200px" height="200px" viewBox="0 0 200 200" version="1.1" xmlns="http://www.w3.org/2000/svg" xmlns:xlink="http://www.w3.org/1999/xlink">
    <!-- Generator: Sketch 55.2 (78181) - https://sketchapp.com -->
    <title>prairie-view</title>
    <desc>Created with Sketch.</desc>
    <defs>
        <path d="M1.33684211,1.9278169 C1.33684211,1.9278169 -0.563157895,4.4665493 1.42631579,4.4665493 L1.42631579,4.4665493 C3.41754386,4.4665493 4.57894737,5.4084507 4.98947368,4.8556338 L4.98947368,4.8556338 C5.80526316,3.76584507 5.67368421,1.83626761 5.04210526,1.11091549 L5.04210526,1.11091549 C4.82105263,0.85915493 4.45789474,0.73943662 4.0245614,0.73943662 L4.0245614,0.73943662 C3.21578947,0.73943662 2.16140351,1.1584507 1.33684211,1.9278169" id="path-1"></path>
        <radialGradient cx="50.0146258%" cy="49.9837691%" fx="50.0146258%" fy="49.9837691%" r="54.4624573%" gradientTransform="translate(0.500146,0.499838),scale(0.851100,1.000000),translate(-0.500146,-0.499838)" id="radialGradient-3">
            <stop stop-color="#FFFFFF" offset="0%"></stop>
            <stop stop-color="#A39161" offset="100%"></stop>
        </radialGradient>
        <path d="M0.91754386,0.218309859 C0.585964912,0.352112676 0.535087719,0.420774648 0.535087719,0.420774648 L0.535087719,0.420774648 C0.535087719,0.420774648 -0.0315789474,2.29225352 0.50877193,3.92605634 L0.50877193,3.92605634 C0.50877193,3.92605634 0.835087719,3.98415493 1.03157895,3.98415493 L1.03157895,3.98415493 C1.23333333,3.98415493 1.50350877,4.01408451 1.50350877,4.01408451 L1.50350877,4.01408451 C2.22631579,2.29225352 1.53333333,0.0352112676 1.53333333,0.0352112676 L1.53333333,0.0352112676 C1.53333333,0.0352112676 1.25438596,0.0845070423 0.91754386,0.218309859" id="path-4"></path>
        <radialGradient cx="44.3706571%" cy="50.0037788%" fx="44.3706571%" fy="50.0037788%" r="85.8219%" gradientTransform="translate(0.443707,0.500038),scale(1.000000,0.440925),translate(-0.443707,-0.500038)" id="radialGradient-6">
            <stop stop-color="#6D6E70" offset="0%"></stop>
            <stop stop-color="#000000" offset="100%"></stop>
        </radialGradient>
        <polygon id="path-7" points="0.0924561404 0.156690141 127.171232 0.156690141 127.171232 87.3632042 0.0924561404 87.3632042"></polygon>
        <path d="M1.83859649,6.91901408 C3.10175439,8.64260563 4.81754386,9.09683099 7.26140351,8.18838028 L7.26140351,8.18838028 C9.70350877,7.2834507 10.245614,4.37852113 10.245614,4.37852113 L10.245614,4.37852113 C10.245614,4.37852113 7.98421053,3.0193662 5.63508772,2.65492958 L5.63508772,2.65492958 C3.28421053,2.29401408 1.55614035,1.5915493 1.55614035,1.5915493 L1.55614035,1.5915493 C1.55614035,1.5915493 0.571929825,5.19542254 1.83859649,6.91901408" id="path-9"></path>
        <radialGradient cx="50.0027122%" cy="50.0053936%" fx="50.0027122%" fy="50.0053936%" r="57.4472524%" gradientTransform="translate(0.500027,0.500054),scale(0.779179,1.000000),translate(-0.500027,-0.500054)" id="radialGradient-11">
            <stop stop-color="#FFFFFF" offset="0%"></stop>
            <stop stop-color="#A39161" offset="100%"></stop>
        </radialGradient>
        <path d="M1.93157895,4.10211268 C3.64912281,4.74647887 4.79649123,2.84683099 4.47368421,1.45246479 L4.47368421,1.45246479 C4.47368421,1.45246479 3.52982456,1.08978873 2.86315789,0.957746479 L2.86315789,0.957746479 C2.19298246,0.822183099 1.18596491,0.683098592 1.18596491,0.683098592 L1.18596491,0.683098592 C1.18596491,0.683098592 0.0421052632,3.39260563 1.93157895,4.10211268" id="path-12"></path>
        <radialGradient cx="49.9898395%" cy="50.0207962%" fx="49.9898395%" fy="50.0207962%" r="50.893135%" gradientTransform="translate(0.499898,0.500208),scale(0.962886,1.000000),translate(-0.499898,-0.500208)" id="radialGradient-14">
            <stop stop-color="#6D6E70" offset="0%"></stop>
            <stop stop-color="#000000" offset="100%"></stop>
        </radialGradient>
        <path d="M0.653684211,0.874295775 L20.1045614,0.874295775 C27.9080702,0.874295775 33.2080702,8.14190141 33.2080702,18.8038732 C33.2080702,28.9183099 27.6747368,36.0274648 19.8712281,36.0274648 L12.3589474,36.0274648 L12.3589474,48.0450704 L15.5624561,48.0450704 L15.5624561,56.5679577 L0.711578947,56.5679577 L0.711578947,48.0450704 L3.97298246,48.0450704 L3.97298246,9.95880282 L0.653684211,9.95880282 L0.653684211,0.874295775 Z M12.3589474,9.95880282 L12.3589474,26.8637324 L17.9501754,26.8637324 C21.9694737,26.8637324 24.8221053,23.3091549 24.8221053,18.4112676 C24.8221053,13.1982394 22.025614,9.95880282 17.6010526,9.95880282 L12.3589474,9.95880282 Z M33.1494737,0.873943662 L47.5915789,0.873943662 L47.5915789,9.9584507 L44.6810526,9.9584507 L52.5424561,45.6644366 L60.5214035,9.9584507 L57.4933333,9.9584507 L57.4933333,0.873943662 L71.9354386,0.873943662 L71.9354386,9.9584507 L68.7915789,9.9584507 L57.5512281,56.5676056 L47.6512281,56.5676056 L36.2354386,9.9584507 L33.1494737,9.9584507 L33.1494737,0.873943662 Z M174.49,0.873767606 L189.284737,0.873767606 L189.284737,9.95651408 L186.081228,9.95651408 L186.081228,34.6202465 C186.081228,47.4177817 179.151404,56.4230634 169.249649,56.4230634 C158.593509,56.4230634 151.777719,47.5762324 151.777719,33.7505282 L151.777719,9.95651408 L145.256667,9.95651408 L145.256667,47.4829225 L148.51807,47.4829225 L148.51807,56.5674296 L137.802281,56.5674296 L137.716316,24.3790493 L127.958421,56.5674296 L122.368947,56.5674296 L112.465439,24.1889085 L112.468947,56.5674296 L94.4742105,56.5674296 L91.7952632,44.4794014 L77.3514035,44.4794014 L74.6724561,56.5674296 L65.1215789,56.5674296 L65.1215789,47.4829225 L68.2654386,47.4829225 L79.6812281,0.873767606 L89.5233333,0.873767606 L100.821579,47.4829225 L104.839123,47.4829225 L104.839123,9.95651408 L101.635614,9.95651408 L101.635614,0.873767606 L112.012807,0.873767606 L125.223333,41.5586268 L137.967193,0.873767606 L163.425088,0.873767606 L163.425088,9.95651408 L160.165439,9.95651408 L160.165439,34.2258803 C160.165439,41.8878521 163.660175,46.468838 168.784737,46.468838 C174.31807,46.468838 177.695263,41.8878521 177.695263,34.2258803 L177.695263,9.95651408 L174.49,9.95651408 L174.49,0.873767606 Z M79.1566667,35.9494718 L89.99,35.9494718 L84.6321053,11.3015845 L79.1566667,35.9494718 Z" id="path-15"></path>
        <polygon id="path-17" points="-65 50.9099585 255 -4.36325359 255 -48 -65.002807 -48"></polygon>
        <filter x="-15.6%" y="-60.7%" width="131.3%" height="203.0%" filterUnits="objectBoundingBox" id="filter-18">
            <feMorphology radius="5" operator="dilate" in="SourceAlpha" result="shadowSpreadOuter1"></feMorphology>
            <feOffset dx="0" dy="-10" in="shadowSpreadOuter1" result="shadowOffsetOuter1"></feOffset>
            <feGaussianBlur stdDeviation="10" in="shadowOffsetOuter1" result="shadowBlurOuter1"></feGaussianBlur>
            <feColorMatrix values="0 0 0 0 1   0 0 0 0 1   0 0 0 0 1  0 0 0 1 0" type="matrix" in="shadowBlurOuter1"></feColorMatrix>
        </filter>
    </defs>
    <g id="prairie-view" stroke="none" stroke-width="1" fill="none" fill-rule="evenodd">
        <g id="prairie-view_BGD">
            <g id="Group-145" transform="translate(0.000000, 38.000000)">
                <polygon id="Path-2" fill="#000101" points="41.2363281 67.3457031 53.5361328 111.764648 75 111.764648 81.6796875 100.779297 100 100.779297 102.959961 111.764648 147.21582 113.416016 147.21582 80.1074219 114.195312 75.1259766 94.2260742 63.1669922"></polygon>
                <path d="M140.043509,21.1316901 C140.043509,21.1316901 139.462807,21.8253521 139.69614,22.6387324 C139.927719,23.4503521 140.275088,24.6088028 140.043509,26.0014085 C139.676842,28.2109155 135.650526,25.5366197 135.650526,25.5366197 C135.650526,25.5366197 136.232982,17.0735915 140.043509,21.1316901" id="Fill-1" fill="#000101"></path>
                <g id="Group-5" transform="translate(133.333333, 19.970775)">
                    <mask id="mask-2" fill="white">
                        <use xlink:href="#path-1"></use>
                    </mask>
                    <g id="Clip-4"></g>
                    <path d="M1.33684211,1.9278169 C1.33684211,1.9278169 -0.563157895,4.4665493 1.42631579,4.4665493 L1.42631579,4.4665493 C3.41754386,4.4665493 4.57894737,5.4084507 4.98947368,4.8556338 L4.98947368,4.8556338 C5.80526316,3.76584507 5.67368421,1.83626761 5.04210526,1.11091549 L5.04210526,1.11091549 C4.82105263,0.85915493 4.45789474,0.73943662 4.0245614,0.73943662 L4.0245614,0.73943662 C3.21578947,0.73943662 2.16140351,1.1584507 1.33684211,1.9278169" id="Fill-3" fill="url(#radialGradient-3)" mask="url(#mask-2)"></path>
                </g>
                <path d="M134.760702,24.4378521 C133.948421,22.7160211 134.939649,21.5382042 134.939649,21.5382042 C134.939649,21.5382042 136.20807,20.7477113 137.178246,20.7213028 C137.178246,20.7213028 138.227368,22.0241197 137.415088,24.7459507 C137.415088,24.7459507 136.206316,24.8005282 134.760702,24.4378521" id="Fill-6" fill="#4F2582"></path>
                <g id="Group-10" transform="translate(135.087719, 20.731338)">
                    <mask id="mask-5" fill="white">
                        <use xlink:href="#path-4"></use>
                    </mask>
                    <g id="Clip-9"></g>
                    <path d="M0.91754386,0.218309859 C0.585964912,0.352112676 0.535087719,0.420774648 0.535087719,0.420774648 L0.535087719,0.420774648 C0.535087719,0.420774648 -0.0315789474,2.29225352 0.50877193,3.92605634 L0.50877193,3.92605634 C0.50877193,3.92605634 0.835087719,3.98415493 1.03157895,3.98415493 L1.03157895,3.98415493 C1.23333333,3.98415493 1.50350877,4.01408451 1.50350877,4.01408451 L1.50350877,4.01408451 C2.22631579,2.29225352 1.53333333,0.0352112676 1.53333333,0.0352112676 L1.53333333,0.0352112676 C1.53333333,0.0352112676 1.25438596,0.0845070423 0.91754386,0.218309859" id="Fill-8" fill="url(#radialGradient-6)" mask="url(#mask-5)"></path>
                </g>
                <g id="Group-44" transform="translate(23.807018, 0.604577)">
                    <path d="M124.50807,36.7505282 C124.599298,36.7135563 126.781754,35.8878521 133.897544,35.5727113 C133.897544,35.5727113 124.83614,37.4846831 124.820351,37.4917254 L124.50807,36.7505282 Z" id="Fill-11" fill="#6D6E71"></path>
                    <path d="M124.474737,42.3846831 L124.474737,42.3846831 C124.557193,42.3934859 128.13614,44.534331 138.794035,43.6346831 L124.474737,42.3846831 Z" id="Fill-13" fill="#6D6E71"></path>
                    <g id="Group-17">
                        <mask id="mask-8" fill="white">
                            <use xlink:href="#path-7"></use>
                        </mask>
                        <g id="Clip-16"></g>
                        <path d="M66.1661404,87.3632042 C66.7907018,78.7223592 77.0152632,72.1149648 78.9521053,72.3385563 C84.6731579,73.0040493 91.9047368,78.077993 94.0924561,79.7681338 C96.2784211,81.4565141 103.85386,84.3244718 108.564386,80.440669 C113.273158,76.5586268 111.590702,73.1818662 111.590702,73.1818662 C111.590702,73.1818662 112.187193,69.884331 113.45386,65.4934859 C114.750351,60.9952465 116.822281,57.9477113 118.190702,54.5110915 C119.467895,51.3051056 121.852105,50.2205986 122.018772,48.5322183 C122.190702,46.843838 122.860877,46.6765845 126.059123,43.1290493 C129.255614,39.5850352 124.545088,35.0251761 124.545088,35.0251761 C124.545088,35.0251761 124.545088,34.0128521 122.860877,32.3244718 C121.18193,30.6360915 120.002982,30.1308099 118.992456,28.106162 C117.983684,26.077993 114.725789,23.7558099 112.032807,23.7558099 C109.343333,23.7558099 110.001228,22.0603873 111.778421,20.8455986 C113.608246,19.6008803 116.878421,20.1167254 116.878421,20.1167254 C112.039825,14.6959507 107.050351,8.52165493 100.657368,6.49348592 C94.2626316,4.46883803 86.5222807,2.27165493 80.2959649,0.92306338 C74.0731579,-0.427288732 72.2222807,0.248767606 69.6977193,1.09207746 C67.1766667,1.93714789 66.3433333,1.86320423 64.2521053,1.86320423 C61.9415789,1.86320423 58.2573684,1.25933099 58.2573684,1.25933099 C53.1784211,1.09911972 29.8626316,14.8772887 24.9415789,15.6589789 C20.0187719,16.4389085 24.164386,17.4794014 26.4942105,18.5181338 C28.8275439,19.5586268 34.1187719,23.3508803 36.71,23.8702465 C36.71,23.8702465 31.7064912,29.940669 25.1994737,39.5762324 C19.7608772,47.6378521 11.4907018,53.6871479 0.0924561404,55.5058099 C-3.84839156,57.1414951 -4.970694,58.3682591 -3.27445118,59.1861017 C9.71234694,65.4476801 32.8592108,74.8400476 66.1661404,87.3632042 Z" id="Fill-15" fill="#000101" mask="url(#mask-8)"></path>
                    </g>
                    <path d="M96.8885965,19.134507 C99.527193,21.4602113 102.046491,24.9302817 98.8464912,24.618662 C95.6517544,24.3088028 95.0342105,24.4126761 91.8359649,22.2401408 C88.6394737,20.0640845 85.2359649,18.8211268 80.5938596,19.7559859 C75.9535088,20.6873239 78.9236842,20.340493 81.3149123,18.5130282 C84.4008772,16.1591549 90.2885965,20.481338 91.6289474,19.4443662 C92.9692982,18.4109155 95.5482456,19.5464789 94.0008772,18.2049296 C92.4535088,16.8580986 93.4833333,16.1327465 96.8885965,19.134507" id="Fill-18" fill="#6D6E71"></path>
                    <path d="M123.733684,33.7915493 C123.733684,33.7915493 122.695088,33.2704225 120.30386,33.0609155 C117.912632,32.8514085 116.195088,33.2228873 114.68807,33.3760563 C113.923158,33.4517606 115.249474,35.4235915 116.975789,36.1911972 C118.851228,37.0257042 121.342456,37.8619718 119.681053,38.0697183 C118.01614,38.2774648 120.412632,39.3038732 121.374035,40.4077465 C121.374035,40.4077465 122.298596,40.8126761 123.423158,38.8003521 C124.398596,37.0503521 124.670526,35.0433099 123.733684,33.7915493" id="Fill-20" fill="#6D6E71"></path>
                    <path d="M118.380702,30.922007 C118.663158,30.9977113 119.97193,31.3163732 120.045614,31.4167254 C120.045614,31.4167254 114.305263,32.240669 112.924561,31.0786972 C110.289474,28.865669 108.557895,25.6033451 105.280702,25.2882042 C102.005263,24.9748239 108.091228,24.9748239 111.207018,25.6033451 C114.32807,26.2283451 113.701754,29.6702465 118.380702,30.922007" id="Fill-22" fill="#6D6E71"></path>
                    <path d="M94.0531579,16.6809859 C94.5022807,17.0419014 94.9233333,17.4644366 95.2847368,17.9010563 C96.812807,19.7390845 97.3233333,21.7989437 94.6794737,20.2795775 C91.4022807,18.4028169 91.7145614,16.2109155 87.5057895,15.4292254 C83.2952632,14.6475352 83.7601754,11.5172535 78.6145614,10.1088028 C73.4689474,8.70035211 82.2005263,9.95387324 85.7847368,11.8288732 C89.3759649,13.7091549 94.0531579,16.6809859 94.0531579,16.6809859" id="Fill-24" fill="#6D6E71"></path>
                    <path d="M91.5594737,9.95176056 C91.5594737,9.95176056 98.8875439,13.7088028 101.696316,16.9940141 C104.503333,20.2809859 105.594561,21.5327465 103.096316,21.6894366 C100.605088,21.8443662 102.164737,18.8725352 98.5770175,16.3707746 C94.992807,13.865493 87.6594737,7.44823944 91.5594737,9.95176056" id="Fill-26" fill="#6D6E71"></path>
                    <path d="M102.005263,11.0485915 C104.787719,13.8408451 107.777193,16.0556338 107.619298,18.8725352 C107.463158,21.6894366 108.398246,22.9411972 106.373684,19.9676056 C104.347368,16.9940141 100.759649,9.79683099 102.005263,11.0485915" id="Fill-28" fill="#6D6E71"></path>
                    <path d="M52.3770175,15.9795775 C50.3840351,17.9795775 51.7910526,17.9795775 46.2787719,19.0359155 C40.77,20.0975352 41.47,18.8017606 36.4314035,18.0957746 C31.3875439,17.3915493 32.5612281,17.5077465 36.9015789,17.0394366 C41.2366667,16.5676056 56.0121053,12.0957746 52.7278947,15.7419014" id="Fill-30" fill="#6D6E71"></path>
                    <path d="M58.7854386,17.6507042 C58.7854386,17.6507042 58.1801754,18.2 58.7415789,19.2 C58.7415789,19.2 57.9714035,19.6190141 57.61,19.0538732 C57.2468421,18.4869718 57.0766667,19.7176056 57.8082456,20.3637324 C58.5450877,21.0098592 58.0801754,20.9112676 56.5152632,20.0820423 C56.5152632,20.0820423 55.9012281,21.1190141 55.932807,22.784507 C55.964386,24.4464789 55.4117544,23.8390845 55.155614,22.3214789 C54.8994737,20.8038732 54.2801754,18.7193662 53.7503509,21.6278169 C53.2222807,24.534507 53.0942105,24.2140845 52.9415789,22.2316901 C52.787193,20.2492958 53.1485965,20.8161972 52.0661404,22.2352113 C50.9836842,23.6577465 51.1521053,22.4271127 52.0696491,20.8725352 C52.0696491,20.8725352 49.8521053,22.1454225 48.5749123,22.6507042 C47.3029825,23.1542254 47.9994737,22.6225352 48.4731579,22.2352113 C48.9415789,21.853169 48.232807,21.9922535 48.232807,21.9922535 C48.232807,21.9922535 47.3714035,22.3848592 45.5608772,22.6771127 C43.7503509,22.9676056 45.5082456,22.4728873 46.2029825,21.9411972 C46.2029825,21.9411972 44.2942105,22.6964789 41.8959649,22.5661972 C39.4942105,22.4376761 40.5082456,21.5538732 37.2345614,21.6524648 C34.6696491,21.7316901 35.7187719,21.0327465 37.6205263,20.7633803 C37.6205263,20.7633803 38.9994737,20.6700704 39.964386,20.6876761 C40.9363158,20.7 39.0135088,21.0626761 40.6696491,21.0327465 C42.3275439,21.0045775 41.9626316,21.8003521 43.9064912,21.3461268 C45.8485965,20.8883803 46.0029825,20.631338 44.6854386,21.3214789 C44.6854386,21.3214789 47.8854386,21.8161972 50.8310526,20.3126761 C53.7766667,18.8056338 54.6538596,17.4359155 54.1889474,18.7 C53.7205263,19.9623239 53.6836842,20.1507042 53.7205263,19.9623239 C53.7626316,19.7774648 54.9731579,18.6771127 55.8819298,17.6066901 C56.7907018,16.5362676 58.8275439,16.0996479 58.7854386,17.6507042" id="Fill-32" fill="#6D6E71"></path>
                    <path d="M103.073509,46.9286972 C103.073509,46.9286972 107.74193,47.5607394 110.14193,46.8019366 C112.540175,46.0431338 116.829649,43.1294014 117.585789,41.4832746 C118.34193,39.8371479 116.322632,38.5713028 115.187544,37.9392606 C114.054211,37.3054577 111.778772,35.7860915 109.636667,36.0396127 C107.492807,36.2913732 105.850702,36.0396127 104.336667,37.3054577 C102.824386,38.5713028 104.336667,37.3054577 104.336667,37.3054577 C104.336667,37.3054577 107.619123,38.0642606 109.255965,38.8248239 C109.255965,38.8248239 108.375263,39.7121479 105.471754,40.3441901 C105.471754,40.3441901 106.482281,40.5977113 107.619123,41.7367958 C108.754211,42.8776408 107.74193,42.8776408 106.984035,43.3829225 C106.227895,43.8899648 105.219123,47.0554577 103.073509,46.9286972" id="Fill-34" fill="#6D6E71"></path>
                    <path d="M43.7694737,25.7830986 C43.7694737,25.7830986 43.2659649,27.6827465 43.7694737,29.4556338 C44.2764912,31.2285211 43.7694737,32.1158451 42.8887719,33.378169 C42.0063158,34.6475352 41.625614,37.1792254 41.625614,39.4591549 C41.625614,41.7390845 41.0782456,43.9785211 40.6168421,45.7883803 C40.1536842,47.6035211 39.6080702,49.0806338 39.6080702,49.0806338 C39.6080702,49.0806338 39.9835088,45.2830986 39.2291228,41.2302817 C38.4712281,37.1792254 38.7238596,35.281338 38.7238596,32.9996479 C38.7238596,30.7214789 39.8589474,29.0753521 41.2449123,27.9362676 C42.6361404,26.7954225 43.7694737,25.7830986 43.7694737,25.7830986" id="Fill-36" fill="#6D6E71"></path>
                    <path d="M73.4245614,25.402993 C73.4245614,25.402993 77.7140351,26.4153169 79.2280702,28.0614437 C80.7421053,29.7075704 80.4894737,28.822007 83.3894737,28.947007 C86.2912281,29.0755282 87.6807018,29.5808099 89.445614,28.822007 C89.445614,28.822007 87.554386,29.9628521 86.6736842,31.1001761 C85.7859649,32.2392606 85.7859649,32.3677817 83.6438596,32.1142606 C81.4982456,31.8607394 79.8578947,33.3801056 79.477193,32.8730634 C79.477193,32.8730634 82.3842105,34.7744718 84.2736842,35.152993 C86.1666667,35.5315141 87.9333333,32.7480634 89.8263158,31.9875 C91.7192982,31.2286972 93.7385965,29.0755282 95.8824561,28.5684859 C98.0280702,28.0614437 99.4175439,28.0614437 99.4175439,28.0614437 C99.4175439,28.0614437 95.5017544,30.0878521 94.2421053,31.6072183 C92.9789474,33.1265845 92.0982456,35.0262324 91.0877193,36.2920775 C90.0824561,37.5596831 89.1947368,38.8255282 85.7859649,38.5702465 C82.3842105,38.3184859 78.345614,39.2040493 77.7140351,36.5455986 C77.0807018,33.8871479 77.9649123,33.3801056 76.9578947,30.0878521 C75.9473684,26.7955986 73.4245614,25.402993 73.4245614,25.402993" id="Fill-38" fill="#6D6E71"></path>
                    <path d="M124.872105,37.8130282 C124.872105,37.8130282 123.337018,40.1651408 123.093158,40.3271127 C122.852807,40.4890845 123.822982,42.5172535 124.387895,43.0049296 C124.387895,43.0049296 124.224737,41.543662 124.631754,41.2197183 C125.033509,40.8957746 126.405439,40.7320423 126.405439,40.7320423 C126.405439,40.7320423 125.033509,40.003169 125.115965,39.7566901 C125.198421,39.515493 125.600175,38.6228873 124.872105,37.8130282" id="Fill-40" fill="#6D6E71"></path>
                    <path d="M58.6492982,3.25334507 C58.6492982,3.25334507 55.0089474,3.25334507 50.6791228,6.20933099 C46.3475439,9.1653169 36.2949123,13.8607394 24.1668421,16.6441901 C24.1668421,16.6441901 32.6563158,15.7727113 35.7738596,15.2515845 C38.8949123,14.7322183 53.1019298,5.68820423 58.6492982,3.25334507" id="Fill-42" fill="#6D6E71"></path>
                </g>
                <g id="Group-47" transform="translate(105.263158, 18.970775)">
                    <mask id="mask-10" fill="white">
                        <use xlink:href="#path-9"></use>
                    </mask>
                    <g id="Clip-46"></g>
                    <path d="M1.83859649,6.91901408 C3.10175439,8.64260563 4.81754386,9.09683099 7.26140351,8.18838028 L7.26140351,8.18838028 C9.70350877,7.2834507 10.245614,4.37852113 10.245614,4.37852113 L10.245614,4.37852113 C10.245614,4.37852113 7.98421053,3.0193662 5.63508772,2.65492958 L5.63508772,2.65492958 C3.28421053,2.29401408 1.55614035,1.5915493 1.55614035,1.5915493 L1.55614035,1.5915493 C1.55614035,1.5915493 0.571929825,5.19542254 1.83859649,6.91901408" id="Fill-45" fill="url(#radialGradient-11)" mask="url(#mask-10)"></path>
                </g>
                <path d="M109.137018,21.3276408 C109.137018,21.3276408 107.714211,25.040669 110.266842,25.7994718 C112.703684,26.5248239 114.331754,24.3487676 113.880877,22.5353873 C113.880877,22.5353873 113.037018,22.0248239 111.837018,21.7554577 C110.631754,21.4878521 109.137018,21.3276408 109.137018,21.3276408" id="Fill-48" fill="#4F2582"></path>
                <g id="Group-52" transform="translate(108.771930, 20.731338)">
                    <mask id="mask-13" fill="white">
                        <use xlink:href="#path-12"></use>
                    </mask>
                    <g id="Clip-51"></g>
                    <path d="M1.93157895,4.10211268 C3.64912281,4.74647887 4.79649123,2.84683099 4.47368421,1.45246479 L4.47368421,1.45246479 C4.47368421,1.45246479 3.52982456,1.08978873 2.86315789,0.957746479 L2.86315789,0.957746479 C2.19298246,0.822183099 1.18596491,0.683098592 1.18596491,0.683098592 L1.18596491,0.683098592 C1.18596491,0.683098592 0.0421052632,3.39260563 1.93157895,4.10211268" id="Fill-50" fill="url(#radialGradient-14)" mask="url(#mask-13)"></path>
                </g>
                <g id="Group-144" transform="translate(0.000000, 16.604577)">
                    <path d="M107.261754,6.17429577 C106.593333,5.79225352 107.956491,6.74471831 108.207368,6.99823944 C108.461754,7.25176056 110.667018,6.87147887 111.361754,6.99823944 C112.056491,7.125 109.910877,6.36267606 109.152982,6.23767606 C108.396842,6.11091549 107.70386,6.4278169 107.261754,6.17429577" id="Fill-53" fill="#FFFFFF"></path>
                    <path d="M134.955965,5.95070423 C134.519123,5.4471831 135.41386,6.6971831 135.580526,7.02992958 C135.748947,7.36267606 137.196316,6.86619718 137.652456,7.02992958 C138.112105,7.1971831 136.699825,6.20246479 136.201579,6.0334507 C135.706842,5.86795775 135.247193,6.2834507 134.955965,5.95070423" id="Fill-55" fill="#FFFFFF"></path>
                    <path d="M126.479474,21.2232394 C121.897018,20.5172535 115.014561,21.0172535 114.949649,21.0207746 C114.949649,21.0207746 121.956667,19.7073944 126.726842,20.4415493 L136.079474,21.4521127 L126.479474,21.2232394 Z" id="Fill-57" fill="#6D6E71"></path>
                    <path d="M105.568246,21.859331 L105.568246,21.859331 C105.675263,21.8663732 116.254211,22.7255282 121.143684,22.6234155 C126.087544,22.5195423 131.564737,22.3804577 131.620877,22.3839789 C131.620877,22.3839789 126.057719,23.3241197 121.175263,23.4244718 C116.238421,23.5265845 105.568246,21.859331 105.568246,21.859331" id="Fill-59" fill="#6D6E71"></path>
                    <path d="M111.210877,28.9205986 C111.210877,28.9205986 132.968772,24.3959507 133.542456,24.3642606 C133.542456,24.3642606 119.740702,25.0931338 111.210877,28.9205986" id="Fill-61" fill="#6D6E71"></path>
                    <path d="M138.924737,25.2619718 L138.924737,25.2619718 C138.817719,25.2989437 125.263333,29.0559859 120.33,32.8130282 L138.924737,25.2619718 Z" id="Fill-63" fill="#6D6E71"></path>
                    <path d="M135.005614,28.6316901 C134.686316,28.6792254 127.152982,29.3359155 121.672281,28.8130282 C116.272281,28.2954225 109.793333,26.5630282 109.793333,26.5630282 C109.858246,26.5700704 116.463509,27.503169 121.826667,28.0172535 C127.107368,28.5225352 135.005614,28.6316901 135.005614,28.6316901" id="Fill-65" fill="#6D6E71"></path>
                    <path d="M149.256491,23.3088028 C149.305614,23.3140845 150.505614,23.8739437 154.049474,24.4954225 C157.540702,25.1080986 161.263509,26.0200704 161.263509,26.0200704 C161.228421,26.0200704 157.458246,25.9073944 153.902105,25.2841549 C150.410877,24.6714789 149.256491,23.3088028 149.256491,23.3088028" id="Fill-67" fill="#6D6E71"></path>
                    <path d="M161.06614,32.7151408 C160.802982,32.6200704 154.597719,30.3700704 152.431053,28.565493 C150.448596,26.9052817 148.271404,25.3383803 148.271404,25.3383803 C148.376667,25.3507042 150.801228,26.1376761 153.006491,27.9809859 C155.03807,29.6764085 161.06614,32.7151408 161.06614,32.7151408" id="Fill-69" fill="#6D6E71"></path>
                    <path d="M152.934912,31.521831 C148.880526,29.8545775 148.234912,27.009507 148.131404,26.8915493 L152.934912,31.521831 Z" id="Fill-71" fill="#6D6E71"></path>
                    <path d="M116.293333,4.80739437 C116.981053,5.06795775 117.430175,5.58204225 117.828421,5.74577465 C119.586316,6.43943662 121.952982,6.24929577 122.717895,6.11901408 C122.66,6.1278169 122.426667,6.22112676 122.274035,6.49049296 C122.121404,6.75457746 122.156491,7.00105634 122.182807,7.06619718 C122.095088,6.84084507 118.044211,1.07852113 118.044211,1.07852113 C121.977544,3.68415493 124.789825,6.44471831 124.61614,7.26514085 C124.465263,7.96760563 123.909123,8.45880282 123.130175,8.58732394 C122.995088,8.61021127 119.674035,9.1665493 116.91614,8.075 C116.249474,7.81091549 115.61614,7.3778169 114.882807,6.87429577 C112.565263,5.28274648 104.293333,2.68239437 98.0722807,5.13661972 C98.0722807,5.13661972 106.328421,0.997535211 116.293333,4.80739437" id="Fill-73" fill="#6D6E71"></path>
                    <path d="M132.813509,1.42552817 C131.964386,2.86566901 132.394211,4.77940141 132.531053,5.98010563 C132.664386,7.18433099 132.408246,6.98010563 133.873158,5.91320423 C135.334561,4.84454225 139.374912,4.3375 140.38193,4.46426056 C141.81,4.64383803 139.374912,2.43961268 137.050351,3.1790493 C135.23807,3.75827465 134.394211,3.68257042 134.036316,2.25827465 C133.571404,0.413204225 134.413509,-1.29102113 132.813509,1.42552817" id="Fill-75" fill="#6D6E71"></path>
                    <path d="M136.304211,33.3614437 C136.304211,33.3614437 135.334035,37.9776408 132.097193,40.5533451 C132.097193,40.5533451 132.939298,35.7417254 132.728772,33.4617958 C132.728772,33.4617958 134.955088,33.0410211 135.632281,32.7012324 C136.304211,32.3649648 136.34807,32.7857394 136.304211,33.3614437" id="Fill-77" fill="#D1D3D4"></path>
                    <path d="M127.179474,34.8126761 C127.179474,34.8126761 129.112807,34.0521127 129.447895,34.0961268 C129.447895,34.0961268 131.381228,33.5890845 131.886491,33.6735915 C132.393509,33.756338 132.182982,34.0961268 132.097018,34.4306338 C132.014561,34.7704225 131.381228,35.5714789 131.172456,35.7387324 C130.96193,35.909507 130.667193,35.909507 130.24614,35.7 C129.825088,35.4887324 129.653158,35.171831 129.653158,35.171831 C129.653158,35.171831 129.281228,35.3619718 128.942632,35.7 C128.607544,36.034507 128.377719,36.5556338 127.94614,36.0855634 C127.511053,35.6137324 126.798772,35.7 127.179474,34.8126761" id="Fill-79" fill="#D1D3D4"></path>
                    <path d="M135.954737,33.1603873 C135.954737,33.1603873 135.433684,36.8558099 132.967018,39.4191901 C132.967018,39.4191901 133.658246,36.5072183 134.091579,33.8117958 C134.091579,33.8117958 134.874035,33.5512324 135.954737,33.1603873" id="Fill-81" fill="#FFFFFF"></path>
                    <path d="M131.711053,34.4653169 C131.711053,34.4653169 131.491754,35.1149648 130.974211,35.5955986 C130.974211,35.5955986 130.481228,35.3244718 130.293509,35.0885563 C130.293509,35.0885563 131.449649,34.7681338 131.711053,34.4653169" id="Fill-83" fill="#FFFFFF"></path>
                    <path d="M129.025439,35.2459507 C129.025439,35.2459507 128.590351,35.8110915 128.418421,36.0276408 C128.418421,36.0276408 128.158772,35.8568662 128.114912,35.6385563 C128.114912,35.6385563 128.546491,35.3762324 129.025439,35.2459507" id="Fill-85" fill="#FFFFFF"></path>
                    <path d="M90.7947368,16.3679577 C90.7947368,16.3679577 88.6491228,19.6584507 87.2631579,21.4330986 C85.8736842,23.2059859 85.8368421,23.7728873 87.2631579,26.3697183 C88.6491228,28.9049296 90.6684211,30.4207746 91.0473684,31.8133803 C91.4263158,33.2077465 94.454386,33.4630282 96.977193,35.4859155 C99.5017544,37.5140845 100.636842,39.540493 103.284211,41.818662 C105.935088,44.0985915 107.324561,46.7588028 107.324561,46.7588028 C107.324561,46.7588028 106.564912,44.7288732 105.684211,41.0580986 C104.803509,37.3855634 104.675439,38.2728873 102.278947,34.8538732 C99.8789474,31.4366197 97.8614035,31.9419014 95.2105263,27.7640845 C92.5614035,23.5862676 91.1122807,23.9859155 90.8280702,21.1267606 C90.5421053,18.2658451 90.7947368,16.3679577 90.7947368,16.3679577" id="Fill-87" fill="#6D6E71"></path>
                    <path d="M84.3596491,28.0161972 C84.3596491,28.0161972 83.3508772,31.3084507 83.3508772,32.7010563 C83.3508772,34.093662 84.3596491,36.121831 86.377193,37.5144366 C88.3982456,38.9088028 90.0368421,38.4 92.5614035,40.8066901 C95.0859649,43.2133803 98.6807018,49.8876761 102.589474,48.6200704 C102.589474,48.6200704 100.573684,47.9897887 98.3017544,45.2045775 C96.0280702,42.4193662 97.2315789,40.9316901 94.3263158,38.4 C91.4263158,35.8665493 89.6578947,35.6130282 88.145614,33.2080986 C86.6315789,30.803169 84.7385965,30.5478873 84.3596491,28.0161972" id="Fill-89" fill="#6D6E71"></path>
                    <path d="M63.3345614,61.2554577 C63.3345614,66.222007 60.9380702,70.2466549 57.9819298,70.2466549 C55.0275439,70.2466549 52.6310526,66.222007 52.6310526,61.2554577 C52.6310526,56.2889085 55.0275439,52.2625 57.9819298,52.2625 C60.9380702,52.2625 63.3345614,56.2889085 63.3345614,61.2554577" id="Fill-91" fill="#000101"></path>
                    <path d="M110.106667,62.2457746 C110.106667,69.0221831 107.489123,74.5133803 104.261053,74.5133803 C101.031228,74.5133803 98.4136842,69.0221831 98.4136842,62.2457746 C98.4136842,55.4693662 101.031228,49.978169 104.261053,49.978169 C107.489123,49.978169 110.106667,55.4693662 110.106667,62.2457746" id="Fill-93" fill="#000101"></path>
                    <path d="M135.885439,64.5135563 C135.885439,68.5646127 133.624035,71.8463028 130.836316,71.8463028 C128.046842,71.8463028 125.787193,68.5646127 125.787193,64.5135563 C125.787193,60.4625 128.046842,57.1790493 130.836316,57.1790493 C133.624035,57.1790493 135.885439,60.4625 135.885439,64.5135563" id="Fill-95" fill="#000101"></path>
                    <path d="M26.8,62.5174296 C26.8,65.2146127 25.4596491,67.3994718 23.8052632,67.3994718 C22.1526316,67.3994718 20.8122807,65.2146127 20.8122807,62.5174296 C20.8122807,59.822007 22.1526316,57.6371479 23.8052632,57.6371479 C25.4596491,57.6371479 26.8,59.822007 26.8,62.5174296" id="Fill-97" fill="#000000"></path>
                    <polygon id="Fill-99" fill="#000101" points="168.273684 86.931338 179.501754 86.931338 179.501754 58.0105634 168.273684 58.0105634"></polygon>
                    <path d="M17.3589474,53.9588028 L17.3589474,70.8637324 L22.9501754,70.8637324 C26.9694737,70.8637324 29.8221053,67.3091549 29.8221053,62.4112676 C29.8221053,57.1982394 27.025614,53.9588028 22.6010526,53.9588028 L17.3589474,53.9588028 Z M5.65368421,44.8742958 L25.1045614,44.8742958 C32.9080702,44.8742958 38.2080702,52.1419014 38.2080702,62.8038732 C38.2080702,72.9183099 32.6747368,80.0274648 24.8712281,80.0274648 L17.3589474,80.0274648 L17.3589474,92.0450704 L20.5624561,92.0450704 L20.5624561,100.567958 L5.71157895,100.567958 L5.71157895,92.0450704 L8.97298246,92.0450704 L8.97298246,53.9588028 L5.65368421,53.9588028 L5.65368421,44.8742958 Z" id="Fill-101" fill="#000101"></path>
                    <path d="M11.707193,48.3070484 L22.6010526,48.3070484 C30.3680397,48.3070484 35.4738596,54.266268 35.4738596,62.4112676 C35.4738596,70.215274 30.3712869,76.5154868 22.9501754,76.5154868 L11.707193,76.5154868 L11.707193,48.3070484 Z M23.0107018,65.2092561 C23.583541,65.1576251 24.1703509,64.3664801 24.1703509,62.4112676 C24.1703509,60.4571424 23.8207511,59.7871864 23.0107018,59.6426971 L23.0107018,65.2092561 Z M14.6247368,50.5260502 L14.6247368,74.3757104 L24.8712281,74.3757104 C29.2040785,74.3757104 32.5563158,70.0530616 32.5563158,62.8038732 C32.5563158,54.9430092 29.330259,50.5260502 25.1045614,50.5260502 L14.6247368,50.5260502 Z M11.707193,97.6968248 L14.6247368,97.6968248 L14.6247368,94.9162034 L11.707193,94.9162034 L11.707193,97.6968248 Z M17.7818347,97.6968248 L20.5624561,94.9162034 L14.9107018,94.9162034 L14.9107018,97.6968248 L17.7818347,97.6968248 Z M5.71157895,94.9162034 L8.4922004,97.6968248 L11.3633333,97.6968248 L11.3633333,94.9162034 L5.71157895,94.9162034 Z M11.3054386,48.3070484 L7.87268594,48.3070484 L5.65368421,50.5260502 L11.3054386,50.5260502 L11.3054386,48.3070484 Z M3.32122807,59.6105572 L0.00192982456,59.6105572 L0.00192982456,39.2225414 L25.1045614,39.2225414 C36.4777704,39.2225414 43.8598246,49.3296885 43.8598246,62.8038732 C43.8598246,75.7575808 36.1655408,85.6792192 24.8712281,85.6792192 L23.0107018,85.6792192 L23.0107018,86.393316 L26.2142105,86.393316 L26.2142105,106.219712 L0.0598245614,106.219712 L0.0598245614,86.393316 L3.32122807,86.393316 L3.32122807,59.6105572 Z" id="Stroke-102" fill="#000101" fill-rule="nonzero"></path>
                    <polygon id="Fill-103" fill="#000101" points="38.1494737 44.8739437 52.5915789 44.8739437 52.5915789 53.9584507 49.6810526 53.9584507 57.5424561 89.6644366 65.5214035 53.9584507 62.4933333 53.9584507 62.4933333 44.8739437 76.9354386 44.8739437 76.9354386 53.9584507 73.7915789 53.9584507 62.5512281 100.567606 52.6512281 100.567606 41.2354386 53.9584507 38.1494737 53.9584507"></polygon>
                    <path d="M46.9398246,50.525698 L46.9398246,53.4912878 L46.2134748,50.525698 L46.9398246,50.525698 Z M46.9398246,48.3066963 L50.3725772,48.3066963 L52.5915789,50.525698 L46.9398246,50.525698 L46.9398246,48.3066963 Z M47.0542449,53.9584507 L46.9398246,53.9584507 L46.9398246,53.4912878 L47.0542449,53.9584507 Z M57.0857733,94.9158512 L58.1407265,99.2230853 L52.9659062,95.1627576 L52.9115447,94.9158512 L57.0857733,94.9158512 Z M57.0569858,99.2426039 L58.1004336,94.9158512 L62.1601091,94.9158512 L62.0765816,95.2896385 L57.0569858,99.2426039 Z M68.1450877,50.525698 L62.4933333,50.525698 L64.7123351,48.3066963 L68.1450877,48.3066963 L68.1450877,50.525698 Z M68.1450877,53.2647634 L68.1450877,53.9584507 L67.9777968,53.9584507 L68.1450877,53.2647634 Z M68.1450877,50.525698 L68.8056458,50.525698 L68.1450877,53.2647634 L68.1450877,50.525698 Z M32.4977193,59.6102051 L32.4977193,39.2221893 L82.587193,39.2221893 L82.587193,59.6102051 L78.2423735,59.6102051 L67.0020226,106.21936 L48.2166829,106.21936 L36.8008934,59.6102051 L32.4977193,59.6102051 Z M57.5834001,63.5656865 L58.4673017,59.6102051 L56.7125199,59.6102051 L57.5834001,63.5656865 Z M52.0267391,88.4318809 L63.0620133,88.4491932 L57.5834001,63.5656865 L52.0267391,88.4318809 Z" id="Stroke-104" fill="#000101" fill-rule="nonzero"></path>
                    <path d="M89.6314035,55.3015845 L84.1559649,79.9494718 L94.9892982,79.9494718 L89.6314035,55.3015845 Z M84.6805263,44.8737676 L94.5226316,44.8737676 L105.820877,91.481162 L108.908596,91.481162 L108.908596,100.56743 L99.4735088,100.56743 L96.7945614,88.4794014 L82.3524561,88.4794014 L79.6735088,100.56743 L70.1208772,100.56743 L70.1208772,91.481162 L73.2664912,91.481162 L84.6805263,44.8737676 Z" id="Fill-105" fill="#000101"></path>
                    <path d="M89.3971827,80.8310199 L89.5600168,81.0339964 L89.7595737,80.7864 L91.2010109,74.2977174 L87.9769901,74.2977174 L89.3971827,80.8310199 Z M81.2044836,82.827647 L97.9077071,82.827647 L90.077247,50.525522 L89.1151938,50.525522 L81.2044836,82.827647 Z M89.607518,46.6595419 L89.2147845,46.9677015 L89.5986727,48.5513128 L89.9885641,46.9592535 L89.607518,46.6595419 Z M101.167632,96.2754521 L102.235932,97.1329164 L106.691355,97.1329164 L108.908596,94.9156752 L100.838004,94.9156752 L101.167632,96.2754521 Z M103.256842,97.9523429 L104.707538,99.1167341 L104.898557,98.9257148 L103.256842,91.5179191 L103.256842,97.9523429 Z M74.2271364,99.0219344 L74.3742736,99.1690716 L75.7726316,98.0466887 L75.7726316,92.0483041 L74.2271364,99.0219344 Z M77.8944552,96.3436209 L78.2441556,94.9156752 L70.1208772,94.9156752 L72.3381184,97.1329164 L76.9110852,97.1329164 L77.8944552,96.3436209 Z M80.2458588,39.2220132 L98.9680161,39.2220132 L110.266262,85.8294076 L114.560351,85.8294076 L114.560351,106.219184 L94.9371651,106.219184 L92.2582178,94.1311558 L86.8887998,94.1311558 L84.2098524,106.219184 L64.4691228,106.219184 L64.4691228,85.8294076 L68.8318237,85.8294076 L80.2458588,39.2220132 Z" id="Stroke-106" fill="#000101" fill-rule="nonzero"></path>
                    <polygon id="Fill-107" fill="#000101" points="106.635614 44.8739437 117.012807 44.8739437 130.221579 85.5552817 142.967193 44.8739437 153.51807 44.8739437 153.51807 53.9584507 150.256667 53.9584507 150.256667 91.481338 153.51807 91.481338 153.51807 100.567606 142.802281 100.567606 142.716316 68.3792254 132.958421 100.567606 127.368947 100.567606 117.465439 68.1890845 117.468947 100.567606 106.635614 100.567606 106.635614 91.481338 109.839123 91.481338 109.839123 53.9584507 106.635614 53.9584507"></polygon>
                    <path d="M127.368947,94.9158512 L132.958421,94.9158512 L132.958421,95.7237093 L131.572447,100.147448 L127.549733,98.9279641 L130.152032,90.3437591 L132.773542,98.9145207 L128.992474,100.071023 L127.368947,95.0707688 L127.368947,94.9158512 Z M144.604912,48.3066963 L151.299068,48.3066963 L153.51807,50.525698 L142.967193,50.525698 L148.360444,46.5636692 L144.604912,58.5505417 L144.604912,48.3066963 Z M148.329577,53.9584507 L147.866316,53.9584507 L147.866316,44.8739437 L148.306491,45.3141186 L148.329577,53.9584507 Z M153.51807,94.9158512 L151.300829,97.1330924 L145.025451,97.1330924 L144.604912,96.713675 L144.604912,94.9158512 L153.51807,94.9158512 Z M148.45249,99.9814317 L148.16733,100.266591 L147.866316,99.96638 L147.866316,91.481338 L148.429789,91.481338 L148.45249,99.9814317 Z M112.287368,44.8739437 L112.287368,53.9584507 L111.812142,53.9584507 L111.811209,45.3501029 L112.287368,44.8739437 Z M112.287368,91.481338 L112.287368,100.097992 L112.052574,100.332811 L111.817142,100.097379 L111.816208,91.481338 L112.287368,91.481338 Z M108.852855,97.1330924 L106.635614,94.9158512 L115.490877,94.9158512 L115.490877,96.8941358 L115.251946,97.1330924 L108.852855,97.1330924 Z M111.637304,46.6193088 L117.012807,50.525698 L106.635614,50.525698 L108.854616,48.3066963 L115.490877,48.3066963 L115.490877,58.487823 L111.637304,46.6193088 Z M100.98386,59.6102051 L100.98386,39.2221893 L121.119949,39.2221893 L130.125492,66.9581158 L138.81526,39.2221893 L159.169825,39.2221893 L159.169825,59.6102051 L155.908421,59.6102051 L155.908421,85.8295836 L159.169825,85.8295836 L159.169825,106.21936 L137.1656,106.21936 L123.187413,106.21936 L123.121291,106.003181 L123.121314,106.21936 L100.98386,106.21936 L100.98386,85.8295836 L104.187368,85.8295836 L104.187368,59.6102051 L100.98386,59.6102051 Z M124.828328,83.8655562 L135.597082,83.8099166 L130.125492,66.9581158 L124.828328,83.8655562 Z" id="Stroke-108" fill="#000101" fill-rule="nonzero"></path>
                    <path d="M153.518246,44.8739437 L168.425263,44.8739437 L168.425263,53.9584507 L165.165614,53.9584507 L165.165614,78.2242958 C165.165614,85.8880282 168.660351,90.4672535 173.783158,90.4672535 C179.316491,90.4672535 182.693684,85.8880282 182.693684,78.2242958 L182.693684,53.9584507 L179.490175,53.9584507 L179.490175,44.8739437 L194.284912,44.8739437 L194.284912,53.9584507 L191.081404,53.9584507 L191.081404,78.618662 C191.081404,91.4161972 184.151579,100.421479 174.249825,100.421479 C163.59193,100.421479 156.777895,91.5764085 156.777895,77.7489437 L156.777895,53.9584507 L153.518246,53.9584507 L153.518246,44.8739437 Z" id="Fill-109" fill="#000101"></path>
                    <path d="M162.429649,50.525698 L162.429649,48.3066963 L159.51386,48.3066963 L159.51386,50.525698 L162.429649,50.525698 Z M168.425263,50.525698 L166.206261,48.3066963 L162.773509,48.3066963 L162.773509,50.525698 L168.425263,50.525698 Z M188.345439,48.3066963 L185.429649,48.3066963 L185.429649,50.525698 L188.345439,50.525698 L188.345439,48.3066963 Z M181.709177,48.3066963 L179.490175,50.525698 L185.14193,50.525698 L185.14193,48.3066963 L181.709177,48.3066963 Z M194.284912,50.525698 L192.065911,48.3066963 L188.633158,48.3066963 L188.633158,50.525698 L194.284912,50.525698 Z M155.737247,48.3066963 L153.518246,50.525698 L159.17,50.525698 L159.17,48.3066963 L155.737247,48.3066963 Z M147.866491,59.6102051 L147.866491,39.2221893 L199.936667,39.2221893 L199.936667,59.6102051 L196.733158,59.6102051 L196.733158,78.618662 C196.733158,94.2741499 187.632863,106.073233 174.249825,106.073233 C160.102145,106.073233 151.12614,94.4244409 151.12614,77.7489437 L151.12614,59.6102051 L147.866491,59.6102051 Z M170.817368,78.2242958 C170.817368,82.9538602 172.157783,84.8154991 173.783158,84.8154991 C175.759036,84.8154991 177.04193,83.0591868 177.04193,78.2242958 L177.04193,59.6102051 L170.817368,59.6102051 L170.817368,78.2242958 Z" id="Stroke-110" fill="#000101" fill-rule="nonzero"></path>
                    <path d="M17.3589474,53.9588028 L17.3589474,70.8637324 L22.9501754,70.8637324 C26.9694737,70.8637324 29.8221053,67.3091549 29.8221053,62.4112676 C29.8221053,57.1982394 27.025614,53.9588028 22.6010526,53.9588028 L17.3589474,53.9588028 Z M5.65368421,44.8742958 L25.1045614,44.8742958 C32.9080702,44.8742958 38.2080702,52.1419014 38.2080702,62.8038732 C38.2080702,72.9183099 32.6747368,80.0274648 24.8712281,80.0274648 L17.3589474,80.0274648 L17.3589474,92.0450704 L20.5624561,92.0450704 L20.5624561,100.567958 L5.71157895,100.567958 L5.71157895,92.0450704 L8.97298246,92.0450704 L8.97298246,53.9588028 L5.65368421,53.9588028 L5.65368421,44.8742958 Z" id="Fill-111" fill="#7E3F98"></path>
                    <path d="M15.6633333,52.2631888 L22.6010526,52.2631888 C28.0357306,52.2631888 31.5177193,56.3271658 31.5177193,62.4112676 C31.5177193,68.1923742 27.9808874,72.5593464 22.9501754,72.5593464 L15.6633333,72.5593464 L15.6633333,52.2631888 Z M19.0545614,69.1681184 L22.9501754,69.1681184 C25.9318221,69.1681184 28.1264912,66.4583319 28.1264912,62.4112676 C28.1264912,58.0937803 26.0364608,55.6544169 22.6010526,55.6544169 L19.0545614,55.6544169 L19.0545614,69.1681184 Z M7.34929825,46.5699098 L7.34929825,52.2631888 L10.6685965,52.2631888 L10.6685965,93.7406845 L7.40719298,93.7406845 L7.40719298,98.8723437 L18.8668421,98.8723437 L18.8668421,93.7406845 L15.6633333,93.7406845 L15.6633333,78.3318508 L24.8712281,78.3318508 C31.6405362,78.3318508 36.5124561,72.0495991 36.5124561,62.8038732 C36.5124561,52.9783905 31.8318325,46.5699098 25.1045614,46.5699098 L7.34929825,46.5699098 Z M7.27736842,55.6544169 L3.95807018,55.6544169 L3.95807018,43.1786817 L25.1045614,43.1786817 C33.9761969,43.1786817 39.9036842,51.2943072 39.9036842,62.8038732 C39.9036842,73.7610434 33.729083,81.7230788 24.8712281,81.7230788 L19.0545614,81.7230788 L19.0545614,90.3494564 L22.2580702,90.3494564 L22.2580702,102.263572 L4.01596491,102.263572 L4.01596491,90.3494564 L7.27736842,90.3494564 L7.27736842,55.6544169 Z" id="Stroke-112" fill="#FFD700" fill-rule="nonzero"></path>
                    <polygon id="Fill-113" fill="#7E3F98" points="38.1494737 44.8739437 52.5915789 44.8739437 52.5915789 53.9584507 49.6810526 53.9584507 57.5424561 89.6644366 65.5214035 53.9584507 62.4933333 53.9584507 62.4933333 44.8739437 76.9354386 44.8739437 76.9354386 53.9584507 73.7915789 53.9584507 62.5512281 100.567606 52.6512281 100.567606 41.2354386 53.9584507 38.1494737 53.9584507"></polygon>
                    <path d="M39.8450877,52.2628367 L42.565871,52.2628367 L53.9816605,98.8719916 L61.2159206,98.8719916 L72.4562715,52.2628367 L75.2398246,52.2628367 L75.2398246,46.5695577 L64.1889474,46.5695577 L64.1889474,52.2628367 L67.6377436,52.2628367 L57.5301723,97.4944667 L47.5715033,52.2628367 L50.8959649,52.2628367 L50.8959649,46.5695577 L39.8450877,46.5695577 L39.8450877,52.2628367 Z M39.9050062,55.6540647 L36.4538596,55.6540647 L36.4538596,43.1783296 L54.287193,43.1783296 L54.287193,55.6540647 L51.7906019,55.6540647 L57.5547399,81.8344065 L63.4050635,55.6540647 L60.7977193,55.6540647 L60.7977193,43.1783296 L78.6310526,43.1783296 L78.6310526,55.6540647 L75.1268864,55.6540647 L63.8865355,102.26322 L51.3207957,102.26322 L39.9050062,55.6540647 Z" id="Stroke-114" fill="#FFD700" fill-rule="nonzero"></path>
                    <path d="M89.6314035,55.3015845 L84.1559649,79.9494718 L94.9892982,79.9494718 L89.6314035,55.3015845 Z M84.6805263,44.8737676 L94.5226316,44.8737676 L105.820877,91.481162 L108.908596,91.481162 L108.908596,100.56743 L99.4735088,100.56743 L96.7945614,88.4794014 L82.3524561,88.4794014 L79.6735088,100.56743 L70.1208772,100.56743 L70.1208772,91.481162 L73.2664912,91.481162 L84.6805263,44.8737676 Z" id="Fill-115" fill="#7E3F98"></path>
                    <path d="M89.6493725,47.4017584 L97.0930995,81.6450859 L82.0423418,81.6450859 L89.6493725,47.4017584 Z M86.2695881,78.2538578 L92.885497,78.2538578 L89.6134345,63.2014107 L86.2695881,78.2538578 Z M74.5969603,93.176776 L71.8164912,93.176776 L71.8164912,98.8718155 L78.3125353,98.8718155 L80.9914826,86.7837874 L98.1555349,86.7837874 L100.834482,98.8718155 L107.212982,98.8718155 L107.212982,93.176776 L104.487193,93.176776 L93.1889472,46.5693816 L86.0109954,46.5693816 L74.5969603,93.176776 Z M83.3500572,43.1781536 L95.8563159,43.1781536 L107.154562,89.7855479 L110.604211,89.7855479 L110.604211,102.263044 L98.1125353,102.263044 L95.4335879,90.1750154 L83.7134296,90.1750154 L81.0344823,102.263044 L68.4252632,102.263044 L68.4252632,89.7855479 L71.9360222,89.7855479 L83.3500572,43.1781536 Z" id="Stroke-116" fill="#FFD700" fill-rule="nonzero"></path>
                    <polygon id="Fill-117" fill="#7E3F98" points="106.635614 44.8739437 117.012807 44.8739437 130.221579 85.5552817 142.967193 44.8739437 153.51807 44.8739437 153.51807 53.9584507 150.256667 53.9584507 150.256667 91.481338 153.51807 91.481338 153.51807 100.567606 142.802281 100.567606 142.716316 68.3792254 132.958421 100.567606 127.368947 100.567606 117.465439 68.1890845 117.468947 100.567606 106.635614 100.567606 106.635614 91.481338 109.839123 91.481338 109.839123 53.9584507 106.635614 53.9584507"></polygon>
                    <path d="M108.331228,52.2628367 L111.534737,52.2628367 L111.534737,93.1769521 L108.331228,93.1769521 L108.331228,98.8719916 L115.77315,98.8719916 L115.768595,56.8442686 L128.623473,98.8719916 L131.700631,98.8719916 L144.381655,57.0410793 L144.493372,98.8719916 L151.822456,98.8719916 L151.822456,93.1769521 L148.561053,93.1769521 L148.561053,52.2628367 L151.822456,52.2628367 L151.822456,46.5695577 L144.212837,46.5695577 L130.250407,91.1347201 L115.780601,46.5695577 L108.331228,46.5695577 L108.331228,52.2628367 Z M104.94,55.6540647 L104.94,43.1783296 L118.245013,43.1783296 L130.192751,79.9758433 L141.721549,43.1783296 L155.213684,43.1783296 L155.213684,55.6540647 L151.952281,55.6540647 L151.952281,89.785724 L155.213684,89.785724 L155.213684,102.26322 L141.111189,102.26322 L141.050976,79.7173714 L134.216211,102.26322 L126.114422,102.26322 L119.162282,79.5339004 L119.164745,102.26322 L104.94,102.26322 L104.94,89.785724 L108.143509,89.785724 L108.143509,55.6540647 L104.94,55.6540647 Z" id="Stroke-118" fill="#FFD700" fill-rule="nonzero"></path>
                    <path d="M152.302807,44.8739437 L168.425614,44.8739437 L168.425614,53.9584507 L165.165965,53.9584507 L165.165965,78.2242958 C165.165965,85.8880282 168.660702,90.4672535 173.783509,90.4672535 C179.316842,90.4672535 182.694035,85.8880282 182.694035,78.2242958 L182.694035,53.9584507 L179.490526,53.9584507 L179.490526,44.8739437 L194.285263,44.8739437 L194.285263,53.9584507 L191.08,53.9584507 L191.08,78.618662 C191.08,91.4161972 184.15193,100.421479 174.248421,100.421479 C163.592281,100.421479 156.778246,91.5764085 156.778246,77.7489437 L156.778246,53.9584507 L152.302807,53.9584507 L152.302807,44.8739437 Z" id="Fill-119" fill="#7E3F98"></path>
                    <path d="M153.998421,46.5695577 L153.998421,52.2628367 L158.47386,52.2628367 L158.47386,77.7489437 C158.47386,90.7229641 164.640068,98.7258648 174.248421,98.7258648 C183.096636,98.7258648 189.384386,90.5728148 189.384386,78.618662 L189.384386,52.2628367 L192.589649,52.2628367 L192.589649,46.5695577 L181.18614,46.5695577 L181.18614,52.2628367 L184.389649,52.2628367 L184.389649,78.2242958 C184.389649,86.7079727 180.405136,92.1628676 173.783509,92.1628676 C167.48297,92.1628676 163.470351,86.5899281 163.470351,78.2242958 L163.470351,52.2628367 L166.73,52.2628367 L166.73,46.5695577 L153.998421,46.5695577 Z M150.607193,55.6540647 L150.607193,43.1783296 L170.121228,43.1783296 L170.121228,55.6540647 L166.861579,55.6540647 L166.861579,78.2242958 C166.861579,84.9116762 169.640823,88.7716395 173.783509,88.7716395 C178.260859,88.7716395 180.998421,85.0238506 180.998421,78.2242958 L180.998421,55.6540647 L177.794912,55.6540647 L177.794912,43.1783296 L195.980877,43.1783296 L195.980877,55.6540647 L192.775614,55.6540647 L192.775614,78.618662 C192.775614,92.2815355 185.190291,102.117093 174.248421,102.117093 C162.545556,102.117093 155.082632,92.4312315 155.082632,77.7489437 L155.082632,55.6540647 L150.607193,55.6540647 Z" id="Stroke-120" fill="#FFD700" fill-rule="nonzero"></path>
                    <g id="Group" transform="translate(38.000000, 15.000000)">
                        <path d="M86.4724561,17.6582746 C86.4724561,17.6582746 83.0268421,22.2674296 82.5303509,33.9082746 C82.5303509,33.9082746 85.0285965,21.7005282 88.5092982,18.3748239 C88.5092982,18.3748239 87.0812281,18.168838 86.4724561,17.6582746" id="Fill-124" fill="#6D6E71"></path>
                        <path d="M85.4359649,38.1713028 C85.3535088,38.2716549 85.5587719,39.8614437 86.2745614,40.1554577 C86.9885965,40.4512324 87.45,40.1554577 87.8710526,39.7751761 C88.2921053,39.3966549 88.8254386,37.4142606 88.8798246,36.6536972 C89.0078947,34.9670775 88.4640351,32.3473592 88.4640351,32.3473592 C88.4640351,32.3473592 87.3236842,35.0058099 86.95,35.8086268 C86.5991228,36.5480634 86.0219298,37.4565141 85.4359649,38.1713028" id="Fill-125" fill="#D1D3D4"></path>
                        <path d="M89.5982456,38.5100352 C89.3017544,39.2283451 88.9859649,39.9184859 89.6052632,40.3762324 C90.2280702,40.8322183 90.9807018,40.893838 91.3631579,40.5804577 C91.3631579,40.5804577 91.8175439,40.8022887 92.2035088,40.7899648 C92.8438596,40.7653169 93.2561404,40.3674296 93.2561404,40.3674296 C93.2561404,40.3674296 93.6614035,40.6385563 94.2736842,40.5910211 C94.8368421,40.5487676 95.1403509,40.2001761 95.1403509,40.2001761 C95.1403509,40.2001761 95.1877193,40.4096831 95.9491228,40.4096831 C96.7035088,40.4096831 96.9561404,39.9871479 96.9561404,39.6068662 C96.9561404,39.2283451 98.8964912,37.7934859 97.9684211,32.3903169 C97.9684211,32.3903169 96.3245614,36.1033451 95.6105263,36.9484155 C94.8964912,37.7934859 95.3192982,38.3005282 95.3192982,38.3005282 C95.2473684,38.4607394 95.054386,38.684331 94.9666667,38.809331 C94.9666667,38.809331 94.6122807,38.1931338 94.4017544,37.9836268 C94.1912281,37.7723592 93.877193,37.7776408 93.6631579,38.1579225 C93.4578947,38.5364437 93.2350877,38.8955986 93.2350877,38.8955986 C93.2350877,38.8955986 92.7526316,38.047007 92.3315789,37.9607394 C91.9122807,37.8762324 91.277193,39.4818662 91.277193,39.4818662 C91.277193,39.4818662 91.1491228,38.8058099 90.8157895,38.4255282 C90.4789474,38.047007 90.3105263,37.4132042 89.9754386,37.8357394 C89.6368421,38.2565141 89.5982456,38.5100352 89.5982456,38.5100352" id="Fill-126" fill="#D1D3D4"></path>
                        <path d="M84.2759649,30.193662 C84.2198246,31.2605634 84.1180702,35.0792254 84.6777193,35.9612676 C85.2338596,36.8433099 85.6338596,35.9612676 85.7935088,35.403169 C85.9549123,34.8415493 86.0338596,34.1989437 85.1549123,33.5598592 C85.1549123,33.5598592 85.2338596,32.9190141 85.3935088,32.1179577 C85.5549123,31.3169014 84.6777193,30.915493 84.6777193,30.915493 C84.6777193,30.915493 84.7566667,30.6725352 84.9952632,30.193662 C85.2338596,29.7147887 84.3549123,28.6725352 84.2759649,30.193662" id="Fill-127" fill="#D1D3D4"></path>
                        <path d="M96.2235088,40.1931338 C96.2235088,40.1931338 95.9936842,39.877993 96.0761404,39.5329225 C96.0761404,39.5329225 96.1498246,38.8198944 95.8708772,37.8427817 C95.8708772,37.8427817 97.4621053,39.6772887 96.2235088,40.1931338" id="Fill-128" fill="#FFFFFF"></path>
                        <path d="M94.5761404,40.3153229 C94.5761404,40.3153229 95.0182456,40.3258803 94.897193,39.4614437 C94.7796491,38.5934859 94.0007018,38.0019366 94.0007018,38.0019366 C94.0007018,38.0019366 94.3761404,39.0758803 94.1498246,39.7308099 C94.1498246,39.7308099 94.3322807,40.1991197 94.5761404,40.3153229" id="Fill-129" fill="#FFFFFF"></path>
                        <path d="M92.7182456,40.4700704 C92.7182456,40.4700704 93.8761404,39.6461268 92.2814035,38.1390845 C92.2814035,38.1390845 92.2708772,39.4330986 92.0901754,39.7411972 C92.0901754,39.7411972 92.2849123,40.3116197 92.7182456,40.4700704" id="Fill-130" fill="#FFFFFF"></path>
                        <path d="M90.7812281,40.5369718 C90.7812281,40.5369718 90.0935088,40.0897887 89.9075439,39.6232394 C89.9075439,39.6232394 90.2373684,38.6338028 90.3110526,38.0721831 C90.3110526,38.0721831 91.7496491,39.9964789 90.7812281,40.5369718" id="Fill-131" fill="#FFFFFF"></path>
                        <path d="M97.9136842,33.4931338 C97.9136842,33.4931338 98.317193,36.7642606 96.9014035,39.1128521 C96.9014035,39.1128521 96.7294737,38.4455986 96.4698246,38.2167254 C96.4698246,38.2167254 97.5645614,35.8100352 97.9136842,33.4931338" id="Fill-132" fill="#FFFFFF"></path>
                        <path d="M88.382807,33.259331 C88.382807,33.259331 88.7845614,35.6625 88.582807,36.8227113 C88.382807,37.9846831 88.0354386,39.4336268 87.3740351,39.6044014 C87.3740351,39.6044014 86.5617544,39.4336268 86.36,38.7346831 C86.36,38.7346831 88.0933333,36.3596831 88.382807,33.259331" id="Fill-133" fill="#FFFFFF"></path>
                        <path d="M85.2054386,33.8387324 C85.2054386,33.8387324 85.6966667,34.4760563 85.6966667,34.7084507 C85.6966667,34.9408451 85.3212281,35.4602113 85.3212281,35.4602113 C85.3212281,35.4602113 84.5124561,34.4478873 85.2054386,33.8387324" id="Fill-134" fill="#FFFFFF"></path>
                        <path d="M84.9261404,31.5485915 C84.9261404,31.5485915 85.2805263,31.7669014 85.2314035,32.0292254 C85.1875439,32.2933099 84.9349123,32.5362676 84.9349123,32.5362676 C84.9349123,32.5362676 84.6085965,32.3443662 84.6015789,32.1401408 C84.6015789,32.1401408 84.8331579,32.103169 84.9261404,31.5485915" id="Fill-135" fill="#FFFFFF"></path>
                        <path d="M106.42,17.9075704 C106.802456,18.3089789 107.388421,17.9533451 107.472632,18.2086268 C107.556842,18.4603873 107.470877,18.756162 107.262105,19.0519366 C107.049825,19.3477113 107.007719,19.5149648 107.007719,19.5149648 C107.007719,19.5149648 106.588421,21.034331 106.123509,21.965669 C105.697193,22.8283451 104.444561,25.3829225 102.467368,26.2702465 C102.467368,26.2702465 103.435789,23.6540493 103.642807,22.9339789 C103.855088,22.2174296 104.149825,20.9515845 104.105965,20.2332746 C104.105965,20.2332746 103.981404,20.4885563 103.642807,20.3617958 C103.309474,20.2332746 102.970877,19.897007 102.970877,19.6417254 C102.970877,19.3899648 103.016491,18.9691901 103.016491,18.9691901 C103.016491,18.9691901 102.670877,19.4991197 102.300702,19.6875 C101.928772,19.8705986 101.414737,20.1047535 101.286667,19.7262324 C101.16386,19.3477113 101.079649,18.8864437 101.16386,18.5448944 C101.16386,18.5448944 100.660351,19.3072183 100.409474,19.5572183 C100.153333,19.8125 99.774386,20.022007 99.6077193,19.852993 C99.4392982,19.6875 98.7673684,19.2191901 98.8954386,18.756162 C99.0182456,18.2931338 99.0182456,17.5765845 99.6919298,17.4480634 C100.36386,17.3230634 101.295439,17.1329225 101.397193,17.5431338 C101.397193,17.5431338 102.004211,17.2367958 102.381404,17.1522887 C102.762105,17.0677817 103.183158,17.4480634 103.309474,17.618838 C103.309474,17.618838 103.856842,17.1963028 104.193684,17.1963028 C104.527018,17.1963028 104.99193,17.3230634 105.158596,17.5325704 C105.158596,17.5325704 105.453333,17.2808099 105.874386,17.3635563 C106.293684,17.4480634 106.337544,17.8195423 106.42,17.9075704" id="Fill-136" fill="#D1D3D4"></path>
                        <path d="M106.459474,20.2612676 C106.459474,20.2612676 105.768246,20.6397887 105.392807,20.55 C105.392807,20.55 104.887544,23.0728873 104.257719,24.4320423 C104.257719,24.4320423 106.033158,22.0024648 106.459474,20.2612676" id="Fill-137" fill="#FFFFFF"></path>
                        <path d="M106.74807,18.593662 C106.74807,18.593662 106.362105,19.7978873 105.27614,20.3049296 C105.27614,20.3049296 106.404211,20.1605634 107.051579,18.8542254 C107.051579,18.8542254 107.169123,18.6517606 107.155088,18.3630282 C107.155088,18.3630282 106.965614,18.593662 106.74807,18.593662" id="Fill-138" fill="#FFFFFF"></path>
                        <path d="M106.055965,17.7683099 C106.055965,17.7683099 105.710351,17.9866197 105.620877,18.4214789 C105.620877,18.4214789 105.364737,19.2612676 104.671754,20.1890845 C104.671754,20.1890845 106.922632,19.0588028 106.055965,17.7683099" id="Fill-139" fill="#FFFFFF"></path>
                        <path d="M104.670702,17.6102113 C104.670702,17.6102113 105.100526,17.6823944 104.840877,18.6383803 C104.581228,19.5943662 103.716316,20.115493 103.716316,20.115493 C103.716316,20.115493 104.265439,18.9693662 104.149649,18.1894366 C104.149649,18.1894366 104.411053,17.6964789 104.670702,17.6102113" id="Fill-140" fill="#FFFFFF"></path>
                        <path d="M102.790526,17.5225352 C102.790526,17.5225352 103.674737,18.640493 101.722105,19.6387324 C101.722105,19.6387324 102.069474,18.3922535 101.985263,18.043662 C101.985263,18.043662 102.330877,17.5524648 102.790526,17.5225352" id="Fill-141" fill="#FFFFFF"></path>
                        <path d="M100.917895,17.5517606 C100.917895,17.5517606 100.130175,17.7735915 99.8214035,18.1397887 C99.8214035,18.1397887 99.8617544,19.1169014 99.7740351,19.6380282 C99.7740351,19.6380282 101.695088,18.2911972 100.917895,17.5517606" id="Fill-142" fill="#FFFFFF"></path>
                        <path d="M20.5929825,1.03785211 C20.5929825,1.03785211 18.6333333,6.26320423 15.1526316,9.61707746 C11.6701754,12.9709507 9.45263158,15.3371479 7.5245614,17.8089789 C6.34561404,19.3177817 0.384210526,22.3758803 0.384210526,22.3758803 C0.384210526,22.3758803 6.67368421,23.9797535 9.52982456,20.8160211 C14.6052632,15.1910211 18.4947368,14.4075704 19.0736842,8.66109155 C19.6508772,2.91461268 20.9649123,-0.337147887 20.5929825,1.03785211" id="Fill-143" fill="#6D6E71"></path>
                    </g>
                    <g id="Path" transform="translate(5.000000, 44.000000)">
                        <mask id="mask-16" fill="white">
                            <use xlink:href="#path-15"></use>
                        </mask>
                        <use id="Mask" fill="#4F2582" xlink:href="#path-15"></use>
                        <g mask="url(#mask-16)" fill="black" fill-opacity="1">
                            <use filter="url(#filter-18)" xlink:href="#path-17"></use>
                        </g>
                    </g>
                </g>
            </g>
        </g>
    </g>
</svg>