<?xml version="1.0" encoding="UTF-8"?>
<svg width="200px" height="200px" viewBox="0 0 200 200" version="1.1" xmlns="http://www.w3.org/2000/svg" xmlns:xlink="http://www.w3.org/1999/xlink">
    <!-- Generator: Sketch 54.1 (76490) - https://sketchapp.com -->
    <title>quinnipiac</title>
    <desc>Created with Sketch.</desc>
    <defs>
        <polygon id="path-1" points="0.0375 0 200 0 200 200 0.0375 200"></polygon>
    </defs>
    <g id="quinnipiac" stroke="none" stroke-width="1" fill="none" fill-rule="evenodd">
        <g id="quinnipiac_BGL">
            <g id="quinnipiac">
                <g id="Group-3">
                    <mask id="mask-2" fill="white">
                        <use xlink:href="#path-1"></use>
                    </mask>
                    <g id="Clip-2"></g>
                    <path d="M200,100 C200,155.228125 155.228125,200 100,200 C44.77125,200 0,155.228125 0,100 C0,44.77125 44.77125,0 100,0 C155.228125,0 200,44.77125 200,100" id="Fill-1" fill="#F2AF36" mask="url(#mask-2)"></path>
                </g>
                <path d="M162.183125,106.664375 C162.183125,106.664375 159.423125,102.62 159.423125,102.62875 C159.423125,108.2975 160.430625,117.930625 155.8075,127.940625 C155.8075,127.940625 153.31,126.85125 152.9325,125.97875 C151.52625,130.165 148.2625,138.184375 141.841875,146.295625 L139.464375,149.303125 L139.539375,145.4675 C139.54125,145.395 139.635625,138.064375 135.61875,134.12625 C133.820625,132.3675 131.415625,131.535625 128.469375,131.651875 C118.4925,132.049375 111.8975,153.93375 111.8975,153.93375 C111.8975,153.93375 102.849375,155.64875 99.620625,155.395 C96.38,155.58875 87.405,153.798125 87.405,153.798125 C87.405,153.798125 81.16625,131.725625 71.19875,131.156875 C68.253125,130.98625 65.833125,131.77875 64.005625,133.504375 C59.9225,137.37 59.8975,148.613125 59.8975,148.613125 C57.82375,146.540625 56.05375,144.2825 54.545,142.003125 C48.74125,133.239375 46.845625,124.16875 46.845625,124.178125 L43.925625,126.969375 C41.253125,119.74375 40.84625,102.449375 40.80125,102.62875 L37.9225,105.58625 C38.185,90.143125 41.06875,80.264375 43.59,76.8225 C42.51125,77.06625 37.781875,79.266875 37.781875,79.266875 C42.318125,69.754375 51.244375,59.404375 53.6025,57.16375 C46.12125,47.5975 45.229375,36.693125 45.129375,34.339375 C44.075625,33.051875 40.541875,28.488125 39.538125,23.8225 C39.238125,22.4225 39.125,21.020625 39.125,19.70625 C39.125,15.974375 42.6125,13.124375 42.6125,13.124375 C43.07125,22.6425 56.34125,30.97625 67.564375,35.214375 C77.484375,38.965625 82.525625,45.690625 83.923125,47.815625 C87.4675,47.561875 92.875,47.494375 98.341875,47.53 C98.613125,47.531875 98.885,47.534375 99.156875,47.536875 C107.01625,47.6025 114.8125,47.873125 117.189375,48.101875 C118.624375,46.0075 123.7825,39.365625 133.7625,35.78875 C145.061875,31.74375 158.475,23.643125 159.096875,14.134375 C159.096875,14.134375 162.4725,16.82625 162.4725,20.37625 C162.4725,21.800625 162.345625,23.345625 161.98625,24.885625 C160.900625,29.5325 157.289375,34.033125 156.21125,35.300625 C156.07,37.655 154.9925,48.54 147.345,57.97875 C149.664375,60.26 157.670625,69.4775 162.04125,79.065625 C162.04125,79.065625 158.09125,78.068125 157.0175,77.808125 C159.39625,81.18375 162.84625,93.966875 162.183125,106.664375 Z M166.456875,83.21625 C161.540625,69.85125 153.94625,61.341875 150.705625,57.754375 C157.003125,48.96375 158.446875,39.586875 158.74,36.335 C160.44375,34.231875 163.464375,30.025625 164.523125,25.478125 C164.89375,23.9 165.080625,22.185 165.080625,20.37625 C165.080625,15.7075 160.18625,10.50375 156.819375,8.9825 C158.706875,21.630625 144.270625,29.2525 132.8825,33.3375 C123.609375,36.654375 118.17375,42.51875 115.904375,45.45625 C112.555625,45.096875 91.174375,44.488125 85.254375,45.191875 C83.0375,42.2125 77.701875,36.25625 68.489375,32.775625 C57.17125,28.5 42.939375,19.979375 44.903125,8.37875 C42.8525,8.76625 36.519375,14.878125 36.519375,19.70625 C36.519375,21.3475 36.676875,22.918125 36.98875,24.371875 C37.97,28.93 40.918125,33.191875 42.58375,35.326875 C42.8225,38.586875 44.103125,47.995625 50.256875,56.89625 C46.761875,60.72375 36.84,72.639375 32.835,84.578125 C32.835,84.578125 36.84,82.116875 38.545,81.786875 C36.876875,87.095 34.725625,99.720625 35.203125,112.11625 C35.203125,112.11625 37.19875,110.065 38.526875,108.70375 C39.1125,117.681875 40.46125,126.576875 42.8575,131.5975 C42.8575,131.5975 44.86875,129.6775 45.3925,129.173125 C47.11125,135.441875 54.411875,148.480625 62.493125,154.60625 C61.9725,151.088125 62.363125,139.090625 65.796875,135.398125 C67.01875,134.086875 68.81875,133.630625 71.046875,133.764375 C76.945625,134.09875 82.67125,146.66625 84.89375,154.506875 L85.32875,156.043125 C85.32875,156.043125 94.565625,158.005 99.628125,158.005 C105.25625,158.005 113.9375,156.200625 113.9375,156.200625 L114.393125,154.68625 C116.743125,146.914375 122.67,134.493125 128.574375,134.25625 C130.80625,134.170625 132.5125,134.735625 133.794375,135.986875 C136.426875,138.56875 138.10875,146.3925 136.3275,156.9925 C146.06125,147.305 152.374375,134.639375 154.2,130.0525 C154.395625,130.144375 157.105625,131.351875 157.105625,131.351875 C157.105625,131.351875 161.705625,123.058125 162.084375,111.140625 C163.23125,112.813125 164.38375,114.50125 164.38375,114.50125 C164.38375,114.50125 166.789375,96.591875 161.5225,81.623125 C161.74875,81.6825 166.456875,83.21625 166.456875,83.21625 L166.456875,83.21625 Z" id="Fill-4" fill="#F2AF36"></path>
                <path d="M196.26875,100 C196.26875,153.1675 153.1675,196.26875 100,196.26875 C46.8325,196.26875 3.73125,153.1675 3.73125,100 C3.73125,46.8325 46.8325,3.73125 100,3.73125 C153.1675,3.73125 196.26875,46.8325 196.26875,100" id="Fill-5" fill="#121B2C"></path>
                <path d="M100,166.098125 C63.495,166.098125 33.901875,136.505 33.901875,100 C33.901875,63.495 63.495,33.901875 100,33.901875 C136.505,33.901875 166.098125,63.495 166.098125,100 C166.098125,136.505 136.505,166.098125 100,166.098125 Z M100,8.37875 C49.399375,8.37875 8.37875,49.399375 8.37875,100 C8.37875,150.60125 49.399375,191.62125 100,191.62125 C150.60125,191.62125 191.62125,150.60125 191.62125,100 C191.62125,49.399375 150.60125,8.37875 100,8.37875 L100,8.37875 Z" id="Fill-6" fill="#F2AF36"></path>
                <path d="M142.700625,94.65125 C151.031875,95.5025 154.605625,102.1325 154.605625,102.1325 C154.945,100.77375 154.434375,96.6925 154.434375,96.6925 C149.673125,91.420625 142.5325,90.059375 133.6875,93.29125 C130.026875,94.62875 124.96875,97.511875 120.29625,100.43125 C120.511875,101.416875 120.599375,102.430625 120.545625,103.423125 C127.59875,98.64 136.8075,94.050625 142.700625,94.65125" id="Fill-7" fill="#F2AF36"></path>
                <path d="M111.41,104.98625 C109.841875,106.519375 108.618125,107.84125 107.841875,108.7675 C108.619375,107.841875 109.840625,106.52125 111.41,104.98625" id="Fill-8" fill="#F2AF36"></path>
                <path d="M133.72,85.246875 C138.94,78.2275 148.476875,79.846875 148.476875,79.846875 C150.81875,82.365 151.896875,85.783125 151.896875,85.783125 C142.9,80.385625 133.72,85.246875 133.72,85.246875 Z M127.69625,90.19375 C127.69625,90.19375 116.18625,87.22375 109.666875,92.71125 C109.3575,91.42125 110.01625,89.66 110.01625,89.66 C102.575625,90.210625 106.425625,79.91125 106.425625,79.91125 C106.10125,81.170625 106.29125,83.82 107.19375,85.355 C109.2375,85.6125 112.034375,82.6125 112.74375,80.763125 C113.254375,79.429375 114.526875,76.65375 117.80125,74.631875 C118.996875,63.720625 111.949375,56.63125 111.949375,56.63125 C119.868125,62.654375 121.8075,70.948125 122.15875,72.85125 C123.74625,72.46125 125.59,72.233125 127.74,72.2475 C127.74,72.2475 126.380625,69.308125 122.79,66.70625 C122.79,66.70625 132.119375,70.04375 135.645,77.38875 C133.709375,76.849375 130.78875,77.024375 130.133125,77.0725 C130.393125,77.05375 131,77.015625 131.756875,77.010625 C132.17125,78.83375 133.38125,86.069375 127.69625,90.19375 Z M144.279375,67.426875 C144.279375,67.426875 147.294375,69.15375 147.50875,70.44625 C147.50875,70.44625 142.555625,69.799375 138.465,71.090625 C138.465,71.090625 141.91125,68.503125 144.279375,67.426875 Z M88.648125,89.3275 C88.648125,89.3275 89.134375,91.143125 88.700625,92.39875 C82.796875,86.2575 71.17375,88.1475 71.17375,88.1475 C66.00625,83.508125 67.868125,76.54875 68.495625,74.676875 C69.361875,74.7775 69.968125,74.88875 69.968125,74.88875 C69.968125,74.88875 66.555,74.2525 64.315,74.646875 C64.315,74.646875 64.511875,74.4825 64.875625,74.25375 C64.8475,74.271875 64.808125,74.29375 64.781875,74.310625 C69.14,67.59125 78.513125,65.30625 78.513125,65.30625 C74.66875,67.5175 73.0075,70.29625 73.0075,70.29625 C75.31125,70.49625 77.198125,70.956875 78.76,71.581875 C79.1725,69.6 81.185625,62.17375 89.01625,56.435625 C89.01625,56.435625 82.313125,63.70375 83.07875,74.371875 C84.9875,76.28375 85.843125,78.4675 86.44375,80.045625 C87.049375,81.653125 89.244375,84.7575 91.61875,85.645 C92.850625,84.31 93.375,81.3525 93.158125,79.966875 C93.158125,79.966875 95.999375,90.5875 88.648125,89.3275 Z M48.569375,84.885 C48.569375,84.885 49.708125,81.49125 52.090625,79.008125 C52.090625,79.008125 61.651875,77.555625 66.750625,84.66625 C66.750625,84.66625 57.65875,79.64625 48.569375,84.885 Z M53.060625,69.261875 C53.484375,68.019375 56.74,66.815625 56.74,66.815625 C58.90125,68.26125 61.87625,71.37375 61.87625,71.37375 C58.050625,69.43375 53.060625,69.261875 53.060625,69.261875 Z M146.271875,74.0775 C148.99375,72.374375 152.734375,71.863125 152.734375,71.863125 C147.63125,62.515 131.308125,52.13875 131.308125,52.13875 C131.55875,52.175 131.801875,52.216875 132.045625,52.258125 C132.03625,52.25625 132.026875,52.25375 132.016875,52.2525 C132.579375,51.62625 134.55375,49.7 138.54,48.486875 C138.54,48.486875 136.446875,47.649375 131.63125,49.7425 C131.63125,49.7425 133.015625,46.31375 137.770625,42.873125 C138.003125,42.754375 138.250625,42.62875 138.5025,42.50125 C137.11875,43.2 135.993125,43.784375 135.388125,44.14625 C132.83875,45.678125 127.396875,49.246875 126.5475,54.346875 C125.696875,59.451875 130.28875,61.15375 130.28875,61.15375 C119.234375,62.004375 117.871875,52.31 117.871875,52.31 C113.961875,52.13875 108.180625,52.31 108.180625,52.31 C105.800625,55.370625 107.841875,60.81375 108.520625,65.915625 C109.201875,71.015625 105.800625,72.374375 105.800625,72.374375 C107.163125,67.44125 103.080625,64.55375 103.080625,64.55375 C103.76,67.955 102.228125,70.504375 101.210625,71.863125 C100.9325,72.234375 100.630625,72.769375 100.3375,73.349375 C100.05375,72.763125 99.76125,72.2225 99.490625,71.848125 C98.49125,70.471875 97.006875,67.895 97.7475,64.504375 C97.7475,64.504375 93.614375,67.321875 94.889375,72.280625 C94.889375,72.280625 91.513125,70.86125 92.28125,65.773125 C93.05,60.68375 95.186875,55.275625 92.85875,52.176875 C92.85875,52.176875 87.081875,51.9075 83.165625,52.00625 C83.165625,52.00625 81.63875,61.67625 70.60125,60.633125 C70.60125,60.633125 75.22125,59.01125 74.46,53.89875 C73.6975,48.78125 68.32,45.115 65.795,43.5425 C63.88625,42.353125 56.7625,38.83125 52.60875,36.51125 C55.695625,38.236875 60.420625,40.625 63.434375,42.2275 C68.133125,45.75375 69.455,49.20125 69.455,49.20125 C64.676875,47.026875 62.570625,47.826875 62.570625,47.826875 C66.53,49.10625 68.469375,51.063125 69.02375,51.7075 C69.259375,51.6725 69.494375,51.635625 69.7375,51.605 C69.7375,51.605 53.23625,61.695 47.9725,70.95625 C47.9725,70.95625 51.705,71.53125 54.395,73.27875 C54.395,73.27875 45.351875,74.993125 42.62875,94.674375 C42.62875,94.674375 49.95125,84.258125 62.98625,87.883125 C69.33625,89.651875 75.605625,93.59875 80.7725,97.680625 C81.9925,95.234375 84.08875,93.4225 86.755625,93.468125 C91.61,93.554375 96.5575,98.8575 96.5575,98.8575 C93.273125,97.0625 88.170625,96.20875 85.483125,97.583125 C87.669375,98.578125 89.1275,100.4125 89.1275,100.4125 C89.1275,100.4125 93.74875,102.886875 100.1025,102.581875 C106.428125,102.985625 111.07,100.601875 111.07,100.601875 C111.07,100.601875 112.49875,98.76375 114.724375,97.81375 C112.049375,96.424375 106.97,97.1925 103.669375,98.921875 C103.669375,98.921875 108.71,93.7025 113.568125,93.7025 C116.235,93.7025 118.299375,95.550625 119.47625,98.016875 C124.713125,94.025 131.050625,90.186875 137.430625,88.530625 C150.525,85.1275 157.664375,95.671875 157.664375,95.671875 C155.285,75.9475 146.271875,74.0775 146.271875,74.0775 L146.271875,74.0775 Z" id="Fill-9" fill="#F2AF36"></path>
                <path d="M107.4475,85.755625 C107.354375,85.6375 107.275625,85.49375 107.19375,85.355 C107.188125,85.35375 107.18125,85.355 107.175,85.35375 C107.25875,85.49875 107.350625,85.6325 107.4475,85.755625" id="Fill-10" fill="#F2AF36"></path>
                <path d="M130.085,77.07625 C130.0325,77.08 129.995,77.083125 129.995,77.083125 C129.995,77.083125 130.031875,77.08 130.085,77.07625" id="Fill-11" fill="#F2AF36"></path>
                <path d="M154.474375,115.108125 C154.3825,115.661875 154.2825,116.20875 154.17375,116.719375 C154.2825,116.209375 154.3825,115.661875 154.474375,115.108125" id="Fill-12" fill="#F2AF36"></path>
                <path d="M138.11,97.88 C130.45875,98.393125 120.425625,105.53125 120.425625,105.53125 C120.27875,106.556875 119.705,108.531875 118.88375,111.016875 C137.634375,100.5625 142.516875,105.42625 142.516875,105.42625 C140.42375,106.263125 138.121875,108.1475 138.121875,108.1475 C145.664375,107.829375 152.02625,111.526875 154.7325,113.389375 C154.9775,111.605625 155.115625,110.125 155.115625,110.125 C153.243125,103.8325 145.76125,97.370625 138.11,97.88" id="Fill-13" fill="#F2AF36"></path>
                <path d="M114.700625,122.63125 C114.205,123.93625 113.706875,125.22875 113.21875,126.478125 C113.7075,125.22875 114.205,123.936875 114.700625,122.63125" id="Fill-14" fill="#F2AF36"></path>
                <path d="M112.695625,127.815625 C112.379375,128.6175 112.07,129.394375 111.771875,130.13875 C112.070625,129.394375 112.379375,128.6175 112.695625,127.815625" id="Fill-15" fill="#F2AF36"></path>
                <path d="M83.32,102.340625 C87.274375,105.013125 90.526875,107.3825 91.723125,108.2625 C90.53,107.38375 87.278125,105.015 83.32,102.33875 C83.32,102.339375 83.32,102.34 83.32,102.340625" id="Fill-16" fill="#F2AF36"></path>
                <path d="M52.51125,36.456875 C52.248125,36.309375 51.995,36.16625 51.759375,36.03 C51.994375,36.165625 52.249375,36.309375 52.51125,36.456875" id="Fill-17" fill="#F2AF36"></path>
                <path d="M52.60875,36.51125 C52.57625,36.493125 52.543125,36.474375 52.51125,36.456875 C52.543125,36.474375 52.57625,36.493125 52.60875,36.51125" id="Fill-18" fill="#F2AF36"></path>
                <path d="M66.6425,92.708125 C57.858125,89.324375 50.694375,90.5625 45.840625,95.750625 C45.840625,95.750625 45.261875,99.8225 45.57625,101.185 C45.57625,101.185 49.263125,94.621875 57.60875,93.914375 C63.51125,93.41375 72.63875,98.16125 79.60875,103.065 C79.571875,102.071875 79.678125,101.060625 79.91125,100.07875 C75.28875,97.079375 70.280625,94.10875 66.6425,92.708125" id="Fill-19" fill="#F2AF36"></path>
                <path d="M99.38875,141.384375 C99.489375,141.38875 99.5925,141.393125 99.6875,141.396875 C99.695625,141.396875 99.704375,141.3975 99.7125,141.398125 C99.718125,141.3975 99.724375,141.3975 99.729375,141.3975 C99.871875,141.394375 100.025,141.39125 100.179375,141.386875 C100.01375,141.390625 99.855625,141.39375 99.70375,141.39625 C99.601875,141.393125 99.4975,141.38875 99.38875,141.384375" id="Fill-20" fill="#F2AF36"></path>
                <path d="M62.144375,97.22375 C54.50125,96.579375 46.90625,102.91125 44.92875,109.16875 C44.92875,109.16875 45.04125,110.653125 45.255,112.440625 C47.99125,110.62625 54.416875,107.04 61.95375,107.488125 C61.95375,107.488125 59.683125,105.56 57.605625,104.688125 C57.605625,104.688125 62.57375,99.910625 81.138125,110.69 C80.36,108.19125 79.820625,106.206875 79.693125,105.178125 C79.693125,105.178125 69.784375,97.868125 62.144375,97.22375" id="Fill-21" fill="#F2AF36"></path>
                <path d="M79.8375,85.03375 C81.481875,85.4425 83.396875,86.05375 85.555,86.981875 C85.555,86.981875 81.9975,81.508125 80.509375,80.035 C80.663125,81.34125 80.67875,83.30875 79.8375,85.03375" id="Fill-22" fill="#F2AF36"></path>
                <path d="M73.46,84.275 C73.46,84.275 74.730625,84.14625 76.988125,84.46875 C76.94,84.08875 76.900625,83.62875 76.88875,83.098125 C76.0375,82.925 75.4425,82.1275 75.545625,81.25 C75.645,80.3875 76.375,79.765 77.21875,79.761875 C77.360625,79.124375 77.5625,78.459375 77.82875,77.780625 C76.415625,76.83 74.655625,76.04375 72.6225,76.086875 C72.6225,76.086875 71.035625,80.886875 73.46,84.275" id="Fill-23" fill="#F2AF36"></path>
                <path d="M118.871875,84.89625 C117.93875,84.93 117.151875,84.205 117.115,83.268125 C117.11375,83.20875 117.121875,83.158125 117.125,83.10125 C117.678125,82.48125 118.203125,81.93 118.633125,81.52875 C118.668125,81.52375 118.70375,81.51 118.74125,81.506875 C118.885,81.501875 119.0225,81.52 119.15625,81.549375 C119.186875,81.354375 119.220625,81.168125 119.2575,80.99375 C119.186875,81.04875 119.11625,81.105 119.050625,81.156875 C117.45375,82.433125 113.31875,87.624375 113.31875,87.624375 C115.720625,86.855625 117.81875,86.4175 119.570625,86.17875 C119.38625,85.745 119.251875,85.300625 119.164375,84.855625 C119.069375,84.87625 118.9725,84.8925 118.871875,84.89625" id="Fill-24" fill="#F2AF36"></path>
                <path d="M122.20625,79.04875 C123.030625,82.071875 122.606875,84.681875 122.29,85.9375 C124.4425,85.85625 125.616875,86.09375 125.616875,86.09375 C128.358125,82.954375 127.236875,78.02125 127.236875,78.02125 C125.354375,77.8 123.643125,78.320625 122.20625,79.04875" id="Fill-25" fill="#F2AF36"></path>
                <path d="M157.664375,95.671875 C157.664375,95.671875 150.525,85.1275 137.430625,88.530625 C131.050625,90.186875 124.713125,94.025 119.47625,98.016875 C118.299375,95.550625 116.235,93.7025 113.568125,93.7025 C108.71,93.7025 103.669375,98.921875 103.669375,98.921875 C106.97,97.1925 112.049375,96.424375 114.724375,97.81375 C115.11375,98.01625 115.45375,98.26375 115.7275,98.56125 C116.135,99.0025 116.4075,99.6175 116.581875,100.324375 L116.5825,100.325 C116.393125,100.481875 116.204375,100.639375 116.019375,100.795625 C116.00125,100.81125 115.983125,100.82625 115.965,100.841875 C115.230625,101.465 114.5325,102.078125 113.86875,102.676875 C113.805625,102.734375 113.73875,102.79375 113.67625,102.850625 C113.595625,102.92375 113.519375,102.995 113.44,103.0675 C113.258125,103.234375 113.07625,103.400625 112.900625,103.564375 C112.85,103.61125 112.80125,103.6575 112.751875,103.70375 C112.54875,103.89375 112.348125,104.0825 112.153125,104.268125 C112.125625,104.294375 112.1,104.319375 112.0725,104.345 C111.858125,104.550625 111.648125,104.753125 111.445,104.9525 C111.433125,104.963125 111.42125,104.974375 111.41,104.98625 C109.840625,106.52125 108.619375,107.841875 107.841875,108.7675 C107.841875,108.7675 111.78,105.930625 116.846875,102.631875 C116.846875,102.631875 116.846875,102.6325 116.846875,102.633125 C116.870625,103.940625 116.7325,105.274375 116.585,106.29875 C116.585,106.30125 116.584375,106.30375 116.584375,106.305625 C116.293125,106.533125 115.999375,106.761875 115.72375,106.985625 C115.675625,107.024375 115.62875,107.06375 115.58125,107.1025 C115.178125,107.43125 114.793125,107.754375 114.43,108.07 C114.39625,108.099375 114.36375,108.128125 114.330625,108.158125 C113.96,108.481875 113.606875,108.799375 113.28375,109.104375 C107.163125,114.888125 104.270625,115.226875 100.529375,115.226875 C100.529375,115.226875 100.699375,112.6775 102.910625,110.46625 C105.121875,108.25625 109.711875,105.023125 111.07,100.601875 C111.07,100.601875 106.428125,102.985625 100.1025,102.581875 C93.74875,102.886875 89.1275,100.4125 89.1275,100.4125 C90.41,104.85875 94.9475,108.164375 97.12,110.416875 C99.29125,112.666875 99.416875,115.21875 99.416875,115.21875 C95.676875,115.15125 92.7925,114.76 86.7725,108.874375 C86.45,108.558125 86.098125,108.230625 85.726875,107.895 C85.701875,107.871875 85.6775,107.85 85.651875,107.82625 C85.276875,107.489375 84.88,107.14375 84.461875,106.790625 C84.444375,106.77625 84.4275,106.76125 84.410625,106.7475 C84.12625,106.508125 83.820625,106.2625 83.51875,106.0175 C83.51875,106.015 83.518125,106.011875 83.5175,106.009375 C83.388125,104.9825 83.273125,103.6475 83.32,102.340625 C83.32,102.34 83.32,102.339375 83.32,102.33875 C87.278125,105.015 90.53,107.38375 91.723125,108.2625 C91.736875,108.2725 91.751875,108.28375 91.765,108.29375 C91.838125,108.3475 91.8975,108.39125 91.953125,108.4325 C91.975,108.44875 92.000625,108.4675 92.02,108.481875 C92.050625,108.504375 92.068125,108.5175 92.091875,108.535 C92.166875,108.590625 92.21875,108.629375 92.21875,108.629375 C92.11875,108.505625 92.00875,108.373125 91.89375,108.23625 C91.7925,108.115625 91.684375,107.989375 91.5725,107.86 C91.556875,107.841875 91.5425,107.825 91.52625,107.805625 C91.405,107.66625 91.276875,107.52 91.14375,107.369375 C91.134375,107.359375 91.126875,107.35125 91.11875,107.34125 C89.448125,105.4625 86.839375,102.81125 83.625625,100.039375 C83.625625,100.03875 83.625625,100.0375 83.62625,100.036875 C83.813125,99.33375 84.09625,98.724375 84.51125,98.29 C84.78,98.008125 85.10875,97.774375 85.483125,97.583125 C88.170625,96.20875 93.273125,97.0625 96.5575,98.8575 C96.5575,98.8575 91.61,93.554375 86.755625,93.468125 C84.08875,93.4225 81.9925,95.234375 80.7725,97.680625 C75.605625,93.59875 69.33625,89.651875 62.98625,87.883125 C49.95125,84.258125 42.62875,94.674375 42.62875,94.674375 C45.351875,74.993125 54.395,73.27875 54.395,73.27875 C51.705,71.53125 47.9725,70.95625 47.9725,70.95625 C53.23625,61.695 69.7375,51.605 69.7375,51.605 C69.494375,51.635625 69.259375,51.6725 69.02375,51.7075 C69.02375,51.708125 69.025,51.709375 69.025625,51.71 C63.449375,52.54125 59.65125,54.659375 59.65125,54.659375 C50.754375,47.8775 49.791875,34.7625 49.791875,34.7625 C49.873125,34.83125 49.98125,34.91125 50.099375,34.995625 C50.130625,35.0175 50.16,35.039375 50.193125,35.061875 C50.309375,35.1425 50.439375,35.22875 50.583125,35.320625 C50.63875,35.35625 50.7,35.394375 50.759375,35.43125 C50.85875,35.49375 50.965,35.55875 51.074375,35.625 C51.23125,35.719375 51.3975,35.818125 51.573125,35.92125 C51.635,35.956875 51.695,35.9925 51.759375,36.03 C55.70875,38.31125 63.74875,42.2675 65.795,43.5425 C68.32,45.115 73.6975,48.78125 74.46,53.89875 C75.22125,59.01125 70.60125,60.633125 70.60125,60.633125 C81.63875,61.67625 83.165625,52.00625 83.165625,52.00625 C87.081875,51.9075 92.85875,52.176875 92.85875,52.176875 C95.186875,55.275625 93.05,60.68375 92.28125,65.773125 C91.513125,70.86125 94.889375,72.280625 94.889375,72.280625 C93.614375,67.321875 97.7475,64.504375 97.7475,64.504375 C97.006875,67.895 98.49125,70.471875 99.490625,71.848125 C99.76125,72.2225 100.05375,72.763125 100.3375,73.349375 C100.630625,72.769375 100.9325,72.234375 101.210625,71.863125 C102.228125,70.504375 103.76,67.955 103.080625,64.55375 C103.080625,64.55375 107.163125,67.44125 105.800625,72.374375 C105.800625,72.374375 109.201875,71.015625 108.520625,65.915625 C107.841875,60.81375 105.800625,55.370625 108.180625,52.31 C108.180625,52.31 113.961875,52.13875 117.871875,52.31 C117.871875,52.31 119.234375,62.004375 130.28875,61.15375 C130.28875,61.15375 125.696875,59.451875 126.5475,54.346875 C127.396875,49.246875 132.83875,45.678125 135.388125,44.14625 C135.993125,43.784375 137.11875,43.2 138.5025,42.50125 C142.353125,40.555625 148.22625,37.72125 150.66875,36.23625 C150.681875,36.228125 150.695625,36.22 150.708125,36.2125 C150.875,36.11 151.0225,36.01625 151.154375,35.9275 C151.176875,35.9125 151.198125,35.898125 151.22,35.883125 C151.345,35.796875 151.458125,35.716875 151.54375,35.64625 C151.54375,35.64625 150.3525,48.73875 141.341875,55.370625 C141.341875,55.370625 137.591875,53.191875 132.045625,52.258125 C131.801875,52.216875 131.55875,52.175 131.308125,52.13875 C131.308125,52.13875 147.63125,62.515 152.734375,71.863125 C152.734375,71.863125 148.99375,72.374375 146.271875,74.0775 C146.271875,74.0775 155.285,75.9475 157.664375,95.671875 Z M120.29625,100.43125 C124.96875,97.511875 130.026875,94.62875 133.6875,93.29125 C142.5325,90.059375 149.673125,91.420625 154.434375,96.6925 C154.434375,96.6925 154.945,100.77375 154.605625,102.1325 C154.605625,102.1325 151.031875,95.5025 142.700625,94.65125 C136.8075,94.050625 127.59875,98.64 120.545625,103.423125 C120.599375,102.430625 120.511875,101.416875 120.29625,100.43125 Z M90.89875,124.31625 C87.350625,121.37625 87.31875,112.73875 87.31875,112.73875 C88.54625,114.55625 93.185625,116.9775 93.185625,116.9775 C91.15875,119.64125 90.89875,124.31625 90.89875,124.31625 Z M94.399375,129.958125 C94.399375,129.958125 94.480625,135.71625 96.785,137.556875 C96.785,137.556875 93.359375,138.0375 91.965,135.315 C91.965,135.315 91.26875,134.040625 94.399375,129.958125 Z M105.29125,126.81 C104.751875,127.890625 103.70125,129.43625 99.85125,129.43625 C95.9975,129.43625 94.97625,127.808125 94.45625,126.71875 C93.935625,125.629375 93.290625,121.296875 93.290625,121.296875 C95.65875,119.54 97.975625,121.02 97.975625,121.02 C98.4175,121.759375 99.20875,123.943125 99.880625,125.92 C100.585,123.95625 101.41375,121.78375 101.873125,121.055 C101.873125,121.055 104.21125,119.6175 106.550625,121.414375 C106.550625,121.414375 105.830625,125.734375 105.29125,126.81 Z M106.73,117.09625 C106.73,117.09625 111.408125,114.756875 112.66875,112.955 C112.66875,112.955 112.4875,121.596875 108.89125,124.470625 C108.89125,124.470625 108.71,119.79375 106.73,117.09625 Z M107.63125,135.446875 C106.189375,138.145625 102.7725,137.6075 102.7725,137.6075 C105.109375,135.808125 105.29125,130.0525 105.29125,130.0525 C108.350625,134.1875 107.63125,135.446875 107.63125,135.446875 Z M79.60875,103.065 C72.63875,98.16125 63.51125,93.41375 57.60875,93.914375 C49.263125,94.621875 45.57625,101.185 45.57625,101.185 C45.261875,99.8225 45.840625,95.750625 45.840625,95.750625 C50.694375,90.5625 57.858125,89.324375 66.6425,92.708125 C70.280625,94.10875 75.28875,97.079375 79.91125,100.07875 C79.678125,101.060625 79.571875,102.071875 79.60875,103.065 Z M154.73375,113.39 C154.724375,113.46125 154.7125,113.53625 154.7025,113.60875 C154.681875,113.758125 154.66,113.909375 154.6375,114.06125 C154.624375,114.149375 154.611875,114.235625 154.598125,114.325 C154.564375,114.55 154.52875,114.77625 154.491875,115.001875 C154.485625,115.0375 154.48,115.0725 154.474375,115.108125 C154.3825,115.661875 154.2825,116.20875 154.17375,116.719375 C154.171875,116.728125 154.17,116.735625 154.16875,116.744375 C154.115625,116.9925 154.06125,117.230625 154.004375,117.458125 C154.000625,117.47375 153.9975,117.488125 153.993125,117.504375 C153.938125,117.723125 153.88125,117.93 153.823125,118.1225 C153.818125,118.1375 153.814375,118.1525 153.809375,118.166875 C153.75,118.358125 153.69,118.5325 153.628125,118.688125 C153.62375,118.698125 153.620625,118.70875 153.61625,118.718125 C153.550625,118.88 153.48375,119.021875 153.415625,119.13625 C153.415625,119.13625 151.54375,116.41875 149.84375,115.738125 C149.84375,115.738125 150.3525,127.13125 142.870625,136.6525 C142.870625,136.6525 139.46875,122.20125 125.015625,126.79 C125.015625,126.79 132.3275,116.755625 144.2325,127.9825 C144.2325,127.9825 146.1025,123.050625 146.1025,120.16 C146.1025,120.16 135.05,113.35875 127.396875,118.458125 C127.396875,118.458125 130.28875,114.888125 132.15875,113.18875 C132.15875,113.18875 114.474375,121.5175 108.011875,149.235625 C108.011875,149.235625 107.989375,149.238125 107.95,149.2425 C107.85625,149.251875 107.651875,149.2725 107.37625,149.299375 C105.9175,149.44125 102.233125,149.78625 99.7125,149.8875 L99.709375,149.891875 C99.69375,149.889375 99.675625,149.889375 99.66125,149.889375 L99.636875,149.889375 C96.91875,149.730625 92.851875,149.26875 91.6825,149.1325 C91.5875,149.121875 91.511875,149.1125 91.4575,149.10625 C91.3925,149.09875 91.346875,149.093125 91.346875,149.093125 C85.366875,121.265 67.82875,112.628125 67.82875,112.628125 C69.6675,114.361875 72.4975,117.98125 72.4975,117.98125 C64.935,112.7475 53.764375,119.358125 53.764375,119.358125 C53.7175,122.24875 55.5,127.213125 55.5,127.213125 C67.59625,116.19375 74.733125,126.354375 74.733125,126.354375 C60.36125,121.51125 56.710625,135.905625 56.710625,135.905625 C49.394375,126.25625 50.10125,114.87125 50.10125,114.87125 C48.39,115.523125 46.471875,118.20875 46.471875,118.20875 C46.405625,118.094375 46.341875,117.954375 46.280625,117.795 C46.27375,117.7775 46.2675,117.759375 46.26125,117.7425 C46.205625,117.594375 46.151875,117.43125 46.1,117.253125 C46.09125,117.2225 46.081875,117.19125 46.073125,117.159375 C46.024375,116.985625 45.976875,116.8 45.930625,116.60375 C45.92125,116.564375 45.911875,116.525 45.9025,116.484375 C45.8575,116.28625 45.814375,116.07875 45.771875,115.864375 C45.76375,115.8225 45.755,115.7825 45.746875,115.740625 C45.704375,115.515 45.6625,115.283125 45.623125,115.0475 C45.61375,114.995625 45.605,114.94375 45.596875,114.89125 C45.55875,114.66 45.521875,114.42625 45.486875,114.190625 C45.478125,114.129375 45.469375,114.07 45.460625,114.00875 C45.43,113.7975 45.400625,113.586875 45.3725,113.376875 C45.361875,113.294375 45.35125,113.214375 45.340625,113.1325 C45.316875,112.9525 45.295,112.77375 45.27375,112.5975 C45.2675,112.54625 45.26,112.4925 45.25375,112.44125 C45.254375,112.44125 45.254375,112.44125 45.254375,112.44125 C45.04125,110.653125 44.92875,109.16875 44.92875,109.16875 C46.90625,102.91125 54.50125,96.579375 62.144375,97.22375 C69.784375,97.868125 79.693125,105.178125 79.693125,105.178125 C79.820625,106.206875 80.36,108.19125 81.138125,110.69 C81.13875,110.69 81.139375,110.690625 81.14,110.690625 C83.69,118.88625 88.824375,132.633125 90.581875,136.583125 C90.6,136.625 90.619375,136.66875 90.6375,136.708125 C90.676875,136.795625 90.713125,136.874375 90.748125,136.950625 C90.77875,137.01625 90.8075,137.07625 90.835625,137.133125 C90.859375,137.183125 90.884375,137.234375 90.90625,137.27875 C90.954375,137.374375 90.999375,137.460625 91.03625,137.521875 C92.359375,139.7525 93.874375,140.634375 95.229375,140.995625 C95.34,141.025625 95.4725,141.05375 95.6225,141.08 C95.625,141.080625 95.629375,141.080625 95.6325,141.080625 C95.778125,141.106875 95.94,141.13 96.115,141.151875 C96.155625,141.1575 96.201875,141.16125 96.244375,141.16625 C96.381875,141.183125 96.521875,141.19875 96.67125,141.2125 C96.78875,141.224375 96.913125,141.234375 97.035625,141.244375 C97.113125,141.25125 97.18875,141.258125 97.268125,141.26375 C97.46375,141.279375 97.663125,141.293125 97.864375,141.30625 C97.86875,141.30625 97.87375,141.306875 97.878125,141.306875 C98.27875,141.331875 98.679375,141.3525 99.059375,141.37 C99.09875,141.37125 99.139375,141.37375 99.17875,141.375625 C99.250625,141.37875 99.318125,141.38125 99.38875,141.384375 C99.4975,141.38875 99.601875,141.393125 99.70375,141.39625 C99.855625,141.39375 100.01375,141.390625 100.179375,141.386875 C100.205625,141.38625 100.229375,141.385625 100.255625,141.385 C100.28875,141.384375 100.32375,141.383125 100.356875,141.381875 C101.764375,141.3425 103.513125,141.26375 104.270625,141.078125 C105.629375,140.73375 107.163125,139.884375 108.520625,137.673125 C108.558125,137.61125 108.605625,137.525 108.6575,137.4275 C108.675625,137.393125 108.695625,137.3525 108.715,137.31375 C108.751875,137.241875 108.790625,137.163125 108.833125,137.07625 C108.858125,137.024375 108.884375,136.970625 108.91125,136.914375 C108.95625,136.82 109.00375,136.71625 109.053125,136.609375 C109.080625,136.549375 109.106875,136.494375 109.13625,136.43 C109.21125,136.26375 109.29125,136.085625 109.37625,135.895 C109.410625,135.8175 109.4475,135.730625 109.483125,135.649375 C109.5425,135.515 109.601875,135.37875 109.664375,135.234375 C109.706875,135.135625 109.75125,135.0325 109.795625,134.92875 C109.85625,134.78875 109.9175,134.644375 109.980625,134.495 C110.0275,134.384375 110.075,134.273125 110.12375,134.156875 C110.1975,133.981875 110.27375,133.8 110.35125,133.615 C110.390625,133.52 110.429375,133.42875 110.469375,133.33125 C110.58625,133.05 110.7075,132.7575 110.830625,132.4575 C110.865,132.373125 110.90125,132.285 110.93625,132.199375 C111.035625,131.95625 111.136875,131.70875 111.24,131.455 C111.276875,131.365 111.31375,131.27375 111.350625,131.1825 C111.463125,130.905 111.57625,130.623125 111.6925,130.335 C111.71875,130.27 111.745,130.205 111.771875,130.13875 C112.070625,129.394375 112.379375,128.6175 112.695625,127.815625 C112.705,127.790625 112.715,127.765 112.725,127.739375 C112.87625,127.355625 113.02875,126.96625 113.1825,126.573125 C113.194375,126.54125 113.206875,126.51 113.21875,126.478125 C113.706875,125.22875 114.205,123.93625 114.700625,122.63125 C114.723125,122.573125 114.745,122.514375 114.766875,122.456875 C114.90375,122.0975 115.039375,121.738125 115.174375,121.37875 C115.2075,121.29 115.24125,121.201875 115.27375,121.113125 C115.41625,120.735625 115.5575,120.358125 115.6975,119.981875 C115.715,119.936875 115.73125,119.891875 115.748125,119.8475 C115.894375,119.454375 116.039375,119.063125 116.18375,118.673125 C116.249375,118.4925 116.315,118.313125 116.38125,118.133125 C116.455,117.931875 116.528125,117.73125 116.601875,117.531875 C116.68375,117.305 116.765625,117.080625 116.84625,116.856875 C116.8925,116.729375 116.93875,116.601875 116.984375,116.475 C117.69125,114.516875 118.340625,112.655625 118.88125,111.018125 C118.881875,111.018125 118.883125,111.0175 118.883125,111.0175 C119.705,108.531875 120.27875,106.556875 120.425625,105.53125 C120.425625,105.53125 130.45875,98.393125 138.11,97.88 C145.76125,97.370625 153.243125,103.8325 155.115625,110.125 C155.115625,110.125 154.9775,111.605625 154.7325,113.389375 C154.733125,113.389375 154.73375,113.39 154.73375,113.39 Z M79.935,48.661875 C78.62875,49.9675 76.96625,51.0375 76.96625,51.0375 C76.73,45.92875 69.83625,40.465 69.83625,40.465 C75.06375,42.481875 79.935,48.661875 79.935,48.661875 Z M131.329375,40.465 C131.329375,40.465 124.439375,45.92875 124.201875,51.0375 C124.201875,51.0375 122.539375,49.9675 121.2325,48.661875 C121.2325,48.661875 126.10375,42.481875 131.329375,40.465 Z M162.04125,79.065625 C157.670625,69.4775 149.664375,60.26 147.345,57.97875 C154.9925,48.54 156.07,37.655 156.21125,35.300625 C157.289375,34.03375 160.900625,29.5325 161.98625,24.885625 C162.345625,23.345625 162.4725,21.800625 162.4725,20.37625 C162.4725,16.82625 159.096875,14.134375 159.096875,14.134375 C158.475,23.643125 145.061875,31.74375 133.7625,35.78875 C123.7825,39.365625 118.624375,46.0075 117.189375,48.101875 C114.8125,47.873125 107.01625,47.6025 99.156875,47.536875 C98.885,47.534375 98.613125,47.531875 98.34125,47.530625 C92.875,47.494375 87.4675,47.561875 83.923125,47.815625 C82.525625,45.690625 77.484375,38.965625 67.564375,35.214375 C56.34125,30.97625 43.07125,22.6425 42.6125,13.124375 C42.6125,13.124375 39.125,15.974375 39.125,19.70625 C39.125,21.020625 39.238125,22.4225 39.538125,23.8225 C40.541875,28.488125 44.075625,33.051875 45.129375,34.339375 C45.229375,36.69375 46.12125,47.5975 53.6025,57.16375 C51.244375,59.405 42.318125,69.754375 37.781875,79.266875 C37.781875,79.266875 42.51125,77.06625 43.59,76.8225 C41.068125,80.264375 38.185,90.143125 37.9225,105.58625 L40.80125,102.62875 C40.84625,102.449375 41.253125,119.74375 43.925625,126.969375 L46.845625,124.178125 C46.845625,124.16875 48.74125,133.24 54.545,142.003125 C56.05375,144.2825 57.82375,146.540625 59.896875,148.613125 C59.896875,148.613125 59.9225,137.37 64.005625,133.504375 C65.833125,131.77875 68.253125,130.98625 71.19875,131.156875 C81.16625,131.725625 87.405,153.798125 87.405,153.798125 C87.405,153.798125 96.38,155.58875 99.620625,155.395 C102.849375,155.64875 111.8975,153.93375 111.8975,153.93375 C111.8975,153.93375 118.4925,132.049375 128.469375,131.651875 C131.415625,131.535625 133.820625,132.3675 135.61875,134.12625 C139.635625,138.064375 139.54125,145.395 139.539375,145.4675 L139.464375,149.303125 L141.841875,146.295625 C148.2625,138.184375 151.52625,130.165 152.9325,125.97875 C153.31,126.85125 155.8075,127.940625 155.8075,127.940625 C160.430625,117.930625 159.4225,108.2975 159.4225,102.62875 C159.4225,102.62 162.183125,106.664375 162.183125,106.664375 C162.84625,93.966875 159.39625,81.18375 157.0175,77.808125 C158.09125,78.068125 162.04125,79.065625 162.04125,79.065625 L162.04125,79.065625 Z" id="Fill-26" fill="#121B2C"></path>
                <path d="M117.80125,74.631875 C118.97625,73.906875 120.411875,73.280625 122.15875,72.85125 C121.8075,70.948125 119.868125,62.654375 111.949375,56.63125 C111.949375,56.63125 118.996875,63.720625 117.80125,74.631875" id="Fill-27" fill="#121B2C"></path>
                <path d="M133.72,85.246875 C133.72,85.246875 142.9,80.385625 151.896875,85.783125 C151.896875,85.783125 150.81875,82.365 148.476875,79.846875 C148.476875,79.846875 138.94,78.2275 133.72,85.246875" id="Fill-28" fill="#121B2C"></path>
                <path d="M89.01625,56.435625 C81.185625,62.17375 79.1725,69.6 78.76,71.581875 C80.619375,72.32625 82.014375,73.30625 83.07875,74.371875 C82.313125,63.70375 89.01625,56.435625 89.01625,56.435625" id="Fill-29" fill="#121B2C"></path>
                <path d="M52.090625,79.008125 C49.708125,81.49125 48.569375,84.885 48.569375,84.885 C57.65875,79.64625 66.750625,84.66625 66.750625,84.66625 C61.651875,77.555625 52.090625,79.008125 52.090625,79.008125" id="Fill-30" fill="#121B2C"></path>
                <path d="M79.8375,85.03375 C80.67875,83.30875 80.663125,81.34125 80.509375,80.035 C81.9975,81.508125 85.555,86.981875 85.555,86.981875 C83.396875,86.05375 81.481875,85.4425 79.8375,85.03375 Z M73.46,84.275 C71.035625,80.886875 72.6225,76.086875 72.6225,76.086875 C74.655625,76.04375 76.415625,76.83 77.82875,77.780625 C77.5625,78.459375 77.360625,79.124375 77.21875,79.761875 C77.2875,79.76125 77.35625,79.756875 77.42625,79.765625 C78.355625,79.87375 79.019375,80.716875 78.90875,81.6475 C78.800625,82.575 77.9575,83.24 77.0275,83.12875 C76.979375,83.123125 76.935625,83.1075 76.88875,83.098125 C76.900625,83.62875 76.94,84.08875 76.988125,84.46875 C74.730625,84.14625 73.46,84.275 73.46,84.275 Z M91.61875,85.645 C91.619375,85.645625 91.62,85.645625 91.620625,85.64625 C91.61125,85.65625 91.600625,85.664375 91.59125,85.674375 C91.516875,85.7525 91.44125,85.826875 91.361875,85.8925 C91.33375,85.915625 91.304375,85.935 91.27625,85.956875 C91.20625,86.009375 91.13625,86.061875 91.0625,86.10375 C91.00625,86.136875 90.94625,86.159375 90.888125,86.185625 C90.83625,86.208125 90.786875,86.235625 90.73375,86.2525 C90.61625,86.290625 90.495,86.316875 90.36875,86.325625 C88.249375,86.471875 86.02,82.934375 83.49375,79.618125 C80.971875,76.2975 75.790625,73.23125 71.389375,72.811875 C71.015,72.775625 70.6575,72.764375 70.30875,72.764375 C70.2275,72.764375 70.146875,72.764375 70.066875,72.76625 C69.72875,72.77375 69.39875,72.79 69.086875,72.825 C69.08375,72.825 69.08125,72.825625 69.0775,72.825625 C68.765,72.86125 68.469375,72.91125 68.184375,72.96875 C68.118125,72.981875 68.0525,72.995 67.98875,73.00875 C67.7125,73.069375 67.44625,73.135625 67.19875,73.210625 C67.185,73.215 67.173125,73.219375 67.159375,73.223125 C66.923125,73.295625 66.703125,73.374375 66.49375,73.454375 C66.43875,73.475625 66.384375,73.496875 66.33125,73.518125 C66.128125,73.6 65.935,73.68375 65.760625,73.766875 C65.73,73.781875 65.704375,73.795625 65.675,73.810625 C65.5325,73.880625 65.400625,73.95 65.279375,74.016875 C65.226875,74.04625 65.17375,74.075 65.125625,74.103125 C65.034375,74.15625 64.9525,74.205625 64.875625,74.25375 C64.511875,74.4825 64.315,74.646875 64.315,74.646875 C66.555,74.2525 69.968125,74.88875 69.968125,74.88875 C68.296875,83.324375 72.010625,86.533125 72.010625,86.533125 C83.041875,84.531875 88.700625,92.39875 88.700625,92.39875 C89.134375,91.143125 88.648125,89.3275 88.648125,89.3275 C95.999375,90.5875 93.158125,79.966875 93.158125,79.966875 C93.375,81.3525 92.850625,84.31 91.61875,85.645 L91.61875,85.645 Z" id="Fill-31" fill="#121B2C"></path>
                <path d="M125.616875,86.09375 C125.616875,86.09375 124.4425,85.85625 122.29,85.9375 C122.606875,84.681875 123.030625,82.071875 122.20625,79.04875 C123.643125,78.320625 125.354375,77.8 127.236875,78.02125 C127.236875,78.02125 128.358125,82.954375 125.616875,86.09375 Z M113.31875,87.624375 C113.31875,87.624375 117.45375,82.433125 119.050625,81.156875 C119.11625,81.105 119.186875,81.04875 119.2575,80.99375 C119.220625,81.168125 119.186875,81.354375 119.15625,81.549375 C119.89625,81.708125 120.4675,82.35 120.4975,83.138125 C120.53125,83.970625 119.9525,84.685625 119.164375,84.855625 C119.251875,85.300625 119.38625,85.745 119.570625,86.17875 C117.81875,86.4175 115.720625,86.855625 113.31875,87.624375 Z M128.783125,74.879375 C124.36,74.876875 118.9075,77.42875 116.076875,80.491875 C113.245625,83.550625 110.686875,86.8625 108.59,86.5075 C108.448125,86.483125 108.314375,86.436875 108.18625,86.376875 C108.15625,86.3625 108.129375,86.341875 108.100625,86.32625 C108.000625,86.271875 107.904375,86.210625 107.81375,86.13625 C107.7925,86.11875 107.7725,86.098125 107.75125,86.08 C107.65375,85.99375 107.561875,85.898125 107.474375,85.79125 C107.465,85.779375 107.45625,85.7675 107.4475,85.755625 C106.319375,84.3275 106.071875,81.28375 106.425625,79.91125 C106.425625,79.91125 102.575625,90.210625 110.01625,89.66 C110.01625,89.66 109.3575,91.42125 109.666875,92.71125 C109.666875,92.71125 116.0575,85.4275 126.84625,88.478125 C126.84625,88.478125 130.849375,85.64 129.995,77.083125 C129.995,77.083125 130.0325,77.08 130.085,77.07625 C130.10125,77.075 130.1125,77.07375 130.133125,77.0725 C130.78875,77.024375 133.709375,76.849375 135.645,77.38875 C135.645,77.38875 133.20875,74.879375 128.783125,74.879375 L128.783125,74.879375 Z" id="Fill-32" fill="#121B2C"></path>
                <path d="M147.50875,70.44625 C147.294375,69.15375 144.279375,67.426875 144.279375,67.426875 C141.91125,68.503125 138.465,71.090625 138.465,71.090625 C142.555625,69.799375 147.50875,70.44625 147.50875,70.44625" id="Fill-33" fill="#121B2C"></path>
                <path d="M56.74,66.815625 C56.74,66.815625 53.484375,68.019375 53.060625,69.261875 C53.060625,69.261875 58.050625,69.43375 61.87625,71.37375 C61.87625,71.37375 58.90125,68.26125 56.74,66.815625" id="Fill-34" fill="#121B2C"></path>
                <path d="M93.290625,121.296875 C93.290625,121.296875 93.935625,125.629375 94.45625,126.71875 C94.97625,127.808125 95.9975,129.43625 99.85125,129.43625 C103.70125,129.43625 104.751875,127.890625 105.29125,126.81 C105.830625,125.734375 106.550625,121.414375 106.550625,121.414375 C104.21125,119.616875 101.873125,121.055 101.873125,121.055 C101.41375,121.78375 100.585,123.95625 99.880625,125.92 C99.20875,123.943125 98.4175,121.759375 97.975625,121.02 C97.975625,121.02 95.65875,119.54 93.290625,121.296875" id="Fill-35" fill="#FFFFFE"></path>
                <path d="M112.66875,112.955 C111.408125,114.756875 106.73,117.09625 106.73,117.09625 C108.71,119.79375 108.89125,124.470625 108.89125,124.470625 C112.4875,121.596875 112.66875,112.955 112.66875,112.955" id="Fill-36" fill="#FFFFFE"></path>
                <path d="M102.7725,137.6075 C102.7725,137.6075 106.189375,138.145625 107.63125,135.446875 C107.63125,135.446875 108.350625,134.1875 105.29125,130.0525 C105.29125,130.0525 105.109375,135.808125 102.7725,137.6075" id="Fill-37" fill="#FFFFFE"></path>
                <path d="M114.330625,108.158125 C114.364375,108.128125 114.395625,108.099375 114.43,108.07 C114.793125,107.754375 115.178125,107.43125 115.58125,107.1025 C115.62875,107.063125 115.675625,107.024375 115.72375,106.985625 C115.999375,106.761875 116.293125,106.533125 116.584375,106.305625 C116.584375,106.30375 116.585,106.30125 116.585,106.29875 C116.7325,105.274375 116.870625,103.940625 116.846875,102.633125 C116.846875,102.6325 116.846875,102.6325 116.846875,102.6325 C111.78,105.930625 107.8425,108.7675 107.8425,108.7675 C108.618125,107.84125 109.841875,106.519375 111.41,104.98625 C111.42125,104.974375 111.433125,104.963125 111.445,104.9525 C111.64875,104.753125 111.858125,104.550625 112.0725,104.345 C112.1,104.319375 112.125625,104.294375 112.153125,104.268125 C112.348125,104.0825 112.548125,103.89375 112.751875,103.70375 C112.80125,103.6575 112.85,103.61125 112.900625,103.564375 C113.07625,103.400625 113.2575,103.234375 113.44,103.0675 C113.519375,102.995 113.595625,102.92375 113.67625,102.850625 C113.739375,102.793125 113.805625,102.734375 113.86875,102.676875 C114.531875,102.078125 115.23125,101.465 115.965,100.841875 C115.983125,100.82625 116.00125,100.81125 116.019375,100.795625 C116.204375,100.639375 116.393125,100.481875 116.5825,100.325 L116.581875,100.324375 C116.4075,99.6175 116.135,99.0025 115.7275,98.56125 C115.45375,98.26375 115.11375,98.01625 114.724375,97.81375 C112.49875,98.763125 111.07,100.601875 111.07,100.601875 C109.711875,105.023125 105.121875,108.25625 102.910625,110.46625 C100.699375,112.6775 100.529375,115.226875 100.529375,115.226875 C104.270625,115.226875 107.163125,114.888125 113.28375,109.104375 C113.606875,108.799375 113.96,108.48125 114.330625,108.158125" id="Fill-38" fill="#FFFFFE"></path>
                <path d="M138.54,48.486875 C134.55375,49.7 132.579375,51.62625 132.016875,52.2525 C132.026875,52.25375 132.03625,52.25625 132.045625,52.258125 C137.591875,53.191875 141.341875,55.370625 141.341875,55.370625 C150.3525,48.73875 151.54375,35.64625 151.54375,35.64625 C151.458125,35.71625 151.345,35.796875 151.22,35.883125 C151.198125,35.898125 151.176875,35.9125 151.154375,35.9275 C151.023125,36.01625 150.874375,36.110625 150.708125,36.2125 C150.695625,36.22 150.681875,36.228125 150.66875,36.235625 C148.22625,37.72125 142.353125,40.555625 138.5025,42.50125 C138.250625,42.62875 138.003125,42.754375 137.770625,42.873125 C133.015625,46.31375 131.63125,49.7425 131.63125,49.7425 C136.446875,47.649375 138.54,48.486875 138.54,48.486875" id="Fill-39" fill="#FFFFFE"></path>
                <path d="M87.31875,112.73875 C87.31875,112.73875 87.350625,121.37625 90.89875,124.31625 C90.89875,124.31625 91.15875,119.64125 93.185625,116.9775 C93.185625,116.9775 88.54625,114.55625 87.31875,112.73875" id="Fill-40" fill="#FFFFFE"></path>
                <path d="M96.785,137.556875 C94.480625,135.71625 94.399375,129.958125 94.399375,129.958125 C91.26875,134.040625 91.965,135.315 91.965,135.315 C93.359375,138.0375 96.785,137.556875 96.785,137.556875" id="Fill-41" fill="#FFFFFE"></path>
                <path d="M138.121875,108.1475 C138.121875,108.1475 140.42375,106.263125 142.516875,105.42625 C142.516875,105.42625 137.635,100.5625 118.88375,111.016875 C118.88375,111.016875 118.881875,111.018125 118.88125,111.018125 C118.340625,112.655625 117.69125,114.516875 116.984375,116.475 C116.93875,116.601875 116.8925,116.729375 116.84625,116.856875 C116.765625,117.080625 116.68375,117.305 116.601875,117.531875 C116.528125,117.73125 116.455,117.931875 116.38125,118.133125 C116.315,118.313125 116.249375,118.491875 116.18375,118.673125 C116.039375,119.0625 115.894375,119.454375 115.748125,119.8475 C115.73125,119.891875 115.715,119.936875 115.6975,119.981875 C115.5575,120.358125 115.41625,120.735625 115.27375,121.113125 C115.24125,121.201875 115.208125,121.29 115.174375,121.37875 C115.039375,121.738125 114.90375,122.0975 114.766875,122.456875 C114.745,122.514375 114.723125,122.573125 114.700625,122.63125 C114.205,123.936875 113.7075,125.22875 113.21875,126.478125 C113.206875,126.51 113.194375,126.54125 113.1825,126.573125 C113.02875,126.96625 112.87625,127.355625 112.725,127.739375 C112.715,127.765 112.705,127.79 112.695625,127.815625 C112.379375,128.6175 112.07,129.394375 111.771875,130.13875 C111.745,130.205 111.71875,130.269375 111.6925,130.335 C111.57625,130.623125 111.463125,130.905 111.350625,131.1825 C111.31375,131.27375 111.276875,131.365 111.24,131.455 C111.136875,131.708125 111.035625,131.95625 110.93625,132.199375 C110.90125,132.285 110.865625,132.373125 110.830625,132.4575 C110.7075,132.7575 110.58625,133.05 110.469375,133.33125 C110.429375,133.42875 110.390625,133.52 110.35125,133.615 C110.27375,133.8 110.1975,133.981875 110.12375,134.156875 C110.075,134.273125 110.0275,134.384375 109.980625,134.495 C109.9175,134.644375 109.85625,134.788125 109.795625,134.92875 C109.75125,135.0325 109.706875,135.135625 109.664375,135.234375 C109.601875,135.37875 109.5425,135.515 109.483125,135.649375 C109.4475,135.73125 109.410625,135.8175 109.37625,135.895 C109.29125,136.08625 109.21125,136.26375 109.13625,136.43 C109.106875,136.494375 109.080625,136.549375 109.053125,136.609375 C109.00375,136.716875 108.95625,136.819375 108.91125,136.914375 C108.884375,136.970625 108.858125,137.024375 108.833125,137.07625 C108.790625,137.16375 108.751875,137.24125 108.715,137.31375 C108.695625,137.3525 108.675625,137.393125 108.6575,137.4275 C108.605625,137.525 108.558125,137.61125 108.520625,137.673125 C107.163125,139.884375 105.63,140.73375 104.270625,141.078125 C103.513125,141.26375 101.764375,141.3425 100.356875,141.381875 C100.323125,141.383125 100.289375,141.38375 100.255625,141.385 C100.23,141.385625 100.205,141.38625 100.179375,141.386875 C100.025,141.39125 99.871875,141.394375 99.729375,141.3975 C99.724375,141.3975 99.718125,141.3975 99.7125,141.398125 C99.704375,141.3975 99.695625,141.396875 99.6875,141.396875 C99.5925,141.393125 99.489375,141.38875 99.38875,141.384375 C99.319375,141.38125 99.25,141.37875 99.17875,141.375625 C99.139375,141.37375 99.099375,141.371875 99.059375,141.37 C98.67875,141.353125 98.279375,141.3325 97.878125,141.306875 C97.87375,141.306875 97.86875,141.30625 97.864375,141.30625 C97.663125,141.293125 97.464375,141.279375 97.268125,141.26375 C97.18875,141.258125 97.11375,141.25125 97.035625,141.244375 C96.913125,141.234375 96.78875,141.224375 96.67125,141.2125 C96.52125,141.19875 96.3825,141.183125 96.244375,141.16625 C96.2025,141.16125 96.155625,141.1575 96.115,141.151875 C95.94,141.13 95.778125,141.106875 95.6325,141.080625 C95.629375,141.080625 95.625625,141.080625 95.6225,141.08 C95.473125,141.05375 95.339375,141.025625 95.229375,140.995625 C93.874375,140.634375 92.359375,139.7525 91.03625,137.521875 C90.999375,137.46 90.954375,137.375 90.90625,137.27875 C90.884375,137.235 90.859375,137.183125 90.835625,137.133125 C90.8075,137.075625 90.779375,137.016875 90.748125,136.950625 C90.713125,136.875 90.67625,136.794375 90.6375,136.708125 C90.619375,136.668125 90.6,136.625625 90.581875,136.583125 C88.824375,132.633125 83.69,118.88625 81.14,110.690625 C81.139375,110.690625 81.13875,110.69 81.138125,110.69 C62.57375,99.910625 57.605625,104.688125 57.605625,104.688125 C59.683125,105.56 61.95375,107.488125 61.95375,107.488125 C54.416875,107.04 47.99125,110.62625 45.255,112.440625 C45.255,112.440625 45.254375,112.44125 45.25375,112.44125 C45.26,112.4925 45.2675,112.54625 45.27375,112.5975 C45.295,112.77375 45.316875,112.9525 45.340625,113.1325 C45.35125,113.21375 45.361875,113.295 45.3725,113.376875 C45.400625,113.586875 45.43,113.7975 45.460625,114.00875 C45.469375,114.069375 45.478125,114.13 45.486875,114.190625 C45.521875,114.42625 45.55875,114.66 45.596875,114.89125 C45.605,114.94375 45.61375,114.995625 45.623125,115.0475 C45.6625,115.283125 45.704375,115.515 45.746875,115.740625 C45.755,115.781875 45.76375,115.8225 45.771875,115.864375 C45.814375,116.07875 45.8575,116.28625 45.9025,116.484375 C45.911875,116.524375 45.92125,116.564375 45.930625,116.60375 C45.976875,116.8 46.024375,116.985625 46.073125,117.159375 C46.081875,117.19125 46.09125,117.2225 46.1,117.253125 C46.151875,117.43125 46.205625,117.594375 46.26125,117.7425 C46.2675,117.759375 46.274375,117.7775 46.280625,117.795 C46.341875,117.954375 46.405625,118.095 46.471875,118.20875 C46.471875,118.20875 48.39,115.523125 50.10125,114.87125 C50.10125,114.87125 49.394375,126.25625 56.710625,135.905625 C56.710625,135.905625 60.36125,121.51125 74.733125,126.354375 C74.733125,126.354375 67.59625,116.19375 55.5,127.213125 C55.5,127.213125 53.7175,122.24875 53.764375,119.358125 C53.764375,119.358125 64.935,112.7475 72.4975,117.98125 C72.4975,117.98125 69.6675,114.361875 67.82875,112.628125 C67.82875,112.628125 85.366875,121.265 91.346875,149.093125 C91.346875,149.093125 91.3925,149.09875 91.4575,149.10625 C91.511875,149.1125 91.5875,149.121875 91.6825,149.1325 C92.851875,149.26875 96.91875,149.730625 99.636875,149.889375 L99.66125,149.889375 C99.675625,149.889375 99.69375,149.889375 99.709375,149.891875 L99.7125,149.8875 C102.233125,149.78625 105.9175,149.44125 107.37625,149.299375 C107.651875,149.2725 107.85625,149.251875 107.95,149.2425 C107.99,149.238125 108.0125,149.235625 108.0125,149.235625 C114.474375,121.5175 132.15875,113.18875 132.15875,113.18875 C130.28875,114.888125 127.396875,118.458125 127.396875,118.458125 C135.05,113.35875 146.1025,120.16 146.1025,120.16 C146.1025,123.050625 144.2325,127.9825 144.2325,127.9825 C132.3275,116.755625 125.015625,126.79 125.015625,126.79 C139.46875,122.20125 142.870625,136.6525 142.870625,136.6525 C150.3525,127.13125 149.84375,115.738125 149.84375,115.738125 C151.54375,116.41875 153.415625,119.13625 153.415625,119.13625 C153.48375,119.021875 153.55125,118.88 153.61625,118.718125 C153.620625,118.70875 153.624375,118.698125 153.628125,118.688125 C153.69,118.5325 153.750625,118.358125 153.809375,118.166875 C153.814375,118.1525 153.818125,118.1375 153.823125,118.1225 C153.88125,117.93 153.938125,117.723125 153.993125,117.504375 C153.9975,117.488125 154.000625,117.473125 154.004375,117.458125 C154.06125,117.230625 154.115625,116.9925 154.16875,116.744375 C154.17,116.735625 154.171875,116.728125 154.17375,116.719375 C154.2825,116.209375 154.3825,115.661875 154.474375,115.108125 C154.48,115.0725 154.485625,115.0375 154.491875,115.001875 C154.52875,114.77625 154.564375,114.549375 154.598125,114.325 C154.61125,114.23625 154.624375,114.14875 154.6375,114.06125 C154.66,113.90875 154.68125,113.75875 154.7025,113.60875 C154.7125,113.53625 154.724375,113.46125 154.73375,113.39 C154.73375,113.39 154.733125,113.389375 154.7325,113.389375 C152.02625,111.526875 145.664375,107.829375 138.121875,108.1475" id="Fill-42" fill="#FFFFFE"></path>
                <path d="M85.483125,97.583125 C85.10875,97.774375 84.78,98.008125 84.51125,98.29 C84.09625,98.724375 83.813125,99.33375 83.62625,100.036875 C83.625625,100.0375 83.625625,100.03875 83.625625,100.039375 C86.839375,102.81125 89.448125,105.4625 91.11875,107.34125 C91.126875,107.35125 91.135,107.359375 91.14375,107.369375 C91.276875,107.52 91.405,107.66625 91.52625,107.805625 C91.5425,107.825 91.556875,107.84125 91.5725,107.86 C91.684375,107.989375 91.7925,108.115625 91.89375,108.23625 C92.009375,108.37375 92.118125,108.505 92.21875,108.629375 C92.21875,108.629375 92.166875,108.590625 92.091875,108.535 C92.068125,108.5175 92.050625,108.50375 92.02,108.481875 C92.000625,108.4675 91.975625,108.44875 91.953125,108.4325 C91.8975,108.39125 91.838125,108.3475 91.765,108.29375 C91.751875,108.28375 91.736875,108.2725 91.723125,108.2625 C90.526875,107.3825 87.274375,105.013125 83.32,102.340625 C83.273125,103.6475 83.388125,104.9825 83.5175,106.009375 C83.518125,106.011875 83.51875,106.015 83.51875,106.0175 C83.820625,106.2625 84.12625,106.508125 84.410625,106.7475 C84.4275,106.76125 84.444375,106.77625 84.461875,106.790625 C84.879375,107.14375 85.278125,107.489375 85.651875,107.82625 C85.6775,107.85 85.701875,107.871875 85.726875,107.895 C86.0975,108.230625 86.45,108.55875 86.7725,108.874375 C92.7925,114.76 95.676875,115.15125 99.416875,115.21875 C99.416875,115.21875 99.29125,112.66625 97.12,110.416875 C94.9475,108.164375 90.41,104.85875 89.1275,100.4125 C89.1275,100.4125 87.669375,98.578125 85.483125,97.583125" id="Fill-43" fill="#FFFFFE"></path>
                <path d="M59.65125,54.659375 C59.65125,54.659375 63.449375,52.54125 69.025625,51.71 C69.025,51.709375 69.02375,51.708125 69.02375,51.7075 C68.469375,51.063125 66.53,49.10625 62.570625,47.826875 C62.570625,47.826875 64.676875,47.026875 69.455,49.20125 C69.455,49.20125 68.133125,45.75375 63.434375,42.2275 C60.130625,40.47 54.761875,37.76625 51.759375,36.03 C51.695,35.9925 51.635625,35.956875 51.573125,35.920625 C51.398125,35.81875 51.230625,35.719375 51.074375,35.625 C50.964375,35.558125 50.859375,35.49375 50.759375,35.43125 C50.7,35.394375 50.638125,35.35625 50.583125,35.320625 C50.43875,35.22875 50.31,35.143125 50.193125,35.061875 C50.16,35.039375 50.130625,35.0175 50.099375,34.995625 C49.98125,34.91125 49.87375,34.83125 49.791875,34.7625 C49.791875,34.7625 50.754375,47.8775 59.65125,54.659375" id="Fill-44" fill="#FFFFFE"></path>
                <path d="M131.329375,40.465 C126.10375,42.481875 121.2325,48.661875 121.2325,48.661875 C122.539375,49.9675 124.201875,51.0375 124.201875,51.0375 C124.439375,45.92875 131.329375,40.465 131.329375,40.465" id="Fill-45" fill="#FFFFFE"></path>
                <path d="M76.96625,51.0375 C76.96625,51.0375 78.62875,49.9675 79.935,48.661875 C79.935,48.661875 75.06375,42.481875 69.83625,40.465 C69.83625,40.465 76.73,45.92875 76.96625,51.0375" id="Fill-46" fill="#FFFFFE"></path>
                <path d="M76.88875,83.098125 C76.935625,83.1075 76.979375,83.123125 77.0275,83.12875 C77.9575,83.24 78.800625,82.575 78.90875,81.6475 C79.019375,80.716875 78.355625,79.87375 77.42625,79.765625 C77.35625,79.756875 77.2875,79.76125 77.21875,79.761875 C76.375625,79.765 75.645,80.3875 75.545625,81.25 C75.4425,82.1275 76.0375,82.925 76.88875,83.098125" id="Fill-47" fill="#FFFFFE"></path>
                <path d="M73.0075,70.29625 C73.0075,70.29625 74.66875,67.5175 78.513125,65.30625 C78.513125,65.30625 69.14,67.59125 64.781875,74.310625 C64.808125,74.29375 64.8475,74.271875 64.875625,74.25375 C64.9525,74.205625 65.034375,74.15625 65.125625,74.103125 C65.175,74.074375 65.225,74.046875 65.279375,74.016875 C65.400625,73.949375 65.531875,73.880625 65.675,73.810625 C65.705,73.795625 65.729375,73.781875 65.760625,73.766875 C65.935,73.68375 66.128125,73.600625 66.33125,73.518125 C66.384375,73.49625 66.43875,73.47625 66.49375,73.454375 C66.703125,73.374375 66.9225,73.295625 67.159375,73.223125 C67.173125,73.219375 67.185,73.214375 67.19875,73.210625 C67.44625,73.135625 67.7125,73.069375 67.98875,73.00875 C68.053125,72.995 68.118125,72.981875 68.184375,72.96875 C68.47,72.91125 68.764375,72.86125 69.0775,72.825625 C69.08125,72.825625 69.08375,72.825 69.086875,72.825 C69.39875,72.79 69.72875,72.773125 70.066875,72.76625 C70.146875,72.764375 70.2275,72.764375 70.30875,72.764375 C70.6575,72.765 71.015,72.775625 71.389375,72.811875 C75.790625,73.23125 80.971875,76.2975 83.49375,79.618125 C86.02,82.934375 88.249375,86.471875 90.36875,86.325625 C90.495,86.31625 90.61625,86.29 90.73375,86.2525 C90.786875,86.235625 90.83625,86.20875 90.888125,86.185625 C90.946875,86.16 91.00625,86.13625 91.0625,86.10375 C91.135625,86.06125 91.206875,86.01 91.27625,85.956875 C91.304375,85.935625 91.33375,85.915625 91.361875,85.8925 C91.440625,85.82625 91.5175,85.7525 91.59125,85.674375 C91.600625,85.664375 91.61125,85.65625 91.620625,85.64625 C91.62,85.645625 91.619375,85.645625 91.61875,85.645 C89.244375,84.7575 87.049375,81.653125 86.44375,80.045625 C85.843125,78.4675 84.9875,76.28375 83.07875,74.371875 C82.014375,73.30625 80.619375,72.32625 78.76,71.581875 C77.198125,70.956875 75.31125,70.49625 73.0075,70.29625" id="Fill-48" fill="#FFFFFE"></path>
                <path d="M68.495625,74.676875 C67.868125,76.54875 66.00625,83.508125 71.17375,88.1475 C71.17375,88.1475 82.796875,86.2575 88.700625,92.39875 C88.700625,92.39875 83.041875,84.531875 72.010625,86.533125 C72.010625,86.533125 68.296875,83.324375 69.968125,74.88875 C69.968125,74.88875 69.361875,74.7775 68.495625,74.676875" id="Fill-49" fill="#FFFFFE"></path>
                <path d="M119.164375,84.855625 C119.9525,84.685625 120.53125,83.970625 120.4975,83.138125 C120.4675,82.35 119.89625,81.708125 119.15625,81.549375 C119.0225,81.52 118.885,81.501875 118.74125,81.506875 C118.70375,81.51 118.668125,81.52375 118.633125,81.52875 C118.203125,81.93 117.678125,82.48125 117.125,83.10125 C117.121875,83.158125 117.11375,83.20875 117.115,83.268125 C117.151875,84.205 117.93875,84.93 118.871875,84.89625 C118.9725,84.8925 119.07,84.87625 119.164375,84.855625" id="Fill-50" fill="#FFFFFE"></path>
                <path d="M107.474375,85.79125 C107.561875,85.898125 107.654375,85.9925 107.75125,86.08 C107.7725,86.098125 107.7925,86.11875 107.81375,86.13625 C107.90375,86.21125 108.00125,86.27125 108.100625,86.32625 C108.129375,86.341875 108.15625,86.3625 108.18625,86.376875 C108.314375,86.4375 108.448125,86.48375 108.59,86.506875 C110.686875,86.8625 113.245625,83.550625 116.076875,80.491875 C118.9075,77.42875 124.36,74.87625 128.783125,74.879375 C133.20875,74.879375 135.645,77.38875 135.645,77.38875 C132.119375,70.04375 122.79,66.70625 122.79,66.70625 C126.38125,69.308125 127.74,72.2475 127.74,72.2475 C125.59,72.233125 123.74625,72.46125 122.15875,72.85125 C120.411875,73.280625 118.97625,73.906875 117.80125,74.631875 C114.526875,76.65375 113.254375,79.429375 112.74375,80.763125 C112.0325,82.618125 109.220625,85.631875 107.175,85.35375 C107.25875,85.49875 107.350625,85.6325 107.4475,85.755625 C107.45625,85.7675 107.465,85.779375 107.474375,85.79125" id="Fill-51" fill="#FFFFFE"></path>
                <path d="M109.666875,92.71125 C116.18625,87.22375 127.69625,90.19375 127.69625,90.19375 C133.381875,86.069375 132.17125,78.83375 131.7575,77.010625 C131,77.015625 130.393125,77.05375 130.133125,77.0725 C130.113125,77.07375 130.100625,77.075 130.085,77.07625 C130.031875,77.08 129.995,77.083125 129.995,77.083125 C130.849375,85.64 126.84625,88.478125 126.84625,88.478125 C116.0575,85.4275 109.666875,92.71125 109.666875,92.71125" id="Fill-52" fill="#FFFFFE"></path>
                <path d="M23.59,141.22875 C23.285,140.683125 22.900625,140.281875 22.706875,140.111875 L22.77875,139.991875 C22.998125,140.02875 23.584375,140.256875 24.223125,140.61625 C25.005625,141.054375 26.0225,141.83875 26.835,142.259375 C28.22875,142.9725 29.95375,143.28 32.303125,141.965 C35.1375,140.378125 35.985,137.87375 35.076875,136.251875 C34.12625,134.554375 31.56125,134.06 28.7875,135.613125 C26.195,137.06375 25.535,139.085625 25.395,140.5775 L25.26125,140.551875 C24.38125,138.516875 24.37125,135.476875 27.55375,133.695 C30.6,131.99 34.195625,133.0425 35.77375,135.86125 C37.318125,138.619375 36.6125,142.16 33.550625,143.87375 C30.55,145.554375 27.69125,144.10875 25.339375,142.04125 C25.4225,142.15375 25.49875,142.29125 25.58375,142.441875 C26.336875,143.7525 26.380625,145.67875 27.19625,147.1725 C27.891875,148.415 28.699375,149.03875 29.221875,149.403125 L29.149375,149.523125 C28.48,149.5 26.04875,149.069375 24.97125,147.144375 C24.199375,145.765625 24.59125,143.016875 23.59,141.22875" id="Fill-53" fill="#121B2C"></path>
                <path d="M24.580625,141.084375 L25.4825,141.87875 C28.411875,144.45375 31.0175,145.045 33.445,143.685 C34.8375,142.905 35.808125,141.669375 36.179375,140.205625 C36.536875,138.795625 36.325625,137.290625 35.584375,135.9675 C34.025625,133.18375 30.544375,132.26875 27.66,133.884375 C24.906875,135.42625 24.595625,137.935 25.263125,139.948125 C25.615625,138.0175 26.76375,136.496875 28.68125,135.424375 C31.770625,133.693125 34.3325,134.47875 35.265625,136.14625 C35.755,137.019375 35.764375,138.13625 35.291875,139.20875 C34.781875,140.365625 33.785625,141.38375 32.40875,142.15375 C30.370625,143.295 28.56875,143.389375 26.735625,142.453125 C26.281875,142.2175 25.77125,141.875 25.276875,141.544375 C25.035625,141.3825 24.801875,141.22625 24.580625,141.084375 Z M23.779375,141.123125 C24.33375,142.113125 24.4725,143.34 24.605625,144.526875 C24.71625,145.50625 24.820625,146.431875 25.16,147.03875 C25.98,148.503125 27.679375,149.078125 28.6525,149.24875 C28.12875,148.826875 27.5375,148.225625 27.006875,147.27875 C26.580625,146.4975 26.36125,145.6175 26.149375,144.76625 C25.94625,143.94625 25.753125,143.171875 25.395,142.550625 C25.308125,142.395625 25.24,142.271875 25.165,142.17 L24.190625,140.84625 C24.165625,140.833125 24.14125,140.819375 24.116875,140.805 C23.80375,140.63 23.51,140.489375 23.27125,140.388125 C23.445,140.59625 23.625,140.84625 23.779375,141.123125 Z M29.26875,149.744375 L29.141875,149.74 C28.300625,149.71125 25.8775,149.208125 24.78125,147.250625 C24.399375,146.5675 24.29,145.599375 24.175,144.575 C24.045625,143.43125 23.913125,142.24875 23.400625,141.335 C23.060625,140.72625 22.64375,140.345625 22.56375,140.27375 L22.426875,140.154375 L22.66875,139.75375 L22.81375,139.778125 C23.068125,139.82 23.670625,140.0575 24.329375,140.4275 C24.693125,140.630625 25.09375,140.89875 25.518125,141.184375 C26.001875,141.508125 26.503125,141.84375 26.934375,142.0675 C27.9975,142.610625 29.7025,143.17125 32.196875,141.77625 C33.831875,140.86125 34.56625,139.78 34.894375,139.03375 C35.311875,138.08625 35.309375,137.111875 34.886875,136.358125 C34.05875,134.878125 31.734375,134.211875 28.893125,135.801875 C26.909375,136.911875 25.805625,138.525625 25.61125,140.5975 L25.58875,140.835 L25.108125,140.743125 L25.0625,140.638125 C24.13125,138.485 24.196875,135.325625 27.448125,133.50625 C30.546875,131.7725 34.28625,132.760625 35.963125,135.755625 C36.758125,137.175625 36.984375,138.79375 36.6,140.3125 C36.199375,141.893125 35.154375,143.224375 33.656875,144.0625 C31.289375,145.39 28.7925,145.011875 26.04625,142.904375 C26.26875,143.44875 26.416875,144.043125 26.570625,144.66125 C26.775625,145.48625 26.988125,146.339375 27.38625,147.06875 C28.03,148.2175 28.771875,148.825 29.34625,149.225 L29.513125,149.340625 L29.26875,149.744375 L29.26875,149.744375 Z" id="Fill-54" fill="#121B2C"></path>
                <path d="M45.850625,160.626875 C44.36125,162.11 41.74375,162.559375 39.59875,160.404375 C37.343125,158.139375 37.250625,155.683125 39.0725,153.86875 L43.6025,149.358125 L43.421875,147.846875 L43.495625,147.773125 L46.706875,150.999375 L46.633125,151.071875 L45.06125,150.8225 L40.580625,155.284375 C39.189375,156.67 39.210625,158.31625 40.755,159.866875 C42.164375,161.2825 43.97,161.15125 45.213125,159.913125 L49.681875,155.464375 L49.44,153.89125 L49.51375,153.816875 L51.91625,156.23 L51.8425,156.30375 L50.35625,156.14125 L45.850625,160.626875" id="Fill-55" fill="#121B2C"></path>
                <path d="M43.69125,148.276875 L43.83,149.436875 L39.225625,154.0225 C38.365625,154.879375 37.95,155.8925 38.0225,156.9525 C38.09875,158.050625 38.69625,159.191875 39.7525,160.25125 C40.701875,161.204375 41.825,161.690625 42.965,161.6625 C43.968125,161.6375 44.96375,161.20375 45.6975,160.47375 L50.276875,155.914375 L51.42,156.039375 L49.728125,154.340625 L49.913125,155.540625 L49.835,155.6175 L45.36625,160.06625 C43.97125,161.455 42.011875,161.436875 40.60125,160.02 C38.993125,158.404375 38.929375,156.6225 40.4275,155.13125 L44.98625,150.59125 L46.18375,150.78125 L43.69125,148.276875 Z M42.865625,162.098125 C41.630625,162.098125 40.45,161.5675 39.445,160.558125 C38.314375,159.421875 37.673125,158.18625 37.59,156.9825 C37.508125,155.7925 37.9675,154.663125 38.919375,153.715625 L43.374375,149.279375 L43.19375,147.768125 L43.495625,147.46625 L47.014375,151 L46.7075,151.303125 L45.135625,151.054375 L40.733125,155.438125 C39.411875,156.755 39.474375,158.2725 40.90875,159.71375 C42.158125,160.969375 43.826875,160.986875 45.060625,159.76 L49.45125,155.388125 L49.20875,153.815625 L49.51375,153.510625 L52.2225,156.23 L51.921875,156.530625 L50.43625,156.368125 L46.003125,160.78 C45.1925,161.588125 44.08875,162.06875 42.97625,162.09625 C42.939375,162.096875 42.901875,162.098125 42.865625,162.098125 L42.865625,162.098125 Z" id="Fill-56" fill="#121B2C"></path>
                <polyline id="Fill-57" fill="#121B2C" points="52.67875 170.9575 52.734375 170.87 54.234375 170.708125 59.264375 162.74375 58.76625 161.319375 58.82125 161.231875 62.568125 163.5975 62.5125 163.685625 61.011875 163.848125 55.983125 171.81125 56.48125 173.235625 56.425625 173.32375 52.67875 170.9575"></polyline>
                <path d="M53.209375,171.03625 L56.126875,172.87875 L55.74375,171.784375 L60.884375,163.644375 L62.0375,163.51875 L59.12125,161.6775 L59.50375,162.77125 L54.361875,170.911875 L53.209375,171.03625 Z M56.4925,173.623125 L52.379375,171.025 L52.6075,170.665 L54.106875,170.50375 L59.025,162.716875 L58.5275,161.293125 L58.7525,160.931875 L62.8675,163.530625 L62.639375,163.89 L61.139375,164.0525 L56.2225,171.83875 L56.720625,173.263125 L56.4925,173.623125 L56.4925,173.623125 Z" id="Fill-58" fill="#121B2C"></path>
                <path d="M69.89,179.818125 L66.375,178.60625 L66.40875,178.5075 L67.914375,177.979375 L70.831875,169.51875 C70.546875,168.850625 70.111875,167.98375 69.9925,167.79625 L70.02625,167.696875 L72.720625,168.62625 L76.981875,178.919375 L79.345,172.069375 L78.305,170.6625 L78.33875,170.56375 L81.804375,171.75875 L81.770625,171.858125 L80.24875,172.38125 L76.855,182.220625 L76.0825,181.95375 L71.4125,170.821875 L68.834375,178.295625 L69.92375,179.72 L69.89,179.818125" id="Fill-59" fill="#121B2C"></path>
                <path d="M76.245,181.78 L76.720625,181.944375 L80.078125,172.209375 L81.265,171.8025 L78.785625,170.9475 L79.586875,172.031875 L77.000625,179.530625 L72.556875,168.799375 L70.37625,168.046875 C70.5675,168.41875 70.83625,168.976875 71.03125,169.435 L71.064375,169.510625 L68.085,178.149375 L66.91125,178.560625 L69.42875,179.429375 L68.59125,178.334375 L68.629375,178.225 L71.3925,170.215 L76.245,181.78 Z M76.989375,182.496875 L75.92,182.126875 L71.4325,171.429375 L69.0775,178.256875 L70.166875,179.680625 L70.024375,180.093125 L66.099375,178.74 L66.238125,178.3375 L67.74375,177.80875 L70.599375,169.5275 C70.310625,168.86 69.909375,168.07 69.809375,167.911875 L69.753125,167.824375 L69.891875,167.420625 L72.883125,168.453125 L76.96375,178.3075 L79.1025,172.10625 L78.0625,170.699375 L78.204375,170.28875 L82.079375,171.624375 L81.940625,172.028125 L80.419375,172.551875 L76.989375,182.496875 L76.989375,182.496875 Z" id="Fill-60" fill="#121B2C"></path>
                <path d="M93.040625,185.005 L89.3275,184.809375 L89.333125,184.705625 L90.63375,183.7825 L91.105,174.845 C90.646875,174.281875 89.988125,173.56875 89.8225,173.420625 L89.8275,173.31625 L92.67375,173.46625 L99.61,182.18375 L99.99125,174.9475 L98.603125,173.883125 L98.608125,173.77875 L102.270625,173.97125 L102.264375,174.075625 L100.945625,174.9975 L100.39875,185.3925 L99.583125,185.35 L92.02125,175.938125 L91.605625,183.83375 L93.046875,184.90125 L93.040625,185.005" id="Fill-61" fill="#121B2C"></path>
                <path d="M99.691875,185.138125 L100.194375,185.164375 L100.734375,174.88125 L101.7625,174.16125 L99.14375,174.024375 L100.21375,174.845 L99.796875,182.766875 L92.565,173.678125 L90.260625,173.555625 C90.546875,173.86125 90.96,174.323125 91.273125,174.708125 L91.32625,174.773125 L91.32125,174.85625 L90.845,183.89875 L89.830625,184.61875 L92.490625,184.758125 L91.3825,183.93875 L91.835,175.359375 L99.691875,185.138125 Z M100.60375,185.62 L99.475,185.56125 L99.414375,185.485 L92.208125,176.516875 L91.828125,183.72875 L93.27,184.796875 L93.245,185.233125 L89.100625,185.014375 L89.12125,184.59 L90.423125,183.66625 L90.88375,174.916875 C90.42375,174.358125 89.81875,173.7075 89.678125,173.581875 L89.600625,173.51375 L89.621875,173.088125 L92.783125,173.254375 L92.84375,173.33125 L99.42375,181.60125 L99.769375,175.05 L98.38125,173.98625 L98.4025,173.55125 L102.49875,173.765625 L102.475625,174.193125 L101.156875,175.115 L100.60375,185.62 L100.60375,185.62 Z" id="Fill-62" fill="#121B2C"></path>
                <polyline id="Fill-63" fill="#121B2C" points="112.68 184.344375 112.6625 184.241875 113.663125 183.113125 112.035625 173.8375 110.71 173.116875 110.690625 173.014375 115.055625 172.248125 115.073125 172.35125 114.071875 173.479375 115.7 182.755625 117.026875 183.47625 117.044375 183.57875 112.68 184.344375"></polyline>
                <path d="M111.211875,173.143125 L112.230625,173.69625 L112.249375,173.8 L113.895625,183.17875 L113.12625,184.04625 L116.52375,183.45 L115.504375,182.896875 L115.48625,182.793125 L113.84,173.414375 L114.61,172.54625 L111.211875,173.143125 Z M112.50375,184.595625 L112.43125,184.175625 L113.43125,183.048125 L111.839375,173.9775 L110.514375,173.2575 L110.438125,172.838125 L115.2325,171.99625 L115.304375,172.4175 L114.304375,173.545 L115.89625,182.615625 L117.2225,183.335625 L117.295625,183.755 L112.50375,184.595625 L112.50375,184.595625 Z" id="Fill-64" fill="#121B2C"></path>
                <path d="M129.77875,174.991875 L129.7075,174.814375 C130.81,174.015 131.700625,172.458125 130.99375,170.70125 C130.38375,169.185 129.0275,168.606875 127.415,169.25625 L126.818125,169.495 L130.456875,178.540625 L132.096875,178.8925 L132.135625,178.98875 L127.83125,180.72 L127.7925,180.62375 L128.53875,179.311875 L125.023125,170.57375 L123.576875,170.144375 L123.538125,170.0475 L127.665625,168.3875 C130.035,167.43375 132.055625,167.80125 132.8275,169.719375 C133.775,172.073125 131.961875,174.1325 129.77875,174.991875" id="Fill-65" fill="#121B2C"></path>
                <path d="M124.074375,170.065625 L125.185,170.39625 L125.224375,170.4925 L128.779375,179.32875 L128.205625,180.335625 L131.54,178.995 L130.299375,178.72875 L130.25625,178.621875 L126.53625,169.375 L127.334375,169.05375 C128.173125,168.716875 128.9775,168.685625 129.6625,168.96625 C130.34125,169.245 130.871875,169.816875 131.194375,170.619375 C131.82125,172.178125 131.2775,173.53875 130.46,174.43125 C131.459375,173.87625 132.238125,173.084375 132.61125,172.218125 C132.95,171.43125 132.955625,170.616875 132.62625,169.800625 C132.27875,168.935 131.661875,168.3925 130.795,168.1875 C129.951875,167.986875 128.895,168.125625 127.746875,168.588125 L124.074375,170.065625 Z M127.71125,181.0025 L127.551875,180.6075 L128.2975,179.29625 L124.86125,170.751875 L123.415,170.3225 L123.255625,169.9275 L127.58375,168.18625 C128.818125,167.689375 129.964375,167.545 130.895625,167.765625 C131.893125,168.00125 132.63125,168.649375 133.02875,169.638125 C133.3975,170.55375 133.390625,171.505 133.00875,172.39 C132.501875,173.569375 131.323125,174.6175 129.858125,175.19375 L129.6575,175.2725 L129.443125,174.73875 L129.580625,174.639375 C130.56625,173.923125 131.47625,172.48375 130.7925,170.7825 C130.51375,170.089375 130.065625,169.600625 129.4975,169.3675 C128.92125,169.13 128.226875,169.163125 127.49625,169.456875 L127.1,169.61625 L130.615625,178.3525 L132.25625,178.704375 L132.416875,179.109375 L127.71125,181.0025 L127.71125,181.0025 Z" id="Fill-66" fill="#121B2C"></path>
                <polyline id="Fill-67" fill="#121B2C" points="145.5325 172.121875 145.47375 172.035625 145.93375 170.59875 140.696875 162.771875 139.193125 162.64875 139.135625 162.561875 142.818125 160.098125 142.87625 160.184375 142.415625 161.62125 147.6525 169.44875 149.15625 169.570625 149.215 169.658125 145.5325 172.121875"></polyline>
                <path d="M139.663125,162.469375 L140.819375,162.564375 L146.171875,170.564375 L145.81875,171.669375 L148.686875,169.750625 L147.530625,169.65625 L142.1775,161.655 L142.53125,160.55125 L139.663125,162.469375 Z M145.47375,172.42125 L145.235,172.069375 L145.695625,170.6325 L140.575,162.979375 L139.070625,162.85625 L138.835625,162.50125 L142.878125,159.7975 L143.11375,160.15125 L142.65375,161.5875 L147.774375,169.24125 L149.27875,169.363125 L149.515625,169.7175 L145.47375,172.42125 L145.47375,172.42125 Z" id="Fill-68" fill="#121B2C"></path>
                <path d="M154.87375,153.7725 L156.4125,157.085625 L158.31625,155.106875 L154.87375,153.7725 Z M157.535,163.01125 L157.5575,161.63375 L152.7725,151.245625 L153.025625,150.981875 L163.833125,155.11 L165.208125,155.035 L165.2825,155.106875 L162.25875,158.249375 L162.184375,158.1775 L162.339375,156.663125 L159.070625,155.4 L156.74625,157.81625 L158.194375,160.921875 L159.75125,160.7075 L159.82625,160.779375 L157.61,163.08375 L157.535,163.01125 L157.535,163.01125 Z" id="Fill-69" fill="#121B2C"></path>
                <path d="M155.2975,154.16875 L156.475625,156.706875 L157.93375,155.191875 L155.2975,154.16875 Z M156.34875,157.464375 L154.45,153.375625 L158.698125,155.021875 L156.34875,157.464375 Z M153.03125,151.289375 L157.775,161.588125 L157.758125,162.616875 L159.328125,160.984375 L158.065625,161.158125 L156.486875,157.773125 L159.015,155.145625 L162.5725,156.520625 L162.4475,157.74125 L164.821875,155.273125 L163.799375,155.329375 L163.75625,155.3125 L153.0825,151.23625 L153.03125,151.289375 Z M157.616875,163.389375 L157.31625,163.103125 L157.34,161.68 L152.513125,151.20125 L152.96875,150.728125 L153.1025,150.779375 L163.8675,154.890625 L165.29125,154.8125 L165.589375,155.100625 L162.265,158.55625 L161.95875,158.260625 L162.106875,156.805625 L159.126875,155.654375 L157.005,157.85875 L158.323125,160.685625 L159.824375,160.47875 L160.13375,160.7725 L157.616875,163.389375 L157.616875,163.389375 Z" id="Fill-70" fill="#121B2C"></path>
                <path d="M166.524375,143.953125 C163.720625,142.348125 162.565625,138.804375 164.516875,135.3975 C165.25875,134.10125 166.2525,133.02875 166.67375,132.608125 L168.64875,133.73875 L168.596875,133.83 C167.36375,134.024375 165.848125,134.67875 165.09,136.005 C163.985,137.935 165.031875,140.476875 167.474375,141.874375 C170.26375,143.47125 173.0475,142.8025 174.14375,140.888125 C175.075625,139.26 174.44375,137.496875 174.12125,136.731875 L174.17375,136.641875 L176.028125,137.703125 C175.9775,138.315 175.7175,139.7475 174.803125,141.345625 C173.01625,144.46625 169.660625,145.748125 166.524375,143.953125" id="Fill-71" fill="#121B2C"></path>
                <path d="M166.631875,143.765 C169.53375,145.4275 172.81375,144.38375 174.615,141.238125 C175.510625,139.67125 175.741875,138.3025 175.798125,137.821875 L174.48625,137.070625 C175.019375,138.564375 174.96875,139.883125 174.331875,140.99625 C173.09,143.16625 170.094375,143.624375 167.366875,142.0625 C166.141875,141.36125 165.2125,140.351875 164.750625,139.22125 C164.280625,138.06875 164.334375,136.888125 164.901875,135.898125 C165.7275,134.454375 167.28875,133.9 168.141875,133.699375 L166.710625,132.879375 C166.313125,133.290625 165.400625,134.290625 164.705,135.505 C163.801875,137.08125 163.54,138.738125 163.9475,140.29625 C164.330625,141.760625 165.28375,142.9925 166.631875,143.765 Z M169.470625,144.988125 C168.455,144.988125 167.415,144.713125 166.4175,144.14125 C164.96625,143.31125 163.94,141.984375 163.5275,140.405 C163.098125,138.759375 163.381875,136.941875 164.32875,135.289375 C165.13125,133.88875 166.21,132.76625 166.520625,132.455 L166.638125,132.338125 L168.944375,133.65875 L168.733125,134.028125 L168.630625,134.044375 C168.07125,134.131875 166.17625,134.54375 165.2775,136.1125 C164.77875,136.985625 164.73375,138.03125 165.151875,139.0575 C165.5775,140.099375 166.440625,141.033125 167.581875,141.68625 C170.096875,143.125 172.835625,142.73625 173.955625,140.780625 C174.580625,139.688125 174.569375,138.35375 173.920625,136.815 L173.87875,136.715 L174.095,136.346875 L176.255,137.58375 L176.24375,137.72125 C176.209375,138.143125 176.016875,139.660625 174.990625,141.453125 C173.68,143.74375 171.629375,144.988125 169.470625,144.988125 L169.470625,144.988125 Z" id="Fill-72" fill="#121B2C"></path>
            </g>
        </g>
    </g>
</svg>