<?xml version="1.0" encoding="UTF-8"?>
<svg width="200px" height="200px" viewBox="0 0 200 200" version="1.1" xmlns="http://www.w3.org/2000/svg" xmlns:xlink="http://www.w3.org/1999/xlink">
    <!-- Generator: Sketch 54.1 (76490) - https://sketchapp.com -->
    <title>richmond</title>
    <desc>Created with Sketch.</desc>
    <g id="richmond" stroke="none" stroke-width="1" fill="none" fill-rule="evenodd">
        <g id="richmond_BGL">
            <g id="richmond" transform="translate(27.000000, 0.000000)">
                <g id="g10" transform="translate(72.651800, 100.330371) scale(-1, 1) rotate(-180.000000) translate(-72.651800, -100.330371) translate(0.000000, 0.655645)" fill-rule="nonzero">
                    <g id="g12">
                        <path d="M144.284703,86.7640578 C143.379213,88.3277549 142.128185,90.3380833 142.128185,90.3380833 L139.929139,92.3962557 L138.73127,95.3581455 C138.73127,95.3581455 137.763761,97.0893848 136.189343,97.8619746 C134.614039,98.6345645 132.307788,99.907743 132.307788,99.907743 C132.307788,99.907743 131.006257,101.524689 129.702069,103.701585 C128.396995,105.879367 126.988258,106.70866 126.988258,106.70866 L125.304863,107.258865 L122.037304,109.139838 L121.579243,110.482124 L118.009559,111.8377 L119.117056,112.945197 L114.934262,114.582521 L111.796944,114.447849 C111.796944,114.447849 112.350693,115.573066 110.439596,116.232248 C108.525841,116.889658 106.176176,116.649553 106.176176,116.649553 C106.176176,116.649553 105.549775,117.934249 102.971523,117.803122 C100.392384,117.67288 95.8073463,116.294268 95.8073463,116.294268 L94.0052273,117.178493 L86.5567344,114.495693 C86.5567344,114.495693 86.6467517,115.356882 88.7716397,116.267688 C90.8936038,117.179379 92.8082445,120.141269 93.8670116,120.877533 C94.9275507,121.614683 95.3067577,123.803097 95.3067577,123.803097 C95.3067577,123.803097 97.1514046,124.433041 98.3129474,126.516022 C99.4736042,128.598116 100.954106,130.00065 100.954106,130.00065 L99.5134741,130.672236 L101.183579,132.366264 C101.183579,132.366264 101.789602,133.883977 102.118307,135.119944 C102.443468,136.355025 103.672347,137.148878 103.672347,137.148878 L105.224614,139.739535 C105.224614,139.739535 104.651374,141.417615 103.985104,140.628191 C103.31529,139.836995 103.449075,141.222695 103.449075,141.222695 L105.080197,143.998526 L106.491591,145.948606 L108.042087,149.492597 L106.048592,148.3851 C106.048592,148.3851 106.659044,150.344926 106.483617,151.408123 C106.309075,152.473092 106.473871,153.090633 106.632464,154.268123 C106.791944,155.447386 105.938728,156.841946 105.938728,156.841946 L106.710432,158.978086 L106.644868,160.267213 L105.798741,161.101823 L104.701876,165.410429 L105.127155,168.553062 L104.883505,171.465336 L104.642514,173.819432 L104.912743,175.221966 L104.335073,177.459996 L103.597923,178.520535 L103.685637,179.258571 C103.685637,179.258571 103.612099,180.502511 101.840104,180.724011 C102.557762,181.697722 101.65936,183.102914 101.65936,183.102914 L98.9570676,188.706849 L98.2500416,187.054463 L98.2261196,184.928069 L98.7488582,182.296656 L98.7036723,180.783372 C98.7036723,180.783372 97.8752646,179.375522 98.3333253,178.034122 C98.7905001,176.691836 100.261256,173.332133 100.261256,173.332133 C100.261256,173.332133 99.540054,172.150212 99.6153638,169.739413 C99.6889016,167.329499 100.453518,163.58616 100.453518,163.58616 L100.593505,159.88712 L101.223449,156.802076 C101.223449,156.802076 99.8740751,156.903966 100.226702,154.776686 C100.579329,152.64852 100.511107,150.600093 100.511107,150.600093 C100.511107,150.600093 98.9030218,149.179839 98.460023,148.279666 C98.0187962,147.380378 97.6635112,144.723272 97.6635112,144.723272 C97.6635112,144.723272 95.7727924,144.379505 96.1812373,142.083885 C96.5887961,139.788265 95.8091183,139.33552 95.8091183,139.33552 L93.6401963,136.909659 C93.6401963,136.909659 93.5303326,135.002106 93.2016275,133.76614 C92.8729224,132.531059 90.9866336,129.557651 90.9866336,129.557651 C90.9866336,129.557651 89.5885294,129.26793 89.2031205,128.199417 C88.8203695,127.130904 88.8239135,126.570954 88.8239135,126.570954 C88.8239135,126.570954 87.9203732,127.573903 87.257647,126.223643 C86.5913769,124.873382 86.0428558,123.187329 86.0428558,123.187329 C86.0428558,123.187329 84.7536407,123.121765 84.0354511,121.939844 C83.3121227,120.757038 81.4622484,120.476176 81.4622484,120.476176 L83.2342435,123.355668 L82.9013742,125.563574 L82.4963847,127.299244 L84.0313755,130.891078 C84.0313755,130.891078 83.8063321,132.240452 83.7458185,132.969628 C83.6835329,133.697918 85.227738,135.316636 85.227738,135.316636 C85.227738,135.316636 84.782347,137.069139 84.5435707,138.861512 C84.3064777,140.652999 84.1835899,142.109579 84.1835899,142.109579 C84.1835899,142.109579 84.4041147,146.216178 84.1202411,147.056103 C83.8330006,147.895143 83.5952875,146.029232 83.5952875,146.029232 L82.9653432,147.875651 L82.3890904,150.113681 L80.8594156,152.401327 L81.4616282,154.478991 L80.3852297,155.986073 L79.2967817,159.173006 C79.2967817,159.173006 79.8989943,161.251556 78.9939478,162.254505 C78.0872179,163.255683 77.3586621,163.756271 77.3586621,163.756271 C77.3586621,163.756271 77.2911491,165.043626 76.8308733,166.947634 C76.3671422,168.849871 76.0798132,169.688025 75.2353689,170.523521 C74.3891526,171.35813 73.2629611,171.910993 73.2629611,171.910993 L71.3819883,176.326805 L71.3681668,177.496321 C71.3681668,177.496321 71.3616104,178.024376 69.897588,179.022009 C68.4311734,180.020528 67.592311,180.83919 67.592311,180.83919 C67.592311,180.83919 67.7514361,182.017567 66.7339565,183.355423 C65.7157681,184.695052 64.4261987,184.628602 64.4261987,184.628602 L63.6177259,186.435151 C63.6177259,186.435151 63.4159842,188.709507 62.1918014,188.919488 C61.5273032,187.811991 60.660709,190.418596 60.660709,190.418596 L58.6890101,191.806068 C58.6890101,191.806068 59.2455937,192.370449 58.0580912,193.650715 C56.8737783,194.932753 54.84635,195.926843 54.84635,195.926843 C54.84635,195.926843 52.9871728,197.539358 52.4212861,198.094879 C51.8571715,198.652171 50.641317,199.342363 50.641317,199.342363 C50.641317,199.342363 48.4107295,199.406155 48.7537878,198.398776 C49.0964031,197.393169 49.059014,198.070957 49.9577699,197.62973 C50.8586522,197.186731 52.7081721,194.05916 52.7081721,194.05916 L55.4939257,191.83885 L55.6735174,190.732239 C55.6735174,190.732239 55.7022237,189.330591 56.322422,188.605845 C56.9464301,187.881985 57.2942727,186.314655 57.8574127,185.758249 C58.424274,185.201842 59.3743292,185.152226 59.3743292,185.152226 C59.3743292,185.152226 60.3765696,183.497183 61.1701576,182.270076 C61.9644544,181.042084 62.4178194,180.260634 63.4360078,178.922778 C64.4563226,177.584035 64.9844657,176.952319 64.9844657,176.952319 L65.9472793,175.782802 C65.9472793,175.782802 65.5589465,175.27424 66.2379751,174.382926 C66.9167378,173.490726 67.5410117,172.20603 67.5410117,172.20603 C67.5410117,172.20603 67.9435204,171.032083 68.8434281,170.58997 C69.7443104,170.147858 69.69372,169.194524 69.69372,169.194524 C69.69372,169.194524 69.9796314,168.355485 70.8881333,166.792585 C71.7966352,165.228799 72.7674227,162.938496 72.7674227,162.938496 C72.7674227,162.938496 71.0379555,163.903347 71.4947758,162.561061 C71.9551401,161.21966 74.1531229,158.466866 74.1531229,158.466866 L74.6251824,157.051042 C74.6251824,157.051042 74.3390052,155.045143 74.7387673,153.87031 C75.1384408,152.695478 76.2113838,151.751004 76.2113838,151.751004 L76.791092,148.952138 C76.791092,148.952138 76.0659916,148.329282 76.1871075,147.433538 C76.304768,146.537795 76.9855685,145.471054 76.9855685,145.471054 L76.9855685,143.110756 C76.9855685,143.110756 76.3947853,141.886307 76.6803423,141.046382 C76.9658108,140.208228 77.1097854,140.185192 77.457628,138.618748 C77.8054706,137.051419 77.0558281,135.555855 77.0558281,135.555855 C77.0558281,135.555855 75.8825901,135.155384 75.8323541,134.201165 C75.7839786,133.248717 75.9639247,131.623798 75.9639247,131.623798 C75.9639247,131.623798 75.8600858,130.277081 75.7562469,129.492088 C75.6489526,128.707094 76.0988621,128.485594 75.4309086,127.696171 C74.762955,126.905861 74.7681824,126.345024 75.1696279,125.171963 C75.56939,123.997131 75.0042122,122.971146 75.0042122,122.971146 C75.0042122,122.971146 74.4784612,123.866889 73.6329537,125.206517 C72.7269326,126.641833 70.2309003,127.570359 70.2309003,127.570359 L71.216927,129.066809 L71.9377746,130.886648 L71.9166878,133.052026 L72.0769648,134.230403 L71.564681,135.179306 L70.3405868,139.022763 C70.3405868,139.022763 68.7409182,139.917621 68.1255929,140.35176 C66.2428481,141.680756 66.5750972,139.465762 66.5750972,139.465762 L67.6825941,138.358265 C67.6825941,138.358265 68.2737317,137.326078 68.172285,135.981134 C68.070218,134.634417 67.7113004,134.997676 68.3937843,133.54464 C69.0766227,132.091604 66.7903946,128.866573 66.7903946,128.866573 C66.7903946,128.866573 65.9912248,130.017484 64.0877476,129.554993 C62.1841818,129.091617 62.2921849,127.475557 62.2921849,127.475557 L60.8486291,128.711524 L58.6478112,130.22215 C58.6478112,130.22215 58.4903694,132.155396 58.0940627,132.769393 C57.6978446,133.383389 57.775015,134.549362 57.775015,134.549362 L57.9965144,137.650353 L56.4896097,137.514795 C56.4896097,137.514795 55.2702999,135.753432 54.939114,135.078302 C54.6082825,134.403172 54.7566871,133.937137 54.8744362,133.040508 C54.9934256,132.144764 55.5662231,130.467571 55.5662231,130.467571 L55.0678494,129.735737 C55.0678494,129.735737 55.5246698,128.393451 56.4872175,127.223048 C57.4476389,126.052645 58.7585609,125.016914 58.7585609,125.016914 L59.2015596,123.687918 C59.2015596,123.687918 58.419401,122.276523 57.7618136,120.365427 C57.101834,118.45433 57.9989066,116.490073 57.0973154,116.932186 C56.1974963,117.373413 54.6975024,118.744937 54.6975024,118.744937 L53.5017601,121.145991 C53.5017601,121.145991 53.8299336,122.381957 52.7587626,123.328203 C51.6865283,124.272676 50.7877724,124.715675 50.7877724,124.715675 C50.7877724,124.715675 50.8922315,125.500669 49.9373919,126.110235 C48.9787426,126.719801 47.8002772,126.879281 47.8002772,126.879281 C47.8002772,126.879281 48.2951955,128.172837 47.4489792,129.007447 C46.6016997,129.842943 45.982919,130.005966 45.982919,130.005966 L44.616888,132.911152 C44.616888,132.911152 43.7637609,134.793897 42.9694641,136.022776 C42.1738383,137.248996 42.3870093,138.893408 42.3870093,138.893408 L41.4148928,141.74632 C41.4148928,141.74632 42.0187887,143.264034 41.3889331,145.107795 C40.7579256,146.954214 39.1268041,147.895143 39.1268041,147.895143 C39.1268041,147.895143 40.0114727,149.694604 39.6117106,150.870323 C39.2109739,152.045155 38.0185984,153.885372 38.0185984,153.885372 L37.712309,157.527708 L38.0051312,159.410453 C38.0051312,159.410453 38.4059565,160.604778 38.0051312,161.778725 C37.6043945,162.952671 37.1025655,164.250658 37.1025655,164.250658 L37.144739,166.324778 L37.4147024,167.727312 L36.3435314,168.673558 L36.2200233,170.130138 C36.2200233,170.130138 36.8333108,170.527065 36.4829874,172.655231 C36.1317779,174.782511 34.6626168,176.340095 34.6626168,176.340095 L34.4729247,179.085801 L35.1893423,180.83033 C35.1893423,180.83033 34.2663101,182.863695 34.9280617,184.213069 C35.591851,185.564215 35.1163361,185.744959 35.1654204,186.698292 C35.2153021,187.653397 35.8814836,189.774476 35.8814836,189.774476 C35.8814836,189.774476 37.4299416,193.640969 34.4576856,191.1903 L33.513921,188.358652 L32.7649872,186.160492 L32.4216632,183.8188 L31.9959413,180.676167 L30.6814753,177.37051 L31.62524,175.002238 L31.8363732,171.631018 L31.7052455,169.088205 L32.4638366,167.598843 L31.5103261,165.274871 L30.5173886,165.883551 L32.0647833,160.719958 L32.0814401,158.477498 L32.544108,156.388316 L33.0827059,154.074976 L33.3238745,151.908712 L32.9684123,149.289703 L33.3968807,146.170106 L34.4576856,141.930607 L32.9538819,142.404616 L34.9473764,139.303625 L35.8814836,136.022776 L36.7380661,134.591004 L37.496037,133.102528 L38.2498437,132.360948 L38.4893289,130.19557 L39.3286343,127.735154 L41.5113779,125.7328 L42.3413805,124.766177 L42.503961,122.82407 L43.2619319,121.333822 L44.2493762,119.174646 L45.2249481,118.508376 L45.6835405,117.16609 L46.8941675,115.082223 L49.2943349,113.90296 L51.1168319,110.951703 L48.6803386,110.730203 L46.4653447,110.951703 L42.9213545,112.280699 L42.489785,110.974739 L39.8938122,112.398537 L38.0238257,111.804032 C38.0238257,111.804032 37.2658548,113.293394 35.9881577,114.10674 C34.7117011,114.9192 33.8164005,114.613531 33.8164005,114.613531 L33.3757939,113.714243 L28.93544,117.942223 L27.8417646,116.646895 C27.8417646,116.646895 26.8346511,118.973525 26.0120024,119.19148 C25.1872273,119.410321 21.888304,121.030811 21.888304,121.030811 C21.888304,121.030811 21.9529818,122.301331 20.6707661,123.861573 C19.389525,125.423587 17.6527926,127.577447 17.6527926,127.577447 L16.5141971,130.18671 C16.5141971,130.18671 15.3080001,131.521908 14.1849982,131.887825 C13.0591611,132.253742 13.3502113,133.60223 13.2688767,134.572398 C13.1875421,135.543451 11.468441,139.746623 11.468441,139.746623 L10.6980662,138.440663 L9.79372844,139.629672 L10.0121268,140.453649 L8.95380275,142.090973 L7.82377489,143.203786 L7.13678124,145.216772 L6.00263348,147.077367 L4.41061104,150.280248 L3.27369011,151.614561 C3.27369011,151.614561 3.79871454,152.069077 3.4934618,152.963935 C3.18890014,153.857907 2.48563958,155.893043 0.913684985,156.106568 C-0.655845519,156.319208 0.273067106,153.613371 0.273067106,153.613371 L0.441614852,151.850236 L1.42625229,149.511202 L1.81317629,147.645292 L3.79283152,142.5765 L3.43185839,140.705273 C3.43185839,140.705273 4.26767305,138.992639 5.16681882,138.550527 C6.06666452,138.108414 6.59618096,137.289752 6.59618096,137.289752 L7.42576706,136.324901 L7.14093656,134.229517 C7.14093656,134.229517 7.67599049,132.663073 8.12833655,132.069454 C8.58275584,131.474064 9.11018132,130.655402 9.11018132,130.655402 L10.3917768,129.095161 L11.4449621,128.205619 L12.438254,125.297775 L13.7973742,123.514262 L15.9067572,120.987397 C15.9067572,120.987397 17.0315311,120.622366 17.0367585,119.874584 C17.0402139,119.126802 15.4554301,119.368679 15.4554301,119.368679 C15.4554301,119.368679 17.353414,117.485049 18.7059779,116.448431 C20.0581874,115.410928 21.8751026,112.285129 21.8751026,112.285129 L22.7005865,112.06806 L23.8340432,110.207465 L25.4855427,109.022886 L30.288624,106.665246 L31.4816197,106.82384 C31.4816197,106.82384 31.4591154,105.36283 32.8058317,105.074881 C34.1528138,104.78516 36.5893071,104.59467 36.5893071,104.59467 L38.7132204,103.886758 C38.7132204,103.886758 39.6296963,102.625098 40.6019014,102.706609 C41.5733978,102.789007 44.1493471,103.178846 44.1493471,103.178846 L49.3448368,103.199224 L42.2534009,99.6383997 L41.7813414,97.9869003 L38.9496046,95.8551902 C38.9496046,95.8551902 37.1038945,94.0078852 36.8879769,93.1847935 C36.6688697,92.3599298 35.7794167,91.3082507 35.7794167,91.3082507 L34.0714792,89.725859 L32.4344215,88.6670919 L30.8794072,86.6374487 L28.0774399,83.8108507 C26.5303996,83.4858668 27.9230991,82.1309107 27.2569176,81.1556046 C26.5917106,80.1793239 24.2884713,78.1439217 23.3224682,77.3147166 C22.3572625,76.4855115 22.5108944,76.0379941 22.7403678,75.3672054 C22.9677148,74.6975684 22.9677148,74.6975684 22.9677148,74.6975684 L22.0083566,73.1214673 L22.4658858,71.778295 L22.5482835,70.8064443 C22.5482835,70.8064443 21.8121968,69.3044126 21.3698182,68.4042391 C20.9275282,67.5068122 19.6677283,66.0760147 19.6677283,66.0760147 C19.6677283,66.0760147 19.3780957,64.7300958 19.684385,63.8343523 C19.9882822,62.9394062 20.5894315,62.645255 20.5894315,62.645255 L19.4040554,60.9929581 C19.4040554,60.9929581 18.96274,60.0938478 19.5684079,59.0499655 C20.1731013,58.0079437 20.4031948,57.3365348 20.4031948,57.3365348 C20.4031948,57.3365348 19.8234866,54.6404442 19.2281849,54.1884082 C18.6346551,53.7368153 19.3873986,52.9940835 19.0988292,51.646747 C18.8098168,50.2997649 18.312152,46.6318236 18.312152,46.6318236 C18.312152,46.6318236 18.0231396,45.2869679 18.3294289,44.3912244 C18.6339463,43.4962783 20.1557357,39.7705699 20.6527804,43.4370936 C21.1483188,47.1004278 20.5433597,48.1432469 20.5433597,48.1432469 L21.5751038,50.2440357 L22.1776708,52.3828338 C22.1776708,52.3828338 23.7243567,52.7282843 24.1662923,53.6267744 C24.6092911,54.5269479 23.3921076,57.3586847 24.2759788,59.1590318 C25.1605587,60.9600876 26.1216889,62.5361887 26.1216889,62.5361887 L27.0734275,64.8595401 L26.7591641,67.2489869 C26.7591641,67.2489869 27.7217119,68.8243792 28.6090385,69.8785391 C29.4995546,70.9320788 30.1582052,72.6545466 30.1582052,72.6545466 C30.1582052,72.6545466 31.5068707,72.3656228 31.6470355,73.4128719 C31.7900355,74.461893 32.1333596,78.5748709 32.1333596,78.5748709 C32.1333596,78.5748709 33.2526403,76.7484755 33.8398795,77.948382 C34.4300424,79.1486429 35.2492358,81.885578 36.2200233,81.9678872 C37.1915196,82.0495762 38.7569001,82.5846301 39.5650185,84.6075397 C40.3731369,86.6311581 40.5202125,86.9323087 41.3439244,86.7135559 C42.1682565,86.4955119 42.9726537,88.2799996 44.2503508,90.3522593 C45.9022933,93.0306299 47.794341,92.7887526 47.794341,92.7887526 L53.5533252,96.5542422 C53.5533252,96.5542422 51.8568171,93.9228295 50.8953325,92.3457538 C49.9349998,90.7695642 48.7170189,90.7102023 48.0158404,88.137354 C50.489014,88.9382072 46.291955,84.657067 46.2961192,83.9091964 C46.30303,83.1615917 44.6878564,79.1150636 44.6878564,79.1150636 C44.6878564,79.1150636 43.9444158,78.3612569 44.3278756,77.2430394 C44.7092975,76.1231385 44.7909865,75.1519965 44.7909865,75.1519965 L42.9574146,70.2799846 C42.9574146,70.2799846 42.7386618,69.4569814 42.7452181,68.7101741 C42.7507999,67.9639869 43.0542541,67.0682434 43.0542541,67.0682434 L42.5472863,64.895866 C42.5472863,64.895866 41.7350037,63.6191435 41.8913823,62.425439 C42.0505961,61.2304055 42.73308,59.9644035 42.73308,59.9644035 C42.73308,59.9644035 42.5963706,58.1702585 42.6777051,57.19637 C42.7611661,56.2255824 43.2854995,55.0215118 43.2854995,55.0215118 L42.6413792,51.0556095 L42.2922076,47.6898819 C42.2922076,47.6898819 41.7914418,46.5017592 42.9213545,45.3879717 C44.0496724,44.2759561 44.1126668,43.815326 44.1126668,43.815326 L44.2503508,41.1794833 C45.3578478,39.8504869 46.2158478,37.9985748 45.0660888,37.0346981 L46.2123924,33.6793367 L47.5697407,31.8959122 L47.3513423,28.1110192 L48.6803386,29.661515 L49.4888114,24.8089949 L50.4762557,22.6486671 L52.2056343,21.2390449 L51.9938809,19.6702091 L53.0511418,18.032797 L54.0271567,17.3666154 C54.0271567,17.3666154 54.4095532,16.2483979 54.7159312,15.3544263 C55.0204486,14.4577082 55.7022237,13.1923265 55.7022237,13.1923265 L56.465422,10.9551826 L57.0727733,9.91519871 L58.4232108,8.87592357 L58.8060503,7.75767061 C58.8060503,7.75767061 59.4157939,5.97079073 59.9453546,5.15020636 C60.4749153,4.33238632 61.3439018,3.63881856 61.3439018,3.63881856 L64.5843492,0 C64.5843492,0 68.2443166,0.250571628 66.2860847,2.32920785 C64.3272327,4.40680125 62.3752915,5.73960738 62.3752915,5.73960738 L62.6961112,7.33958608 L62.3153981,8.45504815 L61.6325598,9.72276004 L60.3492809,11.2822929 L60.5693627,12.1080427 L59.2704903,15.9088836 L58.4415509,16.8747982 L56.766484,21.0486441 L56.0898476,21.5678386 L54.4753829,27.759101 C54.4753829,27.759101 55.6756438,27.1700012 54.9886412,29.1839623 C54.3016387,31.1950881 53.6204838,32.4610901 53.6204838,32.4610901 C53.6204838,32.4610901 51.9512644,35.8891032 52.0173598,37.1596237 C52.0831894,38.4312074 52.8891814,40.455446 52.2776659,42.2444523 C51.6685426,44.035142 50.9047241,46.2701594 50.9047241,46.2701594 C50.9047241,46.2701594 52.6008778,44.5611587 52.6673276,45.8309705 C52.7331573,47.1021998 50.6371528,52.1727638 50.6371528,52.1727638 L51.2965122,53.8960291 C51.2965122,53.8960291 53.0823289,55.2571871 51.7994044,56.8156568 C51.2653251,57.4649158 51.0189292,57.6898706 50.9112805,57.7341705 L51.0393071,58.6797071 L51.0801516,60.7545362 L51.5127842,62.7746992 L52.3486343,63.6225989 L52.5614509,65.192498 L53.3436096,65.6462173 L53.1591449,67.8310873 L53.5533252,70.6389022 L54.4393228,73.961393 L55.3253203,76.1763869 L55.5447819,78.9485847 C55.5447819,78.9485847 56.4982925,78.9008294 56.6014226,80.2447105 C56.7041983,81.5924014 57.5123167,84.5622652 57.5123167,84.5622652 L58.8952703,86.8533663 C58.6478112,86.1438595 59.9197493,85.0283886 60.2634277,84.0199461 C60.6067518,83.0152249 61.2400628,82.1108872 61.2400628,82.1108872 L61.5893231,80.4496418 C61.5893231,80.4496418 63.2114074,78.5623784 63.8274415,78.3982916 C64.4463108,78.2346479 64.6172197,76.9499514 65.2927929,76.6193857 C65.9677458,76.2854532 66.8332768,75.1734377 66.8332768,75.1734377 L68.8018748,75.2319135 C68.8018748,75.2319135 68.9213073,74.3362586 70.045018,73.7832189 C71.1708551,73.232217 72.2309512,73.9683038 72.2309512,73.9683038 C72.2309512,73.9683038 72.8026854,72.3222975 73.7540696,72.2741879 C74.7058968,72.2257238 76.5892618,71.0819009 76.5892618,71.0819009 L79.1756659,70.9188774 L83.4557429,72.1893979 C85.0211234,72.6199927 86.335235,74.8473906 86.335235,74.8473906 L86.5567344,76.1594644 L88.5502289,77.5053833 L89.006429,79.4995866 L89.6744712,81.0635495 L90.7651342,83.042868 L91.4943102,85.7033415 C91.4943102,85.7033415 92.1012185,88.7867016 92.0941305,89.9092605 C92.0852705,91.0300474 91.3277426,92.1065345 91.4296323,93.4532508 C91.5332941,94.7990811 90.8643659,96.624236 91.8735171,96.4080526 C92.8835543,96.1918692 93.7970178,96.2955309 94.5359398,95.2349919 C95.2713178,94.1753388 95.8498742,94.7689571 96.3610948,93.8182818 C96.8732014,92.8693784 98.2713055,93.1590996 98.2713055,93.1590996 L99.9741928,90.3699793 C99.9741928,90.3699793 101.045364,89.4237339 101.664676,89.2615963 C102.280444,89.0959148 102.796095,87.5870609 102.796095,87.5870609 C102.796095,87.5870609 103.917768,87.5939717 104.304949,88.1017369 C104.69656,88.6095021 105.484212,87.9421687 105.484212,87.9421687 C105.484212,87.9421687 105.660525,86.8782629 106.450835,86.2120813 C107.240259,85.5448365 108.643679,85.2745187 108.643679,85.2745187 C108.643679,85.2745187 109.273623,83.4280998 109.614732,82.9843922 C109.952297,82.5359002 110.406814,81.755425 111.249398,81.4816517 C112.092867,81.2069039 112.538524,81.5470383 112.538524,81.5470383 C112.538524,81.5470383 112.999243,79.6432068 113.623871,78.9202328 C114.244956,78.1945122 115.375488,77.0817878 115.375488,77.0817878 C115.375488,77.0817878 115.775073,75.9089043 116.390842,75.7437543 C117.010154,75.581794 117.010154,75.581794 117.010154,75.581794 L118.373704,73.2346092 C118.373704,73.2346092 119.217174,72.9629624 119.444875,72.291199 C119.673463,71.6197901 121.2656,68.6035886 121.724547,67.2613909 C122.182608,65.9199906 122.140966,63.8451615 122.140966,63.8451615 C122.140966,63.8451615 123.44604,61.6681769 123.563878,60.7725219 C123.681716,59.8758038 122.7399,58.2436191 122.7399,58.2436191 C122.7399,58.2436191 123.482366,56.6242813 123.767657,55.7849759 C124.053835,54.9449616 124.235464,53.3201306 124.235464,53.3201306 C124.235464,53.3201306 123.063289,52.3597093 123.240489,51.2965122 C123.41503,50.2315431 123.932453,48.7236639 123.932453,48.7236639 C123.932453,48.7236639 123.496542,46.7011087 123.892583,46.0878211 C124.292168,45.4727616 125.754064,44.474331 125.754064,44.474331 C125.754064,44.474331 124.876926,42.1139449 125.274739,40.9399981 C125.678754,39.7653425 126.140359,37.8622198 126.140359,37.8622198 L126.889913,35.1228925 L126.398184,33.2674364 L126.069479,32.0333304 L126.768531,28.337746 L126.102261,27.5476134 L125.676982,24.4057774 L126.198835,21.7744533 L125.548512,18.743367 C125.548512,18.743367 125.337645,17.1707213 126.569182,16.8419276 C127.80692,16.5148173 128.135625,17.7517585 128.293333,18.9291607 C128.453698,20.1076261 128.994157,22.9155295 128.994157,22.9155295 L129.867751,26.3974999 L129.350328,27.9061766 L129.800415,35.3654787 L129.339696,37.26869 L129.8899,38.3938183 L129.085415,41.3034343 L130.635024,41.1794833 L129.22363,45.8458552 L128.529894,48.4179947 C128.529894,48.4179947 130.265563,48.823693 130.030774,50.0554068 L129.168698,53.1315018 L128.70355,55.5952838 L128.242831,56.9378359 L128.518376,57.7795336 L128.395223,59.236911 L128.723928,60.4720802 L128.490024,61.7045028 L128.867459,63.8929167 L127.562385,66.0705215 L126.641833,69.3151332 L125.908227,69.8138612 L126.236933,71.0490304 L125.717738,73.1214673 L124.654541,74.6258912 L125.983537,75.2903894 C125.09754,76.1763869 124.654541,78.8343796 123.653364,79.7203772 C121.961108,81.2193078 120.886393,82.3347788 120.886393,82.3347788 C120.886393,82.3347788 120.547942,82.7822961 120.259993,83.6212472 C119.97293,84.4587807 120.308723,84.5729858 119.348301,85.744186 C118.384336,86.9145888 117.884634,86.7426166 117.884634,86.7426166 L117.705662,87.8051049 C117.705662,87.8051049 117.865142,88.9851651 116.739039,90.097978 C115.608506,91.2116769 114.649856,91.8203573 114.649856,91.8203573 L113.850687,94.1682508 L110.355426,96.7225818 C110.355426,96.7225818 111.521399,98.2447256 109.551826,99.0713613 C107.584912,99.897997 105.506362,100.500475 105.506362,100.500475 L104.099397,101.331541 C104.099397,101.331541 104.819713,102.513462 102.739391,103.115054 C100.660841,103.715761 100.101776,103.712217 100.101776,103.712217 L98.9739016,104.825915 C98.9739016,104.825915 99.1324951,104.100283 97.3321481,104.984509 C95.5309151,105.868735 93.8661256,106.300215 93.8661256,106.300215 C92.0941305,106.521715 89.0994588,107.324429 91.2612928,107.53884 C91.2612928,107.53884 92.7736906,109.265649 95.4086474,109.228437 C98.0427181,109.191225 99.0447814,110.095829 99.0447814,110.095829 L101.232309,110.278344 L102.801411,110.066591 C102.801411,110.066591 104.210147,109.235525 105.052731,108.960866 C105.893543,108.687093 107.504286,107.913617 108.177644,108.142204 C108.8448,108.371678 110.050643,108.044745 110.050643,108.044745 C110.050643,108.044745 112.127421,107.442266 113.026709,107.000153 C113.926882,106.557155 114.655172,106.619175 115.383462,106.68208 C116.112638,106.743214 116.112638,106.743214 116.112638,106.743214 L119.09402,105.139559 L120.74109,102.51612 L121.97174,102.750023 L123.843853,99.4549983 L126.034925,99.0793353 L127.552639,98.473313 C127.552639,98.473313 127.83793,97.6342733 128.967577,96.5205743 C130.09811,95.4068754 131.44394,95.3040997 131.44394,95.3040997 L132.692311,93.2973152 C132.692311,93.2973152 133.207961,91.7858034 134.047001,92.0728666 C134.884269,92.3590438 134.884269,92.3590438 134.884269,92.3590438 L137.473154,90.8076621 C137.473154,90.8076621 137.598079,89.3519681 138.66925,88.4049253 C139.740421,87.4610721 140.129374,87.9681285 140.129374,87.9681285 C140.129374,87.9681285 140.989678,85.4517182 141.327243,85.0062386 C141.669238,84.5588099 143.361493,81.1477192 144.367987,81.4923723 C145.373594,81.8360507 145.19285,85.2017783 144.284703,86.7640578" id="path14" fill="#D41041"></path>
                        <path d="M136.368315,15.691194 C136.368315,14.3486419 135.278538,13.2598395 133.936251,13.2598395 C132.593079,13.2598395 131.505074,14.3486419 131.505074,15.691194 C131.505074,17.0350751 132.593079,18.1231687 133.936251,18.1231687 C135.278538,18.1231687 136.368315,17.0350751 136.368315,15.691194" id="path16" fill="#FFFFFF"></path>
                        <path d="M133.936251,17.9016693 C132.718005,17.9016693 131.726573,16.9100609 131.726573,15.691194 C131.726573,14.4729474 132.718005,13.4813389 133.936251,13.4813389 C135.155384,13.4813389 136.146815,14.4729474 136.146815,15.691194 C136.146815,16.9100609 135.155384,17.9016693 133.936251,17.9016693 Z M133.936251,13.0383401 C132.472583,13.0383401 131.283575,14.2282348 131.283575,15.691194 C131.283575,17.1547734 132.472583,18.3446681 133.936251,18.3446681 C135.399033,18.3446681 136.589814,17.1547734 136.589814,15.691194 C136.589814,14.2282348 135.399033,13.0383401 133.936251,13.0383401 L133.936251,13.0383401 Z" id="path18" fill="#D41041"></path>
                        <path d="M133.288587,15.8202839 L134.043457,15.8202839 C134.203823,15.8202839 134.327862,15.8361432 134.418234,15.8700769 C134.508606,15.9036562 134.576828,15.9569933 134.623785,16.0285819 C134.671629,16.1012337 134.694665,16.1819481 134.694665,16.2670924 C134.694665,16.3920181 134.649479,16.4947938 134.558222,16.5750652 C134.46785,16.655691 134.324318,16.6965354 134.127627,16.6965354 L133.288587,16.6965354 L133.288587,15.8202839 Z M132.938618,14.3406679 L132.938618,16.9900664 L134.112565,16.9900664 C134.349126,16.9900664 134.528984,16.9657901 134.651251,16.9180348 C134.774405,16.8702796 134.872751,16.7869072 134.946289,16.6664115 C135.01894,16.5449413 135.056152,16.4131048 135.056152,16.2670924 C135.056152,16.0781091 134.995018,15.9196042 134.873637,15.7918433 C134.753141,15.6627535 134.56531,15.5804443 134.310142,15.5458018 C134.402286,15.5004387 134.473166,15.4572021 134.521896,15.4145856 C134.623785,15.3197838 134.721245,15.2028322 134.812503,15.0608953 L135.273222,14.3406679 L134.832881,14.3406679 L134.482026,14.8916698 C134.37925,15.051238 134.29508,15.171645 134.228631,15.2567894 C134.163067,15.3408706 134.102819,15.399435 134.051431,15.4332801 C133.998271,15.4668594 133.945997,15.4918446 133.891065,15.5031853 C133.851196,15.5129313 133.786518,15.5163867 133.69526,15.5163867 L133.288587,15.5163867 L133.288587,14.3406679 L132.938618,14.3406679 L132.938618,14.3406679 Z" id="path20" fill="#D41041"></path>
                    </g>
                </g>
            </g>
        </g>
    </g>
</svg>