<?xml version="1.0" encoding="UTF-8"?>
<svg width="200px" height="200px" viewBox="0 0 200 200" version="1.1" xmlns="http://www.w3.org/2000/svg" xmlns:xlink="http://www.w3.org/1999/xlink">
    <!-- Generator: Sketch 63.1 (92452) - https://sketch.com -->
    <title>sam-houston-st</title>
    <desc>Created with Sketch.</desc>
    <g id="sam-houston-st" stroke="none" stroke-width="1" fill="none" fill-rule="evenodd">
        <g id="sam-houston-st_BGL" transform="translate(0.000000, 0.000000)" fill="#DF502A">
            <g id="Sam_Houston_Primary_Mark_ORANGE_CMYK_WHTBG" transform="translate(0.000000, 18.000000)">
                <path d="M154.70202,61.1671717 L150.593434,80.4954545 L159.307071,81.9136364 L155.256061,100.971717 L135.469192,100.971717 C128.265657,105.513131 121.638384,103.107071 121.638384,103.107071 C113.556061,120.442929 98.780303,119.365657 98.780303,119.365657 L93.8363636,142.625253 L84.520202,144.043434 L80.4116162,163.371717 L125.709596,163.371717 L129.818182,144.043434 L121.104545,142.625253 L125.155556,123.567677 L150.453535,123.567677 L141.992929,163.371717 L178.275758,163.371717 L182.384343,144.043434 L173.670707,142.625253 L186.575253,81.9136364 L195.891414,80.4954545 L200,61.1671717 L154.70202,61.1671717" id="Fill-1"></path>
                <path d="M68.3929293,83.6939394 C65.0010101,81.0929293 63.3858586,76.7166667 64.4611111,71.6570707 C67.7646465,56.1156566 88.2752525,51.9994949 88.2752525,51.9994949 C84.4252525,45.6328283 77.0691919,41.520202 67.8040404,41.520202 L52.9732323,41.520202 C48.7772727,41.520202 46.0479798,38.3585859 46.8772727,34.4585859 L47.6661616,30.7464646 C48.4954545,26.8459596 52.5681818,23.6843434 56.7641414,23.6843434 L71.2247475,23.6843434 L71.3949495,34.2535354 C72.2717172,34.2535354 93.5848485,34.2535354 93.5848485,34.2535354 L100.809596,0.264646465 L51.0055556,0.264646465 C35.2712121,0.264646465 19.9959596,12.1212121 16.8873737,26.7474747 L14.3984848,38.4570707 C11.2893939,53.0833333 21.5242424,64.940404 37.2580808,64.940404 L52.0893939,64.940404 C56.2848485,64.940404 59.0141414,68.1020202 58.1853535,72.0020202 L57.3959596,75.7141414 C56.5671717,79.6146465 52.4939394,82.7762626 48.2979798,82.7762626 L29.5848485,82.7762626 L29.4141414,72.2070707 C28.5378788,72.2070707 7.22474747,72.2070707 7.22474747,72.2070707 L0,106.19596 L58.5151515,106.19596 C58.5151515,106.19596 53.2616162,94.1217172 68.3929293,83.6939394" id="Fill-2"></path>
                <path d="M100.54899,114.049495 C107.943939,114.049495 115.770202,107.354545 117.471717,99.3494949 C118.190404,95.9681818 117.397475,93.8277778 117.968182,91.1434343 C118.440404,88.9222222 118.848485,87.839899 119.305556,85.6893939 C120.537879,79.8924242 116.021212,75.2747475 110.244444,75.2747475 C100.831818,75.2747475 98.230303,81.1338384 83.7792929,83.1979798 C70.6868687,85.0681818 64.4353535,92.3767677 63.3959596,97.2646465 C61.8459596,104.558081 65.4606061,108.340909 77.1040404,108.340909 C81.5035354,108.340909 84.2555556,107.70202 85.6762626,107.70202 C91.5338384,107.70202 90.430303,114.049495 100.54899,114.049495" id="Fill-3"></path>
                <path d="M91.1772727,56.6126263 C91.1772727,56.6126263 72.4111111,59.3020202 69.7848485,71.6570707 C68.6267677,77.1060606 72.390404,80.8989899 77.5767677,80.8989899 C81.5979798,80.8989899 86.9106061,78.7974747 87.8388889,74.4287879 C88.6878788,70.4353535 85.3545455,67.7580808 86.0934343,64.2813131 C86.9823232,60.1005051 91.1772727,56.6126263 91.1772727,56.6126263" id="Fill-4"></path>
                <path d="M94.5616162,62.919697 C93.4035354,68.369697 97.8767677,70.6176768 102.480303,70.6176768 C109.245455,70.6176768 113.270707,67.5641414 114.558586,61.5055556 L115.29697,58.0333333 C117.114141,49.4838384 126.55,46.362624 126.55,46.362624 C113.462121,46.3585859 96.9181818,51.8338384 94.5616162,62.919697" id="Fill-5"></path>
                <path d="M119.465657,70.0383838 C118.510606,74.5313131 122.34899,76.2328283 125.558586,76.2328283 C131.297475,76.2328283 134.24697,73.5090909 135.121212,69.3949495 C135.634343,66.980303 135.310606,59.3994949 143.901515,56.1479798 C136.208586,56.1479798 121.512121,60.4106061 119.465657,70.0383838" id="Fill-6"></path>
                <path d="M121.126768,92.3540404 C120.45,95.5368687 122.320202,98.4040404 126.991414,98.4040404 C131.124747,98.4040404 135.171717,96.819697 136.219192,91.8914141 C136.655556,89.8383838 136.765152,88.0914141 136.866162,87.6171717 C138.206061,81.3126263 144.733333,78.9929293 144.733333,78.9929293 C135.866667,78.9929293 122.992424,83.5752525 121.126768,92.3540404" id="Fill-7"></path>
                <polyline id="Fill-8" points="180.395455 160.403535 181.379293 160.403535 181.379293 163.371717 181.943434 163.371717 181.943434 160.403535 182.978283 160.403535 182.978283 159.838889 180.395455 159.838889 180.395455 160.403535"></polyline>
                <polyline id="Fill-9" points="184.982828 162.30303 184.206061 159.838889 183.453535 159.838889 183.453535 163.371717 184.017677 163.371717 184.017677 161.118182 184.728283 163.371717 185.237879 163.371717 185.947475 161.118687 185.947475 163.371717 186.512121 163.371717 186.512121 159.838889 185.759091 159.838889 184.982828 162.30303"></polyline>
            </g>
        </g>
    </g>
</svg>