<?xml version="1.0" encoding="UTF-8"?>
<svg width="200px" height="200px" viewBox="0 0 200 200" version="1.1" xmlns="http://www.w3.org/2000/svg" xmlns:xlink="http://www.w3.org/1999/xlink">
    <!-- Generator: Sketch 54.1 (76490) - https://sketchapp.com -->
    <title>san-diego-st</title>
    <desc>Created with Sketch.</desc>
    <g id="san-diego-st" stroke="none" stroke-width="1" fill="none" fill-rule="evenodd">
        <g id="san-diego-st_BGL">
            <g id="san-diego-st" transform="translate(0.000000, 30.000000)">
                <g id="g10" transform="translate(99.760189, 70.059953) scale(-1, 1) rotate(-180.000000) translate(-99.760189, -70.059953) translate(0.000000, 0.035974)" fill-rule="nonzero">
                    <g id="g12">
                        <path d="M56.8203343,69.9543388 L54.489591,92.5300696 C54.489591,92.5300696 91.7387027,92.6484389 93.9606691,92.6484389 C98.8280071,92.6484389 102.724794,92.4086308 106.209494,91.8914126 C110.514913,91.2544821 114.014577,90.2127555 116.929685,88.7117484 C120.197023,87.0330913 122.598942,84.8283912 124.292563,81.9785111 C126.207191,78.7470484 127.18158,74.6140989 127.18158,69.6905498 C127.18158,66.8143868 126.840476,64.1734277 126.166136,61.840574 C125.543978,59.7047467 124.625992,57.7638355 123.441915,56.0738595 C121.27616,52.9901186 118.199901,50.6423009 114.037024,48.9020611 C106.44182,45.7246991 96.879422,45.2863298 87.6730913,45.2863298 L54.4596629,45.2863298 L56.8203343,69.4394227 C56.8389434,69.6118927 56.8389434,69.7841709 56.8203343,69.9543388 Z M194.641722,75.0336672 C193.571218,75.6257055 192.094,76.3902139 190.254767,77.3007175 C187.152226,78.8331875 184.016111,80.2870004 183.978509,80.2998541 C183.641242,80.4594704 181.977741,80.2421083 181.977741,80.2421083 L180.699852,81.294962 L172.280475,83.2869044 L170.376974,82.4504536 L168.623305,83.1458972 L161.695152,81.9955855 L158.423977,78.3723721 L155.21285,78.4023002 C153.867622,83.5633552 151.282298,88.2793263 147.512706,92.4437387 C143.687095,96.6689664 138.669733,100.303499 132.599709,103.246424 C127.099086,105.910597 120.856592,107.960093 114.022059,109.341196 C107.655825,110.630213 101.07242,111.282299 94.4627315,111.282299 L22.3965462,111.319709 L29.8455628,79.575058 C28.8264741,79.4551539 27.9384166,79.2003817 27.1815821,78.8032594 C26.0312703,79.3914608 24.6298315,79.706281 23.1084886,79.706281 C21.3924215,79.706281 19.7624935,79.3128038 18.4734768,78.5895424 C18.3573137,78.6046983 17.8664552,78.7506935 17.8664552,78.7506935 C14.7714337,79.4417246 8.40153456,79.1944345 8.12425879,79.1928997 L8.11301658,79.1928997 C8.10925639,79.1928997 8.10177438,79.1928997 8.09801419,79.1928997 C5.77488715,79.1815808 3.14823973,79.1704537 1.44334577,77.3755376 C-0.924759689,74.8838351 0.289268098,70.2712692 0.480366415,69.6118927 C1.0349218,67.6723244 2.36886325,63.6166891 5.95098306,63.470502 C5.95098306,63.470502 5.95098306,63.470502 5.93974086,63.470502 C6.03717971,63.46302 6.47556818,63.4741471 6.5017936,63.477984 C6.64044108,63.489303 9.86660887,63.7530919 12.5382251,63.7530919 C13.8646519,63.7530919 15.5807766,63.5153941 15.9704744,63.5153941 C16.6112034,63.5153941 17.4355487,63.6316531 18.3348293,64.0565931 C19.6799995,63.388008 21.0476733,63.298032 21.5685366,63.29055 C21.5796637,63.29055 28.2419178,63.2869049 30.3739081,63.29055 L22.3965462,28.0111264 L94.4627315,28.0748194 C101.63453,28.0748194 108.57381,28.7320856 115.104841,30.0283925 C122.089397,31.4148673 128.403066,33.4981287 133.858606,36.2223492 C139.838845,39.2086321 144.728629,42.9406224 148.3858,47.309735 C152.297742,51.982157 154.785608,57.3703583 155.793569,63.3356339 L158.094193,63.3206699 L162.234624,59.8808618 L168.848149,58.9066652 L170.785415,59.7962575 L172.535247,59.1127084 L180.962298,61.1758258 L182.401147,62.153092 L183.813712,62.0878642 C183.813712,62.0878642 189.36671,64.7819648 190.741866,65.5276722 C191.923257,66.1682477 193.603832,67.091605 194.900715,67.8806698 C195.545319,68.2756817 199.585607,70.2563052 199.432129,71.6201421 C199.353472,72.9032116 195.332369,74.6478638 194.641722,75.0336672 L194.641722,75.0336672 Z" id="path14" fill="#FFFFFF"></path>
                        <polyline id="path16" fill="#FFFFFF" points="125.3905 0.468376007 125.21803 3.17745795 119.758654 81.5460891 86.8824918 81.5386071 86.8824918 118.211987 97.9961606 118.211987 98.0072877 93.8511248 89.5391824 85.1881034 119.436544 85.1881034 125.244313 138.215632 55.4338595 138.215632 61.0432599 59.1913654 99.0152493 59.1913654 99.0152493 20.3687285 82.359902 20.3687285 82.3560651 43.5664258 93.5597099 52.2423009 61.133044 52.2423009 55.6437396 3.30860423 55.3327564 0.48710982 55.2840274 0.086181101 55.6886317 0.086181101 125.03827 0.086181101 125.416592 0.086181101 125.3905 0.468376007"></polyline>
                        <path d="M101.915393,62.0915092 L101.915393,45.9606703 C106.239422,46.4778885 110.368726,47.3695911 114.037024,48.9020611 C115.921724,49.6926606 117.589254,50.6085359 119.043067,51.6598548 L117.064553,78.6233074 L83.982348,78.6421083 L83.982348,92.547144 L61.4927563,92.5360169 L63.7260416,62.1252742 L63.7260416,62.0915092 L101.915393,62.0915092" id="path18" fill="#C52437"></path>
                        <polyline id="path20" fill="#C52437" points="83.982348 111.289781 83.982348 121.114433 100.896304 121.114433 100.903786 92.670885 96.4299256 88.0882472 116.843546 88.0882472 122.010549 135.317023 58.5289194 135.317023 60.0840273 111.278462 83.982348 111.289781"></polyline>
                        <path d="M120.470597,31.1152031 C114.471748,29.617841 108.165561,28.7132847 101.915393,28.3311264 L101.915393,17.4722681 L79.4672402,17.4722681 L79.4597582,44.9903106 L85.0839307,49.3442674 L63.7260416,49.3442674 L58.5289194,2.98635964 L122.325369,2.98635964 L120.470597,31.1152031" id="path22" fill="#C52437"></path>
                        <path d="M182.906854,77.9714129 L180.842394,75.8655137 L180.471362,75.9967367 L180.089204,78.8032594 L172.280475,80.7217246 L170.571698,77.6416288 L170.062154,77.6679117 L168.623305,80.5807174 L163.058989,79.679998 L159.533042,75.8655137 L153.15568,75.8528518 C150.292946,90.6601416 137.193474,99.9961606 121.587143,104.788678 L119.961052,89.9355373 C125.810069,86.2334751 129.751939,80.022444 129.751939,69.6905498 C129.751939,43.907337 104.51971,42.7196152 87.6769283,42.7196152 L82.3560651,42.7196152 L82.359902,30.6430688 L94.4627315,30.6430688 C121.620908,30.6430688 149.674816,40.4466177 153.346759,64.2513173 C153.346759,64.2513173 153.459181,64.946761 153.57544,65.9173125 L159.180811,65.8835475 L162.931603,62.3441711 L168.848149,61.4749145 L170.0846,64.4072886 L170.523161,64.4671447 L172.535247,61.6794229 L180.329012,63.6615811 L180.553856,66.5715091 L181.037118,66.730358 L183.217837,64.5847466 C183.802393,64.7257538 195.399515,70.7021565 195.361146,71.4328999 C195.317021,72.2271445 182.906854,77.9714129 182.906854,77.9714129 L182.906854,77.9714129 Z M54.2685838,69.6905498 L51.6381762,95.0952494 L97.9923237,95.1176955 L97.9961606,108.745513 L25.6040281,108.71712 L33.0979368,76.9611492 C32.4422054,77.0346264 31.8240759,77.0870005 31.2732846,77.0870005 C29.4597595,77.0870005 27.7360185,76.2455616 27.3275773,75.7793746 C27.2713662,75.7195185 27.06916,75.8093027 26.7881048,76.0003818 C25.9599034,76.7236432 24.6259946,77.1372643 23.1084886,77.1372643 C21.7333328,77.1372643 20.4182249,76.8023002 19.4925655,76.2102619 C19.1404312,76.0828758 18.8144456,76.0230197 18.48846,76.0230197 C18.0725367,76.0230197 17.1470307,76.2868086 17.1470307,76.2868086 L17.1357885,76.288919 C16.6262058,76.442588 16.0416687,76.616401 15.3746951,76.616401 C15.3746951,76.616401 14.0332658,76.6375041 13.343827,76.6599501 L13.3363258,76.6599501 C13.3363258,76.6599501 9.67551055,76.6973602 9.25584629,76.6561132 C9.02728035,76.6300221 4.52337639,76.8471923 3.30185124,75.6070964 C2.71357307,75.0037391 2.47752512,74.0310773 2.55996157,72.6618687 C2.6124124,71.7400462 2.79976971,70.8274323 2.94213902,70.3251781 C3.94259942,66.8727082 5.2053332,66.0821087 6.09713174,66.0333796 C6.54676243,65.9585595 9.83662326,66.2432597 12.5382251,66.3196146 C13.8046999,66.3556818 14.7526903,66.2657058 15.3597118,66.1607657 C15.5021003,66.1233557 15.7044409,66.0821087 15.9704744,66.0821087 C16.5550116,66.0821087 17.4430499,66.2806698 18.3760571,67.2063293 C18.3910403,67.2063293 18.3985223,67.2024923 18.4060235,67.2024923 C19.3952993,65.9510775 21.2462345,65.8611015 21.6134287,65.8572645 L21.6172656,65.8572645 C22.066762,65.8551542 23.3258507,65.8536195 25.1731409,65.8536195 C27.8334765,65.8536195 31.1495436,65.8572645 33.592709,65.8662813 L25.6040281,30.6430688 L58.7088714,30.6430688 L60.0688714,42.7196152 C55.1829243,42.7196152 51.6306942,42.7196152 51.6306942,42.7196152 L54.2685838,69.6905498 L54.2685838,69.6905498 Z" id="path24" fill="#231F20"></path>
                        <polyline id="path26" fill="#FFFFFF" points="126.698126 3.07253709 128.62791 3.07253709 128.62791 2.76529489 127.833474 2.76529489 127.833474 0 127.492563 0 127.492563 2.76529489 126.698126 2.76529489 126.698126 3.07253709"></polyline>
                        <path d="M130.958462,3.07253709 L131.557982,3.07253709 L131.557982,0 L131.217071,0 L131.217071,2.53296876 C131.217071,2.66411504 131.224553,2.79152031 131.217071,2.92266659 L131.209589,2.92266659 C131.171987,2.74281048 131.142059,2.62664742 131.112131,2.50823975 L130.471364,0 L130.062922,0 L129.422155,2.54421097 C129.392227,2.65287284 129.365944,2.75405269 129.332371,2.92266659 L129.321052,2.92266659 C129.321052,2.79152031 129.332371,2.65663303 129.332371,2.52548675 L129.332371,0 L128.991268,0 L128.991268,3.07253709 L129.594625,3.07253709 L130.194145,0.675959695 C130.22791,0.544813416 130.24652,0.417415817 130.261484,0.221072417 L130.268966,0.221072417 C130.291603,0.376947712 130.310213,0.528328044 130.347814,0.680456578 L130.958462,3.07253709" id="path28" fill="#FFFFFF"></path>
                    </g>
                </g>
            </g>
        </g>
    </g>
</svg>