<?xml version="1.0" encoding="UTF-8"?>
<svg width="200px" height="200px" viewBox="0 0 200 200" version="1.1" xmlns="http://www.w3.org/2000/svg" xmlns:xlink="http://www.w3.org/1999/xlink">
    <!-- Generator: Sketch 54.1 (76490) - https://sketchapp.com -->
    <title>usc-upstate</title>
    <desc>Created with Sketch.</desc>
    <g id="usc-upstate" stroke="none" stroke-width="1" fill="none" fill-rule="evenodd">
        <g id="usc-upstate_BGL">
            <g id="usc-upstate" transform="translate(-1.000000, 41.000000)">
                <g id="g10" transform="translate(100.301906, 58.913330) scale(-1, 1) rotate(-180.000000) translate(-100.301906, -58.913330) translate(0.000000, 0.337017)" fill-rule="nonzero">
                    <g id="g12">
                        <path d="M174.578276,58.2246949 L183.990607,54.3761509 C184.412678,54.2068412 184.638959,53.660236 184.499338,53.1649853 L184.033938,51.4986898 C183.891108,51.0003899 183.374352,50.5959726 182.876855,50.5959726 L180.657374,50.5959726 C180.161482,50.5959726 179.867798,51.0003899 180.007418,51.4986898 L180.891679,54.6476882 L171.346148,54.6476882 L170.900005,53.0564987 C169.776623,49.0664087 171.505026,46.8961964 178.715529,46.8961964 L182.742049,46.8961964 C189.952552,46.8961964 192.897416,49.0664087 194.015983,53.0564987 C195.028631,56.6611085 192.81236,57.5651095 192.81236,57.5651095 L183.613472,61.3245855 C183.194611,61.4975862 182.96833,62.0454753 183.106346,62.5400841 L183.509158,63.9738397 C183.647173,64.4708557 184.168743,64.8765568 184.666241,64.8765568 L186.065653,64.8765568 C186.558336,64.8765568 186.853625,64.4708557 186.714004,63.9738397 L186.027137,61.527757 L195.574274,61.527757 L195.823022,62.4160307 C196.943194,66.4054788 195.218001,68.5776169 188.007498,68.5776169 L184.801047,68.5776169 C177.590543,68.5776169 174.644074,66.4054788 173.523903,62.4160307 C172.580262,59.042677 174.578276,58.2246949 174.578276,58.2246949" id="path14" fill="#FFFFFF"></path>
                        <path d="M13.6623714,44.4982586 L18.9012122,44.4982586 C28.2877053,44.4982586 32.1222873,47.3237232 33.5817201,52.519362 C34.8975207,57.2085162 32.0157265,58.3858199 32.0157265,58.3858199 L20.0377531,63.279911 C19.4954809,63.5042663 19.1971429,64.2152062 19.3776864,64.8608295 L19.9011821,66.7270869 C20.0830094,67.3752779 20.7631365,67.9043905 21.4087598,67.9043905 L23.2279957,67.9043905 C23.8768287,67.9043905 24.256692,67.3752779 24.0750252,66.7270869 L23.2519077,63.7982712 L51.2141533,63.7982712 C51.7113298,63.7982712 52.0040509,63.3933725 51.8649121,62.8949121 L49.3002325,53.7618217 C49.1591679,53.2635219 48.6408076,52.8578207 48.1423473,52.8578207 L44.2952476,52.8578207 C43.7961453,52.8578207 43.5034242,53.2635219 43.642563,53.7618217 L45.2806135,59.5924919 L37.3004334,59.5924919 L32.1975538,41.4059108 L40.1766106,41.4059108 L42.2307936,48.7247403 C42.2307936,48.7247403 43.6087011,46.8961964 46.6440775,46.8961964 L48.3618881,46.8961964 C52.5325216,46.8961964 55.6701257,48.0301696 57.0818951,53.0564987 L60.6343479,65.7184509 C61.0763182,67.2900614 60.1504915,68.5776169 58.5769552,68.5776169 L36.1876439,68.5776169 C35.5075167,71.2840031 32.4451792,72.718882 25.7562457,72.718882 L21.5843283,72.718882 C12.1967118,72.718882 8.36204956,69.8940594 6.90579427,64.6984206 C5.67270671,60.306481 8.27553315,59.2439227 8.27553315,59.2439227 L20.5323619,54.2350863 C21.0765599,54.0126568 21.3731326,53.3010749 21.1913053,52.6541677 L20.5845189,50.4894119 C20.4046174,49.8418628 19.7236878,49.3109848 19.0787064,49.3109848 L16.1919373,49.3109848 C15.5442919,49.3109848 15.1637706,49.8418628 15.3468175,50.4894119 L16.4939664,54.5862232 L4.06912797,54.5862232 L3.4880028,52.519362 C2.03047969,47.3237232 4.27599063,44.4982586 13.6623714,44.4982586" id="path16" fill="#FFFFFF"></path>
                        <path d="M71.9503287,51.4986898 C71.810548,51.0003899 71.288978,50.5959726 70.7937274,50.5959726 L68.5758516,50.5959726 C68.0773913,50.5959726 67.785954,51.0003899 67.923809,51.4986898 L68.7637773,54.4921801 C68.9048419,54.99048 69.4283376,55.5922914 69.9317729,55.8336579 L73.6711884,57.6354011 L71.9503287,51.4986898 Z M71.4261911,63.9738397 C71.5659718,64.4708557 72.0864183,64.8765568 72.581669,64.8765568 L74.8025939,64.8765568 C75.2972027,64.8765568 75.5894423,64.4708557 75.450785,63.9738397 L74.5079471,60.6149294 L62.6787414,57.5193719 C61.1271913,57.1119054 59.5185092,55.5609972 59.099167,54.0689863 L58.1024068,50.5083489 C57.5426419,48.5210873 58.7135263,46.8961964 60.7001459,46.8961964 L64.5072853,46.8961964 C68.7074477,46.8961964 71.3403326,49.3252678 71.3403326,49.3252678 L70.7648404,47.2767017 L80.3111746,47.2767017 L84.5614077,62.4160307 C85.6815794,66.4093304 83.9552632,68.5776169 76.7421921,68.5776169 L72.7175982,68.5776169 C65.5059713,68.5776169 62.5627122,66.4093304 61.4417381,62.4160307 L60.7917817,60.0959272 L70.3373136,60.0959272 L71.4261911,63.9738397 L71.4261911,63.9738397 Z" id="path18" fill="#FFFFFF"></path>
                        <path d="M134.326881,51.4986898 C134.185816,51.0003899 133.66553,50.5959726 133.168995,50.5959726 L130.952243,50.5959726 C130.455869,50.5959726 130.162345,51.0003899 130.302287,51.4986898 L131.140329,54.4921801 C131.28011,54.99048 131.803606,55.5922914 132.307041,55.8336579 L136.049506,57.6354011 L134.326881,51.4986898 Z M132.715791,60.0959272 L133.801459,63.9738397 C133.94124,64.4708557 134.46281,64.8765568 134.959986,64.8765568 L137.179146,64.8765568 C137.672471,64.8765568 137.967118,64.4708557 137.826053,63.9738397 L136.882573,60.6149294 L125.052084,57.5193719 C123.502299,57.1119054 121.894419,55.5609972 121.476842,54.0689863 L120.478959,50.5083489 C119.919033,48.5210873 121.088152,46.8961964 123.07734,46.8961964 L126.884479,46.8961964 C131.084642,46.8961964 133.717526,49.3252678 133.717526,49.3252678 L133.142034,47.2767017 L142.687566,47.2767017 L146.93475,62.4160307 C148.056847,66.4093304 146.330531,68.5776169 139.119386,68.5776169 L135.096718,68.5776169 C127.881239,68.5776169 124.940387,66.4093304 123.81829,62.4160307 L123.168173,60.0959272 L132.715791,60.0959272 L132.715791,60.0959272 Z" id="path20" fill="#FFFFFF"></path>
                        <path d="M91.593133,47.2767017 L95.7908882,62.2329195 C96.1023858,63.3444251 97.2570613,64.2465004 98.3685669,64.2465004 C99.4800725,64.2465004 100.12698,63.3444251 99.8135563,62.2329195 L99.2160779,60.0959272 L108.761128,60.0959272 L109.802984,63.7989131 L111.538287,63.7989131 L107.702903,50.1365096 C107.260933,48.56185 108.185636,47.2767017 109.759172,47.2767017 L117.835321,47.2767017 L118.767567,50.5959726 L117.50938,50.5959726 C117.012204,50.5959726 116.719483,51.0003899 116.858622,51.4986898 L120.311575,63.7989131 L122.472319,63.7989131 L123.341816,66.9007295 L121.181072,66.9007295 L123.419008,74.8804282 L114.647647,74.8804282 L112.406501,66.9007295 L110.100841,66.9007295 C109.740396,67.9063163 108.803175,68.5776169 107.528618,68.5776169 L103.720998,68.5776169 C99.5221191,68.5776169 96.8890737,66.1459777 96.8890737,66.1459777 L97.463924,68.1953463 L87.9151825,68.1953463 L82.0456754,47.2767017 L91.593133,47.2767017" id="path22" fill="#FFFFFF"></path>
                        <path d="M153.972253,47.2767017 L158.168563,62.2329195 C158.480703,63.3444251 159.632329,64.2465004 160.744637,64.2465004 C161.85518,64.2465004 162.501927,63.3444251 162.192194,62.2329195 L157.992995,47.2767017 L167.541095,47.2767017 L172.50644,64.9636991 C173.061711,66.9516027 171.89179,68.5776169 169.906615,68.5776169 L166.096747,68.5776169 C161.89851,68.5776169 159.264342,66.1459777 159.264342,66.1459777 L159.841118,68.1953463 L150.29366,68.1953463 L144.421585,47.2767017 L153.972253,47.2767017" id="path24" fill="#FFFFFF"></path>
                        <path d="M84.7043981,3.06548303 C136.806183,3.06548303 143.362076,26.425139 143.362076,26.425139 L148.35342,44.2081053 L130.041983,44.2081053 C129.084862,43.9855153 128.04108,43.8276 126.884479,43.8276 L123.07734,43.8276 C122.323872,43.8276 121.604105,43.9604799 120.939705,44.2081053 L109.759172,44.2081053 C109.383,44.2081053 109.031863,44.248868 108.693404,44.3114564 L106.53571,36.6227135 C105.684347,33.5916701 102.512239,31.1123675 99.4813564,31.1123675 L85.6666545,31.1123675 C82.636895,31.1123675 80.8545702,33.5916701 81.704007,36.6227135 L83.8329752,44.2081053 L67.6655917,44.2081053 C66.7076684,43.9855153 65.6638867,43.8276 64.5072853,43.8276 L60.7001459,43.8276 C58.8476901,43.8276 57.182197,44.6110782 56.1069606,45.9758261 C53.6766052,44.1360484 50.7428146,43.8276 48.3618881,43.8276 L46.6440775,43.8276 C45.7007581,43.8276 44.8763567,43.969788 44.1334807,44.1673426 L39.1559384,26.425139 C39.1559384,26.425139 32.6006873,3.06548303 84.7043981,3.06548303" id="path26" fill="#006838"></path>
                        <path d="M62.9106395,69.4309053 C65.883267,71.3265311 69.6477179,71.644448 72.7175982,71.644448 L76.7421921,71.644448 C80.6464237,71.644448 83.3483164,71.0626969 85.1776626,69.7913502 L85.5894621,71.2633008 C85.5894621,71.2633008 88.3038725,71.2633008 91.4257492,71.2633008 L103.200712,113.218866 L63.5137348,113.218866 L51.8461356,71.644448 C55.5760826,71.644448 58.5769552,71.644448 58.5769552,71.644448 C61.5879382,71.644448 62.9106395,69.4309053 62.9106395,69.4309053" id="path28" fill="#006838"></path>
                        <path d="M125.227492,69.968684 C125.575419,69.968684 125.919013,69.968684 126.230511,69.968684 C129.029656,71.388638 132.342668,71.644448 135.094792,71.644448 L139.11746,71.644448 C143.021692,71.644448 145.72551,71.0626969 147.554215,69.7907083 L147.96794,71.2633008 C147.96794,71.2633008 152.039555,71.2633008 155.946194,71.2633008 L167.719231,113.218866 L128.032896,113.218866 L118.134301,77.9477408 L127.465588,77.9477408 C127.465588,77.9477408 125.799935,72.0079421 125.227492,69.968684" id="path30" fill="#006838"></path>
                        <polyline id="path32" fill="#231F20" points="155.051662 36.9456054 155.051662 40.5752505 156.316108 40.5752505 156.316108 41.010962 153.412327 41.010962 153.412327 40.5752505 154.61595 40.5752505 154.61595 36.9456054 155.051662 36.9456054"></polyline>
                        <polyline id="path34" fill="#231F20" points="160.38339 36.9456054 160.38339 41.010962 159.683202 41.010962 158.640705 37.7040482 157.598046 41.010962 156.897859 41.010962 156.897859 36.9456054 157.33357 36.9456054 157.33357 40.399682 158.422448 36.9456054 158.860085 36.9456054 159.945753 40.399682 159.945753 36.9456054 160.38339 36.9456054"></polyline>
                        <path d="M3.4880028,52.519362 L4.06912797,54.5862232 L16.4939664,54.5862232 L15.3468175,50.4894119 C15.1637706,49.8418628 15.5442919,49.3109848 16.1919373,49.3109848 L19.0787064,49.3109848 C19.7236878,49.3109848 20.4046174,49.8418628 20.5845189,50.4894119 L21.1913053,52.6541677 C21.3731326,53.3010749 21.0765599,54.0126568 20.5323619,54.2350863 L8.27553315,59.2439227 C8.27553315,59.2439227 5.67270671,60.306481 6.90579427,64.6984206 C8.36204956,69.8940594 12.1967118,72.718882 21.5843283,72.718882 L25.7562457,72.718882 C32.4451792,72.718882 35.5075167,71.2840031 36.1876439,68.5776169 L58.5769552,68.5776169 C60.1504915,68.5776169 61.0763182,67.2900614 60.6343479,65.7184509 L57.0818951,53.0564987 C55.6701257,48.0301696 52.5325216,46.8961964 48.3618881,46.8961964 L46.6440775,46.8961964 C43.6087011,46.8961964 42.2307936,48.7247403 42.2307936,48.7247403 L40.1766106,41.4059108 L32.1975538,41.4059108 L37.3004334,59.5924919 L45.2806135,59.5924919 L43.642563,53.7618217 C43.5034242,53.2635219 43.7961453,52.8578207 44.2952476,52.8578207 L48.1423473,52.8578207 C48.6408076,52.8578207 49.1591679,53.2635219 49.3002325,53.7618217 L51.8649121,62.8949121 C52.0040509,63.3933725 51.7113298,63.7982712 51.2141533,63.7982712 L23.2519077,63.7982712 L24.0750252,66.7270869 C24.256692,67.3752779 23.8768287,67.9043905 23.2279957,67.9043905 L21.4087598,67.9043905 C20.7631365,67.9043905 20.0830094,67.3752779 19.9011821,66.7270869 L19.3776864,64.8608295 C19.1971429,64.2152062 19.4954809,63.5042663 20.0377531,63.279911 L32.0157265,58.3858199 C32.0157265,58.3858199 34.8975207,57.2085162 33.5817201,52.519362 C32.1222873,47.3237232 28.2877053,44.4982586 18.9012122,44.4982586 L13.6623714,44.4982586 C4.27599063,44.4982586 2.03047969,47.3237232 3.4880028,52.519362 Z M63.5137348,113.218866 L103.200712,113.218866 L91.4257492,71.2633008 C88.3038725,71.2633008 85.5894621,71.2633008 85.5894621,71.2633008 L85.1776626,69.7913502 C83.3483164,71.0626969 80.6464237,71.644448 76.7421921,71.644448 L72.7175982,71.644448 C69.6477179,71.644448 65.883267,71.3265311 62.9106395,69.4309053 C62.9106395,69.4309053 61.5879382,71.644448 58.5769552,71.644448 C58.5769552,71.644448 55.5760826,71.644448 51.8461356,71.644448 L63.5137348,113.218866 Z M97.463924,68.1953463 L96.8890737,66.1459777 C96.8890737,66.1459777 99.5221191,68.5776169 103.720998,68.5776169 L107.528618,68.5776169 C108.803175,68.5776169 109.740396,67.9063163 110.100841,66.9007295 L112.406501,66.9007295 L114.647647,74.8804282 L123.419008,74.8804282 L121.181072,66.9007295 L123.341816,66.9007295 L122.472319,63.7989131 L120.311575,63.7989131 L116.858622,51.4986898 C116.719483,51.0003899 117.012204,50.5959726 117.50938,50.5959726 L118.767567,50.5959726 L117.835321,47.2767017 L109.759172,47.2767017 C108.185636,47.2767017 107.260933,48.56185 107.702903,50.1365096 L111.538287,63.7989131 L109.802984,63.7989131 L108.761128,60.0959272 L99.2160779,60.0959272 L99.8135563,62.2329195 C100.12698,63.3444251 99.4800725,64.2465004 98.3685669,64.2465004 C97.2570613,64.2465004 96.1023858,63.3444251 95.7908882,62.2329195 L91.593133,47.2767017 L82.0456754,47.2767017 L87.9151825,68.1953463 L97.463924,68.1953463 Z M128.032896,113.218866 L167.719231,113.218866 L155.946194,71.2633008 C152.039555,71.2633008 147.96794,71.2633008 147.96794,71.2633008 L147.554215,69.7907083 C145.72551,71.0626969 143.021692,71.644448 139.11746,71.644448 L135.094792,71.644448 C132.342668,71.644448 129.029656,71.388638 126.230511,69.968684 C125.919013,69.968684 125.575419,69.968684 125.227492,69.968684 C125.799935,72.0079421 127.465588,77.9477408 127.465588,77.9477408 L118.134301,77.9477408 L128.032896,113.218866 Z M159.841118,68.1953463 L159.264342,66.1459777 C159.264342,66.1459777 161.89851,68.5776169 166.096747,68.5776169 L169.906615,68.5776169 C171.89179,68.5776169 173.061711,66.9516027 172.50644,64.9636991 L167.541095,47.2767017 L157.992995,47.2767017 L162.192194,62.2329195 C162.501927,63.3444251 161.85518,64.2465004 160.744637,64.2465004 C159.632329,64.2465004 158.480703,63.3444251 158.168563,62.2329195 L153.972253,47.2767017 L144.421585,47.2767017 L150.29366,68.1953463 L159.841118,68.1953463 Z M173.523903,62.4160307 C174.644074,66.4054788 177.590543,68.5776169 184.801047,68.5776169 L188.007498,68.5776169 C195.218001,68.5776169 196.943194,66.4054788 195.823022,62.4160307 L195.574274,61.527757 L186.027137,61.527757 L186.714004,63.9738397 C186.853625,64.4708557 186.558336,64.8765568 186.065653,64.8765568 L184.666241,64.8765568 C184.168743,64.8765568 183.647173,64.4708557 183.509158,63.9738397 L183.106346,62.5400841 C182.96833,62.0454753 183.194611,61.4975862 183.613472,61.3245855 L192.81236,57.5651095 C192.81236,57.5651095 195.028631,56.6611085 194.015983,53.0564987 C192.897416,49.0664087 189.952552,46.8961964 182.742049,46.8961964 L178.715529,46.8961964 C171.505026,46.8961964 169.776623,49.0664087 170.900005,53.0564987 L171.346148,54.6476882 L180.891679,54.6476882 L180.007418,51.4986898 C179.867798,51.0003899 180.161482,50.5959726 180.657374,50.5959726 L182.876855,50.5959726 C183.374352,50.5959726 183.891108,51.0003899 184.033938,51.4986898 L184.499338,53.1649853 C184.638959,53.660236 184.412678,54.2068412 183.990607,54.3761509 L174.578276,58.2246949 C174.578276,58.2246949 172.580262,59.042677 173.523903,62.4160307 Z M137.179146,64.8765568 L134.959986,64.8765568 C134.46281,64.8765568 133.94124,64.4708557 133.801459,63.9738397 L132.715791,60.0959272 L123.168173,60.0959272 L123.81829,62.4160307 C124.940387,66.4093304 127.881239,68.5776169 135.096718,68.5776169 L139.119386,68.5776169 C146.330531,68.5776169 148.056847,66.4093304 146.93475,62.4160307 L142.687566,47.2767017 L133.142034,47.2767017 L133.717526,49.3252678 C133.717526,49.3252678 131.084642,46.8961964 126.884479,46.8961964 L123.07734,46.8961964 C121.088152,46.8961964 119.919033,48.5210873 120.478959,50.5083489 L121.476842,54.0689863 C121.894419,55.5609972 123.502299,57.1119054 125.052084,57.5193719 L136.882573,60.6149294 L137.826053,63.9738397 C137.967118,64.4708557 137.672471,64.8765568 137.179146,64.8765568 L137.179146,64.8765568 Z M105.919455,45.7803577 L103.58234,37.4501641 C103.10041,35.7387728 101.147652,34.1809638 99.4813564,34.1809638 L85.6666545,34.1809638 C84.752543,34.1809638 84.331275,34.629193 84.6585,35.7920532 L87.0200081,44.2081053 L93.9194953,44.2081053 C93.9194953,44.2081053 96.2872623,52.6490323 97.516081,57.0284542 C98.3435316,57.0284542 103.796104,57.0284542 106.450975,57.0284542 C105.61229,54.0344824 104.750336,50.965886 104.750336,50.965886 C104.218656,49.0739514 104.676995,47.1043429 105.919455,45.7803577 Z M74.8025939,64.8765568 L72.581669,64.8765568 C72.0864183,64.8765568 71.5659718,64.4708557 71.4261911,63.9738397 L70.3373136,60.0959272 L60.7917817,60.0959272 L61.4417381,62.4160307 C62.5627122,66.4093304 65.5059713,68.5776169 72.7175982,68.5776169 L76.7421921,68.5776169 C83.9552632,68.5776169 85.6815794,66.4093304 84.5614077,62.4160307 L80.3111746,47.2767017 L70.7648404,47.2767017 L71.3403326,49.3252678 C71.3403326,49.3252678 68.7074477,46.8961964 64.5072853,46.8961964 L60.7001459,46.8961964 C58.7135263,46.8961964 57.5426419,48.5210873 58.1024068,50.5083489 L59.099167,54.0689863 C59.5185092,55.5609972 61.1271913,57.1119054 62.6787414,57.5193719 L74.5079471,60.6149294 L75.450785,63.9738397 C75.5894423,64.4708557 75.2972027,64.8765568 74.8025939,64.8765568 L74.8025939,64.8765568 Z M143.362076,26.425139 C143.362076,26.425139 136.806183,3.06548303 84.7043981,3.06548303 C32.6006873,3.06548303 39.1559384,26.425139 39.1559384,26.425139 L44.1334807,44.1673426 C44.8763567,43.969788 45.7007581,43.8276 46.6440775,43.8276 L48.3618881,43.8276 C50.7428146,43.8276 53.6766052,44.1360484 56.1069606,45.9758261 C57.182197,44.6110782 58.8476901,43.8276 60.7001459,43.8276 L64.5072853,43.8276 C65.6638867,43.8276 66.7076684,43.9855153 67.6655917,44.2081053 L83.8329752,44.2081053 L81.704007,36.6227135 C80.8545702,33.5916701 82.636895,31.1123675 85.6666545,31.1123675 L99.4813564,31.1123675 C102.512239,31.1123675 105.684347,33.5916701 106.53571,36.6227135 L108.693404,44.3114564 C109.031863,44.248868 109.383,44.2081053 109.759172,44.2081053 L120.939705,44.2081053 C121.604105,43.9604799 122.323872,43.8276 123.07734,43.8276 L126.884479,43.8276 C128.04108,43.8276 129.084862,43.9855153 130.041983,44.2081053 L148.35342,44.2081053 L143.362076,26.425139 Z M13.6623714,41.4296623 L18.9012122,41.4296623 C22.2062001,41.4296623 26.1531202,41.7337776 29.5470158,43.3146962 C29.5125119,43.1956177 28.1509737,38.3373144 28.1509737,38.3373144 L39.3127303,38.3373144 L36.2014454,27.2538735 C34.6831153,21.8438294 34.3489896,0 84.7043981,0 C138.513241,0 146.023206,24.550697 146.314804,25.5957626 L151.538046,44.2081053 L169.866494,44.2081053 L170.282145,45.683105 C172.110047,44.4117583 174.812582,43.8276 178.715529,43.8276 L182.742049,43.8276 C187.837386,43.8276 194.856914,44.6988625 196.970476,52.2290481 C198.113116,56.2956886 196.264351,58.4591606 196.264351,58.4591606 C196.946404,58.4591606 197.899673,58.4591606 197.899673,58.4591606 L198.777515,61.5872962 C200.526781,67.8247909 197.058742,71.644448 188.007498,71.644448 L184.801047,71.644448 C181.626692,71.644448 177.710905,71.3064707 174.695429,69.2359184 C174.695429,69.2359184 173.196517,71.644448 169.906615,71.644448 L166.095142,71.644448 C164.938059,71.644448 163.89171,71.4870141 162.935231,71.2633008 C162.596612,71.2633008 161.076837,71.2633008 159.13082,71.2633008 L171.768218,116.287462 L125.707175,116.287462 L114.948552,77.9477408 L112.321766,77.9477408 C112.321766,77.9477408 110.989756,73.202257 110.342207,70.8983623 C109.502079,71.3472334 108.561808,71.644448 107.528618,71.644448 L103.720998,71.644448 C102.56247,71.644448 101.51564,71.4870141 100.558358,71.2633008 C100.101944,71.2633008 97.5128713,71.2633008 94.6135845,71.2633008 L107.246489,116.287462 L61.1867305,116.287462 L48.6595841,71.644448 C44.2074634,71.644448 39.6166852,71.644448 38.1110333,71.644448 C35.2598914,75.7756027 28.5334048,75.7868365 25.7562457,75.7868365 L21.5843283,75.7868365 C15.2496451,75.7868365 6.53278352,74.7223524 3.95189511,65.5253898 C2.42542848,60.0840515 5.34483983,57.6541776 5.34483983,57.6541776 C5.10974821,57.6541776 1.74525317,57.6541776 1.74525317,57.6541776 L0.533480964,53.3480964 C-1.59480031,45.7689634 2.61787975,41.4296623 13.6623714,41.4296623 L13.6623714,41.4296623 Z" id="path36" fill="#231F20"></path>
                        <path d="M68.7637773,54.4921801 L67.923809,51.4986898 C67.785954,51.0003899 68.0773913,50.5959726 68.5758516,50.5959726 L70.7937274,50.5959726 C71.288978,50.5959726 71.810548,51.0003899 71.9503287,51.4986898 L73.6711884,57.6354011 L69.9317729,55.8336579 C69.4283376,55.5922914 68.9048419,54.99048 68.7637773,54.4921801" id="path38" fill="#231F20"></path>
                        <path d="M131.140329,54.4921801 L130.302287,51.4986898 C130.162345,51.0003899 130.455869,50.5959726 130.952243,50.5959726 L133.168995,50.5959726 C133.66553,50.5959726 134.185816,51.0003899 134.326881,51.4986898 L136.049506,57.6354011 L132.307041,55.8336579 C131.803606,55.5922914 131.28011,54.99048 131.140329,54.4921801" id="path40" fill="#231F20"></path>
                    </g>
                </g>
            </g>
        </g>
    </g>
</svg>