<?xml version="1.0" encoding="UTF-8"?>
<svg width="200px" height="200px" viewBox="0 0 200 200" version="1.1" xmlns="http://www.w3.org/2000/svg" xmlns:xlink="http://www.w3.org/1999/xlink">
    <!-- Generator: Sketch 54.1 (76490) - https://sketchapp.com -->
    <title>south-dakota</title>
    <desc>Created with Sketch.</desc>
    <g id="south-dakota" stroke="none" stroke-width="1" fill="none" fill-rule="evenodd">
        <g id="south-dakota_BGL">
            <g id="south-dakota" transform="translate(17.000000, 0.000000)">
                <g id="g10" transform="translate(82.304525, 99.824987) scale(-1, 1) rotate(-180.000000) translate(-82.304525, -99.824987) translate(0.000000, 0.018926)" fill-rule="nonzero">
                    <g id="g12">
                        <polyline id="path14" fill="#100F0D" points="72.2987542 176.898912 72.3074236 176.914276 72.3022658 176.906594 72.3112645 176.924152 72.2987542 176.898912"></polyline>
                        <path d="M158.192135,121.8457 L157.336924,126.607064 L157.302867,126.780187 C157.064468,127.896501 155.718269,133.707011 152.674893,138.48162 C148.312753,145.328032 144.643107,148.359109 143.62045,149.126338 L135.647317,155.073077 L131.595475,150.792296 C127.712972,161.17591 121.564729,167.699726 117.992523,170.832028 L117.897921,171.34856 C117.709661,172.37784 116.581048,177.774935 112.674894,182.96485 C108.548316,188.424384 103.081214,190.698638 102.028284,191.098808 L92.8269217,194.599115 L88.189109,185.919299 C87.7548817,185.109498 85.5624594,180.738844 85.0239797,174.16205 C84.5868197,168.922942 85.0542526,165.116121 85.4386242,163.082159 C85.0350483,162.635633 84.6378107,162.175863 84.2487089,161.706632 C83.3389128,163.26758 82.3311081,164.698922 81.2427963,165.979845 C82.0240271,171.465868 81.4157304,177.818453 81.3392913,178.564869 L81.2772318,179.046398 C80.4120882,184.919346 78.0289465,189.099849 77.5573511,189.882215 L72.0504215,198.922468 L62.7106554,193.920813 C61.8156174,193.439284 58.5898476,191.542496 54.6608945,187.333612 C50.5708327,182.948768 48.3996961,177.224346 48.0020801,176.109924 L46.7530379,172.46582 C43.3847016,169.348655 37.4214077,163.0604 32.704507,153.957709 L31.1391128,157.956573 L19.4124209,149.433798 C18.6238111,148.857666 14.4513501,145.645898 9.78846766,139.066266 C5.05681838,132.382571 -5.07049796,113.4478 3.05611837,82.0546784 C5.78703926,71.5057926 11.5958561,62.7465099 19.0832028,57.8230911 C9.9395485,47.3202769 9.39783336,34.2735907 17.4158266,17.9793761 C23.2848961,6.04904199 33.2234039,0 46.9552044,0 C52.7821755,0 58.471594,0.985941984 64.5014884,2.03101078 C69.7744649,2.94672903 75.2263356,3.89275805 80.052881,3.94117582 L80.4590113,3.94117582 C84.8632494,3.94117582 89.8380376,3.00364214 94.6662859,2.09530291 C99.9167469,1.10493351 105.345061,0.0812993689 110.776214,0.0812993689 C124.109547,0.0812993689 133.798776,6.50210475 139.577122,19.1619124 C145.753745,32.6949521 145.66198,43.9618739 139.282907,53.5633117 C149.290947,58.4124672 157.648168,68.715007 161.770962,81.3651179 C168.322213,101.45499 160.806013,117.253675 158.192135,121.8457" id="path16" fill="#100F0D"></path>
                        <path d="M152.787471,119.82309 L151.752515,125.592921 C151.628585,126.17189 150.481998,131.361806 147.887986,135.431622 C143.923179,141.653655 140.809797,144.138873 140.227043,144.575939 L136.300077,147.504845 L132.92843,143.943991 C132.592589,143.587339 130.373205,141.066171 129.177425,136.511988 C129.166072,136.612267 129.158504,136.705923 129.147152,136.807149 C126.982637,154.960499 116.976488,164.511608 112.786526,167.776355 L112.312565,170.333471 C112.221746,170.831082 111.325857,175.317152 108.146253,179.543063 C104.890022,183.850334 100.500447,185.607109 100.010404,185.793477 L95.4779788,187.517142 L93.1916159,183.237307 C92.9820704,182.846597 91.1361786,179.250741 90.6798142,173.691874 C90.1521192,167.352534 91.1203799,163.57504 91.2322952,163.164463 L91.7182703,161.381198 C88.5642095,158.424858 85.4921695,154.467618 83.1270969,149.205805 C81.609761,155.184708 79.0769575,160.560045 75.1760068,164.109546 L75.5270782,166.163375 C76.3530561,171.02218 75.7666127,177.267864 75.6952822,177.964141 L75.6616035,178.219569 C74.932499,183.167301 72.9332558,186.558815 72.7093308,186.929658 L69.9964979,191.383563 L65.3998375,188.921995 C64.9027939,188.655215 62.2428441,187.136838 58.8119753,183.461516 C55.4306783,179.837279 53.5954766,174.897115 53.3711732,174.270844 L51.6442918,169.229455 C48.1317806,166.183242 37.0558621,155.505412 33.0193455,138.79854 C32.8409244,138.054961 32.7023311,137.326518 32.5718737,136.59713 C32.1010351,139.814575 31.2829092,142.015984 31.1336258,142.400072 L28.5324244,149.04498 L22.762688,144.852179 C22.3595851,144.557018 18.6933442,141.81448 14.421361,135.786383 C11.1565202,131.174492 0.625266528,114.093938 8.55121307,83.4774115 C11.9812683,70.2267614 20.0979135,61.5372957 29.2865988,59.5325656 C20.0864666,52.4790678 11.9180736,42.0085132 22.5088685,20.4852178 C27.4108124,10.5208833 35.4080687,5.67617412 46.9552044,5.67617412 C52.2869293,5.67617412 57.7502469,6.62220314 63.5314302,7.62402895 C69.0327782,8.57856277 74.7196424,9.56454259 80.052881,9.61733101 L80.4590113,9.61733101 C85.4138383,9.61733101 90.6417838,8.62956319 95.6993496,7.67687413 C100.701951,6.73380618 105.870108,5.75747585 110.776214,5.75747585 C121.840969,5.75747585 129.572865,10.9132962 134.412749,21.5192275 C142.633741,39.5288765 136.72106,49.4658708 129.405418,56.3844648 C140.799391,57.9667929 151.609665,68.50584 156.373867,83.1249211 C163.1796,103.99224 152.787471,119.82309 152.787471,119.82309" id="path18" fill="#FFFFFF"></path>
                        <path d="M68.4271304,168.0753 C64.4356448,170.023173 60.4830409,170.410099 57.9113556,170.521731 L58.5839823,172.485687 C58.5839823,172.485687 60.1352806,176.801471 62.8411129,179.701996 C65.8225233,182.896736 68.0010389,184.064136 68.0010389,184.064136 C68.0010389,184.064136 69.6225327,181.399172 70.2138008,177.414498 C70.2138008,177.414498 70.8191648,171.35329 70.0941281,167.085753 L68.4271304,168.0753" id="path20" fill="#100F0D"></path>
                        <path d="M98.0530698,180.643295 C98.0530698,180.643295 96.5469916,177.822237 96.169526,173.236834 C95.7088099,167.683644 96.5469916,164.615672 96.5469916,164.615672 C96.5469916,164.615672 99.8391726,166.76978 101.56946,167.476463 C104.031027,168.481146 106.893711,169.333518 106.893711,169.333518 C106.893711,169.333518 106.232437,172.918968 103.747218,176.223448 C101.355657,179.386969 98.0530698,180.643295 98.0530698,180.643295" id="path22" fill="#100F0D"></path>
                        <path d="M25.9987695,140.393545 C25.9987695,140.393545 28.0017022,135.270797 27.2057133,129.128231 C26.4577828,123.328127 26.2038686,123.032966 26.2038686,123.032966 C26.2038686,123.032966 23.7600864,123.772761 20.6256085,123.488952 C17.4900899,123.205143 14.9893568,122.416155 14.9893568,122.416155 C14.9893568,122.416155 16.2414262,128.824556 18.9168909,132.599211 C22.7882308,138.062529 25.9987695,140.393545 25.9987695,140.393545" id="path24" fill="#100F0D"></path>
                        <path d="M77.8326455,118.790972 C80.7480231,128.600347 80.5163406,152.248234 71.270326,160.260154 C65.3890528,165.363035 56.1220363,165.782125 56.1220363,165.782125 C56.1220363,165.782125 42.7095207,155.387159 38.3895738,137.50248 C35.6131678,126.01485 38.8939965,115.756111 52.6125525,109.281488 C64.8514245,103.506927 74.5296798,107.658102 77.8326455,118.790972" id="path26" fill="#AB1C22"></path>
                        <path d="M87.1932243,116.747549 C84.3014973,126.568276 83.7553548,132.808284 86.1733104,141.429446 C91.7367178,161.229834 108.093276,164.38011 108.093276,164.38011 C108.093276,164.38011 121.281866,156.361568 123.692348,136.156281 C125.933491,117.288678 123.788843,110.125346 111.866986,106.363935 C101.909084,103.21555 89.6266001,108.469795 87.1932243,116.747549" id="path28" fill="#AB1C22"></path>
                        <path d="M80.4335631,104.427413 C80.6349727,104.427413 80.8370445,104.419845 81.0384541,104.411331 C101.805021,103.549498 98.5081097,83.1226506 110.010877,66.6876668 C119.103161,53.7022833 141.55716,50.4026287 129.415824,23.8077663 C124.92124,13.953928 118.392694,11.2691923 110.791351,11.2691923 C101.677307,11.2691923 91.0279529,15.12795 80.4741477,15.12795 C80.3400008,15.12795 80.2021644,15.12795 80.0676391,15.12795 C68.6440549,15.0145212 56.8947528,11.1867932 46.9692056,11.1867932 C38.8729,11.1867932 31.9887415,13.7296246 27.4666281,22.9186882 C12.0075679,54.3330955 40.7782971,55.0625784 51.1668309,70.3209859 C58.1205226,80.5326123 65.2653122,104.427413 80.4335631,104.427413" id="path30" fill="#AB1C22"></path>
                        <path d="M126.000659,110.779998 C134.173404,118.286738 147.764057,117.337871 147.764057,117.337871 C147.764057,117.337871 157.394632,103.988456 151.149895,84.8332603 C144.979893,65.9071929 125.488857,50.9806524 109.501913,71.6361554 C96.6103755,88.2910909 119.203441,104.542829 126.000659,110.779998" id="path32" fill="#AB1C22"></path>
                        <path d="M146.836002,122.900522 C146.644904,123.55612 146.264601,124.8711 146.170944,125.234376 C145.793478,126.707343 144.838935,129.964521 143.2392,132.471498 C139.617801,138.156186 136.934862,140.158929 136.934862,140.158929 C136.934862,140.158929 133.897163,136.945269 133.918922,130.446995 C133.941627,124.662974 134.833732,121.277136 134.850761,121.21186 C139.936613,122.822948 144.846503,122.934579 146.836002,122.900522" id="path34" fill="#100F0D"></path>
                        <path d="M49.922992,92.3409466 C46.1514581,101.3216 38.010027,109.769639 32.9602187,114.269899 C24.6155805,121.706633 12.269145,115.22255 12.269145,115.22255 C12.269145,115.22255 8.9063429,102.061395 13.8453239,85.0103569 C17.8082395,71.3317233 27.0420503,62.0480567 37.4342737,65.2420399 C39.6762679,65.9308436 57.9262083,65.8162795 57.9262083,65.8162795 L57.9262083,92.3409466 L49.922992,92.3409466" id="path36" fill="#AB1C22"></path>
                        <path d="M96.593347,56.9309858 L96.593347,48.0638558 L87.7168513,48.0638558 L96.593347,56.9309858 Z M96.593347,94.3190932 L96.593347,81.1427065 L80.4305358,94.3190932 L96.593347,94.3190932 Z M119.346291,102.025446 L105.54562,115.671914 L99.8807978,115.671914 L99.8807978,121.823941 L86.0864649,135.47987 L52.9605966,135.47987 L39.3041947,121.820157 L39.3041947,119.212901 L35.7824124,115.688943 L35.7824124,99.4002151 L55.3655915,83.468235 L55.3655915,73.6180862 L39.3041947,73.6180862 L39.3041947,65.8236585 L35.7824124,65.8236585 L35.7824124,56.4325231 L47.7733302,44.3233516 L55.3655915,44.3233516 L55.3655915,26.7179408 L98.0180667,26.7179408 C98.0180667,26.7179408 98.8865213,27.5841249 100.142848,28.8387486 L105.553188,28.8387486 L119.358589,42.640366 L119.346291,102.025446 L119.346291,102.025446 Z" id="path38" fill="#100F0D"></path>
                        <path d="M102.692396,45.1141373 L75.0148981,45.1141373 L75.0148981,49.1717503 L84.6488792,49.1717503 L96.7702544,61.2819624 L96.7702544,77.0030727 L75.0148981,94.7400762 L75.0148981,99.1712761 L102.692396,99.1712761 L102.692396,45.1141373 Z M116.238586,100.72844 L104.109548,112.723142 L61.4589645,112.723142 L61.4589645,105.793479 L55.4280295,110.709992 L55.4280295,118.979232 L83.2169697,118.979232 L83.2169697,115.409864 L96.7702544,115.409864 L96.7702544,120.529773 L84.6488792,132.532043 L53.8678384,132.532043 L41.8761638,120.533557 L41.8761638,104.250506 L61.4589645,88.313701 L61.4589645,65.4282184 L75.0148981,65.4282184 L75.0148981,77.2839487 L83.2169697,70.6088625 L83.2169697,62.7265487 L55.4280295,62.7265487 L55.4280295,70.6683678 L41.8761638,70.6683678 L41.8761638,61.2819624 L53.8678384,49.1717503 L61.4589645,49.1717503 L61.4589645,31.5663395 L104.109548,31.5663395 C104.109548,31.5663395 115.027668,42.4604313 116.238586,43.6858227 C116.225341,44.7471726 116.238586,100.72844 116.238586,100.72844 L116.238586,100.72844 Z" id="path40" fill="#FFFFFF"></path>
                        <path d="M150.398747,50.2880646 L151.166923,50.2880646 C151.97294,50.2880646 152.742061,50.5434924 152.742061,51.2396752 C152.742061,51.8253617 152.339999,52.2651706 151.277608,52.2651706 C150.838651,52.2651706 150.581331,52.2281809 150.398747,52.1915696 L150.398747,50.2880646 Z M150.398747,46.8465056 L149.264459,46.8465056 L149.264459,52.9605966 C149.886,53.0703359 150.544436,53.1443154 151.387348,53.1443154 C152.411897,53.1443154 152.925591,52.9605966 153.291704,52.667233 C153.656871,52.4111429 153.914191,51.9351011 153.914191,51.3494145 C153.914191,50.6173773 153.364548,50.1406733 152.742061,49.9218568 L152.742061,49.8483503 C153.254809,49.6277363 153.547132,49.1535866 153.730662,48.3476645 C153.914191,47.4311516 154.05988,47.0649437 154.206514,46.8465056 L153.03533,46.8465056 C152.851801,47.0649437 152.705166,47.6155326 152.521637,48.4204141 C152.375948,49.1159346 151.97294,49.4082576 151.130028,49.4082576 L150.398747,49.4082576 L150.398747,46.8465056 Z M146.773564,50.0674506 C146.773564,47.3584019 148.78766,45.2353236 151.497087,45.2353236 C154.096775,45.1984285 156.073976,47.3584019 156.073976,50.0315961 C156.073976,52.7041281 154.096775,54.8648584 151.424243,54.8648584 C148.78766,54.8648584 146.773564,52.7041281 146.773564,50.0674506 Z M157.355845,50.0674506 C157.355845,46.7367663 154.793052,44.172933 151.460192,44.172933 C148.128278,44.172933 145.490749,46.7367663 145.490749,50.0674506 C145.490749,53.3268044 148.128278,55.8903538 151.497087,55.8903538 C154.793052,55.8903538 157.355845,53.3268044 157.355845,50.0674506 L157.355845,50.0674506 Z" id="path42" fill="#100F0D"></path>
                    </g>
                </g>
            </g>
        </g>
    </g>
</svg>