<?xml version="1.0" encoding="UTF-8"?>
<svg width="200px" height="200px" viewBox="0 0 200 200" version="1.1" xmlns="http://www.w3.org/2000/svg" xmlns:xlink="http://www.w3.org/1999/xlink">
    <!-- Generator: Sketch 54.1 (76490) - https://sketchapp.com -->
    <title>san-francisco</title>
    <desc>Created with Sketch.</desc>
    <g id="san-francisco" stroke="none" stroke-width="1" fill="none" fill-rule="evenodd">
        <g id="san-francisco_BGL">
            <g id="san-francisco" transform="translate(0.000000, 11.000000)">
                <g id="g10" transform="translate(99.837396, 88.604879) scale(-1, 1) rotate(-180.000000) translate(-99.837396, -88.604879) translate(0.000000, 0.149596)" fill-rule="nonzero">
                    <g id="g12">
                        <polyline id="path14" fill="#174B33" points="146.364224 111.360648 146.364224 92.9586969 116.925526 92.9586969 116.925526 97.0094285 97.2643878 97.0094285 97.2643878 84.8995101 119.349591 84.8995101 119.349591 73.1577217 97.2643878 73.1577217 97.2643878 58.5520636 105.713818 55.1536897 105.713818 39.1511535 55.1392507 59.4504701 55.1392507 75.4042258 63.8096895 71.9310551 63.8096895 97.0094285 55.1392507 97.0094285 55.1392507 111.360648 146.364224 111.360648"></polyline>
                        <path d="M141.959671,159.745687 L110.146989,159.745687 L110.146989,162.941134 L89.4504043,162.941134 L89.4504043,152.508614 L126.247151,152.508614 C132.119671,152.508614 136.943086,151.567476 140.713492,149.687151 C144.482598,147.810728 146.364224,145.553817 146.364224,142.924224 L146.364224,127.774306 C146.364224,125.302761 144.290728,123.195444 140.139183,121.451054 C135.985688,119.704712 131.098533,118.833168 125.478371,118.833168 L54.880584,118.833168 L54.880584,135.289102 L89.5655262,135.289102 L89.5655262,131.529102 L110.146989,131.529102 L110.146989,142.11707 L74.8871526,142.11707 C68.4969089,142.11707 63.2271204,143.17398 59.0746652,145.290403 C54.9220149,147.406826 52.8468279,149.856907 52.8468279,152.641947 L52.8468279,166.797394 C52.8468279,169.743085 55.3069254,171.296906 60.2273806,172.906012 C65.143413,174.511866 70.7967462,175.317069 77.1856891,175.317069 L141.959671,175.317069 L141.959671,159.745687" id="path16" fill="#174B33"></path>
                        <path d="M167.144061,176.574305 C167.144061,176.574305 160.060484,176.574305 160.060484,170.180809 C160.060484,149.555118 160.060484,84.9027621 160.060484,75.4666648 C160.060484,64.8988602 158.001947,52.832584 144.993167,46.5957712 C123.990891,36.5269584 106.349916,27.692357 99.6591845,27.7294302 C92.9678026,27.692357 75.326177,36.5269584 54.3241612,46.5957712 C41.3157713,52.832584 39.2568445,64.8988602 39.2568445,75.4666648 C39.2568445,84.9027621 39.2568445,149.555118 39.2568445,170.180809 C39.2568445,176.574305 32.1743081,176.574305 32.1743081,176.574305 L0,176.574305 L0,148.108614 L5.75457547,148.108614 C5.75457547,148.108614 11.5624713,148.738858 11.410081,142.930728 C11.2919022,138.428614 11.410081,77.4113802 11.410081,77.4113802 C10.9773656,58.2256246 15.0126826,32.0799992 51.6915759,18.365593 C80.257559,7.6831868 92.2367457,0 99.6591845,0 C107.080323,0 119.06081,7.6831868 147.626663,18.365593 C184.305036,32.0799992 188.340808,58.2256246 187.907638,77.4113802 C187.907638,77.4113802 188.025361,138.428614 187.907638,142.930728 C187.754792,148.738858 193.562922,148.108614 193.562922,148.108614 L199.317719,148.108614 L199.317719,176.574305 L167.144061,176.574305" id="path18" fill="#FAB41D"></path>
                    </g>
                </g>
            </g>
        </g>
    </g>
</svg>