<?xml version="1.0" encoding="UTF-8"?>
<svg width="200px" height="200px" viewBox="0 0 200 200" version="1.1" xmlns="http://www.w3.org/2000/svg" xmlns:xlink="http://www.w3.org/1999/xlink">
    <!-- Generator: Sketch 54.1 (76490) - https://sketchapp.com -->
    <title>st-francis-pa</title>
    <desc>Created with Sketch.</desc>
    <g id="st-francis-pa" stroke="none" stroke-width="1" fill="none" fill-rule="evenodd">
        <g id="st-francis-pa_BGL">
            <g id="st-francis-pa" transform="translate(-1.000000, 42.000000)">
                <g fill-rule="nonzero" id="Shape">
                    <path d="M78.592,1.07885714 C78.7017143,0.713142857 78.7748571,0.347428571 78.9028571,0 L200.173714,0 C193.243429,30.1531429 186.349714,60.3611429 179.401143,90.5142857 C178.651429,93.6228571 178.102857,96.6217143 176.987429,99.6205714 C175.433143,103.862857 173.110857,107.794286 169.581714,110.665143 C165.979429,113.627429 161.389714,115.108571 156.745143,115.145143 C145.353143,115.181714 133.942857,115.181714 122.550857,115.181714 C119.771429,115.2 117.028571,114.834286 114.413714,113.865143 C111.140571,112.658286 108.251429,110.390857 106.368,107.446857 C104.850286,105.069714 103.990857,102.290286 103.771429,99.4925714 C103.515429,96.7497143 103.862857,93.9154286 104.448,91.2457143 C105.654857,85.7965714 106.88,80.3657143 108.141714,74.9348571 C105.965714,74.9348571 103.789714,74.9348571 101.613714,74.9348571 C98.432,88.3565714 95.3051429,101.814857 92.1051429,115.236571 L52.096,115.236571 C51.5108571,115.108571 50.9257143,115.163429 50.3405714,115.181714 C40.0457143,115.181714 29.7325714,115.181714 19.4377143,115.181714 C16.1828571,115.2 12.8365714,114.688 9.83771429,113.316571 C6.67428571,111.890286 3.98628571,109.44 2.24914286,106.441143 C0.877714286,104.045714 0.182857143,101.376 0.0548571429,98.6697143 L0.0548571429,96.9325714 C0.146285714,95.2685714 0.384,93.6228571 0.786285714,92.0137143 C3.23657143,81.6457143 5.66857143,71.2777143 8.11885714,60.9097143 C12.7085714,60.9097143 17.2982857,60.9097143 21.888,60.9097143 C20.4068571,59.3005714 18.9074286,57.728 17.4262857,56.1188571 C14.4091429,52.7177143 12.6902857,48.256 12.6902857,43.7028571 C12.6537143,41.9657143 12.8731429,40.2468571 13.2571429,38.5462857 C14.72,32.0365714 16.1828571,25.5268571 17.664,19.0171429 C18.4137143,15.1954286 19.8217143,11.5565714 22.2171429,8.448 C24.7222857,5.13828571 28.2514286,2.70628571 32.1828571,1.38971429 C34.5417143,0.566857143 36.9737143,0.256 39.4605714,0.0731428571 C50.4502857,0.109714286 61.4582857,0.0731428571 72.4662857,0.0914285714" fill="#221F1F"></path>
                    <path d="M83.4377143,5.10171429 C83.9862857,5.04685714 84.5348571,5.08342857 85.0834286,5.08342857 C109.622857,5.08342857 134.162286,5.08342857 158.72,5.08342857 C153.179429,29.4948571 147.602286,53.9062857 142.043429,78.3177143 C144.018286,77.4948571 145.974857,76.672 147.949714,75.8308571 C150.308571,65.92 152.649143,56.0091429 155.008,46.0982857 C158.244571,32.4388571 161.499429,18.7794286 164.699429,5.10171429 C165.339429,5.06514286 165.997714,5.06514286 166.637714,5.06514286 C175.524571,5.06514286 184.393143,5.06514286 193.28,5.06514286 C186.624,34.176 179.949714,63.2685714 173.257143,92.3611429 C172.653714,95.1222857 171.904,97.792 170.624,100.333714 C169.234286,103.149714 167.296,105.636571 164.626286,107.318857 C162.212571,108.854857 159.433143,109.531429 156.580571,109.549714 C144.932571,109.549714 133.302857,109.586286 121.654857,109.568 C118.765714,109.476571 115.986286,108.873143 113.627429,107.117714 C111.469714,105.545143 110.08,103.168 109.568,100.571429 C108.982857,97.5542857 109.385143,94.6468571 110.061714,91.7028571 C111.725714,84.2422857 113.444571,76.7817143 115.145143,69.3211429 C109.165714,69.3394286 103.168,69.3211429 97.1885714,69.3211429 C94.1714286,82.176 91.1542857,95.0308571 88.1188571,107.885714 C87.9908571,108.470857 87.8628571,109.037714 87.68,109.604571 C78.0982857,109.568 68.4982857,109.604571 58.9165714,109.586286 C59.0811429,108.836571 59.264,108.086857 59.4468571,107.337143 C56.5942857,108.909714 53.3942857,109.531429 50.1577143,109.568 C39.8628571,109.568 29.5497143,109.568 19.2548571,109.568 C16.5668571,109.531429 13.9702857,109.147429 11.5748571,107.904 C8.94171429,106.550857 6.93028571,104.118857 6.12571429,101.266286 C5.376,98.5965714 5.59542857,95.872 6.25371429,93.2205714 C8.26514286,84.6994286 10.2765714,76.1782857 12.288,67.6571429 C12.3977143,67.328 12.416,66.7611429 12.6537143,66.5051429 C19.9497143,66.4685714 27.392,66.5051429 34.7062857,66.4868571 C34.3222857,66.0114286 33.92,65.5725714 33.4994286,65.1337143 C29.7508571,61.1291429 26.0205714,57.1245714 22.2902857,53.12 C21.0285714,51.8217143 19.968,50.3222857 19.2914286,48.64 C18.1577143,45.8971429 18.0662857,42.9165714 18.7062857,40.0274286 C20.2788571,33.0422857 21.8514286,26.0754286 23.424,19.0902857 C23.8994286,17.024 24.6308571,15.0308571 25.7645714,13.2205714 C27.0811429,11.0628571 28.928,9.23428571 31.1405714,7.99085714 C33.9017143,6.4 37.1565714,5.68685714 40.3382857,5.68685714 C50.816,5.68685714 61.312,5.68685714 71.7897143,5.68685714 C73.7097143,5.68685714 75.6845714,5.92457143 77.4948571,6.54628571 C79.3782857,7.168 81.024,8.192 82.4137143,9.61828571 C82.7245714,8.13714286 83.0171429,6.60114286 83.4377143,5.10171429 Z" fill="#BC1F26"></path>
                    <path d="M130.358857,11.2457143 C128.914286,12.3062857 127.542857,13.4582857 126.134857,14.5371429 C125.824,14.8114286 125.476571,14.976 125.385143,15.4148571 C124.928,17.2251429 124.562286,19.072 124.050286,20.864 C115.401143,20.8274286 106.733714,20.8457143 98.0845714,20.864 C95.7622857,30.6651429 93.5862857,40.5028571 91.3371429,50.3222857 C91.0994286,51.5474286 90.6788571,52.7177143 90.3497143,53.9245714 C92.032,52.6811429 93.7508571,51.456 95.3782857,50.1394286 C102.747429,50.1211429 110.134857,50.1211429 117.504,50.1394286 C116.059429,51.1817143 114.724571,52.3702857 113.316571,53.4674286 C113.060571,53.7051429 112.621714,53.9428571 112.566857,54.3268571 C112.182857,56.064 111.817143,57.8194286 111.396571,59.5565714 C103.954286,59.5565714 96.512,59.5565714 89.0697143,59.5565714 C88.6857143,61.2571429 88.3382857,62.9942857 87.9725714,64.6948571 C85.2297143,76.416 82.4502857,88.1188571 79.7074286,99.84 C77.4217143,99.9131429 75.1177143,99.8582857 72.8137143,99.8582857 C72.2834286,99.8948571 71.6982857,99.7302857 71.2594286,100.114286 C70.0525714,100.992 68.8457143,101.833143 67.6388571,102.710857 C67.328,102.930286 67.072,103.186286 66.688,103.259429 C66.944,102.326857 67.1451429,101.376 67.3645714,100.425143 C71.3508571,83.4377143 75.3371429,66.4502857 79.3234286,49.4628571 C82.3222857,36.736 85.2845714,23.9542857 88.3017143,11.2457143 C102.308571,11.2457143 116.370286,11.2457143 130.358857,11.2457143 Z" fill="#FEFEFE"></path>
                    <path d="M134.912,11.264 C140.233143,11.2274286 145.664,11.264 151.003429,11.2457143 C149.723429,12.2148571 148.516571,13.2754286 147.254857,14.2628571 C146.998857,14.4822857 146.706286,14.6834286 146.486857,14.9577143 C146.285714,15.4697143 146.212571,16.0548571 146.066286,16.6034286 C141.019429,38.2171429 135.972571,59.8491429 130.925714,81.4628571 C129.810286,86.272 128.658286,91.0811429 127.561143,95.8902857 C130.797714,94.3908571 134.034286,92.8731429 137.289143,91.392 C136.704,94.1897143 136.192,97.0057143 135.588571,99.8034286 C131.437714,99.7851429 127.286857,99.8034286 123.117714,99.8034286 C122.477714,99.8217143 121.892571,99.6754286 121.344,100.077714 C120.118857,100.864 118.857143,101.595429 117.632,102.418286 C116.498286,101.705143 115.821714,100.516571 115.584,99.2 C115.309714,97.5542857 115.492571,95.7988571 115.84,94.1714286 C116.333714,91.8308571 116.864,89.5085714 117.394286,87.1862857 C123.062857,62.2628571 128.841143,37.3394286 134.601143,12.4342857 C134.710857,12.032 134.784,11.648 134.912,11.264 Z" fill="#FEFEFE"></path>
                    <path d="M170.093714,11.2457143 C175.250286,11.264 180.388571,11.2457143 185.545143,11.264 C184.064,12.3977143 182.582857,13.5497143 181.101714,14.6651429 C180.571429,14.976 180.589714,15.7805714 180.425143,16.3108571 C174.774857,40.7222857 169.142857,65.1337143 163.419429,89.5268571 C162.742857,92.416 161.700571,95.5794286 159.414857,97.5908571 C157.458286,99.3462857 154.898286,99.8582857 152.356571,99.8217143 C149.248,99.8217143 146.121143,99.8217143 143.012571,99.8217143 C146.157714,94.1531429 149.504,88.5942857 153.051429,83.1634286 C155.501714,79.4148571 158.025143,75.6845714 160.694857,72.0822857 C158.72,72.6308571 156.745143,73.1977143 154.770286,73.7645714 C159.689143,53.0102857 164.608,32.2742857 169.526857,11.5382857 C169.563429,11.1177143 169.801143,11.3005714 170.093714,11.2457143 Z" fill="#FEFEFE"></path>
                    <path d="M130.358857,11.2457143 C129.298286,15.6891429 128.237714,20.1325714 127.177143,24.576 C118.509714,24.6125714 109.842286,24.5577143 101.174857,24.5942857 C99.2731429,33.1154286 97.28,41.6182857 95.3782857,50.1394286 C93.7508571,51.456 92.032,52.6628571 90.3497143,53.9245714 C90.6788571,52.7177143 91.0994286,51.5474286 91.3371429,50.3222857 C93.5862857,40.5028571 95.7622857,30.6651429 98.0845714,20.864 C106.733714,20.864 115.401143,20.8457143 124.050286,20.864 C124.562286,19.072 124.928,17.2251429 125.385143,15.4148571 C125.476571,14.976 125.805714,14.7931429 126.134857,14.5371429 C127.561143,13.4582857 128.932571,12.3062857 130.358857,11.2457143 Z" fill="#A6A8AA"></path>
                    <path d="M151.003429,11.2457143 C145.115429,37.0468571 139.245714,62.848 133.376,88.6491429 C136.612571,87.2777143 139.867429,85.9245714 143.104,84.5531429 C141.641143,90.8434286 140.178286,97.1154286 138.733714,103.405714 C133.229714,103.424 127.725714,103.405714 122.203429,103.405714 C120.649143,103.387429 118.985143,103.222857 117.632,102.4 C118.838857,101.577143 120.100571,100.845714 121.344,100.059429 C121.910857,99.6571429 122.477714,99.8217143 123.117714,99.7851429 C127.268571,99.8034286 131.419429,99.7851429 135.588571,99.7851429 C136.192,96.9874286 136.704,94.1714286 137.289143,91.3737143 C134.052571,92.8548571 130.816,94.3725714 127.561143,95.872 C128.658286,91.0628571 129.810286,86.2537143 130.925714,81.4445714 C135.972571,59.8308571 141.019429,38.1988571 146.066286,16.5851429 C146.212571,16.0365714 146.285714,15.4514286 146.486857,14.9394286 C146.706286,14.6834286 146.998857,14.464 147.254857,14.2445714 C148.498286,13.2754286 149.723429,12.2148571 151.003429,11.2457143 Z" fill="#A6A8AA"></path>
                    <path d="M185.563429,11.2457143 C179.401143,38.0342857 173.293714,64.8594286 167.094857,91.6297143 C166.491429,94.3542857 165.613714,97.2434286 163.968,99.5474286 C162.834286,101.156571 161.261714,102.418286 159.36,102.985143 C158.336,103.296 157.275429,103.424 156.214857,103.387429 C151.168,103.387429 146.121143,103.387429 141.074286,103.387429 C141.714286,102.180571 142.354286,100.992 143.030857,99.8034286 C146.139429,99.8034286 149.266286,99.8034286 152.374857,99.8034286 C154.934857,99.8217143 157.494857,99.328 159.433143,97.5725714 C161.718857,95.5611429 162.761143,92.3977143 163.437714,89.5085714 C169.142857,65.1154286 174.774857,40.704 180.443429,16.2925714 C180.608,15.744 180.589714,14.9577143 181.12,14.6468571 C182.601143,13.5314286 184.064,12.3794286 185.563429,11.2457143 Z" fill="#A6A8AA"></path>
                    <path d="M41.1977143,11.8491429 C51.3828571,11.8491429 61.5497143,11.8491429 71.7348571,11.8491429 C73.3988571,11.8857143 74.9897143,12.0685714 76.4891429,12.8 C75.4468571,13.5862857 74.4228571,14.4091429 73.3805714,15.2137143 C73.8742857,15.7988571 74.2948571,16.4205714 74.5142857,17.1702857 C75.008,18.7794286 74.7337143,20.5897143 74.3314286,22.1805714 C73.1062857,27.3005714 71.8628571,32.4205714 70.6377143,37.5405714 C68.1325714,37.5588571 65.6274286,37.5588571 63.1405714,37.5405714 C62.8114286,37.5588571 62.5371429,37.504 62.2811429,37.7417143 C60.7085714,38.9851429 59.1542857,40.2285714 57.6,41.472 C58.9897143,35.7851429 60.3062857,30.08 61.6594286,24.3931429 C63.232,23.0765714 64.8228571,21.7782857 66.3405714,20.4068571 C58.112,20.3885714 49.8651429,20.3885714 41.6365714,20.4068571 C41.5634286,20.6811429 41.4902857,20.9554286 41.4171429,21.248 C39.8994286,28.0137143 38.272,34.7611429 36.7177143,41.5085714 C44.6171429,49.9748571 52.5165714,58.4594286 60.416,66.9257143 C61.4582857,67.9862857 62.1348571,69.3394286 62.3177143,70.8205714 C62.4457143,72.0457143 62.3542857,73.2891429 62.0617143,74.496 C60.5257143,81.0422857 58.9714286,87.6617143 57.4354286,94.1897143 C56.7222857,96.1097143 55.1862857,97.8468571 53.248,98.5965714 C50.9805714,99.5108571 48.1645714,99.4194286 45.7508571,99.5291429 C36.9188571,99.5291429 28.0685714,99.5291429 19.2365714,99.5291429 C18.7794286,99.5474286 18.1942857,99.4194286 17.8285714,99.7302857 C16.6034286,100.608 15.4148571,101.522286 14.1714286,102.363429 C13.2754286,101.814857 12.544,101.028571 12.16,100.022857 C11.5565714,98.4502857 11.7577143,96.5851429 12.1417143,94.976 C13.8971429,87.552 15.6525714,80.1097143 17.3897143,72.6857143 C22.656,72.6857143 27.9222857,72.6857143 33.2068571,72.6857143 C31.8171429,73.6731429 30.4822857,74.7337143 29.1108571,75.7394286 C28.7817143,76.0137143 28.416,76.16 28.3428571,76.6537143 C27.2091429,81.7737143 26.0388571,86.8937143 24.9051429,92.0137143 C24.7222857,92.8365714 24.5028571,93.6228571 24.3017143,94.4457143 C25.9291429,93.3668571 27.5017143,92.2148571 29.0925714,91.0994286 C34.7428571,91.0994286 40.3931429,91.0994286 46.0434286,91.0994286 C47.3965714,85.3942857 48.7314286,79.6708571 50.0845714,73.9657143 C42.2034286,65.5177143 34.3222857,57.0697143 26.4411429,48.6217143 C25.728,47.8902857 25.1794286,47.0125714 24.832,46.0434286 C24.3017143,44.5622857 24.3382857,42.8617143 24.6857143,41.344 C26.2582857,34.3588571 27.8308571,27.3737143 29.4034286,20.3885714 C29.7691429,18.7977143 30.3542857,17.2982857 31.2868571,15.9634286 C32.3474286,14.4274286 33.92,13.2937143 35.6754286,12.672 C37.4674286,11.9588571 39.3142857,11.8125714 41.1977143,11.8491429 Z" fill="#FEFEFE"></path>
                    <path d="M76.4891429,12.8 L76.5257143,12.8182857 C77.4948571,13.3302857 78.2811429,14.1348571 78.6834286,15.1771429 C79.3234286,16.7862857 79.1222857,18.56 78.7382857,20.2057143 C77.0377143,27.2822857 75.3371429,34.3588571 73.6182857,41.4354286 C68.2605714,41.4354286 62.9211429,41.4354286 57.5634286,41.4354286 C59.136,40.192 60.6902857,38.9668571 62.2445714,37.7051429 C62.5005714,37.4857143 62.7931429,37.5222857 63.104,37.504 C65.6091429,37.5222857 68.1142857,37.5222857 70.6011429,37.504 C71.8262857,32.384 73.0697143,27.264 74.2948571,22.144 C74.6971429,20.5531429 74.9714286,18.7428571 74.4777143,17.1337143 C74.2582857,16.384 73.8377143,15.7805714 73.344,15.1771429 C74.4228571,14.4091429 75.4468571,13.5862857 76.4891429,12.8 Z" fill="#A6A8AA"></path>
                    <path d="M41.6365714,20.3702857 C49.8651429,20.352 58.112,20.352 66.3405714,20.3702857 C64.8228571,21.7417143 63.2137143,23.0217143 61.6594286,24.3565714 C56.0091429,24.3565714 50.3405714,24.3565714 44.6902857,24.3565714 C43.5748571,29.1474286 42.4594286,33.9382857 41.3257143,38.7108571 C41.2525714,39.1131429 41.088,39.5337143 41.1062857,39.936 C41.3622857,40.2834286 41.6914286,40.5942857 41.984,40.9051429 C49.6091429,49.0788571 57.216,57.2342857 64.8411429,65.408 C65.7188571,66.3405714 66.3405714,67.4742857 66.5782857,68.736 C66.8708571,70.1988571 66.7245714,71.6434286 66.3588571,73.088 C64.6217143,80.4388571 62.9028571,87.7714286 61.184,95.0857143 C60.6354286,97.3897143 59.6114286,99.5108571 57.7645714,101.046857 C55.6982857,102.765714 52.9737143,103.369143 50.3405714,103.387429 C39.9177143,103.387429 29.4948571,103.387429 19.072,103.387429 C17.4262857,103.369143 15.6342857,103.149714 14.1897143,102.326857 C15.4331429,101.485714 16.6217143,100.571429 17.8468571,99.6937143 C18.2125714,99.3828571 18.7977143,99.5108571 19.2548571,99.4925714 C28.0868571,99.5108571 36.9371429,99.4925714 45.7691429,99.4925714 C48.1828571,99.3828571 50.9988571,99.4742857 53.2662857,98.56 C55.1862857,97.8102857 56.7405714,96.0548571 57.4537143,94.1531429 C59.008,87.6251429 60.544,80.9874286 62.08,74.4594286 C62.3725714,73.2525714 62.464,72.0274286 62.336,70.784 C62.1531429,69.3028571 61.4765714,67.9497143 60.4342857,66.8891429 C52.5348571,58.4228571 44.6354286,49.9382857 36.736,41.472 C38.272,34.7062857 39.9177143,27.9771429 41.4354286,21.2114286 C41.4902857,20.9371429 41.5451429,20.6628571 41.6365714,20.3702857 Z" fill="#A6A8AA"></path>
                    <path d="M49.5908571,30.5188571 C50.9988571,30.5188571 52.4068571,30.5188571 53.8148571,30.5188571 C52.9737143,34.2674286 52.0594286,37.9977143 51.1817143,41.7462857 C50.0114286,40.5942857 48.9325714,39.3508571 47.7805714,38.1622857 C48.128,36.48 48.5485714,34.816 48.9325714,33.152 C49.1702857,32.256 49.3165714,31.36 49.5908571,30.5188571 Z" fill="#221F1F"></path>
                    <path d="M106.112,30.7565714 C112.091429,30.7565714 118.070857,30.7565714 124.032,30.7565714 C123.026286,35.1634286 122.020571,39.5702857 120.978286,43.9771429 C115.017143,43.9588571 109.056,43.9771429 103.076571,43.9771429 C104.100571,39.5702857 105.106286,35.1634286 106.112,30.7565714 Z" fill="#221F1F"></path>
                    <path d="M56.6491429,47.5977143 C62.2445714,47.5794286 67.84,47.5977143 73.4354286,47.5977143 C72.3565714,52.4251429 71.1862857,57.216 70.0708571,62.0251429 C65.6091429,57.216 61.0925714,52.4251429 56.6491429,47.5977143 Z" fill="#221F1F"></path>
                    <path d="M117.504,50.1577143 C116.516571,54.4914286 115.602286,58.8617143 114.578286,63.1954286 C107.154286,63.1588571 99.7302857,63.1954286 92.3062857,63.1771429 C89.1428571,76.5988571 85.9977143,90.0205714 82.8342857,103.424 C77.44,103.424 72.0457143,103.424 66.6514286,103.424 C66.6697143,103.369143 66.688,103.314286 66.7062857,103.259429 C67.0902857,103.186286 67.3462857,102.930286 67.6571429,102.710857 C68.864,101.833143 70.0891429,100.992 71.2777143,100.114286 C71.7165714,99.7485714 72.3017143,99.8948571 72.832,99.8582857 C75.1177143,99.8582857 77.4217143,99.8948571 79.7257143,99.84 C82.4502857,88.1188571 85.248,76.3977143 87.9908571,64.6948571 C88.3748571,62.9942857 88.704,61.2571429 89.088,59.5565714 C96.5302857,59.5565714 103.972571,59.5565714 111.414857,59.5565714 C111.835429,57.8194286 112.182857,56.064 112.585143,54.3268571 C112.64,53.9611429 113.078857,53.7051429 113.334857,53.4674286 C114.724571,52.3885714 116.077714,51.2 117.504,50.1577143 Z" fill="#A6A8AA"></path>
                    <path d="M39.7165714,71.8628571 C40.9782857,73.088 42.112,74.4411429 43.3554286,75.7028571 C42.6605714,78.7748571 41.9108571,81.8285714 41.1977143,84.9005714 C39.7348571,84.9188571 38.272,84.9005714 36.8091429,84.9005714 C37.7234286,80.7497143 38.6742857,76.5988571 39.5885714,72.448 C39.6251429,72.2468571 39.6617143,72.064 39.7165714,71.8628571 Z" fill="#221F1F"></path>
                    <path d="M33.2251429,72.6491429 C31.872,78.7748571 30.4457143,84.9005714 29.1108571,91.0445714 C27.52,92.16 25.9291429,93.312 24.32,94.3908571 C24.5211429,93.5862857 24.7405714,92.7817143 24.9234286,91.9588571 C26.0571429,86.8388571 27.2274286,81.7188571 28.3611429,76.5988571 C28.4342857,76.1234286 28.7817143,75.9588571 29.1291429,75.6845714 C30.5005714,74.6971429 31.8354286,73.6365714 33.2251429,72.6491429 Z" fill="#A6A8AA"></path>
                    <path d="M176.237714,101.613714 C177.353143,101.613714 178.486857,101.613714 179.602286,101.613714 C179.602286,101.924571 179.602286,102.235429 179.602286,102.546286 C179.236571,102.546286 178.870857,102.546286 178.505143,102.546286 C178.505143,104.411429 178.505143,106.294857 178.505143,108.178286 C178.139429,108.178286 177.773714,108.178286 177.408,108.178286 C177.353143,106.294857 177.408,104.411429 177.389714,102.546286 C177.005714,102.546286 176.64,102.546286 176.256,102.546286 C176.256,102.235429 176.256,101.924571 176.237714,101.613714 Z" fill="#221F1F"></path>
                    <path d="M179.931429,101.613714 C180.315429,101.613714 180.699429,101.613714 181.083429,101.613714 C181.412571,102.692571 181.723429,103.771429 182.016,104.850286 C182.381714,103.789714 182.656,102.692571 182.985143,101.613714 C183.369143,101.613714 183.753143,101.613714 184.137143,101.613714 C184.118857,103.808 184.137143,105.984 184.137143,108.178286 C183.753143,108.178286 183.369143,108.178286 182.966857,108.178286 C182.966857,107.264 183.003429,106.349714 182.948571,105.435429 C182.729143,106.148571 182.582857,106.88 182.363429,107.611429 C182.144,107.611429 181.924571,107.611429 181.686857,107.611429 C181.485714,106.88 181.321143,106.130286 181.138286,105.398857 C181.065143,106.331429 181.12,107.264 181.083429,108.196571 C180.699429,108.196571 180.297143,108.196571 179.913143,108.196571 C179.931429,105.984 179.913143,103.789714 179.931429,101.613714 Z" fill="#221F1F"></path>
                </g>
            </g>
        </g>
    </g>
</svg>