<?xml version="1.0" encoding="UTF-8"?>
<svg width="200px" height="200px" viewBox="0 0 200 200" version="1.1" xmlns="http://www.w3.org/2000/svg" xmlns:xlink="http://www.w3.org/1999/xlink">
    <!-- Generator: Sketch 54.1 (76490) - https://sketchapp.com -->
    <title>sacred-heart</title>
    <desc>Created with Sketch.</desc>
    <g id="sacred-heart" stroke="none" stroke-width="1" fill="none" fill-rule="evenodd">
        <g id="sacred-heart_BGL">
            <g id="sacred-heart" transform="translate(0.000000, 60.000000)">
                <g id="g10" transform="translate(99.965879, 39.859435) scale(-1, 1) rotate(-180.000000) translate(-99.965879, -39.859435) translate(0.000000, 0.077791)" fill-rule="nonzero">
                    <g id="g12" transform="translate(0.000000, 0.122825)">
                        <polyline id="path14" fill="#B2B1B1" points="199.878535 79.3019427 188.060043 79.3019427 188.064137 79.3132699 74.3993158 79.3132699 72.6601142 74.2622977 67.5110184 79.3132699 40.1175016 79.3132699 19.1358576 66.8319328 9.59309427 39.1196169 13.4039164 35.8934143 7.87695647 35.8934143 0 13.0176865 13.9553732 0.0135406001 42.1420665 0.0135406001 48.3095177 3.54103028 47.0947788 0.0135406001 109.762809 0.0135406001 111.520025 5.11728408 118.167858 0.0135406001 142.674851 0.0135406001 164.952572 12.1933671 185.044008 70.5443858 196.928006 70.5443858 199.878535 79.3019427"></polyline>
                        <path d="M194.512448,72.7196161 L195.260316,75.3735907 C195.364035,75.7218678 195.511425,76.1527105 195.660179,76.6340479 L195.611049,76.6340479 C195.358576,76.2356856 195.043325,75.7050817 194.767651,75.2903427 L193.091773,72.7862145 L192.163762,72.7862145 L192.236092,75.3570776 C192.27294,75.7050817 192.32207,76.2356856 192.360282,76.6340479 L192.311152,76.6340479 C192.167856,76.2191724 192.002725,75.7879203 191.843052,75.3735907 L190.763557,72.7196161 L189.901053,72.7196161 L191.787099,77.2308408 L193.129985,77.2308408 L193.150456,75.0250408 C193.12862,74.6770367 193.098596,74.3449998 193.054925,73.8807215 L193.071302,73.8807215 C193.329234,74.295051 193.561237,74.6770367 193.774134,75.0086641 L195.318999,77.2308408 L196.612755,77.2308408 L195.407706,72.7196161 L194.512448,72.7196161 Z M191.18935,77.2308408 L190.931418,76.4848838 L189.488907,76.4848838 L188.193786,72.7196161 L187.298528,72.7196161 L188.593649,76.4848838 L187.149774,76.4848838 L187.407706,77.2308408 L191.18935,77.2308408 L191.18935,77.2308408 Z" id="path16" fill="#444142"></path>
                        <polyline id="path18" fill="#444142" points="134.471099 77.4612058 75.7211854 77.4612058 73.4571118 70.8861122 66.7541437 77.4612058 40.6268158 77.4612058 20.6659838 65.5873064 11.7566561 39.7144992 18.4574543 34.0410773 9.19795269 34.0410773 2.14314563 13.5521116 14.6841347 1.8655612 41.6498113 1.8655612 51.6629124 7.59249384 49.6910257 1.8655612 108.441621 1.8655612 110.606753 8.1530943 118.796449 1.8655612 142.201293 1.8655612 163.435001 13.4741723 185.467071 77.4612058 134.471099 77.4612058"></polyline>
                        <path d="M56.3762524,48.1252803 L68.4599096,48.1252803 L65.6795616,40.0515855 L56.3762524,48.1252803 Z M130.65479,74.6231302 L127.85479,74.6231302 L77.5837579,74.6231302 L74.3666989,65.2810629 L64.8473542,74.6231302 L40.5946083,74.6231302 L23.0148067,64.1659486 L15.1241211,41.2470819 L26.9909239,31.2004086 L11.0590512,31.2004086 L5.48878867,15.0224493 L16.5630839,4.70365051 L41.7191392,4.70365051 L56.3995892,13.1009072 L53.5081529,4.70365051 L106.579185,4.70365051 L109.504057,13.1985121 L120.569086,4.70365051 L142.310471,4.70365051 L161.117703,14.9846465 L181.652674,74.6231302 L130.65479,74.6231302 L130.65479,74.6231302 Z" id="path20" fill="#FFFFFF"></path>
                        <polyline id="path22" fill="#CE0F3E" points="68.1248704 50.9226872 47.1705208 50.9226872 50.1662219 59.6249729 45.8079825 59.6249729 41.3599444 46.7067883 54.0095517 45.8093472 64.453359 36.7477302 57.4711688 16.4730122 41.7884671 7.5021356 18.4118726 7.5021356 8.78464666 16.4730122 12.8934831 28.4051852 35.058341 28.4051852 32.0615482 19.7026266 36.420197 19.7026266 40.9916059 32.9809613 29.0384162 33.7876484 18.4401224 42.7574196 25.3292385 62.7647886 40.5600809 71.8253138 62.9677228 71.8253138 72.2021135 62.7647886 68.1248704 50.9226872"></polyline>
                        <polyline id="path24" fill="#CE0F3E" points="138.38553 19.7026266 133.904739 19.7026266 151.852606 71.8253138 129.68693 71.8253138 110.628315 16.4730122 122.314975 7.5021356 142.422378 7.5021356 158.833159 16.4730122 177.892865 71.8253138 156.332988 71.8253138 138.38553 19.7026266"></polyline>
                        <polyline id="path26" fill="#CE0F3E" points="104.74691 7.5021356 83.1859413 7.5021356 92.2985989 33.9656082 87.9373571 33.9656082 78.8257913 7.5021356 57.2683711 7.5021356 79.4165794 71.8253138 100.97359 71.8253138 92.1391993 46.1678596 96.5004411 46.1678596 105.334832 71.8253138 126.895118 71.8253138 104.74691 7.5021356"></polyline>
                        <polyline id="path28" fill="#FFFFFF" points="50.4768326 53.3817796 52.4357544 53.3817796 54.7571464 60.1233694 52.7971328 60.1233694 50.4768326 53.3817796"></polyline>
                        <polyline id="path30" fill="#FFFFFF" points="15.789423 23.9879898 31.0800402 23.9879898 31.7546222 25.9470481 14.5050832 25.9470481 11.6818011 17.7476625 13.1644487 16.3661545 15.789423 23.9879898"></polyline>
                        <polyline id="path32" fill="#FFFFFF" points="52.359057 43.4004766 40.0256558 44.2767645 39.3977472 42.4526772 54.7690194 41.3099956 52.359057 43.4004766"></polyline>
                        <polyline id="path34" fill="#FFFFFF" points="39.3180475 15.2854312 45.5288968 33.3224147 43.6140555 33.4516539 38.0337077 17.244353 30.71757 17.244353 30.042988 15.2854312 39.3180475 15.2854312"></polyline>
                        <polyline id="path36" fill="#FFFFFF" points="28.6485151 59.5743417 41.8180815 67.4079819 63.3128609 67.4079819 61.3157269 69.3670402 40.5333323 69.3670402 27.3637659 61.5332636 21.3563966 44.0870682 22.8728756 42.8030013 28.6485151 59.5743417"></polyline>
                        <polyline id="path38" fill="#FFFFFF" points="132.55926 17.244353 131.884678 15.2854312 141.28147 15.2854312 159.228928 67.4079819 173.913336 67.4079819 174.587508 69.3670402 157.944725 69.3670402 139.997267 17.244353 132.55926 17.244353"></polyline>
                        <polyline id="path40" fill="#FFFFFF" points="132.584507 67.4079819 147.871712 67.4079819 148.54725 69.3670402 131.30044 69.3670402 113.563969 17.8561579 115.113201 16.6666662 132.584507 67.4079819"></polyline>
                        <polyline id="path42" fill="#FFFFFF" points="96.8877492 34.4648234 94.928418 34.4648234 86.4911613 9.96012258 88.4500831 9.96012258 96.8877492 34.4648234"></polyline>
                        <polyline id="path44" fill="#FFFFFF" points="90.7952212 43.7099955 90.1206392 41.7510737 99.3967904 41.7510737 108.231181 67.4079819 122.915316 67.4079819 123.589898 69.3670402 106.946432 69.3670402 98.1121777 43.7099955 90.7952212 43.7099955"></polyline>
                        <polyline id="path46" fill="#FFFFFF" points="82.3129287 67.4079819 96.9948799 67.4079819 97.6694619 69.3670402 81.028316 69.3670402 60.5722264 9.96012258 62.5318306 9.96012258 82.3129287 67.4079819"></polyline>
                    </g>
                </g>
            </g>
        </g>
    </g>
</svg>