<?xml version="1.0" encoding="UTF-8"?>
<svg width="200px" height="200px" viewBox="0 0 200 200" version="1.1" xmlns="http://www.w3.org/2000/svg" xmlns:xlink="http://www.w3.org/1999/xlink">
    <title>siu-edwardsville_BGD</title>
    <defs>
        <polygon id="path-1" points="0 0 200 0 200 71.895588 0 71.895588"></polygon>
    </defs>
    <g id="siu-edwardsville_BGD" stroke="none" stroke-width="1" fill="none" fill-rule="evenodd">
        <g id="siu-edwardsville" transform="translate(0.000000, 64.000000)">
            <g id="Group-3">
                <mask id="mask-2" fill="white">
                    <use xlink:href="#path-1"></use>
                </mask>
                <g id="Clip-2"></g>
                <path d="M200,0.0019975505 L-0.0149816288,0 L13.564117,20.1358085 C13.1249056,21.4948919 12.7953098,22.8879337 12.5803234,24.2972056 C12.1258806,27.284792 12.205533,30.2881092 12.8172828,33.2247581 C13.2090524,35.1044532 13.8045721,36.8792768 14.6018445,38.5394909 L4.28025134,41.4908718 L6.21662686,50.6399028 C6.9255076,53.9902944 7.79743839,56.5866107 8.87162117,58.5571942 C11.3138764,63.1008726 15.1179616,66.6163117 20.1413017,68.9874042 C24.1810979,70.9522448 29.12129,71.907823 35.2435326,71.907823 C39.6076811,71.907823 43.6534699,71.4463889 47.3087377,70.5262672 C50.3674869,69.7197561 53.4457122,68.2942542 56.4720012,66.2812227 L55.6550031,71.9108194 L90.6800536,71.9108194 L91.9899473,62.8831396 C93.7650206,65.0260119 95.9518391,66.8447816 98.5326743,68.3074879 C102.812177,70.730267 108.350136,71.907823 115.463663,71.907823 C120.031312,71.907823 123.806183,71.4955785 127.001265,70.6488668 C130.783377,69.6500916 134.199688,68.031826 137.21549,65.821037 L136.332073,71.907823 L192.425039,71.907823 L197.144002,39.3896984 L194.284259,39.3896984 L200,0.0019975505" id="Fill-1" fill="#FFFFFE" mask="url(#mask-2)"></path>
            </g>
            <path d="M195.823122,3.61631549 L6.78193365,3.61431794 L17.5896807,19.6406656 C16.9070178,21.315362 16.4256081,23.056477 16.1536915,24.840789 C15.7641692,27.4008996 15.8320859,29.973495 16.3559435,32.4874123 C16.9032724,35.1141912 17.9070415,37.4772935 19.3627564,39.5432601 C19.6426632,39.9310346 19.9425455,40.3103195 20.2629026,40.680116 L8.51405963,44.0394966 L9.75254095,49.8918202 C10.3880117,52.8941386 11.144584,55.1750915 12.055467,56.8462922 C14.1236808,60.6943236 17.3754434,63.6849064 21.7218636,65.7371398 C25.2580273,67.4570308 29.6811035,68.2932554 35.2435326,68.2932554 C39.3100461,68.2932554 43.0459649,67.8722716 46.3873675,67.0315526 C49.0745723,66.3231712 51.7982324,65.0554757 54.4966735,63.2546839 C57.3541694,61.3297943 59.7012913,59.1045231 61.5300488,56.5933524 L59.8318812,68.2962517 L87.5521392,68.2962517 L90.2708054,49.5622243 C91.1507264,56.5546499 94.5907581,61.9185724 100.313491,65.162095 C104.035177,67.2692611 108.990351,68.2932554 115.463663,68.2932554 C119.7147,68.2932554 123.187941,67.9202128 126.078896,67.1539025 C131.339695,65.7651055 135.798227,63.022219 139.325402,59.0088903 C140.532422,57.6420664 141.585381,56.1846036 142.488024,54.6557284 L140.508701,68.2932554 L189.297374,68.2932554 L192.967124,43.0040163 L190.107631,43.0040163 L195.823122,3.61631549" id="Fill-4" fill="#DB372F"></path>
            <path d="M44.0479862,26.0785212 C42.9748021,25.8318237 41.9243403,25.4777579 40.9612712,25.0427913 C40.7402922,24.9389187 40.615695,24.8525246 40.5517734,24.8005883 C40.5525225,24.7945956 40.5535212,24.7883533 40.55452,24.7816115 C40.5809876,24.6073253 40.6364196,24.2455189 41.4326932,23.7960701 C42.0808983,23.4305183 42.7598158,23.2527363 43.5078984,23.2527363 C44.4642257,23.2527363 45.1606218,23.5231547 45.7863545,24.1503856 C46.2255659,24.5813571 46.5359353,25.4258216 46.6840037,26.5928905 L46.6942412,26.6742907 L44.0479862,26.0785212 Z M40.3592595,46.3316858 C40.3158127,46.616087 40.2463979,46.7132179 39.9612475,46.8657808 C39.3699726,47.189384 38.6064089,47.3534329 37.6917805,47.3534329 C35.0962133,47.3534329 34.3491294,46.3808755 34.0921944,46.046036 C34.0544907,45.9978451 33.7376292,45.5611307 33.4000432,44.1650926 C38.0213763,45.1448911 39.3367633,45.5846019 39.6943248,45.7306728 C40.204699,45.9381683 40.3595092,46.1114558 40.3692472,46.1114558 L40.3694969,46.1114558 C40.3719938,46.1264375 40.3804834,46.1931057 40.3592595,46.3316858 Z M58.408127,31.5882649 C56.8395505,30.2102047 54.8147834,29.0823378 52.2746482,28.1771977 L66.1139278,22.9860633 L65.7279012,20.7073576 C65.4886945,19.2943403 65.2305111,18.2206569 64.9313779,17.4049072 C64.2135082,15.4917532 63.0139791,13.6842197 61.3502692,12.0167644 C58.0855226,8.79596395 52.8025009,7.23013405 45.1998237,7.23013405 L45.1835936,7.23013405 L45.1830942,7.22763711 L13.5785992,7.22838619 L21.2359594,18.5832123 L21.728855,19.300333 C20.7228386,21.2222262 20.0496641,23.2672186 19.7270597,25.3843724 C19.4024577,27.5175067 19.4583892,29.6591305 19.8941049,31.7500665 C20.340058,33.8906915 21.1418248,35.7931087 22.2949109,37.429602 C23.4352625,39.0116619 25.0392956,40.4304222 27.0615658,41.6466808 C27.3896634,41.8444383 27.7217562,42.032208 28.057095,42.2104894 L12.7478679,46.588371 L13.2887047,49.1432381 C13.8505158,51.7979827 14.4909804,53.762324 15.2393128,55.1353902 C16.9362319,58.2930182 19.6551479,60.7687323 23.2841978,62.4776368 C26.3187267,63.9585708 30.2306796,64.6789375 35.2435326,64.6789375 C39.0141589,64.6789375 42.4429543,64.2969059 45.4657476,63.5365883 C47.7669258,62.9295826 50.1225372,61.8281832 52.4773996,60.25686 C58.1059975,56.4652595 61.4451529,51.3580222 62.4022293,45.0769744 C62.7850099,42.5620583 62.6776415,40.1357835 62.0821218,37.865068 C61.396962,35.2570161 60.164723,33.1486015 58.408127,31.5882649 L58.408127,31.5882649 Z" id="Fill-5" fill="#1A1919"></path>
            <path d="M189.024708,25.2904875 L191.646493,7.23038374 L127.760084,7.22763711 L123.042869,38.8950549 C122.465327,42.7673066 121.853577,44.3331365 121.559438,44.886458 C121.037827,45.8332969 120.080002,46.9202141 117.274692,46.9202141 C114.869891,46.9202141 114.566263,46.1274362 114.444163,45.8083275 C114.359017,45.5900951 113.966499,44.2722112 114.644667,39.7205427 L119.484732,7.22763711 L62.3707678,7.22838619 L70.5142819,19.8489103 L64.0085096,64.6819338 L84.4244745,64.6819338 L92.0526205,12.1143947 L97.1656007,19.8331796 L94.2986163,39.0798284 C93.7962324,42.4531918 93.5952289,45.0654884 93.6846192,47.0632886 C93.9852506,53.9937901 96.8145312,59.0243714 102.094307,62.0169517 C105.258177,63.8082551 109.631065,64.6789375 115.463663,64.6789375 C119.398837,64.6789375 122.570198,64.3448471 125.156277,63.6596873 C129.710443,62.4569122 133.567463,60.0853204 136.615725,56.6165739 C138.50341,54.4789452 139.973607,52.1013607 140.984867,49.5492402 C141.96941,47.0652862 142.737968,43.9106546 143.334736,39.9053161 L147.240197,13.6844694 L151.196345,19.8149519 L144.685829,64.6789375 L186.16946,64.6789375 L188.790246,46.618584 L167.72258,46.618584 L168.033948,44.4724656 L186.242121,44.4724656 L188.752542,27.1709316 L170.544869,27.1709316 L170.817535,25.2904875 L189.024708,25.2904875" id="Fill-6" fill="#1A1919"></path>
            <path d="M59.3729439,38.5766953 C58.8283617,36.5034876 57.8905118,34.8752342 56.559394,33.6926843 C54.6102841,31.9807836 51.6254443,30.6661456 47.6026273,29.750019 L43.421005,28.8086734 C42.1617991,28.5192782 40.9460399,28.1097804 39.7712305,27.5784319 C38.2296209,26.8548193 37.5689311,25.781885 37.7854156,24.3588799 C37.9766811,23.1046679 38.732754,22.103146 40.0566306,21.3563118 C41.1253201,20.753551 42.2746607,20.4514214 43.5078984,20.4514214 C45.2048176,20.4514214 46.618584,21.0182264 47.7486982,22.1513369 C48.6585824,23.0444917 49.2303812,24.4068211 49.4628462,26.2403228 L62.9660379,21.1750341 C62.7577933,19.944543 62.5388118,19.0164311 62.3090935,18.3892002 C61.7298038,16.8455931 60.7547495,15.3858831 59.3829317,14.0108192 C56.6942287,11.3583219 51.9672751,10.0314489 45.1998237,10.0314489 C45.1920832,10.0314489 45.1848421,10.0316986 45.1773513,10.0316986 L45.1828445,10.028952 L18.8461399,10.028952 L23.5443787,16.9966578 L25.0425416,19.1757358 C24.8515258,19.4708738 24.6685003,19.7682592 24.4977097,20.0691402 L24.3391541,20.358036 C23.4038011,22.078676 22.7875568,23.89395 22.4961641,25.8061053 C22.2210015,27.6146376 22.2669452,29.4054416 22.636492,31.178767 C23.0057892,32.9513434 23.6497495,34.4889579 24.567624,35.7918602 C25.4887444,37.0700429 26.8008854,38.2216307 28.5057948,39.2463741 C30.209955,40.2721163 31.9955155,40.989986 33.8632252,41.3994839 C37.51275,42.1717868 39.8081852,42.7505771 40.7495309,43.1361044 C42.5890252,43.8844367 43.3815534,45.0904578 43.1286135,46.753918 C42.9518303,47.9119979 42.344575,48.768198 41.3063481,49.3230176 C40.2918421,49.8783367 39.0870695,50.1547477 37.6917805,50.1547477 C35.0407812,50.1547477 33.1044057,49.3589736 31.8819048,47.7674252 C31.3567987,47.0925028 30.9225812,45.9701291 30.5807504,44.4023017 L16.0288446,48.5631994 C16.529231,50.9273004 17.0887949,52.6756565 17.7065374,53.8095161 C19.1198043,56.4385422 21.388772,58.4890278 24.512941,59.9602238 C27.13148,61.2384064 30.7088433,61.8778723 35.2435326,61.8778723 C38.8014198,61.8778723 41.9705336,61.5278015 44.7513736,60.8281595 C46.7621579,60.2975601 48.8158895,59.3329929 50.9125685,57.9337088 C55.8882171,54.5815694 58.7951524,50.1547477 59.6328752,44.6554912 C59.9597244,42.5086238 59.8725812,40.4831076 59.3729439,38.5766953" id="Fill-7" fill="#FFFFFE"></path>
            <polyline id="Fill-8" fill="#FFFFFE" points="67.5117138 10.0294514 73.4359492 19.2104432 73.4374473 19.2094444 67.2457899 61.8806189 82.0006966 61.8806189 89.5247203 10.028952 67.5117138 10.0294514"></polyline>
            <path d="M130.174623,10.028952 L125.813222,39.3077988 C125.323572,42.5935197 124.723308,44.9034372 124.013179,46.2378009 C122.734747,48.5599534 120.488751,49.721529 117.274692,49.721529 C114.386733,49.721529 112.573956,48.7577109 111.836111,46.830574 C111.313002,45.4962103 111.325737,42.9890347 111.873815,39.3077988 L116.235466,10.028952 L94.0314439,10.028952 L100.091513,19.1784824 L100.095508,19.1759854 L97.0692189,39.4925722 C96.5980466,42.6551941 96.4025364,45.1381493 96.4829378,46.9414381 C96.7406218,52.8719158 99.0715136,57.0842504 103.474115,59.5796904 C106.180546,61.1113123 110.177145,61.8778723 115.463912,61.8778723 C119.120678,61.8778723 122.113009,61.5685016 124.440904,60.9510088 C128.46497,59.8888113 131.824101,57.8263405 134.51605,54.762098 C136.196988,52.8594311 137.485159,50.7772344 138.38106,48.5172557 C139.276962,46.2560285 140.00432,43.2484666 140.563884,39.4925722 L144.952752,10.028952 L130.174623,10.028952" id="Fill-9" fill="#FFFFFE"></path>
            <polyline id="Fill-10" fill="#FFFFFE" points="186.60118 22.4894223 188.409463 10.0314489 148.215501 10.0294514 154.119261 19.1784824 147.92286 61.8778723 183.745432 61.8778723 185.553465 49.4198988 164.48555 49.4198988 165.609921 41.6711508 183.817843 41.6711508 185.515512 29.9722465 167.307589 29.9722465 168.393258 22.4894223 186.60118 22.4894223"></polyline>
        </g>
    </g>
</svg>