<?xml version="1.0" encoding="UTF-8"?>
<svg width="200px" height="200px" viewBox="0 0 200 200" version="1.1" xmlns="http://www.w3.org/2000/svg" xmlns:xlink="http://www.w3.org/1999/xlink">
    <title>san-jose-st_BGL</title>
    <defs>
        <polygon id="path-1" points="0 0 186.998489 0 186.998489 200 0 200"></polygon>
    </defs>
    <g id="san-jose-st_BGL" stroke="none" stroke-width="1" fill="none" fill-rule="evenodd">
        <g id="san-jose-st" transform="translate(7.000000, 0.000000)">
            <g id="Group-3">
                <mask id="mask-2" fill="white">
                    <use xlink:href="#path-1"></use>
                </mask>
                <g id="Clip-2"></g>
                <path d="M152.329468,26.1289675 C139.640293,15.1575728 125.033309,7.63840809 109.739097,3.61826354 C109.350447,3.50450517 108.969108,3.39045437 108.5711,3.27698844 L103.167431,2.06746507 C98.8288216,1.13488043 89.690428,-0.365033834 77.2100535,0.0809340455 L71.9660561,0.391503153 C68.3930491,0.711722712 58.7502001,1.93089654 46.3748107,6.33676675 L41.6212318,8.37827611 C38.0052365,9.88140719 30.4644314,13.473715 20.5604352,20.6659341 L16.7385636,23.8409329 C14.3224412,25.8306808 8.12685074,31.2013038 2.79015052,38.0765201 L-0.0175462772,41.6933927 L36.7851853,65.0866744 L40.2002758,68.1324157 L45.8109903,73.379045 C41.5864317,77.6135466 38.6152621,81.5442051 36.7372255,85.3792364 C36.2579197,86.3273203 24.897875,108.926633 15.9647728,137.45454 L13.3857625,145.689885 L31.1738859,138.838941 L15.697192,200.017546 L23.3871405,196.807747 C23.6982945,196.67732 54.7736288,183.719979 75.6689054,177.284297 L90.7192247,173.008269 L90.8312285,172.976394 L90.9148657,172.895096 C94.1606346,169.747294 96.3881345,165.467464 97.5467736,160.157376 L103.652293,172.876672 L104.034217,172.747122 C105.88067,172.122767 107.809884,171.785879 109.768925,171.7464 C130.815685,171.315638 154.910525,180.212478 155.152079,180.302842 L167.949749,185.060222 L137.620424,142.970797 L161.938979,169.245763 L164.940855,165.558705 C165.162815,165.285568 170.437811,158.745193 175.704034,147.968269 L177.735893,143.550994 C177.96955,143.023144 178.232452,142.407269 178.514362,141.720917 C195.807681,101.079938 186.461656,55.6412209 152.329468,26.1289675" id="Fill-1" fill="#FFFFFE" mask="url(#mask-2)"></path>
            </g>
            <path d="M100.205327,63.1598007 L100.185441,63.1864125 C100.30768,63.2203353 100.428165,63.2425606 100.553621,63.2764834 C100.430504,63.2410984 100.324057,63.1972327 100.205327,63.1598007" id="Fill-4" fill="#1B69A3"></path>
            <path d="M165.151995,115.933154 L147.565654,107.343374 C147.763049,112.073558 147.38171,115.89426 146.410231,120.704864 L165.151995,115.933154" id="Fill-5" fill="#F2B12F"></path>
            <path d="M162.726807,91.1127749 L144.374571,87.7930193 C145.901389,92.370843 146.92346,97.1717969 147.405398,102.11897 L162.726807,91.1127749" id="Fill-6" fill="#F2B12F"></path>
            <path d="M155.176936,69.1223181 L134.945201,71.2702749 C137.927484,75.2872026 140.440111,79.6342928 142.416991,84.2422377 L155.176936,69.1223181" id="Fill-7" fill="#F2B12F"></path>
            <path d="M133.008677,68.8003439 L140.884616,50.6469655 L122.203387,58.4538891 C126.23289,61.4891027 129.85064,64.9670672 133.008677,68.8003439" id="Fill-8" fill="#F2B12F"></path>
            <path d="M107.291391,50.1290579 C112.025962,51.9889633 116.436803,54.3720402 120.473617,57.2060564 L123.048241,37.645759 L107.291391,50.1290579" id="Fill-9" fill="#F2B12F"></path>
            <path d="M97.3215964,47.1160697 C99.6830329,47.6319302 101.976039,48.2624264 104.218746,49.0090205 L101.092876,29.6978803 L89.787225,45.9588927 C92.287277,46.1998616 94.8031208,46.5738897 97.3215964,47.1160697" id="Fill-10" fill="#F2B12F"></path>
            <path d="M71.7631041,46.8575545 C76.4546862,45.9428086 81.2790351,45.5488947 86.1911155,45.7302062 L77.7718268,28.4120306 L71.7631041,46.8575545" id="Fill-11" fill="#F2B12F"></path>
            <path d="M52.3738829,54.071414 L35.4209623,43.6884044 L40.408784,62.8515711 C43.946406,59.5970291 48.2113211,56.4533211 52.3738829,54.071414" id="Fill-12" fill="#F2B12F"></path>
            <path d="M55.2409446,52.5317281 C59.4751537,50.3872806 63.9488696,48.7127809 68.5974633,47.5582359 L55.917646,33.4141818 L55.2409446,52.5317281" id="Fill-13" fill="#F2B12F"></path>
            <path d="M141.018553,136.431885 C143.27208,132.60124 144.346497,130.329289 145.668024,125.954125 L159.336866,138.725476 L141.018553,136.431885" id="Fill-14" fill="#F2B12F"></path>
            <path d="M44.9430345,11.5538599 C44.9430345,11.5538599 36.1374353,14.49871 23.0324132,24.0140562 L47.7709095,42.2592601 L44.9430345,11.5538599" id="Fill-15" fill="#233A82"></path>
            <path d="M73.9511249,4.4239301 C73.9511249,4.4239301 63.0803288,4.80731626 47.7989836,10.2469546 L67.9728158,34.6625994 L73.9511249,4.4239301" id="Fill-16" fill="#233A82"></path>
            <path d="M104.083932,6.55989691 C104.083932,6.55989691 93.5862864,3.66212923 77.3679699,4.23998663 L89.1962079,33.5747302 L104.083932,6.55989691" id="Fill-17" fill="#233A82"></path>
            <path d="M131.985729,17.3040673 C131.985729,17.3040673 122.836223,11.4225552 107.161841,7.16553592 L109.712777,38.6590565 L131.985729,17.3040673" id="Fill-18" fill="#233A82"></path>
            <path d="M134.736108,18.9276829 L127.802697,49.7389457 L155.444809,35.9361667 C155.444809,35.9361667 148.445892,27.6186464 134.736108,18.9276829" id="Fill-19" fill="#233A82"></path>
            <path d="M171.60844,60.0897871 C171.60844,60.0897871 167.374816,50.0960124 156.830381,37.7764787 L141.098973,65.1711889 L171.60844,60.0897871" id="Fill-20" fill="#233A82"></path>
            <path d="M180.385088,87.7471065 C180.385088,87.7471065 179.331726,76.9497124 172.939618,62.0722239 L149.71712,83.5465278 L180.385088,87.7471065" id="Fill-21" fill="#233A82"></path>
            <path d="M180.977275,116.454571 C180.977275,116.454571 182.81554,106.112502 180.754437,90.5697177 L153.42845,104.552931 L180.977275,116.454571" id="Fill-22" fill="#233A82"></path>
            <path d="M150.258422,124.393676 L172.865338,144.08908 C172.865338,144.08908 177.783267,134.802128 180.570494,119.382167 L150.258422,124.393676" id="Fill-23" fill="#233A82"></path>
            <path d="M20.6543078,26.0374344 C20.6543078,26.0374344 12.6733836,32.1350582 6.082417,40.6257017 L32.3652781,57.3323896 L20.6543078,26.0374344" id="Fill-24" fill="#233A82"></path>
            <path d="M100.553328,63.2767759 C100.772072,63.3460837 100.974146,63.4232873 101.191428,63.4911329 L101.236756,63.4472672 C101.001636,63.3785443 100.783477,63.3387727 100.553328,63.2767759" id="Fill-25" fill="#1B69A3"></path>
            <path d="M113.528215,159.517229 C113.559506,159.526295 113.589335,159.532144 113.619748,159.534775 C120.890048,159.73919 128.880916,160.535498 137.227387,162.367037 L111.484659,127.301094 C114.16807,128.490732 118.497321,130.947211 122.075299,133.055396 C124.564531,127.771335 124.883289,118.270026 124.760172,113.890767 C121.367892,75.1637938 86.3964069,72.9438973 86.3964069,72.9438973 C51.6188081,70.1256728 42.4953288,104.420749 42.4953288,104.420749 C45.1047527,101.842616 80.3634119,103.434941 80.3634119,103.434941 C74.7035677,126.234281 47.9159587,126.691946 47.9159587,126.691946 L34.9282043,178.228579 L77.5481117,163.590597 C77.5495739,163.585626 77.5495739,163.583871 77.553668,163.579777 C87.4600037,159.913775 93.4336338,141.711559 93.4336338,141.710975 L93.4336338,141.710682 L105.752875,167.758131 L97.6950397,150.720696 C97.6950397,150.720696 102.425808,157.988656 113.528215,159.517229" id="Fill-26" fill="#F2B12F"></path>
            <path d="M105.752875,167.758131 C128.562158,166.014908 156.601109,176.387682 156.601109,176.387682 L129.328346,138.376889 C133.346151,125.609341 132.65278,114.682104 132.65278,114.682104 C131.288557,93.5911866 120.025894,74.0984424 97.705275,67.056244 C97.705275,67.056244 82.0124695,61.6984882 68.9454644,66.4017678 C68.9454644,66.4017678 78.5862665,57.2993441 100.183102,63.1869974 L101.19172,63.49318 C123.796297,70.6087803 132.980603,87.5529277 136.70831,101.210073 C137.846478,105.652498 140.249149,116.214772 137.751436,135.38057 C137.751436,135.38057 143.637335,124.32817 143.211545,109.483142 L143.196631,109.467351 C142.798038,77.8512986 117.001501,51.5441652 84.6192615,50.9937969 C66.5495203,50.6867371 51.7697061,60.6158829 44.8362946,66.7559102 L51.8793703,73.3419054 C48.0422919,76.8505759 43.1492201,81.7398461 40.4666867,87.2318309 C40.4666867,87.2318309 29.005166,109.749553 19.9419289,138.692138 L28.9563289,135.221484 C28.9563289,135.221484 29.3019905,133.89557 30.0836772,131.687371 C36.3561789,113.706824 38.3716612,112.935372 38.3716612,112.935372 C41.0179323,109.750431 47.0962552,109.729668 47.0962552,109.729668 L68.6822703,109.191874 C68.6822703,109.191874 64.8250137,120.101857 40.1175158,120.470036 L21.7810712,192.952538 C21.7810712,192.952538 71.0586211,172.382452 87.9521768,169.910766 C87.970308,169.906672 87.9901937,169.900239 88.0065703,169.900239 L88.0413704,169.887664 C88.0331821,169.890296 88.0191451,169.890881 88.0115417,169.895267 C97.5037853,160.688443 93.4336338,141.710682 93.4336338,141.710682 C93.4336338,141.710682 87.4602962,159.913775 77.553668,163.579777 C77.5495739,163.583871 77.5495739,163.585626 77.5478193,163.590597 L34.9279119,178.228579 L47.9159587,126.691946 C47.9159587,126.691946 74.7035677,126.234281 80.3634119,103.434941 C80.3634119,103.434941 45.1047527,101.842616 42.4956213,104.420749 C42.4956213,104.420749 51.6188081,70.1256728 86.3964069,72.9438973 C86.3964069,72.9438973 121.367892,75.1637938 124.760172,113.890767 C124.883289,118.270026 124.564531,127.771335 122.075299,133.055396 C118.497029,130.947211 114.16807,128.490732 111.484659,127.301094 L137.227387,162.367037 C128.880916,160.535498 120.890048,159.73919 113.619748,159.534775 C113.589335,159.532144 113.559506,159.526295 113.528215,159.517229 C102.425808,157.988656 97.6950397,150.720696 97.6950397,150.720696 L105.752875,167.758131" id="Fill-27" fill="#233A82"></path>
            <path d="M171.952055,146.139947 C166.825325,156.630282 161.705321,162.91916 161.705321,162.91916 L140.432215,140.363128 L171.952055,146.139947" id="Fill-28" fill="#233A82"></path>
        </g>
    </g>
</svg>