<?xml version="1.0" encoding="UTF-8"?>
<svg width="200px" height="200px" viewBox="0 0 200 200" version="1.1" xmlns="http://www.w3.org/2000/svg" xmlns:xlink="http://www.w3.org/1999/xlink">
    <!-- Generator: Sketch 54.1 (76490) - https://sketchapp.com -->
    <title>saint-louis</title>
    <desc>Created with Sketch.</desc>
    <g id="saint-louis" stroke="none" stroke-width="1" fill="none" fill-rule="evenodd">
        <g id="saint-louis_BGL">
            <g id="saint-louis" transform="translate(0.000000, 3.000000)">
                <g id="g10" transform="translate(99.933197, 96.921847) scale(-1, 1) rotate(-180.000000) translate(-99.933197, -96.921847) translate(0.000000, 0.195062)" fill-rule="nonzero">
                    <g id="g12">
                        <path d="M184.079889,100.624981 C184.079889,100.624981 193.38383,116.226584 188.798392,136.098327 C183.73226,158.051833 181.134531,165.132127 184.908746,181.879755 C184.908746,181.879755 153.857845,177.244618 141.999996,144.762321 L137.760852,147.71703 C137.760852,147.71703 135.420972,159.616028 145.090711,171.28363 C145.090711,171.28363 136.285902,173.338139 129.128921,171.197591 C129.128921,171.197591 116.984099,199.161785 71.889377,192.390109 C71.889377,192.390109 78.4895104,182.359381 80.6880407,171.819635 C80.6880407,171.819635 69.9567117,178.854505 52.0726774,174.313155 C52.0726774,174.313155 63.5810271,161.944418 63.4802923,148.310217 L58.1258503,145.309549 L58.1261175,145.309014 L58.2995309,144.709148 L57.863726,144.762321 C46.0058773,177.244618 14.954709,181.879755 14.954709,181.879755 C18.7287103,165.132127 16.131222,158.051833 11.0652502,136.098327 C6.47962576,116.226584 15.7836469,100.624981 15.7836469,100.624981 C5.4186505,92.7112869 0,83.0899111 0,83.0899111 C41.018035,12.3882161 99.9318612,0 99.9318612,0 C99.9318612,0 158.84542,12.3882161 199.863455,83.0899111 C199.863455,83.0899111 194.444885,92.7112869 184.079889,100.624981" id="path14" fill="#FFFFFF"></path>
                        <path d="M99.9318612,9.2473478 C99.9318612,9.2473478 53.8193707,24.6605739 20.6525579,84.5047407 C20.6525579,84.5047407 28.6821636,105.377953 55.9497648,110.477486 C55.9497648,110.477486 41.2002662,111.102736 29.0065457,104.279757 C29.0065457,104.279757 23.320801,110.865729 23.3253969,121.028187 C23.3299927,131.414826 29.2021369,154.699261 29.2983293,160.50848 C29.2983293,160.50848 46.3385426,152.115694 50.865463,132.784499 C50.865463,132.784499 43.1836997,124.648227 41.3680684,120.540812 L42.4977945,127.823644 C42.4977945,127.823644 39.492317,133.655842 33.2494314,136.728119 C33.2494314,136.728119 28.9643279,121.393183 33.6288569,112.651166 C33.6288569,112.651166 39.2748153,115.107546 45.1380082,115.064526 C45.1380082,115.064526 53.9593841,130.18009 73.7306595,141.812421 L73.9072794,141.866396 C74.6928505,145.327184 76.4122893,154.986235 72.9547076,161.495253 C72.9547076,161.495253 85.0487621,159.051432 90.6017345,149.644619 C91.1198374,151.187972 95.846357,162.774879 92.8614539,177.244618 C123.116363,173.2855 126.133063,141.812421 126.133063,141.812421 C145.904071,130.18009 154.725714,115.064526 154.725714,115.064526 C160.58864,115.107546 166.234598,112.651166 166.234598,112.651166 C170.899127,121.393183 166.614291,136.728119 166.614291,136.728119 C160.371138,133.655842 157.365661,127.823644 157.365661,127.823644 L158.495387,120.540812 C156.679756,124.648227 148.997992,132.784499 148.997992,132.784499 C153.524913,152.115694 170.565126,160.50848 170.565126,160.50848 C170.661586,154.699261 176.533596,131.414826 176.537871,121.028187 C176.542681,110.865729 170.857177,104.279757 170.857177,104.279757 C158.663189,111.102736 143.91369,110.477486 143.91369,110.477486 C171.181292,105.377953 179.210951,84.5047407 179.210951,84.5047407 C146.043817,24.6605739 99.9318612,9.2473478 99.9318612,9.2473478 Z M177.382227,100.110084 C177.382227,100.110084 184.696856,107.641413 184.344418,122.910885 C183.991979,138.18009 176.595854,158.308613 177.99385,172.814157 C177.99385,172.814157 150.27174,163.365661 144.705407,136.553637 C144.705407,136.553637 139.269202,141.052769 132.878554,144.269068 C132.878554,144.269068 129.970337,157.421773 136.279756,167.195453 C136.279756,167.195453 130.49512,167.141479 126.766597,164.631926 C126.766597,164.631926 117.840211,188.318766 81.3886419,186.564591 C81.3886419,186.564591 86.2410132,180.110082 85.8201715,163.327184 C85.8201715,163.327184 79.0086821,169.336803 63.0396778,169.109415 C63.0396778,169.109415 70.1100851,158.516229 68.9720758,145.263857 C68.9720758,145.263857 60.0892437,140.946155 55.1583153,136.553637 C49.5919827,163.365661 21.8697924,172.814157 21.8697924,172.814157 C23.2676814,158.308613 15.8714224,138.18009 15.5190644,122.910885 C15.1666796,107.641413 22.4813087,100.110084 22.4813087,100.110084 C11.8985969,92.4905789 8.57736786,83.621374 8.57736786,83.621374 C47.5997316,18.1891779 99.9318612,4.19609876 99.9318612,4.19609876 C99.9318612,4.19609876 152.263724,18.1891779 191.286301,83.621374 C191.286301,83.621374 187.964992,92.4905789 177.382227,100.110084 L177.382227,100.110084 Z" id="path16" fill="#244995"></path>
                        <path d="M99.9318612,49.9858371 C92.7855688,51.1855699 82.3802251,57.4196378 82.3802251,57.4196378 C90.0782877,48.1210409 99.9318612,44.6100189 99.9318612,44.6100189 C99.9318612,44.6100189 109.785168,48.1210409 117.48323,57.4196378 C117.48323,57.4196378 107.077619,51.1855699 99.9318612,49.9858371" id="path18" fill="#244995"></path>
                        <path d="M63.3702055,115.454105 C63.3702055,115.454105 68.9349348,117.006009 76.4993969,113.874413 C84.984901,110.36152 91.1647272,114.428053 92.1613871,119.777953 C92.1613871,119.777953 87.4605189,117.609349 83.3047407,121.105675 C78.2586487,125.350431 72.8339327,127.709549 65.8965915,125.979957 C58.8980613,124.235401 55.5746145,117.181827 55.5746145,117.181827 C55.5746145,117.181827 61.7555095,121.794519 68.0363376,121.440745 C72.9474932,121.164192 79.9850347,117.050632 79.9850347,117.050632 C79.9850347,117.050632 69.8629241,121.530257 63.3702055,115.454105" id="path20" fill="#244995"></path>
                        <path d="M99.9318612,109.09472 C92.373812,106.082562 88.0307259,100.991848 88.0307259,100.991848 C80.8488958,100.658648 72.9354691,101.245689 72.9354691,101.245689 C77.0060101,103.047693 85.7645937,105.134533 85.7645937,105.134533 C91.476818,112.498594 99.9318612,115.169803 99.9318612,115.169803 C99.9318612,115.169803 108.386637,112.498594 114.098862,105.134533 C114.098862,105.134533 122.857445,103.047693 126.927719,101.245689 C126.927719,101.245689 119.014559,100.658648 111.832729,100.991848 C111.832729,100.991848 107.489643,106.082562 99.9318612,109.09472" id="path22" fill="#244995"></path>
                        <path d="M156.209482,98.8045399 C147.53373,102.427252 136.620972,101.324246 136.620972,101.324246 C136.620972,101.324246 146.601466,99.0800242 151.612822,96.3564438 C151.612822,96.3564438 136.943484,78.349497 99.9318612,67.9465581 C62.9202389,78.349497 48.2506334,96.3564438 48.2506334,96.3564438 C53.2619893,99.0800242 63.2424834,101.324246 63.2424834,101.324246 C63.2424834,101.324246 52.329992,102.427252 43.6539735,98.8045399 C39.1094179,90.5739456 39.0188367,79.6061436 39.0188367,79.6061436 C39.0188367,79.6061436 42.3353363,89.2833645 45.5877076,93.9690023 C45.5877076,93.9690023 62.4496978,70.5335988 99.9318612,58.9026037 C137.413757,70.5335988 154.275748,93.9690023 154.275748,93.9690023 C157.528119,89.2833645 160.844619,79.6061436 160.844619,79.6061436 C160.844619,79.6061436 160.754305,90.5739456 156.209482,98.8045399" id="path24" fill="#244995"></path>
                        <path d="M99.9318612,49.9858371 C92.7855688,51.1855699 82.3802251,57.4196378 82.3802251,57.4196378 C90.0782877,48.1210409 99.9318612,44.6100189 99.9318612,44.6100189 C99.9318612,44.6100189 109.785168,48.1210409 117.48323,57.4196378 C117.48323,57.4196378 107.077619,51.1855699 99.9318612,49.9858371" id="path26" fill="#244995"></path>
                        <path d="M125.698861,118.220972 C125.528654,116.683497 124.120772,115.874413 122.802402,116.094052 C121.393985,116.328387 120.986503,117.60828 120.986503,117.60828 C120.986503,117.60828 123.601333,118.937338 125.297525,119.674012 C125.297525,119.674012 125.797191,119.109149 125.698861,118.220972 L125.698861,118.220972 Z M131.827118,121.440745 C137.907278,122.000531 144.289108,117.181827 144.289108,117.181827 C144.289108,117.181827 140.965394,124.235401 133.966864,125.979957 C127.029523,127.709549 121.604539,125.350431 116.558982,121.105675 C112.402936,117.609349 107.702068,119.777953 107.702068,119.777953 C111.459182,112.22498 118.435802,116.362322 118.772743,116.521574 C120.181427,113.319436 122.740411,112.680291 122.740411,112.680291 C120.986503,111.519302 120.418701,110.368735 120.418701,110.368735 C128.887372,112.45985 138.583296,111.272409 138.583296,111.272409 C135.005741,113.874947 130.174212,114.125849 130.174212,114.125849 C133.457311,117.866397 131.827118,121.440745 131.827118,121.440745 L131.827118,121.440745 Z" id="path28" fill="#244995"></path>
                        <path d="M130.174212,114.125849 C130.174212,114.125849 135.005741,113.874947 138.583296,111.272409 C138.583296,111.272409 128.887372,112.45985 120.418701,110.368735 C120.418701,110.368735 120.986503,111.519302 122.740411,112.680291 C122.740411,112.680291 120.181427,113.319436 118.772743,116.521574 C118.435802,116.362322 111.459182,112.22498 107.702068,119.777953 C107.702068,119.777953 112.402936,117.609349 116.558982,121.105675 C121.604539,125.350431 127.029523,127.709549 133.966864,125.979957 C140.965394,124.235401 144.289108,117.181827 144.289108,117.181827 C144.289108,117.181827 137.907278,122.000531 131.827118,121.440745 C131.827118,121.440745 133.457311,117.866397 130.174212,114.125849 L130.174212,114.125849 Z M143.91369,110.477486 C143.91369,110.477486 158.663189,111.102736 170.857177,104.279757 C170.857177,104.279757 176.542681,110.865729 176.537871,121.028187 C176.533596,131.414826 170.661586,154.699261 170.565126,160.50848 C170.565126,160.50848 153.524913,152.115694 148.997992,132.784499 C148.997992,132.784499 156.679756,124.648227 158.495387,120.540812 L157.365661,127.823644 C157.365661,127.823644 160.371138,133.655842 166.614291,136.728119 C166.614291,136.728119 170.899127,121.393183 166.234598,112.651166 C166.234598,112.651166 160.58864,115.107546 154.725714,115.064526 C154.725714,115.064526 145.904071,130.18009 126.133063,141.812421 C126.133063,141.812421 123.116363,173.2855 92.8614539,177.244618 C92.8614539,177.244618 99.9318612,171.323175 99.9318612,149.837538 C99.9318612,144.014692 99.9318612,131.018834 99.9318612,115.169803 C99.9318612,115.169803 108.386637,112.498594 114.098862,105.134533 C114.098862,105.134533 122.857445,103.047693 126.927719,101.245689 C126.927719,101.245689 124.888708,101.094453 121.942816,100.989176 L99.9318612,93.8514339 C99.9318612,86.9832978 99.9318612,79.9583146 99.9318612,73.0335319 C99.9318612,73.0335319 118.880425,75.5150282 150.53707,96.898862 C145.302067,99.3715406 136.620972,101.324246 136.620972,101.324246 C136.620972,101.324246 147.53373,102.427252 156.209482,98.8045399 C160.754305,90.5739456 160.844619,79.6061436 160.844619,79.6061436 C160.844619,79.6061436 157.528119,89.2833645 154.275748,93.9690023 C154.275748,93.9690023 137.413757,70.5335988 99.9318612,58.9026037 C99.9318612,55.8631917 99.9318612,52.8825638 99.9318612,49.9858371 C107.077619,51.1855699 117.48323,57.4196378 117.48323,57.4196378 C109.785168,48.1210409 99.9318612,44.6100189 99.9318612,44.6100189 C99.9318612,44.6100189 90.0782877,48.1210409 82.3804923,57.4196378 C82.3804923,57.4196378 88.3265175,47.2630583 99.9318612,39.9748821 C99.9318612,22.0296855 99.9318612,9.2473478 99.9318612,9.2473478 C99.9318612,9.2473478 146.043817,24.6605739 179.210951,84.5047407 C179.210951,84.5047407 171.181292,105.377953 143.91369,110.477486 L143.91369,110.477486 Z" id="path30" fill="#C8C7C5"></path>
                    </g>
                </g>
            </g>
        </g>
    </g>
</svg>