<?xml version="1.0" encoding="UTF-8"?>
<svg width="200px" height="200px" viewBox="0 0 200 200" version="1.1" xmlns="http://www.w3.org/2000/svg" xmlns:xlink="http://www.w3.org/1999/xlink">
    <!-- Generator: Sketch 54.1 (76490) - https://sketchapp.com -->
    <title>southern-california</title>
    <desc>Created with Sketch.</desc>
    <g id="southern-california" stroke="none" stroke-width="1" fill="none" fill-rule="evenodd">
        <g id="southern-california_BGL">
            <g id="southern-california" transform="translate(32.000000, 0.000000)">
                <g id="g10" transform="translate(67.130349, 99.657430) scale(-1, 1) rotate(-180.000000) translate(-67.130349, -99.657430) translate(0.000000, 0.000005)" fill-rule="nonzero">
                    <g id="g12">
                        <path d="M99.1054337,95.5277321 L99.1054337,118.330735 L112.134119,118.330735 L130.045604,100.418697 L130.045604,95.5277321 L130.045604,77.8395081 L105.390772,77.8395081 L105.390772,95.5277321 L99.1054337,95.5277321 Z M95.9613803,87.4906376 L78.0471277,69.5806758 L65.0201029,69.5806758 L65.0201029,92.3847861 L71.3076559,92.386447 L71.3076559,121.475342 L21.0512469,121.475342 L3.14132661,139.387519 L3.14132661,178.260835 L21.0549841,196.172873 L78.0508649,196.172873 L95.9613803,178.258067 L95.9613803,155.681508 L71.3076559,155.681508 L71.3076559,173.370701 L27.7961168,173.370701 L27.7961168,144.279037 L78.0508649,144.277653 L95.9613803,126.364646 L95.9613803,87.4906376 Z M61.8777105,95.5277321 L61.8777105,25.9453954 L105.390772,25.9453954 L105.390772,43.6347268 L130.045604,43.6347268 L130.045604,21.0538768 L112.131351,3.14348586 L55.1327022,3.14348586 L37.2228788,21.056645 L37.2228788,100.421465 L37.2228788,100.422988 L55.1365777,118.330735 L55.1365777,118.330735 L68.1662324,118.330181 L68.1662324,95.5277321 L61.8777105,95.5277321 Z M34.0842235,69.5806758 L21.0523542,69.5806758 L3.14132661,87.4943748 L3.14132661,110.074117 L27.7961168,110.074117 L27.7961168,92.3847861 L34.0842235,92.3847861 L34.0842235,69.5806758 Z M133.187996,74.696562 L133.187996,101.720611 L113.438248,121.475342 L99.1054337,121.475342 L99.1054337,127.666006 L79.3529168,147.41963 L30.9385092,147.422398 L30.9385092,170.225955 L68.1662324,170.225955 L68.1662324,152.536762 L99.1054337,152.536762 L99.1054337,179.560534 L79.3518095,199.31485 L19.7519632,199.31485 L0,179.564686 L0,138.084913 L19.7482261,118.330735 L50.6895036,118.330735 L34.0842235,101.724486 L34.0842235,95.5277321 L30.9385092,95.5277321 L30.9385092,113.21651 L0,113.21651 L0,86.1930149 L19.7508559,66.4377297 L34.0842235,66.4377297 L34.0842235,19.7530705 L53.8335569,0 L113.432711,0 L133.187996,19.7503023 L133.187996,46.7765655 L102.247826,46.7765655 L102.247826,29.090556 L65.0201029,29.090556 L65.0201029,66.4377297 L79.3518095,66.4377297 L79.3518095,66.4377297 L79.3518095,66.4377297 L99.1054337,86.1876168 L99.1054337,92.3847861 L102.247826,92.3847861 L102.247826,74.696562 L133.187996,74.696562 L133.187996,74.696562 Z" id="path14" fill="#FBC01C"></path>
                        <polyline id="path16" fill="#A21A34" points="105.390772 77.8395081 130.045604 77.8395081 130.045604 100.418697 112.134119 118.330735 99.1054337 118.330735 99.1054337 95.5277321 105.390772 95.5277321 105.390772 77.8395081"></polyline>
                        <polyline id="path18" fill="#A21A34" points="27.7961168 144.279037 27.7961168 173.370701 71.3076559 173.370701 71.3076559 155.681508 95.9613803 155.681508 95.9613803 178.258067 78.0508649 196.172873 21.0549841 196.172873 3.14132661 178.260835 3.14132661 139.387519 21.0512469 121.475342 71.3076559 121.475342 71.3076559 92.386447 65.0201029 92.3847861 65.0201029 69.5806758 78.0471277 69.5806758 95.9613803 87.4906376 95.9613803 126.364646 78.0508649 144.277653 27.7961168 144.279037"></polyline>
                        <polyline id="path20" fill="#A21A34" points="27.7961168 110.074117 3.14132661 110.074117 3.14132661 87.4943748 21.0523542 69.5806758 34.0842235 69.5806758 34.0842235 92.3847861 27.7961168 92.3847861 27.7961168 110.074117"></polyline>
                        <polyline id="path22" fill="#A21A34" points="68.1662324 118.330181 55.1365777 118.330735 55.1365777 118.330735 37.2228788 100.422988 37.2228788 100.421465 37.2228788 21.056645 55.1327022 3.14348586 112.131351 3.14348586 130.045604 21.0538768 130.045604 43.6347268 105.390772 43.6347268 105.390772 25.9453954 61.8777105 25.9453954 61.8777105 95.5277321 68.1662324 95.5277321 68.1662324 118.330181"></polyline>
                    </g>
                </g>
            </g>
        </g>
    </g>
</svg>