<?xml version="1.0" encoding="UTF-8"?>
<svg width="200px" height="200px" viewBox="0 0 200 200" version="1.1" xmlns="http://www.w3.org/2000/svg" xmlns:xlink="http://www.w3.org/1999/xlink">
    <!-- Generator: Sketch 54.1 (76490) - https://sketchapp.com -->
    <title>southern-utah</title>
    <desc>Created with Sketch.</desc>
    <g id="southern-utah" stroke="none" stroke-width="1" fill="none" fill-rule="evenodd">
        <g id="southern-utah_BGL">
            <g id="southern-utah" transform="translate(0.000000, 41.000000)">
                <path d="M119.066667,0 L126.586667,0 L126.853333,0 C132.533333,0.2125 138.133333,0.53125 143.733333,1.5140625 C149.786667,2.5765625 156.16,4.409375 161.093333,8.18125 C165.226667,11.3421875 167.973333,15.61875 169.92,20.4 C170.266667,21.3828125 171.04,21.834375 171.76,22.5515625 C175.76,26.403125 179.146667,31.1046875 180.746667,36.44375 C182.293333,41.4640625 182.106667,46.803125 180.533333,51.796875 C178.72,57.7203125 175.093333,63.1921875 170.906667,67.734375 C169.813333,68.95625 168.533333,69.9125 167.653333,71.3203125 C178.426667,74.26875 189.226667,77.1640625 199.973333,80.1390625 L199.973333,80.21875 C198.64,80.5640625 197.333333,80.9890625 196.026667,81.3875 C156.293333,93.553125 116.533333,105.71875 76.8,117.884375 C75.6533333,118.229688 74.5066667,118.548438 73.3866667,119 L73.28,119 C73.6,118.575 73.8933333,118.176563 74.2666667,117.778125 C78.4266667,113.182812 82.6133333,108.5875 86.7733333,103.992188 C67.0666667,108.48125 47.3866667,113.103125 27.68,117.592187 C33.84,112.2 40.08,106.860938 46.2133333,101.442188 C30.7733333,103.59375 15.3866667,105.771875 0,107.95 C2.10666667,105.532812 4.4,103.248437 6.58666667,100.884375 C12.9333333,94.1375 19.3333333,87.4171875 25.6533333,80.64375 C21.6,81.49375 17.5733333,82.45 13.4933333,83.2734375 C22.9333333,73.0734375 32.4266667,62.8734375 41.8666667,52.6734375 C37.7333333,53.815625 33.6533333,55.090625 29.52,56.259375 C37.44,48.0515625 45.44,39.6046875 53.8666667,31.9015625 C64.48,22.20625 76.1866667,13.2015625 89.36,7.2515625 C98.72,2.9484375 108.8,0.3984375 119.066667,0 Z" id="Shape" fill="#CF2127" fill-rule="nonzero"></path>
                <path d="M123.733333,4.3296875 C130.4,4.4625 137.146667,4.8078125 143.733333,5.896875 C146.72,6.428125 149.706667,7.0921875 152.506667,8.2875 C155.12,9.403125 157.573333,10.9171875 159.68,12.8296875 C162.32,15.246875 164.266667,18.2484375 165.6,21.56875 C165.973333,22.41875 166.266667,23.534375 166.933333,24.1984375 C169.253333,26.4828125 171.573333,28.9 173.36,31.6359375 C175.226667,34.53125 176.586667,37.771875 177.04,41.225 C177.6,44.996875 176.986667,48.9546875 175.626667,52.5140625 C173.44,58.278125 169.333333,63.4046875 164.586667,67.2828125 C162.533333,68.903125 160.373333,70.390625 157.866667,71.1609375 C156.506667,67.9734375 153.44,65.875 150.453333,64.334375 C149.733333,64.015625 148.826667,63.43125 148.053333,63.484375 C147.226667,64.4140625 146.746667,65.7953125 147.013333,67.0171875 C147.2,68.1328125 147.893333,69.0625 148.666667,69.8328125 C150.4,71.5328125 152.613333,72.621875 154.986667,73.1 C164.373333,75.490625 173.733333,77.934375 183.093333,80.43125 C181.786667,80.9625 180.426667,81.28125 179.093333,81.7328125 C148.666667,91.05625 118.16,100.432813 87.7333333,109.729688 C91.4933333,105.320312 95.44,101.04375 99.2,96.634375 C80.7466667,100.884375 62.2933333,105.160938 43.84,109.4375 C49.3866667,104.603125 54.9866667,99.7953125 60.56,94.934375 C44.6933333,97.059375 28.8533333,99.2640625 12.9866667,101.3625 C19.4666667,94.190625 26,87.071875 32.5333333,79.9265625 C35.5466667,76.5796875 38.6933333,73.3125 41.68,69.9390625 C40.3466667,70.284375 39.2533333,71.0015625 38.0533333,71.6125 C34.5866667,73.3921875 31.0666667,75.11875 27.4133333,76.5 C28.0266667,75.596875 28.7733333,74.8 29.4933333,73.9765625 C38.3466667,63.696875 47.2266667,53.3109375 55.7066667,42.7125 C56.2666667,42.021875 56.8266667,41.33125 57.3066667,40.6140625 C55.8933333,41.225 54.56,42.128125 53.2266667,42.8984375 C50.6666667,44.4125 48.1866667,46.0328125 45.6266667,47.5203125 C46.6666667,46.3515625 47.84,45.3421875 48.9866667,44.253125 C51.0666667,42.2609375 53.1466667,40.26875 55.2266667,38.25 C59.3333333,34.265625 63.6,30.0953125 68.2666667,26.8015625 C70.4533333,25.18125 72.6666667,23.5609375 74.8,21.8875 C80.6133333,17.159375 87.44,13.3875 94.1866667,10.1203125 C103.36,5.7375 113.6,4.2234375 123.733333,4.3296875 Z" id="Shape" fill="#231F20" fill-rule="nonzero"></path>
                <path d="M114.666667,7.1984375 C118.293333,6.9328125 121.973333,7.0125 125.6,7.4375 C130.08,8.0484375 134.64,9.190625 138.32,11.953125 C137.493333,10.8375 136.24,9.7484375 136.373333,8.2078125 C136.426667,7.4640625 137.146667,7.065625 137.84,7.065625 C139.36,7.11875 140.88,7.5703125 142.373333,7.809375 C146.293333,8.4734375 150.08,9.45625 153.6,11.3953125 C156.64,13.06875 159.2,15.4859375 160.8,18.5671875 C161.52,19.8953125 162,21.3296875 161.573333,22.84375 C161.04,24.384375 159.466667,25.3140625 158.08,26.0046875 C156.666667,26.66875 154.88,27.465625 153.28,27.146875 C151.946667,26.88125 151.2,25.978125 150.4,24.9421875 C150.56,25.81875 150.986667,27.0140625 150.613333,27.8640625 C149.52,29.5640625 147.333333,30.5734375 145.413333,31.025 C142.613333,31.6890625 139.626667,31.7421875 136.746667,31.5296875 C135.226667,31.4765625 133.733333,31.45 132.213333,31.3171875 C128.986667,31.13125 125.52,30.91875 122.56,29.5640625 C119.946667,28.315625 117.413333,26.88125 114.853333,25.5265625 C112.72,24.4375 110.4,23.6140625 107.946667,23.746875 C105.84,23.853125 103.946667,24.7296875 102.24,25.8984375 C100.56,27.0671875 99.04,28.2359375 98.08,30.0953125 C99.84,29.9625 101.6,29.8296875 103.36,29.6703125 C102.986667,29.2453125 102.64,29.00625 102.826667,28.36875 C103.2,27.0671875 104.906667,26.35 106.106667,26.03125 C107.386667,25.6328125 108.586667,25.8984375 109.893333,25.978125 C107.84,26.934375 106.213333,28.740625 105.306667,30.7859375 C104.64,32.459375 105.146667,34.0796875 106.24,35.4078125 C104.32,35.5140625 102.853333,35.1421875 101.2,34.2125 C101.706667,34.903125 102.213333,35.5671875 102.906667,36.0984375 C103.893333,36.8421875 105.04,37.4 106.106667,38.0640625 C101.6,37.1078125 96.5333333,36.496875 92.0266667,37.771875 C89.2533333,38.5953125 86.5333333,40.1359375 84.6666667,42.340625 C83.2266667,44.040625 82.5333333,46.3515625 82.9066667,48.5828125 C83.3866667,51.5046875 85.1733333,54.134375 87.2533333,56.20625 C89.52,58.54375 92.2133333,60.3234375 95.12,61.8109375 C93.8933333,63.378125 92.72,64.971875 91.52,66.5390625 C93.52,66.2734375 95.52,66.0078125 97.52,65.715625 C95.6266667,67.4953125 93.5466667,69.115625 91.3866667,70.55 C89.2266667,71.9578125 86.8,73.3125 84.2666667,73.8703125 C83.2533333,74.05625 81.7866667,74.3484375 80.88,73.7109375 C79.8133333,72.8875 79.8133333,71.4796875 79.7066667,70.284375 C78.5333333,70.921875 77.36,71.559375 76.1066667,72.0375 C76.48,70.815625 76.9333333,69.646875 77.28,68.425 C73.8133333,70.284375 70.4,72.2765625 66.8533333,74.003125 C65.84,74.48125 64.7733333,74.9859375 63.68,75.2515625 C63.1733333,75.33125 62.6133333,75.4640625 62.24,75.0390625 C61.9466667,73.95 62.6666667,72.78125 63.1466667,71.8515625 C65.84,67.15 69.6266667,62.9796875 72.5333333,58.384375 C64.7733333,62.2359375 57.3866667,66.778125 49.7866667,70.8421875 C54.5333333,60.5359375 59.52,50.575 65.9466667,41.1984375 C69.3866667,36.1515625 73.12,31.396875 76.9866667,26.6953125 C81.04,21.56875 86.5066667,17.425 92.16,14.184375 C98.96,10.3859375 106.8,7.65 114.666667,7.1984375 Z" id="Shape" fill="#FFFFFF" fill-rule="nonzero"></path>
                <path d="M106.293333,22.6046875 C103.92,23.4546875 101.68,24.384375 99.68,25.978125 C98.2666667,27.1203125 96.88,28.8203125 96.5866667,30.6796875 C96.3733333,31.9015625 96.7733333,33.0171875 97.4133333,34.053125 C89.28,35.328125 82.32,39.63125 75.8666667,44.4921875 C74.6666667,45.36875 73.4933333,46.2984375 72.24,47.121875 C72.8266667,46.2453125 73.4933333,45.4484375 74.16,44.6515625 C77.28,41.0125 80.5866667,37.453125 84.2666667,34.3453125 C82.1866667,34.9296875 80.1333333,35.59375 78.0533333,36.178125 C82.0266667,32.4859375 86.8533333,29.5375 91.6533333,27.0140625 C94.4533333,25.5265625 97.4133333,24.33125 100.506667,23.5609375 C102.4,23.0828125 104.346667,22.6578125 106.293333,22.6046875 Z" id="Shape" fill="#231F20" fill-rule="nonzero"></path>
                <path d="M113.066667,27.2265625 C114.426667,27.3328125 115.76,28.103125 116.8,28.953125 C118,29.909375 118.32,31.2640625 119.333333,32.5390625 C120.133333,33.575 121.28,34.7171875 122.693333,34.5578125 C124.88,34.31875 127.04,33.3890625 129.066667,32.565625 C130.16,32.9109375 131.253333,33.1234375 132.346667,33.4953125 C127.6,35.9390625 122.16,37.0546875 116.826667,36.975 C114.56,36.8953125 112.373333,36.65625 110.293333,35.6734375 C109.226667,35.1421875 108.24,34.31875 107.893333,33.15 C107.573333,31.821875 108,30.546875 108.8,29.484375 C109.786667,28.209375 111.413333,27.146875 113.066667,27.2265625 Z" id="Shape" fill="#FFFFFF" fill-rule="nonzero"></path>
                <g id="Group" transform="translate(85.866667, 28.687500)" fill="#FFFFFF" fill-rule="nonzero">
                    <path d="M26.1333333,12.325 C22.88,11.953125 19.6,11.6875 16.32,11.36875 C14.0319178,11.1463944 11.6258448,10.9951338 9.33333333,10.9703125 C6.88,10.94375 4.53333333,12.00625 2.72,13.6265625 C1.37848025,14.8252838 0.411147417,16.4954771 0.24,18.328125 C0.0266666667,20.6125 0.919989895,22.7622555 2.34666667,24.490625 C4.32,26.88125 7.09333333,28.36875 10,29.3515625 C12.5569586,30.2161305 15.3801585,30.7429129 18.1333333,30.5734375 C22.88,30.28125 27.36,28.953125 32.1333333,29.0328125 C34.0656215,29.0650707 35.9949582,29.2913085 37.8666667,29.7765625 C39.8133333,30.28125 41.7375228,31.0343653 43.6533333,31.609375 C45.8875562,32.2799527 54.8266667,34.796875 57.0666667,34.74375 C57.8945169,34.7241163 58.7466667,34.2921875 59.0133333,33.4953125 C59.1634638,33.0466806 58.7576095,32.9077246 58.3733333,32.6984375 C54.6681635,30.6805027 50.6166069,29.1403068 46.5649104,27.9186679 C44.6347877,27.3367109 42.7436198,26.8216091 40.8533333,26.35 C35.3170573,24.96875 30.1553595,25.7971894 29.48885,25.8738916 C26.7598816,26.1879423 24.0552201,26.7094777 21.3333333,27.09375 C19.206831,27.3939667 17.398266,27.9316495 15.2,27.5984375 C12.7466667,27.2265625 10.08,26.4828125 8.05333333,24.96875 C6.52645353,23.8280634 5.36,22.153125 5.36,20.2140625 C5.36,18.4077803 6.39536169,16.8394705 7.89333333,15.8578125 C9.92,14.5296875 12.3344888,14.3073119 14.72,14.5828125 C20.2330792,15.2195132 25.2141616,17.472466 30.3008429,19.462818 C31.3374515,19.8684294 32.4024381,20.2998379 33.4708235,20.7073088 C35.3538133,21.4333346 38.2541193,22.4935772 40.1678452,23.1559877 C43.4666667,24.278125 49.7352575,26.4818856 50.0266667,26.5890625 C55.2266667,28.5015625 60.4533333,30.5734375 65.3333333,33.203125 C67.8666667,34.6375 70.2933333,36.23125 72.8266667,37.665625 C73.44,38.0375 73.8666667,37.878125 74.4266667,37.5328125 C76.3466667,36.3375 81.3066667,32.6984375 83.4666667,29.4578125 C84.2978973,28.210726 85.04,26.9078125 85.6266667,25.553125 C86.3510982,23.6767762 87.1733666,20.359952 87.2533333,19.86875 C87.4133333,18.8859375 87.5733333,17.9296875 87.6,16.9203125 C87.8106175,13.817493 87.4094529,10.6419443 86.2666667,7.809375 C85.5690533,6.10160415 84.3666048,4.11725281 83.4933333,3.0015625 C82.2666667,1.434375 80.72,0.2390625 78.6666667,0.10625 C75.5466667,-0.10625 72.16,1.1421875 69.1733333,2.071875 C67.8604249,2.47307216 66.5916427,2.94653424 65.2970149,3.42033602 C64.1866667,3.71875 63.12,4.1171875 62,4.4359375 C61.7356111,4.51118211 51.9149058,7.57192142 50.8266667,7.915625 C48.1711914,8.73560673 45.515716,9.58192848 42.8602407,10.3496723 C40.6133333,10.9171875 38.4,11.528125 36.1333333,11.9265625 C34.7336206,12.1412658 32.4361072,12.4360899 31.0292969,12.5154097 C29.3960518,12.5495071 27.7211104,12.5064922 26.1333333,12.325 Z" id="Combined-Shape"></path>
                </g>
                <path d="M137.626667,38.409375 C138.24,38.409375 139.146667,38.196875 139.68,38.56875 C140.4,39.0734375 140.453333,40.1359375 140.32,40.9328125 C140.186667,41.7828125 139.706667,42.3671875 139.173333,43.03125 L138.906667,42.3140625 C138.64,41.490625 138.266667,40.853125 137.706667,40.1890625 C136.213333,40.48125 134.666667,40.5875 133.173333,40.8265625 C132.4,40.90625 131.6,41.0125 130.826667,41.065625 C131.093333,40.7734375 131.386667,40.5078125 131.76,40.3484375 C133.626667,39.4984375 135.6,38.834375 137.626667,38.409375 Z" id="Shape" fill="#231F20" fill-rule="nonzero"></path>
                <path d="M105.2,45.9 C109.413333,47.334375 113.6,49.034375 117.626667,50.8671875 C114.32,50.575 110.986667,50.2828125 107.68,49.9375 C108.506667,49.459375 109.333333,49.0078125 110.16,48.5296875 C107.653333,48.45 105.12,48.503125 102.613333,48.396875 C103.28,48.078125 103.946667,47.8125 104.613333,47.5203125 C101.493333,47.1484375 98.3733333,46.7765625 95.28,46.325 C98.3733333,44.4390625 101.866667,44.9703125 105.2,45.9 Z" id="Shape" fill="#FEFEFE" fill-rule="nonzero"></path>
                <path d="M93.76,47.8921875 C96.2666667,47.9984375 98.8,48.078125 101.306667,48.2109375 C100.4,48.6359375 99.4666667,48.98125 98.5866667,49.459375 C101.76,49.3265625 104.933333,49.1671875 108.08,49.034375 C107.093333,49.565625 106.026667,49.9375 105.013333,50.46875 C109.066667,51.10625 113.12,51.74375 117.173333,52.38125 C115.466667,52.7265625 113.733333,52.9390625 112,53.2578125 C108.613333,53.8421875 105.306667,54.240625 101.866667,54.028125 C99.5733333,53.7625 96.9066667,53.1515625 95.0666667,51.6375 C93.92,50.68125 93.4666667,49.353125 93.76,47.8921875 Z" id="Shape" fill="#FFFFFF" fill-rule="nonzero"></path>
                <path d="M175.36,66.5125 C176.64,66.4328125 177.946667,66.5125 179.253333,66.4859375 L179.253333,67.04375 C178.666667,67.04375 178.106667,67.0703125 177.52,67.0703125 C177.546667,68.371875 177.52,69.6734375 177.52,70.975 C177.306667,70.975 177.12,70.975 176.906667,70.975 C176.906667,69.6734375 176.906667,68.3453125 176.906667,67.04375 C176.346667,67.04375 175.786667,67.04375 175.2,67.04375 C175.253333,66.884375 175.306667,66.6984375 175.36,66.5125 Z" id="Shape" fill="#0B0607" fill-rule="nonzero"></path>
                <path d="M184.586667,66.3796875 C184.586667,67.89375 184.586667,69.38125 184.586667,70.8953125 C184.373333,70.86875 184.16,70.8421875 183.92,70.7890625 C183.946667,69.6734375 183.946667,68.584375 183.92,67.46875 C183.413333,68.053125 182.906667,68.6640625 182.4,69.275 C181.893333,68.6640625 181.386667,68.0796875 180.853333,67.4953125 C180.853333,68.6640625 180.853333,69.80625 180.88,70.975 L180.24,70.975 C180.24,69.4875 180.213333,68 180.24,66.5125 C180.56,66.3796875 180.8,66.4328125 180.96,66.6453125 C181.466667,67.1765625 181.893333,67.734375 182.373333,68.2921875 C183.093333,67.68125 183.6,66.4328125 184.586667,66.3796875 Z" id="Shape" fill="#120E0F" fill-rule="nonzero"></path>
                <path d="M138.293333,72.5421875 C133.733333,76.81875 129.12,81.0421875 124.56,85.3453125 C139.28,83.61875 154.053333,82.025 168.773333,80.325 C169.6,80.21875 170.426667,80.1125 171.253333,80.059375 C161.813333,83.0078125 152.32,85.8765625 142.853333,88.825 C128.32,93.3140625 113.76,97.803125 99.2,102.265625 C102.693333,98.28125 106.213333,94.3234375 109.733333,90.365625 C92.3733333,94.3234375 74.96,98.4140625 57.6,102.398438 C62.5866667,98.0421875 67.6,93.7390625 72.5866667,89.409375 C56.8533333,91.6140625 41.1466667,94.0578125 25.4133333,96.209375 C24.8266667,96.2890625 24.2133333,96.3421875 23.6266667,96.3421875 C49.36,88.825 75.1733333,81.2546875 100.906667,73.7375 C97.28,77.24375 93.6266667,80.7234375 89.9733333,84.203125 C106.053333,80.325 122.16,76.39375 138.293333,72.5421875 Z" id="Shape" fill="#FFFFFF" fill-rule="nonzero"></path>
            </g>
        </g>
    </g>
</svg>