<?xml version="1.0" encoding="UTF-8"?>
<svg width="200px" height="200px" viewBox="0 0 200 200" version="1.1" xmlns="http://www.w3.org/2000/svg" xmlns:xlink="http://www.w3.org/1999/xlink">
    <title>st-peters</title>
    <defs>
        <polygon id="path-1" points="0.0293398533 0.458679707 150.309867 0.458679707 150.309867 199.97066 0.0293398533 199.97066"></polygon>
    </defs>
    <g id="st-peters" stroke="none" stroke-width="1" fill="none" fill-rule="evenodd">
        <g id="st-peters" transform="translate(25.000000, 0.000000)">
            <g id="Group-3">
                <mask id="mask-2" fill="white">
                    <use xlink:href="#path-1"></use>
                </mask>
                <g id="Clip-2"></g>
                <path d="M130.920293,105.29291 C138.207335,106.58044 143.318337,113.091932 145.584352,117.444988 C151.418582,105.487042 151.106601,92.3354523 148.627384,84.6606357 C146.324694,77.5330073 140.96088,71.8601467 133.196577,67.0400978 C134.508068,62.2264059 133.022494,53.1877751 125.742298,44.5320293 C114.723716,31.4308068 98.6591687,24.1770171 81.9799511,23.7897311 C73.6537897,23.596577 64.8503667,25.590709 58.6200489,28.6547677 L30.0156479,12.8122249 C28.802445,7.40782396 25.0880196,3.35305623 17.9545232,0.458679707 C10.2924205,3.91002445 6.23716381,10.1007335 6.57457213,18.003912 C0.781418093,24.3432763 -0.207334963,31.0440098 2.05183374,37.9887531 C-1.31295844,45.1515892 -0.522249389,51.6469438 4.29877751,58.0415648 C10.7295844,59.0151589 18.3090465,56.1202934 21.3657702,52.8488998 L34.5334963,52.5838631 C24.1129584,69.2684597 20.6782396,86.206846 23.4508557,102.149144 C25.9731051,116.653301 32.6356968,131.204401 37.5594132,140.866015 C42.1594132,149.890465 49.0444988,163.401956 51.9775061,182.961369 C55.0327628,181.029829 59.5814181,177.684597 61.5633252,175.29291 C64.2229829,181.397555 67.5779951,191.13154 69.3202934,200 C74.9691932,198.073839 83.9237164,192.536919 87.3388753,189.466504 C87.3388753,189.466504 88.8899756,193.522738 89.2977995,195.129095 C101.005379,185.979462 107.265526,175.264548 109.761369,158.438631 C111.771638,144.885086 107.852323,122.090465 91.3408313,109.553056 C96.7374083,108.480685 101.307579,106.492421 105.283619,103.844499 C116.000489,108.475795 122.086064,103.731051 130.920293,105.29291" id="Fill-1" fill="#FFFFFE" mask="url(#mask-2)"></path>
            </g>
            <path d="M121.254768,94.1770171 C112.994621,96.0728606 107.776528,93.1393643 106.327139,89.9256724 C115.963325,91.2904645 118.494866,86.5105134 131.705623,89.0782396 C131.138386,86.0459658 127.78533,83.7168704 124.587775,82.9090465 C118.857702,81.4616137 115.14621,83.4317848 108.333985,82.8464548 C99.9823961,82.1290954 95.0894866,76.7134474 92.791687,73.9657702 C92.1290954,74.4224939 91.3339853,74.6899756 90.4782396,74.6899756 C88.1682152,74.6899756 86.2958435,72.7501222 86.2958435,70.3569682 C86.2958435,69.5144254 86.5320293,68.7300733 86.9334963,68.0645477 C85.407335,66.5867971 83.9652812,65.2640587 82.3046455,63.8982885 C77.991198,69.1672372 79.2650367,77.8518337 85.9457213,80.1872861 C81.3735941,81.0821516 76.6493888,77.9095355 75.2914425,74.0948655 C73.5877751,69.3070905 74.3330073,63.5721271 76.803423,60.0713936 C71.5559902,57.4195599 67.6552567,58.7814181 64.6586797,60.8249389 C60.3066015,63.792665 57.9374083,68.8552567 56.8244499,72.403423 C55.7867971,69.8767726 54.8459658,61.2889976 60.4601467,56.2166259 C66.7090465,50.5711491 74.993643,50.593154 83.3545232,56.4674817 C87.7129584,59.5295844 91.2425428,63.1403423 94.6562347,66.6322738 C99.7511002,71.8440098 104.993643,75.3765281 109.048411,75.999022 C112.791687,76.5735941 118.822494,76.2146699 122.495844,73.8444988 C133.764303,78.3432763 139.335452,86.1183374 139.523227,96.0772616 C134.37555,93.2943765 128.076773,92.6122249 121.254768,94.1770171 Z M80.7784841,96.1070905 C72.3442543,95.3887531 67.6117359,91.5594132 64.2665037,85.7672372 C60.608802,79.4337408 63.1168704,72.1794621 65.5207824,71.6924205 C66.3305623,81.0821516 73.9007335,93.8503667 95.6146699,88.9251834 C95.4381418,92.5731051 88.80489,96.79022 80.7784841,96.1070905 Z M105.222494,65.6625917 C107.509046,67.7432763 110.441076,66.7735941 111.11198,64.0699267 C113.866993,66.1540342 117.217604,64.9295844 117.333007,61.9599022 C120.093399,63.5867971 122.940342,62.1589242 122.88313,58.9491443 C125.097311,60.0405868 125.594621,63.8728606 123.373105,65.6195599 C121.390709,67.1779951 119.306112,65.7349633 119.306112,65.7349633 C119.533007,66.5310513 119.428851,68.5178484 117.258191,69.3330073 C114.643521,70.3144254 113.01956,68.2376528 113.01956,68.2376528 C111.194621,72.593154 104.441076,71.7012225 105.222494,65.6625917 Z M112.997066,54.2831296 C116.037164,55.8288509 118.721271,54.5163814 118.668949,51.2308068 C120.735452,52.2904645 121.614181,55.8660147 119.029829,57.4860636 C116.874817,58.8366748 114.730073,57.2806846 114.730073,57.2806846 C114.730073,57.2806846 114.712469,60.1286064 112.018582,60.6704156 C109.764792,61.1237164 107.158435,59.6987775 107.11198,56.4234719 C109.737408,58.0542787 112.392176,57.2738386 112.997066,54.2831296 Z M112.52176,45.00978 C114.667971,45.7735941 115.555501,48.7823961 113.4,50.4352078 C111.498289,51.8933985 108.033741,50.600489 108.091443,47.9809291 C110.908557,49.1202934 112.837164,47.804401 112.52176,45.00978 Z M80.3437653,167.091443 C88.0156479,161.776528 93.2498778,152.1511 95.6459658,140.678729 C96.6508557,145.821516 95.5246944,155.657702 92.6616137,161.981907 C89.6484108,168.638631 84.3506112,174.368704 77.4454768,178.86357 C71.8801956,163.358435 65.1535452,151.441076 56.998044,142.482152 C67.0493888,146.911491 75.7398533,157.202445 80.3437653,167.091443 Z M127.594621,69.0220049 C129.355501,66.7657702 131.160391,59.4718826 124.172616,49.7608802 C118.889487,42.4190709 108.158924,32.6973105 91.9799511,29.2508557 C79.5085575,26.594132 64.8215159,29.4386308 58.7129584,33.7613692 L27.0640587,16.0107579 C26.2577017,10.6889976 22.8713936,7.57114914 18.3017115,5.90464548 C13.7833741,8.31442543 11.6410758,11.9569682 11.4210269,17.3545232 C14.4210269,20.2361858 20.6572127,21.608802 24.806357,20.2572127 L43.0308068,33.8577017 L21.3124694,29.0195599 C18.8958435,24.9716381 13.8885086,22.2870416 9.59364303,21.9237164 C5.99217604,24.8264059 4.42347188,30.1589242 5.88948655,35.3432763 C9.91295844,36.9422983 16.7427873,36.7066015 19.807335,34.0190709 L41.0660147,40.8977995 L18.798533,43.19022 C15.3437653,40.0528117 10.1031785,39.2621027 5.89388753,40.2180929 C3.58777506,44.9100244 3.98190709,49.5623472 6.78190709,53.7486553 C11.0806846,54.0567237 17.0215159,51.797066 19.3114914,48.4669927 L40.9750611,48.0308068 L41.2420538,50.590709 C34.5701711,59.8943765 23.9828851,77.8963325 27.8156479,101.441076 C32.4801956,130.091443 49.9525672,146.773594 54.9853301,174.984352 C57.1427873,173.364303 60.8968215,170.004401 62.594132,167.799511 C66.4249389,174.583374 70.2200489,184.356479 72.5647922,192.854768 C78.6787286,189.875306 84.1677262,186.452812 89.0797066,181.356968 C89.9819071,183.21956 90.7867971,185.006846 91.3442543,187.234719 C96.9383863,182.400489 103.470416,172.310024 105.272861,157.564303 C107.511002,139.249389 99.8801956,123.394132 94.19022,118.04401 C94.8669927,122.002934 94.799022,126.593154 94.4606357,129.887042 C91.1183374,121.86846 84.796088,116.118826 76.9457213,112.662103 C77.5755501,117.293399 77.1012225,122.847433 75.9501222,126.282152 C71.7750611,117.768704 67.6933985,113.604401 59.5760391,104.954034 C44.0229829,88.3794621 46.9701711,73.398044 49.5765281,71.2347188 C49.8444988,82.6361858 54.2298289,90.9369193 61.0909535,97.2621027 C76.008802,111.014181 98.3711491,105.633741 104.793643,98.3466993 C108.993154,101.80489 115.85379,101.756479 122.628851,100.603423 C134.084597,98.6533007 141.145232,103.442054 144.553056,108.169682 C148.146699,95.2185819 147.436675,78.8288509 127.594621,69.0220049 L127.594621,69.0220049 Z" id="Fill-4" fill="#21375C"></path>
        </g>
    </g>
</svg>