<?xml version="1.0" encoding="UTF-8"?>
<svg width="200px" height="200px" viewBox="0 0 200 200" version="1.1" xmlns="http://www.w3.org/2000/svg" xmlns:xlink="http://www.w3.org/1999/xlink">
    <!-- Generator: Sketch 63.1 (92452) - https://sketch.com -->
    <title>stephen-f-austin</title>
    <desc>Created with Sketch.</desc>
    <defs>
        <polygon id="path-1" points="0.024291498 0.051417004 199.935223 0.051417004 199.935223 189.854251 0.024291498 189.854251"></polygon>
    </defs>
    <g id="stephen-f-austin" stroke="none" stroke-width="1" fill="none" fill-rule="evenodd">
        <g id="stephen-f-austin_BGL" transform="translate(0.000000, 0.000000)">
            <g id="stephen-f-austin" transform="translate(0.000000, 5.000000)">
                <g id="Group-3">
                    <mask id="mask-2" fill="white">
                        <use xlink:href="#path-1"></use>
                    </mask>
                    <g id="Clip-2"></g>
                    <path d="M195.944939,99.6761134 C195.944939,99.6761134 194.793522,100.827935 194.409312,101.211336 C194.355061,101.806478 194.148178,104.091903 194.091903,104.691903 C194.415789,105.154251 195.539271,106.757895 195.539271,106.757895 L194.15668,111.253036 C194.15668,111.253036 192.764372,113.305668 192.321457,113.962753 C192.526316,114.597571 193.363563,117.174089 193.363563,117.174089 C193.363563,117.174089 189.775709,117.406883 189.355061,117.433603 C188.944939,117.663563 182.629555,121.181781 182.629555,121.181781 C182.629555,121.181781 181.976113,119.984615 181.88664,119.822267 C180.967206,119.983401 177.849393,120.533603 177.849393,120.533603 C177.849393,120.533603 178.14251,118.335223 178.232389,117.670445 C177.68502,117.912146 177.295951,118.086235 176.844534,118.286235 C176.797571,118.538866 176.784211,118.608097 176.74251,118.82753 C177.12753,119.419838 179.187045,122.602429 179.187045,122.602429 C179.187045,122.602429 175.574899,125.642915 175.038866,126.094737 C174.941296,126.719838 174.536032,129.312146 174.536032,129.312146 C174.536032,129.312146 173.079757,130.220243 171.083806,131.464372 L174.533198,131.464372 L174.533198,156.721862 L144.726721,156.721862 C144.507692,157.276518 144.373279,157.617004 144.373279,157.617004 C144.373279,157.617004 142.179352,159.516599 141.262753,160.309717 C141.437652,160.604858 141.846964,161.297571 141.846964,161.297571 C141.846964,161.297571 140.64251,166.719028 140.519028,167.272874 C140.707692,167.822672 143.837652,176.936032 144.04251,177.534413 C144.516194,177.889879 147.873684,180.405263 147.873684,180.405263 L147.873684,183.683401 C147.873684,183.683401 145.654656,183.278947 145.025506,183.165587 C144.480162,183.78502 142.673279,185.84251 142.673279,185.84251 C142.673279,185.84251 137.840081,183.009717 137.402024,182.752632 C136.875709,182.733198 129.137247,182.42915 129.137247,182.42915 C129.137247,182.42915 124.109717,179.748178 124.059109,179.721457 C124.008907,179.697571 119.375709,177.524291 119.05587,177.374899 C118.724696,177.339676 115.537652,177.005263 115.537652,177.005263 C115.537652,177.005263 111.868016,169.50081 111.750607,169.2583 C111.587449,169.065992 109.807287,166.963563 109.807287,166.963563 C109.807287,166.963563 109.676518,164.447773 109.644939,163.869636 C109.296356,163.453036 108.026316,161.926721 108.026316,161.926721 C108.026316,161.926721 107.693522,156.930364 107.682996,156.77166 C107.681377,156.764777 107.677733,156.745749 107.67247,156.721862 L95.2765182,156.721862 L95.2765182,142.379757 L93.1838057,139.282996 C93.1838057,139.282996 89.9708502,132.051822 89.9194332,131.937652 C89.8619433,131.840081 88.7190283,129.90081 88.5,129.52753 C88.1076923,129.274089 84.7360324,127.087045 84.7360324,127.087045 C84.7360324,127.087045 84.7097166,126.981377 84.6643725,126.795951 L72.1793522,126.795951 L72.1793522,120.562348 C70.5044534,120.175709 68.1534413,119.632794 67.5396761,119.491093 C67.1190283,119.902429 66.1178138,120.878543 66.1178138,120.878543 C66.1178138,120.878543 64.2894737,120.466802 63.5607287,120.302429 C63.3530364,120.533603 63.1497976,120.757895 63.1497976,120.758704 C63.148583,120.758704 62.3906883,121.668016 62.2550607,121.832389 C62.1441296,122.050607 58.7360324,128.752632 58.7360324,128.752632 L55.8785425,132.857895 L53.2036437,133.755466 L43.8582996,128.825911 L34.6356275,123.112551 L30.8967611,117.557085 C30.8967611,117.557085 30.8117409,112.351012 30.7995951,111.661538 C30.3991903,111.177733 28.4048583,108.767206 28.4048583,108.767206 C28.4048583,108.767206 28.5676113,107.301619 28.6157895,106.865992 C28.4186235,106.473279 27.9117409,105.457085 27.7287449,105.091093 C27.2550607,104.783401 20.842915,100.596761 20.842915,100.596761 C20.842915,100.596761 12.1036437,91.3781377 11.9461538,91.211336 C11.7692308,91.0890688 9.28906883,89.3720648 9.28906883,89.3720648 C9.28906883,89.3720648 7.66761134,86.4696356 7.43927126,86.0619433 C7.06072874,85.8097166 4.8145749,84.311336 4.8145749,84.311336 L3.30242915,81.7530364 L3.72631579,79.2688259 C3.72631579,79.2688259 20.5210526,79.2688259 35.1,79.2688259 L35.1,65.2659919 L56.0838057,65.2659919 C56.0838057,64.5716599 56.0838057,63.859919 56.0838057,63.1315789 L48.6894737,63.1315789 L35.1,50.5757085 L35.1,26.9230769 L52.2024291,12.8647773 L56.0838057,12.8647773 C56.0838057,6.98582996 56.0838057,3.20283401 56.0838057,3.20283401 L100.516194,3.20283401 C100.516194,3.20283401 100.516194,11.1295547 100.516194,19.1906883 L105.400405,24.1267206 L105.400405,39.2202429 L105.399595,39.2939271 C105.420648,39.3064777 105.445344,39.3214575 105.463968,39.3323887 C105.819838,39.3323887 106.429555,39.3323887 106.789069,39.3323887 C107.175709,39.0951417 108.795951,38.1044534 108.795951,38.1044534 L111.62753,39.4526316 C111.62753,39.4526316 111.851012,40.0502024 112.170445,40.7898785 L112.903239,40.7894737 L143.57247,40.7894737 L143.57247,46.3631579 L144.295547,46.1259109 C144.295547,46.1259109 145.331174,47.0882591 145.734008,47.4619433 C146.425101,47.334413 148.239676,46.9979757 148.239676,46.9979757 C148.239676,46.9979757 150.840486,48.5979757 151.748583,49.1562753 C152.488259,48.5753036 154.081781,47.3230769 154.081781,47.3230769 C154.081781,47.3230769 157.185425,46.7417004 157.377328,46.7048583 C157.5583,46.6356275 160.512955,45.491498 160.512955,45.491498 C160.512955,45.491498 164.893117,45.5769231 165.417409,45.5870445 C165.830769,45.3643725 168.034008,44.1704453 168.034008,44.1704453 C168.034008,44.1704453 174.205668,47.4923077 174.665992,47.7408907 C175.073279,47.7408907 176.576113,47.7408907 176.576113,47.7408907 C176.576113,47.7408907 179.421862,49.6161943 180.275304,50.1777328 C180.763158,49.8898785 181.615385,49.3890688 181.615385,49.3890688 L185.480567,49.5380567 C185.480567,49.5380567 187.596761,75.4097166 187.67166,76.3161943 C188.189879,76.7489879 189.78502,78.0781377 189.78502,78.0781377 L191.887449,81.3493927 C191.887449,81.3493927 191.55587,82.8769231 191.419028,83.5032389 C191.939271,84.1089069 193.603644,86.0518219 193.603644,86.0518219 C193.603644,86.0518219 193.84332,87.4906883 193.904858,87.8635628 C194.152227,88.2125506 195.531579,90.159919 195.531579,90.159919 L196.718623,94.5854251 L195.944939,99.6761134 Z M147.403239,163.31417 C146.325101,163.31417 145.403239,162.719028 144.956275,161.837247 C144.772874,161.474899 144.667206,161.065182 144.667206,160.626316 C144.667206,159.153036 145.881781,157.97085 147.403239,157.97085 C148.9417,157.97085 150.123482,159.153036 150.123482,160.626316 C150.123482,160.753441 150.112146,160.876923 150.095951,160.998785 C149.918623,162.321862 148.812146,163.31417 147.403239,163.31417 Z M199.003239,106.21417 C199.003239,106.21417 197.684211,104.327126 197.336437,103.830769 C197.376923,103.383401 197.44413,102.648178 197.445344,102.632794 C197.824696,102.253441 198.905668,101.172874 198.905668,101.172874 L199.935223,94.4068826 L198.429555,88.7995951 C198.429555,88.7995951 197.144534,86.9834008 196.895142,86.6311741 C196.829555,86.2412955 196.567206,84.6647773 196.567206,84.6647773 C196.567206,84.6647773 195.314575,83.2044534 194.831984,82.6421053 C194.95749,82.0615385 195.244939,80.7421053 195.244939,80.7421053 L192.173684,75.9659919 C192.173684,75.9659919 191.159109,75.1210526 190.704453,74.7417004 C190.628745,73.8089069 188.394332,46.4935223 188.394332,46.4935223 L180.812955,46.2052632 C180.812955,46.2052632 180.417814,46.4380567 180.369636,46.4659919 C179.581377,45.9469636 177.519838,44.5898785 177.519838,44.5898785 C177.519838,44.5898785 175.887045,44.5898785 175.461134,44.5898785 C174.984211,44.3327935 168.028745,40.5866397 168.028745,40.5866397 C168.028745,40.5866397 165.095547,42.1769231 164.647368,42.4202429 C164.112146,42.4093117 159.954656,42.3275304 159.954656,42.3275304 C159.954656,42.3275304 156.697166,43.588664 156.509717,43.6611336 C156.311336,43.6983806 152.74251,44.3672065 152.74251,44.3672065 C152.74251,44.3672065 152.001215,44.9506073 151.528745,45.3210526 C150.716599,44.8206478 148.85749,43.6769231 148.85749,43.6769231 C148.85749,43.6769231 148.086235,43.8198381 147.849393,43.8639676 C147.849393,42.0093117 147.849393,36.5129555 147.849393,36.5129555 C147.849393,36.5129555 113.302834,36.5133603 112.78583,36.5133603 C112.426316,36.3421053 110.383806,35.3704453 109.676923,35.0340081 C109.676923,33.4736842 109.677733,22.3684211 109.677733,22.3684211 C109.677733,22.3684211 104.263158,16.8967611 103.668016,16.2947368 C103.668016,15.4016194 103.668016,0.051417004 103.668016,0.051417004 L52.9323887,0.051417004 C52.9323887,0.051417004 52.9323887,6.85991903 52.9323887,8.58825911 C52.0574899,8.58825911 50.6704453,8.58825911 50.6704453,8.58825911 L30.8230769,24.9024291 L30.8230769,52.4469636 C30.8230769,52.4469636 37.2663968,58.4004049 40.0680162,60.9890688 C36.8979757,60.9890688 30.8230769,60.9890688 30.8230769,60.9890688 C30.8230769,60.9890688 30.8230769,74.1445344 30.8230769,76.1161943 C28.6862348,76.1161943 1.06882591,76.1161943 1.06882591,76.1161943 L0,82.3607287 L2.46720648,86.5352227 C2.46720648,86.5352227 4.67327935,88.0060729 5.0582996,88.262753 C5.29149798,88.6801619 6.89433198,91.5477733 6.89433198,91.5477733 C6.89433198,91.5477733 9.69959514,93.4898785 9.88421053,93.617004 C10.0469636,93.7890688 18.8101215,103.033603 18.8101215,103.033603 C18.8101215,103.033603 24.8072874,106.949393 25.2910931,107.265587 C25.3319838,107.347773 25.337247,107.357895 25.3793522,107.442915 C25.3263158,107.924291 25.1234818,109.746964 25.1234818,109.746964 C25.1234818,109.746964 27.2518219,112.318623 27.6672065,112.820243 C27.6785425,113.521862 27.7607287,118.542915 27.7607287,118.542915 L32.4,125.433603 L42.2902834,131.562753 L52.9263158,137.172065 L57.8700405,135.517004 L61.4473684,130.373684 C61.4473684,130.373684 64.4672065,124.435223 64.7854251,123.809312 C65.5076923,123.97166 67.0947368,124.32834 67.0947368,124.32834 C67.0947368,124.32834 67.7663968,123.672874 67.9024291,123.540486 C67.9024291,125.623077 67.9024291,131.072874 67.9024291,131.072874 C67.9024291,131.072874 84.434413,131.072874 85.0898785,131.072874 C85.311336,131.216194 85.9214575,131.611741 86.1611336,131.767611 C86.2935223,131.991498 87.0510121,133.276113 87.1121457,133.380972 C87.1651822,133.499595 90.417004,140.814575 90.417004,140.814575 C90.417004,140.814575 90.7906883,141.368421 90.9995951,141.678138 C90.9995951,142.358704 90.9995951,160.998785 90.9995951,160.998785 C90.9995951,160.998785 102.968826,160.998785 104.805263,160.998785 C104.861134,161.836437 104.949393,163.1583 104.949393,163.1583 C104.949393,163.1583 106.19919,164.658704 106.553036,165.082996 C106.584211,165.672874 106.716194,168.188259 106.716194,168.188259 C106.716194,168.188259 108.921457,170.794332 109.091498,170.995142 C109.21336,171.245749 113.472874,179.957085 113.472874,179.957085 C113.472874,179.957085 117.845749,180.417004 118.199595,180.454251 C118.525911,180.607287 122.674899,182.553036 122.675709,182.553036 C122.675709,182.555466 128.058704,185.424696 128.058704,185.424696 L128.292308,185.549798 C128.292308,185.549798 135.950202,185.850202 136.488664,185.871255 C136.949393,186.141296 143.321457,189.878543 143.321457,189.878543 C143.321457,189.878543 145.607692,187.277733 146.217409,186.584615 C147.130364,186.750607 151.025911,187.45749 151.025911,187.45749 L151.025911,178.829555 C151.025911,178.829555 147.202429,175.963563 146.708502,175.593927 C146.529555,175.072874 143.979757,167.647368 143.788259,167.089474 C143.802429,167.025506 143.830769,166.898381 143.868016,166.729555 C144.916599,167.307287 146.120243,167.637652 147.402024,167.637652 C151.217814,167.637652 154.351012,164.723077 154.701619,160.998785 C164.622672,160.998785 178.810121,160.998785 178.810121,160.998785 L178.810121,127.187045 C178.810121,127.187045 178.679757,127.187045 178.634818,127.187045 C178.657085,127.168016 180.126721,125.931174 181.15587,125.064372 C181.265992,125.267206 181.384211,125.483806 181.384211,125.483806 C181.384211,125.483806 189.838462,120.772874 190.268421,120.532794 C190.745344,120.502024 197.618623,120.0583 197.618623,120.0583 C197.618623,120.0583 196.068826,115.3 195.794332,114.455061 C196.182996,113.881377 197.030769,112.629555 197.030769,112.629555 L199.003239,106.21417 L199.003239,106.21417 Z" id="Fill-1" fill="#FFFFFE" mask="url(#mask-2)"></path>
                </g>
                <path d="M148.034818,162.019028 C147.954251,161.921862 147.905668,161.678947 147.824291,161.371255 C147.791903,161.175304 147.701619,161.0583 147.546964,160.998785 C147.47166,160.969636 147.385425,160.950202 147.274089,160.950202 L146.982186,160.950202 L146.982186,162.019028 L146.367206,162.019028 L146.367206,159.363563 C146.609717,159.31498 146.949798,159.282591 147.387045,159.282591 C147.889474,159.282591 148.115789,159.363563 148.310526,159.476923 C148.45587,159.590283 148.569231,159.80081 148.569231,160.059514 C148.569231,160.351012 148.34251,160.577733 148.018623,160.674899 L148.018623,160.707287 C148.171255,160.764372 148.280567,160.861134 148.364372,160.998785 C148.423077,161.095142 148.471255,161.208502 148.504453,161.355061 C148.585425,161.759919 148.634008,161.921862 148.698785,162.019028 L148.034818,162.019028 Z M147.403239,158.505263 C146.221457,158.505263 145.346964,159.460729 145.346964,160.626316 C145.346964,160.754251 145.361943,160.877733 145.381781,160.998785 C145.544534,161.998785 146.351012,162.747773 147.419433,162.747773 C148.463563,162.747773 149.255061,161.993117 149.410526,160.998785 C149.428745,160.882591 149.44332,160.764777 149.44332,160.64251 C149.44332,159.460729 148.585425,158.505263 147.403239,158.505263 L147.403239,158.505263 Z" id="Fill-4" fill="#FFFFFE"></path>
                <path d="M147.338462,159.719838 C147.176923,159.719838 147.063158,159.736032 146.998381,159.752227 L146.998381,160.51336 L147.289879,160.51336 C147.62996,160.51336 147.905668,160.399595 147.905668,160.124696 C147.905668,159.881377 147.727126,159.719838 147.338462,159.719838" id="Fill-5" fill="#FFFFFE"></path>
                <path d="M104.24413,126.795951 L88.4218623,126.795951 C89.3012146,127.366802 90.1680162,127.92915 90.1680162,127.92915 L91.9226721,130.906073 C91.9226721,130.906073 95.0805668,138.010121 95.159919,138.187449 C95.1700405,138.202429 95.211336,138.263968 95.2765182,138.360324 L95.2765182,132.455466 L101.997166,132.455466 L104.24413,126.795951" id="Fill-6" fill="#FFFFFE"></path>
                <path d="M78.3947368,97.6125506 L52.2024291,97.6125506 L35.1,83.2004049 L35.1,81.5186235 C21.548583,81.5186235 6.89311741,81.5186235 5.77611336,81.5186235 C6.06396761,82.0052632 6.34817814,82.4854251 6.48987854,82.7238866 C6.85020243,82.965587 9.13805668,84.4906883 9.13805668,84.4906883 C9.13805668,84.4906883 10.7769231,87.4251012 10.9979757,87.8190283 C11.357085,88.0680162 13.4190283,89.4951417 13.4190283,89.4951417 C13.4190283,89.4951417 22.1157895,98.6704453 22.2935223,98.8578947 C22.508502,98.997166 29.4684211,103.5417 29.4684211,103.5417 L30.9251012,106.453441 C30.9251012,106.453441 30.8020243,107.563158 30.745749,108.068016 C31.2064777,108.624291 33.0364372,110.837247 33.0364372,110.837247 C33.0364372,110.837247 33.1255061,116.260324 33.1360324,116.855061 C33.4534413,117.327935 35.9967611,121.105668 36.2315789,121.453441 C36.6230769,121.696761 44.9125506,126.831579 44.9765182,126.87085 C45.0412955,126.906478 52.6323887,130.910931 53.4016194,131.317004 C53.791498,131.18502 54.1323887,131.071255 54.4574899,130.962348 C54.8097166,130.45668 56.7222672,127.706883 56.8004049,127.593927 C56.8688259,127.459514 60.3647773,120.587045 60.3647773,120.587045 L60.4449393,120.488664 C60.4449393,120.488664 61.4214575,119.318219 61.4502024,119.284615 L62.7696356,117.817814 C62.7696356,117.817814 64.7121457,118.25668 65.4202429,118.415385 C65.8404858,118.006883 66.8477733,117.023077 66.8477733,117.023077 C66.8477733,117.023077 70.3267206,117.825911 72.1793522,118.253846 L72.1793522,103.47085 L78.3947368,103.47085 L78.3947368,97.6125506" id="Fill-7" fill="#FFFFFE"></path>
                <path d="M77.245749,72.5093117 L77.245749,63.1315789 L58.3336032,63.1315789 C58.3336032,63.8566802 58.3336032,64.5688259 58.3336032,65.2659919 L63.8910931,65.2659919 L63.8910931,72.5093117 L77.245749,72.5093117" id="Fill-8" fill="#FFFFFE"></path>
                <polygon id="Fill-9" fill="#FFFFFE" points="64.2242915 40.7894737 80.4716599 40.7894737 80.4716599 35.4672065 64.2242915 35.4672065"></polygon>
                <polyline id="Fill-10" fill="#FFFFFE" points="117.981377 94.811336 116.518623 94.811336 116.518623 92.8854251 107.496356 92.8854251 107.496356 103.374089 113.378947 103.374089 113.378947 105.087449 117.981377 94.811336"></polyline>
                <path d="M179.451012,82.6582996 L179.421457,88.1842105 L175.465182,85.0295547 L170.21417,88.1842105 L173.129555,82.6582996 L169.32915,79.0963563 L175.204858,79.0963563 L178.503644,73.4773279 L179.15668,79.0963563 L185.20081,79.0963563 L179.451012,82.6582996 Z M191.77085,88.742915 C191.77085,88.742915 191.55749,87.4595142 191.48664,87.0388664 C191.146964,86.6425101 188.983806,84.1190283 188.983806,84.1190283 C188.983806,84.1190283 189.366397,82.3607287 189.492308,81.7817814 C189.144939,81.2425101 188.220648,79.8064777 188.078543,79.5850202 C187.84332,79.388664 185.506883,77.4404858 185.506883,77.4404858 C185.506883,77.4404858 183.551012,53.5497976 183.4,51.7093117 C182.822672,51.6878543 182.461943,51.6732794 182.187854,51.662753 C181.797571,51.8919028 180.207692,52.8271255 180.207692,52.8271255 C180.207692,52.8271255 176.387854,50.311336 175.899595,49.9910931 C175.449798,49.9910931 174.09919,49.9910931 174.09919,49.9910931 C174.09919,49.9910931 168.934818,47.2101215 168.037247,46.7267206 C167.4,47.0720648 165.967206,47.848583 165.967206,47.848583 C165.967206,47.848583 161.316599,47.757085 160.912955,47.748583 C160.553036,47.8878543 157.995142,48.8781377 157.995142,48.8781377 C157.995142,48.8781377 155.490283,49.3481781 155.039271,49.4327935 C154.67166,49.7214575 151.904858,51.8951417 151.904858,51.8951417 C151.904858,51.8951417 148.399595,49.7376518 147.797571,49.3672065 C147.198785,49.4781377 145.030769,49.8801619 145.030769,49.8801619 C145.030769,49.8801619 144.140081,49.0510121 143.736032,48.6773279 C143.675709,48.697166 143.625911,48.7133603 143.57247,48.7307692 L143.57247,67.2866397 L116.406478,67.2866397 L116.406478,62.5089069 L107.753036,62.5089069 L107.753036,71.5186235 L153.997571,71.5186235 L153.997571,94.2246964 L153.020648,94.2246964 L167.593117,130.898785 L167.621862,130.97085 C170.077328,129.440486 172.159109,128.14332 172.472065,127.948178 C172.584211,127.234818 172.946154,124.917004 172.946154,124.917004 C172.946154,124.917004 175.259514,122.966802 176.220243,122.159919 C175.61498,121.225506 174.366802,119.294332 174.366802,119.294332 L174.850607,116.710526 L178.197571,115.224291 L180.859514,114.980162 C180.859514,114.980162 180.579757,117.082186 180.48583,117.783401 C181.381377,117.625911 183.089069,117.324291 183.089069,117.324291 C183.089069,117.324291 183.512146,118.10081 183.517814,118.110526 C184.895951,117.343725 188.704453,115.221053 188.704453,115.221053 C188.704453,115.221053 189.64251,115.159514 190.329555,115.116194 C190.174089,114.639676 189.840081,113.61336 189.840081,113.61336 C189.840081,113.61336 191.934413,110.522672 192.104858,110.269636 C192.182996,110.016194 192.838462,107.890688 193.065992,107.148583 C192.692713,106.61417 191.778138,105.308097 191.778138,105.308097 L192.242105,100.196356 C192.242105,100.196356 193.47004,98.9696356 193.831984,98.6080972 C193.920243,98.0259109 194.365587,95.0959514 194.425101,94.7137652 C194.320243,94.3295547 193.551822,91.4631579 193.463563,91.1319838 C193.261943,90.848583 191.77085,88.742915 191.77085,88.742915 L191.77085,88.742915 Z" id="Fill-11" fill="#FFFFFE"></path>
                <path d="M94.2562753,12.8647773 L98.2668016,16.9165992 C98.2668016,11.1692308 98.2668016,6.25708502 98.2668016,5.45263158 C96.1931174,5.45263158 60.4068826,5.45263158 58.3336032,5.45263158 C58.3336032,5.84898785 58.3336032,8.61133603 58.3336032,12.8647773 L94.2562753,12.8647773" id="Fill-12" fill="#FFFFFE"></path>
                <path d="M108.930364,40.6607287 C108.865182,40.7004049 108.792308,40.7449393 108.71498,40.7919028 L109.205668,40.7919028 C109.11417,40.7481781 109.022267,40.7044534 108.930364,40.6607287" id="Fill-13" fill="#FFFFFE"></path>
                <path d="M137.082591,156.721862 L137.082591,138.321457 L132.950607,138.321457 L132.950607,156.721862 L109.934008,156.721862 C109.993927,157.619838 110.187045,160.521457 110.221457,161.046964 C110.564777,161.459919 111.852227,163.004858 111.852227,163.004858 C111.852227,163.004858 111.984211,165.506073 112.015385,166.088259 C112.380162,166.520243 113.647773,168.018219 113.647773,168.018219 C113.647773,168.018219 116.545344,173.944534 117.012146,174.898381 C117.802429,174.981377 119.667611,175.177328 119.667611,175.177328 L125.066802,177.708502 C125.066802,177.708502 129.32753,179.980972 129.740081,180.201619 C130.224696,180.220243 138.053441,180.526721 138.053441,180.526721 C138.053441,180.526721 141.105263,182.315789 142.208907,182.963563 C142.837247,182.246559 144.176113,180.725506 144.176113,180.725506 C144.176113,180.725506 144.50081,180.783401 144.667206,180.813765 C143.601215,180.015385 142.139271,178.919838 142.139271,178.919838 L138.185425,167.403644 C138.185425,167.403644 139.293117,162.421457 139.457085,161.676518 C139.217409,161.269636 138.371255,159.837247 138.371255,159.837247 C138.371255,159.837247 140.847773,157.693117 141.971255,156.721862 L137.082591,156.721862" id="Fill-14" fill="#FFFFFE"></path>
                <path d="M193.831984,98.6080972 C193.47004,98.9696356 192.242105,100.196356 192.242105,100.196356 L191.778138,105.308097 C191.778138,105.308097 192.692713,106.61417 193.065992,107.148583 C192.838462,107.890688 192.182996,110.016194 192.104858,110.269636 C191.934413,110.522672 189.840081,113.61336 189.840081,113.61336 C189.840081,113.61336 190.174089,114.639676 190.329555,115.116194 C189.64251,115.159514 188.704453,115.221053 188.704453,115.221053 C188.704453,115.221053 184.895951,117.343725 183.517814,118.110526 C183.512146,118.10081 183.089069,117.324291 183.089069,117.324291 C183.089069,117.324291 181.381377,117.625911 180.48583,117.783401 C180.579757,117.082186 180.859514,114.980162 180.859514,114.980162 L178.197571,115.224291 L174.850607,116.710526 L174.366802,119.294332 C174.366802,119.294332 175.61498,121.225506 176.220243,122.159919 C175.259514,122.966802 172.946154,124.917004 172.946154,124.917004 C172.946154,124.917004 172.584211,127.234818 172.472065,127.948178 C172.159109,128.14332 170.077328,129.440486 167.621862,130.97085 L167.593117,130.898785 L153.020648,94.2246964 L153.997571,94.2246964 L153.997571,71.5186235 L107.753036,71.5186235 L107.753036,62.5089069 L116.406478,62.5089069 L116.406478,67.2866397 L143.57247,67.2866397 L143.57247,48.7307692 C143.625911,48.7133603 143.675709,48.697166 143.736032,48.6773279 C144.140081,49.0510121 145.030769,49.8801619 145.030769,49.8801619 C145.030769,49.8801619 147.198785,49.4781377 147.797571,49.3672065 C148.399595,49.7376518 151.904858,51.8951417 151.904858,51.8951417 C151.904858,51.8951417 154.67166,49.7214575 155.039271,49.4327935 C155.490283,49.3481781 157.995142,48.8781377 157.995142,48.8781377 C157.995142,48.8781377 160.553036,47.8878543 160.912955,47.748583 C161.316599,47.757085 165.967206,47.848583 165.967206,47.848583 C165.967206,47.848583 167.4,47.0720648 168.037247,46.7267206 C168.934818,47.2101215 174.09919,49.9910931 174.09919,49.9910931 C174.09919,49.9910931 175.449798,49.9910931 175.899595,49.9910931 C176.387854,50.311336 180.207692,52.8271255 180.207692,52.8271255 C180.207692,52.8271255 181.797571,51.8919028 182.187854,51.662753 C182.461943,51.6732794 182.822672,51.6878543 183.4,51.7093117 C183.551012,53.5497976 185.506883,77.4404858 185.506883,77.4404858 C185.506883,77.4404858 187.84332,79.388664 188.078543,79.5850202 C188.220648,79.8064777 189.144939,81.2425101 189.492308,81.7817814 C189.366397,82.3607287 188.983806,84.1190283 188.983806,84.1190283 C188.983806,84.1190283 191.146964,86.6425101 191.48664,87.0388664 C191.55749,87.4595142 191.77085,88.742915 191.77085,88.742915 C191.77085,88.742915 193.261943,90.848583 193.463563,91.1319838 C193.551822,91.4631579 194.320243,94.3295547 194.425101,94.7137652 C194.365587,95.0959514 193.920243,98.0259109 193.831984,98.6080972 Z M171.436032,134.090688 L171.436032,153.582591 L140.052227,153.582591 L140.052227,135.02996 L129.998381,135.02996 L129.998381,153.582591 L98.1619433,153.582591 L98.1619433,135.02996 L104.045749,135.02996 L122.499595,91.588664 L119.494737,91.588664 L119.494737,74.3121457 L151.104858,74.3121457 L151.104858,91.588664 L148.778543,91.588664 L165.84413,134.090688 L171.436032,134.090688 Z M138.371255,159.837247 C138.371255,159.837247 139.217409,161.269636 139.457085,161.676518 C139.293117,162.421457 138.185425,167.403644 138.185425,167.403644 L142.139271,178.919838 C142.139271,178.919838 143.601215,180.015385 144.667206,180.813765 C144.50081,180.783401 144.176113,180.725506 144.176113,180.725506 C144.176113,180.725506 142.837247,182.246559 142.208907,182.963563 C141.105263,182.315789 138.053441,180.526721 138.053441,180.526721 C138.053441,180.526721 130.224696,180.220243 129.740081,180.201619 C129.32753,179.980972 125.066802,177.708502 125.066802,177.708502 L119.667611,175.177328 C119.667611,175.177328 117.802429,174.981377 117.012146,174.898381 C116.545344,173.944534 113.647773,168.018219 113.647773,168.018219 C113.647773,168.018219 112.380162,166.520243 112.015385,166.088259 C111.984211,165.506073 111.852227,163.004858 111.852227,163.004858 C111.852227,163.004858 110.564777,161.459919 110.221457,161.046964 C110.187045,160.521457 109.993927,157.619838 109.934008,156.721862 L132.950607,156.721862 L132.950607,138.321457 L137.082591,138.321457 L137.082591,156.721862 L141.971255,156.721862 C140.847773,157.693117 138.371255,159.837247 138.371255,159.837247 Z M95.2765182,137.231579 L95.2765182,138.360324 C95.211336,138.263968 95.1700405,138.202429 95.159919,138.187449 C95.0805668,138.010121 91.9226721,130.906073 91.9226721,130.906073 L90.1680162,127.92915 C90.1680162,127.92915 89.3012146,127.366802 88.4218623,126.795951 L104.24413,126.795951 L101.997166,132.455466 L95.2765182,132.455466 L95.2765182,137.231579 Z M107.496356,103.374089 L107.496356,92.8854251 L116.518623,92.8854251 L116.518623,94.811336 L117.981377,94.811336 L113.378947,105.087449 L113.378947,103.374089 L107.496356,103.374089 Z M74.9919028,123.761538 L74.9919028,106.380567 L81.3352227,106.380567 L81.3352227,60.1336032 L76.4246964,60.1336032 L76.4246964,43.8663968 L140.662348,43.8663968 L140.662348,64.4473684 L119.387045,64.4473684 L119.387045,59.5222672 L104.840486,59.5222672 L104.840486,74.6376518 L116.642105,74.6376518 L116.642105,78.0983806 L101.367206,78.0983806 L101.367206,56.0348178 L122.91417,56.0348178 L122.91417,60.8340081 L137.17247,60.8340081 L137.17247,47.1607287 L79.8566802,47.1607287 L79.8566802,56.7251012 L84.8303644,56.7251012 L84.8303644,109.797166 L78.5797571,109.797166 L78.5797571,120.292713 L106.891093,120.292713 L106.891093,109.797166 L101.367206,109.797166 L101.367206,86.6611336 L116.642105,86.6611336 L116.642105,90.002834 L104.504858,90.002834 L104.504858,106.380567 L110.390688,106.380567 L110.390688,112.382186 L105.489069,123.761538 L74.9919028,123.761538 Z M72.1793522,117.546154 L72.1793522,118.253846 C70.3267206,117.825911 66.8477733,117.023077 66.8477733,117.023077 C66.8477733,117.023077 65.8404858,118.006883 65.4202429,118.415385 C64.7121457,118.25668 62.7696356,117.817814 62.7696356,117.817814 L61.4502024,119.284615 C61.4214575,119.318219 60.4449393,120.488664 60.4449393,120.488664 L60.3647773,120.587045 C60.3647773,120.587045 56.8688259,127.459514 56.8004049,127.593927 C56.7222672,127.706883 54.8097166,130.45668 54.4574899,130.962348 C54.1323887,131.071255 53.791498,131.18502 53.4016194,131.317004 C52.6323887,130.910931 45.0412955,126.906478 44.9765182,126.87085 C44.9125506,126.831579 36.6230769,121.696761 36.2315789,121.453441 C35.9967611,121.105668 33.4534413,117.327935 33.1360324,116.855061 C33.1255061,116.260324 33.0364372,110.837247 33.0364372,110.837247 C33.0364372,110.837247 31.2064777,108.624291 30.745749,108.068016 C30.8020243,107.563158 30.9251012,106.453441 30.9251012,106.453441 L29.4684211,103.5417 C29.4684211,103.5417 22.508502,98.997166 22.2935223,98.8578947 C22.1157895,98.6704453 13.4190283,89.4951417 13.4190283,89.4951417 C13.4190283,89.4951417 11.357085,88.0680162 10.9979757,87.8190283 C10.7769231,87.4251012 9.13805668,84.4906883 9.13805668,84.4906883 C9.13805668,84.4906883 6.85020243,82.965587 6.48987854,82.7238866 C6.34817814,82.4854251 6.06396761,82.0052632 5.77611336,81.5186235 C6.89311741,81.5186235 21.548583,81.5186235 35.1,81.5186235 L35.1,83.2004049 L52.2024291,97.6125506 L78.3947368,97.6125506 L78.3947368,103.47085 L72.1793522,103.47085 L72.1793522,117.546154 Z M38.0291498,68.2716599 L61.1854251,68.2716599 L61.1854251,75.4805668 L78.4408907,75.4805668 L78.4408907,78.9449393 L57.4032389,78.9449393 L57.4032389,71.7433198 L41.4489879,71.7433198 L41.4489879,80.0356275 L54.5331984,91.2182186 L78.4408907,91.2182186 L78.4408907,94.6870445 L53.1870445,94.6870445 L38.0291498,81.8530364 L38.0291498,68.2716599 Z M58.3336032,65.2659919 C58.3336032,64.5688259 58.3336032,63.8566802 58.3336032,63.1315789 L77.245749,63.1315789 L77.245749,72.5093117 L63.8910931,72.5093117 L63.8910931,65.2659919 L58.3336032,65.2659919 Z M64.2242915,40.7894737 L80.4716599,40.7894737 L80.4716599,35.4672065 L64.2242915,35.4672065 L64.2242915,40.7894737 Z M49.5878543,60.1336032 L38.0291498,49.2635628 L38.0291498,28.211336 L53.1870445,15.7724696 L93.1076923,15.7724696 L102.717004,25.7607287 L102.717004,37.3214575 L83.4619433,37.3214575 L83.4619433,32.5761134 L61.1854251,32.5761134 L61.1854251,43.8663968 L73.5105263,43.8663968 L73.5105263,47.3506073 L57.6619433,47.3506073 L57.6619433,29.0643725 L86.9591093,29.0643725 L86.9591093,33.8040486 L100.04251,33.8040486 L100.04251,27.1870445 L91.6230769,19.1016194 L54.5348178,19.1016194 L41.4396761,29.8275304 L41.4396761,47.7356275 L51.2898785,56.7724696 L73.5105263,56.7724696 L73.5105263,60.1336032 L49.5878543,60.1336032 Z M58.3336032,5.45263158 C60.4068826,5.45263158 96.1931174,5.45263158 98.2668016,5.45263158 C98.2668016,6.25708502 98.2668016,11.1692308 98.2668016,16.9165992 L94.2562753,12.8647773 L58.3336032,12.8647773 C58.3336032,8.61133603 58.3336032,5.84898785 58.3336032,5.45263158 Z M108.930364,40.6607287 C109.022267,40.7044534 109.11417,40.7481781 109.205668,40.7919028 L108.71498,40.7919028 C108.792308,40.7449393 108.865182,40.7004049 108.930364,40.6607287 Z M193.904858,87.8635628 C193.84332,87.4906883 193.603644,86.0518219 193.603644,86.0518219 C193.603644,86.0518219 191.939271,84.1089069 191.419028,83.5032389 C191.55587,82.8769231 191.887449,81.3493927 191.887449,81.3493927 L189.78502,78.0781377 C189.78502,78.0781377 188.189879,76.7489879 187.67166,76.3161943 C187.596761,75.4097166 185.480567,49.5380567 185.480567,49.5380567 L181.615385,49.3890688 C181.615385,49.3890688 180.763158,49.8898785 180.275304,50.1777328 C179.421862,49.6161943 176.576113,47.7408907 176.576113,47.7408907 C176.576113,47.7408907 175.073279,47.7408907 174.665992,47.7408907 C174.205668,47.4923077 168.034008,44.1704453 168.034008,44.1704453 C168.034008,44.1704453 165.830769,45.3643725 165.417409,45.5870445 C164.893117,45.5769231 160.512955,45.491498 160.512955,45.491498 C160.512955,45.491498 157.5583,46.6356275 157.377328,46.7048583 C157.185425,46.7417004 154.081781,47.3230769 154.081781,47.3230769 C154.081781,47.3230769 152.488259,48.5753036 151.748583,49.1562753 C150.840486,48.5979757 148.239676,46.9979757 148.239676,46.9979757 C148.239676,46.9979757 146.425101,47.334413 145.734008,47.4619433 C145.331174,47.0882591 144.295547,46.1259109 144.295547,46.1259109 L143.57247,46.3631579 L143.57247,40.7894737 L112.903239,40.7894737 L112.170445,40.7898785 C111.851012,40.0502024 111.62753,39.4526316 111.62753,39.4526316 L108.795951,38.1044534 C108.795951,38.1044534 107.175709,39.0951417 106.789069,39.3323887 C106.429555,39.3323887 105.819838,39.3323887 105.463968,39.3323887 C105.445344,39.3214575 105.420648,39.3064777 105.399595,39.2939271 L105.400405,39.2202429 L105.400405,24.1267206 L100.516194,19.1906883 C100.516194,11.1295547 100.516194,3.20283401 100.516194,3.20283401 L56.0838057,3.20283401 C56.0838057,3.20283401 56.0838057,6.98582996 56.0838057,12.8647773 L52.2024291,12.8647773 L35.1,26.9230769 L35.1,50.5757085 L48.6894737,63.1315789 L56.0838057,63.1315789 C56.0838057,63.859919 56.0838057,64.5716599 56.0838057,65.2659919 L35.1,65.2659919 L35.1,79.2688259 C20.5210526,79.2688259 3.72631579,79.2688259 3.72631579,79.2688259 L3.30242915,81.7530364 L4.8145749,84.311336 C4.8145749,84.311336 7.06072874,85.8097166 7.43927126,86.0619433 C7.66761134,86.4696356 9.28906883,89.3720648 9.28906883,89.3720648 C9.28906883,89.3720648 11.7692308,91.0890688 11.9461538,91.211336 C12.1036437,91.3781377 20.842915,100.596761 20.842915,100.596761 C20.842915,100.596761 27.2550607,104.783401 27.7287449,105.091093 C27.9117409,105.457085 28.4186235,106.473279 28.6157895,106.865992 C28.5676113,107.301619 28.4048583,108.767206 28.4048583,108.767206 C28.4048583,108.767206 30.3991903,111.177733 30.7995951,111.661538 C30.8117409,112.351012 30.8967611,117.557085 30.8967611,117.557085 L34.6356275,123.112551 L43.8582996,128.825911 L53.2036437,133.755466 L55.8785425,132.857895 L58.7360324,128.752632 C58.7360324,128.752632 62.1441296,122.050607 62.2550607,121.832389 C62.3906883,121.668016 63.148583,120.758704 63.1497976,120.758704 C63.1497976,120.757895 63.3530364,120.533603 63.5607287,120.302429 C64.2894737,120.466802 66.1178138,120.878543 66.1178138,120.878543 C66.1178138,120.878543 67.1190283,119.902429 67.5396761,119.491093 C68.1534413,119.632794 70.5044534,120.175709 72.1793522,120.562348 L72.1793522,126.795951 L84.6643725,126.795951 C84.7097166,126.981377 84.7360324,127.087045 84.7360324,127.087045 C84.7360324,127.087045 88.1076923,129.274089 88.5,129.52753 C88.7190283,129.90081 89.8619433,131.840081 89.9194332,131.937652 C89.9708502,132.051822 93.1838057,139.282996 93.1838057,139.282996 L95.2765182,142.379757 L95.2765182,156.721862 L107.67247,156.721862 C107.677733,156.745749 107.681377,156.764777 107.682996,156.77166 C107.693522,156.930364 108.026316,161.926721 108.026316,161.926721 C108.026316,161.926721 109.296356,163.453036 109.644939,163.869636 C109.676518,164.447773 109.807287,166.963563 109.807287,166.963563 C109.807287,166.963563 111.587449,169.065992 111.750607,169.2583 C111.868016,169.50081 115.537652,177.005263 115.537652,177.005263 C115.537652,177.005263 118.724696,177.339676 119.05587,177.374899 C119.375709,177.524291 124.008907,179.697571 124.059109,179.721457 C124.109717,179.748178 129.137247,182.42915 129.137247,182.42915 C129.137247,182.42915 136.875709,182.733198 137.402024,182.752632 C137.840081,183.009717 142.673279,185.84251 142.673279,185.84251 C142.673279,185.84251 144.480162,183.78502 145.025506,183.165587 C145.654656,183.278947 147.873684,183.683401 147.873684,183.683401 L147.873684,180.405263 C147.873684,180.405263 144.516194,177.889879 144.04251,177.534413 C143.837652,176.936032 140.707692,167.822672 140.519028,167.272874 C140.64251,166.719028 141.846964,161.297571 141.846964,161.297571 C141.846964,161.297571 141.437652,160.604858 141.262753,160.309717 C142.179352,159.516599 144.373279,157.617004 144.373279,157.617004 C144.373279,157.617004 144.507692,157.276518 144.726721,156.721862 L174.533198,156.721862 L174.533198,131.464372 L171.083806,131.464372 C173.079757,130.220243 174.536032,129.312146 174.536032,129.312146 C174.536032,129.312146 174.941296,126.719838 175.038866,126.094737 C175.574899,125.642915 179.187045,122.602429 179.187045,122.602429 C179.187045,122.602429 177.12753,119.419838 176.74251,118.82753 C176.784211,118.608097 176.797571,118.538866 176.844534,118.286235 C177.295951,118.086235 177.68502,117.912146 178.232389,117.670445 C178.14251,118.335223 177.849393,120.533603 177.849393,120.533603 C177.849393,120.533603 180.967206,119.983401 181.88664,119.822267 C181.976113,119.984615 182.629555,121.181781 182.629555,121.181781 C182.629555,121.181781 188.944939,117.663563 189.355061,117.433603 C189.775709,117.406883 193.363563,117.174089 193.363563,117.174089 C193.363563,117.174089 192.526316,114.597571 192.321457,113.962753 C192.764372,113.305668 194.15668,111.253036 194.15668,111.253036 L195.539271,106.757895 C195.539271,106.757895 194.415789,105.154251 194.091903,104.691903 C194.148178,104.091903 194.355061,101.806478 194.409312,101.211336 C194.793522,100.827935 195.944939,99.6761134 195.944939,99.6761134 L196.718623,94.5854251 L195.531579,90.159919 C195.531579,90.159919 194.152227,88.2125506 193.904858,87.8635628 L193.904858,87.8635628 Z" id="Fill-15" fill="#532F7C"></path>
                <polyline id="Fill-16" fill="#FFFFFE" points="73.5105263 56.7724696 51.2898785 56.7724696 41.4396761 47.7356275 41.4396761 29.8275304 54.5348178 19.1016194 91.6230769 19.1016194 100.04251 27.1870445 100.04251 33.8040486 86.9591093 33.8040486 86.9591093 29.0643725 57.6619433 29.0643725 57.6619433 47.3506073 73.5105263 47.3506073 73.5105263 43.8663968 61.1854251 43.8663968 61.1854251 32.5761134 83.4619433 32.5761134 83.4619433 37.3214575 102.717004 37.3214575 102.717004 25.7607287 93.1076923 15.7724696 53.1870445 15.7724696 38.0291498 28.211336 38.0291498 49.2635628 49.5878543 60.1336032 73.5105263 60.1336032 73.5105263 56.7724696"></polyline>
                <polyline id="Fill-17" fill="#FFFFFE" points="78.4408907 94.6870445 78.4408907 91.2182186 54.5331984 91.2182186 41.4489879 80.0356275 41.4489879 71.7433198 57.4032389 71.7433198 57.4032389 78.9449393 78.4408907 78.9449393 78.4408907 75.4805668 61.1854251 75.4805668 61.1854251 68.2716599 38.0291498 68.2716599 38.0291498 81.8530364 53.1870445 94.6870445 78.4408907 94.6870445"></polyline>
                <polyline id="Fill-18" fill="#FFFFFE" points="110.390688 112.382186 110.390688 106.380567 104.504858 106.380567 104.504858 90.002834 116.642105 90.002834 116.642105 86.6611336 101.367206 86.6611336 101.367206 109.797166 106.891093 109.797166 106.891093 120.292713 78.5797571 120.292713 78.5797571 109.797166 84.8303644 109.797166 84.8303644 56.7251012 79.8566802 56.7251012 79.8566802 47.1607287 137.17247 47.1607287 137.17247 60.8340081 122.91417 60.8340081 122.91417 56.0348178 101.367206 56.0348178 101.367206 78.0983806 116.642105 78.0983806 116.642105 74.6376518 104.840486 74.6376518 104.840486 59.5222672 119.387045 59.5222672 119.387045 64.4473684 140.662348 64.4473684 140.662348 43.8663968 76.4246964 43.8663968 76.4246964 60.1336032 81.3352227 60.1336032 81.3352227 106.380567 74.9919028 106.380567 74.9919028 123.761538 105.489069 123.761538 110.390688 112.382186"></polyline>
                <path d="M167.910931,149.878947 L143.553846,149.878947 L143.553846,138.239271 L148.423482,138.239271 L145.560729,131.582186 L124.846559,131.582186 L121.906478,138.239271 L126.483401,138.239271 L126.483401,149.878947 L101.677733,149.878947 L101.677733,138.239271 L106.475304,138.239271 L127.625911,87.7708502 L123.035223,87.7708502 L123.035223,77.8032389 L147.494737,77.8032389 L147.494737,87.7708502 L143.553846,87.7708502 L163.449798,138.239271 L167.910931,138.239271 L167.910931,149.878947 Z M148.778543,91.588664 L151.104858,91.588664 L151.104858,74.3121457 L119.494737,74.3121457 L119.494737,91.588664 L122.499595,91.588664 L104.045749,135.02996 L98.1619433,135.02996 L98.1619433,153.582591 L129.998381,153.582591 L129.998381,135.02996 L140.052227,135.02996 L140.052227,153.582591 L171.436032,153.582591 L171.436032,134.090688 L165.84413,134.090688 L148.778543,91.588664 L148.778543,91.588664 Z" id="Fill-19" fill="#FFFFFE"></path>
                <path d="M133.504858,119.776113 L135.636032,115.010121 L137.550202,119.776113 L133.504858,119.776113 Z M127.766802,123.287449 L142.097166,123.287449 L135.636032,106.35668 L127.766802,123.287449 L127.766802,123.287449 Z" id="Fill-20" fill="#FFFFFE"></path>
                <polyline id="Fill-21" fill="#532F7C" points="178.503644 73.4773279 175.204858 79.0963563 169.32915 79.0963563 173.129555 82.6582996 170.21417 88.1842105 175.465182 85.0295547 179.421457 88.1842105 179.451012 82.6582996 185.20081 79.0963563 179.15668 79.0963563 178.503644 73.4773279"></polyline>
                <path d="M127.766802,123.287449 L135.636032,106.35668 L142.097166,123.287449 L127.766802,123.287449 Z M143.553846,87.7708502 L147.494737,87.7708502 L147.494737,77.8032389 L123.035223,77.8032389 L123.035223,87.7708502 L127.625911,87.7708502 L106.475304,138.239271 L101.677733,138.239271 L101.677733,149.878947 L126.483401,149.878947 L126.483401,138.239271 L121.906478,138.239271 L124.846559,131.582186 L145.560729,131.582186 L148.423482,138.239271 L143.553846,138.239271 L143.553846,149.878947 L167.910931,149.878947 L167.910931,138.239271 L163.449798,138.239271 L143.553846,87.7708502 L143.553846,87.7708502 Z" id="Fill-22" fill="#532F7C"></path>
                <polyline id="Fill-23" fill="#532F7C" points="133.504858 119.776113 137.550202 119.776113 135.636032 115.010121 133.504858 119.776113"></polyline>
                <path d="M147.289879,160.51336 L146.998381,160.51336 L146.998381,159.752227 C147.063158,159.736032 147.176923,159.719838 147.338462,159.719838 C147.727126,159.719838 147.905668,159.881377 147.905668,160.124696 C147.905668,160.399595 147.62996,160.51336 147.289879,160.51336 Z M148.364372,160.998785 C148.280567,160.861134 148.171255,160.764372 148.018623,160.707287 L148.018623,160.674899 C148.34251,160.577733 148.569231,160.351012 148.569231,160.059514 C148.569231,159.80081 148.45587,159.590283 148.310526,159.476923 C148.115789,159.363563 147.889474,159.282591 147.387045,159.282591 C146.949798,159.282591 146.609717,159.31498 146.367206,159.363563 L146.367206,162.019028 L146.982186,162.019028 L146.982186,160.950202 L147.274089,160.950202 C147.385425,160.950202 147.47166,160.969636 147.546964,160.998785 C147.701619,161.0583 147.791903,161.175304 147.824291,161.371255 C147.905668,161.678947 147.954251,161.921862 148.034818,162.019028 L148.698785,162.019028 C148.634008,161.921862 148.585425,161.759919 148.504453,161.355061 C148.471255,161.208502 148.423077,161.095142 148.364372,160.998785 L148.364372,160.998785 Z" id="Fill-24" fill="#532F7C"></path>
                <path d="M149.410526,160.998785 C149.255061,161.993117 148.463563,162.747773 147.419433,162.747773 C146.351012,162.747773 145.544534,161.998785 145.381781,160.998785 C145.361943,160.877733 145.346964,160.754251 145.346964,160.626316 C145.346964,159.460729 146.221457,158.505263 147.403239,158.505263 C148.585425,158.505263 149.44332,159.460729 149.44332,160.64251 C149.44332,160.764777 149.428745,160.882591 149.410526,160.998785 Z M147.403239,157.97085 C145.881781,157.97085 144.667206,159.153036 144.667206,160.626316 C144.667206,161.065182 144.772874,161.474899 144.956275,161.837247 C145.403239,162.719028 146.325101,163.31417 147.403239,163.31417 C148.812146,163.31417 149.918623,162.321862 150.095951,160.998785 C150.112146,160.876923 150.123482,160.753441 150.123482,160.626316 C150.123482,159.153036 148.9417,157.97085 147.403239,157.97085 L147.403239,157.97085 Z" id="Fill-25" fill="#532F7C"></path>
            </g>
        </g>
    </g>
</svg>