<?xml version="1.0" encoding="UTF-8"?>
<svg width="200px" height="200px" viewBox="0 0 200 200" version="1.1" xmlns="http://www.w3.org/2000/svg" xmlns:xlink="http://www.w3.org/1999/xlink">
    <!-- Generator: Sketch 54.1 (76490) - https://sketchapp.com -->
    <title>stetson</title>
    <desc>Created with Sketch.</desc>
    <g id="stetson" stroke="none" stroke-width="1" fill="none" fill-rule="evenodd">
        <g id="stetson_BGL" transform="translate(0.000000, 0.000000)">
            <g id="stetson" transform="translate(0.000000, -8.000000)">
                <g id="g10" transform="translate(99.694187, 107.339455) scale(-1, 1) rotate(-180.000000) translate(-99.694187, -107.339455) translate(0.000000, 0.305819)" fill-rule="nonzero">
                    <g id="g12">
                        <path d="M153.898467,13.4837917 L152.139446,13.4837917 L152.139446,18.6128436 L151.949843,18.6128436 L150.336388,15.0238528 L149.10336,15.0238528 L147.472779,18.6764521 L147.236694,18.6764521 L147.236694,13.4837917 L145.569415,13.4837917 L145.569415,20.0453818 L148.424461,20.0453818 L149.746785,16.8368192 L151.125378,20.0453818 L153.898467,20.0453818 L153.898467,13.4837917 Z M144.527214,18.6214063 L142.650761,18.6214063 L142.650761,13.4837917 L140.8844,13.4837917 L140.8844,18.6214063 L139.007948,18.6214063 L139.007948,20.0453818 L144.527214,20.0453818 L144.527214,18.6214063 L144.527214,18.6214063 Z" id="path14" fill="#1E513D"></path>
                        <path d="M198.612839,89.3272149 C173.486234,86.2031783 155.700302,95.1538814 147.817733,99.2006091 L147.064217,122.007826 C155.76758,118.806847 165.855653,116.162077 165.855653,116.162077 L189.838527,213.461768 C189.838527,213.461768 175.985317,197.987763 136.830578,197.987763 L93.2621383,197.987763 C70.2403652,197.987763 50.1300293,182.42446 44.3553506,160.138222 L39.7262375,142.271556 C11.7330884,141.19388 0,121.437306 0,121.437306 C0,121.437306 25.9853205,125.564523 65.3626895,105.030578 C79.5440959,97.6352269 92.3341873,90.9274595 103.737123,85.6990804 L97.2773064,59.9985306 L76.040732,59.9985306 L81.7149827,82.604157 C51.8373076,99.9135143 30.527094,104.083545 30.527094,104.083545 L4.20872161,0 C4.20872161,0 18.0628742,15.4740057 57.217124,15.4740057 L103.209539,15.4740057 C126.456266,15.4740057 146.726602,31.2806108 152.39388,53.8250751 L156.603054,70.5747995 C189.011616,68.6544325 195.580423,84.0414658 198.612839,89.3272149" id="path16" fill="#FFFFFF"></path>
                        <path d="M179.107029,198.606723 C179.107029,198.606723 168.483176,191.36024 136.830578,191.36024 L93.466175,191.36024 C73.2077046,191.36024 55.5442188,177.58654 50.6058703,157.940057 L46.7283169,142.886847 C53.2501516,142.8844 59.9736988,142.028131 66.8707017,140.349844 L78.6468482,162.578589 C81.8300897,169.814063 89.5231782,173.453207 96.0841566,170.60917 C101.379936,168.315592 107.994982,164.143115 116.675226,156.554125 C120.729661,153.010394 125.122933,150.93333 129.686847,149.975531 C127.599997,153.355348 120.848682,159.89969 116.997795,164.07339 L136.414675,155.445868 C141.296633,152.687458 143.662382,149.392045 143.944951,144.286235 L144.988376,130.003666 C150.592045,127.725991 155.756571,125.95229 160.502748,124.592046 L179.107029,198.606723" id="path18" fill="#1E513D"></path>
                        <path d="M140.990822,102.056144 L140.697244,111.581649 C116.735532,127.714982 94.1303952,135.118039 79.3244017,135.785929 C88.3749213,132.363299 98.3438508,127.345563 109.222138,120.215043 C120.944217,112.531985 131.513147,106.596939 140.990822,102.056144" id="path20" fill="#448D35"></path>
                        <path d="M182.463604,82.5138817 C167.81651,82.155472 145.718651,88.6300895 107.23437,113.854187 C53.502017,149.072779 25.7272165,132.784095 18.2788986,127.147397 C28.1092348,127.264829 47.9157175,122.94067 96.0492942,97.1110679 C101.515227,94.1781016 106.651863,91.6551659 111.514737,89.4567562 L104.890517,63.1034847 C103.452352,57.3825062 98.3094777,53.3711302 92.4096613,53.3711302 L67.5420167,53.3711302 L74.0472153,79.284157 C58.8579802,87.7284382 45.8281334,92.8048906 35.2847698,95.8256857 L14.9407947,14.8561464 C14.9407947,14.8561464 25.56477,22.1015285 57.2181025,22.1015285 L103.126481,22.1015285 C123.383483,22.1015285 141.048315,35.8753508 145.986541,55.5218335 L151.49969,77.4570011 C166.453818,75.8801204 176.086846,79.1069093 182.463604,82.5138817" id="path22" fill="#1E513D"></path>
                    </g>
                </g>
            </g>
        </g>
    </g>
</svg>