<?xml version="1.0" encoding="UTF-8"?>
<svg width="200px" height="200px" viewBox="0 0 200 200" version="1.1" xmlns="http://www.w3.org/2000/svg" xmlns:xlink="http://www.w3.org/1999/xlink">
    <!-- Generator: Sketch 54.1 (76490) - https://sketchapp.com -->
    <title>syracuse</title>
    <desc>Created with Sketch.</desc>
    <g id="syracuse" stroke="none" stroke-width="1" fill="none" fill-rule="evenodd">
        <g id="syracuse_BGL">
            <g id="syracuse" transform="translate(26.000000, 0.000000)">
                <g id="g10" transform="translate(73.067788, 100.487440) scale(-1, 1) rotate(-180.000000) translate(-73.067788, -100.487440) translate(0.000000, 0.499941)" fill-rule="nonzero">
                    <g id="g12">
                        <path d="M141.657674,94.3689707 C140.928534,95.1065708 117.380709,118.939745 116.639263,119.685036 C115.561706,119.685036 51.2676672,119.685036 51.2676672,119.685036 L51.2676672,156.052028 L94.7381554,156.052028 C94.7381554,156.052028 94.7381554,137.627409 94.7381554,135.318466 C97.1640059,135.318466 139.231054,135.322312 141.657674,135.322312 C141.657674,137.724319 141.657674,168.467399 141.657674,169.517268 C140.880848,170.256406 115.449412,194.667969 114.717196,195.372497 C113.678095,195.372497 31.080268,195.372497 30.0172471,195.372497 C29.2827235,194.64028 4.69832798,170.266405 3.95352879,169.523421 C3.95352879,168.458169 3.95352879,107.857284 3.95352879,106.802032 C4.68060711,106.06597 28.2266248,82.2358723 28.9651479,81.4875043 C30.0463973,81.4875043 94.7381554,81.4875043 94.7381554,81.4875043 L94.7381554,45.1196666 L51.2676672,45.1196666 C51.2676672,45.1196666 51.2676672,63.5458244 51.2676672,65.8532282 C48.8385093,65.8532282 6.37961008,65.8502286 3.95352879,65.8502286 C3.95352879,63.4427604 3.95352879,32.6752994 3.95352879,31.6483509 C4.69472843,30.9069051 29.2827235,6.53073734 30.0172471,5.80245916 C31.080268,5.80245916 113.678095,5.80245916 114.717196,5.80245916 C115.449412,6.50159483 140.880848,30.9162116 141.657674,31.6607339 C141.657674,32.7552125 141.657674,93.3198711 141.657674,94.3689707" id="path14" fill="#F46A25"></path>
                        <path d="M141.657674,31.6607339 C140.880848,30.9162116 115.449412,6.50159483 114.717196,5.80245916 C113.678095,5.80245916 31.080268,5.80245916 30.0172471,5.80245916 C29.2827235,6.53073734 4.69472843,30.9069051 3.95352879,31.6483509 C3.95352879,32.6752994 3.95352879,63.4427604 3.95352879,65.8502286 C6.37961008,65.8502286 48.8385093,65.8532282 51.2676672,65.8532282 C51.2676672,63.5458244 51.2676672,45.1196666 51.2676672,45.1196666 L94.7381554,45.1196666 L94.7381554,81.4875043 C94.7381554,81.4875043 30.0463973,81.4875043 28.9651479,81.4875043 C28.2266248,82.2358723 4.68060711,106.06597 3.95352879,106.802032 C3.95352879,107.857284 3.95352879,168.458169 3.95352879,169.523421 C4.69832798,170.266405 29.2827235,194.64028 30.0172471,195.372497 C31.080268,195.372497 113.678095,195.372497 114.717196,195.372497 C115.449412,194.667969 140.880848,170.256406 141.657674,169.517268 C141.657674,168.467399 141.657674,137.724319 141.657674,135.322312 C139.231054,135.322312 97.1640059,135.318466 94.7381554,135.318466 C94.7381554,137.627409 94.7381554,156.052028 94.7381554,156.052028 L51.2676672,156.052028 L51.2676672,119.685036 C51.2676672,119.685036 115.561706,119.685036 116.639263,119.685036 C117.380709,118.939745 140.928534,95.1065708 141.657674,94.3689707 C141.657674,93.3198711 141.657674,32.7552125 141.657674,31.6607339 Z M145.604873,131.375882 L145.604873,171.197058 L116.302382,199.319695 L28.3903736,199.319695 L0,171.171676 L0,105.180696 L27.315431,77.5379981 C27.315431,77.5379981 85.9415628,77.5379981 90.7871109,77.5379981 C90.7871109,73.4424332 90.7871109,53.1610458 90.7871109,49.0668654 C86.496878,49.0668654 59.5057911,49.0668654 55.2169427,49.0668654 C55.2169427,53.0849784 55.2169427,69.8035036 55.2169427,69.8035036 L0,69.7974274 L0,29.998634 L28.3903736,1.84833045 L116.302382,1.84833045 L145.604873,29.9794057 L145.604873,95.993383 L118.292134,123.635312 C118.292134,123.635312 60.0610293,123.635312 55.2169427,123.635312 C55.2169427,127.733261 55.2169427,148.010726 55.2169427,152.106368 C59.5057911,152.106368 86.496878,152.106368 90.7871109,152.106368 C90.7871109,148.091485 90.7871109,131.369729 90.7871109,131.369729 L145.604873,131.375882 L145.604873,131.375882 Z" id="path16" fill="#0E2B58"></path>
                        <path d="M139.533324,5.77692389 C139.324889,5.88838688 138.994161,5.94397224 138.534987,5.94397224 L137.831998,5.94397224 L137.831998,4.30024698 L138.576521,4.30024698 C138.9234,4.30024698 139.186444,4.33569639 139.3595,4.40329563 C139.680229,4.52857997 139.840978,4.76262763 139.840978,5.11234544 C139.840978,5.44252724 139.738683,5.66095378 139.533324,5.77692389 Z M138.656511,6.5145086 C139.231054,6.5145086 139.647925,6.4568235 139.917891,6.34776791 C140.393217,6.14856974 140.630879,5.76400243 140.630879,5.18625159 C140.630879,4.7755414 140.482436,4.47420215 140.181705,4.2819185 C140.020955,4.18186947 139.799445,4.10796332 139.514096,4.06259207 C139.872512,4.00490698 140.136326,3.85498726 140.303228,3.61343285 C140.47013,3.36947104 140.55012,3.13182383 140.55012,2.90198333 L140.55012,2.56728672 C140.55012,2.45822343 140.553197,2.34676044 140.563195,2.22748305 C140.573194,2.10520603 140.5855,2.02198566 140.605498,1.98352893 L140.630879,1.92884346 L139.879435,1.92884346 C139.876358,1.94447228 139.872512,1.95828593 139.870205,1.97451467 C139.867128,1.98983584 139.860206,2.0090642 139.85713,2.02498529 L139.840978,2.17280527 L139.840978,2.53574451 C139.840978,3.06512448 139.693304,3.4148346 139.397956,3.58788989 C139.224901,3.68403171 138.920324,3.73570987 138.484224,3.73570987 L137.831998,3.73570987 L137.831998,1.92884346 L137.042866,1.92884346 L137.042866,6.5145086 L138.656511,6.5145086 Z M136.172975,6.74915619 C135.466909,6.04612101 135.117722,5.19556581 135.117722,4.19809052 C135.117722,3.19641575 135.466909,2.33654633 136.166822,1.63050384 C136.869042,0.924461342 137.725858,0.571443171 138.734193,0.571443171 C139.738683,0.571443171 140.595499,0.924461342 141.297719,1.63050384 C142.003784,2.33654633 142.356817,3.19641575 142.356817,4.19809052 C142.356817,5.19556581 142.003784,6.04612101 141.297719,6.74915619 C140.591653,7.45759838 139.738683,7.81063886 138.734193,7.81063886 C137.735856,7.81063886 136.882886,7.45759838 136.172975,6.74915619 L136.172975,6.74915619 Z M141.696131,1.23302276 C140.877771,0.410705575 139.889433,0 138.727271,0 C137.565878,0 136.580616,0.410705575 135.766103,1.23302276 C134.953897,2.05052825 134.546255,3.04258883 134.546255,4.20410515 C134.546255,5.35629956 134.956973,6.34145331 135.775332,7.15685906 C136.590615,7.97138799 137.575107,8.37964464 138.727271,8.37964464 C139.889433,8.37964464 140.877771,7.97138799 141.696131,7.15685906 C142.517566,6.34446063 142.925208,5.35930688 142.925208,4.20410515 C142.925208,3.04589611 142.517566,2.05442776 141.696131,1.23302276 L141.696131,1.23302276 Z" id="path18" fill="#0E2B58"></path>
                    </g>
                </g>
            </g>
        </g>
    </g>
</svg>