<svg width="200" height="200" viewBox="0 0 200 200" fill="none" xmlns="http://www.w3.org/2000/svg">
<path d="M61.5 54.1002L60.5 54.2002C28.7 58.5002 3.2 69.7002 2.1 70.2002L1.5 70.4002L0 71.1002V72.8002V100.5V104.6L3.7 102.8L5 102.2C6.6 101.4 11.1 99.4002 17.7 96.9002L18.3 96.7002L20 96.1002V94.3002V85.1002C21 84.7002 21.9 84.4002 22.9 84.1002V122.3C20.7 123.2 14.6 125.9 14.6 125.9V148.8L18.4 146.9L19.7 146.3C29.1 141.8 38.9 137.9 48.7 134.7L49.3 134.5L51.2 133.9V112.7C51.2 112.7 44.1 114.8 42.7 115.2V78.1002C43.7 77.8002 44.7 77.6002 45.7 77.4002V84.9002V88.2002L48.9 87.5002L50 87.2002C54.1 86.3002 57.9 85.5002 61.5 84.9002L62.3 84.8002L64.5 84.4002V82.2002V56.7002V53.7002L61.5 54.1002Z" fill="#592D82"/>
<path d="M126.1 68.4L111.8 53.4L111.1 52.7L110.1 52.6H109.8C106.1 52.2 102.1 52 97.7004 52C91.5004 52 86.8004 52.4 85.8004 52.5H85.5004L84.5004 52.6L83.8004 53.4L69.1004 68.4L68.4004 69.2V70.3V111.8V112.8L69.1004 113.6L82.9004 128.2L83.8004 129.1L85.1004 129H85.5004C86.0004 129 91.0004 128.6 97.5004 128.6C101.8 128.6 105.7 128.8 109.2 129.1L109.6 129.2L110.9 129.4L126.9 113V97.6L107.1 95.4V98.3V104.2C106 105.3 104.1 107.2 103 108.2C101.3 108.1 99.5004 108.1 97.6004 108.1C95.2004 108.1 93.0004 108.2 91.4004 108.2C90.5004 107.2 89.1004 105.8 88.3004 104.9V77.4C88.8004 76.9 89.4004 76.3 90.0004 75.6C91.1004 74.4 92.4004 73.1 93.1004 72.3C94.6004 72.3 96.1004 72.2 97.6004 72.2C99.0004 72.2 100.5 72.2 101.9 72.3C103.2 73.6 105.7 76.1 107 77.4V82.5V84.9L109.4 85.1L123.9 86.5L126.8 86.8V83.9V70.2V69.1L126.1 68.4Z" fill="#592D82"/>
<path d="M198.5 72.9999L198 72.7999C190.8 69.1999 182.2 65.8999 172.4 62.9999L171.2 62.5999L167.8 61.5999V65.0999V80.8999V82.7999L169.6 83.3999C170.6 83.6999 171.9 84.1999 173 84.4999V118.1C172 119 170.3 120.4 169.2 121.4C166.9 120.5 162.7 119 160.9 118.3C159.9 116.6 157.6 112.7 156.7 111.3V79.6999C158.3 80.0999 159.8 80.4999 159.9 80.4999L163.2 81.2999V77.8999V62.3999V60.2999L161.1 59.7999L160.4 59.6999C148.3 56.6999 138.3 55.0999 134.5 54.5999L133.5 54.3999L130.5 53.8999V56.9999V72.1999V74.4999L132.8 74.7999L133.6 74.8999C134.1 74.9999 134.9 75.0999 136.2 75.2999V115.3V116L136.6 116.6L147.5 134.6L148 135.5L149 135.8L149.3 135.9C151 136.4 160.4 139.1 170 144L170.5 144.3L172.1 145.1L173.4 144L191.8 128.1L192.7 127.3V126.1V92.5999C193.4 92.8999 199.9 96.1999 199.9 96.1999V91.8999V75.3999V73.7999L198.5 72.9999Z" fill="#592D82"/>
<path d="M187.1 136.2C188.7 136.2 190 137.5 190 139.1C190 140.7 188.7 142 187.1 142C185.5 142 184.2 140.7 184.2 139.1C184.1 137.4 185.5 136.2 187.1 136.2ZM187.1 142.6C189 142.6 190.6 141.1 190.6 139.1C190.6 137.2 189.1 135.6 187.1 135.6C185.2 135.6 183.6 137.1 183.6 139.1C183.6 141 185.1 142.6 187.1 142.6ZM187.7 139.3C188.2 139.3 188.7 139 188.7 138.2C188.7 137.4 188.1 137.2 187.4 137.2H185.8V141.1H186.4V139.3H187.1L188.1 141.1H188.7L187.7 139.3ZM187.3 137.7C187.8 137.7 188.2 137.7 188.2 138.2C188.2 138.7 187.5 138.6 186.9 138.6H186.3V137.6H187.3V137.7Z" fill="#592D82"/>
</svg>
