<?xml version="1.0" encoding="UTF-8"?>
<svg width="200px" height="200px" viewBox="0 0 200 200" version="1.1" xmlns="http://www.w3.org/2000/svg" xmlns:xlink="http://www.w3.org/1999/xlink">
    <!-- Generator: Sketch 54.1 (76490) - https://sketchapp.com -->
    <title>tennessee</title>
    <desc>Created with Sketch.</desc>
    <g id="tennessee" stroke="none" stroke-width="1" fill="none" fill-rule="evenodd">
        <g id="tennessee_BGL" fill="#F47216">
            <g id="tennessee">
                <g id="g10" transform="translate(99.502485, 99.632521) scale(-1, 1) rotate(-180.000000) translate(-99.502485, -99.632521) translate(0.000000, 0.130036)" fill-rule="nonzero">
                    <g id="g12">
                        <path d="M198.809712,198.803761 L198.809712,131.703825 L173.959214,131.703825 C173.959214,144.060205 161.723163,154.069516 146.625452,154.069516 C135.593127,154.069516 126.092679,148.721285 121.773411,141.020475 L121.773411,57.1558583 C121.773411,39.3388529 135.638746,24.8914888 152.757802,24.8520404 L152.835376,24.8520404 L152.835376,0 L45.9774207,0 L45.9774207,24.8520404 L46.0501468,24.8520404 C63.1709653,24.8914888 77.0422508,39.3388529 77.0422508,57.1558583 L77.0422508,141.020475 C72.7198981,148.721285 63.2225347,154.069516 52.1888881,154.069516 C37.0940416,154.069516 24.8533627,144.060205 24.8533627,131.703825 L0,131.703825 L0,198.803761 L198.809712,198.803761" id="path14"></path>
                        <path d="M166.249149,11.1751759 C167.332988,11.1751759 168.29187,11.0887421 168.29187,9.94894825 C168.29187,8.72360215 166.617187,8.9289982 165.391863,8.9289982 L164.001472,8.9289982 L164.001472,11.1751759 L166.249149,11.1751759 Z M167.19018,7.62195647 C168.392364,7.66138282 169.597413,8.31631412 169.597413,10.0917778 C169.597413,11.9927491 168.127685,12.4823939 166.493993,12.4823939 L162.695929,12.4823939 L162.695929,3.45475273 L164.001472,3.45475273 L164.001472,7.62195647 L165.676376,7.62195647 L167.984878,3.45475273 L169.475982,3.45475273 L167.19018,7.62195647 Z M165.799569,0.00180782242 C170.2936,0.00180782242 173.84704,3.55504859 173.84704,8.02939876 C173.84704,12.50203 170.2936,16.0568141 165.799569,16.0568141 C161.305319,16.0568141 157.751879,12.50203 157.751879,8.02939876 C157.751879,3.55504859 161.305319,0.00180782242 165.799569,0.00180782242 Z M165.799569,14.7514693 C169.475982,14.7514693 172.541276,11.8241789 172.541276,8.02939876 C172.541276,4.24940624 169.475982,1.30860423 165.799569,1.30860423 C162.122936,1.30860423 159.060507,4.24940624 159.060507,8.02939876 C159.060507,11.8241789 162.122936,14.7514693 165.799569,14.7514693 L165.799569,14.7514693 Z" id="path16"></path>
                    </g>
                </g>
            </g>
        </g>
    </g>
</svg>