<?xml version="1.0" encoding="UTF-8"?>
<svg width="200px" height="200px" viewBox="0 0 200 200" version="1.1" xmlns="http://www.w3.org/2000/svg" xmlns:xlink="http://www.w3.org/1999/xlink">
    <!-- Generator: Sketch 54.1 (76490) - https://sketchapp.com -->
    <title>toledo</title>
    <desc>Created with Sketch.</desc>
    <g id="toledo" stroke="none" stroke-width="1" fill="none" fill-rule="evenodd">
        <g id="toledo_BGL">
            <g id="toledo" transform="translate(0.000000, 41.000000)">
                <g id="g10" transform="translate(100.000000, 59.283591) scale(-1, 1) rotate(-180.000000) translate(-100.000000, -59.283591) translate(0.000000, 0.783591)">
                    <g id="g12">
                        <polyline id="path14" fill="#FDDC04" fill-rule="nonzero" points="153.965945 105.857228 153.555688 101.13928 131.196715 87.6008183 115.401843 81.4469723 111.914664 80.2162031 116.632612 87.1901517 136.32492 96.2162027 153.965945 105.857228 153.965945 105.857228"></polyline>
                        <polyline id="path16" fill="#FDDC04" fill-rule="nonzero" points="87.2992799 101.343997 77.6582545 98.4726129 70.8890239 94.9854335 66.7864599 91.4978439 65.7608189 89.4469721 59.6069729 91.2931259 56.3249217 91.9085105 59.4018447 94.1649207 70.2736393 98.4726129 80.5300493 101.549536 87.2992799 101.343997 87.2992799 101.343997"></polyline>
                        <polyline id="path18" fill="#173A78" fill-rule="nonzero" points="73.2451264 83.8157928 65.4022548 73.8494341 0 51.4925115 73.2451264 83.8157928 73.2451264 83.8157928"></polyline>
                        <path d="M119.718561,90.6231772 C126.653946,93.4211259 130.317945,95.2639976 136.813535,98.9690232 C143.661535,102.874664 147.380099,105.383382 153.620099,110.201433 C137.210663,110.058664 127.591792,108.220715 112.294972,102.278562 C99.1938437,97.1893309 92.0582541,93.0182541 81.1314852,84.1780492 L79.6418442,86.2379466 C83.7542543,90.338049 86.296203,92.4607156 90.9965105,95.8703566 C95.3296386,99.0141514 97.9101514,100.633844 102.648613,103.12492 C94.1468694,101.578664 90.6728182,100.827074 83.0711774,98.2125104 C77.4445109,96.2765104 68.2588701,90.6289208 67.4420496,86.4512799 C64.3495369,87.8810234 62.5025625,88.5247157 59.1868703,89.3070747 C55.6923063,90.1316901 53.6447166,90.4086131 50.0545629,90.48369 C59.9261523,95.5232797 65.8457419,97.8412283 76.5074853,100.869331 C88.9780491,104.411485 96.3643053,105.60451 109.313228,106.22892 C119.484715,110.923895 125.703381,112.866459 136.749945,114.733125 C150.114048,116.991587 158.104611,117.035074 171.500303,114.973946 C162.600201,104.600613 156.546047,99.3563052 144.99815,92.0463567 C131.491279,83.4970236 122.711792,79.8683057 107.098254,76.4369212 C97.0601001,68.6707675 91.3333311,64.5546651 79.2041006,58.2363062 C74.1489212,55.6032807 70.2326136,53.7275884 65.145024,51.6012295 C65.145024,51.6012295 65.2348702,52.6190756 68.394665,54.4155884 C75.1684084,57.8748703 81.0646134,60.9919985 88.1181516,66.4237932 C95.5454335,72.1439982 98.2531257,75.1048186 103.964715,81.4067672 C97.7784591,77.8572288 94.2387669,75.9351776 87.8802029,72.7044084 C81.5565108,69.4912803 77.9478955,67.7513829 71.4719982,64.855383 C75.3952802,70.1731265 80.7154852,79.7784595 80.7154852,79.7784595 C88.7019465,82.8779466 93.2525105,84.5124081 101.193433,87.7263568 L122.872202,96.5005104 C121.928202,94.1448182 120.7561,92.5091259 119.718561,90.6231772 L119.718561,90.6231772 Z M116.880407,85.3144594 C116.045125,84.1222543 115.157741,82.99528 113.967587,81.57128 C122.70851,84.6990748 127.527792,86.8918953 135.663997,91.362049 C142.475894,95.1044079 146.199791,97.4810232 152.461535,102.085741 L153.186868,104.785228 C146.818458,100.295792 143.075689,97.9417411 136.222766,94.2334335 C128.422151,90.0123054 125.180305,88.4402029 116.880407,85.3144594 Z M58.1489216,92.0073823 C59.7411267,91.9130233 60.6473831,91.7817413 62.1883061,91.3714849 C63.4211266,91.0428695 64.1078958,90.7999977 65.2705625,90.2761003 C67.5630752,92.7409208 68.4229726,93.7595874 71.84287,95.8715873 C75.7649212,98.2933309 79.5150749,99.7969206 84.4270748,101.23651 C78.4373314,100.277741 74.0274853,98.9050232 67.7140496,96.4270745 C63.8888189,94.9259463 61.7796908,93.9323053 58.1489216,92.0073823 L58.1489216,92.0073823 L58.1489216,92.0073823 Z" id="path20" fill="#173A78"></path>
                        <polyline id="path22" fill="#FDDC04" fill-rule="nonzero" points="34.5892504 54.7314858 36.1381324 4.75478962 21.3530251 0.538621525 19.7133123 53.4445115 9.38157925 50.4984603 9.0226049 62.0771267 44.4713835 72.1854341 44.8303579 60.6067677 34.4985427 57.6611268 29.3522454 56.1932294 34.5892504 54.7314858 34.5892504 54.7314858"></polyline>
                        <path d="M20.1071995,53.9835884 L21.7467892,1.07772305 L35.7184401,5.06170244 L34.1887991,54.4172294 L27.8413532,56.1895371 L44.4102553,60.9136395 L44.0775374,71.6467674 L9.4424613,61.7702549 L9.77546642,51.0371269 L20.1071995,53.9835884 Z M20.9591379,0 L19.3195482,52.9058448 L8.98781516,49.9593834 L8.60270748,62.3839984 L44.8652296,72.724511 L45.2500502,60.2998959 L30.8629736,56.1977422 L34.9900709,55.0457422 L36.5581529,4.44791784 L20.9591379,0 L20.9591379,0 Z" id="path24" fill="#173A78" fill-rule="nonzero"></path>
                        <polyline id="path26" fill="#FDDC04" fill-rule="nonzero" points="86.1087158 29.3636095 80.8094339 25.6983788 85.9540491 26.4389327 96.7232796 27.727548 96.2084079 17.9844508 73.0096392 14.9115483 75.7571263 68.3130239 88.1673824 70.46687 86.1087158 29.3636095 86.1087158 29.3636095"></polyline>
                        <path d="M76.1497417,67.9647162 L73.444511,15.3833432 L95.8170232,18.346297 L96.2875873,27.2623583 L86.0028696,26.0315891 L80.8676903,25.2923071 L80.575998,26.0360609 L85.7091261,29.5860505 L87.7316901,69.9749726 L76.1497417,67.9647162 Z M73.0633828,14.5049843 L72.5997931,14.9328407 L75.3472802,68.333947 L75.6869725,68.7171265 L88.0972286,70.8709726 L88.5768183,70.4463572 L86.5181517,29.3430967 L86.3417414,29.0264608 L82.4767159,26.3531891 L85.8957927,26.8452096 L96.6744591,28.1349326 L97.1327155,27.7057634 L96.618254,17.9626662 L96.2625617,17.5773944 L73.0633828,14.5049843 L73.0633828,14.5049843 Z" id="path28" fill="#173A78" fill-rule="nonzero"></path>
                        <polyline id="path30" fill="#FDDC04" fill-rule="nonzero" points="115.150356 59.8256395 110.489843 62.3967164 115.535177 62.6998959 126.764715 63.3616394 128.048407 72.9366136 104.571485 71.5265623 97.4244078 18.202256 121.784612 19.664738 123.067894 29.2397531 110.924305 28.5107275 112.710972 41.84164 123.161843 42.468922 124.385638 51.60205 113.935177 50.974768 115.150356 59.8256395 115.150356 59.8256395"></polyline>
                        <path d="M104.93292,71.1376392 L97.8970232,18.6416816 L121.422766,20.0544815 L122.594869,28.8004916 L110.94892,28.1012916 L110.517741,28.5653736 L112.304407,41.8962041 L112.686766,42.2510759 L122.799997,42.8586656 L123.913023,51.1626654 L113.959382,50.5653321 L113.529023,51.0305628 L114.705638,59.60246 L110.29169,62.037742 L110.465638,62.8061523 L126.402869,63.7509728 L127.575792,72.497229 L104.93292,71.1376392 Z M97.4490232,17.792779 L97.0174335,18.2569021 L104.16451,71.5811264 L104.546869,71.9364085 L128.024202,73.3460494 L128.454971,72.8820495 L127.171279,63.3070753 L126.78892,62.9522036 L111.927382,62.0722036 L115.34851,60.1846139 L115.55651,59.7698447 L114.409433,51.4141526 L124.361433,52.0114859 L124.792612,51.5474859 L123.568407,42.4147682 L123.186458,42.0594861 L113.072818,41.4523067 L111.39692,28.9501531 L123.043279,29.649189 L123.474458,29.1852711 L122.191176,19.6107482 L121.808817,19.2554662 L97.4490232,17.792779 L97.4490232,17.792779 Z" id="path32" fill="#173A78" fill-rule="nonzero"></path>
                        <path d="M157.154868,27.9055993 C154.491073,19.3522457 159.300509,16.4229329 169.375996,15.1757945 C179.451893,13.9282048 185.660713,15.4929637 188.324098,24.0468097 L198.301944,56.0861524 C200.965739,64.6395881 196.156303,67.5688188 186.080816,68.8164085 C176.004919,70.063588 169.796098,68.4988701 167.132714,59.9450241 L157.154868,27.9055993 Z M179.290662,57.4075883 L175.276714,60.8127164 L183.279585,59.8219472 C185.52697,59.5433831 186.240406,58.9345626 185.631175,56.9776396 L176.059893,26.2429532 C175.450252,24.2855789 174.422149,23.8855789 172.175175,24.164102 C169.928201,24.4422968 169.216406,25.0572301 169.825637,27.0141121 L179.290662,57.4075883 Z" id="path34" fill="#FDDC04"></path>
                        <path d="M176.589944,60.2367164 L179.556098,57.7206139 L179.682867,57.2861524 L170.217432,26.8927993 C169.981534,26.1341532 169.965124,25.6360609 170.165739,25.3243481 C170.40738,24.9496609 171.042868,24.7179481 172.225637,24.5709943 C174.404098,24.3019071 175.145432,24.6866866 175.667688,26.364266 L185.23938,57.0990755 C185.474867,57.8555883 185.491277,58.3528191 185.291072,58.6629729 C185.050662,59.035896 184.414765,59.2681011 183.229124,59.4149729 L176.589944,60.2367164 Z M173.293534,23.6742148 C172.931688,23.6742148 172.542355,23.7054353 172.124714,23.7570456 C170.639585,23.9405532 169.871996,24.2658455 169.476509,24.8796301 C169.133944,25.4109122 169.119996,26.1280404 169.433842,27.1360403 L178.818457,57.2701524 L175.011688,60.5001011 L175.327175,61.2196908 L183.330047,60.2289216 C184.817636,60.0447164 185.585636,59.7197934 185.980713,59.1076908 C186.322867,58.5776396 186.335995,57.8617421 186.02297,56.8557935 L176.451688,26.120984 C175.86297,24.2309327 174.827893,23.6742148 173.293534,23.6742148 L173.293534,23.6742148 Z M180.891483,68.7573316 C172.248201,68.7573316 169.187688,65.1643061 167.524509,59.823178 L157.547073,27.7837942 C156.53497,24.5349327 156.610458,22.0754866 157.778458,20.2650662 C159.349329,17.8298252 162.941945,16.3855586 169.426868,15.5826868 C182.079175,14.018092 185.974559,17.8827072 187.932303,24.1685738 L197.910149,56.2079986 C198.921841,59.456819 198.846354,61.9158959 197.678764,63.7263574 C196.107482,66.1620496 192.515277,67.6061522 186.030354,68.4090239 C184.127995,68.6445111 182.420919,68.7573316 180.891483,68.7573316 L180.891483,68.7573316 Z M174.863585,14.3794868 C173.135585,14.3794868 171.285739,14.5259484 169.325534,14.7687381 C162.577637,15.6041842 158.803688,17.1621739 157.088817,19.8203482 C155.781329,21.8477533 155.674663,24.5325122 156.763073,28.0274044 L166.740919,60.0668703 C169.616816,69.3029726 176.572714,70.4073829 186.131277,69.2233829 C192.879585,68.3876906 196.653534,66.8295368 198.367995,64.1710753 C199.675482,62.1439984 199.782149,59.4592806 198.693739,55.9643063 L188.715893,23.9248404 C186.429534,16.583015 181.564713,14.3799791 174.863585,14.3794868 L174.863585,14.3794868 Z" id="path36" fill="#173A78" fill-rule="nonzero"></path>
                        <path d="M123.462971,19.3230764 L139.066253,19.264738 C150.26215,19.2229329 154.311381,21.5934354 157.985227,38.7852708 L160.779483,51.859691 C164.453329,69.0514855 161.439175,71.5208187 150.242868,71.5626649 L134.639997,71.6209213 L123.462971,19.3230764 Z M144.728202,62.6190754 L147.894971,62.6071779 C150.495586,62.5973318 150.826253,61.4395882 149.992612,57.5388704 L144.898048,33.7012915 C144.064407,29.8006557 143.239381,28.6474249 140.639586,28.6569018 L137.46092,28.6690865 L144.089432,59.8006139 L139.739484,62.6379472 L144.728202,62.6190754 Z" id="path38" fill="#FDDC04"></path>
                        <path d="M137.967176,29.0774147 L140.641227,29.0671582 C140.651894,29.0671582 140.662971,29.0671582 140.674048,29.0671582 C142.961227,29.0671582 143.678766,29.9589736 144.497227,33.7870351 L149.591791,57.6246139 C150.091483,59.9638959 150.11733,61.1392805 149.681227,61.6804087 C149.396099,62.0340497 148.845124,62.1932292 147.89333,62.1969215 L141.127381,62.2227677 L144.313432,60.1444088 L144.490663,59.7152806 L137.967176,29.0774147 Z M140.669535,28.2466454 C140.658868,28.2466454 140.648612,28.2466454 140.637945,28.2466454 L137.459279,28.2588301 L137.059279,28.7545018 L143.629535,59.6110754 L139.515484,62.2945625 L139.741125,63.0482036 L147.896612,63.0174343 C149.118355,63.0129215 149.865432,62.759383 150.319586,62.1952805 C151.035483,61.3074856 150.878765,59.7226652 150.393842,57.4531268 L145.299278,33.6155479 C144.491073,29.8338044 143.666868,28.2466454 140.669535,28.2466454 L140.669535,28.2466454 Z M123.970048,19.7312405 L139.067894,19.6749944 C139.182355,19.6746662 139.298048,19.6742149 139.411279,19.6742149 C149.616407,19.6742149 153.866253,21.4740507 157.583996,38.8709734 L160.378663,51.9454346 C162.35774,61.2082036 162.349534,65.9987676 160.349534,68.4808188 C158.58256,70.673229 155.03097,71.1343572 150.241227,71.1524085 L134.971484,71.2098444 L123.970048,19.7312405 Z M139.324714,18.8541534 C139.23815,18.8541534 139.152407,18.8541534 139.064612,18.8544816 L123.461741,18.91282 L123.062151,19.40882 L134.238766,71.7066649 L134.641227,72.0311777 L150.244509,71.9729213 C155.411688,71.9536392 159.011278,71.4490239 160.987893,68.9956906 C163.162252,66.2974342 163.218457,61.3078959 161.180714,51.7739474 L158.386047,38.6995272 C154.747894,21.6738866 150.617842,18.8541534 139.324714,18.8541534 L139.324714,18.8541534 Z" id="path40" fill="#173A78" fill-rule="nonzero"></path>
                        <path d="M39.52324,17.0261329 C39.52324,8.34998953 45.1109732,7.45481007 55.3304602,9.98527155 C65.5499471,12.515692 71.1376392,16.1780509 71.1376392,24.8537019 L71.1376392,57.3505627 C71.1376392,66.0258445 65.5499471,66.9218445 55.3304602,64.391383 C45.1109732,61.8609215 39.52324,58.1981524 39.52324,49.5228706 L39.52324,17.0261329 Z M52.1690243,51.6459474 L47.2135373,53.2586653 L55.3304602,55.2689217 C57.6094345,55.8330242 58.491896,55.542973 58.491896,53.5577423 L58.491896,22.3839584 C58.491896,20.3987277 57.6094345,19.6660098 55.3304602,19.10162 C53.0514859,18.5370252 52.1690243,18.8336406 52.1690243,20.8189123 L52.1690243,51.6459474 Z" id="path42" fill="#FDDC04"></path>
                        <path d="M48.7035885,53.2049217 L52.2962038,52.0361013 L52.5792807,51.6459474 L52.5792807,20.8189123 C52.5792807,20.095179 52.7048192,19.6454969 52.9624602,19.4437328 C53.3021525,19.1773944 54.0024602,19.1955277 55.2319986,19.4998559 C57.4424601,20.0475892 58.0816396,20.6940713 58.0816396,22.3839584 L58.0816396,53.5577423 C58.0816396,54.278973 57.9569216,54.7277935 57.7005114,54.9284089 C57.3620498,55.1938448 56.6617422,55.1753832 55.4289217,54.8705627 L48.7035885,53.2049217 Z M53.6877935,18.4376611 C53.15405,18.4376611 52.7638961,18.5570457 52.4570243,18.797579 C51.9807166,19.1700508 51.7587679,19.8125123 51.7587679,20.8189123 L51.7587679,51.347691 L47.0863578,52.8685115 L47.1146655,53.6570243 L55.2319986,55.6668704 C56.7737422,56.0484089 57.6356909,56.0217422 58.2059473,55.574973 C58.6810242,55.2028704 58.9021524,54.5620499 58.9021524,53.5577423 L58.9021524,22.3839584 C58.9021524,20.0249841 57.6287165,19.2484098 55.4289217,18.7035072 C54.7163063,18.5267688 54.1485115,18.4376611 53.6877935,18.4376611 Z M63.4592805,65.2164086 C61.3595882,65.2164086 58.720819,64.8082035 55.4289217,63.993024 C44.2781527,61.2319985 39.9334964,57.1749729 39.9334964,49.5228706 L39.9334964,17.0261329 C39.9334964,13.8580099 40.6918144,11.7243484 42.2518964,10.5033844 C44.4906656,8.75191773 48.4927167,8.71425619 55.2319986,10.3831792 C66.3827676,13.144533 70.7273828,17.2015996 70.7273828,24.8537019 L70.7273828,57.3505627 C70.7273828,60.5181523 69.9688188,62.6518959 68.4090239,63.8728189 C67.2639983,64.7688189 65.657024,65.2164086 63.4592805,65.2164086 Z M47.209845,8.34744595 C44.8053322,8.34744595 43.0338451,8.84968183 41.7460502,9.85723052 C39.974358,11.2438972 39.1129836,13.5889227 39.1129836,17.0261329 L39.1129836,49.5228706 C39.1129836,58.880819 45.5565117,62.3938446 55.2319986,64.789742 C62.2391779,66.524306 66.458665,66.441024 68.9144598,64.5189727 C70.6863572,63.1323061 71.5478956,60.7872805 71.5478956,57.3505627 L71.5478956,24.8537019 C71.5478956,15.4953432 65.1039984,11.9826869 55.4289217,9.58687156 C52.0955884,8.76139465 49.392409,8.34744595 47.209845,8.34744595 L47.209845,8.34744595 Z" id="path44" fill="#173A78" fill-rule="nonzero"></path>
                    </g>
                </g>
            </g>
        </g>
    </g>
</svg>