<?xml version="1.0" encoding="UTF-8"?>
<svg width="200px" height="200px" viewBox="0 0 200 200" version="1.1" xmlns="http://www.w3.org/2000/svg" xmlns:xlink="http://www.w3.org/1999/xlink">
    <!-- Generator: Sketch 54.1 (76490) - https://sketchapp.com -->
    <title>troy</title>
    <desc>Created with Sketch.</desc>
    <g id="troy" stroke="none" stroke-width="1" fill="none" fill-rule="evenodd">
        <g id="troy_BGL" transform="translate(-0.000000, -0.000000)">
            <g id="troy" transform="translate(12.000000, 0.000000)">
                <g id="g10" transform="translate(87.896346, 100.131278) scale(-1, 1) rotate(-180.000000) translate(-87.896346, -100.131278) translate(0.000000, 0.298879)" fill-rule="nonzero">
                    <g id="g12">
                        <path d="M171.885866,199.299923 C171.519355,199.296187 134.68125,198.901008 87.7906221,198.901008 C40.9004918,198.901008 4.1905827,199.296187 3.82538167,199.299923 L0,199.341848 L0.500926254,195.544481 C4.06556258,168.518751 19.4989338,155.885905 31.899823,145.735378 C34.1759652,143.872394 43.7877209,135.3993 43.7877209,135.3993 L43.7877209,161.281836 C50.6817797,163.376448 57.8150657,164.977918 65.0739772,166.04847 C65.0735626,144.523276 65.0719041,38.8424828 65.0719041,38.8424828 C65.0719041,25.9397367 75.6567802,13.8660769 81.9807565,6.6520341 C82.7270462,5.80057374 85.4688318,2.78913875 87.9879742,0.000486451527 C90.6111827,3.01906874 93.5101037,6.3212381 94.3579717,7.30532404 C100.460963,14.3924282 110.675182,26.2528493 110.675182,38.8424828 L110.673109,165.970015 C110.673109,165.970015 119.213566,165.054712 131.92288,161.281836 C131.92288,161.281836 131.92288,135.770403 131.93905,135.784101 L141.836095,144.01851 C156.572415,156.200138 171.809993,168.79604 175.212245,195.560255 L175.692773,199.341848 L171.885866,199.299923" id="path14" fill="#FFFFFF"></path>
                        <path d="M87.7906221,195.58018 C40.3373747,195.58018 3.78926539,195.97951 3.78926539,195.97951 C7.83168885,165.330756 28.1159267,153.96356 40.4711679,142.847918 L40.4711679,163.731777 C49.4416949,166.625048 58.8163378,168.679396 68.3908204,169.848327 C68.3904058,152.432244 68.3887474,38.8424828 68.3887474,38.8424828 C68.3887474,24.1569085 84.592356,9.4971122 87.9349048,4.68938309 C91.8375855,10.3393158 107.358339,24.3346144 107.358339,38.8424828 L107.356266,169.844176 C116.917481,168.67483 126.2801,166.621312 135.239723,163.731777 L135.239723,142.847918 C151.337608,156.416822 168.355501,167.921417 171.921522,195.97951 C171.921522,195.97951 135.244284,195.58018 87.7906221,195.58018" id="path16" fill="#871C30"></path>
                        <path d="M87.7906221,190.339498 C42.8457374,190.339498 10.1116869,190.029831 10.1116869,190.029831 C13.200663,174.691755 22.2714416,164.364395 35.4451968,153.504871 C35.446026,153.504456 35.4479332,167.35231 35.4479332,167.35231 C47.8641213,171.695538 60.644333,174.30903 73.3262832,175.421507 C73.3121866,175.412375 73.2831642,38.8428149 73.2831642,38.8428149 C73.2831642,28.8513144 83.4177788,17.8606597 87.8341556,12.3443073 C94.6996066,20.8224649 102.463093,29.3560803 102.463093,39.039657 L102.461849,175.384148 C115.803022,174.195707 128.604378,171.430287 140.262668,167.35231 C140.262668,167.35231 140.264741,153.504456 140.265985,153.504871 C153.439242,164.364395 162.509979,174.691755 165.59879,190.029831 C165.59879,190.029831 132.736336,190.339498 87.7906221,190.339498" id="path18" fill="#FFFFFF"></path>
                        <path d="M26.9117883,175.216861 C17.0731605,180.427241 10.1116869,190.029831 10.1116869,190.029831 C13.200663,174.691755 22.2714416,164.364395 35.4451968,153.505286 C25.0599947,166.176737 26.9117883,175.216861 26.9117883,175.216861" id="path20" fill="#B4B3B3"></path>
                        <path d="M148.798979,175.216861 C148.798979,175.216861 150.651021,166.176737 140.265985,153.505286 C153.439242,164.364395 162.509979,174.691755 165.59879,190.029831 C165.59879,190.029831 158.637565,180.427241 148.798979,175.216861" id="path22" fill="#B4B3B3"></path>
                        <path d="M35.4479332,167.35231 C47.8641213,171.695538 60.644333,174.30903 73.3262832,175.421507 C79.7572277,179.805831 87.8291804,183.183528 87.833741,183.185189 C57.3337088,183.181453 26.9117883,175.216861 26.9117883,175.216861 C26.9117883,175.216861 28.0444902,169.952518 35.4479332,167.35231" id="path24" fill="#B4B3B3"></path>
                        <path d="M87.8557151,183.185604 C87.8482522,183.185604 87.8407893,183.185189 87.8341556,183.185604 L87.8341556,12.3443073 C94.6996066,20.8224649 102.463093,29.3560803 102.463093,39.039657 L102.461849,175.384148 C115.803022,174.195707 128.604378,171.430287 140.262668,167.35231 C147.666277,169.952518 148.798979,175.216861 148.798979,175.216861 C148.798979,175.216861 118.362381,183.185604 87.8557151,183.185604" id="path26" fill="#B4B3B3"></path>
                        <path d="M115.365613,157.538017 C113.920713,157.538017 112.75277,158.709439 112.75277,160.154415 C112.75277,161.598975 113.920713,162.770397 115.365613,162.770397 C116.805123,162.770397 117.977627,161.598975 117.977627,160.154415 C117.977627,158.709439 116.805123,157.538017 115.365613,157.538017 M115.365613,163.485205 C113.526424,163.485205 112.036332,161.997059 112.036332,160.154415 C112.036332,158.315091 113.526424,156.826114 115.365613,156.826114 C117.201486,156.826114 118.689505,158.315091 118.689505,160.154415 C118.689505,161.997059 117.201486,163.485205 115.365613,163.485205" id="path28" fill="#871C30"></path>
                        <path d="M115.604011,160.510988 L114.710951,160.510988 L114.710951,161.342856 L115.604011,161.342856 C115.831215,161.342856 116.014885,161.155229 116.014885,160.928167 C116.014885,160.69737 115.831215,160.510988 115.604011,160.510988 M116.728836,160.928167 C116.728836,161.549577 116.22509,162.054343 115.604011,162.054343 L113.999488,162.054343 L113.999488,158.254071 L114.710951,158.254071 L114.710951,159.79452 L115.224647,159.79452 L115.943158,158.254071 L116.728836,158.254071 L115.979229,159.861767 C116.416223,160.01743 116.728836,160.4371 116.728836,160.928167" id="path30" fill="#871C30"></path>
                    </g>
                </g>
            </g>
        </g>
    </g>
</svg>