<?xml version="1.0" encoding="UTF-8"?>
<svg width="200px" height="200px" viewBox="0 0 200 200" version="1.1" xmlns="http://www.w3.org/2000/svg" xmlns:xlink="http://www.w3.org/1999/xlink">
    <!-- Generator: Sketch 54.1 (76490) - https://sketchapp.com -->
    <title>uab</title>
    <desc>Created with Sketch.</desc>
    <g id="uab" stroke="none" stroke-width="1" fill="none" fill-rule="evenodd">
        <g id="uab_BGL">
            <g id="uab" transform="translate(0.000000, 15.000000)">
                <g id="g10" transform="translate(99.944349, 84.856986) scale(-1, 1) rotate(-180.000000) translate(-99.944349, -84.856986) translate(0.000000, 0.271568)">
                    <g id="g12">
                        <path d="M103.311294,130.703169 C100.862324,130.452529 83.9732867,126.878572 80.8903708,126.37106 C77.8056742,125.863102 68.3151903,123.696825 62.3536991,123.310848 C64.6397313,122.290926 66.1426806,119.928322 66.2704491,117.967276 C67.4947117,118.580743 69.9378947,120.214132 71.7253182,123.95904 C74.6613226,122.647521 76.4514171,120.500832 76.7381172,118.39599 C78.5286569,119.061544 80.6023352,121.361377 82.3127414,125.685473 C83.649191,124.706953 85.5207547,121.850637 85.3262082,120.760821 C87.4381725,121.467331 89.8528636,124.235055 90.863882,126.883469 C93.0559799,124.972729 93.7037261,123.293041 93.8043382,120.077459 C95.5641601,121.361377 98.4280443,124.58141 99.812574,127.937226 C101.71352,125.712629 102.366163,122.364382 102.103948,119.648745 C104.226597,121.073787 106.446742,126.800219 106.700053,129.567498 C106.834499,131.042401 104.448745,130.818472 103.311294,130.703169 L103.311294,130.703169 L103.311294,130.703169 L103.311294,130.703169" id="path14" fill="#FFFFFF"></path>
                        <path d="M127.476012,124.216357 C125.696157,124.87835 122.194766,126.680464 119.817025,128.145573 C118.653753,128.860987 116.279574,129.795879 114.660431,129.376958 C113.038617,128.958928 112.159374,127.740453 111.788088,126.916858 C110.750359,122.988533 110.938228,118.31096 113.439285,115.328211 C114.500609,118.004672 118.079463,125.095601 120.606786,126.504616 C120.803113,124.790203 122.140898,122.223258 123.046408,121.204226 C124.016469,121.755812 124.909068,122.639507 125.412573,123.346463 C125.835055,122.316302 126.392429,120.974065 127.002334,120.143347 C127.774732,120.45008 128.89215,121.625373 129.387198,122.364382 C130.262434,121.491817 130.907064,119.756035 131.300609,118.605228 C132.04407,119.413686 133.305283,120.489702 134.366162,120.95047 C133.75136,118.692485 134.915077,114.709402 136.35392,112.846742 C137.503836,115.337115 138.03895,119.991984 136.634832,121.340898 C133.597326,122.159151 129.256758,123.554365 127.476012,124.216357 L127.476012,124.216357 L127.476012,124.216357 L127.476012,124.216357" id="path16" fill="#FFFFFF"></path>
                        <path d="M118.564716,78.9796307 C118.504616,79.7751789 118.048745,80.6058967 117.560821,81.2661082 C116.364605,80.026264 114.044738,78.304283 112.783525,78.5046168 C112.280019,78.7383397 111.491149,80.5173046 111.418139,82.0198087 C110.496603,81.4446279 106.607454,78.9720626 105.924093,77.4357243 C106.688033,76.7465757 110.221032,75.892263 111.792986,76.9918734 C112.928656,76.121534 115.345128,75.813465 117.478016,77.301278 C118.581188,76.6401762 120.190092,75.6981617 121.486029,75.6585401 C123.428823,75.5988851 125.636947,77.3564811 126.951138,78.8937098 C126.310514,79.6117954 124.633942,80.7964365 122.938227,81.0012222 C122.318083,80.0543107 119.917638,78.6639936 118.564716,78.9796307 L118.564716,78.9796307 L118.564716,78.9796307 L118.564716,78.9796307" id="path18" fill="#FFFFFF"></path>
                        <path d="M100.694043,80.6588739 C101.52298,80.4937097 102.436058,80.4140214 103.096714,80.8912612 C105.489146,83.5485789 106.612796,87.7021681 105.599552,91.3268758 C103.221366,88.3543662 99.5245384,85.2273768 96.9558128,85.8234814 C96.9558128,85.8234814 96.1117394,86.0776829 96.0876993,86.5282115 C97.4548668,88.5413445 97.7121845,91.4087901 97.1031695,93.6890349 C95.8873654,92.5609326 92.4398419,91.3522515 90.195212,92.1402314 C90.7432365,93.0924852 91.4399532,97.297716 90.3523628,98.8496358 C89.3444608,97.9254288 85.8697808,96.2880332 83.3584843,97.4495246 C84.310738,99.2218117 84.1998866,103.165273 82.9466869,104.676681 C82.9466869,104.676681 81.25854,101.62938 79.8223686,100.990537 C78.5642718,100.429602 77.4121294,100.060098 75.8370599,100.774177 C76.0801317,102.003782 76.443849,105.327988 75.2885902,107.026375 C74.5161918,105.203781 71.7408997,103.15904 69.4339437,102.720086 C69.4339437,102.720086 74.6065646,101.093375 77.9467983,99.3887566 C85.0261526,95.9434589 93.3026131,88.3450173 95.7546999,85.3622683 C98.2050059,82.3813001 98.3265418,81.2336095 100.694043,80.6588739 L100.694043,80.6588739 L100.694043,80.6588739 L100.694043,80.6588739" id="path20" fill="#FFFFFF"></path>
                        <path d="M66.8202543,108.666887 C65.9378948,107.090036 62.6332761,105.102279 60.9847508,104.791094 C63.1701709,104.34101 65.5096255,103.856647 67.6839159,103.175957 C69.0274885,104.69983 67.9666093,107.256536 66.8202543,108.666887 L66.8202543,108.666887 L66.8202543,108.666887 L66.8202543,108.666887" id="path22" fill="#FFFFFF"></path>
                        <path d="M80.9055072,142.939117 C83.6848059,145.253196 78.9279891,146.310069 78.9279891,146.310069 C81.9659412,145.336446 80.9055072,142.939117 80.9055072,142.939117 L80.9055072,142.939117 L80.9055072,142.939117 L80.9055072,142.939117" id="path24" fill="#FFFFFF"></path>
                        <path d="M71.7253182,123.95904 C69.9378947,120.214132 67.4947117,118.580743 66.2704491,117.967276 C66.1426806,119.928322 64.6397313,122.290926 62.3536991,123.310848 C68.3151903,123.696825 77.8056742,125.863102 80.8903708,126.37106 C83.9732867,126.878572 100.862324,130.452529 103.311294,130.703169 C104.448745,130.818472 106.834499,131.042401 106.700053,129.567498 C106.446742,126.800219 104.226597,121.073787 102.103948,119.648745 C102.366163,122.364382 101.71352,125.712629 99.812574,127.937226 C98.4280443,124.58141 95.5641601,121.361377 93.8043382,120.077459 C93.7037261,123.293041 93.0559799,124.972729 90.863882,126.883469 C89.8528636,124.235055 87.4381725,121.467331 85.3262082,120.760821 C85.5207547,121.850637 83.649191,124.706953 82.3127414,125.685473 C80.6023352,121.361377 78.5286569,119.061544 76.7381172,118.39599 C76.4514171,120.500832 74.6613226,122.647521 71.7253182,123.95904 L71.7253182,123.95904 L71.7253182,123.95904 L71.7253182,123.95904" id="path26" fill="#FFFFFF"></path>
                        <path d="M136.35392,112.846742 C134.915077,114.709402 133.75136,118.692485 134.366162,120.95047 C133.305283,120.489702 132.04407,119.413686 131.300609,118.605228 C130.907064,119.756035 130.262434,121.491817 129.387198,122.364382 C128.89215,121.625373 127.774732,120.45008 127.002334,120.143347 C126.392429,120.974065 125.835055,122.316302 125.412573,123.346463 C124.909068,122.639507 124.016469,121.755812 123.046408,121.204226 C122.140898,122.223258 120.803113,124.790203 120.606786,126.504616 C118.079463,125.095601 114.500609,118.004672 113.439285,115.328211 C110.938228,118.31096 110.750359,122.988533 111.788088,126.916858 C112.159374,127.740453 113.038617,128.958928 114.660431,129.376958 C116.279574,129.795879 118.653753,128.860987 119.817025,128.145573 C122.194766,126.680464 125.696157,124.87835 127.476012,124.216357 C129.256758,123.554365 133.597326,122.159151 136.634832,121.340898 C138.03895,119.991984 137.503836,115.337115 136.35392,112.846742 L136.35392,112.846742 L136.35392,112.846742 L136.35392,112.846742" id="path28" fill="#FFFFFF"></path>
                        <path d="M121.486029,75.6585401 C120.190092,75.6981617 118.581188,76.6401762 117.478016,77.301278 C115.345128,75.813465 112.928656,76.121534 111.792986,76.9918734 C110.221032,75.892263 106.688033,76.7465757 105.924093,77.4357243 C106.607454,78.9720626 110.496603,81.4446279 111.418139,82.0198087 C111.491149,80.5173046 112.280019,78.7383397 112.783525,78.5046168 C114.044738,78.304283 116.364605,80.026264 117.560821,81.2661082 C118.048745,80.6058967 118.504616,79.7751789 118.564716,78.9796307 C119.917638,78.6639936 122.318083,80.0543107 122.938227,81.0012222 C124.633942,80.7964365 126.310514,79.6117954 126.951138,78.8937098 C125.636947,77.3564811 123.428823,75.5988851 121.486029,75.6585401 L121.486029,75.6585401 L121.486029,75.6585401 L121.486029,75.6585401" id="path30" fill="#FFFFFF"></path>
                        <path d="M103.096714,80.8912612 C102.436058,80.4140214 101.52298,80.4937097 100.694043,80.6588739 C98.3265418,81.2336095 98.2050059,82.3813001 95.7546999,85.3622683 C93.3026131,88.3450173 85.0261526,95.9434589 77.9467983,99.3887566 C74.6065646,101.093375 69.4339437,102.720086 69.4339437,102.720086 C71.7408997,103.15904 74.5161918,105.203781 75.2885902,107.026375 C76.443849,105.327988 76.0801317,102.003782 75.8370599,100.774177 C77.4121294,100.060098 78.5642718,100.429602 79.8223686,100.990537 C81.25854,101.62938 82.9466869,104.676681 82.9466869,104.676681 C84.1998866,103.165273 84.310738,99.2218117 83.3584843,97.4495246 C85.8697808,96.2880332 89.3444608,97.9254288 90.3523628,98.8496358 C91.4399532,97.297716 90.7432365,93.0924852 90.195212,92.1402314 C92.4398419,91.3522515 95.8873654,92.5609326 97.1031695,93.6890349 C97.7121845,91.4087901 97.4548668,88.5413445 96.0876993,86.5282115 C96.1117394,86.0776829 96.9558128,85.8234814 96.9558128,85.8234814 C99.5245384,85.2273768 103.221366,88.3543662 105.599552,91.3268758 C106.612796,87.7021681 105.489146,83.5485789 103.096714,80.8912612 L103.096714,80.8912612 L103.096714,80.8912612 L103.096714,80.8912612" id="path32" fill="#FFFFFF"></path>
                        <path d="M67.6839159,103.175957 C65.5096255,103.856647 63.1701709,104.34101 60.9847508,104.791094 C62.6332761,105.102279 65.9378948,107.090036 66.8202543,108.666887 C67.9666093,107.256536 69.0274885,104.69983 67.6839159,103.175957 L67.6839159,103.175957 L67.6839159,103.175957 L67.6839159,103.175957" id="path34" fill="#FFFFFF"></path>
                        <path d="M183.302833,87.3802983 C183.570836,87.3277663 183.86822,87.3464641 184.181186,87.4279333 L184.181186,87.4279333 L184.182967,87.4279333 L184.182967,87.4279333 C184.490591,87.5089572 184.816912,87.6531976 185.14457,87.8521959 L185.14457,87.8521959 L185.14457,87.8521959 L185.14457,87.8521959 C187.841954,89.4820234 190.76861,94.8514167 187.28191,100.180743 C187.262767,100.20879 187.24763,100.236837 187.229378,100.264883 L187.229378,100.264883 L187.227152,100.264883 L187.227152,100.264883 C187.227152,100.267109 187.226261,100.267555 187.226261,100.267555 C187.092705,100.467443 186.952472,100.667332 186.800663,100.867221 C187.386528,98.0082335 187.745794,92.585863 183.302833,87.3802983 L183.302833,87.3802983 L183.302833,87.3802983 L183.302833,87.3802983" id="path36" fill="#F3D075"></path>
                        <path d="M120.118417,100.386864 C122.078572,98.2575379 123.216469,95.9804094 123.73244,94.3390071 C125.628934,96.3062859 125.918305,99.5971038 125.28614,100.873898 C127.850859,100.097939 137.725984,93.7144106 139.518305,92.2261524 C141.307954,90.7347779 145.691705,86.9636038 147.841955,85.8355015 C149.662322,84.8819122 152.912183,84.193654 155.053085,84.8507491 C149.128544,87.286364 145.960597,89.3791853 143.545461,91.8477439 C144.027153,91.9559242 144.458538,92.0097918 144.938895,92.3859743 C141.281688,94.472563 137.530102,97.7540321 134.602111,99.342012 C131.67234,100.928656 124.511516,105.592429 118.555367,106.581633 C118.09727,106.976514 118.498383,107.597104 118.560709,108.052529 C116.756369,107.934555 114.647521,107.751138 112.72298,108.255534 C107.711517,108.550693 103.581077,110.122646 101.291483,110.551361 C99.1501366,110.952919 94.3995525,111.661656 87.909625,111.526764 C87.7644942,111.471116 87.2627691,111.329992 86.6524185,111.158595 C85.4539767,110.820253 83.8245945,110.360821 83.6006657,110.186753 C84.1032811,110.105284 84.6624353,110.027821 85.2625466,109.95214 C90.6733422,109.266553 99.5815223,108.767053 104.091706,107.740454 C109.38052,106.543793 116.824482,103.965273 120.118417,100.386864 L120.118417,100.386864 L120.118417,100.386864 L120.118417,100.386864" id="path38" fill="#F3D075"></path>
                        <path d="M168.993652,66.4556466 C168.041398,66.5843055 164.948688,66.7623801 163.130992,66.5273217 C161.315967,66.2935988 156.860096,66.2935988 154.843402,66.8238158 C153.810569,67.0967151 152.618805,67.688813 151.564604,68.3641608 C153.478015,67.9042832 155.677236,67.688813 158.202778,68.0124635 C161.465104,68.4260417 169.532773,69.085808 172.806228,67.3130757 C173.721532,66.8166928 174.588309,65.9476889 174.843846,64.9099594 C173.066217,65.6819127 169.944125,66.3243167 168.993652,66.4556466 L168.993652,66.4556466 L168.993652,66.4556466 L168.993652,66.4556466 Z M178.210791,66.1693918 C177.722867,66.8483011 177.040396,67.4355019 176.272004,67.9305492 C174.537113,69.0430701 172.362823,69.6765703 170.996546,69.8043388 C169.028376,69.9850845 166.253084,70.1587072 163.732884,69.8902598 C159.072673,69.3943221 154.692038,69.4464089 152.780408,69.6765703 C151.641176,69.8145781 150.524203,69.9797423 149.331104,70.2873661 C148.519084,70.4966037 147.672784,70.7686126 146.754365,71.1479114 C147.164381,69.9472437 148.195433,68.8431814 149.331104,67.8882565 C149.389423,67.8406216 149.445517,67.7903155 149.503836,67.7440161 C151.86644,65.8114619 155.303725,64.5222021 158.594543,64.2782399 C161.88536,64.0333874 165.977514,64.4883679 169.500719,63.9260975 C171.935444,63.6180285 174.588309,62.6728977 176.133997,61.3542556 C176.182522,61.3132984 176.22526,61.2732316 176.272004,61.2304937 C177.738894,59.9483569 178.720975,58.6341666 179.039728,57.5212006 C179.624258,60.3859751 179.761376,64.0071214 178.210791,66.1693918 L178.210791,66.1693918 L178.210791,66.1693918 L178.210791,66.1693918 L178.210791,66.1693918 Z" id="path40" fill="#E6A909"></path>
                        <path d="M199.867775,72.0302709 C200.008008,80.5520291 194.0296,89.4508603 185.14457,87.8521959 C184.816022,87.6531976 184.490146,87.5089572 184.181186,87.4279333 C194.426261,87.7845276 195.941676,79.2222573 195.941676,79.2222573 C190.623479,82.273565 185.781631,82.0438488 179.614464,80.7065088 C174.710736,79.6407326 172.623702,79.620254 168.817358,83.0156907 C169.647631,80.2631032 171.6158,78.4627693 173.771392,77.7282117 C166.495266,79.7057298 160.927764,72.5128529 152.30673,73.4459637 C151.641176,73.518529 150.960041,73.6316064 150.256646,73.8114617 C156.263992,70.9551457 162.094153,73.1744 166.704503,74.8790187 C172.966495,77.1979947 184.315633,72.1469097 188.768832,76.4020014 C185.49048,76.389091 180.074342,77.549692 177.07423,78.4320515 C177.07423,78.4320515 178.512628,79.1550342 185.259428,79.3277665 C192.008899,79.4996085 197.626706,74.8830254 199.867775,72.0302709 L199.867775,72.0302709 L199.867775,72.0302709 L199.867775,72.0302709" id="path42" fill="#E6A909"></path>
                        <path d="M199.867775,72.0302709 C200.008008,80.5520291 194.0296,89.4508603 185.14457,87.8521959 C184.816912,87.6531976 184.490591,87.5089572 184.182967,87.4279333 C194.427152,87.783192 195.941676,79.2222573 195.941676,79.2222573 C190.623479,82.273565 185.781631,82.0438488 179.614464,80.7065088 C174.710736,79.6407326 172.623702,79.620254 168.817358,83.0156907 C169.647631,80.2631032 171.6158,78.4627693 173.771392,77.7282117 C166.495266,79.7057298 160.927764,72.5128529 152.30673,73.4459637 C151.641176,73.518529 150.960041,73.6316064 150.256646,73.8114617 C156.263992,70.9551457 162.094153,73.1744 166.704503,74.8790187 C172.966495,77.1979947 184.315633,72.1469097 188.768832,76.4020014 C185.49048,76.389091 180.074342,77.549692 177.07423,78.4320515 C177.07423,78.4320515 178.512628,79.1550342 185.259428,79.3277665 C192.008899,79.4996085 197.626706,74.8830254 199.867775,72.0302709 L199.867775,72.0302709 L199.867775,72.0302709 L199.867775,72.0302709" id="path44" fill="#E6A909"></path>
                        <path d="M162.692483,85.68859 C157.485138,86.2121292 149.885361,89.1374491 146.275344,91.4764585 C147.463992,91.8673321 148.290258,92.5662748 148.596546,93.5336649 C146.174287,93.7286565 138.986752,99.5886453 137.722868,100.369502 C131.212462,104.393542 120.643291,108.794655 120.643291,108.794655 C120.860542,109.446408 120.764382,111.05175 120.379296,111.511628 C119.119418,110.276681 114.735668,109.988645 111.742234,110.551361 C108.749246,111.114076 103.511628,111.774733 101.319085,112.056536 C97.4254845,112.55559 89.9895359,112.232385 87.909625,111.526764 C94.3995525,111.661656 99.1501366,110.952919 101.291483,110.551361 C103.581077,110.122646 107.711517,108.550693 112.72298,108.255534 C114.647521,107.751138 116.756369,107.934555 118.560709,108.052529 C118.498383,107.597104 118.09727,106.976514 118.555367,106.581633 C124.511516,105.592429 131.67234,100.928656 134.602111,99.342012 C137.530102,97.7540321 141.281688,94.472563 144.938895,92.3859743 C144.458538,92.0097918 144.027153,91.9559242 143.545461,91.8477439 C145.960597,89.3791853 149.128544,87.286364 155.053085,84.8507491 C152.912183,84.193654 149.662322,84.8819122 147.841955,85.8355015 C145.691705,86.9636038 141.307954,90.7347779 139.518305,92.2261524 C137.725984,93.7144106 127.850859,100.097939 125.28614,100.873898 C125.918305,99.5971038 125.628934,96.3062859 123.73244,94.3390071 C123.216469,95.9804094 122.078572,98.2575379 120.118417,100.386864 C116.824482,103.965273 109.38052,106.543793 104.091706,107.740454 C99.5815223,108.767053 90.6733422,109.266553 85.2625466,109.95214 C85.4838042,109.673008 86.2085677,109.817248 86.4431809,109.538562 C86.7792967,109.470448 90.4703372,108.752808 91.8179165,108.457204 C98.2646609,107.464438 105.074677,106.405785 110.838951,103.161711 C113.460654,101.639174 116.968278,98.9538094 118.301166,97.0911495 C119.634499,95.2275992 120.834722,93.1561468 120.259541,90.0745665 C124.41402,89.8622126 127.563714,93.0840266 128.565829,95.7164139 C130.569613,94.945351 131.370948,94.1578162 132.743903,93.2981613 C137.255422,90.4881446 141.271894,85.5804097 145.690814,82.9386735 C151.83038,79.2694471 161.065327,83.7057297 162.692483,85.68859 L162.692483,85.68859 L162.692483,85.68859 L162.692483,85.68859" id="path46" fill="#E6A909"></path>
                        <path d="M80.9055072,142.939117 C80.9055072,142.939117 81.9659412,145.336446 78.9279891,146.310069 C78.9279891,146.310069 83.6848059,145.253196 80.9055072,142.939117 L80.9055072,142.939117 L80.9055072,142.939117 Z M77.0613225,141.988644 C79.4800203,142.208121 82.209013,142.243736 85.1623796,142.561154 C83.7885344,143.550358 82.4302706,145.307954 81.0314949,146.066107 C77.7424577,147.847297 75.156815,148.104615 73.8769041,147.366496 C72.5132981,146.581187 68.4803544,143.135444 70.3073995,140.349913 C70.3073995,140.349913 71.4065647,140.826708 73.2705602,141.354699 C73.3400093,141.374732 73.4121295,141.390314 73.4833593,141.409457 C74.2998312,143.472896 75.5156353,145.552807 76.8244833,146.777069 C76.4883676,145.17974 76.5774049,143.550358 77.0613225,141.988644 L77.0613225,141.988644 L77.0613225,141.988644 L77.0613225,141.988644 L77.0613225,141.988644 Z" id="path48" fill="#E6A909"></path>
                        <path d="M145.690814,82.9386735 C141.271894,85.5804097 137.255422,90.4881446 132.743903,93.2981613 C131.370948,94.1578162 130.569613,94.945351 128.565829,95.7164139 C127.563714,93.0840266 124.41402,89.8622126 120.259541,90.0745665 C120.834722,93.1561468 119.634499,95.2275992 118.301166,97.0911495 C116.968278,98.9538094 113.460654,101.639174 110.838951,103.161711 C105.074677,106.405785 98.2646609,107.464438 91.8179165,108.457204 C90.4703372,108.752808 86.7792967,109.470448 86.4431809,109.538562 C86.2085677,109.817248 85.4838042,109.673008 85.2625466,109.95214 C84.6624353,110.027821 84.1032811,110.105284 83.6006657,110.186753 C83.8245945,110.360821 85.4539767,110.820253 86.6524185,111.158595 C86.7904263,111.256981 87.0918175,111.36071 87.909625,111.526764 C89.9895359,112.232385 97.4254845,112.55559 101.319085,112.056536 C103.511628,111.774733 108.749246,111.114076 111.742234,110.551361 C114.735668,109.988645 119.119418,110.276681 120.379296,111.511628 C120.764382,111.05175 120.860542,109.446408 120.643291,108.794655 C120.643291,108.794655 131.212462,104.393542 137.722868,100.369502 C138.986752,99.5886453 146.174287,93.7286565 148.596546,93.5336649 C148.290258,92.5662748 147.463992,91.8673321 146.275344,91.4764585 C149.885361,89.1374491 157.485138,86.2121292 162.692483,85.68859 C161.065327,83.7057297 151.83038,79.2694471 145.690814,82.9386735 L145.690814,82.9386735 L145.690814,82.9386735 L145.690814,82.9386735 Z M184.181186,87.4279333 C183.86822,87.3464641 183.570836,87.3277663 183.302833,87.3802983 C187.745794,92.585863 187.386528,98.0082335 186.800663,100.867221 C185.283468,92.2430695 177.757592,87.8250395 173.011014,87.8797975 C168.950024,87.926542 166.230825,88.6201425 162.310959,90.7530306 C157.470892,93.3863082 157.128544,97.5933198 151.490258,100.056536 C152.25865,98.5255401 152.403335,95.4466309 151.13678,94.0024462 C149.344459,96.6050059 141.654754,104.261322 138.031382,106.895045 C137.848856,107.027265 137.673007,107.150582 137.514521,107.256536 C133.934332,109.621366 125.055979,116.134443 117.950359,117.809235 C117.023481,117.030604 114.713408,112.51953 114.695156,110.713408 C110.31096,113.323982 109.071116,117.349357 107.977738,120.692707 C105.587087,118.69471 100.343236,115.875345 98.9150782,116.142012 C99.6807988,117.030604 100.001333,120.626819 99.3255401,121.803447 C97.4228134,119.718194 94.0968257,116.117526 90.6764585,115.98397 C91.2351674,116.812462 91.680799,120.626819 90.7151897,121.831049 C89.5327746,119.875345 86.3016116,117.435723 83.2605433,117.125874 C83.4145778,118.049635 83.5739545,119.44574 82.6034481,120.398439 C80.7821905,117.459763 77.3996642,114.935111 74.3292135,114.919975 C74.6844723,117.106731 74.1658301,119.022368 72.6424022,120.276903 C71.1180839,117.993542 69.2923745,115.347354 64.4669989,115.109624 C64.4251514,116.849413 62.8500819,120.571171 61.1828588,121.156591 C59.7889801,119.76761 58.3465762,114.14446 58.1961032,112.69983 C57.9819685,110.623036 58.8447398,107.623815 61.3288799,107.870448 C63.476014,108.087254 65.6316066,110.701388 66.449414,112.421589 C68.6922632,111.723536 70.3082898,108.107732 70.8527528,106.149803 C72.0859192,106.987198 74.3755129,109.120977 74.9217566,111.256981 C77.6409552,109.466887 78.7423464,106.111962 78.7347782,103.583748 C80.3160804,104.895712 82.1791855,107.329101 82.6964921,109.111628 C84.9549228,107.689257 86.9742883,103.320198 86.6061191,99.9167476 C87.9403428,100.372173 89.6231475,101.388089 90.7552565,102.806007 C92.7723961,101.099608 93.989981,97.5203092 93.4722292,94.8273766 C94.5629359,95.0156904 97.7121845,97.1641601 98.4908156,98.6466308 C99.5004983,97.0920399 100.290704,91.6531975 99.9167476,89.5416783 C102.077682,90.8647724 105.444182,94.6595413 106.711628,97.054199 C107.377182,95.8753454 108.165161,93.3707267 108.234611,91.5784062 C112.305395,90.503281 117.464215,88.4238153 120.733219,86.8487457 C123.374955,85.5737319 127.283247,83.4506379 130.804226,81.1561471 C133.130325,79.639397 135.289924,78.0491911 136.799106,76.5814116 C139.140787,74.3047282 139.785862,71.3406771 140.324983,69.1356688 C142.471226,71.2324968 142.225038,77.0444054 141.62003,78.2887014 C143.652306,76.9246503 145.278127,75.3304377 147.212016,74.7516954 C148.666886,74.1782953 150.458761,73.7393415 152.30673,73.4459637 C160.927764,72.5128529 166.495266,79.7057298 173.771392,77.7282117 C171.6158,78.4627693 169.647631,80.2631032 168.817358,83.0156907 C172.623702,79.620254 174.710736,79.6407326 179.614464,80.7065088 C185.781631,82.0438488 190.623479,82.273565 195.941676,79.2222573 C195.941676,79.2222573 194.426261,87.7845276 184.181186,87.4279333 L184.181186,87.4279333 L184.181186,87.4279333 L184.181186,87.4279333 L184.181186,87.4279333 Z" id="path50" fill="#D82342"></path>
                        <path d="M145.690814,82.9386735 C141.271894,85.5804097 137.255422,90.4881446 132.743903,93.2981613 C131.370948,94.1578162 130.569613,94.945351 128.565829,95.7164139 C127.563714,93.0840266 124.41402,89.8622126 120.259541,90.0745665 C120.834722,93.1561468 119.634499,95.2275992 118.301166,97.0911495 C116.968278,98.9538094 113.460654,101.639174 110.838951,103.161711 C105.074677,106.405785 98.2646609,107.464438 91.8179165,108.457204 C90.4703372,108.752808 86.7792967,109.470448 86.4431809,109.538562 C86.2085677,109.817248 85.4838042,109.673008 85.2625466,109.95214 C84.6624353,110.027821 84.1032811,110.105284 83.6006657,110.186753 C83.8245945,110.360821 85.4539767,110.820253 86.6524185,111.158595 C87.2627691,111.329992 87.7644942,111.471116 87.909625,111.526764 C89.9895359,112.232385 97.4254845,112.55559 101.319085,112.056536 C103.511628,111.774733 108.749246,111.114076 111.742234,110.551361 C114.735668,109.988645 119.119418,110.276681 120.379296,111.511628 C120.764382,111.05175 120.860542,109.446408 120.643291,108.794655 C120.643291,108.794655 131.212462,104.393542 137.722868,100.369502 C138.986752,99.5886453 146.174287,93.7286565 148.596546,93.5336649 C148.290258,92.5662748 147.463992,91.8673321 146.275344,91.4764585 C149.885361,89.1374491 157.485138,86.2121292 162.692483,85.68859 C161.065327,83.7057297 151.83038,79.2694471 145.690814,82.9386735 L145.690814,82.9386735 L145.690814,82.9386735 L145.690814,82.9386735 Z M173.771392,77.7282117 C171.6158,78.4627693 169.647631,80.2631032 168.817358,83.0156907 C172.623702,79.620254 174.710736,79.6407326 179.614464,80.7065088 C185.781631,82.0438488 190.623479,82.273565 195.941676,79.2222573 C195.941676,79.2222573 194.427152,87.783192 184.182967,87.4279333 L184.182967,87.4279333 L184.181186,87.4279333 L184.181186,87.4279333 C183.86822,87.3464641 183.570836,87.3277663 183.302833,87.3802983 C187.745794,92.585863 187.386528,98.0082335 186.800663,100.867221 C185.283468,92.2430695 177.757592,87.8250395 173.011014,87.8797975 C168.950024,87.926542 166.230825,88.6201425 162.310959,90.7530306 C157.470892,93.3863082 157.128544,97.5933198 151.490258,100.056536 C152.25865,98.5255401 152.403335,95.4466309 151.13678,94.0024462 C149.253641,96.7354456 140.864549,105.046185 137.514521,107.256536 C133.934332,109.621366 125.055979,116.134443 117.950359,117.809235 C117.023481,117.030604 114.713408,112.51953 114.695156,110.713408 C110.31096,113.323982 109.071116,117.349357 107.977738,120.692707 C105.587087,118.69471 100.343236,115.875345 98.9150782,116.142012 C99.6807988,117.030604 100.001333,120.626819 99.3255401,121.803447 C97.4228134,119.718194 94.0968257,116.117526 90.6764585,115.98397 C91.2351674,116.812462 91.680799,120.626819 90.7151897,121.831049 C89.5327746,119.875345 86.3016116,117.435723 83.2605433,117.125874 C83.4145778,118.049635 83.5739545,119.44574 82.6034481,120.398439 C80.7821905,117.459763 77.3996642,114.935111 74.3292135,114.919975 C74.6844723,117.106731 74.1658301,119.022368 72.6424022,120.276903 C71.1180839,117.993542 69.2923745,115.347354 64.4669989,115.109624 C64.4251514,116.849413 62.8500819,120.571171 61.1828588,121.156591 C59.7889801,119.76761 58.3465762,114.14446 58.1961032,112.69983 C57.9819685,110.623036 58.8447398,107.623815 61.3288799,107.870448 C63.476014,108.087254 65.6316066,110.701388 66.449414,112.421589 C68.6922632,111.723536 70.3082898,108.107732 70.8527528,106.149803 C72.0859192,106.987198 74.3755129,109.120977 74.9217566,111.256981 C77.6409552,109.466887 78.7423464,106.111962 78.7347782,103.583748 C80.3160804,104.895712 82.1791855,107.329101 82.6964921,109.111628 C84.9549228,107.689257 86.9742883,103.320198 86.6061191,99.9167476 C87.9403428,100.372173 89.6231475,101.388089 90.7552565,102.806007 C92.7723961,101.099608 93.989981,97.5203092 93.4722292,94.8273766 C94.5629359,95.0156904 97.7121845,97.1641601 98.4908156,98.6466308 C99.5004983,97.0920399 100.290704,91.6531975 99.9167476,89.5416783 C102.077682,90.8647724 105.444182,94.6595413 106.711628,97.054199 C107.377182,95.8753454 108.165161,93.3707267 108.234611,91.5784062 C112.305395,90.503281 117.464215,88.4238153 120.733219,86.8487457 C125.121867,84.7318844 133.003892,80.269781 136.799106,76.5814116 C139.140787,74.3047282 139.785862,71.3406771 140.324983,69.1356688 C142.471226,71.2324968 142.225038,77.0444054 141.62003,78.2887014 C143.652306,76.9246503 145.278127,75.3304377 147.212016,74.7516954 C148.666886,74.1782953 150.458761,73.7393415 152.30673,73.4459637 C160.927764,72.5128529 166.495266,79.7057298 173.771392,77.7282117 L173.771392,77.7282117 L173.771392,77.7282117 L173.771392,77.7282117 L173.771392,77.7282117 Z" id="path52" fill="#D82342"></path>
                        <path d="M172.806228,67.3130757 C169.532773,69.085808 161.465104,68.4260417 158.202778,68.0124635 C155.677236,67.688813 153.478015,67.9042832 151.564604,68.3641608 C152.618805,67.688813 153.810569,67.0967151 154.843402,66.8238158 C156.860096,66.2935988 161.315967,66.2935988 163.130992,66.5273217 C164.948688,66.7623801 168.041398,66.5843055 168.993652,66.4556466 C169.944125,66.3243167 173.066217,65.6819127 174.843846,64.9099594 C174.588309,65.9476889 173.721532,66.8166928 172.806228,67.3130757 L172.806228,67.3130757 L172.806228,67.3130757 L172.806228,67.3130757" id="path54" fill="#D82342"></path>
                        <path d="M4.97339999,119.928322 L6.26199205,119.44574 L6.26199205,119.44574 C6.40979394,120.036502 7.51354461,122.022034 7.71022797,122.613686 C7.3160154,122.169836 5.26900376,120.420698 4.97339999,119.928322 L4.97339999,119.928322 L4.97339999,119.928322 L4.97339999,119.928322" id="path56" fill="#3F9D7D"></path>
                        <path d="M11.2400665,130.530436 C9.90993854,130.234387 8.7752029,129.29638 7.59252068,128.60545 L7.59252068,128.60545 L9.61429024,127.915857 L11.2400665,130.530436 L11.2400665,130.530436 L11.2400665,130.530436" id="path58" fill="#3F9D7D"></path>
                        <path d="M17.6490146,137.38141 C15.5281465,137.432606 13.9032161,137.332885 11.9793431,137.037281 L11.9793431,137.037281 L15.135136,134.916858 L15.135136,134.916858 C15.9249857,135.658539 16.9588421,136.692261 17.6490146,137.38141 L17.6490146,137.38141 L17.6490146,137.38141 L17.6490146,137.38141" id="path60" fill="#3F9D7D"></path>
                        <path d="M22.2339449,139.748021 C24.5513183,140.584971 26.7675452,141.837281 29.1338001,142.478794 C26.223572,143.512072 22.4817357,143.249857 19.522448,142.805561 C21.0013128,142.31185 21.7604001,140.76082 22.2339449,139.748021 L22.2339449,139.748021 L22.2339449,139.748021 L22.2339449,139.748021" id="path62" fill="#3F9D7D"></path>
                        <path d="M38.4070775,145.571059 C38.0816908,145.841733 36.7219579,146.416468 35.8418689,146.501499 C36.2350575,145.46644 37.0031822,144.442067 37.1014348,143.307286 C37.9004999,144.606785 38.4070775,145.571059 38.4070775,145.571059 L38.4070775,145.571059 L38.4070775,145.571059 L38.4070775,145.571059" id="path64" fill="#3F9D7D"></path>
                        <path d="M83.2436262,131.384749 C75.5120738,128.622813 60.6749011,127.695489 56.0445172,130.259318 C57.8386185,132.671783 58.8411783,138.111516 56.3503603,140.244849 C56.5506942,134.387977 51.25075,127.588199 43.5868659,127.439062 C46.5994424,125.79944 49.361824,125.38141 51.6554244,126.382189 C49.6080121,121.068444 48.2159142,111.727988 49.1744006,110.246408 C50.2223694,108.621478 53.039509,105.317749 53.039509,105.317749 L53.039509,105.317749 L55.8192529,102.731661 L55.8192529,102.731661 C55.8192529,102.731661 51.3918741,108.764382 50.8313844,111.176848 C50.2704495,113.587532 53.1316626,123.61313 53.9436826,127.017025 L53.9436826,127.017025 L53.9436826,127.023703 L53.9436826,127.023703 C58.097717,125.551026 63.9910947,125.991761 69.6485236,126.907064 C75.5263198,127.854421 101.71352,134.071894 110.433831,134.045628 C111.320643,134.043848 112.026263,133.97796 112.511962,133.83372 C109.067109,135.191093 91.6781279,134.398216 83.2436262,131.384749 L83.2436262,131.384749 L83.2436262,131.384749 L83.2436262,131.384749" id="path66" fill="#3F9D7D"></path>
                        <path d="M115.000108,19.6461208 C114.749023,22.1951692 112.978517,26.1752247 110.729435,27.9377177 C108.591205,28.3552581 104.349469,27.7872892 101.648523,27.6466103 C107.602446,25.1307729 112.705618,21.9428375 115.000108,19.6461208 L115.000108,19.6461208 L115.000108,19.6461208 L115.000108,19.6461208" id="path68" fill="#3F9D7D"></path>
                        <path d="M34.1482462,112.661989 C33.1931878,111.110515 32.370795,106.879463 32.1267883,105.298161 C35.1215573,105.379185 39.7294147,105.752696 41.2745232,105.243848 C39.6555138,106.827376 36.3638945,109.272785 34.1482462,112.661989 L34.1482462,112.661989 L34.1482462,112.661989 L34.1482462,112.661989" id="path70" fill="#3F9D7D"></path>
                        <path d="M47.2440723,96.3761801 C46.6728981,97.737115 46.0714513,99.6594299 44.5333322,101.364049 C40.4387302,102.496603 33.7865323,102.103948 32.0906392,100.574288 C32.1370721,98.4476325 32.2101272,96.2127967 33.013377,94.324316 C37.498452,96.1834144 42.2080346,97.813687 47.2440723,96.3761801 L47.2440723,96.3761801 L47.2440723,96.3761801 L47.2440723,96.3761801" id="path72" fill="#3F9D7D"></path>
                        <path d="M48.0324974,93.1588179 C45.0355025,94.021144 37.6514626,93.2278218 34.0715406,90.6515281 C34.6456085,86.6435148 37.6775505,81.5025021 37.6775505,81.5025021 C37.6775505,81.5025021 45.9913177,85.4610997 53.3778506,85.5372266 C51.3687244,87.9194191 49.7201991,90.5918731 48.0324974,93.1588179 L48.0324974,93.1588179 L48.0324974,93.1588179 L48.0324974,93.1588179" id="path74" fill="#3F9D7D"></path>
                        <path d="M46.8696705,67.3255409 C51.6705608,71.2787962 57.9922078,72.6330533 63.4835822,75.0245947 C60.8948232,77.201111 58.5905383,79.8789073 56.2101266,82.4222573 C50.4654411,82.123092 44.6646622,80.582747 39.8770385,77.325318 C41.3828815,73.7291022 44.3370941,70.4418458 46.8696705,67.3255409 L46.8696705,67.3255409 L46.8696705,67.3255409 L46.8696705,67.3255409" id="path76" fill="#3F9D7D"></path>
                        <path d="M57.3449067,55.4884794 C64.268891,60.0948232 72.0275998,61.961935 80.1144109,62.1867541 C76.7332201,65.1663868 69.8631034,69.3805214 66.1466873,71.5610444 C59.755146,70.6176944 54.8941556,67.9189744 49.9085129,63.3059528 C51.4127978,60.4638827 54.8233709,57.8604326 57.3449067,55.4884794 L57.3449067,55.4884794 L57.3449067,55.4884794 L57.3449067,55.4884794" id="path78" fill="#3F9D7D"></path>
                        <path d="M72.269336,44.7746233 C80.4327192,49.3676115 90.2272654,49.9757361 95.8041156,49.3676115 C93.1258741,52.810238 87.9585955,57.0203659 84.3868649,58.5518071 C77.4989407,59.3161922 68.2550901,56.5017237 60.5965483,52.2363927 C60.5965483,52.2363927 64.8066762,47.2609894 72.269336,44.7746233 L72.269336,44.7746233 L72.269336,44.7746233 L72.269336,44.7746233" id="path80" fill="#3F9D7D"></path>
                        <path d="M95.8041156,32.3351355 C99.3651617,32.610795 105.839062,33.1623809 108.624594,33.0399547 C108.624594,33.0399547 106.07234,40.6935104 99.1853064,45.0297151 C93.5710605,45.7963261 82.600777,43.6259978 77.4361695,41.1386968 C77.4361695,41.1386968 89.2968258,36.1651187 95.8041156,32.3351355 L95.8041156,32.3351355 L95.8041156,32.3351355 L95.8041156,32.3351355" id="path82" fill="#3F9D7D"></path>
                        <path d="M116.713631,141.875567 C119.246742,140.516413 122.228155,136.572061 122.821143,135.873118 C123.19599,135.431939 124.07835,134.136446 123.463992,133.452195 C122.183636,134.017136 121.33333,135.201332 120.205673,136.254198 C119.992874,136.583191 119.629602,137.077793 119.109179,137.147687 C118.902167,136.519529 120.142011,135.405228 119.771616,134.951137 C118.674677,135.546352 117.901833,136.406007 116.602334,136.99855 C115.302835,137.593319 113.639174,138.075456 112.420253,138.368833 C113.770504,139.569946 114.969391,141.461098 116.713631,141.875567 L116.713631,141.875567 L116.713631,141.875567 Z M55.8192529,102.731661 L53.039509,105.317749 L53.039509,105.317749 C53.039509,105.317749 50.2223694,108.621478 49.1744006,110.246408 C48.2159142,111.727988 49.6080121,121.068444 51.6554244,126.382189 C49.361824,125.38141 46.5994424,125.79944 43.5868659,127.439062 C51.25075,127.588199 56.5506942,134.387977 56.3503603,140.244849 C58.8411783,138.111516 57.8386185,132.671783 56.0445172,130.259318 C60.6749011,127.695489 75.5120738,128.622813 83.2436262,131.384749 C91.6781279,134.398216 109.067109,135.191093 112.511962,133.83372 C112.026263,133.97796 111.320643,134.043848 110.433831,134.045628 C114.25175,133.757147 117.883581,132.777292 121.007009,130.523759 C123.984415,128.375734 131.142568,125.441956 136.940675,125.019474 C136.328989,125.613798 136.028489,126.962267 136.243514,127.821032 C136.565383,129.108066 136.432273,131.251193 136.349913,131.848633 C136.267999,132.445628 136.05698,133.403224 135.845962,133.798105 C135.480019,133.70239 135.142122,133.574621 134.895934,133.214465 C135.383413,132.33077 135.897604,131.506285 135.860208,130.427598 C135.829935,130.26377 135.679462,130.198327 135.55392,130.13422 C134.418694,131.687031 131.51875,134.477014 130.165829,135.472451 C130.782857,136.351249 131.762267,136.835166 132.562267,137.778961 C133.63294,138.49215 134.823369,137.799885 135.955923,138.346574 C136.154921,139.40033 134.641288,139.219585 134.149802,139.185751 C132.271115,139.052195 126.256647,135.873118 126.49126,133.563937 C126.459652,133.237615 126.093709,133.27323 125.939674,133.27323 C125.33244,134.357259 125.461099,137.23895 124.641956,138.19432 C122.724538,140.627264 120.931327,142.767275 118.737894,145.139674 C116.999886,145.903613 113.358706,144.943792 113.358706,144.943792 C111.861099,144.758149 109.961934,142.409791 108.584972,141.927654 C108.611683,141.241621 110.102168,139.562823 110.225039,139.201332 C110.13244,138.972951 109.947688,138.679574 109.761155,138.549134 C107.840175,139.307732 103.882468,140.159818 102.042958,140.382857 C98.3563693,140.833385 89.2897028,140.152695 86.4476328,140.073897 C81.0693358,140.66555 73.8021128,139.613575 70.3670544,138.82604 C67.2347229,138.110625 63.2796868,136.536001 61.1321075,135.463102 C61.7758471,136.529323 61.9908721,137.682801 61.9597091,138.629268 C59.270338,141.117414 51.4688913,144.411349 45.6578731,143.382078 C44.5952131,142.764604 43.3392532,141.5488 42.6631041,140.472339 C41.5852633,138.680464 40.8625477,136.835166 40.4251965,134.776179 C39.7991309,128.804449 44.237773,124.009346 47.0352798,121.837281 C46.5994424,121.645406 45.8840278,121.288812 44.6811341,121.558149 C44.0951798,119.928322 43.8797095,117.494043 44.3196873,115.472451 C43.7371163,114.775289 42.4485243,114.203225 41.5000546,113.951249 C41.5000546,113.951249 50.5010561,102.471227 53.2678896,99.0499697 C57.4811338,99.0259296 62.8180285,98.1738428 66.1426806,97.3809658 C69.4682231,96.5845274 78.1685011,93.2278218 84.8004431,89.0599866 C77.1663865,96.4491907 66.3572604,100.599218 64.0053406,101.271005 C61.6516401,101.943236 57.5919852,102.555367 55.8192529,102.731661 L55.8192529,102.731661 L55.8192529,102.731661 L55.8192529,102.731661 L55.8192529,102.731661 Z" id="path84" fill="#007B5E"></path>
                        <path d="M15.8893263,128.447409 L18.7532995,130.952473 L18.7532995,130.952473 C18.7532995,130.952473 19.1098048,132.671783 19.3262989,133.386307 C18.2900385,132.448745 14.9591538,129.089813 13.9573063,127.729769 C14.8876568,128.018249 15.8893263,128.447409 15.8893263,128.447409 L15.8893263,128.447409 L15.8893263,128.447409 L15.8893263,128.447409" id="path86" fill="#007B5E"></path>
                        <path d="M10.302771,118.550915 C8.52914837,116.134443 7.98655517,113.176625 7.09863087,110.414243 C7.79165256,112.684249 10.3773843,116.134443 10.3773843,116.134443 C10.3773843,116.134443 10.4877905,117.757593 10.302771,118.550915 L10.302771,118.550915 L10.302771,118.550915 L10.302771,118.550915" id="path88" fill="#007B5E"></path>
                        <path d="M12.7401666,113.629379 C11.2124204,111.114076 9.29099587,108.179853 8.25682784,105.417026 C8.10831365,103.79076 8.58880335,101.817248 9.19309938,100.289814 C10.9503837,104.823592 12.811619,109.047521 16.9633385,113.629379 C15.7806563,113.924983 14.0287587,113.915189 12.7401666,113.629379 L12.7401666,113.629379 L12.7401666,113.629379 L12.7401666,113.629379" id="path90" fill="#007B5E"></path>
                        <path d="M13.2609902,120.719863 L13.1634499,116.774176 L15.3823925,117.022145 L15.3823925,117.022145 C17.4526874,119.140787 19.7689032,121.456202 22.3821029,123.083358 C22.5304391,123.429713 22.6180963,126.800219 22.8260428,128.016024 C21.4889255,128.145573 19.6123757,127.729769 19.6123757,127.729769 C19.6123757,127.729769 14.8275122,122.943124 13.2609902,120.719863 L13.2609902,120.719863 L13.2609902,120.719863 L13.2609902,120.719863" id="path92" fill="#007B5E"></path>
                        <path d="M19.3977958,117.209123 C19.3977958,117.209123 19.1831715,116.063659 19.253778,115.205339 C20.7578403,116.779073 24.5668107,120.143347 26.3418135,120.930437 L26.3418135,120.930437 L23.9779627,121.002557 L23.9779627,121.002557 C22.9194429,120.489702 19.3977958,117.209123 19.3977958,117.209123 L19.3977958,117.209123 L19.3977958,117.209123 L19.3977958,117.209123" id="path94" fill="#007B5E"></path>
                        <path d="M21.1993762,130.775734 L24.0087696,130.775734 L24.0087696,130.775734 C26.0303611,132.451416 29.1291256,134.002 31.4941784,135.284137 C31.4941784,135.284137 33.1951021,137.542122 33.7865323,138.970726 C32.3144344,139.349134 29.4909731,139.041955 29.4909731,139.041955 C29.4909731,139.041955 24.7911402,136.393096 22.6286917,135.115856 C21.939187,133.733107 21.4944903,132.304949 21.1993762,130.775734 L21.1993762,130.775734 L21.1993762,130.775734 L21.1993762,130.775734" id="path96" fill="#007B5E"></path>
                        <path d="M37.6154915,130.874565 C36.3626925,131.954588 35.2184298,132.383302 33.7209563,132.896157 C31.5026815,131.860653 28.6974728,130.427598 26.6268218,128.948244 C26.3809454,127.174176 26.3418135,125.58397 26.3750244,123.872228 C27.4100828,123.530325 28.2482798,122.74101 29.3337778,122.593208 L29.3337778,122.593208 L36.0886357,126.733441 L36.0886357,126.733441 C36.4325867,128.016024 37.2707837,129.444182 37.6154915,130.874565 L37.6154915,130.874565 L37.6154915,130.874565 L37.6154915,130.874565" id="path98" fill="#007B5E"></path>
                        <path d="M117.849747,73.8274884 C116.48347,72.5364478 112.791093,72.2902597 111.728433,73.7878668 C108.589869,72.9918735 105.835056,74.0799091 104.24485,75.2017789 C101.962379,75.0829141 97.8777939,76.1233147 94.6484117,78.8287126 C95.5263193,76.7991077 97.2389514,75.3032814 99.3851951,74.464105 C102.82337,73.4998312 106.68002,71.7595975 109.461544,71.2552013 C112.244405,70.7450177 115.197771,70.3973271 116.6148,70.4111279 C118.032273,70.4275998 120.766163,70.9444612 123.313965,72.5075107 C121.628044,72.3298813 119.308623,72.9366704 117.849747,73.8274884 L117.849747,73.8274884 L117.849747,73.8274884 L117.849747,73.8274884" id="path100" fill="#007B5E"></path>
                        <path d="M98.9035034,143.692373 L97.106731,145.473118 L97.106731,145.473118 C96.4033365,145.377848 95.513854,144.76171 94.9916504,144.077459 C96.2127967,143.742233 97.4967143,143.73422 98.8425128,143.594877 L98.8425128,143.594877 L98.9035034,143.692373 L98.9035034,143.692373 L98.9035034,143.692373" id="path102" fill="#007B5E"></path>
                        <path d="M65.763827,141.975734 C65.6569822,144.07924 68.3236488,148.629935 70.4391746,150.056758 C72.0320516,150.799328 74.2317177,150.853641 76.6014449,150.593207 C76.594322,151.497826 75.6563142,152.661988 75.6563142,152.661988 C79.1715061,152.500831 85.543014,147.418583 87.3326634,146.057648 C89.0987179,144.714966 90.6145776,143.929657 90.6145776,143.929657 C89.9481335,145.080019 89.7932087,147.741788 88.6967145,148.696268 C86.7459077,150.180519 82.5032812,154.241065 80.1522518,155.139451 C77.9281004,156.429601 69.4700038,155.049523 67.4501931,154.54023 C63.7413451,151.914075 65.2287129,145.939228 62.100388,142.948466 C63.8526417,142.98052 64.7118515,141.619139 65.763827,141.975734 L65.763827,141.975734 L65.763827,141.975734 L65.763827,141.975734" id="path104" fill="#007B5E"></path>
                        <path d="M43.6048069,154.454309 C43.9042393,153.403224 43.0203217,153.28614 41.9012566,152.631716 C42.2395092,152.339228 47.7502492,151.776067 48.3463538,149.096045 C49.3262091,148.814687 50.1110728,148.636168 51.0949347,148.251972 C51.2200321,148.959373 51.0878117,149.899607 51.0833599,150.722756 C50.536671,152.071671 46.3870884,153.015912 45.1151909,153.162823 C46.242848,154.004225 47.3144117,154.646629 48.6820244,154.662211 C47.7453522,155.7222 46.0999432,156.795099 43.915369,157.530102 C44.3805442,158.011793 47.1198653,158.028711 48.7594868,157.342233 C48.0324974,158.941788 44.8828036,161.735333 42.3055749,163.882022 C47.0294924,162.377737 52.8992752,157.367164 55.1243169,154.830491 C53.4005551,152.78575 53.6262647,148.513296 54.6283793,146.989423 C54.6292696,149.627598 55.0477449,153.143235 56.2924861,154.892372 C53.615135,158.941788 45.4553133,165.026151 38.704284,165.796323 C40.3719522,164.167831 42.4485243,161.878237 42.2395092,160.11619 C41.8037163,159.731994 40.8736773,159.442177 39.759999,159.457759 C41.3839055,158.228599 43.3067101,155.506284 43.6048069,154.454309 L43.6048069,154.454309 L43.6048069,154.454309 L43.6048069,154.454309" id="path106" fill="#007B5E"></path>
                        <path d="M122.938227,81.0012222 C124.633942,80.7964365 126.310514,79.6117954 126.951138,78.8937098 C125.636947,77.3564811 123.428823,75.5988851 121.486029,75.6585401 C120.190092,75.6981617 118.581188,76.6401762 117.478016,77.301278 C115.345128,75.813465 112.928656,76.121534 111.792986,76.9918734 C110.221032,75.892263 106.688033,76.7465757 105.924093,77.4357243 C106.607454,78.9720626 110.496603,81.4446279 111.418139,82.0198087 C111.491149,80.5173046 112.280019,78.7383397 112.783525,78.5046168 C114.044738,78.304283 116.364605,80.026264 117.560821,81.2661082 C118.048745,80.6058967 118.504616,79.7751789 118.564716,78.9796307 C119.917638,78.6639936 122.318083,80.0543107 122.938227,81.0012222 L122.938227,81.0012222 L122.938227,81.0012222 L122.938227,81.0012222 Z M116.6148,70.4111279 C115.197771,70.3973271 112.244405,70.7450177 109.461544,71.2552013 C106.68002,71.7595975 102.82337,73.4998312 99.3851951,74.464105 C97.2389514,75.3032814 95.5263193,76.7991077 94.6484117,78.8287126 C97.8777939,76.1233147 101.962379,75.0829141 104.24485,75.2017789 C105.835056,74.0799091 108.589869,72.9918735 111.728433,73.7878668 C112.791093,72.2902597 116.48347,72.5364478 117.849747,73.8274884 C119.308623,72.9366704 121.628044,72.3298813 123.313965,72.5075107 C120.766163,70.9444612 118.032273,70.4275998 116.6148,70.4111279 L116.6148,70.4111279 L116.6148,70.4111279 L116.6148,70.4111279 Z M77.9467983,99.3887566 C74.6065646,101.093375 69.4339437,102.720086 69.4339437,102.720086 C71.7408997,103.15904 74.5161918,105.203781 75.2885902,107.026375 C76.443849,105.327988 76.0801317,102.003782 75.8370599,100.774177 C77.4121294,100.060098 78.5642718,100.429602 79.8223686,100.990537 C81.25854,101.62938 82.9466869,104.676681 82.9466869,104.676681 C84.1998866,103.165273 84.310738,99.2218117 83.3584843,97.4495246 C85.8697808,96.2880332 89.3444608,97.9254288 90.3523628,98.8496358 C91.4399532,97.297716 90.7432365,93.0924852 90.195212,92.1402314 C92.4398419,91.3522515 95.8873654,92.5609326 97.1031695,93.6890349 C97.7121845,91.4087901 97.4548668,88.5413445 96.0876993,86.5282115 C96.1117394,86.0776829 96.9558128,85.8234814 96.9558128,85.8234814 C99.5245384,85.2273768 103.221366,88.3543662 105.599552,91.3268758 C106.612796,87.7021681 105.489146,83.5485789 103.096714,80.8912612 C102.436058,80.4140214 101.52298,80.4937097 100.694043,80.6588739 C98.3265418,81.2336095 98.2050059,82.3813001 95.7546999,85.3622683 C93.3026131,88.3450173 85.0261526,95.9434589 77.9467983,99.3887566 L77.9467983,99.3887566 L77.9467983,99.3887566 L77.9467983,99.3887566 Z M66.1426806,97.3809658 C62.8180285,98.1738428 57.4811338,99.0259296 53.2678896,99.0499697 C50.5010561,102.471227 41.5000546,113.951249 41.5000546,113.951249 C42.4485243,114.203225 43.7371163,114.775289 44.3196873,115.472451 C43.8797095,117.494043 44.0951798,119.928322 44.6811341,121.558149 C45.8840278,121.288812 46.5994424,121.645406 47.0352798,121.837281 C44.237773,124.009346 39.7991309,128.804449 40.4251965,134.776179 C40.8625477,136.835166 41.5852633,138.680464 42.6631041,140.472339 C43.3392532,141.5488 44.5952131,142.764604 45.6578731,143.382078 C51.4688913,144.411349 59.270338,141.117414 61.9597091,138.629268 C61.9908721,137.682801 61.7758471,136.529323 61.1321075,135.463102 C63.2796868,136.536001 67.2347229,138.110625 70.3670544,138.82604 C73.8021128,139.613575 81.0693358,140.66555 86.4476328,140.073897 C89.2897028,140.152695 98.3563693,140.833385 102.042958,140.382857 C103.882468,140.159818 107.840175,139.307732 109.761155,138.549134 C109.947688,138.679574 110.13244,138.972951 110.225039,139.201332 C110.102168,139.562823 108.611683,141.241621 108.584972,141.927654 C109.961934,142.409791 111.861099,144.758149 113.358706,144.943792 C113.358706,144.943792 116.999886,145.903613 118.737894,145.139674 C120.931327,142.767275 122.724538,140.627264 124.641956,138.19432 C125.461099,137.23895 125.33244,134.357259 125.939674,133.27323 C126.093709,133.27323 126.459652,133.237615 126.49126,133.563937 C126.256647,135.873118 132.271115,139.052195 134.149802,139.185751 C134.641288,139.219585 136.154921,139.40033 135.955923,138.346574 C134.823369,137.799885 133.63294,138.49215 132.562267,137.778961 C131.762267,136.835166 130.782857,136.351249 130.165829,135.472451 C131.51875,134.477014 134.418694,131.687031 135.55392,130.13422 C135.679462,130.198327 135.829935,130.26377 135.860208,130.427598 C135.897604,131.506285 135.383413,132.33077 134.895934,133.214465 C135.142122,133.574621 135.480019,133.70239 135.845962,133.798105 C136.05698,133.403224 136.267999,132.445628 136.349913,131.848633 C136.432273,131.251193 136.565383,129.108066 136.243514,127.821032 C136.028489,126.962267 136.328989,125.613798 136.940675,125.019474 C131.142568,125.441956 123.984415,128.375734 121.007009,130.523759 C117.883581,132.777292 114.25175,133.757147 110.433831,134.045628 C101.71352,134.071894 75.5263198,127.854421 69.6485236,126.907064 C63.9910947,125.991761 58.097717,125.551026 53.9436826,127.023703 L53.9436826,127.023703 L53.9436826,127.017025 L53.9436826,127.017025 C53.1316626,123.61313 50.2704495,113.587532 50.8313844,111.176848 C51.3918741,108.764382 55.8192529,102.731661 55.8192529,102.731661 C57.5919852,102.555367 61.6516401,101.943236 64.0053406,101.271005 C66.3572604,100.599218 77.1663865,96.4491907 84.8004431,89.0599866 C78.1685011,93.2278218 69.4682231,96.5845274 66.1426806,97.3809658 L66.1426806,97.3809658 L66.1426806,97.3809658 L66.1426806,97.3809658 Z M56.2101266,82.4222573 C58.5905383,79.8789073 60.8948232,77.201111 63.4835822,75.0245947 C57.9922078,72.6330533 51.6705608,71.2787962 46.8696705,67.3255409 C44.3370941,70.4418458 41.3828815,73.7291022 39.8770385,77.325318 C44.6646622,80.582747 50.4654411,82.123092 56.2101266,82.4222573 L56.2101266,82.4222573 L56.2101266,82.4222573 Z M80.1144109,62.1867541 C72.0275998,61.961935 64.268891,60.0948232 57.3449067,55.4884794 C54.8233709,57.8604326 51.4127978,60.4638827 49.9085129,63.3059528 C54.8941556,67.9189744 59.755146,70.6176944 66.1466873,71.5610444 C69.8631034,69.3805214 76.7332201,65.1663868 80.1144109,62.1867541 L80.1144109,62.1867541 L80.1144109,62.1867541 Z M84.3868649,58.5518071 C87.9585955,57.0203659 93.1258741,52.810238 95.8041156,49.3676115 C90.2272654,49.9757361 80.4327192,49.3676115 72.269336,44.7746233 C64.8066762,47.2609894 60.5965483,52.2363927 60.5965483,52.2363927 C68.2550901,56.5017237 77.4989407,59.3161922 84.3868649,58.5518071 L84.3868649,58.5518071 L84.3868649,58.5518071 L84.3868649,58.5518071 Z M99.1853064,45.0297151 C106.07234,40.6935104 108.624594,33.0399547 108.624594,33.0399547 C105.839062,33.1623809 99.3651617,32.610795 95.8041156,32.3351355 C89.2968258,36.1651187 77.4361695,41.1386968 77.4361695,41.1386968 C82.600777,43.6259978 93.5710605,45.7963261 99.1853064,45.0297151 L99.1853064,45.0297151 L99.1853064,45.0297151 L99.1853064,45.0297151 Z M110.729435,27.9377177 C112.978517,26.1752247 114.749023,22.1951692 115.000108,19.6461208 C112.705618,21.9428375 107.602446,25.1307729 101.648523,27.6466103 C104.349469,27.7872892 108.591205,28.3552581 110.729435,27.9377177 L110.729435,27.9377177 L110.729435,27.9377177 Z M34.0715406,90.6515281 C37.6514626,93.2278218 45.0355025,94.021144 48.0324974,93.1588179 C49.7201991,90.5918731 51.3687244,87.9194191 53.3778506,85.5372266 C45.9913177,85.4610997 37.6775505,81.5025021 37.6775505,81.5025021 C37.6775505,81.5025021 34.6456085,86.6435148 34.0715406,90.6515281 L34.0715406,90.6515281 L34.0715406,90.6515281 Z M32.0906392,100.574288 C33.7865323,102.103948 40.4387302,102.496603 44.5333322,101.364049 C46.0714513,99.6594299 46.6728981,97.737115 47.2440723,96.3761801 C42.2080346,97.813687 37.498452,96.1834144 33.013377,94.324316 C32.2101272,96.2127967 32.1370721,98.4476325 32.0906392,100.574288 L32.0906392,100.574288 L32.0906392,100.574288 L32.0906392,100.574288 Z M26.3750244,123.872228 C26.3418135,125.58397 26.3809454,127.174176 26.6268218,128.948244 C28.6974728,130.427598 31.5026815,131.860653 33.7209563,132.896157 C35.2184298,132.383302 36.3626925,131.954588 37.6154915,130.874565 C37.2707837,129.444182 36.4325867,128.016024 36.0886357,126.733441 L36.0886357,126.733441 L29.3337778,122.593208 L29.3337778,122.593208 C28.2482798,122.74101 27.4100828,123.530325 26.3750244,123.872228 L26.3750244,123.872228 L26.3750244,123.872228 L26.3750244,123.872228 Z M19.253778,115.205339 C19.1831715,116.063659 19.3977958,117.209123 19.3977958,117.209123 C19.3977958,117.209123 22.9194429,120.489702 23.9779627,121.002557 L23.9779627,121.002557 L26.3418135,120.930437 L26.3418135,120.930437 C24.5668107,120.143347 20.7578403,116.779073 19.253778,115.205339 L19.253778,115.205339 L19.253778,115.205339 L19.253778,115.205339 Z M9.19309938,100.289814 C8.58880335,101.817248 8.10831365,103.79076 8.25682784,105.417026 C9.29099587,108.179853 11.2124204,111.114076 12.7401666,113.629379 C14.0287587,113.915189 15.7806563,113.924983 16.9633385,113.629379 C12.811619,109.047521 10.9503837,104.823592 9.19309938,100.289814 L9.19309938,100.289814 L9.19309938,100.289814 Z M10.302771,118.550915 C10.4877905,117.757593 10.3773843,116.134443 10.3773843,116.134443 C10.3773843,116.134443 7.79165256,112.684249 7.09863087,110.414243 C7.98655517,113.176625 8.52914837,116.134443 10.302771,118.550915 L10.302771,118.550915 L10.302771,118.550915 Z M4.97339999,119.928322 C5.26900376,120.420698 7.3160154,122.169836 7.71022797,122.613686 C7.51354461,122.022034 6.40979394,120.036502 6.26199205,119.44574 L6.26199205,119.44574 L4.97339999,119.928322 L4.97339999,119.928322 L4.97339999,119.928322 Z M11.2400665,130.530436 L9.61429024,127.915857 L7.59252068,128.60545 L7.59252068,128.60545 C8.7752029,129.29638 9.90993854,130.234387 11.2400665,130.530436 L11.2400665,130.530436 L11.2400665,130.530436 L11.2400665,130.530436 Z M17.6490146,137.38141 C16.9588421,136.692261 15.9249857,135.658539 15.135136,134.916858 L15.135136,134.916858 L11.9793431,137.037281 L11.9793431,137.037281 C13.9032161,137.332885 15.5281465,137.432606 17.6490146,137.38141 L17.6490146,137.38141 L17.6490146,137.38141 Z M19.3262989,133.386307 C19.1098048,132.671783 18.7532995,130.952473 18.7532995,130.952473 L18.7532995,130.952473 L15.8893263,128.447409 L15.8893263,128.447409 C15.8893263,128.447409 14.8876568,128.018249 13.9573063,127.729769 C14.9591538,129.089813 18.2900385,132.448745 19.3262989,133.386307 L19.3262989,133.386307 L19.3262989,133.386307 Z M29.1338001,142.478794 C26.7675452,141.837281 24.5513183,140.584971 22.2339449,139.748021 C21.7604001,140.76082 21.0013128,142.31185 19.522448,142.805561 C22.4817357,143.249857 26.223572,143.512072 29.1338001,142.478794 L29.1338001,142.478794 L29.1338001,142.478794 L29.1338001,142.478794 Z M22.8260428,128.016024 C22.6180963,126.800219 22.5304391,123.429713 22.3821029,123.083358 C19.7689032,121.456202 17.4526874,119.140787 15.3823925,117.022145 L15.3823925,117.022145 L13.1634499,116.774176 L13.2609902,120.719863 L13.2609902,120.719863 C14.8275122,122.943124 19.6123757,127.729769 19.6123757,127.729769 C19.6123757,127.729769 21.4889255,128.145573 22.8260428,128.016024 L22.8260428,128.016024 L22.8260428,128.016024 L22.8260428,128.016024 Z M33.7865323,138.970726 C33.1951021,137.542122 31.4941784,135.284137 31.4941784,135.284137 C29.1291256,134.002 26.0303611,132.451416 24.0087696,130.775734 L24.0087696,130.775734 L21.1993762,130.775734 L21.1993762,130.775734 C21.4944903,132.304949 21.939187,133.733107 22.6286917,135.115856 C24.7911402,136.393096 29.4909731,139.041955 29.4909731,139.041955 C29.4909731,139.041955 32.3144344,139.349134 33.7865323,138.970726 L33.7865323,138.970726 L33.7865323,138.970726 L33.7865323,138.970726 Z M38.4070775,145.571059 C38.4070775,145.571059 37.9004999,144.606785 37.1014348,143.307286 C37.0031822,144.442067 36.2350575,145.46644 35.8418689,146.501499 C36.7219579,146.416468 38.0816908,145.841733 38.4070775,145.571059 L38.4070775,145.571059 L38.4070775,145.571059 Z M41.2745232,105.243848 C39.7294147,105.752696 35.1215573,105.379185 32.1267883,105.298161 C32.370795,106.879463 33.1931878,111.110515 34.1482462,112.661989 C36.3638945,109.272785 39.6555138,106.827376 41.2745232,105.243848 L41.2745232,105.243848 L41.2745232,105.243848 L41.2745232,105.243848 Z M39.759999,159.457759 C40.8736773,159.442177 41.8037163,159.731994 42.2395092,160.11619 C42.4485243,161.878237 40.3719522,164.167831 38.704284,165.796323 C45.4553133,165.026151 53.615135,158.941788 56.2924861,154.892372 C55.0477449,153.143235 54.6292696,149.627598 54.6283793,146.989423 C53.6262647,148.513296 53.4005551,152.78575 55.1243169,154.830491 C52.8992752,157.367164 47.0294924,162.377737 42.3055749,163.882022 C44.8828036,161.735333 48.0324974,158.941788 48.7594868,157.342233 C47.1198653,158.028711 44.3805442,158.011793 43.915369,157.530102 C46.0999432,156.795099 47.7453522,155.7222 48.6820244,154.662211 C47.3144117,154.646629 46.242848,154.004225 45.1151909,153.162823 C46.3870884,153.015912 50.536671,152.071671 51.0833599,150.722756 C51.0878117,149.899607 51.2200321,148.959373 51.0949347,148.251972 C50.1110728,148.636168 49.3262091,148.814687 48.3463538,149.096045 C47.7502492,151.776067 42.2395092,152.339228 41.9012566,152.631716 C43.0203217,153.28614 43.9042393,153.403224 43.6048069,154.454309 C43.3067101,155.506284 41.3839055,158.228599 39.759999,159.457759 L39.759999,159.457759 L39.759999,159.457759 L39.759999,159.457759 Z M73.4833593,141.409457 C73.4121295,141.390314 73.3400093,141.374732 73.2705602,141.354699 C71.4065647,140.826708 70.3073995,140.349913 70.3073995,140.349913 C68.4803544,143.135444 72.5132981,146.581187 73.8769041,147.366496 C75.156815,148.104615 77.7424577,147.847297 81.0314949,146.066107 C82.4302706,145.307954 83.7885344,143.550358 85.1623796,142.561154 C82.209013,142.243736 79.4800203,142.208121 77.0613225,141.988644 C76.5774049,143.550358 76.4883676,145.17974 76.8244833,146.777069 C75.5156353,145.552807 74.2998312,143.472896 73.4833593,141.409457 L73.4833593,141.409457 L73.4833593,141.409457 L73.4833593,141.409457 Z M67.4501931,154.54023 C69.4700038,155.049523 77.9281004,156.429601 80.1522518,155.139451 C82.5032812,154.241065 86.7459077,150.180519 88.6967145,148.696268 C89.7932087,147.741788 89.9481335,145.080019 90.6145776,143.929657 C90.6145776,143.929657 89.0987179,144.714966 87.3326634,146.057648 C85.543014,147.418583 79.1715061,152.500831 75.6563142,152.661988 C75.6563142,152.661988 76.594322,151.497826 76.6014449,150.593207 C74.2317177,150.853641 72.0320516,150.799328 70.4391746,150.056758 C68.3236488,148.629935 65.6569822,144.07924 65.763827,141.975734 C64.7118515,141.619139 63.8526417,142.98052 62.100388,142.948466 C65.2287129,145.939228 63.7413451,151.914075 67.4501931,154.54023 L67.4501931,154.54023 L67.4501931,154.54023 Z M97.106731,145.473118 L98.9035034,143.692373 L98.8425128,143.594877 L98.8425128,143.594877 C97.4967143,143.73422 96.2127967,143.742233 94.9916504,144.077459 C95.513854,144.76171 96.4033365,145.377848 97.106731,145.473118 L97.106731,145.473118 L97.106731,145.473118 L97.106731,145.473118 Z M136.35392,112.846742 C134.915077,114.709402 133.75136,118.692485 134.366162,120.95047 C133.305283,120.489702 132.04407,119.413686 131.300609,118.605228 C130.907064,119.756035 130.262434,121.491817 129.387198,122.364382 C128.89215,121.625373 127.774732,120.45008 127.002334,120.143347 C126.392429,120.974065 125.835055,122.316302 125.412573,123.346463 C124.909068,122.639507 124.016469,121.755812 123.046408,121.204226 C122.140898,122.223258 120.803113,124.790203 120.606786,126.504616 C118.079463,125.095601 114.500609,118.004672 113.439285,115.328211 C110.938228,118.31096 110.750359,122.988533 111.788088,126.916858 C112.159374,127.740453 113.038617,128.958928 114.660431,129.376958 C116.279574,129.795879 118.653753,128.860987 119.817025,128.145573 C122.194766,126.680464 125.696157,124.87835 127.476012,124.216357 C129.256758,123.554365 133.597326,122.159151 136.634832,121.340898 C138.03895,119.991984 137.503836,115.337115 136.35392,112.846742 L136.35392,112.846742 L136.35392,112.846742 L136.35392,112.846742 Z M102.103948,119.648745 C102.366163,122.364382 101.71352,125.712629 99.812574,127.937226 C98.4280443,124.58141 95.5641601,121.361377 93.8043382,120.077459 C93.7037261,123.293041 93.0559799,124.972729 90.863882,126.883469 C89.8528636,124.235055 87.4381725,121.467331 85.3262082,120.760821 C85.5207547,121.850637 83.649191,124.706953 82.3127414,125.685473 C80.6023352,121.361377 78.5286569,119.061544 76.7381172,118.39599 C76.4514171,120.500832 74.6613226,122.647521 71.7253182,123.95904 C69.9378947,120.214132 67.4947117,118.580743 66.2704491,117.967276 C66.1426806,119.928322 64.6397313,122.290926 62.3536991,123.310848 C68.3151903,123.696825 77.8056742,125.863102 80.8903708,126.37106 C83.9732867,126.878572 100.862324,130.452529 103.311294,130.703169 C104.448745,130.818472 106.834499,131.042401 106.700053,129.567498 C106.446742,126.800219 104.226597,121.073787 102.103948,119.648745 L102.103948,119.648745 L102.103948,119.648745 L102.103948,119.648745 Z M66.8202543,108.666887 C67.9666093,107.256536 69.0274885,104.69983 67.6839159,103.175957 C65.5096255,103.856647 63.1701709,104.34101 60.9847508,104.791094 C62.6332761,105.102279 65.9378948,107.090036 66.8202543,108.666887 L66.8202543,108.666887 L66.8202543,108.666887 Z M108.234611,91.5784062 C108.165161,93.3707267 107.377182,95.8753454 106.711628,97.054199 C105.444182,94.6595413 102.077682,90.8647724 99.9167476,89.5416783 C100.290704,91.6531975 99.5004983,97.0920399 98.4908156,98.6466308 C97.7121845,97.1641601 94.5629359,95.0156904 93.4722292,94.8273766 C93.989981,97.5203092 92.7723961,101.099608 90.7552565,102.806007 C89.6231475,101.388089 87.9403428,100.372173 86.6061191,99.9167476 C86.9742883,103.320198 84.9549228,107.689257 82.6964921,109.111628 C82.1791855,107.329101 80.3160804,104.895712 78.7347782,103.583748 C78.7423464,106.111962 77.6409552,109.466887 74.9217566,111.256981 C74.3755129,109.120977 72.0859192,106.987198 70.8527528,106.149803 C70.3082898,108.107732 68.6922632,111.723536 66.449414,112.421589 C65.6316066,110.701388 63.476014,108.087254 61.3288799,107.870448 C58.8447398,107.623815 57.9819685,110.623036 58.1961032,112.69983 C58.3465762,114.14446 59.7889801,119.76761 61.1828588,121.156591 C62.8500819,120.571171 64.4251514,116.849413 64.4669989,115.109624 C69.2923745,115.347354 71.1180839,117.993542 72.6424022,120.276903 C74.1658301,119.022368 74.6844723,117.106731 74.3292135,114.919975 C77.3996642,114.935111 80.7821905,117.459763 82.6034481,120.398439 C83.5739545,119.44574 83.4145778,118.049635 83.2605433,117.125874 C86.3016116,117.435723 89.5327746,119.875345 90.7151897,121.831049 C91.680799,120.626819 91.2351674,116.812462 90.6764585,115.98397 C94.0968257,116.117526 97.4228134,119.718194 99.3255401,121.803447 C100.001333,120.626819 99.6807988,117.030604 98.9150782,116.142012 C100.343236,115.875345 105.587087,118.69471 107.977738,120.692707 C109.071116,117.349357 110.31096,113.323982 114.695156,110.713408 C114.713408,112.51953 117.023481,117.030604 117.950359,117.809235 C125.055979,116.134443 133.934332,109.621366 137.514521,107.256536 C137.673007,107.150582 137.848856,107.027265 138.031382,106.895045 C138.830492,111.748467 139.194654,115.644738 139.218694,117.55904 C139.525873,117.624037 141.261655,118.56249 141.477125,118.92131 C141.758483,120.230158 141.854198,121.537226 142.042957,122.978294 C140.917526,124.064104 140.038283,125.754477 139.676791,127.425706 C139.748021,129.781188 139.912295,132.527097 140.25865,134.785973 C139.778739,137.27412 139.240063,139.800108 138.545572,142.160041 C138.153808,143.078015 136.726986,143.66121 135.334443,143.523202 C132.458984,142.788644 129.339563,142.318973 126.614577,141.059985 C125.559485,142.478794 124.585862,146.677347 118.479685,149.713964 C111.049969,149.642289 106.123091,144.625483 104.893932,143.783191 C103.613576,144.644181 101.567944,149.137448 100.505284,150.422256 C98.3679441,151.155032 97.2113498,151.3892 96.1740655,150.753474 C95.0397305,149.844849 93.9071763,149.295044 92.7114056,148.551137 C90.9831919,151.640731 86.6733423,156.603224 84.9696139,157.834609 C83.0366145,159.230269 79.7079557,160.733663 78.001111,161.116078 C77.3293247,161.316412 76.592096,160.600552 76.5288796,159.947464 C75.0904823,160.160263 72.7999982,160.088588 71.3478001,159.970614 C68.6499705,161.550135 66.0175832,164.253752 61.4241498,164.433162 C59.7720631,161.234498 61.5612672,156.331215 62.7009445,154.031382 C61.9191971,153.28614 60.4874776,151.640731 59.748023,150.613686 C59.748023,150.613686 60.7447954,154.899495 58.3692807,157.888032 C55.9928756,160.877458 44.8747902,169.352027 38.6009562,169.103168 C36.486855,169.021253 35.2542228,162.665327 36.0340113,158.417358 C36.7859757,154.319417 40.1502494,147.634943 40.1502494,147.634943 L40.1502494,147.634943 L40.1490474,147.634943 L40.1490474,147.634943 C36.3343341,149.020809 32.3715073,149.700163 29.5788084,148.967386 C30.9114294,148.031159 32.0941116,146.501499 32.4405112,145.072005 C28.100834,146.20634 17.7512739,146.236168 13.507579,143.987531 C14.9871115,142.607008 16.6631938,141.720197 17.7474453,139.995545 C14.7525428,140.742567 8.41019456,139.364715 5.81698372,136.692261 C7.87267649,136.251972 9.91185284,135.176847 10.9934777,133.585306 C7.22853627,132.277793 4.6343015,129.494042 2.11967941,126.831382 C3.79538777,126.635055 5.51007221,126.084805 6.65518069,125.204671 C4.07954136,123.865105 1.10722757,120.359262 0,117.614688 C1.53641398,117.781633 3.14725869,117.673008 4.28961592,117.169057 C2.66155586,114.950693 1.2823461,112.584972 0.245374284,109.923648 C1.53641398,110.050971 2.36714073,109.774065 3.10517521,109.478907 C2.18489032,99.2899252 5.55508055,87.8904819 10.2043403,80.6869206 C17.9957703,68.6241496 26.2098157,59.222703 42.4199878,49.3676115 C77.2438489,28.1900494 111.686141,24.8756811 124.696714,0 C125.080464,21.0479238 115.512518,46.3065097 88.4692243,63.3976612 C77.1045056,70.5829699 57.7317737,83.8392856 54.7427922,92.9304373 C59.9888688,93.0737873 68.7452404,90.6212554 73.4041161,88.492374 C77.2215896,86.7476884 85.0737875,81.7308828 89.2425131,73.3618234 C89.2425131,73.3618234 91.6269315,72.4678891 94.1315502,72.9055074 C94.0968257,71.5009442 93.7740655,70.1061752 92.3134089,69.2843611 C93.8818007,68.4954908 97.5332196,69.0328308 99.1902034,69.6974941 C99.7765139,69.0755687 99.3887566,65.6712282 98.7125184,64.8231481 C100.540009,64.6290468 104.192763,65.7046172 106.545573,67.1305492 C107.090481,65.2741219 106.768612,62.8033373 105.972618,61.0141331 C108.419808,61.6832483 110.65776,62.8830257 112.466553,64.8347229 C113.53411,64.6290468 116.539563,64.4153573 117.816358,64.99499 C119.096269,65.5750679 123.261878,69.8613227 126.228155,70.0714507 C126.477904,71.3789632 126.056313,72.9540327 125.725985,74.2953793 C126.981855,75.0757911 127.842846,76.343682 129.011015,77.4490799 C129.642289,78.6403987 130.238394,79.8789073 130.804226,81.1561471 C127.283247,83.4506379 123.374955,85.5737319 120.733219,86.8487457 C117.464215,88.4238153 112.305395,90.503281 108.234611,91.5784062 L108.234611,91.5784062 L108.234611,91.5784062 L108.234611,91.5784062 L108.234611,91.5784062 Z" id="path108" fill="#231F20"></path>
                        <path d="M119.771616,134.951137 C120.142011,135.405228 118.902167,136.519529 119.109179,137.147687 C119.629602,137.077793 119.992874,136.583191 120.205673,136.254198 C121.33333,135.201332 122.183636,134.017136 123.463992,133.452195 C124.07835,134.136446 123.19599,135.431939 122.821143,135.873118 C122.228155,136.572061 119.246742,140.516413 116.713631,141.875567 C114.969391,141.461098 113.770504,139.569946 112.420253,138.368833 C113.639174,138.075456 115.302835,137.593319 116.602334,136.99855 C117.901833,136.406007 118.674677,135.546352 119.771616,134.951137 L119.771616,134.951137 L119.771616,134.951137 L119.771616,134.951137" id="path110" fill="#231F20"></path>
                        <polyline id="path112" fill="#231F20" points="135.162156 5.60881455 135.162156 4.72698931 133.682801 4.72698931 133.682801 0.468839165 132.637949 0.468839165 132.637949 4.72698931 131.102056 4.72698931 131.102056 5.60881455 135.162156 5.60881455 135.162156 5.60881455 135.162156 5.60881455"></polyline>
                        <polyline id="path114" fill="#231F20" points="137.6552 0.468839165 136.756813 4.63394535 136.756813 0.468839165 135.712406 0.468839165 135.712406 5.60881455 137.233163 5.60881455 138.177403 1.6569304 139.122089 5.60881455 140.644181 5.60881455 140.644181 0.468839165 139.598438 0.468839165 139.598438 4.63394535 138.700052 0.468839165 137.6552 0.468839165 137.6552 0.468839165 137.6552 0.468839165"></polyline>
                    </g>
                </g>
            </g>
        </g>
    </g>
</svg>