<?xml version="1.0" encoding="UTF-8"?>
<svg width="200px" height="200px" viewBox="0 0 200 200" version="1.1" xmlns="http://www.w3.org/2000/svg" xmlns:xlink="http://www.w3.org/1999/xlink">
    <!-- Generator: Sketch 54.1 (76490) - https://sketchapp.com -->
    <title>ucf</title>
    <desc>Created with Sketch.</desc>
    <g id="ucf" stroke="none" stroke-width="1" fill="none" fill-rule="evenodd">
        <g id="ucf_BGL" transform="translate(0.000000, -0.000000)">
            <g id="ucf" transform="translate(0.000000, 24.000000)">
                <g id="g10" transform="translate(99.950022, 76.151931) scale(-1, 1) rotate(-180.000000) translate(-99.950022, -76.151931) translate(0.000000, 0.089964)" fill-rule="nonzero">
                    <g id="g12">
                        <path d="M187.741525,60.333032 L178.269261,60.333032 L171.860465,34.1927028 L146.898547,34.1927028 L139.594999,4.41521228 L103.276559,4.41521228 L111.413291,37.5900041 L83.8196881,37.5900041 L64.3260354,52.0165904 L67.7391287,65.8354806 L38.9305338,65.8354806 L19.0288451,79.9350305 L31.9252366,132.518737 L12.7351121,147.646973 L108.000597,147.638977 L101.120237,119.589202 L102.169313,120.13373 L130.308842,120.13373 L150.756018,105.872861 L146.079157,86.9555201 L194.27106,86.9555201 L187.741525,60.333032 Z M151.719337,91.3713121 L155.770711,107.758718 L131.696349,124.549522 L106.883755,124.549522 L113.630382,152.054169 L0,152.063564 L26.9595196,130.810591 L14.0246273,78.0685638 L37.5250365,61.4194887 L62.1001484,61.4194887 L59.3333318,50.2180897 L82.3634162,33.174412 L105.783706,33.174412 L97.6469741,0.000234258865 L143.058267,0.000234258865 L149.058467,24.4619684 C149.058467,24.4619684 152.011191,22.990904 154.73323,25.15882 C157.026283,26.9853067 156.556518,29.7771107 156.556518,29.7771107 L175.324134,29.7771107 L181.732729,55.9176398 L191.205393,55.9176398 L199.900045,91.3713121 L151.719337,91.3713121 L151.719337,91.3713121 Z" id="path14" fill="#FFFFFF"></path>
                        <path d="M182.257867,67.3247359 L138.835179,67.3247359 L146.371211,61.3893038 L144.514539,53.8274849 L169.475458,53.8274849 L166.376208,41.1842069 L141.414889,41.1842069 L134.111341,11.4068763 L112.189702,11.4068763 L121.609992,49.8132921 L111.978208,44.5815081 L86.1251353,44.5815081 L72.2308828,54.8645663 L78.1437262,78.8035962 L66.6552707,72.4589687 L41.0390794,72.4589687 L26.5351318,82.7342308 L39.3731125,135.081256 L31.8380802,141.021686 L62.7486241,141.016288 L49.0350812,85.0982487 L63.9194387,85.0982487 L76.1775093,135.074859 L68.644476,141.01369 L99.5562194,141.016288 L91.0910522,106.503945 L103.876059,113.142426 L128.111541,113.142426 L142.815589,102.886954 L138.936128,87.2005975 L117.164415,87.2005975 L120.43298,100.427983 L96.271262,100.427983 L103.808093,94.509343 L94.6102925,57.3009481 L109.776709,57.3009481 L113.89385,73.966215 L127.53403,73.966215 L120.01499,79.9642159 L185.357317,79.9642159 L182.257867,67.3247359 Z M146.079157,86.9555201 L150.756018,105.872861 L130.308842,120.13373 L102.169313,120.13373 L101.120237,119.589202 L108.000597,147.638977 L12.7351121,147.646973 L31.9252366,132.518737 L19.0288451,79.9350305 L38.9305338,65.8354806 L67.7391287,65.8354806 L64.3260354,52.0165904 L83.8196881,37.5900041 L111.413291,37.5900041 L103.276559,4.41521228 L139.594999,4.41521228 L146.898547,34.1927028 L171.860465,34.1927028 L178.269261,60.333032 L187.741525,60.333032 L194.27106,86.9555201 L146.079157,86.9555201 Z M150.881555,29.2753616 L151.285354,29.2753616 C151.756718,29.2753616 152.138127,29.4320832 152.138127,29.8136924 C152.138127,30.1503241 151.891251,30.3748118 151.35292,30.3748118 C151.128432,30.3748118 150.970911,30.352423 150.881555,30.3296344 L150.881555,29.2753616 Z M150.858767,27.2103941 L150.005993,27.2103941 L150.005993,30.8909538 C150.342825,30.9357314 150.813989,31.0030977 151.420086,31.0030977 C152.115738,31.0030977 152.430181,30.8909538 152.677058,30.7116434 C152.901545,30.5541222 153.058267,30.2850567 153.058267,29.9258363 C153.058267,29.4768608 152.721635,29.1854066 152.295049,29.0508738 L152.295049,29.0056964 C152.654469,28.8933526 152.833979,28.6018983 152.946123,28.1081452 C153.058267,27.5470258 153.148422,27.3449269 153.215388,27.2103941 L152.318037,27.2103941 C152.205693,27.3449269 152.138127,27.6591697 152.025783,28.1081452 C151.958817,28.4897544 151.734329,28.6694646 151.262965,28.6694646 L150.858767,28.6694646 L150.858767,27.2103941 Z M148.5927,29.1178404 C148.5927,27.4798594 149.826683,26.1783102 151.465064,26.1783102 C153.058267,26.1559214 154.270061,27.4798594 154.270061,29.0954515 C154.270061,30.7338323 153.058267,32.0579702 151.420086,32.0579702 C149.826683,32.0579702 148.5927,30.7338323 148.5927,29.1178404 L148.5927,29.1178404 Z M155.21279,29.1178404 C155.21279,27.0534726 153.55202,25.4148919 151.442275,25.4148919 C149.33313,25.4148919 147.649971,27.0534726 147.649971,29.1178404 C147.649971,31.1830077 149.33313,32.7985999 151.465064,32.7985999 C153.55202,32.7985999 155.21279,31.1830077 155.21279,29.1178404 L155.21279,29.1178404 Z" id="path16" fill="#100F0D"></path>
                        <path d="M181.593998,77.0116922 L180.842174,73.9444259 L133.719737,73.9444259 L119.088853,14.35922 L115.95442,14.35922 L130.868163,75.166215 L128.527533,77.0116922 L181.593998,77.0116922 Z M118.587903,67.9464251 L114.470762,51.2815579 L93.2207873,51.2815579 L93.9788082,54.3488242 L112.088153,54.3488242 L116.205294,71.0138913 L125.623785,71.0138913 L124.866364,67.9464251 L118.587903,67.9464251 Z M78.2232864,54.1025474 L75.5688137,56.0667652 L86.6326815,100.862366 L104.596899,110.189902 L127.182606,110.190502 L131.581006,107.123036 L105.359917,107.122836 L89.3083436,98.773011 L78.2232864,54.1025474 Z M68.6170897,79.0786587 L47.6525725,79.0786587 L48.4049963,82.145925 L66.2350808,82.145925 L79.4964498,136.216888 C79.4964498,136.216888 77.3265348,137.928232 77.1568197,138.061566 L95.7923015,138.063365 L95.0402775,134.995899 L82.3342308,134.994899 L68.6170897,79.0786587 Z M32.550324,82.0907526 L29.8806589,83.981807 L42.6932523,136.223285 L40.3534223,138.068162 L58.985106,138.064564 L58.2328821,134.997498 L45.5742118,135.000296 L32.550324,82.0907526 Z M124.07416,90.1529213 L120.93393,90.1529213 L123.445074,100.313041 L126.585504,100.313041 L124.07416,90.1529213 Z M143.886053,50.8751611 C149.63298,50.8751611 161.640376,50.8751611 165.712939,50.8751611 C165.433079,49.7381297 165.188602,48.7364306 164.960116,47.807695 C157.43248,47.807695 143.13223,47.807695 143.13223,47.807695 C143.13223,47.807695 143.465264,49.1650163 143.886053,50.8751611 L143.886053,50.8751611 Z M127.53403,73.966215 L113.89385,73.966215 L109.776709,57.3009481 L94.6102925,57.3009481 L103.808093,94.509343 L96.271262,100.427983 L120.43298,100.427983 L117.164415,87.2005975 L138.936128,87.2005975 L142.815589,102.886954 L128.111541,113.142426 L103.876059,113.142426 L91.0910522,106.503945 L99.5562194,141.016288 L68.644476,141.01369 L76.1775093,135.074859 L63.9194387,85.0982487 L49.0350812,85.0982487 L62.7486241,141.016288 L31.8380802,141.021686 L39.3731125,135.081256 L26.5351318,82.7342308 L41.0390794,72.4589687 L66.6552707,72.4589687 L78.1437262,78.8035962 L72.2308828,54.8645663 L86.1251353,44.5815081 L111.978208,44.5815081 L121.609992,49.8132921 L112.189702,11.4068763 L134.111341,11.4068763 L141.414889,41.1842069 L166.376208,41.1842069 L169.475458,53.8274849 L144.514539,53.8274849 L146.371211,61.3893038 L138.835179,67.3247359 L182.257867,67.3247359 L185.357317,79.9642159 L120.01499,79.9642159 L127.53403,73.966215 L127.53403,73.966215 Z" id="path18" fill="#AEA057"></path>
                        <path d="M115.95442,14.35922 L119.088853,14.35922 L133.719737,73.9444259 L180.842174,73.9444259 L181.593998,77.0116922 L128.527533,77.0116922 L130.868163,75.166215 L115.95442,14.35922 Z M165.712939,50.8751611 C161.640376,50.8751611 149.63298,50.8751611 143.886053,50.8751611 C143.465264,49.1650163 143.13223,47.807695 143.13223,47.807695 C143.13223,47.807695 157.43248,47.807695 164.960116,47.807695 C165.188602,48.7364306 165.433079,49.7381297 165.712939,50.8751611 Z M58.985106,138.064564 L40.3534223,138.068162 L42.6932523,136.223285 L29.8806589,83.981807 L32.550324,82.0907526 L45.5742118,135.000296 L58.2328821,134.997498 L58.985106,138.064564 Z M95.0402775,134.995899 L95.7923015,138.063365 L77.1568197,138.061566 C77.3265348,137.928232 79.4964498,136.216888 79.4964498,136.216888 L66.2350808,82.145925 L48.4049963,82.145925 L47.6525725,79.0786587 L68.6170897,79.0786587 L82.3342308,134.994899 L95.0402775,134.995899 Z M125.623785,71.0138913 L116.205294,71.0138913 L112.088153,54.3488242 L93.9788082,54.3488242 L93.2207873,51.2815579 L114.470762,51.2815579 L118.587903,67.9464251 L124.866364,67.9464251 L125.623785,71.0138913 Z M131.581006,107.123036 L127.182606,110.190502 L104.596899,110.189902 L86.6326815,100.862366 L75.5688137,56.0667652 L78.2232864,54.1025474 L89.3083436,98.773011 L105.359917,107.122836 L131.581006,107.123036 Z M123.445074,100.313041 L126.585504,100.313041 L124.07416,90.1529213 L120.93393,90.1529213 L123.445074,100.313041 L123.445074,100.313041 Z" id="path20" fill="#FFFFFF"></path>
                    </g>
                </g>
            </g>
        </g>
    </g>
</svg>