<?xml version="1.0" encoding="UTF-8"?>
<svg width="200px" height="200px" viewBox="0 0 200 200" version="1.1" xmlns="http://www.w3.org/2000/svg" xmlns:xlink="http://www.w3.org/1999/xlink">
    <!-- Generator: Sketch 54.1 (76490) - https://sketchapp.com -->
    <title>umbc</title>
    <desc>Created with Sketch.</desc>
    <g id="umbc" stroke="none" stroke-width="1" fill="none" fill-rule="evenodd">
        <g id="umbc_BGL">
            <g id="umbc" transform="translate(0.000000, 7.000000)">
                <path d="M3.35323077,84.0523077 L3.35323077,58.8590769 C3.35323077,58.8590769 -0.164307692,55.7950769 0.00615384615,51.3692308 L0.00615384615,38.0916923 C0.00615384615,38.0916923 -0.107076923,33.0418462 4.65907692,30.2621538 L22.1353846,19.8215385 C22.1353846,19.8215385 24.0073846,18.8006154 26.0498462,18.8572308 C26.0498462,18.8572308 27.4116923,16.8147692 30.1353846,15.736 L47.2153846,8.81415385 C47.2153846,8.81415385 48.8603077,8.30338462 50.2793846,8.47323077 C50.2793846,8.47323077 51.4135385,7.50892308 52.7753846,7.22523077 L69.6843077,3.19630769 C69.6843077,3.19630769 75.9815385,1.09784615 79.0455385,7.05476923 L82.3944615,13.4664615 L86.1950769,5.12615385 C86.1950769,5.12615385 87.8984615,-0.264 94.1396923,0.416615385 L109.969846,0.587076923 C109.969846,0.587076923 112.636308,0.529846154 114.111385,1.72123077 C114.111385,1.72123077 115.020308,1.32430769 116.551385,1.66461538 L147.873231,7.39569231 C147.873231,7.39569231 154.739077,8.36061538 157.404923,14.8289231 C157.404923,14.8289231 162.569846,11.992 169.605538,15.2824615 L194.003692,30.2049231 C194.003692,30.2049231 198.941538,32.872 198.997538,38.3187692 L198.997538,57.1009231 C198.997538,57.1009231 199.735385,63.456 193.606769,66.3495385 C193.606769,66.3495385 199.905846,69.0738462 199.620923,75.9390769 L199.620923,87.6276923 C199.620923,87.6276923 198.656615,101.359385 186.683692,102.324308 C186.683692,102.324308 182.257846,102.947077 176.924308,99.5427692 L169.945231,95.5723077 C169.945231,95.5723077 172.158154,102.892308 172.101538,112.140923 C172.101538,112.140923 154.342154,111.232 149.632615,127.177231 C149.632615,127.177231 166.088615,147.035077 167.846154,175.577231 L148.384615,160.2 L156.555692,177.222154 L140.554462,167.122462 L99.9273846,167.122462 L86.1950769,185.846154 L80.6344615,167.008615 L51.4695385,167.008615 C51.4695385,167.008615 70.4215385,153.163692 65.4276923,138.183385 C65.4276923,138.183385 23.6658462,138.409846 28.3187692,97.216 L23.8929231,99.5987692 C23.8929231,99.5987692 4.03446154,107.883692 3.35323077,84.0523077" id="Fill-1" fill="#F6BC25"></path>
                <path d="M27.8578462,22.5224615 C27.8578462,22.5224615 28.5384615,20.3944615 30.8363077,19.288 L47.6461538,12.3513846 C47.6461538,12.3513846 49.944,11.5003077 51.3058462,12.2233846 C51.3058462,12.2233846 52.2289231,10.8196923 54.2713846,10.4787692 L69.8744615,6.79076923 C69.8744615,6.79076923 73.96,5.71261538 76.4006154,9.62769231 L82.6412308,21.7698462 L89.2233846,7.01784615 C89.2233846,7.01784615 90.9827692,3.89723077 94.3298462,3.95384615 L110.160615,4.18030769 C110.160615,4.18030769 112.203077,4.12430769 113.451692,5.48615385 C113.451692,5.48615385 114.643692,4.86153846 116.061538,5.20184615 L146.871385,10.7630769 C146.871385,10.7630769 152.884923,11.784 156.119385,19.7273846 C156.119385,19.7273846 161.056615,14.9618462 168.546462,18.7630769 L191.923692,33.0627692 C191.923692,33.0627692 195.726154,35.1618462 195.555692,39.2467692 L195.555692,57.4043077 C195.555692,57.4043077 195.100923,65.9156923 186.646769,63.0215385 L176.944,56.0990769 L176.944,61.944 C176.944,61.944 178.759385,61.1489231 181.482462,62.6812308 L193.002462,70.2836923 C193.002462,70.2836923 196.179077,71.9858462 196.121846,75.7310769 C196.065846,79.4756923 196.121846,87.3064615 196.121846,87.3064615 C196.121846,87.3064615 194.306462,103.988923 179.725538,97.1230769 L161.907077,86.9661538 C161.907077,86.9661538 157.084308,84.5255385 154.757538,78.9083077 C154.757538,78.9083077 150.672615,82.8806154 144.827692,80.8375385 C144.827692,80.8375385 130.529846,77.7741538 114.131692,75.2203077 C114.131692,75.2203077 112.712615,74.88 112.089231,74.3126154 C112.089231,74.3126154 111.182154,74.9366154 109.309538,74.7661538 L94.1593846,74.5956923 C94.1593846,74.5956923 89.336,74.5956923 88.4849231,69.376 C88.4849231,69.376 82.3569231,76.128 77.704,67.9575385 L77.704,72.0996923 C77.704,72.0996923 77.0227692,76.4689231 72.4264615,77.2633846 C67.8307692,78.0572308 57.3913846,80.7809231 57.3913846,80.7809231 C57.3913846,80.7809231 52.7956923,82.2553846 50.2418462,77.2061538 C50.2418462,77.2061538 47.6886154,82.9366154 42.8652308,85.3772308 C38.0412308,87.8172308 24.2535385,95.3058462 23.9126154,95.3636923 C23.6166154,95.4123077 13.6996923,101.948923 8.36553846,91.7883077 C7.17415385,89.5187692 7.11815385,88.6110769 6.89046154,86.1150769 L6.89046154,57.0067692 C6.89046154,57.0067692 3.42892308,55.5310769 3.59938462,51.1618462 L3.59938462,38.168 C3.59938462,38.168 3.76984615,34.6504615 6.72061538,33.1747692 L23.4596923,23.1316923 C23.4596923,23.1316923 25.3335385,21.9698462 27.8578462,22.5224615" id="Fill-4" fill="#1A1919"></path>
                <path d="M31.9797308,24.5501538 C31.9797308,23.9107833 32.3666158,23.3349823 32.9585687,23.0933494 L49.3413379,16.4059648 C50.3776006,15.9829662 51.5117159,16.7466196 51.5094969,17.8658887 L51.4854969,29.9717349 C51.4841725,30.6397798 51.0611594,31.2341669 50.4304114,31.454264 L48.3322685,32.1864029 L48.3322475,65.9978764 C48.3649381,72.212134 44.7314981,79.7345871 39.8866652,81.6502875 L21.6621096,91.2581127 C16.2007383,95.0016366 11.519695,91.7453456 11.4172692,84.8978462 L11.4172692,52.1653603 L10.3804371,52.7446942 C9.33159195,53.3307405 8.03942308,52.5725453 8.03942308,51.3710769 L8.03942308,38.2713846 C8.03942308,37.7185392 8.32955615,37.206251 8.80368484,36.921927 L25.5532233,26.8776194 C26.6020059,26.2486889 27.9359615,27.0041712 27.9359615,28.2270769 L27.9359615,71.9089016 L31.9797308,69.7463416 L31.9797308,24.5501538 Z M48.3578504,20.2065072 L35.1267308,25.6074004 L35.1267308,70.6892308 C35.1267308,71.2697039 34.8071451,71.8030306 34.2952725,72.076774 L27.1045033,75.9223125 C26.0563269,76.4828648 24.7889615,75.7234208 24.7889615,74.5347692 L24.7889615,31.0054071 L11.1864231,39.1625322 L11.1864231,48.689409 L12.2232552,48.110075 C13.2721004,47.5240287 14.5642692,48.2822239 14.5642692,49.4836923 L14.5640926,84.8742718 C14.6322147,89.4206588 16.7278465,90.8631805 19.9447969,88.6195435 L20.1111171,88.5182375 L38.4994248,78.8240837 L38.6757755,78.7445565 C42.1306278,77.4356883 45.2119972,71.0910986 45.1852692,66.0061538 L45.1852692,31.0689231 C45.1852692,30.3997314 45.6085283,29.8037489 46.2403579,29.5832744 L48.3407139,28.8503633 L48.3578504,20.2065072 Z" id="Stroke-6" fill="#F6BC25" fill-rule="nonzero"></path>
                <path d="M84.8815844,66.3316119 C84.38672,67.6312663 82.5727157,67.6970611 81.9849971,66.4366725 L73.1064231,47.3961744 L73.1064231,71.0572308 C73.1064231,71.7880525 72.6032331,72.4226755 71.8916578,72.589292 L56.1753501,76.269292 C55.1880836,76.5004621 54.2431154,75.7512006 54.2431154,74.7372308 L54.2431154,62.6972308 C54.2431154,62.0198064 54.6766836,61.4184182 55.3193973,61.2043556 L57.2529615,60.5603612 L57.2529615,29.5732904 L56.1233635,29.9282193 C55.1096547,30.2467349 54.0781923,29.4896482 54.0781923,28.4270769 L54.0781923,16.2252308 C54.0781923,15.4957942 54.5795167,14.8619922 55.2893495,14.6940188 L70.8327342,11.015865 C71.5382217,10.8489199 72.2664641,11.1856016 72.5962972,11.831197 L82.9591635,32.114848 L92.9979041,9.23907927 C93.2513965,8.66143381 93.8253674,8.29101343 94.456148,8.29798059 L109.833379,8.46782674 C110.695567,8.47734987 111.3895,9.17898993 111.3895,10.0412308 L111.3895,22.2467692 C111.3895,23.1157893 110.68502,23.8202692 109.816,23.8202692 L108.380269,23.8202692 L108.380269,54.6832217 L110.229096,54.7768203 C111.066122,54.8191955 111.723038,55.5102099 111.723038,56.3483077 L111.723038,68.5501538 C111.723038,69.4256795 111.008375,70.1328247 110.132898,70.1235659 L94.4221292,69.957412 C93.5596487,69.9482906 92.8652692,69.2465287 92.8652692,68.384 L92.8652692,45.3641924 L84.8815844,66.3316119 Z M83.2646417,61.7343835 L92.9682617,36.2499266 C93.5900225,34.6170065 96.0122692,35.0625584 96.0122692,36.8098462 L96.0122692,66.827053 L108.576038,66.9599248 L108.576038,57.8441629 L106.727211,57.7505644 C105.890185,57.7081892 105.233269,57.0171747 105.233269,56.1790769 L105.233269,22.2467692 C105.233269,21.3777492 105.937749,20.6732692 106.806769,20.6732692 L108.2425,20.6732692 L108.2425,11.597447 L95.4616031,11.4562781 L84.507942,36.4169207 C83.9747465,37.6319394 82.269527,37.6820832 81.6658567,36.5004953 L70.3556937,14.3626628 L57.2251923,17.469837 L57.2251923,26.283325 L58.3547903,25.9283961 C59.3684992,25.6098805 60.3999615,26.3669671 60.3999615,27.4295385 L60.3999615,61.6947692 C60.3999615,62.3721936 59.9663934,62.9735818 59.3236796,63.1876444 L57.3901154,63.8316388 L57.3901154,72.7527335 L69.9594231,69.8096089 L69.9594231,40.2984615 C69.9594231,38.6146327 72.2473963,38.1074093 72.9590029,39.6334813 L83.2646417,61.7343835 Z" id="Stroke-8" fill="#F6BC25" fill-rule="nonzero"></path>
                <path d="M137.798808,50.7093139 L133.254731,49.7210917 L133.254731,58.7022793 L137.798808,59.6901379 L137.798808,50.7093139 Z M139.038045,63.1800474 L131.346968,61.5080474 C130.62365,61.350802 130.107731,60.7106737 130.107731,59.9704615 L130.107731,47.7686154 C130.107731,46.7648925 131.034814,46.0177563 132.015611,46.231055 L139.706688,47.9036704 C140.42995,48.0609615 140.945808,48.7010637 140.945808,49.4412308 L140.945808,61.6424615 C140.945808,62.6461352 140.01881,63.3932607 139.038045,63.1800474 Z M137.628962,28.6351401 L133.254731,27.6630888 L133.254731,35.4718254 L137.628962,36.4456662 L137.628962,28.6351401 Z M138.860523,39.9438972 L131.339292,38.2694356 C130.619643,38.1092193 130.107731,37.4708061 130.107731,36.7335385 L130.107731,25.7015385 C130.107731,24.6948951 131.039899,23.9471365 132.022571,24.1655081 L139.543802,25.8368927 C140.263737,25.9968784 140.775962,26.6354258 140.775962,27.3729231 L140.775962,38.408 C140.775962,39.4148949 139.843355,40.1627065 138.860523,39.9438972 Z M153.825194,53.0756313 C153.844839,53.1755853 153.854731,53.2772108 153.854731,53.3790769 L153.854347,68.8372384 C153.984064,74.7075139 151.036487,78.2018575 146.065647,76.6794639 C143.693651,75.8966649 117.574679,71.0388182 115.04564,70.9022891 C114.210795,70.8572203 113.556962,70.1671382 113.556962,69.3310769 L113.556962,57.2966154 C113.556962,56.2976947 114.475706,55.5516109 115.453367,55.7566043 C115.406328,55.7467412 115.821882,55.7734989 116.228506,55.7929169 C116.440749,55.8030524 116.680506,55.8136819 116.942646,55.824659 C116.983824,55.8263833 117.025325,55.8281069 117.067115,55.8298287 L117.067115,24.6552603 C116.935412,24.630359 116.796703,24.6042366 116.653263,24.5773425 C116.219114,24.4959963 115.807054,24.4193549 115.394956,24.3430816 C115.147681,24.2973146 114.95528,24.261829 114.845797,24.24169 C114.099096,24.1043366 113.556962,23.4533824 113.556962,22.6941538 L113.556962,11.3230769 C113.556962,10.3880159 114.367568,9.65927549 115.297355,9.75845272 C116.407619,9.87688095 121.877523,10.8503733 130.539988,12.447165 C130.767557,12.4891196 130.767557,12.4891196 130.995064,12.5310851 C134.275994,13.1363592 137.763681,13.7848172 141.233115,14.4332685 C142.44739,14.6602214 143.572665,14.8709655 144.580801,15.0600996 C145.142347,15.1654804 145.142347,15.1654804 145.516386,15.2357446 C145.789637,15.2871001 145.789637,15.2871001 145.84724,15.2979375 L146.052308,15.3510276 C152.536857,17.5049039 154.739271,27.5813366 153.980297,38.682101 C153.340842,42.2394921 151.719286,44.6756782 149.389975,45.7755754 C151.858037,47.8284936 153.22047,49.9987302 153.825194,53.0756313 Z M144.39293,46.1006393 C142.929495,45.1969054 143.769577,42.9366207 145.468017,43.2080646 C148.2606,43.654374 150.160872,41.9989098 150.846714,38.3773062 C151.484571,28.8160171 149.551703,19.9443264 145.15285,18.369519 C145.109894,18.3614449 145.044407,18.3491371 144.935263,18.3286243 C144.561627,18.258436 144.561627,18.258436 144.000523,18.153138 C142.993063,17.9641308 141.868486,17.7535173 140.65494,17.5267007 C137.187742,16.8786673 133.702375,16.2306406 130.424132,15.6258623 C130.196844,15.5839371 130.196844,15.5839371 129.969499,15.5420238 C123.780952,14.4012608 119.133259,13.5635721 116.703962,13.1559596 L116.703962,21.3853409 C116.866885,21.4156954 117.02716,21.4456329 117.182995,21.4748305 C118.326611,21.6892478 118.881277,21.7965415 119.049284,21.8417268 C119.736493,22.0265509 120.214115,22.649601 120.214115,23.3612308 L120.214115,57.464 C120.214115,58.3541924 119.476273,59.0671287 118.586605,59.0365728 C118.475131,59.0327442 118.280929,59.0258653 118.031475,59.0166716 C117.615654,59.0013465 117.199745,58.985183 116.810981,58.9689035 C116.774902,58.9673927 116.739225,58.9658878 116.703962,58.964389 L116.703962,67.9373436 C123.031039,68.8470426 144.672213,72.9057018 147.019444,73.6806775 C149.503329,74.4412116 150.796534,72.9081216 150.707731,68.872 L150.707731,53.5370146 C150.052398,50.4095479 148.315873,48.5232236 144.39293,46.1006393 Z" id="Stroke-10" fill="#F6BC25" fill-rule="nonzero"></path>
                <path d="M164.819834,83.5126257 C159.991617,81.5754374 156.372699,74.069406 156.406835,67.8880922 L156.184851,30.4101573 C156.08401,24.0453136 160.675411,20.145627 165.944287,22.6076891 L166.08796,22.6841141 C166.135842,22.7128553 166.135842,22.7128553 166.3624,22.8489374 C166.672342,23.0351614 166.672342,23.0351614 167.137145,23.3146123 C167.971327,23.8162371 168.900806,24.375789 169.901769,24.9791563 C172.761785,26.7031362 175.621856,28.4329547 178.291621,30.0558024 C178.409208,30.127283 178.409208,30.127283 178.526784,30.1987722 C185.305249,34.3204833 189.560126,36.962165 190.472225,37.6540923 C190.864384,37.9515886 191.094731,38.4154595 191.094731,38.9076923 L191.094731,57.7969231 C191.094731,59.0726453 189.656332,59.8180904 188.614003,59.0825512 L177.248464,51.0622436 C176.830669,50.7674185 176.582192,50.2879612 176.582192,49.7766154 L176.582192,43.8360893 L172.367962,41.4436097 L172.367962,71.9289828 L176.582192,74.3189963 L176.582192,67.8301538 C176.582192,66.5769724 177.97577,65.8266584 179.021947,66.5165691 L190.889024,74.3424152 C191.332579,74.6349213 191.598562,75.1315178 191.596254,75.6628326 L191.551816,85.8810635 C191.451241,93.2854906 186.868777,96.757638 181.281687,92.9122589 L164.819834,83.5126257 Z M159.331626,30.3759078 L159.553784,67.8874327 C159.525852,72.9605579 162.606027,79.3051276 166.059615,80.6184901 C166.135847,80.6474804 166.20971,80.6823538 166.280536,80.722795 L182.901459,90.2132565 L183.020752,90.2886603 C186.278131,92.5582258 188.334837,91.0115734 188.404976,85.8528597 L188.445586,76.500757 L179.729192,70.7526559 L179.729192,77.0203077 C179.729192,78.2262099 178.428411,78.9839081 177.379458,78.3890159 L170.018227,74.2142467 C169.525468,73.9347885 169.220962,73.4120265 169.220962,72.8455385 L169.220962,38.7409231 C169.220962,37.534712 170.522343,36.7770496 171.571302,37.3725586 L178.932533,41.5516355 C179.424952,41.8311889 179.729192,42.353761 179.729192,42.92 L179.729192,48.9611548 L187.947731,54.7607222 L187.947731,39.732378 C186.377678,38.6952904 182.418521,36.2482951 176.891759,32.8876943 C176.774379,32.8163243 176.774379,32.8163243 176.656985,32.7449609 C173.990935,31.1243715 171.13406,29.3964862 168.277132,27.6743672 C167.277164,27.0715999 166.348636,26.5126203 165.515376,26.0115506 C165.051175,25.732461 165.051175,25.732461 164.741781,25.5465664 C164.633546,25.4815548 164.577139,25.4476738 164.542537,25.4268927 C161.631028,24.1157632 159.264894,26.1591063 159.331626,30.3759078 Z" id="Stroke-12" fill="#F6BC25" fill-rule="nonzero"></path>
                <path d="M49.912,29.9686154 L49.936,17.8627692 L33.5532308,24.5501538 L33.5532308,70.6892308 L26.3624615,74.5347692 L26.3624615,28.2270769 L9.61292308,38.2713846 L9.61292308,51.3710769 L12.9907692,49.4836923 L12.9907692,84.8978462 C13.0732308,90.4012308 16.3458462,93.048 20.8449231,89.9101538 L39.2332308,80.216 C43.7895385,78.4898462 46.7852308,71.0363077 46.7587692,66.0061538 L46.7587692,31.0689231 L49.912,29.9686154" id="Fill-5" fill="#FFFFFE"></path>
                <polyline id="Fill-7" fill="#FFFFFE" points="94.4387692 36.8098462 94.4387692 68.384 110.149538 68.5501538 110.149538 56.3483077 106.806769 56.1790769 106.806769 22.2467692 109.816 22.2467692 109.816 10.0412308 94.4387692 9.87138462 83.0670769 35.7846154 71.1950769 12.5470769 55.6516923 16.2252308 55.6516923 28.4270769 58.8264615 27.4295385 58.8264615 61.6947692 55.8166154 62.6972308 55.8166154 74.7372308 71.5329231 71.0572308 71.5329231 40.2984615 83.4110769 65.7716923 94.4387692 36.8098462"></polyline>
                <path d="M139.372308,61.6424615 L131.681231,59.9704615 L131.681231,47.7686154 L139.372308,49.4412308 L139.372308,61.6424615 Z M139.202462,38.408 L131.681231,36.7335385 L131.681231,25.7015385 L139.202462,27.3729231 L139.202462,38.408 Z M152.281231,53.3790769 C151.443077,49.1144615 148.685538,46.9021538 145.219692,44.7618462 C149.039385,45.3723077 151.614154,42.936 152.410462,38.5747692 C152.869538,31.8603077 152.172308,19.0418462 145.556308,16.8443077 C145.556308,16.8443077 117.622769,11.5889231 115.130462,11.3230769 L115.130462,22.6941538 C115.130462,22.6941538 118.388923,23.2935385 118.640615,23.3612308 L118.640615,57.464 C118.640615,57.464 115.397538,57.3526154 115.130462,57.2966154 L115.130462,69.3310769 C117.763692,69.4732308 144.022769,74.3483077 146.558769,75.1852308 C150.427692,76.3698462 152.385231,73.5784615 152.281231,68.872 L152.281231,53.3790769 L152.281231,53.3790769 Z" id="Fill-9" fill="#FFFFFE"></path>
                <path d="M182.121231,91.5796923 C186.622154,94.7156923 189.894154,92.0664615 189.978462,85.8596923 L190.022769,75.656 L178.155692,67.8301538 L178.155692,77.0203077 L170.794462,72.8455385 L170.794462,38.7409231 L178.155692,42.92 L178.155692,49.7766154 L189.521231,57.7969231 L189.521231,38.9076923 C187.484308,37.3624615 165.278154,24.0332308 165.278154,24.0332308 C161.158769,22.1083077 157.674462,25.1027692 157.758154,30.3852308 L157.980308,67.8787692 C157.952615,72.9083077 160.948308,80.3581538 165.500308,82.0892308 L182.121231,91.5796923" id="Fill-11" fill="#FFFFFE"></path>
                <path d="M140.551385,72.4732308 C166.557538,72.9710769 167.753231,108.331077 167.753231,108.331077 C147.724308,110.224615 144.934769,128.358769 144.934769,128.358769 C152.321231,136.193846 160.628923,154.568 162.184,165.692923 L136.413538,145.057846 L146.326154,165.694769 L123.473231,151.152615 L132.413538,162.782154 L97.7409231,162.782154 L87.7575385,176.336615 L83.8633846,162.782154 L65.9544615,162.780923 C77.4658462,157.574769 76.5784615,144.745231 76.5784615,144.745231 L69.4455385,151.315077 C71.1101538,139.227077 68.7169231,133.944615 68.7169231,133.944615 C28.944,133.340308 31.9323077,102.848615 31.9323077,102.848615 C31.9323077,102.848615 31.928,92.5526154 39.6203077,89.5784615 L63.8769231,82.0775385 C63.8769231,82.0775385 69.6012308,68.1710769 88.3963077,63.3304615 L88.3963077,68.2590769 C88.3963077,68.2590769 97.8486154,60.0141538 113.592615,62.0935385 L113.168615,67.9009231 C113.168615,67.9009231 126.616615,60.1846154 140.551385,72.4732308" id="Fill-13" fill="#1A1919"></path>
                <path d="M76.5243077,85.2596923 C76.5243077,85.2596923 80.3341538,91.2246154 89.6529231,77.5353846 C89.6529231,77.5353846 100.153231,76.0086154 103.016,87.5630769 C103.016,87.5630769 99.8978462,84.4738462 95.4086154,84.112 C95.4086154,84.112 97.8498462,86.0990769 96.6067692,90.1698462 C96.6067692,90.1698462 88.8,88.4116923 88.0633846,95.9150769 C88.0633846,95.9150769 82.816,94.6732308 82.3433846,89.7550769 C82.3433846,89.7550769 76.2941538,93.2861538 76.5243077,85.2596923 Z M109.211692,74.1507692 L109.657846,66.864 C93.2350769,66.1575385 85.1507692,75.3833846 85.1507692,75.3833846 L85.1507692,69.5476923 C72.6,73.9138462 68.1335385,82.296 68.1335385,82.296 L73.7741538,83.8344615 L46.5606154,91.4584615 C46.5606154,91.4584615 58.1827692,93.536 52.0123077,104.489846 C52.0123077,104.489846 52.2923077,98.6295385 48.0818462,97.9526154 C43.872,97.2818462 43.1723077,106.458462 43.1723077,106.458462 C43.1723077,106.458462 43.2935385,98.4633846 39.7052308,98.064 C36.1187692,97.6664615 36.3833846,103.905231 36.3833846,103.905231 C36.3833846,103.905231 35.6861538,115.038154 42.5944615,120.089846 L43.2615385,108.397538 C43.2615385,108.397538 46.2387692,125.433231 62.4061538,126.867077 L82.3593846,126.867077 C99.4947692,126.764923 100.541538,117.795692 100.541538,117.795692 C100.492308,136.131692 76.2873846,132.312615 76.2873846,132.312615 L92.3218462,141.712 L80.3126154,142.843692 C91.7913846,151.947692 89.1593846,167.732308 89.1593846,167.732308 L98.6756923,154.72 C98.6732308,154.72 117.788923,154.792615 117.979077,154.72 L104.875692,138.124308 L125.620308,138.125538 C104.600615,134.345846 106.470769,117.2 106.470769,117.2 C123.511385,101.206769 112.348923,83.8664615 112.348923,83.8664615 C127.197538,101.852923 113.047385,117.596923 113.047385,117.596923 C111.752615,129.552615 124.507077,130.948923 124.507077,130.948923 C124.507077,130.948923 137.995692,133.692308 141.746462,122.580308 C147.324923,106.038154 162.274462,105.44 162.274462,105.44 C158.388308,75.8436923 136.864,77.24 136.864,77.24 C136.864,77.24 126.997538,64.2855385 109.211692,74.1507692 L109.211692,74.1507692 Z" id="Fill-14" fill="#A2801C"></path>
                <path d="M87.5716923,85.7489231 C87.5716923,85.7489231 90.2430769,83.8301538 90.5643077,82.2676923 C90.5643077,82.2676923 94.9981538,84.8793846 93.9513846,87.4350769 C93.9513846,87.4350769 89.4867692,86.8972308 87.8301538,90.4363077 C87.8301538,90.4363077 89.5803077,87.2270769 87.5716923,85.7489231" id="Fill-15" fill="#FFFFFE"></path>
                <polyline id="Fill-16" fill="#F6BC25" points="104.055385 175.630154 103.432 175.630154 103.432 171.204308 102.008 171.204308 102.008 170.658462 105.482462 170.658462 105.482462 171.204308 104.055385 171.204308 104.055385 175.630154"></polyline>
                <polyline id="Fill-17" fill="#F6BC25" points="110.975385 175.630154 110.371077 175.630154 110.371077 171.288 108.756923 175.630154 108.334769 175.630154 106.703385 171.288 106.703385 175.630154 106.174769 175.630154 106.174769 170.658462 107.097231 170.658462 108.599385 174.635077 110.065231 170.658462 110.975385 170.658462 110.975385 175.630154"></polyline>
            </g>
        </g>
    </g>
</svg>