<?xml version="1.0" encoding="UTF-8"?>
<svg width="200px" height="200px" viewBox="0 0 200 200" version="1.1" xmlns="http://www.w3.org/2000/svg" xmlns:xlink="http://www.w3.org/1999/xlink">
    <!-- Generator: Sketch 54.1 (76490) - https://sketchapp.com -->
    <title>unc-greensboro</title>
    <desc>Created with Sketch.</desc>
    <defs>
        <polygon id="path-1" points="0 0.120541121 199.720714 0.120541121 199.720714 151.570093 0 151.570093"></polygon>
    </defs>
    <g id="unc-greensboro" stroke="none" stroke-width="1" fill="none" fill-rule="evenodd">
        <g id="unc-greensboro_BGL">
            <g id="unc-greensboro" transform="translate(0.000000, 24.000000)">
                <g id="Group-3" transform="translate(0.000000, 0.594841)">
                    <mask id="mask-2" fill="white">
                        <use xlink:href="#path-1"></use>
                    </mask>
                    <g id="Clip-2"></g>
                    <path d="M154.750071,97.8768168 C155.669357,97.4206766 156.619357,96.8272654 157.500786,96.0443916 C157.513643,96.0322374 157.510786,96.0115037 157.490071,96.0043542 C153.185786,94.6366486 150.757929,93.604971 150.732929,93.5942467 C150.267929,93.4090738 139.200071,88.801915 140.303643,72.8505925 C140.420071,71.1861813 140.652214,69.3022794 141.147929,67.3047 C141.795786,64.6936907 142.027214,63.1772748 142.270071,60.7357093 C142.447214,58.9483262 142.440786,58.1625925 142.3965,56.3530458 C142.347214,54.3097093 142.174357,51.8159523 141.867929,49.5223822 C141.2915,45.1976299 140.207214,40.7870832 138.945071,36.949929 C138.8815,36.7254336 138.818643,36.5016533 138.752214,36.2778729 C135.532214,25.5156813 128.134357,16.3664243 118.930786,9.95972804 C118.759357,9.8317514 118.595071,9.70949439 118.442929,9.60153645 C114.464357,6.77461121 109.973643,4.53323271 105.197214,2.9360271 C99.9450714,1.10789159 94.5236429,0.120541121 89.2122143,0.120541121 C88.5436429,0.120541121 87.8736429,0.126975701 87.2250714,0.151999065 C82.5772143,0.234218692 78.3229286,0.847648598 75.2265,1.41103178 C70.9693571,2.18604112 65.3900714,4.03991495 61.6593571,5.88377944 C58.2772143,7.55462523 54.9000714,9.70806449 52.3000714,11.6505925 C49.3836429,13.8312 47.2036429,15.8459383 46.3000714,16.7453495 C45.1050714,17.9357467 43.6336429,19.4564523 42.8572143,20.2636346 C42.5236429,20.6103869 42.7800714,20.9042327 42.9757857,20.9371206 C43.9186429,21.0944103 45.1693571,21.267429 46.1807857,21.4490271 C47.4400714,21.6742374 49.3600714,21.8637 54.0272143,23.6124757 C59.5036429,25.6651065 64.6350714,29.1962607 66.2129286,30.7548589 C67.6693571,32.1947748 70.4615,36.0054757 71.7993571,37.8536299 L72.5800714,38.9310645 L72.3986429,39.1605645 C71.7465,39.9856206 71.1257857,40.8793121 70.6315,41.6578963 C70.6315,41.6578963 69.5493571,42.1998308 68.5772143,42.7825178 C67.8786429,43.2021953 67.2879286,43.6754944 66.7707857,44.1216252 C66.4193571,44.4240505 66.2265,44.9852888 66.3536429,45.4628776 C66.6265,46.4931252 67.3257857,48.1661159 67.7707857,48.9489897 L67.8750714,49.1348776 L67.8572143,49.2642841 C67.6615,50.6605879 67.0529286,53.7070037 65.9307857,58.0667888 C65.0722143,61.4013308 64.1200714,64.5035131 63.0993571,67.2868262 C62.6686429,68.4614944 62.1450714,69.9550318 61.8007857,70.8894757 C61.4686429,71.788172 61.7600714,72.2435972 62.2865,72.3408308 C63.1543571,72.5016953 64.8129286,72.7025972 64.8129286,72.7025972 C64.4136429,77.4992187 63.5957857,83.7743636 63.3093571,85.588915 C63.1336429,86.7028121 62.9543571,87.3448402 62.6843571,88.1041206 C62.4486429,88.7668822 61.8086429,90.2261019 61.6722143,90.5092234 C61.0672143,91.7632514 61.0329286,92.9636579 61.1936429,93.3718963 C61.4379286,93.9917607 62.2936429,94.6051907 63.5472143,94.9955551 C64.8629286,95.4216673 67.1329286,95.7827187 68.7193571,95.8184664 C70.2029286,95.8520692 72.2865,95.6833402 75.2865,95.1614243 C76.8379286,94.8918869 78.6872143,94.4900832 80.7115,93.9431439 L80.9122143,93.8895224 L80.9650714,94.3320785 C81.3622143,97.675915 80.2822143,101.138434 77.6179286,105.198653 L76.0336429,107.601611 L67.1757857,97.8768168 L12.3707857,97.8768168 L0.642928571,136.175434 C-1.02278571,141.623378 0.922928571,145.33041 2.23007143,147.054878 C4.37364286,149.881803 7.76507143,151.569807 11.3036429,151.570522 L68.1472143,151.570522 L70.3229286,144.441008 L76.8365,151.570522 L95.6736429,151.570522 L95.8257857,151.06505 C96.9579286,151.399649 98.1029286,151.570522 99.3300714,151.570522 L129.400786,151.570522 C131.455071,151.570522 134.140071,151.361041 136.800071,149.755971 C138.690071,150.943508 140.9565,151.569807 143.370786,151.570522 L183.314357,151.570522 L199.720786,97.8768168 L154.750071,97.8768168 Z" id="Fill-1" fill="#FEFEFE" mask="url(#mask-2)"></path>
                </g>
                <path d="M137.183786,101.311953 C134.137357,97.8873266 128.978786,92.649579 122.7295,88.6787285 C119.718786,86.7662285 116.413071,84.9609715 115.528786,82.7596304 C115.495214,82.6759808 115.501643,82.6302238 115.656643,82.6230743 C116.2695,82.5959061 117.558071,82.8811724 118.881643,83.3866444 C119.288071,83.5425042 119.665214,83.7012238 119.941643,83.8392098 C120.085929,83.9099902 120.145929,83.8964061 120.237357,83.8184762 C120.3295,83.7419762 120.460929,83.6197192 120.460929,83.6197192 C120.460929,83.6197192 122.408071,81.8802379 122.833071,81.4055089 C123.658071,80.4832192 124.483071,79.2899621 123.697357,77.7942799 C123.490929,77.3317051 123.190214,76.9756584 123.006643,76.7568827 C122.7495,76.4523126 122.466643,76.032635 122.052357,75.5807846 C121.410929,74.8801304 120.598071,73.8062706 119.953071,72.9704902 C119.483071,72.362065 117.6945,69.7532005 117.553071,69.0053593 C117.432357,68.3669061 117.861643,67.8800229 118.640929,68.0609061 C119.772357,68.3240089 121.038071,69.2112659 122.128071,70.3852192 C123.643786,72.0181724 124.693786,74.9809388 125.108071,77.2930977 C126.8995,87.3002986 135.868071,93.9786771 141.850214,95.7925136 C145.0645,96.7669949 147.490929,96.963607 148.745929,96.9850556 C148.987357,96.9893453 149.208071,96.9886304 149.360214,96.979336 C149.458071,96.9736164 149.522357,96.8913967 149.393786,96.8356304 C147.388071,95.9576678 136.366643,90.2730743 137.457357,73.3150977 C137.590929,71.2388734 138.021643,68.873093 138.617357,66.4343874 C137.433786,64.5097332 136.267357,62.5450416 135.373786,61.1809107 C135.303786,61.0736678 135.205214,60.9271023 135.158786,60.8584668 C135.126643,60.8119949 135.133786,60.5181491 135.133786,60.5181491 C136.670929,61.6449154 138.108071,62.8410322 139.128786,63.824093 C139.3295,62.570065 139.546643,61.100121 139.618071,59.7731678 C137.772357,58.1252005 135.148786,56.0461164 131.830214,54.3581117 C131.778071,54.3316584 131.745929,54.3144995 131.682357,54.2816117 C131.633071,54.2565883 131.637357,53.7861491 131.6395,53.6667519 C133.563786,54.2730322 136.257357,55.3147192 139.387357,57.0091584 C139.463071,57.062065 139.6545,57.1485743 139.658071,57.1500042 C139.340929,45.8094154 135.035929,32.4254902 130.296643,25.7621257 C129.345214,24.4244481 128.048071,22.6227659 127.0495,21.6239762 C126.871643,21.8470416 126.295929,22.5333967 126.115929,22.7493126 C123.588786,25.7807145 120.920929,28.1336257 119.012357,29.6514715 C118.985214,29.6107192 118.775929,29.2253593 118.866643,29.1266958 C121.591643,26.1675042 123.066643,23.3942005 124.230214,21.1277986 C124.403786,20.7881958 124.811643,19.8623313 124.9445,19.3582893 C124.498071,18.9000042 124.170929,18.5596864 123.703071,18.1157005 C122.9395,18.9929481 121.413071,20.4249995 119.820214,21.6504294 C119.783786,21.6790276 119.580929,21.4716911 119.613786,21.4245042 C120.202357,20.5822893 121.412357,18.5718407 122.133071,16.6171584 C116.058786,11.1806537 106.765214,5.32804626 93.5680714,3.77087804 C90.9509286,3.46201822 87.4259286,3.50777523 86.2430714,3.61215841 C86.4630714,4.15409299 86.8245,5.29444346 87.0202143,5.83280327 C88.6095,10.2047425 89.4095,14.3693453 89.8145,17.3099481 C89.8187857,17.3471257 89.8287857,17.419336 89.8287857,17.419336 C89.8287857,17.419336 89.4409286,17.4257706 89.4309286,17.3957425 C89.4216429,17.3664294 89.4109286,17.3299668 89.4023571,17.3027986 C87.2487857,10.3791911 83.8687857,5.86855093 82.2237857,3.89027523 C81.2209286,3.95104626 80.0752143,4.11334065 78.9073571,4.27563505 C79.7537857,5.41670047 81.2502143,7.64449486 82.4795,10.4127939 C82.4795,10.4127939 82.1837857,10.4514014 82.1202143,10.3641771 C81.1980714,9.10871916 79.0495,6.29680794 76.8337857,4.59950888 C76.2602143,4.68101355 74.7445,4.98558364 72.3416429,5.57256028 C69.6566429,6.22817243 67.1437857,7.06323785 62.7766429,9.22168178 C56.5202143,12.3131397 51.7680714,16.0895229 48.4995,19.3261164 C48.4423571,19.3825977 48.4737857,19.4476584 48.5159286,19.454093 C56.0723571,20.6444902 65.2495,26.3476724 67.6823571,28.6741304 C69.3152143,30.2348734 69.7195,30.8261397 70.1680714,31.4073967 C71.7230714,33.42285 75.3087857,38.1079388 76.3095,39.7523313 C76.0373571,39.9968453 73.8773571,42.3897939 72.6237857,44.6754995 C71.5030714,44.9335977 69.5295,46.0003079 69.5416429,46.2984435 C69.5716429,47.0234061 70.8966429,48.8215136 70.8959286,49.2483407 C70.8937857,49.7459481 70.4109286,53.4401117 68.8580714,59.4743173 C67.5180714,64.680607 66.0080714,68.4527005 65.3737857,70.3122939 C65.3630714,70.3437519 65.3673571,70.4095276 65.4130714,70.4166771 C65.7887857,70.4688687 67.5602143,70.7026584 67.8466429,70.7527051 C67.7402143,75.9346864 66.6630714,83.9042706 66.2309286,86.6446864 C65.9523571,88.4063313 65.6102143,89.2135136 65.2030714,90.2451911 C64.7959286,91.2740089 64.5230714,92.0025463 64.3352143,92.3907659 C64.2252143,92.618836 64.2787857,92.7160696 64.4616429,92.7754107 C65.4980714,93.1107238 68.0245,93.4867893 69.2795,93.4589061 C70.5123571,93.4317379 72.0052143,93.2358407 74.7316429,92.8490509 C77.7766429,92.4165042 80.0123571,91.7530276 82.8152143,90.7964201 C84.2680714,94.0644715 85.3887857,99.2014107 79.9487857,107.490579 C79.0152143,108.913336 77.7045,110.918065 76.4380714,112.854873 L65.9216429,101.299799 L64.4187857,101.299084 L41.9652143,101.296939 L33.9987857,127.365565 L28.9287857,127.36485 L36.8987857,101.296939 L14.4695,101.294794 L3.35664286,137.602266 C2.06092857,141.841224 3.51092857,144.640981 4.49092857,145.932901 C6.09235714,148.045588 8.6395,149.307481 11.3037857,149.308196 L43.6195,149.311056 L43.6195,149.311056 L66.0480714,149.3132 L69.0616429,139.451135 L78.0859286,149.31463 L93.5730714,149.31606 L94.0716429,147.684537 C95.5509286,148.748387 97.3523571,149.316775 99.3302143,149.316775 L129.400929,149.31892 C131.245929,149.31892 133.415214,149.140182 135.5095,147.811799 C136.0095,147.495074 136.447357,147.141887 136.837357,146.771542 C138.128071,148.076331 140.192357,149.319635 143.370929,149.32035 L181.215214,149.323925 L195.885214,101.311953 L137.183786,101.311953 Z" id="Fill-4" fill="#122348"></path>
                <path d="M91.6282143,61.1492383 C91.9796429,60.8761262 92.1517857,60.5622617 92.1517857,60.5622617 C92.1517857,60.5622617 91.7767857,59.9795748 90.7539286,59.4683832 C89.9639286,59.073729 89.3025,58.9035701 88.6603571,58.7584346 C88.0196429,58.6132991 87.1596429,58.5117757 86.5153571,58.4888972 C85.8739286,58.4481449 84.6625,58.5775514 84.6196429,58.6268832 C85.2439286,58.7198271 85.8546429,58.8327897 86.4403571,59.0258271 C87.0346429,59.2210093 87.8017857,59.5291542 88.1353571,59.7250514 C88.4696429,59.9209486 88.6960714,60.1876262 88.7082143,60.328472 L86.6032143,60.2133645 C83.1825,65.3939159 82.6996429,61.1592477 81.1739286,61.7076168 C80.5067857,61.9471262 79.7660714,63.6043879 79.5403571,64.2614299 C83.6060714,63.7495234 88.9117857,62.3718084 90.3353571,61.8456028 C90.7732143,61.6682944 91.3082143,61.3980421 91.6282143,61.1492383" id="Fill-6" fill="#898B8E"></path>
                <path d="M117.4,91.6258374 C117.225714,91.5572019 117.072857,91.4964308 116.923571,91.463543 C115.383571,91.510015 107.859286,94.5907486 103.294286,96.9350804 C103.227857,96.9693981 103.196429,96.986557 103.096429,97.0366037 C102.995,97.0880804 102.837143,97.109529 102.457857,97.0609121 C102.608571,96.9636785 105.791429,94.5621505 107.578571,93.3982065 C109.806429,91.9461364 110.685714,91.6594402 110.685714,91.6594402 C110.685714,91.6594402 109.044286,90.6041692 107.715714,90.0229121 C106.658571,89.5596224 105.495714,90.0700991 104.492143,90.7986364 C102.14,92.5066598 97.7671429,96.1986785 94.6614286,98.8861879 C93.7235714,99.6976598 92.8807143,100.448361 92.2335714,101.034622 C92.22,101.022468 92.1314286,100.959552 92.1957143,100.890202 C92.26,100.821566 93.6171429,99.0420477 94.1871429,98.2134168 C99.4064286,90.6234729 99.4628571,89.9371178 99.54,89.6225383 C99.6228571,89.2836505 99.2328571,86.689085 98.2464286,83.8664495 C94.4057143,86.1993421 90.4292857,88.0260477 86.7628571,89.4187766 C86.8392857,89.5846458 86.9757143,89.8892159 87.1171429,90.2631364 C87.4128571,91.0395757 87.8285714,92.3987019 87.8657143,94.5950383 C87.9335714,98.6123607 86.7428571,102.174258 85.2992857,105.064814 C83.855,107.95537 79.6571429,113.877328 79.6571429,113.877328 L80.9185714,113.871608 C84.3892857,110.929576 94.5264286,103.128721 108.763571,99.0077299 C116.100714,96.8843187 121.970714,96.9193514 126.128571,97.5477953 C122.569286,94.2461411 119.385714,92.4015617 117.4,91.6258374" id="Fill-8" fill="#898B8E"></path>
                <path d="M184.422857,116.740644 L187.163571,107.770126 L153.945714,107.767266 C151.805,107.766551 150.402857,108.911191 149.634286,111.425682 L141.016429,139.631303 C140.702143,140.662981 140.854286,141.510915 141.229286,142.006378 C141.624286,142.526864 142.160714,142.861462 143.371429,142.861462 L176.440714,142.864322 L182.869286,121.825392 L162.580714,121.823247 L160.429286,128.688229 L171.797857,128.689658 L170.250714,133.782271 L151.69,133.780841 L156.897143,116.737785 L184.422857,116.740644 Z" id="Fill-10" fill="#FCB61A"></path>
                <path d="M91.7575714,24.2586505 C84.7854286,24.2586505 78.3482857,26.6537439 73.1475714,30.6975196 L79.9011429,40.2564449 C83.6268571,37.3387206 88.3282857,35.6071037 93.4268571,35.6457112 C96.939,35.6721645 100.571143,36.5472673 103.616857,38.051529 C103.829,38.1559121 103.894714,38.189515 103.924714,38.2059589 C103.945429,38.2173981 103.949,38.2767393 103.896857,38.3067673 C103.891143,38.3103421 103.097571,38.6077626 102.994714,38.5677252 C102.965429,38.5570009 102.644,38.4325991 102.319714,38.311772 C99.7811429,37.3694636 97.3132857,36.9083187 94.774,36.9083187 C89.029,36.9083187 83.5661429,39.3298654 79.7604286,43.5523794 L79.2368571,43.5523794 L78.1147143,42.0331037 C78.1154286,42.0331037 78.1147143,42.0309589 78.1154286,42.0302439 L78.1132857,42.0309589 C78.1132857,42.0309589 77.1104286,42.7845196 76.4311429,43.9548981 C78.579,43.803328 81.4961429,43.8598093 85.0518571,44.6505477 C86.4218571,44.9558327 87.8811429,45.364786 89.434,45.9195897 C97.1211429,48.6707299 102.381857,54.0843561 105.615429,57.3938748 C105.653286,57.4317673 105.698286,57.4775243 105.734714,57.5154168 C107.395429,59.2141458 108.501857,60.3344776 109.506857,61.0680196 C112.294,62.8303794 115.534,60.6619262 115.445429,55.7044402 C115.444714,55.6686925 115.444714,55.6343748 115.444,55.5986271 C115.434714,55.279043 115.414714,54.9487346 115.376857,54.6069869 C115.011143,51.2316925 114.026143,49.0746785 113.753286,48.4011925 C113.717571,48.3125383 113.676143,48.2174495 113.656143,48.1709776 C113.621857,48.0923327 113.554714,47.9407626 113.549,47.9293234 C113.549,47.9293234 115.051143,47.1178514 115.854714,46.6609963 C116.497571,46.3070944 118.074714,45.4162626 118.074714,45.4162626 C116.839714,42.4713701 115.146857,39.7731364 113.042571,37.3944869 C112.274,38.3703981 111.501857,39.335585 110.749,40.2635944 C110.701143,40.3222206 110.632571,40.408015 110.616143,40.4280336 C111.700429,41.6699075 112.662571,43.0225991 113.476857,44.4496458 L114.422571,43.819772 C113.786857,42.6944355 113.067571,41.6148561 112.285429,40.6110617 L112.255429,40.5731692 L113.244,39.4385383 L113.287571,39.4935897 C114.496143,41.020015 115.552571,42.6930056 116.426143,44.4660897 L116.450429,44.5154215 L113.044,46.6595664 C113.044,46.6595664 112.441857,45.4877579 112.116857,44.9343841 C111.136143,43.2671131 109.911143,41.6548935 108.761143,40.5038187 C108.667571,40.4101598 108.569,40.3200757 108.569,40.3200757 C108.569,40.3200757 111.006143,37.1842907 111.824,36.1054262 C109.471143,33.7560897 106.771143,31.8678981 103.796143,30.4908981 C103.409,31.8485944 103.019714,33.1719729 102.638286,34.425286 C103.044,34.6118888 103.455429,34.8185103 103.895429,35.0551598 C104.699,35.4869916 105.485429,35.969585 106.231857,36.4893561 C106.733286,36.8396832 107.040429,37.0770477 107.092571,37.1149402 C107.234,36.8997393 107.676857,36.2140991 107.759,36.0875523 C106.691857,35.2617813 105.534,34.5103654 104.318286,33.8533234 L104.274,33.8297299 L104.804714,32.3826645 L104.864714,32.4148374 C106.664714,33.385029 108.361857,34.5689916 109.909714,35.9345523 L109.948286,35.9681551 L107.599,39.4335336 L107.549,39.3906364 C105.484,37.6189822 103.141857,36.2677206 100.591143,35.374029 L100.539714,35.3554402 C100.539714,35.3554402 100.653286,34.9615009 100.721857,34.7148421 C101.132571,33.2363187 101.577571,31.6655664 102.081143,29.7623607 C98.9811429,28.5776832 95.7261429,27.9742626 92.4061429,27.9764075 C92.1447143,27.9764075 91.7854286,27.9928514 91.7275714,27.9942813 C91.9032857,29.4863888 92.0632857,30.9506131 92.2032857,32.3476318 C92.5097143,32.3354776 92.789,32.3254682 93.0768571,32.3254682 C93.2297143,32.3254682 93.659,32.3369075 93.659,32.3369075 C95.0425714,32.3719402 96.424,32.5328047 97.7654286,32.8137813 C97.8547143,32.3697953 97.9411429,31.9336738 98.0268571,31.4975523 C97.8754286,31.4675243 97.5611429,31.3967439 97.2961429,31.3509869 C96.1954286,31.1586645 94.8254286,30.9877907 93.5925714,30.9463234 L93.5375714,30.9448935 L93.4647143,29.3012159 L93.5282857,29.3033607 C95.754,29.3941598 97.9597143,29.7695103 100.084,30.4179729 L100.135429,30.4337019 L100.124714,30.4858935 C99.8568571,31.7542206 99.1511429,34.9264682 99.1511429,34.9264682 L99.0918571,34.9100243 C97.2011429,34.3988327 95.244,34.1385897 93.2775714,34.1385897 C92.4311429,34.1385897 91.544,34.195786 90.6397143,34.3080336 L90.5811429,34.3151832 C90.5811429,34.3151832 90.0904286,30.2435243 89.7947143,28.1072439 C86.2668571,28.4468467 82.8775714,29.4649402 79.719,31.1336411 C80.5375714,32.5914308 81.2732857,33.9276785 81.9647143,35.2145944 C83.6232857,34.2937346 85.394,33.5809262 87.2297143,33.093328 L86.8711429,31.6605617 C85.3854286,32.0330523 83.9332857,32.5449589 82.5554286,33.1841271 L82.5025714,33.2084355 L82.4368571,33.0675897 C82.2147143,32.5971505 81.9918571,32.1274262 81.7675714,31.6591318 L81.7432857,31.6047953 L81.7868571,31.5590383 C83.3318571,30.8669636 84.9575714,30.3228841 86.6197143,29.941814 C87.2725714,29.7923888 87.8225714,29.6830009 88.3497143,29.5993514 L88.4075714,29.590772 L89.2168571,34.532529 L89.1611429,34.5432533 C86.3582857,35.0930523 83.7161429,36.1890757 81.3082857,37.8020103 L81.2554286,37.837043 C81.2554286,37.837043 79.0154286,33.8826364 77.9818571,32.1274262 C77.2975714,32.5463888 76.5332857,33.0990477 76.5332857,33.0990477 L75.599,31.6269589 L75.644,31.594071 C80.5668571,28.0743561 86.3261429,26.2140477 92.2997143,26.2140477 C101.117571,26.2140477 109.406143,30.2857065 115.040429,37.3844776 C115.339714,37.7619729 115.634714,38.1516224 115.916143,38.5427019 C117.053286,40.1234636 118.046857,41.8229075 118.869,43.5952766 C119.704,45.3962439 120.371143,47.2901551 120.849714,49.2226738 C121.092571,50.2007299 121.291143,51.2066692 121.439714,52.2133234 C121.665429,53.7468981 121.779714,55.3155056 121.779714,56.8762486 C121.779714,59.7818187 121.380429,62.6752346 120.591143,65.4764215 L120.584714,65.4978701 L121.742571,66.3572439 C122.575429,63.4044869 123.029,60.281571 123.029,57.0456925 C123.029,38.938071 109.028286,24.2586505 91.7575714,24.2586505" id="Fill-12" fill="#FCB61A"></path>
                <path d="M116.258143,62.2523397 L116.252429,62.278793 L117.166714,62.9579986 C117.607429,61.0311995 117.842429,59.0643631 117.842429,57.106821 C117.842429,56.586335 117.835286,56.2474472 117.835286,56.2474472 L119.310286,56.0765734 C119.310286,56.0765734 119.333857,56.4697977 119.332429,56.9666902 C119.326,59.3131668 119.044571,61.6474893 118.477429,63.9045967 L118.471714,63.9274752 L119.343143,64.5752229 C120.022429,62.0535827 120.366714,59.4568724 120.366714,56.8565874 C120.366714,53.4634192 119.798857,50.1388864 118.679571,46.9745033 L118.293857,47.1832696 C117.748143,47.4792603 117.183857,47.7859752 116.626714,48.080536 C116.213857,48.3064612 115.790286,48.5295266 115.380286,48.7454425 C115.903143,50.2618584 116.285286,51.8390453 116.513857,53.434821 C116.528857,53.5241902 116.541714,53.6142743 116.555286,53.7050734 C116.848143,53.6507369 117.622429,53.4998818 117.622429,53.4998818 C117.454571,52.1714986 117.187429,50.8559846 116.828143,49.5883724 L116.814571,49.5411855 C116.814571,49.5411855 117.241714,49.3317042 117.329571,49.2866621 C117.469571,49.2187416 118.157429,48.8748491 118.157429,48.8748491 L118.177429,48.9420547 C118.728143,50.8116575 119.085286,52.7649098 119.238857,54.7481902 L119.243143,54.8010967 C119.243143,54.8010967 118.851,54.8725921 118.779571,54.8854612 C118.171,54.9991388 117.519571,55.1135313 116.733857,55.2450827 C116.785286,55.8813911 116.807429,56.4898164 116.797429,57.0546294 C116.793143,57.2869893 116.785286,57.5536668 116.741714,58.3744332 C116.671714,59.6656388 116.481,61.0569379 116.258143,62.2523397" id="Fill-14" fill="#FCB61A"></path>
                <path d="M117.886214,74.6397631 C115.239786,71.2151369 113.656929,68.9973519 114.0305,66.4313846 C114.0455,66.4285248 114.068357,66.4235201 114.078357,66.4220902 C114.088357,66.4206603 115.3555,64.6275575 115.043357,64.3544453 C114.811214,64.1535435 114.5755,64.0391509 114.506929,64.0055481 C114.484071,63.9948238 114.489786,64.0048332 114.489786,64.0048332 C114.874786,65.0300762 111.239786,65.0765481 109.661929,64.2922444 C108.207643,63.5701416 107.004786,62.3518612 105.227643,60.2220154 C104.034786,58.7913939 102.6805,57.1727397 101.011929,55.4840201 C93.8176429,48.202936 84.2069286,46.6157397 78.6547857,46.7015341 C75.1983571,46.6643565 73.3983571,47.0625855 73.2533571,47.2706369 C73.1169286,47.4665341 73.9826429,48.7084079 74.2347857,49.05945 L74.2362143,49.0680294 C74.2340714,49.0787537 73.7997857,51.0770481 72.9583571,53.7445388 C71.6576429,57.8683893 71.0462143,58.4289126 71.3605,58.8779033 C71.4776429,59.0466322 71.5769286,59.2089266 71.6655,59.3626416 C70.1762143,64.3158379 68.7197857,67.969964 68.7197857,67.969964 L69.7747857,68.0736322 L69.7740714,68.0750621 L71.5090714,68.2445061 C71.5090714,68.2445061 73.2669286,64.4745575 76.4440714,59.9553379 C76.4676429,59.921735 76.5319286,59.8359407 76.5319286,59.8359407 L76.5319286,59.8359407 C76.5319286,59.8359407 76.5333571,59.8359407 76.5333571,59.8359407 C76.1197857,59.509207 75.6976429,59.0216089 76.1640714,58.6126556 C77.1419286,57.7561416 79.7912143,56.2904874 83.7062143,56.5278519 C88.5605,56.8224126 92.6219286,59.6800808 94.0447857,60.8275808 L94.0447857,60.8275808 C94.0419286,60.8361603 93.7776429,61.6304734 92.9205,62.340422 C92.3205,62.8380294 91.7790714,63.165478 91.1447857,63.3971229 C89.5683571,63.9733752 83.2247857,65.1180154 79.0062143,65.5191042 C78.5247857,65.5648612 76.8819286,65.675679 76.5440714,65.6999874 C76.3326429,67.0147864 75.9340714,69.3805668 75.2147857,73.3435528 C73.5512143,82.5171182 72.1647857,87.3845201 71.5390714,89.3399173 C71.5290714,89.3420621 71.5155,89.3434921 71.5047857,89.3456369 C70.8847857,89.4443005 70.1540714,91.1015621 70.1540714,91.1015621 C70.1669286,91.1029921 70.1933571,91.104422 70.2362143,91.1058519 C70.5355,91.1151463 71.6269286,91.1001322 74.2962143,90.5896556 C79.7419286,89.5486836 83.3933571,88.503422 90.6312143,85.0630668 C94.0847857,83.4208192 100.714786,78.7628986 103.521929,75.8330201 C104.511929,74.7991977 105.268357,73.9476883 105.746929,73.2348799 C105.9055,72.9982304 106.3605,72.4126836 106.612643,71.7399126 C106.621214,71.7148893 106.641929,71.656978 106.643357,71.6534033 C107.161929,71.7113145 107.2455,72.1231276 107.324071,72.6765014 C107.4605,73.6424033 107.584071,75.0451416 109.986214,75.8022771 C113.004786,76.7538799 114.1855,77.1270855 116.493357,78.0272117 C118.501929,78.8100855 120.101929,79.5707958 120.107643,80.3408005 C120.121214,80.3550995 120.317643,80.4594827 120.317643,80.4594827 C120.317643,80.4594827 121.738357,79.1668472 121.463357,78.8579874 C121.559071,78.6327771 119.3305,76.5086509 117.886214,74.6397631" id="Fill-16" fill="#FCB61A"></path>
                <path d="M76.9455714,50.0828341 C77.1777143,49.4994322 77.6562857,49.1419556 78.2834286,48.8845724 C78.3248571,48.8674136 78.3434286,48.8116472 78.2934286,48.8130771 C77.5705714,48.8280911 75.9434286,48.9274696 75.5084286,48.951778 C75.0541429,48.9782313 74.237,49.0668855 74.237,49.0668855 C74.237,49.0668855 73.8027143,51.0694696 72.9584286,53.7448248 C71.6577143,57.8679603 71.0462857,58.4291986 71.3605714,58.8781893 C71.4777143,59.0469182 71.577,59.2092126 71.6648571,59.3622126 C70.1762857,64.3154089 68.7198571,67.97025 68.7198571,67.97025 L69.7741429,68.0739182 L73.3877143,59.6689276 C75.7241429,53.2322033 76.1462857,52.0975724 76.9455714,50.0828341" id="Fill-18" fill="#CC8B2A"></path>
                <path d="M117.886214,74.6397631 C115.239786,71.2151369 113.656929,68.9973519 114.0305,66.4313846 C113.844786,66.4742818 113.156214,66.5121743 113.002643,66.5143192 C111.762643,66.6036883 110.124071,66.2483565 109.272643,65.8408332 C107.4005,64.9457117 106.266929,63.9290481 104.292643,61.635478 C103.787643,61.0485014 103.1105,60.3335481 102.396929,59.6343238 C102.1755,59.417693 101.942643,59.188193 101.621214,58.9372444 C101.249786,58.6469734 101.281214,58.8300014 101.302643,58.8736136 C102.034071,60.2727771 102.554071,61.7927678 102.814071,63.8075061 C103.788357,71.3609874 97.6240714,79.0846276 90.0733571,80.0912818 C86.0105,80.6317864 82.7347857,79.9747444 79.7212143,77.8470435 C79.7005,77.8320294 79.6547857,77.8105808 79.6405,77.8491883 C79.6262143,77.8870808 77.7847857,83.0826463 77.7847857,83.0826463 C76.5390714,78.5476977 76.1940714,72.8073379 79.0062143,65.5191042 C78.5247857,65.5648612 76.8819286,65.675679 76.5440714,65.6999874 C76.3326429,67.0147864 75.9340714,69.3805668 75.2147857,73.3435528 C73.5512143,82.5171182 72.1647857,87.3845201 71.5390714,89.3399173 C72.1076429,89.2512631 72.9040714,89.1525995 73.9826429,88.945978 C79.3883571,87.9128706 82.7969286,86.9355294 89.9147857,83.5509407 C93.2562143,81.9630294 99.6640714,77.4423799 102.314786,74.6755107 C104.611929,72.2782724 105.003357,71.3159453 105.553357,70.1505715 C106.274071,68.6255762 106.478357,67.2607304 106.519786,66.9339967 C106.607643,66.9311369 107.964071,66.8482023 108.4855,69.5299921 C109.184786,73.1340715 108.799071,73.7646603 111.068357,74.3795201 C115.154786,75.4862678 119.987643,77.2000107 121.463357,78.8579874 C121.559071,78.6327771 119.3305,76.5086509 117.886214,74.6397631" id="Fill-20" fill="#CC8B2A"></path>
                <path d="M85.0517143,44.6508336 C84.6202857,44.2004131 84.6138571,43.6413196 84.9038571,43.0314645 C84.9145714,43.0093009 84.9267143,42.9864224 84.9381429,42.9635439 C85.1531429,42.5402916 85.506,42.0948757 85.9595714,41.6451701 C87.7724286,39.8484925 93.8667143,37.2768056 101.454571,40.3732682 C112.345286,44.8174178 110.630286,58.522357 105.616,57.3941607 C105.653143,57.4320533 105.698143,57.4778103 105.735286,57.5157028 C107.395286,59.2137168 108.502429,60.3347636 109.506714,61.0675907 C112.492429,62.9557822 116.000286,60.3361935 115.377429,54.6065579 C115.011,51.2319785 114.028857,49.0742495 113.753143,48.4007636 C113.730286,48.3442822 113.709571,48.2956654 113.689571,48.2484785 C113.655286,48.1698336 113.621714,48.0904738 113.588143,48.0139738 C113.575286,47.9860907 113.566714,47.9667869 113.566714,47.9667869 L113.566714,47.9667869 C113.143857,47.0123243 112.041714,45.1977729 110.255286,43.1715953 C108.311,40.9659645 106.567429,39.7055019 104.754571,38.6387916 C104.534571,38.5086701 104.132429,38.3049084 103.923857,38.204815 C103.945286,38.2162542 103.949571,38.2770252 103.896714,38.3070533 C103.891,38.3099131 103.097429,38.6080486 102.995286,38.5680112 C102.966,38.5572869 102.778857,38.4857916 102.608857,38.4214458 C102.468143,38.3678243 102.340286,38.3199224 102.319571,38.3120579 C99.7817143,37.3668897 97.3138571,36.9078897 94.7738571,36.9078897 C89.0288571,36.9078897 83.566,39.3294364 79.7602857,43.5519505 L79.2367143,43.5519505 L78.1152857,42.0333897 C78.1152857,42.0326748 78.1152857,42.0305299 78.1152857,42.029815 L78.1131429,42.0305299 C78.1131429,42.0305299 77.1102857,42.7840907 76.4317143,43.9551841 C78.5788571,43.8028991 81.496,43.8593804 85.0517143,44.6508336" id="Fill-22" fill="#CC8B2A"></path>
                <path d="M83.7065,56.5282093 C88.5607857,56.8227701 92.6222143,59.6804383 94.0443571,60.8279383 L96.0593571,60.8965738 C96.0593571,60.8965738 95.1486429,59.9685645 94.3236429,59.3465551 C93.0936429,58.4199757 89.9286429,55.7310364 83.9529286,55.3928636 C79.5450714,55.1826673 76.8293571,56.4502794 75.5557857,57.7808075 C75.1093571,58.247672 74.9622143,58.7631533 75.0850714,59.1899804 C75.1643571,59.4659523 75.3965,59.655415 75.5929286,59.6940224 C75.7893571,59.7312 76.5250714,59.8420178 76.5336429,59.8362981 C76.1200714,59.5095645 75.6972143,59.0212514 76.1643571,58.6130131 C77.1422143,57.7557841 79.7907857,56.2901299 83.7065,56.5282093" id="Fill-24" fill="#CC8B2A"></path>
                <path d="M142.384,108.409794 C142.056143,107.977248 141.381143,107.766336 140.319,107.766336 L110.176857,107.763477 C107.943286,107.762762 106.520429,108.924561 105.791857,111.308215 L97.1761429,139.535285 C96.8168571,140.713528 97.0125714,141.509986 97.3632857,141.973276 C97.694,142.409397 98.2175714,142.857673 99.3311429,142.857673 L129.401143,142.860533 C131.776143,142.860533 132.748286,142.44157 133.468286,140.084369 L136.489,130.19871 L127.530429,130.197995 L126.419,133.834248 L107.852571,133.832103 L113.077571,116.733995 L131.643286,116.73614 L130.635429,120.036364 L139.592571,120.037079 L142.363286,110.953598 C142.739,109.720304 142.746857,108.888098 142.384,108.409794" id="Fill-26" fill="#FEFEFE"></path>
                <path d="M46.7394286,107.756971 L38.7722857,133.825597 L20.2058571,133.823452 L28.1758571,107.754826 L19.2415714,107.754111 L9.52657143,139.494461 C9.12728571,140.800681 9.29585714,141.5857 9.63085714,142.028256 C10.0208571,142.541592 10.6458571,142.849022 11.3044286,142.849022 L41.8494286,142.851882 C44.208,142.851882 45.2001429,142.111905 45.908,139.794742 L55.6972857,107.757686 L46.7394286,107.756971 Z" id="Fill-28" fill="#FEFEFE"></path>
                <path d="M88.3891429,114.505057 L83.6548571,130.374875 L63.0627143,107.750179 L52.3398571,142.852239 L61.2741429,142.853669 L66.1941429,127.221931 L80.9262857,142.855099 L88.7991429,142.855814 L99.4112857,108.436534 C94.2691429,110.807319 90.6627143,112.974342 88.3891429,114.505057" id="Fill-30" fill="#FEFEFE"></path>
            </g>
        </g>
    </g>
</svg>