<?xml version="1.0" encoding="UTF-8"?>
<svg width="200px" height="200px" viewBox="0 0 200 200" version="1.1" xmlns="http://www.w3.org/2000/svg" xmlns:xlink="http://www.w3.org/1999/xlink">
    <!-- Generator: Sketch 54.1 (76490) - https://sketchapp.com -->
    <title>unc-wilmington</title>
    <desc>Created with Sketch.</desc>
    <g id="unc-wilmington" stroke="none" stroke-width="1" fill="none" fill-rule="evenodd">
        <g id="unc-wilmington_BGL">
            <g id="unc-wilmington" transform="translate(0.000000, 3.000000)">
                <g id="g10" transform="translate(99.912965, 96.807660) scale(-1, 1) rotate(-180.000000) translate(-99.912965, -96.807660) translate(0.000000, 0.375982)" fill-rule="nonzero">
                    <g id="g12">
                        <path d="M150.372842,142.962573 C150.372842,142.962573 145.507394,163.68668 123.594079,177.797036 C123.594079,177.797036 122.596342,173.726018 120.907221,167.574582 C115.828021,176.243686 108.819492,185.673799 99.7764988,192.194251 C90.743949,185.673799 83.7284574,176.243686 78.6541321,167.574582 C76.9650111,173.726018 75.9714515,177.797036 75.9714515,177.797036 C54.0515913,163.68668 49.1981885,142.962573 49.1981885,142.962573 L0,142.962573 L99.7764988,0 L199.556479,142.962573 L150.372842,142.962573" id="path14" fill="#22635C"></path>
                        <path d="M144.165706,133.347951 C140.426106,143.180501 135.141511,153.61601 127.612181,162.419491 C126.288596,157.974583 124.813922,153.357002 123.144993,148.604348 C119.353174,156.814617 112.193557,168.884939 99.7883352,179.029412 C87.3879874,168.884939 80.2346368,156.814617 76.4365516,148.604348 C74.7745847,153.357002 73.2964298,157.974583 71.9693629,162.419491 C64.4405206,153.61601 59.1552292,143.180501 55.4163955,133.347951 L26.7221577,133.347951 L99.7764988,15.4416706 L172.568142,133.347951 L144.165706,133.347951" id="path16" fill="#1F2954"></path>
                        <path d="M129.415488,136.353695 C127.236898,132.557699 120.123931,120.524279 110.530894,108.09817 L108.84595,105.914706 L109.037421,108.666316 C109.047865,108.82924 110.206438,125.01514 114.139597,143.475018 C113.104958,145.017925 107.848213,152.593208 99.7883352,159.734722 C91.730546,152.593208 86.4696236,145.018621 85.4342886,143.475018 C89.3764991,125.014444 90.535768,108.82924 90.5476044,108.666316 L90.7397714,105.915402 L89.0541318,108.09817 C79.4569171,120.524279 72.3425569,132.558395 70.1653594,136.353695 C68.3793194,133.19756 64.0685101,123.524453 67.6996328,108.507569 C67.9767433,108.584854 68.3053073,108.63568 68.6888059,108.63568 C72.1141844,108.63568 78.7738884,104.584854 91.1644886,85.6215818 C91.9658811,89.7336792 94.2015642,98.8595276 99.1352456,105.084767 L99.7883352,105.909832 L100.443514,105.085463 C105.380676,98.8602238 107.615663,89.735768 108.415663,85.6215818 C120.807656,104.58555 127.465271,108.63568 130.890162,108.63568 C131.2738,108.63568 131.602434,108.584854 131.877455,108.507569 C135.508439,123.524453 131.199997,133.19756 129.415488,136.353695" id="path18" fill="#FFFFFF"></path>
                        <path d="M81.4210598,88.0424695 C80.9427308,86.7390753 79.7040885,85.8012163 78.2370738,85.8012163 C76.3502157,85.8012163 74.8275003,87.3308942 74.8275003,89.2135748 C74.8275003,90.6924259 75.7688406,91.9401195 77.0826787,92.414271 C74.9430791,94.3825912 73.1028702,95.7737139 71.5411644,96.7345494 C70.6938189,95.2348105 70.1674482,93.492774 70.1674482,91.6100934 C70.1674482,86.1312424 74.3234098,81.6967778 79.451347,81.6967778 C81.5993017,81.6967778 83.5390754,82.500259 85.1174913,83.7994757 C83.8140971,85.3716254 82.5858987,86.7759769 81.4210598,88.0424695" id="path20" fill="#F9DB05"></path>
                        <path d="M118.131242,88.0424695 C118.610267,86.7390753 119.850998,85.8012163 121.317316,85.8012163 C123.204174,85.8012163 124.726194,87.3308942 124.726194,89.2135748 C124.726194,90.6924259 123.783461,91.9401195 122.469623,92.414271 C124.609919,94.3825912 126.449431,95.7737139 128.011833,96.7345494 C128.860571,95.2348105 129.386942,93.492774 129.386942,91.6100934 C129.386942,86.1312424 125.229588,81.6967778 120.101651,81.6967778 C117.953696,81.6967778 116.013922,82.500259 114.43481,83.7994757 C115.738204,85.3716254 116.968491,86.7759769 118.131242,88.0424695" id="path22" fill="#F9DB05"></path>
                        <path d="M99.7764988,36.2527406 C99.7764988,36.2527406 109.561703,63.7522003 116.440032,65.3383448 C116.440032,65.3383448 116.285463,69.8861601 109.980154,70.7550896 L107.354567,64.6189714 C107.354567,64.6189714 105.029762,74.085986 99.7764988,81.5449936 C94.525324,74.085986 92.1977349,64.6189714 92.1977349,64.6189714 L89.5728437,70.7550896 C83.2682312,69.8861601 83.1129657,65.3383448 83.1129657,65.3383448 C89.992687,63.7522003 99.7764988,36.2527406 99.7764988,36.2527406" id="path24" fill="#F9DB05"></path>
                    </g>
                </g>
            </g>
        </g>
    </g>
</svg>