<?xml version="1.0" encoding="UTF-8"?>
<svg width="200px" height="200px" viewBox="0 0 200 200" version="1.1" xmlns="http://www.w3.org/2000/svg" xmlns:xlink="http://www.w3.org/1999/xlink">
    <!-- Generator: Sketch 54.1 (76490) - https://sketchapp.com -->
    <title>unlv</title>
    <desc>Created with Sketch.</desc>
    <g id="unlv" stroke="none" stroke-width="1" fill="none" fill-rule="evenodd">
        <g id="unlv_BGL">
            <g id="unlv" transform="translate(0.000000, 43.000000)">
                <g id="g10" transform="translate(99.834160, 57.466003) scale(-1, 1) rotate(-180.000000) translate(-99.834160, -57.466003) translate(0.000000, 0.417912)" fill-rule="nonzero">
                    <g id="g12">
                        <path d="M170.778105,57.1825525 C170.368155,59.2309106 167.590709,77.8985055 167.044109,80.4941937 L167.135651,81.0388039 C169.093196,80.6288537 170.869647,79.719401 172.598337,78.8543927 C173.283578,78.2626846 174.283246,78.2155868 174.692533,77.3054707 C174.83051,74.2560512 171.235153,59.0948576 170.778105,57.1825525 Z M112.092203,75.6676598 C111.728687,66.1971459 111.954226,57.911972 111.408952,48.2584399 L111.408952,47.8943935 C109.724707,48.0304466 107.720727,48.1223869 105.85406,48.2584399 C105.44411,49.7626522 105.71741,51.9923702 105.627195,53.2672623 C105.85406,67.7903797 106.083579,80.6752882 106.492203,95.1084553 L106.627526,95.2444421 C108.403977,94.8338285 110.454392,95.1084553 112.181092,94.5611917 C112.728355,88.0517391 112.000661,82.1313412 112.092203,75.6676598 L112.092203,75.6676598 Z M89.5999978,91.2842432 C89.6464323,88.688555 89.4182399,86.2752881 89.3724687,83.7718055 C89.0533974,84.4537292 88.5996661,85.2736297 88.5087872,86.1393013 C87.3698154,89.143613 86.2308436,92.0577091 85.3207276,95.1084553 C86.5499149,95.5170789 88.0981736,95.2444421 89.464011,95.3359843 C90.009948,93.7877257 89.3724687,92.8311751 89.5999978,91.2842432 L89.5999978,91.2842432 Z M74.0749567,46.7104466 C74.394028,53.2672623 74.2580413,58.9588708 74.6222204,65.3777761 C75.2132651,64.8310432 79.5840776,51.9457367 80.9512418,47.5753885 C79.491872,46.939236 74.4391358,46.1645096 74.0749567,46.7104466 Z M57.1400981,48.8039125 C57.1400981,48.8039125 56.910778,44.2055047 56.6829837,42.0224202 C56.1828842,41.202586 55.0898825,41.3373124 54.4073618,40.7011598 C52.9951562,40.3371134 51.6744266,39.6981085 50.355488,39.1516408 C50.8108113,41.2935313 51.0380087,61.3261676 51.5394349,70.750247 C51.6295841,76.8059682 51.8118063,83.3611919 52.0849075,89.9628502 C52.6316405,90.783414 53.9972126,90.6454372 54.9538958,90.9645085 C55.8644099,91.2842432 56.8195674,91.4202299 57.7762506,91.6013244 L58.0039786,91.2842432 C57.548987,77.5781075 57.5938294,63.2827845 57.1400981,48.8039125 L57.1400981,48.8039125 Z M33.7359859,50.5361181 C33.6015249,47.9864001 33.4631501,45.2995677 33.327097,42.4305794 C33.0081584,40.4277934 32.6907455,37.5608614 31.8703143,35.3280257 C30.9598002,32.232835 28.8204968,29.2285897 26.0893526,27.2709114 C25.359933,27.1773791 24.7680922,27.2709114 24.585671,28.043117 C24.7217241,34.3734651 24.6774123,39.9264335 24.9958866,46.620828 C25.0870972,57.8656039 25.6784073,68.2454378 25.7698169,79.400993 C26.0427191,80.3111091 25.7253062,81.7664988 26.9545599,81.9953545 C29.3198003,83.2245419 31.8257372,83.9077923 34.2840456,84.8630161 L34.5118399,83.9542268 C34.4200986,72.4802635 33.8290539,62.4173119 33.7359859,50.5361181 Z M198.961852,87.0494174 L192.631504,90.5094505 C189.536977,91.9203957 183.37512,95.1694835 181.887226,95.9721369 C179.473959,96.7907107 177.515087,98.4305116 174.922715,99.0693176 C172.598337,100.297842 170.049084,101.025536 167.590709,101.982087 C165.633827,102.938638 163.312102,103.121059 161.353893,104.167162 C154.660029,105.989384 148.013263,107.991374 141.276945,109.630511 C140.867658,109.58474 140.729681,110.268654 140.366829,109.767825 C140.090875,103.985404 140.090875,96.7462662 139.954889,90.6454372 C139.954889,90.6454372 143.537642,89.477278 144.734325,89.0971785 C146.193031,88.6427839 146.329681,86.8669962 146.511439,85.7286877 C146.876282,84.0888868 147.058039,82.4510759 147.605966,80.9028172 C148.242119,75.6676598 149.379764,69.8401309 150.01658,64.6488873 C150.199665,63.7383069 150.564507,62.6451062 150.109449,61.7812257 C148.514756,62.0540615 147.239797,62.9641112 145.736646,63.4208939 C144.236812,63.9209934 142.595685,64.6037795 141.276945,64.9691526 C140.775453,58.5934977 141.45804,51.4443105 140.184408,45.2995677 C139.637144,44.0259359 139.910444,42.4764168 139.09187,41.3373124 C136.678604,41.1103141 134.855718,42.5215246 132.533993,43.1151565 C131.988056,43.296251 131.305469,43.1589376 130.894192,43.6603638 C130.760196,60.5058028 131.488554,75.1661673 131.531008,91.4202299 L131.759201,92.3754537 C134.173794,92.1943592 136.541953,91.4653377 138.864341,91.2842432 C139.228521,97.2484221 139.044773,103.802319 139.409615,109.767825 L139.09187,110.404641 C137.58872,110.450412 136.177111,110.677941 134.811937,111.043447 C131.35124,111.133662 129.163513,112.271971 125.613927,112.135321 C121.653065,112.999666 117.556216,112.999666 113.593364,113.593364 L107.402319,113.911108 C99.3432811,114.228853 91.2391354,113.728024 83.2271953,113.911108 L82.908124,113.682916 L82.8165817,109.085238 C82.8616895,107.081921 82.7714739,105.169483 82.4975104,103.302817 C82.3164159,103.256382 82.2719714,103.439467 82.1339946,103.529682 C81.6789366,106.444442 80.0855701,109.038803 79.3114408,111.953563 C79.0832484,112.407957 79.0368139,112.999666 78.7648405,113.45605 C66.9731327,112.36285 56.1383071,111.087228 44.9826191,108.447758 C44.3446755,108.037808 43.3895843,108.311108 42.7961515,107.763845 C34.7390373,105.989384 27.2271303,102.892866 19.6698503,99.9336625 C18.7127027,99.7061335 17.9848088,99.0222197 17.028391,98.8417886 C12.2473629,97.0208931 7.83091191,94.1976759 3.05218566,92.3754537 C2.27793029,91.6928667 1.13806299,91.6928667 0.547004298,90.9645085 C0.364064999,83.8626845 0,75.4401308 0,68.0179087 C1.9138706,69.110446 3.87101151,70.0663332 5.78254712,71.2968473 L6.41946253,71.2968473 C6.41946253,66.5160846 6.41946253,61.1432157 6.10074943,56.2251396 C6.10074943,50.2161181 5.73616569,42.977843 5.55529671,37.1939626 C5.19045426,29.3630507 4.78181746,20.8525368 5.87298161,13.4753562 C6.51119718,8.55854042 8.46965153,3.14158533 13.2957874,1.04555221 C15.5718736,-0.408634152 18.7598669,0.0888782731 21.3077938,0.591832821 C29.0477605,3.41365829 35.51383,9.5602651 40.748324,16.1168155 C43.7982079,20.5778436 46.714095,25.0839795 47.9412923,30.3218566 C48.4882907,31.2769478 48.5795013,32.7355216 49.1710767,33.8269312 C49.581027,29.4110109 48.8536638,23.582089 48.9432824,19.1668984 C52.4038461,20.4431172 55.7731993,21.8977772 59.3249736,22.9905135 C66.2898823,25.6784073 73.6663332,27.3631834 81.040794,29.0003309 C81.040794,34.6918731 81.4965154,39.5182743 81.4965154,45.5270304 L81.7240444,45.8460353 L81.9529001,45.6179756 C83.4547243,40.8372129 85.4122698,36.2831832 86.9605285,31.5039461 C87.3698154,30.8662679 86.9147574,29.5004304 88.1439447,29.5475946 C93.5170789,30.2738964 99.0706443,29.5475946 104.671971,29.7750573 C106.038472,29.7274288 107.357211,29.5004304 108.585735,29.1363177 C112.547261,28.6362182 116.235486,27.4979098 120.058372,26.7244438 C120.970478,26.2228186 122.153894,26.4052398 123.019566,25.7227191 C127.163513,24.9491868 130.760196,22.944676 134.811937,22.0364174 C140.956547,19.392371 147.103147,16.8001322 153.06799,13.7020892 C153.931671,13.7020892 154.478271,12.8842451 155.345933,12.837877 C155.298835,14.93393 155.389714,17.0719067 155.663014,19.3026861 C156.118072,17.482653 156.206961,15.6146596 156.437144,13.61393 C157.030178,9.51442762 157.393694,4.82587053 158.303147,0.591832821 C164.494855,0.543895177 169.914424,0.272076942 176.013263,0.363546923 C176.196347,1.0932338 176.514755,1.77316745 176.559863,2.54664007 C176.878934,3.73211931 181.067989,20.0777441 181.249747,21.4873626 C182.023213,24.5371801 191.403644,67.0175771 192.175783,67.5621874 C194.453726,66.560529 196.410609,64.8310432 198.731007,63.9663666 C199.097176,71.2510762 199.006297,79.719401 198.961852,87.0494174 L198.961852,87.0494174 Z" id="path14" fill="#231F20"></path>
                        <path d="M107.812933,109.85804 L108.040462,109.540296 L107.948256,101.117079 C105.945603,101.025536 103.350578,101.572137 102.029848,99.7963491 C100.62023,93.5150889 101.438803,87.5044754 101.076614,80.3555535 C100.756216,67.0175771 100.300495,49.8066986 100.163845,35.4654054 L99.845437,35.2378764 C97.2497488,35.5563507 93.6079579,35.0546592 90.7840773,35.2378764 C84.9565485,51.6736305 78.811275,67.972801 73.2112751,84.4995004 L72.9830828,84.7270294 C72.1631823,87.5044754 71.1615239,90.2819215 70.0232155,92.8311751 C69.5681575,85.6371455 69.8872288,79.400993 69.4766152,72.6162503 C68.9771127,68.3814245 69.7041442,64.6488873 69.1575439,60.8242771 C69.2490862,58.0480251 68.2467645,44.1617236 70.1147578,41.5643107 C72.2096168,40.8835811 73.9834144,42.0224202 76.1240445,42.2494185 L76.3515735,41.7944268 C76.2600313,39.0169144 76.0325022,36.0577105 76.1240445,33.5077272 C75.5323364,32.9625199 74.6222204,33.1423541 73.93897,32.8252065 C67.2006617,31.0945266 60.4628177,29.0003309 54.1796338,26.4974454 C53.6779423,27.4533326 54.1796338,29.1363177 54.1796338,30.4112099 C54.0884232,32.1426858 54.3156869,33.872039 54.4073618,35.7830837 C56.5933651,37.1939626 59.5973451,37.1939626 61.1899156,39.6079592 C62.8293185,45.9820884 61.6457033,52.2644763 62.1467978,58.7310765 C62.2836469,72.07164 62.783481,82.7237127 62.6021212,95.5635134 C62.3279586,96.0185714 62.2382737,96.5200639 61.9193351,96.9737953 C60.1435474,98.2029826 57.7762506,96.9737953 55.817511,96.7462662 L55.5902474,97.2928666 L55.817511,106.126034 C57.2297166,106.76285 58.8694513,106.716415 60.4156535,107.03615 C65.3334644,107.855387 69.9781077,108.401324 74.9406283,109.085238 C75.5323364,106.671971 76.7615238,104.486233 77.2165818,101.982087 C82.1339946,88.5512416 93.2895499,57.1825525 93.2895499,57.1825525 C93.7890524,58.6398659 94.2898816,87.581424 93.8348235,99.4786045 C92.4689861,101.8461 89.464011,100.890876 87.0514074,101.117079 C86.9147574,104.076946 87.1429497,106.854392 87.0514074,109.767825 C93.5615234,110.450412 100.62023,109.813596 107.812933,109.85804" id="path16" fill="#E51636"></path>
                        <path d="M123.019566,108.539301 C126.434491,107.991374 130.485569,107.4461 134.036481,106.8995 C134.036481,103.985404 134.12736,100.708455 133.944939,97.7479246 C131.623877,97.8394669 128.435818,99.6152546 127.071307,97.0653375 C125.887227,88.142618 126.569814,79.719401 126.068322,70.1127677 C125.932999,59.9603302 125.432833,50.624211 125.613927,40.4729011 C130.894192,39.4713755 135.629184,36.1937636 141.276945,36.9659692 C145.146928,39.2451731 144.600991,44.0710437 145.508454,47.8943935 C145.692202,51.2642773 146.057708,54.815521 146.057708,58.4121378 C147.694855,57.4569803 149.791041,57.2737631 151.20265,55.9996669 C151.109781,50.170745 150.971804,44.616251 150.883578,38.97048 C150.608288,32.8689876 150.971804,26.6786063 150.564507,20.94189 C148.833164,21.3976777 144.872302,23.4919397 144.55323,23.4460359 C133.399665,28.453797 121.700826,32.1864669 109.450744,34.6017238 L109.450744,43.4320387 C111.227195,43.522984 114.414591,42.1572129 115.779765,44.2055047 C116.918073,51.7177433 116.372136,59.6395342 116.691208,67.7903797 C117.054723,77.7160843 117.190047,87.0029829 117.101158,96.884243 C117.010279,98.0669959 116.598339,99.341291 115.46202,99.9336625 C114.051075,100.708455 112.275951,100.662021 110.543944,100.798671 C110.63615,103.758538 110.36086,106.671971 110.771473,109.630511 C114.914757,109.45008 118.740959,108.76683 123.019566,108.539301" id="path18" fill="#E51636"></path>
                        <path d="M53.1773121,105.71542 C53.3605293,104.804641 53.3605293,104.122054 53.1773121,103.211274 L53.0866322,96.1101137 C52.040065,95.8361502 50.9932326,95.5635134 50.0360186,95.2444421 C48.4431829,94.6978417 46.8501481,93.4235466 46.7584068,91.6013244 C46.1207285,80.174459 45.9393023,70.8411259 45.8929342,59.7328675 C45.6193023,57.1361843 45.7568811,52.8112093 45.7568811,52.8112093 C45.710513,48.2131331 45.5293521,43.751309 44.9826191,39.6079592 C44.3910437,37.7871301 44.4356208,35.3751898 43.7069972,33.5077272 C40.7949575,21.8096844 32.4613591,11.5627858 21.9454721,5.64443104 C19.5781753,4.91422873 17.483449,4.18713754 15.2993031,5.41822209 C10.7454724,9.24106113 11.0193695,15.2502815 10.4711108,20.8045766 C10.6988389,39.3796342 10.9276283,56.8187714 11.1093198,75.6676598 C11.064212,76.5764492 10.9732667,77.9436133 9.92457687,78.3986713 C7.87807609,78.490877 6.51119718,77.0334972 4.78181746,76.3038124 C4.69008943,80.0835801 4.91785726,83.6802632 5.00906787,87.7784389 C12.4297841,91.6928667 20.3060028,95.016913 28.0457041,98.2945249 L28.2737638,97.9754536 C28.3651734,94.2892182 28.1377107,91.2378087 28.0457041,87.9144257 C25.4959861,86.5479249 21.8078933,85.8646745 20.9439464,82.4510759 C20.1700161,74.5280247 20.2163842,66.4709768 20.0788055,57.7290865 C19.9870642,48.4864996 19.3960194,38.2884899 19.7595352,28.6818567 C19.8510111,25.8123377 20.1249083,21.9423543 23.2652067,20.8045766 C24.1762515,20.5778436 24.7217241,21.2152565 25.5423543,21.1243112 C40.0650073,27.2709114 38.5634485,44.1148248 38.6546591,57.6378758 C38.6997005,68.2454378 39.4736972,78.5353214 39.1081251,89.3253709 C38.7907121,89.8268634 38.8360189,90.5996661 38.1081251,90.8729662 C36.1497172,91.5562166 34.2376774,90.1459347 32.326898,89.7804289 C32.644311,93.0600308 32.326898,96.5200639 32.644311,99.7963491 C39.4293854,102.301158 46.2119391,103.712104 53.1773121,105.71542" id="path20" fill="#E51636"></path>
                        <path d="M168.457707,96.9737953 L168.68391,96.5200639 C168.772798,92.9678252 168.547259,89.8268634 168.457707,86.5028171 C166.543279,86.9127673 164.675949,88.5512416 162.447094,88.233497 C161.035485,86.9572118 161.536978,84.6819216 161.582086,83.0885551 C162.037144,79.5834143 162.447094,76.2593679 162.900825,72.6162503 C163.312102,72.2076267 162.947923,71.5243763 163.219896,71.0693183 C164.632168,61.4158525 166.090211,51.7656372 167.363843,42.4305794 C168.047757,38.2884899 168.68391,34.1451401 169.322052,30.0020556 C169.958868,30.8206294 169.914424,31.9582082 170.232168,32.9625199 C173.465999,46.6646091 176.83449,60.36902 179.701488,74.2560512 C179.884573,76.6228837 180.566496,79.400993 178.516745,81.1303462 C176.926032,82.7237127 174.874954,83.2696497 173.055385,84.4099481 C173.09983,87.5489199 172.962516,91.6013244 173.147591,94.8809263 C173.919067,95.016913 174.646762,94.3336626 175.332002,94.0152547 C178.516745,92.9213907 181.343279,91.0096163 184.43648,89.7804289 C187.715418,88.0053046 191.038801,86.2752881 194.270642,84.4099481 C194.498834,80.3111091 194.270642,76.3953546 194.043113,72.4802635 C192.72371,73.4368141 191.265667,74.3018224 189.536977,73.9363166 C186.758868,70.3860679 186.941952,65.3777761 185.618569,61.1432157 C181.38706,43.3869973 177.607956,25.8123377 172.829183,8.24079581 C172.508785,7.28490861 172.463014,5.96496834 171.871969,5.27958859 C168.772798,5.55426188 165.360527,5.18993685 162.354225,5.64443104 C162.037144,6.3277345 162.037144,7.60132651 161.900493,8.37479249 C159.760527,29.4110109 157.666331,50.8548578 154.02255,71.7519053 C152.887558,78.5817559 152.659366,85.8195667 150.01658,92.0577091 C148.833164,93.8321701 146.920063,94.3336626 145.099831,94.7887207 C145.008952,98.0669959 145.235154,101.481921 145.280925,104.396017 C153.022882,102.256714 160.854391,99.6603624 168.457707,96.9737953" id="path22" fill="#E51636"></path>
                        <path d="M181.949581,4.18713754 C181.826198,4.2348125 181.649747,4.25942941 181.422881,4.25942941 L181.201986,4.25942941 L181.201986,3.24834486 L181.554888,3.24834486 C181.767823,3.24834486 181.932997,3.29083906 182.051737,3.37582744 C182.170476,3.46133988 182.230178,3.59996674 182.230178,3.78964501 C182.230178,3.98087552 182.136646,4.1135455 181.949581,4.18713754 Z M180.287889,1.39096514 L180.287889,4.87302807 C180.503478,4.87302807 180.827856,4.87225195 181.257707,4.87044101 C181.688884,4.86888213 181.92769,4.86707119 181.976115,4.86447749 C182.252068,4.84453056 182.480924,4.78466986 182.662682,4.68516738 C182.97313,4.51414914 183.12769,4.2374062 183.12769,3.85416906 C183.12769,3.56084237 183.045435,3.34914088 182.881587,3.21854055 C182.71774,3.08794685 182.516745,3.01020888 182.277276,2.98429843 C182.496845,2.93869313 182.662682,2.87235814 182.774125,2.78477605 C182.9791,2.62023211 183.081919,2.36033162 183.081919,2.00533992 L183.081919,1.69413594 C183.081919,1.65915087 183.084573,1.62598338 183.088553,1.59126364 C183.093859,1.55757873 183.101156,1.52311107 183.11376,1.48916746 L183.144937,1.39096514 L182.272632,1.39096514 C182.244108,1.50186398 182.225534,1.66226198 182.215584,1.87318735 C182.206961,2.0835953 182.187723,2.22559198 182.159199,2.29918402 C182.114092,2.42200326 182.028519,2.50751569 181.904473,2.55519065 C181.836148,2.58369479 181.732665,2.60235483 181.593362,2.61090541 L181.393694,2.62411934 L181.201986,2.62411934 L181.201986,1.39096514 L180.287889,1.39096514 Z M179.816248,4.95776439 C179.316082,4.44652062 179.066662,3.84017237 179.066662,3.13821551 C179.066662,2.41138302 179.320725,1.79363843 179.829515,1.28498173 C180.334324,0.776066316 180.945269,0.522647416 181.661024,0.522647416 C182.374125,0.522647416 182.98308,0.777366481 183.487889,1.28886896 C183.994025,1.80374125 184.246762,2.4199336 184.246762,3.13821551 C184.246762,3.83758531 183.995352,4.44366821 183.492533,4.95776439 C182.984407,5.48066985 182.374125,5.74186387 181.661024,5.74186387 C180.939962,5.74186387 180.325037,5.48066985 179.816248,4.95776439 Z M183.861355,0.886195666 C183.25041,0.295138964 182.517408,0 181.661687,0 C180.778105,0 180.033826,0.302394022 179.429515,0.908218883 C178.823876,1.51249084 178.521389,2.25668319 178.521389,3.14106791 C178.521389,4.05913091 178.847757,4.82120718 179.502483,5.42884232 C180.114755,5.99813584 180.835816,6.28135308 181.661687,6.28135308 C182.528685,6.28135308 183.268984,5.97481245 183.882582,5.3612138 C184.496844,4.74761514 184.803312,4.00808614 184.803312,3.14106791 C184.803312,2.24813261 184.489548,1.49642451 183.861355,0.886195666 L183.861355,0.886195666 Z" id="path24" fill="#100F0D"></path>
                    </g>
                </g>
            </g>
        </g>
    </g>
</svg>