<?xml version="1.0" encoding="UTF-8"?>
<svg width="200px" height="200px" viewBox="0 0 200 200" version="1.1" xmlns="http://www.w3.org/2000/svg" xmlns:xlink="http://www.w3.org/1999/xlink">
    <!-- Generator: Sketch 54.1 (76490) - https://sketchapp.com -->
    <title>new-orleans</title>
    <desc>Created with Sketch.</desc>
    <g id="new-orleans" stroke="none" stroke-width="1" fill="none" fill-rule="evenodd">
        <g id="new-orleans_BGL">
            <g id="new-orleans">
                <g fill-rule="nonzero" id="Shape">
                    <path d="M99.6881092,0 L100.409357,0 L100.506823,0.116959064 C101.442495,0.116959064 102.378168,0.0779727096 103.31384,0.155945419 C104.385965,0.233918129 105.438596,0.136452242 106.510721,0.311890838 C110.175439,0.584795322 113.781676,1.28654971 117.270955,2.43664717 C122.241715,4.17153996 126.783626,6.68615984 131.111111,9.64912281 C137.621832,14.1130604 143.684211,19.4736842 149.415205,24.8732943 C155.750487,30.8382066 163.216374,35.82846 171.306043,39.0448343 C178.050682,41.7933723 185.321637,43.3333333 192.592593,43.625731 C193.976608,43.625731 195.341131,43.6842105 196.68616,43.4697856 C197.05653,43.4307992 197.641326,43.3528265 197.738791,43.8401559 C197.91423,47.4463938 197.309942,50.9356725 196.335283,54.4054581 C194.580897,60.4678363 191.578947,66.1208577 187.504873,70.9161793 C186.042885,72.6705653 184.385965,74.288499 182.729045,75.8674464 C180.623782,77.7777778 178.362573,79.454191 176.023392,81.0526316 C175.82846,81.1695906 175.789474,81.3060429 175.847953,81.4424951 C176.159844,81.6764133 176.725146,81.6569201 177.11501,81.7738791 C181.578947,82.6900585 185.925926,84.619883 189.415205,87.5633528 C190.42885,88.4210526 191.345029,89.3957115 192.280702,90.3703704 C195.39961,93.9376218 197.446394,98.3820663 198.362573,103.040936 C198.732943,104.678363 198.869396,106.335283 199.044834,107.992203 C199.044834,110 199.161793,112.046784 198.888889,114.035088 C198.148148,121.695906 195.107212,129.005848 191.052632,135.477583 C189.727096,137.699805 188.128655,139.824561 186.569201,141.910331 C186.393762,142.124756 186.25731,142.397661 185.964912,142.495127 C185.945419,141.384016 186.003899,140.272904 185.945419,139.161793 C185.653021,136.549708 184.580897,133.957115 182.670565,132.124756 C179.922027,129.298246 175.82846,127.992203 171.949318,127.97271 C171.169591,127.777778 170.545809,127.894737 169.766082,128.011696 C168.635478,127.953216 167.563353,128.148148 166.432749,128.304094 C163.352827,128.830409 160.37037,129.863548 157.582846,131.306043 C155.087719,132.534113 152.904483,134.210526 150.935673,136.159844 C149.20078,138.070175 147.699805,140.077973 146.744639,142.51462 C146.081871,144.230019 145.536062,146.120858 145.555556,147.97271 C145.536062,148.323587 145.419103,148.71345 145.477583,149.064327 C145.594542,149.883041 145.536062,150.662768 145.769981,151.461988 C146.159844,153.196881 146.998051,154.756335 148.167641,156.081871 C150.233918,158.187135 153.021442,159.337232 155.925926,159.707602 C155.925926,160.136452 155.321637,160.448343 155.02924,160.701754 C149.844055,164.853801 143.567251,167.251462 137.017544,168.148148 C136.471735,168.128655 135.984405,168.265107 135.45809,168.34308 C133.567251,168.362573 131.695906,168.440546 129.805068,168.34308 C129.415205,168.362573 128.830409,168.245614 128.499025,168.460039 C127.563353,170.545809 126.725146,172.729045 125.594542,174.736842 C120.214425,184.951267 111.812865,193.489279 101.598441,198.888889 C100.935673,199.259259 100.214425,199.493177 99.668616,199.980507 L99.4152047,199.980507 C99.2202729,199.746589 98.9668616,199.62963 98.7134503,199.493177 C87.9922027,194.093567 79.0448343,185.243665 73.4892788,174.619883 C72.4366472,172.670565 71.5789474,170.643275 70.7407407,168.596491 C70.6237817,168.187135 69.9025341,168.362573 69.5711501,168.323587 C67.6218324,168.440546 65.6725146,168.34308 63.7231969,168.323587 C63.1968811,168.265107 62.6900585,168.128655 62.1442495,168.128655 C58.6354776,167.680312 55.2046784,166.744639 51.9493177,165.360624 C48.9668616,164.132554 46.1988304,162.378168 43.7037037,160.350877 C43.4697856,160.175439 43.2748538,159.94152 43.0994152,159.707602 C45.380117,159.493177 47.7777778,158.615984 49.6101365,157.231969 C51.9103314,155.594542 53.3333333,152.88499 53.5867446,150.097466 C53.6062378,149.181287 53.6062378,148.265107 53.5867446,147.368421 C53.3528265,145.165692 52.7095517,143.021442 51.6959064,141.072125 C49.8635478,137.54386 46.8615984,134.60039 43.5282651,132.475634 C39.4931774,130.038986 34.8927875,128.382066 30.1754386,128.011696 C29.1617934,128.089669 28.245614,127.777778 27.251462,127.992203 C23.1968811,128.011696 19.1617934,129.376218 16.2962963,132.300195 C14.5419103,134.191033 13.4892788,136.62768 13.2358674,139.161793 C13.1968811,140.272904 13.2748538,141.384016 13.2163743,142.475634 C12.8654971,142.300195 12.6900585,142.007797 12.4561404,141.695906 C11.2475634,140.097466 10.0779727,138.460039 8.9668616,136.803119 C6.17933723,132.495127 3.84015595,127.953216 2.22222222,123.079922 C1.13060429,119.688109 0.428849903,116.081871 0.175438596,112.475634 C0.214424951,110.389864 0.0389863548,108.2846 0.350877193,106.237817 C0.779727096,102.261209 1.89083821,98.2261209 3.8791423,94.7368421 C4.83430799,93.0409357 5.9454191,91.3645224 7.30994152,89.9805068 C7.77777778,89.4736842 8.1871345,88.9278752 8.73294347,88.4990253 C10.0194932,87.3099415 11.4230019,86.1988304 12.9434698,85.3021442 C16.1208577,83.4307992 19.6491228,82.1052632 23.294347,81.5789474 C23.5087719,81.5594542 23.9181287,81.4035088 23.8791423,81.1500975 C23.7231969,80.994152 23.5282651,80.8576998 23.3333333,80.7407407 C20.5653021,78.8693957 17.9727096,76.7836257 15.5750487,74.4834308 C12.6315789,71.5594542 9.92202729,68.2651072 7.87524366,64.6393762 C4.69785575,59.2202729 2.72904483,53.0604288 2.16374269,46.8226121 C2.16374269,45.7894737 2.12475634,44.7758285 2.18323587,43.7426901 C3.0214425,43.625731 3.89863548,43.6452242 4.73684211,43.7621832 C5.88693957,43.8791423 7.01754386,43.8011696 8.14814815,43.6647173 C9.45419103,43.7426901 10.7017544,43.5087719 11.9883041,43.411306 C15.7699805,42.962963 19.4736842,42.1637427 23.1189084,41.0916179 C31.5204678,38.4990253 39.337232,34.2300195 46.1793372,28.6939571 C48.8109162,26.6276803 51.2280702,24.2300195 53.6842105,21.9493177 C55.0877193,20.7602339 56.3937622,19.454191 57.8362573,18.2846004 C61.4424951,15.1461988 65.165692,12.1832359 69.122807,9.49317739 C73.8011696,6.33528265 78.791423,3.62573099 84.2105263,1.98830409 C89.005848,0.584795322 93.8596491,0.0584795322 98.8304094,0.116959064 C99.122807,0.136452242 99.4152047,0.116959064 99.6881092,0 Z" fill="#A2AAAD"></path>
                    <path d="M99.2202729,4.61988304 C102.495127,4.56140351 105.730994,4.83430799 108.966862,5.39961014 C109.902534,5.43859649 110.740741,5.78947368 111.676413,5.92592593 C116.549708,7.11500975 121.306043,9.00584795 125.477583,11.7738791 C127.290448,13.0019493 129.122807,14.2300195 130.896686,15.5360624 C137.153996,20.2534113 142.690058,25.4385965 148.401559,30.7602339 C150.038986,32.202729 151.676413,33.5867446 153.430799,34.8732943 C162.690058,41.7933723 173.723197,46.2183236 185.185185,47.6998051 C187.738791,48.0506823 190.350877,48.0701754 192.94347,48.0311891 C193.079922,48.7134503 192.807018,49.4931774 192.670565,50.1559454 C191.189084,56.2962963 187.875244,62.0467836 183.879142,66.9005848 C182.631579,68.4210526 181.267057,69.8830409 179.883041,71.2865497 C173.138402,77.8947368 164.990253,82.9434698 156.413255,86.8031189 C156.101365,86.9395712 155.789474,87.0175439 155.575049,87.2709552 C156.68616,87.2904483 157.758285,86.9785575 158.869396,86.9590643 C165.302144,86.3547758 171.7154,86.8031189 177.797271,89.0448343 C181.988304,90.662768 185.82846,93.1773879 188.576998,96.7641326 C191.091618,99.9805068 192.495127,103.918129 192.904483,107.953216 C193.060429,110.116959 193.040936,112.339181 192.670565,114.483431 C191.812865,120.019493 189.62963,125.048733 186.725146,129.785575 C186.510721,130.116959 186.335283,130.526316 186.003899,130.760234 C185.614035,129.512671 185.146199,128.34308 184.405458,127.270955 C183.138402,125.360624 181.208577,123.937622 179.122807,123.001949 C176.666667,121.910331 174.015595,121.461988 171.345029,121.539961 C168.362573,121.442495 165.39961,121.910331 162.534113,122.768031 C155.769981,124.775828 149.532164,128.654971 144.834308,133.918129 C141.988304,137.153996 139.785575,140.818713 138.830409,145.048733 C138.109162,148.050682 138.167641,151.267057 139.434698,154.11306 C140.448343,156.530214 142.436647,158.538012 144.795322,159.688109 C145.087719,159.844055 145.360624,159.94152 145.594542,160.175439 C140.42885,162.651072 134.483431,163.664717 128.810916,162.826511 C127.97271,162.670565 127.153996,162.495127 126.315789,162.339181 C125.45809,162.202729 124.697856,161.773879 123.840156,161.65692 C123.469786,162.631579 123.255361,163.664717 122.923977,164.658869 C121.247563,169.766082 118.752437,174.60039 115.536062,178.888889 C111.325536,184.502924 105.964912,189.1423 99.9220273,192.690058 C99.5906433,192.904483 99.3567251,192.729045 99.0448343,192.553606 C94.6003899,189.902534 90.4678363,186.62768 86.9395712,182.826511 C84.17154,179.844055 81.7933723,176.530214 79.8440546,172.962963 C78.0116959,169.473684 76.3937622,165.711501 75.497076,161.871345 C75.3606238,161.461988 74.7953216,161.832359 74.5224172,161.851852 C69.5516569,163.391813 64.1130604,163.547758 59.1033138,162.14425 C57.2124756,161.7154 55.3606238,161.013645 53.6062378,160.175439 C53.8206628,159.922027 54.1130604,159.844055 54.4054581,159.688109 C56.374269,158.71345 58.0506823,157.192982 59.1617934,155.282651 C60.4093567,153.118908 60.9551657,150.643275 60.7992203,148.148148 C60.5653021,144.307992 59.122807,140.506823 56.9785575,137.348928 C54.0935673,133.001949 50.0389864,129.395712 45.5945419,126.725146 C42.1052632,124.639376 38.2846004,123.079922 34.3079922,122.202729 C32.1247563,121.617934 29.7270955,121.539961 27.4658869,121.559454 C23.9766082,121.481481 20.3118908,122.45614 17.4658869,124.522417 C15.3411306,126.062378 13.8596491,128.265107 13.1968811,130.79922 C12.8070175,130.526316 12.5925926,130 12.3196881,129.610136 C9.20077973,124.54191 7.01754386,119.044834 6.2962963,113.099415 C6.19883041,111.461988 6.14035088,109.844055 6.25730994,108.206628 C6.60818713,103.918129 8.1871345,99.6881092 10.9356725,96.374269 C13.7816764,92.8460039 17.8557505,90.331384 22.1052632,88.8304094 C28.3820663,86.6666667 35.3216374,86.3937622 41.8908382,87.1734893 C42.9434698,87.1929825 43.9181287,87.5438596 44.9707602,87.5048733 C44.7368421,87.3684211 44.502924,87.251462 44.2495127,87.1539961 C39.8635478,85.2436647 35.5945419,83.079922 31.5204678,80.5847953 C27.0175439,77.797271 22.6315789,74.5614035 18.8888889,70.7992203 C15.9454191,67.91423 13.3138402,64.6588694 11.2475634,61.0916179 C9.20077973,57.6218324 7.73879142,53.8596491 7.07602339,49.8830409 C6.99805068,49.337232 6.88109162,48.791423 7.01754386,48.245614 C13.4697856,48.3625731 19.9610136,47.0175439 26.1013645,45.0682261 C34.9902534,42.1637427 43.2553606,37.4074074 50.2534113,31.1890838 C52.3001949,29.3567251 54.288499,27.4269006 56.3352827,25.5750487 C60.9356725,21.4035088 65.7699805,17.1539961 70.9161793,13.6452242 C74.6003899,11.1306043 78.5575049,8.94736842 82.8265107,7.60233918 C85.4385965,6.64717349 88.128655,5.90643275 90.877193,5.38011696 C93.6647173,4.97076023 96.3937622,4.60038986 99.2202729,4.61988304 Z" fill="#0A3255"></path>
                    <path d="M100.175439,14.4444444 C102.768031,17.5438596 104.093567,21.5984405 104.678363,25.5360624 C105.048733,27.91423 104.912281,30.1949318 104.873294,32.5730994 C105.360624,32.3781676 105.711501,32.0077973 106.179337,31.7153996 C107.836257,30.7212476 109.746589,30.1169591 111.695906,30.3703704 C113.333333,30.6237817 114.795322,31.4035088 116.023392,32.4951267 C117.641326,33.9961014 118.732943,35.9844055 119.181287,38.1481481 C119.025341,38.4210526 118.810916,38.1481481 118.615984,38.0701754 C115.594542,36.3937622 111.676413,37.251462 109.395712,39.7660819 C109.083821,40.1559454 108.869396,40.1559454 108.382066,40.1559454 C105.45809,40.1364522 102.534113,40.1754386 99.6101365,40.1364522 C99.5906433,39.5516569 99.5711501,38.9668616 99.5711501,38.3820663 C99.5711501,30.4483431 99.5516569,22.3391813 99.5906433,14.4249513 L99.5516569,14.2495127 L99.3762183,14.1325536 C99.7270955,13.8206628 99.9415205,14.2300195 100.175439,14.4444444 Z" fill="#A2AAAD"></path>
                    <path d="M99.3957115,14.1325536 L99.5711501,14.2495127 L99.6101365,14.4249513 C99.5906433,22.3586745 99.6101365,30.4483431 99.5906433,38.3820663 C99.5906433,38.9668616 99.5906433,39.5516569 99.6296296,40.1364522 C96.7641326,40.1754386 93.8986355,40.1364522 91.0526316,40.1559454 C90.7212476,40.1169591 90.2923977,40.2339181 90.0779727,39.9415205 C88.6744639,38.3235867 86.5692008,37.3294347 84.4444444,37.2124756 C82.9434698,37.1539961 81.4814815,37.5633528 80.1949318,38.3235867 C80.1754386,37.5048733 80.4873294,36.8226121 80.7797271,36.1013645 C81.3840156,34.619883 82.3781676,33.3138402 83.5672515,32.2612086 C84.619883,31.4035088 85.8674464,30.7992203 87.1734893,30.4483431 C89.2982456,30.0194932 91.2670565,30.662768 93.0994152,31.6959064 C93.6062378,31.9688109 93.9766082,32.4561404 94.502924,32.7095517 C94.502924,32.2612086 94.4639376,31.8323587 94.4054581,31.3840156 C94.2690058,29.4152047 94.4249513,27.4853801 94.619883,25.5165692 C95.2826511,21.3450292 96.5302144,17.3684211 99.3957115,14.1325536 Z" fill="#FFFFFF"></path>
                    <path d="M83.7621832,14.8732943 C83.7816764,15.2826511 83.1773879,15.4191033 82.9434698,15.711501 C81.8518519,16.8226121 80.7017544,17.8947368 79.668616,19.0448343 C75.9064327,23.5477583 72.748538,28.8304094 69.6881092,33.8401559 C68.128655,36.3937622 66.5497076,38.9668616 64.7173489,41.3450292 C64.17154,42.08577 63.625731,42.8654971 62.9434698,43.4697856 C62.5146199,43.8401559 62.3001949,44.3664717 61.871345,44.7368421 C61.3645224,45.165692 61.1111111,45.7699805 60.6042885,46.2183236 C59.4346979,47.3294347 58.3430799,48.4990253 57.1734893,49.6101365 C54.1910331,52.3001949 50.9161793,54.6393762 47.4074074,56.6081871 C45.1072125,58.0896686 42.6510721,59.0838207 40.1364522,60.0584795 C39.6101365,60.2923977 40.1364522,60.7602339 40.331384,61.0136452 C41.4619883,62.202729 42.4366472,63.4502924 43.7426901,64.4249513 C46.1208577,66.9590643 48.9668616,69.1617934 51.7348928,71.2475634 C52.3781676,71.754386 53.1773879,72.0662768 53.7231969,72.6705653 C52.3781676,72.6900585 51.0136452,71.9493177 49.7076023,71.6569201 C46.9980507,70.662768 44.2300195,69.8245614 41.539961,68.7719298 C40.5263158,68.3235867 39.5126706,67.9532164 38.4795322,67.5633528 C37.7582846,67.1734893 36.9785575,66.9785575 36.2183236,66.6861598 C33.2358674,65.4385965 30.2923977,64.1325536 27.4463938,62.5925926 C27.037037,62.3391813 26.6861598,62.0467836 26.2573099,61.8518519 C25.497076,61.5204678 24.8538012,60.994152 24.0740741,60.6822612 C23.1968811,60.1559454 22.3391813,59.5516569 21.4619883,59.0253411 C20.6237817,58.4990253 19.9220273,57.8167641 19.0838207,57.2709552 C18.6354776,56.9785575 18.2846004,56.588694 17.9337232,56.1793372 C18.1676413,56.042885 18.3820663,56.0233918 18.6549708,56.0233918 C19.8440546,56.0233918 20.994152,56.0818713 22.1637427,55.8479532 C24.3274854,55.8479532 26.374269,55.3021442 28.4990253,54.9122807 C29.3762183,54.5808967 30.331384,54.6588694 31.208577,54.3079922 C33.5672515,53.7426901 35.7309942,52.7875244 37.9922027,51.9688109 C38.8888889,51.6764133 39.7270955,51.208577 40.6042885,50.8382066 C43.625731,49.337232 46.5107212,47.6413255 49.1812865,45.5750487 C50.7407407,44.4639376 52.08577,43.1384016 53.5672515,41.9688109 C54.4444444,41.0916179 55.3411306,40.214425 56.1988304,39.337232 C56.6471735,38.6159844 57.251462,38.0506823 57.797271,37.4074074 C59.6491228,35.3606238 61.4814815,33.3333333 63.3528265,31.3840156 C63.9181287,30.7017544 64.6003899,30.1754386 65.2241715,29.5516569 C66.7446394,28.0116959 68.2846004,26.5107212 69.785575,24.9512671 C73.4307992,21.539961 77.2709552,18.3820663 81.6374269,15.9454191 C82.3196881,15.4580897 82.962963,15.1072125 83.7621832,14.8732943 Z" fill="#005CA9"></path>
                    <path d="M143.74269,39.6296296 C144.035088,39.6491228 144.17154,39.8440546 144.366472,40.0389864 C145.477583,41.3060429 146.803119,42.4366472 148.109162,43.5087719 C151.325536,46.1208577 154.853801,48.3625731 158.557505,50.214425 C159.668616,50.8187135 160.838207,51.2670565 161.949318,51.8518519 C163.021442,52.3586745 164.11306,52.7095517 165.243665,53.0604288 C170.292398,54.8927875 175.555556,56.0038986 180.896686,56.5692008 C180.955166,56.9785575 180.331384,57.2319688 180.05848,57.4463938 C178.362573,58.6549708 176.569201,59.6881092 174.775828,60.7407407 C170.779727,63.0214425 166.666667,65.0877193 162.436647,66.920078 C161.481481,67.3099415 160.584795,67.8362573 159.610136,68.1676413 C156.374269,69.337232 153.157895,70.662768 149.863548,71.6569201 C148.596491,71.9688109 147.582846,72.748538 146.237817,72.6120858 C146.68616,72.1247563 147.251462,71.8518519 147.816764,71.5594542 C151.695906,68.9083821 155.575049,66.0818713 159.1423,63.0214425 C159.863548,62.5730994 160.409357,61.9883041 161.013645,61.3840156 C161.150097,61.208577 161.364522,61.1111111 161.28655,60.8576998 C161.052632,60.5263158 160.584795,60.3703704 160.253411,60.1364522 C158.674464,59.0643275 157.212476,57.8752437 155.769981,56.6276803 C154.639376,55.6140351 153.606238,54.502924 152.51462,53.4502924 C149.415205,50.214425 146.959064,46.4912281 144.951267,42.4756335 C144.561404,41.5009747 143.957115,40.6822612 143.74269,39.6296296 Z" fill="#005CA9"></path>
                    <path d="M88.3040936,42.9044834 C92.08577,42.9239766 95.8479532,42.8849903 99.6101365,42.9239766 C99.5711501,44.3469786 99.5711501,45.7894737 99.6101365,47.2124756 C95.711501,47.251462 91.8128655,47.2124756 87.91423,47.2319688 C86.9005848,47.2904483 85.82846,46.8031189 85.3606238,45.8674464 C85.0487329,45.0487329 85.2826511,44.0155945 86.0233918,43.5282651 C86.6666667,43.0019493 87.5048733,42.9044834 88.3040936,42.9044834 Z" fill="#FFFFFF"></path>
                    <path d="M99.6101365,42.9044834 C103.450292,42.8849903 107.270955,42.9044834 111.111111,42.8849903 C111.949318,42.8654971 112.807018,43.079922 113.430799,43.6842105 C114.093567,44.3274854 114.249513,45.4580897 113.664717,46.1988304 C113.118908,46.9395712 112.222222,47.2319688 111.325536,47.2124756 C107.426901,47.1929825 103.528265,47.251462 99.6296296,47.1929825 C99.5711501,45.7699805 99.5711501,44.3274854 99.6101365,42.9044834 Z" fill="#A2AAAD"></path>
                    <path d="M91.1111111,50 C93.9181287,49.9220273 96.7836257,50 99.5906433,49.9610136 C99.5711501,53.7037037 99.5711501,57.4658869 99.5906433,61.208577 C99.6101365,61.4035088 99.5516569,61.5594542 99.4152047,61.6764133 C97.3684211,59.4931774 95.8479532,56.9005848 95.0097466,54.0350877 C93.9961014,54.3859649 93.1189084,54.9707602 91.9883041,55.0682261 C91.3645224,55.0877193 90.7017544,55.1072125 90.0779727,55.0487329 C88.9473684,54.7368421 87.8557505,54.5224172 86.8421053,53.8791423 C86.7446394,53.7426901 86.7836257,53.6452242 86.9395712,53.6062378 C88.2846004,53.0604288 89.5126706,52.1637427 90.3703704,50.994152 C90.6432749,50.6822612 90.8576998,50.3118908 91.1111111,50 Z" fill="#FFFFFF"></path>
                    <path d="M99.6101365,49.9610136 C102.436647,49.9610136 105.302144,49.9220273 108.128655,49.9805068 C108.382066,50.2339181 108.557505,50.5847953 108.791423,50.877193 C109.493177,51.8518519 110.448343,52.6510721 111.500975,53.2358674 C111.851852,53.4307992 112.241715,53.5282651 112.51462,53.8206628 C111.793372,54.3274854 110.935673,54.6393762 110.097466,54.9122807 C109.20078,55.2046784 108.34308,55.1267057 107.407407,55.1267057 C106.237817,55.0682261 105.341131,54.5614035 104.327485,54.0740741 C104.015595,54.8148148 103.762183,55.5555556 103.430799,56.2962963 C102.573099,58.2651072 101.442495,60.0584795 99.9415205,61.5789474 C99.7465887,61.754386 99.6881092,61.7933723 99.4346979,61.7153996 C99.5516569,61.5984405 99.6101365,61.4424951 99.6101365,61.2475634 C99.5906433,57.4658869 99.5711501,53.7037037 99.6101365,49.9610136 Z" fill="#A2AAAD"></path>
                    <path d="M73.8791423,68.3040936 C74.7368421,68.4795322 75.5360624,68.7134503 76.4132554,68.7134503 C77.7582846,68.9668616 79.1423002,69.0643275 80.5068226,69.2787524 C81.1306043,69.2397661 81.6569201,69.5321637 82.2612086,69.5321637 C82.7290448,69.5321637 83.1578947,69.7270955 83.625731,69.7270955 C84.7173489,69.7270955 85.82846,69.8050682 86.920078,69.9025341 C88.9278752,70.1169591 90.9746589,70.1169591 92.9824561,70.3118908 C96.4912281,70.3118908 100,70.4678363 103.508772,70.331384 C105.146199,70.2729045 106.764133,70.4093567 108.382066,70.1754386 C110.604288,70.1169591 112.807018,69.9025341 115.009747,69.7660819 C118.557505,69.4346979 121.988304,68.9473684 125.497076,68.5185185 C125.380117,69.0838207 124.775828,69.2982456 124.366472,69.6101365 C123.040936,70.6237817 121.754386,71.6764133 120.42885,72.6900585 C120.05848,72.9824561 119.62963,73.2748538 119.434698,73.7037037 C119.610136,74.2105263 120.779727,73.8596491 121.22807,74.0155945 C122.124756,74.288499 123.001949,74.0935673 123.898635,74.2300195 C124.658869,74.502924 125.419103,74.2495127 126.179337,74.4444444 C126.978558,74.6783626 127.777778,74.4639376 128.576998,74.6003899 C129.512671,74.8927875 130.467836,74.5808967 131.403509,74.9122807 C132.280702,74.9512671 133.079922,74.8927875 133.937622,75.1267057 C134.873294,75.0292398 135.711501,75.3606238 136.62768,75.3411306 C136.315789,75.6530214 135.906433,75.5555556 135.497076,75.6530214 C131.832359,76.4522417 128.109162,77.1150097 124.385965,77.6023392 C123.489279,77.6023392 122.651072,77.8557505 121.754386,77.91423 C121.072125,78.128655 120.37037,77.9727096 119.688109,78.1871345 C119.161793,78.3235867 118.557505,78.1871345 118.050682,78.3040936 C117.173489,78.5380117 116.315789,78.3625731 115.419103,78.6354776 C114.269006,78.5575049 113.235867,78.9278752 112.105263,78.8499025 C111.306043,78.7719298 110.565302,79.0448343 109.766082,79.0448343 C108.596491,79.0838207 107.426901,78.9668616 106.25731,79.2007797 C102.495127,79.2982456 98.7134503,79.2397661 94.9512671,79.2397661 C94.2495127,79.2007797 93.5282651,79.2397661 92.8265107,79.1423002 C91.5594542,78.9473684 90.2339181,79.1812865 88.9668616,78.9278752 C88.0506823,78.7524366 87.1539961,78.9668616 86.2378168,78.7329435 C85.5165692,78.5575049 84.8148148,78.7524366 84.0935673,78.5380117 C83.4502924,78.3625731 82.7875244,78.5575049 82.1442495,78.3430799 C81.539961,78.1676413 80.9551657,78.3430799 80.3508772,78.1871345 C79.6881092,77.9922027 79.0643275,78.0896686 78.3820663,77.9922027 C73.7426901,77.4074074 69.122807,76.6666667 64.5419103,75.6725146 C64.1130604,75.5750487 63.5477583,75.6530214 63.2163743,75.3606238 C63.9376218,75.1851852 64.5808967,75.1267057 65.3216374,75.1072125 C66.2183236,74.8148148 67.1150097,75.0682261 67.9922027,74.834308 C68.7134503,74.6588694 69.4152047,74.8732943 70.1364522,74.6588694 C70.9551657,74.4444444 71.8323587,74.6978558 72.6705653,74.4639376 C73.3918129,74.2495127 74.1130604,74.502924 74.8148148,74.288499 C75.6335283,74.0545809 76.5107212,74.3274854 77.3489279,74.0740741 C77.9922027,73.8791423 78.7329435,74.1130604 79.337232,73.8986355 C79.5906433,73.6062378 78.8499025,73.0604288 78.6549708,72.8654971 C76.7446394,71.4619883 74.9707602,69.8440546 72.9824561,68.5380117 C73.2358674,68.2261209 73.5282651,68.3040936 73.8791423,68.3040936 Z" fill="#005CA9"></path>
                    <path d="M78.2651072,82.3196881 C78.5380117,82.2417154 78.7524366,82.3196881 79.005848,82.3976608 C81.3645224,83.1578947 83.7621832,83.8011696 86.1988304,84.3469786 C86.588694,84.4639376 87.1345029,84.4054581 87.4463938,84.6588694 C87.4658869,84.9902534 87.1150097,85.3411306 86.920078,85.5750487 C84.9512671,87.6803119 81.2865497,87.6998051 79.2982456,85.6335283 C78.4405458,84.6978558 78.0896686,83.5672515 78.2651072,82.3196881 Z" fill="#A2AAAD"></path>
                    <path d="M120.838207,82.2807018 C121.267057,83.8401559 120.409357,85.497076 119.064327,86.3157895 C116.822612,87.7582846 113.547758,87.3294347 111.949318,85.1267057 C111.793372,84.9122807 111.598441,84.6393762 111.988304,84.5224172 C114.210526,84.1520468 116.413255,83.5087719 118.596491,82.9044834 C119.337232,82.7095517 120.05848,82.3781676 120.838207,82.2807018 Z" fill="#A2AAAD"></path>
                    <path d="M71.8323587,84.8732943 C73.2358674,87.8947368 76.0818713,90.4093567 79.3567251,91.1890838 C80.4093567,91.3255361 81.4035088,91.5594542 82.4756335,91.5009747 C83.3333333,91.5594542 84.1520468,91.3255361 85.0097466,91.2670565 C86.1598441,91.1500975 87.1734893,90.7212476 88.2846004,90.4093567 C89.005848,90.1949318 89.6881092,89.7465887 90.4483431,89.668616 C90.7212476,91.1500975 91.1890838,92.6120858 91.8518519,93.957115 C91.9688109,94.1130604 92.0662768,94.4834308 92.3196881,94.2690058 C93.625731,90.7797271 96.1403509,87.8947368 99.2787524,85.9259259 C99.454191,86.042885 99.5906433,86.1988304 99.6491228,86.3937622 C100.760234,88.9863548 101.500975,91.754386 101.773879,94.5614035 C101.754386,95.7699805 102.08577,96.8615984 101.832359,98.0896686 C101.734893,101.345029 100.8577,104.580897 99.454191,107.504873 C99.122807,107.504873 98.7719298,107.504873 98.4405458,107.48538 C97.7192982,107.251462 96.9980507,107.11501 96.2768031,106.900585 C94.3274854,106.159844 92.4951267,105.536062 90.9746589,104.035088 C90.8187135,103.879142 90.6042885,103.664717 90.7602339,103.430799 C91.208577,102.651072 91.9688109,101.988304 92.7290448,101.520468 C93.1773879,101.22807 93.7037037,101.169591 94.1520468,100.877193 C93.5282651,100.682261 92.8849903,100.643275 92.2417154,100.643275 C90.2923977,100.584795 88.1871345,101.033138 86.5302144,102.124756 C86.2962963,102.241715 85.9649123,102.729045 85.6920078,102.651072 C84.8732943,101.773879 84.0740741,100.838207 83.4307992,99.8245614 C82.962963,100 82.748538,100.604288 82.4366472,100.974659 C81.6569201,101.988304 81.5009747,103.118908 81.0721248,104.269006 C80.7017544,104.522417 80.1754386,104.580897 79.7465887,104.717349 C79.005848,104.892788 78.3235867,105.224172 77.5633528,105.39961 C76.5302144,105.633528 75.5360624,105.984405 74.5224172,106.315789 C74.3274854,106.374269 74.0350877,106.491228 73.9181287,106.25731 C71.4035088,102.826511 69.0253411,99.3762183 67.7387914,95.2826511 C67.2319688,93.5867446 66.8615984,91.6374269 67.251462,89.8830409 C67.5633528,88.1091618 68.6939571,86.5497076 70.2339181,85.6140351 C70.6822612,85.3216374 71.2475634,84.834308 71.8323587,84.8732943 Z" fill="#FFFFFF"></path>
                    <path d="M126.803119,85.2436647 C127.11501,85.1851852 127.251462,85.3996101 127.48538,85.5555556 C128.382066,86.3352827 129.20078,87.251462 129.863548,88.245614 C130.155945,88.6549708 129.902534,89.1423002 129.746589,89.5516569 C128.167641,93.5087719 125.39961,96.9590643 122.45614,100.019493 C120.974659,101.500975 119.454191,102.94347 117.797271,104.230019 C117.54386,102.51462 116.920078,100.916179 115.594542,99.7465887 C115.048733,100.331384 114.678363,101.052632 114.11306,101.617934 C113.820663,101.890838 113.489279,102.51462 113.079922,102.573099 C112.378168,102.14425 111.754386,101.617934 110.955166,101.325536 C109.064327,100.604288 106.861598,100.409357 104.892788,100.779727 C104.951267,100.896686 105.068226,100.974659 105.204678,101.013645 C106.276803,101.423002 107.329435,102.14425 107.97271,103.099415 C108.089669,103.333333 108.304094,103.528265 108.109162,103.781676 C107.699805,104.269006 107.153996,104.658869 106.62768,105.009747 C104.873294,106.120858 102.787524,106.842105 100.779727,107.329435 C100.038986,107.524366 99.1812865,107.641326 98.4210526,107.407407 C98.7524366,107.426901 99.1033138,107.426901 99.4346979,107.426901 C100.818713,104.502924 101.7154,101.247563 101.812865,98.0116959 C102.066277,96.8031189 101.734893,95.6920078 101.754386,94.4834308 C101.481481,91.6764133 100.740741,88.9083821 99.6296296,86.3157895 C99.5711501,86.1208577 99.4346979,85.9649123 99.2592593,85.8479532 C99.4931774,85.6920078 99.785575,86.0038986 100,86.1013645 C102.729045,87.8362573 105.009747,90.4678363 106.315789,93.4502924 C106.452242,93.6647173 106.530214,94.3859649 106.803119,94.3859649 C107.602339,92.8654971 108.167641,91.1695906 108.479532,89.4736842 L108.596491,89.5711501 C108.596491,90 109.005848,90.3898635 109.220273,90.7212476 C111.539961,93.7231969 115.45809,95.5165692 119.103314,96.2183236 C123.060429,94.2690058 126.218324,90.2923977 126.920078,85.8869396 C126.978558,85.6725146 126.900585,85.5165692 126.705653,85.4191033 L126.803119,85.2436647 Z" fill="#A2AAAD"></path>
                    <path d="M126.705653,85.497076 C126.900585,85.6140351 126.978558,85.7699805 126.920078,85.9649123 C126.218324,90.3703704 123.060429,94.3469786 119.103314,96.2962963 C115.45809,95.5945419 111.539961,93.7816764 109.220273,90.7992203 C108.986355,90.4483431 108.596491,90.0779727 108.596491,89.6491228 C110.331384,90.3118908 112.007797,90.994152 113.859649,91.2475634 C116.25731,91.7348928 118.830409,91.539961 121.111111,90.662768 C123.450292,89.6296296 125.516569,87.797271 126.705653,85.497076 Z" fill="#FFFFFF"></path>
                    <path d="M161.403509,93.0604288 C163.80117,93.0409357 166.25731,93.0994152 168.615984,93.5867446 C172.592593,94.2300195 176.432749,95.6335283 179.551657,98.245614 C181.988304,100.272904 183.74269,103.079922 184.132554,106.25731 C184.191033,107.290448 184.191033,108.323587 184.132554,109.376218 C183.976608,110.604288 183.645224,111.793372 183.216374,112.94347 C182.787524,112.768031 182.553606,112.261209 182.241715,111.929825 C179.649123,108.71345 176.218324,106.237817 172.300195,104.912281 C169.434698,103.976608 166.374269,103.508772 163.352827,103.586745 C161.695906,103.547758 160.019493,103.781676 158.362573,103.996101 C157.85575,104.054581 157.309942,104.230019 156.803119,104.191033 C156.705653,104.11306 156.62768,104.015595 156.549708,103.918129 C154.405458,100.740741 151.578947,98.128655 148.34308,96.1013645 C148.148148,95.9649123 147.816764,95.82846 147.758285,95.5555556 C149.902534,94.6783626 152.14425,94.3079922 154.385965,93.8011696 C156.705653,93.3528265 159.044834,93.1578947 161.403509,93.0604288 Z" fill="#FFFFFF"></path>
                    <path d="M40.7407407,93.2163743 C43.1189084,93.4502924 45.4191033,93.9181287 47.7387914,94.4054581 C48.9863548,94.7173489 50.2339181,95.0682261 51.4424951,95.5360624 C51.3645224,95.82846 50.9551657,95.9649123 50.7407407,96.1403509 C47.5633528,98.1676413 44.7563353,100.740741 42.6510721,103.898635 C42.4561404,104.074074 42.3196881,104.249513 42.0272904,104.17154 C40.4483431,103.879142 38.8499025,103.703704 37.2319688,103.567251 C36.1208577,103.528265 35.0097466,103.547758 33.8986355,103.547758 C29.6296296,103.840156 25.5165692,104.892788 21.9493177,107.309942 C20.0584795,108.557505 18.3820663,110.116959 16.9590643,111.871345 C16.6471735,112.241715 16.4327485,112.651072 16.0038986,112.88499 C15.0682261,110.565302 14.8148148,108.070175 15.1851852,105.614035 C15.6920078,102.573099 17.6023392,99.8440546 19.9805068,97.9532164 C22.0077973,96.374269 24.3664717,95.1267057 26.8421053,94.4639376 C31.4230019,93.0214425 36.0038986,92.9044834 40.7407407,93.2163743 Z" fill="#FFFFFF"></path>
                    <path d="M33.9181287,103.567251 C35.0292398,103.567251 36.1403509,103.547758 37.251462,103.586745 C38.8499025,103.723197 40.4483431,103.898635 42.0467836,104.191033 C42.3391813,104.269006 42.4756335,104.093567 42.6705653,103.918129 C42.6120858,104.678363 43.2163743,104.736842 43.7426901,105.009747 C47.7387914,106.842105 51.4814815,109.20078 54.834308,112.02729 C59.5516569,116.023392 63.625731,121.033138 66.2378168,126.647173 C65.8479532,126.608187 65.6335283,126.315789 65.3411306,126.101365 C58.4990253,120.623782 50.994152,115.847953 42.6900585,112.88499 C41.2280702,112.378168 39.785575,111.890838 38.2651072,111.598441 C35.1072125,110.838207 31.9103314,110.37037 28.6744639,110.331384 C24.4054581,110.487329 19.8050682,111.22807 16.0623782,113.411306 C16.0623782,113.255361 16.042885,113.099415 16.042885,112.923977 C16.4717349,112.690058 16.6861598,112.280702 16.9980507,111.910331 C18.4210526,110.155945 20.0974659,108.596491 21.9883041,107.348928 C25.5165692,104.912281 29.6491228,103.859649 33.9181287,103.567251 Z" fill="#A2AAAD"></path>
                    <path d="M163.352827,103.567251 C166.374269,103.469786 169.434698,103.937622 172.300195,104.892788 C176.218324,106.218324 179.649123,108.693957 182.241715,111.910331 C182.553606,112.241715 182.787524,112.748538 183.216374,112.923977 C183.216374,113.079922 183.196881,113.255361 183.196881,113.411306 C181.403509,112.378168 179.473684,111.65692 177.446394,111.22807 C175.243665,110.643275 172.865497,110.448343 170.584795,110.350877 C166.764133,110.389864 163.060429,111.052632 159.356725,112.02729 C150.155945,114.717349 141.695906,119.961014 134.230019,125.867446 C133.859649,126.120858 133.469786,126.62768 133.001949,126.68616 C133.235867,125.984405 133.684211,125.360624 133.996101,124.678363 C138.810916,115.867446 146.764133,108.947368 155.88694,104.853801 C156.315789,104.658869 156.666667,104.483431 156.549708,103.937622 C156.62768,104.035088 156.705653,104.132554 156.803119,104.210526 C157.309942,104.249513 157.85575,104.074074 158.362573,104.015595 C160.019493,103.762183 161.695906,103.528265 163.352827,103.567251 Z" fill="#A2AAAD"></path>
                    <path d="M85.2631579,109.824561 C85.6920078,109.688109 86.0233918,109.94152 86.3937622,110.116959 C87.2709552,110.623782 88.1871345,111.072125 89.122807,111.481481 C92.202729,112.865497 95.6530214,114.074074 99.0448343,114.191033 C100.311891,114.269006 101.520468,114.054581 102.748538,113.840156 C104.191033,113.586745 105.516569,113.040936 106.939571,112.709552 C107.758285,112.378168 108.615984,112.08577 109.415205,111.695906 C110.37037,111.130604 111.403509,110.760234 112.358674,110.175439 C112.709552,109.980507 113.196881,109.649123 113.606238,109.805068 C114.619883,110.097466 115.594542,110.448343 116.62768,110.662768 C117.48538,110.838207 118.265107,111.150097 119.1423,111.169591 C120.311891,111.345029 121.481481,111.617934 122.651072,111.754386 C123.391813,111.695906 124.054581,112.007797 124.795322,111.968811 C125.594542,111.890838 126.335283,112.163743 127.134503,112.14425 C128.557505,112.14425 130,112.202729 131.423002,112.105263 C132.358674,111.871345 133.274854,112.066277 134.191033,111.812865 C134.912281,111.832359 135.536062,111.520468 136.25731,111.578947 C136.237817,112.300195 135.711501,112.690058 135.321637,113.255361 C133.391813,115.82846 130.467836,117.48538 127.368421,118.187135 C126.374269,118.460039 125.45809,118.615984 124.424951,118.615984 C123.118908,118.888889 121.832359,118.791423 120.526316,118.791423 C120,118.791423 119.493177,118.615984 118.966862,118.596491 C117.758285,118.615984 116.666667,118.206628 115.438596,118.109162 C114.054581,117.797271 112.709552,117.368421 111.28655,117.231969 C109.62963,116.939571 107.97271,116.939571 106.296296,116.959064 C104.756335,116.939571 103.157895,117.251462 101.617934,117.387914 C100.896686,117.465887 100.194932,117.699805 99.4736842,117.797271 C97.7387914,117.368421 95.9649123,117.231969 94.1910331,117.017544 C91.8518519,116.861598 89.5126706,116.900585 87.1929825,117.290448 C85.8869396,117.426901 84.6783626,117.875244 83.3918129,118.050682 C82.1442495,118.2846 80.877193,118.615984 79.5906433,118.576998 C78.3625731,118.849903 77.1345029,118.752437 75.8869396,118.752437 C75.3606238,118.752437 74.8538012,118.576998 74.3274854,118.576998 C73.411306,118.557505 72.5146199,118.226121 71.5984405,118.128655 C69.3957115,117.699805 67.5048733,116.68616 65.6530214,115.438596 C64.9317739,114.814815 64.2300195,114.132554 63.7037037,113.333333 C63.294347,112.729045 62.7290448,112.339181 62.6705653,111.559454 C63.8206628,111.559454 64.9707602,111.988304 66.1403509,111.949318 C66.8810916,111.910331 67.5438596,112.163743 68.2846004,112.14425 C69.6491228,112.14425 71.0136452,112.183236 72.3781676,112.124756 C73.1189084,111.968811 73.7621832,111.929825 74.5224172,111.949318 C77.3489279,111.637427 80.1364522,111.150097 82.9239766,110.526316 C83.6647173,110.331384 84.4444444,110.038986 85.2631579,109.824561 Z" fill="#005CA9"></path>
                    <path d="M94.3469786,122.826511 C97.6608187,122.709552 100.974659,122.729045 104.288499,122.807018 C106.315789,122.982456 108.557505,123.021442 110.526316,123.567251 C111.28655,123.80117 112.163743,124.074074 112.573099,124.834308 C112.807018,125.555556 112.631579,126.452242 112.300195,127.134503 C111.910331,127.758285 111.22807,128.323587 110.526316,128.518519 C109.902534,128.226121 109.376218,127.777778 108.732943,127.524366 C105.477583,126.042885 101.578947,125.730994 98.0506823,125.867446 C95.2241715,126.042885 92.08577,126.549708 89.6101365,127.992203 C89.2982456,128.187135 88.9863548,128.421053 88.6549708,128.596491 C88.1676413,128.654971 87.6608187,128.167641 87.2709552,127.91423 C86.4132554,127.309942 86.1208577,126.335283 86.2183236,125.321637 C86.1208577,124.522417 87.0760234,123.996101 87.6998051,123.762183 C89.7465887,123.021442 92.1832359,123.021442 94.3469786,122.826511 Z" fill="#A2AAAD"></path>
                    <path d="M80.3508772,124.951267 C80.4093567,126.744639 80.662768,128.518519 81.2865497,130.194932 C81.6374269,131.384016 82.2612086,132.417154 82.7875244,133.547758 C83.0994152,134.249513 83.5672515,134.873294 83.8986355,135.575049 C84.4834308,136.588694 85.2046784,137.524366 85.8869396,138.479532 C86.0623782,138.674464 86.1403509,138.986355 86.4522417,138.888889 C87.2709552,137.407407 87.6218324,135.653021 88.2846004,134.11306 C88.4990253,133.645224 89.1033138,133.450292 89.5321637,133.216374 C91.0721248,132.417154 92.7875244,131.910331 94.5224172,131.65692 C95.1267057,131.65692 95.6725146,131.403509 96.2768031,131.442495 C97.7777778,131.481481 99.2592593,131.364522 100.760234,131.442495 C101.539961,131.500975 102.378168,131.345029 103.118908,131.578947 C104.269006,131.7154 105.45809,131.851852 106.549708,132.222222 C107.875244,132.651072 109.434698,133.040936 110.643275,133.781676 C111.306043,134.483431 112.046784,135.146199 112.612086,135.906433 C113.976608,138.109162 114.814815,140.526316 115.39961,143.060429 C115.672515,143.957115 115.750487,144.873294 115.88694,145.808967 C115.867446,146.413255 116.140351,146.959064 116.101365,147.563353 C116.081871,149.434698 116.140351,151.325536 116.062378,153.177388 C115.847953,154.035088 115.925926,154.892788 115.750487,155.750487 C115.711501,157.134503 115.282651,158.34308 115.068226,159.688109 C114.834308,161.111111 114.405458,162.495127 114.132554,163.918129 C114.074074,164.17154 114.035088,164.405458 113.74269,164.502924 C113.606238,163.118908 113.216374,161.812865 113.021442,160.467836 C112.378168,158.089669 111.461988,155.711501 110.175439,153.586745 C110.019493,153.352827 109.94152,152.962963 109.62963,152.88499 C109.610136,154.697856 109.668616,156.491228 109.62963,158.304094 C109.57115,158.888889 109.415205,159.454191 109.415205,160.05848 C109.181287,160.838207 109.278752,161.617934 109.044834,162.397661 C108.732943,164.210526 108.265107,166.062378 107.504873,167.738791 C107.270955,168.304094 107.153996,168.908382 106.842105,169.454191 C106.393762,170.292398 106.062378,171.169591 105.438596,171.929825 C103.898635,174.502924 101.929825,176.861598 99.9415205,179.103314 C99.5711501,179.610136 99.2982456,179.064327 99.005848,178.810916 C98.0311891,177.641326 96.9785575,176.530214 96.0818713,175.302144 C95.0487329,174.015595 94.2300195,172.592593 93.3138402,171.267057 C92.3391813,169.62963 91.7348928,167.85575 91.0721248,166.081871 C90.4483431,164.015595 89.8050682,161.851852 89.6881092,159.668616 C89.454191,158.460039 89.5906433,157.192982 89.5516569,155.964912 C89.4931774,155.048733 89.6296296,154.11306 89.4931774,153.216374 C89.1423002,153.430799 88.9278752,153.879142 88.6939571,154.210526 C88.0116959,155.341131 87.5243665,156.666667 86.9395712,157.875244 C86.6081871,158.791423 86.2573099,159.688109 86.1403509,160.643275 C85.82846,161.871345 85.5750487,163.079922 85.4191033,164.346979 C85.3411306,164.814815 85.4191033,165.380117 85.1851852,165.789474 C84.7368421,165.282651 84.5224172,164.561404 84.2300195,163.937622 C81.7738791,158.050682 80.6432749,151.598441 80.9551657,145.243665 C80.9161793,143.352827 81.3645224,141.481481 81.5594542,139.590643 C81.5594542,139.239766 82.0077973,138.460039 81.4814815,138.34308 C81.0721248,138.576998 80.7602339,138.986355 80.4288499,139.298246 C77.8752437,141.7154 75.7504873,144.658869 74.0545809,147.738791 C73.9181287,147.953216 73.7426901,148.089669 73.5282651,148.206628 C73.3333333,147.933723 73.2358674,147.738791 73.2553606,147.387914 C73.2553606,145.282651 73.2163743,143.255361 73.4502924,141.150097 C73.5867446,140 73.7426901,138.849903 73.9766082,137.719298 C74.3859649,135.575049 75.0877193,133.567251 75.7699805,131.500975 C76.8226121,129.20078 78.1676413,126.998051 79.8050682,125.068226 C79.9415205,124.853801 80.2729045,124.54191 80.3508772,124.951267 Z" fill="#005CA9"></path>
                    <path d="M134.697856,176.432749 C136.042885,176.413255 137.407407,176.393762 138.77193,176.432749 C139.220273,176.471735 139.278752,177.095517 138.908382,177.309942 C138.362573,177.387914 137.816764,177.329435 137.270955,177.407407 C137.251462,178.77193 137.270955,180.116959 137.270955,181.461988 C137.251462,181.754386 137.290448,182.066277 136.939571,182.163743 C136.62768,182.202729 136.296296,182.241715 136.19883,181.851852 C136.140351,180.37037 136.19883,178.888889 136.159844,177.407407 C135.536062,177.309942 134.931774,177.348928 134.288499,177.329435 C134.288499,176.978558 134.17154,176.452242 134.697856,176.432749 Z" fill="#A2AAAD"></path>
                    <path d="M140.545809,176.413255 C141.052632,176.413255 141.617934,176.25731 141.851852,176.842105 C142.163743,177.699805 142.475634,178.557505 142.768031,179.434698 C142.904483,179.766082 142.865497,180.175439 143.274854,180.292398 C143.684211,179.083821 144.074074,177.875244 144.522417,176.666667 C144.658869,176.315789 145.107212,176.413255 145.419103,176.374269 C145.750487,176.413255 146.140351,176.315789 146.315789,176.647173 C146.374269,177.212476 146.315789,177.777778 146.413255,178.34308 C146.588694,179.298246 146.471735,180.253411 146.666667,181.208577 C146.68616,181.500975 146.842105,181.988304 146.510721,182.163743 C146.315789,182.222222 146.101365,182.222222 145.88694,182.202729 C145.516569,182.046784 145.633528,181.442495 145.555556,181.111111 C145.341131,179.863548 145.477583,178.654971 145.380117,177.407407 C145.068226,177.524366 145.048733,177.797271 144.951267,178.070175 C144.60039,179.259259 144.191033,180.448343 143.820663,181.617934 C143.723197,182.339181 142.495127,182.319688 142.378168,181.617934 C142.007797,180.487329 141.617934,179.337232 141.306043,178.187135 C141.189084,177.933723 141.208577,177.602339 140.8577,177.602339 C140.79922,179.161793 140.896686,180.662768 140.545809,182.202729 C140.233918,182.202729 139.922027,182.183236 139.62963,182.183236 C139.785575,181.072125 139.649123,179.980507 139.883041,178.888889 C139.961014,178.206628 139.844055,177.465887 139.980507,176.803119 C140.019493,176.510721 140.272904,176.413255 140.545809,176.413255 Z" fill="#A2AAAD"></path>
                </g>
            </g>
        </g>
    </g>
</svg>