<?xml version="1.0" encoding="UTF-8"?>
<svg width="200px" height="200px" viewBox="0 0 200 200" version="1.1" xmlns="http://www.w3.org/2000/svg" xmlns:xlink="http://www.w3.org/1999/xlink">
    <!-- Generator: Sketch 54.1 (76490) - https://sketchapp.com -->
    <title>rhode-island</title>
    <desc>Created with Sketch.</desc>
    <g id="rhode-island" stroke="none" stroke-width="1" fill="none" fill-rule="evenodd">
        <g id="rhode-island_BGL">
            <g id="rhode-island" transform="translate(20.000000, 0.000000)">
                <g id="g10" transform="translate(79.154321, 99.743596) scale(-1, 1) rotate(-180.000000) translate(-79.154321, -99.743596) translate(0.091506, -0.000002)" fill-rule="nonzero">
                    <g id="g12" transform="translate(0.183016, 0.256222)">
                        <path d="M153.523516,28.2642244 L127.404237,28.2642244 L99.683935,104.007866 L90.1638203,104.007866 L90.1638203,22.145275 L104.476752,22.145275 L104.476752,4.1588505 L55.1210576,4.1588505 L55.1210576,22.0508388 L68.1828935,22.0508388 L68.1828935,104.007866 L39.082653,104.007866 L39.082653,46.5745868 L48.9936894,46.5745868 L48.9936894,28.6342823 L4.16763526,28.6342823 L4.16763526,46.5745868 L18.6752959,46.5745868 L18.6752959,175.901221 L4.63029914,175.901221 L4.63029914,194.814437 L122.427672,194.814437 L148.142852,169.099257 L148.142852,131.751227 L147.939705,131.548812 L120.912301,104.522872 L141.911897,46.5745868 L153.523516,46.5745868 L153.523516,28.2642244 Z M143.253037,48.4852715 L123.124596,104.03239 L149.285603,130.192665 L150.054635,130.956939 L150.054635,169.890251 L123.2183,196.725122 L2.71924841,196.725122 L2.71924841,173.989804 L16.7642451,173.989804 L16.7642451,48.4852715 L2.25585246,48.4852715 L2.25585246,26.7214014 L50.9029099,26.7214014 L50.9029099,48.4852715 L40.9958999,48.4852715 L40.9958999,102.094619 L66.2718428,102.094619 L66.2718428,23.9640858 L53.2078106,23.9640858 L53.2078106,2.25036199 L106.389633,2.25036199 L106.389633,24.0541295 L92.0767012,24.0541295 L92.0767012,102.094619 L98.3464557,102.094619 L126.066757,26.3528077 L155.436397,26.3528077 L155.436397,48.4852715 L143.253037,48.4852715 Z M126.299553,139.008169 L113.882299,126.590914 L91.9738463,126.590914 L91.9738463,137.496458 L106.176237,137.496458 L106.176237,160.522405 L53.7063456,160.522405 L53.7063456,137.496458 L66.4098367,137.496458 L66.4098367,126.590914 L41.0295748,126.590914 L41.0295748,174.219306 L113.920366,174.219306 L126.299553,161.840119 L126.299553,139.008169 Z M128.209872,162.632577 L114.712824,176.132553 L39.1188901,176.132553 L39.1188901,124.678766 L68.3227176,124.678766 L68.3227176,139.407143 L55.6195925,139.407143 L55.6195925,158.610989 L104.263722,158.610989 L104.263722,139.407143 L90.0631616,139.407143 L90.0631616,124.678766 L114.675123,124.678766 L128.209872,138.218639 L128.209872,162.632577 L128.209872,162.632577 Z" id="path14" fill="#FFFFFF"></path>
                        <path d="M37.6935633,67.9058076 L20.0676799,51.3754567 L20.0676799,45.1822028 L13.4641046,45.1822028 L5.55928722,37.7675016 L5.55928722,30.0255683 L47.6005733,30.0255683 L47.6005733,45.1822028 L37.6935633,45.1822028 L37.6935633,67.9058076 Z M140.936423,45.1822028 L119.30469,104.880119 L146.751932,132.329191 L146.751932,168.519463 L145.894686,169.377807 L129.601158,154.098552 L129.601158,137.639577 L129.39618,137.438992 L115.250525,123.288578 L96.748728,123.288578 L69.5738134,97.8021668 L69.5738134,20.661017 L56.5127095,20.661017 L56.5127095,5.5508685 L103.08693,5.5508685 L103.08693,20.7528909 L88.7739985,20.7528909 L88.7739985,105.397321 L100.654651,105.397321 L128.374952,29.6540462 L152.133328,29.6540462 L152.133328,45.1822028 L140.936423,45.1822028 L140.936423,45.1822028 Z" id="path16" fill="#74B4E6"></path>
                        <path d="M152.132596,29.6540462 L128.37422,29.6540462 L100.653553,105.397321 L88.7732664,105.397321 L88.7732664,20.7550871 L103.085832,20.7550871 L103.085832,5.5508685 L56.5116114,5.5508685 L56.5116114,20.661017 L69.5738134,20.661017 L69.5738134,97.8021668 L96.748728,123.288578 L115.249427,123.288578 L129.39801,137.437161 L129.600426,137.639577 L129.600426,154.098552 L145.893588,169.377807 L146.751932,168.520561 L146.751932,132.331021 L119.303592,104.880119 L140.937155,45.1822028 L152.132596,45.1822028 L152.132596,29.6540462 Z M39.117792,124.678766 L39.117792,176.131455 L114.712458,176.131455 L128.210604,162.633675 L128.210604,138.217907 L114.674391,124.678766 L90.0616975,124.678766 L90.0616975,139.408607 L104.264454,139.408607 L104.264454,158.609891 L55.6173963,158.609891 L55.6173963,139.408607 L68.3216195,139.408607 L68.3216195,124.678766 L39.117792,124.678766 Z M47.6027695,45.1822028 L47.6027695,30.0255683 L5.55855516,30.0255683 L5.55855516,37.7675016 L13.4641046,45.1822028 L20.0662158,45.1822028 L20.0662158,51.3754567 L37.6920991,67.9058076 L37.6920991,45.1822028 L47.6027695,45.1822028 Z M120.911203,104.522872 L147.938973,131.550276 L148.143584,131.751959 L148.143584,169.097427 L122.426573,194.812973 L4.63176327,194.812973 L4.63176327,175.899391 L18.6763939,175.899391 L18.6763939,46.5723906 L4.16653716,46.5723906 L4.16653716,28.6317201 L48.9914932,28.6317201 L48.9914932,46.5723906 L39.0837511,46.5723906 L39.0837511,104.004937 L68.1836256,104.004937 L68.1836256,22.0508388 L55.1195934,22.0508388 L55.1195934,4.1588505 L104.478216,4.1588505 L104.478216,22.1423467 L90.1652844,22.1423467 L90.1652844,104.004937 L99.6828369,104.004937 L127.403138,28.2642244 L153.522052,28.2642244 L153.522052,46.5723906 L141.911165,46.5723906 L120.911203,104.522872 Z M155.434567,26.3506115 L126.065293,26.3506115 L98.3475538,102.094619 L92.0759692,102.094619 L92.0759692,24.0555936 L106.388535,24.0555936 L106.388535,2.24889786 L53.2089087,2.24889786 L53.2089087,23.9640858 L66.2707447,23.9640858 L66.2707447,102.094619 L40.9951679,102.094619 L40.9951679,48.4852715 L50.9043741,48.4852715 L50.9043741,26.7228656 L2.25658452,26.7228656 L2.25658452,48.4852715 L16.7635131,48.4852715 L16.7635131,173.989072 L2.71851634,173.989072 L2.71851634,196.722926 L123.217568,196.722926 L150.053903,169.891349 L150.053903,130.955109 L149.284139,130.191933 L123.123498,104.03239 L143.251939,48.4852715 L155.434567,48.4852715 L155.434567,26.3506115 Z M43.2275943,50.7151358 L43.2275943,99.8629244 L64.0379522,99.8629244 L64.0379522,26.1957801 L53.1364345,26.1957801 L53.1364345,50.7151358 L43.2275943,50.7151358 Z M144.817822,50.7151358 L125.70585,103.45589 L150.855878,128.607016 L152.287794,130.02429 L152.287794,170.815945 L124.142163,198.957183 L0.48792006,198.957183 L0.48792006,171.75811 L14.5329168,171.75811 L14.5329168,50.7151358 L0.0226939563,50.7151358 L0.0226939563,24.4911712 L50.9043741,24.4911712 L50.9761163,0.0186676092 L108.621693,0.0186676092 L108.621693,26.287288 L94.3087616,26.287288 L94.3087616,99.8629244 L96.7867952,99.8629244 L124.505999,24.1214793 L157.668091,24.1214793 L157.668091,50.7151358 L144.817822,50.7151358 Z M64.1781423,135.264764 L64.1781423,128.822975 L43.2612692,128.822975 L43.2612692,171.990174 L112.995038,171.990174 L124.066761,160.916255 L124.066761,139.933497 L112.958801,128.822975 L94.2062728,128.822975 L94.2062728,135.264764 L108.408297,135.264764 L108.408297,162.7541 L51.4735531,162.7541 L51.4735531,135.264764 L64.1781423,135.264764 Z M53.7074437,160.523137 L106.174772,160.523137 L106.174772,137.497557 L91.9745784,137.497557 L91.9745784,126.589816 L113.883031,126.589816 L126.298821,139.008901 L126.298821,161.841949 L113.921098,174.221136 L41.031039,174.221136 L41.031039,126.589816 L66.4083725,126.589816 L66.4083725,137.497557 L53.7074437,137.497557 L53.7074437,160.523137 L53.7074437,160.523137 Z" id="path18" fill="#15213B"></path>
                        <polyline id="path20" fill="#15213B" points="112.755288 2.71229381 111.857412 2.71229381 111.857412 3.34369823 114.413045 3.34369823 114.413045 2.71229381 113.504188 2.71229381 113.504188 0.0186676092 112.755288 0.0186676092 112.755288 2.71229381"></polyline>
                        <path d="M117.605206,1.29026122 C117.590565,1.69069974 117.575557,2.16837092 117.575557,2.65738907 L117.565308,2.65738907 C117.456963,2.23206041 117.319335,1.75987971 117.191224,1.36932404 L116.786759,0.0717421843 L116.198913,0.0717421843 L115.843496,1.35541484 C115.734053,1.74743463 115.627903,2.21705311 115.544082,2.65738907 L115.533833,2.65738907 C115.518826,2.20936645 115.498328,1.69399403 115.478563,1.27928028 L115.414507,0.0186676092 L114.719413,0.0186676092 L114.930979,3.34369823 L115.93354,3.34369823 L116.257112,2.22803406 C116.366555,1.84516506 116.464652,1.43301353 116.54042,1.04465405 L116.558356,1.04465405 C116.648765,1.42898718 116.762235,1.86383267 116.874973,2.23828294 L117.224167,3.34369823 L118.212452,3.34369823 L118.389977,0.0186676092 L117.659378,0.0186676092 L117.605206,1.29026122" id="path22" fill="#15213B"></path>
                    </g>
                </g>
            </g>
        </g>
    </g>
</svg>