<?xml version="1.0" encoding="UTF-8"?>
<svg width="200px" height="200px" viewBox="0 0 200 200" version="1.1" xmlns="http://www.w3.org/2000/svg" xmlns:xlink="http://www.w3.org/1999/xlink">
    <!-- Generator: Sketch 54.1 (76490) - https://sketchapp.com -->
    <title>san-diego</title>
    <desc>Created with Sketch.</desc>
    <g id="san-diego" stroke="none" stroke-width="1" fill="none" fill-rule="evenodd">
        <g id="san-diego_BGL">
            <g id="san-diego" transform="translate(-1.000000, 3.000000)">
                <g id="g10" transform="translate(100.230146, 97.351257) scale(-1, 1) rotate(-180.000000) translate(-100.230146, -97.351257) translate(0.000000, 0.389486)" fill-rule="nonzero">
                    <g id="g12">
                        <path d="M124.733584,110.2098 C127.431735,122.100145 123.512301,133.209132 113.70282,141.529977 C105.608582,146.870065 101.797876,156.358591 105.034002,163.240044 C108.302376,170.202335 116.830872,171.273055 125.363508,168.319534 C129.708485,166.709968 131.13001,161.604114 130.648905,158.162952 C130.355405,156.052018 129.278585,154.267267 127.959469,152.796499 C135.015453,153.030515 140.683904,155.562633 144.296983,160.207429 C147.978262,164.942214 148.986882,171.490075 146.812106,176.500711 C145.216267,180.173492 142.14356,182.393154 138.160283,182.749842 L138.168781,182.76248 C137.432525,182.718248 68.946574,182.765095 68.946574,182.765095 C70.979067,177.445489 67.991555,171.379386 65.271396,166.190951 C62.9443135,161.746179 60.5416226,157.152588 60.4904181,152.413446 C61.956175,144.510734 72.633736,134.628914 79.041057,128.700736 C81.2071176,126.694608 82.9221425,125.110754 84.0941816,123.806673 C88.148273,119.0148 88.4589865,112.580243 84.9267454,106.594978 C82.5920367,102.631965 78.2520714,98.757634 74.1086444,99.3219732 C68.8674793,99.3790609 63.9248258,102.168291 61.1798272,106.632455 C59.3227369,109.65483 57.0196224,115.937952 60.9159604,125.381375 C56.7581525,127.653767 51.7577577,132.086554 48.9362791,137.861554 C43.6761575,130.326426 42.6394291,123.872258 41.6504191,117.601991 C40.784082,112.126592 39.8844075,106.462282 36.0499508,100.895804 C30.9619635,90.9536277 22.7254424,86.5957953 16.6908468,83.7911981 C39.2799761,83.7913122 96.7506342,83.7913122 96.7576068,83.7913122 C110.872844,83.7529633 121.069518,93.383555 124.733584,110.2098" id="path14" fill="#FFFFFF"></path>
                        <path d="M186.053951,106.726148 C183.360157,110.288894 178.721244,111.940077 171.937842,111.682311 L135.215478,111.697564 L135.232473,112.35211 C135.087793,107.738909 134.525851,102.032109 133.968484,99.5808285 C129.768187,80.2930622 118.422353,69.951708 101.749504,69.9941969 L94.0509571,69.4453279 L76.3897517,27.8075465 L76.4433531,27.935231 C73.8251674,21.3176228 66.3421154,16.3086867 61.1517191,14.7681057 C85.1455086,14.7681057 132.853533,14.7681057 132.985357,14.7681057 C133.342917,14.7936426 133.704617,14.8191795 133.704617,14.8191795 C149.186906,15.5979678 159.264394,20.8452556 162.843264,29.9823228 C162.881613,30.0842961 188.232867,91.5706967 188.232867,91.5706967 C188.232867,91.5706967 188.288211,91.6643901 188.305207,91.6898835 C188.556218,92.472768 188.858434,94.2814864 188.858434,96.5294742 C188.858434,99.702412 188.254002,103.698544 186.053951,106.726148 Z M150.212522,84.1190212 L133.266219,44.9963628 C126.099764,28.0415621 94.8466973,29.5225715 94.4144003,29.5565626 C104.501911,30.2801806 110.208928,32.7144658 114.532769,37.7403539 C116.086119,38.6766342 123.05255,57.3122509 134.227993,84.7700814 C137.492227,93.6602774 144.765232,91.2174944 144.765232,91.2174944 C153.595725,91.5961901 150.212522,84.1190212 150.212522,84.1190212 L150.212522,84.1190212 Z" id="path16" fill="#FFFFFF"></path>
                        <path d="M190.948014,110.280397 C186.96038,115.554899 180.483116,118.057166 171.703609,117.723574 L135.360158,117.772164 C135.360158,117.772164 135.330307,115.427215 135.232473,112.35211 L135.215478,111.697564 L171.937842,111.682311 C178.721244,111.940077 183.360157,110.288894 186.053951,106.726148 C188.254002,103.698544 188.858434,99.702412 188.858434,96.5294742 C188.858434,94.2814864 188.556218,92.472768 188.305207,91.6898835 C188.288211,91.6643901 188.232867,91.5706967 188.232867,91.5706967 C188.232867,91.5706967 162.881613,30.0842961 162.843264,29.9823228 C159.264394,20.8452556 149.186906,15.5979678 133.704617,14.8191795 C133.704617,14.8191795 133.342917,14.7936426 132.985357,14.7681057 C132.853533,14.7681057 85.1455086,14.7681057 61.1517191,14.7681057 C66.3421154,16.3086867 73.8251674,21.3176228 76.4433531,27.935231 L76.3897517,27.8075465 L94.0509571,69.4453279 L89.0037156,69.4453279 C81.7263533,52.1926694 72.3297772,30.1566361 72.3297772,30.1566361 C65.5590129,13.0054061 47.5829542,18.5471744 46.3974059,8.71991371 L133.070553,8.71991371 C134.985602,8.97101202 160.958065,8.59225101 168.469443,27.7820532 C168.469443,27.7820532 193.701293,88.9662382 193.701293,88.9788759 C194.620578,90.2642186 196.88469,102.100963 190.948014,110.280397" id="path18" fill="#4F99D9"></path>
                        <path d="M130.091538,109.043644 C133.262079,123.009189 128.678729,136.060462 117.179717,145.770366 C117.179717,145.770366 117.081883,145.844449 116.91585,145.968647 L116.894497,145.985643 C115.626367,146.804479 114.536909,147.722021 113.596489,148.692292 C113.502796,148.779231 113.421958,148.861594 113.349618,148.939164 C116.026416,148.504252 119.809669,147.88958 119.809669,147.88958 C136.692129,145.146542 145.109936,152.31997 148.624964,156.841221 C153.574372,163.210193 154.838361,171.785318 151.838212,178.688125 C149.442058,184.199257 144.590701,187.816694 138.607179,188.35445 L57.7837684,188.35445 L60.084486,186.305833 L61.849626,184.763597 C62.4778075,183.928636 62.9562975,183.141393 63.3162545,182.370929 C63.3247523,182.34805 63.3376079,182.326697 63.3476309,182.305561 C64.2712735,180.296818 64.3316294,178.398764 63.7060626,176.151866 C63.6838377,176.06667 63.6583443,175.981475 63.6354657,175.896497 C63.6184702,175.832655 63.5971168,175.770556 63.5783781,175.711725 C62.999658,173.730219 61.9415763,171.474822 60.4154633,168.735707 C57.8587231,163.852756 54.9596751,158.322013 55.0047786,152.124085 L55.0047786,151.905322 L55.0405128,151.688302 C56.6834157,141.912159 67.89699,131.53921 75.3199039,124.676496 C77.302064,122.840759 79.0155637,121.257558 79.9644817,120.204706 C83.4823419,116.040144 81.3051688,111.248053 80.2045982,109.37985 C78.2172088,106.006888 75.5258115,104.602359 74.815049,104.745514 L74.5487854,104.7965 L74.2764209,104.7965 C70.8657634,104.7965 67.635738,106.600861 65.848373,109.50492 C63.3903376,113.503667 63.7945266,119.182359 66.986421,125.500562 L68.4144826,128.328795 L65.4125898,129.334801 C61.8692362,130.52645 54.2005407,136.241747 52.5168921,144.072336 L51.3577087,149.483893 L47.7574854,145.282724 C38.8315552,134.862929 37.452737,126.149879 36.2355944,118.457215 C35.386035,113.099478 34.6558802,108.469281 31.4581027,103.885713 L31.3474138,103.724038 L31.2580782,103.549506 C26.6337644,94.3751798 18.743778,90.7536032 12.9824185,88.1149356 C8.83055908,86.2083839 5.55113766,84.7062391 5.01917706,81.4973492 L4.49146535,78.3096713 L7.72408364,78.3098127 L96.7488911,78.3098127 C113.421958,78.2631839 125.886884,89.7534806 130.091538,109.043644 Z M125.218828,158.924701 C124.85277,156.218051 120.601269,153.754133 119.137255,153.100458 L112.366491,150.087235 C109.425826,153.851966 108.693928,158.135715 109.996048,160.909476 C111.626095,164.373735 116.354125,165.291276 122.682352,163.408475 C124.525061,162.736061 125.439988,160.546032 125.218828,158.924701 L125.218828,158.924701 Z M36.0499508,100.895804 C39.8844075,106.462282 40.784082,112.126592 41.6504191,117.601991 C42.6394291,123.872258 43.6761575,130.326426 48.9362791,137.861554 C51.7577577,132.086554 56.7581525,127.653767 60.9159604,125.381375 C57.0196224,115.937952 59.3227369,109.65483 61.1798272,106.632455 C63.9248258,102.168291 68.8674793,99.3790609 74.1086444,99.3219732 C78.2520714,98.757634 82.5920367,102.631965 84.9267454,106.594978 C88.4589865,112.580243 88.148273,119.0148 84.0941816,123.806673 C82.9221425,125.110754 81.2071176,126.694608 79.041057,128.700736 C72.633736,134.628914 61.956175,144.510734 60.4904181,152.413446 C60.5416226,157.152588 62.9443135,161.746179 65.271396,166.190951 C67.991555,171.379386 70.979067,177.445489 68.946574,182.765095 C68.946574,182.765095 137.432525,182.718248 138.168781,182.76248 L138.160283,182.749842 C142.14356,182.393154 145.216267,180.173492 146.812106,176.500711 C148.986882,171.490075 147.978262,164.942214 144.296983,160.207429 C140.683904,155.562633 135.015453,153.030515 127.959469,152.796499 C129.278585,154.267267 130.355405,156.052018 130.648905,158.162952 C131.13001,161.604114 129.708485,166.709968 125.363508,168.319534 C116.830872,171.273055 108.302376,170.202335 105.034002,163.240044 C101.797876,156.358591 105.608582,146.870065 113.70282,141.529977 C123.512301,133.209132 127.431735,122.100145 124.733584,110.2098 C121.069518,93.383555 110.872844,83.7529633 96.7576068,83.7913122 C96.7506342,83.7913122 39.2799761,83.7913122 16.6908468,83.7911981 C22.7254424,86.5957953 30.9619635,90.9536277 36.0499508,100.895804 L36.0499508,100.895804 Z" id="path20" fill="#4F99D9"></path>
                        <path d="M114.532769,37.7403539 C110.208928,32.7144658 104.501911,30.2801806 94.4144003,29.5565626 C94.8466973,29.5225715 126.099764,28.0415621 133.266219,44.9963628 L150.212522,84.1190212 C150.212522,84.1190212 153.595725,91.5961901 144.765232,91.2174944 C144.765232,91.2174944 137.492227,93.6602774 134.227993,84.7700814 C123.05255,57.3122509 116.086119,38.6766342 114.532769,37.7403539 Z M138.973237,82.6465096 C141.34368,88.2639735 143.416047,85.3403037 145.050234,85.8170506 C145.041736,85.8170506 128.853042,48.3754261 128.853042,48.379566 C127.691244,44.7239983 124.265552,41.8003285 122.005798,40.5788281 C127.082673,53.7035299 137.245356,77.3778902 138.973237,82.6465096 L138.973237,82.6465096 Z" id="path22" fill="#4F99D9"></path>
                        <path d="M197.688928,98.546497 C197.637941,103.504403 196.701661,108.437687 193.275751,113.154605 C188.488236,119.488932 181.449247,121.655864 171.405751,121.270414 C171.431244,121.270414 135.287818,121.295907 135.287818,121.295907 C135.287818,121.295907 135.040947,130.692484 129.465972,137.246228 C143.041491,136.520213 150.127327,142.693518 153.276514,146.740637 C157.919567,152.713918 159.319738,160.62273 157.000282,167.271911 C157.608853,171.690099 157.07698,176.179103 155.327746,180.203125 C152.361587,187.033591 146.407917,191.334336 138.994372,192.001738 L46.4337938,192.050982 L58.8562309,181.472997 C60.701555,178.785958 61.0606404,178.168889 57.0433726,170.501936 C54.8304653,166.274185 52.1663045,161.173342 51.4104384,155.394203 L44.8651921,147.759498 C35.237215,136.522828 33.705219,126.834277 32.4752208,119.054892 C31.666625,113.957318 31.0308173,109.928937 28.3344085,106.062233 L28.0664018,105.679179 L27.8578795,105.262135 C23.8345107,97.2792393 16.9376744,94.1156709 11.3967559,91.5748367 C6.83719938,89.4811161 2.12614504,87.3235533 1.26394136,82.1187761 L0,74.5010672 L7.72408364,74.5010672 L11.4393101,74.5010672 C10.5073223,73.6414847 10.2732413,72.9690712 10.064719,71.7179375 L9.7625687,69.4453279 L12.9943372,69.4453279 L84.1835171,69.4453279 L68.1397213,31.4079877 C64.9521848,23.3475229 59.0902465,21.3006055 53.4174382,19.3302116 C48.4144287,17.585379 42.7424919,15.6107362 41.944137,8.98802935 L41.4547524,4.89831258 L45.5700714,4.89831258 C45.5700714,4.89831258 53.604825,4.87277568 53.6370729,4.88127345 C52.2854912,3.84288915 51.3790621,2.49383497 51.1433033,0.531962782 L137.811439,0.531962782 C139.730628,0.778792589 165.698951,0.400035942 173.214469,19.5898294 C173.214469,19.5898294 198.446537,80.773949 198.446537,80.7909446 C199.238137,81.8973982 201.025502,90.8557943 197.688928,98.546497 Z M7.72408364,78.3098127 L4.49146535,78.3096713 L5.01917706,81.4973492 C5.55113766,84.7062391 8.83055908,86.2083839 12.9824185,88.1149356 C18.743778,90.7536032 26.6337644,94.3751798 31.2580782,103.549506 L31.3474138,103.724038 L31.4581027,103.885713 C34.6558802,108.469281 35.386035,113.099478 36.2355944,118.457215 C37.452737,126.149879 38.8315552,134.862929 47.7574854,145.282724 L51.3577087,149.483893 L52.5168921,144.072336 C54.2005407,136.241747 61.8692362,130.52645 65.4125898,129.334801 L68.4144826,128.328795 L66.986421,125.500562 C63.7945266,119.182359 63.3903376,113.503667 65.848373,109.50492 C67.635738,106.600861 70.8657634,104.7965 74.2764209,104.7965 L74.5487854,104.7965 L74.815049,104.745514 C75.5258115,104.602359 78.2172088,106.006888 80.2045982,109.37985 C81.3051688,111.248053 83.4823419,116.040144 79.9644817,120.204706 C79.0155637,121.257558 77.302064,122.840759 75.3199039,124.676496 C67.89699,131.53921 56.6834157,141.912159 55.0405128,151.688302 L55.0047786,151.905322 L55.0047786,152.124085 C54.9596751,158.322013 57.8587231,163.852756 60.4154633,168.735707 C61.8820918,171.530167 62.9698068,173.755712 63.5783781,175.711725 C63.5971168,175.770556 63.6184702,175.832655 63.6354657,175.896497 C63.660959,175.981475 63.6823124,176.06667 63.7060626,176.151866 C64.3316294,178.398764 64.2712735,180.296818 63.3476309,182.305561 C63.3376079,182.326697 63.3247523,182.34805 63.3162545,182.370929 C62.9562975,183.141393 62.4778075,183.928636 61.849626,184.763597 L60.084486,186.305833 L57.7386648,188.35445 L57.7837684,188.35445 L138.607179,188.35445 C144.590701,187.816694 149.442058,184.199257 151.838212,178.688125 C154.838361,171.785318 153.574372,163.210193 148.624964,156.841221 C145.109936,152.31997 136.692129,145.146542 119.809669,147.88958 C119.809669,147.88958 116.026416,148.504252 113.349618,148.939164 C113.426316,148.855711 113.511293,148.77313 113.596489,148.692292 C114.536909,147.722021 115.626367,146.804479 116.894497,145.985643 L116.91585,145.968647 L117.047892,145.887809 L117.179717,145.770366 C128.678729,136.060462 133.262079,123.009189 130.091538,109.043644 C125.886884,89.7534806 113.421958,78.2631839 96.7488911,78.3098127 L7.72408364,78.3098127 Z M193.701293,88.9788759 C193.701293,88.9662382 168.469443,27.7820532 168.469443,27.7820532 C160.958065,8.59225101 134.985602,8.97101202 133.070553,8.71991371 L46.3974059,8.71991371 C47.5829542,18.5471744 65.5590129,13.0054061 72.3297772,30.1566361 C72.3297772,30.1566361 81.7263533,52.1926694 89.0037156,69.4453279 L94.0509571,69.4453279 L101.749504,69.9941969 C118.422353,69.951708 129.768187,80.2930622 133.968484,99.5808285 C134.525851,102.032109 135.087793,107.738909 135.232473,112.35211 C135.330307,115.427215 135.360158,117.772164 135.360158,117.772164 L171.703609,117.723574 C180.483116,118.057166 186.96038,115.554899 190.948014,110.280397 C196.88469,102.100963 194.620578,90.2642186 193.701293,88.9788759 L193.701293,88.9788759 Z" id="path24" fill="#0F2752"></path>
                        <path d="M119.137255,153.100458 C120.601269,153.754133 124.85277,156.218051 125.218828,158.924701 C125.439988,160.546032 124.525061,162.720809 122.682352,163.408475 C116.354125,165.291276 111.626095,164.373735 109.996048,160.909476 C108.693928,158.135715 109.425826,153.851966 112.366491,150.087235 L119.137255,153.100458" id="path26" fill="#0F2752"></path>
                        <path d="M138.973237,82.6465096 C137.245356,77.3778902 127.082673,53.7035299 122.005798,40.5788281 C124.265552,41.8003285 127.691244,44.7239983 128.853042,48.379566 C128.853042,48.3754261 145.041736,85.8170506 145.050234,85.8170506 C143.416047,85.3403037 141.34368,88.2639735 138.973237,82.6465096" id="path28" fill="#0F2752"></path>
                        <polyline id="path30" fill="#0F2752" points="162.792277 4.51530269 164.485949 4.51530269 164.485949 0 165.549913 0 165.549913 4.51530269 167.243803 4.51530269 167.243803 5.29833981 162.792277 5.29833981 162.792277 4.51530269"></polyline>
                        <polyline id="path32" fill="#0F2752" points="171.376118 1.51077116 169.882253 5.29833981 168.414099 5.29833981 168.414099 0 169.380012 0 169.380012 4.37060086 171.090897 0 171.639766 0 173.269814 4.37060086 173.269814 0 174.235945 0 174.235945 5.29833981 172.767573 5.29833981 171.376118 1.51077116"></polyline>
                    </g>
                </g>
            </g>
        </g>
    </g>
</svg>