<?xml version="1.0" encoding="UTF-8"?>
<svg width="200px" height="200px" viewBox="0 0 200 200" version="1.1" xmlns="http://www.w3.org/2000/svg" xmlns:xlink="http://www.w3.org/1999/xlink">
    <!-- Generator: Sketch 54.1 (76490) - https://sketchapp.com -->
    <title>utah-st</title>
    <desc>Created with Sketch.</desc>
    <g id="utah-st" stroke="none" stroke-width="1" fill="none" fill-rule="evenodd">
        <g id="utah-st_BGL">
            <g id="utah-st" transform="translate(0.000000, 25.000000)">
                <g id="g10" transform="translate(99.911109, 75.505781) scale(-1, 1) rotate(-180.000000) translate(-99.911109, -75.505781) translate(0.000000, 0.128006)" fill-rule="nonzero">
                    <g id="g12">
                        <polyline id="path14" fill="#132534" points="184.900262 107.185064 184.900262 150.352352 123.559819 150.352352 123.559819 107.185064 184.900262 107.185064"></polyline>
                        <path d="M184.900262,49.3361054 C164.676263,53.8238564 144.157863,56.6527986 123.559819,57.8375097 L123.559819,43.7355367 C123.559819,38.1633413 123.559819,34.1405858 121.622753,31.8299725 C119.582575,29.4016704 114.874308,28.3150215 106.355908,28.3150215 L96.8433754,28.3150215 C88.3235533,28.3150215 83.616709,29.4016704 81.5786646,31.8299725 C79.6366202,34.1405858 79.6366202,38.1633413 79.6366202,43.7355367 L79.6366202,57.8480341 C59.0408519,56.6797497 38.5247279,53.8589142 18.301084,49.3824699 L18.301084,34.9697413 C18.2258484,33.2530481 18.2624707,24.9599994 25.2686216,16.7985774 C34.2608347,6.33250118 50.4930832,0.676944339 73.5167982,0 L73.5480871,0 L73.5786648,0 L129.650486,0 L129.680352,0 L129.707375,0 L129.793419,0.00416667012 C152.747374,0.680555361 168.940085,6.33250118 177.932084,16.7985774 C184.77084,24.7652972 184.998395,32.6605503 184.900262,34.9697413 L184.900262,49.3361054" id="path16" fill="#132534"></path>
                        <polyline id="path18" fill="#132534" points="79.6366202 107.185064 79.6366202 150.352352 18.301084 150.352352 18.301084 107.185064 79.6366202 107.185064"></polyline>
                        <polyline id="path20" fill="#BAAD9B" points="75.9580425 107.171553 75.9580425 146.588441 21.9855639 146.588441 21.9855639 107.171553 75.9580425 107.171553"></polyline>
                        <polyline id="path22" fill="#BAAD9B" points="181.216707 107.171553 181.216707 146.588441 127.239819 146.588441 127.239819 107.171553 181.216707 107.171553"></polyline>
                        <path d="M181.216707,50.1260787 C163.396974,53.8980253 145.354663,56.3988608 127.239819,57.608603 L127.239819,43.7355367 C127.239819,31.7725148 127.239819,24.5575105 106.355908,24.5575105 L96.8433754,24.5575105 C75.9580425,24.5575105 75.9580425,31.7725148 75.9580425,43.7355367 L75.9580425,57.6186297 C57.8463986,56.413083 39.8069323,53.9241942 21.9855639,50.158861 L21.9855639,34.8841947 C21.9394128,34.061368 21.7152706,26.6446927 28.0344171,19.2811373 C36.3208524,9.63135976 51.6400343,4.40888878 73.5786648,3.76250302 L129.650486,3.76250302 L129.688886,3.76250302 C151.581863,4.41166922 166.877862,9.63135976 175.163729,19.2811373 C181.334751,26.4696882 181.288529,33.5374925 181.216707,34.8649947 L181.216707,50.1260787" id="path24" fill="#BAAD9B"></path>
                        <polyline id="path26" fill="#132534" points="178.833062 107.171553 178.833062 144.129419 129.619197 144.129419 129.619197 107.171553 178.833062 107.171553"></polyline>
                        <path d="M178.833062,50.592781 C162.56924,53.9350031 146.127641,56.2060786 129.619197,57.4185941 L129.619197,43.7355367 C129.619197,31.6622214 129.619197,22.0969239 106.355908,22.0969239 L96.8433754,22.0969239 C73.5786648,22.0969239 73.5786648,31.6622214 73.5786648,43.7355367 L73.5786648,57.4619719 C57.0711452,56.2666653 40.6277679,54.017492 24.3600349,50.6980254 L24.3600349,34.7953058 C24.3600349,34.7953058 22.1277861,7.74058647 73.5786648,6.21860962 L129.619197,6.21860962 C181.072351,7.74058647 178.833062,34.7953058 178.833062,34.7953058 L178.833062,50.592781" id="path28" fill="#132534"></path>
                        <polyline id="path30" fill="#132534" points="73.5786648 107.171553 73.5786648 144.129419 24.3600349 144.129419 24.3600349 107.171553 73.5786648 107.171553"></polyline>
                        <path d="M176.292973,68.1139183 C176.283018,69.8816694 176.275196,71.6487093 176.266662,73.4186648 C183.272529,72.5710204 190.264173,71.6053315 197.23164,70.5202471 C197.228084,74.9759981 197.226662,79.4339536 197.220973,83.8904868 C190.226484,84.5269312 183.219195,85.095109 176.199818,85.5921756 C176.192707,87.0904867 176.183462,88.5909311 176.176351,90.08782 C183.641595,89.6988422 191.098306,89.2479978 198.544351,88.7367089 C198.544351,88.9464867 198.544351,89.1576867 198.544351,89.3653311 C198.544351,93.8503088 198.540084,98.3352864 198.540084,102.819553 C198.540084,102.864353 198.540084,102.909153 198.540084,102.953953 C136.607285,102.931909 71.0566382,102.930486 9.12554644,102.891375 C4.17250123,102.930486 -0.00166666662,98.7605309 -2.11758237e-22,93.787731 C-2.11758237e-22,88.5859533 -2.11758237e-22,83.386309 -2.11758237e-22,78.1845314 C-2.11758237e-22,75.5292426 2.24222572,72.8255982 4.92083188,71.7596427 C3.32667014,71.524976 1.73305596,71.2839093 0.139444619,71.0363716 C0.139444619,67.1822205 0.139444619,63.3286384 0.139444619,59.4752696 C0.140278041,55.4296875 4.19000167,51.5855632 8.93973311,52.7338653 C17.1905418,54.6488875 25.4875016,56.2936164 33.8166747,57.6689052 C37.9908257,58.4058297 44.4402478,62.7127451 44.4696878,66.8600161 C44.5011189,71.4019538 44.5321944,75.9473759 44.5636256,80.4892424 C44.5277856,83.603909 41.7072345,85.2849756 38.3274657,86.003909 C40.2030212,86.1112867 42.0816345,86.2165312 43.9583278,86.317509 C43.9686389,87.86702 43.9794478,89.41582 43.9905411,90.9660422 C48.1461321,91.1253311 52.301652,91.2647088 56.4600164,91.3863088 C56.3935986,81.1619535 56.3288875,70.9369582 56.2624697,60.7119629 C62.208354,61.361634 68.1633405,61.8744162 74.1247981,62.2541496 C79.404798,62.5722295 84.6876423,62.786914 89.9733311,62.8935806 C91.0705755,65.3752873 92.1663977,67.8486027 93.2615088,70.314736 C98.6631086,70.367216 104.063997,70.3288871 109.463464,70.2002471 C110.587019,67.7078028 111.711997,65.2061139 112.834842,62.6930473 C124.68053,62.2427718 136.511285,61.2636429 148.29013,59.7461318 C148.221152,70.2180249 148.147196,80.6890646 148.077507,91.1630199 C150.405685,91.0798199 156.354129,90.9930644 158.685863,90.8991977 C158.758396,80.1927091 158.828796,69.4883538 158.904174,58.7825052 C172.537596,56.7785941 186.089951,54.0566742 199.508617,50.6169587 C199.508617,55.1658653 199.508617,59.7177585 199.508617,64.2708606 C191.801595,65.7266472 184.061151,67.0066472 176.292973,68.1139183 Z M25.4891371,68.0833405 C23.0833061,67.7575094 20.6791817,67.4183094 18.2766929,67.0605494 C18.2850129,68.6627538 18.2919107,70.2650294 18.2988795,71.8648871 C20.7027906,71.9900426 23.1061328,72.1059538 25.5135994,72.2133315 C25.5041416,70.8371893 25.4972438,69.4599805 25.4891371,68.0833405 Z M25.7447105,86.6311089 C22.7513594,86.6958201 19.7111462,86.7605312 17.7964084,86.7975089 C17.8028084,88.1279978 17.8083551,89.4591978 17.8141862,90.7875533 C20.4664173,90.9247977 23.1180794,91.0577755 25.7708082,91.1822199 C25.7633416,89.6661311 25.7538838,88.1493311 25.7447105,86.6311089 L25.7447105,86.6311089 Z M130.283375,91.6778644 C130.329597,83.1679979 130.37653,74.6631092 130.424886,66.155305 C126.104175,74.9781315 121.795553,83.5185757 117.504708,91.9082644 C121.764264,91.8513755 126.023819,91.7724422 130.283375,91.6778644 Z M104.937953,81.0254202 C102.59342,81.0510202 100.249597,81.0616869 97.9057753,81.0616869 C99.1210642,83.7397312 100.334931,86.4149312 101.547375,89.0922644 C102.673775,86.4078201 103.804442,83.7226646 104.937953,81.0254202 Z M86.9603534,91.9480866 C82.707909,83.7077312 78.4341314,75.3749314 74.1461315,66.8238917 C74.181687,75.1466648 74.2172426,83.4716424 74.2549315,91.7937755 C78.4888869,91.8655977 82.7256868,91.9153755 86.9603534,91.9480866 L86.9603534,91.9480866 Z" id="path32" fill="#BAAD9B"></path>
                        <path d="M44.0671989,101.085153 C44.0486389,98.3175087 44.0291545,95.5491532 44.0100256,92.7807977 C48.8863988,92.9386643 53.7636253,93.0744866 58.6430563,93.1889754 C58.5791985,83.0193757 58.5144163,72.8483537 58.4514119,62.6794651 C62.9458473,63.1138829 67.445545,63.4730651 71.9487982,63.759714 C71.9957315,73.656887 72.0419538,83.5541312 72.088176,93.4513754 C77.349687,93.531731 82.6104868,93.589331 87.8741311,93.621331 C89.1562644,96.1678198 90.4348422,98.7071975 91.7127088,101.24302 C75.8293314,101.232353 59.9455274,101.178309 44.0671989,101.085153" id="path34" fill="#132534"></path>
                        <path d="M94.126931,101.292797 C99.5349308,101.296353 104.941508,101.292797 110.350931,101.284975 C116.698308,88.9976867 123.091197,76.5155536 129.508975,63.4210829 C124.475019,63.8094206 119.436086,64.1024695 114.392175,64.3064162 C113.267197,66.8238917 112.144353,69.3311272 111.020797,71.8279093 C104.580264,71.9943093 98.1354642,72.0383982 91.6927977,71.9580426 C90.5983977,69.4869316 89.5018644,67.0102739 88.40462,64.5241584 C83.9402646,64.4211184 79.4780425,64.2439095 75.0179537,63.9958028 C81.427198,76.7729759 87.8023089,89.0652422 94.126931,101.292797 L94.126931,101.292797 Z M107.929597,79.3272869 C105.851731,84.2837312 103.779553,89.2117311 101.712353,94.133331 C101.64622,94.133331 101.580086,94.133331 101.51182,94.133331 C99.2967086,89.2223978 97.0730642,84.3157312 94.8444421,79.3948425 C99.2056864,79.4126202 103.569064,79.3912869 107.929597,79.3272869 L107.929597,79.3272869 Z" id="path36" fill="#132534"></path>
                        <path d="M2.25555905,59.9169407 C2.25611372,63.0258473 2.25944172,66.1355361 2.26111283,69.245296 C6.88777938,69.9969405 11.5255464,70.6908427 16.1710929,71.3301316 C16.1639107,69.5744694 16.1560885,67.818025 16.1499729,66.0630739 C16.1471996,65.3716606 16.8472174,64.8214028 17.6747373,64.957225 C20.5180439,65.4222206 23.3655461,65.8624695 26.2158216,66.2769761 C26.7150216,66.3502917 27.6110926,67.0030205 27.6155726,67.7113583 C27.6278038,69.8766916 27.6402482,72.0419538 27.6539015,74.207287 C27.6428082,74.2599093 8.34751979,73.4115537 8.01002647,73.3439982 C5.42222209,73.1647982 2.12083195,76.0263092 2.12361239,78.4398203 C2.12638572,83.584709 2.12888884,88.73102 2.13222395,93.8766199 C2.13333328,97.583642 5.32944342,100.829153 9.12113755,100.841953 C17.7922129,100.926575 26.4652793,100.999109 35.1411191,101.056709 C39.1047101,101.068797 41.9000167,98.2079975 41.8808167,95.4168865 C41.8641767,92.9436421 41.8472523,90.4725311 41.8302567,87.9999978 C37.1783102,87.7703089 32.5308436,87.5164423 27.8872171,87.2305756 C27.8949682,88.7608867 27.9041415,90.2919089 27.9130304,91.8207977 C27.9177949,92.4963532 27.0269149,93.1384866 26.1588616,93.1043532 C23.1352883,92.9870199 20.1113595,92.8611532 17.0894218,92.7274643 C16.2522307,92.6919088 15.6877507,91.8207977 15.6858307,91.3059533 C15.6775107,89.1505755 15.6683374,86.99662 15.6597329,84.8419534 C15.6555374,84.851909 32.9900081,84.6321757 34.4536169,84.5518201 C37.055288,84.5141312 42.3886212,83.8115535 42.4238923,80.3107535 C42.3927456,75.7439981 42.3613856,71.1765316 42.3297412,66.6111272 C42.3102567,63.6905229 37.1255457,60.0683363 33.8291903,59.5144518 C25.4983105,58.1944163 17.1991462,56.617243 8.94499533,54.7825053 C5.42527986,53.9741853 2.25555905,57.0269141 2.25555905,59.9169407" id="path38" fill="#132534"></path>
                        <path d="M174.136173,66.475305 C174.119107,69.521136 174.101329,72.5674649 174.086396,75.6145759 C181.098662,74.8487092 188.097418,73.9697759 195.073417,72.9784871 C195.071995,75.9722648 195.067728,78.9639091 195.065595,81.9569757 C188.069684,82.6531535 181.059551,83.2682646 174.038751,83.8044423 C174.023818,86.5834645 174.009596,89.3617755 173.99324,92.1407977 C181.464173,91.8193755 188.929417,91.4474644 196.381862,91.0236422 C196.381862,91.2327088 196.381862,91.4375088 196.381862,91.6472866 C196.38044,94.6588421 196.376173,97.6696864 196.374751,100.684797 C196.374751,100.727464 196.374751,100.770842 196.374751,100.813509 C169.744351,101.085153 139.474485,101.240886 112.818486,101.282131 C114.102753,98.7320864 115.386308,96.1713754 116.671997,93.5985754 C121.932797,93.5388421 127.195019,93.4570643 132.453686,93.3496866 C132.511286,83.2895979 132.568174,73.2295093 132.627908,63.1686384 C137.124974,62.7902562 141.614219,62.332514 146.099907,61.8047273 C146.031641,72.209776 145.959819,82.6140424 145.888707,93.0211532 C149.668263,92.9116421 157.066663,92.7914643 160.843374,92.6577755 C160.916618,81.8730646 160.990574,71.0905582 161.060974,60.3044252 C173.240173,58.5235896 185.352529,56.1919275 197.365328,53.3105764 C197.361062,56.381083 197.361062,59.4480341 197.358217,62.5180429 C189.648351,64.0199806 181.905773,65.340585 174.136173,66.475305" id="path40" fill="#132534"></path>
                        <path d="M189.890129,19.9338662 L190.375817,19.9338662 C190.942573,19.9338662 191.400529,20.1152706 191.400529,20.5575106 C191.400529,20.9464173 191.103995,21.2066839 190.456884,21.2066839 C190.186662,21.2066839 189.998217,21.1810839 189.890129,21.1547017 L189.890129,19.9338662 Z M189.863106,17.518364 L188.838395,17.518364 L188.838395,21.7777772 C189.243017,21.8566395 189.809773,21.9080528 190.53724,21.9080528 C191.373506,21.9080528 191.751106,21.7777772 192.074662,21.5963728 C192.317862,21.4149684 192.507017,21.0766928 192.507017,20.6614039 C192.507017,20.1941328 192.129417,19.8299728 191.589684,19.6735995 L191.589684,19.6224706 C192.021329,19.4658128 192.263817,19.1544173 192.398929,18.5827551 C192.53404,17.9335818 192.614395,17.673884 192.723195,17.518364 L191.616706,17.518364 C191.481595,17.673884 191.400529,18.063644 191.266129,18.5572262 C191.185062,19.0244262 190.915551,19.2327817 190.348795,19.2327817 L189.863106,19.2327817 L189.863106,17.518364 Z M187.13884,19.7525328 C187.13884,17.8561418 188.595906,16.3491551 190.591995,16.3491551 C192.53404,16.3491551 193.964084,17.8561418 193.964084,19.7260795 C193.964084,21.622755 192.53404,23.1552705 190.564262,23.1552705 C188.595906,23.1552705 187.13884,21.622755 187.13884,19.7525328 Z M195.096173,19.7525328 C195.096173,17.3361062 193.127106,15.4397152 190.564262,15.4397152 C188.029151,15.4397152 186.00604,17.3361062 186.00604,19.7525328 C186.00604,22.1164083 188.029151,24.0122305 190.564262,24.0122305 C193.127106,24.0122305 195.096173,22.1164083 195.096173,19.7525328 L195.096173,19.7525328 Z" id="path42" fill="#132534"></path>
                    </g>
                </g>
            </g>
        </g>
    </g>
</svg>