<?xml version="1.0" encoding="UTF-8"?>
<svg width="200px" height="200px" viewBox="0 0 200 200" version="1.1" xmlns="http://www.w3.org/2000/svg" xmlns:xlink="http://www.w3.org/1999/xlink">
    <!-- Generator: Sketch 63.1 (92452) - https://sketch.com -->
    <title>virginia</title>
    <desc>Created with Sketch.</desc>
    <defs>
        <polygon id="path-1" points="0.0437956204 0.353284672 199.470687 0.353284672 199.470687 155.430657 0.0437956204 155.430657"></polygon>
        <polygon id="path-3" points="0.0437956204 0.153682597 199.470803 0.153682597 199.470803 74.8372263 0.0437956204 74.8372263"></polygon>
    </defs>
    <g id="virginia" stroke="none" stroke-width="1" fill="none" fill-rule="evenodd">
        <g id="virginia_BGL" transform="translate(0.000000, 0.000000)">
            <g id="VSabre_ForWhiteBackground_FullColor_RGB" transform="translate(0.000000, 19.000000)">
                <path d="M147.262044,6.92262774 C149.272263,2.91678832 157.557664,0.384671533 162.065693,0.369343066 L117.521168,0.352554745 L125.750365,6.92262774 L147.262044,6.92262774" id="Fill-1" fill="#003A70"></path>
                <path d="M162.111679,0.369343066 C162.112409,0.369343066 162.112409,0.369343066 162.113139,0.369343066 C162.112409,0.369343066 162.112409,0.369343066 162.111679,0.369343066" id="Fill-3" fill="#003A70"></path>
                <g id="Group-8" transform="translate(37.226277, 0.000000)">
                    <path d="M124.886861,0.367881795 C120.389781,0.365693431 112.052555,2.90291971 110.035766,6.92262774 L62.5087591,101.667153 L14.980292,6.92262774 C12.9642336,2.90291971 4.6270073,0.365693431 0.129927007,0.367881795 L0.129927007,0.369343066 L0.131386861,0.369343066 L0.129927007,0.369343066 C0.129927007,0.369343066 4.99562044,2.40510949 8.92554745,9.23576642 L62.5087591,116.053285 L116.091971,9.23576642 C120.021168,2.40510949 124.886861,0.369343066 124.886861,0.369343066 L124.885401,0.369343066 C124.886861,0.369343066 124.886861,0.369343066 124.886861,0.369343066 L124.886861,0.367881795" id="Fill-4" fill="#232D4B"></path>
                    <path d="M62.5087591,64.5919708 L86.2656934,17.1978102 C88.0474453,13.6459854 88.8467153,9.89562044 88.5240876,6.92262774 L80.2948905,0.352554745 C82.5510949,4.20875912 82.7116788,9.81532847 80.710219,13.8905109 L62.5080292,50.1722628 L44.3072993,13.8905109 C42.3051095,9.81532847 42.4656934,4.20875912 44.7218978,0.352554745 L36.4934307,6.92262774 C36.170073,9.89562044 36.9693431,13.6459854 38.7510949,17.1978102 L62.5087591,64.5919708" id="Fill-6" fill="#232D4B"></path>
                    <path d="M14.980292,6.92262774 C12.9708029,2.91678832 4.68540146,0.384671533 0.17810219,0.369343066 L44.7218978,0.352554745 L36.4927007,6.92262774 L14.980292,6.92262774" id="Fill-7" fill="#003A70"></path>
                </g>
                <polyline id="Fill-9" fill="#003A70" points="37.3576642 0.369343066 37.3569343 0.369343066 37.3576642 0.369343066"></polyline>
                <path d="M147.262044,6.92262774 L125.750365,6.92262774 C126.072993,9.89562044 125.273723,13.6459854 123.491971,17.1978102 L99.7343066,64.5927007 L99.7343066,83.1270073 L133.791241,15.2357664 C135.554015,11.8394161 141.561314,6.92262774 147.262044,6.92262774" id="Fill-10" fill="#F84C1E"></path>
                <path d="M133.791241,15.2357664 L99.7343066,83.1270073 L99.7343066,101.667883 L147.262044,6.92262774 C141.561314,6.92262774 135.554015,11.8394161 133.791241,15.2357664" id="Fill-11" fill="#FF6A14"></path>
                <path d="M52.2065693,6.92262774 L73.7189781,6.92262774 C73.3963504,9.89562044 74.1956204,13.6459854 75.9773723,17.1978102 L99.7350365,64.5927007 L99.7350365,83.1270073 L65.6781022,15.2357664 C63.9153285,11.8394161 57.9080292,6.92262774 52.2065693,6.92262774" id="Fill-12" fill="#FF6A14"></path>
                <g id="Group-17" transform="translate(0.000000, 6.569343)">
                    <mask id="mask-2" fill="white">
                        <use xlink:href="#path-1"></use>
                    </mask>
                    <g id="Clip-14"></g>
                    <path d="M65.6781022,8.66642336 L99.7350365,76.5576642 L99.7350365,95.0985401 L52.2065693,0.353284672 C57.9080292,0.353284672 63.9153285,5.27007299 65.6781022,8.66642336" id="Fill-13" fill="#F84C1E" mask="url(#mask-2)"></path>
                    <path d="M173.821898,138.876642 C171.776642,141.624088 168.465693,143.409489 164.727007,143.409489 C160.551825,143.409489 156.911679,141.182482 154.971533,137.878102 C156.556204,138.146715 173.821898,138.876642 173.821898,138.876642 Z M34.7437956,143.409489 C31.0051095,143.409489 27.6941606,141.624088 25.649635,138.876642 C25.649635,138.876642 42.9145985,138.146715 44.4992701,137.878102 C42.5591241,141.182482 38.9189781,143.409489 34.7437956,143.409489 Z M198.036496,76.0547445 C197.89708,76.150365 197.756204,76.2467153 197.616788,76.3423358 C197.610219,76.3467153 197.60292,76.3510949 197.59562,76.3569343 L197.59562,76.3562044 C168.348905,96.2087591 134.405109,111.336496 99.7350365,120.456204 C65.0649635,111.336496 31.1211679,96.2087591 1.87518248,76.3554745 L1.87518248,76.3562044 C1.86861314,76.3518248 1.8620438,76.3467153 1.8540146,76.3423358 C1.71386861,76.2467153 1.57445255,76.1510949 1.43430657,76.0554745 C-0.230656934,74.9445255 -0.564963504,75.1080292 1.0649635,76.6372263 C5.24671533,80.859854 15.780292,90.9014599 32.6277372,101.065693 L32.6277372,101.064964 C43.9532847,108.081022 56.7956204,114.59562 67.8372263,118.358394 C73.680292,120.509489 79.2094891,122.384672 84.4948905,124.060584 C73.9467153,126.283942 63.3846715,127.945985 52.919708,128.994891 C52.3343066,127.121898 50.8335766,125.663504 49.1518248,125.507299 C47.0817518,125.315328 45.5021898,127.231387 45.6510949,129.715328 C45.659854,129.881022 45.679562,130.044526 45.7029197,130.207299 C37.7554745,131.1 23.9620438,131.364964 23.5715328,131.372993 L23.5525547,131.372993 C23.6021898,130.859854 23.6744526,130.375912 23.7927007,129.886131 L23.7963504,129.864964 C23.8021898,129.823358 23.8087591,129.781022 23.8087591,129.735766 C23.8087591,129.282482 23.4408759,128.913139 22.9861314,128.913139 C22.6167883,128.913139 22.3072993,129.158394 22.2036496,129.494891 C21.9313869,130.082482 21.6905109,130.686861 21.4868613,131.305109 L19.540146,131.316058 L15.189781,131.335036 C15.1350365,131.051825 14.8927007,130.823358 14.5781022,130.820438 C14.3941606,130.816788 14.059854,130.814599 13.8722628,130.811679 C13.5985401,130.807299 13.3525547,130.978102 13.270073,131.237226 C13.1372263,131.660584 13.0211679,132.090511 12.9218978,132.527737 C12.9029197,132.524818 12.8846715,132.521898 12.8642336,132.521898 C12.5978102,132.521898 12.3751825,132.709489 12.3240876,132.967883 C12.1912409,133.646715 12.1007299,134.337956 12.0569343,135.040146 C12.0175182,135.7 12.019708,136.349635 12.0613139,136.988321 C12.0810219,137.281022 12.319708,137.509489 12.6094891,137.521168 C12.6547445,137.962774 12.7182482,138.40073 12.8014599,138.830657 C12.859854,139.135036 13.1240876,139.356204 13.4321168,139.358394 C13.640146,139.359854 13.8437956,139.362044 14.0437956,139.362774 C14.3905109,139.365693 14.659854,139.091241 14.6766423,138.762044 C16.8693431,138.815328 19.6408759,138.816788 20.9051095,138.794891 C22.1072993,145.773723 28.2080292,150.960584 35.9737226,150.963504 C44.2985401,150.966423 51.6445255,145.008759 53.3693431,137.268613 C66.0379562,135.683212 81.0306569,133.489051 99.7350365,128.510949 C118.440876,133.489051 133.433577,135.683212 146.10219,137.268613 C147.826277,145.008759 155.172993,150.965693 163.49708,150.963504 C171.262774,150.961314 177.364234,145.774453 178.565693,138.794161 C179.831387,138.815328 182.60146,138.815328 184.793431,138.762044 C184.810949,139.091971 185.081022,139.364964 185.427007,139.362044 C185.627737,139.361314 185.831387,139.359854 186.037956,139.359124 C186.345985,139.356204 186.611679,139.134307 186.670073,138.830657 C186.751825,138.40073 186.816058,137.962774 186.860584,137.520438 C187.151095,137.509489 187.389781,137.280292 187.408759,136.989051 C187.451095,136.350365 187.454745,135.70073 187.413139,135.039416 C187.370803,134.337956 187.281022,133.647445 187.147445,132.968613 C187.09635,132.708759 186.872263,132.521168 186.608029,132.521168 C186.586861,132.521168 186.567883,132.525547 186.548905,132.527737 C186.449635,132.091241 186.335036,131.661314 186.20073,131.237226 C186.118978,130.977372 185.873723,130.807299 185.59927,130.812409 C185.410949,130.814599 185.077372,130.816788 184.892701,130.818978 C184.578102,130.824088 184.335036,131.051095 184.281022,131.334307 L179.930657,131.315328 L177.983942,131.305839 C177.780292,130.686861 177.539416,130.082482 177.267883,129.494161 C177.162774,129.159124 176.854015,128.913139 176.484672,128.913139 C176.029927,128.913139 175.662044,129.281752 175.662044,129.736496 C175.662044,129.780292 175.667153,129.824088 175.675182,129.865693 L175.667883,129.867883 C175.786861,130.357664 175.868613,130.860584 175.918248,131.372993 L175.89927,131.372993 C175.508759,131.364964 161.715328,131.1 153.767883,130.207299 C153.775182,130.152555 153.778102,130.09708 153.785401,130.042336 C153.79927,129.933577 153.813869,129.826277 153.821168,129.715328 C153.969343,127.232117 152.388321,125.315328 150.318978,125.508029 C148.637226,125.662774 147.136496,127.121898 146.550365,128.994891 C136.085401,127.945985 125.523358,126.284672 114.975182,124.060584 C120.260584,122.384672 125.790511,120.508759 131.634307,118.357664 C142.675182,114.594891 155.517518,108.081752 166.844526,101.064234 L166.844526,101.065693 C183.691971,90.9007299 194.223358,80.859854 198.405839,76.6372263 C200.035036,75.1080292 199.70219,74.9445255 198.036496,76.0547445 L198.036496,76.0547445 Z" id="Fill-15" fill="#232D4B" mask="url(#mask-2)"></path>
                    <path d="M186.027007,146.931387 C186.855474,146.931387 187.589051,146.994161 187.589051,147.868613 C187.589051,148.805839 186.308029,148.648175 185.370803,148.648175 L184.307299,148.648175 L184.307299,146.931387 L186.027007,146.931387 Z M186.745255,149.648175 C187.665693,149.618978 188.586861,149.116058 188.586861,147.758394 C188.586861,146.305839 187.462774,145.931387 186.214599,145.931387 L183.309489,145.931387 L183.309489,152.833577 L184.307299,152.833577 L184.307299,149.648175 L185.587591,149.648175 L187.353285,152.833577 L188.493431,152.833577 L186.745255,149.648175 Z M185.683212,155.474453 C189.118248,155.474453 191.835766,152.757664 191.835766,149.337226 C191.835766,145.916058 189.118248,143.19854 185.683212,143.19854 C182.245985,143.19854 179.529197,145.916058 179.529197,149.337226 C179.529197,152.757664 182.245985,155.474453 185.683212,155.474453 Z M185.683212,144.19781 C188.493431,144.19781 190.837956,146.432847 190.837956,149.337226 C190.837956,152.225547 188.493431,154.475182 185.683212,154.475182 C182.871533,154.475182 180.529197,152.225547 180.529197,149.337226 C180.529197,146.432847 182.871533,144.19781 185.683212,144.19781 L185.683212,144.19781 Z" id="Fill-16" fill="#232D4B" mask="url(#mask-2)"></path>
                </g>
                <path d="M148.517518,144.167153 C148.517518,144.167153 150.362774,153.182482 160.341606,156.589051 C160.341606,156.589051 150.015328,155.023358 146.821898,143.964964 L148.517518,144.167153" id="Fill-18" fill="#003A70"></path>
                <path d="M146.551825,135.564234 L148.343796,135.759124 C148.343796,135.759124 149.824818,137.264964 149.554015,139.968613 C134.982482,138.563504 120.890511,136.20365 107.30365,132.982482 C109.794161,132.255474 112.367883,131.462774 114.986131,130.632117 C125.531387,132.854745 136.089781,134.515328 146.551825,135.564234" id="Fill-19" fill="#003A70"></path>
                <path d="M179.931387,137.890511 L184.281752,137.909489 C184.281752,137.908759 184.282482,137.908759 184.282482,137.908029 L184.283942,137.909489 C184.283942,137.909489 185.256204,140.770803 184.79635,145.336496 L184.79562,145.342336 C184.79562,145.340876 184.794161,145.338686 184.794161,145.336496 C184.375182,145.346715 183.932847,145.354015 183.485401,145.361314 C183.187591,139.392701 178.865693,138.015328 178.389781,137.882482 L179.931387,137.890511" id="Fill-20" fill="#003A70"></path>
                <g id="Group-24" transform="translate(0.000000, 81.751825)">
                    <mask id="mask-4" fill="white">
                        <use xlink:href="#path-3"></use>
                    </mask>
                    <g id="Clip-22"></g>
                    <path d="M39.1291971,74.8372263 C39.1291971,74.8372263 49.4554745,73.2715328 52.649635,62.2131387 L50.9540146,62.4153285 C50.9540146,62.4153285 49.1094891,71.4306569 39.1291971,74.8372263" id="Fill-21" fill="#003A70" mask="url(#mask-4)"></path>
                    <path d="M49.9182482,58.2167883 C49.6474453,55.5131387 51.1284672,54.0072993 51.1284672,54.0072993 L52.9189781,53.8124088 L52.9211679,53.8124088 C65.8817518,52.5138686 78.9919708,50.2781022 92.0408759,47.1905109 C64.7832117,39.1985401 39.750365,27.640146 17.2430657,13.2189781 C9.61021898,8.18467153 1.8919708,2.15766423 0.000145196094,0.225547445 C-0.0197080292,0.0248175182 0.496350365,0.245985401 1.4350365,0.871532847 C1.57518248,0.967153285 1.71459854,1.06350365 1.85547445,1.15839416 C1.86131387,1.16350365 1.86861314,1.16934307 1.87591241,1.17372263 L1.87591241,1.1729927 C31.1218978,21.0262774 65.0656934,36.1532847 99.7357664,45.2729927 C134.405839,36.1532847 168.350365,21.0262774 197.59562,1.1729927 L197.59562,1.17372263 C197.60292,1.16934307 197.609489,1.16350365 197.616788,1.15839416 C197.757664,1.06350365 197.89781,0.967153285 198.037226,0.871532847 C198.627007,0.478832117 199.025547,0.264963504 199.254015,0.195620438 C199.278832,0.187591241 199.309489,0.175912409 199.329197,0.171532847 C199.367883,0.164963504 199.391971,0.169343066 199.413869,0.176642336 C199.432847,0.183211679 199.450365,0.191970803 199.454015,0.211678832 C199.455474,0.219708029 199.470827,0.216058394 199.470827,0.225547445 C199.464964,0.231386861 199.456204,0.238686131 199.451095,0.244525547 C197.533577,2.19416058 189.840146,8.19927007 182.229927,13.2189781 C144.686861,37.2729927 100.128467,53.3744526 49.9182482,58.2167883" id="Fill-23" fill="#003A70" mask="url(#mask-4)"></path>
                </g>
                <path d="M19.5394161,137.890511 L15.1890511,137.909489 C15.1890511,137.908759 15.1890511,137.908759 15.1883212,137.908029 L15.1868613,137.909489 C15.1868613,137.909489 14.2153285,140.770803 14.6744526,145.336496 L14.6751825,145.342336 C14.6751825,145.340876 14.6766423,145.338686 14.6766423,145.336496 C15.0956204,145.346715 15.5386861,145.354015 15.9854015,145.361314 C16.2832117,139.392701 20.6051095,138.015328 21.0810219,137.882482 L19.5394161,137.890511" id="Fill-25" fill="#003A70"></path>
                <path d="M49.1525547,131.988321 C47.0824818,131.79635 45.5021898,133.712409 45.6510949,136.19635 C45.6605839,136.360584 45.679562,136.521898 45.7029197,136.683212 C45.7058394,136.719708 45.7087591,136.743796 45.7116788,136.778102 C37.6372263,137.677372 23.5532847,137.942336 23.5532847,137.942336 C23.5510949,137.969343 23.5518248,137.99635 23.5510949,138.023358 C23.5,138.882482 23.5759124,139.817518 23.7576642,140.759124 C29.4080292,140.972993 44.4708029,139.79635 45.8452555,139.710949 C45.829927,140.254015 45.629927,141.766423 45.2277372,142.824088 C45.2277372,142.824818 45.1810219,142.944526 45.1686131,142.974453 C43.5262774,147.060584 39.5043796,149.890511 34.7437956,149.890511 C34.4861314,149.890511 34.2364964,149.862044 33.9832117,149.845255 C33.919708,149.842336 33.8562044,149.839416 33.7941606,149.834307 C33.5554745,149.814599 33.3189781,149.791971 33.0854015,149.758394 C32.7978102,149.718248 32.5175182,149.667153 32.2459854,149.606569 C32.0518248,149.564234 31.8627737,149.510949 31.6729927,149.458394 C31.5,149.410219 31.329927,149.358394 31.1642336,149.30365 C29.6846715,148.816058 28.3445255,148.043066 27.2116788,147.040146 C27.1182482,146.960584 27.0233577,146.881022 26.9386861,146.805109 C26.9386861,146.805109 30.6248175,151.048905 36.4459854,150.708759 C41.2525547,150.429197 44.8766423,147.956204 46.7788321,143.564964 C47.0656934,142.946715 47.2773723,142.327737 47.4291971,141.716788 C47.4306569,141.712409 47.4328467,141.708759 47.4335766,141.70438 L47.4328467,141.70438 C47.4810219,141.510219 47.5175182,141.318248 47.5547445,141.126277 L47.5759124,141.121898 C47.6051095,140.963504 47.6145985,140.812409 47.6379562,140.656934 C47.6715328,140.437226 47.7029197,140.218978 47.7248175,140.00365 C47.7394161,139.852555 47.7525547,139.705109 47.7627737,139.556204 C47.8613139,138.190511 47.7708029,136.926277 47.7284672,135.882482 C47.6036496,132.775182 49.9905109,132.037226 51.0890511,132.783212 C50.5087591,132.338686 49.8445255,132.051825 49.1525547,131.988321" id="Fill-26" fill="#003A70"></path>
                <path d="M150.318978,131.988321 C152.388321,131.79635 153.968613,133.712409 153.819708,136.19635 C153.810219,136.360584 153.791971,136.521898 153.768613,136.683212 C153.764964,136.719708 153.762774,136.743796 153.759854,136.778102 C161.832847,137.677372 175.917518,137.942336 175.917518,137.942336 C175.919708,137.969343 175.918978,137.99635 175.920438,138.023358 C175.970803,138.882482 175.894891,139.817518 175.713869,140.759124 C170.062774,140.972993 155,139.79635 153.625547,139.710949 C153.641606,140.254015 153.840876,141.766423 154.243066,142.824088 C154.243066,142.824818 154.289051,142.944526 154.30219,142.974453 C155.944526,147.060584 159.967153,149.890511 164.727007,149.890511 C164.984672,149.890511 165.235036,149.862044 165.487591,149.845255 C165.551095,149.842336 165.614599,149.839416 165.677372,149.834307 C165.915328,149.814599 166.151095,149.791971 166.385401,149.758394 C166.673723,149.718248 166.953285,149.667153 167.224818,149.606569 C167.418978,149.564234 167.608029,149.510949 167.79781,149.458394 C167.971533,149.410219 168.140876,149.358394 168.306569,149.30365 C169.786131,148.816058 171.127007,148.043066 172.259854,147.040146 C172.352555,146.960584 172.446715,146.881022 172.532847,146.805109 C172.532847,146.805109 168.845985,151.048905 163.024818,150.708759 C158.218248,150.429197 154.594161,147.956204 152.691971,143.564964 C152.405109,142.946715 152.193431,142.327737 152.041606,141.716788 C152.040146,141.712409 152.037956,141.708759 152.036496,141.70438 L152.037956,141.70438 C151.989781,141.510219 151.953285,141.318248 151.915328,141.126277 L151.89562,141.121898 C151.865693,140.963504 151.856204,140.812409 151.832847,140.656934 C151.79927,140.437226 151.767883,140.218978 151.745985,140.00365 C151.731387,139.852555 151.718978,139.705109 151.708759,139.556204 C151.610219,138.190511 151.70073,136.926277 151.742336,135.882482 C151.867153,132.775182 149.481022,132.037226 148.382482,132.783212 C148.962774,132.338686 149.626277,132.051825 150.318978,131.988321" id="Fill-27" fill="#003A70"></path>
            </g>
        </g>
    </g>
</svg>