<svg width="200" height="200" viewBox="0 0 200 200" fill="none" xmlns="http://www.w3.org/2000/svg">
<path d="M199.216 112.772C197.594 110.956 193.058 105.817 192.47 105.149C192.247 104.755 191.121 103.09 188.415 103.09C188.164 103.09 187.898 103.104 187.632 103.133L176.371 94.0392C176.343 93.5009 176.285 92.3884 176.257 91.5846C176.249 91.4338 176.257 91.2688 176.257 91.0893C176.285 89.8333 176.335 87.7232 173.752 86.1012C172.883 85.5557 171.175 84.5365 169.366 83.4456C167.278 82.1968 165.125 80.9049 164.213 80.3163C164.629 79.2182 165.362 76.6847 164.536 73.9573C163.711 71.2372 161.278 68.761 158.479 67.7921C156.196 67.0026 153.347 66.8878 151.847 66.8878C151.445 66.8878 151.122 66.8949 150.907 66.9021C150.225 66.3279 148.036 64.6556 145.122 63.9738C144.016 63.7154 142.581 63.5647 140.916 63.3996C137.385 63.0336 132.985 62.5814 128.952 60.8158C127.688 60.2632 126.583 59.7105 125.672 59.1723C125.478 59.0574 125.262 59 125.04 59C124.645 59 124.272 59.1938 124.035 59.5096C123.798 59.8326 123.734 60.2345 123.849 60.6221C123.963 60.9953 124.085 61.3398 124.207 61.6556C123.238 61.5192 122.047 61.4546 120.497 61.4546C120.152 61.4546 119.808 61.4546 119.463 61.4618C119.305 61.4618 119.155 61.4618 119.004 61.4618C115.659 61.4618 112.566 60.9235 108.654 59.6531C108.26 59.5239 107.886 59.4593 107.535 59.4593C106.2 59.4593 105.46 60.3565 105.216 61.2034C104.972 62.0431 104.951 63.7585 105.059 65.158C104.922 65.1222 104.779 65.0791 104.628 65.0432C103.25 64.6628 100.68 63.9595 96.5536 63.9595C92.9434 63.9595 88.8596 64.5049 84.4241 65.5815C84.0652 65.6676 83.4623 65.8327 82.6226 66.0624C77.9789 67.3399 67.1126 70.3256 59.4043 70.462C58.9019 70.4692 58.4569 70.7778 58.2703 71.2515C58.0837 71.718 58.1985 72.2563 58.5574 72.608C59.9641 73.9788 62.8565 76.1966 65.1245 77.4813C62.6556 78.4144 57.6387 80.1871 56.4616 80.5819C53.8348 81.4575 46.8944 83.4671 38.4827 83.4671C36.3367 83.4671 34.2195 83.3308 32.1955 83.0652C32.1381 83.058 32.0806 83.0508 32.0304 83.0508C31.6357 83.0508 31.2553 83.2446 31.0184 83.5604C30.7816 83.8834 30.717 84.2925 30.839 84.6729C31.3916 86.417 33.0639 91.685 42.4733 93.5942C39.6311 96.1062 30.0854 103.642 10.9007 110.669C10.4198 110.848 10.0968 111.293 10.0825 111.81C10.0681 112.327 10.3624 112.786 10.8361 112.987C13.4558 114.107 18.9463 116.023 26.547 116.375C23.5613 119.583 14.0587 129.258 0.572674 137.957C0.120509 138.251 -0.0876299 138.775 0.0343828 139.299C0.163573 139.823 0.587028 140.196 1.12532 140.246C3.89572 140.526 9.52266 140.985 16.0467 140.985C21.1785 140.985 25.8436 140.698 29.8988 140.124C41.4828 138.488 56.0597 134.842 61.5431 133.464C62.5192 133.22 63.2298 133.04 63.4092 133.004C63.4953 132.99 63.6389 132.954 63.8398 132.904C68.871 131.712 74.2755 131.109 79.8881 131.109C85.2423 131.109 90.6252 131.669 95.8789 132.775C106.853 135.086 116.994 136.435 126.016 136.787H126.03H126.066C126.418 136.787 126.755 136.636 126.992 136.378C127.229 136.119 127.344 135.767 127.315 135.416C127.093 133.155 126.827 125.554 132.519 122.432C132.935 122.461 134.004 122.533 135.49 122.533C137.212 122.533 139.882 122.439 142.804 121.994C147.562 121.27 150.856 119.698 151.868 119.174L167.63 125.949L168.197 128.325C168.283 128.684 168.52 128.978 168.842 129.15L178.804 134.239C179.013 134.368 180.19 135.043 181.618 135.222C181.898 135.258 182.206 135.279 182.522 135.279C183.534 135.279 184.525 135.1 185.12 134.992C185.242 134.971 185.35 134.949 185.436 134.935C191.099 134.023 193.539 133.578 194.142 133.349C195.312 132.904 196.267 131.31 196.195 130.37C196.159 129.925 195.965 128.605 195.843 127.808L198.477 124.593C198.721 124.298 198.815 123.911 198.736 123.538L198.212 121.119L199.69 116.985C199.748 116.906 200.594 114.322 199.216 112.772ZM191.917 105.609C192.183 105.91 193.769 107.705 195.398 109.549C196.482 110.776 197.587 112.025 198.334 112.865C197.587 112.025 196.482 110.776 195.398 109.549C193.769 107.712 192.183 105.91 191.917 105.609C191.896 105.58 191.874 105.559 191.86 105.523C191.874 105.559 191.896 105.587 191.917 105.609ZM191.774 105.394C191.766 105.386 191.766 105.379 191.759 105.372C191.766 105.379 191.766 105.386 191.774 105.394ZM191.609 105.171C191.601 105.157 191.587 105.142 191.58 105.135C191.587 105.149 191.594 105.157 191.609 105.171ZM191.35 104.891C191.336 104.877 191.322 104.862 191.3 104.848C191.314 104.862 191.336 104.877 191.35 104.891ZM188.479 103.815C188.429 103.815 188.379 103.815 188.329 103.815C188.357 103.815 188.386 103.807 188.408 103.807C188.436 103.815 188.458 103.815 188.479 103.815ZM190.984 104.582C190.97 104.568 190.948 104.561 190.934 104.547C190.955 104.561 190.97 104.575 190.984 104.582ZM190.51 104.288C190.503 104.281 190.489 104.281 190.482 104.274C190.496 104.281 190.503 104.281 190.51 104.288ZM189.965 104.059C189.951 104.051 189.936 104.044 189.922 104.044C189.936 104.044 189.951 104.051 189.965 104.059ZM189.298 103.893C189.262 103.886 189.233 103.879 189.197 103.879C189.233 103.879 189.262 103.886 189.298 103.893ZM163.854 74.1798C164.055 74.8401 164.156 75.4861 164.184 76.1033C164.249 77.3306 164.048 78.4359 163.818 79.2397C163.704 79.6417 163.589 79.9718 163.495 80.2087C163.402 80.4455 163.481 80.7111 163.696 80.8546C165.204 81.8379 171.462 85.5198 173.378 86.7256C175.984 88.362 175.496 90.4793 175.539 91.6276C175.575 92.4817 175.632 93.6731 175.661 94.1755C175.668 94.3262 175.74 94.4626 175.855 94.5631L187.238 103.764L175.855 94.5631C175.74 94.4698 175.668 94.3262 175.661 94.1755C175.632 93.6731 175.575 92.4817 175.539 91.6276C175.496 90.4793 175.984 88.362 173.378 86.7256C171.462 85.527 165.211 81.8379 163.696 80.8546C163.481 80.7183 163.402 80.4455 163.495 80.2087C163.589 79.9718 163.711 79.6488 163.818 79.2397C164.048 78.4359 164.249 77.3306 164.184 76.1033C164.156 75.4861 164.055 74.8329 163.854 74.1798C163.05 71.5314 160.675 69.3208 158.249 68.4811C160.675 69.3208 163.05 71.5242 163.854 74.1798ZM187.482 103.85C187.46 103.843 187.439 103.843 187.417 103.843C187.439 103.843 187.46 103.843 187.482 103.85ZM152.45 67.6198C152.478 67.6198 152.5 67.6198 152.529 67.6198C152.507 67.6198 152.478 67.6198 152.45 67.6198ZM153.096 67.6414C153.146 67.6414 153.189 67.6485 153.239 67.6485C153.189 67.6485 153.146 67.6414 153.096 67.6414ZM153.928 67.6916C153.971 67.6916 154.014 67.6988 154.057 67.6988C154.014 67.6988 153.971 67.6916 153.928 67.6916ZM154.711 67.7562C154.761 67.7634 154.804 67.7634 154.854 67.7706C154.804 67.7706 154.761 67.7634 154.711 67.7562ZM155.608 67.871C155.665 67.8782 155.723 67.8854 155.78 67.8997C155.715 67.8854 155.658 67.8782 155.608 67.871ZM156.476 68.0218C156.505 68.0289 156.541 68.0361 156.569 68.0361C156.541 68.0289 156.512 68.0218 156.476 68.0218ZM157.33 68.2084C157.388 68.2227 157.445 68.2371 157.502 68.2586C157.445 68.2443 157.388 68.2227 157.33 68.2084ZM151.897 67.6127C151.84 67.6127 151.782 67.6127 151.732 67.6127C151.775 67.6127 151.811 67.6127 151.854 67.6127C151.861 67.6127 151.883 67.6127 151.897 67.6127ZM151.057 67.627C150.986 67.627 150.921 67.6342 150.864 67.6342C150.921 67.6342 150.986 67.627 151.057 67.627ZM151.588 67.6198C151.517 67.6198 151.452 67.6198 151.387 67.6198C151.452 67.6198 151.524 67.6198 151.588 67.6198ZM151.301 67.6198C151.23 67.6198 151.165 67.6198 151.1 67.627C151.165 67.6198 151.23 67.6198 151.301 67.6198ZM135.59 63.457C136.351 63.5862 137.09 63.6939 137.815 63.7872C140.715 64.1604 143.27 64.2968 144.95 64.6844C146.378 65.0145 147.619 65.5959 148.574 66.1629C149.529 66.7227 150.203 67.261 150.49 67.505C150.203 67.261 149.529 66.7227 148.574 66.1629C147.619 65.603 146.378 65.0217 144.95 64.6844C143.27 64.2968 140.708 64.1532 137.815 63.7872C137.098 63.6939 136.351 63.5862 135.59 63.457C134.456 63.2633 133.287 63.0192 132.124 62.6963C133.294 63.0121 134.456 63.2633 135.59 63.457ZM150.727 67.6127C150.706 67.6055 150.684 67.6055 150.663 67.5983C150.684 67.6055 150.706 67.6055 150.727 67.6127ZM128.112 61.2321C127.753 61.067 127.423 60.9163 127.121 60.7656C127.423 60.9163 127.753 61.0742 128.112 61.2321ZM125.923 60.1484C126.152 60.2704 126.404 60.4067 126.684 60.5503C126.404 60.4067 126.152 60.2775 125.923 60.1484C125.693 60.0263 125.492 59.9043 125.313 59.8038C125.262 59.7751 125.212 59.7536 125.162 59.7464C125.212 59.7608 125.262 59.7751 125.313 59.8038C125.492 59.9115 125.693 60.0263 125.923 60.1484ZM126.985 129.251C126.77 130.176 126.64 131.088 126.576 131.92C126.648 131.088 126.777 130.176 126.985 129.251ZM125.105 62.0431C125.105 62.0288 125.112 62.0144 125.105 62.0073C125.105 62.0216 125.105 62.0288 125.105 62.0431ZM125.09 62.1221C125.083 62.1364 125.076 62.1508 125.069 62.158C125.076 62.1436 125.083 62.1364 125.09 62.1221ZM124.674 62.402C124.66 62.402 124.645 62.4092 124.631 62.4092C124.645 62.4092 124.66 62.402 124.674 62.402ZM125.033 62.2154C125.026 62.2297 125.011 62.2369 124.997 62.2513C125.011 62.2441 125.018 62.2297 125.033 62.2154ZM124.939 62.3015C124.925 62.3087 124.911 62.3231 124.896 62.3302C124.911 62.3159 124.925 62.3087 124.939 62.3015ZM124.817 62.3589C124.803 62.3661 124.789 62.3733 124.767 62.3805C124.789 62.3733 124.803 62.3661 124.817 62.3589ZM125.112 59.7393C125.083 59.7321 125.054 59.7321 125.026 59.7321C125.033 59.7321 125.04 59.7249 125.04 59.7249C125.069 59.7321 125.09 59.7321 125.112 59.7393ZM124.817 59.7823C124.803 59.7895 124.796 59.7967 124.782 59.8038C124.796 59.7967 124.81 59.7895 124.817 59.7823ZM124.638 59.9259C124.631 59.933 124.624 59.9402 124.616 59.9474C124.624 59.9402 124.631 59.933 124.638 59.9259ZM124.53 60.1412C124.523 60.1555 124.523 60.1699 124.523 60.1914C124.523 60.1699 124.523 60.1555 124.53 60.1412ZM124.308 62.4092C124.358 62.4164 124.416 62.4235 124.473 62.4235C124.423 62.4235 124.365 62.4164 124.308 62.4092C123.992 62.3589 123.655 62.323 123.303 62.2943C123.655 62.323 123.992 62.3589 124.308 62.4092ZM122.966 62.2656C122.715 62.2513 122.463 62.2297 122.205 62.2226C122.463 62.2297 122.715 62.2513 122.966 62.2656ZM121.803 62.2082C121.537 62.201 121.272 62.1939 120.999 62.1939C121.272 62.1939 121.537 62.201 121.803 62.2082ZM120.497 62.1867C120.54 62.1867 120.59 62.1867 120.633 62.1867C120.246 62.1867 119.858 62.1867 119.47 62.1939C119.815 62.1867 120.159 62.1867 120.497 62.1867ZM118.552 62.1867C118.351 62.1867 118.15 62.1795 117.956 62.1723C118.157 62.1795 118.358 62.1867 118.552 62.1867ZM117.26 62.1436C117.066 62.1293 116.872 62.1221 116.671 62.1077C116.872 62.1221 117.066 62.1293 117.26 62.1436ZM115.968 62.036C115.774 62.0144 115.58 62.0001 115.387 61.9714C115.58 62.0001 115.774 62.0144 115.968 62.036ZM114.655 61.8709C114.461 61.8422 114.274 61.8135 114.08 61.7848C114.274 61.8135 114.461 61.8422 114.655 61.8709ZM113.305 61.634C113.119 61.5982 112.932 61.5623 112.738 61.5264C112.932 61.5694 113.119 61.5982 113.305 61.634ZM111.913 61.3326C111.733 61.2895 111.554 61.2536 111.367 61.2034C111.547 61.2536 111.726 61.2895 111.913 61.3326ZM110.406 60.945C110.248 60.902 110.09 60.8589 109.925 60.8158C110.097 60.8589 110.248 60.902 110.406 60.945ZM107.764 60.2201C107.657 60.2058 107.556 60.1986 107.456 60.2058C107.484 60.2058 107.506 60.1986 107.535 60.1986C107.606 60.1986 107.685 60.2129 107.764 60.2201ZM108.432 60.3565C108.245 60.2991 108.073 60.256 107.915 60.2345C108.08 60.256 108.245 60.2919 108.432 60.3565ZM106.652 60.4283C106.559 60.4857 106.48 60.5503 106.401 60.6149C106.472 60.5503 106.559 60.4857 106.652 60.4283ZM107.327 60.2129C107.233 60.2201 107.147 60.2345 107.068 60.256C107.147 60.2417 107.233 60.2273 107.327 60.2129ZM106.953 60.2919C106.86 60.3206 106.774 60.3637 106.695 60.4067C106.781 60.3637 106.86 60.3206 106.953 60.2919ZM106.006 61.1747C105.97 61.2536 105.934 61.3398 105.913 61.4187C105.934 61.3398 105.963 61.2608 106.006 61.1747ZM106.343 60.6795C106.293 60.7297 106.243 60.7871 106.2 60.8445C106.243 60.7871 106.293 60.7297 106.343 60.6795ZM106.142 60.9235C106.106 60.9809 106.071 61.0383 106.042 61.0957C106.071 61.0383 106.106 60.9809 106.142 60.9235ZM105.827 65.6605C105.834 65.7179 105.834 65.7609 105.827 65.804C105.827 65.7609 105.827 65.7179 105.827 65.6605ZM105.812 65.8399C105.805 65.8614 105.798 65.8901 105.783 65.9045C105.798 65.8901 105.805 65.8614 105.812 65.8399ZM105.417 65.9834C105.453 65.9906 105.489 65.9906 105.525 65.9906C105.496 65.9978 105.46 65.9906 105.417 65.9834ZM105.575 65.9906C105.604 65.9906 105.633 65.9834 105.661 65.9763C105.64 65.9906 105.611 65.9906 105.575 65.9906ZM105.705 65.9691C105.726 65.9619 105.74 65.9475 105.762 65.9332C105.74 65.9475 105.726 65.9619 105.705 65.9691ZM105.36 65.9834C105.31 65.9763 105.252 65.9619 105.188 65.9475C105.252 65.9619 105.31 65.9691 105.36 65.9834ZM105.152 65.9404C105.073 65.926 104.987 65.9045 104.893 65.8758C104.987 65.9045 105.073 65.926 105.152 65.9404ZM104.829 65.8614C104.75 65.8399 104.671 65.8184 104.585 65.7968C104.671 65.8184 104.75 65.8399 104.829 65.8614ZM104.305 65.7179C104.248 65.7035 104.19 65.6892 104.133 65.6676C104.19 65.6892 104.248 65.7035 104.305 65.7179ZM103.889 65.603C103.831 65.5887 103.767 65.5743 103.709 65.5528C103.774 65.5743 103.831 65.5887 103.889 65.603ZM103.451 65.4954C103.386 65.481 103.315 65.4595 103.25 65.4451C103.315 65.4595 103.386 65.4738 103.451 65.4954ZM102.963 65.3734C102.891 65.359 102.812 65.3375 102.74 65.3231C102.812 65.3447 102.891 65.359 102.963 65.3734ZM102.417 65.2585C102.338 65.2442 102.259 65.2226 102.181 65.2083C102.259 65.2226 102.338 65.2442 102.417 65.2585ZM101.814 65.1437C101.736 65.1293 101.649 65.115 101.563 65.1006C101.657 65.115 101.736 65.1293 101.814 65.1437ZM101.14 65.0289C101.061 65.0145 100.982 65.0002 100.896 64.993C100.982 65.0002 101.061 65.0145 101.14 65.0289ZM100.336 64.914C100.286 64.9068 100.235 64.8997 100.178 64.8925C100.235 64.9068 100.286 64.914 100.336 64.914ZM99.4029 64.8207C99.3383 64.8135 99.2666 64.8135 99.202 64.8064C99.2666 64.8064 99.3383 64.8135 99.4029 64.8207ZM98.5704 64.7561C98.4627 64.7489 98.355 64.7489 98.2474 64.7418C98.355 64.7418 98.4627 64.7489 98.5704 64.7561ZM97.6732 64.7131C97.544 64.7059 97.4148 64.7059 97.2856 64.7059C97.422 64.7059 97.5512 64.7131 97.6732 64.7131ZM96.7186 64.6987C96.5894 64.6987 96.4531 64.6987 96.3239 64.6987C96.4028 64.6987 96.489 64.6915 96.5607 64.6915C96.611 64.6915 96.6612 64.6987 96.7186 64.6987ZM66.3662 131.676C66.1006 131.727 65.8566 131.777 65.6269 131.82C65.8566 131.777 66.1006 131.727 66.3662 131.676ZM79.6728 130.442C79.2206 130.442 78.7684 130.449 78.3306 130.456C78.7756 130.449 79.2206 130.449 79.6728 130.442ZM85.2566 130.629C84.747 130.593 84.2446 130.564 83.7422 130.535C84.2446 130.564 84.747 130.593 85.2566 130.629ZM83.5197 130.528C82.9527 130.499 82.3929 130.485 81.8403 130.471C82.3929 130.485 82.9527 130.499 83.5197 130.528ZM81.3666 130.456C80.9647 130.449 80.5627 130.442 80.1752 130.442C80.5699 130.449 80.9647 130.449 81.3666 130.456ZM95.6133 64.7131C95.477 64.7131 95.3334 64.7202 95.1899 64.7274C95.3334 64.7202 95.4698 64.7131 95.6133 64.7131ZM94.4004 64.7633C94.264 64.7705 94.1348 64.7777 93.9913 64.7848C94.1348 64.7777 94.264 64.7705 94.4004 64.7633ZM92.8932 64.871C92.8429 64.8781 92.7927 64.8781 92.7425 64.8853C92.7927 64.8781 92.8358 64.8781 92.8932 64.871ZM91.4075 65.0289C91.2711 65.0432 91.1204 65.0647 90.9769 65.0863C91.1276 65.0719 91.2711 65.0504 91.4075 65.0289ZM89.9936 65.2298C89.8142 65.2585 89.6347 65.2872 89.4553 65.3159C89.6347 65.2801 89.8142 65.2514 89.9936 65.2298ZM88.472 65.481C88.2854 65.5169 88.0916 65.5456 87.8979 65.5887C88.0988 65.5456 88.2854 65.5169 88.472 65.481ZM86.8069 65.804C86.6347 65.8399 86.4624 65.8758 86.2901 65.9117C86.4696 65.8686 86.6347 65.8399 86.8069 65.804ZM78.1081 130.464C77.5985 130.478 77.0961 130.492 76.6081 130.514C77.0961 130.492 77.5985 130.478 78.1081 130.464ZM76.2133 130.535C75.8473 130.55 75.4884 130.571 75.1368 130.593C75.4884 130.571 75.8473 130.55 76.2133 130.535ZM74.7205 130.621C74.3114 130.65 73.9166 130.679 73.5291 130.715C73.9166 130.679 74.3114 130.643 74.7205 130.621ZM73.3712 130.722C72.9333 130.758 72.5099 130.801 72.0936 130.844C72.5099 130.801 72.9333 130.758 73.3712 130.722ZM71.7635 130.88C71.4548 130.916 71.1534 130.944 70.8591 130.98C71.1534 130.944 71.4548 130.909 71.7635 130.88ZM70.529 131.023C70.1773 131.066 69.84 131.109 69.517 131.16C69.84 131.109 70.1773 131.066 70.529 131.023ZM69.4309 131.167C69.072 131.217 68.7347 131.267 68.4045 131.325C68.7275 131.267 69.072 131.217 69.4309 131.167ZM68.1461 131.368C67.9021 131.411 67.6653 131.447 67.4356 131.49C67.6653 131.447 67.9021 131.404 68.1461 131.368ZM67.1916 131.526C66.9188 131.576 66.6533 131.619 66.4021 131.669C66.6533 131.619 66.9188 131.576 67.1916 131.526ZM65.4403 131.863C65.2681 131.899 65.1102 131.935 64.9595 131.964C65.1102 131.928 65.2681 131.899 65.4403 131.863ZM64.8016 131.999C64.414 132.086 64.0982 132.157 63.847 132.215C64.0982 132.157 64.4212 132.078 64.8016 131.999ZM60.4235 133.047C60.3158 133.076 60.2153 133.098 60.1005 133.126C60.2153 133.105 60.323 133.076 60.4235 133.047ZM56.6985 81.2852C56.6411 81.3068 56.555 81.3355 56.4616 81.3642C56.555 81.3283 56.6411 81.2996 56.6985 81.2852ZM58.8373 133.442C58.7153 133.471 58.5861 133.507 58.4569 133.535C58.5861 133.507 58.7081 133.478 58.8373 133.442ZM41.978 84.0987C42.4804 84.07 42.9757 84.0269 43.4565 83.9839C42.9685 84.0269 42.4804 84.0628 41.978 84.0987ZM38.6119 84.2064C39.1287 84.2064 39.6383 84.1992 40.1407 84.1848C39.6383 84.1992 39.1287 84.2064 38.6119 84.2064ZM40.4349 84.1705C40.9373 84.149 41.4326 84.1274 41.9206 84.0987C41.4326 84.1274 40.9302 84.1561 40.4349 84.1705ZM56.397 81.3786C56.2894 81.4144 56.1674 81.4575 56.0238 81.5006C56.1674 81.4575 56.2894 81.4144 56.397 81.3786ZM55.9449 81.5293C55.8013 81.5723 55.6363 81.6226 55.4568 81.68C55.6434 81.6226 55.8013 81.5723 55.9449 81.5293ZM55.4138 81.6872C55.2272 81.7446 55.019 81.802 54.8037 81.8666C55.0262 81.8092 55.2343 81.7446 55.4138 81.6872ZM54.6745 81.9097C54.4448 81.9743 54.208 82.0389 53.9496 82.1106C54.208 82.0389 54.4448 81.9743 54.6745 81.9097ZM53.8348 82.1393C53.5836 82.2039 53.318 82.2757 53.0381 82.3475C53.3108 82.2829 53.5836 82.2111 53.8348 82.1393ZM52.9448 82.3762C52.6505 82.448 52.3419 82.5269 52.0189 82.5987C52.3347 82.5197 52.6505 82.448 52.9448 82.3762ZM51.818 82.6417C51.4878 82.7207 51.1505 82.7925 50.7916 82.8714C51.1505 82.7996 51.4878 82.7207 51.818 82.6417ZM50.6696 82.9001C50.3323 82.9719 49.9734 83.0437 49.6146 83.1154C49.9734 83.0437 50.3251 82.9719 50.6696 82.9001ZM49.4495 83.1441C49.0691 83.2159 48.6744 83.2877 48.2724 83.3595C48.6672 83.2877 49.0619 83.2159 49.4495 83.1441ZM48.0141 83.3954C47.5978 83.4671 47.1743 83.5317 46.7365 83.5963C47.1815 83.5317 47.605 83.4671 48.0141 83.3954ZM46.6289 83.6107C46.2126 83.6681 45.7891 83.7255 45.3513 83.7757C45.7819 83.7327 46.2126 83.6753 46.6289 83.6107ZM45.1216 83.8116C44.6695 83.8619 44.2101 83.9121 43.7436 83.9552C44.203 83.9121 44.6695 83.8619 45.1216 83.8116ZM32.1094 83.8045C32.5974 83.869 33.0855 83.9193 33.5663 83.9695C33.0855 83.9193 32.5974 83.869 32.1094 83.8045C32.0448 83.7973 31.9802 83.8116 31.9227 83.826C31.9586 83.8188 31.9945 83.7973 32.0376 83.7973C32.0591 83.7973 32.0878 83.7973 32.1094 83.8045ZM38.2746 84.2064C37.9085 84.2064 37.5353 84.1992 37.1621 84.192C37.5353 84.1992 37.9085 84.2064 38.2746 84.2064ZM36.832 84.1777C36.3654 84.1633 35.8989 84.1418 35.4252 84.1131C35.8989 84.1418 36.3654 84.1633 36.832 84.1777ZM35.1525 84.0987C34.7577 84.07 34.363 84.0413 33.9683 84.0054C34.363 84.0413 34.7577 84.07 35.1525 84.0987ZM31.8223 83.8475C31.772 83.869 31.7361 83.9049 31.7003 83.9336C31.7361 83.9049 31.772 83.869 31.8223 83.8475ZM31.6213 83.9982C31.5854 84.0413 31.5711 84.0915 31.5495 84.149C31.5711 84.0987 31.5854 84.0485 31.6213 83.9982ZM31.5136 84.2279C31.4993 84.314 31.4993 84.4002 31.528 84.4863C31.4993 84.4002 31.4993 84.3069 31.5136 84.2279ZM42.6957 94.3908C42.667 94.4196 42.6383 94.4411 42.6096 94.4698C42.6383 94.4411 42.667 94.4124 42.6957 94.3908ZM34.5855 100.247C35.82 99.4795 36.9253 98.7474 37.9014 98.0728C39.1717 97.19 40.2268 96.4005 41.0881 95.7258C40.2268 96.4076 39.1717 97.1971 37.9014 98.0728C36.9253 98.7474 35.82 99.4723 34.5855 100.247C33.351 101.015 31.9802 101.826 30.4801 102.666C31.9873 101.826 33.351 101.015 34.5855 100.247ZM42.1216 94.8789C41.978 95.0009 41.8273 95.1229 41.6622 95.2593C41.8273 95.1229 41.978 95.0009 42.1216 94.8789ZM26.8485 104.597C27.7097 104.159 28.5279 103.728 29.3174 103.298C28.5351 103.721 27.7097 104.159 26.8485 104.597C25.5566 105.257 24.1857 105.925 22.7359 106.599C24.1929 105.917 25.5637 105.25 26.8485 104.597ZM26.4106 139.851C26.3676 139.858 26.3317 139.858 26.2886 139.866C26.3317 139.858 26.3676 139.858 26.4106 139.851ZM21.2574 107.274C20.2526 107.726 19.2047 108.185 18.121 108.638C19.2047 108.185 20.2454 107.726 21.2574 107.274ZM22.9584 140.117C22.901 140.117 22.8507 140.124 22.7933 140.124C22.8436 140.124 22.901 140.124 22.9584 140.117ZM19.5062 140.268C19.4559 140.268 19.4057 140.268 19.3554 140.275C19.4057 140.268 19.4559 140.268 19.5062 140.268ZM14.8553 140.303C14.7979 140.303 14.7405 140.303 14.6831 140.303C14.7405 140.303 14.7979 140.303 14.8553 140.303ZM13.7429 140.289C13.6208 140.289 13.4988 140.282 13.3768 140.282C13.4988 140.289 13.6208 140.289 13.7429 140.289ZM12.6447 140.268C12.5156 140.268 12.3792 140.26 12.25 140.26C12.3792 140.26 12.5084 140.268 12.6447 140.268ZM11.5538 140.239C11.4318 140.232 11.3098 140.232 11.195 140.225C11.3098 140.232 11.4318 140.239 11.5538 140.239ZM10.4413 140.203C10.348 140.196 10.2547 140.196 10.1614 140.196C10.2547 140.196 10.348 140.196 10.4413 140.203ZM9.15662 140.146C9.14227 140.146 9.13509 140.146 9.12074 140.146C9.13509 140.146 9.14945 140.146 9.15662 140.146ZM8.20205 140.095C8.10875 140.088 8.01545 140.088 7.92214 140.081C8.01545 140.088 8.10875 140.095 8.20205 140.095ZM7.27619 140.045C7.16853 140.038 7.06805 140.031 6.96757 140.024C7.06805 140.038 7.17571 140.038 7.27619 140.045ZM6.37186 139.995C6.27856 139.988 6.18526 139.981 6.09195 139.973C6.17808 139.981 6.27856 139.988 6.37186 139.995ZM5.48907 139.93C5.41012 139.923 5.33117 139.923 5.25939 139.916C5.33117 139.923 5.41012 139.93 5.48907 139.93ZM4.47708 139.858C4.4699 139.858 4.4699 139.858 4.46272 139.858C4.4699 139.858 4.47708 139.858 4.47708 139.858ZM3.75218 139.801C3.68041 139.794 3.61581 139.787 3.55122 139.787C3.61581 139.794 3.68041 139.794 3.75218 139.801ZM3.07034 139.744C2.99857 139.736 2.9268 139.729 2.85503 139.722C2.9268 139.736 2.99857 139.736 3.07034 139.744ZM2.43157 139.686C2.36698 139.679 2.30238 139.672 2.23779 139.672C2.30238 139.679 2.36698 139.686 2.43157 139.686ZM1.85022 139.636C1.7928 139.629 1.73538 139.629 1.68514 139.622C1.74256 139.629 1.79998 139.629 1.85022 139.636ZM15.9822 140.311C16.0252 140.311 16.0611 140.311 16.1042 140.311C16.0898 140.311 16.0683 140.311 16.0539 140.311C16.0324 140.311 16.0109 140.311 15.9822 140.311ZM42.0929 137.275C43.0115 137.088 43.9231 136.894 44.8274 136.701C43.9231 136.894 43.0115 137.081 42.0929 137.275ZM62.8637 132.444C63.0647 132.394 63.2082 132.365 63.28 132.344C63.201 132.358 63.0647 132.394 62.8637 132.444ZM63.603 132.272C63.5599 132.279 63.5097 132.294 63.4738 132.301C63.5097 132.294 63.5527 132.287 63.603 132.272ZM94.0415 131.734C94.6947 131.856 95.3622 131.985 96.0296 132.121C95.355 131.985 94.6947 131.856 94.0415 131.734ZM85.8165 130.672C86.2471 130.708 86.6849 130.743 87.1227 130.779C86.6921 130.743 86.2543 130.708 85.8165 130.672ZM87.6754 130.837C88.2854 130.894 88.8955 130.966 89.5199 131.045C88.8955 130.959 88.2854 130.894 87.6754 130.837ZM89.685 131.059C90.2591 131.131 90.8405 131.21 91.4219 131.296C90.8405 131.21 90.2591 131.131 89.685 131.059ZM92.0176 131.389C92.4913 131.461 92.965 131.54 93.4387 131.626C92.965 131.547 92.4913 131.468 92.0176 131.389ZM126.059 136.119C126.109 136.119 126.152 136.105 126.203 136.09C126.16 136.098 126.124 136.119 126.081 136.119C126.066 136.119 126.059 136.119 126.059 136.119ZM126.289 136.076C126.332 136.055 126.361 136.026 126.396 135.997C126.361 136.026 126.332 136.055 126.289 136.076ZM126.468 135.947C126.504 135.911 126.526 135.868 126.547 135.818C126.518 135.868 126.497 135.911 126.468 135.947ZM126.576 135.76C126.597 135.689 126.612 135.61 126.605 135.531C126.562 135.1 126.518 134.468 126.511 133.7C126.518 134.468 126.562 135.1 126.605 135.531C126.612 135.617 126.605 135.689 126.576 135.76ZM128.155 126.021C127.674 126.94 127.337 127.901 127.093 128.849C127.337 127.901 127.674 126.94 128.155 126.021C129.016 124.37 130.308 122.863 132.231 121.822C132.303 121.786 132.382 121.765 132.461 121.765C132.382 121.772 132.303 121.786 132.231 121.822C130.308 122.87 129.016 124.377 128.155 126.021ZM132.533 121.765C132.583 121.772 132.641 121.772 132.712 121.779C132.648 121.772 132.583 121.765 132.533 121.765ZM132.791 121.779C132.849 121.786 132.913 121.786 132.985 121.793C132.906 121.786 132.849 121.786 132.791 121.779ZM133.086 121.801C133.157 121.808 133.229 121.808 133.301 121.815C133.222 121.808 133.15 121.801 133.086 121.801ZM133.444 121.815C133.523 121.815 133.602 121.822 133.688 121.822C133.602 121.822 133.523 121.822 133.444 121.815ZM133.861 121.837C133.947 121.837 134.04 121.844 134.133 121.844C134.04 121.844 133.954 121.837 133.861 121.837ZM134.342 121.851C134.442 121.851 134.543 121.858 134.643 121.858C134.543 121.851 134.442 121.851 134.342 121.851ZM134.866 121.858C134.98 121.858 135.102 121.858 135.224 121.858C135.102 121.858 134.98 121.858 134.866 121.858ZM135.447 121.865C135.526 121.865 135.612 121.865 135.698 121.865C135.633 121.865 135.562 121.865 135.497 121.865C135.483 121.865 135.461 121.865 135.447 121.865ZM138.052 121.793C137.93 121.801 137.815 121.808 137.693 121.808C137.815 121.808 137.937 121.801 138.052 121.793ZM137.227 121.829C137.119 121.837 137.004 121.837 136.897 121.837C137.004 121.837 137.112 121.837 137.227 121.829ZM136.445 121.851C136.344 121.851 136.244 121.858 136.143 121.858C136.244 121.858 136.344 121.851 136.445 121.851ZM138.547 121.765C138.669 121.758 138.799 121.75 138.921 121.743C138.791 121.75 138.669 121.758 138.547 121.765ZM139.437 121.707C139.567 121.7 139.689 121.686 139.818 121.679C139.696 121.686 139.567 121.693 139.437 121.707ZM140.385 121.621C140.507 121.607 140.636 121.6 140.758 121.585C140.629 121.6 140.507 121.607 140.385 121.621ZM141.397 121.506C141.504 121.492 141.612 121.485 141.72 121.47C141.612 121.485 141.504 121.492 141.397 121.506ZM145.237 120.839C148.639 120.035 150.928 118.908 151.624 118.542C151.696 118.499 151.782 118.485 151.861 118.485C151.782 118.485 151.696 118.506 151.624 118.542C150.928 118.908 148.639 120.035 145.237 120.839ZM182.458 134.598C182.537 134.598 182.616 134.598 182.702 134.598C182.651 134.598 182.594 134.605 182.544 134.605C182.508 134.605 182.486 134.598 182.458 134.598ZM182.867 134.598C182.982 134.59 183.104 134.583 183.218 134.576C183.104 134.583 182.989 134.59 182.867 134.598ZM183.355 134.562C183.513 134.547 183.663 134.533 183.814 134.511C183.663 134.533 183.513 134.547 183.355 134.562ZM183.886 134.504C184.015 134.49 184.137 134.468 184.252 134.454C184.137 134.476 184.015 134.49 183.886 134.504ZM184.395 134.433C184.489 134.418 184.582 134.404 184.661 134.389C184.575 134.404 184.489 134.418 184.395 134.433ZM184.797 134.361C184.891 134.346 184.991 134.325 185.07 134.311C184.984 134.332 184.898 134.346 184.797 134.361ZM193.912 132.724C193.259 132.976 189.534 133.6 185.35 134.267C185.35 134.267 185.35 134.267 185.343 134.267C185.343 134.267 185.343 134.267 185.35 134.267C189.527 133.593 193.259 132.968 193.912 132.724C194.142 132.638 194.365 132.487 194.558 132.301C194.357 132.487 194.142 132.631 193.912 132.724ZM199.13 116.411C199.073 116.64 199.03 116.784 199.03 116.784L197.537 120.968C197.501 121.061 197.494 121.162 197.515 121.262L198.047 123.731C198.082 123.889 198.039 124.054 197.939 124.183L195.247 127.463C195.154 127.578 195.111 127.729 195.133 127.88C195.226 128.468 195.456 130.011 195.491 130.471C195.52 130.83 195.255 131.483 194.824 132.007C195.255 131.483 195.52 130.83 195.491 130.471C195.456 130.011 195.219 128.468 195.133 127.88C195.111 127.729 195.154 127.578 195.247 127.463L197.939 124.183C198.039 124.061 198.082 123.896 198.047 123.731L197.515 121.262C197.494 121.169 197.501 121.061 197.537 120.968L199.03 116.784C199.03 116.784 199.08 116.64 199.13 116.411C199.238 115.944 199.374 115.119 199.202 114.336C199.374 115.111 199.245 115.944 199.13 116.411Z" fill="white"/>
<path d="M169.503 123.868L151.646 115.937C151.646 115.937 143.198 120.954 132.705 118.722C132.705 118.722 123.791 124.011 124.531 133.579C124.531 133.579 111.253 133.205 99.2811 130.105C91.5153 128.095 75.0221 126.638 63.2371 129.645C51.4521 132.653 23.4969 140.275 5.94141 137.497C5.94141 137.497 21.9753 127.406 32.8201 113.798C23.2887 113.698 16.133 111.58 16.133 111.58C16.133 111.58 36.9254 104.059 48.5238 91.6062C48.5238 91.6062 38.1958 91.5991 34.6072 85.6922C34.6072 85.6922 45.2725 88.3047 60.3734 81.9744C63.0218 80.8691 71.2684 77.5891 71.2684 77.5891C65.3472 75.0484 62.4763 72.7804 62.4763 72.7804C83.1036 71.7325 89.9292 61.5409 111.612 70.0315C111.612 70.0315 109.028 68.1726 107.987 66.2707C106.925 64.3328 106.774 62.6749 106.774 62.6749C106.774 62.6749 110.241 63.5003 113.399 63.9668C116.557 64.4333 122.033 64.1534 123.332 64.34C124.631 64.5266 128.205 65.1726 128.205 65.1726C128.205 65.1726 126.44 63.2347 125.973 61.749C125.973 61.749 133.323 65.0793 136.753 65.6391C140.191 66.1989 145.244 67.0315 147.569 68.4238C149.895 69.8162 151.036 69.8162 151.036 69.8162C151.036 69.8162 158.192 69.2851 160.941 72.2206C163.725 75.1919 162.139 79.1609 160.653 81.1993L172.022 87.7808C172.022 87.7808 173.515 88.4339 173.515 90.3789C173.515 92.324 173.895 94.8862 173.895 94.8862L186.707 105.279C186.707 105.279 189.678 105.286 190.511 106.126C191.343 106.965 197.178 113.712 197.178 113.712C197.178 113.712 198.118 114.365 197.839 115.291C197.559 116.217 195.7 120.674 195.7 120.674L196.446 122.253C196.446 122.253 196.525 123.667 196.066 124.32C195.606 124.973 194.322 126.344 194.322 126.344L193.489 127.27L194.415 129.315C194.415 129.315 193.949 130.801 192.836 131.174C191.724 131.547 183.362 132.94 183.362 132.94C183.362 132.94 182.343 133.22 180.764 132.567C179.185 131.913 170.479 126.81 170.479 126.81L169.503 123.868Z" fill="white"/>
<path d="M116.851 107.425C104.269 111.372 95.2403 123.875 94.0059 129.172C94.0059 129.172 99.1376 130.047 101.434 130.543C103.939 131.088 107.126 131.634 109.774 131.964C109.774 131.964 108.626 130.334 109.717 126.645C110.614 123.609 113.298 117.609 120.605 113.813C117.755 111.444 116.851 107.425 116.851 107.425Z" fill="#511B00"/>
<path d="M172.008 118.621C174.778 119.159 180.412 125.002 183.254 127.643L195.025 125.92L193.927 128.188C193.927 128.188 184.647 129.746 182.917 130.112C181.001 129.466 173.967 126.365 171.921 124.772C171.921 124.772 170.866 121.786 170.328 119.396C170.328 119.396 174.189 123.387 175.754 124.298C174.771 122.468 172.008 118.621 172.008 118.621Z" fill="#511B00"/>
<path d="M164.859 111.982C168.333 112.872 172.367 115.679 172.367 115.679C169.338 114.803 167.551 114.365 166.417 115.148C165.283 115.937 166.223 119.497 166.223 119.497C165.649 117.868 162.326 113.554 162.326 113.554C163.008 112.801 164.859 111.982 164.859 111.982Z" fill="#511B00"/>
<path d="M90.8261 85.9432C101.7 80.9263 112.487 76.5123 124.207 77.0219C124.947 77.0578 123.518 77.0793 121.738 73.017C119.14 67.0958 111.016 70.4332 110.291 65.1365C110.269 64.9929 110.42 64.8996 110.549 64.9642C115.602 67.67 127.868 64.2537 134.614 72.3209C136.459 74.3377 135.892 76.4765 135.016 78.1703C134.966 78.2708 135.016 78.3856 135.124 78.4143C138.354 79.1894 141.677 80.1871 144.067 80.9335C144.253 80.9909 144.354 80.7756 144.217 80.6321C142.825 79.1177 140.392 77.5387 139.552 76.699C139.423 76.5698 139.574 76.3401 139.739 76.4119C145.38 78.7086 149.471 80.8689 154.201 83.8116C154.488 83.991 154.854 83.7398 154.782 83.4097C154.567 82.4336 154.359 81.3283 154.093 80.5244C154.043 80.3665 154.208 80.2373 154.344 80.3234C156.648 81.7804 168.017 88.5701 170.256 89.9912C170.508 90.1491 170.658 90.4218 170.665 90.7161L170.752 94.7209C170.752 94.7712 170.773 94.8214 170.816 94.8501C174.778 98.0655 179.587 102.092 185.077 107.231C185.113 107.267 185.163 107.281 185.214 107.281C185.623 107.231 187.582 107.03 188.91 107.518C188.939 107.525 188.953 107.539 188.975 107.561C189.355 107.941 193.711 112.305 195.341 114.946C195.369 114.997 195.377 115.054 195.348 115.104L193.101 121.621C193.08 121.671 191.623 121.815 191.185 121.901C191.056 121.923 193.109 115.513 193.109 115.513C193.13 115.449 193.116 115.377 193.066 115.327L188.364 110.92C188.336 110.898 188.307 110.877 188.271 110.877C187.008 110.654 185.616 110.626 184.482 110.575C184.317 110.568 184.238 110.762 184.352 110.877C185.486 111.918 188.838 115.269 187.941 117.745C187.934 117.76 187.927 117.774 187.919 117.789C187.553 118.456 186.908 118.879 186.161 119.088C184.395 119.446 180.821 117.853 179.142 116.389C179.005 116.274 178.812 116.403 178.862 116.576C179.12 117.415 179.522 118.169 180.003 118.937C176.536 116.36 174.505 112.592 174.398 108.487C174.398 108.451 174.405 108.422 174.419 108.386C174.857 107.482 176.07 107.69 177.233 107.783C177.426 107.798 177.491 107.532 177.319 107.453C175.503 106.592 172.259 105.257 170.429 104.834C170.342 104.812 170.264 104.855 170.235 104.934C170.12 105.214 169.862 105.925 169.718 106.886C169.697 107.016 169.56 107.08 169.452 107.008C166.495 105.056 163.431 103.972 162.857 103.728C162.778 103.692 162.692 103.721 162.641 103.8C162.491 104.044 162.189 104.647 162.16 105.602C162.16 105.652 162.175 105.695 162.204 105.731C162.426 105.968 163.388 107.037 164.414 108.702C164.507 108.86 164.328 109.032 164.17 108.946C160.768 106.972 158.134 105.379 154.861 103.614C154.811 103.585 154.768 103.527 154.768 103.47C154.675 102.494 155.148 101.733 155.385 101.417C155.45 101.331 155.428 101.216 155.335 101.159C153.325 100.068 149.048 97.8789 146.636 96.6157C146.112 96.343 145.509 96.2856 144.949 96.4578C143.966 96.7593 142.631 97.111 141.705 97.3478C141.268 97.4626 141.138 98.0225 141.49 98.3167C143.32 99.8598 144.619 101.503 144.82 103.319C145.416 106.183 144.526 108.422 142.387 110.08C142.38 110.087 142.373 110.095 142.366 110.095C139.595 111.903 134.643 112.169 130.408 110.726C130.416 110.726 130.416 110.733 130.423 110.733C130.401 110.726 130.38 110.719 130.351 110.705C130.186 110.647 130.021 110.583 129.856 110.525C129.712 110.468 129.562 110.41 129.418 110.353C129.282 110.295 129.145 110.238 129.009 110.173C128.829 110.095 128.657 110.008 128.485 109.922C128.377 109.865 128.27 109.815 128.162 109.757C127.882 109.606 127.609 109.456 127.351 109.291C119.327 105.257 121.423 91.7352 123.418 88.8572C123.49 88.7495 123.418 88.606 123.289 88.5916C121.882 88.4624 120.403 88.5127 120.052 88.5342C119.994 88.5342 119.951 88.5629 119.923 88.606C118.882 90.0629 117.784 92.9482 117.561 93.5295C117.54 93.5941 117.475 93.6372 117.411 93.6372C102.116 94.0893 83.1896 106.678 73.0912 119.31C71.7634 120.968 65.9714 128.138 64.6436 129.638C48.1073 134.296 25.0541 139.342 10.0825 138.552C8.71161 138.48 2.86218 138.136 9.41497 137.389C46.5714 133.148 62.2249 99.1349 90.8261 85.9432Z" fill="#511B00"/>
<path d="M158.78 79.0247C157.653 76.2973 155.995 74.058 154 72.2422C162.735 73.6489 158.873 78.9744 158.873 78.9744L158.78 79.0247Z" fill="#511B00"/>
<path d="M161.565 93.6296L147.455 85.3184L145.409 85.7921C145.416 85.7921 150.699 99.3067 161.565 93.6296Z" fill="white"/>
<path d="M154.46 92.5102C156.271 92.5102 157.74 91.0417 157.74 89.2302C157.74 87.4187 156.271 85.9502 154.46 85.9502C152.648 85.9502 151.18 87.4187 151.18 89.2302C151.18 91.0417 152.648 92.5102 154.46 92.5102Z" fill="#511B00"/>
<path d="M178.517 110.138C178.259 110.138 178.159 110.425 178.309 110.898C179.12 113.231 180.778 115.994 183.599 116.734C184.187 116.798 185.3 116.92 185.379 116.289C185.566 114.064 182.975 113.489 181.482 112.348C181.41 112.284 181.324 112.198 181.252 112.126C181.819 111.817 182.874 112.162 183.542 112.19C182.178 110.92 180.513 110.138 178.517 110.138Z" fill="white"/>
<path d="M71.5051 75.1916C72.4955 75.4643 74.4047 75.7873 75.9908 75.8662C84.747 76.2825 91.063 73.1461 99.934 74.8256C104.908 75.7658 106.013 77.3519 106.013 77.3519L110.772 76.1892C110.772 76.1892 108.64 73.7203 103.221 72.615C98.312 71.6102 93.5032 71.5743 88.8524 72.6365C84.2088 73.6987 76.3999 74.8686 72.1869 74.3088C68.8208 73.8566 69.3519 74.5959 71.5051 75.1916Z" fill="#511B00"/>
<path d="M49.256 88.9294C49.256 88.9294 52.17 90.1998 59.462 87.9748C73.9887 83.5537 82.6229 87.415 82.6229 87.415L87.0512 85.0107C87.0512 85.0107 84.5464 82.6781 77.1252 82.5345C70.0125 82.3981 65.5842 84.013 64.3641 84.458C62.2181 85.2547 55.6366 88.4198 50.7704 88.1614C47.189 87.9677 49.256 88.9294 49.256 88.9294Z" fill="#511B00"/>
<path d="M65.993 99.0482C65.993 99.0482 57.8469 94.7563 39.8895 106.312C34.1549 110.001 28.528 111.049 27.5303 111.049C26.5327 111.049 25.5781 110.539 27.3796 110.051C29.3749 109.505 33.997 108.199 42.5523 102.02C46.8801 98.8903 55.8157 94.9787 62.1102 94.1605C67.7084 93.4356 70.529 95.4309 70.529 95.4309L65.993 99.0482Z" fill="#511B00"/>
<path d="M51.0791 112.758C51.0791 112.758 46.6938 112.478 41.2822 116.627C35.8706 120.782 31.6863 124.529 30.3154 125.598C28.6144 126.919 24.5593 130.249 23.2889 131.081C22.1406 131.828 21.6453 131.11 22.6502 130.414C23.655 129.718 28.4781 125.612 35.2103 118.945C36.9831 117.194 44.3971 109.349 55.084 109.263L51.0791 112.758Z" fill="#511B00"/>
<path d="M149.407 76.3832C150.498 77.0507 150.29 75.4358 149.651 74.1511C148.818 72.486 147.921 69.9596 140.378 68.6749C137.787 68.237 135.591 67.8495 134.04 67.67C132.095 67.4476 131.952 67.8782 133.753 68.6964C136.366 69.9022 145.373 73.9286 149.407 76.3832Z" fill="#511B00"/>
<path d="M158.249 68.4809C160.675 69.3207 163.051 71.5241 163.855 74.1796C164.651 76.8137 163.869 79.2683 163.496 80.2085C163.402 80.4453 163.481 80.7109 163.697 80.8545C165.204 81.8377 171.462 85.5196 173.379 86.7254C175.984 88.3618 175.496 90.4791 175.539 91.6274C175.575 92.4815 175.632 93.673 175.661 94.1754C175.668 94.3261 175.74 94.4624 175.855 94.5629L187.238 103.764C187.353 103.857 187.496 103.893 187.64 103.879C190.582 103.527 191.688 105.25 191.853 105.544C191.867 105.573 191.889 105.601 191.91 105.63C192.384 106.161 197.028 111.429 198.671 113.267C199.791 114.523 199.023 116.798 199.023 116.798L197.53 120.982C197.494 121.076 197.487 121.176 197.508 121.277L198.04 123.745C198.075 123.903 198.032 124.068 197.932 124.198L195.24 127.478C195.147 127.592 195.104 127.743 195.126 127.894C195.219 128.482 195.449 130.026 195.485 130.485C195.528 131.059 194.824 132.387 193.898 132.739C193.245 132.99 189.52 133.614 185.336 134.282C184.719 134.382 183.104 134.748 181.719 134.569C180.412 134.404 179.3 133.751 179.171 133.672C179.163 133.664 179.149 133.657 179.142 133.657L169.18 128.569C169.044 128.497 168.943 128.368 168.907 128.217L168.319 125.755C168.283 125.597 168.168 125.461 168.017 125.396L152.084 118.549C151.933 118.485 151.761 118.485 151.617 118.564C150.763 119.023 147.498 120.623 142.703 121.355C137.679 122.123 133.387 121.851 132.526 121.786C132.425 121.779 132.318 121.8 132.225 121.851C126.066 125.188 126.375 133.277 126.598 135.559C126.626 135.882 126.368 136.155 126.045 136.148C114.518 135.703 103.322 133.686 96.0298 132.15C77.9863 128.353 64.4429 132.136 63.273 132.372C62.1031 132.609 43.6362 137.526 29.8057 139.478C18.4944 141.078 5.54669 140.031 1.20448 139.6C0.702074 139.55 0.551353 138.897 0.974809 138.624C14.956 129.573 24.6453 119.547 27.3582 116.604C27.6669 116.274 27.4372 115.736 26.985 115.714C19.1188 115.406 13.456 113.367 11.1234 112.362C10.6784 112.176 10.6999 111.544 11.1521 111.379C30.9971 104.109 40.5572 96.3429 43.2414 93.9098C43.5644 93.6155 43.4065 93.0772 42.9759 92.9983C33.7388 91.2471 32.1024 86.3091 31.5354 84.5005C31.4134 84.1273 31.7292 83.7612 32.1167 83.8115C44.44 85.4263 55.3709 81.7372 56.6987 81.2923C57.8829 80.8975 63.4453 78.931 65.7707 78.041C66.1942 77.8759 66.23 77.2945 65.8281 77.0721C63.5601 75.8448 60.4596 73.4691 59.0744 72.1198C58.737 71.7896 58.9595 71.2155 59.4332 71.2083C68.6272 71.0432 82.2855 66.8661 84.6037 66.3062C101.162 62.287 105.999 67.2967 105.827 65.6675C105.654 64.0382 105.698 62.1578 105.913 61.4329C106.128 60.708 106.853 59.8467 108.439 60.3635C112.631 61.72 115.932 62.2583 119.478 62.2009C121.2 62.1722 122.944 62.2009 124.315 62.4162C124.746 62.4808 125.255 62.2798 125.076 61.8851C124.868 61.4186 124.688 60.8946 124.538 60.4353C124.394 59.9688 124.889 59.5668 125.313 59.818C126.038 60.2415 127.129 60.8228 128.665 61.4975C134.715 64.1459 141.598 63.9162 144.957 64.6985C147.806 65.3588 149.924 67.0311 150.498 67.5192C150.598 67.6053 150.727 67.6484 150.864 67.6484C151.775 67.5981 155.464 67.5192 158.249 68.4809ZM9.11377 136.406C9.09224 136.42 7.57785 137.318 9.08506 137.368C13.5852 137.511 26.8846 137.425 39.5093 134.662C55.1197 131.238 65.5984 128.597 67.644 128.21C69.6895 127.822 78.7902 125.396 98.9223 129.365C115.38 132.609 121.373 133.018 123.009 133.062C123.289 133.069 123.526 132.853 123.547 132.573C123.705 130.499 124.81 122.317 132.591 118.162C132.713 118.097 132.856 118.083 132.985 118.119C134.327 118.499 142.28 120.394 151.581 115.377C151.732 115.298 151.912 115.291 152.062 115.362L169.761 123.48C169.891 123.545 169.998 123.659 170.041 123.796L170.845 126.293C170.888 126.423 170.981 126.53 171.096 126.602L177.972 130.305L180.62 131.741C180.62 131.741 181.561 132.294 182.386 132.294C183.211 132.294 192.592 130.636 192.592 130.636C192.592 130.636 193.417 130.413 193.417 129.86C193.417 129.437 192.972 128.081 192.772 127.485C192.714 127.305 192.75 127.112 192.872 126.975L195.721 123.616C195.836 123.487 195.872 123.308 195.829 123.143L195.284 120.997C195.255 120.882 195.262 120.767 195.312 120.652C195.693 119.755 197.056 115.901 197.056 115.901C197.056 115.901 197.329 115.126 196.726 114.358C196.145 113.611 190.956 107.654 190.568 107.209C190.554 107.195 190.539 107.173 190.525 107.159C190.425 107.008 189.908 106.291 189.219 106.197C188.616 106.111 187.518 106.19 187.058 106.233C186.922 106.247 186.786 106.204 186.678 106.111L173.142 94.9936C173.02 94.8931 172.948 94.7352 172.948 94.5773L172.998 90.1274C172.998 90.0987 172.998 90.07 172.991 90.0413C172.962 89.8619 172.812 89.2374 172.115 88.7709C171.391 88.29 162.39 82.9574 160.287 81.6224C160.036 81.4645 159.964 81.1272 160.13 80.8832C160.754 79.9501 162.053 77.6462 161.63 75.1486C161.077 71.8973 157.072 70.4977 154.043 70.2824C151.79 70.1173 150.498 70.2393 149.981 70.3111C149.816 70.3327 149.651 70.2752 149.536 70.1604C148.926 69.5432 146.744 67.6197 142.739 67.0168C138.569 66.3924 132.885 65.6675 129.181 64.2607C128.708 64.0813 128.277 64.6052 128.543 65.0359C128.794 65.4521 128.406 65.9617 127.94 65.8254C127.057 65.5598 125.88 65.244 124.882 65.0646C123.009 64.7344 121.753 64.5622 116.901 64.5622C113.413 64.5622 110.844 63.4497 109.322 63.1483C108.906 63.0693 108.425 63.4066 108.511 64.2607C108.647 65.5957 108.554 68.0718 111.913 69.3853C112.394 69.5719 112.186 69.902 111.604 70.0456C110.786 70.2537 105.934 68.7465 103.221 68.201C97.4868 67.0455 94.3432 66.8804 83.197 69.5216C73.6943 71.7824 69.2086 72.7944 65.9717 73.1102C65.4693 73.1605 65.3114 73.828 65.7492 74.0935C67.2133 74.9907 69.6679 76.383 72.1512 77.2443C72.6178 77.4094 72.6249 78.0625 72.1656 78.2419C68.5124 79.6559 59.1031 83.2875 57.9906 83.6464C56.6915 84.0627 47.0741 87.3355 37.5068 86.7685C36.9614 86.7398 36.7389 87.4503 37.191 87.7446C38.7126 88.7422 41.6768 90.1561 46.9018 90.9815C47.4042 91.0604 47.9784 91.125 48.4449 91.1753C48.854 91.2183 49.0621 91.6849 48.8181 92.015C47.8779 93.2926 45.5023 96.0845 40.672 99.4721C33.9972 104.159 27.7674 107.195 25.4994 108.243C23.9921 108.939 20.9921 110.181 19.1547 110.927C18.6738 111.121 18.7312 111.824 19.2408 111.939C20.9777 112.319 23.8701 112.872 26.7697 113.044C29.6119 113.217 31.6 113.367 32.7053 113.453C33.1359 113.489 33.344 113.992 33.0713 114.322C31.6574 116.023 28.2123 120.107 25.5137 122.762C22.0399 126.186 17.2168 130.277 14.7335 132.322C13.1115 133.636 12.5588 134.038 9.11377 136.406Z" fill="#511B00"/>
</svg>
