<?xml version="1.0" encoding="UTF-8"?>
<svg width="200px" height="200px" viewBox="0 0 200 200" version="1.1" xmlns="http://www.w3.org/2000/svg" xmlns:xlink="http://www.w3.org/1999/xlink">
    <!-- Generator: Sketch 54.1 (76490) - https://sketchapp.com -->
    <title>western-ky</title>
    <desc>Created with Sketch.</desc>
    <g id="western-ky" stroke="none" stroke-width="1" fill="none" fill-rule="evenodd">
        <g id="western-ky_BGL">
            <g id="western-ky" transform="translate(0.000000, 27.000000)">
                <g id="g10" transform="translate(100.086578, 73.364503) scale(-1, 1) rotate(-180.000000) translate(-100.086578, -73.364503) translate(0.173160, 0.117752)">
                    <g id="g12" transform="translate(0.311688, 0.000000)">
                        <path d="M17.7481208,19.0535753 C17.7481208,19.3710818 17.7739563,19.682493 17.823584,19.986216 C15.7838264,20.9929692 14.1003633,22.7829951 13.2371598,25.237021 L12.9687616,25.3170903 C12.2547183,25.5453154 11.0614023,25.8847439 10.1259565,26.559653 C8.04692621,28.0581811 6.5110994,30.5357222 6.5110994,33.2467524 C6.5110994,33.3399472 6.61932451,33.9615922 6.60131585,34.0601896 C4.58237218,35.6450208 3.14177654,37.611774 2.71536963,40.2961029 C2.65570902,40.6715141 2.73254712,41.740605 2.71536963,42.1035487 C1.0886095,43.1878777 0.532467519,45.337488 0.184929519,47.5258863 C-0.356197394,50.9329857 0.546538514,53.4001718 3.16720685,55.4784402 C3.38122243,55.6484835 4.04031159,55.9740246 4.25177479,56.1115137 C4.20564492,56.3224228 2.89623889,60.901124 2.89623889,60.901124 C2.89623889,60.901124 3.97132458,61.0635483 5.51785268,61.3485699 C4.41111677,98.6254521 30.3418521,124.788915 61.4576608,136.001036 C96.3483959,148.573156 130.194629,147.695927 154.352897,143.752724 C166.496966,141.770732 177.591684,138.477919 185.650904,135.680343 C193.716359,132.880343 199.493675,130.232031 199.493675,130.232031 L195.243978,126.315148 C195.232549,126.304759 194.77887,125.883287 194.069952,125.160516 C193.34164,124.418006 192.35151,123.365538 191.292809,122.114283 C189.134887,119.565019 186.863718,116.389261 185.831684,113.454889 C183.829952,107.761729 182.803805,103.862855 182.056446,100.018006 C181.284844,96.0495214 180.798957,92.1374869 179.865277,86.4893485 C178.981814,81.1445867 177.135234,74.0955826 177.135234,74.0955826 L175.332983,73.6654527 C175.029606,72.3601714 174.635147,70.6926389 174.250385,69.1522061 C173.543892,66.3272711 171.358264,60.3182669 171.358264,60.3182669 L169.559476,59.6554098 C169.184065,58.6531587 168.664931,57.2848471 168.076533,55.7877042 C166.964844,52.9579208 163.774888,47.3832023 163.774888,47.3832023 L161.59584,46.9291763 C160.712377,45.2907348 159.291425,42.7508214 157.98926,40.8283972 C156.46649,38.5807783 154.770213,36.4824233 153.451771,34.9454537 C152.12952,33.4032892 151.18649,32.423549 151.179217,32.4162762 L148.912897,30.0588391 L146.221988,31.9161204 C146.131252,31.9791507 126.495235,45.5116872 113.364499,50.6732455 C108.82043,52.4599121 103.94043,54.2413839 99.4143698,55.5691761 C99.5591317,51.8209511 99.2121187,45.5272716 98.4855387,40.7726397 C97.3361015,33.2467524 94.3456253,25.0853673 94.3456253,25.0853673 L91.6204306,23.9906488 C91.4309934,23.4590124 91.2481362,22.9406055 91.0947163,22.4955492 C90.4806904,20.7148393 87.6862316,14.3321209 87.6862316,14.3321209 L85.6353225,13.4989088 C85.4029416,13.0154109 85.1213832,12.4526404 84.8342836,11.8898698 C84.1904741,10.6269088 83.5026819,9.32980063 83.3007771,8.91598246 C81.8663183,5.97915137 79.1812967,1.53977139 79.1812967,1.53977139 L77.6578336,1.15016101 C77.451773,1.09780776 49.9702152,-5.84793059 27.5358608,15.0254195 C26.4989084,13.9789087 25.0604669,13.3306317 23.4707873,13.3306317 C20.3100601,13.3306317 17.7481208,15.8929866 17.7481208,19.0535753 Z M80.4363616,45.6280508 C83.9016429,47.5283105 87.0583528,50.0772282 89.3832012,52.2254532 C90.5589588,53.3122065 92.8114263,55.3035484 94.2632011,56.9246739 C72.182509,62.5104746 54.0858861,62.2777474 45.1948041,59.1667518 L53.9369683,50.5838948 L73.5736778,42.5835487 C75.8659721,43.3748907 78.1658855,44.3830292 80.4363616,45.6280508 L80.4363616,45.6280508 L80.4363616,45.6280508 Z" id="path14" fill="#FFFFFF" fill-rule="nonzero"></path>
                        <path d="M81.7014698,41.651947 C79.1754093,40.2666657 76.4969678,39.172986 73.7516865,38.3587869 L51.7838948,47.3087434 L38.5835488,60.2690894 C49.7998256,68.9440675 84.5326386,66.1392191 114.771599,54.2521199 C128.393763,48.8973148 148.406923,35.0808649 148.406923,35.0808649 C148.406923,35.0808649 151.943892,38.7605185 154.805191,42.984934 C156.781295,45.9019902 159.039996,50.3248472 159.039996,50.3248472 L161.298005,50.7951502 C161.298005,50.7951502 163.46216,54.5589597 164.497658,57.1937648 C165.672723,60.1852799 166.567615,62.6510807 166.567615,62.6510807 L168.35532,63.3101283 C168.35532,63.3101283 169.848654,67.4015568 170.519476,70.0848467 C171.300429,73.2086562 172.119476,76.8599115 172.119476,76.8599115 L173.71913,77.2363617 C173.71913,77.2363617 175.230472,82.0287425 176.071684,87.1161883 C177.953242,98.502162 178.03913,102.886578 182.204324,114.730387 C184.699909,121.827529 192.638264,129.142854 192.638264,129.142854 C192.638264,129.142854 130.322075,156.786836 62.7231153,132.386144 C32.4289862,121.451079 8.08522924,96.2756686 9.37866643,60.9475309 C9.41343699,60.0003448 9.47456253,59.0687431 9.56128115,58.14857 C8.17451062,57.8219899 7.45683098,57.7239812 7.45683098,57.7239812 C7.45683098,57.7239812 7.51487427,56.9163622 8.2007617,55.4299553 C8.57277901,54.6240679 8.81887424,54.3286567 9.13056254,53.9421632 L8.14690889,53.8427692 C8.14690889,53.8427692 7.6543721,53.8095225 7.1241903,53.6412108 C6.71144572,53.5099554 6.13229422,53.2678775 5.55695224,52.8152368 C4.20141981,51.7482238 3.47078087,49.9993061 3.81291765,47.8448473 C4.12339384,45.8895227 4.97416438,44.4654534 6.16166218,43.5809513 C6.31899551,43.4635487 6.47591326,43.3606916 6.62988728,43.2706483 C6.47064919,42.6174881 6.43494356,41.884328 6.56304745,41.0780942 C6.87366217,39.1227696 7.72415565,37.6987004 8.91179198,36.8141982 C9.44602574,36.4162761 9.97430278,36.1849342 10.4128829,36.0516008 C10.2620257,35.4406918 10.2146837,34.7601723 10.2996361,34.0155489 C10.5305625,31.9926918 11.4769867,30.5793932 12.6565192,29.7291767 C13.2010386,29.3368651 13.7302507,29.1106486 14.1392204,28.9801205 C14.397991,28.8973153 14.6722074,28.8433586 14.88232,28.8120859 C15.0916014,28.7816443 15.355255,28.7639473 15.355255,28.7639473 L16.4890385,28.8533672 C16.4751165,28.4388564 16.5071857,28.005956 16.5891598,27.5573673 C17.0077225,25.2731422 18.3624238,23.8736617 19.9210038,23.2589431 C20.6056445,22.9894367 21.2337657,22.9077397 21.6783025,22.8875838 C22.2579735,22.8620254 22.6302678,22.9332981 22.6302678,22.9332981 L25.060744,23.2685362 C46.7750638,-2.77435145 76.7054526,4.8758094 76.7054526,4.8758094 C76.7054526,4.8758094 78.4786128,7.80533314 79.8451928,10.6036361 C80.257314,11.4469608 82.1534179,14.9914801 82.7085694,16.4606403 L84.7909936,17.3066662 C84.7909936,17.3066662 86.8699545,22.0401726 87.4593918,23.7493327 C87.7762749,24.6690903 88.2167943,25.8971768 88.5856255,26.915324 L91.2335908,27.9791508 C91.2335908,27.9791508 93.9522054,36.5260597 94.7151491,41.5612111 C95.6190452,47.5258863 95.8008634,53.5082238 95.8008634,53.5082238 C95.8008634,53.5082238 89.3887424,45.8673582 81.7014698,41.651947 L81.7014698,41.651947" id="path16" fill="#231F20" fill-rule="nonzero"></path>
                        <path d="M34.5708736,61.3128989 C48.1336785,75.5051063 92.6915994,69.6536779 123.94701,54.9960159 C137.380776,48.6961027 147.655408,42.2313409 147.655408,42.2313409 C147.655408,42.2313409 149.253676,44.0204318 150.947875,46.7487434 C151.96571,48.3892629 152.553762,49.1525529 153.367269,51.1407779 C149.571598,51.9542844 146.882767,52.2476177 140.172464,54.4845008 C127.701469,58.6417301 122.188395,64.8775741 122.188395,64.8775741 C122.188395,64.8775741 128.514629,61.0819032 142.161035,57.5570548 C149.21281,55.7361025 154.727961,55.0375744 157.343373,54.8460592 C158.236187,56.3449337 159.856273,61.3437214 160.235494,62.0758426 C158.442247,62.0166218 155.809866,62.1596521 150.836706,62.8893491 C144.058525,63.8832884 138.097659,66.8626823 137.823027,67.0465784 C138.026663,66.9128988 144.601209,65.8715135 153.548048,65.9619031 C158.297485,66.0100416 160.371251,66.1527256 163.308048,66.5946304 C165.754801,72.7106475 166.01939,75.3606908 166.01939,75.3606908 C166.01939,75.3606908 163.40571,74.7238077 162.04294,74.457141 C157.88571,73.6436345 153.18649,73.9148033 153.18649,73.9148033 C153.18649,73.9148033 166.01939,78.2528119 169.363459,81.1445867 C172.797571,90.3629415 172.172463,92.6303007 174.78545,106.629954 C176.050905,113.408136 180.750125,124.252811 185.67584,127.625625 C175.856619,132.405884 118.679478,149.181988 61.932466,128.617486 C36.7979212,119.509261 11.2541989,93.511686 12.9925538,61.0327257 C13.0255581,60.4155829 13.0718265,59.7790461 13.1351339,59.1224228 C13.4798265,59.2273578 13.8395494,59.3395656 14.2143027,59.4600851 C18.6237917,60.8748037 21.5299042,63.5515136 21.5299042,63.5515136 L34.5708736,61.3128989 L34.5708736,61.3128989" id="path18" fill="#E22739" fill-rule="nonzero"></path>
                        <path d="M23.0461293,19.2720342 L23.0461293,19.9407441 L23.6184929,19.9407441 C23.8758089,19.9407441 24.2167267,19.9407441 24.2167267,19.6705796 C24.2167267,19.3361727 24.0495232,19.2720342 23.7536617,19.2720342 L23.0461293,19.2720342 L23.0461293,19.2720342 Z M24.0495232,18.8733848 C24.5187873,18.905558 24.7696271,19.1046922 24.7696271,19.5934887 C24.7696271,20.2947874 24.3515838,20.403809 23.7408133,20.403809 L22.4546834,20.403809 L22.4546834,17.7544584 L23.0461293,17.7544584 L23.0461293,18.8733848 L23.4578003,18.8733848 L24.0495232,17.7544584 L24.6925015,17.7544584 L24.0495232,18.8733848 Z M23.4707873,17.1051078 C22.3580947,17.1051078 21.5286921,17.9151857 21.5286921,19.0469259 C21.5286921,20.1915493 22.3580947,21.0019042 23.4707873,21.0019042 C24.5638435,21.0019042 25.412744,20.1915493 25.412744,19.0469259 C25.412744,17.9151857 24.5638435,17.1051078 23.4707873,17.1051078 Z M23.4707873,16.5003979 C24.885402,16.5003979 26.0173154,17.6387874 26.0173154,19.0469259 C26.0173154,20.4682246 24.885402,21.6066142 23.4707873,21.6066142 C22.0495233,21.6066142 20.9241207,20.4682246 20.9241207,19.0469259 C20.9241207,17.6387874 22.0495233,16.5003979 23.4707873,16.5003979 L23.4707873,16.5003979 L23.4707873,16.5003979 Z" id="path20" fill="#231F20"></path>
                        <path d="M15.2103546,36.8065792 C15.2103546,36.8065792 12.9858005,36.7238086 13.2562075,34.3529342 C13.5323287,31.933575 15.3302161,31.7475663 15.3302161,31.7475663 C15.3302161,31.7475663 18.0135407,31.9688996 19.7720515,32.0474797 C21.4096272,32.1205187 22.2240341,33.4012459 22.2706834,34.2788217 C22.4209865,37.1044147 19.1043112,37.1137653 18.4855407,37.0877913 C17.9752376,37.0663194 15.2103546,36.8065792 15.2103546,36.8065792 L15.2103546,36.8065792" id="path22" fill="#FFFFFF" fill-rule="nonzero"></path>
                        <path d="M20.8479302,30.1458347 C20.8479302,30.1458347 19.133506,29.9366919 19.5163631,27.8455058 C19.9829605,25.2993933 22.1580254,25.6232375 22.1580254,25.6232375 L24.7536617,25.9822677 C24.7536617,25.9822677 26.8614712,26.9741638 26.1175751,28.9579214 C25.662337,30.1718088 25.0328652,30.5596529 23.468744,30.6406919 C22.1010557,30.7113066 20.8479302,30.1458347 20.8479302,30.1458347 L20.8479302,30.1458347" id="path24" fill="#FFFFFF" fill-rule="nonzero"></path>
                        <path d="M11.4561729,43.9982673 C11.4561729,43.9982673 9.3101989,43.9234621 9.50188721,41.544934 C9.71930712,38.8502155 11.5612811,38.8429428 11.5612811,38.8429428 C11.5612811,38.8429428 15.1293156,38.9520337 16.7850385,39.1023367 C18.4855407,39.2567956 19.3216965,40.5516873 19.2985623,41.4299557 C19.2261813,44.1703885 15.9207269,44.3494361 15.5723632,44.2583539 C15.0784758,44.1291764 11.4561729,43.9982673 11.4561729,43.9982673 L11.4561729,43.9982673" id="path26" fill="#FFFFFF" fill-rule="nonzero"></path>
                        <path d="M8.323463,51.1217303 C8.323463,51.1217303 6.37755828,50.9163624 6.75189594,48.5596525 C7.17260588,45.9106482 9.17707336,45.8992196 9.17707336,45.8992196 C9.17707336,45.8992196 11.2946491,46.0446742 13.1043114,46.1004317 C14.7426836,46.1513408 15.7481208,47.5335053 15.7947702,48.4107347 C15.9450732,51.2367087 12.4282941,51.25541 12.0687097,51.2391329 C11.1894023,51.1999987 8.323463,51.1217303 8.323463,51.1217303 L8.323463,51.1217303" id="path28" fill="#FFFFFF" fill-rule="nonzero"></path>
                        <path d="M31.7592027,54.8100419 L22.3978523,57.1040678 C22.3978523,57.1040678 20.9098869,55.1199986 17.3141121,54.5620766 C13.3457659,53.946319 11.9204499,56.1738514 11.9204499,56.1738514 C11.9204499,56.1738514 13.7378352,56.149609 16.9420948,57.5380072 C19.9599649,58.8453665 22.0101466,60.4945439 22.0101466,60.4945439 L35.9130727,57.7239812 L50.047791,44.4567954 L68.1904745,36.6812112 C68.1904745,36.6812112 66.5184399,36.2296095 61.0060591,36.0938519 C57.3457994,36.0034623 55.402596,36.500432 55.402596,36.500432 L48.3120334,42.1011245 C44.468224,42.1627695 41.1778345,42.7241548 38.5787003,44.5807781 C34.2390294,47.6806914 32.5029602,50.5942844 31.7592027,54.8100419 L31.7592027,54.8100419" id="path30" fill="#FFFFFF" fill-rule="nonzero"></path>
                        <path d="M45.2121201,35.6533324 C44.2015573,36.0543714 43.2633755,36.4522935 42.3854535,36.8457134 C40.2081375,36.6545445 38.3432025,37.1747177 36.2254536,37.8666657 C29.9641551,39.91238 26.4421119,46.0917737 25.7455232,50.6566221 L22.2736618,51.8344576 C22.2736618,51.8344576 21.8202246,50.9219035 20.381506,50.3341979 C18.9429259,49.7461459 19.0500428,49.8507347 19.0500428,49.8507347 C19.0500428,49.8507347 19.6551683,48.8571416 19.6079649,47.8666655 C19.5787354,47.2505616 19.3548393,46.787185 19.1274454,46.4699555 C20.36419,45.9078776 21.5123112,44.9277911 22.0124324,43.24225 C22.061402,43.1158431 22.1072895,42.9835487 22.1497484,42.8450206 C22.6420427,41.2374016 22.2812462,40.1257133 21.8859562,39.4715142 C22.8668739,39.0396527 23.9762072,38.2486571 24.6442245,36.9991333 C24.8648652,36.6760164 25.0526401,36.2929861 25.1876357,35.8393065 C25.4763284,34.8699558 25.426008,34.1207957 25.3053154,33.6163455 C26.9050383,33.1992719 28.1651941,32.2202243 28.9038261,30.2506659 C28.9464235,30.1371767 28.9848651,30.024207 29.0192201,29.9127265 C29.2575923,29.1377309 29.3006053,28.4148911 29.2156529,27.7593413 C29.1891248,26.5860426 28.7310469,25.4884842 27.6979041,24.7401206 L27.6278435,24.6704409 C32.260536,19.2966575 38.5270986,15.2927442 38.5270986,15.2927442 C51.0109078,5.91477041 70.4744571,8.2610907 73.2076172,9.17236341 C74.1184397,10.6036361 75.6803444,13.7274109 76.7217297,15.2893503 C72.7092623,14.2683979 68.4533316,13.5304239 61.0379206,13.9878092 C53.5501285,14.4495234 49.5844143,17.6973848 49.5844143,17.6973848 C49.5844143,17.6973848 54.6604315,15.7447269 64.8775741,16.265281 C71.4109073,16.5984758 76.2008639,17.6318957 80.1056257,18.9337138 C80.8865781,20.2351164 83.0992187,25.4414193 83.0992187,25.4414193 C83.0992187,25.4414193 72.556535,21.3877051 59.8666652,21.9272029 C49.7544576,22.3570211 43.9878777,27.7187526 43.9878777,27.7187526 C43.9878777,27.7187526 53.9449337,23.619047 64.0966218,24.5301812 C77.0742838,25.6949258 82.9690023,28.3047958 87.134197,30.2570382 C89.6907337,35.1754104 91.4618159,44.5433755 91.4618159,44.5433755 C91.4618159,44.5433755 82.7085694,32.7299732 63.0555828,32.4695749 C58.8159293,32.4135403 53.9854532,32.7079126 49.4019035,34.0595316 C47.9276178,34.5876701 46.5620768,35.104761 45.2983538,35.6124666 L45.2121201,35.6533324 L45.2121201,35.6533324" id="path32" fill="#E22739" fill-rule="nonzero"></path>
                        <path d="M142.284672,75.1528986 C140.212637,73.5127254 138.633763,72.0619895 136.563113,70.5367948 C135.397399,69.4379203 134.116707,68.993245 132.762594,69.1220762 C132.125018,69.2051931 131.68623,69.2945437 130.847443,69.6249333 C107.681729,78.7504742 89.9393917,83.3703875 66.7757559,81.1106473 C64.4218166,82.8609503 62.5066651,84.5319459 60.1215569,86.1783528 C58.8297821,92.8114263 57.019912,102.852292 57.0181804,102.858872 C55.9740246,103.475668 54.9205181,103.731253 54.9201718,103.731253 C53.6477909,107.880863 52.5132454,111.685192 51.228397,115.874975 C81.829262,122.459564 117.284846,124.954802 151.030992,115.613157 C149.808827,110.30753 148.736273,105.534196 147.44623,100.344933 C146.760862,99.676188 146.205364,99.1068373 145.565364,98.4595646 C145.565364,94.1378331 145.565364,90.0058852 145.565364,85.6425953 C145.565364,84.1610369 145.577486,82.912552 145.418525,81.3980932 C145.214542,79.7343703 144.9032,78.1371409 143.881901,76.6687427 C143.336447,75.9120327 142.867875,75.5373141 142.284672,75.1528986 L142.284672,75.1528986" id="path34" fill="#231F20" fill-rule="nonzero"></path>
                        <path d="M119.436187,118.12017 C123.107529,117.771079 127.305278,117.361036 131.017486,116.81004 C131.017486,106.949954 131.016447,98.4716858 131.016447,88.4799978 C132.303027,88.1236342 133.317746,87.7700411 134.595668,87.4403441 C134.595668,97.3970538 134.596014,106.327963 134.596014,116.21714 C138.2632,115.541123 147.695581,113.525192 147.698698,113.524846 C146.947529,109.651253 146.280516,106.146837 145.538351,102.318958 C144.850559,102.509435 142.914975,103.131426 142.914282,103.131772 C142.914282,97.6044997 142.914282,92.3310799 142.914282,86.76121 C142.914282,85.5092619 142.952724,84.3715996 142.795494,83.0870975 C142.611252,81.7752361 142.422161,80.7968811 141.811598,79.918959 C140.008308,77.752379 137.92623,78.6046734 135.975754,79.3336777 C133.557746,80.1897815 131.007443,80.8263183 128.60675,81.6761884 C127.745105,81.9809503 127.04346,82.2233746 126.163806,82.682249 C125.28069,83.1629416 124.567962,83.6993918 123.754109,84.627184 C122.026317,86.821816 122.037053,88.3982662 122.037053,91.4261449 C122.037053,97.9283092 122.047443,103.370387 122.047443,109.798439 C121.383893,109.873244 120.15688,110.158612 120.156534,110.158612 C119.916534,112.896621 119.675495,115.38701 119.436187,118.12017 L119.436187,118.12017" id="path36" fill="#FFFFFF" fill-rule="nonzero"></path>
                        <path d="M119.030646,118.1503 C118.654889,115.470127 118.326923,113.025452 117.95082,110.346318 C117.950473,110.346318 116.6774,110.483114 115.991685,110.52398 C114.051945,108.109435 112.348742,106.369175 110.177313,103.246404 C112.459218,99.8864044 113.73333,97.7606902 115.988569,94.3092617 C116.674975,94.1703873 117.753417,93.9653656 118.460257,93.8604306 C119.12069,90.4671839 119.713936,87.3565346 120.381642,83.9272706 C117.745452,84.6067511 114.041556,85.6339373 111.409867,86.2150628 C109.07359,89.6547164 106.479651,94.5194782 104.017313,97.7634608 C104.017313,94.2143699 104.018006,91.1047596 104.018006,87.4891753 C100.61714,88.0550627 96.6417292,88.7615562 93.2225085,89.0870973 C93.8472704,91.7994782 94.400344,94.2687422 95.0230279,96.9731577 C95.0237206,96.9731577 96.1741967,96.90424 96.753937,96.8592184 C96.753937,101.878785 96.7556686,106.204326 96.7556686,111.212811 C96.1454521,111.228049 95.6283959,111.205538 95.0251058,111.199305 C94.7591318,113.725365 94.5676167,116.023893 94.3037206,118.534023 C97.6976599,118.687097 100.608829,118.679478 104.019391,118.65385 C104.019391,114.505279 103.936274,112.351166 103.936274,108.449175 C106.359824,112.205711 108.081729,114.534369 110.511859,118.602248 C113.170906,118.536101 116.327616,118.359478 119.030646,118.1503 L119.030646,118.1503" id="path38" fill="#FFFFFF" fill-rule="nonzero"></path>
                        <path d="M55.2249337,113.723634 C55.2277042,113.724326 62.8921196,115.268915 68.5357559,115.945625 C68.5357559,113.707703 68.2406909,111.536621 68.2406909,109.363114 C67.4254529,109.312205 67.0933317,109.255409 66.2999118,109.178179 C66.9603446,105.014716 67.3707342,102.052292 67.9767948,98.2334175 C69.021297,104.167616 69.8798251,109.141469 70.8841541,116.296447 C74.0180068,116.713071 76.4612968,117.0303 79.6093487,117.392551 C80.6289157,110.148569 81.3852794,104.876534 82.3636343,98.7103006 C82.931946,102.758785 83.5584395,106.179391 84.0571408,110.931253 C83.1705607,110.860257 83.1130715,110.874456 82.2545434,110.790647 C82.2545434,113.145625 81.5674438,115.192378 81.5674438,117.592378 C85.6799979,117.993417 89.6356688,118.268742 93.7631145,118.526058 C93.4129847,116.031166 93.1238072,113.745105 92.7715994,111.234629 C92.7715994,111.234629 91.8351492,111.209694 91.1837207,111.20346 C90.1045865,102.401036 88.8959285,96.3473569 87.7274437,89.7090887 C83.8915996,89.9393917 80.9322923,90.1395648 77.1335046,90.1011233 C76.3251929,94.2507336 75.86147,97.7970538 75.1071843,102.5503 C74.3435479,97.7222486 73.7793921,94.2115994 73.0458856,90.0470973 C69.2387861,89.8763614 66.3137646,89.7572272 62.5316002,89.3215562 C61.2585266,95.8583526 60.8439812,98.920517 59.4566219,106.043287 C58.8235483,105.970214 57.6360159,105.756188 57.6356696,105.756188 C56.7996523,108.482422 56.0654531,110.982854 55.2249337,113.723634 L55.2249337,113.723634" id="path40" fill="#FFFFFF" fill-rule="nonzero"></path>
                    </g>
                </g>
            </g>
        </g>
    </g>
</svg>