<?xml version="1.0" encoding="UTF-8"?>
<svg width="200px" height="200px" viewBox="0 0 200 200" version="1.1" xmlns="http://www.w3.org/2000/svg" xmlns:xlink="http://www.w3.org/1999/xlink">
    <!-- Generator: Sketch 54.1 (76490) - https://sketchapp.com -->
    <title>wichita-st</title>
    <desc>Created with Sketch.</desc>
    <g id="wichita-st" stroke="none" stroke-width="1" fill="none" fill-rule="evenodd">
        <g id="wichita-st_BGL">
            <g id="wichita-st" transform="translate(0.000000, 17.000000)">
                <g id="g10" transform="translate(100.165835, 83.310120) scale(-1, 1) rotate(-180.000000) translate(-100.165835, -83.310120) translate(0.331675, 0.059707)" fill-rule="nonzero">
                    <g id="g12" transform="translate(0.597015, 0.000000)">
                        <path d="M31.6744271,79.8892186 C23.0472963,80.0437791 19.6100161,77.0434475 16.5560195,74.4351557 C14.3016912,72.5101143 11.9700826,70.5194012 7.7772469,69.0533979 C2.36603643,67.1635141 -0.670865655,61.6736303 0.220252731,55.3923038 C1.40340295,47.046765 9.79091186,37.3758531 25.4083576,35.8626193 C25.4703145,35.8566492 25.5237141,35.8200986 25.5516412,35.7651732 C26.9641121,32.9824867 30.3184735,28.3144272 36.9094518,28.3144272 L37.0711765,28.3156875 C37.1680919,28.3156875 37.2486226,28.2369479 37.2507453,28.1392364 C37.2986392,25.7698169 37.5448083,23.5302813 37.9819559,21.4831835 L38.0985728,20.9916413 L38.3341284,20.6149249 C38.4579758,20.418507 50.9377765,0.968596991 75.7890528,0.0505286223 C76.6845752,0.0178793362 77.5568803,0 78.3807609,0 C93.1349894,0 97.5051385,5.18086886 98.5724685,9.52762829 C98.5844088,9.58023193 98.6202297,9.62374769 98.6699809,9.6470976 C102.015918,11.2305802 107.277609,14.6434491 113.344607,21.9131006 C113.379765,21.9548253 113.420893,21.9768485 113.483911,21.9768485 C113.567493,21.9768485 113.58872,21.9501155 113.622551,21.9071305 C116.562518,18.1366496 121.756548,13.2597675 129.804309,11.4453728 C129.831506,11.4376117 130.455055,11.2777443 131.162849,11.2059699 C133.880594,5.92843103 138.883579,2.71118401 145.635154,1.90117408 C146.356215,1.81488553 147.085237,1.77186729 147.799001,1.77186729 C154.035154,1.77186729 158.053727,4.98652724 160.327028,7.68218886 C163.500493,11.4474292 165.320062,16.9073959 165.075286,21.9343278 C165.071969,21.9994024 165.103147,22.060298 165.159532,22.0941951 C170.174457,25.1886561 170.053064,29.0453724 169.534324,31.0711767 C169.526364,31.1030838 169.527027,31.1357206 169.535651,31.1668317 C169.594689,31.3585398 169.655717,31.576782 169.717409,31.819568 L169.758536,31.9887223 C170.213594,33.7904469 171.278271,38.0073622 168.603644,41.6697834 C168.461687,41.8633489 168.31774,42.0517402 168.17512,42.2374782 L168.015916,42.4458364 C167.333329,43.3341283 167.306132,43.3698828 167.294192,44.0218231 C167.182749,49.4161845 164.200328,51.8726355 161.247757,53.6066985 L161.006961,53.9171462 C159.76915,55.5125691 157.194026,58.8311096 152.151903,58.8311096 C150.463014,58.8311096 148.748918,58.458506 146.918073,57.6935309 C145.927691,57.3054049 140.735652,55.1834812 135.74328,51.4559854 C135.674955,51.4075609 135.578106,51.4104133 135.512434,51.4707781 L135.302816,51.6609606 C135.265005,51.692337 135.243778,51.7373785 135.242451,51.7864 C135.239134,51.8340286 135.255718,51.8819888 135.286895,51.9169473 C138.055718,54.9432822 140.352899,58.0928675 142.114756,61.2782738 C142.14726,61.3347248 142.218902,61.3743932 142.302484,61.3696834 C143.108454,61.2386054 143.861356,61.1740615 144.603645,61.1740615 C149.008951,61.1740615 152.454391,63.3962837 155.445436,68.1658358 C157.885237,72.0543929 157.511771,75.1462668 156.768155,77.0553878 C156.025867,78.9618554 154.566497,80.5406282 152.548587,81.6185718 C152.481588,81.6543927 152.445104,81.7247077 152.453064,81.7983396 C152.660029,83.522386 152.524043,85.1787707 152.049084,86.7190691 C152.031837,86.7741272 152.041124,86.8311753 152.073628,86.8769464 C152.897509,88.0444422 153.838139,89.8892183 153.639134,92.0524023 C153.523048,93.3240441 152.94527,95.1887207 150.863678,96.855719 C150.82653,96.8849064 150.803313,96.9260341 150.797343,96.9731319 C150.774789,97.1442762 150.749582,97.3273608 150.718404,97.5210589 C150.706464,97.591374 150.738968,97.6623525 150.79867,97.7001634 C150.859698,97.7379743 150.9393,97.7359843 150.997011,97.69751 C153.925038,95.7061336 156.861024,93.2378086 159.971472,90.1525682 C160.546596,89.5820873 161.219896,89.2935301 161.972135,89.2935301 C162.748255,89.2935301 163.317409,89.609948 163.339963,89.6225517 C164.427857,90.2202299 164.989714,91.4878916 164.706464,92.7051386 C164.674623,92.8378086 163.908454,96.0132646 161.406961,100.197012 C161.370477,100.260694 161.374457,100.338969 161.418238,100.396681 C161.452069,100.441789 161.502484,100.468323 161.607956,100.463016 C162.42056,100.242784 162.954556,100.08159 163.094523,100.039798 L163.525037,99.9051385 L163.948255,99.9051385 C164.945933,99.9051385 165.873296,100.442452 166.364838,101.306133 C166.384739,101.339964 166.400659,101.373795 166.423876,101.429517 L166.461024,101.515089 C166.490211,101.578107 166.56119,101.617908 166.632168,101.619235 C166.705137,101.615918 166.768155,101.56882 166.793362,101.500495 C168.31376,97.3134304 170.718404,93.4580408 173.942948,90.0411254 C174.468321,89.4786047 175.209946,89.1562167 175.964838,89.1562167 L175.966165,89.1562167 C176.666662,89.1011586 177.432831,89.5641769 177.464672,89.5840774 C177.580758,89.6563825 177.689548,89.7366478 177.789714,89.8228833 C177.853395,89.875288 177.950908,89.8786047 178.016579,89.8288535 C179.481919,88.6978419 181.061355,87.6417889 182.712433,86.6892184 C183.12968,86.4537292 183.602649,86.3290194 184.073627,86.3290194 L184.074954,86.3290194 L184.159863,86.3270294 C184.964506,86.3270294 185.682914,86.8019879 185.737972,86.8417889 C185.796347,86.8981736 185.891206,86.9061338 185.958868,86.8623527 C186.948586,86.22023 188.04444,85.5568801 189.216579,84.8922035 C189.758536,84.5857359 190.235484,84.5406281 190.472964,84.5406281 C190.530012,84.5406281 190.568486,84.5426181 190.570476,84.5432815 C191.383743,84.5452715 192.147922,84.8922035 192.663345,85.4945252 C192.704473,85.5402964 192.742284,85.5867309 192.775451,85.6318387 C192.811272,85.6756197 192.865667,85.7028171 192.979763,85.6908768 C193.603312,85.4660012 194.254722,85.2391355 194.951239,85.0076264 C195.440791,84.9021538 195.900493,84.8484224 196.316413,84.8484224 C197.749249,84.8484224 198.238801,85.4805949 198.242118,85.4885551 C198.562516,85.8096164 198.803975,86.2076264 198.937308,86.6394672 C199.255716,87.6258685 198.993693,88.7323361 198.288552,89.437477 C197.883909,89.994691 197.516413,90.4882233 197.158867,90.9605284 C197.11177,91.02421 197.110443,91.1097821 197.154224,91.172137 C197.195352,91.2271951 197.232499,91.2829165 197.269647,91.3412912 C197.962184,92.4596992 197.78706,93.8832481 196.842449,94.8053044 L196.790045,94.8550557 C195.849415,95.7266974 194.932002,96.5313409 194.063013,97.244442 C194.005965,97.2915399 193.982748,97.3704785 194.007292,97.4421203 C194.362848,98.4822529 194.068984,99.6172446 193.237143,100.408621 C191.893196,101.631175 190.465004,102.771473 188.990377,103.798339 C188.921388,103.8461 188.894854,103.936979 188.926032,104.011938 C188.971803,104.12139 189.010941,104.233497 189.042118,104.349583 C189.400327,105.653729 188.766164,107.050744 187.571471,107.596681 C181.416248,110.567825 175.853395,111.191374 172.270642,111.191374 C171.550244,111.191374 170.84046,111.16683 170.158536,111.117078 L169.846762,111.093198 C169.809614,111.093198 169.777774,111.101158 169.750576,111.116415 C166.295187,113.112435 162.886231,114.892203 159.617243,116.407957 C159.540295,116.443115 159.49983,116.52537 159.518404,116.608289 C159.536978,116.691871 159.607956,116.750246 159.692865,116.750246 L159.944938,116.750246 C160.82454,116.750246 161.657707,117.167493 162.173794,117.867327 C162.819233,118.730345 162.910112,119.897841 162.404639,120.843115 C162.372135,120.904143 162.376779,120.976448 162.417243,121.032169 C162.451737,121.079267 162.488221,121.102485 162.592367,121.105138 C162.811936,121.06799 163.034158,121.033496 163.270974,120.998339 L163.715419,120.965834 C164.862351,120.966498 165.902483,121.702153 166.303147,122.795353 C166.352235,122.932004 166.392036,123.069317 166.419233,123.207294 C166.435153,123.290213 166.508785,123.351241 166.593694,123.351241 C168.439797,123.369814 170.31575,123.515088 172.16716,123.783081 C173.262351,123.929018 174.172467,124.723048 174.482914,125.804309 C174.504142,125.874624 174.565833,125.925702 174.640128,125.932999 C175.820228,126.039134 177.079266,126.195022 178.382085,126.394027 C179.710775,126.580428 180.71973,127.668985 180.780758,128.979765 C180.784738,129.05605 180.786065,129.122385 180.784738,129.187393 C180.784738,129.265668 180.833826,129.33532 180.909448,129.359864 C181.536314,129.567493 182.187723,129.792368 182.831173,130.025867 C183.890543,130.218239 184.711106,130.926697 185.022881,131.916415 C185.158868,132.317078 185.203975,132.744939 185.154224,133.154226 C185.006961,134.413927 184.025203,135.413595 182.794025,135.580096 C182.122715,135.768487 181.516413,135.933662 180.931339,136.086895 C180.85439,136.106133 180.798669,136.175121 180.796679,136.250743 C180.795352,136.328355 180.788719,136.405967 180.780758,136.490212 C180.616911,137.794358 179.546928,138.81459 178.238138,138.916746 C176.976447,139.018239 175.755883,139.08192 174.610278,139.105801 C174.536646,139.107128 174.470311,139.156879 174.445103,139.225867 C174.072964,140.27794 173.121057,141.005635 172.019233,141.078603 C170.220228,141.207957 168.354225,141.22255 166.57512,141.120394 C166.488885,141.120394 166.415916,141.172799 166.394026,141.250411 C166.360858,141.364507 166.320394,141.476613 166.273296,141.584739 C165.834158,142.620892 164.827857,143.290212 163.705469,143.290212 L163.371804,143.282915 L163.102483,143.223877 C154.128023,141.239134 148.611605,136.557211 146.656049,134.636149 C146.625535,134.606298 146.587061,134.588388 146.543943,134.585071 C144.301157,134.395353 142.147923,134.141954 139.540295,133.823546 C138.926696,133.972136 138.304474,134.112103 137.677608,134.242783 C137.611937,134.256713 137.559532,134.305801 137.541622,134.372136 C137.523711,134.436481 137.544275,134.505469 137.594026,134.55124 C138.097509,135.011605 138.41459,135.643114 138.485569,136.331008 C138.615585,137.635817 137.847426,138.833164 136.618902,139.243114 C136.55124,139.265668 129.689549,141.587393 121.361854,141.587393 C118.955884,141.587393 116.634823,141.394358 114.432501,141.010942 C114.390047,141.010942 114.350246,141.025535 114.317742,141.052733 C114.277277,141.086564 114.252733,141.134988 114.252733,141.188056 C114.248753,141.442119 114.210279,141.694855 114.139964,141.936978 C114.126034,141.986729 114.133994,142.040461 114.163181,142.084905 C114.189715,142.12736 114.23615,142.156547 114.285238,142.164507 C117.470644,142.655386 120.612269,143.568819 123.628521,144.878935 C124.825204,145.418238 125.481921,146.759532 125.19071,148.073628 L125.167493,148.166497 C125.146929,148.242119 125.178106,148.321721 125.245105,148.364175 C126.632833,149.243114 127.981423,150.215585 129.253728,151.255054 C130.069648,151.915087 130.439798,152.970477 130.222219,154.00663 C130.206962,154.075618 130.234159,154.14726 130.290544,154.188388 C131.121058,154.807956 131.98275,155.486563 132.851738,156.206961 C133.880594,157.067326 134.157874,158.526033 133.513098,159.674291 C133.470643,159.74925 133.469317,159.869979 133.509781,159.917077 C133.800992,160.261356 134.097509,160.618901 134.376779,160.965833 C135.063347,161.580759 135.408288,162.43648 135.314756,163.35323 C134.643446,165.415585 133.05605,165.722716 132.169151,165.722716 C131.666995,165.722716 131.312766,165.629183 131.292866,165.623213 C130.626199,165.422218 129.98474,165.22056 129.316083,165.010941 C129.263678,165.010941 129.213264,165.034158 129.17877,165.074623 C128.65406,165.692865 127.858703,166.063014 127.04809,166.063014 C126.341622,166.057707 125.768488,165.75124 125.748587,165.740626 C124.590378,165.148918 123.509781,164.5592 122.535984,163.988056 C122.477609,163.952235 122.399334,163.954225 122.342949,163.996016 C121.875951,164.322384 121.306133,164.502815 120.752899,164.502815 C120.750909,164.502815 120.750909,164.502815 120.750909,164.502815 C120.061025,164.544606 119.467327,164.199001 119.453397,164.189051 C117.831506,163.345933 116.26799,162.403976 114.809284,161.388387 C114.746929,161.344606 114.655387,161.346596 114.593032,161.397674 C114.53134,161.447425 114.470312,161.495187 114.402651,161.544938 C113.943612,161.856049 113.403646,162.021223 112.834491,162.021223 C112.833165,162.021223 112.833165,162.021223 112.833165,162.021223 C112.782087,162.019233 111.584077,161.958205 110.924044,161.258371 C105.880594,156.482915 103.684906,151.644441 102.731672,148.425867 C102.722385,148.392699 102.702485,148.362849 102.677941,148.340958 C99.3180738,145.425535 96.6248732,142.505469 94.4457688,139.414259 C94.4179081,139.375784 94.376117,139.348587 94.2965151,139.33731 C94.2606942,139.33731 94.2248733,139.349914 94.1930325,139.372467 C91.3373111,141.452069 86.6746247,143.995353 80.6713081,144.301821 C80.0822534,144.301821 79.6769466,144.266 79.6563828,144.263346 C78.7376431,144.068321 77.9595337,143.401655 77.6271954,142.522053 C77.2066316,141.411605 77.5369798,140.15522 78.4470959,139.396348 C78.4603629,139.384408 78.6686547,139.20663 78.9830826,138.894856 C79.0368139,138.841124 79.0514076,138.758205 79.0175768,138.688554 C78.9870627,138.625536 78.9280246,138.589715 78.8338289,138.589715 C76.4902137,138.885569 73.7791026,138.924043 71.4613581,138.693861 C70.6215571,138.605635 69.8772785,138.151904 69.4195671,137.447426 C69.3711425,137.372468 69.26766,137.34328 69.1867313,137.386398 C67.5509104,138.232169 65.8571791,138.995021 64.0091526,139.716083 C63.9769802,139.728686 63.9487215,139.750577 63.9280249,139.777111 C61.9203301,142.514756 58.2024529,146.364175 51.8916073,149.161522 C51.3383735,149.387724 50.8817898,149.391041 50.7537632,149.404971 C49.8675941,149.404971 49.0179092,148.966497 48.4792028,148.228852 C48.4450402,148.179764 48.4090203,148.126033 48.3753222,148.070975 C48.3426854,148.01658 48.2830502,147.982749 48.1744598,147.990709 C46.4668645,148.458371 44.6877601,148.823214 42.8749575,149.075286 L42.4507452,149.105137 C41.5516408,149.103147 40.7091864,148.665336 40.1974783,147.931671 C40.1637801,147.884573 40.1295512,147.842119 40.0163174,147.858703 C38.8870969,148.074955 37.6632163,148.27197 36.3666326,148.442451 L35.9919062,148.465668 C34.8492197,148.465005 33.833432,147.75522 33.4040456,146.658039 C33.3776443,146.591041 33.3138963,146.546597 33.2413259,146.544607 C32.5621882,146.52736 31.8897504,146.502816 31.244311,146.469648 L31.1595349,146.471638 C30.7643773,146.471638 29.4244769,146.401323 28.7805631,145.511771 C28.4076941,145.073297 28.1843442,144.581754 28.1146262,144.052401 C27.9366494,142.787393 28.6357538,141.565502 29.790646,141.094524 C30.2508118,140.819897 30.6530009,140.581091 31.046102,140.352235 C31.1097836,140.315088 31.1450738,140.240129 31.1331336,140.167161 C30.9022878,138.829184 31.6537306,137.527691 32.9174121,137.070643 C33.9735978,136.683247 35.0069643,136.333662 35.9875281,136.031837 C36.0548581,136.01061 36.1046094,135.952235 36.1126359,135.882584 C36.2461019,134.841124 36.9625861,133.952235 37.9355878,133.61658 C39.4947254,133.058703 41.0968481,132.591041 42.6987717,132.225536 C42.7757203,132.208952 42.8321714,132.142617 42.8376109,132.059698 L42.8459027,131.963512 C42.9907784,130.630179 44.0759525,129.586066 45.4285892,129.47993 C46.9553554,129.373794 48.5846754,129.359201 50.1487218,129.440793 C50.2658694,129.440793 50.3047417,129.351241 50.316881,129.31144 C50.3407616,129.231174 50.3060021,129.146929 50.2339623,129.105138 C48.6727683,128.207625 47.1841448,127.18474 45.8084897,126.066332 C44.897644,125.328023 44.5496506,124.086896 44.9408944,122.979101 C45.3327352,121.867327 46.3886556,121.121058 47.569153,121.121058 C47.7741282,121.121058 49.6463006,121.117078 52.2862342,120.993695 C52.3639788,120.990378 52.4305791,120.937974 52.4510103,120.864342 C52.4717731,120.78872 52.4424531,120.709118 52.3787052,120.666664 C47.8295842,117.58076 44.6786722,113.615918 43.0135976,108.879599 C42.5541615,107.59071 43.1014251,106.166498 44.3195345,105.491871 L44.9391034,105.16882 C45.0116738,105.131009 45.0492194,105.048754 45.0295179,104.967825 C44.539833,102.930014 44.6076937,101.531672 44.6499491,101.095852 C44.7297501,100.212269 45.2189707,99.4142595 45.9548911,98.9645083 C45.9807617,98.9479246 46.5933653,98.5631816 47.4103471,98.552568 C48.1692857,98.552568 48.9207285,98.8736294 49.4195676,99.4096161 C49.6315079,99.631175 49.9127019,99.9130987 50.2500817,100.240794 C50.3047417,100.293862 50.3938959,100.305138 50.4612259,100.268654 C50.5306787,100.231507 50.5664332,100.153895 50.5519059,100.076283 C50.3536969,99.071971 49.8494183,96.6991684 49.7637135,95.6802629 C49.7092525,95.0421203 50.0443105,94.7296825 50.3951563,94.1970126 C50.4329672,94.1393011 50.4348246,94.0636792 50.3993354,94.0053044 C50.3651065,93.9495831 50.3153553,93.919069 50.2280584,93.9184056 L48.248357,94.1107771 C48.2110104,94.1140938 48.1755212,94.1300142 48.1472625,94.1552215 C45.6630834,96.3223857 41.4653389,99.3014901 35.5763175,101.183414 L35.129286,101.3194 L34.7440124,101.326034 C33.7067322,101.343944 32.7529013,100.790047 32.2522712,99.8792678 C32.1893193,99.7651716 32.1351899,99.6477587 32.0906128,99.527029 C32.0636145,99.458704 31.9887223,99.4029826 31.8954553,99.4135962 C30.1121717,99.6849063 28.2843774,99.8401302 26.4637473,99.8779411 C25.3765168,99.8965149 24.3659032,99.257709 23.8891536,98.2507438 C23.8593692,98.1890523 23.7950906,98.1472612 23.7158203,98.1485879 C23.7150243,98.1485879 23.7142283,98.1485879 23.7142283,98.1485879 C22.6974455,98.2215564 21.6083577,98.2686543 20.4806628,98.2878914 L20.0974456,98.2931982 C18.7601322,98.3164155 17.5914423,97.3797654 17.3165501,96.0650059 C17.3028188,96.0013243 17.2919399,95.9369794 17.2841787,95.8732978 C17.2727691,95.7943591 17.2131339,95.7333309 17.1512434,95.7227173 C16.962852,95.7081236 12.5507791,95.3525681 12.5826863,92.6208932 C12.5974126,91.3253709 13.4116083,90.2288535 14.5807625,89.8991686 C15.2917409,89.5734638 15.9284241,89.28756 16.5409614,89.0195666 C16.6125369,88.9897159 16.6557873,88.9154207 16.6469648,88.8338286 L16.6342948,88.6388038 C16.5902483,87.3247076 17.4606297,86.1744589 18.7528354,85.8427839 C20.0510774,85.5210592 21.3000326,85.2490858 22.4668651,85.0354871 C22.540696,85.0208934 22.5966827,84.9638453 22.610613,84.8902135 C22.8098833,83.7996662 23.6305135,82.9300145 24.703283,82.6746248 C26.5570806,82.2301804 28.4224869,81.9097824 30.2498168,81.723381 C30.2498168,81.723381 30.8734984,81.6198985 30.8641452,81.2165817 C30.8545929,80.8086215 31.3119063,80.4809267 31.8042446,80.2474275 C31.8042446,80.2474275 31.9672297,80.1976763 31.9672297,80.0510759 C31.9672297,79.9044756 31.752437,79.8885552 31.6744271,79.8892186" id="path14" fill="#FFFFFF"></path>
                        <path d="M166.03648,40.5990703 L165.886563,40.7946922 C165.024208,41.9169475 164.630178,42.4284567 164.600991,43.9661017 C164.505469,48.6141945 161.629847,50.2679258 159.544938,51.4661347 C159.407625,51.5868644 159.117741,51.9589373 158.878271,52.2673287 C157.754557,53.7139622 155.874623,56.137312 152.151903,56.137312 C150.82653,56.137312 149.432169,55.8248079 147.89187,55.1813585 C146.809283,54.7574779 141.150245,52.4357532 136.106796,48.3242442 C135.889217,48.1783736 135.558206,47.9363835 135.189383,47.5940287 C134.171141,49.3511762 132.695851,50.5566157 130.805967,51.1787715 C133.84809,54.1047416 137.995353,58.7541611 140.740958,64.4856369 C142.184408,64.0702472 143.448753,63.8679254 144.603645,63.8679254 C148.039134,63.8679254 150.678603,65.6350896 153.163512,69.5973449 C154.624208,71.9243763 155.001654,74.1645089 154.257376,76.0782734 C153.538968,77.9230495 151.784407,79.3220544 149.308122,80.0258686 C149.903811,81.7253711 150.294524,84.6673279 148.905469,87.2995003 C149.271638,87.6490857 151.162185,89.5734638 150.95721,91.8056362 C150.829847,93.1933642 149.911107,94.4059678 148.224872,95.4069628 C148.215585,95.9933641 148.069648,99.0779411 146.007293,103.71144 C151.629184,100.968488 156.987061,97.0288533 161.934324,91.998671 C161.962185,91.9688203 162.004639,91.9628501 162.041124,91.9827506 C162.076281,92.0019877 162.094192,92.0424521 162.086231,92.0822531 C162.070311,92.1439446 160.566497,98.3369793 154.686563,104.687228 C159.591372,103.945603 163.879266,102.616913 163.922384,102.603646 C163.959532,102.590379 164.007293,102.608289 164.027857,102.64411 C164.049084,102.681258 164.04046,102.728356 164.009946,102.756216 C154.41857,111.242452 140.473628,114.463015 140.333661,114.494856 C140.292534,114.504806 140.246099,114.480926 140.231506,114.441125 C140.214259,114.399997 140.230179,114.353563 140.26799,114.330345 C140.308454,114.305801 144.27794,111.85804 147.525701,107.759865 C143.203977,109.812269 137.636481,111.752568 130.972468,113.529019 C130.935983,113.539632 130.895519,113.524375 130.875619,113.491871 C130.853728,113.46003 130.855718,113.418239 130.879599,113.387062 C130.896846,113.363181 132.739632,110.977775 134.094192,107.846763 C130.214259,110.179765 123.408289,113.17081 112.727692,114.496183 C112.677941,114.50348 112.646763,114.478936 112.633496,114.441125 C112.618239,114.403314 112.628853,114.360196 112.661357,114.335652 C112.709118,114.299831 117.349251,110.681258 118.483579,105.922385 C115.209947,108.498173 109.883911,111.72537 102.803978,112.837808 C102.7728,112.842452 102.740959,112.830511 102.719732,112.804641 C102.699832,112.780097 100.839798,110.379433 100.608289,107.366498 C99.8222197,108.712435 98.8470954,110.892203 98.3628499,113.96285 C98.3588698,113.990047 98.3416227,114.012601 98.3177422,114.027194 C98.2958516,114.039135 98.2679909,114.041788 98.2407936,114.033165 C98.2129329,114.021888 95.4275266,112.920064 93.0965151,109.027526 C92.984409,110.498836 93.0003293,112.149914 93.145603,113.942286 C93.1489197,113.975453 93.1329993,114.006631 93.1051386,114.024541 C93.0779413,114.043115 93.0434471,114.044442 93.0135963,114.028521 C92.9260342,113.982087 84.2945253,109.283579 79.6159184,99.3936957 C79.8865652,102.308455 80.9598653,107.45605 84.951905,112.386067 C84.9804291,112.419898 84.9791024,112.468322 84.9512417,112.50149 C84.9220543,112.534657 84.8736297,112.542617 84.8364821,112.5194 C78.733663,108.760196 74.3893845,100.736979 73.885902,99.7505779 C76.0563828,109.279599 81.0268636,114.534657 84.8636795,117.280926 C84.8995004,117.306796 84.9114407,117.355884 84.8908768,117.396349 C84.870313,117.434823 84.8218884,117.45406 84.7814241,117.43814 C79.334658,115.503811 71.5734642,111.251075 65.3386385,101.968157 C65.7846086,104.153231 66.8344925,107.286896 69.2855704,110.532004 C69.3081243,110.562518 69.309451,110.604309 69.2895505,110.634823 C69.2683233,110.666664 69.2305124,110.683911 69.1933648,110.673297 C69.1137628,110.654724 61.6404628,108.819898 58.0283236,105.557543 C59.3371793,107.4461 63.3164827,112.588389 69.8931989,115.96285 C69.9323366,115.98275 69.9509104,116.027194 69.9383067,116.068985 C69.9257031,116.110777 69.8865654,116.134657 69.8414576,116.13134 C69.6603631,116.108123 51.6754879,113.675619 47.3259026,101.366498 C47.3119059,101.326697 47.3274283,101.282916 47.3637136,101.261026 C47.3994681,101.237145 47.446367,101.243779 47.475886,101.274956 C47.5264333,101.328024 52.4567151,106.463016 56.655521,108.342949 C54.1026852,104.645437 52.0460352,101.590711 52.7681579,95.1747903 C52.772337,95.1336626 52.7889207,95.096515 52.8283237,95.0819213 C52.8664,95.069981 52.9099158,95.0825847 52.9322043,95.1177422 C52.9630501,95.1635134 55.7499157,99.9907106 61.6897497,102.504143 C61.289617,101.399002 60.3194678,96.3356526 62.8521377,91.9754538 C62.8700482,91.9442763 62.8858359,91.9296826 62.9363832,91.9230491 C62.971607,91.9243758 63.0027182,91.9462664 63.0164495,91.9787705 C63.0319719,92.0159181 64.5493848,95.642452 67.2709768,98.5757853 C67.4580414,97.1489196 67.3220547,93.1469297 66.985073,89.6325019 L47.0449739,91.6066312 C44.6737634,93.8096162 40.6115413,96.8318384 34.7243109,98.713762 C34.6794685,98.7276924 34.6348913,98.7091186 34.6131335,98.6693176 C34.5911102,98.63018 34.6001981,98.5810921 34.6348913,98.5519047 C34.6457703,98.5426178 35.6817238,97.6610258 36.5381749,95.6968467 C34.3229179,96.3787704 30.8226858,97.1794337 26.4173791,97.2696493 L26.4161187,97.2696493 C26.3753891,97.2703127 26.3373128,97.242452 26.3249081,97.2033143 C26.3129678,97.1621866 26.3292862,97.1184055 26.3640458,97.0958516 C26.3785068,97.0872281 27.7632497,96.1923691 29.0754885,94.7257024 C26.8447091,95.2975101 23.9428186,95.6192348 20.4428519,95.6802629 L20.0479597,95.6855697 C20.0023212,95.6862331 19.9627192,95.6550557 19.9538967,95.6106112 C19.9445434,95.5661668 19.9678934,95.5217223 20.0090874,95.5044752 C20.0259365,95.4978417 21.5213262,94.8656693 23.2434488,93.8752879 C21.4207623,93.7121038 15.3954225,92.7880574 15.3954225,92.7880574 C15.360464,92.7927008 15.3448752,92.7714736 15.333731,92.7449396 C15.2985071,92.7310093 15.2746928,92.6971784 15.2746928,92.6587042 C15.2738968,92.612933 21.2103477,90.0829165 22.8578435,89.4958518 C20.9976114,88.9718054 19.4224207,88.7323361 19.4063677,88.7296827 C19.3604639,88.7230492 19.3286231,88.6865649 19.326036,88.6407938 C19.324245,88.5963494 19.353764,88.5565484 19.3972798,88.5452714 C22.8544605,87.6862333 25.7900491,87.2305119 28.1239794,87.1907109 C28.2190374,87.1880575 28.3118401,87.1873942 28.403316,87.1867308 C26.8550574,86.0882234 25.3384405,85.566167 25.3223211,85.5621869 C25.2824538,85.5482566 25.2565168,85.5097823 25.2585732,85.4679912 C25.2598999,85.4255368 25.2891536,85.3903793 25.3298833,85.380429 C28.8072961,84.5459349 32.3025531,84.1910427 35.5127686,84.3383063 C34.3218565,82.6368139 33.1475282,82.0378089 33.1353889,82.0325021 C33.0949245,82.0126016 33.0757537,81.9668305 33.086898,81.9243761 C33.0983076,81.880595 33.1361186,81.8461008 33.1820224,81.8533976 C39.7383075,82.2182401 44.4822543,84.3834141 47.2398661,86.1227176 L65.6970465,82.7920377 C65.4340282,81.8686547 65.5021542,82.2169134 65.1800979,81.3393014 C65.1352554,81.3419548 65.0699818,81.3432815 64.986267,81.3432815 C63.9409603,81.3432815 60.4977763,81.0494175 60.0782738,77.2676598 C60.0746254,77.2391357 60.0865657,77.209285 60.1091196,77.1900478 C60.1412257,77.1621871 63.2887546,74.3854044 63.195753,69.8500812 C57.6733651,79.0507443 51.1308113,80.9923695 46.5962177,80.9923695 C42.5367817,80.9923695 39.6289211,79.4507443 39.5996673,79.4341605 C39.5688216,79.4182401 39.5507121,79.385736 39.5530338,79.3505784 C39.5548249,79.3167476 39.5765828,79.2862335 39.6089542,79.2729665 C39.6566491,79.2537294 44.3377103,77.2928671 45.5213256,72.0530662 C41.5931001,75.1854044 37.1203971,76.9313414 32.2211601,77.2431158 C31.5708118,77.2842435 30.9372463,77.3061341 30.3386394,77.3061341 C24.0648087,77.3061341 21.3976777,75.0275271 18.3076612,72.3887212 C15.9784407,70.3986715 13.3377111,68.1432819 8.6658041,66.5107778 C4.43952228,65.0346916 2.1714361,60.8193683 2.88738301,55.7703469 C3.98890869,48.0027185 12.1084574,39.266931 27.3357207,38.4177768 C27.5738633,37.7067984 30.0059694,31.0082248 36.9086558,31.0082248 C37.889485,31.0082248 38.9290206,31.1442778 40.0013257,31.4130009 C39.8165164,27.9819562 40.0194352,24.8403974 40.6172461,22.0465666 C40.7328016,21.861293 52.4924697,3.60670638 75.887892,2.74227522 C76.7529002,2.71118401 77.5840777,2.69460026 78.3807609,2.69460026 C93.346598,2.69460026 95.9509097,8.18255369 96.1552215,11.4977112 C99.3897156,12.733731 105.905802,16.3375784 113.649748,26.6394687 C115.921722,22.7958867 121.07396,16.17592 130.405304,14.0723711 C130.436481,14.0643446 130.470975,14.0770146 130.491539,14.1008288 C130.514093,14.1247094 130.5194,14.160464 130.508786,14.1917741 C130.490212,14.2415253 128.718405,19.2153892 131.651738,22.2613593 C131.468653,17.2942616 132.589051,6.17899819 145.956215,4.57789043 C146.575121,4.50352228 147.196016,4.46569143 147.799001,4.46569143 L147.799001,4.46569143 C152.999001,4.46569143 156.362848,7.1590048 158.267326,9.41877257 C161.459366,13.2074292 162.999664,18.7448088 162.197011,23.5481254 C162.684573,23.7883244 163.101157,24.0080923 163.462682,24.2195019 C167.170145,26.3787721 167.37313,28.8370805 166.892201,30.5200656 C166.775452,30.9278931 166.732334,31.151044 166.725037,31.2535979 L166.754888,31.339369 C166.83449,31.566898 166.970477,31.9475282 167.099167,32.459568 L167.146264,32.6482247 C167.569482,34.3215912 168.358868,37.4393357 166.429847,40.0769476 C166.29983,40.2559857 166.166497,40.4285894 166.03648,40.5990703" id="path16" fill="#231F20"></path>
                        <path d="M182.393362,132.916746 L182.281919,132.9194 C179.199332,133.816249 176.487558,134.388056 174.669979,134.721721 C176.477608,135.546265 178.02653,136.042451 178.041787,136.047758 C178.085568,136.061688 178.111438,136.103479 178.107458,136.147924 C178.102151,136.193695 178.065667,136.228189 178.020559,136.230842 C174.372798,136.52537 171.283578,136.479599 168.943943,136.103479 C170.385402,137.442783 171.844108,138.205635 171.860692,138.213595 C171.897176,138.232832 171.916414,138.274623 171.908453,138.316414 C171.89983,138.357542 171.865336,138.38872 171.822881,138.391373 C168.285236,138.646763 164.792036,138.427194 161.598669,137.75522 C162.632168,139.629184 163.745933,140.415254 163.758537,140.423214 C163.795684,140.449084 163.808951,140.496846 163.791041,140.537973 C163.772467,140.579764 163.732003,140.604308 163.684241,140.592368 C154.055718,138.465005 148.748918,133.022882 147.846099,131.985403 C144.920726,131.771141 142.122716,131.425536 139.415585,131.080594 C134.595022,132.290544 129.337974,132.935983 123.783081,133.000328 C125.732003,134.189715 129.341954,135.706796 135.726033,136.520726 C135.767824,136.526033 135.800992,136.559201 135.804972,136.600328 C135.808288,136.642783 135.783081,136.681257 135.743944,136.694524 C135.679599,136.717078 129.174126,138.892866 121.361854,138.892866 C115.581423,138.892866 110.561855,137.730676 106.437808,135.436813 C107.217244,137.044773 108.715088,139.244441 111.521722,141.070643 C111.556879,141.093197 111.570146,141.136978 111.558206,141.174789 C111.544276,141.21459 111.505802,141.242451 111.465337,141.235817 C111.389715,141.229847 104.181092,140.565171 99.4925348,136.325038 C101.545603,139.406298 104.094856,142.001986 107.355221,144.486895 C107.83217,144.461025 108.370147,144.442451 108.964508,144.442451 C112.112767,144.442451 117.020229,144.943943 122.51741,147.334656 C122.559864,147.35323 122.581755,147.397675 122.571805,147.442119 C122.561191,147.4859 122.546597,147.513761 122.474292,147.515088 L122.39071,147.513761 C122.061688,147.513761 120.889549,147.564839 119.290213,148.203645 C121.322053,149.112434 124.346266,150.724374 127.560196,153.350577 C127.593363,153.377111 127.603314,153.422882 127.58673,153.462683 C127.569483,153.500494 127.532998,153.523711 127.484574,153.515751 C127.475287,153.514424 126.530013,153.356547 125.235818,153.356547 C124.830511,153.356547 124.429184,153.371804 124.042451,153.402318 C126.084242,154.429184 128.462352,156.066994 131.121058,158.27197 C131.156879,158.300494 131.166166,158.350245 131.144275,158.390046 C131.121058,158.43051 131.07197,158.448421 131.031506,158.433827 C131.016249,158.42852 129.543612,157.932998 127.681589,157.526364 C128.883579,158.742948 132.623546,163.018901 132.623546,163.018901 C132.654723,163.042119 132.643446,163.074623 132.628189,163.10779 C132.628852,163.131671 132.622219,163.154888 132.606299,163.173462 C132.576448,163.207956 132.52736,163.21658 132.490876,163.196016 C132.490876,163.196016 126.825867,161.299498 125.150909,160.633495 C126.14328,162.096845 127.110445,163.199333 127.119731,163.211936 C127.150909,163.245767 127.152236,163.296182 127.124375,163.332003 C127.096514,163.367823 127.045436,163.3791 127.007625,163.357873 C123.840793,161.743943 121.371805,160.196348 119.661025,158.752898 C120.067659,160.401986 120.813264,161.653727 120.821224,161.666994 C120.842451,161.702815 120.837808,161.748586 120.808621,161.779764 C120.77877,161.810278 120.734325,161.818238 120.695188,161.798338 C116.922717,159.837475 114.285238,157.728023 112.702485,156.261356 C112.469649,158.086895 112.922717,159.185402 112.928024,159.196679 C112.945271,159.237807 112.930014,159.284905 112.894856,159.310775 C112.857709,159.335983 112.807294,159.332003 112.77678,159.302152 C107.588057,154.390046 105.7194,149.373131 105.100495,146.868321 C100.445769,142.93333 97.2789362,139.170146 94.9585383,135.253728 C92.4975101,137.557542 87.3771122,141.363844 80.2334972,141.62454 C80.1917061,141.637144 80.1598653,141.603313 80.1465983,141.566829 C80.1320046,141.530345 80.1432816,141.48988 80.1731323,141.465336 C80.2089532,141.436149 83.7373113,138.492202 84.7728005,134.464342 C82.8915402,135.123048 79.2066315,136.159864 74.6739616,136.159864 C73.6928671,136.159864 72.7064658,136.110776 71.7426184,136.01459 C71.7061342,136.01061 71.6749567,135.98474 71.6656699,135.950245 C71.656383,135.914424 71.6676599,135.876614 71.6968473,135.85406 C71.7233813,135.833496 74.3290197,133.801655 76.2832485,131.242451 C75.4341606,131.34527 74.5485885,131.422882 73.6822535,131.462683 C70.5048075,133.754557 66.8902139,135.769151 62.2279255,137.512434 C60.7613252,139.701489 57.3276934,143.805635 50.7929009,146.702484 C50.7525029,146.720394 50.7045427,146.707791 50.677876,146.671306 C50.651143,146.634822 50.6542608,146.585071 50.6851065,146.552567 C50.6931331,146.542617 51.4876272,145.659698 51.8762839,143.86003 C49.9022873,144.713098 46.7153554,145.820229 42.4919392,146.40862 C42.4500155,146.415253 42.4090205,146.392699 42.3934981,146.352898 C42.376649,146.315088 42.3867319,146.269316 42.4204301,146.242119 C42.4313091,146.232169 43.5528347,145.302816 44.4869641,143.88391 C42.3992029,144.66998 39.5535645,145.303479 36.0256044,145.770477 C35.9797669,145.774457 35.9375115,145.74925 35.9235149,145.706132 C35.9095182,145.663678 35.9273623,145.61658 35.9670306,145.59469 C35.9797669,145.587393 37.2577105,144.868321 38.6852395,143.821555 C36.1914419,143.915088 30.8634155,143.773794 30.8494188,143.752567 C30.8131336,143.74328 30.7864006,143.712103 30.7822878,143.674955 C30.7753226,143.629847 30.8019893,143.586729 30.8439793,143.573462 C30.8439793,143.573462 35.7919062,140.796016 37.3377768,140.047094 C35.4464336,139.806962 33.8943275,139.783081 33.8774784,139.783081 C33.8323706,139.782418 33.7935647,139.74925 33.7862678,139.704806 C33.7793026,139.659035 33.8046426,139.615254 33.8463673,139.599333 C37.0838465,138.411937 39.8735645,137.664342 42.1450072,137.375784 C40.4291201,136.609615 38.8798,136.336315 38.8629509,136.333662 C38.8210272,136.325701 38.7888548,136.291207 38.784742,136.249416 C38.7816242,136.205635 38.8070305,136.165834 38.8474285,136.151904 C42.7679591,134.748919 46.151508,134.241456 48.3625859,134.066332 C46.8514084,132.738968 45.6053057,132.357542 45.591309,132.352899 C45.5480586,132.338968 45.5197999,132.297841 45.5252393,132.252733 C45.5296174,132.206962 45.5674947,132.171804 45.6125362,132.168488 C46.4391365,132.110776 47.2766157,132.081589 48.1003636,132.081589 C53.7831496,132.081589 58.178108,133.428189 60.7965491,134.555884 C64.8867645,133.163512 66.4470962,132.441124 67.9529005,131.468653 C62.3328674,131.112435 54.3164166,129.509781 47.5054714,123.97479 C47.475886,123.950909 47.4691862,123.909781 47.4815909,123.87396 C47.4940618,123.838803 47.5313421,123.814922 47.569153,123.814922 C47.9239126,123.814922 56.1680915,123.800992 62.9881908,122.643446 C57.6982407,121.083911 48.7795676,117.159533 45.550911,107.97479 C45.5369143,107.932999 45.553498,107.887228 45.5931,107.865337 C45.6061017,107.858704 45.620828,107.854724 45.6353554,107.854724 C45.6630834,107.854724 45.6890204,107.867327 45.7065992,107.889218 C45.7905793,107.998007 54.4273287,118.762849 75.5515736,120.898173 C75.5907112,120.902153 75.6212253,120.930014 75.6305122,120.967825 C75.6384724,121.005635 75.622552,121.04411 75.5887212,121.064674 C72.6102801,122.880926 66.812602,125.235818 56.0750898,126.202982 C56.0750898,126.202982 78.3615237,133.355884 89.9608601,121.131672 C89.9608601,121.131672 86.7429497,128.80464 78.9638455,132.902816 C80.2235469,132.679267 85.1150891,131.684905 88.9737955,129.099831 C88.9996661,129.083247 89.035487,129.07993 89.064011,129.095187 C89.0931984,129.109781 89.1117722,129.138969 89.1130989,129.170809 C89.2696495,132.855055 87.5502466,136.223546 86.9943594,137.20862 C92.0736295,134.315088 94.9512414,130.202982 96.4769462,127.237808 C96.4908765,127.209284 96.5207273,127.190047 96.5525681,127.189383 C96.5784387,127.190047 96.6142596,127.203977 96.6321701,127.231174 C96.6321701,127.231174 99.0673275,131.503148 102.638803,133.962186 C101.97081,132.082252 101.762518,130.009947 102.036482,127.773131 C102.040462,127.73731 102.065669,127.708123 102.100827,127.698173 C102.133331,127.687559 102.171805,127.699499 102.195022,127.728023 C102.264674,127.814922 109.386399,136.41857 122.785403,136.41857 C123.541622,136.41857 124.311771,136.39071 125.082584,136.336315 C123.05207,135.923048 117.026199,134.307128 113.399002,129.185403 C113.379102,129.155552 113.377112,129.116415 113.396349,129.085237 C113.416249,129.05406 113.452733,129.038803 113.488554,129.044773 C113.503811,129.04809 114.033165,129.143612 114.958538,129.266332 C117.439466,129.458703 122.764839,129.747924 128.873629,129.343944 C110.763513,125.525702 104.347593,119.485901 103.540959,118.609616 C103.505138,118.593032 103.485901,118.583745 103.484575,118.581755 L103.497842,118.563844 C103.466664,118.526034 103.449417,118.50547 103.450744,118.502153 C103.453397,118.473629 103.470644,118.447758 103.494525,118.433165 C103.519069,118.419234 103.550246,118.417907 103.577444,118.429184 C103.720064,118.494856 118.030511,124.932667 137.59867,128.262683 C139.161522,127.964839 140.715088,127.60464 142.227525,127.168156 C144.572467,126.413264 146.794026,125.520395 148.8325,124.459698 C147.35721,124.401324 141.439466,124.031838 137.541622,121.835486 C137.505138,121.816249 137.488554,121.773795 137.497177,121.734657 C137.509118,121.695519 137.544275,121.667659 137.58474,121.667659 L137.586066,121.667659 L137.919731,121.668322 C140.562517,121.668322 154.045767,121.561523 159.915087,119.449417 C159.951571,119.43615 159.993363,119.44809 160.01857,119.481257 C160.041787,119.512435 160.039797,119.556879 160.01658,119.588057 C159.972799,119.647095 155.575452,125.406299 145.06401,129.33333 C146.455718,129.497841 148.023877,129.6126 149.323379,129.752567 C151.542948,127.942949 156.359532,124.747592 163.671638,123.662352 C163.721389,123.654392 163.758537,123.680926 163.773794,123.72338 C163.789051,123.765834 163.772467,123.811606 163.735319,123.836149 C163.724042,123.842783 162.610941,124.547261 161.579432,126.348919 C164.764175,125.910445 168.286563,125.944275 171.812931,126.453728 C171.854722,126.459698 171.887226,126.492202 171.895186,126.533994 C171.89983,126.575785 171.877939,126.615586 171.838802,126.632169 C171.822881,126.639466 170.361521,127.295519 168.920062,128.534657 C169.556878,128.478272 170.252732,128.449085 170.993694,128.449085 C170.994357,128.449085 170.994357,128.449085 170.994357,128.449085 C172.987724,128.449085 175.349249,128.655387 178.011272,129.062683 C178.055717,129.06799 178.090211,129.106464 178.090874,129.151572 C178.094191,129.19668 178.063677,129.235818 178.018569,129.246431 C178.002649,129.251075 176.45837,129.631174 174.652732,130.327028 C176.44643,130.785403 179.143611,131.548255 182.244772,132.67595 L182.409946,132.693197 C182.447757,132.696514 182.457044,132.729018 182.461024,132.765502 C182.475617,132.78474 182.482914,132.809284 182.480261,132.834491 C182.474291,132.879599 182.437806,132.914093 182.393362,132.916746" id="path18" fill="#231F20"></path>
                        <path d="M191.395683,93.7651718 C193.325368,93.2948567 194.847756,92.7250391 194.863677,92.7197323 C194.906794,92.7031486 194.955219,92.7197323 194.978436,92.7575433 C195.001653,92.7960176 194.993693,92.8457688 194.961189,92.8769463 C192.263345,95.3777754 189.838801,97.231175 187.748586,98.393364 C189.724705,98.5678251 191.331339,98.2507438 191.349912,98.2487538 C191.390377,98.2394669 191.432168,98.2600307 191.450078,98.298505 C191.470642,98.3356526 191.461355,98.3820871 191.431504,98.4106111 C188.159863,101.385072 185.073296,103.208621 183.003644,104.233497 C184.33764,104.797344 185.386397,104.945271 185.90381,104.983745 C186.186397,105.003646 186.344274,104.995022 186.346927,104.994359 C186.393362,104.993032 186.433163,105.02023 186.44444,105.064674 C186.457043,105.109118 186.435153,105.15489 186.393362,105.174127 C179.465999,108.51741 173.36915,108.648754 170.354225,108.429185 C169.8859,108.395354 169.48988,108.354226 169.231173,108.301158 C149.109781,120.097509 136.518073,121.203314 128.530677,120.622883 C123.403645,120.25008 120.760859,118.937974 120.735652,118.92537 C120.695188,118.90547 120.677277,118.859699 120.689881,118.817907 C120.701821,118.776116 120.744939,118.746266 120.78673,118.756879 C120.788057,118.756879 121.18275,118.811937 121.922385,118.865005 C127.211274,119.249748 145.066663,119.901158 168.69784,104.3728 C169.568155,101.239135 171.526364,96.5280241 175.912433,91.879268 C175.942948,91.8467639 175.991372,91.839467 176.029183,91.864011 C176.067657,91.8878916 176.084904,91.9336627 176.068984,91.9761171 C176.065004,91.9893841 175.625866,93.2311751 175.932997,95.2862331 C177.510443,93.6437788 180.165833,91.2696495 184.03648,89.035487 C184.072964,89.0149231 184.118072,89.0195666 184.149249,89.0494173 C184.179763,89.0792681 184.185733,89.1243759 184.16716,89.1615235 C184.159863,89.1767805 183.415584,90.595686 183.050078,92.4603625 C184.772798,90.8344919 187.284241,89.0832482 190.520725,87.2497491 C190.559199,87.2285219 190.60895,87.2364821 190.638138,87.2709763 C190.667989,87.3048071 190.667989,87.3552217 190.641455,87.3903792 C190.630841,87.4029829 189.651737,88.6593676 188.662682,90.3197324 C190.358868,89.570147 192.951902,88.5001636 196.08026,87.4706446 L196.220891,87.3830824 C196.238138,87.3711421 196.257375,87.3664986 196.277939,87.3678253 C196.300493,87.369152 196.321056,87.3784389 196.338304,87.3943593 C196.353561,87.4109431 196.363511,87.4321703 196.364838,87.4540608 C196.366164,87.4560509 196.367491,87.4587043 196.368818,87.4606943 C196.388718,87.499832 192.610277,92.387394 191.395683,93.7651718" id="path20" fill="#231F20"></path>
                        <path d="M100.763513,83.5860676 C100.297842,84.3416231 100.211606,85.6829166 100.211606,86.5910426 C100.211606,88.1320044 100.996349,89.5058021 102.2262,90.4086213 C97.1276924,91.9011586 92.6487539,92.2872282 91.0062995,92.0862332 C90.3535632,90.8198982 89.5343261,87.8693179 93.0023194,84.3980078 C94.9923691,84.3197326 97.4447737,84.0922035 100.48557,83.6298487 C100.581755,83.615255 100.669981,83.6006613 100.763513,83.5860676" id="path22" fill="#FFFFFF"></path>
                        <path d="M108.615586,81.8368139 C109.667659,81.5084557 110.585735,81.1708106 111.391042,80.8331655 C114.045105,82.2334971 114.256714,84.3966811 114.689218,85.9933644 C113.432833,86.2480907 112.197012,86.6248735 111.123712,87.0043096 C111.135652,86.8683229 111.146266,86.7310094 111.146266,86.5910426 C111.146266,84.9684888 109.946266,82.7018221 108.615586,81.8368139" id="path24" fill="#FFFFFF"></path>
                        <path d="M93.8361502,63.1125689 C93.8361502,63.1125689 95.7817555,52.9570799 106.584409,56.989783 C106.584409,56.989783 101.69552,57.5026188 93.921059,63.370413" id="path26" fill="#FFFFFF"></path>
                        <path d="M92.3953542,73.5582071 C92.3953542,73.5582071 93.841457,70.1452719 96.8305117,67.9920381 C100.098837,65.6364163 104.812601,62.5956203 114.392037,60.2415242 C114.392037,60.2415242 117.745934,61.2505457 120.809947,63.370413 C120.809947,63.370413 106.717079,62.6805954 92.2447738,73.8819219" id="path28" fill="#FFFFFF"></path>
                        <path d="M129.265005,83.6590361 C130.424541,83.5104457 132.325038,83.3339946 134.563844,83.3558851 C134.399333,82.961192 134.278604,82.5465983 134.218239,82.1154208 C134.059035,80.987726 134.312434,79.8925353 134.857045,79.1621871 C129.73532,79.2066315 129.268322,82.494857 129.265005,83.6590361" id="path30" fill="#FFFFFF"></path>
                        <path d="M145.890544,80.4457691 C144.823877,80.4849068 143.666331,80.4192351 142.442451,80.2626846 C142.737642,80.7582069 142.941953,81.3028172 143.030179,81.8732981 C143.152899,82.6686546 143.027525,83.7890526 142.719068,84.4789365 C143.821555,84.8046413 144.908122,85.2112748 145.946265,85.7293511 C146.332335,84.8411256 146.792699,82.7237127 145.890544,80.4457691" id="path32" fill="#FFFFFF"></path>
                        <path d="M93.2351552,47.5310768 C92.6182398,46.5459358 91.8786047,45.5011597 91.0016561,44.4364168 C92.0596992,43.9448745 93.1329993,43.4779425 94.2175764,43.0356208 C95.1104454,44.0935976 95.8540606,45.137047 96.4656692,46.1168148 C95.4215565,46.5526357 94.3482563,47.018838 93.2351552,47.5310768" id="path34" fill="#FFFFFF"></path>
                        <path d="M99.2484221,45.0096174 C98.6547239,44.0298496 97.9469296,42.9923041 97.1011584,41.9304799 C98.2354868,41.5210603 99.3764486,41.1408945 100.523381,40.7874617 C101.367825,41.8506126 102.056382,42.8809276 102.612933,43.8274616 C101.538969,44.1757203 100.417245,44.5685561 99.2484221,45.0096174" id="path36" fill="#FFFFFF"></path>
                        <path d="M87.448754,50.4213586 C86.8444423,49.4566488 86.1306778,48.4445096 85.2935302,47.4163172 C86.273298,46.8418562 87.2749564,46.2898828 88.2945252,45.7617899 C89.1913742,46.8091531 89.9376429,47.8415245 90.5538949,48.8111431 C89.4706445,49.3485891 88.436482,49.8847085 87.448754,50.4213586" id="path38" fill="#FFFFFF"></path>
                        <path d="M71.9873946,61.9501145 C71.5628506,61.3772456 71.1223863,60.8118061 70.655388,60.2679255 C71.4063,59.1954214 72.2394675,58.1584065 73.1323365,57.150181 C73.6928671,57.8202971 74.219567,58.5160184 74.7091192,59.2358194 C73.6749567,60.1803633 72.7714741,61.0885557 71.9873946,61.9501145" id="path40" fill="#FFFFFF"></path>
                        <path d="M66.8875605,70.0815903 L67.172801,66.8995008 C67.66567,65.5237131 68.2825854,64.184277 69.0089535,62.8842439 C69.3691525,63.3413583 69.7187379,63.8057032 70.0464327,64.2825191 C67.4029834,67.787063 66.8875605,70.0815903 66.8875605,70.0815903" id="path42" fill="#FFFFFF"></path>
                        <path d="M105.530346,42.9604633 C104.999666,42.0193024 104.348256,40.9903804 103.557543,39.9204633 C104.769483,39.601193 105.982087,39.3154219 107.190047,39.0614916 C107.955553,40.1398995 108.577112,41.1842112 109.074624,42.1460686 C107.961523,42.3582742 106.78673,42.6222875 105.530346,42.9604633" id="path44" fill="#FFFFFF"></path>
                        <path d="M76.9499152,57.3147581 C76.3927012,56.5241777 75.797013,55.7597333 75.1608605,55.0235475 C76.0504127,54.1565492 76.9877261,53.3159522 77.9721374,52.5041446 C78.693862,53.4302474 79.2948571,54.3275608 79.7943595,55.1601313 C78.7688206,55.8898162 77.8208936,56.6088875 76.9499152,57.3147581" id="path46" fill="#FFFFFF"></path>
                        <path d="M82.2434474,53.4983735 C81.6995004,52.6168478 81.0487542,51.6741612 80.2852385,50.7063337 C81.0965154,50.1114415 81.9290195,49.5335974 82.7840775,48.9751895 C83.6059681,49.9676273 84.2971787,50.9444763 84.8756198,51.8739622 C83.9522367,52.4191695 83.0752881,52.9599323 82.2434474,53.4983735" id="path48" fill="#FFFFFF"></path>
                        <path d="M112.157211,41.6757535 C111.683579,40.6884899 111.086564,39.6045761 110.352236,38.4734982 C111.793695,38.2527354 113.088554,38.1540289 114.244773,38.1571466 C114.981092,39.4221549 115.511108,40.57446 115.883248,41.5137635 C114.772136,41.483183 113.534989,41.5277602 112.157211,41.6757535" id="path50" fill="#FFFFFF"></path>
                        <path d="M123.693529,44.7595345 C123.538305,43.8300487 122.141954,42.5333986 119.207294,41.8926026 C118.928687,41.0333655 118.492866,39.8813257 117.84013,38.5546259 C122.821887,39.7763837 123.795022,43.4380089 123.693529,44.7595345" id="path52" fill="#FFFFFF"></path>
                        <path d="M88.5863991,39.3796342 L89.4129331,39.0301151 L89.7247075,39.6372129 C89.8852382,39.9476607 90.0378087,40.2601648 90.182419,40.5710769 L90.5008269,41.2624202 L87.5117723,42.5173455 L87.1635136,42.1154882 C85.9402964,40.7045429 84.1087873,38.8543937 82.2308437,37.2517404 C83.1184059,39.1946259 83.7432815,41.2323704 84.0948569,43.3426855 L84.191706,43.9171465 L82.455056,44.6426523 L82.108124,44.219037 C80.6427841,42.4220222 78.8782733,40.7382411 76.8391357,39.1887221 C77.8288538,41.2611598 78.6640113,43.590115 79.1442766,45.3467319 L79.3140942,45.9680917 L76.1393016,47.300231 L75.8454376,46.6480254 C75.7127676,46.3549574 75.5721374,46.0624201 75.4248737,45.7719392 L75.0646747,45.0632161 L75.8965155,44.7183405 C75.1688207,41.7949575 73.8739617,39.0521383 72.0431159,36.55781 L71.4931989,35.8068979 L74.4252054,34.5724701 L74.7422867,34.7574784 C76.4470959,35.7532329 78.0344922,36.8371467 79.4898819,37.9985397 C78.8630163,36.7343274 78.117411,35.5210605 77.2603629,34.3687554 L76.7024856,33.61917 L77.5628505,33.2537968 C78.1426183,33.0084237 78.7237128,32.7635149 79.3028173,32.5207289 L79.639799,32.3800324 L79.9555536,32.5632496 C83.3558851,34.5359195 86.2567143,36.8278598 88.5863991,39.3796342" id="path54" fill="#FFFFFF"></path>
                        <path d="M90.2129331,24.2752233 C91.2072946,25.2404637 92.1406279,26.2707124 92.9883891,27.3367821 L93.2079579,27.6119396 L93.1303459,27.9555549 C93.0195665,28.4483575 92.8968468,28.9438135 92.7655035,29.441326 L92.6746245,29.7911767 L89.1509099,31.2756211 C89.530346,31.8335647 89.890545,32.4038466 90.2268634,32.98116 L92.4709761,32.0358864 L92.1061337,31.4295846 L92.8829164,31.0984404 C93.388389,30.8835813 93.8931983,30.6693193 94.4019877,30.4563176 L94.9897157,30.2104138 L95.3167472,30.7574122 C95.6868964,31.3798334 95.9807605,31.8719063 96.3124354,32.5499826 L96.654724,33.2483574 L90.0179082,36.0411268 L89.7412913,35.9343938 C89.2378087,35.740563 88.7250392,35.5495845 88.2056363,35.3599328 L87.9449398,35.2638134 L87.8122698,35.0197006 C87.2908768,34.0557869 86.6951885,33.1045431 86.0397988,32.1911103 L85.8567143,31.9335315 L85.9164158,31.6244105 C86.0119381,31.124311 86.1001637,30.6293856 86.1777756,30.1406958 L86.2401305,29.7354553 L89.797676,28.2395349 C89.2318386,27.5689545 88.6288535,26.9115084 87.992701,26.2758866 L85.8169133,27.1905798 L86.447759,27.86587 L83.4945253,29.110447 L83.1436132,28.7357207 C82.5273611,28.0770806 82.2779416,27.8513426 81.6099482,27.2463011 L80.7542268,26.4715748 L87.6159182,23.585472 L87.8414572,23.6338966 C88.5233809,23.7802979 89.1986711,23.9311437 89.8673278,24.0868319 L90.0656694,24.1327357 L90.2129331,24.2752233" id="path56" fill="#FFFFFF"></path>
                        <path d="M101.326034,25.4594355 L101.03018,24.8100823 C100.896183,24.5154223 100.75489,24.2249414 100.606299,23.9337307 C99.392369,21.5686893 97.7326675,19.3532333 95.6683226,17.3406297 L93.5528998,18.230978 C95.5263658,20.2401985 97.1276924,22.4370144 98.3197322,24.7753228 C98.4795995,25.0878269 98.6295166,25.3982747 98.7734635,25.7120392 L99.0878914,26.4021221 L95.5661668,27.8832497 L95.2723028,27.2279264 C95.1396328,26.934593 94.9976759,26.6402647 94.8510756,26.3495184 L94.4981734,25.6482912 L95.123049,25.3845433 C93.8699811,23.116948 92.1963493,20.992968 90.1419546,19.0627524 L89.8766147,18.8139962 L89.9144256,18.4517408 C89.9575434,18.0304473 89.9933643,17.6158536 90.0205616,17.2045767 L90.049749,16.750381 L95.2092845,14.5804971 L95.4288533,14.6229515 C96.0988367,14.7543612 96.7595332,14.8875618 97.4116062,15.0235485 L97.6132646,15.0652733 L97.7631816,15.2059698 C99.9807604,17.2782085 101.782419,19.566235 103.127692,22.0164505 L103.901158,21.6894854 L104.211606,22.2979099 C104.368157,22.6062349 104.520064,22.9166827 104.664674,23.2278601 L104.984409,23.9176777 L101.326034,25.4594355" id="path58" fill="#FFFFFF"></path>
                        <path d="M70.4464327,10.3954226 C69.3333316,10.6395354 68.2573781,10.9167493 67.2066318,11.2145271 C66.613597,10.5247095 65.9693516,9.82275266 65.2707778,9.11429496 C65.4980415,9.04795997 65.7196003,8.97903792 65.9512421,8.91528999 C66.788058,8.68596993 67.5927015,8.48490858 68.3820878,8.29651721 C69.1316732,9.00291851 69.8189037,9.70540606 70.4464327,10.3954226" id="path60" fill="#FFFFFF"></path>
                        <path d="M77.0341606,9.36643426 C75.8189036,9.47993343 74.6374774,9.64033143 73.4786051,9.82739611 C72.8510761,9.10912083 72.1704791,8.37817558 71.4248738,7.63993347 C72.6155869,7.41373116 73.7412917,7.23854045 74.8112751,7.10301806 C75.6238787,7.86666647 76.3635138,8.62222201 77.0341606,9.36643426" id="path62" fill="#FFFFFF"></path>
                        <path d="M44.2197667,23.9840127 C44.2197667,23.9840127 45.193299,22.1188054 47.5121713,19.6253395 C47.7982741,19.9268983 48.0695179,20.2282582 48.3348578,20.5306794 C45.6579093,22.5287557 44.2197667,23.9840127 44.2197667,23.9840127" id="path64" fill="#FFFFFF"></path>
                        <path d="M64.4338292,12.0716415 C63.5004959,12.3893861 62.6010598,12.7249085 61.7260349,13.0726365 C61.1782406,12.4072302 60.5760516,11.7255055 59.9251063,11.0341622 C60.7460018,10.6786067 61.6034479,10.3368488 62.5000316,10.0145271 C63.2029835,10.7097178 63.8443102,11.3964176 64.4338292,12.0716415" id="path66" fill="#FFFFFF"></path>
                        <path d="M55.9063999,15.7553562 C55.389186,15.1702152 54.8427184,14.5962849 54.2801313,14.0290544 C55.2495509,13.4082252 56.3004961,12.79927 57.4357531,12.2136647 C58.0610267,12.8749582 58.633365,13.5276945 59.1534314,14.1638471 C58.0120052,14.6799996 56.9278924,15.214527 55.9063999,15.7553562" id="path68" fill="#FFFFFF"></path>
                        <path d="M92.0663327,10.0318405 C90.6978418,9.78441103 89.3605284,9.60795996 88.0371454,9.46593675 C87.5184058,8.79144257 86.9452715,8.09804292 86.3197325,7.39243763 C90.4696495,8.34885551 92.0663327,10.0318405 92.0663327,10.0318405" id="path70" fill="#FFFFFF"></path>
                        <path d="M53.5411595,17.0804639 C52.4209605,17.7412268 51.3865327,18.3960194 50.4575775,19.0236148 C50.0943271,18.618905 49.7211928,18.2141289 49.3351231,17.817711 C50.1484565,17.0719067 51.0678594,16.2992367 52.1053387,15.5275618 C52.6031164,16.0385402 53.0835144,16.5544938 53.5411595,17.0804639" id="path72" fill="#FFFFFF"></path>
                        <path d="M80.3854043,9.16822531 C79.7280245,8.39270294 79.0016564,7.59999981 78.2076266,6.79854046 C79.6616896,6.72577098 80.9797658,6.73691525 82.1737956,6.81127678 C82.9777757,7.61399649 83.7008271,8.4059036 84.3515733,9.17804289 C82.9996663,9.12238783 81.68159,9.12703128 80.3854043,9.16822531" id="path74" fill="#FFFFFF"></path>
                        <path d="M38.6872959,36.634825 C38.6872959,36.634825 38.2035148,37.9231168 37.9944269,40.0577768 C37.4009941,40.4711101 36.7876608,40.9333323 36.1650406,41.4453721 C36.6630173,39.8600985 37.4660687,38.2447088 38.6872959,36.634825" id="path76" fill="#FFFFFF"></path>
                        <path d="M31.5466659,66.5877264 C31.5466659,66.5877264 37.0291865,65.8898159 40.0676607,61.4985059 C40.825538,62.1903799 41.6990371,62.8622207 42.6912095,63.4566485 C40.5078597,65.4334975 36.9760521,67.2325025 31.5466659,66.5877264" id="path78" fill="#FFFFFF"></path>
                        <path d="M40.9652394,58.0086221 C41.6485562,57.3266321 42.3302809,56.7006288 43.0011266,56.1572125 C43.7911764,57.1859356 44.696052,58.2242108 45.7335975,59.2617564 C45.7335975,59.2617564 45.4104798,60.1093186 44.6374782,61.233166 C43.2159193,60.168423 42.0035147,59.0899488 40.9652394,58.0086221" id="path80" fill="#FFFFFF"></path>
                        <path d="M39.7175446,50.6161845 C40.1510438,51.6226189 40.679402,52.6554547 41.320198,53.7075277 C40.5793688,54.3164166 39.8243439,55.0129339 39.0705131,55.7750566 C38.3742611,54.8385393 37.797213,53.906997 37.3263672,52.9837466 C38.1216574,52.0975775 38.9241118,51.3067317 39.7175446,50.6161845" id="path82" fill="#FFFFFF"></path>
                        <path d="M35.517213,46.0238131 C36.3430173,45.1767153 37.170679,44.4358861 37.9762511,43.7896506 C38.07781,44.9717402 38.2949908,46.2660685 38.6699161,47.6357534 C37.8324369,48.328954 36.9806956,49.114294 36.1326027,50.0007948 C36.0372794,49.67509 35.955621,49.3511762 35.8825862,49.0309109 C35.6739626,48.0677268 35.5418233,47.0612924 35.517213,46.0238131" id="path84" fill="#FFFFFF"></path>
                        <path d="M125.666995,50.488954 L125.748587,50.6229506 C125.692866,50.5736637 125.631838,50.517478 125.576116,50.4695178 C126.007294,53.0063005 125.356547,54.9155542 125.356547,54.9155542 C122.90547,50.2533984 121.18872,47.4800651 120.098836,45.8864333 C119.917078,45.8506788 119.740627,45.8208944 119.562186,45.7916406 C120.590378,48.8179092 120.072965,53.1296836 120.072965,53.1296836 C117.765835,48.9015576 116.287228,46.6726356 115.393032,45.5037468 C115.006299,45.5138297 114.639466,45.5322045 114.313098,45.5568811 C115.125702,48.6421878 114.945934,51.2663337 114.945934,51.2663337 C110.791374,46.4290536 110.146598,46.2784731 110.146598,46.2784731 C90.409948,50.6727019 80.9917061,59.7398327 77.9728007,63.2524694 C77.4348239,69.26766 77.4772783,72.07363 77.4772783,72.07363 C74.1034807,68.6978424 73.8978423,67.188058 73.5741275,65.8374776 C72.6620214,73.5555537 72.4524028,75.9834144 72.4524028,75.9834144 C69.4613581,73.6709766 69.3174112,72.6912088 69.3174112,72.6912088 C69.3174112,75.6570462 69.8301807,78.3217228 70.2361508,80.6301804 L89.541623,65.2443765 C90.2494173,60.3257033 91.5601967,57.1548244 95.1396328,54.1153552 C101.543613,48.6800651 115.445437,56.3448079 122.274624,60.1008277 C125.032169,61.6145922 128.133993,62.4144595 130.385403,62.3634479 C130.195685,65.7260348 131.801655,68.3310099 131.801655,68.3310099 C131.801655,68.3310099 137.146929,64.6812587 134.509449,60.727627 L134.52736,60.7097166 C130.516746,54.4504132 125.666995,50.488954 125.666995,50.488954" id="path86" fill="#FCD006"></path>
                        <path d="M135.910444,32.8664005 C134.824541,35.1341948 135.704143,37.6396674 136.033827,38.4265994 C134.366166,38.8689211 133.522385,40.398805 133.225204,41.0707121 C130.870312,38.490082 131.876614,34.8823872 133.978769,32.3880589 C135.910444,30.0974454 136.082252,27.6816577 136.088885,26.9825532 C136.423214,26.9379761 136.746265,26.9146262 137.050743,26.9146262 C139.89187,26.9146262 140.680593,28.8339628 140.863015,29.4679926 C138.370809,30.0650075 136.705138,31.2080258 135.910444,32.8664005" id="path88" fill="#FCD006"></path>
                        <path d="M163.496513,38.9399659 C163.340626,39.1550239 163.187392,39.3540289 163.040792,39.5454716 C162.096845,40.7755214 161.353893,41.748523 161.300162,44.3628513 C161.249084,46.8099491 160.1791,47.3929673 158.556547,48.276085 C158.316414,48.4059026 158.068984,48.541425 157.812268,48.6890867 C157.24245,49.0176439 156.772135,49.6237467 156.27396,50.2645427 C155.317409,51.4964498 154.232832,52.8935974 152.087558,52.8935974 C151.19867,52.8935974 150.171804,52.6500153 149.030842,52.1698826 C148.964507,52.1444763 142.974457,49.8413918 137.944275,45.699634 C137.905801,45.6729673 136.688554,44.9333985 136.42056,43.8181747 C136.293861,43.2988381 136.397343,42.7681581 136.726365,42.243979 C137.081257,41.6741615 137.607293,41.3976772 138.332335,41.3976772 C140.260693,41.3976772 143.012268,43.3779094 144.336315,44.3291531 C144.606962,44.5234483 144.82454,44.6817899 144.976447,44.7795014 C145.725369,45.2656042 146.859034,45.9131663 148.069648,45.9131663 C148.873628,45.9131663 149.601323,45.6265329 150.233495,45.0593687 C150.288553,45.0108778 150.313097,44.938042 150.302484,44.8670636 C150.291207,44.7952891 150.243446,44.7343936 150.177111,44.7046092 C150.113429,44.6779425 143.902484,41.9143605 140.591705,39.1959526 C140.429847,39.0946591 137.21459,37.0820555 138.776779,34.3483242 C139.223877,33.5641783 139.870643,33.1840788 140.753562,33.1840788 C142.282584,33.1840788 144.114756,34.3623209 144.996348,34.9279593 C145.132335,35.0155215 145.249084,35.0912097 145.34328,35.1481915 C145.463346,35.222553 145.637807,35.3386392 145.855386,35.4819892 C147.20862,36.3826857 150.023877,38.2540621 152.179101,38.2540621 C152.995021,38.2540621 153.641787,37.985339 154.104805,37.4541284 C154.14925,37.4035812 154.166497,37.3351898 154.153893,37.2696508 C154.139963,37.2041118 154.096845,37.1489211 154.03648,37.1203971 C153.976779,37.0926691 148.185071,34.3402976 145.936978,32.8013259 C145.894524,32.7780423 144.40862,32.0470307 143.993363,30.7556211 C143.788388,30.1199992 143.877277,29.4433823 144.256049,28.7442779 C144.67794,27.9708119 145.32935,27.5940292 146.246763,27.5940292 C147.708786,27.5940292 149.605966,28.561127 151.129681,29.337976 C151.448752,29.5004304 151.75522,29.656384 152.043114,29.7976112 L152.241456,29.8945266 C153.738636,30.6267986 155.032832,31.259568 156.237475,31.259568 C157.056049,31.259568 157.757873,30.9644437 158.388056,30.3562845 C158.439134,30.3065332 158.463678,30.2334984 158.449084,30.1632497 C158.43648,30.0927356 158.388719,30.0344934 158.323047,30.0059694 C156.773462,29.3519064 151.484573,27.0766162 147.611937,24.8882913 C147.907127,24.425273 148.908786,23.2019895 151.245104,23.2019895 C152.304474,23.2019895 153.511107,23.4579762 154.831174,23.9643112 C160.706464,26.2202315 164.281256,27.6995018 163.735319,29.6066328 C163.223213,31.4015913 163.523711,32.4471634 163.843445,33.5561517 C163.910444,33.7909113 163.978769,34.0306459 164.04245,34.2832496 C164.357541,35.5317404 164.641455,37.3725364 163.496513,38.9399659" id="path90" fill="#FCD006"></path>
                        <path d="M66.4822537,46.4305793 C66.2906783,45.0619558 64.7663002,44.2202974 64.3045423,43.9958861 C64.2778093,43.9826855 64.249816,43.9767153 64.2208276,43.9767153 C64.1780415,43.9767153 64.1353218,43.9920387 64.1010929,44.0204964 C64.0433151,44.0664002 64.0184395,44.1433488 64.0376103,44.2143273 C64.8561841,47.3538297 64.8009934,48.9969474 64.8009934,49.0135311 C64.7984063,49.089949 64.8406617,49.1609938 64.9101145,49.1920386 C64.9782405,49.2257367 65.0608939,49.2137964 65.117146,49.1622542 C66.146864,48.2395344 66.6069635,47.3201978 66.4822537,46.4305793 L66.4822537,46.4305793 Z M64.2161841,38.5698829 C63.7658359,37.3380422 62.2657364,36.8291201 61.6420548,36.6674618 C61.6257364,36.662752 61.6101477,36.6614916 61.5940946,36.6614916 C61.5386386,36.6614916 61.4863003,36.6840455 61.450015,36.7270306 C61.4026519,36.782752 61.3912422,36.8610273 61.4207613,36.9268316 C62.1048077,38.4675281 62.6985059,39.9702146 63.1843434,41.3956209 C63.2076269,41.4619558 63.2669968,41.5117071 63.3377099,41.5210603 C63.4092853,41.5324699 63.4784727,41.5010935 63.5194014,41.441989 C64.2829835,40.3568149 64.517544,39.3903141 64.2161841,38.5698829 L64.2161841,38.5698829 Z M60.7625855,31.2782745 C60.1005623,29.8792696 58.0516735,29.5470639 57.964841,29.5343276 C57.9550234,29.5322712 57.9449405,29.5317406 57.9353219,29.5317406 C57.8733651,29.5317406 57.8148576,29.5628517 57.7788377,29.6146593 C57.7373783,29.6750905 57.7345259,29.7525697 57.7712755,29.8155216 C58.579501,31.2157869 59.3426187,32.6295846 60.0403965,34.0158532 C60.0715076,34.0775448 60.1341942,34.1179428 60.2039123,34.1199991 C60.2744264,34.1166824 60.3376436,34.0868317 60.3736635,34.0264668 C60.9958194,32.9698168 61.1268973,32.0457703 60.7625855,31.2782745 L60.7625855,31.2782745 Z M70.6368142,45.1085893 C70.4530662,45.9046091 70.0815903,46.4497501 69.7207279,46.9757866 C69.148257,47.8143272 68.6063001,48.606964 69.190048,50.1062674 C70.0198987,52.237478 68.3820878,54.0332325 68.3655041,54.0524033 C67.6484229,54.908788 66.3699486,55.3373784 64.5602637,55.3373784 C63.0493517,55.3373784 61.5609272,55.0274613 60.8597663,54.8569804 C61.8542605,54.068987 62.8604296,52.8928013 62.9078591,52.8366156 C62.9560847,52.7808942 62.970015,52.7023536 62.9459354,52.6321712 C62.9207944,52.5624531 62.8612256,52.5109108 62.7883898,52.4961181 C62.0592356,52.3535642 61.3378426,52.2813254 60.6449736,52.2813254 C56.1165492,52.2813254 53.9474613,55.2616902 53.8570467,55.38839 C53.8228179,55.4368809 53.8098826,55.4985724 53.8233486,55.5555542 C53.8365492,55.6138626 53.8733652,55.6630832 53.9251728,55.6916072 C56.4702473,57.1183402 59.1363169,57.418108 60.9255706,57.418108 C62.0053052,57.418108 62.8135308,57.3126354 63.1879918,57.2517399 C63.195753,57.8567813 62.8786054,59.631773 59.0409935,60.4397331 C59.0392025,60.4405292 58.4688543,60.5493186 57.5495176,60.5493186 C54.4791363,60.5493186 48.7507782,59.4281246 44.8761514,51.9257698 C39.6312428,41.7684898 42.8075611,35.3451401 42.8399989,35.2821882 C42.8589044,35.2518731 45.4734317,31.0082248 51.7021546,28.1120391 C53.2177764,27.4069645 55.8167814,26.9140955 58.0224198,26.9140955 C60.4358194,26.9140955 62.0644097,27.4844438 62.4890863,28.4782082 C63.0439122,29.7776444 63.8430498,30.6807289 64.864476,31.1647753 C65.9450066,31.6749577 67.9708109,33.205306 67.9091194,35.3373789 C67.8427844,37.7080588 68.4358192,38.8769476 69.791043,40.600397 C71.1456035,42.3256374 70.9963498,43.5569475 70.6368142,45.1085893 L70.6368142,45.1085893 Z" id="path92" fill="#FCD006"></path>
                        <path d="M139.794358,76.7741274 C130.618239,74.3907112 123.347924,79.3684889 127.577443,88.4795998 C126.510776,88.514094 125.218571,87.9217225 123.849416,88.3960177 C124.516746,86.7077922 125.004972,83.3970128 117.691539,84.7800974 C117.691539,84.7800974 117.539632,81.2252053 114.330345,79.3167476 C116.528024,77.8925354 116.890213,76.7529002 116.890213,76.7529002 C115.026863,77.4461009 113.231175,78.0610262 111.504475,78.6069632 C111.502485,78.6069632 111.501158,78.6049732 111.497841,78.6049732 L111.363181,78.650081 C94.696515,83.8885551 84.6262002,82.629517 84.6262002,82.629517 C84.6262002,82.629517 85.0016562,83.9416231 89.0812581,84.324376 C88.1565484,85.446764 85.979434,88.5499149 87.232502,92.1207274 C87.232502,92.1207274 85.058041,93.0872282 83.1257027,92.7237124 C83.1257027,92.7237124 89.9402963,98.9565481 109.768488,91.1847407 C128.327692,83.9097823 118.7728,92.6049728 113.576117,92.6049728 C113.576117,92.6049728 115.764508,94.3681568 122.984408,91.5907108 C130.275287,88.7873941 130.975784,92.6222199 130.613595,93.4122696 C130.613595,93.4122696 134.108123,91.0414571 130.983081,87.0308436 C133.452733,86.6673278 138.904142,86.258041 143.836149,88.6135965 C147.434822,90.3329994 147.21459,92.1830823 145.36318,93.4613575 C145.338636,95.750578 144.92736,100.415918 141.414258,105.748588 C140.238139,106.163845 139.233827,106.458372 138.455055,106.654724 C140.232169,102.074956 138.9393,97.0295166 138.9393,97.0295166 C135.525701,101.809616 131.9927,104.219566 129.838803,105.351904 C131.096514,101.929019 130.383413,99.0089527 130.383413,99.0089527 C127.095188,103.859367 123.914425,106.003977 122.025204,106.927361 C124.203645,102.486896 122.947924,95.9515731 122.947924,95.9515731 C120.031174,100.340296 116.866995,102.818571 114.528687,104.191042 C114.673297,101.400329 113.510445,98.8092844 113.510445,98.8092844 C109.768488,106.565835 104.520064,107.944939 104.520064,107.944939 C103.005636,103.972137 103.249749,99.4043093 103.249749,99.4043093 C97.9389694,103.304807 97.189384,107.589384 97.189384,107.589384 C94.5983393,104.735652 93.1383061,99.0149229 93.1383061,99.0149229 C91.3233808,101.479268 90.7482564,106.028521 90.7482564,106.028521 C88.0424522,102.967162 87.1754539,96.5519047 87.1754539,96.5519047 C85.619235,98.4961833 85.5436131,101.965503 85.5436131,101.965503 C82.043779,97.9475929 78.3595337,86.9578751 78.3595337,86.9578751 C76.6686548,89.7366478 76.4132651,93.1615234 76.6222203,96.0278583 C75.7081241,95.0507439 73.5761176,91.5674936 72.0855703,87.8175766 L88.7044754,73.8819219 C88.7555533,74.8583729 88.8782731,76.0397991 89.0135964,76.718406 C85.460031,78.3933645 84.8875601,81.1946912 84.8875601,81.1946912 C84.8875601,81.1946912 90.5996661,76.8172452 103.385072,78.4762833 C103.385072,78.4762833 101.690876,75.1064658 94.2606942,75.5290197 C97.6795995,72.6454377 108.36285,65.2033815 127.57877,65.2443765 C127.722717,66.6301808 128.112103,68.3402968 129.102484,69.5933648 C129.102484,69.5933648 125.747924,71.1097826 122.161191,68.640131 C122.161191,68.640131 123.031506,77.0374773 135.20464,70.3701475 C144.7927,65.1184063 147.771804,68.3170796 149.946265,71.8208937 C152.122053,75.3247079 149.100494,79.1927012 139.794358,76.7741274" id="path94" fill="#FCD006"></path>
                        <path d="M174.676613,132.78872 C173.160195,133.281589 171.712765,133.681589 170.338304,134.017244 C169.475286,133.678272 168.716414,133.330013 168.063677,132.985735 C171.999996,132.968488 174.676613,132.78872 174.676613,132.78872" id="path96" fill="#FCD006"></path>
                        <path d="M164.289216,135.176779 C162.43449,134.486895 160.927359,133.594027 159.7791,132.754226 C161.447425,132.859035 163.069979,132.922716 164.593694,132.955221 C165.701488,133.655055 166.810609,134.207625 167.696182,134.602318 C166.463677,134.846431 165.314755,135.036813 164.289216,135.176779" id="path98" fill="#FCD006"></path>
                        <path d="M158.530013,135.603977 C154.833164,134.625536 151.945602,131.917741 151.945602,131.917741 C153.394358,132.148587 154.871638,132.331672 156.342948,132.477609 C157.814258,133.805635 159.665004,134.832501 161.102484,135.509118 C159.468653,135.626531 158.530013,135.603977 158.530013,135.603977" id="path100" fill="#FCD006"></path>
                        <path d="M126.25008,159.252401 C124.727028,158.846431 123.314756,158.40862 121.999334,157.963512 C121.489218,157.294855 121.06998,156.67197 120.735652,156.105469 C123.959533,158.050411 126.25008,159.252401 126.25008,159.252401" id="path102" fill="#FCD006"></path>
                        <path d="M116.390047,155.772467 C115.270312,154.363512 114.553231,152.985734 114.098173,151.822218 C115.402319,152.725701 116.691208,153.578106 117.917742,154.358205 C118.420561,155.401654 119.007626,156.342948 119.502485,157.062019 C118.354889,156.620228 117.308123,156.183081 116.390047,155.772467" id="path104" fill="#FCD006"></path>
                        <path d="M111.43615,153.209946 C108.977775,150.682583 108.181755,147.33731 108.181755,147.33731 C109.229848,148.222219 110.332999,149.08391 111.451407,149.919068 C111.887228,151.586729 112.809284,153.23051 113.591374,154.421223 C112.191042,153.692202 111.43615,153.209946 111.43615,153.209946" id="path106" fill="#FCD006"></path>
                        <path d="M48.5660353,142.167824 C47.5629839,142.250079 46.4290536,142.311108 45.2010602,142.343612 C45.9084566,141.831506 46.7773123,141.140958 47.5992691,140.324375 C49.0166489,139.998006 50.516682,139.627194 52.0460352,139.21061 C51.2282574,140.153894 50.09174,141.21459 48.5660353,142.167824" id="path108" fill="#FCD006"></path>
                        <path d="M38.1079261,142.15323 C38.1079261,142.15323 40.6690537,141.785071 44.3592029,141.029516 C43.8543936,141.452069 43.2496175,141.898504 42.5464003,142.358869 C41.1574782,142.339632 39.679999,142.279267 38.1079261,142.15323" id="path110" fill="#FCD006"></path>
                        <path d="M55.176715,138.301157 C56.509385,137.88789 57.8371461,137.442783 59.1223866,136.961191 C59.1223866,136.961191 57.2504795,139.848089 54.0930666,141.408288 C54.0930666,141.408288 53.2193022,141.611273 51.6531994,141.830842 C52.7915078,140.969151 54.2083569,139.72736 55.176715,138.301157" id="path112" fill="#FCD006"></path>
                        <path d="M41.2872958,89.9595334 C42.7394351,89.6802631 44.1946258,89.3625185 45.617246,88.9990028 C45.617246,88.9990028 42.9884566,91.9608601 39.3970139,93.2736295 C39.3970139,93.2736295 38.463946,93.3817555 36.8265331,93.414923 C38.1957536,92.6096163 39.9442776,91.4169131 41.2872958,89.9595334" id="path114" fill="#FCD006"></path>
                        <path d="M30.1793027,93.1177423 C31.0242778,92.6421204 32.0792032,91.9913742 33.1177438,91.1933642 C34.6317736,91.0195665 36.2411931,90.8092846 37.8925364,90.5512415 C36.8257371,91.492535 35.407097,92.520064 33.6212264,93.3757854 C32.5873292,93.3306776 31.4269976,93.2477589 30.1793027,93.1177423" id="path116" fill="#FCD006"></path>
                        <path d="M23.06388,91.9509098 C23.06388,91.9509098 25.7439463,91.8859015 29.6628848,91.5409596 C29.0443774,91.9442763 28.3203973,92.36086 27.4917406,92.7774438 C26.0942614,92.5691519 24.6172465,92.303812 23.06388,91.9509098" id="path118" fill="#FCD006"></path>
                        <polyline id="path120" fill="#FCD006" points="69.8587047 86.8762831 51.3119058 88.8915401 48.8904134 88.2102797 68.9857363 84.9008271 95.3439445 64.4623533 97.071971 63.6191692 97.3684884 64.0630166 69.8587047 86.8762831"></polyline>
                        <path d="M121.922385,118.865005 C121.18275,118.811937 120.788057,118.756879 120.78673,118.756879 C120.744939,118.746266 120.701821,118.776116 120.689881,118.817907 C120.677277,118.859699 120.695188,118.90547 120.735652,118.92537 C120.760859,118.937974 123.403645,120.25008 128.530677,120.622883 C132.597675,120.918073 137.863346,120.772136 144.705137,119.004972 C151.544938,119.523712 158.596348,119.582087 159.76716,119.499831 C153.824872,121.562186 140.54129,121.668322 137.919731,121.668322 L137.586066,121.667659 L137.58474,121.667659 C137.544275,121.667659 137.509118,121.695519 137.497177,121.734657 C137.488554,121.773795 137.505138,121.816249 137.541622,121.835486 C141.439466,124.031838 147.35721,124.401324 148.8325,124.459698 C146.794026,125.520395 144.572467,126.413264 142.227525,127.168156 C140.715088,127.60464 139.161522,127.964839 137.59867,128.262683 C118.030511,124.932667 103.720064,118.494856 103.577444,118.429184 C103.550246,118.417907 103.519069,118.419234 103.494525,118.433165 C103.470644,118.447758 103.453397,118.473629 103.450744,118.502153 C103.449417,118.50547 103.466664,118.526034 103.497842,118.563844 L103.484575,118.581755 C103.485901,118.583745 103.505138,118.593032 103.540959,118.609616 C104.347593,119.485901 110.763513,125.525702 128.873629,129.343944 C122.764839,129.747924 117.439466,129.458703 114.958538,129.266332 C114.033165,129.143612 113.503811,129.04809 113.488554,129.044773 C113.452733,129.038803 113.416249,129.05406 113.396349,129.085237 C113.377112,129.116415 113.379102,129.155552 113.399002,129.185403 C117.026199,134.307128 123.05207,135.923048 125.082584,136.336315 C124.311771,136.39071 123.541622,136.41857 122.785403,136.41857 C109.386399,136.41857 102.264674,127.814922 102.195022,127.728023 C102.171805,127.699499 102.133331,127.687559 102.100827,127.698173 C102.065669,127.708123 102.040462,127.73731 102.036482,127.773131 C101.762518,130.009947 101.97081,132.082252 102.638803,133.962186 C99.0673275,131.503148 96.6308434,127.231174 96.6308434,127.231174 C96.6142596,127.203977 96.5784387,127.190047 96.5525681,127.189383 C96.5207273,127.190047 96.4908765,127.209284 96.4756195,127.237808 C94.9505781,130.202982 92.0736295,134.315088 86.9943594,137.20862 C87.5502466,136.223546 89.2696495,132.855055 89.1130989,129.170809 C89.1117722,129.138969 89.0931984,129.109781 89.064011,129.095187 C89.0341603,129.07993 88.9996661,129.083247 88.9737955,129.099831 C85.1150891,131.684905 80.2235469,132.679267 78.9638455,132.902816 C86.7429497,128.80464 89.9608601,121.131672 89.9608601,121.131672 C78.3615237,133.355884 56.0748245,126.202982 56.0748245,126.202982 C66.8119386,125.235818 72.6102801,122.880926 75.5887212,121.064674 C75.622552,121.04411 75.6378091,121.005635 75.6298489,120.967825 C75.6212253,120.930014 75.5907112,120.902153 75.5509102,120.898173 C65.7146252,119.903811 58.5877929,117.03814 53.7691529,114.24809 C46.726765,107.358538 47.3259026,101.366498 47.3259026,101.366498 C51.6754879,113.675619 69.6603631,116.108123 69.8414576,116.13134 C69.8865654,116.134657 69.9257031,116.110777 69.9383067,116.068985 C69.9509104,116.027194 69.9323366,115.98275 69.8931989,115.96285 C63.3164827,112.588389 59.3371793,107.4461 58.0283236,105.557543 C61.6397331,108.819898 69.1137628,110.654724 69.1933648,110.673297 C69.229849,110.683911 69.26766,110.666664 69.2882238,110.634823 C69.309451,110.604309 69.3081243,110.562518 69.2855704,110.532004 C66.8344925,107.286896 65.7846086,104.153231 65.3386385,101.968157 C71.5734642,111.251075 79.3339947,115.503811 84.7814241,117.43814 C84.8218884,117.45406 84.8696496,117.434823 84.8908768,117.396349 C84.9114407,117.355884 84.8995004,117.306796 84.8623528,117.280926 C81.0268636,114.534657 76.0563828,109.279599 73.8852386,99.7505779 C74.3893845,100.736979 78.733663,108.760196 84.8358188,112.5194 C84.8736297,112.542617 84.9220543,112.534657 84.9512417,112.50149 C84.9791024,112.468322 84.9804291,112.419898 84.951905,112.386067 C80.9598653,107.45605 79.8859018,102.308455 79.6159184,99.3936957 C84.2945253,109.283579 92.9260342,113.982087 93.0135963,114.028521 C93.0434471,114.044442 93.0766146,114.043115 93.1051386,114.024541 C93.1329993,114.006631 93.1489197,113.975453 93.145603,113.942286 C92.999666,112.149914 92.984409,110.498836 93.0965151,109.027526 C95.4275266,112.920064 98.2129329,114.021888 98.2407936,114.033165 C98.2679909,114.041788 98.2958516,114.039135 98.3177422,114.027194 C98.3416227,114.012601 98.3568798,113.990047 98.3608599,113.96285 C98.8470954,110.892203 99.8222197,108.712435 100.608289,107.366498 C100.839798,110.379433 102.699832,112.780097 102.719732,112.804641 C102.740959,112.830511 102.7728,112.842452 102.803978,112.837808 C109.883911,111.72537 115.209947,108.498173 118.483579,105.922385 C117.349251,110.681258 112.709118,114.299831 112.661357,114.335652 C112.628853,114.360196 112.618239,114.403314 112.633496,114.441125 C112.646763,114.478936 112.677941,114.50348 112.727692,114.496183 C123.408289,113.17081 130.214259,110.179765 134.094192,107.846763 C132.739632,110.977775 130.896846,113.363181 130.879599,113.387062 C130.855718,113.418239 130.853728,113.46003 130.875619,113.491871 C130.895519,113.524375 130.935983,113.539632 130.972468,113.529019 C137.636481,111.752568 143.203977,109.812269 147.525701,107.759865 C144.27794,111.85804 140.308454,114.305801 140.26799,114.330345 C140.230179,114.353563 140.214259,114.399997 140.231506,114.441125 C140.246099,114.480926 140.292534,114.504806 140.333661,114.494856 C140.473628,114.463015 154.40265,111.245768 163.994026,102.771473 C163.998669,102.765503 164.003976,102.761523 164.009946,102.756216 C160.905469,106.240793 156.043114,110.470976 152.696514,113.012269 C137.184076,119.59469 125.934989,119.156879 121.922385,118.865005" id="path122" fill="#FCD006"></path>
                        <path d="M181.221886,102.777444 C180.009946,103.879268 179.259034,104.443115 179.259034,104.443115 C175.751903,105.962186 171.807624,105.620561 171.807624,105.620561 C173.089216,104.90547 174.362185,104.135321 175.609283,103.339964 C177.586065,103.473298 179.673627,103.134989 181.221886,102.777444" id="path124" fill="#FCD006"></path>
                        <path d="M185.131007,96.4875598 C188.212931,94.0411253 190.202317,92.2434471 190.202317,92.2434471 C189.316745,93.5694836 188.427193,94.7781071 187.556878,95.8918716 C186.668652,96.1585382 185.856712,96.3542264 185.131007,96.4875598" id="path126" fill="#FCD006"></path>
                        <path d="M183.522383,100.541291 C181.639796,101.148256 179.903146,101.378439 178.480261,101.43018 C179.856712,100.48159 181.169481,99.527029 182.385402,98.6116062 C183.688221,98.4756194 184.902151,98.2222198 185.843445,97.9854039 C185.025534,98.937311 184.242781,99.7976758 183.522383,100.541291" id="path128" fill="#FCD006"></path>
                        <path d="M112.035818,8.58958519 L112.550578,8.58958519 C113.148256,8.58958519 113.635818,8.79276927 113.635818,9.27834139 C113.635818,9.70613574 113.320727,9.99276924 112.63615,9.99276924 C112.348256,9.99276924 112.149251,9.96291849 112.035818,9.93625182 L112.035818,8.58958519 Z M112.007957,5.96159852 L110.920064,5.96159852 L110.920064,10.6488223 C111.349251,10.7079268 111.949583,10.7934326 112.721722,10.7934326 C113.606631,10.7934326 114.006631,10.6488223 114.319068,10.4197676 C114.607626,10.2207626 114.803314,9.87714735 114.803314,9.42162497 C114.803314,8.84849066 114.377443,8.47820874 113.834823,8.30587044 L113.834823,8.25014905 C114.291871,8.10739615 114.520727,7.73479251 114.663347,7.10640115 C114.803314,6.39329337 114.920063,6.13339288 115.006299,5.96159852 L113.862684,5.96159852 C113.7194,6.13339288 113.635818,6.53529005 113.493198,7.10640115 C113.406962,7.59197328 113.120395,7.82288538 112.52139,7.82288538 L112.007957,7.82288538 L112.007957,5.96159852 Z M109.121059,8.39270294 C109.121059,6.3064874 110.691208,4.64863007 112.778107,4.64863007 C114.803314,4.61960851 116.348919,6.3064874 116.348919,8.36497492 C116.348919,10.4490876 114.803314,12.1353894 112.721722,12.1353894 C110.691208,12.1353894 109.121059,10.4490876 109.121059,8.39270294 Z M117.548919,8.39270294 C117.548919,5.76518725 115.434823,3.67822213 112.749583,3.67822213 C110.062352,3.67822213 107.921059,5.76518725 107.921059,8.39270294 C107.921059,11.0201656 110.062352,13.0773463 112.778107,13.0773463 C115.434823,13.0773463 117.548919,11.0201656 117.548919,8.39270294 L117.548919,8.39270294 Z" id="path130" fill="#231F20"></path>
                    </g>
                </g>
            </g>
        </g>
    </g>
</svg>