<?xml version="1.0" encoding="UTF-8"?>
<svg width="200px" height="200px" viewBox="0 0 200 200" version="1.1" xmlns="http://www.w3.org/2000/svg" xmlns:xlink="http://www.w3.org/1999/xlink">
    <!-- Generator: Sketch 54.1 (76490) - https://sketchapp.com -->
    <title>winthrop</title>
    <desc>Created with Sketch.</desc>
    <g id="winthrop" stroke="none" stroke-width="1" fill="none" fill-rule="evenodd">
        <g id="winthrop_BGL">
            <g id="winthrop" transform="translate(0.000000, 12.000000)">
                <g id="g10" transform="translate(99.973771, 87.962242) scale(-1, 1) rotate(-180.000000) translate(-99.973771, -87.962242) translate(0.000000, 0.052462)" fill-rule="nonzero">
                    <g id="g12">
                        <path d="M0,100.677889 C3.6052661,101.644687 9.03626518,102.662888 12.67915,103.183423 C8.10270108,87.0470474 4.63013888,68.9892456 3.00959867,52.320796 C7.40829774,53.941567 12.0907839,55.480093 16.5048829,56.8125871 C14.5849669,31.2537102 15.0480353,19.6781532 16.4371147,0 C106.030734,65.0536569 142.442168,65.8630983 154.184523,35.1892989 C218.312085,43.0604762 211.134534,134.274741 155.341827,136.35814 L151.698711,130.924938 L158.497347,141.248987 C149.322629,157.194017 127.560868,168.306316 99.172093,167.014525 C77.5410419,166.030733 49.6912655,169.777284 26.8548643,175.714656 C15.9740463,155.573455 4.86166261,124.291841 0,100.677889" id="path14" fill="#F9B118"></path>
                        <path d="M33.6083915,161.140935 C26.8099652,147.795853 20.2633302,129.666296 16.2347544,113.802462 C20.7199156,114.654495 24.4242323,115.348961 28.5725668,116.068814 C24.7958032,104.234354 20.0116439,85.6010469 16.9903169,67.7232608 C22.0510878,69.2787814 25.9287693,70.3204808 30.5869387,71.5002342 C28.2440066,56.9508509 27.0864929,37.2726977 27.3179117,22.9192756 C109.503276,79.6387077 148.63131,73.8058203 159.740463,48.8482547 C201.180588,60.6552306 196.781952,121.310251 148.677468,126.896194 L144.663621,116.497873 C174.759607,111.520375 186.445734,79.8097017 164.288483,63.1913963 C146.159346,88.1191691 105.422919,86.6333049 40.4068178,46.5726713 C40.7454488,54.6358234 41.6715437,67.8319417 43.2918951,76.8606327 C38.1987926,75.992445 35.247206,75.2981885 30.7904529,74.0827676 C33.3083653,89.693992 37.6369254,105.744975 42.4211896,119.846207 C38.9511661,119.400364 34.6104371,118.763595 30.3351684,118.083186 C33.2792019,128.429055 37.5043264,140.06231 40.9768676,147.470649 C56.4880133,143.535061 70.6110656,142.370833 91.0170447,142.759608 C116.374086,143.242378 128.016781,138.184523 133.580275,133.580065 C140.882032,127.536949 134.998161,121.359556 125.101072,121.012113 C120.313241,120.844476 112.19428,121.70679 108.027272,126.22124 C96.5096226,109.552581 130.599525,99.8871205 151.698711,130.924938 C142.377337,147.470649 123.444214,155.356933 99.172093,154.928084 C70.1469691,154.415942 57.5286637,156.608441 33.6083915,161.140935" id="path16" fill="#A80C30"></path>
                        <path d="M43.4979271,77.0649863 L43.4559653,76.8310497 C41.9228943,68.2891145 40.972042,55.8233398 40.5866237,46.8789917 C71.8661403,66.120953 98.5556755,77.0696021 119.911877,79.4181989 C130.041224,80.5329117 138.981166,79.685495 146.484759,76.9007062 C153.73805,74.2090724 159.738994,69.675949 164.323311,63.4263818 C169.054074,67.0092824 172.360657,71.3598723 174.152002,76.3594001 C175.823966,81.0259618 176.064197,86.124729 174.846678,91.1045348 C173.369416,97.1459719 169.900861,102.688065 164.815941,107.1316 C159.400573,111.863831 152.422551,115.045578 144.636346,116.333383 L144.4343,116.366742 L148.120217,125.915339 C138.583579,114.588825 127.477993,110.468814 119.160343,110.468395 C118.537212,110.468395 117.931285,110.491474 117.341093,110.536373 C112.005662,110.942562 107.867188,113.182688 106.271385,116.528505 C104.896929,119.409806 105.456698,122.794227 107.890058,126.315864 L108.00839,126.487277 L108.149801,126.334327 C111.939782,122.228374 119.386097,120.978964 125.095198,121.178701 C130.826747,121.379908 135.387985,123.60157 136.44521,126.706947 C137.179121,128.863149 136.123993,131.258533 133.473902,133.451662 C130.136897,136.213582 125.495512,138.388667 119.67899,139.916283 C112.088536,141.909884 102.446575,142.810172 91.0201918,142.59281 C70.0007326,142.193125 55.9785981,143.505897 41.069603,147.275318 C37.5901381,139.824177 33.4854437,128.494096 30.5672166,118.288799 C34.8945179,118.975292 39.087122,119.585835 42.3999989,120.011536 L42.6647773,120.045525 L42.5789656,119.792496 C38.9031199,108.957983 33.9182787,92.2935199 30.9964849,74.3114589 C35.1551001,75.4419074 38.1089946,76.1462347 43.2639905,77.0249128 L43.4979271,77.0649863 Z M30.7917118,71.7241 L30.7514286,71.4737984 C28.5643843,57.8922619 27.2543397,38.5521102 27.4798839,23.233359 C90.559662,66.7153406 123.684445,70.2625736 140.371148,65.5731429 C149.505792,63.0061353 156.053078,57.4472579 159.833618,49.0482023 C169.250874,51.7635445 176.840279,57.2118528 181.787774,64.8109084 C186.324674,71.7792796 188.438285,80.3610785 187.739413,88.9749781 C186.996061,98.1333309 183.132227,106.814789 176.860001,113.420611 C169.879671,120.771673 160.174767,125.367529 148.786359,126.715549 L144.892732,116.628374 C152.658585,115.309098 159.620243,112.114553 165.035191,107.382741 C170.172144,102.893677 173.676786,97.2922084 175.170413,91.1836327 C176.403667,86.1400451 176.15987,80.9751881 174.465876,76.2469428 C172.635086,71.1374753 169.24458,66.7000246 164.388561,63.057958 L164.253235,62.9564107 L164.153576,63.0932059 C154.834719,75.9068431 139.962441,81.2884323 119.948384,79.0869112 C98.5800133,76.7368457 71.847887,65.7498017 40.4940981,46.4306309 L40.2270118,46.266141 L40.2402298,46.579595 C40.6138988,55.474638 41.5567784,68.0046141 43.0862827,76.6562792 C37.9870958,75.780958 35.0514547,75.0720149 30.8343029,73.9218445 L30.5848406,73.8538665 L30.625963,74.1094133 C33.5232092,92.071962 38.4885382,108.742929 42.1776019,119.646679 C38.8441637,119.214684 34.66205,118.603092 30.3613945,117.918486 L30.10333,117.877364 L30.1748747,118.128715 C33.1180689,128.471437 37.298714,140.016571 40.8260152,147.541565 L40.884342,147.666191 L41.0177802,147.632202 C55.945868,143.844528 69.9631769,142.524203 91.0138975,142.926196 C102.470913,143.144187 112.143716,142.240332 119.763543,140.238759 C125.627272,138.698554 130.311877,136.501649 133.686648,133.708677 C136.450665,131.420715 137.542719,128.896089 136.760762,126.599525 C135.659268,123.363857 130.975921,121.051557 125.106947,120.845525 C119.392811,120.645158 111.955308,121.888274 108.047834,125.955832 C105.785048,122.599944 105.274165,119.393231 106.57204,116.672014 C108.116231,113.435297 112.151479,111.265877 117.36648,110.86871 C122.596378,110.471332 128.542142,111.869706 134.104796,114.808075 C139.357982,117.583212 144.27023,121.723574 148.507313,126.918434 L148.568368,127.076839 L148.630051,127.069706 C149.626642,128.300023 150.585887,129.589716 151.50275,130.93333 C146.951163,138.96648 140.044896,145.09184 130.974033,149.139676 C122.130183,153.086595 111.434773,154.979068 99.1750303,154.761496 C70.4986083,154.255648 57.6621019,156.414368 33.7002876,160.953786 C27.1752419,148.11686 20.5843583,130.169627 16.460865,114.014998 C20.3965796,114.762336 24.290794,115.494988 28.5440329,116.233094 L28.8148957,116.280092 L28.7311821,116.018041 C25.2433248,105.088904 20.3913344,86.7501683 17.1997898,67.962023 C22.2059265,69.4955136 26.0303167,70.5181205 30.5458162,71.6619966 L30.7917118,71.7241 Z M27.1563591,22.6051922 L27.1513237,22.9167579 C26.9045889,38.207185 28.2018351,57.5987397 30.3821655,71.2763685 C25.9008648,70.139416 22.0745864,69.111564 17.0392443,67.5638063 L16.780907,67.4844987 L16.8259949,67.7511654 C19.9945025,86.5002863 24.8287432,104.835665 28.3302379,115.857537 C24.092525,115.11964 20.2040803,114.386779 16.26589,113.638812 L16.0088116,113.589926 L16.0732228,113.843375 C20.2097241,130.132281 26.8718588,148.284706 33.4598471,161.216466 L33.5167052,161.328084 L33.6394432,161.304795 C57.6579057,156.753628 70.4772078,154.588404 99.1691557,155.094882 C111.475686,155.313503 122.22082,153.410959 131.109779,149.444318 C140.28135,145.351373 147.257274,139.148174 151.844108,131.006973 L151.894672,130.916755 L151.836555,130.831363 C150.921161,129.484812 149.983316,128.21589 149.028688,127.022289 C160.407025,125.634196 170.108991,121.014421 177.1017,113.650141 C183.426379,106.98935 187.322104,98.2359273 188.07154,89.0020434 C188.776497,80.3149206 186.644212,71.6590593 182.067239,64.6290044 C177.050927,56.9239954 169.346127,51.4119053 159.786201,48.6881708 L159.647098,48.6483072 L159.588352,48.7804866 C155.859215,57.1581418 149.363332,62.7000247 140.28093,65.2523456 C123.640595,69.9283486 90.5514795,66.3567778 27.4125354,22.7820608 L27.1563591,22.6051922 L27.1563591,22.6051922 Z" id="path18" fill="#A80C30"></path>
                        <path d="M148.677468,126.896194 L144.663621,116.497873 C174.788561,111.586884 186.445734,79.8097017 164.288483,63.1913963 C146.159346,88.1191691 105.422919,86.6333049 40.4068178,46.5726713 C40.6875416,54.6939404 41.6136365,67.889639 43.2918951,76.8606327 C38.1987926,75.9347476 35.3049034,75.2981885 30.7904529,74.0827676 C33.3083653,89.693992 37.6369254,105.744975 42.4211896,119.846207 C39.0669804,119.342457 34.3790183,118.705688 30.3351684,118.083186 C33.2792019,128.429055 37.5043264,140.06231 40.9768676,147.470649 C57.1824796,143.535061 70.6110656,142.370833 91.0170447,142.759608 C116.374086,143.242378 128.016781,138.184523 133.580275,133.580065 C140.882032,127.536949 134.998161,121.359556 125.101072,121.012113 C120.313241,120.844476 112.19428,121.70679 108.027272,126.22124 C97.4818753,110.959766 125.16905,101.569156 146.113188,123.914605 L148.677468,126.896194" id="path20" fill="#FFFFFF"></path>
                    </g>
                </g>
            </g>
        </g>
    </g>
</svg>