<?xml version="1.0" encoding="UTF-8"?>
<svg width="200px" height="200px" viewBox="0 0 200 200" version="1.1" xmlns="http://www.w3.org/2000/svg" xmlns:xlink="http://www.w3.org/1999/xlink">
    <!-- Generator: Sketch 54.1 (76490) - https://sketchapp.com -->
    <title>wisconsin</title>
    <desc>Created with Sketch.</desc>
    <g id="wisconsin" stroke="none" stroke-width="1" fill="none" fill-rule="evenodd">
        <g id="wisconsin_BGL">
            <g id="wisconsin" transform="translate(0.000000, 5.000000)">
                <g id="g10" transform="translate(99.927691, 94.993494) scale(-1, 1) rotate(-180.000000) translate(-99.927691, -94.993494) translate(0.000000, 0.127264)">
                    <g id="g12">
                        <path d="M39.7477937,9.11097591 L16.5395513,80.5191592 C15.6216048,83.4441049 14.7799273,85.9149653 11.6131017,86.9122176 C8.41073009,87.9204606 5.86530716,86.3256667 5.86530716,86.3256667 L11.2820821,137.180329 C7.72662309,134.177292 5.63088923,132.131305 5.63088923,132.131305 L0,80.0503234 C0,80.0503234 4.67676055,82.9341989 8.21130854,81.8093978 C10.7917568,80.9879951 11.6334632,79.4284868 12.5514097,76.5310176 L38.4462752,0.000338938531 C50.1599409,19.0892837 65.0189427,27.3322336 83.0232806,32.7551691 L83.8822828,36.8205341 C66.1159781,32.2652197 50.235429,24.5004188 39.7477937,9.11097591" id="path14" fill="#231F20"></path>
                        <path d="M75.8354283,111.310771 C76.7731,115.298623 77.4438159,116.789874 75.8354283,119.873605 C74.4271854,122.571508 71.9641341,122.629932 71.9641341,122.629932 L77.436296,170.889945 C74.0740401,169.813734 72.0228471,169.081124 72.0228471,169.081124 L66.3927677,119.757915 C66.3927677,119.757915 68.3991306,120.148949 70.1457683,117.703829 C71.9054212,115.240489 71.0845969,112.804914 70.1457683,108.788717 L62.8332595,78.3320299 L65.1019507,67.9094705 L75.8354283,111.310771" id="path16" fill="#231F20"></path>
                        <path d="M137.886909,125.680402 C138.889078,128.873749 138.638319,130.627618 137.475629,132.834993 C136.303106,135.064349 133.077365,135.123062 133.077365,135.123062 L138.352274,182.014746 C135.014313,181.657262 133.018652,181.398115 133.018652,181.398115 L127.857697,131.779895 C127.857697,131.779895 130.908167,131.861747 132.08098,129.668254 C133.242513,127.495297 132.965434,124.681125 131.964133,121.457119 L124.376859,94.5261003 L126.625883,83.9797521 L137.886909,125.680402" id="path18" fill="#231F20"></path>
                        <path d="M106.040489,41.4576996 L97.8290648,79.9328975 L95.3153989,67.1502514 L102.696744,35.7691965 C102.696744,35.7691965 110.492839,37.5375262 125.394935,37.0007221 C138.414458,36.5318863 150.848875,33.1294279 150.848875,33.1294279 L152.292982,37.8409246 C147.239331,39.1864054 137.837741,41.220534 125.336222,41.8678225 C113.545623,42.4804039 106.040489,41.4576996 106.040489,41.4576996" id="path20" fill="#231F20"></path>
                        <path d="M161.057697,31.2992038 C159.448441,31.2992038 158.075195,32.6114236 158.075195,34.264352 C158.075195,35.915545 159.448441,37.2277648 161.057697,37.2277648 C162.666663,37.2277648 164.041066,35.915545 164.041066,34.264352 C164.041066,32.6114236 162.666663,31.2992038 161.057697,31.2992038 Z M161.057697,38.0338385 C158.942874,38.0338385 157.269121,36.3612428 157.269121,34.264352 C157.269121,32.1651474 158.942874,30.4931301 161.057697,30.4931301 C163.173387,30.4931301 164.84714,32.1651474 164.84714,34.264352 C164.84714,36.3612428 163.173387,38.0338385 161.057697,38.0338385 L161.057697,38.0338385 Z" id="path22" fill="#231F20"></path>
                        <path d="M161.34808,34.811279 C161.197393,34.8107005 161.051044,34.8159066 160.926099,34.8159066 L160.375412,34.8159066 L160.375412,35.6008668 L161.319446,35.6008668 C161.53116,35.6008668 161.756467,35.5817779 161.925376,35.5190157 C162.090524,35.457989 162.170061,35.3700642 162.170061,35.2373093 C162.170061,35.005639 162.027183,34.8983361 161.770639,34.8462753 C161.638463,34.8190881 161.491536,34.8124359 161.34808,34.811279 L161.34808,34.811279 Z M162.976135,35.2268972 C162.976135,36.2053498 162.154732,36.4066513 161.431088,36.4066513 L159.569916,36.4066513 L159.569916,32.1674612 L160.375412,32.1674612 L160.375412,34.0107005 L160.860155,34.0107005 L162.057552,32.1674612 L163.023568,32.1674612 L161.807371,34.0248726 C162.454081,34.0971792 162.976135,34.4306571 162.976135,35.2268972 L162.976135,35.2268972 Z" id="path24" fill="#231F20"></path>
                        <path d="M169.499634,189.608961 C153.665651,189.421253 139.001009,187.790595 139.001009,187.790595 L138.352274,182.014746 L133.077365,135.123062 C133.077365,135.123062 136.303106,135.064349 137.475629,132.834993 C138.638319,130.627618 138.889078,128.873749 137.886909,125.680402 L126.625883,83.9797521 L124.376859,94.5261003 L118.884451,120.284306 C118.167459,123.170207 118.238898,127.733041 119.470713,130.430944 C120.964856,133.70325 123.575991,133.832245 123.575991,133.832245 L129.206649,186.969771 C129.206649,186.969771 116.003468,185.712794 101.700359,182.747067 C88.9726659,180.107298 78.1220516,176.94056 78.1220516,176.94056 L77.436296,170.889945 L71.9641341,122.629932 C71.9641341,122.629932 74.4271854,122.571508 75.8354283,119.873605 C77.4438159,116.789874 76.7731,115.298623 75.8354283,111.310771 L65.1019507,67.9094705 L62.8332595,78.3320299 L57.3018062,103.7449 C56.6076631,106.812723 56.6533608,111.753287 57.7706421,114.184524 C59.7648575,118.524654 62.4040476,119.052781 62.4040476,119.052781 L68.034127,174.300791 C68.034127,174.300791 49.5595071,168.025737 34.4861886,159.169338 C21.2869409,151.414024 11.9062904,143.040633 11.9062904,143.040633 L11.2820821,137.180329 L5.86530716,86.3256667 C5.86530716,86.3256667 8.41073009,87.9204606 11.6131017,86.9122176 C14.7799273,85.9149653 15.6216048,83.4441049 16.5395513,80.5191592 L39.7477937,9.11097591 C50.235429,24.5004188 66.1159781,32.2652197 83.8822828,36.8205341 C85.7741121,37.3070128 87.6870549,37.7561813 89.6176406,38.1735348 L95.3153989,67.1502514 L97.8290648,79.9328975 L106.040489,41.4576996 C106.040489,41.4576996 113.545623,42.4804039 125.336222,41.8678225 C137.837741,41.220534 147.239331,39.1864054 152.292982,37.8409246 C155.015181,37.1161234 156.479244,36.5900208 156.479244,36.5900208 L184.397103,126.970351 C184.397103,126.970351 185.66912,133.573966 188.971506,135.885174 C191.318,137.527112 194.367313,137.292838 194.367313,137.292838 L199.646271,188.787269 C199.646271,188.787269 189.322916,189.843235 169.499634,189.608961" id="path26" fill="#92191E"></path>
                    </g>
                </g>
            </g>
        </g>
    </g>
</svg>