<?xml version="1.0" encoding="UTF-8"?>
<svg width="200px" height="200px" viewBox="0 0 200 200" version="1.1" xmlns="http://www.w3.org/2000/svg" xmlns:xlink="http://www.w3.org/1999/xlink">
    <title>western-ill_BGL</title>
    <defs>
        <polygon id="path-1" points="0 0 200 0 200 136.006692 0 136.006692"></polygon>
    </defs>
    <g id="western-ill_BGL" stroke="none" stroke-width="1" fill="none" fill-rule="evenodd">
        <g id="western-ill" transform="translate(0.000000, 32.000000)">
            <g id="Group-3">
                <mask id="mask-2" fill="white">
                    <use xlink:href="#path-1"></use>
                </mask>
                <g id="Clip-2"></g>
                <path d="M0.193797027,0.21223432 C1.94090659,-0.137187592 3.83189576,0.0536731164 5.60836851,0.0389915234 C20.7715177,0.0771636651 35.9346669,0.00669201891 51.0978161,0.0712910279 C51.1389246,10.8152808 51.1389246,21.5622068 51.0978161,32.3061965 C49.650211,32.3355597 48.2055423,32.3502413 46.7579372,32.3884134 C51.3297853,42.6391016 55.9897229,52.854554 60.5850615,63.0964333 C61.668563,65.5306414 62.7080198,67.9560405 63.9794458,70.2992228 C65.1657185,67.8738236 66.1963663,65.3662075 67.2828042,62.890891 C71.7665627,52.7282923 76.2180217,42.5510121 80.7193981,32.3972224 C79.5712975,32.3590502 78.4261332,32.3267507 77.2780327,32.2915149 C77.2369242,21.5504615 77.2369242,10.8094081 77.2780327,0.0712910279 C92.7260048,0.0301825676 108.176913,0.0301825676 123.624885,0.0712910279 C123.665994,10.8064718 123.665994,21.5445889 123.624885,32.2768333 C122.550193,32.3267507 121.472564,32.3737318 120.397871,32.4295219 C124.632043,42.6302927 128.971921,52.789955 133.253074,62.9731079 C134.260231,65.4190613 135.267389,67.8532694 136.427234,70.2287511 C142.129565,57.7141613 147.855386,45.2025078 153.545972,32.6849816 C151.925124,32.6585547 150.304276,32.605701 148.680492,32.5587199 C148.521931,28.4684281 148.639383,24.4016269 148.607084,20.3083988 C148.627638,13.563675 148.568912,6.81601483 148.630574,0.0712910279 C165.743439,0.0331188862 182.856304,0.0301825676 199.969169,0.0712910279 C200.010277,10.9209882 200.010277,21.7706854 199.969169,32.6203826 C197.426317,32.6879179 194.880529,32.5704652 192.340613,32.6203826 C191.756286,32.6879179 190.93118,32.6291916 190.56414,33.1753468 C189.697926,34.3322563 189.189943,35.8092246 188.587998,37.1188227 C179.106625,57.3823573 169.628189,77.6547008 160.155625,97.9241081 C158.895944,100.584413 157.589282,103.232972 156.473481,105.960812 C157.562856,106.019538 158.65223,106.069456 159.741604,106.119373 C159.782712,116.070557 159.782712,126.024677 159.741604,135.975861 C144,136.016969 128.25546,136.016969 112.513856,135.975861 C112.472747,126.118639 112.472747,116.258481 112.513856,106.40126 C113.673702,106.363088 114.833547,106.327852 115.993393,106.286743 C111.991191,96.9991677 107.994861,87.7262736 103.989723,78.4386979 C102.753533,75.5845962 101.587814,72.6717682 100.251789,69.8705202 C98.2022389,74.374833 96.3670398,78.9701716 94.3351074,83.4803569 C91.1286475,90.9973325 87.8164801,98.467327 84.6511286,105.998984 C85.7992292,106.037156 86.9473298,106.069456 88.0954304,106.104692 C88.1365388,116.061748 88.1365388,126.018804 88.0954304,135.975861 C72.0601945,136.016969 56.0220224,136.016969 39.9867866,135.975861 C39.9456781,126.124512 39.9456781,116.270227 39.9867866,106.418878 C40.967517,106.366024 41.9453111,106.310234 42.9260415,106.251508 C35.1506698,89.0916617 27.3958524,71.914198 19.6234171,54.7543521 C16.5725821,47.9244751 13.3954854,41.1503881 10.4268673,34.2882116 C10.1302991,33.7038842 9.79555882,32.9639319 9.24940356,32.5763378 C8.50064232,32.2768333 7.5815746,32.3267507 6.78583226,32.3032602 C4.54248486,32.3355597 2.29913746,32.3649229 0.0528537346,32.3267507 C-0.014681593,23.3298706 0.064599009,14.3300541 0.0176179115,5.33317394 C0.0264268673,3.65359971 -0.143879611,1.86244537 0.193797027,0.21223432" id="Fill-1" fill="#F8C823" mask="url(#mask-2)"></path>
            </g>
            <path d="M5.77280235,5.79123964 C7.4230134,5.453563 9.21416774,5.62386948 10.893742,5.61506053 C22.4364104,5.66204162 33.9761424,5.58276102 45.5188108,5.65029635 C45.5599193,12.6798431 45.5599193,19.7181987 45.5188108,26.7477454 C43.0669848,26.7506817 40.6122224,26.7771086 38.1603964,26.8064718 C38.8797945,28.6064351 39.6784731,30.3711626 40.4800881,32.13589 C48.331804,49.4454881 56.0660672,66.8226215 63.9735731,84.1028565 C66.1993026,79.5515626 68.0932281,74.8328987 70.1809506,70.2140695 C76.543953,55.7438915 82.9275096,41.2795861 89.2494036,26.7947265 C87.1205726,26.7682997 84.9888053,26.7653633 82.857038,26.7418728 C82.8159295,19.7123261 82.8159295,12.6798431 82.857038,5.65029635 C94.5846944,5.60918789 106.318224,5.60918789 118.04588,5.65029635 C118.086988,12.6769067 118.086988,19.7093898 118.04588,26.7330638 C116.05212,26.762427 114.058359,26.7653633 112.067535,26.8328987 C113.048266,29.8015168 114.3931,32.5205478 115.5735,35.4509937 C119.663792,45.149654 123.765829,54.8512507 127.859057,64.5469746 C130.642687,71.0626656 133.276565,77.6517645 136.195265,84.1057928 C137.942375,80.5675289 139.463388,76.9176849 141.157644,73.3529941 C147.247568,59.969254 153.366856,46.6060681 159.462654,33.2252642 C160.399339,31.1992044 161.330152,29.1731446 162.155258,27.0971673 C159.506698,27.0707405 156.858139,27.0443136 154.20958,27.0443136 C154.168471,19.9149321 154.168471,12.7796779 154.20958,5.65029635 C167.602129,5.60918789 180.997614,5.60918789 194.390163,5.65029635 C194.431272,12.7796779 194.431272,19.9119957 194.390163,27.0413773 C191.958892,27.038441 189.530556,27.0854221 187.099284,27.0795494 C175.101487,52.7517829 163.074326,78.4269526 151.088273,104.105059 C149.951918,106.600929 148.677556,109.020456 147.682144,111.57799 C149.840338,111.630843 152.001468,111.63378 154.162599,111.65727 C154.203707,117.899883 154.203707,124.151306 154.162599,130.396855 C142.14131,130.437964 130.114149,130.437964 118.092861,130.396855 C118.051753,124.251141 118.051753,118.099553 118.092861,111.953838 C120.174711,111.924475 122.253625,111.927411 124.335474,111.862812 C123.936135,110.702967 123.50156,109.560739 123.028813,108.433192 C116.695173,93.8925426 110.481923,79.2931666 104.162966,64.7466443 C102.865113,61.7604083 101.649477,58.7154459 100.251789,55.776191 C94.5876308,68.6901202 89.0761608,81.6774573 83.4384291,94.6060681 C81.0306478,100.384743 78.3938337,106.069456 76.0535878,111.877494 C78.2059093,111.924475 80.3611672,111.927411 82.516425,111.950902 C82.5575335,118.096617 82.5575335,124.251141 82.516425,130.396855 C70.2015049,130.437964 57.8807121,130.437964 45.5657919,130.396855 C45.5246834,124.251141 45.5246834,118.099553 45.5657919,111.953838 C47.5478069,111.927411 49.529822,111.924475 51.5089007,111.85694 C50.719031,109.848498 49.8322628,107.878228 48.9190677,105.919704 C37.235456,80.1035905 25.428519,54.0731262 13.8006974,28.2570132 C13.4454028,27.6345136 13.1576436,26.9474151 12.3530923,26.8622618 C10.1420444,26.5833116 7.86052487,26.8094081 5.63185906,26.7594907 C5.55257845,20.789955 5.6700312,14.8233556 5.56726005,8.85675625 C5.57019637,7.84959897 5.54964214,6.77784269 5.77280235,5.79123964" id="Fill-4" fill="#59327E"></path>
        </g>
    </g>
</svg>