<?xml version="1.0" encoding="UTF-8"?>
<svg width="200px" height="200px" viewBox="0 0 200 200" version="1.1" xmlns="http://www.w3.org/2000/svg" xmlns:xlink="http://www.w3.org/1999/xlink">
    <!-- Generator: Sketch 54.1 (76490) - https://sketchapp.com -->
    <title>william-mary</title>
    <desc>Created with Sketch.</desc>
    <g id="william-mary" stroke="none" stroke-width="1" fill="none" fill-rule="evenodd">
        <g id="william-mary_BGL">
            <g id="william-mary" transform="translate(0.000000, 21.000000)">
                <path d="M95.8057143,58.675743 L95.7752381,58.6243454 C95.8050794,58.6687631 95.8203175,58.6966827 95.8298413,58.7150843 L95.8057143,58.675743 Z M180.708571,132.34245 L169.203175,64.6251727 L142.083175,112.751084 L127.977778,87.0262731 C130.275556,86.6024016 132.447619,85.5300321 134.306667,83.8688112 C137.39873,81.1047631 139.256508,76.9675743 139.245079,72.8018313 C139.213333,61.3065382 125.751111,57.6338313 125.751111,57.6338313 C125.751111,57.6338313 125.979048,65.2216386 122.07619,66.6715582 C121.297143,66.9615422 120.309841,67.3797028 119.334603,67.6893574 C121.429206,64.4830361 122.571429,60.5844337 122.551111,56.4992771 C122.530794,52.4160241 120.612063,45.8212691 115.272381,40.673261 C110.528254,36.098241 104.16254,33.8081928 96.848254,34.0245703 C95.632381,34.0626426 94.4184127,34.1825703 93.2184127,34.3824498 L94.655873,25.7343293 C97.9777778,11.4407229 113.568254,4.30787952 113.568254,4.30787952 L79.8146032,4.3275502 C76.6069841,4.3275502 73.7853968,6.77052209 73.3663492,9.89879518 L71.2622222,24.6606908 L56.1320635,0 L41.0615873,24.6784578 L38.9060317,9.8842008 C38.48,6.76290763 35.6622222,4.3275502 32.4615873,4.3275502 L0,4.30851406 C0,4.30851406 14.7073016,12.7383534 17.5136508,25.1112129 L29.2019048,92.82849 L56.1390476,44.7019438 L73.1269841,75.6845382 C68.2850794,81.3471566 65.5657143,88.5986586 65.5657143,96.0855743 C65.5657143,113.405928 79.6653968,127.496482 96.9955556,127.496482 C99.5053968,127.496482 101.996825,127.195076 104.416508,126.60559 L103.566349,131.718699 C100.806984,143.859952 84.1974603,153.145783 84.1974603,153.145783 L118.407619,153.126112 C121.613333,153.126112 124.433651,150.685679 124.855238,147.559944 L126.96,132.792337 L142.090159,157.454297 L157.16,132.775839 L159.315556,147.566289 C159.740952,150.689486 162.55873,153.126112 165.76,153.126112 L199.621587,153.210506 C199.621587,153.210506 185.250794,146.851165 180.708571,132.34245 L180.708571,132.34245 Z" id="Fill-1" fill="#ECAC2E"></path>
                <path d="M176.743492,133.319004 L167.466032,77.610996 L142.875556,122.491245 L142.693333,122.491245 L119.582857,80.3445863 C120.684444,81.119992 122.59746,82.092739 125.55619,82.4233333 C130.831111,83.0140884 135.182857,78.1072048 135.182857,72.8024659 C135.182857,68.8239116 132.833016,64.86249 129.299683,63.9386024 C130.645714,79.5158795 87.3688889,68.0656386 88.0495238,94.5944096 C88.744127,108.65641 108.766349,108.599936 107.321905,96.0862088 C95.4520635,96.1502972 99.0488889,82.8230924 108.04254,84.6511968 L108.195556,84.7685863 C111.194286,87.5516707 112.933968,91.6831486 112.933968,96.0862088 C112.933968,104.484321 106.097778,111.316394 97.6952381,111.316394 C89.2920635,111.316394 82.4926984,104.614402 82.455873,96.0862088 C82.4190476,87.5580161 86.3073016,80.3794859 97.6565079,74.2701526 C94.9968254,72.75551 88.2419048,68.9514538 88.0577778,59.8248916 L88.0679365,59.8248916 C88.0679365,54.5201526 92.3993651,50.2040241 97.6952381,50.2040241 C101.544762,50.2040241 104.744127,53.2923213 104.744127,57.0773414 C104.744127,60.8623614 101.662222,64.0084016 97.8749206,63.9424096 C94.0533333,63.8751486 92.4539683,61.1802651 92.4374603,61.1517108 C92.4546032,66.6766345 97.464127,70.7243534 102.488254,71.1704337 C112.230476,72.0346747 118.532063,65.0947309 118.488889,56.5233896 C118.460317,50.8417349 113.067302,38.3077028 97.6952381,38.7823373 C94.1739683,38.8908434 90.8546032,39.8071165 87.9339683,41.3484096 L90.6819048,24.8091727 C93.3625397,13.0759277 100.84127,9.07706827 100.84127,9.07706827 L80.5142857,9.08658635 C79.6031746,9.08658635 78.8749206,9.81503614 78.784127,10.5428514 L74.7765079,38.6662169 L74.5949206,38.6662169 L56.8412698,8.12018474 L39.1695238,38.6662169 L38.9873016,38.6662169 L34.8888889,10.5428514 C34.7987302,9.81503614 33.9784127,9.08658635 33.1593651,9.08658635 L12.8755556,9.07706827 C12.8755556,9.07706827 20.071746,12.9198313 22.8780952,24.1352932 L32.1555556,79.8433012 L56.7453968,34.9636867 L56.927619,34.9636867 L79.6831746,76.4618474 C74.3688889,81.3363695 71.0273016,88.3264418 71.0273016,96.0862088 C71.0273016,110.782747 82.9904762,122.737446 97.6952381,122.737446 C102.620317,122.737446 107.234286,121.39159 111.19746,119.055855 L108.939683,132.645124 C106.259048,144.379004 98.7803175,148.377229 98.7803175,148.377229 L119.107302,148.367076 C120.017778,148.367076 120.746667,147.639896 120.836825,146.911446 L124.845079,118.788715 L125.026667,118.788715 L142.780317,149.333478 L160.451429,118.788715 L160.633651,118.788715 L164.732063,146.911446 C164.822857,147.639896 165.643175,148.367076 166.462222,148.367076 L186.745397,148.377229 C186.745397,148.377229 179.549841,144.534466 176.743492,133.319004" id="Fill-3" fill="#174C39"></path>
            </g>
        </g>
    </g>
</svg>