<?xml version="1.0" encoding="UTF-8"?>
<svg width="200px" height="200px" viewBox="0 0 200 200" version="1.1" xmlns="http://www.w3.org/2000/svg" xmlns:xlink="http://www.w3.org/1999/xlink">
    <!-- Generator: Sketch 54.1 (76490) - https://sketchapp.com -->
    <title>wofford</title>
    <desc>Created with Sketch.</desc>
    <g id="wofford" stroke="none" stroke-width="1" fill="none" fill-rule="evenodd">
        <g id="wofford_BGL">
            <g id="wofford" transform="translate(9.000000, 1.000000)">
                <path d="M124.357143,0.543478261 C124.814643,3.86956522 121.459643,6.04347826 119.651429,8.69565217 C114.727857,15.8478261 113.529643,27.3478261 114.640714,39.1304348 C123.355,43.6956522 132.744643,47.1086957 141.306429,52.9130435 C145.663571,55.8043478 148.256071,59.6086957 154.791786,57.6086957 C158.931071,59.326087 158.190357,63.4130435 158.560714,67.6304348 C158.952857,72.4565217 161.414643,77.9130435 161.066071,82.8478261 C172.982857,84.6521739 182.328929,94.2608696 179.888929,108.521739 C178.882717,113.448454 176.362043,117.93949 172.677857,121.369565 C170.499286,123.282609 167.296786,124.413043 167.013571,128.565217 C170.63,133.434783 173.418571,144.826087 166.708571,147.652174 C164.53,148.565217 162.198929,147.478261 159.8025,147.978261 C157.406071,148.478261 154.3125,151.369565 151.959643,152.978261 C144.269286,158.23913 135.7075,162.673913 127.799286,167.065217 C128.126071,169.130435 130.696786,169.565217 130.892857,171.73913 C131.154286,173.608696 129.498571,175 129.019286,177.065217 C128.409286,179.695652 129.738214,184.934783 128.3875,187.391304 C127.036786,189.847826 120.740714,191.391304 117.734286,192.391304 C104.972758,196.967115 91.4332828,198.991108 77.8882143,198.347826 C72.0278571,197.956522 67.6489286,195.413043 62.2025,193.021739 C38.2382143,182.413043 18.3260714,169.391304 4.79714286,147 C1.98678571,142.282609 -1.5425,136.369565 1.11535714,132.021739 C1.7621032,131.272502 2.29099747,130.429547 2.68392857,129.521739 C3.55535714,126.086957 2.22642857,123.695652 4.53571429,122 C5.7764755,121.306868 7.19009668,120.982506 8.60964286,121.065217 C10.7882143,119.413043 10.7882143,116.413043 13.9471429,115.130435 C18.0210714,113.391304 24.1428571,114.73913 29.0010714,115.130435 C33.9682143,111.26087 41.7675,107.717391 42.8132143,100.086957 C43.6628571,93.8913043 41.7021429,87.0434783 41.8764286,80.3695652 C42.4566254,68.0137738 44.251672,55.7447251 47.2357143,43.7391304 C48.6735714,37.2173913 50.3075,30 53.1832143,25.2826087 C57.5403571,18.0869565 65.2307143,12.2391304 71.7010714,7.13043478 C73.7489286,5.5 76.2760714,3.26086957 79.2171429,3.36956522 C79.4132143,10.5652174 72.6814286,17.3043478 72.0060714,25.2826087 C71.1564286,34.6521739 74.6421429,43.2391304 76.7117857,51.2608696 C80.1321429,50.5 83.4217857,49.6086957 86.755,48.7608696 C88.9335714,43.6956522 90.8507143,38.2391304 93.0292857,33.1086957 C94.8714275,28.0444342 97.2910078,23.2083268 100.240357,18.6956522 C102.811071,15.326087 107.407857,12.3043478 110.915357,9.30434783 C114.301313,6.11276178 117.944541,3.20441136 121.808214,0.608695652 C122.527143,0.195652174 123.180714,-0.369565217 124.313571,0.608695652 M112.396786,47.5652174 C101.764204,46.986423 91.1238765,48.5539202 81.1125,52.173913 C90.3932143,52.3478261 100.588929,50.7826087 108.715,53.7391304 C115.904286,56.3478261 119.934643,65.1521739 124.095714,72.5217391 C126.666429,77.1304348 130.631429,83.1086957 130.631429,87.5434783 C130.783929,94.0652174 123.551071,100.391304 119.738571,104.152174 C115.663798,107.79758 111.787649,111.658184 108.126786,115.717391 C101.307857,123.76087 93.465,134.26087 92.4410714,146.717391 C91.5914286,157 96.6457143,166.282609 107.495,164.869565 C115.2725,163.826087 117.538214,154.673913 125.381071,152.043478 C131.393929,150.021739 133.637857,154.217391 138.4525,154.217391 C145.728929,154.217391 146.796429,144.934783 155.075,144.5 C159.214286,144.282609 163.963571,146.978261 167.318571,144.195652 C170.150714,141.804348 169.148571,133.173913 166.381786,131.152174 C164.660714,138.695652 150.783214,141.434783 141.589643,141.173913 C138.125714,141.173913 133.899286,139.717391 129.977857,140.23913 C118.257143,141.782609 117.538214,158.217391 106.776071,159.021739 C104.756942,159.240987 102.73027,158.680955 101.111786,157.456522 C95.6653571,151.652174 106.950357,144.413043 110.218214,142.108696 C117.541633,136.411791 125.82724,132.06802 134.683571,129.282609 C140.021071,127.73913 145.576429,127.913043 150.696071,126.456522 C157.9725,124.282609 161.131429,117.065217 156.970357,109.543478 C154.791786,107.543478 150.696071,107.369565 146.927143,107.043478 C148.343214,105.956522 150.020714,105.130435 150.064286,102.695652 C149.214513,101.704046 147.933488,101.188316 146.632032,101.313855 C145.330576,101.439393 144.172268,102.190421 143.528571,103.326087 C142.657143,105.304348 144.291071,106.695652 143.528571,108.021739 C140.086429,106.521739 137.428571,104.543478 136.644286,101.043478 C134.465714,90.173913 152.722143,83.5217391 162.351429,88.5217391 C164.329271,91.1053382 164.915122,94.4911375 163.92,97.5869565 C162.765357,101.434783 157.907143,105.282609 157.645714,108.23913 C157.975274,109.863192 158.397146,111.467232 158.909286,113.043478 C159.867857,116.869565 160.761071,121.913043 164.246786,122.73913 C171.915357,124.586957 177.862857,112.73913 178.363929,105.847826 C178.749972,99.8252109 176.584198,93.9175612 172.394643,89.5652174 C168.843571,86.4130435 164.769643,85.8043478 159.846071,84.8695652 C159.65,78.173913 159.1925,71.826087 155.772143,68.2608696 C154.639286,69.2608696 155.946429,71.6304348 156.077143,73.2826087 C155.554286,75.1956522 152.460714,76.0652174 152.94,77.9782609 C154.324618,77.7405291 155.73711,78.2049215 156.708929,79.2173913 C155.946429,89.4782609 147.994643,80.0652174 148.866071,75.1521739 C149.519643,71.0869565 158.103214,67.2391304 157.9725,63.2608696 C157.616423,61.1242582 155.785507,59.5439021 153.615357,59.5 C152.852857,59.6304348 151.2625,61.673913 150.805,62.326087 C147.624286,66.673913 146.970714,68.8478261 143.898929,72.9782609 C137.167143,61.4130435 129.934286,48.9565217 112.5275,47.6086957 M87.3214286,72.2391304 C83.2914063,73.5294089 79.6305579,75.7659521 76.6464286,78.7608696 C81.2867857,80.1956522 86.5807143,80.9347826 90.7635714,82.826087 C89.1514286,92.5 91.3953571,104.565217 98.6064286,106.73913 C107.930714,109.391304 112.135357,98.0434783 115.860714,92.0217391 C117.1025,92.5652174 118.475,92.9565217 119.629643,93.5869565 C110.521921,84.2379335 99.5024837,76.9567809 87.3214286,72.2391304 M16.1692857,119.195652 C16.2182898,121.656368 17.2356202,123.999033 19.0014286,125.717391 C21.4988654,123.918343 23.5364076,121.557465 24.9489286,118.826087 C22.1052715,117.845127 18.9966872,117.96145 16.2346429,119.152174 M107.778214,173.913043 C101.896071,175.782609 94.7067857,178.543478 88.0185714,177.652174 C80.7421429,176.695652 71.8971429,171.282609 65.1,167.652174 C42.835,155.76087 24.5132143,140.891304 12.4003571,120.130435 C10.2217857,122.913043 2.35714286,131.76087 2.35714286,135.152174 C2.35714286,137.956522 5.36357143,143.478261 7.38964286,146.73913 C20.265,168.173913 40.5257143,181.521739 64.49,191.195652 C68.8471429,192.913043 72.9646429,195.130435 77.0385714,195.543478 C94.0587014,197.42985 111.248322,194.044816 126.274286,185.847826 C114.945714,189.565217 116.906429,173.391304 126.906071,177.152174 C126.906071,173.5 126.797143,170.173913 125.0325,168.456522 C119.215714,169.195652 113.856429,172.152174 107.778214,174.086957 M159.541071,125.76087 C156.578214,124.043478 154.356071,126.869565 152.33,127.934783 C149.952636,127.370211 147.446947,127.827685 145.423929,129.195652 C142.330357,127.673913 139.585357,129.673913 136.949286,131.065217 C134.422143,129.673913 131.524643,132.565217 128.801429,133.565217 C126.078214,134.565217 122.919286,134.391304 123.463929,137.021739 C124.161071,140.434783 128.235,137.130435 129.106429,135.456522 C129.6075,136.304348 129.3025,137.956522 130.043214,138.586957 C133.616071,138.782609 135.010357,135.195652 136.578929,134.5 C136.464182,136.053296 136.589089,137.614964 136.949286,139.130435 C141.872857,139.347826 142.482857,135.282609 144.792143,132.869565 C145.554643,133.673913 144.661429,136.152174 145.423929,136.956522 C148.757143,136.717391 149.781071,134.23913 151.371429,132.26087 C151.72,134.434783 150.587143,135 150.761429,136.956522 C154.791786,138.782609 157.536786,134.782609 159.214286,132.26087 C158.800357,133.195652 158.713214,134.826087 159.541071,135.391304 C165.357857,135.391304 165.793571,129.934783 166.447143,124.73913 C164.268571,122.847826 161.087857,124.326087 159.541071,125.673913 M119.39,183.043478 C120,180.108696 122.941071,179.304348 125.664286,178.26087 C122.483571,177.391304 118.300714,179.630435 119.39,182.956522" id="Shape" fill="#000000" fill-rule="nonzero"></path>
                <path d="M143.964286,72.8695652 C147.036071,68.7391304 147.689643,66.5652174 150.870357,62.2173913 C151.327857,61.5869565 152.918214,59.5217391 153.680714,59.3913043 C155.850864,59.4352064 157.68178,61.0155626 158.037857,63.1521739 C158.168571,67.1304348 149.585,70.9782609 148.931429,75.0434783 C148.147143,79.9565217 156.011786,89.3913043 156.774286,79.1304348 C155.811162,78.1032606 154.394325,77.6292674 153.005357,77.8695652 C152.526071,75.9565217 155.619643,75.0869565 156.1425,73.173913 C156.011786,71.5217391 154.704643,69.1521739 155.8375,68.173913 C159.214286,71.7391304 159.65,78.0652174 159.846071,84.7826087 C164.769643,85.7173913 168.843571,86.326087 172.394643,89.4782609 C176.584198,93.8306047 178.749972,99.7382544 178.363929,105.76087 C177.862857,112.652174 171.828214,124.5 164.246786,122.652174 C160.761071,121.826087 159.889643,116.782609 158.909286,112.956522 C158.39837,111.416729 157.976485,109.848931 157.645714,108.26087 C157.907143,105.304348 162.765357,101.456522 163.92,97.6086957 C164.915122,94.5128766 164.329271,91.1270773 162.351429,88.5434783 C152.700357,83.5434783 134.422143,90.1086957 136.644286,101.065217 C137.428571,104.543478 140.086429,106.521739 143.528571,107.913043 C144.291071,106.586957 142.657143,105.195652 143.528571,103.217391 C144.169228,102.076233 145.331111,101.322243 146.636266,101.200689 C147.941422,101.079135 149.223065,101.60555 150.064286,102.608696 C150.064286,105.065217 148.343214,105.891304 146.927143,106.956522 C150.696071,107.369565 154.791786,107.456522 156.970357,109.456522 C161.131429,116.978261 157.9725,124.304348 150.696071,126.369565 C145.554643,127.826087 140.021071,127.652174 134.683571,129.195652 C125.83191,131.992245 117.54821,136.335016 110.218214,142.021739 C106.950357,144.434783 95.6653571,151.565217 101.111786,157.369565 C102.73027,158.593999 104.756942,159.154031 106.776071,158.934783 C117.538214,158.130435 118.257143,141.695652 129.977857,140.152174 C133.8775,139.630435 138.125714,140.978261 141.589643,141.086957 C150.783214,141.347826 164.660714,138.608696 166.381786,131.065217 C169.148571,133.23913 170.150714,141.934783 167.318571,144.108696 C163.963571,146.891304 159.214286,144.108696 155.075,144.413043 C146.796429,144.847826 145.728929,154.217391 138.4525,154.130435 C133.528929,154.130435 131.285,149.913043 125.381071,151.956522 C117.538214,154.586957 115.2725,163.73913 107.495,164.782609 C96.6021429,166.23913 91.5914286,156.913043 92.4410714,146.630435 C93.465,134.173913 101.307857,123.673913 108.126786,115.630435 C111.793244,111.576533 115.669104,107.716216 119.738571,104.065217 C123.638214,100.304348 130.871071,93.9565217 130.631429,87.4565217 C130.631429,83.1086957 126.622857,77.0434783 124.095714,72.4347826 C120,65.2173913 115.904286,56.3695652 108.715,53.7608696 C100.588929,50.8043478 90.3932143,52.3695652 81.1125,52.1956522 C91.1450754,48.5344947 101.816405,46.937218 112.483929,47.5 C129.9125,48.8478261 137.123571,61.3043478 143.855357,72.8695652 M136.644286,90.3913043 C137.983643,89.0399001 139.584739,87.9747853 141.35,87.2608696 C143.201786,86.4347826 145.511071,86.4565217 146.9925,85.0869565 C142.373929,82.9130435 135.358929,86.7391304 136.644286,90.4130435" id="Shape" fill="#FFFFFF"></path>
                <path d="M119.695,93.4782609 C118.540357,92.8478261 117.167857,92.4565217 115.926071,91.9130435 C112.200714,97.826087 107.996071,109.304348 98.6717857,106.630435 C91.4607143,104.456522 89.2167857,92.5 90.8289286,82.7173913 C86.6460714,80.8478261 81.3521429,80.0869565 76.7117857,78.6521739 C79.6959151,75.6572564 83.3567634,73.4207133 87.3867857,72.1304348 C99.5678408,76.8480852 110.587278,84.1292378 119.695,93.4782609 M99.6085714,85.3478261 C97.43,85.7173913 95.6653571,89.326087 95.5346429,92.5434783 C95.2078571,100.347826 104.466786,103.630435 108.083214,96.8913043 C107.255357,95.0217391 104.641071,94.9130435 103.726071,93.1521739 C105.621429,92.173913 107.865357,92.6956522 109.673571,92.1956522 C110.24,91.6086957 109.913214,90.1304348 110.000357,89.0652174 C106.296786,88.5434783 102.723929,84.7173913 99.6303571,85.326087" id="Shape" fill="#FFFFFF"></path>
                <path d="M146.9925,85.0652174 C145.511071,86.4565217 143.201786,86.4347826 141.35,87.2391304 C139.584739,87.9530462 137.983643,89.018161 136.644286,90.3695652 C135.358929,86.6956522 142.373929,82.8478261 146.9925,85.0434783" id="Shape" fill="#000000" fill-rule="nonzero"></path>
                <path d="M24.9489286,118.869565 C23.5364076,121.600943 21.4988654,123.961822 19.0014286,125.76087 C17.2356202,124.042512 16.2182898,121.699846 16.1692857,119.23913 C18.9313301,118.048406 22.0399144,117.932084 24.8835714,118.913043" id="Shape" fill="#8A6E4B"></path>
                <path d="M125.0325,168.347826 C126.797143,170.130435 127.015,173.456522 126.906071,177.043478 C116.906429,173.347826 114.945714,189.521739 126.274286,185.73913 C111.272279,194.011219 94.0812726,197.47243 77.0385714,195.652174 C72.9646429,195.217391 68.7817857,193 64.49,191.304348 C40.5257143,181.652174 20.265,168.282609 7.38964286,146.847826 C5.36357143,143.478261 2.35714286,137.956522 2.35714286,135.152174 C2.35714286,131.76087 10.2217857,122.913043 12.4003571,120.130435 C24.5132143,140.891304 42.9003571,155.76087 65.1,167.717391 C71.8971429,171.347826 80.7421429,176.76087 88.0185714,177.717391 C94.7067857,178.608696 101.896071,175.847826 107.778214,173.978261 C113.660357,172.108696 119.215714,169.086957 125.0325,168.347826 M6.12607143,137.913043 C6.25678571,144.23913 16.4525,147.586957 17.7378571,141.043478 C18.2804473,138.699048 17.5501478,136.24247 15.8141525,134.572531 C14.0781572,132.902592 11.5912125,132.264345 9.26321429,132.891304 C7.17535622,133.634698 5.87567174,135.715151 6.12607143,137.913043 M23.3803571,153.130435 C21.0057143,159.826087 33.4017857,166.673913 35.2971429,159.086957 C35.8719662,156.667822 35.1302549,154.12525 33.3440854,152.391914 C31.5579159,150.658579 28.9902088,149.989623 26.5828571,150.630435 C25.2154858,150.95449 24.064837,151.871446 23.4457143,153.130435 M43.2053571,171.304348 C42.0942857,177.282609 50.8739286,182.173913 55.1439286,176.608696 C57.6275,167.913043 44.4689286,164.673913 43.2053571,171.304348 M67.9321429,185.869565 C68.2153571,193.086957 80.0232143,193.913043 80.4807143,187.434783 C80.8075,182.717391 76.1235714,180.195652 71.7664286,181.173913 C70.6065661,181.220867 69.5225788,181.761931 68.7893224,182.659912 C68.0560659,183.557893 67.7439603,184.726553 67.9321429,185.869565 M94.9028571,188.369565 C96.1664286,194.086957 108.2575,193.065217 107.451429,185.869565 C107.079619,183.299018 104.719861,181.494382 102.135714,181.804348 C97.6478571,181.804348 93.8135714,183.369565 94.9028571,188.326087" id="Shape" fill="#8A6E4B"></path>
                <path d="M166.447143,124.826087 C165.771786,130.021739 165.357857,135.434783 159.541071,135.478261 C158.713214,134.913043 158.800357,133.304348 159.214286,132.347826 C157.536786,134.847826 154.857143,138.869565 150.761429,137.043478 C150.587143,135.086957 151.72,134.456522 151.371429,132.347826 C149.824643,134.326087 148.757143,136.695652 145.423929,137.043478 C144.661429,136.23913 145.554643,133.76087 144.792143,132.956522 C142.482857,135.369565 141.872857,139.478261 136.949286,139.217391 C136.604251,137.677421 136.501355,136.093269 136.644286,134.521739 C135.010357,135.217391 133.616071,138.869565 130.108571,138.608696 C129.367857,137.978261 129.672857,136.434783 129.171786,135.478261 C128.300357,137.152174 124.226429,140.456522 123.529286,137.043478 C122.984643,134.413043 126.187143,134.565217 128.866786,133.586957 C131.546429,132.608696 134.4875,129.695652 137.014643,131.086957 C139.650714,129.695652 142.395714,127.695652 145.489286,129.217391 C147.512304,127.849424 150.017993,127.39195 152.395357,127.956522 C154.421429,126.869565 156.7525,124.043478 159.606429,125.782609 C161.131429,124.434783 164.399286,122.956522 166.5125,124.847826" id="Shape" fill="#FFFFFF"></path>
                <path d="M9.26321429,132.956522 C11.5912125,132.329563 14.0781572,132.96781 15.8141525,134.637749 C17.5501478,136.307688 18.2804473,138.764265 17.7378571,141.108696 C16.4525,147.630435 6.25678571,144.304348 6.12607143,137.978261 C5.87567174,135.780368 7.17535622,133.699916 9.26321429,132.956522 M15.2325,142.043478 C18.4132143,139.282609 14.5353571,134.130435 10.8753571,134.217391 C12.7489286,136.391304 15.7117857,137.543478 15.2325,142.043478" id="Shape" fill="#000000" fill-rule="nonzero"></path>
                <path d="M10.8317857,134.217391 C14.5353571,134.217391 18.4132143,139.282609 15.1889286,142.043478 C15.6246429,137.543478 12.6617857,136.413043 10.8317857,134.217391" id="Shape" fill="#FFFFFF"></path>
                <path d="M26.5175,150.804348 C28.9248517,150.163536 31.4925587,150.832492 33.2787283,152.565827 C35.0648978,154.299163 35.8066091,156.841735 35.2317857,159.26087 C33.3364286,166.847826 20.9403571,160 23.315,153.304348 C23.9413503,152.051169 25.0888515,151.136721 26.4521429,150.804348 M27.7157143,152.695652 C30.5042857,153.869565 33.1403571,155.195652 33.0532143,159.217391 C36.0378571,156.173913 30.3735714,151.021739 27.7157143,152.695652" id="Shape" fill="#000000" fill-rule="nonzero"></path>
                <path d="M33.1185714,159.26087 C33.1185714,155.195652 30.5696429,153.869565 27.7810714,152.73913 C30.4389286,151.108696 36.1032143,156.26087 33.1185714,159.26087" id="Shape" fill="#FFFFFF"></path>
                <path d="M55.0785714,176.782609 C50.7214286,182.391304 42.0071429,177.456522 43.14,171.478261 C44.4035714,164.956522 57.5621429,168.086957 55.0785714,176.782609 M46.6039286,170.26087 C50.7867857,170.26087 52.3989286,172.608696 53.815,175.26087 C54.9914286,171.586957 49.7628571,168.586957 46.6039286,170.26087" id="Shape" fill="#000000" fill-rule="nonzero"></path>
                <path d="M53.815,175.217391 C52.3989286,172.565217 50.7867857,170.108696 46.6039286,170.217391 C49.7628571,168.543478 54.9914286,171.543478 53.815,175.217391" id="Shape" fill="#FFFFFF"></path>
                <path d="M125.664286,178.26087 C122.941071,179.217391 120.087143,180.021739 119.39,182.956522 C118.300714,179.630435 122.483571,177.391304 125.664286,178.26087" id="Shape" fill="#FFFFFF"></path>
                <path d="M71.7010714,181.173913 C76.0582143,180.195652 80.8075,182.717391 80.4153571,187.434783 C79.9578571,193.956522 68.15,193.108696 67.8667857,185.869565 C67.6794528,184.737292 67.9831034,183.578922 68.7020463,182.683202 C69.4209892,181.787481 70.4874947,181.238795 71.6357143,181.173913 M71.3089286,182.434783 C73.2696429,182.76087 77.4960714,183.543478 78.5417857,185.869565 C78.0625,182.978261 74.5767857,181.521739 71.3089286,182.434783" id="Shape" fill="#000000" fill-rule="nonzero"></path>
                <path d="M102.135714,181.804348 C104.719861,181.494382 107.079619,183.299018 107.451429,185.869565 C108.2575,193.065217 96.1664286,194.086957 94.9028571,188.369565 C93.8135714,183.369565 97.6478571,181.695652 102.135714,181.847826 M95.6,186.543478 C97.5825,184.173913 103.312143,182.913043 105.948214,185.586957 C104.5975,181.565217 96.2535714,182.326087 95.6,186.543478" id="Shape" fill="#000000" fill-rule="nonzero"></path>
                <path d="M78.6071429,185.869565 C77.5614286,183.543478 73.335,182.76087 71.3742857,182.434783 C74.6421429,181.5 78.1278571,182.978261 78.6071429,185.869565" id="Shape" fill="#FFFFFF"></path>
                <path d="M105.882857,185.543478 C103.246786,182.869565 97.5171429,184.130435 95.5346429,186.5 C96.1882143,182.282609 104.532143,181.521739 105.882857,185.543478" id="Shape" fill="#FFFFFF"></path>
                <path d="M109.978571,89.1304348 C109.978571,90.1956522 110.218214,91.673913 109.651786,92.2608696 C107.843571,92.7608696 105.599643,92.2608696 103.704286,93.2173913 C104.641071,94.9782609 107.255357,95.0869565 108.061429,96.9565217 C104.466786,103.673913 95.1860714,100.391304 95.5128571,92.6086957 C95.6435714,89.3913043 97.4517857,85.7826087 99.5867857,85.4130435 C102.723929,84.7826087 106.275,88.6086957 109.978571,89.1304348" id="Shape" fill="#000000" fill-rule="nonzero"></path>
            </g>
        </g>
    </g>
</svg>