<?xml version="1.0" encoding="UTF-8"?>
<svg width="200px" height="200px" viewBox="0 0 200 200" version="1.1" xmlns="http://www.w3.org/2000/svg" xmlns:xlink="http://www.w3.org/1999/xlink">
    <!-- Generator: Sketch 54.1 (76490) - https://sketchapp.com -->
    <title>washington-st</title>
    <desc>Created with Sketch.</desc>
    <g id="washington-st" stroke="none" stroke-width="1" fill="none" fill-rule="evenodd">
        <g id="washington-st_BGL" fill="#A80C30">
            <g id="washington-st">
                <g id="g10" transform="translate(99.507436, 99.968211) scale(-1, 1) rotate(-180.000000) translate(-99.507436, -99.968211) translate(0.000000, 0.231536)" fill-rule="nonzero">
                    <g id="g12">
                        <path d="M119.374706,0.200363856 C119.374706,0.200363856 129.287393,4.50677976 134.701994,21.2176952 C139.475557,11.0353288 138.230143,0.578828917 138.230143,0.578828917 C133.852165,-0.443860261 119.374706,0.200363856 119.374706,0.200363856" id="path14"></path>
                        <path d="M172.542402,95.7251233 C172.542402,95.7251233 178.586868,62.1630198 157.209877,61.0078554 C136.581462,59.908971 126.852777,91.5775025 126.852777,91.5775025 C126.852777,91.5775025 131.826753,29.69143 160.74501,33.7682735 C193.334219,38.3626434 172.542402,95.7251233 172.542402,95.7251233" id="path16"></path>
                        <path d="M15.4593705,8.196823 C15.4743839,8.196823 15.494844,8.196823 15.5016524,8.196823 C39.6214169,13.7972866 58.0774276,42.5159635 63.5150725,54.0480165 L66.9534908,61.3391237 L69.0319742,53.5194121 C69.1395121,53.0951751 71.3779056,44.4750767 71.3779056,33.1003939 C71.3779056,31.8550747 71.3422925,30.5471351 71.2780491,29.2280819 C79.6031554,28.9150156 85.5400832,30.6375748 89.2295396,34.5474662 C94.5198437,40.1546977 96.1252303,50.7435268 94.1364782,66.9286519 C93.1833017,74.6760543 90.3737005,87.0038635 87.8888078,97.8776545 C86.6203499,103.432275 85.419976,108.695878 84.6944446,112.413919 C80.0437813,136.205746 85.8103245,150.968555 91.4742179,159.159786 C92.3662933,160.451019 93.3320391,161.668519 94.3519031,162.826177 C77.6734094,157.104854 63.6830131,148.180203 49.2422147,133.471537 L59.4003527,121.449705 L63.5478925,125.415307 C67.4660414,110.486864 64.6470132,96.7338885 64.6470132,96.7338885 C59.3144621,105.044803 52.9955654,111.787715 52.9955654,111.787715 L55.7709499,116.510246 L46.6183608,127.357678 L45.5461245,128.565561 C34.3011558,112.795055 30.6501058,99.8827179 30.6501058,99.8827179 L38.636817,92.4469925 L43.3000496,88.138012 L44.8506199,92.7184188 C53.4267642,76.3245591 45.5883715,60.9871957 45.5883715,60.9871957 C44.1809523,66.5849165 38.5264859,74.8498811 38.5264859,74.8498811 L40.7575474,82.3522162 L28.8811778,93.3346489 C16.5245539,53.9326069 0,41.177711 0,41.177711 C0,41.177711 17.8802293,44.4711585 27.8228027,47.88429 C27.8228027,47.88429 27.5500476,27.120076 15.4593705,8.196823" id="path18"></path>
                        <path d="M113.087582,137.20062 C118.847142,141.319032 128.628549,144.483178 137.797897,143.764005 C140.136845,143.57878 142.104998,144.214601 139.598109,145.55606 C132.727208,149.253084 116.712446,148.013144 111.049949,144.057516 C101.978712,137.75024 103.503445,126.508848 103.732836,126.204295 C105.538285,129.448943 108.607303,133.989099 113.087582,137.20062 L113.087582,137.20062 Z M195.74579,150.277166 L167.209502,149.059666 C167.230102,145.629793 166.786682,142.145778 165.695592,138.87299 C168.357852,126.990434 166.52098,120.520373 166.52098,120.520373 C161.747416,131.874325 158.087987,135.01603 158.087987,135.01603 C131.892393,146.90856 117.178909,120.03202 118.744842,102.71987 C120.02936,88.4607314 125.093416,69.57203 129.051368,39.928153 C132.376662,14.993913 120.006317,4.19371346 105.751265,1.72674818 C105.440174,1.67109155 105.144445,1.61264942 104.823926,1.56673493 C104.751652,1.5597783 104.669602,1.54586147 104.601518,1.54586147 C102.296437,1.23279517 99.8359848,1.11452528 97.2351747,1.18131324 C97.1436977,1.18131324 97.0539664,1.18131324 96.9705198,1.19105181 C96.6912007,1.20496508 96.4045494,1.2188819 96.1196439,1.23279517 C95.0215707,1.3093217 93.9280363,1.41785301 92.8407867,1.56673493 C81.7608955,3.13207711 56.9468834,7.71680464 31.3211001,8.36381069 C46.3959529,17.3384373 58.1877586,32.8777674 64.768517,43.8837807 C65.1490893,40.8368253 65.4710046,37.1145101 65.4710046,33.023846 C65.4710046,30.9645687 65.3889546,28.8245758 65.1979702,26.6191842 L64.9444881,23.6345998 L67.8878133,23.3702264 C79.6824122,22.3127327 88.0591925,24.6224916 93.4902036,30.3662555 C100.187927,37.4692877 102.259776,49.3130179 99.998339,67.6798828 C99.0029155,75.7264952 96.1496707,88.2142393 93.6413851,99.2454717 C92.3827033,104.748443 91.1921056,109.963602 90.4868248,113.581194 C86.2506012,135.280332 91.308023,148.44593 96.3008522,155.691087 C100.215161,161.355417 105.610558,165.490927 111.527236,167.47355 C111.629536,167.507033 111.737074,167.525199 111.839375,167.545859 L121.570504,198.04569 L124.623112,198.04569 L118.076571,168.73985 C119.606541,168.993109 121.14524,169.254562 122.717807,169.498205 L131.108204,196.530405 L134.146847,196.530405 L128.650545,170.344185 C137.330037,171.501843 146.785688,172.377032 157.242348,173.175638 C158.947242,172.452191 160.765261,170.470637 162.377281,167.679435 L189.84273,176.302027 L190.856309,173.289623 L164.620912,162.877827 C164.829703,162.340673 165.027321,161.774311 165.214116,161.189783 L193.902982,164.828391 L194.381666,161.678493 L166.527614,155.998489 C166.625725,155.482352 166.714409,154.953748 166.789476,154.419444 L195.764644,153.480138 L195.74579,150.277166 L195.74579,150.277166 Z" id="path20"></path>
                    </g>
                </g>
            </g>
        </g>
    </g>
</svg>