<?xml version="1.0" encoding="UTF-8"?>
<svg width="200px" height="200px" viewBox="0 0 200 200" version="1.1" xmlns="http://www.w3.org/2000/svg" xmlns:xlink="http://www.w3.org/1999/xlink">
    <!-- Generator: Sketch 63.1 (92452) - https://sketch.com -->
    <title>yale</title>
    <desc>Created with Sketch.</desc>
    <g id="yale" stroke="none" stroke-width="1" fill="none" fill-rule="evenodd">
        <g id="yale_BGL">
            <g id="yale_bgl" transform="translate(0.000000, 8.000000)">
                <path d="M191.970393,33.4410876 L168.907553,33.4410876 L114.983082,110.453172 L114.983082,150.715408 L145.859819,150.715408 L145.859819,175.830816 L53.9649547,175.830816 L53.9649547,150.715408 L84.8429003,150.715408 L84.8429003,110.453172 L30.9178248,33.4410876 L7.85498489,33.4410876 L7.85498489,8.32507553 L82.2912387,8.32507553 L82.2912387,33.4410876 L61.5782477,33.4410876 L99.9123867,88.1879154 L138.24713,33.4410876 L117.533535,33.4410876 L117.533535,8.32507553 L191.970393,8.32507553 L191.970393,33.4410876 Z M113.606042,4.39758308 L113.606042,37.3685801 L130.702115,37.3685801 L99.9123867,81.3401813 L69.1232628,37.3685801 L86.2187311,37.3685801 L86.2187311,4.39758308 L3.92749245,4.39758308 L3.92749245,37.3685801 L28.873716,37.3685801 L80.9154079,111.691843 L80.9154079,146.787915 L50.0374622,146.787915 L50.0374622,179.758308 L149.787311,179.758308 L149.787311,146.787915 L118.90997,146.787915 L118.90997,111.691843 L170.951662,37.3685801 L195.897885,37.3685801 L195.897885,4.39758308 L113.606042,4.39758308 L113.606042,4.39758308 Z" id="Fill-1" fill="#FFFFFE"></path>
                <path d="M114.983082,110.453172 L114.983082,150.715408 L145.859819,150.715408 L145.859819,175.830816 L53.9649547,175.830816 L53.9649547,150.715408 L84.8429003,150.715408 L84.8429003,110.453172 L30.9178248,33.4410876 L7.85498489,33.4410876 L7.85498489,8.32507553 L82.2912387,8.32507553 L82.2912387,33.4410876 L61.5782477,33.4410876 L99.9123867,88.1879154 L138.24713,33.4410876 L117.533535,33.4410876 L117.533535,8.32507553 L191.970393,8.32507553 L191.970393,33.4410876 L168.907553,33.4410876 L114.983082,110.453172 Z M195.897885,37.3685801 L170.951662,37.3685801 L118.90997,111.691843 L118.90997,146.787915 L149.787311,146.787915 L149.787311,179.758308 L50.0374622,179.758308 L50.0374622,146.787915 L80.9154079,146.787915 L80.9154079,111.691843 L28.873716,37.3685801 L3.92749245,37.3685801 L3.92749245,4.39758308 L86.2187311,4.39758308 L86.2187311,37.3685801 L69.1232628,37.3685801 L99.9123867,81.3401813 L130.702115,37.3685801 L113.606042,37.3685801 L113.606042,4.39758308 L195.897885,4.39758308 L195.897885,37.3685801 Z M109.67855,0.470090634 L109.67855,41.2960725 L123.157704,41.2960725 L99.9123867,74.4930514 L76.6676737,41.2960725 L90.1462236,41.2960725 L90.1462236,0.470090634 L0,0.470090634 L0,41.2960725 L26.829003,41.2960725 L76.9879154,112.929909 L76.9879154,142.860423 L46.1099698,142.860423 L46.1099698,183.685801 L153.714804,183.685801 L153.714804,142.860423 L122.837462,142.860423 L122.837462,112.929909 L172.99577,41.2960725 L199.825378,41.2960725 L199.825378,0.470090634 L109.67855,0.470090634 L109.67855,0.470090634 Z" id="Fill-3" fill="#111C2C"></path>
            </g>
        </g>
    </g>
</svg>