<?xml version="1.0" encoding="UTF-8"?>
<svg width="200px" height="200px" viewBox="0 0 200 200" version="1.1" xmlns="http://www.w3.org/2000/svg" xmlns:xlink="http://www.w3.org/1999/xlink">
    <!-- Generator: Sketch 54.1 (76490) - https://sketchapp.com -->
    <title>youngstown-st</title>
    <desc>Created with Sketch.</desc>
    <g id="youngstown-st" stroke="none" stroke-width="1" fill="none" fill-rule="evenodd">
        <g id="youngstown-st_BGL">
            <g id="youngstown-st" transform="translate(0.000000, 37.000000)">
                <g id="g10" transform="translate(99.999998, 62.768030) scale(-1, 1) rotate(-180.000000) translate(-99.999998, -62.768030) ">
                    <g id="g12" transform="translate(0.000000, 0.350877)">
                        <path d="M193.419488,125.060426 L117.081868,125.060426 L117.003506,89.0553584 C117.003506,89.0553584 121.179724,89.0553584 122.50604,89.0553584 C116.44873,83.856918 113.230017,81.0935652 110.229627,78.5181267 C107.261596,81.134111 104.13411,83.8900564 98.2155921,89.1068204 C98.6116934,89.1068204 106.663935,89.1068204 106.663935,89.1068204 L106.585572,125.060426 L0,125.060426 L0.078277191,89.0553584 C0.078277191,89.0553584 17.3512276,89.0553584 20.8645609,89.0553584 C24.1084984,86.2370349 69.8845986,46.4549696 73.8113042,43.0421042 C73.8113042,41.5582836 73.8113042,40.8089658 73.8113042,38.5980107 C68.2592576,38.5980107 55.0686146,38.5980107 55.0686146,38.5980107 L55.0686146,0.0385294805 L144.799996,0.0385294805 L144.799996,38.5797261 C144.799996,38.5797261 131.926702,38.6159834 126.516566,38.6307593 C126.516566,41.1922017 126.516566,42.1524356 126.516566,43.8323576 C130.497463,47.2444433 176.058085,86.2904462 179.284986,89.0553584 C182.752432,89.0553584 199.803504,89.0553584 199.803504,89.0553584 L199.803504,125.060426 L193.419488,125.060426" id="path14" fill="#110E0C"></path>
                        <polyline id="path16" fill="#FFFFFF" points="6.44826495 95.4393738 23.2509546 95.4393738 80.1953196 45.9512659 80.1953196 32.2139953 61.4522402 32.2139953 61.4522402 6.42253395 138.416371 6.42253395 138.416371 32.2139953 120.132551 32.2642487 120.132551 46.7691996 176.923972 95.4393738 193.419488 95.4393738 193.419488 118.67641 123.452628 118.67641 123.401167 95.4393738 139.743466 95.4393738 110.173876 70.0576981 81.3189063 95.490446 100.266274 95.490446 100.215202 118.67641 6.39773863 118.67641 6.44826495 95.4393738"></polyline>
                        <path d="M126.892394,115.229237 C126.883428,111.10682 126.865494,103.023779 126.856527,98.8865472 C131.153213,98.8865472 149.052628,98.8865472 149.052628,98.8865472 L110.144247,65.4884974 L72.1945401,98.9380092 C72.1945401,98.9380092 92.1914207,98.9380092 96.8113036,98.9380092 C96.8019469,103.069393 96.784403,111.112668 96.7754362,115.229237 C90.6350855,115.229237 16.0185181,115.229237 9.85259235,115.229237 C9.86155921,111.092395 9.87922003,103.008964 9.88822587,98.8865472 C14.2392979,98.8865472 24.5396095,98.8865472 24.5396095,98.8865472 L83.642493,47.522416 L83.642493,28.766432 C83.642493,28.766432 69.4916162,28.766432 64.8994136,28.766432 C64.8994136,24.3906817 64.8994136,14.2460035 64.8994136,9.86978533 C70.8955148,9.86978533 128.973486,9.86978533 134.968418,9.86978533 C134.968418,14.2490445 134.968418,24.4077577 134.968418,28.7759057 C130.435474,28.7882254 116.684987,28.826432 116.684987,28.826432 L116.684987,48.3551645 L175.648729,98.8865472 C175.648729,98.8865472 185.658085,98.8865472 189.971925,98.8865472 C189.971925,103.015982 189.971925,111.099802 189.971925,115.229237 C184.062763,115.229237 132.78947,115.229237 126.892394,115.229237" id="path18" fill="#E51636"></path>
                    </g>
                </g>
            </g>
        </g>
    </g>
</svg>