<?xml version="1.0" encoding="UTF-8"?>
<svg width="200px" height="200px" viewBox="0 0 200 200" version="1.1" xmlns="http://www.w3.org/2000/svg" xmlns:xlink="http://www.w3.org/1999/xlink">
    <!-- Generator: Sketch 54.1 (76490) - https://sketchapp.com -->
    <title>alabama</title>
    <desc>Created with Sketch.</desc>
    <g id="alabama" stroke="none" stroke-width="1" fill="none" fill-rule="evenodd">
        <g id="alabama_BGL">
            <g id="alabama">
                <g id="g10" transform="translate(99.861685, 99.922547) scale(-1, 1) rotate(-180.000000) translate(-99.861685, -99.922547) translate(0.000000, 0.060863)" fill-rule="nonzero">
                    <g id="g12">
                        <path d="M99.6846448,8.1310648 C49.1204414,8.1310648 8.12757933,49.1204414 8.12757933,99.6846448 C8.12757933,150.248959 49.1204414,191.239276 99.6846448,191.239276 C150.24232,191.239276 191.238169,150.248959 191.238169,99.6846448 C191.238169,49.1204414 150.24232,8.1310648 99.6846448,8.1310648 Z M99.6846448,195.304559 C46.9614373,195.304559 4.0646638,152.412168 4.0646638,99.6868578 C4.0646638,46.9638163 46.9614373,4.06746878 99.6846448,4.06746878 C152.405529,4.06746878 195.301793,46.9638163 195.301793,99.6868578 C195.301793,152.412168 152.405529,195.304559 99.6846448,195.304559 L99.6846448,195.304559 Z" id="path14" fill="#FFFFFF"></path>
                        <path d="M129.2686,66.6395557 C129.2686,66.6395557 110.42434,56.5355449 112.048683,82.7153506 L112.869707,93.2398317 L99.9640362,91.211616 C95.0113393,81.166803 85.8329162,64.2539403 72.2235113,64.5499292 C59.56791,63.751589 53.7426266,77.0638985 59.7825711,83.7300117 C62.2378961,86.7048388 64.3822944,85.2968167 62.9377578,83.2868582 C60.5803581,79.3698459 65.1302888,72.7728889 69.0273842,71.9712292 C80.6661114,69.2365128 86.3557378,82.910648 91.0993062,91.258089 C86.305392,91.5751014 84.7496521,97.2951566 86.1239259,100.676623 C87.2641749,103.892667 90.2008276,104.71701 90.2008276,104.71701 C89.4439812,103.195571 90.02932,97.6713669 94.4818787,98.5250321 C100.100689,108.023234 106.31701,117.196678 113.396954,126.054769 C106.541076,126.902348 95.2813254,125.182846 94.6456408,133.850066 C94.6356823,135.840661 95.7372037,138.140522 97.6940501,138.298752 C96.4619616,130.272196 113.998891,131.649236 116.868047,132.339692 C120.009402,132.807189 123.773718,135.707327 127.518116,138.569844 L133.038448,135.921988 C127.497645,126.08907 124.895709,114.175931 122.476345,102.984783 C122.476345,102.984783 132.403316,105.46943 130.396677,95.9977846 C130.037618,94.1670793 127.93416,92.4392785 126.782293,91.8533864 C126.782293,95.8008275 123.749928,94.6965398 121.479942,94.2201913 C121.303455,93.3316712 121.027936,90.3861665 120.948268,89.4804957 C120.728628,86.9941887 120.40221,80.468601 120.998061,75.8323632 C121.530841,71.6890715 126.526138,70.9692928 133.178973,74.4044241 C133.80138,74.7236496 134.423786,75.1557381 134.563205,74.0320867 C134.630149,70.6910079 131.887687,67.8284907 129.2686,66.6395557 L129.2686,66.6395557 Z M99.6846448,159.480494 C66.6589195,159.480494 39.8837058,132.709817 39.8837058,99.6846448 C39.8837058,66.6589195 66.6589195,39.8915066 99.6846448,39.8915066 C132.705944,39.8915066 159.481047,66.6589195 159.481047,99.6846448 C159.481047,132.709817 132.705944,159.480494 99.6846448,159.480494 L99.6846448,159.480494 Z" id="path16" fill="#FFFFFF"></path>
                        <path d="M113.969015,101.078836 C115.653109,108.045917 117.413552,115.868877 119.57676,122.763482 C111.73499,114.870813 109.07275,107.674686 104.206913,99.8899007 L113.969015,101.078836" id="path18" fill="#FFFFFF"></path>
                        <path d="M177.616593,125.621574 L177.663066,125.478835 L170.584228,121.773718 L169.764864,124.241767 L177.616593,125.621574 Z M163.421849,130.07026 L159.577313,128.802763 L161.621573,122.605806 L166.364588,123.46943 L167.425722,120.256152 L163.062237,118.245087 L165.058917,112.188656 L168.963205,113.476622 L168.533329,114.766249 L182.222955,122.463621 L179.440106,130.899582 L163.881047,128.694879 L163.421849,130.07026 L163.421849,130.07026 Z" id="path20" fill="#C1C4C6"></path>
                        <path d="M151.007465,156.295985 C150.345224,153.37759 149.659747,150.351863 148.994187,147.436787 L157.723924,149.722265 L150.183122,142.39723 L154.708157,137.737756 L157.656981,140.600273 L156.688793,141.59723 L164.812721,149.492112 L165.724477,148.641767 L168.650065,151.48492 L164.269982,155.992804 L154.960992,153.521988 L157.578419,162.88575 L153.094879,167.503177 L150.168738,164.661683 L151.114242,163.686303 L142.896815,155.70788 L141.952417,156.598613 L139.0899,153.820743 L143.635958,149.138032 L151.007465,156.295985" id="path22" fill="#C1C4C6"></path>
                        <path d="M127.924202,176.81604 L128.063621,176.762375 L126.553247,168.916732 L124.110094,169.816317 L127.924202,176.81604 Z M122.599167,166.670535 L125.773717,165.499858 L124.629596,160.832638 L130.609679,158.624616 L132.034851,162.478004 L130.758503,162.95048 L133.259194,178.452001 L124.928904,181.529733 L116.960993,167.979526 L115.602763,168.480217 L114.200827,164.682154 L120.322542,162.422679 L122.599167,166.670535 L122.599167,166.670535 Z" id="path24" fill="#C1C4C6"></path>
                        <path d="M95.432916,169.448405 L95.2431511,173.521434 L98.3828468,173.668045 L98.5726116,169.59225 L95.432916,169.448405 Z M94.9067749,180.886303 L97.9834,181.027381 L98.1515881,177.376482 L95.0755163,177.23651 L94.9067749,180.886303 Z M100.761823,175.86279 C102.320329,176.146054 103.325032,177.312305 103.588932,178.864726 C103.664728,181.165694 103.195571,185.409677 100.44979,185.254767 L87.8694307,184.584781 L88.0464708,180.784504 L89.4970932,180.788377 L90.022681,169.352693 L88.6063602,169.225445 L88.7911458,165.240936 L101.764866,165.895985 C103.3621,165.970674 104.037065,167.785335 104.02434,169.357119 L103.781464,173.430701 C103.352141,174.740245 102.196955,175.595016 100.761823,175.86279 L100.761823,175.86279 Z" id="path26" fill="#C1C4C6"></path>
                        <path d="M64.2716443,173.792527 L68.8442583,167.237617 L66.4990301,166.118391 L64.1349915,173.731116 L64.2716443,173.792527 Z M61.5203304,159.08658 L63.265282,155.433468 L69.1535252,158.247299 L67.6973704,162.840936 L70.7513122,164.298751 L73.2984767,160.225722 L79.0533867,162.973163 L77.2813259,166.679941 L76.0508971,166.096815 L66.684369,178.698197 L58.6699847,174.869705 L62.8293207,159.712859 L61.5203304,159.08658 L61.5203304,159.08658 Z" id="path28" fill="#C1C4C6"></path>
                        <polyline id="path30" fill="#C1C4C6" points="35.0551029 149.774823 43.5684636 142.115626 42.6570944 141.102624 45.7118661 138.354077 55.5347151 149.269153 49.9639268 154.279941 46.4466378 150.37344 48.9637609 148.108987 47.3262505 146.291006 38.8586989 153.909816 39.7476062 154.900134 36.7176754 157.627659 31.117067 151.408018 34.1044528 148.718668 35.0551029 149.774823"></polyline>
                        <path d="M29.1817973,123.019637 L22.1224337,126.717563 L22.173886,126.862514 L30.0447572,125.472749 L29.1817973,123.019637 Z M30.6509536,114.532777 L34.4679383,113.190592 L36.634024,119.345502 L32.3495981,121.555184 L33.4688235,124.747991 L38.1530834,123.678005 L40.2673296,129.693496 L36.3891554,131.054492 L35.9424611,129.773164 L20.4017699,132.032638 L17.4583121,123.651449 L31.1300684,115.898752 L30.6509536,114.532777 L30.6509536,114.532777 Z" id="path32" fill="#C1C4C6"></path>
                        <polyline id="path34" fill="#C1C4C6" points="177.243702 82.2257241 176.051448 78.3474393 178.5455 77.5795278 177.782568 75.0899013 173.762098 76.324756 174.803868 79.7156273 171.308986 80.7811875 170.208018 77.4129994 166.65947 78.5045624 167.425722 80.9941888 169.478834 80.3651432 170.590314 83.9988914 164.633468 85.8196382 161.08492 74.2511738 164.985335 73.0528336 165.318391 74.145503 176.444809 70.7297354 176.112305 69.6381725 180.043149 68.4331933 183.670811 80.2484074 177.243702 82.2257241"></polyline>
                        <path d="M169.072195,56.1228202 L159.195017,62.2091271 L160.535542,64.3900399 L170.41438,58.2987537 L169.072195,56.1228202 Z M173.822402,61.4312571 L162.17095,68.6163192 C160.839277,69.4384492 158.828765,69.5756552 158.096815,68.3900398 L152.568738,59.536928 L156.096815,57.3609944 L156.722541,58.378975 L166.626828,52.2726405 L166.084643,51.2707594 L169.531393,49.1431246 L174.96763,58.0824328 C175.619359,59.1352682 175.077174,60.6622391 173.822402,61.4312571 L173.822402,61.4312571 Z" id="path36" fill="#C1C4C6"></path>
                        <polyline id="path38" fill="#C1C4C6" points="160.266663 44.5941344 151.920328 52.6152131 152.674962 53.4007732 149.68575 56.268325 144.947714 51.3399157 147.936373 48.4679933 148.760716 49.3233736 157.15131 41.2625163 156.429872 40.5167348 159.354906 37.7083255 164.020466 42.563761 161.055598 45.4162091 160.266663 44.5941344"></polyline>
                        <polyline id="path40" fill="#C1C4C6" points="146.547714 32.5261403 140.141075 42.2406628 141.475515 43.1170114 143.246469 40.4270529 145.99889 42.2406628 141.971781 48.3413543 129.897645 40.3767072 133.887687 34.3308982 136.679941 36.1708981 134.939416 38.8098469 136.270536 39.6879105 142.677175 29.9740518 141.852832 29.4312026 144.118945 25.9960713 149.723924 29.6907323 147.456704 33.1280213 146.547714 32.5261403"></polyline>
                        <polyline id="path42" fill="#C1C4C6" points="123.743842 33.2546603 122.775654 37.2220738 117.460025 35.9247571 119.803593 26.3225996 113.189485 34.9487681 107.875516 33.6475787 108.856429 29.6205248 110.011616 29.9038443 112.770675 18.6008847 111.616595 18.3175652 112.587549 14.3242043 117.952971 15.6293219 115.549651 25.473305 122.196401 16.7301794 126.418807 17.6951586 122.698752 32.9354902 123.743842 33.2546603"></polyline>
                        <path d="M98.9670791,17.7625998 L96.4846449,17.8185334 L96.7535246,29.421908 L99.2354055,29.3644253 L98.9670791,17.7625998 Z M101.308988,33.4911195 L95.2044236,33.6369563 C93.8882411,33.6652827 92.2937736,32.5964031 92.2522799,30.8153796 L91.9214362,16.6634021 C91.8860281,15.0704284 93.0500668,13.8450896 94.3629299,13.8117839 L100.995295,13.6585889 C102.467494,13.6294326 103.422404,15.4456428 103.462238,17.2004422 L103.771505,30.452558 C103.80802,32.1133602 102.702625,33.4589203 101.308988,33.4911195 L101.308988,33.4911195 Z" id="path44" fill="#C1C4C6"></path>
                        <path d="M75.9977851,34.3308982 L74.7834006,29.7936369 C74.2760701,27.8937752 74.9001364,25.8201377 76.4907311,25.3941902 L80.7739952,24.2490174 L79.7244793,20.3352139 L77.3029026,20.9781461 L77.8019344,22.8485748 L73.5673564,23.9834019 L71.9878267,18.0824338 L80.499583,15.8024339 C81.8721971,15.4328627 83.4367891,16.5705113 83.8887946,18.2615763 L85.2464709,23.3339967 C85.7167337,25.0842594 85.1408001,26.9514793 83.69737,27.3415761 L79.2193618,28.542074 L80.1947421,32.1903173 L82.7159039,31.5114792 L82.2633451,29.8201929 L86.1327779,28.7850062 L87.6365123,34.4193076 L79.7621004,36.5294597 C78.2683245,36.9294597 76.4835389,36.140414 75.9977851,34.3308982" id="path46" fill="#C1C4C6"></path>
                        <path d="M68.1305654,41.4821013 L60.2688782,36.3202204 L61.2923913,45.7393073 L56.7087123,48.5848951 L54.5217137,45.0639546 L55.4876888,44.4642313 L49.3441205,34.5824611 L48.385227,35.1087128 L46.247855,31.6640656 L50.8940513,28.7757116 L56.4066376,37.638118 C56.221852,34.752309 56.0320871,31.7608844 55.8473015,28.8779523 L63.2254479,33.6912301 L57.5861673,24.6151031 L62.2074673,21.7388653 L64.4116166,25.2874129 L63.4257246,25.9031252 L69.5031795,35.6779521 L70.4165957,35.1789203 L72.6063606,38.7026823 L68.1305654,41.4821013" id="path48" fill="#C1C4C6"></path>
                        <polyline id="path50" fill="#C1C4C6" points="50.2502339 49.6790582 50.9999434 48.8868038 54.0067483 51.7427373 49.2943833 56.6987538 46.2903999 53.8457525 47.110151 52.9815201 38.6695979 44.9732216 37.9566242 45.725476 35.0164307 42.9333323 39.6561539 38.04697 42.6419906 40.8802203 41.8568731 41.7079381 50.2502339 49.6790582"></polyline>
                        <path d="M38.4537196,64.9322252 L39.790815,62.6926679 L36.4928898,60.7291824 L35.1601651,62.969293 L38.4537196,64.9322252 Z M36.1146879,57.8168727 C37.1088234,57.2343001 38.3780903,56.7219903 39.6963752,57.4473015 L42.5717278,59.0378962 C44.3503723,60.0105103 45.1154069,62.1466098 44.2740791,63.5612709 L39.2343005,72.0276607 L35.673858,69.9081587 L36.2039825,68.8990301 L26.2599164,62.9786983 L25.6212995,63.9230966 L22.1412443,61.8572599 L25.0803866,56.9112019 L31.9923643,61.0251714 L33.3253104,58.7850608 L28.0234018,55.6309806 C27.2871362,55.1867206 26.621908,54.3224883 27.0379523,53.62661 L29.3034571,49.8195285 L32.8395013,51.9225437 L32.307883,52.9350471 L34.7337751,54.4918935 C36.0051443,55.3079378 36.3941346,56.5156279 36.1146879,57.8168727 L36.1146879,57.8168727 Z" id="path52" fill="#C1C4C6"></path>
                        <path d="M24.5814102,76.1681862 L21.5752692,75.2896247 L20.8631807,77.7189469 L32.0297641,80.9798043 L32.7422398,78.5477159 L30.503955,77.8993065 L31.6087406,74.1040092 L37.7690724,75.9020728 L35.42058,83.9490989 C35.0081872,85.357121 33.2198609,86.1062219 31.5114792,85.6038706 L19.7841212,82.1825706 C17.7504837,81.5905927 15.8904007,80.0691543 16.3744947,78.4143825 L18.7305666,70.1311186 L25.7430146,72.1775916 L24.5814102,76.1681862" id="path54" fill="#C1C4C6"></path>
                        <path d="M99.6846448,4.06746878 C46.9614373,4.06746878 4.0646638,46.9638163 4.0646638,99.6868578 C4.0646638,152.412168 46.9614373,195.304559 99.6846448,195.304559 C152.405529,195.304559 195.301793,152.412168 195.301793,99.6868578 C195.301793,46.9638163 152.405529,4.06746878 99.6846448,4.06746878 Z M99.6846448,199.36929 C44.7166794,199.36929 0,154.652832 0,99.6846448 C0,44.7203308 44.7166794,0 99.6846448,0 C154.648959,0 199.36929,44.7203308 199.36929,99.6846448 C199.36929,154.652832 154.648959,199.36929 99.6846448,199.36929 L99.6846448,199.36929 Z" id="path56" fill="#231F20"></path>
                        <path d="M176.467492,14.0582016 C173.895985,14.0582016 171.825722,16.1417423 171.825722,18.7080493 C171.825722,21.287413 173.895985,23.3670257 176.467492,23.3670257 C179.046745,23.3670257 181.120881,21.287413 181.120881,18.7080493 C181.120881,16.1417423 179.046745,14.0582016 176.467492,14.0582016 Z M176.467492,24.6391142 C173.19059,24.6391142 170.543841,21.9860575 170.543841,18.7080493 C170.543841,15.4356843 173.19059,12.7768185 176.467492,12.7768185 C179.752693,12.7768185 182.402208,15.4356843 182.402208,18.7080493 C182.402208,21.9860575 179.752693,24.6391142 176.467492,24.6391142 L176.467492,24.6391142 Z" id="path58" fill="#231F20"></path>
                        <path d="M176.897921,19.3466662 L175.296261,19.3466662 L175.296261,20.8281599 L176.897921,20.8281599 C177.297368,20.8281599 177.646469,20.5017976 177.646469,20.0823231 C177.646469,19.6762374 177.297368,19.3466662 176.897921,19.3466662 Z M178.90456,20.0823231 C178.90456,21.2039829 177.99557,22.0995292 176.897921,22.0995292 L174.042043,22.0995292 L174.042043,15.3267493 L175.296261,15.3267493 L175.296261,18.0781185 L176.211337,18.0781185 L177.502624,15.3267493 L178.90456,15.3267493 L177.559055,18.1913688 C178.355182,18.4647298 178.90456,19.2137755 178.90456,20.0823231 L178.90456,20.0823231 Z" id="path60" fill="#231F20"></path>
                        <polyline id="path62" fill="#A21A34" points="68.8442583 167.237617 64.2716443 173.792527 64.1349915 173.731116 66.4990301 166.118391 68.8442583 167.237617"></polyline>
                        <polyline id="path64" fill="#A21A34" points="98.1515881 177.376482 97.9834 181.027381 94.9067749 180.886303 95.0755163 177.23651 98.1515881 177.376482"></polyline>
                        <polyline id="path66" fill="#A21A34" points="39.790815 62.6926679 38.4537196 64.9322252 35.1601651 62.969293 36.4928898 60.7291824 39.790815 62.6926679"></polyline>
                        <polyline id="path68" fill="#A21A34" points="177.663066 125.478835 177.616593 125.621574 169.764864 124.241767 170.584228 121.773718 177.663066 125.478835"></polyline>
                        <polyline id="path70" fill="#A21A34" points="128.063621 176.762375 127.924202 176.81604 124.110094 169.816317 126.553247 168.916732 128.063621 176.762375"></polyline>
                        <polyline id="path72" fill="#A21A34" points="95.432916 169.448405 98.5726116 169.59225 98.3828468 173.668045 95.2431511 173.521434 95.432916 169.448405"></polyline>
                        <polyline id="path74" fill="#A21A34" points="22.1224337 126.717563 29.1817973 123.019637 30.0447572 125.472749 22.173886 126.862514 22.1224337 126.717563"></polyline>
                        <polyline id="path76" fill="#A21A34" points="159.195017 62.2091271 169.072195 56.1228202 170.41438 58.2987537 160.535542 64.3900399 159.195017 62.2091271"></polyline>
                        <path d="M176.112305,69.6381725 L176.444809,70.7297354 L165.318391,74.145503 L164.985335,73.0528336 L161.08492,74.2511738 L164.633468,85.8196382 L170.590314,83.9988914 L169.478834,80.3651432 L167.425722,80.9941888 L166.65947,78.5045624 L170.208018,77.4129994 L171.308986,80.7811875 L174.803868,79.7156273 L173.762098,76.324756 L177.782568,75.0899013 L178.5455,77.5795278 L176.051448,78.3474393 L177.243702,82.2257241 L183.670811,80.2484074 L180.043149,68.4331933 L176.112305,69.6381725 Z M174.96763,58.0824328 L169.531393,49.1431246 L166.084643,51.2707594 L166.626828,52.2726405 L156.722541,58.378975 L156.096815,57.3609944 L152.568738,59.536928 L158.096815,68.3900398 C158.828765,69.5756552 160.839277,69.4384492 162.17095,68.6163192 L173.822402,61.4312571 C175.077174,60.6622391 175.619359,59.1352682 174.96763,58.0824328 L174.96763,58.0824328 Z M159.354906,37.7083255 L156.429872,40.5167348 L157.15131,41.2625163 L148.760716,49.3233736 L147.936373,48.4679933 L144.947714,51.3399157 L149.68575,56.268325 L152.674962,53.4007732 L151.920328,52.6152131 L160.266663,44.5941344 L161.055598,45.4162091 L164.020466,42.563761 L159.354906,37.7083255 Z M144.118945,25.9960713 L141.852832,29.4312026 L142.677175,29.9740518 L136.270536,39.6879105 L134.939416,38.8098469 L136.679941,36.1708981 L133.887687,34.3308982 L129.897645,40.3767072 L141.971781,48.3413543 L145.99889,42.2406628 L143.246469,40.4270529 L141.475515,43.1170114 L140.141075,42.2406628 L146.547714,32.5261403 L147.456704,33.1280213 L149.723924,29.6907323 L144.118945,25.9960713 Z M122.196401,16.7301794 L115.549651,25.473305 L117.952971,15.6293219 L112.587549,14.3242043 L111.616595,18.3175652 L112.770675,18.6008847 L110.011616,29.9038443 L108.856429,29.6205248 L107.875516,33.6475787 L113.189485,34.9487681 L119.803593,26.3225996 L117.460025,35.9247571 L122.775654,37.2220738 L123.743842,33.2546603 L122.698752,32.9354902 L126.418807,17.6951586 L122.196401,16.7301794 Z M103.462238,17.2004422 C103.422404,15.4456428 102.467494,13.6294326 100.995295,13.6585889 L94.3629299,13.8117839 C93.0500668,13.8450896 91.8860281,15.0704284 91.9214362,16.6634021 L92.2522799,30.8153796 C92.2937736,32.5964031 93.8882411,33.6652827 95.2044236,33.6369563 L101.308988,33.4911195 C102.702625,33.4589203 103.80802,32.1133602 103.771505,30.452558 L103.462238,17.2004422 Z M86.1327779,28.7850062 L82.2633451,29.8201929 L82.7159039,31.5114792 L80.1947421,32.1903173 L79.2193618,28.542074 L83.69737,27.3415761 C85.1408001,26.9514793 85.7167337,25.0842594 85.2464709,23.3339967 L83.8887946,18.2615763 C83.4367891,16.5705113 81.8721971,15.4328627 80.499583,15.8024339 L71.9878267,18.0824338 L73.5673564,23.9834019 L77.8019344,22.8485748 L77.3029026,20.9781461 L79.7244793,20.3352139 L80.7739952,24.2490174 L76.4907311,25.3941902 C74.9001364,25.8201377 74.2760701,27.8937752 74.7834006,29.7936369 L75.9977851,34.3308982 C76.4835389,36.140414 78.2683245,36.9294597 79.7621004,36.5294597 L87.6365123,34.4193076 L86.1327779,28.7850062 Z M69.5031795,35.6779521 L63.4257246,25.9031252 L64.4116166,25.2874129 L62.2074673,21.7388653 L57.5861673,24.6151031 L63.2254479,33.6912301 L55.8473015,28.8779523 C56.0320871,31.7608844 56.221852,34.752309 56.4066376,37.638118 L50.8940513,28.7757116 L46.247855,31.6640656 L48.385227,35.1087128 L49.3441205,34.5824611 L55.4876888,44.4642313 L54.5217137,45.0639546 L56.7087123,48.5848951 L61.2923913,45.7393073 L60.2688782,36.3202204 L68.1305654,41.4821013 L72.6063606,38.7026823 L70.4165957,35.1789203 L69.5031795,35.6779521 Z M39.6561539,38.04697 L35.0164307,42.9333323 L37.9566242,45.725476 L38.6695979,44.9732216 L47.110151,52.9815201 L46.2903999,53.8457525 L49.2943833,56.6987538 L54.0067483,51.7427373 L50.9999434,48.8868038 L50.2502339,49.6790582 L41.8568731,41.7079381 L42.6419906,40.8802203 L39.6561539,38.04697 Z M34.7337751,54.4918935 L32.307883,52.9350471 L32.8395013,51.9225437 L29.3034571,49.8195285 L27.0379523,53.62661 C26.621908,54.3224883 27.2871362,55.1867206 28.0234018,55.6309806 L33.3253104,58.7850608 L31.9923643,61.0251714 L25.0803866,56.9112019 L22.1412443,61.8572599 L25.6212995,63.9230966 L26.2599164,62.9786983 L36.2039825,68.8990301 L35.673858,69.9081587 L39.2343005,72.0276607 L44.2740791,63.5612709 C45.1154069,62.1466098 44.3503723,60.0105103 42.5717278,59.0378962 L39.6963752,57.4473015 C38.3780903,56.7219903 37.1088234,57.2343001 36.1146879,57.8168727 C36.3941346,56.5156279 36.0051443,55.3079378 34.7337751,54.4918935 L34.7337751,54.4918935 Z M16.3744947,78.4143825 C15.8904007,80.0691543 17.7504837,81.5905927 19.7841212,82.1825706 L31.5114792,85.6038706 C33.2198609,86.1062219 35.0081872,85.357121 35.42058,83.9490989 L37.7690724,75.9020728 L31.6087406,74.1040092 L30.503955,77.8993065 L32.7422398,78.5477159 L32.0297641,80.9798043 L20.8631807,77.7189469 L21.5752692,75.2896247 L24.5814102,76.1681862 L25.7430146,72.1775916 L18.7305666,70.1311186 L16.3744947,78.4143825 Z M20.4017699,132.032638 L35.9424611,129.773164 L36.3891554,131.054492 L40.2673296,129.693496 L38.1530834,123.678005 L33.4688235,124.747991 L32.3495981,121.555184 L36.634024,119.345502 L34.4679383,113.190592 L30.6509536,114.532777 L31.1300684,115.898752 L17.4583121,123.651449 L20.4017699,132.032638 Z M36.7176754,157.627659 L39.7476062,154.900134 L38.8586989,153.909816 L47.3262505,146.291006 L48.9637609,148.108987 L46.4466378,150.37344 L49.9639268,154.279941 L55.5347151,149.269153 L45.7118661,138.354077 L42.6570944,141.102624 L43.5684636,142.115626 L35.0551029,149.774823 L34.1044528,148.718668 L31.117067,151.408018 L36.7176754,157.627659 Z M99.6846448,159.480494 C132.705944,159.480494 159.481047,132.709817 159.481047,99.6846448 C159.481047,66.6589195 132.705944,39.8915066 99.6846448,39.8915066 C66.6589195,39.8915066 39.8837058,66.6589195 39.8837058,99.6846448 C39.8837058,132.709817 66.6589195,159.480494 99.6846448,159.480494 Z M66.684369,178.698197 L76.0508971,166.096815 L77.2813259,166.679941 L79.0533867,162.973163 L73.2984767,160.225722 L70.7513122,164.298751 L67.6973704,162.840936 L69.1535252,158.247299 L63.265282,155.433468 L61.5203304,159.08658 L62.8293207,159.712859 L58.6699847,174.869705 L66.684369,178.698197 Z M100.44979,185.254767 C103.195571,185.409677 103.664728,181.165694 103.588932,178.864726 C103.325032,177.312305 102.320329,176.146054 100.761823,175.86279 C102.196955,175.595016 103.352141,174.740245 103.781464,173.430701 L104.02434,169.357119 C104.037065,167.785335 103.3621,165.970674 101.764866,165.895985 L88.7911458,165.240936 L88.6063602,169.225445 L90.022681,169.352693 L89.4970932,180.788377 L88.0464708,180.784504 L87.8694307,184.584781 L100.44979,185.254767 Z M115.602763,168.480217 L116.960993,167.979526 L124.928904,181.529733 L133.259194,178.452001 L130.758503,162.95048 L132.034851,162.478004 L130.609679,158.624616 L124.629596,160.832638 L125.773717,165.499858 L122.599167,166.670535 L120.322542,162.422679 L114.200827,164.682154 L115.602763,168.480217 Z M141.952417,156.598613 L142.896815,155.70788 L151.114242,163.686303 L150.168738,164.661683 L153.094879,167.503177 L157.578419,162.88575 L154.960992,153.521988 L164.269982,155.992804 L168.650065,151.48492 L165.724477,148.641767 L164.812721,149.492112 L156.688793,141.59723 L157.656981,140.600273 L154.708157,137.737756 L150.183122,142.39723 L157.723924,149.722265 L148.994187,147.436787 C149.659747,150.351863 150.345224,153.37759 151.007465,156.295985 L143.635958,149.138032 L139.0899,153.820743 L141.952417,156.598613 Z M182.222955,122.463621 L168.533329,114.766249 L168.963205,113.476622 L165.058917,112.188656 L163.062237,118.245087 L167.425722,120.256152 L166.364588,123.46943 L161.621573,122.605806 L159.577313,128.802763 L163.421849,130.07026 L163.881047,128.694879 L179.440106,130.899582 L182.222955,122.463621 Z M99.6846448,191.239276 C49.1204414,191.239276 8.12757933,150.248959 8.12757933,99.6846448 C8.12757933,49.1204414 49.1204414,8.1310648 99.6846448,8.1310648 C150.24232,8.1310648 191.238169,49.1204414 191.238169,99.6846448 C191.238169,150.248959 150.24232,191.239276 99.6846448,191.239276 L99.6846448,191.239276 Z" id="path78" fill="#A21A34"></path>
                        <polyline id="path80" fill="#A21A34" points="96.4846449 17.8185334 98.9670791 17.7625998 99.2354055 29.3644253 96.7535246 29.421908 96.4846449 17.8185334"></polyline>
                        <path d="M119.57676,122.763482 C117.413552,115.868877 115.653109,108.045917 113.969015,101.078836 L104.206913,99.8899007 C109.07275,107.674686 111.73499,114.870813 119.57676,122.763482 Z M72.2235113,64.5499292 C85.8329162,64.2539403 95.0113393,81.166803 99.9640362,91.211616 L112.869707,93.2398317 L112.048683,82.7153506 C110.42434,56.5355449 129.2686,66.6395557 129.2686,66.6395557 C131.887687,67.8284907 134.630149,70.6910079 134.563205,74.0320867 C134.423786,75.1557381 133.80138,74.7236496 133.178973,74.4044241 C126.526138,70.9692928 121.530841,71.6890715 120.998061,75.8323632 C120.40221,80.468601 120.728628,86.9941887 120.948268,89.4804957 C121.027936,90.3861665 121.303455,93.3316712 121.479942,94.2201913 C123.749928,94.6965398 126.782293,95.8008275 126.782293,91.8533864 C127.93416,92.4392785 130.037618,94.1670793 130.396677,95.9977846 C132.403316,105.46943 122.476345,102.984783 122.476345,102.984783 C124.895709,114.175931 127.497645,126.08907 133.038448,135.921988 L127.518116,138.569844 C123.773718,135.707327 120.009402,132.807189 116.868047,132.339692 C113.998891,131.649236 96.4619616,130.272196 97.6940501,138.298752 C95.7372037,138.140522 94.6356823,135.840661 94.6456408,133.850066 C95.2813254,125.182846 106.541076,126.902348 113.396954,126.054769 C106.31701,117.196678 100.100689,108.023234 94.4818787,98.5250321 C90.02932,97.6713669 89.4439812,103.195571 90.2008276,104.71701 C90.2008276,104.71701 87.2641749,103.892667 86.1239259,100.676623 C84.7496521,97.2951566 86.305392,91.5751014 91.0993062,91.258089 C86.3557378,82.910648 80.6661114,69.2365128 69.0273842,71.9712292 C65.1302888,72.7728889 60.5803581,79.3698459 62.9377578,83.2868582 C64.3822944,85.2968167 62.2378961,86.7048388 59.7825711,83.7300117 C53.7426266,77.0638985 59.56791,63.751589 72.2235113,64.5499292 L72.2235113,64.5499292 Z" id="path82" fill="#A21A34"></path>
                    </g>
                </g>
            </g>
        </g>
    </g>
</svg>