<?xml version="1.0" encoding="UTF-8"?>
<svg width="200px" height="200px" viewBox="0 0 200 200" version="1.1" xmlns="http://www.w3.org/2000/svg" xmlns:xlink="http://www.w3.org/1999/xlink">
    <!-- Generator: Sketch 54.1 (76490) - https://sketchapp.com -->
    <title>appalachian-st</title>
    <desc>Created with Sketch.</desc>
    <g id="appalachian-st" stroke="none" stroke-width="1" fill="none" fill-rule="evenodd">
        <g id="appalachian-st_BGL" transform="translate(-0.000000, 0.000000)">
            <g id="appalachian-st" transform="translate(13.000000, 0.000000)">
                <g id="g10" transform="translate(86.973417, 99.824920) scale(-1, 1) rotate(-180.000000) translate(-86.973417, -99.824920) translate(0.000000, 0.142409)" fill-rule="nonzero">
                    <g id="g12">
                        <path d="M87.6853654,108.178905 C89.9409327,102.539298 90.2613946,101.741838 92.2213799,96.8471927 C87.7882874,96.8471927 87.5828686,96.8471927 83.1502014,96.8471927 C85.1095487,101.741838 85.4285222,102.539298 87.6853654,108.178905 L87.6853654,108.178905 Z M118.332331,198.431324 L48.4093187,198.431324 L48.4093187,151.895531 C48.4093187,151.895531 56.1427227,151.895531 56.5097548,151.895531 C49.4032398,134.138017 17.0724777,57.8226583 13.6309672,49.2246697 C11.0078149,49.2246697 12.4364756,49.2246697 0.75781065,49.2246697 L0.75781065,0.757514826 L70.007221,0.757514826 L70.007221,47.1268735 L65.4482403,47.1268735 L67.0314117,52.7615922 L108.34017,52.7615922 L110.808811,47.1268735 L103.729728,47.1268735 L103.729728,0.757514826 L173.185338,0.757514826 L173.185338,47.9664171 C173.185338,47.9664171 163.304817,47.9664171 160.454683,47.9664171 C157.014024,56.5644057 125.968979,134.138017 118.861827,151.895531 C119.791315,151.895531 126.624789,151.895531 126.624789,151.895531 L126.624789,198.431324 L118.332331,198.431324 L118.332331,198.431324 Z" id="path14" fill="#FBCF17"></path>
                        <path d="M73.2711696,89.8322219 L87.6853654,125.84949 L102.099774,89.8322219 L73.2711696,89.8322219 Z M154.839901,39.6774655 L106.61346,160.183845 L118.332331,160.183845 L118.332331,190.14216 L56.7017768,190.14216 L56.7017768,160.183845 L68.7587591,160.183845 L20.531,39.6774655 L9.8902597,39.6774655 L9.8902597,9.04585851 L62.7637601,9.04585851 L62.7637601,39.6774655 L53.1992361,39.6774655 L61.4168417,60.2112128 L113.954314,60.2112128 L122.172345,39.6774655 L113.28128,39.6774655 L113.28128,9.04585851 L166.154951,9.04585851 L166.154951,39.6774655 L154.839901,39.6774655 L154.839901,39.6774655 Z" id="path16" fill="#FFFFFF"></path>
                        <path d="M118.332331,197.673822 C118.332331,197.673822 124.615894,197.673822 125.867121,197.673822 C125.867121,196.231507 125.867121,154.094498 125.867121,152.652821 C124.632481,152.652821 118.861827,152.652821 118.861827,152.652821 C118.609838,152.652821 118.375711,152.527846 118.2343,152.319554 C118.148177,152.192666 118.104158,152.044736 118.104158,151.895531 C118.104158,151.8001 118.121808,151.704881 118.158596,151.613487 L159.750815,47.6850106 C159.866709,47.3970152 160.144216,47.208915 160.454683,47.208915 C160.454683,47.208915 171.086705,47.208915 172.427457,47.208915 C172.427457,45.7659628 172.427457,2.95774379 172.427457,1.51478098 C170.961242,1.51478098 105.953185,1.51478098 104.487609,1.51478098 C104.487609,2.95651104 104.487609,44.9276945 104.487609,46.3693714 C105.696093,46.3693714 110.808811,46.3693714 110.808811,46.3693714 C111.06399,46.3693714 111.303433,46.4990225 111.44293,46.7126279 C111.525225,46.838028 111.566479,46.9814943 111.566479,47.1268735 C111.566479,47.2299567 111.545427,47.3326148 111.503323,47.4303844 L109.034894,53.0655282 C108.913046,53.3403459 108.640643,53.5190943 108.34017,53.5190943 L67.0314117,53.5190943 C66.692024,53.5190943 66.3934649,53.2929489 66.3013879,52.9669084 L64.7188545,47.3317646 C64.6542092,47.1030687 64.700992,46.858007 64.8443174,46.6692691 C64.9872174,46.4805313 65.2107115,46.3693714 65.4482403,46.3693714 C65.4482403,46.3693714 68.1956647,46.3693714 69.2493402,46.3693714 C69.2493402,44.9276945 69.2493402,2.95651104 69.2493402,1.51478098 C67.7833384,1.51478098 2.98165712,1.51478098 1.51545543,1.51478098 C1.51545543,2.95923158 1.51545543,47.02209 1.51545543,48.4673801 C2.85804429,48.4673801 13.6309672,48.4673801 13.6309672,48.4673801 C13.9407967,48.4673801 14.2196433,48.6552678 14.3348565,48.9434757 C15.7430815,52.4631823 22.0733853,67.5207677 29.402969,84.956068 C39.923988,109.984243 53.0182718,141.131095 57.2127722,151.614125 C57.2497731,151.704881 57.2674229,151.8001 57.2674229,151.895531 C57.2674229,152.044736 57.2234046,152.192666 57.1372818,152.319554 C56.9958703,152.527846 56.7608932,152.652821 56.5097548,152.652821 C56.5097548,152.652821 50.4122591,152.652821 49.1671995,152.652821 C49.1671995,154.094498 49.1671995,196.231507 49.1671995,197.673822 C50.6497879,197.673822 118.332331,197.673822 118.332331,197.673822 Z M118.332331,199.188613 L48.4093187,199.188613 C47.9910382,199.188613 47.6516505,198.849395 47.6516505,198.431324 L47.6516505,151.895531 C47.6516505,151.47746 47.9910382,151.138029 48.4093187,151.138029 C48.4093187,151.138029 53.7208639,151.138029 55.3869684,151.138029 C50.8199071,139.815031 38.2138652,109.826323 28.0058655,85.5431108 C20.9474092,68.7535152 14.8294354,54.1996559 13.1198655,49.9819592 C12.1772991,49.9819592 0.75781065,49.9819592 0.75781065,49.9819592 C0.339489781,49.9819592 0,49.6429536 0,49.2246697 L0,0.757514826 C0,0.339405138 0.339489781,0 0.75781065,0 L70.007221,0 C70.4255014,0 70.7648892,0.339405138 70.7648892,0.757514826 L70.7648892,47.1268735 C70.7648892,47.5449449 70.4255014,47.884163 70.007221,47.884163 C70.007221,47.884163 67.6670194,47.884163 66.4481157,47.884163 C66.775595,49.0510223 67.4012082,51.275919 67.6057765,52.0045152 C68.7087865,52.0045152 106.89118,52.0045152 107.84491,52.0045152 C108.111997,51.3949429 109.09805,49.1432658 109.649662,47.884163 C108.028214,47.884163 103.729728,47.884163 103.729728,47.884163 C103.31166,47.884163 102.97206,47.5449449 102.97206,47.1268735 L102.97206,0.757514826 C102.97206,0.339405138 103.31166,0 103.729728,0 L173.185338,0 C173.603405,0 173.943006,0.339405138 173.943006,0.757514826 L173.943006,47.9664171 C173.943006,48.384701 173.603405,48.7237066 173.185338,48.7237066 C173.185338,48.7237066 161.912392,48.7237066 160.967593,48.7237066 C160.593543,49.6574065 120.791828,149.111223 119.980573,151.138029 C121.620521,151.138029 126.624789,151.138029 126.624789,151.138029 C127.043069,151.138029 127.38267,151.47746 127.38267,151.895531 L127.38267,198.431324 C127.38267,198.849395 127.043069,199.188613 126.624789,199.188613 L118.332331,199.188613 L118.332331,199.188613 Z" id="path18" fill="#100F0D"></path>
                        <path d="M85.0510703,99.5577493 C85.0510703,99.5577493 86.8086138,103.950156 87.6853654,106.139558 C88.5202251,104.055365 90.6718071,98.6769725 91.1013579,97.6046948 C89.6234478,97.6046948 85.7477082,97.6046948 84.2695854,97.6046948 C84.6242839,98.4895099 85.0510703,99.5577493 85.0510703,99.5577493 Z M86.98171,108.460312 L82.4469714,97.1285992 C82.3536185,96.895865 82.3819008,96.6316744 82.5226744,96.4225324 C82.6640859,96.2142406 82.8988504,96.0899031 83.1502014,96.0899031 L92.2213799,96.0899031 C92.472731,96.0899031 92.7074954,96.2142406 92.8489069,96.4225324 C92.9898932,96.6316744 93.0186008,96.895865 92.92461,97.1285992 L88.3892334,108.460312 C88.2735523,108.747457 87.9951949,108.936195 87.6853654,108.936195 C87.3755359,108.936195 87.0967531,108.748094 86.98171,108.460312 L86.98171,108.460312 Z" id="path20" fill="#100F0D"></path>
                        <path d="M117.827077,189.637371 C117.827077,188.677528 117.827077,161.648689 117.827077,160.688847 C116.900991,160.688847 105.867488,160.688847 105.867488,160.688847 L154.497961,39.1724641 C154.497961,39.1724641 164.727439,39.1724641 165.649697,39.1724641 C165.649697,38.2117713 165.649697,10.5119778 165.649697,9.55079613 C164.668322,9.55079613 114.768547,9.55079613 113.786322,9.55079613 C113.786322,10.5119778 113.786322,38.2117713 113.786322,39.1724641 C114.685614,39.1724641 122.918318,39.1724641 122.918318,39.1724641 L114.296254,60.7160016 L61.0746896,60.7160016 L52.4532636,39.1724641 C52.4532636,39.1724641 61.3521964,39.1724641 62.2587189,39.1724641 C62.2587189,38.2117713 62.2587189,10.5119778 62.2587189,9.55079613 C61.277344,9.55079613 11.3768884,9.55079613 10.3954498,9.55079613 C10.3954498,10.5119778 10.3954498,38.2117713 10.3954498,39.1724641 C11.311669,39.1724641 20.8730671,39.1724641 20.8730671,39.1724641 L69.5047315,160.688847 C69.5047315,160.688847 58.1343927,160.688847 57.2070307,160.688847 C57.2070307,161.648689 57.2070307,188.677528 57.2070307,189.637371 C58.1930838,189.637371 116.841236,189.637371 117.827077,189.637371 Z M118.332331,190.647161 L56.1967355,190.647161 L56.1967355,159.678844 C56.1967355,159.678844 66.6986161,159.678844 68.0129992,159.678844 C67.4656408,158.314108 20.4403053,40.810743 20.189018,40.1822543 C19.548243,40.1822543 9.38504834,40.1822543 9.38504834,40.1822543 L9.38504834,8.54106967 L63.269014,8.54106967 L63.269014,40.1822543 C63.269014,40.1822543 55.2140848,40.1822543 53.9449959,40.1822543 C54.4549281,41.4543222 61.5206144,59.1113045 61.7587812,59.7062114 C62.4296886,59.7062114 112.941893,59.7062114 113.612162,59.7062114 C113.849478,59.1113045 120.917504,41.4543222 121.426373,40.1822543 C120.172807,40.1822543 112.776027,40.1822543 112.776027,40.1822543 L112.776027,8.54106967 L166.659992,8.54106967 L166.659992,40.1822543 C166.659992,40.1822543 155.825954,40.1822543 155.182478,40.1822543 C154.930702,40.810743 107.90594,158.314108 107.359433,159.678844 C108.667649,159.678844 118.837372,159.678844 118.837372,159.678844 L118.837372,190.647161 L118.332331,190.647161 L118.332331,190.647161 Z" id="path22" fill="#100F0D"></path>
                        <path d="M87.6853654,124.490067 C88.545743,122.340198 100.837702,91.6258695 101.354014,90.3372233 C99.9751982,90.3372233 75.3963831,90.3372233 74.0169294,90.3372233 C74.5326031,91.6258695 86.8249877,122.340198 87.6853654,124.490067 Z M87.2164744,126.036953 L72.5251971,89.3272205 L102.845746,89.3272205 L87.6853654,127.209126 L87.2164744,126.036953 L87.2164744,126.036953 Z" id="path24" fill="#100F0D"></path>
                        <path d="M44.6422427,77.4382212 L43.6687358,78.5085861 C43.6687358,78.5085861 47.5634012,81.8193632 48.9756028,82.9371251 C50.3871665,84.0561623 52.5296046,83.9099329 52.8217842,81.9145824 C52.8217842,81.9145824 53.9483983,83.444677 55.0127062,83.5696521 C56.6675403,83.7641287 56.8623267,80.4550519 56.8623267,80.4550519 C56.8623267,80.4550519 58.0167978,81.9507146 58.9560682,83.1804865 C60.221542,84.8344936 61.7311369,84.3964431 61.7311369,82.1585813 C61.7311369,79.9194443 61.3902606,73.8379609 61.29308,71.8912826 C61.1950489,69.9446043 62.4126767,68.6797629 63.3861836,70.9662969 L63.4348802,69.9446043 C63.4348802,69.9446043 62.9487647,67.024268 61.29308,67.024268 C59.6373954,67.024268 58.9073716,69.1173882 58.9073716,71.6474962 C58.9073716,74.1786668 58.9073716,77.0016586 58.9073716,77.8280245 C58.9073716,78.6546029 58.4699527,79.4335718 57.7390783,78.313897 C57.0084165,77.1948599 56.8623267,76.6110051 56.8623267,75.7842142 C56.8623267,74.9563605 56.8623267,70.6258036 56.8623267,69.506979 C56.8623267,68.3879418 56.1807869,67.609398 55.0614028,67.609398 C53.9411682,67.609398 53.6985358,68.2406497 53.6985358,70.1392934 C53.6985358,72.0372994 53.6985358,75.9786907 53.6985358,76.8543665 C53.6985358,77.7300423 53.1618099,79.1895728 52.48027,77.6326977 C51.7993681,76.0760352 51.4580665,74.762309 51.4580665,73.6428468 C51.4580665,72.523172 51.4580665,70.0432241 51.4580665,69.3122899 C51.4580665,68.5817807 51.3613113,67.512266 50.2412893,67.512266 C49.1216926,67.512266 48.537546,68.0459607 48.537546,70.2853102 C48.537546,72.523172 48.537546,74.3725057 48.537546,76.65989 C48.537546,78.946424 48.828875,80.1154087 48.4395148,80.3092476 C48.0507926,80.503299 47.3686148,80.0665239 44.6422427,77.4382212" id="path26" fill="#100F0D"></path>
                        <path d="M66.0153751,70.0419489 C65.8618425,67.5167294 64.6029608,69.6527832 64.6029608,70.3826548 C64.6029608,71.1123137 64.6029608,72.0851215 64.6029608,73.4487953 C64.6029608,74.8111938 65.3008746,75.0449908 65.7716794,74.8105562 C66.1612522,74.6165047 66.2099488,73.2530435 66.0153751,70.0419489 L66.0153751,70.0419489 Z M69.179804,73.9348804 C68.6179855,73.5204222 67.8647829,73.8866332 67.8647829,76.027363 C67.8647829,77.5840255 67.6702091,78.9474867 66.4532192,79.5793761 C65.5639214,80.0410187 63.0453073,79.8242252 63.0453073,75.9786907 C63.0453073,72.1340064 63.0453073,72.0851215 63.0453073,71.2583306 C63.0453073,70.4311145 63.337487,68.241925 65.0897142,67.4142838 C66.8427921,66.5864301 67.8647829,67.6081228 67.8647829,70.1392934 C67.8647829,70.7310122 67.8647829,71.2791597 67.8647829,71.7973388 C68.4489295,71.6959559 68.902935,71.8249693 69.3256811,71.9879895 C69.9585244,72.2313509 70.542671,73.1567617 70.542671,73.1567617 L70.6887608,75.5400026 C70.6887608,75.5400026 70.1046142,74.6165047 69.179804,73.9348804 L69.179804,73.9348804 Z" id="path28" fill="#100F0D"></path>
                        <path d="M71.7594483,78.946424 C71.3213914,79.3855371 70.2994006,79.3842619 70.2994006,78.0707482 C70.2994006,76.757022 70.2994006,71.0149692 70.2994006,69.9934891 C70.2994006,68.971584 70.834638,67.3163017 72.2470523,67.2674169 C73.2966874,67.2308595 74.8760311,69.3122899 74.8760311,69.3122899 L74.1457947,70.7237857 C74.1457947,70.7237857 73.706462,69.5054912 73.2197085,69.2636176 C72.733593,69.0202562 72.1009625,69.2636176 72.1009625,71.2583306 C72.1009625,73.2530435 72.1009625,76.2205643 72.1009625,77.0975153 C72.1009625,77.9738287 72.2470523,78.4592762 71.7594483,78.946424" id="path30" fill="#100F0D"></path>
                        <path d="M75.748955,78.7621495 C75.2745352,79.1062561 74.5838515,78.899027 74.2918845,77.6820076 C73.9992795,76.4652009 73.8538277,71.3556751 73.9505829,69.9446043 C74.0479762,68.5337461 74.6940036,67.116299 75.8225316,67.1970652 C77.4235654,67.3122634 78.8674517,69.1662731 78.8674517,69.1662731 L78.4787295,71.1123137 C78.4787295,71.1123137 77.3478624,69.193266 76.6282584,69.0689285 C75.7245004,68.9131347 75.4108432,69.9446043 75.6062676,72.3291205 C75.8008414,74.7138493 76.0443244,76.07476 76.093021,76.8056942 C76.1417176,77.5362034 76.2844051,78.3729839 75.748955,78.7621495" id="path32" fill="#100F0D"></path>
                        <path d="M80.4025644,78.9345216 C79.8428724,79.2342068 78.9712244,79.2718268 78.7609146,77.1257835 C78.5852666,75.3270349 78.2556607,72.3291205 78.2977652,70.3928568 C78.3398697,68.4574433 78.6767056,67.7001537 79.3080603,67.3214027 C79.9396277,66.9428642 80.2743371,67.4149215 80.4446689,68.9209988 C80.6972959,71.1503589 80.8236093,72.8755677 80.8657138,73.5486904 C80.9078183,74.2226632 82.2549494,75.0213985 82.2128449,73.7591076 C82.1707404,72.4968167 82.0029604,70.5184695 82.5496808,69.088695 C83.0968265,67.6587079 85.1182673,67.4897365 86.9698017,70.1405687 L86.7592792,72.7914008 C86.7592792,72.7914008 86.0437155,71.1497213 85.2860474,70.6034866 C84.5281665,70.0570394 84.0650171,70.2683068 84.0650171,72.2028702 C84.0650171,74.1378586 84.1498641,77.0411915 84.1915433,78.0930652 C84.2334351,79.1455765 83.9389163,79.8601449 82.970513,79.2291057 C82.0023224,78.597854 80.9078183,77.2520338 80.9078183,77.2520338 C80.9078183,77.2520338 80.9499228,78.6405751 80.4025644,78.9345216" id="path34" fill="#100F0D"></path>
                        <path d="M104.145031,78.2620366 C103.586403,78.5617218 102.714329,78.5993418 102.503807,76.4532985 C102.327521,74.6545499 101.998553,71.6566355 102.041295,69.7210094 C102.082762,67.7849583 102.420236,67.0274562 103.05159,66.6489177 C103.683158,66.2701667 104.016591,66.7430741 104.188412,68.2485138 C104.440826,70.4785115 104.566502,72.2028702 104.608606,72.876843 C104.65071,73.5501782 105.997842,74.3489135 105.956375,73.0864101 C105.913633,71.8243317 105.745215,69.8459845 106.29236,68.41621 C106.840357,66.9862229 108.796089,66.1677211 110.648261,68.8183407 L110.437739,71.4693854 C110.437739,71.4693854 109.721324,69.8274933 108.963869,69.280621 C108.205988,68.735024 107.807909,69.5956093 107.807909,71.5303852 C107.807909,73.4653736 107.892331,76.368494 107.934223,77.4212178 C107.976965,78.4730915 107.681596,79.1882975 106.714256,78.5572584 C105.745215,77.9260066 104.65071,76.5795488 104.65071,76.5795488 C104.65071,76.5795488 104.693453,77.9680901 104.145031,78.2620366" id="path36" fill="#100F0D"></path>
                        <path d="M91.0111948,70.7295244 C91.0111948,70.7295244 90.7585679,69.6782884 90.1272131,69.0045281 C89.4956458,68.3311929 88.3590372,68.2899596 88.3590372,71.4028596 C88.3590372,72.871742 88.480885,75.133196 88.6274002,77.2513962 C88.8904469,77.2520338 89.124786,77.2520338 89.285336,77.2520338 C90.084896,77.2520338 91.0951911,77.798481 90.084896,78.0930652 C89.4324891,78.2835034 89.2655596,78.2981688 88.7011893,78.2849912 C88.8457906,80.2403838 88.9984726,81.9230841 89.0746009,82.5109771 C89.2430189,83.8159891 89.3287164,84.1947401 88.6116641,84.5307701 C88.0815303,84.7805077 87.2224286,85.0776424 87.2224286,83.6051468 C87.2224286,82.2518876 87.0106303,80.3613205 86.9434332,78.2350437 C86.3029346,78.1731938 85.7791803,77.960226 85.2018384,77.9247314 C84.5281665,77.8832856 84.2334351,77.0824248 85.1597339,77.1674418 C85.5556862,77.2039992 86.2219154,77.2237657 86.9160015,77.235668 C86.8311546,74.7584832 86.4211674,70.3331323 87.0961151,68.6684981 C87.8116788,66.9014184 88.697149,66.3116125 89.8745862,66.9428642 C91.0532993,67.5739034 91.7267585,69.2570288 91.7267585,69.2570288 L91.0111948,70.7295244" id="path38" fill="#100F0D"></path>
                        <path d="M94.56307,71.3648144 C94.592203,70.3299442 94.1618015,69.4969895 93.6727089,69.3820039 C93.1831911,69.2661681 92.5807566,70.5601279 93.0113707,73.347625 C93.4424101,76.1357597 93.8462305,76.9404463 94.8229271,76.5100474 C94.8229271,76.5100474 94.5347877,72.3994721 94.56307,71.3648144 L94.56307,71.3648144 Z M98.5887271,70.0136807 C98.5887271,70.0136807 97.8421167,69.4100595 97.3243165,69.3528855 C96.8060911,69.2957115 96.3186997,70.0413112 96.4615998,71.5080682 C96.6049252,72.9741875 96.7771708,74.8426501 96.9219847,75.6762425 C97.0653101,76.5100474 97.2381937,76.8254607 96.8928518,76.9687145 C96.8928518,76.9687145 96.2023807,77.2856156 95.9155173,77.7168646 C95.6280159,78.1476886 95.1104284,78.7793655 94.56307,78.9806434 C94.0172002,79.1817087 92.2345641,79.2397329 91.5155981,74.9569981 C90.796632,70.6757511 91.5966173,68.1433052 92.3491819,67.3122634 C93.4711177,66.0763277 95.3972918,68.1169499 95.3972918,68.1169499 C95.3972918,68.1169499 97.151433,67.1401038 99.1358729,68.5192932 L98.5887271,70.0136807 L98.5887271,70.0136807 Z" id="path40" fill="#100F0D"></path>
                        <path d="M99.7108756,78.0903021 C98.8190259,78.2303677 98.2163788,77.6584154 98.2163788,75.4454211 C98.2163788,73.2326394 98.1570498,70.5027414 98.3873486,69.3528855 C98.6189233,68.2032422 99.0773944,67.1662465 100.14234,67.0820796 C101.580272,66.9677317 102.729853,68.5773173 102.729853,68.5773173 L102.155063,69.8408835 C102.155063,69.8408835 101.666395,69.1505449 101.235569,68.834919 C100.804104,68.5192932 99.9107656,68.6640347 99.9694567,71.1346307 C100.027935,73.6067145 100.14234,75.2443558 100.285666,76.1931463 C100.43048,77.1415116 100.257383,78.00486 99.7108756,78.0903021" id="path42" fill="#100F0D"></path>
                        <path d="M100.918509,81.9995994 C100.918509,81.2527245 100.352225,80.6484657 99.653673,80.6484657 C98.9542707,80.6484657 98.3873486,81.2527245 98.3873486,81.9995994 C98.3873486,82.7451991 98.9542707,83.349883 99.653673,83.349883 C100.352225,83.349883 100.918509,82.7451991 100.918509,81.9995994" id="path44" fill="#100F0D"></path>
                        <path d="M111.30003,73.9603855 C111.462707,77.5670221 112.503198,78.4769172 112.958267,78.1838209 C113.414824,77.8911496 113.510941,76.6571269 113.153053,75.1621018 C112.857046,73.9261661 111.683011,72.4377298 111.28238,71.9550454 C111.264518,72.5809836 111.26792,73.2462421 111.30003,73.9603855 L111.30003,73.9603855 Z M115.396712,70.5809571 C114.615865,69.1505449 113.802908,67.7211955 112.665662,67.8835781 C112.004749,67.9781595 111.606032,68.8886923 111.412522,70.284035 C115.722278,73.0857724 115.399902,78.3606564 113.283194,79.3547185 C111.137566,80.3625958 109.138028,77.3396014 109.138028,72.854526 C109.138028,65.3806756 113.185801,66.3885529 113.96601,67.0059894 C114.746219,67.6232133 115.819033,69.3450214 115.819033,69.3450214 L115.396712,70.5809571 L115.396712,70.5809571 Z" id="path46" fill="#100F0D"></path>
                        <path d="M129.172536,67.3845279 C128.225185,66.8164013 127.59383,68.3311929 127.59383,68.3311929 C128.225185,69.088695 129.235692,71.108488 129.235692,71.108488 C129.929991,69.7828593 130.119674,67.9526544 129.172536,67.3845279 Z M116.920129,73.9603855 C117.08238,77.5670221 118.123084,78.4769172 118.578366,78.1838209 C119.03471,77.8911496 119.130827,76.6571269 118.773152,75.1621018 C118.477145,73.9261661 117.30311,72.4377298 116.902479,71.9550454 C116.884617,72.5809836 116.887806,73.2462421 116.920129,73.9603855 L116.920129,73.9603855 Z M130.877555,77.3566048 C130.498402,77.6093181 130.877555,77.9878566 130.498402,78.3032699 C130.119674,78.6191083 129.740734,78.6191083 129.298849,77.2303545 C128.856752,75.8418132 128.288341,71.676402 126.899319,69.5305712 C125.50987,67.3845279 124.562732,68.7101565 124.625889,69.9722349 C124.689045,71.2345258 125.257456,74.3903593 125.50987,75.5895251 C125.762497,76.7886908 125.446714,77.1674418 125.004616,77.1674418 C124.562732,77.1674418 123.931165,77.4828552 123.362967,77.9247314 C122.794769,78.366395 122.415828,78.3032699 122.415828,77.798481 C122.415828,77.2934796 122.289515,75.4632747 121.405533,72.244316 C120.521339,69.0255698 119.068947,67.8835781 118.285761,67.8835781 C117.618043,67.8835781 117.225918,68.8886923 117.03262,70.284035 C121.110802,73.1701519 121.020001,78.3606564 118.903293,79.3547185 C116.757665,80.3625958 114.731759,77.3396014 114.731759,72.854526 C114.731759,65.3806756 118.392298,65.9462516 119.270325,66.4378628 C121.973731,67.9526544 122.857925,73.4434817 122.857925,73.4434817 L123.48928,73.2541062 C123.48928,73.2541062 123.48928,73.2541062 123.173496,71.108488 C122.857925,68.9624446 123.11034,67.7632789 124.120635,66.9428642 C125.131143,66.1224495 127.21489,66.7532761 127.21489,66.7532761 C127.21489,66.7532761 128.414655,65.6805733 129.740734,65.6805733 C131.066812,65.6805733 131.44554,67.447653 131.44554,69.088695 C131.44554,70.7295244 131.508697,74.2007713 131.508697,75.210774 C131.508697,76.2205643 131.256283,77.1043167 130.877555,77.3566048 L130.877555,77.3566048 Z" id="path48" fill="#100F0D"></path>
                    </g>
                </g>
            </g>
        </g>
    </g>
</svg>