<?xml version="1.0" encoding="UTF-8"?>
<svg width="200px" height="200px" viewBox="0 0 200 200" version="1.1" xmlns="http://www.w3.org/2000/svg" xmlns:xlink="http://www.w3.org/1999/xlink">
    <!-- Generator: Sketch 54.1 (76490) - https://sketchapp.com -->
    <title>arizona-st</title>
    <desc>Created with Sketch.</desc>
    <g id="arizona-st" stroke="none" stroke-width="1" fill="none" fill-rule="evenodd">
        <g id="arizona-st_BGL">
            <g id="arizona-st" transform="translate(49.000000, 0.000000)">
                <g fill-rule="nonzero" id="g10">
                    <g transform="translate(50.251255, 99.561842) scale(-1, 1) rotate(-180.000000) translate(-50.251255, -99.561842) translate(0.000000, 0.100318)">
                        <g id="g12">
                            <path d="M93.8392504,158.563813 C79.871862,137.2393 76.2221635,113.616668 73.4453795,90.5323204 L73.3662645,89.858329 L70.2671532,92.5614869 L56.1411564,85.3589962 L56.1108731,77.3988568 L50.2291104,77.3988568 L44.3431837,77.3988568 L44.3127112,85.3589962 L30.1910676,92.5614869 L27.0836284,89.858329 L27.0060276,90.5323204 C24.2252689,113.616668 20.5810592,137.2393 6.61374653,158.563813 L6.4036944,158.885762 L6.75354155,158.71504 C7.80635739,158.205525 8.79877709,157.69847 9.75792308,157.188008 C18.3076016,152.652524 23.3561398,147.99799 29.9187077,138.928916 L29.9366883,138.913396 L31.4892723,137.068579 C29.7883005,137.864649 27.4305608,139.011816 25.1171104,139.85653 C24.3028697,140.15482 22.7194346,140.599794 22.7194346,140.599794 C23.0461151,140.056399 23.6926623,138.945572 23.9192189,138.529367 C28.878289,129.379663 32.2014963,112.982991 33.8401983,104.891309 C34.0307934,103.965967 34.1871307,103.156268 34.3326795,102.498933 C34.4324249,102.021782 34.6001184,101.735984 34.8527942,101.39208 C35.1592227,100.99272 35.5759959,100.764839 35.7397146,100.666418 L40.0032166,98.7233696 L42.0308689,97.7915921 C42.2063225,97.7149376 42.4739506,97.6195454 42.8125551,97.6072428 L42.8409457,97.6072428 C43.1592982,97.6072428 43.6319061,97.6984711 44.0335376,98.1230043 C44.068174,98.1589656 44.0838835,98.1911416 44.1168165,98.2325918 C44.4885433,98.652961 44.5962381,99.0441827 44.6380668,99.5919308 C44.7007153,100.269897 44.7546573,100.988556 44.8063281,101.723493 C44.9670185,103.88723 45.090612,106.279796 45.1952785,108.839865 C45.7458657,122.391616 45.6139443,140.415634 45.5238516,151.436084 C45.4928113,155.085404 45.4668813,158.236754 45.4668813,160.621938 C45.4668813,160.621938 45.4668813,160.621938 45.4668813,160.626102 L45.4668813,160.666417 L45.5035997,160.694429 C46.2319117,161.454349 47.3752934,162.609654 47.7031095,162.949205 C47.2479145,162.777348 46.3314679,162.344676 45.1458789,161.626206 C44.5279115,161.247287 43.8306399,160.792849 43.0801833,160.262892 C42.0552848,159.527767 40.9340478,158.637439 39.7895305,157.597021 C39.5177384,157.347563 39.2417823,157.085423 38.9684761,156.824609 L38.7235603,156.584425 L38.7928333,156.921894 C40.2076285,164.160535 41.2327162,169.65789 42.7756474,174.882885 C43.4309011,177.092994 44.1743547,179.258813 45.0828519,181.484821 C46.3753786,184.665129 47.9940179,189.23487 50.1446959,192.991317 L50.2291104,193.13327 L50.3082254,192.991317 C52.4642029,189.23487 54.0750822,184.665129 55.3755581,181.484821 C56.2757275,179.258813 57.0271305,177.092994 57.6763275,174.882885 C59.2167981,169.65789 60.2500245,164.160535 61.6646305,156.921894 L61.7278467,156.584425 L61.4855808,156.824609 C61.211896,157.085423 60.9404824,157.347563 60.6641479,157.597021 C59.5190628,158.637439 58.3989613,159.527767 57.3740629,160.262892 C56.6224706,160.792849 55.93012,161.247287 55.3074209,161.626206 C54.1180465,162.344676 53.2091707,162.777348 52.750001,162.949205 C53.0827382,162.609654 54.2215773,161.454349 54.9546211,160.694429 L54.9850936,160.666417 L54.9850936,160.626102 C54.9850936,160.621938 54.9850936,160.621938 54.9850936,160.621938 C54.9917181,158.236754 54.9650309,155.085404 54.9345584,151.436084 C54.8408697,140.415634 54.7112195,122.391616 55.2587784,108.839865 C55.3666624,106.279796 55.4896881,103.88723 55.6465932,101.723493 C55.7035635,100.988556 55.7575055,100.269897 55.8144759,99.5919308 C55.8568724,99.0441827 55.9696775,98.652961 56.3366725,98.2325918 C56.3694163,98.1911416 56.3936429,98.1589656 56.4208978,98.1230043 C56.8230971,97.6984711 57.2928659,97.6072428 57.6127327,97.6072428 L57.6415017,97.6072428 C57.9787814,97.6195454 58.2477344,97.7149376 58.4192133,97.7915921 L60.4497046,98.7233696 L64.7094212,100.666418 C64.882225,100.764839 65.2989981,100.99272 65.5946382,101.39208 C65.8565883,101.735984 66.0252281,102.021782 66.1257306,102.498933 C66.2638979,103.156268 66.4274274,103.965967 66.6138586,104.891309 C68.2531284,112.982991 71.5799318,129.379663 76.5342702,138.529367 C76.7646121,138.945572 77.4085095,140.056399 77.7346222,140.599794 C77.7346222,140.599794 76.1544048,140.15482 75.3360002,139.85653 C73.0236853,139.011816 70.6693525,137.864649 68.9691378,137.068579 L70.5207754,138.913396 L70.5362955,138.928916 C77.0984849,147.99799 82.150676,152.652524 90.6950928,157.188008 C91.6573428,157.69847 92.6476048,158.205525 93.7010831,158.71504 L94.0495297,158.885762 L93.8392504,158.563813 Z M56.1445632,71.6654819 L44.3127112,71.6654819 L44.3127112,75.7279789 L56.1445632,75.7279789 L56.1445632,71.6654819 Z M45.5865001,67.12186 L45.5865001,70.089807 L54.8686924,70.089807 L54.8686924,67.12186 L50.2291104,67.12186 L45.5865001,67.12186 Z M56.1108731,65.375274 L55.7207871,61.5240027 L44.7311878,61.5240027 L44.3414803,65.375274 L44.3250138,65.5420211 L44.3539721,65.5420211 L50.2291104,65.5420211 L56.1000847,65.5420211 L56.131125,65.5420211 L56.1108731,65.375274 Z M50.2291104,12.4027479 L44.9533911,59.9401891 L55.4974482,59.9401891 L50.2291104,12.4027479 Z M99.561269,165.00733 C71.913426,153.178317 64.2019876,132.785771 64.1860889,132.731829 L63.8739823,131.903772 L64.6431766,132.356128 C66.864831,133.663607 70.9008301,135.859331 73.6681506,136.999116 C70.4386321,130.127092 65.7235313,116.881959 63.820608,107.487908 C63.6529146,106.655497 63.3775264,105.956711 63.2346273,105.295212 C63.1403707,104.862351 63.0606879,104.597561 62.8876949,104.27126 C62.6880148,103.878902 62.3251837,103.572474 61.8919441,103.229705 C61.5467151,102.942961 59.6602584,102.016483 59.6562837,102.013455 C59.6479558,102.005127 59.231372,101.787655 58.7788268,101.572455 C58.5454565,101.461542 58.3113292,101.351766 58.1188413,101.270001 C58.1084315,101.265837 58.0929113,101.261862 58.0883688,101.257698 L57.9842702,102.973055 C57.3449152,119.103613 57.1291471,129.23279 57.1327433,136.79849 C57.1327433,144.90361 57.3740629,150.075799 57.6021335,156.588589 C59.3865736,155.130829 64.8330147,150.623358 64.8413426,150.623358 L65.4189954,150.136744 L65.3565362,150.8925 C64.2705035,163.336452 60.5992282,175.237956 58.1084315,182.028216 C57.2854844,184.257252 56.4593197,186.20541 55.6609777,187.895215 C52.9657691,193.62348 50.6146539,198.130005 50.5086626,198.338202 L50.2291104,198.881408 L49.9453943,198.338202 C49.8382673,198.130005 47.4871521,193.62348 44.7860762,187.895215 C43.9947372,186.20541 43.1676261,184.257252 42.3450576,182.028216 C39.8588034,175.237956 36.1877173,163.336452 35.0980884,150.8925 L35.0282477,150.142044 L35.6127143,150.623358 C35.6183924,150.627522 41.0669155,155.134993 42.8553302,156.588589 C43.0801833,150.075799 43.3249097,144.90361 43.3249097,136.79849 C43.3249097,129.23279 43.1133056,119.103613 42.4697867,102.963781 L42.3651202,101.257698 C41.8043124,101.490501 40.808183,102.005127 40.808183,102.005127 C40.7977732,102.013455 38.9115057,102.942961 38.5605986,103.229705 C38.1258448,103.572474 37.7660421,103.878902 37.5637122,104.27126 C37.3973436,104.597561 37.3167145,104.862351 37.2230257,105.291048 C37.0806945,105.956711 36.7965998,106.655497 36.6334488,107.487908 C34.7269295,116.881959 30.0186424,130.127092 26.7895024,136.999116 C29.5537946,135.859331 33.5933898,133.663607 35.8123944,132.356128 L36.5842386,131.903772 L36.2675894,132.731829 C36.25188,132.785771 28.539306,153.178317 0.890236471,165.00733 L0,165.386249 L0.500530891,164.549675 C0.502527692,164.5457 3.89718829,158.87857 7.72718564,151.440248 C11.5685581,144.009119 15.8292021,134.818912 17.547795,127.849603 C19.1486619,121.381102 24.0679853,100.421124 24.0679853,82.6641662 C24.0679853,80.8804833 24.0197214,79.124623 23.9095661,77.4227048 L24.5053889,77.2580397 C24.5120133,77.2642856 25.4443586,79.0801445 26.6307046,81.202432 C27.6328907,83.0037171 28.8269968,85.0245557 29.7472288,86.3062939 L35.6127143,40.0278217 L36.2410916,40.0431526 L38.4561215,74.6905886 L49.9118934,0 L50.5391351,0 L61.9975569,74.6947525 L64.2103155,40.0431526 L64.8413426,40.0278217 L70.7108027,86.3062939 C71.6276279,85.0245557 72.8187057,83.0037171 73.8218381,81.202432 C75.0093197,79.0801445 75.9462075,77.2642856 75.9462075,77.2580397 L76.5431659,77.4227048 C76.4343355,79.124623 76.3853145,80.8804833 76.3853145,82.6641662 C76.3853145,100.421124 81.3059628,121.386402 82.9037824,127.849603 C84.6248169,134.818912 88.886994,144.009119 92.7200953,151.440248 C96.5567929,158.87857 99.9515443,164.541536 99.9551404,164.549675 L100.457085,165.390413 L99.561269,165.00733 L99.561269,165.00733 Z" id="path14" fill="#8A0C3C"></path>
                            <path d="M90.6950928,157.188008 C82.150676,152.652524 77.0984849,147.99799 70.5362955,138.928916 L70.5207754,138.913396 L68.9691378,137.068579 C70.6693525,137.864649 73.0236853,139.011816 75.3360002,139.85653 C76.1544048,140.15482 77.7346222,140.599794 77.7346222,140.599794 C77.4085095,140.056399 76.7646121,138.945572 76.5342702,138.529367 C71.5799318,129.379663 68.2531284,112.982991 66.6138586,104.891309 C66.4274274,103.965967 66.2638979,103.156268 66.1257306,102.498933 C66.0252281,102.021782 65.8565883,101.735984 65.5946382,101.39208 C65.2989981,100.99272 64.882225,100.764839 64.7094212,100.666418 L60.4497046,98.7233696 L58.4192133,97.7915921 C58.2477344,97.7149376 57.9787814,97.6195454 57.6415017,97.6072428 L57.6127327,97.6072428 C57.2928659,97.6072428 56.8230971,97.6984711 56.4208978,98.1230043 C56.3936429,98.1589656 56.3694163,98.1911416 56.3366725,98.2325918 C55.9696775,98.652961 55.8568724,99.0441827 55.8144759,99.5919308 C55.7575055,100.269897 55.7035635,100.988556 55.6465932,101.723493 C55.4896881,103.88723 55.3666624,106.279796 55.2587784,108.839865 C54.7112195,122.391616 54.8408697,140.415634 54.9345584,151.436084 C54.9650309,155.085404 54.9917181,158.236754 54.9850936,160.621938 C54.9850936,160.621938 54.9850936,160.621938 54.9850936,160.626102 L54.9850936,160.666417 L54.9546211,160.694429 C54.2215773,161.454349 53.0827382,162.609654 52.750001,162.949205 C53.2091707,162.777348 54.1180465,162.344676 55.3074209,161.626206 C55.93012,161.247287 56.6224706,160.792849 57.3740629,160.262892 C58.3989613,159.527767 59.5190628,158.637439 60.6641479,157.597021 C60.9404824,157.347563 61.211896,157.085423 61.4855808,156.824609 L61.7278467,156.584425 L61.6646305,156.921894 C60.2500245,164.160535 59.2167981,169.65789 57.6763275,174.882885 C57.0271305,177.092994 56.2757275,179.258813 55.3755581,181.484821 C54.0750822,184.665129 52.4642029,189.23487 50.3082254,192.991317 L50.2291104,193.13327 L50.1446959,192.991317 C47.9940179,189.23487 46.3753786,184.665129 45.0828519,181.484821 C44.1743547,179.258813 43.4309011,177.092994 42.7756474,174.882885 C41.2327162,169.65789 40.2076285,164.160535 38.7928333,156.921894 L38.7235603,156.584425 L38.9684761,156.824609 C39.2417823,157.085423 39.5177384,157.347563 39.7895305,157.597021 C40.9340478,158.637439 42.0552848,159.527767 43.0801833,160.262892 C43.8306399,160.792849 44.5279115,161.247287 45.1458789,161.626206 C46.3314679,162.344676 47.2479145,162.777348 47.7031095,162.949205 C47.3752934,162.609654 46.2319117,161.454349 45.5035997,160.694429 L45.4668813,160.666417 L45.4668813,160.626102 C45.4668813,160.621938 45.4668813,160.621938 45.4668813,160.621938 C45.4668813,158.236754 45.4928113,155.085404 45.5238516,151.436084 C45.6139443,140.415634 45.7458657,122.391616 45.1952785,108.839865 C45.090612,106.279796 44.9670185,103.88723 44.8063281,101.723493 C44.7546573,100.988556 44.7007153,100.269897 44.6380668,99.5919308 C44.5962381,99.0441827 44.4885433,98.652961 44.1168165,98.2325918 C44.0838835,98.1911416 44.068174,98.1589656 44.0335376,98.1230043 C43.6319061,97.6984711 43.1592982,97.6072428 42.8409457,97.6072428 L42.8125551,97.6072428 C42.4739506,97.6195454 42.2063225,97.7149376 42.0308689,97.7915921 L40.0032166,98.7233696 L35.7397146,100.666418 C35.5759959,100.764839 35.1592227,100.99272 34.8527942,101.39208 C34.6001184,101.735984 34.4324249,102.021782 34.3326795,102.498933 C34.1871307,103.156268 34.0307934,103.965967 33.8401983,104.891309 C32.2014963,112.982991 28.878289,129.379663 23.9192189,138.529367 C23.6926623,138.945572 23.0461151,140.056399 22.7194346,140.599794 C22.7194346,140.599794 24.3028697,140.15482 25.1171104,139.85653 C27.4305608,139.011816 29.7883005,137.864649 31.4892723,137.068579 L29.9366883,138.913396 L29.9187077,138.928916 C23.3561398,147.99799 18.3076016,152.652524 9.75792308,157.188008 C8.79877709,157.69847 7.80635739,158.205525 6.75354155,158.71504 L6.4036944,158.885762 L6.61374653,158.563813 C20.5810592,137.2393 24.2252689,113.616668 27.0060276,90.5323204 L27.0836284,89.858329 L30.1910676,92.5614869 L44.3127112,85.3589962 L44.3431837,77.3988568 L50.2291104,77.3988568 L56.1108731,77.3988568 L56.1411564,85.3589962 L70.2671532,92.5614869 L73.3662645,89.858329 L73.4453795,90.5323204 C76.2221635,113.616668 79.871862,137.2393 93.8392504,158.563813 L94.0495297,158.885762 L93.7010831,158.71504 C92.6476048,158.205525 91.6573428,157.69847 90.6950928,157.188008" id="path16" fill="#FBC622"></path>
                            <polyline id="path18" fill="#FBC622" points="44.3127112 75.7279789 44.3127112 71.6654819 56.1445632 71.6654819 56.1445632 75.7279789 50.2291104 75.7279789 44.3127112 75.7279789"></polyline>
                            <polygon id="path20" fill="#FBC622" points="44.9533911 59.9401891 50.2291104 12.4027479 55.4974482 59.9401891"></polygon>
                            <polyline id="path22" fill="#FBC622" points="50.2291104 65.5420211 44.3250138 65.5420211 44.3414803 65.375274 44.7311878 61.5240027 50.2291104 61.5240027 55.7207871 61.5240027 56.1108731 65.375274 56.131125 65.5420211 56.1000847 65.5420211 50.2291104 65.5420211"></polyline>
                            <polyline id="path24" fill="#FBC622" points="54.8686924 67.12186 54.8686924 70.089807 45.5865001 70.089807 45.5865001 67.12186 50.2291104 67.12186 54.8686924 67.12186"></polyline>
                            <path d="M64.6772453,37.9350604 C64.6197071,37.957205 64.5396458,37.9679934 64.4355471,37.9679934 L64.3346661,37.9679934 L64.3346661,37.5069311 L64.4961136,37.5069311 C64.5933985,37.5069311 64.6694852,37.5260474 64.7238057,37.5654156 C64.7781263,37.604216 64.8057598,37.6668645 64.8057598,37.7537395 C64.8057598,37.8411824 64.7626061,37.9013703 64.6772453,37.9350604 L64.6772453,37.9350604 Z M63.9175144,36.6574861 L63.9175144,38.2486812 C64.0163135,38.2486812 64.163755,38.2481134 64.3604068,38.2475456 C64.5570586,38.2469778 64.6670247,38.2460315 64.6887907,38.2450851 C64.815034,38.2356216 64.9195112,38.2081774 65.0024116,38.1633204 C65.1436072,38.0849625 65.2145835,37.9587192 65.2145835,37.7832657 C65.2145835,37.6496409 65.1772973,37.5529238 65.1027248,37.4934929 C65.0283416,37.4338728 64.9359777,37.3986685 64.826958,37.3867445 C64.9272713,37.366114 65.0024116,37.3356415 65.053136,37.2951377 C65.146257,37.219051 65.1933853,37.1005678 65.1933853,36.9379847 L65.1933853,36.7956534 C65.1933853,36.7801333 65.1945209,36.7646131 65.1964136,36.7490929 C65.1984956,36.7335728 65.202281,36.7180526 65.2079591,36.7025325 L65.2223436,36.6574861 L64.8252546,36.6574861 C64.8123842,36.7082106 64.8036778,36.7816474 64.798946,36.8774182 C64.7942143,36.9735675 64.7853186,37.0384872 64.7724482,37.0725558 C64.7518177,37.128012 64.7130173,37.167191 64.6556684,37.1891463 C64.6246281,37.2020167 64.5774998,37.2107231 64.5137157,37.2143193 L64.4222982,37.2205652 L64.3346661,37.2205652 L64.3346661,36.6574861 L63.9175144,36.6574861 Z M63.703639,38.2874817 C63.4750005,38.0539221 63.360492,37.7766412 63.360492,37.4562067 C63.360492,37.1238481 63.4768932,36.8412676 63.7093171,36.6088437 C63.9402269,36.3764198 64.219779,36.2603971 64.546838,36.2603971 C64.8723829,36.2603971 65.1509887,36.3773662 65.382277,36.6107364 C65.613376,36.8458101 65.7286416,37.1274442 65.7286416,37.4562067 C65.7286416,37.7755056 65.6135653,38.052408 65.3839804,38.2874817 C65.1513673,38.52653 64.8723829,38.6461488 64.546838,38.6461488 C64.2173185,38.6461488 63.9360629,38.52653 63.703639,38.2874817 L63.703639,38.2874817 Z M65.5514846,36.4260086 C65.2726895,36.1559199 64.9376811,36.020781 64.546838,36.020781 C64.1431246,36.020781 63.8024381,36.1589483 63.5261035,36.4352829 C63.2495797,36.7123745 63.1116016,37.0523039 63.1116016,37.4562067 C63.1116016,37.8754403 63.2605573,38.2236976 63.5592258,38.5017356 C63.8397243,38.7616037 64.1690546,38.8914431 64.546838,38.8914431 C64.9429807,38.8914431 65.2810174,38.7513831 65.5613267,38.4706953 C65.8420145,38.1901967 65.9822637,37.85216 65.9822637,37.4562067 C65.9822637,37.04814 65.8384183,36.704993 65.5514846,36.4260086 L65.5514846,36.4260086 Z" id="path26" fill="#8A0C3C"></path>
                        </g>
                    </g>
                </g>
            </g>
        </g>
    </g>
</svg>