<?xml version="1.0" encoding="UTF-8"?>
<svg width="200px" height="200px" viewBox="0 0 200 200" version="1.1" xmlns="http://www.w3.org/2000/svg" xmlns:xlink="http://www.w3.org/1999/xlink">
    <!-- Generator: Sketch 54.1 (76490) - https://sketchapp.com -->
    <title>boise-st</title>
    <desc>Created with Sketch.</desc>
    <g id="boise-st" stroke="none" stroke-width="1" fill="none" fill-rule="evenodd">
        <g id="boise-st_BGL" transform="translate(0.000000, 0.000000)">
            <g id="boise-st" transform="translate(0.000000, 18.000000)">
                <g id="g10" transform="translate(99.969995, 82.501053) scale(-1, 1) rotate(-180.000000) translate(-99.969995, -82.501053) translate(0.000000, 0.172822)" fill-rule="nonzero">
                    <g id="g12">
                        <path d="M198.209416,73.6420024 C198.209416,73.6420024 196.15145,65.9852369 196.15145,64.2191403 C196.15145,62.4487233 192.021597,55.3790565 185.55031,53.9081895 C185.55031,53.9081895 184.364832,47.4304219 167.287125,45.661445 C150.202937,43.890788 146.964773,51.2556843 144.310347,55.974076 C144.310347,55.974076 131.353132,65.4014985 119.867984,70.6942677 C119.867984,70.6942677 109.161473,68.6363019 98.8867662,70.5615344 C100.017759,66.4957679 108.962013,38.5310521 148.016078,25.6535247 L154.23726,23.5972631 C154.23726,23.5972631 128.417879,0 83.7167696,0 C56.4222008,0 32.2126605,10.2202458 17.3329249,27.3012894 C6.37882972,39.8708661 1.45777134,55.9899176 3.49657357,71.4484231 C4.84286817,81.7072887 9.1512989,91.6656443 16.0663182,100.733991 L9.37593736e-05,100.733991 C9.37593736e-05,100.733991 18.2692105,126.650582 59.5007486,144.616618 C59.5007486,144.616618 51.5441931,148.746711 41.5313521,151.099666 C41.5313521,151.099666 65.6837667,161.994355 103.965674,158.459762 L98.3731149,164.648781 C98.3731149,164.648781 112.217699,161.110827 128.705187,154.929489 L122.812598,161.110827 C122.812598,161.110827 156.923368,161.078904 160.759672,130.152052 C160.759672,130.152052 172.332669,124.369394 170.179174,111.43282 C170.179174,111.43282 185.84362,95.4333009 187.901345,94.5497726 C187.901345,94.5497726 204.982413,89.252203 198.209416,73.6420024" id="path14" fill="#FFFFFF"></path>
                        <path d="M160.920968,56.6869473 C155.93447,62.8507635 145.430299,67.2439227 145.430299,67.2439227 L153.182834,67.0747058 C153.182834,67.0747058 158.442,64.9915375 165.065222,59.2328818 C165.065222,59.2328818 173.095225,57.7380124 179.427778,58.3474333 C179.427778,58.3474333 171.989675,54.9083695 160.920968,56.6869473 Z M135.095346,88.0494427 C132.220819,85.5179097 129.057543,83.4985878 125.141551,82.6945074 C128.402037,84.340592 131.241281,87.6027581 133.005697,90.7516329 C134.766513,94.3853562 135.021899,98.1707746 133.276684,101.080346 C135.915268,99.0989474 137.269484,95.9503126 137.191236,92.3866764 C143.289525,89.0448223 153.171553,82.3978377 157.504226,77.5342315 L154.157332,80.0624042 C149.579114,82.2989478 141.308367,88.3477926 136.299547,89.6014379 L135.095346,88.0494427 Z M123.474824,116.547012 C126.616979,112.522289 132.105847,109.915869 137.089225,108.03192 C132.63702,105.838581 128.105367,105.296367 124.707588,107.62988 C122.719949,109.742091 121.712088,113.369334 123.474824,116.547012 Z M169.671763,76.599338 C169.885624,77.5133494 171.022858,77.7653746 171.906866,78.0142795 C175.312327,77.5947175 177.523188,74.8879669 178.135729,72.5890171 C177.234679,73.9530735 175.797415,75.3804962 173.812897,75.878546 C173.058502,76.009119 171.83822,75.8415823 171.383374,75.0778259 C170.509447,73.5620744 171.209597,72.0708053 171.793335,70.9299712 C170.617938,72.5635745 169.392615,74.2910272 169.671763,76.599338 L169.671763,76.599338 Z M112.865044,127.879025 L111.42322,129.017699 C109.594957,130.475604 106.297987,129.301887 104.141372,128.673264 C103.785416,131.538191 102.571855,134.289826 100.446922,135.867503 C102.190456,135.546831 103.551153,134.565613 104.788956,133.568794 C105.055143,133.509748 105.192677,133.744251 105.353493,133.911788 C104.155533,137.357332 99.82478,139.63828 96.5772553,141.321329 C101.652803,140.408997 107.218239,138.941251 110.92709,135.798856 C112.750312,133.682085 113.803297,130.938371 112.865044,127.879025 L112.865044,127.879025 Z M75.7700551,15.0852201 C62.2110996,15.7361892 51.0641451,21.5712206 51.0641451,21.5712206 C37.7843375,61.6448829 58.4002386,93.1091486 58.4002386,93.1091486 C58.4002386,93.1091486 43.321211,47.9567945 75.7700551,15.0852201 Z M185.971072,91.2621639 C185.971072,91.2621639 172.184334,104.0216 165.296606,110.72283 C165.296606,110.72283 170.502966,120.242901 156.74167,128.362193 C156.74167,134.93117 154.312147,147.578994 133.410858,154.782834 C133.410858,154.782834 129.808818,155.901106 133.082265,154.194056 C140.794956,150.171013 152.324749,142.359672 150.861802,126.790996 C150.861802,126.790996 166.663542,119.32553 155.226159,114.162133 C169.504226,102.142452 182.126848,87.4097788 182.126848,87.4097788 C193.101705,84.8861665 190.721627,79.9618342 190.721627,79.9618342 C190.838039,78.1578138 189.691204,74.2355817 189.54263,70.907889 C189.397655,67.5835567 185.14491,61.6369622 186.124448,66.6678651 C187.111666,71.697568 185.84362,73.0311413 185.84362,73.0311413 C185.84362,73.0311413 186.436959,70.1710153 183.088864,66.0697253 C179.74197,61.9525937 181.330689,66.4336017 181.330689,66.4336017 C187.221597,83.6469226 172.554211,84.7779157 169.470863,84.851123 C166.373113,84.92121 165.066903,87.8533431 165.066903,87.8533431 C158.062282,98.0987674 141.643441,108.8264 141.643441,108.8264 C146.371433,109.583916 147.886945,113.369334 147.886945,113.369334 C143.505067,111.52859 136.915448,111.163274 131.297206,117.821539 C125.660003,124.481245 116.564294,126.12733 116.564294,126.12733 C124.297627,138.467443 108.035041,143.578514 98.9299705,143.977194 C89.8215399,144.377554 87.4049783,149.708487 87.4049783,149.708487 C93.7120889,145.486225 97.8916267,146.856522 113.597357,144.505247 C129.300207,142.163573 123.33441,128.552052 123.33441,128.552052 C131.381935,127.649082 137.403657,122.745631 137.403657,122.745631 C137.403657,122.745631 144.788955,115.768374 146.23726,122.439361 C149.750011,138.666903 135.021899,147.331769 135.021899,147.331769 C127.025259,151.93855 110.542812,157.051061 110.542812,157.051061 C111.880945,155.583554 113.209718,152.854242 113.209718,152.854242 C83.6466826,159.979834 54.6020988,151.109267 54.6020988,151.109267 C57.2212407,150.429519 61.2968482,148.502607 64.525651,146.848601 L80.2729053,145.725529 C72.678546,144.83864 65.3534937,142.765073 58.4576043,140.002157 C38.5036894,131.364413 23.3515266,119.049742 15.1809657,111.450342 C10.823018,107.371614 8.36502829,104.6231 8.36502829,104.6231 L17.2196575,104.774555 C40.6269417,131.069184 74.9306912,136.908967 74.9306912,136.908967 C74.9306912,136.908967 44.2575446,126.73507 23.8968371,104.884726 L24.0789673,104.886406 C18.8052321,99.3831358 14.5524869,93.3962173 11.5280885,86.9950173 C11.0990456,86.0872466 10.5199877,84.7457525 10.4737591,84.6245403 C8.65192898,80.2666647 7.39509132,75.7381319 6.77777361,71.0449427 C2.04967292,35.1603952 36.5114902,3.77560147 83.7486928,3.3147794 C94.5257702,3.21106503 105.232521,4.76476436 115.184396,7.56123593 C73.9146696,32.9941786 78.2423023,66.0123596 78.2423023,66.0123596 C78.2423023,66.0123596 79.6188399,61.4437428 82.960694,55.0967883 C89.3095687,43.5000289 103.259283,24.145694 131.659403,13.6178094 C133.587755,14.484032 139.947671,17.5117187 146.983975,22.5077702 C102.431201,38.1626153 95.9359112,68.1276911 95.9359112,68.1276911 C80.2762656,68.0794462 74.4204002,76.0011982 73.4713453,77.3220503 C73.3962178,77.4399021 73.3436525,77.5133494 73.3436525,77.5133494 C65.1045888,68.8964879 64.2083392,58.0874873 64.2083392,58.0874873 C62.8824467,71.898468 66.5531336,81.0755455 69.567835,86.0937272 C67.3713755,93.7154492 70.7245107,101.396217 70.7245107,101.396217 C70.7245107,101.396217 70.1868569,97.304528 72.758234,91.4853863 C72.9113693,91.1265504 73.0947476,90.7739551 73.0947476,90.7739551 C82.9513331,69.9091492 120.797837,74.6229804 120.797837,74.6229804 C130.649622,70.2394222 147.609237,58.5471332 147.609237,58.5471332 C149.407017,50.462645 158.904767,48.8708059 158.904767,48.8708059 C158.904767,48.8708059 180.673503,49.0875475 182.611697,57.0505836 C190.2495,58.5118497 192.316827,65.2738057 192.316827,65.2738057 C192.523968,67.2883272 195.419377,78.2569437 195.419377,78.2569437 C197.888744,87.5804359 185.971072,91.2621639 185.971072,91.2621639 L185.971072,91.2621639 Z" id="path16" fill="#1E59AE"></path>
                        <path d="M137.089225,108.03192 C132.105847,109.915869 126.616979,112.522289 123.474824,116.547012 C121.712088,113.369334 122.719949,109.742091 124.707588,107.62988 C128.105367,105.296367 132.63702,105.838581 137.089225,108.03192" id="path18" fill="#FFFFFF"></path>
                        <path d="M165.065222,59.2328818 C158.442,64.9915375 153.182834,67.0747058 153.182834,67.0747058 L145.430299,67.2439227 C145.430299,67.2439227 155.93447,62.8507635 160.920968,56.6869473 C171.989675,54.9083695 179.427778,58.3474333 179.427778,58.3474333 C173.095225,57.7380124 165.065222,59.2328818 165.065222,59.2328818" id="path20" fill="#F3632A"></path>
                        <path d="M195.419377,78.2569437 C195.419377,78.2569437 192.523968,67.2883272 192.316827,65.2738057 C192.316827,65.2738057 190.2495,58.5118497 182.611697,57.0505836 C180.673503,49.0875475 158.904767,48.8708059 158.904767,48.8708059 C158.904767,48.8708059 149.407017,50.462645 147.609237,58.5471332 C147.609237,58.5471332 130.649622,70.2394222 120.797837,74.6229804 C120.797837,74.6229804 82.9513331,69.9091492 73.0947476,90.7739551 C73.0947476,90.7739551 72.9113693,91.1265504 72.758234,91.4853863 C70.1868569,97.304528 70.7245107,101.396217 70.7245107,101.396217 C70.7245107,101.396217 67.3713755,93.7154492 69.567835,86.0937272 C66.5531336,81.0755455 62.8824467,71.898468 64.2083392,58.0874873 C64.2083392,58.0874873 65.1045888,68.8964879 73.3436525,77.5133494 C73.3436525,77.5133494 73.3962178,77.4399021 73.4713453,77.3220503 C74.4204002,76.0011982 80.2762656,68.0794462 95.9359112,68.1276911 C95.9359112,68.1276911 102.431201,38.1626153 146.983975,22.5077702 C139.947671,17.5117187 133.587755,14.484032 131.659403,13.6178094 C103.259283,24.145694 89.3095687,43.5000289 82.960694,55.0967883 C79.6188399,61.4437428 78.2423023,66.0123596 78.2423023,66.0123596 C78.2423023,66.0123596 73.9146696,32.9941786 115.184396,7.56123593 C105.232521,4.76476436 94.5257702,3.21106503 83.7486928,3.3147794 C36.5114902,3.77560147 2.04967292,35.1603952 6.77777361,71.0449427 C7.39509132,75.7381319 8.65192898,80.2666647 10.4737591,84.6245403 C10.5199877,84.7457525 11.0990456,86.0872466 11.5280885,86.9950173 C14.5524869,93.3962173 18.8052321,99.3831358 24.0789673,104.886406 L23.8968371,104.884726 C44.2575446,126.73507 74.9306912,136.908967 74.9306912,136.908967 C74.9306912,136.908967 40.6269417,131.069184 17.2196575,104.774555 L8.36502829,104.6231 C8.36502829,104.6231 10.823018,107.371614 15.1809657,111.450342 C23.3515266,119.049742 38.5036894,131.364413 58.4576043,140.002157 C65.3534937,142.765073 72.678546,144.83864 80.2729053,145.725529 L64.525651,146.848601 C61.2968482,148.502607 57.2212407,150.429519 54.6020988,151.109267 C54.6020988,151.109267 83.6466826,159.979834 113.209718,152.854242 C113.209718,152.854242 111.880945,155.583554 110.542812,157.051061 C110.542812,157.051061 127.025259,151.93855 135.021899,147.331769 C135.021899,147.331769 149.750011,138.666903 146.23726,122.439361 C144.788955,115.768374 137.403657,122.745631 137.403657,122.745631 C137.403657,122.745631 131.381935,127.649082 123.33441,128.552052 C123.33441,128.552052 129.300207,142.163573 113.597357,144.505247 C97.8916267,146.856522 93.7120889,145.486225 87.4049783,149.708487 C87.4049783,149.708487 89.8215399,144.377554 98.9299705,143.977194 C108.035041,143.578514 124.297627,138.467443 116.564294,126.12733 C116.564294,126.12733 125.660003,124.481245 131.297206,117.821539 C136.915448,111.163274 143.505067,111.52859 147.886945,113.369334 C147.886945,113.369334 146.371433,109.583916 141.643441,108.8264 C141.643441,108.8264 158.062282,98.0987674 165.066903,87.8533431 C165.066903,87.8533431 166.373113,84.92121 169.470863,84.851123 C172.554211,84.7779157 187.221597,83.6469226 181.330689,66.4336017 C181.330689,66.4336017 179.74197,61.9525937 183.088864,66.0697253 C186.436959,70.1710153 185.84362,73.0311413 185.84362,73.0311413 C185.84362,73.0311413 187.111666,71.697568 186.124448,66.6678651 C185.14491,61.6369622 189.397655,67.5835567 189.54263,70.907889 C189.691204,74.2355817 190.838039,78.1578138 190.721627,79.9618342 C190.721627,79.9618342 193.101705,84.8861665 182.126848,87.4097788 C182.126848,87.4097788 169.504226,102.142452 155.226159,114.162133 C166.663542,119.32553 150.861802,126.790996 150.861802,126.790996 C152.324749,142.359672 140.794956,150.171013 133.082265,154.194056 C129.808818,155.901106 133.410858,154.782834 133.410858,154.782834 C154.312147,147.578994 156.74167,134.93117 156.74167,128.362193 C170.502966,120.242901 165.296606,110.72283 165.296606,110.72283 C172.184334,104.0216 185.971072,91.2621639 185.971072,91.2621639 C185.971072,91.2621639 197.888744,87.5804359 195.419377,78.2569437 Z M187.901345,94.5497726 C185.84362,95.4333009 170.179174,111.43282 170.179174,111.43282 C172.332669,124.369394 160.759672,130.152052 160.759672,130.152052 C156.923368,161.078904 122.812598,161.110827 122.812598,161.110827 L128.705187,154.929489 C112.217699,161.110827 98.3731149,164.648781 98.3731149,164.648781 L103.965674,158.459762 C65.6837667,161.994355 41.5313521,151.099666 41.5313521,151.099666 C51.5441931,148.746711 59.5007486,144.616618 59.5007486,144.616618 C18.2692105,126.650582 9.37593736e-05,100.733991 9.37593736e-05,100.733991 L16.0663182,100.733991 C9.1512989,91.6656443 4.84286817,81.7072887 3.49657357,71.4484231 C1.45777134,55.9899176 6.37882972,39.8708661 17.3329249,27.3012894 C32.2126605,10.2202458 56.4222008,0 83.7167696,0 C128.417879,0 154.23726,23.5972631 154.23726,23.5972631 L148.016078,25.6535247 C108.962013,38.5310521 100.017759,66.4957679 98.8867662,70.5615344 C109.161473,68.6363019 119.867984,70.6942677 119.867984,70.6942677 C131.353132,65.4014985 144.310347,55.974076 144.310347,55.974076 C146.964773,51.2556843 150.202937,43.890788 167.287125,45.661445 C184.364832,47.4304219 185.55031,53.9081895 185.55031,53.9081895 C192.021597,55.3790565 196.15145,62.4487233 196.15145,64.2191403 C196.15145,65.9852369 198.209416,73.6420024 198.209416,73.6420024 C204.982413,89.252203 187.901345,94.5497726 187.901345,94.5497726 L187.901345,94.5497726 Z" id="path22" fill="#F3632A"></path>
                        <path d="M58.4002386,93.1091486 C58.4002386,93.1091486 37.7843375,61.6448829 51.0641451,21.5712206 C51.0641451,21.5712206 62.2110996,15.7361892 75.7700551,15.0852201 C43.321211,47.9567945 58.4002386,93.1091486 58.4002386,93.1091486" id="path24" fill="#F3632A"></path>
                        <path d="M171.906866,78.0142795 C171.022858,77.7653746 169.885624,77.5133494 169.671763,76.599338 C169.392615,74.2910272 170.617938,72.5635745 171.793335,70.9299712 C171.209597,72.0708053 170.509447,73.5620744 171.383374,75.0778259 C171.83822,75.8415823 173.058502,76.009119 173.812897,75.878546 C175.797415,75.3804962 177.234679,73.9530735 178.135729,72.5890171 C177.523188,74.8879669 175.312327,77.5947175 171.906866,78.0142795" id="path26" fill="#F3632A"></path>
                        <path d="M96.5772553,141.321329 C99.82478,139.63828 104.155533,137.357332 105.353493,133.911788 C105.192677,133.744251 105.055143,133.509748 104.788956,133.568794 C103.551153,134.565613 102.190456,135.546831 100.446922,135.867503 C102.571855,134.289826 103.785416,131.538191 104.141372,128.673264 C106.297987,129.301887 109.594957,130.475604 111.42322,129.017699 L112.865044,127.879025 C113.803297,130.938371 112.750312,133.682085 110.92709,135.798856 C107.218239,138.941251 101.652803,140.408997 96.5772553,141.321329" id="path28" fill="#F3632A"></path>
                        <path d="M137.191236,92.3866764 C137.269484,95.9503126 135.915268,99.0989474 133.276684,101.080346 C135.021899,98.1707746 134.766513,94.3853562 133.005697,90.7516329 C131.241281,87.6027581 128.402037,84.340592 125.141551,82.6945074 C129.057543,83.4985878 132.220819,85.5179097 135.095346,88.0494427 L136.299547,89.6014379 C141.308367,88.3477926 149.579114,82.2989478 154.157332,80.0624042 L157.504226,77.5342315 C153.171553,82.3978377 143.289525,89.0448223 137.191236,92.3866764" id="path30" fill="#F3632A"></path>
                    </g>
                </g>
            </g>
        </g>
    </g>
</svg>