<?xml version="1.0" encoding="UTF-8"?>
<svg width="200px" height="200px" viewBox="0 0 200 200" version="1.1" xmlns="http://www.w3.org/2000/svg" xmlns:xlink="http://www.w3.org/1999/xlink">
    <!-- Generator: Sketch 54.1 (76490) - https://sketchapp.com -->
    <title>ga-southern</title>
    <desc>Created with Sketch.</desc>
    <g id="ga-southern" stroke="none" stroke-width="1" fill="none" fill-rule="evenodd">
        <g id="ga-southern_BGL">
            <g id="ga-southern" transform="translate(0.000000, 41.000000)">
                <g id="g10" transform="translate(99.916872, 58.896094) scale(-1, 1) rotate(-180.000000) translate(-99.916872, -58.896094) translate(0.000000, 0.043227)" fill-rule="nonzero">
                    <g id="g12">
                        <path d="M197.736321,83.7310037 C192.765747,92.1855339 184.71554,95.5328322 170.6783,96.1991663 C170.694925,96.4502054 170.719863,96.703572 170.719863,96.9529485 C170.719863,99.1408122 170.107726,101.22959 168.891101,103.143472 C163.528175,111.568077 146.281626,116.244719 116.163256,117.438069 L116.097753,117.440729 L1.17882291,117.498584 C1.17882291,117.498584 30.8415287,107.311386 47.7805474,95.748626 C23.9093593,85.3316687 13.9578051,50.9682448 13.9578051,50.9682448 C13.9578051,50.9682448 22.3511549,54.5832073 22.8777052,54.8083112 C2.67404482,30.7521522 0,0 0,0 C0,0 11.5102907,17.0467161 33.3862003,28.4152944 C29.9495919,21.3815789 26.7648539,14.8608808 26.4823601,14.2829257 L26.4181872,14.1456356 C25.9143801,13.0549955 25.6486444,11.8321527 25.6486444,10.606151 C25.6486444,9.12522005 26.0454191,7.68807961 26.7935488,6.44987515 C27.8879461,4.64867819 30.1463667,2.50779379 34.7185361,2.50779379 L161.428757,2.53429088 C167.688441,2.53429088 172.436571,3.27475636 176.521026,12.8631418 C176.526346,12.8735491 187.528175,38.9366574 187.528175,38.9366574 C187.815124,39.6355767 188.155606,40.476142 188.444551,41.3995002 C194.826928,55.2382364 203.787526,73.4367396 197.736321,83.7310037" id="path14" fill="#A0B7C1"></path>
                        <path d="M175.57406,58.071819 C183.593345,57.7655846 186.273977,55.574396 187.078965,49.1275133 C193.312713,60.3049029 211.451034,93.2688256 166.477801,92.9389835 C170.213795,101.834744 163.571068,112.190521 116.02959,114.075475 L19.8145298,114.122358 C19.8145298,114.122358 40.4315867,106.42294 54.6048199,94.8272628 C31.728345,88.0688257 19.9467327,57.2142962 19.9467327,57.2142962 C34.8944297,63.6555263 37.6189517,64.2251023 37.6189517,64.2251023 C14.8975225,50.198835 6.20947615,12.7271817 6.20947615,12.7271817 C6.20947615,12.7271817 18.2857851,28.0412296 41.4380705,36.8053191 C36.7584363,27.234247 29.6274972,12.6303904 29.6274972,12.6303904 L29.5971065,12.5662507 C29.3490267,12.0286614 29.1726343,11.3419449 29.1726343,10.606151 C29.1726343,9.88595154 29.3426427,9.11654175 29.7784199,8.39464651 C30.6765745,6.9150123 32.3377881,6.16558588 34.7185361,6.16558588 L161.427427,6.19182029 C167.049705,6.19182029 170.029588,6.67564406 173.296754,14.3408475 L184.299912,40.403989 C185.367909,43.0098077 186.001325,45.0872807 185.129837,46.7797162 C184.103404,48.7843712 181.732996,49.9787186 177.955773,49.964421 L127.380213,49.9408134 C133.861011,55.9391507 143.02643,57.6548614 147.370902,57.8048198 C152.466829,57.9800484 169.183371,58.3185355 175.57406,58.071819" id="path16" fill="#15356F"></path>
                        <path d="M147.969406,81.2332482 C146.233745,79.6172881 143.873646,78.7597653 141.413463,79.0959249 C137.565749,79.6186181 134.726846,82.8844535 134.422274,86.7714027 C118.164918,92.3547774 97.9544448,96.9137133 97.7173708,96.9672461 C97.6980857,96.9675786 97.6797981,96.9679111 97.669158,96.9682436 C89.7828739,98.6932644 61.6960916,104.271319 55.8836229,105.432416 C55.2019936,105.568742 54.8176212,105.686448 54.8176212,105.686448 C66.1682444,102.281627 84.3049023,92.5968389 87.6019928,90.8129653 C96.3590998,90.3275123 106.472815,88.6081441 118.088775,85.2006629 C118.088775,85.2006629 110.191186,85.6821259 99.3157082,85.4500394 C79.9817104,85.0111367 51.1730661,82.2280944 40.1895252,70.1559417 C49.7539472,73.8566898 63.5461331,75.0623423 73.9823755,73.1847031 C97.7772212,76.4954262 118.460512,66.6154597 118.460512,66.6154597 C108.685617,66.4252685 101.571735,61.4879453 101.571735,61.4879453 C101.571735,61.4879453 50.4911043,69.2192834 22.1470984,32.8356102 C22.1470984,32.8356102 40.3507887,51.1627585 66.9353267,51.1627585 C84.5908541,51.1627585 116.316872,51.1627585 116.316872,51.1627585 C116.316872,51.1627585 121.748958,61.1584357 136.6251,63.4450524 C132.327511,69.3536142 118.898418,74.4571885 118.898418,74.4571885 C138.802657,74.4571885 139.32934,73.5803805 144.504402,75.89925 C150.376056,78.5339964 150.861177,79.5620928 150.861177,79.5620928 C150.017286,80.1173712 149.046048,80.6753097 147.969406,81.2332482" id="path18" fill="#A0B7C1"></path>
                        <path d="M184.477468,72.1446366 C183.768241,79.836407 173.381209,80.3753928 173.381209,80.3753928 C172.014626,76.7634229 165.53948,77.6349108 165.53948,77.6349108 C173.256521,79.3755591 169.898583,82.4864485 169.898583,82.4864485 C187.640228,82.4714859 184.477468,72.1446366 184.477468,72.1446366 Z M164.812631,80.4146281 C164.102407,79.5328326 162.888109,78.9951767 162.097087,79.2192831 C161.305067,79.441062 161.231916,80.3338301 161.944801,81.2156256 C162.654028,82.0974211 163.868325,82.6327494 164.662673,82.411968 C165.457685,82.1891916 165.521858,81.2974211 164.812631,80.4146281 Z M175.57406,85.7576038 L162.743471,86.5925165 C162.743471,86.5925165 150.056189,76.8764736 160.531667,74.7268477 C160.531667,74.7268477 145.983039,72.848876 141.146796,69.0866151 C141.146796,69.0866151 143.566081,65.058685 145.179714,63.4450524 C145.179714,63.4450524 170.471816,63.9830408 176.377718,63.4450524 C176.377718,63.4450524 165.170736,67.6418936 149.74663,65.5059003 L148.135657,67.8320848 C154.56658,70.521029 172.085116,69.3536142 172.085116,69.3536142 C172.085116,69.3536142 182.702905,68.521029 186.493761,62.0684939 C186.493761,62.0684939 198.407643,84.9336637 175.57406,85.7576038 L175.57406,85.7576038 Z" id="path20" fill="#927F3B"></path>
                        <path d="M58.0857841,43.0327504 L53.6222763,34.3657514 C53.3376545,33.8128005 53.0543628,33.1048703 53.3941799,32.5506559 C53.6561915,32.1213957 54.2001649,31.9159094 55.0580202,31.9212295 L57.100913,31.9212295 L58.7986685,35.2159592 C58.7986685,35.2159592 57.515543,35.2159592 57.0141299,35.2159592 C57.3931823,35.9514538 57.9547783,37.0420606 58.1210293,37.3659176 C58.5998323,37.3659176 64.4402311,37.3659176 65.6568562,37.3659176 C65.0876127,36.2590182 61.9840384,30.2307889 61.7586019,29.7962087 C61.2182861,29.7962087 49.3765574,29.7962087 49.3765574,29.7962087 C47.7931825,29.7962087 46.7644211,30.1137815 46.4016614,30.7131829 C46.2829581,30.9083949 46.2377378,31.1338978 46.2377378,31.3655853 C46.2377378,32.0544963 46.6370728,32.8202818 46.7956763,33.1251197 C46.7956763,33.1251197 50.7354933,41.1331661 52.0428915,42.9306722 C53.3516196,44.7291759 56.5230244,45.1827088 57.5581033,45.1827088 C58.5935147,45.1827088 68.6054846,45.1827088 69.7868644,45.1827088 C69.3346616,44.3002483 68.2965901,42.2716531 68.107729,41.9025758 C67.6531986,41.9025758 63.7938471,41.9025758 62.6716526,41.9025758 C62.7840383,42.1220272 63.2498737,43.0327504 63.2498737,43.0327504 L58.0857841,43.0327504 Z M68.674645,40.9755601 L71.2980863,46.1077295 C71.2980863,46.1077295 59.8743127,46.1077295 58.1147118,46.1077295 C56.3577708,46.1077295 52.4711541,45.8653355 50.6031575,42.5310048 C49.6887768,40.8987521 45.9757262,33.5534489 45.9757262,33.5534489 C45.7642549,33.1491596 45.3083945,32.2736152 45.3083945,31.3696085 C45.3083945,30.9828421 45.3915201,30.5948787 45.6103064,30.2320857 C46.1659174,29.3164082 47.3978376,28.8718197 49.3765574,28.8718197 L62.324188,28.8718197 L67.1730657,38.2916034 L57.5571058,38.2916034 L55.494928,34.2902735 C55.494928,34.2902735 56.779716,34.2902735 57.2811291,34.2902735 C56.9762247,33.7007473 56.6779703,33.1199327 56.5379869,32.8441887 C56.138652,32.8441887 55.0556927,32.8441887 55.0556927,32.8441887 C54.3225257,32.8415952 54.1965074,33.0131663 54.1838723,33.0321189 C54.1738972,33.0470815 54.1625922,33.0773392 54.1625922,33.1365578 C54.1625922,33.256192 54.21413,33.490606 54.4458839,33.9388188 C54.4458839,33.9411463 57.9534483,40.7524512 58.6503726,42.1067321 C59.0430575,42.1067321 60.8116361,42.1067321 61.7373218,42.1067321 C61.6249361,41.8876133 61.1577707,40.9755601 61.1577707,40.9755601 L68.674645,40.9755601 L68.674645,40.9755601 Z" id="path22" fill="#927F3B"></path>
                        <path d="M79.2003305,41.3220272 L77.9773879,39.029758 C77.9773879,39.029758 83.1916854,39.029758 84.3830403,39.029758 C83.9890253,38.2879458 83.4071467,37.193349 83.2382357,36.8784696 C82.7308375,36.8784696 76.8322508,36.8784696 76.8322508,36.8784696 L74.1961744,31.9212295 L79.9108874,31.9212295 C80.4182856,31.9144797 80.8199481,31.7699078 81.0367395,31.5128837 C81.1600977,31.3696085 81.2206131,31.1893592 81.2206131,30.9765911 C81.2206131,30.9323018 81.2142956,30.8845213 81.207978,30.839301 C81.1461326,30.7208637 80.8049855,30.0784365 80.639732,29.7708721 C80.1323338,29.7708721 67.945468,29.7708721 66.5848695,29.7708721 C67.2299235,30.9815454 72.7175377,41.2954271 72.7175377,41.2954271 L72.7251852,41.3093922 L72.7301727,41.3256848 C72.8019932,41.4846207 74.5263489,45.1827088 79.6295907,45.1827088 C79.6295907,45.1827088 87.3506213,45.1827088 88.6580194,45.1827088 C88.2650019,44.4408966 87.6831233,43.3482948 87.5142123,43.0327504 C87.0154592,43.0327504 82.5366563,43.0327504 82.5366563,43.0327504 C80.5280113,43.0327504 79.6136306,42.1040721 79.2003305,41.3220272 L79.2003305,41.3220272 Z M82.5366563,42.1067321 L88.0698232,42.1067321 L90.199499,46.1077295 L79.6295907,46.1077295 C74.0036557,46.1077295 72.0385684,42.0349117 71.89526,41.7223597 C71.8862825,41.7073971 65.0420599,28.8442886 65.0420599,28.8442886 L81.1953429,28.8442886 L82.1034061,30.5533159 L82.1173712,30.6300574 C82.1373213,30.7474639 82.1462989,30.8655354 82.1462989,30.9789186 C82.1462989,31.4111713 82.0103055,31.7965412 81.7433064,32.1124181 C81.3529489,32.5762253 80.7029074,32.8382037 79.913215,32.8441887 C79.913215,32.8441887 76.8349108,32.8441887 75.7366565,32.8441887 C76.2001643,33.7170399 77.2003306,35.5976716 77.3891917,35.9527838 C77.8979199,35.9527838 83.7961741,35.9527838 83.7961741,35.9527838 L85.9248524,39.9554437 C85.9248524,39.9554437 80.7105549,39.9554437 79.5188675,39.9554437 C79.7605965,40.408644 80.0162906,40.890107 80.0162906,40.890107 C80.4458833,41.6960921 81.2924335,42.1067321 82.5366563,42.1067321 L82.5366563,42.1067321 Z" id="path24" fill="#927F3B"></path>
                        <path d="M120.318201,41.1531162 C120.318201,41.1531162 119.887279,40.3507887 119.702075,40.0069815 C119.494261,39.9351611 118.287944,39.5122185 117.26018,39.1517862 C117.781543,40.1230248 118.377387,41.2312542 118.53466,41.5248535 C118.906398,41.5248535 119.779216,41.5248535 119.779216,41.5248535 C120.232416,41.5248535 120.382374,41.4669981 120.426597,41.440398 C120.425267,41.4088103 120.413962,41.3256848 120.318201,41.1531162 L120.318201,41.1531162 Z M119.779216,42.4505393 L117.983039,42.4505393 L115.312715,37.4892759 L120.348459,39.2541969 L121.134162,40.7135484 C121.392516,41.1910214 121.424103,41.5966739 121.233912,41.9152109 C120.950288,42.3886939 120.306896,42.4505393 119.779216,42.4505393 L119.779216,42.4505393 Z" id="path26" fill="#927F3B"></path>
                        <path d="M128.47481,43.1660837 C128.47215,43.1644212 126.248043,39.0812958 126.08811,38.7903565 C125.775558,38.6809633 120.800662,36.940315 120.800662,36.940315 C120.800662,36.940315 123.508559,35.3935153 124.08545,35.0660008 C123.733663,34.4036567 121.488276,30.1892262 121.26683,29.7708721 C120.80964,29.7708721 116.44289,29.7708721 115.276473,29.7708721 C115.794178,30.7461671 117.481959,33.9288437 117.481959,33.9288437 L114.46018,35.908561 C114.46018,35.908561 111.432084,30.2195171 111.192017,29.7708721 C110.734827,29.7708721 106.168908,29.7708721 104.986199,29.7708721 C105.648875,31.0041223 113.030754,44.7278459 113.27481,45.1827088 C113.803821,45.1827088 125.450703,45.1827088 125.450703,45.1827088 C126.440562,45.1790512 128.172565,44.9143796 128.59052,44.2118027 C128.622108,44.1612624 128.684951,44.0515367 128.684951,43.8646706 C128.684951,43.6997495 128.637403,43.4743131 128.47481,43.1660837 L128.47481,43.1660837 Z M129.38786,44.6859507 C128.564253,46.0618442 125.764253,46.1077295 125.451701,46.1077295 L112.997836,46.1077295 L112.721859,46.1077295 L103.436739,28.8442886 L111.748626,28.8442886 C111.748626,28.8442886 114.39501,33.8141305 114.801327,34.5785528 C115.251202,34.2839559 115.878301,33.8733159 116.268659,33.6176218 C115.937487,32.9905561 113.737321,28.8442886 113.737321,28.8442886 L121.821776,28.8442886 L125.326015,35.423773 C125.326015,35.423773 123.848376,36.2650032 123.023771,36.7361587 C124.210138,37.1517863 126.731501,38.0322518 126.731501,38.0322518 L129.28944,42.729841 C129.526181,43.1660837 129.609307,43.5467986 129.609307,43.8620105 C129.609307,44.2118027 129.504901,44.4854519 129.38786,44.6859507 L129.38786,44.6859507 Z" id="path28" fill="#927F3B"></path>
                        <path d="M138.418617,43.0327504 L133.957436,34.3657514 C133.672815,33.8128005 133.385533,33.1048703 133.727012,32.5506559 C133.988692,32.1213957 134.532997,31.9159094 135.39185,31.9212295 L137.436073,31.9212295 L139.131501,35.2159592 C139.131501,35.2159592 137.848043,35.2159592 137.34796,35.2159592 C137.727012,35.9514538 138.288941,37.0420606 138.455192,37.3659176 C138.934992,37.3659176 144.774061,37.3659176 145.990686,37.3659176 C145.420113,36.2590182 142.316538,30.2307889 142.091102,29.7962087 C141.552116,29.7962087 129.710387,29.7962087 129.710387,29.7962087 C128.127013,29.7962087 127.099581,30.1137815 126.734161,30.7131829 C126.618118,30.9070981 126.57057,31.1338978 126.57057,31.3655853 C126.57057,32.0544963 126.970903,32.8202818 127.128176,33.1251197 L130.868825,40.2906058 C132.221776,42.9187022 133.380545,45.1704062 137.893263,45.1827088 C137.893263,45.1827088 148.940312,45.1827088 150.119364,45.1827088 C149.669489,44.3002483 148.63175,42.2716531 148.441559,41.9025758 C147.988359,41.9025758 144.12668,41.9025758 143.005483,41.9025758 C143.118866,42.1220272 143.584036,43.0327504 143.584036,43.0327504 L138.418617,43.0327504 Z M149.008475,40.9755601 L151.633579,46.1077295 L137.892266,46.1077295 C132.816289,46.0954269 131.410471,43.37024 130.056522,40.7374886 C130.047877,40.7175385 126.308559,33.5534489 126.308559,33.5534489 C126.007312,32.9752278 125.210304,31.4446875 125.944469,30.2320857 C126.49875,29.3164082 127.731668,28.8718197 129.710387,28.8718197 L142.655691,28.8718197 L147.507228,38.2916034 L137.890936,38.2916034 L135.830088,34.2902735 C135.830088,34.2902735 137.112549,34.2902735 137.613962,34.2902735 C137.311385,33.7007473 137.01047,33.1199327 136.869157,32.8441887 C136.471152,32.8441887 135.389523,32.8441887 135.389523,32.8441887 C134.653696,32.8415952 134.52801,33.0131663 134.518035,33.0321189 C134.507727,33.0470815 134.497752,33.0773392 134.497752,33.1365578 C134.497752,33.254862 134.54929,33.490606 134.778384,33.9388188 C134.778384,33.9411463 138.286281,40.7524512 138.982873,42.1067321 C139.376888,42.1067321 141.144136,42.1067321 142.069822,42.1067321 C141.956439,41.8876133 141.490603,40.9755601 141.490603,40.9755601 L149.008475,40.9755601 L149.008475,40.9755601 Z" id="path30" fill="#927F3B"></path>
                        <path d="M151.930503,29.7708721 C151.474643,29.7708721 147.099248,29.7708721 145.931501,29.7708721 C146.58653,30.9988022 153.889273,44.7248534 154.133329,45.1827088 C154.58786,45.1827088 158.964585,45.1827088 160.132332,45.1827088 C159.477303,43.9521186 152.172565,30.2244381 151.930503,29.7708721 L151.930503,29.7708721 Z M160.902074,46.1077295 L153.576721,46.1077295 L144.391019,28.8442886 L152.487112,28.8442886 L161.674144,46.1077295 L160.902074,46.1077295 L160.902074,46.1077295 Z" id="path32" fill="#927F3B"></path>
                        <path d="M171.406147,40.5359923 C171.402489,40.5296748 169.712381,36.8731495 169.238566,35.8520357 C168.902406,35.8520357 168.068491,35.8520357 167.296421,35.8520357 C167.985366,36.94896 170.74879,41.3496249 170.979214,41.7177047 C171.603986,41.6974221 171.704734,41.5614287 171.707394,41.5537812 C171.716039,41.5421436 171.727344,41.5172059 171.727344,41.4683281 C171.727344,41.3496249 171.671816,41.0902733 171.406147,40.5359923 L171.406147,40.5359923 Z M170.717203,42.6440555 L170.467826,42.6390679 L165.623936,34.9276799 L169.83308,34.9276799 L172.24372,40.1419774 C172.546297,40.7730663 172.843553,41.5005808 172.488109,42.0548618 C172.138317,42.6001652 171.357269,42.6560255 170.717203,42.6440555 L170.717203,42.6440555 Z" id="path34" fill="#927F3B"></path>
                        <path d="M178.285615,41.0536981 L178.277967,41.0334154 C178.277967,41.0334154 173.519863,30.2935321 173.285449,29.7708721 C172.796671,29.7708721 168.488109,29.7708721 167.389522,29.7708721 C167.752282,30.569542 168.757768,32.7774223 168.757768,32.7774223 L163.684451,32.7774223 C163.684451,32.7774223 161.980378,30.1349618 161.743304,29.7708721 C161.335324,29.7708721 156.970902,29.7708721 155.623604,29.7708721 C156.607145,31.0985528 166.772731,44.8325841 167.029422,45.1827088 C167.467992,45.1827088 174.590519,45.1827088 174.590519,45.1827088 C176.771733,45.1827088 178.186197,44.7614286 178.679962,43.9670812 C178.828591,43.7280122 178.899081,43.4433904 178.899081,43.1125509 C178.899081,42.5609299 178.698915,41.8812957 178.285615,41.0536981 Z M179.464667,44.4545292 C178.774725,45.5680787 177.183703,46.1090595 174.590519,46.1077295 L166.796338,46.1077295 L166.564917,46.1077295 L153.786862,28.8442886 L162.247377,28.8442886 C162.247377,28.8442886 163.952448,31.4866493 164.18919,31.8530333 C164.550619,31.8530333 166.412298,31.8530333 167.318034,31.8530333 C166.953944,31.0507723 165.951451,28.8442886 165.951451,28.8442886 L173.889937,28.8442886 L179.12086,40.6580206 L179.113212,40.641728 C179.927843,42.2766407 180.043886,43.5238559 179.464667,44.4545292 L179.464667,44.4545292 Z" id="path36" fill="#927F3B"></path>
                        <path d="M47.8965907,24.4761756 L46.8914369,22.6397667 C46.4834569,21.8929338 46.261678,21.2971566 46.508727,20.8033245 C46.7704061,20.2769072 47.4014951,20.1485947 48.3361584,20.0149288 L48.3501235,20.0123353 L50.920697,19.8045215 C51.80748,19.7252863 52.4648366,19.4040893 52.7192007,18.9253528 C53.01014,18.3773561 52.7391508,17.6707893 52.4648366,17.1733329 C52.4608466,17.1647544 50.2530328,13.0134328 50.2530328,13.0134328 C49.1334984,10.9702408 45.3915201,10.8898418 45.3522848,10.888412 L38.5748951,10.8898418 C37.3985028,10.8898418 36.6241055,11.124156 36.3404812,11.571471 C36.2423931,11.7236905 36.2108054,11.8935658 36.2108054,12.0508725 C36.2108054,12.33453 36.3128835,12.5689772 36.3205311,12.5915541 C36.3404812,12.6241726 37.5344962,14.8042557 37.754945,15.2046879 C38.229758,15.2046879 41.4729832,15.2046879 41.4729832,15.2046879 C42.2021602,15.1887278 42.6696581,15.0120695 42.4970895,14.6204818 C42.3255185,14.2287611 42.0222766,13.6003654 42.2839557,13.1743638 C42.5346623,12.771471 43.0650031,12.7135159 43.5501236,12.7135159 L45.0274303,12.7135159 L46.4608467,15.3306729 C46.6231077,15.6256355 46.7843712,15.9771235 46.7843712,16.3248209 C46.7843712,16.4857519 46.749126,16.6447211 46.6633405,16.7956438 C46.3700737,17.3243886 45.6305891,17.4354443 44.8738143,17.477007 C44.8684943,17.477007 42.56492,17.5876637 42.56492,17.5876637 C40.2084778,17.753017 40.0964246,19.1344634 40.0964246,19.2944634 C40.0964246,19.4607144 40.1329998,19.7126845 40.2550281,20.0867493 L40.4502068,20.6912381 C40.4502068,20.6912381 41.5497911,22.7797833 42.6177878,24.496425 C43.6871145,26.2130999 46.5725674,26.3013127 47.7163745,26.3013127 C48.8611792,26.3013127 57.2635065,26.3013127 57.2635065,26.3013127 L55.5228581,23.0210801 C55.5228581,23.0210801 51.9118857,23.0210801 50.8259339,23.0210801 C51.0290927,23.406849 51.5933487,24.4761756 51.5933487,24.4761756 L47.8965907,24.4761756 Z M56.0821266,22.0967243 L58.7737309,27.2269985 L58.0179537,27.2269985 C58.0179537,27.2269985 49.6950944,27.2269985 47.3399822,27.2269985 C44.9832075,27.2269985 42.6656681,26.4901407 41.7576049,24.8325846 C40.9529499,23.366184 39.7020771,21.3223602 39.2199491,19.7745298 C38.7371561,18.2274642 40.2387355,16.8335823 42.3082284,16.7112215 C42.3155434,16.7099248 44.824604,16.553682 44.824604,16.553682 C45.6997495,16.5061343 45.8334153,16.1131168 45.6508717,15.7752615 C45.6508717,15.7752615 44.6935982,14.0281958 44.4794669,13.6404984 C44.1532824,13.6404984 43.5501236,13.6404984 43.5501236,13.6404984 C43.298087,13.6404984 43.1707387,13.660914 43.1042383,13.6784369 C43.1218609,13.7576721 43.1733988,13.9075641 43.3230247,14.2025267 C43.450373,14.452934 43.4969233,14.6733496 43.4969233,14.859451 C43.4969233,15.0866164 43.4290928,15.2638068 43.3522849,15.3938151 C42.9995002,15.979717 42.1406473,16.1184368 41.4829582,16.1293429 L37.2059841,16.1293429 L35.500581,13.018121 C35.4689933,12.9543471 35.0018279,11.9591684 35.5534488,11.0825932 C36.0206142,10.3408144 37.0370731,9.96272627 38.5748951,9.96272627 L45.3599324,9.96272627 C45.539816,9.96545278 49.6837893,10.0498751 51.0666654,12.5734993 C51.0693254,12.5775558 53.2784692,16.7301741 53.2784692,16.7301741 C53.6435564,17.3902573 53.7709047,17.9404484 53.7709047,18.3877635 C53.7709047,18.7957103 53.6651691,19.118204 53.5391508,19.3589023 C53.1348283,20.118337 52.2091425,20.6185199 50.9998325,20.7251533 C50.996175,20.7251533 48.6068151,20.920731 48.4531991,20.9329671 C48.1835399,20.9708723 47.4191177,21.0842555 47.3346622,21.2189521 C47.3336647,21.2202488 47.3296746,21.2315539 47.3296746,21.2592181 C47.3296746,21.3472979 47.3725674,21.5917202 47.7050695,22.1964749 C47.7050695,22.1964749 48.2024926,23.1042056 48.4442216,23.5517866 C48.7428084,23.5517866 49.39418,23.5517866 50.0591841,23.5517866 C49.8550278,23.16512 49.2921018,22.0967243 49.2921018,22.0967243 L56.0821266,22.0967243 L56.0821266,22.0967243 Z" id="path38" fill="#927F3B"></path>
                        <path d="M66.8621762,22.7770568 C66.8621762,22.7770568 62.6666651,15.1182041 61.8606801,13.6468825 C61.518203,13.6468825 60.8545288,13.6468825 60.8545288,13.6468825 C60.7650858,13.6468825 60.6490425,13.6834909 60.6300899,13.7137486 C60.6251024,13.7236239 60.6201149,13.7440396 60.6201149,13.7742972 C60.6201149,13.8672981 60.6576876,14.051205 60.8216111,14.3508558 C60.8216111,14.3521526 65.0497074,22.0651366 65.8596825,23.5428423 C66.1908545,23.5428423 66.7953433,23.5428423 66.8232735,23.5428423 C66.8897739,23.5391848 67.0221097,23.5025763 67.0536974,23.4480127 C67.061345,23.4320526 67.06733,23.4032247 67.06733,23.3648872 C67.06733,23.2595505 67.0234397,23.0692929 66.8621762,22.7770568 L66.8621762,22.7770568 Z M66.8558587,24.4838564 L65.301744,24.4838564 L59.999001,14.8029589 C59.6428913,14.1543139 59.5860334,13.6253031 59.8264324,13.2286613 C60.1416444,12.7072981 60.7913534,12.7072981 60.8645039,12.7072981 L62.4159585,12.7072981 L67.6871139,22.3258182 C68.0408961,22.9722688 68.1014114,23.5062006 67.86733,23.9145464 C67.5637556,24.4459179 66.9290091,24.4811299 66.8558587,24.4838564 L66.8558587,24.4838564 Z" id="path40" fill="#927F3B"></path>
                        <path d="M73.8397322,24.6198165 L67.6618437,13.3473646 C66.339483,10.9327013 62.7976709,10.8960596 62.7637557,10.8960596 L56.1110543,10.8960596 C54.4182863,10.8960596 53.9308382,11.2967578 53.7885273,11.5358601 C53.728012,11.6379714 53.7040718,11.7539482 53.7040718,11.8750122 C53.7040718,12.2527013 53.9394833,12.6809307 54.0428914,12.8697919 C54.0428914,12.8697919 59.9890259,23.7180376 60.2270974,24.1486278 C60.3315031,24.3063003 61.7499569,26.2962254 65.0623425,26.2962254 L71.4643374,26.2962254 C72.1293415,26.2936319 73.6169558,26.0997167 73.9620929,25.5152446 C74.0099732,25.4344466 74.1522841,25.1930168 73.8397322,24.6198165 L73.8397322,24.6198165 Z M74.772068,25.9926843 C74.060181,27.1952778 71.727679,27.2332163 71.4656674,27.2332163 L65.0623425,27.2332163 C61.1577707,27.2332163 59.5002479,24.7558099 59.4297575,24.652701 L59.4211124,24.6347791 L53.2206138,13.3230587 C53.0128,12.9453696 52.4598491,11.9402158 52.9785523,11.0586863 C53.41679,10.3165417 54.4422264,9.959102 56.1110543,9.959102 L62.7637557,9.959102 C62.9313367,9.95647523 66.8924339,9.98806293 68.4857838,12.8961593 L74.6623423,24.1686112 C75.1358252,25.0286943 74.9822093,25.6348788 74.772068,25.9926843 L74.772068,25.9926843 Z" id="path42" fill="#927F3B"></path>
                        <path d="M114.93732,10.7085284 C114.500413,10.7085284 111.218285,10.7085284 110.111385,10.7085284 C110.699249,11.8168243 113.695758,17.4832581 113.695758,17.4832581 L110.177886,17.4832581 C110.177886,17.4832581 106.84023,11.1707728 106.595841,10.7085284 C106.156273,10.7085284 102.88412,10.7085284 101.776889,10.7085284 C102.439233,11.9541144 109.856689,25.8390351 110.101078,26.2985862 C110.540646,26.2985862 113.807811,26.2985862 114.92003,26.2985862 C114.331834,25.2029919 111.514212,19.9657185 111.514212,19.9657185 L115.037071,19.9657185 C115.037071,19.9657185 118.198501,25.8426926 118.443887,26.2985862 C118.879798,26.2985862 122.158268,26.2985862 123.267827,26.2985862 C122.600496,25.0530002 115.184702,11.1680463 114.93732,10.7085284 Z M106.794677,24.0266661 C106.255691,24.0266661 102.441893,24.0239395 102.441893,24.0239395 C102.441893,24.0239395 95.6708206,11.1807811 95.4191165,10.7046049 C94.9805463,10.7046049 91.6265979,10.7046049 90.5270135,10.7046049 C91.1707375,11.92655 97.5514523,24.0279628 97.5514523,24.0279628 C97.5514523,24.0279628 94.052533,24.0139312 92.8897732,24.010041 C93.7738962,25.2279295 95.0437216,26.3013127 97.3359909,26.3013127 L105.199,26.3013127 C106.143638,26.3013127 106.761095,26.1210301 106.984868,25.7835738 C107.067994,25.6574557 107.109557,25.4939312 107.109557,25.2908057 C107.109557,24.9713044 106.998834,24.5492928 106.794677,24.0266661 L106.794677,24.0266661 Z M85.0696571,13.3473646 C83.7482938,10.9327013 80.2091418,10.8960596 80.1715691,10.8960596 L73.5198652,10.8960596 C71.8284271,10.8960596 71.3396491,11.2967578 71.1973382,11.5358601 C71.1368228,11.6392682 71.1132152,11.7539482 71.1132152,11.8750122 C71.1132152,12.2527013 71.3499567,12.6796339 71.4530323,12.8697919 C71.4530323,12.8697919 77.8201144,24.4864499 78.8099731,26.2962254 C79.2455508,26.2962254 82.5772215,26.2962254 83.7057336,26.2962254 C83.0290919,25.0603818 77.4523671,14.8837569 77.4523671,14.8837569 C77.2116356,14.4418949 76.9985018,14.0123687 76.9985018,13.6253031 C76.9985018,13.4693263 77.0327495,13.3197004 77.115875,13.1757935 C77.3928493,12.7072981 78.0202807,12.7072981 78.2267645,12.7072981 L79.8237719,12.7072981 C79.8237719,12.7072981 87.0141292,25.8251365 87.2711533,26.2962254 C87.7070635,26.2962254 91.0370717,26.2962254 92.1659162,26.2962254 C91.4806295,25.0414291 85.0696571,13.3473646 85.0696571,13.3473646 L85.0696571,13.3473646 Z M124.045217,27.2319195 L117.883621,27.2319195 C117.883621,27.2319195 114.720862,21.3553444 114.4788,20.9003486 C114.194511,20.9003486 113.685783,20.9003486 113.079631,20.9003486 C113.667828,21.9933162 116.48678,27.2319195 116.48678,27.2319195 L109.543139,27.2319195 L107.691435,23.768179 C107.880629,24.2583535 108.035575,24.7873643 108.035575,25.2897749 C108.035575,25.6461839 107.956107,25.9899578 107.758601,26.2909054 C107.344968,26.9209636 106.507728,27.2269985 105.19767,27.2269985 L97.3373209,27.2269985 C95.0310866,27.2269985 93.5940126,26.2723518 92.6064815,25.13975 L93.7526161,27.2332163 L92.9592662,27.2332163 L86.7158748,27.2332163 C86.7158748,27.2332163 79.5265151,14.1181044 79.2681609,13.6468825 C78.9220263,13.6468825 78.2267645,13.6468825 78.2267645,13.6468825 C78.0731485,13.6468825 77.988693,13.6632416 77.9421427,13.6758434 C77.9547778,13.7666164 78.0212782,13.9667827 78.2759748,14.4316206 L85.2914359,27.2332163 L78.2533646,27.2332163 L70.6304222,13.3216289 C70.4226084,12.9443388 69.8686599,11.9387861 70.3886932,11.0586863 C70.8259334,10.3165417 71.8510373,9.959102 73.5198652,9.959102 L80.1715691,9.959102 C80.3414776,9.95647523 84.3025748,9.98806293 85.8959247,12.8961593 L91.4739794,23.0766744 C92.3557749,23.0819944 95.1092246,23.090573 96.0136302,23.0956603 C95.3662487,21.8686279 88.9918515,9.78024913 88.9918515,9.78024913 L95.9780525,9.78024913 C95.9780525,9.78024913 102.750455,22.6220776 102.999831,23.0982538 C103.449706,23.0995505 106.79102,23.1009803 107.334993,23.1018781 L100.216456,9.77386509 L107.158767,9.77386509 C107.158767,9.77386509 110.496755,16.0877801 110.740812,16.547697 C111.023106,16.547697 111.536822,16.547697 112.143971,16.547697 C111.557104,15.4404319 108.562258,9.77386509 108.562258,9.77386509 L115.497919,9.77386509 L124.823605,27.2319195 L124.045217,27.2319195 L124.045217,27.2319195 Z" id="path44" fill="#927F3B"></path>
                        <polygon id="path46" fill="#927F3B" points="130.905513 11.1782897 130.86018 11.084023 130.86018 11.084023"></polygon>
                        <path d="M130.153613,22.4295921 L128.913047,20.118337 C128.913047,20.118337 132.629756,20.118337 133.727012,20.118337 C133.326347,19.3725348 132.740479,18.2797003 132.569573,17.9630253 C132.074145,17.9630253 127.752948,17.9630253 127.752948,17.9630253 L125.072981,12.9792848 L129.049041,12.9792848 C129.676472,12.9792848 130.095757,12.85187 130.231751,12.6191186 C130.274643,12.5446713 130.297254,12.4541643 130.297254,12.3445383 C130.297254,12.1239897 130.207811,11.8419947 130.038899,11.5322358 L130.032914,11.5205317 C130.032914,11.5205317 129.790853,11.0094428 129.649872,10.7085284 C129.124519,10.7085284 120.353447,10.7085284 119.031086,10.7085284 C119.684785,11.9351285 125.260512,22.3966079 125.260512,22.3966079 C125.345965,22.5751948 127.145799,26.2985862 131.127179,26.2985862 C131.127179,26.2985862 136.588525,26.2985862 137.844386,26.2985862 C137.441061,25.5517533 136.854194,24.4585198 136.684286,24.1436735 C136.202158,24.1436735 133.054361,24.1436735 133.054361,24.1436735 C131.759598,24.1436735 130.755774,23.5517866 130.153613,22.4295921 L130.153613,22.4295921 Z M133.054361,23.2090435 L137.242224,23.2090435 L139.408475,27.2319195 L131.127179,27.2319195 C126.546298,27.2319195 124.509723,22.9935489 124.42294,22.8159928 L117.839399,10.4614794 L117.472981,9.77386509 L130.239398,9.77386509 L130.86018,11.084023 C131.283455,11.8596838 131.346298,12.5734993 131.037736,13.0952615 C130.712881,13.6383039 130.04555,13.9152116 129.049041,13.9152116 C129.049041,13.9152116 127.526514,13.9152116 126.633413,13.9152116 C127.108226,14.7929506 128.118368,16.673283 128.309556,17.0274975 C128.807312,17.0274975 133.128509,17.0274975 133.128509,17.0274975 L135.292432,21.0539978 C135.292432,21.0539978 131.573397,21.0539978 130.47481,21.0539978 C130.720529,21.5075639 130.977553,21.9873644 130.977553,21.9873644 C131.410471,22.7970402 132.111052,23.2090435 133.054361,23.2090435 L133.054361,23.2090435 Z" id="path48" fill="#927F3B"></path>
                        <path d="M153.369905,24.2796669 C153.369905,24.2796669 151.458018,20.7238565 151.309722,20.4522688 C151.026098,20.3335323 146.862174,18.6244052 146.862174,18.6244052 C146.862174,18.6244052 148.869822,17.1145133 149.332332,16.7668159 C149.012465,16.1585698 146.359764,11.1445384 146.13067,10.7085284 C145.693429,10.7085284 142.50806,10.7085284 141.412133,10.7085284 C141.955109,11.7400496 143.950121,15.5338317 143.950121,15.5338317 L141.534826,17.6422273 C141.534826,17.6422273 138.111385,11.1707728 137.867993,10.7085284 C137.427428,10.7085284 134.089772,10.7085284 132.976223,10.7085284 C133.641227,11.9541144 141.059681,25.8390351 141.30407,26.2985862 C141.83175,26.2985862 151.233911,26.2985862 151.233911,26.2985862 C151.706064,26.2962254 153.149788,26.144937 153.533828,25.4986195 C153.702739,25.2102737 153.649871,24.7997334 153.369905,24.2796669 L153.369905,24.2796669 Z M154.333828,25.978686 C153.610636,27.193981 151.474643,27.2319195 151.235241,27.2319195 L141.024435,27.2319195 L140.743804,27.2319195 L131.417121,9.77386509 L138.429922,9.77386509 C138.429922,9.77386509 141.339315,15.2741808 141.80781,16.1596006 C142.183205,15.8347461 142.51205,15.5451368 142.779049,15.3134161 C142.476804,14.7415458 139.866996,9.77386509 139.866996,9.77386509 L146.693596,9.77386509 L150.532332,17.034746 C150.532332,17.034746 149.365915,17.9115872 148.736488,18.3837402 C149.716372,18.7857019 151.974726,19.7139812 151.974726,19.7139812 L154.192515,23.8374059 C154.443221,24.3009803 154.56658,24.7305064 154.56658,25.1245547 C154.56658,25.4321191 154.491102,25.7180043 154.333828,25.978686 L154.333828,25.978686 Z" id="path50" fill="#927F3B"></path>
                        <path d="M146.821941,22.8375722 C146.821941,22.8375722 146.378716,22.0126678 146.1985,21.678736 C146.029589,21.6069155 145.224934,21.2754442 144.362091,20.9220277 C144.891102,21.9055356 145.440395,22.9217284 145.592681,23.2090435 C145.927843,23.2090435 146.5586,23.2090435 146.5586,23.2090435 C146.794344,23.2090435 146.901409,23.1841058 146.952947,23.1664167 C146.9453,23.1135821 146.916372,23.0125348 146.821941,22.8375722 L146.821941,22.8375722 Z M146.5586,24.1436735 L145.034743,24.1436735 L142.301576,19.0613462 L146.862174,20.9406146 L147.643222,22.3953112 C147.747627,22.5868989 148.062507,23.171105 147.771567,23.6571233 C147.480628,24.1436735 146.811966,24.1436735 146.5586,24.1436735 L146.5586,24.1436735 Z" id="path52" fill="#927F3B"></path>
                        <path d="M167.06234,15.2628758 C165.54081,11.4915708 163.469988,10.7990355 162.366746,10.722161 C162.332831,10.722161 161.261176,10.722161 160.752116,10.722161 C160.662673,11.4363754 159.608641,19.9481624 159.608641,19.9481624 C159.608641,19.9481624 155.467328,11.2059848 155.240561,10.722161 C154.797004,10.722161 151.647212,10.722161 150.6118,10.722161 C151.190021,11.8986531 157.904568,25.5783867 158.134659,26.0468489 C158.585865,26.0468489 161.482623,26.0455521 162.092432,26.0455521 C162.195507,25.3513211 163.402157,17.2465831 163.402157,17.2465831 C163.402157,17.2465831 167.032082,25.5391515 167.253529,26.0415289 C167.708391,26.0415289 170.689605,26.0402321 171.664501,26.0402321 C171.187028,24.9206311 167.06234,15.2628758 167.06234,15.2628758 Z M166.661675,26.942011 C166.661675,26.942011 164.659015,22.3641557 163.834077,20.47448 C163.539481,22.441928 162.868159,26.942011 162.868159,26.942011 L157.573063,26.947331 L157.449705,26.6939312 L149.169739,9.82310865 L155.811135,9.82310865 C155.811135,9.82310865 158.190187,14.8458184 159.097253,16.7591351 C159.346629,14.7441393 159.957436,9.82310865 159.957436,9.82310865 L162.398333,9.82310865 L162.415956,9.82310865 C163.727344,9.9112882 166.186862,10.6906065 167.894925,14.9190686 C167.892265,14.9116871 172.757768,26.3139146 172.757768,26.3139146 L173.027095,26.942011 L166.661675,26.942011 L166.661675,26.942011 Z" id="path54" fill="#927F3B"></path>
                        <path d="M100.066498,41.6797995 C100.066498,41.6797995 95.9920176,34.0256018 95.2086427,32.5519526 C94.8395654,32.5519526 93.9793825,32.5519526 93.9793825,32.5519526 C93.8347441,32.5519526 93.6089752,32.602493 93.5587674,32.6856185 C93.5487923,32.7043051 93.5438048,32.7299077 93.5438048,32.7723683 C93.5438048,32.8671646 93.57905,33.0280956 93.7073958,33.2688271 C93.7073958,33.2688271 97.8118014,40.9832076 98.5991663,42.4591843 C98.9609285,42.4591843 99.7669135,42.4591843 99.7868637,42.4591843 C99.9039044,42.4555268 100.148293,42.3999989 100.211469,42.2892758 C100.225101,42.2653356 100.232749,42.2327504 100.232749,42.1862001 C100.232749,42.0791344 100.188859,41.9102234 100.066498,41.6797995 L100.066498,41.6797995 Z M99.8134638,43.3852026 L98.0412278,43.3852026 L92.8897732,33.7057348 C92.5699062,33.1012461 92.5283435,32.5975387 92.769075,32.2032245 C93.1218597,31.6275636 93.8999145,31.6235404 93.9880276,31.6262669 L95.7652511,31.6262669 L100.88279,41.2452193 C101.201327,41.8460505 101.24422,42.3534487 101.011469,42.7577712 C100.667329,43.3482948 99.8975869,43.3838726 99.8134638,43.3852026 L99.8134638,43.3852026 Z" id="path56" fill="#927F3B"></path>
                        <path d="M108.056855,43.5215284 L102.057853,32.2484115 C100.773065,29.8327175 96.5702386,29.800232 96.5273459,29.800232 L88.7122172,29.800232 C87.223273,29.800232 86.2659995,30.0835238 85.945135,30.6187524 C85.8503719,30.7760591 85.8141292,30.9539809 85.8141292,31.1351946 C85.8141292,31.6315869 86.0947609,32.1552777 86.2058166,32.3643882 C86.2058166,32.3643882 91.6415605,42.5609299 91.9088921,43.0643381 C92.0246029,43.2305891 93.4792994,45.2119689 97.4051513,45.2119689 L104.924353,45.2119689 C106.034245,45.2093089 107.765916,44.9230246 108.139981,44.3002483 C108.162591,44.2606805 108.213131,44.17822 108.213131,44.0352441 C108.213131,43.9115533 108.176556,43.7456348 108.056855,43.5215284 L108.056855,43.5215284 Z M108.934993,44.7767237 C108.143971,46.0954269 105.253198,46.1376547 104.924353,46.1376547 L97.4051513,46.1376547 C92.8608456,46.1376547 91.1933477,43.6625093 91.1255173,43.5581036 L91.1152097,43.5388185 L85.389524,32.8013292 C84.8176205,31.728345 84.737155,30.8338479 85.1514526,30.1426094 C85.6641708,29.2887441 86.827928,28.8744132 88.7122172,28.8744132 L96.5273459,28.8744132 C96.7238546,28.8744132 101.327346,28.9047042 102.875143,31.815128 L108.875475,43.0876132 C109.290105,43.8709881 109.136157,44.4382366 108.934993,44.7767237 L108.934993,44.7767237 Z" id="path58" fill="#927F3B"></path>
                        <path d="M184.477468,72.1446366 C184.477468,72.1446366 187.640228,82.4714859 169.898583,82.4864485 C169.898583,82.4864485 173.256521,79.3755591 165.53948,77.6349108 C165.53948,77.6349108 172.014626,76.7634229 173.381209,80.3753928 C173.381209,80.3753928 183.768241,79.836407 184.477468,72.1446366" id="path60" fill="#FFFFFF"></path>
                        <path d="M137.78254,104.0655 C162.569572,100.108061 158.444884,94.211469 155.217951,90.6729819 C141.840728,94.3344947 128.88279,96.3477948 98.4448853,96.954611 C98.3394822,96.9566061 97.7748936,96.9659161 97.669158,96.9682436 C89.7828739,98.6932644 61.6960916,104.271319 55.8836229,105.432416 C55.2019936,105.568742 54.8176212,105.686448 54.8176212,105.686448 C63.7093916,105.95777 112.994178,108.024602 137.78254,104.0655" id="path62" fill="#FFFFFF"></path>
                        <path d="M40.1895252,70.1559417 C44.6384029,82.4299231 66.7451355,100.262342 118.088775,85.2006629 C118.088775,85.2006629 57.3592671,89.0270967 40.1895252,70.1559417" id="path64" fill="#FFFFFF"></path>
                        <path d="M145.695757,86.5030735 C145.35328,84.7421425 143.757602,83.530505 142.040894,83.767579 C140.634078,83.9614277 139.564751,85.0673295 139.30141,86.4452181 C139.510553,86.111386 139.832748,85.8922672 140.204818,85.8922672 C140.832914,85.8922672 141.341975,86.5183686 141.341975,87.2914359 C141.341975,87.3709039 141.331667,87.4413943 141.324352,87.5145448 C140.634078,87.6694907 139.926181,87.8254342 139.215957,87.9780527 C139.215957,87.9753926 139.215957,87.9753926 139.215957,87.9753926 C138.632748,88.1040709 138.045549,88.2287592 137.461343,88.3494575 C137.457686,88.3255173 137.446381,88.3002472 137.445051,88.280297 C137.043388,85.3216936 139.01313,82.5948442 141.83574,82.2104718 C144.396006,81.8603471 146.785699,83.5481276 147.515873,86.0661658 C146.955275,86.2031566 146.340811,86.3507875 145.695757,86.5030735" id="path66" fill="#FFFFFF"></path>
                        <path d="M118.460512,66.6154597 C118.460512,66.6154597 54.5276794,97.1803799 22.1470984,32.8356102 C50.4911043,69.2192834 101.571735,61.4879453 101.571735,61.4879453 C101.571735,61.4879453 108.685617,66.4252685 118.460512,66.6154597" id="path68" fill="#FFFFFF"></path>
                        <path d="M66.8405636,24.4838564 L65.301744,24.4838564 L59.999001,14.8029589 C59.6428913,14.1543139 59.5860334,13.6253031 59.8264324,13.2286613 C60.1416444,12.7072981 60.7913534,12.7072981 60.8645039,12.7072981 L62.4159585,12.7072981 L67.6871139,22.3258182 C68.0408961,22.9722688 68.1014114,23.5062006 67.86733,23.9145464 C67.5637556,24.4459179 66.9290091,24.4811299 66.8558587,24.4838564 L66.8482111,24.4838564 L66.8405636,24.4838564 Z M65.0623425,26.2962254 L71.4643374,26.2962254 C72.1293415,26.2936319 73.6169558,26.0997167 73.9620929,25.5152446 C74.0099732,25.4344466 74.1522841,25.1930168 73.8397322,24.6198165 L67.6618437,13.3473646 C66.339483,10.9327013 62.7976709,10.8960596 62.7637557,10.8960596 L56.1110543,10.8960596 C54.4182863,10.8960596 53.9308382,11.2967578 53.7885273,11.5358601 C53.728012,11.6379714 53.7040718,11.7539482 53.7040718,11.8750122 C53.7040718,12.2527013 53.9394833,12.6809307 54.0428914,12.8697919 C54.0428914,12.8697919 59.9890259,23.7180376 60.2270974,24.1486278 C60.3315031,24.3063003 61.7499569,26.2962254 65.0623425,26.2962254 L65.0623425,26.2962254 Z" id="path70" fill="#FFFFFF"></path>
                        <path d="M92.1659162,26.2962254 C91.4806295,25.0414291 85.0696571,13.3473646 85.0696571,13.3473646 C83.7482938,10.9327013 80.2091418,10.8960596 80.1715691,10.8960596 L73.5198652,10.8960596 C71.8284271,10.8960596 71.3396491,11.2967578 71.1973382,11.5358601 C71.1368228,11.6392682 71.1132152,11.7539482 71.1132152,11.8750122 C71.1132152,12.2527013 71.3499567,12.6796339 71.4530323,12.8697919 C71.4530323,12.8697919 77.8201144,24.4864499 78.8099731,26.2962254 C79.2455508,26.2962254 82.5772215,26.2962254 83.7057336,26.2962254 C83.0290919,25.0603818 77.4523671,14.8837569 77.4523671,14.8837569 C77.2116356,14.4418949 76.9985018,14.0123687 76.9985018,13.6253031 C76.9985018,13.4693263 77.0327495,13.3197004 77.115875,13.1757935 C77.3928493,12.7072981 78.0202807,12.7072981 78.2267645,12.7072981 L79.8237719,12.7072981 C79.8237719,12.7072981 87.0141292,25.8251365 87.2711533,26.2962254 C87.7070635,26.2962254 91.0370717,26.2962254 92.1659162,26.2962254" id="path72" fill="#FFFFFF"></path>
                        <path d="M97.3359909,26.3013127 L105.199,26.3013127 C106.143638,26.3013127 106.761095,26.1210301 106.984868,25.7835738 C107.067994,25.6574557 107.109557,25.4939312 107.109557,25.2908057 C107.109557,24.9713044 106.998834,24.5492928 106.794677,24.0266661 C106.255691,24.0266661 102.441893,24.0239395 102.441893,24.0239395 C102.441893,24.0239395 95.6708206,11.1807811 95.4191165,10.7046049 C94.9805463,10.7046049 91.6265979,10.7046049 90.5270135,10.7046049 C91.1707375,11.92655 97.5514523,24.0279628 97.5514523,24.0279628 C97.5514523,24.0279628 94.052533,24.0139312 92.8897732,24.010041 C93.7738962,25.2279295 95.0437216,26.3013127 97.3359909,26.3013127" id="path74" fill="#FFFFFF"></path>
                        <path d="M123.267827,26.2985862 C122.600496,25.0530002 115.184702,11.1680463 114.93732,10.7085284 C114.500413,10.7085284 111.218285,10.7085284 110.111385,10.7085284 C110.699249,11.8168243 113.695758,17.4832581 113.695758,17.4832581 L110.177886,17.4832581 C110.177886,17.4832581 106.84023,11.1707728 106.595841,10.7085284 C106.156273,10.7085284 102.88412,10.7085284 101.776889,10.7085284 C102.439233,11.9541144 109.856689,25.8390351 110.101078,26.2985862 C110.540646,26.2985862 113.807811,26.2985862 114.92003,26.2985862 C114.331834,25.2029919 111.514212,19.9657185 111.514212,19.9657185 L115.037071,19.9657185 C115.037071,19.9657185 118.198501,25.8426926 118.443887,26.2985862 C118.879798,26.2985862 122.158268,26.2985862 123.267827,26.2985862" id="path76" fill="#FFFFFF"></path>
                        <path d="M125.260512,22.3966079 C125.345965,22.5751948 127.145799,26.2985862 131.127179,26.2985862 C131.127179,26.2985862 136.588525,26.2985862 137.844386,26.2985862 C137.441061,25.5517533 136.854194,24.4585198 136.684286,24.1436735 C136.202158,24.1436735 133.054361,24.1436735 133.054361,24.1436735 C131.759598,24.1436735 130.755774,23.5517866 130.153613,22.4295921 L128.913047,20.118337 C128.913047,20.118337 132.629756,20.118337 133.727012,20.118337 C133.326347,19.3725348 132.740479,18.2797003 132.569573,17.9630253 C132.074145,17.9630253 127.752948,17.9630253 127.752948,17.9630253 L125.072981,12.9792848 L129.049041,12.9792848 C129.676472,12.9792848 130.095757,12.85187 130.231751,12.6191186 C130.274643,12.5446713 130.297254,12.4541643 130.297254,12.3445383 C130.297254,12.1239897 130.207811,11.8419947 130.038899,11.5322358 L130.032914,11.5205317 C130.032914,11.5205317 129.790853,11.0094428 129.649872,10.7085284 C129.124519,10.7085284 120.353447,10.7085284 119.031086,10.7085284 C119.684785,11.9351285 125.260512,22.3966079 125.260512,22.3966079" id="path78" fill="#FFFFFF"></path>
                        <path d="M145.313047,24.1436735 L145.034743,24.1436735 L142.301576,19.0613462 L146.862174,20.9406146 L147.643222,22.3953112 C147.747627,22.5868989 148.062507,23.171105 147.771567,23.6571233 C147.480628,24.1436735 146.811966,24.1436735 146.5586,24.1436735 L145.313047,24.1436735 Z M151.233911,26.2985862 C151.706064,26.2962254 153.149788,26.144937 153.533828,25.4986195 C153.702739,25.2102737 153.649871,24.7997334 153.369905,24.2796669 L153.369905,24.2796669 C153.369905,24.2796669 151.458018,20.7238565 151.309722,20.4522688 C151.026098,20.3335323 146.862174,18.6244052 146.862174,18.6244052 C146.862174,18.6244052 148.869822,17.1145133 149.332332,16.7668159 C149.012465,16.1585698 146.359764,11.1445384 146.13067,10.7085284 C145.693429,10.7085284 142.50806,10.7085284 141.412133,10.7085284 C141.955109,11.7400496 143.950121,15.5338317 143.950121,15.5338317 L141.534826,17.6422273 C141.534826,17.6422273 138.111385,11.1707728 137.867993,10.7085284 C137.427428,10.7085284 134.089772,10.7085284 132.976223,10.7085284 C133.641227,11.9541144 141.059681,25.8390351 141.30407,26.2985862 C141.83175,26.2985862 151.233911,26.2985862 151.233911,26.2985862 L151.233911,26.2985862 Z" id="path80" fill="#FFFFFF"></path>
                        <path d="M72.7175377,41.2954271 L72.7251852,41.3093922 L72.7301727,41.3256848 C72.8019932,41.4846207 74.5263489,45.1827088 79.6295907,45.1827088 C79.6295907,45.1827088 87.3506213,45.1827088 88.6580194,45.1827088 C88.2650019,44.4408966 87.6831233,43.3482948 87.5142123,43.0327504 C87.0154592,43.0327504 82.5366563,43.0327504 82.5366563,43.0327504 C80.5280113,43.0327504 79.6136306,42.1040721 79.2003305,41.3220272 L77.9773879,39.029758 C77.9773879,39.029758 83.1916854,39.029758 84.3830403,39.029758 C83.9890253,38.2879458 83.4071467,37.193349 83.2382357,36.8784696 C82.7308375,36.8784696 76.8322508,36.8784696 76.8322508,36.8784696 L74.1961744,31.9212295 L79.9108874,31.9212295 C80.4182856,31.9144797 80.8199481,31.7699078 81.0367395,31.5128837 C81.1600977,31.3696085 81.2206131,31.1893592 81.2206131,30.9765911 C81.2206131,30.9323018 81.2142956,30.8845213 81.207978,30.839301 C81.1461326,30.7208637 80.8049855,30.0784365 80.639732,29.7708721 C80.1323338,29.7708721 67.945468,29.7708721 66.5848695,29.7708721 C67.2299235,30.9815454 72.7175377,41.2954271 72.7175377,41.2954271" id="path82" fill="#FFFFFF"></path>
                        <path d="M118.260346,42.4505393 L117.983039,42.4505393 L115.312715,37.4892759 L120.348459,39.2541969 L121.134162,40.7135484 C121.392516,41.1910214 121.424103,41.5966739 121.233912,41.9152109 C120.950288,42.3886939 120.306896,42.4505393 119.779216,42.4505393 L118.260346,42.4505393 Z M125.450703,45.1827088 C126.440562,45.1790512 128.172565,44.9143796 128.59052,44.2118027 C128.622108,44.1612624 128.684951,44.0515367 128.684951,43.8646706 C128.684951,43.6997495 128.637403,43.4743131 128.47481,43.1660837 C128.47215,43.1644212 126.248043,39.0812958 126.08811,38.7903565 C125.775558,38.6809633 120.800662,36.940315 120.800662,36.940315 C120.800662,36.940315 123.508559,35.3935153 124.08545,35.0660008 C123.733663,34.4036567 121.488276,30.1892262 121.26683,29.7708721 C120.80964,29.7708721 116.44289,29.7708721 115.276473,29.7708721 C115.794178,30.7461671 117.481959,33.9288437 117.481959,33.9288437 L114.46018,35.908561 C114.46018,35.908561 111.432084,30.2195171 111.192017,29.7708721 C110.734827,29.7708721 106.168908,29.7708721 104.986199,29.7708721 C105.648875,31.0041223 113.030754,44.7278459 113.27481,45.1827088 C113.803821,45.1827088 125.450703,45.1827088 125.450703,45.1827088 L125.450703,45.1827088 Z" id="path84" fill="#FFFFFF"></path>
                        <path d="M160.132332,45.1827088 C159.477303,43.9521186 152.172565,30.2244381 151.930503,29.7708721 C151.474643,29.7708721 147.099248,29.7708721 145.931501,29.7708721 C146.58653,30.9988022 153.889273,44.7248534 154.133329,45.1827088 C154.58786,45.1827088 158.964585,45.1827088 160.132332,45.1827088" id="path86" fill="#FFFFFF"></path>
                        <path d="M99.8008288,43.3852026 L98.0412278,43.3852026 L92.8897732,33.7057348 C92.5699062,33.1012461 92.5283435,32.5975387 92.769075,32.2032245 C93.1218597,31.6275636 93.8999145,31.6235404 93.9880276,31.6262669 L95.7652511,31.6262669 L100.88279,41.2452193 C101.201327,41.8460505 101.24422,42.3534487 101.011469,42.7577712 C100.667329,43.3482948 99.8975869,43.3838726 99.8134638,43.3852026 L99.8081438,43.3852026 L99.8008288,43.3852026 Z M97.4051513,45.2119689 L104.924353,45.2119689 C106.034245,45.2093089 107.765916,44.9230246 108.139981,44.3002483 C108.162591,44.2606805 108.213131,44.17822 108.213131,44.0352441 C108.213131,43.9115533 108.176556,43.7456348 108.056855,43.5215284 L102.057853,32.2484115 C100.773065,29.8327175 96.5702386,29.800232 96.5273459,29.800232 L88.7122172,29.800232 C87.223273,29.800232 86.2659995,30.0835238 85.945135,30.6187524 C85.8503719,30.7760591 85.8141292,30.9539809 85.8141292,31.1351946 C85.8141292,31.6315869 86.0947609,32.1552777 86.2058166,32.3643882 C86.2058166,32.3643882 91.6415605,42.5609299 91.9088921,43.0643381 C92.0246029,43.2305891 93.4792994,45.2119689 97.4051513,45.2119689 L97.4051513,45.2119689 Z" id="path88" fill="#FFFFFF"></path>
                        <path d="M126.734161,30.7131829 C126.618118,30.9070981 126.57057,31.1338978 126.57057,31.3655853 C126.57057,32.0544963 126.970903,32.8202818 127.128176,33.1251197 L130.868825,40.2906058 C132.221776,42.9187022 133.380545,45.1704062 137.893263,45.1827088 C137.893263,45.1827088 148.940312,45.1827088 150.119364,45.1827088 C149.669489,44.3002483 148.63175,42.2716531 148.441559,41.9025758 C147.988359,41.9025758 144.12668,41.9025758 143.005483,41.9025758 C143.118866,42.1220272 143.584036,43.0327504 143.584036,43.0327504 L138.418617,43.0327504 L133.957436,34.3657514 C133.672815,33.8128005 133.385533,33.1048703 133.727012,32.5506559 C133.988692,32.1213957 134.532997,31.9159094 135.39185,31.9212295 L137.436073,31.9212295 L139.131501,35.2159592 C139.131501,35.2159592 137.848043,35.2159592 137.34796,35.2159592 C137.727012,35.9514538 138.288941,37.0420606 138.455192,37.3659176 C138.934992,37.3659176 144.774061,37.3659176 145.990686,37.3659176 C145.420113,36.2590182 142.316538,30.2307889 142.091102,29.7962087 C141.552116,29.7962087 129.710387,29.7962087 129.710387,29.7962087 C128.127013,29.7962087 127.099581,30.1137815 126.734161,30.7131829" id="path90" fill="#FFFFFF"></path>
                        <path d="M170.717203,42.6440555 L170.467826,42.6390679 L165.623936,34.9276799 L169.83308,34.9276799 L172.24372,40.1419774 C172.546297,40.7730663 172.843553,41.5005808 172.488109,42.0548618 C172.138317,42.6001652 171.357269,42.6560255 170.717203,42.6440555 L170.717203,42.6440555 Z M174.590519,45.1827088 C176.771733,45.1827088 178.186197,44.7614286 178.679962,43.9670812 C178.828591,43.7280122 178.899081,43.4433904 178.899081,43.1125509 C178.899081,42.5609299 178.698915,41.8812957 178.285615,41.0536981 L178.277967,41.0334154 C178.277967,41.0334154 173.519863,30.2935321 173.285449,29.7708721 C172.796671,29.7708721 168.488109,29.7708721 167.389522,29.7708721 C167.752282,30.569542 168.757768,32.7774223 168.757768,32.7774223 L163.684451,32.7774223 C163.684451,32.7774223 161.980378,30.1349618 161.743304,29.7708721 C161.335324,29.7708721 156.970902,29.7708721 155.623604,29.7708721 C156.607145,31.0985528 166.772731,44.8325841 167.029422,45.1827088 C167.467992,45.1827088 174.590519,45.1827088 174.590519,45.1827088 L174.590519,45.1827088 Z" id="path92" fill="#FFFFFF"></path>
                        <path d="M57.5581033,45.1827088 C58.5935147,45.1827088 68.6054846,45.1827088 69.7868644,45.1827088 C69.3346616,44.3002483 68.2965901,42.2716531 68.107729,41.9025758 C67.6531986,41.9025758 63.7938471,41.9025758 62.6716526,41.9025758 C62.7840383,42.1220272 63.2498737,43.0327504 63.2498737,43.0327504 L58.0857841,43.0327504 L53.6222763,34.3657514 C53.3376545,33.8128005 53.0543628,33.1048703 53.3941799,32.5506559 C53.6561915,32.1213957 54.2001649,31.9159094 55.0580202,31.9212295 L57.100913,31.9212295 L58.7986685,35.2159592 C58.7986685,35.2159592 57.515543,35.2159592 57.0141299,35.2159592 C57.3931823,35.9514538 57.9547783,37.0420606 58.1210293,37.3659176 C58.5998323,37.3659176 64.4402311,37.3659176 65.6568562,37.3659176 C65.0876127,36.2590182 61.9840384,30.2307889 61.7586019,29.7962087 C61.2182861,29.7962087 49.3765574,29.7962087 49.3765574,29.7962087 C47.7931825,29.7962087 46.7644211,30.1137815 46.4016614,30.7131829 C46.2829581,30.9083949 46.2377378,31.1338978 46.2377378,31.3655853 C46.2377378,32.0544963 46.6370728,32.8202818 46.7956763,33.1251197 C46.7956763,33.1251197 50.7354933,41.1331661 52.0428915,42.9306722 C53.3516196,44.7291759 56.5230244,45.1827088 57.5581033,45.1827088" id="path94" fill="#FFFFFF"></path>
                        <path d="M47.7163745,26.3013127 C48.8611792,26.3013127 57.2635065,26.3013127 57.2635065,26.3013127 L55.5228581,23.0210801 C55.5228581,23.0210801 51.9118857,23.0210801 50.8259339,23.0210801 C51.0290927,23.406849 51.5933487,24.4761756 51.5933487,24.4761756 L47.8965907,24.4761756 L46.8914369,22.6397667 C46.4834569,21.8929338 46.261678,21.2971566 46.508727,20.8033245 C46.7704061,20.2769072 47.4014951,20.1485947 48.3361584,20.0149288 L48.3501235,20.0123353 L50.920697,19.8045215 C51.80748,19.7252863 52.4648366,19.4040893 52.7192007,18.9253528 C53.01014,18.3773561 52.7391508,17.6707893 52.4648366,17.1733329 C52.4608466,17.1647544 50.2530328,13.0134328 50.2530328,13.0134328 C49.1334984,10.9702408 45.3915201,10.8898418 45.3522848,10.888412 L38.5748951,10.8898418 C37.3985028,10.8898418 36.6241055,11.124156 36.3404812,11.571471 C36.2423931,11.7236905 36.2108054,11.8935658 36.2108054,12.0508725 C36.2108054,12.33453 36.3128835,12.5689772 36.3205311,12.5915541 C36.3404812,12.6241726 37.5344962,14.8042557 37.754945,15.2046879 C38.229758,15.2046879 41.4729832,15.2046879 41.4729832,15.2046879 C42.2021602,15.1887278 42.6696581,15.0120695 42.4970895,14.6204818 C42.3255185,14.2287611 42.0222766,13.6003654 42.2839557,13.1743638 C42.5346623,12.771471 43.0650031,12.7135159 43.5501236,12.7135159 L45.0274303,12.7135159 L46.4608467,15.3306729 C46.6231077,15.6256355 46.7843712,15.9771235 46.7843712,16.3248209 C46.7843712,16.4857519 46.749126,16.6447211 46.6633405,16.7956438 C46.3700737,17.3243886 45.6305891,17.4354443 44.8738143,17.477007 C44.8684943,17.477007 42.56492,17.5876637 42.56492,17.5876637 C40.2084778,17.753017 40.0964246,19.1344634 40.0964246,19.2944634 C40.0964246,19.4607144 40.1329998,19.7126845 40.2550281,20.0867493 L40.4502068,20.6912381 C40.4502068,20.6912381 41.5497911,22.7797833 42.6177878,24.496425 C43.6871145,26.2130999 46.5725674,26.3013127 47.7163745,26.3013127" id="path96" fill="#FFFFFF"></path>
                        <path d="M158.134659,26.0468489 C158.585865,26.0468489 161.482623,26.0455521 162.092432,26.0455521 C162.195507,25.3513211 163.402157,17.2465831 163.402157,17.2465831 C163.402157,17.2465831 167.032082,25.5391515 167.253529,26.0415289 C167.708391,26.0415289 170.689605,26.0402321 171.664501,26.0402321 C171.187028,24.9206311 167.06234,15.2628758 167.06234,15.2628758 C165.54081,11.4915708 163.469988,10.7990355 162.366746,10.722161 C162.332831,10.722161 161.261176,10.722161 160.752116,10.722161 C160.662673,11.4363754 159.608641,19.9481624 159.608641,19.9481624 C159.608641,19.9481624 155.467328,11.2059848 155.240561,10.722161 C154.797004,10.722161 151.647212,10.722161 150.6118,10.722161 C151.190021,11.8986531 157.904568,25.5783867 158.134659,26.0468489" id="path98" fill="#FFFFFF"></path>
                        <path d="M179.113212,7.67288426 C178.990519,7.72106381 178.818283,7.74497071 178.595839,7.74497071 L178.378383,7.74497071 L178.378383,6.7474645 L178.725183,6.7474645 C178.934326,6.7474645 179.09692,6.78902726 179.213961,6.87318354 C179.330336,6.95760581 179.388857,7.09359916 179.388857,7.28179533 C179.388857,7.4695925 179.297086,7.59999981 179.113212,7.67288426 Z M177.500577,4.93832074 L177.500577,8.33047361 C177.710719,8.33047361 178.026263,8.32917685 178.445548,8.32814609 C178.865166,8.32684933 179.097917,8.32425582 179.1448,8.3215293 C179.413462,8.30227743 179.636903,8.24372382 179.814792,8.14799647 C180.115706,7.98174544 180.266995,7.7106565 180.266995,7.33659167 C180.266995,7.0520364 180.186529,6.84551936 180.026263,6.71694081 C179.86633,6.58926002 179.668823,6.51301729 179.435739,6.48807964 C179.654858,6.44392336 179.820444,6.37845371 179.931833,6.29260167 C180.137651,6.13270143 180.240394,5.8797006 180.240394,5.5348627 L180.240394,5.23198657 C180.240394,5.19936812 180.241725,5.16638391 180.244385,5.1324687 C180.247377,5.0998835 180.252365,5.06703229 180.260345,5.03378209 L180.280295,4.93832074 L179.430419,4.93832074 C179.402822,5.04571891 179.384867,5.20169563 179.375889,5.40655016 C179.366912,5.61070643 179.348624,5.74866154 179.321026,5.82111374 C179.275473,5.93918522 179.192348,6.02167898 179.06899,6.06985853 C179.002489,6.0967247 178.900411,6.11504557 178.763753,6.12272636 L178.566579,6.13506219 L178.378383,6.13506219 L178.378383,4.93832074 L177.500577,4.93832074 Z M177.059347,8.39138799 C176.572897,7.89329989 176.329505,7.30334146 176.329505,6.62018271 C176.329505,5.91295081 176.577884,5.31172057 177.07165,4.81635898 C177.564085,4.32149615 178.157934,4.07418111 178.855191,4.07418111 C179.548458,4.07418111 180.140976,4.32292591 180.633412,4.82024926 C181.124518,5.32106387 181.370902,5.92126336 181.370902,6.62018271 C181.370902,7.30011619 181.125848,7.89057337 180.637069,8.39138799 C180.142306,8.90041541 179.548458,9.15484599 178.855191,9.15484599 C178.152281,9.15484599 177.55411,8.90041541 177.059347,8.39138799 Z M180.996837,4.4335826 C180.400328,3.85702401 179.685116,3.56804646 178.850536,3.56804646 C177.988358,3.56804646 177.261841,3.86430581 176.67032,4.45423098 C176.080129,5.04571891 175.784202,5.77150443 175.784202,6.6338153 C175.784202,7.52987512 176.103404,8.27527826 176.741475,8.86846196 C177.340311,9.4224104 178.043221,9.69971713 178.850536,9.69971713 C179.696421,9.69971713 180.418616,9.40019927 181.017784,8.80169554 C181.616288,8.20216106 181.916205,7.48026581 181.916205,6.6338153 C181.916205,5.76359088 181.609638,5.03012456 180.996837,4.4335826 L180.996837,4.4335826 Z" id="path100" fill="#15356F"></path>
                    </g>
                </g>
            </g>
        </g>
    </g>
</svg>