<svg width="200" height="200" viewBox="0 0 200 200" fill="none" xmlns="http://www.w3.org/2000/svg">
<path fill-rule="evenodd" clip-rule="evenodd" d="M80.7 37.177C58.3 36.977 37 42.677 22.4 56.377C22.3 55.477 21.7 49.277 21.7 49.277L15.6 56.877L14.5 58.277C9.3 64.677 3.8 72.677 1.6 82.877C1 85.577 0.7 88.077 0.7 90.677C0.7 95.477 1.7 100.377 3.9 105.877C2.1 105.477 0 105.077 0 105.077L2.9 110.577C11.6 127.277 27 139.377 47.5 146.277C55.7 148.977 60.4 149.377 63 149.677C47.1 143.877 36.4 132.477 29.6 121.777C31 122.077 32.3 122.377 32.3 122.377L30.3 117.277C28.6 113.077 27.8 107.477 27.8 102.977C27.8 100.677 28 98.677 28.4 97.277C30.5 90.377 47.7 82.677 58 83.977C57.1 84.077 54.8 84.477 54.8 84.477C54.8 84.477 63.7 84.877 71.2 86.677C78.7 88.477 87.8 91.177 95.8 94.677C99.3 96.277 109.9 101.577 117.7 106.877L116.4 104.577C116.4 104.577 117 104.677 118.7 105.877C121.3 107.677 124 110.977 124.2 111.577C124.2 111.977 123.9 112.177 122 112.577C119.5 113.077 116.8 113.577 116.8 113.577C116.8 113.577 119.3 116.177 123.2 117.477C127.1 118.777 129.7 118.877 132.1 118.577C134.2 121.777 138.2 125.277 145.4 127.177C156.2 129.977 165.4 127.477 171.9 124.777C173.3 127.677 174 130.477 174 132.777C174 133.577 173.9 134.277 173.8 134.877C173.2 137.277 168.8 140.977 165.9 142.177C163 143.277 162.2 143.577 161.3 143.877C162.4 144.777 165.1 146.077 166.3 146.577C167.9 147.177 170 147.577 171 147.777C176 148.677 181 148.177 185.4 146.777C191 144.977 195.2 141.377 197.4 136.477C199.1 132.677 199.8 129.077 199.8 125.577C199.8 116.677 195.4 109.377 193.1 106.077C194.4 104.777 195.1 103.177 195.1 101.277C195.1 101.177 195.1 101.077 195.1 100.977C195.1 95.877 190.4 90.277 185.6 86.677C184.3 80.977 180.9 75.377 174.9 69.077C172.1 66.077 168.7 63.177 165.1 60.177C161.8 57.377 151 49.877 148.1 45.877C148.1 45.877 150.1 50.377 150.7 51.677C143.4 46.777 131.5 40.877 124.1 37.877L114 33.877C114 33.877 116.5 37.077 118.4 39.577C110.1 36.977 100.7 34.977 97.2 34.477H97.3C89.9 33.377 78.4 32.777 74.8 33.077C75.9 33.877 78.2 35.377 80.7 37.177Z" fill="white"/>
<path fill-rule="evenodd" clip-rule="evenodd" d="M131.6 103.477C131.6 103.477 130.9 105.477 131.3 108.677C131.7 111.877 132.1 112.977 132.1 112.977L132.9 115.077L134.6 115.777L140.1 119.077L137.7 117.077C137.7 117.077 134.9 114.577 134.1 111.877C133.2 109.177 132.7 105.577 132.8 103.777C132.9 101.977 132.2 104.577 132.2 104.577L131.6 103.477Z" fill="#EBAA20"/>
<path fill-rule="evenodd" clip-rule="evenodd" d="M45.7001 146.677C24.9001 138.677 10.8001 125.677 3.0001 110.577H3.1001V110.477L0.600098 109.977C8.5001 125.077 22.6001 137.977 43.2001 145.977C47.6001 147.677 50.9001 148.677 53.8001 149.377C51.4001 148.677 48.9001 147.877 45.7001 146.677Z" fill="white"/>
<path fill-rule="evenodd" clip-rule="evenodd" d="M8.70001 112.277C4.00001 102.477 2.40001 94.7771 4.30001 85.7771C6.50001 75.6771 12.3 67.7771 16.6 62.3771L16.3 58.5771C12.2 63.8771 4.20001 72.8771 1.70001 85.1771C-0.199987 94.1771 1.50001 101.877 6.20001 111.577L2.80001 110.877C10.7 125.977 24.8 138.977 45.5 146.977C49.9 148.677 53.2 149.677 56.1 150.377C53.8 149.677 51.2 148.877 48.1 147.677C27.3 139.677 13.1 126.677 5.20001 111.477L8.70001 112.277Z" fill="#EBAA20"/>
<path fill-rule="evenodd" clip-rule="evenodd" d="M27.5999 118.477C24.8999 111.577 24.2999 101.477 25.6999 96.677C26.5999 93.677 27.8999 90.677 29.8999 88.277C31.1999 86.677 33.0999 85.177 34.6999 84.377L33.5999 86.077L30.1999 90.977C35.5999 85.877 50.1999 80.077 65.7999 81.077C67.0999 81.177 68.4999 81.277 69.7999 81.477L63.5999 82.877L62.0999 83.177C63.6999 83.077 66.0999 83.277 69.1999 83.777C76.1999 84.977 89.2999 88.877 97.2999 92.377C101.8 94.377 108.2 97.277 115.8 102.477C115 100.977 114.3 99.377 113.5 98.077C117.5 101.077 122.3 104.977 123.4 106.177C126.1 108.977 128.5 111.777 128.3 113.477C128.2 115.177 124.7 114.977 124.5 115.177C129 116.577 132.5 116.577 133.9 115.677C131.9 113.377 131.1 111.077 130.8 107.877C129.4 105.877 121 94.877 99.9999 88.377C99.9999 88.377 101.7 89.577 104.1 91.377C100.3 89.577 95.7999 87.677 91.4999 86.177C88.0999 84.977 79.4999 82.577 74.3999 81.477L79.9999 80.077C69.9999 75.177 48.7999 76.877 39.0999 81.677L43.2999 76.077C30.8999 78.577 24.7999 87.077 22.6999 92.677C20.3999 98.777 19.9999 107.777 22.5999 116.177L18.8999 115.377C19.2999 116.477 19.6999 117.477 20.1999 118.477C22.8999 124.377 27.1999 129.677 32.8999 135.177C25.9999 130.977 19.4999 124.777 14.5999 118.477C12.8999 116.277 11.2999 114.077 10.0999 111.877L13.3999 112.577C8.29993 103.177 5.79993 95.877 8.39993 85.877C8.39993 85.877 8.49993 85.477 8.49993 85.377C9.79993 80.277 13.9999 72.877 17.3999 68.477L18.4999 74.577C40.2999 47.677 67.6999 41.777 100.5 47.477C99.7999 46.677 98.2999 43.977 96.2999 42.177C109.9 42.177 130.4 51.977 134.2 54.077L131.2 49.277C141.4 53.777 151.8 59.577 158.5 65.477C158.1 64.477 157.5 62.377 157.3 61.677C158.5 62.577 167 69.877 171.7 74.177C179 80.977 182.2 88.577 183.8 93.277C183.9 93.177 183.6 90.777 183.6 90.277C187.5 94.277 191.8 99.877 189.1 104.477C189 104.677 188.9 104.877 188.7 105.077L186.4 103.777L187 104.677C187.7 105.677 191.4 111.277 193.1 118.377C194.3 123.277 194.4 128.977 191.9 134.477C189.6 139.577 184.5 142.577 179.1 143.677C176.3 144.177 172.9 144.477 170.9 144.177C171.5 144.277 177 141.777 179.2 137.577C180.8 134.377 180.5 129.277 179.1 125.677C178.3 123.577 177.3 121.277 176.1 119.377C175.7 118.777 175.5 118.477 175.5 118.477C169 108.877 158.4 104.177 153.3 102.877C146.5 101.177 141.4 103.277 140 107.677C140 107.677 139.8 108.777 139.9 109.277L140 109.177C140.5 109.077 141.2 108.977 142 108.977C143.5 108.977 145.2 109.077 146.5 109.277C148.6 109.477 152.7 110.277 154.6 110.677C152.9 109.777 148 108.377 146.1 108.177C145.8 108.177 145.5 108.077 145.3 108.077C144.1 107.977 143.1 107.877 142.2 107.977C142.3 107.877 142.4 107.877 142.4 107.877L142.9 107.177C145.1 104.877 149.2 104.677 152.8 105.577C156.9 106.577 164.3 109.777 169.8 115.877C166.6 117.177 158.7 119.577 149.8 116.677C142.3 114.277 141.9 109.677 141.9 109.477C141.9 109.777 140.1 115.377 148.5 118.477C148.5 118.477 148.7 118.577 149.2 118.677C157.2 121.377 163.5 119.877 167.1 118.477C168.3 118.077 169.2 117.577 169.8 117.277L170.6 116.877C171 117.377 171.4 117.877 171.8 118.477C171.8 118.477 172 118.777 172.6 119.577C166.9 122.177 158 124.777 147.2 121.977C143.9 121.077 141.3 119.877 139.3 118.477C134.4 115.177 132.9 111.177 132.9 110.977V112.077C132.9 112.277 133.2 115.277 135.8 118.477C137.8 120.877 141 123.277 146.5 124.677C158.1 127.677 167.6 124.177 173.6 121.377C176 125.577 178.2 131.277 177 135.977C176.3 138.977 172.7 142.277 168.7 144.377C169.2 144.577 170.7 144.977 171.7 145.177C179.7 146.577 190.9 144.877 195.1 135.677C197.9 129.577 197.5 123.577 196.1 118.577C194.7 113.777 192.3 109.877 190.5 107.477C190.5 106.777 190.2 105.177 190.3 105.177C195.7 102.077 190.3 93.677 183.2 88.977C182.2 83.577 179.1 78.077 173 71.577C167.8 66.077 160.4 60.877 152.4 53.077C152.7 53.877 154 58.177 153.9 58.077C149.8 53.877 132.7 44.777 123.1 40.977C123.9 41.977 125.7 44.477 127.1 46.477C119.1 42.377 102.6 38.577 96.8999 37.777C93.0999 37.177 89.2999 37.077 85.1999 36.877C86.8999 37.977 89.1999 39.777 90.4999 40.877C61.8999 37.677 35.1999 47.677 19.7999 65.177L19.4999 61.877L19.2999 57.077C18.5999 58.077 17.6999 59.077 16.6999 60.277C12.3999 65.677 6.59993 73.577 4.39993 83.677C2.49993 92.677 4.09993 100.377 8.79993 110.177L5.39993 109.477C6.99993 112.577 8.89993 115.577 10.9999 118.477C19.2999 129.777 31.5999 139.277 48.1999 145.677C51.2999 146.877 53.8999 147.777 56.1999 148.377C58.7999 149.177 60.9999 149.577 63.0999 149.977C42.4999 142.477 30.2999 131.177 24.2999 118.477C24.1999 118.277 24.0999 118.077 23.9999 117.877L26.9999 118.477H27.5999ZM26.9999 118.477L27.5999 118.577C27.5999 118.577 27.5999 118.477 27.4999 118.477H26.9999Z" fill="#003876"/>
<path fill-rule="evenodd" clip-rule="evenodd" d="M185.4 105.577C183.9 106.277 182.4 106.277 181.4 106.177C178.6 106.477 176.2 105.577 176 105.477C176 105.477 177.2 105.477 178.9 105.177C176.9 105.077 175 104.377 173.1 103.277C172.2 103.277 171.4 103.377 170.6 103.177C173.3 105.477 175.3 107.377 176.6 109.177C180 113.277 182.7 117.277 182.7 117.277C182.7 117.277 179.1 113.177 177.2 111.277C173.8 107.877 169.1 104.577 164.5 101.777C155.8 97.3771 153 96.0771 146.7 95.9771C140.3 95.8771 134.7 99.4771 133 103.577C132.4 105.977 132.7 109.077 133.9 111.877V110.877C133.9 111.177 136 118.777 147.4 121.777C158.2 124.577 167.1 121.977 172.8 119.377C172.2 118.477 171.5 117.577 170.8 116.677L170 117.077C167.4 118.377 159.9 121.877 149.4 118.477C145.5 117.177 143.6 115.377 142.7 113.777C141.4 112.377 140.6 110.877 140.5 109.077C140.4 109.077 140.3 109.077 140.1 109.177L140 109.277C140 108.777 140.1 107.677 140.1 107.677C141.5 103.277 146.6 101.177 153.4 102.877C158.7 104.177 169.8 109.177 176.2 119.377C177.4 121.277 178.4 123.477 179.2 125.677C180.6 129.377 180.9 134.477 179.3 137.577C177.1 141.877 171.6 144.277 171 144.177C173 144.477 176.4 144.277 179.2 143.677C184.6 142.677 189.7 139.577 192 134.477C192.4 133.577 192.8 132.577 193.1 131.577C194.8 120.577 186.4 105.077 185.4 105.577Z" fill="#EBAA20"/>
<path fill-rule="evenodd" clip-rule="evenodd" d="M187.2 97.9771C185.6 94.7771 183.3 94.277 183.3 94.277L183.2 98.077C183.2 98.077 182.3 94.877 181.9 93.277C180.3 87.777 175.4 80.477 169.8 75.277C170.2 76.077 170.4 76.8771 170.4 77.4771C167.4 73.7771 158.7 66.677 158.7 66.677L159.8 69.9771C159.8 69.9771 159.2 69.1771 158.6 68.4771C152.8 61.6771 136.9 53.377 132.1 50.877L134.2 54.2771C133.8 54.0771 133.3 53.7771 132.6 53.4771L134.7 57.177L123.5 51.877L129.6 52.077C127.9 51.277 125.8 50.3771 123.6 49.4771C118 47.4771 112 45.977 104.7 44.577C103.4 44.377 102.1 44.0771 100.8 43.9771C102 44.7771 104.1 47.5771 105 48.4771C81.2 44.8771 61.6 46.477 46.3 52.2771C36.2 56.977 26.9 64.177 18.4 74.677L18.1 73.277L17.4 68.4771C14 72.9771 9.89995 80.2771 8.49995 85.3771C8.49995 85.3771 8.39995 85.7771 8.39995 85.8771C7.19995 90.3771 7.09995 94.377 7.79995 98.277C8.79995 102.477 10.6 106.577 13.2 111.177L12.7 111.077C13 111.577 13.2 112.077 13.5 112.577L10.9 112.077C15.3 118.877 22.2 126.477 29.8 131.777C24.9 126.477 21.3 121.277 19.2 115.377L19.5 115.477C19.3 114.977 19.1 114.477 18.9 113.977L22.5 114.677C22.2 113.677 22 112.677 21.8 111.677C20.1 104.177 20.6 96.577 22.7 91.177C24.4 86.777 31.4 76.9771 43 73.9771L41.3 76.577C42.1 76.377 42.8 76.1771 43.6 75.9771L40.9 79.577C50.5 75.577 64 74.277 80.5 79.077L78.9 79.277C79.4 79.477 79.9 79.6771 80.3 79.8771L77.3 80.677C82.3 81.877 88.5 83.677 91.3 84.677C94.3 85.677 97.9 87.377 101.5 89.277C100.6 88.577 100.1 88.277 100.1 88.277C105.4 89.877 108.9 93.277 112.6 95.277L112 94.077C117.4 97.077 122.3 98.677 124.3 100.777C124.3 100.777 124.3 100.777 124.4 100.877C128.3 104.177 130.4 106.877 131 107.777C131.2 109.477 131.5 110.977 132.1 112.377C130.5 104.877 132.2 102.677 132.8 101.277C133 100.877 133.2 100.577 133.5 100.277C136 96.477 141.6 94.3771 146.4 94.4771C151.4 94.6771 156.2 96.0771 161.1 98.8771C160.2 97.8771 160.1 96.4771 160.5 95.4771C160.5 95.3771 160.6 95.177 160.7 95.077C160.8 94.777 160.8 94.477 160.9 94.277C161.2 93.677 161.7 93.2771 162.3 92.9771C162 91.8771 160.7 89.377 157.9 89.077C156 88.877 155.2 89.577 155.1 89.577C155.1 89.577 155.7 88.577 156.7 88.177C155.7 87.577 153.2 88.177 153.2 88.177C153.3 88.177 155.6 85.977 159.2 87.077C159.9 87.277 160.5 87.6771 161.1 87.9771C160.6 87.2771 160.3 86.8771 160.3 86.8771C160.7 86.8771 163.4 87.677 164.8 90.677C165.1 91.377 165.9 93.177 166.4 94.077C167.2 95.777 168.8 98.1771 170.4 99.8771C173.1 102.577 176 103.577 179.3 103.477C182.7 103.477 183.9 101.177 184 101.077C184 101.177 184.1 102.677 183.1 103.877C183.9 103.477 184.8 102.477 185 101.777C185.3 100.877 185.1 99.077 184.8 98.677C185 98.877 187.1 100.777 186.7 102.677C186.6 102.977 186.5 103.477 186.2 103.877C186.5 104.077 186.9 104.377 187.3 104.677L186.7 103.877L188.6 104.977C189 104.177 188.8 101.077 187.2 97.9771Z" fill="#EBAA20"/>
<path fill-rule="evenodd" clip-rule="evenodd" d="M162.1 93.077C161.9 92.077 160.7 89.277 157.6 88.977C155.7 88.777 154.9 89.477 154.8 89.477C154.8 89.477 155.4 88.477 156.4 88.077C155.4 87.477 152.9 88.077 152.9 88.077C153 88.077 155.3 85.877 158.9 86.977C159.6 87.177 160.2 87.577 160.8 87.877C160.3 87.177 160 86.777 160 86.777C160.4 86.777 163.1 87.577 164.5 90.577C164.8 91.277 165.6 93.077 166.1 93.977C166.9 95.677 168.5 98.077 170.1 99.777C172.4 102.077 174.8 103.077 177.5 103.377C176 102.977 175.1 102.177 175.3 101.277C177.4 102.177 179.4 102.477 180.4 100.077C181.4 97.577 180.9 89.377 171.3 78.777C171.4 79.377 171.7 80.377 171.7 81.477C169.2 77.877 164.1 72.577 160.9 70.077C161 70.677 161.6 72.777 161.8 73.677C160.1 71.877 155.4 67.877 155.4 67.877L156.4 70.877C156.4 70.877 155.9 70.177 155.3 69.477C150 63.277 135.5 55.677 131.1 53.377L133 56.477C132.7 56.277 132.2 56.077 131.6 55.677L133.6 58.977L123.3 54.177L128.8 54.377C127.2 53.677 125.4 52.877 123.3 51.977C118.2 50.177 112.7 48.777 106.1 47.477C104.9 47.277 103.7 47.077 102.5 46.877C103.4 47.477 105 49.477 105.9 50.577C95.6 49.177 86.2 48.677 77.5 48.977C93.9 48.877 123.5 57.377 135.5 65.677C145.5 72.477 143.9 74.077 133.1 69.277C109.3 58.577 89.9 58.077 89.9 58.077L76.7 66.077C76.7 66.077 98.9 68.977 114.2 77.177C127.4 84.277 122.9 84.577 109.8 79.877C90.2 72.877 68.9 71.577 59.2 72.877C67.9 73.177 83.0999 75.177 89.0999 77.177C87.5999 77.677 83.7 79.377 81.9 79.777C85.2 79.577 122 90.877 132 104.077C132 103.677 132.1 103.177 132.2 102.777C133.4 97.277 140.4 94.177 146.3 94.377C151.3 94.577 156.1 95.877 161 98.777C160.1 97.777 160.1 96.377 160.4 95.377C160.7 94.477 161.3 93.777 161.6 93.677C161.7 93.477 161.9 93.277 162.1 93.077Z" fill="#785200"/>
<path fill-rule="evenodd" clip-rule="evenodd" d="M157.4 81.7768C154.3 81.5768 151.6 82.9768 150 84.9768C148.7 86.4768 148.6 88.8768 149.4 90.5768C149.1 88.8768 149.9 87.2768 150.9 86.0768C152.2 84.4768 154.9 83.4768 157.5 83.4768C160.5 83.3768 164.1 84.3768 166 86.8768C164.5 83.8768 161.9 81.9768 157.4 81.7768Z" fill="white"/>
<path fill-rule="evenodd" clip-rule="evenodd" d="M157.7 82.2772C154.5 82.0772 151.7 83.5772 150 85.5772C148.7 87.1772 148.5 89.6772 149.3 91.3772C149 89.5772 149.9 87.9772 150.9 86.6772C152.2 85.0772 155 83.9772 157.7 83.9772C160.8 83.8772 164.5 84.8772 166.5 87.4772C165.2 84.4772 162.4 82.4772 157.7 82.2772Z" fill="#EBAA20"/>
<path fill-rule="evenodd" clip-rule="evenodd" d="M87.1999 39.2771C57.9999 37.1771 34.6999 45.0771 19.8999 60.0771L20.1999 63.3771C34.4999 47.1771 57.7999 38.1771 87.4999 39.5771C87.2999 39.4771 87.1999 39.3771 87.1999 39.2771Z" fill="#EBAA20"/>
<path fill-rule="evenodd" clip-rule="evenodd" d="M7.6001 127.677C7.8001 129.377 11.6001 133.777 18.1001 138.177C26.5001 143.877 30.8001 144.677 32.4001 144.777C26.4001 141.977 22.4001 139.677 18.3001 136.877C12.5001 132.877 8.7001 129.177 7.6001 127.677Z" fill="#EBAA20"/>
<path fill-rule="evenodd" clip-rule="evenodd" d="M177.7 111.077C177.3 110.677 176.9 110.177 176.4 109.677C174.9 107.977 173.1 106.077 169.5 103.377C169.5 103.377 168.4 102.577 168.3 102.477C168.4 102.477 168.4 102.477 168.5 102.477H168.6C169.6 102.477 170.1 101.977 170.7 101.477C170.2 101.077 169.7 100.577 169.2 100.077C168.9 100.177 168.6 100.277 168.2 100.277C167.9 100.277 167.5 100.177 167.2 100.077C165.9 99.6771 165.3 98.5771 165.4 97.6771L167 97.8772C167 97.8772 166.6 97.1771 166 96.5771C166.2 96.3771 166.5 96.2771 166.8 96.2771H166.9C166.4 95.3771 165.9 94.5771 165.3 93.7771C165 93.5771 164 92.9771 163.1 92.9771C162.7 92.9771 162.4 93.0771 162.1 93.2771C161.9 92.1771 160.7 89.3771 157.6 88.9771C157.4 88.9771 157.1 88.9771 156.9 88.9771C155.5 88.9771 154.8 89.4771 154.8 89.4771V89.3772C155.2 88.6772 155.8 88.1771 156.3 87.9771C156 87.8771 155.6 87.7771 155 87.7771C154 87.7771 152.9 87.9771 152.8 88.0771C152.8 88.0771 152.8 87.9771 152.9 87.9771C154.1 87.0771 155.4 86.5771 156.8 86.5771C157.5 86.5771 158.1 86.6772 158.8 86.8772C159.5 87.0772 160 87.3771 160.6 87.6771L160.7 87.7771C160.2 87.0771 159.9 86.6771 159.9 86.6771C160.4 86.6771 163 87.4771 164.5 90.4771C164.6 90.7771 164.9 91.3771 165.2 91.9771C165.5 92.6771 165.9 93.4771 166.1 93.9771C166.9 95.5771 168.4 98.0771 170.1 99.7771C172.5 102.277 175.3 103.377 178.9 103.377H179C182.4 103.377 183.6 101.077 183.6 101.077C183.6 101.077 183.6 101.077 183.6 101.177C183.6 102.277 183.3 103.277 182.7 103.977C183.5 103.577 184.4 102.577 184.6 101.877C184.9 100.977 184.7 99.1771 184.4 98.7771C184.4 98.7771 184.5 98.7772 184.5 98.8772C186.3 100.677 186.5 101.977 186.3 102.777C186.1 103.577 185.7 104.577 184.2 105.377C183 105.977 181.6 106.277 180.1 106.277C178.8 106.277 177.4 106.077 176 105.577C175.9 105.577 175.9 105.577 175.9 105.577H176C176.3 105.577 177.3 105.577 178.7 105.277C176.8 105.177 174.8 104.577 172.9 103.377H172.6C172.3 103.377 172 103.377 171.7 103.377C171.2 103.377 170.7 103.377 170.3 103.277C174.1 106.177 176.4 108.777 177.7 111.077Z" fill="#003876"/>
<path fill-rule="evenodd" clip-rule="evenodd" d="M179.4 95.077C177.1 94.477 175.8 92.977 174.3 90.577L173.2 88.877C169.4 83.177 166.4 81.277 164.1 80.377C165.6 80.477 170.3 82.1769 174.3 88.1769L175.4 89.877C177 92.177 177.7 94.677 179.4 95.077Z" fill="#EBAA20"/>
<path fill-rule="evenodd" clip-rule="evenodd" d="M178.2 95.577C175.9 94.977 174.6 93.477 173.1 91.077L172 89.377C168.2 83.677 165.2 81.777 162.9 80.877C164.4 80.977 169.1 82.6769 173.1 88.6769L174.2 90.377C175.8 92.677 176.5 95.077 178.2 95.577Z" fill="#003876"/>
<path fill-rule="evenodd" clip-rule="evenodd" d="M135.6 96.1769L137.6 95.6769C129.9 89.7769 119.9 84.3769 109.7 80.3769C106.5 79.1769 101 77.1769 97.8 76.2769C100.7 77.2769 104 78.3769 106.2 79.2769C117.6 83.6769 127.4 89.2769 135.6 96.1769Z" fill="#EBAA20"/>
<path fill-rule="evenodd" clip-rule="evenodd" d="M162 99.4768C160.6 98.0768 160.2 96.1768 161.5 93.6768C161.2 93.7768 160.6 94.3768 160.3 95.3768C160 96.3768 160 97.7768 160.9 98.7768C156 95.8768 151.2 94.4768 146.2 94.3768C140.4 94.1768 133.3 97.3768 132.1 102.777C131.6 105.277 132 107.077 132 107.077C132 107.077 132.2 105.577 132.4 104.977C133.3 100.377 139.4 95.9768 146.5 96.1768C152.8 96.2768 155.7 97.5768 164.6 102.177L166 102.477C164.7 101.377 163.4 100.377 162 99.4768Z" fill="#003876"/>
<path fill-rule="evenodd" clip-rule="evenodd" d="M128.3 65.0769L129.3 64.2769C120.6 59.8769 110.8 56.4769 100 54.5769C96.6 53.9769 90.9 53.0769 87.5 52.7769C90.5 53.1769 93.9 53.7769 96.3 54.1769C108.4 56.2769 118.9 59.7769 128.3 65.0769Z" fill="#785200"/>
<path fill-rule="evenodd" clip-rule="evenodd" d="M14.2 55.9771C9.9 61.3771 2.8 69.5771 0.5 80.8771L0.7 84.577C2.9 73.877 9.8 61.5771 14.2 55.9771Z" fill="#003876"/>
<path fill-rule="evenodd" clip-rule="evenodd" d="M110.3 63.0772C110.6 62.7772 111.5 62.1772 111.9 61.9772C97.8 55.9772 73.1 55.4772 57.5 60.2772C61 59.3772 64.1 58.8772 66.6 58.4772C78.2 56.6772 101.2 59.1772 110.3 63.0772Z" fill="#003876"/>
<path d="M61 61.9771L56.1 82.677H60.9L51 123.377H46.3L41 144.677H133.5L138.7 123.377H127.3L116.6 97.277L133.6 82.677H143.9L148.9 61.9771H61Z" fill="#EBAA20"/>
<path d="M114.3 96.7772L126.1 125.277H136.3L132.1 142.777H43.3999L47.6999 125.277H52.4999L63.2999 80.7772H58.3999L62.4999 63.6772H146.7L142.4 80.7772H132.9L114.3 96.7772Z" fill="white"/>
<path d="M139.9 77.577L142.4 66.877H101.8L99.0999 77.577H103.8L85.3999 93.077L89.1999 77.577H92.4999L95.0999 66.877H65.0999L62.4999 77.577H67.4999L55.1999 128.377H50.1999L47.3999 139.577H79.1999L81.8999 128.377H76.7999L78.0999 123.377L91.9999 111.477L99.0999 128.377H91.2999L88.5999 139.577H129.6L132.4 128.377H123.9L110.5 95.7769L131.9 77.577H139.9Z" fill="#003876"/>
<path fill-rule="evenodd" clip-rule="evenodd" d="M136.4 142.977H136.7C136.9 142.977 137 142.977 137 142.877C137.1 142.877 137.1 142.777 137.1 142.677C137.1 142.577 137.1 142.577 137.1 142.577L137 142.477C137 142.477 136.9 142.477 136.7 142.477H136.4V142.977ZM136.1 143.977V142.277H136.7C136.9 142.277 137 142.277 137.1 142.277C137.2 142.277 137.3 142.377 137.3 142.477C137.4 142.577 137.4 142.677 137.4 142.777C137.4 142.877 137.4 142.977 137.3 143.077C137.2 143.177 137.1 143.177 136.9 143.277C137 143.277 137 143.377 137 143.377C137.1 143.477 137.2 143.577 137.3 143.677L137.5 143.977H137.2L137 143.677C136.9 143.477 136.8 143.377 136.7 143.277C136.6 143.277 136.6 143.177 136.5 143.177H136.3V143.877L136.1 143.977ZM136.8 141.777C136.6 141.777 136.4 141.877 136.1 141.977C135.9 142.077 135.7 142.277 135.6 142.477C135.5 142.677 135.4 142.877 135.4 143.177C135.4 143.377 135.5 143.577 135.6 143.877C135.7 144.077 135.9 144.277 136.1 144.377C136.3 144.477 136.5 144.577 136.8 144.577C137 144.577 137.2 144.477 137.5 144.377C137.7 144.277 137.9 144.077 138 143.877C138.1 143.677 138.2 143.477 138.2 143.177C138.2 142.977 138.1 142.677 138 142.477C137.9 142.277 137.7 142.077 137.5 141.977C137.2 141.877 137 141.777 136.8 141.777ZM136.8 141.477C137.1 141.477 137.3 141.577 137.6 141.677C137.9 141.777 138.1 141.977 138.2 142.277C138.3 142.577 138.4 142.777 138.4 143.077C138.4 143.377 138.3 143.577 138.2 143.877C138.1 144.177 137.9 144.277 137.6 144.477C137.3 144.577 137.1 144.677 136.8 144.677C136.5 144.677 136.3 144.577 136 144.477C135.7 144.377 135.6 144.177 135.4 143.877C135.3 143.577 135.2 143.377 135.2 143.077C135.2 142.777 135.3 142.577 135.4 142.277C135.5 141.977 135.7 141.877 136 141.677C136.3 141.577 136.5 141.477 136.8 141.477Z" fill="#003876"/>
<path d="M162 165.377H162.4C162.6 165.377 162.7 165.377 162.7 165.277C162.8 165.277 162.8 165.177 162.8 165.077C162.8 164.977 162.8 164.977 162.8 164.977L162.7 164.877C162.6 164.877 162.6 164.877 162.4 164.877H162.1L162 165.377ZM161.7 166.477V164.677H162.3C162.5 164.677 162.7 164.677 162.8 164.677C162.9 164.677 163 164.777 163 164.877C163.1 164.977 163.1 165.077 163.1 165.177C163.1 165.277 163.1 165.377 163 165.477C162.9 165.577 162.8 165.677 162.6 165.677C162.7 165.677 162.7 165.777 162.8 165.777C162.9 165.877 163 165.977 163.1 166.177L163.3 166.477H162.9L162.7 166.177C162.6 165.977 162.5 165.777 162.4 165.777C162.3 165.777 162.3 165.677 162.2 165.677H162V166.477H161.7ZM162.5 164.077C162.3 164.077 162 164.177 161.8 164.277C161.6 164.377 161.4 164.577 161.3 164.777C161.2 164.977 161.1 165.277 161.1 165.477C161.1 165.677 161.2 165.977 161.3 166.177C161.4 166.377 161.6 166.577 161.8 166.677C162 166.777 162.3 166.877 162.5 166.877C162.7 166.877 163 166.777 163.2 166.677C163.4 166.577 163.6 166.377 163.7 166.177C163.8 165.977 163.9 165.777 163.9 165.477C163.9 165.277 163.8 164.977 163.7 164.777C163.6 164.577 163.4 164.377 163.2 164.277C162.9 164.177 162.7 164.077 162.5 164.077ZM162.5 163.877C162.8 163.877 163.1 163.977 163.3 164.077C163.6 164.177 163.8 164.377 163.9 164.677C164 164.977 164.1 165.177 164.1 165.477C164.1 165.777 164 166.077 163.9 166.277C163.8 166.577 163.5 166.777 163.3 166.877C163 166.977 162.8 167.077 162.5 167.077C162.2 167.077 161.9 166.977 161.7 166.877C161.4 166.777 161.2 166.477 161.1 166.277C161 165.977 160.9 165.777 160.9 165.477C160.9 165.177 161 164.877 161.1 164.677C161.2 164.377 161.5 164.177 161.7 164.077C161.9 163.877 162.2 163.877 162.5 163.877Z" fill="#003876"/>
<path d="M34.7999 151.277C32.6999 151.277 30.6999 151.277 28.5999 151.277C27.3999 153.077 26.2999 154.877 25.0999 156.677C24.7999 156.677 24.6999 156.677 24.3999 156.677C24.6999 154.877 24.9999 153.077 25.2999 151.277C23.3999 151.277 21.5999 151.277 19.6999 151.277H17.6999L19.3999 152.977C18.5999 157.677 17.6999 162.377 16.8999 167.177C18.7999 167.077 20.5999 166.977 22.4999 166.977C22.7999 165.077 23.1999 163.177 23.4999 161.277C23.7999 161.277 23.9999 161.277 24.2999 161.277C24.8999 163.177 25.3999 164.977 25.9999 166.877C27.9999 166.777 29.8999 166.677 31.8999 166.677C30.9999 164.177 30.1999 161.677 29.2999 159.277C31.1999 156.477 32.9999 153.877 34.7999 151.277Z" fill="#003876"/>
<path d="M47.2999 155.477C47.5999 154.077 47.7999 152.677 48.0999 151.277C44.0999 151.277 40.0999 151.277 36.1999 151.277C35.2999 156.377 34.2999 161.377 33.3999 166.477C37.3999 166.377 41.3999 166.177 45.2999 166.077C45.5999 164.677 45.7999 163.277 46.0999 161.877C43.8999 161.877 41.6999 161.977 39.5999 161.977C39.6999 161.477 39.7999 161.177 39.8999 160.577C41.7999 160.577 43.6999 160.477 45.5999 160.477C45.7999 159.277 45.9999 157.977 46.1999 156.777C44.2999 156.777 42.3999 156.777 40.4999 156.877C40.5999 156.377 40.6999 156.077 40.7999 155.577C42.8999 155.577 45.0999 155.577 47.2999 155.477Z" fill="#003876"/>
<path d="M59.8 154.877C59.6 155.977 59.4 156.977 59.3 158.077H59.2C58.8 157.177 58.4 156.377 57.9 155.577C57.1 154.177 56.3 152.777 55.5 151.277C53.8 151.277 52 151.277 50.3 151.277C49.4 156.177 48.4 161.077 47.5 165.977C49.3 165.977 51.2 165.877 53 165.877C53.2 164.677 53.4 163.577 53.6 162.377C53.8 161.277 54 160.077 54.2 158.877H54.3C54.8 159.977 55.5 160.977 56.1 162.077C56.8 163.277 57.5 164.477 58.3 165.677C59.9 165.677 61.6 165.577 63.2 165.577C64.1 160.777 65 155.977 66 151.177C64.2 151.177 62.3 151.177 60.5 151.177C60.3 152.477 60.1 153.677 59.8 154.877Z" fill="#003876"/>
<path d="M67.6999 151.277C67.3999 152.677 67.0999 154.177 66.8999 155.577C68.1999 155.577 72.3999 155.577 72.3999 155.577L70.4999 157.477C69.9999 160.177 69.4999 162.877 68.8999 165.577C70.7999 165.577 72.5999 165.577 74.4999 165.477C75.1999 162.177 75.7999 158.777 76.4999 155.477C77.7999 155.477 79.0999 155.477 80.4999 155.477C80.7999 154.077 81.0999 152.677 81.2999 151.277C76.6999 151.277 72.1999 151.277 67.6999 151.277Z" fill="#003876"/>
<path d="M97.0999 154.677C97.7999 154.677 98.3999 155.077 98.3999 155.777C100.1 155.577 101.8 155.277 103.5 155.077C103.3 151.877 100.2 150.977 97.4999 150.977C94.3999 150.977 90.7999 152.377 90.6999 155.977C90.6999 158.577 92.7999 159.977 95.0999 160.577C95.9999 160.777 96.4999 160.977 96.4999 161.377C96.4999 161.877 96.0999 162.077 95.4999 161.977C94.6999 161.977 93.8999 161.477 93.7999 160.577C92.1999 160.977 90.4999 161.377 88.8999 161.777C89.1999 164.877 92.6999 165.677 95.1999 165.677C98.3999 165.677 102.4 164.477 102.3 160.677C102.3 158.277 100.3 156.777 98.0999 156.177C97.4999 156.077 96.1999 155.777 96.0999 155.177C96.1999 155.077 96.4999 154.677 97.0999 154.677Z" fill="#003876"/>
<path d="M118.7 151.277C114.2 151.277 109.7 151.277 105.1 151.277C104.8 152.677 104.5 154.077 104.3 155.577C105.6 155.577 109.8 155.577 109.8 155.577L107.9 157.477C107.4 160.177 106.9 162.877 106.3 165.577C108.2 165.577 110 165.577 111.9 165.677C112.6 162.277 113.2 158.977 113.9 155.577C115.2 155.577 116.5 155.577 117.9 155.577C118.2 154.177 118.5 152.777 118.7 151.277Z" fill="#003876"/>
<path d="M123.9 160.077L125.8 155.577H125.9L126.4 160.177C125.5 160.177 124.7 160.077 123.9 160.077ZM123.2 151.277C120.5 156.077 117.7 160.877 114.9 165.677C116.8 165.677 118.8 165.777 120.7 165.777C121.1 165.077 121.4 164.477 121.8 163.777C123.5 163.777 126.9 163.877 126.9 163.877H128.5L127.1 165.277C127.1 165.477 127.2 165.677 127.2 165.877C129.1 165.877 130.9 165.977 132.8 165.977C132 161.077 131.2 156.077 130.4 151.177C128 151.277 125.6 151.277 123.2 151.277Z" fill="#003876"/>
<path d="M148 151.277C143.5 151.277 139 151.277 134.4 151.277C134.1 152.777 133.8 154.177 133.6 155.677C134.9 155.677 138 155.777 138 155.777H139L137.2 157.577C136.7 160.377 136.1 163.277 135.6 166.077C137.5 166.177 139.3 166.177 141.2 166.277C141.9 162.777 142.5 159.277 143.2 155.777C144.5 155.777 145.8 155.777 147.2 155.777C147.5 154.377 147.7 152.877 148 151.277Z" fill="#003876"/>
<path d="M161 155.877C161.1 155.077 161.3 154.277 161.4 153.477L163.5 151.377H161.3C157.5 151.377 153.7 151.377 149.8 151.377C148.9 156.477 148 161.577 147 166.577C151 166.677 155 166.877 158.9 167.077C159.2 165.577 159.4 164.077 159.7 162.577C157.5 162.477 155.3 162.477 153.2 162.377C153.3 161.777 153.4 161.577 153.5 160.977C155.4 160.977 157.3 161.077 159.2 161.177C159.4 159.877 159.6 158.577 159.8 157.277C157.9 157.277 156 157.177 154.1 157.177C154.2 156.577 154.3 156.377 154.4 155.777C156.6 155.777 158.8 155.777 161 155.877Z" fill="#003876"/>
<path d="M86.3 157.977C86.3 157.977 87 156.577 87.8 154.577C88.6 152.477 89.5 149.977 89.5 149.977L83.4 153.477C83.4 153.477 83.3 153.777 83 154.777C82.7 155.777 82.5 156.277 82.5 156.277L83.9 155.777C83.9 155.777 83.6 156.777 83.1 158.377C82.5 159.877 81.7 161.877 81.7 161.877L83.3 161.177C83.3 161.177 83.3 161.277 82.7 163.077C82.2 164.577 81.5 166.177 81.5 166.177C81.5 166.177 82.8 164.877 83.9 163.877C85 162.777 85.9 161.877 85.9 161.877L84.7 162.277C84.7 162.277 85.3 161.377 86.1 160.277C86.9 159.177 87.7 157.877 87.7 157.877L86.3 157.977Z" fill="#EBAA20"/>
</svg>
