<?xml version="1.0" encoding="UTF-8"?>
<svg width="200px" height="200px" viewBox="0 0 200 200" version="1.1" xmlns="http://www.w3.org/2000/svg" xmlns:xlink="http://www.w3.org/1999/xlink">
    <!-- Generator: Sketch 54.1 (76490) - https://sketchapp.com -->
    <title>michigan</title>
    <desc>Created with Sketch.</desc>
    <g id="michigan" stroke="none" stroke-width="1" fill="none" fill-rule="evenodd">
        <g id="michigan_BGL" transform="translate(0.000000, -0.000000)" fill="#FCD213">
            <g id="michigan" transform="translate(0.000000, 33.000000)">
                <g id="g10" transform="translate(99.987611, 67.224580) scale(-1, 1) rotate(-180.000000) translate(-99.987611, -67.224580) translate(0.000000, 0.037662)" fill-rule="nonzero">
                    <g id="g12">
                        <g id="g14" transform="translate(0.000000, 0.103634)">
                            <polyline id="path16" points="93.6248695 23.4128385 55.4105149 75.9570579 55.4105149 37.7440851 70.6957731 37.7440851 70.6957731 0.007345141 0 0.007345141 0 37.7440851 14.32998 37.7440851 14.32998 96.4966921 0 96.4966921 0 134.234098 55.5301549 134.234098 93.8139446 81.2128156 132.163715 134.234098 187.693294 134.234098 187.693294 96.4966921 173.362969 96.4966921 173.362969 37.7440851 187.693294 37.7440851 187.693294 0.007345141 116.998557 0.007345141 116.998557 37.7440851 132.28347 37.7440851 132.28347 75.9570579 93.6248695 23.4128385"></polyline>
                        </g>
                        <g id="g18" transform="translate(191.257035, 0.000000)">
                            <path d="M7.41283517,4.30869205 C7.41283517,2.32282735 5.99625267,0.989952003 4.32701563,0.989952003 L4.32701563,1.00086766 C2.61730481,0.989952003 1.24855496,2.32282735 1.24855496,4.30869205 C1.24855496,6.2915764 2.61730481,7.62936993 4.32701563,7.62936993 C5.99625267,7.62936993 7.41283517,6.2915764 7.41283517,4.30869205 Z M8.65893718,4.30869205 C8.65893718,7.0387838 6.61439776,8.63519256 4.32701563,8.63519256 C2.0396335,8.63519256 0.00367943506,7.0387838 0.00367943506,4.30869205 C0.00367943506,1.58254955 2.0396335,0 4.32701563,0 C6.61439776,0 8.65893718,1.58254955 8.65893718,4.30869205 Z M3.60707284,3.94401097 L4.07558757,3.94401097 L5.14875613,1.99283109 L6.32862831,1.99283109 L5.13771783,4.02429625 C5.75708939,4.068891 6.261172,4.37806166 6.261172,5.23225478 C6.261172,6.2915764 5.54981455,6.63349403 4.34786577,6.63349403 L2.61730481,6.63349403 L2.61730481,1.99283109 L3.60707284,1.99283109 L3.60707284,3.94401097 Z M3.60707284,4.73182708 L3.60707284,5.8456534 L4.30371254,5.8456534 C4.6802414,5.8456534 5.19413583,5.81096859 5.19413583,5.33530349 C5.19413583,4.82299121 4.93166946,4.73182708 4.48645782,4.73182708 L3.60707284,4.73182708 L3.60707284,4.73182708 Z" id="path20"></path>
                        </g>
                    </g>
                </g>
            </g>
        </g>
    </g>
</svg>