<?xml version="1.0" encoding="UTF-8"?>
<svg width="200px" height="200px" viewBox="0 0 200 200" version="1.1" xmlns="http://www.w3.org/2000/svg" xmlns:xlink="http://www.w3.org/1999/xlink">
    <!-- Generator: Sketch 54.1 (76490) - https://sketchapp.com -->
    <title>new-mexico-st</title>
    <desc>Created with Sketch.</desc>
    <g id="new-mexico-st" stroke="none" stroke-width="1" fill="none" fill-rule="evenodd">
        <g id="new-mexico-st_BGL">
            <g id="new-mexico-st" transform="translate(0.000000, 27.000000)">
                <path d="M113.939394,0.190235294 C114.424242,0.0345882353 114.822511,0.380470588 115.168831,0.674470588 C116.17316,1.60835294 117.021645,2.80164706 117.818182,3.90847059 C119.290043,6.00105882 120.640693,8.18011765 121.887446,10.4110588 C122.199134,10.9644706 122.441558,11.5178824 122.597403,12.1231765 C123.255411,14.4751765 123.930736,16.8271765 124.606061,19.1791765 C127.601732,18.1069412 130.38961,16.0316471 133.212121,14.5443529 C134.21645,13.9909412 135.480519,13.5585882 136.640693,13.6969412 C137.281385,13.7661176 137.800866,14.2330588 137.922078,14.8556471 C138.060606,15.8587059 137.974026,16.8963529 137.541126,17.8302353 C136.502165,20.2341176 134.753247,22.4304706 132.952381,24.3328235 C130.597403,26.7885882 127.896104,28.8465882 124.969697,30.576 C124.952381,32.4264706 124.796537,34.2769412 124.675325,36.1274118 C124.467532,38.7907059 124.242424,41.454 123.91342,44.1 C124.761905,45.0338824 125.489177,46.3828235 126.597403,47.0227059 C127.584416,47.5761176 128.554113,47.4377647 129.627706,47.2994118 C128.848485,47.9565882 128.017316,48.4754118 127.116883,48.9250588 C129.385281,49.4784706 131.619048,50.1529412 133.852814,50.8274118 C134.424242,51.0176471 135.012987,51.1732941 135.584416,51.3981176 C136.051948,51.5710588 136.138528,52.1590588 136.588745,52.3147059 C139.030303,53.2485882 141.52381,54.4072941 143.532468,56.0848235 C145.506494,57.7623529 147.082251,60.0105882 147.82684,62.4836471 C148.155844,63.5212941 148.277056,64.6454118 148.4329,65.7176471 C148.744589,68.0004706 148.761905,70.3524706 148.415584,72.6352941 C148.363636,73.0503529 148.294372,73.4308235 148.363636,73.8458824 C149.489177,79.1205882 149.78355,84.6201176 149.038961,89.964 C152.813853,90.8632941 156.623377,91.8490588 160.398268,92.7310588 C161.437229,92.3678824 162.406926,91.6415294 163.497835,91.3648235 C164.727273,91.2783529 165.939394,91.6761176 166.891775,92.4543529 C167.532468,92.2295294 168.138528,92.0392941 168.848485,92.1603529 C172.069264,92.6618824 175.272727,93.2152941 178.493506,93.7168235 C179.411255,93.8724706 180.017316,94.1664706 180.692641,94.7890588 C183.584416,95.3251765 186.47619,95.8094118 189.367965,96.3801176 C191.012987,94.9792941 193.800866,95.5154118 195.203463,97.0027059 C195.619048,97.5042353 196.190476,97.5388235 196.727273,97.8674118 C197.558442,98.4208235 198.095238,99.3028235 198.268398,100.288588 C198.372294,100.997647 198.701299,101.654824 198.753247,102.363882 C198.839827,103.885765 197.95671,105.597882 196.398268,106.012941 C195.445887,106.255059 194.458874,106.618235 193.489177,106.618235 C192.450216,106.652824 191.428571,106.791176 190.38961,106.791176 C190.268398,106.220471 190.12987,105.667059 189.95671,105.113647 C187.463203,104.698588 184.987013,104.214353 182.510823,103.764706 C181.835498,103.539882 181.073593,104.093294 180.450216,104.352706 C180.034632,104.923412 179.722944,105.580588 179.272727,106.116706 C178.839827,106.618235 178.47619,107.171647 178.077922,107.707765 C177.281385,108.658941 176.155844,108.935647 174.961039,109.091294 C174.770563,109.471765 174.580087,109.869529 174.372294,110.25 C182.874459,110.25 191.376623,110.25 199.878788,110.25 C199.030303,114.867529 198.164502,119.467765 197.316017,124.085294 C195.670996,124.102588 194.025974,124.085294 192.398268,124.085294 C191.896104,126.748588 191.411255,129.411882 190.943723,132.075176 C192.744589,132.075176 194.528139,132.075176 196.329004,132.075176 C195.463203,136.813765 194.580087,141.552353 193.731602,146.290941 C162.354978,146.308235 130.978355,146.290941 99.6017316,146.290941 C100.103896,143.973529 100.571429,141.656118 101.108225,139.356 C100.25974,141.414 99.3939394,143.316353 97.5411255,144.682588 C95.6190476,146.066118 93.2987013,146.239059 90.995671,146.273647 C77.8354978,146.273647 64.6753247,146.273647 51.5151515,146.273647 C51.6883117,144.648 52.1038961,143.074235 52.3290043,141.448588 C51.012987,143.247176 49.7316017,145.063059 48.3982684,146.861647 C47.6017316,144.596118 46.7012987,142.347882 45.9047619,140.082353 C45.4891775,142.140353 45.1601732,144.215647 44.7965368,146.273647 C36.1038961,146.273647 27.4112554,146.290941 18.7186147,146.273647 C18.1645022,144.509647 17.6450216,142.728353 17.0562771,140.998941 C16.8311688,142.762941 16.4675325,144.509647 16.2251082,146.290941 C10.8398268,146.290941 5.47186147,146.290941 0.0865800866,146.290941 C0.865800866,141.967412 1.62770563,137.643882 2.44155844,133.337647 C3.08225108,133.337647 3.70562771,133.337647 4.34632035,133.337647 C4.93506494,129.948 5.61038961,126.592941 6.14718615,123.203294 C5.52380952,123.203294 4.9004329,123.203294 4.27705628,123.203294 C5.05627706,118.879765 5.83549784,114.556235 6.63203463,110.232706 C11.5670996,110.232706 16.4848485,110.232706 21.4199134,110.232706 C21.974026,112.048588 22.4935065,113.899059 23.1341991,115.697647 C23.3593074,113.864471 23.7229437,112.048588 24,110.232706 C32.7619048,110.232706 41.5064935,110.232706 50.2683983,110.232706 C49.1428571,108.814588 48.9350649,107.223529 48.3809524,105.546 C47.9480519,104.248941 47.7748918,103.003765 46.978355,101.862353 C46.7186147,101.343529 46.2510823,101.153294 45.8528139,100.790118 C43.8961039,98.6629412 41.8874459,96.5530588 39.8787879,94.4777647 C39.8268398,94.0627059 39.8787879,93.7168235 39.5844156,93.3709412 C36.5887446,89.5835294 33.2467532,86.0209412 30.4415584,82.1124706 C28.4675325,79.38 27.3939394,76.0768235 27.4805195,72.7044706 C27.5670996,69.8509412 28.2251082,67.0147059 29.8874459,64.6627059 C31.0649351,62.9851765 32.6060606,61.7054118 34.2857143,60.564 C36.3116883,59.1977647 38.2164502,57.5548235 40.1731602,56.0848235 C43.5151515,53.5425882 47.2207792,51.4327059 51.1515152,49.9281176 C53.8874459,48.8904706 56.7619048,48.2332941 59.5844156,47.4896471 C60.3116883,47.2994118 61.004329,46.9016471 61.6969697,46.6076471 C65.2813853,45.0511765 69.0562771,44.4631765 72.9350649,44.3075294 C73.004329,44.1518824 73.0735931,44.0135294 73.1428571,43.8578824 C75.1688312,43.7541176 77.1948052,43.8405882 79.2207792,43.8578824 C80.2597403,43.8578824 81.2987013,43.9962353 82.3376623,43.9962353 C83.5151515,43.9962353 84.6753247,44.1518824 85.8354978,44.1691765 C86.2164502,43.6503529 86.6320346,43.1834118 87.0822511,42.7337647 C87.0995671,41.3329412 86.9437229,39.9494118 87.012987,38.5485882 C86.9437229,38.2027059 86.7532468,37.8741176 86.6320346,37.5455294 C86.3722944,36.8883529 86.3376623,36.1792941 86.04329,35.5221176 C85.7835498,34.9514118 85.4718615,34.398 85.1948052,33.8272941 C81.6969697,32.7896471 78.4242424,31.1985882 75.6190476,28.8292941 C73.5584416,27.0652941 71.7922078,24.8689412 70.9264069,22.2921176 C70.5800866,21.1852941 70.3376623,19.8536471 70.7012987,18.7468235 C71.047619,17.6572941 71.982684,16.758 72.987013,16.2391765 C74.3896104,15.5474118 75.982684,15.3052941 77.4891775,15.7030588 C80.6753247,16.464 83.7922078,18.2107059 86.6493506,19.7844706 C87.3939394,17.6918824 88.1904762,15.5992941 88.987013,13.5067059 C89.2640693,12.7976471 89.4545455,12.1058824 89.9220779,11.5005882 C90.4761905,10.7569412 91.1168831,10.0478824 91.7229437,9.33882353 C93.974026,6.83117647 96.3809524,4.37541176 99.012987,2.26552941 C99.9134199,1.57376471 100.917749,0.778235294 102.008658,0.466941176 C103.359307,0.311294118 104.779221,0.588 106.04329,1.05494118 C107.012987,1.41811765 107.965368,2.00611765 108.969697,2.26552941 C110.233766,2.54223529 111.619048,2.14447059 112.554113,1.27976471 C112.900433,0.916588235 113.367965,0.345882353 113.939394,0.190235294 Z" id="Shape" fill="#231F20" fill-rule="nonzero"></path>
                <path d="M102.805195,4.34082353 C103.82684,4.73858824 105.056277,5.49952941 105.454545,6.57176471 C105.87013,7.55752941 105.281385,8.64705882 104.623377,9.37341176 C103.341991,10.7742353 101.471861,11.7427059 99.7056277,12.4171765 C97.5064935,13.1954118 95.2727273,13.6623529 92.9350649,13.2991765 C94.1991342,13.0397647 95.4632035,12.9014118 96.7099567,12.5555294 C98.4588745,12.0712941 100.242424,11.3795294 101.748918,10.3418824 C102.562771,9.78847059 103.341991,9.114 103.809524,8.24929412 C104.138528,7.59211765 104.34632,6.91764706 104.08658,6.20858824 C103.878788,5.39576471 103.324675,4.94611765 102.805195,4.34082353 Z" id="Shape" fill="#9A989B" fill-rule="nonzero"></path>
                <path d="M115.099567,4.44458824 C115.134199,5.30929412 115.238095,6.15670588 115.601732,6.96952941 C116.571429,9.14858824 118.38961,10.7569412 120.034632,12.3998824 C118.251082,11.8464706 116.675325,10.584 115.584416,9.07941176 C114.874459,8.09364706 114.285714,6.95223529 114.441558,5.70705882 C114.47619,5.18823529 114.822511,4.84235294 115.099567,4.44458824 Z" id="Shape" fill="#9A989B" fill-rule="nonzero"></path>
                <path d="M135.341991,16.4121176 C133.454545,19.2137647 130.597403,21.4447059 127.601732,22.9838824 C123.670996,24.9727059 119.220779,25.9757647 114.839827,26.2870588 C113.95671,26.3735294 113.073593,26.3908235 112.190476,26.3043529 C116.969697,25.4742353 121.593074,24.4538824 126.025974,22.4477647 C128.987013,21.1334118 131.74026,19.3867059 134.21645,17.3114118 C134.580087,17.0001176 134.943723,16.7061176 135.341991,16.4121176 Z" id="Shape" fill="#9A989B" fill-rule="nonzero"></path>
                <path d="M77.8528139,18.4009412 C80.4155844,19.2310588 82.6493506,20.5454118 85.021645,21.7905882 C86.8571429,22.7936471 88.7445887,23.6756471 90.5974026,24.5922353 C90.0952381,24.5057647 89.6103896,24.402 89.1255411,24.2463529 C86.4935065,23.4335294 83.9134199,22.3958824 81.4199134,21.2025882 C79.6017316,20.3378824 77.5064935,19.2137647 75.4805195,19.0581176 C74.4069264,18.9889412 73.6277056,19.5077647 72.8311688,20.1303529 C72.987013,19.5596471 73.0909091,19.0408235 73.5930736,18.6776471 C74.7705628,17.8302353 76.5541126,17.9167059 77.8528139,18.4009412 Z" id="Shape" fill="#9A989B" fill-rule="nonzero"></path>
                <path d="M122.285714,20.2341176 C122.47619,20.9777647 122.649351,21.7387059 122.805195,22.4996471 C119.497835,23.2605882 115.930736,23.4508235 112.554113,23.5891765 C110.545455,23.5891765 108.502165,23.6583529 106.493506,23.4854118 C103.307359,23.4162353 100.121212,23.1395294 96.969697,22.7590588 C94.2857143,22.3785882 91.5151515,21.9116471 88.952381,20.9950588 C90.1818182,21.0296471 91.3939394,21.2371765 92.6233766,21.3236471 C94.1818182,21.4274118 95.7402597,21.5830588 97.2987013,21.5830588 C100.190476,21.7732941 103.064935,21.7041176 105.95671,21.7041176 C107.463203,21.7214118 108.952381,21.5484706 110.458874,21.5657647 C113.350649,21.4274118 116.225108,21.1852941 119.082251,20.8048235 C120.17316,20.6491765 121.212121,20.3897647 122.285714,20.2341176 Z" id="Shape" fill="#9A989B" fill-rule="nonzero"></path>
                <path d="M89.3506494,25.5952941 C91.1168831,25.4050588 92.987013,25.6817647 94.6666667,26.2178824 C94.3376623,26.3216471 93.9047619,26.3562353 93.6277056,26.5810588 C93.2813853,26.9096471 93.021645,27.3592941 92.7445887,27.7570588 C92.5714286,27.2555294 92.4329004,26.7367059 92.2943723,26.2178824 C91.7748918,26.8923529 91.3939394,27.6532941 90.978355,28.3969412 C90.5800866,27.6532941 90.4242424,26.8577647 90.2683983,26.0449412 C89.8181818,26.4772941 89.4718615,26.9442353 89.1601732,27.4976471 C88.9350649,27.0652941 88.7272727,26.6329412 88.5367965,26.166 C87.5324675,26.5810588 86.6147186,27.1517647 85.6623377,27.6532941 C86.4935065,26.3735294 87.8787879,25.7509412 89.3506494,25.5952941 Z" id="Shape" fill="#9A989B" fill-rule="nonzero"></path>
                <path d="M95.4805195,26.3216471 C101.78355,28.0164706 108.4329,29.1924706 114.961039,28.7774118 C117.52381,28.5871765 120.069264,28.1375294 122.510823,27.2901176 C122.493506,27.4111765 122.493506,27.5495294 122.47619,27.6705882 C121.922078,27.7051765 121.385281,27.7570588 120.883117,27.9991765 C118.909091,28.8811765 117.177489,30.4030588 115.878788,32.1151765 C117.212121,32.5821176 118.528139,33.0836471 119.861472,33.5678824 C120.155844,32.9625882 120.450216,32.34 120.761905,31.7347059 C121.160173,31.7347059 121.558442,31.752 121.974026,31.752 C121.52381,31.1121176 121.056277,30.5414118 120.467532,30.0225882 C121.125541,29.8496471 121.800866,29.7458824 122.47619,29.6421176 C122.337662,33.7408235 122.025974,37.8049412 121.61039,41.8863529 C120.623377,41.2291765 119.722944,40.572 118.597403,40.1915294 C119.134199,39.0155294 118.718615,37.5628235 117.974026,36.5770588 C117.748918,36.2311765 117.419913,36.1447059 117.056277,36.0236471 C116.450216,34.7438824 115.757576,33.4987059 115.012987,32.2708235 C115.82684,30.9564706 116.987013,30.0225882 118.12987,29.0022353 C116.554113,29.8496471 115.047619,30.7662353 113.800866,32.0978824 C114.787879,33.7927059 115.688312,35.6085882 116.225108,37.4763529 C116.34632,37.3552941 116.450216,37.2515294 116.554113,37.1304706 C117.142857,37.7011765 117.489177,38.514 117.281385,39.3268235 C117.177489,39.6727059 116.709957,39.6035294 116.415584,39.6554118 C116.277056,40.0531765 116.242424,40.4336471 115.896104,40.6930588 C115.376623,41.0908235 114.545455,41.0735294 113.904762,41.0735294 C112.831169,41.0389412 111.948052,40.572 111.064935,40.0012941 C110.597403,39.5516471 109.506494,40.278 109.177489,39.6727059 C108.865801,38.8771765 109.367965,37.7703529 110.164502,37.4417647 C110.909091,37.2169412 111.376623,37.5974118 112,37.9605882 C111.774892,37.2688235 111.5671,36.9748235 111.012987,36.5424706 C111.030303,35.7988235 111.099567,35.0724706 111.203463,34.3288235 C110.718615,35.0205882 110.354978,35.7469412 109.974026,36.4905882 C108.34632,36.9402353 107.445887,38.6350588 107.74026,40.2607059 C107.047619,40.3990588 106.38961,40.5374118 105.748918,40.8141176 C103.203463,41.9209412 101.662338,44.1518824 99.012987,45.1722353 C97.3160173,45.8467059 95.5670996,45.7429412 93.8008658,45.3797647 C95.7922078,47.1783529 98.4242424,48.0949412 101.090909,48.1468235 C101.835498,48.1641176 102.580087,48.1295294 103.324675,48.1122353 C104.17316,49.1152941 105.506494,49.5995294 106.805195,49.2363529 C107.982684,48.8731765 109.004329,48.0949412 110.181818,47.6798824 C111.896104,47.0745882 113.800866,46.6941176 115.636364,46.7805882 C117.367965,47.1956471 119.082251,47.7836471 120.813853,48.216 C120.761905,49.2709412 120.571429,50.3085882 120.415584,51.3635294 C120.207792,52.5914118 120,53.8711765 119.549784,55.0471765 C119.393939,55.4276471 119.255411,55.7735294 118.874459,55.9637647 C118.12987,56.3442353 117.177489,56.4134118 116.34632,56.4825882 C113.298701,56.6728235 110.164502,56.7592941 107.134199,56.5171765 C106.320346,56.448 105.52381,56.3442353 104.744589,56.0848235 C102.493506,55.3584706 100.311688,54.3727059 98.2683983,53.1794118 C96.1212121,51.9515294 94.008658,50.5507059 92.1904762,48.8904706 C91.5844156,48.3716471 91.4632035,47.628 91.2380952,46.9189412 C90.7012987,44.8782353 90.3549784,42.8375294 90.008658,40.7449412 C89.8528139,42.0247059 89.8701299,43.3736471 89.9220779,44.6707059 C90.008658,45.9850588 90.1125541,47.3167059 90.4242424,48.5964706 C90.5974026,49.2882353 91.0649351,49.7378824 91.5497835,50.2221176 C92.6580087,51.3116471 93.8874459,52.2974118 95.1341991,53.214 C97.4372294,54.8742353 99.8268398,56.3442353 102.424242,57.5029412 C103.307359,57.8834118 104.190476,58.2638824 105.142857,58.4541176 C108.519481,59.1458824 111.844156,59.1112941 115.255411,59.0075294 C115.047619,59.4052941 114.839827,59.8030588 114.632035,60.2181176 C113.887446,60.4948235 113.177489,60.7369412 112.380952,60.7715294 C106.181818,61.1174118 99.7056277,59.3534118 94.8571429,55.3757647 C92.2424242,53.2312941 90.0606061,50.3085882 89.2467532,47.0054118 C88.8311688,44.7225882 88.8658009,42.3187059 88.9004329,40.0012941 C89.3333333,40.1915294 89.8008658,40.4855294 90.3030303,40.3817647 C90.8225108,40.2434118 91.047619,39.7764706 91.1168831,39.2749412 C91.2034632,38.6177647 90.9437229,38.0643529 90.7359307,37.4590588 C90.7012987,38.0643529 90.6320346,38.6350588 90.4415584,39.2057647 C89.9220779,39.2057647 89.4545455,39.2403529 89.021645,38.8944706 C87.9134199,38.1162353 87.5844156,36.9575294 87.3073593,35.6950588 C86.7532468,33.8964706 85.6623377,32.4437647 85.6796537,30.4203529 C85.7316017,29.7631765 85.9047619,28.812 86.5454545,28.4488235 C86.9437229,28.1894118 87.3766234,28.2412941 87.7575758,28.4834118 C88.3636364,28.8984706 88.7965368,29.6594118 89.1082251,30.3165882 C89.8181818,31.8038824 90.3203463,33.4295294 90.8398268,34.986 C91.8787879,35.574 92.9177489,36.1447059 93.95671,36.6981176 C93.8701299,35.4529412 93.7142857,34.2423529 93.8528139,32.9971765 C93.991342,30.6970588 94.4069264,28.4142353 95.4805195,26.3216471 Z" id="Shape" fill="#FFFFFF" fill-rule="nonzero"></path>
                <path d="M98.978355,27.7051765 C101.471861,27.636 104.034632,28.6390588 106.12987,29.9534118 C107.220779,30.6624706 108.329004,31.4925882 109.142857,32.5129412 C107.324675,32.9798824 105.506494,33.4468235 103.688312,33.9483529 C103.255411,33.3776471 102.909091,32.6685882 102.38961,32.1497647 C101.852814,32.0805882 101.281385,32.1324706 100.727273,32.1497647 C101.385281,31.4752941 102.04329,30.8354118 102.909091,30.4030588 C101.419913,30.1782353 99.9480519,30.0744706 98.4588745,30.3857647 C98.5454545,29.6421176 98.6147186,28.8811765 98.8398268,28.1721176 C98.8744589,27.9991765 98.9264069,27.8435294 98.978355,27.7051765 Z" id="Shape" fill="#231F20" fill-rule="nonzero"></path>
                <path d="M87.5844156,29.6075294 C88.1385281,29.9534118 88.4675325,30.7143529 88.8138528,31.2504706 C88.3463203,30.8354118 87.982684,30.4549412 87.3246753,30.4203529 C87.1341991,32.5129412 88.2770563,34.8476471 88.952381,36.7845882 C88.0865801,35.574 87.5670996,34.2596471 87.0822511,32.8761176 C86.7532468,31.8384706 86.4935065,30.7835294 86.7186147,29.694 C87.012987,29.5383529 87.2554113,29.4 87.5844156,29.6075294 Z" id="Shape" fill="#231F20" fill-rule="nonzero"></path>
                <path d="M89.7835498,33.7235294 C89.9393939,34.2250588 89.7489177,34.6228235 89.6450216,35.1070588 C89.6796537,35.4875294 89.8354978,35.8507059 89.9393939,36.2138824 C89.6103896,36.0755294 89.1601732,35.9717647 88.9350649,35.6950588 C88.8311688,35.3318824 88.9004329,34.9514118 89.021645,34.6228235 C89.2121212,34.2250588 89.2813853,33.81 89.7835498,33.7235294 Z" id="Shape" fill="#231F20" fill-rule="nonzero"></path>
                <path d="M109.61039,40.7622353 C110.458874,40.6757647 110.978355,41.16 111.688312,41.5058824 C112.311688,41.8344706 112.952381,41.9036471 113.645022,42.042 C112.692641,42.3705882 111.757576,42.2322353 110.822511,41.9555294 C110.649351,42.4051765 110.47619,42.8548235 110.30303,43.2871765 C109.939394,42.8029412 109.645022,42.3014118 109.367965,41.7652941 C108.969697,42.3014118 108.675325,42.8894118 108.415584,43.512 C108.08658,42.9758824 107.809524,42.4397647 107.584416,41.8517647 C107.064935,42.4916471 106.718615,43.1142353 106.424242,43.8751765 C106.147186,43.3736471 105.95671,42.8721176 105.818182,42.3014118 C105.350649,42.9412941 105.004329,43.5638824 104.709957,44.2902353 C104.467532,44.0308235 104.242424,43.7887059 104,43.5292941 C103.463203,44.0308235 102.961039,44.5496471 102.337662,44.9474118 C101.489177,45.4835294 100.554113,45.7775294 99.5670996,45.9677647 C100.363636,45.5181176 101.177489,45.1030588 101.922078,44.5323529 C103.411255,43.4601176 104.935065,41.9382353 106.683983,41.3329412 C107.601732,41.0735294 108.658009,40.866 109.61039,40.7622353 Z" id="Shape" fill="#9A989B" fill-rule="nonzero"></path>
                <path d="M117.402597,40.7968235 C118.30303,40.7103529 119.341991,41.2810588 120.08658,41.7307059 C119.584416,41.6961176 119.082251,41.6615294 118.580087,41.6269412 C118.510823,41.9209412 118.441558,42.2149412 118.372294,42.5089412 C118.095238,42.2668235 117.818182,42.0247059 117.541126,41.7825882 C117.437229,42.336 117.298701,42.8894118 117.090909,43.4082353 C116.865801,43.0969412 116.640693,42.7683529 116.398268,42.4397647 C116.190476,43.4601176 115.878788,44.1864706 115.116883,44.9128235 C115.186147,44.2556471 115.411255,43.5292941 115.307359,42.8721176 C115.238095,42.4570588 114.857143,42.2495294 114.580087,41.9901176 C114.961039,41.9728235 115.376623,41.9728235 115.757576,41.8863529 C116.398268,41.7307059 116.831169,41.0043529 117.402597,40.7968235 Z" id="Shape" fill="#9A989B" fill-rule="nonzero"></path>
                <path d="M110.12987,46.1925882 C111.619048,45.9504706 113.038961,46.1752941 114.493506,46.4347059 C113.142857,46.4001176 111.809524,46.4692941 110.47619,46.7287059 C109.281385,46.9535294 108.155844,47.334 106.995671,47.6625882 C106.545455,47.8009412 106.12987,47.6971765 105.679654,47.5934118 C107.116883,46.9535294 108.536797,46.3655294 110.12987,46.1925882 Z" id="Shape" fill="#FFFFFF" fill-rule="nonzero"></path>
                <path d="M77.1082251,46.8151765 C78.2857143,46.6768235 79.3593074,46.8670588 80.5194805,46.9016471 C81.8354978,46.9189412 83.1515152,47.1437647 84.4675325,47.1091765 C84.3636364,47.9047059 84.2424242,48.6483529 84.2251082,49.4611765 C84.2077922,51.1387059 84.4675325,52.6951765 84.7445887,54.3381176 C85.004329,55.9464706 85.3333333,57.5375294 85.6103896,59.1458824 C86.1818182,61.9302353 86.5627706,64.7664706 86.8398268,67.6027059 C85.8874459,67.9831765 84.9177489,68.1388235 83.9307359,68.3982353 C83.4458874,68.502 82.9090909,68.6403529 82.4069264,68.5884706 C81.8528139,68.4328235 81.3679654,68.0177647 80.8831169,67.7237647 C79.1515152,66.6861176 77.4372294,65.6311765 75.7229437,64.5935294 C76.0519481,62.0167059 76.4848485,59.4571765 76.7619048,56.8803529 C77.1255411,54.0095294 77.6103896,51.3289412 77.4545455,48.4062353 C77.4199134,47.8528235 77.2294372,47.3685882 77.1082251,46.8151765 Z" id="Shape" fill="#891619" fill-rule="nonzero"></path>
                <path d="M74.1818182,47.3167059 C74.8398268,49.3574118 74.4242424,51.2078824 74.1991342,53.2658824 C73.5584416,58.8864706 72.7965368,64.5416471 71.6883117,70.0757647 C70.8398268,74.1225882 69.8874459,78.3596471 68.1558442,82.1470588 C66.8917749,80.3830588 65.8008658,78.498 64.8831169,76.5264706 C62.4761905,71.4247059 61.2121212,66.0635294 60.4329004,60.5121176 C59.6190476,64.0747059 59.3766234,67.8621176 60.0519481,71.4592941 C58.2683983,72.912 56.017316,73.8977647 53.8701299,74.6932941 C52.5021645,73.5864706 51.047619,72.618 49.4545455,71.8224706 C49.0909091,71.6495294 49.004329,71.2517647 48.8311688,70.9231765 C48.2597403,69.6434118 47.4805195,68.5711765 46.4242424,67.6718824 C46.6320346,68.6749412 46.8398268,69.6607059 46.8225108,70.6983529 C45.9220779,70.5945882 45.0735931,70.3524706 44.1731602,70.2832941 C42.7186147,70.1795294 41.2813853,70.4043529 39.9134199,70.8712941 C44.3116883,71.2690588 48.3116883,73.2232941 51.6883117,76.0249412 C51.965368,76.3016471 52.1385281,76.734 52.3116883,77.0971765 C53.5064935,79.6048235 54.5800866,82.1470588 56.3636364,84.3261176 C56.9177489,85.0524706 57.5930736,85.6577647 58.2337662,86.2976471 C57.3506494,86.3495294 56.4675325,86.4705882 55.6017316,86.3149412 C54.3203463,86.0901176 53.1255411,85.7615294 51.8095238,85.7961176 C50.6147186,85.8307059 49.4718615,86.2457647 48.5194805,86.9548235 C47.2380952,87.906 46.3030303,89.4105882 45.6450216,90.8632941 C45.004329,92.2468235 44.7619048,93.7168235 44.6233766,95.2387059 C44.0519481,94.4777647 43.4112554,93.786 42.7359307,93.0942353 C42.6493506,90.7249412 43.1861472,88.3729412 44.8658009,86.6089412 C46.1818182,85.2254118 47.8787879,84.5682353 49.6969697,84.1531765 C50.5800866,84.084 51.4285714,83.9456471 52.3116883,83.9629412 C53.1774892,83.9456471 54.008658,84.1185882 54.8744589,84.1012941 C53.004329,83.4095294 51.030303,83.0982353 49.038961,83.3749412 C46.5800866,83.6343529 44.1731602,84.8795294 42.8225108,86.9894118 C42.008658,88.2 41.6796537,89.5662353 41.4718615,91.0016471 C40.7445887,90.0677647 39.982684,89.1684706 39.2207792,88.2691765 C38.978355,87.9751765 38.7532468,87.6984706 38.6320346,87.3352941 C37.7489177,84.5509412 37.1948052,81.7147059 37.004329,78.8092941 C36.8831169,77.3392941 36.9177489,75.852 36.8484848,74.382 C36.4675325,75.6444706 36.0692641,76.8896471 35.8614719,78.204 C35.5324675,80.0544706 35.4978355,81.9222353 35.4285714,83.79 C35.1168831,82.8907059 34.8398268,82.0087059 34.6839827,81.0748235 C34.5108225,80.0717647 34.5627706,79.1205882 34.5108225,78.1002353 C33.974026,79.086 33.6796537,80.1409412 33.4372294,81.2304706 C32.3463203,79.7085882 31.4112554,78.1348235 30.9090909,76.3189412 C30.2337662,74.0361176 30.3030303,71.6149412 30.9264069,69.3148235 C31.4978355,67.2914118 32.7445887,65.5101176 34.3722944,64.1957647 C35.2554113,63.4348235 36.2597403,62.8814118 37.1948052,62.1896471 C38.5281385,61.2038824 39.7922078,60.1489412 41.0909091,59.1458824 C42.8917749,57.7450588 44.7619048,56.448 46.7532468,55.3065882 C50.1125541,53.3869412 53.7662338,52.0034118 57.5411255,51.1387059 C56.8658009,52.0207059 56.6060606,53.0237647 56.3463203,54.0787059 C57.2987013,53.0237647 58.2857143,52.0034118 59.4632035,51.2078824 C62.7532468,48.9077647 66.7012987,47.8528235 70.6493506,47.4550588 C71.8268398,47.4377647 72.987013,47.2994118 74.1818182,47.3167059 Z" id="Shape" fill="#FFFFFF" fill-rule="nonzero"></path>
                <path d="M86.8744589,48.1295294 C87.3766234,49.7551765 88.0865801,51.3116471 89.021645,52.7297647 C91.4458874,56.448 95.0995671,59.1804706 99.1341991,60.9444706 C103.255411,62.7257647 107.896104,63.6423529 112.380952,63.2445882 C113.52381,63.2272941 114.580087,62.9851765 115.636364,62.5874118 C114.770563,64.8875294 112.848485,66.7725882 111.012987,68.3463529 C108.069264,70.8712941 104.761905,72.5834118 101.246753,74.1398824 C100.17316,74.6068235 99.1168831,75.1256471 98.008658,75.4888235 C99.9134199,75.2121176 101.800866,74.676 103.636364,74.1052941 C106.545455,73.1714118 109.316017,71.8570588 111.91342,70.2487059 C108.536797,75.2294118 103.601732,79.1032941 97.991342,81.2823529 C94.2337662,82.7177647 90.2510823,83.5478824 86.2683983,84.0148235 C87.7402597,81.0748235 88.8658009,77.8408235 89.2121212,74.5376471 C89.8181818,69.5050588 89.0909091,64.4551765 88.2597403,59.5090588 C87.7748918,56.3961176 86.9090909,53.2831765 86.7186147,50.1529412 C86.6666667,49.4611765 86.7359307,48.804 86.8744589,48.1295294 Z" id="Shape" fill="#FFFFFF" fill-rule="nonzero"></path>
                <path d="M123.082251,51.0868235 C123.584416,51.0522353 124.069264,51.2078824 124.554113,51.3289412 C126.735931,51.9169412 128.952381,52.4703529 131.116883,53.1621176 C130.493506,53.8365882 129.852814,54.4072941 129.350649,55.1682353 C127.930736,57.2954118 127.047619,59.6474118 126.406926,62.1031765 C125.887446,64.1611765 125.541126,66.2364706 125.160173,68.3117647 C125.090909,68.6057647 125.038961,68.9516471 124.865801,69.1937647 C124.398268,69.5396471 123.774892,69.7125882 123.255411,69.9547059 C121.714286,70.6118824 120.17316,71.2344706 118.649351,71.9262353 C118.147186,72.1337647 117.69697,72.324 117.160173,72.1683529 C116.242424,71.8916471 115.359307,71.4592941 114.458874,71.1134118 C114.839827,70.1795294 115.428571,69.384 115.861472,68.4674118 C117.298701,65.6830588 118.354978,62.7257647 119.030303,59.6647059 C119.134199,59.2496471 119.255411,58.8345882 119.393939,58.4195294 C120.17316,58.0909412 120.865801,57.7277647 121.350649,57.0187059 C121.939394,56.1194118 122.21645,54.978 122.458874,53.9576471 C122.735931,53.0237647 122.787879,52.0207059 123.082251,51.0868235 Z" id="Shape" fill="#891619" fill-rule="nonzero"></path>
                <path d="M88.6580087,54.5802353 C89.2467532,55.6524706 90.008658,56.5863529 90.9437229,57.3818824 C92.2424242,58.506 93.6796537,59.2496471 95.1341991,60.1316471 C96.0692641,60.7023529 97.021645,61.3595294 97.6277056,62.2761176 C99.3593074,65.0604706 99.2554113,68.6576471 97.6450216,71.4765882 C97.6103896,70.1449412 97.6969697,68.8997647 97.5064935,67.5681176 C97.3679654,66.5477647 97.1255411,65.5274118 96.7445887,64.5762353 C96.4155844,63.7634118 96.0865801,63.0197647 95.4458874,62.3971765 C94.2164502,61.152 92.5367965,60.3564706 91.2207792,59.1631765 C89.8528139,57.9871765 88.8658009,56.3961176 88.6580087,54.5802353 Z" id="Shape" fill="#231F20" fill-rule="nonzero"></path>
                <path d="M133.679654,54.6494118 C135.376623,55.1509412 137.056277,55.86 138.649351,56.6209412 C139.948052,57.2781176 141.350649,58.0563529 142.337662,59.1458824 C143.168831,60.0624706 143.948052,61.0828235 144.450216,62.2069412 C144.883117,63.1581176 145.090909,64.1784706 145.264069,65.1988235 C145.541126,66.9109412 145.61039,68.6576471 145.541126,70.3870588 C145.437229,73.4135294 144.640693,76.3708235 143.203463,79.0341176 C144.155844,78.4461176 145.073593,77.8062353 145.800866,76.9242353 C146.164502,78.7574118 146.285714,80.6078824 146.354978,82.4756471 C146.406926,84.7411765 146.354978,87.024 146.04329,89.2722353 C145.056277,88.5112941 144.138528,87.8022353 142.943723,87.3698824 C141.904762,86.9721176 140.813853,86.9375294 139.722944,87.0758824 C140.502165,87.4044706 141.246753,87.7157647 141.87013,88.2864706 C142.337662,88.6842353 142.632035,89.2030588 142.891775,89.7564706 C140.883117,89.9812941 138.995671,90.3617647 137.264069,91.434 C135.515152,92.5062353 134.30303,94.1837647 133.662338,96.1034118 C135.65368,94.4085882 137.645022,92.9385882 140.25974,92.3851765 C142.077922,92.0392941 144.034632,91.9701176 145.87013,92.2814118 C147.636364,92.7310588 149.419913,93.1461176 151.203463,93.5784706 C152.190476,93.8032941 153.090909,94.0972941 154.095238,94.2183529 C153.160173,94.5123529 152.277056,94.7717647 151.515152,95.4289412 C150.008658,96.6395294 149.125541,98.6283529 148.709957,100.478824 C148.190476,103.678235 149.714286,106.825765 151.116883,109.610118 C150.926407,109.990588 150.735931,110.371059 150.545455,110.751529 C149.52381,110.716941 148.536797,110.751529 147.532468,110.544 C146.857143,108.451412 146.251082,106.445294 146.04329,104.231647 C145.78355,102.121765 145.904762,99.7524706 146.805195,97.7982353 C147.428571,96.3974118 148.502165,95.2214118 149.95671,94.6507059 C149.402597,94.7544706 148.865801,94.8063529 148.34632,95.0311765 C147.428571,95.4289412 146.701299,96.138 146.181818,97.0027059 C145.437229,98.2305882 145.125541,99.6487059 144.935065,101.049529 C144.623377,104.145176 145.212121,107.067882 146.147186,110.007882 C145.454545,109.973294 144.779221,109.886824 144.08658,109.886824 C141.714286,109.869529 139.341991,109.713882 136.987013,109.540941 C134.909091,109.333412 132.554113,109.177765 130.597403,108.382235 C129.316017,107.880706 128.640693,106.670118 128.121212,105.476824 C127.116883,102.986471 126.857143,100.081059 126.718615,97.4350588 C127.307359,96.6741176 127.82684,95.8785882 128.277056,95.0311765 C129.61039,92.4543529 130.510823,89.5835294 131.064935,86.7472941 C131.272727,85.7961176 131.203463,84.9487059 131.722944,84.084 C133.385281,81.0229412 134.718615,77.4257647 134.077922,73.8804706 C133.645022,74.7624706 133.264069,75.6617647 132.779221,76.5091765 C131.168831,79.4837647 129.004329,82.1297647 126.493506,84.3952941 C126.320346,79.6394118 127.099567,74.6587059 127.896104,69.972 C128.502165,66.7552941 128.952381,63.5385882 130.04329,60.4429412 C130.545455,59.0594118 131.168831,57.624 132.08658,56.4652941 C132.588745,55.8772941 133.090909,55.2028235 133.679654,54.6494118 Z" id="Shape" fill="#FFFFFF" fill-rule="nonzero"></path>
                <path d="M93.1601732,64.7491765 C93.6103896,65.1988235 94.04329,65.6484706 94.4069264,66.1672941 C95.2727273,67.3778824 95.7575758,68.8997647 95.8268398,70.3870588 C95.9480519,72.0991765 95.2207792,73.8631765 94.4588745,75.3677647 C92.9004329,78.2731765 90.6666667,80.8845882 87.9307359,82.7350588 C90.0952381,79.7258824 92.3809524,76.9588235 93.4372294,73.3270588 C94.3203463,70.6637647 93.95671,67.9485882 93.2640693,65.2852941 C93.2467532,65.1123529 93.2121212,64.9221176 93.1601732,64.7491765 Z" id="Shape" fill="#231F20" fill-rule="nonzero"></path>
                <path d="M75.3073593,67.2741176 C76.8311688,68.0350588 78.2510823,68.9689412 79.7402597,69.7990588 C80.5367965,70.2141176 81.2640693,70.7848235 82.0779221,71.148 C82.3376623,71.148 82.6147186,70.9750588 82.8398268,70.8367059 C84.1212121,70.0584706 85.4372294,69.3148235 86.7186147,68.5192941 C86.8571429,69.4358824 86.995671,70.3178824 86.9090909,71.2517647 C86.8225108,72.1510588 86.8398268,73.0330588 86.7705628,73.9323529 C86.3549784,77.6851765 85.038961,81.3342353 83.0649351,84.5682353 C82.5974026,85.3637647 82.0606061,86.1074118 81.5930736,86.9029412 C82.7359307,86.9375294 83.8441558,86.7472941 84.987013,86.6781176 C86.9264069,86.5397647 88.8311688,86.0728235 90.7878788,85.9863529 C89.0562771,92.8694118 87.3766234,99.7524706 85.8181818,106.670118 C85.5064935,107.863412 85.3333333,109.091294 84.987013,110.267294 C83.0649351,110.215412 81.1428571,110.613176 79.4285714,111.512471 L79.4285714,111.374118 C79.4458874,110.526706 79.5497835,109.679294 79.5324675,108.831882 C80.1558442,108.468706 80.7619048,108.157412 81.2294372,107.569412 C81.8008658,106.894941 81.9393939,105.84 82.1645022,104.992588 C82.5108225,103.643647 82.2164502,102.225529 81.5238095,101.049529 C81.021645,100.236706 80.1904762,99.7005882 79.5151515,99.0434118 C78.9264069,98.49 78.5974026,97.7982353 78.008658,97.2621176 C77.3160173,96.6395294 76.4155844,96.3801176 75.7056277,95.7402353 C75.1515152,95.256 74.5974026,94.7717647 74.025974,94.2875294 C73.4025974,93.7687059 73.2121212,93.0942353 72.7272727,92.4889412 C72.3290043,91.9874118 71.7748918,91.5723529 71.2554113,91.1745882 C70.2164502,90.4309412 69.2121212,89.6354118 68.1904762,88.8744706 C67.982684,88.6842353 67.6190476,88.494 67.5844156,88.1827059 C68.0692641,87.5774118 68.6753247,87.0931765 69.1255411,86.436 C70.5281385,84.4644706 71.4805195,82.1470588 72.2597403,79.8815294 C73.6796537,75.7828235 74.4935065,71.5803529 75.3073593,67.2741176 Z" id="Shape" fill="#891619" fill-rule="nonzero"></path>
                <path d="M113.904762,71.9781176 C115.134199,72.9292941 116.329004,73.9150588 117.558442,74.8662353 C119.861472,73.9842353 122.12987,72.9811765 124.450216,72.1164706 C124.121212,75.1256471 123.532468,78.0310588 123.532468,81.1094118 C123.445887,82.2508235 123.341991,83.3749412 123.497835,84.5336471 C123.584416,86.8164706 123.844156,88.9955294 124.692641,91.1227059 C124.917749,91.7107059 125.298701,92.2468235 125.489177,92.8521176 C125.333333,93.3536471 124.952381,93.8032941 124.675325,94.2529412 C121.939394,98.4554118 119.445887,102.848118 117.419913,107.431059 C116.987013,108.382235 116.640693,109.350706 116.190476,110.284588 C106.458874,110.284588 96.7099567,110.301882 86.978355,110.267294 C87.2207792,109.177765 87.5670996,108.122824 87.8614719,107.050588 C89.7489177,100.288588 91.4285714,93.4574118 93.2467532,86.6781176 C93.3679654,86.2457647 93.4545455,85.7615294 93.6623377,85.3464706 C94.0606061,85.0351765 94.7012987,84.9832941 95.1688312,84.8449412 C98.0606061,84.0321176 100.935065,82.9252941 103.532468,81.4207059 C106.822511,79.4664706 109.78355,76.9588235 112.242424,74.0361176 C112.813853,73.3270588 113.229437,72.6007059 113.904762,71.9781176 Z" id="Shape" fill="#891619" fill-rule="nonzero"></path>
                <path d="M60.7965368,74.7278824 C61.1948052,75.6963529 61.5757576,76.6648235 62.04329,77.616 C62.4069264,78.2731765 62.2510823,79.1551765 62.3722944,79.8988235 C62.4415584,81.6109412 62.5108225,83.3230588 62.5974026,85.0351765 C62.1991342,85.0178824 61.8008658,85.0178824 61.4199134,85.0178824 C60,83.8764706 58.7186147,82.614 57.7316017,81.0575294 C56.969697,79.8642353 56.3636364,78.5498824 55.7575758,77.2701176 C57.5238095,76.5437647 59.1688312,75.7482353 60.7965368,74.7278824 Z" id="Shape" fill="#FFFFFF" fill-rule="nonzero"></path>
                <path d="M54.8571429,84.1185882 C53.991342,84.1358824 53.1601732,83.9802353 52.2943723,83.9802353 C51.4112554,83.9629412 50.5454545,84.1012941 49.6796537,84.1704706 C50.9264069,83.6862353 52.0692641,83.9110588 53.3679654,83.8072941 C51.9480519,83.4441176 50.4761905,83.3230588 49.021645,83.3922353 C51.012987,83.1155294 52.969697,83.4441176 54.8571429,84.1185882 Z" id="Shape" fill="#231F20" fill-rule="nonzero"></path>
                <path d="M65.5584416,83.202 L65.6450216,83.3230588 L65.6969697,83.3749412 C65.6623377,84.1358824 65.6623377,84.8968235 65.7489177,85.6577647 L66.1125541,85.4329412 C65.974026,85.5885882 65.8354978,85.7442353 65.6969697,85.8998824 C65.5238095,85.0005882 65.5584416,84.1185882 65.5584416,83.202 Z" id="Shape" fill="#9A989B" fill-rule="nonzero"></path>
                <path d="M65.6969697,83.3749412 C66.025974,83.8245882 66.3896104,84.2396471 66.7532468,84.6547059 C66.5454545,84.9141176 66.3376623,85.1908235 66.0952381,85.4329412 L65.7316017,85.6577647 C65.6450216,84.8968235 65.6450216,84.1358824 65.6969697,83.3749412 Z" id="Shape" fill="#FFFFFF" fill-rule="nonzero"></path>
                <path d="M62.7012987,87.4909412 C63.0649351,88.1135294 63.1515152,88.8744706 63.4458874,89.5489412 C63.9307359,89.4451765 64.4329004,89.2722353 64.9350649,89.2722353 C65.2987013,89.2895294 65.6796537,89.5835294 65.974026,89.7737647 C67.3593074,90.8114118 68.7272727,91.8836471 70.1125541,92.904 C70.5627706,93.2498824 71.047619,93.5957647 71.3419913,94.0972941 C71.5844156,94.4777647 71.7229437,94.9792941 72.034632,95.3078824 C72.4675325,95.7402353 72.969697,96.1034118 73.4372294,96.5011765 C74.04329,96.9854118 74.5974026,97.5388235 75.2034632,98.0230588 C75.8441558,98.4035294 76.5194805,98.5418824 76.987013,99.1817647 C77.4199134,99.6314118 77.3160173,100.098353 77.3333333,100.669059 C76.6753247,100.375059 76.1558442,99.9254118 75.5844156,99.5103529 C76.1731602,100.409647 76.9004329,101.153294 77.991342,101.343529 C78.008658,101.066824 78.04329,100.790118 78.0606061,100.513412 C78.6493506,101.066824 79.3939394,101.551059 79.8441558,102.225529 C80.2943723,103.107529 80.5367965,104.179765 79.9307359,105.061765 C79.9307359,105.597882 80,106.047529 79.5670996,106.445294 C78.995671,107.016 78.3549784,106.929529 77.6277056,106.808471 C77.5930736,107.033294 77.5757576,107.258118 77.5411255,107.500235 C77.1774892,107.223529 76.8138528,106.946824 76.4502165,106.652824 C76.4502165,106.099412 76.4848485,105.528706 76.3982684,104.992588 C76.1904762,104.698588 75.8787879,104.439176 75.6017316,104.197059 C73.3333333,102.242824 71.1341991,100.184824 68.8311688,98.2651765 C69.2987013,99.2855294 70.0606061,100.029176 70.8225108,100.824706 C70.5627706,101.101412 70.2857143,101.481882 69.9220779,101.654824 C69.4025974,101.914235 68.7272727,101.914235 68.1558442,101.948824 C68.1038961,103.315059 68.1038961,104.664 67.965368,106.030235 C67.8787879,106.722 67.8961039,107.517529 67.6190476,108.174706 C67.1168831,108.486 66.5974026,108.434118 66.04329,108.347647 C65.9047619,106.912235 65.7489177,105.459529 65.1082251,104.145176 C64.6753247,103.245882 63.965368,102.709765 63.3939394,101.879647 C62.7878788,100.997647 62.2683983,100.046471 61.8181818,99.078 C62.7705628,99.9254118 63.6017316,100.928471 64.5021645,101.810471 C65.1774892,102.502235 66.3030303,102.640588 67.0995671,102.087176 C67.4978355,101.845059 67.6190476,101.291647 67.7922078,100.893882 C67.3419913,101.326235 67.012987,101.793176 66.3549784,101.896941 C65.3679654,102.104471 64.3982684,101.257059 64.2597403,100.305882 C64.2597403,99.9254118 64.3463203,99.5449412 64.3290043,99.1644706 C64.1038961,98.7494118 63.6363636,98.3516471 63.5670996,97.8674118 C63.5324675,97.2448235 63.8268398,96.5876471 64.2943723,96.1898824 C64.6926407,95.844 65.1774892,95.6883529 65.6450216,95.4981176 C65.2987013,95.1176471 65.004329,94.7198824 64.7272727,94.2702353 C64.7619048,94.5988235 64.7965368,94.9274118 64.8311688,95.256 C63.8787879,95.7575294 63.012987,96.3455294 62.961039,97.5388235 C62.8917749,98.1441176 63.1515152,98.5418824 63.4805195,99.0088235 C63.7229437,99.3201176 63.6363636,99.6487059 63.6536797,100.011882 C62.9437229,99.3547059 62.2510823,98.6456471 61.5930736,97.9365882 C61.021645,97.4004706 60.987013,96.3628235 60.8831169,95.6364706 C60.6926407,94.0972941 61.3160173,92.8867059 62.025974,91.6069412 C62.5627706,92.0047059 63.0822511,92.4197647 63.5844156,92.8521176 C62.7532468,93.1115294 62.025974,93.4401176 61.6450216,94.2702353 C61.2467532,95.0138824 61.3160173,95.7229412 61.5238095,96.5011765 C61.6277056,95.8958824 61.6450216,95.2905882 61.974026,94.7371765 C62.3030303,94.1318824 62.8744589,93.6995294 63.5151515,93.492 C63.8441558,93.4055294 64.1731602,93.2671765 64.4675325,93.5092941 C65.2987013,94.0972941 66.04329,94.8063529 66.9090909,95.3770588 C66.8225108,95.0138824 66.8051948,94.668 66.5454545,94.3912941 C66.0606061,93.8551765 65.4025974,93.4401176 64.8484848,92.9731765 C64.0865801,92.3505882 63.2900433,91.7625882 62.5281385,91.14 C62.1125541,90.8632941 62.1471861,90.2407059 61.974026,89.7910588 C61.7662338,89.0474118 61.1255411,88.6496471 60.7965368,88.0270588 C60.7272727,87.7157647 60.5714286,87.4736471 60.9350649,87.2834118 C61.4545455,87.024 62.3030303,86.8856471 62.7012987,87.4909412 Z" id="Shape" fill="#9A989B" fill-rule="nonzero"></path>
                <path d="M127.878788,87.0931765 C127.757576,87.9232941 127.619048,88.7188235 127.272727,89.4797647 C127.116883,88.9436471 126.978355,88.4075294 126.857143,87.8541176 C127.203463,87.612 127.532468,87.3525882 127.878788,87.0931765 Z" id="Shape" fill="#FFFFFF" fill-rule="nonzero"></path>
                <path d="M54.9090909,88.3729412 C56.6060606,88.7534118 58.0606061,88.3556471 59.7402597,88.2864706 C60.017316,88.7188235 60.3463203,89.1165882 60.6926407,89.4970588 C61.1774892,90.0331765 61.3506494,90.8632941 60.969697,91.5031765 C60.4675325,92.4716471 60.034632,93.4228235 59.8961039,94.5296471 C59.7922078,95.4116471 60,96.3455294 60.1731602,97.2102353 C60.3463203,97.9365882 60.4155844,98.6110588 60.7792208,99.2855294 C61.4199134,100.496118 62.0779221,101.793176 62.9090909,102.865412 C63.3419913,103.436118 63.8614719,103.851176 64.1904762,104.491059 C64.6753247,105.407647 64.8311688,106.583647 65.004329,107.586706 C64.5194805,107.500235 64.034632,107.396471 63.5670996,107.188941 C61.2467532,106.203176 59.0649351,104.715882 57.038961,103.245882 C58.008658,105.182824 60,106.376118 61.8528139,107.361882 C62.9264069,107.949882 63.9480519,108.313059 65.1601732,108.520588 C65.1601732,108.693529 65.1428571,108.849176 65.1428571,109.022118 C62.3549784,108.745412 59.6190476,108.157412 56.9004329,107.413765 C57.3852814,107.846118 57.9047619,108.209294 58.4935065,108.486 C60.1212121,109.229647 61.974026,109.575529 63.7402597,109.817647 C64.7099567,109.956 65.6969697,109.956 66.6666667,109.990588 C66.4069264,110.422941 66.0952381,110.786118 65.7316017,111.149294 C64.3982684,111.201176 63.0649351,111.235765 61.7316017,111.166588 C59.6536797,111.010941 57.9220779,110.198118 56,109.523647 C57.0909091,110.561294 58.3549784,111.408706 59.8095238,111.806471 C60.6580087,112.048588 61.5930736,112.014 62.4935065,112.117765 C63.5324675,112.204235 64.5541126,112.031294 65.5930736,112.014 C64.5541126,113.518588 62.6493506,114.072 60.952381,114.469765 C60.3116883,114.573529 59.5324675,114.850235 58.9264069,114.573529 C58.0779221,114.244941 57.2813853,113.708824 56.5367965,113.207294 C55.3073593,112.325294 54.1298701,111.356824 53.038961,110.284588 C52.3116883,109.558235 51.6363636,108.918353 51.2207792,107.949882 C50.4935065,106.237765 50.1125541,104.300824 49.5584416,102.536824 C49.3333333,101.810471 48.9004329,101.257059 48.5194805,100.599882 C47.6363636,99.1644706 46.8744589,97.4869412 46.6493506,95.8094118 C46.4588745,94.4085882 46.961039,93.0423529 47.4805195,91.7798824 C48.0692641,90.4309412 49.0562771,88.9263529 50.4069264,88.2691765 C51.8441558,87.5774118 53.4545455,88.0962353 54.9090909,88.3729412 Z" id="Shape" fill="#FFFFFF" fill-rule="nonzero"></path>
                <path d="M64,90.1023529 C64.2770563,90.0677647 64.5367965,90.0158824 64.8138528,89.9812941 C66.04329,90.9324706 67.2727273,92.0047059 68.1212121,93.3190588 C66.7186147,92.2814118 65.3506494,91.1918824 64,90.1023529 Z" id="Shape" fill="#231F20" fill-rule="nonzero"></path>
                <path d="M164.34632,93.492 C165.402597,93.6303529 165.78355,94.5469412 166.683983,95.1522353 C167.134199,94.8063529 167.619048,94.3567059 168.17316,94.2183529 C168.623377,94.2010588 169.090909,94.3048235 169.52381,94.374 C172.4329,94.8755294 175.463203,95.3251765 178.354978,95.8267059 C178.874459,95.9131765 179.082251,96.2244706 179.359307,96.6395294 C180.103896,96.8470588 180.883117,96.9681176 181.645022,97.0891765 C184.571429,97.608 187.497835,98.1787059 190.441558,98.6629412 C190.683983,98.2132941 190.805195,97.7982353 191.359307,97.6771765 C192.536797,97.5215294 193.69697,98.1787059 194.199134,99.2509412 C194.857143,99.4411765 195.549784,99.4065882 195.948052,100.063765 C196.277056,100.513412 196.17316,100.945765 196.121212,101.447294 C196.415584,101.862353 196.692641,102.190941 196.606061,102.761647 C196.571429,103.297765 196.190476,104.197059 195.497835,104.024118 C194.891775,103.954941 194.268398,103.833882 193.662338,103.747412 C193.731602,104.006824 193.800866,104.266235 193.87013,104.542941 C193.229437,104.560235 192.588745,104.612118 191.965368,104.715882 C191.82684,104.266235 191.705628,103.816588 191.584416,103.366941 C188.08658,102.761647 184.588745,102.087176 181.090909,101.481882 C180.848485,101.741294 180.588745,102.104471 180.242424,102.225529 C179.878788,102.329294 179.463203,102.277412 179.099567,102.277412 C178.562771,103.349647 178.04329,104.387294 177.246753,105.286588 C176.709957,105.874588 176.519481,106.635529 175.705628,106.877647 C174.251082,107.396471 172.380952,106.791176 170.874459,106.652824 C171.5671,107.154353 172.329004,107.465647 173.142857,107.707765 C172.900433,108.503294 172.709957,109.246941 172.103896,109.852235 C171.255411,110.699647 170.147186,111.045529 168.969697,110.941765 C169.69697,110.561294 170.458874,110.25 170.891775,109.506353 C171.359307,108.641647 171.116883,107.552118 170.528139,106.808471 C169.731602,105.770824 168.606061,105.252 167.480519,104.664 C167.030303,104.473765 167.064935,104.076 166.909091,103.660941 C166.614719,102.484941 166.112554,101.378118 166.077922,100.202118 C166.025974,99.4065882 166.077922,98.5591765 165.939394,97.7809412 C165.87013,97.2448235 165.385281,96.8297647 165.021645,96.4492941 C164.935065,95.9650588 164.900433,95.5154118 164.588745,95.1003529 C164.190476,94.5296471 163.445887,94.2529412 162.857143,93.9070588 C163.359307,93.6303529 163.774892,93.3709412 164.34632,93.492 Z" id="Shape" fill="#9A989B" fill-rule="nonzero"></path>
                <path d="M69.2640693,94.0627059 C70.025974,93.9935294 70.5974026,94.3394118 71.2380952,94.7198824 C70.5108225,94.5815294 69.8354978,94.3394118 69.0909091,94.5815294 C68.2424242,94.8236471 67.7056277,95.6364706 67.6536797,96.5011765 C67.5844156,97.1237647 67.8095238,97.6252941 68.034632,98.196 C68,98.6802353 67.9134199,99.0952941 68.1385281,99.5449412 C68.3982684,100.115647 68.987013,100.409647 69.4545455,100.772824 C68.8658009,100.651765 68.3290043,100.617176 67.8961039,100.150235 C67.3419913,99.5449412 67.2900433,98.8185882 67.3766234,98.0403529 C67.2380952,97.6598824 67.047619,97.2621176 66.995671,96.8816471 C66.9090909,95.5327059 67.8614719,94.1318824 69.2640693,94.0627059 Z" id="Shape" fill="#231F20" fill-rule="nonzero"></path>
                <path d="M171.601732,96.1552941 C173.350649,96.432 175.099567,96.7432941 176.848485,97.0372941 C176.294372,97.1929412 175.722944,97.314 175.151515,97.4177647 C175.168831,98.1441176 175.220779,98.8531765 175.324675,99.5795294 C176.034632,99.7524706 176.744589,99.8735294 177.471861,100.011882 C177.212121,99.2855294 176.987013,98.6456471 177.333333,97.902 C177.541126,97.2794118 178.008658,97.0027059 178.580087,96.726 C178.285714,97.1410588 177.904762,97.5388235 177.852814,98.0576471 C177.766234,98.7148235 177.852814,99.5276471 178.30303,100.046471 C179.220779,100.582588 180.363636,100.167529 181.021645,101.153294 C180.17316,101.014941 179.341991,100.824706 178.493506,100.755529 C178.337662,101.222471 178.38961,101.533765 178.528139,101.983412 C178.285714,101.810471 178.008658,101.637529 177.818182,101.412706 C177.731602,101.136 177.714286,100.842 177.662338,100.548 C176.969697,100.409647 176.277056,100.271294 175.584416,100.132941 C175.809524,100.997647 176,101.810471 175.757576,102.692471 C175.601732,103.349647 175.255411,104.214353 174.580087,104.491059 C173.991342,104.577529 173.333333,104.421882 172.761905,104.352706 C171.151515,104.076 169.558442,103.851176 167.948052,103.626353 C167.948052,103.401529 167.948052,103.176706 167.948052,102.951882 C169.419913,103.159412 170.874459,103.366941 172.329004,103.626353 C173.038961,103.764706 173.731602,103.833882 174.441558,103.885765 C174.735931,103.401529 175.012987,102.951882 175.099567,102.381176 C175.307359,101.378118 175.030303,100.444235 174.666667,99.5276471 C174.510823,100.254 174.38961,100.634471 173.766234,101.084118 C173.714286,101.308941 173.679654,101.533765 173.627706,101.775882 C173.939394,101.602941 174.181818,101.395412 174.545455,101.395412 C174.961039,102.104471 174.528139,102.865412 173.818182,103.142118 C173.679654,102.934588 173.541126,102.727059 173.419913,102.519529 C172.554113,102.450353 171.497835,102.381176 170.735931,101.931529 C170.337662,101.724 170.21645,101.222471 170.060606,100.842 C171.186147,100.496118 172.4329,100.945765 173.593074,101.101412 C173.437229,100.305882 173.454545,99.8562353 173.748918,99.0952941 C172.987013,99.0088235 172.121212,98.8877647 171.463203,98.4554118 C171.116883,98.2305882 170.909091,97.7636471 171.151515,97.4004706 C171.480519,97.1929412 171.91342,97.2448235 172.294372,97.2794118 C173.056277,97.3831765 173.800866,97.5561176 174.545455,97.6771765 C174.545455,97.5388235 174.545455,97.4177647 174.545455,97.2794118 C172.744589,97.0027059 170.961039,96.6741176 169.160173,96.3628235 C168.034632,97.8674118 167.515152,99.5968235 167.168831,101.412706 C166.528139,99.6314118 167.168831,97.6944706 168.34632,96.2763529 C167.91342,96.1552941 167.480519,96.0342353 167.064935,95.844 C168.554113,95.3943529 170.008658,95.9304706 171.601732,96.1552941 Z" id="Shape" fill="#231F20" fill-rule="nonzero"></path>
                <path d="M155.324675,96.3974118 C157.125541,96.5357647 158.909091,96.2417647 160.692641,96.432 C162.164502,96.6222353 163.584416,97.0545882 164.917749,97.6944706 C165.177489,98.5072941 165.056277,99.2855294 165.108225,100.132941 C165.125541,101.084118 165.454545,102.035294 165.714286,102.951882 C164.987013,102.813529 164.311688,102.744353 163.636364,103.055647 C163.186147,103.263176 162.961039,103.626353 162.683983,104.006824 C163.341991,103.747412 163.930736,103.470706 164.675325,103.488 C165.160173,103.505294 165.558442,103.695529 166.008658,103.868471 C166.199134,104.594824 166.372294,105.632471 165.78355,106.237765 C165.142857,106.756588 164.017316,107.033294 163.307359,106.497176 C162.562771,105.978353 162.095238,105.027176 161.748918,104.214353 C161.350649,103.332353 161.108225,102.277412 160.536797,101.499176 C160.103896,100.893882 159.324675,100.478824 158.580087,100.669059 C157.212121,101.032235 155.948052,102.139059 154.666667,102.623294 C154.04329,102.882706 153.437229,102.813529 152.779221,102.796235 C153.125541,103.090235 153.402597,103.384235 153.852814,103.505294 C154.510823,103.695529 155.134199,103.591765 155.809524,103.488 C155.809524,103.678235 155.809524,103.868471 155.809524,104.058706 C155.151515,104.231647 154.580087,104.473765 154.199134,105.044471 C153.818182,105.615176 153.887446,106.220471 153.904762,106.877647 C153.593074,107.431059 153.281385,107.984471 152.952381,108.520588 C152.051948,106.843059 151.324675,105.113647 150.926407,103.245882 C150.735931,102.312 150.649351,101.326235 150.961039,100.409647 C151.290043,99.372 151.757576,98.2651765 152.502165,97.4696471 C153.212121,96.6741176 154.251082,96.3109412 155.324675,96.3974118 Z" id="Shape" fill="#FFFFFF" fill-rule="nonzero"></path>
                <path d="M65.3852814,96.432 C65.6277056,97.0372941 65.8008658,97.2102353 66.3722944,97.5215294 C66.0952381,97.8674118 65.9220779,98.196 65.4545455,98.2651765 C64.8658009,98.3689412 64.3116883,97.7636471 64.5714286,97.1929412 C64.6926407,96.7778824 65.021645,96.6395294 65.3852814,96.432 Z" id="Shape" fill="#231F20" fill-rule="nonzero"></path>
                <path d="M92.8658009,97.7463529 C92.5887446,98.2824706 92.2251082,98.8012941 92.0692641,99.372 C91.982684,99.8043529 92.034632,100.271294 92.034632,100.703647 C91.9134199,100.617176 91.7748918,100.513412 91.6536797,100.409647 C90.995671,99.96 91.030303,98.8704706 91.5324675,98.3170588 C91.8614719,97.9365882 92.3982684,97.8847059 92.8658009,97.7463529 Z" id="Shape" fill="#231F20" fill-rule="nonzero"></path>
                <path d="M185.974026,99.0952941 C188.606061,99.5622353 191.220779,100.046471 193.852814,100.496118 C193.922078,101.136 194.04329,101.758588 194.199134,102.398471 C193.835498,101.948824 193.575758,101.516471 193.350649,100.980353 C190.008658,100.236706 186.666667,99.5449412 183.324675,98.8012941 C182.199134,98.5072941 181.038961,98.3516471 179.896104,98.0922353 C181.95671,98.3170588 183.930736,98.7667059 185.974026,99.0952941 Z" id="Shape" fill="#FFFFFF" fill-rule="nonzero"></path>
                <path d="M65.8701299,99.1990588 C66.1818182,99.1471765 66.4935065,99.1471765 66.8225108,99.1298824 C66.961039,99.4584706 67.2380952,99.8216471 67.0649351,100.167529 C66.8225108,100.790118 65.991342,101.205176 65.4545455,100.651765 C65.1255411,100.184824 65.2987013,99.3892941 65.8701299,99.1990588 Z" id="Shape" fill="#231F20" fill-rule="nonzero"></path>
                <path d="M194.978355,100.132941 C195.5671,100.720941 195.5671,101.291647 195.186147,102.000706 L194.822511,101.896941 C194.510823,101.326235 194.632035,100.651765 194.978355,100.132941 Z" id="Shape" fill="#231F20" fill-rule="nonzero"></path>
                <path d="M123.948052,101.170588 C124.277056,103.591765 124.831169,106.099412 126.077922,108.226588 C126.510823,108.987529 127.082251,109.644706 127.722944,110.25 C124.813853,110.25 121.887446,110.25 118.978355,110.25 C120.640693,107.240824 122.268398,104.197059 123.948052,101.170588 Z" id="Shape" fill="#FFFFFF" fill-rule="nonzero"></path>
                <path d="M71.3419913,101.689412 C71.7402597,101.983412 72.1038961,102.329294 72.4502165,102.692471 C72.1038961,102.813529 71.7229437,102.951882 71.3419913,102.969176 C70.8571429,102.951882 70.3722944,102.813529 69.9047619,102.709765 C70.4069264,102.398471 70.8744589,102.052588 71.3419913,101.689412 Z" id="Shape" fill="#9A989B" fill-rule="nonzero"></path>
                <path d="M195.619048,102.190941 L196.051948,102.277412 C196.103896,102.554118 196.225108,103.539882 195.705628,103.349647 C195.549784,103.003765 195.619048,102.554118 195.619048,102.190941 Z" id="Shape" fill="#231F20" fill-rule="nonzero"></path>
                <path d="M160.017316,103.401529 C160.588745,104.525647 160.987013,105.649765 161.766234,106.687412 C162.199134,107.258118 162.805195,107.569412 163.290043,108.105529 C164.17316,109.056706 165.125541,109.904118 166.285714,110.492118 C165.575758,111.114706 164.987013,111.754588 164.969697,112.757647 C164.865801,113.812588 165.558442,115.005882 165.125541,115.957059 C164.831169,116.804471 163.982684,117.409765 163.064935,117.271412 C161.748918,117.046588 160.675325,116.389412 159.5671,115.697647 C159.930736,115.438235 160.25974,115.144235 160.554113,114.798353 C160.034632,114.936706 159.359307,115.213412 158.839827,115.040471 C158.38961,114.66 157.974026,114.072 157.922078,113.466706 C157.95671,112.826824 158.701299,112.135059 159.341991,112.342588 C160.277056,112.584706 161.142857,113.241882 162.025974,113.674235 C162.47619,113.899059 163.047619,114.175765 163.5671,114.002824 C164.08658,113.795294 164.277056,113.362941 164.554113,112.930588 C164.034632,113.138118 163.619048,113.484 163.030303,113.276471 C161.627706,112.774941 160.536797,111.72 159.012987,111.356824 C158.493506,111.218471 158.025974,111.339529 157.52381,111.460588 C156.640693,110.509412 155.930736,109.506353 155.359307,108.330353 C155.861472,108.261176 156.34632,108.174706 156.831169,108.053647 C156.25974,107.915294 155.705628,107.776941 155.134199,107.586706 C154.995671,107.016 154.805195,106.306941 154.961039,105.718941 C155.376623,104.802353 156.761905,104.888824 157.298701,105.597882 C157.731602,106.410706 157.835498,107.292706 158.47619,108.053647 C159.393939,109.091294 160.450216,110.025176 161.558442,110.855294 C161.922078,111.114706 162.354978,111.443294 162.805195,111.495176 C163.705628,111.564353 164.484848,111.287647 165.264069,110.889882 C164.484848,110.907176 163.619048,111.062824 162.891775,110.716941 C162.268398,110.405647 161.69697,109.938706 161.160173,109.506353 C160.398268,108.849176 159.584416,108.174706 158.961039,107.379176 C158.632035,106.964118 158.493506,106.479882 158.337662,105.978353 C158.597403,105.857294 158.857143,105.736235 159.116883,105.615176 C158.787879,105.528706 158.441558,105.424941 158.112554,105.338471 C157.78355,104.854235 157.367965,104.560235 156.900433,104.248941 C156.761905,103.643647 156.813853,102.986471 157.333333,102.571412 C158.21645,101.879647 159.515152,102.484941 160.017316,103.401529 Z" id="Shape" fill="#FFFFFF" fill-rule="nonzero"></path>
                <path d="M77.974026,103.124824 C78.4415584,102.882706 78.995671,102.986471 79.2207792,103.505294 C79.4805195,104.283529 78.5627706,105.096353 77.8181818,104.733176 C77.1948052,104.421882 77.3679654,103.384235 77.974026,103.124824 Z" id="Shape" fill="#231F20" fill-rule="nonzero"></path>
                <path d="M69.038961,104.162471 C69.1774892,104.352706 69.4199134,104.560235 69.4545455,104.802353 C69.4545455,105.338471 69.1601732,105.857294 68.9177489,106.324235 C68.9004329,105.597882 68.9177489,104.888824 69.038961,104.162471 Z" id="Shape" fill="#9A989B" fill-rule="nonzero"></path>
                <path d="M71.4805195,104.283529 C72.4155844,104.785059 73.1601732,105.649765 73.991342,106.324235 C74.5108225,106.756588 74.3030303,107.534824 74.8051948,107.898 C75.7402597,108.693529 76.7445887,109.368 77.6277056,110.25 C74.6666667,110.319176 71.6883117,110.284588 68.7272727,110.267294 C69.1601732,108.797294 70.3722944,108.053647 70.995671,106.687412 C71.4285714,105.909176 71.4112554,105.130941 71.4805195,104.283529 Z" id="Shape" fill="#891619" fill-rule="nonzero"></path>
                <path d="M79.1341991,105.355765 C79.047619,105.563294 78.9437229,105.753529 78.8571429,105.943765 C78.6320346,105.943765 78.4242424,105.943765 78.1991342,105.943765 C78.1645022,105.822706 78.1298701,105.718941 78.1125541,105.597882 C78.4588745,105.511412 78.7878788,105.442235 79.1341991,105.355765 Z" id="Shape" fill="#231F20" fill-rule="nonzero"></path>
                <path d="M167.168831,105.528706 L167.290043,105.580588 C168.121212,105.961059 168.987013,106.462588 169.61039,107.137059 C169.991342,107.552118 170.233766,108.036353 170.164502,108.607059 C170.12987,109.039412 169.78355,109.350706 169.454545,109.575529 C168.709957,110.042471 167.74026,110.267294 166.874459,110.042471 C165.835498,109.627412 164.917749,108.728118 164.138528,107.932588 C164.952381,107.725059 165.78355,107.482941 166.406926,106.894941 C166.839827,106.514471 166.995671,106.047529 167.168831,105.528706 Z" id="Shape" fill="#FFFFFF" fill-rule="nonzero"></path>
                <path d="M154.21645,108.261176 L154.285714,108.416824 C154.562771,108.901059 154.787879,109.419882 155.082251,109.904118 C155.636364,110.838 156.4329,111.685412 157.108225,112.532824 C157.038961,113.068941 156.883117,113.743412 157.090909,114.262235 C157.333333,114.902118 157.852814,115.472824 158.251082,116.026235 C156.987013,115.853294 155.705628,115.507412 154.458874,115.178824 C153.61039,114.936706 152.554113,114.590824 151.930736,113.916353 C151.601732,113.605059 151.844156,113.068941 151.982684,112.723059 C152.709957,111.201176 153.333333,109.679294 154.21645,108.261176 Z" id="Shape" fill="#891619" fill-rule="nonzero"></path>
                <path d="M79.4458874,111.374148 L79.4458874,111.512676 L79.1861472,111.66852 C78.8398268,111.633888 79.2380952,111.252936 79.4458874,111.374148 Z" id="Shape" fill="#9A989B" fill-rule="nonzero"></path>
                <path d="M9.64502165,114.037412 C12.6060606,113.985529 15.6017316,114.020118 18.5627706,114.020118 C20.2251082,119.450471 21.8874459,124.880824 23.5497835,130.311176 C23.7056277,130.847294 23.8787879,131.366118 24.0692641,131.867647 C24.7965368,127.613294 25.4718615,123.341647 26.1991342,119.087294 C26.4415584,117.392471 26.8225108,115.732235 26.995671,114.037412 C29.8008658,113.985529 32.6060606,114.037412 35.4112554,114.002824 C35.1168831,115.818706 34.7186147,117.617294 34.4588745,119.433176 C33.8008658,119.450471 33.1428571,119.450471 32.4848485,119.536941 C31.4632035,125.382353 30.3722944,131.227765 29.3333333,137.073176 C29.974026,137.073176 30.5974026,137.073176 31.2380952,137.073176 C30.9090909,138.923647 30.5800866,140.756824 30.2337662,142.607294 C27.2727273,142.607294 24.3290043,142.607294 21.3679654,142.607294 C19.6536797,137.125059 17.974026,131.642824 16.2770563,126.177882 C16.1385281,125.710941 16,125.226706 15.8787879,124.742471 C15.4978355,126.558353 15.2900433,128.408824 14.961039,130.242 C14.3030303,134.358 13.6450216,138.491294 12.952381,142.607294 C10.1125541,142.607294 7.27272727,142.624588 4.45021645,142.59 C4.81385281,140.756824 5.12554113,138.906353 5.47186147,137.073176 C6.0952381,137.073176 6.73593074,137.073176 7.35930736,137.073176 C8,133.718118 8.57142857,130.345765 9.19480519,126.973412 C9.62770563,124.465765 10.1298701,121.975412 10.5281385,119.450471 C9.9047619,119.450471 9.2987013,119.450471 8.67532468,119.450471 C8.83116883,118.239882 9.10822511,117.046588 9.2987013,115.853294 C9.4025974,115.248 9.47186147,114.625412 9.64502165,114.037412 Z" id="Shape" fill="#FFFFFF" fill-rule="nonzero"></path>
                <path d="M38.025974,114.037412 C40.987013,113.985529 43.965368,114.020118 46.9090909,114.020118 C48.4502165,118.533882 50.025974,123.030353 51.5844156,127.544118 C54.025974,124.137176 56.4329004,120.712941 58.8571429,117.288706 C61.6969697,117.323294 64.2251082,116.13 66.4242424,114.417882 C66.6493506,114.279529 66.8917749,114.002824 67.1688312,114.002824 C68.0692641,113.968235 68.987013,114.002824 69.8874459,113.985529 C69.5411255,115.801412 69.2121212,117.617294 68.9004329,119.450471 C68.2770563,119.450471 67.6709957,119.450471 67.047619,119.450471 C66.7186147,120.591882 66.5800866,121.802471 66.3549784,122.961176 C65.4891775,127.665176 64.6753247,132.369176 63.7922078,137.073176 C64.4329004,137.073176 65.0735931,137.073176 65.7142857,137.073176 C65.3506494,138.906353 65.0562771,140.756824 64.6926407,142.59 C61.7316017,142.59 58.7705628,142.59 55.8268398,142.59 C56.8311688,137.073176 57.8181818,131.539059 58.8225108,126.022235 C55.6363636,130.345765 52.5541126,134.755765 49.3506494,139.062 C47.7402597,134.703882 46.1125541,130.345765 44.4848485,125.987647 C43.4978355,131.521765 42.5281385,137.055882 41.5584416,142.59 C38.6320346,142.607294 35.7229437,142.59 32.7965368,142.59 C33.1428571,140.739529 33.4372294,138.906353 33.8181818,137.055882 C34.4588745,137.055882 35.0995671,137.055882 35.7402597,137.055882 C36.8138528,131.193176 37.9047619,125.313176 38.9090909,119.433176 C38.2857143,119.433176 37.6450216,119.433176 37.021645,119.433176 C37.2294372,117.876706 37.5757576,116.354824 37.8181818,114.815647 C37.8874459,114.573529 37.9393939,114.296824 38.025974,114.037412 Z" id="Shape" fill="#FFFFFF" fill-rule="nonzero"></path>
                <path d="M84.8484848,114.002824 C90.0779221,114.020118 95.3073593,113.985529 100.519481,114.020118 C100.069264,116.147294 99.7056277,118.274471 99.2727273,120.401647 C96.6060606,120.401647 93.95671,120.401647 91.2900433,120.401647 C91.3939394,119.830941 91.5151515,119.260235 91.5844156,118.672235 C89.95671,118.551176 88.3290043,118.637647 86.7012987,118.620353 C86.4242424,120.038471 86.1818182,121.473882 85.9393939,122.892 C88.952381,124.673294 91.9480519,126.489176 94.961039,128.270471 C95.6883117,128.702824 96.3463203,129.135176 96.8311688,129.844235 C97.2813853,130.501412 97.4372294,131.262353 97.2813853,132.057882 C96.9004329,134.167765 96.4848485,136.260353 96.0865801,138.370235 C95.8961039,139.598118 94.961039,140.445529 94.008658,141.137294 C92.7099567,142.002 91.0822511,142.676471 89.5064935,142.624588 C84.4848485,142.624588 79.4805195,142.624588 74.4761905,142.624588 C74.8398268,140.359059 75.2727273,138.110824 75.6536797,135.845294 C78.3030303,135.845294 80.952381,135.845294 83.6190476,135.845294 C83.5497835,136.433294 83.4458874,137.038588 83.3419913,137.626588 C84.969697,137.643882 86.6147186,137.626588 88.2424242,137.626588 C88.5541126,135.862588 88.9350649,134.081294 89.1601732,132.3 C88.7965368,131.971412 88.3116883,131.746588 87.8961039,131.487176 C85.2640693,129.913412 82.6320346,128.339647 80,126.765882 C78.9090909,126.143294 77.6969697,125.019176 77.8354978,123.652941 C78.0606061,122.079176 78.3896104,120.505412 78.6493506,118.948941 C78.7878788,118.170706 78.8398268,117.392471 79.2554113,116.683412 C79.982684,115.386353 81.3333333,114.504353 82.7705628,114.158471 C83.4285714,113.985529 84.1558442,114.002824 84.8484848,114.002824 Z" id="Shape" fill="#FFFFFF" fill-rule="nonzero"></path>
                <path d="M103.030303,114.020118 C111.220779,114.002824 119.428571,114.002824 127.619048,114.020118 C127.238095,116.147294 126.839827,118.274471 126.441558,120.401647 C124.744589,120.401647 123.064935,120.401647 121.367965,120.401647 C121.419913,120.090353 121.471861,119.761765 121.52381,119.450471 C120.363636,119.450471 119.203463,119.450471 118.025974,119.450471 C116.952381,125.330471 115.844156,131.210471 114.822511,137.073176 C115.445887,137.073176 116.069264,137.073176 116.692641,137.090471 C116.363636,138.940941 116.034632,140.774118 115.688312,142.624588 C111.948052,142.624588 108.207792,142.624588 104.467532,142.624588 C104.779221,140.774118 105.177489,138.940941 105.454545,137.090471 C106.095238,137.073176 106.753247,137.073176 107.393939,137.073176 C108.467532,131.210471 109.541126,125.313176 110.632035,119.450471 C109.471861,119.450471 108.294372,119.450471 107.134199,119.450471 C107.082251,119.779059 107.012987,120.090353 106.961039,120.401647 C105.264069,120.401647 103.5671,120.401647 101.87013,120.401647 C102.251082,118.274471 102.666667,116.147294 103.030303,114.020118 Z" id="Shape" fill="#FFFFFF" fill-rule="nonzero"></path>
                <path d="M131.774892,114.020118 C135.861472,113.985529 139.948052,114.020118 144.034632,114.002824 C144.017316,121.698706 143.982684,129.377294 143.948052,137.055882 C144.588745,137.055882 145.229437,137.055882 145.87013,137.055882 C145.506494,138.906353 145.212121,140.756824 144.848485,142.59 C142.025974,142.59 139.203463,142.59 136.380952,142.59 C136.467532,140.203412 136.588745,137.834118 136.606061,135.464824 C134.805195,135.464824 133.021645,135.464824 131.220779,135.464824 C130.441558,137.834118 129.679654,140.220706 128.917749,142.59 C126.077922,142.59 123.238095,142.59 120.398268,142.59 C120.744589,140.739529 121.073593,138.906353 121.402597,137.055882 C122.112554,137.055882 122.822511,137.055882 123.532468,137.055882 C126.268398,129.377294 129.038961,121.698706 131.774892,114.020118 Z" id="Shape" fill="#FFFFFF" fill-rule="nonzero"></path>
                <path d="M149.350649,114.089294 C149.904762,115.023176 150.580087,115.818706 151.515152,116.389412 C152.779221,117.254118 154.199134,117.478941 155.636364,117.859412 C156.675325,118.118824 157.731602,118.274471 158.787879,118.343647 C159.307359,118.343647 159.670996,118.620353 160.138528,118.827882 C161.021645,119.260235 161.939394,119.519647 162.909091,119.640706 C161.87013,125.451529 160.813853,131.245059 159.722944,137.038588 C160.363636,137.038588 161.021645,137.038588 161.662338,137.038588 C161.281385,138.871765 161.004329,140.739529 160.623377,142.572706 C156.900433,142.572706 153.160173,142.572706 149.437229,142.572706 C149.69697,140.722235 150.112554,138.889059 150.406926,137.038588 C151.030303,137.038588 151.670996,137.038588 152.294372,137.038588 C153.437229,131.175882 154.424242,125.278588 155.5671,119.415882 C154.406926,119.398588 153.229437,119.415882 152.069264,119.415882 C152,119.727176 151.930736,120.055765 151.861472,120.384353 C150.164502,120.367059 148.467532,120.436235 146.770563,120.332471 C147.220779,118.309059 147.515152,116.251059 147.930736,114.227647 C148.4329,114.210353 148.883117,114.158471 149.350649,114.089294 Z" id="Shape" fill="#FFFFFF" fill-rule="nonzero"></path>
                <path d="M167.861472,114.002824 C169.437229,114.020118 171.012987,114.002824 172.588745,114.020118 C172.155844,116.147294 171.82684,118.291765 171.376623,120.401647 C169.679654,120.401647 168,120.401647 166.30303,120.401647 C166.372294,120.090353 166.441558,119.761765 166.493506,119.450471 C165.904762,119.450471 165.316017,119.433176 164.727273,119.433176 C165.212121,119.208353 165.662338,119.000824 166.060606,118.654941 C166.857143,117.997765 167.341991,116.942824 167.688312,116.008941 C167.965368,115.334471 167.91342,114.694588 167.861472,114.002824 Z" id="Shape" fill="#FFFFFF" fill-rule="nonzero"></path>
                <path d="M175.220779,114.020118 C181.922078,114.002824 188.606061,114.020118 195.307359,114.020118 C194.961039,116.164588 194.510823,118.274471 194.147186,120.401647 C192.103896,120.401647 190.077922,120.401647 188.034632,120.401647 C188.08658,120.090353 188.138528,119.761765 188.190476,119.450471 C186.597403,119.450471 185.021645,119.450471 183.428571,119.450471 C183.030303,121.456588 182.649351,123.497294 182.320346,125.520706 C184.277056,125.538 186.251082,125.520706 188.207792,125.520706 C188.051948,127.146353 187.636364,128.737412 187.393939,130.363059 C185.419913,130.397647 183.428571,130.328471 181.454545,130.397647 C180.935065,132.594 180.640693,134.859529 180.155844,137.073176 C181.748918,137.073176 183.359307,137.073176 184.952381,137.073176 C185.021645,136.658118 185.108225,136.243059 185.177489,135.845294 C187.376623,135.845294 189.575758,135.845294 191.757576,135.845294 C191.324675,138.093529 190.943723,140.359059 190.510823,142.624588 C183.65368,142.624588 176.796537,142.641882 169.939394,142.607294 C170.320346,140.774118 170.614719,138.923647 170.978355,137.073176 C171.619048,137.073176 172.242424,137.073176 172.883117,137.073176 C173.974026,131.193176 175.012987,125.313176 176.138528,119.450471 C175.497835,119.450471 174.857143,119.450471 174.21645,119.450471 C174.562771,117.634588 174.891775,115.818706 175.220779,114.020118 Z" id="Shape" fill="#FFFFFF" fill-rule="nonzero"></path>
                <path d="M136.900433,117.894 C136.935065,118.654941 136.952381,119.433176 136.935065,120.194118 C136.917749,123.791294 136.917749,127.388471 136.900433,130.985647 C135.463203,130.985647 134.04329,130.985647 132.606061,130.985647 C133.95671,126.592941 135.549784,122.286706 136.900433,117.894 Z" id="Shape" fill="#231F20" fill-rule="nonzero"></path>
            </g>
        </g>
    </g>
</svg>