<?xml version="1.0" encoding="UTF-8"?>
<svg width="200px" height="200px" viewBox="0 0 200 200" version="1.1" xmlns="http://www.w3.org/2000/svg" xmlns:xlink="http://www.w3.org/1999/xlink">
    <!-- Generator: Sketch 54.1 (76490) - https://sketchapp.com -->
    <title>north-texas</title>
    <desc>Created with Sketch.</desc>
    <g id="north-texas" stroke="none" stroke-width="1" fill="none" fill-rule="evenodd">
        <g id="north-texas_BGL" transform="translate(0.000000, 0.000000)">
            <g id="north-texas" transform="translate(13.000000, 0.000000)">
                <g id="g10" transform="translate(87.500000, 100.394078) scale(-1, 1) rotate(-180.000000) translate(-87.500000, -100.394078) translate(0.000000, 0.830759)" fill-rule="nonzero">
                    <g id="g12">
                        <path d="M13.8221067,196.218738 L3.64768758,174.42444 L3.60155682,174.313672 C2.9594586,172.662094 2.63507785,171.030398 2.63507785,169.459765 C2.63507785,166.342643 3.91649042,163.45747 6.42302152,160.861524 C5.62138875,159.217993 0.930170031,149.566984 0.930170031,149.566984 L0.899229652,149.495505 C0.301411171,148.06925 0,146.635894 0,145.23236 C0,139.657989 4.6465866,135.844543 7.51674778,133.821845 C6.62733046,131.924589 2.40109953,122.898424 2.40109953,122.898424 C1.8820135,121.819147 1.61432042,120.705787 1.61432042,119.606156 C1.61432042,114.398643 7.31130063,111.054778 10.3722829,109.258823 C10.3667342,109.261663 11.1373981,108.806757 11.1373981,108.806757 C12.6501758,107.893158 50.6029798,85.2879826 86.1052146,64.1994753 C77.7066376,64.1966351 48.2288606,64.1937949 48.2288606,64.1937949 C42.6212252,64.1937949 40.5608255,65.6555527 40.5420925,65.6716472 L39.9661575,66.1682094 L31.770609,66.1710496 L66.6233046,33.1171931 C69.7870579,30.0724954 72.9830605,27.9528993 82.682044,30.6869734 C85.5996591,31.5111056 98.0061629,35.4121244 101.628046,36.5524659 C102.528182,36.1624587 110.015241,32.9038465 110.652165,32.626832 C119.065444,21.2475113 128.807111,14.0107214 132.835905,11.2916531 C132.590241,10.5305733 132.423777,9.75320978 132.423777,8.94237916 C132.423777,6.45388796 133.56104,4.52028722 133.690512,4.30579036 L136.318831,0 L138.557788,4.52306115 C140.225742,7.89155138 143.90833,9.91372858 146.424725,9.47250305 C147.539698,9.27946392 147.373709,6.90874647 147.24234,5.85645126 L146.879061,2.91028501 C146.879061,2.91028501 149.569034,4.52306115 151.087598,5.92523151 C156.500741,10.9299532 154.848438,15.8271259 153.290985,17.7527362 C151.330416,20.1678555 147.874996,20.841457 143.716731,19.7636473 C143.528452,20.1057024 140.976013,24.7585703 139.997625,26.5455313 C141.639969,27.4467751 145.015715,29.3008596 145.694373,29.6721688 C146.516256,29.5125967 150.411311,28.755588 151.40108,28.5628802 C151.701283,28.0636672 152.475741,26.7759191 152.475741,26.7759191 L153.272015,26.727683 C160.92127,25.9031721 162.439359,25.3985627 162.500538,24.7046064 C162.564088,24.0097034 161.994982,23.3200075 160.699318,22.4361363 C159.404603,21.5524545 158.039224,20.6606307 158.039224,20.6606307 C158.039224,20.6606307 159.490917,20.0670756 161.08631,19.8765927 C162.681703,19.6850683 169.876622,19.2205531 174.027299,24.8319895 C174.027299,24.8319895 174.931229,26.3253209 174.931229,27.5978739 C174.931229,29.4519584 173.840443,32.3655333 169.584955,35.7000263 C169.737191,36.3852726 169.889901,37.3458766 169.889901,38.4932713 C169.889901,41.2554161 169.008736,45.0469924 165.14024,48.3856984 C159.720931,53.0654062 147.810023,64.31119 145.001013,66.96962 C145.258059,68.2931546 145.671609,71.0031816 145.671609,74.7621903 C145.671609,84.1803035 143.063682,100.108162 128.826081,116.880034 C126.592815,119.509115 111.042951,136.957902 96.0038594,153.832495 C83.4930196,167.867832 71.676963,181.129686 70.7687652,182.225531 C68.951421,184.424795 68.6445782,186.336725 68.6445782,187.376239 C68.6445782,187.872802 68.7152422,188.169603 68.7218818,188.205579 L68.8461365,188.701194 L68.6512178,189.192076 L66.035703,195.568332 L57.7599579,177.465824 L57.7357709,177.391506 C57.6413942,177.108432 57.1467465,175.5378 57.1467465,173.763146 C57.1467465,172.436772 57.4208658,170.993948 58.3470853,169.889109 C59.5071123,168.497883 60.9697139,166.623349 61.7455947,165.620758 C61.1100933,164.193082 56.7773021,154.450239 56.7773021,154.450239 L56.8086029,154.518878 C56.7654457,154.431305 56.2594159,153.397944 56.2594159,151.873228 C56.2594159,151.296667 56.3405135,150.644841 56.5382777,149.949938 C46.1957306,159.401187 34.1311645,170.420701 20.0439494,183.293921 C17.8551215,185.42218 17.3888343,187.904991 17.3888343,189.608166 C17.3888343,190.938327 17.6698776,191.858553 17.6726757,191.869441 L17.8132448,192.322926 L17.6713478,192.773572 L15.1092815,198.728531 L13.8221067,196.218738 L13.8221067,196.218738 Z" id="path16" fill="#231F20"></path>
                        <path d="M162.543695,34.3734622 C162.543695,34.3734622 165.082381,35.4354141 166.498031,34.9278225 L166.488546,34.9372898 C166.488546,34.9372898 166.491392,34.9426389 166.491392,34.9468992 C166.001961,35.420645 157.876554,42.961384 157.876554,42.961384 C157.876554,42.961384 161.952774,37.9734668 162.543695,34.3734622" id="path18" fill="#231F20"></path>
                        <path d="M166.498031,34.9278225 C165.082381,35.4354141 162.543695,34.3734622 162.543695,34.3734622 C161.952774,37.9734668 157.876554,42.961384 157.876554,42.961384 C157.876554,42.961384 166.001961,35.420645 166.491392,34.9468992 C166.577706,35.1290035 169.097896,40.5766075 163.990172,45.3239595 C156.365579,52.4093193 141.753316,65.7407588 141.775132,65.6673869 C142.806636,62.4087273 148.660362,51.8711008 145.56585,32.3452259 L153.088004,30.9269705 L153.994305,29.408882 C153.994305,29.408882 162.600606,28.2648482 163.938478,27.0065436 C163.938478,27.0065436 166.907787,24.9479172 163.727909,22.115288 C163.727909,22.115288 168.588072,23.0599869 171.32547,25.728973 C171.32547,25.728973 173.824318,27.8731842 170.882516,30.8526519 L166.498031,34.9278225" id="path22" fill="#188746"></path>
                        <path d="M125.935498,80.8548991 L18.1591188,181.256549 C12.9732856,186.296489 15.020169,192.699253 15.020169,192.699253 L6.19329253,173.308241 C3.82868215,167.224052 7.46823152,163.36185 10.0151217,161.318797 C12.5622016,159.277164 96.0446453,91.8417511 96.0446453,91.8417511 L96.1200518,89.0299501 L13.1084956,152.647657 C8.99044693,155.758153 9.46915965,160.776318 9.46915965,160.776318 L3.46372891,148.426642 C0.551506084,141.474299 7.73997948,137.026541 10.7426285,134.982541 C13.74523,132.936648 96.4852279,75.4088098 96.4852279,75.4088098 L97.2122604,71.9570165 C97.2122604,71.9570165 17.0101893,125.227864 14.0629333,127.034233 C10.5153182,129.215036 10.7885363,134.257816 10.7885363,134.257816 L4.91835354,121.724474 C2.46205075,116.613055 9.46915965,113.049074 12.5622016,111.186847 C14.379356,110.093842 59.2500663,83.3703722 96.2149027,61.424597 L48.2288606,61.4198633 C41.1623702,61.4198633 38.7953175,63.5097794 38.7953175,63.5097794 L45.2277766,57.5145842 C46.3202224,56.5143594 49.2157847,52.8826865 53.4475596,52.8826865 C56.4486436,52.8826865 71.1429522,52.8642251 71.1429522,52.8642251 L74.6244561,51.3627045 L59.1784538,50.1589318 C56.1081287,50.022602 55.2535217,49.6973988 51.1573835,51.9681411 C51.1194432,51.9913361 58.0089416,45.2803624 58.0089416,45.2803624 C59.9206625,43.6477664 61.4525052,42.0313122 64.7281827,42.3023622 C68.0052829,42.5779093 87.3852282,45.8001196 87.3852282,45.8001196 L90.4555533,44.4155206 L70.1199847,39.9895376 C65.4798764,38.9651237 62.1525052,41.3510362 62.1525052,41.3510362 C62.1525052,41.3510362 65.9991853,37.5777792 68.5459332,35.1238438 C71.1851608,32.5828089 73.5550117,30.9985436 81.9246592,33.3572375 C85.2491849,34.296398 101.783602,39.510064 101.783602,39.510064 L112.429672,34.8792077 C123.145458,20.1005427 136.451148,12.2659374 136.451148,12.2659374 C133.901081,9.26762974 136.064631,5.74956495 136.064631,5.74956495 C138.278926,10.227145 143.232517,12.684394 146.980078,12.1361401 C150.237259,11.6603588 149.365105,7.70499738 149.478452,7.84937437 C151.480755,10.3904093 153.139698,13.4426808 151.117002,16.0186503 C148.658939,19.1547077 142.369847,16.4409885 142.369847,16.4409885 L136.234888,27.6219209 L144.553316,32.3655333 C149.102842,61.2456642 125.935498,80.8548991 125.935498,80.8548991" id="path24" fill="#188746"></path>
                        <path d="M120.223574,122.538192 C118.825946,124.144327 68.7811636,180.270051 68.7811636,180.270051 C64.4469496,185.059107 65.9745241,188.814329 66.1016244,189.100716 L60.2611774,176.034362 C58.9621936,172.441979 61.3889551,170.113012 63.1787925,168.053865 C64.9686298,165.999925 117.549726,111.172173 117.549726,111.172173 L117.199726,108.15635 L67.4129387,157.767596 C63.408806,161.859856 64.5010146,164.954257 64.6902423,165.400642 L59.3449172,153.38327 C58.1279796,149.659764 61.9537925,147.201095 64.5982369,144.659113 C67.4105674,141.956186 122.812531,90.2521841 127.344509,86.1286827 C137.038276,77.3141127 141.775132,65.6673869 141.775132,65.6673869 C147.353316,94.2492965 125.637192,116.309627 120.223574,122.538192" id="path26" fill="#188746"></path>
                    </g>
                </g>
            </g>
        </g>
    </g>
</svg>