<?xml version="1.0" encoding="UTF-8"?>
<svg width="200px" height="200px" viewBox="0 0 200 200" version="1.1" xmlns="http://www.w3.org/2000/svg" xmlns:xlink="http://www.w3.org/1999/xlink">
    <!-- Generator: Sketch 54.1 (76490) - https://sketchapp.com -->
    <title>ole-miss</title>
    <desc>Created with Sketch.</desc>
    <g id="ole-miss" stroke="none" stroke-width="1" fill="none" fill-rule="evenodd">
        <g id="ole-miss_BGL">
            <g id="ole-miss" transform="translate(0.000000, 9.000000)">
                <g id="g10" transform="translate(99.879661, 90.907344) scale(-1, 1) rotate(-180.000000) translate(-99.879661, -90.907344) translate(0.000000, 0.173291)" fill-rule="nonzero">
                    <g id="g12">
                        <path d="M117.62599,59.7559552 C117.094101,58.2243066 116.808661,56.3321286 117.740069,54.8813464 C118.4438,53.5605281 119.969191,52.6806244 121.349215,52.1877243 C123.010827,51.9018038 125.152825,51.7463284 126.531886,52.7003597 C128.618529,54.4659433 130.078938,57.3703957 129.124907,59.9638974 C128.281104,61.9821886 125.941272,62.8914545 123.715039,62.9689515 C121.150899,63.0729226 118.784594,61.9046916 117.62599,59.7559552" id="path14" fill="#E51636"></path>
                        <path d="M170.491933,16.7274123 C168.68736,17.6880381 166.656073,18.1548973 164.406735,18.0774484 C168.518889,22.7961486 171.306855,28.0086154 173.870513,33.3179294 C174.970874,31.8383145 174.435615,29.4041389 174.889526,27.7227911 C174.717685,23.5687599 172.916482,19.946618 170.491933,16.7274123 Z M139.718408,29.1706371 C138.959323,25.1007936 137.384834,21.3684712 135.437301,17.7660645 L134.87268,17.3501319 C133.100839,18.3368948 131.322259,19.2456313 129.01179,19.0122739 L128.787482,19.2196866 C132.760045,23.9128273 136.622379,28.6546804 139.266904,33.8372555 C140.257036,32.6949691 139.747289,30.6729234 139.718408,29.1706371 L139.718408,29.1706371 Z M195.965819,22.017328 C195.625025,22.9260644 194.583389,23.2115036 193.596626,23.1599513 C189.679418,21.2904447 188.864496,16.519422 185.36943,14.0337421 C183.538864,12.8909263 181.283269,10.87225 179.170633,12.2749455 C182.185314,15.6432246 184.126109,19.4502041 185.706855,23.3645241 C187.848852,29.5340546 186.664255,36.7388679 184.804809,42.5449328 C183.931644,46.1507088 186.297468,49.28616 187.397829,52.4991563 C187.199514,53.3785787 187.00168,54.2580011 186.157877,54.8813464 C183.821415,55.8416352 180.465459,56.6989156 178.268588,54.8813464 C169.700116,46.4105885 164.601681,35.9600472 158.769671,26.2689765 C155.384352,22.017328 152.878456,17.0128034 147.945604,13.8257518 C146.680141,13.4104449 145.326591,12.2749455 144.005773,12.8909263 C146.709022,15.2538143 148.649816,17.9995663 150.2012,20.9818527 C154.063053,28.0086154 151.133089,36.4534287 150.090971,43.7915753 C149.048853,47.6244513 151.921055,50.6555944 151.55475,54.3653416 C150.113594,55.9947038 147.777132,56.412995 145.469551,56.0235846 C138.39422,53.8719601 136.450538,46.7678448 132.393258,41.8214189 C125.772319,32.2796141 119.063776,22.3287118 109.402163,14.1377132 C108.723944,13.7736699 107.678938,13.8776892 107.14368,14.4490971 C106.384113,15.954801 106.60794,18.3628395 107.370876,19.946618 C110.132368,26.3436335 114.416363,32.2796141 118.528517,38.0890965 C120.193499,41.5615393 124.558842,43.9961481 123.828637,48.1434404 C123.263535,49.0002394 122.163655,49.5715992 121.121537,49.8050529 C119.148493,50.1882057 116.808661,50.1367015 115.373764,48.6628147 C106.497711,41.4545838 100.295545,32.2277248 96.3229819,22.5366541 C95.3102263,20.0703244 94.8038484,17.4285435 93.2818268,15.1759804 C92.041875,14.6045724 90.7730423,14.0337421 89.2216584,14.1377132 C88.6344141,14.5011789 88.5174466,15.2538143 88.4332108,15.9032968 C89.7314057,23.2895301 93.0839929,29.8975203 96.6637762,36.427484 C101.677976,46.9526342 109.483511,56.2055341 114.809624,66.4933798 C116.840912,70.1997576 120.443318,73.205293 121.231766,77.4825492 C121.037301,80.0240654 119.290972,81.9937404 117.402163,83.9090232 C115.85463,85.3886862 113.342476,85.9080604 111.314077,85.0512614 C101.45078,78.7027658 93.4507799,69.5509008 84.9410328,61.5147999 C88.5468089,67.012754 92.1265922,72.4293604 95.4238243,78.0019234 C96.6897689,79.9172062 94.7196126,81.4748475 93.6192516,82.7730425 C91.3087823,85.3626934 87.4464479,86.0900099 84.1521038,84.9506597 C77.3593242,81.0594444 72.4298418,74.9968694 67.2433196,69.4989152 C67.1037288,69.524908 66.8799021,69.4209369 66.7922968,69.6062558 C68.2849562,73.8806239 70.5992762,78.7292399 68.7104676,83.3896489 L67.2433196,84.8433192 C61.1581212,88.4250279 52.8139578,85.8531868 47.0660397,83.081105 L46.7318881,83.2856778 C47.3777605,83.7857981 47.3193249,84.5323685 47.6308532,85.1552325 C47.4913586,85.7785779 47.124716,86.138626 46.3909976,86.193981 C41.5747282,84.791815 37.1511904,82.2536682 32.8670509,79.8714781 C31.3741027,78.777856 29.0341268,77.3010811 28.6966058,75.4122725 C28.0475565,71.8098658 28.5570631,67.866665 31.2864974,65.1436807 C32.3316959,64.5983137 33.90888,64.3937409 35.0091929,64.9391079 C40.3058955,68.489529 45.8848605,72.0173267 51.6909734,75.0941016 C53.2683501,75.6977117 54.566545,76.8890474 56.4226219,76.8630546 C57.0425979,76.7037285 56.9877242,76.0808645 57.1008409,75.6197334 L53.2683501,65.665943 C44.8689279,49.8310457 37.9950893,33.4478451 29.4853904,17.6620934 L29.0341268,14.5524906 C29.400962,10.4828397 30.5270269,6.43951849 33.8829354,3.77143673 C34.9539341,3.53734287 36.2748005,3.19325142 37.1511904,4.08280616 C40.870372,12.793694 45.8295536,21.0570873 49.9999988,29.585607 C56.0592044,39.6952096 62.1708769,49.6948243 70.8524651,58.6137169 L71.4137166,58.7176881 C67.9768936,51.7978326 64.2021645,45.0020687 60.4827903,38.1866657 C57.325149,30.9848849 52.6190119,24.3768947 50.6748483,16.7274123 C50.5323694,12.1709744 51.0709975,7.26984338 54.3942225,3.87484948 C55.2413945,3.19325142 56.4226219,2.99206731 57.5523451,3.25191809 C60.2267133,5.3521539 61.0185304,8.51306838 62.7354978,11.1321297 C64.7119117,15.2799515 66.8476518,19.346233 69.1614904,23.3645241 C76.2334518,34.6166056 83.1947031,46.0924176 93.3954249,55.7121526 L93.7299616,55.7121526 C93.2524646,54.6474114 92.7465681,53.5605281 92.2690711,52.4991563 C87.618289,44.5931156 83.13646,36.6089522 79.4170859,28.3427189 C76.5155216,21.9913833 72.7961474,15.8252704 74.2339332,8.33444022 C74.5713579,5.71542705 76.9376635,4.05686151 79.3034878,2.83656792 C85.5903709,0.659032474 90.7147992,5.0174728 95.6481324,7.50320078 C96.8322479,5.2220456 98.9453646,3.01857514 101.843559,2.62861125 C109.20096,1.92783629 115.685677,5.66016833 120.219492,10.5091694 C123.484473,7.01039694 127.239467,4.44626222 131.828637,3.45987476 C140.675809,1.83062811 149.214437,4.88134765 156.289767,8.85058943 C160.148732,5.3521539 164.796145,2.78467382 170.04091,1.90508298 C177.083991,1.88252222 183.652462,2.96649331 188.864496,6.98445229 C192.3018,11.5961489 196.585795,15.8739346 195.965819,22.017328 L195.965819,22.017328 Z" id="path16" fill="#E51636"></path>
                        <path d="M80.020696,159.265941 C79.0050522,148.328757 73.1176877,138.996386 67.1720801,129.819491 C66.7759309,129.302042 66.155955,128.732127 65.5947035,128.368709 C67.8762919,139.515279 73.8478923,149.570153 80.020696,159.265941 Z M93.434414,130.962211 C94.7003586,131.896507 95.9398291,132.905893 97.2673863,133.657277 C98.0264717,133.657277 98.4226209,133.060406 98.39374,132.412512 C97.2125126,128.1367 94.4211769,124.380262 90.8447631,121.11191 C89.2380242,119.86907 87.683271,118.030322 85.6582409,117.484955 C86.1058944,122.799516 89.3776151,127.305893 93.434414,130.962211 Z M59.0580009,94.7778556 C66.9771343,93.066183 72.8644988,98.6435595 78.3330907,102.763415 C81.0950642,100.480383 83.8247873,97.6293598 87.4594443,97.058 C93.6062552,95.2471697 97.1571576,100.45439 100.762934,103.902765 C102.817326,106.985798 106.510226,110.718168 103.917687,114.269071 C100.902043,114.893379 99.8021636,111.367506 97.8286377,110.01877 C95.4079399,108.20457 93.379059,104.290731 89.8252685,104.938144 C88.219011,105.587001 86.9790592,107.145124 87.0117908,108.774486 C96.2257497,114.447169 105.465701,122.226712 108.091453,132.412512 C108.649335,136.200237 108.99013,140.734052 105.043559,143.091693 C100.055352,145.685195 94.6450037,142.989647 90.5039689,140.604088 C79.3164842,133.112391 73.3448838,121.890731 74.0457262,109.398794 C71.8777359,107.555713 69.3107083,104.604089 66.2695531,106.078938 C63.3679888,107.712633 63.8161236,111.391574 64.1275556,114.061128 C77.2327297,126.296507 85.0642578,141.459443 90.1660627,157.191813 C91.6038485,163.907096 94.534775,170.695062 92.4187703,177.719851 C90.2762914,179.767505 85.9956657,179.19807 83.5162434,177.821897 C75.6818272,171.39446 70.7778562,162.942956 66.2695531,154.808179 C59.3959071,141.018047 51.9537893,127.435857 51.0517436,111.367506 C51.3925378,104.967025 52.0673874,97.4748471 59.0580009,94.7778556 L59.0580009,94.7778556 Z" id="path18" fill="#E51636"></path>
                        <path d="M20.1675085,105.352103 C14.1958119,108.177133 16.3637541,115.463294 16.6753305,120.595906 C17.9995663,130.34031 21.7219248,139.17978 25.2435132,148.068829 C26.2560282,149.831525 26.9050775,151.723221 28.2844277,153.357397 C29.8097225,152.838023 31.5265937,152.165098 33.2436574,152.732607 C38.8517439,155.950899 40.9937415,162.065459 47.3354982,164.554509 C48.2084224,164.604569 48.318651,163.749695 48.2377846,163.103726 C48.0689759,153.381946 43.9538376,144.907818 41.4709496,135.938865 C38.0339822,126.244522 34.3699149,116.630081 27.9469548,108.047169 C25.9442593,106.052946 23.2410102,104.552103 20.1675085,105.352103 L20.1675085,105.352103 Z M53.3039698,129.302042 C56.0139577,137.677012 59.3342945,145.787241 60.8625737,154.598793 C61.2259912,158.619972 62.1251489,162.818287 60.9728023,166.625267 C60.4081814,168.700838 57.9547519,169.713112 56.0139577,170.257035 C56.8871225,171.084472 57.9547519,171.915278 58.49338,173.054629 C58.9448842,174.324905 58.2955461,175.436337 57.2534282,176.267625 C52.1516232,178.888082 45.4433683,180.416843 39.4456789,178.550657 C17.3794942,168.880862 7.7729962,146.798552 3.82633925,126.400478 C1.48634894,118.442837 0.389402638,107.687121 5.85496977,100.584354 C10.843321,95.6072178 18.70373,93.8709964 26.0320571,95.2957858 C42.6846199,100.194943 47.6438496,116.290731 53.3039698,129.302042 L53.3039698,129.302042 Z" id="path20" fill="#E51636"></path>
                        <path d="M188.864496,6.98445229 C183.652462,2.96649331 177.083991,1.88252222 170.04091,1.90508298 C164.796145,2.78467382 160.148732,5.3521539 156.289767,8.85058943 C149.214437,4.88134765 140.675809,1.83062811 131.828637,3.45987476 C127.239467,4.44626222 123.484473,7.01039694 120.219492,10.5091694 C115.685677,5.66016833 109.20096,1.92783629 101.843559,2.62861125 C98.9453646,3.01857514 96.8322479,5.2220456 95.6481324,7.50320078 C90.7147992,5.0174728 85.5903709,0.659032474 79.3034878,2.83656792 C76.9376635,4.05686151 74.5713579,5.71542705 74.2339332,8.33444022 C72.7961474,15.8252704 76.5155216,21.9913833 79.4170859,28.3427189 C83.13646,36.6089522 87.618289,44.5931156 92.2690711,52.4991563 C92.7465681,53.5605281 93.2524646,54.6474114 93.7299616,55.7121526 L93.3954249,55.7121526 C83.1947031,46.0924176 76.2334518,34.6166056 69.1614904,23.3645241 C66.8476518,19.346233 64.7119117,15.2799515 62.7354978,11.1321297 C61.0185304,8.51306838 60.2267133,5.3521539 57.5523451,3.25191809 C56.4226219,2.99206731 55.2413945,3.19325142 54.3942225,3.87484948 C51.0709975,7.26984338 50.5323694,12.1709744 50.6748483,16.7274123 C52.6190119,24.3768947 57.325149,30.9848849 60.4827903,38.1866657 C64.2021645,45.0020687 67.9768936,51.7978326 71.4137166,58.7176881 L70.8524651,58.6137169 C62.1708769,49.6948243 56.0592044,39.6952096 49.9999988,29.585607 C45.8295536,21.0570873 40.870372,12.793694 37.1511904,4.08280616 C36.2748005,3.19325142 34.9539341,3.53734287 33.8829354,3.77143673 C30.5270269,6.43951849 29.400962,10.4828397 29.0341268,14.5524906 L29.4853904,17.6620934 C37.9950893,33.4478451 44.8689279,49.8310457 53.2683501,65.665943 L57.1008409,75.6197334 C56.9877242,76.0808645 57.0425979,76.7037285 56.4226219,76.8630546 C54.566545,76.8890474 53.2683501,75.6977117 51.6909734,75.0941016 C45.8848605,72.0173267 40.3058955,68.489529 35.0091929,64.9391079 C33.90888,64.3937409 32.3316959,64.5983137 31.2864974,65.1436807 C28.5570631,67.866665 28.0475565,71.8098658 28.6966058,75.4122725 C29.0341268,77.3010811 31.3741027,78.777856 32.8670509,79.8714781 C37.1511904,82.2536682 41.5747282,84.791815 46.3909976,86.193981 C47.124716,86.138626 47.4913586,85.7785779 47.6308532,85.1552325 C47.3193249,84.5323685 47.3777605,83.7857981 46.7318881,83.2856778 L47.0660397,83.081105 C52.8139578,85.8531868 61.1581212,88.4250279 67.2433196,84.8433192 L68.7104676,83.3896489 C70.5992762,78.7292399 68.2849562,73.8806239 66.7922968,69.6062558 C66.8799021,69.4209369 67.1037288,69.524908 67.2433196,69.4989152 C72.4298418,74.9968694 77.3593242,81.0594444 84.1521038,84.9506597 C87.4464479,86.0900099 91.3087823,85.3626934 93.6192516,82.7730425 C94.7196126,81.4748475 96.6897689,79.9172062 95.4238243,78.0019234 C92.1265922,72.4293604 88.5468089,67.012754 84.9410328,61.5147999 C93.4507799,69.5509008 101.45078,78.7027658 111.314077,85.0512614 C113.342476,85.9080604 115.85463,85.3886862 117.402163,83.9090232 C119.290972,81.9937404 121.037301,80.0240654 121.231766,77.4825492 C120.443318,73.205293 116.840912,70.1997576 114.809624,66.4933798 C109.483511,56.2055341 101.677976,46.9526342 96.6637762,36.427484 C93.0839929,29.8975203 89.7314057,23.2895301 88.4332108,15.9032968 C88.5174466,15.2538143 88.6344141,14.5011789 89.2216584,14.1377132 C90.7730423,14.0337421 92.041875,14.6045724 93.2818268,15.1759804 C94.8038484,17.4285435 95.3102263,20.0703244 96.3229819,22.5366541 C100.295545,32.2277248 106.497711,41.4545838 115.373764,48.6628147 C116.808661,50.1367015 119.148493,50.1882057 121.121537,49.8050529 C122.163655,49.5715992 123.263535,49.0002394 123.828637,48.1434404 C124.558842,43.9961481 120.193499,41.5615393 118.528517,38.0890965 C114.416363,32.2796141 110.132368,26.3436335 107.370876,19.946618 C106.60794,18.3628395 106.384113,15.954801 107.14368,14.4490971 C107.678938,13.8776892 108.723944,13.7736699 109.402163,14.1377132 C119.063776,22.3287118 125.772319,32.2796141 132.393258,41.8214189 C136.450538,46.7678448 138.39422,53.8719601 145.469551,56.0235846 C147.777132,56.412995 150.113594,55.9947038 151.55475,54.3653416 C151.921055,50.6555944 149.048853,47.6244513 150.090971,43.7915753 C151.133089,36.4534287 154.063053,28.0086154 150.2012,20.9818527 C148.649816,17.9995663 146.709022,15.2538143 144.005773,12.8909263 C145.326591,12.2749455 146.680141,13.4104449 147.945604,13.8257518 C152.878456,17.0128034 155.384352,22.017328 158.769671,26.2689765 C164.601681,35.9600472 169.700116,46.4105885 178.268588,54.8813464 C180.465459,56.6989156 183.821415,55.8416352 186.157877,54.8813464 C187.00168,54.2580011 187.199514,53.3785787 187.397829,52.4991563 C186.297468,49.28616 183.931644,46.1507088 184.804809,42.5449328 C186.664255,36.7388679 187.848852,29.5340546 185.706855,23.3645241 C184.126109,19.4502041 182.185314,15.6432246 179.170633,12.2749455 C181.283269,10.87225 183.538864,12.8909263 185.36943,14.0337421 C188.864496,16.519422 189.679418,21.2904447 193.596626,23.1599513 C194.583389,23.2115036 195.625025,22.9260644 195.965819,22.017328 C196.585795,15.8739346 192.3018,11.5961489 188.864496,6.98445229 Z M117.740069,54.8813464 C116.808661,56.3321286 117.094101,58.2243066 117.62599,59.7559552 C118.784594,61.9046916 121.150899,63.0729226 123.715039,62.9689515 C125.941272,62.8914545 128.281104,61.9821886 129.124907,59.9638974 C130.078938,57.3703957 128.618529,54.4659433 126.531886,52.7003597 C125.152825,51.7463284 123.010827,51.9018038 121.349215,52.1877243 C119.969191,52.6806244 118.4438,53.5605281 117.740069,54.8813464 L117.740069,54.8813464 Z M197.925867,20.8327793 C197.925867,21.2836577 197.900356,21.7386758 197.854628,22.2089525 L197.832005,22.4558358 L197.744399,22.6859681 C197.400717,23.6206492 196.654147,24.2954507 195.933569,24.6203604 C195.206253,24.9646684 194.492895,25.0618526 193.820452,25.065222 C193.707336,25.065222 193.596626,25.0618526 193.489767,25.0551137 L193.116241,25.0353303 L192.782185,24.873068 C190.273401,23.6727311 188.880862,21.6217082 187.728997,19.869121 C186.589646,18.0934292 185.619249,16.5549936 184.314797,15.61728 C184.139586,15.5065219 183.967264,15.3935496 183.798792,15.2799515 C185.304448,17.6746566 186.466421,20.1675085 187.46955,22.6536216 L187.485435,22.692707 L187.5018,22.7446444 C188.400477,25.3247166 188.754749,28.0212267 188.754749,30.6960762 C188.751379,35.0479414 187.81949,39.3419003 186.638262,43.061467 C186.554027,43.4243551 186.518407,43.7819484 186.515037,44.1386271 C186.452944,46.2874116 188.082306,48.8154019 189.196144,51.8825498 L189.367986,52.3884463 L189.254388,52.9145594 C189.065699,53.7386268 188.767264,55.3164848 187.287601,56.412995 L187.102282,56.5525858 L186.881824,56.6401911 C185.411307,57.2409131 183.55523,57.8411538 181.552823,57.8474113 C180.066421,57.8541502 178.417324,57.4777362 177.057517,56.348013 L176.986277,56.2965088 L176.927553,56.2382657 C168.106374,47.4945355 162.955953,36.9141266 157.201921,27.3531642 C155.283751,24.8928032 153.686639,22.3811787 151.90854,20.1449814 C153.50854,23.0661366 154.040911,26.226666 154.037541,29.3069547 C154.024064,34.5126345 152.586759,39.6275321 151.970153,44.0543912 L151.954268,44.1775681 L151.924425,44.2877486 C151.807938,44.7162444 151.758841,45.1124417 151.758841,45.5215873 C151.655351,47.5787714 153.381464,50.0678688 153.488805,53.6996376 C153.488805,53.9725618 153.479659,54.2580011 153.446928,54.5501791 L153.388203,55.1600468 L152.979058,55.6211779 C151.408901,57.402646 149.159563,58.0683499 147.043077,58.0620924 C146.407217,58.0620924 145.778095,58.0038493 145.148011,57.8998782 L145.034894,57.8767735 L144.914557,57.8440419 C140.834654,56.6146797 138.216122,53.8815871 136.242596,51.0676281 C134.262813,48.2373032 132.773041,45.2683021 130.923222,43.0287354 L130.871236,42.9636572 L130.832247,42.905366 C124.308541,33.5032964 117.8012,23.8868827 108.636339,15.9869551 C108.594462,16.2112631 108.571357,16.4673401 108.574727,16.7403606 C108.567988,17.5648612 108.788926,18.5251018 109.080623,19.1225025 L109.100358,19.155186 L109.113355,19.190902 C111.758361,25.328086 115.955232,31.1759318 120.079901,36.9853661 L120.173764,37.1220689 L120.245484,37.264981 C120.807217,38.4818763 122.036579,39.7960038 123.273643,41.3154262 C124.480382,42.8211301 125.795424,44.6968942 125.811309,47.2217076 C125.811309,47.6308532 125.775689,48.0529952 125.698192,48.4746077 L125.62984,48.8606486 L125.412271,49.1884464 C125.172079,49.5456065 124.899636,49.8507809 124.610827,50.1169663 C125.606736,50.2175679 126.645484,50.4832719 127.615881,51.1427183 L127.687602,51.1942225 L127.762211,51.2563164 C129.722259,52.9371828 131.290009,55.4002393 131.322259,58.2632958 C131.322259,59.0421165 131.192777,59.840191 130.910225,60.6223812 L130.89049,60.6647398 L130.880863,60.6969901 C130.25126,62.2031272 129.063294,63.2582415 127.794461,63.8907325 C126.51552,64.5333317 125.12972,64.8192523 123.782909,64.8707565 C123.659684,64.8774954 123.523463,64.8774954 123.396387,64.8774954 C120.368709,64.8904918 117.434895,63.4170863 115.951862,60.6580009 L115.880142,60.5217795 L115.831525,60.3855581 C115.500358,59.4315268 115.231285,58.3345352 115.231285,57.1431995 C115.231285,56.101563 115.45463,54.9463283 116.110707,53.9075799 C116.604089,53.0377845 117.252945,52.3691924 117.954269,51.8401912 C116.613715,51.6746076 115.224546,51.1783381 114.098192,50.0712382 C104.978577,42.6523214 98.6271937,33.1691929 94.5641372,23.2571835 C93.5576391,20.7586998 93.0483731,18.447653 91.9870013,16.6753305 C91.4060146,16.4188684 90.8962673,16.2242595 90.4062553,16.1168708 C91.7010807,22.9260644 94.855834,29.1832002 98.3287581,35.5123938 L98.3547509,35.563898 L98.3807436,35.6095779 C103.236099,45.8459194 111.021417,55.0825498 116.49386,65.6240657 C118.187723,68.8755699 122.063054,71.9845951 123.10469,77.1388669 L123.150418,77.385317 L123.130683,77.6322484 C122.832247,81.0204553 120.647891,83.2986742 118.755713,85.2457259 C117.272681,86.6531868 115.360767,87.3641374 113.410346,87.3665441 C112.456315,87.3665441 111.492175,87.193259 110.577133,86.80433 L110.421177,86.7388667 L110.284955,86.6531868 C104.933331,83.201442 100.162212,79.0021641 95.6182888,74.6397093 C96.0924164,75.4151606 96.5665439,76.1973507 97.0305632,76.9896491 C97.4844741,77.6779764 97.7381444,78.4890474 97.7347749,79.2616105 C97.7217785,80.6113097 97.0950638,81.5850762 96.5501781,82.3056538 C95.9889266,83.0392278 95.4045704,83.6038487 95.0700337,84.002886 C93.0156415,86.3027656 90.1270736,87.373283 87.2678679,87.373283 C86.0052927,87.373283 84.7398294,87.1643781 83.5292398,86.7470496 L83.3602867,86.6854371 L83.20433,86.6026452 C78.3754493,83.824306 74.5164843,80.0890473 70.9530668,76.2979524 C71.1735241,77.3728019 71.3131149,78.476051 71.3198538,79.6245467 C71.3227419,81.0854372 71.0762918,82.6074588 70.4726818,84.1034877 L70.3234639,84.4702747 L70.0471703,84.7460869 L68.412032,86.3629341 L68.2074592,86.4837524 C65.7179286,87.9494563 62.9496976,88.5015622 60.2233439,88.5015622 C56.4067375,88.4914539 52.6127544,87.4527054 49.3121528,86.1419954 C49.1431997,86.5588426 48.8803839,86.9790592 48.4842346,87.3232228 C47.9069061,87.8276753 47.1700109,88.0481326 46.5273153,88.0876031 L46.1866174,88.1131145 L45.8620927,88.0178077 C40.7535971,86.5294804 36.209963,83.9022843 31.9421412,81.5268331 L31.8479414,81.4811051 L31.7473398,81.4069775 C31.049578,80.8938608 30.0208897,80.2156418 29.0666178,79.345365 C28.1287598,78.4693121 27.13882,77.3761714 26.8240667,75.7468092 C26.6422135,74.740311 26.5416119,73.7054133 26.5416119,72.6570379 C26.5352581,69.5509008 27.4601197,66.2729225 29.9494096,63.7997577 L30.150613,63.5922968 L30.4102519,63.462333 C31.3319848,62.9886868 32.3770389,62.728759 33.4903481,62.7220201 C34.2529474,62.7220201 35.0643072,62.8524653 35.8528992,63.2351368 L35.9600472,63.2938612 L36.0672434,63.3583618 C41.3054623,66.8731632 46.7967738,70.3393484 52.4827905,73.3675072 C53.3463284,73.7116708 54.021178,74.1203351 54.5987953,74.4125132 L51.5321287,66.445245 C43.1067619,50.5448844 36.245679,34.20746 27.813814,18.5640429 L27.6483748,18.2656554 L27.1192292,14.6045724 L27.1421895,14.3836338 C27.5216359,10.119374 28.7356912,5.44938615 32.6949691,2.28490006 L33.0422615,2.01207215 L33.4805768,1.91486397 C33.9933084,1.80749935 34.7136453,1.6096943 35.6095779,1.60330201 C36.4566537,1.59032968 37.6314311,1.85318888 38.4980496,2.74612749 L38.7543191,2.99883506 L38.8972313,3.33615395 C42.5387234,11.8590129 47.4588195,20.0827432 51.6746076,28.680625 C54.9492164,34.1525864 58.2238253,39.5464731 61.8883258,44.7292408 C60.8659431,42.8534767 59.837303,40.9775682 58.8149203,39.1018041 L58.7725617,39.0305165 L58.7403114,38.9555225 C55.7121526,31.9845961 50.9150408,25.2985794 48.8317677,17.2010585 L48.7797822,16.9996626 L48.7764127,16.7919129 C48.7600469,16.3571596 48.7537894,15.9156675 48.7537894,15.4743678 C48.7571588,11.1027675 49.4777364,6.20563161 53.034415,2.54437539 L53.1157628,2.46690728 L53.2067375,2.38850054 C54.2060155,1.59371356 55.4166051,1.24322981 56.6079408,1.24322981 C57.0657025,1.24322981 57.5229829,1.29474846 57.9740058,1.40211308 L58.3894089,1.49274124 L58.7239456,1.75259683 C61.9889275,4.3913597 62.8033679,7.88640173 64.3225014,10.0870756 L64.3937409,10.1974486 L64.4519839,10.3138385 C66.399517,14.4101561 68.5126337,18.4211307 70.7937407,22.3875807 C75.285678,29.5408416 79.6962676,36.700312 84.8664239,43.3852215 C82.2960268,38.7118161 79.8647393,33.9739582 77.6808645,29.1221172 C75.3049319,23.867725 72.037062,18.3825748 72.0110692,11.6770154 C72.0110692,10.4958361 72.1179284,9.28231024 72.3518634,8.04226213 C72.594944,6.22820682 73.5590836,4.76778809 74.6883254,3.69058475 C75.8373026,2.59645722 77.1677478,1.80449093 78.4336924,1.14903006 L78.5569174,1.08453908 L78.6806238,1.03865701 C80.0726815,0.558440419 81.4488548,0.343712627 82.7663036,0.347096983 C87.6669051,0.402376885 91.5653407,3.08344637 94.9631745,4.99152815 C96.4235836,2.96310943 98.6141973,1.16482308 101.59374,0.746089031 L101.619251,0.740259909 L101.668349,0.740259909 C102.323944,0.675393485 102.976171,0.64888085 103.621658,0.64888085 C110.203607,0.6556486 115.919131,3.75827187 120.212753,7.81174469 C123.354991,4.81009374 127.031525,2.54155469 131.432488,1.60330201 L131.464738,1.59371356 L131.484473,1.59032968 C133.269311,1.26259925 135.038264,1.10992055 136.787963,1.10992055 C143.820454,1.1166883 150.392776,3.533959 156.036579,6.54632956 C159.911909,3.30399992 164.527072,0.902527053 169.723221,0.0259476768 L169.885435,0 L170.047168,0 C170.115519,0 170.18724,0 170.268106,0 C177.407938,0 184.366782,1.1259013 190.0231,5.47817074 L190.227673,5.6370155 L190.386999,5.84837531 C191.938383,7.93208163 193.762209,10.0481345 195.258238,12.4529961 C196.758118,14.8418769 197.929237,17.6038022 197.925867,20.8327793 L197.925867,20.8327793 Z" id="path22" fill="#173A79"></path>
                        <path d="M134.347048,19.7775687 C133.740069,20.0703244 133.091212,20.3461367 132.386519,20.5569189 C134.064979,22.5887359 135.700598,24.6657034 137.206254,26.8144398 C136.512151,24.3960523 135.525388,22.0760043 134.347048,19.7775687 L134.347048,19.7775687 Z M128.787482,19.2196866 L129.01179,19.0122739 C131.322259,19.2456313 133.100839,18.3368948 134.87268,17.3501319 L135.437301,17.7660645 C137.384834,21.3684712 138.959323,25.1007936 139.718408,29.1706371 C139.747289,30.6729234 140.257036,32.6949691 139.266904,33.8372555 C136.622379,28.6546804 132.760045,23.9128273 128.787482,19.2196866 L128.787482,19.2196866 Z" id="path24" fill="#173A79"></path>
                        <path d="M169.849334,19.1061367 C169.284713,19.3169189 168.700838,19.4927071 168.100597,19.6288322 C169.966301,22.124139 171.540309,24.7109982 172.958359,27.327027 C172.734532,24.3672677 171.566301,21.6572798 169.849334,19.1061367 L169.849334,19.1061367 Z M164.406735,18.0774484 C166.656073,18.1548973 168.68736,17.6880381 170.491933,16.7274123 C172.916482,19.946618 174.717685,23.5687599 174.889526,27.7227911 C174.435615,29.4041389 174.970874,31.8383145 173.870513,33.3179294 C171.306855,28.0086154 168.518889,22.7961486 164.406735,18.0774484 L164.406735,18.0774484 Z" id="path26" fill="#173A79"></path>
                        <path d="M89.6014418,122.55451 C89.3063756,122.314317 89.0204551,122.069311 88.7412734,121.831044 C89.9942216,124.626712 92.1073383,127.198553 94.6416342,129.490249 C94.9371817,129.709263 95.2288785,129.926832 95.5114296,130.144401 C94.2036078,127.420935 92.1492155,124.88327 89.6014418,122.55451 Z M98.39374,132.412512 C98.4226209,133.060406 98.0264717,133.657277 97.2673863,133.657277 C95.9398291,132.905893 94.7003586,131.896507 93.434414,130.962211 C89.3776151,127.305893 86.1058944,122.799516 85.6582409,117.484955 C87.683271,118.030322 89.2380242,119.86907 90.8447631,121.11191 C94.4211769,124.380262 97.2125126,128.1367 98.39374,132.412512 L98.39374,132.412512 Z" id="path28" fill="#173A79"></path>
                        <path d="M26.5091209,109.303487 C25.1071955,107.932127 23.4713352,107.021417 21.8616601,107.036339 C21.5273159,107.036339 21.1832486,107.070515 20.8263773,107.151381 C19.6320091,107.763174 19.0219008,108.483752 18.5806012,109.413716 C18.1293377,110.382187 17.9377131,111.651501 17.9411307,113.103728 C17.9313112,115.374245 18.40515,117.974967 18.5674123,120.394702 C19.8429839,129.754509 23.4487599,138.39422 26.9635613,147.249575 C27.7685192,148.700357 28.3167743,150.019732 28.9983627,151.11191 C29.8228633,150.853426 30.7769427,150.623342 31.8544878,150.615159 C32.4874119,150.615159 33.1624059,150.706133 33.8408174,150.92996 L34.02243,150.988203 L34.1879173,151.085435 C37.3619726,152.909743 39.4327307,155.449334 41.4222372,157.643317 C42.9704442,159.353546 44.4438015,160.854388 46.2938135,161.940309 C45.8554983,153.245724 42.1168221,145.279419 39.6566536,136.516483 C36.2552578,126.905412 32.6658476,117.564859 26.5091209,109.303487 L26.5091209,109.303487 Z M48.2377846,163.103726 C48.318651,163.749695 48.2084224,164.604569 47.3354982,164.554509 C40.9937415,162.065459 38.8517439,155.950899 33.2436574,152.732607 C31.5265937,152.165098 29.8097225,152.838023 28.2844277,153.357397 C26.9050775,151.723221 26.2560282,149.831525 25.2435132,148.068829 C21.7219248,139.17978 17.9995663,130.34031 16.6753305,120.595906 C16.3637541,115.463294 14.1958119,108.177133 20.1675085,105.352103 C23.2410102,104.552103 25.9442593,106.052946 27.9469548,108.047169 C34.3699149,116.630081 38.0339822,126.244522 41.4709496,135.938865 C43.9538376,144.907818 48.0689759,153.381946 48.2377846,163.103726 L48.2377846,163.103726 Z" id="path30" fill="#173A79"></path>
                        <path d="M26.0320571,95.2957858 C18.70373,93.8709964 10.843321,95.6072178 5.85496977,100.584354 C0.389402638,107.687121 1.48634894,118.442837 3.82633925,126.400478 C7.7729962,146.798552 17.3794942,168.880862 39.4456789,178.550657 C45.4433683,180.416843 52.1516232,178.888082 57.2534282,176.267625 C58.2955461,175.436337 58.9448842,174.324905 58.49338,173.054629 C57.9547519,171.915278 56.8871225,171.084472 56.0139577,170.257035 C57.9547519,169.713112 60.4081814,168.700838 60.9728023,166.625267 C62.1251489,162.818287 61.2259912,158.619972 60.8625737,154.598793 C59.3342945,145.787241 56.0139577,137.677012 53.3039698,129.302042 C47.6438496,116.290731 42.6846199,100.194943 26.0320571,95.2957858 L26.0320571,95.2957858 Z M72.104932,110.224787 C71.4074591,109.603367 70.7321282,108.985316 70.0832714,108.514558 C69.2101066,107.871959 68.4702751,107.570154 67.944162,107.579781 C67.7006,107.584594 67.4637769,107.622139 67.1557143,107.764618 C66.6170862,108.090972 66.3571584,108.438505 66.1299622,108.966062 C65.9061355,109.507578 65.7992763,110.257518 65.7992763,111.102765 C65.7992763,111.758361 65.8608888,112.461128 65.9383858,113.157157 C68.6873629,115.766543 71.2028863,118.497711 73.5138369,121.337662 C72.5723207,118.150659 72.0856781,114.812512 72.092417,111.37232 C72.092417,110.995906 72.0953051,110.610828 72.104932,110.224787 L72.104932,110.224787 Z M66.2695531,154.808179 C70.7778562,162.942956 75.6818272,171.39446 83.5162434,177.821897 C85.9956657,179.19807 90.2762914,179.767505 92.4187703,177.719851 C94.534775,170.695062 91.6038485,163.907096 90.1660627,157.191813 C85.0642578,141.459443 77.2327297,126.296507 64.1275556,114.061128 C63.8161236,111.391574 63.3679888,107.712633 66.2695531,106.078938 C69.3107083,104.604089 71.8777359,107.555713 74.0457262,109.398794 C73.3448838,121.890731 79.3164842,133.112391 90.5039689,140.604088 C94.6450037,142.989647 100.055352,145.685195 105.043559,143.091693 C108.99013,140.734052 108.649335,136.200237 108.091453,132.412512 C105.465701,122.226712 96.2257497,114.447169 87.0117908,108.774486 C86.9790592,107.145124 88.219011,105.587001 89.8252685,104.938144 C93.379059,104.290731 95.4079399,108.20457 97.8286377,110.01877 C99.8021636,111.367506 100.902043,114.893379 103.917687,114.269071 C106.510226,110.718168 102.817326,106.985798 100.762934,103.902765 C97.1571576,100.45439 93.6062552,95.2471697 87.4594443,97.058 C83.8247873,97.6293598 81.0950642,100.480383 78.3330907,102.763415 C72.8644988,98.6435595 66.9771343,93.066183 59.0580009,94.7778556 C52.0673874,97.4748471 51.3925378,104.967025 51.0517436,111.367506 C51.9537893,127.435857 59.3959071,141.018047 66.2695531,154.808179 L66.2695531,154.808179 Z M45.388254,108.229119 C46.9654381,110.685918 48.3287593,113.261128 49.5619723,115.868589 C49.3771347,114.423102 49.240432,112.960767 49.1561961,111.471477 L49.1494573,111.37232 L49.1561961,111.264979 C49.3314067,108.034173 49.5687112,104.399516 50.7725619,101.04019 C51.9504199,97.6909723 54.3099866,94.545846 58.3735244,93.0045705 L58.5097458,92.9525849 L58.6555942,92.9203346 C59.7853174,92.6782167 60.8885665,92.5631746 61.9595652,92.5631746 C61.9691922,92.5631746 61.9759311,92.5631746 61.9826699,92.5631746 C68.8206962,92.6180482 73.883512,96.945846 78.2681088,100.332609 C80.6050521,98.3172057 83.2563156,95.8863995 87.0310448,95.2033671 C88.0240652,94.92226 88.9910928,94.7865199 89.9225008,94.7865199 C92.8726812,94.7865199 95.2582407,96.1477714 97.1470493,97.7198532 C99.0555932,99.3020432 100.619973,101.147049 102.074125,102.529961 L102.223343,102.674366 L102.339829,102.849576 C103.04741,103.915762 104.076532,105.196147 104.978577,106.629119 C105.864739,108.062091 106.692175,109.699155 106.708541,111.65439 C106.718168,112.905894 106.306135,114.239708 105.455593,115.392055 L105.024305,115.979299 L104.306616,116.13333 C103.943198,116.209383 103.580262,116.245484 103.232729,116.245484 C101.109985,116.235858 99.7111888,114.91167 98.838024,113.898914 C97.9393477,112.837542 97.2250277,111.873884 96.757639,111.587964 L96.7157617,111.561971 L96.692657,111.542717 C95.2909723,110.477976 94.2522239,109.148974 93.2269531,108.198313 C92.1882047,107.214919 91.3737643,106.759083 90.6040892,106.770154 C90.5232228,106.770154 90.4356175,106.774967 90.3513816,106.78315 C89.8353768,107.031526 89.4166043,107.456556 89.1634153,107.880142 C98.1501781,113.605292 107.162934,121.36173 109.927795,131.938866 L109.954269,132.034654 L109.966784,132.135255 C110.152103,133.38676 110.323944,134.765821 110.323944,136.19398 C110.323944,137.703005 110.135737,139.286639 109.483511,140.803847 C108.84043,142.319611 107.691935,143.734774 106.020695,144.724425 L105.974967,144.750418 L105.920094,144.77978 C104.19013,145.678937 102.382188,146.055351 100.645966,146.050538 C96.3715981,146.025989 92.5646186,143.965339 89.5528257,142.25126 L89.5008401,142.222379 L89.442597,142.184834 C87.6799015,141.00842 86.0413938,139.739587 84.5256297,138.384593 C87.5340532,144.291212 89.9648594,150.415399 91.9740049,156.606494 L92.0033671,156.700357 L92.022621,156.793257 C93.0416343,161.643317 95.0411529,166.832727 95.0604068,172.492896 C95.0604068,174.376891 94.8298412,176.312872 94.2392275,178.26955 L94.0962672,178.747047 L93.7362191,179.094099 C92.2175669,180.524183 90.253668,180.955471 88.4264719,180.963654 C86.3075791,180.954027 84.2430785,180.388924 82.5915743,179.485435 L82.4418752,179.400718 L82.3090232,179.292414 C74.1400703,172.585315 69.1287588,163.882547 64.6079406,155.728035 L64.5915748,155.699154 L64.5723209,155.656795 C63.708783,153.923943 62.8293606,152.185796 61.9595652,150.446206 C62.2483739,151.708781 62.5083017,152.980983 62.7354978,154.277734 L62.7451248,154.353787 L62.7547517,154.426952 C62.9723209,156.881825 63.4363402,159.561007 63.4397096,162.336458 C63.4397096,163.92298 63.2837529,165.557156 62.7903715,167.178335 L62.7903715,167.178335 C62.3297217,168.811067 61.1643787,169.912872 60.0187711,170.626711 C59.8175677,170.753305 59.6197338,170.866903 59.415161,170.974244 C59.7039696,171.345844 59.9768938,171.764135 60.2170863,172.245964 L60.2555942,172.336939 L60.2849564,172.4231 C60.4539094,172.891933 60.5381453,173.386759 60.5381453,173.873883 C60.5217795,175.636097 59.4897699,176.921295 58.4351369,177.757396 L58.2859191,177.875808 L58.1203355,177.960044 C54.3523452,179.892655 49.7891684,181.273642 45.0993009,181.278455 C43.025366,181.278455 40.9256307,181.000717 38.8778811,180.364857 L38.7772794,180.334051 L38.6828871,180.291692 C27.245968,175.285676 19.0219008,167.025748 13.2156435,157.49073 C7.42233435,147.968227 3.9822141,137.16919 1.9733381,126.843318 C0.850445225,122.994461 0.00338447645,118.516965 0,114.009143 C0.00338447645,108.886159 1.10352825,103.651502 4.34585789,99.4271937 L4.42031277,99.3251479 L4.51132119,99.2375426 C8.81805032,94.9535476 14.90657,92.9169652 21.0503003,92.9169652 C22.8354266,92.9169652 24.6267623,93.0854369 26.3923459,93.43297 L26.4767743,93.4474104 L26.5643796,93.4700338 C35.408182,96.0616101 41.2244514,101.731405 45.388254,108.229119 L45.388254,108.229119 Z" id="path32" fill="#173A79"></path>
                        <path d="M67.1720801,129.819491 C73.1176877,138.996386 79.0050522,148.328757 80.020696,159.265941 C73.8478923,149.570153 67.8762919,139.515279 65.5947035,128.368709 C66.155955,128.732127 66.7759309,129.302042 67.1720801,129.819491" id="path34" fill="#173A79"></path>
                        <path d="M196.867865,5.17352574 L196.53381,5.17352574 L196.53381,6.15691922 C196.615158,6.17328504 196.719129,6.17910935 196.867865,6.17910935 C197.390609,6.17910935 197.579297,5.92640178 197.579297,5.66974715 C197.579297,5.31306846 197.251018,5.17352574 196.867865,5.17352574 L196.867865,5.17352574 Z M197.497949,4.98531877 L197.497949,5.00789398 C197.812751,5.10170866 198.065458,5.33583621 198.065458,5.71845954 C198.065458,5.99465689 197.971596,6.19244269 197.799754,6.3220215 C197.627432,6.45193726 197.335735,6.54296013 196.894339,6.54296013 C196.546806,6.54296013 196.313352,6.51080609 196.069791,6.47167252 L196.069791,3.55708294 L196.53381,3.55708294 L196.53381,4.81009374 L196.85872,4.81009374 C197.228395,4.81009374 197.416602,4.67396378 197.487841,4.30373996 C197.543677,3.92053901 197.611547,3.65429594 197.682787,3.55708294 L198.169429,3.55708294 C198.124183,3.65429594 198.052943,3.83009858 197.985073,4.27722733 C197.925867,4.706113 197.754026,4.93963887 197.497949,4.98531877 L197.497949,4.98531877 Z" id="path36" fill="#173A79"></path>
                        <path d="M197.03393,2.86251738 C195.875326,2.86251738 194.93381,3.8359277 194.93381,5.07576401 C194.93381,6.29646194 195.875326,7.28283977 197.023822,7.28283977 L197.03393,7.28283977 C198.195422,7.28283977 199.120573,6.29646194 199.120573,5.06955463 C199.120573,3.8359277 198.195422,2.84954024 197.03393,2.86251738 L197.03393,2.86251738 Z M197.03393,7.69198537 L197.023822,7.69198537 C195.592775,7.69198537 194.434171,6.52996374 194.434171,5.07576401 C194.434171,3.60239702 195.592775,2.45675565 197.023822,2.45675565 C198.458719,2.45675565 199.597588,3.60239702 199.597588,5.07576401 C199.597588,6.52996374 198.458719,7.69198537 197.03393,7.69198537 L197.03393,7.69198537 Z" id="path38" fill="#173A79"></path>
                    </g>
                </g>
            </g>
        </g>
    </g>
</svg>