<?xml version="1.0" encoding="UTF-8"?>
<svg width="200px" height="200px" viewBox="0 0 200 200" version="1.1" xmlns="http://www.w3.org/2000/svg" xmlns:xlink="http://www.w3.org/1999/xlink">
    <!-- Generator: Sketch 54.1 (76490) - https://sketchapp.com -->
    <title>oregon-st</title>
    <desc>Created with Sketch.</desc>
    <g id="oregon-st" stroke="none" stroke-width="1" fill="none" fill-rule="evenodd">
        <g id="oregon-st_BGL">
            <g id="oregon-st" transform="translate(0.000000, 44.000000)">
                <g id="g10" transform="translate(99.999998, 56.161619) scale(-1, 1) rotate(-180.000000) translate(-99.999998, -56.161619) translate(0.000000, 0.101014)" fill-rule="nonzero">
                    <g id="g12">
                        <path d="M107.893432,79.2227253 C106.251007,78.979796 105.12525,77.4525233 105.373735,75.8156547 C105.620704,74.1792911 107.139391,73.0510083 108.7803,73.2934325 C110.412624,73.5373719 111.545957,75.0626244 111.298987,76.7040385 C111.054038,78.3404021 109.52727,79.4656546 107.893432,79.2227253" id="path14" fill="#FFFFFF"></path>
                        <path d="M113.620199,75.4600991 C112.946462,75.3636345 112.483331,74.7348466 112.584341,74.0595941 C112.683331,73.3863618 113.311108,72.9191901 113.985856,73.0196951 C114.665654,73.1207052 115.123229,73.748483 115.022219,74.4207052 C114.921209,75.098483 114.296462,75.5611092 113.620199,75.4600991" id="path16" fill="#FFFFFF"></path>
                        <path d="M173.700501,39.2126253 L170.119693,34.2475749 L169.533329,38.5302011 C162.753026,39.2716152 157.890905,35.0919183 157.890905,35.0919183 L155.723228,28.8455043 C155.723228,28.8455043 154.197976,24.7529792 153.194946,21.435454 C150.182319,11.4338886 146.211107,8.96404018 144.671209,8.36727252 L148.081309,8.36727252 C149.574744,8.93742402 152.455047,10.287828 154.165653,12.8075754 C154.165653,12.8075754 153.786865,11.312525 153.13737,10.1485351 L154.782824,10.1485351 C155.33535,10.4373735 155.857067,10.7501007 156.327774,11.0852522 C161.684844,14.8747471 177.14444,39.9984333 177.14444,39.9984333 L173.700501,39.2126253" id="path18" fill="#FFFFFF"></path>
                        <path d="M117.873734,13.2524239 C124.610603,9.89701995 137.242421,9.73585834 137.242421,9.73585834 C144.975754,13.3394441 145.904037,21.470757 145.904037,21.470757 C133.299997,11.9535351 117.873734,13.2524239 117.873734,13.2524239" id="path20" fill="#DC3821"></path>
                        <path d="M174.898986,55.5353521 C171.080804,54.6818168 168.822723,55.7560592 168.822723,55.7560592 C172.515147,59.1373723 176.68939,59.3373723 176.68939,59.3373723 C174.165147,58.354544 171.79646,56.6833319 174.898986,55.5353521 Z M164.047471,49.9443422 C159.251511,48.3672715 156.149491,49.4625745 156.149491,49.4625745 C160.373228,54.254039 165.736359,55.0272714 165.736359,55.0272714 C162.632824,53.4570694 159.849996,51.023231 164.047471,49.9443422 L164.047471,49.9443422 Z M163.348986,65.4333317 C160.747976,64.4272711 158.302521,62.7045439 161.504541,61.5171702 C157.565653,60.6373722 155.239895,61.7424227 155.239895,61.7424227 C159.049996,65.2282812 163.348986,65.4333317 163.348986,65.4333317 Z M172.99747,71.3893922 C172.99747,71.3893922 182.508076,68.1954528 189.595955,71.0636346 C189.595955,71.0636346 160.998481,91.9020179 118.529795,102.509088 C120.707573,100.457573 122.014643,96.8126238 122.014643,96.8126238 C122.014643,96.8126238 101.509088,104.241412 75.2727254,104.183331 C77.0424223,102.209593 77.9474728,99.4116137 78.079796,98.9904016 C77.2833314,99.0863612 60.1994934,101.156058 45.1803019,98.644442 C45.1803019,98.644442 43.4256555,98.3813107 41.0546959,97.8186844 C41.0365141,97.8186844 41.0237363,97.8136339 41.0112616,97.8095935 C40.3505545,97.6525228 39.6466657,97.474745 38.9117667,97.2671693 C35.9414637,96.6449471 31.3064134,95.4590885 27.806767,93.6176744 C27.806767,93.6176744 35.8676759,92.2121189 49.822827,77.1176748 L55.2565643,77.1176748 L55.3707057,77.1176748 C53.7343421,80.2969677 50.5833321,87.5848463 51.9287866,94.3994926 C52.8353522,94.2348461 53.5070694,94.1095936 53.7888875,94.063129 C59.584847,92.7898967 71.4166649,88.5540382 75.9575739,74.8863618 C75.9575739,74.8863618 77.4368668,78.1777758 77.469695,82.9651494 C93.4308057,89.5676745 109.62929,93.7065633 115.859593,85.5626241 C103.772725,89.9691897 96.6904016,82.8626242 99.2323208,75.4282809 C101.287876,84.1333312 112.388381,86.2999978 120.213128,77.2257556 C126.955552,69.4085841 138.365653,70.4510083 138.365653,70.4510083 C138.365653,70.4510083 137.011613,72.1797962 136.565653,74.0419173 C136.565653,74.0419173 142.450501,71.2262608 149.38333,72.0166649 C149.38333,72.0166649 149.23939,78.0388869 165.200501,72.4489881 C165.200501,72.4489881 161.201511,68.8282811 146.643936,67.3186852 C146.643936,67.3186852 148.189895,65.9590893 150.744441,65.1621196 C150.744441,65.1621196 134.774744,60.7585843 123.663633,64.3020186 C123.663633,64.3020186 126.359593,66.4691903 126.912118,68.3999983 C126.912118,68.3999983 117.601007,63.7338368 110.354543,68.4429276 C103.840401,72.677776 99.9828258,71.3439376 99.9828258,71.3439376 C99.9828258,71.3439376 105.353028,69.1045437 106.132826,64.4075741 C106.132826,64.4075741 78.6722203,59.8065642 62.3535338,69.5267659 C62.3535338,69.5267659 67.2691902,58.2424228 82.3616141,55.2232309 C90.632826,56.3373723 102.765149,59.2636349 121.400502,53.7383825 C115.731815,53.5964633 113.243432,49.8737361 111.785351,48.2591402 C102.959088,47.4135847 83.3494929,47.0150493 59.3520187,48.9202513 C59.3520187,48.9202513 121.269694,36.0671203 144.464138,51.7580795 C136.009593,40.9080798 115.541411,40.4091909 108.438381,40.2914131 C108.017169,38.924797 107.987371,34.8753022 108.210603,34.5195951 C103.959088,33.1504537 86.7232302,32.3636861 75.8994931,32.2448982 C75.8994931,32.2448982 126.771714,27.2737367 146.575754,40.9197465 C144.474744,37.2480799 135.898987,27.5242417 109.578785,28.031868 C114.189391,16.4888885 126.62727,13.7768178 141.333835,28.7247468 C169.972723,54.1944431 180.874238,44.1005545 183.672218,56.4792915 C185.264642,63.5247459 172.149996,64.4580792 172.99747,71.3893922 L172.99747,71.3893922 Z" id="path22" fill="#DC3821"></path>
                        <path d="M174.898986,55.5353521 C171.79646,56.6833319 174.165147,58.354544 176.68939,59.3373723 C176.68939,59.3373723 172.515147,59.1373723 168.822723,55.7560592 C168.822723,55.7560592 171.080804,54.6818168 174.898986,55.5353521" id="path24" fill="#100F0D"></path>
                        <path d="M161.504541,61.5171702 C158.302521,62.7045439 160.747976,64.4272711 163.348986,65.4333317 C163.348986,65.4333317 159.049996,65.2282812 155.239895,61.7424227 C155.239895,61.7424227 157.565653,60.6373722 161.504541,61.5171702" id="path26" fill="#100F0D"></path>
                        <path d="M165.736359,55.0272714 C165.736359,55.0272714 160.373228,54.254039 156.149491,49.4625745 C156.149491,49.4625745 159.251511,48.3672715 164.047471,49.9443422 C159.849996,51.023231 162.632824,53.4570694 165.736359,55.0272714" id="path28" fill="#100F0D"></path>
                        <path d="M112.584341,74.0595941 C112.483331,74.7348466 112.946462,75.3636345 113.620199,75.4600991 C114.296462,75.5611092 114.921209,75.098483 115.022219,74.4207052 C115.123229,73.748483 114.665654,73.1207052 113.985856,73.0196951 C113.311108,72.9191901 112.683331,73.3863618 112.584341,74.0595941 L112.584341,74.0595941 Z M107.893432,79.2227253 C109.52727,79.4656546 111.054038,78.3404021 111.298987,76.7040385 C111.545957,75.0626244 110.412624,73.5373719 108.7803,73.2934325 C107.139391,73.0510083 105.620704,74.1792911 105.373735,75.8156547 C105.12525,77.4525233 106.251007,78.979796 107.893432,79.2227253 L107.893432,79.2227253 Z M183.672218,56.4792915 C180.874238,44.1005545 169.972723,54.1944431 141.333835,28.7247468 C126.62727,13.7768178 114.189391,16.4888885 109.578785,28.031868 C135.898987,27.5242417 144.474744,37.2480799 146.575754,40.9197465 C126.771714,27.2737367 75.8994931,32.2448982 75.8994931,32.2448982 C86.7232302,32.3636861 103.959088,33.1504537 108.210603,34.5195951 C107.987371,34.8753022 108.017169,38.924797 108.438381,40.2914131 C115.541411,40.4091909 136.009593,40.9080798 144.464138,51.7580795 C121.269694,36.0671203 59.3520187,48.9202513 59.3520187,48.9202513 C83.3494929,47.0150493 102.959088,47.4135847 111.785351,48.2591402 C113.243432,49.8737361 115.731815,53.5964633 121.400502,53.7383825 C102.765149,59.2636349 90.632826,56.3373723 82.3616141,55.2232309 C67.2691902,58.2424228 62.3535338,69.5267659 62.3535338,69.5267659 C78.6722203,59.8065642 106.132826,64.4075741 106.132826,64.4075741 C105.353028,69.1045437 99.9828258,71.3439376 99.9828258,71.3439376 C99.9828258,71.3439376 103.840401,72.677776 110.354543,68.4429276 C117.601007,63.7338368 126.912118,68.3999983 126.912118,68.3999983 C126.359593,66.4691903 123.663633,64.3020186 123.663633,64.3020186 C134.774744,60.7585843 150.744441,65.1621196 150.744441,65.1621196 C148.189895,65.9590893 146.643936,67.3186852 146.643936,67.3186852 C161.201511,68.8282811 165.200501,72.4489881 165.200501,72.4489881 C149.23939,78.0388869 149.38333,72.0166649 149.38333,72.0166649 C142.450501,71.2262608 136.565653,74.0419173 136.565653,74.0419173 C137.011613,72.1797962 138.365653,70.4510083 138.365653,70.4510083 C138.365653,70.4510083 126.955552,69.4085841 120.213128,77.2257556 C112.388381,86.2999978 101.287876,84.1333312 99.2323208,75.4282809 C96.6904016,82.8626242 103.772725,89.9691897 115.859593,85.5626241 C109.62929,93.7065633 93.4308057,89.5676745 77.469695,82.9651494 C77.4368668,78.1777758 75.9575739,74.8863618 75.9575739,74.8863618 C71.4166649,88.5540382 59.584847,92.7898967 53.7888875,94.063129 C53.5070694,94.1095936 52.8353522,94.2348461 51.9287866,94.3994926 C50.5833321,87.5848463 53.7343421,80.2969677 55.3707057,77.1176748 L55.2565643,77.1176748 L49.822827,77.1176748 C35.8676759,92.2121189 27.806767,93.6176744 27.806767,93.6176744 C31.3064134,95.4590885 35.9414637,96.6449471 38.9117667,97.2671693 C39.6466657,97.474745 40.3505545,97.6525228 41.0112616,97.8095935 C41.0237363,97.8136339 41.0365141,97.8186844 41.0546959,97.8186844 C43.4256555,98.3813107 45.1803019,98.644442 45.1803019,98.644442 C60.1994934,101.156058 77.2833314,99.0863612 78.079796,98.9904016 C77.9474728,99.4116137 77.0424223,102.209593 75.2727254,104.183331 C101.509088,104.241412 122.014643,96.8126238 122.014643,96.8126238 C122.014643,96.8126238 120.707573,100.457573 118.529795,102.509088 C160.998481,91.9020179 189.595955,71.0636346 189.595955,71.0636346 C182.508076,68.1954528 172.99747,71.3893922 172.99747,71.3893922 C172.149996,64.4580792 185.264642,63.5247459 183.672218,56.4792915 Z M156.327774,11.0852522 C155.857067,10.7501007 155.33535,10.4373735 154.782824,10.1485351 L153.13737,10.1485351 C153.786865,11.312525 154.165653,12.8075754 154.165653,12.8075754 C152.455047,10.287828 149.574744,8.93742402 148.081309,8.36727252 L144.671209,8.36727252 C146.211107,8.96404018 150.182319,11.4338886 153.194946,21.435454 C154.197976,24.7529792 155.723228,28.8455043 155.723228,28.8455043 L157.890905,35.0919183 C157.890905,35.0919183 162.753026,39.2716152 169.533329,38.5302011 L170.119693,34.2475749 L173.700501,39.2126253 L177.14444,39.9984333 C177.14444,39.9984333 161.684844,14.8747471 156.327774,11.0852522 L156.327774,11.0852522 Z M137.242421,9.73585834 C137.242421,9.73585834 124.610603,9.89701995 117.873734,13.2524239 C117.873734,13.2524239 133.299997,11.9535351 145.904037,21.470757 C145.904037,21.470757 144.975754,13.3394441 137.242421,9.73585834 Z M171.772218,88.2373715 C166.64646,91.0212098 160.862117,93.8595936 154.476259,96.5590885 C137.415653,103.716664 120.298987,107.966159 104.097472,110.273735 C96.3883814,111.27525 88.2914119,111.841411 79.8419172,111.841411 C58.9186854,111.841411 35.8351001,108.367674 11.0617674,99.4338359 C8.69040382,98.5792905 6.30641398,97.6777753 3.9034898,96.723735 C2.60910094,96.2333309 1.30405552,95.7303006 0,95.2090885 C0,95.2090885 4.41090393,94.2111088 10.8619189,91.2808058 C20.0447975,87.1040382 33.3662618,79.0116142 43.9888878,64.3020186 C43.2960595,64.2853519 42.5550494,64.2752509 41.7728272,64.2752509 C40.5679788,64.2752509 39.2783324,64.3020186 37.9567162,64.3712105 C35.5074234,64.4702004 32.2463123,64.7100994 29.4248983,65.2929277 C28.8658074,65.4106044 28.3203023,65.5414125 27.806767,65.6828266 C27.806767,65.6828266 28.176666,64.7641398 29.0384336,63.2333318 C31.6779285,58.5358571 38.9573223,48.087322 54.5090895,40.5607061 C54.5090895,40.5607061 53.8505037,40.4192414 52.6459583,40.3010596 C51.9944431,40.2314131 51.1893927,40.1716152 50.237524,40.1388879 C49.817322,40.1282313 49.3817159,40.1162111 48.9133321,40.1162111 C48.7691402,40.1162111 48.6233321,40.1162111 48.4811099,40.1217162 C46.5987867,40.1388879 44.3351504,40.2817162 41.7680798,40.6727263 C42.0939888,40.3409081 42.71111,39.6192414 43.6180292,38.6253021 C48.6343927,33.1206557 62.5808065,19.1520702 85.2883817,15.0591915 C85.3757554,15.0505047 85.461614,15.0287875 85.5535332,15.0116158 C85.5535332,15.0116158 82.6131292,14.3887875 78.3474728,14.1676764 C77.4368668,14.1226764 76.4636345,14.0974239 75.4444426,14.0974239 C74.4757557,14.0974239 73.4641396,14.1191411 72.4237356,14.1822724 C72.0994931,14.198434 71.7717154,14.2232825 71.4424225,14.248939 C72.4969679,13.6965148 73.5606042,13.173737 74.6323214,12.6611613 C74.7257557,12.6217169 74.8166648,12.5767674 74.9050486,12.5323734 C81.8156545,8.30292909 99.5156541,0 131.861108,0 C137.652522,0 143.911613,0.268110599 150.668683,0.872196948 C150.956562,0.895873715 151.253532,0.930398967 151.5404,0.953085835 C152.022723,0.998459571 152.502521,1.03890401 152.98737,1.09098987 L152.997471,1.09098987 C153.145451,1.14287371 153.29242,1.19791916 153.44141,1.25966664 C158.527269,3.31715648 165.49343,11.8899997 172.480804,22.3080297 C183.721713,39.0763122 194.99949,60.5994934 198.486359,67.3934327 C199.197975,68.7797963 199.585349,69.5479781 199.585349,69.5479781 C190.548985,76.9045435 181.223228,83.0777757 171.772218,88.2373715 L171.772218,88.2373715 Z" id="path30" fill="#100F0D"></path>
                        <path d="M45.4328271,16.669242 C44.7439383,15.9803026 43.916312,15.6348481 42.9314636,15.6348481 C41.9560596,15.6348481 41.1193929,15.9803026 40.435403,16.669242 C39.7506556,17.3581309 39.4061606,18.1857571 39.4061606,19.1646965 C39.4061606,20.140454 39.7506556,20.9682823 40.435403,21.6469187 C41.1298475,22.3368681 41.9616151,22.6809085 42.9314636,22.6809085 C43.9070191,22.6809085 44.7439383,22.3368681 45.4328271,21.6469187 C46.1126756,20.9682823 46.4567665,20.140454 46.4567665,19.1646965 C46.4567665,18.1857571 46.1126756,17.3581309 45.4328271,16.669242 L45.4328271,16.669242 Z M42.9223727,23.2429792 C41.8090899,23.2429792 40.8431808,22.8389388 40.0459586,22.0506055 C39.2530798,21.2529793 38.859292,20.2878278 38.859292,19.1702015 C38.859292,18.0374238 39.2530798,17.0778279 40.0410596,16.2804036 C40.8341404,15.4872723 41.7990394,15.0832319 42.9223727,15.0832319 C44.0545949,15.0832319 45.0197463,15.4872723 45.8173726,16.2804036 C46.6046958,17.0778279 47.0083827,18.0480804 47.0083827,19.1702015 C47.0083827,20.2984843 46.6046958,21.2529793 45.8173726,22.0506055 C45.0197463,22.8389388 44.0545949,23.2429792 42.9223727,23.2429792 L42.9223727,23.2429792 Z" id="path32" fill="#100F0D"></path>
                        <path d="M43.5371201,19.3676763 C43.3743929,19.3035854 43.1186858,19.2692419 42.7836858,19.2692419 L42.055504,19.2692419 L42.055504,20.8686358 L42.7440393,20.8686358 C43.1871201,20.8686358 43.5027767,20.81005 43.7093423,20.7064641 C43.9070191,20.5979793 44.0147464,20.3772217 44.0147464,20.0566157 C44.0147464,19.7216157 43.8573221,19.4910096 43.5371201,19.3676763 L43.5371201,19.3676763 Z M44.7731302,20.1302015 C44.7731302,20.6918682 44.546615,21.0661106 44.0837868,21.2529793 C43.8277262,21.3711106 43.4142413,21.420252 42.8523727,21.420252 L41.2865141,21.420252 L41.2865141,16.9544945 L42.055504,16.9544945 L42.055504,18.7127268 L42.6946959,18.7127268 C43.1186858,18.7127268 43.4041403,18.6732319 43.581312,18.5747975 C43.8673726,18.4071208 44.0147464,18.0630299 44.0147464,17.5556561 L44.0147464,17.1959592 L44.0244433,17.0529289 C44.0299484,17.0276763 44.0299484,17.0186359 44.0346959,17.00404 C44.0447464,16.988838 44.0447464,16.9690905 44.0447464,16.9544945 L44.7731302,16.9544945 L44.7529787,17.0136864 C44.7336858,17.0529289 44.7186858,17.1267167 44.7143423,17.2455046 C44.7040898,17.3630804 44.7040898,17.4818682 44.7040898,17.5803026 L44.7040898,17.90404 C44.7040898,18.1319187 44.6204029,18.3585854 44.4572716,18.594545 C44.3004029,18.8354036 44.0447464,18.9733329 43.6902009,19.0329288 C43.975706,19.0812621 44.1820696,19.1455551 44.3400999,19.2439894 C44.6356049,19.4409086 44.7731302,19.7267672 44.7731302,20.1302015 L44.7731302,20.1302015 Z" id="path34" fill="#100F0D"></path>
                    </g>
                </g>
            </g>
        </g>
    </g>
</svg>