<?xml version="1.0" encoding="utf-8"?>
<!-- Generator: Adobe Illustrator 24.2.1, SVG Export Plug-In . SVG Version: 6.00 Build 0)  -->
<svg version="1.1" id="Layer_1" xmlns="http://www.w3.org/2000/svg" xmlns:xlink="http://www.w3.org/1999/xlink" x="0px" y="0px"
	 width="200px" height="200px" viewBox="0 0 200 200" style="enable-background:new 0 0 200 200;" xml:space="preserve">
<style type="text/css">
	.st0{fill:#FFFFFF;}
	.st1{fill:#B20D35;}
</style>
<desc>Created with Sketch.</desc>
<g id="temple_1_">
	<g id="temple_BGD" transform="translate(0.000000, 0.000000)">
		<g id="temple" transform="translate(4.000000, 0.000000)">
			
				<g id="g10" transform="translate(95.223186, 99.854382) scale(-1, 1) rotate(-180.000000) translate(-95.223186, -99.854382) translate(0.000000, 0.000005)">
				<g id="g12">
					<polyline id="path14" class="st0" points="23.2,185.6 23.2,127.7 35.7,127.7 35.7,172.5 156.3,172.5 156.3,127.7 168.8,127.7 
						168.8,185.6 23.2,185.6 					"/>
					<polyline id="path16" class="st0" points="54.9,54 54.9,41.2 89.1,41.2 89.1,158.7 50.2,158.7 50.2,127.7 62.7,127.7 
						62.7,145.9 76.7,145.9 76.7,54 54.9,54 					"/>
					<polyline id="path18" class="st0" points="54.9,14.1 137.1,14.1 137.1,26.8 54.9,26.8 54.9,14.1 					"/>
					<polyline id="path20" class="st0" points="102.9,41.2 137.1,41.2 137.1,54 115.3,54 115.3,145.9 129.3,145.9 129.3,127.7 
						141.8,127.7 141.8,158.7 102.9,158.7 102.9,41.2 					"/>
					<path id="path22" class="st1" d="M23.2,185.6h145.5v-57.9h-12.5v44.8H35.7v-44.8H23.2V185.6z M141.8,127.7h-12.5v18.2h-14V54
						h21.8V41.2h-34.3v117.5h38.9V127.7z M137.1,14.1H54.9v12.7h82.2V14.1z M62.7,145.9v-18.2H50.2v31h38.9V41.2H54.9V54h21.8v91.9
						H62.7z M8.8,0h174.4v199.7H8.8V0L8.8,0z"/>
				</g>
			</g>
		</g>
	</g>
</g>
</svg>
