<?xml version="1.0" encoding="UTF-8"?>
<svg width="200px" height="200px" viewBox="0 0 200 200" version="1.1" xmlns="http://www.w3.org/2000/svg" xmlns:xlink="http://www.w3.org/1999/xlink">
    <!-- Generator: Sketch 54.1 (76490) - https://sketchapp.com -->
    <title>utep</title>
    <desc>Created with Sketch.</desc>
    <g id="utep" stroke="none" stroke-width="1" fill="none" fill-rule="evenodd">
        <g id="utep_BGL" transform="translate(0.000000, 0.000000)">
            <g id="utep" transform="translate(0.000000, 26.000000)">
                <g id="g10" transform="translate(99.961193, 74.393483) scale(-1, 1) rotate(-180.000000) translate(-99.961193, -74.393483) translate(0.000000, 0.198685)">
                    <g id="g12">
                        <path d="M117.434223,148.045631 L90.6107855,148.35669 L89.0629392,143.402092 C65.1231648,142.422969 23.7771667,127.686764 8.80251433,109.703684 L0,81.1122991 L10.7886998,80.9195168 L3.32131928,51.7466809 C-5.61396959,21.4847647 12.9717343,-3.30083034 57.9349617,16.0096542 L55.7528896,0 L92.9105138,9.64783833 L96.2349995,26.9606202 L167.59953,47.1975153 L172.322231,64.2399674 C172.322231,64.2399674 198.298171,79.1261137 199.666895,114.115635 C199.666895,114.115635 173.512142,135.523474 116.549473,142.7213 L117.434223,148.045631 L117.434223,148.045631" id="path14" fill="#FFFFFF" fill-rule="nonzero"></path>
                        <path d="M81.9048486,107.968643 L79.1506383,107.871786 L57.5407048,107.114316 L46.2277055,58.6784619 C43.7007362,47.7215355 40.7838562,41.9660059 37.5565377,41.5636777 C37.3541318,41.5344964 36.7450515,41.4652687 36.3278221,44.002172 C35.9434993,46.3403947 37.4373293,52.4749696 38.0004647,54.784011 L50.6297232,106.887075 L14.3294059,105.540083 L8.60144332,83.9636766 C8.60144332,83.9636766 16.3682417,84.3228539 19.4791769,84.4672078 C18.254497,79.8168393 11.6997746,54.9212249 11.6997746,54.9212249 C10.5319982,50.2304993 9.37536647,44.6481945 9.37536647,39.2018617 C9.37536647,36.5140852 9.65559929,33.863251 10.3545826,31.3642212 C11.9356458,25.720791 17.5998133,12.8875744 35.9823041,15.6433058 C50.7253383,17.8470465 61.83469,22.2327352 70.5735334,58.8367855 C70.5794317,58.8532387 81.9048486,107.968643 81.9048486,107.968643 L81.9048486,107.968643" id="path16" fill="#B4B3B3"></path>
                        <path d="M112.585484,143.594253 L109.954518,143.54241 L93.9520349,143.223279 C93.9520349,143.223279 92.8273163,139.626849 92.357002,138.127742 C90.0796252,138.131778 81.698407,138.145747 81.698407,138.145747 C81.698407,138.145747 81.0284807,136.302985 80.8800911,135.897552 C80.3088843,135.871165 79.7277434,135.844156 79.7277434,135.844156 C45.2597583,135.07489 22.2877759,115.570661 21.3266273,114.738375 L16.3488393,110.438802 C16.3488393,110.438802 67.4517639,115.067129 73.2547906,115.59146 C73.0384149,114.648348 72.2024041,110.978344 72.2024041,110.978344 C72.2024041,110.978344 83.093828,111.176714 86.6551783,111.2447 C85.5428772,106.257196 63.4908793,7.58646469 63.4908793,7.58646469 L87.0230479,14.9649666 C87.0230479,14.9649666 105.554984,108.376559 106.194487,111.603878 C108.623047,111.64827 117.012647,111.80349 117.012647,111.80349 C117.012647,111.80349 118.06255,115.540238 118.502131,117.115713 C121.621417,117.046175 192.030729,115.515092 192.030729,115.515092 L178.564838,122.532865 L178.510822,122.560804 C170.865964,126.018158 150.945437,134.999453 123.890412,136.361968 C124.109582,137.154207 124.419089,138.255332 124.419089,138.255332 C124.419089,138.255332 114.793633,138.228945 111.510746,138.219942 C111.790762,139.614432 112.585484,143.594253 112.585484,143.594253 L112.585484,143.594253" id="path18" fill="#B4B3B3"></path>
                        <path d="M125.084359,61.9101265 C125.429877,63.7504059 125.633835,64.842218 125.855798,66.0169172 C128.058049,66.3760946 136.877917,67.8087682 136.877917,67.8087682 L140.711211,88.9676346 C140.711211,88.9676346 133.005507,88.0301103 129.90671,87.6572737 C130.073415,88.5528887 130.116256,88.7736105 130.24664,89.4686823 C132.88754,89.6447009 146.495922,90.5809834 146.495922,90.5809834 L150.167167,110.909116 L147.526578,110.799532 L107.745127,109.10609 L103.603878,87.6237464 C103.603878,87.6237464 107.77555,88.0068274 109.147068,88.1344177 C108.248659,83.6836611 103.78952,61.6065177 103.290335,59.1292185 C101.682574,58.9252605 97.6968544,58.4176935 97.6968544,58.4176935 L92.3694195,30.8150245 L144.506011,44.2101658 L148.231273,64.8614652 C148.231273,64.8614652 129.50345,62.4732619 125.084359,61.9101265 L125.084359,61.9101265" id="path20" fill="#B4B3B3"></path>
                        <path d="M173.898948,112.07264 C173.910434,112.07264 154.071242,111.559485 154.071242,111.559485 L152.344893,111.515092 L148.826073,91.5725239 C148.826073,91.5725239 153.05766,91.6485813 154.672251,91.6808669 C153.880012,87.1618139 146.439112,44.8521525 146.439112,44.8521525 L165.244544,50.0709339 C165.244544,50.0709339 168.552576,66.5884345 168.993709,68.7767154 C185.481408,73.3466804 193.521454,93.161969 193.988664,110.12557 L194.047027,112.287774 L191.882029,112.297397 C191.782378,112.297397 181.808921,112.332166 173.898948,112.07264 L173.898948,112.07264" id="path22" fill="#B4B3B3"></path>
                        <path d="M176.673026,93.358787 C175.630263,93.2591362 174.436007,93.161969 173.208533,93.0828071 C172.960182,91.634922 172.645397,89.7999201 172.171047,87.0522291 C173.7161,88.2421398 175.47194,90.1826908 176.673026,93.358787 L176.673026,93.358787" id="path24" fill="#FFFFFF" fill-rule="nonzero"></path>
                        <path d="M176.673026,93.358787 C175.47194,90.1826908 173.7161,88.2421398 172.171047,87.0522291 C172.645397,89.7999201 172.960182,91.634922 173.208533,93.0828071 C174.436007,93.161969 175.630263,93.2591362 176.673026,93.358787 Z M171.406748,95.0938277 L169.374928,83.2549455 C171.237559,84.6947592 177.059833,86.1867266 179.59239,95.7817593 C179.59239,95.7817593 175.897861,95.3490081 172.357,95.1466022 L171.406748,95.0938277 L171.406748,95.0938277 L171.406748,95.0938277 Z" id="path26" fill="#B4B3B3"></path>
                        <path d="M75.4157529,102.920292 L63.9149383,102.516722 C63.9149383,102.516722 58.0513761,77.2883178 53.1247173,55.6578954 C49.2790054,38.766006 39.5272012,39.924252 39.4967782,39.9285981 C38.8712447,39.6402008 38.3040735,39.5262699 37.817306,39.4610778 C35.8159091,39.212727 34.7256491,40.7136971 34.2432277,43.6606896 C33.7632898,46.5719818 35.4095451,53.068528 36.0515319,55.7147056 L47.9168013,104.668992 L43.4871545,101.737211 L21.1213344,100.941247 L18.6761346,91.6001529 L11.3862939,86.2093886 L22.2557697,86.7141616 L28.6177098,90.2674405 L18.9853624,51.8367081 C17.6040353,46.2180819 15.584726,36.863639 17.6538917,29.3919744 C18.7912452,25.2935966 21.0020018,21.1036394 24.8216059,18.274272 C27.7993939,17.3712064 31.3707404,17.0896387 35.6703134,17.7331777 C48.5258816,19.6513771 59.765307,22.6638411 68.5184306,59.3291409 L79.2270062,105.759252 L75.4157529,102.920292 L75.4157529,102.920292" id="path28" fill="#0F2752" fill-rule="nonzero"></path>
                        <path d="M24.5554359,18.3462937 C24.3264876,18.5138315 24.1003331,18.6819055 23.8770968,18.8462937 C24.1019164,18.6819055 24.3264876,18.5138315 24.5554359,18.3462937 L24.5554359,18.3462937" id="path30" fill="#154281"></path>
                        <path d="M42.5092733,42.6399679 C42.5626066,42.7466346 42.62794,42.8359679 42.6826066,42.9013012 C42.62794,42.8359679 42.5626066,42.7466346 42.5092733,42.6399679 L42.5092733,42.6399679" id="path32" fill="#154281"></path>
                        <path d="M13.3066741,30.217182 C13.1296049,30.3826533 12.9683656,30.548164 12.8066741,30.717182 C12.9683656,30.548164 13.1296049,30.3826533 13.3066741,30.217182 L13.3066741,30.217182" id="path34" fill="#154281"></path>
                        <path d="M43.5936349,44.3722146 C43.7429683,44.532032 43.9043016,44.7025038 44.0536349,44.8722146 C43.9043016,44.7025038 43.7429683,44.532032 43.5936349,44.3722146 L43.5936349,44.3722146" id="path36" fill="#154281"></path>
                        <path d="M41.9393082,41.9088853 C42.0459749,42.0462186 42.1526416,42.1888852 42.2726416,42.2915519 C42.1526416,42.1888852 42.0459749,42.0462186 41.9393082,41.9088853 L41.9393082,41.9088853" id="path38" fill="#154281"></path>
                        <path d="M40.9238639,40.8689163 C40.9651973,40.8982497 41.0131973,40.951583 41.0545306,40.987583 C41.0131973,40.951583 40.9651973,40.8982497 40.9238639,40.8689163 L40.9238639,40.8689163" id="path40" fill="#154281"></path>
                        <path d="M43.0112523,43.3930917 C43.1485857,43.5694402 43.2912523,43.7312659 43.421919,43.8930917 C43.2845856,43.7312659 43.1485857,43.5694402 43.0112523,43.3930917 L43.0112523,43.3930917" id="path42" fill="#154281"></path>
                        <path d="M45.8629403,49.6040345 C46.0333438,49.7719971 46.1936577,49.9352942 46.3629403,50.1040345 C46.1936577,49.9352942 46.0333438,49.7719971 45.8629403,49.6040345 L45.8629403,49.6040345" id="path44" fill="#154281"></path>
                        <path d="M47.6507555,55.5802858 C47.813224,55.7449545 47.9819898,55.9112006 48.1507555,56.0802858 C47.9819898,55.9112006 47.813224,55.7449545 47.6507555,55.5802858 L47.6507555,55.5802858" id="path46" fill="#154281"></path>
                        <path d="M46.4925095,51.493984 C46.6552699,51.6606506 46.8297491,51.8328729 46.9925095,51.993984 C46.8297491,51.8328729 46.6552699,51.6606506 46.4925095,51.493984 L46.4925095,51.493984" id="path48" fill="#154281"></path>
                        <path d="M44.1415588,45.4289473 C44.2615588,45.6048555 44.3802255,45.7673794 44.5002255,45.9289473 C44.3802255,45.7673794 44.2615588,45.6048555 44.1415588,45.4289473 L44.1415588,45.4289473" id="path50" fill="#154281"></path>
                        <path d="M45.3441975,48.193402 C45.4508642,48.3489575 45.5588642,48.5370528 45.6655309,48.693402 C45.5588642,48.5370528 45.4508642,48.3489575 45.3441975,48.193402 L45.3441975,48.193402" id="path52" fill="#154281"></path>
                        <path d="M44.7115239,46.6607672 C44.8815463,46.8243772 45.0470944,46.990883 45.2115239,47.1607672 C45.0470944,46.990883 44.8815463,46.8243772 44.7115239,46.6607672 L44.7115239,46.6607672" id="path54" fill="#154281"></path>
                        <path d="M19.7176867,20.7733018 C19.541606,20.9385368 19.3654322,21.103164 19.1962432,21.2733018 C19.3654322,21.103164 19.541606,20.9385368 19.7176867,20.7733018 L19.7176867,20.7733018" id="path56" fill="#154281"></path>
                        <path d="M16.2565848,24.3877371 C16.0893567,24.5563369 15.9168043,24.7137934 15.7565848,24.8877371 C15.9168043,24.7137934 16.0893567,24.5563369 16.2565848,24.3877371 L16.2565848,24.3877371" id="path58" fill="#154281"></path>
                        <path d="M18.2565847,22.0423433 C18.0828117,22.2048045 17.9249789,22.3750265 17.7565847,22.5423433 C17.9249789,22.3750265 18.0828117,22.2048045 18.2565847,22.0423433 L18.2565847,22.0423433" id="path60" fill="#154281"></path>
                        <path d="M17.1914082,23.1145667 C17.0228831,23.282985 16.8528585,23.4457443 16.6914082,23.6145667 C16.8528585,23.4457443 17.0228831,23.282985 17.1914082,23.1145667 L17.1914082,23.1145667" id="path62" fill="#154281"></path>
                        <path d="M15.2595185,25.8591534 C15.0859508,26.0259119 14.9226477,26.1931867 14.7595185,26.3591534 C14.9226477,26.1931867 15.0859508,26.0259119 15.2595185,25.8591534 L15.2595185,25.8591534" id="path64" fill="#154281"></path>
                        <path d="M47.0457109,53.3485435 C47.1950442,53.5133925 47.3443776,53.6727885 47.4923775,53.8485435 C47.3443776,53.6782415 47.1950442,53.5133925 47.0457109,53.3485435 L47.0457109,53.3485435" id="path66" fill="#154281"></path>
                        <path d="M21.0465187,19.8997279 C20.8522463,20.060226 20.6648967,20.2330466 20.4791303,20.3997279 C20.6648967,20.2330466 20.8507872,20.060226 21.0465187,19.8997279 L21.0465187,19.8997279" id="path68" fill="#154281"></path>
                        <path d="M13.8378344,28.8468755 C13.6697211,29.0089087 13.5113154,29.183099 13.3378344,29.3468755 C13.5113154,29.183099 13.6697211,29.0089087 13.8378344,28.8468755 L13.8378344,28.8468755" id="path70" fill="#154281"></path>
                        <path d="M22.8827002,18.9817302 C22.6996036,19.1367363 22.5097084,19.3048102 22.3307096,19.4817302 C22.5097084,19.3048102 22.6996036,19.1367363 22.8827002,18.9817302 L22.8827002,18.9817302" id="path72" fill="#154281"></path>
                        <path d="M14.5576481,27.2005892 C14.39013,27.3622651 14.2155507,27.5338298 14.0576481,27.7005892 C14.2155507,27.5338298 14.39013,27.3622651 14.5576481,27.2005892 L14.5576481,27.2005892" id="path74" fill="#154281"></path>
                        <polyline id="path76" fill="#0F2752" points="122.471398 59.4455554 124.049667 67.8696141 135.063714 69.6586711 137.557156 83.4213406 123.753198 82.0290239 127.296543 85.2076036 128.468759 91.4654226 144.708417 92.5792759 147.616605 108.684514 147.120214 105.936823 113.60217 104.494526 111.818701 95.114627 106.21094 89.9883563 111.783932 90.4990276 117.26224 94.2674404 109.21226 54.6536269 103.699493 53.9421019 101.043381 40.0186253 95.0767535 33.6928203 142.665421 45.9213027 145.075976 59.283196 119.292818 55.9298395 122.471398 59.4455554 122.471398 59.4455554"></polyline>
                        <polyline id="path78" fill="#F36432" fill-rule="nonzero" points="137.557156 83.4213406 138.117808 86.5213793 127.296543 85.2076036 123.753198 82.0290239 137.557156 83.4213406 137.557156 83.4213406"></polyline>
                        <path d="M184.089091,100.135349 C181.317807,82.8929743 173.372134,79.7473011 165.080943,78.8833508 L169.374928,83.2549455 L171.406748,95.0938277 L172.357,95.1466022 C175.897861,95.3490081 179.59239,95.7817593 179.59239,95.7817593 L184.089091,100.135349 L184.089091,100.135349 Z M157.626073,106.91905 L155.339073,93.8051975 L157.19891,93.840277 L161.513694,96.9272774 L154.086764,53.5397736 L149.102053,47.7867276 L163.4291,51.7634446 L167.173919,70.4537041 C182.245708,73.7418685 190.561734,90.9957292 191.742021,107.655411 C188.199918,107.645477 182.313694,107.602636 177.233368,107.433447 L157.626073,106.91905 L157.626073,106.91905 L157.626073,106.91905 Z" id="path80" fill="#0F2752"></path>
                        <path d="M191.747609,107.71905 C191.972424,108.542954 192.154243,109.365306 192.247609,110.18238 C192.154243,109.365306 191.961368,108.542954 191.747609,107.71905 L191.747609,107.71905" id="path82" fill="#154281"></path>
                        <polyline id="path84" fill="#F36432" points="145.636007 62.4024819 122.471398 59.4455554 119.292818 55.9298395 145.075976 59.283196 145.075976 59.283196 145.636007 62.4024819 145.636007 62.4024819"></polyline>
                        <path d="M169.374928,83.2549455 L165.080943,78.8833508 C173.372134,79.7473011 181.317807,82.8929743 184.089091,100.135349 L179.59239,95.7817593 C177.059833,86.1867266 171.237559,84.6947592 169.374928,83.2549455 L169.374928,83.2549455" id="path86" fill="#F36432" fill-rule="nonzero"></path>
                        <polyline id="path88" fill="#F36432" fill-rule="nonzero" points="161.513694 96.9272774 157.19891 93.840277 149.102053 47.7867276 154.086764 53.5397736 161.513694 96.9272774 161.513694 96.9272774"></polyline>
                        <path d="M53.1247173,55.6578954 C58.0513761,77.2883178 63.9149383,102.516722 63.9149383,102.516722 L75.4157529,102.920292 L79.2270062,105.759252 L59.2313528,105.061697 C59.2313528,105.061697 53.283041,79.8345343 48.2899483,58.2028701 C48.1179654,57.4578177 47.9444303,56.7587103 47.7739996,56.0723308 C47.7324008,55.9059357 47.6908021,55.7423347 47.6507555,55.5802858 C47.4828083,54.9339528 47.317655,54.312455 47.1497078,53.7185862 C47.1152491,53.5885124 47.08048,53.4705458 47.0457109,53.3485435 C46.9004257,52.8434601 46.7573135,52.357003 46.6117179,51.8851365 C46.5729131,51.7590984 46.5313143,51.6243681 46.4925095,51.493984 C46.3289084,50.9780352 46.1653073,50.4788501 46.0013958,50.0032584 C45.9545196,49.8685281 45.9101269,49.7381439 45.8629403,49.6040345 C45.7157924,49.1864947 45.5674028,48.7745428 45.4190132,48.3889782 C45.3941781,48.3278218 45.3690326,48.2542479 45.3441975,48.193402 C45.1805965,47.7674804 45.0154432,47.3639103 44.8502899,46.9823814 C44.8046555,46.8731071 44.7587106,46.7660058 44.7115239,46.6607672 C44.549475,46.2876201 44.3871157,45.9337202 44.2250668,45.5913066 C44.1971273,45.5388425 44.1694983,45.4860679 44.1415588,45.4289473 C43.9931693,45.1281324 43.8475736,44.8478064 43.7007362,44.5761727 C43.6659671,44.5069449 43.628404,44.4374067 43.5936349,44.3722146 C43.4287921,44.0797816 43.2679849,43.8034913 43.1068674,43.542723 C43.0764444,43.4942946 43.0432275,43.4458662 43.0112523,43.3930917 C42.8560331,43.149087 42.7005034,42.9174999 42.5496303,42.7008138 C42.5369023,42.6856023 42.5216908,42.664803 42.5092733,42.6399679 C42.3428783,42.4127269 42.177725,42.2016287 42.0169178,41.9979811 C41.9889784,41.9740773 41.9641433,41.9408604 41.9393082,41.9088853 C41.602172,41.5136971 41.2749699,41.1725252 40.9542869,40.8965453 C40.9446633,40.8881635 40.9334875,40.875746 40.9238639,40.8689163 C40.4231267,40.4374068 39.9447409,40.1365919 39.4955365,39.9285981 L39.4967782,39.9285981 C39.5272012,39.924252 49.2790054,38.766006 53.1247173,55.6578954 L53.1247173,55.6578954" id="path90" fill="#F36432"></path>
                        <polyline id="path92" fill="#F36432" fill-rule="nonzero" points="103.699493 53.9421019 109.21226 54.6536269 117.26224 94.2674404 111.783932 90.4990276 105.062628 57.2221949 99.4803235 56.5106699 95.0767535 33.6928203 101.043381 40.0186253 103.699493 53.9421019 103.699493 53.9421019"></polyline>
                        <path d="M17.6538917,29.3919744 C15.584726,36.863639 17.6040353,46.2180819 18.9853624,51.8367081 L28.6177098,90.2674405 L22.2557697,86.7141616 L13.7441673,54.3888229 C12.3475666,48.7674027 10.2977103,39.4086137 12.3906244,31.9369802 C12.5152655,31.4946053 12.6569186,31.0550244 12.8066741,30.6110664 C12.8510668,30.4779193 12.8953353,30.3475351 12.94395,30.217182 C13.0660765,29.8719434 13.2004343,29.530461 13.3378344,29.1852224 C13.38499,29.0743959 13.4280478,28.9565224 13.4737443,28.8468755 C13.6539539,28.4280319 13.8495612,28.0093125 14.0576481,27.5914312 C14.1229022,27.4610781 14.1950482,27.3269687 14.2642759,27.2005892 C14.4209542,26.8998674 14.5861075,26.6029951 14.7595185,26.3100343 C14.8468448,26.1603719 14.9342643,26.0095298 15.0271785,25.8591534 C15.2573376,25.4848267 15.5001005,25.1200615 15.7565848,24.7624363 C15.8481331,24.6320832 15.9467284,24.5140855 16.0422813,24.3877371 C16.2518273,24.1117262 16.4653779,23.8428865 16.6914082,23.5753816 C16.8217613,23.4197899 16.9590372,23.269786 17.0951024,23.1145667 C17.308653,22.8830728 17.5305545,22.6554593 17.7565847,22.4323471 C17.8897318,22.3018388 18.0145281,22.1690642 18.1519281,22.0423433 C18.4833523,21.7374927 18.8329371,21.4407445 19.1962432,21.1563829 C19.3654322,21.0260297 19.541606,20.8998986 19.7176867,20.7733018 C19.9660375,20.5944271 20.2197279,20.4236859 20.4791303,20.2536898 C20.6648967,20.1356922 20.8522463,20.0133484 21.0465187,19.8997279 C21.4583464,19.6557232 21.8840817,19.4282339 22.3307096,19.2133484 C22.5097084,19.1313926 22.6996036,19.0535346 22.8827002,18.9817302 C23.2072326,18.8386491 23.537415,18.7042913 23.8770968,18.5779118 C24.1003331,18.5017613 24.3264876,18.4239033 24.5554359,18.3462937 C24.6593707,18.31466 24.753713,18.274272 24.8563129,18.2450597 C24.8452613,18.2534105 24.8327817,18.2659212 24.8216059,18.274272 C21.0020018,21.1036394 18.7912452,25.2935966 17.6538917,29.3919744 L17.6538917,29.3919744" id="path94" fill="#F36432"></path>
                        <path d="M123.930459,132.173532 L104.133486,131.818701 L108.92945,136.098716 L109.997669,141.426461 L104.638259,137.316256 L97.8188567,137.180284 L96.2101645,132.050288 L85.4807895,132.069535 L84.6913444,129.893672 L82.129606,129.772911 C47.8463317,128.704692 22.7079544,113.137754 22.7079544,113.137754 L76.3548293,117.996427 L81.4239793,123.574386 L80.408535,118.502442 L74.8637932,113.139306 L89.3057021,113.408146 L95.94505,119.538375 L73.5975147,17.0136123 L66.3521908,10.7001938 L85.1933234,16.611253 L104.452306,113.68692 L115.402403,113.888084 L116.909892,119.2655 L183.023666,117.825686 C183.023666,117.825686 158.748308,128.873881 123.440897,130.42328 L123.930459,132.173532 L123.930459,132.173532" id="path96" fill="#0F2752" fill-rule="nonzero"></path>
                        <polyline id="path98" fill="#F36432" fill-rule="nonzero" points="95.94505 119.538375 89.3057021 113.408146 66.3521908 10.7001938 73.5975147 17.0136123 95.94505 119.538375 95.94505 119.538375"></polyline>
                        <polyline id="path100" fill="#154281" points="75.6054308 116.397048 75.4613873 115.760649 76.3548293 117.996427 75.6054308 116.397048 75.6054308 116.397048"></polyline>
                        <path d="M104.133486,131.818701 L123.930459,132.173532 L123.440897,130.42328 C158.748308,128.873881 183.023666,117.825686 183.023666,117.825686 L177.639732,120.632981 C168.925723,124.57586 148.716488,133.535425 121.138685,134.383543 L121.628247,136.133175 L108.92945,136.098716 L104.133486,131.818701 L104.133486,131.818701" id="path102" fill="#F36432"></path>
                        <path d="M84.6913444,129.893672 L85.4807895,132.069535 L96.2101645,132.050288 L97.8188567,137.180284 L104.638259,137.316256 L109.997669,141.426461 L95.5150927,141.138685 L93.908884,136.00962 L83.1770255,136.027936 L82.3863386,133.851762 L79.8301881,133.733175 C51.3036852,133.891809 22.7079544,113.137754 22.7079544,113.137754 C22.7079544,113.137754 47.8463317,128.704692 82.129606,129.772911 L84.6913444,129.893672 L84.6913444,129.893672" id="path104" fill="#F36432" fill-rule="nonzero"></path>
                        <polyline id="path106" fill="#F36432" fill-rule="nonzero" points="81.4239793 123.574386 76.3548293 117.996427 75.4613873 115.760649 74.834612 114.196039 74.8637932 113.139306 80.408535 118.502442 81.4239793 123.574386 81.4239793 123.574386"></polyline>
                        <polyline id="path108" fill="#F36432" fill-rule="nonzero" points="113.60217 104.494526 147.120214 105.936823 147.616605 108.684514 109.505314 107.065888 106.21094 89.9883563 111.818701 95.114627 113.60217 104.494526 113.60217 104.494526"></polyline>
                        <polyline id="path110" fill="#F36432" fill-rule="nonzero" points="21.1213344 100.941247 43.4871545 101.737211 47.9168013 104.668992 15.9716876 103.483428 11.3862939 86.2093886 18.6761346 91.6001529 21.1213344 100.941247 21.1213344 100.941247"></polyline>
                        <path d="M173.968486,109.959175 L154.127121,109.444468 L151.354284,93.731934 L155.339073,93.8051975 L155.339073,93.8051975 L157.626073,106.91905 L177.233368,107.433447 C182.313694,107.602636 188.199918,107.645477 191.742021,107.655411 L191.744815,107.655411 C191.744815,107.674658 191.747609,107.697009 191.747609,107.71905 C191.801625,108.542954 191.850364,109.365306 191.873957,110.18238 C191.873957,110.18238 181.930612,110.222426 173.968486,109.959175 L173.968486,109.959175" id="path112" fill="#F36432"></path>
                        <path d="M109.783777,17.2575859 L108.394254,17.2575859 L108.394254,13.4103217 L107.595186,13.4103217 L107.595186,17.2575859 L106.205663,17.2575859 L106.205663,17.9138839 L109.783777,17.9138839 L109.783777,17.2575859 Z M113.08498,14.6005429 L114.354052,17.9138839 L115.578422,17.9138839 L115.578422,13.4103217 L114.778111,13.4103217 L114.778111,17.0719437 L114.758864,17.0719437 L113.34699,13.4103217 L112.800618,13.4103217 L111.389986,17.0719437 L111.367944,17.0719437 L111.367944,13.4103217 L110.570118,13.4103217 L110.570118,17.9138839 L111.79635,17.9138839 L113.08498,14.6005429 L113.08498,14.6005429 L113.08498,14.6005429 Z" id="path114" fill="#154281" fill-rule="nonzero"></path>
                    </g>
                </g>
            </g>
        </g>
    </g>
</svg>