<?xml version="1.0" encoding="UTF-8"?>
<svg width="200px" height="200px" viewBox="0 0 200 200" version="1.1" xmlns="http://www.w3.org/2000/svg" xmlns:xlink="http://www.w3.org/1999/xlink">
    <title>vanderbilt_BGL</title>
    <g id="vanderbilt_BGL" stroke="none" stroke-width="1" fill="none" fill-rule="evenodd">
        <g id="vanderbilt" transform="translate(0.000000, 30.000000)">
            <path d="M172.381865,26.687305 L122.43153,132.815972 L77.5747876,132.815972 L27.6223469,26.687305 C23.4687108,17.7573735 20.2515207,12.3570849 16.5113528,7.58078952 L65.9408158,7.58078952 C61.9942648,12.9804463 61.8903712,20.5610954 67.3946235,32.1915572 L100.001053,101.558754 L132.608184,32.1915572 C138.111735,20.5603934 138.007841,12.9790423 134.061992,7.58078952 L183.491455,7.58078952 C179.753393,12.3570849 176.531991,17.7573735 172.380461,26.687305 L172.381865,26.687305 Z M119.109745,0 L119.109745,1.55770128 C130.8441,8.0994851 131.363568,16.8223315 125.65223,28.9722611 L100.002457,83.4904021 L74.3533855,28.9722611 C68.6420481,16.8223315 69.1587079,8.0994851 80.8951693,1.55770128 L80.8951693,0 L0,0 L0,1.55770128 C7.99559154,6.95735802 12.2531212,11.9415107 19.9363301,28.2450765 L72.6889827,140.396691 L127.311017,140.396691 L180.06367,28.2450765 C187.747581,11.9415107 192.00511,6.95735802 200,1.55770128 L200,0 L119.109745,0 L119.109745,0 Z" id="Fill-1" fill="#1A1919"></path>
            <path d="M172.379759,26.6870242 L122.430828,132.815972 L77.5740856,132.815972 L27.6219959,26.6870242 C23.4683599,17.7570927 20.2511697,12.3568042 16.5110018,7.58050873 L65.9404648,7.58050873 C61.9939138,12.9801655 61.8900203,20.5608146 67.3942725,32.1912765 L100.000351,101.558754 L132.607482,32.1912765 C138.111033,20.5601126 138.007139,12.9787615 134.06129,7.58050873 L183.490753,7.58050873 C179.752691,12.3568042 176.531289,17.7570927 172.379759,26.6870242" id="Fill-2" fill="#C5A96E"></path>
        </g>
    </g>
</svg>