<?xml version="1.0" encoding="UTF-8"?>
<svg width="200px" height="200px" viewBox="0 0 200 200" version="1.1" xmlns="http://www.w3.org/2000/svg" xmlns:xlink="http://www.w3.org/1999/xlink">
    <title>akron_BGL</title>
    <g id="akron_BGL" stroke="none" stroke-width="1" fill="none" fill-rule="evenodd">
        <g id="akron-bgl" transform="translate(0.000000, 45.000000)">
            <path d="M101.362483,22.3227423 L123.120568,55.1998662 L79.6050812,55.1998662 L101.362483,22.3227423 Z M174.574032,86.8978325 L115.943889,0 L53.6704436,0 L38.7039509,22.2216912 L72.5424261,22.2216912 L28.9559301,86.8978325 L14.9664927,86.8978325 L0,109.119524 L73.0947935,109.119524 L87.7349183,86.8978325 L58.6280943,86.8978325 L65.8894378,75.9249081 L126.061293,75.9249081 L131.497571,67.8585694 L144.096873,86.8978325 L128.250962,86.8978325 L113.284469,109.119524 L185.359875,109.119524 L200,86.8978325 L174.574032,86.8978325 L174.574032,86.8978325 Z" id="Fill-1" fill="#BEB07D"></path>
            <path d="M72.1047654,59.2303044 L99.263624,18.1912529 L103.462026,18.1912529 L130.620884,59.2303044 L72.1047654,59.2303044 Z M172.431475,90.9282708 L113.923549,4.21069162 L113.801332,4.03043824 L55.8150491,4.03043824 L46.2773239,18.1912529 L80.1185303,18.1912529 L31.0998529,90.9282708 L17.1110982,90.9282708 L7.57337303,105.089085 L70.9235596,105.089085 L80.2530375,90.9282708 L51.1277785,90.9282708 L63.7236661,71.8944698 L123.91737,71.8944698 L131.528296,60.6026881 L151.597188,90.9282708 L130.395567,90.9282708 L120.858525,105.089085 L183.188641,105.089085 L192.518119,90.9282708 L172.431475,90.9282708 L172.431475,90.9282708 Z" id="Fill-2" fill="#0F192B"></path>
        </g>
    </g>
</svg>