<?xml version="1.0" encoding="UTF-8"?>
<svg width="200px" height="200px" viewBox="0 0 200 200" version="1.1" xmlns="http://www.w3.org/2000/svg" xmlns:xlink="http://www.w3.org/1999/xlink">
    <!-- Generator: Sketch 54.1 (76490) - https://sketchapp.com -->
    <title>alabama-am</title>
    <desc>Created with Sketch.</desc>
    <g id="alabama-am" stroke="none" stroke-width="1" fill="none" fill-rule="evenodd">
        <g id="alabama-am_BGL" fill="#5F1316">
            <g id="alabama-am" transform="translate(19.000000, 0.000000)">
                <g id="g10">
                    <g transform="translate(80.572673, 99.989888) scale(-1, 1) rotate(-180.000000) translate(-80.572673, -99.989888) translate(0.000000, 0.151394)">
                        <g id="g12" transform="translate(0.000000, 0.234914)">
                            <path d="M47.3447603,86.0555616 C68.5922253,85.1545355 93.5462911,85.1545355 114.793498,86.0555616 C103.590932,116.803208 92.4046086,147.568864 80.53374,177.639957 C69.6245869,146.955999 58.2670629,116.726469 47.3447603,86.0555616 Z M99.8049185,197.69092 C99.8049185,195.703808 99.8049185,193.716956 99.8049185,191.729844 C97.104896,192.20176 95.1902315,192.187665 93.3810205,190.645846 C93.2459162,183.282072 97.3057476,176.676287 99.8049185,170.053015 C114.766426,130.402124 130.010776,88.4644752 145.306434,48.6632396 C147.742178,42.3249961 148.776344,34.661837 154.406634,30.2384044 C157.637276,29.6777428 158.673247,33.6167303 160.830274,32.4056176 C160.579919,25.1635551 156.055731,19.5166376 152.265335,15.0644672 C150.416675,12.892843 147.927818,10.5155644 145.841436,8.56162722 C143.862314,6.70729359 141.431984,4.19715809 138.882536,4.22589591 C137.678974,7.43424833 140.83536,9.58632254 141.023835,12.8968365 C141.264651,17.1278222 137.573778,23.5689059 135.670716,28.6122768 C130.170632,43.189219 123.845999,60.4726326 118.540579,74.1334098 C93.3812783,74.1334098 68.22172,74.1334098 43.0621616,74.1334098 C38.4136985,62.0992823 32.0756587,45.604919 27.0030611,31.86401 C24.7633986,25.7980319 21.3100668,20.6458175 22.1850731,13.4386267 C22.6343721,9.73854688 26.1893415,8.00613367 23.7909831,4.22589591 C21.0223256,5.32636408 18.5781504,7.87797497 16.296719,10.1871545 C11.9547673,14.5827106 9.2103718,18.4731753 5.59053168,24.2773024 C4.24335659,26.4372332 1.19932359,28.8516282 2.91402351,31.86401 C5.42685957,33.878007 5.55760646,29.7336001 8.26706562,30.2384044 C11.0526627,32.4870544 11.8912116,36.2498564 13.0848989,39.4506915 C31.3954965,88.5503493 50.5509081,139.851152 68.22172,190.104238 C67.3376121,192.684117 63.6622091,191.323965 62.3333401,192.271713 C62.3333401,194.078202 62.3333401,195.884691 62.3333401,197.69092 C73.8860433,199.595551 90.0273925,199.815065 99.8049185,197.69092 L99.8049185,197.69092 Z" id="path14"></path>
                            <path d="M28.6088422,174.930353 C30.4304292,170.249298 24.1874007,168.38643 23.255697,164.633807 C21.8958365,159.156915 23.255697,150.266461 23.255697,142.41537 C23.255697,127.899245 23.255697,113.494834 23.255697,98.5198429 C23.255697,91.1161334 24.1906236,82.9231125 23.255697,76.8430135 C22.566098,72.3577202 20.0037839,67.3764971 18.437941,63.2952561 C16.6273893,58.5760928 14.7386627,54.298568 13.0848989,50.2891062 C10.8417557,50.8296697 9.90762837,54.3069205 9.33776686,56.2504431 C8.60134553,58.7606308 7.97156373,61.8708936 7.73175368,64.3789932 C5.27932778,90.0337014 9.56981616,123.677577 7.73175368,150.544181 C5.80192859,153.109443 1.86122874,150.069133 0.237488017,151.08605 C-0.875522,155.208009 2.15612472,157.649289 4.51993357,159.756729 C11.3314313,165.828737 19.5849091,170.975966 27.5383215,176.01409 C28.014796,175.773956 28.4956537,175.538259 28.6088422,174.930353" id="path16"></path>
                            <path d="M132.994156,175.472222 C133.529416,175.472222 134.064677,175.472222 134.600195,175.472222 C142.468729,171.145887 149.279634,165.726419 156.012415,159.756729 C158.071981,157.930403 162.15476,156.245286 160.830274,152.169787 C160.020164,149.431994 156.62451,153.858036 154.406634,151.627918 C152.028129,126.510641 155.735245,93.0453002 153.871374,68.1725949 C153.384586,61.6811352 151.940466,53.88277 147.982736,50.2891062 C145.828803,57.1953199 143.820803,62.9029495 141.023835,70.340069 C140.316343,72.22147 138.689935,74.2615685 138.347276,76.3011449 C137.313883,82.4519792 138.347276,90.6726678 138.347276,98.5198429 C138.347276,113.157863 138.347276,127.623351 138.347276,142.957239 C138.347276,150.491978 139.672277,159.126116 138.347276,164.633807 C137.414437,168.511978 131.348411,170.144631 132.994156,175.472222" id="path18"></path>
                            <path d="M74.1100998,109.358258 C79.4632193,109.358258 84.8165966,109.358258 90.1692004,109.358258 C87.4183849,116.689144 85.0179638,124.37475 81.6045186,131.034826 C79.124943,123.790597 76.2142713,116.982525 74.1100998,109.358258 Z M88.5634192,145.124713 C89.1040941,142.771396 87.3809991,142.709274 86.4221199,141.873241 C90.9133051,130.671492 94.7707379,118.472925 99.2696581,106.648654 C100.756578,102.740988 101.801058,98.4900871 103.552257,95.2683707 C104.670219,93.2115672 107.351935,91.908577 107.299337,89.3072948 C103.476712,89.761201 94.0818094,88.1000973 92.3104997,89.8491633 C91.9624258,92.5498925 95.8219213,90.9911069 95.5223198,93.6427651 C95.1319613,96.4987985 93.703569,98.304505 92.8460179,100.687578 C85.7086972,100.687578 78.5711186,100.687578 71.4335401,100.687578 C69.6207194,99.271307 68.9387523,96.7104823 68.22172,94.1846336 C67.9571838,91.3878507 71.6189217,92.5658144 71.9690583,90.3912929 C70.8864194,88.377818 67.103758,89.3495793 64.4746395,89.3072948 C61.5283869,89.2597899 58.3761261,89.344098 55.9096999,89.3072948 C55.5059341,92.7868947 58.9142226,92.4071169 59.6567804,94.7265021 C64.7273154,110.728329 70.9343763,125.579337 76.2513992,141.331372 C76.8761274,143.770303 73.2605416,141.916308 74.1100998,144.582844 C77.9110673,145.792652 83.8842741,144.803664 88.5634192,145.124713 L88.5634192,145.124713 Z" id="path20"></path>
                            <path d="M93.3810205,70.340069 C99.8603525,69.673696 109.007994,71.7083132 113.723235,69.256332 C114.065895,66.9220688 111.740245,67.2893179 109.975897,67.0885968 C111.327455,56.5346892 114.917516,48.2466586 118.540579,39.9928211 C120.648102,39.3794342 122.260329,41.6273012 122.823435,39.4506915 C123.415161,36.1237858 119.203208,34.2533475 116.935056,32.4056176 C114.363434,30.3114888 111.974357,27.1192672 108.369858,26.9866712 C106.711737,29.9058705 110.591601,30.0285478 110.511157,32.9474861 C107.415104,43.3617503 103.520028,52.966344 100.340437,63.2952561 C97.0780814,60.9829183 96.4855822,56.598638 94.9873173,52.9989709 C90.7196729,42.7462754 86.2117285,31.3725175 81.6045186,21.0256214 C78.1645167,23.1400572 77.617396,27.8937007 76.2513992,31.3218805 C72.0972011,41.7478904 67.3626219,53.3226304 62.3333401,63.2952561 C58.1270599,53.8245635 55.1235685,43.1370158 51.6271012,32.9474861 C51.8465167,30.3321091 55.4144036,29.8933417 53.7684006,26.9866712 C50.2817309,27.2964968 47.1129689,30.3514242 44.6682006,32.4056176 C42.2711314,34.4198755 38.4178239,36.8494093 39.3150811,40.5346896 C40.8576933,42.1046989 40.9894457,39.4794032 43.0621616,39.9928211 C47.9782549,46.5766803 49.2442128,56.8562605 52.697622,64.9211227 C52.6904027,67.9844026 47.9779971,66.2846686 48.4152811,69.7982005 C54.1538602,71.0335877 62.1337777,70.0002266 68.7572382,70.340069 C73.1919581,61.1011584 76.5943165,50.8168799 80.53374,41.0765581 C80.9674144,40.9734569 81.0674534,40.5331235 81.6045186,40.5346896 C81.5338725,42.9446473 83.3198786,45.1476196 84.2810784,47.5795026 C87.1816946,54.9184802 89.7865769,63.5633192 93.3810205,70.340069" id="path22"></path>
                            <path d="M128.176555,39.4506915 C128.301604,33.1432478 133.193976,29.5284418 132.994156,24.81891 C132.738902,18.8001757 122.843288,12.0140554 116.935056,8.56162722 C105.34213,1.78714298 91.5746456,-1.11431244 71.4335401,0.432510797 C62.7012672,1.10330019 52.7164437,4.70277154 45.7387214,8.56162722 C39.4311058,12.0495535 28.5789336,19.4811395 28.0735818,24.2773024 C27.7652141,27.2035752 33.1956833,36.1209146 33.9619617,39.4506915 C45.9284861,28.6592596 57.4884086,17.6663758 78.3926985,16.1483087 C98.067385,14.7194567 113.555644,24.0612598 122.823435,34.5733527 C124.209027,36.1451891 125.567032,38.7887558 128.176555,39.4506915" id="path24"></path>
                        </g>
                    </g>
                </g>
            </g>
        </g>
    </g>
</svg>