<?xml version="1.0" encoding="UTF-8"?>
<svg width="200px" height="200px" viewBox="0 0 200 200" version="1.1" xmlns="http://www.w3.org/2000/svg" xmlns:xlink="http://www.w3.org/1999/xlink">
    <!-- Generator: Sketch 54.1 (76490) - https://sketchapp.com -->
    <title>alabama-st</title>
    <desc>Created with Sketch.</desc>
    <defs>
        <path d="M11.6449994,0.0363479211 C13.9215271,-0.175727168 16.5041425,2.73128664 15.0638903,2.83459126 C7.92002071,3.34865472 12.9923321,19.0982363 4.48473222,20.2370467 C2.6810008,20.4783641 -7.86754852,1.85511044 11.6449994,0.0363479211 Z" id="path-1"></path>
        <path d="M4.55852124,31.927686 C13.3943456,36.0907528 23.579689,33.5515908 31.8123565,29.9550597 C31.8123565,29.9550597 59.5777955,19.0402982 80.6038381,0.0169441437 C66.6798514,11.0678053 50.5851012,17.6418598 34.1189464,22.9360848 C23.2235887,26.162851 11.8647267,27.9993776 0.0185838995,28.3371673 C0.6386849,30.029122 3.11334976,31.1651995 4.55852124,31.927686 Z" id="path-3"></path>
        <path d="M0.396820913,18.4674769 C6.4163646,9.33185049 28.1731917,5.61889668 30.7536208,5.86431347 C30.5664153,4.35847102 27.9387066,0.157143268 27.0529651,0.0852673037 C15.9589237,-0.825343773 1.58154451,6.32399169 0.633765632,8.36822064 C0.0784349877,11.1962529 -0.287230565,15.5366866 0.396820913,18.4674769 L0.396820913,18.4674769 Z" id="path-5"></path>
        <path d="M3.709401,28.1117008 C3.709401,28.1117008 5.04908153,17.0589266 29.8875564,6.4461535 C29.9075068,5.76510824 29.3969961,5.22699503 29.7681275,4.54649636 C30.5929247,3.47218299 31.0873111,2.15026649 31.8708411,1.05572947 C31.9326052,0.766859148 31.623238,0.354733847 31.4789395,0.0666834042 C29.6413197,-0.612995392 4.83946607,4.26773787 0.0177640216,19.4149824 C0.226013013,22.0776726 3.37953679,27.7818366 3.709401,28.1117008 L3.709401,28.1117008 Z" id="path-7"></path>
        <path d="M0.00792548656,9.55185106 C9.64422398,4.77278267 21.9907656,5.77494678 21.9907656,5.77494678 C21.907138,4.30927835 22.0604552,2.57086387 21.5851993,1.27108407 C10.4971703,-1.88981861 3.13794609,1.95294921 3.13794609,1.95294921 C1.86002971,3.9545445 0.666287456,7.28106252 0.00792548656,9.55185106 Z" id="path-9"></path>
        <path d="M5.12860968,31.0495967 C7.54369674,31.7295488 9.97490807,31.8369528 12.6783189,31.7317351 C11.9502673,21.5723545 24.8518662,6.70687468 30.9673356,3.96055694 C30.9673356,3.96055694 27.3123199,0.90787815 25.2885879,0.0631305999 C23.3692537,-0.905418517 3.40631947,10.7524256 0.0202236554,26.1360683 C1.0953569,28.1991545 3.02288989,29.8952086 5.12860968,31.0495967 L5.12860968,31.0495967 Z" id="path-11"></path>
        <path d="M0.0101118277,4.49074466 C8.01020728,2.80589554 15.1456048,5.63775387 15.1456048,5.63775387 C15.495966,5.55467291 15.4331087,3.40768593 15.1016047,2.8925293 C12.6482567,0.449566393 5.03323055,-0.568175399 2.49570839,0.320298974 C1.52633939,1.02293435 0.2784852,3.07864159 0.0101118277,4.49074466 L0.0101118277,4.49074466 Z" id="path-13"></path>
        <path d="M7.90662937,5.0684853 C8.36056844,5.08816237 8.54613415,4.42761406 8.62866852,3.99444523 C8.71092961,3.5200092 8.93666933,2.98244258 8.68961278,2.50909973 C7.30620544,1.10546873 5.13653517,-0.232572037 3.07262915,0.0374410917 C2.14507393,0.657542092 0.905418517,1.48753184 0.0183106069,2.20984429 C2.72226799,2.29128549 6.06846307,2.98490221 7.90662937,5.0684853 Z" id="path-15"></path>
        <path d="M13.530172,26.3128887 C13.0264937,16.20762 20.1739161,7.87738706 21.0845272,7.21027972 C21.0418935,6.30240157 15.4279161,1.63702291 12.9494252,0.0286957272 C11.1126253,-0.0729691349 10.729469,1.96142128 9.38842206,3.07700183 C3.53230737,9.68549116 0.461591269,17.5713503 0.0128447541,26.4049883 C-0.130633882,26.7977098 8.61500389,26.6938586 13.530172,26.3128887 L13.530172,26.3128887 Z" id="path-17"></path>
        <path d="M0.11286986,26.6747281 C1.04151825,26.9635985 14.5787959,24.3883619 20.0881022,22.898917 C21.1203285,23.0426689 22.3998847,22.8147429 22.9994887,23.8048821 C22.8961841,24.4241632 22.4220214,24.9406863 22.5466428,25.6214583 C17.8233261,30.0619171 12.8718101,34.2550461 7.6530138,37.9319253 C7.92138717,38.5304362 8.66474315,38.6536911 9.18099295,38.9630584 C15.9110975,41.3322323 25.0562891,41.7369787 31.3275353,38.1229568 C35.5936334,35.6630498 37.0721466,31.8891517 37.0721466,31.8891517 C21.828703,27.6186809 24.4181508,16.4360927 25.0355189,14.0622728 C25.0355189,14.0622728 22.402071,6.66779383 26.5558458,2.13195589 C26.6159702,1.49190452 24.3831693,-1.3702893 21.828703,0.834909015 C21.0766017,2.50855314 20.3212208,5.53390267 15.6583018,3.15079085 C14.6717154,2.64601934 13.6569798,4.12125301 12.6263933,4.5563349 C12.852133,5.53800206 12.5698217,8.56389817 8.7893646,8.31465528 C8.69562522,11.7805525 3.58887895,9.89264698 3.58887895,9.89264698 C-0.946685705,16.3240427 0.11286986,26.6747281 0.11286986,26.6747281 L0.11286986,26.6747281 Z" id="path-19"></path>
        <path d="M7.40349762,27.0223564 C10.0844984,28.3248691 15.298922,28.8618891 18.2532154,27.4336618 C19.4966969,26.8329646 23.6671426,24.6753192 23.6671426,24.6753192 C23.3774524,25.4596691 21.8497466,26.7845918 21.2102418,27.3626057 C22.2842819,27.5268546 26.512119,24.9830467 28.1628066,23.8466959 C26.32628,22.4447047 24.3613059,21.4963792 22.7078855,19.5986351 C20.6855199,17.7632017 19.1332177,14.6375538 16.3893596,13.6591662 C15.6241402,12.8133254 15.9329609,11.4506883 16.2827755,10.5009964 C16.9851376,9.79890761 17.6246424,8.78745155 18.6986824,9.09599894 C19.3381872,9.4466334 19.1004226,10.2514802 19.4092433,10.7772953 C22.7570781,16.4650617 30.1469111,19.8005984 31.1171,19.9856175 C32.2512645,18.7672789 32.4671656,16.8288142 32.6120107,15.1155426 C32.6530046,14.7643616 32.4890291,14.5566592 32.1364815,14.4328576 C31.1471622,14.7845852 30.6907635,13.9384712 30.3190855,13.2781962 C30.2507623,10.8770471 31.8057974,10.8830595 32.8169802,11.0475817 C34.0222008,7.05696255 31.5707658,1.18335713 28.8241747,0.0289690198 C27.9797005,-0.0942859608 27.1543567,0.277938615 26.7006909,0.979754115 C26.3481434,2.75451652 27.8403212,4.55196221 27.8403212,4.55196221 C26.2716215,3.438568 19.5868835,-1.79635252 14.295938,1.70507278 C11.8390372,4.4483843 11.5575457,8.81232118 10.5272325,12.4039331 C9.72375213,15.6656807 9.16896807,19.1744849 6.36498559,21.4668636 C5.82659909,21.8390882 5.16796382,22.1074615 4.46560174,21.8811752 C3.68125186,21.6546156 3.30957387,20.8085016 2.93789588,20.1689968 C2.93789588,20.1689968 0.705095011,15.3202388 0.333417021,15.4858542 C-0.161242658,16.3737819 0.0464597488,17.694332 0.150310952,18.6847445 C0.710560864,22.4201083 4.06932741,25.4041906 7.40349762,27.0223564 L7.40349762,27.0223564 Z" id="path-21"></path>
        <path d="M13.5717125,13.3910661 C15.260661,13.3902462 17.0343303,13.7799615 19.3983116,14.9130328 C21.016204,15.6889106 23.5578256,12.3582932 23.5578256,12.3582932 C22.1339709,-0.0265093861 11.5192848,-0.144571807 9.31108025,0.0423603592 C9.20722904,0.332050558 9.33294366,0.744722444 9.33294366,1.07540654 C9.29194976,3.9436128 7.58113784,6.72983126 4.87827363,7.7642439 C3.14559829,8.81806032 1.10683519,9.82104431 0.013664632,11.8032358 C0.013664632,11.8032358 9.59257167,5.69295899 13.5717125,13.3910661 L13.5717125,13.3910661 Z" id="path-23"></path>
        <path d="M13.5717125,13.3910661 C15.260661,13.3902462 17.0343303,13.7799615 19.3983116,14.9130328 C21.016204,15.6889106 23.5578256,12.3582932 23.5578256,12.3582932 C22.1339709,-0.0265093861 11.5192848,-0.144571807 9.31108025,0.0423603592 C9.20722904,0.332050558 9.33294366,0.744722444 9.33294366,1.07540654 C9.29194976,3.9436128 7.58113784,6.72983126 4.87827363,7.7642439 C3.14559829,8.81806032 1.10683519,9.82104431 0.013664632,11.8032358 C0.013664632,11.8032358 9.59257167,5.69295899 13.5717125,13.3910661 L13.5717125,13.3910661 Z" id="path-25"></path>
        <path d="M1.06857422,11.1596317 C2.23280087,8.93830909 2.44870205,7.28406874 2.44596913,4.73178877 C2.44596913,2.88952308 -0.267826787,-0.0647703557 0.027329264,0.00792548656 C8.51033281,2.0830365 8.8820108,7.98916375 9.87679601,12.4777221 L9.70462165,13.8015516 C9.18536563,13.8488312 8.88474373,13.9906701 8.36548771,13.9912167 C5.60249912,13.9925832 2.88323735,13.3798611 1.06857422,11.1596317 L1.06857422,11.1596317 Z" id="path-27"></path>
        <path d="M17.9689911,11.2484518 C18.2149545,11.2481785 15.9848865,9.86094504 15.8427743,7.64891441 C15.7771841,6.64538384 10.8907117,9.02111676 2.55255326,1.14017689 C1.92671311,0.548498329 0.915530344,-0.297888978 0.139379246,0.120248762 C-0.404473107,0.399007254 1.13689738,1.15083531 1.4183888,1.70753242 C1.98137164,2.83896394 8.2507048,9.78633615 15.9821536,10.9658672 C16.6626523,11.0691718 17.2830266,11.2484518 17.9689911,11.2484518 L17.9689911,11.2484518 Z" id="path-29"></path>
        <path d="M13.3178236,0.158236439 C15.1603626,0.157416561 16.4751735,0.078981573 18.3182591,0.0262360934 C21.1342664,3.36587215 6.40515961,29.1431073 5.77221385,29.6145371 C3.83101623,31.0640812 -0.650436483,31.088131 0.085813889,29.8607737 C7.27477679,17.8766182 11.5720303,13.1489288 12.8324559,3.70748796 C12.981947,2.58589496 12.5815733,2.23826672 12.5810267,1.10546873 C12.5802068,0.631852584 12.8433876,0.158236439 13.3178236,0.158236439 L13.3178236,0.158236439 Z" id="path-31"></path>
        <path d="M5.35981526,18.3283709 C4.68888183,19.4671813 3.49158677,20.2047982 2.06855199,20.2056181 C0.646063801,20.2061646 0.349814579,18.5729678 0.348994701,17.2614364 C0.348994701,16.4691611 0.348448116,16.0231475 0.347628238,15.2322386 C0.347628238,14.4894292 0.882735227,10.7764754 0.882461935,9.11868223 C1.20330749,4.28468201 0.0191304848,2.56020545 0.0183106069,0.852673037 C0.0183106069,0.530734307 0.152770586,0.308000805 0.232845329,0.0109317056 C1.65588011,0.505318091 1.92480006,1.71709766 3.34810813,2.187161 C4.58284428,2.6066652 7.22886362,2.60365898 6.77875064,3.74356258 C4.25325336,10.1402501 4.64488171,15.7586002 4.64488171,15.7586002 C4.77988827,16.574652 4.7419006,17.7593756 5.35981526,18.3283709 Z" id="path-33"></path>
        <path d="M4.51124161,23.8628202 C1.98027847,24.7072944 0.92236266,22.3780212 0.0213168259,21.2247263 C5.8260525,16.2374089 11.5794092,7.46471517 12.2298456,4.78808705 C12.6780456,2.89553552 14.0991673,-1.01637533 15.6760658,0.265367153 C17.8350777,2.01553322 18.269613,3.37653057 18.1356996,5.98510882 C18.0619106,7.47619346 13.3066186,11.150613 10.2430081,14.9176788 C7.84158572,17.8725188 6.04086052,23.3523095 4.51124161,23.8628202 Z" id="path-35"></path>
    </defs>
    <g id="alabama-st" stroke="none" stroke-width="1" fill="none" fill-rule="evenodd">
        <g id="alabama-st_BGL">
            <g id="alabama-st" transform="translate(0.000000, 27.000000)">
                <g id="g10" transform="translate(100.000000, 73.116715) scale(-1, 1) rotate(-180.000000) translate(-100.000000, -73.116715) translate(0.000000, 0.550343)">
                    <g id="g12" transform="translate(0.000000, -0.000000)">
                        <g id="g14" transform="translate(0.000000, -0.000000)" fill-rule="nonzero">
                            <g id="g16-Clipped" transform="translate(0.000000, -0.000000)">
                                <g id="g16" transform="translate(0.300622, 0.300622)">
                                    <path d="M28.5918721,120.429954 C20.9074297,120.466849 -3.8690078,103.225089 1.03140253,80.76754 C1.51349075,78.5582423 3.82527319,78.5956834 5.37976173,79.2526789 C25.0505461,87.5624149 37.1549504,93.2285912 61.1719076,95.8634056 C61.1719076,95.8634056 53.4180488,93.7872014 49.6949832,87.4235823 C49.6479769,87.3421411 51.050788,86.6971704 50.4875318,85.0612407 C47.6154995,80.2337995 44.2488075,75.5924706 43.1296741,70.0826177 C43.7904957,69.6898962 44.6776036,69.1526028 44.7595914,68.3064888 C43.4554389,62.2798395 41.7588382,55.3261816 44.0449311,49.2156314 C44.9946231,48.8849473 46.0678433,48.7808228 46.8516466,48.1407715 C48.2315011,43.5163867 49.2183608,38.7690203 51.9409021,34.7215563 C52.5596366,34.5567608 53.2819491,34.6595188 53.7151179,34.0399644 C55.4048863,31.7265422 55.2387244,28.5907825 57.5901343,26.6074978 C59.1380638,26.626355 60.1303894,25.1702518 61.4509394,24.4883867 L69.3917303,20.0356297 C79.8684037,14.7129822 85.4657103,18.5276009 85.4121449,18.5841725 C85.4657103,18.5276009 74.1814572,18.2452896 73.193231,26.3074225 C72.8838637,27.5260344 72.2019986,35.6310742 73.906798,41.5866674 C74.4757933,44.0443881 78.5779159,49.371135 78.5779159,49.371135 C78.5779159,49.371135 87.8250456,37.9054155 87.9313565,29.827705 C87.4142868,28.2387816 87.0622859,26.4645657 87.3702867,24.6682132 C87.4517279,23.2648555 88.9165764,22.4179216 88.9365268,20.994067 C88.3970471,16.1644394 85.0718956,12.5140696 82.3031678,8.61560478 C82.7989207,8.36630724 83.5007362,8.49016346 84.0577066,8.51055109 C86.4312532,9.04571274 88.8772223,10.0803713 90.3341454,12.1796141 C91.6809315,14.1204838 92.7022261,15.4538786 94.6013366,15.1431448 C95.42914,17.9490404 94.1995965,21.340602 95.8527436,23.7955898 C96.4315774,24.580213 97.1940639,25.51788 97.2107348,25.5870231 C97.9896188,28.6356025 93.262476,39.7728241 93.262476,39.7728241 C93.2427989,42.1108427 93.7390984,42.6404838 94.8959461,43.5677657 C101.373255,37.9499622 108.029844,24.5501508 108.029844,24.5501508 C116.53799,21.8975724 115.613441,6.77653662 115.44482,1.53420987 C115.44482,1.53420987 121.257208,8.2801654 118.805773,20.7623148 C118.611735,21.7494478 118.865897,24.4922128 119.754098,25.1117672 C118.270119,28.949889 116.040051,26.982182 115.092819,31.0280062 C114.92775,31.7913126 115.072868,32.7817251 114.12427,33.1124092 C107.666911,37.3899856 103.378403,44.5333086 99.7299463,50.9540459 C99.7299463,50.9540459 101.615119,61.2724828 102.628215,64.2847143 C102.896861,65.1928658 103.434155,66.3893409 104.569959,66.4508318 C105.168197,66.3469806 105.621862,65.6653887 105.972497,65.2114497 C107.600228,61.8253539 107.061295,57.7808961 107.161593,53.8178795 C107.262711,50.9496732 105.715875,48.9442518 107.156674,45.3758698 C110.539763,43.0009568 112.931347,39.5938175 115.137639,36.3935606 C117.715335,32.3255997 120.396336,28.3202228 121.320065,23.572583 C122.208266,23.1180974 123.055473,22.601301 123.960072,22.2288031 C124.848273,22.0227405 125.982437,22.0221939 126.561818,22.8262208 C129.805801,23.7567823 137.561846,16.7905529 139.603343,13.753725 C140.595395,16.3751481 136.624453,25.1090342 133.995378,26.9704304 C133.344941,27.4301086 133.935253,28.4347324 134.22221,29.012473 C133.213761,30.2923025 131.582204,29.4481015 130.404312,29.1597778 C129.827665,28.9952556 129.166297,28.7476525 128.567786,28.9550816 C128.548655,29.1406473 128.753625,29.2434053 128.797352,29.4286977 C128.939464,29.8826368 129.024184,30.4404271 128.734494,30.8328753 C126.034363,34.0129085 120.989381,38.4413424 121.270872,40.6203046 C121.538699,42.2100479 122.653733,43.4887842 123.749636,44.7052097 C124.121314,45.8612376 123.752369,47.1610174 123.648518,48.3790827 C123.383424,51.2694256 123.591127,54.4060053 124.624173,57.0052916 C125.780201,56.7369182 127.04008,56.6737876 128.070393,56.0952271 C129.928783,55.3297344 130.524561,53.348636 130.42071,51.4916125 C132.194379,51.0559841 134.919107,52.4167081 135.908426,50.2699944 C137.187436,46.5745314 135.738985,41.7670405 138.583961,38.7097158 C138.624955,36.7696113 137.82694,34.6300032 137.660232,32.7926568 C137.660232,32.7926568 138.767067,33.5294538 139.160608,33.5084102 C139.985952,33.1777261 139.901231,32.2906182 140.169058,31.6092997 C141.136514,29.0291439 142.535773,26.1732358 145.134786,24.4790947 C144.866959,25.511321 142.650555,32.3250531 143.904969,35.4323904 C144.197392,36.1530631 144.465219,36.1265537 145.104723,36.2079949 C145.413544,36.2908026 145.580253,36.6209401 145.558389,36.930854 C145.208575,38.0658383 143.907702,38.967704 145.058264,40.4604284 C144.25205,41.4516608 139.991418,47.4720244 140.286574,52.4549691 L141.445335,54.1663276 C143.530558,56.2706809 146.069446,58.5185129 146.503982,61.4695268 C146.711684,62.1923859 146.67069,63.0174563 146.979511,63.678278 C148.488086,64.5640194 150.16337,65.3306053 151.234677,66.9359262 C154.667233,72.0825732 150.849335,75.934633 152.833439,79.8960098 C153.306235,80.7421238 153.962138,81.2654792 154.850339,81.4095044 C155.539036,80.4606324 157.077674,77.174835 157.088606,77.0892944 C158.471466,66.6243726 162.581788,62.8627727 166.336829,61.2708431 L166.339561,61.3531042 C161.925885,66.1444707 161.658059,72.4302015 160.898305,78.7254974 C159.971843,80.1706689 159.340537,81.3212309 158.832213,83.6152493 C160.217806,84.8111779 164.557693,85.2544586 165.426764,85.274409 C165.921424,85.0882967 166.230244,84.5720469 166.476208,84.1181078 C162.620049,71.2080368 167.716956,64.3218821 168.151492,64.197534 C167.820808,64.9406167 167.052855,74.0612119 168.804661,77.6563766 C168.269008,80.4841356 169.345781,83.0017074 170.029012,85.4985089 C170.236715,86.7777918 170.980071,88.3046777 170.113733,89.5025194 C169.824043,89.8739241 161.294579,89.0974997 158.362149,86.4520269 C158.362149,86.4520269 157.892086,93.4488651 156.941028,94.5622593 C153.595926,94.461141 150.280886,93.1064294 147.370319,91.828513 C142.852792,94.9074279 137.922593,97.1601792 132.183447,97.2260427 C131.502949,98.1549644 130.491766,100.027839 130.521828,99.9718138 C144.670188,116.796255 192.389816,132.932546 192.389816,132.932546 C194.330194,133.860101 197.467593,134.799681 197.407469,137.407713 C197.273555,143.500499 160.553956,145.260504 154.585245,139.479271 C152.519153,140.18218 147.591686,141.056716 145.413544,140.212789 C132.740964,135.30336 123.809761,104.94328 123.809761,104.94328 C123.809761,104.94328 113.748766,111.719571 97.8663638,104.636919 C97.8663638,104.636919 73.7600399,122.235599 52.4136984,127.039537 C43.689924,129.002871 34.6652544,126.927487 28.5918721,120.429954 Z M153.098533,88.027559 L153.902013,84.3531395 C153.158657,83.7967156 152.584743,83.2616087 151.759399,82.8076696 C151.617287,84.3769159 150.72362,86.9483264 150.196165,87.7406017 L153.098533,88.027559 Z M85.1202684,54.9881186 C89.745473,58.1432821 90.905327,63.4052586 94.3542801,67.3860392 L94.4985786,67.344772 L95.1995742,66.0029051 C96.2962976,64.6604917 90.7132022,55.1906284 89.5768514,52.5708452 C89.3699689,51.9108435 90.6484319,49.2060662 89.181397,48.1746598 L89.1395832,48.1336659 C87.7173683,50.2811994 86.4596756,52.5927086 85.1202684,54.8238697 L85.1202684,54.9881186 Z M114.660197,63.6583276 C116.971979,63.7591726 119.13919,63.3041403 120.830871,61.9404101 C120.352609,57.1944101 119.543663,52.612659 117.229967,48.6512821 L117.106166,48.6512821 L115.931554,50.8813501 C114.943328,54.7623789 114.099947,58.7874329 114.370506,63.1010839 C114.474631,63.2863763 114.454134,63.5547497 114.660197,63.6583276 Z" id="path28" fill="#231F20"></path>
                                    <path d="M129.404061,64.2847143 C131.680589,64.0726392 134.263204,66.979653 132.822952,67.0829577 C125.679082,67.5970211 130.751394,83.3466027 122.243794,84.4854131 C120.440063,84.7267305 109.891513,66.1034768 129.404061,64.2847143 L129.404061,64.2847143" id="path30" fill="#645B61"></path>
                                </g>
                            </g>
                        </g>
                        <g id="g32" transform="translate(116.814159, 63.716814)">
                            <g id="g34-Clipped" transform="translate(0.000000, -0.000000)">
                                <g id="g34" transform="translate(1.245524, 0.832174)">
                                    <g id="g40-Clipped">
                                        <mask id="mask-2" fill="white">
                                            <use xlink:href="#path-1"></use>
                                        </mask>
                                        <g id="path42"></g>
                                        <g id="g40" mask="url(#mask-2)" fill="#E0E1E2" fill-rule="nonzero">
                                            <g transform="translate(2.459634, 8.308096)" id="path46">
                                                <path d="M5.42485891,12.6416977 C5.42485891,12.6416977 5.82659909,10.4895181 6.28573072,9.92380235 C1.45391685,7.76888988 0.893666933,2.34840366 0.78981573,0.016670851 C0.78981573,0.016670851 -2.80124956,5.78587848 5.42485891,12.6416977 L5.42485891,12.6416977"></path>
                                            </g>
                                        </g>
                                    </g>
                                </g>
                            </g>
                        </g>
                        <g id="g48" transform="translate(1.769912, 81.415929)" fill-rule="nonzero">
                            <g id="g50-Clipped" transform="translate(0.000000, -0.000000)">
                                <g id="g50" transform="translate(1.014937, 0.131861)">
                                    <path d="M26.364541,37.3249423 C64.1835964,38.4391564 100.125678,17.3395981 109.778374,8.56171183 L109.778374,8.47890416 C109.015068,8.54176147 108.454271,7.84295218 107.672654,8.1914003 C58.128798,30.3114333 4.99032361,1.11831348 4.99032361,1.11831348 C3.60691626,0.892027177 1.95048957,-1.04862386 0.676125992,0.7909089 C-4.09064424,18.336843 17.763475,37.0710535 26.364541,37.3249423 L26.364541,37.3249423" id="path56" fill="#E0E1E2"></path>
                                    <path d="M33.3635655,42.804733 C42.1993898,46.9677998 52.3847332,44.4286379 60.6174007,40.8321068 C60.6174007,40.8321068 88.3828398,29.9173453 109.408882,10.8939912 C95.4848956,21.9448524 79.3901455,28.5189069 62.9239906,33.8131319 C52.0286329,37.0398981 40.6697709,38.8764246 28.8236282,39.2142143 C29.4437292,40.9061691 31.918394,42.0422466 33.3635655,42.804733 L33.3635655,42.804733" id="path58" fill="#A5A2AA"></path>
                                </g>
                            </g>
                        </g>
                        <g id="g60" transform="translate(30.088496, 92.035398)">
                            <g id="g62-Clipped" transform="translate(0.000000, -0.000000)">
                                <g id="g62" transform="translate(1.501397, 0.389439)">
                                    <g id="g68-Clipped">
                                        <mask id="mask-4" fill="white">
                                            <use xlink:href="#path-3"></use>
                                        </mask>
                                        <g id="path70"></g>
                                        <g id="g68" mask="url(#mask-4)" fill="#E0E1E2" fill-rule="nonzero">
                                            <g transform="translate(5.192560, -2.131683)" id="path74">
                                                <path d="M6.93042806,35.1899802 L23.0803833,30.4540921 C27.5435254,28.9671068 19.5699394,30.6175211 19.5699394,30.6175211 C-0.84884694,36.8685436 0.0265093861,32.451588 0.0265093861,32.451588 C3.71459356,32.8281852 4.43144016,32.2575502 7.62978393,31.5937224 C16.411223,29.7156553 26.3402179,28.2961734 34.6945007,25.2049603 C41.1496728,22.8163826 43.6254308,19.7863871 49.9794847,16.6055341 C53.7604884,14.7121627 78.7716842,0.00765219392 78.7716842,0.00765219392 C77.8266383,0.953518021 61.191042,16.6301304 34.1563874,27.6115753 C18.2496626,34.0730332 18.117389,33.9847597 17.7334128,33.5543238 C15.8159917,31.4032374 13.1412766,35.3935832 6.93042806,35.1899802 L6.93042806,35.1899802"></path>
                                            </g>
                                        </g>
                                    </g>
                                </g>
                            </g>
                        </g>
                        <g id="g76" transform="translate(44.247788, 42.477876)" fill="#E3B310" fill-rule="nonzero">
                            <g id="g78-Clipped" transform="translate(0.000000, -0.000000)">
                                <g id="g78" transform="translate(0.514810, 0.699628)">
                                    <path d="M0.396820913,18.4674769 C6.4163646,9.33185049 28.1731917,5.61889668 30.7536208,5.86431347 C30.5664153,4.35847102 27.9387066,0.157143268 27.0529651,0.0852673037 C15.9589237,-0.825343773 1.58154451,6.32399169 0.633765632,8.36822064 C0.0784349877,11.1962529 -0.287230565,15.5366866 0.396820913,18.4674769 L0.396820913,18.4674769" id="path84"></path>
                                </g>
                            </g>
                        </g>
                        <g id="g86" transform="translate(44.247788, 42.477876)">
                            <g id="g88-Clipped" transform="translate(0.000000, -0.000000)">
                                <g id="g88" transform="translate(0.514810, 0.699628)">
                                    <g id="g94-Clipped">
                                        <mask id="mask-6" fill="white">
                                            <use xlink:href="#path-5"></use>
                                        </mask>
                                        <g id="path96"></g>
                                        <g id="g94" mask="url(#mask-6)" fill-rule="nonzero">
                                            <g transform="translate(9.483255, -20.961545)">
                                                <path d="M37.0934634,55.0231004 C36.5736608,55.2594985 36.7165929,56.9612918 36.1489641,57.1031307 C35.0604395,54.4092851 33.7346969,50.2500444 31.0394849,49.1639795 C28.5803977,48.1727471 22.1074615,54.6525156 20.6412465,52.3839134 C19.2217645,50.210417 24.1817527,43.6363625 21.7704917,42.7394161 C19.1695657,41.7479104 13.2615254,43.4535298 13.2598856,40.6637585 C13.2585191,38.5842748 17.0395228,35.9344294 17.0381564,33.855219 C17.0362433,30.9244287 11.0341903,32.6754146 8.33870503,31.589623 C9.09408589,30.313073 14.0084341,25.5356444 14.0078876,24.0235162 C14.007341,22.227437 9.27883172,21.6628144 9.27801184,19.865642 C9.27719196,17.0288644 14.7599889,17.4043685 14.7594423,14.5684108 C14.7580759,13.0551894 12.4886538,12.8671641 12.4881072,11.3555825 C12.4872873,9.51140375 14.661057,9.41465816 15.7009355,7.94898973 L13.4306935,5.49208889 C14.5159386,2.84360992 16.4554964,4.54540319 18.1548301,0.00573914544 C18.3915015,0.666560749 19.8574432,1.32820223 19.8582631,2.08576943 C19.8596296,4.63804939 18.3469548,5.96187894 18.3483213,8.51579866 C18.3529672,17.0239451 19.679803,22.5072887 24.9773075,29.3122754 C27.0595242,32.0058477 27.0133377,34.6996932 29.7096429,36.6837978 C32.4994142,38.7624616 34.0601884,40.1335708 36.1418585,42.9211557 C38.0808698,45.520442 41.6276616,46.0856112 41.6290281,49.3473588 C41.6306679,52.2784224 39.5979172,53.5557922 37.0934634,55.0231004 L37.0934634,55.0231004" id="path100" fill="#CDA917"></path>
                                                <path d="M36.149784,58.4269602 C30.8530993,54.4587511 25.9371113,56.0211651 19.8850458,53.1412073 C16.5754719,51.5826193 17.8481957,47.3274529 14.9646851,45.2015095 C13.92426,44.4455821 12.8838349,44.7295331 11.7488506,44.0687115 C8.81669386,42.3210051 10.3280022,38.8695923 8.53000988,35.9396219 C7.20536046,33.7650324 5.3136288,32.7259738 5.31280892,30.1728739 C5.31226234,28.6134661 6.25730829,27.8561722 6.25566853,26.2967644 C6.25484865,24.1210817 3.79576148,23.3673406 3.79439501,21.1927511 C3.79357514,18.497539 7.953909,18.4016133 7.95226924,15.7064013 C7.95144936,14.9502006 7.57348564,14.5719636 7.57348564,13.8152162 C7.57184589,11.3577688 10.3610706,11.1194576 11.73054,9.0861604 C13.6200853,6.29556926 13.7130048,4.02614717 15.6971094,1.33038857 C15.1773068,1.28420212 14.893629,1.14208994 14.3735531,1.14263653 C12.7198593,1.14263653 12.672853,3.22348669 11.7278071,4.54786282 C9.50757765,7.62213173 7.66476538,9.08780016 5.87087249,12.4927532 C5.0203858,14.1005338 5.72985349,15.42409 4.92801289,17.0318706 C3.65228284,19.6319768 0.0147578026,24.1249078 0.0161242658,27.0562447 C0.0177640216,29.7506368 3.42025739,27.8113522 3.42107727,30.5043779 C3.42271702,31.7347414 3.23359852,32.3969294 3.2344184,33.6256531 C3.23551157,35.9888146 5.45792731,36.7439222 6.26332072,38.9663379 C7.06734767,41.1871139 6.83204271,42.6527823 6.83286259,45.0162171 C6.83422905,47.5220373 9.48243473,48.0407467 10.4291204,50.3093489 C11.2334207,52.341553 10.9505628,53.9023273 12.1339199,55.7924192 C13.3156373,57.6827844 15.3964875,57.2091682 17.4289648,58.058835 C19.8404991,59.0973471 20.4094944,61.1298244 22.7256495,62.2156161 C26.3675472,63.9160429 28.9198272,63.9146764 32.9383222,63.9122168 C35.159918,63.9111236 36.0090383,60.6488294 36.149784,58.4269602 L36.149784,58.4269602" id="path102" fill="#FBC707"></path>
                                            </g>
                                        </g>
                                    </g>
                                </g>
                            </g>
                        </g>
                        <g id="g104" transform="translate(44.247788, 51.327434)" fill="#E3B310" fill-rule="nonzero">
                            <g id="g106-Clipped" transform="translate(0.000000, -0.000000)">
                                <g id="g106" transform="translate(1.498664, 0.185496)">
                                    <path d="M3.709401,28.1117008 C3.709401,28.1117008 5.04908153,17.0589266 29.8875564,6.4461535 C29.9075068,5.76510824 29.3969961,5.22699503 29.7681275,4.54649636 C30.5929247,3.47218299 31.0873111,2.15026649 31.8708411,1.05572947 C31.9326052,0.766859148 31.623238,0.354733847 31.4789395,0.0666834042 C29.6413197,-0.612995392 4.83946607,4.26773787 0.0177640216,19.4149824 C0.226013013,22.0776726 3.37953679,27.7818366 3.709401,28.1117008 L3.709401,28.1117008" id="path112"></path>
                                </g>
                            </g>
                        </g>
                        <g id="g114" transform="translate(44.247788, 51.327434)">
                            <g id="g116-Clipped" transform="translate(0.000000, -0.000000)">
                                <g id="g116" transform="translate(1.498664, 0.185496)">
                                    <g id="g122-Clipped">
                                        <mask id="mask-8" fill="white">
                                            <use xlink:href="#path-7"></use>
                                        </mask>
                                        <g id="path124"></g>
                                        <g id="g122" mask="url(#mask-8)" fill-rule="nonzero">
                                            <g transform="translate(10.002511, -29.679581)">
                                                <path d="M35.5895341,55.0271998 C35.0705513,55.2635979 35.2126635,56.9656645 34.6458546,57.1077767 C33.55733,54.4136578 32.2315874,50.2541438 29.5363754,49.1683522 C27.0772882,48.1771198 20.6035321,54.6568883 19.1373171,52.3882861 C17.718655,50.2145164 22.6786431,43.6410085 20.2673822,42.7435155 C17.6664561,41.7522831 11.757596,43.4576292 11.7567761,40.6686778 C11.7554096,38.5886475 15.5364133,35.9393486 15.5350468,33.8593183 C15.5331338,30.9279815 9.53108082,32.6797873 6.83477564,31.5937224 C7.59097637,30.3179923 12.504778,25.5405637 12.5042315,24.0278889 C12.5034116,22.2315364 7.77572219,21.6663672 7.77490232,19.8708346 C7.77353585,17.034057 13.2568794,17.4084679 13.2563328,14.5725102 C13.2549663,13.0592888 10.9855443,12.8723566 10.9849977,11.358862 C10.9841778,9.51577643 13.1579474,9.41875755 14.1978259,7.95308912 L11.927584,5.49646158 C13.0128291,2.8479826 14.9523869,4.54895599 16.6517206,0.010658413 C16.888392,0.672026602 18.3543337,1.33339479 18.3543337,2.08986882 C18.3559735,4.64296866 16.8438453,5.96652492 16.8452117,8.51907818 C16.8498577,17.0288644 18.1766935,22.5116613 23.474198,29.3171947 C25.5564146,32.0096738 25.5102282,34.7040659 28.2065334,36.6881705 C30.9963047,38.7673809 32.5565323,40.1371236 34.638749,42.9255284 C36.5777602,45.525088 40.1237322,46.0899839 40.1250987,49.3520048 C40.1275583,52.2830684 38.0948077,53.5601649 35.5895341,55.0271998 L35.5895341,55.0271998" id="path128" fill="#CDA917"></path>
                                                <path d="M34.6458546,58.4316062 C29.3491699,54.4631238 24.4340018,56.0260844 18.3811164,53.14558 C15.0715425,51.586992 16.3450862,47.3315523 13.4607557,45.2061555 C12.4206039,44.4499547 11.3807254,44.7341791 10.2457411,44.0728109 C7.31358434,42.3253778 9.77075847,39.6296191 7.97276619,36.6991022 C6.64729688,34.5258791 3.81051928,32.7303465 3.80915282,30.1780665 C3.80915282,28.6178388 4.75337889,27.8610915 4.75255901,26.3003172 C4.75091925,24.1262743 2.29265196,23.3717133 2.29128549,21.1971237 C2.28991903,18.5024583 6.4499796,18.4057127 6.44915972,15.7113206 C6.44779326,14.9545733 6.07037612,14.5771561 6.06955624,13.8195889 C6.06818978,11.3618682 8.85796105,11.123557 10.2274305,9.09025979 C12.1169758,6.29966865 12.2098953,4.03079315 14.1939998,1.33530784 C13.6741972,1.28830151 13.3905195,1.14618933 12.869897,1.14782909 C11.2159299,1.14782909 11.1697435,3.22703949 10.2246975,4.55196221 C8.00446813,7.62541124 6.16165586,9.09271943 4.36776297,12.4968526 C3.51727628,14.1046332 4.22674397,15.4290093 3.42408349,17.0367899 C2.14917332,19.6368961 0.0221367038,20.9139926 0.0237764597,23.8453294 C0.0248696302,26.539175 1.91660128,27.8143584 1.91796775,30.5092972 C1.91878763,31.7388408 1.730489,32.4018487 1.73130887,33.6305724 C1.73185546,35.9937339 1.11886007,38.074584 1.92316031,40.29536 C2.72828043,42.5169559 5.32893319,42.6574283 5.32975307,45.0208631 C5.33029965,47.5261367 7.97877863,48.0451194 8.92546433,50.3139949 C9.73031116,52.3459257 9.4466334,53.9067 10.6308104,55.7967919 C11.8125278,57.6874303 13.8928314,57.2132676 15.9258553,58.0632077 C18.3373896,59.101993 18.905565,61.1341971 21.22254,62.2199888 C24.8636178,63.9201423 27.4167177,63.9187758 31.434666,63.9171361 C33.6568085,63.9157696 34.5059287,60.6534754 34.6458546,58.4316062 L34.6458546,58.4316062" id="path130" fill="#FBC707"></path>
                                            </g>
                                        </g>
                                    </g>
                                </g>
                            </g>
                        </g>
                        <g id="g132" transform="translate(49.557522, 33.628319)" fill="#E3B310" fill-rule="nonzero">
                            <g id="g134-Clipped" transform="translate(0.000000, -0.000000)">
                                <g id="g134" transform="translate(0.534282, 0.858479)">
                                    <path d="M0.00792548656,9.55185106 C9.64422398,4.77278267 21.9907656,5.77494678 21.9907656,5.77494678 C21.907138,4.30927835 22.0604552,2.57086387 21.5851993,1.27108407 C10.4971703,-1.88981861 3.13794609,1.95294921 3.13794609,1.95294921 C1.86002971,3.9545445 0.666287456,7.28106252 0.00792548656,9.55185106 L0.00792548656,9.55185106" id="path140"></path>
                                </g>
                            </g>
                        </g>
                        <g id="g142" transform="translate(49.557522, 33.628319)">
                            <g id="g144-Clipped" transform="translate(0.000000, -0.000000)">
                                <g id="g144" transform="translate(0.534282, 0.858479)">
                                    <g id="g150-Clipped">
                                        <mask id="mask-10" fill="white">
                                            <use xlink:href="#path-9"></use>
                                        </mask>
                                        <g id="path152"></g>
                                        <g id="g150" mask="url(#mask-10)" fill-rule="nonzero">
                                            <g transform="translate(5.657158, -12.653449)">
                                                <path d="M35.5895341,55.0271998 C35.0705513,55.2635979 35.2126635,56.9656645 34.6458546,57.1077767 C33.55733,54.4136578 32.2315874,50.2541438 29.5363754,49.1683522 C27.0772882,48.1771198 20.6035321,54.6568883 19.1373171,52.3882861 C17.718655,50.2145164 22.6786431,43.6410085 20.2673822,42.7435155 C17.6664561,41.7522831 11.757596,43.4576292 11.7567761,40.6686778 C11.7554096,38.5886475 15.5364133,35.9393486 15.5350468,33.8593183 C15.5331338,30.9279815 9.53108082,32.6797873 6.83477564,31.5937224 C7.59097637,30.3179923 12.504778,25.5405637 12.5042315,24.0278889 C12.5034116,22.2315364 7.77572219,21.6663672 7.77490232,19.8708346 C7.77353585,17.034057 13.2568794,17.4084679 13.2563328,14.5725102 C13.2549663,13.0592888 10.9855443,12.8723566 10.9849977,11.358862 C10.9841778,9.51577643 13.1579474,9.41875755 14.1978259,7.95308912 L11.927584,5.49646158 C13.0128291,2.8479826 14.9523869,4.54895599 16.6517206,0.010658413 C16.888392,0.672026602 18.3543337,1.33339479 18.3543337,2.08986882 C18.3559735,4.64296866 16.8438453,5.96652492 16.8452117,8.51907818 C16.8498577,17.0288644 18.1766935,22.5116613 23.474198,29.3171947 C25.5564146,32.0096738 25.5102282,34.7040659 28.2065334,36.6881705 C30.9963047,38.7673809 32.5565323,40.1371236 34.638749,42.9255284 C36.5777602,45.525088 40.1237322,46.0899839 40.1250987,49.3520048 C40.1275583,52.2830684 38.0948077,53.5601649 35.5895341,55.0271998 L35.5895341,55.0271998" id="path156" fill="#CDA917"></path>
                                                <path d="M34.6458546,58.4316062 C29.3491699,54.4631238 24.4340018,56.0260844 18.3811164,53.14558 C15.0715425,51.586992 16.3450862,47.3315523 13.4607557,45.2061555 C12.4206039,44.4499547 11.3807254,44.7341791 10.2457411,44.0728109 C7.31358434,42.3253778 8.82489264,38.8736917 7.02635378,35.9431747 C5.70225093,33.7699517 3.81051928,32.7303465 3.80915282,30.1780665 C3.80915282,28.6178388 4.75337889,27.8610915 4.75255901,26.3003172 C4.75091925,24.1262743 2.29265196,23.3717133 2.29128549,21.1971237 C2.28991903,18.5024583 6.4499796,18.4057127 6.44915972,15.7113206 C6.44779326,14.9545733 6.07037612,14.5771561 6.06955624,13.8195889 C6.06818978,11.3618682 8.85796105,11.123557 10.2274305,9.09025979 C12.1169758,6.29966865 12.2098953,4.03079315 14.1939998,1.33530784 C13.6741972,1.28830151 13.3905195,1.14618933 12.869897,1.14782909 C11.2159299,1.14782909 11.1697435,3.22703949 10.2246975,4.55196221 C8.00446813,7.62541124 6.16165586,9.09271943 4.36776297,12.4968526 C3.51727628,14.1046332 2.71270275,13.3487057 1.91086214,14.9567596 C0.635132095,17.5574124 0.0221367038,20.9139926 0.0237764597,23.8453294 C0.0248696302,26.539175 1.91660128,27.8143584 1.91796775,30.5092972 C1.91878763,31.7388408 1.730489,32.4018487 1.73130887,33.6305724 C1.73185546,35.9937339 3.95399792,36.7488414 4.75939133,38.9704373 C5.56369157,41.1920332 5.32893319,42.6574283 5.32975307,45.0208631 C5.33029965,47.5261367 7.97877863,48.0451194 8.92546433,50.3139949 C9.73031116,52.3459257 9.4466334,53.9067 10.6308104,55.7967919 C11.8125278,57.6874303 13.8928314,57.2132676 15.9258553,58.0632077 C18.3373896,59.101993 18.905565,61.1341971 21.22254,62.2199888 C24.8636178,63.9201423 27.4167177,63.9187758 31.434666,63.9171361 C33.6568085,63.9157696 34.5059287,60.6534754 34.6458546,58.4316062 L34.6458546,58.4316062" id="path158" fill="#FBC707"></path>
                                            </g>
                                        </g>
                                    </g>
                                </g>
                            </g>
                        </g>
                        <g id="g160" transform="translate(51.327434, 60.176991)" fill="#E3B310" fill-rule="nonzero">
                            <g id="g162-Clipped" transform="translate(0.000000, -0.000000)">
                                <g id="g162" transform="translate(0.759407, 0.873851)">
                                    <path d="M5.12860968,31.0495967 C7.54369674,31.7295488 9.97490807,31.8369528 12.6783189,31.7317351 C11.9502673,21.5723545 24.8518662,6.70687468 30.9673356,3.96055694 C30.9673356,3.96055694 27.3123199,0.90787815 25.2885879,0.0631305999 C23.3692537,-0.905418517 3.40631947,10.7524256 0.0202236554,26.1360683 C1.0953569,28.1991545 3.02288989,29.8952086 5.12860968,31.0495967 L5.12860968,31.0495967" id="path168"></path>
                                </g>
                            </g>
                        </g>
                        <g id="g170" transform="translate(51.327434, 60.176991)">
                            <g id="g172-Clipped" transform="translate(0.000000, -0.000000)">
                                <g id="g172" transform="translate(0.759407, 0.873851)">
                                    <g id="g178-Clipped">
                                        <mask id="mask-12" fill="white">
                                            <use xlink:href="#path-11"></use>
                                        </mask>
                                        <g id="path180"></g>
                                        <g id="g178" mask="url(#mask-12)" fill-rule="nonzero">
                                            <g transform="translate(3.662121, -39.217494)">
                                                <path d="M35.5895341,55.0271998 C35.0705513,55.2635979 35.2126635,56.9656645 34.6458546,57.1077767 C33.55733,54.4136578 32.2315874,50.2541438 29.5363754,49.1683522 C27.0772882,48.1771198 20.6035321,54.6568883 19.1373171,52.3882861 C17.718655,50.2145164 22.6786431,43.6410085 20.2673822,42.7435155 C17.6664561,41.7522831 11.757596,43.4576292 11.7567761,40.6686778 C11.7554096,38.5886475 15.5364133,35.9393486 15.5350468,33.8593183 C15.5331338,30.9279815 9.53108082,32.6797873 6.83477564,31.5937224 C7.59097637,30.3179923 12.504778,25.5405637 12.5042315,24.0278889 C12.5034116,22.2315364 7.77572219,21.6663672 7.77490232,19.8708346 C7.77353585,17.034057 13.2568794,17.4084679 13.2563328,14.5725102 C13.2549663,13.0592888 10.9855443,12.8723566 10.9849977,11.358862 C10.9841778,9.51577643 13.1579474,9.41875755 14.1978259,7.95308912 L11.927584,5.49646158 C13.0128291,2.8479826 14.9523869,4.54895599 16.6517206,0.010658413 C16.888392,0.672026602 18.3543337,1.33339479 18.3543337,2.08986882 C18.3559735,4.64296866 16.8438453,5.96652492 16.8452117,8.51907818 C16.8498577,17.0288644 18.1766935,22.5116613 23.474198,29.3171947 C25.5564146,32.0096738 25.5102282,34.7040659 28.2065334,36.6881705 C30.9963047,38.7673809 32.5565323,40.1371236 34.638749,42.9255284 C36.5777602,45.525088 40.1237322,46.0899839 40.1250987,49.3520048 C40.1275583,52.2830684 38.0948077,53.5601649 35.5895341,55.0271998 L35.5895341,55.0271998" id="path184" fill="#CDA917"></path>
                                                <path d="M34.6458546,58.4316062 C29.3491699,54.4631238 24.4340018,56.0260844 18.3811164,53.14558 C15.0715425,51.586992 16.3450862,47.3315523 13.4607557,45.2061555 C12.4206039,44.4499547 11.3807254,44.7341791 10.2457411,44.0728109 C7.31358434,42.3253778 8.82489264,38.8736917 7.02635378,35.9431747 C5.70225093,33.7699517 3.81051928,32.7303465 3.80915282,30.1780665 C3.80915282,28.6178388 4.75337889,27.8610915 4.75255901,26.3003172 C4.75091925,24.1262743 2.29265196,23.3717133 2.29128549,21.1971237 C2.28991903,18.5024583 6.4499796,18.4057127 6.44915972,15.7113206 C6.44779326,14.9545733 6.07037612,14.5771561 6.06955624,13.8195889 C6.06818978,11.3618682 8.85796105,11.123557 10.2274305,9.09025979 C12.1169758,6.29966865 12.2098953,4.03079315 14.1939998,1.33530784 C13.6741972,1.28830151 13.3905195,1.14618933 12.869897,1.14782909 C11.2159299,1.14782909 11.1697435,3.22703949 10.2246975,4.55196221 C8.00446813,7.62541124 6.16165586,9.09271943 4.36776297,12.4968526 C3.51727628,14.1046332 4.22674397,15.4290093 3.42408349,17.0367899 C2.14917332,19.6368961 0.0221367038,20.9139926 0.0237764597,23.8453294 C0.0248696302,26.539175 1.91660128,27.8143584 1.91796775,30.5092972 C1.91878763,31.7388408 1.730489,32.4018487 1.73130887,33.6305724 C1.73185546,35.9937339 3.95399792,36.7488414 4.75939133,38.9704373 C5.56369157,41.1920332 5.32893319,42.6574283 5.32975307,45.0208631 C5.33029965,47.5261367 5.89874834,48.6135681 6.84516076,50.8821703 C7.65028087,52.9146477 7.17885107,54.6637206 8.36138832,56.5543591 C9.54392558,58.444451 13.8928314,57.2132676 15.9258553,58.0632077 C18.3373896,59.101993 18.905565,61.1341971 21.22254,62.2199888 C24.8636178,63.9201423 27.4167177,63.9187758 31.434666,63.9171361 C33.6568085,63.9157696 34.5059287,60.6534754 34.6458546,58.4316062 L34.6458546,58.4316062" id="path186" fill="#FBC707"></path>
                                            </g>
                                        </g>
                                    </g>
                                </g>
                            </g>
                        </g>
                        <g id="g188" transform="translate(54.867257, 26.548673)" fill="#E3B310" fill-rule="nonzero">
                            <g id="g190-Clipped" transform="translate(0.000000, -0.000000)">
                                <g id="g190" transform="translate(1.400961, 1.297114)">
                                    <path d="M0.0101118277,4.49074466 C8.01020728,2.80589554 15.1456048,5.63775387 15.1456048,5.63775387 C15.495966,5.55467291 15.4331087,3.40768593 15.1016047,2.8925293 C12.6482567,0.449566393 5.03323055,-0.568175399 2.49570839,0.320298974 C1.52633939,1.02293435 0.2784852,3.07864159 0.0101118277,4.49074466 L0.0101118277,4.49074466" id="path196"></path>
                                </g>
                            </g>
                        </g>
                        <g id="g198" transform="translate(54.867257, 26.548673)">
                            <g id="g200-Clipped" transform="translate(0.000000, -0.000000)">
                                <g id="g200" transform="translate(1.400961, 1.297114)">
                                    <g id="g206-Clipped">
                                        <mask id="mask-14" fill="white">
                                            <use xlink:href="#path-13"></use>
                                        </mask>
                                        <g id="path208"></g>
                                        <g id="g206" mask="url(#mask-14)" fill-rule="nonzero">
                                            <g transform="translate(-0.519256, -6.012438)">
                                                <path d="M35.5895341,55.0271998 C35.0705513,55.2635979 35.2126635,56.9656645 34.6458546,57.1077767 C33.55733,54.4136578 32.2315874,50.2541438 29.5363754,49.1683522 C27.0772882,48.1771198 20.6035321,54.6568883 19.1373171,52.3882861 C17.718655,50.2145164 22.6786431,43.6410085 20.2673822,42.7435155 C17.6664561,41.7522831 11.757596,43.4576292 11.7567761,40.6686778 C11.7554096,38.5886475 15.5364133,35.9393486 15.5350468,33.8593183 C15.5331338,30.9279815 9.53108082,32.6797873 6.83477564,31.5937224 C7.59097637,30.3179923 12.504778,25.5405637 12.5042315,24.0278889 C12.5034116,22.2315364 7.77572219,21.6663672 7.77490232,19.8708346 C7.77353585,17.034057 13.2568794,17.4084679 13.2563328,14.5725102 C13.2549663,13.0592888 10.9855443,12.8723566 10.9849977,11.358862 C10.9841778,9.51577643 13.1579474,9.41875755 14.1978259,7.95308912 L11.927584,5.49646158 C13.0128291,2.8479826 14.9523869,4.54895599 16.6517206,0.010658413 C16.888392,0.672026602 18.3543337,1.33339479 18.3543337,2.08986882 C18.3559735,4.64296866 16.8438453,5.96652492 16.8452117,8.51907818 C16.8498577,17.0288644 18.1766935,22.5116613 23.474198,29.3171947 C25.5564146,32.0096738 25.5102282,34.7040659 28.2065334,36.6881705 C30.9963047,38.7673809 32.5565323,40.1371236 34.638749,42.9255284 C36.5777602,45.525088 40.1237322,46.0899839 40.1250987,49.3520048 C40.1275583,52.2830684 38.0948077,53.5601649 35.5895341,55.0271998 L35.5895341,55.0271998" id="path212" fill="#CDA917"></path>
                                                <path d="M34.6458546,58.4316062 C29.3491699,54.4631238 24.4340018,56.0260844 18.3811164,53.14558 C15.0715425,51.586992 16.3450862,47.3315523 13.4607557,45.2061555 C12.4206039,44.4499547 11.3807254,44.7341791 10.2457411,44.0728109 C7.31358434,42.3253778 8.82489264,38.8736917 7.02635378,35.9431747 C5.70225093,33.7699517 3.81051928,32.7303465 3.80915282,30.1780665 C3.80915282,28.6178388 4.75337889,27.8610915 4.75255901,26.3003172 C4.75091925,24.1262743 2.29265196,23.3717133 2.29128549,21.1971237 C2.28991903,18.5024583 6.4499796,18.4057127 6.44915972,15.7113206 C6.44779326,14.9545733 6.07037612,14.5771561 6.06955624,13.8195889 C6.06818978,11.3618682 8.85796105,11.123557 10.2274305,9.09025979 C12.1169758,6.29966865 12.2098953,4.03079315 14.1939998,1.33530784 C13.6741972,1.28830151 13.3905195,1.14618933 12.869897,1.14782909 C11.2159299,1.14782909 8.90114129,4.55278209 7.95691522,5.87688493 C5.73668581,8.95060725 6.16165586,9.09271943 4.36776297,12.4968526 C3.51727628,14.1046332 4.22674397,15.4290093 3.42408349,17.0367899 C2.14917332,19.6368961 0.0221367038,20.9139926 0.0237764597,23.8453294 C0.0248696302,26.539175 1.91660128,27.8143584 1.91796775,30.5092972 C1.91878763,31.7388408 1.730489,32.4018487 1.73130887,33.6305724 C1.73185546,35.9937339 3.95399792,36.7488414 4.75939133,38.9704373 C5.56369157,41.1920332 5.32893319,42.6574283 5.32975307,45.0208631 C5.33029965,47.5261367 7.97877863,48.0451194 8.92546433,50.3139949 C9.73031116,52.3459257 9.4466334,53.9067 10.6308104,55.7967919 C11.8125278,57.6874303 13.8928314,57.2132676 15.9258553,58.0632077 C18.3373896,59.101993 18.905565,61.1341971 21.22254,62.2199888 C24.8636178,63.9201423 27.4167177,63.9187758 31.434666,63.9171361 C33.6568085,63.9157696 34.5059287,60.6534754 34.6458546,58.4316062 L34.6458546,58.4316062" id="path214" fill="#FBC707"></path>
                                            </g>
                                        </g>
                                    </g>
                                </g>
                            </g>
                        </g>
                        <g id="g216" transform="translate(61.946903, 23.008850)" fill="#E3B310" fill-rule="nonzero">
                            <g id="g218-Clipped" transform="translate(0.000000, -0.000000)">
                                <g id="g218" transform="translate(1.618229, 0.163633)">
                                    <path d="M7.90662937,5.0684853 C8.36056844,5.08816237 8.54613415,4.42761406 8.62866852,3.99444523 C8.71092961,3.5200092 8.93666933,2.98244258 8.68961278,2.50909973 C7.30620544,1.10546873 5.13653517,-0.232572037 3.07262915,0.0374410917 C2.14507393,0.657542092 0.905418517,1.48753184 0.0183106069,2.20984429 C2.72226799,2.29128549 6.06846307,2.98490221 7.90662937,5.0684853 L7.90662937,5.0684853" id="path224"></path>
                                </g>
                            </g>
                        </g>
                        <g id="g226" transform="translate(61.946903, 23.008850)">
                            <g id="g228-Clipped" transform="translate(0.000000, -0.000000)">
                                <g id="g228" transform="translate(1.618229, 0.163633)">
                                    <g id="g234-Clipped">
                                        <mask id="mask-16" fill="white">
                                            <use xlink:href="#path-15"></use>
                                        </mask>
                                        <g id="path236"></g>
                                        <g id="g234" mask="url(#mask-16)" fill-rule="nonzero">
                                            <g transform="translate(-7.816170, -1.339134)">
                                                <path d="M35.5895341,55.0271998 C35.0705513,55.2635979 35.2126635,56.9656645 34.6458546,57.1077767 C33.55733,54.4136578 32.2315874,50.2541438 29.5363754,49.1683522 C27.0772882,48.1771198 20.6035321,54.6568883 19.1373171,52.3882861 C17.718655,50.2145164 22.6786431,43.6410085 20.2673822,42.7435155 C17.6664561,41.7522831 11.757596,43.4576292 11.7567761,40.6686778 C11.7554096,38.5886475 15.5364133,35.9393486 15.5350468,33.8593183 C15.5331338,30.9279815 9.53108082,32.6797873 6.83477564,31.5937224 C7.59097637,30.3179923 12.504778,25.5405637 12.5042315,24.0278889 C12.5034116,22.2315364 7.77572219,21.6663672 7.77490232,19.8708346 C7.77353585,17.034057 13.2568794,17.4084679 13.2563328,14.5725102 C13.2549663,13.0592888 10.9855443,12.8723566 10.9849977,11.358862 C10.9841778,9.51577643 13.1579474,9.41875755 14.1978259,7.95308912 L11.927584,5.49646158 C13.0128291,2.8479826 14.9523869,4.54895599 16.6517206,0.010658413 C16.888392,0.672026602 18.3543337,1.33339479 18.3543337,2.08986882 C18.3559735,4.64296866 16.8438453,5.96652492 16.8452117,8.51907818 C16.8498577,17.0288644 18.1766935,22.5116613 23.474198,29.3171947 C25.5564146,32.0096738 25.5102282,34.7040659 28.2065334,36.6881705 C30.9963047,38.7673809 32.5565323,40.1371236 34.638749,42.9255284 C36.5777602,45.525088 40.1237322,46.0899839 40.1250987,49.3520048 C40.1275583,52.2830684 38.0948077,53.5601649 35.5895341,55.0271998 L35.5895341,55.0271998" id="path240" fill="#E3B310"></path>
                                                <path d="M34.6458546,58.4316062 C29.3491699,54.4631238 24.4340018,56.0260844 18.3811164,53.14558 C15.0715425,51.586992 16.3450862,47.3315523 13.4607557,45.2061555 C12.4206039,44.4499547 11.3807254,44.7341791 10.2457411,44.0728109 C7.31358434,42.3253778 8.82489264,38.8736917 7.02635378,35.9431747 C5.70225093,33.7699517 3.81051928,32.7303465 3.80915282,30.1780665 C3.80915282,28.6178388 4.75337889,27.8610915 4.75255901,26.3003172 C4.75091925,24.1262743 2.29265196,23.3717133 2.29128549,21.1971237 C2.28991903,18.5024583 6.4499796,18.4057127 6.44915972,15.7113206 C6.44779326,14.9545733 6.07037612,14.5771561 6.06955624,13.8195889 C6.06818978,11.3618682 8.85796105,11.123557 10.2274305,9.09025979 C12.1169758,6.29966865 12.2098953,4.03079315 14.1939998,1.33530784 C13.6741972,1.28830151 13.3905195,1.14618933 12.869897,1.14782909 C11.2159299,1.14782909 11.1697435,3.22703949 10.2246975,4.55196221 C8.00446813,7.62541124 6.16165586,9.09271943 4.36776297,12.4968526 C3.51727628,14.1046332 4.22674397,15.4290093 3.42408349,17.0367899 C2.14917332,19.6368961 0.0221367038,20.9139926 0.0237764597,23.8453294 C0.0248696302,26.539175 1.91660128,27.8143584 1.91796775,30.5092972 C1.91878763,31.7388408 1.730489,32.4018487 1.73130887,33.6305724 C1.73185546,35.9937339 3.95399792,36.7488414 4.75939133,38.9704373 C5.56369157,41.1920332 5.32893319,42.6574283 5.32975307,45.0208631 C5.33029965,47.5261367 7.97877863,48.0451194 8.92546433,50.3139949 C9.73031116,52.3459257 9.4466334,53.9067 10.6308104,55.7967919 C11.8125278,57.6874303 13.8928314,57.2132676 15.9258553,58.0632077 C18.3373896,59.101993 18.905565,61.1341971 21.22254,62.2199888 C24.8636178,63.9201423 27.4167177,63.9187758 31.434666,63.9171361 C33.6568085,63.9157696 34.5059287,60.6534754 34.6458546,58.4316062 L34.6458546,58.4316062" id="path242" fill="#FBC707"></path>
                                            </g>
                                        </g>
                                    </g>
                                </g>
                            </g>
                        </g>
                        <g id="g244" transform="translate(70.796460, 65.486726)" fill="#E3B310" fill-rule="nonzero">
                            <g id="g246-Clipped" transform="translate(0.000000, -0.000000)">
                                <g id="g246" transform="translate(1.158755, 0.947982)">
                                    <path d="M13.530172,26.3128887 C13.0264937,16.20762 20.1739161,7.87738706 21.0845272,7.21027972 C21.0418935,6.30240157 15.4279161,1.63702291 12.9494252,0.0286957272 C11.1126253,-0.0729691349 10.729469,1.96142128 9.38842206,3.07700183 C3.53230737,9.68549116 0.461591269,17.5713503 0.0128447541,26.4049883 C-0.130633882,26.7977098 8.61500389,26.6938586 13.530172,26.3128887 L13.530172,26.3128887" id="path252"></path>
                                </g>
                            </g>
                        </g>
                        <g id="g254" transform="translate(70.796460, 65.486726)">
                            <g id="g256-Clipped" transform="translate(0.000000, -0.000000)">
                                <g id="g256" transform="translate(1.158755, 0.947982)">
                                    <g id="g262-Clipped">
                                        <mask id="mask-18" fill="white">
                                            <use xlink:href="#path-17"></use>
                                        </mask>
                                        <g id="path264"></g>
                                        <g id="g262" mask="url(#mask-18)" fill-rule="nonzero">
                                            <g transform="translate(-16.206254, -44.601359)">
                                                <path d="M35.5895341,55.0271998 C35.0705513,55.2635979 35.2126635,56.9656645 34.6458546,57.1077767 C33.55733,54.4136578 32.2315874,50.2541438 29.5363754,49.1683522 C27.0772882,48.1771198 20.6035321,54.6568883 19.1373171,52.3882861 C17.718655,50.2145164 22.6786431,43.6410085 20.2673822,42.7435155 C17.6664561,41.7522831 11.757596,43.4576292 11.7567761,40.6686778 C11.7554096,38.5886475 15.5364133,35.9393486 15.5350468,33.8593183 C15.5331338,30.9279815 9.53108082,32.6797873 6.83477564,31.5937224 C7.59097637,30.3179923 12.504778,25.5405637 12.5042315,24.0278889 C12.5034116,22.2315364 7.77572219,21.6663672 7.77490232,19.8708346 C7.77353585,17.034057 13.2568794,17.4084679 13.2563328,14.5725102 C13.2549663,13.0592888 10.9855443,12.8723566 10.9849977,11.358862 C10.9841778,9.51577643 13.1579474,9.41875755 14.1978259,7.95308912 L11.927584,5.49646158 C13.0128291,2.8479826 14.9523869,4.54895599 16.6517206,0.010658413 C16.888392,0.672026602 18.3543337,1.33339479 18.3543337,2.08986882 C18.3559735,4.64296866 16.8438453,5.96652492 16.8452117,8.51907818 C16.8498577,17.0288644 18.1766935,22.5116613 23.474198,29.3171947 C25.5564146,32.0096738 25.5102282,34.7040659 28.2065334,36.6881705 C30.9963047,38.7673809 32.5565323,40.1371236 34.638749,42.9255284 C36.5777602,45.525088 40.1237322,46.0899839 40.1250987,49.3520048 C40.1275583,52.2830684 38.0948077,53.5601649 35.5895341,55.0271998 L35.5895341,55.0271998" id="path268" fill="#CDA917"></path>
                                                <path d="M33.1348196,61.0795386 C28.0250671,52.1947949 24.4340018,56.0260844 18.3811164,53.14558 C15.0715425,51.586992 16.3450862,47.3315523 13.4607557,45.2061555 C12.4206039,44.4499547 11.3807254,44.7341791 10.2457411,44.0728109 C7.31358434,42.3253778 8.82489264,38.8736917 7.02635378,35.9431747 C5.70225093,33.7699517 3.81051928,32.7303465 3.80915282,30.1780665 C3.80915282,28.6178388 4.75337889,27.8610915 4.75255901,26.3003172 C4.75091925,24.1262743 2.29265196,23.3717133 2.29128549,21.1971237 C2.28991903,18.5024583 6.4499796,18.4057127 6.44915972,15.7113206 C6.44779326,14.9545733 6.07037612,14.5771561 6.06955624,13.8195889 C6.06818978,11.3618682 8.85796105,11.123557 10.2274305,9.09025979 C12.1169758,6.29966865 12.2098953,4.03079315 14.1939998,1.33530784 C13.6741972,1.28830151 13.3905195,1.14618933 12.869897,1.14782909 C11.2159299,1.14782909 11.1697435,3.22703949 10.2246975,4.55196221 C8.00446813,7.62541124 6.16165586,9.09271943 4.36776297,12.4968526 C3.51727628,14.1046332 4.22674397,15.4290093 3.42408349,17.0367899 C2.14917332,19.6368961 0.0221367038,20.9139926 0.0237764597,23.8453294 C0.0248696302,26.539175 1.91660128,27.8143584 1.91796775,30.5092972 C1.91878763,31.7388408 1.730489,32.4018487 1.73130887,33.6305724 C1.73185546,35.9937339 3.95399792,36.7488414 4.75939133,38.9704373 C5.56369157,41.1920332 5.32893319,42.6574283 5.32975307,45.0208631 C5.33029965,47.5261367 7.97877863,48.0451194 8.92546433,50.3139949 C9.73031116,52.3459257 9.4466334,53.9067 10.6308104,55.7967919 C11.8125278,57.6874303 13.8928314,57.2132676 15.9258553,58.0632077 C18.3373896,59.101993 20.2321274,65.4831029 22.5480093,66.5688946 C26.189907,68.2687748 28.5992549,65.8094143 31.437399,68.6442789 C33.0093782,70.2146184 32.9948937,63.3014078 33.1348196,61.0795386 L33.1348196,61.0795386" id="path270" fill="#FBC707"></path>
                                            </g>
                                        </g>
                                    </g>
                                </g>
                            </g>
                        </g>
                        <g id="g272" transform="translate(90.265487, 63.716814)" fill="#E3B310" fill-rule="nonzero">
                            <g id="g274-Clipped" transform="translate(0.000000, -0.000000)">
                                <g id="g274" transform="translate(0.445461, 0.637112)">
                                    <path d="M1.69010988,27.9629609 C2.61875827,28.2518312 16.1560359,25.6765947 21.6653422,24.1871498 C22.6975685,24.3309017 23.9771247,24.1029757 24.5767287,25.0931149 C24.4734241,25.712396 23.9992614,26.2289191 24.1238828,26.9096911 C19.4005661,31.3501499 14.4490501,35.5432789 9.23025382,39.2201581 C9.49862719,39.8186689 10.2419832,39.9419239 10.758233,40.2512912 C17.4883375,42.6204651 26.6335291,43.0252115 32.9047753,39.4111896 C37.1708735,36.9512826 38.6493866,33.1773845 38.6493866,33.1773845 C23.4059431,28.9069137 25.9953908,17.7243254 26.6127589,15.3505056 C26.6127589,15.3505056 23.979311,7.95602662 28.1330859,3.42018867 C28.1932102,2.78013731 25.9604094,-0.0820565134 23.4059431,2.1231418 C22.6538417,3.79678593 21.8984609,6.82213545 17.2355418,4.43902363 C16.2489554,3.93425212 15.2342198,5.4094858 14.2036333,5.84456768 C14.429373,6.82623484 14.1470617,9.85213095 10.3666046,9.60288806 C10.2728652,13.0687853 5.16611897,11.1808798 5.16611897,11.1808798 C0.630554311,17.6122755 1.69010988,27.9629609 1.69010988,27.9629609 L1.69010988,27.9629609" id="path282"></path>
                                </g>
                            </g>
                        </g>
                        <g id="g284" transform="translate(92.035398, 65.486726)">
                            <g id="g286-Clipped" transform="translate(0.000000, -0.000000)">
                                <g id="g286" transform="translate(0.252789, 0.155433)">
                                    <g id="g292-Clipped">
                                        <mask id="mask-20" fill="white">
                                            <use xlink:href="#path-19"></use>
                                        </mask>
                                        <g id="path294"></g>
                                        <g id="g292" mask="url(#mask-20)" fill="#CDA917" fill-rule="nonzero">
                                            <g transform="translate(0.546585, -1.858390)" id="path298">
                                                <path d="M0.207975699,15.3451084 L0.963629849,15.1554434 L4.74627328,16.4770866 C6.21194171,16.2398686 6.30568108,15.5309474 7.77134951,15.5301276 L10.7975189,16.6629256 L12.4990389,16.284142 C12.6867909,13.8726077 14.246472,12.6900704 16.6580063,12.6889773 C19.9659404,12.6870642 21.4799816,14.9083868 24.7903754,15.1425986 L25.1675192,14.3863979 L24.7876425,12.8737231 L28.1874029,3.41697788 C26.3426776,1.5744389 25.0664009,0.0153043878 22.5133011,0.016670851 C19.6757036,0.0183106069 18.5429056,2.33501232 15.8960664,3.23469169 C13.1546679,4.18137739 10.4591826,3.42654312 8.90141458,5.885357 C6.35050108,9.85821211 0.0147578026,9.34114244 0.0177640216,14.0212789 C0.0185838995,14.3522363 0.160149487,15.0611574 0.207975699,15.3451084 L0.207975699,15.3451084"></path>
                                            </g>
                                        </g>
                                    </g>
                                </g>
                            </g>
                        </g>
                        <g id="g300" transform="translate(116.814159, 65.486726)" fill="#E3B310" fill-rule="nonzero">
                            <g id="g302-Clipped" transform="translate(0.000000, -0.000000)">
                                <g id="g302" transform="translate(1.341860, 1.156368)">
                                    <path d="M7.41647893,28.0437872 C10.0974797,29.3462999 15.3119033,29.8833199 18.2661967,28.4550926 C19.5096783,27.8543954 23.6801239,25.69675 23.6801239,25.69675 C23.3904337,26.4810999 21.8627279,27.8060226 21.2232231,28.3840365 C22.2972632,28.5482854 26.5251003,26.0044775 28.1757879,24.8681267 C26.3392613,23.4661354 24.3742872,22.51781 22.7208668,20.6200659 C20.6985012,18.7846325 19.146199,15.6589846 16.4023409,14.6805969 C15.6371215,13.8347562 15.9459422,12.4721191 16.2957568,11.5224272 C16.9981189,10.8203384 17.6376237,9.80888235 18.7116637,10.1174297 C19.3511685,10.4680642 19.1134039,11.272911 19.4222246,11.7987261 C22.7700594,17.4864925 30.1598924,20.8220292 31.1300813,21.0070483 C32.2642458,19.7887097 32.480147,17.850245 32.6249921,16.1369734 C32.6659859,15.7857924 32.5020104,15.57809 32.1494629,15.4542884 C31.1601435,15.806016 30.7037448,14.959902 30.3320668,14.299627 C30.2637436,11.8984779 31.8187788,11.9044903 32.8299615,12.0690125 C34.0351821,8.07839335 31.5837471,2.20478793 28.8371561,1.05039982 C27.9926818,0.927144839 27.167338,1.29936941 26.7136722,2.00118491 C26.3611247,3.77594732 27.8533026,5.57339301 27.8533026,5.57339301 C26.2846028,4.4599988 19.5998648,-0.774921723 14.3089193,2.72650358 C11.8520185,5.4698151 11.5705271,9.83375198 10.5402138,13.4253639 C9.73673345,16.6871115 9.18194939,20.1959157 6.3779669,22.4882944 C5.8395804,22.860519 5.18094514,23.1288923 4.47858305,22.902606 C3.69423317,22.6760464 3.32255518,21.8299324 2.95087719,21.1904276 C2.95087719,21.1904276 0.718076323,16.3416696 0.346398333,16.507285 C-0.148261346,17.3952127 0.0594410607,18.7157628 0.163292264,19.7061753 C0.723542176,23.4415391 4.08230872,26.4256214 7.41647893,28.0437872 L7.41647893,28.0437872" id="path310"></path>
                                </g>
                            </g>
                        </g>
                        <g id="g312" transform="translate(116.814159, 67.256637)">
                            <g id="g314-Clipped" transform="translate(0.000000, -0.000000)">
                                <g id="g314" transform="translate(1.354841, 0.407887)">
                                    <g id="g320-Clipped">
                                        <mask id="mask-22" fill="white">
                                            <use xlink:href="#path-21"></use>
                                        </mask>
                                        <g id="path322"></g>
                                        <g id="g320" mask="url(#mask-22)" fill="#FBC707" fill-rule="nonzero">
                                            <g transform="translate(5.301877, 14.976437)" id="path326">
                                                <path d="M0.0218634112,8.95224701 C6.26386731,10.083132 4.74436023,-1.82860105 15.1458781,0.245963376 C17.302157,0.675852699 19.7344615,3.17538718 18.9309812,5.34888355 C17.0397961,10.4559031 11.4646263,11.6879063 7.77517561,11.6900927 C5.24721869,11.6914591 0.778884024,9.99157892 0.0218634112,8.95224701 L0.0218634112,8.95224701"></path>
                                            </g>
                                        </g>
                                    </g>
                                </g>
                            </g>
                        </g>
                        <g id="g328" transform="translate(122.123894, 53.097345)" fill="#E3B310" fill-rule="nonzero">
                            <g id="g330-Clipped" transform="translate(0.000000, -0.000000)">
                                <g id="g330" transform="translate(0.773070, 0.219316)">
                                    <path d="M13.5717125,13.3910661 C15.260661,13.3902462 17.0343303,13.7799615 19.3983116,14.9130328 C21.016204,15.6889106 23.5578256,12.3582932 23.5578256,12.3582932 C22.1339709,-0.0265093861 11.5192848,-0.144571807 9.31108025,0.0423603592 C9.20722904,0.332050558 9.33294366,0.744722444 9.33294366,1.07540654 C9.29194976,3.9436128 7.58113784,6.72983126 4.87827363,7.7642439 C3.14559829,8.81806032 1.10683519,9.82104431 0.013664632,11.8032358 C0.013664632,11.8032358 9.59257167,5.69295899 13.5717125,13.3910661 L13.5717125,13.3910661" id="path336"></path>
                                </g>
                            </g>
                        </g>
                        <g id="g338" transform="translate(122.123894, 53.097345)">
                            <g id="g340-Clipped" transform="translate(0.000000, -0.000000)">
                                <g id="g340" transform="translate(0.773070, 0.219316)">
                                    <g id="g346-Clipped">
                                        <mask id="mask-24" fill="white">
                                            <use xlink:href="#path-23"></use>
                                        </mask>
                                        <g id="path348"></g>
                                        <g id="g346" mask="url(#mask-24)" fill="#FBC707" fill-rule="nonzero">
                                            <g transform="translate(13.473327, 2.787585)" id="path352">
                                                <path d="M1.06857422,11.1596317 C2.23280087,8.93830909 2.44870205,7.28406874 2.44596913,4.73178877 C2.44596913,2.88952308 -0.267826787,-0.0647703557 0.027329264,0.00792548656 C8.51033281,2.0830365 8.8820108,7.98916375 9.87679601,12.4777221 L9.70462165,13.8015516 C9.18536563,13.8488312 8.88474373,13.9906701 8.36548771,13.9912167 C5.60249912,13.9925832 2.88323735,13.3798611 1.06857422,11.1596317 L1.06857422,11.1596317"></path>
                                            </g>
                                        </g>
                                    </g>
                                </g>
                            </g>
                        </g>
                        <g id="g354" transform="translate(122.123894, 53.097345)">
                            <g id="g356-Clipped" transform="translate(0.000000, -0.000000)">
                                <g id="g356" transform="translate(0.773070, 0.219316)">
                                    <g id="g362-Clipped">
                                        <mask id="mask-26" fill="white">
                                            <use xlink:href="#path-25"></use>
                                        </mask>
                                        <g id="path364"></g>
                                        <g id="g362" mask="url(#mask-26)">
                                            <g transform="translate(13.473327, 2.787585)" id="g368-Clipped">
                                                <g>
                                                    <mask id="mask-28" fill="white">
                                                        <use xlink:href="#path-27"></use>
                                                    </mask>
                                                    <g id="path370"></g>
                                                    <g id="g368" mask="url(#mask-28)" fill="#FEEC01" fill-rule="nonzero">
                                                        <g transform="translate(3.935414, 1.339134)" id="path374">
                                                            <path d="M1.708079,11.3539427 C1.9567753,10.1547346 2.46236669,8.58166219 2.45963376,7.38245409 C2.45963376,4.75228572 1.95130945,1.77913509 0,0.00901865712 C0.125714614,-0.0267826787 3.58286651,2.55036692 4.15678106,3.87364988 C5.05044799,5.91350615 5.73367959,7.54424333 5.73367959,9.7808703 C5.73367959,10.5862637 4.74982608,10.8024382 3.9436128,10.8024382 C3.51454335,10.8029848 2.11801796,11.4788375 1.708079,11.3539427 L1.708079,11.3539427"></path>
                                                        </g>
                                                    </g>
                                                </g>
                                            </g>
                                        </g>
                                    </g>
                                </g>
                            </g>
                        </g>
                        <g id="g376" transform="translate(122.123894, 56.637168)" fill-rule="nonzero">
                            <g id="g378-Clipped" transform="translate(0.000000, -0.000000)">
                                <g id="g378" transform="translate(0.363131, 0.478260)">
                                    <path d="M1.42932051,5.124237 C3.80150062,3.73973649 6.46337094,2.51975814 8.19604628,0.145664977 L8.19604628,0.0218634112 C6.56722214,1.11722031 4.3371542,0.726411837 2.72746055,1.86221605 C1.96497408,2.74987054 1.98683749,3.94743889 1.42932051,4.93785142 L1.42932051,5.124237 L1.42932051,5.124237" id="path384" fill="#CDA917"></path>
                                    <path d="M36.0145041,82.867521 C46.9079487,86.6804999 71.3594412,84.5592025 73.075719,80.5789685 C72.9718678,79.7120842 72.1984497,78.9118834 71.3731059,78.4994848 C68.4816697,76.8919775 23.5578256,63.0062517 7.18486351,44.110252 L4.57218587,46.4362456 C6.79952088,51.4932527 28.630137,80.2829925 36.0145041,82.867521 L36.0145041,82.867521" id="path386" fill="#A5A2AA"></path>
                                    <path d="M0.128447541,20.1381148 C0.347081653,20.8194333 1.01391569,21.2129747 1.6151595,21.0175705 C2.21640331,20.821893 2.52249107,20.1116054 2.30112403,19.4302868 C2.07975699,18.7492416 1.41292295,18.3551536 0.814412067,18.5505578 C0.213168259,18.7462354 -0.0929194976,19.4570695 0.128447541,20.1381148 L0.128447541,20.1381148" id="path390" fill="#A5A2AA"></path>
                                    <path d="M0.054658528,17.7003444 C0.17490729,18.0673764 0.502858458,18.2895634 0.787082803,18.1963706 C1.07130715,18.1034511 1.20795347,17.7304066 1.08770471,17.3636479 C0.967455946,16.9968892 0.639504778,16.7747022 0.355280432,16.867895 C0.06832316,16.9605412 -0.0655902336,17.3335857 0.054658528,17.7003444 L0.054658528,17.7003444" id="path392" fill="#FFFFFF"></path>
                                    <path d="M12.9404065,23.7152421 C12.7081078,23.4304712 12.4648773,23.4739247 12.4648773,23.0995138 C12.4648773,22.1544679 12.7299712,20.9599057 13.6755637,20.9593592 C14.1046332,20.9590859 14.0691051,21.5119569 14.2658758,21.8860945 C14.6594172,22.6171523 15.0857537,22.9554886 15.4792951,23.6865464 L15.4792951,24.0967587 C15.3180525,24.0964854 15.2305988,24.0964854 15.0693562,24.0973052 C14.4981746,24.0973052 14.3205343,23.4017755 13.7493527,23.4020488 C13.3585442,23.4020488 13.1891028,23.4299246 12.9404065,23.7152421 L12.9404065,23.7152421" id="path394" fill="#645B61"></path>
                                    <path d="M33.4373545,36.4460332 C33.6833179,36.4457599 31.4532499,35.0585265 31.3111378,32.8464958 C31.2455475,31.8429652 26.3590751,34.2186982 18.0209167,26.3377583 C17.3950765,25.7460797 16.3838938,24.8996924 15.6077427,25.3178302 C15.0638903,25.5965887 16.6052608,26.3484167 16.8867522,26.9051138 C17.4497351,28.0365454 23.7190682,34.9839176 31.450517,36.1634486 C32.1310157,36.2667532 32.75139,36.4460332 33.4373545,36.4460332 L33.4373545,36.4460332" id="path396" fill="#645B61"></path>
                                </g>
                            </g>
                        </g>
                        <g id="g398" transform="translate(136.283186, 81.415929)">
                            <g id="g400-Clipped" transform="translate(0.000000, -0.000000)">
                                <g id="g400" transform="translate(1.672202, 0.897081)">
                                    <g id="g406-Clipped">
                                        <mask id="mask-30" fill="white">
                                            <use xlink:href="#path-29"></use>
                                        </mask>
                                        <g id="path408"></g>
                                        <g id="g406" mask="url(#mask-30)" fill="#E0E1E2" fill-rule="nonzero">
                                            <g transform="translate(5.766475, 6.422377)" id="path412">
                                                <path d="M0.0027329264,0.010658413 C0.297888978,-0.0497392605 6.51802947,2.84360992 6.81045259,2.84360992 C7.93915119,2.84279004 9.65542897,3.78701611 10.7841276,3.78674282 C11.101147,3.78646953 11.4345641,3.55827017 11.7297201,3.40850581 C12.3172993,4.49074466 11.8636335,3.92639536 12.475809,4.94932971 C12.3309639,4.94932971 12.2571749,5.06903189 12.1095969,5.06985177 C9.75654725,5.07067164 1.40199124,2.32626695 0.0027329264,0.010658413 L0.0027329264,0.010658413"></path>
                                            </g>
                                        </g>
                                    </g>
                                </g>
                            </g>
                        </g>
                        <g id="g414" transform="translate(3.539823, 10.619469)">
                            <g id="g416-Clipped" transform="translate(0.000000, -0.000000)">
                                <g id="g416" transform="translate(1.021427, 0.036211)">
                                    <path d="M132.071401,80.6500245 C130.592888,80.4026947 130.161086,80.0367559 130.31413,79.2920334 C130.508167,78.3611987 132.585191,76.8561761 133.678362,76.9583876 C134.585694,77.0433816 135.233397,78.3163787 135.074887,79.0876105 C134.883583,79.9919359 133.090783,80.3390175 132.071401,80.6500245 L132.071401,80.6500245" id="path422" fill="#FEEC01" fill-rule="nonzero"></path>
                                    <path d="M152.685865,81.7705244 C151.267476,80.2113899 149.94474,80.3772785 149.942007,78.273745 C149.939274,74.3263061 152.207603,70.6611786 153.718911,67.020374 C154.003136,68.3439303 155.405127,68.0730972 155.041648,68.8161799 C152.776052,73.4504032 152.685865,81.345281 152.685865,81.7705244 L152.685865,81.7705244" id="path424" fill="#645B61" fill-rule="nonzero"></path>
                                    <path d="M143.057765,55.585536 C145.927338,55.5841702 148.113679,59.6056714 146.963117,62.4017284 C146.091314,59.1077322 144.94895,57.4737155 143.057765,55.585536 L143.057765,55.585536" id="path426" fill="#645B61"></path>
                                    <path d="M121.773735,93.3198713 C122.962558,96.6045756 142.6041,123.614087 149.023744,128.006447 C149.493807,128.328659 143.484102,129.30568 142.404596,128.974996 C130.756864,125.40716 120.57398,94.7267818 120.57398,93.9413388 C120.57398,93.9093636 121.341932,93.5256607 121.773735,93.3198713 L121.773735,93.3198713" id="path428" fill="#645B61" fill-rule="nonzero"></path>
                                    <path d="M123.815231,13.6539736 C124.75809,13.9603346 124.774488,14.3158884 125.176228,15.2289591 C125.370266,15.6812584 125.422191,16.2559928 125.916851,16.2559928 C127.906421,16.2546264 128.914871,15.2735058 130.374254,13.9332787 C132.208048,12.2492494 134.107431,7.53604455 134.20855,6.04687295 C132.773763,8.01867935 128.070397,13.2814757 123.815231,13.6539736 L123.815231,13.6539736" id="path430" fill="#C4C1C6" fill-rule="nonzero"></path>
                                    <path d="M185.705082,125.907012 L189.110308,127.796011 L158.851347,117.411711 L158.662775,118.167911 C163.248626,122.751302 172.136102,123.219453 177.763198,126.478467 L165.850372,124.215331 C161.925889,123.461043 159.701287,120.01127 157.148734,118.168731 C155.730345,117.176679 155.918917,116.940554 154.6891,115.711831 C152.751455,113.774732 148.919892,111.696888 146.367339,110.421705 C146.555911,111.320018 152.278659,117.509549 152.609343,118.360583 C149.583994,117.274518 145.375287,111.84064 142.773541,110.045381 C137.714894,106.549695 135.159608,104.187353 130.666677,100.029752 C129.056983,98.565177 128.491268,97.9035355 127.638595,95.8710581 C127.212258,94.8787326 124.471133,93.1783057 124.987656,92.090601 C125.367533,91.3344003 128.868411,97.8562559 133.880599,100.784587 C139.554154,104.090881 148.873433,111.555323 154.6891,114.577119 C167.503792,121.283448 172.182562,119.153678 185.705082,125.907012 L185.705082,125.907012" id="path432" fill="#C4C1C6" fill-rule="nonzero"></path>
                                    <path d="M133.314883,104.56641 C139.398377,110.608364 144.577272,114.585592 148.900762,120.477508 C152.702263,125.664602 162.248375,125.860553 167.902799,128.326472 L172.464053,129.935893 C172.177096,129.986452 163.912727,128.731492 162.013343,129.337108 C158.558924,130.438751 153.082139,122.691725 152.893567,127.326494 C152.866238,128.031316 147.761132,120.881161 145.099261,118.061327 C141.155649,113.882136 137.212036,108.695315 133.314883,104.56641 L133.314883,104.56641" id="path434" fill="#C4C1C6" fill-rule="nonzero"></path>
                                    <path d="M139.136016,28.4074035 C139.174277,28.0540361 140.081609,27.1439716 140.081609,26.767101 C138.84086,27.163922 136.48781,28.2387819 135.151409,28.4095898 C135.244329,28.6170189 139.021233,29.4573938 139.136016,28.4074035 L139.136016,28.4074035" id="path436" fill="#C4C1C6" fill-rule="nonzero"></path>
                                    <path d="M99.2719117,92.0990731 C105.511183,90.7774299 107.965897,84.7248178 116.821672,85.4733663 C119.335964,85.6857147 121.571498,87.4140174 120.63957,89.0674379 C118.447763,92.9520194 112.547102,94.1771903 108.269525,94.1799233 C105.334636,94.1812897 100.149454,92.8894354 99.2719117,92.0990731 L99.2719117,92.0990731" id="path438" fill="#FBC707" fill-rule="nonzero"></path>
                                    <path d="M75.2486688,76.4221874 C73.3569372,75.2882962 71.654324,73.5403165 71.6535041,71.3187206 C71.6521377,69.9943445 73.6384286,70.7499987 74.9619848,70.7494521 C76.2385347,70.7486322 77.3718793,69.4245294 78.648156,69.4237095 C79.2157848,69.4237095 80.5398876,69.8008533 81.1075164,69.80058 C79.4994625,70.4160351 77.3254196,70.7480856 77.3262395,72.4498789 C77.3270593,73.7737084 76.7602504,74.4358965 77.5169977,75.4755017 L75.2486688,76.4221874 L75.2486688,76.4221874" id="path440" fill="#FEEC01" fill-rule="nonzero"></path>
                                    <path d="M68.2184889,12.8898474 C67.768376,12.3285043 66.812125,11.8363042 66.1376388,11.4987878 C68.4964275,9.1383593 69.8735492,9.13671954 73.1322906,8.34909015 C70.4357121,9.2495894 69.4903929,10.3419401 68.2184889,12.8898474 L68.2184889,12.8898474" id="path442" fill="#E0E1E2" fill-rule="nonzero"></path>
                                    <path d="M128.693504,18.3062342 C128.925803,17.9982334 127.98021,18.1887184 128.543193,16.7107518 C127.925552,17.2349271 127.173997,17.1346287 126.067162,17.047175 C125.875857,17.4429028 127.887291,18.8312294 128.693504,18.3062342 L128.693504,18.3062342" id="path444" fill="#C4C1C6" fill-rule="nonzero"></path>
                                    <path d="M62.9586988,66.8875538 C62.3440636,64.1201925 60.881948,62.7974561 60.8805815,59.9098461 C60.8792151,58.8863652 61.7758882,58.4649479 62.5771823,58.4644013 C63.9914717,58.4638547 64.4637214,60.0281818 65.4074008,61.3509182 C64.5591005,62.6148966 64.0884906,63.0363139 64.0893104,64.7208897 C64.0893104,65.6836997 63.7124399,66.1652413 63.902105,67.127778 L62.9586988,66.8875538 L62.9586988,66.8875538" id="path446" fill="#FEEC01" fill-rule="nonzero"></path>
                                    <path d="M122.066158,96.3553327 L131.150405,112.649313 C131.256989,112.042877 131.399101,112.113933 131.721587,111.650155 C133.896996,113.432297 133.596374,116.85556 135.342714,119.101479 C138.627692,123.272198 141.587451,124.518686 145.547461,128.047167 C144.798639,124.553121 141.516395,124.269443 138.911916,121.987996 C135.807312,119.243591 134.842589,116.747883 133.306684,112.896916 C132.093265,109.830846 130.877112,111.055744 129.578972,108.025748 C127.548408,103.28904 124.59958,100.13415 122.066158,96.3553327 L122.066158,96.3553327" id="path448" fill="#A5A2AA" fill-rule="nonzero"></path>
                                    <path d="M132.052271,58.542563 C134.085568,58.6753832 136.239114,59.9896475 135.110415,60.0057718 C130.587422,60.0721819 131.527549,62.6832198 129.570774,62.6840397 C129.108909,62.6840397 128.23164,62.6848596 127.977477,61.793379 C127.977477,61.793379 127.212258,58.2266367 132.052271,58.542563 L132.052271,58.542563" id="path450" fill="#FBC707" fill-rule="nonzero"></path>
                                    <path d="M115.214711,91.5262517 C112.791425,91.6426744 112.301685,90.8247095 112.443524,90.1428444 C112.621984,89.2904447 116.635833,87.2762779 117.636084,87.3708371 C118.464161,87.4484523 119.404287,88.0939695 119.256709,88.7996111 C119.084535,89.6282344 117.059437,91.3513445 115.214711,91.5262517 L115.214711,91.5262517" id="path452" fill="#FEEC01" fill-rule="nonzero"></path>
                                    <path d="M55.0026034,51.282544 C54.6235466,50.5274365 54.2453095,50.0543669 54.2444897,49.2038802 C54.2444897,48.7308106 54.4803412,48.4941392 54.6219068,48.068076 C55.4732134,48.6365247 55.9932893,49.0601283 56.702757,49.7693227 C55.9471028,50.194566 55.5218595,50.6211758 55.0026034,51.282544 L55.0026034,51.282544" id="path454" fill="#FEEC01" fill-rule="nonzero"></path>
                                    <path d="M100.983817,83.1987517 C89.7364582,90.6741253 85.735454,89.7738993 72.309953,91.3885123 L64.4776593,90.79902 C59.467112,90.801753 56.7248937,90.8031194 51.7132532,90.805579 C31.6691511,90.8162375 19.5877034,78.7356096 0.0139379246,73.9240194 C4.34917907,89.7003836 21.4559319,85.2432539 33.4663235,91.1939279 C29.8741651,91.9517684 27.4158978,92.1419801 24.3916414,94.2239234 C27.0390272,94.6953532 28.6462612,94.221737 31.2939203,94.2200973 C35.0751973,94.217911 35.8338577,99.1344455 39.6165011,99.1322592 C43.1146469,99.1303462 45.0055587,99.129253 48.5034312,99.1276132 C57.1077767,99.1229673 61.5493286,97.0407506 70.1525809,94.9558011 C57.013764,100.163119 47.6023853,104.317167 33.7986474,104.323999 C30.5841793,104.325913 29.9856685,103.51314 26.7714737,103.515053 C23.0842094,103.516966 24.7346237,106.216278 21.0468128,106.217917 C39.6727994,106.208352 47.5567455,104.63446 65.6126436,99.3298498 C73.1757441,97.1514342 77.7173212,95.4247713 84.9010916,92.3010364 C93.1247404,88.7039586 93.3739833,89.2538234 100.983817,83.1987517 L100.983817,83.1987517" id="path456" fill="#FFFFFF" fill-rule="nonzero"></path>
                                    <path d="M22.0555359,90.3308697 L33.230472,92.2010113 C35.5455339,91.9520417 42.5593163,93.7139593 43.4018775,93.9202953 C39.64629,93.790208 35.5471737,93.4904059 31.7902198,93.3597721 C27.1907046,93.2004425 24.815245,91.5240654 20.2151833,90.8334549 L12.2027897,90.8217033 C12.2027897,90.8217033 6.65385591,91.4054564 6.6541292,90.8389208 C6.6541292,90.3428946 4.97365276,89.3852772 5.39561659,89.1524319 C6.23927097,88.65012 19.3728954,90.2376769 22.0555359,90.3308697 L22.0555359,90.3308697" id="path458" fill="#C4C1C6" fill-rule="nonzero"></path>
                                    <path d="M15.5079909,102.170727 C19.3368207,102.168814 21.4646772,102.167447 25.2935071,102.165534 C40.0906638,102.157882 48.1251942,98.2293003 62.7791455,96.0940649 C72.7056808,94.6237505 77.7626878,91.6902273 87.3571725,88.5175731 C93.5491639,86.4815429 97.7084046,86.290238 102.859424,82.4584019 L103.615898,81.8910464 L102.859424,81.7022012 C87.8294222,89.2264942 78.4232361,90.3663978 62.0215783,94.0148545 C56.4909552,95.247131 53.2764871,95.5797282 47.8406965,97.0478562 C43.8694812,98.137474 41.8856499,100.076759 37.7725957,100.078945 C31.9110151,100.081678 28.6014412,100.083591 22.7395874,100.086597 C19.6199519,100.087964 17.6812139,99.9953174 15.5079909,102.170727 L15.5079909,102.170727" id="path460" fill="#C4C1C6" fill-rule="nonzero"></path>
                                    <path d="M113.41098,12.4883805 C113.711602,14.4891559 114.397566,14.9742503 114.375703,15.0045858 C113.34539,16.4098566 112.752345,16.4114963 110.766873,17.2157966 C111.645236,15.4481398 111.663547,14.2382733 113.41098,12.4883805 L113.41098,12.4883805" id="path462" fill="#A5A2AA" fill-rule="nonzero"></path>
                                    <path d="M80.6983973,0.00459131635 C88.5405296,3.04529989 88.8296733,12.4206039 88.8296733,12.9734749 C88.8296733,12.9734749 87.1292465,14.2983976 85.3315275,13.0694006 C86.653444,8.90879348 83.846182,3.44649348 80.6983973,0.00459131635 L80.6983973,0.00459131635" id="path464" fill="#645B61" fill-rule="nonzero"></path>
                                    <path d="M89.9783222,39.9193093 C89.0802826,39.9193093 87.3317563,39.872303 87.3317563,38.9742634 C87.3301165,36.7064811 90.2136272,36.1366659 91.6773826,34.4335062 C94.2288427,31.5021693 95.9298161,30.0826874 98.1030391,26.8668529 C99.850199,24.3132064 103.958334,14.9031942 105.094138,15.9898058 C109.275516,19.9929964 109.10908,19.8437786 109.06672,19.8642755 C104.8602,21.8994858 101.460439,28.8034045 99.2402098,31.9722327 C96.5477307,35.8499819 94.7530179,39.9163031 89.9783222,39.9193093 L89.9783222,39.9193093" id="path466" fill="#645B61" fill-rule="nonzero"></path>
                                    <path d="M106.705745,22.6157858 C107.551039,21.6650007 110.089381,21.4982922 109.201453,19.6830825 C108.746148,18.4453402 105.377269,16.2737568 105.023082,15.8725632 C104.487155,16.3683161 105.14989,18.9842732 105.024449,19.6065606 C104.490161,22.2747166 103.218531,23.0989672 101.83731,25.4935573 C101.280066,26.5471005 100.741953,28.7681498 100.516213,29.9859418 C100.516213,29.9859418 104.623528,24.8453072 106.705745,22.6157858 L106.705745,22.6157858" id="path468" fill="#A5A2AA" fill-rule="nonzero"></path>
                                    <path d="M86.9114322,41.5639845 C91.6216309,43.1865229 91.5459288,41.4303444 94.0044694,41.6189163 C94.0044694,41.6189163 95.8470084,51.828856 98.1191634,57.9257415 C98.4001082,58.678936 98.5930528,59.722094 98.4990402,60.5255744 C98.5577981,60.528034 98.2077102,62.0948207 96.2913822,60.995911 C95.14246,60.3378224 88.0953359,45.2042424 86.9114322,41.5639845 L86.9114322,41.5639845" id="path470" fill="#645B61" fill-rule="nonzero"></path>
                                    <path d="M93.937786,41.4915619 C94.4474768,43.0793921 96.8046258,54.609062 98.1801076,58.2692704 C97.3222421,58.0632077 96.2025621,53.5962395 96.0273815,52.7539516 C95.5171442,50.3396844 94.5792038,49.2126256 93.9905315,46.829787 C93.5447912,45.0186767 93.5117228,42.6828445 91.6530595,42.684211 C91.0012566,42.6850309 90.6200133,42.6850309 89.9690303,42.6850309 C89.5722094,42.5904716 89.3016497,42.5743473 88.9518351,42.3682847 C88.8091763,42.2884832 88.5514614,41.9897744 88.7129773,42.0031657 C91.8656812,42.2551415 92.7309257,41.4926551 93.937786,41.4915619 L93.937786,41.4915619" id="path472" fill="#A5A2AA" fill-rule="nonzero"></path>
                                    <path d="M85.7677025,15.6812584 C87.6102415,15.6804385 88.9250524,15.6020035 90.768138,15.549258 C93.5841453,18.8888941 78.8550385,44.6661292 78.2220927,45.137559 C76.2808951,46.5871032 71.7994424,46.6111529 72.5356928,45.3837957 C79.7246557,33.3996401 84.0219091,28.6719507 85.2823348,19.2305099 C85.4318259,18.1089169 85.0314521,17.7612887 85.0309056,16.6284907 C85.0300857,16.1548745 85.2932665,15.6812584 85.7677025,15.6812584 L85.7677025,15.6812584" id="path474" fill="#645B61" fill-rule="nonzero"></path>
                                </g>
                            </g>
                        </g>
                        <g id="g476" transform="translate(76.106195, 24.778761)">
                            <g id="g478-Clipped" transform="translate(0.000000, -0.000000)">
                                <g id="g478" transform="translate(0.904934, 1.399941)">
                                    <g id="g484-Clipped">
                                        <mask id="mask-32" fill="white">
                                            <use xlink:href="#path-31"></use>
                                        </mask>
                                        <g id="path486"></g>
                                        <g id="g484" mask="url(#mask-32)" fill="#A5A2AA">
                                            <g transform="translate(10.521767, -0.136646)" id="path490">
                                                <path d="M2.26668916,0.0470063341 C3.77936392,0.0464597488 5.45765402,0.0464597488 6.97005549,0.044819993 C7.84459194,0.044000115 8.41249405,0.871256937 8.41331392,1.74579338 C8.41386051,3.56646895 7.46881456,4.46450857 7.2816091,6.28436426 C6.88150868,10.0194548 2.22952136,18.9093911 0.00929194976,21.8882808 C-0.0385342622,21.7232121 2.93543625,12.9521581 3.21829413,11.8655466 C4.11496728,8.57947585 4.91735447,5.97854979 4.91571472,2.59873971 C4.91434825,0.920996197 3.94497926,-0.213168259 2.26668916,0.0470063341 L2.26668916,0.0470063341"></path>
                                            </g>
                                        </g>
                                    </g>
                                </g>
                            </g>
                        </g>
                        <g id="g492" transform="translate(76.106195, 46.017699)" fill="#645B61" fill-rule="nonzero">
                            <g id="g494-Clipped" transform="translate(0.000000, -0.000000)">
                                <g id="g494" transform="translate(1.396861, 0.794597)">
                                    <path d="M7.58578381,10.1965484 C12.5039582,14.1655774 14.0210056,23.0514143 21.2094219,27.2079221 C20.7839053,27.5391528 20.2878791,28.365863 19.8866855,27.9649427 C18.1832525,26.2639693 -0.679678796,11.5001543 0.0226832891,11.7135958 C4.37268224,13.0341459 6.18761866,9.06894297 7.58578381,10.1965484 L7.58578381,10.1965484" id="path500"></path>
                                    <path d="M35.3673471,18.3283709 C34.6964137,19.4671813 33.4991186,20.2047982 32.0760839,20.2056181 C30.6535957,20.2061646 30.3573465,18.5729678 30.3565266,17.2614364 C30.3565266,16.4691611 30.35598,16.0231475 30.3551601,15.2322386 C30.3551601,14.4894292 30.8902671,10.7764754 30.8899938,9.11868223 C31.2108394,4.28468201 30.0266624,2.56020545 30.0258425,0.852673037 C30.0258425,0.530734307 30.1603025,0.308000805 30.2403772,0.0109317056 C31.663412,0.505318091 31.9323319,1.71709766 33.35564,2.187161 C34.5903762,2.6066652 37.2363955,2.60365898 36.7862825,3.74356258 C34.2607852,10.1402501 34.6524136,15.7586002 34.6524136,15.7586002 C34.7874202,16.574652 34.7494325,17.7593756 35.3673471,18.3283709 L35.3673471,18.3283709" id="path502"></path>
                                </g>
                            </g>
                        </g>
                        <g id="g504" transform="translate(106.194690, 46.017699)">
                            <g id="g506-Clipped" transform="translate(0.000000, -0.000000)">
                                <g id="g506" transform="translate(1.315898, 0.794597)">
                                    <g id="g512-Clipped">
                                        <mask id="mask-34" fill="white">
                                            <use xlink:href="#path-33"></use>
                                        </mask>
                                        <g id="path514"></g>
                                        <g id="g512" mask="url(#mask-34)" fill="#A5A2AA" fill-rule="nonzero">
                                            <g transform="translate(2.213670, 1.339134)" id="path518">
                                                <path d="M2.10735955,13.3432399 C1.52360647,12.6714865 1.60286133,9.66772714 1.60286133,8.81642057 C1.60149487,7.14332303 2.29784452,6.26195426 2.29729793,4.58858343 C2.29565818,3.58778578 2.18278832,2.88624357 1.46949453,2.11063906 C0.869617181,1.45282367 0.0270559714,1.22981688 0.0262360934,0.377963721 C0.0262360934,0.183652654 0.220547161,0.0185838995 0.431255786,0.0185838995 C1.24211505,0.0185838995 1.64686145,0.362659333 2.42410572,0.556150523 C3.68808418,0.884648276 4.95206264,1.40581734 4.95206264,2.61568386 C4.95370239,4.19941471 3.94907865,4.91653459 3.57712737,6.47020325 C3.18932511,8.09930068 2.55965887,11.7308133 2.10735955,13.3432399 L2.10735955,13.3432399"></path>
                                            </g>
                                        </g>
                                    </g>
                                </g>
                            </g>
                        </g>
                        <g id="g520" transform="translate(107.964602, 23.008850)" fill-rule="nonzero">
                            <g id="g522-Clipped" transform="translate(0.000000, -0.000000)">
                                <g id="g522" transform="translate(1.076425, 0.846865)">
                                    <path d="M13.7602844,10.8103637 C14.2440124,9.73632359 18.9719751,6.25648841 16.4932108,1.18335713 C16.4303535,1.04999032 20.0241517,4.18656995 19.1414165,6.50846422 C18.9446458,7.02252768 14.6894794,10.3080518 13.7602844,10.8103637 L13.7602844,10.8103637" id="path528" fill="#FFFFFF"></path>
                                    <path d="M4.51124161,23.8628202 C1.98027847,24.7072944 0.92236266,22.3780212 0.0213168259,21.2247263 C5.8260525,16.2374089 11.5794092,7.46471517 12.2298456,4.78808705 C12.6780456,2.89553552 14.0991673,-1.01637533 15.6760658,0.265367153 C17.8350777,2.01553322 18.269613,3.37653057 18.1356996,5.98510882 C18.0619106,7.47619346 13.3066186,11.150613 10.2430081,14.9176788 C7.84158572,17.8725188 6.04086052,23.3523095 4.51124161,23.8628202 L4.51124161,23.8628202" id="path530" fill="#645B61"></path>
                                </g>
                            </g>
                        </g>
                        <g id="g532" transform="translate(107.964602, 23.008850)">
                            <g id="g534-Clipped" transform="translate(0.000000, -0.000000)">
                                <g id="g534" transform="translate(1.076425, 0.846865)">
                                    <g id="g540-Clipped">
                                        <mask id="mask-36" fill="white">
                                            <use xlink:href="#path-35"></use>
                                        </mask>
                                        <g id="path542"></g>
                                        <g id="g540" mask="url(#mask-36)" fill="#A5A2AA" fill-rule="nonzero">
                                            <g transform="translate(10.877047, -0.409939)" id="path546">
                                                <path d="M2.11528503,13.0767795 C3.77417136,11.3829118 5.37020038,9.60787605 7.2258574,8.0763441 C7.72871586,7.45023066 7.78064146,5.98729516 7.93095241,5.18818748 C8.83555105,0.324944949 3.77417136,-0.0937393755 3.75230795,0.0281491419 C4.08025912,0.913617296 3.88895427,4.39427236 3.9545445,5.38167867 C3.91355061,8.18210835 -0.445467003,12.0904664 0.054658528,15.0753686 C0.0710560864,15.1773068 2.02783139,13.0363322 2.11528503,13.0767795 L2.11528503,13.0767795"></path>
                                            </g>
                                        </g>
                                    </g>
                                </g>
                            </g>
                        </g>
                        <g id="g548" transform="translate(109.734513, 5.309735)" fill="#645B61" fill-rule="nonzero">
                            <g id="g550-Clipped" transform="translate(0.000000, -0.000000)">
                                <g id="g550" transform="translate(0.914501, 1.000592)">
                                    <path d="M5.99146079,0.00404473107 C9.21166797,8.88993629 6.94607198,17.779326 3.16561489,19.860996 C1.79969828,20.6139173 1.51028137,17.1668772 1.84096547,16.8364664 C7.51178775,13.2399352 6.039287,0.901865712 5.99146079,0.00404473107 Z" id="path556"></path>
                                </g>
                            </g>
                        </g>
                    </g>
                </g>
            </g>
        </g>
    </g>
</svg>