<svg width="200" height="200" viewBox="0 0 200 200" fill="none" xmlns="http://www.w3.org/2000/svg">
<path d="M0 59.4L0.2 48.6L1.4 48.1L1.6 36.9L0.4 37.3L0.6 26.5L1.9 26C5 24.7 6.6 24.1 9.7 23L12.5 22L11.9 54.7L10.6 55.2C7.5 56.3 6 56.9 2.9 58.2L0 59.4ZM4.2 51.4V53.3C5.4 52.8 6.5 52.4 7.9 51.9L8.3 27.9C7.1 28.4 6 28.8 4.7 29.3V31.2L5.9 30.7L5.4 50.9L4.2 51.4Z" fill="#008752"/>
<path d="M12.8 54L13 42.4L14.4 41.9C16.9 41 18.2 40.5999 20.7 39.7999L21.7 39.5C18.6 39.2 13.3 38.5 13.6 31.9C13.9 24.7 18.2 19.7 26 17.5C28.1 16.9 30.2 16.4 32.2 16.1L34.6 15.7L34.3001 26.9L32.8001 27.2999C30.5001 27.8999 29.4 28.2 27.1 28.9L26.8 29C30 29.4 35.2 30.3999 35 36.7999C34.7 46.4999 27.5001 49.8 22.1 51.4C19.9 52.1 17.8 52.6 15.8 53.2L12.8 54ZM17.1 45.4L17 48.7C18.3 48.3 19.6 47.9999 20.9 47.5999C27.7 45.4999 30.7 42.2999 30.9 36.7999C31 34.1999 29.8 33.7 25.9 33.2C23.5 32.9 20.8 32.5 20.1 30C19.4 27.7 21.4 25.2999 24.8 24.2999C25.1 24.1999 25.4 24.2 25.6 24.1C25.7 24.1 25.9 24 26 24L28.7 23.2V24.4C29.2 24.3 29.7 24.1 30.3 24V20.9C29.2 21.1 28.1 21.4 27 21.7C20.9 23.4 17.8 26.9 17.6 32.4C17.5 34.9 18.5 35.4 22.4 35.7C24.7 35.9 27.6 36.2 28.3 38.9C28.6 39.9 29 43.2999 24.2 44.7999C23.8 44.8999 23.4 44.9999 23.1 45.0999C22.7 45.1999 22.4 45.3 22 45.4L19.3 46.2999V44.7999C18.5 44.8999 17.8 45.1 17.1 45.4ZM23.3 39.7999V40.5999C24 40.2999 24.2 40.1 24.2 40C24 39.9 23.7 39.7999 23.3 39.7999Z" fill="#008752"/>
<path d="M35.8999 47.3999L36.1999 25.3999L34.8999 25.6999L34.9999 15.1999L36.4999 14.7999C39.6999 13.9999 41.3999 13.5999 44.6999 12.8999L47.1999 12.3999L46.9999 33.2999L47.2999 33.1999C49.8999 32.6999 51.1999 32.3999 53.7999 31.8999L56.1999 31.4999L56.0999 42.9999L54.3999 43.2999C48.9999 44.2999 43.5999 45.3999 38.3999 46.6999L35.8999 47.3999ZM40.2999 20.1999L39.9999 42.1999C43.9999 41.2999 47.9999 40.3999 52.0999 39.6999V36.4999C51.2999 36.5999 50.5999 36.7999 49.6999 36.9999V37.9999L48.0999 38.2999C46.9999 38.4999 46.3999 38.5999 45.2999 38.8999L42.7999 39.3999L42.9999 17.3999C41.5999 17.6999 40.4999 17.9999 38.9999 18.2999V20.3999L40.2999 20.1999Z" fill="#008752"/>
<path d="M54.7 43.3L54.8 36.3L62.3 9.70005L63.6 9.50005C66.6 9.10005 68.2 8.90005 71.2 8.50005L72.9 8.30005L73.4 9.90005C76.1 19.1 78.8 28.2001 81.5 37.4001L82.2 39.8L79.7 40C76.8 40.2 75.4 40.4001 72.5 40.7001L70.7 40.9001L69.3 35.1C68.4 35.2 67.6 35.3001 66.8 35.4001V41.3L65 41.5C61.8 41.9 60.2 42.2001 57 42.7001L54.7 43.3ZM58.8 37.1V38.4001C60.2 38.2001 61.3 38 62.7 37.8V37.2001L60.8 37.5L62 32L63.4 31.8C66.3 31.4 67.6999 31.2 70.5999 30.9L72.4 30.7001L73.8 36.5C74.9 36.4 75.8 36.3001 76.8 36.2001C74.5 28.4001 72.2 20.6 69.9 12.8C68.3 13 67.1 13.1 65.4 13.4L58.8 37.1ZM62.5 30.7001L65.5999 18.5L69.5999 18.6L72.0999 29.5L69.8 29.8C68.1 30 67.2 30.1 65.5 30.3L62.5 30.7001Z" fill="#008752"/>
<path d="M81.2 40L81.2999 7.7L83.2 7.6C85.9 7.4 87.2999 7.4 90.0999 7.2L91.3999 7.1L91.9999 8.3C92.6999 9.7 93.3999 11.2 94.0999 12.6V7H96.0999C99.0999 7 100.7 7 103.7 7H105.7V39.3H103.6C100.9 39.3 99.5999 39.3 96.8999 39.3H95.5999L94.9999 38.2C93.7999 35.9 92.5999 33.5 91.3999 31.2V39.5L89.3999 39.6C86.8999 39.7 85.5999 39.8 83.0999 39.9L81.2 40ZM85.2999 11.5L85.2 35.6C86 35.6 86.6999 35.5 87.3999 35.5V22.7L91.2999 21.8C93.5999 26.3 95.9 30.8 98.2 35.2C99.5 35.2 100.5 35.2 101.6 35.2V11.1C100.4 11.1 99.4 11.1 98.2 11.1V13.2H99.4999V24L95.5999 24.9C93.3999 20.4 91.0999 15.8 88.8999 11.3C87.5999 11.4 86.5999 11.4 85.2999 11.5Z" fill="#008752"/>
<path d="M122 40.2001C121.3 40.2001 120.6 40.2001 119.9 40.1001C116 39.8001 114 39.7001 110 39.5001L108 39.4001V17.5001H106.7V7.1001L108.8 7.2001C112.8 7.3001 114.9 7.4001 118.9 7.7001C130.7 8.5001 131.7 15.8001 131.8 24.6001C131.8 29.5001 131.8 35.1001 128.4 38.2001C126.8 39.5001 124.7 40.2001 122 40.2001ZM112.1 35.5001C115 35.6001 117 35.7001 120.3 36.0001C122.9 36.3001 124.6 36.0001 125.7 35.0001C127.7 33.2001 127.7 28.6001 127.7 24.5001C127.7 15.2001 126.4 12.2001 118.6 11.7001C115.4 11.5001 113.5 11.4001 110.8 11.3001V13.5001H112.1V35.5001ZM120 33.9001C119.7 33.9001 119.4 33.9001 119.1 33.9001L115 33.6001L114.9 13.4001L117.1 13.5001C118 13.6001 118.4 13.6001 119.3 13.7001C124.8 14.1001 124.8 17.4001 124.9 23.8001C124.9 29.0001 124.9 31.3001 123.3 32.8001C122.4 33.7001 121.2 33.9001 120 33.9001ZM119.1 29.8001H119.4C120.3 29.9001 120.6 29.8001 120.6 29.8001C120.8 29.4001 120.8 26.7001 120.8 23.9001C120.8 21.5001 120.8 18.6001 120.4 18.1001C120.4 18.1001 120.2 17.9001 119 17.9001L119.1 29.8001Z" fill="#008752"/>
<path d="M155.1 45.0999L152.6 44.6999C146.7 43.4999 140.8 42.4999 134.9 41.6999L133.2 41.3999L133 19.4999L131.9 19.3999V8.8999L134.2 9.1999C140.3 10.0999 146.5 11.0999 152.6 12.2999L154.2 12.5999L154.3 23.0999L153.4 22.8999L153.5 33.3999L155 33.6999L155.1 45.0999ZM137.3 37.8999C141.9 38.5999 146.5 39.3999 151 40.1999V37.0999C150 36.8999 149.2 36.6999 148.3 36.5999V37.5999L145.9 37.1999C144.3 36.8999 143.5 36.7999 141.9 36.4999L140.2 36.1999L140.1 26.9999L142.5 27.3999C145.3 27.8999 147.2 28.1999 149.5 28.5999V26.1999C146.8 25.6999 145 25.2999 141.8 24.7999L140.1 24.4999L140 16.1999L142.4 16.5999C145.6 17.0999 147.6 17.4999 150.3 17.9999V15.8999C145.6 14.9999 140.8 14.1999 136.1 13.4999V15.5999L137.2 15.7999L137.3 37.8999Z" fill="#008752"/>
<path d="M179.2 51.6001L176.5 50.8001C173.3 49.8001 171.7 49.4001 168.5 48.5001L164.8 47.5001C162.1 46.8001 160.7 46.5001 158 45.8001L156.4 45.4001L156.1 23.4001L154.9 23.1001L154.8 12.6001L157.3 13.2001C160.8 14.0001 162.6 14.4001 166.1 15.3001C171.4 16.6001 178.5 19.3001 178.5 28.7001C178.5 32.0001 177.3 34.3001 176.1 35.6001C176.4 36.4001 176.7 37.4001 177.1 38.3001C177.7 40.1001 178.5 42.1001 179 43.7001L179.1 44.0001L179.2 51.6001ZM171 44.9001C172.5 45.3001 173.7 45.6001 175 46.0001V44.7001C174.5 43.2001 173.8 41.3001 173.2 39.7001C171.6 35.3001 171.6 35.3001 171.7 34.7001L171.8 33.6001L172.7 33.1001C172.7 33.1001 174.4 32.0001 174.4 28.7001C174.4 23.6001 171.7 20.9001 165.1 19.3001C162.6 18.6001 161 18.2001 158.9 17.8001V19.9001L160.1 20.2001L160.4 42.2001C161.4 42.4001 162.2 42.6001 163.2 42.9001L163.1 32.9001L167.4 34.0001C170.2 34.8001 170.5 36.0001 171.2 38.8001C171.4 39.5001 171.6 40.3001 171.8 41.4001L172.7 44.8001L171 44.3001V44.9001ZM168.5 32.4001C167.8 32.4001 167 32.2001 166.3 32.0001L163.1 31.2001L163 20.8001L167 21.8001C170 22.6001 171.8 23.3001 171.8 27.5001C171.8 29.2001 171.7 30.8001 170.4 31.8001C169.8 32.3001 169.1 32.4001 168.5 32.4001ZM167.1 28.0001H167.3C167.4 28.0001 167.6 28.1001 167.7 28.1001C167.7 27.9001 167.7 27.7001 167.7 27.5001C167.7 26.5001 167.6 26.2001 167.6 26.2001C167.5 26.2001 167.4 26.1001 167.2 26.1001L167.1 28.0001Z" fill="#008752"/>
<path d="M193 55.6C191.1 55.6 188.9 55.1001 186.3 54.2001C184.1 53.4001 181.8 52.5 179.6 51.6L178.3 51.1L178.1 39.5L180.8 40.4001C183.2 41.2001 184.5 41.6001 186.8 42.4001C186.3 42.0001 185.8 41.6001 185.3 41.2001C182.3 38.9001 178.6 36.1 178.2 30.8C178 27.3 178.9 24.8 180.9 23.4C183.3 21.6 187 21.6 191.5 23.4C193.8 24.3 195.8 25.2 197.5 26L198.6 26.6L198.8 38.1L195.9 37C193.8 36.2 192.7 35.7 190.7 35C191.3 35.6 192 36.1001 192.8 36.7001C195.7 38.9001 199.4 41.7 199.8 47C200.1 50.5 199.2 53 197.3 54.5C196.3 55.2 194.8 55.6 193 55.6ZM182.4 48.3C184.2 49 185.9 49.7 187.7 50.3C192.5 52.1 194.3 51.5 194.9 51C195.8 50.3 195.9 48.5 195.8 47.1C195.5 43.6 193 41.8 190.4 39.8C187.8 37.9 185.2 35.9001 184.7 32.4001C184.5 30.7001 185.3 29.7 185.8 29.3C186.9 28.4 188.5 28.4 190.7 29.1C191 29.2 191.2 29.3 191.5 29.4C191.6 29.5 191.8 29.5 191.9 29.6L193.2 30.1V31.3C193.7 31.5 194.2 31.7001 194.7 31.9001L194.6 29.1C193.3 28.5 191.7 27.8 190 27.2C187 26 184.5 25.8 183.3 26.7C182.3 27.5 182.2 29.2 182.2 30.6C182.4 34.0001 185 35.9 187.7 38C190.1 39.8 192.6 41.7 193.2 44.8C193.5 46.4 193.2 47.7 192.3 48.5C190.8 49.8 188.6 49 187.9 48.8C187.5 48.7 187.1 48.5001 186.8 48.4001C186.4 48.3001 186.1 48.1 185.7 48L184.4 47.5V46C183.6 45.7 183 45.5 182.3 45.3L182.4 48.3ZM188.5 44.4001C188.7 44.5001 188.8 44.5 189 44.6C188.9 44.4 188.7 44.1001 188.5 43.9001V44.4001Z" fill="#008752"/>
<path d="M1.3999 57.1999L1.4999 49.5999L2.6999 49.0999L2.9999 34.6999L1.7999 35.1999L1.8999 27.5999L2.3999 27.3999C5.4999 26.0999 6.9999 25.5999 10.1999 24.3999L10.9999 24.0999L10.4999 53.6999L10.0999 53.8999C6.9999 55.0999 5.3999 55.5999 2.2999 56.8999L1.3999 57.1999ZM2.7999 50.3999L2.6999 55.3999C5.1999 54.3999 6.6999 53.7999 9.2999 52.8999L9.7999 25.8999C7.2999 26.7999 5.8999 27.3999 3.2999 28.3999L3.1999 33.3999L4.2999 32.8999L3.9999 49.8999L2.7999 50.3999Z" fill="white"/>
<path d="M14.2998 52.0999L14.3998 43.3999L14.7998 43.2999C17.2998 42.3999 18.4998 41.9999 20.9998 41.1999L21.7998 40.8999V42.3999C21.8998 42.3999 21.9998 42.2999 22.1998 42.2999C22.4998 42.1999 22.8998 42.0999 23.2998 41.9999C26.0998 41.0999 25.7998 39.7999 25.5998 39.2999C25.3998 38.3999 23.7998 38.2999 21.9998 38.0999C18.8998 37.7999 14.5998 37.3999 14.7998 31.9999C15.0998 25.4999 18.9998 20.8999 26.0998 18.8999C28.1998 18.2999 30.1998 17.7999 32.0998 17.4999L32.7998 17.3999L32.6998 25.6999L32.3998 25.8999C30.0998 26.4999 28.9998 26.7999 26.6998 27.4999L25.8998 27.6999V26.3999C25.7998 26.3999 25.5998 26.4999 25.4998 26.4999C23.6998 26.9999 22.3998 28.0999 22.5998 28.8999C22.8998 29.7999 24.4998 29.9999 26.1998 30.1999C29.3998 30.5999 33.6998 31.1999 33.5998 36.5999C33.3998 43.3999 29.6998 47.4999 21.7998 49.8999C19.6998 50.4999 17.5998 51.0999 15.4998 51.6999L14.2998 52.0999ZM15.5998 44.2999L15.4998 50.4999C17.3998 49.9999 19.2998 49.3999 21.2998 48.7999C28.6998 46.5999 32.0998 42.7999 32.2998 36.5999C32.4998 32.2999 29.1998 31.8999 25.9998 31.4999C23.8998 31.1999 21.7998 30.8999 21.3998 29.2999C20.8998 27.4999 22.9998 25.9999 25.0998 25.2999C25.2998 25.1999 25.5998 25.1999 25.7998 25.0999C25.9998 25.0999 26.1998 24.9999 26.2998 24.9999L27.0998 24.7999V25.9999C28.7998 25.4999 29.7998 25.1999 31.5998 24.6999L31.6998 18.7999C29.9998 19.0999 28.2998 19.4999 26.4998 19.9999C19.7998 21.8999 16.2998 25.8999 15.9998 31.9999C15.7998 35.8999 18.2998 36.4999 22.0998 36.7999C24.2998 36.9999 26.2998 37.1999 26.6998 38.8999C26.9998 40.1999 26.7998 41.9999 23.4998 42.9999C23.0998 43.0999 22.7998 43.1999 22.3998 43.2999C21.9998 43.3999 21.5998 43.4999 21.2998 43.5999L20.4998 43.8999V42.3999C18.7998 43.2999 17.5998 43.6999 15.5998 44.2999Z" fill="white"/>
<path d="M37.2998 45.4999L37.5998 23.4999L36.2998 23.8999L36.3998 16.2999L36.8998 16.1999C40.1998 15.3999 41.7998 14.9999 44.9998 14.2999L45.7998 14.0999L45.5998 36.0999C46.1998 35.9999 46.5998 35.8999 47.1998 35.7999V34.7999L47.6998 34.6999C50.2998 34.1999 51.5998 33.8999 54.1998 33.4999L54.8998 33.3999L54.7998 41.9999L54.1998 41.8999C48.7998 42.8999 43.3998 43.9999 38.0998 45.2999L37.2998 45.4999ZM38.7998 21.9999L38.4998 43.9999C43.3998 42.7999 48.4998 41.7999 53.3998 40.8999L53.4998 34.7999C51.4998 35.1999 50.2998 35.3999 48.1998 35.7999V36.7999L47.7998 36.8999C46.6998 37.0999 46.0998 37.1999 44.9998 37.4999L44.1998 37.6999L44.3998 15.6999C41.7998 16.2999 40.1998 16.5999 37.4998 17.2999L37.3998 22.2999L38.7998 21.9999Z" fill="white"/>
<path d="M56.0999 41.5998L56.1999 36.6998L63.3999 10.9998L63.7999 10.8998C66.7999 10.4998 68.2999 10.2998 71.3999 9.8998L71.8999 9.7998L71.9999 10.2998C74.6999 19.4998 77.3998 28.5998 80.0998 37.7998L80.2999 38.4998L79.4999 38.5998C76.5999 38.7998 75.1999 38.9998 72.2999 39.2998L71.7999 39.3998L70.3999 33.5998C68.3999 33.7998 67.1999 33.9998 65.3999 34.1998V40.1998L64.8999 40.2998C61.6999 40.6998 60.0999 40.9998 56.8999 41.4998L56.0999 41.5998ZM57.3999 36.8998V40.0998C59.9999 39.6998 61.5999 39.3998 64.1999 39.0998V35.5998L62.6999 35.7998L63.2999 33.2998L63.6999 33.1998C66.5999 32.7998 67.9999 32.5998 70.8999 32.2998L71.3999 32.1998L72.7999 37.9998C75.0999 37.7998 76.4999 37.5998 78.6999 37.3998C76.0999 28.6998 73.5999 19.8998 70.9999 11.1998C68.3999 11.4998 66.9999 11.6998 64.3999 11.9998L57.3999 36.8998ZM64.3999 28.9998L66.9999 18.8998H68.1999L70.2999 28.2998L69.5998 28.3998C67.8998 28.5998 66.9999 28.6998 65.2999 28.8998L64.3999 28.9998ZM67.4999 21.6998L65.9999 27.5998C66.9999 27.4998 67.6999 27.3998 68.7999 27.2998L67.4999 21.6998Z" fill="white"/>
<path d="M82.5999 38.4999L82.6999 8.9999H83.2999C85.9999 8.7999 87.3999 8.7999 90.0999 8.5999H90.4999L90.6999 8.8999C92.7999 12.9999 94.7999 17.1999 96.7999 21.2999V15.7999H95.4999V8.3999H96.0999C99.0999 8.3999 100.6 8.3999 103.7 8.3999H104.3V37.8999H103.7C101 37.8999 99.6999 37.8999 96.9999 37.8999H96.5999L96.3999 37.5999C94.2999 33.4999 92.1999 29.3999 90.0999 25.2999V38.0999H89.4999C86.9999 38.1999 85.6999 38.2999 83.1999 38.3999L82.5999 38.4999ZM83.8999 10.0999L83.7999 37.0999C85.6999 36.9999 86.8999 36.8999 88.8999 36.7999V22.5999L90.0999 22.2999C92.4999 26.9999 94.8999 31.7999 97.3999 36.4999C99.5999 36.4999 100.9 36.4999 103.1 36.4999V9.4999C100.7 9.4999 99.1999 9.4999 96.7999 9.4999V14.4999H98.0999V23.8999L96.8999 24.1999C94.4999 19.3999 92.1999 14.5999 89.7999 9.7999C87.4999 9.8999 86.0999 9.9999 83.8999 10.0999Z" fill="white"/>
<path d="M122 38.7999C121.4 38.7999 120.7 38.8 120 38.7C116 38.4 114 38.2999 110 38.0999H109.4V16.2H108.1V8.69995H108.7C112.7 8.79995 114.7 8.89995 118.7 9.19995C129.4 9.89995 130.2 16 130.2 24.6C130.2 29.5 130.2 34.4999 127.3 37.0999C126.1 38.1999 124.3 38.7999 122 38.7999ZM110.7 36.9C114.4 37 116.3 37.2 120.2 37.5C123.2 37.8 125.3 37.4 126.6 36.2C129.1 34 129.1 29.2 129.1 24.6C129.1 15.1 127.6 11 118.7 10.4C114.9 10.1 112.9 9.99995 109.3 9.89995V15H110.6L110.7 36.9ZM120 32.5C119.7 32.5 119.5 32.5 119.2 32.5C118.3 32.4 117.9 32.3999 117 32.2999H116.4V14.9H117.1C118 15 118.4 15 119.3 15.1C123.5 15.4 123.5 17.4 123.6 23.8C123.6 28.5 123.6 30.6999 122.5 31.7999C121.7 32.3999 120.9 32.5 120 32.5ZM117.7 31.1C118.2 31.1 118.7 31.2 119.3 31.2C120.5 31.3 121.2 31.1999 121.5 30.7999C122.3 30.0999 122.3 27.8 122.2 23.7C122.2 16.9 122 16.4 119.1 16.2C118.5 16.2 118.1 16.1 117.6 16.1L117.7 31.1Z" fill="white"/>
<path d="M153.7 43.2999L153 43.1999C147.1 41.9999 141.1 40.9999 135.2 40.1999L134.7 40.0999L134.5 18.1999L133.4 18.0999L133.3 10.5999L134 10.6999C140.1 11.5999 146.3 12.5999 152.3 13.7999L152.8 13.8999L152.9 21.4999L152.2 21.2999C148.3 20.4999 146.3 20.0999 142.7 19.4999V22.3999C146.1 22.9999 148 23.2999 151.6 23.9999L152.1 24.0999L152.2 31.8999L151.5 31.7999C148 31.0999 146.2 30.7999 142.9 30.1999V33.9999C144 34.1999 144.7 34.2999 145.7 34.4999V33.4999L146.4 33.5999C149.1 34.0999 150.5 34.3999 153.2 34.8999L153.7 34.9999V43.2999ZM135.8 39.0999C141.4 39.8999 147 40.8999 152.5 41.8999L152.4 35.8999C150.2 35.4999 148.9 35.1999 146.8 34.7999V35.7999L146.1 35.6999C144.5 35.3999 143.7 35.2999 142.1 34.9999L141.6 34.8999L141.5 28.5999L142.2 28.6999C145.7 29.2999 147.6 29.5999 150.9 30.2999L150.8 24.9999C147.4 24.2999 145.5 23.9999 141.9 23.3999L141.4 23.2999V17.8999L142.1 17.9999C146 18.5999 148 18.9999 151.7 19.6999L151.6 14.6999C146 13.5999 140.2 12.5999 134.5 11.7999V16.8999L135.6 17.0999L135.8 39.0999Z" fill="white"/>
<path d="M177.7 49.6999L176.9 49.4999C173.7 48.4999 172.1 47.9999 168.8 47.1999L168.4 47.0999L168.3 40.8999L169 41.0999C168.8 40.4999 168.7 39.8999 168.6 39.4999C168 36.9999 168 36.9999 166.7 36.6999L165.7 36.4999L165.8 46.4999L165 46.2999C162.3 45.5999 160.9 45.2999 158.2 44.5999L157.7 44.4999L157.4 22.4999L156.2 22.1999L156.1 14.5999L156.9 14.7999C160.4 15.5999 162.1 15.9999 165.6 16.8999C170.9 18.1999 176.9 20.5999 176.9 28.8999C176.9 32.7999 175.1 34.6999 174.3 35.3999C174.5 36.0999 175.1 37.5999 175.6 38.9999C176.2 40.7999 177 42.7999 177.5 44.3999V44.5999L177.7 49.6999ZM169.6 45.9999C172.3 46.6999 173.9 47.1999 176.5 47.9999L176.4 44.4999C175.9 42.8999 175.1 40.9999 174.5 39.2999C173 35.1999 173 35.1999 173 34.9999V34.6999L173.3 34.4999C173.4 34.3999 175.7 32.9999 175.7 28.7999C175.7 22.9999 172.6 19.6999 165.3 17.9999C162.1 17.1999 160.4 16.6999 157.4 16.0999L157.5 21.0999L158.7 21.3999L159 43.3999C161.2 43.8999 162.5 44.1999 164.6 44.7999L164.5 34.7999L167 35.4999C169 35.9999 169.1 36.5999 169.8 39.1999C170 39.8999 170.2 40.6999 170.4 41.7999L170.7 42.7999L169.6 42.4999V45.9999ZM168.4 30.9999C167.9 30.9999 167.3 30.7999 166.6 30.5999L164.5 29.9999L164.4 22.4999L166.6 23.0999C169.4 23.7999 170.3 24.1999 170.4 27.3999C170.4 29.1999 170.2 30.0999 169.6 30.5999C169.2 30.8999 168.8 30.9999 168.4 30.9999ZM165.7 29.0999L166.9 29.3999C167.8 29.5999 168.5 29.7999 168.8 29.5999C168.9 29.4999 169.2 29.0999 169.1 27.3999C169.1 24.9999 168.7 24.8999 166.2 24.2999L165.6 24.0999L165.7 29.0999Z" fill="white"/>
<path d="M193 54.2C191.3 54.2 189.3 53.7 186.8 52.8C184.6 52 182.4 51.1 180.2 50.3L179.8 50.1L179.7 41.4L180.5 41.7C183 42.5 184.2 42.9 186.7 43.8L187.1 43.9V45.4C187.3 45.5 187.6 45.6 187.8 45.7C188.1 45.8 188.5 46 188.9 46.1C190.3 46.6 190.6 46.4 190.7 46.3C190.8 46.2 190.9 45.9 190.8 45.2C190.4 43.1 188.5 41.7 186.3 40.1C183.4 37.9 180.1 35.4 179.8 30.8C179.6 27.9 180.3 25.8 181.9 24.6C183.9 23.2 187.2 23.2 191.1 24.8C193.4 25.7 195.3 26.5 197 27.4L197.3 27.6L197.5 36.1L196.6 35.8C194.4 34.9 193.3 34.5 191 33.6L190.6 33.5V32.3C190.5 32.3 190.4 32.2 190.4 32.2C190.2 32.1 190 32 189.8 31.9C188.5 31.4 187.7 31.4 187.5 31.6C187.3 31.7 187.4 32.1 187.4 32.2C187.7 34.6 189.7 36.1 192.1 37.9C194.9 40 198.2 42.5 198.5 47.1C198.7 50.1 198.1 52.2 196.5 53.3C195.6 53.8 194.5 54.2 193 54.2ZM181 49.3C183.1 50.1 185.2 50.9 187.2 51.7C191.3 53.2 194.2 53.4 195.8 52.2C197 51.3 197.5 49.6 197.3 47C197 42.9 194.1 40.7 191.4 38.6C189 36.8 186.7 35 186.3 32.1C186.2 31.1 186.5 30.6 186.8 30.3C187.5 29.8 188.6 29.8 190.3 30.4C190.5 30.5 190.8 30.6 191 30.7C191.2 30.8 191.4 30.9 191.5 30.9L191.9 31V32.2C193.6 32.8 194.7 33.2 196.2 33.9L196.1 28C194.5 27.2 192.7 26.4 190.6 25.6C187 24.2 184.2 24.1 182.5 25.3C181.2 26.2 180.7 27.9 180.9 30.4C181.2 34.5 184.1 36.7 186.9 38.8C189.2 40.5 191.4 42.2 191.9 44.7C192 45.1 192.2 46.3 191.4 47C190.6 47.7 189.3 47.3 188.4 47C188 46.9 187.7 46.7 187.3 46.6C186.9 46.5 186.5 46.3 186.2 46.2L185.8 46.1V44.6C183.9 43.9 182.7 43.5 180.8 42.9L181 49.3Z" fill="white"/>
<path d="M2.6001 28C5.7001 26.8 7.2001 26.2 10.4001 25C10.2001 34.4 10.0001 43.9 9.9001 53.3C6.8001 54.5 5.2001 55.1 2.1001 56.3C2.1001 53.8 2.2001 52.5 2.2001 50C2.7001 49.8 2.9001 49.7 3.4001 49.5C3.5001 44.3 3.6001 39 3.7001 33.8C3.2001 34 3.0001 34.1 2.5001 34.3C2.6001 31.7 2.6001 30.5 2.6001 28Z" fill="#007AC1"/>
<path d="M14.9001 51.3002C15.0001 48.3002 15.0001 46.8002 15.0001 43.9002C17.5001 43.0002 18.7001 42.6002 21.2001 41.8002C21.2001 42.4002 21.2001 42.7002 21.2001 43.3002C21.9001 43.1002 22.6001 42.9002 23.4001 42.6002C25.8001 41.9002 26.5001 40.7002 26.1001 39.2002C25.2001 35.9002 15.0001 40.0002 15.4001 32.1002C15.7001 25.3002 19.9001 21.4002 26.3001 19.6002C28.3001 19.0002 30.3001 18.6002 32.3001 18.2002C32.3001 21.1002 32.2001 22.5002 32.2001 25.3002C29.9001 25.9002 28.8001 26.2002 26.5001 26.9002C26.5001 26.4002 26.5001 26.2002 26.5001 25.7002C26.1001 25.8002 25.7001 25.9002 25.3001 26.0002C23.4001 26.6002 21.6001 27.9002 22.0001 29.2002C22.9001 32.5002 33.2001 28.8002 32.9001 36.7002C32.6001 44.0002 28.1001 47.4002 21.5001 49.4002C19.3001 50.1002 17.1001 50.7002 14.9001 51.3002Z" fill="#007AC1"/>
<path d="M36.9001 23.1001C36.9001 20.6001 36.9001 19.3001 37.0001 16.8001C40.2001 16.0001 41.8001 15.6001 45.1001 14.9001C45.0001 22.2001 44.9001 29.5001 44.9001 36.9001C46.0001 36.7001 46.6001 36.5001 47.7001 36.3001C47.7001 35.9001 47.7001 35.7001 47.7001 35.3001C50.3001 34.8001 51.6001 34.5001 54.2001 34.1001C54.2001 37.0001 54.2001 38.5001 54.1001 41.4001C48.7001 42.4001 43.3001 43.5001 37.9001 44.8001C38.0001 37.5001 38.1001 30.2001 38.2001 22.8001C37.7001 22.9001 37.4001 23.0001 36.9001 23.1001Z" fill="#007AC1"/>
<path d="M56.8 40.9002C56.8 39.3002 56.8 38.5002 56.8 36.9002C59.2 28.5002 61.5 20.0002 63.9 11.6002C66.9 11.2002 68.4 11.0002 71.5 10.7002C74.2 19.9002 76.9 29.0002 79.6 38.2002C76.7 38.4002 75.3 38.6002 72.4 38.9002C71.8 36.6002 71.5 35.4002 71 33.1002C68.1 33.4002 66.7 33.6002 63.9 34.0002C63.8 34.5002 63.7 34.7002 63.6 35.2002C64.1 35.1002 64.4 35.1002 65 35.0002C65 36.9002 65 37.9002 65 39.8002C61.6 40.1002 60 40.3002 56.8 40.9002ZM67.6 19.1002C66.7 22.8002 66.2 24.6002 65.3 28.3002C67 28.1002 67.9 28.0002 69.6 27.8002C68.7 24.3002 68.3 22.6002 67.6 19.1002Z" fill="#007AC1"/>
<path d="M83.2002 37.8001C83.2002 28.4001 83.3002 19.0001 83.3002 9.6001C86.0002 9.4001 87.4002 9.4001 90.1002 9.2001C92.5002 14.1001 95.0002 19.1001 97.4002 24.0001C97.4002 20.5001 97.4002 18.8001 97.4002 15.3001C96.9002 15.3001 96.6002 15.3001 96.1002 15.3001C96.1002 12.8001 96.1002 11.6001 96.1002 9.1001C99.1002 9.1001 100.6 9.1001 103.6 9.1001C103.6 18.5001 103.6 27.9001 103.6 37.3001C100.9 37.3001 99.6002 37.3001 96.9002 37.3001C94.4002 32.4001 92.0002 27.6001 89.5002 22.7001C89.5002 27.6001 89.5002 32.5001 89.5002 37.5001C87.0002 37.6001 85.7002 37.6001 83.2002 37.8001Z" fill="#007AC1"/>
<path d="M108.7 15.5002C108.7 13.0002 108.7 11.7002 108.7 9.2002C112.7 9.3002 114.7 9.4002 118.7 9.7002C128.6 10.3002 129.6 15.5002 129.7 24.5002C129.7 32.2002 129.6 39.1002 120.1 38.0002C116.1 37.7002 114.1 37.6002 110 37.4002C110 30.1002 110 22.8002 110 15.5002C109.5 15.5002 109.2 15.5002 108.7 15.5002ZM119.2 15.7002C118.3 15.6002 117.9 15.6002 117 15.5002C117 20.9002 117 26.2002 117.1 31.6002C118 31.7002 118.4 31.7002 119.3 31.8002C123 32.1002 123 30.7002 122.9 23.8002C122.9 17.2002 122.8 16.0002 119.2 15.7002Z" fill="#007AC1"/>
<path d="M134 17.5002C134 15.0002 134 13.7002 134 11.2002C140.1 12.1002 146.2 13.1002 152.3 14.3002C152.3 16.8002 152.3 18.1002 152.4 20.6002C148.3 19.8002 146.2 19.4002 142.1 18.7002C142.1 20.3002 142.1 21.2002 142.1 22.8002C145.9 23.4002 147.7 23.8002 151.5 24.5002C151.5 27.1002 151.5 28.4002 151.6 31.0002C147.9 30.2002 146 29.9002 142.2 29.3002C142.2 31.3002 142.2 32.3002 142.2 34.3002C143.8 34.6002 144.6 34.7002 146.2 35.0002C146.2 34.6002 146.2 34.4002 146.2 34.0002C148.9 34.5002 150.3 34.8002 153 35.3002C153 38.2002 153 39.7002 153.1 42.6002C147.2 41.4002 141.2 40.4002 135.3 39.5002C135.2 32.2002 135.2 24.9002 135.1 17.5002C134.6 17.6002 134.4 17.6002 134 17.5002Z" fill="#007AC1"/>
<path d="M156.9 15.3C160.4 16.1 162.1 16.5 165.6 17.4C171.8 18.9 176.5 21.7 176.4 28.8C176.4 33.4 173.7 35 173.7 35C173.7 35.2 175.8 40.9001 177 44.4001C177 46.2001 177 47.1 177.1 48.8C173.9 47.8 172.3 47.3 169 46.5C169 44.5 169 43.6 168.9 41.6C169.3 41.7 169.4 41.7 169.8 41.8C168.4 36.6 168.9 36.5001 166.8 35.9001C166.1 35.7001 165.8 35.6001 165.1 35.4001C165.2 39.4001 165.2 41.4001 165.2 45.4001C162.5 44.7001 161.1 44.4001 158.3 43.7001C158.2 36.4001 158.1 29.1 158 21.7C157.5 21.6 157.3 21.5 156.8 21.4C156.9 19.1 156.9 17.8 156.9 15.3ZM166.4 23.8C165.8 23.7 165.6 23.6 165 23.4C165 25.9 165 27.1 165.1 29.6C165.8 29.8 166.1 29.9 166.8 30C168.9 30.6 169.8 30.8 169.8 27.5C169.6 24.7 168.9 24.5 166.4 23.8Z" fill="#007AC1"/>
<path d="M180.4 49.7001C180.4 46.7001 180.3 45.2001 180.3 42.3001C182.8 43.1001 184 43.5001 186.5 44.4001C186.5 45.0001 186.5 45.3001 186.5 45.9001C187.2 46.1001 187.9 46.4001 188.7 46.7001C191.1 47.6001 191.6 46.8001 191.3 45.1001C190.3 39.8001 180.8 38.5001 180.3 30.7001C179.8 23.4001 185.4 23.1001 190.8 25.3001C192.7 26.0001 194.7 26.9001 196.6 27.9001C196.7 30.8001 196.7 32.2001 196.7 35.1001C194.5 34.2001 193.4 33.8001 191.1 32.9001C191.1 32.4001 191.1 32.2001 191.1 31.7001C190.7 31.6001 190.3 31.3001 189.9 31.2001C188 30.5001 186.5 30.5001 186.7 32.2001C187.5 38.0001 197.2 39.0001 197.8 47.1001C198.4 55.2001 192.2 54.3001 186.9 52.4001C184.8 51.4001 182.6 50.6001 180.4 49.7001Z" fill="#007AC1"/>
<path d="M2.6001 28C5.7001 26.8 7.2001 26.2 10.4001 25C10.2001 34.4 10.0001 43.9 9.9001 53.3C6.8001 54.5 5.2001 55.1 2.1001 56.3C2.1001 53.8 2.2001 52.5 2.2001 50C2.7001 49.8 2.9001 49.7 3.4001 49.5C3.5001 44.3 3.6001 39 3.7001 33.8C3.2001 34 3.0001 34.1 2.5001 34.3C2.6001 31.7 2.6001 30.5 2.6001 28Z" fill="#007AC1"/>
<path d="M14.9001 51.3002C15.0001 48.3002 15.0001 46.8002 15.0001 43.9002C17.5001 43.0002 18.7001 42.6002 21.2001 41.8002C21.2001 42.4002 21.2001 42.7002 21.2001 43.3002C21.9001 43.1002 22.6001 42.9002 23.4001 42.6002C25.8001 41.9002 26.5001 40.7002 26.1001 39.2002C25.2001 35.9002 15.0001 40.0002 15.4001 32.1002C15.7001 25.3002 19.9001 21.4002 26.3001 19.6002C28.3001 19.0002 30.3001 18.6002 32.3001 18.2002C32.3001 21.1002 32.2001 22.5002 32.2001 25.3002C29.9001 25.9002 28.8001 26.2002 26.5001 26.9002C26.5001 26.4002 26.5001 26.2002 26.5001 25.7002C26.1001 25.8002 25.7001 25.9002 25.3001 26.0002C23.4001 26.6002 21.6001 27.9002 22.0001 29.2002C22.9001 32.5002 33.2001 28.8002 32.9001 36.7002C32.6001 44.0002 28.1001 47.4002 21.5001 49.4002C19.3001 50.1002 17.1001 50.7002 14.9001 51.3002Z" fill="#007AC1"/>
<path d="M36.9001 23.1001C36.9001 20.6001 36.9001 19.3001 37.0001 16.8001C40.2001 16.0001 41.8001 15.6001 45.1001 14.9001C45.0001 22.2001 44.9001 29.5001 44.9001 36.9001C46.0001 36.7001 46.6001 36.5001 47.7001 36.3001C47.7001 35.9001 47.7001 35.7001 47.7001 35.3001C50.3001 34.8001 51.6001 34.5001 54.2001 34.1001C54.2001 37.0001 54.2001 38.5001 54.1001 41.4001C48.7001 42.4001 43.3001 43.5001 37.9001 44.8001C38.0001 37.5001 38.1001 30.2001 38.2001 22.8001C37.7001 22.9001 37.4001 23.0001 36.9001 23.1001Z" fill="#007AC1"/>
<path d="M56.8 40.9002C56.8 39.3002 56.8 38.5002 56.8 36.9002C59.2 28.5002 61.5 20.0002 63.9 11.6002C66.9 11.2002 68.4 11.0002 71.5 10.7002C74.2 19.9002 76.9 29.0002 79.6 38.2002C76.7 38.4002 75.3 38.6002 72.4 38.9002C71.8 36.6002 71.5 35.4002 71 33.1002C68.1 33.4002 66.7 33.6002 63.9 34.0002C63.8 34.5002 63.7 34.7002 63.6 35.2002C64.1 35.1002 64.4 35.1002 65 35.0002C65 36.9002 65 37.9002 65 39.8002C61.6 40.1002 60 40.3002 56.8 40.9002ZM67.6 19.1002C66.7 22.8002 66.2 24.6002 65.3 28.3002C67 28.1002 67.9 28.0002 69.6 27.8002C68.7 24.3002 68.3 22.6002 67.6 19.1002Z" fill="#007AC1"/>
<path d="M83.2002 37.8001C83.2002 28.4001 83.3002 19.0001 83.3002 9.6001C86.0002 9.4001 87.4002 9.4001 90.1002 9.2001C92.5002 14.1001 95.0002 19.1001 97.4002 24.0001C97.4002 20.5001 97.4002 18.8001 97.4002 15.3001C96.9002 15.3001 96.6002 15.3001 96.1002 15.3001C96.1002 12.8001 96.1002 11.6001 96.1002 9.1001C99.1002 9.1001 100.6 9.1001 103.6 9.1001C103.6 18.5001 103.6 27.9001 103.6 37.3001C100.9 37.3001 99.6002 37.3001 96.9002 37.3001C94.4002 32.4001 92.0002 27.6001 89.5002 22.7001C89.5002 27.6001 89.5002 32.5001 89.5002 37.5001C87.0002 37.6001 85.7002 37.6001 83.2002 37.8001Z" fill="#007AC1"/>
<path d="M108.7 15.5002C108.7 13.0002 108.7 11.7002 108.7 9.2002C112.7 9.3002 114.7 9.4002 118.7 9.7002C128.6 10.3002 129.6 15.5002 129.7 24.5002C129.7 32.2002 129.6 39.1002 120.1 38.0002C116.1 37.7002 114.1 37.6002 110 37.4002C110 30.1002 110 22.8002 110 15.5002C109.5 15.5002 109.2 15.5002 108.7 15.5002ZM119.2 15.7002C118.3 15.6002 117.9 15.6002 117 15.5002C117 20.9002 117 26.2002 117.1 31.6002C118 31.7002 118.4 31.7002 119.3 31.8002C123 32.1002 123 30.7002 122.9 23.8002C122.9 17.2002 122.8 16.0002 119.2 15.7002Z" fill="#007AC1"/>
<path d="M134 17.5002C134 15.0002 134 13.7002 134 11.2002C140.1 12.1002 146.2 13.1002 152.3 14.3002C152.3 16.8002 152.3 18.1002 152.4 20.6002C148.3 19.8002 146.2 19.4002 142.1 18.7002C142.1 20.3002 142.1 21.2002 142.1 22.8002C145.9 23.4002 147.7 23.8002 151.5 24.5002C151.5 27.1002 151.5 28.4002 151.6 31.0002C147.9 30.2002 146 29.9002 142.2 29.3002C142.2 31.3002 142.2 32.3002 142.2 34.3002C143.8 34.6002 144.6 34.7002 146.2 35.0002C146.2 34.6002 146.2 34.4002 146.2 34.0002C148.9 34.5002 150.3 34.8002 153 35.3002C153 38.2002 153 39.7002 153.1 42.6002C147.2 41.4002 141.2 40.4002 135.3 39.5002C135.2 32.2002 135.2 24.9002 135.1 17.5002C134.6 17.6002 134.4 17.6002 134 17.5002Z" fill="#007AC1"/>
<path d="M156.9 15.3C160.4 16.1 162.1 16.5 165.6 17.4C171.8 18.9 176.5 21.7 176.4 28.8C176.4 33.4 173.7 35 173.7 35C173.7 35.2 175.8 40.9001 177 44.4001C177 46.2001 177 47.1 177.1 48.8C173.9 47.8 172.3 47.3 169 46.5C169 44.5 169 43.6 168.9 41.6C169.3 41.7 169.4 41.7 169.8 41.8C168.4 36.6 168.9 36.5001 166.8 35.9001C166.1 35.7001 165.8 35.6001 165.1 35.4001C165.2 39.4001 165.2 41.4001 165.2 45.4001C162.5 44.7001 161.1 44.4001 158.3 43.7001C158.2 36.4001 158.1 29.1 158 21.7C157.5 21.6 157.3 21.5 156.8 21.4C156.9 19.1 156.9 17.8 156.9 15.3ZM166.4 23.8C165.8 23.7 165.6 23.6 165 23.4C165 25.9 165 27.1 165.1 29.6C165.8 29.8 166.1 29.9 166.8 30C168.9 30.6 169.8 30.8 169.8 27.5C169.6 24.7 168.9 24.5 166.4 23.8Z" fill="#007AC1"/>
<path d="M180.4 49.7001C180.4 46.7001 180.3 45.2001 180.3 42.3001C182.8 43.1001 184 43.5001 186.5 44.4001C186.5 45.0001 186.5 45.3001 186.5 45.9001C187.2 46.1001 187.9 46.4001 188.7 46.7001C191.1 47.6001 191.6 46.8001 191.3 45.1001C190.3 39.8001 180.8 38.5001 180.3 30.7001C179.8 23.4001 185.4 23.1001 190.8 25.3001C192.7 26.0001 194.7 26.9001 196.6 27.9001C196.7 30.8001 196.7 32.2001 196.7 35.1001C194.5 34.2001 193.4 33.8001 191.1 32.9001C191.1 32.4001 191.1 32.2001 191.1 31.7001C190.7 31.6001 190.3 31.3001 189.9 31.2001C188 30.5001 186.5 30.5001 186.7 32.2001C187.5 38.0001 197.2 39.0001 197.8 47.1001C198.4 55.2001 192.2 54.3001 186.9 52.4001C184.8 51.4001 182.6 50.6001 180.4 49.7001Z" fill="#007AC1"/>
<path d="M1.3999 57.1999L1.4999 49.5999L2.6999 49.0999L2.9999 34.6999L1.7999 35.1999L1.8999 27.5999L2.3999 27.3999C5.4999 26.0999 6.9999 25.5999 10.1999 24.3999L10.9999 24.0999L10.4999 53.6999L10.0999 53.8999C6.9999 55.0999 5.3999 55.5999 2.2999 56.8999L1.3999 57.1999ZM2.7999 50.3999L2.6999 55.3999C5.1999 54.3999 6.6999 53.7999 9.2999 52.8999L9.7999 25.8999C7.2999 26.7999 5.8999 27.3999 3.2999 28.3999L3.1999 33.3999L4.2999 32.8999L3.9999 49.8999L2.7999 50.3999Z" fill="white"/>
<path d="M14.2998 52.0999L14.3998 43.3999L14.7998 43.2999C17.2998 42.3999 18.4998 41.9999 20.9998 41.1999L21.7998 40.8999V42.3999C21.8998 42.3999 21.9998 42.2999 22.1998 42.2999C22.4998 42.1999 22.8998 42.0999 23.2998 41.9999C26.0998 41.0999 25.7998 39.7999 25.5998 39.2999C25.3998 38.3999 23.7998 38.2999 21.9998 38.0999C18.8998 37.7999 14.5998 37.3999 14.7998 31.9999C15.0998 25.4999 18.9998 20.8999 26.0998 18.8999C28.1998 18.2999 30.1998 17.7999 32.0998 17.4999L32.7998 17.3999L32.6998 25.6999L32.3998 25.8999C30.0998 26.4999 28.9998 26.7999 26.6998 27.4999L25.8998 27.6999V26.3999C25.7998 26.3999 25.5998 26.4999 25.4998 26.4999C23.6998 26.9999 22.3998 28.0999 22.5998 28.8999C22.8998 29.7999 24.4998 29.9999 26.1998 30.1999C29.3998 30.5999 33.6998 31.1999 33.5998 36.5999C33.3998 43.3999 29.6998 47.4999 21.7998 49.8999C19.6998 50.4999 17.5998 51.0999 15.4998 51.6999L14.2998 52.0999ZM15.5998 44.2999L15.4998 50.4999C17.3998 49.9999 19.2998 49.3999 21.2998 48.7999C28.6998 46.5999 32.0998 42.7999 32.2998 36.5999C32.4998 32.2999 29.1998 31.8999 25.9998 31.4999C23.8998 31.1999 21.7998 30.8999 21.3998 29.2999C20.8998 27.4999 22.9998 25.9999 25.0998 25.2999C25.2998 25.1999 25.5998 25.1999 25.7998 25.0999C25.9998 25.0999 26.1998 24.9999 26.2998 24.9999L27.0998 24.7999V25.9999C28.7998 25.4999 29.7998 25.1999 31.5998 24.6999L31.6998 18.7999C29.9998 19.0999 28.2998 19.4999 26.4998 19.9999C19.7998 21.8999 16.2998 25.8999 15.9998 31.9999C15.7998 35.8999 18.2998 36.4999 22.0998 36.7999C24.2998 36.9999 26.2998 37.1999 26.6998 38.8999C26.9998 40.1999 26.7998 41.9999 23.4998 42.9999C23.0998 43.0999 22.7998 43.1999 22.3998 43.2999C21.9998 43.3999 21.5998 43.4999 21.2998 43.5999L20.4998 43.8999V42.3999C18.7998 43.2999 17.5998 43.6999 15.5998 44.2999Z" fill="white"/>
<path d="M37.2998 45.4999L37.5998 23.4999L36.2998 23.8999L36.3998 16.2999L36.8998 16.1999C40.1998 15.3999 41.7998 14.9999 44.9998 14.2999L45.7998 14.0999L45.5998 36.0999C46.1998 35.9999 46.5998 35.8999 47.1998 35.7999V34.7999L47.6998 34.6999C50.2998 34.1999 51.5998 33.8999 54.1998 33.4999L54.8998 33.3999L54.7998 41.9999L54.1998 41.8999C48.7998 42.8999 43.3998 43.9999 38.0998 45.2999L37.2998 45.4999ZM38.7998 21.9999L38.4998 43.9999C43.3998 42.7999 48.4998 41.7999 53.3998 40.8999L53.4998 34.7999C51.4998 35.1999 50.2998 35.3999 48.1998 35.7999V36.7999L47.7998 36.8999C46.6998 37.0999 46.0998 37.1999 44.9998 37.4999L44.1998 37.6999L44.3998 15.6999C41.7998 16.2999 40.1998 16.5999 37.4998 17.2999L37.3998 22.2999L38.7998 21.9999Z" fill="white"/>
<path d="M56.0999 41.5998L56.1999 36.6998L63.3999 10.9998L63.7999 10.8998C66.7999 10.4998 68.2999 10.2998 71.3999 9.8998L71.8999 9.7998L71.9999 10.2998C74.6999 19.4998 77.3998 28.5998 80.0998 37.7998L80.2999 38.4998L79.4999 38.5998C76.5999 38.7998 75.1999 38.9998 72.2999 39.2998L71.7999 39.3998L70.3999 33.5998C68.3999 33.7998 67.1999 33.9998 65.3999 34.1998V40.1998L64.8999 40.2998C61.6999 40.6998 60.0999 40.9998 56.8999 41.4998L56.0999 41.5998ZM57.3999 36.8998V40.0998C59.9999 39.6998 61.5999 39.3998 64.1999 39.0998V35.5998L62.6999 35.7998L63.2999 33.2998L63.6999 33.1998C66.5999 32.7998 67.9999 32.5998 70.8999 32.2998L71.3999 32.1998L72.7999 37.9998C75.0999 37.7998 76.4999 37.5998 78.6999 37.3998C76.0999 28.6998 73.5999 19.8998 70.9999 11.1998C68.3999 11.4998 66.9999 11.6998 64.3999 11.9998L57.3999 36.8998ZM64.3999 28.9998L66.9999 18.8998H68.1999L70.2999 28.2998L69.5998 28.3998C67.8998 28.5998 66.9999 28.6998 65.2999 28.8998L64.3999 28.9998ZM67.4999 21.6998L65.9999 27.5998C66.9999 27.4998 67.6999 27.3998 68.7999 27.2998L67.4999 21.6998Z" fill="white"/>
<path d="M82.5999 38.4999L82.6999 8.9999H83.2999C85.9999 8.7999 87.3999 8.7999 90.0999 8.5999H90.4999L90.6999 8.8999C92.7999 12.9999 94.7999 17.1999 96.7999 21.2999V15.7999H95.4999V8.3999H96.0999C99.0999 8.3999 100.6 8.3999 103.7 8.3999H104.3V37.8999H103.7C101 37.8999 99.6999 37.8999 96.9999 37.8999H96.5999L96.3999 37.5999C94.2999 33.4999 92.1999 29.3999 90.0999 25.2999V38.0999H89.4999C86.9999 38.1999 85.6999 38.2999 83.1999 38.3999L82.5999 38.4999ZM83.8999 10.0999L83.7999 37.0999C85.6999 36.9999 86.8999 36.8999 88.8999 36.7999V22.5999L90.0999 22.2999C92.4999 26.9999 94.8999 31.7999 97.3999 36.4999C99.5999 36.4999 100.9 36.4999 103.1 36.4999V9.4999C100.7 9.4999 99.1999 9.4999 96.7999 9.4999V14.4999H98.0999V23.8999L96.8999 24.1999C94.4999 19.3999 92.1999 14.5999 89.7999 9.7999C87.4999 9.8999 86.0999 9.9999 83.8999 10.0999Z" fill="white"/>
<path d="M122 38.7999C121.4 38.7999 120.7 38.8 120 38.7C116 38.4 114 38.2999 110 38.0999H109.4V16.2H108.1V8.69995H108.7C112.7 8.79995 114.7 8.89995 118.7 9.19995C129.4 9.89995 130.2 16 130.2 24.6C130.2 29.5 130.2 34.4999 127.3 37.0999C126.1 38.1999 124.3 38.7999 122 38.7999ZM110.7 36.9C114.4 37 116.3 37.2 120.2 37.5C123.2 37.8 125.3 37.4 126.6 36.2C129.1 34 129.1 29.2 129.1 24.6C129.1 15.1 127.6 11 118.7 10.4C114.9 10.1 112.9 9.99995 109.3 9.89995V15H110.6L110.7 36.9ZM120 32.5C119.7 32.5 119.5 32.5 119.2 32.5C118.3 32.4 117.9 32.3999 117 32.2999H116.4V14.9H117.1C118 15 118.4 15 119.3 15.1C123.5 15.4 123.5 17.4 123.6 23.8C123.6 28.5 123.6 30.6999 122.5 31.7999C121.7 32.3999 120.9 32.5 120 32.5ZM117.7 31.1C118.2 31.1 118.7 31.2 119.3 31.2C120.5 31.3 121.2 31.1999 121.5 30.7999C122.3 30.0999 122.3 27.8 122.2 23.7C122.2 16.9 122 16.4 119.1 16.2C118.5 16.2 118.1 16.1 117.6 16.1L117.7 31.1Z" fill="white"/>
<path d="M153.7 43.2999L153 43.1999C147.1 41.9999 141.1 40.9999 135.2 40.1999L134.7 40.0999L134.5 18.1999L133.4 18.0999L133.3 10.5999L134 10.6999C140.1 11.5999 146.3 12.5999 152.3 13.7999L152.8 13.8999L152.9 21.4999L152.2 21.2999C148.3 20.4999 146.3 20.0999 142.7 19.4999V22.3999C146.1 22.9999 148 23.2999 151.6 23.9999L152.1 24.0999L152.2 31.8999L151.5 31.7999C148 31.0999 146.2 30.7999 142.9 30.1999V33.9999C144 34.1999 144.7 34.2999 145.7 34.4999V33.4999L146.4 33.5999C149.1 34.0999 150.5 34.3999 153.2 34.8999L153.7 34.9999V43.2999ZM135.8 39.0999C141.4 39.8999 147 40.8999 152.5 41.8999L152.4 35.8999C150.2 35.4999 148.9 35.1999 146.8 34.7999V35.7999L146.1 35.6999C144.5 35.3999 143.7 35.2999 142.1 34.9999L141.6 34.8999L141.5 28.5999L142.2 28.6999C145.7 29.2999 147.6 29.5999 150.9 30.2999L150.8 24.9999C147.4 24.2999 145.5 23.9999 141.9 23.3999L141.4 23.2999V17.8999L142.1 17.9999C146 18.5999 148 18.9999 151.7 19.6999L151.6 14.6999C146 13.5999 140.2 12.5999 134.5 11.7999V16.8999L135.6 17.0999L135.8 39.0999Z" fill="white"/>
<path d="M177.7 49.6999L176.9 49.4999C173.7 48.4999 172.1 47.9999 168.8 47.1999L168.4 47.0999L168.3 40.8999L169 41.0999C168.8 40.4999 168.7 39.8999 168.6 39.4999C168 36.9999 168 36.9999 166.7 36.6999L165.7 36.4999L165.8 46.4999L165 46.2999C162.3 45.5999 160.9 45.2999 158.2 44.5999L157.7 44.4999L157.4 22.4999L156.2 22.1999L156.1 14.5999L156.9 14.7999C160.4 15.5999 162.1 15.9999 165.6 16.8999C170.9 18.1999 176.9 20.5999 176.9 28.8999C176.9 32.7999 175.1 34.6999 174.3 35.3999C174.5 36.0999 175.1 37.5999 175.6 38.9999C176.2 40.7999 177 42.7999 177.5 44.3999V44.5999L177.7 49.6999ZM169.6 45.9999C172.3 46.6999 173.9 47.1999 176.5 47.9999L176.4 44.4999C175.9 42.8999 175.1 40.9999 174.5 39.2999C173 35.1999 173 35.1999 173 34.9999V34.6999L173.3 34.4999C173.4 34.3999 175.7 32.9999 175.7 28.7999C175.7 22.9999 172.6 19.6999 165.3 17.9999C162.1 17.1999 160.4 16.6999 157.4 16.0999L157.5 21.0999L158.7 21.3999L159 43.3999C161.2 43.8999 162.5 44.1999 164.6 44.7999L164.5 34.7999L167 35.4999C169 35.9999 169.1 36.5999 169.8 39.1999C170 39.8999 170.2 40.6999 170.4 41.7999L170.7 42.7999L169.6 42.4999V45.9999ZM168.4 30.9999C167.9 30.9999 167.3 30.7999 166.6 30.5999L164.5 29.9999L164.4 22.4999L166.6 23.0999C169.4 23.7999 170.3 24.1999 170.4 27.3999C170.4 29.1999 170.2 30.0999 169.6 30.5999C169.2 30.8999 168.8 30.9999 168.4 30.9999ZM165.7 29.0999L166.9 29.3999C167.8 29.5999 168.5 29.7999 168.8 29.5999C168.9 29.4999 169.2 29.0999 169.1 27.3999C169.1 24.9999 168.7 24.8999 166.2 24.2999L165.6 24.0999L165.7 29.0999Z" fill="white"/>
<path d="M193 54.2C191.3 54.2 189.3 53.7 186.8 52.8C184.6 52 182.4 51.1 180.2 50.3L179.8 50.1L179.7 41.4L180.5 41.7C183 42.5 184.2 42.9 186.7 43.8L187.1 43.9V45.4C187.3 45.5 187.6 45.6 187.8 45.7C188.1 45.8 188.5 46 188.9 46.1C190.3 46.6 190.6 46.4 190.7 46.3C190.8 46.2 190.9 45.9 190.8 45.2C190.4 43.1 188.5 41.7 186.3 40.1C183.4 37.9 180.1 35.4 179.8 30.8C179.6 27.9 180.3 25.8 181.9 24.6C183.9 23.2 187.2 23.2 191.1 24.8C193.4 25.7 195.3 26.5 197 27.4L197.3 27.6L197.5 36.1L196.6 35.8C194.4 34.9 193.3 34.5 191 33.6L190.6 33.5V32.3C190.5 32.3 190.4 32.2 190.4 32.2C190.2 32.1 190 32 189.8 31.9C188.5 31.4 187.7 31.4 187.5 31.6C187.3 31.7 187.4 32.1 187.4 32.2C187.7 34.6 189.7 36.1 192.1 37.9C194.9 40 198.2 42.5 198.5 47.1C198.7 50.1 198.1 52.2 196.5 53.3C195.6 53.8 194.5 54.2 193 54.2ZM181 49.3C183.1 50.1 185.2 50.9 187.2 51.7C191.3 53.2 194.2 53.4 195.8 52.2C197 51.3 197.5 49.6 197.3 47C197 42.9 194.1 40.7 191.4 38.6C189 36.8 186.7 35 186.3 32.1C186.2 31.1 186.5 30.6 186.8 30.3C187.5 29.8 188.6 29.8 190.3 30.4C190.5 30.5 190.8 30.6 191 30.7C191.2 30.8 191.4 30.9 191.5 30.9L191.9 31V32.2C193.6 32.8 194.7 33.2 196.2 33.9L196.1 28C194.5 27.2 192.7 26.4 190.6 25.6C187 24.2 184.2 24.1 182.5 25.3C181.2 26.2 180.7 27.9 180.9 30.4C181.2 34.5 184.1 36.7 186.9 38.8C189.2 40.5 191.4 42.2 191.9 44.7C192 45.1 192.2 46.3 191.4 47C190.6 47.7 189.3 47.3 188.4 47C188 46.9 187.7 46.7 187.3 46.6C186.9 46.5 186.5 46.3 186.2 46.2L185.8 46.1V44.6C183.9 43.9 182.7 43.5 180.8 42.9L181 49.3Z" fill="white"/>
<path d="M61.9999 192.1L61.7999 146.7L68.7999 145.4C69.6999 145.2 70.4999 145.1 71.1999 144.9L71.0999 101.1L61.5999 102.9L61.3999 57.2001L68.4999 56.0001C89.4999 52.3001 109.9 52.3001 130.8 56.0001L137.9 57.2001L137.7 102.9L128.3 101.1L128.2 144.9C128.9 145 129.7 145.2 130.5 145.3L137.5 146.6L137.3 192L127.3 190.3C108.7 187 90.5999 187.1 71.8999 190.3L61.9999 192.1ZM78.9999 161V172C92.7999 170.4 106.4 170.4 120.2 172V161C119.6 160.9 119 160.8 118.4 160.8L110.9 159.8L111.1 81.2001L120.5 82.4001V71.7001C106.4 69.8001 92.4999 69.8001 78.3999 71.7001V82.4001L87.8999 81.2001L88.0999 159.8L80.5999 160.8C80.1999 160.9 79.5999 161 78.9999 161Z" fill="#008752"/>
<path d="M66.7 186.5L66.5 150.5L69.7 149.9C72.2 149.4 74 149.1 75.9 148.8L75.7 95.4001C74.2 95.6001 72.8 95.9001 70.8 96.3001L66.2 97.2L66 61.1L69.2 60.5C89.6 56.9 109.5 56.9 129.9 60.5L133.1 61.1L132.9 97.1L128.3 96.2C126.4 95.8 124.9 95.6001 123.5 95.3001L123.3 148.7C125.3 149 127 149.3 129.5 149.8L132.7 150.4L132.5 186.4L128 185.6C108.8 182.3 90.2 182.3 71 185.6L66.7 186.5ZM74.3 157L74.4 177.4C91.4 174.9 108 174.9 125 177.4L125.1 157C123.2 156.7 121.6 156.4 119.2 156.1L115.8 155.7L116 86.6L120.4 87.2C122.4 87.5 123.9 87.7001 125.5 87.9001L125.6 67.7C108.3 65 91.3 65 74 67.7V87.9001C75.6 87.6001 77.1 87.4 79.1 87.2L83.5 86.6L83.7 155.7L80.3 156.1C77.8 156.4 76.2 156.7 74.3 157Z" fill="white"/>
<path d="M128.8 181.9C109.2 178.5 90.1 178.5 70.5 181.9C70.5 172.5 70.4 163.1 70.4 153.8C74.1 153.1 76 152.8 79.8 152.3C79.7 131.9 79.7 111.4 79.6 91.0001C75.8 91.5001 73.9 91.8001 70.1 92.5001C70.1 83.1001 70 73.7001 70 64.4001C89.9 60.9001 109.4 60.9001 129.4 64.4001C129.4 73.8001 129.3 83.2001 129.3 92.5001C125.5 91.8001 123.7 91.5001 119.9 91.0001C119.8 111.4 119.8 131.9 119.7 152.3C123.4 152.8 125.3 153.1 129 153.8C128.9 163.2 128.9 172.5 128.8 181.9Z" fill="#007AC1"/>
<path d="M69.5 183.1L69.4 152.9L70.2 152.7C73.6 152 75.6 151.7 78.8 151.3L78.6 92.1001C75.5 92.5001 73.7 92.8001 70.3 93.5001L69.1 93.7001L69 63.5001L69.8 63.4001C89.9 59.9001 109.4 59.9001 129.5 63.4001L130.3 63.5001L130.2 93.7001L129 93.5001C125.7 92.9001 123.8 92.6001 120.8 92.1001L120.6 151.3C123.8 151.7 125.7 152 129.1 152.7L129.9 152.9L129.8 183.1L128.6 182.9C109.1 179.5 90.1 179.5 70.6 182.9L69.5 183.1ZM71.4 154.6L71.5 180.7C90.4 177.5 108.9 177.5 127.8 180.7L127.9 154.6C124.7 154 122.9 153.7 119.5 153.3L118.6 153.2L118.8 89.9001L119.9 90.0001C123.3 90.4001 125.2 90.7001 128.2 91.3001L128.3 65.3001C109 62.0001 90.3 62.0001 71 65.3001L71.1 91.3001C74.1 90.7001 76.1 90.4001 79.4 90.0001L80.5 89.9001L80.7 153.2L79.8 153.3C76.5 153.7 74.6 154 71.4 154.6Z" fill="white"/>
<path d="M128.8 181.9C109.2 178.5 90.1 178.5 70.5 181.9C70.5 172.5 70.4 163.1 70.4 153.8C74.1 153.1 76 152.8 79.8 152.3C79.7 131.9 79.7 111.4 79.6 91.0001C75.8 91.5001 73.9 91.8001 70.1 92.5001C70.1 83.1001 70 73.7001 70 64.4001C89.9 60.9001 109.4 60.9001 129.4 64.4001C129.4 73.8001 129.3 83.2001 129.3 92.5001C125.5 91.8001 123.7 91.5001 119.9 91.0001C119.8 111.4 119.8 131.9 119.7 152.3C123.4 152.8 125.3 153.1 129 153.8C128.9 163.2 128.9 172.5 128.8 181.9Z" fill="#007AC1"/>
<path d="M66.9 122.2C67.1 108.1 81.8 98.5001 99.9 98.7001C119.1 98.9001 132.9 109.4 132.2 122.6C131.6 135.4 117.1 145.6 99.1 145.3C81 144.9 66.7 135 66.9 122.2Z" fill="#002E57"/>
<path d="M110 111.9C108.6 112.5 108.1 112.6 106.7 114.4C103.1 118.9 104.2 126.4 114.6 128.2C124.1 129.9 128.9 124.8 128.9 124.9C127.1 134.9 113.3 143.6 96.5 142C82 140.6 71.2 132.4 70.4 123.6C69.4 110.9 81.6 104.3 91.4 102.5C115 98.4 132.4 112.6 123.9 120.3C124.5 118.8 124.3 117.3 123.7 116.3C123.5 117.4 123 120.6 118.6 121.1C119.4 119.8 120.5 117.9 119.7 116.3C118.5 119.6 114.7 121.2 110.6 120.3C113.5 118.9 114.9 117.2 115 115.4C113.1 118.8 109.4 118.7 107 118C109.4 115.8 110.1 113.7 110 111.9Z" fill="white"/>
<path d="M109.8 111.2C107.8 111.8 106.8 112.7 105.4 114.5C102 119 103.2 127 113.3 129.2C123 131.2 127.4 127.2 127.4 127.3C124.1 135 112.1 142.6 96.5 141.1C83.1 139.8 72.4 132.4 71.5 123.9C70.6 111.9 82 106.1 87.4 105.4C99.5 102.7 108.6 106.3 109.8 111.2Z" fill="#008752"/>
<path d="M124.8 117.4C124.9 116.4 124.1 114.6 122.9 113.9C123 115.8 122.5 118.9 120.2 119.8C121.4 117.9 121.2 116.3 119.2 113.8C118.8 117.7 116.3 119.2 113.1 119.6C115.3 118.8 116.9 115.2 115.3 112.6C113.7 117.1 110.3 117.4 109 117.4C116.1 108.9 104.3 100.9 88.7 104.1C106.5 98.9999 126.9 108.2 124.8 117.4Z" fill="white"/>
<path d="M91.7001 120C91.3001 122.3 92.5001 128.5 97.7001 130C97.6001 130 95.8001 128.3 95.9001 124.5L94.7001 126.2C93.6001 123 93.7001 119.3 94.7001 116.9C94.6001 117 93.3001 118 93.3001 118C93.8001 114 95.3001 112.2 97.7001 111.1C95.8001 112.7 95.6001 113.5 95.1001 115L97.0001 113.6C95.7001 116.2 96.2001 118.8 96.9001 121L97.9001 119.3C97.5001 121.8 99.0001 127 103.5 128.5C102.8 127.7 101.4 126.6 101.4 124.1L100.8 125.3C99.9001 122.6 99.6001 119.2 100.6 116.8L99.2001 117.8C99.3001 114.6 101.3 112.3 103 111.9C101.9 112.5 101.1 113.9 100.7 115.3L102.3 114.3C101.4 116.8 101.9 119.7 102.3 121.4L103.4 119.5C103.6 122.4 105.1 125.9 109.6 127.7C114.3 129.6 120.9 130.7 127.2 127.2C118.4 144 88.3001 145.8 74.6001 130.9C71.7001 127.8 72.4001 123.1 73.1001 121.7C73.0001 121.8 71.7001 123.1 71.6001 123.1C71.5001 117.8 74.2001 112.6 77.8001 110C76.7001 111.7 74.3001 113.7 73.7001 118.6C73.8001 118.6 75.9001 116.3 75.9001 116.3C74.4001 119.5 74.8001 122.7 75.7001 125.2L77.0001 123.4C77.2001 130.3 82.5001 133.3 84.6001 133.8C83.7001 132.7 81.2001 128.8 81.7001 126.1L80.5001 128.1C79.5001 125.4 79.3001 122.1 80.1001 119.4C80.0001 119.4 78.5001 121.1 78.5001 121.1C78.8001 116 81.2001 112.1 84.6001 110.1C83.1001 111.5 81.5001 113.1 80.8001 116.6L83.0001 114.6C81.6001 117.9 81.9001 120.4 82.6001 122.7L84.0001 120.5C83.4001 124.7 85.6001 129.1 90.8001 131.5C90.8001 131.5 88.2001 129.2 88.6001 124.9L87.7001 126.7C86.8001 123.6 86.8001 120.5 87.7001 118C87.6001 118.1 86.2001 119.3 86.2001 119.2C86.5001 113.9 88.9001 111.2 91.5001 110.1C89.3001 111.8 88.7001 113 88.2001 115.5L90.3001 113.6C88.9001 117.7 89.5001 119.9 90.2001 121.6L91.7001 120Z" fill="#002E57"/>
</svg>
