<?xml version="1.0" encoding="UTF-8"?>
<svg width="200px" height="200px" viewBox="0 0 200 200" version="1.1" xmlns="http://www.w3.org/2000/svg" xmlns:xlink="http://www.w3.org/1999/xlink">
    <!-- Generator: Sketch 54.1 (76490) - https://sketchapp.com -->
    <title>arkansas-st</title>
    <desc>Created with Sketch.</desc>
    <g id="arkansas-st" stroke="none" stroke-width="1" fill="none" fill-rule="evenodd">
        <g id="arkansas-st_BGL" transform="translate(-0.000000, 0.000000)">
            <g id="arkansas-st" transform="translate(2.000000, 0.000000)">
                <g id="g10" transform="translate(97.098763, 99.648703) scale(-1, 1) rotate(-180.000000) translate(-97.098763, -99.648703) translate(0.000000, 0.080302)">
                    <g id="g12">
                        <path d="M193.640612,92.5417622 L189.132341,107.390462 C186.148761,117.230068 183.328884,126.525582 169.784811,135.816277 C168.932588,137.185021 169.234317,139.634725 169.614687,140.32801 L169.746292,140.530519 L169.847403,140.750212 C174.360489,150.55513 175.403699,161.130579 172.79086,170.547823 C171.861601,175.27411 169.359502,181.741238 167.417527,186.351897 C163.18691,196.397064 162.485551,196.745554 161.516169,197.230548 L159.954724,198.00943 L158.430675,197.164704 C157.796724,196.811397 157.339157,196.340856 156.235762,195.205455 C153.773144,192.676097 148.007885,186.751777 141.41191,184.559666 C135.582132,182.624506 129.120972,179.883163 124.439207,174.244701 C123.416059,174.898319 122.498836,175.996784 121.321454,177.471038 C120.548355,178.439421 119.749096,179.438317 118.803627,180.344069 L117.036911,182.043155 L114.900417,180.845122 C114.052849,180.37137 113.269158,179.879951 112.511145,179.402987 C110.460516,178.118233 108.845466,177.103278 107.188528,177.103278 C106.602405,177.103278 105.997343,177.226935 105.337874,177.480674 C103.456405,178.291675 102.662121,179.481678 101.564985,181.119739 C100.92301,182.080092 100.19517,183.16892 99.1964173,184.215995 L96.8066642,186.713234 L94.4180347,184.215995 C93.4011458,183.151255 92.6688125,182.038337 92.0212199,181.053895 C90.9404545,179.40941 90.1580471,178.217801 88.3017756,177.421254 C87.6434299,177.167515 87.0383682,177.043858 86.4528867,177.043858 C84.7972324,177.043858 83.1778498,178.058813 81.1277017,179.343567 C80.3722572,179.818926 79.5885659,180.308738 78.742282,180.785703 L76.6045043,181.980523 L74.8339364,180.281437 C73.8923191,179.375686 73.0930599,178.378396 72.3188377,177.410013 C71.1432204,175.937364 70.2242328,174.837294 69.2023686,174.185281 C64.5204428,179.822137 58.0586405,182.56348 52.2288629,184.500246 C45.6341717,186.690751 39.8682706,192.618283 37.4051719,195.146035 C36.3022584,196.27983 35.8446905,196.750371 35.2109004,197.105285 L33.686851,197.953222 L32.1257276,197.169522 C31.1565054,196.684528 30.4549869,196.334433 26.2238882,186.292478 C24.28095,181.680212 21.7814192,175.21469 20.8503945,170.485191 C18.2386786,161.069553 19.2806045,150.496835 23.7912834,140.690632 L23.8747401,140.499204 L24.008271,140.29541 C24.3611969,139.65239 24.7128389,137.141179 23.8540364,135.751718 C10.3098504,126.454759 7.36015043,116.736241 4.50888137,107.330882 L0,92.480897 L8.32812078,101.831173 C7.18648007,97.096053 7.12128748,92.559267 7.44290105,89.6623083 L8.17202449,83.0962541 L12.6752565,87.314903 C10.0640862,83.5666345 8.69048373,79.7432079 8.58141213,75.8895896 L8.5745109,75.6385809 L8.6328183,75.1617767 C8.91994175,72.8439207 9.19265286,70.65454 12.1392232,67.557481 L14.3993132,65.1843806 L15.3585046,66.0812992 C16.3334564,61.7340143 19.0079255,57.3459385 23.6465179,54.1955622 L27.0388759,51.8913567 L28.3228265,55.0863782 C30.7339252,51.6843508 33.2103448,49.4593182 35.2540732,47.6211571 C38.6494805,44.5611953 40.3547274,43.0273602 40.3290484,38.312957 L40.3290484,38.0871615 L40.3579373,37.8644174 C40.6927274,35.3031006 41.7158755,33.7373072 43.6775915,32.7819323 L47.0980359,31.1119133 L48.2698013,34.7397362 C48.4797272,35.387252 49.7843815,36.3344365 50.6483197,36.9593085 C50.769974,37.0508472 50.8922703,37.1393346 51.0075049,37.2239678 C54.9177764,39.4472338 58.0648998,40.5262662 60.6258997,40.5262662 C62.0334305,40.5262662 63.2257392,40.1843611 64.2527391,39.4817615 C66.1460848,36.1192403 67.5735168,32.569948 69.0826402,28.8266579 C69.8530106,26.9107692 70.6479365,24.944775 71.5150846,22.992592 C70.8084303,20.4707814 71.1395291,17.2783294 71.9965661,14.954708 C72.9638624,12.328736 74.6609241,10.5220513 76.780566,9.87153242 L79.4612943,9.04471321 C81.7703189,5.73183163 84.9519485,4.46589972 85.1646028,4.38434999 L88.4816891,3.13158679 L89.5147879,6.52351284 C89.5950348,6.78510472 89.7035286,7.07555538 89.8351336,7.38105371 C93.681368,0.335616171 95.2712198,0.166867004 96.4818247,0.0351299801 L96.8347507,0 L97.1865531,0.0351299801 C98.4655284,0.173141419 100.013331,0.34063474 103.819442,7.41306014 C103.943022,7.12260948 104.047022,6.84470122 104.121652,6.60193098 L105.132923,3.16545611 L108.473763,4.44394649 C108.688824,4.52737518 111.871738,5.79080182 114.176911,9.10430972 L116.861491,9.93111287 C118.976639,10.5847955 120.676911,12.3914802 121.644849,15.0155572 C122.501244,17.3409611 122.832985,20.5334131 122.125849,23.0515301 C122.990269,25.0043555 123.784552,26.9716344 124.555083,28.8875231 C126.064688,32.631295 127.492281,36.1788207 129.388676,39.5443933 C130.415676,40.2469929 131.607503,40.5888979 133.014873,40.5888979 C135.574589,40.5888979 138.722515,39.5068142 142.631342,37.2835482 C142.749787,37.1982727 142.871441,37.1097853 142.993095,37.0201737 C143.857675,36.3920898 145.161688,35.44619 145.370972,34.7993166 L146.544021,31.1678001 L149.967033,32.8447247 C151.925539,33.7988148 152.947404,35.3646082 153.28412,37.9209466 L153.311725,38.146742 L153.311725,38.3714133 C153.286046,43.0888677 154.991292,44.623827 158.387342,47.6807375 C160.43107,49.52195 162.90765,51.7471431 165.318267,55.1440315 L166.602218,51.9541491 L169.995057,54.2564274 C174.633329,57.4087309 177.305551,61.7935948 178.282959,66.1428067 L179.242712,65.2426763 L181.50086,67.6202733 C184.449131,70.7160476 184.721971,72.9035011 185.006045,75.2232843 L185.065427,75.6981613 L185.057403,75.9522213 C184.941847,80.1459781 183.341724,83.96812 180.98407,87.3569786 L185.466662,83.1288547 L186.198514,89.7207646 C186.519502,92.619008 186.453699,97.1588453 185.314193,101.890753 L193.640612,92.5417622 L193.640612,92.5417622" id="path14" fill="#FFFFFF" fill-rule="nonzero"></path>
                        <path d="M186.108637,105.971452 C183.157156,115.683707 180.647033,124.506912 167.475304,133.382311 C165.181848,136.062147 165.878391,140.650965 166.846169,142.134695 C170.723699,150.56589 172.163329,160.573478 169.572959,169.781788 C167.97444,178.110203 160.478095,194.052389 160.038021,194.272403 C159.044403,193.721565 151.790243,184.519518 142.452712,181.423262 C136.1827,179.337143 129.776108,176.512291 125.642268,170.334232 C121.122762,170.997486 119.270182,175.309441 116.51354,177.957639 C112.382108,175.640265 109.161479,172.433199 104.090837,174.414931 C99.8798,176.200738 99.2309234,179.391745 96.8066642,181.927527 C94.3816026,179.391745 93.760331,176.139713 89.550578,174.355511 C84.4792942,172.370567 81.2594671,175.580845 77.1248252,177.895007 C74.3688253,175.250021 72.518171,170.934855 67.998665,170.274813 C63.8627391,176.451265 57.4567887,179.277723 51.186937,181.359024 C41.8506903,184.461704 34.5976535,193.658933 33.6046782,194.209771 C33.1639621,193.989757 25.6684191,178.050783 24.0678142,169.722369 C21.4779254,160.510686 22.9167525,150.50631 26.7949253,142.07383 C27.7604561,140.591385 28.4587647,136.004493 26.1641845,133.320804 C12.9899688,124.449259 10.4835047,115.624126 7.53380475,105.911871 C10.6026232,109.357099 15.4155601,112.144371 16.6831724,111.480636 C10.7317726,104.790281 10.2346109,94.4945876 10.7286429,90.0281419 C10.7286429,90.0281419 32.3558757,110.299947 55.4311961,110.323233 C63.1467762,103.979763 71.0862451,97.6387008 81.611751,97.8571089 C81.118393,97.3627999 80.455714,97.1419829 79.9045782,96.8106771 C76.4854178,94.6590361 71.3043562,94.4945876 67.998665,96.9192388 C63.5348503,99.2372554 61.2734923,104.809071 56.3671961,106.186006 C54.4387023,106.683526 49.9705543,107.398652 36.0746781,101.20068 C27.2744808,97.2749549 12.220096,87.490593 11.8884516,75.7972479 C12.1636824,73.5903625 12.2614713,72.2309327 14.53347,69.8409698 C16.2405305,71.4406486 17.343444,74.0326389 19.4385304,75.0238263 C17.0142712,70.6137491 17.9772341,62.0433187 25.5021475,56.9369051 C25.5021475,56.9369051 27.1008265,60.9090419 28.4231351,61.7327296 C29.1992832,60.2994264 29.4061598,59.4649789 29.98474,58.546059 C36.3412584,48.4336031 43.6925174,48.5445737 43.6361841,38.2941675 C43.8661717,36.5302008 44.4330359,36.0916181 45.1238013,35.7548521 C45.730147,37.631074 47.7143321,38.8996076 49.2019494,40.0036927 C54.109048,42.8140911 61.4928874,46.0685324 66.7842082,41.710006 C70.258097,35.7548521 72.2429241,29.2507872 75.1085413,23.0728891 C73.675492,20.8094745 74.5168006,14.034423 77.75364,13.0338569 C78.0983808,15.1667406 79.2720721,17.2218002 80.4005042,17.4997888 C80.1485289,9.85081577 86.3463188,7.47390928 86.3463188,7.47390928 C86.3463188,7.47390928 87.6691089,11.9642675 90.5955533,13.1417441 C90.5955533,13.1417441 95.2895161,3.49104478 96.8347507,3.327319 C98.3777383,3.49104478 103.04201,13.2025933 103.04201,13.2025933 C105.969738,12.0251166 107.292047,7.53663737 107.292047,7.53663737 C107.292047,7.53663737 113.491763,9.91168097 113.241553,17.5624205 C114.366293,17.2813807 115.542392,15.2275897 115.884725,13.0934535 C119.124614,14.0921406 119.966565,20.8709821 118.532874,23.1318272 C121.398491,29.3084405 123.381552,35.8157173 126.852873,41.7726377 C132.14596,46.1313248 139.533009,42.8767228 144.436898,40.0650396 C145.925317,38.9622393 147.909502,37.6919392 148.518256,35.8157173 C149.205972,36.1511985 149.773317,36.5917084 150.005231,38.3537479 C149.947614,48.6041542 157.299675,48.4962349 163.655551,58.6099754 C164.234934,59.5245594 164.441971,60.3590068 165.217156,61.7935948 C166.539625,60.9705495 168.139749,56.9964856 168.139749,56.9964856 C175.663699,62.1041839 176.626662,70.6752567 174.201601,75.0866186 C176.296045,74.0941465 177.398638,71.5013532 179.107897,69.8986232 C181.380489,72.2906737 181.475181,73.6531548 181.752835,75.8581131 C181.422218,87.5514582 166.41444,97.2749549 157.61312,101.20068 C143.716601,107.398652 139.202071,106.743107 137.270527,106.245586 C132.365997,104.868651 130.105923,99.2998871 125.642268,96.9820311 C122.335133,94.5524015 117.156158,94.7216678 113.736837,96.8734694 C113.185701,97.2015634 112.523022,97.4223804 112.027256,97.9179741 C122.55517,97.6982812 130.492071,104.040628 138.208935,110.384741 C161.331601,110.438058 182.909995,90.0857952 182.909995,90.0857952 C183.405921,94.5524015 182.906786,104.849862 176.958884,111.542143 C178.225181,112.203952 183.036786,109.416679 186.108637,105.971452 L186.108637,105.971452 Z M96.8135655,22.5069552 C94.6091828,22.9505163 91.4426397,22.4285852 88.4771953,24.8500245 L90.2113311,26.6554244 C91.370578,25.7401981 91.6745533,25.5683623 92.85001,24.6015853 C93.8612816,25.5683623 93.7659483,25.6197524 94.9508742,26.9314858 C95.357084,26.3970283 95.9088618,26.2295286 96.8066642,25.0000194 C97.7043062,26.2295286 98.2629852,26.4578935 98.670479,26.9942782 C99.8515531,25.8187287 99.7619975,25.6292275 100.771343,24.6606839 C101.949368,25.6292275 102.252701,25.8029904 103.40938,26.7162896 L105.146726,24.9128168 C102.178072,22.4894504 99.022121,22.9505163 96.8135655,22.5069552 L96.8135655,22.5069552 Z M111.623454,36.2303715 C110.225392,33.4355507 109.07754,31.2273805 108.006084,29.2795335 L107.765343,28.8411114 L105.120244,33.6671275 C104.299639,32.8590175 102.55122,31.5053691 101.978738,31.0699982 L101.746183,30.8906145 L101.582639,31.1358418 C101.369343,31.4589574 100.693022,32.1527243 100.096788,32.7661941 C99.877874,32.9895806 99.6673062,33.2060616 99.4748741,33.4035925 C99.0348,33.0597603 98.5533185,32.7160887 98.1212692,32.4111203 C97.6404297,32.066164 97.2228247,31.7719554 97.0034297,31.5680008 L96.8135655,31.3899019 L96.6248247,31.5680008 C96.410405,31.7719554 95.994084,32.0642369 95.5095532,32.4048572 C95.0757384,32.714804 94.5884791,33.056709 94.1459976,33.4035925 C93.9572569,33.2078281 93.7458865,32.9908654 93.5309853,32.7674789 C92.9328248,32.1557756 92.2550594,31.4589574 92.0395162,31.1358418 L91.8764545,30.8906145 L91.641331,31.0699982 C91.0727014,31.5053691 89.3236397,32.8559663 88.4998249,33.6671275 L85.8579361,28.8411114 L85.6152695,29.2795335 C84.5539238,31.2118029 83.3715658,33.4819624 81.9978992,36.2303715 L81.7258622,36.7760705 L82.3158374,36.6204548 C87.7687756,35.1763918 90.7385533,35.1763918 96.6818001,35.2329209 L96.8034544,35.2329209 L96.9313679,35.2329209 C102.877183,35.1796037 105.855787,35.1763918 111.308084,36.6204548 L111.897417,36.7760705 L111.623454,36.2303715 L111.623454,36.2303715 L111.623454,36.2303715 Z" id="path16" fill="#231F20" fill-rule="nonzero"></path>
                        <path d="M49.8646284,157.424386 C47.6051963,164.042152 40.8156656,166.759406 35.8759868,171.954628 C34.8841349,172.892498 34.5249498,173.788614 34.3769744,175.293381 C32.4467152,171.765127 30.594135,164.222017 37.5730484,157.534072 C35.8759868,156.879811 32.1257276,159.542784 32.3464066,159.157037 C36.5900238,153.529977 43.3044434,145.511509 39.831999,137.845706 C37.2960361,137.953625 35.0471967,137.575907 32.555851,136.521928 C34.1006041,144.903018 28.8632092,151.466021 28.697098,159.685874 C28.7540734,168.289868 30.6819252,176.122047 34.1006041,183.345574 C38.6213941,174.633339 50.250295,168.397466 49.8646284,157.424386 L49.8646284,157.424386" id="path18" fill="#D01C2E" fill-rule="nonzero"></path>
                        <path d="M63.203912,145.235448 C62.9906157,144.320864 67.139702,146.433641 69.3195291,144.847773 C64.579986,141.374281 60.4479121,136.57653 57.6925541,131.721125 C54.3847764,133.931222 50.2007024,135.742243 46.5570112,136.521928 C55.176011,145.96326 58.0774183,159.133751 53.5559863,168.675294 C52.5654184,170.769443 51.3530481,172.810595 49.9756901,174.740937 C55.2638011,171.212683 68.4210847,167.853052 63.203912,145.235448 L63.203912,145.235448" id="path20" fill="#D01C2E" fill-rule="nonzero"></path>
                        <path d="M139.082984,98.8357699 C134.673737,93.3749249 128.722947,90.5079973 122.437367,89.0162379 C116.209405,87.8588355 111.083713,90.9483466 106.672541,94.9746037 C104.580504,94.5353785 102.374355,94.3126344 100.335602,93.6521105 C99.0134543,93.9834163 100.059714,94.9746037 99.9500963,95.9123132 C103.47775,99.8267967 107.33522,104.407585 112.901787,103.852411 C117.641972,103.910707 121.446157,106.115826 125.582083,107.550414 C131.200491,110.416057 136.38396,115.60084 139.635243,121.061685 C140.847774,120.313316 140.586972,120.575567 141.178713,120.012202 C141.240824,118.001563 140.077243,116.063191 138.97449,113.747101 C161.331601,113.747101 170.44765,105.564988 175.185428,102.806622 C173.808391,107.494045 171.954687,111.388455 167.634193,115.490994 C170.32086,117.649059 172.761971,118.304604 174.413452,117.752481 C169.67407,123.599234 163.83049,128.341741 157.054441,130.162237 C148.123922,132.423724 140.8107,128.22258 133.977194,124.199535 C132.283342,127.389418 119.895787,150.244702 99.7844666,146.707775 C99.2347753,147.039081 99.0685037,147.810575 99.5087383,148.197768 C101.217035,149.850764 103.145528,150.900247 104.965528,152.278467 C105.793034,154.320422 102.485899,155.147161 103.64322,156.800157 C106.950355,156.029786 109.485676,153.326022 112.242158,151.23075 C114.721145,150.84693 114.886614,154.483425 116.871442,154.927628 C118.523404,153.159807 119.738503,151.505527 121.722688,150.459255 C121.44054,154.767677 121.370886,154.834805 121.996651,158.007825 C119.130232,158.835849 116.836935,161.162698 115.130565,163.369262 C102.393133,155.935678 96.7702321,166.288865 96.7702321,166.288865 C96.7702321,166.288865 91.1831212,155.896814 78.4495412,163.33072 C76.7386771,161.124155 74.4465043,158.798109 71.582171,157.968158 C72.1771217,154.63085 72.1771217,154.560671 71.856776,150.418465 C73.8409611,151.466021 75.051566,153.122228 76.7065783,154.888122 C78.690924,154.444561 78.8563931,150.807424 81.3371461,151.191886 C84.093146,153.288443 86.6291089,155.990923 89.9373681,156.762578 C91.0927632,155.10637 87.7857879,154.282682 88.614578,152.237676 C90.4300842,150.860741 92.3609853,149.813024 94.0681581,148.156977 C94.5114421,147.772996 94.345331,147.001341 93.7941952,146.670196 C73.6830352,150.206962 61.2961219,127.350554 59.6021096,124.158744 C52.7649123,128.184841 45.4549001,132.384861 36.5248633,130.124658 C29.7459252,128.304162 23.9029871,123.559728 19.16216,117.712975 C20.8158884,118.265098 23.2584439,117.609552 25.9417401,115.453415 C21.6228513,111.350715 19.7702711,107.455021 18.3909872,102.765831 C23.1324562,105.527248 32.3558757,113.747101 54.6048134,113.747101 C53.5027024,116.063191 52.3384802,117.962699 52.4005913,119.974463 C52.9899246,120.53606 52.7284802,120.274452 53.9427764,121.022179 C57.1947023,115.563261 62.3751219,110.378478 67.998665,107.509623 C72.1337883,106.075035 75.934924,103.867989 80.6757511,103.814672 C86.2434423,104.366795 90.1021953,99.7872905 93.6280841,95.872807 C93.5183063,94.936864 94.56601,93.9426254 93.2432199,93.6100348 C91.2049483,94.2731282 88.9994422,94.4945876 86.9037139,94.936864 C82.4944671,90.9094828 77.3681339,87.8212565 71.1395291,88.9786588 C64.8569984,90.4672064 58.903159,93.3354187 54.4945542,98.7961031 C53.668332,97.9680795 52.9517271,97.0867385 52.2351222,96.2587148 C49.2578012,92.3993152 45.8956161,88.4817804 45.235505,83.8489591 C48.6496901,84.4587352 55.7873319,84.4103964 59.3995664,80.2638543 C58.0774183,79.8228626 52.6853073,75.8487987 51.4639493,70.4475341 C53.889011,71.6036517 56.4424677,73.0057996 64.3060231,75.6310329 C64.6369613,75.4648179 65.1316033,75.0238263 64.9648502,74.6944476 C63.5348503,71.3288751 60.3732824,67.8944076 62.541875,63.8292868 C64.8614922,59.4837685 74.3925784,58.0390631 75.5492574,56.9369051 C77.5316771,52.3448747 78.8563931,48.3375678 80.6757511,43.8711221 C81.0055659,42.8221208 82.4405411,41.8229037 83.3232572,41.3260253 C87.7625163,40.2219402 92.2626026,39.7576624 96.7132568,39.7703493 C101.163751,39.7576624 105.816146,40.2627311 110.256689,41.3648891 C111.138763,41.8624099 112.570047,42.8611452 112.901787,43.9106282 C114.721145,48.3753074 116.047627,52.3838991 118.027479,56.9727176 C119.186083,58.075518 128.717972,59.5227929 131.034379,63.8668658 C133.206663,67.9339138 130.044454,71.369666 128.610762,74.7352385 C128.445293,75.0633325 128.942342,75.5056089 129.274083,75.6731086 C137.136997,73.0446634 139.691095,71.6425155 142.115354,70.4851132 C140.891589,75.8863777 135.501244,79.8604416 134.179737,80.3046452 C137.788281,84.4492602 144.925922,84.4963143 148.343959,83.8878229 C147.68128,88.5225713 144.320379,92.4370548 141.345466,96.298221 C140.628379,97.1262447 139.911132,98.0075856 139.082984,98.8357699 L139.082984,98.8357699 Z M108.087615,122.915424 C106.696454,120.178417 106.874442,117.235047 106.874442,117.235047 C113.049763,123.523915 132.559713,119.882281 132.559713,119.882281 C127.488589,117.681659 113.758824,119.691014 105.275763,103.998552 C100.645997,107.032819 100.902948,119.62517 108.087615,122.915424 Z M88.1173682,104.09266 C79.6351091,119.785122 65.9047021,117.775767 60.8334182,119.974463 C60.8334182,119.974463 80.3440103,123.616096 86.5186892,117.327228 C86.5186892,117.327228 86.6986028,120.272525 85.3043929,123.009532 C92.4901829,119.717351 92.747294,107.123876 88.1173682,104.09266 Z M107.905775,45.4174836 C105.919664,43.2110799 102.779923,43.6753577 100.133701,44.3917684 C99.1036518,45.4695161 97.9846889,45.8440217 96.8135655,45.85976 L96.8034544,45.85976 C95.6374667,45.8440217 94.5345532,45.4708008 93.5045038,44.3936956 C90.8602076,43.6766425 87.7187015,43.2123647 85.7362818,45.4192501 C83.6943189,49.060884 80.3334177,52.536303 82.0418745,57.443098 C82.9239485,59.099306 84.6887386,60.4216386 86.2874176,61.1380493 C88.8784299,61.6355701 91.1134669,60.2409701 93.5603557,61.6901721 C94.6035655,62.3068538 95.7921828,62.6142311 96.8066642,62.6423351 C97.8203432,62.6142311 99.0348,62.3036419 100.076726,61.6869602 C102.524899,60.2409701 104.761701,61.6336429 107.353997,61.1367645 C108.950269,60.4185873 110.715059,59.0960941 111.597775,57.4419739 C113.306071,52.531164 109.943244,49.0559056 107.905775,45.4174836 L107.905775,45.4174836 Z M113.010281,66.4313945 C112.862306,66.1742832 112.598293,66.0279819 112.279874,66.0279819 C112.229639,66.0279819 112.170738,66.029909 112.115528,66.0374569 L112.011528,66.0782479 C111.271812,66.5820319 110.533861,67.132067 109.82159,67.6671668 C107.580454,69.3484275 105.26196,71.0892685 102.499059,71.4920388 C102.052084,71.5816503 101.616343,71.6256531 101.198257,71.6256531 C99.6189975,71.6256531 98.1626766,71.0027083 96.982084,69.8295677 L96.8066642,69.6570895 L96.6330099,69.8295677 C95.137047,71.3182758 93.2011705,71.9017146 91.1259854,71.4950901 C88.3499237,71.0892685 86.0322324,69.3484275 83.7935041,67.6671668 C83.0793066,67.132067 82.3421584,66.5820319 81.6011585,66.0782479 L81.4976399,66.0374569 C81.0895041,65.9798036 80.7741338,66.1334923 80.6054548,66.4313945 C80.430035,66.7400565 80.4500968,67.1590468 80.6556893,67.5041637 C82.9602201,71.0214978 86.4360349,76.3273694 91.719652,76.3273694 C92.4487755,76.3273694 93.2011705,76.2252315 93.9628742,76.02754 C94.8475161,75.8820417 95.7177137,75.3018148 96.8066642,74.5646875 C97.8962568,75.3018148 98.7651704,75.8820417 99.6735654,76.0307519 C100.410874,76.2252315 101.163751,76.3273694 101.894158,76.3273694 C107.177936,76.3273694 110.652306,71.0214978 112.953787,67.5104269 C113.163232,67.1590468 113.184577,66.7400565 113.010281,66.4313945 L113.010281,66.4313945 Z M114.824503,77.4817204 C114.660318,77.1974687 114.366293,77.0312537 114.014491,77.0312537 C113.95559,77.0312537 113.894121,77.0375169 113.830244,77.0437801 L113.768775,77.0551823 L113.716775,77.0877829 C112.891034,77.6479354 112.071713,78.2639748 111.276145,78.8567279 C108.787207,80.7281321 106.210479,82.6602408 103.138627,83.1118317 C102.63901,83.2091518 102.15496,83.2574906 101.689689,83.2574906 C99.9343679,83.2574906 98.3143432,82.5674174 97.0010223,81.2613048 L96.8066642,81.0711613 L96.6123062,81.2613048 C94.9484668,82.9143008 92.8005779,83.5666345 90.4902693,83.1131165 C87.4026892,82.6602408 84.8253189,80.7262049 82.3333313,78.8567279 C81.5414548,78.2639748 80.7227758,77.6479354 79.898319,77.0877829 L79.8443931,77.0551823 L79.782282,77.0437801 C79.3303314,76.9798636 78.9774054,77.1491299 78.7886647,77.4817204 C78.5949487,77.8266768 78.6182203,78.2909546 78.8458005,78.6717234 C81.4111338,82.5849222 85.2735781,88.4861164 91.149257,88.4861164 C91.9597508,88.4861164 92.799294,88.3751458 93.6444544,88.1504746 C94.6305285,87.9874715 95.5960593,87.3431675 96.8066642,86.5257431 C98.0166272,87.3431675 98.9845654,87.9874715 99.9945531,88.1586649 C100.813874,88.3751458 101.653417,88.4861164 102.462146,88.4861164 C108.338306,88.4861164 112.203318,82.5849222 114.761911,78.682965 C114.994466,78.2909546 115.018219,77.8236255 114.824503,77.4817204 L114.824503,77.4817204 L114.824503,77.4817204 Z" id="path22" fill="#D01C2E" fill-rule="nonzero"></path>
                        <path d="M142.957305,156.254458 C145.217379,162.873026 152.005144,165.591886 156.945465,170.787108 C157.937799,171.723372 158.295218,172.617882 158.446885,174.124255 C160.377144,170.592789 162.227156,163.054498 155.247762,156.365428 C156.945465,155.71181 160.69765,158.371571 160.478095,157.985824 C156.233194,152.360048 149.516367,144.34158 152.989453,136.675777 C155.524774,136.785463 157.774255,136.404052 160.264959,135.351999 C158.722774,143.73614 163.95728,150.299304 164.124193,158.514018 C164.068021,167.119137 162.138885,174.951316 158.722774,182.174842 C154.201984,173.462607 142.571799,167.229947 142.957305,156.254458 L142.957305,156.254458" id="path24" fill="#D01C2E" fill-rule="nonzero"></path>
                        <path d="M129.288367,145.401663 C129.501021,144.484027 125.356268,146.599856 123.172108,145.015915 C127.912293,141.540496 132.043725,136.741621 134.803577,131.88734 C138.10991,134.094225 142.292861,135.908458 145.935268,136.685091 C137.315626,146.127548 134.414861,159.299966 138.935651,168.842312 C139.926219,170.934855 141.140515,172.976007 142.519157,174.907955 C137.227836,171.376489 124.075528,168.02007 129.288367,145.401663 L129.288367,145.401663" id="path26" fill="#D01C2E" fill-rule="nonzero"></path>
                        <path d="M96.8135655,15.1667406 C94.7358124,19.2762818 88.0603929,19.3753684 86.7920102,18.1615975 C86.7374423,19.4318975 85.7626028,20.7291774 84.8798868,21.8313354 C82.5095535,24.5339751 80.3440103,24.8921002 78.9672943,28.3675191 C76.0458253,36.3087414 72.4071093,43.9745447 69.5973439,51.9152853 C70.8084303,51.9152853 72.1337883,51.6422751 72.6271463,50.3156065 C74.0616401,46.62194 81.5722696,29.0148743 84.1626399,25.2629121 C84.1626399,25.2629121 86.3500102,20.5448153 96.8066642,20.5448153 C107.263158,20.5448153 109.459997,25.2629121 109.459997,25.2629121 C112.050368,29.0148743 119.562923,46.62194 120.991639,50.3156065 C121.489491,51.6422751 122.811639,51.9152853 124.025293,51.9152853 C121.21617,43.9745447 117.576812,36.3087414 114.655985,28.3675191 C113.276701,24.8921002 111.110034,24.5339751 108.740182,21.8313354 C107.856824,20.7291774 106.883269,19.4318975 106.828059,18.1615975 C105.560479,19.3753684 98.8943679,19.2762818 96.8135655,15.1667406 L96.8135655,15.1667406" id="path28" fill="#D01C2E" fill-rule="nonzero"></path>
                        <polyline id="path30" fill="#FFFFFF" points="160.001749 41.2645177 160.001749 40.5888979 161.193576 40.5888979 161.193576 37.3206455 162.00728 37.3206455 162.00728 40.5888979 163.158021 40.5888979 163.158021 41.2645177 160.001749 41.2645177 160.001749 41.2645177"></polyline>
                        <polyline id="path32" fill="#FFFFFF" points="165.908885 37.3206455 166.610243 40.5105279 166.610243 37.3206455 167.422341 37.3206455 167.422341 41.2645177 166.237897 41.2645177 165.502835 38.2333023 164.769379 41.2645177 163.581724 41.2645177 163.581724 37.3206455 164.392218 37.3206455 164.392218 40.5105279 165.096786 37.3206455 165.908885 37.3206455 165.908885 37.3206455"></polyline>
                    </g>
                </g>
            </g>
        </g>
    </g>
</svg>