<?xml version="1.0" encoding="UTF-8"?>
<svg width="200px" height="200px" viewBox="0 0 200 200" version="1.1" xmlns="http://www.w3.org/2000/svg" xmlns:xlink="http://www.w3.org/1999/xlink">
    <!-- Generator: Sketch 54.1 (76490) - https://sketchapp.com -->
    <title>binghamton</title>
    <desc>Created with Sketch.</desc>
    <g id="binghamton" stroke="none" stroke-width="1" fill="none" fill-rule="evenodd">
        <g id="binghamton_BGL">
            <g id="Group" transform="translate(100.000000, 100.000000) scale(1, -1) translate(-100.000000, -100.000000) ">
                <g id="Group-2" transform="translate(100.183079, 100.002934) scale(1, -1) rotate(-1.000000) translate(-100.183079, -100.002934) translate(2.153523, 1.963718)" fill-rule="nonzero">
                    <path d="M171.23149,0.204855422 C172.265972,1.3323064 172.758583,3.04799268 173.300455,4.51858091 C175.911293,11.9205417 177.290603,19.8126986 178.07878,27.6068162 C178.719174,33.4401495 178.571391,39.4205417 176.059076,44.8617182 C175.123115,46.9695613 172.610837,48.7257118 171.724138,50.8335549 C171.133005,52.2061039 172.26601,53.6766922 173.399015,54.3629667 C176.009852,55.9315941 179.655172,55.8825745 182.561576,55.6374765 C185.517241,55.3923784 187.73399,53.9708098 190.147783,52.451202 C191.921182,56.3727706 192.561576,60.4904176 192.561576,64.8041431 C192.463054,68.6276725 193.990148,71.8139471 194.630542,75.441398 C195.862069,81.323751 195.714286,87.6963 195.665025,93.6766922 C195.566502,103.235516 193.251232,112.64728 189.310345,121.372771 C185.566502,129.461006 178.472906,136.176692 171.674877,141.764927 C172.906404,145.14728 174.285714,148.333555 174.926108,151.862967 C175.812808,156.42179 175.320197,161.225712 173.399015,165.490418 C170.098522,162.794339 167.73399,159.853163 163.743842,158.088457 C157.192118,155.049241 148.275918,155.477585 141.330106,156.457977 C138.177396,156.948173 134.384293,157.683467 131.921239,159.84033 C129.655229,161.752094 129.310401,165.036408 128.522224,167.732486 C126.99513,173.271702 125.665081,178.859937 122.216805,183.56582 C119.113357,188.026604 114.679859,191.114839 109.655229,193.124643 C106.305475,194.448173 102.561633,194.987388 99.0148346,195.624643 L90.6897114,195.624643 C87.5862632,194.987388 84.3842927,194.105035 81.5271499,192.732486 C75.5172977,189.889349 70.1478395,184.938369 67.4384799,178.810918 C65.1724701,173.859937 64.0887262,168.56582 62.8571991,163.320722 C62.3645883,161.556016 62.1182829,159.889349 60.443406,158.908957 C56.1084307,156.114839 53.0541872,156.568849 48.1280788,156.617869 C43.4482759,156.617869 38.9162562,158.088457 34.9261084,160.441398 C31.6256158,162.402182 29.3596059,165.098261 26.6502463,167.74532 C24.679803,165.1963 22.955665,162.64728 22.5615764,159.362967 C21.8719212,152.990418 22.3152709,146.617869 25.0738916,140.686496 C22.9064039,138.725712 20.6896552,136.961006 18.7192118,134.755124 C15.1724138,130.833555 11.8719212,126.764927 9.16256158,122.206104 C6.74876847,118.137476 5.12315271,113.480614 3.79310345,108.92179 C1.62561576,101.127673 0.0985221675,92.941398 2.84217094e-14,84.8041431 C0.0492610837,78.8727706 2.84217094e-14,73.0394373 0.985221675,67.2061039 C1.42857143,63.4806137 3.00492611,60.1472804 3.49753695,56.4708098 C3.99014778,52.941398 4.38423645,49.5590451 6.15763547,46.3727706 C9.408867,49.3139471 12.955665,52.6472804 16.8472906,54.7061039 C18.226601,55.441398 19.7016438,55.7170651 21.182266,55.3433588 C23.4788971,54.7636934 19.1625241,50.3028946 17.9802581,47.2146593 C16.3053812,43.0479927 15.7635093,38.2930907 15.6649871,33.8323064 C15.4186817,22.6068162 17.8817359,11.3323064 20.886662,0.547992677 C24.9260709,0.302894638 29.0147408,0.646031893 32.9556275,1.52838483 C43.7438049,4.32250248 53.9408492,8.73426719 62.9556275,15.253875 C64.2856768,16.1852476 65.615726,17.4107378 67.1428196,17.9499535 C69.113263,18.0970123 71.1822285,17.5577966 73.1034108,17.3126986 C78.4728689,16.4793652 83.7438049,16.4793652 89.1625241,16.136228 C93.1034108,15.9401495 97.0442975,15.9891691 100.985184,16.0872084 C109.162524,16.381326 117.536908,16.7244633 125.615726,18.0479927 C126.206859,18.0970123 126.995036,18.2440711 127.536908,17.9009339 C128.96548,16.9695613 130.197007,15.6950515 131.527056,14.6166201 C137.733953,9.61662013 144.778288,5.59701229 152.315233,2.94995346 C158.226563,0.891129932 164.975332,-0.530438695 171.23149,0.204855422 Z" id="Shape" fill="#B9B9B9"></path>
                    <path d="M168.96548,3.29309072 C169.802918,4.02838483 170.098485,5.40093385 170.492573,6.38132601 C173.103411,14.4695613 174.531982,22.9499535 175.024593,31.381326 C175.32016,36.2832868 174.482721,41.6754437 171.674839,45.8421103 C170.541834,47.6558358 168.96548,49.7146593 169.261046,51.9695613 C169.605874,55.008777 170.8867,57.1080647 173.64532,58.0884569 C178.522167,59.8041431 184.08867,59.2159078 188.866995,57.3041431 C189.55665,62.3531627 189.310345,67.3531627 188.374384,72.3531627 C189.1133,72.2551235 189.852217,72.1570843 190.591133,72.1080647 C192.019704,77.9904176 192.610837,83.6766922 192.463054,89.7061039 C192.807882,100.539437 190.541872,111.42179 185.763547,121.127673 C181.477833,129.166888 174.53202,135.294339 167.389163,140.735516 C170.689655,146.813947 172.758621,153.382575 172.167488,160.392378 C169.605911,158.284535 167.093596,156.274731 163.990148,155.000222 C157.586207,152.206104 149.26114,152.144251 142.413849,152.928565 C138.226657,153.418761 134.236509,154.203075 130.689711,156.605035 C128.571485,158.026604 127.093652,160.183467 126.453258,162.634447 C125.221731,167.34033 123.990204,172.046212 122.266066,176.654055 C119.655229,183.222683 114.039465,188.075624 107.43848,190.379545 C103.596115,191.752094 99.5567065,192.144251 95.4680366,192.389349 C85.5665587,192.781506 75.8128642,187.34033 71.0838001,178.712879 C68.4729627,173.5168 67.2414356,167.34033 65.9606474,161.703075 C65.6158198,160.232486 65.2217311,158.859937 64.1379873,157.732486 C60.7882336,154.448173 57.7339901,153.284535 53.1527094,153.235516 C50.0492611,153.235516 46.6502463,153.088457 43.6453202,153.725712 C37.1921182,155.049241 31.1330049,157.990418 26.6009852,162.794339 C25.4187192,158.92179 25.4187192,155.000222 25.8128079,151.029633 C26.0591133,146.961006 27.4876847,143.235516 29.5566502,139.755124 C23.3004926,135.637476 18.1773399,129.461006 13.9408867,123.431594 C8.81773399,116.274731 6.55172414,107.255124 4.82758621,98.7747314 C3.6453202,92.1080647 3.00492611,85.2453196 3.44827586,78.4806137 C3.6453202,73.9708098 3.9408867,69.5100255 4.77832512,65.0982608 C5.4679803,65.2943392 6.15763547,65.4904176 6.84729064,65.6864961 C6.55172414,61.1276725 6.55172414,56.568849 7.33990148,52.0590451 C10.3940887,54.6570843 13.9901478,57.5492412 17.9310345,58.6766922 C19.7044335,59.2649274 21.6256158,59.068849 23.0541872,57.7943392 C24.3842365,56.4217902 25.7635093,54.2244633 25.2216374,52.4107378 C24.2364157,50.4009339 22.4630167,48.9303456 21.5270561,46.8715221 C20.0984847,43.7342672 19.4580906,40.253875 19.1625241,36.8715221 C18.4236078,25.5479927 20.6403566,14.9107378 23.4974994,4.02838483 C27.930997,3.88132601 32.2659723,4.66563974 36.4531645,6.03818876 C46.6994699,9.07740444 56.3053812,14.0283848 64.6305044,20.6460319 C65.4186817,21.1852476 66.2561201,22.1656397 67.2906029,21.8225025 C71.477795,20.9891691 75.6649871,20.4009339 79.9014403,20.0577966 C86.6009477,19.7146593 93.3004551,19.3715221 99.9999625,19.5676005 C109.655135,19.9107378 119.113263,20.3028946 128.620652,22.0185809 C134.039371,16.381326 140.886662,11.9205417 147.930997,8.53818876 C154.43346,5.40093385 161.674839,3.34211032 168.96548,3.29309072 Z" id="Shape" fill="#020201"></path>
                </g>
                <path d="M108.666128,122.378411 C99.9311492,140.381109 109.760477,152.398332 109.760477,152.398332 C94.0479955,144.542474 99.7495831,114.725416 99.7495831,114.725416 C101.978307,120.464646 108.666128,122.378411 108.666128,122.378411 Z M137.343666,96.7045387 C131.05529,96.3107956 124.815193,90.89755 124.815193,90.89755 C129.497535,93.5384801 137.21657,95.3877922 141.898911,91.4263971 C146.186347,88.386766 146.782214,82.5756457 145.591718,77.6210097 C144.773845,73.8343821 142.289691,70.5637935 139.091239,68.3376779 C139.089589,68.3368516 139.087938,68.3356121 139.086288,68.3343726 C138.042695,67.6092737 136.923175,66.9986206 135.76074,66.514395 C135.669544,66.4759709 135.578761,66.4350679 135.485915,66.3991229 C135.284129,66.3193826 135.080692,66.2470793 134.877256,66.1751892 C134.715084,66.1181729 134.552913,66.062396 134.38909,66.0103376 C134.217428,65.9562134 134.045353,65.9037419 133.872452,65.8549888 C133.657874,65.7946672 133.442058,65.740543 133.226655,65.6897241 C133.091306,65.6574975 132.956369,65.6223787 132.82102,65.5942837 C132.462427,65.5190883 132.102596,65.4529824 131.74194,65.4042293 C130.655432,65.3492788 129.525183,65.3232496 128.418042,65.3967924 C128.10154,64.7233387 123.849179,56.007278 115.289577,53.6840694 C121.584968,52.7300788 127.241164,56.7270058 130.55392,61.7056051 L131.080874,62.2332127 C142.229444,63.6854763 153.5113,65.9603451 163.072405,70.1584818 C163.072405,70.1584818 154.550766,62.9884724 134.445211,58.3358577 C132.203282,54.6380599 129.234677,51.5343887 125.209274,49.7507693 C119.140428,41.2966532 119.99874,29.8053849 113.403765,21.7462514 C110.79953,19.8717364 107.908915,18.6239879 104.855304,17.9158286 C104.85943,15.0774072 103.659856,12.56621 101.59578,11.0474273 C92.7555751,9.26463427 84.1811169,13.0293643 79.4987752,20.4253732 C74.8803943,29.6062409 75.1440778,40.900431 69.8662819,49.7507693 C66.3042855,55.0999748 58.1259714,54.1749056 52.5176427,53.251489 C56.6738554,52.3255935 61.5555071,51.7983991 64.0627696,47.96715 C57.4657311,49.3537209 42.2467795,50.8663061 31.6169107,42.5815863 C31.5612029,52.4507815 40.1364865,57.4599548 45.0181382,59.5736904 C9.59624611,76.8103863 10.2816581,112.365436 10.4801428,120.289465 C13.6893233,116.353686 21.3027193,107.267019 29.8334366,103.725397 C23.0705127,109.455124 13.7726787,122.490378 12.1699453,134.862507 C20.0849886,127.432619 25.4729621,129.930595 27.6488665,132.901641 C29.2334432,129.137325 32.1351993,125.770056 35.2358528,123.127473 C35.0377808,113.484691 35.765283,102.475169 43.4162302,95.1250213 C42.6903785,101.267084 43.8103111,107.672331 46.1199142,113.089295 C47.9640479,109.253088 51.5693726,105.510256 54.3411439,103.528732 C54.3411439,103.528732 49.063348,100.668 51.0428309,94.7230149 C55.9480037,100.758069 61.90007,99.3388582 66.6344056,98.9550309 C59.7303553,102.16819 62.0160247,108.466015 62.6758524,109.787306 C63.1755717,105.866814 65.315163,103.181263 68.4814278,101.397643 C74.3736599,98.9137147 79.1921761,101.042324 81.4114088,104.106745 L86.9516502,98.227453 C87.1026802,88.5045171 95.4184068,88.0545839 95.4184068,88.0545839 C91.4598535,92.5456523 92.6235271,97.6998454 93.7463482,103.446099 C90.2491379,104.567834 88.4144951,108.968006 86.9867255,112.270408 C74.4182261,113.200849 66.7841976,117.030858 62.4125815,121.608691 C55.9125158,129.708314 58.0966732,141.882952 60.4504299,149.479344 C71.8663973,157.212493 82.2028719,156.678275 82.2028719,156.678275 C80.3071569,161.014408 76.0205468,165.492255 75.6813483,166.037215 C89.2682684,170.967888 97.7672116,164.071805 97.7672116,164.071805 C97.7672116,164.071805 110.165287,170.599348 119.963253,165.31914 C117.942917,162.121681 116.11694,158.77755 114.656571,155.159492 C126.721225,154.480668 135.920848,149.780539 141.692173,145.765846 C141.710743,145.719572 141.725186,145.670819 141.742929,145.624545 C138.142557,120.857563 111.603372,114.355223 111.603372,114.355223 C110.946021,109.732769 105.681842,103.639046 105.681842,103.639046 C108.211388,99.982151 106.71388,90.3067287 106.344558,87.6608407 C106.344558,87.6608407 116.017079,90.3749004 117.623939,99.2186281 C120.810423,100.257317 122.336404,103.314714 122.336404,103.314714 C126.726176,100.257317 131.266979,101.464162 134.169561,103.314714 C137.86443,105.888712 138.930306,110.181463 138.008033,114.673357 C139.391649,112.889738 144.094623,102.549538 130.815952,99.351253 C136.078068,99.6830219 144.71071,102.428482 149.989331,95.6038758 C151.372947,98.1795262 148.166655,103.446099 145.9891,104.369929 C149.354262,106.549771 150.606243,110.380606 153.047481,113.352479 C157.959257,105.950273 155.948412,97.129269 155.090925,93.8276933 C157.468203,94.8837348 169.338085,113.711517 164.327687,129.20343 C166.10786,131.779081 168.153779,134.156827 169.076465,137.129113 C169.076465,137.129113 170.821976,129.561229 179.233437,128.901409 C179.233437,128.901409 173.514518,117.840242 167.358602,113.875955 C167.358602,113.875955 173.129515,108.537905 181.046209,110.740057 C181.046209,110.740057 172.043007,94.1962336 150.785333,89.1713602 C150.737466,89.3481934 150.691249,89.5126318 150.647508,89.6597174 C149.328265,94.0627824 142.621874,97.0350681 137.343666,96.7045387 L137.343666,96.7045387 Z" id="path28" fill="#006747" fill-rule="nonzero"></path>
                <path d="M40.5784348,157.604584 C43.8775731,155.952763 46.6472811,153.64071 48.8244235,150.404827 C51.2083037,152.352884 53.8818642,153.757634 56.7349276,154.44307 C56.1143017,155.962266 55.4713927,157.385195 54.788044,158.743258 C50.9747436,162.403044 46.0159263,165.13611 40.7113082,165.661238 C43.3910585,163.636332 45.8640711,160.763205 48.295406,156.282879 C46.1199142,157.339334 43.2165075,158.197058 40.5784348,157.604584" id="path174" fill="#006747" fill-rule="nonzero"></path>
                <path d="M30.4854239,150.008605 C31.4093477,143.799609 31.7402931,136.996488 37.544218,133.165652 L39.4568516,137.921144 C39.9190198,139.374647 41.1718258,140.497207 41.3703105,142.01599 C32.9930991,151.724465 30.5638274,167.258108 34.3511308,181.563835 C34.9007809,181.495663 35.5189309,181.241155 36.1766953,180.869723 C55.3847362,173.200614 62.0477988,158.335467 63.0715839,156.414678 C64.721772,158.065672 67.2286219,159.453069 69.0756441,160.773121 C68.0209102,162.754645 66.6344056,164.603957 65.2495516,166.452856 C57.5977792,175.501925 46.9769886,181.842306 35.9617045,185.343025 C33.7226646,185.823533 31.4592783,186.422617 29.171133,186.851892 C26.7183403,177.936688 26.2157324,167.895204 25.7362329,161.962614 C26.1327897,157.669863 26.0655277,152.583429 30.4854239,150.008605" id="path176" fill="#006747" fill-rule="nonzero"></path>
                <path d="M155.225449,168.633111 C151.596191,167.444031 147.83736,166.123566 144.604659,164.405226 C144.82749,165.00555 145.151833,165.667849 145.545914,166.366505 C142.814169,162.363794 141.606755,159.184927 139.104032,155.009515 C139.788206,154.770294 140.467015,154.510415 141.136746,154.21707 C141.137984,154.216244 141.13881,154.216244 141.14046,154.215831 C141.129319,154.221202 141.119002,154.228226 141.107448,154.23401 C143.417464,154.367048 145.725004,153.508911 147.902146,152.848265 C150.078876,156.018456 152.782973,158.726731 155.487895,161.565566 C152.586138,160.972265 149.683557,159.849292 147.110683,158.990328 C149.815605,162.226211 152.057534,165.726931 155.225449,168.633111" id="path178" fill="#006747" fill-rule="nonzero"></path>
                <path d="M165.876363,191.661095 C151.075013,187.723664 132.717857,171.438892 127.125209,161.17017 C128.833581,160.849143 131.543455,159.86871 134.030085,158.63253 C135.135162,160.698339 143.847445,175.806425 160.501182,182.106316 C162.905282,172.98701 160.238736,155.886244 155.619117,147.563926 C157.468203,145.451017 159.313987,143.072858 160.501182,140.497207 C163.933606,144.658573 164.788204,150.404827 164.459735,156.018456 C165.77774,157.272815 167.362316,158.923809 168.218565,160.642562 C171.109593,168.060055 168.923372,181.619612 165.876363,191.661095" id="path180" fill="#006747" fill-rule="nonzero"></path>
                <path d="M189.55258,120.400193 C185.197883,116.23924 179.581301,114.622125 173.866509,114.622125 C181.255423,120.236167 184.90779,127.552849 187.21698,135.873927 C181.704799,131.709257 172.373953,132.638044 169.076465,137.129113 C169.076465,137.129113 170.821976,129.561229 179.233437,128.901409 C179.233437,128.901409 173.514518,117.840242 167.358602,113.875955 C167.358602,113.875955 173.129515,108.537905 181.046209,110.740057 C181.046209,110.740057 172.043007,94.1962336 150.785333,89.1713602 C150.737466,89.3481934 150.691249,89.5126318 150.647508,89.6597174 C149.328265,94.0627824 142.621874,97.0350681 137.343666,96.7045387 C131.05529,96.3107956 124.815193,90.89755 124.815193,90.89755 C129.497535,93.5384801 137.21657,95.3877922 141.898911,91.4263971 C146.186347,88.386766 146.782214,82.5756457 145.591718,77.6210097 C144.773845,73.8343821 142.289691,70.5637935 139.091239,68.3376779 C139.089589,68.3368516 139.087938,68.3356121 139.086288,68.3343726 C138.042695,67.6092737 136.923175,66.9986206 135.76074,66.514395 C135.669544,66.4759709 135.578761,66.4350679 135.485915,66.3991229 C135.284129,66.3193826 135.080692,66.2470793 134.877256,66.1751892 C134.715084,66.1181729 134.552913,66.062396 134.38909,66.0103376 C134.217428,65.9562134 134.045353,65.9037419 133.872452,65.8549888 C133.657874,65.7946672 133.442058,65.740543 133.226655,65.6897241 C133.091306,65.6574975 132.956369,65.6223787 132.82102,65.5942837 C132.462427,65.5190883 132.102596,65.4529824 131.74194,65.4042293 C130.655432,65.3492788 129.525183,65.3232496 128.418042,65.3967924 C128.10154,64.7233387 123.849179,56.007278 115.289577,53.6840694 C121.584968,52.7300788 127.241164,56.7270058 130.55392,61.7056051 L131.080874,62.2332127 C142.229444,63.6854763 153.5113,65.9603451 163.072405,70.1584818 C163.072405,70.1584818 154.550766,62.9884724 134.445211,58.3358577 C132.203282,54.6380599 129.234677,51.5343887 125.209274,49.7507693 C119.140428,41.2966532 119.99874,29.8053849 113.403765,21.7462514 C110.79953,19.8717364 107.908915,18.6239879 104.855304,17.9158286 C104.85943,15.0774072 103.659856,12.56621 101.59578,11.0474273 C112.527296,11.917546 118.849097,18.7272783 120.724592,24.4553531 C121.385245,28.5493731 123.166656,32.1157855 124.024556,36.0123141 C125.473783,40.5707279 126.199635,45.5245376 129.69602,49.0897105 C133.224179,53.2002569 139.696597,56.8038539 145.284706,57.805358 C145.883461,57.9123669 146.632422,57.8983194 147.582755,57.8293214 C149.265955,57.8937747 162.246279,57.8772482 169.076465,48.0993617 C167.033021,54.1839951 161.53487,59.4712263 155.093401,61.3077304 C190.461649,74.6313711 189.863306,112.405099 189.55258,120.400193" id="path182" fill="#0A9260" fill-rule="nonzero"></path>
                <path d="M147.487433,57.8194055 C143.792976,57.1604125 139.261251,52.1285153 137.413404,49.4859326 C147.440803,52.1285153 159.774917,53.6468848 169.076465,48.0993617 C161.421804,59.0580645 146.028302,57.7553655 147.487433,57.8194055" id="path184" fill="#006747" fill-rule="nonzero"></path>
                <path d="M104.777313,70.4675268 C105.83246,70.7980562 106.690359,71.5243946 107.613458,71.9863095 C110.582063,73.9017274 114.59096,74.4520589 116.307172,78.0172318 C116.964524,80.7263336 119.40535,82.9061751 118.877983,86.0098463 C118.729016,86.1172684 118.576748,86.1986612 118.422829,86.2680724 C116.819683,83.5973947 114.203894,79.6128626 112.279293,78.5419473 C109.310688,76.8897134 101.725765,73.9178408 101.725765,73.9178408 L101.725765,68.9817971 C102.835381,69.2466338 103.792317,69.903561 104.777313,70.4675268" id="path186" fill="#0A9260" fill-rule="nonzero"></path>
                <path d="M151.42329,85.6475034 C151.534706,84.5893961 151.587112,83.4176693 151.528103,82.1814893 C157.829684,84.0543516 174.739676,90.1604694 182.543717,103.55724 C182.543717,103.55724 170.696117,90.4269588 151.42329,85.6475034" id="path188" fill="#FFFFFF" fill-rule="nonzero"></path>
                <path d="M151.233471,79.5946835 C150.981755,78.2134837 150.562089,76.8058415 149.906388,75.4357971 C172.815901,81.1114003 180.764369,92.4626068 180.764369,92.4626068 C180.764369,92.4626068 166.545269,81.6133919 151.233471,79.5946835" id="path190" fill="#FFFFFF" fill-rule="nonzero"></path>
                <path d="M148.311495,72.8427938 C147.00587,71.1327173 145.224046,69.5647683 142.798901,68.2963617 C159.76749,70.6369231 171.38318,77.946168 175.870751,82.2451162 C167.559563,76.8864081 158.105335,74.5379966 148.311495,72.8427938" id="path192" fill="#FFFFFF" fill-rule="nonzero"></path>
                <path d="M61.8864525,90.89755 C65.315163,93.2091901 71.1199131,93.6715182 74.6154729,91.1607341 C75.2761258,90.7653383 75.9359535,90.5005016 76.5305824,89.9720677 C76.5305824,89.9720677 70.9957054,96.7685788 63.1359573,96.2645214 C56.9759153,95.8687125 52.8077358,91.3474832 51.2631861,87.017961 C51.1934482,86.8225355 51.1257736,86.6151283 51.0597496,86.3986315 C37.795522,90.1253507 16.4516037,105.275993 16.4516037,105.275993 C16.4516037,105.275993 31.5479981,89.6258381 50.4259189,83.3866822 C50.281904,82.2761034 50.2204191,81.0655394 50.280666,79.8070486 C38.9934455,82.3413829 20.0523892,94.0070055 20.0523892,94.0070055 C20.0523892,94.0070055 32.9992888,81.983998 50.7106475,76.6062844 C51.0188972,75.2589639 51.5045865,73.910817 52.209393,72.6188601 C45.9144144,74.5351044 32.3163528,78.9484985 23.6065453,83.771749 C30.4573637,77.3896391 48.2029723,69.8052285 55.7746906,68.3459411 C58.6983172,65.9582792 63.0216532,64.2126708 69.319933,63.7904194 C68.6431867,63.9061047 67.9631392,64.0726089 67.2942333,64.279603 C60.6976074,66.328059 56.6078314,72.5358146 55.7499316,79.2067246 C55.5530975,84.027083 57.5977792,88.9160262 61.8864525,90.89755" id="path194" fill="#FFFFFF" fill-rule="nonzero"></path>
                <path d="M131.080874,62.2332127 L130.55392,61.7056051 C126.992749,56.3539207 120.724592,52.1285153 113.865108,53.9770011 C111.616165,54.6549995 107.532578,55.2330128 108.390478,58.8642917 C112.017261,62.8934452 116.636467,65.9318369 121.846588,66.7242812 C121.647278,68.0459857 120.198051,68.9698154 119.272476,69.4325566 C120.395297,71.017032 121.05595,72.7341323 120.724592,74.9139738 C120.659806,80.1978997 124.089342,85.1517093 128.903319,86.9993687 C131.410169,87.9905438 134.577259,89.1800366 136.887275,87.528629 C137.413404,83.3672636 129.783089,79.3496786 126.8607,77.8850201 C128.773747,77.5561433 134.102299,77.9478207 136.62029,79.33811 C133.852233,76.1679198 129.828893,73.3282589 125.672681,72.60316 C126.660978,71.7446098 132.351836,71.052977 134.577259,71.7446098 C131.609066,68.8384299 127.848172,67.4510327 124.024556,66.5928957 C126.199635,65.2711912 129.102629,65.2711912 131.74194,65.4042293 C138.074469,66.2623663 144.208102,71.2161759 145.591718,77.6210097 C146.782214,82.5756457 146.186347,88.386766 141.898911,91.4263971 C137.21657,95.3877922 129.497535,93.5384801 124.815193,90.89755 C123.824833,90.1703853 123.892508,91.689168 123.759222,92.1519092 C123.298704,93.0100462 122.704488,93.7372109 121.582492,93.6054123 C116.371958,91.8217929 112.083697,86.6039729 110.038603,81.7827882 L113.865108,85.0847771 C115.249137,85.9433272 117.229858,87.1972732 118.877983,86.0098463 C119.40535,82.9061751 116.964524,80.7263336 116.307172,78.0172318 C114.59096,74.4520589 110.582063,73.9017274 107.613458,71.9863095 C106.690359,71.5243946 105.83246,70.7980562 104.777313,70.4675268 C103.393697,69.6750825 102.071978,68.6839074 100.290155,68.8830514 C96.8597939,70.005612 93.8272277,71.9863095 90.2652312,72.7804064 C86.4395513,74.6937586 86.2262112,78.2820685 84.7740952,81.6501633 C84.4448003,82.5756457 83.7189487,83.697793 84.3800143,84.6889681 C85.0134323,85.6962565 89.2612533,82.4426076 91.0422515,80.7263336 C89.3004551,86.1924638 81.9362999,92.7964415 78.8381222,92.6803431 C77.5188796,92.4824386 76.8594646,91.0293486 76.5305824,89.9720677 C75.9359535,90.5005016 75.2761258,90.7653383 74.6154729,91.1607341 C71.1199131,93.6715182 65.315163,93.2091901 61.8864525,90.89755 C57.5977792,88.9160262 55.5530975,84.027083 55.7499316,79.2067246 C56.6078314,72.5358146 60.6976074,66.328059 67.2942333,64.279603 C70.5013505,63.2863621 73.9568832,63.1578688 76.1332003,65.6670002 C74.4182261,65.9318369 72.7040772,66.2623663 71.2519612,66.9882915 C69.0756441,67.9133607 66.5687942,69.0355081 65.3820123,70.9513392 C68.1269613,70.1208841 72.5712039,70.2906936 74.8803943,71.083551 C71.1199131,72.5358146 67.1621852,74.9139738 64.3252152,78.0172318 L64.4572632,78.1498568 C67.2286219,76.8954976 70.5921336,76.6314873 73.8248351,76.7641122 C70.6003866,78.3432165 65.3820123,83.7643121 65.2495516,85.3500269 C68.0209102,87.9905438 73.0989834,86.8022906 76.1332003,85.3500269 C82.7958502,82.3112221 79.5288987,71.2355945 83.4618676,69.1557382 L80.6182952,65.6670002 C84.9061433,66.1301545 88.4033536,63.5549172 91.7008412,61.5725671 C93.4570804,60.1161718 95.0655909,58.4688958 95.3948857,56.1560162 C93.5540532,53.0816795 89.0041723,51.6959349 82.4665553,52.8544405 C78.8381222,53.5150862 75.3409119,57.0149796 74.2209793,60.647911 C60.5663846,59.9211595 49.7673292,63.9325471 37.1030949,69.8762923 C46.4021669,61.9506101 57.8808572,57.9879755 68.6786746,56.6852765 C69.2155325,54.295962 72.7024266,49.9123156 76.1332003,48.3641984 C78.9053842,40.900431 79.6283474,32.1831308 82.5986034,24.5871517 C84.5120623,20.6902099 88.7322358,18.3789829 92.8236624,17.6514051 C100.210926,16.4631518 107.532578,17.5208459 113.403765,21.7462514 C119.99874,29.8053849 119.140428,41.2966532 125.209274,49.7507693 C129.234677,51.5343887 132.203282,54.6380599 134.445211,58.3358577 C154.550766,62.9884724 163.072405,70.1584818 163.072405,70.1584818 C153.5113,65.9603451 142.229444,63.6854763 131.080874,62.2332127" id="path196" fill="#020201" fill-rule="nonzero"></path>
                <path d="M115.579257,71.2161759 C116.172648,67.0548106 111.161837,67.5163123 108.91702,65.6670002 C106.279772,63.950313 103.641287,62.2989054 101.199223,60.1859962 C97.2410827,63.3553601 92.4266929,66.5928957 87.6775019,68.5070742 C87.9395348,68.9698154 87.9395348,69.6304611 88.6001877,69.8287787 C93.1525446,69.0355081 96.9117878,66.2623663 101.067175,64.4130542 C105.486246,66.4602708 109.709308,69.4325566 114.13003,71.7446098 C114.656571,71.8094762 115.249137,71.8094762 115.579257,71.2161759" id="path198" fill="#B4B3B3" fill-rule="nonzero"></path>
                <path d="M103.641287,43.2124843 C104.960117,42.2208961 107.328316,40.3459679 107.328316,40.3459679 C108.097496,40.675671 109.248378,41.4945577 109.774507,41.8916061 C110.830066,37.3997114 108.390478,33.7019135 105.422285,31.1250235 C104.332063,31.7327845 102.848173,32.7231333 102.848173,32.7231333 L99.286177,29.2112582 C97.9665217,30.3321661 96.4496196,33.0412678 96.4496196,33.0412678 C94.9991542,33.1726533 93.0852826,30.8622527 93.0852826,30.8622527 C90.8429415,33.5688754 89.5236988,38.0607702 91.3042844,41.2966532 C92.2104642,40.4005053 94.8501875,39.6576404 94.8501875,39.6576404 C96.00437,40.4831376 97.5724408,42.2870019 97.5724408,42.2870019 C100.143664,40.1736795 98.6923734,36.4085363 99.8799806,33.7019135 C100.935127,36.4085363 100.81876,39.2440655 102.270463,41.8858219 C102.929878,42.1333058 103.641287,43.2124843 103.641287,43.2124843" id="path200" fill="#C72A45" fill-rule="nonzero"></path>
                <path d="M96.9790498,170.548116 C88.201155,174.473152 79.4273867,172.673833 71.7789155,170.680741 C72.9636342,169.146258 74.3200153,167.610949 75.6813483,166.037215 C89.2682684,170.967888 97.7672116,164.071805 97.7672116,164.071805 C97.7672116,164.071805 110.166112,170.599348 119.964078,165.318727 C121.411242,167.608056 122.954966,169.825083 124.550685,172.000792 C120.395297,173.586094 103.638399,175.263944 96.9790498,170.548116" id="path202" fill="#0A9260" fill-rule="nonzero"></path>
                <path d="M82.2028719,156.678275 C75.4411859,158.137976 70.5719137,157.932634 65.2421239,156.834037 C64.4873867,156.659683 63.9294836,156.568787 63.0715839,156.414678 C62.0160247,158.395375 54.9667216,174.137252 34.3511308,181.563835 C47.8361263,170.27956 52.8840761,164.336228 57.1917314,153.300678 C45.6181316,145.609258 43.6786757,130.591654 43.6786757,130.591654 C47.7767047,137.916599 52.4458416,143.174909 57.0877435,146.968973 C46.884555,127.107048 56.8723401,116.19214 56.8723401,116.19214 C57.4244661,118.068308 62.4125815,121.608691 62.4125815,121.608691 C55.9125158,129.708314 58.0966732,141.882952 60.4504299,149.479344 C71.8663973,157.212493 82.2028719,156.678275 82.2028719,156.678275" id="path204" fill="#0A9260"></path>
                <path d="M138.994679,154.824005 C137.459621,156.049443 135.792514,157.664492 134.016467,158.607327 C135.071614,160.588851 143.788849,175.784528 160.501182,182.106316 C143.788849,167.488653 144.049644,163.189704 138.994679,154.824005" id="path206" fill="#0A9260"></path>
                <path d="M136.49567,155.800719 C136.143679,155.889962 133.991708,156.342788 133.296393,156.451036 C125.450675,157.676061 117.879369,156.274616 114.656571,155.159492 C126.721225,154.480668 135.920848,149.780539 141.692173,145.765846 C141.710743,145.719572 141.725186,145.670819 141.742929,145.624545 C138.142557,120.857563 111.603372,114.355223 111.603372,114.355223 C110.946021,109.732769 105.681842,103.639046 105.681842,103.639046 C108.211388,99.982151 106.71388,90.3067287 106.344558,87.6608407 C110.71081,91.916407 111.360321,98.2923194 109.642046,103.578311 C114.010774,106.44648 115.170321,111.396984 115.170321,111.396984 C124.001035,113.616489 132.683195,119.62882 139.874037,125.747332 C141.137984,124.807389 144.486228,122.201165 144.933953,120.684035 C144.933953,120.684035 150.353288,130.780882 146.676162,141.817259 C150.525363,139.035854 156.609478,129.20343 156.609478,129.20343 C155.394636,146.31122 146.155811,153.349431 136.49567,155.800719" id="path208" fill="#0A9260" fill-rule="nonzero"></path>
                <path d="M114.912827,47.6762841 C110.400497,48.4274122 104.162877,50.7898712 101.331684,54.6380599 L100.541046,52.7234683 C97.6888081,47.4953192 92.1357745,46.0959403 86.5942952,46.2033624 C86.0958137,43.7334813 85.8098472,39.5460868 88.0715828,36.0123141 C87.4777792,39.5130338 88.2708929,42.6832241 89.919843,45.3923258 C91.2766368,44.5821156 92.6916143,43.6743992 94.2724772,43.4760815 C95.6602198,44.4664303 96.8284325,45.7947454 97.8369495,47.0433202 C97.8369495,47.0433202 99.687273,45.1340997 100.730865,44.6940824 C102.050108,45.1340997 102.929878,46.6194163 103.641287,47.5709278 C105.025728,46.3835009 106.344558,45.1266628 107.861873,44.3350448 C108.91702,44.9295846 109.973817,45.7877216 111.093749,46.1835306 C112.481079,44.5990552 113.705412,40.7859852 113.865108,38.0607702 C113.865108,38.0607702 116.307172,42.4150821 114.912827,47.6762841" id="path210" fill="#B9B9B9" fill-rule="nonzero"></path>
                <path d="M93.2309481,22.2441113 C93.9960016,22.1123127 94.7709586,22.0164592 95.5368374,21.9247372 C95.6985963,21.9086239 95.8471503,21.8958159 96.0023068,21.8788763 C98.9065388,21.9086239 102.015033,21.5483469 104.863144,21.9230846 C106.98788,23.0369687 111.325246,26.2154222 111.687966,33.7019135 C110.632407,30.7300409 108.193644,28.2845364 105.815954,26.2381461 C105.815954,26.2381461 103.919413,28.1824854 102.586141,28.5493731 L99.1561922,25.4448755 C99.1561922,25.4448755 97.4395674,27.7577551 96.1859361,28.5493731 C94.9991542,28.3518817 93.4810141,26.5017433 93.4810141,26.5017433 C90.1843518,27.4272257 87.6775019,30.9940513 86.2905846,33.8337121 C86.2905846,33.8337121 87.0354182,23.816605 93.2309481,22.2441113" id="path212" fill="#B9B9B9" fill-rule="nonzero"></path>
                <path d="M76.4022482,108.754402 C75.4448998,106.908395 74.0654102,106.374177 72.8608843,106.374177 C70.8814013,106.374177 69.2774301,107.98055 69.2774301,109.96166 C69.2774301,110.2203 69.319933,110.62933 69.3756408,110.921022 C68.6596927,111.297412 67.9425067,111.728753 67.2368749,112.241074 C66.9513209,111.536633 66.792038,110.767739 66.792038,109.96166 C66.792038,106.605547 69.5093395,103.884051 72.8608843,103.884051 C75.3945564,103.884051 77.7644065,105.36193 78.8533903,108.498655 C78.4382642,108.554845 77.559732,108.598227 76.4022482,108.754402" id="path214" fill="#FFFFFF" fill-rule="nonzero"></path>
                <path d="M134.977117,112.422039 C134.809168,113.210351 134.494316,113.92884 134.067223,114.558085 C133.480435,113.906116 132.871776,113.327276 132.25734,112.800495 C132.371644,112.527395 132.494201,112.150592 132.546195,111.904347 C132.956369,109.965792 131.722958,108.059464 129.787216,107.647128 C128.59672,107.39386 127.043092,107.776448 126.24709,109.158474 C125.106937,108.689122 124.220565,108.419741 123.804201,108.270589 C124.953844,105.697831 127.824651,104.683932 130.304266,105.213192 C133.583185,105.911436 135.674083,109.138229 134.977117,112.422039" id="path216" fill="#FFFFFF" fill-rule="nonzero"></path>
                <path d="M86.5942952,46.2033624 C85.1859201,46.263684 83.7354547,46.4285355 82.2655947,46.6747799 C82.4785222,43.1199361 85.5655583,37.5976158 88.0715828,36.0123141 C85.8098472,39.5460868 86.0958137,43.7334813 86.5942952,46.2033624" id="path218" fill="#FFFFFF" fill-rule="nonzero"></path>
                <path d="M118.417052,47.4387161 C117.507984,47.3631074 116.285301,47.4482188 114.9087,47.6771104 C114.910351,47.6766972 114.911176,47.6762841 114.912827,47.6762841 C116.307172,42.4150821 113.865108,38.0607702 113.865108,38.0607702 C116.617072,40.5108195 118.877983,43.4095625 118.417052,47.4387161" id="path220" fill="#FFFFFF" fill-rule="nonzero"></path>
                <path d="M93.2309481,22.2441113 C93.2309481,22.2441113 92.884322,22.340378 92.7176113,22.3978075 C86.9941532,24.3756129 86.2905846,33.8337121 86.2905846,33.8337121 C85.2337875,31.4286974 84.9044927,28.1267086 87.0836983,25.7097122 C88.4256367,23.6038267 90.4959027,22.7750242 92.7184366,22.33542 C92.9371412,22.2879064 93.2309481,22.2441113 93.2309481,22.2441113" id="path222" fill="#FFFFFF" fill-rule="nonzero"></path>
                <path d="M111.687966,33.7019135 C111.340514,26.5141382 107.328316,23.2976738 105.128478,22.0672781 C105.03687,22.016046 104.863144,21.9230846 104.863144,21.9230846 C104.863144,21.9230846 105.040996,21.9499401 105.199042,21.9656403 C107.186365,22.2730326 109.030911,22.9700365 110.56762,24.4553531 C112.612715,26.8987918 113.048473,30.2193729 111.687966,33.7019135" id="path224" fill="#FFFFFF" fill-rule="nonzero"></path>
                <path d="M53.7242318,70.5596619 L55.7746906,68.3459411 C58.6983172,65.9582792 63.0216532,64.2126708 69.319933,63.7904194 C68.6431867,63.9061047 67.9631392,64.0726089 67.2942333,64.279603 C60.6976074,66.328059 56.6078314,72.5358146 55.7499316,79.2067246 C55.5530975,84.027083 57.5977792,88.9160262 61.8864525,90.89755 C65.315163,93.2091901 71.1199131,93.6715182 74.6154729,91.1607341 C75.2761258,90.7653383 75.9359535,90.5005016 76.5305824,89.9720677 C76.5305824,89.9720677 70.9957054,96.7685788 63.1359573,96.2645214 C56.9759153,95.8687125 52.8077358,91.3474832 51.2631861,87.017961 C51.1934482,86.8225355 51.1257736,86.6151283 51.0597496,86.3986315 L50.4259189,83.3866822 C50.281904,82.2761034 50.2204191,81.0655394 50.280666,79.8070486 L50.7106475,76.6062844 C51.0188972,75.2589639 51.5045865,73.910817 52.209393,72.6188601 L53.7242318,70.5596619" id="path226" fill="#0A9260" fill-rule="nonzero"></path>
            </g>
        </g>
    </g>
</svg>