<?xml version="1.0" encoding="UTF-8"?>
<svg width="200px" height="200px" viewBox="0 0 200 200" version="1.1" xmlns="http://www.w3.org/2000/svg" xmlns:xlink="http://www.w3.org/1999/xlink">
    <!-- Generator: Sketch 54.1 (76490) - https://sketchapp.com -->
    <title>boston-college</title>
    <desc>Created with Sketch.</desc>
    <g id="boston-college" stroke="none" stroke-width="1" fill="none" fill-rule="evenodd">
        <g id="boston-college_BGL">
            <g id="boston-college" transform="translate(0.000000, 9.000000)">
                <g id="g10" transform="translate(99.999998, 90.634820) scale(-1, 1) rotate(-180.000000) translate(-99.999998, -90.634820) translate(0.000000, 0.077371)" fill-rule="nonzero">
                    <g id="g12">
                        <path d="M117.593854,27.3563133 C117.593854,27.3563133 95.0113742,27.3563133 83.9799751,27.3563133 C85.4505098,30.3353804 87.8477794,35.1922631 90.6191104,40.80728 C98.2234333,39.9258238 102.481909,42.000454 102.481909,42.000454 C103.428439,42.9283266 105.679178,46.2004539 106.814787,47.8835028 C110.528325,45.7528999 114.062341,45.4814551 114.364502,45.4621149 C116.043001,44.3872571 116.403183,43.9032981 116.482591,43.7526724 C115.199087,43.113082 114.521954,42.0227521 114.521954,40.6143335 C114.521954,39.9581332 114.666891,39.2343562 114.960179,38.4591572 L115.107847,38.0659831 L115.219337,38.4698511 C115.439588,39.2828204 116.141066,40.1005678 117.045503,40.6045496 C118.068256,41.1729227 119.247779,41.302388 120.368598,40.97133 C121.498746,40.6339011 122.271214,39.9128545 122.545389,38.9394757 C122.9149,37.6191117 122.322409,35.9758808 120.919678,34.4270754 L120.531283,33.9959036 L121.071442,34.2093279 C123.17019,35.0386794 124.514218,36.1417511 125.065071,37.4916942 C125.269394,37.9899877 125.33515,38.4534689 125.33515,38.84323 C125.33515,39.2323085 125.270532,39.5301469 125.212739,39.7317396 C125.668256,39.5829342 126.67622,39.1585883 127.236629,38.1681447 C127.29556,38.0634803 127.346072,37.9531276 127.392488,37.8409547 L124.426163,31.8464156 C122.202955,27.3563133 118.733785,27.3563133 117.593854,27.3563133 L117.593854,27.3563133 Z M49.6036393,98.2994287 C50.7990886,100.721954 52.0004538,103.157222 53.1310567,105.449372 C55.4197938,102.593854 57.8516482,100.161317 59.9060281,98.2994287 C56.1139918,98.2994287 52.4787245,98.2994287 49.6036393,98.2994287 Z M76.0689401,151.932192 C76.0707603,151.935605 76.6025009,153.013876 77.1836158,154.192488 C82.9228648,154.192488 116.21911,154.192488 116.21911,154.192488 C116.248006,154.192488 116.263478,154.190212 116.29101,154.189985 C115.53242,152.650963 112.327415,146.148347 112.327415,146.148347 C111.387483,144.253921 108.833899,143.165412 105.322637,143.165412 C105.322637,143.165412 82.7663233,143.165412 71.7303736,143.165412 C73.8935135,147.53606 76.0689401,151.932192 76.0689401,151.932192 Z M96.5087575,114.092602 L95.1576768,111.340384 C93.3274152,112.792716 91.4748555,114.263933 89.623661,115.781112 C93.7870284,115.781112 96.79977,115.781112 97.2955607,115.781112 C97.0941955,115.313763 96.8398156,114.760179 96.5087575,114.092602 Z M143.127641,69.6159254 L179.361998,69.6159254 L199.896696,111.0901 L166.821611,111.0901 C170.333557,113.172011 174.603181,116.846641 176.873488,123.062568 C172.542658,118.386345 168.480314,117.494878 168.480314,117.494878 C168.480314,117.494878 174.137652,123.05597 175.388619,132.511259 C169.559495,124.791351 167.058699,124.006595 167.058699,124.006595 C167.058699,124.006595 178.752214,138.692602 172.498062,152.478722 C171.869393,127.94903 144.898972,118.747665 135.136515,112.602955 C133.374058,111.49283 131.772238,110.338564 130.290782,109.159952 L131.218199,111.032989 C132.035037,112.687369 133.994308,116.653239 133.994308,121.03663 C133.994308,123.045958 133.582477,125.142659 132.461203,127.144934 C132.233444,127.550623 131.939701,127.882591 131.67622,128.248461 C138.654377,131.227756 143.511487,135.836629 146.746526,142.397949 L151.860064,152.732647 C154.090781,157.251418 155.995673,161.891008 155.995673,166.175422 C155.995673,168.365411 155.497835,170.462339 154.291691,172.402499 C149.67986,179.823659 137.765412,181.021156 111.044366,181.021156 L57.6457323,181.021156 L54.2621147,181.021156 L0,71.4100096 L51.8252547,71.4100096 C58.5324217,71.4100096 64.389987,71.4616592 69.5528993,71.5751973 L34.1831618,0 L102.371556,0 C137.784979,0 147.048916,4.26052322 157.438904,25.3278719 L169.683727,50.0602945 L133.438677,50.0602945 L131.264388,45.666438 C130.595219,45.9412958 129.958359,46.2480079 129.406823,46.6270751 C128.197949,50.5433434 124.870077,56.0514207 122.798859,59.2705332 C126.461885,58.0684855 129.783615,56.6111476 132.707164,54.8905561 C134.084183,52.6072797 136.051646,51.2880533 136.070531,51.2744014 L136.152215,51.2186563 L136.202044,51.3046631 C136.262568,51.4061421 137.59135,53.6764492 137.900565,55.1840714 C138.323774,54.5956755 138.493057,53.8002262 138.493057,53.0052319 C138.493057,51.7265061 138.155855,50.5233207 138.149257,50.5030704 L138.095332,50.314902 L138.673262,50.5569953 C141.477585,51.7319669 143.173603,53.212968 143.716265,54.95563 L143.823887,55.3722398 L143.823887,55.370192 C144.292829,57.6789519 142.677585,59.7842988 141.673944,60.8354934 C141.848461,61.3533546 142.099883,63.5886218 138.95267,66.8930586 C137.427755,68.4955614 135.785435,69.8436843 134.115127,70.9868014 C139.382022,73.5792928 142.601134,78.4841846 145.629348,83.9888489 C147.307619,83.989759 148.863478,83.9908966 150.239587,83.9918068 C148.644365,80.7672335 143.127641,69.6159254 143.127641,69.6159254 L143.127641,69.6159254 Z" id="path14" fill="#231F20"></path>
                        <path d="M137.598404,43.3617737 C137.584069,43.3335598 137.56746,43.29852 137.551987,43.2684858 C138.907846,42.4709887 139.881225,41.3481218 139.963819,39.5051185 C139.996811,38.7688272 139.886003,37.9169501 139.601817,36.9230935 L139.444593,36.3729229 L139.337653,36.9353802 C138.958131,38.9374279 137.601589,39.7679171 137.062795,40.0277578 C137.088734,39.8969273 137.116038,39.7403858 137.124684,39.5367453 C137.169052,38.5638216 136.824797,36.8955622 134.269166,35.9542653 L133.896925,35.8197943 L134.105799,36.1538102 C134.395901,36.6216146 134.591578,37.0716714 134.698518,37.5003404 C132.666663,33.3931732 130.430031,28.8728093 130.429348,28.8728093 C128.910805,25.8036399 125.222295,20.6564727 117.593854,20.6564727 L73.2018184,20.6564727 C73.2018184,20.6564727 78.0059139,30.3911255 83.8721253,42.276677 C75.3720118,45.1865745 72.536517,51.0480078 72.536517,51.0480078 C72.536517,51.0480078 88.3005666,54.7918075 96.0384504,63.3130815 C90.0632514,64.3997709 84.1483483,67.4835023 79.0366306,71.8903281 C78.4172904,71.8616592 77.7854361,71.8334453 77.1399298,71.8070517 C66.536062,50.3485767 46.2204767,9.23706462 44.9654141,6.70009085 C48.7199078,6.70009085 102.371556,6.70009085 102.371556,6.70009085 C137.00705,6.70009085 142.935833,11.0693968 151.43094,28.2914669 C151.43094,28.2914669 157.465753,40.4846406 158.890098,43.3617737 C155.628893,43.3617737 138.926049,43.3617737 137.598404,43.3617737" id="path16" fill="#8E0A26"></path>
                        <path d="M191.116036,106.888507 L166.583614,106.888507 C165.328779,105.974059 164.122635,105.163137 162.958358,104.391124 C162.95904,104.391124 162.959723,104.391124 162.960178,104.391124 C174.516037,104.391124 187.160632,104.391124 189.103067,104.391124 C187.56177,101.275083 175.821384,77.5615453 175.203181,76.3167216 C173.876901,76.3167216 157.176788,76.3167216 153.91672,76.3167216 C155.280542,79.0734906 161.032078,90.6982912 161.032078,90.6982912 L149.254604,90.6905552 C148.792488,89.8577907 148.336288,89.0229784 147.890781,88.1918067 C152.582476,88.1947646 156.073489,88.1968124 157.00887,88.197495 C155.642089,85.4375405 149.892374,73.8166079 149.892374,73.8166079 L176.753807,73.8166079 L193.129005,106.888507 L191.116036,106.888507" id="path18" fill="#927F3B"></path>
                        <path d="M111.044366,174.32218 C133.202727,174.32218 145.75085,173.453466 148.600906,168.8678 C149.072579,168.106708 149.31581,167.205684 149.31581,166.10375 C149.31581,163.738107 148.200451,160.452556 145.854376,155.705116 L140.738563,145.362909 C136.440042,136.644593 127.432761,132.362682 112.519679,130.014559 C120.114673,129.049144 131.30011,126.010691 125.212739,114.005003 C123.425708,110.4744 117.273945,97.9626824 117.273945,97.9626824 C116.284411,95.9558565 115.36837,94.1463003 114.440498,92.5126257 C114.947892,91.7342412 115.436402,90.9426598 115.886687,90.12514 C116.201135,90.6370853 116.512853,91.1679158 116.823205,91.7151285 C117.618655,93.6141046 118.634582,95.6325346 119.932648,97.7048895 L127.453012,112.897153 C129.011601,116.053694 129.787027,118.759269 129.787027,121.066436 C129.787027,122.574058 129.457562,123.909667 128.793853,125.091009 C127.639587,127.154946 125.484183,128.687596 122.29283,129.724229 C132.766095,131.916038 139.13424,136.459155 142.978608,144.256424 L148.094422,154.597948 C150.315582,159.096014 151.81251,162.932419 151.81251,166.110576 C151.81251,167.615468 151.476674,168.97474 150.724001,170.185434 C147.216834,175.827299 135.134923,176.820246 111.044366,176.820246 L57.6457323,176.820246 L56.8703057,176.820246 L6.76853225,75.609782 L57.864845,75.609782 C64.3340143,75.609782 70.0102372,75.6648445 75.0225237,75.8040937 C74.3048901,76.5940823 73.6122848,77.4125123 72.9465283,78.2550606 C68.477814,78.1528991 63.4819097,78.1094406 57.864845,78.1094406 C57.864845,78.1094406 14.4930372,78.1094406 10.7916493,78.1094406 C12.5016834,81.560635 57.7547198,172.976332 58.4225241,174.32218 C59.9280986,174.32218 111.044366,174.32218 111.044366,174.32218" id="path20" fill="#927F3B"></path>
                        <path d="M148.600906,168.8678 C145.75085,173.453466 133.202727,174.32218 111.044366,174.32218 C111.044366,174.32218 59.9280986,174.32218 58.4225241,174.32218 C57.7547198,172.976332 12.5016834,81.560635 10.7916493,78.1094406 C14.4930372,78.1094406 57.864845,78.1094406 57.864845,78.1094406 C63.4819097,78.1094406 68.477814,78.1528991 72.9465283,78.2550606 C69.7997707,82.2386783 67.2643897,86.7770172 65.6327629,91.6011354 L38.8277578,91.6011354 L48.8177462,111.850282 C47.3647315,114.507847 46.22662,117.359952 45.6769044,120.338108 C48.7390204,116.980657 52.5858917,115.450964 55.1315117,114.766323 L55.6978371,115.757221 C44.4723538,124.568825 47.1517622,139.527642 47.1517622,139.527642 C47.1517622,139.527642 49.7519897,127.936971 58.4803171,123.575879 C47.3203629,137.741066 54.7224105,156.952215 54.7224105,156.952215 C54.7224105,156.952215 53.678952,140.303068 64.9403852,127.864616 C54.416836,150.795673 68.0168356,164.542886 68.0168356,164.542886 C68.0168356,164.542886 65.6618869,157.55813 66.8866877,148.473716 L69.7711018,154.296924 L73.0143326,160.892146 L73.7936273,160.892146 L116.21911,160.892146 C120.02457,160.892146 122.287596,160.103978 123.339701,158.410235 C123.73333,157.775878 123.930827,157.052328 123.930827,156.22912 C123.930827,155.084183 123.546527,153.747209 122.777926,152.195218 C122.760634,152.159723 118.332875,143.174058 118.33151,143.174058 C116.215014,138.912169 111.474172,136.463933 105.322637,136.463933 L70.6705329,136.463933 C71.6930585,134.502386 72.9447081,132.537653 74.4782689,130.60705 C76.8243439,127.653922 79.3551744,124.978154 81.9765622,122.481453 L98.2705322,122.481453 C101.264389,122.481453 103.172694,121.74721 104.110578,120.237312 C105.45688,118.066436 104.445276,115.022978 102.512625,111.118541 L102.513991,111.124002 L100.509213,107.037995 C105.944707,102.564275 110.865526,97.995902 114.440498,92.5126257 C115.36837,94.1463003 116.284411,95.9558565 117.273945,97.9626824 C117.273945,97.9626824 123.425708,110.4744 125.212739,114.005003 C131.30011,126.010691 120.114673,129.049144 112.519679,130.014559 C127.432761,132.362682 136.440042,136.644593 140.738563,145.362909 L145.854376,155.705116 C148.200451,160.452556 149.31581,163.738107 149.31581,166.10375 C149.31581,167.205684 149.072579,168.106708 148.600906,168.8678" id="path22" fill="#8E0A26"></path>
                        <path d="M84.6907829,119.982705 C92.2282116,119.982705 98.2705322,119.982705 98.2705322,119.982705 C99.665299,119.982705 101.441636,119.798632 101.987483,118.919678 C102.151306,118.65506 102.223888,118.311032 102.223888,117.912625 C102.223888,116.374059 101.160862,114.01911 100.274173,112.227301 L98.5210442,108.656198 C99.1906687,108.117403 99.8534674,107.578154 100.509213,107.037995 L102.513991,111.124002 L102.512625,111.118541 C104.445276,115.022978 105.45688,118.066436 104.110578,120.237312 C103.172694,121.74721 101.264389,122.481453 98.2705322,122.481453 L81.9765622,122.481453 C82.8716703,121.628438 83.7774723,120.796356 84.6907829,119.982705" id="path24" fill="#927F3B"></path>
                        <path d="M64.8762214,94.0985187 C55.1906698,94.0985187 44.7244585,94.0985187 42.8457327,94.0985187 C43.6725814,95.773604 47.2006814,102.92423 50.3437985,109.294878 C49.8059146,110.123319 49.2957894,110.976106 48.8177462,111.850282 L38.8277578,91.6011354 L65.6327629,91.6011354 C65.3538095,92.4259363 65.1005672,93.2584732 64.8762214,94.0985187" id="path26" fill="#927F3B"></path>
                        <path d="M123.339701,158.410235 C122.287596,160.103978 120.02457,160.892146 116.21911,160.892146 L73.7936273,160.892146 L73.0143326,160.892146 L69.7711018,154.296924 L66.8866877,148.473716 C67.0641621,147.160178 67.3194522,145.802272 67.6641621,144.415924 C69.6971541,148.520815 72.009782,153.190895 72.009782,153.190895 C72.009782,153.193625 73.8045488,156.838676 74.5697365,158.39408 C76.06803,158.39408 116.21911,158.39408 116.21911,158.39408 C119.681908,158.39408 120.848234,157.686458 121.216607,157.092601 C121.367005,156.84937 121.431624,156.548346 121.431624,156.215013 C121.431624,155.326276 120.98407,154.203409 120.539246,153.305798 L116.094195,144.283273 C114.415697,140.902386 110.490782,138.961999 105.322637,138.961999 C105.322637,138.961999 80.2584735,138.961999 69.4944237,138.961999 C69.8486899,138.13151 70.2354931,137.29829 70.6705329,136.463933 L105.322637,136.463933 C111.474172,136.463933 116.215014,138.912169 118.33151,143.174058 C118.332875,143.174058 122.760634,152.159723 122.777926,152.195218 C123.546527,153.747209 123.930827,155.084183 123.930827,156.22912 C123.930827,157.052328 123.73333,157.775878 123.339701,158.410235" id="path28" fill="#927F3B"></path>
                        <path d="M86.3108056,41.5717851 C85.4498272,41.7802037 84.6416361,42.0213869 83.8744006,42.283958 C83.8741731,42.2814551 83.8728079,42.2787248 83.8721253,42.276677 C78.0059139,30.3911255 73.2018184,20.6564727 73.2018184,20.6564727 L117.593854,20.6564727 C125.222295,20.6564727 128.910805,25.8036399 130.429348,28.8728093 C130.430031,28.8728093 132.666663,33.3931732 134.698518,37.5003404 C134.863705,38.1654143 134.810008,38.7754257 134.526504,39.3030707 C134.277812,39.7624563 133.865298,40.1312845 133.340611,40.3879398 L128.192033,29.9827069 C126.92878,27.4329914 123.873034,23.1549482 117.593854,23.1549482 C117.593854,23.1549482 80.8673472,23.1549482 77.2202484,23.1549482 C77.8045487,24.3374283 81.6052312,32.0386795 86.3108056,41.5717851" id="path30" fill="#927F3B"></path>
                        <path d="M136.047551,45.8582469 L135.266891,44.2803174 C136.083728,43.9924904 136.865298,43.6707611 137.551305,43.2671206 C137.551305,43.2678032 137.551987,43.2678032 137.551987,43.2684858 C137.56746,43.29852 137.584069,43.3335598 137.598404,43.3617737 C138.926049,43.3617737 155.628893,43.3617737 158.890098,43.3617737 C157.465753,40.4846406 151.43094,28.2914669 151.43094,28.2914669 C142.935833,11.0693968 137.00705,6.70009085 102.371556,6.70009085 C102.371556,6.70009085 48.7199078,6.70009085 44.9654141,6.70009085 C46.2204767,9.23706462 66.536062,50.3485767 77.1399298,71.8070517 C77.1406124,71.8084169 77.141295,71.8090995 77.1419776,71.8104646 C76.2202484,71.7722394 75.2803167,71.736517 74.3019322,71.7042075 L40.9460741,4.20070524 L102.371556,4.20070524 C137.630486,4.20070524 144.612738,8.82118294 153.670758,27.1856648 L162.914672,45.8582469 L136.047551,45.8582469" id="path32" fill="#927F3B"></path>
                        <path d="M162.960178,104.391124 C157.853238,101.004321 153.555172,98.3713286 149.477129,91.0973811 C149.401134,90.962 149.326731,90.8261638 149.251191,90.6905552 L161.032078,90.6982912 C161.032078,90.6982912 155.280542,79.0734906 153.91672,76.3167216 C157.176788,76.3167216 173.876901,76.3167216 175.203181,76.3167216 C175.821384,77.5615453 187.56177,101.275083 189.103067,104.391124 C187.160632,104.391124 174.516037,104.391124 162.960178,104.391124" id="path34" fill="#8E0A26"></path>
                        <path d="M88.6047759,100.480771 C101.078951,92.6951058 108.492603,82.8803165 102.476448,75.8361756 C93.7890762,65.6652998 77.1758798,79.8125122 73.2486899,88.7699637 C73.2486899,88.7699637 78.7447079,85.9055724 83.895106,84.6794063 C72.3517616,91.5704186 61.9410678,107.29101 61.9410678,107.29101 C61.9410678,107.29101 75.3283258,97.1758793 84.215015,93.1533538 C66.768599,108.069622 61.2516481,126.351988 61.2516481,126.351988 C61.2516481,126.351988 70.1924897,111.973376 88.6047759,100.480771" id="path36" fill="#8E0A26"></path>
                        <path d="M165.451645,118.589986 C156.903978,111.161544 143.931509,107.555629 137.891237,98.5888485 C136.087824,95.9092126 134.900565,92.7665506 134.117175,89.7240023 C135.713535,90.9108055 138.100793,92.4131945 140.323318,92.733331 C140.323318,92.733331 139.006595,84.0521026 134.11308,77.6744008 C146.314445,82.8905554 140.999996,97.1872558 161.636628,106.572694 C156.187709,106.474628 147.830941,103.247551 147.830941,103.247551 C159.510804,109.867574 165.451645,118.589986 165.451645,118.589986" id="path38" fill="#8E0A26"></path>
                        <path d="M101.287369,44.1255962 C101.287369,44.1255962 90.8100091,45.7965859 87.8323072,53.6555163 C82.2825918,49.9394754 76.8771312,49.5062559 76.8771312,49.5062559 C76.8771312,49.5062559 87.0420911,39.8425474 101.287369,44.1255962" id="path40" fill="#FFFFFF"></path>
                        <path d="M128.253694,45.4700785 C128.253694,45.4700785 127.835719,45.0939693 127.026846,44.8486906 C127.026846,44.8486906 129.967232,43.7237759 130.307164,43.4377691 C129.510122,43.0029568 128.80341,41.6807726 128.80341,41.6807726 C128.80341,41.6807726 130.413194,42.6837304 132.557676,42.2243448 C134.484866,41.8095553 135.829803,39.8989751 135.829803,39.8989751 C135.829803,39.8989751 135.707619,41.2197942 134.937653,42.0689409 C136.594536,41.8641628 138.329462,40.8787248 138.329462,40.8787248 C138.329462,40.8787248 137.826845,42.6657555 132.393853,43.9888499 C129.319451,44.7331047 128.253694,45.4700785 128.253694,45.4700785" id="path42" fill="#927F3B"></path>
                        <path d="M117.98225,46.0002264 C117.98225,46.0002264 117.27531,45.9217281 116.21911,45.8914664 C117.042773,45.4452776 118.691692,44.3440262 118.991123,43.985892 C118.223888,43.6607498 116.912625,42.404322 116.912625,42.404322 C116.912625,42.404322 119.207506,43.4175188 120.955856,42.7162674 C123.362454,41.7465291 123.98589,38.930602 123.98589,38.930602 C123.98589,38.930602 124.359496,40.7408408 123.527869,41.9663243 C125.32969,41.7531275 127.757904,39.872809 127.757904,39.872809 C127.757904,39.872809 126.774286,42.1617737 121.38589,44.4145609 C118.47531,45.6307156 117.98225,46.0002264 117.98225,46.0002264" id="path44" fill="#927F3B"></path>
                        <path d="M124.157904,53.3258235 C124.157904,53.3258235 126.411601,50.3554026 127.250054,47.5556302 C126.71126,47.2807724 122.827756,47.6334459 120.132193,49.7499419 C121.276903,49.6559715 123.957676,49.7949931 123.957676,49.7949931 C123.957676,49.7949931 120.208643,51.1674617 117.78862,53.6878257 C121.635719,52.9023878 124.157904,53.3258235 124.157904,53.3258235" id="path46" fill="#8E0A26"></path>
                        <path d="M118.11035,82.6345827 C121.571783,81.3253677 124.324684,78.2443666 124.324684,78.2443666 C122.652329,78.9149013 120.895333,79.3751971 119.457562,79.6807716 C118.71581,79.8386783 117.27531,80.0805441 117.168598,80.0966988 C116.652329,80.1733768 116.263478,80.2318524 116.263478,80.2318524 C115.483956,83.4880525 113.847324,87.9624551 110.397949,92.5292355 C99.3563115,107.155856 76.3870288,115.539474 65.3576775,138.636174 C71.2769038,111.888052 91.1137634,108.152216 104.579292,93.1922616 C108.741067,88.5642754 116.104206,73.0284396 102.427984,63.938565 C101.748803,63.4871429 100.902842,63.0728084 100.116949,62.6548335 C100.54357,61.978838 101.289417,61.1879393 101.858928,60.559953 C105.355629,56.705118 110.927415,53.890101 110.927415,53.890101 C110.927415,53.890101 104.442546,54.7244582 100.106027,56.1635936 C104.484184,51.6830476 113.282819,49.7230932 113.282819,49.7230932 C113.282819,49.7230932 110.412739,49.4987473 107.901249,49.7977234 C112.299428,47.1599533 117.36928,48.3021603 117.36928,48.3021603 C116.608871,52.871671 113.887824,57.5988609 113.887824,57.5988609 C113.887824,57.5988609 110.99977,57.6518757 106.888735,59.1708745 C108.951988,59.0045492 111.407051,59.3610907 113.988393,59.8966993 C116.000907,60.3098961 117.826163,60.3808859 119.31581,60.3133091 C117.501704,60.7981782 115.617062,61.2282123 113.65506,61.5949928 L113.468484,61.6309427 L113.609553,61.756995 C113.643001,61.7858915 116.764502,64.5394751 120.324457,65.7353795 C116.123774,67.7972679 111.424571,68.6229789 111.376334,68.6323077 L111.099428,68.6794067 L111.350623,68.8079619 C111.411146,68.8393612 117.364047,71.8532405 120.67895,72.0232064 C118.844821,75.1658684 117.499883,76.9253678 117.486231,76.9428877 L117.357449,77.108758 L117.567005,77.0935134 C117.643456,77.0887353 122.261885,76.7096682 127.832534,74.3817956 C127.357448,79.1936271 126.726504,96.2241159 139.769735,107.368143 C150.674171,116.687824 162.820474,119.300793 166.994308,129.167232 C156.275309,115.002955 125.824798,114.282591 118.11035,82.6345827" id="path48" fill="#8E0A26"></path>
                        <path d="M153.290554,7.87392472 L151.935377,7.87392472 L151.935377,4.11672345 L151.156083,4.11672345 L151.156083,7.87392472 L149.801361,7.87392472 L149.801361,8.5146528 L153.290554,8.5146528 L153.290554,7.87392472 Z M156.513079,5.2798861 L157.751304,8.5146528 L158.947209,8.5146528 L158.947209,4.11672345 L158.167687,4.11672345 L158.167687,7.692332 L158.146299,7.692332 L156.770189,4.11672345 L156.235491,4.11672345 L154.859382,7.692332 L154.837311,7.692332 L154.837311,4.11672345 L154.058472,4.11672345 L154.058472,8.5146528 L155.253011,8.5146528 L156.513079,5.2798861 L156.513079,5.2798861 Z" id="path50" fill="#231F20"></path>
                        <path d="M137.901931,59.4161532 C139.077812,59.7649587 139.898745,59.5271885 139.898745,59.5271885 C140.224115,59.3761077 140.628438,58.8377687 140.628438,58.8377687 C140.628438,58.8377687 139.275309,59.4532408 137.901931,59.4161532 Z M142.263933,57.0816823 C141.647095,58.898292 140.350167,59.7690543 140.342204,59.7731498 C138.646413,60.6955616 135.078722,59.5110338 135.057335,59.5094411 C135.039815,59.5151293 133.451419,60.0605218 131.899428,60.3226379 C132.428893,58.9021601 133.522636,55.7679167 135.922408,53.1538098 C134.022522,56.7174047 133.28077,59.1904422 133.28077,59.1904422 C133.28077,59.1904422 137.116038,58.2352659 138.804775,56.3478939 C140.164729,54.8266198 140.003637,53.4910112 139.922863,53.1276437 C140.301703,53.3028428 141.871441,54.1030703 142.303978,55.4885083 C142.449143,55.9554025 142.466663,56.4862329 142.263933,57.0816823 L142.263933,57.0816823 Z" id="path52" fill="#927F3B"></path>
                        <path d="M136.132192,57.2170634 C136.132192,57.2170634 136.684411,56.9062557 136.965184,56.610465 C136.965184,56.610465 136.929007,55.3970407 136.137653,53.77315 C136.137653,53.77315 136.515127,55.8937415 136.132192,57.2170634" id="path54" fill="#927F3B"></path>
                        <path d="M139.843683,58.6935139 C139.843683,58.6935139 140.518313,58.5535822 140.891692,58.4045492 C141.301703,57.9280987 142.64391,56.243002 141.20887,54.8059144 C141.20887,54.8059144 142.236857,56.8455048 139.843683,58.6935139" id="path56" fill="#FFFFFF"></path>
                        <path d="M121.940839,74.3130812 C123.522409,72.3715568 124.639132,70.0655273 124.639132,70.0655273 C124.639132,70.0655273 121.40341,70.6580187 116.737881,69.0227514 C116.737881,69.0227514 120.001817,68.3824784 123.812739,65.8293499 C123.812739,65.8293499 120.736743,64.3365172 118.83936,62.7656412 C126.682818,60.9199075 131.853694,57.1815685 131.853694,57.1815685 C131.853694,57.1815685 130.515355,59.9961305 130.160406,61.3547197 C132.208415,61.4056867 134.742886,60.5194524 134.742886,60.5194524 C135.227983,60.6591566 135.741294,60.7829336 136.26052,60.8796344 C135.853466,61.0166083 135.493967,61.3155844 135.19044,61.7053454 C134.672124,61.2639348 133.901703,61.2282123 133.341294,61.6598392 C132.694877,62.1547197 132.576561,63.0821372 133.072579,63.7276435 C133.329917,64.0630246 133.703978,64.2464148 134.095105,64.2835024 C133.740383,65.6184284 131.703068,66.9378823 131.703068,66.9378823 C135.438677,65.1781554 134.711942,63.9581326 135.859382,62.3417504 C136.849826,60.9528995 137.950395,62.1842988 137.728552,62.7802032 C138.288279,62.040044 137.943569,61.3829336 137.482818,61.0448221 C138.358586,61.1108062 139.207278,61.0536959 139.926959,60.7849814 C140.801817,65.6466423 130.229121,72.5724669 121.940839,74.3130812" id="path58" fill="#FFFFFF"></path>
                        <path d="M133.963364,62.858929 C134.080315,63.0127402 134.248916,63.0989745 134.426845,63.1203625 C134.347209,63.3340143 134.279178,63.5481213 134.223432,63.7585877 C133.944479,63.7547197 133.670531,63.6436844 133.488961,63.4077345 C133.16928,62.9934 133.247323,62.396813 133.663705,62.0755388 C133.787482,61.9808858 133.927187,61.9358346 134.068939,61.9123989 C133.7868,62.1494865 133.73697,62.5640485 133.963364,62.858929" id="path60" fill="#927F3B"></path>
                        <path d="M134.57292,62.760863 C134.453694,62.7829336 134.326959,62.741978 134.248233,62.6384512 C134.135378,62.4928312 134.162226,62.2860053 134.309894,62.1724672 C134.453694,62.0593841 134.663478,62.0864603 134.774968,62.2348107 C134.789075,62.2530132 134.794308,62.2744012 134.804547,62.2939689 C134.720588,62.4450496 134.643228,62.6009086 134.57292,62.760863" id="path62" fill="#8E0A26"></path>
                    </g>
                </g>
            </g>
        </g>
    </g>
</svg>