<?xml version="1.0" encoding="UTF-8"?>
<svg width="200px" height="200px" viewBox="0 0 200 200" version="1.1" xmlns="http://www.w3.org/2000/svg" xmlns:xlink="http://www.w3.org/1999/xlink">
    <!-- Generator: Sketch 54.1 (76490) - https://sketchapp.com -->
    <title>boston-u</title>
    <desc>Created with Sketch.</desc>
    <g id="boston-u" stroke="none" stroke-width="1" fill="none" fill-rule="evenodd">
        <g id="boston-u_BGL">
            <g id="boston-u" transform="translate(0.000000, 19.000000)">
                <g id="g10" transform="translate(99.999998, 80.659448) scale(-1, 1) rotate(-180.000000) translate(-99.999998, -80.659448) translate(0.000000, 0.154035)" fill-rule="nonzero">
                    <g id="g12">
                        <path d="M35.7764131,82.9509005 L35.7764131,40.3701554 L64.8185303,40.3701554 L64.8185303,82.9509005 L35.7764131,82.9509005 Z M35.7764131,106.282548 L64.8185303,106.282548 L64.8185303,135.810827 L35.7764131,135.810827 L35.7764131,106.282548 Z M2.00511427,40.3701554 L12.610469,40.3701554 L12.610469,135.810827 L2.00511427,135.810827 L2.00511427,158.978335 L73.6271943,158.978335 L87.9845947,144.945845 L87.9845947,106.769672 L77.7054132,96.4914537 L87.9845947,85.8868811 L87.9845947,31.8861605 L73.4647394,17.2014195 L2.00511427,17.2014195 L2.00511427,40.3701554 L2.00511427,40.3701554 Z" id="path14" fill="#CD1E25"></path>
                        <path d="M72.8096251,156.972559 C73.837784,155.966542 84.9179281,145.138384 85.9795406,144.10132 C85.9795406,142.522499 85.9795406,109.154991 85.9795406,107.600719 C84.9345346,106.556676 74.8907322,96.5135957 74.8907322,96.5135957 C74.8907322,96.5135957 84.9687103,86.116484 85.9795406,85.0748475 C85.9795406,83.5220196 85.9795406,34.284957 85.9795406,32.7107092 C84.9559546,31.6762928 73.6659428,20.2587239 72.627435,19.2082306 C71.0375434,19.2082306 7.75581208,19.2082306 4.01097463,19.2082306 C4.01097463,22.2368466 4.01097463,35.3338138 4.01097463,38.3641386 C6.64909731,38.3641386 14.6165099,38.3641386 14.6165099,38.3641386 L14.6165099,137.816844 C14.6165099,137.816844 6.64909731,137.816844 4.01097463,137.816844 C4.01097463,140.847169 4.01097463,153.942234 4.01097463,156.972559 C7.75655817,156.972559 71.2567973,156.972559 72.8096251,156.972559 Z M0,160.98363 L0,133.805051 C0,133.805051 7.96659427,133.805051 10.6045966,133.805051 C10.6045966,130.041874 10.6045966,46.137905 10.6045966,42.3759316 C7.96659427,42.3759316 0,42.3759316 0,42.3759316 L0,15.1956434 L74.3022845,15.1956434 L89.9903708,31.0623338 L89.9903708,86.6996368 C89.9903708,86.6996368 82.5841135,94.3415139 80.521057,96.4700337 C82.6069775,98.5559542 89.9903708,105.939348 89.9903708,105.939348 L89.9903708,145.79061 L74.4447635,160.98363 L0,160.98363 L0,160.98363 Z" id="path16" fill="#960A2C"></path>
                        <path d="M62.8125135,133.805051 C62.8125135,130.573523 62.8125135,111.519853 62.8125135,108.288325 C59.593741,108.288325 41.0012023,108.288325 37.7824299,108.288325 C37.7824299,111.519853 37.7824299,130.573523 37.7824299,133.805051 C41.0012023,133.805051 59.593741,133.805051 62.8125135,133.805051 Z M33.7706369,137.816844 L33.7706369,104.276532 L66.8243064,104.276532 L66.8243064,137.816844 L33.7706369,137.816844 L33.7706369,137.816844 Z" id="path18" fill="#960A2C"></path>
                        <path d="M62.8125135,80.9448837 C62.8125135,77.4823085 62.8125135,45.8385067 62.8125135,42.3759316 C59.593741,42.3759316 41.0012023,42.3759316 37.7824299,42.3759316 C37.7824299,45.8385067 37.7824299,77.4823085 37.7824299,80.9448837 C41.0012023,80.9448837 59.593741,80.9448837 62.8125135,80.9448837 Z M33.7706369,84.9566766 L33.7706369,38.3641386 L66.8243064,38.3641386 L66.8243064,84.9566766 L33.7706369,84.9566766 L33.7706369,84.9566766 Z" id="path20" fill="#960A2C"></path>
                        <polyline id="path22" fill="#CD1E25" points="97.9499374 158.978335 142.323703 158.978335 142.323703 135.810827 131.722259 135.810827 131.722259 40.3701554 164.18724 40.3701554 164.18724 135.810827 153.580983 135.810827 153.580983 158.978335 197.954748 158.978335 197.954748 135.810827 187.353305 135.810827 187.353305 31.3971111 173.158359 17.2014195 123.07268 17.2014195 108.552825 31.3971111 108.552825 135.810827 97.9499374 135.810827 97.9499374 158.978335"></polyline>
                        <path d="M195.948972,156.972559 C195.948972,153.942234 195.948972,140.847169 195.948972,137.816844 C193.311668,137.816844 185.347288,137.816844 185.347288,137.816844 C185.347288,137.816844 185.347288,33.8632964 185.347288,32.228158 C184.314315,31.1944637 173.361247,20.2403846 172.328275,19.2082306 C170.747529,19.2082306 125.446206,19.2082306 123.89025,19.2082306 C122.859684,20.2149213 111.621177,31.202406 110.559564,32.2418765 C110.559564,33.9030076 110.559564,137.816844 110.559564,137.816844 C110.559564,137.816844 102.593259,137.816844 99.9557135,137.816844 C99.9557135,140.847169 99.9557135,153.942234 99.9557135,156.972559 C103.439949,156.972559 136.833691,156.972559 140.317927,156.972559 C140.317927,153.942234 140.317927,140.847169 140.317927,137.816844 C137.680622,137.816844 129.71552,137.816844 129.71552,137.816844 L129.71552,38.3641386 L166.193016,38.3641386 L166.193016,137.816844 C166.193016,137.816844 158.224304,137.816844 155.587,137.816844 C155.587,140.847169 155.587,153.942234 155.587,156.972559 C159.071235,156.972559 192.464736,156.972559 195.948972,156.972559 Z M151.575207,160.98363 L151.575207,133.805051 C151.575207,133.805051 159.543197,133.805051 162.180501,133.805051 C162.180501,130.041874 162.180501,46.137905 162.180501,42.3759316 C158.881584,42.3759316 137.026952,42.3759316 133.728035,42.3759316 C133.728035,46.137905 133.728035,130.041874 133.728035,133.805051 C136.36534,133.805051 144.32972,133.805051 144.32972,133.805051 L144.32972,160.98363 L95.9431986,160.98363 L95.9431986,133.805051 C95.9431986,133.805051 103.909745,133.805051 106.547049,133.805051 C106.547049,129.946086 106.547049,30.5528272 106.547049,30.5528272 L122.255111,15.1956434 L173.989406,15.1956434 L189.359081,30.5660642 C189.359081,30.5660642 189.359081,129.946086 189.359081,133.805051 C191.996385,133.805051 199.961487,133.805051 199.961487,133.805051 L199.961487,160.98363 L151.575207,160.98363 L151.575207,160.98363 Z" id="path24" fill="#960A2C"></path>
                        <path d="M111.632248,6.07006002 L108.044281,7.71715986 C108.044281,7.71715986 104.819973,3.19044517 102.845725,1.21784835 C100.873162,-0.758876034 97.2827894,0.0816036081 96.0755692,0.880904912 C94.869071,1.68349454 90.5853166,5.4045486 85.5042097,7.91367008 C80.4197332,10.4233451 74.7085421,15.0991813 74.7085421,15.0991813 C73.7935,15.945872 68.2948238,21.2846926 68.133091,27.4257514 C67.9598058,34.1297224 68.5554736,39.5800231 75.0110691,40.5845959 L75.5357382,41.7643792 L70.8450042,47.0974717 L77.5915745,46.1095055 L78.7718392,48.3371829 C78.7718392,48.3371829 79.4563157,48.862574 80.3444023,48.3959073 C81.233933,47.9309254 81.9898896,47.5212985 81.9898896,47.5212985 L85.3434395,53.5689517 C85.3434395,53.5689517 84.2206958,55.958362 82.1078198,58.6091441 C79.9966286,61.263055 79.1776153,63.7403113 79.6447634,66.7841139 C80.109986,69.8300825 81.4257501,74.8955457 82.9754492,76.7699138 C83.390371,76.4214181 75.0808645,82.7203349 78.9961472,88.239709 C83.9610087,95.2389868 87.6019232,97.1689506 93.8731625,101.731165 C100.176171,106.315039 100.043078,105.098192 99.8360986,103.157879 C99.626953,101.221177 97.1530662,99.116965 95.0187702,97.6688303 C95.2103466,98.3429578 92.7140771,91.8839929 91.1210567,90.609384 C91.1542697,90.095786 89.9509003,87.1273143 89.6601662,86.9547511 C89.6601662,86.9547511 95.9172058,92.3133551 100.521297,91.1684694 C105.12587,90.0247872 110.211068,86.3566765 110.211068,86.3566765 C110.211068,86.3566765 112.149696,86.2132349 112.670274,86.0438005 C112.670274,86.0438005 110.256074,88.6604069 113.196868,91.8466884 C115.220214,94.0404309 117.97256,96.0748472 123.599516,98.1843537 C124.434654,98.4974705 125.124666,98.081586 123.702524,96.1453646 C122.287843,94.2050518 121.775208,94.59013 121.775208,94.59013 C121.775208,94.59013 120.82599,91.8269532 119.843559,90.2702745 C119.596387,89.8779761 119.046688,87.1963877 117.905894,84.2779762 C117.905894,84.2779762 127.754509,78.3925371 130.217085,72.0984338 C131.219973,69.5393484 130.592295,67.2878443 127.341272,63.5169659 C127.341272,63.5169659 127.524907,60.5578806 126.370153,58.4341742 C126.370153,58.4341742 128.794221,57.1263524 130.17256,55.7114306 C130.17256,55.7114306 134.716723,54.6671466 135.352103,53.4731635 C135.986038,52.2818278 137.309022,45.7973514 135.430562,40.8933804 C133.554509,35.9857993 130.888083,33.2004805 128.891453,33.1407934 C128.891453,33.1407934 127.678697,31.7482543 126.831766,31.5667862 C125.984112,31.3845961 125.473162,31.6998789 125.061128,31.2681099 C124.648372,30.835619 123.841152,29.5330919 122.393017,29.5879656 C120.943439,29.648134 120.510707,29.7891689 120.510707,29.7891689 C120.510707,29.7891689 116.42262,27.7641389 115.043559,27.5359801 C115.043559,27.5359801 122.411068,22.1783869 123.015641,9.09963876 C123.284955,3.278243 119.503727,3.64601676 117.325147,4.25174478 C115.452464,4.77304441 112.401441,5.80871225 111.632248,6.07006002" id="path26" fill="#231F20"></path>
                        <path d="M102.684955,89.3963877 C102.684955,89.3963877 113.882308,78.4464481 114.728998,73.7913339 C114.932608,72.6543905 114.922259,71.17208 113.667386,72.0847154 C112.410828,72.9990355 107.477735,76.0909728 106.564378,76.5005998 C105.650298,76.9102267 105.303246,76.9174469 105.880142,75.8589632 C106.46161,74.8014422 108.301802,71.3694326 112.991092,67.2878443 C117.678457,63.2079407 118.667386,62.3263522 118.907338,61.5102271 C119.146567,60.6902512 118.428637,57.8043307 118.09049,57.2916953 C117.748974,56.7807447 116.189889,56.6832717 114.964377,56.4803837 C113.734053,56.2753295 110.643559,54.944403 108.022139,52.0228627 C107.446447,51.3802635 106.844281,51.2447641 105.309745,50.66474 C103.772801,50.0856787 100.448373,47.9768941 99.6635354,44.5797823 C99.6635354,44.5797823 96.6616101,49.2324897 94.1845945,50.051503 C91.7080603,50.8707569 91.2729219,51.442598 89.9405513,49.8474115 C88.6081807,48.2493369 87.0450038,45.738627 86.9095044,42.5747282 C86.7747271,39.4057752 87.3533071,36.042117 89.0863997,34.1737657 C90.8206957,32.3003602 91.8356174,31.2854384 92.5184092,31.3884469 C93.2021637,31.4907333 96.3607677,34.8298427 97.1475307,35.1268343 C97.1475307,35.1268343 96.1222599,33.994945 96.0880842,33.5593253 C96.0880842,33.5593253 98.9138363,34.9234648 101.295545,34.4789402 C101.295545,34.4789402 101.09025,36.2132362 101.124426,36.5879654 C101.124426,36.5879654 98.7436798,37.0647403 97.179781,36.4175683 C95.6185295,35.7701555 93.1268328,34.684957 92.144402,34.6493373 C91.1622119,34.6158836 89.9087823,35.4353782 89.2909725,36.8611302 C88.6786981,38.287123 88.6438004,38.9362204 88.6438004,38.9362204 C88.6438004,38.9362204 89.4548714,36.7241868 90.3446427,36.1776164 C90.3446427,36.1776164 88.574727,40.6344153 90.9237041,46.5499387 C90.9237041,46.5499387 89.5586019,45.2880855 88.7451241,43.4185308 C88.7451241,43.4185308 89.5896488,47.0695536 91.9465681,48.4214188 C93.0649796,49.0613706 93.8842335,48.6613706 93.6457257,48.4551131 C93.4081806,48.2493369 92.9961469,48.0464489 92.9961469,48.0464489 C92.9961469,48.0464489 94.2517425,47.2329711 94.6955452,46.6204561 C95.1407918,46.005053 95.3174465,46.1078207 95.9241853,45.9367016 C96.5318869,45.7679892 97.446207,43.7670266 98.0606474,42.8786993 C98.6738844,41.9915754 99.6928976,41.2151614 100.306135,40.9412745 C100.920575,40.668591 101.467386,39.8851976 101.467386,39.8851976 C101.467386,39.8851976 101.493379,41.8238257 102.278698,42.403609 C102.278698,42.403609 101.424546,38.9027668 101.901321,36.2796621 C102.380022,33.6616117 104.016123,28.9042111 107.620455,28.290974 C111.222621,27.6760523 116.115521,28.0182905 119.683511,30.4671473 C123.254149,32.9143193 126.011068,36.0093854 128.255352,41.011792 C128.255352,41.011792 128.017807,38.4582421 126.148252,36.2796621 C125.95475,36.0587235 125.978577,35.5034889 126.49049,35.264259 C127.001922,35.0262326 128.870033,34.3436815 128.870033,34.3436815 C128.870033,34.3436815 129.620454,34.2476526 130.671718,35.1636574 C131.722981,36.0762927 134.848131,39.2433203 135.428155,44.7848364 C136.010346,50.3241865 134.989407,52.9725619 134.03706,53.3821888 C133.081585,53.790131 130.021898,55.2849565 126.079179,55.2185305 C122.134052,55.1480131 117.748974,54.7114306 117.748974,54.7114306 C117.748974,54.7114306 121.523222,56.035137 128.154991,55.8324896 C128.154991,55.8324896 125.566784,57.2570383 120.437783,58.0086628 C120.437783,58.0086628 120.544642,61.0382656 121.052705,62.1576398 C121.555713,63.2753293 123.35475,65.3169659 124.109022,67.1160031 C124.85824,68.9198539 125.77256,72.4555939 125.805051,73.1694326 C125.838505,73.8878441 125.560286,74.5342942 125.22599,73.6493363 C124.893378,72.7605277 123.934534,70.3530668 123.628878,70.0457263 C123.322259,69.7381451 122.884233,69.8673869 122.749696,70.448133 C122.613956,71.0279164 121.587241,75.3044506 119.720093,78.4375432 C117.850539,81.5701544 115.172801,84.8339329 111.428637,85.2079401 C111.428637,85.2079401 115.467626,82.0074588 116.013956,80.4791797 C116.013956,80.4791797 112.173282,84.1850761 108.090972,86.5983131 C104.010346,89.0161229 102.684955,89.3963877 102.684955,89.3963877" id="path28" fill="#FFFFFF"></path>
                        <path d="M84.6247873,77.4069776 C84.6247873,77.4069776 87.0567969,83.5227416 95.1273141,89.1253889 C97.7884452,90.9744863 100.399275,90.6108281 104.095304,87.0055333 C107.790852,83.4016826 111.731164,78.2926575 113.516965,74.2055336 C113.966784,73.1694326 114.24019,72.26137 113.017807,73.2192521 C111.793018,74.1778561 106.867867,77.0481329 105.857759,77.4370618 C104.850058,77.8315263 103.992055,78.0305636 104.384354,76.3857983 C104.774005,74.740311 108.531405,69.1583617 114.052705,65.055594 C116.17232,63.4813462 118.232247,61.8454858 118.050057,60.5740057 C117.869311,59.3032476 117.142957,57.6045714 117.142957,57.6045714 C117.142957,57.6045714 110.963655,56.9407928 100.973764,65.7819478 C96.2404308,69.9703954 94.3073382,72.3954254 91.2811048,71.4731631 C89.8928979,71.0517431 89.4033672,70.3848358 89.1022842,69.7191318 C89.1022842,69.7191318 90.6772541,71.7759308 94.3713574,69.9617311 C94.3713574,69.9617311 91.5860386,70.3848358 89.8305633,69.0529465 C89.8305633,69.0529465 93.7145584,69.9728021 95.0979519,68.6878443 C95.9463273,67.9027661 95.8854368,67.0541499 95.8854368,67.0541499 C95.8854368,67.0541499 93.6259904,64.9429587 93.4943418,60.7545111 C93.4943418,60.7545111 94.4404309,65.2972306 95.6430782,65.9174472 C95.6430782,65.9174472 94.0688304,61.4825496 94.0204549,58.3256303 C94.0204549,58.3256303 94.1607678,55.8791803 93.6743659,55.8190118 C93.1903707,55.7578807 90.2240651,56.0623331 89.6791795,55.3056545 C89.6791795,55.3056545 91.7364598,55.4567977 92.1903707,54.5768939 C92.1903707,54.5768939 90.2541494,54.0635366 89.4666644,54.3978326 C88.6786981,54.7297219 83.5306838,60.8170863 83.7723204,66.265943 C84.0156417,71.7172064 87.162934,75.108542 87.162934,75.108542 C87.162934,75.108542 85.2553529,73.7699139 84.6866405,73.037784 C84.4553529,72.7407924 83.9862795,72.5220198 84.270756,73.7992761 C84.5542698,75.075329 85.9097451,78.4218994 87.8815863,80.2279162 C87.8815863,80.2279162 86.5022842,79.6726815 84.6247873,77.4069776" id="path30" fill="#231F20"></path>
                        <path d="M100.165822,65.5111897 L103.5225,63.1598059 C103.5225,63.1598059 104.45078,61.908061 104.270033,60.3821886 C104.054871,58.5807446 103.720334,56.3845955 102.056796,55.547291 L98.9576389,54.3405522 C98.9576389,54.3405522 96.8835114,56.613717 96.9754488,59.0558349 C97.0657015,61.49699 98.180503,64.5793004 100.165822,65.5111897" id="path32" fill="#918F90"></path>
                        <path d="M116.010827,83.926111 C116.010827,83.926111 115.870033,84.8909726 116.345123,85.7513817 C116.345123,85.7513817 115.719371,85.005052 115.673403,84.3381447 C115.673403,84.3381447 114.819251,86.2259906 115.232969,87.1013215 C115.649817,87.9759304 117.696748,90.6250278 117.696748,90.6250278 C117.696748,90.6250278 117.92972,88.8760507 117.467626,87.3778558 C117.00818,85.8806236 116.559083,84.1598054 116.010827,83.926111" id="path34" fill="#CD1E25"></path>
                        <path d="M118.0438,91.1542697 C118.0438,91.1542697 118.321056,88.3451241 117.42262,85.9042096 C117.42262,85.9042096 118.181465,87.4697932 118.43682,89.219733 C118.43682,89.219733 118.620454,88.6216584 118.552344,88.228638 C118.552344,88.228638 118.965821,90.419011 119.079901,91.4522239 C119.079901,91.4522239 120.185075,92.1468088 120.602644,94.8618508 C120.602644,94.8618508 122.697229,96.1492154 123.181946,97.0238243 C123.181946,97.0238243 119.919853,95.6074585 116.75475,93.1135957 C113.715039,90.7169652 112.884714,88.530443 112.884714,88.530443 C112.884714,88.530443 112.701562,87.2866404 114.037302,85.6276754 C114.037302,85.6276754 114.776652,87.3311651 115.903006,88.8283973 C117.032247,90.3256295 118.572801,92.099396 119.033932,92.466183 C119.033932,92.466183 118.117205,91.2921758 118.0438,91.1542697" id="path36" fill="#231F20"></path>
                        <path d="M115.328758,91.3848353 C115.328758,91.3848353 118.466904,94.7439206 121.76173,96.0953045 C121.76173,96.0953045 121.455111,95.6334513 121.234895,95.5051721 C121.016844,95.3744862 117.35451,93.1942215 115.328758,91.3848353" id="path38" fill="#E9E9E9"></path>
                        <path d="M84.1446429,80.8880846 C84.1446429,80.8880846 83.8507801,86.8755694 85.1554732,88.6454851 C86.4572782,90.4161229 89.2577595,92.6120314 89.2577595,92.6120314 C89.2577595,92.6120314 88.7119111,87.4577595 85.5232229,82.1920557 C85.5232229,82.1920557 85.6404311,84.0965081 85.9318871,84.7381447 C85.9318871,84.7381447 84.9210568,83.2606477 84.6303228,81.4717188 L84.1446429,80.8880846" id="path40" fill="#CD1E25"></path>
                        <path d="M89.898674,93.0389868 C89.898674,93.0389868 89.2577595,88.6454851 86.8255093,83.7843541 C86.8255093,83.7843541 89.1222601,86.6252686 89.7241855,90.297952 C89.7241855,90.297952 92.5042095,94.0902504 93.221899,97.0635355 C93.221899,97.0635355 93.3581204,95.5857979 92.9889267,94.7484934 C92.9889267,94.7484934 94.1756896,97.8399494 94.4688304,98.1925367 C94.7595644,98.5400697 97.2868808,100.13646 97.6567966,101.146568 C98.0267124,102.157398 98.1415138,102.506857 97.1005993,101.875328 C96.0620915,101.244763 86.0293601,94.4387461 82.2194925,90.0849556 C82.2194925,90.0849556 86.1855574,93.3518629 86.9626934,93.6632949 C86.9626934,93.6632949 78.8748476,87.2067367 80.8190112,83.0072181 C80.8190112,83.0072181 81.0519835,84.8743661 81.5968692,85.5730424 C81.5968692,85.5730424 81.1311652,81.2166045 82.7629342,79.5848356 L83.1275551,80.0425973 C83.1275551,80.0425973 82.8144384,86.1285177 84.5487343,88.528999 C86.2868811,90.9285176 89.7431987,94.4452443 91.7927775,95.1066162 L89.898674,93.0389868" id="path42" fill="#231F20"></path>
                        <path d="M104.819973,61.9999985 C104.819973,61.9999985 110.097711,58.170877 111.655352,57.9429588 C111.655352,57.9429588 106.207218,56.8281574 104.316965,56.2784583 C104.316965,56.2784583 105.414197,59.0876038 104.819973,61.9999985" id="path44" fill="#FFFFFF"></path>
                        <path d="M99.5547508,66.1518636 C99.5547508,66.1518636 96.5184091,63.2991561 96.4257497,59.7436808 C96.3345343,56.1872429 97.8897689,53.9730432 97.8897689,53.9730432 L97.2502984,53.790131 C97.2502984,53.790131 94.535497,56.5535485 94.8546306,60.0146796 C95.1747269,63.4813462 96.7884452,65.8707565 97.9983128,66.7145591 C98.4543898,67.0368214 98.7768928,66.944162 99.0510204,66.7145591 C99.32587,66.4868816 99.5547508,66.1518636 99.5547508,66.1518636" id="path46" fill="#FFFFFF"></path>
                        <path d="M100.896989,60.8105881 C101.080623,60.2909732 101.55451,57.7593247 100.667386,56.0486147 C99.7831503,54.3405522 98.6866401,55.4077002 98.4543898,55.8664246 C98.224787,56.3253897 97.8611287,58.2146797 98.4543898,59.6967494 C99.0510204,61.1759311 100.358842,62.340552 100.896989,60.8105881" id="path48" fill="#231F20"></path>
                        <path d="M101.872922,58.125871 C101.872922,58.125871 102.330924,58.9638974 102.330924,61.1292403 C102.330924,61.1292403 103.202404,59.8943427 102.560768,57.2546315 C102.560768,57.2546315 103.812272,60.0327301 102.926592,62.931647 C102.926592,62.931647 101.036339,64.2276759 100.667386,64.5492162 C100.302765,64.8693125 99.6928976,64.7164845 99.3728014,64.3963883 C99.0510204,64.0772547 97.8016823,62.7930189 97.5253887,61.2671465 L97.8897689,61.6339335 C97.8897689,61.6339335 97.2502984,60.0146796 97.5253887,58.170877 C97.5253887,58.170877 98.449817,62.4941019 99.7831503,62.8854377 C101.036339,63.2515026 101.523463,62.3200947 101.768469,61.4515027 C102.009384,60.5809852 101.872922,58.125871 101.872922,58.125871" id="path50" fill="#E9E9E9"></path>
                        <path d="M105.006255,59.8457265 C105.006255,59.8457265 106.182669,59.3602873 107.045966,58.7557145 C107.909504,58.1521044 108.880142,57.3559552 108.880142,57.3559552 L111.655352,57.9429588 C111.655352,57.9429588 110.142958,58.1181694 104.819973,61.9999985 C104.819973,61.9999985 105.090731,60.3147999 105.006255,59.8457265" id="path52" fill="#E9E9E9"></path>
                        <path d="M98.0799013,64.3812258 C98.0799013,64.3812258 97.6979518,65.2406723 96.7157617,65.3788191 C96.7157617,65.3788191 97.5901299,66.578819 98.1764115,66.8117914 C98.7634151,67.0430789 98.9814656,66.8560753 99.5547508,66.1518636 C99.5547508,66.1518636 98.4902502,65.0784581 98.0799013,64.3812258" id="path54" fill="#E9E9E9"></path>
                        <path d="M92.8274345,64.2702752 C92.8274345,64.2702752 92.1198533,63.0803835 92.2300819,60.6998781 C92.2300819,60.6998781 92.5263515,63.1999984 93.1807438,63.9431994 L92.8274345,64.2702752" id="path56" fill="#231F20"></path>
                        <path d="M94.1663033,65.5013221 C94.1663033,65.5013221 92.5263515,63.1547517 92.3386259,59.794463 L92.8019231,59.794463 C92.8019231,59.794463 92.9367004,62.664499 94.1663033,65.5013221" id="path58" fill="#E9E9E9"></path>
                        <path d="M94.9292395,64.0507806 C94.9292395,64.0507806 94.0522239,61.1617313 93.8604068,58.2928987 C93.8604068,58.2928987 93.5617305,58.4904919 93.5617305,58.8442825 C93.5617305,59.1968698 94.1107076,62.8553534 94.9292395,64.0507806" id="path60" fill="#E9E9E9"></path>
                        <path d="M105.753066,63.6731633 C105.753066,63.6731633 107.911189,61.5143186 115.996628,59.2192524 L116.35475,60.0175677 L116.714317,60.0755701 C116.714317,60.0755701 116.632007,58.9379047 116.408661,58.5783379 C116.188445,58.2187711 115.857277,58.3841141 115.857277,58.3841141 C115.857277,58.3841141 108.57593,60.5706363 105.753066,63.6731633" id="path62" fill="#231F20"></path>
                        <path d="M124.79037,60.6577602 C124.79037,60.6577602 125.284714,59.7817073 124.714317,58.5020443 L125.157879,58.4760515 C125.157879,58.4760515 126.121056,60.1371826 125.360526,61.2399503 L124.79037,60.6577602" id="path64" fill="#FFFFFF"></path>
                        <path d="M124.587482,60.3400707 L124.257759,59.9590839 C124.257759,59.9590839 124.233451,59.0125136 123.982187,58.7968698 C123.726351,58.5783379 123.449094,58.8707567 123.422861,59.3032476 L123.029359,59.0481333 C123.029359,59.0481333 123.042596,58.6026459 123.297711,58.5783379 C123.552103,58.5528265 124.310226,58.5528265 124.310226,58.5528265 C124.310226,58.5528265 124.99398,59.2245473 124.587482,60.3400707" id="path66" fill="#918F90"></path>
                        <path d="M123.271477,58.1987952 L123.372801,57.8962681 C123.372801,57.8962681 125.740791,57.4635365 127.905171,56.5381454 C127.905171,56.5381454 127.42599,57.715522 124.436098,58.1735244 C124.003366,58.2401911 123.271477,58.1987952 123.271477,58.1987952" id="path68" fill="#231F20"></path>
                        <path d="M126.297229,61.973765 C126.297229,61.973765 126.297229,59.5795412 125.537903,58.3511417 L125.970635,58.2502994 C125.970635,58.2502994 126.981706,59.2245473 126.80481,62.3018035 L126.297229,61.973765" id="path70" fill="#231F20"></path>
                        <path d="M86.9689509,80.5542699 C86.9689509,80.5542699 92.2673864,87.2628137 95.8276751,88.9908522 C99.3870011,90.7169652 102.324426,88.1042096 103.47244,87.1051723 C104.623583,86.104691 109.28664,81.3966285 112.849095,74.7925372 C112.849095,74.7925372 105.40457,86.0517427 102.15812,86.5776152 C98.9138363,87.1051723 97.7138363,86.3684696 97.7138363,86.3684696 C97.7138363,86.3684696 98.438746,87.472922 100.692657,87.3167247 C100.692657,87.3167247 98.1764115,88.8315261 93.2045705,85.2712373 C88.2332108,81.7111893 87.3903709,80.4490955 87.3903709,80.4490955 L86.9689509,80.5542699" id="path72" fill="#E9E9E9"></path>
                        <path d="M91.6185296,73.3143183 C91.6185296,73.3143183 94.6955452,73.7405517 96.091213,72.2868815 C97.4880842,70.8315265 99.4558339,68.4967492 99.4558339,68.4967492 C99.4558339,68.4967492 95.9193718,72.4296011 93.5848352,72.5458466 C91.2476511,72.6575192 88.9660628,72.57208 87.4276753,69.0404315 C87.4276753,69.0404315 90.7913335,72.7995168 93.698674,71.7164844 C96.6055331,70.6334519 98.5439205,68.0984339 99.7119109,67.0986746 C100.881105,66.1027661 105.270033,62.3675075 108.005533,60.8589636 C108.473643,60.5992765 110.199275,59.9463282 111.082548,59.7752091 C111.082548,59.7752091 104.784354,62.8815869 101.478457,67.2141981 C100.929239,67.9367011 97.0038484,73.7128742 94.4103466,73.8259909 C91.8180482,73.9400704 91.6185296,73.3143183 91.6185296,73.3143183" id="path74" fill="#E9E9E9"></path>
                        <path d="M115.996628,59.2192524 C115.996628,59.2192524 106.017085,61.7051729 103.532609,66.0353774 C103.532609,66.0353774 107.569672,62.7675075 112.772079,61.4786988 C113.9083,61.195907 115.479179,60.7973511 116.291453,60.7648601 C116.291453,60.7648601 116.543198,60.1862801 115.996628,59.2192524" id="path76" fill="#E9E9E9"></path>
                        <path d="M116.67966,58.2842344 L117.002885,58.2842344 C117.002885,58.2842344 117.907338,60.2134762 117.808421,60.7973511 C117.644522,61.7694329 116.255593,62.8991561 110.799757,67.3244267 C110.799757,67.3244267 115.578336,62.4324894 116.419732,61.4786988 C117.164377,60.6348962 117.322981,59.8642584 116.67966,58.2842344" id="path78" fill="#E9E9E9"></path>
                        <path d="M98.481586,58.9174474 C98.593018,59.6216592 98.8149193,60.1699143 98.9749674,60.1460875 C99.139107,60.1198541 99.1802623,59.528037 99.0685896,58.8231032 C98.9566762,58.1234643 98.7374223,57.5728024 98.5732827,57.5990359 C98.4093838,57.6235846 98.3706353,58.2146797 98.481586,58.9174474" id="path80" fill="#FFFFFF"></path>
                        <path d="M117.202404,83.7107079 C117.202404,83.7107079 122.145845,76.907098 122.820695,73.3018032 C123.148011,71.559565 123.005532,69.9092642 123.570394,70.9867612 C124.132849,72.0673869 124.991573,74.9874831 125.481104,74.9614903 C125.972319,74.9369416 126.536218,74.396388 126.485677,73.293139 C126.438986,72.1901306 125.318649,65.7225014 121.805292,61.9665448 C121.805292,61.9665448 121.867145,59.6666652 121.383872,58.694824 C121.383872,58.694824 126.772319,62.5728023 128.951862,66.6914544 C131.24043,71.0144387 128.467626,74.3807442 125.988204,76.9862797 C121.542235,81.6469294 117.202404,83.7107079 117.202404,83.7107079" id="path82" fill="#231F20"></path>
                        <path d="M118.012031,83.0608884 C118.012031,83.0608884 120.526351,79.5451244 121.489046,77.285678 C121.489046,77.285678 120.791092,79.667146 120.152584,80.6423566 C120.152584,80.6423566 124.466904,78.0620919 127.422139,74.3870018 C127.422139,74.3870018 124.79037,78.9850762 118.012031,83.0608884" id="path84" fill="#E9E9E9"></path>
                        <path d="M122.599034,61.2399503 L122.605292,61.7930189 C122.605292,61.7930189 126.610827,64.9143185 127.577133,66.1985543 C128.546808,67.4820681 129.110947,68.9222606 128.987482,71.2640175 C128.987482,71.2640175 130.071958,69.0823087 128.698914,66.7326096 C127.328517,64.3853173 126.170153,63.1381452 123.516242,60.7641381 L122.697229,60.6404317 L122.599034,61.2399503" id="path86" fill="#E9E9E9"></path>
                        <path d="M122.725869,60.7338132 C122.725869,60.7338132 124.69049,62.3263522 126.80481,64.7085423 C126.80481,64.7085423 124.714317,61.6695532 122.599034,59.8584823 C122.599034,59.8584823 122.144161,59.6303234 122.117446,59.8086628 C122.093619,59.9845954 122.194943,60.604812 122.369191,60.9850767 L122.599034,61.2399503 L122.725869,60.7338132" id="path88" fill="#231F20"></path>
                        <path d="M89.1277956,52.5715992 C89.1277956,52.5715992 90.4902504,54.556918 94.0784573,53.790131 C94.0784573,53.790131 95.5162431,52.1667857 97.2623321,52.7643789 C99.0091431,53.3590841 103.961249,55.201202 105.851502,55.1075798 C105.851502,55.1075798 100.754269,53.3590841 99.0091431,51.4690721 C99.0091431,51.4690721 104.103006,53.9352574 105.993981,53.9352574 L106.761008,53.599036 L105.993981,52.8806244 C105.993981,52.8806244 101.522741,51.8524656 99.7292394,48.5521047 C99.7292394,48.5521047 99.2231022,50.4154019 96.6380241,51.4690721 C96.6380241,51.4690721 99.2965077,49.1475319 99.5367003,47.450059 L99.4409121,45.8464489 C99.4409121,45.8464489 96.7631745,50.8385066 92.0257498,51.5164849 C90.3460868,51.7557147 88.1003588,50.4890481 85.5865201,44.7239459 C85.5865201,44.7239459 86.3542698,49.7472912 89.8454851,52.0933802 C91.3056536,53.0707568 93.4832708,52.1400709 93.6743659,52.0933802 C93.866905,52.0464488 91.78652,53.434415 89.1277956,52.5715992" id="path90" fill="#231F20"></path>
                        <path d="M103.691935,54.5205763 C103.691935,54.5205763 100.894582,53.5470504 97.4967485,51.7121527 C97.4967485,51.7121527 98.5217785,52.9559554 99.9484933,53.4758109 C101.373764,53.9999987 103.691935,54.5205763 103.691935,54.5205763" id="path92" fill="#E9E9E9"></path>
                        <path d="M99.1913333,50.4368218 C99.1913333,50.4368218 103.13646,53.4430793 105.491694,53.6871226 L106.285437,53.5817074 L105.280864,53.0620925 C105.280864,53.0620925 102.407699,52.3388675 99.1913333,50.4368218" id="path94" fill="#E9E9E9"></path>
                        <path d="M89.5367005,52.7910937 C89.5367005,52.7910937 90.7677474,53.6871226 92.3701541,53.3393488 C93.9682287,52.9908531 95.689769,51.8794211 96.5571576,51.1583621 C97.4271937,50.4368218 99.2618507,48.3167256 99.2618507,47.2122732 C99.2618507,47.2122732 97.5316462,50.3241865 95.1771336,50.985799 C92.821899,51.6438014 91.8815862,52.164379 90.6748473,51.6438014 C89.4666644,51.1227424 88.3545104,50.1935006 87.0782168,48.1169663 C87.0782168,48.1169663 87.9123925,50.330444 89.8154009,51.7470505 C91.7181686,53.1667857 95.1771336,51.3999987 95.1771336,51.3999987 C95.1771336,51.3999987 93.9270735,52.6089036 92.5080603,52.8522249 C91.0924165,53.0967496 90.3699135,53.034415 89.5367005,52.7910937" id="path96" fill="#E9E9E9"></path>
                        <path d="M117.821898,50.4635366 C117.821898,50.4635366 117.607217,49.974006 119.07605,49.2093851 C120.544642,48.4474115 122.167987,47.5244272 122.326591,46.7434405 C122.481585,45.961491 124.87268,44.1797823 125.57617,43.7884466 C126.27966,43.3971108 125.65463,42.4758112 126.27966,42.3987956 C126.907097,42.3196139 127.983872,42.8495777 128.141272,43.6312865 C128.296507,44.4149207 124.890972,48.9162443 124.890972,48.9162443 L117.821898,50.4635366" id="path98" fill="#E9E9E9"></path>
                        <path d="M123.685917,46.8454862 C123.685917,46.8454862 124.991573,45.836822 125.587963,45.1622131 C126.184594,44.4878449 127.317446,43.4697943 127.841874,43.4697943 C128.369431,43.4697943 128.798793,43.9523455 129.711429,45.013958 C130.621176,46.0738857 130.842596,46.5374236 131.157157,47.3470506 C131.471958,48.1533081 132.271958,49.7744873 132.702042,50.2291203 C133.132367,50.6871227 133.541754,51.5020444 132.80818,52.098675 C132.068348,52.6945835 129.928757,53.7196136 127.105171,53.7552333 C124.281585,53.790131 120.755472,53.5706364 118.748733,52.520095 C116.742717,51.4664247 117.090731,50.1959073 118.961008,49.8108291 C120.826712,49.4233441 123.227193,48.4815872 124.175448,47.6267136 C124.528757,47.3104681 125.195905,46.7759314 124.563896,46.8454862 C123.932368,46.9160036 123.685917,46.8454862 123.685917,46.8454862" id="path100" fill="#231F20"></path>
                        <path d="M129.184834,47.2416354 C129.184834,47.2416354 129.922259,50.26474 129.640189,51.7470505 C129.505653,52.4575197 128.752103,52.799036 130.060887,52.6240661 C131.367265,52.4522249 132.481104,51.6827905 132.245243,50.8620926 C132.104931,50.3708772 131.822861,49.941515 131.751621,50.6173273 C131.684233,51.2914548 130.796868,50.9675078 130.516483,50.5460878 C130.237542,50.1270746 130.202644,49.8527063 130.167024,49.2490962 C130.131164,48.6430794 129.184834,47.2416354 129.184834,47.2416354" id="path102" fill="#231F20"></path>
                        <path d="M129.184834,49.2134765 C129.184834,49.2134765 129.711429,51.8262322 128.054389,53.0880853 C128.054389,53.0880853 125.371597,53.6024054 121.361489,52.7309253 C119.424546,52.3078206 117.451983,51.2495775 118.119612,50.6173273 C118.781946,49.985077 121.214197,49.8178086 122.309022,49.2134765 C123.405532,48.6081817 126.720334,47.4081817 125.555713,46.3915753 C125.555713,46.3915753 126.816844,45.9968701 126.606976,46.6007209 C126.395424,47.2060157 124.669792,48.862574 122.097711,49.7393489 C119.530683,50.6173273 119.354028,50.8016834 119.319371,51.0103477 C119.319371,51.0103477 121.10806,50.5109494 122.27268,50.5460878 C123.441152,50.5814668 124.27605,49.9501793 125.519852,50.0531877 C126.78339,50.1617316 128.017807,50.4490962 128.087361,51.4664247 C128.087361,51.4664247 129.255352,50.309024 129.184834,49.2134765" id="path104" fill="#231F20"></path>
                        <path d="M129.887361,51.7121527 L129.60457,52.4847159 C129.60457,52.4847159 131.543198,52.3800228 132.034413,51.3253898 C132.127795,51.1241864 132.034413,50.7559554 132.034413,50.7559554 C132.034413,50.7559554 131.795665,51.2558351 130.948252,51.5379048 C130.095785,51.8175679 129.887361,51.7121527 129.887361,51.7121527" id="path106" fill="#FFFFFF"></path>
                        <path d="M128.973282,50.8620926 C128.973282,50.8620926 128.860647,52.0916954 127.948733,52.799036 C127.948733,52.799036 125.203848,53.1857989 122.167987,52.6240661 C119.135496,52.0637773 118.189407,51.1234644 118.257518,50.9405523 C118.328758,50.7559554 119.388926,50.3020445 120.196868,50.0904921 C120.196868,50.0904921 118.992777,50.7282779 119.099636,51.1164849 L119.388926,51.3253898 L120.722981,50.9405523 C120.722981,50.9405523 122.239227,51.8871226 124.109022,52.0291202 C125.972319,52.1701551 127.666904,52.0291202 127.983872,51.7121527 L127.913354,52.1328507 C127.913354,52.1328507 128.764136,51.5306846 128.973282,50.8620926" id="path108" fill="#FFFFFF"></path>
                        <path d="M100.248132,39.9239461 C100.248132,39.9239461 99.8782165,38.4582421 100.009624,37.532851 C100.009624,37.532851 100.744161,38.5460881 101.195665,38.631768 L101.195665,38.9566777 C101.195665,38.9566777 100.442115,39.8375441 100.248132,39.9239461" id="path110" fill="#E9E9E9"></path>
                        <path d="M100.506375,37.3388679 C100.506375,37.3388679 100.830322,37.855354 101.195665,38.0084226 L101.17593,37.1273156 C101.17593,37.1273156 100.678216,37.3160039 100.506375,37.3388679" id="path112" fill="#E9E9E9"></path>
                        <path d="M99.7119109,40.1829111 C99.7119109,40.1829111 99.4091431,38.6746079 99.5836317,37.4671471 C99.5836317,37.4671471 97.9451239,37.4079413 97.0206955,36.9316477 C97.0206955,36.9316477 98.0750878,39.6864009 99.7119109,40.1829111" id="path114" fill="#FFFFFF"></path>
                        <path d="M99.2149193,40.4404322 C99.2149193,40.4404322 97.03658,39.0240664 96.3273141,37.2986754 C96.3273141,37.2986754 94.4974706,40.5054141 96.1547509,44.6851974 C96.1547509,44.6851974 97.5489747,41.5480134 98.54729,40.8510218 C98.761249,40.699638 99.2149193,40.4404322 99.2149193,40.4404322" id="path116" fill="#FFFFFF"></path>
                        <path d="M95.1232227,43.7566776 C95.1232227,43.7566776 94.3032467,39.5571591 95.8370614,36.6086633 C95.8370614,36.6086633 93.7051721,34.997111 91.6572781,35.2743673 C91.6572781,35.2743673 91.2033672,35.4267139 91.4871217,36.5672674 C91.7641373,37.7034888 92.6262311,41.2341747 95.1232227,43.7566776" id="path118" fill="#FFFFFF"></path>
                        <path d="M94.7359784,45.4640181 C94.7359784,45.4640181 95.5826691,45.402887 95.7032467,45.1297221 C95.7032467,45.1297221 91.5860386,41.1359797 90.9198533,36.6226224 C90.9198533,36.6226224 89.0137162,41.9210579 92.0089026,47.4007208 C92.0089026,47.4007208 92.5232227,47.7937413 92.8859183,47.5528267 C93.2519832,47.3121528 94.4618508,46.070757 94.7359784,45.4640181" id="path120" fill="#FFFFFF"></path>
                        <path d="M91.6572781,46.7140783 C91.6572781,46.7140783 91.8830302,47.17184 92.0089026,47.4007208 C92.0089026,47.4007208 92.5232227,47.7937413 92.8859183,47.5528267 C93.2519832,47.3121528 94.4618508,46.070757 94.7359784,45.4640181 C94.7359784,45.4640181 95.5826691,45.402887 95.7032467,45.1297221 C95.7032467,45.1297221 93.4746066,42.9670266 92.0320073,40.0262325 C92.0320073,40.0262325 92.0478918,43.1752095 93.6377835,44.86113 C93.6377835,44.86113 91.6811048,46.2101071 91.6572781,46.7140783" id="path122" fill="#E9E9E9"></path>
                        <path d="M94.4038484,36.8231038 C94.1210566,37.520336 94.2137161,41.3405525 94.2137161,41.3405525 C93.643319,40.8974719 92.2649796,39.1239461 92.2649796,39.1239461 C92.821899,40.5800231 93.7090229,42.3290001 95.1232227,43.7566776 C95.1232227,43.7566776 94.3032467,39.5571591 95.8370614,36.6086633 C95.8370614,36.6086633 95.4512612,36.3169666 94.8507798,36.0057753 C94.8507798,36.0057753 94.689047,36.1290003 94.4038484,36.8231038" id="path124" fill="#E9E9E9"></path>
                        <path d="M97.4486137,40.9523455 C96.9374224,41.1725621 96.9436799,42.1944634 96.468349,42.512153 C95.9932587,42.8267137 95.5145584,42.1198545 95.5145584,42.1198545 C95.6002383,42.9138377 95.7966282,43.7740061 96.1547509,44.6851974 C96.1547509,44.6851974 97.5489747,41.5480134 98.54729,40.8510218 C98.761249,40.699638 99.2149193,40.4404322 99.2149193,40.4404322 C99.2149193,40.4404322 97.03658,39.0240664 96.3273141,37.2986754 L96.1848351,37.5901314 C95.9629338,39.3679894 97.4486137,40.9523455 97.4486137,40.9523455" id="path126" fill="#E9E9E9"></path>
                        <path d="M98.8466883,39.689289 C99.1121516,39.9143191 99.4012009,40.0880856 99.7119109,40.1829111 C99.7119109,40.1829111 99.4091431,38.6746079 99.5836317,37.4671471 L98.7080601,37.3855586 C98.5020433,38.2348968 98.8466883,39.689289 98.8466883,39.689289" id="path128" fill="#E9E9E9"></path>
                        <path d="M111.428637,85.2079401 C111.428637,85.2079401 117.628637,80.3333313 118.695785,76.5797815 C118.695785,76.5797815 118.169672,81.1405515 116.199516,82.923223 C114.231525,84.7042097 112.440912,85.1516224 111.428637,85.2079401" id="path130" fill="#E9E9E9"></path>
                        <path d="M116.57256,69.3557143 C116.57256,69.3557143 116.387963,68.6291198 116.790611,68.3217793 C117.19374,68.0089032 119.661369,66.2279165 120.448854,66.2279165 C121.234895,66.2279165 121.920815,67.2943425 121.920815,67.2943425 L121.545364,68.0089032 C121.545364,68.0089032 120.707819,67.4813461 119.952103,67.6373028 C119.194702,67.7925374 116.57256,69.3557143 116.57256,69.3557143" id="path132" fill="#E9E9E9"></path>
                        <path d="M116.069552,68.7797817 C116.069552,68.7797817 119.523463,65.7318876 120.544642,65.877014 C121.567506,66.0204556 122.110948,67.4700344 122.110948,67.4700344 C122.110948,67.4700344 121.003607,66.3261115 120.544642,66.3838732 C120.087602,66.4411536 119.398553,66.6139574 116.069552,68.7797817" id="path134" fill="#231F20"></path>
                        <path d="M117.969913,54.7843548 C118.867626,55.0560756 122.458721,56.0091442 128.154991,55.8324896 C128.154991,55.8324896 125.566784,57.2570383 120.437783,58.0086628 C120.437783,58.0086628 120.544642,61.0382656 121.052705,62.1576398 C121.555713,63.2753293 123.35475,65.3169659 124.109022,67.1160031 C124.85824,68.9198539 125.77256,72.4555939 125.805051,73.1694326 C125.838505,73.8878441 125.560286,74.5342942 125.22599,73.6493363 L125.160286,73.4750884 L124.728517,71.6293604 C124.542235,69.7429585 122.450779,65.1354978 120.967025,64.1049322 C119.483992,63.0726819 118.180021,64.387724 117.725388,64.7963883 C117.272199,65.2028865 111.739829,69.8635362 109.338866,72.5465686 C106.939107,75.2315264 108.943439,74.3164843 109.692175,74.0202148 C110.440912,73.7263519 112.067386,73.1614903 112.067386,73.1614903 C110.105653,74.4336925 107.237783,76.1987947 106.564378,76.5005998 C105.650298,76.9102267 105.303246,76.9174469 105.880142,75.8589632 C106.46161,74.8014422 108.301802,71.3694326 112.991092,67.2878443 C117.678457,63.2079407 118.667386,62.3263522 118.907338,61.5102271 C119.146567,60.6902512 118.428637,57.8043307 118.09049,57.2916953 C117.748974,56.7807447 116.189889,56.6832717 114.964377,56.4803837 C113.995424,56.3172068 111.877254,55.4594451 109.740551,53.6791804 C109.740551,53.6791804 113.398072,56.2286388 119.664498,56.5225016 L122.054871,56.2957868 C122.054871,56.2957868 118.577855,56.0021647 116.411068,54.6979529 L117.969913,54.7843548" id="path136" fill="#E9E9E9"></path>
                        <path d="M116.32611,66.8601668 C116.32611,66.8601668 116.013956,67.6373028 116.013956,67.9453653 C116.013956,67.9453653 118.82238,65.4182896 120.138384,65.542718 C121.455111,65.6678684 121.611068,66.288085 121.611068,66.288085 L122.654389,66.2493365 L121.98339,65.0784581 L120.573282,64.164138 L119.194702,64.6736446 L116.32611,66.8601668" id="path138" fill="#E9E9E9"></path>
                        <path d="M115.52611,67.4440416 C115.52611,67.4440416 118.949215,63.7672668 120.716724,63.8813462 C120.716724,63.8813462 122.062572,64.1489755 122.654389,66.2493365 C122.654389,66.2493365 121.489768,64.3383859 120.60481,64.3963883 C119.71528,64.452706 118.206977,65.3619719 115.52611,67.4440416" id="path140" fill="#231F20"></path>
                        <path d="M120.458481,61.3913342 C120.458481,61.3913342 120.282548,58.6026459 119.87605,57.7431995 L119.202644,57.5675076 C119.202644,57.5675076 120.103487,59.8324895 120.458481,61.3913342" id="path142" fill="#231F20"></path>
                        <path d="M118.875569,56.3624535 C118.875569,56.3624535 121.460647,57.007498 124.714317,56.832277 L125.667386,56.5381559 C125.667386,56.5381559 120.610587,56.6166203 118.875569,56.3624535" id="path144" fill="#231F20"></path>
                        <path d="M128.328998,42.3648606 C127.523222,39.9367018 125.556435,37.0387476 124.394221,35.6885671 C123.235135,34.3354985 121.563655,32.6750894 117.834654,30.7942231 C114.103246,28.91456 110.944642,29.403128 110.944642,29.403128 L110.769432,30.1614914 C109.120334,29.9323699 106.693619,32.6173277 106.693619,32.6173277 C106.693619,32.6173277 107.125388,32.9920569 107.557157,33.2223818 C107.989648,33.4515034 107.942958,33.7494576 107.557157,33.950661 C105.651261,34.9494576 104.3225,37.9126344 104.3225,37.9126344 C104.784354,37.7121531 105.620214,38.0288799 105.620214,38.0288799 C104.37232,38.4883264 104.182188,40.1386272 104.237061,40.9728028 C104.29723,41.8077005 103.249817,42.8827907 103.077976,43.3809857 C102.903728,43.881828 103.65078,45.2618521 103.65078,45.2618521 C101.684474,44.6298424 100.478698,42.0493371 100.478698,42.0493371 C100.478698,42.0493371 100.248132,42.2214189 98.9987942,43.3241866 C97.7518628,44.4286391 97.6965078,45.348976 97.3217786,45.9234646 C96.9470493,46.5001192 95.4678676,46.7020446 95.4101059,46.9025259 C95.301562,47.2938616 93.9046908,48.4093851 93.9046908,48.4093851 C94.1075789,48.753308 93.6767726,49.1087834 93.0413936,49.0820686 C89.7441614,48.9314067 88.7451241,43.4185308 88.7451241,43.4185308 C88.639709,44.6738858 88.7095044,46.1523454 90.2471698,48.4909735 C91.78652,50.8296016 93.7090229,50.2139578 93.7090229,50.2139578 C91.6438004,50.9357388 91.1819472,51.3367015 89.9405513,49.8474115 C88.6081807,48.2493369 87.0450038,45.738627 86.9095044,42.5747282 C86.7747271,39.4057752 87.3533071,36.042117 89.0863997,34.1737657 C90.8206957,32.3003602 91.8356174,31.2854384 92.5184092,31.3884469 C93.2021637,31.4907333 96.3607677,34.8298427 97.1475307,35.1268343 C97.1475307,35.1268343 96.1222599,33.994945 96.0880842,33.5593253 C96.0880842,33.5593253 98.9138363,34.9234648 101.295545,34.4789402 C101.295545,34.4789402 101.09025,36.2132362 101.124426,36.5879654 C101.124426,36.5879654 98.7436798,37.0647403 97.179781,36.4175683 C95.6185295,35.7701555 93.1268328,34.684957 92.144402,34.6493373 C91.1622119,34.6158836 89.9087823,35.4353782 89.2909725,36.8611302 C88.6786981,38.287123 88.6438004,38.9362204 88.6438004,38.9362204 C88.6438004,38.9362204 89.4548714,36.7241868 90.3446427,36.1776164 C90.3446427,36.1776164 88.574727,40.6344153 90.9237041,46.5499387 C90.9237041,46.5499387 89.5586019,45.2880855 88.7451241,43.4185308 C88.7451241,43.4185308 89.5896488,47.0695536 91.9465681,48.4214188 C93.0649796,49.0613706 93.8842335,48.6613706 93.6457257,48.4551131 C93.4081806,48.2493369 92.9961469,48.0464489 92.9961469,48.0464489 C92.9961469,48.0464489 94.2517425,47.2329711 94.6955452,46.6204561 C95.1407918,46.005053 95.3174465,46.1078207 95.9241853,45.9367016 C96.5318869,45.7679892 97.446207,43.7670266 98.0606474,42.8786993 C98.6738844,41.9915754 99.6928976,41.2151614 100.306135,40.9412745 C100.920575,40.668591 101.467386,39.8851976 101.467386,39.8851976 C101.467386,39.8851976 101.493379,41.8238257 102.278698,42.403609 C102.278698,42.403609 101.424546,38.9027668 101.901321,36.2796621 C102.380022,33.6616117 104.016123,28.9042111 107.620455,28.290974 C111.222621,27.6760523 116.115521,28.0182905 119.683511,30.4671473 C123.235135,32.9032483 125.980021,35.9747283 128.234172,40.9302035 L128.328998,42.3648606" id="path146" fill="#E9E9E9"></path>
                        <path d="M91.7073383,33.9910942 C91.7073383,33.9910942 91.9528256,32.2758115 93.0493358,32.6965094 C94.1489748,33.1155226 94.8141974,34.3354985 94.8141974,34.3354985 C94.8141974,34.3354985 93.3210566,33.9172073 92.7528256,33.9434408 C92.1857979,33.9648608 91.7073383,33.9910942 91.7073383,33.9910942" id="path148" fill="#FFFFFF"></path>
                        <path d="M97.0760505,34.3870028 C97.0760505,34.3870028 97.404811,35.3874841 98.4442815,35.5335731 C99.4820673,35.6823096 100.009624,35.4589642 100.009624,35.4589642 C100.009624,35.4589642 99.2096245,34.8823096 98.6421155,34.806016 C98.0717184,34.7316477 97.0760505,34.3870028 97.0760505,34.3870028" id="path150" fill="#FFFFFF"></path>
                        <path d="M135.439948,45.0993972 C134.502764,40.8406729 132.769431,38.7855586 131.739588,37.5234648 C130.713595,36.2623336 129.569672,35.5001194 128.185556,35.851744 C126.808902,36.2028872 127.005292,37.476052 127.005292,37.476052 C126.766062,37.0782181 126.485677,36.6726826 126.148252,36.2796621 C125.95475,36.0587235 125.978577,35.5034889 126.49049,35.264259 C127.001922,35.0262326 128.870033,34.3436815 128.870033,34.3436815 C128.870033,34.3436815 129.620454,34.2476526 130.671718,35.1636574 C131.722981,36.0762927 134.845725,39.2394695 135.428155,44.7809856 L135.439948,45.0993972" id="path152" fill="#E9E9E9"></path>
                        <path d="M108.746327,34.3552338 C108.746327,34.3552338 107.945364,34.5622133 108.214678,34.9494576 C108.483992,35.3393493 108.843559,35.3020448 109.112151,35.4503 C109.381706,35.6007211 108.940551,35.9595659 109.411068,35.9889281 C109.883752,36.0206971 109.913836,35.5776164 109.852223,35.1896501 C109.793499,34.8007212 109.762693,34.4093854 109.762693,34.4093854 L109.202404,34.2026466 L108.746327,34.3552338" id="path154" fill="#E9E9E9"></path>
                        <path d="M108.719372,34.8387476 C108.719372,34.8387476 109.00457,34.2683505 109.373523,34.383152 C109.74368,34.4972314 109.77232,35.0683505 109.77232,35.0683505 C109.77232,35.0683505 110.309985,34.3552338 109.684233,34.0695539 C109.058481,33.78243 108.803126,34.1819486 108.746327,34.3552338 C108.687603,34.5241869 108.719372,34.8387476 108.719372,34.8387476" id="path156" fill="#231F20"></path>
                        <path d="M107.735497,38.5564371 C107.735497,38.5564371 106.754751,38.6849569 107.114317,39.1554744 C107.473162,39.6269545 107.584835,40.0175682 107.795665,40.1030074 C108.005533,40.1963889 108.632007,40.0389882 108.423102,39.388206 C108.214678,38.7357391 107.735497,38.5564371 107.735497,38.5564371" id="path158" fill="#E9E9E9"></path>
                        <path d="M107.976171,39.5975923 C107.976171,39.5975923 108.803126,39.0016837 108.317687,38.4854383 C107.832007,37.9742469 107.150659,38.4582421 107.093619,38.6293612 C107.093619,38.6293612 107.77593,38.6026464 107.947771,38.8021651 C108.119372,39.0016837 107.976171,39.5975923 107.976171,39.5975923" id="path160" fill="#231F20"></path>
                        <path d="M86.0276753,52.1557147 L81.7759306,44.402165 C81.7759306,44.402165 83.5099859,41.835378 84.238265,41.2596861 C84.238265,41.2596861 84.6168451,46.1143189 86.1015622,48.2040903 C87.5860387,50.2907328 86.0276753,52.1557147 86.0276753,52.1557147" id="path162" fill="#E9E9E9"></path>
                        <path d="M85.5277957,51.2558351 C85.5277957,51.2558351 83.7975912,47.6488556 83.7083012,45.650059 C83.6187705,43.6519845 83.5299618,42.1034887 83.5299618,42.1034887 L81.7759306,44.402165 L85.5277957,51.2558351" id="path164" fill="#FFFFFF"></path>
                        <path d="M102.891935,30.9845961 C102.891935,30.9845961 102.552825,32.5436815 101.908541,32.7494577 C101.266905,32.9571592 97.1821877,33.6534288 95.1930181,32.1095058 C95.1930181,32.1095058 98.0322479,31.0555949 100.213235,30.9670269 C102.392055,30.879903 102.891935,30.9845961 102.891935,30.9845961" id="path166" fill="#FFFFFF"></path>
                        <path d="M97.6440409,33.0021652 C96.7316462,32.883513 95.8481324,32.6204565 95.1930181,32.1095058 C95.1930181,32.1095058 98.0322479,31.0555949 100.213235,30.9670269 C102.392055,30.879903 102.891935,30.9845961 102.891935,30.9845961 L102.649336,31.7703963 C99.6721997,31.4859198 97.6440409,33.0021652 97.6440409,33.0021652" id="path168" fill="#E9E9E9"></path>
                        <path d="M81.7521039,46.6584826 L81.134294,45.703248 C81.134294,45.703248 80.7968692,45.8702756 80.7398295,46.2649808 C80.7398295,46.2649808 80.176412,46.2084224 81.0765323,44.3817077 C81.977856,42.556437 85.8551122,36.5198547 87.9046909,34.5234648 L86.9492156,34.1297224 C86.9492156,34.1297224 85.2346549,36.0697945 84.8418751,36.2924179 C84.8418751,36.2924179 85.2038487,38.264259 82.5672663,40.1703961 C80.7398295,41.488567 78.8019234,39.8876043 78.8019234,39.8876043 C78.8019234,39.8876043 77.4577598,40.2818281 76.3318874,40.3944635 L79.5338127,46.9383863 C79.5338127,46.9383863 79.8722002,48.1771348 81.7521039,46.6584826" id="path170" fill="#CD1E25"></path>
                        <path d="M78.577856,41.0695537 C78.577856,41.0695537 78.2712375,42.0820687 79.7605275,42.8385068 C79.7605275,42.8385068 78.577856,43.4565573 77.3157622,40.844283 L76.8659427,40.9552336 L79.8722002,46.8274357 C79.8722002,46.8274357 80.0640173,47.2146799 80.5715985,47.0770145 C80.5715985,47.0770145 80.0163638,46.3465692 80.3212976,45.4782179 C80.6271941,44.6060157 81.189649,43.3732841 83.2986742,40.110709 C83.2986742,40.110709 82.5412735,40.7614912 81.5850762,41.0695537 C81.5850762,41.0695537 80.8276755,42.4430796 80.3212976,42.2760519 C79.8151605,42.1056548 78.7725612,41.5179292 78.577856,41.0695537" id="path172" fill="#CD1E25"></path>
                        <polyline id="path174" fill="#FFFFFF" points="72.4570379 46.2084224 77.4813458 45.3634164 76.6962676 44.1006006 74.0565565 45.703248 76.4442821 43.6512624 76.108542 42.8965092 72.4570379 46.2084224"></polyline>
                        <path d="M79.5338127,39.5499388 C79.5338127,39.5499388 80.8276755,40.756437 82.3715984,39.6062565 C83.9181688,38.4582421 83.8611291,37.0799028 83.8611291,37.0799028 L83.0719594,37.4972313 C83.0719594,37.4972313 82.8993962,38.6945839 81.7894083,39.4081819 C81.7894083,39.4081819 82.4271941,38.287123 82.4271941,38.0623336 C82.4271941,38.0623336 79.9848355,39.4945839 79.5338127,39.5499388" id="path176" fill="#FFFFFF"></path>
                        <path d="M87.6233432,33.3730437 C87.6233432,33.3730437 88.1540291,33.7612507 88.6048113,33.5672675 L89.9008401,31.9114312 C89.9008401,31.9114312 89.9008401,30.814199 89.7853166,30.5915756 C89.7853166,30.5915756 88.0734033,32.9523457 87.6233432,33.3730437" id="path178" fill="#FFFFFF"></path>
                        <path d="M90.2050519,31.5732844 L90.1251482,30.1961485 L90.374005,29.4984349 C90.374005,29.4984349 91.1622119,29.8382664 90.8255092,31.1525865 L90.2050519,31.5732844" id="path180" fill="#E9E9E9"></path>
                        <path d="M90.9918148,28.3176888 C90.9918148,28.3176888 92.0050519,28.8803844 91.6676271,30.2524662 C91.6676271,30.2524662 93.1980723,29.1995179 94.6430783,31.3797826 C94.6430783,31.3797826 98.6628134,29.6353783 103.239468,30.2524662 C103.239468,30.2524662 104.277494,28.3407935 106.273644,27.7554746 C106.273644,27.7554746 104.728999,27.7554746 104.277494,26.4332123 C103.8296,25.1157635 104.250298,23.7412509 105.064739,23.5169429 L108.155232,23.6279657 C108.155232,23.6279657 105.315039,21.8274363 101.945846,21.8852461 L100.739107,22.7280861 L98.127314,29.2154024 C98.127314,29.2154024 97.1766522,30.5068584 94.9807437,29.2734048 C94.0806234,28.7655829 94.0806234,27.1083026 94.3626932,26.6582424 L95.2064958,25.8714795 L91.7246668,26.8293615 L90.9918148,28.3176888" id="path182" fill="#CD1E25"></path>
                        <path d="M98.2960264,24.2712389 L96.9754488,24.9456071 L95.0931384,27.4464494 C95.0931384,27.4464494 94.6914537,28.6425986 96.025509,29.0269547 C97.3612491,29.4110703 97.9184091,28.7932604 98.1670252,28.0770149 C98.4149193,27.3586034 100.082549,23.2777612 100.082549,23.2777612 L98.7768928,24.0890487 L96.6839928,27.4512629 C96.6839928,27.4512629 96.1309242,28.4890486 96.7648592,28.7614915 C96.7648592,28.7614915 95.7848352,28.7569187 95.9193718,27.8743675 C95.9867605,27.4291209 98.2960264,24.2712389 98.2960264,24.2712389" id="path184" fill="#FFFFFF"></path>
                        <path d="M112.532127,24.7744879 L106.184113,24.4122738 C106.184113,24.4122738 104.623583,24.1468105 104.607699,25.2543917 C104.59013,26.3658236 105.458722,27.2096263 106.063776,27.2269548 C106.664498,27.245246 112.532127,24.7744879 112.532127,24.7744879" id="path186" fill="#FFFFFF"></path>
                        <path d="M68.9111896,31.2180498 C68.9111896,31.2180498 69.0871222,35.2823096 71.9689513,36.7208174 C71.9689513,36.7208174 68.5728021,31.3521051 70.9097455,24.2878454 C72.5894085,19.2185555 76.9759307,16.7198792 76.9759307,16.7198792 C76.9759307,16.7198792 77.1484939,24.6584831 79.9078199,26.2866419 C82.6632952,27.9148007 87.0490953,28.2149211 90.2907318,27.2801437 C90.2907318,27.2801437 88.1557138,35.2823096 79.9078199,38.7229834 C71.658482,42.1643792 69.4103472,35.4052939 69.2842341,34.4743674 C69.1590837,33.5432001 68.9111896,31.2180498 68.9111896,31.2180498" id="path188" fill="#231F20"></path>
                        <path d="M88.2784575,27.6864012 C88.2784575,27.6864012 89.6570375,27.4623339 90.2907318,27.2801437 C90.2907318,27.2801437 88.1557138,35.2823096 79.9078199,38.7229834 C73.2611293,41.4948245 70.5097455,37.6462084 69.6264724,35.5610099 C69.6264724,35.5610099 71.4074591,39.1855586 76.0457261,38.7237054 C76.0457261,38.7237054 73.1400704,38.0924178 72.3643785,35.9629353 C72.3643785,35.9629353 75.0262316,39.4033684 79.2900101,37.0782181 C83.5559546,34.750661 87.5780965,30.4553542 88.2784575,27.6864012" id="path190" fill="#E9E9E9"></path>
                        <path d="M103.164378,21.2965338 C103.164378,21.2965338 106.673884,18.9157396 107.5651,17.8700357 C107.5651,17.8700357 111.805773,18.8303726 112.479179,18.8303726 C112.479179,18.8303726 109.061369,22.1100355 107.638746,22.2604567 C106.214919,22.4103966 105.624787,21.7456312 105.176411,21.6686397 C104.728999,21.5935253 103.164378,21.2965338 103.164378,21.2965338" id="path192" fill="#E9E9E9"></path>
                        <path d="M108.776411,18.1514075 C108.776411,18.1514075 107.530924,19.7906373 106.870274,20.1843557 C106.207218,20.5785554 107.089769,20.9401439 107.846447,20.7206012 C108.605292,20.4986517 111.39374,18.6869069 111.39374,18.6869069 L108.776411,18.1514075" id="path194" fill="#FFFFFF"></path>
                        <path d="M105.465701,15.8579539 C105.465701,15.8579539 109.744402,18.629097 113.878938,18.1393738 C113.878938,18.1393738 113.478938,15.3460646 113.509022,14.3780983 C113.509022,14.3780983 112.452945,14.0317686 112.167988,13.9183871 C112.167988,13.9183871 108.987964,14.6283751 107.205533,14.2934052 C106.753066,14.2083992 106.211309,13.7696507 106.067867,13.9470514 C105.92587,14.1229599 106.753066,14.6934292 106.753066,14.8876531 C106.753066,15.0895062 106.578818,15.3429599 106.238024,15.4870754 C105.89747,15.6282066 105.465701,15.8579539 105.465701,15.8579539" id="path196" fill="#231F20"></path>
                        <path d="M112.621658,18.1956915 C112.621658,18.1956915 112.196387,18.048375 112.534534,17.423369 C112.877735,16.7990369 112.877735,16.4031524 112.423583,16.3429839 C111.967506,16.289771 108.83658,16.3403365 108.034895,15.8832487 C107.232248,15.4286157 107.005773,15.2019491 107.005773,15.2019491 C107.005773,15.2019491 106.524666,15.5109503 106.551141,15.8579539 C106.578818,16.2026229 106.833932,16.6279418 106.833932,16.6279418 C106.833932,16.6279418 110.371838,18.2813473 112.621658,18.1956915" id="path198" fill="#E9E9E9"></path>
                        <path d="M104.027675,14.8582186 C104.027675,14.8582186 104.289047,9.39352564 100.589408,7.36707563 C96.8883249,5.34050528 93.9872419,5.41638976 92.5754489,5.95208168 C92.5754489,5.95208168 97.7756895,0.867648594 100.239227,2.52876047 C102.703247,4.1901804 109.302284,12.3080141 111.151381,13.0050298 C111.151381,13.0050298 107.866905,13.8236098 106.314077,13.443321 C105.602645,13.2674365 105.167025,13.8139347 105.513836,14.2432969 C105.790611,14.5840911 106.445485,15.1576651 105.632007,15.1726109 C104.813716,15.1846446 104.572801,15.1431765 104.572801,15.1431765 L104.027675,14.8582186" id="path200" fill="#231F20"></path>
                        <path d="M113.437783,12.9646206 C113.437783,12.9646206 111.648854,11.2851501 110.287843,9.66353766 C110.287843,9.66353766 116.096507,5.81104679 119.720093,6.04618517 C121.722741,6.17309251 121.784594,7.72592038 121.784594,9.79354969 C121.784594,11.8573282 121.82599,17.7901319 117.844281,23.2310464 C115.52611,26.4038501 113.588204,27.1699151 113.588204,27.1699151 C113.588204,27.1699151 110.540551,26.7239464 108.731887,26.9790607 L114.227434,24.6563171 L109.967747,23.7422858 C109.967747,23.7422858 112.417326,22.207701 114.161008,19.6115278 C114.161008,19.6115278 114.928517,22.3374483 116.485436,22.8452221 C116.485436,22.8452221 115.246447,20.3987961 115.246447,18.8428876 C115.246447,18.8428876 116.35475,20.9107095 117.844281,21.1025025 C117.844281,21.1025025 115.103006,17.85444 115.396146,13.7307337 C115.461128,12.8394702 115.630563,11.9219973 114.801923,11.9219973 C113.971838,11.9219973 113.290491,12.6455352 113.437783,12.9646206" id="path202" fill="#231F20"></path>
                        <path d="M115.355713,25.0168465 L114.766303,24.9906131 C115.331164,24.5058959 116.75475,22.8625987 116.75475,22.8625987 C116.32948,22.1401198 116.034654,20.5785554 116.034654,20.5785554 C116.034654,20.5785554 116.46185,21.5429357 116.704931,21.951624 C116.944883,22.3605771 117.320334,21.8986998 117.809143,21.5696505 C118.302043,21.2402161 118.105653,20.8979297 118.105653,20.8979297 C116.194702,18.908038 115.8438,15.5424545 115.8438,15.5424545 C116.099636,16.9470995 117.077253,18.3730922 117.677735,19.2548491 C118.444522,20.3935494 118.930924,19.0988924 119.528517,17.2254869 C120.985075,12.6555954 119.590851,7.9167507 119.590851,7.9167507 C119.590851,6.81087829 121.234895,6.7167748 121.234895,6.7167748 C121.76173,7.38512617 121.784594,8.4871478 121.784594,9.79354969 C121.784594,11.8573282 121.82599,17.7901319 117.844281,23.2310464 C115.52611,26.4038501 113.588204,27.1699151 113.601923,27.1699151 C114.042356,27.1699151 115.355713,25.0168465 115.355713,25.0168465" id="path204" fill="#E9E9E9"></path>
                        <path d="M106.727554,17.6481584 C107.407218,17.6481584 101.593981,22.4103966 95.0370614,24.9699151 C88.4827896,27.524187 86.1070977,27.8385071 81.7188909,26.5971112 C79.5338127,25.9793014 77.84356,22.4746083 77.9044505,20.5367263 C77.9044505,20.5367263 77.7785781,18.3495062 78.1097453,16.7848371 C78.4406719,15.2147289 79.6606478,14.8818287 79.6606478,14.8818287 L80.3983133,14.8455351 C80.3983133,14.8455351 80.4813458,16.2286639 80.9155214,16.5376891 C80.9155214,16.5376891 80.7927778,23.5867864 85.470756,25.5889284 C85.470756,25.5889284 81.4512615,22.6395181 82.0904913,17.895523 C82.0904913,17.895523 82.0079402,16.289771 82.4002386,14.5990369 C82.7930184,12.9061369 84.4149197,12.5821658 84.4149197,12.5821658 C84.4149197,12.5821658 85.0786982,12.2914798 85.8423565,12.2914798 C85.8423565,12.2914798 85.2245466,20.9045001 90.729721,22.8452221 C90.729721,22.8452221 85.2861591,18.5959081 87.2255093,13.2166543 C87.2255093,13.2166543 88.1114298,13.0931405 88.605774,11.8984113 C89.1022842,10.7020936 89.9651,9.83537882 89.71865,9.34416342 C89.71865,9.34416342 93.1600458,5.67314065 98.481586,8.29073385 C103.799516,10.9083511 102.912392,16.4132126 102.912392,16.4132126 C102.912392,16.4132126 101.901321,19.1963653 101.531405,19.651961 C101.531405,19.651961 103.013957,18.0428395 103.65463,16.4758119 C103.65463,16.4758119 106.047891,17.6481584 106.727554,17.6481584" id="path206" fill="#FFFFFF"></path>
                        <path d="M99.7333308,22.5109982 C100.446207,22.0690488 104.11504,18.4421175 104.11504,18.4421175 C103.866183,18.487316 102.554269,18.3780741 102.554269,18.3780741 C102.954269,17.8192775 103.381466,17.1458479 103.65463,16.4758119 C103.65463,16.4758119 106.047891,17.6481584 106.727554,17.6481584 C107.213475,17.6481584 104.404089,20.0638262 100.381947,22.3763653 L99.7333308,22.5109982" id="path208" fill="#E9E9E9"></path>
                        <path d="M88.2991554,20.1200476 C87.1590833,18.3809863 86.4317668,15.6060165 87.0750881,12.9463775 C87.0750881,12.9463775 87.2811049,12.310469 87.7215381,11.0927073 C88.0430784,10.2055112 89.8170856,8.91405513 89.8170856,8.91405513 C89.8170856,8.91405513 93.1600458,5.67314065 98.481586,8.29073385 C103.799516,10.9083511 102.912392,16.4132126 102.912392,16.4132126 C102.912392,16.4132126 102.666664,17.0842836 102.392055,17.8257517 C102.392055,17.8257517 102.910707,12.3658481 98.9742454,10.3694823 C95.0370614,8.36991555 93.1600458,9.15715982 92.2515019,9.27845946 C91.3602865,9.39663033 90.688325,10.2639949 90.0594442,10.6864017 C90.0594442,10.6864017 89.3328498,11.655114 89.0880844,12.1393739 C88.8916945,12.5314076 88.4360989,13.942262 88.4360989,13.942262 C88.4360989,13.942262 87.7715983,16.4838022 87.9513817,17.8163654 C88.1335718,19.1497468 88.2991554,20.1200476 88.2991554,20.1200476" id="path210" fill="#E9E9E9"></path>
                        <path d="M81.7759306,23.1453905 C80.7436803,22.1165097 79.9561954,20.9045001 79.9561954,20.9045001 C78.6522243,18.6306133 77.8861593,20.925174 77.8861593,20.925174 C77.6652207,20.1081102 77.7212977,18.4704929 77.7879644,17.131937 C77.8688308,15.5234653 79.4572784,14.6784834 79.4572784,14.6784834 L81.1547513,13.8339587 C81.1547513,13.8339587 80.9092639,15.7280381 80.9155214,16.5376891 C80.9155214,16.5376891 80.8038488,22.903778 84.8079401,25.2527069 C84.8079401,25.2527069 82.8043301,24.1768947 81.7759306,23.1453905" id="path212" fill="#E9E9E9"></path>
                        <path d="M86.9841133,20.7258719 C85.5287584,19.4529478 84.6199738,16.6043317 84.6199738,16.6043317 C83.3684696,15.2843077 82.1198535,17.3788203 82.1198535,17.3788203 C82.0382651,16.8163413 82.1672663,15.7787962 82.2394685,15.3230321 C82.601442,13.0693378 84.1732831,12.1035376 84.1732831,12.1035376 C84.1732831,12.1035376 85.0786982,11.7290009 85.8416344,11.7290009 C85.8416344,11.7290009 85.2373023,20.7258719 90.5569171,22.7834411 C90.5569171,22.7834411 88.4360989,21.9961727 86.9841133,20.7258719" id="path214" fill="#E9E9E9"></path>
                        <path d="M121.585075,30.5345359 C121.585075,30.5345359 125.199756,34.2445238 125.67268,35.264259 C125.67268,35.264259 126.439708,34.5176887 127.239949,34.3054143 C128.035857,34.0916959 128.195183,33.5379053 127.930683,33.3246682 C127.663775,33.1123939 126.158601,32.1862808 124.64043,32.0476526 C124.051982,31.9947044 123.393499,30.9624541 122.969913,30.7475323 C122.54031,30.5345359 121.585075,30.5345359 121.585075,30.5345359" id="path216" fill="#FFFFFF"></path>
                        <path d="M126.684473,33.1646201 C127.002885,33.4324901 126.684473,33.561732 126.043559,33.6678692 C125.199756,33.8089041 123.746086,32.8421171 123.746086,32.8421171 C124.613715,33.8055347 125.458721,34.806016 125.67268,35.264259 C125.67268,35.264259 126.439708,34.5176887 127.239949,34.3054143 C128.035857,34.0916959 128.195183,33.5379053 127.930683,33.3246682 C127.663775,33.1123939 126.158601,32.1862808 124.64043,32.0476526 C124.613715,32.0445239 124.589889,32.0413951 124.566784,32.0358596 C124.566784,32.0358596 126.364377,32.8993975 126.684473,33.1646201" id="path218" fill="#E9E9E9"></path>
                        <path d="M109.528998,37.3318884 C109.528998,37.3318884 108.549937,37.4584828 108.907819,37.929963 C109.264257,38.4028871 109.381706,38.7910941 109.587482,38.8796621 C109.796628,38.9699148 110.425749,38.8149208 110.216604,38.1622132 C110.009143,37.5109497 109.528998,37.3318884 109.528998,37.3318884" id="path220" fill="#E9E9E9"></path>
                        <path d="M108.917446,37.7167259 C108.917446,37.7167259 109.228637,36.9499389 109.799035,37.1212987 C110.369432,37.2907331 110.680864,38.0582421 109.969432,38.4298426 C109.969432,38.4298426 110.025509,37.6873637 109.684233,37.6296019 C109.346808,37.5732843 108.917446,37.7167259 108.917446,37.7167259" id="path222" fill="#231F20"></path>
                        <path d="M110.432007,38.9345357 C110.432007,38.9345357 109.630563,39.1388679 109.899636,39.5302036 C110.167506,39.9167258 110.525388,39.8794214 110.794943,40.0293612 C111.066664,40.1800231 110.623102,40.5403119 111.096026,40.5713588 C111.568228,40.5997583 111.596628,40.1586031 111.538144,39.7679894 C111.476291,39.3788197 111.449095,38.9906127 111.449095,38.9906127 L110.884474,38.7807451 L110.432007,38.9345357" id="path224" fill="#E9E9E9"></path>
                        <path d="M110.682548,38.9169665 C110.682548,38.9169665 111.367747,38.687845 111.593499,38.8868823 C111.823102,39.0873636 111.767747,39.7963889 111.113355,39.9405526 C111.113355,39.9405526 111.314558,39.4026464 111.198794,39.2298426 C111.084955,39.0587235 110.682548,38.9169665 110.682548,38.9169665" id="path226" fill="#231F20"></path>
                        <path d="M109.519372,40.4611302 C109.519372,40.4611302 108.737663,40.5403119 109.022621,40.8413949 C109.311911,41.1463287 109.400719,41.3935008 109.568469,41.4505405 C109.736459,41.5083022 110.238746,41.4093852 110.07244,40.9918161 C109.90445,40.5759316 109.519372,40.4611302 109.519372,40.4611302" id="path228" fill="#E9E9E9"></path>
                        <path d="M109.373523,40.4815874 C109.373523,40.4815874 110.055593,40.1679894 110.341032,40.5963889 C110.626953,41.0257511 109.946327,41.5915754 109.573282,41.4791807 C109.573282,41.4791807 109.999516,41.1376644 109.886159,40.8794214 C109.77232,40.624307 109.373523,40.4815874 109.373523,40.4815874" id="path230" fill="#231F20"></path>
                        <polyline id="path232" fill="#E9E9E9" points="74.0565565 45.703248 76.4442821 43.6512624 76.108542 42.8965092 72.4570379 46.2084224 74.0565565 45.703248"></polyline>
                        <path d="M79.6021641,39.6062565 C79.6021641,39.6062565 80.8252687,40.7383865 82.3715984,39.6062565 C83.926111,38.4685911 83.8611291,37.0799028 83.8611291,37.0799028 L83.0719594,37.4972313 C83.0719594,37.4972313 82.9080605,38.6351374 81.8717188,39.3528269 C81.8717188,39.3528269 80.757158,39.8043311 79.6021641,39.6062565" id="path234" fill="#E9E9E9"></path>
                        <path d="M96.6141973,28.7482544 C96.3496967,28.7061365 95.8190108,28.5381461 95.9193718,27.8743675 C95.9867605,27.4291209 98.2960264,24.2712389 98.2960264,24.2712389 L96.9754488,24.9456071 L95.0931384,27.4464494 C95.0931384,27.4464494 94.6700337,28.7181702 96.025509,29.0269547 C97.446207,29.3525865 97.6892876,28.8329716 97.6892876,28.8329716 C96.7884452,28.8755709 96.6141973,28.7482544 96.6141973,28.7482544" id="path236" fill="#E9E9E9"></path>
                        <path d="M112.532127,24.7744879 L106.184113,24.4122738 C106.184113,24.4122738 104.623583,24.1468105 104.607699,25.2543917 C104.59013,26.3626949 105.449817,27.2033688 106.070274,27.2269548 C106.070274,27.2269548 105.52587,26.6495782 105.46161,26.1282785 C105.402163,25.6069789 105.772079,25.4507816 107.381947,25.3583628 C108.987964,25.2647406 110.785557,25.2036095 110.785557,25.2036095 L112.532127,24.7744879" id="path238" fill="#E9E9E9"></path>
                        <path d="M105.67966,26.6257514 C105.67966,26.6257514 105.355473,25.7186516 105.993981,25.6512629 C106.631044,25.5807454 110.940791,25.1711185 110.940791,25.1711185 L106.047169,25.2211787 C106.047169,25.2211787 105.192296,25.1790607 105.328758,25.7978333 C105.468108,26.4182906 105.67966,26.6257514 105.67966,26.6257514" id="path240" fill="#231F20"></path>
                        <path d="M97.5410325,58.2748481 C97.5410325,58.2748481 98.8310445,64.3203353 101.730443,63.4028865 L100.232248,64.3725616 C100.232248,64.3725616 97.5682286,63.2753293 97.5410325,58.2748481" id="path242" fill="#FFFFFF"></path>
                    </g>
                </g>
            </g>
        </g>
    </g>
</svg>