<?xml version="1.0" encoding="UTF-8"?>
<svg width="200px" height="200px" viewBox="0 0 200 200" version="1.1" xmlns="http://www.w3.org/2000/svg" xmlns:xlink="http://www.w3.org/1999/xlink">
    <!-- Generator: Sketch 54.1 (76490) - https://sketchapp.com -->
    <title>bowling-green</title>
    <desc>Created with Sketch.</desc>
    <g id="bowling-green" stroke="none" stroke-width="1" fill="none" fill-rule="evenodd">
        <g id="bowling-green_BGL">
            <g id="bowling-green" transform="translate(0.000000, 7.000000)">
                <g id="g10" transform="translate(99.999998, 92.832761) scale(-1, 1) rotate(-180.000000) translate(-99.999998, -92.832761) translate(0.000000, 0.113765)" fill-rule="nonzero">
                    <g id="g12">
                        <path d="M83.4118295,134.476447 L83.4118295,150.722636 C83.4118295,154.683728 82.0409536,155.90284 77.4705328,155.90284 L49.6102377,155.90284 L49.6102377,128.992261 L78.0800891,128.992261 C82.3458455,128.992261 83.4118295,130.059155 83.4118295,134.476447" id="path14" fill="#441E03"></path>
                        <path d="M70.5804305,92.1337861 L70.5804305,86.3927168 L77.1658684,86.3913517 C82.0409536,86.3913517 83.4118295,87.6104642 83.4118295,91.5713288 L83.4118295,97.3137632 L76.2170629,97.3137632 C71.7988605,97.3137632 70.5804305,96.2470966 70.5804305,92.1337861" id="path16" fill="#441E03"></path>
                        <path d="M83.4118295,109.653012 L83.4118295,110.864844 C83.4118295,115.739474 82.3458455,116.653239 77.0134224,116.653239 L49.6102377,116.653239 L49.6095551,86.3913517 L56.8698507,86.3927168 L56.8698507,88.2273015 L56.8698507,95.7897587 C56.8698507,103.863934 62.5062555,109.653012 70.5804305,109.653012 L83.4118295,109.653012" id="path18" fill="#441E03"></path>
                        <path d="M186.679631,135.058245 C186.679631,135.058245 184.278949,139.325139 176.924228,140.648916 C166.968824,142.440497 154.825025,140.250964 154.825025,140.250964 C154.825025,140.250964 163.086685,144.829803 167.291691,148.894649 C170.923773,152.405684 170.652328,155.182476 170.652328,155.182476 C170.652328,155.182476 179.751986,152.043455 184.09078,146.820474 C188.718767,141.249826 186.679631,135.058245 186.679631,135.058245 L186.679631,135.058245 Z M145.667118,71.9629106 C145.667118,71.9629106 137.494422,74.2348104 127.253239,81.3371993 L127.280998,117.677585 L127.280998,117.691465 C128.755173,118.492602 130.348575,119.31217 132.064843,120.116948 C148.190668,127.682591 161.99135,129.101703 161.99135,129.101703 L145.667118,71.9629106 Z M120.261886,125.901703 C118.963592,123.53424 117.716721,120.561999 116.641635,117.691465 L104.45415,117.691465 C104.032079,119.484866 103.393399,121.194536 102.474173,122.809781 C104.38407,126.015924 105.16109,129.627983 105.16109,133.562682 L105.16109,134.33606 C115.855515,144.903523 134.911259,150.724001 144.528552,151.829348 C136.97201,146.896697 126.919451,138.046185 120.261886,125.901703 Z M119.159041,15.4636856 L70.8853225,15.4636856 C62.2015912,15.4636856 56.8698507,21.100318 56.8703057,30.2398172 L56.8698507,74.0527854 L24.2170642,74.0527854 C24.2170642,74.0527854 25.6875989,78.7085305 29.641865,82.6395884 C31.2805453,84.2689399 35.8994303,86.3913517 35.8994303,86.3913517 L35.8994303,155.90284 C35.8994303,155.90284 31.4857785,157.872123 29.2354941,159.903523 C26.3383384,162.518995 23.6982929,168.241862 23.6982929,168.241862 L82.8022732,168.241862 C91.4853219,168.241862 97.1219543,163.21433 97.1219543,155.597948 L97.1219543,133.562682 C97.1219543,128.535833 95.446414,125.488507 91.4853219,122.899201 C95.5986324,120.157449 97.1219543,116.957904 97.1219543,110.864844 L97.1219543,109.653012 L118.609326,109.653012 L118.513763,74.7645033 C118.513763,74.7645033 110.754036,81.5476658 107.894878,87.2712151 C106.058928,90.9503959 104.686459,97.3137632 104.686459,97.3137632 L97.1219543,97.3137632 L97.1219543,89.1342412 C97.1219543,83.4978364 96.0559703,80.4505099 93.1617724,77.5565396 C90.2668919,74.9672336 87.6769034,74.0527854 82.0409536,74.0527854 L70.5804305,74.0527854 L70.5804305,33.591353 C70.5804305,29.1745158 71.4946512,27.8034123 74.693741,27.8034123 L105.448462,27.8034123 L105.448462,53.1442535 C105.448462,53.1442535 95.8043207,53.9351522 90.1647304,56.2040942 C83.8352653,58.7510793 75.6327626,65.9412953 75.6327626,65.9412953 L119.159041,65.9412953 L119.159041,15.4636856 Z M160.022522,153.217061 L154.626162,148.015468 L145.069166,151.996811 C145.069166,151.996811 149.331964,152.862795 152.096014,153.110121 C155.175195,153.385207 160.022522,153.217061 160.022522,153.217061 Z M126.15267,166.211827 C139.917175,172.520815 152.020929,172.499199 162.410007,170.123773 L170.354034,155.182476 C167.766549,156.57565 159.627072,161.118312 141.708756,162.322863 C128.139701,163.234353 119.536516,161.614785 119.536516,161.614785 C119.536516,161.614785 120.661658,163.695104 126.15267,166.211827 Z M175.331509,160.159268 L166.769962,176.285775 C166.769962,176.285775 148.852328,182.258699 127.151988,174.295104 C115.460975,170.004774 110.462113,163.032988 105.16109,153.541293 L105.16109,155.597948 C105.16109,168.602271 94.9142183,176.280314 82.8022732,176.280314 L11.1248689,176.280314 C11.1248689,176.280314 15.7594763,165.12218 16.8884182,163.181566 C17.979954,161.303295 21.4214557,156.128324 23.8493737,153.936742 C25.1089869,152.799314 26.5881677,151.811828 27.8634805,151.048688 C27.8693963,146.166322 27.648691,93.5162661 27.7048912,91.7030694 C24.8496012,90.0609761 20.6612737,86.0156975 17.4296014,81.3251402 C13.7493739,75.9840709 10.9338564,66.0136502 10.9338564,66.0136502 L48.8313981,66.0136502 L48.8313981,30.2398172 C48.8313981,17.099681 57.3360623,7.42525579 70.8853225,7.42525579 L127.194991,7.42525579 L127.240952,67.1458459 C128.222295,66.6589289 129.126504,66.2664375 129.938563,65.9895319 C149.846868,59.2209314 161.99135,66.9856639 161.99135,66.9856639 C161.99135,66.9856639 158.674626,67.7039801 156.616833,68.3795205 C154.794308,68.9770176 152.037766,70.1711018 152.037766,70.1711018 L168.913534,130.207733 C171.946298,130.893512 175.585434,130.938791 179.711486,130.495105 C186.870075,129.725139 189.665524,126.314673 189.665524,126.314673 C189.665524,126.314673 193.789756,132.35085 192.651645,141.04664 C191.5959,149.107619 188.072805,156.57565 175.331509,160.159268 L175.331509,160.159268 Z" id="path20" fill="#441E03"></path>
                        <polyline id="path22" fill="#441E03" points="36.7164951 61.3961304 37.6270753 61.3961304 37.6270753 58.0907835 38.7283267 58.0907835 38.7283267 61.3961304 39.6391344 61.3961304 39.6391344 62.3299188 36.7164951 62.3299188 36.7164951 61.3961304"></polyline>
                        <polyline id="path24" fill="#441E03" points="43.3615461 62.3299188 42.451421 60.0634797 41.5911252 62.3299188 40.5062561 62.3299188 39.7865747 58.0907835 40.8828204 58.0907835 41.2373141 60.5306014 41.2482356 60.5306014 42.2204768 58.0907835 42.6596121 58.0907835 43.676677 60.5306014 43.6875985 60.5306014 43.9972685 58.0907835 45.098975 58.0907835 44.4580194 62.3299188 43.3615461 62.3299188"></polyline>
                        <path d="M189.665524,126.314673 C189.665524,126.314673 186.870075,129.725139 179.711486,130.495105 C175.585434,130.938791 171.946298,130.893512 168.913534,130.207733 L152.037766,70.1711018 C152.037766,70.1711018 154.794308,68.9770176 156.616833,68.3795205 C158.674626,67.7039801 161.99135,66.9856639 161.99135,66.9856639 C161.99135,66.9856639 149.846868,59.2209314 129.938563,65.9895319 C129.126504,66.2664375 128.222295,66.6589289 127.240952,67.1458459 L127.194991,7.42525579 L70.8853225,7.42525579 C57.3360623,7.42525579 48.8313981,17.099681 48.8313981,30.2398172 L48.8313981,66.0136502 L10.9338564,66.0136502 C10.9338564,66.0136502 13.7493739,75.9840709 17.4296014,81.3251402 C20.6612737,86.0156975 24.8496012,90.0609761 27.7048912,91.7030694 C27.648691,93.5162661 27.8693963,146.166322 27.8634805,151.048688 C26.5881677,151.811828 25.1089869,152.799314 23.8493737,153.936742 C21.4214557,156.128324 17.979954,161.303295 16.8884182,163.181566 C15.7594763,165.12218 11.1248689,176.280314 11.1248689,176.280314 L82.8022732,176.280314 C94.9142183,176.280314 105.16109,168.602271 105.16109,155.597948 L105.16109,153.541293 C110.462113,163.032988 115.460975,170.004774 127.151988,174.295104 C148.852328,182.258699 166.769962,176.285775 166.769962,176.285775 L175.331509,160.159268 C188.072805,156.57565 191.5959,149.107619 192.651645,141.04664 C193.789756,132.35085 189.665524,126.314673 189.665524,126.314673 Z M43.9972685,58.0907835 L43.6875985,60.5306014 L43.676677,60.5306014 L42.6596121,58.0907835 L42.2204768,58.0907835 L41.2482356,60.5306014 L41.2373141,60.5306014 L40.8828204,58.0907835 L39.7865747,58.0907835 L40.5062561,62.3299188 L41.5911252,62.3299188 L42.451421,60.0634797 L43.3615461,62.3299188 L44.4580194,62.3299188 L45.098975,58.0907835 L43.9972685,58.0907835 Z M39.6391344,61.3961304 L38.7283267,61.3961304 L38.7283267,58.0907835 L37.6270753,58.0907835 L37.6270753,61.3961304 L36.7164951,61.3961304 L36.7164951,62.3299188 L39.6391344,62.3299188 L39.6391344,61.3961304 Z M195.810234,141.460292 C194.661656,150.229803 190.668482,158.675309 177.519449,162.830258 L168.986344,178.904205 L167.77747,179.307618 C167.494421,179.401816 147.57201,185.70375 125.811601,177.201361 C117.834582,174.084637 113.382932,171.494649 107.693058,163.437539 C104.286687,174.073716 93.9544914,179.990894 82.8022732,179.990894 L5.56634798,179.990894 C5.56634798,179.990894 8.86687122,172.045502 10.1730373,168.997265 C11.4182477,166.092146 12.9723091,162.535832 13.6810235,161.31672 C14.7978836,159.396128 18.478202,153.786117 21.3627981,151.182931 C22.2631394,150.37019 23.2300335,149.643227 24.1503976,149.016834 C24.1287821,139.284411 23.9817969,102.800908 23.98612,93.6835016 C20.8663021,91.3786098 17.2355855,87.583388 14.3741066,83.4307146 C12.2557676,80.3556294 10.5020703,76.1583599 9.32052309,72.9485761 C8.11103506,69.663707 6.03196799,62.3030701 6.03196799,62.3030701 L33.0209321,62.3030701 L33.0209321,54.4045493 L45.120818,54.4045493 L45.120818,30.2398172 C45.120818,15.2714444 55.0725811,3.71533552 70.8853225,3.71533552 L130.901931,3.71533552 L130.947209,62.3189973 C155.20796,54.9831613 169.159723,68.1799755 169.159723,68.1799755 C169.159723,68.1799755 163.837766,69.2805443 161.593625,69.9715568 C160.912624,70.1817957 156.783841,71.8964715 156.019336,72.1624555 L171.443227,127.414104 C173.673943,127.687369 176.318312,127.656425 179.370416,127.328097 C182.480314,126.993626 184.531736,126.100566 185.743568,125.379064 C186.354944,125.015014 186.767913,124.685549 187.002498,124.47622 C187.154944,124.341976 188.545615,122.753581 188.611599,122.677813 L189.96086,121.132193 C189.96086,121.132193 192.665069,125.061658 193.111486,125.91126 C193.535149,126.717403 194.088505,127.89647 194.600223,129.38771 C195.607731,132.334013 196.457788,136.51854 195.810234,141.460292 L195.810234,141.460292 Z" id="path26" fill="#F36532"></path>
                        <path d="M141.708756,162.322863 C159.627072,161.118312 167.766549,156.57565 170.354034,155.182476 L162.410007,170.123773 C152.020929,172.499199 139.917175,172.520815 126.15267,166.211827 C120.661658,163.695104 119.536516,161.614785 119.536516,161.614785 C119.536516,161.614785 128.139701,163.234353 141.708756,162.322863" id="path28" fill="#F36532"></path>
                        <path d="M144.528552,151.829348 C134.911259,150.724001 115.855515,144.903523 105.16109,134.33606 L105.16109,133.562682 C105.16109,129.627983 104.38407,126.015924 102.474173,122.809781 C103.393399,121.194536 104.032079,119.484866 104.45415,117.691465 L116.641635,117.691465 C117.716721,120.561999 118.963592,123.53424 120.261886,125.901703 C126.919451,138.046185 136.97201,146.896697 144.528552,151.829348" id="path30" fill="#F36532"></path>
                        <path d="M127.280998,117.691465 L127.280998,117.677585 L127.253239,81.3371993 C137.494422,74.2348104 145.667118,71.9629106 145.667118,71.9629106 L161.99135,129.101703 C161.99135,129.101703 148.190668,127.682591 132.064843,120.116948 C130.348575,119.31217 128.755173,118.492602 127.280998,117.691465" id="path32" fill="#F36532"></path>
                        <path d="M170.652328,155.182476 C170.652328,155.182476 170.923773,152.405684 167.291691,148.894649 C163.086685,144.829803 154.825025,140.250964 154.825025,140.250964 C154.825025,140.250964 166.968824,142.440497 176.924228,140.648916 C184.278949,139.325139 186.679631,135.058245 186.679631,135.058245 C186.679631,135.058245 188.718767,141.249826 184.09078,146.820474 C179.751986,152.043455 170.652328,155.182476 170.652328,155.182476" id="path34" fill="#E2B97A"></path>
                        <path d="M193.111486,125.91126 C192.665069,125.061658 189.96086,121.132193 189.96086,121.132193 L188.611599,122.677813 C188.545615,122.753581 187.154944,124.341976 187.002498,124.47622 C186.767913,124.685549 186.354944,125.015014 185.743568,125.379064 C184.531736,126.100566 182.480314,126.993626 179.370416,127.328097 C176.318312,127.656425 173.673943,127.687369 171.443227,127.414104 L156.019336,72.1624555 C156.783841,71.8964715 160.912624,70.1817957 161.593625,69.9715568 C163.837766,69.2805443 169.159723,68.1799755 169.159723,68.1799755 C169.159723,68.1799755 155.20796,54.9831613 130.947209,62.3189973 L130.901931,3.71533552 L70.8853225,3.71533552 C55.0725811,3.71533552 45.120818,15.2714444 45.120818,30.2398172 L45.120818,54.4045493 L33.0209321,54.4045493 L33.0209321,62.3030701 L6.03196799,62.3030701 C6.03196799,62.3030701 8.11103506,69.663707 9.32052309,72.9485761 C10.5020703,76.1583599 12.2557676,80.3556294 14.3741066,83.4307146 C17.2355855,87.583388 20.8663021,91.3786098 23.98612,93.6835016 C23.9817969,102.800908 24.1287821,139.284411 24.1503976,149.016834 C23.2300335,149.643227 22.2631394,150.37019 21.3627981,151.182931 C18.478202,153.786117 14.7978836,159.396128 13.6810235,161.31672 C12.9723091,162.535832 11.4182477,166.092146 10.1730373,168.997265 C8.86687122,172.045502 5.56634798,179.990894 5.56634798,179.990894 L82.8022732,179.990894 C93.9544914,179.990894 104.286687,174.073716 107.693058,163.437539 C113.382932,171.494649 117.834582,174.084637 125.811601,177.201361 C147.57201,185.70375 167.494421,179.401816 167.77747,179.307618 L168.986344,178.904205 L177.519449,162.830258 C190.668482,158.675309 194.661656,150.229803 195.810234,141.460292 C196.457788,136.51854 195.607731,132.334013 194.600223,129.38771 C194.088505,127.89647 193.535149,126.717403 193.111486,125.91126 L193.111486,125.91126 Z M180.107163,165.881225 L171.571327,181.959267 L168.952897,182.832305 C151.855514,188.530826 121.426618,184.784523 108.514218,170.461202 C103.099429,179.15813 93.0600659,183.706253 82.8022732,183.706253 L8.88794062e-05,183.706253 C4.71133094,172.364273 10.3037085,154.963591 20.4303522,147.126504 C20.3994307,135.963364 20.2814784,106.168598 20.2718766,95.4855494 C13.1725594,89.5660956 8.99210444,82.8102368 5.83369724,74.2329902 C4.59276439,70.863707 1.11925822,58.5877118 1.11925822,58.5877118 L29.3058013,58.5877118 L29.3058013,50.689191 L41.4054597,50.689191 L41.4054597,30.2398172 C41.4054597,13.4470986 52.7999987,0 70.8853225,0 L134.614786,0 L134.65961,57.5294639 C146.224342,55.0737188 158.741748,56.5401579 168.659154,63.1394751 C170.676901,64.4825922 176.815468,70.4002258 176.815468,70.4002258 C171.381566,71.5174044 165.648232,72.2971541 160.494194,74.3745146 L174.314444,123.880543 C177.719449,123.927869 182.643681,123.817062 185.057788,121.091237 L185.81251,120.235492 L190.306707,115.082591 C190.306707,115.082591 193.707617,120.023888 194.451417,121.12969 C205.095558,136.957676 199.826161,158.871896 180.107163,165.881225 L180.107163,165.881225 Z" id="path36" fill="#FFFFFF"></path>
                        <path d="M145.069166,151.996811 L154.626162,148.015468 L160.022522,153.217061 C160.022522,153.217061 155.175195,153.385207 152.096014,153.110121 C149.331964,152.862795 145.069166,151.996811 145.069166,151.996811" id="path38" fill="#FFFFFF"></path>
                        <path d="M56.8698507,95.7897587 L56.8698507,86.3927168 L49.6095551,86.3913517 L49.6102377,116.653239 L77.0134224,116.653239 C82.3458455,116.653239 83.4118295,115.739474 83.4118295,110.864844 L83.4118295,109.653012 L70.5804305,109.653012 C62.5062555,109.653012 56.8698507,103.863934 56.8698507,95.7897587 Z M49.6102377,155.90284 L77.4705328,155.90284 C82.0409536,155.90284 83.4118295,154.683728 83.4118295,150.722636 L83.4118295,134.476447 C83.4118295,130.059155 82.3458455,128.992261 78.0800891,128.992261 L49.6102377,128.992261 L49.6102377,155.90284 Z M83.4118295,91.5713288 C83.4118295,87.6104642 82.0409536,86.3913517 77.1658684,86.3913517 L70.5804305,86.3927168 L70.5804305,88.2273015 L70.5804305,92.1337861 C70.5804305,96.2470966 71.7988605,97.3137632 76.2170629,97.3137632 L83.4118295,97.3137632 L83.4118295,91.5713288 Z M90.1647304,56.2040942 C95.8043207,53.9351522 105.448462,53.1442535 105.448462,53.1442535 L105.448462,27.8034123 L74.693741,27.8034123 C71.4946512,27.8034123 70.5804305,29.1745158 70.5804305,33.591353 L70.5804305,74.0527854 L82.0409536,74.0527854 C87.6769034,74.0527854 90.2668919,74.9672336 93.1617724,77.5565396 C96.0559703,80.4505099 97.1219543,83.4978364 97.1219543,89.1342412 L97.1219543,97.3137632 L104.686459,97.3137632 C104.686459,97.3137632 106.058928,90.9503959 107.894878,87.2712151 C110.754036,81.5476658 118.513763,74.7645033 118.513763,74.7645033 L118.609326,109.653012 L97.1219543,109.653012 L97.1219543,110.864844 C97.1219543,116.957904 95.5986324,120.157449 91.4853219,122.899201 C95.446414,125.488507 97.1219543,128.535833 97.1219543,133.562682 L97.1219543,155.597948 C97.1219543,163.21433 91.4853219,168.241862 82.8022732,168.241862 L23.6982929,168.241862 C23.6982929,168.241862 26.3383384,162.518995 29.2354941,159.903523 C31.4857785,157.872123 35.8994303,155.90284 35.8994303,155.90284 L35.8994303,86.3913517 C35.8994303,86.3913517 31.2805453,84.2689399 29.641865,82.6395884 C25.6875989,78.7085305 24.2170642,74.0527854 24.2170642,74.0527854 L56.8698507,74.0527854 L56.8703057,30.2398172 C56.8698507,21.100318 62.2015912,15.4636856 70.8853225,15.4636856 L119.159041,15.4636856 L119.159041,65.9412953 L75.6327626,65.9412953 C75.6327626,65.9412953 83.8352653,58.7510793 90.1647304,56.2040942 L90.1647304,56.2040942 Z" id="path40" fill="#FFFFFF"></path>
                    </g>
                </g>
            </g>
        </g>
    </g>
</svg>