<?xml version="1.0" encoding="UTF-8"?>
<svg width="200px" height="200px" viewBox="0 0 200 200" version="1.1" xmlns="http://www.w3.org/2000/svg" xmlns:xlink="http://www.w3.org/1999/xlink">
    <!-- Generator: Sketch 54.1 (76490) - https://sketchapp.com -->
    <title>california</title>
    <desc>Created with Sketch.</desc>
    <g id="california" stroke="none" stroke-width="1" fill="none" fill-rule="evenodd">
        <g id="california_BGL" fill="#15213B">
            <g id="california" transform="translate(-1.000000, 20.000000)">
                <g fill-rule="nonzero" id="g10">
                    <g transform="translate(100.369041, 80.071008) scale(-1, 1) rotate(-180.000000) translate(-100.369041, -80.071008) translate(0.000000, 0.523204)">
                        <g id="g12">
                            <path d="M98.5405089,52.7254587 C97.7346736,50.7963443 94.357896,45.3337059 90.4997742,45.3337059 C85.839661,45.3337059 85.6773621,47.9039008 85.6773621,51.1154965 C85.6773621,60.2789764 96.4487753,81.9819662 106.094881,81.9819662 C108.986897,81.9819662 109.953216,80.5317404 109.953216,79.2491522 C109.953216,78.7636436 104.003147,66.5520414 98.5405089,52.7254587 Z M189.522375,129.880742 C189.840566,129.880742 190.007136,129.237953 190.007136,128.760666 C190.007136,124.256872 175.216583,96.2907475 160.428166,76.1931284 C165.408179,106.252909 186.950151,129.880742 189.522375,129.880742 Z M181.001684,33.5959737 C171.355578,36.4905528 160.584058,41.4739824 159.623078,60.9242212 C177.142815,81.6579024 199.971433,120.078744 199.971433,135.50995 C199.971433,139.527915 199.16848,144.029573 193.380176,144.029573 C179.717174,144.029573 138.886194,106.413072 138.886194,63.4968719 C138.886194,59.63544 139.367752,55.9412186 140.172839,53.2050945 C131.812312,45.4905592 125.54245,41.9565013 119.275792,41.9565013 C117.187261,41.9565013 116.705704,42.7594536 116.705704,46.4557037 C116.705704,51.7581787 132.616332,84.7101889 132.616332,86.803097 C132.616332,89.8591207 131.331822,90.6620731 128.919762,90.6620731 L116.22201,90.6620731 C115.255691,90.6620731 114.29044,89.8591207 113.489623,87.9301132 C113.004862,88.5690582 110.431571,90.6620731 106.255471,90.6620731 C92.4284614,90.6620731 75.0715578,80.0521045 65.1051256,59.3162878 C62.8524813,54.4927012 58.6736056,43.0797803 47.2594034,43.0797803 C37.4569785,43.0797803 34.2386559,53.5283042 34.2386559,65.5844412 C34.2386559,98.8575255 73.621759,149.014925 95.1645855,149.014925 C98.699818,149.014925 100.304762,147.243518 100.304762,143.866207 C100.304762,137.600616 94.6803583,133.743882 90.4997742,133.260189 C84.3910367,132.615264 79.4101697,129.880742 79.4101697,124.580402 C79.4101697,120.078744 82.9454022,118.147174 87.6076509,118.147174 C94.357896,118.147174 109.953216,132.935591 109.953216,146.436295 C109.953216,154.473292 105.291181,158.81799 97.0940201,158.81799 C63.1735554,158.81799 4.82242275,110.594937 4.82242275,64.6188696 C4.82242275,41.9565013 17.2037874,30.8623054 39.5428394,30.8623054 C50.3129713,30.8623054 60.7623494,39.0619222 63.8171986,41.9565013 C64.4620163,38.581005 68.4807286,30.8623054 81.8189199,30.8623054 C90.6625002,30.8623054 96.6085116,36.6548804 98.5405089,39.3831031 C99.1832978,36.4905528 101.110597,30.8623054 110.9174,30.8623054 C122.489736,30.8623054 132.937726,35.040754 143.543744,44.5266961 C148.372136,35.8477638 156.72946,30.7034234 165.250151,28.9348995 C167.984674,28.4535552 171.522148,27.8108731 171.522148,27.0046107 C171.522148,25.7220225 166.214334,22.985578 155.281583,22.985578 C131.651081,22.985578 93.3931787,26.5254019 60.6014386,26.5254019 C14.9490076,26.5254019 0,5.79049282 0,1.92738455 C0,0.320326725 1.12531846,0.00125128161 2.41162246,0.00125128161 C4.98258611,0.00125128161 13.986319,6.90829429 49.0292086,6.90829429 C87.6076509,6.90829429 113.970113,4.01909671 134.867161,4.01909671 C176.503229,4.01909671 189.04402,25.2373682 189.04402,27.8108731 C189.04402,31.8287312 185.505478,32.3105026 181.001684,33.5959737 L181.001684,33.5959737 Z" id="path14"></path>
                            <path d="M184.721745,7.44634709 C182.981303,7.44634709 181.590017,8.85486641 181.590017,10.5791211 C181.590017,12.3338602 182.981303,13.7077416 184.721745,13.7077416 C186.462187,13.7077416 187.85454,12.3338602 187.85454,10.5791211 C187.85454,8.85486641 186.462187,7.44634709 184.721745,7.44634709 Z M184.721745,14.2674591 C182.686602,14.2674591 181.033717,12.6295218 181.033717,10.5791211 C181.033717,8.54412813 182.686602,6.89119952 184.721745,6.89119952 C186.776107,6.89119952 188.409773,8.54412813 188.409773,10.5791211 C188.409773,12.6295218 186.776107,14.2674591 184.721745,14.2674591 L184.721745,14.2674591 Z" id="path16"></path>
                            <path d="M183.904912,10.6667091 L183.904912,12.1594957 L185.035665,12.1594957 C185.398702,12.1594957 185.800178,11.8650087 185.800178,11.3961571 C185.800178,10.9602992 185.398702,10.6667091 185.035665,10.6667091 L183.904912,10.6667091 Z M186.408799,11.3961571 C186.408799,12.1787153 185.74679,12.6829096 185.035665,12.6829096 L183.314443,12.6829096 L183.314443,8.45362515 L183.904912,8.45362515 L183.904912,10.1244921 L184.634189,10.1244921 L185.73291,8.45362515 L186.462187,8.45362515 L185.331433,10.1449289 C185.572746,10.1449289 186.408799,10.4544179 186.408799,11.3961571 L186.408799,11.3961571 Z" id="path18"></path>
                        </g>
                    </g>
                </g>
            </g>
        </g>
    </g>
</svg>