<?xml version="1.0" encoding="UTF-8"?>
<svg width="200px" height="200px" viewBox="0 0 200 200" version="1.1" xmlns="http://www.w3.org/2000/svg" xmlns:xlink="http://www.w3.org/1999/xlink">
    <title>chattanooga_BGD</title>
    <defs>
        <polygon id="path-1" points="0 0 200 0 200 174.396844 0 174.396844"></polygon>
    </defs>
    <g id="chattanooga_BGD" stroke="none" stroke-width="1" fill="none" fill-rule="evenodd">
        <g id="chattanooga-copy" transform="translate(0.000000, 13.000000)">
            <g id="Group-3">
                <mask id="mask-2" fill="white">
                    <use xlink:href="#path-1"></use>
                </mask>
                <g id="Clip-2"></g>
                <path d="M100.55676,76.9678014 L92.0068005,113.960521 L173.945207,113.960521 L160.069043,174.396844 L60.1975264,174.396844 C31.9468418,174.396844 16.0409069,169.527468 7.01075883,158.11714 C0.197266816,149.504886 -1.66119424,138.190596 1.48469235,124.485744 L20.2068706,42.9418712 C23.8874541,26.9139424 33.5042114,14.8105849 48.0214917,7.94518059 C59.4785407,2.52553437 74.185301,0 94.3091119,0 L200,0 L182.326451,76.9678014 L100.55676,76.9678014" id="Fill-1" fill="#FFFFFE" mask="url(#mask-2)"></path>
            </g>
            <path d="M97.1668851,51.4477048 L115.608737,51.4477048 L111.816542,67.9636095 L175.20408,67.9636095 L188.740218,9.00419192 L94.3454505,9.00419192 C75.5817424,9.00419192 62.079348,11.2571866 51.8552165,16.0954148 C39.7259029,21.8317262 32.0117322,31.5574994 28.9255448,45.0001947 L10.2033665,126.546663 C7.66744968,137.588413 8.91074974,146.08646 14.0033483,152.523588 C21.1412924,161.543353 34.9447783,165.392652 60.1637834,165.392652 L152.944077,165.392652 L162.685424,122.964713 L80.7470183,122.964713 L97.1668851,51.4477048" id="Fill-4" fill="#00416D"></path>
            <path d="M180.945583,15.2388616 L170.269814,61.7289398 L119.611177,61.7289398 L123.403372,45.2156308 L92.2352147,45.2156308 L72.9523834,129.199382 L154.890789,129.199382 L148.012407,159.157982 L60.1404228,159.157982 C27.1942689,159.157982 10.5304141,152.835062 16.2407693,127.971656 L34.9629476,46.4251879 C40.5305439,22.1769431 61.7133661,15.2388616 94.3688111,15.2388616 L180.945583,15.2388616" id="Fill-5" fill="#E7AE27"></path>
        </g>
    </g>
</svg>