<?xml version="1.0" encoding="UTF-8"?>
<svg width="200px" height="200px" viewBox="0 0 200 200" version="1.1" xmlns="http://www.w3.org/2000/svg" xmlns:xlink="http://www.w3.org/1999/xlink">
    <!-- Generator: Sketch 54.1 (76490) - https://sketchapp.com -->
    <title>chicago-st</title>
    <desc>Created with Sketch.</desc>
    <g id="chicago-st" stroke="none" stroke-width="1" fill="none" fill-rule="evenodd">
        <g id="chicago-st_BGL" transform="translate(0.000000, 0.000000)">
            <g id="chicago-st" transform="translate(0.000000, 3.000000)">
                <g id="g10" transform="translate(99.973267, 97.099174) scale(-1, 1) rotate(-180.000000) translate(-99.973267, -97.099174) translate(0.000000, 0.119759)" fill-rule="nonzero">
                    <g id="g12">
                        <path d="M0,134.788556 C0,134.788556 23.0047575,162.223359 70.3764751,169.20994 C70.3764751,169.20994 75.8291347,183.183102 80.2598216,186.931832 C80.2598216,186.931832 89.1211953,181.138087 96.6186557,179.263722 C96.6186557,179.263722 98.1519355,189.658162 105.479388,193.918413 C105.479388,193.918413 125.417372,178.751987 163.246401,175.173906 C163.246401,175.173906 174.321942,162.734666 199.882593,153.532848 C199.882593,153.532848 199.201706,134.447684 189.658803,120.474736 C186.591602,117.407321 183.524401,116.385135 183.524401,116.385135 C183.524401,116.385135 178.411757,106.160703 168.017317,103.434373 C168.017317,103.434373 174.492805,112.125097 166.484038,116.214485 C158.475056,120.304087 151.829347,123.201066 145.183423,113.487942 C138.5375,103.775031 137.685749,92.3573353 143.990373,90.1425265 C150.295211,87.9277177 157.62245,94.7436491 158.8155,98.6630288 C158.8155,98.6630288 162.224428,92.1871134 158.986149,84.0081241 C158.304834,82.3044085 157.45287,80.770701 161.372036,79.577651 C161.372036,79.577651 160.912052,74.8229866 159.525257,71.8952134 C158.138462,68.9672263 143.990373,47.5421533 143.990373,47.5421533 C143.990373,47.5421533 125.245867,73.1028049 109.739425,67.1386244 C94.2329835,61.17423 79.2378489,43.4523379 69.6953738,29.8202612 C60.1528988,16.1881846 47.372573,0 47.372573,0 C47.372573,0 62.7090067,50.6095684 45.4979941,85.2016017 C28.2871952,119.793421 0,134.788556 0,134.788556" id="path14" fill="#100F0D"></path>
                        <path d="M11.7580537,135.98182 C11.7580537,135.98182 29.8206889,157.111784 68.6727596,163.587058 C68.6727596,163.587058 64.2420727,152.681525 91.336218,151.147818 C91.336218,151.147818 63.9012013,154.554821 81.6233072,178.923278 C81.6233072,178.923278 98.4938762,169.892324 117.237741,168.529266 C135.981606,167.166208 151.999569,169.892538 155.066556,169.722102 C158.133971,169.551666 163.415981,165.12098 164.268587,164.609886 C165.120766,164.099007 188.807266,152.341295 196.304726,150.97781 C196.304726,150.97781 181.137873,150.125631 180.797643,149.273666 C180.457199,148.421702 179.0935,145.183851 181.308736,143.479922 C183.524401,141.775992 185.398766,145.184065 185.398766,145.184065 C185.398766,145.184065 189.147496,147.229293 190.851639,144.161878 C192.555996,141.094249 197.327127,120.816249 176.538247,119.794063 C172.107133,119.794063 157.452442,125.0765 152.34044,125.417158 C147.228652,125.758029 142.116864,125.758243 136.152469,115.704461 C130.188075,105.650679 125.076287,88.4396663 141.264257,79.0678408 C147.569095,77.02304 154.747497,74.6688033 154.747497,74.6688033 L143.820151,56.7452539 C143.820151,56.7452539 142.798393,70.7171327 126.609566,75.6593405 C110.420954,80.6017622 78.7265417,88.7807516 72.0806184,97.9825691 C65.4349088,107.184387 69.865168,117.408391 78.3854565,126.269337 C78.3854565,126.269337 60.3229068,116.215127 62.0268362,103.946536 C63.7307656,91.6777309 71.3990894,87.7587789 72.4214898,86.2248575 C73.4436763,84.6909361 71.3984478,75.4891187 68.6723319,71.7403885 C65.9462159,67.9916583 60.322693,59.9826769 60.322693,59.9826769 C60.322693,59.9826769 52.9952406,111.954448 11.7580537,135.98182" id="path16" fill="#1F6836"></path>
                        <path d="M102.7537,177.901519 C102.7537,177.901519 102.412187,184.206357 105.650251,185.739851 C108.888316,187.273559 112.295961,183.354179 117.748834,181.139156 C123.201922,178.92392 141.434479,173.470618 146.035816,172.959525 C146.035816,172.959525 120.475806,170.574495 102.7537,177.901519" id="path18" fill="#1F6836"></path>
                        <path d="M149.763375,84.0421257 C149.763375,84.0421257 156.190106,89.2304709 157.575831,93.033732 C157.575831,93.033732 158.312533,85.6930211 153.212079,81.5657825 C153.212079,81.5657825 150.471207,82.2731869 149.763375,84.0421257" id="path20" fill="#FFFFFF"></path>
                        <path d="M172.860514,115.305851 C172.860514,115.305851 175.339424,110.917078 172.39604,107.612507 C172.39604,107.612507 178.436777,109.728947 180.244636,115.56375 C180.244636,115.56375 174.822343,115.409353 172.860514,115.305851" id="path22" fill="#FFFFFF"></path>
                        <path d="M85.2894927,138.540921 L163.889437,136.708256 C164.025016,137.930603 164.388555,139.071475 164.929373,140.082327 L85.2894927,138.540921" id="path24" fill="#231F20"></path>
                        <path d="M102.637581,134.616409 L164.447149,132.205931 C164.067358,133.198393 163.854153,134.287086 163.831699,135.42924 L102.637581,134.616409" id="path26" fill="#231F20"></path>
                        <path d="M164.748245,131.504942 L115.545787,130.692325 L167.103123,128.530978 C166.12948,129.305744 165.318146,130.320446 164.748245,131.504942" id="path28" fill="#231F20"></path>
                        <path d="M134.182942,162.706652 C134.182942,162.706652 146.626888,162.242177 152.822878,163.17134 C152.822878,163.17134 158.141669,154.600157 174.354874,151.450411 C174.354874,151.450411 168.726219,150.779146 166.816141,150.57257 C166.816141,150.57257 162.942525,147.577863 158.657467,148.455703 C154.372196,149.33333 149.776206,153.515741 149.053618,158.007801 C149.053618,158.007801 138.468855,160.589785 134.182942,162.706652" id="path30" fill="#231F20"></path>
                        <path d="M153.90708,157.956051 C153.90708,157.956051 152.30708,152.844262 156.282701,150.933971 C160.258323,149.023466 163.821434,151.605235 163.821434,151.605235 L160.929373,153.412239 C160.929373,153.412239 159.233142,151.778023 157.831378,152.328037 C156.26538,152.942846 155.250464,154.187219 155.714939,156.768774 L153.90708,157.956051" id="path32" fill="#FFFFFF"></path>
                        <path d="M156.901787,155.374495 C156.901787,155.374495 157.056612,154.289865 157.418226,153.980215 C157.780055,153.670779 158.916222,153.515741 159.122584,153.928892 L156.901787,155.374495" id="path34" fill="#FFFFFF"></path>
                    </g>
                </g>
            </g>
        </g>
    </g>
</svg>