<?xml version="1.0" encoding="UTF-8"?>
<svg width="200px" height="200px" viewBox="0 0 200 200" version="1.1" xmlns="http://www.w3.org/2000/svg" xmlns:xlink="http://www.w3.org/1999/xlink">
    <!-- Generator: Sketch 54.1 (76490) - https://sketchapp.com -->
    <title>dayton</title>
    <desc>Created with Sketch.</desc>
    <g id="dayton" stroke="none" stroke-width="1" fill="none" fill-rule="evenodd">
        <g id="dayton_BGL" fill="#DD1A35">
            <g id="dayton" transform="translate(0.000000, 37.000000)">
                <g id="g10" transform="translate(99.999998, 62.754211) scale(-1, 1) rotate(-180.000000) translate(-99.999998, -62.754211) translate(0.000000, 0.127950)" fill-rule="nonzero">
                    <g id="g12">
                        <polyline id="path14" points="0 125.128616 20.6895618 97.2420851 64.9047122 97.2420851 83.9989878 125.128616 0 125.128616"></polyline>
                        <polyline id="path16" points="26.0270701 90.062624 43.4400663 66.5713788 85.1781123 66.5713788 85.1781123 90.062624 26.0270701 90.062624"></polyline>
                        <polygon id="path18" points="48.7370358 59.4922544 67.2855202 34.4205379 84.1720518 59.4922544"></polygon>
                        <path d="M161.27508,59.4922544 C161.219188,36.9430967 160.479121,32.0952854 158.596966,30.2097636 C156.807403,28.4235683 153.770367,27.8848478 145.728616,27.8848478 L129.463296,27.8848478 L129.463296,59.4922544 L92.4309741,59.4922544 L75.0420857,34.4205379 L105.841748,34.4205379 L92.8279438,27.8535347 L92.8191896,0 L151.627606,0 C169.67912,0 179.335686,2.32665314 186.842083,9.83508393 C195.132318,18.1269692 199.584507,30.4319184 199.873059,59.4922544 L161.27508,59.4922544" id="path20"></path>
                        <path d="M92.8175061,66.5696953 L129.463296,66.5696953 L129.463296,97.2420851 L145.728616,97.2420851 C153.770367,97.2420851 156.809087,96.7050481 158.596966,94.9171693 C160.452858,93.0626239 161.192925,88.168348 161.273397,66.5696953 L199.862621,66.5696953 C199.488211,94.9538697 195.044776,107.094273 186.842083,115.293937 C179.335686,122.803701 169.67912,125.128616 151.627606,125.128616 L92.7754186,125.128616 L73.6865301,97.2420851 L105.841748,97.2420851 L92.8175061,90.0484826 L92.8175061,66.5696953" id="path22"></path>
                    </g>
                </g>
            </g>
        </g>
    </g>
</svg>