<?xml version="1.0" encoding="UTF-8"?>
<svg width="200px" height="200px" viewBox="0 0 200 200" version="1.1" xmlns="http://www.w3.org/2000/svg" xmlns:xlink="http://www.w3.org/1999/xlink">
    <!-- Generator: Sketch 55.2 (78181) - https://sketchapp.com -->
    <title>eastern-ill</title>
    <desc>Created with Sketch.</desc>
    <g id="eastern-ill" stroke="none" stroke-width="1" fill="none" fill-rule="evenodd">
        <g id="eastern-ill_BGD">
            <g id="Eastern_Illinois_Panthers_logo" transform="translate(0.000000, 14.000000)">
                <path d="M196.851064,35.0161702 L193.904766,33.2667234 C192.829787,32.6337447 167.634128,17.8965106 133.080085,11.1731064 C130.407745,7.89651064 126.646043,5.93702128 122.288596,5.59395745 C122.109872,5.58170213 121.905617,5.57480851 121.667319,5.57480851 C120.403489,5.57480851 116.155064,5.77907234 112.959234,8.32323404 L111.110809,8.22429787 L109.137362,8.12217021 L108.630987,8.09238298 L108.102255,8.06313191 L108.072979,8.06525957 C105.253319,7.92322553 102.478851,7.84875745 99.8065106,7.84875745 C94.5054043,7.84875745 90.5826809,7.94715745 85.5724681,8.43439149 C82.385234,4.61626383 79.4184255,2.83013617 77.0950213,1.68545532 C75.9072766,1.10141277 73.4328085,0.11626383 70.27,0.11626383 C66.0264255,0.11626383 62.17,1.88698723 59.1193617,5.24017872 C56.6933191,7.89711489 55.8294894,10.8917532 55.5225957,13.6470723 L55.1358894,13.7460085 L54.8289787,13.8273957 C26.1898298,21.2768426 6.53451064,32.7873957 5.71068085,33.2673957 L2.76276596,35.0168426 L0.192553191,36.5322468 L0.49946383,39.5062043 L0.851591489,42.9083319 C0.943608511,43.8413532 3.3276766,65.9857787 16.1630809,92.4913106 C28.0532936,117.048757 51.552017,150.201949 95.9622298,168.670034 L98.020783,169.523226 L99.8064,170.26897 L101.599506,169.523226 L103.652698,168.670034 C113.193123,164.704077 122.299506,159.815566 130.720783,154.143226 L133.48623,152.274119 L133.437804,152.083157 C133.812272,152.168264 134.185149,152.274119 134.552698,152.391668 C134.713872,152.440604 134.887277,152.483694 135.053762,152.527294 L135.119719,152.551209 C136.486187,152.917157 137.982528,153.113438 139.578272,153.127268 C139.654357,153.127268 139.730936,153.133226 139.806996,153.133226 C140.079336,153.133226 140.361787,153.122587 140.647957,153.115694 C145.009149,152.952936 149.82583,151.558757 154.979872,148.97314 L156.628809,148.144417 L157.263379,146.420502 L158.812315,142.217268 C159.087855,141.549711 159.653285,139.961438 159.795294,139.558715 C160.096894,138.67463 160.4836,137.625183 160.930953,136.435821 C161.113404,135.967736 161.295319,135.504417 161.471906,135.043311 C167.349013,133.26246 171.671906,126.820417 173.395311,121.063736 C174.092655,118.719566 174.423481,116.193013 174.585183,114.420672 C177.130374,112.100502 178.408587,109.302034 178.991055,107.652587 L179.252757,106.886102 L179.247651,106.074928 C179.23914,104.437651 178.994451,103.069651 178.501906,101.902587 L179.165736,100.791438 L179.157226,100.721736 C182.391268,94.8972255 185.304545,88.8366298 187.827864,82.6919489 C196.87297,60.6783319 198.6968,43.6272681 198.768289,42.906417 L199.122553,39.508034 L199.424153,36.5303319 L196.852323,35.0149277 L196.851064,35.0161702 Z" id="Path" fill="#B2B2B2" fill-rule="nonzero"></path>
                <path d="M194.12766,42.4382979 C194.056426,43.1265872 192.296255,59.5446809 183.524255,80.9182979 C181.148766,86.6874894 178.110468,93.1438298 174.261277,99.9157447 L174.261277,99.92 C173.323489,101.504596 172.615489,102.598723 172.615489,102.598723 C172.615489,102.598723 173.718638,102.630128 174.169191,103.615234 C174.485149,104.312034 174.584077,105.257277 174.584077,106.110468 C174.091523,107.516851 172.82714,110.284426 170.056417,112.025362 C170.056417,112.025362 169.960672,116.270043 168.929268,119.729617 C167.467566,124.610979 163.869183,129.667489 159.780332,130.673447 C159.5548,129.79583 159.431923,128.75217 159.497881,127.546809 C159.497881,127.546809 157.964945,131.143064 156.573966,134.774468 C156.144179,135.897872 152.890987,144.805957 152.890987,144.805957 C147.760094,147.38417 143.61354,148.337872 140.469711,148.457532 C140.24577,148.46817 140.020238,148.46817 139.805345,148.46817 L139.714919,148.46817 C139.919711,148.46817 140.129821,148.46817 140.344715,148.457532 C138.74046,148.508085 137.398417,148.334664 136.337226,148.046894 C136.209038,148.010213 136.070213,147.97566 135.950528,147.942638 C132.286698,146.78783 128.771804,146.872936 128.771804,146.872936 C127.833506,145.666043 126.644145,144.361787 125.263804,142.990468 C126.911123,146.300596 127.743038,148.884085 128.121251,150.273447 C119.979804,155.756426 111.155294,160.504085 101.86423,164.367064 L99.8041447,165.218638 L97.7509532,164.367064 C54.6939319,146.458979 31.895634,114.288766 20.3552085,90.4564255 C7.88371915,64.7040851 5.57648511,43.3372766 5.48627234,42.4428085 L5.13393191,39.0334468 L8.08201702,37.288766 C8.8793617,36.8190723 28.2658468,25.556 56.0037191,18.3406809 C56.1026553,18.3167489 56.1962723,18.2869617 56.2968085,18.2646128 C58.4712766,20.7236766 58.237234,24.2869106 58.237234,24.2869106 C62.0069362,21.7119319 57.7606383,13.6418043 62.5622553,8.38393191 C67.2856596,3.20095319 72.9120426,4.83125106 75.0320426,5.8716766 C77.1197872,6.90146383 80.106,8.61474043 83.4682128,13.3504 C89.6990213,12.637634 93.7924681,12.5147574 99.8009787,12.5147574 C102.411106,12.5147574 105.12966,12.5839064 107.88183,12.7296511 L108.339804,12.7541191 L108.353591,12.7488426 L108.878604,12.7834128 L110.855711,12.8876681 C110.661557,13.8462213 110.163685,15.1834128 108.965328,16.5567745 C108.606817,16.9695319 108.190315,17.3801787 107.704732,17.784434 C107.704732,17.784434 109.194604,18.1589021 111.081328,17.0578383 C112.208477,16.3972 112.7632,16.2461362 114.119115,13.9780085 C114.186689,13.8673702 115.065923,12.6529872 115.65903,12.132817 C117.818094,10.2482213 121.457413,10.2067745 121.91537,10.2482213 C126.087711,10.5758809 128.768562,12.7987745 130.375966,15.4120511 C164.988732,21.7917957 190.26703,36.5482213 191.530009,37.2886468 L194.477923,39.0333277 L194.124196,42.4423489 L194.12766,42.4382979 Z" id="Path" fill="#003399" fill-rule="nonzero"></path>
                <path d="M90.066754,21.5157447 C89.573137,21.5259574 89.1050519,21.546383 88.67952,21.5804255 C88.9773923,22.0195745 89.292286,22.4655319 89.6327115,22.9370213 C94.3986689,29.5208511 103.377392,39.24 103.377392,39.24 C93.8454774,34.2953191 84.1518604,37.9651064 80.2642009,39.8655319 C79.1476051,40.4144681 78.4973923,40.8195745 78.4973923,40.8195745 C90.9348391,38.5761702 99.5050519,43.8765957 99.5050519,43.8765957 C99.2582434,43.9285106 96.3135626,44.3880851 93.5305838,45.8842553 C92.9007966,46.226383 92.2710094,46.613617 91.6837753,47.066383 C86.27952,51.2859574 86.9263285,60.9591489 86.9518604,61.2731915 C87.2327115,65.0561702 88.3816477,69.1787234 90.3390945,73.3676596 C93.9561157,81.1131915 99.4624987,85.0382979 104.594414,87.0468085 C106.202924,87.6595745 107.760371,88.1021277 109.224201,88.4085106 C110.398669,88.6468085 111.496541,88.8085106 112.500797,88.9191489 C114.236967,89.0978723 115.666754,89.1148936 116.602924,89.1148936 C117.07952,89.0893617 117.564626,89.0638298 118.075265,89.0468085 L118.117818,89.0468085 L118.109307,89.0553191 C118.100797,89.0638298 118.092286,89.0723404 118.092286,89.0808511 C118.066754,89.0978723 118.032711,89.1234043 117.981648,89.1574468 L118.00718,89.1574468 L118.228456,89.0978723 L118.219946,89.106383 C118.211435,89.1148936 118.194414,89.1234043 118.160371,89.1489362 C118.15186,89.1574468 118.15186,89.1659574 118.134839,89.1744681 C117.896541,89.3702128 117.241222,89.9489362 116.509307,90.8851064 C116.398669,91.0212766 116.288031,91.1659574 116.185903,91.3191489 C115.888031,91.7276596 115.581648,92.1957447 115.300797,92.7234043 C114.305052,94.5361702 113.513563,96.9957447 113.794414,100.059574 C113.905052,101.268085 114.177392,102.570213 114.671009,103.965957 C114.81569,104.357447 114.977392,104.774468 115.156116,105.191489 C115.241222,105.404255 115.34335,105.617021 115.445477,105.829787 C115.939094,106.893617 116.568882,108 117.34335,109.148936 C117.34335,109.148936 117.249733,109.140426 117.07952,109.114894 C116.934839,109.080851 116.739094,109.038298 116.492286,108.970213 C116.432711,108.953191 116.364626,108.93617 116.288031,108.910638 C116.262499,108.902128 116.219946,108.893617 116.185903,108.885106 C116.083775,108.842553 115.973137,108.808511 115.862499,108.774468 C115.760371,108.731915 115.632711,108.689362 115.522073,108.646809 C115.241222,108.53617 114.95186,108.408511 114.636967,108.255319 C114.55186,108.212766 114.466754,108.170213 114.373137,108.119149 C114.117818,107.982979 113.845477,107.838298 113.573137,107.659574 C113.488031,107.608511 113.402924,107.548936 113.317818,107.497872 C111.666754,106.408511 109.794414,104.629787 108.296541,101.702128 C108.296541,101.710638 108.713563,110.340426 117.905052,115.531915 C118.117818,115.659574 118.347605,115.770213 118.577392,115.880851 C119.002924,116.110638 119.453988,116.331915 119.922073,116.544681 C120.117818,116.638298 120.322073,116.731915 120.54335,116.825532 C120.54335,116.825532 119.394414,116.944681 117.692286,116.910638 C116.917818,116.885106 116.032711,116.834043 115.088031,116.723404 C115.462499,117.157447 115.862499,117.591489 116.313563,118.025532 C116.773137,118.459574 117.266754,118.902128 117.828456,119.353191 C118.390158,119.804255 119.002924,120.280851 119.692286,120.774468 C120.381648,121.259574 121.139094,121.778723 121.973137,122.323404 C126.619946,124.995745 134.739094,127.642553 138.645477,127.676596 C147.147605,127.761702 150.628456,126.068085 154.40718,124.757447 C155.309307,124.442553 155.973137,124.221277 156.466754,124.025532 C156.696541,123.931915 156.892286,123.846809 157.053988,123.770213 C157.258243,123.659574 157.419946,123.557447 157.547605,123.438298 C157.683775,123.310638 157.811435,123.182979 157.956116,123.046809 C158.211435,122.757447 158.475265,122.442553 158.730584,122.102128 C159.113563,121.6 159.488031,121.029787 159.836967,120.391489 C159.964626,120.187234 160.075265,119.974468 160.194414,119.753191 C161.20718,117.753191 162.041222,115.293617 162.466754,112.621277 C162.126329,112.468085 161.768882,112.297872 161.385903,112.102128 C161.139094,111.974468 160.883775,111.838298 160.619946,111.685106 C160.449733,111.591489 160.271009,111.489362 160.083775,111.370213 C159.35186,110.93617 158.577392,110.425532 157.74335,109.804255 C156.713563,109.038298 155.61569,108.12766 154.449733,107.038298 C154.449733,107.029787 153.522073,89.5744681 141.598669,82.5165957 C141.598669,82.5165957 143.760371,82.3165957 146.347605,82.973617 C144.322073,79.8680851 142.305052,77.6 141.028456,76.587234 C141.019946,76.587234 141.019946,76.5838298 141.019946,76.5838298 L141.011435,76.5838298 C141.011435,76.5838298 136.398669,77.3446809 133.300797,80.3489362 C132.449733,81.1693617 131.717818,82.1540426 131.224201,83.3395745 C131.224201,83.3395745 126.560371,79.8451064 124.985903,73.6051064 C124.55186,71.9004255 124.024201,68.3182979 123.74335,66.6553191 C123.411435,64.5991489 122.526329,63.1242553 121.922073,62.132766 C120.756116,60.212766 118.41569,59.2587234 118.41569,59.2587234 C118.483775,59.1387234 118.688031,58.6587234 118.713563,58.0621277 C118.773137,56.2485106 117.956116,54.467234 117.249733,52.7974468 C116.934839,52.0638298 115.819946,50.0893617 115.819946,50.0893617 C115.896541,50.1540426 115.998669,50.2357447 116.100797,50.3191489 C116.866754,50.9293617 118.262499,52 119.658243,53.0714894 C119.709307,53.1131915 127.47952,58.7319149 129.692286,60.212766 C131.905052,61.6953191 136.909307,64.6212766 142.645477,67.0178723 C144.168882,67.6612766 148.313563,69.1370213 152.773137,69.4195745 C152.773137,69.4195745 150.185903,71.8238298 152.696541,79.8502128 C153.20718,81.5651064 153.913563,83.2068085 154.390158,84.5617021 C154.40718,84.5617021 154.40718,84.5702128 154.40718,84.5787234 C154.713563,85.4553191 154.994414,86.3234043 155.292286,87.1319149 C158.781648,96.8680851 159.530584,102.53617 159.539094,102.570213 C159.488031,102.578723 159.394414,102.595745 159.275265,102.629787 C159.122073,102.67234 158.926329,102.723404 158.688031,102.782979 C158.628456,102.8 158.55186,102.825532 158.483775,102.842553 C158.364626,102.876596 158.253988,102.910638 158.117818,102.944681 C158.117818,102.944681 158.168882,103.055319 158.322073,103.182979 C159.249733,103.957447 160.228456,104.417021 162.764626,104.629787 L162.756116,104.629787 C166.390158,104.93617 168.611435,103.991489 168.875265,103.889362 C168.866754,103.676596 168.858243,103.455319 168.849733,103.234043 C168.773137,101.812766 168.568882,100.034043 168.117818,97.9234043 C167.692286,95.8893617 167.258243,93.9744681 166.80718,92.1531915 C164.602924,83.1310638 162.305052,76.6714894 160.688031,72.6765957 C160.219946,71.5182979 159.794414,70.5625532 159.462499,69.8204255 C159.105052,68.9217021 158.841222,68.3378723 158.722073,68.0570213 C158.671009,67.9370213 158.636967,67.8638298 158.636967,67.8638298 C158.636967,67.8638298 159.734839,66.1702128 159.998669,64.3668085 C160.066754,63.9225532 160.075265,63.4757447 160.01569,63.0434043 C159.888031,62.1710638 159.488031,61.266383 159.113563,60.6348936 C158.398669,59.4748936 157.266754,58.2161702 155.819946,56.8570213 C155.241222,56.3123404 150.271009,52.1429787 149.453988,51.4961702 C147.411435,49.8748936 145.198669,48.1353191 142.909307,46.2731915 C138.832711,42.9421277 135.922073,40.4595745 133.181648,38.1565957 C131.130584,36.4391489 122.500797,30.2953191 118.747605,28.2110638 C116.824201,27.1514894 109.309307,23.2306383 99.0114349,21.9965957 C98.3476051,21.9140426 93.5390945,21.4468085 90.066754,21.5157447 L90.066754,21.5157447 Z M59.0956902,29.827234 C54.5442009,29.7829787 49.2905838,31.3761702 48.172286,31.7319149 C48.0624987,31.7634043 47.9901583,31.7914894 47.9620732,31.8 C47.8378179,31.8434043 46.9986689,32.1251064 45.9093072,32.4987234 C44.426754,33.0034043 42.4837753,33.666383 41.1901583,34.1225532 C41.0029243,34.1914894 40.8199455,34.2570213 40.6582434,34.3148936 C40.2812221,34.4510638 35.3135626,36.3353191 33.532286,37.0391489 C33.3986689,37.0876596 33.2854774,37.1395745 33.1918604,37.1795745 C33.0514349,37.2348936 32.8999455,37.2944681 32.7527115,37.3540426 C30.0846264,38.4561702 26.0548391,40.2502128 24.3169668,41.0357447 C23.8369668,41.2519149 23.5229243,41.3889362 23.4676051,41.4161702 C20.612286,42.7548936 18.305903,43.9251064 16.6327115,44.7991489 C16.6642009,44.9761702 17.4165413,48.1651064 18.7339881,53.1353191 C20.5544136,59.6417021 23.146754,67.5991489 26.533137,74.9234043 C31.6863285,86.0765957 40.3527115,95.6680851 50.6786689,102.13617 C52.505903,103.285106 54.3799455,104.323404 56.2888817,105.268085 C57.5739881,105.897872 58.8642009,106.476596 60.1782434,107.004255 C66.7348391,109.651064 73.6803711,111.06383 80.6352647,110.92766 C80.1773923,110.459574 79.7620732,109.991489 79.413137,109.514894 C76.9339881,106.144681 75.3756902,100.978723 76.1110094,95.3702128 C76.1212221,95.3021277 76.1314349,95.2425532 76.1407966,95.1744681 C76.3935626,93.3531915 76.8905838,91.4978723 77.6752647,89.6340426 C77.8624987,89.1914894 78.0573923,88.7574468 78.2812221,88.3148936 C78.2914349,88.2978723 78.2973923,88.2723404 78.3161157,88.2468085 C78.4446264,87.9829787 78.5765413,87.7276596 78.7186689,87.4553191 C66.5756902,92.1191489 69.5535626,105.719149 69.5535626,105.719149 C69.145903,105.302128 58.9773923,100.017021 57.1442009,88.1021277 C57.1050519,87.812766 57.0565413,87.5234043 57.0216477,87.2340426 L57.0216477,87.2255319 C55.826754,76.9012766 55.6684562,75.8034043 47.9510094,70 C47.9510094,70 49.7561157,68.96 51.5680306,66.8919149 C53.2684562,64.9455319 54.9714349,62.0970213 55.1901583,58.346383 L55.1901583,58.3429787 C55.4429243,53.9046809 55.8156902,50.1421277 56.3084562,46.9429787 C56.3084562,46.9242553 56.3084562,46.893617 56.3135626,46.8714894 C56.4956902,46.1489362 56.7101583,45.413617 56.9586689,44.6689362 C58.2224987,40.9651064 60.4497328,37.1693617 64.3773923,34.8306383 C65.1552647,34.3668085 66.0097328,33.9531915 66.9305838,33.6170213 C67.8582434,33.2782979 68.8573923,33.0102128 69.9356902,32.8255319 C69.9356902,32.8255319 65.3637753,30.1914894 59.9952647,29.8587234 C59.6999455,29.84 59.39952,29.8297872 59.0956902,29.827234 L59.0956902,29.827234 Z M128.917818,65.3523404 C128.934839,65.746383 128.968882,66.1319149 129.002924,66.4961702 C129.249733,69.0782979 129.862499,70.9821277 130.432711,72.2757447 C130.568882,72.5804255 130.696541,72.8442553 130.824201,73.0851064 C131.309307,73.9991489 131.700797,74.4365957 131.700797,74.4365957 C131.717818,74.4365957 131.819946,74.4655319 131.973137,74.4893617 C132.177392,74.5191489 132.492286,74.5506383 132.883775,74.5310638 C133.436967,74.506383 133.871009,74.3906383 134.271009,74.2434043 C134.398669,74.1982979 134.517818,74.1514894 134.636967,74.092766 C134.764626,74.0331915 134.892286,73.9693617 135.002924,73.8978723 C135.47952,73.6170213 135.871009,73.2714894 136.185903,72.8970213 C136.390158,72.6493617 136.568882,72.3982979 136.722073,72.147234 C136.756116,72.0834043 136.849733,71.9480851 136.849733,71.9480851 C136.968882,71.7395745 137.232711,71.1642553 137.258243,71.1106383 C137.071009,71.3829787 136.849733,71.6161702 136.585903,71.8068085 C136.492286,71.8748936 136.40718,71.9310638 136.305052,71.9846809 C136.126329,72.0893617 135.913563,72.1702128 135.700797,72.2289362 C135.488031,72.2825532 135.258243,72.3174468 135.019946,72.3174468 C134.705052,72.3174468 134.424201,72.2502128 134.14335,72.1523404 C134.032711,72.1123404 133.930584,72.0697872 133.828456,72.0178723 C133.488031,71.8485106 133.20718,71.6161702 132.977392,71.332766 C132.594414,70.8757447 132.356116,70.2859574 132.356116,69.6459574 L132.356116,69.6008511 C132.364626,69.5421277 132.373137,69.4902128 132.373137,69.4297872 C132.509307,69.4519149 132.628456,69.4629787 132.739094,69.4578723 C133.530584,69.4289362 133.964626,68.8868085 134.185903,68.4340426 C134.185903,68.4340426 132.339094,67.3446809 130.841222,66.466383 C129.862499,65.893617 129.028456,65.4068085 128.960371,65.3659574 C128.95186,65.36 128.94335,65.3608511 128.94335,65.3608511 L128.934839,65.3574468 C128.926329,65.3574468 128.917818,65.3523404 128.917818,65.3523404 L128.917818,65.3523404 Z M110.841222,122.92766 C110.841222,122.93617 123.071009,131.33617 128.458243,137.029787 C128.960371,137.557447 129.411435,138.025532 129.836967,138.468085 C129.888031,138.52766 131.905052,140.842553 134.083775,141.625532 C134.185903,141.668085 134.288031,141.719149 134.398669,141.753191 C134.55186,141.812766 136.313563,142.485106 139.028456,142.638298 C140.705052,142.731915 142.253988,142.612766 143.488031,142.348936 C144.40718,141.514894 145.147605,140.340426 145.700797,139.046809 C146.509307,137.191489 146.934839,135.07234 146.994414,133.33617 C148.066754,132.731915 151.292286,131.004255 151.292286,131.004255 L151.275265,131.004255 C151.071009,131.004255 150.049733,131.148936 148.80718,131.33617 C148.568882,131.378723 142.95186,132.221277 142.14335,132.357447 C140.756116,132.595745 139.436967,132.851064 138.202924,133.038298 C137.794414,133.106383 137.394414,133.165957 137.002924,133.208511 C136.94335,133.217021 134.671009,133.557447 133.300797,133.174468 C132.866754,133.046809 132.441222,132.93617 131.998669,132.765957 C131.266754,132.476596 130.458243,132.076596 129.385903,131.531915 C122.211435,127.514894 110.841222,122.92766 110.841222,122.92766 L110.841222,122.92766 Z" id="Shape" fill="#FFFFFF" fill-rule="nonzero"></path>
                <path d="M166.255319,37.1191489 C165.748936,36.914366 165.228766,36.707983 164.698383,36.5037277 C156.306894,33.1828766 145.85583,29.6867064 134.145191,27.1139404 C135.320681,29.5570043 136.567489,31.8410894 137.710128,33.2245787 C140.568085,36.6910468 144.559574,40.551217 153.803745,47.2807489 C166.501617,56.5301106 167.425021,61.2084085 166.210553,66.1956426 C165.198298,70.3504511 170.376,83.9675574 170.462638,83.9081778 C170.462638,83.9081778 178.974979,67.1862809 182.980085,44.7998979 C179.678468,43.0690043 173.883064,40.2046638 166.254979,37.1180255 M118.603915,137.04143 C113.918809,133.164323 108.420085,129.099983 103.016681,125.335047 C100.618809,123.661685 98.2395745,122.04943 95.9608511,120.538791 C94.6171915,120.769634 93.1986383,121.053685 91.7315745,121.381345 C91.1837106,121.507949 90.6204255,121.636664 90.0565957,121.778689 C86.1012766,122.753157 81.8251915,124.118094 77.6055319,126.025498 C77.63,126.774426 77.6874468,127.728136 77.8310638,128.860562 C77.8794723,129.236621 77.9353191,129.635557 78.0082043,130.048306 C78.073634,130.4664 78.1555404,130.899881 78.2470298,131.348817 C78.5246894,132.704647 78.9151064,134.218519 79.4699234,135.867455 C79.6933277,136.540323 79.9412,137.246179 80.2380085,137.98337 C80.4582213,138.546672 80.6922638,139.11903 80.953966,139.708391 C81.7342894,141.489243 82.712434,143.429668 83.9369447,145.498264 C86.0279234,146.741923 88.1693702,147.924306 90.3316681,149.065328 C92.1056255,149.996732 93.8886043,150.902009 95.7071574,151.762179 C97.063583,152.402068 98.4246894,153.020732 99.8050298,153.620647 C100.827923,153.173319 101.851328,152.717498 102.858732,152.245668 C104.88903,151.311115 106.886902,150.329753 108.849711,149.303115 C113.764094,146.741923 118.493966,143.913753 122.985881,140.83554 C121.978391,139.914774 120.893285,138.970094 119.76086,138.004136 C119.379489,137.691906 118.995974,137.367438 118.603923,137.041413" id="Shape" fill="#3366CC" fill-rule="nonzero"></path>
                <path d="M68.6505838,8.90638298 C68.3705838,8.89531915 68.0871796,8.8987234 67.8046264,8.91829787 C67.8046264,8.91829787 73.1569668,9.63829787 76.4097328,18.0085106 C74.6999455,17.3480851 72.7978179,17.5285106 72.7978179,17.5285106 C76.5280306,20.1659574 78.2250519,25.1429787 78.8216477,26.507234 C79.6437753,28.3770213 80.7756902,29.6212766 81.8071796,30.4434043 C85.5561157,33.667234 90.1688817,33.1438298 90.1688817,33.1429787 C90.1688817,33.1429787 83.9476051,31.1395745 78.5705838,17.3557447 C76.7127115,12.6051064 72.853137,9.07489362 68.6505838,8.90638298 Z M24.3101583,41.027234 C23.8335626,41.2391489 23.5280306,41.3787234 23.4710094,41.4025532 C20.6114349,42.7378723 18.3042009,43.9131915 16.6361157,44.787234 C16.666754,44.9574468 17.4173923,48.1540426 18.7356902,53.1182979 C20.5578179,59.6331915 23.1476051,67.587234 26.5348391,74.9114894 C31.6846264,86.0680851 40.3510094,95.6510638 50.6820732,102.12766 C52.5007966,103.268085 54.3790945,104.314894 56.2948391,105.259574 C57.573137,105.880851 58.8693072,106.459574 60.1782434,106.995745 C66.7365413,109.642553 73.6769668,111.055319 80.6369668,110.919149 C80.1790945,110.451064 79.7671796,109.974468 79.4199455,109.497872 C76.9356902,106.12766 75.3833498,100.961702 76.1144136,95.3531915 C76.1280306,95.293617 76.1382434,95.2255319 76.1424987,95.1574468 C76.4003711,93.3446809 76.892286,91.4808511 77.6761157,89.6170213 C77.8633498,89.1829787 78.0633498,88.7404255 78.2786689,88.2978723 C78.2939881,88.2723404 78.3016477,88.2553191 78.3101583,88.2297872 C78.4446264,87.9659574 78.5799455,87.7106383 78.7271796,87.4468085 C66.5782434,92.1021277 69.5535626,105.710638 69.5535626,105.710638 C69.1527115,105.293617 58.9773923,100 57.1442009,88.0851064 C57.0973923,87.812766 57.0582434,87.5319149 57.0233498,87.2170213 C55.8216477,76.8876596 55.6684562,75.7914894 47.9544136,69.9880851 C47.9544136,69.9880851 49.7535626,68.9438298 51.5680306,66.8782979 C48.693137,65.4876596 46.5016477,63.3531915 44.8420732,61.0851064 C44.7986689,61.0280851 44.75952,60.9676596 44.7178179,60.9157447 C44.6242009,60.7821277 44.5339881,60.653617 44.4437753,60.5251064 C44.3501583,60.3846809 44.2497328,60.2442553 44.15952,60.1012766 C44.1280306,60.0502128 44.0888817,59.9957447 44.0565413,59.9404255 C41.0369668,55.252766 40.1348391,50.387234 40.1348391,50.387234 C34.8624987,67.2 48.0037753,85.2255319 48.0037753,85.2255319 C48.0037753,85.2255319 39.9986689,82.12 33.0905838,69.7923404 C29.3790945,63.173617 25.985903,53.8953191 24.3101583,41.027234 L24.3101583,41.027234 Z M93.5305838,45.8740426 C92.9007966,46.2110638 92.2710094,46.6034043 91.6837753,47.0595745 C86.27952,51.2765957 86.9263285,60.946383 86.9518604,61.2612766 C87.2242009,65.0476596 88.3816477,69.1634043 90.3390945,73.3574468 C93.9561157,81.1004255 99.4624987,85.0297872 104.594414,87.0297872 C106.202924,87.6595745 107.760371,88.0851064 109.224201,88.4 C110.398669,88.6382979 111.496541,88.7914894 112.492286,88.9021277 C114.236967,89.0893617 115.675265,89.0978723 116.594414,89.106383 C117.07952,89.0723404 117.573137,89.0553191 118.075265,89.0468085 C113.998669,87.906383 110.517818,86.4170213 107.547605,84.6723404 C106.40718,84 105.34335,83.2902128 104.339094,82.5429787 C90.0497328,71.8008511 90.4327115,53.7106383 93.5305838,45.8740426 L93.5305838,45.8740426 Z M119.649733,53.0638298 C119.700797,53.1021277 127.47952,58.72 129.692286,60.2008511 C131.905052,61.6910638 136.909307,64.612766 142.653988,67.012766 C144.168882,67.6476596 148.305052,69.1276596 152.764626,69.4085106 C152.764626,69.4085106 150.177392,71.813617 152.696541,79.8391489 C153.20718,81.5548936 153.913563,83.2008511 154.398669,84.5446809 C154.398669,84.5617021 154.40718,84.5702128 154.40718,84.5702128 C154.713563,85.4468085 154.994414,86.3148936 155.283775,87.1234043 C158.781648,96.8595745 159.530584,102.52766 159.539094,102.553191 C159.530584,102.485106 159.530584,102.417021 159.522073,102.357447 C158.739094,93.1148936 155.385903,82.252766 154.892286,79.2255319 C154.628456,77.6195745 154.168882,75.9693617 154.705052,74.6825532 C154.960371,74.0646809 155.692286,73.5259574 156.219946,73.3574468 C158.798669,72.5719149 161.428456,75.3897872 166.80718,92.1446809 C164.611435,83.1148936 162.305052,76.6604255 160.688031,72.6646809 C160.219946,71.5114894 159.794414,70.546383 159.462499,69.8068085 C159.105052,68.9123404 158.849733,68.3242553 158.730584,68.0451064 C158.671009,67.9251064 158.636967,67.852766 158.636967,67.852766 C158.636967,67.852766 159.700797,66.1744681 159.973137,64.3719149 C160.049733,63.9276596 160.066754,63.4706383 160.01569,63.0306383 C159.862499,63.2817021 159.700797,63.5438298 159.522073,63.8314894 C157.956116,66.3114894 154.049733,67.4340426 146.866754,66.5455319 C146.432711,66.4885106 144.500797,66.053617 143.360371,65.6204255 C132.841222,61.6212766 123.862499,55.8851064 119.649733,53.0638298 L119.649733,53.0638298 Z M128.917818,65.3421277 C128.934839,65.7378723 128.960371,66.1234043 129.002924,66.4893617 C129.249733,69.0714894 129.853988,70.9753191 130.432711,72.267234 C130.560371,72.5719149 130.696541,72.8340426 130.824201,73.0748936 C131.309307,73.9889362 131.700797,74.4280851 131.700797,74.4280851 C131.74335,74.4374468 131.888031,74.452766 131.913563,74.4578723 L131.913563,74.4510638 C130.14335,70.8374468 130.40718,68.0161702 130.841222,66.4578723 C129.862499,65.8834043 129.019946,65.3940426 128.95186,65.3523404 C128.94335,65.3523404 128.934839,65.3489362 128.926329,65.3489362 L128.917818,65.3421277 Z M141.019946,76.5744681 C141.019946,76.5744681 136.398669,77.3387234 133.292286,80.3370213 C139.036967,83.3089362 152.160371,91.6680851 154.449733,107.029787 C154.449733,107.021277 153.522073,89.5659574 141.598669,82.5114894 C141.598669,82.5114894 143.75186,82.3055319 146.347605,82.9617021 C144.322073,79.852766 142.305052,77.5906383 141.019946,76.5778723 L141.019946,76.5744681 L141.019946,76.5744681 Z M118.134839,89.1659574 C117.905052,89.3617021 117.241222,89.9319149 116.500797,90.8765957 C116.40718,91.012766 116.288031,91.1574468 116.185903,91.3106383 C115.888031,91.7191489 115.581648,92.187234 115.292286,92.7148936 C114.313563,94.5191489 113.513563,96.987234 113.794414,100.059574 C113.905052,101.268085 114.177392,102.561702 114.671009,103.957447 C114.80718,104.357447 114.968882,104.765957 115.156116,105.182979 C115.241222,105.395745 115.34335,105.608511 115.436967,105.812766 C115.947605,106.876596 116.568882,107.991489 117.35186,109.140426 C117.35186,109.140426 117.249733,109.131915 117.07952,109.097872 C116.934839,109.07234 116.747605,109.029787 116.492286,108.961702 C116.424201,108.944681 116.356116,108.92766 116.288031,108.902128 C116.253988,108.893617 116.228456,108.885106 116.185903,108.876596 C116.083775,108.842553 115.973137,108.8 115.862499,108.765957 C115.75186,108.723404 115.641222,108.680851 115.522073,108.629787 C115.249733,108.52766 114.960371,108.4 114.645477,108.246809 C114.560371,108.204255 114.466754,108.153191 114.373137,108.110638 C114.117818,107.974468 113.845477,107.821277 113.573137,107.651064 C113.488031,107.6 113.402924,107.540426 113.309307,107.489362 C111.666754,106.4 109.802924,104.612766 108.296541,101.693617 C108.296541,101.702128 108.713563,110.323404 117.905052,115.523404 C118.117818,115.642553 118.347605,115.753191 118.577392,115.87234 C119.002924,116.102128 119.453988,116.314894 119.913563,116.53617 C120.126329,116.629787 120.330584,116.723404 120.55186,116.817021 C120.55186,116.817021 119.394414,116.93617 117.692286,116.893617 C116.917818,116.876596 116.032711,116.825532 115.088031,116.714894 C115.462499,117.148936 115.862499,117.574468 116.313563,118.017021 C116.764626,118.451064 117.266754,118.893617 117.836967,119.344681 C118.390158,119.795745 119.011435,120.26383 119.700797,120.765957 C120.381648,121.251064 121.130584,121.761702 121.973137,122.314894 C126.619946,124.987234 134.739094,127.625532 138.645477,127.668085 C147.156116,127.753191 150.628456,126.059574 154.40718,124.748936 C155.309307,124.434043 155.973137,124.204255 156.475265,124.017021 C136.883775,129.182979 127.453988,121.387234 124.934839,118.757447 C124.458243,118.255319 124.228456,117.931915 124.228456,117.931915 C124.330584,117.991489 124.424201,118.042553 124.526329,118.093617 C133.053988,122.553191 140.313563,119.821277 140.313563,119.821277 C137.717818,119.174468 135.632711,118.510638 133.930584,117.86383 C127.505052,115.395745 126.781648,113.140426 126.781648,113.140426 C126.95186,113.191489 127.105052,113.242553 127.258243,113.293617 C134.866754,115.906383 138.985903,113.651064 138.985903,113.651064 C111.275265,107.991489 117.34335,91.106383 118.134839,89.1659574 L118.134839,89.1659574 Z M110.841222,122.919149 C110.841222,122.919149 123.07952,131.319149 128.458243,137.012766 C128.960371,137.548936 129.411435,138.017021 129.828456,138.451064 C129.888031,138.519149 131.905052,140.825532 134.075265,141.617021 C134.185903,141.659574 134.288031,141.710638 134.398669,141.744681 C132.94335,138.204255 130.790158,134.102128 129.385903,131.514894 C122.202924,127.497872 110.841222,122.919149 110.841222,122.919149 L110.841222,122.919149 Z" id="Shape" fill="#B2B2B2" fill-rule="nonzero"></path>
            </g>
        </g>
    </g>
</svg>