<?xml version="1.0" encoding="UTF-8"?>
<svg width="200px" height="200px" viewBox="0 0 200 200" version="1.1" xmlns="http://www.w3.org/2000/svg" xmlns:xlink="http://www.w3.org/1999/xlink">
    <!-- Generator: Sketch 54.1 (76490) - https://sketchapp.com -->
    <title>fairfield</title>
    <desc>Created with Sketch.</desc>
    <g id="fairfield" stroke="none" stroke-width="1" fill="none" fill-rule="evenodd">
        <g id="fairfield_BGL">
            <g id="fairfield" transform="translate(0.000000, 11.000000)">
                <g id="g10" transform="translate(100.000000, 89.180247) scale(-1, 1) rotate(-180.000000) translate(-100.000000, -89.180247) translate(0.000000, 0.738036)" fill-rule="nonzero">
                    <g id="g12">
                        <polyline id="path14" fill="#BDBCBC" points="0 161.311818 2.75893748 175.862768 197.411111 161.231215 182.906508 98.1229935 154.367825 118.696739 94.4194634 118.696739 89.7496986 98.3571467 151.377435 98.3571467 143.210283 62.8829344 81.3292507 62.8829344 66.2869217 0 3.09544708 0 33.4752451 132.293545 0 161.311818"></polyline>
                        <polyline id="path16" fill="#231F20" points="2.56490466 175.83758 199.973295 175.756976 185.464662 112.64946 156.93404 133.213432 97.7707561 133.213432 93.0950469 112.890263 154.720466 112.890263 146.55936 77.4033557 84.869458 77.4033557 69.8271289 14.5267688 5.64775744 14.5267688 36.0393437 146.835427 2.56490466 175.83758"></polyline>
                        <polyline id="path18" fill="#E11535" points="18.5371968 24.7785286 47.4234821 150.548226 30.0767993 165.571714 187.101921 165.499171 178.932755 130.003397 160.238784 143.47426 89.6021942 143.47426 80.2134966 102.62339 141.839016 102.62339 138.401276 87.6532012 76.7756558 87.6532012 61.7333268 24.7785286 18.5371968 24.7785286"></polyline>
                    </g>
                </g>
            </g>
        </g>
    </g>
</svg>