<?xml version="1.0" encoding="UTF-8"?>
<svg width="200px" height="200px" viewBox="0 0 200 200" version="1.1" xmlns="http://www.w3.org/2000/svg" xmlns:xlink="http://www.w3.org/1999/xlink">
    <!-- Generator: Sketch 54.1 (76490) - https://sketchapp.com -->
    <title>georgia</title>
    <desc>Created with Sketch.</desc>
    <g id="georgia" stroke="none" stroke-width="1" fill="none" fill-rule="evenodd">
        <g id="georgia_BGL">
            <g id="georgia" transform="translate(-1.000000, 36.000000)">
                <g id="g10" transform="translate(100.311077, 64.505382) scale(-1, 1) rotate(-180.000000) translate(-100.311077, -64.505382) translate(0.000000, 0.949509)" fill-rule="nonzero">
                    <g id="g12">
                        <path d="M178.575157,15.5419379 C179.469534,15.5419379 180.258239,15.473175 180.258239,14.530986 C180.258239,13.5169865 178.876856,13.6844983 177.866088,13.6844983 L176.717488,13.6844983 L176.717488,15.5419379 L178.575157,15.5419379 Z M179.348548,12.6106798 C180.34247,12.6405893 181.337923,13.1819781 181.337923,14.6476378 C181.337923,16.2150175 180.12347,16.6188653 178.777311,16.6188653 L175.642398,16.6188653 L175.642398,9.16786577 L176.717488,9.16786577 L176.717488,12.6106798 L178.101934,12.6106798 L180.007079,9.16786577 L181.236846,9.16786577 L179.348548,12.6106798 Z M178.203011,6.32028699 C181.90916,6.32028699 184.843451,9.25460805 184.843451,12.9456881 C184.843451,16.6367835 181.90916,19.568011 178.203011,19.568011 C174.493798,19.568011 171.559508,16.6367835 171.559508,12.9456881 C171.559508,9.25460805 174.493798,6.32028699 178.203011,6.32028699 Z M178.203011,18.4942996 C181.236846,18.4942996 183.76683,16.0773387 183.76683,12.9456881 C183.76683,9.82292007 181.236846,7.40009362 178.203011,7.40009362 C175.167643,7.40009362 172.640723,9.82292007 172.640723,12.9456881 C172.640723,16.0773387 175.167643,18.4942996 178.203011,18.4942996 L178.203011,18.4942996 Z" id="path14" fill="#FFFFFF"></path>
                        <path d="M99.9066163,3.93037176 C83.2280238,3.93037176 66.7587827,6.67025779 52.2786108,11.8419447 C38.3764145,16.8102987 26.5505808,23.9112509 18.0904518,32.3732177 C8.83106558,41.6277185 3.93934616,52.1805969 3.93934616,62.8827934 C3.93934616,73.5791702 8.83106558,84.1318955 18.0904518,93.3896124 C26.5505808,101.848516 38.3764145,108.952531 52.2786108,113.917853 C66.7587827,119.092526 83.2280238,121.829411 99.9066163,121.829411 C116.487195,121.829411 132.830856,119.11948 147.155431,114.001624 C160.897436,109.087147 172.597842,102.048985 180.988749,93.6557813 C190.300067,84.3414001 195.22067,73.7018407 195.22067,62.8827934 C195.22067,30.3751129 152.461657,3.93037176 99.9066163,3.93037176 Z M183.776018,96.4465733 C165.407605,114.806104 134.057254,125.76574 99.9066163,125.76574 C73.4799312,125.76574 48.5157968,119.253943 29.6112173,107.421065 C20.391787,101.65111 13.1341198,94.9389974 8.0402008,87.4671239 C2.7027939,79.6541928 0,71.3747769 0,62.8827934 C0,51.1127051 5.29134038,39.5968404 15.3074856,29.5854886 C24.1755821,20.7166111 36.5028179,13.2956436 50.9595584,8.13293112 C65.8524607,2.81168119 82.7883396,0 99.9066163,0 C134.057254,0 165.407605,10.9565731 183.776018,29.3162567 C193.837755,39.3844259 199.162666,50.9900346 199.162666,62.8827934 C199.162666,74.7757052 193.837755,86.3753412 183.776018,96.4465733 L183.776018,96.4465733 Z" id="path16" fill="#EE2722"></path>
                        <path d="M97.3522828,7.97140731 C43.0216596,7.97140731 9.37125988,37.5808174 9.37125988,64.1182276 C9.37125988,90.6616106 47.0112838,117.881136 101.331034,117.881136 C140.622806,117.881136 174.126246,100.418739 184.200235,81.4458558 L140.075306,81.4458558 C140.075306,81.4458558 123.630109,98.7676644 100.271565,98.7676644 C76.9078133,98.7676644 53.5498814,83.369225 53.5498814,65.3176725 C53.5498814,47.2661199 71.0690961,29.7409325 97.0830509,29.7409325 C123.103591,29.7409325 135.627467,39.6116956 141.493138,51.9323462 L81.9507804,51.9323462 L81.9507804,68.8293259 L189.682886,68.8293259 C194.784202,34.8050338 151.678005,7.97140731 97.3522828,7.97140731 Z M180.988749,93.6557813 C172.597842,102.048985 160.897436,109.087147 147.155431,114.001624 C132.830856,119.11948 116.487195,121.829411 99.9066163,121.829411 C83.2280238,121.829411 66.7587827,119.092526 52.2786108,113.917853 C38.3764145,108.952531 26.5505808,101.848516 18.0904518,93.3896124 C8.83106558,84.1318955 3.93934616,73.5791702 3.93934616,62.8827934 C3.93934616,52.1805969 8.83106558,41.6277185 18.0904518,32.3732177 C26.5505808,23.9112509 38.3764145,16.8102987 52.2786108,11.8419447 C66.7587827,6.67025779 83.2280238,3.93037176 99.9066163,3.93037176 C152.461657,3.93037176 195.22067,30.3751129 195.22067,62.8827934 C195.22067,73.7018407 190.300067,84.3414001 180.988749,93.6557813 L180.988749,93.6557813 Z" id="path18" fill="#FFFFFF"></path>
                        <path d="M189.682886,68.8293259 L81.9507804,68.8293259 L81.9507804,51.9323462 L141.493138,51.9323462 C135.627467,39.6116956 123.103591,29.7409325 97.0830509,29.7409325 C71.0690961,29.7409325 53.5498814,47.2661199 53.5498814,65.3176725 C53.5498814,83.369225 76.9078133,98.7676644 100.271565,98.7676644 C123.630109,98.7676644 140.075306,81.4458558 140.075306,81.4458558 L184.200235,81.4458558 C174.126246,100.418739 140.622806,117.881136 101.331034,117.881136 C47.0112838,117.881136 9.37125988,90.6616106 9.37125988,64.1182276 C9.37125988,37.5808174 43.0216596,7.97140731 97.3522828,7.97140731 C151.678005,7.97140731 194.784202,34.8050338 189.682886,68.8293259" id="path20" fill="#231F20"></path>
                    </g>
                </g>
            </g>
        </g>
    </g>
</svg>