<?xml version="1.0" encoding="UTF-8"?>
<svg width="200px" height="200px" viewBox="0 0 200 200" version="1.1" xmlns="http://www.w3.org/2000/svg" xmlns:xlink="http://www.w3.org/1999/xlink">
    <title>georgetown_BGL</title>
    <defs>
        <polygon id="path-1" points="0 0 190.752732 0 190.752732 173.27347 0 173.27347"></polygon>
    </defs>
    <g id="georgetown_BGL" stroke="none" stroke-width="1" fill="none" fill-rule="evenodd">
        <g id="G_Blue-Fill---Gray-Stroke_TM_ON-WHITE" transform="translate(0.000000, 13.000000)">
            <g id="Group-4">
                <mask id="mask-2" fill="white">
                    <use xlink:href="#path-1"></use>
                </mask>
                <g id="Clip-2"></g>
                <path d="M99.1012943,66.3086885 L84.2557288,101.438681 L84.2557288,113.742301 L93.3751476,107.622077 C93.4187668,107.591995 97.7355624,104.734186 102.971369,104.734186 L126.076003,104.734186 L126.076003,114.840294 C118.305771,124.134197 107.223488,129.433176 95.3801262,129.433176 C72.8651039,129.433176 54.5465484,110.23622 54.5465484,86.6367349 C54.5465484,63.0387534 72.8651039,43.8402936 95.3801262,43.8402936 C110.732577,43.8402936 125.490904,52.9311343 133.172394,66.2996638 L99.1012943,66.3086885 Z M95.3801262,38.0073551 C69.6056976,38.0073551 48.7136099,59.7793471 48.7136099,86.6367349 C48.7136099,113.494123 69.6056976,135.266115 95.3801262,135.266115 C110.174552,135.266115 123.358076,128.09151 131.908941,116.900932 L131.908941,98.8997435 L102.971369,98.8997435 C95.7260715,98.8997435 90.0886673,102.801405 90.0886673,102.801405 L90.0886673,102.619408 L102.971369,72.1401229 L142.179004,72.1310982 C135.642142,52.3580684 116.306808,38.0073551 95.3801262,38.0073551 L95.3801262,38.0073551 Z" id="Fill-1" fill="#9AA2A2" mask="url(#mask-2)"></path>
                <path d="M172.004001,86.6367349 L172.004001,161.809143 C172.004001,161.809143 159.482285,156.141657 151.788763,156.141657 C142.127864,156.141657 124.923854,167.440531 95.3801262,167.440531 C45.8753544,167.440531 5.7411878,135.819627 5.7411878,86.6367349 C5.7411878,37.7817386 45.8753544,5.8329385 95.3801262,5.8329385 C145.48203,5.8329385 167.557852,42.3391918 167.557852,42.3391918 L142.179004,72.1310982 L177.081876,72.1220736 C177.081876,72.1220736 172.004001,77.2947078 172.004001,86.6367349 Z M190.752732,66.3282419 L154.812024,66.2936474 L174.724936,42.9197783 L172.548489,39.3204431 C172.301815,38.9098211 166.324482,29.1541638 153.82984,19.475216 C142.359497,10.5904384 122.908347,0 95.3801262,0 C69.4898811,0 45.6196557,8.3493145 28.1704758,23.5107431 C9.94517519,39.3475171 -0.0902465988,61.7647722 -0.0902465988,86.6367349 C-0.0902465988,111.635043 9.94818341,134.097421 28.1779964,149.89208 C45.5835571,164.969279 69.447766,173.27347 95.3801262,173.27347 C115.115553,173.27347 129.415127,168.537027 139.85365,165.079079 C144.875873,163.412525 149.212222,161.9761 151.788763,161.9761 C158.506118,161.9761 170.475825,167.518745 177.833931,170.838316 L177.836939,86.6367349 C177.836939,79.9870647 181.164031,76.3004911 181.305417,76.1470719 C181.425746,76.0222307 190.752732,66.3282419 190.752732,66.3282419 L190.752732,66.3282419 Z" id="Fill-3" fill="#9AA2A2" mask="url(#mask-2)"></path>
            </g>
            <path d="M142.179004,72.1310982 L102.971369,72.1401229 L90.0886673,102.619408 L90.0886673,102.801405 C90.0886673,102.801405 95.7260715,98.8997435 102.971369,98.8997435 L131.908941,98.8997435 L131.908941,116.900932 C123.358076,128.09151 110.174552,135.266115 95.3801262,135.266115 C69.6056976,135.266115 48.7136099,113.494123 48.7136099,86.6367349 C48.7136099,59.7793471 69.6056976,38.0073551 95.3801262,38.0073551 C116.306808,38.0073551 135.642142,52.3580684 142.179004,72.1310982 L167.557852,42.3391918 C167.557852,42.3391918 145.48203,5.8329385 95.3801262,5.8329385 C45.8753544,5.8329385 5.7411878,37.7817386 5.7411878,86.6367349 C5.7411878,135.819627 45.8753544,167.440531 95.3801262,167.440531 C124.923854,167.440531 142.127864,156.141657 151.788763,156.141657 C159.482285,156.141657 172.004001,161.809143 172.004001,161.809143 L172.004001,86.6367349 C172.004001,77.2947078 177.081876,72.1220736 177.081876,72.1220736 L142.179004,72.1310982" id="Fill-5" fill="#141F35"></path>
            <path d="M188.200257,153.891509 L185.140898,153.891509 L185.140898,161.809143 L183.719514,161.809143 L183.719514,153.891509 L180.661658,153.891509 L180.661658,152.473133 L188.200257,152.473133 L188.200257,153.891509 Z M200,161.809143 L198.581624,161.809143 L198.581624,153.891509 L198.538005,153.891509 L195.34478,161.809143 L194.476908,161.809143 L191.372425,153.891509 L191.328806,153.891509 L191.328806,161.809143 L189.908926,161.809143 L189.908926,152.473133 L192.235784,152.473133 L194.920621,159.061135 L197.694199,152.473133 L200,152.473133 L200,161.809143 L200,161.809143 Z" id="Fill-6" fill="#141F35"></path>
        </g>
    </g>
</svg>