<?xml version="1.0" encoding="UTF-8"?>
<svg width="200px" height="200px" viewBox="0 0 200 200" version="1.1" xmlns="http://www.w3.org/2000/svg" xmlns:xlink="http://www.w3.org/1999/xlink">
    <!-- Generator: Sketch 54.1 (76490) - https://sketchapp.com -->
    <title>georgia-tech</title>
    <desc>Created with Sketch.</desc>
    <g id="georgia-tech" stroke="none" stroke-width="1" fill="none" fill-rule="evenodd">
        <g id="georgia-tech_BGL">
            <g id="georgia-tech" transform="translate(0.000000, 37.000000)">
                <g id="g10" transform="translate(99.854437, 62.806406) scale(-1, 1) rotate(-180.000000) translate(-99.854437, -62.806406) translate(0.000000, 0.215433)" fill-rule="nonzero">
                    <g id="g12">
                        <path d="M82.2375525,56.2759229 L93.7752524,56.2759229 L95.5132436,65.4969416 L108.342355,65.4969416 L108.033185,63.4451221 C105.469575,46.439009 87.7682656,34.8344096 66.8663739,36.4448899 C48.0431429,37.8968841 27.8254433,48.805239 27.9177868,69.31994 C28.0087911,88.9146994 44.4985142,104.398833 66.2736519,105.339153 C78.3755439,105.864917 91.947596,101.177872 101.71761,93.1173194 C102.079182,92.8180472 102.13566,92.7737968 102.193884,92.7342044 C102.253855,92.6928652 102.31499,92.6532728 102.524015,92.485005 L117.775834,92.4797648 L117.775834,121.389225 L103.998251,121.389225 L103.998251,108.781366 L101.045703,110.285878 C93.5196483,115.505674 79.6593867,121.060259 63.2669562,121.060259 C63.1778732,121.060259 63.0911192,121.060259 63.001454,121.059677 C46.1730993,121.000288 29.7855014,114.118192 18.0387768,102.177581 C8.56011623,92.5420646 3.42317313,80.8081494 3.57373499,69.1376984 C3.72248026,57.7199403 8.89944665,46.7958649 18.1516153,38.3772334 C30.170596,27.4399411 47.7513234,21.754934 65.1796199,23.177292 C80.3836952,24.413915 93.7170282,27.9628523 102.723142,33.1691404 L105.424743,34.7314111 L105.37991,28.6574083 L120.329546,28.6574083 L120.329546,65.4783099 L132.778454,65.4783099 L132.778454,17.3641917 L122.160113,17.3641917 L122.160113,3.57032305 L164.144974,3.57032305 L164.144974,17.3641917 L153.52314,17.3641917 L153.52314,65.4969416 L182.493154,65.4969416 L184.164188,56.2759229 L195.770592,56.2759229 L195.770592,81.6087316 L82.2375525,81.6087316 L82.2375525,56.2759229" id="path14" fill="#AEA057"></path>
                        <path d="M195.770592,56.2759229 L184.164188,56.2759229 L182.493154,65.4969416 L153.52314,65.4969416 L153.52314,17.3641917 L164.144974,17.3641917 L164.144974,3.57032305 L122.160113,3.57032305 L122.160113,17.3641917 L132.778454,17.3641917 L132.778454,65.4783099 L120.329546,65.4783099 L120.329546,28.6574083 L105.37991,28.6574083 L105.424743,34.7314111 L102.723142,33.1691404 C93.7170282,27.9628523 80.3836952,24.413915 65.1796199,23.177292 C47.7513234,21.754934 30.170596,27.4399411 18.1516153,38.3772334 C8.89944665,46.7958649 3.72248026,57.7199403 3.57373499,69.1376984 C3.42317313,80.8081494 8.56011623,92.5420646 18.0387768,102.177581 C29.7855014,114.118192 46.1730993,121.000288 63.001454,121.059677 C63.0911192,121.060259 63.1778732,121.060259 63.2669562,121.060259 C79.6593867,121.060259 93.5196483,115.505674 101.045703,110.285878 L103.998251,108.781366 L103.998251,121.389225 L117.775834,121.389225 L117.775834,92.4797648 L102.524015,92.485005 C102.31499,92.6532728 102.253855,92.6928652 102.193884,92.7342044 C102.13566,92.7737968 102.079182,92.8180472 101.71761,93.1173194 C91.947596,101.177872 78.3755439,105.864917 66.2736519,105.339153 C44.4985142,104.398833 28.0087911,88.9146994 27.9177868,69.31994 C27.8254433,48.805239 48.0431429,37.8968841 66.8663739,36.4448899 C87.7682656,34.8344096 105.469575,46.439009 108.033185,63.4451221 L108.342355,65.4969416 L95.5132436,65.4969416 L93.7752524,56.2759229 L82.2375525,56.2759229 L82.2375525,81.6087316 L195.770592,81.6087316 L195.770592,56.2759229 Z M78.6672469,85.1790372 L78.6672469,52.7056173 L96.7353688,52.7056173 L98.47336,61.9260538 L104.103054,61.9260538 C100.742356,47.9219202 85.2838407,38.6071606 67.1411919,40.0045405 C49.9121967,41.3339145 31.4062292,51.0696348 31.4881506,69.3036373 C31.5818333,89.4171739 49.5597076,101.043957 66.4279459,101.772341 C77.6739427,102.256766 90.328382,97.885296 99.44221,90.3662277 C99.9895172,89.9126615 100.083258,89.8521084 100.172341,89.7921375 C100.236388,89.7473049 100.295194,89.70189 100.73828,89.3304199 L101.234932,88.9146994 L121.345557,88.9082947 L121.345557,124.959531 L100.428527,124.959531 L100.428527,114.921686 C92.0390079,119.919648 78.5211043,124.677726 62.9886447,124.629982 C45.2149043,124.567682 27.9039294,117.296649 15.4937405,104.68122 C5.34206682,94.3609875 -0.159434057,81.7216865 0.0036390101,69.0917013 C0.165347303,56.6737104 5.75736812,44.8280629 15.748937,35.7362436 C28.4864039,24.1455016 47.0762725,18.1140607 65.468994,19.6192717 C79.7537098,20.7814842 92.5053834,23.9528961 101.809604,28.6246863 L101.783404,25.0871027 L123.899851,25.0871027 L123.899851,61.9080043 L129.208148,61.9080043 L129.208148,20.9350213 L118.589808,20.9350213 L118.589808,0.000682317305 L167.71528,0.000682317305 L167.71528,20.9350213 L157.093446,20.9350213 L157.093446,61.9260538 L179.512659,61.9260538 L181.18311,52.7056173 L199.340315,52.7056173 L199.340315,85.1790372 L78.6672469,85.1790372 Z M174.152543,0.547898676 C172.586895,0.547898676 171.319355,1.86249195 171.319355,3.53779904 C171.319355,5.18081501 172.586895,6.50998528 174.136822,6.50998528 L174.152543,6.50998528 C175.717608,6.50998528 176.97001,5.18081501 176.97001,3.52188055 C176.97001,1.86249195 175.717608,0.531523131 174.152543,0.547898676 Z M174.152543,7.05967959 L174.136822,7.05967959 C172.211349,7.05967959 170.646866,5.49399695 170.646866,3.53779904 C170.646866,1.55044538 172.211349,0.000682317305 174.136822,0.000682317305 C176.076851,0.000682317305 177.61164,1.55044538 177.61164,3.53779904 C177.61164,5.49399695 176.076851,7.05967959 174.152543,7.05967959 Z M173.93362,3.6622066 L173.479472,3.6622066 L173.479472,4.99385723 C173.589515,5.00841327 173.729836,5.02479172 173.93362,5.02479172 C174.638132,5.02479172 174.888496,4.67999406 174.888496,4.33474225 C174.888496,3.85098098 174.450068,3.6622066 173.93362,3.6622066 L173.93362,3.6622066 Z M174.779035,3.41248318 L174.779035,3.44341185 C175.200578,3.56805231 175.545847,3.88123426 175.545847,4.39820076 C175.545847,4.77324588 175.419501,5.04048313 175.184857,5.21288488 C174.951378,5.38459957 174.560112,5.50923421 173.965061,5.50923421 C173.495192,5.50923421 173.181946,5.46306245 172.85298,5.41484703 L172.85298,1.48653854 L173.479472,1.48653854 L173.479472,3.17844534 L173.9179,3.17844534 C174.418627,3.17844534 174.669574,2.98921681 174.762732,2.48794754 C174.841335,1.9721164 174.933911,1.61162733 175.028817,1.48653854 L175.685585,1.48653854 C175.623285,1.61162733 175.529544,1.84680054 175.436386,2.45701304 C175.357201,3.0351615 175.12314,3.34902466 174.779035,3.41248318 L174.779035,3.41248318 Z" id="path16" fill="#08284A"></path>
                    </g>
                </g>
            </g>
        </g>
    </g>
</svg>