<?xml version="1.0" encoding="UTF-8"?>
<svg width="200px" height="200px" viewBox="0 0 200 200" version="1.1" xmlns="http://www.w3.org/2000/svg" xmlns:xlink="http://www.w3.org/1999/xlink">
    <!-- Generator: Sketch 54.1 (76490) - https://sketchapp.com -->
    <title>grambling</title>
    <desc>Created with Sketch.</desc>
    <g id="grambling" stroke="none" stroke-width="1" fill="none" fill-rule="evenodd">
        <g id="grambling_BGL">
            <g id="grambling" transform="translate(0.000000, 36.000000)">
                <g id="g10" transform="translate(100.000000, 64.286337) scale(-1, 1) rotate(-180.000000) translate(-100.000000, -64.286337) translate(0.000000, 0.286337)">
                    <g id="g12">
                        <path d="M199.817924,63.5115737 C199.817924,51.4555253 194.965008,39.864925 183.735766,28.873733 C178.033416,23.2967444 170.867881,18.7652215 164.601562,15.0931589 C152.771101,8.16254114 124.572669,0.348128799 109.52132,0.348128799 C103.30374,-0.11586179 96.9288052,-0.11586179 90.3968646,0.348128799 C75.2825046,0.348128799 47.6863348,8.11209727 35.6177537,14.8922886 C26.2559785,20.1430456 15.0224539,28.0421925 7.96671869,38.5065265 C2.28948993,46.9159257 0,55.2654468 0,63.5115737 C0,75.6932966 5.69326357,88.4880744 16.9975279,98.9653587 C22.8126365,104.366577 29.877075,108.634288 35.8175796,112.130894 C47.7984322,119.186768 76.4731051,126.675367 91.5745843,126.675367 C95.1526521,127.139771 100.742556,127.139771 108.343252,126.675367 C123.607656,126.675367 151.467359,119.399823 163.699213,112.331416 C169.063181,109.236203 174.822972,105.884419 180.123929,101.373017 C194.010091,89.5171431 199.817924,76.3449937 199.817924,63.5115737 L199.817924,63.5115737" id="path14" fill="#000000" fill-rule="nonzero"></path>
                        <path d="M195.807132,63.5115737 C195.807132,52.5834626 190.627671,40.6029581 179.523755,30.4769009 C173.922015,25.363237 167.107394,21.1961352 160.991119,17.7998603 C149.511572,11.4333156 123.0691,4.35853775 108.61897,4.35853775 L91.2992144,4.35853775 C78.0898153,4.35853775 49.9923399,11.5338204 40.4299381,16.9978064 C35.3792855,19.8802084 30.1238983,22.8532979 24.8226626,26.6631151 C14.257789,34.2576493 4.11077448,49.8767612 4.11077448,60.3658819 L4.11077448,66.6576137 C4.11077448,75.3423828 12.2743948,89.7176653 20.6085286,96.7610072 C27.2758914,102.413226 34.4287198,106.755785 41.1335064,110.226977 C52.7763259,116.255176 78.0898153,122.664923 92.4772823,122.664923 L107.440902,122.664923 C122.116272,122.664923 148.433069,115.866316 160.589726,109.324279 C167.582937,105.564836 176.856741,99.5394231 182.534025,93.5488227 C191.607654,83.9742364 195.807132,73.437422 195.807132,63.5115737 L195.807132,63.5115737 Z" id="path16" fill="#DFA71C"></path>
                        <path d="M191.395644,63.0607469 C191.395644,55.7792849 189.106697,48.6583104 184.206784,41.1763262 C173.804695,25.2978236 157.285288,18.6228368 143.637594,14.2239161 C137.233417,12.1684592 117.59199,8.56912076 108.61897,8.56912076 L94.3066991,8.56912076 C79.7065254,8.56912076 55.6355077,13.9255697 43.3413392,19.6027845 C37.6640548,22.2217575 31.5132803,25.5993031 25.8235329,30.0734196 C13.9678674,39.397388 9.02346366,51.1672746 9.02346366,62.1583971 C9.02346366,80.5308944 20.3694686,96.8059158 43.5418614,107.421059 C49.6703208,110.228022 56.2193197,112.474149 62.2976486,114.216185 C68.6764126,116.04595 87.6020866,119.65709 96.3871168,119.65709 L109.94743,119.65709 C136.678848,119.65709 179.738899,101.335768 185.269969,81.3709292 L141.291902,81.3709292 C134.631502,91.6825042 114.672234,98.4020863 104.708788,98.4020863 L94.9086138,98.4020863 C93.3166208,98.4020863 84.8201894,96.84978 84.7825914,96.8372474 C65.8085275,91.7113989 53.7392502,80.9444714 53.7392502,64.8654466 C53.7392502,40.7275882 79.5310685,30.4257608 96.4873779,30.4257608 L104.232547,30.4257608 C114.897821,30.4257608 138.347081,36.7912959 141.673104,51.43603 L141.673104,51.6974748 L82.2276742,51.6974748 L82.2276742,68.9124439 L190.776671,68.9124439 C191.031501,67.4046981 191.395644,64.6896416 191.395644,63.0607469 L191.395644,63.0607469 L191.395644,63.0607469 Z" id="path16-path" fill="#000000"></path>
                    </g>
                </g>
            </g>
        </g>
    </g>
</svg>