<?xml version="1.0" encoding="UTF-8"?>
<svg width="200px" height="200px" viewBox="0 0 200 200" version="1.1" xmlns="http://www.w3.org/2000/svg" xmlns:xlink="http://www.w3.org/1999/xlink">
    <!-- Generator: Sketch 54.1 (76490) - https://sketchapp.com -->
    <title>hampton</title>
    <desc>Created with Sketch.</desc>
    <g id="hampton" stroke="none" stroke-width="1" fill="none" fill-rule="evenodd">
        <g id="hampton_BGL" transform="translate(-0.000000, 0.000000)">
            <g id="hampton" transform="translate(7.000000, 0.000000)">
                <g id="g10" transform="translate(92.999998, 99.751606) scale(-1, 1) rotate(-180.000000) translate(-92.999998, -99.751606) translate(0.000000, 0.060019)">
                    <g id="g12">
                        <path d="M151.20133,3.04776853 C137.539663,7.75063747 126.090997,11.166458 113.527997,12.9895804 C107.505331,8.82523942 100.824997,4.83857619 93.415331,1.1073068 L91.2163311,0 L89.0173311,1.1073068 C81.6273313,4.82880708 74.9583315,8.80453425 68.9403316,12.9572723 C56.4616653,11.1258145 45.0639989,7.72199697 31.4837325,3.04711504 L29.7636659,2.45530043 L33.5963325,18.5289651 L30.6564992,19.6181707 L30.5244659,19.5478531 C24.975266,16.5894469 18.9133995,13.9658578 13.3157663,11.2391428 L11.8775997,10.5385677 L11.8775997,62.4206036 L0,81.0939381 L17.9804662,81.0939381 C12.678133,99.0430916 13.5390663,111.999664 13.547533,112.116026 L13.547533,115.707924 L65.0123317,115.707924 L65.0123317,119.633572 C61.9286651,120.338082 58.9536652,121.90414 56.5269986,124.644825 L59.8933318,127.072432 C59.8933318,127.072432 56.6833319,128.090353 54.4916653,130.596312 L53.933332,131.301155 L13.5296997,131.355836 L13.970433,135.290819 C13.998033,135.539882 15.3923329,147.750601 24.5481661,161.2153 C33.7853325,174.799696 50.9053321,189.601062 82.0239979,194.63232 L89.0993311,195.212465 C88.2673311,194.337246 87.5489978,193.053925 86.9019978,191.83162 C85.4929979,189.169288 85.2579979,188.229386 85.3959979,186.43227 C85.6026645,183.735596 87.7676645,181.959152 90.6936644,181.959152 C93.6196643,181.959152 95.7929976,183.918642 95.9916643,186.43227 C96.1399976,188.307739 95.7486643,189.717425 94.652331,191.83162 C94.057331,192.979573 93.359331,194.218216 92.4986644,195.173122 L99.4329975,194.56497 C133.098997,189.005913 150.62433,171.23047 159.160663,156.907223 L182.339329,194.819367 L184.994662,199.19246 C184.994662,199.19246 186.934995,185.584391 184.838662,173.508039 C180.306662,147.405181 172.428996,133.165621 163.183663,115.707924 L168.327996,115.707924 L168.398329,112.116026 C168.407662,112.000664 169.360662,99.0437585 164.161329,81.0939381 L182.145995,81.0939381 L170.387996,62.6119848 L170.388662,10.5977158 L168.951329,11.2964572 C163.130329,14.1261979 157.368329,17.0655993 151.366663,19.4899053 L151.242996,19.5395177 L149.05533,18.6760352 L152.920663,2.45595393 L151.20133,3.04776853 Z M120.82433,131.081434 C122.937997,129.969823 128.080663,129.029921 128.080663,129.029921 C128.080663,129.029921 124.787664,126.445275 120.907664,125.256978 C116.66533,123.95832 113.519664,124.376091 112.907664,124.173707 L112.907664,122.339582 L117.04233,122.339582 L117.04233,115.71826 L133.951663,115.707924 L143.419996,131.066097 L120.82433,131.081434 L120.82433,131.081434 L120.82433,131.081434 Z" id="path14" fill="#FFFFFF" fill-rule="nonzero"></path>
                        <path d="M136.412663,112.082685 L149.96233,134.66633 L112.646331,134.660328 L110.465997,132.788861 C110.465997,132.788861 113.983664,129.090269 120.799997,128.795196 C120.799997,128.795196 115.632664,126.367589 108.273997,127.855294 L108.234997,121.356336 L98.4903309,115.64991 L82.2363313,115.64991 L75.0706648,123.887969 C75.0706648,123.887969 67.7999983,120.181376 62.0753318,124.870214 C62.0753318,124.870214 64.2773317,125.819452 65.509665,128.718176 C65.509665,128.718176 60.1279985,129.186627 57.4843319,132.622819 L61.0889985,134.660328 L18.2447995,134.66833 C18.2447995,134.66833 23.4544327,181.47103 82.8316646,191.072097 C81.741998,189.757768 81.1026646,188.158035 81.1026646,186.43227 C81.1026646,181.959152 85.3963312,178.333912 90.6936644,178.333912 C95.9909976,178.333912 100.284997,181.959152 100.284997,186.43227 C100.284997,188.129694 99.6666642,189.705755 98.6086642,191.007414 C136.379663,184.770521 152.08133,163.432521 158.491663,148.88255 L182.333329,188.620817 C182.333329,188.620817 182.176329,179.615566 181.431662,174.468613 C178.181662,152.018668 169.031329,134.782359 159.808663,117.364005 C158.850996,115.555219 157.912663,113.791445 156.999996,112.082685 L163.689996,112.082685 C163.689996,112.082685 164.883996,97.2576453 158.218663,77.4563622 L175.438662,77.4563622 L166.706329,63.7302643 L166.706329,16.528465 L161.021329,19.2915557 C157.965663,20.7767937 154.779329,22.1672746 151.472663,23.4551965 L150.805996,23.3718424 L144.733663,20.9749099 L147.78633,8.16377407 L141.562996,10.3059762 C132.64833,13.3753435 122.68033,15.7293319 111.703664,17.0465946 C105.611997,12.7675249 98.8099975,8.67080082 91.2163311,4.84757844 C83.6393312,8.66309889 76.8456647,12.7501872 70.7553316,17.019221 C59.8683318,15.6966238 49.9766654,13.3537381 41.1233323,10.3059762 L34.8993325,8.16377407 L37.9349991,20.8945565 L31.2389326,23.3759101 L30.8326659,23.4325576 C27.5130326,22.1371671 24.3144661,20.7389175 21.2482995,19.2451775 L15.5598996,16.4741848 L15.5598996,63.5382163 L6.70663317,77.4563622 L23.9521994,77.4563622 C17.1768329,97.2576453 18.2665329,112.082685 18.2665329,112.082685 L69.3059983,112.082685 L69.3059983,118.868381 L75.9459981,118.868381 L80.1423313,109.42402 L70.0039982,101.459696 L82.2366646,101.459696 L76.9933314,89.9464844 L90.6219977,97.6214029 L104.963664,89.9464844 L99.7199975,101.459696 L111.952331,101.459696 L101.814331,109.42402 L106.010997,118.868381 L112.650997,118.868381 L112.650997,112.082685 L136.412663,112.082685 L136.412663,112.082685" id="path16" fill="#1A5DAD" fill-rule="nonzero"></path>
                        <polyline id="path18" fill="#FFFFFF" fill-rule="nonzero" points="75.9536648 118.850043 79.451998 118.850043 82.2363313 115.64991 98.4903309 115.64991 103.955664 118.850043 106.002664 118.850043 101.814331 109.42402 111.952331 101.459696 99.7199975 101.459696 104.963664 89.9464844 90.6219977 97.6214029 76.9933314 89.9464844 82.2366646 101.459696 70.0039982 101.459696 80.1423313 109.42402 75.9536648 118.850043 75.9536648 118.850043"></polyline>
                        <polyline id="path20" fill="#1A5DAD" fill-rule="nonzero" points="90.5659977 113.758103 82.8793313 102.142533 90.5659977 104.190045 99.0773309 102.142533 90.5659977 113.758103 90.5659977 113.758103"></polyline>
                        <path d="M90.7329977,92.6084831 C94.2396643,92.6084831 97.2849976,90.1872112 97.2849976,86.9690734 C97.2849976,83.7516025 94.2396643,81.3303305 90.7329977,81.3303305 C87.2273312,81.3303305 84.1813312,83.7516025 84.1813312,86.9690734 C84.1813312,90.1872112 87.2273312,92.6084831 90.7329977,92.6084831 L90.7329977,92.6084831" id="path22" fill="#FFFFFF" fill-rule="nonzero"></path>
                        <path d="M120.330664,98.4909536 L128.784997,94.4969552 L179.475996,179.106772 C179.475996,179.106772 179.514996,178.049508 178.888662,174.291235 C175.225996,152.30774 166.786996,135.897638 157.594996,118.537298 C149.576663,103.39518 142.95233,91.4231868 141.15433,88.6244872 L149.37433,84.6304888 L145.77333,77.8177858 L116.44533,91.7982806 L120.330664,98.4909536 L120.330664,98.4909536" id="path24" fill="#FFFFFF" fill-rule="nonzero"></path>
                        <polyline id="path26" fill="#FFFFFF" fill-rule="nonzero" points="66.312665 137.800113 70.5399982 156.750184 91.677331 164.580808 102.480997 161.135613 104.516331 155.341165 92.1469977 158.942732 74.1413315 153.148283 68.504665 139.209799 66.312665 137.800113 66.312665 137.800113"></polyline>
                        <path d="M68.7499983,132.454777 C68.8703316,134.157869 69.9136649,135.529546 71.0879982,136.156036 C70.8129982,135.384843 70.0349982,134.082517 70.6576649,132.397096 C71.3229982,130.596312 72.9103315,130.018501 74.5329981,130.478616 C76.2676648,130.970739 77.1386647,132.794862 76.7246647,134.550634 C76.4919981,135.538548 75.9196648,136.170039 75.2256648,136.677499 C77.4469981,136.18871 78.658998,134.808365 78.9166647,132.710841 C79.256998,129.944816 76.7666647,127.688586 73.9846648,127.542549 C71.0096649,127.38551 68.5519983,129.661412 68.7499983,132.454777 L68.7499983,132.454777" id="path28" fill="#FFFFFF" fill-rule="nonzero"></path>
                        <path d="M133.19133,92.290737 L167.428329,150.247225 C164.014329,140.149367 158.370329,129.690753 153.512329,120.515459 C145.579996,105.534048 138.96933,93.6830851 137.189997,90.9133927 L136.926997,90.5032902 L133.19133,92.290737 L133.19133,92.290737" id="path30" fill="#1A5DAD" fill-rule="nonzero"></path>
                        <path d="M76.9596647,181.798445 C76.9596647,182.635988 77.0423314,183.454859 77.2009981,184.248724 C78.405998,178.20288 83.9886646,173.631404 90.6936644,173.631404 C97.3989976,173.631404 102.981664,178.20288 104.186997,184.248724 C104.344997,183.454859 104.427664,182.635988 104.427664,181.798445 C104.427664,174.581641 98.2793309,168.731512 90.6936644,168.731512 C83.1083313,168.731512 76.9596647,174.581641 76.9596647,181.798445 L76.9596647,181.798445" id="path32" fill="#FFFFFF" fill-rule="nonzero"></path>
                        <path d="M44.5203322,134.66833 C44.3823322,137.624069 44.2203322,153.70909 55.9396653,166.439272 C55.9396653,166.439272 39.013999,155.199129 37.8366657,134.66833 L44.5203322,134.66833 L44.5203322,134.66833" id="path34" fill="#FFFFFF" fill-rule="nonzero"></path>
                        <path d="M137.268997,134.66833 C137.406997,137.624069 137.568997,153.70909 125.849664,166.439272 C125.849664,166.439272 142.77533,155.199129 143.95233,134.66833 L137.268997,134.66833 L137.268997,134.66833" id="path36" fill="#FFFFFF" fill-rule="nonzero"></path>
                        <path d="M56.5166653,77.4263547 C54.387332,82.0004981 52.2806654,86.6096502 52.2806654,86.6096502 L48.1783321,82.426938 C42.7569989,90.2212197 38.2396657,106.989411 36.9419991,112.116026 L57.1763319,112.116026 C59.2866652,105.341666 62.2709984,97.1889615 65.5949984,92.4104336 L69.6973316,96.5931459 C69.6973316,96.5931459 73.7469982,87.1787925 78.8356647,77.4263547 L56.5166653,77.4263547 L56.5166653,77.4263547" id="path38" fill="#FFFFFF" fill-rule="nonzero"></path>
                        <polyline id="path40" fill="#1A5DAD" fill-rule="nonzero" points="46.3529988 112.116026 47.9163321 94.992079 39.4996657 112.116026 46.3529988 112.116026 46.3529988 112.116026"></polyline>
                        <polyline id="path42" fill="#1A5DAD" fill-rule="nonzero" points="54.862332 112.116026 56.3356653 95.9829933 48.4059988 112.116026 54.862332 112.116026 54.862332 112.116026"></polyline>
                        <polyline id="path44" fill="#FFFFFF" fill-rule="nonzero" points="108.824331 77.4263547 119.392664 87.148785 138.086663 78.0645142 138.086663 77.4263547 108.824331 77.4263547 108.824331 77.4263547"></polyline>
                        <polyline id="path46" fill="#FFFFFF" fill-rule="nonzero" points="82.6219979 152.593811 92.3036644 155.654243 102.103664 152.953234 81.9233313 148.757186 85.5709979 151.817284 82.6219979 152.593811 82.6219979 152.593811"></polyline>
                        <path d="M104.516331,150.563971 L105.299331,147.744933 L101.129664,147.705256 L102.480997,142.498621 C105.299331,142.263896 106.395331,144.299738 106.395331,144.299738 L107.963664,138.427937 L106.495331,135.216134 C106.495331,135.216134 104.046997,137.095604 101.776664,137.643741 L102.402997,139.757936 L99.2993309,140.435439 L96.1556643,139.194462 L98.4883309,148.21505 L96.2049976,149.05326 C98.7473309,149.495037 102.708997,150.230887 104.516331,150.563971 L104.516331,150.563971" id="path48" fill="#FFFFFF" fill-rule="nonzero"></path>
                        <path d="M97.9623309,134.981409 C97.9623309,134.981409 94.126331,130.282901 86.5103312,130.752685 C86.5103312,130.752685 88.4389978,128.581142 86.3166645,126.778358 C84.1946646,124.975241 88.6243311,123.783609 88.6243311,123.783609 C88.6243311,123.783609 90.6903311,127.272815 95.2786643,126.916059 C99.8729975,126.55797 99.0363309,123.313825 99.0363309,123.313825 L101.327997,123.313825 L103.911997,129.186627 C103.911997,129.186627 99.1856642,130.849709 97.9623309,134.981409 L97.9623309,134.981409" id="path50" fill="#FFFFFF" fill-rule="nonzero"></path>
                        <path d="M82.9093313,146.335914 C82.9093313,146.335914 82.6739979,140.703839 87.9979978,140.776191 C93.7909977,140.85421 93.4779977,146.257227 93.4779977,146.257227 L95.1216643,145.86613 L92.012331,138.387927 C92.012331,138.387927 87.4323311,137.800113 84.4186646,134.354919 L81.9233313,137.099605 L83.5356646,139.288152 L80.0006647,139.165788 L78.7773314,140.936231 L81.1873313,142.968405 L77.5536647,143.444858 L79.3013314,145.511041 L82.9093313,146.335914 L82.9093313,146.335914" id="path52" fill="#FFFFFF" fill-rule="nonzero"></path>
                        <path d="M171.833996,75.4765339 L164.727996,64.3064083 L164.727996,19.6912557 L161.885996,21.0723342 C158.639329,22.6503287 155.247329,24.1233636 151.72133,25.4817698 L150.311996,25.3046255 L142.410663,22.1858792 L145.026663,11.2075016 L142.207663,12.1776441 C127.88533,17.1079099 110.922664,20.2097519 91.5046644,20.2097519 L91.1816644,20.2097519 C71.7639982,20.2097519 54.8009986,17.1079099 40.4793323,12.1776441 L37.6596657,11.2075016 L40.266999,22.1418682 L31.7245992,25.306726 L30.5963659,25.4633985 C27.0523327,24.0966569 23.6436327,22.6139863 20.3817662,21.0249224 L17.5390662,19.6405763 L17.5390662,64.1143603 L10.3115997,75.4765339 L171.833996,75.4765339 L171.833996,75.4765339" id="path54" fill="#FFFFFF" fill-rule="nonzero"></path>
                        <path d="M19.5162662,22.8033669 L19.5162662,64.6908378 L13.9131663,73.4997064 L168.232329,73.4997064 L162.750663,64.8822189 L162.750663,22.8507788 C143.203663,32.3520872 118.45233,38.0988571 91.1823311,38.0988571 C63.8663317,38.0988571 39.0776657,32.3330825 19.5162662,22.8033669 L19.5162662,22.8033669" id="path56" fill="#1A5DAD" fill-rule="nonzero"></path>
                        <path d="M148.783996,26.8330076 L140.423996,23.1021416 L142.850996,14.0479116 C128.314997,19.0517625 111.133331,22.1871796 91.504331,22.1871796 L91.3429977,22.1871796 L91.1823311,22.1871796 C71.5526649,22.1871796 54.371332,19.0517625 39.835999,14.0479116 L42.2563323,23.1021416 L33.4233325,26.7763601 C50.2409987,32.8395757 69.9239983,36.3634233 91.1823311,36.3634233 C112.374331,36.3634233 132.00133,32.861848 148.783996,26.8330076 L148.783996,26.8330076" id="path58" fill="#1A5DAD" fill-rule="nonzero"></path>
                        <path d="M55.5846653,27.1561217 C54.8869986,30.1768101 51.870332,29.3530375 49.6959988,28.8512121 C48.5116655,28.5774436 47.3363321,28.2683997 46.1493322,28.0063342 C46.0526655,27.9843287 45.7303322,27.9479863 45.7639989,27.8033168 C45.8169989,27.5735594 46.2583322,27.8663326 46.3503322,27.467933 L48.0406655,20.1443689 C48.1299988,19.7576723 47.6076655,19.8156201 47.6606655,19.585896 C47.7023321,19.4048507 48.8899988,19.7172955 49.0953321,19.7643072 C49.9289988,19.9569554 50.7516654,20.1977489 51.600332,20.3807613 C51.6966654,20.4031336 52.0219987,20.4277731 51.9856654,20.5848457 C51.9326654,20.8145698 51.4886654,20.5331328 51.399332,20.9199295 L50.9389987,22.9140613 C52.7149987,23.3241971 54.799332,23.5001411 55.5269986,25.4753682 C55.7199986,26.0165368 55.7099986,26.6122524 55.5846653,27.1561217 L55.5846653,27.1561217 Z M52.377332,26.4409762 C52.5336654,25.7643738 51.6719987,25.5273479 51.1766654,25.4127192 C50.9229987,25.3540045 50.6516654,25.3169953 50.3976654,25.2582806 L50.0936654,26.5756432 L50.8643321,26.7660575 C51.3446654,26.8896551 52.2126654,27.1540545 52.377332,26.4409762 L52.377332,26.4409762 L52.377332,26.4409762 Z" id="path60" fill="#FFFFFF"></path>
                        <path d="M59.8046652,30.6516621 C59.8416652,30.4193374 60.3023318,30.680336 60.3666652,30.2759349 L61.5419985,22.8527126 C61.6023318,22.4733178 61.0869985,22.5552382 61.1236651,22.3222467 C61.1529985,22.1384674 62.3593318,22.367558 62.5676651,22.4002662 C63.4126651,22.5342663 64.2623317,22.7187124 65.1089984,22.8403428 C65.194665,22.8540129 65.5333317,22.8574138 65.507665,23.017087 C65.4713317,23.2494451 65.0083317,23.0008163 64.9463317,23.3925809 L63.7709984,30.8156365 C63.7089984,31.2078012 64.2239984,31.1257473 64.1889984,31.3465025 C64.1616651,31.517912 62.9549984,31.2891882 62.7469984,31.2558465 C61.9019985,31.1224798 61.0506651,30.9498033 60.2036652,30.8280062 C60.1183318,30.8143361 59.7816652,30.7986989 59.8046652,30.6516621 L59.8046652,30.6516621" id="path62" fill="#FFFFFF" fill-rule="nonzero"></path>
                        <path d="M80.983998,24.6155199 C80.9753313,24.7145113 80.4536647,24.8435769 80.313998,25.0179872 L78.3073314,27.4692333 C79.4126647,28.0636485 80.140998,28.9865459 80.0263313,30.29624 C79.9886647,30.7283813 79.8746647,31.1791607 79.6073313,31.5294816 C78.5896647,32.9218963 77.5956647,32.8968901 76.0026648,32.7575219 L70.3083316,32.259364 C70.2339982,32.2531291 70.0613316,32.237992 70.0709982,32.1266642 C70.0913316,31.892339 70.5693316,32.1199959 70.6049982,31.7126274 L71.2599982,24.2257225 C71.2936649,23.8426934 70.7853316,23.9600227 70.8059982,23.7255975 C70.8223316,23.5398844 72.0416649,23.6839204 72.2519982,23.7018915 C73.1043315,23.7769103 73.9646648,23.9019416 74.8176648,23.9643238 C74.9043315,23.9716256 75.2423315,23.9512872 75.2283315,24.1123942 C75.2073315,24.3467194 74.7286648,24.1303653 74.6939981,24.526431 L74.5286648,26.4162367 L75.3809981,26.4909888 C75.5639981,26.2456274 76.7206647,24.6912055 76.7313314,24.5674746 C76.7499981,24.357122 76.3076648,24.4307071 76.3269981,24.2086516 C76.3446648,24.0107021 77.5879981,24.1697085 77.7979981,24.1876796 C78.711998,24.2677997 79.6336647,24.3981656 80.548998,24.4657492 C80.6353313,24.4738178 80.996998,24.4678497 80.983998,24.6155199 L80.983998,24.6155199 Z M74.3423315,28.5417681 L74.1943315,30.2342578 L74.9236648,30.2979404 C75.4543314,30.3443187 76.4829981,30.3969318 76.5489981,29.6434768 C76.6223314,28.8029 75.7396648,28.6511621 75.0969981,28.5951814 C74.8503315,28.5738094 74.5896648,28.5631401 74.3423315,28.5417681 L74.3423315,28.5417681 L74.3423315,28.5417681 Z" id="path64" fill="#FFFFFF"></path>
                        <path d="M91.438331,28.3553881 L89.7646644,28.3553881 L90.5956644,31.1088098 L91.438331,28.3553881 Z M93.3236643,33.2296733 C93.3236643,33.3040252 93.1869977,33.3162616 93.137331,33.3162616 C92.6166644,33.3533375 92.0956644,33.3533375 91.5749977,33.3533375 C90.5336644,33.3533375 89.4796644,33.3162616 88.4379978,33.3286313 C88.3513311,33.3286313 88.0659978,33.3533375 88.0659978,33.2296733 C88.0659978,33.0189206 88.4129978,33.1052755 88.4129978,32.9321989 C88.4129978,32.5224631 85.7719979,26.3589224 85.3753312,25.3663743 C85.3133312,25.2180372 85.2759979,25.0442938 85.1153312,24.9822783 C85.0159979,24.9445022 84.7926645,24.9445022 84.7926645,24.7958984 C84.7926645,24.5974154 86.0946645,24.634558 86.3299978,24.634558 C87.1979978,24.634558 88.0783311,24.6845705 88.9589978,24.6715339 C89.0579978,24.6715339 89.2439978,24.634558 89.2439978,24.7958984 C89.2439978,24.9822783 88.8346644,24.919896 88.8346644,25.2050006 C88.8346644,25.3913805 88.9959978,25.7884798 89.0579978,25.9864293 L92.170331,25.9864293 C92.2196644,25.8254557 92.3809977,25.3663743 92.3809977,25.2302736 C92.3809977,24.8948898 91.9716644,24.9822783 91.9716644,24.8085348 C91.9716644,24.5728093 93.174331,24.634558 93.3976643,24.634558 C94.290331,24.634558 95.1829976,24.6715339 96.0763309,24.6715339 C96.1626643,24.6715339 96.4106643,24.6467944 96.4106643,24.7958984 C96.4106643,24.9822783 96.0383309,24.9329326 95.9516643,25.0812697 C95.7159976,25.4777355 92.951331,32.8078011 92.951331,32.9075594 C92.951331,33.1176453 93.3236643,33.0062841 93.3236643,33.2296733 L93.3236643,33.2296733 L93.3236643,33.2296733 Z" id="path66" fill="#FFFFFF"></path>
                        <path d="M108.752664,32.9958815 C108.529997,33.0116521 108.661997,32.5921472 108.266331,32.6194874 L100.350331,33.1736593 C99.9419975,33.2016663 100.156331,33.5970651 99.9213308,33.6140693 C99.7603308,33.6250721 99.8053308,33.3730091 99.7983308,33.273951 C99.7479975,32.5571051 99.6733308,31.840626 99.6236642,31.1353831 C99.6113308,30.9498033 99.4929975,29.9764934 99.6666642,29.9638569 C99.8893308,29.9484864 99.7576642,30.3806277 100.153664,30.3526541 L102.416664,30.1945145 L102.049997,24.9489366 C102.021997,24.5531377 101.564331,24.7589224 101.548331,24.5238303 C101.534997,24.3381173 102.762331,24.2900719 102.960331,24.275735 C103.813664,24.2163535 104.682997,24.2053841 105.534997,24.1329993 C105.621664,24.1273979 105.952331,24.054313 105.963664,24.2150532 C105.980331,24.4501119 105.485664,24.3107771 105.513664,24.7061759 L105.880331,29.952154 C106.374997,29.9177787 106.857997,29.89614 107.352997,29.8617647 C107.600331,29.8441936 107.872997,29.837792 108.118997,29.7954815 C108.462997,29.7341328 108.274664,29.3616397 108.497331,29.3460024 C108.658331,29.334933 108.626331,29.5864292 108.632664,29.6851539 C108.682997,30.4029 108.745997,31.1191123 108.795664,31.8369918 C108.807997,32.0099684 108.925664,32.9836451 108.752664,32.9958815 L108.752664,32.9958815" id="path68" fill="#FFFFFF" fill-rule="nonzero"></path>
                        <path d="M116.74233,25.157322 L116.88733,26.18948 C117.549997,26.0964901 118.216664,26.0274729 118.867997,25.9361834 C119.211664,25.8874712 119.55533,25.8391258 119.895997,25.7664743 C120.379664,25.6484781 120.085997,25.2513789 120.331997,25.2166035 C120.47933,25.1959984 120.49933,25.6060009 120.512997,25.7044588 L120.745997,27.2751848 C120.77033,27.4472278 120.941997,28.2247555 120.732997,28.2540628 C120.524664,28.2831034 120.665997,27.774643 120.15033,27.8475945 L117.178997,28.2649989 L117.325664,29.3090265 C118.098997,29.1999993 118.87633,29.1160116 119.649664,29.0072511 C120.04233,28.9519039 120.44933,28.9072261 120.83733,28.8151364 C121.34633,28.693506 121.04033,28.2980738 121.29833,28.2617647 C121.44533,28.2414263 121.454997,28.665499 121.466664,28.7514538 L121.713664,30.4206377 C121.73833,30.5922806 121.918664,31.431157 121.709664,31.4604643 C121.50133,31.489905 121.640664,30.9694749 121.124997,31.0417597 L114.150997,32.0216713 C114.064997,32.034041 113.73833,32.1173952 113.717997,31.9703585 C113.684997,31.7372335 114.201664,31.8519622 114.14533,31.4469276 L113.099664,24.0040337 C113.046331,23.623872 112.577331,23.8523292 112.544997,23.6185374 C112.530664,23.5202128 112.627664,23.4949398 112.688664,23.4858042 C113.184997,23.3658742 113.714997,23.3041254 114.23033,23.2318407 C115.617997,23.0364919 117.027997,22.9133944 118.41533,22.7180456 C118.931664,22.6456275 119.460997,22.5840454 119.957664,22.4639488 C120.44133,22.3455525 120.14633,21.9364836 120.40433,21.9001412 C120.55133,21.8791692 120.55933,22.2915057 120.572997,22.3899636 L120.81833,24.0463777 C120.84233,24.2184207 121.02133,25.0449273 120.812664,25.0739679 C120.603664,25.1032752 120.744664,24.5948148 120.22933,24.6678997 L116.74233,25.157322 L116.74233,25.157322" id="path70" fill="#FFFFFF" fill-rule="nonzero"></path>
                        <path d="M133.823663,24.8025667 C134.12433,24.9829451 136.029997,26.6806362 136.095663,26.8434435 L136.02333,26.9631068 C135.911997,26.9781105 135.83733,26.8817198 135.752663,26.9026917 C135.608663,26.9390341 134.489663,27.7806445 134.224663,27.9490532 C133.49333,28.3997992 132.69333,28.7781605 131.851663,28.9886131 C130.034663,29.4410929 127.30133,29.3432684 126.745997,27.1168119 C126.19733,24.9145614 128.377663,24.1280314 129.97533,23.5125109 C130.230997,23.410152 130.973997,23.2121691 130.877663,22.8273063 C130.787663,22.4659159 130.369663,22.5323325 130.092997,22.6013498 C129.551997,22.7362835 127.120997,23.6999244 127.27733,24.3257475 C127.295663,24.3981656 127.33733,24.4644488 127.36733,24.5334661 L127.279997,24.6448273 C127.08133,24.6692 125.248664,22.8507788 124.938664,22.5832452 C124.890664,22.5443022 124.82733,22.4959901 124.809997,22.423572 L124.884664,22.3149448 C125.010997,22.3089767 125.125664,22.4086016 125.209664,22.3878964 L125.278664,22.3579223 C126.021997,21.7505037 126.593664,21.1732595 127.501997,20.767558 C128.25133,20.4401429 129.03333,20.1430686 129.826663,19.9453525 C131.82433,19.4469279 134.082663,19.7399678 134.663997,22.0745181 C135.14133,23.9880297 132.90033,24.9432018 131.489663,25.5377505 C131.281997,25.6284065 130.412663,25.934483 130.484997,26.2228217 C130.571663,26.572009 130.989663,26.5059592 131.24233,26.4429434 C131.98833,26.2572303 133.17633,25.6414431 133.75733,25.1509538 L133.77533,25.0702003 C133.739663,24.9763101 133.69133,24.8352415 133.823663,24.8025667 L133.823663,24.8025667" id="path72" fill="#FFFFFF" fill-rule="nonzero"></path>
                        <polyline id="path74" fill="#FFFFFF" points="136.480997 20.586146 136.984997 20.436742 136.984997 18.6403263 137.54833 18.4729845 137.54833 20.2694002 138.051997 20.1203963 138.051997 20.5521375 136.480997 21.0182874 136.480997 20.586146 136.480997 20.586146"></polyline>
                        <polyline id="path76" fill="#FFFFFF" fill-rule="nonzero" points="138.163997 18.2905055 138.595663 18.1622068 138.595663 19.8649991 138.60233 19.8632987 138.955663 18.0555468 139.296997 17.9544882 139.681663 19.4869046 139.687997 19.484804 139.687997 17.8384592 140.25133 17.671084 140.25133 19.9002746 139.48433 20.1276981 139.199997 18.9624068 139.19333 18.964374 138.95233 20.2850041 138.163997 20.5187959 138.163997 18.2905055 138.163997 18.2905055"></polyline>
                        <path d="M39.7846657,33.7734425 C38.199999,33.2719838 34.6826658,32.1233967 33.1325658,31.6155698 L33.1325658,50.0075006 L29.6386659,50.0075006 L29.6386659,30.3532876 C27.415766,29.5304152 24.4051994,28.2951064 22.9869661,27.706926 L22.9869661,66.298573 L20.5781328,70.0275051 L29.6386659,70.0275051 L29.6386659,55.5288808 L33.1325658,55.5288808 L33.1325658,70.0275051 L39.7846657,70.0275051 L39.7846657,33.7734425 L39.7846657,33.7734425" id="path78" fill="#FFFFFF" fill-rule="nonzero"></path>
                        <path d="M133.104663,65.7834442 C132.853663,66.4296057 132.296997,66.7316813 131.625663,66.7323481 C131.036997,66.7323481 130.537663,66.4836192 130.201663,65.9991648 C130.007663,65.7117596 129.919997,65.2649813 129.867997,64.8085338 C129.813663,64.3287472 129.785663,63.6885872 129.785663,62.8880538 L129.785663,44.1837115 C129.785663,42.474951 129.848997,41.2799856 130.020997,40.7565214 C130.26233,40.076018 130.83533,39.7352662 131.534997,39.6929222 C132.293663,39.647911 132.899663,39.991997 133.139997,40.7368499 C133.32233,41.302658 133.390663,42.5199623 133.390663,44.2590637 L133.390663,62.8880538 C133.390663,64.2543953 133.318997,65.2716496 133.104663,65.7834442 L133.104663,65.7834442 Z M139.823663,41.3833448 C139.698663,40.2463939 139.291663,39.2241384 138.600997,38.3135774 C137.931663,37.4163532 137.01633,36.7405175 135.835997,36.2957397 C134.65433,35.850295 133.254663,35.6659156 131.622997,35.7636067 C130.07733,35.8566299 128.702997,36.1887129 127.490997,36.7508535 C126.304664,37.3186621 125.358664,38.1078593 124.640664,39.1204458 C123.91333,40.1457021 123.48833,41.226639 123.35233,42.3692579 C123.205664,43.6022328 123.13333,45.7477691 123.13333,48.8078674 L123.13333,58.1572045 C123.13333,61.1456182 123.19933,63.2561458 123.333997,64.4927883 C123.47133,65.6570793 123.878997,66.710676 124.56433,67.6705826 C125.252664,68.6194865 126.18033,69.3533366 127.36833,69.8717995 C128.554663,70.3905959 129.95633,70.6583295 131.587997,70.6583295 C133.131663,70.6583295 134.49733,70.4019321 135.689997,69.904141 C136.882663,69.421687 137.829997,68.6988397 138.54233,67.7382662 C139.264997,66.7636893 139.687997,65.7137601 139.82433,64.5821439 C139.970663,63.3578379 140.04233,61.216636 140.04233,58.1572045 L140.04233,47.7235964 C140.04233,44.73785 139.970663,42.6226546 139.823663,41.3833448 L139.823663,41.3833448 L139.823663,41.3833448 Z" id="path80" fill="#FFFFFF"></path>
                        <path d="M50.9936654,64.4217705 C50.9936654,64.4217705 48.9753321,54.0024993 48.7769988,51.3358327 L48.7306654,50.7146774 L52.674332,50.7146774 L52.5996654,51.3598387 C52.2039987,54.7553541 50.9936654,64.4217705 50.9936654,64.4217705 L50.9936654,64.4217705 Z M59.9796652,38.5403008 C58.2523319,38.2675659 54.8416653,37.5907301 53.4186653,37.304992 L52.7876653,46.5469689 L48.9033321,46.5469689 L48.2479988,36.1053588 C46.4379988,35.6685829 43.0963323,34.8063674 41.5606656,34.4086013 L45.0456655,66.8677153 L42.9406656,70.0311727 L48.0913321,70.0311727 L55.6566653,70.0275051 L59.9796652,38.5403008 L59.9796652,38.5403008 L59.9796652,38.5403008 Z" id="path82" fill="#FFFFFF" fill-rule="nonzero"></path>
                        <path d="M84.9506645,40.9192288 L79.2816647,40.6788354 L79.2816647,60.7385164 L75.4979981,40.3304149 L71.5929982,40.0386753 L65.6453317,58.7680239 L67.6823316,39.5665573 L62.0136651,38.7856955 L62.0133318,66.7966975 L59.9609985,70.024171 L62.0136651,70.0275051 L71.0516649,70.0275051 C71.3246649,68.3337484 71.6129982,66.3722581 71.9166649,64.1450347 L73.5949982,52.2200537 L75.4233314,66.6209869 L73.2399982,70.024171 L75.8556648,70.0275051 L84.9506645,70.0275051 L84.9506645,40.9192288 L84.9506645,40.9192288" id="path84" fill="#FFFFFF" fill-rule="nonzero"></path>
                        <path d="M94.7839976,55.5772263 L95.3286643,55.5458851 C95.5643309,55.532215 95.7669976,55.5262135 95.9369976,55.5262135 C96.7206642,55.5262135 97.4386642,55.7112598 97.8749976,56.2660651 C98.2983309,56.7995318 98.4256642,57.7300977 98.4256642,58.8323733 L98.4256642,62.9994149 C98.4256642,64.0180029 98.2806642,64.9245629 97.7663309,65.42002 C97.2623309,65.9044745 96.3716643,66.0451763 95.3626643,66.0458431 L94.7839976,66.0458431 L94.7839976,55.5772263 L94.7839976,55.5772263 Z M95.4179976,70.0275051 C97.5253309,70.0275051 99.0936642,69.8607968 100.152331,69.5500524 C101.239664,69.2343068 101.991664,68.7931966 102.465664,68.2683987 C102.971331,67.718928 103.318997,67.0404251 103.497331,66.2295557 C103.687997,65.4186864 103.797664,62.4062667 103.798331,60.502124 L103.798331,57.8864702 C103.798331,55.9853283 103.598331,54.6913381 103.255997,53.9308147 C102.929664,53.2079673 102.320331,52.6238213 101.359331,52.2000487 C100.408997,51.774609 99.1189975,51.5448849 97.4583309,51.5448849 L94.7839976,51.5448849 L94.7839976,45.0132522 L97.7369976,40.938567 L91.1806644,41.0135857 L88.1319978,41.0155862 L88.1319978,66.8520447 L86.1109978,70.0461765 L91.2616644,70.0461765 L95.4179976,70.0275051 L95.4179976,70.0275051 L95.4179976,70.0275051 Z" id="path86" fill="#FFFFFF" fill-rule="nonzero"></path>
                        <polyline id="path88" fill="#FFFFFF" fill-rule="nonzero" points="105.617331 61.9171444 105.617331 69.9061415 105.621664 70.0275051 121.528664 70.0275051 121.528664 62.3589215 116.891997 64.3057415 116.891997 42.47095 119.32233 38.9754095 107.868331 40.1193622 110.240331 43.0460938 110.240331 64.3057415 105.617331 61.9171444 105.617331 61.9171444"></polyline>
                        <polyline id="path90" fill="#FFFFFF" fill-rule="nonzero" points="140.784663 34.2685663 143.00133 37.5347161 143.00133 66.7083421 141.022663 70.028172 148.496663 70.0275051 153.907663 47.6499113 153.907663 70.0275051 161.426996 70.0275051 159.279996 66.8690489 159.279996 27.6951898 153.510329 30.0122023 148.373663 45.0465939 148.373663 31.892339 140.784663 34.2685663 140.784663 34.2685663"></polyline>
                    </g>
                </g>
            </g>
        </g>
    </g>
</svg>