<?xml version="1.0" encoding="UTF-8"?>
<svg width="200px" height="200px" viewBox="0 0 200 200" version="1.1" xmlns="http://www.w3.org/2000/svg" xmlns:xlink="http://www.w3.org/1999/xlink">
    <!-- Generator: Sketch 63.1 (92452) - https://sketch.com -->
    <title>indiana-st</title>
    <desc>Created with Sketch.</desc>
    <g id="indiana-st" stroke="none" stroke-width="1" fill="none" fill-rule="evenodd">
        <g id="indiana-st_BGL" transform="translate(0.000000, 0.000000)">
            <g id="indiana-st-copy" transform="translate(0.000000, 13.000000)">
                <path d="M194.820151,59.9672544 L192.798992,59.4644836 C191.851385,59.2287154 180.525945,56.6619647 176.713854,55.8176322 L171.628715,54.7193955 C166.29068,53.6166247 160.855919,52.6191436 155.465995,51.7541562 L149.829723,50.9390428 L149.164232,50.8458438 L149.164232,0.158186398 L83.7380353,0.158186398 L72.6644836,3.38690176 L54.9722922,0.0609571788 L54.9722922,49.5969773 C52.4413098,49.8901763 49.9057935,50.2075567 47.3959698,50.5511335 L42.2171285,51.297733 L42.1899244,51.3017632 C39.6206549,51.6906801 30.3848866,53.2881612 30.2881612,53.3047859 L30.240806,53.3133501 C27.6806045,53.7874055 17.8952141,55.7838791 17.8,55.8035264 L17.7269521,55.8191436 C13.9874055,56.6468514 8.0534005,58.1838791 7.09722922,58.4216625 L5.0675063,58.9264484 L0.0236775819,67.3193955 L0,95.061461 L7.65541562,103.684131 L12.7138539,102.387406 C16.0690176,101.527456 21.3168766,100.303778 22.8478589,99.9521411 L27.5667506,98.938539 L42.0070529,96.3370277 L47.7375315,95.4775819 L49.720403,95.2065491 C51.4629723,94.9687657 53.2176322,94.7425693 54.9738035,94.529471 L54.9803526,132.530479 L43.5108312,174.307305 L110.033249,158.849874 L129.284635,138.49068 L149.164232,138.49068 L149.164232,95.865995 C151.151637,96.1602015 152.765743,96.4020151 152.798489,96.4070529 C157.915869,97.2292191 163.083123,98.17733 168.151637,99.2246851 L173.039295,100.270529 C176.784383,101.100252 183.477078,102.480101 187.200504,103.434257 L192.305793,104.742569 L199.912343,96.0302267 L199.912343,68.3400504 L194.820151,59.9672544" id="Fill-1" fill="#CBCAC4"></path>
                <path d="M78.9319899,119.285139 L88.8997481,107.148111 L88.8997481,87.0236776 C90.9763224,86.9753149 93.0670025,86.9435768 95.1324937,86.9314861 L98.679597,86.9108312 L100.269521,86.9214106 L103.7733,86.9858942 C105.798489,87.02267 112.84131,87.2992443 115.355164,87.3989924 L115.355164,107.149622 L125.246851,119.21864 L78.9319899,119.285139 Z M125.385894,20.0216625 L115.420151,32.1556675 L115.420151,52.6780856 L104.806549,52.2821159 C104.129471,52.2680101 96.213602,52.204534 96.213602,52.204534 C95.5299748,52.2060453 94.8433249,52.2100756 94.1561713,52.2156171 L90.0277078,52.2745592 C89.6554156,52.2816121 89.2846348,52.2921914 88.9128463,52.3002519 L88.9128463,49.3455919 L88.8997481,49.3415617 L88.8997481,32.1556675 L78.9335013,20.0216625 L125.385894,20.0216625 Z M191.587406,64.3627204 C191.587406,64.3627204 179.511335,61.6055416 175.629723,60.7460957 L170.607557,59.6609572 C165.344081,58.5738035 159.987406,57.5904282 154.687154,56.7395466 L149.128463,55.9360202 L147.555668,55.7153652 C146.43728,55.5586902 145.31335,55.4070529 144.187406,55.2599496 L144.187406,5.08916877 L84.3969773,5.08916877 L72.8670025,8.45138539 L59.8584383,6.00554156 L59.8584383,49.0211587 C60.6387909,49.2700252 67.5491184,51.4690176 72.8801008,53.02267 C71.6337531,53.106801 70.386398,53.1959698 69.1476071,53.2926952 L61.3400504,53.9788413 L59.4256927,54.1798489 C55.6564232,54.5753149 51.8423174,55.0357683 48.0891688,55.5496222 L42.9455919,56.2906801 C40.431738,56.6715365 31.1596977,58.275063 31.1596977,58.275063 C28.6609572,58.7380353 18.8176322,60.7460957 18.8176322,60.7460957 C14.9425693,61.6035264 8.31536524,63.3188917 8.31536524,63.3188917 L5.06851385,68.7209068 L5.04785894,93.1465995 L9.38488665,98.0312343 L11.4609572,97.4992443 C15.2392947,96.5304786 21.790932,95.0176322 21.790932,95.0176322 L26.5979849,93.9853904 L41.1944584,91.3566751 L47.0322418,90.4811083 L49.036272,90.2075567 C52.6191436,89.7168766 56.2589421,89.2765743 59.8609572,88.8957179 L59.8664987,133.194962 L50.4120907,167.630227 L107.425189,154.382368 L127.114861,133.559194 L144.187406,133.559194 L144.187406,95.1501259 C142.678589,94.3561713 135.383375,90.520403 131.71335,88.6100756 C134.272544,88.8780856 138.491184,89.3259446 140.152645,89.5274559 L143.072544,89.8952141 C145.577834,90.2211587 153.578841,91.4216625 153.578841,91.4216625 C158.779849,92.256927 164.032746,93.2206549 169.192443,94.2871537 L174.117884,95.3410579 C177.919899,96.1833753 184.671033,97.5768262 188.452897,98.5460957 L190.548615,99.0836272 L194.865995,94.1375315 L194.865995,69.7541562 L191.587406,64.3627204 L191.587406,64.3627204 Z" id="Fill-3" fill="#1E437B"></path>
                <path d="M128.573804,79.8528967 C126.305793,79.665995 124.036272,79.5002519 121.766247,79.3561713 C121.789924,73.7561713 121.813602,68.1566751 121.83728,62.5571788 C121.31335,62.1919395 120.789924,61.8277078 120.265995,61.4644836 C123.061965,61.631738 125.856423,61.831738 128.648866,62.0634761 C128.623678,67.9934509 128.598489,73.9229219 128.573804,79.8528967 Z M119.389421,56.9889169 C118.71738,57.8493703 118.045844,58.711335 117.373804,59.5748111 C117.344081,66.6367758 117.313854,73.6982368 117.283627,80.7596977 C117.948111,81.7168766 118.612091,82.6755668 119.276071,83.636272 C123.105793,83.8534005 126.932997,84.1314861 130.755668,84.4700252 C131.426196,83.618136 132.096725,82.7687657 132.766751,81.9214106 C132.796474,74.8352645 132.827204,67.7486146 132.856927,60.6629723 C132.194458,59.7143577 131.531486,58.7677582 130.86801,57.82267 C127.04534,57.484131 123.219144,57.2065491 119.389421,56.9889169 L119.389421,56.9889169 Z" id="Fill-4" fill="#FFFFFE"></path>
                <path d="M190.721914,75.7128463 C190.728463,74.0906801 190.735516,72.4685139 190.742569,70.8463476 C190.093199,69.7889169 189.443325,68.7329975 188.793451,67.6790932 C184.989924,66.7078086 181.175315,65.7989924 177.349622,64.9531486 C176.688161,65.706801 176.0267,66.4629723 175.364232,67.2201511 C175.352141,70.2015113 175.339547,73.1828715 175.326448,76.1647355 C175.937531,77.1465995 176.547607,78.1304786 177.158186,79.1163728 C180.212091,80.6926952 183.25995,82.3093199 186.300252,83.9652393 C186.293199,85.7496222 186.285642,87.5345088 186.278086,89.3193955 C184.084635,88.7753149 181.887657,88.2518892 179.687657,87.7491184 C179.689673,87.1047859 179.692695,86.4604534 179.695214,85.8161209 C178.230227,85.0453401 176.763728,84.2836272 175.295718,83.5314861 C175.288161,85.2030227 175.281108,86.8745592 175.274055,88.5460957 C175.928967,89.5748111 176.582368,90.6055416 177.236272,91.6372796 C181.061965,92.4836272 184.876574,93.3924433 188.679597,94.363728 C189.337531,93.6307305 189.994458,92.9002519 190.651889,92.1717884 C190.665491,89.0453401 190.678589,85.9183879 190.691688,82.7919395 C190.247859,82.0267003 189.804534,81.2619647 189.360705,80.4982368 C186.161713,78.7188917 182.95466,76.9843829 179.74005,75.2942065 C179.746599,73.865995 179.752141,72.4377834 179.758186,71.0095718 C179.20806,70.5284635 178.657935,70.0488665 178.106801,69.5702771 C180.861461,70.1828715 183.610579,70.8277078 186.353652,71.5047859 C186.349622,72.097733 186.346599,72.6906801 186.342569,73.2836272 C187.80403,74.084131 189.263476,74.8937028 190.721914,75.7128463" id="Fill-5" fill="#FFFFFE"></path>
                <path d="M11.7455919,66.9274559 C11.0866499,67.9879093 10.4277078,69.0503778 9.76926952,70.1148615 C9.75667506,73.0962217 9.7440806,76.0775819 9.73148615,79.0594458 C10.338539,79.7551637 10.9465995,80.4528967 11.5541562,81.1516373 C14.5969773,81.3012594 17.6468514,81.4906801 20.7032746,81.720403 C20.6957179,83.5047859 20.6881612,85.2896725 20.6806045,87.0740554 C18.4760705,87.5581864 16.2745592,88.0629723 14.0770781,88.5884131 C14.079597,87.9435768 14.0821159,87.2992443 14.0851385,86.6549118 C12.6216625,86.5697733 11.1602015,86.493199 9.70025189,86.4261965 C9.69319899,88.097733 9.6861461,89.7687657 9.6790932,91.440806 C10.329471,92.1622166 10.9808564,92.8861461 11.6322418,93.6115869 C15.4433249,92.6730479 19.265995,91.7969773 23.0982368,90.9833753 C23.7607053,89.9440806 24.4241814,88.906801 25.0871537,87.8710327 C25.1002519,84.7445844 25.1138539,81.6176322 25.1269521,78.4911839 C24.6790932,77.9355164 24.2312343,77.3808564 23.7838791,76.8267003 C20.5586902,76.5506297 17.3400504,76.3193955 14.1299748,76.1329975 C14.1360202,74.7047859 14.1420655,73.2765743 14.1481108,71.8483627 C13.5984887,71.6251889 13.0493703,71.4030227 12.4997481,71.1823678 C15.2463476,70.5088161 17.9989924,69.8685139 20.7566751,69.2594458 C20.7526448,69.8534005 20.7491184,70.4468514 20.7455919,71.0403023 C22.2146096,71.1551637 23.6851385,71.2785894 25.1571788,71.4120907 C25.1642317,69.7899244 25.1707809,68.1677582 25.1778338,66.5455919 C24.5224181,65.7949622 23.8664987,65.0458438 23.2115869,64.2987406 C19.3793451,65.1123426 15.5566751,65.9884131 11.7455919,66.9274559" id="Fill-6" fill="#FFFFFE"></path>
                <path d="M76.0498741,71.4675063 C76.6831234,68.759194 77.315869,66.0523929 77.9491184,63.3471033 C78.5486146,65.981864 79.1481108,68.618136 79.7481108,71.2554156 C78.5148615,71.3198992 77.2821159,71.3904282 76.0498741,71.4675063 Z M80.6423174,56.8559194 C77.9979849,56.9879093 75.3556675,57.1486146 72.7138539,57.338539 C72.7083123,58.6715365 72.7027708,60.004534 72.6972292,61.3375315 C73.1843829,61.4458438 73.6725441,61.5551637 74.1596977,61.6649874 L74.1602015,61.6649874 L74.1602015,61.6654912 C74.1602015,61.665995 74.1602015,61.6664987 74.1596977,61.6670025 C72.6473552,67.6967254 71.1350126,73.7360202 69.6236776,79.7843829 C69.1239295,79.9707809 68.6246851,80.1581864 68.124937,80.3465995 C68.1193955,81.6765743 68.1133501,83.0065491 68.1078086,84.3360202 C70.5697733,84.1289673 73.0332494,83.9460957 75.4982368,83.7889169 C75.5037783,82.4599496 75.5093199,81.1299748 75.5148615,79.8005038 C75.0161209,79.6856423 74.5168766,79.5717884 74.018136,79.4589421 C74.3007557,78.2962217 74.5828715,77.1335013 74.8654912,75.9707809 C76.8634761,75.8397985 78.8624685,75.724937 80.8624685,75.627204 C81.134005,76.7526448 81.4055416,77.8780856 81.6770781,79.0040302 C81.6785894,79.0095718 81.6801008,79.0141058 81.6816121,79.0191436 L81.6811083,79.0196474 C81.1803526,79.1894207 80.679597,79.3602015 80.1793451,79.5324937 C80.1738035,80.8619647 80.168262,82.1919395 80.1622166,83.5219144 C82.6392947,83.3959698 85.1173804,83.2947103 87.5964736,83.2196474 C87.6020151,81.8896725 87.6075567,80.5602015 87.6130982,79.2302267 C87.1138539,79.0987406 86.6141058,78.9687657 86.1143577,78.8392947 C84.2896725,71.4972292 82.465995,64.1697733 80.6423174,56.8559194 L80.6423174,56.8559194 Z" id="Fill-7" fill="#FFFFFE"></path>
                <path d="M156.764232,65.0075567 C157.259446,65.2347607 157.75466,65.4624685 158.250882,65.6916877 C158.225189,71.631738 158.2,77.5717884 158.174307,83.5123426 C157.678086,83.5763224 157.18136,83.6418136 156.684131,83.7083123 C156.678589,85.040806 156.673048,86.372796 156.667506,87.7052897 C161.895214,88.5496222 167.108816,89.5088161 172.304282,90.5828715 C172.315365,88.031738 172.325945,85.4811083 172.337028,82.9299748 C171.03073,83.0488665 169.723929,83.1748111 168.415617,83.3078086 C168.412594,83.9914358 168.409572,84.675063 168.406549,85.3586902 C166.474055,84.9813602 164.539043,84.6201511 162.602015,84.2740554 C162.612091,82.040806 162.621662,79.8075567 162.63073,77.5738035 C164.12796,77.8413098 165.623174,78.1178841 167.116877,78.4035264 C167.115869,78.7118388 167.114358,79.0201511 167.11335,79.3279597 C168.431738,79.5803526 169.748615,79.8403023 171.064484,80.1073048 C171.074055,78.0120907 171.08262,75.9168766 171.091688,73.8221662 C169.775819,73.5546599 168.457935,73.2952141 167.139547,73.0428212 C167.138539,73.3511335 167.137028,73.6589421 167.135516,73.9672544 C165.642317,73.6811083 164.146599,73.404534 162.649874,73.1375315 C162.657935,71.2342569 162.665491,69.3309824 162.674055,67.4277078 C162.166247,67.0120907 161.658942,66.5974811 161.151637,66.1838791 C163.598489,66.6100756 166.042821,67.061461 168.482116,67.5380353 C168.479093,68.2221662 168.476574,68.9062972 168.473552,69.5899244 C169.778841,70.2332494 171.082116,70.884131 172.384887,71.5415617 L172.38539,71.5420655 C172.396474,68.990932 172.407053,66.4397985 172.418136,63.888665 C167.221662,62.8146096 162.008564,61.8554156 156.780856,61.0110831 C156.774811,62.343073 156.76927,63.6755668 156.764232,65.0075567" id="Fill-8" fill="#FFFFFE"></path>
                <path d="M39.5047859,65.2488665 C40.0005038,65.3138539 40.4967254,65.3798489 40.9929471,65.4468514 C39.7914358,67.8035264 38.5904282,70.1667506 37.3904282,72.5355164 C36.4261965,70.9360202 35.4629723,69.3405542 34.5007557,67.7486146 C33.8760705,67.4604534 33.2513854,67.1738035 32.6267003,66.888665 C33.5289673,66.7229219 34.431738,66.5612091 35.3345088,66.4025189 C35.3410579,64.9259446 35.3471033,63.4498741 35.3531486,61.9732997 C32.8846348,62.4100756 30.4201511,62.8730479 27.9586902,63.3612091 C27.9531486,64.6916877 27.9476071,66.0216625 27.9420655,67.3516373 C28.4357683,67.4 28.929471,67.4488665 29.4236776,67.4992443 C31.3319899,70.7672544 33.2433249,74.0508816 35.1561713,77.3506297 C35.1460957,79.6387909 35.1365239,81.9269521 35.1269521,84.2151134 C34.6302267,84.4498741 34.134005,84.6861461 33.6377834,84.9229219 C33.6322418,86.2523929 33.6267003,87.581864 33.6211587,88.9108312 C36.0876574,88.4629723 38.5581864,88.0403023 41.031738,87.6438287 C41.0372796,86.3143577 41.0428212,84.9848866 41.0483627,83.6554156 C40.5521411,83.5879093 40.0559194,83.5224181 39.5596977,83.456927 C39.5692695,81.2055416 39.5788413,78.9541562 39.5884131,76.7027708 C41.3687657,73.0488665 43.1501259,69.4080605 44.9335013,65.7803526 C44.4382872,65.5390428 43.9435768,65.2987406 43.4488665,65.0594458 C44.6080605,64.8816121 45.7677582,64.7093199 46.9279597,64.5425693 C46.9345088,63.0664987 46.9405542,61.5899244 46.9471033,60.1138539 C44.4690176,60.470529 41.9939547,60.8528967 39.5219144,61.2609572 C39.515869,62.5899244 39.5103275,63.9193955 39.5047859,65.2488665" id="Fill-9" fill="#FFFFFE"></path>
                <path d="M52.0055416,59.4221662 C51.3375315,60.4065491 50.6685139,61.3924433 50.0010076,62.3803526 C49.9707809,69.4418136 49.9410579,76.5032746 49.9108312,83.5647355 C50.5712846,84.3979849 51.231738,85.2327456 51.8926952,86.0690176 C55.6035264,85.5884131 59.320403,85.1647355 63.0413098,84.7984887 C63.7118388,83.82267 64.381864,82.8488665 65.0523929,81.8760705 C65.0604534,80.0065491 65.0680101,78.1365239 65.0760705,76.2664987 C63.7521411,76.7778338 62.4287154,77.2962217 61.1062972,77.8221662 C61.102267,78.7375315 61.0982368,79.6528967 61.0942065,80.5687657 C58.8518892,80.8015113 56.6110831,81.0554156 54.3717884,81.3299748 C54.3949622,75.720403 54.4191436,70.1103275 54.4428212,64.5007557 C53.9395466,64.2423174 53.436272,63.9848866 52.9335013,63.7284635 C55.6760705,63.3808564 58.4221662,63.0644836 61.1697733,62.7793451 C61.1657431,63.706801 61.1622166,64.6337531 61.1581864,65.5612091 C62.4775819,65.8125945 63.7974811,66.0710327 65.1183879,66.3370277 C65.1264484,64.4307305 65.1345088,62.5244332 65.1425693,60.618136 C64.479597,59.7939547 63.8171285,58.9717884 63.1541562,58.1516373 C59.4332494,58.5173804 55.7168766,58.9410579 52.0055416,59.4221662" id="Fill-10" fill="#FFFFFE"></path>
                <path d="M102.484131,67.902267 C101.431234,64.0649874 100.376826,60.2327456 99.3234257,56.404534 C96.4589421,56.4005038 93.5939547,56.4297229 90.729471,56.493199 C90.7239295,57.82267 90.7183879,59.1521411 90.7128463,60.4816121 C91.213602,60.6176322 91.7148615,60.7541562 92.2156171,60.8921914 C92.1904282,66.8216625 92.1652393,72.7516373 92.1400504,78.6811083 C91.6377834,78.8372796 91.1355164,78.9939547 90.6337531,79.1516373 C90.6277078,80.4811083 90.6221662,81.8105793 90.6166247,83.1400504 C93.1128463,83.0851385 95.6100756,83.0554156 98.106801,83.0518892 C98.1123426,81.7224181 98.1178841,80.3929471 98.1234257,79.0629723 C97.62267,78.9168766 97.1214106,78.7722922 96.6206549,78.6282116 C96.6428212,73.3753149 96.6654912,68.1224181 96.6876574,62.8690176 C98.3370277,68.1743073 99.986398,73.4906801 101.635768,78.8191436 C102.181864,78.8236776 102.72796,78.8292191 103.274055,78.836272 C104.968766,73.5425693 106.662469,68.2604534 108.357179,62.9904282 C108.344081,65.9299748 108.33199,68.8700252 108.319395,71.8095718 C108.309824,74.1229219 108.299748,76.436272 108.290176,78.7496222 C107.787909,78.8831234 107.285642,79.0176322 106.783879,79.1531486 C106.778338,80.4826196 106.772292,81.8120907 106.766751,83.1415617 C109.262972,83.1974811 111.759194,83.2785894 114.253904,83.3858942 C114.258942,82.0564232 114.264987,80.7264484 114.270529,79.3969773 C113.770277,79.2287154 113.269521,79.0619647 112.768766,78.8952141 C112.792443,73.2851385 112.816121,67.675063 112.840302,62.0644836 C112.335013,61.7244332 111.829219,61.3858942 111.323929,61.0478589 C112.33199,61.0836272 113.34005,61.1234257 114.348111,61.1677582 C114.354156,59.6911839 114.360705,58.2151134 114.366751,56.738539 C111.504282,56.6161209 108.640302,56.5269521 105.776826,56.4720403 C104.679597,60.2770781 103.581864,64.0871537 102.484131,67.902267" id="Fill-11" fill="#FFFFFE"></path>
                <path d="M147.265995,72.0584383 C145.439798,71.8125945 143.611587,71.5803526 141.782368,71.3627204 C141.792947,69.0191436 141.802519,66.6760705 141.812594,64.3329975 C141.316373,63.9576826 140.820151,63.5838791 140.323929,63.2105793 C142.651385,63.4801008 144.976826,63.7717884 147.299748,64.0861461 C147.288665,66.7435768 147.277582,69.4010076 147.265995,72.0584383 Z M152.235264,82.5858942 C151.271537,80.3622166 150.307305,78.1420655 149.342569,75.9259446 C150.13199,75.2 150.920403,74.4760705 151.708312,73.7551637 C151.724433,70.1506297 151.739547,66.5460957 151.75466,62.9415617 C151.095214,61.9581864 150.435264,60.9768262 149.775819,59.9969773 C145.152141,59.3420655 140.518388,58.7768262 135.878086,58.3012594 C135.872544,59.6307305 135.866499,60.9602015 135.860957,62.2896725 C136.360202,62.4876574 136.858942,62.6871537 137.357683,62.8871537 C137.332494,68.8166247 137.307305,74.7465995 137.282116,80.6765743 C136.782368,80.7697733 136.281612,80.8644836 135.781864,80.9602015 C135.775819,82.2891688 135.770781,83.6186398 135.764736,84.9486146 C138.251889,85.2035264 140.73602,85.484131 143.21864,85.7899244 C143.224181,84.4609572 143.229723,83.1314861 143.235264,81.8015113 C142.737531,81.5934509 142.239295,81.3858942 141.741058,81.1798489 C141.748615,79.3838791 141.756675,77.5874055 141.763728,75.7914358 C142.905793,75.9274559 144.046851,76.0690176 145.187909,76.2161209 C146.011083,78.1193955 146.833753,80.0251889 147.655919,81.934005 C147.654912,81.9365239 147.653401,81.938539 147.651889,81.9405542 C147.154156,82.0176322 146.657431,82.0957179 146.160202,82.1748111 C146.154156,83.5042821 146.148615,84.8337531 146.143073,86.1632242 C148.667506,86.4952141 151.189421,86.8544081 153.708312,87.2397985 C153.713854,85.9103275 153.719899,84.5808564 153.724937,83.2508816 C153.228715,83.0287154 152.732494,82.8070529 152.235264,82.5858942 L152.235264,82.5858942 Z" id="Fill-12" fill="#FFFFFE"></path>
            </g>
        </g>
    </g>
</svg>