<?xml version="1.0" encoding="UTF-8"?>
<svg width="200px" height="200px" viewBox="0 0 200 200" version="1.1" xmlns="http://www.w3.org/2000/svg" xmlns:xlink="http://www.w3.org/1999/xlink">
    <!-- Generator: Sketch 54.1 (76490) - https://sketchapp.com -->
    <title>ipfw</title>
    <desc>Created with Sketch.</desc>
    <g id="ipfw" stroke="none" stroke-width="1" fill="none" fill-rule="evenodd">
        <g id="ipfw_BGL">
            <g id="ipfw" transform="translate(16.000000, 0.000000)">
                <path d="M9.63461538,0.495049505 L23.0242604,0.495049505 L23.5183432,0.594059406 L23.9136095,0.693069307 C26.6804734,1.33663366 28.7556213,3.26732673 29.6449704,5.99009901 C30.6331361,9.6039604 30.1884615,13.7623762 27.0757396,16.2376238 C24.2100592,18.4653465 21.0973373,18.1188119 17.737574,18.1188119 C17.737574,20.1485149 17.737574,22.1782178 17.737574,24.1584158 C15.0695266,24.1584158 12.4014793,24.1584158 9.73343195,24.1584158 C9.63461538,16.2376238 9.63461538,8.36633663 9.63461538,0.495049505 Z M17.6881657,7.12871287 C17.6881657,8.51485149 17.6881657,9.9009901 17.6881657,11.2871287 C18.8245562,11.2376238 20.1091716,11.2871287 21.2455621,10.990099 C22.3325444,10.049505 22.1843195,8.71287129 21.5914201,7.57425743 C20.4056213,7.07920792 18.9233728,7.17821782 17.6881657,7.12871287 Z" id="Shape" fill="#231F20" fill-rule="nonzero"></path>
                <path d="M35.1786982,0.495049505 L43.1828402,0.495049505 C43.1828402,4.95049505 43.1828402,9.40594059 43.1828402,13.8613861 C43.2322485,15 43.2322485,16.2871287 44.3192308,16.8811881 C45.6038462,17.4752475 47.4813609,17.4752475 48.5683432,16.5346535 C49.3094675,15.5940594 49.1612426,14.4554455 49.2106509,13.3663366 C49.1612426,9.05940594 49.2106509,4.8019802 49.2106509,0.495049505 L57.3136095,0.495049505 C57.3136095,4.95049505 57.3136095,9.40594059 57.3136095,13.8613861 C57.3136095,16.1386139 57.1159763,18.3168317 55.7819527,20.2970297 C53.9044379,23.1188119 50.6928994,24.3069307 47.4319527,24.5049505 C43.9239645,24.7029703 40.366568,24.1089109 37.747929,21.5841584 C35.7715976,19.6534653 35.1786982,17.0792079 35.1786982,14.4059406 C35.1786982,9.75247525 35.2281065,5.0990099 35.1786982,0.495049505 Z" id="Shape" fill="#231F20" fill-rule="nonzero"></path>
                <path d="M63.7366864,0.495049505 L77.3239645,0.495049505 L78.2627219,0.693069307 C79.7449704,1.13861386 81.1284024,1.73267327 82.1659763,2.92079208 C84.0928994,5.04950495 84.4881657,8.16831683 84.0434911,10.9405941 C83.6482249,12.970297 82.462426,14.3564356 81.0295858,15.6930693 C82.3142012,18.5148515 83.5,21.3366337 84.7846154,24.1584158 C81.9683432,24.1584158 79.1026627,24.1584158 76.2863905,24.1584158 C75.2982249,21.980198 74.3594675,19.7524752 73.3713018,17.5742574 C72.8278107,17.5742574 72.2843195,17.5742574 71.7408284,17.5742574 C71.7408284,19.7524752 71.7408284,21.9306931 71.7408284,24.1089109 C69.1221893,24.1089109 66.454142,24.1089109 63.835503,24.1089109 C63.7366864,16.2376238 63.7366864,8.36633663 63.7366864,0.495049505 Z M71.6420118,7.12871287 C71.6420118,8.36633663 71.6420118,9.6039604 71.6420118,10.7920792 C72.8772189,10.7425743 74.458284,10.9405941 75.5946746,10.3960396 C76.4346154,9.35643564 75.9405325,8.46534653 75.7428994,7.32673267 C74.3594675,7.22772277 73.0254438,7.17821782 71.6420118,7.12871287 Z" id="Shape" fill="#231F20" fill-rule="nonzero"></path>
                <path d="M90.0218935,0.495049505 L102.522189,0.495049505 L103.016272,0.544554455 L103.411538,0.594059406 C105.931361,1.08910891 108.25355,2.17821782 109.785207,4.35643564 C111.613314,6.98019802 111.909763,10.7425743 111.761538,13.8613861 C111.563905,16.4851485 110.971006,19.1584158 109.093491,21.1386139 C107.11716,23.2673267 104.202071,24.1089109 101.336391,24.1584158 C97.5813609,24.1584158 93.8263314,24.1584158 90.0713018,24.1584158 C90.0218935,16.2376238 90.0218935,8.36633663 90.0218935,0.495049505 Z M98.0754438,7.12871287 C98.0754438,10.5940594 98.0754438,14.0594059 98.0754438,17.4752475 C99.6565089,17.2772277 102.571598,17.7722772 103.164497,15.7425743 C103.856213,13.960396 103.806805,10.7920792 103.213905,8.96039604 C102.522189,6.83168317 99.8047337,7.32673267 98.0754438,7.12871287 Z" id="Shape" fill="#231F20" fill-rule="nonzero"></path>
                <path d="M117.492899,0.495049505 L125.497041,0.495049505 C125.497041,4.95049505 125.497041,9.40594059 125.497041,13.8613861 C125.54645,14.9009901 125.54645,16.0891089 126.485207,16.7821782 C128.263905,17.7722772 131.475444,17.4752475 131.524852,14.8514851 C131.623669,10.049505 131.524852,5.24752475 131.57426,0.445544554 L139.578402,0.445544554 C139.578402,5.04950495 139.578402,9.7029703 139.578402,14.3069307 C139.578402,16.4851485 139.232544,18.5643564 137.997337,20.3465347 C136.268047,22.8712871 133.402367,24.0594059 130.43787,24.3564356 C126.97929,24.6534653 123.125444,24.2574257 120.407988,21.8316832 C118.33284,20.049505 117.492899,17.4752475 117.492899,14.7524752 C117.443491,10.0990099 117.492899,5.2970297 117.492899,0.495049505 Z" id="Shape" fill="#231F20" fill-rule="nonzero"></path>
                <path d="M146.001479,0.495049505 L164.282544,0.495049505 C164.282544,2.72277228 164.282544,4.95049505 164.282544,7.17821782 C160.873373,7.17821782 157.464201,7.17821782 154.005621,7.17821782 C154.005621,7.77227723 154.005621,8.31683168 154.005621,8.91089109 C157.019527,8.91089109 160.033432,8.91089109 162.997929,8.91089109 C162.997929,11.1881188 162.997929,13.4653465 162.997929,15.7425743 C159.984024,15.7425743 156.970118,15.7425743 153.956213,15.7425743 C153.956213,16.3366337 153.956213,16.8811881 153.956213,17.4752475 C157.365385,17.4752475 160.774556,17.4752475 164.183728,17.4752475 C164.183728,19.7029703 164.183728,21.9306931 164.183728,24.1584158 C158.106509,24.1584158 151.979882,24.1584158 145.902663,24.1584158 C146.001479,16.2376238 145.952071,8.36633663 146.001479,0.495049505 Z" id="Shape" fill="#231F20" fill-rule="nonzero"></path>
                <path d="M11.1168639,1.88118812 L11.4133136,1.88118812 C14.3778107,1.78217822 17.3423077,1.83168317 20.3068047,1.83168317 C22.3325444,1.83168317 24.3088757,1.93069307 25.9887574,3.16831683 C29.743787,6.08910891 29.6449704,13.019802 25.395858,15.4950495 C22.8760355,17.0792079 19.1210059,16.4851485 16.2059172,16.5841584 C16.2059172,18.6633663 16.2059172,20.6930693 16.2059172,22.7722772 C14.5260355,22.7722772 12.8461538,22.7722772 11.1168639,22.7722772 C11.1168639,15.7920792 11.1662722,8.86138614 11.1168639,1.88118812 Z M17.6881657,7.12871287 C17.6881657,8.51485149 17.6881657,9.9009901 17.6881657,11.2871287 C18.8245562,11.2376238 20.1091716,11.2871287 21.2455621,10.990099 C22.3325444,10.049505 22.1843195,8.71287129 21.5914201,7.57425743 C20.4056213,7.07920792 18.9233728,7.17821782 17.6881657,7.12871287 Z" id="Shape" fill="#DAAC27" fill-rule="nonzero"></path>
                <path d="M36.6609467,1.88118812 C38.3408284,1.88118812 40.0207101,1.88118812 41.7005917,1.83168317 C41.7994083,5.84158416 41.7005917,9.85148515 41.75,13.8613861 C41.8488166,15.3960396 41.8982249,17.029703 43.2816568,17.970297 C44.7639053,18.960396 47.135503,18.960396 48.7659763,18.2178218 C50.4952663,17.3762376 50.6928994,15.5940594 50.7423077,13.8613861 C50.7423077,9.85148515 50.7423077,5.84158416 50.7423077,1.83168317 C52.4221893,1.83168317 54.102071,1.83168317 55.7819527,1.83168317 C55.7819527,5.99009901 55.7819527,10.1485149 55.7819527,14.3069307 C55.7819527,16.2871287 55.485503,18.1683168 54.2502959,19.7524752 C52.6198225,21.8811881 49.9517751,22.8217822 47.3825444,22.970297 C44.3686391,23.1188119 41.3547337,22.7722772 39.0325444,20.6930693 C37.3526627,19.1584158 36.6609467,17.029703 36.6609467,14.8019802 C36.6609467,10.5445545 36.710355,6.18811881 36.6609467,1.88118812 Z" id="Shape" fill="#DAAC27" fill-rule="nonzero"></path>
                <path d="M65.1201183,1.88118812 C68.4798817,1.88118812 71.7902367,1.88118812 75.1005917,1.88118812 C77.1757396,1.93069307 79.2508876,2.17821782 80.8319527,3.71287129 C82.7588757,5.69306931 83.2529586,9.10891089 82.2647929,11.6336634 C81.6224852,13.3168317 80.2884615,14.1584158 78.9050296,15.1485149 C80.4366864,17.5742574 81.3260355,20.1980198 82.5118343,22.8217822 C80.7331361,22.8217822 78.9544379,22.8217822 77.2251479,22.8217822 C76.3852071,20.990099 75.6934911,19.0594059 74.7547337,17.2772277 C74.2112426,15.6435644 71.6914201,16.2871287 70.3573964,16.0891089 C70.3573964,18.3168317 70.3573964,20.5940594 70.3573964,22.8217822 C68.6281065,22.8217822 66.8988166,22.8217822 65.1695266,22.8217822 C65.1201183,15.7920792 65.0707101,8.81188119 65.1201183,1.88118812 Z M71.6420118,7.12871287 C71.6420118,8.36633663 71.6420118,9.6039604 71.6420118,10.7920792 C72.8772189,10.7425743 74.458284,10.9405941 75.5946746,10.3960396 C76.4346154,9.35643564 75.9405325,8.46534653 75.7428994,7.32673267 C74.3594675,7.22772277 73.0254438,7.17821782 71.6420118,7.12871287 Z" id="Shape" fill="#DAAC27" fill-rule="nonzero"></path>
                <path d="M91.5535503,1.88118812 C94.814497,1.88118812 98.0754438,1.78217822 101.336391,1.93069307 C103.856213,2.07920792 106.326627,2.67326733 108.105325,4.65346535 C109.933432,6.68316832 110.328698,9.8019802 110.378107,12.4257426 C110.378107,15.1980198 109.884024,18.3663366 107.808876,20.3960396 C105.881953,22.2277228 103.411538,22.7227723 100.842308,22.8217822 C97.7789941,22.8712871 94.6662722,22.8217822 91.5535503,22.8217822 C91.504142,15.7920792 91.504142,8.81188119 91.5535503,1.88118812 Z M98.0754438,7.12871287 C98.0754438,10.5940594 98.0754438,14.0594059 98.0754438,17.4752475 C99.6565089,17.2772277 102.571598,17.7722772 103.164497,15.7425743 C103.856213,13.960396 103.806805,10.7920792 103.213905,8.96039604 C102.522189,6.83168317 99.8047337,7.32673267 98.0754438,7.12871287 Z" id="Shape" fill="#DAAC27" fill-rule="nonzero"></path>
                <path d="M118.975148,1.88118812 C120.65503,1.88118812 122.334911,1.88118812 124.014793,1.88118812 C124.064201,5.89108911 123.965385,9.9009901 124.014793,13.9108911 C124.113609,15.5445545 124.212426,17.2277228 125.744083,18.1188119 C127.176923,18.960396 129.795562,18.960396 131.228402,18.1683168 C132.858876,17.2772277 132.957692,15.5445545 133.056509,13.9108911 C133.105917,9.9009901 133.056509,5.89108911 133.056509,1.93069307 C134.736391,1.93069307 136.416272,1.93069307 138.096154,1.93069307 C138.096154,5.94059406 138.096154,9.95049505 138.096154,13.9108911 C138.096154,15.990099 137.947929,17.970297 136.712722,19.7029703 C134.884615,22.1782178 131.87071,23.0693069 128.955621,23.1188119 C125.892308,23.2178218 122.828994,22.5742574 120.704438,20.1980198 C119.271598,18.5643564 118.92574,16.5346535 118.92574,14.4554455 C118.92574,10.1980198 118.975148,6.03960396 118.975148,1.88118812 Z" id="Shape" fill="#DAAC27" fill-rule="nonzero"></path>
                <path d="M147.533136,1.83168317 C152.622189,1.88118812 157.711243,1.88118812 162.750888,1.83168317 C162.750888,3.16831683 162.800296,4.5049505 162.800296,5.79207921 C159.391124,5.79207921 155.932544,5.79207921 152.523373,5.79207921 C152.523373,7.27722772 152.523373,8.76237624 152.523373,10.2475248 C155.537278,10.2475248 158.551183,10.2475248 161.51568,10.2475248 C161.51568,11.6336634 161.51568,12.970297 161.51568,14.3069307 C158.501775,14.3069307 155.48787,14.3069307 152.523373,14.3069307 C152.523373,15.7920792 152.523373,17.2772277 152.523373,18.7623762 C155.932544,18.7623762 159.341716,18.7623762 162.800296,18.7623762 C162.800296,20.0990099 162.800296,21.3861386 162.800296,22.7227723 C157.711243,22.7227723 152.572781,22.7227723 147.483728,22.7227723 C147.533136,15.7920792 147.43432,8.81188119 147.533136,1.83168317 Z" id="Shape" fill="#DAAC27" fill-rule="nonzero"></path>
                <path d="M16.2059172,5.84158416 C18.083432,5.89108911 20.2573964,5.54455446 22.0360947,6.18811881 C24.0618343,7.27722772 23.9630178,11.5346535 21.739645,12.4257426 C20.010355,12.8712871 18.0340237,12.6237624 16.2059172,12.6732673 C16.1565089,10.3465347 16.1565089,8.06930693 16.2059172,5.84158416 Z M17.6881657,7.12871287 C17.6881657,8.51485149 17.6881657,9.9009901 17.6881657,11.2871287 C18.8245562,11.2376238 20.1091716,11.2871287 21.2455621,10.990099 C22.3325444,10.049505 22.1843195,8.71287129 21.5914201,7.57425743 C20.4056213,7.07920792 18.9233728,7.17821782 17.6881657,7.12871287 Z" id="Shape" fill="#231F20" fill-rule="nonzero"></path>
                <path d="M70.3079882,5.84158416 C72.1360947,5.89108911 74.2112426,5.64356436 75.9899408,6.08910891 C78.3121302,7.02970297 78.0156805,12.029703 75.15,12.0792079 C73.5689349,12.2277228 71.8890533,12.1287129 70.3079882,12.1287129 C70.2585799,10 70.2585799,7.92079208 70.3079882,5.84158416 Z M71.6420118,7.12871287 C71.6420118,8.36633663 71.6420118,9.6039604 71.6420118,10.7920792 C72.8772189,10.7425743 74.458284,10.9405941 75.5946746,10.3960396 C76.4346154,9.35643564 75.9405325,8.46534653 75.7428994,7.32673267 C74.3594675,7.22772277 73.0254438,7.17821782 71.6420118,7.12871287 Z" id="Shape" fill="#231F20" fill-rule="nonzero"></path>
                <path d="M96.5931953,5.79207921 C98.5695266,5.84158416 100.990533,5.4950495 102.818639,6.33663366 C104.79497,7.27722772 104.992604,9.95049505 105.09142,11.8811881 C105.140828,13.7623762 104.992604,16.6831683 103.36213,17.970297 C101.583432,19.2574257 98.6189349,18.7623762 96.543787,18.8118812 C96.5931953,14.4554455 96.5931953,10.1485149 96.5931953,5.79207921 Z M98.0754438,7.12871287 C98.0754438,10.5940594 98.0754438,14.0594059 98.0754438,17.4752475 C99.6565089,17.2772277 102.571598,17.7722772 103.164497,15.7425743 C103.856213,13.960396 103.806805,10.7920792 103.213905,8.96039604 C102.522189,6.83168317 99.8047337,7.32673267 98.0754438,7.12871287 Z" id="Shape" fill="#231F20" fill-rule="nonzero"></path>
                <path d="M32.7576923,28.7128713 C36.1174556,28.7128713 39.4278107,28.7128713 42.7381657,28.7128713 C42.7381657,30.1980198 42.7381657,31.6831683 42.7381657,33.1683168 C41.8488166,33.1683168 40.9100592,33.1683168 40.0207101,33.1683168 C40.0207101,32.5742574 40.0207101,32.029703 40.0207101,31.4356436 C38.9337278,31.4356436 37.8961538,31.4356436 36.8091716,31.4356436 C36.8091716,32.029703 36.8091716,32.6732673 36.8091716,33.2673267 C37.6491124,33.2673267 38.439645,33.2673267 39.2795858,33.2673267 C39.2795858,34.1584158 39.2795858,35.0990099 39.2795858,35.990099 C38.439645,35.990099 37.6491124,35.990099 36.8091716,35.990099 C36.8091716,36.5346535 36.8091716,37.029703 36.8091716,37.5742574 L38.0443787,37.5742574 C38.0443787,38.5148515 38.0443787,39.4554455 38.0443787,40.3960396 C36.2656805,40.3960396 34.4869822,40.3960396 32.7576923,40.3960396 C32.7576923,39.4554455 32.7576923,38.5148515 32.708284,37.6237624 L33.6964497,37.5247525 C33.6964497,35.5940594 33.6964497,33.6138614 33.6964497,31.6831683 L32.708284,31.5841584 C32.708284,30.6435644 32.708284,29.7029703 32.7576923,28.7128713 Z" id="Shape" fill="#231F20" fill-rule="nonzero"></path>
                <path d="M66.8,28.7128713 C70.4068047,28.7128713 73.9642012,28.7128713 77.5710059,28.7128713 C77.5710059,30.1980198 77.5710059,31.6831683 77.5710059,33.1683168 C76.6816568,33.1683168 75.841716,33.1683168 75.0017751,33.1683168 C75.0017751,32.5742574 75.0017751,31.9306931 75.0017751,31.2871287 C74.6065089,31.2871287 74.2112426,31.2871287 73.766568,31.2871287 C73.766568,33.3663366 73.766568,35.4455446 73.766568,37.5742574 C74.1618343,37.6237624 74.5076923,37.6237624 74.9029586,37.6732673 C74.9029586,38.6138614 74.9029586,39.5544554 74.9029586,40.4950495 C73.1242604,40.4950495 71.3455621,40.4950495 69.6162722,40.4950495 C69.6162722,39.5544554 69.6162722,38.6138614 69.6162722,37.6732673 C70.0115385,37.6732673 70.3573964,37.6237624 70.7526627,37.6237624 C70.7526627,35.5445545 70.7526627,33.4158416 70.7526627,31.2871287 C70.3573964,31.2871287 69.9127219,31.2871287 69.5174556,31.2871287 C69.5174556,31.8811881 69.5174556,32.5247525 69.5174556,33.1188119 C68.6281065,33.1188119 67.7881657,33.1188119 66.9482249,33.1188119 C66.8,31.6831683 66.8,30.1980198 66.8,28.7128713 Z" id="Shape" fill="#231F20" fill-rule="nonzero"></path>
                <path d="M81.0295858,28.7128713 C82.7588757,28.7128713 84.4881657,28.7128713 86.2174556,28.7128713 C86.2174556,29.6039604 86.2174556,30.4950495 86.2174556,31.3861386 L85.1798817,31.4851485 C85.4763314,33.1683168 85.7233728,34.8514851 86.0198225,36.4851485 C86.5633136,33.9108911 87.1068047,31.2871287 87.6502959,28.7128713 C88.5890533,28.7128713 89.5278107,28.7128713 90.466568,28.7128713 C91.0100592,31.2871287 91.504142,33.8613861 92.1464497,36.3861386 C92.4428994,34.7524752 92.6899408,33.0693069 92.9863905,31.4356436 L91.8994083,31.4356436 C91.8994083,30.5445545 91.8994083,29.6039604 91.8994083,28.7128713 C93.5792899,28.7128713 95.2591716,28.7128713 96.9390533,28.7128713 C96.9390533,29.6039604 96.9390533,30.4950495 96.9390533,31.4356436 L95.9014793,31.9306931 C94.9627219,34.7029703 94.6168639,37.6732673 93.9251479,40.4950495 C92.7887574,40.4950495 91.6029586,40.4950495 90.466568,40.4950495 C89.9230769,38.3663366 89.4784024,36.1881188 88.9843195,34.0594059 C88.4902367,36.1881188 87.9961538,38.3168317 87.502071,40.4950495 C86.3656805,40.4950495 85.1798817,40.4950495 84.0434911,40.4950495 C83.4505917,37.9207921 82.9565089,35.3465347 82.3142012,32.7722772 C82.1659763,31.8811881 81.8201183,31.8316832 81.0295858,31.4356436 C81.0295858,30.4950495 81.0295858,29.6039604 81.0295858,28.7128713 Z" id="Shape" fill="#231F20" fill-rule="nonzero"></path>
                <path d="M106.079586,28.7128713 C107.808876,28.7128713 109.538166,28.7128713 111.267456,28.7128713 C111.267456,29.6039604 111.267456,30.4950495 111.267456,31.4356436 L110.032249,31.4851485 C110.625148,32.2772277 111.267456,33.0693069 111.860355,33.8613861 C112.403846,33.0693069 112.996746,32.2772277 113.540237,31.4851485 L112.354438,31.4356436 C112.354438,30.5445545 112.354438,29.6534653 112.354438,28.7128713 C113.984911,28.7128713 115.565976,28.7128713 117.19645,28.7128713 C117.19645,29.6039604 117.19645,30.4455446 117.19645,31.2871287 C115.565976,33.0693069 114.03432,35.049505 113.095562,37.3267327 C113.490828,37.4752475 113.886095,37.5742574 114.281361,37.7227723 C114.281361,38.6138614 114.281361,39.5544554 114.281361,40.4455446 C112.601479,40.4455446 110.872189,40.4455446 109.192308,40.4455446 C109.389941,39.0594059 108.648817,37.8217822 110.27929,37.1782178 C109.439349,34.950495 107.759467,33.019802 106.128994,31.2871287 C106.128994,30.4455446 106.128994,29.6039604 106.079586,28.7128713 Z" id="Shape" fill="#231F20" fill-rule="nonzero"></path>
                <path d="M118.036391,28.7128713 C119.518639,28.7128713 121.000888,28.7128713 122.483136,28.7128713 C123.767751,30.6435644 125.052367,32.5742574 126.336982,34.5049505 C126.336982,33.5643564 126.386391,32.6732673 126.386391,31.7326733 L125.348817,31.6336634 C125.348817,30.6435644 125.348817,29.6534653 125.348817,28.7128713 C126.929882,28.7128713 128.560355,28.7128713 130.190828,28.7128713 C130.190828,29.6039604 130.190828,30.4455446 130.190828,31.3366337 C129.84497,31.5841584 129.597929,31.8811881 129.400296,32.1782178 C129.202663,34.950495 129.400296,37.7227723 129.350888,40.4950495 C128.41213,40.4950495 127.473373,40.4950495 126.485207,40.4950495 C124.904142,38.1683168 123.372485,35.8415842 121.79142,33.5148515 C121.79142,34.9009901 121.79142,36.2376238 121.79142,37.6237624 C122.186686,37.6732673 122.532544,37.6732673 122.927811,37.7227723 C122.927811,38.6633663 122.927811,39.6039604 122.878402,40.5445545 C121.247929,40.5445545 119.666864,40.5445545 118.036391,40.5445545 C118.234024,39.3564356 117.591716,37.970297 118.92574,37.3762376 C118.92574,35.5940594 118.92574,33.8613861 118.92574,32.0792079 C117.591716,31.4356436 118.234024,29.9009901 118.036391,28.7128713 Z" id="Shape" fill="#231F20" fill-rule="nonzero"></path>
                <path d="M130.931953,28.7128713 C134.341124,28.7128713 137.750296,28.7128713 141.208876,28.7128713 C141.208876,30.1980198 141.208876,31.6831683 141.208876,33.1683168 C140.270118,33.1683168 139.331361,33.1683168 138.343195,33.1683168 C138.343195,32.5742574 138.343195,32.029703 138.343195,31.4356436 C137.256213,31.4356436 136.119822,31.4356436 135.03284,31.4356436 C135.03284,32.029703 135.03284,32.5742574 135.03284,33.1683168 C135.872781,33.1683168 136.663314,33.1683168 137.503254,33.1683168 C137.503254,34.0594059 137.503254,35 137.503254,35.8910891 C136.663314,35.8910891 135.872781,35.8910891 135.03284,35.8910891 C135.03284,36.5346535 135.03284,37.2277228 135.03284,37.8712871 C136.119822,37.8712871 137.256213,37.8712871 138.343195,37.8712871 C138.343195,37.2277228 138.343195,36.5346535 138.343195,35.8910891 C139.281953,35.8910891 140.22071,35.8910891 141.208876,35.8910891 C141.208876,37.4257426 141.208876,38.960396 141.208876,40.4455446 C137.799704,40.4455446 134.390533,40.4455446 130.981361,40.4455446 C130.981361,39.5049505 130.981361,38.5643564 130.981361,37.6237624 L131.969527,37.6237624 C131.969527,35.6435644 131.969527,33.6633663 131.969527,31.7326733 L130.981361,31.7326733 C130.931953,30.6930693 130.931953,29.7029703 130.931953,28.7128713 Z" id="Shape" fill="#231F20" fill-rule="nonzero"></path>
                <path d="M64.3295858,36.2871287 C66.2565089,34.7029703 66.7011834,32.4752475 65.6636095,30.2475248 C64.9718935,29.0594059 63.489645,28.8613861 62.2544379,28.7623762 C60.0310651,28.6633663 57.758284,28.7623762 55.5349112,28.7623762 C55.5349112,29.6534653 55.5349112,30.4950495 55.5349112,31.3366337 C55.8807692,31.5841584 56.1278107,31.8811881 56.3254438,32.1782178 C56.4736686,33.7623762 56.4736686,35.6435644 56.3254438,37.1782178 C56.1772189,37.4752475 55.8807692,37.7722772 55.5349112,38.019802 C55.5349112,38.8613861 55.5349112,39.7029703 55.5349112,40.4950495 C57.1159763,40.4950495 58.6970414,40.4950495 60.2781065,40.4950495 C60.1792899,38.9108911 60.5251479,37.970297 59.0428994,36.9306931 C60.1298817,36.3861386 60.7227811,36.5841584 61.8097633,36.9306931 C61.414497,38.0693069 61.3156805,39.2574257 61.2662722,40.4455446 C63.0449704,40.4455446 64.8730769,40.4455446 66.6517751,40.4455446 C66.6517751,39.5544554 66.6517751,38.7128713 66.6517751,37.8217822 C65.6636095,37.5742574 65.0707101,37.0792079 64.3295858,36.2871287 Z M63.143787,33.0693069 C62.8473373,34.5049505 60.4757396,33.8613861 59.3887574,34.0594059 C59.3887574,33.1683168 59.3887574,32.3267327 59.487574,31.4851485 C60.8215976,31.4851485 63.4402367,30.8415842 63.143787,33.0693069 Z" id="Shape" fill="#231F20" fill-rule="nonzero"></path>
                <path d="M54.8926036,33.6633663 C54.7443787,31.980198 54.2008876,30.2970297 52.6692308,29.3564356 C51.0881657,28.3663366 48.8153846,28.4158416 47.0366864,28.7623762 C45.1097633,29.2079208 43.8251479,30.7920792 43.5286982,32.6732673 C43.2322485,34.5049505 43.2816568,36.7326733 44.2204142,38.3663366 C45.0109467,39.7029703 46.443787,40.3960396 47.9260355,40.5940594 C49.6553254,40.7920792 51.8292899,40.6435644 53.2127219,39.4554455 C54.793787,38.0693069 55.0408284,35.6435644 54.8926036,33.6633663 Z M51.6316568,36.039604 C51.137574,38.3168317 47.0860947,38.3168317 46.5920118,36.039604 C46.2461538,34.8019802 46.2955621,32.5247525 47.6295858,31.9306931 C48.7659763,31.3861386 50.6434911,31.4851485 51.3352071,32.6732673 C51.8786982,33.6138614 51.8292899,35 51.6316568,36.039604 Z" id="Shape" fill="#231F20" fill-rule="nonzero"></path>
                <path d="M102.176331,40.4950495 C104.004438,40.4950495 105.783136,40.4950495 107.611243,40.4950495 C107.611243,39.6534653 107.611243,38.8613861 107.561834,38.019802 C107.018343,37.4257426 106.623077,36.7821782 106.326627,36.039604 C105.437278,33.6138614 104.547929,31.1386139 103.65858,28.7128713 C102.423373,28.7128713 101.138757,28.6633663 99.9035503,28.7623762 C98.7671598,31.2376238 98.0260355,33.8613861 96.9884615,36.3861386 C96.7414201,37.029703 96.2967456,37.4752475 95.852071,37.970297 C95.852071,38.8118812 95.8026627,39.6534653 95.8026627,40.4455446 C97.4825444,40.4455446 99.2118343,40.4455446 100.891716,40.4455446 C100.891716,39.6039604 100.891716,38.7128713 100.891716,37.8712871 C100.298817,37.8217822 99.7553254,37.7722772 99.2118343,37.6732673 C100.002367,36.3861386 100.990533,36.6831683 102.275148,36.6831683 C103.312722,36.6336634 103.460947,36.980198 104.103254,37.7227723 C103.460947,37.7722772 102.818639,37.8217822 102.126923,37.8712871 C102.176331,38.7623762 102.176331,39.6039604 102.176331,40.4950495 Z M100.644675,34.4059406 C100.842308,33.9108911 100.990533,33.4158416 101.188166,32.9207921 C101.336391,32.4752475 101.534024,31.980198 101.682249,31.5346535 C102.028107,32.4752475 102.324556,33.4158416 102.670414,34.4059406 C101.978698,34.4059406 101.286982,34.4059406 100.644675,34.4059406 Z" id="Shape" fill="#231F20" fill-rule="nonzero"></path>
                <path d="M9.63461538,33.4158416 C15.8600592,33.4158416 22.085503,33.4158416 28.3109467,33.4158416 C28.3109467,34.2079208 28.3109467,35 28.3109467,35.7920792 C22.085503,35.7920792 15.8600592,35.7920792 9.63461538,35.7920792 C9.63461538,35 9.63461538,34.2079208 9.63461538,33.4158416 Z" id="Shape" fill="#231F20" fill-rule="nonzero"></path>
                <path d="M145.655621,33.4158416 C151.881065,33.4158416 158.106509,33.4158416 164.331953,33.4158416 C164.331953,34.2079208 164.331953,35 164.331953,35.7920792 C158.106509,35.7920792 151.881065,35.7920792 145.655621,35.7920792 C145.655621,35 145.655621,34.2079208 145.655621,33.4158416 Z" id="Shape" fill="#231F20" fill-rule="nonzero"></path>
                <path d="M164.282544,46.6831683 C164.776627,53.2673267 165.171893,59.8514851 165.665976,66.4356436 C166.209467,73.4653465 165.863609,80.6435644 165.171893,87.6237624 C163.986095,98.5643564 161.663905,109.356436 158.155917,119.80198 C155.685503,120.544554 154.153846,121.782178 152.819822,123.910891 C156.970118,112.920792 159.835799,101.435644 161.318047,89.7524752 C162.948521,86.1386139 162.899112,82.4257426 162.256805,78.5643564 C162.306213,76.1386139 162.503846,73.7128713 162.355621,71.2871287 C162.009763,64.3069307 161.416864,57.3762376 161.021598,50.3960396 C111.71213,50.3465347 62.4026627,50.3960396 13.1426036,50.3960396 C12.697929,57.3762376 12.006213,64.3564356 11.660355,71.2871287 C11.4133136,84.009901 12.9943787,96.7821782 16.2059172,109.108911 C15.6130178,112.524752 15.1189349,115.940594 16.4035503,119.306931 C16.9964497,120.891089 18.1328402,121.881188 19.3186391,122.920792 C19.5656805,127.326733 20.3068047,131.485149 22.8760355,135.148515 C24.1112426,136.881188 25.6428994,138.217822 27.6686391,138.960396 C28.2615385,140.09901 28.8544379,141.188119 29.4473373,142.326733 C26.8286982,140.841584 24.4076923,139.059406 22.4313609,136.782178 C14.9213018,120.990099 10.2275148,104.059406 8.59704142,86.6336634 C8.0535503,80.3960396 7.75710059,74.0594059 8.20177515,67.8217822 C8.74526627,60.7920792 9.2887574,53.7128713 9.78284024,46.6831683 C61.2168639,46.6831683 112.749704,46.6336634 164.282544,46.6831683 Z" id="Shape" fill="#DAAC27" fill-rule="nonzero"></path>
                <path d="M12.9943787,50.3960396 C62.3038462,50.3960396 111.563905,50.3465347 160.873373,50.3960396 C161.268639,57.3762376 161.861538,64.3069307 162.207396,71.2871287 C162.355621,73.7128713 162.157988,76.1386139 162.10858,78.5643564 C160.725148,74.8019802 159.440533,71.2376238 156.574852,68.3663366 C154.005621,65.6930693 150.448225,64.1089109 146.742604,64.3564356 C142.048817,64.5544554 138.293787,67.2277228 134.785799,70.0990099 C129.252071,64.3069307 121.742012,60.5940594 113.639053,60.4950495 C110.27929,60.4455446 107.11716,61.3366337 104.103254,62.8217822 C103.213905,62.3267327 102.22574,61.8811881 101.484615,61.1386139 C100.447041,59.8514851 99.9529586,58.1188119 98.5201183,57.1782178 C95.9508876,55.5445545 92.887574,55.3465347 89.8736686,55.3465347 C87.5514793,55.4455446 85.7233728,54.1584158 83.4505917,54.4059406 C75.9899408,55.0990099 68.9739645,58.1188119 63.143787,62.7722772 C58.2523669,60.3960396 53.4597633,59.8514851 48.1730769,61.0891089 C41.6511834,62.6732673 35.0798817,66.2871287 31.0284024,71.6831683 C28.8544379,74.6039604 27.3227811,77.970297 26.5322485,81.5346535 C26.087574,83.1188119 26.1863905,84.6039604 24.8029586,85.6930693 C20.4550296,89.4059406 18.0340237,94.7524752 17.2928994,100.39604 C17.0952663,101.930693 17.5399408,103.514851 17.391716,105.049505 C17.1446746,106.386139 16.5023669,107.722772 16.008284,109.009901 C12.7967456,96.7326733 11.1662722,83.9108911 11.4627219,71.1881188 C11.8579882,64.3069307 12.5991124,57.3267327 12.9943787,50.3960396 Z" id="Shape" fill="#231F20" fill-rule="nonzero"></path>
                <path d="M83.5,54.4554455 C85.7727811,54.2079208 87.6008876,55.4950495 89.9230769,55.3960396 C92.887574,55.3960396 95.9508876,55.5940594 98.5695266,57.2277228 C100.002367,58.1683168 100.49645,59.9009901 101.534024,61.1881188 C102.275148,61.8811881 103.263314,62.3762376 104.152663,62.8712871 C107.166568,61.4356436 110.328698,60.5445545 113.688462,60.5445545 C121.79142,60.5940594 129.301479,64.3069307 134.835207,70.1485149 C138.343195,67.2772277 142.098225,64.6039604 146.792012,64.4059406 C150.547041,64.2079208 154.05503,65.7920792 156.62426,68.4158416 C159.539349,71.3366337 160.823964,74.8514851 162.157988,78.6138614 C162.849704,82.4752475 162.849704,86.1881188 161.219231,89.8019802 C159.638166,92.0792079 158.106509,94.2079208 155.586686,95.5445545 C153.709172,96.6336634 151.634024,96.7326733 149.707101,97.5742574 C148.620118,98.7128713 148.027219,100.49505 147.384911,101.930693 C149.756509,106.435644 151.139941,111.336634 151.436391,116.435644 C151.485799,117.425743 151.485799,118.415842 151.189349,119.356436 C150.645858,121.287129 148.669527,122.326733 148.323669,124.356436 C147.286095,129.70297 144.963905,135.49505 140.566568,138.960396 C140.51716,139.653465 140.467751,140.346535 140.368935,141.089109 C146.001479,136.881188 150.102367,130.49505 152.721006,124.059406 C154.104438,121.881188 155.586686,120.643564 158.057101,119.950495 C160.08284,119.70297 162.10858,119.90099 163.83787,121.138614 C165.56716,122.277228 166.505917,124.059406 167,126.089109 L167,128.663366 C165.616568,139.009901 161.614497,148.910891 155.092604,157.079208 C149.657692,163.861386 142.444083,169.554455 134.143491,172.227723 C131.080178,173.267327 127.868639,173.712871 124.657101,173.762376 C123.767751,174.455446 122.927811,175.19802 122.08787,175.940594 C117.986982,179.009901 113.540237,181.188119 108.55,182.425743 C101.682249,183.564356 94.7650888,183.267327 87.9467456,181.980198 C81.1284024,180.643564 74.7547337,177.871287 69.7150888,172.970297 C67.5411243,170.940594 65.9106509,168.564356 64.1813609,166.188119 C62.797929,167.227723 61.5627219,168.366337 60.0804734,169.306931 C57.8571006,170.693069 55.2878698,171.683168 52.7680473,172.524752 C51.3846154,172.871287 49.9517751,173.168317 48.5189349,173.366337 C44.3192308,173.861386 40.1195266,174.009901 35.9692308,173.069307 C28.360355,171.386139 21.3443787,167.029703 15.9094675,161.485149 C7.01597633,152.722772 1.67988166,140.940594 -1.13686838e-13,128.613861 L-1.13686838e-13,126.039604 C0.395266272,124.405941 1.03757396,122.920792 2.32218935,121.782178 C4.44674556,119.80198 7.70769231,119.306931 10.3757396,120.445545 C12.4508876,121.336634 13.7849112,123.019802 14.7236686,125 C16.7494083,129.306931 19.0715976,133.366337 22.2831361,136.881188 C24.2594675,139.207921 26.6804734,140.940594 29.2991124,142.425743 C33.0047337,144.50495 37.056213,144.851485 41.2559172,144.70297 C40.366568,143.465347 39.4278107,142.178218 38.4890533,140.940594 C36.6609467,140.693069 34.9810651,140.346535 33.3505917,139.455446 C31.5224852,138.366337 29.5955621,139.108911 27.5204142,139.059406 C25.5440828,138.316832 23.9630178,136.980198 22.7278107,135.247525 C20.1585799,131.584158 19.4174556,127.376238 19.1704142,123.019802 C17.9352071,121.980198 16.7988166,120.990099 16.2553254,119.405941 C14.9707101,116.039604 15.4647929,112.623762 16.0576923,109.207921 C16.5023669,107.920792 17.1940828,106.584158 17.4411243,105.247525 C17.5399408,103.712871 17.1446746,102.178218 17.3423077,100.594059 C18.083432,94.950495 20.5044379,89.6534653 24.8523669,85.8910891 C26.2357988,84.7524752 26.1369822,83.3168317 26.5816568,81.7326733 C27.3227811,78.1683168 28.9038462,74.8019802 31.0778107,71.8811881 C35.1292899,66.4851485 41.7005917,62.8712871 48.2224852,61.2871287 C53.5091716,60.049505 58.3511834,60.5940594 63.1931953,62.970297 C69.0233728,58.1683168 76.0393491,55.0990099 83.5,54.4554455 Z" id="Shape" fill="#1F3D7C" fill-rule="nonzero"></path>
                <path d="M84.4881657,58.1683168 C85.4763314,58.1188119 86.1680473,58.8613861 86.9585799,59.3564356 C89.9230769,59.0594059 93.3816568,58.7623762 96.1485207,60.0990099 C97.5319527,60.8415842 97.3837278,61.980198 97.4331361,63.3663366 C99.6565089,64.5544554 101.879882,65.7425743 103.856213,67.3762376 C107.710059,64.7524752 112.00858,63.8118812 116.60355,64.5049505 C123.81716,65.5445545 130.487278,69.7524752 134.390533,75.9405941 C136.712722,73.3168317 139.479586,70.7920792 142.641716,69.2574257 C145.062722,68.1188119 147.730769,67.6732673 150.3,68.6633663 C153.066864,69.7524752 155.043195,71.9306931 156.377219,74.5049505 C157.760651,77.1782178 158.65,80.1980198 158.699408,83.2178218 C158.748817,86.980198 156.821893,90.6930693 153.412722,92.4257426 C151.386982,93.5148515 148.126036,93.2178218 146.693195,95.0990099 C145.161538,97.1287129 144.222781,99.7029703 143.135799,102.029703 C145.952071,106.732673 147.681361,112.376238 147.681361,117.871287 C147.483728,119.405941 146.446154,119.70297 145.210947,120.29703 C144.568639,125.544554 143.185207,130.594059 139.776036,134.70297 C139.183136,135.49505 138.046746,135.39604 137.157396,135.643564 C136.860947,139.653465 136.268047,143.564356 135.477515,147.524752 C138.145562,146.633663 140.665385,145.49505 142.888757,143.811881 C148.224852,140 152.177515,134.059406 155.043195,128.267327 C155.78432,126.831683 156.426627,125.049505 157.908876,124.207921 C159.489941,123.267327 161.614497,123.762376 162.602663,125.346535 C163.590828,126.782178 162.997929,128.712871 162.800296,130.346535 C160.576923,143.465347 153.412722,155.990099 142.444083,163.663366 C136.76213,167.722772 129.993195,170.09901 122.977219,169.851485 C118.728107,173.811881 113.886095,176.930693 108.204142,178.366337 C103.263314,179.70297 98.3224852,179.356436 93.2828402,178.910891 C86.3656805,178.168317 79.6955621,176.237624 74.2112426,171.831683 C70.0609467,168.564356 67.145858,164.207921 65.0213018,159.405941 C62.3038462,162.871287 59.2405325,165.891089 55.0902367,167.623762 C50.7423077,169.455446 45.7026627,169.90099 41.0088757,169.80198 C33.1529586,169.356436 25.8899408,165.346535 20.1585799,160.148515 C11.0674556,151.831683 5.33609467,140.049505 3.85384615,127.871287 C3.50798817,125.49505 5.53372781,123.366337 7.90532544,123.811881 C10.0792899,124.207921 10.8698225,126.237624 11.7591716,127.970297 C15.1189349,134.80198 19.9609467,141.930693 26.8286982,145.544554 C31.6213018,148.168317 37.3526627,149.059406 42.7381657,148.316832 C44.6650888,148.069307 46.0485207,146.980198 47.5307692,145.792079 C47.4319527,145.346535 47.3331361,144.90099 47.2837278,144.405941 C45.6532544,143.366337 44.1215976,142.326733 42.9357988,140.792079 C41.9476331,139.50495 41.4535503,138.019802 40.9100592,136.534653 C39.8230769,136.881188 38.7360947,137.326733 37.5502959,137.128713 C35.3763314,136.782178 33.8446746,135.544554 32.2142012,134.158416 C31.2754438,134.653465 30.1884615,135.29703 29.1508876,135.445545 C27.6192308,135.29703 26.3346154,133.762376 25.5440828,132.524752 C23.2218935,128.712871 22.9254438,124.059406 23.1230769,119.70297 C21.5914201,119.554455 20.356213,119.70297 19.7139053,118.019802 C18.6269231,113.613861 19.9609467,108.564356 21.9372781,104.60396 C21.393787,103.663366 20.8008876,102.871287 20.9985207,101.683168 C21.393787,97.2772277 23.2713018,92.7227723 26.433432,89.6039604 C27.3721893,88.6633663 28.4591716,87.9207921 29.3485207,87.029703 C29.6449704,86.1881188 29.6943787,85.2475248 29.8426036,84.4059406 C30.6825444,78.8118812 33.5482249,73.5643564 38.1431953,70.1485149 C42.4911243,66.9306931 47.9260355,64.6534653 53.3609467,64.5049505 C57.066568,64.4554455 60.4757396,65.5940594 63.489645,67.8217822 C69.3198225,62.1782178 76.533432,58.6138614 84.4881657,58.1683168 Z" id="Shape" fill="#FFFFFF" fill-rule="nonzero"></path>
                <path d="M84.6363905,60.4455446 C84.191716,61.1386139 83.7470414,61.7821782 83.3023669,62.4752475 C85.7233728,62.1782178 87.9467456,61.5346535 90.4171598,61.4851485 C92.0476331,61.4356436 93.6286982,61.7326733 95.2097633,62.0792079 C94.3698225,62.4257426 93.5792899,62.8217822 92.7393491,63.2178218 C93.9745562,64.6039604 95.5556213,65.1485149 97.1860947,65.990099 C99.6565089,67.2772277 102.028107,68.4653465 103.609172,70.8415842 C106.623077,67.6237624 110.773373,66.3861386 115.071893,66.7326733 C123.026627,67.3762376 131.030769,72.7227723 133.797633,80.3465347 C136.268047,77.1287129 138.886686,74.1089109 142.394675,71.980198 C144.222781,70.8910891 146.396746,70.1485149 148.521302,70.5940594 C150.695266,71.0891089 152.276331,72.5247525 153.46213,74.3564356 C155.142012,76.980198 156.130178,80.0990099 156.228994,83.2178218 C156.228994,85.7920792 155.142012,88.6138614 152.869231,90 C150.991716,91.0891089 148.57071,91.039604 146.594379,92.0792079 C145.309763,92.7722772 144.469822,93.9108911 143.728698,95.1485149 C142.493491,97.4257426 141.406509,99.8514851 140.319527,102.227723 C143.432249,106.782178 145.013314,112.178218 145.161538,117.722772 C144.321598,117.178218 143.481657,116.633663 142.641716,116.089109 C142.938166,122.178218 141.604142,128.168317 137.898521,133.118812 C136.910355,132.376238 135.872781,131.633663 134.884615,130.841584 C134.538757,137.425743 133.89645,144.207921 131.969527,150.544554 C136.712722,149.80198 141.208876,147.970297 144.963905,144.950495 C150.547041,140.544554 154.351479,134.554455 157.464201,128.267327 C157.958284,127.425743 158.304142,126.188119 159.391124,125.940594 C160.478107,126.089109 160.774556,126.732673 160.576923,127.722772 C159.638166,135.09901 157.068935,142.326733 153.116272,148.663366 C148.471893,155.990099 141.95,162.227723 133.797633,165.49505 C129.993195,167.079208 126.040533,167.425743 121.939645,167.277228 C118.135207,171.138614 113.73787,174.207921 108.500592,175.742574 C103.707988,177.227723 98.2236686,176.930693 93.2828402,176.485149 C85.8221893,175.693069 78.7073964,173.465347 73.3218935,168.019802 C69.4680473,164.158416 67.145858,159.405941 65.416568,154.306931 C63.5390533,157.227723 61.5627219,160 58.9440828,162.326733 C55.9301775,165 52.1751479,166.386139 48.2718935,166.930693 C43.2816568,167.574257 38.3408284,167.623762 33.5976331,165.792079 C24.3088757,162.376238 16.8976331,154.80198 12.1050296,146.237624 C8.89349112,140.29703 6.62071006,133.564356 6.07721893,126.782178 C7.01597633,125.39604 8.10295858,126.138614 8.69585799,127.326733 C12.2038462,134.455446 16.2553254,141.138614 22.8266272,145.841584 C28.7556213,150.049505 36.2162722,151.584158 43.3310651,150.49505 C46.1967456,149.950495 48.0248521,148.217822 50.1,146.336634 C49.754142,145.148515 49.6059172,144.059406 49.6059172,142.772277 C47.6295858,141.831683 45.8014793,140.792079 44.5168639,138.960396 C43.3310651,137.277228 43.2322485,134.653465 41.7005917,133.267327 C40.2183432,133.366337 38.9337278,135 37.4514793,134.554455 C35.1292899,134.059406 33.3505917,131.930693 32.1153846,130 C31.2754438,131.485149 30.5343195,132.227723 29.052071,133.069307 C27.9156805,131.831683 26.8781065,130.49505 26.3840237,128.861386 C24.9511834,124.455446 25.2970414,120.09901 25.7911243,115.594059 C24.4571006,116.138614 23.1230769,116.683168 21.7890533,117.178218 C21.4926036,114.257426 21.6902367,111.336634 22.6784024,108.564356 C23.9136095,104.90099 26.1863905,101.980198 28.9038462,99.3069307 C26.7298817,99.950495 24.9511834,100.990099 23.1724852,102.326733 C23.7159763,97.6237624 25.3464497,93.2178218 29.052071,90.1485149 C32.2636095,87.2277228 36.0186391,86.8316832 38.5384615,83.2178218 C36.0186391,83.9108911 33.9434911,85.3465347 31.8189349,86.8811881 C32.2142012,81.1386139 34.5857988,75.6435644 39.1807692,72.0792079 C43.9733728,68.4653465 50.1494083,65.9405941 56.2266272,66.980198 C59.0923077,67.4257426 61.4639053,68.960396 63.489645,70.9405941 C67.145858,67.029703 71.6420118,63.960396 76.7310651,62.1782178 C79.3497041,61.1881188 82.0177515,60.7920792 84.6363905,60.4455446 Z" id="Shape" fill="#231F20" fill-rule="nonzero"></path>
                <path d="M82.5118343,66.4356436 C86.810355,66.3861386 91.0100592,66.4356436 94.9627219,68.2178218 C98.7671598,69.950495 101.286982,72.8217822 103.806805,76.039604 C104.893787,74.6534653 105.931361,73.0693069 107.314793,71.9306931 C109.241716,70.3960396 111.662722,69.8514851 114.133136,69.950495 C117.641124,70.049505 120.803254,71.2871287 123.81716,73.1188119 C119.815089,72.8217822 116.208284,72.1782178 112.255621,73.4653465 C110.081657,74.1089109 108.302959,75.3960396 106.721893,76.980198 C107.611243,79.7029703 108.204142,82.3762376 107.660651,85.2475248 C106.968935,89.4554455 104.943195,93.7623762 101.188166,96.039604 C98.816568,97.5742574 96.1485207,98.019802 93.3816568,98.0693069 C94.1227811,98.5148515 94.814497,98.960396 95.5556213,99.4059406 C90.9112426,99.9009901 87.2550296,98.960396 83.5988166,96.0891089 C81.8695266,97.3267327 80.1402367,98.4653465 78.0650888,99.009901 C75.9405325,99.6534653 73.8159763,99.6039604 71.5926036,99.4059406 C72.3337278,98.960396 73.0748521,98.5148515 73.8159763,98.0693069 C70.6044379,97.970297 67.5905325,97.3267327 65.0213018,95.2970297 C61.6615385,92.7722772 59.8828402,88.2673267 59.4381657,84.2079208 C59.0923077,81.6831683 59.7840237,79.4554455 60.3769231,77.0792079 C58.45,74.4554455 55.485503,73.3168317 52.4221893,72.8712871 C49.3588757,72.4257426 46.5920118,72.9207921 43.5781065,73.0693069 C47.6789941,70.7425743 52.5210059,69.009901 57.2147929,70.4950495 C60.2286982,71.4851485 61.6615385,73.8118812 63.6872781,76.1386139 C65.8612426,73.4653465 67.9363905,70.8910891 70.9502959,69.1089109 C74.4088757,66.980198 78.5097633,66.4356436 82.5118343,66.4356436 Z" id="Shape" fill="#CAC8C9" fill-rule="nonzero"></path>
                <path d="M43.4792899,73.0693069 L43.5286982,73.019802 C46.5426036,72.8712871 49.3094675,72.3762376 52.3727811,72.8217822 C55.485503,73.2673267 58.4005917,74.4554455 60.3275148,77.029703 C58.9440828,79.1584158 57.8076923,81.3861386 57.066568,83.7623762 C56.6713018,83.7623762 56.3254438,83.7623762 55.9301775,83.7623762 C53.756213,84.6039604 51.9281065,86.4356436 50.445858,88.2178218 C45.7026627,93.9108911 42.9357988,101.633663 41.1571006,108.712871 C41.8982249,108.267327 42.6887574,107.821782 43.4298817,107.376238 C42.0464497,111.881188 42.095858,116.386139 43.2322485,120.891089 C43.8745562,120.29703 44.4674556,119.70297 45.1097633,119.108911 C48.7659763,123.564356 50.5446746,128.910891 51.3846154,134.50495 C50.2482249,135.544554 49.1612426,136.584158 48.0248521,137.673267 C45.7026627,132.178218 42.7381657,126.930693 39.5266272,121.930693 C39.6748521,124.653465 40.0207101,127.227723 40.6136095,129.90099 C39.6748521,130.346535 38.7360947,130.841584 37.747929,131.287129 C33.745858,127.178218 33.4,122.128713 33.054142,116.732673 C31.7201183,120.19802 30.6331361,123.762376 29.2002959,127.227723 C27.8662722,121.435644 29.052071,116.138614 29.8426036,110.39604 C28.2121302,111.039604 26.6310651,111.683168 25.0005917,112.326733 C25.4946746,110.29703 26.0381657,108.316832 27.1745562,106.485149 C29.4473373,102.524752 33.7952663,99.6534653 37.1056213,96.4356436 C34.1411243,96.2871287 31.1766272,96.2376238 28.1627219,96.0891089 C29.2002959,94.6534653 30.1884615,93.2178218 31.6213018,92.1782178 C34.4869822,89.9009901 37.747929,89.1584158 40.1195266,86.3366337 C41.7994083,84.2574257 43.0346154,81.7326733 44.4674556,79.4554455 C41.8488166,79.6534653 39.2795858,79.9009901 36.710355,80.2475248 C38.439645,77.029703 40.4159763,74.9009901 43.4792899,73.0693069 Z" id="Shape" fill="#8B8C8E" fill-rule="nonzero"></path>
                <path d="M123.81716,73.0693069 C125.941716,74.5049505 127.868639,76.2871287 129.301479,78.4158416 C130.487278,80.1485149 131.030769,82.0792079 131.673077,84.0594059 C128.313314,90 126.238166,96.1881188 124.163018,102.623762 C121.643195,95.6435644 117.937574,87.5247525 111.218047,83.7128713 L111.514497,84.4059406 C111.069822,84.0594059 110.625148,83.8118812 110.131065,83.5643564 C109.241716,81.2376238 108.154734,79.0594059 106.771302,76.980198 C108.352367,75.3960396 110.131065,74.1089109 112.30503,73.4653465 C116.208284,72.1287129 119.815089,72.7722772 123.81716,73.0693069 Z" id="Shape" fill="#8B8C8E" fill-rule="nonzero"></path>
                <path d="M149.163609,74.3069307 C151.337574,75.9405941 152.523373,79.1089109 153.017456,81.6831683 C153.16568,82.7722772 153.511538,84.6534653 152.32574,85.2475248 C151.238757,85.5940594 149.855325,85.2475248 148.768343,85.1980198 C146.792012,84.950495 145.210947,85.8910891 143.333432,85.8910891 C142.24645,85.7425743 141.208876,84.8514851 140.270118,84.2574257 C140.813609,85.8415842 140.912426,87.7722772 142.839349,88.1188119 C144.865089,88.3168317 146.989645,87.6732673 149.015385,87.5742574 C147.582544,88.1683168 146.149704,88.7128713 144.766272,89.3564356 C142.888757,89.4554455 141.406509,88.8613861 139.874852,87.8712871 L139.331361,87.5247525 C137.404438,89.8514851 136.218639,92.4257426 134.835207,95.0990099 C135.378698,95.6435644 135.872781,96.1881188 136.366864,96.7326733 C136.76213,97.1287129 137.157396,97.5742574 137.552663,97.970297 C137.009172,97.970297 136.46568,97.970297 135.872781,97.970297 C135.131657,97.9207921 134.390533,97.8712871 133.649408,97.8217822 C133.105917,99.2079208 132.513018,100.594059 132.16716,102.029703 C131.920118,102.920792 132.858876,103.613861 133.30355,104.207921 C133.748225,104.653465 134.192899,105.049505 134.637574,105.445545 C134.094083,105.445545 133.550592,105.49505 133.056509,105.49505 C132.364793,105.445545 131.722485,105.445545 131.030769,105.39604 C130.289645,107.871287 129.647337,110.346535 129.00503,112.871287 C129.449704,113.069307 129.84497,113.267327 130.240237,113.465347 C131.080178,113.861386 131.87071,114.306931 132.661243,114.752475 C131.87071,115.049505 131.030769,115.346535 130.190828,115.544554 C129.548521,115.643564 128.955621,115.742574 128.313314,115.841584 C127.028698,121.683168 126.287574,127.574257 125.25,133.465347 C123.619527,141.732673 120.35858,150.049505 114.87426,156.534653 C109.044083,163.613861 100.447041,168.465347 91.2076923,169.009901 C88.539645,169.257426 85.9210059,168.762376 83.3517751,168.069307 C81.4742604,167.178218 79.5967456,166.188119 77.9168639,164.950495 C75.5452663,163.267327 73.6677515,161.039604 71.3949704,159.207921 C69.7150888,156.287129 68.6281065,153.168317 67.8869822,149.90099 C66.0094675,141.980198 65.4659763,134.059406 65.2683432,125.940594 C65.2683432,125.49505 65.3177515,125.049505 65.3177515,124.60396 C66.3059172,120 67.6399408,115.49505 68.9739645,110.940594 C66.2071006,107.673267 63.489645,104.306931 60.4263314,101.237624 C58.7464497,99.5049505 56.3748521,99.3564356 54.2008876,100.09901 C53.064497,100.544554 52.1751479,101.485149 51.2857988,102.227723 C52.5210059,102.128713 53.7068047,101.980198 54.9420118,101.930693 C54.102071,104.207921 53.3609467,106.386139 53.6079882,108.861386 C54.0032544,110.693069 54.6949704,112.524752 55.3372781,114.257426 C55.8807692,115.742574 56.4736686,117.376238 57.412426,118.613861 C58.1535503,119.554455 59.4381657,120.19802 60.4757396,120.792079 C59.5863905,123.267327 58.5982249,125.693069 57.8571006,128.217822 C57.066568,129.009901 56.2760355,129.80198 55.4360947,130.594059 C54.5961538,125.940594 52.9656805,121.485149 50.791716,117.326733 C49.8035503,115.39604 48.7659763,113.712871 48.3707101,111.584158 C47.8272189,108.217822 48.2224852,104.60396 49.0130178,101.287129 C50.4952663,95 53.1139053,89.3069307 56.0784024,83.5643564 C56.4736686,83.5643564 56.8195266,83.5643564 57.2147929,83.5643564 C56.6713018,85.3465347 56.4242604,87.1782178 56.2266272,89.009901 C56.7207101,88.6633663 57.1653846,88.3168317 57.6100592,87.9207921 C57.7088757,90.9405941 58.1535503,93.8118812 59.6357988,96.5346535 C60.6733728,98.3663366 62.106213,99.6039604 63.5390533,101.039604 C65.416568,102.920792 67.0964497,104.90099 68.8257396,106.881188 C68.5786982,105.693069 68.3810651,104.50495 68.0846154,103.316832 C71.2467456,104.405941 74.5076923,104.752475 77.7686391,103.811881 C80.0414201,103.217822 81.8201183,101.930693 83.6976331,100.49505 C85.7727811,102.128713 87.8973373,103.514851 90.5159763,104.009901 C93.4804734,104.653465 96.3955621,104.207921 99.2118343,103.267327 C98.9647929,104.455446 98.7671598,105.594059 98.5201183,106.782178 C100.545858,104.50495 102.472781,102.227723 104.696154,100.09901 C105.980769,98.8613861 107.166568,97.5742574 107.957101,95.9405941 C109.241716,93.3663366 109.587574,90.6930693 109.735799,87.8712871 C110.180473,88.2178218 110.625148,88.5643564 111.069822,88.9108911 C110.872189,86.980198 110.57574,85.0990099 110.131065,83.1683168 C110.625148,83.4158416 111.069822,83.7128713 111.514497,84.009901 C114.726036,90.7425743 117.690533,97.1287129 118.826923,104.60396 C119.321006,108.168317 119.321006,111.683168 117.591716,114.950495 C114.923669,119.90099 112.749704,124.950495 111.810947,130.49505 C111.119231,129.80198 110.427515,129.158416 109.735799,128.465347 C108.797041,125.841584 107.808876,123.267327 106.771302,120.643564 C108.204142,119.80198 109.538166,119.158416 110.427515,117.623762 C111.761538,115.247525 112.552071,112.524752 113.194379,109.90099 C113.639053,109.455446 114.083728,109.009901 114.528402,108.613861 C114.577811,106.188119 114.03432,104.009901 113.14497,101.732673 C114.380178,101.831683 115.565976,101.930693 116.801183,102.079208 C115.516568,100.940594 114.429586,99.8514851 112.650888,99.6039604 C110.921598,99.3069307 109.192308,99.5544554 107.907692,100.792079 C104.745562,103.811881 101.978698,107.326733 99.1130178,110.693069 C100.595266,115.247525 101.237574,119.80198 101.435207,124.50495 C101.63284,125.891089 101.978698,127.227723 102.324556,128.564356 C103.115089,133.069307 103.757396,137.574257 104.498521,142.029703 C100.694083,139.653465 96.3955621,138.415842 91.8994083,139.207921 C85.4763314,140.29703 79.5967456,144.80198 75.6440828,149.851485 C79.7943787,146.980198 83.9940828,144.455446 88.9349112,143.267327 C93.9251479,142.029703 99.162426,142.178218 104.004438,144.009901 C106.128994,144.80198 107.808876,146.138614 110.180473,146.138614 C112.552071,146.188119 114.577811,144.90099 116.010651,143.069307 C118.283432,140.148515 119.123373,136.683168 119.913905,133.168317 C122.38432,122.029703 124.311243,110.346535 127.671006,99.3564356 C129.252071,94.3564356 130.931953,89.6534653 134.044675,85.4455446 C136.860947,81.2376238 139.627811,77.3762376 143.926331,74.5049505 C145.556805,73.960396 147.43432,73.019802 149.163609,74.3069307 Z" id="Shape" fill="#CAC8C9" fill-rule="nonzero"></path>
                <path d="M146.594379,76.6336634 C147.335503,78.5148515 147.730769,80.3960396 146.890828,82.3267327 C146.199112,83.6633663 144.420414,84.0594059 143.185207,83.2178218 C142.444083,80.7425743 144.420414,77.6732673 146.594379,76.6336634 Z" id="Shape" fill="#231F20" fill-rule="nonzero"></path>
                <path d="M148.86716,76.7821782 C150.250592,77.3267327 150.942308,78.5643564 151.634024,79.8019802 C152.177515,80.990099 152.671598,82.1782178 151.881065,83.4158416 C150.349408,84.009901 148.521302,83.5148515 148.175444,81.7326733 C147.878994,80.1485149 147.681361,77.970297 148.86716,76.7821782 Z" id="Shape" fill="#231F20" fill-rule="nonzero"></path>
                <path d="M60.3769231,77.029703 C59.7840237,79.4059406 59.0923077,81.6336634 59.4381657,84.1584158 C59.8828402,88.2178218 61.6615385,92.7227723 65.0213018,95.2475248 C67.5905325,97.2772277 70.6538462,97.9207921 73.8159763,98.019802 C73.0748521,98.4653465 72.3337278,98.9108911 71.5926036,99.3564356 C73.766568,99.5049505 75.8911243,99.6039604 78.0650888,98.960396 C80.1402367,98.4158416 81.8695266,97.2772277 83.5988166,96.039604 C87.2550296,98.9108911 90.9112426,99.8514851 95.5556213,99.3564356 C94.814497,98.9108911 94.1227811,98.4653465 93.3816568,98.019802 C96.1485207,97.9207921 98.816568,97.4752475 101.188166,95.990099 C104.943195,93.7128713 106.919527,89.4059406 107.660651,85.1980198 C108.204142,82.3267327 107.611243,79.6534653 106.721893,76.9306931 C108.105325,79.009901 109.192308,81.1881188 110.081657,83.5148515 C110.526331,85.3960396 110.872189,87.2772277 111.020414,89.2574257 C110.57574,88.9108911 110.131065,88.5643564 109.686391,88.2178218 C109.488757,91.039604 109.192308,93.7623762 107.907692,96.2871287 C107.11716,97.9207921 105.931361,99.2079208 104.646746,100.445545 C102.423373,102.524752 100.49645,104.851485 98.4707101,107.128713 C98.6683432,105.940594 98.9153846,104.80198 99.162426,103.613861 C96.3461538,104.60396 93.3816568,105 90.466568,104.356436 C87.847929,103.861386 85.7233728,102.425743 83.6482249,100.841584 C81.8201183,102.227723 79.9920118,103.514851 77.7192308,104.158416 C74.458284,105.09901 71.1973373,104.70297 68.0352071,103.663366 C68.2822485,104.851485 68.5292899,106.039604 68.7763314,107.227723 C67.0470414,105.247525 65.3671598,103.217822 63.489645,101.386139 C62.0568047,99.9009901 60.6239645,98.7128713 59.5863905,96.8811881 C58.104142,94.2079208 57.6594675,91.3366337 57.5606509,88.2673267 C57.066568,88.6138614 56.6218935,88.960396 56.1772189,89.3564356 C56.3748521,87.5247525 56.6218935,85.6930693 57.1653846,83.9108911 C57.8571006,81.3861386 58.9934911,79.1584158 60.3769231,77.029703 Z" id="Shape" fill="#231F20" fill-rule="nonzero"></path>
                <path d="M139.232544,87.5742574 L139.776036,87.9207921 C140.023077,88.4653465 140.319527,89.0594059 140.566568,89.6039604 C138.936095,91.8811881 137.700888,94.3564356 136.268047,96.7821782 C135.724556,96.2376238 135.230473,95.6930693 134.736391,95.1485149 C136.119822,92.4752475 137.35503,89.9009901 139.232544,87.5742574 Z" id="Shape" fill="#231F20" fill-rule="nonzero"></path>
                <path d="M139.825444,87.9207921 C141.357101,88.9108911 142.888757,89.5049505 144.716864,89.4059406 C142.493491,90.8910891 140.863018,93.019802 139.726627,95.4455446 C138.096154,98.8613861 137.05858,102.673267 136.268047,106.336634 C134.934024,112.574257 134.094083,118.910891 133.402367,125.247525 C132.908284,129.554455 132.760059,133.861386 131.87071,138.118812 C130.684911,143.910891 129.548521,149.90099 126.732249,155.148515 C123.273669,161.831683 118.085799,168.019802 111.218047,171.287129 C107.512426,173.069307 103.460947,173.712871 99.4094675,173.564356 C93.7275148,173.465347 87.7985207,172.722772 82.6106509,170.29703 C77.7192308,168.019802 73.766568,164.207921 71.3949704,159.356436 C73.6677515,161.188119 75.5452663,163.415842 77.9168639,165.09901 C79.5967456,166.336634 81.4742604,167.326733 83.3517751,168.217822 C86.3656805,169.851485 89.6760355,169.70297 92.9369822,169.50495 C101.682249,168.712871 109.884024,163.960396 115.565976,157.376238 C121.840828,150.19802 125.348817,140.990099 127.078107,131.732673 C127.967456,126.336634 128.955621,120.990099 130.190828,115.693069 C131.030769,115.49505 131.87071,115.19802 132.661243,114.90099 C131.87071,114.455446 131.030769,114.009901 130.240237,113.613861 L130.43787,113.613861 C131.722485,111.138614 132.117751,108.217822 133.056509,105.594059 C133.6,105.594059 134.094083,105.594059 134.637574,105.544554 C134.192899,105.148515 133.748225,104.70297 133.30355,104.306931 C134.291716,102.277228 135.082249,100.19802 135.872781,98.0693069 C136.416272,98.0693069 136.959763,98.0693069 137.552663,98.0693069 C137.157396,97.6732673 136.76213,97.2277228 136.366864,96.8316832 C137.799704,94.4059406 138.985503,91.9306931 140.665385,89.6534653 C140.319527,89.0594059 140.072485,88.4653465 139.825444,87.9207921 Z" id="Shape" fill="#8B8C8E" fill-rule="nonzero"></path>
                <path d="M161.219231,89.7524752 C159.786391,101.435644 156.92071,112.920792 152.721006,123.910891 C150.102367,130.39604 146.001479,136.732673 140.368935,140.940594 C140.418343,140.247525 140.467751,139.50495 140.566568,138.811881 C144.963905,135.346535 147.286095,129.554455 148.323669,124.207921 C148.669527,122.227723 150.645858,121.188119 151.189349,119.207921 C151.436391,118.267327 151.485799,117.277228 151.436391,116.287129 C151.139941,111.188119 149.756509,106.287129 147.384911,101.782178 C148.027219,100.346535 148.620118,98.6138614 149.707101,97.4257426 C151.634024,96.6336634 153.709172,96.4851485 155.586686,95.3960396 C158.106509,94.1584158 159.588757,92.029703 161.219231,89.7524752 Z" id="Shape" fill="#231F20" fill-rule="nonzero"></path>
                <path d="M133.649408,97.8712871 C134.390533,97.9207921 135.131657,97.970297 135.872781,98.019802 C135.082249,100.148515 134.291716,102.227723 133.30355,104.257426 C132.858876,103.663366 131.87071,102.970297 132.16716,102.079208 C132.463609,100.643564 133.105917,99.2574257 133.649408,97.8712871 Z" id="Shape" fill="#231F20" fill-rule="nonzero"></path>
                <path d="M60.3769231,101.386139 C63.4402367,104.405941 66.1576923,107.772277 68.9245562,111.089109 C67.5905325,115.594059 66.2565089,120.148515 65.2683432,124.752475 C64.5272189,122.475248 64.2307692,120.49505 64.2307692,118.118812 C61.8097633,117.722772 59.5863905,117.227723 58.0547337,115.148515 C56.5724852,113.019802 55.6337278,110.742574 53.5585799,109.059406 C53.3115385,106.584158 54.0526627,104.405941 54.8926036,102.128713 C53.6573964,102.178218 52.4715976,102.326733 51.2363905,102.425743 C52.1257396,101.633663 53.064497,100.693069 54.1514793,100.29703 C56.2760355,99.5049505 58.6970414,99.6534653 60.3769231,101.386139 Z" id="Shape" fill="#231F20" fill-rule="nonzero"></path>
                <path d="M112.650888,99.950495 C114.429586,100.19802 115.516568,101.287129 116.801183,102.425743 C115.565976,102.277228 114.380178,102.178218 113.14497,102.079208 C113.984911,104.356436 114.577811,106.534653 114.528402,108.960396 C114.083728,109.405941 113.639053,109.80198 113.194379,110.247525 C111.316864,112.227723 110.625148,115.09901 108.401775,116.435644 C106.721893,117.574257 104.943195,117.673267 102.966864,117.920792 C102.868047,120.445545 102.472781,122.475248 101.435207,124.752475 C101.237574,120 100.545858,115.445545 99.1130178,110.940594 C101.978698,107.623762 104.745562,104.108911 107.907692,101.039604 C109.192308,99.9009901 110.921598,99.6534653 112.650888,99.950495 Z" id="Shape" fill="#231F20" fill-rule="nonzero"></path>
                <path d="M57.4618343,104.950495 C58.7464497,106.534653 59.833432,108.316832 61.0686391,109.90099 L59.2405325,109.50495 C59.7346154,111.188119 59.7840237,113.019802 61.760355,113.564356 C63.835503,114.059406 64.4284024,112.178218 65.8118343,111.039604 C65.8612426,112.475248 65.8612426,113.861386 65.762426,115.247525 C63.4402367,115.544554 61.2168639,115.39604 59.3393491,113.811881 C56.7207101,111.584158 56.2266272,108.069307 57.4618343,104.950495 Z" id="Shape" fill="#FFFFFF" fill-rule="nonzero"></path>
                <path d="M109.587574,104.851485 C110.674556,107.871287 110.427515,110.940594 108.204142,113.366337 C106.376036,115.346535 103.905621,115.594059 101.336391,115.29703 C101.188166,113.960396 100.990533,112.623762 101.286982,111.287129 C102.719822,111.633663 102.917456,113.861386 104.745562,113.613861 C107.11716,113.514851 107.463018,111.237624 107.808876,109.405941 C107.215976,109.60396 106.573669,109.752475 105.980769,109.90099 C107.265385,108.267327 108.401775,106.534653 109.587574,104.851485 Z" id="Shape" fill="#FFFFFF" fill-rule="nonzero"></path>
                <path d="M130.981361,105.445545 C131.673077,105.49505 132.315385,105.49505 133.007101,105.544554 C132.068343,108.168317 131.673077,111.089109 130.388462,113.564356 L130.190828,113.564356 C129.795562,113.366337 129.350888,113.168317 128.955621,112.970297 C129.548521,110.39604 130.190828,107.920792 130.981361,105.445545 Z" id="Shape" fill="#231F20" fill-rule="nonzero"></path>
                <path d="M83.8952663,106.089109 C87.0573964,107.425743 90.466568,108.217822 93.5298817,109.752475 C95.4568047,110.693069 96.7908284,112.128713 97.9766272,113.861386 C96.4449704,113.267327 95.0121302,112.673267 93.3816568,112.376238 C91.4053254,111.980198 89.3301775,111.980198 87.3538462,111.485149 C85.9704142,111.138614 84.9328402,110.346535 83.845858,109.455446 C82.808284,110.29703 81.8695266,111.039604 80.5849112,111.435644 C78.6085799,111.980198 76.533432,111.980198 74.5076923,112.326733 C72.7784024,112.623762 71.2961538,113.267327 69.7150888,113.910891 C70.9502959,112.128713 72.3831361,110.594059 74.4088757,109.653465 C77.4227811,108.217822 80.7331361,107.376238 83.8952663,106.089109 Z" id="Shape" fill="#231F20" fill-rule="nonzero"></path>
                <path d="M139.08432,106.386139 C139.92426,107.821782 140.51716,109.405941 141.060651,110.990099 C140.22071,110.49505 139.430178,110 138.590237,109.50495 C139.034911,113.366337 139.92426,116.930693 139.380769,120.792079 C139.08432,123.465347 138.293787,125.940594 137.206805,128.366337 C136.515089,127.673267 135.823373,126.980198 135.181065,126.336634 C135.823373,119.60396 137.05858,112.871287 139.08432,106.386139 Z" id="Shape" fill="#8B8C8E" fill-rule="nonzero"></path>
                <path d="M53.5091716,109.059406 C55.5843195,110.742574 56.5230769,113.019802 58.0053254,115.148515 C59.5863905,117.227723 61.760355,117.722772 64.1813609,118.118812 C64.1813609,120.49505 64.5272189,122.475248 65.2189349,124.752475 C65.2189349,125.19802 65.1695266,125.643564 65.1695266,126.089109 C64.0825444,129.405941 63.1931953,132.722772 62.6497041,136.188119 C62.2050296,138.861386 61.3650888,141.138614 60.0310651,143.465347 C59.4381657,142.871287 58.795858,142.227723 58.2029586,141.584158 C56.7207101,141.831683 55.2384615,142.128713 53.756213,142.376238 C58.3017751,136.435644 62.4026627,129.158416 62.797929,121.534653 C61.2662722,124.059406 60.2286982,126.633663 57.758284,128.465347 C58.4994083,125.940594 59.487574,123.514851 60.3769231,121.039604 C59.3393491,120.445545 58.0547337,119.80198 57.3136095,118.861386 C56.3254438,117.623762 55.7819527,115.940594 55.2384615,114.50495 C54.5961538,112.673267 53.9044379,110.891089 53.5091716,109.059406 Z" id="Shape" fill="#8B8C8E" fill-rule="nonzero"></path>
                <path d="M113.194379,110.29703 C112.552071,112.920792 111.71213,115.643564 110.427515,118.019802 C109.587574,119.554455 108.204142,120.148515 106.771302,121.039604 C107.808876,123.613861 108.797041,126.237624 109.735799,128.861386 C108.599408,127.772277 107.413609,126.831683 106.573669,125.445545 C105.783136,124.158416 105.09142,122.871287 104.350296,121.584158 C104.696154,128.960396 108.352367,135.247525 112.354438,141.237624 C107.067751,138.811881 104.696154,133.910891 102.324556,128.910891 C101.978698,127.574257 101.682249,126.237624 101.435207,124.851485 C102.423373,122.574257 102.868047,120.49505 102.966864,118.019802 C104.943195,117.772277 106.721893,117.623762 108.401775,116.534653 C110.625148,115.148515 111.316864,112.326733 113.194379,110.29703 Z" id="Shape" fill="#8B8C8E" fill-rule="nonzero"></path>
                <path d="M128.263905,115.940594 C128.906213,115.841584 129.548521,115.742574 130.14142,115.643564 C128.856805,120.940594 127.918047,126.336634 127.028698,131.683168 C125.348817,140.990099 121.79142,150.148515 115.516568,157.326733 C109.834615,163.910891 101.583432,168.663366 92.887574,169.455446 C89.5772189,169.653465 86.2668639,169.80198 83.3023669,168.168317 C85.8715976,168.861386 88.4902367,169.306931 91.158284,169.108911 C100.397633,168.514851 108.945266,163.663366 114.824852,156.633663 C120.309172,150.148515 123.570118,141.831683 125.200592,133.564356 C126.238166,127.673267 126.97929,121.782178 128.263905,115.940594 Z" id="Shape" fill="#231F20" fill-rule="nonzero"></path>
                <path d="M91.2076923,119.50495 C94.0733728,120.693069 96.4943787,122.574257 98.5201183,124.90099 C93.2828402,122.128713 87.7491124,120.39604 81.7707101,121.188119 C77.6204142,121.683168 74.0136095,123.415842 70.4068047,125.39604 C72.8772189,122.673267 75.7923077,120.445545 79.3002959,119.158416 C83.1047337,117.722772 87.4526627,117.871287 91.2076923,119.50495 Z" id="Shape" fill="#231F20" fill-rule="nonzero"></path>
                <path d="M97.3837278,130.643564 C99.3600592,131.683168 100.595266,133.267327 101.484615,135.19802 C96.6920118,132.673267 91.3559172,131.435644 85.9210059,132.128713 C79.6461538,132.772277 74.3594675,135.544554 69.1715976,138.960396 C72.5313609,134.90099 76.9781065,131.435644 82.0177515,129.752475 C86.9091716,128.019802 92.7887574,128.118812 97.3837278,130.643564 Z" id="Shape" fill="#231F20" fill-rule="nonzero"></path>
                <path d="M33.3505917,139.356436 C34.9810651,140.247525 36.6609467,140.643564 38.4890533,140.841584 C39.4278107,142.079208 40.3171598,143.316832 41.2559172,144.60396 C37.056213,144.752475 33.054142,144.405941 29.2991124,142.326733 C28.706213,141.188119 28.1133136,140.09901 27.5204142,138.960396 C29.5461538,139.009901 31.5224852,138.267327 33.3505917,139.356436 Z" id="Shape" fill="#231F20" fill-rule="nonzero"></path>
                <path d="M16.1071006,142.425743 C17.9352071,144.009901 19.4668639,145.891089 21.3443787,147.425743 C26.0381657,151.386139 31.8189349,153.861386 37.9949704,154.009901 C41.9476331,154.108911 46.4931953,153.613861 49.9517751,151.633663 C52.0763314,150.445545 53.3609467,148.663366 54.8431953,146.782178 C55.485503,149.851485 56.0289941,153.465347 54.0032544,156.138614 C52.2739645,158.366337 49.4576923,158.613861 46.8884615,158.960396 C40.4159763,159.80198 33.8446746,158.316832 28.360355,154.752475 C23.5677515,151.633663 19.2692308,147.227723 16.1071006,142.425743 Z" id="Shape" fill="#FFFFFF" fill-rule="nonzero"></path>
                <path d="M150.794083,142.524752 C145.507396,150.29703 137.947929,156.930693 128.510947,158.811881 C129.350888,157.178218 130.14142,155.544554 130.882544,153.910891 C135.922189,153.267327 140.51716,151.386139 144.519231,148.267327 C146.84142,146.584158 148.669527,144.405941 150.794083,142.524752 Z" id="Shape" fill="#FFFFFF" fill-rule="nonzero"></path>
                <path d="M64.1813609,165.940594 C65.9106509,168.316832 67.5411243,170.693069 69.7150888,172.722772 C74.7547337,177.574257 81.1284024,180.39604 87.9467456,181.732673 C94.7650888,183.019802 101.682249,183.316832 108.55,182.178218 C101.583432,187.326733 94.0733728,191.485149 86.6127219,195.841584 C80.9801775,192.425743 75.15,189.306931 69.7150888,185.643564 C63.6872781,181.683168 58.1535503,177.128713 52.8174556,172.326733 C55.2878698,171.485149 57.8571006,170.49505 60.1298817,169.108911 C61.5133136,168.168317 62.797929,167.029703 64.1813609,165.940594 Z" id="Shape" fill="#231F20" fill-rule="nonzero"></path>
                <path d="M52.7680473,172.326733 C58.1535503,177.128713 63.6378698,181.732673 69.6656805,185.643564 C75.1005917,189.306931 80.9307692,192.475248 86.5633136,195.841584 C94.0239645,191.485149 101.534024,187.326733 108.500592,182.178218 C113.490828,180.940594 117.937574,178.762376 122.038462,175.693069 C118.085799,179.405941 113.886095,182.821782 109.488757,185.990099 C102.324556,191.188119 94.3698225,195.49505 86.7115385,200 L86.4150888,200 C80.535503,196.485149 74.5571006,193.168317 68.8257396,189.455446 C61.5627219,184.70297 54.6455621,179.257426 48.5189349,173.118812 C49.9023669,172.970297 51.3352071,172.673267 52.7680473,172.326733 Z" id="Shape" fill="#DAAC27" fill-rule="nonzero"></path>
                <path d="M122.977219,176.831683 C124.311243,176.881188 125.645266,176.930693 126.97929,176.930693 C127.176923,177.574257 127.374556,178.217822 127.572189,178.861386 C128.066272,178.019802 128.609763,177.227723 129.153254,176.435644 C129.301479,177.673267 129.400296,178.910891 129.499112,180.19802 L128.659172,180.19802 C128.70858,179.70297 128.757988,179.207921 128.807396,178.712871 C128.362722,179.158416 127.918047,179.60396 127.473373,180.049505 C127.176923,179.554455 126.929882,179.108911 126.633432,178.613861 C126.68284,179.158416 126.68284,179.653465 126.732249,180.19802 L125.941716,180.19802 C125.991124,179.207921 126.040533,178.217822 126.089941,177.277228 C125.645266,177.376238 125.25,177.475248 124.805325,177.574257 C124.706509,178.663366 124.755917,179.653465 124.163018,180.594059 C124.064201,179.653465 123.965385,178.712871 123.81716,177.772277 C123.570118,177.475248 123.273669,177.128713 122.977219,176.831683 Z" id="Shape" fill="#8B8C8E" fill-rule="nonzero"></path>
            </g>
        </g>
    </g>
</svg>