<?xml version="1.0" encoding="UTF-8"?>
<svg width="200px" height="200px" viewBox="0 0 200 200" version="1.1" xmlns="http://www.w3.org/2000/svg" xmlns:xlink="http://www.w3.org/1999/xlink">
    <!-- Generator: Sketch 55.2 (78181) - https://sketchapp.com -->
    <title>iupui</title>
    <desc>Created with Sketch.</desc>
    <defs>
        <radialGradient cx="20.4973408%" cy="30.3970894%" fx="20.4973408%" fy="30.3970894%" r="469.289124%" gradientTransform="translate(0.204973,0.303971),scale(1.000000,0.589554),rotate(8.621775),translate(-0.204973,-0.303971)" id="radialGradient-1">
            <stop stop-color="#FFFFFF" offset="0%"></stop>
            <stop stop-color="#556363" offset="100%"></stop>
        </radialGradient>
        <linearGradient x1="51.7506653%" y1="49.1348951%" x2="41.5384511%" y2="46.1349236%" id="linearGradient-2">
            <stop stop-color="#FFD589" offset="0%"></stop>
            <stop stop-color="#CA7916" offset="100%"></stop>
        </linearGradient>
        <linearGradient x1="42.428569%" y1="73.0597015%" x2="111.034663%" y2="27.0597015%" id="linearGradient-3">
            <stop stop-color="#FFD589" offset="0%"></stop>
            <stop stop-color="#CA7916" offset="100%"></stop>
        </linearGradient>
        <linearGradient x1="47.9179555%" y1="75.5462327%" x2="50.9206069%" y2="22.1372027%" id="linearGradient-4">
            <stop stop-color="#FFD589" offset="0%"></stop>
            <stop stop-color="#CA7916" offset="100%"></stop>
        </linearGradient>
        <linearGradient x1="9.59103809%" y1="47.7573585%" x2="115.686398%" y2="55.1093131%" id="linearGradient-5">
            <stop stop-color="#FFD589" offset="0%"></stop>
            <stop stop-color="#CA7916" offset="100%"></stop>
        </linearGradient>
        <linearGradient x1="30.1181188%" y1="30.7386118%" x2="54.1181188%" y2="47.5810265%" id="linearGradient-6">
            <stop stop-color="#FFD589" offset="0%"></stop>
            <stop stop-color="#864F00" offset="100%"></stop>
        </linearGradient>
        <linearGradient x1="17.5742651%" y1="25.233971%" x2="61.5742651%" y2="64.5149627%" id="linearGradient-7">
            <stop stop-color="#FFD589" offset="0%"></stop>
            <stop stop-color="#CA7916" offset="100%"></stop>
        </linearGradient>
        <linearGradient x1="-10.1742496%" y1="25.0963809%" x2="68.8257504%" y2="53.2099725%" id="linearGradient-8">
            <stop stop-color="#FFD589" offset="0%"></stop>
            <stop stop-color="#CA7916" offset="100%"></stop>
        </linearGradient>
        <radialGradient cx="62.7456689%" cy="126.134455%" fx="62.7456689%" fy="126.134455%" r="1308.18554%" gradientTransform="translate(0.627457,1.261345),scale(1.000000,0.639027),translate(-0.627457,-1.261345)" id="radialGradient-9">
            <stop stop-color="#FFFFFF" offset="0%"></stop>
            <stop stop-color="#556363" offset="100%"></stop>
        </radialGradient>
        <radialGradient cx="7.25262854%" cy="94.8624503%" fx="7.25262854%" fy="94.8624503%" r="164.133386%" gradientTransform="translate(0.072526,0.948625),scale(1.000000,0.979157),translate(-0.072526,-0.948625)" id="radialGradient-10">
            <stop stop-color="#FFFFFF" offset="0%"></stop>
            <stop stop-color="#556363" offset="100%"></stop>
        </radialGradient>
        <linearGradient x1="0.933333333%" y1="48.4205576%" x2="100.153333%" y2="50.4576574%" id="linearGradient-11">
            <stop stop-color="#FFFFFF" offset="0%"></stop>
            <stop stop-color="#556363" offset="100%"></stop>
        </linearGradient>
        <linearGradient x1="17.0530971%" y1="32.9495928%" x2="190.924946%" y2="106.847625%" id="linearGradient-12">
            <stop stop-color="#FFFFFF" offset="0%"></stop>
            <stop stop-color="#556363" offset="100%"></stop>
        </linearGradient>
        <linearGradient x1="40.7449001%" y1="-6.27616279%" x2="65.7227788%" y2="181.450581%" id="linearGradient-13">
            <stop stop-color="#FFFFFF" offset="0%"></stop>
            <stop stop-color="#556363" offset="100%"></stop>
        </linearGradient>
        <linearGradient x1="29.0047723%" y1="45.9533404%" x2="94.0770271%" y2="60.9374719%" id="linearGradient-14">
            <stop stop-color="#FFFFFF" offset="0%"></stop>
            <stop stop-color="#556363" offset="100%"></stop>
        </linearGradient>
        <linearGradient x1="248.306066%" y1="285.877193%" x2="-37.6330413%" y2="-66.122807%" id="linearGradient-15">
            <stop stop-color="#FFD589" offset="0%"></stop>
            <stop stop-color="#CA7916" offset="100%"></stop>
        </linearGradient>
        <linearGradient x1="60.3453689%" y1="55.388386%" x2="525.345369%" y2="277.889318%" id="linearGradient-16">
            <stop stop-color="#FFD589" offset="0%"></stop>
            <stop stop-color="#CA7916" offset="100%"></stop>
        </linearGradient>
        <linearGradient x1="49.3453689%" y1="9.62245083%" x2="36.3453689%" y2="155.852372%" id="linearGradient-17">
            <stop stop-color="#FFFFFF" offset="1%"></stop>
            <stop stop-color="#FFD589" offset="100%"></stop>
        </linearGradient>
        <linearGradient x1="-6.60702788%" y1="10.1609195%" x2="98.431524%" y2="27.1609195%" id="linearGradient-18">
            <stop stop-color="#64A845" offset="2%"></stop>
            <stop stop-color="#00773A" offset="100%"></stop>
        </linearGradient>
        <radialGradient cx="-8.57758621%" cy="202.521127%" fx="-8.57758621%" fy="202.521127%" r="681.948357%" gradientTransform="translate(-0.085776,2.025211),scale(0.367241,1.000000),translate(0.085776,-2.025211)" id="radialGradient-19">
            <stop stop-color="#FFFFFF" offset="0%"></stop>
            <stop stop-color="#556363" offset="100%"></stop>
        </radialGradient>
        <linearGradient x1="90.9270873%" y1="49.7717666%" x2="-36.0729127%" y2="49.9555272%" id="linearGradient-20">
            <stop stop-color="#FFD589" offset="0%"></stop>
            <stop stop-color="#CA7916" offset="100%"></stop>
        </linearGradient>
        <linearGradient x1="-11.8065844%" y1="141.191886%" x2="54.1934156%" y2="38.6388847%" id="linearGradient-21">
            <stop stop-color="#FFFFFF" offset="1%"></stop>
            <stop stop-color="#FFD589" offset="100%"></stop>
        </linearGradient>
        <linearGradient x1="52.9513145%" y1="47.31493%" x2="-16.0486855%" y2="61.3022431%" id="linearGradient-22">
            <stop stop-color="#FFFFFF" offset="1%"></stop>
            <stop stop-color="#FFD589" offset="100%"></stop>
        </linearGradient>
        <linearGradient x1="53.6816869%" y1="-35.7743575%" x2="47.8914402%" y2="220.470102%" id="linearGradient-23">
            <stop stop-color="#F58C82" offset="2%"></stop>
            <stop stop-color="#ED1B32" offset="52%"></stop>
            <stop stop-color="#9B2D3D" offset="100%"></stop>
        </linearGradient>
        <linearGradient x1="44.7908552%" y1="-213.312177%" x2="43.2645819%" y2="-309.524723%" id="linearGradient-24">
            <stop stop-color="#F58C82" offset="2%"></stop>
            <stop stop-color="#ED1B32" offset="52%"></stop>
            <stop stop-color="#9B2D3D" offset="100%"></stop>
        </linearGradient>
        <linearGradient x1="22.160212%" y1="43.0181543%" x2="85.1528583%" y2="50.0181543%" id="linearGradient-25">
            <stop stop-color="#007AC0" offset="2%"></stop>
            <stop stop-color="#16365E" offset="100%"></stop>
        </linearGradient>
        <linearGradient x1="-51.3969849%" y1="78.6441251%" x2="-117.396985%" y2="99.123608%" id="linearGradient-26">
            <stop stop-color="#64A845" offset="2%"></stop>
            <stop stop-color="#00773A" offset="100%"></stop>
        </linearGradient>
        <linearGradient x1="52.300813%" y1="48.9398992%" x2="629.300813%" y2="75.1960691%" id="linearGradient-27">
            <stop stop-color="#64A845" offset="2%"></stop>
            <stop stop-color="#00773A" offset="100%"></stop>
        </linearGradient>
        <linearGradient x1="-10.2324592%" y1="50.6741068%" x2="87.7675408%" y2="50.6741068%" id="linearGradient-28">
            <stop stop-color="#FFFFFF" offset="1%"></stop>
            <stop stop-color="#FFD589" offset="100%"></stop>
        </linearGradient>
        <linearGradient x1="121.302384%" y1="48.4501646%" x2="18.3023839%" y2="51.346199%" id="linearGradient-29">
            <stop stop-color="#FFFFFF" offset="1%"></stop>
            <stop stop-color="#FFD589" offset="100%"></stop>
        </linearGradient>
        <linearGradient x1="-14.6976161%" y1="56.4347187%" x2="85.3023839%" y2="56.4347187%" id="linearGradient-30">
            <stop stop-color="#FFFFFF" offset="1%"></stop>
            <stop stop-color="#FFD589" offset="100%"></stop>
        </linearGradient>
        <linearGradient x1="31.0340836%" y1="52.2826703%" x2="92.8745981%" y2="37.3692369%" id="linearGradient-31">
            <stop stop-color="#FFFFFF" offset="1%"></stop>
            <stop stop-color="#FFD589" offset="100%"></stop>
        </linearGradient>
        <linearGradient x1="262.437299%" y1="54.2604016%" x2="231.517042%" y2="53.6984111%" id="linearGradient-32">
            <stop stop-color="#FFFFFF" offset="1%"></stop>
            <stop stop-color="#FFD589" offset="100%"></stop>
        </linearGradient>
        <linearGradient x1="-54.7450253%" y1="62.7724347%" x2="17.2448841%" y2="52.3314301%" id="linearGradient-33">
            <stop stop-color="#FFFFFF" offset="1%"></stop>
            <stop stop-color="#FFD589" offset="100%"></stop>
        </linearGradient>
        <radialGradient cx="2.8431085%" cy="247.377872%" fx="2.8431085%" fy="247.377872%" r="3232.86058%" gradientTransform="translate(0.028431,2.473779),scale(0.100207,1.000000),rotate(23.485177),translate(-0.028431,-2.473779)" id="radialGradient-34">
            <stop stop-color="#FFFFFF" offset="0%"></stop>
            <stop stop-color="#556363" offset="100%"></stop>
        </radialGradient>
        <radialGradient cx="3.43091406%" cy="119.639033%" fx="3.43091406%" fy="119.639033%" r="3558.18615%" gradientTransform="translate(0.034309,1.196390),scale(0.091246,1.000000),rotate(23.475623),translate(-0.034309,-1.196390)" id="radialGradient-35">
            <stop stop-color="#FFFFFF" offset="0%"></stop>
            <stop stop-color="#556363" offset="100%"></stop>
        </radialGradient>
        <radialGradient cx="3.58669906%" cy="104.782897%" fx="3.58669906%" fy="104.782897%" r="3608.20822%" gradientTransform="translate(0.035867,1.047829),scale(0.090031,1.000000),rotate(23.475623),translate(-0.035867,-1.047829)" id="radialGradient-36">
            <stop stop-color="#FFFFFF" offset="0%"></stop>
            <stop stop-color="#556363" offset="100%"></stop>
        </radialGradient>
        <linearGradient x1="-2.37009544%" y1="47.897265%" x2="94.6299046%" y2="58.4666117%" id="linearGradient-37">
            <stop stop-color="#F58C82" offset="2%"></stop>
            <stop stop-color="#ED1B32" offset="52%"></stop>
            <stop stop-color="#9B2D3D" offset="100%"></stop>
        </linearGradient>
        <linearGradient x1="57.0814577%" y1="36.8331593%" x2="20.0814577%" y2="81.637907%" id="linearGradient-38">
            <stop stop-color="#FFFFFF" offset="0%"></stop>
            <stop stop-color="#556363" offset="100%"></stop>
        </linearGradient>
        <radialGradient cx="10.1663789%" cy="61.8532609%" fx="10.1663789%" fy="61.8532609%" r="1079.22647%" gradientTransform="translate(0.101664,0.618533),scale(0.354082,1.000000),rotate(4.996761),translate(-0.101664,-0.618533)" id="radialGradient-39">
            <stop stop-color="#FFFFFF" offset="0%"></stop>
            <stop stop-color="#556363" offset="100%"></stop>
        </radialGradient>
        <radialGradient cx="106.955742%" cy="70.6896552%" fx="106.955742%" fy="70.6896552%" r="107.896012%" gradientTransform="translate(1.069557,0.706897),scale(1.000000,0.564204),translate(-1.069557,-0.706897)" id="radialGradient-40">
            <stop stop-color="#7DA4D7" offset="2%"></stop>
            <stop stop-color="#036CA8" offset="19%"></stop>
            <stop stop-color="#16365E" offset="100%"></stop>
        </radialGradient>
    </defs>
    <g id="iupui" stroke="none" stroke-width="1" fill="none" fill-rule="evenodd">
        <g id="iupui_BGD">
            <g id="main_logo" transform="translate(0.000000, 4.000000)">
                <path d="M197.480519,26.2857143 C196.033463,25.0918757 194.104657,24.6578943 192.285714,25.1168831 C187.61039,25.6883117 164.597403,18.1298701 159.74026,17.1688312 C152.561967,11.6718867 144.592896,7.29327646 136.103896,4.18181818 C132.855806,2.90304488 129.462115,2.03063066 126,1.58441558 L126,1.37662338 C125.74026,1.37662338 100.025974,-4.93506494 69.9220779,9.53246753 L69.9220779,9.53246753 C58.1298701,14.7272727 51.1428571,11.7662338 50.8051948,11.6363636 L48.5714286,10.5454545 L46.4935065,12.0519481 C43.4565356,14.6922505 41.5887607,18.4278002 41.2987013,22.4415584 C40.9881814,24.4526559 40.8318817,26.4845518 40.8311688,28.5194805 C40.8311688,29.6103896 40.8311688,30.8311688 40.961039,32.1298701 C37.6363636,35.2207792 26.987013,44.5974026 20.1818182,50.5454545 L19.038961,51.5064935 L19.038961,53.8701299 L18.5454545,55.4805195 C17.7817228,57.7013978 17.2252356,59.9882122 16.8831169,62.3116883 C13.6610107,65.3475992 11.7899422,69.5481482 11.6883117,73.974026 C11.71454,74.4699019 11.7665584,74.9640768 11.8441558,75.4545455 C8.57142857,78.8051948 0.831168831,88.025974 0.233766234,95.1428571 C0.0779220779,96.987013 0,98.7532468 0,100.337662 C0,113.090909 4.31168831,121.818182 12.4155844,125.402597 C14.7804091,138.269958 24.8097735,148.361232 37.6623377,150.805195 L48.0519481,153.194805 L41.1688312,145.142857 C39.8188515,143.466146 38.6029737,141.685753 37.5324675,139.818182 L37.7142857,137.584416 L40.1038961,139.376623 L41.4545455,136.623377 L45.6103896,140.519481 L46.4935065,137.922078 C51.0179432,143.162352 57.3536017,146.501792 64.2337662,147.272727 C62.2002453,150.193706 60.4601973,153.308392 59.038961,156.571429 C54.4725231,156.313008 49.9317585,155.71394 45.4545455,154.779221 L40.5714286,153.792208 L41.2987013,158.701299 C42.8615786,164.024022 46.1512952,168.675316 50.6493506,171.922078 C50.4615299,172.360721 50.3390157,172.824525 50.2857143,173.298701 L50.2857143,174.155844 C51.4545455,185.064935 70.4935065,190.337662 79.974026,190.624647 C80.7532468,190.624647 98.7532468,190.883117 112.597403,183.974026 L117.480519,181.532468 L109.428571,175.090909 L110.181818,171.688312 C113.532468,170.207792 122.051948,166.831169 129.038961,167.220779 C140.311688,167.844156 179.480519,151.402597 187.532468,116.701299 L193.688312,119.298701 C193.688312,119.298701 204.623377,99.4025974 182.025974,56.3896104 C188.077922,50.6233766 198.623377,37.2727273 199.42917,32.025974 L199.42917,31.1688312 L199.42917,30.9090909 C199.452336,29.1817141 198.767035,27.5200921 197.532468,26.3116883 L197.480519,26.2857143 Z M77.0649351,133.168831 L77.0649351,133.428571 C76.6753247,133.87013 75.7922078,134.649351 75.0649351,135.324675 C72.7533339,137.372244 70.5593562,139.548878 68.4935065,141.844156 C65.8961039,138.233766 60.7012987,128.857143 61.7402597,121.532468 C64.5474836,120.729612 67.4448705,120.284532 70.3636364,120.207792 C72.917524,120.357081 75.2876504,121.584637 76.8831169,123.584416 C77.6579046,124.885145 78.0369846,126.383414 77.974026,127.896104 C77.9066597,129.68627 77.6009364,131.459465 77.0649351,133.168831 L77.0649351,133.168831 Z" id="Shape" fill="#AFAFAF" fill-rule="nonzero"></path>
                <path d="M177.688312,55.6103896 C179.792208,53.8181818 195.246753,35.5584416 195.87013,31.5064935 C195.87013,31.3506494 195.87013,31.1948052 195.87013,31.0649351 C195.925635,30.2230298 195.612882,29.3985002 195.012987,28.8051948 C194.623377,28.4155844 194.051948,28.4155844 192.675325,28.5714286 C186.935065,29.2987013 158.909091,20.7792208 158.181818,20.3896104 C140.467532,6.67532468 124.961039,4.57142857 124.415584,4.80519481 L124.987013,4.80519481 C124.753247,4.80519481 100.25974,-1.24675325 71.2727273,12.5974026 L71.2727273,12.5974026 C57.6623377,18.6753247 49.3246753,14.7532468 49.2467532,14.7012987 L48.8051948,14.4935065 L48.4415584,14.7792208 C46.1218341,16.9021184 44.723673,19.8475778 44.5454545,22.987013 C44.0625971,26.4295765 43.9928385,29.9175062 44.3376623,33.3766234 C43.2727273,35.1428571 22.4675325,53.3246753 22.4675325,53.3246753 L22.4675325,54.6233766 C21.3567669,57.5604171 20.5643524,60.6081648 20.1038961,63.7142857 C13.4025974,69.9480519 15.0649351,75.5064935 15.2467532,76.7012987 C15.2467532,76.7012987 4.33766234,88.1298701 3.68831169,95.5064935 C3.03896104,102.883117 2.96103896,119.220779 15.6623377,123.090909 L15.8441558,123.090909 C17.3365558,123.779888 18.9935877,124.032045 20.6233766,123.818182 C20.7792208,123.818182 21.0909091,123.818182 23.2207792,121.688312 C24.7332686,124.631259 26.469998,127.453444 28.4155844,130.12987 L34.3896104,134.753247 L34.7012987,131.090909 L38.7792208,134.103896 L40.3376623,130.883117 L44.0779221,134.38961 L45.974026,129.194805 C45.974026,129.194805 50.9090909,131.272727 51.1688312,130.597403 L51.1688312,130.233766 C50.884582,128.871459 50.1751849,127.634561 49.1428571,126.701299 C50.4524789,124.743212 52.1389617,123.065559 54.1038961,121.766234 C60.1298701,116.987013 69.012987,116.909091 70.8311688,116.831169 C86.4155844,119.116883 80.5974026,133.922078 80.5194805,134.857143 C80.3376623,136.857143 67.5324675,143.948052 61.6363636,160.025974 C59.038961,161.220779 44.8831169,158.311688 44.8831169,158.311688 C46.5235673,163.448404 50.0381477,167.779035 54.7272727,170.441558 C54.7272727,170.597403 55.974026,171.168831 55.974026,171.168831 C54.7532468,172.25974 53.974026,173.012987 53.9220779,173.766234 C53.8959983,173.833043 53.8959983,173.907217 53.9220779,173.974026 C54.7012987,181.454545 70.1298701,186.961039 80.1818182,187.272727 C80.1818182,187.272727 97.9220779,187.61039 111.168831,180.987013 L105.636364,176.571429 L107.324675,169.402597 C107.324675,169.402597 119.454545,163.324675 129.376623,163.87013 C139.298701,164.415584 179.584416,147.844156 185.090909,111.922078 L191.714286,114.701299 C191.714286,114.701299 196.701299,93.1948052 177.948052,55.6883117 L177.688312,55.6103896 Z" id="Path" fill="#001522" fill-rule="nonzero"></path>
                <path d="M8.46753247,95.012987 C8.12338925,97.2378154 8.01889538,99.4931414 8.15584416,101.74026 C7.00228397,109.421636 11.3134951,116.880031 18.5454545,119.714286 L19.2207792,120 C20.1263366,119.319504 20.7686992,118.346784 21.038961,117.246753 L22.7012987,111.792208 C20.6233766,104.831169 15.1948052,97.4805195 8.46753247,95.012987 Z" id="Path" fill="url(#radialGradient-1)" fill-rule="nonzero"></path>
                <path d="M168.051948,99.2467532 C166.12987,88.2077922 162.337662,74.7272727 154.545455,66.1298701 C153.688312,65.2727273 148.935065,66.5454545 148.155844,65.8441558 C143.87013,61.8441558 140.597403,59.4285714 140.571429,59.2727273 C140.545455,59.1168831 164.467532,51.0649351 167.74026,40.5454545 C167.74026,40.025974 165.948052,38.2077922 160.493506,37.4545455 C159.662338,37.4545455 154.935065,38.0519481 154.077922,37.9480519 C141.428571,36.4155844 141.090909,26.6493506 150.363636,24.4415584 C153.454545,23.6883117 137.376623,11.8961039 116.597403,9.19480519 C114.597403,8.93506494 78.987013,9.01298701 60.7532468,25.8701299 C53.3766234,32.5454545 27.2727273,58.2077922 26.5194805,59.1168831 C26.5194805,60.1038961 26.8051948,64.3116883 26.8051948,64.3116883 L26.8051948,64.7012987 L26.6233766,65.038961 C23.644295,66.5532241 21.5068138,69.3300412 20.8051948,72.5974026 C20.5974026,73.7142857 24.2337662,72.9350649 24.5194805,74.3376623 C24.8051948,75.7402597 12.3376623,87.1688312 8.93506494,96.5194805 C15.6808633,99.0954015 20.7750759,104.759934 22.6233766,111.74026 L22.7792208,111.220779 L24.6753247,114.311688 C23.8701299,108.961039 24.6753247,103.688312 29.038961,100.077922 C38.5194805,93.8441558 51.5584416,89.6883117 60.0519481,94.8831169 C65.2467532,97.7402597 64.3636364,106.545455 61.1948052,112.857143 C64.7682762,111.745746 68.4130008,110.877955 72.1038961,110.25974 C73.1688312,110.077922 68.6493506,108.415584 69.6623377,108.025974 C74.8571429,105.974026 82.2597403,105.428571 92.6753247,107.454545 C118.441558,112.649351 127.558442,146.415584 122.103896,148.181818 C103.116883,154.597403 97.5844156,166.597403 93.5324675,173.662338 C81.5584416,180.441558 58.6493506,174.25974 58.6493506,174.25974 C62.1579037,179.16937 68.0200932,181.833101 74.025974,181.246753 C78.9350649,182.753247 98.961039,179.116883 98.961039,179.116883 C98.961039,179.116883 94.4935065,177.584416 95.2987013,176.311688 C101.61039,166.571429 101.376623,152.415584 124.753247,154.103896 C130.181818,154.493506 135.142857,133.324675 139.454545,131.87013 C140.415584,131.61039 146.909091,130.155844 148.181818,129.818182 C159.298701,126.727273 162.467532,121.038961 163.584416,97.2987013 L168.025974,99.2467532 L168.051948,99.2467532 Z" id="Path" fill="url(#linearGradient-2)" fill-rule="nonzero"></path>
                <path d="M37.012992,47.6103896 C33.038961,51.4025974 29.6623377,54.7792208 27.9480519,56.8051948 C26.2337662,58.8311688 35.7402597,54 35.5584416,54.2077922 C35.4025681,55.5021713 35.1683723,56.785911 34.8571429,58.0519481 C36.2814934,54.7552421 37.0151984,51.2016345 37.012992,47.6103896 L37.012992,47.6103896 Z" id="Path" fill="url(#linearGradient-3)" fill-rule="nonzero"></path>
                <path d="M169.402597,60 C168.545455,59.1428571 148.857143,66.5714286 148.051948,65.8441558 C143.792208,61.8441558 140.519481,59.4285714 140.467532,59.2727273 C140.415584,59.1168831 164.38961,51.0649351 167.662338,40.5454545 C167.662338,40.025974 165.87013,38.2077922 160.38961,37.4545455 C159.584416,37.4545455 154.831169,38.0519481 153.974026,37.9480519 C143.584416,36.7012987 141.61039,32.7532468 134.441558,30.7792208 C132.727273,31.4805195 120.25974,34.9090909 118.649351,35.974026 C104.909091,44.6493506 97.0649351,60.3896104 78.7272727,63.7402597 C62.1818182,65.8181818 49.8961039,55.5324675 34.7532468,58.5454545 C33.8441558,62.8051948 32.4675325,68.6753247 32.4675325,68.6753247 C32.4675325,68.6753247 24.2337662,72.9090909 24.5194805,74.3376623 C24.8051948,75.7662338 12.3376623,87.1428571 8.93506494,96.4935065 C15.6796023,99.0854861 20.7708113,104.756339 22.6233766,111.74026 L22.7792208,111.194805 C22.7792208,111.194805 23.7142857,112.779221 24.6493506,114.233766 C23.4289441,109.077935 25.0876079,103.66493 28.987013,100.077922 C38.4675325,93.8441558 51.5064935,89.6883117 60,94.8831169 C65.1948052,97.7402597 64.3376623,106.519481 61.1688312,112.857143 C64.7423022,111.745746 68.3870268,110.877955 72.0779221,110.25974 C73.1428571,110.077922 68.5974026,108.415584 69.6103896,108 C74.8051948,105.974026 78.5454545,102.285714 89.1688312,102.623377 C110.571429,103.298701 116.571429,120.311688 122.077922,132.25974 C123.402597,135.168831 127.532468,146.311688 122.077922,148.155844 C103.090909,154.571429 97.5584416,166.571429 93.5064935,173.636364 C81.5324675,180.441558 58.6493506,174.233766 58.6493506,174.233766 C62.1482493,179.157504 68.0141528,181.832831 74.025974,181.246753 C78.9350649,182.753247 98.961039,179.090909 98.961039,179.090909 C98.961039,179.090909 94.4935065,177.558442 95.2987013,176.311688 C101.61039,166.545455 101.376623,152.415584 124.753247,154.077922 C128.883117,154.38961 140.571429,126.597403 145.116883,124.207792 C146.571429,123.454545 145.688312,145.896104 145.688312,145.896104 L137.636364,156.12987 C153.818182,150.493506 176.597403,126.753247 179.194805,101.922078 L185.272727,104.12987 C183.969574,88.2442541 178.435896,72.9974915 169.246753,59.974026 L169.402597,60 Z" id="Path" fill="url(#linearGradient-4)" fill-rule="nonzero"></path>
                <path d="M78.7532468,63.7142857 C94.8051948,60.8831169 132.857143,33.4285714 143.896104,26.6753247 C146.836728,25.9645878 149.859164,25.6501148 152.883117,25.7402597 C154.467532,24.5714286 137.298701,11.8961039 116.519481,9.19480519 C114.519481,8.93506494 78.9090909,9.01298701 60.6753247,25.8701299 C56.8831169,29.3506494 45.5844156,39.4805195 37.0649351,47.6103896 C37.0564473,51.1837612 36.3230385,54.7182613 34.9090909,58 C34.9188818,58.1730218 34.9188818,58.3464587 34.9090909,58.5194805 C49.8961039,55.6103896 62.1818182,65.8961039 78.7532468,63.7142857 Z" id="Path" fill="url(#linearGradient-5)" fill-rule="nonzero"></path>
                <path d="M183.116883,36.961039 C183.116883,36.4675325 125.74026,37.1688312 159.012987,39.9480519 C159.012987,39.9480519 127.584416,41.6103896 112.805195,37.6623377 C112.805195,37.6623377 112.493506,37.9480519 111.87013,38.4415584 C122.675325,44.3116883 134.571429,54.5714286 143.896104,62.2597403 C151.506494,59.3246753 180.25974,46.0779221 183.116883,36.961039 Z" id="Path" fill="url(#linearGradient-6)" fill-rule="nonzero"></path>
                <path d="M66.4675325,58.1038961 C61.5324675,58.987013 56.0779221,61.2467532 51.5324675,57.8701299 C46.987013,54.4935065 69.8701299,29.2987013 69.8701299,29.2987013 C69.8701299,29.2987013 44.3636364,52.8571429 40,55.012987 C35.6363636,57.1688312 35.7922078,53.8961039 35.5584416,54.1298701 C35.5584416,55.1168831 32.4675325,68.6493506 32.4675325,68.6493506 C32.4675325,68.6493506 24.2337662,72.8831169 24.5194805,74.3116883 C24.8051948,75.7402597 12.3376623,87.1168831 8.93506494,96.4675325 C15.6796023,99.0595121 20.7708113,104.730365 22.6233766,111.714286 L22.7792208,111.168831 C22.7792208,111.168831 23.7142857,112.753247 24.6493506,114.207792 C23.4276218,109.059785 25.087212,103.653695 28.987013,100.077922 C33.410625,97.1381003 38.2778481,94.9281179 43.4025974,93.5324675 C45.847508,92.0009339 48.5630729,90.9517383 51.4025974,90.4415584 C74.5974026,85.5324675 105.948052,95.6363636 126,111.090909 C117.922078,98.1038961 110.987013,75.6883117 93.5844156,73.038961 C108.545455,71.4805195 124.753247,72.3896104 137.324675,80.4935065 C129.246753,67.7142857 114.805195,60.9090909 100.337662,59.4545455 C113.948052,55.3506494 127.844156,57.4545455 141.662338,60.3116883 C141.240905,60.0023382 140.84166,59.6638474 140.467532,59.2987013 L142.363636,58.5974026 C132.901375,50.9302827 122.724811,44.1893963 111.974026,38.4675325 C98.6004146,48.5743125 82.9930672,55.3178981 66.4675325,58.1298701 L66.4675325,58.1038961 Z" id="Path" fill="url(#linearGradient-7)" fill-rule="nonzero"></path>
                <path d="M180.987013,96.961039 C178.570048,84.2346726 173.05718,72.2990445 164.935065,62.2077922 C164.077922,61.3506494 148.779221,66.5714286 148,65.8441558 C145.922078,63.8961039 143.792208,62.0519481 141.584416,60.2857143 C127.766234,57.4285714 113.896104,55.3506494 100.25974,59.4285714 C114.753247,60.8831169 129.194805,67.6883117 137.272727,80.4675325 C124.649351,72.3636364 108.519481,71.5064935 93.5584416,73.012987 C110.961039,75.6103896 117.922078,98.1298701 125.974026,111.064935 C105.87013,95.4805195 74.5974026,85.5064935 51.4025974,90.4155844 C48.5630729,90.9257643 45.847508,91.9749599 43.4025974,93.5064935 C48.8868426,91.7083918 54.8621829,92.1759458 60,94.8051948 C65.1948052,97.6623377 64.3116883,106.441558 61.1688312,112.779221 C64.3376623,111.818182 82.5454545,113.246753 86.6753247,115.376623 C87.5844156,115.844156 79.7662338,111.714286 74.7012987,109.402597 C80.60338,108.211894 86.6672415,108.053706 92.6233766,108.935065 C120.207792,112.545455 132.155844,145.636364 122.025974,148.207792 C117.035909,149.589923 112.372913,151.956747 108.311688,155.168831 C108.077922,155.87013 104.649351,159.584416 104.441558,160.363636 C108.12987,157.974026 116.25974,156.025974 125.61039,154.831169 C138.597403,153.142857 144.077922,132 144.077922,132 C146.077922,137.506494 137.61039,156.233766 137.61039,156.233766 C153.506494,145.844156 172.857143,121.87013 173.792208,94.8571429 L180.987013,96.961039 Z" id="Path" fill="url(#linearGradient-8)" fill-rule="nonzero"></path>
                <path d="M35.5584416,112.623377 C34.9193501,105.719105 37.3073804,98.8772088 42.1038961,93.8701299 C37.4539186,95.2929296 33.0354352,97.3840535 28.987013,100.077922 C24.6493506,103.688312 23.7922078,108.961039 24.6233766,114.311688 C25.1147162,115.143963 25.6614011,115.942296 26.2597403,116.701299 C30.1528938,120.660677 35.7659075,122.414744 41.2207792,121.376623 C38.5193787,119.074135 36.5510067,116.031284 35.5584416,112.623377 Z" id="Path" fill="url(#radialGradient-9)" fill-rule="nonzero"></path>
                <path d="M61.1688312,112.779221 C64.3376623,106.441558 65.1168831,97.6623377 60,94.8051948 C54.8831169,91.9480519 48.5454545,91.974026 42.1038961,93.8701299 C37.3073804,98.8772088 34.9193501,105.719105 35.5584416,112.623377 C36.5507573,116.025004 38.5086889,119.065663 41.1948052,121.376623 L41.974026,121.376623 C44,120.857143 49.6623377,116.233766 61.1688312,112.779221 Z" id="Path" fill="url(#radialGradient-10)" fill-rule="nonzero"></path>
                <path d="M45.4545455,99.1948052 L44.9350649,100.077922 C45.5626135,100.470267 46.3024051,100.643799 47.038961,100.571429 C47.438965,100.498594 47.8305708,100.385463 48.2077922,100.233766 C48.409516,99.9348717 48.4213956,99.5466195 48.2383232,99.235951 C48.0552507,98.9252826 47.7098547,98.7475678 47.3506494,98.7792208 C46.6970902,98.7887579 46.0521792,98.9301082 45.4545455,99.1948052 L45.4545455,99.1948052 Z M49.5064935,95.9480519 L48.9350649,97.3246753 C49.7230135,97.8931453 50.7001699,98.1351078 51.6623377,98 C52.1817873,97.8817473 52.6868984,97.7075711 53.1688312,97.4805195 C53.1688312,97.4805195 54.0519481,95.6623377 52.1038961,95.4285714 C51.1745238,95.3781262 50.2469706,95.5565018 49.4025974,95.9480519 L49.5064935,95.9480519 Z M44.7012987,104.025974 L44.2857143,105.012987 C44.9108481,105.409857 45.6552267,105.575274 46.3896104,105.480519 C46.7915986,105.416346 47.1841602,105.302939 47.5584416,105.142857 C47.5584416,105.142857 48.2077922,103.896104 46.7012987,103.714286 C45.9855537,103.660606 45.2668408,103.767082 44.5974026,104.025974 L44.7012987,104.025974 Z M48.7792208,100.779221 L48.2077922,102.181818 C48.9935499,102.754093 49.9757239,102.987944 50.9350649,102.831169 C51.4567236,102.720772 51.962728,102.546287 52.4415584,102.311688 C52.4415584,102.311688 53.3246753,100.519481 51.3766234,100.25974 C50.4483932,100.225106 49.5245016,100.402778 48.6753247,100.779221 L48.7792208,100.779221 Z M44.1298701,111.168831 L43.7142857,112.12987 C44.3314342,112.546584 45.0801052,112.722198 45.8181818,112.623377 C46.2217205,112.566292 46.6152003,112.45262 46.987013,112.285714 C46.987013,112.285714 47.6623377,111.038961 46.1298701,110.831169 C45.4199601,110.763864 44.7037949,110.843437 44.025974,111.064935 L44.1298701,111.168831 Z M48.0519481,107.87013 L47.4805195,109.272727 C48.2662771,109.845002 49.2484512,110.078853 50.2077922,109.922078 C50.7294509,109.811681 51.2354553,109.637197 51.7142857,109.402597 C51.7142857,109.402597 52.5974026,107.584416 50.6493506,107.350649 C49.7559623,107.331596 48.8692861,107.508931 48.0519481,107.87013 L48.0519481,107.87013 Z M66.2337662,48.6493506 L67.1948052,50.7272727 L69.4285714,50.7272727 L72.025974,48.8051948 C71.4218257,48.2396335 70.6617,47.8686198 69.8441558,47.7402597 C68.5858168,47.6991747 67.3393577,47.9950967 66.2337662,48.5974026 L66.2337662,48.6493506 Z M46.8051948,49.1948052 L47.7402597,51.2467532 L49.974026,51.2467532 L52.5714286,49.3246753 C51.9579496,48.7728027 51.202103,48.4038776 50.3896104,48.2597403 C49.1541958,48.2316817 47.9340105,48.5367281 46.8571429,49.1428571 L46.8051948,49.1948052 Z M39.012987,53.0649351 L39.9480519,55.1428571 L42.2077922,55.1428571 L44.8051948,53.2207792 C44.1949396,52.6641441 43.4376406,52.2945101 42.6233766,52.1558442 C41.3271738,52.0983079 40.0406882,52.4041856 38.9090909,53.038961 L39.012987,53.0649351 Z M77.4025974,32.2857143 C78.8997317,31.8672708 80.3663814,31.3465667 81.7922078,30.7272727 L81.4025974,28.8831169 L78.6493506,28.6753247 C78.6493506,28.6753247 72.5194805,29.5064935 72.5453722,31.012987 C73.2987013,31.012987 74.2077922,31.9480519 73.6363636,32.0779221 C73.6116014,32.2327826 73.6116014,32.390594 73.6363636,32.5454545 C73.8701299,32.8311688 75.5584416,32.5454545 77.4545455,32.2337662 L77.4025974,32.2857143 Z M56.6233766,43.4285714 C57.7384083,42.8990396 58.8146754,42.2914694 59.8441558,41.6103896 L59.2987013,40.1298701 L57.1688312,40.2857143 C57.1688312,40.2857143 52.5454545,41.7142857 52.7532468,42.8831169 C53.2987013,42.8831169 54.1298701,43.4545455 53.7142857,43.6363636 C53.7336948,43.7730103 53.7776951,43.9050113 53.8441558,44.025974 C54.0779221,44.3116883 55.3506494,43.974026 56.7532468,43.3766234 L56.6233766,43.4285714 Z M88.3636364,36.0779221 C89.9004444,35.7889638 91.4183676,35.4073146 92.9090909,34.9350649 L92.6753247,33.0649351 L90.0779221,32.5974026 C90.0779221,32.5974026 83.8961039,32.9090909 83.7922078,34.3896104 C84.5454545,34.3896104 85.3506494,35.4805195 84.7792208,35.5584416 C84.7538651,35.7219667 84.7538651,35.8884229 84.7792208,36.0519481 C84.9090909,36.3376623 86.5974026,36.3116883 88.4935065,36.025974 L88.3636364,36.0779221 Z M96,29.1428571 C98.2295651,28.773253 100.4332,28.261385 102.597403,27.6103896 L102.233766,25.012987 L98.3376623,24.4935065 C98.3376623,24.4935065 89.6103896,24.8051948 89.4545455,26.7792208 C90.5194805,26.7792208 91.7142857,28.2337662 90.8831169,28.3376623 C90.8584403,28.5534092 90.8584403,28.7712661 90.8831169,28.987013 C90.8831169,29.4285714 93.4805195,29.4025974 96.0779221,28.987013 L96,29.1428571 Z M59.5844156,34.1038961 C61.0809353,33.4833714 62.5381896,32.7720925 63.9480519,31.974026 L63.4285714,30.0519481 L60.6493506,30.0519481 C60.6493506,30.0519481 54.5194805,31.5844156 54.6233766,33.1948052 C55.3766234,33.038961 56.3376623,34.025974 55.7922078,34.2077922 C55.7557326,34.3790316 55.7557326,34.5560334 55.7922078,34.7272727 C55.9220779,35.0649351 57.6103896,34.7272727 59.4805195,34.0519481 L59.5844156,34.1038961 Z M66.8831169,25.0649351 C68.3885226,24.4356448 69.8544124,23.7157107 71.2727273,22.9090909 L70.7792208,20.987013 L67.974026,20.987013 C67.974026,20.987013 61.8701299,22.5194805 61.9480519,24.1298701 C62.7012987,24.1298701 63.6623377,24.987013 63.1168831,25.1688312 C63.0927107,25.3324453 63.0927107,25.4987235 63.1168831,25.6623377 C63.3506494,26.0779221 65.038961,25.7142857 66.8831169,25.0649351 Z M101.090909,18.0779221 C103.249077,17.7156719 105.382963,17.2212349 107.480519,16.5974026 L107.116883,14 L103.272727,13.3506494 C103.272727,13.3506494 94.5454545,13.6623377 94.4155844,15.6623377 C95.4545455,15.6623377 96.6493506,17.0909091 95.8441558,17.1948052 C95.7923759,17.4081587 95.7923759,17.6308024 95.8441558,17.8441558 C95.974026,18.4155844 98.3896104,18.4155844 101.090909,18.0779221 Z M84.5974026,21.5064935 C86.7645543,21.1464601 88.907218,20.6519992 91.012987,20.025974 L90.6493506,17.4285714 L86.8051948,16.961039 C86.8051948,16.961039 78.0779221,17.2727273 77.9220779,19.2467532 C78.987013,19.2467532 80.1558442,20.7012987 79.3506494,20.8051948 C79.3127837,21.019989 79.3127837,21.2397513 79.3506494,21.4545455 C79.5064935,21.8441558 81.8181818,21.8441558 84.5974026,21.5064935 Z M121.506494,27.7142857 C125.142033,27.0758082 128.733602,26.2082794 132.25974,25.1168831 L131.662338,20.7792208 L125.194805,19.5584416 C125.194805,19.5584416 110.545455,20.3116883 110.38961,23.7662338 C112.155844,23.7662338 114.12987,26.3636364 112.779221,26.3636364 C112.72659,26.7427709 112.72659,27.1273589 112.779221,27.5064935 C112.961039,28.2857143 116.987013,28.2337662 121.532468,27.6363636 L121.506494,27.7142857 Z M125.974026,15.8181818 C129.671659,15.9843891 133.376123,15.9149846 137.064935,15.6103896 L137.454545,11.2467532 L131.428571,8.77922078 C131.428571,8.77922078 116.987013,6.18181818 115.844156,9.48051948 C117.532468,9.8961039 118.909091,12.7532468 117.532468,12.6233766 C117.427979,12.9953016 117.375532,13.3799116 117.376623,13.7662338 C117.376623,14.5454545 121.298701,15.4025974 125.87013,15.8181818 L125.974026,15.8181818 Z M61.8181818,48.2857143 C63.2371996,47.6416873 64.6163005,46.9131057 65.9480519,46.1038961 L65.2727273,44.3376623 L62.5194805,44.5454545 C62.5194805,44.5454545 56.5974026,46.2337662 56.8311688,47.7402597 C57.5584416,47.5584416 58.6233766,48.4155844 58.0779221,48.6233766 C58.1020021,48.7954148 58.1546763,48.9622164 58.2337662,49.1168831 C58.3896104,49.4025974 60.025974,48.987013 61.8181818,48.2857143 L61.8181818,48.2857143 Z M65.6363636,143.948052 C65.6363636,143.948052 52.9350649,126.493506 60.3116883,115.376623 L41.0909091,125.012987 C41.0909091,125.012987 51.1948052,144.467532 65.6623377,143.948052 L65.6363636,143.948052 Z M22.0779221,118.25974 L15.5324675,121.974026 C16.4853083,134.642243 25.8475153,145.081423 38.3376623,147.402597 C38.3376623,147.402597 27.6623377,134.987013 28.3116883,119.948052 L22.0779221,118.25974 Z" id="Shape" fill="#001522" fill-rule="nonzero"></path>
                <path d="M66.6233766,170.571429 C66.6233766,170.571429 79.8181818,175.064935 90,171.714286 L80.6753247,169.74026 L78.2857143,170.935065 L75.2987013,167.948052 L71.1428571,171.012987 L67.3766234,167.61039 L66.6233766,170.571429 Z" id="Path" fill="url(#linearGradient-11)" fill-rule="nonzero"></path>
                <path d="M99.4285714,63.012987 C99.4285714,63.012987 87.012987,64.3376623 83.5844156,66.1558442 C82.7792208,66.5714286 86.1818182,69.6363636 85.3766234,70.0519481 C62.4415584,83.3766234 51.6103896,72.961039 51.038961,68.987013 C50.6753247,66 50.7792208,61.8441558 53.2987013,60.961039 C53.2987013,60.961039 51.974026,69.1688312 63.6883117,66.5194805 C68.5974026,65.4025974 72.5194805,62.2077922 77.012987,60.1558442 C82.5974026,57.5584416 88.5194805,57.5584416 94.4415584,56.5714286 C92.6493506,57.8701299 90.2337662,58.9350649 89.4025974,60.9090909 C93.0649351,60.6753247 97.1688312,63.2467532 99.4285714,63.012987 Z" id="Path" fill="#0C0C0C" fill-rule="nonzero"></path>
                <path d="M40.7532468,95.4025974 C40.7532468,95.4025974 29.0649351,100.233766 21.6103896,99.4545455 C16.5024591,98.8004368 11.4948616,97.5180033 6.7012987,95.6363636 C6.7012987,95.6363636 14.4935065,101.558442 17.4805195,104.571429 C20.109276,107.96226 22.2673632,111.693042 23.8961039,115.662338 C20.9350649,105.428571 40.7532468,95.4025974 40.7532468,95.4025974 Z" id="Path" fill="#001522" fill-rule="nonzero"></path>
                <path d="M167.662338,40.5454545 C149.772667,41.257721 131.855554,40.7978629 114.025974,39.1688312 L127.844156,50.4155844 L143.428571,47.4805195 L135.818182,54.5714286 L145.194805,51.4285714 L139.220779,58.1558442 L141.818182,59.5584416 C141.818182,59.5584416 164.545455,46.5714286 167.662338,40.5454545 Z" id="Path" fill="#0C0C0C" fill-rule="nonzero"></path>
                <path d="M60.4155844,90.7272727 C52.5265504,88.9565075 44.2916764,89.5343934 36.7272727,92.3896104 C36.7272727,92.3896104 44.1818182,76.987013 61.4545455,75.4025974 C61.4545455,75.4025974 54.1558442,73.2727273 61.2727273,68.6493506 C58.7676842,68.4051909 56.2394573,68.5807622 53.7922078,69.1688312 C44.4155844,74 34.7532468,78.3896104 31.4545455,99.6883117 C31.4545455,99.6883117 36.7272727,95.0909091 60.4155844,90.7272727 Z" id="Path" fill="#001522" fill-rule="nonzero"></path>
                <path d="M61.5064935,169.038961 C56.7755654,168.419108 52.5333848,165.811443 49.8441558,161.87013 C54.1488246,163.44878 58.7157517,164.189363 63.2987013,164.051948 C63.2987013,164.051948 64.961039,166.025974 61.5064935,169.038961 L61.5064935,169.038961 Z" id="Path" fill="url(#linearGradient-12)" fill-rule="nonzero"></path>
                <path d="M53.8701299,122.831169 C54.1558442,131.818182 60.9090909,140.701299 60.9090909,140.701299 C54.8371208,137.40356 49.9571852,132.278264 46.961039,126.051948 C48.934044,124.378938 51.320205,123.266593 53.8701299,122.831169 Z" id="Path" fill="url(#linearGradient-13)" fill-rule="nonzero"></path>
                <path d="M26.4155844,130.103896 C27.5520178,134.664127 29.611783,138.942781 32.4675325,142.675325 C26.4323793,139.770636 22.0657648,134.254913 20.6233766,127.714286 C20.6233766,127.714286 25.3506494,124.155844 26.4155844,130.103896 Z" id="Path" fill="url(#linearGradient-14)" fill-rule="nonzero"></path>
                <path d="M50.0519481,36.1558442 C50.0519481,36.1558442 47.2987013,25.7662338 51.2987013,21.3506494 L60.5974026,21.6883117 L50.0519481,36.1558442 Z" id="Path" fill="url(#linearGradient-15)" fill-rule="nonzero"></path>
                <path d="M30.2597403,61.9220779 C23.4285714,56.7272727 32.6233766,50.6493506 32.0779221,50.5454545 C32.0779221,50.5454545 18.6233766,60.2857143 24.2857143,66.3636364 C26.7012987,68.961039 32.3636364,68.7272727 32.3636364,68.7272727 L35.4545455,54.1818182 L30.2597403,61.9220779 Z" id="Path" fill="#0C0C0C" fill-rule="nonzero"></path>
                <path d="M154.831169,88.4415584 C155.435352,90.9664905 156.207636,93.4482129 157.142857,95.8701299 L160.363636,95.4545455 L160.935065,90.961039 C160.935065,90.961039 160,80.8051948 157.376623,80.5714286 C157.376623,81.7922078 155.61039,83.1688312 155.454545,82.2337662 C155.162331,82.1833561 154.863643,82.1833561 154.571429,82.2337662 C154.051948,82.5194805 154.233766,85.2987013 154.831169,88.4415584 Z M168.155844,81.1688312 C168.768434,83.6944093 169.549401,86.1761478 170.493506,88.5974026 L173.74026,88.1818182 L174.311688,83.6883117 C174.311688,83.6883117 173.350649,73.5584416 170.727273,73.2987013 C170.727273,74.5194805 168.961039,75.8961039 168.779221,74.9350649 C168.494083,74.9093921 168.207216,74.9093921 167.922078,74.9350649 C167.376623,75.0649351 167.558442,77.8441558 168.155844,80.987013 L168.155844,81.1688312 Z M154.207792,118.25974 C153.575176,120.823435 153.115269,123.426683 152.831169,126.051948 L155.922078,127.142857 L158.519481,123.428571 C158.519481,123.428571 162.363636,113.974026 160.103896,112.649351 C159.584416,113.74026 157.350649,114.12987 157.506494,113.220779 C157.254298,113.07909 156.983164,112.974135 156.701299,112.909091 C156.12987,112.727273 155.012987,115.298701 154.103896,118.363636 L154.207792,118.25974 Z M118.701299,89.5324675 L122.519481,96.4935065 L120.25974,100.727273 L115.558442,103.064935 L110.363636,97.1948052 L111.896104,90.8311688 L118.701299,89.5324675 Z M92.8831169,67.5064935 L99.2727273,73.0909091 L97.2207792,75.5584416 L92.5714286,76.7012987 L87.012987,72.7792208 L88.2077922,68.9090909 L92.8831169,67.5064935 Z M123.87013,73.4025974 L129.064935,79.8961039 L127.116883,83.012987 L122.987013,84.6493506 L118.441558,80.1558442 L119.662338,75.4025974 L123.87013,73.4025974 Z M146.753247,72.961039 L151.948052,79.4545455 L150.025974,82.5714286 L145.87013,84.2077922 L141.558442,79.7142857 L142.779221,74.961039 L146.753247,72.961039 Z M116.025974,56.3636364 L121.220779,62.8571429 L119.272727,65.974026 L115.142857,67.6103896 L110.467532,63.1168831 L111.688312,58.3636364 L116.025974,56.3636364 Z M134.38961,54.5454545 L139.584416,61.038961 L137.662338,64.1558442 L133.506494,65.7922078 L128.857143,61.2987013 L130.077922,56.5714286 L134.38961,54.5454545 Z M102.155844,47.2987013 L107.792208,53.012987 L105.896104,55.6103896 L101.714286,56.9350649 L96.8311688,52.9350649 L97.974026,48.9090909 L102.155844,47.2987013 Z M73.3506494,41.038961 L77.5324675,44.4415584 L76.2337662,45.8961039 L73.2207792,46.5194805 L69.5844156,44.1298701 L70.3116883,41.8441558 L73.3506494,41.038961 Z M133.61039,113.064935 L137.142857,119.506494 L135.116883,123.87013 L130.597403,126.467532 L125.168831,120.961039 L126.285714,114.493506 L133.61039,113.064935 Z" id="Shape" fill="#001522" fill-rule="nonzero"></path>
                <path d="M8.46753247,95.012987 C8.46753247,95.012987 18.987013,74.6753247 33.9480519,68.1298701 L41.5584416,68.9090909 C41.5584416,68.9090909 24.8571429,81.7142857 29.8701299,96.3636364 L17.5584416,98.3376623 L8.46753247,95.012987 Z" id="Path" fill="url(#linearGradient-16)" fill-rule="nonzero"></path>
                <path d="M31.5064935,71.5064935 L41.5584416,68.9090909 L33.9480519,68.1298701 C17.4025974,74.8311688 8.46753247,95.012987 8.46753247,95.012987 L17.8441558,99.3766234 L29.8701299,96.3636364 L14.987013,92.2857143 L29.2987013,90.4675325 L17.7662338,86.2077922 L30.2077922,84.4935065 L20.9350649,80.7272727 L32.7792208,79.5324675 L26.7532468,76.0779221 L35.2987013,74.9090909 L31.5064935,71.5064935 Z" id="Path" fill="url(#linearGradient-17)" fill-rule="nonzero"></path>
                <path d="M26.5454545,62.7532468 C26.5454545,62.7532468 26.4155844,66.1818182 28.987013,66.987013 L30.8831169,67.2727273 L26.5454545,62.7532468 Z" id="Path" fill="url(#linearGradient-18)" fill-rule="nonzero"></path>
                <path d="M27.974026,125.116883 C32.6885967,126.854877 37.7815742,127.303203 42.7272727,126.415584 L43.038961,129.974026 L38.3376623,127.376623 L38.1298701,130.649351 L34.1038961,127.116883 L32.8831169,130 L27.974026,125.116883 Z" id="Path" fill="url(#radialGradient-19)" fill-rule="nonzero"></path>
                <path d="M143.896104,26.6753247 C143.896104,26.6753247 139.116883,30.5714286 115.584416,38.5194805 C115.584416,38.5194805 158.883117,44.7792208 177.662338,38.9090909 L184.337662,36.3116883 L176.779221,34.0779221 C176.779221,34.0779221 153.246753,32.2597403 143.896104,26.6753247 Z" id="Path" fill="url(#linearGradient-20)" fill-rule="nonzero"></path>
                <path d="M27.9480519,56.8051948 C27.9480519,56.8051948 50.4415584,34.0519481 65.8181818,21.6623377 L35.5584416,54.2077922 L27.9480519,56.8051948 Z" id="Path" fill="url(#linearGradient-21)" fill-rule="nonzero"></path>
                <path d="M58.8571429,75.4545455 C58.8571429,75.4545455 75.8701299,76.7532468 85.5324675,69.8181818 L83.7662338,76.4935065 C83.7662338,76.4935065 67.4805195,82.7532468 58.8571429,75.4545455 Z" id="Path" fill="url(#linearGradient-22)" fill-rule="nonzero"></path>
                <path d="M83.7402597,76.2337662 C75.2511502,78.9623655 66.0829509,78.6964877 57.7662338,75.4805195 C57.7662338,75.4805195 63.3766234,83.2727273 82.2597403,80.8311688 L83.7402597,76.2337662 Z" id="Path" fill="#001522" fill-rule="nonzero"></path>
                <path d="M86.0779221,143.584416 C73.7142857,152.38961 76.2857143,156.025974 76.2857143,156.025974 C80.6847219,159.361601 86.3609928,160.517878 91.7142857,159.168831 C91.7142857,159.168831 91.2207792,160.753247 91.9220779,157.324675 C90.8151798,152.430728 88.8354986,147.776278 86.0779221,143.584416 L86.0779221,143.584416 Z" id="Path" fill="url(#linearGradient-23)" fill-rule="nonzero"></path>
                <path d="M100.571429,144.675325 C100.571429,144.675325 94.3636364,133.532468 96.8311688,122.025974 C96.8311688,122.025974 89.2207792,127.376623 90.7272727,140.675325 C89.1087119,141.530502 87.5547923,142.502787 86.0779221,143.584416 C88.8418314,147.735132 90.822531,152.356764 91.9220779,157.220779 C92.670476,151.910915 95.8748393,147.263144 100.571429,144.675325 L100.571429,144.675325 Z" id="Path" fill="url(#linearGradient-24)" fill-rule="nonzero"></path>
                <path d="M69.1688312,154.623377 C69.7662338,155.246753 71.2987013,155.324675 71.8961039,155.948052 C74.2512845,149.328442 78.2563728,143.419149 83.5324675,138.779221 C77.5971387,142.894049 72.6835379,148.314115 69.1688312,154.623377 L69.1688312,154.623377 Z" id="Path" fill="url(#linearGradient-25)" fill-rule="nonzero"></path>
                <path d="M69.2727273,72.7012987 C73.9480519,72.3116883 76.7532468,70.1038961 77.0649351,67.7142857 L75.5584416,68.0519481 C74.961039,70.1038961 71.6623377,70.2597403 68.3376623,70.3896104 C67.8015651,70.4283601 67.26337,70.4283601 66.7272727,70.3896104 C67.4858753,71.2536905 68.3397891,72.0291836 69.2727273,72.7012987 L69.2727273,72.7012987 Z" id="Path" fill="url(#linearGradient-26)" fill-rule="nonzero"></path>
                <path d="M66.6753247,70.2597403 C65.3707469,70.0037728 64.0988069,69.6030246 62.8831169,69.0649351 C63.3109604,70.4203546 64.1013839,71.632936 65.1688312,72.5714286 C66.5330714,72.7142001 67.9084871,72.7142001 69.2727273,72.5714286 C68.3216057,71.9024359 67.4501392,71.1268307 66.6753247,70.2597403 Z" id="Path" fill="url(#linearGradient-27)" fill-rule="nonzero"></path>
                <path d="M75.6363636,67.2727273 C75.5849062,67.6739565 75.3742524,68.0376344 75.0518164,68.2819041 C74.7293803,68.5261739 74.3222555,68.63051 73.9220779,68.5714286 C73.0729767,68.6204499 72.3278805,68.0108257 72.2077922,67.1688312 C72.340914,66.3392688 73.1171572,65.7715685 73.9480519,65.8961039 C74.8831169,65.9480519 75.6623377,66.5194805 75.6363636,67.2727273 Z" id="Path" fill="#FFFFFF" fill-rule="nonzero" opacity="0.83"></path>
                <path d="M114.025974,39.1688312 C114.025974,39.1688312 160.051948,48.3636364 187.324675,34.6753247 L178.103896,32.8311688 C178.103896,32.8311688 155.818182,41.8701299 114.025974,39.1688312 Z" id="Path" fill="url(#linearGradient-28)" fill-rule="nonzero"></path>
                <path d="M143.194805,38.7012987 C148.12987,38.7012987 153.116883,38.2857143 152.961039,37.4805195 L152.285714,34.2337662 L146.363636,33.2727273 C142.805195,32.7012987 135.428571,32.7792208 132.415584,34.987013 C135.298701,35.5584416 139.922078,33.7402597 141.974026,36.5454545 C139.376623,37.8181818 135.896104,36.3116883 133.766234,38.4155844 C136.897828,38.7419615 140.049194,38.8374574 143.194805,38.7012987 L143.194805,38.7012987 Z" id="Path" fill="#001522" fill-rule="nonzero"></path>
                <path d="M70.961039,18.2857143 C70.961039,18.2857143 98.0779221,4.96103896 119.766234,8.7012987 C143.714286,12.8311688 153.766234,25.8961039 153.766234,25.8961039 L143.246753,27.974026 C143.246753,27.974026 135.038961,17.9480519 113.428571,13.7142857 C91.8181818,9.48051948 70.961039,18.2857143 70.961039,18.2857143 Z" id="Path" fill="url(#linearGradient-29)" fill-rule="nonzero" opacity="0.41"></path>
                <path d="M70.961039,18.2857143 C70.961039,18.2857143 98.0779221,4.96103896 119.766234,8.7012987 C143.714286,12.8311688 153.766234,25.8961039 153.766234,25.8961039 L149.012987,26.5454545 C149.012987,26.5454545 140.909091,16.0779221 119.298701,11.7662338 C97.6883117,7.45454545 70.961039,18.2857143 70.961039,18.2857143 Z" id="Path" fill="url(#linearGradient-30)" fill-rule="nonzero" opacity="0.7"></path>
                <path d="M111.116883,38.1558442 L116.311688,44.6753247 L114.363636,47.7922078 L110.38961,49.4285714 L105.74026,44.9090909 L106.961039,40.1818182 L111.116883,38.1558442 Z M88.1298701,41.5844156 L93.6623377,46.5714286 L91.8701299,48.8051948 L87.8181818,49.8441558 L83.012987,46.3376623 L84.025974,42.9350649 L88.1298701,41.5844156 Z M53.6363636,53.7662338 L54.5974026,55.8441558 L56.8311688,55.8441558 L59.4285714,53.9220779 C58.8217291,53.3604392 58.0628624,52.9900399 57.2467532,52.8571429 C55.9830717,52.8267493 54.7349644,53.1410209 53.6363636,53.7662338 Z" id="Shape" fill="#001522" fill-rule="nonzero"></path>
                <path d="M93.5584416,173.688312 C81.6103896,180.493506 58.7012987,174.285714 58.7012987,174.285714 C58.7012987,174.285714 62.3116883,180.935065 74.2857143,182.805195 C82.7298743,183.495529 91.2193121,182.224335 99.0909091,179.090909 C99.0909091,179.090909 94.8051948,177.688312 95.3246753,176.311688 C94.7792208,177.168831 92.3376623,173.896104 93.5844156,173.714286 L93.5584416,173.688312 Z" id="Path" fill="url(#linearGradient-31)" fill-rule="nonzero"></path>
                <path d="M58.7012987,174.285714 C58.7012987,174.285714 62.3116883,180.935065 74.2857143,182.805195 C82.7298743,183.495529 91.2193121,182.224335 99.0909091,179.090909 C99.0909091,179.090909 91.7142857,179.090909 92.3116883,177.636364 C81.1126884,181.076629 69.0007153,179.869176 58.7012987,174.285714 Z" id="Path" fill="url(#linearGradient-32)" fill-rule="nonzero"></path>
                <path d="M52.5974026,58.2857143 C54.8571429,59.5584416 63.5844156,63.8961039 104.25974,42.7012987 C104.25974,42.7012987 69.5064935,52.4935065 54.1818182,49.4285714 C54.1818182,49.3246753 48.3116883,55.9220779 52.5974026,58.2857143 Z" id="Path" fill="url(#linearGradient-33)" fill-rule="nonzero" opacity="0.74"></path>
                <polygon id="Path" fill="#001522" fill-rule="nonzero" points="147.532468 92.9090909 146.753247 96.5714286 143.636364 99.6623377 138.961039 95.4285714 138.961039 90.9090909 137.506494 91.6623377 137.298701 100.571429 143.74026 106.805195 148.051948 102.285714 149.454545 96"></polygon>
                <path d="M57.5324675,93.8961039 C57.5324675,93.8961039 85.038961,85.8961039 146.103896,89.1948052 C146.103896,89.1948052 88.961039,87.7662338 59.4285714,97.2727273 L57.5324675,93.8961039 Z" id="Path" fill="url(#radialGradient-34)" fill-rule="nonzero"></path>
                <path d="M58.2077922,99.012987 C86.479369,94.4720177 115.183999,93.24294 143.74026,95.3506494 C143.74026,95.3506494 90.4935065,95.5064935 60.8311688,102.155844 L58.2077922,99.012987 Z" id="Path" fill="url(#radialGradient-35)" fill-rule="nonzero"></path>
                <path d="M56.5714286,104.831169 C84.8430054,100.2902 113.547636,99.0611218 142.103896,101.168831 C142.103896,101.168831 91.8701299,100.519481 59.2207792,107.87013 L56.5714286,104.831169 Z" id="Path" fill="url(#radialGradient-36)" fill-rule="nonzero"></path>
                <path d="M56,94.3116883 L55.2207792,96.2597403 C56.2678448,97.0467109 57.5895769,97.3748004 58.8831169,97.1688312 C59.628454,97.0143182 60.3523378,96.7701164 61.038961,96.4415584 C61.038961,96.4415584 62.2597403,93.8441558 59.6103896,93.5844156 C58.3666636,93.5417932 57.1302251,93.7908599 56,94.3116883 Z M56.5454545,99.5064935 L55.7922078,101.454545 C56.8392734,102.241516 58.1610055,102.569606 59.4545455,102.363636 C60.1554194,102.199349 60.8351728,101.955335 61.4805195,101.636364 C61.4805195,101.636364 62.7012987,99.038961 60.0779221,98.7792208 C58.8638824,98.7258008 57.6541756,98.9570683 56.5454545,99.4545455 L56.5454545,99.5064935 Z M56.025974,105.272727 L55.2207792,107.220779 C56.2822754,107.997347 57.6109924,108.315491 58.9090909,108.103896 C59.6090697,107.948578 60.2888614,107.713266 60.9350649,107.402597 C60.9350649,107.402597 62.1298701,104.805195 59.5064935,104.519481 C58.3037311,104.498539 57.1124518,104.756353 56.025974,105.272727 Z" id="Shape" fill="#001522" fill-rule="nonzero"></path>
                <path d="M17.6363636,98.3376623 C10.8831169,97.974026 8.46753247,95.012987 8.46753247,95.012987 L8.12987013,97.2467532 C8.12987013,97.2467532 19.1688312,103.428571 21.7402597,112.38961 C22.4133168,112.22341 23.1001569,112.11908 23.7922078,112.077922 C24.5714286,105.662338 24.2337662,102.155844 32.4155844,98.0519481 L32.6233766,95.4545455 C27.8534131,97.3617361 22.773036,98.3742896 17.6363636,98.4415584 L17.6363636,98.3376623 Z" id="Path" fill="url(#linearGradient-37)" fill-rule="nonzero"></path>
                <path d="M85.7662338,157.220779 C87.5064935,150.285714 97.4025974,140.857143 97.4025974,140.857143 C97.4025974,140.857143 96.3376623,133.064935 99.6103896,128.311688 L99.8961039,125.142857 C99.8961039,125.142857 95.1948052,125.792208 94.3376623,139.532468 C89.2298547,144.044933 86.142741,150.415613 85.7662338,157.220779 L85.7662338,157.220779 Z" id="Path" fill="#001522" fill-rule="nonzero"></path>
                <path d="M96.1038961,161.480519 C87.5064935,163.246753 76.5714286,161.142857 71.8701299,157.74026 C71.8701299,157.74026 78.3116883,168.597403 90.6753247,169.194805 C93.0435442,167.034946 94.8983936,164.372483 96.1038961,161.402597 L96.1038961,161.480519 Z" id="Path" fill="url(#linearGradient-38)" fill-rule="nonzero"></path>
                <path d="M74.2597403,159.012987 C74.2597403,159.012987 80.1558442,162.883117 91.8181818,162.753247 C91.6265776,164.472992 90.4957645,165.94405 88.8831169,166.571429 C83.6135303,164.903729 78.6678321,162.347427 74.2597403,159.012987 L74.2597403,159.012987 Z M53.8701299,122.831169 C54.8278622,129.266943 57.2833711,135.387921 61.038961,140.701299 C57.6330468,137.778633 54.9635441,134.09472 53.2467532,129.948052 L53.8961039,122.831169 L53.8701299,122.831169 Z" id="Shape" fill="#FFFFFF" fill-rule="nonzero"></path>
                <path d="M49.8441558,161.87013 C49.8441558,161.87013 59.1688312,164.779221 63.2987013,164.051948 C63.4223618,164.93982 63.2776312,165.844386 62.8831169,166.649351 C58.2625154,165.938089 53.8299201,164.313393 49.8441558,161.87013 L49.8441558,161.87013 Z" id="Path" fill="url(#radialGradient-39)" fill-rule="nonzero"></path>
                <path d="M98.1558442,113.064935 C109.113588,118.45664 117.175491,128.358554 120.233766,140.181818 C120.481187,143.274327 118.548881,146.124209 115.584416,147.038961 C112.04539,147.749649 108.824759,149.569215 106.38961,152.233766 C108.82213,149.572388 111.60006,147.24871 114.649351,145.324675 C119.246753,142.571429 116.493506,138.441558 114.649351,133.844156 C110.991725,125.637725 105.317961,118.489676 98.1558442,113.064935 Z" id="Path" fill="url(#radialGradient-40)" fill-rule="nonzero"></path>
            </g>
        </g>
    </g>
</svg>