<?xml version="1.0" encoding="UTF-8"?>
<svg width="200px" height="200px" viewBox="0 0 200 200" version="1.1" xmlns="http://www.w3.org/2000/svg" xmlns:xlink="http://www.w3.org/1999/xlink">
    <!-- Generator: Sketch 54.1 (76490) - https://sketchapp.com -->
    <title>kentucky</title>
    <desc>Created with Sketch.</desc>
    <g id="kentucky" stroke="none" stroke-width="1" fill="none" fill-rule="evenodd">
        <g id="kentucky_BGL" transform="translate(0.000000, -0.000000)">
            <g id="kentucky" transform="translate(0.000000, 27.000000)">
                <g id="g10" transform="translate(99.953637, 73.463150) scale(-1, 1) rotate(-180.000000) translate(-99.953637, -73.463150) translate(0.000000, 0.027825)" fill-rule="nonzero">
                    <g id="g12" transform="translate(0.000000, 0.166898)">
                        <path d="M192.764019,10.2939636 C193.761701,10.2939636 194.646263,10.2171717 194.646263,9.16752875 C194.646263,8.0409641 193.10338,8.22959646 191.975888,8.22959646 L190.698187,8.22959646 L190.698187,10.2939636 L192.764019,10.2939636 Z M193.630037,7.02625852 C194.735276,7.06262384 195.844223,7.66616578 195.844223,9.29885929 C195.844223,11.0458597 194.492346,11.4972273 192.990259,11.4972273 L189.496518,11.4972273 L189.496518,3.19534531 L190.698187,3.19534531 L190.698187,7.02625852 L192.239216,7.02625852 L194.360681,3.19534531 L195.732958,3.19534531 L193.630037,7.02625852 Z M192.350482,0.0183993969 C196.484001,0.0183993969 199.753356,3.28602681 199.753356,7.40083431 C199.753356,11.5154193 196.484001,14.7831243 192.350482,14.7831243 C188.218818,14.7831243 184.951502,11.5154193 184.951502,7.40083431 C184.951502,3.28602681 188.218818,0.0183993969 192.350482,0.0183993969 Z M192.350482,13.5839032 C195.732958,13.5839032 198.549833,10.8934629 198.549833,7.40083431 C198.549833,3.92617515 195.732958,1.22167637 192.350482,1.22167637 C188.971715,1.22167637 186.152986,3.92617515 186.152986,7.40083431 C186.152986,10.8934629 188.971715,13.5839032 192.350482,13.5839032 L192.350482,13.5839032 Z" id="path14" fill="#2350A9"></path>
                        <path d="M172.630501,6.53351861 L123.771161,6.53351861 L123.771161,19.5630964 L128.655722,19.5630964 L109.11525,39.1056087 L81.4308742,39.1056087 L81.4308742,19.5630964 L91.2018521,19.5630964 L91.2018521,6.53351861 L45.5994425,6.53351861 L45.5994425,19.5630964 L55.3717186,19.5630964 L55.3717186,78.1900769 L45.5994425,78.1900769 L45.5994425,91.220211 L91.2018521,91.220211 L91.2018521,78.1900769 L81.4308742,78.1900769 L81.4308742,58.6481209 L109.11525,58.6481209 L128.658689,78.1900769 L123.771161,78.1900769 L123.771161,91.220211 L172.630501,91.220211 L172.630501,78.1900769 L159.601665,78.1900769 L131.10097,49.6904948 L161.228554,19.5630964 L172.630501,19.5630964 L172.630501,6.53351861 Z M29.3155301,61.9039391 L16.2860079,74.9335169 L16.2860079,127.049603 L6.51302719,127.049603 L6.51302719,140.07677 L52.1151586,140.07677 L52.1151586,127.049603 L42.3436243,127.049603 L42.3436243,74.9335169 L52.1151586,74.9335169 L52.1151586,61.9039391 L29.3155301,61.9039391 Z M94.4582267,74.9335169 L94.4582267,127.049603 L84.6865069,127.049603 L84.6865069,140.07677 L130.284837,140.07677 L130.284837,127.049603 L120.515157,127.049603 L120.515157,74.9335169 L107.485579,61.9039391 L84.6865069,61.9039391 L84.6865069,74.9335169 L94.4582267,74.9335169 Z M135.986459,49.6904948 L161.228554,74.9335169 L175.886319,74.9335169 L175.886319,94.4775127 L123.771161,94.4775127 L123.771161,123.78989 L133.544735,123.78989 L133.544735,143.333515 L81.4273508,143.333515 L81.4273508,123.78989 L91.2018521,123.78989 L91.2018521,94.4775127 L45.5994425,94.4775127 L45.5994425,123.78989 L55.3717186,123.78989 L55.3717186,143.333515 L3.25646723,143.333515 L3.25646723,123.791559 L13.0266293,123.791559 L13.0295222,123.791559 L13.0295222,73.3073695 L27.6866011,58.6481209 L52.1151586,58.6481209 L52.1151586,22.8185437 L42.3408427,22.8185437 L42.3408427,3.27436246 L94.4582267,3.27436246 L94.4582267,22.8185437 L84.6865069,22.8185437 L84.6865069,35.8490487 L107.485579,35.8490487 L120.515157,22.8185437 L120.518124,22.8185437 L120.518124,3.27436246 L175.886319,3.27436246 L175.886319,22.8185437 L162.858967,22.8185437 L135.986459,49.6904948 L135.986459,49.6904948 Z" id="path16" fill="#FEFFFF"></path>
                        <polyline id="path18" fill="#2350A9" points="52.1151586 74.9335169 42.3436243 74.9335169 42.3436243 127.049603 52.1151586 127.049603 52.1151586 140.07677 6.51302719 140.07677 6.51302719 127.049603 16.2860079 127.049603 16.2860079 74.9335169 29.3155301 61.9039391 52.1151586 61.9039391 52.1151586 74.9335169"></polyline>
                        <polyline id="path20" fill="#2350A9" points="84.6865069 61.9039391 107.485579 61.9039391 120.515157 74.9335169 120.515157 127.049603 130.284837 127.049603 130.284837 140.07677 84.6865069 140.07677 84.6865069 127.049603 94.4582267 127.049603 94.4582267 74.9335169 84.6865069 74.9335169 84.6865069 61.9039391"></polyline>
                        <polyline id="path22" fill="#3157AF" points="131.10097 49.6904948 159.601665 78.1900769 172.630501 78.1900769 172.630501 91.220211 123.771161 91.220211 123.771161 78.1900769 128.658689 78.1900769 109.11525 58.6481209 81.4308742 58.6481209 81.4308742 78.1900769 91.2018521 78.1900769 91.2018521 91.220211 45.5994425 91.220211 45.5994425 78.1900769 55.3717186 78.1900769 55.3717186 19.5630964 45.5994425 19.5630964 45.5994425 6.53351861 91.2018521 6.53351861 91.2018521 19.5630964 81.4308742 19.5630964 81.4308742 39.1056087 109.11525 39.1056087 128.655722 19.5630964 123.771161 19.5630964 123.771161 6.53351861 172.630501 6.53351861 172.630501 19.5630964 161.228554 19.5630964 131.10097 49.6904948"></polyline>
                        <path d="M175.886319,3.27436246 L120.518124,3.27436246 L120.518124,22.8185437 L120.515157,22.8185437 L107.485579,35.8490487 L84.6865069,35.8490487 L84.6865069,22.8185437 L94.4582267,22.8185437 L94.4582267,3.27436246 L42.3408427,3.27436246 L42.3408427,22.8185437 L52.1151586,22.8185437 L52.1151586,58.6481209 L27.6866011,58.6481209 L13.0295222,73.3073695 L13.0295222,123.791559 L13.0266293,123.791559 L3.25646723,123.791559 L3.25646723,143.333515 L55.3717186,143.333515 L55.3717186,123.78989 L45.5994425,123.78989 L45.5994425,94.4775127 L91.2018521,94.4775127 L91.2018521,123.78989 L81.4273508,123.78989 L81.4273508,143.333515 L133.544735,143.333515 L133.544735,123.78989 L123.771161,123.78989 L123.771161,94.4775127 L175.886319,94.4775127 L175.886319,74.9335169 L161.228554,74.9335169 L135.986459,49.6904948 L162.858967,22.8185437 L175.886319,22.8185437 L175.886319,3.27436246 Z M164.486412,26.0762163 L140.873246,49.6904948 L162.857483,71.6749171 L179.143621,71.6749171 L179.142137,97.7351853 L127.029019,97.7333309 L127.029019,120.534258 L136.801109,120.534258 L136.801109,146.592115 L78.1722744,146.592115 L78.1707908,146.592115 L78.1707908,120.534258 L78.1722744,120.534258 L87.9430669,120.534258 L87.9430669,97.7333309 L48.8560025,97.7333309 L48.8560025,120.534258 L58.6269805,120.534258 L58.6310602,120.534258 L58.6310602,146.592115 L58.6269805,146.592115 L0,146.592115 L0,120.534258 L9.77298075,120.534258 L9.77298075,71.6784405 L9.77709758,71.6784405 L9.77298075,71.6749171 L26.0569303,55.3917464 L48.8587841,55.3917464 L48.8587841,26.0762163 L39.0844682,26.0762163 L39.0844682,0.0183993969 L97.7147866,0.0183993969 L97.7147866,26.0762163 L87.9430669,26.0762163 L87.9430669,32.5932305 L105.856094,32.5932305 L117.257855,21.1899856 L117.257855,0.0183993969 L179.143621,0.0183993969 L179.143621,26.0762163 L179.142137,26.0762163 L164.486412,26.0762163 L164.486412,26.0762163 Z" id="path24" fill="#2350A9"></path>
                    </g>
                </g>
            </g>
        </g>
    </g>
</svg>