<?xml version="1.0" encoding="UTF-8"?>
<svg width="200px" height="200px" viewBox="0 0 200 200" version="1.1" xmlns="http://www.w3.org/2000/svg" xmlns:xlink="http://www.w3.org/1999/xlink">
    <!-- Generator: Sketch 54.1 (76490) - https://sketchapp.com -->
    <title>lamar</title>
    <desc>Created with Sketch.</desc>
    <g id="lamar" stroke="none" stroke-width="1" fill="none" fill-rule="evenodd">
        <g id="lamar_BGL">
            <g id="lamar" transform="translate(0.000000, 33.000000)">
                <g id="g10" transform="translate(99.884657, 66.971165) scale(-1, 1) rotate(-180.000000) translate(-99.884657, -66.971165) translate(0.000000, 0.304500)" fill-rule="nonzero">
                    <g id="g12">
                        <path d="M145.568624,104.104265 C144.959627,104.377852 144.368162,104.650516 143.796536,104.915338 C143.731484,103.801151 143.492038,101.652593 142.597459,101.04821 C142.597459,101.04821 145.301034,101.816376 145.568624,104.104265" id="path14" fill="#FFFFFF"></path>
                        <path d="M126.715106,101.1737 C128.974391,100.390309 130.730331,99.0708164 132.141173,97.4214509 C135.234137,93.8043806 137.23829,92.9517855 139.226294,92.5711626 C140.114414,93.1750842 141.474506,94.3063414 141.474506,94.3063414 C139.86574,94.133331 138.54348,94.4198362 137.74025,94.7257185 C136.340942,95.2604359 135.08604,96.1508626 134.134253,97.2881175 C132.981312,98.5162605 132.119489,100.051209 131.747632,101.784542 C131.254437,104.065511 131.870816,106.525949 132.981312,108.339098 C131.168163,108.63806 129.519259,108.630216 127.634138,108.360782 C123.44175,107.759167 120.475199,102.949478 119.42468,100.379698 C120.359859,100.968856 123.162165,102.405534 126.715106,101.1737" id="path16" fill="#FFFFFF"></path>
                        <path d="M51.2493643,35.9542782 L51.8703563,39.6096415 L52.8050737,39.6096415 L53.5474035,37.653886 L54.3331013,39.6096415 L55.2770459,39.6096415 L55.829295,35.9542782 L54.8788914,35.9542782 L54.6140701,38.0584996 L54.6034588,38.0584996 L53.7259502,35.9542782 L53.3485569,35.9542782 L52.5093412,38.0584996 L52.4996527,38.0584996 L52.194693,35.9542782 L51.2493643,35.9542782 Z M156.372314,54.0655119 C149.68258,48.1900795 142.727101,36.7326404 141.074045,19.3056051 C135.839904,27.3318563 133.65536,36.5291802 133.65536,36.5291802 C133.65536,36.5291802 126.290654,22.3432059 115.108186,20.4350629 C120.175314,24.8179925 122.182696,29.7835748 122.182696,29.7835748 C122.182696,29.7835748 116.465972,26.4451666 112.903342,25.5629982 C108.524103,11.8805995 98.7409433,7.85467108 89.0209897,8.5357322 C83.745788,8.90519009 78.788464,10.6077045 75.2645887,12.1249824 C72.1956153,13.4439674 70.0249117,14.7076813 69.4057653,15.0785694 C62.2532856,18.721522 52.4239895,18.2643133 47.3900796,6.09969996 C40.3602758,13.4146248 43.9547394,34.495547 61.7665498,36.4101952 C55.9257195,40.1254431 50.6094566,43.6885341 44.8646356,45.3937705 C31.3718101,49.3969999 11.0386156,38.163367 7.62975759,35.4381075 C18.268973,61.3499408 39.1844973,68.8433662 39.1844973,68.8433662 C39.1844973,68.8433662 43.2293415,78.1969992 48.4096874,85.2004592 C51.4560541,89.3231812 56.7307944,94.5826966 56.7307944,94.5826966 C56.7307944,94.5826966 45.684105,94.3593979 34.3937246,91.043135 C40.6684188,98.8728926 47.0578996,103.924796 52.216377,106.837368 C57.4117633,109.772085 64.7363306,111.950632 64.7363306,111.950632 C64.7363306,111.950632 62.187311,114.545787 59.1317171,115.922488 C70.3695484,120.410147 87.0403669,121.643365 87.0403669,121.643365 C87.0403669,121.643365 82.7810821,125.047748 79.438983,125.982465 C81.4915781,126.608993 104.60438,131.595383 124.15686,128.769547 C145.068047,125.74671 155.720411,121.576006 161.011761,117.551554 C163.650746,115.546018 165.023756,113.755476 165.64198,112.490424 C166.226063,111.29596 166.448439,109.481427 166.448439,109.481427 C166.448439,109.481427 171.313491,108.48212 172.929638,106.837829 C174.267585,105.47543 174.315567,104.045672 174.315567,104.045672 C182.245901,102.236676 191.582002,89.7508628 194.850745,83.9414051 C192.403686,82.323412 163.125255,59.9963076 156.372314,54.0655119 Z M48.6011522,38.8064119 L48.6011522,39.6096415 L51.121106,39.6096415 L51.121106,38.8064119 L50.3367923,38.8064119 L50.3367923,35.9542782 L49.3873113,35.9542782 L49.3873113,38.8064119 L48.6011522,38.8064119 Z M189.379003,97.1589364 C185.955243,101.00069 181.932175,104.856745 177.043594,106.723873 C176.69296,107.497575 176.158242,108.363088 175.331945,109.21107 C173.675659,110.788463 171.482349,111.614299 169.319027,112.239905 C167.223987,119.437137 158.703572,123.438521 152.219604,125.817759 C142.150861,129.510493 131.084656,131.876352 120.415222,132.616375 C94.679121,134.399535 74.9702403,128.47566 67.3900791,125.850055 L75.4251423,123.60092 C61.5893872,120.999305 50.4692029,116.11949 50.4692029,116.11949 L57.4205291,112.98408 C38.8570694,106.027218 25.0111643,84.7810821 25.0111643,84.7810821 C31.9465275,87.2950382 40.3062043,89.4288328 48.292963,90.4779677 C43.4355237,84.8046115 39.7361466,78.2140696 36.622329,71.4500559 C31.5817755,69.2262958 9.57863875,58.257438 0,25.0394457 C9.45753148,34.3737477 27.1696418,41.1607833 31.5926174,42.0968386 C38.5465273,43.5708409 43.8722019,42.3026518 48.1826978,40.398984 C47.3762387,39.7116484 46.892271,38.8341397 46.892271,37.8824443 C46.892271,36.6158238 47.7397912,35.4907488 49.0606677,34.7552471 C45.2431361,31.6268504 42.6029055,27.255824 41.4673577,22.4807376 C37.9083728,7.49891561 48.5416366,0 48.5416366,0 C48.5416366,0 50.5185685,8.95455572 56.4562846,12.3505879 C59.975085,14.3616605 64.2662037,13.8644518 67.7702405,12.1033446 C74.5702404,8.07058803 82.6440579,5.19086492 90.5997671,5.07354082 C99.4989595,4.94071499 107.641981,8.99003438 112.465049,16.5421449 C123.906341,16.9540942 132.579927,28.7759624 132.579927,28.7759624 C134.090885,23.0168852 143.513261,9.35317162 143.513261,9.35317162 C143.513261,9.35317162 143.628139,29.8888112 151.094806,41.9146472 C154.184541,46.8955006 157.71672,50.893655 162.216836,54.5462501 C169.405763,60.3847736 194.077042,79.3817743 199.336097,82.8581294 C196.99838,87.0002285 192.541172,93.6110703 189.379003,97.1589364 L189.379003,97.1589364 Z" id="path18" fill="#FFFFFF"></path>
                        <path d="M153.063433,57.785927 C151.732868,59.4099178 151.360088,60.7972303 151.175083,61.8878877 C150.799535,64.0848888 151.11326,67.1294101 153.349016,70.8553616 C157.790538,78.2634352 161.246593,86.3852343 152.517643,89.1935387 C171.491115,90.266203 186.980849,83.2816588 186.980849,83.2816588 L153.063433,57.785927 Z M147.390077,53.9806215 C147.390077,53.9806215 141.091115,46.3483264 139.862972,37.3466196 C139.862972,37.3466196 136.312799,44.0516713 136.747863,53.0057657 C136.747863,53.0057657 130.046594,34.9776693 109.63137,30.6736786 C103.047287,-0.574897333 71.5916937,18.9877273 71.5916937,18.9877273 C54.5462501,27.765997 47.9381764,13.8523641 47.9381764,13.8523641 C47.8062272,25.7203223 58.0668959,37.0818907 73.7167225,30.4756163 C85.3633197,25.5584769 93.849594,26.8591458 99.4592824,29.7711181 C80.728487,30.035524 74.8161458,34.5665505 57.4984991,46.0023979 C42.6931939,55.779468 26.1444053,49.7859272 20.7570929,47.3633206 C24.4490882,52.8433666 37.3862966,68.3487872 68.5471725,74.0590524 C68.5471725,74.0590524 54.3257195,74.4913476 47.0546701,71.4901943 C49.9390991,75.8154537 58.2800447,86.4982677 73.5395599,92.4050727 C89.2641269,98.491347 104.833215,96.4023044 110.212685,95.3813125 C104.653746,94.312339 79.4915782,88.4470566 76.37693,69.3111863 C76.37693,69.3111863 83.3813128,86.8161455 112.83829,89.2835041 C112.83829,89.2835041 110.165626,81.1294097 115.30611,78.3953844 C119.506341,76.1591676 124.863203,76.6352922 133.111415,81.1889253 C145.03529,87.7734695 149.228139,86.26851 152.029523,83.8006899 C153.43529,82.562397 153.413606,77.444058 149.221219,71.2299867 C141.599535,59.9317171 147.390077,53.9806215 147.390077,53.9806215 L147.390077,53.9806215 Z M71.5035738,98.9241036 C71.5035738,98.9241036 59.6830435,102.890886 46.8636666,98.2163759 C46.8636666,98.2163759 63.271048,109.952938 81.6452113,109.192615 C81.6452113,109.192615 79.9677027,113.36378 75.7660881,114.951324 C75.7660881,114.951324 91.4634349,118.879351 108.398613,115.336099 C108.398613,115.336099 104.734023,122.062742 99.2493631,124.072892 C114.579928,125.701035 134.058128,123.69273 148.810146,117.934022 C162.376005,112.637137 161.820065,109.176929 160.428139,107.331485 C158.309569,104.531024 153.177389,106.208533 150.903341,106.989617 C148.628831,107.773008 136.399535,114.940712 119.488348,113.63829 C107.415453,112.708186 100.395384,106.215453 96.9642421,101.800228 C90.6408282,101.264588 82.8539772,99.724565 74.4101481,96.0913471 C62.3220284,90.888579 54.7584761,84.2099172 50.3367923,79.1201826 C54.5739317,85.4781986 61.676123,94.0627427 71.5035738,98.9241036 L71.5035738,98.9241036 Z M142.597459,101.04821 C143.492038,101.652593 143.731484,103.801151 143.796536,104.915338 C144.368162,104.650516 144.959627,104.377852 145.568624,104.104265 C145.301034,101.816376 142.597459,101.04821 142.597459,101.04821 L142.597459,101.04821 Z M139.24521,96.6205281 C137.072661,97.3591671 135.200458,99.1381751 134.710493,101.465741 C134.21453,103.825603 135.322719,106.226064 137.202765,107.569547 C137.39423,107.519259 139.523411,106.823527 140.552246,106.442443 C138.911646,105.699651 137.868509,104.101958 138.100112,102.436445 C138.388924,100.373239 140.499189,98.874738 142.840135,99.2313701 C145.179235,99.5893862 146.855821,101.659513 146.581773,103.714415 C147.261819,103.413146 147.958474,103.115568 148.653745,102.836906 C148.801842,100.431831 147.501265,98.357091 145.644287,97.1718545 C143.838059,96.0202975 141.477274,95.8657415 139.24521,96.6205281 L139.24521,96.6205281 Z M112.813838,101.111416 C112.813838,101.111416 111.337021,101.468048 108.718336,101.740713 C109.949248,103.615222 114.148555,107.701035 119.68581,108.789386 C116.235753,106.591924 113.81776,102.866895 112.813838,101.111416 Z M127.634138,108.360782 C129.519259,108.630216 131.168163,108.63806 132.981312,108.339098 C131.870816,106.525949 131.254437,104.065511 131.747632,101.784542 C132.119489,100.051209 132.981312,98.5162605 134.134253,97.2881175 C135.08604,96.1508626 136.340942,95.2604359 137.74025,94.7257185 C138.54348,94.4198362 139.86574,94.133331 141.474506,94.3063414 C141.474506,94.3063414 140.114414,93.1750842 139.226294,92.5711626 C137.23829,92.9517855 135.234137,93.8043806 132.141173,97.4214509 C130.730331,99.0708164 128.974391,100.390309 126.715106,101.1737 C123.162165,102.405534 120.359859,100.968856 119.42468,100.379698 C120.475199,102.949478 123.44175,107.759167 127.634138,108.360782 Z M165.512337,104.891347 C170.37093,104.742327 170.295267,101.021451 170.334021,100.935638 C174.505186,99.4763528 179.858819,96.1831579 182.922256,93.2941153 C186.094113,90.3058801 188.723871,86.3875411 188.723871,86.3875411 C172.844748,94.5494786 148.174852,93.3711626 148.157782,93.3707012 C156.670354,100.995153 165.512337,104.891347 165.512337,104.891347 Z M174.315567,104.045672 C174.315567,104.045672 174.267585,105.47543 172.929638,106.837829 C171.313491,108.48212 166.448439,109.481427 166.448439,109.481427 C166.448439,109.481427 166.226063,111.29596 165.64198,112.490424 C165.023756,113.755476 163.650746,115.546018 161.011761,117.551554 C155.720411,121.576006 145.068047,125.74671 124.15686,128.769547 C104.60438,131.595383 81.4915781,126.608993 79.438983,125.982465 C82.7810821,125.047748 87.0403669,121.643365 87.0403669,121.643365 C87.0403669,121.643365 70.3695484,120.410147 59.1317171,115.922488 C62.187311,114.545787 64.7363306,111.950632 64.7363306,111.950632 C64.7363306,111.950632 57.4117633,109.772085 52.216377,106.837368 C47.0578996,103.924796 40.6684188,98.8728926 34.3937246,91.043135 C45.684105,94.3593979 56.7307944,94.5826966 56.7307944,94.5826966 C56.7307944,94.5826966 51.4560541,89.3231812 48.4096874,85.2004592 C43.2293415,78.1969992 39.1844973,68.8433662 39.1844973,68.8433662 C39.1844973,68.8433662 18.268973,61.3499408 7.62975759,35.4381075 C11.0386156,38.163367 31.3718101,49.3969999 44.8646356,45.3937705 C50.6094566,43.6885341 55.9257195,40.1254431 61.7665498,36.4101952 C43.9547394,34.495547 40.3602758,13.4146248 47.3900796,6.09969996 C52.4239895,18.2643133 62.2532856,18.721522 69.4057653,15.0785694 C70.0249117,14.7076813 72.1956153,13.4439674 75.2645887,12.1249824 C78.788464,10.6077045 83.745788,8.90519009 89.0209897,8.5357322 C98.7409433,7.85467108 108.524103,11.8805995 112.903342,25.5629982 C116.465972,26.4451666 122.182696,29.7835748 122.182696,29.7835748 C122.182696,29.7835748 120.175314,24.8179925 115.108186,20.4350629 C126.290654,22.3432059 133.65536,36.5291802 133.65536,36.5291802 C133.65536,36.5291802 135.839904,27.3318563 141.074045,19.3056051 C142.727101,36.7326404 149.68258,48.1900795 156.372314,54.0655119 C163.125255,59.9963076 192.403686,82.323412 194.850745,83.9414051 C191.582002,89.7508628 182.245901,102.236676 174.315567,104.045672 L174.315567,104.045672 Z" id="path20" fill="#231F20"></path>
                        <polyline id="path22" fill="#231F20" points="49.3873113 35.9542782 50.3367923 35.9542782 50.3367923 38.8064119 51.121106 38.8064119 51.121106 39.6096415 48.6011522 39.6096415 48.6011522 38.8064119 49.3873113 38.8064119 49.3873113 35.9542782"></polyline>
                        <polyline id="path24" fill="#231F20" points="52.5093412 38.0584996 53.3485569 35.9542782 53.7259502 35.9542782 54.6034588 38.0584996 54.6140701 38.0584996 54.8788914 35.9542782 55.829295 35.9542782 55.2770459 39.6096415 54.3331013 39.6096415 53.5474035 37.653886 52.8050737 39.6096415 51.8703563 39.6096415 51.2493643 35.9542782 52.194693 35.9542782 52.4996527 38.0584996 52.5093412 38.0584996"></polyline>
                        <path d="M145.644287,97.1718545 C147.501265,98.357091 148.801842,100.431831 148.653745,102.836906 C147.958474,103.115568 147.261819,103.413146 146.581773,103.714415 C146.855821,101.659513 145.179235,99.5893862 142.840135,99.2313701 C140.499189,98.874738 138.388924,100.373239 138.100112,102.436445 C137.868509,104.101958 138.911646,105.699651 140.552246,106.442443 C139.523411,106.823527 137.39423,107.519259 137.202765,107.569547 C135.322719,106.226064 134.21453,103.825603 134.710493,101.465741 C135.200458,99.1381751 137.072661,97.3591671 139.24521,96.6205281 C141.477274,95.8657415 143.838059,96.0202975 145.644287,97.1718545" id="path26" fill="#C2E577"></path>
                        <path d="M188.723871,86.3875411 C188.723871,86.3875411 186.094113,90.3058801 182.922256,93.2941153 C179.858819,96.1831579 174.505186,99.4763528 170.334021,100.935638 C170.295267,101.021451 170.37093,104.742327 165.512337,104.891347 C165.512337,104.891347 156.670354,100.995153 148.157782,93.3707012 C148.174852,93.3711626 172.844748,94.5494786 188.723871,86.3875411" id="path28" fill="#F9A721"></path>
                        <path d="M152.517643,89.1935387 C161.246593,86.3852343 157.790538,78.2634352 153.349016,70.8553616 C151.11326,67.1294101 150.799535,64.0848888 151.175083,61.8878877 C151.360088,60.7972303 151.732868,59.4099178 153.063433,57.785927 L186.980849,83.2816588 C186.980849,83.2816588 171.491115,90.266203 152.517643,89.1935387" id="path30" fill="#F9A721"></path>
                        <path d="M74.4101481,96.0913471 C82.8539772,99.724565 90.6408282,101.264588 96.9642421,101.800228 C100.395384,106.215453 107.415453,112.708186 119.488348,113.63829 C136.399535,114.940712 148.628831,107.773008 150.903341,106.989617 C153.177389,106.208533 158.309569,104.531024 160.428139,107.331485 C161.820065,109.176929 162.376005,112.637137 148.810146,117.934022 C134.058128,123.69273 114.579928,125.701035 99.2493631,124.072892 C104.734023,122.062742 108.398613,115.336099 108.398613,115.336099 C91.4634349,118.879351 75.7660881,114.951324 75.7660881,114.951324 C79.9677027,113.36378 81.6452113,109.192615 81.6452113,109.192615 C63.271048,109.952938 46.8636666,98.2163759 46.8636666,98.2163759 C59.6830435,102.890886 71.5035738,98.9241036 71.5035738,98.9241036 C61.676123,94.0627427 54.5739317,85.4781986 50.3367923,79.1201826 C54.7584761,84.2099172 62.3220284,90.888579 74.4101481,96.0913471" id="path32" fill="#E51636"></path>
                        <path d="M108.718336,101.740713 C111.337021,101.468048 112.813838,101.111416 112.813838,101.111416 C113.81776,102.866895 116.235753,106.591924 119.68581,108.789386 C114.148555,107.701035 109.949248,103.615222 108.718336,101.740713" id="path34" fill="#E51636"></path>
                        <path d="M152.029523,83.8006899 C149.228139,86.26851 145.03529,87.7734695 133.111415,81.1889253 C124.863203,76.6352922 119.506341,76.1591676 115.30611,78.3953844 C110.165626,81.1294097 112.83829,89.2835041 112.83829,89.2835041 C83.3813128,86.8161455 76.37693,69.3111863 76.37693,69.3111863 C79.4915782,88.4470566 104.653746,94.312339 110.212685,95.3813125 C104.833215,96.4023044 89.2641269,98.491347 73.5395599,92.4050727 C58.2800447,86.4982677 49.9390991,75.8154537 47.0546701,71.4901943 C54.3257195,74.4913476 68.5471725,74.0590524 68.5471725,74.0590524 C37.3862966,68.3487872 24.4490882,52.8433666 20.7570929,47.3633206 C26.1444053,49.7859272 42.6931939,55.779468 57.4984991,46.0023979 C74.8161458,34.5665505 80.728487,30.035524 99.4592824,29.7711181 C93.849594,26.8591458 85.3633197,25.5584769 73.7167225,30.4756163 C58.0668959,37.0818907 47.8062272,25.7203223 47.9381764,13.8523641 C47.9381764,13.8523641 54.5462501,27.765997 71.5916937,18.9877273 C71.5916937,18.9877273 103.047287,-0.574897333 109.63137,30.6736786 C130.046594,34.9776693 136.747863,53.0057657 136.747863,53.0057657 C136.312799,44.0516713 139.862972,37.3466196 139.862972,37.3466196 C141.091115,46.3483264 147.390077,53.9806215 147.390077,53.9806215 C147.390077,53.9806215 141.599535,59.9317171 149.221219,71.2299867 C153.413606,77.444058 153.43529,82.562397 152.029523,83.8006899" id="path36" fill="#E51636"></path>
                    </g>
                </g>
            </g>
        </g>
    </g>
</svg>