<?xml version="1.0" encoding="UTF-8"?>
<svg width="200px" height="200px" viewBox="0 0 200 200" version="1.1" xmlns="http://www.w3.org/2000/svg" xmlns:xlink="http://www.w3.org/1999/xlink">
    <!-- Generator: Sketch 54.1 (76490) - https://sketchapp.com -->
    <title>louisville</title>
    <desc>Created with Sketch.</desc>
    <g id="louisville" stroke="none" stroke-width="1" fill="none" fill-rule="evenodd">
        <g id="louisville_BGL" transform="translate(0.000000, 0.000000)">
            <g id="louisville" transform="translate(11.000000, 0.000000)">
                <g id="g10" transform="translate(89.415003, 99.859042) scale(-1, 1) rotate(-180.000000) translate(-89.415003, -99.859042) translate(0.000000, 0.207824)" fill-rule="nonzero">
                    <g id="g12">
                        <path d="M156.102615,70.1748989 C158.031667,69.8509047 159.918562,69.3395321 161.711282,68.6251095 C160.594104,70.283919 158.634454,72.7321025 155.741555,74.7636246 C155.960163,73.7660903 156.186591,72.1679233 156.102615,70.1748989" id="path14" fill="#FFFFFF"></path>
                        <path d="M154.172543,62.1479507 C156.304904,63.0374869 158.571217,64.1634605 160.997322,65.5902615 C160.111671,66.009989 158.389327,66.6831884 155.755155,67.1243792 C155.465151,65.5902615 154.960619,63.9140769 154.172543,62.1479507" id="path16" fill="#FFFFFF"></path>
                        <path d="M147.754722,78.0907829 C148.227635,76.4200493 148.829402,73.6884135 148.833482,70.6838867 C150.416093,70.7114824 152.027943,70.6556096 153.627214,70.5029814 C153.523519,72.4724983 153.139681,74.5932806 152.291428,76.7191733 C150.923345,77.324235 149.412129,77.8042643 147.754722,78.0907829" id="path18" fill="#FFFFFF"></path>
                        <path d="M138.099601,60.0142222 C138.267212,61.3647092 138.49296,63.5876979 138.561296,66.1762447 C136.477552,65.7132498 134.236397,65.1058033 131.842591,64.3474319 C132.927471,62.5182785 135.011554,60.8458414 138.099601,60.0142222" id="path20" fill="#FFFFFF"></path>
                        <path d="M139.061748,59.7903903 C140.769812,59.4462954 142.760061,59.3628269 145.019235,59.6162987 C145.352756,61.06797 146.010959,64.230576 146.226847,67.3918192 C144.643896,67.2531593 142.932431,67.0235356 141.085655,66.6852325 C140.80857,63.802672 139.758369,61.2301374 139.061748,59.7903903" id="path22" fill="#FFFFFF"></path>
                        <path d="M139.115465,77.8768308 C139.73729,76.1590823 140.676997,73.1753375 141.033977,69.9991039 C142.675406,70.2478061 144.431068,70.4556258 146.247586,70.5789548 C146.044277,73.8543285 145.093011,76.7287125 144.403869,78.4072819 C142.377582,78.4761009 140.62872,78.2764578 139.115465,77.8768308" id="path24" fill="#FFFFFF"></path>
                        <path d="M136.434035,76.8203576 C132.802698,74.8460711 131.218726,71.3070049 130.977,67.6609627 C132.160133,68.0452587 134.89766,68.8591621 138.465421,69.5490552 C138.113541,72.5937832 137.029681,75.4364832 136.434035,76.8203576" id="path26" fill="#FFFFFF"></path>
                        <path d="M148.599235,67.5383151 C148.082464,63.9178245 146.979905,61.1698357 146.338701,59.8067433 C148.177318,60.1096148 150.180146,60.6342742 152.350585,61.431484 C152.731704,62.5397418 153.366448,64.7058356 153.584036,67.409535 C152.131637,67.5478543 150.47015,67.6050899 148.599235,67.5383151" id="path28" fill="#FFFFFF"></path>
                        <path d="M121.084232,105.657887 C119.753547,102.556605 116.680799,100.384719 113.102159,100.384719 C108.297887,100.384719 104.407485,104.284233 104.407485,109.094747 C104.407485,112.734657 106.63572,115.842412 109.797543,117.145543 L109.800943,117.145543 C107.307183,119.423383 105.763669,120.656673 105.753809,120.674389 C101.131768,118.516471 97.923027,113.827584 97.923027,108.380324 C97.923027,100.885871 103.985568,94.8045918 111.46345,94.8045918 C116.891927,94.8045918 121.548987,98.0091024 123.707866,102.621336 C122.824935,103.674743 121.947104,104.686245 121.089332,105.661975 L121.084232,105.657887" id="path30" fill="#FFFFFF"></path>
                        <path d="M117.54299,106.135532 C118.435441,106.135532 119.241535,106.475538 119.849422,107.033926 C118.179435,108.874662 116.570985,110.564815 115.084248,112.06759 C114.455623,111.440724 114.066345,110.576399 114.066345,109.619747 C114.066345,107.697245 115.622438,106.135532 117.54299,106.135532" id="path32" fill="#FFFFFF"></path>
                        <path d="M149.885043,107.000538 C131.233345,109.124387 127.401079,89.3733449 127.401079,89.3733449 C127.401079,89.3733449 105.595718,87.7894867 106.901245,66.8456965 C108.222411,45.6378731 132.558591,47.7596775 142.479577,50.1424489 C152.397162,52.5333968 160.202446,60.7504488 160.202446,60.7504488 C137.05484,49.2164591 125.41491,58.0958085 125.41491,67.1090483 C125.41491,76.121266 132.430078,86.7214301 148.695109,82.4829316 C164.96218,78.2434111 169.588982,63.0000112 169.588982,63.0000112 C177.392905,77.9776745 168.533001,104.882822 149.885043,107.000538" id="path34" fill="#FAB20B"></path>
                        <path d="M136.316741,133.050218 C121.226345,140.282342 99.4393422,146.331937 80.0203076,158.034567 C60.5941333,169.73822 43.5335469,185.652775 43.5335469,185.652775 C43.5335469,185.652775 36.051925,160.925986 48.3922153,142.254584 C48.3922153,142.254584 40.6457483,142.647738 36.5805955,148.168926 C36.5805955,148.168926 36.446303,135.94334 48.5207281,123.582501 C48.5207281,123.582501 43.2717615,123.582501 34.0864949,130.681074 C34.0864949,130.681074 24.7697576,123.843809 20.4378897,118.715092 C20.4378897,118.715092 24.8992224,117.530861 26.3438696,116.743531 C26.3438696,116.743531 17.0261464,107.141242 11.379266,96.489975 C11.379266,96.489975 16.8928058,96.6235246 19.2562178,96.3611949 C19.2562178,96.3611949 12.0382512,75.7138032 25.1603278,61.3786774 L95.9623566,21.1202666 C95.9623566,21.1202666 87.4978497,42.4800368 100.36987,48.5415563 C100.36987,48.5415563 88.0244802,48.5415563 82.2424234,57.2250102 C82.2424234,57.2250102 92.4867308,55.3825699 99.0565236,60.6502866 C99.0565236,60.6502866 87.2360643,60.9136383 81.1912021,69.6025432 C81.1912021,69.6025432 90.6470937,67.7604436 98.0042825,72.7617423 C98.0042825,72.7617423 89.3385068,76.1825898 83.8182353,82.2369549 C83.8182353,82.2369549 92.0287764,81.1324447 99.2676518,84.0126204 C90.2193976,87.1762485 83.8182353,94.9698255 83.8182353,104.088678 C83.8182353,113.997587 91.3705732,122.337287 101.661458,124.878478 C99.5294372,128.344637 95.2640356,132.919394 86.7077338,136.999132 C86.7077338,136.999132 99.8442596,135.682033 107.198389,130.945108 C114.556597,126.202391 117.709581,118.043597 124.543539,116.988145 C132.660585,115.735095 133.209655,120.413081 132.157074,124.361654 C132.157074,124.361654 140.140507,118.334544 130.859026,107.916307 C132.647666,109.745461 138.66465,114.844878 149.57192,113.981915 C149.57192,113.981915 151.411557,125.81537 136.316741,133.050218" id="path36" fill="#EE2722"></path>
                        <path d="M130.977,67.6609627 C131.218726,71.3070049 132.802698,74.8460711 136.434035,76.8203576 C137.029681,75.4364832 138.113541,72.5937832 138.465421,69.5490552 C134.89766,68.8591621 132.160133,68.0452587 130.977,67.6609627 L130.977,67.6609627 Z M138.561296,66.1762447 C138.49296,63.5876979 138.267212,61.3647092 138.099601,60.0142222 C135.011554,60.8458414 132.927471,62.5182785 131.842591,64.3474319 C134.236397,65.1058033 136.477552,65.7132498 138.561296,66.1762447 Z M146.226847,67.3918192 C146.010959,64.230576 145.352756,61.06797 145.019235,59.6162987 C142.760061,59.3628269 140.769812,59.4462954 139.061748,59.7903903 C139.758369,61.2301374 140.80857,63.802672 141.085655,66.6852325 C142.932431,67.0235356 144.643896,67.2531593 146.226847,67.3918192 L146.226847,67.3918192 Z M141.033977,69.9991039 C140.676997,73.1753375 139.73729,76.1590823 139.115465,77.8768308 C140.62872,78.2764578 142.377582,78.4761009 144.403869,78.4072819 C145.093011,76.7287125 146.044277,73.8543285 146.247586,70.5789548 C144.431068,70.4556258 142.675406,70.2478061 141.033977,69.9991039 L141.033977,69.9991039 Z M153.584036,67.409535 C153.366448,64.7058356 152.731704,62.5397418 152.350585,61.431484 C150.180146,60.6342742 148.177318,60.1096148 146.338701,59.8067433 C146.979905,61.1698357 148.082464,63.9178245 148.599235,67.5383151 C150.47015,67.6050899 152.131637,67.5478543 153.584036,67.409535 Z M148.833482,70.6838867 C148.829402,73.6884135 148.227635,76.4200493 147.754722,78.0907829 C149.412129,77.8042643 150.923345,77.324235 152.291428,76.7191733 C153.139681,74.5932806 153.523519,72.4724983 153.627214,70.5029814 C152.027943,70.6556096 150.416093,70.7114824 148.833482,70.6838867 L148.833482,70.6838867 Z M169.588982,63.0000112 C169.588982,63.0000112 164.96218,78.2434111 148.695109,82.4829316 C132.430078,86.7214301 125.41491,76.121266 125.41491,67.1090483 C125.41491,58.0958085 137.05484,49.2164591 160.202446,60.7504488 C160.202446,60.7504488 152.397162,52.5333968 142.479577,50.1424489 C132.558591,47.7596775 108.222411,45.6378731 106.901245,66.8456965 C105.595718,87.7894867 127.401079,89.3733449 127.401079,89.3733449 C127.401079,89.3733449 131.233345,109.124387 149.885043,107.000538 C168.533001,104.882822 177.392905,77.9776745 169.588982,63.0000112 Z M160.997322,65.5902615 C158.571217,64.1634605 156.304904,63.0374869 154.172543,62.1479507 C154.960619,63.9140769 155.465151,65.5902615 155.755155,67.1243792 C158.389327,66.6831884 160.111671,66.009989 160.997322,65.5902615 Z M156.102615,70.1748989 C156.186591,72.1679233 155.960163,73.7660903 155.741555,74.7636246 C158.634454,72.7321025 160.594104,70.283919 161.711282,68.6251095 C159.918562,69.3395321 158.031667,69.8509047 156.102615,70.1748989 Z M97.923027,108.380324 C97.923027,113.827584 101.131768,118.516471 105.753809,120.674389 C105.763669,120.656673 107.307183,119.423383 109.800943,117.145543 L109.797543,117.145543 C106.63572,115.842412 104.407485,112.734657 104.407485,109.094747 C104.407485,104.284233 108.297887,100.384719 113.102159,100.384719 C116.680799,100.384719 119.753547,102.556605 121.084232,105.657887 L121.089332,105.661975 C121.947104,104.686245 122.824935,103.674743 123.707866,102.621336 C121.548987,98.0091024 116.891927,94.8045918 111.46345,94.8045918 C103.985568,94.8045918 97.923027,100.885871 97.923027,108.380324 L97.923027,108.380324 Z M119.849422,107.033926 C119.241535,106.475538 118.435441,106.135532 117.54299,106.135532 C115.622438,106.135532 114.066345,107.697245 114.066345,109.619747 C114.066345,110.576399 114.455623,111.440724 115.084248,112.06759 C116.570985,110.564815 118.179435,108.874662 119.849422,107.033926 L119.849422,107.033926 Z M95.9623566,21.1202666 L25.1603278,61.3786774 C12.0382512,75.7138032 19.2562178,96.3611949 19.2562178,96.3611949 C16.8928058,96.6235246 11.379266,96.489975 11.379266,96.489975 C17.0261464,107.141242 26.3438696,116.743531 26.3438696,116.743531 C24.8992224,117.530861 20.4378897,118.715092 20.4378897,118.715092 C24.7697576,123.843809 34.0864949,130.681074 34.0864949,130.681074 C43.2717615,123.582501 48.5207281,123.582501 48.5207281,123.582501 C36.446303,135.94334 36.5805955,148.168926 36.5805955,148.168926 C40.6457483,142.647738 48.3922153,142.254584 48.3922153,142.254584 C36.051925,160.925986 43.5335469,185.652775 43.5335469,185.652775 C43.5335469,185.652775 60.5941333,169.73822 80.0203076,158.034567 C99.4393422,146.331937 121.226345,140.282342 136.316741,133.050218 C151.411557,125.81537 149.57192,113.981915 149.57192,113.981915 C138.66465,114.844878 132.647666,109.745461 130.859026,107.916307 C140.140507,118.334544 132.157074,124.361654 132.157074,124.361654 C133.209655,120.413081 132.660585,115.735095 124.543539,116.988145 C117.709581,118.043597 114.556597,126.202391 107.198389,130.945108 C99.8442596,135.682033 86.7077338,136.999132 86.7077338,136.999132 C95.2640356,132.919394 99.5294372,128.344637 101.661458,124.878478 C91.3705732,122.337287 83.8182353,113.997587 83.8182353,104.088678 C83.8182353,94.9698255 90.2193976,87.1762485 99.2676518,84.0126204 C92.0287764,81.1324447 83.8182353,82.2369549 83.8182353,82.2369549 C89.3385068,76.1825898 98.0042825,72.7617423 98.0042825,72.7617423 C90.6470937,67.7604436 81.1912021,69.6025432 81.1912021,69.6025432 C87.2360643,60.9136383 99.0565236,60.6502866 99.0565236,60.6502866 C92.4867308,55.3825699 82.2424234,57.2250102 82.2424234,57.2250102 C88.0244802,48.5415563 100.36987,48.5415563 100.36987,48.5415563 C87.4978497,42.4800368 95.9623566,21.1202666 95.9623566,21.1202666 L95.9623566,21.1202666 Z M174.645519,96.7407213 C170.447434,104.662738 164.182604,110.310321 156.942028,112.938388 C157.160636,114.514751 158.810564,130.542074 139.527862,139.782212 C133.759744,142.543828 127.189271,145.092855 120.23598,147.790422 C108.705864,152.263995 95.6346149,157.334113 83.8573331,164.431324 C65.3623668,175.571819 48.7726541,190.958648 48.6070833,191.115024 L39.8688917,199.254059 C39.8688917,199.254059 33.7599771,186.86869 33.9846706,164.259276 C31.8858319,167.110494 30.3646889,168.658239 30.3646889,168.658239 C30.3646889,168.658239 26.7675199,151.436464 31.0766431,137.72139 C16.7771443,127.021745 7.14463268,114.52429 7.14463268,114.52429 C7.14463268,114.52429 10.2337,113.706639 13.2858114,112.896824 C5.59017156,102.398185 0,88.9818945 0,88.9818945 C0,88.9818945 7.192604,89.589341 10.1641059,88.9972254 C10.1641059,88.9972254 1.98995298,63.7202255 27.8492375,49.5605539 L115.317815,1.15554531 C114.479082,4.38594822 102.725599,39.1791114 122.141573,41.8770191 C131.458413,40.235244 140.719155,42.0446376 144.21824,42.8857961 C154.016492,45.2474448 161.690543,51.837712 164.504226,54.5216515 C166.109616,49.5469264 166.785498,47.3065626 166.785498,47.3065626 C180.997044,60.6976422 180.956586,84.8343597 174.645519,96.7407213 L174.645519,96.7407213 Z" id="path38" fill="#231F20"></path>
                        <path d="M130.340895,8.67183639 C130.031172,8.83979554 129.53514,8.92534227 128.851778,8.92534227 L127.798177,8.92534227 L127.798177,6.45842101 L128.911275,6.45842101 C129.433146,6.45842101 129.825484,6.50846806 130.085229,6.61108326 C130.565963,6.79566798 130.807009,7.15138025 130.807009,7.67440435 C130.807009,8.1693217 130.651978,8.50149243 130.340895,8.67183639 L130.340895,8.67183639 Z M129.012249,9.78585184 C129.871721,9.78585184 130.503066,9.7034735 130.903224,9.53646828 C131.620924,9.2398313 131.977904,8.65786818 131.977904,7.78911397 C131.977904,7.17079946 131.755216,6.71768452 131.307121,6.42700958 C131.069814,6.27305271 130.738333,6.16164775 130.313357,6.09245404 C130.849167,6.0070095 131.241505,5.78144003 131.489351,5.41560933 C131.736857,5.04936981 131.86027,4.693385 131.86027,4.34482718 L131.86027,3.83846272 C131.86027,3.67741954 131.86639,3.50537214 131.876929,3.32343797 C131.889849,3.14045108 131.909227,3.0208117 131.936766,2.96265286 L131.977904,2.87841437 L130.847467,2.87841437 C130.840327,2.8999731 130.834548,2.923794 130.829788,2.94495413 C130.823668,2.96837642 130.817888,2.99432662 130.812789,3.022941 L130.78729,3.24611884 L130.78729,3.79189068 C130.78729,4.59008842 130.568682,5.11883608 130.131127,5.37329589 C129.871721,5.52326672 129.417507,5.59753669 128.766443,5.59753669 L127.798177,5.59753669 L127.798177,2.87841437 L126.587845,2.87841437 L126.587845,9.78585184 L129.012249,9.78585184 Z M125.293537,10.1310709 C124.242996,9.07521089 123.717385,7.80107212 123.717385,6.30405531 C123.717385,4.79783992 124.239936,3.51521802 125.284358,2.4549495 C126.334899,1.39309337 127.611868,0.860635617 129.113224,0.860635617 C130.6139,0.860635617 131.891548,1.39309337 132.94107,2.4549495 C133.992291,3.51521802 134.517222,4.79783992 134.517222,6.30405531 C134.517222,7.80107212 133.992291,9.07521089 132.94107,10.1310709 C131.884749,11.1911895 130.6088,11.722322 129.113224,11.722322 C127.622747,11.722322 126.349858,11.1911895 125.293537,10.1310709 Z M133.575814,1.85022843 C132.348823,0.616965392 130.864806,0 129.124103,0 C127.3834,0 125.901423,0.616965392 124.681571,1.85022843 C123.465799,3.07816992 122.858593,4.56695571 122.858593,6.31390119 C122.858593,8.04462992 123.471239,9.52263635 124.698231,10.7500327 C125.920462,11.9738519 127.39394,12.5829678 129.124103,12.5829678 C130.864806,12.5829678 132.348823,11.9738519 133.575814,10.7500327 C134.801786,9.5283599 135.416471,8.05008093 135.416471,6.31390119 C135.416471,4.57240672 134.801786,3.08389007 133.575814,1.85022843 L133.575814,1.85022843 Z" id="path40" fill="#231F20"></path>
                    </g>
                </g>
            </g>
        </g>
    </g>
</svg>