<?xml version="1.0" encoding="UTF-8"?>
<svg width="200px" height="200px" viewBox="0 0 200 200" version="1.1" xmlns="http://www.w3.org/2000/svg" xmlns:xlink="http://www.w3.org/1999/xlink">
    <!-- Generator: Sketch 54.1 (76490) - https://sketchapp.com -->
    <title>marist</title>
    <desc>Created with Sketch.</desc>
    <g id="marist" stroke="none" stroke-width="1" fill="none" fill-rule="evenodd">
        <g id="marist_BGL">
            <g id="marist" transform="translate(-1.000000, 5.000000)">
                <g id="g10" transform="translate(100.291813, 95.251941) scale(-1, 1) rotate(-180.000000) translate(-100.291813, -95.251941) translate(0.000000, 0.438253)" fill-rule="nonzero">
                    <g id="g12">
                        <path d="M199.06155,90.3460677 L200.019801,91.7636377 L198.439572,92.4226982 C190.470166,95.7399131 188.813244,100.57499 188.471072,102.303549 C193.416554,106.639695 194.575388,114.341095 194.62427,114.680738 L194.830753,116.122749 L193.382,116.272766 C177.713721,117.892605 172.250767,122.123402 170.425288,125.387521 C168.75151,128.377735 169.85472,131.032518 170.006422,131.364576 C175.975049,141.304422 177.286428,153.325112 173.79307,166.136338 C171.60772,174.153783 168.234881,180.071843 167.060034,181.991715 C168.72117,185.859271 168.12279,187.424329 167.588462,188.021866 L166.887262,188.80313 L165.941654,188.351396 C153.860283,182.58251 136.022668,159.758959 132.581563,155.259312 C130.769568,155.50962 127.875433,155.094125 122.963662,154.343201 C117.037175,153.435518 108.92028,152.19409 100.012007,152.19409 C91.0995205,152.19409 82.9823731,153.435518 77.0548741,154.343201 C72.1473176,155.094125 69.2528453,155.50962 67.4411875,155.259312 C64.0009255,159.758959 46.1623831,182.58251 34.0792423,188.351396 L33.1338024,188.80313 L32.4335295,188.022708 C31.8992017,187.425172 31.2967766,185.859271 32.9616207,181.992558 C31.7850039,180.071843 28.4128392,174.153783 26.2268148,166.136338 C22.7348898,153.323427 24.0458471,141.301051 30.017761,131.360362 C30.1576639,131.051902 31.2753698,128.388691 29.5973782,125.387521 C27.7708873,122.123402 22.3069219,117.892605 6.64025351,116.272766 L5.19005918,116.122749 L5.39746939,114.680738 C5.4458623,114.341095 6.6040389,106.638852 11.5515099,102.303549 C11.2120347,100.586789 9.56042242,95.7449698 1.58088552,92.4226982 L0,91.7636377 L0.958014367,90.3460677 C1.15949135,90.0451923 5.8359806,83.2227363 13.3644319,80.6726274 C13.5201792,78.2789399 13.1708434,71.3420333 4.39994511,68.948683 L2.05331053,68.3079953 L3.78431351,66.5996633 C3.96044784,66.4268917 8.00648927,62.538182 18.6575641,60.1448317 C17.3963313,57.3836885 15.0757136,51.7100374 15.0757136,47.328465 L15.0757136,45.7509338 L16.6427943,45.9369372 C16.9588399,45.9741042 48.5886865,49.5846094 62.7745841,38.550993 C65.0965503,36.7438862 67.1432618,34.6396123 68.8666797,32.2972506 L68.9203653,31.859085 C68.9209553,31.8514999 69.3117562,31.498203 69.3117562,31.498203 C69.3176557,31.4933148 69.4388487,31.3836681 69.6396852,31.2085367 C73.5968293,25.3214915 74.2815948,19.9438277 74.2888428,19.8898049 L74.2921297,19.8601388 C74.2921297,19.8578632 74.2964279,19.8298827 74.2964279,19.8298827 C74.3289595,19.6260965 75.1490768,14.7774508 78.7276404,9.89947617 C82.0385344,5.38298186 88.4202963,0.000987646805 100.012007,0.000987646805 C111.602033,0.000987646805 117.98194,5.38298186 121.294099,9.89947617 C124.872578,14.7774508 125.691768,19.6260965 125.724637,19.8292084 L125.730536,19.8601388 L125.733908,19.8924176 C125.738964,19.9438277 126.424994,25.3225029 130.382728,31.210138 C130.581626,31.3836681 130.702145,31.4926406 130.708887,31.498203 L131.104155,31.8541125 L131.152194,32.2965764 C132.877382,34.6396123 134.923672,36.7438862 137.246396,38.550993 C145.677651,45.1092348 160.271374,46.4942731 170.791058,46.530513 L170.787687,46.5094433 L169.346519,42.2269829 L177.660626,42.2269829 L178.794176,46.3079326 C181.579592,46.1426618 183.306465,45.9454494 183.378945,45.9369372 L184.944845,45.7515238 L184.944845,47.328465 C184.944845,51.7100374 182.624649,57.3836885 181.362995,60.1448317 C192.01584,62.538182 196.060381,66.4278188 196.238209,66.5996633 L197.968454,68.3079953 L195.621288,68.948683 C186.852075,71.3403478 186.502318,78.2749788 186.655706,80.6726274 C194.18602,83.2236634 198.859281,90.0451923 199.06155,90.3460677" id="path14" fill="#FFFFFF"></path>
                        <path d="M185.36624,81.7343721 C193.027186,83.9028665 197.901873,91.1290181 197.901873,91.1290181 C187.195933,95.5873684 186.979336,102.889287 186.979336,102.889287 C192.079049,106.793925 193.23704,114.879636 193.23704,114.879636 C161.833903,118.1269 168.762466,132.014366 168.762466,132.014366 C182.960079,155.536589 165.474749,181.879624 165.474749,181.879624 C167.441817,186.084295 166.543405,187.087213 166.543405,187.087213 C153.567835,180.891876 133.142017,153.680769 133.142017,153.680769 C130.107979,154.981191 116.553414,150.792533 100.012007,150.792533 C83.4657122,150.792533 69.9129171,154.981191 66.8798905,153.680769 C66.8798905,153.680769 46.453735,180.891876 33.476143,187.087213 C33.476143,187.087213 32.5763821,186.084295 34.546737,181.879624 C34.546737,181.879624 17.0609016,155.536589 31.2588511,132.014366 C31.2588511,132.014366 38.1865713,118.1269 6.78411748,114.879636 C6.78411748,114.879636 7.94295146,106.793925 13.039537,102.889287 C13.039537,102.889287 12.8268172,95.5873684 2.11849178,91.1290181 C2.11849178,91.1290181 6.99415719,83.9028665 14.6549937,81.7343721 C14.6549937,81.7343721 16.6374847,70.8346748 4.76767895,67.5975247 C4.76767895,67.5975247 8.99246735,63.4290093 20.6911281,61.14598 C20.6911281,61.14598 16.4755008,52.9448909 16.4755008,47.328465 C16.4755008,47.328465 48.8181777,51.1800078 63.6338069,39.6558042 C66.4156826,37.4938836 68.5588934,35.1383744 70.2158153,32.8335169 C70.2411832,32.6202071 70.2510438,32.5375296 70.2510438,32.5375296 C70.2510438,32.5375296 70.4172417,32.3867548 70.7004186,32.1421776 C75.0114495,25.8087075 75.6791064,20.0533901 75.6791064,20.0533901 C75.6791064,20.0533901 78.7075821,1.40146431 100.012007,1.40146431 C121.311797,1.40146431 124.342464,20.0533901 124.342464,20.0533901 C124.342464,20.0533901 125.010795,25.8093817 129.320815,32.1431889 C129.603149,32.387429 129.770864,32.5375296 129.770864,32.5375296 C129.770864,32.5375296 129.778449,32.6191958 129.804575,32.8325055 C131.461497,35.1366889 133.603865,37.4938836 136.385909,39.6558042 C151.200443,51.1800078 183.544131,47.328465 183.544131,47.328465 C183.544131,52.9448909 179.331032,61.14598 179.331032,61.14598 C191.029777,63.4290093 195.252147,67.5975247 195.252147,67.5975247 C183.384001,70.8346748 185.36624,81.7343721 185.36624,81.7343721" id="path16" fill="#0F0C0E"></path>
                        <path d="M94.4555037,15.7147157 C94.6560873,17.9033528 94.9923599,18.6137391 94.9923599,18.6137391 C101.202024,17.5460948 108.257006,21.6444903 108.257006,21.6444903 C95.1457473,19.7153477 91.5192291,23.9443754 91.5192291,23.9443754 C90.2440903,16.7260618 94.3847095,9.15082728 94.3847095,9.15082728 C94.3139152,10.7616486 94.302959,12.1160938 94.3265571,13.2511611 C95.2687944,12.840049 99.1911314,12.0610597 99.5543732,14.0524843 C99.8990736,15.9507808 95.501404,15.7812117 94.4555037,15.7147157" id="path18" fill="#A3A1A1"></path>
                        <path d="M108.324429,19.7676849 C108.211495,18.2513401 107.964558,16.9028788 107.614801,15.7019054 C107.074574,15.7449718 101.975704,16.0913579 102.346531,14.0524843 C102.623808,12.5245933 105.001314,12.6273292 106.51749,12.9443862 C102.877488,5.98544068 95.2131704,5.99466079 95.2131704,5.99466079 C99.0790405,4.37591721 105.169029,6.1194356 105.169029,6.1194356 C110.418758,11.3674449 108.324429,19.7676849 108.324429,19.7676849" id="path20" fill="#3B3838"></path>
                        <path d="M130.363344,148.175676 C120.131893,146.512011 106.335448,145.890034 100.012007,145.395317 C93.6826668,145.890034 79.8871486,146.512011 69.6551082,148.175676 C69.6551082,148.175676 61.2344727,148.695676 49.1204016,122.377082 C42.4857189,107.967086 39.8586634,106.768641 44.2095582,101.756579 C48.6259377,96.6661375 56.9237789,91.3793262 69.7483206,87.4030508 C84.5957228,82.7937571 83.9505684,69.7811893 83.9505684,63.2512652 C83.9505684,63.2512652 85.5640866,46.8968731 88.6731329,37.7341625 C91.7830218,28.5629398 93.0632173,26.1373106 100.012007,26.2923837 C106.954898,26.1373106 108.236779,28.5629398 111.348353,37.7341625 C114.458242,46.8968731 116.069654,63.2512652 116.069654,63.2512652 C116.069654,69.7811893 115.422392,82.7937571 130.272323,87.4030508 C143.093662,91.3793262 151.395127,96.6661375 155.811338,101.756579 C160.159283,106.768641 157.53484,107.967086 150.902096,122.377082 C138.786171,148.695676 130.363344,148.175676 130.363344,148.175676" id="path22" fill="#E51636"></path>
                        <path d="M52.0399047,139.722508 C52.0399047,139.722508 56.6347025,147.948123 61.7007032,150.681285 C61.7007032,150.681285 43.9978498,173.228402 37.5824606,177.108599 C37.5824606,177.108599 46.2282891,165.383728 45.0256302,149.557848 C44.6140966,144.115121 47.619817,140.628506 52.0399047,139.722508" id="path24" fill="#E51636"></path>
                        <path d="M138.319266,150.681285 C143.386109,147.948123 147.980149,139.722508 147.980149,139.722508 C152.398888,140.628506 155.405114,144.115121 154.99299,149.557848 C153.790331,165.383728 162.438183,177.108599 162.438183,177.108599 C156.022035,173.228402 138.319266,150.681285 138.319266,150.681285" id="path26" fill="#E51636"></path>
                        <path d="M96.9729125,77.0788936 C96.9729125,77.0788936 92.885389,73.9194487 92.885389,76.4780698 C92.885389,79.0390507 93.9607869,91.1753714 70.7932096,100.65674 C70.7932096,100.65674 54.9583965,105.238138 54.9583965,110.504722 C54.9583965,110.504722 64.0249449,107.198463 67.9359885,107.198463 C67.9359885,107.198463 57.654645,114.2703 59.76229,122.093905 C61.8685867,129.914138 68.5088318,141.536189 68.5088318,141.536189 C68.5088318,141.536189 61.3935069,137.563285 47.815091,106.356518 C47.815091,106.356518 53.7320552,98.1410171 72.1927439,92.5878847 C90.6519999,87.0347523 89.6330688,68.4748674 89.6364399,63.5376447 C89.6389683,58.5998321 93.2840279,36.5711146 96.6475962,33.0103339 C96.6475962,33.0103339 91.5571546,59.681888 93.8141418,70.9670768 C93.8141418,70.9670768 95.3193617,72.060089 96.9729125,77.0788936" id="path28" fill="#EC5358"></path>
                        <path d="M148.737815,145.370876 C148.737815,145.370876 150.935807,145.716419 152.10644,162.411213 C146.616517,155.078112 144.293792,151.18443 144.293792,151.18443 C144.293792,151.18443 147.930424,148.424298 148.737815,145.370876" id="path30" fill="#EC5358"></path>
                        <path d="M42.637168,137.268039 C42.6859452,137.201037 42.7345884,137.131356 42.7826956,137.064354 C42.7356605,137.131356 42.6859452,137.201037 42.637168,137.268039" id="path32" fill="#FFFFFF"></path>
                        <path d="M42.98052,136.815209 C43.0418935,136.732127 43.1035351,136.651725 43.1663826,136.571323 C43.1035351,136.651725 43.0418935,136.733467 42.98052,136.815209" id="path34" fill="#FFFFFF"></path>
                        <path d="M41.5988528,138.834547 C41.6156032,138.807746 41.6296735,138.780945 41.6460219,138.754145 C41.6296735,138.780945 41.6156032,138.807746 41.5988528,138.834547" id="path36" fill="#FFFFFF"></path>
                        <path d="M42.2918776,137.757413 C42.3279245,137.701131 42.3671875,137.64485 42.4039044,137.588568 C42.3671875,137.64485 42.3279245,137.701131 42.2918776,137.757413" id="path38" fill="#FFFFFF"></path>
                        <path d="M43.3153598,136.404046 C43.3971018,136.299524 43.4792459,136.199021 43.562998,136.098519 C43.4792459,136.199021 43.3971018,136.299524 43.3153598,136.404046" id="path40" fill="#FFFFFF"></path>
                        <path d="M41.9435532,138.281189 C41.9712919,138.238308 41.9984946,138.194086 42.0273053,138.149865 C41.9984946,138.194086 41.9712919,138.238308 41.9435532,138.281189" id="path42" fill="#FFFFFF"></path>
                        <path d="M157.675586,137.613009 C157.693006,137.63847 157.709087,137.666611 157.726507,137.693411 C157.709087,137.666611 157.693006,137.63847 157.675586,137.613009" id="path44" fill="#FFFFFF"></path>
                        <path d="M157.317401,137.099751 C157.340181,137.130572 157.361622,137.161393 157.383062,137.192213 C157.361622,137.161393 157.340181,137.130572 157.317401,137.099751" id="path46" fill="#FFFFFF"></path>
                        <path d="M158.034614,138.165878 C158.049354,138.187319 158.062754,138.208759 158.077495,138.2302 C158.062754,138.208759 158.049354,138.187319 158.034614,138.165878" id="path48" fill="#FFFFFF"></path>
                        <path d="M158.397855,138.762573 C158.404556,138.774633 158.412596,138.788033 158.417956,138.800093 C158.411256,138.788033 158.404556,138.774633 158.397855,138.762573" id="path50" fill="#FFFFFF"></path>
                        <path d="M156.608616,136.170998 C156.644797,136.213879 156.678297,136.25542 156.711798,136.299642 C156.678297,136.25542 156.644797,136.213879 156.608616,136.170998" id="path52" fill="#FFFFFF"></path>
                        <path d="M156.961744,136.621047 C156.988545,136.657228 157.015345,136.692069 157.042146,136.72691 C157.015345,136.692069 156.988545,136.657228 156.961744,136.621047" id="path54" fill="#FFFFFF"></path>
                        <path d="M156.247902,135.731906 C156.300164,135.793547 156.348405,135.852509 156.402006,135.91549 C156.348405,135.853849 156.300164,135.793547 156.247902,135.731906" id="path56" fill="#FFFFFF"></path>
                        <path d="M66.79755,81.2767381 C66.79755,80.2173531 67.6541601,79.3593946 68.7169162,79.3593946 C69.7776496,79.3593946 70.6372094,80.2173531 70.6372094,81.2767381 C70.6372094,81.5862099 70.562117,81.8785732 70.4320748,82.1373092 C69.5935846,82.5468201 68.7903231,82.8595789 68.0874376,83.0963181 C67.3358389,82.8342109 66.79755,82.1178408 66.79755,81.2767381" id="path58" fill="#FFFFFF"></path>
                        <path d="M128.304412,80.8530684 C128.304412,79.7926721 129.163213,78.9357249 130.225969,78.9357249 C131.286197,78.9357249 132.145841,79.7926721 132.145841,80.8530684 C132.145841,81.8255618 131.423572,82.6304247 130.486391,82.7585285 C129.828173,82.5290373 129.226422,82.269627 128.677767,81.9898213 C128.442629,81.6704888 128.304412,81.2777494 128.304412,80.8530684" id="path60" fill="#FFFFFF"></path>
                        <path d="M78.2245801,66.945038 C78.2245801,66.945038 57.8040713,62.5585775 44.2118338,81.9881357 C44.2118338,81.9881357 50.4082665,86.4085606 56.4305792,86.4085606 C56.4305792,86.4085606 37.9698904,94.4369623 36.4028941,105.844945 C36.4028941,105.844945 35.9321125,111.007024 43.3700568,123.498833 C46.921904,129.464089 47.0832136,131.385646 45.8266162,133.257479 C45.8216438,133.265907 45.81507,133.274335 45.8108561,133.282763 C45.3969627,133.892099 44.8380255,134.498906 44.1937138,135.238874 C44.1400282,135.301241 44.0860897,135.36445 44.0301286,135.430187 C43.9840281,135.483283 43.9369162,135.537222 43.8908157,135.592846 C43.777882,135.725163 43.6646956,135.860009 43.548475,136.001598 C43.5220958,136.033624 43.496475,136.06565 43.4711071,136.098519 C43.4184328,136.161728 43.3667699,136.224937 43.3153598,136.290674 C43.2433014,136.381695 43.1714958,136.476088 43.0974147,136.571323 C43.0578879,136.62189 43.0191197,136.672457 42.98052,136.72471 C42.8982638,136.834273 42.8143221,136.948049 42.7286948,137.064354 C42.6984387,137.106493 42.6678455,137.150318 42.637168,137.192458 C42.5469897,137.321404 42.4554628,137.452037 42.3623347,137.588568 C42.3392423,137.623965 42.3145486,137.659363 42.2918776,137.69476 C42.1937771,137.842248 42.0950023,137.993107 41.9962275,138.149865 C41.9781075,138.177677 41.9609989,138.205489 41.9435532,138.232459 C41.839216,138.401859 41.7328561,138.573788 41.6285189,138.754145 C41.6182369,138.771 41.6093876,138.787856 41.5988528,138.804712 C41.4869305,138.998553 41.3750082,139.197451 41.2630859,139.40562 C39.4507538,142.773402 33.959145,150.650102 35.4069711,171.01524 C35.4069711,171.01524 35.4046956,171.007655 35.4036842,171.003441 C35.4036842,171.006812 35.4036842,171.011026 35.4036842,171.01524 C35.4036842,171.01524 25.7347106,145.917846 37.3082173,133.980591 C39.1748249,132.05482 38.5220011,127.995951 38.5220011,127.995951 C38.5220011,127.995951 36.8407226,113.10051 15.013853,110.04456 C15.013853,110.04456 16.2286481,106.911915 19.4423686,105.748025 C19.4423686,105.748025 18.7263356,93.6700249 11.7397888,89.7401029 C11.7397888,89.7401029 15.0747023,86.3107971 19.7380187,87.5884643 C19.7380187,87.5884643 23.3692566,73.9596497 16.4640389,68.8633928 C16.4640389,68.8633928 23.9635067,65.5090109 31.1683357,65.5090109 C31.1683357,65.5090109 26.3716901,62.0173388 24.183053,53.5035752 C24.183053,53.5035752 48.557419,54.289054 60.419665,48.2750006 C63.9274343,46.4982342 66.4726551,45.0957502 68.8574933,43.1441895 C67.4593074,53.4262073 46.0103441,62.7818321 46.0103441,62.7818321 C74.9867558,58.6867236 77.0466991,36.2863364 78.3908622,30.1270707 C78.3908622,30.1270707 78.3908622,30.1253851 78.3908622,30.1247109 C80.7486469,23.802197 81.3998694,17.5807334 87.3095013,17.5807334 C87.3095013,17.5807334 86.2467452,31.0366921 81.4074545,42.8169348 C81.4074545,42.8169348 77.7472248,58.9141921 78.2245801,66.945038" id="path62" fill="#FFFFFF"></path>
                        <path d="M188.278916,89.7401029 C181.293886,93.6700249 180.578359,105.748025 180.578359,105.748025 C183.791068,106.911915 185.006369,110.04456 185.006369,110.04456 C163.178151,113.10051 161.500159,127.995951 161.500159,127.995951 C161.500159,127.995951 160.84447,132.05482 162.712932,133.980591 C174.284416,145.917846 164.615105,171.01524 164.615105,171.01524 C164.615948,171.011869 164.615948,171.008497 164.615948,171.005126 C164.615105,171.008497 164.613419,171.01524 164.613419,171.01524 C166.06133,150.650102 160.570564,142.773402 158.758569,139.40562 C158.643107,139.190709 158.526802,138.985911 158.410497,138.786171 C158.407126,138.778585 158.402069,138.770158 158.397855,138.762573 C158.284079,138.569574 158.171988,138.385003 158.061583,138.206332 C158.052312,138.192848 158.043884,138.179363 158.034614,138.165878 C157.925894,137.992264 157.817174,137.825392 157.707612,137.663577 C157.696655,137.646721 157.686542,137.629022 157.675586,137.613009 C157.570237,137.456251 157.463203,137.304549 157.358697,137.157904 C157.345213,137.138519 157.331728,137.119135 157.317401,137.099751 C157.215423,136.958163 157.114289,136.820788 157.012311,136.687628 C156.995456,136.665715 156.9786,136.643803 156.961744,136.621047 C156.864823,136.494629 156.768745,136.371582 156.67351,136.251906 C156.652441,136.224094 156.631371,136.197968 156.608616,136.170998 C156.520123,136.060593 156.432473,135.951873 156.344823,135.847368 C156.311111,135.807757 156.280771,135.770674 156.247902,135.731906 C156.191435,135.665325 156.13834,135.600431 156.082716,135.536379 C155.985795,135.422602 155.889717,135.31304 155.796168,135.20432 C155.251726,134.578128 154.768809,134.047172 154.384497,133.527171 L154.384497,133.527171 C152.930687,131.560103 152.928159,129.750637 156.648227,123.498833 C164.084991,111.007024 163.617244,105.844945 163.617244,105.844945 C162.048814,94.4369623 143.589221,86.4085606 143.589221,86.4085606 C149.611787,86.4085606 155.807124,81.9881357 155.807124,81.9881357 C142.214634,62.5585775 121.794715,66.945038 121.794715,66.945038 C122.273419,58.9141921 118.613189,42.8169348 118.613189,42.8169348 C113.772213,31.0366921 112.71367,17.5807334 112.71367,17.5807334 C118.61656,17.5807334 119.268878,23.798573 121.626157,30.1194856 C121.626157,30.1220982 121.626157,30.1247109 121.627843,30.1270707 C122.971247,36.2863364 125.03355,58.6867236 154.008614,62.7818321 C154.008614,62.7818321 132.560493,53.4262073 131.160622,43.1431781 C133.546555,45.0950759 136.091776,46.4982342 139.600304,48.2750006 C151.460864,54.289054 175.83936,53.5035752 175.83936,53.5035752 C173.64811,62.0173388 168.85433,65.5090109 168.85433,65.5090109 C176.055957,65.5090109 183.555087,68.8633928 183.555087,68.8633928 C176.651808,73.9596497 180.281698,87.5884643 180.281698,87.5884643 C184.944845,86.3107971 188.278916,89.7401029 188.278916,89.7401029" id="path64" fill="#FFFFFF"></path>
                        <path d="M40.1828841,136.511485 C42.8117095,135.091386 44.6934873,133.905583 46.0395888,132.917835 C45.5029855,133.854173 44.5926898,134.723931 43.548475,136.001598 C43.5220958,136.033624 43.496475,136.06565 43.4711071,136.098519 C43.4184328,136.161728 43.3667699,136.224937 43.3153598,136.290674 C43.2433014,136.381695 43.1714958,136.476088 43.0974147,136.571323 C43.0578879,136.62189 43.0191197,136.672457 42.98052,136.72471 C42.8982638,136.834273 42.8143221,136.948049 42.7286948,137.064354 C42.6984387,137.106493 42.6678455,137.150318 42.637168,137.192458 C42.5469897,137.321404 42.4554628,137.452037 42.3623347,137.588568 C42.3392423,137.623965 42.3145486,137.659363 42.2918776,137.69476 C42.1937771,137.842248 42.0950023,137.993107 41.9962275,138.149865 C41.9781075,138.177677 41.9609989,138.205489 41.9435532,138.232459 C41.839216,138.401859 41.7328561,138.573788 41.6285189,138.754145 C41.6182369,138.771 41.6093876,138.787856 41.5988528,138.804712 C41.4869305,138.998553 41.3750082,139.197451 41.2630859,139.40562 C39.4507538,142.773402 33.959145,150.650102 35.4069711,171.01524 C35.4069711,171.01524 35.4046956,171.007655 35.4036842,171.003441 C35.2802157,170.503667 28.511614,142.836611 40.1828841,136.511485" id="path66" fill="#BDBCBC"></path>
                        <path d="M159.831438,136.511485 C171.525969,142.845039 164.722139,170.575304 164.615948,171.005126 C164.615105,171.008497 164.613419,171.01524 164.613419,171.01524 C166.06133,150.650102 160.570564,142.773402 158.758569,139.40562 C158.643107,139.190709 158.526802,138.985911 158.410497,138.786171 C158.407126,138.778585 158.402069,138.770158 158.397855,138.762573 C158.284079,138.569574 158.171988,138.385003 158.061583,138.206332 C158.052312,138.192848 158.043884,138.179363 158.034614,138.165878 C157.925894,137.992264 157.817174,137.825392 157.707612,137.663577 C157.696655,137.646721 157.686542,137.629022 157.675586,137.613009 C157.570237,137.456251 157.463203,137.304549 157.358697,137.157904 C157.345213,137.138519 157.331728,137.119135 157.317401,137.099751 C157.215423,136.958163 157.114289,136.820788 157.012311,136.687628 C156.995456,136.665715 156.9786,136.643803 156.961744,136.621047 C156.864823,136.494629 156.768745,136.371582 156.67351,136.251906 C156.652441,136.224094 156.631371,136.197968 156.608616,136.170998 C156.520123,136.060593 156.432473,135.951873 156.344823,135.847368 C156.311111,135.807757 156.280771,135.770674 156.247902,135.731906 C156.191435,135.665325 156.13834,135.600431 156.082716,135.536379 C155.201159,134.50312 154.449392,133.736183 153.980802,132.917835 C155.326735,133.905583 157.209524,135.091386 159.831438,136.511485" id="path68" fill="#BDBCBC"></path>
                        <path d="M44.5054612,67.7332136 C40.7955912,66.7093101 33.1298413,63.8681863 32.0868907,57.6612187 C32.0868907,57.6612187 43.1533759,58.03095 53.4288199,53.6273809 C53.4288199,53.6273809 44.8268164,60.8914579 39.9485046,62.1717376 C39.9485046,62.1717376 41.736143,65.5376657 44.5054612,67.7332136" id="path70" fill="#BDBCBC"></path>
                        <path d="M160.07079,62.1717376 C155.19526,60.8914579 146.588705,53.6273809 146.588705,53.6273809 C156.866509,58.03095 167.934848,57.6612187 167.934848,57.6612187 C167.058348,62.7498904 160.738279,67.6462379 160.738279,67.6462379 C170.216276,68.5808902 174.807787,71.9741246 174.807787,71.9741246 C171.693684,77.042738 174.196766,93.1255837 174.196766,93.1255837 C175.392682,91.9347237 179.76254,93.0750164 179.76254,93.0750164 C176.018874,95.3404314 174.824643,106.695319 174.824643,106.695319 C175.497188,107.367864 175.689344,107.828869 175.689344,107.828869 C173.017705,107.828869 167.147684,111.697268 167.147684,111.697268 C167.147684,110.495451 172.222113,106.62621 172.222113,106.62621 C172.222113,104.38945 173.287397,96.4815669 173.287397,96.4815669 C171.552096,96.4815669 169.417313,97.9488614 169.417313,97.9488614 C167.147684,90.4750143 168.214654,74.4511638 168.214654,74.4511638 C165.410697,71.6478812 151.874674,69.4954841 151.874674,69.4954841 C156.620415,68.6727541 160.07079,62.1717376 160.07079,62.1717376" id="path72" fill="#BDBCBC"></path>
                        <path d="M77.0107963,75.1178094 C76.8408902,75.6721956 76.6229451,76.1880663 76.3766824,76.6752823 C75.8186722,73.603403 73.1355712,71.2696378 69.8997696,71.2696378 C66.2609467,71.2696378 63.313463,74.219987 63.313463,77.8575458 C63.313463,80.269016 64.608913,82.3673905 66.5391511,83.5153525 C59.8850843,84.5788671 52.033331,82.6597537 48.5452829,81.2615679 C60.0305496,66.4462758 77.4996978,69.6716268 77.4996978,69.6716268 C77.6138956,71.7634275 77.4321905,73.5678374 77.0107963,75.1194107 L77.0107963,75.1178094" id="path74" fill="#3B3838"></path>
                        <path d="M134.628696,83.6688242 C134.234271,83.6246621 133.857544,83.5700494 133.490931,83.5084416 C135.414174,82.3598054 136.707012,80.2647178 136.707012,77.8575458 C136.707012,74.219987 133.75641,71.2696378 130.119778,71.2696378 C126.826161,71.2696378 124.109012,73.6883561 123.620194,76.8429129 C122.778249,74.9492517 122.362754,72.5910457 122.520356,69.6716268 C122.520356,69.6716268 139.98883,66.4462758 151.472664,81.2615679 C148.184946,82.5797731 141.01366,84.3605849 134.628696,83.6688242" id="path76" fill="#3B3838"></path>
                        <path d="M62.2346939,82.4204018 C62.2346939,82.4204018 56.1112467,82.5208622 50.7895439,80.5814377 C50.7895439,80.5814377 55.5861895,74.4090244 61.866564,72.8633506 C61.866564,72.8633506 54.2265191,77.5391403 53.7524506,79.977327 C53.7524506,79.977327 54.348302,80.7104686 62.2346939,82.4204018" id="path78" fill="#A3A1A1"></path>
                        <path d="M146.268446,79.977327 C145.793113,77.5391403 138.153237,72.8633506 138.153237,72.8633506 C144.433695,74.4090244 149.231689,80.5814377 149.231689,80.5814377 C143.907795,82.5208622 137.785781,82.4204018 137.785781,82.4204018 C145.670909,80.7104686 146.268446,79.977327 146.268446,79.977327" id="path80" fill="#A3A1A1"></path>
                        <path d="M73.6237985,80.0885751 C73.7653869,79.6424872 73.8427549,79.1674917 73.8427549,78.6742919 C73.8427549,76.0903029 71.7489316,73.994204 69.163594,73.994204 C67.0273784,73.994204 65.2304694,75.4278712 64.6701837,77.3857528 C64.9496523,74.7806941 67.1541338,72.7510912 69.8338636,72.7510912 C72.7036422,72.7510912 75.0295695,75.0763442 75.0295695,77.9454486 C75.0295695,78.2275298 75.0031902,78.5040487 74.9597866,78.774668 C74.5429435,79.2556473 74.0945801,79.6915375 73.6237985,80.0885751" id="path82" fill="#A3A1A1"></path>
                        <path d="M134.081726,78.6742919 C134.081726,76.0903029 131.985711,73.994204 129.401722,73.994204 C127.266939,73.994204 125.467586,75.4278712 124.907975,77.3857528 C125.186938,74.7806941 127.391672,72.7510912 130.070896,72.7510912 C132.943119,72.7510912 135.269215,75.0763442 135.269215,77.9454486 C135.269215,80.4154927 133.54487,82.472739 131.239844,83.0011673 C131.224674,82.9952678 131.206975,82.9918966 131.19349,82.9876827 C132.887495,82.2874098 134.081726,80.6245884 134.081726,78.6742919" id="path84" fill="#A3A1A1"></path>
                        <polyline id="path86" fill="#231F20" points="174.103216 46.1400492 171.949049 46.1400492 171.752679 45.6073227 172.509503 45.6073227 171.672615 43.3371037 172.30302 43.3371037 173.140752 45.6073227 173.906004 45.6073227 174.103216 46.1400492"></polyline>
                        <path d="M175.833461,45.2080096 C175.621921,44.8909526 175.390154,44.5272051 175.19547,44.201636 L175.178614,44.201636 C175.238452,44.530492 175.284805,44.8794907 175.310932,45.1994974 L175.384254,46.1400492 L174.539781,46.1400492 L173.327008,43.3371037 L173.913589,43.3371037 L174.360267,44.4024725 C174.506069,44.7503755 174.680526,45.183653 174.833071,45.5618964 L174.841499,45.5618964 C174.776604,45.1919123 174.72098,44.7968131 174.69064,44.4629847 L174.589505,43.38253 L175.085907,43.38253 L175.829247,44.4755422 C176.058485,44.8050725 176.322278,45.2037114 176.545617,45.5618964 L176.554887,45.5618964 C176.404028,45.1497729 176.266654,44.7461616 176.154563,44.4099733 L175.805649,43.3371037 L176.420041,43.3371037 L177.304969,46.1400492 L176.473137,46.1400492 L175.833461,45.2080096" id="path88" fill="#231F20"></path>
                    </g>
                </g>
            </g>
        </g>
    </g>
</svg>