<?xml version="1.0" encoding="UTF-8"?>
<svg width="200px" height="200px" viewBox="0 0 200 200" version="1.1" xmlns="http://www.w3.org/2000/svg" xmlns:xlink="http://www.w3.org/1999/xlink">
    <!-- Generator: Sketch 54.1 (76490) - https://sketchapp.com -->
    <title>marshall</title>
    <desc>Created with Sketch.</desc>
    <g id="marshall" stroke="none" stroke-width="1" fill="none" fill-rule="evenodd">
        <g id="marshall_BGL">
            <g id="marshall" transform="translate(0.000000, 35.000000)">
                <g id="g10" transform="translate(99.999998, 65.544978) scale(-1, 1) rotate(-180.000000) translate(-99.999998, -65.544978) translate(0.000000, 0.465614)" fill-rule="nonzero">
                    <g id="g12">
                        <path d="M126.451849,123.777775 L99.6853943,79.2154478 L72.9129082,123.777775 L23.6177772,123.777775 L23.6177772,106.420103 C31.3062426,106.420103 35.5898404,100.989627 35.5898404,94.0625373 L35.5898404,79.0484636 L38.9881472,79.0484636 L38.9881472,96.8522727 C38.9881472,103.32878 33.207724,109.602114 27.2387295,109.602114 L27.2387295,119.913225 L70.8597866,119.913225 L95.3534368,79.0484636 L104.017458,79.0484636 L128.502642,119.913225 L172.123805,119.913225 L172.123805,109.602114 C166.15661,109.602114 160.373541,103.32878 160.373541,96.8522727 L160.373541,79.0484636 L163.772483,79.0484636 L163.772483,94.0625373 C163.772483,100.989627 168.058197,106.420103 175.747086,106.420103 L175.747086,123.777775 L126.451849,123.777775" id="path14" fill="#FFFFFF"></path>
                        <path d="M163.772483,39.8408456 L163.772483,50.7832792 L160.373541,50.7832792 L160.373541,36.8485705 C160.373541,30.5704754 166.15661,21.6339677 172.123805,21.6339677 L172.123805,9.46014791 L120.308992,9.46014791 L120.308992,21.6339677 C126.091002,21.6339677 132.058198,30.5704754 132.058198,36.8485705 L132.058198,50.7832792 L128.754494,50.7832792 L128.754494,39.8408456 C128.754494,31.8952373 124.023277,24.2295232 116.703701,24.2295232 L116.703701,5.77794695 L175.747086,5.77794695 L175.747086,24.2295232 C168.058197,24.2295232 163.772483,32.3685706 163.772483,39.8408456" id="path16" fill="#FFFFFF"></path>
                        <path d="M70.6097337,39.8408456 L70.6097337,50.7832792 L67.308993,50.7832792 L67.308993,36.8485705 C67.308993,30.5704754 73.2758712,21.6339677 79.0554478,21.6339677 L79.0554478,9.46014791 L27.2387295,9.46014791 L27.2387295,21.6339677 C33.207724,21.6339677 38.9881472,30.5704754 38.9881472,36.8485705 L38.9881472,50.7832792 L35.5898404,50.7832792 L35.5898404,39.8408456 C35.5898404,32.3685706 31.3062426,24.2295232 23.6177772,24.2295232 L23.6177772,5.77794695 L82.661162,5.77794695 L82.661162,24.2295232 C75.3414796,24.2295232 70.6097337,31.8952373 70.6097337,39.8408456" id="path18" fill="#FFFFFF"></path>
                        <polyline id="path20" fill="#FFFFFF" points="123.125923 50.7832792 99.6853943 12.1775658 76.2416912 50.7832792 71.871321 50.7832792 99.6853943 4.678402 127.493119 50.7832792 123.125923 50.7832792"></polyline>
                        <path d="M41.8275122,75.2042309 L33.7826447,75.2042309 C32.2664542,75.2042309 31.2004225,75.2356595 28.2597877,75.2356595 L28.2597877,69.7775644 L29.9388352,69.7775644 C29.9388352,71.7472998 30.1657135,72.5880405 34.2670891,72.5880405 L35.2042319,72.5880405 L35.2042319,58.7917446 C35.2042319,56.9212684 34.8482531,56.4075118 32.5566129,56.4075118 L32.5566129,54.5961891 L37.0457134,54.5961891 L41.6649725,54.5961891 L41.6649725,56.4075118 C39.1141789,56.5335436 39.0484646,56.9212684 39.0484646,58.7917446 L39.0484646,72.5880405 L40.1483588,72.5880405 C42.9898402,72.5880405 44.3146021,71.6530141 44.3146021,69.7775644 L45.9937555,69.7775644 L45.9937555,73.4577759 C47.819893,73.4490987 48.1911099,73.2821146 48.1911099,70.2624321 L48.1911099,60.7969297 C48.1911099,56.822115 47.8343903,56.6959774 45.7366126,56.240951 L45.7366126,54.5961891 L50.065713,54.5961891 L54.4576706,54.5961891 L54.4576706,56.240951 C52.5198929,56.5653954 52.0031733,56.822115 52.0031733,58.5031731 L52.0031733,64.3184111 L60.5960831,64.3184111 L60.5960831,58.5031731 C60.5960831,56.822115 60.0793636,56.5653954 58.1415858,56.240951 L58.1415858,54.5961891 L62.5334376,54.5961891 L66.8626438,54.5961891 L66.8626438,56.240951 C64.7614799,56.6959774 64.4080407,56.822115 64.4080407,60.7969297 L64.4080407,70.2624321 C64.4080407,73.4287812 64.7957656,73.4597865 66.8626438,73.4597865 L66.8626438,75.1728024 L62.5334376,75.1728024 L58.1415858,75.1728024 L58.1415858,73.4597865 C60.1112154,73.4287812 60.5960831,73.2344955 60.5960831,69.2935432 L60.5960831,66.9026438 L52.0031733,66.9026438 L52.0031733,69.2935432 C52.0031733,73.2344955 52.488041,73.4287812 54.4576706,73.4597865 L54.4576706,75.1728024 L50.065713,75.1728024 L45.9937555,75.1728024 L45.9937555,75.2356595 C43.7648666,75.2356595 42.7645492,75.2042309 41.8275122,75.2042309" id="path22" fill="#FFFFFF"></path>
                        <path d="M79.1703684,72.5541781 C80.9478287,72.5541781 81.979998,72.1350247 81.8518498,70.3282522 L83.5961884,70.3282522 C83.6271937,72.1350247 83.5961884,73.3944955 83.5961884,75.2042309 L76.1661357,75.2042309 L69.1245485,75.2042309 L69.1245485,73.5276172 C70.2530141,73.5276172 70.6097337,73.4287812 70.8040194,73.2344955 C71.481903,72.5223262 71.5129083,72.2027495 71.5129083,61.473226 C71.5129083,56.6959774 71.1251834,56.4661362 69.1567178,56.3401044 L69.1567178,54.5961891 C71.4496278,54.5961891 74.6792574,54.6275119 78.8479345,54.5961891 C79.7201038,54.5961891 82.0142837,54.5961891 83.5961884,54.5961891 L83.5961884,60.3104747 L81.9489927,60.3104747 C81.3021144,57.4078293 80.7543895,57.2416917 78.2671938,57.2416917 C75.7787283,57.2416917 75.5514267,57.7914271 75.5514267,58.5710038 L75.5514267,63.8652894 L79.6548128,63.8652894 C81.754707,63.8652894 81.7869821,63.7995751 81.8518498,62.3792577 L83.5961884,62.3792577 L83.5961884,67.9348131 L82.0142837,67.9348131 C81.7237017,66.224337 81.6898392,66.4521677 78.2981991,66.4521677 L75.5514267,66.4521677 L75.5514267,72.5541781 L79.1703684,72.5541781" id="path24" fill="#FFFFFF"></path>
                        <path d="M90.2183046,56.240951 L90.2183046,54.5961891 L98.9393626,54.5961891 L98.9393626,56.240951 C97.0014791,56.5653954 96.4847595,56.822115 96.4847595,58.5031731 L96.4847595,64.3184111 L105.076505,64.3184111 L105.076505,58.5031731 C105.076505,56.822115 104.561796,56.5653954 102.624442,56.240951 L102.624442,54.5961891 L107.013754,54.5961891 L111.344971,54.5961891 L111.344971,56.240951 C109.2455,56.6959774 108.888886,56.822115 108.888886,60.7969297 L108.888886,70.2624321 C108.888886,73.4287812 109.276188,73.4597865 111.344971,73.4597865 L111.344971,75.1728024 L107.013754,75.1728024 L102.624442,75.1728024 L102.624442,73.4597865 C104.594071,73.4287812 105.076505,73.2344955 105.076505,69.2935432 L105.076505,66.9026438 L96.4847595,66.9026438 L96.4847595,69.2935432 C96.4847595,73.2344955 96.9696272,73.4287812 98.9393626,73.4597865 L98.9393626,75.1728024 L94.547405,75.1728024 L90.2183046,75.1728024 L90.2183046,73.4597865 C92.2850771,73.4597865 92.6728019,73.4287812 92.6728019,70.2624321 L92.6728019,60.7969297 C92.6728019,56.822115 92.3180929,56.6959774 90.2183046,56.240951" id="path26" fill="#FFFFFF"></path>
                        <path d="M123.652907,72.5541781 C125.428568,72.5541781 126.464547,72.1350247 126.334388,70.3282522 L128.079362,70.3282522 C128.11005,72.1350247 128.079362,73.3944955 128.079362,75.2042309 L120.646558,75.2042309 L113.607405,75.2042309 L113.607405,73.5276172 C114.738621,73.5276172 115.089944,73.4287812 115.284653,73.2344955 C115.964018,72.5223262 115.996822,72.2027495 115.996822,61.473226 C115.996822,56.6959774 115.608463,56.4661362 113.639151,56.3401044 L113.639151,54.5961891 C115.93333,54.5961891 119.164018,54.6275119 123.328039,54.5961891 C124.203171,54.5961891 126.497351,54.5961891 128.079362,54.5961891 L128.079362,60.3104747 L126.429626,60.3104747 C125.785182,57.4078293 125.234918,57.2416917 122.748145,57.2416917 C120.259256,57.2416917 120.033859,57.7914271 120.033859,58.5710038 L120.033859,63.8652894 L124.135447,63.8652894 C126.234917,63.8652894 126.271955,63.7995751 126.334388,62.3792577 L128.079362,62.3792577 L128.079362,67.9348131 L126.497351,67.9348131 C126.203171,66.224337 126.172484,66.4521677 122.778833,66.4521677 L120.033859,66.4521677 L120.033859,72.5541781 L123.652907,72.5541781" id="path28" fill="#FFFFFF"></path>
                        <path d="M135.055023,70.9408448 C135.055023,71.1003157 135.118515,72.2970352 135.154494,73.0720617 C135.767192,73.1713209 136.479362,73.2031728 136.637034,73.2031728 C138.705817,73.2031728 140.517457,72.0403157 140.517457,69.0996808 C140.517457,65.7060301 138.899467,64.9648661 136.704758,64.9648661 L135.635975,64.9648661 C135.443383,64.9648661 135.248674,64.9648661 135.055023,64.9648661 L135.055023,70.9408448 Z M128.69206,56.240951 L128.69206,54.5961891 L137.349203,54.5961891 L137.349203,56.3401044 C135.348145,56.4343901 135.055023,57.4355541 135.055023,58.5395753 L135.055023,62.6359773 L137.025393,62.6359773 C137.447616,62.6359773 137.768251,62.703808 138.093118,62.703808 C139.611637,59.9540726 141.806346,56.7588346 142.7746,55.790369 C143.617986,54.9160833 144.619044,54.2084643 146.331213,54.2084643 C147.105816,54.2084643 147.881478,54.338623 149.300525,54.6589404 L149.33333,56.2722737 C148.012695,56.2722737 147.331213,56.4343901 146.16825,57.5975647 C145.198938,58.5710038 143.35661,61.2160831 141.743912,64.0274058 C143.743912,65.512591 144.649732,67.9030671 144.649732,69.7126967 C144.649732,75.1389399 139.318515,75.5915325 136.735446,75.5915325 C134.505817,75.5915325 130.886769,75.3348129 128.754494,75.2042309 L128.754494,73.4597865 C130.886769,73.4597865 131.211637,72.9100511 131.211637,70.2938607 L131.211637,58.9268768 C131.211637,57.6962949 131.116399,56.502115 128.69206,56.240951 L128.69206,56.240951 Z" id="path30" fill="#FFFFFF"></path>
                        <path d="M155.795763,72.5223262 C156.795763,72.8133315 157.733329,72.9757654 158.958726,72.9757654 C163.064546,72.9757654 166.877245,70.3282522 166.877245,64.5122735 C166.877245,60.0897339 165.065604,57.1151308 159.445499,57.1151308 C158.120631,57.1151308 156.863488,57.30857 156.313224,57.8584113 C155.95661,58.2151308 155.795763,58.9537551 155.795763,62.5099455 L155.795763,72.5223262 Z M151.983065,59.9540726 C151.983065,57.1465594 151.337562,56.3401044 149.431742,56.3401044 L149.431742,54.5961891 L160.058197,54.5961891 C168.071953,54.5961891 171.10899,60.5402101 171.10899,64.8024322 C171.10899,68.7752364 169.716398,75.6233844 158.670896,75.6233844 C156.313224,75.6233844 152.757668,75.2690986 149.33333,75.2356595 L149.33333,73.5276172 C150.399996,73.4916384 150.724864,73.4597865 151.4328,72.7819029 C152.049732,72.1664532 151.983065,67.5806332 151.983065,66.5467708 L151.983065,59.9540726 L151.983065,59.9540726 Z" id="path32" fill="#FFFFFF"></path>
                        <path d="M38.9881472,96.8522727 L38.9881472,79.0484636 L95.3534368,79.0484636 L70.8597866,119.913225 L27.2387295,119.913225 L27.2387295,109.602114 C33.207724,109.602114 38.9881472,103.32878 38.9881472,96.8522727" id="path34" fill="#0DAA4C"></path>
                        <path d="M67.308993,36.8485705 L67.308993,50.7832792 L38.9881472,50.7832792 L38.9881472,36.8485705 C38.9881472,30.5704754 33.207724,21.6339677 27.2387295,21.6339677 L27.2387295,9.46014791 L79.0554478,9.46014791 L79.0554478,21.6339677 C73.2758712,21.6339677 67.308993,30.5704754 67.308993,36.8485705" id="path36" fill="#0DAA4C"></path>
                        <path d="M160.373541,36.8485705 L160.373541,50.7832792 L132.058198,50.7832792 L132.058198,36.8485705 C132.058198,30.5704754 126.091002,21.6339677 120.308992,21.6339677 L120.308992,9.46014791 L172.123805,9.46014791 L172.123805,21.6339677 C166.15661,21.6339677 160.373541,30.5704754 160.373541,36.8485705" id="path38" fill="#0DAA4C"></path>
                        <path d="M128.502642,119.913225 L104.017458,79.0484636 L160.373541,79.0484636 L160.373541,96.8522727 C160.373541,103.32878 166.15661,109.602114 172.123805,109.602114 L172.123805,119.913225 L128.502642,119.913225" id="path40" fill="#0DAA4C"></path>
                        <polygon id="path42" fill="#0DAA4C" points="76.2416912 50.7832792 99.6853943 12.1775658 123.125923 50.7832792"></polygon>
                        <path d="M160.058197,54.5961891 L149.431742,54.5961891 L149.431742,56.3401044 C151.337562,56.3401044 151.983065,57.1465594 151.983065,59.9540726 L151.983065,66.5467708 C151.983065,67.5806332 152.049732,72.1664532 151.4328,72.7819029 C150.724864,73.4597865 150.399996,73.4916384 149.33333,73.5276172 L149.33333,75.2356595 C152.757668,75.2690986 156.313224,75.6233844 158.670896,75.6233844 C169.716398,75.6233844 171.10899,68.7752364 171.10899,64.8024322 C171.10899,60.5402101 168.071953,54.5961891 160.058197,54.5961891 L160.058197,54.5961891 Z M175.747086,24.2295232 L175.747086,5.77794695 L116.703701,5.77794695 L116.703701,24.2295232 C124.023277,24.2295232 128.754494,31.8952373 128.754494,39.8408456 L128.754494,50.7832792 L132.058198,50.7832792 L160.373541,50.7832792 L163.772483,50.7832792 L163.772483,39.8408456 C163.772483,32.3685706 168.058197,24.2295232 175.747086,24.2295232 Z M99.6853943,4.678402 L71.871321,50.7832792 L127.493119,50.7832792 L99.6853943,4.678402 Z M82.661162,5.77794695 L23.6177772,5.77794695 L23.6177772,24.2295232 C31.3062426,24.2295232 35.5898404,32.3685706 35.5898404,39.8408456 L35.5898404,50.7832792 L38.9881472,50.7832792 L67.308993,50.7832792 L70.6097337,50.7832792 L70.6097337,39.8408456 C70.6097337,31.8952373 75.3414796,24.2295232 82.661162,24.2295232 L82.661162,5.77794695 Z M29.9388352,69.7775644 L28.2597877,69.7775644 L28.2597877,75.2356595 C31.2004225,75.2356595 32.2664542,75.2042309 33.7826447,75.2042309 L41.8275122,75.2042309 C42.7645492,75.2042309 43.7648666,75.2356595 45.9937555,75.2356595 L45.9937555,75.1728024 L50.065713,75.1728024 L54.4576706,75.1728024 L54.4576706,73.4597865 C52.488041,73.4287812 52.0031733,73.2344955 52.0031733,69.2935432 L52.0031733,66.9026438 L60.5960831,66.9026438 L60.5960831,69.2935432 C60.5960831,73.2344955 60.1112154,73.4287812 58.1415858,73.4597865 L58.1415858,75.1728024 L62.5334376,75.1728024 L66.8626438,75.1728024 L66.8626438,73.4597865 C64.7957656,73.4597865 64.4080407,73.4287812 64.4080407,70.2624321 L64.4080407,60.7969297 C64.4080407,56.822115 64.7614799,56.6959774 66.8626438,56.240951 L66.8626438,54.5961891 L62.5334376,54.5961891 L58.1415858,54.5961891 L58.1415858,56.240951 C60.0793636,56.5653954 60.5960831,56.822115 60.5960831,58.5031731 L60.5960831,64.3184111 L52.0031733,64.3184111 L52.0031733,58.5031731 C52.0031733,56.822115 52.5198929,56.5653954 54.4576706,56.240951 L54.4576706,54.5961891 L50.065713,54.5961891 L45.7366126,54.5961891 L45.7366126,56.240951 C47.8343903,56.6959774 48.1911099,56.822115 48.1911099,60.7969297 L48.1911099,70.2624321 C48.1911099,73.2821146 47.819893,73.4490987 45.9937555,73.4577759 L45.9937555,69.7775644 L44.3146021,69.7775644 C44.3146021,71.6530141 42.9898402,72.5880405 40.1483588,72.5880405 L39.0484646,72.5880405 L39.0484646,58.7917446 C39.0484646,56.9212684 39.1141789,56.5335436 41.6649725,56.4075118 L41.6649725,54.5961891 L37.0457134,54.5961891 L32.5566129,54.5961891 L32.5566129,56.4075118 C34.8482531,56.4075118 35.2042319,56.9212684 35.2042319,58.7917446 L35.2042319,72.5880405 L34.2670891,72.5880405 C30.1657135,72.5880405 29.9388352,71.7472998 29.9388352,69.7775644 L29.9388352,69.7775644 Z M78.2981991,66.4521677 C81.6898392,66.4521677 81.7237017,66.224337 82.0142837,67.9348131 L83.5961884,67.9348131 L83.5961884,62.3792577 L81.8518498,62.3792577 C81.7869821,63.7995751 81.754707,63.8652894 79.6548128,63.8652894 L75.5514267,63.8652894 L75.5514267,58.5710038 C75.5514267,57.7914271 75.7787283,57.2416917 78.2671938,57.2416917 C80.7543895,57.2416917 81.3021144,57.4078293 81.9489927,60.3104747 L83.5961884,60.3104747 L83.5961884,54.5961891 C82.0142837,54.5961891 79.7201038,54.5961891 78.8479345,54.5961891 C74.6792574,54.6275119 71.4496278,54.5961891 69.1567178,54.5961891 L69.1567178,56.3401044 C71.1251834,56.4661362 71.5129083,56.6959774 71.5129083,61.473226 C71.5129083,72.2027495 71.481903,72.5223262 70.8040194,73.2344955 C70.6097337,73.4287812 70.2530141,73.5276172 69.1245485,73.5276172 L69.1245485,75.2042309 L76.1661357,75.2042309 L83.5961884,75.2042309 C83.5961884,73.3944955 83.6271937,72.1350247 83.5961884,70.3282522 L81.8518498,70.3282522 C81.979998,72.1350247 80.9478287,72.5541781 79.1703684,72.5541781 L75.5514267,72.5541781 L75.5514267,66.4521677 L78.2981991,66.4521677 Z M111.344971,56.240951 L111.344971,54.5961891 L102.624442,54.5961891 L102.624442,56.240951 C104.561796,56.5653954 105.076505,56.822115 105.076505,58.5031731 L105.076505,64.3184111 L96.4847595,64.3184111 L96.4847595,58.5031731 C96.4847595,56.822115 97.0014791,56.5653954 98.9393626,56.240951 L98.9393626,54.5961891 L94.547405,54.5961891 L90.2183046,54.5961891 L90.2183046,56.240951 C92.3180929,56.6959774 92.6728019,56.822115 92.6728019,60.7969297 L92.6728019,70.2624321 C92.6728019,73.4287812 92.2850771,73.4597865 90.2183046,73.4597865 L90.2183046,75.1728024 L94.547405,75.1728024 L98.9393626,75.1728024 L98.9393626,73.4597865 C96.9696272,73.4287812 96.4847595,73.2344955 96.4847595,69.2935432 L96.4847595,66.9026438 L105.076505,66.9026438 L105.076505,69.2935432 C105.076505,73.2344955 104.594071,73.4287812 102.624442,73.4597865 L102.624442,75.1728024 L107.013754,75.1728024 L111.344971,75.1728024 L111.344971,73.4597865 C109.276188,73.4597865 108.888886,73.4287812 108.888886,70.2624321 L108.888886,60.7969297 C108.888886,56.822115 109.2455,56.6959774 111.344971,56.240951 Z M122.778833,66.4521677 C126.172484,66.4521677 126.203171,66.224337 126.497351,67.9348131 L128.079362,67.9348131 L128.079362,62.3792577 L126.334388,62.3792577 C126.271955,63.7995751 126.234917,63.8652894 124.135447,63.8652894 L120.033859,63.8652894 L120.033859,58.5710038 C120.033859,57.7914271 120.259256,57.2416917 122.748145,57.2416917 C125.234918,57.2416917 125.785182,57.4078293 126.429626,60.3104747 L128.079362,60.3104747 L128.079362,54.5961891 C126.497351,54.5961891 124.203171,54.5961891 123.328039,54.5961891 C119.164018,54.6275119 115.93333,54.5961891 113.639151,54.5961891 L113.639151,56.3401044 C115.608463,56.4661362 115.996822,56.6959774 115.996822,61.473226 C115.996822,72.2027495 115.964018,72.5223262 115.284653,73.2344955 C115.089944,73.4287812 114.738621,73.5276172 113.607405,73.5276172 L113.607405,75.2042309 L120.646558,75.2042309 L128.079362,75.2042309 C128.079362,73.3944955 128.11005,72.1350247 128.079362,70.3282522 L126.334388,70.3282522 C126.464547,72.1350247 125.428568,72.5541781 123.652907,72.5541781 L120.033859,72.5541781 L120.033859,66.4521677 L122.778833,66.4521677 Z M137.349203,56.3401044 L137.349203,54.5961891 L128.69206,54.5961891 L128.69206,56.240951 C131.116399,56.502115 131.211637,57.6962949 131.211637,58.9268768 L131.211637,70.2938607 C131.211637,72.9100511 130.886769,73.4597865 128.754494,73.4597865 L128.754494,75.2042309 C130.886769,75.3348129 134.505817,75.5915325 136.735446,75.5915325 C139.318515,75.5915325 144.649732,75.1389399 144.649732,69.7126967 C144.649732,67.9030671 143.743912,65.512591 141.743912,64.0274058 C143.35661,61.2160831 145.198938,58.5710038 146.16825,57.5975647 C147.331213,56.4343901 148.012695,56.2722737 149.33333,56.2722737 L149.300525,54.6589404 C147.881478,54.338623 147.105816,54.2084643 146.331213,54.2084643 C144.619044,54.2084643 143.617986,54.9160833 142.7746,55.790369 C141.806346,56.7588346 139.611637,59.9540726 138.093118,62.703808 C137.768251,62.703808 137.447616,62.6359773 137.025393,62.6359773 L135.055023,62.6359773 L135.055023,58.5395753 C135.055023,57.4355541 135.348145,56.4343901 137.349203,56.3401044 L137.349203,56.3401044 Z M23.6177772,106.420103 L23.6177772,123.777775 L72.9129082,123.777775 L99.6853943,79.2154478 L126.451849,123.777775 L175.747086,123.777775 L175.747086,106.420103 C168.058197,106.420103 163.772483,100.989627 163.772483,94.0625373 L163.772483,79.0484636 L160.373541,79.0484636 L104.017458,79.0484636 L95.3534368,79.0484636 L38.9881472,79.0484636 L35.5898404,79.0484636 L35.5898404,94.0625373 C35.5898404,100.989627 31.3062426,106.420103 23.6177772,106.420103 L23.6177772,106.420103 Z M169.027509,79.0484636 L169.027509,88.954601 C169.027509,96.5860293 168.977774,101.514601 181.146027,101.514601 L181.146027,129.828568 L123.076187,129.828568 L99.6853943,91.0458178 L76.2880404,129.828568 L18.2164017,129.828568 L18.2164017,101.514601 C30.3864543,101.514601 30.3369305,96.5860293 30.3369305,88.954601 L30.3369305,79.0484636 L0,79.0484636 L0,50.7832792 L30.3369305,50.7832792 L30.3369305,45.1632793 C30.3369305,37.7678297 30.3864543,29.0562956 18.2164017,29.0562956 L18.2164017,0.00124008463 L88.1184105,0.00124008463 L88.1184105,13.1014812 L95.9899447,0.00124008463 L103.37259,0.00124008463 L111.2455,13.1014812 L111.2455,0.00124008463 L181.146027,0.00124008463 L181.146027,29.0562956 C168.977774,29.0562956 169.027509,37.7678297 169.027509,45.1632793 L169.027509,50.7832792 L199.367191,50.7832792 L199.367191,79.0484636 L169.027509,79.0484636 L169.027509,79.0484636 Z" id="path44" fill="#231F20"></path>
                        <polyline id="path46" fill="#231F20" points="183.983064 6.90062417 186.265604 6.90062417 186.265604 0.00124008463 187.094175 0.00124008463 187.094175 6.90062417 189.501583 6.90062417 189.501583 7.73024319 183.983064 7.73024319 183.983064 6.90062417"></polyline>
                        <polyline id="path48" fill="#231F20" points="193.915339 1.4434497 191.934387 7.73024319 190.606344 7.73024319 190.606344 0.00124008463 191.432799 0.00124008463 191.432799 6.56828555 193.503699 0.00124008463 194.328037 0.00124008463 196.398937 6.56828555 196.398937 0.00124008463 197.225392 0.00124008463 197.225392 7.73024319 195.89735 7.73024319 193.915339 1.4434497"></polyline>
                        <path d="M158.958726,72.9757654 C157.733329,72.9757654 156.795763,72.8133315 155.795763,72.5223262 L155.795763,62.5099455 C155.795763,58.9537551 155.95661,58.2151308 156.313224,57.8584113 C156.863488,57.30857 158.120631,57.1151308 159.445499,57.1151308 C165.065604,57.1151308 166.877245,60.0897339 166.877245,64.5122735 C166.877245,70.3282522 163.064546,72.9757654 158.958726,72.9757654" id="path50" fill="#231F20"></path>
                        <path d="M136.704758,64.9648661 C138.899467,64.9648661 140.517457,65.7060301 140.517457,69.0996808 C140.517457,72.0403157 138.705817,73.2031728 136.637034,73.2031728 C136.479362,73.2031728 135.767192,73.1713209 135.154494,73.0720617 C135.118515,72.2970352 135.055023,71.1003157 135.055023,70.9408448 L135.055023,64.9648661 C135.248674,64.9648661 135.443383,64.9648661 135.635975,64.9648661 L136.704758,64.9648661" id="path52" fill="#231F20"></path>
                        <polyline id="path54" fill="#231F20" points="180.812694 52.2358717 16.5467721 52.2358717 16.5467721 77.5748129 180.812694 77.5748129 180.812694 52.2358717"></polyline>
                        <path d="M73.9310034,74.2976701 L41.8832794,74.2976701 C41.8365069,74.2542839 43.8206338,73.0100511 42.7782,72.535977 C41.8088878,71.9266649 40.9148138,71.8585167 37.6351313,69.6226438 C37.6918509,69.61312 42.7782,69.8263475 43.5230677,69.8263475 L50.901586,70.1649718 C50.0066654,67.5897338 49.4853956,65.6928026 48.5908983,63.5247603 C47.9253956,61.669099 47.3768242,60.1450779 45.9495227,56.6029615 C44.4717449,52.9381997 47.1003163,52.6843373 49.1873004,56.2078293 C53.0625384,62.5086757 54.5535436,65.0153423 57.8328028,70.3005273 C59.5821149,70.4811623 61.186771,70.5708977 62.4533318,70.7064533 C63.3788344,70.9718501 71.4715326,73.6197865 73.9310034,74.2976701" id="path56" fill="#FFFFFF"></path>
                        <path d="M74.3121675,72.535977 C73.2903685,70.377776 73.5160828,70.9135432 71.5761887,66.9130142 L67.3726967,66.9130142 C67.3726967,66.9130142 68.7888872,69.9615856 69.3849718,71.1135432 C67.495448,70.5039136 66.7269825,70.3005273 64.4659243,69.5543898 C63.7975645,68.1340724 63.8240196,68.1485697 63.1452894,66.9130142 L58.5651837,66.9130142 C58.5651837,66.9130142 60.4616916,66.0234904 61.8130143,64.0868767 C61.2119561,62.5310037 60.1103689,60.4468768 58.9835964,58.1043372 L63.155554,58.1043372 C63.8984111,59.5758715 64.946665,61.8150249 65.8135433,63.7197868 C66.7456068,63.7197868 68.4110036,63.7197868 70.124866,63.7197868 C68.8839136,61.1664535 68.4548131,60.2112154 67.506665,58.1043372 L71.5666649,58.1043372 C73.9153421,62.8311095 75.8003156,66.5521676 78.6540721,72.535977 L74.3121675,72.535977" id="path58" fill="#FFFFFF"></path>
                        <path d="M78.4684636,67.6417973 C77.2180933,64.8656068 77.2230669,65.0475116 75.713014,61.898517 C75.0421145,60.2723794 75.2658182,58.1043372 78.842961,58.1043372 C84.0604212,58.1043372 84.7267704,58.1043372 84.7267704,58.1043372 C86.145818,58.1043372 88.0026433,61.6278291 88.0088867,61.6278291 C86.7638074,61.6278291 83.2039133,61.6278291 81.8245482,61.6278291 C81.078834,61.6278291 80.3339662,62.1023265 80.7043366,63.0757656 C80.9367176,63.5946016 81.3715324,64.2997868 81.3715324,64.3720619 C83.1051831,64.3720619 85.0979873,64.7111095 86.4393629,65.3203158 C88.6755533,66.4723793 89.4949184,67.0481465 89.4949184,67.0481465 L82.2714265,67.0481465 C82.712908,67.8947073 83.6173524,69.4915327 83.6173524,69.6226438 C85.7105799,69.5845485 87.9712147,69.6226438 90.3207385,69.6226438 C90.9495215,70.7002099 91.3157649,71.3657125 91.9171406,72.5338606 L80.8097334,72.5338606 C80.1615853,71.2632786 79.0881462,68.912485 78.4684636,67.6417973" id="path60" fill="#FFFFFF"></path>
                        <path d="M159.930155,69.0803157 C158.557668,71.9138606 156.427509,72.535977 153.22116,72.7021146 L145.546028,72.7021146 C148.376716,71.9940723 147.271954,69.6094162 147.42116,69.6094162 C152.328039,69.6094162 154.936504,70.0971411 156.053964,67.7934375 C156.87407,66.2351306 156.053964,64.5411624 155.010578,63.0501572 C153.668779,61.8316387 151.954494,61.6278291 148.52698,61.6278291 C149.122748,62.7120619 150.348144,65.6419031 150.97989,67.1044428 C151.008462,67.1684639 149.129097,67.1498396 149.122748,67.1155539 L146.736504,67.1135433 C146.045499,65.7101571 144.247615,61.9907921 143.143912,59.7317445 C141.707933,60.7960831 140.372483,62.0122736 139.584123,63.2539667 C138.931213,65.1326968 140.626452,65.0153423 141.74497,65.6249719 C143.308991,66.2351306 144.204229,67.8612681 144.130155,69.6226438 C144.093118,70.4737549 143.278303,72.5678289 140.403171,72.697141 L133.102642,72.697141 C131.662431,69.8929083 131.071954,68.4011623 130.026452,66.2342841 C128.221161,62.4412683 128.235976,61.6278291 125.687828,61.6278291 L120.648674,61.6278291 L119.516399,61.9002101 C119.217986,62.2710037 120.247616,63.9318503 120.59259,64.6804217 C123.129097,64.9512153 122.862431,64.8830672 124.873013,65.5609507 C126.736505,66.238411 129.34497,67.0398925 127.305817,67.0398925 C126.83915,67.078411 125.847616,67.0671941 125.349203,67.0398925 L121.394706,67.0398925 C121.886769,67.9968237 122.591531,69.6226438 122.591531,69.6226438 L128.861372,69.6226438 C128.779891,69.5481464 130.276187,72.535977 130.331214,72.697141 L119.687828,72.697141 C118.99259,70.9420088 117.916399,68.771956 117.096293,67.0398925 L114.243383,67.0398925 C115.332272,69.3158713 115.78624,70.3087813 116.801055,72.535977 C118.146029,75.1979875 111.810579,74.8391516 111.146029,72.470686 C110.401055,70.3679347 110.177775,69.6226438 109.133331,67.0398925 L104.762325,67.0398925 C105.470368,68.5759771 105.892061,69.4956596 107.330156,72.535977 C107.330156,72.535977 102.74222,72.535977 100.152484,72.535977 C102.686452,72.1213739 100.828357,68.6739665 100.306347,67.0398925 C100.306347,67.0398925 93.94804,67.1019031 94.1204209,67.0398925 C96.7670875,66.0999983 96.9986219,64.9888873 96.8039129,62.6442312 C97.3995743,62.7149191 98.4805266,62.8471942 98.8157647,62.8471942 C98.7412674,62.4069826 98.1258177,61.2037022 97.2507912,58.3758716 C95.6212675,54.9999986 98.8901563,54.5481468 100.45513,57.9356599 C101.200844,59.3580938 101.721267,60.6452895 102.840209,63.0501572 C105.29968,63.3217974 106.584124,63.3932259 108.01587,63.5929085 C107.419045,61.6278291 106.12804,58.6086758 105.407193,56.4786229 C105.109521,55.5980938 104.926876,54.5134378 105.034283,54.3104748 C105.375341,53.429205 107.067722,52.2482527 108.494177,55.1914272 C111.28042,60.9606334 110.355553,59.2220091 112.768251,64.0046545 C114.039151,64.1166122 114.838092,64.1844428 115.808463,64.3199984 C115.285711,62.9642312 115.040209,62.8013741 114.593648,61.8522736 C113.772484,59.9537551 115.785182,58.1911097 116.915341,58.205607 C117.798939,58.205607 118.170367,58.1468769 118.32169,58.1229615 L123.431743,58.1229615 C124.065605,58.1683583 126.876187,58.1162948 127.882536,58.1911097 C130.267722,58.1911097 131.25079,59.5895223 132.256081,61.9485699 C132.256081,61.9485699 134.611637,66.6029613 136.086769,69.6226438 C136.905817,69.6226438 137.75661,69.6275115 138.838092,69.6226438 C140.030684,69.6226438 140.023277,69.0326967 140.105817,68.5387284 C139.657139,67.0481465 137.822219,67.1577761 136.59788,66.7369295 C135.3746,66.0209507 134.96296,64.3377762 135.497351,63.143173 C136.912166,60.3501572 138.179891,59.9590461 140.626452,58.1043372 C141.606346,57.5173531 143.53333,56.5459245 144.651848,56.2752367 C147.004229,55.5340727 150.041266,55.2749193 148.708991,56.4777764 C147.990472,56.7741785 146.841266,57.3512155 145.578832,58.109734 L149.719573,58.1184112 C156.128038,58.1043372 161.941795,61.695554 159.930155,69.0803157" id="path62" fill="#FFFFFF"></path>
                    </g>
                </g>
            </g>
        </g>
    </g>
</svg>