<?xml version="1.0" encoding="UTF-8"?>
<svg width="200px" height="200px" viewBox="0 0 200 200" version="1.1" xmlns="http://www.w3.org/2000/svg" xmlns:xlink="http://www.w3.org/1999/xlink">
    <!-- Generator: Sketch 54.1 (76490) - https://sketchapp.com -->
    <title>mcneese-st</title>
    <desc>Created with Sketch.</desc>
    <g id="mcneese-st" stroke="none" stroke-width="1" fill="none" fill-rule="evenodd">
        <g id="mcneese-st_BGL" transform="translate(-0.000000, 0.000000)">
            <g id="mcneese-st" transform="translate(8.000000, 0.000000)">
                <g id="g10" transform="translate(91.737889, 99.854270) scale(-1, 1) rotate(-180.000000) translate(-91.737889, -99.854270) translate(0.000000, 0.598689)" fill-rule="nonzero">
                    <g id="g12">
                        <path d="M141.40321,117.004999 C144.426891,116.864256 146.248019,116.124828 147.742036,115.488332 C153.248406,113.14401 150.87056,111.634695 151.956737,107.127756 C151.231221,107.439702 142.278652,116.156338 141.40321,117.004999 Z M141.044646,92.1827015 C141.899119,90.1797344 142.008156,88.1410563 141.019484,86.8314078 C139.278036,84.5165996 132.853239,81.9104316 131.591974,80.503208 C128.141581,80.1450477 126.579416,77.0264268 126.579416,77.0264268 C126.325695,77.0526849 125.947211,77.0855601 125.440817,77.0642385 L125.440817,81.6236933 C127.050162,83.1438266 128.088111,85.2087628 128.088111,85.2087628 C131.7419,86.3521451 130.134652,88.5853431 136.536384,94.6148308 C138.45921,94.1114107 140.448088,93.5821527 141.044646,92.1827015 L141.044646,92.1827015 Z M120.806743,88.6378593 L120.807792,100.409256 L121.855176,101.402232 C126.191495,100.293195 130.180783,98.2943245 131.048886,97.3966129 C130.58443,95.0312841 128.099644,93.3840616 127.383564,92.5819295 C127.383564,92.5819295 126.564738,90.8993111 124.97741,90.723802 C123.767518,90.5891505 123.446698,89.0022166 120.806743,88.6378593 L120.806743,88.6378593 Z M122.325927,75.6011377 L110.084419,75.6011377 C109.48157,75.6011377 108.78541,75.7147827 107.570277,76.7228833 C106.356191,75.7147827 105.660032,75.6011377 105.057183,75.6011377 L92.818719,75.6011377 L92.818719,83.2299531 C93.697935,83.5089191 97.4526882,84.0151751 97.4526882,87.5789231 L97.4526882,106.632003 L82.53097,85.5374091 L67.607155,106.632003 L67.607155,87.5789231 C67.607155,84.0151751 71.3626421,83.5089191 72.243221,83.2299531 L72.243221,75.6011377 L60.0019267,75.6011377 C59.3999165,75.6011377 58.7044908,75.7147827 57.489357,76.7228833 C56.2738037,75.7147827 55.5776442,75.6011377 54.9747952,75.6011377 L42.7314034,75.6011377 L42.7314041,83.2833096 C44.1197391,83.7107913 47.3653732,84.0373369 47.3653732,87.5789231 L47.3633812,100.409256 C47.3633812,102.139454 46.2657766,102.939486 46.2657766,102.939486 L43.91173,104.839101 L46.3005846,106.907188 C46.3005846,106.907188 47.3633812,107.677075 47.3633812,109.408009 L47.3653732,122.161038 C47.3653732,126.076644 42.729412,126.456861 42.7314041,126.456861 L42.7314034,134.138969 L53.4000488,134.125274 C54.1741069,134.044399 54.8989935,133.682037 55.5480784,133.185234 C57.0081262,134.160985 57.9583211,134.138928 57.9583211,134.138928 L64.2468223,134.138928 C66.1799231,134.120022 66.9497875,133.26716 67.4514627,132.625412 L82.53097,111.310145 L97.6082756,132.625412 C97.8753115,132.967817 98.2173104,133.367991 98.7714072,133.671534 C99.2575656,133.938316 99.9079086,134.129475 100.813021,134.138928 L107.101627,134.138928 C107.101627,134.138928 108.053604,134.160985 109.509878,133.185234 C110.289912,133.780768 110.723963,134.002386 111.911838,134.125274 L122.325927,134.138969 L122.325923,126.456861 C122.331165,126.456861 117.693946,126.076644 117.693946,122.161038 L117.693946,109.408009 C117.693946,107.673924 118.757057,106.907188 118.757057,106.907188 L121.146436,104.839101 L118.7948,102.939486 C118.7948,102.939486 117.693946,102.140715 117.693946,100.409256 L117.693946,87.5789231 C117.693946,84.0373369 120.938846,83.7107913 122.325923,83.2833096 L122.325927,75.6011377 Z M80.1453655,151.550143 C82.2811284,151.207737 82.7110908,150.056582 86.22093,149.538773 C86.6877973,149.469452 87.2857186,148.471644 88.1998474,148.267881 C88.9608001,148.471644 90.6849482,147.505346 91.091216,146.64198 C87.0523374,146.806881 82.9875626,144.687328 81.4640846,143.763043 C75.0063662,148.251076 78.9871616,147.87401 76.9897918,152.282218 C76.9897918,152.282218 78.8397519,151.759157 80.1453655,151.550143 L80.1453655,151.550143 Z M175.713181,97.9237703 C175.98158,99.1649377 175.140736,100.385519 174.329249,100.733386 C173.731642,103.937713 173.32485,105.610038 173.073226,106.802156 C174.024155,110.981393 172.445215,113.803613 173.998993,114.365536 C177.269055,115.545049 179.001067,119.178119 179.001067,119.178119 C179.001067,119.178119 175.083073,117.615237 172.644417,119.547833 C170.387141,121.340735 169.095472,121.073953 169.095472,121.073953 C169.234913,125.299405 165.963802,126.06404 167.355073,131.206425 C165.043278,130.027962 164.521158,125.675421 164.521158,125.675421 C164.285261,138.62276 159.470856,141.459684 159.470856,141.459684 C159.640703,136.836159 156.427255,136.084128 156.427255,136.084128 C155.489956,137.774098 156.633797,144.055033 164.288406,144.423697 C164.288406,144.423697 156.314025,150.111199 151.481797,144.976167 C152.18215,148.897025 151.840361,150.687827 150.390378,151.994429 C150.748942,149.863323 147.345729,149.016762 147.345729,149.016762 C147.054264,151.775962 147.829056,156.358524 155.45431,157.938211 C153.783107,159.152385 146.330845,159.837196 142.633022,156.568589 C142.061626,159.00744 143.93937,160.781437 143.93937,160.781437 C139.674344,159.384506 139.783381,156.966661 138.234846,158.304774 C136.685262,159.641836 135.644168,159.375053 135.644168,159.375053 C136.208225,158.174534 136.816316,154.839756 132.558629,153.741118 C130.160863,153.120376 131.891826,156.611652 133.052441,157.264953 C128.338686,156.611652 124.250846,151.790667 122.694971,147.833047 C120.761661,147.333093 117.553456,147.591473 116.522846,147.956986 C114.476305,148.681709 111.054219,149.533521 108.234983,149.284595 C104.949194,148.993655 104.804825,150.186823 105.040408,150.86008 C105.275257,151.533337 104.912499,152.530095 103.462726,152.505937 C102.549436,152.489132 102.178815,153.363001 100.352235,153.464883 C96.1941492,153.695954 94.1742381,152.282218 93.4248182,152.282218 C92.409935,152.282218 90.9962279,152.949174 90.1770872,153.755822 C89.2257391,154.695862 83.9897597,157.261802 82.5185985,158.684991 C81.2245176,159.935926 80.0847661,158.380397 78.5121166,159.955882 C76.0416938,162.430445 71.7087298,164.706496 69.7367322,165.59612 C68.7219538,166.053011 66.4878479,167.677862 66.3383414,168.592693 C65.6769898,172.651144 63.608746,171.634431 63.3569124,173.487201 C63.2639164,174.177264 64.2058286,174.249736 65.2481807,174.340064 C65.8399163,174.39153 67.304053,174.643608 67.0563083,176.382944 C66.9662479,177.018389 67.501473,178.099172 67.501473,178.099172 C68.2775231,178.296633 68.2460701,178.398515 68.4241989,179.662054 C68.6453134,181.233338 70.9285908,180.195618 72.3640005,179.740828 C75.9168255,178.616982 75.9843445,179.087527 76.2002169,179.948792 C77.6991616,185.926184 68.2263595,188.60871 68.1640826,188.615012 C68.1640826,188.615012 68.5110091,191.344803 68.4385624,192.486505 C68.3861407,193.305758 67.8671664,194.067242 65.8263915,194.231093 C63.4933135,194.41595 61.5876817,196.843247 56.4552875,194.220589 C55.5050926,193.73534 55.3740385,189.590763 54.6499907,188.727397 C47.8875977,188.189631 45.7170268,184.105973 46.3177789,183.012586 C46.8166233,182.104056 50.6753811,182.324624 51.8426016,182.330926 C53.5003838,182.339329 52.8840101,181.196577 53.3824351,180.380475 C53.8800214,179.564374 53.5659109,178.693656 53.2083953,178.184249 C49.667103,178.310287 49.4028979,180.565332 46.7551852,179.889974 C45.5253732,179.575927 44.0694143,179.867917 42.453779,180.501262 C40.9458178,181.094695 34.7493689,180.986512 34.2128858,176.745305 C38.3616401,178.723065 39.7458862,176.129816 39.7458862,176.129816 C39.7458862,176.129816 38.0245688,175.649818 37.7513472,174.283347 C39.646285,175.33262 41.27555,174.767546 41.986073,174.661463 C45.7190188,174.09849 46.3579339,176.350384 47.8023601,176.297867 C50.171609,176.211741 51.4956751,175.793712 51.4956751,175.793712 C49.8644181,174.244485 47.5567122,174.952403 46.6884,174.06698 C46.3866609,173.758185 46.2739544,172.999851 45.7170268,171.994692 C45.3176786,171.27417 43.7581345,171.431718 43.0672172,169.096849 C42.4864901,167.135895 37.7309028,165.535201 34.7104721,161.163755 C31.6888881,156.792308 31.4157713,159.974788 26.8656768,150.73089 C25.6227595,148.205912 23.0814627,149.186914 22.4569111,146.872001 C21.1321112,141.950185 17.5636645,144.170569 16.7508144,137.286748 C16.6987073,136.848763 16.4169933,135.624086 16.5574833,134.949778 C16.6967153,134.276521 16.6741739,132.264101 17.6517329,132.593902 C19.9320747,133.362739 19.7621237,136.743731 21.3785978,136.863468 C22.2386274,136.927537 22.1313727,135.105226 23.2657772,135.253322 C24.8794205,135.465487 23.4918194,136.890776 25.6481316,139.542843 C26.7960609,140.956579 25.3913703,143.273593 26.6269486,143.873327 C30.8832722,145.941415 30.4533098,148.448537 31.0164232,148.6523 C33.596512,149.586037 34.5958783,150.459907 37.825052,153.758973 C40.1083295,156.092792 45.2603294,157.74075 45.6514997,157.727096 C46.2575988,157.702938 46.5525231,157.494974 46.863698,157.118958 C47.1737196,156.745043 50.955103,151.697188 51.2888192,149.908487 C51.5640329,148.429631 52.6628955,147.639788 53.2902779,146.079007 C54.0963132,144.067637 55.0096032,143.55718 55.9351599,143.477355 C57.5179792,143.339763 59.3310344,144.579145 61.3247346,142.58458 C61.887848,142.018456 61.9759164,141.114127 63.7685272,140.595267 C65.5601944,140.076408 65.8870958,139.171029 66.1389294,138.607005 C66.3670684,138.095497 67.0234923,137.592392 67.1820154,136.693315 C66.4038684,137.016815 65.4619562,137.255238 64.2898081,137.255238 L39.6189209,137.255238 L39.6189209,124.791048 L43.7806758,122.958233 C44.2200741,122.779678 44.2548821,122.523399 44.2548821,122.161038 L44.2507932,109.408009 L39.578766,104.839101 L44.2507932,100.409256 L44.2548821,87.5789231 C44.2548821,86.9795034 43.9710713,86.8301474 43.8564775,86.7944364 L40.8270303,85.1078267 C35.0471239,87.3647621 27.94074,98.2737381 16.0987939,94.5997062 C9.48462837,92.5483191 5.70454504,86.0740194 5.63081923,82.4167926 C7.92508425,85.218951 11.2075393,85.3280796 11.2075393,85.3280796 C11.2075393,85.3280796 0.567627929,77.3415239 2.7177376,67.7794829 C3.75510965,70.9198454 6.56867402,72.3074279 6.56867402,72.3074279 C6.56867402,72.3074279 -0.282995138,57.5187665 13.5698686,51.4227934 C9.6185552,57.3603777 11.6765034,61.1509956 11.6765034,61.1509956 C11.6765034,61.1509956 12.2866914,57.3058659 15.996362,56.040121 C13.7172783,64.748354 15.8825022,71.9101955 27.672446,73.5353612 C26.4274318,72.5761007 25.9962113,70.752844 25.9962113,70.752844 C25.9962113,70.752844 30.5032152,74.3062988 38.2477802,72.3254935 C41.7035203,71.4420663 45.3737698,72.4030074 45.3737698,72.4030074 C45.7219544,69.6323587 47.4112945,64.7692554 55.3126003,57.2770871 C59.1172589,53.6682802 53.801389,48.4535285 49.7857856,45.4601063 C44.1422804,41.2535602 47.3163065,38.9489402 48.7353606,36.6509372 C50.1552534,34.3537744 54.9317046,26.0062225 55.1660294,24.5554105 C56.4683929,16.5184393 60.0694458,18.4877961 59.1037341,15.877952 C58.6881353,14.7570466 57.922255,14.5625267 57.659308,13.7740488 C57.3971997,12.9850457 56.8729832,10.3551194 56.3475086,9.43485738 C57.5282538,7.59392369 62.3841762,3.51981295 65.1416599,2.59832204 C65.9443402,4.43351046 67.634624,10.4864099 65.7969305,13.5102075 C63.9601807,16.5352445 65.4529397,18.2694338 64.7473443,20.4800499 C64.1157682,22.4580193 61.8592258,26.3967328 59.7303826,30.0728655 C57.5282538,33.8729363 58.5316042,40.022686 60.0223711,40.9901391 C62.0086275,42.2787811 68.8152644,48.7464638 72.4897076,52.4292134 C72.7518158,46.9064019 70.5219037,42.0413029 69.7347401,39.2800022 C68.347139,34.4202599 73.7912323,35.4012621 76.6608984,36.1163224 C80.1801735,36.9955483 96.0602643,42.6324251 100.707339,39.8060042 C103.344777,38.2034205 105.11275,39.7642014 103.945948,34.940065 C104.341208,34.0197715 105.585593,30.9427435 105.585593,30.9427435 C109.351564,30.3112889 116.0521,30.0855744 116.985205,32.4780015 C114.992134,35.9924893 112.747439,38.8820346 109.525604,40.5605567 C108.242322,42.6295892 105.258482,48.0206902 100.27528,47.280107 C92.680221,46.1522695 84.5978509,43.3542074 83.5199569,46.5913048 C82.8667831,48.5553049 85.6197585,50.9344979 87.0994121,53.6567266 C88.5389106,56.3055377 92.9292239,61.4258653 92.7519339,72.4837773 L118.898595,72.4837773 C117.694994,70.3043558 116.833182,67.7532248 117.366835,65.0129305 C121.574196,65.2944172 124.97741,67.9223269 126.306823,68.8676181 C127.037581,71.6624242 129.370344,70.8381302 131.295267,72.9933943 C134.80647,71.898747 140.050732,79.1115293 143.026184,82.2046272 C147.108783,86.4498252 148.940395,85.1582423 149.752931,92.3456067 C150.272954,96.955582 144.609318,100.32523 142.786093,102.85462 C144.187848,106.789552 143.177159,108.014229 140.539301,108.898602 C137.904589,109.782974 136.67268,109.867 136.752361,111.006601 C136.910675,113.284753 136.875028,115.570257 138.901649,115.957827 C142.451643,112.85412 150.642002,104.401326 152.606765,102.85462 C155.358902,96.089065 159.283187,99.0582248 162.354047,92.4366697 C161.510059,90.2309902 161.038264,87.5223106 164.112269,87.1116341 C165.892509,86.874471 165.61048,86.2356642 166.217523,85.8471495 C168.519882,84.3693442 169.000064,86.8240555 169.155232,87.4258909 C169.194024,87.5748268 169.990833,87.5748268 170.094628,87.516954 C170.630378,86.585632 172.025842,85.6255312 173.273477,85.5131466 C174.528451,85.3995016 176.136748,87.8879283 176.398856,88.5697984 C176.95138,89.9991837 178.375152,90.1145093 178.159175,92.5881264 C177.906503,95.4756761 175.593659,96.0008379 175.713181,97.9237703 L175.713181,97.9237703 Z" id="path14" fill="#1C4F9C"></path>
                        <path d="M115.155689,122.161038 L115.155689,109.408009 L115.158835,109.408009 C115.158835,106.508065 117.607974,104.839101 117.607974,104.839101 C117.607974,104.839101 115.158835,103.31004 115.158835,100.411357 L115.155689,100.411357 L115.155689,87.5789231 C115.155689,82.5111117 119.790812,81.3159484 119.790812,81.3159484 L119.790812,78.1428158 L110.084419,78.1428158 C109.506732,78.1428158 107.570277,80.2771784 107.570277,80.2771784 C107.570277,80.2771784 105.634869,78.1428158 105.057183,78.1428158 L95.3537253,78.1428158 L95.3537253,81.3159484 C95.3537253,81.3159484 99.9897912,82.5111117 99.9897912,87.5789231 L99.9897912,114.612362 L82.53097,89.9339587 L65.0707858,114.612362 L65.0707858,87.5789231 C65.0707858,82.5111117 69.7048598,81.3159484 69.7048598,81.3159484 L69.7048598,78.1428158 L60.0019267,78.1428158 C59.4252885,78.1428158 57.489357,80.2771784 57.489357,80.2771784 C57.489357,80.2771784 55.553006,78.1428158 54.9747952,78.1428158 L45.2685071,78.1428158 L45.2685071,81.3159484 C45.2685071,81.3159484 49.9045731,82.5111117 49.9045731,87.5789231 L49.9045731,100.411357 L49.8992261,100.409256 C49.8992261,103.308779 47.4501914,104.839101 47.4501914,104.839101 C47.4501914,104.839101 49.8992261,106.509115 49.8992261,109.408009 L49.9045731,109.408009 L49.9045731,122.161038 C49.9045731,127.227799 45.2685071,128.425168 45.2685071,128.425168 L45.2685071,131.597145 L53.1420294,131.597145 C54.1277662,131.495264 55.5480784,129.469189 55.5480784,129.469189 C55.5480784,129.469189 56.9700681,131.495264 57.9583211,131.597145 L64.2468223,131.597145 C64.7731357,131.590843 65.060616,131.537277 65.3820656,131.156009 L82.53097,106.915591 L99.6773582,131.156009 C99.8301149,131.336665 99.9734357,131.443798 100.14129,131.507868 C100.325604,131.577189 100.537388,131.593994 100.813021,131.597145 L107.101627,131.597145 C108.089251,131.495264 109.509878,129.469189 109.509878,129.469189 C109.509878,129.469189 110.931553,131.495264 111.919177,131.597145 L119.790812,131.597145 L119.790812,128.425168 C119.790812,128.425168 115.155689,127.227799 115.155689,122.161038" id="path16" fill="#FCD006"></path>
                        <path d="M115.155689,122.161038 L115.155689,109.408009 L115.158835,109.408009 C115.158835,106.508065 117.607974,104.839101 117.607974,104.839101 C117.607974,104.839101 115.158835,103.31004 115.158835,100.411357 L115.155689,100.411357 L115.155689,87.5789231 C115.155689,82.5111117 119.790812,81.3159484 119.790812,81.3159484 L119.790812,78.1428158 L110.084419,78.1428158 C109.506732,78.1428158 107.570277,80.2771784 107.570277,80.2771784 C107.570277,80.2771784 105.634869,78.1428158 105.057183,78.1428158 L95.3537253,78.1428158 L95.3537253,81.3159484 C95.3537253,81.3159484 99.9897912,82.5111117 99.9897912,87.5789231 L99.9897912,114.612362 L82.53097,89.9339587 L65.0707858,114.612362 L65.0707858,87.5789231 C65.0707858,82.5111117 69.7048598,81.3159484 69.7048598,81.3159484 L69.7048598,78.1428158 L60.0019267,78.1428158 C59.4252885,78.1428158 57.489357,80.2771784 57.489357,80.2771784 C57.489357,80.2771784 55.553006,78.1428158 54.9747952,78.1428158 L45.2685071,78.1428158 L45.2685071,81.3159484 C45.2685071,81.3159484 49.9045731,82.5111117 49.9045731,87.5789231 L49.9045731,100.411357 L49.8992261,100.409256 C49.8992261,103.308779 47.4501914,104.839101 47.4501914,104.839101 C47.4501914,104.839101 49.8992261,106.509115 49.8992261,109.408009 L49.9045731,109.408009 L49.9045731,122.161038 C49.9045731,127.227799 45.2685071,128.425168 45.2685071,128.425168 L45.2685071,131.597145 L53.1420294,131.597145 C54.1277662,131.495264 55.5480784,129.469189 55.5480784,129.469189 C55.5480784,129.469189 56.9700681,131.495264 57.9583211,131.597145 L64.2468223,131.597145 C64.7731357,131.590843 65.060616,131.537277 65.3820656,131.156009 L82.53097,106.915591 L99.6773582,131.156009 C99.8301149,131.336665 99.9734357,131.443798 100.14129,131.507868 C100.325604,131.577189 100.537388,131.593994 100.813021,131.597145 L107.101627,131.597145 C108.089251,131.495264 109.509878,129.469189 109.509878,129.469189 C109.509878,129.469189 110.931553,131.495264 111.919177,131.597145 L119.790812,131.597145 L119.790812,128.425168 C119.790812,128.425168 115.155689,127.227799 115.155689,122.161038 Z M122.325923,126.456861 L122.325927,134.138969 L111.911838,134.125274 C110.723963,134.002386 110.289912,133.780768 109.509878,133.185234 C108.053604,134.160985 107.101627,134.138928 107.101627,134.138928 L100.813021,134.138928 C99.9079086,134.129475 99.2575656,133.938316 98.7714072,133.671534 C98.2173104,133.367991 97.8753115,132.967817 97.6082756,132.625412 L82.53097,111.310145 L67.4514627,132.625412 C66.9497875,133.26716 66.1799231,134.120022 64.2468223,134.138928 L57.9583211,134.138928 C57.9583211,134.138928 57.0081262,134.160985 55.5480784,133.185234 C54.8989935,133.682037 54.1741069,134.044399 53.4000488,134.125274 L42.7314034,134.138969 L42.7314041,126.456861 C42.729412,126.456861 47.3653732,126.076644 47.3653732,122.161038 L47.3633812,109.408009 C47.3633812,107.677075 46.3005846,106.907188 46.3005846,106.907188 L43.91173,104.839101 L46.2657766,102.939486 C46.2657766,102.939486 47.3633812,102.139454 47.3633812,100.409256 L47.3653732,87.5789231 C47.3653732,84.0373369 44.1197391,83.7107913 42.7314041,83.2833096 L42.7314034,75.6011377 L54.9747952,75.6011377 C55.5776442,75.6011377 56.2738037,75.7147827 57.489357,76.7228833 C58.7044908,75.7147827 59.3999165,75.6011377 60.0019267,75.6011377 L72.243221,75.6011377 L72.243221,83.2299531 C71.3626421,83.5089191 67.607155,84.0151751 67.607155,87.5789231 L67.607155,106.632003 L82.53097,85.5374091 L97.4526882,106.632003 L97.4526882,87.5789231 C97.4526882,84.0151751 93.697935,83.5089191 92.818719,83.2299531 L92.818719,75.6011377 L105.057183,75.6011377 C105.660032,75.6011377 106.356191,75.7147827 107.570277,76.7228833 C108.78541,75.7147827 109.48157,75.6011377 110.084419,75.6011377 L122.325927,75.6011377 L122.325923,83.2833096 C120.938846,83.7107913 117.693946,84.0373369 117.693946,87.5789231 L117.693946,100.409256 C117.693946,102.140715 118.7948,102.939486 118.7948,102.939486 L121.146436,104.839101 L118.757057,106.907188 C118.757057,106.907188 117.693946,107.673924 117.693946,109.408009 L117.693946,122.161038 C117.693946,126.076644 122.331165,126.456861 122.325923,126.456861 L122.325923,126.456861 Z M51.2487691,16.0363408 C51.2487691,17.1350843 50.4206118,18.0151505 49.3865424,18.0151505 L49.3762677,18.0151505 C48.3512147,18.0151505 47.5148797,17.1350843 47.5148797,16.0469491 C47.5148797,14.9375973 48.3512147,14.0681394 49.3865424,14.0681394 C50.4206118,14.0562707 51.2487691,14.9375973 51.2487691,16.0363408 L51.2487691,16.0363408 Z M51.6718118,16.0469491 C51.6718118,14.7307886 50.6581868,13.7054627 49.3762677,13.7054627 C48.1046233,13.7054627 47.0692957,14.7307886 47.0692957,16.0469491 C47.0692957,17.341788 48.1046233,18.3794027 49.3762677,18.3794027 L49.3865424,18.3794027 C50.6581868,18.3794027 51.6718118,17.341788 51.6718118,16.0469491 L51.6718118,16.0469491 Z M49.873854,16.5750518 C49.873854,16.8039173 49.7059999,17.0320476 49.2419634,17.0320476 C49.1068204,17.0320476 49.0138244,17.020599 48.9429503,17.0098857 L48.9429503,16.1298196 L49.2419634,16.1298196 C49.5831235,16.1298196 49.873854,16.2550182 49.873854,16.5750518 Z M50.2343053,15.3314686 C50.2977355,14.9281444 50.3579156,14.7725914 50.4010061,14.6897209 L49.9647532,14.6897209 C49.9025811,14.7725914 49.8411429,15.011435 49.7898745,15.3527902 C49.7264443,15.6842723 49.5625743,15.8094709 49.2308501,15.8094709 L48.9429503,15.8094709 L48.9429503,14.6897209 L48.5265127,14.6897209 L48.5265127,17.2913725 C48.7443771,17.322147 48.9523862,17.3533416 49.2624079,17.3533416 C49.6555703,17.3533416 49.9148478,17.2683704 50.0684432,17.1572461 C50.2240307,17.0427609 50.3080101,16.8650461 50.3080101,16.6160144 C50.3080101,16.2759196 50.0794517,16.0686908 49.8001492,15.9838246 L49.8001492,15.9636584 C50.0295463,15.9231159 50.1830369,15.7158871 50.2343053,15.3314686 L50.2343053,15.3314686 Z M127.383564,92.5819295 C128.099644,93.3840616 130.58443,95.0312841 131.048886,97.3966129 C130.180783,98.2943245 126.191495,100.293195 121.855176,101.402232 L120.807792,100.409256 L120.806743,88.6378593 C123.446698,89.0022166 123.767518,90.5891505 124.97741,90.723802 C126.564738,90.8993111 127.383564,92.5819295 127.383564,92.5819295 L127.383564,92.5819295 Z M178.159175,92.5881264 C177.906503,95.4756761 175.593659,96.0008379 175.713181,97.9237703 C175.98158,99.1649377 175.140736,100.385519 174.329249,100.733386 C173.731642,103.937713 173.32485,105.610038 173.073226,106.802156 C174.024155,110.981393 172.445215,113.803613 173.998993,114.365536 C177.269055,115.545049 179.001067,119.178119 179.001067,119.178119 C179.001067,119.178119 175.083073,117.615237 172.644417,119.547833 C170.387141,121.340735 169.095472,121.073953 169.095472,121.073953 C169.234913,125.299405 165.963802,126.06404 167.355073,131.206425 C165.043278,130.027962 164.521158,125.675421 164.521158,125.675421 C164.285261,138.62276 159.470856,141.459684 159.470856,141.459684 C159.640703,136.836159 156.427255,136.084128 156.427255,136.084128 C155.489956,137.774098 156.633797,144.055033 164.288406,144.423697 C164.288406,144.423697 156.314025,150.111199 151.481797,144.976167 C152.18215,148.897025 151.840361,150.687827 150.390378,151.994429 C150.748942,149.863323 147.345729,149.016762 147.345729,149.016762 C147.054264,151.775962 147.829056,156.358524 155.45431,157.938211 C153.783107,159.152385 146.330845,159.837196 142.633022,156.568589 C142.061626,159.00744 143.93937,160.781437 143.93937,160.781437 C139.674344,159.384506 139.783381,156.966661 138.234846,158.304774 C136.685262,159.641836 135.644168,159.375053 135.644168,159.375053 C136.208225,158.174534 136.816316,154.839756 132.558629,153.741118 C130.160863,153.120376 131.891826,156.611652 133.052441,157.264953 C128.338686,156.611652 124.250846,151.790667 122.694971,147.833047 C120.761661,147.333093 117.553456,147.591473 116.522846,147.956986 C114.476305,148.681709 111.054219,149.533521 108.234983,149.284595 C104.949194,148.993655 104.804825,150.186823 105.040408,150.86008 C105.275257,151.533337 104.912499,152.530095 103.462726,152.505937 C102.549436,152.489132 102.178815,153.363001 100.352235,153.464883 C96.1941492,153.695954 94.1742381,152.282218 93.4248182,152.282218 C92.409935,152.282218 90.9962279,152.949174 90.1770872,153.755822 C89.2257391,154.695862 83.9897597,157.261802 82.5185985,158.684991 C81.2245176,159.935926 80.0847661,158.380397 78.5121166,159.955882 C76.0416938,162.430445 71.7087298,164.706496 69.7367322,165.59612 C68.7219538,166.053011 66.4878479,167.677862 66.3383414,168.592693 C65.6769898,172.651144 63.608746,171.634431 63.3569124,173.487201 C63.2639164,174.177264 64.2058286,174.249736 65.2481807,174.340064 C65.8399163,174.39153 67.304053,174.643608 67.0563083,176.382944 C66.9662479,177.018389 67.501473,178.099172 67.501473,178.099172 C68.2775231,178.296633 68.2460701,178.398515 68.4241989,179.662054 C68.6453134,181.233338 70.9285908,180.195618 72.3640005,179.740828 C75.9168255,178.616982 75.9843445,179.087527 76.2002169,179.948792 C77.6991616,185.926184 68.2263595,188.60871 68.1640826,188.615012 C68.1640826,188.615012 68.5110091,191.344803 68.4385624,192.486505 C68.3861407,193.305758 67.8671664,194.067242 65.8263915,194.231093 C63.4933135,194.41595 61.5876817,196.843247 56.4552875,194.220589 C55.5050926,193.73534 55.3740385,189.590763 54.6499907,188.727397 C47.8875977,188.189631 45.7170268,184.105973 46.3177789,183.012586 C46.8166233,182.104056 50.6753811,182.324624 51.8426016,182.330926 C53.5003838,182.339329 52.8840101,181.196577 53.3824351,180.380475 C53.8800214,179.564374 53.5659109,178.693656 53.2083953,178.184249 C49.667103,178.310287 49.4028979,180.565332 46.7551852,179.889974 C45.5253732,179.575927 44.0694143,179.867917 42.453779,180.501262 C40.9458178,181.094695 34.7493689,180.986512 34.2128858,176.745305 C38.3616401,178.723065 39.7458862,176.129816 39.7458862,176.129816 C39.7458862,176.129816 38.0245688,175.649818 37.7513472,174.283347 C39.646285,175.33262 41.27555,174.767546 41.986073,174.661463 C45.7190188,174.09849 46.3579339,176.350384 47.8023601,176.297867 C50.171609,176.211741 51.4956751,175.793712 51.4956751,175.793712 C49.8644181,174.244485 47.5567122,174.952403 46.6884,174.06698 C46.3866609,173.758185 46.2739544,172.999851 45.7170268,171.994692 C45.3176786,171.27417 43.7581345,171.431718 43.0672172,169.096849 C42.4864901,167.135895 37.7309028,165.535201 34.7104721,161.163755 C31.6888881,156.792308 31.4157713,159.974788 26.8656768,150.73089 C25.6227595,148.205912 23.0814627,149.186914 22.4569111,146.872001 C21.1321112,141.950185 17.5636645,144.170569 16.7508144,137.286748 C16.6987073,136.848763 16.4169933,135.624086 16.5574833,134.949778 C16.6967153,134.276521 16.6741739,132.264101 17.6517329,132.593902 C19.9320747,133.362739 19.7621237,136.743731 21.3785978,136.863468 C22.2386274,136.927537 22.1313727,135.105226 23.2657772,135.253322 C24.8794205,135.465487 23.4918194,136.890776 25.6481316,139.542843 C26.7960609,140.956579 25.3913703,143.273593 26.6269486,143.873327 C30.8832722,145.941415 30.4533098,148.448537 31.0164232,148.6523 C33.596512,149.586037 34.5958783,150.459907 37.825052,153.758973 C40.1083295,156.092792 45.2603294,157.74075 45.6514997,157.727096 C46.2575988,157.702938 46.5525231,157.494974 46.863698,157.118958 C47.1737196,156.745043 50.955103,151.697188 51.2888192,149.908487 C51.5640329,148.429631 52.6628955,147.639788 53.2902779,146.079007 C54.0963132,144.067637 55.0096032,143.55718 55.9351599,143.477355 C57.5179792,143.339763 59.3310344,144.579145 61.3247346,142.58458 C61.887848,142.018456 61.9759164,141.114127 63.7685272,140.595267 C65.5601944,140.076408 65.8870958,139.171029 66.1389294,138.607005 C66.3670684,138.095497 67.0234923,137.592392 67.1820154,136.693315 C66.4038684,137.016815 65.4619562,137.255238 64.2898081,137.255238 L39.6189209,137.255238 L39.6189209,124.791048 L43.7806758,122.958233 C44.2200741,122.779678 44.2548821,122.523399 44.2548821,122.161038 L44.2507932,109.408009 L39.578766,104.839101 L44.2507932,100.409256 L44.2548821,87.5789231 C44.2548821,86.9795034 43.9710713,86.8301474 43.8564775,86.7944364 L40.8270303,85.1078267 C35.0471239,87.3647621 27.94074,98.2737381 16.0987939,94.5997062 C9.48462837,92.5483191 5.70454504,86.0740194 5.63081923,82.4167926 C7.92508425,85.218951 11.2075393,85.3280796 11.2075393,85.3280796 C11.2075393,85.3280796 0.567627929,77.3415239 2.7177376,67.7794829 C3.75510965,70.9198454 6.56867402,72.3074279 6.56867402,72.3074279 C6.56867402,72.3074279 -0.282995138,57.5187665 13.5698686,51.4227934 C9.6185552,57.3603777 11.6765034,61.1509956 11.6765034,61.1509956 C11.6765034,61.1509956 12.2866914,57.3058659 15.996362,56.040121 C13.7172783,64.748354 15.8825022,71.9101955 27.672446,73.5353612 C26.4274318,72.5761007 25.9962113,70.752844 25.9962113,70.752844 C25.9962113,70.752844 30.5032152,74.3062988 38.2477802,72.3254935 C41.7035203,71.4420663 45.3737698,72.4030074 45.3737698,72.4030074 C45.7219544,69.6323587 47.4112945,64.7692554 55.3126003,57.2770871 C59.1172589,53.6682802 53.801389,48.4535285 49.7857856,45.4601063 C44.1422804,41.2535602 47.3163065,38.9489402 48.7353606,36.6509372 C50.1552534,34.3537744 54.9317046,26.0062225 55.1660294,24.5554105 C56.4683929,16.5184393 60.0694458,18.4877961 59.1037341,15.877952 C58.6881353,14.7570466 57.922255,14.5625267 57.659308,13.7740488 C57.3971997,12.9850457 56.8729832,10.3551194 56.3475086,9.43485738 C57.5282538,7.59392369 62.3841762,3.51981295 65.1416599,2.59832204 C65.9443402,4.43351046 67.634624,10.4864099 65.7969305,13.5102075 C63.9601807,16.5352445 65.4529397,18.2694338 64.7473443,20.4800499 C64.1157682,22.4580193 61.8592258,26.3967328 59.7303826,30.0728655 C57.5282538,33.8729363 58.5316042,40.022686 60.0223711,40.9901391 C62.0086275,42.2787811 68.8152644,48.7464638 72.4897076,52.4292134 C72.7518158,46.9064019 70.5219037,42.0413029 69.7347401,39.2800022 C68.347139,34.4202599 73.7912323,35.4012621 76.6608984,36.1163224 C80.1801735,36.9955483 96.0602643,42.6324251 100.707339,39.8060042 C103.344777,38.2034205 105.11275,39.7642014 103.945948,34.940065 C104.341208,34.0197715 105.585593,30.9427435 105.585593,30.9427435 C109.351564,30.3112889 116.0521,30.0855744 116.985205,32.4780015 C114.992134,35.9924893 112.747439,38.8820346 109.525604,40.5605567 C108.242322,42.6295892 105.258482,48.0206902 100.27528,47.280107 C92.680221,46.1522695 84.5978509,43.3542074 83.5199569,46.5913048 C82.8667831,48.5553049 85.6197585,50.9344979 87.0994121,53.6567266 C88.5389106,56.3055377 92.9292239,61.4258653 92.7519339,72.4837773 L118.898595,72.4837773 C117.694994,70.3043558 116.833182,67.7532248 117.366835,65.0129305 C121.574196,65.2944172 124.97741,67.9223269 126.306823,68.8676181 C127.037581,71.6624242 129.370344,70.8381302 131.295267,72.9933943 C134.80647,71.898747 140.050732,79.1115293 143.026184,82.2046272 C147.108783,86.4498252 148.940395,85.1582423 149.752931,92.3456067 C150.272954,96.955582 144.609318,100.32523 142.786093,102.85462 C144.187848,106.789552 143.177159,108.014229 140.539301,108.898602 C137.904589,109.782974 136.67268,109.867 136.752361,111.006601 C136.910675,113.284753 136.875028,115.570257 138.901649,115.957827 C142.451643,112.85412 150.642002,104.401326 152.606765,102.85462 C155.358902,96.089065 159.283187,99.0582248 162.354047,92.4366697 C161.510059,90.2309902 161.038264,87.5223106 164.112269,87.1116341 C165.892509,86.874471 165.61048,86.2356642 166.217523,85.8471495 C168.519882,84.3693442 169.000064,86.8240555 169.155232,87.4258909 C169.194024,87.5748268 169.990833,87.5748268 170.094628,87.516954 C170.630378,86.585632 172.025842,85.6255312 173.273477,85.5131466 C174.528451,85.3995016 176.136748,87.8879283 176.398856,88.5697984 C176.95138,89.9991837 178.375152,90.1145093 178.159175,92.5881264 Z M180.247654,92.771933 C180.466776,90.2671213 179.401568,89.0695423 178.764121,88.3563726 C178.533466,88.0971527 178.409751,87.9538886 178.355232,87.8111496 C178.338457,87.7693467 176.362161,83.4084031 173.357352,83.4084031 L173.085808,83.4206919 C172.071973,83.5121751 171.014104,83.9315693 170.110355,84.5510502 C169.253785,83.4839214 168.202207,83.2799486 167.513386,83.2799486 C166.72811,83.2799486 165.91138,83.5491465 165.085215,84.0784046 C164.611324,84.3827883 164.330343,84.7402135 164.164691,84.9711796 C163.165534,85.0856649 161.278355,85.4586348 160.255084,87.1842115 C159.480292,88.4910241 159.42158,90.1670255 160.083141,92.2898345 C158.981238,94.3186396 157.84264,94.9382255 156.438788,95.7021258 C154.690002,96.6551895 152.532327,97.8294513 150.875802,101.565032 C149.738253,102.550971 147.737842,104.510875 145.430241,106.781149 C145.608475,105.802248 145.512019,104.680292 145.13668,103.327265 C145.520407,102.925201 145.990105,102.479969 146.473432,102.019612 C148.94354,99.6707736 152.326834,96.4541575 151.837216,92.1092839 C151.191381,86.4059217 149.775996,85.0654987 147.328954,83.1856295 C146.525854,82.5689845 145.616862,81.8714646 144.536976,80.7477234 C143.975016,80.1638485 143.33023,79.4274666 142.630925,78.630271 C139.390219,74.9364929 135.768931,70.746647 132.007153,70.7803624 C131.142196,70.0807419 130.281433,69.7139689 129.608339,69.4251299 C128.569342,68.9821034 128.485467,68.9119418 128.335541,68.334999 L128.141581,67.5965165 L127.264042,66.9695783 C125.705022,65.8479378 122.054379,63.2212885 117.506276,62.9176399 L115.662083,62.7938068 L115.308761,64.6104465 C114.942858,66.4895804 115.069718,68.3982285 115.699826,70.38313 L94.8275167,70.38313 C94.5108899,61.6572516 91.4044877,56.6576062 89.6775089,53.8783449 C89.3887704,53.4143119 89.1348399,53.008887 88.9410895,52.6528273 C88.3882508,51.6348537 87.6960753,50.6843108 87.0850485,49.8452073 C86.5391295,49.094436 85.6524697,47.8758505 85.5316902,47.3306276 C85.6987055,47.2707591 86.0735204,47.1804313 86.8065847,47.1804313 C88.6155511,47.1804313 91.2858051,47.7171467 94.1136387,48.2853717 C96.0192705,48.6689499 97.9891713,49.0649219 99.9680887,49.3590125 C100.378865,49.418986 100.79331,49.451336 101.199997,49.451336 C106.458938,49.451336 109.625205,44.4138789 111.02067,42.1360421 C116.969479,39.0027167 119.301194,32.6450029 119.301194,32.6450029 C119.301194,32.6450029 118.253809,28.4186058 110.69251,28.4186058 C108.938482,28.4186058 106.950653,28.5843468 105.23961,28.87035 L104.083188,29.0644498 L103.642951,30.1537404 C103.641693,30.155736 102.411042,33.1996788 102.019872,34.1092591 L101.743505,34.7542628 L101.908529,35.4348725 C102.087496,36.1774513 102.164451,36.6509372 102.196009,36.9451328 C102.172629,36.9524851 102.150192,36.958682 102.127651,36.965194 C101.488736,37.1519415 100.612351,37.4070651 99.6200089,38.010266 C99.3242459,38.1899763 98.567487,38.4911041 96.8240477,38.4911041 C91.969698,38.4911041 84.1965107,36.1561297 80.0203923,34.9023584 C78.779467,34.5306489 77.7883832,34.2331972 77.1679206,34.0789047 C75.3913508,33.6353531 73.9304642,33.4203518 72.7019104,33.4203518 C70.652119,33.4203518 69.1531743,34.0304848 68.246804,35.2351009 C67.3573134,36.4158747 67.1800234,37.971299 67.7184986,39.8576802 C67.8926433,40.4690735 68.1333635,41.1788822 68.4037544,41.9731369 C68.8857191,43.3890782 69.4623572,45.0797841 69.873972,46.9380166 C66.6734206,43.8731723 62.928942,40.421914 61.2764019,39.3030043 C60.6395837,38.4007763 59.8818811,33.9935134 61.5438572,31.1265501 C63.9896417,26.9050895 66.0680553,23.2384098 66.7450285,21.119697 C67.1484656,19.8532168 67.0583003,18.7207579 66.9854342,17.8103374 C66.8945351,16.6738872 66.829008,15.8516939 67.5887026,14.6015988 C70.0467538,10.5557522 67.7983892,3.43980981 67.062494,1.75601503 L66.2933636,0 L64.4782115,0.605987355 C61.1146287,1.72892718 55.9318049,6.19568039 54.5836248,8.29960461 L53.8956431,9.37209004 L54.5271143,10.4782068 C54.7462368,10.8695889 55.1241969,12.3696611 55.3052613,13.0913384 C55.4485821,13.6636598 55.5755473,14.1552112 55.6696966,14.4378533 C55.9433376,15.258051 56.4335849,15.7655674 56.7582846,16.1015659 C56.8402721,16.1856968 56.9016054,16.2496615 56.9507769,16.306274 C55.8163724,17.2334996 53.9427177,18.9973081 53.0957935,24.2181516 C52.7722471,25.4378924 48.6718256,32.7638996 46.9526051,35.5452615 C46.7715407,35.8381967 46.5566119,36.1290314 46.3394815,36.4273233 C44.9470576,38.338072 42.0495032,42.3124965 48.5346905,47.1447203 C52.1230574,49.8197895 54.4165046,52.567436 54.5201946,54.3144393 C54.5426311,54.699698 54.4832898,55.1715033 53.8710049,55.7521222 C48.3093823,61.0250618 44.9745265,65.705934 43.7409402,69.9885235 C43.0753949,69.9104844 42.2952559,69.8518764 41.4536787,69.8518764 C40.1205961,69.8518764 38.8682429,69.9987116 37.7296446,70.2908066 C36.3404709,70.6449757 34.9705883,70.824266 33.6579502,70.824266 C29.6186523,70.824266 25.8999652,68.8519683 22.6330479,65.5791599 C22.6330479,68.5443285 23.7818159,70.4915234 23.7818159,70.4915234 C21.4391972,69.6734264 19.7302514,68.4696505 18.6809796,66.8941651 C17.0804417,64.495226 16.8604805,61.0217008 18.0244508,56.572635 L19.0146958,52.7902097 C19.0146958,52.7902097 15.754803,53.365892 14.2136065,54.5158913 C15.819072,50.4713052 19.2920064,46.6102106 19.2920064,46.6102106 C19.2920064,46.6102106 1.43586048,50.8578243 2.68824517,63.1108995 C2.68824517,63.1108995 -3.86036184,70.249844 3.48481313,79.9915954 L3.53395319,82.4585955 C3.62282886,86.8650181 7.82393143,94.232513 15.4783312,96.6059293 C17.2823699,97.1659618 19.0954252,97.4499693 20.867906,97.4499693 C27.5422307,97.4499693 32.5530066,93.5493826 36.5788846,90.4147968 C38.0748936,89.2512483 39.5021255,88.140216 40.7430508,87.4644378 L42.158016,88.2521805 L42.1539272,99.5046124 L36.5534076,104.815784 L42.1539272,110.293431 L42.158016,121.378547 L37.5220549,123.420376 L37.5220549,139.355886 L61.4516999,139.355886 C60.7358298,139.835883 60.3151985,140.392555 59.9691108,140.910364 C59.920778,140.981786 59.8790504,141.053208 59.8266287,141.115178 C59.3494868,141.590974 59.0231096,141.631937 58.7044908,141.631937 C58.4136555,141.631937 58.0696646,141.57837 57.7043906,141.519552 C57.1310026,141.428174 56.4347382,141.323142 55.7536761,141.385111 C53.7727667,141.556314 52.3299132,142.835608 51.3441765,145.296516 C51.1566118,145.76286 50.8874791,146.158832 50.5770381,146.617823 C50.0807099,147.346748 49.463078,148.255277 49.2275999,149.523018 C49.0064854,150.515574 46.4795521,154.180153 45.4536604,155.519316 C44.0767533,155.090783 40.7767055,153.774728 39.3228435,152.28852 C36.3834566,149.284595 35.0655763,148.025257 32.5121177,146.978084 C32.0996642,145.886798 31.159744,143.948951 28.1864927,142.316748 C28.1905816,142.250577 28.1946705,142.186508 28.1987594,142.12979 C28.2642865,141.105725 28.3633634,139.557548 27.2751948,138.217335 C26.5225247,137.292 26.4160039,136.678611 26.3128381,136.084128 C26.1887036,135.372008 25.8590763,133.476174 23.5389988,133.17053 C22.6268621,133.056045 21.9642524,133.312324 21.4699163,133.676786 C20.9211664,132.560292 20.0672177,131.19172 18.3213671,130.602489 C18.0338867,130.506909 17.7398013,130.457544 17.448232,130.457544 C14.971309,130.457544 14.6518515,133.259807 14.5474276,134.180941 C14.531072,134.315383 14.5207974,134.43722 14.5036031,134.528598 C14.3295632,135.361505 14.4593592,136.283689 14.6202937,137.234232 C14.6408429,137.35712 14.6600293,137.461102 14.668207,137.535675 C15.1855039,141.907122 16.7315232,143.413286 18.5499255,144.802864 C19.4754821,145.509732 20.0332485,145.936163 20.4325966,147.41817 C21.0161545,149.581836 22.6605168,150.262446 23.642584,150.669971 C24.4399173,150.999773 24.7299139,151.140516 24.9846831,151.660427 C27.8371549,157.455062 29.1488494,158.743809 30.8247696,160.047261 C31.4779434,160.554567 32.0423149,160.993602 32.986324,162.360073 C34.8333484,165.033147 37.2414942,166.773533 38.999297,168.043374 C39.7978885,168.621052 40.8925574,169.411946 41.0817995,169.760653 C41.4769539,171.107168 42.1334827,171.935873 42.7683089,172.47784 C42.4148821,172.491495 42.0483499,172.527206 41.6747933,172.583923 C41.545836,172.603879 41.3922406,172.633288 41.2182007,172.667949 C40.8966463,172.734119 40.5329449,172.807642 40.1431375,172.807642 C39.6504788,172.807642 39.2122338,172.693157 38.765811,172.44528 L34.8067182,170.252205 L35.6954749,174.697174 C35.726194,174.849471 35.7650908,174.997567 35.8101735,175.13936 C35.5869621,175.060586 35.3543148,174.962906 35.1139091,174.848421 L31.6499912,173.197312 L32.1323753,177.008936 C32.6791331,181.328917 36.9916526,182.86239 40.5198394,182.86239 C41.1432377,182.86239 42.3227249,182.808823 43.2195545,182.455915 C43.6659773,182.281561 44.0788502,182.145019 44.455657,182.047339 C43.9293436,183.047247 44.0276866,184.320239 44.7349596,185.636295 C45.2755316,186.641454 47.4084638,189.798727 53.1346904,190.667345 C53.2055645,190.988744 53.2759143,191.346904 53.3332636,191.632592 C53.7285229,193.632408 54.069683,195.36019 55.5031006,196.092266 C57.3992966,197.060664 59.1242834,197.53226 60.7779768,197.53226 C62.4006366,197.53226 63.6304486,197.082721 64.6182821,196.723511 C65.1601123,196.524999 65.6269796,196.354847 65.9915197,196.326488 C69.8952552,196.012441 70.4665464,193.630307 70.5312347,192.620947 C70.5743253,191.945588 70.5087982,190.926775 70.4289076,190.044503 C72.4426329,189.250458 75.4261588,187.718036 77.1064824,185.325399 C78.3617713,183.538798 78.7516835,181.502221 78.2335479,179.436234 C77.7236949,177.399657 76.3353599,176.979527 75.2594579,176.979527 C74.4587696,176.979527 73.4369668,177.199045 71.7332632,177.736811 C71.5252541,177.802981 71.3041395,177.878604 71.0739036,177.957379 C70.8577167,178.033002 70.5750592,178.129632 70.3019424,178.213658 C70.1422661,177.593967 69.8419948,176.981628 69.1510775,176.535241 C69.3055117,175.166669 68.8399026,174.244485 68.4126661,173.706719 C68.117008,173.333854 67.6488826,172.904272 66.9334319,172.603879 C67.5362809,171.866552 68.0637476,170.823581 68.3635994,169.187177 C68.7374706,168.723984 69.9566934,167.800749 70.5976005,167.51191 C71.2193213,167.230424 76.7612334,164.680238 79.9946008,161.44104 C80.1105575,161.325504 80.1707376,161.296095 80.1760846,161.292944 C80.1801735,161.293995 80.4238293,161.292944 80.606047,161.302397 C80.7903615,161.312901 80.9725792,161.322353 81.1549017,161.322353 C82.2688618,161.322353 83.1910634,160.95369 83.9745574,160.196407 C84.597117,159.594571 86.5943819,158.436064 88.053591,157.590554 C89.9538758,156.488764 91.0576661,155.836513 91.6494017,155.251483 C92.1080911,154.798794 92.88498,154.458489 93.299845,154.394419 C93.4063658,154.42908 93.5312341,154.477394 93.6766518,154.529911 C94.8234278,154.941638 97.0574289,155.749336 100.467772,155.562379 C101.974894,155.478353 102.879902,154.988902 103.41974,154.696912 C103.479081,154.664352 103.534438,154.631792 103.588433,154.604484 C105.350744,154.557219 106.227234,153.677048 106.602573,153.145584 C106.982106,152.61202 107.185502,151.982876 107.202277,151.342179 C107.443416,151.333776 107.731735,151.349531 108.04941,151.37789 C108.453057,151.413601 108.862994,151.430406 109.281319,151.430406 C112.741148,151.430406 116.234527,150.287654 117.222151,149.937896 C117.49055,149.842316 118.615518,149.656409 120.002595,149.656409 C120.442937,149.656409 120.858117,149.675315 121.227165,149.712076 C123.353387,154.151794 127.768339,158.653481 132.764122,159.346695 L133.305113,159.421268 L132.666618,160.780386 C132.666618,160.780386 136.507028,162.560685 139.00125,160.371811 C142.357284,163.732846 150.591677,164.180284 150.591677,164.180284 L146.941033,160.731021 C155.724805,162.741341 160.089432,157.164122 160.089432,157.164122 C160.089432,157.164122 153.227438,155.562379 151.320338,153.981642 L151.793181,153.55521 C153.210663,152.276967 153.803027,150.710934 153.908919,148.855012 C154.747666,149.099738 155.637785,149.223676 156.567745,149.223676 C161.120042,149.223676 165.327403,146.260713 165.504588,146.133624 L170.437466,142.61609 L164.388007,142.3241 C163.530389,142.283137 162.74721,142.151847 162.047905,141.936531 C163.303928,140.510191 165.004486,137.766746 165.940737,132.809219 C167.750332,134.623127 170.615699,135.222862 170.615699,135.222862 C170.615699,135.222862 168.367859,130.582532 169.91954,126.130211 C170.241409,125.204876 170.843209,124.21442 171.070719,122.859503 C171.882207,122.574865 172.847813,122.066509 173.94762,121.19474 C174.37538,120.854435 174.995004,120.682182 175.785523,120.682182 C179.309306,120.682182 183.161249,123.04541 183.161249,123.04541 C183.161249,123.04541 181.016155,114.777263 175.373488,112.660861 C175.381876,112.39933 175.830605,109.21895 175.217272,106.810558 C175.217272,106.810558 175.851574,103.938553 176.230058,101.967096 C177.301557,101.012457 178.059574,99.4357111 177.814241,97.767062 C177.874001,97.6172859 178.1424,97.2879044 178.322731,97.0662861 C179.014696,96.2190951 180.058936,94.9389607 180.247654,92.771933 L180.247654,92.771933 Z M147.742036,115.488332 C146.248019,116.124828 144.426891,116.864256 141.40321,117.004999 C142.278652,116.156338 151.231221,107.439702 151.956737,107.127756 C150.87056,111.634695 153.248406,113.14401 147.742036,115.488332 Z M128.088111,85.2087628 C128.088111,85.2087628 127.050162,83.1438266 125.440817,81.6236933 L125.440817,77.0642385 C125.947211,77.0855601 126.325695,77.0526849 126.579416,77.0264268 C126.579416,77.0264268 128.141581,80.1450477 131.591974,80.503208 C132.853239,81.9104316 139.278036,84.5165996 141.019484,86.8314078 C142.008156,88.1410563 141.899119,90.1797344 141.044646,92.1827015 C140.448088,93.5821527 138.45921,94.1114107 136.536384,94.6148308 C130.134652,88.5853431 131.7419,86.3521451 128.088111,85.2087628 L128.088111,85.2087628 Z M81.4640846,143.763043 C82.9875626,144.687328 87.0523374,146.806881 91.091216,146.64198 C90.6849482,147.505346 88.9608001,148.471644 88.1998474,148.267881 C87.2857186,148.471644 86.6877973,149.469452 86.22093,149.538773 C82.7110908,150.056582 82.2811284,151.207737 80.1453655,151.550143 C78.8397519,151.759157 76.9897918,152.282218 76.9897918,152.282218 C78.9871616,147.87401 75.0063662,148.251076 81.4640846,143.763043 L81.4640846,143.763043 Z" id="path18" fill="#FFFFFF"></path>
                    </g>
                </g>
            </g>
        </g>
    </g>
</svg>