<?xml version="1.0" encoding="UTF-8"?>
<svg width="200px" height="200px" viewBox="0 0 200 200" version="1.1" xmlns="http://www.w3.org/2000/svg" xmlns:xlink="http://www.w3.org/1999/xlink">
    <!-- Generator: Sketch 54.1 (76490) - https://sketchapp.com -->
    <title>michigan-st</title>
    <desc>Created with Sketch.</desc>
    <g id="michigan-st" stroke="none" stroke-width="1" fill="none" fill-rule="evenodd">
        <g id="michigan-st_BGL" transform="translate(-0.000000, 0.000000)" fill="#124430">
            <g id="michigan-st" transform="translate(14.000000, 0.000000)">
                <g id="g10" transform="translate(86.387912, 99.907030) scale(-1, 1) rotate(-180.000000) translate(-86.387912, -99.907030) translate(0.000000, 0.371895)" fill-rule="nonzero">
                    <g id="g12">
                        <path d="M160.159471,184.181784 C160.159471,184.181784 144.814135,151.115118 144.67504,151.185996 C115.993159,165.619028 82.3025295,164.910688 54.139414,148.220942 C35.3599941,136.736119 22.4221467,117.353675 21.2390259,93.9644494 C20.3043962,75.4811028 26.1436067,61.1403868 25.3020353,46.4041553 C24.8442888,38.3903737 23.3551361,33.2803929 19.7012555,26.5039096 C15.0102387,18.6722445 9.38887888,11.8898767 0,11.3660375 C2.08878973,13.974908 16.5821707,21.1247247 10.8822088,53.9598565 C8.62256342,66.9812398 -9.26671106,99.2675939 8.02283448,139.748205 C23.8139762,176.708117 92.1203517,220.49767 160.159471,184.181784" id="path14"></path>
                        <path d="M81.8933351,119.37216 C90.7405508,122.561222 100.650666,122.620068 110.045515,120.539456 C127.776689,117.40749 141.050903,106.702978 147.521467,90.8071074 C154.291873,74.1735831 159.155622,60.7534029 170.785185,46.5365042 C171.115864,46.128082 152.622727,49.2539228 152.690088,49.7666928 C157.214628,82.7274795 126.066427,84.0888139 117.476188,71.7425194 C123.938223,64.6311168 135.034149,60.979818 143.645602,62.3709036 C141.81899,29.6341256 150.945708,-0.0692165145 150.430443,0.000854525546 C143.009174,1.026286 109.003174,21.0392776 99.0606909,29.7297231 C84.452823,27.1260589 73.0111268,21.7271638 56.0906873,19.3883287 C55.5712663,19.3174072 59.1969341,31.8729005 58.6748887,38.1339887 C58.6748887,55.350942 45.4844387,71.4887595 54.8184886,92.6383351 C60.4133634,105.32108 68.8522596,114.677383 81.8933351,119.37216" id="path16"></path>
                        <path d="M94.131331,129.30161 C95.1231518,129.288047 96.6267388,129.056382 96.6540768,129.16248 C96.9359857,130.30068 97.8613205,138.462124 104.815438,144.414763 C112.551202,151.038334 122.719169,150.382058 122.615066,150.443529 C112.484498,153.542025 102.042277,153.759909 94.834463,153.123321 L94.131331,129.30161" id="path18"></path>
                        <path d="M29.6940405,99.5966068 C28.1545861,89.7883489 29.0781713,82.1164869 30.6235307,75.9365581 C30.6399335,75.8698368 30.3322176,84.1544414 35.0898951,88.8697818 C39.2376084,92.980036 44.5232365,93.7833173 46.3959952,93.716596 C46.3959952,93.7424095 47.3381702,96.9262213 47.2049797,96.9338778 L29.6940405,99.5966068" id="path20"></path>
                        <path d="M49.3047527,101.419303 C49.8156443,102.727698 50.4367624,103.87793 51.1963199,105.367238 L33.1959222,112.348698 C32.076816,110.105548 31.2343698,106.743011 30.8157712,104.920315 L49.3047527,101.419303" id="path22"></path>
                        <path d="M53.6490805,108.284602 C53.6985076,108.341042 56.5399044,111.963465 56.5912997,111.926713 L40.0979883,124.329229 C38.3807278,122.156081 36.9797127,119.773801 35.8579821,117.252827 L53.6490805,108.284602" id="path24"></path>
                        <path d="M59.7898395,115.037897 C59.8803828,115.131088 63.454874,118.372215 63.454874,118.372215 L49.1665321,134.625318 C45.9430601,131.82674 44.9641429,130.563847 43.0008409,128.179598 L59.7898395,115.037897" id="path26"></path>
                        <path d="M67.209577,120.67618 C67.2384459,120.476234 71.3152993,122.958487 71.4058425,123.14137 L60.7928141,142.472406 C56.73127,140.511454 54.1367895,138.408309 52.9501039,137.569152 L67.209577,120.67618" id="path28"></path>
                        <path d="M75.0820309,124.957284 C80.1472057,126.679133 80.124898,126.732072 80.124898,126.638225 L74.1011454,148.358542 C70.7403276,147.376534 66.2022284,145.433521 65.1342988,144.714681 L75.0820309,124.957284" id="path30"></path>
                        <path d="M84.0480027,127.901118 C84.2308389,127.808802 88.6151895,128.879625 88.6707402,128.881156 L89.2301839,152.423513 C89.0464729,152.240631 83.7660938,151.439974 79.2844201,150.179488 L84.0480027,127.901118" id="path32"></path>
                        <path d="M156.32516,5.26473052 L155.435037,5.26473052 L155.435037,3.76076556 L156.368682,3.76076556 C156.5782,3.76076556 156.763442,3.82486181 156.917191,3.96841117 C157.070939,4.10086946 157.147923,4.28887055 157.147923,4.50677593 C157.147923,5.01265506 156.853111,5.26473052 156.32516,5.26473052 Z M156.742228,3.38734473 L157.566522,1.71417879 L157.060879,1.71417879 L156.26961,3.34203984 L155.435037,3.34203984 L155.435037,1.71417879 L154.949733,1.71417879 L154.949733,5.67319647 L156.31335,5.67319647 C156.720795,5.67319647 157.028292,5.56211088 157.248745,5.35446527 C157.479478,5.14509148 157.587955,4.86993699 157.587955,4.50677593 C157.587955,3.94706033 157.346069,3.59413718 156.742228,3.38734473 Z M156.259331,6.93788334 C154.467055,6.93788334 153.017269,5.48519538 153.017269,3.69496299 C153.017269,1.90217332 154.467055,0.449480984 156.259331,0.449480984 C158.049201,0.449480984 159.501611,1.90217332 159.501611,3.69496299 C159.501611,5.48519538 158.049201,6.93788334 156.259331,6.93788334 L156.259331,6.93788334 Z M156.259331,0.000854525546 C154.202205,0.000854525546 152.567177,1.6398337 152.567177,3.69496299 C152.567177,5.75011197 154.202205,7.38821967 156.259331,7.38821967 C158.314051,7.38821967 159.951703,5.75011197 159.951703,3.69496299 C159.951703,1.6398337 158.314051,0.000854525546 156.259331,0.000854525546 L156.259331,0.000854525546 Z" id="path34"></path>
                    </g>
                </g>
            </g>
        </g>
    </g>
</svg>