<?xml version="1.0" encoding="UTF-8"?>
<svg width="200px" height="200px" viewBox="0 0 200 200" version="1.1" xmlns="http://www.w3.org/2000/svg" xmlns:xlink="http://www.w3.org/1999/xlink">
    <!-- Generator: Sketch 54.1 (76490) - https://sketchapp.com -->
    <title>milwaukee</title>
    <desc>Created with Sketch.</desc>
    <defs>
        <path d="M6.00707254,9.60052366 C6.00707254,9.60052366 7.96332659,-1.00647018 0.0398166329,0.111958085 C0.0398166329,0.111958085 5.26732141,5.95468223 6.00707254,9.60052366 Z" id="path-1"></path>
        <linearGradient x1="-1412.62156%" y1="-145.08194%" x2="36.7631134%" y2="47.7092114%" id="linearGradient-3">
            <stop stop-color="#A7A5A6" offset="0%"></stop>
            <stop stop-color="#444141" offset="100%"></stop>
        </linearGradient>
        <path d="M30.7882114,10.9683822 L23.92089,10.9244267 C23.8171572,6.05883416 20.9891285,-3.1401178 0.00157170919,1.09406677 C0.00157170919,1.09406677 19.8464959,4.8739226 21.9248194,17.3443349 L30.7882114,10.9683822 Z" id="path-4"></path>
        <linearGradient x1="144.42686%" y1="82.61782%" x2="-40.5826697%" y2="9.62463847%" id="linearGradient-6">
            <stop stop-color="#A7A5A6" offset="0%"></stop>
            <stop stop-color="#444141" offset="100%"></stop>
        </linearGradient>
        <path d="M0.024623444,7.2628158 C0.024623444,7.2628158 8.79633246,14.8442694 38.4261942,0.0294957426 C38.4261942,0.0294957426 12.0853959,9.86719032 0.024623444,7.2628158 L0.024623444,7.2628158 Z" id="path-7"></path>
        <linearGradient x1="-2.71900026%" y1="60.4153232%" x2="105.916588%" y2="37.7092525%" id="linearGradient-9">
            <stop stop-color="#E7E6E6" offset="0%"></stop>
            <stop stop-color="#B3B2B2" offset="100%"></stop>
        </linearGradient>
        <path d="M6.00707254,9.60052366 C6.00707254,9.60052366 7.96332659,-1.00647018 0.0398166329,0.111958085 C0.0398166329,0.111958085 5.26732141,5.95468223 6.00707254,9.60052366 Z" id="path-10"></path>
        <linearGradient x1="77.5688248%" y1="87.3353713%" x2="13.8974785%" y2="-64.3467793%" id="linearGradient-12">
            <stop stop-color="#A7A5A6" offset="0%"></stop>
            <stop stop-color="#444141" offset="100%"></stop>
        </linearGradient>
        <path d="M8.62973128,0.494616884 C2.18624749,4.06559256 7.07111967,8.86360161 1.19083167,12.8890632 L0.0450556636,14.5190828 C2.5299279,14.2622131 4.75756373,13.8171051 6.43510135,11.9854876 C6.43510135,11.9854876 8.44269789,10.6634706 8.52809409,5.95038623 C8.61349029,1.23855924 14.2685,2.18053695 14.2685,2.18053695 C14.2685,2.18053695 11.6447934,-1.17569087 8.62973128,0.494616884 L8.62973128,0.494616884 Z" id="path-13"></path>
        <linearGradient x1="190.220158%" y1="-66.3784676%" x2="30.910767%" y2="59.8558253%" id="linearGradient-15">
            <stop stop-color="#C8C7C7" offset="0%"></stop>
            <stop stop-color="#4F4C4D" offset="100%"></stop>
        </linearGradient>
        <path d="M0.0303863778,1.69367383 C0.0303863778,1.69367383 3.21728872,2.45291415 5.54708565,4.73723629 L6.52730828,5.40929914 C6.52730828,5.40929914 5.63457746,1.56065484 3.05854609,0.0382449237 C3.05854609,0.0382449237 1.13425014,0.60516043 0.0303863778,1.69367383 L0.0303863778,1.69367383 Z" id="path-16"></path>
        <linearGradient x1="59.8096928%" y1="60.6663337%" x2="-454.939924%" y2="-473.821646%" id="linearGradient-18">
            <stop stop-color="#F7F7F7" offset="0%"></stop>
            <stop stop-color="#3B3839" offset="100%"></stop>
        </linearGradient>
        <path d="M3.12612959,0.0372495079 C5.15887348,-0.035206286 7.67046477,5.2998034 7.67046477,5.2998034 C4.95926641,3.09265218 0.00576293371,1.49579564 0.00576293371,1.49579564 C0.00576293371,1.49579564 0.621349035,0.126260639 3.12612959,0.0372495079 L3.12612959,0.0372495079 Z" id="path-19"></path>
        <linearGradient x1="91.9002051%" y1="88.8694028%" x2="-344.419002%" y2="-287.449721%" id="linearGradient-21">
            <stop stop-color="#F7F7F7" offset="0%"></stop>
            <stop stop-color="#3B3839" offset="100%"></stop>
        </linearGradient>
        <path d="M12.6685,22.1600518 C12.6685,22.1600518 -10.3161752,19.3185064 13.8991483,0.0497184009 C13.8991483,0.0497184009 -16.4709885,20.3335686 12.6685,22.1600518 Z" id="path-22"></path>
        <linearGradient x1="102.29938%" y1="2.628006%" x2="-1.9091098%" y2="143.14067%" id="linearGradient-24">
            <stop stop-color="#A7A5A6" offset="0%"></stop>
            <stop stop-color="#444141" offset="100%"></stop>
        </linearGradient>
        <polygon id="path-25" points="20.2174193 0.0337917477 0.0130975766 8.44998014 0.238899798 9.5970659"></polygon>
        <linearGradient x1="2.54116427%" y1="49.9991783%" x2="101.299883%" y2="49.9991783%" id="linearGradient-27">
            <stop stop-color="#E7E6E6" offset="0%"></stop>
            <stop stop-color="#B3B2B2" offset="100%"></stop>
        </linearGradient>
        <path d="M13.1473474,3.63337254 L12.5527174,3.89736729 L0.58467582,9.20801549 C0.4102161,8.93071359 0.223706609,8.65645034 0.0204322195,8.39041236 L3.20052382,7.14001292 L3.20052382,7.10423034 L21.2432215,0.0417550743 L13.1473474,3.63337254 L13.1473474,3.63337254 Z" id="path-28"></path>
        <linearGradient x1="4.73968748%" y1="49.9997142%" x2="99.3292849%" y2="49.9997142%" id="linearGradient-30">
            <stop stop-color="#E7E6E6" offset="0%"></stop>
            <stop stop-color="#B3B2B2" offset="100%"></stop>
        </linearGradient>
        <path d="M0.0413359518,2.14124422 C-0.928303841,25.4080937 18.7384409,45.0043211 18.7384409,45.0043211 C-0.165553368,25.3814794 9.3792794,0.0261951532 9.3792794,0.0261951532 C9.3792794,0.0261951532 5.30368029,0.747609674 0.0413359518,2.14124422 Z" id="path-31"></path>
        <linearGradient x1="58.9670949%" y1="121.737409%" x2="45.7822209%" y2="12.0458463%" id="linearGradient-33">
            <stop stop-color="#A7A5A6" offset="0%"></stop>
            <stop stop-color="#444141" offset="100%"></stop>
        </linearGradient>
        <path d="M28.9755068,0.0335089918 C28.9755068,0.0335089918 -2.14066792,4.60929916 2.05998685,37.2478838 C2.05998685,37.2478838 -5.19360825,19.5415843 7.55468219,2.02337127 C16.257236,0.551119829 23.7469542,0.0292652252 28.9755068,0.0335089918 L28.9755068,0.0335089918 Z" id="path-34"></path>
        <linearGradient x1="-11.9514394%" y1="138.057159%" x2="107.112311%" y2="-92.8936014%" id="linearGradient-36">
            <stop stop-color="#A7A5A6" offset="0%"></stop>
            <stop stop-color="#444141" offset="100%"></stop>
        </linearGradient>
        <path d="M0.0370399467,4.38360172 C17.8888273,40.6884076 57.7204963,47.1806144 57.7204963,47.1806144 C15.064885,34.2540397 9.93288777,0.00267190563 9.93288777,0.00267190563 C9.93288777,0.00267190563 4.6377471,1.87028155 0.0370399467,4.38360172 Z" id="path-37"></path>
        <linearGradient x1="62.1909607%" y1="87.651238%" x2="37.5054154%" y2="17.6980784%" id="linearGradient-39">
            <stop stop-color="#A7A5A6" offset="0%"></stop>
            <stop stop-color="#444141" offset="100%"></stop>
        </linearGradient>
        <path d="M3.02328742,4.27882111 C20.8750748,40.583627 60.7067437,47.0758338 60.7067437,47.0758338 C60.7067437,47.0758338 18.2846361,42.0201692 0.0319056966,6.11656828 C3.385514,3.48458406 12.3622787,0.0278192527 12.3622787,0.0278192527 C12.3622787,0.0278192527 12.3667842,0.0554813346 12.3743284,0.0963981639 C10.9096526,0.639109349 6.74074639,2.24869673 3.02328742,4.27882111 L3.02328742,4.27882111 Z" id="path-40"></path>
        <linearGradient x1="56.166185%" y1="67.2982745%" x2="-6.30697218%" y2="-68.5455535%" id="linearGradient-42">
            <stop stop-color="#A7A5A6" offset="0%"></stop>
            <stop stop-color="#444141" offset="100%"></stop>
        </linearGradient>
        <path d="M6.16214785,9.28827744 C6.16214785,9.28827744 17.3186636,8.08801551 27.2518657,1.43916172 L25.4627368,0.00963981639 C25.4627368,0.00963981639 18.9621475,5.5046495 0.048199082,6.36699395 C0.048199082,6.36699395 1.5041257,8.33791728 6.16214785,9.28827744 Z" id="path-43"></path>
        <linearGradient x1="118.413096%" y1="47.3030836%" x2="-39.3610014%" y2="54.3441524%" id="linearGradient-45">
            <stop stop-color="#E7E6E6" offset="0%"></stop>
            <stop stop-color="#8F8D8D" offset="100%"></stop>
        </linearGradient>
        <path d="M0.024623444,7.2628158 C0.024623444,7.2628158 8.79633246,14.8442694 38.4261942,0.0294957426 C38.4261942,0.0294957426 12.0853959,9.86719032 0.024623444,7.2628158 L0.024623444,7.2628158 Z" id="path-46"></path>
        <linearGradient x1="-5.63172758%" y1="57.2773899%" x2="67.4107423%" y2="46.930455%" id="linearGradient-48">
            <stop stop-color="#E7E6E6" offset="0%"></stop>
            <stop stop-color="#B3B2B2" offset="100%"></stop>
        </linearGradient>
        <path d="M0.031958087,0.0455795666 C0.733464291,0.307531099 1.65658149,0.568434825 2.82645703,0.757039929 C1.87190565,0.614538295 0.921545491,0.388212171 0.031958087,0.0455795666 Z" id="path-49"></path>
        <linearGradient x1="-6107.75591%" y1="-84.6699576%" x2="1578.25834%" y2="83.4212013%" id="linearGradient-51">
            <stop stop-color="#EBEBEB" offset="0%"></stop>
            <stop stop-color="#535051" offset="100%"></stop>
        </linearGradient>
        <path d="M12.819908,0.0251473471 L17.3034704,2.66404708 C13.5958084,3.88998026 7.09207579,5.01637185 7.09207579,5.01637185 C20.6988862,7.05068745 21.6120492,7.72390288 31.3880804,4.86810728 L31.7108047,4.95402738 C31.7108047,4.95402738 17.6853958,10.4539618 4.98650937,8.98755708 C-8.9744595,7.37603125 10.7164372,0.718795005 12.819908,0.0251473471 L12.819908,0.0251473471 Z" id="path-52"></path>
        <linearGradient x1="-72.0595486%" y1="52.9149597%" x2="84.623488%" y2="48.7869573%" id="linearGradient-54">
            <stop stop-color="#A7A5A6" offset="0%"></stop>
            <stop stop-color="#444141" offset="100%"></stop>
        </linearGradient>
        <path d="M5.61519305,2.28159785 C12.4715125,3.07373928 19.7129006,1.83470853 24.92626,0.52652258 C25.7058278,0.371447273 26.5094951,0.207465614 27.3419771,0.0303863778 C27.3419771,0.0303863778 11.4551405,6.07989507 2.14223963,4.16240985 C-0.654354928,3.58611648 -0.104780613,1.6759659 0.665356892,0.359921406 C0.809430235,1.19502289 2.20877532,1.88867055 5.61519305,2.28159785 L5.61519305,2.28159785 Z" id="path-55"></path>
        <linearGradient x1="4.27854152%" y1="50.7269481%" x2="115.420831%" y2="46.5122951%" id="linearGradient-57">
            <stop stop-color="#C4C3C3" offset="0%"></stop>
            <stop stop-color="#444141" offset="100%"></stop>
        </linearGradient>
        <path d="M8.17288781,29.2798945 C8.17288781,29.2798945 -3.7956777,13.9812439 8.7355597,0.0200654874 C8.7355597,0.0200654874 -10.5168301,14.6371706 8.17288781,29.2798945 Z" id="path-58"></path>
        <linearGradient x1="-88.7468107%" y1="8.83603672%" x2="130.17938%" y2="71.8970738%" id="linearGradient-60">
            <stop stop-color="#A7A5A6" offset="0%"></stop>
            <stop stop-color="#444141" offset="100%"></stop>
        </linearGradient>
        <path d="M12.6758347,3.50810731 C12.6758347,3.50810731 17.0881463,2.70585455 18.894564,2.9066142 C18.894564,2.9066142 9.11643723,-2.13695345 0.0392927299,1.10182054 C0.0392927299,1.10182054 7.0595938,0.177634573 12.6758347,3.50810731 L12.6758347,3.50810731 Z" id="path-61"></path>
        <linearGradient x1="161.461517%" y1="57.8460471%" x2="-39.4951375%" y2="44.0168174%" id="linearGradient-63">
            <stop stop-color="#A7A5A6" offset="0%"></stop>
            <stop stop-color="#444141" offset="100%"></stop>
        </linearGradient>
        <path d="M0.0408644391,4.89115901 C0.0408644391,4.89115901 16.0874914,-1.72783231 25.3139483,0.478323498 L27.9214138,2.6839554 L23.1072686,1.68225274 C23.1072686,1.68225274 16.3960703,1.63038634 0.0408644391,4.89115901 L0.0408644391,4.89115901 Z" id="path-64"></path>
        <linearGradient x1="101.663002%" y1="49.1724597%" x2="-258.017175%" y2="53.689521%" id="linearGradient-66">
            <stop stop-color="#A7A5A6" offset="0%"></stop>
            <stop stop-color="#444141" offset="100%"></stop>
        </linearGradient>
        <path d="M22.6677139,42.8039282 C22.6677139,42.8039282 -0.874237044,24.2994624 0.0345776023,1.07295348 C1.31918792,0.703601816 2.63036012,0.34525212 3.96877528,0.000628683678 C3.03538958,23.2414402 22.6677139,42.8039282 22.6677139,42.8039282 Z" id="path-67"></path>
        <linearGradient x1="56.21954%" y1="93.0668978%" x2="9.33951211%" y2="-155.27094%" id="linearGradient-69">
            <stop stop-color="#A7A5A6" offset="0%"></stop>
            <stop stop-color="#444141" offset="100%"></stop>
        </linearGradient>
        <polygon id="path-70" points="0.0471512758 0.0190176813 48.2860499 10.5042564 44.1519308 10.9514077"></polygon>
        <linearGradient x1="107.238586%" y1="53.1193277%" x2="2.86697945%" y2="47.2398554%" id="linearGradient-72">
            <stop stop-color="#FFFFFF" offset="0%"></stop>
            <stop stop-color="#B3B2B2" offset="100%"></stop>
        </linearGradient>
        <polygon id="path-73" points="0.048722985 0.0399214135 56.6396842 12.4887489 52.5045174 12.9359001"></polygon>
        <linearGradient x1="88.1029088%" y1="52.0682409%" x2="-0.857449684%" y2="47.0292494%" id="linearGradient-75">
            <stop stop-color="#FFFFFF" offset="0%"></stop>
            <stop stop-color="#B3B2B2" offset="100%"></stop>
        </linearGradient>
        <polygon id="path-76" points="0.040340536 0.00943025517 60.5841504 13.749574 56.4495074 14.1957298"></polygon>
        <linearGradient x1="75.0802593%" y1="51.4063277%" x2="-8.07672006%" y2="46.5630795%" id="linearGradient-78">
            <stop stop-color="#FFFFFF" offset="0%"></stop>
            <stop stop-color="#B3B2B2" offset="100%"></stop>
        </linearGradient>
        <path d="M0.00838244904,0.015559921 C0.00838244904,0.015559921 1.7608382,1.17490501 3.0946954,3.57239022 C2.01178777,4.32649629 0.894302532,4.46360172 0.366732145,4.4809953 C0.596725591,3.58464955 0.818336587,1.90653564 0.00838244904,0.015559921 L0.00838244904,0.015559921 Z" id="path-79"></path>
        <linearGradient x1="49.9229652%" y1="80.1429007%" x2="273.531437%" y2="841.035268%" id="linearGradient-81">
            <stop stop-color="#F7F7F7" offset="0%"></stop>
            <stop stop-color="#3B3839" offset="100%"></stop>
        </linearGradient>
        <path d="M0.0351015053,1.60712504 C0.0351015053,1.60712504 0.149836277,1.3533464 0.261951532,0.918454463 C0.789521919,0.901060881 1.90700716,0.763955449 2.98991479,0.00984937762 C3.23248191,0.445736728 3.46247536,0.916411241 3.66417804,1.43418464 C3.66417804,1.43418464 2.45396196,1.08935164 0.0351015053,1.60712504 L0.0351015053,1.60712504 Z" id="path-82"></path>
        <linearGradient x1="408.214234%" y1="-45.7477897%" x2="-401.192435%" y2="182.668242%" id="linearGradient-84">
            <stop stop-color="#F7F7F7" offset="0%"></stop>
            <stop stop-color="#3B3839" offset="100%"></stop>
        </linearGradient>
        <path d="M3.68303855,2.79119836 C3.68303855,2.79119836 2.04165024,2.35939745 0.140929924,2.44536995 C0.140929924,2.44536995 0.161886047,1.90711194 0.0434839544,1.1366077 C0.474132274,0.990281573 1.23850685,0.658755714 1.83732805,0.0284479364 C2.63418461,0.772337898 3.36136206,1.70147998 3.68303855,2.79119836 L3.68303855,2.79119836 Z" id="path-85"></path>
        <linearGradient x1="459.162228%" y1="-187.648682%" x2="-537.669498%" y2="419.501141%" id="linearGradient-87">
            <stop stop-color="#F7F7F7" offset="0%"></stop>
            <stop stop-color="#3B3839" offset="100%"></stop>
        </linearGradient>
        <path d="M1.248461,3.17982965 C1.1106745,2.28657493 0.784806791,1.08117875 0.0104780613,0.0272429594 C0.0104780613,0.0272429594 1.63510147,0.759869005 3.0423051,2.07166989 C2.44348389,2.70197767 1.67910932,3.03350353 1.248461,3.17982965 Z" id="path-88"></path>
        <linearGradient x1="13.9374342%" y1="-51.953469%" x2="454.720594%" y2="1025.99585%" id="linearGradient-90">
            <stop stop-color="#F7F7F7" offset="0%"></stop>
            <stop stop-color="#3B3839" offset="100%"></stop>
        </linearGradient>
        <path d="M0.091,0.041199999 C0.256343915,0.0723999982 0.426978836,0.0983999975 0.591,0.13493333 C0.543380952,0.197333328 0.491793651,0.25986666 0.444174603,0.322399992 L0.091,0.041199999 Z" id="path-91"></path>
        <linearGradient x1="-112221.111%" y1="-9514.69097%" x2="-3578.25397%" y2="-257.89172%" id="linearGradient-93">
            <stop stop-color="#EBEBEB" offset="0%"></stop>
            <stop stop-color="#535051" offset="100%"></stop>
        </linearGradient>
        <path d="M30.7882114,10.9683822 L23.92089,10.9244267 C23.8171572,6.05883416 20.9891285,-3.1401178 0.00157170919,1.09406677 C0.00157170919,1.09406677 19.8464959,4.8739226 21.9248194,17.3443349 L30.7882114,10.9683822 Z" id="path-94"></path>
        <linearGradient x1="81.5124906%" y1="62.904531%" x2="-13.8373834%" y2="9.21693723%" id="linearGradient-96">
            <stop stop-color="#A7A5A6" offset="0%"></stop>
            <stop stop-color="#444141" offset="100%"></stop>
        </linearGradient>
        <path d="M61.3747201,1.83680415 L63.6096906,0.229207591 C65.6120481,0.00513425004 68.2656172,-0.13506221 70.5996053,0.267085782 C69.6073329,1.01584804 62.7143403,5.73097563 45.3134239,6.52416487 L40.1425006,6.52416487 L46.269547,12.1901765 L45.2542228,12.0005236 C45.2542228,12.0005236 44.2242294,12.3106742 42.3701365,12.7884738 C40.9482635,12.6533068 39.573018,12.2127043 38.0180737,11.787819 L35.4252774,9.59423683 C26.1988206,7.38808102 10.1521936,14.0070723 10.1521936,14.0070723 L2.73110668,16.0125733 L11.7569087,10.7981661 L8.56895853,8.50242284 L8.40550077,8.34472802 C3.35559913,7.76738684 0.433267835,6.69181385 0.433267835,6.69181385 L0.0298624747,6.58860494 C2.41938435,6.03536331 5.50831682,5.16516032 8.35153876,3.90255393 C10.4073344,5.06928606 13.4223965,5.99816619 17.6481986,5.62095598 L14.2863127,9.24688909 C14.2863127,9.24688909 22.7311062,6.57865079 32.2247536,6.50373265 C32.2247536,6.50373265 36.5637188,6.52521267 38.8830377,7.43313668 L34.3926645,3.71237712 C34.3926645,3.71237712 48.3096255,4.22580212 61.1195793,0.660117862 C61.2217404,1.04361491 61.3076605,1.4354944 61.3747201,1.83680415 L61.3747201,1.83680415 Z" id="path-97"></path>
        <linearGradient x1="-215.229696%" y1="44.8287658%" x2="89.1548627%" y2="50.7572322%" id="linearGradient-99">
            <stop stop-color="#EBEBEB" offset="0%"></stop>
            <stop stop-color="#535051" offset="100%"></stop>
        </linearGradient>
        <path d="M55.954419,1.04167646 C55.954419,1.04167646 66.039553,2.96434832 72.5841501,8.58504235 L72.3227225,8.72628662 C72.3227225,8.72628662 45.9819242,18.5639812 33.9211517,15.9596067 C33.9211517,15.9596067 32.0392919,16.4772753 29.4187288,16.7067448 C30.7646358,15.6464698 31.8182048,14.4247279 32.3677792,13.022868 L0.0136214797,3.90779296 L0.250949568,3.95793048 L37.3411909,13.1518006 L41.4134895,12.710779 L41.4946944,12.7281726 L46.0568423,12.2482774 L11.4645708,2.31151271 L14.8673212,3.06462337 L48.6276347,11.3641909 L51.1428933,11.0920233 L51.1586104,11.0950619 L55.9025526,10.6131235 L22.8390302,0.0296529135 L58.1259972,8.90430888 L62.2606402,8.45815303 L59.3283548,7.79201028 C59.7233777,4.21270454 55.954419,1.04167646 55.954419,1.04167646 L55.954419,1.04167646 Z" id="path-100"></path>
        <linearGradient x1="-184.903732%" y1="45.349329%" x2="111.083101%" y2="51.1922356%" id="linearGradient-102">
            <stop stop-color="#EBEBEB" offset="0%"></stop>
            <stop stop-color="#535051" offset="100%"></stop>
        </linearGradient>
        <polygon id="path-103" points="20.7444658 0.0501375233 0.184937782 9.24605085 0.0461034697 10.8433789"></polygon>
        <linearGradient x1="-1.33137592%" y1="49.9995146%" x2="96.8905032%" y2="49.9995146%" id="linearGradient-105">
            <stop stop-color="#E7E6E6" offset="0%"></stop>
            <stop stop-color="#B3B2B2" offset="100%"></stop>
        </linearGradient>
        <path d="M0.0398166329,5.85723626 C0.0398166329,5.85723626 24.8660112,7.06850015 45.6550087,1.61886047 L41.2908962,0.80681072 L36.9755066,0.00419122452 C36.9755066,0.00419122452 20.2237061,5.04990164 0.0398166329,5.85723626 Z" id="path-106"></path>
        <linearGradient x1="117.997427%" y1="47.8557224%" x2="16.2351266%" y2="51.3866461%" id="linearGradient-108">
            <stop stop-color="#E7E6E6" offset="0%"></stop>
            <stop stop-color="#8F8D8D" offset="100%"></stop>
        </linearGradient>
    </defs>
    <g id="milwaukee" stroke="none" stroke-width="1" fill="none" fill-rule="evenodd">
        <g id="milwaukee_BGL">
            <g id="milwaukee" transform="translate(0.000000, 62.000000)">
                <g id="g10" transform="translate(100.065485, 38.292077) scale(-1, 1) rotate(-180.000000) translate(-100.065485, -38.292077) translate(0.261952, 0.309105)">
                    <g id="g12" transform="translate(0.471513, 0.000000)">
                        <path d="M188.073342,30.3360307 L196.855529,28.070569 L178.812831,35.1330443 L178.812831,35.1688269 L175.63274,36.4192263 C176.101109,37.0321929 176.491941,37.6788465 176.80733,38.346037 L197.872949,32.2014399 L189.97511,35.4594359 C189.976682,35.469652 189.977205,35.4799205 189.979301,35.4890888 L187.410604,36.5594228 C187.409033,36.5461157 187.408509,36.5328085 187.406413,36.5195014 L177.606806,40.5634044 C177.845182,41.471014 177.987684,42.3745373 178.06365,43.231014 L198.714337,36.4090102 L178.154809,45.6049235 L178.015975,47.2022516 C177.920624,48.0709877 177.805366,48.6020158 177.805366,48.6020158 C178.13752,48.4178639 180.046623,54.722199 180.046623,54.722199 C171.240336,61.8980993 161.769217,63.9497037 161.769217,63.9497037 L161.405628,66.4628667 C147.336211,71.2314324 134.963716,72.5317598 125.181398,72.3772084 C120.057102,73.8865731 108.744987,76.8183347 104.162931,74.8054991 C101.963586,73.8383741 103.555728,71.2476734 104.832479,69.6544842 C102.783494,69.0855255 101.689061,68.6538293 101.689061,68.6538293 C70.5079223,73.6429582 78.3156496,62.2611641 78.3156496,62.2611641 C38.7933979,55.5520615 21.244898,38.7563579 14.6267449,30.1283031 C12.8302813,32.6669802 11.9615452,35.347897 12.170111,38.1321798 C14.1815845,65.0100835 72.773803,69.1756368 73.4244906,69.6146675 C33.5899402,67.3723624 3.97163579,55.1486561 2.9623051,36.1081851 C1.97630381,17.5177992 44.8158208,2.40156117 96.4432196,2.40156117 C103.501242,2.40156117 110.363324,2.7091499 116.962407,3.2790988 C107.268629,8.58462323 104.35206,11.9597116 103.238242,13.6271902 C110.993056,17.8288928 118.128091,15.3587422 118.128091,15.3587422 C120.573147,12.9142105 121.837849,10.9831562 122.476487,9.54242281 C123.442564,7.36618187 122.97629,6.31098871 122.97629,6.31098871 C124.41388,4.72924677 126.235491,3.72441641 127.814535,3.09532409 C140.111064,-0.259291153 153.131627,5.84356239 156.906872,9.54242281 C156.753369,9.39201024 155.144986,11.384466 154.419381,11.8113422 C155.391221,13.701113 156.612963,17.0503729 157.405628,20.513896 C157.405628,20.513896 156.817809,19.871067 155.833395,19.124086 C154.780874,18.3241384 153.731496,17.3139485 152.192269,16.4998555 L149.554941,17.3317612 C150.0757,18.491735 150.458149,19.7658672 150.551404,21.0870984 C150.551404,21.0870984 148.847148,19.5389124 146.147999,18.4078057 L145.586375,18.5848325 L143.803533,23.0087748 L140.440075,23.9151271 L140.135163,29.0528873 L136.161883,30.865068 C135.854352,31.4698093 139.065353,32.2965807 139.065353,32.2965807 C141.743546,31.3470064 145.631431,31.0011256 145.631431,31.0011256 C146.765157,28.4430117 145.915386,23.7759784 145.915386,23.7759784 C150.402616,25.0427761 154.108182,30.8364105 154.108182,30.8364105 L158.331889,31.0870981 C158.563978,28.4256181 157.180874,24.4421212 157.180874,24.4421212 C164.206938,27.0268494 166.723244,32.1164629 166.723244,32.1164629 C169.496787,32.3487615 171.609164,33.1049632 173.218594,34.1701629 L185.286177,31.055402" id="path14" fill="#231F20" fill-rule="nonzero"></path>
                        <g id="g16" transform="translate(167.491810, 35.730189)">
                            <g id="g18-Clipped">
                                <mask id="mask-2" fill="white">
                                    <use xlink:href="#path-1"></use>
                                </mask>
                                <g id="path20"></g>
                                <g id="g18" mask="url(#mask-2)" fill="url(#linearGradient-3)" fill-rule="nonzero">
                                    <path d="M6.00707254,9.60052366 C6.00707254,9.60052366 7.96332659,-1.00647018 0.0398166329,0.111958085 C0.0398166329,0.111958085 5.26732141,5.95468223 6.00707254,9.60052366" id="path30"></path>
                                </g>
                            </g>
                        </g>
                        <g id="g32" transform="translate(143.287488, 36.306482)">
                            <g id="g34-Clipped">
                                <mask id="mask-5" fill="white">
                                    <use xlink:href="#path-4"></use>
                                </mask>
                                <g id="path36"></g>
                                <g id="g34" mask="url(#mask-5)" fill="url(#linearGradient-6)" fill-rule="nonzero">
                                    <path d="M30.7882114,10.9683822 L23.92089,10.9244267 C23.8171572,6.05883416 20.9891285,-3.1401178 0.00157170919,1.09406677 C0.00157170919,1.09406677 19.8464959,4.8739226 21.9248194,17.3443349 L30.7882114,10.9683822" id="path46"></path>
                                </g>
                            </g>
                        </g>
                        <g id="g48" transform="translate(121.231169, 45.055664)">
                            <g id="g50-Clipped">
                                <mask id="mask-8" fill="white">
                                    <use xlink:href="#path-7"></use>
                                </mask>
                                <g id="path52"></g>
                                <g id="g50" mask="url(#mask-8)" fill="url(#linearGradient-9)" fill-rule="nonzero">
                                    <path d="M0.024623444,7.2628158 C0.024623444,7.2628158 8.79633246,14.8442694 38.4261942,0.0294957426 C38.4261942,0.0294957426 12.0853959,9.86719032 0.024623444,7.2628158" id="path62"></path>
                                </g>
                            </g>
                        </g>
                        <g id="g64" transform="translate(167.491810, 35.730189)">
                            <g id="g66-Clipped">
                                <mask id="mask-11" fill="white">
                                    <use xlink:href="#path-10"></use>
                                </mask>
                                <g id="path68"></g>
                                <g id="g66" mask="url(#mask-11)" fill="url(#linearGradient-12)" fill-rule="nonzero">
                                    <path d="M6.00707254,9.60052366 C6.00707254,9.60052366 7.96332659,-1.00647018 0.0398166329,0.111958085 C0.0398166329,0.111958085 5.26732141,5.95468223 6.00707254,9.60052366" id="path78"></path>
                                </g>
                            </g>
                        </g>
                        <g id="g80" transform="translate(127.413225, 16.136214)">
                            <g id="g82-Clipped">
                                <mask id="mask-14" fill="white">
                                    <use xlink:href="#path-13"></use>
                                </mask>
                                <g id="path84"></g>
                                <g id="g82" mask="url(#mask-14)" fill="url(#linearGradient-15)" fill-rule="nonzero">
                                    <path d="M8.62973128,0.494616884 C2.18624749,4.06559256 7.07111967,8.86360161 1.19083167,12.8890632 L0.0450556636,14.5190828 C2.5299279,14.2622131 4.75756373,13.8171051 6.43510135,11.9854876 C6.43510135,11.9854876 8.44269789,10.6634706 8.52809409,5.95038623 C8.61349029,1.23855924 14.2685,2.18053695 14.2685,2.18053695 C14.2685,2.18053695 11.6447934,-1.17569087 8.62973128,0.494616884" id="path94"></path>
                                </g>
                            </g>
                        </g>
                        <g id="g96" transform="translate(148.526519, 11.368697)">
                            <g id="g98-Clipped">
                                <mask id="mask-17" fill="white">
                                    <use xlink:href="#path-16"></use>
                                </mask>
                                <g id="path100"></g>
                                <g id="g98" mask="url(#mask-17)" fill="url(#linearGradient-18)" fill-rule="nonzero">
                                    <path d="M0.0303863778,1.69367383 C0.0303863778,1.69367383 3.21728872,2.45291415 5.54708565,4.73723629 L6.52730828,5.40929914 C6.52730828,5.40929914 5.63457746,1.56065484 3.05854609,0.0382449237 C3.05854609,0.0382449237 1.13425014,0.60516043 0.0303863778,1.69367383" id="path110"></path>
                                </g>
                            </g>
                        </g>
                        <g id="g112" transform="translate(140.144070, 12.102161)">
                            <g id="g114-Clipped">
                                <mask id="mask-20" fill="white">
                                    <use xlink:href="#path-19"></use>
                                </mask>
                                <g id="path116"></g>
                                <g id="g114" mask="url(#mask-20)" fill="url(#linearGradient-21)" fill-rule="nonzero">
                                    <path d="M3.12612959,0.0372495079 C5.15887348,-0.035206286 7.67046477,5.2998034 7.67046477,5.2998034 C4.95926641,3.09265218 0.00576293371,1.49579564 0.00576293371,1.49579564 C0.00576293371,1.49579564 0.621349035,0.126260639 3.12612959,0.0372495079" id="path126"></path>
                                </g>
                            </g>
                        </g>
                        <g id="g128" transform="translate(119.607070, 13.411918)">
                            <g id="g130-Clipped">
                                <mask id="mask-23" fill="white">
                                    <use xlink:href="#path-22"></use>
                                </mask>
                                <g id="path132"></g>
                                <g id="g130" mask="url(#mask-23)" fill="url(#linearGradient-24)" fill-rule="nonzero">
                                    <path d="M12.6685,22.1600518 C12.6685,22.1600518 -10.3161752,19.3185064 13.8991483,0.0497184009 C13.8991483,0.0497184009 -16.4709885,20.3335686 12.6685,22.1600518" id="path142"></path>
                                </g>
                            </g>
                        </g>
                        <path d="M178.09456,46.2976806 L178.247893,45.6049235 L178.09456,46.2997238 C178.09456,46.2997238 178.09456,46.2987284 178.09456,46.2976806" id="path144" fill="#FBBC09" fill-rule="nonzero"></path>
                        <g id="g146" transform="translate(177.655529, 32.167648)">
                            <g id="g148-Clipped">
                                <mask id="mask-26" fill="white">
                                    <use xlink:href="#path-25"></use>
                                </mask>
                                <g id="path150"></g>
                                <g id="g148" mask="url(#mask-26)" fill="url(#linearGradient-27)" fill-rule="nonzero">
                                    <polygon id="path160" points="20.2174193 0.0337917477 0.0130975766 8.44998014 0.238899798 9.5970659"></polygon>
                                </g>
                            </g>
                        </g>
                        <g id="g162" transform="translate(175.612307, 28.028814)">
                            <g id="g164-Clipped">
                                <mask id="mask-29" fill="white">
                                    <use xlink:href="#path-28"></use>
                                </mask>
                                <g id="path166"></g>
                                <g id="g164" mask="url(#mask-29)" fill="url(#linearGradient-30)" fill-rule="nonzero">
                                    <path d="M13.1473474,3.63337254 L12.5527174,3.89736729 L0.58467582,9.20801549 C0.4102161,8.93071359 0.223706609,8.65645034 0.0204322195,8.39041236 L3.20052382,7.14001292 L3.20052382,7.10423034 L21.2432215,0.0417550743 L13.1473474,3.63337254 L13.1473474,3.63337254" id="path176"></path>
                                </g>
                            </g>
                        </g>
                        <path d="M176.287291,37.1330836 C176.125487,36.9652024 175.958378,36.7991897 175.787291,36.6330836 C175.958378,36.7991897 176.126814,36.9652024 176.287291,37.1330836" id="path178" fill="#FBBC09" fill-rule="nonzero"></path>
                        <g id="g180" transform="translate(41.545513, 6.548788)">
                            <g id="g182-Clipped">
                                <mask id="mask-32" fill="white">
                                    <use xlink:href="#path-31"></use>
                                </mask>
                                <g id="path184"></g>
                                <g id="g182" mask="url(#mask-32)" fill="url(#linearGradient-33)" fill-rule="nonzero">
                                    <path d="M0.0413359518,2.14124422 C-0.928303841,25.4080937 18.7384409,45.0043211 18.7384409,45.0043211 C-0.165553368,25.3814794 9.3792794,0.0261951532 9.3792794,0.0261951532 C9.3792794,0.0261951532 5.30368029,0.747609674 0.0413359518,2.14124422" id="path194"></path>
                                </g>
                            </g>
                        </g>
                        <g id="g196" transform="translate(55.638505, 2.671906)">
                            <g id="g198-Clipped">
                                <mask id="mask-35" fill="white">
                                    <use xlink:href="#path-34"></use>
                                </mask>
                                <g id="path200"></g>
                                <g id="g198" mask="url(#mask-35)" fill="url(#linearGradient-36)" fill-rule="nonzero">
                                    <path d="M28.9755068,0.0335089918 C28.9755068,0.0335089918 -2.14066792,4.60929916 2.05998685,37.2478838 C2.05998685,37.2478838 -5.19360825,19.5415843 7.55468219,2.02337127 C16.257236,0.551119829 23.7469542,0.0292652252 28.9755068,0.0335089918" id="path210"></path>
                                </g>
                            </g>
                        </g>
                        <g id="g212" transform="translate(18.074656, 13.097577)">
                            <g id="g214-Clipped">
                                <mask id="mask-38" fill="white">
                                    <use xlink:href="#path-37"></use>
                                </mask>
                                <g id="path216"></g>
                                <g id="g214" mask="url(#mask-38)" fill="url(#linearGradient-39)" fill-rule="nonzero">
                                    <path d="M0.0370399467,4.38360172 C17.8888273,40.6884076 57.7204963,47.1806144 57.7204963,47.1806144 C15.064885,34.2540397 9.93288777,0.00267190563 9.93288777,0.00267190563 C9.93288777,0.00267190563 4.6377471,1.87028155 0.0370399467,4.38360172" id="path226"></path>
                                </g>
                            </g>
                        </g>
                        <g id="g228" transform="translate(15.088408, 13.202357)">
                            <g id="g230-Clipped">
                                <mask id="mask-41" fill="white">
                                    <use xlink:href="#path-40"></use>
                                </mask>
                                <g id="path232"></g>
                                <g id="g230" mask="url(#mask-41)" fill="url(#linearGradient-42)" fill-rule="nonzero">
                                    <path d="M3.02328742,4.27882111 C20.8750748,40.583627 60.7067437,47.0758338 60.7067437,47.0758338 C60.7067437,47.0758338 18.2846361,42.0201692 0.0319056966,6.11656828 C3.385514,3.48458406 12.3622787,0.0278192527 12.3622787,0.0278192527 C12.3622787,0.0278192527 12.3667842,0.0554813346 12.3743284,0.0963981639 C10.9096526,0.639109349 6.74074639,2.24869673 3.02328742,4.27882111" id="path242"></path>
                                </g>
                            </g>
                        </g>
                        <g id="g244" transform="translate(149.102812, 51.971184)">
                            <g id="g246-Clipped">
                                <mask id="mask-44" fill="white">
                                    <use xlink:href="#path-43"></use>
                                </mask>
                                <g id="path248"></g>
                                <g id="g246" mask="url(#mask-44)" fill="url(#linearGradient-45)" fill-rule="nonzero">
                                    <path d="M6.16214785,9.28827744 C6.16214785,9.28827744 17.3186636,8.08801551 27.2518657,1.43916172 L25.4627368,0.00963981639 C25.4627368,0.00963981639 18.9621475,5.5046495 0.048199082,6.36699395 C0.048199082,6.36699395 1.5041257,8.33791728 6.16214785,9.28827744" id="path258"></path>
                                </g>
                            </g>
                        </g>
                        <path d="M134.05946,55.0485906 C133.692204,55.2717733 134.649898,56.3939737 134.649898,56.3939737 C128.731889,56.4688918 124.019381,57.7980339 124.019381,57.7980339 C124.019381,57.7980339 127.894692,55.3225919 134.05946,55.0485906" id="path260" fill="#FBBC09" fill-rule="nonzero"></path>
                        <g id="g262" transform="translate(121.231169, 45.055664)">
                            <g id="g264-Clipped">
                                <mask id="mask-47" fill="white">
                                    <use xlink:href="#path-46"></use>
                                </mask>
                                <g id="path266"></g>
                                <g id="g264" mask="url(#mask-47)" fill="url(#linearGradient-48)" fill-rule="nonzero">
                                    <path d="M0.024623444,7.2628158 C0.024623444,7.2628158 8.79633246,14.8442694 38.4261942,0.0294957426 C38.4261942,0.0294957426 12.0853959,9.86719032 0.024623444,7.2628158" id="path276"></path>
                                </g>
                            </g>
                        </g>
                        <g id="g278" transform="translate(123.064830, 53.228551)">
                            <g id="g280-Clipped">
                                <mask id="mask-50" fill="white">
                                    <use xlink:href="#path-49"></use>
                                </mask>
                                <g id="path282"></g>
                                <g id="g280" mask="url(#mask-50)" fill="url(#linearGradient-51)" fill-rule="nonzero">
                                    <path d="M0.031958087,0.0455795666 C0.733464291,0.307531099 1.65658149,0.568434825 2.82645703,0.757039929 C1.87190565,0.614538295 0.921545491,0.388212171 0.031958087,0.0455795666" id="path292"></path>
                                </g>
                            </g>
                        </g>
                        <g id="g294" transform="translate(81.362146, 55.900457)">
                            <g id="g296-Clipped">
                                <mask id="mask-53" fill="white">
                                    <use xlink:href="#path-52"></use>
                                </mask>
                                <g id="path298"></g>
                                <g id="g296" mask="url(#mask-53)" fill="url(#linearGradient-54)" fill-rule="nonzero">
                                    <path d="M12.819908,0.0251473471 L17.3034704,2.66404708 C13.5958084,3.88998026 7.09207579,5.01637185 7.09207579,5.01637185 C20.6988862,7.05068745 21.6120492,7.72390288 31.3880804,4.86810728 L31.7108047,4.95402738 C31.7108047,4.95402738 17.6853958,10.4539618 4.98650937,8.98755708 C-8.9744595,7.37603125 10.7164372,0.718795005 12.819908,0.0251473471" id="path308"></path>
                                </g>
                            </g>
                        </g>
                        <g id="g310" transform="translate(80.733462, 62.606416)">
                            <g id="g312-Clipped">
                                <mask id="mask-56" fill="white">
                                    <use xlink:href="#path-55"></use>
                                </mask>
                                <g id="path314"></g>
                                <g id="g312" mask="url(#mask-56)" fill="url(#linearGradient-57)" fill-rule="nonzero">
                                    <path d="M5.61519305,2.28159785 C12.4715125,3.07373928 19.7129006,1.83470853 24.92626,0.52652258 C25.7058278,0.371447273 26.5094951,0.207465614 27.3419771,0.0303863778 C27.3419771,0.0303863778 11.4551405,6.07989507 2.14223963,4.16240985 C-0.654354928,3.58611648 -0.104780613,1.6759659 0.665356892,0.359921406 C0.809430235,1.19502289 2.20877532,1.88867055 5.61519305,2.28159785" id="path324"></path>
                                </g>
                            </g>
                        </g>
                        <g id="g326" transform="translate(89.796985, 23.366077)">
                            <g id="g328-Clipped">
                                <mask id="mask-59" fill="white">
                                    <use xlink:href="#path-58"></use>
                                </mask>
                                <g id="path330"></g>
                                <g id="g328" mask="url(#mask-59)" fill="url(#linearGradient-60)" fill-rule="nonzero">
                                    <path d="M8.17288781,29.2798945 C8.17288781,29.2798945 -3.7956777,13.9812439 8.7355597,0.0200654874 C8.7355597,0.0200654874 -10.5168301,14.6371706 8.17288781,29.2798945" id="path340"></path>
                                </g>
                            </g>
                        </g>
                        <g id="g342" transform="translate(130.766205, 5.029469)">
                            <g id="g344-Clipped">
                                <mask id="mask-62" fill="white">
                                    <use xlink:href="#path-61"></use>
                                </mask>
                                <g id="path346"></g>
                                <g id="g344" mask="url(#mask-62)" fill="url(#linearGradient-63)" fill-rule="nonzero">
                                    <path d="M12.6758347,3.50810731 C12.6758347,3.50810731 17.0881463,2.70585455 18.894564,2.9066142 C18.894564,2.9066142 9.11643723,-2.13695345 0.0392927299,1.10182054 C0.0392927299,1.10182054 7.0595938,0.177634573 12.6758347,3.50810731" id="path356"></path>
                                </g>
                            </g>
                        </g>
                        <g id="g358" transform="translate(113.948917, 60.929926)">
                            <g id="g360-Clipped">
                                <mask id="mask-65" fill="white">
                                    <use xlink:href="#path-64"></use>
                                </mask>
                                <g id="path362"></g>
                                <g id="g360" mask="url(#mask-65)" fill="url(#linearGradient-66)" fill-rule="nonzero">
                                    <path d="M0.0408644391,4.89115901 C0.0408644391,4.89115901 16.0874914,-1.72783231 25.3139483,0.478323498 L27.9214138,2.6839554 L23.1072686,1.68225274 C23.1072686,1.68225274 16.3960703,1.63038634 0.0408644391,4.89115901" id="path372"></path>
                                </g>
                            </g>
                        </g>
                        <path d="M121.432872,1.05455924 C121.458543,0.979248175 121.482119,0.928906329 121.502551,0.908437436 C119.841778,1.73829465 118.332414,2.5294721 116.958216,3.28114727 C110.360181,2.71119836 103.500718,2.40156117 96.4432196,2.40156117 C44.8158208,2.40156117 1.97630381,17.5177992 2.9623051,36.1081851 C3.94482767,54.6362789 32.0184406,66.7085772 70.2333971,69.4108693 C72.465748,69.6246217 75.8244906,69.8436132 76.033004,70.022788 C59.565159,69.5696119 1.31364502,65.7927947 0.0708087998,36.7241903 C-1.32735557,4.01092852 77.087097,-2.68602482 121.883429,0.847250797 C121.747738,0.908437436 121.597901,0.978226564 121.432872,1.05455924" id="path374" fill="#FBBC09" fill-rule="nonzero"></path>
                        <g id="g376" transform="translate(37.616240, 8.749181)">
                            <g id="g378-Clipped">
                                <mask id="mask-68" fill="white">
                                    <use xlink:href="#path-67"></use>
                                </mask>
                                <g id="path380"></g>
                                <g id="g378" mask="url(#mask-68)" fill="url(#linearGradient-69)" fill-rule="nonzero">
                                    <path d="M22.6677139,42.8039282 C22.6677139,42.8039282 -0.874237044,24.2994624 0.0345776023,1.07295348 C1.31918792,0.703601816 2.63036012,0.34525212 3.96877528,0.000628683678 C3.03538958,23.2414402 22.6677139,42.8039282 22.6677139,42.8039282" id="path390"></path>
                                </g>
                            </g>
                        </g>
                        <g id="g392" transform="translate(80.523901, 38.559266)">
                            <g id="g394-Clipped">
                                <mask id="mask-71" fill="white">
                                    <use xlink:href="#path-70"></use>
                                </mask>
                                <g id="path396"></g>
                                <g id="g394" mask="url(#mask-71)" fill="url(#linearGradient-72)" fill-rule="nonzero">
                                    <polygon id="path406" points="0.0471512758 0.0190176813 48.2860499 10.5042564 44.1519308 10.9514077"></polygon>
                                </g>
                            </g>
                        </g>
                        <g id="g408" transform="translate(83.457758, 34.787164)">
                            <g id="g410-Clipped">
                                <mask id="mask-74" fill="white">
                                    <use xlink:href="#path-73"></use>
                                </mask>
                                <g id="path412"></g>
                                <g id="g410" mask="url(#mask-74)" fill="url(#linearGradient-75)" fill-rule="nonzero">
                                    <polygon id="path422" points="0.048722985 0.0399214135 56.6396842 12.4887489 52.5045174 12.9359001"></polygon>
                                </g>
                            </g>
                        </g>
                        <g id="g424" transform="translate(89.011131, 31.067452)">
                            <g id="g426-Clipped">
                                <mask id="mask-77" fill="white">
                                    <use xlink:href="#path-76"></use>
                                </mask>
                                <g id="path428"></g>
                                <g id="g426" mask="url(#mask-77)" fill="url(#linearGradient-78)" fill-rule="nonzero">
                                    <polygon id="path438" points="0.040340536 0.00943025517 60.5841504 13.749574 56.4495074 14.1957298"></polygon>
                                </g>
                            </g>
                        </g>
                        <g id="g440" transform="translate(147.478713, 26.090373)">
                            <g id="g442-Clipped">
                                <mask id="mask-80" fill="white">
                                    <use xlink:href="#path-79"></use>
                                </mask>
                                <g id="path444"></g>
                                <g id="g442" mask="url(#mask-80)" fill="url(#linearGradient-81)" fill-rule="nonzero">
                                    <path d="M0.00838244904,0.015559921 C0.00838244904,0.015559921 1.7608382,1.17490501 3.0946954,3.57239022 C2.01178777,4.32649629 0.894302532,4.46360172 0.366732145,4.4809953 C0.596725591,3.58464955 0.818336587,1.90653564 0.00838244904,0.015559921" id="path454"></path>
                                </g>
                            </g>
                        </g>
                        <g id="g456" transform="translate(147.583493, 29.652913)">
                            <g id="g458-Clipped">
                                <mask id="mask-83" fill="white">
                                    <use xlink:href="#path-82"></use>
                                </mask>
                                <g id="path460"></g>
                                <g id="g458" mask="url(#mask-83)" fill="url(#linearGradient-84)" fill-rule="nonzero">
                                    <path d="M0.0351015053,1.60712504 C0.0351015053,1.60712504 0.149836277,1.3533464 0.261951532,0.918454463 C0.789521919,0.901060881 1.90700716,0.763955449 2.98991479,0.00984937762 C3.23248191,0.445736728 3.46247536,0.916411241 3.66417804,1.43418464 C3.66417804,1.43418464 2.45396196,1.08935164 0.0351015053,1.60712504" id="path470"></path>
                                </g>
                            </g>
                        </g>
                        <g id="g472" transform="translate(160.523899, 28.814669)">
                            <g id="g474-Clipped">
                                <mask id="mask-86" fill="white">
                                    <use xlink:href="#path-85"></use>
                                </mask>
                                <g id="path476"></g>
                                <g id="g474" mask="url(#mask-86)" fill="url(#linearGradient-87)" fill-rule="nonzero">
                                    <path d="M3.68303855,2.79119836 C3.68303855,2.79119836 2.04165024,2.35939745 0.140929924,2.44536995 C0.140929924,2.44536995 0.161886047,1.90711194 0.0434839544,1.1366077 C0.474132274,0.990281573 1.23850685,0.658755714 1.83732805,0.0284479364 C2.63418461,0.772337898 3.36136206,1.70147998 3.68303855,2.79119836" id="path486"></path>
                                </g>
                            </g>
                        </g>
                        <g id="g488" transform="translate(159.318922, 26.771447)">
                            <g id="g490-Clipped">
                                <mask id="mask-89" fill="white">
                                    <use xlink:href="#path-88"></use>
                                </mask>
                                <g id="path492"></g>
                                <g id="g490" mask="url(#mask-89)" fill="url(#linearGradient-90)" fill-rule="nonzero">
                                    <path d="M1.248461,3.17982965 C1.1106745,2.28657493 0.784806791,1.08117875 0.0104780613,0.0272429594 C0.0104780613,0.0272429594 1.63510147,0.759869005 3.0423051,2.07166989 C2.44348389,2.70197767 1.67910932,3.03350353 1.248461,3.17982965" id="path502"></path>
                                </g>
                            </g>
                        </g>
                        <g id="g504" transform="translate(174.721672, 52.128355)">
                            <g id="g506-Clipped">
                                <mask id="mask-92" fill="white">
                                    <use xlink:href="#path-91"></use>
                                </mask>
                                <g id="path508"></g>
                                <g id="g506" mask="url(#mask-92)" fill="url(#linearGradient-93)" fill-rule="nonzero">
                                    <path d="M0.091,0.041199999 C0.256343915,0.0723999982 0.426978836,0.0983999975 0.591,0.13493333 C0.543380952,0.197333328 0.491793651,0.25986666 0.444174603,0.322399992 L0.091,0.041199999" id="path518"></path>
                                </g>
                            </g>
                        </g>
                        <g id="g520" transform="translate(143.287488, 36.306482)">
                            <g id="g522-Clipped">
                                <mask id="mask-95" fill="white">
                                    <use xlink:href="#path-94"></use>
                                </mask>
                                <g id="path524"></g>
                                <g id="g522" mask="url(#mask-95)" fill="url(#linearGradient-96)" fill-rule="nonzero">
                                    <path d="M30.7882114,10.9683822 L23.92089,10.9244267 C23.8171572,6.05883416 20.9891285,-3.1401178 0.00157170919,1.09406677 C0.00157170919,1.09406677 19.8464959,4.8739226 21.9248194,17.3443349 L30.7882114,10.9683822" id="path534"></path>
                                </g>
                            </g>
                        </g>
                        <g id="g536" transform="translate(103.837587, 51.814013)">
                            <g id="g538-Clipped">
                                <mask id="mask-98" fill="white">
                                    <use xlink:href="#path-97"></use>
                                </mask>
                                <g id="path540"></g>
                                <g id="g538" mask="url(#mask-98)" fill="url(#linearGradient-99)" fill-rule="nonzero">
                                    <path d="M61.3747201,1.83680415 L63.6096906,0.229207591 C65.6120481,0.00513425004 68.2656172,-0.13506221 70.5996053,0.267085782 C69.6073329,1.01584804 62.7143403,5.73097563 45.3134239,6.52416487 L40.1425006,6.52416487 L46.269547,12.1901765 L45.2542228,12.0005236 C45.2542228,12.0005236 44.2242294,12.3106742 42.3701365,12.7884738 C40.9482635,12.6533068 39.573018,12.2127043 38.0180737,11.787819 L35.4252774,9.59423683 C26.1988206,7.38808102 10.1521936,14.0070723 10.1521936,14.0070723 L2.73110668,16.0125733 L11.7569087,10.7981661 L8.56895853,8.50242284 L8.40550077,8.34472802 C3.35559913,7.76738684 0.433267835,6.69181385 0.433267835,6.69181385 L0.0298624747,6.58860494 C2.41938435,6.03536331 5.50831682,5.16516032 8.35153876,3.90255393 C10.4073344,5.06928606 13.4223965,5.99816619 17.6481986,5.62095598 L14.2863127,9.24688909 C14.2863127,9.24688909 22.7311062,6.57865079 32.2247536,6.50373265 C32.2247536,6.50373265 36.5637188,6.52521267 38.8830377,7.43313668 L34.3926645,3.71237712 C34.3926645,3.71237712 48.3096255,4.22580212 61.1195793,0.660117862 C61.2217404,1.04361491 61.3076605,1.4354944 61.3747201,1.83680415" id="path550"></path>
                                </g>
                            </g>
                        </g>
                        <g id="g552" transform="translate(87.334641, 36.358873)">
                            <g id="g554-Clipped">
                                <mask id="mask-101" fill="white">
                                    <use xlink:href="#path-100"></use>
                                </mask>
                                <g id="path556"></g>
                                <g id="g554" mask="url(#mask-101)" fill="url(#linearGradient-102)" fill-rule="nonzero">
                                    <path d="M55.954419,1.04167646 C55.954419,1.04167646 66.039553,2.96434832 72.5841501,8.58504235 L72.3227225,8.72628662 C72.3227225,8.72628662 45.9819242,18.5639812 33.9211517,15.9596067 C33.9211517,15.9596067 32.0392919,16.4772753 29.4187288,16.7067448 C30.7646358,15.6464698 31.8182048,14.4247279 32.3677792,13.022868 L0.0136214797,3.90779296 L0.250949568,3.95793048 L37.3411909,13.1518006 L41.4134895,12.710779 L41.4946944,12.7281726 L46.0568423,12.2482774 L11.4645708,2.31151271 L14.8673212,3.06462337 L48.6276347,11.3641909 L51.1428933,11.0920233 L51.1586104,11.0950619 L55.9025526,10.6131235 L22.8390302,0.0296529135 L58.1259972,8.90430888 L62.2606402,8.45815303 L59.3283548,7.79201028 C59.7233777,4.21270454 55.954419,1.04167646 55.954419,1.04167646" id="path566"></path>
                                </g>
                            </g>
                        </g>
                        <path d="M189.979301,35.506155 C189.977729,35.4966627 189.977205,35.4871161 189.97511,35.476539 C189.97511,35.476539 189.97511,35.476539 189.97511,35.4754542 L191.074258,35.006155 C191.074782,35.0156473 191.075306,35.0241632 191.07583,35.0337098 L189.979301,35.506155" id="path568" fill="#FBBC09" fill-rule="nonzero"></path>
                        <g id="g570" transform="translate(177.969871, 36.358873)">
                            <g id="g572-Clipped">
                                <mask id="mask-104" fill="white">
                                    <use xlink:href="#path-103"></use>
                                </mask>
                                <g id="path574"></g>
                                <g id="g572" mask="url(#mask-104)" fill="url(#linearGradient-105)" fill-rule="nonzero">
                                    <polygon id="path584" points="20.7444658 0.0501375233 0.184937782 9.24605085 0.0461034697 10.8433789"></polygon>
                                </g>
                            </g>
                        </g>
                        <path d="M189.835752,29.8817019 L188.077533,30.3817019 C188.055005,30.3387689 188.024619,30.2925421 187.998424,30.2485111" id="path586" fill="#FBBC09" fill-rule="nonzero"></path>
                        <path d="M162.080415,10.4387686 L162.080415,9.7916435 L162.828025,9.7916435 C163.091548,9.7916435 163.236669,9.87965922 163.236669,10.0935164 C163.236669,10.3890502 163.041777,10.4387686 162.696001,10.4387686 L162.080415,10.4387686 Z M162.080415,8.26519953 L161.470592,8.26519953 L161.470592,10.9166206 L162.959524,10.9166206 C163.512766,10.8978124 163.845968,10.6970528 163.845968,10.0998557 C163.845968,9.60361469 163.588208,9.40877514 163.142367,9.37723618 L163.763716,8.26519953 L163.073211,8.26519953 L162.507396,9.3144202 L162.080415,9.3144202 L162.080415,8.26519953 Z M160.760703,9.60361469 C160.760703,8.50399455 161.489976,7.75009804 162.595412,7.75009804 C163.695084,7.75009804 164.455268,8.52919429 164.455268,9.62834292 C164.455268,10.7279631 163.695084,11.4572885 162.595412,11.4572885 C161.489976,11.4572885 160.760703,10.7027633 160.760703,9.60361469 Z M165.065091,9.60361469 C165.065091,8.2588603 164.090631,7.15290093 162.607985,7.15290093 C160.88644,7.15290093 160.151404,8.44117857 160.151404,9.60361469 C160.151404,10.7410606 160.873866,12.0538569 162.607985,12.0538569 C164.216892,12.0538569 165.065091,10.8787424 165.065091,9.60361469 L165.065091,9.60361469 Z" id="path588" fill="#231F20" fill-rule="nonzero"></path>
                        <g id="g590" transform="translate(112.115256, 63.811393)">
                            <g id="g592-Clipped">
                                <mask id="mask-107" fill="white">
                                    <use xlink:href="#path-106"></use>
                                </mask>
                                <g id="path594"></g>
                                <g id="g592" mask="url(#mask-107)" fill="url(#linearGradient-108)" fill-rule="nonzero">
                                    <path d="M0.0398166329,5.85723626 C0.0398166329,5.85723626 24.8660112,7.06850015 45.6550087,1.61886047 L41.2908962,0.80681072 L36.9755066,0.00419122452 C36.9755066,0.00419122452 20.2237061,5.04990164 0.0398166329,5.85723626" id="path604"></path>
                                </g>
                            </g>
                        </g>
                    </g>
                </g>
            </g>
        </g>
    </g>
</svg>