<?xml version="1.0" encoding="UTF-8"?>
<svg width="200px" height="200px" viewBox="0 0 200 200" version="1.1" xmlns="http://www.w3.org/2000/svg" xmlns:xlink="http://www.w3.org/1999/xlink">
    <!-- Generator: Sketch 60.1 (88133) - https://sketch.com -->
    <title>missouri</title>
    <desc>Created with Sketch.</desc>
    <defs>
        <polygon id="path-1" points="0.0882352941 0.511764706 199.119118 0.511764706 199.119118 113.147059 0.0882352941 113.147059"></polygon>
    </defs>
    <g id="missouri" stroke="none" stroke-width="1" fill="none" fill-rule="evenodd">
        <g id="missouri_BGL">
            <g id="missouri-copy" transform="translate(0.000000, 43.000000)">
                <g id="Group-3">
                    <mask id="mask-2" fill="white">
                        <use xlink:href="#path-1"></use>
                    </mask>
                    <g id="Clip-2"></g>
                    <path d="M122.982353,12.1588235 L122.933824,12.1617647 L110.655882,9.58970588 C105.795588,8.54705882 105.623529,12.3764706 105.623529,12.3764706 C105.488235,12.3764706 105.35,12.3735294 105.205882,12.3764706 C105.316176,11.0661765 105.623529,7.90147059 107.444118,7.47352941 C108.291176,7.30735294 109.642647,7.48235294 111.910294,8.26911765 C113.789706,8.92941176 120.872059,11.4632353 122.722059,11.7882353 L122.982353,12.1588235 Z M150.073529,102.530882 C151.760294,100.485294 152.866176,98.3764706 153.601471,96.5397059 C176.497059,87.6176471 191.382353,73.1764706 191.382353,56.8705882 C191.382353,33.4676471 160.702941,13.8955882 119.657353,8.99852941 C117.560294,7.99117647 115.505882,7.04558824 113.914706,6.36764706 C107.211765,3.49264706 105.677941,4.79117647 104.013235,6.36764706 C103.486765,6.86764706 103.072059,7.36764706 102.736765,7.85 C101.682353,7.83235294 100.623529,7.81764706 99.5632353,7.81764706 C58.2191176,7.81764706 23.2617647,22.4147059 11.7529412,42.4867647 C17.5676471,47.3897059 32.7588235,59.6338235 44.8323529,65.5102941 L44.6852941,65.1485294 C44.2485294,64.7058824 33.7220588,54.1308824 30.8779412,40.0441176 L31.0941176,40.0441176 C31.975,41.1397059 36.8779412,49.9911765 57.6176471,63.175 C59.225,64.1941176 75.3911765,73.9338235 82.2602941,75.7588235 L81.4308824,74.8485294 C80.7735294,74.1176471 70.5485294,62.2985294 65.725,53.1044118 C65.725,53.1044118 60.5352941,44.5661765 56.8882353,34.2058824 C56.8882353,34.2058824 63.8235294,39.8235294 64.4838235,40.0441176 L64.5588235,39.675 C64.3382353,39.1720588 58.5352941,25.9426471 57.4852941,18.6470588 C59.1676471,18.2382353 66.5470588,16.9029412 69.9661765,16.6985294 C69.9661765,16.6985294 71.3735294,28.2308824 80.5794118,33.7294118 C80.5794118,35.1279412 81.0794118,49.4279412 84.9882353,54.7220588 C84.8852941,52.7279412 83.7852941,45.6308824 89.8941176,38.1323529 L90.1970588,38.425 C89.3882353,41.5294118 87.1911765,54.1308824 90.1970588,64.525 C90.9897059,67.3220588 96.4985294,81.0235294 101.701471,84.5279412 C101.104412,81.2264706 93.6955882,65.9235294 101.502941,49.7294118 C101.554412,50.2735294 101.673529,51.5132353 101.989706,53.3 C102.876471,58.3558824 105.316176,67.8279412 112.197059,78.5705882 C112.208824,78.5867647 112.45,78.9294118 112.564706,79.0955882 C112.072059,72.1735294 114.561765,68 115.966176,66.0897059 C120.658824,59.8632353 130.442647,59.6014706 137.608824,61.1735294 C140.505882,61.7911765 142.754412,62.1441176 145.311765,62.9220588 C145.398529,62.8441176 145.455882,62.7705882 145.516176,62.6808824 C139.082353,59.2205882 123.597059,56.3367647 123.597059,56.3367647 C126.220588,55.8617647 128.830882,56.0867647 131.5,56.0632353 C138.079412,56.4029412 144.961765,56.5573529 151.167647,58.4617647 C151.270588,58.3558824 151.423529,58.2264706 151.517647,58.1279412 C149.442647,57.1926471 147.152941,56.6514706 145.004412,55.9279412 C136.527941,53.7102941 127.520588,52.2838235 118.464706,51.5794118 L118.427941,51.5102941 C122.85,50.8073529 127.779412,50.675 132.502941,50.6235294 C138.722059,50.4852941 145.030882,51.0794118 151.288235,51.6426471 L151.398529,51.4044118 C149.057353,50.7411765 143.863235,49.725 143.863235,49.725 C133.285294,48.1352941 122.173529,47.0588235 111.294118,46.9014706 C111.330882,46.8323529 113.929412,46.0426471 116.669118,45.6367647 C124.129412,44.4455882 132.633824,44.3073529 140.064706,44.2264706 C141.489706,43.0867647 142.220588,42.7588235 143.852941,42.0617647 C137.923529,40.2455882 131.669118,40.3147059 125.564706,39.6147059 C120.486765,39.4044118 115.629412,38.3882353 111.054412,36.5955882 C109.397059,34.8117647 107.705882,33.0588235 106.360294,31.1985294 C106.630882,31 106.742647,31.1205882 106.742647,31.1205882 C106.742647,31.1205882 109.230882,31.9044118 110.526471,32.2382353 C112.283824,33.0161765 113.883824,33.9735294 115.779412,34.6397059 C116.597059,34.9926471 117.827941,35.3279412 118.675,35.4323529 C117.754412,32.7117647 117.967647,31.0897059 118.010294,30.8735294 C118.051471,30.6529412 118.142647,30.4941176 118.142647,30.4941176 C118.925,30.6926471 119.392647,30.8220588 120.136765,31.0514706 C120.136765,31.0514706 120.061765,31.3441176 120.223529,32.2985294 L122.798529,32.6279412 C122.580882,32.9911765 121.264706,33.6970588 120.830882,34.0397059 C120.830882,34.0397059 121.019118,34.6617647 121.258824,35.0867647 C121.580882,35.6588235 121.872059,36.0602941 122.533824,36.2102941 C125.014706,35.8426471 126.902941,33.6764706 126.902941,33.6764706 L129.445588,34.3897059 C129.445588,34.3897059 129.236765,35.0205882 128.514706,35.8970588 C130.222059,36.0779412 133.288235,35.8161765 135.342647,35.7911765 C135.802941,35.7794118 135.936765,35.7794118 136.195588,35.5529412 C136.577941,35.1132353 137.073529,34.7191176 137.352941,34.225 C136,33.9838235 135.391176,33.7514706 135.475,33.7867647 C135.113235,33.7602941 134.752941,33.7426471 134.397059,33.7 C130.261765,32.5882353 126.179412,31.0264706 122.382353,29.4147059 C118.373529,27.7867647 113.347059,29.3338235 109.135294,28.0941176 C106.832353,27.3985294 104.352941,27.0617647 102.080882,26.3867647 C102.070588,26.3808824 102.010294,26.3588235 101.929412,26.3294118 C101.932353,26.3352941 101.938235,26.3382353 101.944118,26.3441176 C101.936765,26.3382353 101.926471,26.3264706 101.923529,26.3264706 L101.923529,26.3235294 C101.810294,26.2838235 101.655882,26.2235294 101.502941,26.1661765 C101.504412,26.3161765 101.505882,26.4705882 101.507353,26.6235294 C102.216176,27.4867647 103.382353,28.8941176 103.694118,29.1794118 C103.233824,29.0588235 102.475,28.8117647 101.529412,28.5264706 C99.8176471,28.0102941 97.4852941,27.3691176 95.1617647,27.1426471 C94.0573529,27.0367647 92.8602941,26.9441176 91.4485294,26.6544118 C91.6294118,26.9279412 94.3044118,30.0779412 94.3044118,30.0779412 C85.7676471,28.3602941 80.8544118,26.3808824 77.4632353,23.8514706 C74.0794118,21.3117647 72.5823529,18.3911765 72.3014706,17.8308824 C71.7176471,16.6382353 71.4735294,15.1397059 72.2058824,14.4588235 C73.1147059,13.6455882 75.0544118,14.1220588 75.4720588,14.2264706 C76.1411765,14.3985294 76.4029412,14.4676471 76.8617647,14.5764706 C77.2735294,14.6720588 77.8294118,14.7323529 80.7485294,15.3323529 C84.2132353,16.0529412 93.4794118,16.9867647 101.414706,17.1735294 C102.333824,17.1926471 103.233824,17.2044118 104.107353,17.2044118 C107.977941,17.2044118 112.25,17.5985294 114.647059,18.2676471 C114.647059,18.2676471 110.370588,18.3911765 108.923529,18.7073529 L109.575,19.2044118 C111.448529,19.2044118 121.191176,20.1338235 126.260294,21.2029412 L123.907353,21.5220588 L124.392647,21.9676471 C125.995588,22.1014706 132.407353,23.7338235 141.079412,26.2661765 L141.938235,26.0338235 C141.938235,26.0338235 133.882353,20.3617647 132.544118,19.6926471 C131.682353,20.2235294 131.492647,20.3264706 130.735294,20.7426471 C130.442647,20.9073529 129.973529,21.0044118 129.575,20.8058824 C127.667647,19.85 122.322059,17.2191176 120.923529,16.6705882 C120.923529,16.6705882 118.801471,17.6235294 117.986765,17.3367647 L108.908824,14.1338235 C108.158824,14.2720588 104.957353,14.6882353 101.401471,15.025 C98.0117647,15.35 94.3058824,15.5985294 92.0926471,15.4705882 C93.8779412,14.9647059 98.2102941,13.9647059 101.389706,13.4102941 C101.538235,13.3852941 101.694118,13.3588235 101.839706,13.3323529 C103.304412,13.0691176 105.841176,12.9338235 110.647059,13.2014706 C115.451471,13.4647059 129.961765,15.5102941 135.069118,16.5294118 C137.073529,16.9323529 140.095588,18.0720588 143.488235,20.5308824 C144.948529,21.5985294 152.095588,26.0911765 152.529412,27.7 C152.754412,28.5264706 153.010294,29.4808824 152.761765,31.6205882 L152.073529,31.4308824 C152.073529,31.4308824 151.423529,29.9970588 151.157353,29.7220588 C149.930882,28.4176471 147.285294,28.8058824 147.285294,28.8058824 C147.285294,28.8058824 146.745588,30.7735294 150.910294,32.875 C151.444118,33.1485294 154,33.9161765 154.951471,34.1308824 C156.152941,34.4044118 161.327941,36.1897059 161.163235,36.0867647 C161.180882,36.0985294 161.208824,36.1102941 161.238235,36.1294118 C164.022059,37.2102941 166.851471,38.3985294 169.041176,40.2779412 C169.704412,40.9205882 170.311765,42.3367647 170.639706,44.5661765 C170.845588,46.0852941 171.092647,47.4897059 171.173529,48.9117647 C170.073529,49.7926471 166.264706,51.2264706 166.264706,51.2264706 L166.495588,51.6838235 C166.495588,51.6838235 169.647059,51.5102941 170.989706,51.1455882 C171.070588,52.5617647 170.710294,54.2014706 170.516176,55.5323529 C169.266176,55.9308824 166.216176,56.5367647 166.216176,56.5367647 L166.482353,57.1426471 L170.208824,57.1323529 C170.097059,58.5426471 169.351471,60.3235294 168.995588,60.8191176 C168.108824,61.2279412 167.551471,61.4058824 166.3,61.5808824 C165.816176,61.6411765 165.488235,61.6985294 164.892647,61.75 C165.023529,61.9852941 165.051471,62.0632353 165.133824,62.2073529 C166.113235,62.3397059 167.852941,62.4088235 168.444118,62.4544118 C168.136765,63.3323529 167.789706,63.7632353 167.427941,64.2808824 C166.888235,65.0367647 166.144118,65.8838235 164.920588,66.7485294 C162.783824,65.9205882 161.85,63.0852941 161.804412,61.4602941 C161.577941,58.7514706 162.180882,52.3382353 162.838235,50.4911765 C163.939706,48.0808824 166.394118,46.5941176 167.186765,46.0941176 C167.780882,44.1029412 169.172059,42.4544118 169.166176,42.3911765 C169.119118,42.0382353 168.886765,41.7338235 168.886765,41.7338235 C168.886765,41.7338235 168.288235,41.9264706 168.023529,42.0294118 C167.652941,42.2044118 166.732353,42.4397059 165.929412,43.2852941 C165.839706,43.4 165.670588,43.5573529 165.55,43.7161765 C165.379412,43.4397059 164.561765,42.0294118 164.561765,42.0294118 L159.036765,42.1588235 C159.036765,42.1588235 158.530882,43.15 157.613235,43.6558824 C157.520588,43.5426471 157.275,43.3220588 157.076471,43.1647059 L156.616176,43.0573529 C155.636765,42.8852941 154.910294,42.8602941 153.810294,42.8338235 C152.942647,42.8338235 151.130882,42.8220588 151.130882,42.8220588 L151.111765,43.3455882 C151.111765,43.3455882 152.635294,43.5661765 153.927941,46.4044118 C155.151471,46.6102941 156.272059,46.9808824 157.402941,47.3970588 C159.558824,48.5720588 161.238235,51.0161765 161.020588,53.9691176 C161.177941,58.5132353 158.438235,61.8455882 154.839706,64.2 C152.713235,65.5911765 147.369118,66.725 142.654412,66.3941176 C141.355882,66.1941176 140.158824,65.9867647 138.382353,65.4102941 C136.088235,64.6794118 133.302941,63.7632353 130.086765,63.6088235 C125.226471,63.525 119.952941,64.8691176 117.461765,69.2294118 C114.782353,73.9294118 115.882353,79.3941176 115.882353,79.3941176 C118.019118,77.9264706 121.369118,77.0764706 124.104412,77.9176471 C125.157353,78.3352941 125.935294,78.5926471 126.788235,79.0867647 C126.702941,78.5044118 125.869118,77.5161765 124.935294,76.8264706 C127.257353,76.5308824 129.292647,77.6397059 131.085294,78.7647059 C131.760294,79.2338235 132.141176,79.5867647 132.869118,80.2647059 C132.777941,77.5676471 133.902941,74.5382353 135.192647,73.1191176 C139.652941,68.2382353 145.866176,67.4147059 153.725,66.3205882 C155.407353,66.0897059 157.314706,65.6485294 158.817647,64.9044118 C159.623529,65.4441176 160.223529,65.7397059 161.154412,66.1426471 C161.822059,66.5044118 162.527941,66.7970588 163.269118,67.0117647 C163.573529,69.9882353 161.302941,72.9411765 159.692647,74.3794118 C158.923529,75.075 157.730882,76.0308824 155.586765,76.8617647 C155.807353,76.5794118 156.739706,75.1411765 156.932353,74.8647059 C157.685294,73.5176471 158.229412,72.2029412 158.389706,70.6661765 C158.397059,70.0073529 158.298529,69.0426471 157.691176,68.5455882 C155.651471,67.8220588 153.052941,67.9 150.983824,68.4573529 C150.614706,69.5279412 150.558824,70.0852941 149.686765,71.6676471 C149.217647,72.4411765 149.102941,72.6764706 148.6,73.2794118 C147.436765,74.7132353 145.873529,76.1970588 143.672059,77.4617647 C143.470588,77.5735294 143.808824,77.0426471 143.832353,76.7838235 C144.416176,74.5720588 145.030882,72.0558824 144.847059,69.7441176 C141.207353,69.9014706 138.558824,73.0117647 137.073529,75.7044118 C136.669118,76.4397059 136.3,77.6397059 136.220588,78.6970588 C136.152941,79.9867647 136.547059,82.2985294 138.042647,83.2147059 C136.876471,84.7132353 135.142647,86.0897059 133.223529,86.7382353 C129.75,87.8308824 128.4,83.5161765 125.585294,82.7352941 C123.457353,81.9367647 120.314706,81.3397059 117.214706,82.5970588 L116.869118,82.7779412 C117.130882,84.475 117.717647,86.2191176 118.392647,87.7235294 L118.829412,88.2588235 C121.577941,86.4088235 124.732353,88.2720588 127.060294,89.4470588 C132.425,90.7941176 136.692647,86.6955882 140.057353,83.3867647 C140.433824,83.0676471 140.505882,82.8838235 141.035294,82.3529412 C141.994118,84.3323529 141.139706,86.5205882 140.008824,88.1808824 C139.382353,89.1058824 138.679412,90.0308824 137.877941,90.8205882 C138.154412,91.1338235 138.619118,91.2088235 139.004412,91.3058824 C140.475,91.6308824 142.457353,91.1823529 143.229412,90.9529412 C146.029412,89.8529412 150.152941,86.7882353 152.044118,84.6794118 C152.566176,86.9426471 151.685294,89.7455882 149.947059,91.9897059 C151.808824,92.1411765 152.510294,92.1764706 153.541176,92.2617647 C153.247059,93.7955882 152.583824,95.2235294 151.836765,96.8455882 C150.489706,99.2132353 148.927941,101.516176 146.839706,103.254412 C146.320588,103.673529 146.65,103.386765 145.744118,104.133824 C145.866176,103.013235 145.923529,102.627941 145.829412,101.741176 C144.052941,103.345588 137.080882,107.545588 132.470588,108.794118 C132.470588,108.794118 133.375,106.626471 133.675,105.322059 C130.270588,107.175 126.019118,108.525 123.310294,109.220588 C123.967647,108.051471 124.85,106 124.85,106 C122.516176,106.882353 119.682353,107.539706 117.057353,108.064706 C117.705882,106.729412 118.373529,104.905882 118.551471,103.7 C116.4,104.092647 112.992647,104.288235 112.992647,104.288235 C112.819118,103.520588 112.680882,103.154412 112.420588,102.283824 C111.804412,100.726471 111.442647,100.039706 110.572059,98.9838235 C108.855882,97.1852941 106.701471,95.8720588 104.385294,94.8617647 C103.063235,94.2808824 101.689706,93.8014706 100.313235,93.3882353 C98.1441176,92.9058824 95.7691176,92.5720588 93.5838235,92.5411765 C92.6705882,92.55 92.4661765,92.5779412 91.5338235,92.6838235 C92.2441176,92.8852941 92.4911765,92.9058824 93.1352941,93.0926471 C96.2941176,93.9308824 99.7102941,94.7176471 103.670588,96.9838235 L101.552941,97.1676471 C93.6941176,98.0147059 84.2044118,101.502941 77.2676471,104.475 C84.4058824,105.423529 91.8720588,105.930882 99.5632353,105.930882 C103.389706,105.930882 107.158824,105.804412 110.864706,105.560294 C110.920588,105.816176 110.969118,106.075 111.008824,106.316176 C112.582353,106.316176 114.670588,106.213235 116.533824,106.077941 C116.367647,106.783824 115.548529,108.476471 114.975,109.785294 C109.957353,110.233824 104.807353,110.469118 99.5632353,110.469118 C46.3132353,110.469118 3.14264706,86.4720588 3.14264706,56.8705882 C3.14264706,27.2808824 46.3132353,3.27647059 99.5632353,3.27647059 C152.811765,3.27647059 195.976471,27.2808824 195.976471,56.8705882 C195.976471,76.1779412 177.616176,93.0955882 150.073529,102.530882 Z M99.5632353,0.511764706 C44.575,0.511764706 0,25.7470588 0,56.8705882 C0,88.0088235 44.575,113.235294 99.5632353,113.235294 C110.480882,113.235294 120.991176,112.238235 130.822059,110.397059 L130.695588,110.794118 C132.664706,110.601471 134.870588,109.938235 136.945588,109.125 C139.502941,108.539706 142.004412,107.892647 144.452941,107.192647 L144.408824,107.410294 C144.610294,107.289706 144.805882,107.163235 144.998529,107.036765 C177.135294,97.6911765 199.119118,78.7397059 199.119118,56.8705882 C199.119118,25.7470588 154.542647,0.511764706 99.5632353,0.511764706 L99.5632353,0.511764706 Z" id="Fill-1" fill="#22211D" mask="url(#mask-2)"></path>
                </g>
                <path d="M7.73676471,56.8705882 C7.73676471,75.5514706 27.2676471,91.7852941 56.0132353,100.075 C60.875,98.8455882 65.4970588,97.3514706 65.075,97.2602941 C61.1544118,96.3485294 54.8794118,94.7441176 52.5485294,93.6176471 C54.6514706,93.5176471 67.1661765,92.225 70.7720588,91.0220588 C66.4676471,90.125 50.3514706,84.6191176 43.7426471,80.9220588 C46.6455882,81.0235294 59.8544118,81.9044118 64.5779412,80.9161765 L62.5632353,80.3220588 C54.9970588,78.4573529 23.0088235,64.5132353 7.97941176,53.3117647 C7.82058824,54.4897059 7.73676471,55.675 7.73676471,56.8705882" id="Fill-4" fill="#22211D"></path>
                <path d="M62.5632353,80.3220588 L64.5779412,80.9161765 C59.8544118,81.9044118 46.6455882,81.0235294 43.7426471,80.9220588 C50.3514706,84.6191176 66.4676471,90.125 70.7720588,91.0220588 C67.1661765,92.225 54.6514706,93.5176471 52.5485294,93.6176471 C54.8794118,94.7441176 61.1544118,96.3485294 65.075,97.2602941 C65.4970588,97.3514706 60.875,98.8455882 56.0132353,100.075 C27.2676471,91.7852941 7.73676471,75.5514706 7.73676471,56.8705882 C7.73676471,55.675 7.82058824,54.4897059 7.97941176,53.3117647 C23.0088235,64.5132353 54.9970588,78.4573529 62.5632353,80.3220588 Z M99.5632353,3.27647059 C46.3132353,3.27647059 3.14264706,27.2808824 3.14264706,56.8705882 C3.14264706,86.4720588 46.3132353,110.469118 99.5632353,110.469118 C104.807353,110.469118 109.957353,110.233824 114.975,109.785294 C115.548529,108.476471 116.367647,106.783824 116.533824,106.077941 C114.670588,106.213235 112.582353,106.316176 111.008824,106.316176 C110.969118,106.075 110.920588,105.816176 110.864706,105.560294 C107.158824,105.804412 103.389706,105.930882 99.5632353,105.930882 C91.8720588,105.930882 84.4058824,105.423529 77.2676471,104.475 C77.2632353,104.475 77.2573529,104.477941 77.2529412,104.477941 C70.65,103.613235 63.5279412,102.142647 59.9323529,101.151471 C59.8514706,101.129412 59.7647059,101.108824 59.6867647,101.085294 L62.7573529,100.075 C64.4558824,99.6176471 66.5426471,98.8 68.1058824,98.1382353 C68.3191176,98.0352941 68.4294118,97.9779412 68.4441176,97.9838235 L70.3926471,97.125 C66.5720588,96.0823529 65.1882353,95.0514706 65.1882353,95.0514706 C73.3455882,93.4852941 77.3382353,90.7176471 77.3382353,90.7176471 C67.2676471,87.9397059 59.2852941,83.9529412 59.2852941,83.9529412 C65.5367647,83.0911765 71.9632353,81.1661765 71.9632353,81.1661765 C57.7323529,76.8294118 43.3205882,69.7323529 43.3205882,69.7323529 C48.6985294,71.4735294 60.325,73.0323529 60.325,73.0323529 C57.7220588,70.6058824 56.6852941,68.6985294 56.6852941,68.6985294 C65.7088235,74.425 88.3720588,79.8573529 88.3720588,79.8573529 C82.9617647,74.9279412 74.5514706,60.4808824 73.1911765,58.1132353 C76.3044118,63.3897059 84.6191176,69.0426471 84.6191176,69.0426471 C84.1044118,65.0588235 84.7985294,63.4941176 84.7985294,63.4941176 C92.7441176,83.5676471 104.773529,90.125 104.773529,90.125 C103.557353,86.8279412 101.113235,73.9 101.113235,73.9 C102.329412,76.5 104.411765,77.8838235 104.411765,77.8838235 C103.023529,74.7617647 103.023529,69.0426471 103.023529,69.0426471 C106.323529,75.6323529 112.564706,79.0955882 112.564706,79.0955882 C112.45,78.9294118 112.208824,78.5867647 112.197059,78.5705882 C105.316176,67.8279412 102.876471,58.3558824 101.989706,53.3 C101.673529,51.5132353 101.554412,50.2735294 101.502941,49.7294118 C93.6955882,65.9235294 101.104412,81.2264706 101.701471,84.5279412 C96.4985294,81.0235294 90.9897059,67.3220588 90.1970588,64.525 C87.1911765,54.1308824 89.3882353,41.5294118 90.1970588,38.425 L89.8941176,38.1323529 C83.7852941,45.6308824 84.8852941,52.7279412 84.9882353,54.7220588 C81.0794118,49.4279412 80.5794118,35.1279412 80.5794118,33.7294118 C71.3735294,28.2308824 69.9661765,16.6985294 69.9661765,16.6985294 C66.5470588,16.9029412 59.1676471,18.2382353 57.4852941,18.6470588 C58.5352941,25.9426471 64.3382353,39.1720588 64.5588235,39.675 L64.4838235,40.0441176 C63.8235294,39.8235294 56.8882353,34.2058824 56.8882353,34.2058824 C60.5352941,44.5661765 65.725,53.1044118 65.725,53.1044118 C70.5485294,62.2985294 80.7735294,74.1176471 81.4308824,74.8485294 L82.2602941,75.7588235 C75.3911765,73.9338235 59.225,64.1941176 57.6176471,63.175 C36.8779412,49.9911765 31.975,41.1397059 31.0941176,40.0441176 L30.8779412,40.0441176 C33.7220588,54.1308824 44.2485294,64.7058824 44.6852941,65.1485294 L44.8323529,65.5102941 C32.7588235,59.6338235 17.5676471,47.3897059 11.7529412,42.4867647 C23.2617647,22.4147059 58.2191176,7.81764706 99.5632353,7.81764706 C100.623529,7.81764706 101.682353,7.83235294 102.736765,7.85 C103.072059,7.36764706 103.486765,6.86764706 104.013235,6.36764706 C105.677941,4.79117647 107.211765,3.49264706 113.914706,6.36764706 C115.505882,7.04558824 117.560294,7.99117647 119.657353,8.99852941 C160.702941,13.8955882 191.382353,33.4676471 191.382353,56.8705882 C191.382353,73.1764706 176.497059,87.6176471 153.601471,96.5397059 C152.866176,98.3764706 151.760294,100.485294 150.073529,102.530882 C177.616176,93.0955882 195.976471,76.1779412 195.976471,56.8705882 C195.976471,27.2808824 152.811765,3.27647059 99.5632353,3.27647059 L99.5632353,3.27647059 Z" id="Fill-5" fill="#F2B12E"></path>
                <path d="M156.616176,43.0573529 L157.076471,43.1647059 C157.275,43.3220588 157.520588,43.5426471 157.613235,43.6558824 C158.530882,43.15 159.036765,42.1588235 159.036765,42.1588235 L164.561765,42.0294118 C164.561765,42.0294118 165.379412,43.4397059 165.55,43.7161765 C165.670588,43.5573529 165.839706,43.4 165.929412,43.2852941 C166.732353,42.4397059 167.652941,42.2044118 168.023529,42.0294118 C167.597059,41.2 166.639706,40.0764706 164.236765,38.2779412 C163.742647,37.9161765 163.279412,37.5838235 162.901471,37.3102941 C162.347059,36.9220588 161.744118,36.5117647 161.069118,36.0661765 C161.123529,36.0897059 161.180882,36.1102941 161.238235,36.1294118 C161.208824,36.1102941 161.180882,36.0985294 161.163235,36.0867647 C161.327941,36.1897059 156.152941,34.4044118 154.951471,34.1308824 C154,33.9161765 151.444118,33.1485294 150.910294,32.875 C146.745588,30.7735294 147.285294,28.8058824 147.285294,28.8058824 C147.285294,28.8058824 149.930882,28.4176471 151.157353,29.7220588 C151.423529,29.9970588 152.073529,31.4308824 152.073529,31.4308824 L152.761765,31.6205882 C153.010294,29.4808824 152.754412,28.5264706 152.529412,27.7 C152.095588,26.0911765 144.948529,21.5985294 143.488235,20.5308824 C140.095588,18.0720588 137.073529,16.9323529 135.069118,16.5294118 C129.961765,15.5102941 115.451471,13.4647059 110.647059,13.2014706 C105.841176,12.9338235 103.304412,13.0691176 101.839706,13.3323529 C101.694118,13.3588235 101.538235,13.3852941 101.389706,13.4102941 C98.2102941,13.9647059 93.8779412,14.9647059 92.0926471,15.4705882 C94.3058824,15.5985294 98.0117647,15.35 101.401471,15.025 C104.957353,14.6882353 108.158824,14.2720588 108.908824,14.1338235 L117.986765,17.3367647 C118.801471,17.6235294 120.923529,16.6705882 120.923529,16.6705882 C122.322059,17.2191176 127.667647,19.85 129.575,20.8058824 C129.973529,21.0044118 130.442647,20.9073529 130.735294,20.7426471 C131.492647,20.3264706 131.682353,20.2235294 132.544118,19.6926471 C133.882353,20.3617647 141.938235,26.0338235 141.938235,26.0338235 L141.079412,26.2661765 C132.407353,23.7338235 125.995588,22.1014706 124.392647,21.9676471 L123.907353,21.5220588 L126.260294,21.2029412 C121.191176,20.1338235 111.448529,19.2044118 109.575,19.2044118 L108.923529,18.7073529 C110.370588,18.3911765 114.647059,18.2676471 114.647059,18.2676471 C112.25,17.5985294 107.977941,17.2044118 104.107353,17.2044118 C103.233824,17.2044118 102.333824,17.1926471 101.414706,17.1735294 C93.4794118,16.9867647 84.2132353,16.0529412 80.7485294,15.3323529 C77.8294118,14.7323529 77.2735294,14.6720588 76.8617647,14.5764706 C76.4029412,14.4676471 76.1411765,14.3985294 75.4720588,14.2264706 C73.5455882,14.1808824 73.3132353,15.2058824 73.3102941,15.2941176 C73.0367647,17.5441176 76.3279412,20.5308824 79.2985294,22.1044118 C83.8544118,24.8529412 89.9544118,26.3264706 91.4485294,26.6544118 C92.8602941,26.9441176 94.0573529,27.0367647 95.1617647,27.1426471 C97.4852941,27.3691176 99.8176471,28.0102941 101.529412,28.5264706 C102.475,28.8117647 103.233824,29.0588235 103.694118,29.1794118 C103.382353,28.8941176 102.216176,27.4867647 101.507353,26.6235294 C101.179412,26.2205882 100.947059,25.9367647 100.947059,25.9367647 C100.947059,25.9367647 100.958824,25.9426471 100.970588,25.9426471 C99.6852941,24.3014706 99.6588235,23.2823529 99.6588235,23.2823529 C106.422059,25.8823529 115.170588,26.0573529 115.170588,26.0573529 C121.595588,26.4044118 126.627941,29.3485294 126.627941,29.3485294 C129.15,30.9338235 133.538235,32.9308824 135.475,33.7867647 C135.391176,33.7514706 136,33.9838235 137.352941,34.225 C137.352941,34.2176471 137.355882,34.2117647 137.355882,34.2117647 C138.1,34.2661765 138.722059,34.4176471 139.273529,34.4867647 C139.392647,34.4985294 139.513235,34.5132353 139.647059,34.5279412 C142.923529,34.7117647 144.039706,35.7014706 144.039706,35.7014706 L142.594118,36.7985294 C146.964706,36.4808824 149.536765,38.0147059 149.536765,38.0147059 L147.977941,39.2294118 C151.785294,39.1205882 154.857353,41.3779412 156.616176,43.0573529" id="Fill-6" fill="#F2B12E"></path>
                <path d="M100.947059,25.9367647 C100.947059,25.9367647 101.179412,26.2205882 101.507353,26.6235294 C101.505882,26.4705882 101.504412,26.3161765 101.502941,26.1661765 C101.655882,26.2235294 101.810294,26.2838235 101.923529,26.3235294 L101.923529,26.3264706 C101.926471,26.3264706 101.936765,26.3382353 101.944118,26.3441176 C101.938235,26.3382353 101.932353,26.3352941 101.929412,26.3294118 C102.010294,26.3588235 102.070588,26.3808824 102.080882,26.3867647 C104.352941,27.0617647 106.832353,27.3985294 109.135294,28.0941176 C113.347059,29.3338235 118.373529,27.7867647 122.382353,29.4147059 C126.179412,31.0264706 130.261765,32.5882353 134.397059,33.7 C134.752941,33.7426471 135.113235,33.7602941 135.475,33.7867647 C133.538235,32.9308824 129.15,30.9338235 126.627941,29.3485294 C126.627941,29.3485294 121.595588,26.4044118 115.170588,26.0573529 C115.170588,26.0573529 106.422059,25.8823529 99.6588235,23.2823529 C99.6588235,23.2823529 99.6852941,24.3014706 100.970588,25.9426471 C100.958824,25.9426471 100.947059,25.9367647 100.947059,25.9367647" id="Fill-7" fill="#FFFFFE"></path>
                <path d="M110.655882,9.58970588 L122.933824,12.1617647 L122.982353,12.1588235 L122.722059,11.7882353 C120.872059,11.4632353 113.789706,8.92941176 111.910294,8.26911765 C109.642647,7.48235294 108.291176,7.30735294 107.444118,7.47352941 C105.623529,7.90147059 105.316176,11.0661765 105.205882,12.3764706 C105.35,12.3735294 105.488235,12.3764706 105.623529,12.3764706 C105.623529,12.3764706 105.795588,8.54705882 110.655882,9.58970588" id="Fill-8" fill="#FFFFFE"></path>
                <path d="M161.154412,66.1426471 C160.223529,65.7397059 159.623529,65.4441176 158.817647,64.9044118 C157.314706,65.6485294 155.407353,66.0897059 153.725,66.3205882 C145.866176,67.4147059 139.652941,68.2382353 135.192647,73.1191176 C133.902941,74.5382353 132.777941,77.5676471 132.869118,80.2647059 C132.141176,79.5867647 131.760294,79.2338235 131.085294,78.7647059 C129.292647,77.6397059 127.257353,76.5308824 124.935294,76.8264706 C125.869118,77.5161765 126.702941,78.5044118 126.788235,79.0867647 C125.935294,78.5926471 125.157353,78.3352941 124.104412,77.9176471 C121.369118,77.0764706 118.019118,77.9264706 115.882353,79.3941176 C115.882353,79.3941176 114.782353,73.9294118 117.461765,69.2294118 C119.952941,64.8691176 125.226471,63.525 130.086765,63.6088235 C133.302941,63.7632353 136.088235,64.6794118 138.382353,65.4102941 C140.158824,65.9867647 141.355882,66.1941176 142.654412,66.3941176 C147.369118,66.725 152.713235,65.5911765 154.839706,64.2 C158.438235,61.8455882 161.177941,58.5132353 161.020588,53.9691176 C161.238235,51.0161765 159.558824,48.5720588 157.402941,47.3970588 C156.272059,46.9808824 155.151471,46.6102941 153.927941,46.4044118 C152.635294,43.5661765 151.111765,43.3455882 151.111765,43.3455882 L151.130882,42.8220588 C151.130882,42.8220588 152.942647,42.8338235 153.810294,42.8338235 C154.910294,42.8602941 155.636765,42.8852941 156.616176,43.0573529 C154.857353,41.3779412 151.785294,39.1205882 147.977941,39.2294118 L149.536765,38.0147059 C149.536765,38.0147059 146.964706,36.4808824 142.594118,36.7985294 L144.039706,35.7014706 C144.039706,35.7014706 142.923529,34.7117647 139.647059,34.5279412 C139.513235,34.5132353 139.392647,34.4985294 139.273529,34.4867647 C138.722059,34.4176471 138.1,34.2661765 137.355882,34.2117647 C137.355882,34.2117647 137.352941,34.2176471 137.352941,34.225 C137.073529,34.7191176 136.577941,35.1132353 136.195588,35.5529412 C135.936765,35.7794118 135.802941,35.7794118 135.342647,35.7911765 C133.288235,35.8161765 130.222059,36.0779412 128.514706,35.8970588 C129.236765,35.0205882 129.445588,34.3897059 129.445588,34.3897059 L126.902941,33.6764706 C126.902941,33.6764706 125.014706,35.8426471 122.533824,36.2102941 C121.872059,36.0602941 121.580882,35.6588235 121.258824,35.0867647 C121.019118,34.6617647 120.830882,34.0397059 120.830882,34.0397059 C121.264706,33.6970588 122.580882,32.9911765 122.798529,32.6279412 L120.223529,32.2985294 C120.061765,31.3441176 120.136765,31.0514706 120.136765,31.0514706 C119.392647,30.8220588 118.925,30.6926471 118.142647,30.4941176 C118.142647,30.4941176 118.051471,30.6529412 118.010294,30.8735294 C117.967647,31.0897059 117.754412,32.7117647 118.675,35.4323529 C117.827941,35.3279412 116.597059,34.9926471 115.779412,34.6397059 C113.883824,33.9735294 112.283824,33.0161765 110.526471,32.2382353 C109.230882,31.9044118 106.742647,31.1205882 106.742647,31.1205882 C106.742647,31.1205882 106.630882,31 106.360294,31.1985294 C107.705882,33.0588235 109.397059,34.8117647 111.054412,36.5955882 C115.629412,38.3882353 120.486765,39.4044118 125.564706,39.6147059 C131.669118,40.3147059 137.923529,40.2455882 143.852941,42.0617647 C142.220588,42.7588235 141.489706,43.0867647 140.064706,44.2264706 C132.633824,44.3073529 124.129412,44.4455882 116.669118,45.6367647 C113.929412,46.0426471 111.330882,46.8323529 111.294118,46.9014706 C122.173529,47.0588235 133.285294,48.1352941 143.863235,49.725 C143.863235,49.725 149.057353,50.7411765 151.398529,51.4044118 L151.288235,51.6426471 C145.030882,51.0794118 138.722059,50.4852941 132.502941,50.6235294 C127.779412,50.675 122.85,50.8073529 118.427941,51.5102941 L118.464706,51.5794118 C127.520588,52.2838235 136.527941,53.7102941 145.004412,55.9279412 C147.152941,56.6514706 149.442647,57.1926471 151.517647,58.1279412 C151.423529,58.2264706 151.270588,58.3558824 151.167647,58.4617647 C144.961765,56.5573529 138.079412,56.4029412 131.5,56.0632353 C128.830882,56.0867647 126.220588,55.8617647 123.597059,56.3367647 C123.597059,56.3367647 139.082353,59.2205882 145.516176,62.6808824 C145.455882,62.7705882 145.398529,62.8441176 145.311765,62.9220588 C142.754412,62.1441176 140.505882,61.7911765 137.608824,61.1735294 C130.442647,59.6014706 120.658824,59.8632353 115.966176,66.0897059 C114.561765,68 112.072059,72.1735294 112.564706,79.0955882 C112.564706,79.0955882 106.323529,75.6323529 103.023529,69.0426471 C103.023529,69.0426471 103.023529,74.7617647 104.411765,77.8838235 C104.411765,77.8838235 102.329412,76.5 101.113235,73.9 C101.113235,73.9 103.557353,86.8279412 104.773529,90.125 C104.773529,90.125 92.7441176,83.5676471 84.7985294,63.4941176 C84.7985294,63.4941176 84.1044118,65.0588235 84.6191176,69.0426471 C84.6191176,69.0426471 76.3044118,63.3897059 73.1911765,58.1132353 C74.5514706,60.4808824 82.9617647,74.9279412 88.3720588,79.8573529 C88.3720588,79.8573529 65.7088235,74.425 56.6852941,68.6985294 C56.6852941,68.6985294 57.7220588,70.6058824 60.325,73.0323529 C60.325,73.0323529 48.6985294,71.4735294 43.3205882,69.7323529 C43.3205882,69.7323529 57.7323529,76.8294118 71.9632353,81.1661765 C71.9632353,81.1661765 65.5367647,83.0911765 59.2852941,83.9529412 C59.2852941,83.9529412 67.2676471,87.9397059 77.3382353,90.7176471 C77.3382353,90.7176471 73.3455882,93.4852941 65.1882353,95.0514706 C65.1882353,95.0514706 66.5720588,96.0823529 70.3926471,97.125 L68.4441176,97.9838235 C68.4294118,97.9779412 68.3191176,98.0352941 68.1058824,98.1382353 C66.5426471,98.8 64.4558824,99.6176471 62.7573529,100.075 L59.6867647,101.085294 C59.7647059,101.108824 59.8514706,101.129412 59.9323529,101.151471 C63.5279412,102.142647 70.65,103.613235 77.2529412,104.477941 C77.2573529,104.477941 77.2632353,104.475 77.2676471,104.475 C84.2044118,101.502941 93.6941176,98.0147059 101.552941,97.1676471 L103.670588,96.9838235 C99.7102941,94.7176471 96.2941176,93.9308824 93.1352941,93.0926471 C92.4911765,92.9058824 92.2441176,92.8852941 91.5338235,92.6838235 C92.4661765,92.5779412 92.6705882,92.55 93.5838235,92.5411765 C95.7691176,92.5720588 98.1441176,92.9058824 100.313235,93.3882353 C101.689706,93.8014706 103.063235,94.2808824 104.385294,94.8617647 C106.701471,95.8720588 108.855882,97.1852941 110.572059,98.9838235 C111.442647,100.039706 111.804412,100.726471 112.420588,102.283824 C112.680882,103.154412 112.819118,103.520588 112.992647,104.288235 C112.992647,104.288235 116.4,104.092647 118.551471,103.7 C118.373529,104.905882 117.705882,106.729412 117.057353,108.064706 C119.682353,107.539706 122.516176,106.882353 124.85,106 C124.85,106 123.967647,108.051471 123.310294,109.220588 C126.019118,108.525 130.270588,107.175 133.675,105.322059 C133.375,106.626471 132.470588,108.794118 132.470588,108.794118 C137.080882,107.545588 144.052941,103.345588 145.829412,101.741176 C145.923529,102.627941 145.866176,103.013235 145.744118,104.133824 C146.65,103.386765 146.320588,103.673529 146.839706,103.254412 C148.927941,101.516176 150.489706,99.2132353 151.836765,96.8455882 C152.583824,95.2235294 153.247059,93.7955882 153.541176,92.2617647 C152.510294,92.1764706 151.808824,92.1411765 149.947059,91.9897059 C151.685294,89.7455882 152.566176,86.9426471 152.044118,84.6794118 C150.152941,86.7882353 146.029412,89.8529412 143.229412,90.9529412 C142.457353,91.1823529 140.475,91.6308824 139.004412,91.3058824 C138.619118,91.2088235 138.154412,91.1338235 137.877941,90.8205882 C138.679412,90.0308824 139.382353,89.1058824 140.008824,88.1808824 C141.139706,86.5205882 141.994118,84.3323529 141.035294,82.3529412 C140.505882,82.8838235 140.433824,83.0676471 140.057353,83.3867647 C136.692647,86.6955882 132.425,90.7941176 127.060294,89.4470588 C124.732353,88.2720588 121.577941,86.4088235 118.829412,88.2588235 L118.392647,87.7235294 C117.717647,86.2191176 117.130882,84.475 116.869118,82.7779412 L117.214706,82.5970588 C120.314706,81.3397059 123.457353,81.9367647 125.585294,82.7352941 C128.4,83.5161765 129.75,87.8308824 133.223529,86.7382353 C135.142647,86.0897059 136.876471,84.7132353 138.042647,83.2147059 C136.547059,82.2985294 136.152941,79.9867647 136.220588,78.6970588 C136.3,77.6397059 136.669118,76.4397059 137.073529,75.7044118 C138.558824,73.0117647 141.207353,69.9014706 144.847059,69.7441176 C145.030882,72.0558824 144.416176,74.5720588 143.832353,76.7838235 C143.808824,77.0426471 143.470588,77.5735294 143.672059,77.4617647 C145.873529,76.1970588 147.436765,74.7132353 148.6,73.2794118 C149.102941,72.6764706 149.217647,72.4411765 149.686765,71.6676471 C150.558824,70.0852941 150.614706,69.5279412 150.983824,68.4573529 C153.052941,67.9 155.651471,67.8220588 157.691176,68.5455882 C158.298529,69.0426471 158.397059,70.0073529 158.389706,70.6661765 C158.229412,72.2029412 157.685294,73.5176471 156.932353,74.8647059 C156.739706,75.1411765 155.807353,76.5794118 155.586765,76.8617647 C157.730882,76.0308824 158.923529,75.075 159.692647,74.3794118 C161.302941,72.9411765 163.573529,69.9882353 163.269118,67.0117647 C162.527941,66.7970588 161.822059,66.5044118 161.154412,66.1426471" id="Fill-9" fill="#FFFFFE"></path>
                <path d="M166.495588,51.6838235 L166.264706,51.2264706 C166.264706,51.2264706 170.073529,49.7926471 171.173529,48.9117647 C171.092647,47.4897059 170.845588,46.0852941 170.639706,44.5661765 C170.311765,42.3367647 169.704412,40.9205882 169.041176,40.2779412 C166.851471,38.3985294 164.022059,37.2102941 161.238235,36.1294118 C161.180882,36.1102941 161.123529,36.0897059 161.069118,36.0661765 C161.744118,36.5117647 162.347059,36.9220588 162.901471,37.3102941 C163.279412,37.5838235 163.742647,37.9161765 164.236765,38.2779412 C166.639706,40.0764706 167.597059,41.2 168.023529,42.0294118 C168.288235,41.9264706 168.886765,41.7338235 168.886765,41.7338235 C168.886765,41.7338235 169.119118,42.0382353 169.166176,42.3911765 C169.172059,42.4544118 167.780882,44.1029412 167.186765,46.0941176 C166.394118,46.5941176 163.939706,48.0808824 162.838235,50.4911765 C162.180882,52.3382353 161.577941,58.7514706 161.804412,61.4602941 C161.85,63.0852941 162.783824,65.9205882 164.920588,66.7485294 C166.144118,65.8838235 166.888235,65.0367647 167.427941,64.2808824 C167.789706,63.7632353 168.136765,63.3323529 168.444118,62.4544118 C167.852941,62.4088235 166.113235,62.3397059 165.133824,62.2073529 C165.051471,62.0632353 165.023529,61.9852941 164.892647,61.75 C165.488235,61.6985294 165.816176,61.6411765 166.3,61.5808824 C167.551471,61.4058824 168.108824,61.2279412 168.995588,60.8191176 C169.351471,60.3235294 170.097059,58.5426471 170.208824,57.1323529 L166.482353,57.1426471 L166.216176,56.5367647 C166.216176,56.5367647 169.266176,55.9308824 170.516176,55.5323529 C170.710294,54.2014706 171.070588,52.5617647 170.989706,51.1455882 C169.647059,51.5102941 166.495588,51.6838235 166.495588,51.6838235" id="Fill-10" fill="#FFFFFE"></path>
                <path d="M77.4632353,23.8514706 C80.8544118,26.3808824 85.7676471,28.3602941 94.3044118,30.0779412 C94.3044118,30.0779412 91.6294118,26.9279412 91.4485294,26.6544118 C89.9544118,26.3264706 83.8544118,24.8529412 79.2985294,22.1044118 C76.3279412,20.5308824 73.0367647,17.5441176 73.3102941,15.2941176 C73.3132353,15.2058824 73.5455882,14.1808824 75.4720588,14.2264706 C75.0544118,14.1220588 73.1147059,13.6455882 72.2058824,14.4588235 C71.4735294,15.1397059 71.7176471,16.6382353 72.3014706,17.8308824 C72.5823529,18.3911765 74.0794118,21.3117647 77.4632353,23.8514706" id="Fill-11" fill="#FFFFFE"></path>
                <path d="M178.319118,99.6235294 L176.697059,99.6235294 L176.697059,103.823529 L175.944118,103.823529 L175.944118,99.6235294 L174.322059,99.6235294 L174.322059,98.8720588 L178.319118,98.8720588 L178.319118,99.6235294 Z M184.577941,103.823529 L183.825,103.823529 L183.825,99.6235294 L183.802941,99.6235294 L182.107353,103.823529 L181.648529,103.823529 L180.002941,99.6235294 L179.979412,99.6235294 L179.979412,103.823529 L179.227941,103.823529 L179.227941,98.8720588 L180.460294,98.8720588 L181.883824,102.366176 L183.354412,98.8720588 L184.577941,98.8720588 L184.577941,103.823529 L184.577941,103.823529 Z" id="Fill-12" fill="#F2B12E"></path>
            </g>
        </g>
    </g>
</svg>