<?xml version="1.0" encoding="UTF-8"?>
<svg width="200px" height="200px" viewBox="0 0 200 200" version="1.1" xmlns="http://www.w3.org/2000/svg" xmlns:xlink="http://www.w3.org/1999/xlink">
    <!-- Generator: Sketch 54.1 (76490) - https://sketchapp.com -->
    <title>mt-st-marys</title>
    <desc>Created with Sketch.</desc>
    <g id="mt-st-marys" stroke="none" stroke-width="1" fill="none" fill-rule="evenodd">
        <g id="mt-st-marys_BGL">
            <g id="mt-st-marys" transform="translate(0.000000, 46.000000)">
                <g id="g10" transform="translate(99.925426, 54.073080) scale(-1, 1) rotate(-180.000000) translate(-99.925426, -54.073080) translate(0.000000, 0.381806)" fill-rule="nonzero">
                    <g id="g12">
                        <path d="M3.97790892,5.24515423 L3.97790892,19.6413418 L3.94388655,25.2015505 L5.60216541,25.934675 L5.60216541,31.8197755 L0,36.5673966 L0,62.3803116 L4.91680823,64.6884398 C10.9130497,67.5048454 17.0029526,70.077254 23.0168525,72.3340772 L29.6639515,74.8766573 L31.8950626,72.8089467 L101.902458,106.871884 L167.950481,72.6466798 L169.829079,74.7627125 L176.822069,72.3334807 C182.84086,70.073078 188.929451,67.5006695 194.918414,64.6884398 L199.835938,62.3803116 L199.835938,46.6165536 L199.790599,36.8672921 L195.015655,31.2297084 L194.232956,31.6051297 L194.232956,26.3248316 L195.88784,25.5886645 L195.88784,5.70912439 L190.805663,0.201109018 L181.281427,4.64322136 C178.377922,5.99433244 175.408198,7.29843382 172.455178,8.51722574 L167.198803,10.687427 L167.245932,14.9720503 C162.407751,17.0153016 149.894105,21.8053388 132.497536,24.8608495 C121.960922,26.7121246 111.126619,27.6502901 100.294703,27.6502901 C80.5548078,27.6502901 61.1656957,24.5357787 42.6666059,18.392781 C39.6791042,17.3923336 36.6531236,16.2966141 33.6794026,15.1372405 L33.0198948,14.8808945 L32.9691267,10.3581802 L27.7071432,8.22079025 C24.7974938,7.03880668 21.7981203,5.74082014 18.7926617,4.36102003 L9.29574921,0 L3.97790892,5.24515423" id="path14" fill="#FFFFFF"></path>
                        <polyline id="path16" fill="#9F8C50" points="173.565395 66.8062623 101.880385 103.878894 28.260402 67.8824741 29.7804616 64.3143906 167.436237 65.1656956 169.262337 66.7233391 170.623113 66.055181 173.565395 66.8062623"></polyline>
                        <polyline id="path18" fill="#192C4E" points="101.880385 103.878894 175.606856 65.6751661 170.604023 65.0266949 105.826097 96.8238604 102.637432 94.6469775 128.096641 82.1202067 91.3855309 91.7906017 28.3386719 58.3486935 27.690141 67.7810572 101.880385 103.878894"></polyline>
                        <polyline id="path20" fill="#192C4E" points="48.2023552 77.1895581 79.1767318 91.6265451 100.039968 81.1674849 70.3952257 84.5434729 52.7367623 75.3425783 48.2023552 77.1895581"></polyline>
                        <polyline id="path22" fill="#FFFFFF" points="30.0239814 66.2872467 101.708573 101.977626 134.045038 85.716329 101.830273 100.268454 93.8756129 96.2064107 115.630124 86.83788 89.7741961 94.4149119 79.2853075 88.8023841 90.0581633 83.9594312 75.1832942 87.1033535 30.4993878 64.3299014 30.0239814 66.2872467"></polyline>
                        <path d="M73.7366126,74.017597 C53.1751217,71.1075299 38.9240855,65.8129737 34.4456367,63.9970156 C32.7134369,63.3205055 28.7518561,59.3551663 28.7518561,59.3551663 L27.2171209,66.9977612 C21.4454879,64.7761356 15.5879489,62.2395212 9.8074867,59.4581939 L6.7009096,57.9632499 L3.02689329,38.3319304 L6.44808336,35.4331982 C6.44808336,35.4331982 10.3201787,37.2611475 11.9055031,38.0103197 C11.875257,35.2691415 11.7328558,22.6547347 11.7193137,21.4454879 C11.2595374,21.235555 10.1157939,20.7170763 10.1157939,20.7170763 L10.0964651,17.1108124 L7.00480221,6.87475001 L9.94851578,3.97138245 L17.5584783,7.465533 C20.5725871,8.84832193 23.6125274,10.1661444 26.5960321,11.3783741 C26.5960321,11.3795672 30.0053684,12.7635493 30.0053684,12.7635493 C30.0053684,12.7635493 30.0445034,16.2577177 30.0559575,17.3161517 C30.9153758,17.6512449 32.6081424,18.3111703 32.6081424,18.3111703 C35.6254726,19.4868302 38.6980453,20.5996117 41.739119,21.6179562 C78.5527199,33.8427434 111.708275,31.9409388 133.038028,28.1940038 C153.565395,24.588933 167.349138,18.6439966 170.295596,17.3005216 C170.284261,16.3126618 170.24787,13.0618341 170.24787,13.0618341 L173.622665,11.6683069 C176.634746,10.4250557 179.645037,9.10234131 182.572404,7.73929884 L190.106483,4.22608789 L192.901412,7.25601772 L190.294999,20.9789704 C190.294999,20.9789704 189.16092,21.5044886 188.699175,21.7181799 C188.714089,22.9201486 188.850704,35.1570461 188.881129,37.8868298 C190.442948,37.1376575 194.242501,35.3169268 194.242501,35.3169268 L196.80954,38.3475606 L194.379115,43.9779258 L194.533627,57.8315869 L191.461889,59.3319001 C185.751524,62.1166278 179.951673,64.6615942 174.222814,66.8957478 L171.574641,63.2107367 C171.574641,63.2107367 166.944664,65.511706 166.925574,63.8216241 C130.23594,77.9191629 96.0614443,77.1788198 73.7366126,74.017597" id="path24" fill="#9F8C50"></path>
                        <path d="M138.106484,75.2447408 C112.019087,80.2899309 88.7653967,79.2560756 72.0131227,76.9437714 C50.8305431,74.0181935 35.4711997,68.3782235 33.3132878,67.7864263 L29.0119605,71.771512 L24.0932432,69.8899311 C18.1636983,67.6653227 12.1478893,65.1251289 6.2148246,62.3385518 L3.02689329,60.8417584 L3.02689329,38.3319304 C3.02689329,38.3319304 7.00247559,40.1640557 8.62908256,40.9139438 C8.62908256,38.1716322 8.62908256,25.5594923 8.62908256,24.3488734 C8.15713626,24.140074 6.98266947,23.6206407 6.98266947,23.6206407 L7.00480221,20.0130644 L7.00480221,6.87475001 L14.8173002,10.376137 C17.9108124,11.760119 21.0323634,13.079075 24.096763,14.2932137 L27.5980903,15.6825649 C27.5980903,15.6825649 27.5980903,19.174347 27.5980903,20.2332583 C28.4813117,20.5690673 30.2197755,21.22947 30.2197755,21.22947 C33.3202676,22.4065617 36.476718,23.5216102 39.6029222,24.5423409 C77.4490659,36.7915874 111.682622,34.9135263 133.736015,31.182639 C154.959579,27.591349 169.251599,21.6561963 172.308422,20.315048 C172.308422,19.3281427 172.308422,16.075227 172.308422,16.075227 L175.804917,14.68516 C178.927363,13.4454284 182.051599,12.1252793 185.086349,10.7619982 L192.901412,7.25601772 L192.901412,24.0077548 C192.901412,24.0077548 191.723187,24.5320799 191.247124,24.7450553 C191.247124,25.9466064 191.247124,38.1839811 191.247124,40.9132876 C192.867408,40.1663823 196.80954,38.3475606 196.80954,38.3475606 L196.84951,46.9882762 L196.84951,60.8417584 L193.661442,62.3385518 C187.736311,65.1203563 181.721696,67.6605501 175.785231,69.8899311 L170.76271,71.634301 C170.76271,71.634301 168.066812,68.6001474 166.983441,67.3795658 C156.234448,71.3837417 147.837729,73.3625634 138.106484,75.2447408" id="path26" fill="#192C4E"></path>
                        <path d="M193.188959,61.3351215 C187.293657,64.103205 181.30708,66.632064 175.39567,68.8518998 L171.151674,70.3445173 L167.38195,66.1017135 C156.184336,70.3731526 147.991644,72.2648752 137.808796,74.2663665 C111.840713,79.5460085 87.7911984,78.3970152 69.2742712,75.5698713 C49.465174,72.3203561 32.7633101,66.3522728 32.7633101,66.3522728 L28.4381798,70.3791183 L24.4824453,68.8518998 C18.5796267,66.6368365 12.5917969,64.1079775 6.68671124,61.3351215 L4.1349738,60.1372095 L4.1349738,40.0650251 C4.1349738,40.0650251 8.60689017,42.12504 9.73828462,42.6470385 C9.73828462,33.8290223 9.73828462,26.5443096 9.73828462,23.6264871 C8.9657865,23.2853089 8.0953913,22.9005811 8.0953913,22.9005811 L8.11406393,20.0202829 L8.11406393,8.58756131 L14.362893,11.387263 C17.4692315,12.7784635 20.6058757,14.1035045 23.6877548,15.324623 L26.4900217,16.4347796 L26.4900217,20.9992538 L29.8259202,22.2669644 C32.9427583,23.4493656 36.1166881,24.5702604 39.2591787,25.595883 C39.2591787,25.595883 39.2545255,25.6035788 39.2533324,25.6047123 C113.004024,49.4558675 173.417445,21.0337355 173.417445,21.0337355 L173.417445,16.8274418 L176.214761,15.7160921 C179.350331,14.4703352 182.488288,13.1436238 185.540935,11.774556 L191.792389,8.96996249 L191.792389,23.2876355 C191.792389,23.2876355 190.910062,23.6814908 190.137505,24.0249957 C190.137505,26.9076205 190.137505,33.9711252 190.137505,42.645905 C191.272777,42.1224747 195.708273,40.0764196 195.708273,40.0764196 L195.740487,46.9929295 L195.740487,60.1372095 L193.188959,61.3351215" id="path28" fill="#192C4E"></path>
                        <path d="M25.9307376,65.5952258 C25.8137503,65.5480968 14.1731838,60.8978359 8.44521977,58.2089173 L8.27370598,58.128261 L8.27370598,46.2234142 C8.27370598,46.2234142 11.9479192,54.3801329 12.0385978,54.5814751 C12.1923934,54.6499613 13.339597,55.1615199 13.8758535,55.4005654 C13.8758535,54.5066653 13.8758535,20.9090524 13.8758535,20.8114536 C13.8436984,20.7182098 12.049336,15.5238773 12.049336,15.5238773 L22.4881128,19.933124 C22.4881128,19.933124 20.7727362,22.7377176 20.6898131,22.8723633 C20.6898131,23.0394625 20.6898131,57.8849799 20.6898131,58.2834885 C20.9740785,58.3971947 22.3410584,58.9438911 22.6638026,59.0729888 C22.9147794,58.7318106 26.3397458,54.0825639 26.3397458,54.0825639 L26.3397458,65.7580893 L25.9307376,65.5952258" id="path30" fill="#9F8C50"></path>
                        <path d="M49.2265461,67.3879178 L39.0918409,64.4378806 C39.0918409,64.4378806 40.8408043,62.4250544 40.9743166,62.2711394 C40.9743166,62.0563743 40.9743166,51.0479331 40.9743166,50.6331382 C40.6189401,50.5184775 37.1110505,49.3882762 36.4709312,49.182042 C36.4709312,49.9405804 36.4709312,60.5070828 36.4709312,60.6580149 C36.5461587,60.7898568 38.5374487,64.2654719 38.5374487,64.2654719 L27.1127212,60.282176 C27.1127212,60.282176 29.3877994,58.5342267 29.5963602,58.3738688 C29.5963602,58.0835183 29.5963602,30.8223706 29.5963602,30.6947047 C29.5441603,30.5788508 27.6780306,26.4995668 27.6780306,26.4995668 L28.3578218,26.7573446 C31.5392088,27.9653983 34.7748835,29.1084258 37.9744659,30.1535563 L38.3596709,30.2794325 C38.3596709,30.2794325 36.5738992,32.7952266 36.4709312,32.9409089 C36.4709312,33.1238172 36.4709312,43.6539885 36.4709312,44.0685448 C36.8162854,44.180163 40.342788,45.3148385 40.9743166,45.5182688 C40.9743166,44.7618184 40.9743166,34.6828328 40.9743166,34.5555845 C40.9190743,34.4381796 39.060879,30.501953 39.060879,30.501953 L39.7129297,30.7096189 C42.8926462,31.7195518 49.3253381,33.5115875 49.3897079,33.5295443 L49.791438,33.6411625 C49.791438,33.6411625 47.9875305,36.2791341 47.8896334,36.4224301 C47.8896334,36.6056367 47.8896334,63.4129738 47.8896334,63.551378 C47.9490517,63.6712885 49.8776423,67.5770304 49.8776423,67.5770304 L49.2265461,67.3879178" id="path32" fill="#9F8C50"></path>
                        <path d="M69.9668886,71.7482458 C64.1026084,70.8360907 57.6473065,69.5301996 51.7899465,68.0709901 L51.3238466,67.9552556 C51.3238466,67.9552556 53.5654573,65.3130483 53.6980151,65.1573436 C53.6980151,64.9401923 53.6980151,38.7574636 53.6980151,38.6397604 C53.6530337,38.5323182 51.830036,34.1608343 51.830036,34.1608343 L52.4058451,34.3039514 C58.2612961,35.7620274 64.2004458,36.9628626 70.0587604,37.8733473 L70.3111094,37.9127209 L70.3087231,50.6117213 C70.3087231,50.6117213 66.6016389,42.9422808 66.4751661,42.6864121 C66.2055166,42.6351667 61.266516,41.6899617 60.6436972,41.5713636 C60.6436972,42.2229371 60.6436972,50.1409682 60.6436972,50.587262 C60.9724071,50.6529443 61.943026,50.8487385 62.2281864,50.9058302 C62.4274406,50.579089 65.2181937,46.0050697 65.2181937,46.0050697 L65.2348977,62.396419 C65.2348977,62.396419 62.2908262,56.2485892 62.1685294,55.9924818 C61.9627128,55.9510202 61.0875451,55.7743759 60.6436972,55.6846519 C60.6436972,56.3411172 60.6436972,64.1855316 60.6436972,64.6359417 C61.0702446,64.7164786 66.1762847,65.686501 66.5306471,65.7539133 C66.7328842,65.4269931 70.3111094,59.6394914 70.3111094,59.6394914 L70.3111094,71.8025336 L69.9668886,71.7482458" id="path34" fill="#9F8C50"></path>
                        <path d="M98.2699453,74.0772539 L98.0313175,74.0766574 C98.0313175,74.0766574 94.7328835,59.2554795 94.2120782,56.914361 C93.7545092,59.3332722 90.9906018,73.9221458 90.9906018,73.9221458 L90.7334802,73.9114075 C87.5472014,73.7807588 80.8155088,73.217597 80.7480964,73.2116313 L80.2272911,73.1680817 C80.2272911,73.1680817 82.3677832,70.1518252 82.4721829,70.0050691 C82.4721829,69.8171496 82.4721829,42.5055918 82.4721829,42.3289475 C82.3797146,42.1888729 80.5124514,39.3460989 80.5124514,39.3460989 L87.8120783,39.8991191 C87.8120783,39.8991191 85.9215489,42.3999989 85.8087973,42.5491414 C85.8087973,42.7228028 85.8087973,58.1413259 85.8087973,62.3093198 C86.7489911,58.1012364 90.7835921,40.0382391 90.7835921,40.0382391 L93.7598783,40.1407298 L93.8105868,40.3686791 C93.8105868,40.3686791 97.6787448,58.3209531 98.6141661,62.6642788 C98.6141661,58.3871723 98.6141661,43.158776 98.6141661,42.9959124 C98.5139424,42.8521391 96.6723317,40.2057559 96.6723317,40.2057559 L107.019833,40.037046 C107.019833,40.037046 105.098282,42.7560914 104.996269,42.9021913 C104.996269,43.0895739 104.996269,70.4262473 104.996269,70.5873211 C105.074419,70.7203562 106.950035,73.9090213 106.950035,73.9090213 L106.445933,73.9239355 C106.391645,73.9257252 100.968827,74.0832196 98.2699453,74.0772539" id="path36" fill="#9F8C50"></path>
                        <path d="M111.096194,72.0662174 C110.048021,71.1039505 109.517074,69.6274405 109.517074,67.6760609 L109.517074,46.0188505 C109.517074,42.0175978 111.728558,39.8000288 116.089483,39.4260393 L120.131242,39.0312891 C122.504397,38.7705285 124.205813,39.1337798 125.330347,40.1430564 C126.334374,41.0421466 126.843248,42.4685448 126.843248,44.3824597 L126.843248,65.9143906 C126.844441,70.0372839 124.577476,72.4677089 120.287544,72.9431749 C120.286947,72.9431749 116.232063,73.3387006 116.232063,73.3387006 C113.957342,73.5337789 112.229677,73.1054419 111.096194,72.0662174 Z M118.216254,44.038239 C116.683069,44.1873814 116.505292,44.8286939 116.504695,45.2975977 L116.504695,67.4082011 C116.504099,67.6969409 116.579863,67.9069334 116.737357,68.0507067 C116.988513,68.2791929 117.47949,68.365099 118.158386,68.2994763 C119.861593,68.1300505 119.863979,67.296046 119.864576,67.021624 C119.864576,67.0204308 119.864576,44.9098274 119.864576,44.9098274 C119.864576,44.6241301 119.790004,44.4169415 119.636686,44.27806 C119.386723,44.0513039 118.908274,43.9702301 118.216254,44.038239 L118.216254,44.038239 Z" id="path38" fill="#9F8C50"></path>
                        <path d="M129.743173,71.3091705 C129.743173,71.3091705 131.396865,67.5829961 131.44638,67.470841 C131.44638,67.3449648 131.44638,43.7113188 131.44638,43.7101257 C131.44638,39.6742123 133.577924,37.2928253 137.961518,36.4319752 L141.982994,35.5907523 C144.365097,35.0641005 146.070093,35.2465316 147.19582,36.1497978 C148.185529,36.9444286 148.687841,38.3086046 148.687841,40.206949 C148.687841,40.206949 148.687841,63.7613705 148.687841,63.9522728 C148.794627,64.1008187 151.081279,67.2763592 151.081279,67.2763592 L150.661294,67.3867246 C148.071585,68.0686038 145.218788,68.7653972 142.834896,69.2987306 L142.269348,69.4252033 C142.269348,69.4252033 144.118714,65.0499611 144.16465,64.941982 C144.16465,64.8214749 144.16465,42.1564792 144.16465,42.1564792 C144.164053,41.4627879 143.995224,40.9897081 143.64802,40.7105135 C143.204769,40.3525717 142.432211,40.2910654 141.35063,40.52504 C139.370615,40.9563599 138.407155,41.9395664 138.407155,43.5328252 C138.407155,43.5339586 138.407155,65.4061132 138.407155,66.2914227 C138.488885,66.426844 140.520802,69.8022354 140.520802,69.8022354 L140.110362,69.8881414 C136.797014,70.581952 133.416253,71.1994017 130.061742,71.7249796 L129.52125,71.8090959 L129.743173,71.3091705" id="path40" fill="#9F8C50"></path>
                        <path d="M152.346007,66.666665 C152.346007,66.666665 153.937655,62.7364638 153.980011,62.6308709 C153.980011,62.515733 153.980011,36.8232653 153.980011,36.675316 C153.913195,36.5494398 152.187319,33.3111998 152.187319,33.3111998 L159.209541,31.233944 L158.972106,31.8120797 C158.972106,31.8120797 157.329153,35.7536158 157.284411,35.861058 C157.284411,35.9677843 157.284411,47.1695738 157.284411,49.7098869 C158.286051,47.1485745 165.302308,29.2044139 165.302308,29.2044139 L171.788213,26.8368077 L171.54183,27.456405 C171.54183,27.456405 169.905439,31.514988 169.86368,31.6181946 C169.86368,31.7339888 169.86368,57.4139881 169.86368,57.5705877 C169.938251,57.702012 171.699921,60.7886637 171.699921,60.7886637 L164.397908,63.4428023 L164.692017,62.7973139 C164.692017,62.7973139 166.527662,58.7194616 166.578967,58.6059941 C166.578967,58.4929441 166.578967,48.5784924 166.578967,46.1572546 C165.583292,48.6185819 158.859355,65.2480222 158.859355,65.2480222 L158.725723,65.2862027 L152.109765,67.2411616 L152.346007,66.666665" id="path42" fill="#9F8C50"></path>
                        <path d="M173.538549,65.3178209 L173.538549,51.6766579 C173.538549,51.6766579 177.023113,58.7236376 177.274268,59.0648158 C177.59582,58.9359568 178.902904,58.3971947 179.187468,58.2834885 C179.187468,57.8847413 179.187468,24.5679338 179.187468,24.4505288 C179.143321,24.3430866 177.460398,20.296435 177.460398,20.296435 L177.741979,20.1843395 C180.928258,18.9177624 184.121696,17.5689779 187.234,16.1731241 L187.837728,15.9016253 C187.837728,15.9016253 186.026543,21.7258757 186.000294,21.8111255 C186.000294,21.8994775 186.000294,54.5080374 186.000294,55.400804 C186.53661,55.1619375 187.687989,54.6493051 187.840711,54.5814751 C187.93139,54.3796556 191.602083,46.2222807 191.602083,46.2222807 L191.602083,58.128261 L191.430868,58.2089173 C185.636386,60.9288575 179.752419,63.4141669 173.94183,65.5970155 L173.538549,65.7485442 L173.538549,65.3178209" id="path44" fill="#9F8C50"></path>
                        <path d="M25.9307376,65.5952258 C25.8137503,65.5480968 14.1731838,60.8978359 8.44521977,58.2089173 L8.27370598,58.128261 L8.27370598,46.2234142 C8.27370598,46.2234142 11.9479192,54.3801329 12.0385978,54.5814751 C12.1923934,54.6499613 13.339597,55.1615199 13.8758535,55.4005654 C13.8758535,54.5066653 13.8758535,20.9090524 13.8758535,20.8114536 C13.8436984,20.7182098 12.049336,15.5238773 12.049336,15.5238773 L22.4881128,19.933124 C22.4881128,19.933124 20.7727362,22.7377176 20.6898131,22.8723633 C20.6898131,23.0394625 20.6898131,57.8849799 20.6898131,58.2834885 C20.9740785,58.3971947 22.3410584,58.9438911 22.6638026,59.0729888 C22.9147794,58.7318106 26.3397458,54.0825639 26.3397458,54.0825639 L26.3397458,65.7580893 L25.9307376,65.5952258" id="path46" fill="#9F8C50"></path>
                        <path d="M49.2265461,67.3879178 L39.0918409,64.4378806 C39.0918409,64.4378806 40.8408043,62.4250544 40.9743166,62.2711394 C40.9743166,62.0563743 40.9743166,51.0479331 40.9743166,50.6331382 C40.6189401,50.5184775 37.1110505,49.3882762 36.4709312,49.182042 C36.4709312,49.9405804 36.4709312,60.5070828 36.4709312,60.6580149 C36.5461587,60.7898568 38.5374487,64.2654719 38.5374487,64.2654719 L27.1127212,60.282176 C27.1127212,60.282176 29.3877994,58.5342267 29.5963602,58.3738688 C29.5963602,58.0835183 29.5963602,30.8223706 29.5963602,30.6947047 C29.5441603,30.5788508 27.6780306,26.4995668 27.6780306,26.4995668 L28.3578218,26.7573446 C31.5392088,27.9653983 34.7748835,29.1084258 37.9744659,30.1535563 L38.3596709,30.2794325 C38.3596709,30.2794325 36.5738992,32.7952266 36.4709312,32.9409089 C36.4709312,33.1238172 36.4709312,43.6539885 36.4709312,44.0685448 C36.8162854,44.180163 40.342788,45.3148385 40.9743166,45.5182688 C40.9743166,44.7618184 40.9743166,34.6828328 40.9743166,34.5555845 C40.9190743,34.4381796 39.060879,30.501953 39.060879,30.501953 L39.7129297,30.7096189 C42.8926462,31.7195518 49.3253381,33.5115875 49.3897079,33.5295443 L49.791438,33.6411625 C49.791438,33.6411625 47.9875305,36.2791341 47.8896334,36.4224301 C47.8896334,36.6056367 47.8896334,63.4129738 47.8896334,63.551378 C47.9490517,63.6712885 49.8776423,67.5770304 49.8776423,67.5770304 L49.2265461,67.3879178" id="path48" fill="#9F8C50"></path>
                        <path d="M69.9668886,71.7482458 C64.1026084,70.8360907 57.6473065,69.5301996 51.7899465,68.0709901 L51.3238466,67.9552556 C51.3238466,67.9552556 53.5654573,65.3130483 53.6980151,65.1573436 C53.6980151,64.9401923 53.6980151,38.7574636 53.6980151,38.6397604 C53.6530337,38.5323182 51.830036,34.1608343 51.830036,34.1608343 L52.4058451,34.3039514 C58.2612961,35.7620274 64.2004458,36.9628626 70.0587604,37.8733473 L70.3111094,37.9127209 L70.3087231,50.6117213 C70.3087231,50.6117213 66.6016389,42.9422808 66.4751661,42.6864121 C66.2055166,42.6351667 61.266516,41.6899617 60.6436972,41.5713636 C60.6436972,42.2229371 60.6436972,50.1409682 60.6436972,50.587262 C60.9724071,50.6529443 61.943026,50.8487385 62.2281864,50.9058302 C62.4274406,50.579089 65.2181937,46.0050697 65.2181937,46.0050697 L65.2348977,62.396419 C65.2348977,62.396419 62.2908262,56.2485892 62.1685294,55.9924818 C61.9627128,55.9510202 61.0875451,55.7743759 60.6436972,55.6846519 C60.6436972,56.3411172 60.6436972,64.1855316 60.6436972,64.6359417 C61.0702446,64.7164786 66.1762847,65.686501 66.5306471,65.7539133 C66.7328842,65.4269931 70.3111094,59.6394914 70.3111094,59.6394914 L70.3111094,71.8025336 L69.9668886,71.7482458" id="path50" fill="#9F8C50"></path>
                        <path d="M98.2699453,74.0772539 L98.0313175,74.0766574 C98.0313175,74.0766574 94.7328835,59.2554795 94.2120782,56.914361 C93.7545092,59.3332722 90.9906018,73.9221458 90.9906018,73.9221458 L90.7334802,73.9114075 C87.5472014,73.7807588 80.8155088,73.217597 80.7480964,73.2116313 L80.2272911,73.1680817 C80.2272911,73.1680817 82.3677832,70.1518252 82.4721829,70.0050691 C82.4721829,69.8171496 82.4721829,42.5055918 82.4721829,42.3289475 C82.3797146,42.1888729 80.5124514,39.3460989 80.5124514,39.3460989 L87.8120783,39.8991191 C87.8120783,39.8991191 85.9215489,42.3999989 85.8087973,42.5491414 C85.8087973,42.7228028 85.8087973,58.1413259 85.8087973,62.3093198 C86.7489911,58.1012364 90.7835921,40.0382391 90.7835921,40.0382391 L93.7598783,40.1407298 L93.8105868,40.3686791 C93.8105868,40.3686791 97.6787448,58.3209531 98.6141661,62.6642788 C98.6141661,58.3871723 98.6141661,43.158776 98.6141661,42.9959124 C98.5139424,42.8521391 96.6723317,40.2057559 96.6723317,40.2057559 L107.019833,40.037046 C107.019833,40.037046 105.098282,42.7560914 104.996269,42.9021913 C104.996269,43.0895739 104.996269,70.4262473 104.996269,70.5873211 C105.074419,70.7203562 106.950035,73.9090213 106.950035,73.9090213 L106.445933,73.9239355 C106.391645,73.9257252 100.968827,74.0832196 98.2699453,74.0772539" id="path52" fill="#9F8C50"></path>
                        <path d="M111.096194,72.0662174 C110.048021,71.1039505 109.517074,69.6274405 109.517074,67.6760609 L109.517074,46.0188505 C109.517074,42.0175978 111.728558,39.8000288 116.089483,39.4260393 L120.131242,39.0312891 C122.504397,38.7705285 124.205813,39.1337798 125.330347,40.1430564 C126.334374,41.0421466 126.843248,42.4685448 126.843248,44.3824597 L126.843248,65.9143906 C126.844441,70.0372839 124.577476,72.4677089 120.287544,72.9431749 C120.286947,72.9431749 116.232063,73.3387006 116.232063,73.3387006 C113.957342,73.5337789 112.229677,73.1054419 111.096194,72.0662174 Z M118.216254,44.038239 C116.683069,44.1873814 116.505292,44.8286939 116.504695,45.2975977 L116.504695,67.4082011 C116.504099,67.6969409 116.579863,67.9069334 116.737357,68.0507067 C116.988513,68.2791929 117.47949,68.365099 118.158386,68.2994763 C119.861593,68.1300505 119.863979,67.296046 119.864576,67.021624 C119.864576,67.0204308 119.864576,44.9098274 119.864576,44.9098274 C119.864576,44.6241301 119.790004,44.4169415 119.636686,44.27806 C119.386723,44.0513039 118.908274,43.9702301 118.216254,44.038239 L118.216254,44.038239 Z" id="path54" fill="#9F8C50"></path>
                        <path d="M129.743173,71.3091705 C129.743173,71.3091705 131.396865,67.5829961 131.44638,67.470841 C131.44638,67.3449648 131.44638,43.7113188 131.44638,43.7101257 C131.44638,39.6742123 133.577924,37.2928253 137.961518,36.4319752 L141.982994,35.5907523 C144.365097,35.0641005 146.070093,35.2465316 147.19582,36.1497978 C148.185529,36.9444286 148.687841,38.3086046 148.687841,40.206949 C148.687841,40.206949 148.687841,63.7613705 148.687841,63.9522728 C148.794627,64.1008187 151.081279,67.2763592 151.081279,67.2763592 L150.661294,67.3867246 C148.071585,68.0686038 145.218788,68.7653972 142.834896,69.2987306 L142.269348,69.4252033 C142.269348,69.4252033 144.118714,65.0499611 144.16465,64.941982 C144.16465,64.8214749 144.16465,42.1564792 144.16465,42.1564792 C144.164053,41.4627879 143.995224,40.9897081 143.64802,40.7105135 C143.204769,40.3525717 142.432211,40.2910654 141.35063,40.52504 C139.370615,40.9563599 138.407155,41.9395664 138.407155,43.5328252 C138.407155,43.5339586 138.407155,65.4061132 138.407155,66.2914227 C138.488885,66.426844 140.520802,69.8022354 140.520802,69.8022354 L140.110362,69.8881414 C136.797014,70.581952 133.416253,71.1994017 130.061742,71.7249796 L129.52125,71.8090959 L129.743173,71.3091705" id="path56" fill="#9F8C50"></path>
                        <path d="M152.346007,66.666665 C152.346007,66.666665 153.937655,62.7364638 153.980011,62.6308709 C153.980011,62.515733 153.980011,36.8232653 153.980011,36.675316 C153.913195,36.5494398 152.187319,33.3111998 152.187319,33.3111998 L159.209541,31.233944 L158.972106,31.8120797 C158.972106,31.8120797 157.329153,35.7536158 157.284411,35.861058 C157.284411,35.9677843 157.284411,47.1695738 157.284411,49.7098869 C158.286051,47.1485745 165.302308,29.2044139 165.302308,29.2044139 L171.788213,26.8368077 L171.54183,27.456405 C171.54183,27.456405 169.905439,31.514988 169.86368,31.6181946 C169.86368,31.7339888 169.86368,57.4139881 169.86368,57.5705877 C169.938251,57.702012 171.699921,60.7886637 171.699921,60.7886637 L164.397908,63.4428023 L164.692017,62.7973139 C164.692017,62.7973139 166.527662,58.7194616 166.578967,58.6059941 C166.578967,58.4929441 166.578967,48.5784924 166.578967,46.1572546 C165.583292,48.6185819 158.859355,65.2480222 158.859355,65.2480222 L158.725723,65.2862027 L152.109765,67.2411616 L152.346007,66.666665" id="path58" fill="#9F8C50"></path>
                        <path d="M173.538549,65.3178209 L173.538549,51.6766579 C173.538549,51.6766579 177.023113,58.7236376 177.274268,59.0648158 C177.59582,58.9359568 178.902904,58.3971947 179.187468,58.2834885 C179.187468,57.8847413 179.187468,24.5679338 179.187468,24.4505288 C179.143321,24.3430866 177.460398,20.296435 177.460398,20.296435 L177.741979,20.1843395 C180.928258,18.9177624 184.121696,17.5689779 187.234,16.1731241 L187.837728,15.9016253 C187.837728,15.9016253 186.026543,21.7258757 186.000294,21.8111255 C186.000294,21.8994775 186.000294,54.5080374 186.000294,55.400804 C186.53661,55.1619375 187.687989,54.6493051 187.840711,54.5814751 C187.93139,54.3796556 191.602083,46.2222807 191.602083,46.2222807 L191.602083,58.128261 L191.430868,58.2089173 C185.636386,60.9288575 179.752419,63.4141669 173.94183,65.5970155 L173.538549,65.7485442 L173.538549,65.3178209" id="path60" fill="#9F8C50"></path>
                        <path d="M25.7431761,64.8769559 C25.7431761,64.1431751 25.7431761,57.3382834 25.7431761,55.8983431 C24.9913789,56.9190142 22.870514,59.7983579 22.870514,59.7983579 L20.0910957,58.686352 L20.0932433,58.4852484 L20.0932433,22.7048466 C20.0932433,22.7048466 21.3306482,20.6818787 21.6177176,20.2123187 C21.061476,19.9773895 14.0895448,17.0327811 13.050201,16.5948989 C13.3775985,17.542192 14.4724232,20.7112299 14.4724232,20.7112299 L14.4724232,56.3199389 L11.5874121,55.033317 C11.5874121,55.033317 9.6448618,50.7194022 8.87027569,49.0002672 C8.87027569,51.0363 8.87027569,57.4305728 8.87027569,57.7479478 C14.0382398,60.1604758 23.7010583,64.0578657 25.7431761,64.8769559" id="path62" fill="#FFFFFF"></path>
                        <path d="M48.7423105,66.6249051 C48.333362,65.7974629 47.2930637,63.6903787 47.2930637,63.6903787 L47.2930637,36.2385673 C47.2930637,36.2385673 48.4785074,34.5043392 48.8287534,33.9918858 C47.4887982,33.6167031 43.0124374,32.3574041 40.1827283,31.482117 C40.5772399,32.3173146 41.5708864,34.4220722 41.5708864,34.4220722 L41.5708864,46.337359 L35.8710804,44.5022509 L35.8743615,44.2857558 L35.8743615,32.7509611 C35.8743615,32.7509611 37.0609387,31.0789552 37.4070088,30.5909612 C34.5476501,29.6507077 31.6673519,28.6334967 28.820402,27.5627137 C29.2190895,28.4353759 30.1929299,30.5639366 30.1929299,30.5639366 L30.1929299,58.6679777 C30.1929299,58.6679777 28.9089329,59.6544057 28.3519754,60.0823251 C29.2167629,60.3835928 36.0057858,62.7507814 37.2261885,63.1767322 C36.7580006,62.3594317 35.8743615,60.8167024 35.8743615,60.8167024 L35.8743615,48.3629518 L41.5673666,50.1974037 L41.5708864,50.4159868 L41.5708864,62.4942565 C41.5708864,62.4942565 40.5595217,63.658164 40.1533174,64.125278 C40.9104837,64.3454123 47.6652039,66.311706 48.7423105,66.6249051" id="path64" fill="#FFFFFF"></path>
                        <path d="M69.7145396,71.1015642 C69.7145396,70.5079774 69.7145396,63.3867247 69.7145396,61.7389992 C68.9455613,62.982847 66.8229663,66.4161057 66.8229663,66.4161057 L60.0423549,65.1287083 L60.0471275,64.8829216 L60.0471275,54.9557033 L62.5771796,55.4663073 L62.6428023,55.60149 C62.6428023,55.60149 63.9361654,58.3162998 64.621624,59.7560015 C64.621624,57.7710351 64.621624,49.7569563 64.621624,48.1280227 C63.9439208,49.2391337 62.519909,51.57369 62.519909,51.57369 L60.0453378,51.075435 L60.0471275,50.831259 L60.0471275,40.8501108 L66.8742713,42.1564792 L66.9440699,42.2890966 C66.9440699,42.2890966 68.9342265,46.3189847 69.7145396,47.898045 C69.7145396,45.9526312 69.7145396,38.8378812 69.7145396,38.4172399 C64.1097672,37.5398648 58.4365683,36.3895591 52.8311396,35.0114234 C53.1646221,35.8109462 54.2945848,38.5199692 54.2945848,38.5199692 L54.2945848,65.3762847 C54.2945848,65.3762847 52.8623402,67.0639804 52.4047116,67.6032794 C58.0082312,68.9843383 64.1121535,70.218641 69.7145396,71.1015642" id="path66" fill="#FFFFFF"></path>
                        <path d="M94.4805346,55.3707369 C94.4805346,55.3707369 98.4226672,73.0905276 98.5097664,73.4800876 C100.778521,73.4782979 104.59776,73.3780742 105.923935,73.3416835 C105.551675,72.7081264 104.399699,70.7495881 104.399699,70.7495881 L104.399699,42.7120646 C104.399699,42.7120646 105.415657,41.2742122 105.854733,40.6520497 C104.891869,40.6680974 98.7215486,40.7683211 97.8016381,40.7839513 C98.2204301,41.3851742 99.2107358,42.8085299 99.2107358,42.8085299 L99.2107358,68.2654718 C99.2107358,68.2654718 93.3727046,41.1679632 93.2760603,40.7205359 C92.9336293,40.70938 91.6199828,40.6639214 91.257865,40.6508566 C91.1516756,41.126263 85.2122275,67.7172243 85.2122275,67.7172243 L85.2122275,42.3487536 C85.2122275,42.3487536 86.2442931,40.9831459 86.6768062,40.4122287 C85.8690508,40.3502451 82.5640546,40.0997455 81.6769555,40.0321541 C82.1046959,40.6837275 83.0687526,42.1506925 83.0687526,42.1506925 L83.0687526,70.1953748 C83.0687526,70.1953748 81.7551061,72.0465306 81.3196102,72.6604009 C82.9011165,72.7898565 87.7774773,73.1806097 90.500818,73.303503 C90.5944795,72.8095433 94.1655457,53.9566877 94.1655457,53.9566877 L94.4805346,55.3707369" id="path68" fill="#FFFFFF"></path>
                        <path d="M142.11066,36.1731236 C142.109467,36.1731236 138.077252,37.0164346 138.077252,37.0164346 C134.016999,37.8148238 132.04295,40.004175 132.04295,43.7106029 C132.04295,43.7113188 132.04295,67.5973137 132.04295,67.5973137 C132.04295,67.5973137 130.854583,70.2747186 130.513942,71.0431004 C133.540936,70.5604755 136.581652,70.0050691 139.573449,69.3852332 C139.228632,68.8119297 137.810586,66.4566725 137.810586,66.4566725 C137.810586,66.4566725 137.810586,43.5339586 137.810586,43.5328252 C137.810586,41.6436082 138.958982,40.4355545 141.224158,39.9426687 C142.508572,39.6641899 143.424307,39.7632205 144.022069,40.2451295 C144.511853,40.6401183 144.760623,41.2826239 144.761219,42.1564792 L144.761219,65.0624891 C144.761219,65.0624891 143.612226,67.7804606 143.271585,68.5864263 C145.398952,68.1026083 147.817446,67.5114077 150.088587,66.9184174 C149.690078,66.3653973 148.091271,64.1443683 148.091271,64.1443683 L148.091271,40.206949 C148.091271,38.4757037 147.676059,37.2998052 146.822368,36.6144659 C145.861294,35.842445 144.275015,35.6939588 142.11066,36.1731236" id="path70" fill="#FFFFFF"></path>
                        <path d="M154.541383,36.4599543 L154.576581,36.5261736 L154.576581,62.747202 C154.576581,62.747202 153.47412,65.4699462 153.131092,66.3170752 C154.065321,66.0414599 158.184038,64.8244577 158.414314,64.7564488 C158.519907,64.4951513 167.17494,43.0914232 167.17494,43.0914232 L167.175536,58.7341372 C167.175536,58.7341372 165.94362,61.4711394 165.526021,62.3982087 C166.521099,62.0366875 170.306334,60.6604012 170.830719,60.4700954 C170.548542,59.9755391 169.26711,57.7290962 169.26711,57.7290962 L169.26711,31.5030566 C169.26711,31.5030566 170.373747,28.7581797 170.738251,27.8551522 C169.76107,28.2116622 165.981204,29.5898576 165.760473,29.6716473 C165.662636,29.9210134 156.687244,52.8745102 156.687244,52.8745102 L156.687841,35.7422213 C156.687841,35.7422213 157.824306,33.0140484 158.180458,32.1604765 C157.262338,32.4319753 153.62028,33.5092609 153.057714,33.6763601 C153.333926,34.1937053 154.541383,36.4599543 154.541383,36.4599543" id="path72" fill="#FFFFFF"></path>
                        <path d="M174.135119,64.878149 C179.742874,62.7585368 185.414462,60.3645026 191.005513,57.7456212 C191.005513,57.4237719 191.005513,51.0381494 191.005513,49.0014604 C190.231166,50.7217288 188.291718,55.0335557 188.291718,55.0335557 L185.402531,56.3201179 L185.403724,55.860103 L185.403724,21.7205065 C185.403724,21.7205065 186.581949,17.9299623 186.880831,16.9700816 C184.039369,18.2340338 181.141233,19.4642799 178.241308,20.6203127 C178.438176,21.0948242 179.784037,24.3316325 179.784037,24.3316325 L179.784037,58.6873065 L177.003426,59.7989545 L176.868601,59.6122282 L174.135119,54.0953305 C174.135119,54.0953305 174.135119,64.1449648 174.135119,64.878149" id="path74" fill="#FFFFFF"></path>
                        <path d="M116.335866,68.4915717 C116.050706,68.2320639 115.906932,67.8675598 115.908125,67.4076046 L115.908125,45.2968818 C115.908722,44.5518855 116.300072,43.6260093 118.15779,43.4439959 C119.037133,43.3587461 119.652793,43.486412 120.036984,43.835286 C120.318565,44.0906775 120.461145,44.452855 120.461145,44.9098274 L120.461145,67.0234137 C120.459356,67.7744949 120.068006,68.7093197 118.21685,68.8930632 C117.341086,68.9777761 116.726022,68.8465307 116.335866,68.4915717 Z M120.195672,39.6241004 C120.195075,39.6241004 116.141384,40.0202824 116.141384,40.0202824 C112.08471,40.3674859 110.113644,42.3301406 110.113644,46.0188505 L110.113644,67.6760609 C110.113644,69.4532421 110.580161,70.7818029 111.500072,71.6265456 C112.504099,72.5482458 114.079043,72.9246812 116.180758,72.7445172 L120.223114,72.3501846 C124.220728,71.9069333 126.247872,69.7419819 126.246678,65.9143906 L126.246678,44.3824597 C126.246678,42.621386 125.816552,41.380521 124.931839,40.5870236 C123.954658,39.7105434 122.36122,39.3866657 120.195672,39.6241004 L120.195672,39.6241004 Z" id="path76" fill="#FFFFFF"></path>
                    </g>
                </g>
            </g>
        </g>
    </g>
</svg>