<?xml version="1.0" encoding="UTF-8"?>
<svg width="200px" height="200px" viewBox="0 0 200 200" version="1.1" xmlns="http://www.w3.org/2000/svg" xmlns:xlink="http://www.w3.org/1999/xlink">
    <!-- Generator: Sketch 54.1 (76490) - https://sketchapp.com -->
    <title>murray-st</title>
    <desc>Created with Sketch.</desc>
    <g id="murray-st" stroke="none" stroke-width="1" fill="none" fill-rule="evenodd">
        <g id="murray-st_BGL">
            <g id="murray-st">
                <g id="g10" transform="translate(99.160552, 99.940164) scale(-1, 1) rotate(-180.000000) translate(-99.160552, -99.940164) translate(0.000000, 0.095746)" fill-rule="nonzero">
                    <g id="g12">
                        <path d="M194.301341,19.7556542 L194.154993,19.7556542 L192.030906,23.1200008 L192.030906,17.9338355 L190.385525,17.9338355 L190.385525,25.6177525 L192.23333,25.6177525 L194.25347,22.3747238 L196.27361,25.6177525 L198.069442,25.6177525 L198.069442,17.9338355 L196.422693,17.9338355 L196.422693,23.1200008 L194.301341,19.7556542 Z M186.469709,17.9338355 L184.721747,17.9338355 L184.721747,24.0704376 L182.428061,24.0704376 L182.428061,25.6177525 L188.763395,25.6177525 L188.763395,24.0704376 L186.469709,24.0704376 L186.469709,17.9338355 L186.469709,17.9338355 Z" id="path14" fill="#FBC01C"></path>
                        <path d="M177.848895,156.390552 L120.222527,156.390552 C114.743667,175.89851 104.628744,184.645154 104.182726,185.017178 L103.628658,185.482206 L102.677674,185.765327 C101.589917,193.126459 95.9276446,198.758778 89.1296075,198.758778 C82.3240478,198.758778 76.6619119,193.126459 75.5800361,185.765327 L74.6402676,185.494516 L74.0717015,185.017178 C73.6262313,184.645154 63.5118549,175.89851 58.0329951,156.390552 L0,156.390552 C0,156.390552 12.6387031,141.442612 11.2410453,123.047303 L3.17089459,16.7931472 L71.1065958,16.7931472 C71.1065958,16.7931472 61.1082032,31.7858124 61.5319265,46.5696249 L61.6707512,51.0014861 L72.5388845,23.6073236 L75.2792719,23.6073236 L72.4791146,8.37200916 L73.5668717,7.1191532 C73.9702158,6.65006224 77.6182299,2.51962176 80.9879106,0.894368 L82.8455639,0 L84.5151541,1.21332715 C84.997006,1.56327636 89.2845715,4.7170743 91.2977358,7.219066 L92.3538983,8.53176023 L91.9634109,10.1703713 C90.8964433,14.6566135 90.26715,19.2262053 89.8973153,23.6073236 L105.446237,23.6073236 L116.173357,50.9426737 L116.317106,46.5696249 C116.736999,31.7858124 106.739154,16.7931472 106.739154,16.7931472 L174.675758,16.7931472 L166.608876,123.047303 C165.209686,141.442612 177.848895,156.390552 177.848895,156.390552" id="path16" fill="#FBC01C"></path>
                        <path d="M170.17592,152.678528 L119.746009,152.682631 L111.781023,138.988901 C111.021385,142.248206 110.029233,145.104029 109.128991,147.293768 C114.585968,149.501287 117.529873,153.192795 117.529873,153.192795 C112.454221,173.551482 101.966591,182.381558 101.966591,182.381558 L99.4138561,183.133811 C99.4138561,183.151591 99.4186431,183.177578 99.4186431,183.198094 C99.4186431,189.882199 94.8025484,195.31483 89.1296075,195.31483 C83.4577606,195.31483 78.8385202,189.882199 78.8385202,183.198094 C78.8385202,183.166636 78.8449485,183.139282 78.8449485,183.107824 L76.2933082,182.381558 C76.2933082,182.381558 65.8033527,173.551482 60.727837,153.192795 C60.727837,153.192795 63.6897968,149.4753 69.1794618,147.273252 C68.2299824,144.960418 67.1673916,141.911744 66.3980425,138.417189 L58.0997404,152.682631 L7.67532764,152.678528 C7.67532764,152.678528 16.8979155,140.076248 15.4430592,122.802069 L7.67532764,20.505308 L64.080421,20.505308 C64.080421,20.505308 56.5974238,32.6845489 57.3485821,50.6321986 L58.196439,70.0006479 L74.9206526,27.4711658 L79.5207448,27.4711658 C79.4694549,27.2520552 79.4299274,27.0388258 79.3722091,26.815612 L76.1672033,9.37697742 C76.1672033,9.37697742 79.6591592,5.36139906 82.4865343,3.99634806 C82.4865343,3.99634806 86.8307239,7.16029457 88.6130152,9.37697742 C87.1576118,15.5018717 86.450768,21.7550045 86.1676476,27.4711658 L102.923456,27.4711658 L119.672288,69.97767 L120.498262,50.6321986 C121.248326,32.6845489 113.765876,20.505308 113.765876,20.505308 L170.17592,20.505308 L162.403101,122.802069 C160.95057,140.076248 170.17592,152.678528 170.17592,152.678528" id="path18" fill="#16243A"></path>
                        <path d="M113.951718,136.279847 L113.991519,136.240444 C113.944952,136.419283 113.939777,136.415701 113.951718,136.279847" id="path20" fill="#16243A"></path>
                        <path d="M93.7980862,50.8331184 C93.7980862,50.8331184 90.7030461,47.0825243 94.9007516,44.1012794 L95.344307,48.0774124 C95.344307,48.0774124 94.2398636,49.1811719 93.7980862,50.8331184" id="path22" fill="#FFFFFF"></path>
                        <path d="M80.9366207,17.7751786 L79.8146703,12.2614963 C79.8146703,12.2614963 80.1731528,11.2399785 82.4036498,8.67708173 L82.2936842,14.7453793 L80.9366207,17.7751786" id="path24" fill="#FFFFFF"></path>
                        <path d="M74.7689711,54.9186699 C74.7689711,54.9186699 75.1520728,55.7174252 75.3305618,57.2423094 C75.4384758,58.9657881 75.1537141,61.7766137 73.5236514,66.0897557 C70.4306628,74.281238 69.6362842,81.0087002 69.5224889,82.6249488 C69.1912243,83.3167475 68.974302,84.0599729 68.8417688,84.8475129 C64.7867177,92.001297 63.8885283,100.870764 63.8532408,107.064537 C60.938878,108.695147 60.5888754,110.459794 60.5888754,110.459794 C60.5888754,114.089071 62.0961158,116.31437 63.7219385,117.675127 C63.3938197,121.112647 63.4204905,124.579026 63.5754545,127.583796 L52.5059911,145.261319 L19.8475658,145.258583 C21.9510005,142.520384 24.7655189,135.42678 23.8535153,122.318029 L16.8979155,28.6854381 L51.928945,28.6854381 C50.7647318,31.4183029 48.6506288,39.1513214 48.9289622,51.60575 L51.2814608,106.256755 L77.5178384,40.6146577 C77.3853052,48.9947501 74.7689711,54.9186699 74.7689711,54.9186699" id="path26" fill="#FBC01C"></path>
                        <path d="M160.95057,28.6854381 L153.999757,122.318029 C153.082009,135.42678 155.894065,142.520384 157.997637,145.258583 L125.346187,145.261319 L114.750506,128.343981 C114.966881,124.741376 115.016666,120.372157 114.479695,116.159406 C115.945767,114.882492 117.221587,112.895588 117.221587,109.809575 C117.221587,109.809575 116.842178,108.17746 113.549501,106.718911 C113.215637,100.769825 111.976062,92.5682219 107.988303,86.586447 C107.963684,86.5336526 107.945083,86.4956296 107.945083,86.4956296 C108.719766,82.4085736 106.668169,76.2740232 106.668169,76.2740232 C106.668169,76.2740232 106.414317,75.9811918 106.007281,75.4576241 C105.808002,73.9071634 105.610228,72.9252687 105.590533,72.8269288 L105.530079,72.5164537 L105.353778,72.2526183 C105.301941,72.167135 102.08996,68.8274076 100.071461,64.2407192 C99.3534023,61.6120755 99.1493367,58.8547283 100.000476,56.2751862 C101.221177,52.5946201 100.67682,50.2411641 99.6285899,48.7307779 C99.6039708,46.8052851 99.2166291,45.1463633 98.5290704,43.7332228 C97.3387334,41.2959248 93.8056088,39.857071 93.8056088,39.857071 C88.171101,43.0221391 89.7044651,48.40813 90.7057815,51.1890022 C90.7944105,51.4347836 90.8826292,51.6714011 90.9685228,51.9149942 C91.7154411,54.0595976 90.8136956,55.5833875 90.8019331,55.5940558 L90.3445636,56.2933771 L90.6212557,57.080917 C94.3650111,67.6600486 91.7849219,72.0693422 91.7608498,72.1590654 L91.4462715,73.2650133 L94.5497916,75.6553981 C94.0567243,80.81161 91.6722208,81.823458 90.5587504,82.0120682 C83.6880867,75.5730606 85.6216491,57.1000652 86.9182588,50.3762959 L86.9781654,50.0483139 C86.9781654,50.0483139 86.075736,43.7727503 86.0143248,34.8852293 L98.0386018,34.8852293 L126.63377,106.256755 L128.921027,51.60575 C129.197172,39.1513214 127.081565,31.4183029 125.920497,28.6854381 L160.95057,28.6854381" id="path28" fill="#FBC01C"></path>
                        <path d="M77.6557058,132.769825 C77.5761038,133.230477 77.5231726,133.700566 77.5038875,134.18146 C74.4409891,140.764217 72.5603579,149.112851 72.5603579,149.112851 C72.4631122,137.589711 75.1189737,132.46058 77.501836,130.168535 C77.4954076,131.021179 77.5520317,131.893656 77.6557058,132.769825" id="path30" fill="#FFFFFF"></path>
                        <path d="M105.690377,149.112851 C105.690377,149.112851 103.811387,140.75601 100.74206,134.171339 C100.720587,133.694685 100.666151,133.230477 100.588191,132.76832 C100.692275,131.891057 100.752729,131.017487 100.7463,130.16539 C103.128615,132.452511 105.784477,137.581505 105.690377,149.112851" id="path32" fill="#FFFFFF"></path>
                        <path d="M89.1211275,129.418471 C93.398435,129.418471 93.5501165,130.427584 93.5501165,130.929815 L89.1211275,130.929815 L84.6914547,130.929815 C84.6914547,130.427584 84.8394433,129.418471 89.1211275,129.418471" id="path34" fill="#FFFFFF"></path>
                        <path d="M89.1237262,150.24123 C81.2903161,150.24123 80.2084403,142.216748 81.8203122,139.891604 C81.8203122,139.891604 83.2179973,146.727527 89.1237262,146.727527 C95.0380719,146.727527 96.436304,139.891604 96.436304,139.891604 C98.0412005,142.216748 96.961513,150.24123 89.1237262,150.24123" id="path36" fill="#FFFFFF"></path>
                        <path d="M89.2845715,165.487336 C81.8651738,165.487336 80.1512691,161.358154 80.4509392,160.093002 C80.4509392,160.093002 83.0720603,163.164927 89.2845715,163.164927 C95.4991342,163.164927 98.119845,160.093002 98.119845,160.093002 C98.4158222,161.358154 96.707662,165.487336 89.2845715,165.487336" id="path38" fill="#FFFFFF"></path>
                        <path d="M74.5007589,156.387816 C71.6397377,155.002304 71.172794,151.21779 71.172794,151.21779 C71.172794,151.21779 72.3054127,150.372532 73.4595048,151.396963 C74.6145542,152.415923 75.4603595,151.957733 75.4603595,151.957733 C74.0946794,150.555808 74.1792052,149.233212 74.1792052,149.233212 C76.5240445,150.353384 77.7255969,152.391304 77.7255969,152.391304 L78.4704636,154.113279 C78.7001057,157.19341 74.806447,156.411068 74.5007589,156.387816" id="path40" fill="#FFFFFF"></path>
                        <path d="M83.6443193,179.328781 C83.6443193,179.328781 83.6502005,179.312368 83.6715371,179.285014 C83.8371694,179.008732 84.9526915,177.575349 86.5084863,177.409853 C86.5084863,177.409853 86.8744913,178.866488 89.0757188,178.866488 L89.0757188,175.630434 C89.0757188,175.630434 88.2058414,175.843801 87.5877634,176.250017 C87.5877634,176.250017 87.890716,175.076503 89.1296075,174.443243 L89.1296075,174.207993 C89.1296075,174.207993 88.7797417,174.164226 88.166314,174.39127 C87.552476,174.626519 87.0572203,174.51163 87.0572203,174.015143 C87.0572203,174.015143 87.8868864,173.340852 89.0863871,173.340852 L89.0863871,172.647412 L87.5673842,172.647412 C87.5673842,172.647412 88.0001346,171.320712 89.1270088,170.650523 C89.1270088,170.650523 85.5334304,170.273029 84.570684,174.857666" id="path42" fill="#FFFFFF"></path>
                        <path d="M94.1405663,87.4252769 C94.1405663,87.4252769 97.8462987,83.3889637 98.1854962,74.3773895 L96.5811468,72.7815201 L100.536354,73.8767997 C100.536354,73.8767997 100.620743,79.7670733 98.8559583,86.6698787 C98.8559583,86.6698787 100.620743,90.0384652 100.200712,94.6652282 C100.200712,94.6652282 98.5145724,89.7857084 94.1405663,87.4252769" id="path44" fill="#FBC01C"></path>
                        <path d="M92.0413716,137.937115 C92.8502481,139.918958 94.3569414,139.548303 94.3569414,139.548303 C94.3569414,139.548303 92.7445225,144.146617 89.1211275,144.146617 C85.4955442,144.146617 83.8836723,139.548303 83.8836723,139.548303 C83.8836723,139.548303 85.3950159,139.918958 86.202935,137.937115 C83.7500449,138.908205 83.3162004,136.795059 83.3162004,136.795059 C83.3162004,136.795059 86.2343929,137.968573 85.0595113,132.736178 L89.1211275,132.736178 L93.1804186,132.736178 C92.0040325,137.968573 94.9281062,136.795059 94.9281062,136.795059 C94.9281062,136.795059 94.4920733,138.908205 92.0413716,137.937115" id="path46" fill="#FBC01C"></path>
                        <path d="M89.1211275,124.3487 C85.1205121,124.3487 84.6407118,125.532198 84.6407118,125.532198 C84.2623972,124.169254 84.889639,122.283288 89.1211275,122.283288 C93.3476922,122.283288 93.9754811,124.169254 93.6025006,125.532198 C93.6025006,125.532198 93.1217429,124.3487 89.1211275,124.3487" id="path48" fill="#FBC01C"></path>
                        <path d="M94.9007516,155.176006 C96.8845097,157.875909 98.920652,156.73522 98.920652,156.73522 C98.4024184,157.72409 95.9276446,160.21473 91.0754794,160.828841 C90.4796955,158.145352 89.1211275,157.745974 89.1211275,157.745974 C89.1211275,157.745974 87.7613286,158.145352 87.1651343,160.828841 C82.3128324,160.21473 80.1485337,157.7364 79.6334459,156.753001 C79.6334459,156.753001 81.3533686,157.875909 83.3402725,155.176006 C85.3212952,152.481575 86.5015109,153.232459 86.5015109,153.232459 C86.5015109,153.232459 86.3033266,152.234015 84.9810035,151.267029 C85.0756505,150.778749 85.199567,150.145489 85.3277235,149.442475 C86.3632332,149.937593 87.6197684,150.24123 89.1237262,150.24123 C90.6287782,150.24123 91.8779276,149.941697 92.9149419,149.442475 C93.0452867,150.145489 93.1655103,150.777381 93.2616619,151.265661 C91.9345517,152.23128 91.7369145,153.232459 91.7369145,153.232459 C91.7369145,153.232459 92.9149419,152.481575 94.9007516,155.176006" id="path50" fill="#FBC01C"></path>
                        <path d="M78.869978,176.555021 L76.6277186,177.048772 C76.6277186,177.048772 69.0015199,169.605576 65.3924861,154.946227 C65.3924861,154.946227 65.626505,153.14766 68.9897574,151.878405 C68.9897574,151.878405 70.0561778,156.456203 73.6271887,158.119365 L69.9899796,158.119365 C69.9899796,158.119365 72.1061342,169.516674 78.869978,176.555021" id="path52" fill="#FBC01C"></path>
                        <path d="M100.200712,171.841818 C99.5714188,169.605576 98.6395831,167.698958 97.6058515,166.083667 C98.6636552,164.918359 99.853445,163.166295 100.517616,160.74541 C102.411651,166.664953 100.200712,171.841818 100.200712,171.841818" id="path54" fill="#FBC01C"></path>
                        <path d="M78.3646011,171.841818 C78.3646011,171.841818 76.2809986,166.967222 77.8891776,161.27609 C78.622145,163.575247 79.8102936,165.224731 80.8265183,166.298401 C79.8520094,167.867189 78.9683179,169.697214 78.3646011,171.841818" id="path56" fill="#FBC01C"></path>
                        <path d="M72.0901317,122.018222 C68.983329,111.594054 70.2731001,100.257883 71.7974371,92.8540778 C72.5453129,88.0850707 73.9360225,84.729888 73.9360225,84.729888 L76.1291804,85.9133862 C76.1291804,85.9133862 72.7478739,77.7470703 79.8702003,60.7203144 C78.2491646,73.5962779 81.9938774,84.0599729 81.9938774,84.0599729 C81.6557741,84.3521204 81.3373661,84.6604072 81.0215568,84.9655481 C78.2203054,88.2453689 79.1804531,94.6529186 79.8520094,97.7163642 C80.1106475,98.7875717 80.2842127,99.4245244 80.2842127,99.4245244 C84.0855495,91.8533085 89.0863871,99.4245244 89.0863871,99.4245244 L89.0863871,116.539362 C76.3846727,85.8898613 72.0901317,122.018222 72.0901317,122.018222" id="path58" fill="#FBC01C"></path>
                        <path d="M89.1296075,182.949167 L89.1296075,191.60007 C85.5019725,191.60007 82.555468,187.830602 82.555468,183.198094 C82.555468,183.031231 82.5672305,182.867103 82.5768046,182.701608 C83.7382824,181.441927 86.2307,180.569314 89.1270088,180.569314 C92.0253691,180.569314 94.5188809,181.444662 95.6824103,182.704343 C95.6851458,182.869839 95.7016953,183.031231 95.7016953,183.198094 C95.7016953,183.311616 95.6915741,183.416931 95.6851458,183.520879 C94.4803108,183.168004 92.33475,182.769994 89.1296075,182.949167" id="path60" fill="#FBC01C"></path>
                        <path d="M63.7219385,117.675127 C63.3938197,121.112647 63.4204905,124.579026 63.5754545,127.583796 L52.5059911,145.261319 L19.8475658,145.258583 C21.9510005,142.520384 24.7655189,135.42678 23.8535153,122.318029 L16.8979155,28.6854381 L23.9994523,28.6854381 L31.0085305,123.260943 C31.597339,132.137249 29.7209478,138.655174 29.7209478,138.655174 L49.2815635,138.655174 L62.9296115,116.911659 C63.1881128,117.189035 63.4504438,117.449177 63.7219385,117.675127" id="path62" fill="#FFFFFF"></path>
                        <path d="M153.99155,122.318029 C153.077906,135.42678 155.89133,142.520384 157.996269,145.258583 L125.338254,145.261319 L114.747907,128.353145 C114.966881,124.770235 115.015025,120.425635 114.487217,116.231622 L128.562545,138.655174 L148.122613,138.655174 C148.122613,138.655174 146.247453,132.137249 146.83421,123.260943 L153.843835,28.6854381 L160.947834,28.6854381 L153.99155,122.318029" id="path64" fill="#FFFFFF"></path>
                    </g>
                </g>
            </g>
        </g>
    </g>
</svg>