<?xml version="1.0" encoding="UTF-8"?>
<svg width="200px" height="200px" viewBox="0 0 200 200" version="1.1" xmlns="http://www.w3.org/2000/svg" xmlns:xlink="http://www.w3.org/1999/xlink">
    <!-- Generator: Sketch 54.1 (76490) - https://sketchapp.com -->
    <title>nc-central</title>
    <desc>Created with Sketch.</desc>
    <g id="nc-central" stroke="none" stroke-width="1" fill="none" fill-rule="evenodd">
        <g id="nc-central_BGL" transform="translate(0.000000, 0.000000)">
            <g id="nc-central" transform="translate(0.000000, 51.000000)">
                <g id="g10" transform="translate(99.875154, 49.498129) scale(-1, 1) rotate(-180.000000) translate(-99.875154, -49.498129) translate(0.000000, 0.059928)" fill-rule="nonzero">
                    <g id="g12">
                        <path d="M199.621468,42.9072648 C197.681893,61.0104354 165.802742,72.3943053 162.173279,73.632957 C157.107612,75.1427697 154.397999,77.419224 154.372031,77.4418957 C140.705115,88.7082125 118.847438,93.1847168 103.591508,95.5758278 C81.7169518,99.0035431 62.6135315,98.0847916 61.8118337,98.0450412 L30.4876896,96.4536305 C30.4876896,96.4536305 32.6489879,96.1723821 33.0306109,96.122045 C30.0850929,95.9820201 27.3580018,95.8079377 24.9671904,95.6105844 C18.1234452,95.0448915 12.8515353,94.2841425 9.63678378,93.7465145 C3.21004736,92.6700601 3.12109855,92.5347293 2.42938321,91.4700601 L0,87.727838 L4.42377018,87.123893 C4.63834196,87.0946295 19.7101618,84.939124 36.0334573,77.7137559 C30.088988,78.7546547 25.8236198,78.9895611 25.4568783,79.0071391 L12.082197,79.6563276 L24.0504364,73.649736 C24.6395,73.3548047 82.6213213,43.6992748 66.2507849,3.49835697 L64.8267649,0 L70.4260657,0 L70.8309595,0.388186757 C90.0319578,18.797203 115.455678,18.7433703 115.70936,18.7398747 C121.331333,18.8244689 127.327837,17.0489883 133.676901,15.1720346 C138.916351,13.6208736 144.663167,12.0220721 150.552805,11.3073655 C159.438698,10.2251183 171.933079,14.0449435 173.728835,17.3529084 C169.923591,17.9345813 165.197499,19.0035451 161.529085,20.9000744 C161.504116,20.9792754 161.30037,21.5968035 161.30037,21.5968035 C161.150558,22.0540319 158.089384,30.9316347 146.913355,36.5796745 C156.639197,38.6758542 169.93258,40.0413473 175.594502,34.8193749 C177.48414,33.0770529 179.376775,30.8894874 180.038947,27.4036448 C180.351556,25.7622965 180.571281,23.6836948 180.443441,21.0206237 C192.856924,26.0752053 199.715351,33.8525834 199.715351,41.1883136 C199.715351,41.7583011 199.685388,42.3325832 199.621468,42.9072648" id="path14" fill="#FFFFFF"></path>
                        <path d="M180.443441,21.0206237 L181.442193,21.6338571 C192.405488,28.3684387 197.577024,35.4245185 196.808984,42.6061413 C195.029209,59.193207 162.648685,70.4802979 161.258423,70.955404 C155.599497,72.6392991 152.555302,75.2688121 152.516351,75.3046673 C139.761295,85.8181252 119.117101,90.2781501 103.153056,92.779723 C81.2578257,96.2113334 61.9541558,95.2184745 61.9541558,95.2184745 C61.9541558,95.2184745 74.4943802,93.5904096 79.9586497,91.4387992 C34.1432201,97.0528815 4.80493371,89.9289865 4.80493371,89.9289865 C4.80493371,89.9289865 36.340873,85.6542301 58.5280385,67.5094115 C43.9192998,75.2785999 25.3203489,76.1801729 25.3203489,76.1801729 C25.3203489,76.1801729 86.4376508,45.5715344 68.8713091,2.4325093 C89.1982999,21.9179021 115.743318,21.5710357 115.743318,21.5710357 C132.204741,21.8180269 150.478898,7.43562528 172.368535,16.7049184 L173.728835,17.3529084 C145.26142,17.0513853 141.907612,27.9545561 141.907612,27.9545561 C141.907612,27.9545561 153.58102,25.8032453 158.61273,20.712409 C158.61273,20.712409 154.599746,32.906566 137.460171,37.0135322 C137.460171,37.0135322 188.299621,53.7164531 180.443441,21.0206237" id="path16" fill="#231F20"></path>
                        <path d="M157.775776,67.0119334 C157.608985,59.6582257 154.562793,51.2351548 135.616476,43.5795245 C114.363043,34.9910603 105.892632,25.369088 105.892632,25.369088 C113.878649,28.0820967 128.918848,25.6179769 140.425465,20.4825962 C151.935077,15.3519097 159.64444,16.8866912 159.64444,16.8866912 C148.619222,17.0513853 141.187512,24.6290131 141.187512,24.6290131 C131.463667,33.9563537 120.499373,31.9105111 120.499373,31.9105111 C143.446688,48.6146305 167.590508,44.1947554 167.590508,44.1947554 L159.368785,47.3162535 C190.657673,45.8403984 184.055925,26.1318346 184.055925,26.1318346 C213.600993,51.4458913 157.775776,67.0119334 157.775776,67.0119334 Z M160.096875,59.8767526 C161.061669,61.2960784 160.374528,63.0134316 160.374528,63.0134316 C179.443691,58.3446677 185.920595,48.0743059 185.920595,48.0743059 C175.969034,58.0465404 160.096875,59.8767526 160.096875,59.8767526 L160.096875,59.8767526 Z" id="path18" fill="#960A2C"></path>
                        <path d="M125.563043,71.2870894 C127.800246,69.973032 129.739822,68.6875389 131.348811,67.5561531 C130.679647,67.6299609 130.137325,67.5086125 129.846688,67.1457661 C129.198499,66.3175015 129.878648,64.6668648 131.90112,63.3040683 C132.009984,63.23076 132.115852,63.1710346 132.230708,63.1012219 C130.979273,63.2447425 129.584017,63.673906 128.222718,64.6773517 C123.475652,68.186665 125.563043,71.2870894 125.563043,71.2870894" id="path20" fill="#960A2C"></path>
                        <path d="M128.30961,33.6770029 C128.30961,33.6770029 133.588012,35.0382014 135.73333,34.8887881 C143.251931,34.4358543 152.631207,26.4107859 152.631207,26.4107859 C152.631207,26.4107859 142.33308,33.7531078 128.30961,33.6770029" id="path22" fill="#960A2C"></path>
                        <path d="M148.274653,71.9085126 C148.274653,71.9085126 144.153804,77.9701354 134.004491,81.2160779 C134.004491,81.2160779 118.483892,87.7071638 94.1986493,89.5310839 C94.1986493,89.5310839 105.54207,87.096627 114.102369,82.0251665 C114.102369,82.0251665 70.4721081,92.3673385 30.9694874,88.2955284 C30.9694874,88.2955284 66.289836,78.589661 82.5713837,44.8189752 C82.5713837,44.8189752 72.1516087,58.8311596 50.3098115,65.9153042 C50.3098115,65.9153042 78.2529818,50.2512846 77.3428195,15.9976026 C77.3428195,15.9976026 83.0453912,21.157153 98.8139801,25.43151 C107.768287,35.296079 114.84544,39.1811226 131.663417,46.5469152 C141.218473,50.2793496 157.48514,57.8819461 148.274653,71.9085126 Z M137.199497,60.235604 C123.828212,53.1269899 110.181271,59.4748549 110.181271,59.4748549 C124.911857,56.5410223 130.26117,61.5484629 130.26117,61.5484629 C120.2377,65.1630446 122.808486,71.5503603 122.808486,71.5503603 C111.111108,78.9290367 76.9241429,79.8275136 76.9241429,79.8275136 C107.456676,80.6772514 121.886639,76.1251417 127.763293,73.6036935 C124.34956,77.9611466 117.083643,79.8981253 117.083643,79.8981253 C122.471907,79.0667646 127.944067,77.7750792 135.499622,69.7736812 C141.064666,63.8920334 146.46891,63.0036439 146.46891,63.0036439 C141.428211,62.5249423 137.199497,60.235604 137.199497,60.235604 L137.199497,60.235604 Z" id="path24" fill="#FFFFFF"></path>
                        <path d="M135.886139,64.2092368 C135.886139,64.2092368 135.097125,63.1382756 132.406489,64.0660159 C132.406489,64.0660159 134.474903,64.1440184 133.54906,66.0506351 C133.54906,66.0506351 135.619472,64.4522331 135.886139,64.2092368" id="path26" fill="#FFFFFF"></path>
                        <path d="M87.3665896,34.5591003 C85.8985247,63.1253917 51.0724581,82.658375 51.0724581,82.658375 C65.0889372,80.3257908 78.4916834,69.5571518 89.8864397,56.3459661 C84.5700853,69.2255663 72.3747298,77.5917084 72.3747298,77.5917084 C72.3747298,77.5917084 83.9002226,75.1053165 94.1011712,61.5406726 C109.099623,41.5988005 120.92584,44.8189752 120.92584,44.8189752 C101.86167,36.4583262 97.5303846,27.9022215 97.5303846,27.9022215 C86.4017956,26.4216722 80.348762,21.7333328 80.348762,21.7333328 C81.8020454,37.0264161 69.7042679,51.3342309 69.7042679,51.3342309 C77.9298857,48.3719339 87.3665896,34.5591003 87.3665896,34.5591003" id="path28" fill="#9E9C9D"></path>
                        <path d="M147.226963,64.685142 C147.226963,64.685142 141.853679,65.0936313 136.225714,71.6510344 C130.600746,78.2042427 123.384766,79.9977009 123.384766,79.9977009 C123.384766,79.9977009 132.915852,79.2618207 138.690633,72.3112092 C142.723592,67.4523828 147.226963,64.685142 147.226963,64.685142" id="path30" fill="#9E9C9D"></path>
                        <path d="M85.6335559,5.05384257 L84.4475385,5.05384257 L84.4475385,1.96980769 L83.4117332,1.96980769 L83.4117332,5.05384257 L82.2238182,5.05384257 L82.2238182,5.94725578 L85.6335559,5.94725578 L85.6335559,5.05384257 Z M86.4306595,5.94725578 L87.9588492,5.94725578 L88.6426944,3.29432202 L88.6551788,3.29432202 L89.3399229,5.94725578 L90.8665146,5.94725578 L90.8665146,1.96980769 L89.8931313,1.96980769 L89.8931313,4.98751548 L89.8794484,4.98751548 L89.0433935,1.96980769 L88.2544797,1.96980769 L87.4177257,4.98751548 L87.4067394,4.98751548 L87.4067394,1.96980769 L86.4306595,1.96980769 L86.4306595,5.94725578 L86.4306595,5.94725578 Z" id="path32" fill="#FFFFFF"></path>
                    </g>
                </g>
            </g>
        </g>
    </g>
</svg>