<?xml version="1.0" encoding="UTF-8"?>
<svg width="200px" height="200px" viewBox="0 0 200 200" version="1.1" xmlns="http://www.w3.org/2000/svg" xmlns:xlink="http://www.w3.org/1999/xlink">
    <!-- Generator: Sketch 54.1 (76490) - https://sketchapp.com -->
    <title>neb-omaha</title>
    <desc>Created with Sketch.</desc>
    <defs>
        <polygon id="path-1" points="9.77874543e-05 0.3133375 199.989364 0.3133375 199.989364 195.125 9.77874543e-05 195.125"></polygon>
    </defs>
    <g id="neb-omaha" stroke="none" stroke-width="1" fill="none" fill-rule="evenodd">
        <g id="neb-omaha_BGL">
            <g id="Group-10" transform="translate(0.000000, 2.000000)">
                <path d="M132.437895,63.6083 C135.705439,48.53555 121.906316,46.55105 108.915965,46.91855 C91.5694737,47.4208 85.5808772,55.329925 83.8624561,61.619425 L67.552807,132.95205 C64.2896491,148.0353 78.0817544,150.038175 91.0764912,149.647925 C108.40193,149.143925 114.392281,141.237425 116.10807,134.933925 L132.437895,63.6083 Z M197.912456,59.608675 L181.178246,132.1033 C172.421228,168.754425 118.972982,194.794425 68.5194737,194.794425 C20.4221053,194.794425 -5.10070175,167.623925 2.07473684,136.953425 L18.8721053,64.463175 C27.6378947,27.7998 81.0291228,1.7668 131.48,1.7668 C179.591404,1.7668 205.105439,28.94255 197.912456,59.608675 L197.912456,59.608675 Z" id="Fill-1" fill="#FEFEFE"></path>
                <g id="Group-5" transform="translate(0.000000, 0.561750)">
                    <mask id="mask-2" fill="white">
                        <use xlink:href="#path-1"></use>
                    </mask>
                    <g id="Clip-4"></g>
                    <path d="M111.559123,47.2089625 C110.685439,47.2089625 109.811754,47.2247125 108.940702,47.2483375 C91.0705263,47.7654625 86.0968421,56.2687125 84.7231579,61.2912125 L68.4231579,132.588838 C67.4740351,136.983962 68.0038596,140.469963 70.0021053,142.940088 C72.8863158,146.503963 78.8792982,148.236463 88.3240351,148.236463 L88.3257895,148.236463 C89.2345614,148.236463 90.1415789,148.222463 91.0494737,148.195337 C108.915263,147.674712 113.876667,139.166213 115.243333,134.140212 L131.567018,62.8469625 C132.51614,58.4597125 131.989825,54.9789625 129.995965,52.5140875 C127.108246,48.9449625 121.078421,47.2089625 111.559123,47.2089625 M88.3257895,150.020587 L88.3240351,150.020587 C78.3047368,150.020587 71.855614,148.071087 68.6108772,144.060963 C66.2547368,141.149837 65.605614,137.159837 66.6784211,132.202962 L82.9898246,60.8589625 C84.5021053,55.3237125 89.8670175,46.0154625 108.889825,45.4650875 C109.777544,45.4405875 110.668772,45.4257125 111.559123,45.4257125 C121.793333,45.4257125 128.094211,47.3227125 131.387193,51.3940875 C133.737193,54.2999625 134.383684,58.2838375 133.311754,63.2345875 L116.979298,134.571587 C115.473158,140.109462 110.123158,149.424712 91.1021053,149.976837 C90.1784211,150.003962 89.2521053,150.020587 88.3257895,150.020587 M131.480175,2.0965875 C106.831053,2.0965875 80.7652632,8.4727125 59.9670175,19.5904625 C38.0959649,31.2804625 23.8108772,47.0908375 19.7415789,64.1078375 L2.94508772,136.591962 C0.0231578947,149.078212 2.69070175,161.328212 10.4529825,171.085338 C21.8705263,185.437087 42.4915789,193.341837 68.5196491,193.341837 C93.1722807,193.341837 119.248596,186.963962 140.063509,175.845337 C161.952105,164.152713 176.245088,148.345837 180.308246,131.335837 L197.039825,58.8464625 C199.967895,46.3619625 197.309123,34.1145875 189.551228,24.3557125 C178.138947,10.0030875 157.51614,2.0965875 131.480175,2.0965875 M68.5196491,195.125087 C41.9354386,195.125087 20.8152632,186.980587 9.05298246,172.194837 C0.943333333,162.000212 -1.84350877,149.213837 1.20210526,136.186837 L18.0003509,63.7009625 C22.1924561,46.1747125 36.7942105,29.9522125 59.1214035,18.0189625 C80.1731579,6.7673375 106.545965,0.3133375 131.480175,0.3133375 C158.074035,0.3133375 179.194211,8.4587125 190.950351,23.2488375 C199.05386,33.4417125 201.835439,46.2280875 198.781053,59.2498375 L182.048596,131.742712 C177.862632,149.261962 163.25386,165.480087 140.907368,177.417712 C119.840702,188.670212 93.4573684,195.125087 68.5196491,195.125087" id="Fill-3" fill="#8E8E8D" mask="url(#mask-2)"></path>
                </g>
                <path d="M142.827982,145.582763 C136.247281,178.458262 100.798158,184.962138 74.7165789,186.115387 C29.9402632,188.113013 4.01394737,165.765512 10.4771053,138.168887 L27.2446491,65.6838875 C29.7534211,54.8680125 38.3964035,42.4955125 51.2104386,34.9145125 C51.5235965,34.7377625 52.3928947,34.6100125 52.1244737,35.4937625 L27.8735965,140.303888 C23.5955263,158.713013 42.5218421,172.083888 78.5542982,169.782638 C111.988509,167.629263 122.480614,156.751262 124.892895,145.861013 L144.359561,60.7165125 C148.562193,41.7150125 126.114825,36.7625125 102.866579,38.3655125 C101.867456,38.4477625 101.555175,37.5622625 102.697281,37.2227625 C119.654298,32.2483875 168.880614,31.4661375 163.285,56.1778875 L142.827982,145.582763 Z" id="Fill-6" fill="#231F20"></path>
                <path d="M36.7261404,140.409675 C31.1129825,165.107425 80.3454386,164.32605 97.3015789,159.344675 C98.4445614,159.0148 98.1480702,158.161675 97.1129825,158.20105 C73.8770175,159.820675 51.4533333,154.862925 55.6401754,135.8483 L75.0998246,50.71605 C77.5191228,39.8363 88.0033333,28.94255 121.462105,26.7953 C157.489298,24.5063 176.416491,37.889425 172.134035,56.2653 L147.978772,161.098175 C147.689298,162.0003 148.596316,161.883925 148.89193,161.69405 C161.705965,154.085925 170.342807,141.71255 172.847193,130.907175 L189.540175,58.4073 C195.992807,30.82905 170.078772,8.459675 125.309474,10.465175 C99.1778947,11.618425 63.7463158,18.12405 57.1717544,50.984675 L36.7261404,140.409675 Z" id="Fill-8" fill="#E21837"></path>
            </g>
        </g>
    </g>
</svg>