<?xml version="1.0" encoding="UTF-8"?>
<svg width="200px" height="200px" viewBox="0 0 200 200" version="1.1" xmlns="http://www.w3.org/2000/svg" xmlns:xlink="http://www.w3.org/1999/xlink">
    <!-- Generator: Sketch 54.1 (76490) - https://sketchapp.com -->
    <title>nicholls-st</title>
    <desc>Created with Sketch.</desc>
    <g id="nicholls-st" stroke="none" stroke-width="1" fill="none" fill-rule="evenodd">
        <g id="nicholls-st_BGL">
            <g id="nicholls-st" transform="translate(0.000000, 51.000000)">
                <g id="g10" transform="translate(99.999998, 48.816481) scale(-1, 1) rotate(-180.000000) translate(-99.999998, -48.816481) translate(0.000000, 0.127343)" fill-rule="nonzero">
                    <g id="g12">
                        <path d="M144.301495,44.6973772 C161.80037,45.012733 181.830707,46.7456917 193.123216,55.8996241 C181.503366,53.4584256 158.083142,53.556553 144.301495,53.556553 L143.374528,53.556553 C143.381644,60.5097363 143.385015,66.6775264 143.377525,68.7689121 C146.235202,68.8209721 150.774528,68.9168522 150.774528,68.9168522 L150.774528,94.3591737 L108.323218,94.3591737 L108.323218,68.7880133 L115.743443,68.7880133 L115.75805,53.556553 L113.347937,53.556553 L81.1617957,94.3520576 L45.2408228,94.3520576 L45.2408228,68.7981256 L52.2516841,68.7981256 L52.2513096,53.556553 L38.5801488,53.556553 C36.9635197,58.8838937 32.859325,62.7082381 30.7898869,62.7082381 L30.7898869,53.556553 L8.8920597,53.556553 C8.26456908,54.234081 7.4887264,54.634081 6.64925077,54.634081 C4.55977517,54.634081 2.86604487,52.1543058 2.86604487,49.0951299 C2.86604487,46.0359539 4.55977517,43.5561787 6.64925077,43.5561787 C7.26198484,43.5561787 7.84089868,43.7692873 8.35280878,44.147939 C10.5477525,38.4340814 15.0514978,34.5166284 20.2508984,34.5166284 C24.5385762,34.5166284 28.3530705,37.1810478 30.7898869,41.3194746 L30.7898869,35.482059 C32.8594748,35.482059 36.9640815,39.3071151 38.5805234,44.6352049 L52.2513096,44.64307 L52.2516841,28.1235199 L45.2153547,28.1235199 L45.2153547,2.86575274 L86.9475634,2.86575274 L86.9475634,28.1235199 L80.3838931,28.1235199 L80.4449418,44.6595494 L82.111983,44.660673 L114.971907,2.86575274 L150.774528,2.86575274 L150.774528,28.1235199 L143.335577,28.1235199 C143.341195,30.2500367 143.35318,37.135692 143.363292,44.6966281 L144.301495,44.6973772 Z M20.2508984,39.1131076 C16.4239696,39.1131076 12.974157,41.235205 10.5442319,44.6337067 L29.9572652,44.6337067 C27.5273401,41.235205 24.0775649,39.1131076 20.2508984,39.1131076 L20.2508984,39.1131076 Z M30.7898869,49.9430699 L29.3496996,49.2041186 L27.9093626,49.9430699 L26.4690256,49.2041186 L25.0288383,49.9430699 L23.5885013,49.2041186 L22.1484264,49.9430699 L20.7080894,49.2041186 L19.2677523,49.9430699 L17.8274153,49.2041186 L16.3872281,49.9430699 L14.946891,49.2041186 L13.506554,49.9430699 L12.0663667,49.2041186 L10.6260297,49.9430699 L9.18569265,49.2041186 L7.74565524,49.9430699 L7.74565524,49.050186 C7.49149794,48.8164782 7.15779008,48.6745306 6.79220957,48.6745306 C5.99617963,48.6745306 5.35097365,49.3471898 5.35097365,50.1767778 C5.35097365,51.0063658 5.99617963,51.6786504 6.79220957,51.6786504 C7.15779008,51.6786504 7.49149794,51.5370774 7.74565524,51.3033695 L30.7898869,51.3033695 L30.7898869,49.9430699 Z M32.9517969,54.7419462 L32.9517969,58.9153543 C34.4424336,57.4101109 36.2239691,54.8674144 36.8574523,51.5827702 C35.9823961,53.1546803 34.5887632,54.3127327 32.9517969,54.7419462 Z M52.2513096,49.050186 L39.2569279,49.050186 L39.2573024,49.0951299 C39.2573024,49.8468152 39.1985009,50.5846429 39.0906357,51.3033695 L52.2513096,51.3033695 L52.2513096,49.050186 Z M144.301495,51.3033695 C151.209734,51.3033695 160.534078,51.2790249 169.587262,51.5602983 C173.794003,51.6910099 177.942318,51.8895118 181.771157,52.1857665 C178.610857,51.008613 166.910857,49.050186 150.787262,49.050186 L143.36891,49.050186 L143.371907,51.3033695 L144.301495,51.3033695 Z M79.6355785,53.556553 L76.9389494,56.9865154 L76.9621704,24.5720593 L83.3962526,24.5720593 L83.3962526,6.4172283 L48.7666654,6.4172283 L48.7666654,24.5720593 L55.8029949,24.5720593 L55.8029949,72.3498109 L48.7921336,72.3498109 L48.7921336,90.8003723 L79.4400729,90.8003723 L108.824342,53.556553 L106.11011,53.556553 L94.221346,53.556553 L82.3464399,53.556553 L79.6355785,53.556553 Z M80.452807,49.050186 L80.452807,51.3033695 L115.743443,51.3033695 L115.743443,49.050186 L80.452807,49.050186 Z M139.774903,24.5720593 L147.222468,24.5720593 L147.222468,6.4172283 L116.697375,6.4172283 L86.6292113,44.6610476 L89.3382,44.6636693 L89.3382,44.6636693 L101.394379,44.6741562 L115.82172,44.6876393 L119.322469,40.2505608 L119.291757,72.3396986 L111.874904,72.3396986 L111.874904,90.8074884 L147.222468,90.8074884 L147.222468,72.3943802 L139.805614,72.2764027 C139.848686,67.7149796 139.786513,28.7384262 139.774903,24.5720593 L139.774903,24.5720593 Z" id="path14" fill="#000000"></path>
                        <polyline id="path16" fill="#000000" points="82.583144 29.168576 82.5891365 31.4562913 83.2194736 31.4562913 83.2209717 32.1022089 81.1977508 32.1022089 81.1958781 31.4562913 81.8265897 31.4562913 81.8205972 29.168576 82.583144 29.168576"></polyline>
                        <polyline id="path18" fill="#000000" points="85.1617956 30.5343064 84.5704099 32.1022089 83.8194736 32.1022089 83.3142301 29.168576 84.0730316 29.168576 84.3224698 30.8571902 84.330335 30.8571902 84.9988743 29.168576 85.3026196 29.168576 86.0112338 30.8571902 86.0187244 30.8571902 86.2284623 29.168576 86.9913836 29.168576 86.555054 32.1022089 85.7962525 32.1022089 85.1617956 30.5343064"></polyline>
                        <path d="M32.9517969,54.7419462 C34.5887632,54.3127327 35.9823961,53.1546803 36.8574523,51.5827702 C36.2239691,54.8674144 34.4424336,57.4101109 32.9517969,58.9153543 L32.9517969,54.7419462" id="path20" fill="#FFFFFF"></path>
                        <path d="M6.79220957,51.6786504 C5.99617963,51.6786504 5.35097365,51.0063658 5.35097365,50.1767778 C5.35097365,49.3471898 5.99617963,48.6745306 6.79220957,48.6745306 C7.15779008,48.6745306 7.49149794,48.8164782 7.74565524,49.050186 L7.74565524,49.9430699 L9.18569265,49.2041186 L10.6260297,49.9430699 L12.0663667,49.2041186 L13.506554,49.9430699 L14.946891,49.2041186 L16.3872281,49.9430699 L17.8274153,49.2041186 L19.2677523,49.9430699 L20.7080894,49.2041186 L22.1484264,49.9430699 L23.5885013,49.2041186 L25.0288383,49.9430699 L26.4690256,49.2041186 L27.9093626,49.9430699 L29.3496996,49.2041186 L30.7898869,49.9430699 L30.7898869,51.3033695 L7.74565524,51.3033695 C7.49149794,51.5370774 7.15779008,51.6786504 6.79220957,51.6786504" id="path22" fill="#FFFFFF"></path>
                        <polyline id="path24" fill="#FFFFFF" points="74.8307097 63.1157288 74.9239682 22.4408983 81.265541 22.4408983 81.265541 8.5483893 50.897377 8.5483893 50.897377 22.4408983 57.9340809 22.4408983 57.9340809 74.4805225 50.9232197 74.4805225 50.9232197 88.6696607 78.4071141 88.6696607 106.11011 53.556553 108.824342 53.556553 79.4400729 90.8003723 48.7921336 90.8003723 48.7921336 72.3498109 55.8029949 72.3498109 55.8029949 24.5720593 48.7666654 24.5720593 48.7666654 6.4172283 83.3962526 6.4172283 83.3962526 24.5720593 76.9621704 24.5720593 76.9389494 56.9865154 79.6355785 53.556553 82.3464399 53.556553 74.8307097 63.1157288"></polyline>
                        <path d="M147.222468,90.8074884 L111.874904,90.8074884 L111.874904,72.3396986 L119.291757,72.3396986 L119.322469,40.2505608 L115.82172,44.6876393 L101.394379,44.6741562 L113.10936,44.6850176 L121.459173,34.102134 L121.420596,74.4704101 L114.00599,74.4704101 L114.00599,88.6764023 L145.091757,88.6764023 L145.091757,74.4805225 C145.091757,74.4805225 137.893255,74.3284626 137.642693,74.4591742 C137.785764,73.5655412 137.638199,22.4408983 137.638199,22.4408983 L145.091757,22.4408983 L145.091757,8.5483893 L117.732956,8.5483893 L89.3382,44.6636693 L86.6292113,44.6610476 L116.697375,6.4172283 L147.222468,6.4172283 L147.222468,24.5720593 L139.774903,24.5720593 C139.786513,28.7384262 139.848686,67.7149796 139.805614,72.2764027 L147.222468,72.3943802 L147.222468,90.8074884" id="path26" fill="#FFFFFF"></path>
                        <polyline id="path28" fill="#FFFFFF" points="115.743443 51.3033695 80.452807 51.3033695 80.452807 49.050186 115.743443 49.050186 115.743443 51.3033695"></polyline>
                        <path d="M143.36891,49.050186 L150.787262,49.050186 C166.910857,49.050186 178.610857,51.008613 181.771157,52.1857665 C177.942318,51.8895118 173.794003,51.6910099 169.587262,51.5602983 C160.534078,51.2790249 151.209734,51.3033695 144.301495,51.3033695 L143.371907,51.3033695 L143.36891,49.050186" id="path30" fill="#FFFFFF"></path>
                        <path d="M39.2573024,49.0951299 L39.2569279,49.050186 L52.2513096,49.050186 L52.2513096,51.3033695 L39.0906357,51.3033695 C39.1985009,50.5846429 39.2573024,49.8468152 39.2573024,49.0951299" id="path32" fill="#FFFFFF"></path>
                        <path d="M20.2508984,39.1131076 C24.0775649,39.1131076 27.5273401,41.235205 29.9572652,44.6337067 L10.5442319,44.6337067 C12.974157,41.235205 16.4239696,39.1131076 20.2508984,39.1131076" id="path34" fill="#B3B5B7"></path>
                        <path d="M199.744564,59.5981259 C191.146437,57.7355791 175.179771,56.8558038 169.434078,56.6771521 C161.258423,56.4232196 152.860296,56.4205978 146.243068,56.422096 C146.246064,60.1992494 146.247936,63.5767774 146.247187,65.9580508 C149.518723,66.0235939 153.640071,66.1104852 153.640071,66.1104852 L153.640071,97.2247167 L105.457675,97.2247167 L105.457675,68.184268 L82.5513088,97.2176006 L42.3749053,97.2176006 L42.3749053,65.9322081 L49.385392,65.9322081 L49.385392,56.4224705 L40.5636694,56.4209724 C35.6450553,67.2902605 27.9239693,66.3157287 27.9239693,66.3157287 L27.9239693,56.4224705 L9.95071136,56.4224705 C9.03835183,57.0685379 7.92164774,57.4999986 6.64925077,57.4999986 C2.07016474,57.4999986 0,52.6434444 0,49.0951299 C0,45.5464408 2.20403365,40.6913848 6.78325826,40.6913848 C9.55655407,35.4752051 14.3635951,31.650561 20.2508984,31.650561 C23.0901867,31.650561 25.6882016,32.5495872 27.9239693,34.0619093 L27.9239693,31.8520217 C27.9239693,31.8520217 35.6561789,30.8759168 40.5745308,41.7704109 L49.385392,41.7756544 L49.385392,30.9892876 L42.3490626,30.9892876 L42.3490626,0 L89.8138554,0 L89.8138554,30.2277895 L113.579398,0 L153.640071,0 L153.640071,30.9892876 L146.207487,30.9892876 L146.224715,41.87116 C193.29625,42.4029952 197.592879,56.446066 199.744564,59.5981259 Z M150.774528,28.1235199 L150.774528,2.86575274 L114.971907,2.86575274 L82.111983,44.660673 L80.4449418,44.6595494 L80.3838931,28.1235199 L86.9475634,28.1235199 L86.9475634,2.86575274 L45.2153547,2.86575274 L45.2153547,28.1235199 L52.2516841,28.1235199 L52.2513096,44.64307 L38.5805234,44.6352049 C36.9640815,39.3071151 32.8594748,35.482059 30.7898869,35.482059 L30.7898869,41.3194746 C28.3530705,37.1810478 24.5385762,34.5166284 20.2508984,34.5166284 C15.0514978,34.5166284 10.5477525,38.4340814 8.35280878,44.147939 C7.84089868,43.7692873 7.26198484,43.5561787 6.64925077,43.5561787 C4.55977517,43.5561787 2.86604487,46.0359539 2.86604487,49.0951299 C2.86604487,52.1543058 4.55977517,54.634081 6.64925077,54.634081 C7.4887264,54.634081 8.26456908,54.234081 8.8920597,53.556553 L30.7898869,53.556553 L30.7898869,62.7082381 C32.859325,62.7082381 36.9635197,58.8838937 38.5801488,53.556553 L52.2513096,53.556553 L52.2516841,68.7981256 L45.2408228,68.7981256 L45.2408228,94.3520576 L81.1617957,94.3520576 L113.347937,53.556553 L115.75805,53.556553 L115.743443,68.7880133 L108.323218,68.7880133 L108.323218,94.3591737 L150.774528,94.3591737 L150.774528,68.9168522 C150.774528,68.9168522 146.235202,68.8209721 143.377525,68.7689121 C143.385015,66.6775264 143.381644,60.5097363 143.374528,53.556553 L144.301495,53.556553 C158.083142,53.556553 181.503366,53.4584256 193.123216,55.8996241 C181.830707,46.7456917 161.80037,45.012733 144.301495,44.6973772 L143.363292,44.6966281 C143.35318,37.135692 143.341195,30.2500367 143.335577,28.1235199 L150.774528,28.1235199 Z M86.9913836,29.168576 L86.2284623,29.168576 L86.0187244,30.8571902 L86.0112338,30.8571902 L85.3026196,29.168576 L84.9988743,29.168576 L84.330335,30.8571902 L84.3224698,30.8571902 L84.0730316,29.168576 L83.3142301,29.168576 L83.8194736,32.1022089 L84.5704099,32.1022089 L85.1617956,30.5343064 L85.7962525,32.1022089 L86.555054,32.1022089 L86.9913836,29.168576 Z M81.1958781,31.4562913 L81.1977508,32.1022089 L83.2209717,32.1022089 L83.2194736,31.4562913 L82.5891365,31.4562913 L82.583144,29.168576 L81.8205972,29.168576 L81.8265897,31.4562913 L81.1958781,31.4562913 L81.1958781,31.4562913 Z" id="path36" fill="#B3B5B7"></path>
                        <polyline id="path38" fill="#C4122E" points="50.9232197 88.6696607 50.9232197 74.4805225 57.9340809 74.4805225 57.9340809 22.4408983 50.897377 22.4408983 50.897377 8.5483893 81.265541 8.5483893 81.265541 22.4408983 74.9239682 22.4408983 74.8307097 63.1157288 82.3464399 53.556553 94.221346 53.556553 106.11011 53.556553 78.4071141 88.6696607 50.9232197 88.6696607"></polyline>
                        <path d="M145.091757,8.5483893 L145.091757,22.4408983 L137.638199,22.4408983 C137.638199,22.4408983 137.785764,73.5655412 137.642693,74.4591742 C137.893255,74.3284626 145.091757,74.4805225 145.091757,74.4805225 L145.091757,88.6764023 L114.00599,88.6764023 L114.00599,74.4704101 L121.420596,74.4704101 L121.459173,34.102134 L113.10936,44.6850176 L101.394379,44.6741562 L89.3382,44.6636693 L89.3382,44.6636693 L117.732956,8.5483893 L145.091757,8.5483893" id="path40" fill="#C4122E"></path>
                    </g>
                </g>
            </g>
        </g>
    </g>
</svg>