<?xml version="1.0" encoding="UTF-8"?>
<svg width="200px" height="200px" viewBox="0 0 200 200" version="1.1" xmlns="http://www.w3.org/2000/svg" xmlns:xlink="http://www.w3.org/1999/xlink">
    <!-- Generator: Sketch 54.1 (76490) - https://sketchapp.com -->
    <title>northeastern</title>
    <desc>Created with Sketch.</desc>
    <defs>
        <polygon id="path-1" points="0.531449032 0.447062099 153.78283 0.447062099 153.78283 199.004975 0.531449032 199.004975"></polygon>
    </defs>
    <g id="northeastern" stroke="none" stroke-width="1" fill="none" fill-rule="evenodd">
        <g id="northeastern_BGL">
            <g id="northeastern" transform="translate(23.000000, 0.000000)">
                <path d="M59.9060994,186.175323 C61.6865381,187.709652 62.86588,188.741493 63.7441768,189.511642 C65.6001252,191.139502 66.0323187,191.518607 68.1704348,193.148458 C70.2131703,192.44 72.2817381,191.739502 74.3820994,191.029055 L77.3299574,190.035025 C80.3304735,189.023085 83.3290026,188.013134 86.3225639,186.981294 L93.5595703,181.989254 L93.6251445,182.413134 C96.6047961,180.039005 100.012667,177.44796 103.618254,175.012139 C105.043003,172.365373 106.204461,169.669851 107.072822,166.990249 C107.264577,166.394229 107.549725,165.690746 107.945157,164.716617 C111.428538,156.107662 112.649609,150.192239 111.57459,147.136517 C110.472745,143.999204 111.952138,141.351443 112.873157,139.83403 C112.270074,138.591244 111.717661,137.831045 111.717661,137.831045 L107.166215,131.766368 L114.153841,128.797214 C114.241274,128.759403 123.65117,124.671841 130.934874,117.146468 C132.538461,115.487761 134.651738,114.43005 137.000486,114.087761 C138.515648,111.882786 140.624951,108.610149 141.959286,105.686766 C142.663712,103.011144 142.388499,101.385274 142.385519,101.369353 L141.791377,98.680796 L143.53108,96.4240796 C145.164474,94.4031841 146.915106,91.3802985 147.577803,89.1156219 C145.247932,87.6997015 142.065596,87.0141294 140.216603,86.6131343 C139.586693,86.4778109 139.060112,86.361393 138.66468,86.2569154 C135.146525,85.3285572 129.796267,82.8589055 124.538409,80.3285572 L119.685919,77.9952239 L121.537893,72.9325373 C122.221454,71.0658706 122.606951,69.5723383 122.820564,68.5753234 C122.364525,67.5703483 121.609428,66.0937313 120.477777,64.4121393 L120.399286,64.2957214 L119.997893,63.558408 L119.943248,63.4300498 C118.903003,60.9942289 118.068422,57.5315423 117.582577,55.24199 C116.442977,54.1743284 114.483699,52.8230846 113.057957,52.0280597 L109.871648,50.2489552 L110.018693,46.5972139 C110.080293,45.1255721 110.184615,43.7345274 110.278009,42.5076617 C110.633699,37.8051741 110.946667,33.6648756 109.027132,25.3285572 C107.251661,26.9494527 105.481157,29.3504478 104.35348,30.8778109 C102.845274,32.921592 101.848745,34.2728358 100.370345,35.2071642 C97.997751,36.7086567 95.7553123,38.6768159 95.6609252,38.760398 L93.2376606,40.9106468 L90.1139445,40.0220896 L87.4234155,39.2499502 C83.3081381,38.0589055 81.4303316,37.5146269 79.456151,37.5146269 C78.48148,37.5146269 77.3468477,37.640995 75.6607961,37.9375124 L70.6264865,38.8210945 L69.0109768,33.9653731 C63.8882413,18.5753234 58.0710155,10.1773134 53.9289123,7.90865672 C49.5722026,15.478806 47.393351,21.6041791 44.6759961,30.9773134 L44.4822542,31.6459701 L44.1374929,32.2539303 C43.6148865,33.1753234 43.1330155,34.0061692 42.6849252,34.7802985 C39.2671187,40.679801 38.0033252,42.8628856 33.7956477,59.5156219 L33.3783574,61.1673632 L32.1503316,62.3464677 C32.0599187,62.4350249 22.3102284,71.9146269 17.6067703,81.3385075 C16.0727316,84.4091542 14.2843445,88.1653731 12.2853252,92.5106468 C12.373751,99.4877612 11.0344477,106.166368 9.7378671,112.633035 C9.2410929,115.107662 8.73040903,117.650945 8.32603484,120.106667 C7.50138968,125.117612 6.92811226,130.614129 6.52771226,137.357413 C15.0454026,158.194229 23.2759574,168.089751 50.2607316,189.120597 C50.4216865,188.683781 50.5935703,188.287761 50.7743961,187.939502 L54.2269768,181.279801 L59.9060994,186.175323 Z" id="Fill-1" fill="#C3AA84"></path>
                <path d="M55.1323974,185.977313 L57.9709652,188.425075 C59.7861781,189.989254 60.9724748,191.029055 61.8547458,191.801194 C64.01472,193.695721 64.2710555,193.919602 67.6461394,196.476816 C70.1667716,195.590249 72.7231716,194.723582 75.3302426,193.84199 L77.9045265,192.974328 C81.1623716,191.875821 84.4202168,190.778308 87.6701135,189.65791 L91.3561781,187.114627 L91.4893135,187.975323 C95.7178555,184.478806 100.629959,180.567363 105.869933,177.074826 C107.543068,174.064876 108.895288,170.983284 109.89281,167.906667 C110.050785,167.417114 110.320036,166.751443 110.692617,165.83204 C112.243546,161.997214 116.364785,151.813134 114.369739,146.148458 C113.684191,144.195224 114.751262,142.448955 115.530204,141.172338 C115.730901,140.844975 116.039894,140.340498 116.185946,140.016119 C115.253997,137.615124 114.10943,136.076816 114.098501,136.060896 L111.814333,133.017114 L115.311623,131.530547 C115.407997,131.489751 125.282875,127.25194 133.064346,119.213134 C134.702707,117.519602 136.84281,116.948458 138.630204,116.934527 C140.151326,114.790249 143.070372,110.476816 144.75841,106.692736 C145.769843,103.04995 145.298901,100.8201 145.294926,100.796219 L144.985933,99.3962189 L145.879133,98.2370149 C147.809597,95.8489552 150.648165,91.1464677 150.811107,87.8230846 C147.935778,85.24199 143.378372,84.2589055 140.836875,83.7096517 C140.263597,83.5862687 139.780733,83.480796 139.417094,83.3842786 C136.146333,82.521592 130.951068,80.120597 125.822372,77.6529353 L123.396126,76.4857711 L124.323107,73.9544279 C125.317649,71.2360199 125.739907,69.2061692 125.903843,68.240995 C125.510397,67.2668657 124.578449,65.1892537 122.936114,62.7524378 L122.668849,62.2608955 C121.552101,59.6469652 120.649959,55.4778109 120.312152,53.7952239 C118.935094,52.2171144 116.107455,50.3305473 114.501881,49.4340299 L112.907236,48.5444776 L112.981752,46.7166169 C113.039378,45.3245771 113.136746,44.0220896 113.235107,42.7315423 C113.642462,37.3414925 114.027959,32.2320398 110.946965,20.7922388 C107.472526,21.6539303 104.105391,26.2181095 101.968268,29.1136318 C100.612075,30.9514428 99.793391,32.0599005 98.7869265,32.6977114 C96.1530297,34.3633831 93.7247974,36.5106468 93.7009523,36.5315423 L92.4858426,37.6101493 L90.9239845,37.1663682 C89.9493135,36.8887562 89.0610813,36.6320398 88.2443845,36.3962189 C81.6879587,34.4977114 80.3218297,34.1036816 75.1494168,35.0121393 L72.6317652,35.4539303 L71.8240103,33.0270647 C66.1190555,15.8887562 58.8731071,5.17333333 52.5829523,4.35542289 C47.2654813,13.1385075 44.8213523,19.8270647 41.827791,30.1494527 L41.7314168,30.4837811 L41.5585394,30.7872637 C41.0259974,31.7275622 40.5361781,32.5733333 40.0811329,33.359403 C36.5510555,39.4519403 35.2306297,41.7315423 30.9216103,58.7882587 L30.7129652,59.6141294 L30.0989523,60.2031841 C29.9976103,60.3006965 19.9438942,70.0151244 14.9542942,80.0101493 C13.3258684,83.2718408 11.428191,87.2668657 9.30895226,91.8887562 C9.49176516,98.7872637 8.13855226,105.527562 6.82905548,112.05393 C6.33029419,114.541493 5.81364903,117.114627 5.4003329,119.623085 C4.53296516,124.895721 3.93683613,130.703682 3.52948129,137.854925 C12.6244232,160.320597 21.3179716,170.617114 52.0682942,194.273831 C52.4001394,192.125572 52.8681006,190.343483 53.4056103,189.306667 L55.1323974,185.977313 Z" id="Fill-3" fill="#C3AA84"></path>
                <g id="Group-7" transform="translate(0.000000, 0.888557)">
                    <mask id="mask-2" fill="white">
                        <use xlink:href="#path-1"></use>
                    </mask>
                    <g id="Clip-6"></g>
                    <path d="M153.723694,85.65801 C149.714726,81.1674627 142.424068,80.218209 140.171694,79.6251741 C137.025126,78.7963184 131.472185,76.1873632 127.106533,74.0878607 C128.690249,69.7585075 128.946585,67.018209 128.946585,67.018209 C128.946585,67.018209 127.961978,64.0172139 125.394649,60.2032836 C124.111978,57.2032836 123.085643,51.6341294 123.085643,51.6341294 C121.074701,48.8052736 115.944017,45.9505473 115.944017,45.9505473 C116.26692,38.1704478 117.894352,33.25801 113.180959,16.8779104 C105.274301,15.6291542 99.2633329,27.9973134 97.2037071,29.2978109 C94.33732,31.1117413 91.7342232,33.421194 91.7342232,33.421194 C82.7386361,30.8629851 81.1936684,30.0470647 74.636249,31.2002985 C68.630249,13.1565174 60.0966619,-0.455422886 50.929191,0.493830846 C44.6072426,10.6241791 41.9723523,18.1157214 38.9807781,28.4311443 C34.2326103,36.8022886 33.0105458,37.5246766 28.0467781,57.1704478 C28.0467781,57.1704478 17.5916684,67.1973134 12.3020168,77.7933333 C10.4252039,81.5545274 8.36061032,85.938607 6.32184903,90.4022886 C6.71728129,99.7853731 4.0029071,108.984378 2.47582323,118.25204 C1.42762968,124.617214 0.883165161,131.033134 0.531449032,137.462985 C10.1877458,161.523682 19.2022103,172.156517 54.5347781,199.005274 C54.6708942,194.66597 55.4001587,191.015224 56.0370232,189.786368 C62.8875394,195.691841 60.7514103,194.093831 67.1309845,198.919701 C70.1642877,197.835124 73.2184555,196.800299 76.277591,195.767463 C80.5269974,194.333632 84.778391,192.908756 89.0188555,191.44408 C89.0645587,191.412239 89.1072813,191.383383 89.1529845,191.351542 C89.1549716,191.366468 89.1569587,191.381393 89.1599394,191.397313 C89.2622748,191.360498 89.3665974,191.325672 89.47092,191.289851 C90.4306877,190.957512 91.3844942,190.600299 92.3383006,190.238109 C97.4163265,186.011244 102.586752,181.891841 108.100946,178.26995 C109.919139,175.088856 111.511797,171.641095 112.712997,167.934627 C113.52572,165.425174 119.967888,152.230149 117.167075,144.27194 C116.691165,142.918706 119.796004,140.358507 119.11443,138.493831 C117.975823,135.362488 116.461655,133.379403 116.461655,133.379403 C116.461655,133.379403 126.865101,128.997313 135.193023,120.390348 C136.776739,118.754527 139.166223,118.911741 140.008752,119.197313 C140.008752,119.197313 145.06492,112.503781 147.554752,106.815224 C148.908959,102.105771 148.179694,99.2231841 148.179694,99.2231841 C148.179694,99.2231841 154.453952,91.4958209 153.723694,85.65801" id="Fill-5" fill="#010101" mask="url(#mask-2)"></path>
                </g>
                <path d="M114.736657,148.30806 C116.993005,157.780697 110.652179,168.266269 103.180695,176.229453 C103.350592,173.711045 103.269121,171.557811 102.909457,169.803582 C96.836889,176.895124 83.7111213,185.679204 75.1616374,188.555821 C63.1665277,181.030448 58.4163729,178.646368 45.7714826,167.005572 C45.1644245,169.669254 44.8723213,172.443383 44.8474826,175.313035 C19.6053923,151.357811 19.7782697,146.960796 14.9585665,133.52 C22.9437148,144.450348 29.4117148,150.701095 40.1221665,157.407562 C40.2235084,155.627463 40.5205794,153.917015 41.0829277,152.298109 C49.8003213,158.961791 56.9240632,162.164776 65.0224761,165.992637 C55.534089,155.390647 48.4838697,146.471244 39.4167471,134.179701 C38.8116761,135.776716 38.4937406,137.480199 38.3933923,139.871244 C35.3253148,137.165771 32.834489,133.382687 30.9010439,128.893134 C29.8687471,130.005572 28.9636245,131.286169 28.2184632,132.772736 C23.5428245,122.662289 23.4037277,119.726965 29.8578181,110.092139 C30.9079987,115.166766 32.5642439,118.550846 34.7758826,120.386667 C35.0659987,119.436418 35.4564632,118.582687 35.9681406,117.851343 C39.8479471,122.678209 46.1748632,128.856318 50.7948632,130.890149 C53.3085406,131.996617 61.6434181,131.766766 64.2773148,129.93791 C53.0472374,123.619502 48.942889,121.366766 40.4480503,102.255323 C44.7729665,104.079204 48.4719471,105.214527 51.4843858,105.601592 C46.9756632,101.811542 43.20316,97.4991045 40.4460632,92.4622886 C40.4460632,92.4622886 49.7337535,90.8234826 52.1093277,88.2324378 C52.6955213,87.5936318 51.376089,85.8831841 51.0581535,85.3030846 C56.3080632,83.1806965 61.232089,80.5856716 63.7547084,78.2841791 C64.6806955,77.4374129 67.8858826,76.9886567 69.8312503,77.278209 C72.9817923,79.4622886 74.1561665,83.3379104 76.9073019,85.2085572 C78.5754697,86.3418905 82.2744503,86.039403 84.393689,85.3846766 C87.7339987,84.3518408 90.8686439,82.1468657 90.8686439,82.1468657 C86.6639471,82.1130348 83.2978052,80.8622886 80.8695729,78.8951244 C77.4905148,76.160796 74.5893535,72.2045771 71.9624116,70.5070647 C72.9887471,69.0145274 74.8099213,67.8971144 74.8099213,67.8971144 C74.8099213,67.8971144 71.9564503,66.9727363 70.472089,65.4662687 C76.0021794,61.919005 76.9281665,58.0692537 78.7682181,57.0165174 C80.5715084,55.9836816 83.254089,56.5140299 83.254089,56.5140299 C83.254089,54.7229851 82.1939729,53.3030846 82.1939729,53.3030846 C86.8954439,40.6632836 90.8686439,47.1966169 93.7340374,44.3946269 C101.441986,48.639403 105.338683,53.0642786 109.144966,63.079204 C108.122605,53.7418905 106.567702,50.280199 103.947715,45.4712438 C109.774876,49.8493532 111.619895,52.7697512 113.929895,63.5020896 C114.509134,54.7568159 116.276657,52.2324378 116.276657,52.2324378 C118.178308,53.0324378 120.040218,54.6722388 120.180308,55.5856716 C120.559844,58.0921393 121.098347,61.9816915 121.098347,61.9816915 C123.675612,66.1558209 124.464489,68.0214925 124.539999,68.4354229 C124.213121,69.4125373 123.82365,70.9637811 123.244412,70.9428856 C122.084941,70.9000995 121.339779,68.9876617 121.339779,68.9876617 C120.321392,70.1727363 120.089895,71.6453731 119.329831,71.6881592 C117.415263,71.7956219 115.98356,69.7637811 115.98356,69.7637811 C116.670102,72.0533333 117.269212,74.2045771 119.574244,75.5100498 C121.88027,76.8125373 129.513702,81.0951244 135.499831,83.2095522 C134.659289,83.4453731 133.719392,83.8115423 132.522166,84.4891542 C132.102889,86.7349254 131.758128,89.0632836 131.896231,91.120995 C131.946902,91.9030846 136.379121,94.8284577 138.151612,100.623483 C138.388076,101.398607 140.027431,102.71204 140.966334,103.130945 C142.219199,102.764776 143.53565,101.779701 143.53565,101.779701 C143.53565,104.136915 143.053779,106.10408 143.053779,106.10408 C143.053779,106.10408 141.581341,109.968756 138.938502,111.980697 C138.010528,110.73194 137.713457,110.080199 137.053741,109.541891 C135.253431,109.50408 122.148528,116.853333 108.57467,113.276219 C100.286489,111.092139 91.46676,105.678209 85.5144116,109.671244 C94.1443729,110.495124 103.227392,117.183682 108.879689,118.151841 C118.063057,119.726965 120.658205,117.828458 126.224063,117.31602 C129.126218,117.048358 130.662244,117.922985 130.49036,118.654328 C130.033328,120.597612 117.843483,129.273234 107.288025,126.957811 C102.970063,122.901095 93.7380116,120.33592 87.3445277,120.460299 C82.7096245,120.792637 77.5461535,124.290149 77.5461535,124.290149 C85.0851987,124.952836 88.0638568,126.482189 94.218889,133.348856 C91.5144503,133.352836 89.5531858,133.783682 87.4359342,135.372736 C96.9571084,141.654328 95.3237148,154.851343 91.5382955,166.961791 C96.4245665,165.299104 103.364502,160.237413 105.98747,157.014527 C106.261689,158.404577 106.379921,160.324975 106.26467,161.897114 C107.713263,160.551841 112.080902,155.51204 114.736657,148.30806" id="Fill-8" fill="#FFFFFF"></path>
                <path d="M110.272445,69.0655721 C110.220781,70.2725373 109.735929,71.7859701 108.494987,73.6237811 C108.494987,73.6237811 109.251077,78.2178109 106.390652,82.9202985 C102.988742,77.1362189 98.934071,74.8864677 98.934071,74.8864677 C96.0527806,76.0526368 92.6538516,76.4118408 90.5286516,75.9312438 C88.4034516,75.4506468 82.6200065,68.7322388 79.7287806,68.0814925 C83.2946258,64.8546269 87.8560065,63.8018905 90.3229871,63.7103483 C90.3229871,62.7242786 89.5013226,60.4158209 89.5013226,60.4158209 C95.3950516,61.1700498 99.1029742,68.218806 102.287297,69.3531343 C105.27291,70.4178109 110.272445,69.0655721 110.272445,69.0655721" id="Fill-10" fill="#010101"></path>
                <path d="M96.74896,71.2236816 L91.2685471,71.7092537 C91.2685471,71.7092537 89.706689,70.8674627 88.6932697,69.0087562 C90.2720181,67.6177114 92.7509213,67.8296517 92.9565858,67.8316418 C94.5363277,69.0873632 96.74896,71.2236816 96.74896,71.2236816" id="Fill-12" fill="#FFFFFF"></path>
                <path d="M70.6323484,41.1620896 C68.5131097,19.0496517 57.8195484,7.82378109 53.9844516,7.71432836 C44.4513548,21.5999005 42.0708129,39.1909453 43.4488645,51.6078607 C41.0256,50.2367164 38.1800774,47.3879602 38.1800774,47.3879602 C39.1289161,52.2416915 38.9192774,58.9949254 38.9192774,58.9949254 C29.7518065,64.9033831 25.1149161,74.6108458 23.2202194,79.6755224 C28.4880129,73.2387065 36.8109677,67.2247761 44.3977032,65.5362189 C45.8711355,63.6377114 45.6614968,60.4715423 45.6614968,60.4715423 C48.5050323,60.5770149 49.6645032,58.9949254 49.6645032,58.9949254 C43.4488645,41.1620896 51.2452387,21.6416915 54.4057161,18.2645771 C59.6745032,19.1093532 62.9402968,24.9123383 62.5190323,29.5561194 C60.726671,27.339204 57.461871,28.0795025 57.461871,28.0795025 C59.0416129,33.5640796 56.7246581,39.2635821 55.3545548,43.5889552 C55.5641935,45.700398 57.461871,48.1262687 57.461871,48.1262687 C54.7216645,48.1262687 53.6694968,50.9750249 53.6694968,50.9750249 C56.1980774,51.0814925 57.3565548,52.1362189 57.8831355,53.4028856 C63.9944516,49.18199 66.9442968,43.379005 67.2592516,41.0566169 C69.1430194,41.8974129 70.6323484,41.1620896 70.6323484,41.1620896" id="Fill-14" fill="#FFFFFF"></path>
                <path d="M100.191406,38.6327363 C101.849639,31.2397015 106.593832,22.1879602 110.811445,22.5650746 C113.072761,29.3541294 113.561587,33.7521393 112.239174,42.5232836 C110.917755,32.3451741 108.721019,32.3242786 109.548645,27.9690547 C105.340968,30.1461692 105.088606,31.6884577 105.088606,37.1242786 C106.141768,35.3899502 108.026529,35.0118408 108.026529,35.0118408 C107.1224,39.3123383 108.930658,43.6874627 108.930658,43.6874627 C105.163123,40.820796 100.191406,38.6327363 100.191406,38.6327363" id="Fill-16" fill="#FFFFFF"></path>
                <path d="M146.792105,93.4 C146.792105,93.4 150.319201,89.4268657 149.653524,86.318408 C146.196969,83.1243781 140.36484,85.5154229 137.334517,87.5532338 C139.053356,88.3472637 141.451782,88.5930348 141.451782,88.5930348 C146.056879,87.8069652 147.23324,89.4268657 147.23324,89.4268657 C147.427975,91.1920398 146.792105,93.4 146.792105,93.4" id="Fill-18" fill="#FFFFFF"></path>
            </g>
        </g>
    </g>
</svg>