<?xml version="1.0" encoding="UTF-8"?>
<svg width="200px" height="200px" viewBox="0 0 200 200" version="1.1" xmlns="http://www.w3.org/2000/svg" xmlns:xlink="http://www.w3.org/1999/xlink">
    <!-- Generator: Sketch 54.1 (76490) - https://sketchapp.com -->
    <title>north-carolina</title>
    <desc>Created with Sketch.</desc>
    <g id="north-carolina" stroke="none" stroke-width="1" fill="none" fill-rule="evenodd">
        <g id="north-carolina_BGL">
            <g id="north-carolina" transform="translate(-1.000000, 24.000000)">
                <g id="g10" transform="translate(100.274613, 75.734684) scale(-1, 1) rotate(-180.000000) translate(-100.274613, -75.734684) translate(0.000000, 0.072931)" fill-rule="nonzero">
                    <g id="g12">
                        <path d="M29.5383486,75.0101509 C29.5383486,66.1648361 34.8831678,58.0033942 43.9135348,51.4262912 C45.233878,58.9199042 45.9432753,66.8321181 45.9432753,75.0101509 C45.9432753,83.1965704 45.233878,91.1095136 43.9135348,98.5989333 C34.8831678,92.0247473 29.5383486,83.8603883 29.5383486,75.0101509 M41.5419491,57.6152403 C36.9457254,61.9166566 32.8178754,67.792202 32.8178754,75.0101509 C32.8178754,82.2359396 36.9457254,88.1085679 41.5419491,92.4057908 C42.2856221,86.7083696 42.6630193,80.8862433 42.6630193,75.0101509 C42.6630193,69.1382519 42.2856221,63.3090152 41.5419491,57.6152403" id="path14" fill="#1A2847"></path>
                        <path d="M72.19918,75.0116095 C72.19918,62.8211336 70.8161197,51.0930148 68.2622164,40.1134916 C78.2690759,37.2554828 89.6531615,35.6303048 101.736799,35.6303048 C107.407055,35.6303048 112.922888,35.9969453 118.222857,36.6700614 L71.56745,89.218699 C71.9833162,84.5683271 72.19918,79.8244263 72.19918,75.0116095 M111.512845,39.2872288 C108.270146,39.0416472 105.002105,38.913478 101.736799,38.913478 C91.5076949,38.913478 81.3491473,40.1397453 72.1435732,42.4635639 C74.3585483,53.000238 75.4801654,63.9370989 75.4801654,75.0116095 C75.4801654,76.6595772 75.4559172,78.3075448 75.4054152,79.954054 L111.512845,39.2872288" id="path16" fill="#1A2847"></path>
                        <path d="M101.736799,114.393461 C96.0585215,114.393461 90.5397714,114.031743 85.2412609,113.360086 L131.902502,60.8057962 C131.485725,65.4576266 131.270772,70.1993396 131.270772,75.0101509 C131.270772,87.2026323 132.655109,98.9329389 135.20336,109.910457 C125.199418,112.772659 113.815332,114.393461 101.736799,114.393461 M128.060162,70.0711704 L91.9527319,110.743647 C95.1832153,110.987224 98.4556317,111.109741 101.736799,111.109741 C111.957882,111.109741 122.117159,109.888214 131.322004,107.556556 C129.110675,97.0235279 127.985411,86.0844792 127.985411,75.0101509 C127.985411,73.3700229 128.015311,71.7198674 128.060162,70.0711704" id="path18" fill="#1A2847"></path>
                        <path d="M172.464495,64.7134067 C171.84498,65.3316453 171.008143,65.6749491 170.144141,65.6749491 C170.018159,65.6749491 169.893454,65.6663802 169.766743,65.648513 C168.771837,65.5394872 167.881581,64.9719329 167.354683,64.1174109 C165.964512,61.8703479 164.144072,59.699676 161.925633,57.6238092 C161.181413,63.3126615 160.807662,69.1417159 160.807662,75.0101509 C160.807662,80.8869725 161.181413,86.7083696 161.925633,92.4021445 C164.144072,90.321902 165.964512,88.1541472 167.354683,85.9043495 C167.881581,85.0525623 168.771837,84.4892013 169.766743,84.3767114 C169.893454,84.354651 170.018159,84.3510046 170.144141,84.3510046 C171.008143,84.3510046 171.84498,84.695767 172.464495,85.3081714 L190.84629,103.693066 C192.033177,104.879588 192.135275,106.76548 191.08148,108.072332 C185.883608,114.531658 179.223004,120.341569 171.260835,125.374625 C172.671061,128.378488 174.205809,131.221547 175.841562,133.851659 C176.308841,134.605177 176.450502,135.511112 176.239014,136.369281 C176.025338,137.225261 175.476927,137.964559 174.715022,138.409596 C167.297618,142.769536 159.134717,146.448702 150.444008,149.348644 C150.102162,149.460405 149.74956,149.516012 149.405527,149.516012 C148.266043,149.516012 147.175055,148.922751 146.573225,147.897944 C144.81058,144.891894 143.144198,141.722669 141.596505,138.451529 C128.980318,142.085845 115.587823,143.926887 101.734612,143.926887 C89.5321027,143.926887 77.6180201,142.488949 66.2902706,139.64662 L58.0531669,148.922751 C57.4250832,149.635612 56.5220647,150.027412 55.6019084,150.027412 C55.265715,150.027412 54.9267868,149.971805 54.6004385,149.867155 C45.3237605,146.891005 36.6237528,143.035172 28.7441737,138.405949 C27.9002261,137.908952 27.3199095,137.059352 27.1667628,136.085777 C27.0292955,135.217581 27.2486234,134.330242 27.7649465,133.627408 C29.3460037,131.06129 30.8359021,128.298815 32.2047417,125.378089 C11.6939525,112.398726 0,94.1684362 0,75.0101509 C0,55.8525949 11.6939525,37.6279574 32.2047417,24.6413011 C30.7952453,21.6430902 29.2597675,18.8064125 27.6260206,16.1735476 C27.1631165,15.4186439 27.0207265,14.5106117 27.2307563,13.6574388 C27.4437031,12.7942749 27.9928433,12.0621608 28.7549304,11.6134775 C36.1679591,7.25851461 44.337423,3.57869155 53.0215691,0.676569224 C53.36779,0.5626208 53.7160164,0.507070487 54.062055,0.507070487 C55.2015392,0.507070487 56.2941679,1.10529971 56.8958155,2.12585826 C58.6584609,5.13978496 60.325025,8.30399596 61.8710772,11.565765 C74.4803363,7.93864997 87.8733783,6.09624069 101.734612,6.09624069 C113.944778,6.09624069 125.861777,7.53840841 137.177494,10.3778573 L145.41241,1.10529971 C146.047786,0.388137503 146.943694,0 147.865856,0 C148.202779,0 148.538972,0.0512767908 148.872249,0.156679083 C158.14838,3.13002647 166.841824,6.99001566 174.722132,11.6191841 C175.569544,12.1155616 176.147855,12.9666196 176.304648,13.9337592 C176.438469,14.8061665 176.222605,15.690698 175.704824,16.3957562 C174.120302,18.9666696 172.631863,21.7285971 171.260835,24.6449475 C179.223004,29.6849319 185.883608,35.4913789 191.08148,41.9508872 C192.135275,43.2577389 192.033177,45.1485534 190.84629,46.3321585 L172.464495,64.7134067 Z M167.080478,25.9339321 C168.855156,21.8403577 170.842963,18.0145348 173.020016,14.4977947 L173.059215,14.4500823 C165.453112,9.97761572 156.991028,6.21161119 147.865856,3.28313669 L138.303487,14.054818 C126.996886,11.0387581 114.657092,9.37582219 101.734612,9.37582219 C86.8465663,9.37582219 72.7319117,11.5885547 60.0814488,15.5290371 C58.2511637,11.4268938 56.2412958,7.50777907 54.062055,3.79021629 C45.5337903,6.63750482 37.5936818,10.2283023 30.4178481,14.4429719 C32.6071164,17.9767951 34.6054983,21.817568 36.3850992,25.930468 C16.0816778,37.9533941 3.28313669,55.4821258 3.28313669,75.0101509 C3.28313669,94.5423694 16.0816778,112.074747 36.3850992,124.096215 C34.6126087,128.183408 32.6255305,132.012805 30.4506653,135.528797 L30.4070914,135.577294 C38.0168406,140.04553 46.4816588,143.817132 55.6019084,146.744239 L65.173576,135.966906 C76.4743426,138.982255 88.812131,140.643714 101.734612,140.643714 C116.622657,140.643714 130.734394,138.436032 143.388504,134.490499 C145.218789,138.592642 147.22501,142.518849 149.405527,146.236485 C157.936162,143.387045 165.879005,139.799766 173.052104,135.582216 C170.862107,132.051273 168.862266,128.202005 167.080478,124.092751 C175.722691,118.970724 183.012108,112.862359 188.529035,106.013967 L170.144141,87.6341778 C167.678661,91.6108866 164.076433,95.2971637 159.556235,98.5918229 C158.231699,91.0982099 157.525219,83.1931063 157.525219,75.0101509 C157.525219,66.8357645 158.231699,58.9233682 159.556235,51.4299375 C164.076433,54.7273314 167.678661,58.4163433 170.144141,62.3939637 L188.529035,44.0125332 C183.012108,37.1650534 175.722691,31.0559593 167.080478,25.9339321 L167.080478,25.9339321 Z" id="path20" fill="#1A2847"></path>
                        <path d="M159.556235,51.4299375 C158.231699,58.9233682 157.525219,66.8357645 157.525219,75.0101509 C157.525219,83.1931063 158.231699,91.0982099 159.556235,98.5918229 C164.074974,95.2971637 167.678661,91.6108866 170.144141,87.6341778 L188.529035,106.013967 C183.012108,112.8609 175.722691,118.970724 167.080478,124.092751 C168.860808,128.202005 170.862107,132.049815 173.052104,135.581487 C165.879005,139.798308 157.936162,143.387045 149.405527,146.236485 C147.22501,142.518849 145.218789,138.594101 143.388504,134.491958 C130.734394,138.436032 116.622657,140.645172 101.734612,140.645172 C88.812131,140.645172 76.4743426,138.982255 65.1713882,135.966906 L55.5997206,146.74351 C46.4802003,143.817132 38.0168406,140.04553 30.4070914,135.576564 L30.4506653,135.528797 C32.6255305,132.012805 34.6126087,128.183408 36.3850992,124.096215 C16.0816778,112.074747 3.28313669,94.5423694 3.28313669,75.0101509 C3.28313669,55.4821258 16.0816778,37.9533941 36.3850992,25.930468 C34.6054983,21.817568 32.6071164,17.9767951 30.4178481,14.4429719 C37.5922232,10.2283023 45.5337903,6.63750482 54.062055,3.79021629 C56.2412958,7.50777907 58.2511637,11.4268938 60.079261,15.5290371 C72.7319117,11.5871327 86.8465663,9.37582219 101.734612,9.37582219 C114.657092,9.37582219 126.996886,11.0387581 138.303487,14.054818 L147.865856,3.28313669 C156.991028,6.21161119 165.453112,9.97761572 173.059215,14.4500823 L173.020016,14.4977947 C170.840776,18.0145348 168.855156,21.8388992 167.080478,25.9339321 C175.722691,31.0559593 183.012108,37.1650534 188.529035,44.0125332 L170.144141,62.3939637 C167.678661,58.4163433 164.074974,54.7273314 159.556235,51.4299375 M43.9128056,51.4262912 C34.8824385,58.0033942 29.5390779,66.1648361 29.5390779,75.0101509 C29.5390779,83.8603883 34.8824385,92.0247473 43.9128056,98.5989333 C45.2346073,91.1095136 45.9447339,83.1965704 45.9447339,75.0101509 C45.9447339,66.8321181 45.2346073,58.9199042 43.9128056,51.4262912 M101.734612,35.6303048 C89.6524323,35.6303048 78.2690759,37.2540243 68.2629457,40.1134916 C70.8153904,51.0915563 72.1977215,62.8211336 72.1977215,75.0101509 C72.1977215,79.8258848 71.9840454,84.5675978 71.5667207,89.218699 L118.221581,36.67152 C112.925076,35.9984038 107.407055,35.6303048 101.734612,35.6303048 M131.902502,60.8057962 L85.2405316,113.358809 C90.5405007,114.031743 96.0592508,114.393461 101.734612,114.393461 C113.813145,114.393461 125.19723,112.772659 135.205548,109.910457 C132.653833,98.9329389 131.268585,87.2040908 131.268585,75.0101509 C131.268585,70.1993396 131.485725,65.4576266 131.902502,60.8057962" id="path22" fill="#82AFD8"></path>
                        <path d="M189.161677,28.9144582 C193.754254,28.9144582 197.586567,25.2573519 197.586567,20.5121749 C197.586567,15.7939626 193.754254,12.1141396 189.161677,12.1141396 C184.567276,12.1141396 180.740068,15.7939626 180.740068,20.5121749 C180.740068,25.2573519 184.567276,28.9144582 189.161677,28.9144582 L189.161677,28.9144582 Z M189.161677,10.4846771 C194.777055,10.4846771 199.218309,14.9236884 199.218309,20.5121749 C199.218309,26.1049458 194.777055,30.5467466 189.161677,30.5467466 C183.546298,30.5467466 179.107779,26.1049458 179.107779,20.5121749 C179.107779,14.9236884 183.546298,10.4846771 189.161677,10.4846771 L189.161677,10.4846771 Z M190.900985,20.00515 C192.403281,20.0563812 193.907401,20.8738928 193.907401,23.0937904 C193.907401,25.4653761 192.071464,26.0799684 190.029508,26.0799684 L185.283784,26.0799684 L185.283784,14.7990561 L186.913702,14.7990561 L186.913702,20.00515 L189.004884,20.00515 L191.892793,14.7990561 L193.754254,14.7990561 L190.900985,20.00515 Z M189.725038,24.4454922 C191.077833,24.4454922 192.277482,24.3386541 192.277482,22.91439 C192.277482,21.3796414 190.182655,21.6394438 188.653011,21.6394438 L186.913702,21.6394438 L186.913702,24.4454922 L189.725038,24.4454922 L189.725038,24.4454922 Z" id="path24" fill="#82AFD8"></path>
                    </g>
                </g>
            </g>
        </g>
    </g>
</svg>