<?xml version="1.0" encoding="UTF-8"?>
<svg width="200px" height="200px" viewBox="0 0 200 200" version="1.1" xmlns="http://www.w3.org/2000/svg" xmlns:xlink="http://www.w3.org/1999/xlink">
    <!-- Generator: Sketch 54.1 (76490) - https://sketchapp.com -->
    <title>northern-ill</title>
    <desc>Created with Sketch.</desc>
    <defs>
        <path d="M52.9016605,1.90263925 L68.7749738,2.30224823 L75.3188642,15.1835773 L63.0428137,10.3976537 L70.8316698,23.3216025 L58.939979,22.0347991 L66.0218947,30.960312 L111.408404,32.505962 C113.171063,33.5429122 122.780838,38.2314751 124.58768,47.4999011 C124.58768,47.4999011 126.206839,44.9126088 126.330007,41.5550332 C128.488364,45.434994 129.542128,48.4891483 129.542128,48.4891483 L126.318667,55.165199 C126.318667,55.165199 124.552881,50.0899303 124.340564,50.7143682 C123.755618,52.4355803 121.990613,55.3853359 120.136849,55.165199 C115.426781,54.6060592 116.118472,48.0168121 116.118472,48.0168121 C106.743692,53.2035177 115.924142,60.8617776 115.924142,60.8617776 L82.9591377,67.9593336 L85.4701836,71.5159317 C85.4701836,71.5159317 79.8604086,80.1974565 73.9257069,86.8828913 L73.4459415,80.6916891 C71.0310833,82.0312785 67.5667627,84.1302032 62.9368508,83.5241426 C49.4220907,81.7560097 53.2582587,73.0490695 53.9315725,71.4975544 C52.3241434,72.6107509 50.2248277,73.2844556 47.9280535,73.2844556 C42.8699892,73.2844556 38.7698915,70.0172026 38.7698915,65.9867041 C38.7698915,65.3055702 38.8871936,64.6467237 39.1057664,64.0215038 C12.6529811,72.2361663 3.73333324,52.3194513 3.73333324,52.3194513 C13.0854347,55.0353847 22.4375361,51.7380241 22.4375361,51.7380241 C6.29090893,46.4512207 0.00860215032,29.1530785 0.00860215032,29.1530785 C5.63479947,32.2967734 19.3345059,33.6152484 19.3345059,33.6152484 C3.38572817,22.9051803 3.15190608,7.30518066 3.15190608,7.30518066 C18.1700875,21.1194521 37.4557175,23.6809378 37.4557175,23.6809378 C23.3165195,10.2729225 20.1884648,0.00195503416 20.1884648,0.00195503416 C34.2166169,10.2658844 56.8637327,8.54154426 56.8637327,8.54154426 C53.7876819,3.16363628 52.9016605,1.90263925 52.9016605,1.90263925 L52.9016605,1.90263925 Z" id="path-1"></path>
    </defs>
    <g id="northern-ill" stroke="none" stroke-width="1" fill="none" fill-rule="evenodd">
        <g id="northern-ill_BGL" transform="translate(0.000000, -0.000000)">
            <g id="northern-ill" transform="translate(0.000000, 3.000000)">
                <g id="g10" transform="translate(99.902246, 97.094822) scale(-1, 1) rotate(-180.000000) translate(-99.902246, -97.094822) translate(0.000000, 0.125127)">
                    <g id="g12">
                        <path d="M142.997455,72.7241429 C142.726096,70.4293238 142.417983,67.980057 142.154444,66.2791772 L141.690319,63.2836739 L66.8449641,63.633234 C66.8449641,63.633234 66.9497539,64.1919828 67.0807412,64.8656875 C63.6969681,62.9219926 59.2097737,58.3608979 56.0907122,55.6840651 L51.1081121,51.4080144 L50.3042021,57.9241432 C49.7200379,62.6568899 49.8608003,70.3999982 50.127076,75.4619727 C46.6228727,73.6997049 42.2518074,70.846137 39.5706735,66.7210149 L34.9100285,59.5507316 C34.9100285,59.5507316 34.0434009,63.7251206 33.5787675,66.8582583 C33.1174967,69.9667627 32.6961087,73.7810343 32.9180441,76.3867039 C33.1711429,79.3626569 33.8025407,82.9661758 35.1670763,86.9067427 C31.0076239,84.6275639 25.6295986,80.7335268 20.4128636,74.1853354 L13.2806253,65.2316699 L14.1490906,76.6455504 C16.0277611,101.332158 27.3243395,119.974582 38.0532151,132.380837 C46.2107515,141.813486 54.1094806,147.72551 57.4967728,150.060211 C57.2942312,162.970084 59.6488744,172.047699 62.5700864,178.406252 C64.1008782,181.738021 65.7653943,184.275655 67.240663,186.191198 C68.6475056,188.017591 69.8545437,189.236359 70.556401,190.019546 C72.8590402,192.58846 78.9079159,197.239096 82.5110439,189.518666 C85.2277594,183.696965 88.3968697,179.043593 90.8997045,175.836164 C94.537632,187.883866 100.574778,191.060797 105.116322,190.647112 C105.727466,190.591589 106.69247,190.330396 107.664513,189.405274 C108.024631,189.062752 108.36598,188.660797 108.663536,188.285821 C109.224631,187.578099 109.928834,186.578294 110.718277,185.380641 C112.187289,183.153075 113.985921,180.198236 115.729811,177.247307 C118.007817,173.393153 120.193545,169.54721 121.414269,167.381032 C123.720427,167.324336 125.811532,167.173016 127.714562,166.944668 L132.062558,178.560308 L156.262362,148.188071 L155.975363,147.704786 L189.700484,141.124923 L190.441442,139.440075 C192.717493,134.268227 198.781227,125.52336 198.841833,125.435774 L199.632449,124.299117 L199.436554,122.928247 C196.117688,99.6993132 177.791589,94.0836731 169.576926,93.2453545 L153.15894,90.3999977 C152.798432,89.8099684 152.317103,88.9149538 151.879566,87.781034 C150.869595,85.1640252 149.890905,80.9266842 150.432841,74.8261956 L151.002147,68.4199396 C151.002147,68.4199396 145.313388,71.3868995 142.997455,72.7241429" id="path14" fill="#AAAFB6" fill-rule="nonzero"></path>
                        <polyline id="path16" fill="#AAAFB6" points="187.051413 79.9135855 180.819546 63.6226768 180.819546 29.2117295 187.913974 12.7268032 169.32199 12.9653956 176.505176 0 12.6470769 0 18.3194521 12.7268032 0.18084066 12.7268032 7.37110441 28.4162652 7.37110441 63.6046905 0 79.9135855 187.051413 79.9135855"></polyline>
                        <path d="M65.6871929,70.5477988 C62.7867042,68.9352866 59.3043973,66.837144 56.0895392,64.4656875 C55.5460397,70.3042016 55.4314747,76.3663715 56.4672518,80.5094799 L57.3012693,83.8447682 C57.3012693,83.8447682 53.8717484,83.0639275 52.1759518,82.5399784 C50.472335,82.0140742 48.2518072,81.2304965 46.179471,80.2072316 C43.6672521,78.9665669 40.8324525,77.2183754 38.4550528,74.8324517 C38.4740166,75.1788838 38.4987283,75.538219 38.5303607,75.9092845 C38.8957175,80.2017575 40.1759521,86.0754622 43.8568904,92.3327445 L46.2498522,96.4003886 L41.6218953,95.4748754 C41.5057663,95.451806 37.4392171,94.6287366 32.2331566,92.0003887 C29.0649455,90.4007798 25.4439876,88.1172998 22.032453,84.9129989 C27.9015438,105.007231 37.089305,119.772431 45.2042999,129.797846 C49.8459421,135.532743 54.13646,139.716126 57.2531755,142.456301 C60.3229701,145.156204 63.2175937,147.102245 63.2175937,147.102245 L63.176147,148.274874 C62.7143679,161.466663 65.0682291,170.193544 67.7630482,175.940172 C69.1128037,178.819155 70.5634391,180.982596 71.8299102,182.609575 C73.1530774,184.310455 74.2901252,185.45415 74.9395876,186.221696 C75.5425201,186.934111 75.9976521,187.40762 76.3483852,187.701266 C76.7182777,188.011334 76.8789815,188.041442 76.8989228,188.042615 C76.9000958,188.041833 76.8965768,188.032449 76.9528818,187.962459 C77.0768309,187.808793 77.2132923,187.550728 77.4068407,187.136652 C83.320428,174.464121 91.1999977,166.943495 91.2961854,166.851609 L94.134895,164.147796 L94.8316692,168.005861 C97.4643182,182.581423 102.307329,184.733133 104.011337,185.008011 C105.10381,183.599995 108.027368,178.881325 111.005667,173.899507 C114.314758,168.363632 117.439684,162.951316 117.507719,162.832841 L118.116908,161.773603 L119.338804,161.773603 C123.40332,161.773603 126.788267,161.47722 129.641443,160.966174 L131.374777,160.655714 L133.852587,167.274678 L149.433036,147.720817 L147.048286,143.707914 L185.754834,136.156008 C187.051413,133.463144 189.006056,130.205275 190.718666,127.510065 C191.991393,125.506937 193.126095,123.818179 193.737239,122.920036 C190.636163,103.958942 175.648089,99.4901246 168.819155,98.827368 L150.084454,95.5835753 L149.598823,95.0596262 C149.313779,94.7519038 144.677611,89.5507309 144.645549,78.339001 C143.510847,79.1006823 142.424239,79.940565 141.852587,80.6604085 L139.742714,83.316518 L138.290124,80.2514154 C138.149752,79.9558142 134.60332,78.2150518 135.859234,68.6866063 C134.510652,69.2563033 133.674679,68.3702818 132.798433,67.1464304 L131.634405,67.8725301 C131.634405,67.8725301 130.046527,69.3309856 127.410358,68.0821097 C124.693643,66.7949152 121.638707,69.6836737 116.460994,68.3980433 C106.417593,65.9038107 93.506156,67.698141 73.476049,69.2504382 C74.0954038,72.3182778 73.7900275,68.667838 75.1964791,71.0478966 L78.6162248,76.8351887 C78.6162248,76.8351887 69.5577695,72.6995094 65.6871929,70.5477988" id="path18" fill="#FFFFFF" fill-rule="nonzero"></path>
                        <path d="M71.0823052,66.9141723 C71.0823052,66.9141723 71.4455505,68.8520022 73.3779063,72.1223833 C73.3779063,72.1223833 61.3251207,64.8160297 53.7978481,58.3558148 C52.9556194,65.180448 53.045551,75.5319629 54.418376,81.0216989 C54.418376,81.0216989 41.7861182,75.4400763 36.0140362,66.5599201 C36.0140362,66.5599201 34.2975553,80.2478963 42.0359716,93.4037122 C42.0359716,93.4037122 28.5651997,88.9939372 16.8586506,74.2983364 C20.4684257,121.73333 61.0654921,148.201365 61.0654921,148.201365 C60.1208196,175.174971 70.5157363,184.699507 73.1781018,187.669986 C75.7012689,190.484844 77.766567,191.359917 79.3208191,188.029712 C85.0787858,175.6911 92.7530769,168.381227 92.7530769,168.381227 C95.8607992,185.587483 102.355032,187.363827 104.796869,187.141344 C106.480545,186.98807 119.338804,163.885822 119.338804,163.885822 C123.550339,163.885822 127.05767,163.574971 130.014073,163.045548 L133.181228,171.506936 L151.994131,147.895988 L150.396086,145.207034 L187.219546,138.022284 C189.661383,132.472724 195.95151,123.42639 195.95151,123.42639 C192.946232,102.391004 176.484453,97.452197 169.101462,96.7354815 L151.148774,93.6242401 C151.148774,93.6242401 145.746624,87.7912002 146.926292,74.5145631 C146.926292,74.5145631 141.988266,77.0932532 140.198628,79.3466256 C140.198628,79.3466256 139.307523,70.9055701 138.675656,66.8250228 L71.0823052,66.9141723" id="path20" fill="#231F20" fill-rule="nonzero"></path>
                        <polyline id="path22" fill="#231F20" points="181.160504 75.8596266 176.765978 64.3718459 176.765978 28.3764216 181.756007 16.7806056 165.268422 16.7804492 165.268422 13.3744278 170.452782 4.05364604 18.7470963 4.05364604 22.3730591 13.5563242 22.3730591 16.7804492 6.49775155 16.7806056 11.4248677 27.5316122 11.4248677 64.4781998 6.28070366 75.8596266 181.160504 75.8596266"></polyline>
                        <polyline id="path24" fill="#E01049" points="71.7915916 25.6300287 71.7915916 29.0279954 30.8832837 52.4617778 30.8832837 25.5988654 32.7510842 21.7986309 14.7855715 21.7986309 16.6532156 25.5988654 16.6532156 66.9669582 14.4292079 70.7382192 30.7356004 70.6260002 71.8267822 47.3700868 71.8267822 67.0146611 71.5194508 67.4909074 69.9237519 70.7382192 87.4283458 70.7382192 85.5605062 66.9376327 85.5605062 25.5988654 87.4283458 21.7986309 70.2854332 21.7986309 71.7915916 25.6300287"></polyline>
                        <polyline id="path26" fill="#E01049" points="92.7757553 25.6300287 92.8109459 67.0146611 92.5036145 67.4909074 90.9079156 70.7382192 108.41251 70.7382192 106.545061 66.9376327 106.545061 25.5988654 108.41251 21.7986309 91.2692059 21.7986309 92.7757553 25.6300287"></polyline>
                        <polyline id="path28" fill="#E01049" fill-rule="nonzero" points="150.198237 32.8682299 154.469986 34.2202924 156.605666 36.9244957 156.598628 66.9376327 154.730788 70.7382192 172.290905 70.7382192 170.487972 67.0146611 170.517689 30.502052 159.439292 21.7131177 124.924728 21.7131177 113.846331 30.502052 113.846331 49.0776136 113.876048 67.0146611 112.073115 70.7382192 129.633232 70.7382192 127.765784 66.9376327 127.765784 45.090517 127.758355 36.9244957 129.894034 34.2202924 134.165784 32.8682299 150.198237 32.8682299"></polyline>
                        <path d="M113.116713,74.8645143 L128.990026,75.2641232 L135.533916,88.1454523 L123.257866,83.3595287 L131.046722,96.2834776 L119.155031,94.9966741 L126.236947,103.922187 L171.623456,105.467837 C173.386115,106.504787 182.99589,111.19335 184.802732,120.461776 C184.802732,120.461776 186.421892,117.874484 186.545059,114.516908 C188.703417,118.396869 189.75718,121.451023 189.75718,121.451023 L186.53372,128.127074 C186.53372,128.127074 184.767933,123.051805 184.555616,123.676243 C183.97067,125.397455 182.205665,128.347211 180.351902,128.127074 C175.641833,127.567934 176.333524,120.978687 176.333524,120.978687 C166.958745,126.165393 176.139194,133.823653 176.139194,133.823653 L143.17419,140.921209 L145.685236,144.477807 C145.685236,144.477807 140.075461,153.159331 134.140759,159.844766 L133.660994,153.653564 C131.246136,154.993154 127.781815,157.092078 123.151903,156.486018 C109.637143,154.717885 113.473311,146.010945 114.146625,144.459429 C112.539196,145.572626 110.43988,146.246331 108.143106,146.246331 C103.085041,146.246331 98.9849438,142.979078 98.9849438,138.948579 C98.9849438,138.267445 99.1022458,137.608599 99.3208186,136.983379 C72.8680334,145.198041 63.9483855,125.281326 63.9483855,125.281326 C73.3004869,127.99726 82.6525884,124.699899 82.6525884,124.699899 C66.5059612,119.413096 60.2236544,102.114953 60.2236544,102.114953 C65.8498517,105.258648 79.5495581,106.577123 79.5495581,106.577123 C63.6007804,95.8670553 63.3669583,80.2670557 63.3669583,80.2670557 C78.3851398,94.0813271 97.6707698,96.6428128 97.6707698,96.6428128 C83.5315717,83.2347975 80.4035171,72.96383 80.4035171,72.96383 C94.4316692,83.2277594 117.078785,81.5034193 117.078785,81.5034193 C114.002734,76.1255113 113.116713,74.8645143 113.116713,74.8645143" id="path30" fill="#FFFFFF" fill-rule="nonzero"></path>
                        <g id="g32" transform="translate(60.215052, 72.961875)">
                            <g id="g34-Clipped">
                                <mask id="mask-2" fill="white">
                                    <use xlink:href="#path-1"></use>
                                </mask>
                                <g id="path36"></g>
                                <g id="g34" mask="url(#mask-2)" fill="#AAAFB6">
                                    <g transform="translate(31.632453, -6.920821)" id="path40">
                                        <path d="M41.8936451,37.7204292 C41.8936451,37.7204292 20.7777121,40.5208201 9.99921774,26.2252193 C0.98885628,14.2752685 0.00547409566,3.73450626 0.00547409566,3.73450626 C0.00547409566,3.73450626 15.962854,13.1655911 21.2723357,12.4676439 C21.2723357,12.4676439 6.94897343,5.05024425 24.4723357,0.0379276628 L39.257868,7.60703793 L45.0666655,19.400195 L49.6778091,25.5174969 L41.8936451,37.7204292"></path>
                                    </g>
                                </g>
                            </g>
                        </g>
                        <path d="M67.9143678,151.62463 C67.9143678,151.62463 74.9552278,156.553271 84.636166,159.19374 C84.636166,159.19374 77.4193529,164.298334 73.8654918,175.573798 C73.8654918,175.573798 67.7204284,166.254541 67.9143678,151.62463" id="path42" fill="#FFFFFF" fill-rule="nonzero"></path>
                        <path d="M139.524141,139.659821 L141.782206,130.823066 C141.782206,130.823066 137.664513,136.342519 132.125901,138.099703 C131.01505,135.641443 127.405275,134.317103 123.860798,135.126487 C120.178296,135.966761 117.961287,138.791394 118.909088,141.435383 C119.22815,142.326487 119.865491,143.082694 120.711629,143.662558 L118.573995,150.900094 L139.524141,139.659821" id="path44" fill="#231F20" fill-rule="nonzero"></path>
                        <polyline id="path46" fill="#FFFFFF" points="40.1923744 7.48394898 39.6293245 8.48500468 39.6293245 15.2410162 40.1923744 16.2419155 34.7876824 16.2419155 35.3506932 15.2410162 35.3506932 13.3643398 35.125395 13.2392568 32.4228731 13.2392568 32.1978878 13.3643398 32.1978878 15.2410162 32.7608594 16.2419155 27.3558155 16.2419155 27.9189436 15.2410162 27.9189436 8.48500468 27.3558155 7.48394898 32.7608594 7.48394898 32.1978878 8.48500468 32.1978878 10.9871356 32.4228731 11.1122187 35.125395 11.1122187 35.3506932 10.9871356 35.3506932 8.48500468 34.7876824 7.48394898 40.1923744 7.48394898"></polyline>
                        <polyline id="path48" fill="#FFFFFF" points="62.9579652 16.2419155 57.7782977 16.2419155 58.3413475 15.2410162 58.3413475 10.2990418 57.8909076 9.79870943 56.9900279 9.54834776 56.0891482 9.54834776 55.1882684 9.79870943 54.7382196 10.2990418 54.7382196 15.2410162 55.3008784 16.2419155 49.783381 16.2419155 50.3464308 15.2410162 50.3464308 9.73607014 50.1212109 9.1103028 53.04907 7.48394898 59.6922761 7.48394898 62.6201353 9.1103028 62.3949154 9.73607014 62.3949154 15.2410162 62.9579652 16.2419155"></polyline>
                        <polyline id="path50" fill="#FFFFFF" points="82.9693039 13.8647113 81.5503401 16.2419155 75.2445729 16.2419155 72.3171047 14.6154053 72.3171047 12.5511629 74.3436932 11.4250242 77.8346022 10.9871356 78.397652 10.6743301 78.397652 10.1739587 78.0598221 9.79870943 77.3841623 9.61098705 74.163439 9.61098705 71.7990207 10.0487192 73.3305945 7.48394898 79.9741915 7.48394898 82.9016597 9.1103028 82.9016597 11.5501463 80.7624613 12.7385725 77.2715523 13.1766175 76.8211124 13.4269791 76.8211124 13.6769889 77.1589424 14.0524337 77.8346022 14.2399996 81.032256 14.2399996 82.9693039 13.8647113"></polyline>
                        <polyline id="path52" fill="#FFFFFF" points="106.748384 7.48394898 105.486996 8.67257065 102.288951 13.5519058 106.68074 15.9917103 106.2303 16.2419155 101.388072 16.2419155 100.938023 15.4912215 97.6723338 13.6769889 97.3345039 13.4269791 97.3345039 15.2410162 97.8975538 16.2419155 92.4926663 16.2419155 93.0557161 15.2410162 93.0557161 8.48500468 92.4926663 7.48394898 97.8975538 7.48394898 97.3345039 8.48500468 97.3345039 10.7994132 97.5597239 11.0497749 98.6858235 11.6752294 99.0236534 11.6752294 100.893057 8.60993136 101.118277 7.48394898 106.748384 7.48394898"></polyline>
                        <polyline id="path54" fill="#FFFFFF" points="120.548189 7.48394898 119.98553 8.48500468 119.98553 15.2410162 120.548189 16.2419155 115.030691 16.2419155 115.594132 15.2410162 115.594132 8.48500468 115.030691 7.48394898 120.548189 7.48394898"></polyline>
                        <polyline id="path56" fill="#FFFFFF" points="141.807621 10.0487192 139.443203 9.61098705 135.659821 9.61098705 135.321991 9.79870943 135.321991 10.9871356 135.547211 11.1122187 137.01114 11.1122187 138.699899 10.7994132 138.699899 13.4269791 137.01114 13.1141737 135.547211 13.1141737 135.321991 13.2392568 135.321991 14.1150339 135.502245 14.2399996 139.375559 14.2399996 141.357572 13.8647113 139.938608 16.2419155 130.480153 16.2419155 131.043203 15.2410162 131.043203 8.48500468 130.480153 7.48394898 140.276438 7.48394898 141.807621 10.0487192"></polyline>
                        <polyline id="path58" fill="#FFFFFF" points="160.740172 13.8647113 159.321599 16.2419155 153.015832 16.2419155 150.088364 14.6154053 150.088364 12.5511629 152.114952 11.4250242 155.605861 10.9871356 156.168911 10.6743301 156.168911 10.1739587 155.831081 9.79870943 155.155421 9.61098705 151.934698 9.61098705 149.57028 10.0487192 151.101854 7.48394898 157.74506 7.48394898 160.672919 9.1103028 160.672919 11.5501463 158.533329 12.7385725 155.042811 13.1766175 154.592372 13.4269791 154.592372 13.6769889 154.930201 14.0524337 155.605861 14.2399996 158.803515 14.2399996 160.740172 13.8647113"></polyline>
                        <polyline id="path60" fill="#FFFFFF" points="167.945255 24.9062359 168.866076 24.9062359 168.866076 25.3485429 166.540758 25.3485429 166.540758 24.9062359 167.461579 24.9062359 167.461579 21.4694814 167.945255 21.4694814 167.945255 24.9062359"></polyline>
                        <polyline id="path62" fill="#FFFFFF" points="171.066271 21.3871744 172.229126 24.0314755 172.239292 24.0314755 172.692469 21.4694814 173.191394 21.4694814 172.399214 25.5131958 171.066271 22.4572428 169.734111 25.5131958 168.94154 21.4694814 169.440856 21.4694814 169.893251 24.0314755 169.903808 24.0314755 171.066271 21.3871744"></polyline>
                        <polyline id="path64" fill="#FFFFFF" points="17.6844961 23.6039877 18.4587288 25.1793151 18.4587288 67.4596269 17.6027757 68.9106532 20.3836945 68.8914939 20.3325117 25.5298527 28.7170276 25.5298527 29.8521596 23.6039877 17.6844961 23.6039877"></polyline>
                        <polyline id="path66" fill="#FFFFFF" points="73.6324517 67.5464304 72.8230676 68.9325496 75.5577694 68.9325496 75.5577694 45.5620712 73.6324517 46.6521982 73.6324517 67.5464304"></polyline>
                        <polyline id="path68" fill="#FFFFFF" points="73.5968701 29.8350335 30.8298331 54.6185715 30.8298331 57.1468216 75.5225788 31.4998624 75.5096755 25.5298527 83.3943283 25.5298527 84.5294212 23.6039877 72.9352865 23.6039877 73.5968701 25.2877413 73.5968701 29.8350335"></polyline>
                        <polyline id="path70" fill="#FFFFFF" points="94.6162244 67.5464304 93.8068403 68.9325496 96.6854326 68.9325496 96.6873876 25.5298527 104.378492 25.5298527 105.513585 23.6039877 93.9190592 23.6039877 94.5810338 25.2877413 94.6162244 67.5464304"></polyline>
                        <polyline id="path72" fill="#FFFFFF" points="161.487386 37.2588456 158.72375 34.209266 156.71202 33.5725114 158.793349 36.26909 158.799996 67.5464304 157.990612 68.9325496 161.495988 68.9325496 161.487386 37.2588456"></polyline>
                        <polyline id="path74" fill="#FFFFFF" points="118.241639 32.5401751 127.92727 25.6582985 158.916125 25.8553268 155.805275 23.8268225 126.60723 23.8268225 115.882695 31.645747 115.92336 67.5464304 115.113976 68.9325496 118.279176 68.9325496 118.241639 32.5401751"></polyline>
                    </g>
                </g>
            </g>
        </g>
    </g>
</svg>