<?xml version="1.0" encoding="UTF-8"?>
<svg width="200px" height="200px" viewBox="0 0 200 200" version="1.1" xmlns="http://www.w3.org/2000/svg" xmlns:xlink="http://www.w3.org/1999/xlink">
    <!-- Generator: Sketch 54.1 (76490) - https://sketchapp.com -->
    <title>northern-colo</title>
    <desc>Created with Sketch.</desc>
    <g id="northern-colo" stroke="none" stroke-width="1" fill="none" fill-rule="evenodd">
        <g id="northern-colo_BGL" transform="translate(0.000000, 0.000000)">
            <g id="northern-colo" transform="translate(0.000000, -1.000000)">
                <g id="g10" transform="translate(99.999998, 101.080330) scale(-1, 1) rotate(-180.000000) translate(-99.999998, -101.080330) translate(0.000000, 0.064636)" fill-rule="nonzero">
                    <g id="g12">
                        <path d="M161.488454,130.89658 C161.488454,130.89658 163.999442,111.648566 151.795564,99.8987971 C148.523357,101.813663 144.539609,101.521512 144.539609,101.521512 C144.539609,101.521512 152.557152,95.6278831 153.894548,76.7708199 C153.894548,76.7708199 161.518556,87.484947 159.645056,98.3848544 C161.16103,97.6908563 162.464816,96.5686033 163.54681,95.3479201 C171.521695,119.544411 161.488454,130.89658 161.488454,130.89658 Z M120.612185,118.41791 C120.839517,121.309877 122.560846,120.985777 124.117448,120.744226 C127.538501,120.21237 131.695657,122.038039 131.106553,126.619757 C134.465186,126.231576 135.664078,123.816987 135.664078,123.816987 C135.428436,131.293072 127.24912,133.305444 124.778206,132.391686 C124.778206,132.391686 118.437485,122.135362 114.057984,129.636193 C112.292703,125.634346 117.46888,123.217541 120.612185,118.41791 L120.612185,118.41791 Z M85.9597393,129.636193 C81.580238,122.135362 75.2397026,132.391686 75.2397026,132.391686 C72.7687886,133.305444 64.5896567,131.293072 64.354015,123.816987 C64.354015,123.816987 65.5525376,126.231576 68.9113556,126.619757 C68.322436,122.038039 72.4792226,120.21237 75.9006445,120.744226 C77.4568771,120.985777 79.178576,121.309877 79.4057229,118.41791 C82.5490284,123.217541 87.7253902,125.634346 85.9597393,129.636193 L85.9597393,129.636193 Z M55.4055388,101.521512 C55.4055388,101.521512 51.4214207,101.813663 48.1492139,99.8987971 C35.9455208,111.648566 38.4563241,130.89658 38.4563241,130.89658 C38.4563241,130.89658 28.4230833,119.544411 36.3979677,95.3479201 C37.4801468,96.5686033 38.7839325,97.6908563 40.2999067,98.3848544 C38.4262225,87.484947 46.0502297,76.7708199 46.0502297,76.7708199 C47.3878104,95.6278831 55.4055388,101.521512 55.4055388,101.521512 L55.4055388,101.521512 Z M173.9385,131.608492 C174.20018,131.202767 187.187438,106.120773 171.982821,76.6245595 L171.979682,76.6361938 C170.826773,74.4258522 169.533329,72.3246519 168.128528,70.3848551 C168.128528,70.3848551 166.550319,76.843396 163.311353,80.2720202 C162.022526,62.698244 134.993348,50.5381335 134.993348,50.5381335 C155.786515,70.803507 143.560846,91.1113551 143.560846,91.1113551 C143.560846,91.1113551 144.929082,83.0169878 139.496765,76.6245595 C134.513385,98.5392404 122.828436,105.737947 122.828436,105.737947 C127.438593,99.6967657 128.418095,81.5303765 127.751059,73.671651 C127.306183,68.4432116 123.185592,64.5556771 118.872389,64.608124 C112.84321,64.6814388 107.491225,67.4206816 105.951983,68.9796843 C105.951983,68.9796843 112.524282,71.3639871 114.184485,74.4240055 C112.844873,74.1750674 111.17599,79.5806074 119.987439,79.767311 C120.610893,79.9758059 120.699905,80.4199426 120.487901,80.9807921 L120.498243,80.9787607 C117.669434,95.3702654 112.343672,96.903414 100.008862,96.903414 C87.674236,96.903414 82.3484744,95.3702654 79.5194809,80.9787607 L79.5296379,80.9807921 C79.3180036,80.4199426 79.4068309,79.9758059 80.0302842,79.767311 C88.8419184,79.5806074 87.1730357,74.1750674 85.8334235,74.4240055 C87.4936266,71.3639871 94.065741,68.9796843 94.065741,68.9796843 C92.5266828,67.4206816 87.1748824,64.6814388 81.1455197,64.608124 C76.832131,64.5556771 72.7115402,68.4432116 72.2668495,73.671651 C71.5996289,81.5303765 72.5793149,99.6967657 77.1892871,105.737947 C77.1892871,105.737947 65.5047075,98.5392404 60.5211435,76.6245595 C55.0886413,83.0169878 56.4570623,91.1113551 56.4570623,91.1113551 C56.4570623,91.1113551 44.2313932,70.803507 65.0243751,50.5381335 C65.0243751,50.5381335 37.9953822,62.698244 36.7063703,80.2720202 C33.4674045,76.843396 31.8893806,70.3848551 31.8893806,70.3848551 C30.4843944,72.3246519 29.1909503,74.4258522 28.0380418,76.6361938 L28.035087,76.6245595 C12.8309692,106.120773 25.8175432,131.202767 26.0792237,131.608492 C22.4042469,130.593718 21.2048009,129.750505 21.2048009,129.750505 C21.2048009,129.750505 25.9497685,141.361215 32.3553085,146.786331 C30.1894729,146.855952 26.0786697,145.394456 26.0786697,145.394456 C27.2286235,148.790763 33.2326861,159.221603 40.1795004,164.978943 C42.9662039,168.062415 33.9074784,172.065185 30.3143113,167.598149 C32.2814396,176.451888 45.6731291,173.233791 45.6731291,173.233791 C33.2963981,183.830282 20.8531851,174.254843 21.8583559,162.64007 C14.9404798,181.285129 37.8493065,196.657428 58.2607557,179.185406 C58.2607557,179.185406 71.9900259,182.951981 83.6059074,180.756413 C82.6757135,181.867401 80.1590008,183.745517 80.1590008,183.745517 C81.2193886,183.611445 90.9344391,183.27608 95.7233586,175.841547 C95.7233586,175.841547 77.9183729,178.660199 68.7643565,170.275342 C68.7643565,170.275342 80.7362861,174.236007 90.9615859,168.413292 C90.9615859,168.413292 85.7975971,167.856136 83.8746055,166.264077 C83.8746055,166.264077 88.8960273,165.812554 90.8373015,164.148472 C82.9608474,164.148472 79.9844855,161.134253 79.9844855,161.134253 C90.9361011,161.197041 99.0208655,154.710615 100.008862,153.633052 C100.996858,154.710615 109.081807,161.197041 120.033423,161.134253 C120.033423,161.134253 117.057061,164.148472 109.180422,164.148472 C111.122066,165.812554 116.143118,166.264077 116.143118,166.264077 C114.220311,167.856136 109.056138,168.413292 109.056138,168.413292 C119.281622,174.236007 131.253367,170.275342 131.253367,170.275342 C122.099535,178.660199 104.29418,175.841547 104.29418,175.841547 C109.083469,183.27608 118.798704,183.611445 119.858907,183.745517 C119.858907,183.745517 117.342195,181.867401 116.412185,180.756413 C128.027698,182.951981 141.757153,179.185406 141.757153,179.185406 C162.168602,196.657428 185.076634,181.285129 178.159183,162.64007 C179.164723,174.254843 166.721325,183.830282 154.344779,173.233791 C154.344779,173.233791 167.736838,176.452073 169.703412,167.598149 C166.11043,172.06537 157.051704,168.062415 159.838038,164.978943 C166.785407,159.221603 172.7891,148.790763 173.939054,145.394456 C173.939054,145.394456 169.828251,146.855952 167.6626,146.786331 C174.06814,141.361215 178.813107,129.750505 178.813107,129.750505 C178.813107,129.750505 177.613477,130.593718 173.9385,131.608492 L173.9385,131.608492 Z M121.749581,55.1939044 C122.5108,55.4554003 123.220865,54.6773763 122.882915,53.9259451 C120.22936,48.0249295 120.265925,40.50083 115.5337,35.8882724 C110.188548,30.6784849 106.06611,30.8385957 106.06611,30.8385957 C106.464448,32.3536465 106.363248,34.2284387 105.339979,35.1180047 C104.473312,32.1547545 101.745519,29.412557 98.3850391,28.0288082 C99.7722967,31.7844867 95.158631,33.7421968 94.4891943,34.1915042 L94.4380401,34.1852254 C94.6622322,33.7684202 95.9615858,31.1597407 94.4040604,29.4470907 C92.1421953,32.8441358 89.8945499,30.8646345 86.9375786,32.9687896 C79.4561384,36.0029539 79.8613092,47.2954743 76.7523527,53.8491215 C76.3946426,54.6033227 77.1120941,55.4164344 77.8795918,55.1392415 C80.7987053,54.0849479 82.369527,52.0487522 83.0144024,49.1359175 C84.3418261,43.1390571 93.1320383,41.1798697 99.7390557,41.1798697 C106.346258,41.1798697 115.135547,43.1390571 116.463155,49.1359175 C117.118926,52.0997217 118.732038,54.1560467 121.749581,55.1939044 L121.749581,55.1939044 Z" id="path14" fill="#FAB621"></path>
                        <path d="M121.845796,125.523543 C122.147919,124.685869 122.961031,124.102121 123.896765,124.149397 C125.043025,124.207384 125.925205,125.183746 125.867033,126.330006 C125.82936,127.077374 125.397781,127.706737 124.786516,128.042287 C124.118556,126.911724 123.087347,126.019018 121.845796,125.523543 Z M75.2312077,128.042287 C74.6199427,127.706737 74.1887331,127.077374 74.1506907,126.330006 C74.0927036,125.183746 74.9748827,124.207384 76.1209584,124.149397 C77.0566924,124.102121 77.8699888,124.685869 78.1721125,125.523543 C76.9305613,126.019018 75.8995364,126.911724 75.2312077,128.042287 L75.2312077,128.042287 Z M92.0801454,51.809417 C94.1412719,51.1089553 96.7656486,50.6240061 99.8079384,50.6240061 C102.852998,50.6240061 105.452075,51.1120948 107.480699,51.8131104 C107.620496,52.2856866 107.983561,52.7060005 108.619942,52.9634336 C110.219388,53.6083089 113.198704,56.1951971 113.610893,58.1964898 C113.678668,58.5255756 114.358446,58.5445969 114.491964,58.2221592 C116.518187,53.3506912 113.509323,49.3963053 110.892703,49.1892878 C108.924282,49.0330551 107.583377,49.8716516 107.430099,51.1191123 C106.549212,50.3532767 106.089933,49.3220671 105.95069,48.3913192 C104.089379,47.9918732 102.040441,47.7636184 99.8755284,47.7636184 C97.7130169,47.7636184 95.6507825,47.9859637 93.7722968,48.3844863 C93.5903947,49.3163423 93.0818075,50.35143 92.1626939,51.1191123 C92.0681417,49.8709129 90.7854086,49.0384106 88.7911335,49.1892878 C86.1409027,49.3892878 83.0751595,53.3506912 84.8378557,58.2221592 C84.9545685,58.5445969 85.6349009,58.5255756 85.7211428,58.1964898 C86.2408104,56.1951971 89.2559534,53.6083089 90.886055,52.9634336 C91.5362858,52.7052618 91.9187419,52.2829165 92.0801454,51.809417 L92.0801454,51.809417 Z M115.618649,86.7848547 C112.137024,92.6385942 104.293442,90.8559534 99.6110778,89.0993514 C94.9285295,90.8559534 87.0858704,92.6385942 83.6031373,86.7855934 C88.1854087,91.4524446 97.5187418,85.4572462 99.6110778,85.4572462 C101.703229,85.4572462 111.037301,91.4529986 115.618649,86.7848547 Z M163.25429,201.95752 C156.026035,201.95752 148.710061,199.82825 141.945887,195.776542 C136.190948,197.475526 128.986885,198.463522 122.100459,198.463522 C119.506184,198.463522 116.974697,198.328712 114.526128,198.062784 C113.619757,198.869801 112.436562,199.373956 111.136285,199.414584 C111.079037,199.416431 111.021789,199.418278 110.96454,199.418278 C110.898428,199.418278 110.832315,199.416431 110.766018,199.414584 C110.576175,199.407197 110.388732,199.390577 110.20406,199.364723 C106.244688,198.853181 102.618465,197.390577 99.9704499,196.175434 C97.3013826,197.39981 93.6380401,198.877188 89.6417337,199.375803 C89.4193883,199.403504 89.197043,199.418278 88.9763597,199.418278 C87.6600163,199.418278 86.392611,198.93259 85.415695,198.062784 C82.9671263,198.328712 80.4347164,198.463522 77.8402566,198.463522 C70.9540148,198.463522 63.7497676,197.475526 57.9948277,195.776542 C51.230839,199.82825 43.914865,201.95752 36.6866103,201.95752 C25.122437,201.95752 14.8844318,196.415508 9.2999813,187.132036 C6.02023992,181.681067 4.44648188,175.075342 4.74880875,168.030097 C5.03288999,161.405167 6.91713741,154.425481 10.3554199,147.24561 C8.36818077,143.731852 6.85796843,140.176358 6.77848552,139.988547 C6.14489366,138.489932 6.23377639,136.805721 6.97663879,135.400735 C4.47418271,130.071096 1.14698797,121.338501 0.029937026,110.796304 C-0.125591502,109.328529 0.331833787,107.891225 1.24718741,106.796673 C0.247793161,97.8952884 0.63574883,89.1135712 2.40867953,80.6179112 C5.19246524,67.2786687 11.3585039,55.0374871 20.7351795,44.2345326 C21.7662044,43.0465363 23.2496762,42.3894726 24.7793161,42.3894726 C25.2308396,42.3894726 25.6860566,42.4469057 26.1353641,42.5643572 C26.1800547,42.5761762 26.2240067,42.5881799 26.2681434,42.6009223 C31.9898422,37.1867027 43.5957514,29.0502301 66.5067389,20.7977834 C66.9987056,20.6206828 67.5078469,20.518559 68.0175422,20.4897502 C71.4422881,15.1967125 75.652999,12.9233792 79.4812538,10.8568418 C82.9168954,9.00096007 85.8840237,7.39979668 88.8666644,3.4939796 C89.8771907,2.17178203 91.4456117,1.39427513 93.110247,1.39059646 L93.122066,1.39059646 C93.844873,1.39059646 94.5499515,1.53645795 95.1994436,1.80978758 C95.546812,1.41642102 95.9554916,1.0692225 96.4173568,0.786733129 C97.2758978,0.262219753 98.2450576,0 99.2138479,0 C100.211078,0 101.207754,0.277008303 102.082731,0.83290118 C103.270173,1.58637669 104.618465,2.50042468 105.940348,3.59929816 C106.481438,3.42199437 107.048751,3.32965827 107.620127,3.32965827 C108.244688,3.32965827 108.873866,3.43857794 109.479406,3.66393343 C123.407014,8.82365629 127.293256,14.5023265 130.855214,20.5100641 C131.040625,20.4908582 131.227144,20.4808859 131.413847,20.4808859 C132.026035,20.4808859 132.639886,20.5859644 133.228252,20.7977834 C156.200181,29.0722061 167.868879,37.2168042 173.624926,42.6149574 C173.68476,42.5970442 173.744779,42.5800543 173.805166,42.5643572 C174.254289,42.4469057 174.71006,42.3894726 175.161399,42.3894726 C176.691224,42.3894726 178.174326,43.0463516 179.205536,44.2345326 C188.581713,55.0374871 194.747918,67.2786687 197.532774,80.6179112 C199.305628,89.1135712 199.693439,97.8952884 198.694363,106.796489 C199.60849,107.891225 200.066477,109.328529 199.911352,110.796304 C198.794086,121.341825 195.464446,130.076266 192.962137,135.405537 C193.70452,136.8096 193.795009,138.491409 193.161583,139.988547 C193.082174,140.176358 191.573402,143.731668 189.584483,147.24561 C193.023079,154.426035 194.908582,161.405905 195.192978,168.030651 C195.49584,175.076265 193.922433,181.681805 190.642655,187.133883 C185.058167,196.415508 174.819571,201.95752 163.25429,201.95752 L163.25429,201.95752 Z M163.25429,196.602026 C183.692332,196.602026 199.111722,176.503412 183.464631,147.000181 C185.964908,143.260938 188.230836,137.903598 188.230836,137.903598 C188.230836,137.903598 186.843947,138.201843 185.915046,138.201843 C185.737761,138.201843 185.578943,138.191132 185.445979,138.165463 C185.445979,138.165463 192.864261,126.479221 194.585406,110.23213 L192.590946,111.575436 C195.601103,94.6650023 194.589099,70.1264987 175.161584,47.7445971 C174.626034,50.3506913 174.015139,51.2718362 174.015139,51.2718362 C174.015139,51.2718362 167.925758,38.9872566 131.413662,25.8358258 C131.413662,25.8358258 131.192795,26.6389652 129.595195,28.6997223 C123.992795,20.3615877 123.536285,14.581754 107.619388,8.68515214 C108.085131,10.3083839 107.997412,12.2918187 106.714125,13.3222157 C105.628437,9.88731277 102.21828,7.2595012 99.2138479,5.35368408 C99.5623244,9.06559534 94.3963042,12.7627328 94.3963042,12.7627328 C94.3963042,12.7627328 95.3039681,9.57525368 93.122066,6.74609401 C84.5558612,17.9592239 75.1913185,14.2733514 69.9340703,28.712834 C68.3366557,26.6520769 68.3215126,25.8358258 68.3215126,25.8358258 C31.8090481,38.9872566 25.9255765,51.2718362 25.9255765,51.2718362 C25.9255765,51.2718362 25.3146808,50.3506913 24.7791314,47.7445971 C5.35246524,70.1264987 4.34009223,94.6650023 7.34901182,111.575436 L5.35492138,110.23213 C7.07684193,126.479221 14.4938131,138.165463 14.4938131,138.165463 C14.3625851,138.191132 14.202308,138.201843 14.025706,138.201843 C13.0957891,138.201843 11.7107476,137.903598 11.7107476,137.903598 C11.7107476,137.903598 13.9756414,143.260938 16.4762323,147.000181 C0.83102491,176.501011 16.250729,196.602026 36.686795,196.602026 C43.3113563,196.602026 50.4622333,194.491223 57.2542922,189.902119 C62.1891028,191.695286 69.7674959,193.109875 77.8402566,193.109875 C81.8640792,193.109875 86.0105242,192.758998 90.0138482,191.927973 C89.4197577,192.991685 88.9769137,194.062784 88.9769137,194.062784 C93.4029524,193.508767 97.5503207,191.403504 99.9704499,190.252996 C102.39021,191.403504 106.537578,193.508767 110.963801,194.062784 C110.963801,194.062784 110.521142,192.991685 109.926682,191.927973 C113.929637,192.757151 118.077375,193.109875 122.100274,193.109875 C130.173958,193.109875 137.751243,191.695286 142.686608,189.902119 C149.476635,194.489376 156.630652,196.602026 163.25429,196.602026 L163.25429,196.602026 Z" id="path16" fill="#FFFFFF"></path>
                        <path d="M48.1492139,99.8987971 C35.9455208,111.648566 38.4563241,130.89658 38.4563241,130.89658 C38.4563241,130.89658 28.4230833,119.544411 36.3981524,95.3477354 C37.4801468,96.5686033 38.7839325,97.6906716 40.2999067,98.3848544 C38.4262225,87.484947 46.0502297,76.7708199 46.0502297,76.7708199 C47.3878104,95.6278831 55.4055388,101.521696 55.4055388,101.521696 C55.4055388,101.521696 51.4214207,101.813663 48.1492139,99.8987971 L48.1492139,99.8987971 Z M78.1721125,125.523543 C76.9305613,126.019018 75.8995364,126.911724 75.2313924,128.042287 C74.6199427,127.706737 74.1887331,127.077374 74.1506907,126.330006 C74.0927036,125.183746 74.9748827,124.207384 76.1209584,124.149397 C77.0566924,124.101936 77.8699888,124.685869 78.1721125,125.523543 Z M85.9597393,129.636193 C87.7253902,125.634346 82.5490284,123.217725 79.4057229,118.41791 C79.178576,121.309877 77.4568771,120.985777 75.9006445,120.744226 C72.4792226,120.21237 68.322436,122.038039 68.9113556,126.619757 C65.5525376,126.231576 64.354015,123.816987 64.354015,123.816987 C64.5896567,131.293072 72.7687886,133.305444 75.2397026,132.391686 C75.2397026,132.391686 81.580238,122.135362 85.9597393,129.636193 L85.9597393,129.636193 Z M178.159183,162.64007 C185.076634,181.285129 162.168602,196.657428 141.757153,179.185406 C141.757153,179.185406 128.027698,182.951981 116.412185,180.756413 C117.342195,181.867401 119.858907,183.745702 119.858907,183.745702 C118.798704,183.611445 109.083469,183.27608 104.29418,175.841547 C104.29418,175.841547 122.099535,178.660199 131.253367,170.275342 C131.253367,170.275342 119.281622,174.236007 109.056138,168.413292 C109.056138,168.413292 114.220311,167.856136 116.143118,166.264077 C116.143118,166.264077 111.122066,165.812738 109.180422,164.148472 C117.057061,164.148472 120.033423,161.134253 120.033423,161.134253 C109.081807,161.197041 100.996858,154.710615 100.008862,153.633052 C99.0208655,154.710615 90.9361011,161.197041 79.9844855,161.134253 C79.9844855,161.134253 82.9608474,164.148472 90.8373015,164.148472 C88.8960273,165.812738 83.8744208,166.264077 83.8744208,166.264077 C85.7975971,167.856136 90.9615859,168.413292 90.9615859,168.413292 C80.7362861,174.236007 68.7643565,170.275342 68.7643565,170.275342 C77.9181883,178.660199 95.7235433,175.841547 95.7235433,175.841547 C90.9344391,183.27608 81.2193886,183.611445 80.1590008,183.745702 C80.1590008,183.745702 82.6757135,181.867401 83.6059074,180.756413 C71.9900259,182.951981 58.2607557,179.185406 58.2607557,179.185406 C37.8493065,196.657428 14.9404798,181.285129 21.8583559,162.64007 C20.8531851,174.254843 33.2963981,183.830282 45.6729444,173.233791 C45.6729444,173.233791 32.2814396,176.451888 30.3143113,167.598149 C33.9074784,172.065185 42.9663886,168.062415 40.1795004,164.978943 C33.2326861,159.221603 27.2286235,148.790763 26.0786697,145.394456 C26.0786697,145.394456 30.1894729,146.855952 32.3553085,146.786331 C25.9497685,141.3614 21.2048009,129.750689 21.2048009,129.750689 C21.2048009,129.750689 22.4042469,130.593718 26.0792237,131.608492 C25.8175432,131.202767 12.8309692,106.120773 28.035087,76.6245595 L28.0380418,76.6361938 C29.1909503,74.4256676 30.4843944,72.3246519 31.8895652,70.3848551 C31.8895652,70.3848551 33.4674045,76.843396 36.7063703,80.2720202 C37.9953822,62.698244 65.0243751,50.5381335 65.0243751,50.5381335 C44.2313932,70.803507 56.4570623,91.1113551 56.4570623,91.1113551 C56.4570623,91.1113551 55.0886413,83.0169878 60.5211435,76.6245595 C65.5047075,98.5392404 77.1892871,105.737947 77.1892871,105.737947 C72.5793149,99.6965811 71.5996289,81.5303765 72.2668495,73.671651 C72.7115402,68.4432116 76.832131,64.5556771 81.1455197,64.608124 C87.1748824,64.6814388 92.5266828,67.4206816 94.065741,68.9796843 C94.065741,68.9796843 87.4936266,71.3639871 85.8334235,74.4240055 C87.172851,74.1750674 88.8419184,79.5806074 80.0302842,79.767311 C79.4068309,79.9758059 79.3180036,80.4199426 79.5298226,80.9807921 L79.5194809,80.9787607 C82.3484744,95.3702654 87.674236,96.903414 100.008862,96.903414 C112.343672,96.903414 117.669434,95.3702654 120.498243,80.9787607 L120.487901,80.9807921 C120.699905,80.4199426 120.610893,79.9758059 119.987439,79.767311 C111.17599,79.5806074 112.844873,74.1750674 114.184485,74.4240055 C112.524282,71.3639871 105.951983,68.9796843 105.951983,68.9796843 C107.491225,67.4206816 112.84321,64.6814388 118.872389,64.608124 C123.185777,64.5556771 127.306183,68.4432116 127.751059,73.671651 C128.418095,81.5303765 127.438409,99.6965811 122.828436,105.737947 C122.828436,105.737947 134.513201,98.5392404 139.496765,76.6245595 C144.929082,83.0169878 143.560846,91.1113551 143.560846,91.1113551 C143.560846,91.1113551 155.786515,70.803507 134.993348,50.5381335 C134.993348,50.5381335 162.022526,62.698244 163.311353,80.2720202 C166.550319,76.843396 168.128528,70.3848551 168.128528,70.3848551 C169.533329,72.3246519 170.826773,74.4256676 171.979682,76.6361938 L171.982637,76.6245595 C187.187438,106.120773 174.20018,131.202767 173.9385,131.608492 C177.613477,130.593718 178.813107,129.750689 178.813107,129.750689 C178.813107,129.750689 174.06814,141.3614 167.662415,146.786331 C169.828251,146.855952 173.939054,145.394456 173.939054,145.394456 C172.7891,148.790763 166.785407,159.221603 159.838038,164.978943 C157.051704,168.062415 166.11043,172.06537 169.703412,167.598149 C167.736838,176.452073 154.344779,173.233791 154.344779,173.233791 C166.721325,183.830282 179.164723,174.254843 178.159183,162.64007 L178.159183,162.64007 Z M115.618649,86.7848547 C112.137024,92.6384095 104.293442,90.8559534 99.6110778,89.0993514 C94.9285295,90.8559534 87.0858704,92.6384095 83.6031373,86.7855934 C88.1854087,91.4524446 97.5187418,85.4572462 99.6110778,85.4572462 C101.703229,85.4572462 111.037301,91.4529986 115.618649,86.7848547 Z M92.0801454,51.809417 C91.9187419,52.2829165 91.5362858,52.7052618 90.8858703,52.9634336 C89.2559534,53.6083089 86.2408104,56.1951971 85.7211428,58.1964898 C85.6349009,58.5255756 84.9545685,58.5445969 84.837671,58.2221592 C83.0751595,53.3506912 86.1409027,49.3892878 88.7911335,49.1892878 C90.7854086,49.0384106 92.0681417,49.8709129 92.1626939,51.1191123 C93.0818075,50.35143 93.5905794,49.3163423 93.7722968,48.3844863 C95.6507825,47.9861484 97.7130169,47.7636184 99.8755284,47.7636184 C102.040441,47.7636184 104.089379,47.9918732 105.95069,48.3913192 C106.089933,49.3220671 106.549212,50.3532767 107.430099,51.1191123 C107.583377,49.8716516 108.924282,49.0330551 110.892703,49.1892878 C113.509323,49.3963053 116.518187,53.3506912 114.491964,58.2221592 C114.358446,58.5445969 113.678668,58.5255756 113.610893,58.1964898 C113.198704,56.1951971 110.219388,53.6083089 108.619942,52.9634336 C107.983561,52.7061852 107.620311,52.2856866 107.480699,51.8131104 C105.452075,51.1120948 102.852998,50.6240061 99.8079384,50.6240061 C96.7656486,50.6240061 94.1412719,51.1089553 92.0801454,51.809417 L92.0801454,51.809417 Z M121.749766,55.1939044 C118.732038,54.1560467 117.118926,52.0997217 116.463155,49.1359175 C115.135547,43.1388724 106.346258,41.1798697 99.7390557,41.1798697 C93.1320383,41.1798697 84.3418261,43.1388724 83.0144024,49.1359175 C82.369527,52.0485675 80.7987053,54.0849479 77.8795918,55.1392415 C77.1120941,55.4164344 76.3946426,54.6033227 76.7523527,53.8491215 C79.8613092,47.2954743 79.4561384,36.0027692 86.9375786,32.9687896 C89.8945499,30.8646345 92.1421953,32.8443205 94.4040604,29.4470907 C95.9615858,31.1597407 94.6622322,33.7684202 94.4380401,34.1852254 L94.4891943,34.1915042 C95.158631,33.7420121 99.7722967,31.7844867 98.3850391,28.0289928 C101.745519,29.412557 104.473312,32.1547545 105.339979,35.1180047 C106.363248,34.2284387 106.464448,32.3536465 106.06611,30.8385957 C106.06611,30.8385957 110.188363,30.6786696 115.5337,35.8882724 C120.265925,40.50083 120.22936,48.0249295 122.882915,53.9259451 C123.220865,54.6773763 122.5108,55.4554003 121.749766,55.1939044 L121.749766,55.1939044 Z M192.590946,111.575436 C195.601103,94.6650023 194.589099,70.1264987 175.161584,47.7445971 C174.626034,50.3506913 174.015139,51.2718362 174.015139,51.2718362 C174.015139,51.2718362 167.925758,38.9872566 131.413662,25.8358258 C131.413662,25.8358258 131.192979,26.6389652 129.595195,28.6997223 C123.992795,20.3615877 123.536285,14.581754 107.619388,8.68515214 C108.085131,10.3083839 107.997412,12.2918187 106.714125,13.3222157 C105.628437,9.88731277 102.21828,7.2595012 99.2138479,5.35368408 C99.5623244,9.06559534 94.3963042,12.7627328 94.3963042,12.7627328 C94.3963042,12.7627328 95.3039681,9.57525368 93.122066,6.74609401 C84.5558612,17.9592239 75.1913185,14.2733514 69.9340703,28.712834 C68.3366557,26.6520769 68.3215126,25.8358258 68.3215126,25.8358258 C31.8090481,38.9872566 25.9255765,51.2718362 25.9255765,51.2718362 C25.9255765,51.2718362 25.3146808,50.3506913 24.7791314,47.7445971 C5.35246524,70.1264987 4.34009223,94.6650023 7.34901182,111.575436 L5.35492138,110.23213 C7.07684193,126.479221 14.4939609,138.165463 14.4939609,138.165463 C13.6725943,138.326128 11.7107476,137.903598 11.7107476,137.903598 C11.7107476,137.903598 13.9756414,143.261123 16.4762323,147.000181 C-4.24075705,186.064631 29.5108026,208.646348 57.2542922,189.902119 C64.6487518,192.5891 77.9787607,194.424741 90.0138482,191.927973 C89.4197577,192.991685 88.9769137,194.062784 88.9769137,194.062784 C93.4029524,193.508767 97.5503207,191.403504 99.9704499,190.252996 C102.39021,191.403504 106.537578,193.508767 110.963801,194.062784 C110.963801,194.062784 110.521142,192.991685 109.926682,191.927973 C121.962139,194.424741 135.292148,192.5891 142.686608,189.902119 C170.429913,208.646348 204.180974,186.064631 183.464631,147.000181 C185.964908,143.261123 188.230836,137.903598 188.230836,137.903598 C188.230836,137.903598 186.26777,138.326128 185.447825,138.165463 C185.447825,138.165463 192.864261,126.479221 194.585406,110.23213 L192.590946,111.575436 Z M125.867033,126.330006 C125.829175,127.077374 125.397781,127.706737 124.786516,128.042287 C124.118556,126.911724 123.087347,126.019018 121.845796,125.523543 C122.147919,124.685869 122.961031,124.101936 123.896765,124.149397 C125.043025,124.207384 125.925205,125.183746 125.867033,126.330006 Z M135.664078,123.816987 C135.664078,123.816987 134.465186,126.231576 131.106368,126.619757 C131.695657,122.038039 127.538686,120.21237 124.117448,120.744226 C122.560846,120.985777 120.839517,121.309877 120.612185,118.41791 C117.46888,123.217725 112.292703,125.634346 114.057984,129.636193 C118.437485,122.135362 124.778206,132.391686 124.778206,132.391686 C127.24912,133.305444 135.428436,131.293072 135.664078,123.816987 L135.664078,123.816987 Z M151.795564,99.8987971 C163.999442,111.648566 161.488454,130.89658 161.488454,130.89658 C161.488454,130.89658 171.521695,119.544411 163.54681,95.3477354 C162.464816,96.5686033 161.16103,97.6906716 159.645056,98.3848544 C161.518556,87.484947 153.894548,76.7708199 153.894548,76.7708199 C152.557152,95.6278831 144.539424,101.521696 144.539424,101.521696 C144.539424,101.521696 148.523357,101.813663 151.795564,99.8987971 L151.795564,99.8987971 Z" id="path18" fill="#0F2B53"></path>
                    </g>
                </g>
            </g>
        </g>
    </g>
</svg>