<?xml version="1.0" encoding="UTF-8"?>
<svg width="200px" height="200px" viewBox="0 0 200 200" version="1.1" xmlns="http://www.w3.org/2000/svg" xmlns:xlink="http://www.w3.org/1999/xlink">
    <!-- Generator: Sketch 54.1 (76490) - https://sketchapp.com -->
    <title>north-ala</title>
    <desc>Created with Sketch.</desc>
    <g id="north-ala" stroke="none" stroke-width="1" fill="none" fill-rule="evenodd">
        <g id="north-ala_BGL" transform="translate(0.000000, 0.000000)">
            <g id="north-ala" transform="translate(0.000000, 42.000000)">
                <g id="g10" transform="translate(100.057768, 58.426345) scale(-1, 1) rotate(-180.000000) translate(-100.057768, -58.426345) translate(0.231080, 0.194110)" fill-rule="nonzero">
                    <g id="g12" transform="translate(0.415945, 0.000000)">
                        <path d="M198.865391,30.227105 L187.853953,81.6406681 C185.940146,90.5825512 178.269666,96.1418809 175.347887,97.4008063 C155.344652,106.013169 131.997686,108.586941 131.997686,108.586941 L131.59422,114.343614 C111.44448,116.684919 99.5614071,116.285612 99.5614071,116.285612 L99.7254741,110.993411 L94.737837,116.252337 C80.0868842,115.934832 64.7144987,113.587519 64.7144987,113.587519 L64.2264571,107.456959 C28.8765331,101.989599 10.4143267,89.0980914 10.4143267,89.0980914 L0.267005886,38.7086761 C-0.369367524,35.562333 0.276574459,32.2430957 3.42937484,29.8173072 L12.3111724,22.9910566 C15.9718078,20.174234 19.5113109,21.6166372 21.8612588,22.719907 C21.8612588,22.719907 30.5777,27.5137139 46.1882369,31.899202 C50.7609462,13.7561175 72.7667226,0 99.227265,0 C126.158749,0 148.476946,14.2508142 152.49497,32.8735289 C173.161405,27.6108601 183.016518,20.865996 183.016518,20.865996 L198.865391,30.227105" id="path14" fill="#EDAD09"></path>
                        <path d="M194.868626,31.9797104 L184.390059,80.8970517 C182.577927,89.8583455 173.769609,94.2271496 173.769609,94.2271496 C159.921429,100.002308 145.713226,103.283186 128.662735,105.478449 L128.265277,111.174578 C128.265277,111.174578 115.777698,112.672903 103.215711,112.726976 L103.551702,101.809356 L93.2533772,112.669668 C82.331136,112.389136 68.0189469,110.459154 68.0189469,110.459154 L67.5396864,104.412707 C42.5532514,100.7792 25.2939104,94.0570745 13.5801268,86.88388 L3.73898546,38.0091036 C3.40608657,36.3975034 3.45934596,34.2618131 5.58636612,32.6285376 L14.4699708,25.7973881 C16.8439511,23.9834078 19.1376078,25.3921195 20.9212704,26.1882374 C22.2133328,26.7156088 31.5879368,31.913113 48.9931819,36.315701 C50.8811079,17.9937604 72.6488717,3.54112527 99.2277272,3.54112527 C126.292776,3.54112527 148.368338,18.5284802 149.544075,37.3268622 C171.470822,32.1474284 183.055339,24.9972957 183.055339,24.9972957 L194.868626,31.9797104" id="path16" fill="#47237F"></path>
                        <path d="M47.5304436,62.8399753 C47.3931819,61.6568442 46.8076245,60.9141521 45.7824136,60.5966478 C39.1059956,58.5321765 32.5716918,56.6955503 26.1034309,53.8458681 C25.1081218,53.4063534 24.7151005,53.7811656 24.9154933,54.9906399 C26.8323968,66.4614657 29.1300282,79.8299229 31.0476249,91.2998244 C26.5234886,89.5450006 22.0530093,87.629345 17.8823797,85.3679932 C15.4509528,73.0856134 12.3413053,57.4216046 9.91260518,45.1391785 C9.40136314,42.5581503 9.6631309,40.7735634 10.7426918,39.7781157 C11.8159674,38.7767061 13.4091736,38.8321192 15.5047483,39.892408 C27.6846671,46.0602646 39.6647477,50.0903511 53.295897,53.4400911 C55.6667808,57.1230488 58.9056022,60.4700158 62.8348916,63.3502006 C62.9726154,63.8849204 63.0668962,64.4307321 63.1108014,64.9894842 C64.0503739,76.7131119 64.9885599,88.4390504 65.9281324,100.163602 C61.2316565,99.4527994 54.8094729,98.2937006 51.5082598,97.4160576 C50.2003454,86.173077 48.8388203,74.0843425 47.5304436,62.8399753" id="path18" fill="#FFFFFF"></path>
                        <path d="M109.238126,108.636855 C109.50433,99.9431517 109.757132,91.3585188 110.025185,82.6643538 C101.884226,91.7661444 94.2955493,100.176543 87.1750411,108.298091 C82.201731,108.016635 77.5057173,107.551702 72.5929502,106.925012 C71.7305586,93.9595586 70.8404373,80.722355 69.9729619,67.691275 C74.7743482,70.1009803 80.2038108,71.9320606 86.0547639,73.0403217 C86.222066,79.0239148 86.3893681,85.007508 86.5548216,90.9892525 C91.5161156,85.6092411 96.7121871,80.0249547 102.13102,74.206815 C111.138068,73.8467919 119.509645,71.8257637 126.638472,68.5730774 C125.738645,81.5759656 124.82634,94.818253 123.932059,107.747195 C118.927322,108.177929 114.288616,108.492198 109.238126,108.636855" id="path20" fill="#FFFFFF"></path>
                        <path d="M146.775271,80.267589 C146.488731,82.6278431 146.238702,85.6984381 145.955398,88.0563814 C145.81675,89.2348909 146.230383,89.6970515 147.197686,89.4262254 C153.447483,88.098438 160.101671,86.363025 165.214554,84.5453474 C166.148118,84.1608298 166.931481,83.1357576 167.134369,81.936913 C167.548927,79.5341401 168.061925,76.4686289 168.473248,74.0644696 C161.740955,76.5499692 154.722122,78.6310783 146.775271,80.267589 M180.343381,78.2095879 C179.822526,80.7722683 178.729054,83.2938165 177.084224,85.7317136 C175.438933,88.1649891 173.689655,89.8435564 171.797107,90.7433831 C160.557362,95.6718636 149.3056,98.1897145 137.574578,100.143729 C135.569263,100.591101 133.920736,100.006468 132.672903,98.5779294 C131.418137,97.1447694 130.88203,95.1902922 131.085381,92.7329844 C131.822527,83.9047928 132.604965,74.1753881 133.364757,64.9030602 C138.024722,61.8860759 141.874982,58.260426 144.649332,54.2031182 C146.470245,53.851414 148.26389,53.4770639 150.029806,53.0722113 C149.324549,58.9703047 148.722815,64.1719221 148.016172,70.0709399 C154.683763,68.6678204 163.209701,66.2303854 170.290002,63.4943947 C171.319695,57.4835341 172.290233,51.7328699 173.321775,45.7260763 C178.432809,43.969866 183.098782,41.3592133 187.900169,38.6591787 C185.426685,50.8760241 182.815478,65.9937592 180.343381,78.2095879" id="path22" fill="#FFFFFF"></path>
                        <path d="M131.00173,38.0986241 C123.578044,42.410074 117.247831,37.8874167 117.247831,37.8874167 C124.360944,43.8743837 131.00173,38.0986241 131.00173,38.0986241 L131.00173,38.0986241 Z M132.274982,39.8243318 C121.550084,45.8865846 112.700633,39.5226795 112.700633,39.5226795 C122.815017,48.0439041 132.274982,39.8243318 132.274982,39.8243318 L132.274982,39.8243318 Z M115.876138,50.5233956 L122.608431,48.501443 L120.092429,48.630848 C118.998495,47.1685719 116.806929,48.2320034 116.91831,49.5542449 L115.876138,50.5233956 Z M137.628188,40.6428644 C136.525011,35.7069431 134.701788,34.9920731 134.701788,34.9920731 C133.654532,32.0766716 129.960482,31.261559 129.960482,31.261559 C131.261002,32.353968 131.750892,33.7655451 131.750892,33.7655451 C130.708258,33.7655451 128.658576,35.0785433 125.676716,35.0785433 C121.566721,35.0785433 121.278795,31.0812239 121.278795,30.3505943 C121.278795,29.6189016 124.667357,27.88164 126.018714,26.5321773 C127.343729,27.2933095 128.502828,29.0915764 128.502828,29.0915764 C128.502828,27.052986 127.363602,24.8467238 127.363602,24.8467238 C128.658576,23.2712184 125.702597,18.7382549 121.30329,18.7382549 C114.501672,18.7382549 116.903983,28.19651 109.392025,26.2889884 L105.986364,30.174927 C119.765682,30.174927 117.290812,21.1947771 121.906409,21.1947771 C123.733792,21.1947771 125.4766,22.4272669 125.4766,23.7476597 C125.4766,26.6800224 119.620563,27.4274285 119.620563,29.8546497 C119.620563,32.4279599 122.097282,36.5038466 126.158749,36.5038466 C128.370187,36.5038466 131.706525,35.053448 132.729748,35.053448 C133.753896,35.053448 135.637663,36.68127 135.637663,40.5024138 C135.637663,40.5024138 133.554243,42.8076246 132.99318,44.9741872 L135.942689,44.9741872 C135.942689,44.9741872 129.048177,49.5865961 112.414093,56.6964746 C112.414093,56.6964746 111.886768,60.7482365 109.080991,63.5549378 L109.331944,63.8299233 C113.564873,61.8176761 115.149159,57.7880979 115.149159,57.7880979 C130.339916,50.8746377 138.324664,45.8080636 138.324664,45.8080636 C140.589713,43.5411197 137.628188,40.6428644 137.628188,40.6428644 L137.628188,40.6428644 Z M61.2741752,30.3473591 C50.0737134,45.6582311 77.1276699,74.1527422 102.321892,59.8447125 C74.72767,69.0893108 57.2801834,44.9238117 61.2741752,30.3473591 L61.2741752,30.3473591 Z M81.3088368,22.240554 L80.8781031,22.1171109 C80.8781031,22.1171109 70.1800098,40.4760706 89.1378372,49.3166943 L89.2778718,49.1424598 C76.0549952,37.5084913 81.3088368,22.240554 81.3088368,22.240554 L81.3088368,22.240554 Z M100.310569,68.390524 C108.219061,65.3555154 109.166953,59.1838229 109.166953,59.1838229 L108.908143,59.0553423 C108.908143,59.0553423 104.96314,66.4776413 91.002193,66.4776413 C70.9296343,66.4776413 55.6265728,53.6868849 55.6265728,38.9029222 C55.6265728,32.2028415 58.9310211,26.0264812 64.4949724,21.0712877 C64.4949724,21.0712877 57.753898,43.9666309 84.8739436,55.652916 L84.9733081,55.477295 C61.5394554,39.7846322 72.065625,16.7717154 77.9165781,13.1659847 C83.764296,10.9454417 90.446676,9.6093354 97.566722,9.43080277 C108.482955,21.5731479 91.5424587,24.4548116 99.051644,44.139063 C99.051644,44.139063 93.3374904,49.4585776 93.3374904,53.779317 C93.3374904,58.0986698 96.5476579,58.7951458 97.4826088,58.7951458 C100.315653,58.7951458 104.183475,53.5819744 104.183475,53.5819744 C104.183475,53.5819744 99.2332731,56.5176185 97.3615227,56.5176185 C96.3045614,56.5176185 94.5973402,55.819756 94.5973402,52.9871737 C94.5973402,50.1550536 100.402077,46.074684 100.402077,46.074684 C96.5864794,28.2827954 109.444249,27.7758514 109.444249,17.0338528 C109.444249,11.0396762 106.255803,9.7880529 106.255803,9.7880529 C126.992949,12.0623914 142.827033,24.2314956 142.827033,38.9029222 C142.827033,54.9471968 123.892313,68.0009226 100.310569,68.390524 L100.310569,68.390524 Z" id="path24" fill="#EDAD09"></path>
                        <path d="M20.0043438,83.1930655 C20.0043438,83.1930655 14.0839742,51.6681674 13.3660078,47.6432108 C12.6478564,43.6200105 17.0912994,45.131784 17.0912994,45.131784 L20.488873,46.9758509 C20.488873,46.9758509 16.592813,46.4411311 16.5126743,48.8730202 C16.4332289,51.3030605 23.026227,84.7001712 23.026227,84.7001712 L20.0043438,83.1930655" id="path26" fill="#EDAD09"></path>
                        <path d="M50.6722113,62.0589239 C50.6722113,62.0589239 53.7035226,63.3099926 53.8421708,64.6562664 C53.9798947,66.0020781 56.9733088,95.1685707 56.9733088,95.1685707 L54.1740021,94.4443651 L50.6722113,62.0589239" id="path28" fill="#EDAD09"></path>
                        <polyline id="path30" fill="#EDAD09" points="112.053146 105.777005 112.800922 79.6889639 115.746733 77.0338513 114.757709 105.635122 112.053146 105.777005"></polyline>
                        <path d="M172.501902,80.2592701 C172.111376,81.8259945 169.436391,82.5765433 169.436391,82.5765433 L171.089077,73.2894262 L174.145807,72.2477163 C174.145807,72.2477163 172.819406,78.9730772 172.501902,80.2592701" id="path32" fill="#EDAD09"></path>
                        <polyline id="path34" fill="#EDAD09" points="175.985206 61.3014427 173.057881 62.4979765 175.401498 49.0699006 178.454068 47.8511831 175.985206 61.3014427"></polyline>
                        <polyline id="path36" fill="#EDAD09" points="74.8367399 104.849449 72.8813384 73.306064 75.818369 74.41109 77.3832447 102.735064 84.7144982 103.326629 82.9190043 105.545 74.8367399 104.849449"></polyline>
                        <path d="M140.913688,96.2846885 L137.989136,96.6747521 C137.989136,96.6747521 133.753896,96.919235 134.021025,92.8531461 C134.286305,88.7879816 136.272209,65.8842271 136.272209,65.8842271 L139.1108,64.1298655 C139.1108,64.1298655 137.052336,88.9312514 137.014901,91.3631404 C136.957593,95.0460981 140.913688,96.2846885 140.913688,96.2846885" id="path38" fill="#EDAD09"></path>
                        <polyline id="path40" fill="#47237F" points="152.997801 29.8079253 153.706755 29.8079253 153.706755 27.6724199 153.960944 27.6724199 153.960944 29.8079253 154.705022 29.8079253 154.705022 30.0659034 152.997801 30.0659034 152.997801 29.8079253"></polyline>
                        <polyline id="path42" fill="#47237F" points="156.68538 30.0641009 156.070245 28.1192367 155.45973 30.0641009 155.046097 30.0641009 155.046097 27.6724199 155.303058 27.6724199 155.303058 29.7048173 155.944075 27.6724199 156.199649 27.6724199 156.840666 29.7048173 156.840666 27.6724199 157.096241 27.6724199 157.096241 30.0641009 156.68538 30.0641009"></polyline>
                    </g>
                </g>
            </g>
        </g>
    </g>
</svg>