<svg width="200" height="200" viewBox="0 0 200 200" fill="none" xmlns="http://www.w3.org/2000/svg">
<path d="M74.1999 113.8L66.3999 107.1C66.3999 107.1 95.8999 101.1 116.1 109.5C127.2 119.1 127.7 119.1 127.7 119.1L99.2999 121L74.1999 113.8Z" fill="#091F40"/>
<path d="M82.5998 112.6C82.5998 112.6 79.0998 109.1 76.2998 106.6C76.2998 106.6 100.8 102.8 117.8 110.6C124.1 117.6 123.8 118.6 123.8 118.6L91.7998 123.3L82.5998 112.6Z" fill="#091F40"/>
<path d="M26.1001 123C26.1001 123 73.1001 134.5 101.3 159.3C99.9001 156.1 91.2001 111.4 91.2001 111.4C91.2001 111.4 69.0001 107.9 26.1001 123Z" fill="#091F40"/>
<path d="M101.3 159.3C101.3 159.3 117.1 149 129.1 147.3L128.5 146.8L110.1 138.8L103.7 138.7L101.3 159.3Z" fill="#091F40"/>
<path d="M109.2 147.1C115.6 145.7 124.5 146 134.4 148.4L143.8 135.4C144.7 127.4 117.2 108.5 117.2 108.5L117.9 114.3C104.7 104.4 80.2002 108.1 80.2002 108.1L85.3002 114C85.3002 114 63.8002 114.8 45.2002 123.8C45.2002 123.8 80.8002 132.4 101.3 158.4L109.2 147.1Z" fill="#C5B682"/>
<path d="M46.8 123.6C53.3 125.6 83.3 135.1 101.2 157.4L108.8 146.6H109C115.8 145.1 124.7 145.6 134.1 147.8L143.2 135.2C143.6 129.1 126 115.4 117.9 109.8L118.6 115.7L117.5 114.9C106.2 106.4 86.1 108.1 81.3 108.6L86.5 114.6L85.3 114.7C85.1 114.4 64.6 115.4 46.8 123.6ZM101.3 159.3L100.8 158.7C80.6 133.1 45.4 124.4 45 124.3L43.5 123.9L44.9 123.2C60.7 115.5 79.7 113.7 84 113.4L79 107.6L80 107.4C80.1 107.4 86.3 106.5 94 106.8C100.8 107.1 110.2 108.4 117.1 113L116.4 107.2L117.5 107.9C117.6 107.9 124.5 112.7 131.2 118.4C140.3 126.1 144.8 131.8 144.4 135.4V135.6L134.7 149L134.3 148.9C125 146.7 116.2 146.3 109.5 147.6L101.3 159.3Z" fill="#091F40"/>
<path d="M116.2 112.7L114.8 104.6C114.8 104.6 142.8 121.4 144.8 135.5L144.3 135.9L142.5 134.3L139.5 127.3L130.8 119L122.2 112.7L117.9 109.6V114.4L116.2 112.7Z" fill="#091F40"/>
<path d="M139.5 131.4C139.5 131.4 139.2 127.5 132.4 120.8L134.1 120.7L139.1 125.1L141.9 129.7L143.6 134.5L139.5 131.4Z" fill="#091F40"/>
<path d="M149.6 152.1L133.8 148.2C133.8 148.2 136.8 146.7 131.7 143.7C131.7 143.8 149.4 148.6 149.6 152.1Z" fill="#C5B682"/>
<path d="M134.9 148L148.6 151.4C146.9 149.5 140.2 147 134.4 145.2C135 145.8 135.3 146.4 135.2 147C135.2 147.4 135 147.6 134.9 148ZM150.1 152.9L132.2 148.4L133.5 147.8C133.5 147.8 134.1 147.5 134.1 147C134.1 146.7 133.9 145.7 131.4 144.3L127.7 142.2L131.8 143.3C134.8 144.1 150 148.5 150.1 152.2V152.9Z" fill="#091F40"/>
<path d="M117.5 138.6L144.9 148.4C144.9 148.4 151.3 150.7 150.8 156.8L153.9 151.3C154 151.4 155.5 146.4 150.1 141C145.4 136.3 135.7 127.8 135.7 127.8L138.7 136.7L135.4 139.8L117.5 138.6Z" fill="#C5B682"/>
<path d="M121.5 139.6L145.1 148C145.2 148 150.5 150 151.3 154.9L153.4 151.1C153.7 150.2 154 145.9 149.7 141.6C146.2 138.1 139.9 132.4 136.9 129.8L139.3 137L135.6 140.6L121.5 139.6ZM150 159.4L150.2 156.8C150.4 154.5 149.5 152.4 147.7 150.8C146.3 149.5 144.7 149 144.7 149L113.4 137.9L135.2 139.4L138 136.7L134.4 126.2L136 127.6C136.1 127.7 145.8 136.2 150.4 140.8C156 146.4 154.4 151.5 154.4 151.6C154.4 151.7 154.3 151.8 154.3 151.9L150 159.4Z" fill="#091F40"/>
<path d="M124.3 138.6C124.3 138.6 133.1 139.4 135.2 137.3C137.3 135.2 136.9 133.1 136.2 131.1C136.6 131.9 137.6 133.9 137.6 133.9L138.5 136.5L135.3 139.9L131.3 139.6L124.3 138.6Z" fill="#091F40"/>
<path d="M116.8 121.4L109.4 121.9L101 125.3C102.1 132.2 109.7 137.6 118.8 137.6C118.9 137.6 119 137.6 119.1 137.6C125.3 137.5 130.7 135 133.9 131.3L119.3 121.6L116.8 121.4Z" fill="#A38C31"/>
<path d="M117.4 121.4L114.6 123.4L106.9 123.9C107.7 128.1 110.7 132.1 115.3 134.3C121.7 137.4 128.9 136.1 132.7 131.4L117.4 121.4Z" fill="white"/>
<path d="M116.59 119.33L115.987 120.25L133.558 131.752L134.16 130.832L116.59 119.33Z" fill="#091F40"/>
<path d="M122.1 124.3C117.6 123 109.1 124.1 109 124.2L108.8 123.1C109.2 123 117.6 121.9 122.4 123.3L122.1 124.3Z" fill="#091F40"/>
<path d="M107.2 124.8C107.2 124.8 107.7 126.8 109.5 129.4C106.9 127.9 104.9 125 104.9 125L107.2 124.8Z" fill="#091F40"/>
<path d="M138.5 134.4L139.4 137L135.7 140.5L121.6 139.5L142 146.7L144.1 147.5L144.8 147.7C144.8 147.7 144.9 147.7 145.1 147.8H145.2C145.2 147.8 145.7 148 146.5 148.4C147.5 148.9 148.8 149.8 149.7 151.1C150 151.4 150.2 151.7 150.3 151.9C150.8 151.7 151.3 151 151.6 149.2C152.2 143.9 141.4 136.4 138.5 134.4Z" fill="#A38C31"/>
<path d="M144.9 147.9C145.2 148 145.7 148.2 146.3 148.6C145.6 148.2 145.1 148 144.9 147.9Z" fill="#002A38"/>
<path d="M135.7 140.4C135.7 140.4 138.5 139.7 139.4 136.9L138.7 135.4L136.7 136.8L134.1 139.3L135.7 140.4Z" fill="#091F40"/>
<path d="M140.1 138.6C139.5 139.7 138.5 140.4 137.8 140.8C137.8 140.8 140.2 141.1 140.8 140.6L140.1 138.6Z" fill="#091F40"/>
<path d="M149.4 151.4C149.4 151.4 153.9 147.4 149.2 141C151.1 141.1 152.9 145.2 152.9 145.2L153.9 150.9L151.9 154.9L150.7 157L150 153L149.4 151.4Z" fill="#091F40"/>
<path d="M141.9 146.8L144.7 147.8C144.7 147.8 147.7 148.8 149.6 151.2C151.5 153.7 150.4 153 150.4 153L149 151.9L147.8 150.7L146.5 149.5L145.2 149L143.5 148.4L141.9 146.8Z" fill="#091F40"/>
<path d="M134.6 145.4C134.7 145.5 135.6 146.7 134.9 147.9L148 151.2C148 151.2 146.7 149.8 144.5 149L134.6 145.4Z" fill="#A38C31"/>
<path d="M134.6 145.4L144.5 148.9C144.4 148.9 144.4 148.8 144.3 148.8C142.1 148.1 134.6 145.4 134.6 145.4Z" fill="#002A38"/>
<path d="M133.8 147.4C133.8 147.4 111.2 141.4 91.3999 142.7C91.3999 142.7 104.9 146.7 106.2 151.2C107.3 154.9 116.3 149.6 116.3 149.6L125.1 146.7L133.8 147.7V147.5V147.4Z" fill="#091F40"/>
<path d="M113.2 143.6C112.1 143.2 101.2 139.5 97.0002 132.6C97.0002 132.6 89.9002 137.8 85.2002 142.2C85.2002 142.2 94.6002 148.7 101.2 157.4L106.1 150.6C106.1 150.6 104.8 146.7 91.5002 142.7C91.4002 142.8 103.7 142.6 113.2 143.6Z" fill="#A38C31"/>
<path d="M46.7998 123.7C62.9998 128.6 80.9998 139.4 80.9998 139.4C96.5998 126 107.7 123.2 116 120.5C116 120.6 94.6998 114.6 46.7998 123.7Z" fill="#A38C31"/>
<path d="M117.9 123.4C117.9 123.4 101.7 124.2 92.5 130.8C94.2 128.3 106.5 120.6 116.3 120.6C119.9 122.8 117.9 123.4 117.9 123.4Z" fill="#091F40"/>
<path d="M129.9 129.1C128.9 131.2 126.8 132.6 124.4 132.8C120.7 133 117.5 130.3 117.3 126.6C117.2 124.8 117.8 123 118.9 121.8L129.9 129.1Z" fill="white"/>
<path d="M119.1 122.7C118.3 123.8 117.9 125.2 118 126.6C118.2 129.9 121.1 132.4 124.4 132.2C126.3 132.1 128.1 131 129.1 129.4L119.1 122.7ZM123.9 133.4C120.1 133.4 116.8 130.4 116.6 126.5C116.5 124.5 117.1 122.6 118.4 121.2L118.8 120.7L130.8 128.7L130.5 129.2C129.3 131.5 127 133.1 124.4 133.3C124.3 133.4 124.1 133.4 123.9 133.4Z" fill="#091F40"/>
<path d="M125.3 126.8L120.3 125.7C120 126.3 119.8 127 119.9 127.8C120 130 122 131.7 124.2 131.6C126.1 131.5 127.6 130.1 127.9 128.3L125.3 126.8Z" fill="#091F40"/>
<path d="M130.3 129.8L135.4 133L134.3 129.4C134.3 129.4 134 130.9 131.9 129.6C129.8 128.1 130.3 129.8 130.3 129.8Z" fill="#091F40"/>
<path d="M119.8 121.4L114.6 117.7C114.6 117.7 116.5 120.7 116.8 122.7L117.9 123.2L118.6 121.6L119.8 121.4Z" fill="#091F40"/>
<path d="M81.8002 140C81.8002 140 92.2002 146.7 102.3 157.5L101.3 158.4L80.7002 142.6L81.8002 140Z" fill="#091F40"/>
<path d="M96.1002 54.5001H107L108.5 56.1001L106.3 69.7001L103.9 71.7001H93.4002L95.3002 59.8001L90.8002 54.4001H96.1002V54.5001ZM66.2002 101.2C73.3002 100.8 80.9002 100.5 88.9002 100.4L91.3002 85.3001H102L103.5 87.2001L101.4 100.3C108.6 100.4 116.1 100.6 123.8 101.1L126.3 85.5001L120.6 78.7001L128.5 71.9001L132 50.0001L124.5 41.1001H91.7002H75.8002H67.0002L74.4002 50.0001L66.2002 101.2Z" fill="#091F40"/>
<path d="M24.1 54.5001H31.4H42L43.4 56.1001L37.6 93.0001L35.4 94.8001H24.9L23.6 93.3001L28.8 60.1001L24.1 54.5001ZM7.5 108.4C7.5 108.4 26.6 104.2 56.3 101.9L59 99.5001L66.9 50.0001L59.4 41.1001H18.2L7.8 50.0001L0 99.4001L7.5 108.4Z" fill="#091F40"/>
<path d="M134 101.8C149 103 164.7 105.1 180.5 108.3L190.7 99.4L200 41H177.4L169.1 93L167 94.8H156.8L155.4 93.2L163.7 41H132.4L139.8 49.8L132 99.4L134 101.8Z" fill="#091F40"/>
</svg>
