<?xml version="1.0" encoding="UTF-8"?>
<svg width="200px" height="200px" viewBox="0 0 200 200" version="1.1" xmlns="http://www.w3.org/2000/svg" xmlns:xlink="http://www.w3.org/1999/xlink">
    <!-- Generator: Sketch 54.1 (76490) - https://sketchapp.com -->
    <title>penn</title>
    <desc>Created with Sketch.</desc>
    <g id="penn" stroke="none" stroke-width="1" fill="none" fill-rule="evenodd">
        <g id="penn_BGL">
            <g id="penn" transform="translate(18.000000, 0.000000)">
                <g id="g10" transform="translate(81.300811, 99.914829) scale(-1, 1) rotate(-180.000000) translate(-81.300811, -99.914829) translate(0.000000, 0.289073)" fill-rule="nonzero">
                    <g id="g12">
                        <path d="M156.35359,198.765255 L0,198.765255 L0.0165344169,144.815585 L0.0165344169,110.822039 C0.0165344169,64.634919 52.5900103,17.5103364 78.0477461,1.92807325 L81.205831,0 L84.3948876,1.92807325 C109.855721,17.5066714 162.429729,64.6271761 162.429729,110.822039 L162.399789,198.765255 L156.35359,198.765255" id="path14" fill="#FFFFFF"></path>
                        <path d="M156.35359,192.718023 L6.04955463,192.718023 L6.06426621,144.818166 L6.06426621,110.822039 C6.06426621,67.3769502 57.6967336,21.4747704 81.205831,7.08540439 L81.205831,7.06320798 C81.2120253,7.06320798 81.2187359,7.0698669 81.2249302,7.0698669 C81.2285436,7.0698669 81.2326732,7.06320798 81.2352541,7.06320798 L81.2352541,7.08540439 C104.753127,21.4747704 156.379916,67.3769502 156.379916,110.822039 L156.35359,192.718023" id="path16" fill="#1F2854"></path>
                        <path d="M13.5723316,137.747835 C13.5723316,130.33062 13.5723316,110.822039 13.5723316,110.822039 C13.5723316,74.8788212 55.6252406,33.1877653 81.2249302,16.0185826 C106.815328,33.1877653 148.877013,74.8788212 148.877013,110.822039 C148.877013,110.822039 148.877013,130.33062 148.877013,137.747835 C136.66847,137.686408 25.7718925,137.686408 13.5723316,137.747835" id="path18" fill="#FFFFFF"></path>
                        <path d="M90.623304,96.6550498 C90.623304,96.6550498 89.1046564,96.6550498 88.6405966,96.6550498 L88.5636834,109.352946 C89.1046564,109.352946 92.927085,109.352946 92.927085,109.352946 C93.4659933,109.352946 97.2574501,109.546003 98.2593859,103.964896 C98.2593859,98.639822 96.0438742,96.6550498 90.623304,96.6550498 M91.6675677,80.6617608 C116.458895,80.6617608 122.105559,94.6532432 122.105559,106.394113 C122.105559,122.993415 111.56949,130.27229 93.2398996,130.27229 L53.834558,130.27229 L53.8639811,114.355398 L56.1558897,114.347655 C60.6416297,114.347655 64.4392809,112.68757 64.4392809,108.007224 L64.5812347,69.3281696 C64.5812347,67.495159 64.0387131,60.1171749 57.0612968,60.1171749 L53.8324932,60.1109806 L53.8536572,45.0757506 L99.25203,45.0757506 L99.25203,60.1171749 L96.7118314,60.1171749 C89.5212263,60.1171749 88.5967199,65.0313573 88.5967199,68.0831058 C88.5967199,68.0831058 88.5967199,80.0691682 88.5967199,80.6617608 C89.1129156,80.6617608 91.6675677,80.6617608 91.6675677,80.6617608 L91.6675677,80.6617608" id="path20" fill="#FFFFFF"></path>
                        <path d="M85.9346991,111.925665 C85.9346991,111.925665 89.7963586,111.925665 92.9167611,111.925665 C93.9790917,111.925665 95.4961907,111.599429 96.9126315,110.669761 L107.413599,125.620335 C103.470381,127.358882 98.5438096,127.789905 93.1480168,127.789905 L56.5745243,127.789905 C56.5745243,127.789905 56.6643424,116.838299 56.5745243,116.928117 C60.5982692,116.928117 66.7508049,115.104398 66.7508049,109.123239 L66.7508049,68.1889259 L85.9346991,95.2066049 L85.9346991,111.925665" id="path22" fill="#961A1F"></path>
                        <path d="M100.035357,108.960637 C100.021265,108.973645 100.021265,109.005082 100.008257,109.026762 C100.012593,108.993158 100.021265,108.973645 100.035357,108.960637" id="path24" fill="#154281"></path>
                        <path d="M112.524452,124.229188 L112.526517,124.235382 C112.268935,124.460443 112.008256,124.679827 111.731059,124.890434 C112.008256,124.679827 112.263773,124.460443 112.524452,124.229188" id="path26" fill="#FFFFFF"></path>
                        <path d="M110.74048,125.623432 C111.049165,125.404049 111.352172,125.182601 111.650017,124.952378 C111.352172,125.182601 111.049165,125.404049 110.74048,125.623432" id="path28" fill="#FFFFFF"></path>
                        <path d="M99.687183,109.837396 C99.787996,109.707061 99.893145,109.573908 99.9776978,109.430892 C99.893145,109.573908 99.787996,109.709879 99.687183,109.837396" id="path30" fill="#FFFFFF"></path>
                        <path d="M111.650017,125.020516 C111.703133,124.989079 111.768174,124.941383 111.820206,124.890434 C111.768174,124.941383 111.703133,124.989079 111.650017,125.020516" id="path32" fill="#FFFFFF"></path>
                        <path d="M99.1193678,110.748739 C99.3279108,110.441603 99.510644,110.098333 99.687183,109.728736 C99.510644,110.098333 99.3279108,110.441603 99.1193678,110.748739" id="path34" fill="#FFFFFF"></path>
                        <path d="M110.694538,125.685221 L110.694538,125.685221 C110.721639,125.65812 110.760663,125.638608 110.791015,125.623432 C110.760663,125.638608 110.730311,125.671129 110.694538,125.685221" id="path36" fill="#FFFFFF"></path>
                        <path d="M100.209263,108.992125 L100.209263,108.992125 C100.08677,109.144403 99.9696968,109.287389 99.8255234,109.430892 C99.9696968,109.287389 100.08677,109.139757 100.209263,108.992125" id="path38" fill="#FFFFFF"></path>
                        <path d="M86.1845378,94.1535658 C87.8265561,94.5278077 87.2499656,96.0707164 87.2499656,96.0707164 L86.0461974,97.62653 L66.7508049,70.4999337 L66.0859449,68.5208397 C66.0859449,68.5120644 66.7508049,68.4888356 66.7508049,68.4841898 L87.7351894,94.0410352 L86.0735557,94.0410352" id="path40" fill="#FFFFFF"></path>
                        <path d="M111.444055,124.552326 C111.419793,124.577104 111.387273,124.600332 111.363528,124.616334 C111.064651,124.846558 110.759063,125.066973 110.450894,125.284808 C110.435924,125.295648 110.419406,125.301842 110.405469,125.319393 C109.34159,126.039486 108.204411,126.676471 106.9738,127.213315 L95.3815952,111.036776 C96.185828,110.501997 97.2006686,110.182989 97.8366216,109.208927 C98.0436161,108.899726 99.2210583,109.762805 99.399662,109.394242 C99.4461196,109.298745 99.4961906,109.200152 99.5380024,109.096913 C99.6040755,108.952894 99.6603408,108.806811 99.7217681,108.656598 L112.234866,123.895209 C111.97522,124.123368 111.718671,124.344299 111.444055,124.552326" id="path42" fill="#FFFFFF"></path>
                        <path d="M100.008257,108.992125 L112.524452,124.229188 C117.703959,119.851333 119.320167,113.10414 119.320167,106.650146 C119.320167,91.0223232 110.067361,83.206089 91.5700067,83.206089 L85.8887577,83.206089 L85.8887577,67.2380936 C85.8887577,61.8211367 88.8821761,58.0332932 96.6622766,58.0332932 C96.6622766,56.3685623 96.6622766,47.5892103 96.6622766,47.5892103 L56.5745243,47.5892103 C56.5745243,47.5892103 56.5327125,57.9919975 56.5745243,58.0332932 C63.0925265,58.0332932 66.7446105,62.4617354 66.7508049,68.4841898 L87.7351894,94.0410352 C88.5218716,94.0410352 89.4794145,94.0410352 90.5035466,94.0410352 C95.7341569,94.0410352 100.79752,96.0092891 100.79752,104.188925 C100.795455,105.581105 100.561618,107.55865 100.008257,108.992125" id="path44" fill="#1F2854"></path>
                        <path d="M31.045347,169.967734 C31.045347,169.967734 31.9819324,169.967734 32.8413464,169.967734 C34.758497,169.967734 36.6394106,170.61814 36.6775059,173.317327 C36.7178207,175.976767 35.0462761,176.831587 33.6152269,176.831587 C32.4749508,176.831587 31.0033803,176.831587 31.0033803,176.831587 L31.045347,169.967734 M31.045347,164.74022 L31.0033803,160.291647 C31.0033803,158.455022 31.9819324,157.388046 35.0855585,157.388046 L35.0855585,153.431407 L18.6681115,153.431407 C18.6681115,153.431407 18.7094588,157.388046 18.7489994,157.388046 C21.3222862,157.388046 22.7936502,158.654274 22.8360299,160.738156 L22.8360299,175.195763 C22.8759318,177.237833 20.6286742,177.812875 19.076061,177.812875 C19.076061,179.034193 19.076061,181.934181 19.076061,181.934181 L35.0071484,181.934181 C41.2553351,181.934181 45.6661751,179.567424 45.5854938,173.887723 C45.5022314,168.540969 41.4983084,164.74022 34.1058193,164.74022 L31.045347,164.74022 L31.045347,164.74022" id="path46" fill="#FFFFFF"></path>
                        <path d="M67.3113933,174.953667 C67.3113933,174.953667 67.4760597,177.932632 64.0030956,177.932632 C62.8984369,177.932632 60.2482886,177.932632 60.2482886,177.932632 L60.2482886,170.256803 L62.2485466,170.256803 C64.2493209,170.256803 64.2493209,172.255513 64.2493209,172.255513 L67.7197041,172.255513 L67.7197041,164.454764 L64.2493209,164.454764 C64.2493209,164.454764 64.0423264,166.41734 62.1654391,166.41734 L60.2482886,166.41734 L60.2482886,157.71996 C60.2482886,157.71996 63.2272535,157.71996 64.0841383,157.71996 C65.8794667,157.71996 67.4342479,158.575296 67.4760597,161.188278 L73.110335,161.188278 L73.110335,153.431407 L47.7898556,153.384949 C47.7898556,153.384949 47.7898556,157.019999 47.7898556,157.388046 C49.6677236,157.388046 52.1182075,158.209313 52.1182075,160.738156 L52.0769118,175.237058 C52.0769118,177.364817 49.0557221,177.768998 48.1951207,177.768998 C48.1951207,179.934955 48.1534121,181.934181 48.1534121,181.934181 L73.110335,181.934181 L73.110335,174.953667 L67.3113933,174.953667" id="path48" fill="#FFFFFF"></path>
                        <path d="M99.9865764,166.253706 L99.9865764,173.929535 C99.9865764,176.341201 99.1286593,177.812875 95.7000879,177.812875 L95.7000879,181.976509 L110.23977,181.976509 L110.23977,177.849008 C107.541099,177.849008 106.27642,177.689504 106.27642,174.335781 C106.27642,170.61814 106.315651,153.431407 106.315651,153.431407 L99.0476166,153.431407 L88.9998687,166.989285 C88.9998687,166.989285 88.9580569,162.537097 88.9580569,161.313198 C88.9580569,158.654274 90.3466231,157.46754 93.2889382,157.46754 C93.2889382,155.674793 93.2450615,153.431407 93.2450615,153.431407 L78.9108252,153.431407 C78.9108252,153.431407 78.9108252,156.203893 78.9108252,157.349331 C81.6879577,157.349331 82.9144385,158.859204 82.9144385,161.313198 C82.9144385,162.368818 82.9144385,171.072908 82.9144385,175.153951 C82.9144385,177.199118 81.3214588,177.849008 79.1988624,177.849008 L79.1988624,181.976509 L88.6746655,181.976509 L99.9865764,166.253706" id="path50" fill="#FFFFFF"></path>
                        <path d="M134.824619,166.253706 L134.824619,173.929535 C134.824619,176.341201 133.967218,177.812875 130.534517,177.812875 L130.534517,181.976509 L145.078845,181.976509 L145.078845,177.849008 C142.382756,177.849008 141.114979,177.689504 141.114979,174.335781 C141.114979,170.61814 141.15421,153.431407 141.15421,153.431407 L133.884111,153.431407 L123.837395,166.989285 C123.837395,166.989285 123.792486,162.537097 123.792486,161.313198 C123.792486,158.654274 125.18415,157.46754 128.12853,157.46754 C128.12853,155.674793 128.08362,153.431407 128.08362,153.431407 L113.7499,153.431407 C113.7499,153.431407 113.7499,156.203893 113.7499,157.349331 C116.524452,157.349331 117.752997,158.859204 117.752997,161.313198 C117.752997,162.368818 117.752997,171.072908 117.752997,175.153951 C117.752997,177.199118 116.16105,177.849008 114.036389,177.849008 L114.036389,181.976509 L123.510127,181.976509 L134.824619,166.253706" id="path52" fill="#FFFFFF"></path>
                    </g>
                </g>
            </g>
        </g>
    </g>
</svg>