<?xml version="1.0" encoding="UTF-8"?>
<svg width="200px" height="200px" viewBox="0 0 200 200" version="1.1" xmlns="http://www.w3.org/2000/svg" xmlns:xlink="http://www.w3.org/1999/xlink">
    <!-- Generator: Sketch 56.3 (81716) - https://sketch.com -->
    <title>portland</title>
    <desc>Created with Sketch.</desc>
    <defs>
        <polygon id="path-1" points="0 0.9376 198.6688 0.9376 198.6688 190.304 0 190.304"></polygon>
    </defs>
    <g id="portland" stroke="none" stroke-width="1" fill="none" fill-rule="evenodd">
        <g id="portland_BGL" transform="translate(-0.000000, 0.000000)">
            <g id="portland" transform="translate(0.000000, 5.000000)">
                <mask id="mask-2" fill="white">
                    <use xlink:href="#path-1"></use>
                </mask>
                <g id="Clip-2"></g>
                <path d="M99.4128,58.5968 C95.7248,58.5904 92.7376,55.5968 92.7376,51.9088 C92.7376,48.2192 95.7248,45.2288 99.4128,45.2192 C103.0992,45.2288 106.0912,48.2192 106.0912,51.9088 C106.0912,55.5968 103.0992,58.5904 99.4128,58.5968 Z M171.36,117.8976 C170.3088,117.8976 137.744,123.2528 137.744,123.2528 C136.2528,123.4064 134.8528,124.6688 134.5904,126.072 L132.688,136.3744 L152.2368,134.7024 C145.5536,144.96 135.968,153.144 124.6496,158.0992 C124.6496,158.0992 113.8288,161.7008 111.528,150.7056 C110.2192,144.4432 107.3808,84.1568 107.3808,84.1568 L135.5712,80.8224 C137.232,80.8128 138.9184,79.584 139.3632,78.0592 L141.7808,69.6256 L106.6224,69.6256 L106.4496,66.0944 C111.6624,63.4976 115.2528,58.1312 115.2528,51.9088 C115.2528,43.16 108.1632,36.0656 99.4128,36.0528 C90.6688,36.0656 83.5744,43.16 83.5744,51.9088 C83.5744,58.1312 87.1664,63.4976 92.3808,66.0944 L92.2064,69.6256 L57.0464,69.6256 L59.4624,78.0592 C59.9088,79.584 61.5968,80.8128 63.256,80.8224 L91.4464,84.1568 C91.4464,84.1568 88.6096,144.4432 87.2992,150.7056 C85,161.7008 74.1808,158.0992 74.1808,158.0992 C62.8592,153.144 53.272,144.96 46.5936,134.7024 L66.3024,136.3744 L64.3968,126.072 C64.1376,124.6688 62.7312,123.4064 61.2464,123.2528 C61.2464,123.2528 28.7632,117.8976 27.4688,117.8976 C26.3504,117.8976 25.7504,118.6368 26.088,120.0256 C26.088,120.0256 26.088,120.0256 26.44,121.2656 C32.1744,141.3024 45.9344,157.9472 64.016,167.5024 C64.016,167.5024 91.9088,183.2944 99.0432,190.0496 L99.4128,190.4 L99.784,190.0496 C106.9184,183.2944 134.8096,167.5024 134.8096,167.5024 C152.8944,157.9472 166.6528,141.3024 172.384,121.2656 C172.7408,120.0256 172.7408,120.0256 172.7408,120.0256 C173.0784,118.6368 172.4784,117.8976 171.36,117.8976 L171.36,117.8976 Z" id="Fill-1" fill="#2E2153" mask="url(#mask-2)"></path>
                <path d="M194.312,94.4992 C190.5776,92.9008 186.544,94.7808 182.5504,95.4992 C180.8976,95.856 179.1376,96.3744 177.6192,96.6976 L177.6192,93.2224 L174.9632,93.2224 C173.5056,77.6064 167.3216,63.3664 157.8528,51.9472 L159.784,50.0128 L157.528,47.7536 C158.8432,46.9472 160.2368,46.112 161.7664,45.1568 C165.2096,43.0096 169.4032,41.3008 170.944,37.5568 C172.1568,34.7632 171.6784,32.4176 169.728,30.1856 C167.5248,28.2656 165.2064,27.8144 162.4128,29.0304 C158.64,30.5408 157.1184,34.7184 154.8032,38.0496 C153.8848,39.4752 153.0096,41.088 152.16,42.3872 L149.7056,39.9312 L147.7664,41.8688 C136.3568,32.4224 122.1344,26.2528 106.5408,24.8 L106.5408,21.9872 L103.3504,21.9872 C103.7088,20.488 104.1056,18.9088 104.5056,17.1552 C105.4256,13.2 107.1808,9.0288 105.6256,5.2928 C104.5056,2.456 102.5088,1.1376 99.5504,0.9376 C96.6368,1.1376 94.6784,2.456 93.5632,5.2928 C91.9632,9.0288 93.84,13.0608 94.5632,17.0544 C94.9184,18.7088 95.4368,20.4688 95.76,21.9872 L92.2848,21.9872 L92.2848,24.8 C76.6912,26.2528 62.472,32.4224 51.0624,41.8656 L51.0816,41.8224 L49.0752,39.8192 L46.8192,42.0784 C46.0128,40.7632 45.1776,39.3664 44.2192,37.84 C42.072,34.3936 40.3664,30.2032 36.6224,28.6624 C33.8288,27.448 31.4816,27.928 29.2496,29.8784 C27.328,32.08 26.8784,34.3968 28.0944,37.1904 C29.6032,40.9632 33.784,42.488 37.1152,44.8 C38.5408,45.7184 40.1504,46.5936 41.4496,47.4432 L38.9936,49.9008 L41,51.9024 L41.016,51.8976 C31.5536,63.288 25.3632,77.488 23.8784,93.0656 L21.0496,93.0656 L21.0496,96.256 C19.5504,95.8976 17.9744,95.4992 16.2192,95.1008 C12.2624,94.1808 8.0912,92.4256 4.3536,93.9808 C1.5184,95.1008 0.2,97.0976 0,100.0528 C0.2,102.968 1.5184,104.9248 4.3536,106.0432 C8.0912,107.64 12.1216,105.7664 16.1184,105.0432 C17.7712,104.6848 19.5312,104.1648 21.0496,103.8464 L21.0496,107.3216 L23.8496,107.3216 C24.0848,109.8432 24.4464,112.328 24.9184,114.7712 L29.4288,115.4688 C31.8752,115.816 36.3056,116.5056 41.384,117.3184 C39.8128,111.9376 38.9568,106.2432 38.9568,100.3504 C38.9568,72.3408 58.0064,48.7872 83.8528,41.9216 C87.1504,36.8032 92.888,33.4016 99.4128,33.3936 C105.9376,33.4016 111.6784,36.8032 114.9744,41.9216 C140.8192,48.784 159.8688,72.3408 159.8688,100.3504 C159.8688,106.2528 159.0128,111.9568 157.4336,117.3472 C161.1936,116.744 164.1936,116.2688 166.44,115.9216 L173.912,114.7408 C174.3712,112.36 174.7248,109.9376 174.96,107.4784 L177.6192,107.4784 L177.6192,104.288 C179.1184,104.6464 180.6944,105.0432 182.4496,105.4464 C186.4064,106.3632 190.5776,108.1184 194.312,106.5632 C197.1504,105.4432 198.4688,103.4464 198.6688,100.4912 C198.4688,97.5744 197.1504,95.616 194.312,94.4992" id="Fill-3" fill="#2E2153" mask="url(#mask-2)"></path>
            </g>
        </g>
    </g>
</svg>