<?xml version="1.0" encoding="UTF-8"?>
<svg width="200px" height="200px" viewBox="0 0 200 200" version="1.1" xmlns="http://www.w3.org/2000/svg" xmlns:xlink="http://www.w3.org/1999/xlink">
    <title>presbyterian_BGL</title>
    <g id="presbyterian_BGL" stroke="none" stroke-width="1" fill="none" fill-rule="evenodd">
        <g id="PC-color-logo-full" transform="translate(3.000000, 2.000000)">
            <path d="M97.338,78.986 L105.354,78.986 L105.354,71.609 L97.338,71.609 L97.338,78.986 Z M45.158,78.986 L63.445,78.986 L63.445,68.468 L88.21,42.625 L105.354,42.625 L105.354,29.763 L45.149,29.778 L45.158,78.986 Z M0.5,0.113 L117.374,0.113 L140.762,18.094 L140.756,42.556 L170.909,42.556 L193.813,63.297 L193.813,91.85 L161.047,91.85 L161.047,71.608 L140.762,71.608 L140.762,83.9 L114.237,109.53 L97.415,109.53 L97.415,165.916 L161.071,165.916 L161.047,145.683 L193.813,145.683 L193.813,173.837 L169.84,195.5 L88.21,195.5 L63.445,173.878 L63.445,109.53 L45.234,109.53 L45.234,126.094 L56.814,126.094 L56.893,155.352 L0.5,155.352 L0.5,126.094 L12.085,126.094 L11.989,29.763 L0.5,29.77 L0.5,0.113 L0.5,0.113 Z" id="Fill-1" fill="#005394"></path>
            <path d="M97.338,78.986 L105.354,78.986 L105.354,71.609 L97.338,71.609 L97.338,78.986 Z M45.158,78.986 L63.445,78.986 L63.445,68.468 L88.21,42.625 L105.354,42.625 L105.354,29.763 L45.149,29.778 L45.158,78.986 Z M0.5,0.113 L117.374,0.113 L140.762,18.094 L140.756,42.556 L170.909,42.556 L193.813,63.297 L193.813,91.85 L161.047,91.85 L161.047,71.608 L140.762,71.608 L140.762,83.9 L114.237,109.53 L97.415,109.53 L97.415,165.916 L161.071,165.916 L161.047,145.683 L193.813,145.683 L193.813,173.837 L169.84,195.5 L88.21,195.5 L63.445,173.878 L63.445,109.53 L45.234,109.53 L45.234,126.094 L56.814,126.094 L56.893,155.352 L0.5,155.352 L0.5,126.094 L12.085,126.094 L11.989,29.763 L0.5,29.77 L0.5,0.113 Z" id="Stroke-2" stroke="#931430" stroke-width="3"></path>
            <path d="M41.787,26.417 L41.797,82.347 L66.806,82.347 L66.806,69.819 L89.646,45.987 L108.715,45.987 L108.715,26.4 L41.787,26.417 Z M93.977,82.347 L108.715,82.347 L108.715,68.246 L93.977,68.246 L93.977,82.347 Z M89.471,192.139 L66.806,172.351 L66.806,106.169 L41.873,106.169 L41.873,129.455 L53.462,129.455 L53.522,151.988 L3.861,151.988 L3.863,129.455 L15.45,129.455 L15.348,26.4 L3.863,26.407 L3.863,3.474 L116.231,3.474 L137.401,19.75 L137.395,45.917 L169.615,45.917 L190.452,64.788 L190.452,88.489 L164.409,88.489 L164.409,68.247 L137.401,68.247 L137.401,82.474 L112.877,106.169 L94.053,106.169 L94.053,169.28 L164.436,169.28 L164.413,149.043 L190.452,149.043 L190.452,172.344 L168.547,192.139 L89.471,192.139 L89.471,192.139 Z" id="Fill-4" fill="#005394"></path>
            <path d="M95.977,80.348 L106.715,80.348 L106.715,70.247 L95.977,70.247 L95.977,80.348 Z M43.797,80.347 L43.788,28.416 L106.715,28.401 L106.715,43.987 L88.792,43.987 L64.806,69.015 L64.806,80.347 L43.797,80.347 Z M116.911,1.474 L1.863,1.474 L1.863,28.407 L13.35,28.401 L13.448,127.455 L1.863,127.455 L1.861,153.988 L55.527,153.988 L55.457,127.455 L43.873,127.455 L43.873,108.169 L64.806,108.169 L64.806,173.26 L88.721,194.139 L169.317,194.139 L192.452,173.233 L192.452,147.043 L162.411,147.043 L162.434,167.28 L96.053,167.28 L96.053,108.169 L113.686,108.169 L139.401,83.323 L139.401,70.247 L162.409,70.247 L162.409,90.489 L192.452,90.489 L192.452,63.901 L170.385,43.917 L139.395,43.917 L139.401,18.765 L116.911,1.474 Z M91.977,84.347 L110.715,84.347 L110.715,66.246 L91.977,66.246 L91.977,84.347 Z M39.797,84.347 L68.806,84.347 L68.806,70.623 L90.499,47.987 L110.715,47.987 L110.715,24.4 L106.714,24.401 L43.787,24.416 L39.787,24.417 L39.797,84.347 L39.797,84.347 Z M115.55,5.474 L135.401,20.735 L135.394,47.917 L168.843,47.917 L188.452,65.675 L188.452,86.489 L166.409,86.489 L166.409,66.247 L135.401,66.247 L135.401,81.625 L112.069,104.169 L92.053,104.169 L92.053,171.28 L166.439,171.28 L166.416,151.043 L188.452,151.043 L188.452,171.456 L167.777,190.139 L90.222,190.139 L68.806,171.443 L68.806,104.169 L39.873,104.169 L39.873,131.455 L51.468,131.455 L51.517,149.988 L5.861,149.988 L5.863,131.455 L17.452,131.455 L17.346,24.398 L13.347,24.401 L5.863,24.405 L5.863,5.474 L115.55,5.474 L115.55,5.474 Z" id="Fill-5" fill="#9EA0A0"></path>
            <path d="M40.244,24.875 L40.255,83.89 L68.349,83.89 L68.349,70.438 L90.303,47.529 L110.258,47.529 L110.258,24.858 L40.244,24.875 Z M92.434,83.89 L110.258,83.89 L110.258,66.704 L92.434,66.704 L92.434,83.89 Z M90.05,190.598 L68.349,171.651 L68.349,104.626 L40.33,104.626 L40.33,130.998 L51.923,130.998 L51.976,150.447 L5.404,150.447 L5.404,130.998 L16.994,130.998 L16.888,24.856 L5.404,24.863 L5.404,5.017 L115.708,5.017 L135.858,20.509 L135.85,47.46 L169.02,47.46 L188.909,65.472 L188.909,86.947 L165.952,86.947 L165.952,66.704 L135.858,66.704 L135.858,81.82 L112.255,104.626 L92.51,104.626 L92.51,170.821 L165.979,170.821 L165.958,150.585 L188.909,150.585 L188.909,171.658 L167.953,190.598 L90.05,190.598 L90.05,190.598 Z" id="Fill-6" fill="#005394"></path>
            <path d="M93.934,82.39 L108.758,82.39 L108.758,68.204 L93.934,68.204 L93.934,82.39 Z M41.755,82.39 L41.744,26.374 L108.758,26.359 L108.758,46.029 L89.663,46.029 L66.849,69.835 L66.849,82.39 L41.755,82.39 Z M116.217,3.517 L3.904,3.517 L3.904,26.364 L15.39,26.357 L15.492,129.498 L3.904,129.498 L3.904,151.947 L53.479,151.947 L53.419,129.498 L41.83,129.498 L41.83,106.126 L66.849,106.126 L66.849,172.332 L89.487,192.098 L168.53,192.098 L190.409,172.324 L190.409,149.085 L164.456,149.085 L164.477,169.321 L94.01,169.321 L94.01,106.126 L112.862,106.126 L137.358,82.456 L137.358,68.204 L164.452,68.204 L164.452,88.447 L190.409,88.447 L190.409,64.807 L169.598,45.96 L137.35,45.96 L137.358,19.77 L116.217,3.517 Z M90.934,85.39 L111.758,85.39 L111.758,65.204 L90.934,65.204 L90.934,85.39 Z M38.755,85.39 L69.849,85.39 L69.849,71.041 L90.943,49.029 L111.758,49.029 L111.758,23.358 L108.757,23.359 L41.744,23.374 L38.744,23.375 L38.755,85.39 L38.755,85.39 Z M115.198,6.517 L134.358,21.248 L134.349,48.96 L168.442,48.96 L187.409,66.137 L187.409,85.447 L167.452,85.447 L167.452,65.204 L134.358,65.204 L134.358,81.183 L111.649,103.126 L91.01,103.126 L91.01,172.321 L167.48,172.321 L167.458,152.085 L187.409,152.085 L187.409,170.992 L167.375,189.098 L90.613,189.098 L69.849,170.969 L69.849,103.126 L38.83,103.126 L38.83,132.498 L50.427,132.498 L50.472,148.947 L6.904,148.947 L6.904,132.498 L18.495,132.498 L18.387,23.356 L15.388,23.357 L6.904,23.362 L6.904,6.517 L115.198,6.517 L115.198,6.517 Z" id="Fill-7" fill="#FFFFFE"></path>
        </g>
    </g>
</svg>