<?xml version="1.0" encoding="UTF-8"?>
<svg width="200px" height="200px" viewBox="0 0 200 200" version="1.1" xmlns="http://www.w3.org/2000/svg" xmlns:xlink="http://www.w3.org/1999/xlink">
    <!-- Generator: Sketch 54.1 (76490) - https://sketchapp.com -->
    <title>radford</title>
    <desc>Created with Sketch.</desc>
    <g id="radford" stroke="none" stroke-width="1" fill="none" fill-rule="evenodd">
        <g id="radford_BGL">
            <g id="radford" transform="translate(0.000000, 15.000000)">
                <g id="g10" transform="translate(99.882212, 85.352179) scale(-1, 1) rotate(-180.000000) translate(-99.882212, -85.352179) translate(0.000000, 0.546527)" fill-rule="nonzero">
                    <g id="g12">
                        <path d="M150.079619,37.2806587 C176.886686,65.3577369 194.852292,101.947701 199.485507,142.595992 C172.500349,158.911657 137.715898,168.740632 99.7418114,168.740632 C61.7686675,168.740632 26.9846872,158.911657 0,142.596934 C4.63229199,101.948643 22.5993869,65.3559465 49.405888,37.2769838 L48.4724605,9.26089965 L68.9418122,19.5620254 C78.492342,12.0715191 88.7934018,5.49433202 99.7352154,0 C110.68174,5.49433202 120.986569,12.0726499 130.539455,19.5638158 L151.013424,9.26089965 L150.079619,37.2806587" id="path14" fill="#D3D4D3"></path>
                        <path d="M99.7418114,15.9555237 C93.902,19.0691161 88.2611992,22.6269959 82.8386316,26.5544399 L74.6893739,22.4536155 C82.0277954,16.8367487 89.7773358,11.8716605 97.8760871,7.71275364 L99.7418114,6.75427074 L101.608478,7.71275364 C109.707418,11.8727912 117.45677,16.8367487 124.795285,22.4536155 L116.646405,26.5544399 C111.223554,22.6269959 105.582094,19.0691161 99.7418114,15.9555237" id="path16" fill="#C31E25"></path>
                        <path d="M111.322494,29.2332619 L99.7427537,35.0607294 L88.1621651,29.2332619 C91.9033193,26.6317072 95.7615995,24.2053233 99.7418114,21.9957592 C103.722966,24.2053233 107.581623,26.6317072 111.322494,29.2332619" id="path18" fill="#223C6F"></path>
                        <path d="M43.2052757,78.1142972 C46.1741331,73.1533551 49.3550989,68.3608935 52.7378079,63.836135 L52.734133,95.0718469 L43.5412946,95.0718469 L43.2052757,78.1142972" id="path20" fill="#223C6F"></path>
                        <path d="M35.103038,131.101057 L22.1845931,131.101057 C23.6712362,123.848289 25.7946754,116.436275 28.4735917,109.063837 L34.5685739,109.063837 L35.103038,131.101057" id="path22" fill="#223C6F"></path>
                        <polyline id="path24" fill="#223C6F" points="44.2542274 131.101057 43.8181379 109.063837 52.7322484 109.063837 52.7293273 131.101057 44.2542274 131.101057"></polyline>
                        <path d="M44.4504111,141.014837 L44.2542274,131.101057 L52.7293273,131.101057 L52.7278196,143.398819 C49.9477019,142.668548 47.1885972,141.871375 44.4504111,141.014837" id="path26" fill="#C31E25"></path>
                        <path d="M35.267184,137.862894 C30.744216,136.177146 26.2919192,134.324614 21.933851,132.28174 C22.0104588,131.889749 22.1043104,131.49399 22.1845931,131.101057 L35.103038,131.101057 L35.267184,137.862894" id="path28" fill="#C31E25"></path>
                        <path d="M35.267184,137.862894 L35.103038,131.101057 L44.2542274,131.101057 L44.4504111,141.014837 C41.3578317,140.047111 38.2976669,138.991752 35.267184,137.862894" id="path30" fill="#FFFFFF"></path>
                        <path d="M34.5685739,109.063837 L28.4735917,109.063837 C30.1763008,104.376911 32.1039332,99.7116583 34.2300109,95.1123651 L34.5685739,109.063837" id="path32" fill="#C31E25"></path>
                        <polyline id="path34" fill="#C31E25" points="43.5412946 95.0718469 52.734133 95.0718469 52.7322484 109.063837 43.8181379 109.063837 43.5412946 95.0718469"></polyline>
                        <path d="M34.2300109,95.1123651 C34.23623,95.0982308 34.242826,95.0850388 34.2491393,95.0718469 L43.5412946,95.0718469 L43.8181379,109.063837 L34.5685739,109.063837 L34.2300109,95.1123651" id="path36" fill="#FFFFFF"></path>
                        <path d="M99.7323886,43.4043805 L142.102234,22.5386096 L142.102234,157.978795 C128.641693,161.163718 114.438631,162.905061 99.7323886,162.905061 C85.0269001,162.905061 70.8237438,161.163718 57.363485,157.978795 L57.363485,22.5386096 L99.7323886,43.4043805" id="path38" fill="#C31E25"></path>
                        <polyline id="path40" fill="#FFFFFF" points="60.6960644 135.663601 73.8173833 124.547464 112.633213 138.767488 112.633213 110.659126 94.437689 104.060304 94.437689 120.650174 75.0902219 113.651823 75.0902219 44.7651343 94.437689 54.6411294 94.437689 88.3326244 103.412012 91.6353334 114.521552 45.3993864 132.21578 54.430246 120.872553 98.0607749 131.973613 102.14558 131.971728 142.204943 111.355474 154.654413 60.6960644 135.663601"></polyline>
                        <polyline id="path42" fill="#D3D4D3" points="73.8173833 124.547464 112.633213 138.767488 103.769138 144.127205 66.6446155 130.624261 73.8173833 124.547464"></polyline>
                        <polyline id="path44" fill="#D3D4D3" points="121.752647 113.960892 112.633213 110.659126 112.633213 138.767488 121.752647 133.26737 121.752647 113.960892"></polyline>
                        <polyline id="path46" fill="#D3D4D3" points="103.412012 91.6353334 111.609891 94.65253 123.839808 50.1550046 114.521552 45.3993864 103.412012 91.6353334"></polyline>
                        <polyline id="path48" fill="#D3D4D3" points="75.089845 113.651823 85.0070179 117.239102 85.0070179 56.3994332 94.437689 54.6411294 75.089845 44.7651343 75.089845 113.651823"></polyline>
                        <path d="M165.9232,30.7637213 L164.862187,30.7637213 L164.862187,33.8581853 L164.747228,33.8581853 L163.773847,31.6928143 L163.030385,31.6928143 L162.046639,33.8957824 L161.904354,33.8957824 L161.904354,30.7637213 L160.897994,30.7637213 L160.897994,34.7213183 L162.620491,34.7213183 L163.418606,32.786713 L164.249701,34.7213183 L165.9232,34.7213183 L165.9232,30.7637213 Z M160.26949,33.8637447 L159.137805,33.8637447 L159.137805,30.7637213 L158.072081,30.7637213 L158.072081,33.8637447 L156.940397,33.8637447 L156.940397,34.7213183 L160.26949,34.7213183 L160.26949,33.8637447 L160.26949,33.8637447 Z" id="path50" fill="#D3D4D3"></path>
                        <path d="M156.279855,78.1142972 C153.310715,73.1533551 150.130503,68.3608935 146.7477,63.836135 L146.751469,95.0718469 L155.944401,95.0718469 L156.279855,78.1142972" id="path52" fill="#223C6F"></path>
                        <path d="M164.382564,131.101057 L177.300349,131.101057 C175.814365,123.848289 173.690455,116.436275 171.011539,109.063837 L164.916839,109.063837 L164.382564,131.101057" id="path54" fill="#223C6F"></path>
                        <polyline id="path56" fill="#223C6F" points="155.231092 131.101057 155.667369 109.063837 146.753353 109.063837 146.75618 131.101057 155.231092 131.101057"></polyline>
                        <path d="M155.035096,141.014837 L155.231092,131.101057 L146.75618,131.101057 L146.757122,143.398819 C149.537805,142.668548 152.296816,141.871375 155.035096,141.014837" id="path58" fill="#C31E25"></path>
                        <path d="M164.217664,137.862894 C168.740632,136.177146 173.193871,134.324614 177.551939,132.28174 C177.474672,131.889749 177.381385,131.49399 177.300349,131.101057 L164.382564,131.101057 L164.217664,137.862894" id="path60" fill="#C31E25"></path>
                        <path d="M164.217664,137.862894 L164.382564,131.101057 L155.231092,131.101057 L155.035096,141.014837 C158.127676,140.047111 161.188217,138.991752 164.217664,137.862894" id="path62" fill="#FFFFFF"></path>
                        <path d="M164.916839,109.063837 L171.011539,109.063837 C169.30883,104.376911 167.380915,99.7116583 165.25512,95.1123651 L164.916839,109.063837" id="path64" fill="#C31E25"></path>
                        <polyline id="path66" fill="#C31E25" points="155.944401 95.0718469 146.751469 95.0718469 146.753353 109.063837 155.667369 109.063837 155.944401 95.0718469"></polyline>
                        <path d="M165.25512,95.1123651 C165.248524,95.0982308 165.24287,95.0850388 165.236274,95.0718469 L155.944401,95.0718469 L155.667369,109.063837 L164.916839,109.063837 L165.25512,95.1123651" id="path68" fill="#FFFFFF"></path>
                        <path d="M6.76641679,139.727676 C6.76641679,139.727676 26.9990099,151.208477 53.4099398,157.423789 L53.1268774,148.930032 C53.1268774,148.930032 35.6573843,144.966781 15.7346521,135.147229 C15.7346521,135.147229 20.364758,96.2148386 50.1048751,58.2409408 L49.6959234,45.9769129 C49.6959234,45.9769129 13.9881269,83.2836728 6.76641679,139.727676" id="path70" fill="#C31E25"></path>
                        <path d="M192.720843,139.727676 C192.720843,139.727676 172.488099,151.208477 146.076793,157.423789 L146.36042,148.930032 C146.36042,148.930032 163.829442,144.966781 183.752174,135.147229 C183.752174,135.147229 179.122728,96.2148386 149.382328,58.2409408 L149.79128,45.9769129 C149.79128,45.9769129 185.499171,83.2836728 192.720843,139.727676" id="path72" fill="#C31E25"></path>
                    </g>
                </g>
            </g>
        </g>
    </g>
</svg>