<?xml version="1.0" encoding="UTF-8"?>
<svg width="200px" height="200px" viewBox="0 0 200 200" version="1.1" xmlns="http://www.w3.org/2000/svg" xmlns:xlink="http://www.w3.org/1999/xlink">
    <!-- Generator: Sketch 54.1 (76490) - https://sketchapp.com -->
    <title>rider</title>
    <desc>Created with Sketch.</desc>
    <g id="rider" stroke="none" stroke-width="1" fill="none" fill-rule="evenodd">
        <g id="rider_BGL">
            <g id="rider" transform="translate(0.000000, 39.000000)">
                <g id="g10" transform="translate(99.948157, 60.798343) scale(-1, 1) rotate(-180.000000) translate(-99.948157, -60.798343) translate(0.000000, 0.248837)" fill-rule="nonzero">
                    <g id="g12" transform="translate(0.000000, 0.373250)">
                        <path d="M195.801343,46.8769299 C197.278585,49.0766188 198.683665,51.7897343 199.289575,53.7584227 C199.657434,54.9548975 199.843645,56.1530313 199.843645,57.3221344 C199.843645,59.707619 199.055672,61.8148248 197.624049,63.2580596 C195.231514,65.6721601 192.406838,66.0035235 189.711141,66.0035235 L169.306372,66.0035235 C169.710727,66.5998947 169.925138,67.0934146 170.010571,67.3194384 C171.017103,69.6995317 170.942453,70.0574373 170.862411,70.4356644 C170.70067,71.2016571 170.10886,71.6022792 169.608705,71.9199567 C169.512904,72.6718489 169.281903,73.4245705 168.927316,74.1366493 C169.030996,74.5638136 169.088643,75.0556746 169.139654,75.5881785 L169.131774,75.5251407 C169.221769,76.179573 169.243334,76.81949 169.195641,77.4303765 C169.033485,79.4878155 168.121095,80.8626211 167.383718,81.6539119 C165.942557,83.1979243 163.897974,83.9726262 161.308446,83.9630876 C160.174594,84.2811799 156.352096,85.5626728 155.148156,88.6125431 C155.147326,88.6137873 154.975631,89.0484166 154.975631,89.0484166 L154.896004,89.248313 L154.764123,89.4171051 L154.47672,89.7857935 C154.179778,90.1640206 153.133848,91.3513715 151.134055,92.256711 C150.480452,94.83753 148.467803,99.3820608 142.339862,100.692584 C142.339447,100.693414 142.142039,100.734886 142.142039,100.734886 L142.051215,100.753963 L141.958317,100.762258 L141.740587,100.78175 C141.171173,100.829858 139.591909,101.122652 138.222495,101.843025 L138.562153,102.308758 L139.593154,103.723792 C139.593983,103.724207 138.034211,104.51923 138.034211,104.51923 C137.904818,104.587245 134.717674,106.292584 134.61192,109.779987 C134.609846,109.846343 134.60487,109.90938 134.601967,109.949608 C134.601137,109.957903 134.600308,109.970345 134.599478,109.973248 C134.600308,109.9691 134.139966,117.280246 134.139966,117.280246 L133.927213,120.663553 L131.574906,118.222081 L126.492895,112.946394 C126.257332,112.700878 125.351163,111.707203 124.430064,110.004767 C124.006632,110.981438 123.627161,112.188281 123.440536,113.626954 L123.155622,115.820007 L121.227991,114.737167 C120.947224,114.579157 118.64261,113.166197 117.390562,108.787141 C106.497457,109.356555 100.164228,106.624362 99.8905107,106.503263 C99.8888518,106.501604 92.5134243,103.231931 92.5134243,103.231931 L89.0990128,101.719023 L92.6162755,100.460754 L94.0777581,99.939448 C85.988593,98.1855859 81.0405371,94.7815425 80.7892152,94.6057001 C80.7900446,94.6057001 75.2945549,90.7657831 75.2945549,90.7657831 L72.7502315,88.9878671 L75.7271106,88.110314 L79.1879711,87.0896816 C74.0636581,84.775944 69.3781216,81.7886968 64.6925852,77.8654206 C62.9772924,76.4304802 61.5568673,74.5642283 60.4595112,72.3122844 C59.5309472,72.3529272 58.6168985,72.3744927 57.7310509,72.3744927 C40.0445402,72.3744927 25.3960802,67.6881269 12.9487607,58.0470696 L10.1728561,55.8979768 C10.1782061,55.8963179 13.6521718,55.3886974 13.6521718,55.3886974 L15.2770136,55.1510613 C13.716122,52.8140992 12.893022,50.3133217 12.893022,47.8660434 C12.893022,46.5318806 13.1350541,45.2362871 13.612151,44.0161731 C15.0665833,40.2982261 18.444126,37.718195 22.8802068,36.9385164 C24.3106681,36.6959866 25.8140377,36.5987757 27.3743072,36.6444781 C25.9465831,33.9126586 24.0004556,30.1441983 23.2201135,28.5661372 C17.0719747,16.1398441 11.868035,9.26581625 4.0179491,3.20243849 L0,0.0999547927 L5.05816473,0.534117146 C10.7309484,1.02060754 30.1735192,3.31065207 42.171072,12.3491962 C42.3203722,12.4669359 45.1073084,14.6330738 47.5238972,16.706687 C60.018661,4.00579772 75.4878156,1.01153341 83.7279398,0.36790419 C95.9796762,-0.590171058 108.500982,0.56862207 119.938618,3.71922023 C126.330323,5.47885938 132.21897,7.84812837 137.001137,10.5294347 L147.537995,10.5294347 L149.738514,14.6758317 L174.79647,14.6758317 C175.48574,14.6758317 176.91985,14.6758317 178.779467,15.2987451 C182.821354,16.6245304 185.172002,19.9576978 185.823531,20.9974489 C185.823531,20.9974489 188.690094,26.2391284 191.683147,31.8549292 L199.864795,46.8748563 L195.801343,46.8769299" id="path14" fill="#FFFFFF"></path>
                        <path d="M198.350643,57.3221344 C198.350643,59.2812842 197.736854,61.0247782 196.564433,62.2067377 C194.456397,64.3338501 191.921613,64.5117661 189.711556,64.5117661 L165.050903,64.5117661 C166.755828,65.180299 168.06801,66.3411077 168.627886,67.8822171 C168.627886,67.8822171 169.460649,69.8484171 169.402173,70.1271107 C169.343282,70.4041455 168.732811,70.6633471 168.166714,71.0892673 C168.1663,71.2232227 168.1663,71.3580075 168.155517,71.4882305 C168.081696,72.4230153 167.749503,73.2889562 167.27672,74.0284067 C167.300359,74.0367011 168.750229,77.9960582 166.291753,80.637012 C165.105232,81.9073074 163.359249,82.5177792 161.110623,82.4696713 C156.469462,83.7179865 154.302122,86.3510606 153.587554,88.4997386 C153.587554,88.4997386 152.501811,90.1851714 149.844268,91.1746996 C148.740276,97.2122319 143.844475,99.0623096 141.205181,99.3414179 C139.095072,99.5649534 136.732812,100.885845 136.108239,101.476825 C136.624569,102.185586 137.35614,103.189215 137.35614,103.189215 C137.35614,103.189215 133.254947,105.279002 133.119748,109.734782 C133.118089,109.781231 133.113112,109.826851 133.110209,109.875788 L132.650282,117.185274 L127.568271,111.909588 C127.310313,111.641262 125.684186,109.862102 124.620007,106.71809 C123.733745,107.878069 122.390044,110.117571 121.959561,113.435352 C121.959561,113.435352 119.563709,112.089163 118.539344,107.221978 C107.261376,108.055155 100.807048,105.275684 100.494347,105.137996 L93.1180899,101.867908 C93.1180899,101.867908 99.314461,99.6532894 100.204041,99.3356118 C89.0529786,98.4543262 82.0246739,93.6489349 81.6452027,93.3822683 L76.1492983,89.5419366 L82.5799876,87.6458247 C82.9047154,87.549609 83.2680124,87.4339014 83.6483131,87.3086552 C75.8494538,84.4159647 70.1573855,80.4931032 65.6510092,76.7203713 C63.6653172,75.0577483 62.3149803,72.9219266 61.3967844,70.7720045 C60.189112,70.8437515 58.9656802,70.8810765 57.7314656,70.8810765 C39.3975314,70.8810765 25.2315183,65.6725748 13.8629338,56.8671836 C15.2818659,56.6652137 16.691757,56.4590966 18.0182473,56.259615 C17.6940587,55.887194 17.3827264,55.5126995 17.0976045,55.1344724 C15.3277342,52.8132698 14.3865212,50.2938297 14.3865212,47.8660434 C14.3865212,46.7189206 14.5935507,45.6070491 15.0029234,44.5602892 C16.2631411,41.3387652 19.2279104,39.0963598 23.1382887,38.4099524 C25.277511,38.0465724 27.6017411,38.0420519 29.9593564,38.3530939 C28.8515908,36.2741308 25.6091233,30.0291543 24.558382,27.9037007 C18.5113526,15.6818659 13.3085326,8.49273177 4.9305131,2.02177289 C13.6296523,2.76778842 30.7615544,5.6240123 41.272534,13.5423117 C41.272534,13.5423117 45.0475883,16.4735714 47.6143067,18.7696004 C58.4659394,7.12447883 72.601346,2.73506266 83.8440622,1.8575054 C110.239085,-0.206875267 133.045512,7.95392411 142.639291,16.1688332 L174.796885,16.1688332 C175.406527,16.1688332 176.675994,16.1688332 178.305439,16.71494 C181.915185,17.8995123 184.018243,20.9198543 184.576875,21.8173141 L197.355309,45.3826842 L192.771379,45.3851725 C194.705231,47.4600299 197.078274,51.6499728 197.862929,54.1992729 C198.19056,55.2651101 198.350643,56.3218234 198.350643,57.3221344" id="path16" fill="#231F20"></path>
                        <path d="M137.590873,92.1799873 C137.632345,92.3504383 137.731878,92.5001532 137.866663,92.6142019 C136.971692,92.8472761 136.377394,92.87133 136.377394,92.87133 C136.272469,92.6610656 136.251733,92.3906664 136.319748,92.1165348 C136.551578,92.1115581 136.994087,92.0883336 137.569722,91.9908738 C137.569722,92.0522528 137.575113,92.1144611 137.590873,92.1799873" id="path18" fill="#ABAAAA"></path>
                        <path d="M140.432967,91.5587328 C140.109069,91.7461874 139.790147,91.9070998 139.482008,92.0456172 C139.482423,91.9842382 139.476202,91.9212004 139.460442,91.8577478 C139.431412,91.7391372 139.374595,91.631724 139.298286,91.5388261 C139.52348,91.4583699 139.754066,91.3687898 139.990043,91.2651092 C140.268322,91.4218743 140.432967,91.5587328 140.432967,91.5587328" id="path20" fill="#ABAAAA"></path>
                        <path d="M129.254948,108.860132 C128.331775,105.505026 130.314979,101.705752 131.38994,99.8660421 C132.517571,97.9359229 136.616274,97.3005678 136.616274,97.3005678 C136.616274,97.3005678 136.630375,97.3217187 136.650282,97.3561406 C135.271744,97.9869338 133.855881,98.9200597 132.809121,100.299013 C132.809121,100.299013 132.507202,102.010988 132.985378,102.669152 C132.985378,102.669152 130.187244,104.982061 129.891547,109.672988 C129.891547,109.672988 129.626124,109.394295 129.254948,108.860132" id="path22" fill="#706D6E"></path>
                        <path d="M164.833588,70.4555711 C165.372313,71.9917037 163.846134,73.0554673 163.846134,73.0554673 C164.230582,72.1381008 163.033692,71.2252963 163.033692,71.2252963 C160.576046,73.1151874 161.288539,75.0793138 161.288539,75.0793138 C162.947015,75.3447363 164.459094,76.1663019 164.459094,76.1663019 C164.904506,79.4115066 161.881178,79.310729 160.772624,79.2364936 C160.772624,79.2364936 153.19813,80.7062707 150.76039,86.8806614 C150.76039,86.8806614 149.77418,88.1331238 147.182163,88.5420403 C149.109379,88.0957987 150.608602,85.2736111 150.608602,85.2736111 C151.927834,80.9364417 155.367544,78.6562966 157.675061,77.5780178 C157.731878,77.8139949 157.802381,78.0599255 157.891131,78.3174682 C157.891131,78.3174682 158.491235,77.3154983 161.354895,76.7834092 C161.354895,76.7834092 161.22011,76.3608068 160.491857,75.9734559 C160.491857,75.9734559 157.28688,76.4773439 159.597715,72.6370122 C159.597715,72.6370122 159.427679,72.707515 159.185481,72.8667685 C159.772728,71.7474321 160.613371,70.8649023 160.613371,70.8649023 C158.395019,69.7733523 154.898078,70.4091221 153.543179,70.7197494 C156.360805,69.509174 160.175424,69.4921704 160.175424,69.4921704 C161.079104,68.8526681 161.66884,67.1083446 161.66884,67.1083446 C164.904921,67.0809729 165.596678,68.9845499 165.596678,68.9845499 C164.792946,69.5875566 164.833588,70.4555711 164.833588,70.4555711" id="path24" fill="#706D6E"></path>
                        <path d="M153.045512,70.5675462 C153.203936,69.877033 153.617829,68.0352497 153.994397,66.0935183 C156.130634,65.9114551 158.08688,66.2664576 158.08688,66.2664576 C158.754999,66.5161207 159.302847,67.4368049 159.302847,67.4368049 L158.937477,68.0406411 C155.917881,68.0912373 153.969099,69.6203197 153.045512,70.5675462" id="path26" fill="#706D6E"></path>
                        <path d="M155.215341,77.4473801 C155.215341,77.4473801 148.603832,80.0174164 145.354895,83.6516309 C145.354895,83.6516309 143.865212,86.7479501 140.680556,87.4869859 C140.680556,87.4869859 142.077757,85.3553115 142.015549,83.8788989 C142.015549,83.8788989 138.472988,82.2585775 135.041158,83.6698787 C135.041158,83.6698787 139.272988,80.204871 144.345875,82.561325 C144.345875,82.561325 148.697975,78.7222375 152.740691,77.2524605 C152.740691,77.2524605 152.663967,73.4942439 156.445823,72.4777587 C156.445823,72.4777587 154.02094,74.774078 155.215341,77.4473801" id="path28" fill="#706D6E"></path>
                        <path d="M133.702018,90.7193342 C133.702018,90.7193342 130.202174,95.1025378 126.177291,95.8822164 C126.177291,95.8822164 129.853807,92.874233 131.683149,90.1731445 C131.683149,90.1731445 131.440121,86.1839273 136.619592,84.4213561 C136.619592,84.4213561 133.152096,86.8487277 133.702018,90.7193342" id="path30" fill="#706D6E"></path>
                        <path d="M136.319748,92.1165348 C136.551578,92.1115581 136.994087,92.0883336 137.569722,91.9908738 C137.575528,91.6080848 137.87952,91.2705006 138.323273,91.195021 C138.704403,91.1311538 139.081801,91.2754772 139.298286,91.5388261 C139.52348,91.4583699 139.753651,91.3687898 139.989628,91.2651092 C139.521821,91.0013456 138.735507,90.6919625 137.862101,90.8412626 C136.722443,91.0374264 136.393568,91.8453062 136.319748,92.1165348" id="path32" fill="#FFFFFF"></path>
                        <path d="M138.009743,91.6449951 C138.009743,91.6449951 138.960702,91.335612 139.199997,92.2724705 L138.471744,92.5279396 C138.471744,92.5279396 138.725969,91.9722113 138.009743,91.6449951" id="path34" fill="#751321"></path>
                        <path d="M94.7811277,64.4682203 C94.7811277,64.4682203 104.404352,73.6613771 120.015342,81.656815 C120.015342,81.656815 120.015756,81.656815 120.016171,81.656815 C119.925347,82.7599772 119.932812,83.7432846 120.00373,84.612958 C106.940381,76.9849644 94.7811277,64.4682203 94.7811277,64.4682203" id="path36" fill="#706D6E"></path>
                        <path d="M131.439292,102.027162 C129.093206,104.166301 129.45277,106.135819 129.45277,106.135819 C129.330842,105.981542 129.223429,105.8198 129.125554,105.653497 C127.955621,103.664072 128.376565,100.914046 128.376565,100.914046 C128.728664,102.946602 129.249971,103.598546 129.249971,103.598546 C129.680453,101.718608 131.38994,99.8660421 131.38994,99.8660421 C130.945772,101.05837 131.439292,102.027162 131.439292,102.027162" id="path38" fill="#C4C3C3"></path>
                        <path d="M113.46936,95.9257622 C113.46936,95.9257622 113.279417,98.4543262 111.632553,100.640744 C111.632553,100.640744 115.451734,101.989007 122.907617,101.387659 C122.907617,101.387659 116.314357,103.824155 106.501604,101.753445 C106.501604,101.753445 110.915083,99.8179343 113.46936,95.9257622" id="path40" fill="#C4C3C3"></path>
                        <path d="M94.4775508,91.4098474 C94.4775508,91.4098474 101.052978,93.306374 107.870604,93.3607027 C107.870604,93.3607027 98.6874003,95.8133724 89.2230149,91.3219262 C89.2230149,91.3219262 93.8927918,89.7235851 96.9745958,87.732087 C96.9745958,87.732087 96.032346,90.3888002 94.4775508,91.4098474" id="path42" fill="#C4C3C3"></path>
                        <path d="M92.3612211,83.7706563 C92.3612211,83.7706563 75.6226005,81.4896817 69.2209418,71.6462398 C69.2209418,71.6462398 72.1119733,73.3801952 77.0102625,73.2723673 C77.0102625,73.2723673 75.8195937,74.3162242 74.3017089,74.4920666 C74.3017089,74.4920666 81.091548,81.4195936 92.3612211,83.7706563" id="path44" fill="#C4C3C3"></path>
                        <path d="M88.5511642,76.8705009 C88.5511642,76.8705009 80.9430773,73.4755814 78.2730929,66.8698791 C79.2937253,66.390045 80.246758,65.8724711 81.1272141,65.3192311 C81.6962136,66.8702938 83.914565,72.3044046 88.5511642,76.8705009" id="path46" fill="#C4C3C3"></path>
                        <path d="M86.5314649,66.5285624 C86.5314649,66.5285624 84.2222892,66.8611699 81.3926366,65.1487801 C82.0064262,64.7518906 82.585379,64.3371679 83.126592,63.9050269 C84.1115583,64.7888009 85.2449953,65.6854312 86.5314649,66.5285624" id="path48" fill="#C4C3C3"></path>
                        <path d="M89.1247256,58.9474324 L89.4643835,59.5695164 C88.6469651,60.0489358 87.6835644,60.4723676 86.6189714,60.6730934 C86.6189714,60.6730934 88.0199045,60.0360794 89.1247256,58.9474324" id="path50" fill="#C4C3C3"></path>
                        <path d="M88.3832015,64.5503353 C88.3832015,64.5503353 89.4735074,63.127422 90.4933103,61.4527719 L90.8964207,62.1905635 C90.2245701,63.0896822 89.3988573,63.9062711 88.3832015,64.5503353" id="path52" fill="#C4C3C3"></path>
                        <path d="M69.0019682,69.8115068 C69.8285104,69.6476914 70.6397079,69.464384 71.4322429,69.2636582 C71.9664057,69.7165353 72.4984948,70.1544824 73.0193865,70.5837204 C73.0193865,70.5837204 71.3327095,70.4700864 69.0019682,69.8115068" id="path54" fill="#C4C3C3"></path>
                        <path d="M107.231102,62.216691 L108.488541,64.5117661 L112.509691,64.5117661 C112.649038,67.0971471 113.360287,68.8792103 113.360287,68.8792103 C111.202071,67.7233783 108.739862,65.5759444 106.352719,63.1406931 C106.676203,62.8711234 106.970241,62.5646433 107.231102,62.216691" id="path56" fill="#ABAAAA"></path>
                        <path d="M103.097561,64.4495577 C109.357799,72.514669 117.448623,78.8719524 120.095798,80.8547414 C120.063035,81.128873 120.036493,81.3955397 120.015342,81.656815 C105.011921,73.9715896 95.5417291,65.1836168 94.8263325,64.5117661 L102.035042,64.5117661 C102.404145,64.5117661 102.757074,64.4897858 103.097561,64.4495577" id="path58" fill="#ABAAAA"></path>
                        <path d="M92.3612211,83.7706563 C81.091548,81.4195936 74.3017089,74.4920666 74.3017089,74.4920666 C75.8195937,74.3162242 77.0102625,73.2723673 77.0102625,73.2723673 C72.1119733,73.3801952 69.2209418,71.6462398 69.2209418,71.6462398 C75.6226005,81.4896817 92.3612211,83.7706563 92.3612211,83.7706563 Z M89.2230149,91.3219262 C98.6874003,95.8133724 107.870604,93.3607027 107.870604,93.3607027 C101.052978,93.306374 94.4775508,91.4098474 94.4775508,91.4098474 C96.032346,90.3888002 96.9745958,87.732087 96.9745958,87.732087 C93.8927918,89.7235851 89.2230149,91.3219262 89.2230149,91.3219262 Z M106.501604,101.753445 C116.314357,103.824155 122.907617,101.387659 122.907617,101.387659 C115.451734,101.989007 111.632553,100.640744 111.632553,100.640744 C113.279417,98.4543262 113.46936,95.9257622 113.46936,95.9257622 C110.915083,99.8179343 106.501604,101.753445 106.501604,101.753445 L106.501604,101.753445 Z M133.702018,90.7193342 C133.152096,86.8487277 136.619592,84.4213561 136.619592,84.4213561 C131.440121,86.1839273 131.683149,90.1731445 131.683149,90.1731445 C129.853807,92.874233 126.177291,95.8822164 126.177291,95.8822164 C130.202174,95.1025378 133.702018,90.7193342 133.702018,90.7193342 Z M132.580608,96.2687379 C135.356347,93.3723149 138.755414,93.9881781 138.755414,93.9881781 C143.65868,92.7182973 144.568996,88.4076702 144.568996,88.4076702 C143.204973,90.2191787 142.157798,90.1287691 142.157798,90.1287691 C140.360805,89.1997904 138.088125,88.4263327 136.111972,89.8280952 C134.135818,91.2298578 134.755829,93.0231185 134.755829,93.0231185 C132.329286,94.4041449 132.580608,96.2687379 132.580608,96.2687379 L132.580608,96.2687379 Z M145.354895,83.6516309 C148.603832,80.0174164 155.215341,77.4473801 155.215341,77.4473801 C154.02094,74.774078 156.445823,72.4777587 156.445823,72.4777587 C152.663967,73.4942439 152.740691,77.2524605 152.740691,77.2524605 C148.697975,78.7222375 144.345875,82.561325 144.345875,82.561325 C139.272988,80.204871 135.041158,83.6698787 135.041158,83.6698787 C138.472988,82.2585775 142.015549,83.8788989 142.015549,83.8788989 C142.077757,85.3553115 140.680556,87.4869859 140.680556,87.4869859 C143.865212,86.7479501 145.354895,83.6516309 145.354895,83.6516309 L145.354895,83.6516309 Z M73.0193865,70.5837204 C72.4984948,70.1544824 71.9664057,69.7165353 71.4322429,69.2636582 C73.8086036,68.6627251 76.0219784,67.9029532 78.0076704,66.9947106 C78.0972505,66.9532383 78.1843423,66.9109366 78.2730929,66.8698791 C80.9430773,73.4755814 88.5511642,76.8705009 88.5511642,76.8705009 C83.914565,72.3044046 81.6962136,66.8702938 81.1272141,65.3192311 C81.2163795,65.2624141 81.3047154,65.2064266 81.3926366,65.1487801 C84.2222892,66.8611699 86.5314649,66.5285624 86.5314649,66.5285624 C85.2449953,65.6854312 84.1115583,64.7888009 83.126592,63.9050269 C85.4565038,62.0470695 87.1054411,59.8805584 88.008707,57.4917559 C88.1173643,57.4925854 88.2235333,57.4909265 88.327214,57.4884382 L89.1247256,58.9474324 C88.0199045,60.0360794 86.6189714,60.6730934 86.6189714,60.6730934 C87.6835644,60.4723676 88.6469651,60.0489358 89.4643835,59.5695164 L90.4933103,61.4527719 C89.4735074,63.127422 88.3832015,64.5503353 88.3832015,64.5503353 C89.3988573,63.9062711 90.2245701,63.0896822 90.8964207,62.1905635 L92.1642279,64.5117661 L94.8055964,64.5117661 C101.629857,77.0355605 119.502745,88.0447878 121.198545,89.0703969 C121.539862,89.7111434 121.816897,90.0134762 121.816897,90.0134762 C121.816897,90.0134762 120.311868,84.0219782 122.713113,79.5218228 C122.713113,79.5218228 129.843024,71.2651097 138.815963,74.0806617 C138.815963,74.0806617 144.691339,71.3492984 148.950955,71.7988577 C151.018348,69.830584 152.071743,66.424467 152.071743,66.424467 C152.749815,66.2088112 153.994397,66.0935183 153.994397,66.0935183 C153.617829,68.0352497 153.203936,69.877033 153.045512,70.5675462 C152.764745,70.8333834 152.421354,71.3082408 152.421354,71.3082408 C152.768063,71.08512 153.147948,70.8906151 153.548156,70.71892 C154.906787,70.407878 158.397508,69.7745965 160.613371,70.8649023 C160.613371,70.8649023 159.772728,71.7474321 159.185481,72.8667685 C158.435247,73.3619474 156.985792,74.720164 157.675061,77.5780178 C155.367544,78.6562966 151.927834,80.9364417 150.608602,85.2736111 C150.608602,85.2736111 149.109379,88.0957987 147.182163,88.5420403 C147.182163,88.5420403 146.886881,88.5860009 146.785688,88.5988573 C146.785688,88.5988573 147.375424,94.7914958 141.353236,96.0796243 C141.353236,96.0796243 139.05982,96.2533931 136.649867,97.3557259 C136.630375,97.3208892 136.616274,97.3005678 136.616274,97.3005678 C136.616274,97.3005678 132.517571,97.9359229 131.38994,99.8660421 C131.38994,99.8660421 129.680453,101.718608 129.249971,103.598546 C129.249971,103.598546 128.728664,102.946602 128.376565,100.914046 C128.376565,100.914046 127.955621,103.664072 129.125554,105.653497 C128.961739,106.716016 128.966301,107.810054 129.254948,108.860132 C129.626124,109.394295 129.891547,109.672988 129.891547,109.672988 C129.891547,109.672988 127.029546,106.701086 126.913838,101.262413 C126.913838,101.262413 125.106477,98.2511121 117.963294,94.9569702 C117.963294,94.9569702 103.751993,88.4022788 92.2645907,74.3771884 C92.6100547,77.5369602 92.8236369,79.6354568 92.8236369,79.6354568 C97.4212521,85.2425069 110.419489,93.7928437 116.514253,96.4877114 C122.608188,99.1809203 124.288644,101.442818 124.288644,101.442818 C123.820837,102.723481 124.194917,103.271744 124.194917,103.271744 C109.857125,105.780402 101.800723,102.189318 101.800723,102.189318 C107.142351,100.280765 111.052771,95.6109878 111.052771,95.6109878 C94.5314647,98.4816979 83.4919627,90.7384114 83.4919627,90.7384114 C86.9009828,89.7331237 93.5079292,87.0444768 93.5079292,87.0444768 C73.9989613,81.830169 67.1564524,74.5119733 64.7888009,70.4734041 C66.2291326,70.3041973 67.637116,70.081906 69.0019682,69.8115068 C71.3327095,70.4700864 73.0193865,70.5837204 73.0193865,70.5837204 L73.0193865,70.5837204 Z" id="path60" fill="#ABAAAA"></path>
                        <path d="M113.360287,68.8792103 C113.360287,68.8792103 112.649038,67.0971471 112.509691,64.5117661 L113.783719,64.5117661 C115.693517,70.9967841 120.830686,74.5895264 121.413372,74.9797804 C121.448208,75.004249 121.466871,75.0150318 121.466871,75.0150318 C121.410054,75.182165 120.994087,76.5258664 120.936026,76.7323983 C114.449349,73.0654207 109.221355,68.3139433 105.242506,63.8531866 C105.645617,63.6582669 106.016794,63.4214603 106.352719,63.1406931 C108.739862,65.5759444 111.202071,67.7233783 113.360287,68.8792103" id="path62" fill="#706D6E"></path>
                        <path d="M33.8395844,48.3753228 C33.8395844,48.3753228 38.1293925,48.3761522 39.7302634,48.3778111 C39.5975936,48.209019 39.4644262,48.046033 39.3305952,47.868117 C35.540279,45.7368573 30.2525653,47.3629848 29.2484803,48.4267484 C28.4951781,49.2226012 28.5235037,49.7812326 28.666583,50.2668728 C29.6103673,53.4751671 37.5815024,57.2561935 41.6066345,58.2448923 C47.0341098,59.6798326 53.4312065,60.5018129 59.1722121,60.5018129 C59.7511649,60.4889565 60.3139435,60.4545345 60.8642805,60.4039384 C51.3335394,59.8892676 41.7725236,54.9275258 37.3393044,51.3227566 C37.3287705,51.3140474 33.8395844,48.3753228 33.8395844,48.3753228 Z M66.8138915,58.8819063 C68.2820097,58.1652655 69.4142025,57.2358721 70.099739,56.1273185 C70.5837204,55.3455663 70.8292362,54.4866757 70.8292362,53.5734564 C70.8292362,52.6842911 70.5974062,51.7399676 70.141626,50.7711755 C67.9174685,46.0425079 59.522238,40.7050275 50.1677541,39.7516631 C57.9251411,53.526178 66.3514758,58.6081893 66.4385675,58.6600296 C66.4385675,58.6600296 66.7015017,58.8147212 66.8138915,58.8819063 Z M66.0167946,59.3770851 C66.0167946,59.3770851 56.869672,54.0089152 48.6930003,38.7951882 C58.8566082,39.2999886 68.4118179,45.139242 70.8947624,50.4165876 C71.4057007,51.5035757 71.6607551,52.5640215 71.6607551,53.5734564 C71.6607551,54.6384642 71.3762553,55.6466549 70.8076706,56.566095 C69.0363902,59.4268518 64.6793141,61.2097445 59.1722121,61.3349907 C53.3623626,61.3349907 46.8926893,60.5034718 41.4087703,59.0540161 C37.2615439,58.0342132 28.9562253,54.1980287 27.8685322,50.5024352 C27.58847,49.5506468 27.8350226,48.7095892 28.6438977,47.8540164 C29.8551781,46.571694 35.6896207,44.7527205 39.8689466,47.2070491 C40.4254215,47.9485732 40.974929,48.6200092 41.5212017,49.2105742 C40.0212328,49.20933 36.1200613,49.2072564 36.1200613,49.2072564 L37.8640115,50.6770335 C42.7919118,54.6849131 55.1029535,60.9414189 66.0167946,59.3770851 L66.0167946,59.3770851 Z" id="path64" fill="#C4C3C3"></path>
                        <path d="M180.729078,23.5384131 C180.537061,23.2157174 179.482422,21.5734987 177.694552,20.9862514 C176.879208,20.7108756 176.228508,20.7108756 175.798026,20.7108756 L74.8806617,20.7108756 L80.2144096,30.7267177 L184.756035,30.7267177 C182.61026,26.8963809 180.729078,23.5384131 180.729078,23.5384131 L180.729078,23.5384131 Z M135.648727,15.7984859 C124.546601,6.99844462 66.4883343,-8.25911851 44.1219274,30.6533533 C43.1336433,28.8663134 41.8786926,26.4895794 41.8712276,26.476806 C40.2992214,23.5163913 38.7924511,20.6996781 36.6146595,18.1130115 C37.4737575,18.1130115 40.7448823,18.1130115 40.7448823,18.1130115 L38.8510929,16.6266455 C29.6304814,9.38894741 18.1546496,7.59605994 17.6707512,7.52186606 L15.3771277,7.17922222 C21.851819,13.8201344 25.6630787,21.2773867 29.6983715,29.2823217 C32.6372205,34.9786202 35.9180499,41.4171892 38.6353127,45.4635551 C35.7617409,43.5902529 29.6607561,41.2831923 23.8178947,42.2722644 C21.2864691,42.716847 19.4047896,44.0729901 18.6552199,45.9902529 C18.4226019,46.5828915 18.3083873,47.2128552 18.3083873,47.8660434 C18.3083873,49.421668 18.9609119,51.1104186 20.2293826,52.7751153 C21.8555516,54.9325025 24.3649553,57.0650063 27.4081486,58.924208 C27.3242088,58.9349908 25.1077236,59.2414708 25.1077236,59.2414708 L27.1392425,60.4557787 C27.5827883,60.7212012 38.2382572,66.9594592 57.7314656,66.9594592 C71.2294435,66.9594592 84.8945546,62.1814396 84.8945546,53.0463439 C84.8945546,49.2881273 82.6591996,45.2143068 78.6007238,41.5776039 C74.5671314,37.9641255 68.970864,34.9483039 62.3929482,32.8032755 L61.1657839,32.4230578 C62.2054935,30.4438769 63.1664059,28.804105 64.6158615,27.1751989 C79.2053894,12.140176 105.044269,10.8840225 135.648727,15.7984859 Z M131.022495,31.9100044 L79.738308,31.9100044 C78.1631914,29.0066141 73.9301174,21.2135609 73.9301174,21.2135609 C67.1419371,24.9413369 63.873508,28.9654736 62.4199051,31.9336436 L63.6814914,32.3736228 C69.9359236,34.5339131 75.2767218,37.4830058 79.1560374,40.9588792 C83.3928439,44.7560383 85.726903,49.0496618 85.726903,53.0463439 C85.726903,57.6373236 82.6127507,61.4876086 76.7216155,64.1862089 C71.6408484,66.5103146 64.896214,67.7913928 57.7314656,67.7913928 C38.0078788,67.7913928 27.1638355,61.4395008 26.711539,61.1699311 L26.7120367,61.1699311 L22.6488745,58.7400711 C22.6488745,58.7400711 25.0902223,58.4033163 25.0996365,58.4029016 C22.7911244,56.7871422 20.8953857,55.0407451 19.5656605,53.2756856 C18.1991908,51.4853279 17.4758731,49.6111963 17.4758731,47.8660434 C17.4758731,47.1058568 17.6124412,46.3722124 17.8806838,45.6858464 C18.7381644,43.4911342 20.8503468,41.9491954 23.673198,41.4523577 C28.0133948,40.7175106 32.7379981,41.7414194 36.2735087,43.2829434 C34.0529592,39.6081276 31.3358624,34.2706886 28.9597919,29.6638665 C24.8177495,21.2558211 20.0278689,11.862685 12.6688229,5.93003614 C19.4120887,7.00636582 29.8791491,8.52790025 39.364478,15.974743 L43.1518911,18.9466869 C43.1518911,18.9466869 39.4974796,18.9466869 38.322985,18.9466869 C40.029154,21.2486879 41.3385993,23.699284 42.6044572,26.0839392 C42.6065308,26.0847687 43.4504914,27.6856395 44.1215126,28.9264067 C54.706064,11.7815238 71.8320355,6.37134251 84.7726262,4.92694648 C101.248727,3.08887499 127.657436,7.38820096 139.567856,17.4664589 C121.76796,13.950067 107.448001,13.5008395 97.2893703,14.5538617 C89.7007754,15.3377705 83.0025899,17.0086465 77.3424553,19.5251835 L131.022495,19.5251835 L175.46293,19.5251835 C175.915392,19.5251835 176.75645,19.5251835 177.792842,19.8739653 C180.080037,20.6237009 181.449036,22.6774074 181.728145,23.1298698 L186.529389,31.9100044 L131.022495,31.9100044 L131.022495,31.9100044 Z" id="path66" fill="#C4C3C3"></path>
                        <path d="M183.281696,29.8360594 L179.965988,23.8212954 C179.965988,23.8212954 179.083458,22.3000928 177.620732,21.8189315 C176.970032,21.6009118 176.437943,21.6009118 176.048518,21.6009118 L76.2911334,21.6009118 L80.8228077,29.8360594 L183.281696,29.8360594 Z M74.8806617,20.7108756 L175.798026,20.7108756 C176.228508,20.7108756 176.879208,20.7108756 177.694552,20.9862514 C179.482422,21.5734987 180.537061,23.2157174 180.729078,23.5384131 C180.729078,23.5384131 182.61026,26.8963809 184.756035,30.7267177 L80.2144096,30.7267177 L74.8806617,20.7108756 L74.8806617,20.7108756 Z" id="path68" fill="#FFFFFF"></path>
                        <path d="M132.605077,14.5920992 C108.778846,3.24066762 62.7060638,-1.67428093 44.1679616,32.4296933 C43.0361835,30.4265415 41.1369197,26.8657743 41.1369197,26.8657743 C39.2787549,23.3709066 37.5695169,20.1530736 34.7443434,17.2811193 L38.3368783,17.2811193 C29.1833689,10.0952615 17.546998,8.34467579 17.546998,8.34467579 C25.5978013,15.0660857 35.8497036,43.9440113 43.6180393,50.0433373 L38.400082,50.0404342 C38.400082,50.0404342 48.64116,58.6670799 64.2450995,59.0560898 L64.206945,59.0349389 L64.2073597,59.0349389 C64.2073597,59.0349389 55.4480028,53.8409525 47.2920672,37.9144003 C57.9035755,37.9144003 68.7518905,43.9066863 71.6478987,50.0624145 C74.7272143,56.6092262 69.1595628,61.9404858 59.1722121,62.1656801 C52.8916524,62.1656801 46.3415229,61.2180389 41.2098279,59.8606517 C35.9930732,58.5779146 23.0832135,52.5250376 28.0391491,47.2829433 C29.6089158,45.6215644 33.7167851,44.6200093 36.7901287,45.4780704 C33.9236487,43.8743379 29.1990869,42.2059087 23.9618864,43.0909269 C19.6077963,43.8565049 17.3328352,47.6018651 20.8939342,52.2741304 C22.7679414,54.7603926 25.9984234,57.3441147 29.9426431,59.4139954 L27.5657847,59.742041 C27.5657847,59.742041 38.2442292,66.1271108 57.7314656,66.1271108 C71.4944513,66.1271108 84.062621,61.2437517 84.062621,53.0463439 C84.062621,45.2425079 74.1772921,37.0833376 59.8851203,32.8891231 C62.0599259,26.2825499 78.0831499,5.61202682 132.605077,14.5920992 L132.605077,14.5920992 Z M41.5212017,49.2105742 C40.974929,48.6200092 40.4254215,47.9485732 39.8689466,47.2070491 C35.6896207,44.7527205 29.8551781,46.571694 28.6438977,47.8540164 C27.8350226,48.7095892 27.58847,49.5506468 27.8685322,50.5024352 C28.9562253,54.1980287 37.2615439,58.0342132 41.4087703,59.0540161 C46.8926893,60.5034718 53.3623626,61.3349907 59.1722121,61.3349907 C64.6793141,61.2097445 69.0363902,59.4268518 70.8076706,56.566095 C71.3762553,55.6466549 71.6607551,54.6384642 71.6607551,53.5734564 C71.6607551,52.5640215 71.4057007,51.5035757 70.8947624,50.4165876 C68.4118179,45.139242 58.8566082,39.2999886 48.6930003,38.7951882 C56.869672,54.0089152 66.0167946,59.3770851 66.0167946,59.3770851 C55.1029535,60.9414189 42.7919118,54.6849131 37.8640115,50.6770335 L36.1200613,49.2072564 C36.1200613,49.2072564 40.0212328,49.20933 41.5212017,49.2105742 L41.5212017,49.2105742 Z M64.6158615,27.1751989 C63.1664059,28.804105 62.2054935,30.4438769 61.1657839,32.4230578 L62.3929482,32.8032755 C68.970864,34.9483039 74.5671314,37.9641255 78.6007238,41.5776039 C82.6591996,45.2143068 84.8945546,49.2881273 84.8945546,53.0463439 C84.8945546,62.1814396 71.2294435,66.9594592 57.7314656,66.9594592 C38.2382572,66.9594592 27.5827883,60.7212012 27.1392425,60.4557787 L25.1077236,59.2414708 C25.1077236,59.2414708 27.3242088,58.9349908 27.4081486,58.924208 C24.3649553,57.0650063 21.8555516,54.9325025 20.2293826,52.7751153 C18.9609119,51.1104186 18.3083873,49.421668 18.3083873,47.8660434 C18.3083873,47.2128552 18.4226019,46.5828915 18.6552199,45.9902529 C19.4047896,44.0729901 21.2864691,42.716847 23.8178947,42.2722644 C29.6607561,41.2831923 35.7617409,43.5902529 38.6353127,45.4635551 C35.9180499,41.4171892 32.6372205,34.9786202 29.6983715,29.2823217 C25.6630787,21.2773867 21.851819,13.8201344 15.3771277,7.17922222 L17.6707512,7.52186606 C18.1546496,7.59605994 29.6304814,9.38894741 38.8510929,16.6266455 L40.7448823,18.1130115 C40.7448823,18.1130115 37.4737575,18.1130115 36.6146595,18.1130115 C38.7924511,20.6996781 40.2992214,23.5163913 41.8712276,26.476806 C41.8786926,26.4895794 43.1336433,28.8663134 44.1219274,30.6533533 C66.4883343,-8.25911851 124.546601,6.99844462 135.648727,15.7984859 C105.044269,10.8840225 79.2053894,12.140176 64.6158615,27.1751989 L64.6158615,27.1751989 Z" id="path70" fill="#FFFFFF"></path>
                        <path d="M59.8851203,32.8891231 C74.1772921,37.0833376 84.062621,45.2425079 84.062621,53.0463439 C84.062621,61.2437517 71.4944513,66.1271108 57.7314656,66.1271108 C38.2442292,66.1271108 27.5657847,59.742041 27.5657847,59.742041 L29.9426431,59.4139954 C25.9984234,57.3441147 22.7679414,54.7603926 20.8939342,52.2741304 C17.3328352,47.6018651 19.6077963,43.8565049 23.9618864,43.0909269 C29.1990869,42.2059087 33.9236487,43.8743379 36.7901287,45.4780704 C33.7167851,44.6200093 29.6089158,45.6215644 28.0391491,47.2829433 C23.0832135,52.5250376 35.9930732,58.5779146 41.2098279,59.8606517 C46.3415229,61.2180389 52.8916524,62.1656801 59.1722121,62.1656801 C69.1595628,61.9404858 74.7272143,56.6092262 71.6478987,50.0624145 C68.7518905,43.9066863 57.9035755,37.9144003 47.2920672,37.9144003 C55.4480028,53.8409525 64.2073597,59.0349389 64.2073597,59.0349389 L64.206945,59.0349389 L64.2450995,59.0560898 C48.64116,58.6670799 38.400082,50.0404342 38.400082,50.0404342 L43.6180393,50.0433373 C35.8497036,43.9440113 25.5978013,15.0660857 17.546998,8.34467579 C17.546998,8.34467579 29.1833689,10.0952615 38.3368783,17.2811193 L34.7443434,17.2811193 C37.5695169,20.1530736 39.2787549,23.3709066 41.1369197,26.8657743 C41.1369197,26.8657743 43.0361835,30.4265415 44.1679616,32.4296933 C62.7060638,-1.67428093 108.778846,3.24066762 132.605077,14.5920992 C78.0831499,5.61202682 62.0599259,26.2825499 59.8851203,32.8891231" id="path72" fill="#A80C30"></path>
                        <path d="M179.311556,53.4482102 L183.299529,53.4482102 C183.044889,52.916121 182.70772,52.4130625 182.400825,52.1269038 C182.058679,51.8283035 181.721094,51.6561936 181.03929,51.6561936 L178.351473,51.6561936 C178.69196,52.2907193 179.041986,52.9451516 179.311556,53.4482102 L179.311556,53.4482102 Z M190.02633,47.0299625 C191.236076,47.9104187 194.066558,52.370346 194.909689,55.1075155 C195.532603,57.1338503 195.318606,59.0747523 194.37055,60.030688 C193.181955,61.2292364 191.720472,61.4220824 189.710726,61.4220824 L170.632655,61.4220824 L168.548674,57.615758 L169.901084,57.3557269 C168.978741,55.6350427 159.595641,38.1420001 159.595641,38.1420001 C159.411919,37.7961214 159.251836,37.4975626 159.15645,37.1878062 C158.810157,36.0614195 159.201655,35.2945144 159.465833,34.9361526 C160.267492,33.8496207 161.738099,33.8496207 162.22125,33.8496207 L170.258161,33.8496207 L172.342557,37.653913 L170.991805,37.9147321 C170.991805,37.9147321 175.013785,45.4042498 175.047378,45.4668729 L178.557175,36.5341619 C179.871846,33.8496207 182.499944,33.8496207 183.911659,33.8496207 L184.718295,33.8496207 C187.164744,33.8496207 188.033588,34.6923786 189.05505,36.5838871 C189.052976,36.5801546 192.159249,42.2946594 192.159249,42.2946594 C192.159249,42.2946594 187.598544,42.2963183 187.536335,42.2983919 C187.445511,42.5186096 186.609016,44.8091228 186.609016,44.8091228 C187.874749,45.2856391 188.816999,46.1507505 190.02633,47.0299625 L190.02633,47.0299625 Z" id="path74" fill="#C4C3C3"></path>
                        <path d="M104.764331,60.3554158 C104.058059,61.3113515 102.868219,61.4220824 102.035042,61.4220824 L93.9968872,61.4220824 L91.9178826,57.615758 L93.2702932,57.3544828 C92.3525119,55.6391899 83.069775,38.2850379 83.0652131,38.2780706 C82.9407963,38.0420519 82.713943,37.5863547 82.5911851,37.1860229 C82.2606511,36.1069561 82.5758403,35.3596259 82.8989093,34.9233791 C83.691859,33.8496207 85.1454618,33.8496207 85.6223929,33.8496207 L93.6613766,33.8496207 L95.7391371,37.6555304 L94.3867265,37.9165154 C95.3028488,39.6309788 104.587659,56.9853796 104.587659,56.9853796 C104.822807,57.430377 104.968789,57.7679612 105.066249,58.0868829 C105.398857,59.1730415 105.086156,59.9195423 104.764331,60.3554158" id="path76" fill="#C4C3C3"></path>
                        <path d="M116.481905,42.5169507 C116.252563,42.3440114 116.153859,42.2946594 114.620215,42.2946594 L113.031412,42.2946594 L118.88937,53.2226011 C120.087503,53.2143066 121.995642,53.200206 122.637218,53.1968883 C122.396679,52.5432854 121.796575,51.180092 120.304403,48.4176245 C119.058577,46.0943483 117.500878,43.3298071 116.481905,42.5169507 Z M134.403729,59.4956958 C133.258265,61.2678056 131.353859,61.4220824 128.815756,61.4220824 L110.319541,61.4220824 L108.233901,57.615758 L109.586311,57.3557269 C108.663968,55.6342132 99.2812832,38.1420001 99.2812832,38.1420001 C99.0959021,37.7961214 98.9370634,37.4975626 98.8420919,37.1889674 C98.4953837,36.0614195 98.8868819,35.2945144 99.1510602,34.9361526 C99.9531338,33.8496207 101.422911,33.8496207 101.906892,33.8496207 L116.394398,33.8496207 C119.088022,33.8496207 120.680557,34.2108856 122.480453,35.229403 L122.492065,35.2352091 L122.502433,35.2423423 C124.972936,36.6888534 126.815134,38.8922333 129.541521,43.6615852 C132.071329,48.0364944 133.756762,51.559978 134.547223,54.1266964 C135.572418,57.4623106 134.80601,58.8740265 134.403729,59.4956958 L134.403729,59.4956958 Z" id="path78" fill="#C4C3C3"></path>
                        <path d="M140.906165,61.4220824 L138.820525,57.615758 L140.174595,57.3557269 C139.251422,55.6342132 129.945461,38.2868212 129.945461,38.2868212 L129.958317,38.3108337 C129.752615,37.9412743 129.563916,37.5071427 129.454014,37.1525133 C129.112283,36.0393978 129.500463,35.2782988 129.762568,34.9262822 C130.555932,33.8496207 132.014927,33.8496207 132.494761,33.8496207 L150.977705,33.8496207 C153.428301,33.8496207 154.525242,34.5083247 155.668218,36.6681173 C155.6649,36.6606523 159.463345,43.7474328 159.463345,43.7474328 L154.718503,43.7474328 L154.221251,42.9723162 C153.811919,42.3332286 153.787451,42.2946594 152.251733,42.2946594 L143.61389,42.2946594 L144.409328,43.6823214 L151.786414,43.6823214 C154.244475,43.6823214 155.285844,44.3056495 156.428405,46.4601336 L159.363397,51.8735083 L148.807876,51.8735083 L149.588799,53.4482102 L159.947741,53.4482102 C162.380089,53.4482102 163.428923,54.0744414 164.624983,56.2409525 L164.62913,56.2488322 L164.633277,56.2575414 L167.409016,61.4220824 L140.906165,61.4220824" id="path80" fill="#C4C3C3"></path>
                        <path d="M178.806838,54.2884382 L183.466247,54.2884382 C184.439187,54.2884382 184.494345,54.2556752 184.393152,53.9255559 C184.119021,53.0334875 183.519332,52.0170023 182.966921,51.5044051 C182.410778,51.0150324 181.851317,50.8147214 181.03929,50.8147214 L176.947222,50.8147214 C177.518295,51.8830469 178.391286,53.5108333 178.806838,54.2884382 L178.806838,54.2884382 Z M194.105127,55.3546902 C194.577911,56.8912376 194.617725,58.3701385 193.757175,59.4529793 C192.854739,60.5893194 190.817621,60.5806102 189.710726,60.5806102 L171.130737,60.5806102 L169.84012,58.2245709 C169.84012,58.2245709 171.104195,57.9753226 171.145252,57.9624662 C171.145252,57.9595631 171.145252,57.9570748 171.143593,57.9533423 C171.100877,57.8160691 171.028715,57.672575 170.71477,57.0907192 C170.712697,57.0874014 160.33758,37.7476818 160.33758,37.7476818 C160.1663,37.4262717 160.0311,37.171632 159.959768,36.9405901 C159.734159,36.2061163 159.93447,35.7163703 160.142246,35.4356031 C160.634936,34.7675263 161.563915,34.6902635 162.22125,34.6902635 L169.760493,34.6902635 L171.050281,37.0467176 C171.050281,37.0467176 169.787865,37.2944314 169.745149,37.3072049 C169.745978,37.3104397 169.745978,37.3130525 169.748052,37.3162873 C169.782474,37.430336 174.688228,46.5799885 175.163085,47.4737158 L179.312385,36.903348 C180.395641,34.6902635 182.596159,34.6902635 183.911659,34.6902635 L184.718295,34.6902635 C186.736335,34.6902635 187.385376,35.2630784 188.315599,36.9823941 C188.31394,36.9812743 190.745459,41.4544313 190.745459,41.4544313 L187.756553,41.4544313 C187.595226,41.4544313 187.102121,41.4544313 187.007564,41.5078891 C186.883147,41.6020726 185.520369,45.33665 185.520369,45.33665 C187.067699,45.7758413 188.189109,46.4418858 189.430374,47.6234306 C191.336439,49.4884384 193.299736,52.7361314 194.105127,55.3546902 L194.105127,55.3546902 Z" id="path82" fill="#FFFFFF"></path>
                        <path d="M94.5119728,57.9529275 C94.5119728,57.9529275 83.8112991,37.8883142 83.8100549,37.8840841 C83.6184531,37.5236486 83.4712265,37.1870183 83.3953323,36.9398021 C83.1680643,36.1954164 83.3675459,35.7038871 83.5749072,35.4239493 C84.0601327,34.7675263 84.9758403,34.6902635 85.6223929,34.6902635 L93.1620505,34.6902635 L94.4489349,37.0467176 L93.1471205,37.3175729 L103.845721,57.3826839 C104.052667,57.775841 104.180402,58.0661468 104.261273,58.3315693 C104.447483,58.9366496 104.388593,59.4488321 104.087504,59.8560897 C103.613061,60.4976657 102.741729,60.5806102 102.035042,60.5806102 L94.4953838,60.5806102 L93.20767,58.222912 L94.5119728,57.9529275" id="path84" fill="#FFFFFF"></path>
                        <path d="M123.53924,53.2362869 C123.343076,52.5980288 122.750023,51.1751154 121.044683,48.0165877 C119.111246,44.4130627 117.901915,42.5708647 117.000308,41.8550534 C116.587659,41.5390347 116.462828,41.4544313 114.620215,41.4544313 L111.625917,41.4544313 L118.387141,54.0678058 C119.653704,54.0574377 122.85163,54.0337985 122.855362,54.0337985 C123.827472,54.0337985 123.759458,53.9496098 123.53924,53.2362869 L123.53924,53.2362869 Z M110.830894,57.9624662 C110.830065,57.9595631 110.82965,57.9570748 110.82882,57.9533423 C110.786933,57.8160691 110.714357,57.672575 110.399583,57.0907192 C110.397509,57.0874014 100.023222,37.7476818 100.023222,37.7476818 C99.8519415,37.4262717 99.7171567,37.171632 99.6458244,36.9405901 C99.4202152,36.2061163 99.6196968,35.7163703 99.8283023,35.4356031 C100.320578,34.7675263 101.251216,34.6902635 101.906892,34.6902635 L116.394398,34.6902635 C118.958214,34.6902635 120.389007,35.0113418 122.06656,35.9614714 C124.404766,37.3300561 126.167337,39.4537263 128.812024,44.0792109 C131.312387,48.4031092 132.972107,51.8681169 133.742661,54.3742858 C134.234108,55.9722122 134.549297,57.8027979 133.69953,59.0374272 C132.772625,60.3802992 131.550437,60.5806102 128.815756,60.5806102 L110.817208,60.5806102 L109.524932,58.2245709 C109.524932,58.2245709 110.790251,57.9753226 110.830894,57.9624662 L110.830894,57.9624662 Z" id="path86" fill="#FFFFFF"></path>
                        <path d="M141.416689,57.9533423 C141.375632,57.8189721 130.686985,37.8902634 130.686985,37.8902634 L130.69362,37.9014195 C130.517363,37.5863547 130.351059,37.2027362 130.258576,36.9049654 C130.037114,36.1829333 130.234108,35.701772 130.438151,35.424447 C130.924206,34.7675263 131.84489,34.6902635 132.494761,34.6902635 L150.977705,34.6902635 C153.116015,34.6902635 153.927627,35.1783506 154.925864,37.0613158 C154.92462,37.0579151 158.05785,42.9055458 158.05785,42.9055458 L155.177601,42.9055458 L154.929182,42.5186096 C154.377601,41.6572307 154.173972,41.4544313 152.251733,41.4544313 L142.211298,41.4544313 L143.905025,44.5229642 L151.786414,44.5229642 C153.927627,44.5229642 154.694034,44.9816474 155.686881,46.8582674 C155.683977,46.8512171 157.950437,51.032036 157.950437,51.032036 L147.409017,51.032036 L149.083252,54.2884382 L159.947741,54.2884382 C162.068633,54.2884382 162.84209,54.7520982 163.88885,56.6465512 C163.893412,56.6556751 166.002692,60.5806102 166.002692,60.5806102 L141.403418,60.5806102 L140.114045,58.2245709 C140.114045,58.2245709 141.417518,57.9570748 141.416689,57.9533423" id="path88" fill="#FFFFFF"></path>
                        <path d="M94.8230147,56.6900971 C95.1568665,57.3084485 95.2489349,57.4888529 95.3152905,57.7065823 C95.504404,58.3241043 95.2530821,58.6869866 94.4991164,58.8321395 L94.9951246,59.7387232 L102.035042,59.7387232 C103.306166,59.7387232 103.701812,59.3770851 103.457125,58.5770851 C103.391185,58.3601852 103.277136,58.1059602 103.103782,57.7804029 L92.8344197,38.5804034 C92.5001532,37.9641255 92.4076701,37.7828503 92.3417292,37.5643329 C92.1414181,36.910813 92.4051817,36.5851728 93.158318,36.4392319 L92.6635539,35.532192 L85.6223929,35.532192 C84.3881783,35.532192 83.9556226,35.8958622 84.1998942,36.6942033 C84.2550523,36.874193 84.3798838,37.1657845 84.5528232,37.4922126 L94.8230147,56.6900971" id="path90" fill="#A80C30"></path>
                        <path d="M117.88657,54.9109369 L110.220422,40.6122126 L114.620215,40.6122126 C116.470707,40.6122126 116.85557,40.6859088 117.52037,41.193944 C118.528146,41.9923266 119.74121,43.8071529 121.783719,47.6180392 C123.215756,50.2677022 124.052667,52.044374 124.342973,52.9895269 C124.767649,54.3676503 124.379883,54.8756855 122.855362,54.8756855 L117.88657,54.9109369 Z M111.138618,56.6900971 C111.474129,57.3084485 111.565783,57.4888529 111.633382,57.7065823 C111.822081,58.3241043 111.570759,58.6869866 110.817623,58.8321395 L111.314875,59.7387232 L128.815756,59.7387232 C131.574077,59.7387232 132.403937,59.4857424 132.995331,58.5770851 C133.550645,57.6713309 133.519955,56.5096927 132.939758,54.6210458 C132.213579,52.2637623 130.642195,48.9248303 128.081282,44.4972513 C125.488022,39.9601442 123.822496,37.9641255 121.652667,36.6942033 C120.11446,35.822166 118.826747,35.532192 116.394398,35.532192 L101.906892,35.532192 C100.672263,35.532192 100.204041,35.8958622 100.449557,36.6942033 C100.50513,36.874193 111.138618,56.6900971 111.138618,56.6900971 L111.138618,56.6900971 Z" id="path92" fill="#A80C30"></path>
                        <path d="M141.726487,56.6900971 C142.061583,57.3084485 142.154066,57.4888529 142.220836,57.7065823 C142.411194,58.3241043 142.158628,58.6869866 141.405906,58.8321395 L141.902329,59.7387232 L164.596367,59.7387232 L163.151888,57.0538088 C162.251111,55.4202163 161.762567,55.129081 159.947741,55.129081 L148.577705,55.129081 L146.010987,50.191808 L156.537477,50.191808 L154.943698,47.2514244 C154.078586,45.6186614 153.601655,45.3648511 151.786414,45.3648511 L143.400722,45.3648511 L140.807461,40.6122126 L152.251733,40.6122126 C154.31954,40.6122126 154.869047,40.8676817 155.637114,42.0640736 L156.653599,42.0640736 L154.181852,37.4555926 C153.317985,35.822166 152.792116,35.532192 150.977705,35.532192 L132.494761,35.532192 C131.259717,35.532192 130.827991,35.8958622 131.061894,36.6572515 C131.129909,36.874193 131.266352,37.2006212 131.427265,37.4922126 L141.726487,56.6900971" id="path94" fill="#A80C30"></path>
                        <path d="M185.195641,53.6779665 C184.895796,52.6975622 184.241779,51.5355093 183.531774,50.8819065 C182.833381,50.263555 182.091027,49.9736639 181.03929,49.9736639 L175.542971,49.9736639 L178.304195,55.129081 L183.466247,55.129081 C185.172416,55.129081 185.543178,54.8035238 185.195641,53.6779665 L185.195641,53.6779665 Z M193.301395,55.6022796 C193.736854,57.0173132 193.681281,58.2515278 193.119746,58.9038866 C192.572312,59.4857424 191.634625,59.7387232 189.710726,59.7387232 L171.629234,59.7387232 L171.132396,58.8321395 C171.885947,58.6869866 172.136025,58.3241043 171.947326,57.7065823 C171.879726,57.4888529 171.788487,57.3084485 171.452562,56.6900971 L161.154999,37.4922126 C160.981644,37.1657845 160.819073,36.874193 160.76433,36.6942033 C160.518399,35.8958622 160.987036,35.532192 162.22125,35.532192 L169.261997,35.532192 L169.759249,36.4392319 C169.005698,36.5851728 168.742764,36.910813 168.94349,37.5643329 C168.999477,37.7456082 175.28377,49.4917561 175.28377,49.4917561 L180.067181,37.2740271 C180.898699,35.5749499 182.532292,35.532192 183.911659,35.532192 L184.718295,35.532192 C186.315807,35.532192 186.732188,35.822166 187.575734,37.3822282 L189.33084,40.6122126 L187.756553,40.6122126 C186.413681,40.6122126 186.307927,40.7220311 185.702432,42.3912898 L184.352924,45.9703462 C186.218347,46.371383 187.516014,46.9615333 188.849762,48.2326582 C190.667906,50.00933 192.541623,53.1342651 193.301395,55.6022796 L193.301395,55.6022796 Z" id="path96" fill="#A80C30"></path>
                        <path d="M95.5139427,56.3172614 L85.2449953,37.1219068 C84.9219263,36.5088638 84.8443732,36.3217824 85.5850678,36.3177181 C85.6078776,36.3632547 96.1828903,56.1343687 96.1828903,56.1343687 C96.5258659,56.7697238 96.645306,56.9990654 96.7348861,57.2960069 C96.8671826,57.7252448 96.9082402,57.8243635 96.7746995,58.2938295 C98.5335382,58.2938295 102.472989,58.2934148 102.48543,58.2934148 C102.766612,58.8470696 102.80767,58.9548974 102.035042,58.9548974 C102.035042,58.9548974 97.1620504,58.9548974 95.8465502,58.9548974 C96.0435435,58.7081375 96.311869,58.2772406 96.0659385,57.4764112 C95.975529,57.1819581 95.8577477,56.9513723 95.5139427,56.3172614" id="path98" fill="#BC384B"></path>
                        <path d="M111.828717,56.3160173 L101.457748,36.9812743 C101.321719,36.7253075 101.089059,36.3235657 101.868738,36.3177181 C101.869982,36.3177181 101.870397,36.3198332 101.870811,36.320953 L112.510521,56.1712791 C112.855155,56.80539 112.97501,57.0363905 113.06542,57.3312583 C113.209743,57.7969918 113.17698,58.0503874 113.115601,58.2938295 C116.224362,58.2938295 129.22882,58.2938295 129.22882,58.2938295 C131.367545,58.2938295 132.102848,58.1308435 132.494346,57.790771 C132.232656,58.5754262 131.858991,58.9548974 128.815756,58.9548974 C128.815756,58.9548974 113.704093,58.9548974 112.164642,58.9548974 C112.203211,58.9072043 112.246342,58.8636585 112.278276,58.8122328 C112.530842,58.388801 112.520059,57.9222381 112.383201,57.4764112 C112.293621,57.180714 112.173766,56.9513723 111.828717,56.3160173" id="path100" fill="#BC384B"></path>
                        <path d="M122.473818,47.2443741 C120.377395,43.3318807 119.123688,41.4635137 118.008084,40.5784956 L117.997301,40.5702426 C117.122237,39.9008388 116.540381,39.8269767 114.620215,39.8269767 L109.677136,39.8269767 L109.322133,39.1660332 L115.033693,39.1660332 C116.95303,39.1660332 117.535715,39.2393977 118.41078,39.9088015 L118.421148,39.9165568 C119.537167,40.8012431 120.790458,42.6708128 122.887711,46.5833062 C124.30938,49.2130625 125.189421,51.0681169 125.50627,52.0962144 C125.975736,53.6165876 125.448623,54.212544 125.203107,54.4460329 C125.384341,53.8683242 125.237944,53.2279924 125.094035,52.7581117 C124.777602,51.7287701 123.895072,49.8737157 122.473818,47.2443741" id="path102" fill="#BC384B"></path>
                        <path d="M142.416171,56.3160173 L132.119437,37.1214091 C131.699738,36.365038 131.747431,36.3222386 132.45868,36.3177181 C132.482734,36.3661577 143.09673,56.1679613 143.09673,56.1679613 C143.684807,57.2503874 143.852355,57.7065823 143.700981,58.2938295 C146.68574,58.2938295 159.253081,58.2938295 162.927108,58.2938295 C163.041157,58.5028498 163.16433,58.7317767 163.28294,58.9548974 C161.044682,58.9548974 144.233071,58.9548974 142.752511,58.9548974 C142.995953,58.6538088 143.193776,58.1963697 142.970655,57.4764112 C142.88066,57.1819581 142.760805,56.9513723 142.416171,56.3160173" id="path104" fill="#BC384B"></path>
                        <path d="M140.308135,39.8269767 L139.9494,39.1660332 L152.701707,39.1660332 C153.331671,39.1660332 153.850489,39.1907922 154.29756,39.2614194 C154.452666,39.5496517 154.618555,39.8590762 154.784029,40.1680031 C154.161531,39.897604 153.390561,39.8269767 152.289887,39.8269767 L140.308135,39.8269767" id="path106" fill="#BC384B"></path>
                        <path d="M145.156658,48.7452554 C145.156658,48.7452554 152.058887,48.7452554 154.898493,48.7452554 C155.015859,48.9629848 155.139861,49.1885939 155.257228,49.4071527 C153.607876,49.4071527 147.630064,49.4071527 145.502122,49.4071527 L145.156658,48.7452554" id="path108" fill="#BC384B"></path>
                        <path d="M185.833069,40.4309373 C186.246963,39.5677751 186.688642,39.2518808 187.698492,39.1833686 C187.815444,39.3991488 187.935299,39.6188274 188.049347,39.8269767 C187.980503,39.8269767 187.793878,39.8269767 187.793878,39.8269767 C186.784443,39.8269767 186.239498,39.9693925 185.833069,40.4309373" id="path110" fill="#BC384B"></path>
                        <path d="M189.710726,58.9548974 C189.710726,58.9548974 174.022598,58.9548974 172.480245,58.9548974 C172.517155,58.9072043 172.561945,58.8636585 172.592634,58.8122328 C173.000721,58.1329172 172.787554,57.5017093 172.143075,56.3160173 L161.772521,36.9812743 C161.623635,36.7024563 161.167855,36.3251831 162.183096,36.3177181 C162.183925,36.3177181 162.184755,36.3198332 162.185584,36.320953 L172.82405,56.1679613 C173.423324,57.2744413 173.567233,57.7492987 173.427056,58.2938295 C176.588902,58.2938295 190.12379,58.2938295 190.12379,58.2938295 C191.482007,58.2938295 192.296522,58.1652655 192.750228,57.874545 C192.607149,58.5327098 192.223116,58.9548974 189.710726,58.9548974" id="path112" fill="#BC384B"></path>
                        <path d="M186.042504,54.7454626 C186.146185,54.3672356 186.101395,53.9496098 185.946289,53.4482102 C185.211815,51.0540163 183.623013,49.1885939 181.03929,49.1885939 C181.03929,49.1885939 177.208083,49.1885939 176.237217,49.1885939 C176.572313,48.3355094 180.752717,37.6788378 180.782577,37.6017409 C181.116844,36.930222 181.605802,36.608024 182.228715,36.4536227 C182.110519,36.5913521 182.002276,36.7502738 181.908134,36.9398021 C181.87786,37.0172308 177.698285,47.6736121 177.362774,48.5287702 C178.334055,48.5287702 181.452354,48.5287702 181.452354,48.5287702 C183.999995,48.5287702 185.610363,50.3415228 186.359353,52.7854834 C186.629752,53.6551568 186.547222,54.2979769 186.042504,54.7454626" id="path114" fill="#BC384B"></path>
                        <path d="M26.2527728,50.7081377 C24.7909999,47.8805587 27.1035763,45.9939854 28.624779,45.1151881 C29.2492683,44.6896827 30.0029023,44.3359242 30.8307302,44.0688429 C31.4314559,44.2007247 32.0019899,44.3537573 32.5346596,44.5188169 C29.918838,44.8991176 28.2626846,45.9035758 27.468076,46.7442186 C26.8216893,47.4272668 26.1434104,48.4748562 26.1434104,49.7837209 C26.1434104,50.0881273 26.1804866,50.3975104 26.2527728,50.7081377" id="path116" fill="#BC384B"></path>
                        <path d="M83.0569186,54.7910821 C81.2006201,62.0408486 68.1683757,65.3420409 57.7314656,65.3420409 C50.6500765,65.3420409 39.7709477,64.4163799 30.2050796,60.1700348 L30.2054114,60.1700348 C30.2050796,60.1700348 30.2046234,60.1700348 30.2046234,60.1700348 C30.2086462,60.1692053 30.9806109,60.0622069 31.53157,59.9875568 C35.5737886,61.6045604 43.8685318,64.5723156 57.3076191,64.6747521 C60.6925853,64.6477952 63.975115,64.411818 66.9905634,63.9046122 C71.9203715,63.0121291 80.8775511,60.1480545 83.0569186,54.7910821" id="path118" fill="#BC384B"></path>
                        <path d="M60.712492,57.3951256 C61.1724194,57.805701 61.2420928,57.8115071 61.6236377,58.1213049 C57.2470696,57.7385159 53.3519945,56.7166393 50.0765151,55.5035756 C46.7794701,54.3029535 44.1667174,52.9463958 42.5965775,51.9431817 C41.9151882,51.5379977 41.3206418,51.1597706 40.8210254,50.8259189 C41.2443328,50.8284072 41.2846853,50.8284072 41.9649549,50.8284072 C44.0729901,52.1074119 47.2078786,53.8181428 51.2049754,55.2082931 C54.1113517,56.1613257 58.9105221,57.1877643 60.712492,57.3951256" id="path120" fill="#BC384B"></path>
                        <path d="M33.4073605,15.5819177 C33.4073605,15.5819177 33.814784,15.5819177 34.5203102,15.5819177 C34.9933428,15.8747948 35.4631406,16.1787036 35.9297036,16.4955932 C35.6509271,16.4955932 35.0392112,16.4955932 34.3066451,16.4955932 L33.4073605,15.5819177" id="path122" fill="#BC384B"></path>
                        <path d="M72.6585778,48.8145141 C73.9574891,51.0034202 73.8724709,53.3544829 73.0616882,55.3575932 C73.5104181,53.597925 73.2790028,51.6877125 72.3579038,49.7285628 C70.9631916,46.7649548 68.01244,44.0033167 64.271227,41.822705 C61.0894749,39.9705122 55.3405896,37.4104293 48.3545867,37.1503982 C47.9991694,37.1371271 46.8192834,37.1296621 46.8192834,37.1296621 C46.7039905,36.9049654 46.5841357,36.6838353 46.45806,36.4666035 L47.5396567,36.4687186 C58.0408487,36.7659918 68.3811284,41.6066345 72.6585778,48.8145141" id="path124" fill="#BC384B"></path>
                        <path d="M30.3079723,58.7185055 C26.5511657,56.7477435 23.348719,54.2270593 21.5210363,51.8017613 C19.7555205,49.4851206 19.6450384,47.5944001 20.2828403,46.3041979 C20.1040119,47.3173653 20.3262618,49.1317769 21.8268942,51.1004653 C23.6550746,53.5253486 26.6312072,56.0410561 30.3873502,58.0122329 L32.2770754,59.0046642 C32.2770754,59.0046642 31.83805,59.0722639 31.1597711,59.1659913 L30.3079723,58.7185055" id="path126" fill="#BC384B"></path>
                        <path d="M44.7245194,49.9143585 L44.1024354,49.42623 C40.3450482,46.4750636 35.4440634,36.8924822 31.1358002,28.5411709 C27.3927624,21.285142 23.5428092,13.8326176 19.9267595,9.63856897 C20.3251421,9.73399665 20.5682939,9.79197487 21.0410363,9.91900442 C24.3584857,14.2441054 28.0399371,21.042944 31.4363082,27.6271636 C35.7444055,35.978475 40.3905848,45.3536536 44.1476402,48.6034202 L45.7899418,49.9093819 C45.7899418,49.9093819 45.5606002,49.915188 44.7245194,49.9143585" id="path128" fill="#BC384B"></path>
                        <path d="M59.0585781,32.759854 L58.3883863,32.5732288 C60.3554158,25.4689885 73.374389,13.249559 96.6166902,11.4327421 C104.478587,10.6193465 114.637633,10.7426021 124.251319,12.0104507 C125.668426,12.4706684 125.643543,12.4876721 126.942454,12.9850489 C115.750749,11.4878172 105.550231,11.188429 96.5714854,12.1173662 C87.902538,13.0127524 80.3413147,15.041617 74.0984948,18.1398855 C63.7578004,23.2763084 59.9680649,29.7887395 59.0585781,32.759854" id="path130" fill="#BC384B"></path>
                        <path d="M183.281696,29.8360594 L179.965988,23.8212954 C179.965988,23.8212954 179.083458,22.3000928 177.620732,21.8189315 C176.970032,21.6009118 176.437943,21.6009118 176.048518,21.6009118 L76.2911334,21.6009118 L80.8228077,29.8360594 L183.281696,29.8360594" id="path132" fill="#A80C30"></path>
                        <path d="M92.226851,26.1017723 C92.3989609,26.2200097 92.5134243,26.4069667 92.5644352,26.6350641 C92.6142019,26.8652767 92.5154979,26.9150019 92.0510086,26.9150019 L91.4032118,26.9150019 L90.8686343,25.9313628 L91.6387743,25.9313628 C91.8834606,25.9313628 92.0796244,25.9906266 92.226851,26.1017723 L92.226851,26.1017723 Z M89.5448396,23.5267594 L90.2780693,23.5267594 C90.7056483,23.5267594 90.8889557,23.5782679 91.1133207,23.7641052 C91.3679604,23.9763187 91.5873487,24.4765572 91.6130615,24.5946702 C91.6752699,24.8742762 91.5222372,24.9580502 90.9358194,24.9580502 L90.3361305,24.9580502 L89.5448396,23.5267594 Z M89.0127505,27.2799993 C89.0932067,27.4235348 89.1147723,27.4666245 89.1255551,27.516018 C89.1574887,27.6598853 89.053808,27.7449449 88.7925328,27.7794498 L88.9128023,27.9905436 L93.4482092,27.9905436 C94.0358712,27.9905436 94.3348862,27.9573243 94.5492978,27.8818448 C94.9130096,27.7544835 95.0631391,27.4932082 94.9884891,27.15185 C94.8885409,26.6948671 94.5007752,26.1017723 94.1237924,25.8300875 C93.9487794,25.7040533 93.7103139,25.6189937 93.3926363,25.5671533 C94.012232,25.491342 94.2287172,25.2544939 94.1262807,24.7884286 C93.9977167,24.2044162 93.4818017,23.3568061 92.9451506,22.8653182 C92.5171568,22.4750642 92.120682,22.3402794 91.3509568,22.3402794 L87.0088107,22.3402794 C86.5932586,22.3402794 86.416172,22.4252975 86.4576443,22.6111347 C86.4667682,22.6537268 86.5061668,22.7217827 86.5472244,22.7972623 L89.0127505,27.2799993 L89.0127505,27.2799993 Z" id="path134" fill="#231F20"></path>
                        <path d="M108.545358,25.9757381 C108.749816,26.1275266 108.896213,26.3477028 108.946394,26.5758003 C109.00487,26.8396883 108.86262,26.9150019 108.286985,26.9150019 L107.652045,26.9150019 L107.019593,25.7630268 L107.752408,25.7630268 C108.106581,25.7630268 108.342143,25.8300875 108.545358,25.9757381 Z M105.261169,27.2799993 C105.342869,27.4235348 105.36402,27.4666245 105.374803,27.516018 C105.406322,27.6598853 105.302641,27.7449449 105.040951,27.7794498 L105.161221,27.9905436 L110.149919,27.9905436 C110.798546,27.9905436 111.128665,27.9328557 111.343491,27.7954996 C111.566197,27.6437111 111.649557,27.3554788 111.577395,27.0253181 C111.44966,26.4484389 110.995124,25.7725655 110.475891,25.3581746 C110.093102,25.0601134 109.731464,24.9169097 109.123896,24.8227677 L109.431205,23.941482 C109.565575,23.551228 109.596265,23.5267594 110.049142,23.5267594 L110.232449,23.5267594 L109.809432,22.7736231 C109.607462,22.4082939 109.482631,22.3402794 108.943906,22.3402794 L107.806737,22.3402794 C107.342662,22.3402794 107.30119,22.3742866 107.212439,22.7483665 L106.739655,24.8227677 L106.506581,24.8227677 L105.489266,22.9751368 C105.450697,22.9075785 105.426229,22.8565676 105.417105,22.8142659 C105.383927,22.6624774 105.488852,22.5861684 105.750956,22.5513732 L105.629857,22.3402794 L103.258059,22.3402794 C102.842507,22.3402794 102.665835,22.4252975 102.706063,22.6111347 C102.716846,22.6537268 102.755415,22.7217827 102.796472,22.7972623 L105.261169,27.2799993 L105.261169,27.2799993 Z" id="path136" fill="#231F20"></path>
                        <path d="M123.336441,25.9073503 C122.757488,25.0508651 122.380505,24.3392011 122.296316,23.9589833 C122.224984,23.628325 122.418245,23.4504504 122.870292,23.4504504 C123.420629,23.4504504 123.765264,23.6872985 124.280764,24.41551 C124.799167,25.1611813 125.237529,26.0432964 125.303055,26.3386204 C125.381023,26.6948671 125.189421,26.8801652 124.749401,26.8801652 C124.173766,26.8801652 123.829131,26.643483 123.336441,25.9073503 L123.336441,25.9073503 Z M127.039084,24.5603312 C125.892791,22.7384546 124.869256,22.2557174 122.240329,22.2557174 C121.188592,22.2557174 120.547431,22.3402794 120.13727,22.5348258 C119.672781,22.75579 119.486985,23.1365054 119.597301,23.6362876 C119.81669,24.6358107 120.736544,26.2043332 121.561842,27.0088122 C122.351889,27.7718189 123.459199,28.0746079 125.37895,28.0746079 C127.519333,28.0746079 128.250489,27.678216 128.016171,26.6098075 C127.903781,26.1017723 127.548364,25.3727728 127.039084,24.5603312 L127.039084,24.5603312 Z" id="path138" fill="#231F20"></path>
                        <path d="M138.224984,27.2799993 C138.30544,27.4235348 138.327005,27.4666245 138.337788,27.516018 C138.370551,27.6598853 138.266456,27.7449449 138.003522,27.7794498 L138.124206,27.9905436 L140.533745,27.9905436 C140.998234,27.9905436 141.066248,27.9669044 141.121821,27.7718189 L141.833071,25.5000927 L142.811401,27.2799993 C142.891028,27.4235348 142.913008,27.4666245 142.923791,27.516018 C142.954895,27.6598853 142.852044,27.7449449 142.590354,27.7794498 L142.70938,27.9905436 L144.66687,27.9905436 C145.082008,27.9905436 145.247897,27.9063135 145.208083,27.7284389 C145.197301,27.678216 145.167026,27.6014094 145.128042,27.5351367 L142.27558,22.3402794 L140.708757,22.3402794 C140.195746,22.3402794 140.15137,22.365536 140.052252,22.6874437 L139.258058,25.1956863 L138.077757,23.051114 C137.996886,22.9075785 137.974491,22.8653182 137.964538,22.8142659 C137.930116,22.6624774 138.0367,22.5861684 138.286363,22.5513732 L138.17812,22.3402794 L136.221044,22.3402794 C135.805906,22.3402794 135.629649,22.4252975 135.667389,22.6040015 C135.679001,22.6537268 135.722132,22.7384546 135.759457,22.7972623 L138.224984,27.2799993" id="path140" fill="#231F20"></path>
                        <path d="M158.063241,26.8652767 C157.465211,26.8652767 157.231722,26.7546287 156.918192,26.3303674 C156.728249,26.0765157 156.385688,25.5174281 156.073402,24.9322959 C155.822495,24.4577703 155.704714,24.2044162 155.669877,24.0422596 C155.613889,23.7896935 155.744112,23.6027366 156.026124,23.551228 C156.157176,23.5350124 156.289887,23.5267594 156.644475,23.5267594 L157.463967,23.5267594 C158.12462,23.5267594 158.309172,23.5860647 158.504091,23.8648413 L158.833796,23.8648413 L158.343594,22.9677133 C158.201759,22.713986 158.058679,22.5604142 157.905647,22.4750642 C157.575113,22.3070601 157.299737,22.2822597 155.551681,22.2822597 C154.096004,22.2822597 153.617829,22.3315287 153.266144,22.5090715 C152.858057,22.713986 152.725346,23.051114 152.832759,23.5442607 C152.909898,23.8904711 153.103988,24.331736 153.468944,25.0426121 C154.728871,27.4413679 155.450074,27.9905436 157.320888,27.9905436 L160.474853,27.9905436 L160.106165,27.3132186 C159.900463,26.9317152 159.763189,26.8652767 159.237321,26.8652767 L158.063241,26.8652767" id="path142" fill="#231F20"></path>
                        <path d="M171.444267,23.6872985 C171.645823,23.7731461 171.79139,23.9332291 171.828715,24.1028506 C171.875579,24.3147324 171.765263,24.4250486 171.330219,24.5603312 L170.579985,24.8141829 C169.797404,25.093623 169.536958,25.3581746 169.626123,25.7630268 C169.677964,25.9998749 169.936751,26.508242 170.20715,26.9064172 C170.52856,27.3642295 170.959042,27.7113938 171.394501,27.8552611 C171.699322,27.9669044 171.937787,27.9905436 172.573972,27.9905436 L175.643749,27.9905436 L175.309482,27.3642295 C175.091338,26.9830579 174.978534,26.9150019 174.477134,26.9150019 L173.437839,26.9150019 C172.997404,26.9150019 172.835662,26.8968785 172.677653,26.8471533 C172.440431,26.7711761 172.282422,26.6098075 172.238046,26.4069667 C172.199063,26.2287604 172.279519,26.1536126 172.655672,26.0251315 L173.395123,25.7725655 C173.860441,25.6104089 174.083148,25.5091751 174.216274,25.3988589 C174.403728,25.2454115 174.467595,25.0351471 174.411608,24.7809636 C174.292168,24.2380917 173.679622,23.2891233 173.208083,22.9250798 C172.644889,22.4750642 172.138098,22.3402794 171.098803,22.3402794 L168.676823,22.3402794 C168.322235,22.3402794 168.178327,22.3482006 168.051836,22.3825396 C167.854013,22.433592 167.744527,22.5435764 167.77729,22.6973141 C167.789317,22.7483665 167.895486,22.9503779 167.937373,23.035396 L168.425087,23.9166816 L168.766818,23.9166816 C168.705854,23.6362876 168.876305,23.5782679 169.573454,23.5782679 L170.490405,23.5782679 C171.090094,23.5782679 171.242297,23.6027366 171.444267,23.6872985" id="path144" fill="#231F20"></path>
                        <path d="M91.4421957,26.8532912 C91.6147204,26.9726898 91.7287691,27.1598127 91.7793653,27.3874125 C91.8299614,27.6172932 91.7308427,27.6670185 91.2659386,27.6670185 L90.6177271,27.6670185 L90.0843938,26.6857847 L90.8537043,26.6857847 C91.0996348,26.6857847 91.2957987,26.742975 91.4421957,26.8532912 Z M88.7597697,24.278776 L89.493414,24.278776 C89.9214078,24.278776 90.1043005,24.3306163 90.3294949,24.5167438 C90.5833051,24.7278376 90.8035229,25.2267905 90.828821,25.3470185 C90.8910294,25.6256292 90.737582,25.7106888 90.1511642,25.7106888 L89.5518899,25.7106888 L88.7597697,24.278776 Z M88.2280953,28.0328039 C88.3089662,28.1758832 88.330117,28.2181434 88.3413145,28.2694861 C88.3732482,28.4127313 88.2695675,28.4985789 88.0078775,28.5320885 L88.1281471,28.7445094 L92.6643834,28.7445094 C93.2516306,28.7445094 93.5494015,28.7107924 93.7650573,28.6344835 C94.128769,28.5060439 94.2788986,28.2442295 94.2042486,27.9041984 C94.1043004,27.4480035 93.7165347,26.8532912 93.3391371,26.582892 C93.1645389,26.4564016 92.9252439,26.3718397 92.6083958,26.3207873 C93.2275767,26.2431927 93.4444767,26.0073399 93.3420402,25.540777 C93.2130614,24.9572207 92.6971465,24.1094862 92.1609101,23.6184546 C91.7325016,23.2269149 91.3360267,23.0939134 90.5663015,23.0939134 L86.2241554,23.0939134 C85.8086033,23.0939134 85.6315168,23.1776459 85.6725743,23.3629854 C85.6825277,23.4060751 85.7219263,23.4749191 85.7629839,23.5496106 L88.2280953,28.0328039 L88.2280953,28.0328039 Z" id="path146" fill="#FFFFFF"></path>
                        <path d="M107.760702,26.728045 C107.964746,26.8798749 108.111972,27.1005074 108.161739,27.3281071 C108.2198,27.5902533 108.077136,27.6670185 107.50316,27.6670185 L106.867804,27.6670185 L106.235352,26.5164949 L106.968582,26.5164949 C107.321926,26.5164949 107.557903,26.582892 107.760702,26.728045 L107.760702,26.728045 Z M104.477758,28.0328039 C104.557385,28.1758832 104.57978,28.2181434 104.590977,28.2694861 C104.621667,28.4127313 104.518815,28.4985789 104.257125,28.5320885 L104.37698,28.7445094 L109.366094,28.7445094 C110.01389,28.7445094 110.343595,28.6847064 110.558421,28.5483041 C110.781127,28.3965156 110.864487,28.1078272 110.792325,27.7776665 C110.66542,27.201285 110.210469,26.5236282 109.690822,26.1096935 C109.308033,25.8122544 108.946394,25.6692166 108.338826,25.5747842 L108.647794,24.6942866 C108.781335,24.3043643 108.81161,24.278776 109.265316,24.278776 L109.448623,24.278776 L109.025192,23.5267594 C108.822807,23.1606422 108.697976,23.0939134 108.159666,23.0939134 L107.022496,23.0939134 C106.558007,23.0939134 106.516534,23.1258055 106.426954,23.4998854 L105.955,25.5747842 L105.721926,25.5747842 L104.705441,23.7287708 C104.666457,23.6604245 104.642403,23.6097039 104.633279,23.5666142 C104.599272,23.4139963 104.704196,23.3376873 104.966716,23.3052975 L104.846446,23.0939134 L102.473818,23.0939134 C102.058266,23.0939134 101.880765,23.1776459 101.922237,23.3629854 C101.931776,23.4060751 101.97076,23.4749191 102.012232,23.5496106 L104.477758,28.0328039 L104.477758,28.0328039 Z" id="path148" fill="#FFFFFF"></path>
                        <path d="M122.5522,26.6595328 C121.972833,25.8036697 121.59585,25.0923374 121.511661,24.7100046 C121.439499,24.3803415 121.633589,24.2027988 122.085222,24.2027988 C122.636389,24.2027988 122.980609,24.4396469 123.495694,25.1686463 C124.014927,25.9135297 124.452874,26.7956033 124.517985,27.0909273 C124.597198,27.4480035 124.405181,27.6337992 123.964331,27.6337992 C123.38911,27.6337992 123.044476,27.3969511 122.5522,26.6595328 Z M126.254844,25.3126795 C125.108136,23.4919227 124.085015,23.0083561 121.455673,23.0083561 C120.403937,23.0083561 119.762776,23.0939134 119.352615,23.2866765 C118.887711,23.508636 118.70233,23.8893099 118.812231,24.3907096 C119.032864,25.388947 119.951889,26.9553544 120.777187,27.7611605 C121.567649,28.5233793 122.674958,28.8274539 124.594294,28.8274539 C126.735093,28.8274539 127.465834,28.4308547 127.231516,27.3629438 C127.12037,26.8532912 126.763294,26.1254115 126.254844,25.3126795 L126.254844,25.3126795 Z" id="path150" fill="#FFFFFF"></path>
                        <path d="M137.439499,28.0328039 C137.520785,28.1758832 137.541935,28.2181434 137.553548,28.2694861 C137.585067,28.4127313 137.480971,28.4985789 137.219281,28.5320885 L137.339965,28.7445094 L139.749919,28.7445094 C140.213993,28.7445094 140.282423,28.7179257 140.337166,28.5233793 L141.048001,26.2527728 L142.026331,28.0328039 C142.105958,28.1758832 142.128353,28.2181434 142.138721,28.2694861 C142.17024,28.4127313 142.067804,28.4985789 141.806528,28.5320885 L141.925554,28.7445094 L143.883045,28.7445094 C144.297767,28.7445094 144.463656,28.6589521 144.423428,28.4810776 C144.412645,28.4308547 144.382785,28.3537577 144.345046,28.2865312 L141.48968,23.0939134 L139.924517,23.0939134 C139.41109,23.0939134 139.367544,23.1183405 139.268011,23.44058 L138.472988,25.9480346 L137.293102,23.8042503 C137.212646,23.6604245 137.190665,23.6184546 137.179053,23.5666142 C137.145461,23.4139963 137.25163,23.3376873 137.501707,23.3052975 L137.393465,23.0939134 L135.436389,23.0939134 C135.020836,23.0939134 134.844994,23.1776459 134.882734,23.3563499 C134.894761,23.4060751 134.937477,23.4919227 134.974388,23.5496106 L137.439499,28.0328039" id="path152" fill="#FFFFFF"></path>
                        <path d="M157.278586,27.6172932 C156.680141,27.6172932 156.447482,27.5059817 156.134366,27.0830061 C155.944009,26.8288226 155.601448,26.2694447 155.288332,25.6859299 C155.03701,25.2101186 154.920888,24.9572207 154.885222,24.7950642 C154.829234,24.5424981 154.959872,24.3562047 155.241883,24.3043643 C155.372935,24.2873607 155.505232,24.278776 155.859405,24.278776 L156.679312,24.278776 C157.34038,24.278776 157.524102,24.3380813 157.719436,24.6171896 L158.04997,24.6171896 L157.558939,23.7200201 C157.417103,23.4653804 157.274439,23.3132602 157.120991,23.2269149 C156.790872,23.0601964 156.514667,23.0341104 154.767026,23.0341104 C153.312179,23.0341104 152.834003,23.0851627 152.481074,23.2622078 C152.073817,23.4653804 151.940691,23.8042503 152.047689,24.296609 C152.124828,24.6436075 152.319333,25.0837526 152.683874,25.794919 C153.944631,28.1923891 154.665419,28.7445094 156.536232,28.7445094 L159.690613,28.7445094 L159.322339,28.0658573 C159.115393,27.6840221 158.978949,27.6172932 158.452666,27.6172932 L157.278586,27.6172932" id="path154" fill="#FFFFFF"></path>
                        <path d="M170.659612,24.4396469 C170.860753,24.5249968 171.006735,24.6855359 171.044889,24.8564846 C171.091338,25.0670808 170.981022,25.1757796 170.545978,25.3126795 L169.794501,25.5660336 C169.012748,25.8459714 168.752303,26.1096935 168.841883,26.5164949 C168.893723,26.7525136 169.152095,27.2605488 169.422909,27.6595535 C169.74349,28.1169096 170.173972,28.4640739 170.61026,28.6083974 C170.915911,28.7179257 171.153962,28.7445094 171.789731,28.7445094 L174.859508,28.7445094 L174.525242,28.1169096 C174.307098,27.7358624 174.193878,27.6670185 173.692894,27.6670185 L172.653184,27.6670185 C172.213578,27.6670185 172.050177,27.6495172 171.893827,27.5997919 C171.655361,27.523483 171.497767,27.3629438 171.452562,27.1598127 C171.414407,26.9827261 171.494864,26.9064172 171.871432,26.7782679 L172.610053,26.5236282 C173.076201,26.3627572 173.298078,26.261482 173.432033,26.1503778 C173.619488,25.9985893 173.682525,25.7869978 173.626538,25.533312 C173.507513,24.99044 172.894967,24.0414302 172.424257,23.6777599 C171.860649,23.2269149 171.353443,23.0939134 170.314148,23.0939134 L167.892583,23.0939134 C167.539239,23.0939134 167.393671,23.1008807 167.266351,23.134888 C167.069358,23.1858989 166.960286,23.2962151 166.99222,23.4493307 C167.004661,23.4998854 167.110416,23.7018968 167.153962,23.7877444 L167.640431,24.6680761 L167.982992,24.6680761 C167.921613,24.3907096 168.09165,24.3306163 168.788798,24.3306163 L169.706165,24.3306163 C170.305439,24.3306163 170.458472,24.3562047 170.659612,24.4396469" id="path156" fill="#FFFFFF"></path>
                        <path d="M146.64095,12.0194917 L146.040847,12.0194917 L147.221562,14.2462205 L147.207876,14.2462205 L145.22799,12.0194917 L144.872573,12.0194917 L145.254532,14.2462205 L145.241676,14.2462205 L144.060131,12.0194917 L143.459198,12.0194917 L144.923169,14.7782267 L145.892791,14.7782267 L145.648104,13.1462101 L147.1353,14.7782267 L148.104506,14.7782267 L146.64095,12.0194917 Z M144.306062,14.2462205 L143.465834,14.2462205 L142.284704,12.0194917 L141.621977,12.0194917 L142.803522,14.2462205 L141.963708,14.2462205 L142.24572,14.7782267 L144.588488,14.7782267 L144.306062,14.2462205 L144.306062,14.2462205 Z" id="path158" fill="#211D1D"></path>
                    </g>
                </g>
            </g>
        </g>
    </g>
</svg>