<?xml version="1.0" encoding="UTF-8"?>
<svg width="200px" height="200px" viewBox="0 0 200 200" version="1.1" xmlns="http://www.w3.org/2000/svg" xmlns:xlink="http://www.w3.org/1999/xlink">
    <!-- Generator: Sketch 54.1 (76490) - https://sketchapp.com -->
    <title>sacramento-st</title>
    <desc>Created with Sketch.</desc>
    <g id="sacramento-st" stroke="none" stroke-width="1" fill="none" fill-rule="evenodd">
        <g id="sacramento-st_BGL">
            <g id="sacramento-st" transform="translate(0.000000, 12.000000)">
                <g id="g10" transform="translate(99.906101, 88.195308) scale(-1, 1) rotate(-180.000000) translate(-99.906101, -88.195308) translate(0.000000, 0.120193)" fill-rule="nonzero">
                    <g id="g12" transform="translate(0.000000, 0.338028)">
                        <path d="M0.0374119803,96.7072276 C0.0374119803,96.7072276 -0.474764307,64.1768998 37.2441305,46.9382148 L6.95350217,6.79958668 C62.024036,-4.07248816 101.773519,-0.223885065 128.61671,7.07643175 C204.715863,30.0943467 199.39868,79.5556788 199.39868,79.5556788 C198.157742,119.78103 151.01333,134.604316 151.01333,134.604316 L178.65577,170.875864 C140.033799,177.711169 109.416711,176.398118 86.1483547,172.012014 C86.1483547,172.012014 -2.07746474,157.49671 0.0374119803,96.7072276" id="path14" fill="#FFFFFF"></path>
                        <path d="M167.292015,164.389104 L147.155677,138.981029 C112.769575,138.942344 102.801875,126.994551 102.801875,126.994551 C93.6413122,117.145161 103.349105,105.931265 104.425913,104.558495 C55.2999047,138.199058 109.882439,152.82178 115.437744,154.602813 C115.437744,154.602813 133.450513,159.741592 167.292015,164.389104" id="path16" fill="#024D36"></path>
                        <path d="M152.583283,37.0010132 C163.842249,65.4899514 122.830419,86.7504204 114.327509,92.3481667 C106.043565,97.80319 71.4689184,115.80056 73.2247869,132.908917 C76.4529558,164.326756 166.827038,168.043939 166.827038,168.043939 C126.944222,173.741216 46.97352,172.881122 44.8270411,130.73502 C43.6048815,107.539152 76.6411248,89.2608428 84.0405613,84.4676035 C94.5014061,77.7040356 129.336335,59.5620642 125.924504,42.0882619 C122.887133,26.5385909 100.637744,23.4159243 100.637744,23.4159243 C100.637744,23.4159243 123.52826,35.7761118 113.062157,53.5827217 C112.747415,53.1489189 110.659152,29.8377457 56.2170878,37.6672291 L58.5757732,66.2937073 L16.0365442,10.4229857 C16.0365442,10.4229857 133.814832,-10.4848824 152.583283,37.0010132" id="path18" fill="#024D36"></path>
                        <path d="M170.458963,115.573706 C170.224972,98.1393403 151.654456,88.2110776 129.516992,90.3012184 C131.661217,89.2792466 143.401311,83.4430026 153.624034,73.9722047 C168.223846,77.0749277 177.573704,94.9307019 170.458963,115.573706" id="path20" fill="#B09247"></path>
                        <path d="M174.117179,117.02272 C186.563,84.8901387 171.366381,69.0339889 160.278306,66.906665 C172.773329,51.7682616 169.005066,38.194553 168.470231,36.0984404 C205.480934,63.0617825 197.185723,101.006195 174.117179,117.02272" id="path22" fill="#024D36"></path>
                        <path d="M28.8656143,61.2942708 C29.0988913,78.7305145 47.6694824,88.6599039 69.808449,86.5693875 C67.6619701,87.594364 55.9218765,93.4291056 45.6991538,102.893519 C31.0999053,99.7915468 21.7494079,81.9410308 28.8656143,61.2942708" id="path24" fill="#B09247"></path>
                        <path d="M25.2084876,59.8448811 C12.7582344,91.9812184 27.9577458,107.831734 39.0452572,109.960185 C26.5522247,125.097086 30.3187974,138.671546 30.8547598,140.76995 C-6.1574083,113.803565 2.1402591,75.8614066 25.2084876,59.8448811" id="path26" fill="#024D36"></path>
                    </g>
                </g>
            </g>
        </g>
    </g>
</svg>