<?xml version="1.0" encoding="UTF-8"?>
<svg width="200px" height="200px" viewBox="0 0 200 200" version="1.1" xmlns="http://www.w3.org/2000/svg" xmlns:xlink="http://www.w3.org/1999/xlink">
    <!-- Generator: Sketch 54.1 (76490) - https://sketchapp.com -->
    <title>samford</title>
    <desc>Created with Sketch.</desc>
    <g id="samford" stroke="none" stroke-width="1" fill="none" fill-rule="evenodd">
        <g id="samford_BGL">
            <g id="samford" transform="translate(2.000000, -2.000000)">
                <g id="g10" transform="translate(97.500000, 102.127818) scale(-1, 1) rotate(-180.000000) translate(-97.500000, -102.127818) translate(0.000000, 0.798870)" fill-rule="nonzero">
                    <g id="g12">
                        <path d="M174.59864,177.784332 C174.826817,177.698437 175.050955,177.605385 175.271054,177.499806 C175.050955,177.600016 174.834894,177.702016 174.59864,177.784332" id="path20" fill="#182744"></path>
                        <path d="M178.79002,170.365877 C179.965143,173.046892 179.486448,176.279928 175.341498,177.443086 C178.324933,176.568321 180.242113,174.409768 178.79002,170.365877" id="path22" fill="#182744"></path>
                        <path d="M174.457754,183.300417 C174.447347,183.30521 174.430537,183.314796 174.421732,183.318791 C172.950426,183.905962 170.446485,184.549054 167.587126,183.776544 C166.235094,183.410661 164.734971,182.734016 163.301288,181.915172 C164.395562,182.499947 165.585894,183.030398 166.8955,183.468979 C168.270746,183.92833 171.665636,184.485943 174.457754,183.300417" id="path24" fill="#182744"></path>
                        <path d="M158.561011,178.774007 C158.333508,178.531949 158.109278,178.257137 157.889959,177.948772 C158.094548,178.204411 158.308957,178.480022 158.561011,178.774007" id="path26" fill="#182744"></path>
                        <path d="M175.314281,188.468321 C175.564011,188.214669 175.791921,187.986704 175.986695,187.797268 C175.794345,188.013996 175.563203,188.23875 175.314281,188.468321" id="path28" fill="#182744"></path>
                        <path d="M159.69667,181.23693 C160.729306,182.477578 162.387126,183.850041 165.234478,185.256056 C165.079983,185.256056 164.915082,185.240078 164.752582,185.228894 C163.367729,184.67927 161.583431,183.862823 159.69667,181.23693" id="path30" fill="#182744"></path>
                        <path d="M163.342114,184.990031 C161.428136,184.486742 159.27401,183.205351 157.379244,180.736037 C158.550365,182.197973 160.781338,184.147221 163.342114,184.990031" id="path32" fill="#182744"></path>
                        <path d="M158.279798,178.914608 C158.317377,178.998714 158.356746,179.086398 158.396114,179.172293 C158.394325,179.170503 158.392535,179.168714 158.392535,179.168714 C158.353167,179.095345 158.319167,178.989766 158.279798,178.914608" id="path34" fill="#182744"></path>
                        <path d="M159.004244,178.820342 C158.492729,178.34661 158.065266,177.88646 157.744269,177.458264 C158.117298,177.920811 158.545562,178.374571 159.004244,178.820342" id="path36" fill="#182744"></path>
                        <path d="M185.364465,171.356479 C185.596468,171.077673 185.820606,170.794073 186.036879,170.504082 C185.81569,170.794872 185.596468,171.08646 185.364465,171.356479" id="path38" fill="#182744"></path>
                        <path d="M180.486503,177.916018 C180.39317,178.019073 180.29393,178.107748 180.201778,178.213998 C180.083635,178.349806 179.953678,178.48162 179.815451,178.60864 C180.028108,178.383358 180.240766,178.158077 180.465237,177.938387 C180.471145,177.930398 180.479415,177.924007 180.486503,177.916018" id="path40" fill="#182744"></path>
                        <path d="M171.674441,121.888717 L176.992113,104.76649 C175.805783,108.774432 172.529367,119.894732 171.674441,121.888717" id="path42" fill="#182744"></path>
                        <path d="M160.542791,7.34978191 C160.542791,7.34978191 159.375673,4.75248874 159.604614,4.88917576 L160.910217,4.59271431 C161.115944,5.28549624 160.542791,7.34978191 160.542791,7.34978191" id="path44" fill="#C7CBDD"></path>
                        <path d="M172.892791,7.52952814 C172.892791,7.52952814 171.586387,4.59894551 171.854552,4.76055735 L173.385894,4.41137033 C173.626842,5.22558083 172.892791,7.52952814 172.892791,7.52952814" id="path46" fill="#C7CBDD"></path>
                        <path d="M167.445439,8.00629505 C167.445439,8.00629505 166.030968,3.99044458 166.369577,4.23226319 L168.431645,3.93516263 C168.743838,4.77246054 167.523887,7.74514374 167.445439,8.00629505" id="path48" fill="#C7CBDD"></path>
                        <path d="M190.907876,155.258406 C190.788603,159.579506 188.741743,164.382325 187.03029,168.384674 C186.761325,169.014985 186.463542,169.577391 186.154551,170.111836 C186.445931,169.601357 186.716497,169.0749 186.955044,168.518885 C188.665697,164.516535 190.712556,159.713716 190.83263,155.393415 C190.981522,150.001827 189.30449,162.387541 186.120931,169.0749 C186.120931,169.0749 182.730845,171.243039 182.698825,171.255821 C181.551719,173.780257 182.047224,176.608265 178.944515,177.917616 C178.260894,178.245952 177.24667,178.979317 176.774379,179.783781 C176.786387,179.758217 176.79119,179.739045 176.803997,179.712682 C177.257877,178.882654 177.849441,178.071798 178.551473,177.735473 C181.653382,176.425323 180.955352,173.201075 182.102458,170.676639 C182.134478,170.663857 182.148887,170.648678 182.159293,170.632701 C183.561756,169.96724 185.835155,168.458171 185.835155,168.458171 C189.019514,161.770812 188.876226,151.385474 186.611633,147.211367 C186.605229,147.200981 186.134539,146.354976 185.316436,144.906621 C186.971854,145.298068 188.520808,146.214374 189.591867,146.701686 C190.448394,148.435239 191.057569,149.867617 190.907876,155.258406" id="path50" fill="#182744"></path>
                        <path d="M67.7360815,17.1853362 C67.0156381,19.7577045 61.9877442,22.0880146 61.795626,23.5882965 C61.5610816,25.4257025 66.8571406,29.8754204 67.2413771,33.9576572 C63.0099732,29.1045088 51.0934403,21.5815297 49.2507063,17.3283343 C48.3545549,15.2600543 45.2880279,7.13160992 45.2880279,7.13160992 L57.0915313,5.32352256 L58.4215497,11.3048382 L60.3555398,5.64498872 L62.6913772,5.7863092 L64.3147761,10.7360412 L66.1262909,6.12431201 L67.7360815,6.18326878 L69.1497514,10.1648476 C69.1497514,10.1648476 68.4805396,14.5274885 67.7360815,17.1853362" id="path52" fill="#182744"></path>
                        <path d="M173.339466,189.120999 C170.55215,190.788245 167.15486,191.94661 164.074564,192.648819 C165.125611,192.402766 166.207877,192.090407 167.266128,191.702954 C169.821301,190.769871 171.81853,189.862353 173.339466,189.120999" id="path54" fill="#182744"></path>
                        <path d="M162.814589,193.232027 C163.214835,193.058448 163.621485,192.866975 164.036141,192.657606 C163.622286,192.874133 163.214835,193.062027 162.814589,193.232027" id="path56" fill="#182744"></path>
                        <path d="M185.026657,167.513904 C185.051473,167.448396 185.878381,165.251498 185.863973,161.816348 C185.854367,159.47725 185.066682,156.205868 183.982015,152.625323 C183.476103,150.955681 182.842914,149.372316 182.1705,149.155822 C182.603566,152.4999 182.1705,152.428002 178.999749,153.573585 C178.586694,155.414186 178.724379,157.567945 179.894699,159.115361 C183.268776,163.573067 183.982015,164.030022 183.982015,164.030022 L184.265389,166.413857 L181.843899,166.845248 L176.283677,166.039186 L181.462864,168.315971 L185.021854,167.525887 C184.967421,167.664891 184.932199,167.746376 184.932199,167.746376 C184.932199,167.746376 181.578936,168.746564 181.368406,168.691441 C178.715574,167.994026 176.045931,166.262071 176.045931,166.262071 C176.045931,166.262071 175.403135,157.820389 174.905229,151.195342 C174.327273,143.506997 163.904059,136.873162 156.562742,136.019168 C154.006769,135.721987 145.29741,135.370484 142.688604,136.209299 C140.688974,138.062683 136.472779,142.033077 134.417915,146.168839 C141.260525,142.82476 149.599257,140.096611 160.516375,141.994732 C174.286448,144.38975 172.006645,159.541959 174.810771,167.699242 C175.772963,168.368697 177.159416,169.614139 178.784416,170.351498 L178.784416,170.353096 C176.310094,169.866582 175.651288,168.879176 174.482569,168.183359 C174.460956,168.147409 174.444145,168.113058 174.421732,168.075511 C172.167544,164.379129 172.001042,162.951545 171.267791,156.269778 C169.244946,159.323068 168.775857,170.943462 163.215636,166.262071 C163.215636,166.262071 163.500611,169.311366 164.897471,170.886742 C164.389158,171.056902 163.354921,170.825229 161.500981,169.907325 C162.500796,172.422973 164.292298,174.917052 167.46465,176.459674 C168.159478,176.810379 168.897532,177.097973 169.679613,177.282513 C170.054244,177.43989 170.347224,177.605257 170.56816,177.792193 C166.852274,176.463669 162.354306,176.259956 160.364281,168.691441 C161.02949,179.290078 169.678012,176.567522 167.444638,181.865642 C170.836325,183.005633 173.638049,182.622174 174.970069,182.309016 C174.982877,182.30662 174.992483,182.305022 175.006892,182.301826 C175.411941,182.196375 175.411941,182.556667 175.309478,182.732418 C175.223025,182.881009 174.77715,183.147832 174.512988,183.274054 C174.765143,183.13505 175.646485,182.243509 174.905229,182.414467 C172.27481,183.018415 170.106276,182.950511 167.0572,181.95192 C166.884293,181.8952 168.062618,180.217569 167.017175,179.886836 C162.609663,178.495999 157.797902,173.912071 156.015205,170.943462 C156.015205,170.943462 156.530722,173.197879 156.99901,174.430539 C157.531338,175.830962 155.573333,176.37739 154.387003,173.926451 C154.952951,176.065031 155.720624,178.105351 156.750057,179.838904 C155.045008,177.28411 153.615328,173.682795 152.878875,168.691441 C152.878875,168.691441 152.880476,168.691441 152.878074,168.691441 C152.560279,170.757325 152.095193,176.931808 148.838789,169.373678 C148.210402,167.916535 147.328259,166.17819 146.464528,163.704083 C146.107508,168.908735 148.075119,172.773678 148.821178,174.623067 C147.551597,174.912259 144.348025,175.384392 143.509109,176.435708 C142.463666,175.439515 142.66619,175.077625 141.118038,173.106009 C141.450242,180.076967 145.917791,185.720999 152.645131,185.341535 C160.807754,184.881385 165.234478,187.190924 161.861202,189.490877 L158.938604,191.766864 C158.938604,191.766864 169.258554,186.615736 172.106707,185.566817 C173.160155,185.204928 175.135771,184.926121 175.808185,185.294402 C175.808185,186.005398 176.40215,187.499289 176.40215,187.499289 C176.322101,187.587165 176.178813,187.681432 176.009108,187.779693 L174.941251,185.75615 C173.050488,185.698631 169.205722,187.750933 166.399995,189.09224 C162.146178,191.126967 159.330845,192.478659 156.800488,193.225604 C157.821116,193.48364 160.142545,193.418931 162.814589,192.914044 C160.11933,193.435708 157.788296,193.589091 156.514712,193.402954 C155.119454,193.949383 153.4072,194.665172 151.970316,195.206008 C145.917791,197.481995 136.9939,192.573725 133.562989,189.135379 C135.177582,193.402954 135.096733,196.836506 133.697471,197.148067 C129.943161,197.985285 126.188851,198.296845 126.188851,198.296845 L132.284602,197.210379 C133.354861,197.080961 134.190575,196.226168 134.294639,195.156478 L134.3931,194.153095 C134.520378,192.850134 133.397287,189.595529 132.612004,188.54661 L126.433802,182.37692 C126.433802,182.37692 127.875489,189.420576 127.905908,191.113386 L127.954738,193.782418 C124.342915,193.782418 116.835095,177.735473 116.835095,177.735473 L116.247533,184.373302 L126.188851,198.296845 C125.619701,198.10911 116.492484,185.535661 114.102213,183.681479 L114.315945,188.068086 L110.038913,186.289796 C110.038913,186.289796 112.041745,181.77537 114.601721,178.535943 C114.853876,178.215595 115.896117,177.125934 116.669393,176.25756 C119.405477,182.066958 123.375119,189.518838 126.814036,192.170294 C127.377582,192.604881 123.867422,185.256056 121.505969,177.006103 C123.516807,177.792992 125.27709,179.727061 127.004553,180.662541 C120.826351,172.252015 119.210957,150.342147 134.417915,138.732138 C121.562804,143.035662 116.259541,156.910474 114.321548,164.162635 C114.025366,163.72725 113.734787,163.319026 113.461019,162.947551 C109.910834,158.135145 107.045871,146.557889 109.897226,138.732138 C109.897226,138.732138 103.882324,139.58054 101.239898,142.554741 C95.6212409,137.02335 88.6545539,123.688576 84.0453175,106.521612 C80.318224,111.655165 80.3590491,117.334347 80.5487659,121.128191 C76.6591724,118.981621 53.0705769,109.124338 49.0077568,108.182467 C49.0077568,108.182467 46.812646,107.683172 44.2229725,106.521612 C40.3937361,104.682608 31.4357437,88.8921013 29.633995,84.9904097 C27.1521478,79.6171955 29.1046292,71.2929476 27.9026096,65.5466602 C26.2378251,57.5835025 16.3461382,54.8281924 22.6843585,39.0360875 C20.2828807,38.7628732 18.6562798,39.3907867 18.6562798,39.3907867 C18.6744509,39.5401758 10.0309721,26.0176668 10.0309721,26.0176668 C10.0309721,26.0176668 8.72424798,20.7962383 7.75052879,16.5638136 C7.2261261,14.2854302 3.95603381,8.87474897 3.48886634,6.13773306 L9.91874302,5.64155357 L12.2411321,9.51041155 L13.0966186,5.39717857 L18.6562798,4.96810433 L20.2723142,12.4616051 L22.2043831,5.38998872 L24.9179729,5.91644548 L26.7860025,9.59437302 C26.7097155,11.4422442 25.428287,15.4965204 25.428287,15.4965204 L21.6028129,17.5831745 L24.3588289,36.7593018 C51.4461373,39.0360875 42.606938,67.0637184 42.036587,80.4376372 C42.036587,80.4376372 70.7427317,61.5363219 73.5436552,62.4989629 L82.5243816,83.907139 C82.7445171,75.2976937 81.8207486,33.7539448 82.5988274,25.1804488 C83.0150836,20.5869338 79.4697019,13.7749509 79.4697019,13.7749509 L78.5595418,5.90366352 L85.450182,5.11917106 L87.4690243,9.26923205 L89.1084332,14.8893776 L87.073581,9.64246512 L85.611081,11.2784754 L88.1110194,18.2869809 L89.1084332,14.8893776 L90.2971647,5.11917106 L95.0488887,5.11917106 L97.2598492,9.19805254 L97.2598492,13.893184 L98.7615733,5.41563252 C98.7615733,5.41563252 102.011573,5.22709869 103.132263,5.11917106 L105.793901,8.92659578 L105.204738,13.2836445 L101.986758,18.2566237 L93.5279528,18.8254207 C93.5279528,18.8254207 100.925305,27.4212852 101.147842,30.0319994 L91.2473494,18.9204865 L96.5209946,67.0637184 L109.706709,75.1778629 L98.9432851,42.4768299 L96.8548,28.828099 L99.5580634,29.5862287 C99.0841718,29.5191235 98.4509822,29.4767832 97.2614502,29.4016892 C98.7615733,33.5270651 99.5404526,41.8193581 100.629923,45.0108524 C103.449258,53.2695928 109.925243,74.6306355 112.890268,75.0316693 C113.095994,75.058831 125.483617,80.532703 134.417915,86.413201 C132.689651,78.7304474 118.813913,59.1341133 119.186942,59.1804479 C130.995809,62.1314817 147.461942,67.4431827 156.942976,77.5920546 C157.677828,73.5018291 156.001597,69.9364627 155.132262,68.6862277 C169.355414,77.7374493 175.878628,94.3699677 176.992113,104.76649 C176.992113,104.76649 172.984847,89.1237742 164.070562,82.713624 C164.774995,84.4935112 165.083985,86.4946859 165.132815,88.5605693 C160.707692,84.6764529 145.629614,71.8545547 135.700304,68.4865097 C138.322718,71.5757483 149.708924,83.9894228 147.461942,93.6214245 C143.39624,111.051217 122.632262,128.336414 122.632262,128.336414 C122.632262,128.336414 149.996301,117.542054 160.072902,107.830964 C157.282385,111.459441 150.828013,120.080869 137.268469,127.103754 C143.124873,126.605258 153.164651,124.471471 156.634786,125.091396 C154.341375,126.391959 151.061757,128.187824 148.149565,130.992664 C171.267791,131.940925 182.020007,147.885615 182.505906,148.539891 C184.695253,151.479741 185.735093,157.607889 186.075303,160.481432 C186.441128,163.579458 185.35566,166.667898 185.026657,167.513904" id="path58" fill="#D3D4D2"></path>
                        <path d="M147.058493,156.602109 C149.993099,161.372974 151.381153,160.751451 152.878875,167.108077 C153.363973,163.155257 150.580661,159.239186 149.719331,156.127579 C148.208001,150.672081 150.526227,147.780963 151.381153,147.164233 C149.385525,147.103519 145.953013,147.809722 145.062865,148.444825 C144.016621,150.056949 145.453506,153.992993 147.058493,156.602109" id="path60" fill="#D3D4D2"></path>
                        <polyline id="path62" fill="#D3D4D2" points="23.9311257 14.5482592 26.0777266 10.0905525 24.7797279 6.33681201 23.3176282 7.97258264 23.9311257 14.5482592"></polyline>
                        <polyline id="path64" fill="#D3D4D2" points="19.709728 11.8672442 18.3301591 7.03079225 16.9499497 9.7500732 20.7475666 21.2819526 19.709728 11.8672442"></polyline>
                        <path d="M40.3227324,48.1280516 C38.922831,42.519969 30.5295061,39.5417736 24.6309163,40.5843018 C26.5793153,41.3807773 34.4407129,46.6325629 36.2952941,51.6942169 C39.6516795,60.8532862 41.5823075,73.6432295 41.5823075,73.6432295 C41.5823075,73.6432295 42.088539,55.1980702 40.3227324,48.1280516" id="path66" fill="#D3D4D2"></path>
                        <path d="M132.612004,183.463387 C132.612004,183.463387 134.204984,188.164749 142.781461,193.782418 C145.159725,195.341018 152.033555,196.314843 160.354675,190.203471 C160.907015,189.836789 161.440944,189.422973 161.949256,188.958828 C161.958862,188.950839 161.968468,188.94365 161.978074,188.93646 C161.975673,188.937259 161.972471,188.938057 161.970069,188.939655 C162.090143,188.829411 162.212619,188.719965 162.330291,188.60333 C162.691313,188.246234 162.650488,187.834815 162.395131,187.541629 C162.441559,187.01677 159.855968,186.547832 159.366067,186.574195 C155.701412,186.773114 150.971301,188.009768 146.558986,186.147597 C151.381153,193.118555 133.962435,185.272033 132.612004,183.463387" id="path68" fill="#D3D4D2"></path>
                        <path d="M100.20246,126.059629 C88.6785686,112.349385 84.5208101,92.6731632 84.5208101,92.6731632 C84.5208101,92.6731632 83.4273372,110.362589 91.3634208,125.538764 C94.5934084,131.715643 100.20246,139.623679 100.20246,139.623679 C100.20246,139.623679 104.051228,137.062495 114.601721,131.940925 C110.552029,132.17819 106.571179,133.63773 100.20246,126.059629" id="path70" fill="#D3D4D2"></path>
                        <path d="M117.000797,133.743181 C111.070748,136.575982 110.81459,147.153848 114.247903,153.933077 C114.428014,151.454976 117.503506,141.032889 122.632262,137.77429 C131.913974,131.877815 145.917791,126.914422 145.917791,126.914422 C145.917791,126.914422 124.478198,130.170625 117.000797,133.743181" id="path72" fill="#D3D4D2"></path>
                        <path d="M177.024133,164.094731 C180.114835,165.999242 182.128074,166.723819 183.982015,165.967287 C183.922778,165.813904 183.879551,165.198772 183.744268,164.569261 C181.653382,164.331996 178.196054,160.85131 177.68614,158.119167 C176.948887,160.429506 176.948887,161.774007 177.024133,164.094731" id="path74" fill="#D3D4D2"></path>
                        <path d="M171.81853,10.9389547 L169.844515,13.6423381 L163.357323,16.4511727 L163.073148,19.6882027 L171.81853,15.4909283 C171.81853,15.4909283 164.743776,19.4605241 162.787372,20.8265955 C162.787372,20.8265955 161.120747,24.4071405 160.551596,25.8770653 C161.789158,34.7693113 171.198948,57.8159743 171.05566,67.0637184 C164.925488,61.4460494 157.679429,53.1984932 153.466436,49.5236812 C151.364343,42.1932303 149.044515,37.3360875 147.723703,31.046567 L151.097779,32.3511253 C149.672102,28.8648472 148.345685,23.2343962 147.461942,19.9023004 C148.578629,20.3288981 150.598272,21.3242928 150.598272,21.3242928 C149.742545,16.0245749 147.461942,6.52838155 147.461942,6.52838155 L157.999626,5.97076878 C158.610402,6.84856951 159.084293,7.73699524 160.364281,10.0849604 L160.602027,12.8834096 C160.602027,12.8834096 157.212742,16.3449227 157.227951,16.3457215 C158.398271,16.36809 162.026904,13.5472724 162.026904,13.5472724 L161.480968,6.52838155 L165.068776,5.97076878 L166.913912,10.0849604 L167.159663,12.5510788 L163.880845,14.8749979 L168.490081,12.930543 L168.988788,6.31492291 L170.605783,5.97076878 L172.341251,10.0353504 L171.81853,15.4909283 L171.81853,10.9389547" id="path76" fill="#182744"></path>
                        <polyline id="path78" fill="#182744" points="160.26502 52.2670082 170.393653 63.8386715 159.901596 25.7356649 158.389466 25.0190766 160.26502 52.2670082"></polyline>
                        <path d="M38.7576893,106.805212 C41.1100969,107.683172 45.4583727,109.27133 45.4583727,109.27133 C45.4583727,109.27133 38.3303064,108.821565 35.9778988,108.18087 C37.7080034,107.836556 38.1876586,107.469873 38.7576893,106.805212" id="path80" fill="#182744"></path>
                        <polyline id="path82" fill="#182744" points="96.2232113 5.11757332 97.5320167 3.77634685 98.2972876 4.52560904 97.2598492 7.72828754 96.2232113 5.11757332"></polyline>
                        <polyline id="path84" fill="#182744" points="87.073581 4.52560904 87.8388519 3.77634685 89.1484578 5.11757332 88.1110194 7.72828754 87.073581 4.52560904"></polyline>
                        <polygon id="path86" fill="#182744" points="68.6942711 6.21290693 70.3969189 5.60816071 69.7317095 8.82362115"></polygon>
                        <polyline id="path88" fill="#182744" points="63.7776456 5.18563722 65.086451 3.84345211 65.8525224 4.59271431 64.815084 7.7953928 63.7776456 5.18563722"></polyline>
                        <polyline id="path90" fill="#182744" points="57.6947024 4.68945772 59.0035078 3.34727261 59.7695792 4.09749345 58.7321408 7.2992133 57.6947024 4.68945772"></polyline>
                        <polygon id="path92" fill="#182744" points="26.0777266 5.50326879 27.7803743 4.89852257 27.1149249 8.11430256"></polygon>
                        <polyline id="path94" fill="#182744" points="19.709728 5.00740884 21.0186935 3.66586283 21.7847649 4.41544457 20.7475666 7.61812306 19.709728 5.00740884"></polyline>
                        <polyline id="path96" fill="#182744" points="10.3677393 4.95628103 10.950578 4.05754985 12.5218649 5.08170396 12.0812738 7.85530821 10.3677393 4.95628103"></polyline>
                        <path d="M105.771487,7.46306198 C105.771487,7.46306198 104.464283,4.53279889 104.733248,4.69409118 L106.26459,4.34490416 C106.506339,5.15847557 105.771487,7.46306198 105.771487,7.46306198" id="path98" fill="#182744"></path>
                        <path d="M171.674441,121.888717 L161.208801,106.64384 C161.211202,106.641443 161.213604,106.639046 161.214404,106.63665 C164.194638,110.317853 167.958554,115.961884 171.674441,121.888717" id="path100" fill="#182744"></path>
                        <path d="M161.208801,106.64384 C161.163973,106.694967 161.124749,106.755682 161.079121,106.805212 C160.767729,107.145531 160.429121,107.488247 160.072902,107.830964 C160.504367,107.270155 160.855784,106.818793 161.123949,106.521612 L161.208801,106.64384" id="path102" fill="#182744"></path>
                        <path d="M161.326159,106.779296 C161.32437,106.784665 161.319001,106.790033 161.313633,106.795402 L161.123949,106.521612 C161.190159,106.600349 161.261738,106.696981 161.326159,106.779296" id="path104" fill="#182744"></path>
                        <path d="M175.314281,188.131197 C174.787557,188.400416 174.123948,188.738339 173.339466,189.120999 C173.432323,189.065877 173.530783,189.01395 173.622039,188.95723 C174.054305,188.690407 174.726719,188.404411 175.314281,188.131197" id="path106" fill="#182744"></path>
                        <path d="M176.048291,187.783272 C176.026817,187.794009 175.999975,187.808324 175.980291,187.819061 C176.003554,187.804745 176.021448,187.792219 176.044712,187.779693 L176.048291,187.783272" id="path108" fill="#182744"></path>
                        <path d="M157.912396,177.458692 C157.887343,177.445078 157.858711,177.432266 157.835448,177.418653 C157.969659,177.608437 158.103869,177.774999 158.23808,177.95037 C158.028711,177.707734 157.82829,177.483516 157.608185,177.279317 C157.697659,177.337774 157.812185,177.399434 157.912396,177.458692" id="path110" fill="#182744"></path>
                        <path d="M156.803953,179.930774 C156.784277,179.901216 156.769733,179.868462 156.750057,179.838904 C156.971629,180.148866 157.1932,180.456432 157.422471,180.736037 C157.172668,180.444449 156.957085,180.168838 156.803953,179.930774" id="path112" fill="#182744"></path>
                        <path d="M165.180845,185.661084 C164.553259,185.57539 163.942483,185.31567 163.342114,184.990031 C163.832015,185.20229 164.303505,185.330172 164.752582,185.384225 C164.899872,185.479148 165.04316,185.572753 165.180845,185.661084" id="path114" fill="#182744"></path>
                        <path d="M159.004244,178.820342 C160.142545,179.874853 161.675488,180.986084 163.301288,181.915172 C161.603444,181.006056 160.16816,179.950746 159.004244,178.820342" id="path116" fill="#182744"></path>
                        <path d="M159.69667,181.23693 C159.03066,180.43646 158.627212,179.694308 158.33183,179.029646 C158.789712,179.884439 159.245993,180.609815 159.69667,181.23693" id="path118" fill="#182744"></path>
                        <path d="M174.522175,183.311633 C174.500701,183.32058 174.477438,183.325949 174.457754,183.333106 C174.493543,183.318791 174.540069,183.291949 174.581227,183.274054 C174.563333,183.283001 174.534701,183.306264 174.522175,183.311633" id="path120" fill="#182744"></path>
                        <path d="M158.35595,179.088954 C158.311213,178.985165 158.261108,178.876007 158.21816,178.774007 C158.264687,178.874217 158.309424,178.994112 158.35595,179.088954" id="path122" fill="#182744"></path>
                        <path d="M174.59864,177.626827 C173.385094,178.208405 172.042668,178.387353 170.697039,178.215563 C170.663419,178.136827 170.607384,178.072405 170.56816,177.997248 C170.64981,178.061669 170.732261,178.122511 170.813111,178.190511 C172.296424,178.321142 173.544392,178.101037 174.59864,177.626827" id="path124" fill="#182744"></path>
                        <path d="M175.131768,177.570139 C175.291032,177.53077 175.444926,177.487823 175.600611,177.443086 C175.444926,177.487823 175.287453,177.528981 175.131768,177.570139" id="path126" fill="#182744"></path>
                        <path d="M178.787006,170.353894 C178.790585,170.362842 178.792375,170.371789 178.795953,170.380736 C178.792375,170.371789 178.788796,170.362842 178.785217,170.353894 L178.787006,170.353894" id="path128" fill="#182744"></path>
                        <path d="M185.021854,167.540746 L185.021854,167.540746 C185.025433,167.531799 185.029012,167.522851 185.032591,167.513904 L185.021854,167.540746" id="path130" fill="#182744"></path>
                        <path d="M184.924194,171.954035 C184.304613,172.775276 183.656214,173.5374 182.998209,174.301921 L183.354428,173.876122 C183.873948,173.254599 184.399071,172.613904 184.924194,171.954035" id="path132" fill="#182744"></path>
                        <path d="M182.998209,174.301921 C183.656214,173.5374 184.304613,172.775276 184.924194,171.954035 C185.029059,171.82302 185.133123,171.68881 185.237987,171.554599 C185.203566,171.60333 185.174748,171.656855 185.141128,171.705586 C185.129921,171.719966 185.120315,171.734345 185.109909,171.748725 C185.043468,171.843791 184.973825,171.934862 184.905783,172.02833 C184.128505,173.067663 183.295192,173.993556 182.467483,174.973772 C182.589958,174.806808 182.70683,174.651827 182.809293,174.5288 L182.998209,174.301921" id="path134" fill="#182744"></path>
                        <path d="M185.595247,171.356479 C185.529362,171.429146 185.469577,171.5063 185.402472,171.578967 C185.242639,171.729685 185.084027,171.880402 184.924194,172.027532 C185.149912,171.807735 185.37685,171.587938 185.595247,171.356479" id="path136" fill="#182744"></path>
                        <path d="M185.912002,170.782889 C186.092739,170.558749 186.278844,170.344176 186.454213,170.111836 C186.282423,170.341443 186.09095,170.557382 185.912002,170.782889" id="path138" fill="#182744"></path>
                        <path d="M179.815451,178.60864 C179.766621,178.684533 179.713788,178.757231 179.666559,178.834721 C178.332938,180.564279 175.941066,181.391911 176.727951,179.846892 C176.739958,179.825323 176.761571,179.805351 176.774379,179.783781 C176.093961,181.248913 178.520254,180.371751 179.815451,178.60864" id="path140" fill="#182744"></path>
                        <path d="M182.998209,174.301921 L182.809293,174.5288 C182.70683,174.651827 182.589958,174.806808 182.467483,174.973772 C181.71582,175.865313 180.967359,176.80239 180.27013,177.916018 C181.129859,176.518791 182.065635,175.387588 182.998209,174.301921" id="path142" fill="#182744"></path>
                        <path d="M99.5580634,29.5862287 C100.112805,29.7052864 100.445009,29.8784613 101.147842,30.2572814 L99.5580634,29.5862287" id="path144" fill="#182744"></path>
                        <path d="M147.642853,180.662541 C147.642853,181.089138 147.730107,181.493368 147.862988,181.876028 C147.153752,181.450229 146.577397,180.858264 145.917791,179.792569 C146.472533,178.085379 148.666683,176.786413 150.727151,176.997315 C148.975673,177.307278 147.642853,178.825135 147.642853,180.662541" id="path146" fill="#FFFFFF"></path>
                        <path d="M194.389219,151.954271 C194.129059,157.585521 191.351349,165.888998 189.345315,169.251451 C187.720315,171.976404 186.000857,173.936037 184.355845,175.914843 C182.913357,177.649994 179.502458,182.764373 179.455229,183.639937 C179.395992,184.724806 180.299749,187.258828 180.299749,187.258828 C180.299749,187.258828 177.557261,189.323114 175.122963,190.780257 C169.514712,194.138715 161.967668,195.67974 155.338789,196.106337 C153.271917,197.422879 151.44119,198.012446 149.493592,198.490172 C148.111942,198.828894 146.309232,198.684298 144.568961,198.684298 C143.41225,198.684298 142.262742,198.614796 141.150858,198.547691 C140.031769,198.479787 138.974319,198.415877 137.904861,198.415877 C136.435957,198.415877 135.224811,198.540501 134.094516,198.808922 C133.270008,199.004646 132.501536,199.226732 131.757878,199.442427 C130.10326,199.920952 122.228014,201.513104 122.228014,201.513104 C122.228014,201.513104 118.512127,196.29567 117.141684,194.920012 C116.213112,193.988527 115.335772,193.107371 114.419208,192.396375 C113.862866,191.964984 113.196056,191.561554 112.489221,191.134157 C110.882632,190.162728 106.664837,188.51865 104.241746,187.617522 C105.809911,184.079317 108.241007,180.776779 109.830785,179.052014 C110.556031,178.265924 111.263667,176.858312 111.904861,176.045859 C112.821425,174.885896 113.745994,172.773678 113.745994,172.773678 C113.745994,172.773678 112.248272,169.905727 110.527213,167.57302 C109.641068,166.372316 108.718901,165.230727 107.827152,164.126686 C105.081462,160.728284 102.488667,157.518415 101.006955,152.867382 C99.2971029,147.497363 98.1507975,144.753237 94.3500586,141.01132 C92.6041843,139.292147 91.128076,137.658453 89.7007977,136.078284 C86.5284455,132.566442 83.7891599,129.533125 79.2855886,126.92241 C73.5012291,123.568745 67.5303549,120.29257 61.7556013,117.125042 C59.8464265,116.077721 57.9364512,115.0304 56.0305584,113.978285 C52.4058479,111.977909 51.4974489,111.874854 47.8030155,111.719074 L47.7148012,111.71508 C43.8133604,111.550512 37.5879295,110.604648 33.3403557,108.892665 C33.3403557,108.892665 32.5041612,102.977815 32.0154605,100.426218 C31.8391119,99.5059168 31.6727696,98.6367439 31.4419876,97.8290842 C30.9057376,95.9525335 29.8831883,94.4953906 28.6993398,92.8073738 C27.7206576,91.412543 26.7090751,89.9705787 25.8616737,88.1355694 C23.9805161,84.0629191 22.8698326,81.1877782 22.1137673,76.6629663 C21.8235888,74.9270171 21.5496602,73.2869325 21.219457,71.7075623 C20.6968955,69.2102879 20.2034718,64.8188876 19.7676036,62.0779572 C18.8291861,56.1774875 18.2698019,50.0765008 16.1432133,45.0891419 C15.4740015,43.5201569 14.0800237,41.8081739 12.6047959,39.9963318 C10.7386075,37.7051665 8.82022704,35.9228827 7.99940194,33.3800726 L4.84217911,20.7299319 C4.71962369,20.1994808 4.34843528,19.0874508 3.95507322,17.9123098 C1.85129864,11.6171972 0.840036353,0.984368531 0.840036353,0.984368531 L15.5199498,0.984368531 L30.6364519,0.984368531 C30.6364519,0.984368531 30.3240997,12.268278 28.9545369,15.7873099 C28.4257315,17.1461914 27.8788349,18.5498098 27.6061872,19.942244 C26.2991429,26.6120277 28.9951219,29.722037 35.8496599,34.0015951 C45.8877569,40.2695461 49.7016238,47.7326098 51.4687112,58.9064348 C53.2309956,57.1353352 54.0024303,55.3538503 54.3651335,53.4669142 C54.8232554,51.0838786 54.5165067,48.237497 53.6966422,45.6667264 C53.093391,43.7741983 52.1131077,41.957563 51.0752691,40.0338788 C49.8032864,37.6764071 48.4874366,35.2390481 47.8458418,32.540458 C47.1731879,29.7116516 45.034752,26.5249506 44.9521412,23.5219901 C44.9086744,21.9490109 44.8683296,20.4631086 44.7467348,19.0570936 C44.7023074,18.5450166 44.4946596,17.4202046 44.2745242,16.2298851 C43.0584959,9.65213147 42.7701585,0.860463459 42.7701585,0.860463459 L53.6159525,0.860463459 L72.431771,0.860463459 C72.431771,0.860463459 72.1876208,12.9992461 69.7805396,18.8709564 C68.8383598,21.1701105 68.8687785,23.4908341 68.6878672,24.904039 C67.8905765,31.1336441 71.0869435,35.0601008 76.0860197,39.2382022 C76.3573867,34.8036628 78.9317709,28.9734938 79.2127438,25.8810596 C79.6001822,21.6038981 76.538298,14.3677141 76.538298,14.3677141 L75.8674852,0.976859133 L83.2832486,0.976859133 C83.2832486,0.976859133 109.409726,0.821158949 109.460957,0.976859133 C109.500982,1.06888921 109.232817,10.0050732 109.232817,10.0050732 C109.062312,10.4492461 107.61262,14.199152 107.476536,14.586605 C106.36145,17.7565298 105.482509,18.2702046 105.422472,21.7253267 C105.400058,23.010712 105.20794,24.2921029 105.021425,25.5303548 C104.794886,27.0402231 104.580354,28.4678077 104.690021,29.7476009 C104.760465,30.5744336 106.082879,37.407986 106.082879,37.407986 C106.082879,37.407986 111.83762,38.6574221 114.489652,38.789236 C115.822472,38.8555424 138.305907,43.9459558 144.11188,45.0587847 C144.167915,41.7810122 143.929368,43.4921964 144.059048,40.2927134 C144.201535,36.7984466 144.348025,31.227911 144.389651,27.6921028 C144.415267,25.4928078 142.098641,13.3100073 142.098641,13.3100073 C142.098641,13.3100073 143.935772,12.7667743 144.690636,12.7667743 C144.714651,12.7667743 144.738666,12.7667743 144.762681,12.7675731 C144.911572,10.5578927 144.277582,1.13511571 144.277582,1.13511571 L176.391744,1.13511571 C176.733554,8.03193884 173.433924,17.4833155 173.433924,17.4833155 C173.433924,17.4833155 166.8947,21.6574225 166.285525,23.2296029 C165.804429,25.3458153 164.764589,26.7566235 164.925488,28.7945464 C166.494453,34.6271121 168.581338,40.1377322 171.756892,47.1893768 C172.034663,47.8061061 172.366067,48.3900816 172.573394,49.0076098 C174.124749,53.6298841 175.260648,60.1055419 175.937064,67.4311996 C176.468591,73.1894701 177.591682,78.3350057 178.72518,83.91353 C180.216497,91.2503719 180.487064,93.5263587 182.038419,103.060099 C181.666189,107.314093 180.918529,110.891443 179.824256,115.010428 C178.753197,119.039939 176.609478,128.159863 176.307692,129.446048 C177.244268,131.003848 178.150426,132.528895 179.012557,133.99163 C180.41582,135.844215 182.285771,137.803049 184.454305,138.810427 C187.800364,140.365032 193.509477,143.607654 193.509477,143.607654 C194.557322,146.666536 194.546115,148.563857 194.389219,151.954271" id="path148" fill="#192743"></path>
                        <path d="M152.994946,182.37692 C152.994946,182.094919 152.765205,181.865642 152.481831,181.865642 C152.199257,181.865642 151.970316,182.094919 151.970316,182.37692 C151.970316,182.659721 152.199257,182.888199 152.481831,182.888199 C152.765205,182.888199 152.994946,182.659721 152.994946,182.37692" id="path150" fill="#182744"></path>
                        <path d="M45.4583727,109.27133 C45.4583727,109.27133 41.1100969,107.683172 38.7576893,106.805212 C38.1876586,107.469873 37.7080034,107.836556 35.9778988,108.18087 C38.3303064,108.821565 45.4583727,109.27133 45.4583727,109.27133" id="path152" fill="#C9D0D2"></path>
                        <polyline id="path154" fill="#C9D0D2" points="10.950578 4.05754985 10.3677393 4.95628103 12.0812738 7.85530821 12.5218649 5.08170396 10.950578 4.05754985"></polyline>
                        <polyline id="path156" fill="#C9D0D2" points="21.0186935 3.66586283 19.709728 5.00740884 20.7475666 7.61812306 21.7847649 4.41544457 21.0186935 3.66586283"></polyline>
                        <polygon id="path158" fill="#C9D0D2" points="27.7803743 4.89852257 26.0777266 5.50326879 27.1149249 8.11430256"></polygon>
                        <polyline id="path160" fill="#C9D0D2" points="59.0035078 3.34727261 57.6947024 4.68945772 58.7321408 7.2992133 59.7695792 4.09749345 59.0035078 3.34727261"></polyline>
                        <polyline id="path162" fill="#C9D0D2" points="65.086451 3.84345211 63.7776456 5.18563722 64.815084 7.7953928 65.8525224 4.59271431 65.086451 3.84345211"></polyline>
                        <polygon id="path164" fill="#C9D0D2" points="70.3969189 5.60816071 68.6942711 6.21290693 69.7317095 8.82362115"></polygon>
                        <path d="M69.1497514,10.1648476 L67.7360815,6.18326878 L66.1262909,6.12431201 L64.3147761,10.7360412 L62.6913772,5.7863092 L60.3555398,5.64498872 L58.4215497,11.3048382 L57.0915313,5.32352256 L45.2880279,7.13160992 C45.2880279,7.13160992 48.3545549,15.2600543 49.2507063,17.3283343 C51.0934403,21.5815297 63.0099732,29.1045088 67.2413771,33.9576572 C66.8571406,29.8754204 61.5610816,25.4257025 61.795626,23.5882965 C61.9877442,22.0880146 67.0156381,19.7577045 67.7360815,17.1853362 C68.4805396,14.5274885 69.1497514,10.1648476 69.1497514,10.1648476" id="path166" fill="#C9D0D2"></path>
                        <polyline id="path168" fill="#C9D0D2" points="87.8388519 3.77634685 87.073581 4.52560904 88.1110194 7.72828754 89.1484578 5.11757332 87.8388519 3.77634685"></polyline>
                        <polyline id="path170" fill="#C9D0D2" points="97.5320167 3.77634685 96.2232113 5.11757332 97.2598492 7.72828754 98.2972876 4.52560904 97.5320167 3.77634685"></polyline>
                        <path d="M106.26459,4.34490416 L104.733248,4.69409118 C104.464283,4.53279889 105.771487,7.46306198 105.771487,7.46306198 C105.771487,7.46306198 106.506339,5.15847557 106.26459,4.34490416" id="path172" fill="#C9D0D2"></path>
                        <path d="M160.910217,4.59271431 L159.604614,4.88917576 C159.375673,4.75248874 160.542791,7.34978191 160.542791,7.34978191 C160.542791,7.34978191 161.115944,5.28549624 160.910217,4.59271431" id="path174" fill="#C9D0D2"></path>
                        <path d="M168.431645,3.93516263 L166.369577,4.23226319 C166.030968,3.99044458 167.445439,8.00629505 167.445439,8.00629505 C167.523887,7.74514374 168.743838,4.77246054 168.431645,3.93516263" id="path176" fill="#C9D0D2"></path>
                        <path d="M173.385894,4.41137033 L171.854552,4.76055735 C171.586387,4.59894551 172.892791,7.52952814 172.892791,7.52952814 C172.892791,7.52952814 173.626842,5.22558083 173.385894,4.41137033" id="path178" fill="#C9D0D2"></path>
                        <path d="M160.551596,25.8770653 C161.120747,24.4071405 162.787372,20.8265955 162.787372,20.8265955 C164.743776,19.4605241 171.81853,15.4909283 171.81853,15.4909283 L172.341251,10.0353504 L170.605783,5.97076878 L168.988788,6.31492291 L168.490081,12.930543 L163.880845,14.8749979 L167.159663,12.5510788 L166.913912,10.0849604 L165.068776,5.97076878 L161.480968,6.52838155 L162.026904,13.5472724 C162.026904,13.5472724 158.398271,16.36809 157.227951,16.3457215 C157.212742,16.3449227 160.602027,12.8834096 160.602027,12.8834096 L160.364281,10.0849604 C159.084293,7.73699524 158.610402,6.84856951 157.999626,5.97076878 L147.461942,6.52838155 C147.461942,6.52838155 149.742545,16.0245749 150.598272,21.3242928 C150.598272,21.3242928 148.578629,20.3288981 147.461942,19.9023004 C148.345685,23.2343962 149.672102,28.8648472 151.097779,32.3511253 L147.723703,31.046567 C149.044515,37.3360875 151.364343,42.1932303 153.466436,49.5236812 C157.679429,53.1984932 164.925488,61.4460494 171.05566,67.0637184 C171.198948,57.8159743 161.789158,34.7693113 160.551596,25.8770653" id="path180" fill="#C9D0D2"></path>
                        <path d="M182.505906,148.539891 C182.020007,147.885615 171.267791,131.940925 148.149565,130.992664 C151.061757,128.187824 154.341375,126.391959 156.634786,125.091396 C153.164651,124.471471 143.124873,126.605258 137.268469,127.103754 C150.828013,120.080869 157.282385,111.459441 160.072902,107.830964 C160.429121,107.488247 160.767729,107.145531 161.079121,106.805212 C161.124749,106.755682 161.163973,106.694967 161.208801,106.64384 L171.674441,121.888717 C172.529367,119.894732 175.805783,108.774432 176.992113,104.76649 C175.878628,94.3699677 169.355414,77.7374493 155.132262,68.6862277 C156.001597,69.9364627 157.677828,73.5018291 156.942976,77.5920546 C147.461942,67.4431827 130.995809,62.1314817 119.186942,59.1804479 C118.813913,59.1341133 132.689651,78.7304474 134.417915,86.413201 C125.483617,80.532703 113.095994,75.058831 112.890268,75.0316693 C109.925243,74.6306355 103.449258,53.2695928 100.629923,45.0108524 C99.5404526,41.8193581 98.7615733,33.5270651 97.2614502,29.4016892 C98.4509822,29.4767832 99.0841718,29.5191235 99.5580634,29.5862287 L101.147842,30.0319994 C100.925305,27.4212852 93.5279528,18.8254207 93.5279528,18.8254207 L101.986758,18.2566237 L105.204738,13.2836445 L105.793901,8.92659578 L103.132263,5.11917106 C102.011573,5.22709869 98.7615733,5.41563252 98.7615733,5.41563252 L97.2598492,13.893184 L97.2598492,9.19805254 L95.0488887,5.11917106 L90.2971647,5.11917106 L89.1084332,14.8893776 L87.4690243,9.26923205 L85.450182,5.11917106 L78.5595418,5.90366352 L79.4697019,13.7749509 C79.4697019,13.7749509 83.0150836,20.5869338 82.5988274,25.1804488 C81.8207486,33.7539448 82.7445171,75.2976937 82.5243816,83.907139 L73.5436552,62.4989629 C70.7427317,61.5363219 42.036587,80.4376372 42.036587,80.4376372 C42.606938,67.0637184 51.4461373,39.0360875 24.3588289,36.7593018 L21.6028129,17.5831745 L25.428287,15.4965204 C25.428287,15.4965204 26.7097155,11.4422442 26.7860025,9.59437302 L24.9179729,5.91644548 L22.2043831,5.38998872 L20.2723142,12.4616051 L18.6562798,4.96810433 L13.0966186,5.39717857 L12.2411321,9.51041155 L9.91874302,5.64155357 L3.48886634,6.13773306 C3.95603381,8.87474897 7.2261261,14.2854302 7.75052879,16.5638136 C8.72424798,20.7962383 10.0309721,26.0176668 10.0309721,26.0176668 C10.0309721,26.0176668 18.6744509,39.5401758 18.6562798,39.3907867 C18.6562798,39.3907867 20.2828807,38.7628732 22.6843585,39.0360875 C16.3461382,54.8281924 26.2378251,57.5835025 27.9026096,65.5466602 C29.1046292,71.2929476 27.1521478,79.6171955 29.633995,84.9904097 C31.4357437,88.8921013 40.3937361,104.682608 44.2229725,106.521612 C46.812646,107.683172 49.0077568,108.182467 49.0077568,108.182467 C53.0705769,109.124338 76.6591724,118.981621 80.5487659,121.128191 C80.3590491,117.334347 80.318224,111.655165 84.0453175,106.521612 C88.6545539,123.688576 95.6212409,137.02335 101.239898,142.554741 C103.882324,139.58054 109.897226,138.732138 109.897226,138.732138 C107.045871,146.557889 109.910834,158.135145 113.461019,162.947551 C113.734787,163.319026 114.025366,163.72725 114.321548,164.162635 C116.259541,156.910474 121.562804,143.035662 134.417915,138.732138 C119.210957,150.342147 120.826351,172.252015 127.004553,180.662541 C125.27709,179.727061 123.516807,177.792992 121.505969,177.006103 C123.867422,185.256056 127.377582,192.604881 126.814036,192.170294 C123.375119,189.518838 119.405477,182.066958 116.669393,176.25756 C115.896117,177.125934 114.853876,178.215595 114.601721,178.535943 C112.041745,181.77537 110.038913,186.289796 110.038913,186.289796 L114.315945,188.068086 L114.102213,183.681479 C116.492484,185.535661 125.619701,198.10911 126.188851,198.296845 C126.188851,198.296845 129.943161,197.985285 133.697471,197.148067 C135.096733,196.836506 135.177582,193.402954 133.562989,189.135379 C136.9939,192.573725 145.917791,197.481995 151.970316,195.206008 C153.4072,194.665172 155.119454,193.949383 156.514712,193.402954 C159.390082,193.823161 167.64236,192.528189 173.339466,189.120999 C174.123948,188.738339 174.787557,188.400416 175.314281,188.131197 C175.560832,188.016958 175.789773,187.905116 175.980291,187.797268 C175.989096,187.792475 176.001103,187.786084 176.010709,187.781291 L176.009108,187.779693 C176.178813,187.681432 176.322101,187.587165 176.40215,187.499289 C176.40215,187.499289 175.808185,186.005398 175.808185,185.294402 C175.135771,184.926121 173.160155,185.204928 172.106707,185.566817 C169.258554,186.615736 158.938604,191.766864 158.938604,191.766864 L161.861202,189.490877 C165.234478,187.190924 160.807754,184.881385 152.645131,185.341535 C145.917791,185.720999 141.450242,180.076967 141.118038,173.106009 C142.66619,175.077625 142.463666,175.439515 143.509109,176.435708 C144.348025,175.384392 147.551597,174.912259 148.821178,174.623067 C148.075119,172.773678 146.107508,168.908735 146.464528,163.704083 C147.328259,166.17819 148.210402,167.916535 148.838789,169.373678 C152.095193,176.931808 152.560279,170.757325 152.878074,168.691441 C152.880476,168.691441 152.877274,168.691441 152.877274,168.691441 C153.615328,173.682795 155.045008,177.28411 156.750057,179.838904 C156.768468,179.868462 156.782077,179.901216 156.800488,179.930774 C156.943776,180.168838 157.1455,180.444449 157.379244,180.736037 C159.27401,183.205351 161.428136,184.486742 163.342114,184.990031 C163.942483,185.187353 164.553259,185.34473 165.180845,185.396657 C165.04316,185.343133 164.899872,185.286413 164.752582,185.228894 C164.915082,185.240078 165.079983,185.256056 165.234478,185.256056 C162.387126,183.850041 160.729306,182.477578 159.69667,181.23693 C159.245993,180.609815 158.789712,179.884439 158.33183,179.029646 C158.31422,178.9913 158.296609,178.952155 158.279798,178.914608 C158.258986,178.872268 158.238973,178.818744 158.21816,178.774007 C158.094885,178.480022 157.99002,178.204411 157.889959,177.948772 C157.829922,177.773819 157.769885,177.607654 157.709848,177.418321 C157.720254,177.431902 157.733062,177.444684 157.744269,177.458264 C158.065266,177.88646 158.492729,178.34661 159.004244,178.820342 C160.16816,179.950746 161.603444,181.006056 163.301288,181.915172 C164.734971,182.734016 166.235094,183.410661 167.587126,183.776544 C170.446485,184.549054 172.950426,183.905962 174.421732,183.318791 C174.430537,183.314796 174.447347,183.30521 174.457754,183.300417 C174.466559,183.297221 174.476966,183.294824 174.486571,183.29083 C174.492175,183.288434 174.504983,183.278048 174.512988,183.274054 C174.77715,183.147832 175.223025,182.881009 175.309478,182.732418 C175.411941,182.556667 175.411941,182.196375 175.006892,182.301826 C174.992483,182.305022 174.982877,182.30662 174.970069,182.309016 C173.638049,182.622174 170.836325,183.005633 167.444638,181.865642 C169.678012,176.567522 161.02949,179.290078 160.364281,168.691441 C162.354306,176.259956 166.852274,176.463669 170.56816,177.792193 C170.607384,177.825746 170.663419,177.854505 170.697039,177.889655 C172.042668,177.966347 173.385094,177.88646 174.59864,177.626827 C174.785956,177.590078 174.957261,177.544543 175.131768,177.499806 C175.201411,177.481432 175.271855,177.463058 175.341498,177.443086 C179.486448,176.279928 179.965143,173.046892 178.79002,170.365877 C178.788419,170.361883 178.787618,170.357889 178.786017,170.353894 L178.785217,170.353894 L178.784416,170.351498 C177.159416,169.614139 175.772963,168.368697 174.810771,167.699242 C172.006645,159.541959 174.286448,144.38975 160.516375,141.994732 C149.599257,140.096611 141.260525,142.82476 134.417915,146.168839 C136.472779,142.033077 140.688974,138.062683 142.688604,136.209299 C145.29741,135.370484 154.006769,135.721987 156.562742,136.019168 C163.904059,136.873162 174.327273,143.506997 174.905229,151.195342 C175.403135,157.820389 176.045931,166.262071 176.045931,166.262071 C176.045931,166.262071 178.715574,167.994026 181.368406,168.691441 C181.578936,168.746564 184.932199,167.746376 184.932199,167.746376 C184.932199,167.746376 184.967421,167.664891 185.021854,167.525887 L185.021854,167.525887 L185.026657,167.513904 C185.35566,166.667898 186.441128,163.579458 186.075303,160.481432 C185.735093,157.607889 184.695253,151.479741 182.505906,148.539891" id="path182" fill="#C9D0D2"></path>
                        <path d="M189.591867,146.701686 C188.520808,146.214374 186.971854,145.298068 185.316436,144.906621 C186.134539,146.354976 186.605229,147.200981 186.611633,147.211367 C188.876226,151.385474 189.019514,161.770812 185.835155,168.458171 C185.835155,168.458171 183.561756,169.96724 182.159293,170.632701 C182.148887,170.648678 182.134478,170.663857 182.102458,170.676639 C180.955352,173.201075 181.653382,176.425323 178.551473,177.735473 C177.849441,178.071798 177.257877,178.882654 176.803997,179.712682 C176.79119,179.739045 176.786387,179.758217 176.774379,179.783781 C176.761571,179.805351 176.739958,179.825323 176.727951,179.846892 C175.941066,181.391911 178.332938,180.564279 179.666559,178.834721 C179.713788,178.757231 179.766621,178.684533 179.815451,178.60864 C179.909108,178.48162 179.997162,178.349806 180.077212,178.213998 C180.13965,178.107748 180.206891,178.019073 180.27013,177.916018 C180.967359,176.80239 181.71582,175.865313 182.467483,174.973772 C183.295192,173.993556 184.128505,173.067663 184.905783,172.02833 C184.973825,171.934862 185.043468,171.843791 185.109909,171.748725 C185.120315,171.734345 185.129921,171.719966 185.141128,171.705586 C185.174748,171.656855 185.203566,171.60333 185.237987,171.554599 C185.282015,171.489891 185.321239,171.421188 185.364465,171.356479 C185.553381,171.08646 185.731891,170.794872 185.912002,170.504082 C185.992051,170.372268 186.077704,170.246047 186.154551,170.111836 C186.463542,169.577391 186.761325,169.014985 187.03029,168.384674 C188.741743,164.382325 190.788603,159.579506 190.907876,155.258406 C191.057569,149.867617 190.448394,148.435239 189.591867,146.701686" id="path184" fill="#C9D0D2"></path>
                        <path d="M177.024133,164.094731 C176.948887,161.774007 176.948887,160.429506 177.68614,158.119167 C178.196054,160.85131 181.653382,164.331996 183.744268,164.569261 C183.879551,165.198772 183.922778,165.813904 183.982015,165.967287 C182.128074,166.723819 180.114835,165.999242 177.024133,164.094731" id="path186" fill="#182744"></path>
                        <path d="M152.481831,181.865642 C152.765205,181.865642 152.994946,182.094919 152.994946,182.37692 C152.994946,182.659721 152.765205,182.888199 152.481831,182.888199 C152.199257,182.888199 151.970316,182.659721 151.970316,182.37692 C151.970316,182.094919 152.199257,181.865642 152.481831,181.865642" id="path188" fill="#FFFFFF"></path>
                        <path d="M151.381153,147.164233 C150.526227,147.780963 148.208001,150.672081 149.719331,156.127579 C150.580661,159.239186 153.363973,163.155257 152.878875,167.108077 C151.381153,160.751451 149.993099,161.372974 147.058493,156.602109 C145.453506,153.992993 144.016621,150.056949 145.062865,148.444825 C145.953013,147.809722 149.385525,147.103519 151.381153,147.164233" id="path190" fill="#182744"></path>
                        <polyline id="path192" fill="#FFFFFF" points="104.696425 13.0711445 104.696425 8.94752623 103.234726 10.5842555 101.701783 17.592761 104.696425 13.0711445"></polyline>
                        <polyline id="path194" fill="#FFFFFF" points="96.6186546 13.2413043 96.6186546 9.11752622 95.1561547 10.7536164 93.6232114 17.7629207 96.6186546 13.2413043"></polyline>
                        <path d="M150.727151,176.997315 C148.666683,176.786413 146.472533,178.085379 145.917791,179.792569 C146.577397,180.858264 147.153752,181.450229 147.862988,181.876028 C147.730107,181.493368 147.642853,181.089138 147.642853,180.662541 C147.642853,178.825135 148.975673,177.307278 150.727151,176.997315" id="path196" fill="#FFFFFF"></path>
                        <path d="M36.2952941,51.6942169 C34.4407129,46.6325629 26.5793153,41.3807773 24.6309163,40.5843018 C30.5295061,39.5417736 38.922831,42.519969 40.3227324,48.1280516 C42.088539,55.1980702 41.5823075,73.6432295 41.5823075,73.6432295 C41.5823075,73.6432295 39.6516795,60.8532862 36.2952941,51.6942169" id="path198" fill="#FFFFFF"></path>
                        <polyline id="path200" fill="#FFFFFF" points="158.389466 25.0190766 159.901596 25.7356649 170.393653 63.8386715 160.26502 52.2670082 158.389466 25.0190766"></polyline>
                        <path d="M98.9432851,42.4768299 L109.706709,75.1778629 L96.5209946,67.0637184 L91.2473494,18.9204865 L101.147842,30.0319994 C100.445009,29.7803547 100.112805,29.6653171 99.5580634,29.5862287 L96.8548,28.828099 L98.9432851,42.4768299" id="path202" fill="#FFFFFF"></path>
                        <path d="M171.674441,121.888717 C167.958554,115.961884 164.194638,110.317853 161.214404,106.63665 C161.185587,106.599902 161.153567,106.556763 161.123949,106.521612 C160.855784,106.818793 160.504367,107.270155 160.072902,107.830964 C149.996301,117.542054 122.632262,128.336414 122.632262,128.336414 C122.632262,128.336414 143.39624,111.051217 147.461942,93.6214245 C149.708924,83.9894228 138.322718,71.5757483 135.700304,68.4865097 C145.629614,71.8545547 160.707692,84.6764529 165.132815,88.5605693 C165.083985,86.4946859 164.774995,84.4935112 164.070562,82.713624 C172.984847,89.1237742 176.992113,104.76649 176.992113,104.76649 L171.674441,121.888717" id="path204" fill="#FFFFFF"></path>
                        <path d="M91.3634208,125.538764 C83.4273372,110.362589 84.5208101,92.6731632 84.5208101,92.6731632 C84.5208101,92.6731632 88.6785686,112.349385 100.20246,126.059629 C106.571179,133.63773 110.552029,132.17819 114.601721,131.940925 C104.051228,137.062495 100.20246,139.623679 100.20246,139.623679 C100.20246,139.623679 94.5934084,131.715643 91.3634208,125.538764" id="path206" fill="#FFFFFF"></path>
                        <polyline id="path208" fill="#FFFFFF" points="104.696425 8.94752623 104.696425 13.0711445 101.701783 17.592761 103.234726 10.5842555 104.696425 8.94752623"></polyline>
                        <polyline id="path210" fill="#FFFFFF" points="96.6186546 9.11752622 96.6186546 13.2413043 93.6232114 17.7629207 95.1561547 10.7536164 96.6186546 9.11752622"></polyline>
                        <polyline id="path212" fill="#FFFFFF" points="85.611081 11.2784754 87.073581 9.64246512 89.1084332 14.8893776 88.1110194 18.2869809 85.611081 11.2784754"></polyline>
                        <path d="M67.6928549,7.2992133 L67.2325716,9.30606005 L61.7483969,22.2126387 L65.8853426,18.5266425 C66.6594189,17.836417 67.2221652,16.9416802 67.5071406,15.9454866 L68.6942711,11.793748 L67.6928549,7.2992133" id="path214" fill="#FFFFFF"></path>
                        <polyline id="path216" fill="#FFFFFF" points="159.901596 12.8594434 159.901596 10.1568589 158.439096 11.7921502 155.445254 17.4122159 159.901596 12.8594434"></polyline>
                        <polyline id="path218" fill="#FFFFFF" points="166.317545 12.8594434 166.317545 10.1568589 164.854244 11.7921502 159.080291 16.9145185 166.317545 12.8594434"></polyline>
                        <polyline id="path220" fill="#FFFFFF" points="163.357323 16.4511727 169.844515 13.6423381 171.81853 10.9389547 171.81853 15.4909283 163.073148 19.6882027 163.357323 16.4511727"></polyline>
                        <polyline id="path222" fill="#FFFFFF" points="164.854244 11.7921502 166.317545 10.1568589 166.317545 12.8594434 159.080291 16.9145185 164.854244 11.7921502"></polyline>
                        <polyline id="path224" fill="#FFFFFF" points="158.439096 11.7921502 159.901596 10.1568589 159.901596 12.8594434 155.445254 17.4122159 158.439096 11.7921502"></polyline>
                        <path d="M114.247903,153.933077 C110.81459,147.153848 111.070748,136.575982 117.000797,133.743181 C124.478198,130.170625 145.917791,126.914422 145.917791,126.914422 C145.917791,126.914422 131.913974,131.877815 122.632262,137.77429 C117.503506,141.032889 114.428014,151.454976 114.247903,153.933077" id="path226" fill="#FFFFFF"></path>
                        <polyline id="path228" fill="#FFFFFF" points="26.0777266 10.0905525 23.9311257 14.5482592 23.3176282 7.97258264 24.7797279 6.33681201 26.0777266 10.0905525"></polyline>
                        <polyline id="path230" fill="#FFFFFF" points="18.3301591 7.03079225 19.709728 11.8672442 20.7475666 21.2819526 16.9499497 9.7500732 18.3301591 7.03079225"></polyline>
                        <path d="M146.558986,186.147597 C150.971301,188.009768 155.701412,186.773114 159.366067,186.574195 C159.855968,186.547832 162.441559,187.01677 162.395131,187.541629 C162.650488,187.834815 162.691313,188.246234 162.330291,188.60333 C162.212619,188.719965 162.090143,188.829411 161.970069,188.939655 C161.972471,188.938057 161.975673,188.937259 161.978074,188.93646 C161.968468,188.94365 161.958862,188.950839 161.949256,188.958828 C161.440944,189.422973 160.907015,189.836789 160.354675,190.203471 C152.033555,196.314843 145.159725,195.341018 142.781461,193.782418 C134.204984,188.164749 132.612004,183.463387 132.612004,183.463387 C133.962435,185.272033 151.381153,193.118555 146.558986,186.147597" id="path232" fill="#FFFFFF"></path>
                        <path d="M167.46465,176.459674 C164.292298,174.917052 162.500796,172.422973 161.500981,169.907325 C163.354921,170.825229 164.389158,171.056902 164.897471,170.886742 C163.500611,169.311366 163.215636,166.262071 163.215636,166.262071 C168.775857,170.943462 169.244946,159.323068 171.267791,156.269778 C172.001042,162.951545 172.167544,164.379129 174.421732,168.075511 C174.444145,168.113058 174.460956,168.147409 174.482569,168.183359 C175.651288,168.879176 176.310094,169.866582 178.785217,170.353894 C178.786818,170.357889 178.788419,170.361883 178.79002,170.365877 C180.242113,174.409768 178.324933,176.568321 175.341498,177.443086 C175.271855,177.463058 175.203012,177.482231 175.131768,177.499806 C174.957261,177.546939 174.779552,177.588481 174.59864,177.626827 C173.544392,177.838528 172.296424,177.936789 170.813111,177.878471 C170.732261,177.848114 170.64981,177.820952 170.56816,177.792193 C170.347224,177.605257 170.054244,177.43989 169.679613,177.282513 C168.897532,177.097973 168.159478,176.810379 167.46465,176.459674" id="path234" fill="#FFFFFF"></path>
                        <path d="M176.283677,166.039186 L181.843899,166.845248 L184.265389,166.413857 L183.982015,164.030022 C183.982015,164.030022 183.268776,163.573067 179.894699,159.115361 C178.724379,157.567945 178.586694,155.414186 178.999749,153.573585 C182.1705,152.428002 182.603566,152.4999 182.1705,149.155822 C182.842914,149.372316 183.476103,150.955681 183.982015,152.625323 C185.066682,156.205868 185.854367,159.47725 185.863973,161.816348 C185.878381,165.251498 185.051473,167.448396 185.026657,167.513904 C185.025056,167.517898 185.023455,167.521893 185.021854,167.525887 L181.462864,168.315971 L176.283677,166.039186" id="path236" fill="#FFFFFF"></path>
                        <path d="M116.835095,177.735473 C116.835095,177.735473 124.342915,193.782418 127.954738,193.782418 L127.905908,191.113386 C127.875489,189.420576 126.433802,182.37692 126.433802,182.37692 L132.612004,188.54661 C133.397287,189.595529 134.520378,192.850134 134.3931,194.153095 L134.294639,195.156478 C134.190575,196.226168 133.354861,197.080961 132.284602,197.210379 L126.188851,198.296845 L116.247533,184.373302 L116.835095,177.735473" id="path238" fill="#FFFFFF"></path>
                        <path d="M156.99901,174.430539 C156.530722,173.197879 156.015205,170.943462 156.015205,170.943462 C157.797902,173.912071 162.609663,178.495999 167.017175,179.886836 C168.062618,180.217569 166.884293,181.8952 167.0572,181.95192 C170.106276,182.950511 172.27481,183.018415 174.905229,182.414467 C175.646485,182.243509 174.765143,183.13505 174.512988,183.274054 C174.494576,183.282043 174.473764,183.294026 174.457754,183.300417 C171.665636,184.485943 168.270746,183.92833 166.8955,183.468979 C165.585894,183.030398 164.395562,182.499947 163.301288,181.915172 C161.675488,180.986084 160.142545,179.874853 159.004244,178.820342 C158.545562,178.374571 158.117298,177.920811 157.744269,177.458264 C157.699441,177.399148 157.64821,177.337635 157.608185,177.279317 C157.706646,177.48303 157.796301,177.706714 157.889959,177.948772 C157.997225,178.257137 158.106892,178.531949 158.21816,178.774007 C158.237372,178.819543 158.259786,178.868274 158.279798,178.914608 C158.297409,178.948161 158.312619,178.995295 158.330229,179.027249 C158.330229,179.027249 158.33103,179.028847 158.33183,179.029646 C158.627212,179.694308 159.03066,180.43646 159.69667,181.23693 C161.583431,183.862823 163.367729,184.67927 164.752582,185.228894 C164.303505,185.19614 163.832015,185.11865 163.342114,184.990031 C160.781338,184.147221 158.550365,182.197973 157.379244,180.736037 C157.164712,180.456432 156.957385,180.148866 156.750057,179.838904 C155.720624,178.105351 154.952951,176.065031 154.387003,173.926451 C155.573333,176.37739 157.531338,175.830962 156.99901,174.430539" id="path240" fill="#FFFFFF"></path>
                        <path d="M183.354428,173.876122 L182.998209,174.301921 C182.065635,175.387588 181.129859,176.518791 180.27013,177.916018 C180.265327,177.924007 180.259724,177.930398 180.255722,177.938387 C180.103628,178.158077 179.959539,178.383358 179.815451,178.60864 C178.520254,180.371751 176.093961,181.248913 176.774379,179.783781 C177.24667,178.979317 178.260894,178.245952 178.944515,177.917616 C182.047224,176.608265 181.551719,173.780257 182.698825,171.255821 C182.730845,171.243039 186.120931,169.0749 186.120931,169.0749 C189.30449,162.387541 190.981522,150.001827 190.83263,155.393415 C190.712556,159.713716 188.665697,164.516535 186.955044,168.518885 C186.716497,169.0749 186.445931,169.601357 186.154551,170.111836 C186.076103,170.247644 185.992852,170.373067 185.912002,170.504082 C185.735894,170.794073 185.553381,171.077673 185.364465,171.356479 C185.221177,171.562588 185.072285,171.758312 184.924194,171.954035 C184.399071,172.613904 183.873948,173.254599 183.354428,173.876122" id="path242" fill="#FFFFFF"></path>
                        <path d="M156.800488,193.225604 C159.330845,192.478659 162.146178,191.126967 166.399995,189.09224 C169.205722,187.750933 173.050488,185.698631 174.941251,185.75615 L176.009108,187.779693 C175.998702,187.785285 175.990697,187.790877 175.980291,187.797268 C175.787372,187.891535 175.561633,188.004975 175.314281,188.131197 C174.726719,188.404411 174.054305,188.690407 173.622039,188.95723 C173.530783,189.01395 173.432323,189.065877 173.339466,189.120999 C171.81853,189.862353 169.821301,190.769871 167.266128,191.702954 C163.001904,193.261554 158.368653,193.621845 156.800488,193.225604" id="path244" fill="#FFFFFF"></path>
                    </g>
                </g>
            </g>
        </g>
    </g>
</svg>