<?xml version="1.0" encoding="UTF-8"?>
<svg width="200px" height="200px" viewBox="0 0 200 200" version="1.1" xmlns="http://www.w3.org/2000/svg" xmlns:xlink="http://www.w3.org/1999/xlink">
    <!-- Generator: Sketch 54.1 (76490) - https://sketchapp.com -->
    <title>smu</title>
    <desc>Created with Sketch.</desc>
    <g id="smu" stroke="none" stroke-width="1" fill="none" fill-rule="evenodd">
        <g id="smu_BGL" transform="translate(0.000000, 0.000000)" fill="#E51636">
            <g id="smu" transform="translate(0.000000, 48.000000)">
                <g id="g10" transform="translate(99.999998, 52.362072) scale(-1, 1) rotate(-180.000000) translate(-99.999998, -52.362072) translate(0.000000, 0.350579)" fill-rule="nonzero">
                    <g id="g12">
                        <path d="M137.097123,3.33670107 C137.58218,3.33670107 138.133905,3.31267808 138.133905,3.96035622 C138.133905,4.48051138 137.712066,4.55684471 137.32241,4.55684471 L136.508617,4.55684471 L136.508617,3.33670107 L137.097123,3.33670107 Z M136.508617,1.26369537 L136.002295,1.26369537 L136.002295,4.9775516 L137.437353,4.9775516 C138.27241,4.9775516 138.645399,4.61655736 138.645399,3.95406887 C138.645399,3.29763785 138.209192,3.00467234 137.778157,2.91262636 L138.824134,1.26369537 L138.246548,1.26369537 L137.230456,2.91262636 L136.508617,2.91262636 L136.508617,1.26369537 Z M139.795399,2.87289073 C139.932755,4.4948792 138.758617,5.8351148 137.157468,5.82994238 C135.86379,5.82522974 134.640801,4.65180448 134.5431,3.36206888 C134.420686,1.73917812 135.592525,0.416666656 137.179882,0.423625851 C138.531031,0.429238495 139.681606,1.52590801 139.795399,2.87289073 L139.795399,2.87289073 Z M140.31264,3.12926429 C140.31264,1.40692525 138.909767,0.000673494236 137.167238,0.000673494236 C135.435629,0.000673494236 134.024135,1.40692525 134.024135,3.12926429 C134.024135,4.84262632 135.435629,6.25293088 137.167238,6.25293088 C138.909767,6.25293088 140.31264,4.84262632 140.31264,3.12926429 L140.31264,3.12926429 Z" id="path14"></path>
                        <path d="M126.548847,38.3627577 C125.461491,36.7286198 123.090802,33.1568957 122.657468,32.3412636 C122.222411,31.5259188 121.391951,30.2487349 123.777583,29.9833901 C126.16379,29.7160337 129.374709,29.2827579 130.655744,29.5240797 C132.093675,29.7943671 133.137928,30.4074705 132.149997,32.2195969 C131.42356,33.5488497 128.700571,37.7206887 128.308617,38.2401715 C127.91264,38.7625852 127.317238,39.5195967 126.548847,38.3627577 L126.548847,38.3627577 Z M107.887928,36.56316 C108.179308,34.9517233 109.813216,34.7862635 111.411491,34.7752865 C113.502296,37.4988496 114.589652,39.9849415 115.159767,41.6597116 C114.848273,42.3493668 114.267813,44.1960908 113.904595,45.1573552 C113.539078,46.1191368 112.499422,45.6948264 111.429308,45.5102862 C103.981032,44.2090794 96.1545953,49.5604585 89.7511472,50.6218378 C87.419538,51.0045964 87.9149403,49.6408034 88.2149403,48.1378149 C88.515515,46.6325276 90.4729862,39.3085622 92.0609172,35.5345393 C93.3310321,32.5155164 95.9413769,31.4581027 99.0040205,30.9229303 C102.780457,30.2620107 103.681032,27.8322407 105.617239,26.8689648 C106.408618,27.3987349 107.378733,28.4913786 107.696549,29.2874705 C107.311492,30.5356314 106.158618,30.5942521 104.736204,31.0885624 C102.258618,31.9499992 101.668963,32.994367 100.551147,33.794252 C97.1316068,36.2522405 97.9252849,38.1885048 99.7873538,38.0338496 C101.649423,37.8794243 105.058043,37.8879301 106.147698,38.0533899 C107.035055,38.1885048 107.59425,38.1752864 107.887928,36.56316 L107.887928,36.56316 Z M199.077007,59.5137916 C199.781604,58.5045962 199.509765,58.3178146 199.570685,57.217125 C199.651144,55.729194 197.993673,55.4790791 196.930455,53.2361481 C196.344823,52.0031596 195.914363,51.3178148 194.548271,50.915516 C193.182179,50.5129872 189.741375,51.348332 188.324708,52.8753435 C186.906892,54.4046538 188.00057,56.3599986 187.317811,57.5867802 C185.754018,60.3994238 183.006317,61.4586192 181.832179,62.5137915 C180.652869,63.5683892 179.321835,63.9534467 177.651145,64.3735616 C173.022409,65.5350558 172.413214,67.9844811 170.75172,70.3206879 C169.089651,72.6568947 168.086777,72.2431016 167.505743,72.1040212 C160.297122,70.3333316 151.762065,67.0620673 147.827008,64.6454007 C141.177008,60.5603433 138.410341,55.8858607 137.10287,48.5508609 C140.344249,43.282815 138.956318,41.6464357 138.852295,39.550114 C138.567238,33.9637348 140.751146,31.1752291 141.251146,29.774597 C141.756318,28.373505 141.71264,27.7143671 141.007468,26.9315511 C140.30287,26.1460338 139.367238,24.6499994 138.240801,23.6103442 C137.118387,22.5684477 136.035054,23.0489075 134.947123,23.3270684 C129.23333,24.7844821 124.593675,25.3890798 118.99425,25.6287925 C115.218388,25.7895396 111.764365,22.0655742 110.811491,21.0259765 C109.85402,19.9863213 111.283331,19.3332179 112.062066,18.820057 C114.239652,17.3843674 115.135629,15.6310341 117.001721,14.8006318 C118.870687,13.9695399 120.549997,13.4258043 121.498273,11.4895399 C122.179307,10.0931607 121.282756,8.91902277 120.5931,8.35109175 C121.493675,7.83494233 123.555744,6.21275847 124.510916,5.34033895 C125.46379,4.47018954 125.667813,2.66096545 124.349997,2.2431781 C123.036204,1.82763214 120.739077,1.19656894 119.403445,1.03560342 C117.763215,0.835580439 117.589078,1.92753443 117.258618,2.40391373 C115.803445,4.50520678 112.697124,7.75747107 109.98448,8.41367795 C105.138503,9.59298827 104.894825,12.1466664 101.758043,14.9613789 C99.9396527,16.5930456 99.6787331,15.2310341 97.4425263,13.4345974 C93.1396528,9.9735055 92.9701126,12.7471836 89.1459748,10.3867813 C82.8143657,6.48212627 82.5925267,8.91028713 82.9252853,9.92816067 C83.2517221,10.9460342 84.047699,12.5081031 85.5482737,15.6012065 C87.2454001,19.1006892 89.8752851,16.1097122 92.091377,18.0913214 C93.7988482,19.6183328 95.0718367,21.7367236 95.0718367,21.7367236 C91.9655149,24.993735 91.1908023,23.3402868 85.1091933,23.6144247 C79.458044,23.870804 79.1752854,25.82862 77.8827567,29.7793096 C74.548274,39.9678726 68.9212626,42.3666656 60.9511479,47.6353436 C54.2818377,52.0444815 57.1403434,54.2674699 53.1140217,58.1586192 C51.049539,60.1534468 51.0237344,61.4241364 50.5971826,63.5862053 C50.1751137,65.7482742 49.833447,65.7442512 47.9043091,66.0310328 C45.9727575,66.320688 38.5333324,67.0925271 34.7049991,70.4206879 C30.5809762,74.0057453 30.5004015,72.5718373 25.6559764,72.3390787 C9.9185055,71.588504 0.295438498,82.579883 0.010551379,88.2965495 C-0.145922985,91.411492 1.46776433,92.0965494 3.10367234,90.5540207 C4.7393562,89.0126415 9.54247103,85.4316071 16.8227007,84.6465496 C26.6067235,83.5936761 30.1066084,86.2086185 33.1216084,85.6643657 C39.0512634,84.5982737 38.7728726,81.9775842 42.0943093,76.9114923 C44.014884,73.9839062 55.7134469,79.0212624 57.327125,79.8476992 C64.7402283,83.6327565 73.0586189,88.6183886 86.9097679,86.4586185 C102.967239,83.9568945 114.922411,86.8304576 121.025859,89.0166644 C125.722411,90.6959747 123.379882,91.0632161 122.287928,91.8683885 C121.200572,92.6706873 117.828733,95.1137907 118.527009,96.5729861 C119.566664,98.7505722 131.621836,92.2160896 133.498847,94.5350551 C134.382181,95.629308 125.237353,100.158043 127.403445,102.80517 C129.557468,105.432756 132.471836,100.040227 139.898272,97.9718366 C144.12241,96.793101 145.597123,96.2752849 146.147697,96.9580436 C147.25287,98.3373539 145.06264,99.3339056 146.171835,100.325285 C147.64195,101.639078 151.701146,98.6247102 155.233329,97.0517217 C158.966088,95.3919516 154.994249,101.51494 161.524134,97.0362045 C166.362065,93.721262 169.64195,93.2839057 173.229306,93.2471241 C175.567812,93.2235609 174.71034,94.0045954 175.036777,95.6965493 C175.363214,97.393101 176.328731,102.295974 177.542524,103.096549 C179.963789,104.678158 180.35057,99.2620665 181.096547,95.309193 C181.8408,91.3591931 183.52011,88.5643656 187.883329,84.6747105 C191.241949,81.683906 190.817811,79.645975 191.707466,76.6890785 C193.223558,71.6454005 194.694248,65.7695386 199.077007,59.5137916 L199.077007,59.5137916 Z" id="path16"></path>
                    </g>
                </g>
            </g>
        </g>
    </g>
</svg>