<?xml version="1.0" encoding="UTF-8"?>
<svg width="200px" height="200px" viewBox="0 0 200 200" version="1.1" xmlns="http://www.w3.org/2000/svg" xmlns:xlink="http://www.w3.org/1999/xlink">
    <!-- Generator: Sketch 54.1 (76490) - https://sketchapp.com -->
    <title>southern-ill</title>
    <desc>Created with Sketch.</desc>
    <g id="southern-ill" stroke="none" stroke-width="1" fill="none" fill-rule="evenodd">
        <g id="southern-ill_BGL">
            <g id="Group-8" transform="translate(0.000000, 42.000000)">
                <path d="M197.953403,53.9319324 C193.186386,49.3202376 188.976702,46.3120146 186.866149,44.6879854 C184.502056,42.8720877 165.703518,30.4942896 165.703518,30.4942896 C159.520329,18.4796711 157.179077,15.638191 142.453175,8.89767017 C89.1525811,-15.5015989 80.7309274,20.3366834 57.1470991,13.5185016 C58.0493376,16.2160804 64.753312,21.3371402 64.753312,21.3371402 C53.5564185,32.3353129 35.1713111,30.0854271 35.1713111,30.0854271 C35.1713111,30.0854271 38.147556,35.514847 42.9259936,38.5207857 C33.8624943,37.9703061 22.4097762,34.0529922 22.4097762,34.0529922 C22.4097762,34.0529922 29.5431704,46.2137963 36.914116,50.2658748 C26.096391,63.0433988 13.8282321,65.0740064 0,64.4732755 C15.9798995,76.0790315 37.7798081,77.28963 37.7798081,77.28963 C37.3366834,97.2919141 61.0118776,110.089995 61.0118776,110.089995 C61.0118776,110.089995 56.8067611,98.6030151 57.5445409,92.6436729 C67.0740064,112.179991 86.8410233,115.227044 86.8410233,115.227044 C84.6733668,110.86889 84.0680676,109.56921 82.8506167,105.699863 C87.03746,109.256281 95.2672453,112.657378 95.2672453,112.657378 C93.7163088,108.009137 90.3746003,101.590681 89.5203289,90.222476 C92.284148,104.434445 113.55185,111.435359 113.55185,111.435359 C109.367291,104.69027 108.602101,103.657835 107.085427,100.492005 L110.191868,102.712197 C110.191868,102.712197 106.265418,89.3316583 107.606213,82.2736409 C114.54317,76.2594792 116.375057,72.2873458 121.811329,70.1973504 C135.584742,64.898127 142.766103,73.9798995 146.212883,77.0772042 C153.131567,83.2946551 159.703061,83.8200091 166.875286,83.9730471 C168.675194,85.1082686 170.342622,86.1932389 171.994061,85.3481042 C172.777524,84.9483783 173.339424,84.2288716 173.540429,83.3746003 C175.64413,74.3476473 171.75651,69.6742805 167.418913,68.3106441 C161.628598,66.487894 158.501599,63.3334856 155.472819,58.7971677 C162.709,62.3238922 175.936501,69.6240292 184.088625,69.2243033 C189.440384,68.9661946 196.509822,64.882138 198.608954,62.042942 C200.632709,59.3065327 200.33577,56.2366377 197.953403,53.9319324" id="Fill-1" fill="#FEFEFE"></path>
                <path d="M117.236638,102.276153 L118.106898,104.711055 L118.981727,102.276153 L119.947921,102.276153 L119.947921,105.67725 L119.324349,105.67725 L119.324349,102.931704 L118.38328,105.67725 L117.839653,105.67725 L116.889447,102.931704 L116.889447,105.67725 L116.263591,105.67725 L116.263591,102.276153 L117.236638,102.276153 Z M112.789402,102.842622 L112.789402,102.276153 L115.687985,102.276153 L115.687985,102.842622 L114.575605,102.842622 L114.575605,105.67725 L113.899497,105.67725 L113.899497,102.842622 L112.789402,102.842622 Z" id="Fill-4" fill="#73253E"></path>
                <path d="M82.8773413,34.3193239 C69.4442668,43.8602101 62.5552764,66.311101 72.9184559,91.7679306 C65.6594335,56.0370032 82.8773413,34.3193239 82.8773413,34.3193239 M80.7302421,30.201005 C80.7302421,30.201005 88.352444,22.1288259 98.4483783,21.3179534 C82.8773413,34.3193239 84.8074463,59.1023298 84.8074463,59.1023298 C85.1043856,48.8990407 92.564413,26.512106 110.515532,16.6491549 C110.515532,16.6491549 107.63979,15.7080859 103.44381,16.4024669 C106.586798,14.0634993 114.190726,12.6153495 118.361581,13.6546368 C102.107583,5.59387848 88.6996345,16.7336683 88.6996345,16.7336683 C88.6996345,16.7336683 94.5835998,14.0246688 100.32138,15.0571037 C100.32138,15.0571037 88.0235267,16.0735496 80.7302421,30.201005 M78.7133394,97.6427593 C79.1656007,105.059388 82.2948835,111.336227 82.2948835,111.336227 C68.1491549,106.594335 60.5886249,94.3467337 56.7740978,85.1461855 C54.7366377,90.3403381 54.0171311,96.4138876 56.1596619,103.20466 C28.3958429,82.1836455 45.9426679,55.5733212 45.9426679,55.5733212 C40.0312928,60.4613979 37.2377798,66.7610781 35.944952,73.7756967 C28.784148,73.3394244 20.5132481,71.3499315 11.113979,66.9026953 C11.113979,66.9026953 27.9595706,66.7039744 40.6936958,49.6094107 C36.314984,47.1128369 32.2263591,43.5381453 28.7042028,38.5427136 C55.7096848,46.372773 68.6653723,34.0703518 68.6653723,34.0703518 C68.6653723,34.0703518 71.8449063,25.6052992 82.3428506,19.8538145 C70.0290087,23.1041571 68.7613065,35.3654637 47.9458657,38.4833257 C44.8257195,36.9483783 42.2126542,35.0867976 40.48127,32.8186386 C55.2208771,33.3005939 61.3994975,26.2677021 69.4511192,21.3019644 C67.5278666,20.3426222 65.666286,18.9835541 63.9257652,17.0945637 C77.4593422,19.0749201 83.5351759,2.60621288 104.994746,7.3595249 C103.594564,6.14435815 101.694153,5.29237095 99.5676108,4.70534491 C116.550251,0.774326176 136.643901,9.29876656 144.149612,12.5788031 C157.671768,18.4856099 158.679077,26.4984011 163.637963,32.4508908 C154.766332,29.4814984 160.056418,20.7126542 136.390361,13.9173138 C137.916172,15.0411147 138.918913,16.3659205 139.576747,17.592508 C135.289402,18.3462768 130.81704,21.1557789 129.078803,25.1347647 C123.183417,23.7985381 117.939013,25.61672 116.513705,27.0648698 C120.138648,26.7336683 123.382138,27.9762449 125.606898,29.1868433 C99.5127912,28.6089539 98.3730014,46.4846962 119.702376,55.2398355 C111.358383,54.0886249 101.616492,54.3398812 94.1199178,58.0287803 C93.4004111,61.4778438 93.8184102,65.0730927 95.2779808,67.530836 C93.2268159,66.6857012 91.669027,65.5527638 90.4789858,64.3033349 C86.6416172,75.9182275 84.6132937,91.2334399 90.666286,107.597076 C85.5566469,105.127912 81.6164915,101.708543 78.7133394,97.6427593 M147.361124,61.6194609 C147.742577,62.2019187 148.754454,63.1589767 149.974189,63.7894016 C150.168342,63.8876199 150.396757,63.7322979 150.376199,63.5153038 L150.150069,61.1283691 C150.134079,60.9684788 149.990178,60.8588397 149.834856,60.879397 L147.555276,61.1968936 C147.356556,61.2265875 147.249201,61.450434 147.361124,61.6194609 M162.758566,74.938328 C162.795112,76.2722704 163.77958,76.8661489 164.50137,77.1265418 C164.745774,77.2156236 165.003883,77.2293285 165.246003,77.1790772 C165.234582,77.5171311 165.305391,77.8643216 165.597762,78.0584742 C166.200777,78.4559159 167.196665,78.2914573 168.133166,77.4760164 C168.199406,77.4166286 168.156007,77.300137 168.066926,77.2955688 C167.217222,77.2544541 166.666743,77.2179077 166.011192,76.7450891 C167.119004,75.6281407 167.169255,73.9447236 167.128141,73.2160804 C167.121288,73.0698949 166.952261,72.994518 166.840338,73.085884 C166.344678,73.4810416 165.102101,74.3033349 162.909319,74.7555962 C162.822522,74.7715852 162.756281,74.8515304 162.758566,74.938328 M146.212197,60.2581087 L146.07058,56.5349475 C146.066012,56.4116035 145.944952,56.3293741 145.82846,56.3682047 L142.89333,57.3663773 C142.808817,57.3960713 142.753997,57.4783006 142.767702,57.5650982 C142.870489,58.2320694 144.119918,59.6710827 145.963225,60.4362723 C146.082001,60.4888077 146.21905,60.3928735 146.212197,60.2581087 M142.598675,56.7176793 L144.035404,54.0680676 C144.090224,53.965281 144.074235,53.8350845 143.99429,53.750571 L142.977844,52.6564641 L142.493604,50.7925994 C142.454774,50.632709 142.278894,50.5459114 142.125857,50.6052992 L137.769986,52.3343993 C137.54614,52.423481 137.415943,52.6747373 137.505025,52.8985838 C137.785975,53.6340795 138.788716,53.7642759 139.535633,54.4084057 C140.428735,55.1781635 140.307675,56.5326633 142.08931,56.94381 C142.290315,56.9917771 142.500457,56.898127 142.598675,56.7176793 M137.166971,52.0077661 L138.060073,49.6893559 C138.101188,49.5774326 138.016674,49.4586569 137.897899,49.4632252 L135.403609,49.5797168 C135.323664,49.5820009 135.259708,49.6368205 135.246003,49.7121974 C135.175194,50.107355 135.120375,51.3225217 136.945409,52.1014162 C137.029922,52.1379625 137.132709,52.0945637 137.166971,52.0077661 M192.153266,64.2850617 C192.153266,64.2850617 188.404979,66.6331658 183.971448,66.8501599 C173.354728,67.3663773 157.059616,53.5084513 147.297168,54.0292371 C154.119918,57.2795797 154.89196,67.0534491 166.64847,70.7514847 C173.050937,72.7638191 171.447465,81.0758337 171.047739,82.7912289 C170.990635,83.040201 170.721106,83.1841023 170.485838,83.0835998 C169.183874,82.5376884 167.964139,81.6765646 166.881453,80.7263591 C166.625628,81.2882595 166.059159,81.7039744 165.344221,81.6834171 C157.523298,81.4572864 151.03175,79.4358154 143.114893,71.3590681 C139.784605,67.96254 130.373915,64.1640018 120.894701,67.8095021 C114.547053,70.2489721 112.790544,74.568296 105.218593,80.941069 C103.985153,88.2160804 106.059159,96.6126085 106.059159,96.6126085 C106.059159,96.6126085 104.017131,95.1507538 101.584513,92.5947921 C103.01439,99.3444495 106.961398,105.678392 106.961398,105.678392 C95.8147556,100.680676 91.9956601,92.9100046 91.2830059,85.6281407 C102.49132,78.8328004 105.48127,72.7272727 113.219963,67.9145729 C109.793741,66.2174509 102.836227,67.7523984 102.836227,67.7523984 C116.790087,57.0603015 135.220877,60.2558246 146.212197,68.8487894 C150.988351,72.5788031 153.535176,77.8437643 162.267474,78.8693467 C155.581772,76.7519415 156.187072,70.2786661 143.299909,63.9150297 C133.496345,59.0749201 129.773184,54.6322522 130.757652,51.0461398 C129.524212,50.9639105 128.551165,51.0164459 128.551165,51.0164459 C128.551165,51.0164459 131.235039,46.7450891 138.496345,46.5486524 C141.050023,46.4801279 144.067382,46.7565098 146.815212,47.6815898 C160.092965,52.1562357 180.001599,66.5372316 187.383965,60.2147099 C185.3328,55.9502056 187.543856,51.9643673 187.543856,51.9643673 C187.292599,50.9798995 185.303106,48.3005939 182.950434,44.8241206 C187.596391,47.8072179 190.339653,49.876656 196.301279,55.6418456 C199.512791,58.750571 195.223161,62.9465509 192.153266,64.2850617 M140.716537,27.0306076 C143.171996,25.0845135 148.628826,24.5888534 148.628826,24.5888534 C148.628826,24.5888534 148.375286,23.4033805 147.260621,21.7291 C151.490863,22.932846 155.494975,27.5239836 157.722019,32.3343993 C156.796939,32.3343993 153.569438,30.0867976 149.380311,30.6441297 C148.206259,29.2096848 143.203974,26.6057561 140.716537,27.0306076" id="Fill-6" fill="#73253E"></path>
            </g>
        </g>
    </g>
</svg>