<?xml version="1.0" encoding="UTF-8"?>
<svg width="200px" height="200px" viewBox="0 0 200 200" version="1.1" xmlns="http://www.w3.org/2000/svg" xmlns:xlink="http://www.w3.org/1999/xlink">
    <title>Teams/BGD/southeastern-la</title>
    <defs>
        <polygon id="path-1" points="-1.49953549e-15 0 200 0 200 108.214411 -1.49953549e-15 108.214411"></polygon>
    </defs>
    <g id="Teams/BGD/southeastern-la" stroke="none" stroke-width="1" fill="none" fill-rule="evenodd">
        <g id="southeastern-la" transform="translate(0.000000, 46.000000)">
            <g id="Group-3">
                <mask id="mask-2" fill="white">
                    <use xlink:href="#path-1"></use>
                </mask>
                <g id="Clip-2"></g>
                <path d="M123.364054,26.496455 L130.2583,26.496455 L125.848097,49.2527522 L112.36967,49.2492287 L113.67805,42.5111896 C118.616773,34.4506767 119.706698,31.3441553 120.040252,29.7362809 C120.378505,29.1860331 121.756767,27.944599 122.872531,26.9398243 C123.032849,26.794775 123.197864,26.6473767 123.364054,26.496455 Z M29.2317569,34.3396876 L30.5101874,27.6386448 L50.0425143,27.6386448 L49.163997,32.2449878 L56.9103343,33.5962365 C59.4360713,35.8119086 59.5165238,36.2282647 60.0051109,38.7457802 C60.1225597,39.3512289 60.2546896,40.0336066 60.4326246,40.8287352 C58.1341511,39.8045814 55.290715,39.0100401 51.8013104,38.3969572 L30.1654751,34.5229077 C29.7596894,34.4565491 29.4566714,34.3943013 29.2317569,34.3396876 Z M168.20719,9.36008414 L164.887499,26.496455 L174.13542,26.496455 L166.784298,64.4723582 L160.535433,64.4723582 C160.211274,63.9638048 159.993407,63.5762237 159.883005,63.3137255 C160.423857,61.8984672 161.086855,60.6382413 161.630643,59.6041044 C162.273088,58.3826366 162.742296,57.4906128 162.927278,56.5780354 L164.619129,49.2639098 L148.397097,49.2597991 L156.122293,9.36008414 L124.795168,9.36008414 L123.510865,15.9871341 C121.049725,5.33570014 120.941085,4.86179413 120.49243,2.9144926 L119.803006,0 L55.8245199,0 L55.8245199,9.34599028 L30.0756267,9.34599028 C17.697695,9.34599028 10.4041229,14.6822777 8.39692252,25.2074541 L6.40557768,35.6498292 C5.64627103,39.6289954 6.20708917,43.0168068 8.07276376,45.7193043 C10.5808834,49.3531709 15.1279147,51.5764772 22.8067189,52.9265514 L44.4425543,56.8000137 C44.84834,56.8669595 45.1513579,56.9292074 45.3756852,56.9838211 L43.9498564,64.4582643 L22.7885143,64.4582643 L23.7310412,59.5171923 L2.38295542,55.5157108 L0.418036567,65.8171472 C-0.551503486,70.8973962 0.167283325,74.9370485 2.55501794,77.8221789 C5.29862251,81.1389338 10.0006862,82.7509189 16.9319287,82.7509189 L44.3850043,82.7509189 C50.3484685,82.7509189 55.1309846,81.5118338 58.7114121,79.0512809 C58.2275229,79.6772831 57.8276097,80.2474972 57.5498432,80.740195 C55.9220025,83.6282616 56.7981707,87.4523954 60.0849761,91.7980019 L61.3176015,93.6202204 L63.4023181,92.8873398 C73.6456175,89.2834226 76.6329283,89.3298148 82.2088113,93.1674552 C85.263068,95.2697892 95.3666032,98.4972829 99.1073483,98.233023 C100.861447,98.10794 102.203887,97.2018224 103.503458,96.3256541 C106.202432,94.5051973 108.994778,92.6224927 116.924335,97.8207777 C117.215021,98.0110448 117.754698,98.4315116 118.3255,98.8766426 C121.146033,101.075285 126.395408,105.166614 132.143354,105.863086 C135.025548,106.211322 137.358082,104.968713 139.232565,103.971573 C140.886832,103.091294 141.649662,102.758914 142.097142,102.998509 C148.171595,106.223654 152.077356,102.495241 153.744542,100.902048 C153.883719,100.768743 154.051671,100.609013 154.195545,100.476883 C155.835718,100.581412 156.209793,101.183338 157.299131,102.938023 C158.369677,104.662172 160.597094,108.250233 165.092447,108.250233 C165.093035,108.250233 165.093035,108.250233 165.093622,108.250233 C166.616346,108.250233 172.972089,107.08749 176.070389,103.396661 C177.565513,101.616136 178.146297,99.4844403 177.750495,97.2335335 C176.987077,92.8990846 173.001451,90.8008614 169.798035,89.113709 C169.735199,89.0802361 169.672364,89.0473504 169.611291,89.0156392 L170.080499,88.5270521 C171.7424,86.7805881 173.703795,84.7217102 174.207063,82.1078866 C182.308683,80.3719929 187.226853,75.2776501 188.842949,66.9334983 L200,9.36008414 L168.20719,9.36008414 L168.20719,9.36008414 Z" id="Fill-1" fill="#FFFFFE" mask="url(#mask-2)"></path>
            </g>
            <polyline id="Fill-4" fill="#1D4C30" points="126.596246 60.6875698 125.232665 68.0234234 94.2696312 68.0234234 105.010914 12.2217248 79.0482634 12.2217248 76.8361148 23.6354016 86.0840353 23.6354016 75.1748012 79.9309726 139.548502 79.9309726 143.27809 60.6875698 126.596246 60.6875698"></polyline>
            <path d="M170.567912,12.2217248 L168.35635,23.6354016 L177.604271,23.6354016 L169.520268,65.3990294 C169.238391,66.8501097 168.564235,67.3334116 166.823643,67.3334116 L159.009773,67.3334116 C157.75953,65.5387935 156.731265,63.9232849 157.000811,62.8615476 C158.162379,59.5577121 159.918239,57.1177128 160.12906,55.9790464 L161.020497,52.1243759 L144.92942,52.119678 L152.65403,12.2217248 L127.155302,12.2217248 L124.943154,23.6354016 L133.727151,23.6354016 L128.208231,52.11498 L108.899644,52.1096948 L110.968505,41.4559119 C114.748596,35.322147 116.865611,31.1456668 117.260239,29.0398093 C117.506881,27.7261442 119.679097,26.0084551 122.325807,23.571392 C117.886828,4.35735142 118.262664,6.05213797 117.52626,2.85341921 L58.6855733,2.85341921 L58.6855733,12.3127476 C57.8082306,12.2434528 56.8809721,12.2076309 55.8990999,12.2076309 L30.0750395,12.2076309 C19.0242795,12.2076309 12.9592221,16.5585226 11.2074729,25.7441953 L9.21554083,36.1859831 C7.55598893,44.8877666 13.4061149,48.3689498 23.3105744,50.1095413 L44.9076516,53.9771312 C47.8397615,54.4598458 48.6413498,55.1369383 48.2355641,57.2639365 L46.6864141,65.3855228 C46.4098221,66.8360158 45.7356658,67.319905 43.9909635,67.319905 L21.6563077,67.319905 C19.9110181,67.319905 19.4218438,66.8360158 19.6984357,65.3855228 L20.3420553,62.1321904 L4.65852641,58.8536064 L3.22799971,66.3533011 C1.47625048,75.5383865 5.88116868,79.8898655 16.9319287,79.8898655 L44.3850043,79.8898655 C55.4363516,79.8898655 61.5008217,75.5383865 63.2531581,66.3533011 L65.3919012,55.1369383 C67.0520404,46.4351548 61.2013272,42.9545589 51.2968677,41.2139673 L29.6997905,37.3463775 C26.7682678,36.8630756 25.9666795,36.1859831 26.3724652,34.0589849 L27.774217,26.7107991 C28.0502217,25.2608934 28.724378,24.7770042 30.4696675,24.7770042 L51.1753082,24.7770042 C52.9200105,24.7770042 53.4091848,25.2608934 53.1325929,26.7107991 L52.4924968,29.6305769 L58.6855733,30.8244442 L58.6855733,31.3476787 C63.3571003,35.4301999 61.9342078,35.8195428 63.8280701,42.5981017 C64.0911555,42.8130331 70.1004247,46.6794484 68.744478,54.3799806 C68.6575658,54.8327459 65.2697545,71.5421902 64.2273961,76.9653898 C62.4832811,78.9543856 60.6962972,80.985663 60.0426945,82.1460574 C58.3602401,85.1298448 62.2759839,89.9264549 62.4527444,90.1877785 C73.2098823,86.4035774 77.2107765,86.2532429 83.8313668,90.8102573 C86.6084443,92.7217369 96.041934,95.5775051 98.9035746,95.3796038 C102.636686,95.1135822 105.530037,86.9309226 118.492277,95.4271706 C120.466004,96.7202822 126.310258,102.27385 132.486304,103.022586 C136.765552,103.538774 139.959573,98.6217787 143.439582,100.471598 C149.51521,103.699091 151.839522,97.5982121 153.584811,97.5982121 C157.351983,97.5982121 158.401388,99.2883007 159.729734,101.427631 C160.675197,102.950355 162.188525,105.38918 165.093622,105.38918 C166.402589,105.38918 175.959987,103.574008 174.931723,97.7291676 C174.412599,94.7776786 171.388879,93.1856598 168.465578,91.6459057 C164.636159,89.6310711 164.533391,90.2006979 168.007527,86.5533246 C170.059945,84.3981387 171.998438,82.3627505 171.328393,79.7589101 C171.32252,79.7354203 171.310775,79.7142795 171.304903,79.691377 C179.723048,78.6766191 184.49147,74.3515661 186.03416,66.389123 L196.531149,12.2217248 L170.567912,12.2217248" id="Fill-5" fill="#1D4C30"></path>
            <path d="M139.548502,79.9309726 L75.1748012,79.9309726 L86.0840353,23.6354016 L76.8361148,23.6354016 L79.0482634,12.2217248 L105.010914,12.2217248 L94.2696312,68.0234234 L125.232665,68.0234234 L126.596246,60.6875698 L143.27809,60.6875698 L139.548502,79.9309726 Z M166.529434,95.2703764 C163.458147,93.6536933 159.638711,91.6423822 161.299438,88.4712639 C162.081059,86.9779021 163.334238,85.5550096 164.572149,84.2395827 C165.693198,83.0492389 166.961645,81.5858265 166.818358,80.8335668 C166.793106,80.6985007 166.713241,80.4964887 166.318613,80.3109195 C164.941526,79.6608403 163.673666,80.1235887 162.326528,81.7643488 C161.042812,83.3281799 159.089051,85.1222107 157.037807,84.8033371 C155.80753,84.6095465 155.266091,83.9324541 155.028258,83.3974747 C154.364084,81.9064618 155.456946,79.814111 156.484036,78.1574953 L156.277326,78.1962534 C154.057543,79.2139475 148.859845,81.5969842 145.908943,79.4012784 C144.788482,78.567979 144.172463,77.3476857 144.171875,75.9647258 C144.171288,74.4754747 144.912977,72.9592103 146.062214,72.1024211 C148.486358,70.2948837 151.837173,71.5486499 154.795122,72.6556051 C155.617851,72.9639083 158.101306,73.8929285 158.433686,73.6251452 C158.448367,73.3972944 157.802399,72.4136605 156.493432,70.740602 C154.456869,68.1373488 151.92526,64.9028081 153.124999,61.4979667 C153.661153,59.9723065 154.320628,58.9023477 154.850323,58.0437967 C155.261393,57.3761002 155.599059,56.8282014 155.759376,56.2726685 L103.918639,56.2121823 L107.101503,39.8967787 L107.194874,39.7470315 C112.218748,31.6160493 113.083759,29.0210175 113.221761,28.2828516 C113.690382,25.7811917 115.979459,23.7598974 117.493375,22.4221553 L117.782886,22.1655296 L114.25766,6.95003424 L62.7945205,6.91303786 L62.7945205,12.9910146 C68.7274479,14.6159191 70.9278516,18.7959228 69.6030289,25.7441953 L68.2811424,32.673676 L64.9344381,32.0282947 C66.2616098,34.0959812 66.6356843,36.1119903 66.995665,38.0804326 C67.1324928,38.8297562 67.2622738,39.5391471 67.443145,40.2520614 C73.464159,45.3839879 73.3754852,51.773204 72.7841303,55.1316531 C72.7794324,55.1592536 72.6508259,55.7993497 72.2538489,57.7707282 C71.1615748,63.1939277 68.8901145,74.4801726 68.1525359,78.313115 C68.1666297,78.7112665 67.866548,79.0518681 67.267559,79.7307223 C66.471256,80.6327293 64.3918245,82.9899272 63.7352856,83.9800208 C63.7863758,84.2507404 63.962549,84.7440255 64.1815911,85.2314381 C74.9839468,81.6052056 79.7083258,82.9834676 86.1615515,87.4259694 C88.337291,88.9240291 96.6256546,91.2771164 98.4972017,91.2841633 C98.7444314,91.1778721 99.1008886,90.9194847 99.5454324,90.5965004 C102.254977,88.6309943 108.598388,84.0299366 120.744945,91.990618 C121.204758,92.2918742 121.823713,92.7722399 122.541325,93.3283601 C125.189209,95.3813656 129.19069,98.4843635 132.980764,98.9435884 C133.678997,99.0228664 134.771859,98.4461927 135.930491,97.8325226 C138.3194,96.5664242 141.587414,94.834054 145.367504,96.8430162 C147.0711,97.7479594 147.633092,97.1753964 148.86513,95.9257409 C149.936851,94.8399265 151.268133,93.489265 153.584811,93.489265 C159.638124,93.489265 161.79331,96.9622268 163.219726,99.260113 C164.289685,100.981913 164.656125,101.396507 165.419542,101.243824 C168.325814,100.671261 171.033596,99.2830155 170.885611,98.4414947 C170.714723,97.4748909 168.295864,96.2011584 166.529434,95.2703764 L166.529434,95.2703764 Z" id="Fill-6" fill="#F6C03C"></path>
        </g>
    </g>
</svg>