<?xml version="1.0" encoding="UTF-8"?>
<svg width="200px" height="200px" viewBox="0 0 200 200" version="1.1" xmlns="http://www.w3.org/2000/svg" xmlns:xlink="http://www.w3.org/1999/xlink">
    <title>st-francis-ny_BGL</title>
    <g id="st-francis-ny_BGL" stroke="none" stroke-width="1" fill="none" fill-rule="evenodd">
        <g id="St-Francis-Brooklyn-Copy" transform="translate(8.000000, 0.000000)">
            <path d="M182.823605,81.5495638 L182.598774,80.9154906 C182.598774,80.9154906 182.352892,80.5256155 182.128903,80.1997373 C181.896494,79.860386 181.552932,79.3997777 181.271683,79.0730574 C181.171478,78.973694 181.071272,78.8633837 180.970225,78.7497053 C181.892283,70.5774866 182.406784,61.8806629 182.427835,52.6078682 L181.804709,43.3906497 L174.548654,38.4628987 C168.271077,34.2012193 161.470578,30.3513086 154.214524,27.0201085 C154.041901,26.5653946 153.870962,26.1300482 153.703392,25.7258581 C151.657179,20.784634 148.364714,14.1474957 143.652531,9.24079625 C140.421537,5.8767557 135.035703,2.12705042 130.379097,0.895954731 L126.991478,0 L124.319613,2.24914952 C124.046785,2.47650645 120.274344,5.67971303 116.740207,11.1354374 C116.392435,11.1514366 116.041295,11.1733302 115.689313,11.2011183 C112.610731,7.91370541 108.918286,6.58324632 106.079693,5.97948735 C99.9216882,4.66923776 93.0091953,3.53834754 86.0983866,3.70086564 C77.081579,3.91138132 69.4457543,10.231062 65.0872377,14.1980195 C64.5247398,14.7099936 63.9656102,15.2724915 63.4207956,15.8737243 C42.6075314,19.4508067 23.5836505,26.9476911 7.91117922,37.5332615 L0.602074843,42.4702752 L-5.46903289e-15,51.6176025 C0.234093435,175.599549 86.6533059,198.819428 88.8915086,199.365085 L91.4960086,200 L94.0979824,199.360874 C94.9408872,199.153727 107.777291,195.687797 123.412712,184.789821 C125.208832,186.399845 127.946377,187.428846 131.016538,187.428846 C136.427633,187.428846 140.812254,184.239112 140.812254,180.29489 C140.812254,177.808279 139.059079,175.6206 136.405739,174.344875 C149.964633,161.849507 163.745832,143.553168 172.648119,117.132608 C181.737344,109.955708 188.387113,97.2380343 182.823605,81.5495638 Z M128.963589,183.763347 L127.548924,183.763347 L127.548924,179.518509 L126.379299,179.518509 L126.379299,178.319411 L130.133214,178.319411 L130.133214,179.518509 L128.963589,179.518509 L128.963589,183.763347 Z M132.639193,178.319411 L133.743979,181.22958 L134.914446,178.319411 L136.320691,178.319411 L137.145071,183.763347 L135.727879,183.763347 L135.33211,180.629189 L135.318637,180.629189 L134.010913,183.763347 L133.447573,183.763347 L132.197952,180.629189 L132.184479,180.629189 L131.728923,183.763347 L130.321836,183.763347 L131.244737,178.319411 L132.639193,178.319411 Z M177.009162,101.805382 C174.959581,106.832497 171.352184,110.872714 167.343124,113.596787 C166.418539,116.464852 165.432483,119.23187 164.395904,121.904577 C154.945434,146.257873 141.139816,162.633467 128.14763,173.478393 C125.899323,175.35535 123.674593,177.072316 121.502071,178.630132 C105.910438,189.812725 92.9637239,193.114453 92.589006,193.20708 L91.4901142,193.477382 L90.3920644,193.208764 C89.432955,192.974671 6.35252114,171.935734 6.31294419,51.8483277 L6.71292398,45.9892553 L11.4571053,42.7843646 C24.9393715,33.6774563 41.1305534,26.9241133 58.9241807,23.1803025 C61.3754252,22.6649601 63.8552999,22.2026677 66.3654889,21.8026879 C67.1511334,20.6869548 68.0917175,19.629324 69.1518744,18.6634781 C70.7139008,17.2412341 72.4906531,15.7347839 74.4181347,14.3689582 C77.9564822,11.8612954 82.0110142,9.83697666 86.2398531,9.73761326 C92.4509077,9.59277847 98.8261646,10.6099902 104.823335,11.8865573 C106.689346,12.2831689 108.788609,13.0384991 110.621779,14.6881 C111.485735,15.4653239 112.291589,16.4395904 112.983765,17.6723702 C115.345751,17.1688167 118.038668,17.0290343 120.158139,17.2286032 C120.329078,16.903567 120.505911,16.5911617 120.682744,16.2795985 C124.026575,10.3977904 128.17205,6.8998619 128.199838,6.87628415 L128.480245,6.63966452 L128.834754,6.73397555 C132.099431,7.59708983 136.565731,10.580518 139.296541,13.4241638 C142.050086,16.2905453 144.311866,20.0006737 146.098723,23.5937553 C146.858264,25.1195729 147.540335,26.6268652 148.123884,28.0364782 C148.661962,29.3357809 149.151201,30.652767 149.581495,31.8847048 C152.097578,32.9920172 154.555559,34.1666947 156.957122,35.3994746 C161.890768,37.9307151 166.578531,40.7112062 170.988413,43.7064233 L175.704806,46.9071036 L176.116575,52.8428037 C176.111523,60.0070733 175.801644,66.8084139 175.23662,73.2796659 C175.035367,75.5843915 174.798747,77.8436458 174.532655,80.0633231 C174.668227,80.303311 174.823167,80.5677187 174.984843,80.8169692 C175.453872,81.5411432 176.129206,82.4690963 176.965374,83.3044225 L177.132103,83.5679881 C178.379198,87.0852841 178.862542,90.4198525 178.76402,93.5304321 C178.669709,96.50965 178.038162,99.2825626 177.009162,101.805382 L177.009162,101.805382 Z" id="Fill-1" fill="#FFFFFE"></path>
            <path d="M170.398127,83.4787295 C170.398127,83.4787295 165.595002,79.8974368 161.003234,74.0914143 C159.217218,71.8330021 157.46236,69.2386069 156.035906,66.3865405 C150.471555,55.2654182 143.90515,53.9155916 143.90515,53.9155916 C141.231601,52.8225942 138.976557,52.8512244 138.976557,52.8512244 C141.513692,51.3178282 144.129139,51.2630941 146.262926,51.6790731 C147.434235,50.6694399 149.015629,49.4316077 150.946478,48.1979858 C151.74728,47.6868537 152.601132,47.1765637 153.517296,46.6856411 C149.21604,44.7421604 143.520327,42.6176362 143.520327,42.6176362 C143.520327,42.6176362 132.236687,18.0218263 109.045438,24.5393917 C109.045438,24.5393917 108.954495,22.6220149 108.385261,20.7955809 C107.932231,19.3430227 107.176901,17.9485668 105.920543,17.6218465 C100.597865,16.2366533 89.1550743,14.6131564 84.7224561,15.1916535 C82.9743339,15.4190104 78.7227593,17.8390987 75.0791539,20.6692714 C73.0110479,22.2759271 71.1374583,24.0131025 70.0343562,25.5608138 C68.6828455,27.4554549 69.106403,29.6566068 70.5143319,31.1613729 C70.6381151,31.2927347 72.0494122,32.4556233 73.5390212,35.0609653 C75.4951329,38.4839503 77.5868167,44.3994409 77.0723163,53.7606521 C77.0723163,53.7606521 77.8049109,54.4014618 79.1033716,54.1505271 C80.0119573,53.974536 87.284853,51.2614099 91.9431439,33.9603894 C92.816363,30.7150797 93.5994813,26.9586379 94.2293442,22.6068578 C94.2293442,22.6068578 96.9104719,20.1547711 100.364613,21.7681633 C105.066691,23.9642629 104.129476,30.9095961 102.143892,34.384789 C101.830644,34.9338139 101.492977,35.4045269 101.145205,35.7472465 C101.145205,35.7472465 101.087945,35.1148574 100.847957,34.2820573 C100.413453,32.7705548 99.369295,30.5879282 96.9214187,30.262892 C96.7487959,31.5259861 96.5307016,32.7840278 96.2873455,34.0395433 C95.2010846,39.6384183 93.3695982,45.1109839 90.2514399,49.986527 C87.2840109,54.6288188 78.8549631,61.5345751 73.1011486,55.3252046 C73.2493516,52.6415507 73.2291421,49.8408501 72.8687393,47.0923574 C69.5038566,47.8737916 63.184176,50.4681869 53.8246489,58.9317592 C54.8620701,58.7220856 61.976658,60.753983 61.976658,60.753983 C61.9076089,60.780929 45.4806494,68.5666408 35.7253528,76.6597056 L57.5583549,76.6597056 L65.3979588,83.0282259 L65.3979588,93.1944491 L94.5872209,93.1944491 C94.2167133,74.3718212 110.001179,65.1470242 110.001179,65.1470242 C105.526458,71.2460844 101.287514,81.8097612 103.374987,93.1944491 L111.670989,93.1944491 L111.670989,110.018862 C112.198963,110.633568 112.754724,111.245748 113.338273,111.853717 L114.024555,111.853717 C114.266227,108.637037 115.133551,106.018222 115.133551,106.018222 C115.133551,106.018222 116.325912,108.685877 118.537169,111.853717 L122.194247,111.853717 C121.681431,104.469669 123.739432,99.3162451 123.739432,99.3162451 C123.739432,99.3162451 124.616019,102.558187 126.306881,105.202263 C127.154838,86.5404695 147.493179,84.2323756 147.493179,84.2323756 C147.493179,84.2323756 145.111826,85.8819765 142.114083,88.6456263 C144.820472,90.6025801 148.085991,95.5252787 152.256728,99.2505642 C152.256728,99.2505642 154.62124,98.5962815 157.035434,98.2476675 C159.0547,97.9554717 161.108491,97.8771599 161.845296,98.5802823 C163.292802,99.9587389 159.809189,103.511402 159.809189,103.511402 C159.809189,103.511402 160.059281,101.10226 156.28263,101.275725 C155.166055,101.327091 153.700866,101.601603 151.768332,102.234834 C151.768332,102.234834 143.28455,98.0304153 130.630873,105.653609 C130.314258,106.90744 130.123952,108.185692 130.081848,109.479942 C130.10711,110.25464 130.192159,111.049547 130.310047,111.853717 L135.273165,111.853717 L135.273165,117.676581 C140.552898,116.070767 143.572535,110.686618 143.572535,110.686618 C143.572535,110.686618 144.898784,116.197076 143.788103,120.06046 C153.658763,114.313382 151.583078,104.367779 151.583078,104.367779 C153.210785,103.948432 154.523561,103.816228 155.583718,103.874331 C160.076965,104.118529 160.030651,107.794975 160.030651,107.794975 C163.990872,105.76813 165.921722,98.912055 165.63121,93.6003234 C165.63121,93.6003234 169.012092,96.9812052 166.820203,104.638924 C166.820203,104.638924 174.534339,100.458924 170.398127,83.4787295 Z M129.745865,61.1051231 C120.820843,54.8822796 108.81387,62.3976894 108.81387,62.3976894 C109.710667,57.8598134 113.076392,56.1057968 113.076392,56.1057968 C106.06622,55.4851965 98.1550406,63.4965812 98.1550406,63.4965812 C102.063896,54.4149348 108.914076,52.7804911 108.914076,52.7804911 C108.914076,52.7804911 104.67429,52.4899795 100.111994,55.4961434 C100.111994,55.4961434 105.806022,43.8605207 115.604264,43.8916771 C114.327697,42.7818384 113.127758,41.850517 112.127387,41.2644414 C112.127387,41.2644414 126.369194,43.5119068 129.873859,53.9088551 C132.313315,53.4347738 132.925494,49.9385294 132.925494,49.9385294 C135.39358,54.5462966 129.745865,61.1051231 129.745865,61.1051231 Z M134.516993,85.1948533 C135.100542,81.4880932 136.081545,79.0065344 140.645525,77.9691131 C145.020041,76.9780053 149.259827,81.6160868 149.259827,81.6160868 C139.92472,77.9253259 134.516993,85.1948533 134.516993,85.1948533 Z M164.510425,89.9213513 C162.182963,92.1385025 159.459733,94.1762943 157.681296,95.4343359 C156.538617,96.2427162 155.783287,96.7319546 155.783287,96.7319546 L156.214423,94.5872209 C152.794806,92.199131 152.269359,91.085082 150.970056,89.31254 C150.372192,88.5007915 149.886322,88.2161743 149.397083,88.3534306 C148.524706,88.5951026 148.247667,89.6232611 148.236721,90.3701708 C146.443969,88.3652194 144.751423,82.0926943 159.996127,82.5617232 C160.432315,82.5751962 160.877766,82.5920375 161.341743,82.6164573 C161.351847,81.8813365 160.897134,80.9112803 160.348109,80.008589 C159.516151,78.6419213 158.466099,77.430193 158.466099,77.430193 C159.236586,77.7569133 159.912762,78.0760551 160.540099,78.3909866 C163.020816,79.6380814 164.472532,80.8026542 165.483849,81.9865944 C166.751154,83.4711509 167.646266,86.9337128 164.510425,89.9213513 L164.510425,89.9213513 Z" id="Fill-2" fill="#FFFFFE"></path>
            <path d="M134.149011,24.4728687 C137.902085,24.5756004 140.693523,26.4374011 142.541008,28.2124693 C141.924619,25.5616558 140.877935,23.2619826 139.63084,21.2561892 C136.346795,15.9722456 131.632928,12.7909327 129.430092,11.0756509 C129.430092,11.0756509 126.64118,13.6422581 124.936003,17.173027 C124.691805,17.6791067 124.4695,18.2045539 124.280878,18.7451581 C129.605241,20.0486712 134.149011,24.4728687 134.149011,24.4728687" id="Fill-3" fill="#FFFFFE"></path>
            <path d="M120.116036,53.3101485 C120.106774,53.2141534 120.119404,53.1223686 120.120247,53.0280575 C120.327394,53.0954225 120.552225,53.128263 120.786318,53.1105797 C121.382499,53.0659504 121.863316,52.7274411 122.076358,52.2744114 C121.597225,52.0470545 121.087777,51.8323285 120.556435,51.6310755 C120.13793,51.4727677 119.707636,51.3237226 119.260501,51.1923608 C118.252551,50.8951127 117.178921,50.6803867 116.060662,50.5936542 C115.710364,51.1780457 115.349961,51.9838998 115.296911,52.8933275 C115.296911,52.8933275 114.552528,57.3276298 120.48486,55.4456196 C120.738321,55.3656236 120.992624,55.2940483 121.246926,55.2275253 C120.618748,54.7601805 120.191822,54.0856883 120.116036,53.3101485" id="Fill-4" fill="#FFFFFE"></path>
            <path d="M159.71993,84.5085722 C156.321365,84.4875206 153.309306,85.2133787 153.309306,85.2133787 C156.047694,85.2546398 158.034962,85.5847284 159.474048,86.0192327 C162.656203,86.9783421 163.156388,88.4485837 163.156388,88.4485837 C165.731416,87.1686483 164.805989,85.2959008 164.805989,85.2959008 C163.233858,84.7157196 161.428475,84.519519 159.71993,84.5085722" id="Fill-5" fill="#FFFFFE"></path>
            <path d="M145.379602,98.4253427 C145.379602,98.4253427 144.059248,95.6078009 141.641685,93.8386271 C141.193708,93.5110647 140.707838,93.2205531 140.184917,92.9898279 C139.60642,92.7329988 138.983293,92.5536394 138.317222,92.4795379 C137.705042,93.1616087 137.097073,93.878204 136.503419,94.6234296 C139.079289,94.9695173 140.752467,96.6132238 140.752467,96.6132238 C140.752467,96.6132238 137.876823,96.2923979 134.855502,96.8330021 C133.919128,98.1803025 133.057698,99.6008623 132.332682,101.079524 C134.703089,100.070733 140.777729,97.7609552 145.379602,98.4253427" id="Fill-6" fill="#FFFFFE"></path>
            <polyline id="Fill-7" fill="#FFFFFE" points="111.670989 120.698744 111.670989 120.783792 100.796591 117.734683 96.7875307 120.992624 96.7875307 160.817138 100.870693 164.135707 129.452828 164.135707 129.452828 151.375088 121.285661 149.616861 121.285661 157.497726 104.953855 157.497726 104.953855 124.311193 121.285661 124.311193 121.285661 132.192058 127.647445 130.822864 127.685338 130.815285 129.452828 130.434673 129.452828 117.674054 111.670989 117.674054 111.670989 120.698744"></polyline>
            <polyline id="Fill-8" fill="#FFFFFE" points="66.0800296 102.635656 66.0800296 105.5113 70.1631918 105.5113 70.1631918 120.500017 66.1322375 120.500017 66.1322375 127.137997 70.1631918 127.137997 70.1631918 144.236081 66.0800296 144.236081 66.0800296 150.872377 83.3751558 150.872377 83.3751558 144.236081 78.3286739 144.236081 78.3286739 127.00832 88.7694095 127.00832 88.7963556 120.371181 78.3286739 120.371181 78.3286739 105.5113 97.8232679 105.5113 97.8232679 110.833137 105.991276 113.212806 105.991276 98.8741621 66.0800296 98.8741621 66.0800296 102.635656"></polyline>
            <polyline id="Fill-9" fill="#FFFFFE" points="30.9946445 82.4800431 26.9114824 85.7994543 26.9114824 105.711711 31.0847452 109.030281 51.409613 109.030281 51.409613 122.303715 34.895921 122.303715 34.895921 115.397117 31.1394793 116.224864 26.9114824 117.155344 26.9114824 125.623126 30.9946445 128.941696 55.491933 128.941696 56.2809458 128.301728 56.6169288 128.028058 59.5767793 125.623126 59.5767793 105.711711 55.491933 102.393142 35.0778066 102.393142 35.0778066 89.1171814 51.409613 89.1171814 51.409613 94.9316245 55.0363771 94.1510324 59.4833103 93.1944491 59.5767793 93.1742396 59.5767793 85.7994543 55.491933 82.4800431 30.9946445 82.4800431"></polyline>
            <polyline id="Fill-10" fill="#005795" points="130.133214 179.518509 130.133214 178.319411 126.379299 178.319411 126.379299 179.518509 127.548924 179.518509 127.548924 183.763347 128.963589 183.763347 128.963589 179.518509 130.133214 179.518509"></polyline>
            <polyline id="Fill-11" fill="#005795" points="131.141163 178.932433 130.321836 183.763347 131.728923 183.763347 132.184479 180.629189 132.197952 180.629189 133.447573 183.763347 134.010913 183.763347 135.318637 180.629189 135.33211 180.629189 135.727879 183.763347 137.145071 183.763347 136.320691 178.319411 134.914446 178.319411 133.743979 181.22958 132.639193 178.319411 131.244737 178.319411 131.141163 178.932433"></polyline>
            <path d="M177.132103,83.5679881 L176.965374,83.3044225 C176.129206,82.4690963 175.453872,81.5411432 174.984843,80.8169692 C174.823167,80.5677187 174.668227,80.303311 174.532655,80.0633231 C174.798747,77.8436458 175.035367,75.5843915 175.23662,73.2796659 C175.801644,66.8084139 176.111523,60.0070733 176.116575,52.8428037 L175.704806,46.9071036 L170.988413,43.7064233 C166.578531,40.7112062 161.890768,37.9307151 156.957122,35.3994746 C154.555559,34.1666947 152.097578,32.9920172 149.581495,31.8847048 C149.151201,30.652767 148.661962,29.3357809 148.123884,28.0364782 C147.540335,26.6268652 146.858264,25.1195729 146.098723,23.5937553 C144.311866,20.0006737 142.050086,16.2905453 139.296541,13.4241638 C136.565731,10.580518 132.099431,7.59708983 128.834754,6.73397555 L128.480245,6.63966452 L128.199838,6.87628415 C128.17205,6.8998619 124.026575,10.3977904 120.682744,16.2795985 C120.505911,16.5911617 120.329078,16.903567 120.158139,17.2286032 C118.038668,17.0290343 115.345751,17.1688167 112.983765,17.6723702 C112.291589,16.4395904 111.485735,15.4653239 110.621779,14.6881 C108.788609,13.0384991 106.689346,12.2831689 104.823335,11.8865573 C98.8261646,10.6099902 92.4509077,9.59277847 86.2398531,9.73761326 C82.0110142,9.83697666 77.9564822,11.8612954 74.4181347,14.3689582 C72.4906531,15.7347839 70.7139008,17.2412341 69.1518744,18.6634781 C68.0917175,19.629324 67.1511334,20.6869548 66.3654889,21.8026879 C63.8552999,22.2026677 61.3754252,22.6649601 58.9241807,23.1803025 C41.1305534,26.9241133 24.9393715,33.6774563 11.4571053,42.7843646 L6.71292398,45.9892553 L6.31294419,51.8483277 C6.35252114,171.935734 89.432955,192.974671 90.3920644,193.208764 L91.4901142,193.477382 L92.589006,193.20708 C92.9637239,193.114453 105.910438,189.812725 121.502071,178.630132 C123.674593,177.072316 125.899323,175.35535 128.14763,173.478393 C141.139816,162.633467 154.945434,146.257873 164.395904,121.904577 C165.432483,119.23187 166.418539,116.464852 167.343124,113.596787 C171.352184,110.872714 174.959581,106.832497 177.009162,101.805382 C178.038162,99.2825626 178.669709,96.50965 178.76402,93.5304321 C178.862542,90.4198525 178.379198,87.0852841 177.132103,83.5679881 Z M153.689919,52.350197 C154.386305,51.8828522 155.147529,51.3927717 155.918017,50.9102698 C157.215635,51.6622318 158.495571,52.4293509 159.747718,53.2183637 L162.011183,54.6465021 L161.961501,57.3217353 C161.912661,59.9708646 161.808245,62.5475765 161.673515,65.0838694 C158.639563,59.1818519 155.518037,55.975277 153.47014,54.3416754 C153.458352,53.518138 153.566136,52.8402775 153.689919,52.350197 Z M129.430092,11.0756509 C131.632928,12.7909327 136.346795,15.9722456 139.63084,21.2561892 C140.877935,23.2619826 141.924619,25.5616558 142.541008,28.2124693 C140.693523,26.4374011 137.902085,24.5756004 134.149011,24.4728687 C134.149011,24.4728687 129.605241,20.0486712 124.280878,18.7451581 C124.4695,18.2045539 124.691805,17.6791067 124.936003,17.173027 C126.64118,13.6422581 129.430092,11.0756509 129.430092,11.0756509 Z M22.7062212,52.3173566 C33.1469568,45.8418943 45.3922328,40.8072013 58.8509212,37.6587288 C61.7189868,36.9876048 64.6401024,36.3981609 67.6142679,35.9030281 C67.9679343,36.4234228 68.031931,36.8031931 68.0605612,37.2124356 C68.084981,37.5644178 68.0824548,37.929031 68.1270841,38.3517464 C68.1599246,38.6624676 68.2163428,39.0001347 68.3190744,39.379905 C46.6022769,50.5035535 30.1938428,65.5116373 21.6309071,75.4673448 C21.3446057,72.8005322 21.1138806,70.0562498 20.9269426,67.253023 C20.6928492,63.7534104 20.5303311,60.1569605 20.462124,56.4384115 L20.4124423,53.7396005 L22.7062212,52.3173566 Z M104.946276,98.8741621 L105.991276,98.8741621 L105.991276,113.212806 L97.8232679,110.833137 L97.8232679,105.5113 L78.3286739,105.5113 L78.3286739,120.371181 L88.7963556,120.371181 L88.7694095,127.00832 L78.3286739,127.00832 L78.3286739,144.236081 L83.3751558,144.236081 L83.3751558,150.872377 L66.0800296,150.872377 L66.0800296,144.236081 L70.1631918,144.236081 L70.1631918,127.137997 L66.1322375,127.137997 L66.1322375,120.500017 L70.1631918,120.500017 L70.1631918,105.5113 L66.0800296,105.5113 L66.0800296,98.8741621 L104.946276,98.8741621 Z M134.855502,96.8330021 C137.876823,96.2923979 140.752467,96.6132238 140.752467,96.6132238 C140.752467,96.6132238 139.079289,94.9695173 136.503419,94.6234296 C137.097073,93.878204 137.705042,93.1616087 138.317222,92.4795379 C138.983293,92.5536394 139.60642,92.7329988 140.184917,92.9898279 C140.707838,93.2205531 141.193708,93.5110647 141.641685,93.8386271 C144.059248,95.6078009 145.379602,98.4253427 145.379602,98.4253427 C140.777729,97.7609552 134.703089,100.070733 132.332682,101.079524 C133.057698,99.6008623 133.919128,98.1803025 134.855502,96.8330021 Z M129.452828,117.674054 L129.452828,130.434673 L127.685338,130.815285 L127.647445,130.822864 L121.285661,132.192058 L121.285661,124.311193 L104.953855,124.311193 L104.953855,157.497726 L121.285661,157.497726 L121.285661,149.616861 L129.452828,151.375088 L129.452828,164.135707 L100.870693,164.135707 L96.7875307,160.817138 L96.7875307,120.992624 L100.796591,117.734683 L111.670989,120.783792 L111.670989,117.674054 L129.452828,117.674054 Z M59.5767793,88.2355418 L59.5767793,93.1742396 L59.4833103,93.1944491 L55.0363771,94.1510324 L51.409613,94.9316245 L51.409613,89.1171814 L35.0778066,89.1171814 L35.0778066,102.393142 L55.491933,102.393142 L59.5767793,105.711711 L59.5767793,125.623126 L56.6169288,128.028058 L56.2809458,128.301728 L55.491933,128.941696 L30.9946445,128.941696 L26.9114824,125.623126 L26.9114824,117.155344 L31.1394793,116.224864 L34.895921,115.397117 L34.895921,122.303715 L51.409613,122.303715 L51.409613,109.030281 L31.0847452,109.030281 L26.9114824,105.711711 L26.9114824,85.7994543 L30.9946445,82.4800431 L55.491933,82.4800431 L59.5767793,85.7994543 L59.5767793,88.2355418 Z M99.8290613,175.298932 C97.1571963,176.600761 94.8760484,177.543029 93.1456095,178.194786 L91.4783253,178.821281 L89.8101991,178.19647 C88.063761,177.543029 85.754825,176.594867 83.0484354,175.280407 C76.2302536,171.96689 67.0391391,166.398329 57.8185523,157.453097 C51.7607531,151.574657 45.5934858,144.140928 40.0602917,134.774664 L54.4949308,134.790663 L54.4932467,134.793189 L60.3994746,134.793189 L60.3994746,156.552932 L90.9671932,156.552932 L90.9671932,163.586682 L98.8034289,169.956886 L109.296372,169.956886 C105.848126,172.172353 102.633972,173.931422 99.8290613,175.298932 Z M135.273165,145.808212 L135.273165,122.136145 C135.908922,121.922261 136.498366,121.667958 137.003604,121.419549 C137.311799,121.267136 137.594732,121.115565 137.843983,120.97494 C137.897875,121.841423 138.107548,122.599279 138.336589,123.193775 C138.510896,123.645121 138.699518,124.00805 138.842669,124.257301 C138.998451,124.526761 139.31254,124.94695 139.31254,124.94695 L139.651049,124.958739 C139.784095,124.963791 143.353599,125.047998 149.245512,121.793425 C147.98747,124.682542 146.667116,127.431877 145.292869,130.042272 C142.168817,135.973761 138.776988,141.200445 135.273165,145.808212 Z M166.820203,104.638924 C169.012092,96.9812052 165.63121,93.6003234 165.63121,93.6003234 C165.921722,98.912055 163.990872,105.76813 160.030651,107.794975 C160.030651,107.794975 160.076965,104.118529 155.583718,103.874331 C154.523561,103.816228 153.210785,103.948432 151.583078,104.367779 C151.583078,104.367779 153.658763,114.313382 143.788103,120.06046 C144.898784,116.197076 143.572535,110.686618 143.572535,110.686618 C143.572535,110.686618 140.552898,116.070767 135.273165,117.676581 L135.273165,111.853717 L130.310047,111.853717 C130.192159,111.049547 130.10711,110.25464 130.081848,109.479942 C130.123952,108.185692 130.314258,106.90744 130.630873,105.653609 C143.28455,98.0304153 151.768332,102.234834 151.768332,102.234834 C153.700866,101.601603 155.166055,101.327091 156.28263,101.275725 C160.059281,101.10226 159.809189,103.511402 159.809189,103.511402 C159.809189,103.511402 163.292802,99.9587389 161.845296,98.5802823 C161.108491,97.8771599 159.0547,97.9554717 157.035434,98.2476675 C154.62124,98.5962815 152.256728,99.2505642 152.256728,99.2505642 C148.085991,95.5252787 144.820472,90.6025801 142.114083,88.6456263 C145.111826,85.8819765 147.493179,84.2323756 147.493179,84.2323756 C147.493179,84.2323756 127.154838,86.5404695 126.306881,105.202263 C124.616019,102.558187 123.739432,99.3162451 123.739432,99.3162451 C123.739432,99.3162451 121.681431,104.469669 122.194247,111.853717 L118.537169,111.853717 C116.325912,108.685877 115.133551,106.018222 115.133551,106.018222 C115.133551,106.018222 114.266227,108.637037 114.024555,111.853717 L113.338273,111.853717 C112.754724,111.245748 112.198963,110.633568 111.670989,110.018862 L111.670989,93.1944491 L103.374987,93.1944491 C101.287514,81.8097612 105.526458,71.2460844 110.001179,65.1470242 C110.001179,65.1470242 94.2167133,74.3718212 94.5872209,93.1944491 L65.3979588,93.1944491 L65.3979588,83.0282259 L57.5583549,76.6597056 L35.7253528,76.6597056 C45.4806494,68.5666408 61.9076089,60.780929 61.976658,60.753983 C61.976658,60.753983 54.8620701,58.7220856 53.8246489,58.9317592 C63.184176,50.4681869 69.5038566,47.8737916 72.8687393,47.0923574 C73.2291421,49.8408501 73.2493516,52.6415507 73.1011486,55.3252046 C78.8549631,61.5345751 87.2840109,54.6288188 90.2514399,49.986527 C93.3695982,45.1109839 95.2010846,39.6384183 96.2873455,34.0395433 C96.5307016,32.7840278 96.7487959,31.5259861 96.9214187,30.262892 C99.369295,30.5879282 100.413453,32.7705548 100.847957,34.2820573 C101.087945,35.1148574 101.145205,35.7472465 101.145205,35.7472465 C101.492977,35.4045269 101.830644,34.9338139 102.143892,34.384789 C104.129476,30.9095961 105.066691,23.9642629 100.364613,21.7681633 C96.9104719,20.1547711 94.2293442,22.6068578 94.2293442,22.6068578 C93.5994813,26.9586379 92.816363,30.7150797 91.9431439,33.9603894 C87.284853,51.2614099 80.0119573,53.974536 79.1033716,54.1505271 C77.8049109,54.4014618 77.0723163,53.7606521 77.0723163,53.7606521 C77.5868167,44.3994409 75.4951329,38.4839503 73.5390212,35.0609653 C72.0494122,32.4556233 70.6381151,31.2927347 70.5143319,31.1613729 C69.106403,29.6566068 68.6828455,27.4554549 70.0343562,25.5608138 C71.1374583,24.0131025 73.0110479,22.2759271 75.0791539,20.6692714 C78.7227593,17.8390987 82.9743339,15.4190104 84.7224561,15.1916535 C89.1550743,14.6131564 100.597865,16.2366533 105.920543,17.6218465 C107.176901,17.9485668 107.932231,19.3430227 108.385261,20.7955809 C108.954495,22.6220149 109.045438,24.5393917 109.045438,24.5393917 C132.236687,18.0218263 143.520327,42.6176362 143.520327,42.6176362 C143.520327,42.6176362 149.21604,44.7421604 153.517296,46.6856411 C152.601132,47.1765637 151.74728,47.6868537 150.946478,48.1979858 C149.015629,49.4316077 147.434235,50.6694399 146.262926,51.6790731 C144.129139,51.2630941 141.513692,51.3178282 138.976557,52.8512244 C138.976557,52.8512244 141.231601,52.8225942 143.90515,53.9155916 C143.90515,53.9155916 150.471555,55.2654182 156.035906,66.3865405 C157.46236,69.2386069 159.217218,71.8330021 161.003234,74.0914143 C165.595002,79.8974368 170.398127,83.4787295 170.398127,83.4787295 C174.534339,100.458924 166.820203,104.638924 166.820203,104.638924 L166.820203,104.638924 Z" id="Fill-12" fill="#005795"></path>
            <path d="M129.873859,53.9088551 C126.369194,43.5119068 112.127387,41.2644414 112.127387,41.2644414 C113.127758,41.850517 114.327697,42.7818384 115.604264,43.8916771 C105.806022,43.8605207 100.111994,55.4961434 100.111994,55.4961434 C104.67429,52.4899795 108.914076,52.7804911 108.914076,52.7804911 C108.914076,52.7804911 102.063896,54.4149348 98.1550406,63.4965812 C98.1550406,63.4965812 106.06622,55.4851965 113.076392,56.1057968 C113.076392,56.1057968 109.710667,57.8598134 108.81387,62.3976894 C108.81387,62.3976894 120.820843,54.8822796 129.745865,61.1051231 C129.745865,61.1051231 135.39358,54.5462966 132.925494,49.9385294 C132.925494,49.9385294 132.313315,53.4347738 129.873859,53.9088551 Z M120.48486,55.4456196 C114.552528,57.3276298 115.296911,52.8933275 115.296911,52.8933275 C115.349961,51.9838998 115.710364,51.1780457 116.060662,50.5936542 C117.178921,50.6803867 118.252551,50.8951127 119.260501,51.1923608 C119.707636,51.3237226 120.13793,51.4727677 120.556435,51.6310755 C121.087777,51.8323285 121.597225,52.0470545 122.076358,52.2744114 C121.863316,52.7274411 121.382499,53.0659504 120.786318,53.1105797 C120.552225,53.128263 120.327394,53.0954225 120.120247,53.0280575 C120.119404,53.1223686 120.106774,53.2141534 120.116036,53.3101485 C120.191822,54.0856883 120.618748,54.7601805 121.246926,55.2275253 C120.992624,55.2940483 120.738321,55.3656236 120.48486,55.4456196 L120.48486,55.4456196 Z" id="Fill-13" fill="#005795"></path>
            <path d="M140.645525,77.9691131 C136.081545,79.0065344 135.100542,81.4880932 134.516993,85.1948533 C134.516993,85.1948533 139.92472,77.9253259 149.259827,81.6160868 C149.259827,81.6160868 145.020041,76.9780053 140.645525,77.9691131" id="Fill-14" fill="#005795"></path>
            <path d="M160.540099,78.3909866 C159.912762,78.0760551 159.236586,77.7569133 158.466099,77.430193 C158.466099,77.430193 159.516151,78.6419213 160.348109,80.008589 C160.897134,80.9112803 161.351847,81.8813365 161.341743,82.6164573 C160.877766,82.5920375 160.432315,82.5751962 159.996127,82.5617232 C144.751423,82.0926943 146.443969,88.3652194 148.236721,90.3701708 C148.247667,89.6232611 148.524706,88.5951026 149.397083,88.3534306 C149.886322,88.2161743 150.372192,88.5007915 150.970056,89.31254 C152.269359,91.085082 152.794806,92.199131 156.214423,94.5872209 L155.783287,96.7319546 C155.783287,96.7319546 156.538617,96.2427162 157.681296,95.4343359 C159.459733,94.1762943 162.182963,92.1385025 164.510425,89.9213513 C167.646266,86.9337128 166.751154,83.4711509 165.483849,81.9865944 C164.472532,80.8026542 163.020816,79.6380814 160.540099,78.3909866 Z M163.156388,88.4485837 C163.156388,88.4485837 162.656203,86.9783421 159.474048,86.0192327 C158.034962,85.5847284 156.047694,85.2546398 153.309306,85.2133787 C153.309306,85.2133787 156.321365,84.4875206 159.71993,84.5085722 C161.428475,84.519519 163.233858,84.7157196 164.805989,85.2959008 C164.805989,85.2959008 165.731416,87.1686483 163.156388,88.4485837 L163.156388,88.4485837 Z" id="Fill-15" fill="#005795"></path>
            <path d="M90.9671932,163.586682 L90.9671932,156.552932 L60.3994746,156.552932 L60.3994746,134.793189 L54.4932467,134.793189 L54.4949308,134.790663 L40.0602917,134.774664 C45.5934858,144.140928 51.7607531,151.574657 57.8185523,157.453097 C67.0391391,166.398329 76.2302536,171.96689 83.0484354,175.280407 C85.754825,176.594867 88.063761,177.543029 89.8101991,178.19647 L91.4783253,178.821281 L93.1456095,178.194786 C94.8760484,177.543029 97.1571963,176.600761 99.8290613,175.298932 C102.633972,173.931422 105.848126,172.172353 109.296372,169.956886 L98.8034289,169.956886 L90.9671932,163.586682" id="Fill-16" fill="#D02139"></path>
            <path d="M20.9269426,67.253023 C21.1138806,70.0562498 21.3446057,72.8005322 21.6309071,75.4673448 C30.1938428,65.5116373 46.6022769,50.5035535 68.3190744,39.379905 C68.2163428,39.0001347 68.1599246,38.6624676 68.1270841,38.3517464 C68.0824548,37.929031 68.084981,37.5644178 68.0605612,37.2124356 C68.031931,36.8031931 67.9679343,36.4234228 67.6142679,35.9030281 C64.6401024,36.3981609 61.7189868,36.9876048 58.8509212,37.6587288 C45.3922328,40.8072013 33.1469568,45.8418943 22.7062212,52.3173566 L20.4124423,53.7396005 L20.462124,56.4384115 C20.5303311,60.1569605 20.6928492,63.7534104 20.9269426,67.253023" id="Fill-17" fill="#D02139"></path>
            <path d="M139.651049,124.958739 L139.31254,124.94695 C139.31254,124.94695 138.998451,124.526761 138.842669,124.257301 C138.699518,124.00805 138.510896,123.645121 138.336589,123.193775 C138.107548,122.599279 137.897875,121.841423 137.843983,120.97494 C137.594732,121.115565 137.311799,121.267136 137.003604,121.419549 C136.498366,121.667958 135.908922,121.922261 135.273165,122.136145 L135.273165,145.808212 C138.776988,141.200445 142.168817,135.973761 145.292869,130.042272 C146.667116,127.431877 147.98747,124.682542 149.245512,121.793425 C143.353599,125.047998 139.784095,124.963791 139.651049,124.958739" id="Fill-18" fill="#D02139"></path>
            <path d="M161.673515,65.0838694 C161.808245,62.5475765 161.912661,59.9708646 161.961501,57.3217353 L162.011183,54.6465021 L159.747718,53.2183637 C158.495571,52.4293509 157.215635,51.6622318 155.918017,50.9102698 C155.147529,51.3927717 154.386305,51.8828522 153.689919,52.350197 C153.566136,52.8402775 153.458352,53.518138 153.47014,54.3416754 C155.518037,55.975277 158.639563,59.1818519 161.673515,65.0838694" id="Fill-19" fill="#D02139"></path>
        </g>
    </g>
</svg>