<?xml version="1.0" encoding="UTF-8"?>
<svg width="200px" height="200px" viewBox="0 0 200 200" version="1.1" xmlns="http://www.w3.org/2000/svg" xmlns:xlink="http://www.w3.org/1999/xlink">
    <!-- Generator: Sketch 54.1 (76490) - https://sketchapp.com -->
    <title>texas-st</title>
    <desc>Created with Sketch.</desc>
    <g id="texas-st" stroke="none" stroke-width="1" fill="none" fill-rule="evenodd">
        <g id="texas-st_BGL" transform="translate(-0.000000, 0.000000)">
            <g id="texas-st" transform="translate(15.000000, 0.000000)">
                <g id="g10" transform="translate(84.499998, 99.818404) scale(-1, 1) rotate(-180.000000) translate(-84.499998, -99.818404) translate(0.000000, 0.275765)" fill-rule="nonzero">
                    <g id="g12" transform="translate(0.000000, 0.605327)">
                        <path d="M163.213758,54.2393045 C163.682532,55.9564823 164.070159,57.8121454 164.048698,58.8184005 C163.854885,70.120391 154.494163,70.9678486 154.494163,70.9678486 C157.003008,66.8274129 154.476056,60.1170284 155.858234,61.0108271 C157.243095,61.9033479 157.57573,65.1756104 157.57573,65.1756104 C157.57573,65.1756104 163.521579,64.3832376 160.889337,51.3700552 C158.998147,42.6871122 155.761663,39.1686162 150.627282,43.5115674 C146.22054,36.7783149 139.409572,36.3041422 139.409572,36.3041422 C140.050699,37.0392108 146.078365,47.4288393 144.782028,51.1220057 C144.703564,51.3484652 139.72477,65.1635711 130.162858,66.6566435 C120.454747,68.2734715 105.26822,63.7576659 100.763565,57.2943219 C95.7720294,48.35203 113.424481,33.5465421 115.404196,32.3600342 C117.653505,31.5679303 123.060164,29.7485196 129.476798,34.6247637 C129.476798,34.6247637 126.418033,26.2523534 120.918826,23.7685628 C120.918826,23.7685628 125.754104,3.69712124 98.4981602,5.57851748 C100.556339,6.89400037 109.006339,13.2310328 104.736406,19.6744682 C101.376525,12.0883774 87.2616724,13.8229752 87.2616724,13.8229752 C110.285239,31.4360363 83.4786209,40.7216159 83.4786209,40.7216159 C77.9291171,42.7354711 73.7215537,43.5217907 74.0696132,43.4899774 C82.5444265,60.9099393 94.766077,68.0441199 94.766077,68.0441199 C73.2226013,64.1620242 60.7870183,52.1952502 56.759051,46.178503 C24.2926764,48.800779 11.780641,35.6517344 11.780641,35.6517344 C23.4462681,72.4831836 61.3002552,84.5856853 79.3890893,82.8578134 C29.0374183,87.6822685 15.2087254,69.7820806 15.2087254,69.7820806 C30.9961417,120.657786 60.0597818,125.043715 60.1538719,124.971076 C60.5415659,125.079362 60.9499826,125.18025 61.3667822,125.280465 C43.2182616,147.212802 42.7097192,175.54479 42.7097192,175.54479 C52.0017011,155.165452 80.6391527,145.583801 108.662973,132.834272 C146.3151,115.694778 150.544123,105.579766 154.381496,86.9565488 C154.381496,86.9565488 164.577159,79.0455993 165.92044,62.6922906 C165.92044,62.6922906 166.129008,56.056025 163.213758,54.2393045 L163.213758,54.2393045 Z M168.895377,64.6591321 C168.281746,72.7320402 163.931337,81.9592393 157.613286,88.8249911 C153.070405,110.275085 145.972405,120.266341 109.783604,136.424533 C65.626588,155.596579 52.2605662,160.274411 34.3629972,198.253963 C32.4763,176.033759 38.623876,164.904489 38.8404911,164.51977 C38.8404911,164.51977 33.7761916,167.519501 29.6842457,173.418075 C32.0236214,158.494077 43.1902291,152.292167 43.1902291,152.292167 C48.4889825,135.741858 55.9998252,128.007126 55.9998252,128.007126 C7.96774623,111.565103 2.70742688,53.1739293 2.70742688,53.1739293 C2.70742688,53.1739293 18.0180821,74.0153331 43.9821148,78.176619 C3.79747014,64.5661135 0,21.3619177 0,21.3619177 C0,21.3619177 18.982388,45.3253957 60.3678715,41.2147555 C60.0978068,41.4614598 69.7440181,55.6711716 81.2024861,59.8816235 C81.2024861,59.8816235 70.4508673,49.8385783 64.9776817,40.0989363 C64.9776817,40.0989363 74.602768,38.3985732 78.473002,37.2457618 C82.3526249,36.0910672 92.4188548,32.9485464 91.8870414,27.140906 C91.0440533,17.9850682 72.7826648,14.8076402 72.7249902,15.0396149 C85.1176526,6.51724493 98.0776722,10.3155096 98.2191761,10.5044388 C96.2991484,6.16834125 83.4055217,3.20213874 83.4055217,3.20213874 C83.4055217,3.20213874 121.29237,-11.2637205 124.127144,21.9499591 C134.214163,29.2950625 133.030493,40.3133565 133.030493,40.3133565 C133.030493,40.3133565 128.254231,33.6150785 118.971973,34.8856596 C115.988989,35.2978872 102.412656,44.6967301 106.632962,53.2411878 C108.033247,56.0794309 118.443513,62.6809912 132.733401,60.6982094 C139.186921,59.5466759 142.043826,49.7174456 141.984139,49.3414704 C141.036532,43.4067113 134.618556,33.3757054 134.618556,33.3757054 C134.618556,33.3757054 142.128326,32.486682 151.225488,39.875638 C154.700718,38.4839915 155.369341,37.4871527 157.711869,39.0612043 C162.136048,42.0258262 163.251313,49.0106929 163.630893,49.8009807 C165.795032,50.9746423 169.657218,54.6548951 168.895377,64.6591321 L168.895377,64.6591321 Z" id="path14" fill="#B09247"></path>
                        <polyline id="path16" fill="#B09247" points="65.8702297 10.0848128 67.4450816 10.0848128 67.4450816 5.31552986 68.0144507 5.31552986 68.0144507 10.0848128 69.6736014 10.0848128 69.6736014 10.6570484 65.8702297 10.6570484 65.8702297 10.0848128"></polyline>
                        <polyline id="path18" fill="#B09247" points="72.7176133 6.31152796 71.3501887 10.6570484 70.434772 10.6570484 70.434772 5.31552986 71.0068236 5.31552986 71.0068236 9.85546115 72.4319228 5.31552986 73.0026331 5.31552986 74.4297442 9.85546115 74.4297442 5.31552986 74.9997838 5.31552986 74.9997838 10.6570484 74.0830259 10.6570484 72.7176133 6.31152796"></polyline>
                        <path d="M66.8641106,126.468923 C77.8325457,128.25531 91.9380096,127.711189 106.804644,121.175004 C90.684593,135.103575 75.8421013,135.076671 58.6163743,146.395611 C58.6163743,146.303467 57.6353025,139.428299 66.8641106,126.468923" id="path20" fill="#B09247"></path>
                        <path d="M136.598941,86.6989486 C136.598941,86.6989486 139.28081,91.6020962 139.473282,95.9093331 C134.94985,99.736344 129.303775,100.891173 129.303775,100.891173 C129.303775,94.5157361 130.825445,88.982376 134.845231,86.1057283 C137.486862,84.2177811 141.662235,84.6892634 143.204024,88.0434468 C144.087921,89.9650233 142.690318,92.5571674 142.690318,92.6849587 C141.145846,88.301047 136.598941,86.6989486 136.598941,86.6989486" id="path22" fill="#B09247"></path>
                        <path d="M143.204024,88.0434468 C141.662235,84.6892634 137.486862,84.2177811 134.845231,86.1057283 C130.825445,88.982376 129.303775,94.5157361 129.303775,100.891173 C129.303775,100.891173 134.94985,99.736344 139.473282,95.9093331 C139.28081,91.6020962 136.598941,86.6989486 136.598941,86.6989486 C136.598941,86.6989486 141.145846,88.301047 142.690318,92.6849587 C142.690318,92.5571674 144.087921,89.9650233 143.204024,88.0434468 Z M66.8641106,126.468923 C57.6353025,139.428299 58.6163743,146.303467 58.6163743,146.395611 C75.8421013,135.076671 90.684593,135.103575 106.804644,121.175004 C91.9380096,127.711189 77.8325457,128.25531 66.8641106,126.468923 L66.8641106,126.468923 Z M165.92044,62.6922906 C164.577159,79.0455993 154.381496,86.9565488 154.381496,86.9565488 C150.544123,105.579766 146.3151,115.694778 108.662973,132.834272 C80.6391527,145.583801 52.0017011,155.165452 42.7097192,175.54479 C42.7097192,175.54479 43.2182616,147.212802 61.3667822,125.280465 C60.9499826,125.18025 60.5415659,125.079362 60.1538719,124.971076 C60.0597818,125.043715 30.9961417,120.657786 15.2087254,69.7820806 C15.2087254,69.7820806 29.0374183,87.6822685 79.3890893,82.8578134 C61.3002552,84.5856853 23.4462681,72.4831836 11.780641,35.6517344 C11.780641,35.6517344 24.2926764,48.800779 56.759051,46.178503 C60.7870183,52.1952502 73.2226013,64.1620242 94.766077,68.0441199 C94.766077,68.0441199 82.5444265,60.9099393 74.0696132,43.4899774 C73.7215537,43.5217907 77.9291171,42.7354711 83.4786209,40.7216159 C83.4786209,40.7216159 110.285239,31.4360363 87.2616724,13.8229752 C87.2616724,13.8229752 101.376525,12.0883774 104.736406,19.6744682 C109.006339,13.2310328 100.556339,6.89400037 98.4981602,5.57851748 C125.754104,3.69712124 120.918826,23.7685628 120.918826,23.7685628 C126.418033,26.2523534 129.476798,34.6247637 129.476798,34.6247637 C123.060164,29.7485196 117.653505,31.5679303 115.404196,32.3600342 C113.424481,33.5465421 95.7720294,48.35203 100.763565,57.2943219 C105.26822,63.7576659 120.454747,68.2734715 130.162858,66.6566435 C139.72477,65.1635711 144.703564,51.3484652 144.782028,51.1220057 C146.078365,47.4288393 140.050699,37.0392108 139.409572,36.3041422 C139.409572,36.3041422 146.22054,36.7783149 150.627282,43.5115674 C155.761663,39.1686162 158.998147,42.6871122 160.889337,51.3700552 C163.521579,64.3832376 157.57573,65.1756104 157.57573,65.1756104 C157.57573,65.1756104 157.243095,61.9033479 155.858234,61.0108271 C154.476056,60.1170284 157.003008,66.8274129 154.494163,70.9678486 C154.494163,70.9678486 163.854885,70.120391 164.048698,58.8184005 C164.070159,57.8121454 163.682532,55.9564823 163.213758,54.2393045 C166.129008,56.056025 165.92044,62.6922906 165.92044,62.6922906 L165.92044,62.6922906 Z" id="path24" fill="#511D20"></path>
                    </g>
                </g>
            </g>
        </g>
    </g>
</svg>