<?xml version="1.0" encoding="UTF-8"?>
<svg width="200px" height="200px" viewBox="0 0 200 200" version="1.1" xmlns="http://www.w3.org/2000/svg" xmlns:xlink="http://www.w3.org/1999/xlink">
    <!-- Generator: Sketch 54.1 (76490) - https://sketchapp.com -->
    <title>ualr</title>
    <desc>Created with Sketch.</desc>
    <g id="ualr" stroke="none" stroke-width="1" fill="none" fill-rule="evenodd">
        <g id="ualr_BGL" transform="translate(0.000000, 0.000000)" fill="#6B1F36">
            <g id="ualr" transform="translate(10.000000, 0.000000)">
                <g id="g10" transform="translate(90.458041, 99.524325) scale(-1, 1) rotate(-180.000000) translate(-90.458041, -99.524325) translate(0.000000, 0.053682)">
                    <g id="g12">
                        <path d="M128.856557,42.9417952 C129.089499,42.8928147 129.218053,42.8746986 129.218053,42.8746986 C129.218053,42.8746986 125.280863,40.3478424 119.866471,40.0006177 C115.993054,39.752025 111.802783,40.4847193 107.647419,42.9421307 L88.49918,42.9421307 C89.6219338,39.1588914 92.628363,29.0715618 94.7590778,22.3214135 C95.982527,18.4461849 97.0760792,15.8612566 97.0760792,15.8612566 C97.0760792,15.8612566 97.8477416,14.1965575 99.6401199,12.8637851 C100.33559,12.3461687 101.130076,11.8042634 101.913822,11.442982 C103.00771,10.9384494 104.003923,10.7083082 104.003923,10.7083082 C104.003923,10.7083082 105.469713,10.6492297 107.058686,10.3889622 C109.196114,10.038282 111.752099,9.42038987 113.118536,9.01713957 C116.460281,8.03139054 120.644511,6.96834627 123.863743,5.79415655 C127.729104,4.3840889 130.225007,3.13977658 130.225007,3.13977658 C130.225007,3.13977658 130.755001,2.84662502 131.202089,3.16533366 C131.937836,3.68927053 133.010914,4.71313041 134.566993,5.72877096 C136.096892,6.72746963 138.098381,7.71543286 140.081074,8.52361086 C143.492634,9.914556 147.233469,10.4982625 149.296718,10.8608523 C150.283868,11.034364 150.887369,11.3121772 150.887369,11.3121772 C150.887369,11.3121772 141.992944,16.2517921 133.237143,19.4027134 C126.0344,21.9943178 118.664839,22.9063948 118.664839,22.9063948 C118.664839,22.9063948 119.710393,24.6029312 120.442113,26.168059 C121.409124,28.2356058 122.129097,30.3138881 122.129097,30.3138881 C122.129097,30.3138881 126.135767,29.3138475 129.951787,28.7663396 C134.244097,28.1504267 138.401139,27.9788609 138.401139,27.9788609 C138.401139,27.9788609 141.810014,27.6068105 143.617497,28.9954072 C145.625699,30.5377222 146.215103,33.8565862 146.215103,33.8565862 C146.215103,33.8565862 146.84512,37.7824056 147.372764,42.9407887 L128.856557,42.9417952 Z M71.3789468,42.9417952 C69.8127975,41.7588829 68.3527141,40.3615972 67.3810034,38.7740927 C66.051824,36.6021772 65.0596386,34.2454107 64.6055023,32.5086835 C64.1772112,30.8717624 64.2493762,29.7904678 64.2493762,29.7904678 C64.2493762,29.7904678 67.3531444,27.919883 70.9704591,24.706998 C74.3051553,21.7453225 78.0288715,17.6070754 81.2605228,13.5696073 C86.1412292,7.47157043 88.0940488,0 88.0940488,0 C88.0940488,0 83.2928918,3.41222885 76.2982531,7.40709064 C72.6064238,9.5152644 68.303709,11.6989218 63.7734226,13.8184684 C58.5449814,16.2651443 53.9280969,17.6876583 48.1985282,19.4698099 C39.8693398,22.0603408 32.177956,21.5846598 24.8949592,21.8218461 C20.306001,21.9711024 15.6122524,22.5977842 11.8641008,23.8420898 C4.47359488,26.2951734 0.650193605,29.0259361 0.650193605,29.0259361 L16.4794412,38.2447009 C16.4794412,38.2447009 19.6717877,36.4535583 23.4093327,35.6789286 C26.0034143,35.1411497 29.8919688,35.3300265 29.8919688,35.3300265 C29.8919688,35.3300265 26.8113271,38.1165464 22.7548126,42.9411242 L71.3789468,42.9417952 L71.3789468,42.9417952 L71.3789468,42.9417952 Z" id="path14"></path>
                        <path d="M123.095437,93.6798746 L136.467787,94.9684639 L140.737608,83.6153913 L123.095437,93.6798746 Z M119.467046,96.6190392 C119.667765,95.3146822 119.787257,94.0307896 119.81948,92.7952065 C119.991333,86.241886 117.617607,81.0392191 117.617607,81.0392191 C117.617607,81.0392191 115.183463,77.3183797 114.048961,71.7845913 C113.171233,67.5038311 113.265216,61.9442105 114.646421,57.4017738 C115.698017,53.9395915 118.40773,49.3501872 121.147652,46.9420918 C124.407162,44.0774044 127.769382,43.1726073 128.856557,42.9424662 L147.372764,42.9417952 C147.638264,45.5377609 147.877248,48.4470675 147.997411,51.3248388 C148.322322,59.1170972 147.58456,66.7070595 147.58456,66.7070595 L156.526312,67.592734 C156.526312,67.592734 155.147456,82.2429313 151.493891,96.6180327 L119.467046,96.6190392 L119.467046,96.6190392 Z M47.0297902,96.6190392 C47.0200563,95.5817264 47.0294545,94.382711 47.0831588,93.1545086 C47.2123845,90.1707248 47.6950512,86.8766194 47.6950512,86.8766194 C47.6950512,86.8766194 47.8145431,85.7752294 46.4853637,85.2921343 C45.1561843,84.8090391 44.43252,85.628288 44.43252,85.628288 C44.43252,85.628288 42.7978979,89.4803012 41.6294955,93.3511015 C41.2898163,94.4766462 40.996457,95.6112489 40.7578089,96.6166908 L0.359643718,96.6193747 C1.60155375,82.8511616 5.95307894,69.5231019 11.7167163,58.9617687 C15.2535082,52.4805769 19.3482198,46.9924142 22.7548126,42.9411242 L71.3789468,42.9417952 C72.1388614,43.5178191 72.9242856,44.0421787 73.690242,44.514203 C76.6829095,46.3563389 81.781118,47.5895736 84.8936131,47.0028142 C87.2005449,46.568364 88.0537706,44.4444225 88.0537706,44.4444225 C88.0537706,44.4444225 88.2168972,43.8922179 88.49918,42.9407887 L107.647419,42.9417952 C106.41927,43.6684509 105.193807,44.5457383 103.980763,45.5927801 C98.6640457,50.1825199 94.7268553,56.2145002 92.1463677,62.9546846 C88.644517,72.102629 87.9732143,81.4417984 87.9732143,81.4417984 C87.9732143,81.4417984 88.7677011,83.5801657 86.8132032,86.7206199 C85.9730679,88.1148863 84.0105144,88.7479423 82.7407453,89.1817215 C79.8491088,90.1707248 75.7189188,87.5375205 75.1550245,84.1561896 C74.5911303,80.7741877 75.4409995,79.7130557 77.0440704,77.9309712 C78.2604709,76.5789756 78.8122818,77.2308187 80.2361148,75.7261784 C81.2672358,74.6361949 82.6440777,72.3824216 82.8434546,70.9445424 C83.2489214,68.0255068 81.7727267,64.08761 79.9387277,61.0894004 C78.1530625,58.1703648 76.0324172,56.1661907 74.6733648,55.0265557 C67.6901383,49.1710394 60.8566123,48.2400747 55.1783982,47.9451853 C51.7423353,47.7667085 47.4533822,47.4637675 47.4533822,47.4637675 L62.1146336,64.8551946 C62.1146336,64.8551946 57.135917,71.4578311 54.1143834,80.0636352 C52.3371095,85.1253993 51.4986524,90.7712389 51.6809111,96.6193747 L47.0297902,96.6190392 L47.0297902,96.6190392 L47.0297902,96.6190392 Z" id="path16"></path>
                        <path d="M44.3919062,122.061717 L50.5950789,119.646241 C50.5950789,119.646241 51.1237298,119.392616 51.4825411,118.801831 C51.7235388,118.406297 51.843702,117.593087 51.843702,117.593087 C51.843702,117.593087 50.5467451,114.419755 49.6079283,111.560771 C48.8557336,109.269424 48.4197225,107.166282 48.4197225,107.166282 C48.4197225,107.166282 47.8202492,106.254775 47.0818162,106.075963 C45.5096252,105.696197 42.7663466,105.940428 41.1954983,106.343343 C39.6243143,106.745587 39.4380278,109.380468 39.4380278,109.380468 C39.4380278,109.380468 39.5387232,111.870422 40.0213898,114.207395 C40.6638265,117.314636 41.7338831,120.491658 41.7338831,120.491658 C41.7338831,120.491658 42.3729632,121.595732 42.8932228,121.903034 C43.6551514,122.352916 44.3919062,122.061717 44.3919062,122.061717 L44.3919062,122.061717 Z M78.7787166,128.825386 C78.4648826,127.931324 78.4823365,126.613548 78.6837273,125.863744 C78.9076067,125.028392 79.7779507,123.78375 80.7382493,123.268113 C82.162418,122.503213 83.7842853,122.665586 83.7842853,122.665586 C83.7842853,122.665586 89.9582564,124.621451 96.4262581,123.364397 C102.385077,122.20631 108.495945,118.053705 112.459317,113.177463 C116.049444,108.760832 118.569514,102.468852 119.467046,96.6210521 L151.493891,96.6190392 C150.395976,100.937709 149.093313,105.232559 147.560058,109.097321 C144.223683,117.509887 139.985078,124.131982 136.13415,128.827398 L129.647351,128.825386 C130.161569,128.248355 130.659676,127.662602 131.139993,127.069804 C136.625879,120.300768 139.851153,112.762135 139.851153,112.762135 C139.851153,112.762135 140.899056,110.235614 138.562923,108.866509 C136.226789,107.497739 134.856661,109.702867 134.856661,109.702867 C134.856661,109.702867 131.596143,114.867289 126.046148,120.222265 C122.818525,123.336887 118.712837,126.494451 114.449729,128.823373 L78.7787166,128.825386 Z M45.2370763,128.825386 C44.9084736,128.273516 44.7144671,127.939376 44.7144671,127.939376 C44.7144671,127.939376 44.4754834,127.542499 44.7661574,126.938295 C44.8708807,126.720567 44.9037745,126.495793 45.1320174,126.263304 C45.3219961,126.06973 45.6408649,125.805705 45.6408649,125.805705 C45.6408649,125.805705 48.1663057,124.740547 50.2178068,123.939079 C51.455689,123.455648 52.7298216,123.108424 52.7298216,123.108424 C52.7298216,123.108424 53.4518077,122.871573 54.022415,123.034617 C54.3953236,123.141301 54.7034516,123.672035 54.7034516,123.672035 C54.7034516,123.672035 55.9567738,125.855357 57.4943926,127.971246 C57.7031678,128.25842 57.9183203,128.544251 58.1334728,128.823373 L64.0677888,128.825386 C63.2699456,127.895763 62.4536415,126.86516 61.6504278,125.735254 C57.2134524,119.493932 53.1618049,110.19804 52.0612041,101.457372 C51.8567924,99.8349771 51.7305875,98.219292 51.6809111,96.6193747 L47.0297902,96.6190392 C47.0479154,98.520891 47.1311569,99.8795963 47.1311569,99.8795963 C47.1311569,99.8795963 47.1163883,100.47642 46.858608,100.804522 C46.4769724,101.289966 45.8019775,101.570429 45.8019775,101.570429 L41.0491543,101.530172 C41.0491543,101.530172 40.5748789,101.276882 40.3134065,100.879335 C40.0724088,100.512988 40.0422002,100.00037 40.0422002,100.00037 C40.0422002,100.00037 40.2996448,98.5467232 40.7578089,96.6166908 L0.359643718,96.6190392 C0.010489105,100.486485 -0.0928287469,104.389491 0.0867974276,108.275388 C0.404748548,115.156475 1.56654867,122.117743 3.4111912,128.827063 L45.2370763,128.825386 L45.2370763,128.825386 L45.2370763,128.825386 Z" id="path18"></path>
                        <path d="M114.449729,128.825386 C113.193722,129.509099 111.924288,130.123368 110.659554,130.643031 C104.887022,133.014894 98.5687208,134.145807 93.4557436,134.003898 C86.363766,133.80764 81.3675956,131.683363 81.3675956,131.683363 C81.3675956,131.683363 79.6772553,130.763134 78.8760555,129.061565 C78.8408121,128.986082 78.8082539,128.906572 78.7787166,128.823037 L114.449729,128.825386 L114.449729,128.825386 Z M175.266735,142.244697 L149.276243,129.860014 C149.276243,129.860014 147.041476,133.131642 144.049144,136.43447 C142.069137,138.620476 139.589009,140.764211 137.990973,142.244026 L175.266735,142.244697 L175.266735,142.244697 Z M108.877917,142.244697 C109.349507,142.109162 109.818076,141.966246 110.282953,141.814608 C117.937147,139.317945 124.596805,134.490348 129.647351,128.825386 L136.13415,128.825386 C136.041845,128.940121 135.949541,129.051836 135.857573,129.16221 C133.632876,131.834666 131.167181,133.911304 130.04577,135.174733 C129.268065,136.051349 129.620499,137.480506 129.620499,137.480506 L134.321297,142.244697 L128.828698,142.244697 L126.438524,139.855724 C126.438524,139.855724 125.304023,139.301171 124.510879,139.589686 C123.338448,140.016755 122.25463,140.988649 120.517299,141.94142 C120.333698,142.042065 120.143383,142.14271 119.949041,142.243355 L108.877917,142.244697 L108.877917,142.244697 Z M58.655075,142.244697 C58.9668951,141.880362 59.8268339,140.897398 60.8623184,139.891956 C62.3445548,138.45307 64.1285417,136.957153 64.1285417,136.957153 C64.1285417,136.957153 64.6998204,136.523709 65.2559947,136.533102 C65.8658732,136.543502 66.4646752,136.99741 66.4646752,136.99741 C66.4646752,136.99741 68.4748912,138.540631 70.5807678,139.924498 C71.9639871,140.833321 73.7550227,141.788105 73.7550227,141.788105 C73.7550227,141.788105 73.9970274,141.961214 74.2329903,142.242348 L85.4158866,142.244697 C76.9306202,139.712473 70.9758295,135.226061 70.9758295,135.226061 C70.9758295,135.226061 67.7099417,133.072262 64.0677888,128.825721 L58.1338085,128.825386 C59.3586003,130.409535 60.5840634,131.763879 60.5840634,131.763879 C60.5840634,131.763879 60.9150156,132.353993 60.8841357,133.010869 C60.8545984,133.641576 60.4632289,134.340387 60.4632289,134.340387 L55.1867895,139.372629 C55.1867895,139.372629 54.430567,139.933556 53.6219829,139.782924 C52.9295341,139.653428 52.1659273,138.809017 52.1659273,138.809017 C52.1659273,138.809017 50.5306339,137.026262 49.1662111,135.035843 C47.6295992,132.794818 46.0355909,130.167317 45.2370763,128.825721 L3.4111912,128.825386 C4.68377976,133.455719 6.2814131,137.964607 8.15122613,142.244697 L58.655075,142.244697 L58.655075,142.244697 L58.655075,142.244697 Z" id="path20"></path>
                        <path d="M75.2050366,153.060326 L78.6286805,145.290545 C78.6286805,145.290545 78.9750727,144.936275 79.4953323,144.836972 C79.9088547,144.757798 80.5220898,144.928223 80.5220898,144.928223 C80.5220898,144.928223 82.5682205,145.800143 84.7821768,146.525457 C87.3895166,147.379596 90.2287914,148.1086 90.2287914,148.1086 C90.2287914,148.1086 90.7661693,148.414225 91.079332,148.991591 C91.4290807,149.638401 91.5576352,150.564334 91.5576352,150.564334 L91.4770788,156.723798 C91.4770788,156.723798 91.2854219,157.655098 90.728912,158.188851 C90.2942435,158.606192 89.4635063,158.656178 89.4635063,158.656178 C89.4635063,158.656178 86.0999441,158.393831 82.7340322,157.704414 C79.5174853,157.045861 76.292547,155.958897 76.292547,155.958897 C76.292547,155.958897 75.5161854,155.614356 75.1650941,154.912191 C74.6643023,154.113071 75.2050366,153.060326 75.2050366,153.060326 L75.2050366,153.060326 Z M95.5854515,157.005603 L95.7868423,149.799433 C95.7868423,149.799433 95.9506402,149.12981 96.3755748,148.658456 C96.6303342,148.374973 97.2368562,148.189116 97.2368562,148.189116 C97.2368562,148.189116 100.053978,148.166303 102.650577,147.839543 C104.995437,147.544318 107.185562,147.061894 107.185562,147.061894 C107.185562,147.061894 108.052886,146.974333 108.720832,147.296396 C109.062525,147.461118 109.401197,148.028084 109.401197,148.028084 L111.978664,154.308322 C111.978664,154.308322 112.212613,155.384886 111.695374,156.118922 C111.20633,156.813372 109.964756,157.166635 109.964756,157.166635 C109.964756,157.166635 106.978801,157.933884 103.757891,158.384437 C100.968292,158.774939 97.8813068,158.857468 97.8813068,158.857468 C97.8813068,158.857468 97.3402368,159.009777 96.4135034,158.285134 C95.4871056,157.560492 95.5854515,157.005603 95.5854515,157.005603 L95.5854515,157.005603 Z M8.15136039,142.244697 C10.107033,146.721714 12.3606298,150.948126 14.8516664,154.800139 C24.1576003,169.190002 36.1751609,178.473481 36.1751609,178.473481 C36.1751609,178.473481 47.9353776,188.277295 65.5533818,194.079469 C80.290826,198.933234 99.4652455,200.40701 116.048772,196.546274 C133.499622,192.483913 150.570179,182.533829 162.170626,170.913377 C174.398405,158.665572 180.69321,144.830598 180.69321,144.830598 L175.266735,142.244697 L137.990973,142.244697 C137.785554,142.433909 137.594569,142.613728 137.421037,142.780463 C136.536596,143.631918 135.340334,143.277648 135.340334,143.277648 L134.321297,142.244697 L128.828698,142.244697 L131.35246,144.767192 C131.35246,144.767192 131.753564,145.823962 131.708251,146.535521 C131.65354,147.38228 131.15107,147.90731 131.15107,147.90731 C131.15107,147.90731 128.450419,149.894039 125.089542,151.700279 C122.063645,153.326699 118.342614,154.791417 118.342614,154.791417 C118.342614,154.791417 117.70924,154.831339 117.16045,154.581069 C116.871454,154.449224 116.489818,153.946 116.489818,153.946 L113.952294,147.504731 C113.952294,147.504731 113.386386,145.659576 114.634673,144.894675 C115.90612,144.116019 118.126454,143.186732 119.949041,142.243355 L108.877917,142.244697 C101.741633,144.282419 93.864567,144.404199 87.3529306,142.778114 C86.694047,142.613728 86.0479181,142.435586 85.4158866,142.246709 L74.2329903,142.244697 C74.4014872,142.442967 74.5666277,142.69894 74.6384571,142.986449 C74.7864794,143.576228 74.3991377,144.364612 74.3991377,144.364612 L71.2980548,151.892846 C71.2980548,151.892846 70.9080279,152.585953 70.2310191,152.833875 C69.7251925,153.019397 68.881365,152.77852 68.881365,152.77852 C68.881365,152.77852 66.7922709,151.640563 64.6239632,150.088619 C61.8363786,148.093839 58.8118242,145.57235 58.8118242,145.57235 C58.8118242,145.57235 58.055266,144.966468 57.9844436,144.165335 C57.9142925,143.37628 58.5298771,142.391974 58.5298771,142.391974 C58.5298771,142.391974 58.5738474,142.339303 58.655075,142.244361 L8.15136039,142.244697 L8.15136039,142.244697 L8.15136039,142.244697 Z" id="path22"></path>
                    </g>
                </g>
            </g>
        </g>
    </g>
</svg>