<?xml version="1.0" encoding="UTF-8"?>
<svg width="200px" height="145px" viewBox="0 0 200 145" version="1.1" xmlns="http://www.w3.org/2000/svg" xmlns:xlink="http://www.w3.org/1999/xlink">
    <!-- Generator: Sketch 60.1 (88133) - https://sketch.com -->
    <title>uc-davis</title>
    <desc>Created with Sketch.</desc>
    <defs>
        <polygon id="path-1" points="0.0428571429 0.195714286 199.842143 0.195714286 199.842143 144.285714 0.0428571429 144.285714"></polygon>
    </defs>
    <g id="Logos_BGL" stroke="none" stroke-width="1" fill="none" fill-rule="evenodd">
        <g id="uc-davis" transform="translate(0.000000, -28.000000)">
            <g id="uc-davis_BGL">
                <g id="UC-Davis---Heritage-Logo-(Primary)" transform="translate(0.000000, 28.000000)">
                    <mask id="mask-2" fill="white">
                        <use xlink:href="#path-1"></use>
                    </mask>
                    <g id="Clip-2"></g>
                    <path d="M119.363571,74.785 L106.763571,74.785 L113.025,56.2335714 L113.179286,56.2335714 L119.363571,74.785 Z M123.46,86.3807143 L127.247143,96.5064286 L143.402857,96.5064286 L121.45,38.2228571 L104.907857,38.2228571 L82.4914286,96.5064286 L98.5685714,96.5064286 L102.588571,86.3807143 L123.46,86.3807143 L123.46,86.3807143 Z" id="Fill-1" fill="#15233C" mask="url(#mask-2)"></path>
                    <path d="M199.842143,97.2507143 C185.764286,123.256429 157.315714,144.285714 113.233571,144.285714 C71.205,144.285714 48.4678571,123.256429 26.4371429,97.2507143 C16.76,85.8278571 9.01928571,77.0592857 0,69.5535714 C9.34857143,64.1635714 20.6392857,52.6835714 27.4021429,45.3514286 C51.6771429,19.035 73.4557143,0.195714286 113.230714,0.195714286 C150.651429,0.195714286 183.622857,13.7492857 199.735714,48.2735714 L173.403571,48.2735714 C162.345,32.6164286 139.9,21.9757143 114.488571,21.9757143 C78.1235714,21.9757143 48.6457143,43.8685714 48.6457143,70.8771429 C48.6457143,97.885 78.1235714,119.777857 114.488571,119.777857 C137.579286,119.777857 158.535714,110.309286 170.289286,96.9485714 L199.842143,97.2507143" id="Fill-3" fill="#15233C" mask="url(#mask-2)"></path>
                </g>
            </g>
        </g>
    </g>
</svg>