<?xml version="1.0" encoding="UTF-8"?>
<svg width="200px" height="200px" viewBox="0 0 200 200" version="1.1" xmlns="http://www.w3.org/2000/svg" xmlns:xlink="http://www.w3.org/1999/xlink">
    <!-- Generator: Sketch 54.1 (76490) - https://sketchapp.com -->
    <title>uc-irvine</title>
    <desc>Created with Sketch.</desc>
    <g id="uc-irvine" stroke="none" stroke-width="1" fill="none" fill-rule="evenodd">
        <g id="uc-irvine_BGL" transform="translate(-0.000000, 0.000000)">
            <g id="uc-irvine" transform="translate(7.000000, 0.000000)">
                <g id="g10" transform="translate(93.064987, 99.620050) scale(-1, 1) rotate(-180.000000) translate(-93.064987, -99.620050) translate(0.129979, 0.161226)" fill-rule="nonzero">
                    <g id="g12" transform="translate(0.233962, 0.000000)">
                        <path d="M126.239276,46.1163917 C126.239276,34.9827238 118.725968,23.0863823 97.6397292,23.0863823 L89.3751424,23.0863823 C68.288384,23.0863823 60.775076,34.9827238 60.775076,46.1163917 L60.775076,55.0858875 C67.4567782,53.9579074 74.5551931,53.2064407 81.9899938,52.8221266 L81.9899938,48.1359909 L71.3590087,48.1359909 L71.3590087,27.8833139 L115.630127,27.8833139 L115.630127,48.1359909 L104.997842,48.1359909 L104.997842,52.7038161 C112.430823,52.9448575 119.511561,53.4259002 126.239276,54.1425238 L126.239276,46.1163917 Z M37.3913282,86.2642138 C27.5233201,91.3435045 23.1066066,97.2075447 23.1066066,100.766481 C23.1066066,104.325156 27.5233201,110.188416 37.3913282,115.267447 C37.4898523,115.318152 37.5943555,115.369636 37.6944393,115.420341 L37.6944393,86.1118403 C37.5943555,86.1625448 37.4898523,86.2137693 37.3913282,86.2642138 Z M81.9899938,125.605964 L81.9899938,75.9259565 C73.8540862,76.3882776 66.8214407,77.3243606 60.775076,78.5311277 L60.775076,123.000793 C66.8214407,124.20756 73.8540862,125.143643 81.9899938,125.605964 Z M126.239276,124.133974 L126.239276,77.3979471 C119.862244,76.6397199 112.809062,76.0827504 104.997842,75.8055658 L104.997842,125.726355 C112.808802,125.44917 119.862244,124.892201 126.239276,124.133974 L126.239276,124.133974 Z M170.706662,89.5935492 C170.580063,89.5259432 170.461262,89.4585972 170.332583,89.3912512 C165.39052,86.7988212 158.560382,84.0025331 149.319912,81.6092808 L149.319912,119.92238 C158.560382,117.529388 165.39,114.73284 170.331543,112.14093 C170.796868,111.896768 171.244776,111.652866 171.684625,111.409485 L185.571584,130.041438 C175.708516,135.985565 163.59343,140.54455 149.319912,143.70279 L149.319912,178.435632 L159.910084,178.435632 L159.910084,198.688309 L115.640005,198.688309 L115.640005,178.435632 L126.239276,178.435632 L126.239276,147.390437 C119.511301,148.106541 112.430823,148.587843 104.997842,148.828625 L104.997842,153.348866 L115.640005,153.348866 L115.640005,173.601543 L71.369667,173.601543 L71.369667,153.348866 L81.9899938,153.348866 L81.9899938,148.709534 C74.5551931,148.32522 67.4570381,147.574014 60.775076,146.446033 L60.775076,178.435632 L71.369667,178.435632 L71.369667,198.688309 L27.0990685,198.688309 L27.0990685,178.435632 L37.6944393,178.435632 L37.6944393,140.498006 C33.8387413,139.094661 30.2034877,137.531662 26.8310517,135.796269 C9.79594776,127.028551 0.0258942604,114.260898 0.0258942604,100.766481 C0.0258942604,87.2718032 9.79594776,74.5033703 26.8310517,65.7366925 C30.2034877,64.0010385 33.8387413,62.4377798 37.6944393,61.0344353 L37.6944393,46.1163917 C37.6944393,18.9640026 58.946531,0.000304715836 89.3751424,0.000304715836 L97.6397292,0.000304715836 C128.068601,0.000304715836 149.319912,18.9640026 149.319912,46.1163917 L149.319912,57.8312111 C163.136944,60.8893424 174.932021,65.2592901 184.618578,70.9283131 L170.706662,89.5935492 L170.706662,89.5935492 Z" id="path14" fill="#FBC01C"></path>
                        <path d="M81.9899938,71.7754683 C39.0737768,74.1832819 18.9521647,89.8754142 18.9521647,100.766481 C18.9521647,111.657287 39.0737768,127.348119 81.9899938,129.755933 L81.9899938,144.548385 C60.7698769,143.432106 42.5143218,139.19373 28.7321251,132.100301 C13.129312,124.070528 4.18054161,112.650055 4.18054161,100.766481 C4.18054161,88.8829061 13.129312,77.4613928 28.7321251,69.4316203 C42.5143218,62.338451 60.7698769,58.0990348 81.9899938,56.9824958 L81.9899938,71.7754683 Z M104.997842,71.6462368 L104.997842,56.8709459 C136.124701,57.8904963 160.909103,63.1226806 178.852708,72.4887116 L169.870377,84.5407809 C157.186503,78.3982559 136.960466,72.7484746 104.997842,71.6462368 Z M179.840809,128.528104 C161.823375,138.219163 136.696089,143.621403 104.997842,144.659155 L104.997842,129.885164 C137.818588,128.753544 158.26065,122.826318 170.872776,116.495016 L179.840809,128.528104 Z M130.394185,54.6194061 L130.394185,46.1163917 C130.394185,26.0506713 112.749792,18.9304856 97.6397292,18.9304856 L89.3751424,18.9304856 C65.1990424,18.9304856 56.6204263,33.575999 56.6204263,46.1163917 L56.6204263,55.8459349 C51.4137262,56.8706859 46.4875209,58.1369982 41.8490891,59.6204298 L41.8490891,46.1163917 C41.8490891,21.4108717 61.3924765,4.15519467 89.3751424,4.15519467 L97.6397292,4.15519467 C125.622135,4.15519467 145.165783,21.4108717 145.165783,46.1163917 L145.165783,56.9653342 C140.461321,56.0391321 135.537456,55.2564626 130.394185,54.6194061 L130.394185,54.6194061 Z M41.8490891,141.912011 C46.4875209,143.395443 51.4137262,144.661235 56.6204263,145.685986 L56.6204263,182.117818 L67.228275,182.117818 L67.228275,195.006122 L31.2409804,195.006122 L31.2409804,182.117818 L41.8490891,182.117818 L41.8490891,141.912011 Z M145.165783,120.93257 C140.748575,121.937299 135.841607,122.845299 130.394185,123.602747 L130.394185,77.9291743 C135.841347,78.6866215 140.748575,79.594622 145.165783,80.5990912 L145.165783,120.93257 Z M130.394185,146.911735 C135.536936,146.274678 140.461581,145.492789 145.165783,144.567107 L145.165783,182.117818 L155.768692,182.117818 L155.768692,195.006122 L119.781397,195.006122 L119.781397,182.117818 L130.394185,182.117818 L130.394185,146.911735 Z M56.6204263,122.096953 C50.6504893,120.682168 45.7762756,119.01594 41.8490891,117.348152 L41.8490891,84.1837692 C45.7762756,82.5157212 50.6502293,80.8497534 56.6204263,79.4347078 L56.6204263,122.096953 Z M100.85671,157.031053 L100.85671,44.4538042 L111.487695,44.4538042 L111.487695,31.5655006 L75.5004006,31.5655006 L75.5004006,44.4538042 L86.1311257,44.4538042 L86.1311257,157.031053 L75.5110589,157.031053 L75.5110589,169.919356 L111.498354,169.919356 L111.498354,157.031053 L100.85671,157.031053 L100.85671,157.031053 Z" id="path16" fill="#16243A"></path>
                        <path d="M161.543401,49.1688025 L162.151183,49.1688025 C162.492248,49.1688025 162.744147,49.2205471 162.90766,49.3235162 C163.071174,49.4264854 163.153061,49.5952403 163.153061,49.8297811 C163.153061,50.0786232 163.067535,50.256219 162.897002,50.3628284 C162.72647,50.4694379 162.463392,50.5227426 162.108549,50.5227426 L161.543401,50.5227426 L161.543401,49.1688025 Z M162.278822,51.1090947 C162.889983,51.1090947 163.34647,51.0095058 163.648541,50.8108482 C163.950612,50.6116705 164.101388,50.3201847 164.101388,49.9366506 C164.101388,49.6165622 164.019501,49.3554991 163.856507,49.1529411 C163.692734,48.9503831 163.454872,48.813351 163.142143,48.7426247 L164.101388,46.7916716 L163.067535,46.7916716 L162.215132,48.5933714 L161.543401,48.5933714 L161.543401,46.7916716 L160.61639,46.7916716 L160.61639,51.1090947 L162.278822,51.1090947 Z M162.193816,52.1647883 C161.290981,52.1647883 160.527484,51.8519806 159.902285,51.2263651 C159.582277,50.8995161 159.337396,50.5352237 159.166864,50.1337481 C158.996071,49.7320125 158.910805,49.3144154 158.910805,48.881217 C158.910805,48.4474985 158.990872,48.0351019 159.150747,47.6442872 C159.310361,47.2534726 159.546663,46.8982811 159.859652,46.5781927 C160.179141,46.2583643 160.534503,46.0147227 160.92522,45.8480479 C161.315937,45.680853 161.721212,45.5973856 162.140524,45.5973856 C163.064155,45.5973856 163.856507,45.917214 164.517321,46.5568708 C164.82979,46.8556373 165.067652,47.2001678 165.231426,47.5909825 C165.394679,47.9817972 165.476306,48.3941938 165.476306,48.8279123 C165.476306,49.7587948 165.163577,50.5440645 164.538637,51.1837213 C163.884583,51.8376793 163.103149,52.1647883 162.193816,52.1647883 L162.193816,52.1647883 Z M162.183157,52.7298185 C162.715811,52.7298185 163.214931,52.6338699 163.680516,52.4417129 C164.145841,52.2498159 164.566973,51.9622303 164.943392,51.5781763 C165.305774,51.2157041 165.57925,50.8053877 165.76408,50.346967 C165.94891,49.8885464 166.041455,49.399703 166.041455,48.881217 C166.041455,48.3479097 165.94553,47.8504855 165.753421,47.3886846 C165.561572,46.9263635 165.280818,46.514227 164.911417,46.1520148 C164.527979,45.782262 164.103208,45.5016971 163.637883,45.3098001 C163.172298,45.1176431 162.687216,45.0216945 162.183157,45.0216945 C161.6713,45.0216945 161.181279,45.1212834 160.712315,45.3204611 C160.24309,45.5191187 159.823778,45.8072242 159.454638,46.1839977 C159.091996,46.5534905 158.814881,46.9674472 158.623032,47.4258679 C158.431183,47.8842885 158.335258,48.3692316 158.335258,48.881217 C158.335258,49.3929424 158.434822,49.884906 158.63369,50.357628 C158.832558,50.8300899 159.120591,51.2549676 159.497271,51.631481 C160.228793,52.363706 161.124088,52.7298185 162.183157,52.7298185 L162.183157,52.7298185 Z" id="path18" fill="#16243A"></path>
                    </g>
                </g>
            </g>
        </g>
    </g>
</svg>