<?xml version="1.0" encoding="UTF-8"?>
<svg width="200px" height="200px" viewBox="0 0 200 200" version="1.1" xmlns="http://www.w3.org/2000/svg" xmlns:xlink="http://www.w3.org/1999/xlink">
    <!-- Generator: Sketch 54.1 (76490) - https://sketchapp.com -->
    <title>incarnate-word</title>
    <desc>Created with Sketch.</desc>
    <g id="incarnate-word" stroke="none" stroke-width="1" fill="none" fill-rule="evenodd">
        <g id="incarnate-word_BGL">
            <g id="incarnate-word" transform="translate(0.000000, 43.000000)">
                <g id="g10" transform="translate(99.935771, 56.806681) scale(-1, 1) rotate(-180.000000) translate(-99.935771, -56.806681) translate(0.000000, 0.287736)" fill-rule="nonzero">
                    <g id="g12">
                        <path d="M169.571736,86.3342303 C153.714575,116.591391 65.0867036,128.456259 0,81.5681418 C22.8488112,86.0377628 45.2547195,87.8972361 45.2547195,87.8972361 L33.3873338,82.5156049 L44.6178537,82.9050718 C44.6178537,82.9050718 29.1486184,76.0025671 15.1495436,66.0593432 C60.22145,70.9692982 87.7076407,20.8632493 90.619394,0 L138.711878,31.8649703 L199.732301,52.4793821 C189.161717,74.354783 169.571736,86.3342303 169.571736,86.3342303" id="path14" fill="#231F20"></path>
                        <polyline id="path16" fill="#231F20" points="105.729991 4.31338204 107.159406 4.31338204 107.159406 0 107.680922 0 107.680922 4.31338204 109.182785 4.31338204 109.182785 4.83341285 105.729991 4.83341285 105.729991 4.31338204"></polyline>
                        <polyline id="path18" fill="#231F20" points="111.939882 0.900166965 110.701089 4.83341285 109.869747 4.83341285 109.869747 0 110.391262 0 110.391262 4.10524845 111.686574 0 112.202952 0 113.497749 4.10524845 113.497749 0 114.014641 0 114.014641 4.83341285 113.183812 4.83341285 111.939882 0.900166965"></polyline>
                        <path d="M137.301474,69.8687202 C137.301474,69.8687202 128.799997,74.5973006 134.986252,83.2488097 C131.680922,82.5068701 129.008603,80.0842626 128.573921,77.3215138 C128.573921,77.3215138 125.529605,80.5621046 125.06615,84.5513145 C115.720999,90.1158616 94.8773258,88.2661507 94.8773258,88.2661507 C136.992161,100.462425 153.732559,81.5773904 158.873728,79.6963371 C158.873728,79.6963371 166.373792,78.9317899 166.373792,83.2770692 C166.373792,88.6720594 149.341551,108.172123 96.2980066,108.172123 C57.0938971,108.172123 23.6562615,89.7022457 23.6562615,89.7022457 C35.6468585,92.0416162 56.8621694,93.1267799 62.3789323,92.6545898 C60.1448925,91.4563882 51.9157341,87.1069985 51.9157341,87.1069985 C51.9157341,87.1069985 60.5749503,87.3248533 63.4163118,87.223633 C63.4163118,87.223633 51.0067553,82.7797025 36.1452528,70.1148345 C74.749388,61.9201012 66.8434152,45.3867683 95.7060991,45.3867683 C116.394602,45.3867683 129.158121,55.9208721 129.158121,55.9208721 C129.158121,55.9208721 118.476555,38.6116882 92.4531769,33.3204873 C92.4531769,33.3204873 96.2743714,26.7242639 98.379959,22.5874882 C129.179188,41.4930754 138.213484,47.4209365 135.541679,64.4233767 C130.849579,69.4032096 129.855873,72.7234407 129.855873,72.7234407 C131.318687,70.924083 134.582912,70.0208075 137.301474,69.8687202" id="path20" fill="#D12636"></path>
                        <path d="M171.411685,80.1901072 C171.411685,80.1901072 176.025686,75.5822717 176.88015,71.8068062 C163.447652,79.401411 157.510593,72.34425 149.184839,58.1138072 C149.184839,58.1138072 155.137825,63.3669862 160.006162,62.1050723 L181.732558,57.722285 C150.534614,58.2052651 146.419521,54.0290288 142.252533,42.2653811 L194.006932,55.4805381 C185.987921,69.3245969 171.411685,80.1901072 171.411685,80.1901072" id="path22" fill="#D12636"></path>
                        <path d="M150.72832,76.3298632 L146.174434,75.705072 C143.147074,75.2960803 143.178416,79.6336525 144.593959,80.8128432 C144.593959,80.8128432 148.586252,78.38407 150.72832,76.3298632" id="path24" fill="#FFFFFF"></path>
                    </g>
                </g>
            </g>
        </g>
    </g>
</svg>