<?xml version="1.0" encoding="UTF-8"?>
<svg width="200px" height="200px" viewBox="0 0 200 200" version="1.1" xmlns="http://www.w3.org/2000/svg" xmlns:xlink="http://www.w3.org/1999/xlink">
    <!-- Generator: Sketch 54.1 (76490) - https://sketchapp.com -->
    <title>uni</title>
    <desc>Created with Sketch.</desc>
    <g id="uni" stroke="none" stroke-width="1" fill="none" fill-rule="evenodd">
        <g id="uni_BGL">
            <g id="uni" transform="translate(0.000000, 31.000000)">
                <g id="g10" transform="translate(99.999998, 69.450454) scale(-1, 1) rotate(-180.000000) translate(-99.999998, -69.450454) translate(0.000000, 0.531537)">
                    <g id="g12">
                        <path d="M111.800898,97.0729705 C111.804502,94.8711688 111.83243,92.7288265 111.862159,90.6981959 L111.874772,89.9193671 C110.799997,89.7919797 109.718015,89.6554933 108.633331,89.5104482 C109.659457,92.0017995 110.733331,94.5549526 111.800898,97.0729705 L111.800898,97.0729705 Z M180.292788,59.5368454 C180.292788,59.5368454 175.868464,64.6889173 174.188284,66.7563947 L178.036932,75.0721603 C178.036932,75.0721603 169.406302,81.1683763 156.306302,85.8192771 C161.036032,85.659097 168.239635,85.0946826 177.431527,83.4114394 L199.540536,137.015312 L171.027924,137.017114 L150.648645,87.636214 C149.598194,87.939187 148.530627,88.2299077 147.439636,88.50225 L167.433329,137.017114 L142.195492,137.017114 C142.195492,137.017114 135.321618,120.472069 134.430627,118.179276 L134.18288,137.017114 L103.078376,137.017114 L81.4685565,84.6016195 C79.9426106,84.2680159 78.4850431,83.9399979 77.1097278,83.6236916 C77.4595476,84.308106 77.7868449,85.003151 78.0690071,85.7175654 L99.2126101,137.018915 L70.790719,137.018915 L51.4136023,90.1225203 C50.5929717,88.1788266 48.4649537,86.5684663 46.5673862,86.4580159 L46.3654042,86.4527005 C45.93117,86.4527005 45.344143,86.5417095 45.0162151,86.9587366 C44.7153142,87.3434212 44.6484674,87.9927005 44.8325214,88.7366644 C44.8919809,88.9741419 44.9718908,89.2078356 45.0854944,89.4714392 L64.7237822,137.018915 L36.2644135,137.018915 L16.8376572,89.9799077 C16.2436933,88.5638717 15.7689185,87.0643221 15.4627924,85.6457636 C14.1871168,79.7241422 15.3614411,74.1391873 18.77045,69.919728 C21.2887382,66.8003587 24.783603,64.7490975 28.8492786,63.9393678 C10.6317114,58.7767553 0,55.3684671 0,55.3684671 C0,55.3684671 21.0423418,53.3695482 45.1037827,50.8185573 C40.3118008,49.152251 35.8019811,47.3554042 31.8394587,45.4307196 C31.8394587,45.4307196 78.0665746,43.7954043 90.9513491,32.23081 C96.4891868,27.2575669 101.030628,23.7317111 106.483781,21.3703598 C110.096394,12.5918916 117.709907,0 131.699997,0 C144.736933,0 149.291888,8.23163042 150.807203,12.6748645 C153.184681,14.659369 157.106302,19.0019815 154.896393,24.8081976 C154.896393,24.8081976 163.671167,25.1731525 169.210807,32.4746839 C176.239635,32.9550442 181.799995,38.7954044 181.799995,45.9477466 C181.799995,48.6169357 181.017113,51.0965753 179.683779,53.1918906 C182.270266,57.703422 180.292788,59.5368454 180.292788,59.5368454 L180.292788,59.5368454 Z" id="path14" fill="#FAB80A" fill-rule="nonzero"></path>
                        <path d="M187.425221,87.3539618 C186.200896,87.3539618 185.209004,86.3598177 185.209004,85.1354934 C185.209004,83.910088 186.200896,82.9159439 187.425221,82.9159439 C188.650446,82.9159439 189.642338,83.910088 189.642338,85.1354934 C189.642338,86.3598177 188.650446,87.3539618 187.425221,87.3539618 M187.425221,83.3745024 C186.473869,83.3745024 185.727923,84.1652231 185.727923,85.1354934 C185.727923,86.1054033 186.473869,86.896124 187.425221,86.896124 C188.375671,86.896124 189.12522,86.1054033 189.12522,85.1354934 C189.12522,84.1652231 188.375671,83.3745024 187.425221,83.3745024 M188.449545,85.6605384 C188.449545,86.2182861 188.183779,86.4143222 187.443239,86.4143222 L186.55495,86.4143222 L186.55495,83.8872051 L187.038734,83.8872051 L187.038734,84.8936916 L187.297293,84.8936916 L187.932428,83.8872051 L188.477473,83.8872051 L187.803599,84.9123402 C188.217112,84.9746826 188.449545,85.2283762 188.449545,85.6605384 M187.038734,85.3019798 L187.038734,86.0079258 L187.508103,86.0079258 C187.803599,86.0079258 187.967563,85.9516195 187.967563,85.6788267 C187.967563,85.363151 187.790085,85.3019798 187.520716,85.3019798 L187.038734,85.3019798" id="path16" fill="#FAB80A"></path>
                        <path d="M178.581978,44.5425214 C177.77477,39.1044134 173.317113,35.3360352 167.822518,35.4395487 C166.277473,33.1647739 165.086482,32.0072965 162.764861,30.5254046 C160.63423,29.1701795 159.228825,28.6071164 156.745942,28.1179272 C157.512609,29.2827921 157.852248,30.0271164 158.232428,31.3629722 C158.509005,32.3325217 158.609005,32.9064857 158.66396,33.9126118 C155.553149,33.1503595 153.718915,31.9063055 151.864861,29.2901794 C150.428825,27.2684678 149.899095,25.7790985 149.725221,23.3037832 L151.76396,25.0018012 C152.848645,22.7054949 152.86396,20.8016211 151.817113,18.4899094 C151.004501,16.6828825 150.08378,15.7115311 148.327924,14.798378 C147.940537,13.105315 147.576573,12.1603601 146.734231,10.6478376 C143.197294,4.32714404 134.797294,1.82327022 127.707204,3.28195487 C115.71261,5.74676562 108.380177,23.949549 108.29279,23.9938733 C104.864862,25.8143237 98.4999975,29.2180173 94.4639616,33.5659451 C90.6810788,37.3504495 82.8529709,43.4776566 45.1175664,47.642161 L60.716485,52.4669356 L14.2469366,56.813422 C47.4915303,65.9029713 65.0981966,70.7925208 82.7808087,74.8979261 L73.2020702,79.558016 C97.1954931,84.7930609 107.45315,86.6972951 120.67297,87.7938717 C147.73333,90.0404482 162.457654,80.108016 174.136933,73.8179261 L170.66396,66.3291875 C171.219816,65.5708092 177.999996,57.7407193 177.992788,57.5590977 C177.862158,55.2189175 177.181077,54.6453139 175.890086,53.3326113 C178.312608,50.6880168 179.109905,48.0873862 178.581978,44.5425214" id="path18" fill="#4A217B"></path>
                        <path d="M147.384681,20.3603599 C146.236032,19.7090085 145.498195,19.422522 144.201798,19.1181076 C143.531528,18.3650446 143.311708,17.7385581 143.408105,16.8728825 C143.5036,16.0349546 143.830627,15.531351 144.594591,15.0548645 C146.647744,15.4072068 147.984681,16.1602699 149.234231,17.667477 C150.643239,19.3640536 150.96396,20.9019815 150.277474,22.6812607 C149.350447,21.6290085 148.674771,21.0828824 147.384681,20.3603599" id="path20" fill="#FFFFFF"></path>
                        <path d="M151.542339,37.2099991 C150.290086,38.154954 146.771168,38.7992783 143.399096,38.7918909 C142.086483,38.7918909 145.872969,37.4370261 146.754951,35.3712604 C147.636032,33.3143235 147.497294,32.23081 147.497294,32.23081 C147.497294,32.23081 152.769366,36.2865757 151.542339,37.2099991" id="path22" fill="#FFFFFF"></path>
                        <path d="M168.543239,48.432251 C167.187383,54.2546833 160.442338,57.7192778 154.920717,55.4458545 L155.086483,58.0183769 C158.252248,59.2236922 160.136032,59.7181066 163.490086,60.2217102 C166.827924,60.7249534 168.77387,60.8076561 172.145942,60.5908994 C170.695491,62.9997282 169.597293,64.2613497 167.409005,66.0279263 C164.381978,68.4730614 162.184681,69.4978361 158.368465,70.2484667 L164.255852,70.9582865 L166.664861,74.2419801 C151.317113,81.8665745 141.49369,87.0548627 121.345042,85.457115 C106.307205,84.2687366 103.4027,82.9775655 83.2615294,79.0822503 L93.0711688,74.0966648 C69.8026109,69.363782 53.4941428,64.6062146 29.6435128,58.5497283 L71.6976559,54.9553139 L58.0036022,49.2345934 C87.8895474,45.3846836 95.5261237,36.8890982 96.2801778,35.9765757 C101.699097,29.446756 110.89279,25.8854048 110.89279,25.8854048 C113.028826,19.8827923 115.409907,16.3566663 118.140538,13.1830627 C121.24324,9.57027003 127.672069,6.24507192 133.950447,7.00169352 C138.56396,7.55595477 141.399096,8.97205383 144.604501,12.3370267 C140.240537,10.9494592 136.788285,11.4386484 132.984681,13.9836933 C129.36306,16.4027023 128.144141,19.2412608 127.086483,23.4656751 C126.261258,26.7514408 127.383781,28.1900894 125.400898,30.9315308 C123.294592,33.8404496 116.67297,35.3712604 113.347745,34.0234226 C118.348646,37.7181973 126.81351,39.8521612 132.981078,40.6767557 C137.399096,41.2693683 146.663059,41.1215305 151.651348,39.0223414 C159.847744,35.5763955 170.259455,41.0902692 168.543239,48.432251" id="path24" fill="#FAB80A"></path>
                        <path d="M138.528825,22.239549 C137.44324,21.5638733 136.741438,21.2542337 135.49369,20.8998193 C134.88288,19.9763959 134.910807,19.1072067 135.57297,18.3488284 C136.267564,17.5503599 137.328825,17.3089185 138.554951,17.6668464 C140.467564,19.0459455 141.370267,20.2667563 141.95315,22.2533328 C142.355852,23.6208102 142.370267,24.4647742 142.016213,25.7587381 C141.098195,24.1712607 140.228825,23.2999093 138.528825,22.239549" id="path26" fill="#FFFFFF"></path>
                        <path d="M170.123419,46.108197 C170.512608,44.964143 170.570266,44.207116 170.350446,43.0180169 C170.076572,41.4998188 169.571167,40.5989179 168.42432,39.5622513 C171.536933,39.6118008 173.982879,41.8045935 174.361257,44.8919809 C174.59459,46.7838727 174.193689,48.1243231 172.956752,49.5763051 L170.123419,46.108197" id="path28" fill="#FAB80A"></path>
                        <path d="M117.568466,57.842431 C108.52252,56.8464851 103.395493,56.0406292 94.4063039,54.2036022 L95.0819796,51.7314401 L84.4911691,55.2069356 C94.6756733,57.8212598 100.57297,58.8770256 110.914412,59.9292778 C126.817114,61.5551336 136.005402,61.3967552 151.246843,59.2345931 C138.242339,59.6002688 130.747744,59.2908994 117.568466,57.842431" id="path30" fill="#4A217B"></path>
                        <path d="M120.475673,52.8804491 C114.952249,51.6909897 111.84324,50.8990978 106.404502,49.2982871 L106.02252,46.5754943 L97.1720696,50.2938726 C105.631529,52.4915302 110.488286,53.4751338 119.078375,54.7336022 C130.908105,56.4646833 137.677474,56.9345031 149.408104,56.8433319 C138.137834,56.1796382 131.675672,55.2966653 120.475673,52.8804491" id="path32" fill="#4A217B"></path>
                        <path d="M126.558555,49.0621609 C122.409907,47.598197 120.091889,46.6568457 116.099997,44.825134 L115.707204,41.9323413 L108.526123,45.6225214 C114.577475,47.9078366 118.090087,49.0058546 124.354051,50.554233 C132.381078,52.5408095 137.027925,53.3202689 145.157654,54.0417104 C137.805402,52.6798185 133.645943,51.5677465 126.558555,49.0621609" id="path34" fill="#4A217B"></path>
                        <path d="M131.965762,73.9326108 C133.401798,72.7952234 134.44324,71.3552234 136.018015,69.2528812 L152.81351,70.1724307 C147.882879,73.398827 143.670267,74.9908089 139.111708,76.2426107 C136.869366,76.8588269 131.09279,78.4300881 124.832429,77.4306287 C127.435132,76.7152233 129.848645,75.6066648 131.965762,73.9326108" id="path36" fill="#4A217B"></path>
                        <path d="M131.967564,73.9326108 C129.848645,75.6066648 127.435132,76.7152233 124.832429,77.4309891 C131.09279,78.4283764 136.869366,76.8588269 139.111708,76.2433314 C141.905402,75.4744125 144.571168,74.5766648 147.351348,73.2572955 C144.421618,75.1002684 141.731528,76.3608089 137.541438,77.8237818 C129.226123,80.7266646 117.684682,79.7607187 108.830628,78.0852233 C116.259457,78.0852233 119.031529,77.5545026 122.86306,76.1964846 C126.196393,75.0182864 130.614411,72.787836 135.918015,69.3883766 C134.399096,71.4139622 133.371168,72.8199081 131.967564,73.9326108" id="path38" fill="#FFFFFF" fill-rule="nonzero"></path>
                        <path d="M159.71441,30.6063055 C160.699095,31.0884677 163.964861,32.8234226 165.559455,35.3585577 C164.630627,35.1108099 162.930627,34.7430622 160.59369,34.5442334 C160.586482,33.5884676 160.454951,31.8566659 159.71441,30.6063055" id="path40" fill="#FFFFFF" fill-rule="nonzero"></path>
                        <path d="M131.978375,105.057655 L130.788285,102.100898 L131.159456,105.267565 C131.541438,108.507204 131.718916,111.659457 131.689186,114.634231 L131.446844,134.244141 L104.931529,134.244141 L84.9820699,85.8399979 C93.7234211,87.6506284 99.9909885,88.7974753 105.78288,89.6414392 C107.106304,92.8720698 108.44234,96.2495471 109.827024,99.5171146 C111.359457,103.131529 112.807204,106.545943 114.116213,109.77297 L115.127024,112.266664 L114.936934,109.583781 C114.496394,103.367565 114.540538,96.878376 114.636033,90.7405383 C115.927024,90.8711689 117.229727,90.9909887 118.561258,91.1017995 C121.208105,91.3198175 123.84324,91.4324301 126.39279,91.4324301 C132.956753,91.4324301 138.905402,90.7999977 144.932429,89.4731509 L163.321618,134.244141 L144.008105,134.244141 L131.978375,105.057655" id="path42" fill="#4A217B" fill-rule="nonzero"></path>
                        <path d="M175.818014,86.5156735 L195.490085,134.24324 L172.899996,134.244141 L154.091888,88.5395473 C154.091888,88.5395473 162.782879,88.8517095 175.818014,86.5156735" id="path44" fill="#4A217B" fill-rule="nonzero"></path>
                        <path d="M59.730449,72.8529712 C66.735674,74.706845 72.8582865,80.0806286 75.5053134,86.7733312 L95.0720697,134.247744 L72.6445928,134.247744 L53.9681968,89.0455834 C52.7554942,86.1722501 49.7272961,83.8654033 46.7318006,83.6912592 C43.365044,83.4906285 41.3112602,86.0462141 42.1417107,89.4045924 C42.2367557,89.7867545 42.3652242,90.1639617 42.5236025,90.5288266 L60.5799985,134.247744 L38.1193684,134.247744 L19.3939635,88.9087365 C18.8830626,87.6879257 18.4509004,86.3559438 18.1721617,85.0626105 C15.9435131,74.7110792 22.5281976,66.3235119 32.8779271,66.3235119 C34.4214406,66.3235119 35.9322514,66.5065749 37.4422513,66.8584668 C45.9065754,69.1666649 53.1577464,71.1229712 59.730449,72.8529712" id="path46" fill="#4A217B"></path>
                    </g>
                </g>
            </g>
        </g>
    </g>
</svg>