<?xml version="1.0" encoding="UTF-8"?>
<svg width="200px" height="200px" viewBox="0 0 200 200" version="1.1" xmlns="http://www.w3.org/2000/svg" xmlns:xlink="http://www.w3.org/1999/xlink">
    <!-- Generator: Sketch 54.1 (76490) - https://sketchapp.com -->
    <title>utah-valley</title>
    <desc>Created with Sketch.</desc>
    <g id="utah-valley" stroke="none" stroke-width="1" fill="none" fill-rule="evenodd">
        <g id="utah-valley_BGL">
            <g id="utah-valley" transform="translate(0.000000, 25.000000)">
                <g id="g10" transform="translate(99.999998, 74.851854) scale(-1, 1) rotate(-180.000000) translate(-99.999998, -74.851854) translate(0.000000, 0.160498)" fill-rule="nonzero">
                    <g id="g12">
                        <path d="M199.217588,85.0043189 C196.981785,90.2404298 183.344749,96.1287013 179.742897,97.611726 C178.812033,99.2762321 177.027465,104.454936 176.611724,106.052775 C176.746292,106.378701 176.863576,106.750923 176.926847,107.222528 C176.943514,107.365738 176.958946,107.517899 176.967588,107.677775 L177.003391,108.237652 L176.835489,108.773145 C173.518514,119.175614 153.901539,132.70833 146.272836,136.599688 L145.896293,136.794132 C139.845058,139.89012 125.686725,147.133638 99.9111086,148.672527 C69.5444427,150.487959 54.6611097,145.909873 41.5330237,141.871601 C41.5330237,141.871601 37.0712954,140.531787 36.0919744,140.237959 C12.92787,144.091046 4.15833323,140.631478 0.915194422,137.01512 L0.312259251,136.338885 C0.312259251,136.338885 0.163483947,135.316046 0.154682712,135.254935 C-1.09941664,125.99938 5.48876529,117.614503 12.1965429,111.648454 C8.8464504,108.26296 3.08882708,102.303393 1.99363575,100.252775 L1.64146909,99.5867259 L1.63640428,98.8287012 C1.63254626,75.4728376 10.176759,53.8580233 18.7083946,40.478394 C21.0665118,36.4824065 25.0320673,32.1666659 25.2381167,31.8749992 C25.2991043,35.4799374 25.6413882,41.7388878 25.9783635,44.5515421 C26.0241969,44.848147 26.0699993,45.1549371 26.1195364,45.473147 C26.1336413,45.5552458 26.1488574,45.6330236 26.1665734,45.6969124 C31.1293202,25.1175611 42.5123446,13.5842281 53.2098752,4.29290113 L58.1435171,0 L58.1484553,6.56574058 C58.1435171,7.70617265 58.2413566,8.93336397 58.4080232,10.1938578 C58.75648,12.7249688 59.4191343,15.3660181 60.2533936,17.628765 C63.6864182,13.4765737 68.478702,9.26324051 73.2302451,7.21512328 L78.3506153,5.00373444 L77.3496894,10.5185491 C77.3280845,10.6157096 75.6567882,20.0755859 79.3148128,26.3574067 C83.2574053,33.1203695 88.8790101,37.5867275 95.5842569,39.2796286 C103.411417,41.253394 110.800923,39.1209867 115.113886,36.4746904 C124.081478,30.9493819 127.745676,15.8827774 126.640429,4.50521594 L126.228392,0.273799067 L130.336416,1.30437342 C149.314811,6.05589491 164.670058,15.3224996 177.267897,29.6237338 C178.036107,30.499382 178.908638,31.2972214 179.749378,32.0719128 C180.900304,33.1277769 181.892279,34.0407399 182.55123,35.0608016 C183.077773,35.8891966 183.502465,36.9731472 183.670366,38.2182089 C183.849687,39.5595669 183.690736,41.0922829 183.098144,42.6851841 C186.719131,46.039505 189.220674,50.8179 190.568822,56.9157393 C191.7466,57.998764 193.754933,60.2040108 195.440119,63.917591 C197.724378,68.9404304 199.035797,73.6919735 199.550612,77.5234549 C200.008637,80.8712943 199.850921,83.511109 199.217588,85.0043189" id="path14" fill="#FFFFFF"></path>
                        <path d="M185.33302,61.6990725 C181.656168,58.6126529 174.813576,57.3725294 170.520983,57.7083319 C173.244749,60.5867269 178.406477,67.2333317 178.406477,67.2333317 C182.397526,68.9398131 186.473452,71.3037019 188.748761,73.3259241 C186.479625,70.1345661 184.558946,67.0586403 182.95123,66.2805539 C187.307094,68.2682082 191.232094,70.7376526 192.51697,72.2314797 C190.870983,68.7052452 189.004934,64.7854922 185.33302,61.6990725 L185.33302,61.6990725 Z M176.905242,46.9984556 C176.39228,47.7320976 173.564502,49.8401222 171.860181,50.7996901 C174.962959,51.5404308 180.785798,54.2555542 184.080242,55.9734554 C183.389502,53.7870357 180.447526,49.3503074 176.905242,46.9984556 Z M120.022219,70.9592575 C120.711417,75.7104919 121.760491,81.6108004 121.856787,82.3089486 C118.877158,81.8780844 111.933948,79.9064795 105.691664,72.3305537 C105.450923,73.593208 105.638578,76.5734549 105.743516,77.9428993 C111.538886,82.9484547 116.827158,84.9262324 117.610182,85.3216028 C119.520676,86.2833312 125.761725,85.5447509 128.323762,85.193825 C128.323762,85.193825 128.970676,84.0089485 129.418207,82.99043 C130.069441,81.5003066 130.827157,79.982714 131.662034,78.4722203 C128.054935,76.8178993 122.216664,72.5657389 120.022219,70.9592575 L120.022219,70.9592575 Z M130.018824,62.66327 C113.363269,64.9287021 102.277158,61.3317886 92.3379607,57.7790109 C94.8682075,65.2669737 98.6867259,70.844134 102.601541,74.9527759 C102.554627,72.9231463 102.75617,67.6197514 103.721602,64.575307 C108.117899,69.62006 113.948454,75.3787018 118.352466,77.6984548 C118.008022,75.4876524 117.974688,69.6987637 118.552466,67.2015415 C123.463269,70.4969118 130.567281,74.6132697 130.567281,74.6132697 C130.241663,71.623455 129.991046,64.8095663 130.018824,62.66327 L130.018824,62.66327 Z M132.923746,65.2466033 C132.920058,67.0268502 133.538268,72.0641957 134.032404,74.5422821 C135.337342,72.5543192 136.752466,70.652776 138.218515,68.9271588 C136.812034,67.8376526 133.5537,65.7216033 132.923746,65.2466033 Z M147.819749,71.9209859 C147.302774,67.7083316 146.083947,62.8697515 144.837033,59.4274677 C142.118206,60.227159 139.531169,60.8793195 137.050305,61.4166651 C137.916972,62.142591 145.896293,69.0790106 147.819749,71.9209859 Z M174.161107,39.40432 C173.908946,37.5583324 172.317897,36.6067892 168.625922,37.1490731 C168.625922,37.1490731 167.650304,31.3780856 161.607712,25.790771 C155.562033,20.2037649 149.818823,18.8123452 146.149379,18.415802 C154.7537,23.9676229 158.601231,29.6969128 159.020984,32.2015424 C153.809873,25.879629 145.333638,21.8265427 141.488577,20.682376 C146.483947,25.2904315 148.058947,28.2704005 148.318823,29.7768511 C144.398762,25.8024685 138.816663,23.3366969 133.971602,21.6540118 C133.904626,36.0648139 128.384256,42.9845668 125.262651,46.9237643 C127.740738,48.2123445 138.322219,48.4608013 142.049688,48.022221 C142.589503,48.4910482 142.120984,49.3703691 141.168206,49.7086407 C139.287959,50.371295 123.014812,54.7598752 106.952158,52.1666654 C95.4154297,50.3024679 91.5638866,47.8018507 89.167899,46.7070976 C86.7746892,45.6138877 85.6925905,49.4283938 85.348146,50.9503074 C80.3092573,70.3222205 98.694442,90.1743805 114.827775,97.1564791 C130.958947,104.133639 143.418206,97.6037013 158.087033,92.6043187 C158.087033,92.6043187 155.341663,91.5145039 155.583638,89.5228373 C155.711416,88.4219114 160.281477,85.0682077 163.784564,81.4422819 C166.886107,78.2290104 169.299687,75.1200599 170.416971,73.4858006 C170.047218,74.4589488 169.556786,81.8678992 169.411107,83.8848744 C175.75586,79.017282 176.411107,70.3382698 176.041045,68.2175909 C175.670057,66.1018502 170.761724,61.9308626 167.523144,58.3682084 C158.401231,59.3589491 152.522527,63.9938256 150.105243,65.8240724 C150.803391,72.182097 150.824996,76.850924 149.879317,79.3175906 C148.61512,77.762961 144.840737,73.7719117 141.730552,71.7246896 C133.170984,82.3950597 134.479626,93.2274668 134.688886,96.6178988 C102.658639,95.3916643 89.7481459,64.2774675 88.860183,52.2209863 C88.860183,52.2209863 98.603084,61.7129614 123.975306,59.7592578 C149.34228,57.8070973 166.775922,48.5820976 169.464193,46.5904309 C172.156477,44.599073 174.413267,41.2481471 174.161107,39.40432 L174.161107,39.40432 Z M122.174997,106.872837 C117.979935,106.872837 114.333639,106.651232 113.928392,106.573763 C111.41975,109.68796 105.359565,118.120985 108.371294,117.546911 C110.361726,116.912034 114.655244,115.161417 119.103701,113.139195 L122.174997,106.872837 Z M131.944441,106.259565 C129.408021,106.705553 125.946602,106.857405 122.733639,106.872837 L125.070985,110.289812 C128.059873,108.780861 130.620367,107.331479 131.944441,106.259565 Z M164.374996,99.4256148 L160.334564,100.51759 C159.28549,101.551541 158.906478,102.220368 158.906478,102.220368 C159.817897,102.291355 161.226539,102.442281 162.688576,102.608331 L164.374996,99.4256148 Z M53.0481468,133.866663 C84.3851831,145.00833 114.050923,141.723145 130.958947,136.035799 C150.137959,129.581787 162.270675,116.283948 162.766971,115.847837 C163.261416,115.409565 165.298453,111.307096 161.085798,114.841972 C156.878391,118.376849 154.240428,120.770059 147.282404,124.496293 C150.276231,121.99012 156.424687,115.045985 156.886107,110.725615 C157.345984,106.407713 151.21512,105.325923 149.332404,105.52222 C147.441972,105.717281 144.391046,115.018207 142.442589,117.9358 C141.837033,118.891046 141.190737,118.00833 141.819132,116.504318 C142.446293,114.999071 143.529626,111.26296 143.6537,108.750306 C143.699379,107.853392 143.723453,107.088269 143.297836,106.961417 C142.959256,106.854936 141.262959,106.685183 137.729318,111.779627 C134.197219,116.876849 129.104009,124.330244 125.527157,127.564812 C118.792281,133.652774 105.262343,137.219132 92.9120347,137.174688 C97.0851828,135.632713 103.650615,131.902774 106.240429,128.952157 C95.5888865,132.559256 76.2666648,136.149688 53.0481468,133.866663 L53.0481468,133.866663 Z M70.9438254,26.6320672 C65.5453687,31.1182091 57.3305541,39.9987644 56.2407393,55.3277764 C54.6632702,50.4496901 54.7330233,42.3527767 57.5256158,31.627777 C56.0114184,29.0786412 54.0515419,25.7312031 53.2648135,23.2253081 C43.0820977,32.5626535 28.7399993,43.6385792 30.7316968,77.0660475 C27.1766351,69.7660476 24.7188574,64.7638873 23.4416044,59.485801 C18.1737032,67.3219119 11.1193207,80.0716029 10.242438,97.3197507 C11.2357713,99.7422815 21.9568513,108.624997 27.6480549,112.439812 C22.3456785,115.191664 14.8630552,123.105244 13.1107713,129.850305 C15.2836725,131.945984 23.5455241,135.829318 50.9067889,127.655861 C48.4490729,126.765429 45.8012334,126.513268 44.4302458,126.647528 C43.056789,126.774071 27.9038882,130.020367 24.0991661,127.63333 C20.7353081,125.528701 24.042129,122.75154 24.4247833,122.69475 L32.7259251,121.382096 C31.5425918,120.026232 30.9117276,116.955244 31.7111103,115.851849 C33.8419745,116.557404 38.2598756,117.211108 40.4138879,116.482713 C38.0484558,114.684874 31.9200609,108.463886 30.3795363,103.178392 C39.5953694,110.146602 48.6555543,113.586417 62.6416651,115.187651 C51.5771592,110.517898 34.7759251,102.294133 30.8888881,83.5555535 C39.9108015,91.5854915 49.5132704,97.7848741 70.5932081,98.8351827 C66.2928996,96.6712939 52.6033937,88.0228373 49.0938259,79.4037017 C45.5882705,70.7919735 48.6314803,63.1194429 48.735184,62.6861095 C51.9305543,71.4308624 54.7737641,74.0583315 58.3135788,76.6506154 C66.0015416,82.2759239 77.0734549,83.9419732 77.0734549,83.9419732 C73.0077142,77.9858005 65.4731465,68.5851835 71.886418,50.1126531 C73.1928994,59.110801 75.7787018,65.845986 79.5645042,67.9175909 C78.2783931,62.7518503 77.6447511,52.5820975 81.3040103,43.3216039 C79.0753067,41.0401224 72.5453686,33.5055547 70.9438254,26.6320672 L70.9438254,26.6320672 Z M167.480243,103.183331 C168.165737,103.269442 168.592588,103.322837 168.592588,103.322837 C169.546601,101.850615 170.049687,99.9169728 169.933329,97.9203679 L164.976848,99.2608 L167.480243,103.183331 Z M196.100921,84.0799362 C194.595674,87.5870348 182.58765,93.4024668 177.514502,95.3080223 C176.257712,96.4166643 173.609872,104.450306 173.327465,105.79722 C173.043514,107.147837 173.63765,106.690121 173.703699,107.901541 C170.880551,116.70833 152.798453,129.645058 144.752157,133.734873 C139.149688,136.580552 125.353701,143.86049 99.7382691,145.380861 C65.2287021,147.430861 51.0524679,141.06049 36.5521596,136.95154 C11.5841972,141.191046 5.16058629,136.636416 3.50839497,134.801848 C2.29600612,126.548762 8.92975286,118.252466 16.9445675,111.829318 C15.7714811,110.772528 6.11966034,101.044751 4.99456778,98.9530839 C4.98577148,72.098455 16.3972218,50.0518506 23.0413266,40.4419743 C22.6713266,43.2104927 24.1536414,52.7379616 27.1665117,61.1240725 C29.2696289,32.5780856 42.1064804,18.9502464 55.3336406,7.51228376 C55.3385789,13.0327775 57.2722208,20.3466044 59.9453689,24.1943821 C62.7694429,19.5052156 68.762344,13.3552774 74.5092574,10.8873454 C74.5092574,10.8873454 72.5567883,21.3376538 76.8290104,28.6352153 C87.4361089,46.7462951 106.584874,45.8256161 116.606787,39.6882706 C126.623454,33.5509251 130.692589,17.3743823 129.501849,5.18361098 C147.22654,9.5999689 162.247835,18.2259255 174.742588,32.3395054 C176.613884,34.4506164 178.904317,36.0749991 179.73302,37.3669744 C180.562958,38.6592583 181.015119,41.3074064 179.060181,44.102468 C185.170983,48.4175914 186.927156,55.8521591 187.547526,59.0398133 C187.547526,59.0398133 190.236106,60.9225293 192.372217,65.5950601 C196.479933,74.580245 196.958637,82.0910473 196.100921,84.0799362 L196.100921,84.0799362 Z" id="path16" fill="#275935"></path>
                        <path d="M157.604934,9.20802446 L157.604934,7.09851834 L157.26265,7.09851834 L157.26265,9.96817876 L157.604934,9.96817876 L158.476539,8.1107714 L159.354626,9.96817876 L159.689194,9.96817876 L159.689194,7.09851834 L159.343206,7.09851834 L159.343206,9.20802446 L158.631169,7.6675924 L158.332095,7.6675924 L157.604934,9.20802446 Z M154.645367,9.96817876 L156.764811,9.96817876 L156.764811,9.64132692 L155.886724,9.64132692 L155.886724,7.09851834 L155.528391,7.09851834 L155.528391,9.64132692 L154.645367,9.64132692 L154.645367,9.96817876 L154.645367,9.96817876 Z" id="path18" fill="#FFFFFF"></path>
                    </g>
                </g>
            </g>
        </g>
    </g>
</svg>