<?xml version="1.0" encoding="UTF-8"?>
<svg width="200px" height="200px" viewBox="0 0 200 200" version="1.1" xmlns="http://www.w3.org/2000/svg" xmlns:xlink="http://www.w3.org/1999/xlink">
    <!-- Generator: Sketch 54.1 (76490) - https://sketchapp.com -->
    <title>utsa</title>
    <desc>Created with Sketch.</desc>
    <g id="utsa" stroke="none" stroke-width="1" fill="none" fill-rule="evenodd">
        <g id="utsa_BGL" transform="translate(0.000000, 0.000000)">
            <g id="utsa" transform="translate(0.000000, 53.000000)">
                <g id="g10" transform="translate(99.970525, 47.544947) scale(-1, 1) rotate(-180.000000) translate(-99.970525, -47.544947) translate(0.000000, 0.153260)" fill-rule="nonzero">
                    <g id="g12">
                        <polyline id="path14" fill="#0C2950" points="21.9859706 39.7550241 22.9567221 39.7550241 22.9567221 42.6673729 23.7592685 42.6673729 23.7592685 43.4902435 21.1833299 43.4902435 21.1833299 42.6673729 21.9859706 42.6673729 21.9859706 39.7550241"></polyline>
                        <polyline id="path16" fill="#0C2950" points="25.2729731 41.9048619 26.1300318 39.7550241 26.5164744 39.7550241 27.413144 41.9048619 27.4232825 41.9048619 27.6958437 39.7550241 28.6665481 39.7550241 28.1018561 43.4902435 27.1358673 43.4902435 26.3332737 41.4934266 25.5752425 43.4902435 24.6191565 43.4902435 23.9851453 39.7550241 24.9506625 39.7550241 25.2628346 41.9048619 25.2729731 41.9048619"></polyline>
                        <path d="M110.513407,29.9652218 C114.137103,32.9226045 123.662125,39.6446792 141.426698,45.6280566 C161.582548,42.9243726 179.061121,38.3759495 188.306744,28.5993509 C188.306744,28.5993509 141.699731,33.878219 110.513407,29.9652218 Z M123.079278,19.2864835 C116.517062,21.0249096 112.304389,24.0770993 110.292246,25.8381367 L151.845325,25.8529908 C141.840727,24.3654577 133.095664,22.1144704 123.079278,19.2864835 Z M90.5242536,7.4965869 L103.876449,20.9775651 L113.193042,15.3796401 L90.5242536,7.4965869 Z M95.308692,26.2830527 L100.837251,23.111087 L84.4564671,13.2984376 L95.308692,26.2830527 Z M81.4696119,45.7145877 C75.8648964,45.6431465 61.4307088,44.551723 43.6361911,34.2432057 C54.9887402,49.7678738 79.7210708,59.8585308 98.2689041,55.5680505 C95.8700831,53.6818142 93.9803101,51.4419085 93.4613593,49.4971989 C91.0887098,40.608546 97.8060689,36.0999696 106.8758,35.1035653 C102.164925,32.6969635 91.4848194,31.4562916 84.6099596,36.7549652 C81.1840829,39.3987612 80.8594144,44.5595037 81.4696119,45.7145877 L81.4696119,45.7145877 Z M111.521836,41.9296188 C114.181194,41.2291177 117.301736,42.3773641 118.911639,44.5411129 L120.748125,43.427762 C117.072794,40.2539336 110.392217,36.787267 103.834716,41.3479506 C98.5138791,45.0449738 100.916944,51.3796627 104.412612,53.3309742 L110.058824,49.9079268 C109.477628,49.4017082 108.989564,48.8044786 108.638724,48.1358078 C107.255641,45.4889467 108.541819,42.7055692 111.521836,41.9296188 L111.521836,41.9296188 Z M118.09089,59.5425862 L121.226994,65.8791613 L125.374356,46.23401 C125.374356,46.23401 115.747006,60.7483628 82.3599154,67.1068654 C82.3599154,67.1068654 104.303446,69.7042128 118.09089,59.5425862 Z M137.352192,52.0643665 L138.342702,58.6671368 L133.224164,56.3218377 C127.521364,68.2258751 107.448745,96.9681084 47.2695538,94.4242829 C47.2695538,94.4242829 68.5451206,86.1571449 75.7196562,76.2032401 C75.7196562,76.2032401 57.9659284,89.9121699 23.3210015,81.7082208 C23.3210015,81.7082208 49.6480978,75.8736203 56.7886812,65.2359547 C56.7886812,65.2359547 38.7649858,76.5731782 10.6561271,68.6630104 C10.6561271,68.6630104 30.6581778,66.8932491 40.1424098,56.7422326 C40.1424098,56.7422326 20.2369815,61.2074255 3.03164893e-14,54.951487 C3.03164893e-14,54.951487 24.8587085,52.609253 33.8753897,39.7352186 L12.1246799,32.6457994 C52.333391,27.6074264 82.4044778,7.32307674 92.3260808,0 C127.431532,16.1619566 166.552074,27.053816 199.727905,22.0606655 C188.392332,44.3487168 160.324193,49.0657223 137.352192,52.0643665 L137.352192,52.0643665 Z" id="path18" fill="#0C2950"></path>
                        <path d="M140.821217,42.6254042 C138.699201,42.0649562 132.041494,38.8017674 130.832416,38.1106975 C130.832416,38.1106975 143.890359,40.4043609 155.197167,39.8076029 C151.492127,41.5511926 145.758676,42.8248737 140.821217,42.6254042" id="path20" fill="#0C2950"></path>
                        <path d="M125.374356,46.23401 L121.226994,65.8791613 L118.09089,59.5425862 C104.303446,69.7042128 82.3599154,67.1068654 82.3599154,67.1068654 C115.747006,60.7483628 125.374356,46.23401 125.374356,46.23401" id="path22" fill="#F36018"></path>
                        <path d="M106.8758,35.1035653 C97.8060689,36.0999696 91.0887098,40.608546 93.4613593,49.4971989 C93.9803101,51.4419085 95.8700831,53.6818142 98.2689041,55.5680505 C79.7210708,59.8585308 54.9887402,49.7678738 43.6361911,34.2432057 C61.4307088,44.551723 75.8648964,45.6431465 81.4696119,45.7145877 C80.8594144,44.5595037 81.1840829,39.3987612 84.6099596,36.7549652 C91.4848194,31.4562916 102.164925,32.6969635 106.8758,35.1035653" id="path24" fill="#F36018"></path>
                        <polygon id="path26" fill="#F36018" points="95.308692 26.2830527 84.4564671 13.2984376 100.837251 23.111087"></polygon>
                        <polygon id="path28" fill="#F36018" points="90.5242536 7.4965869 113.193042 15.3796401 103.876449 20.9775651"></polygon>
                        <path d="M110.058824,49.9079268 L104.412612,53.3309742 C100.916944,51.3796627 98.5138791,45.0449738 103.834716,41.3479506 C110.392217,36.787267 117.072794,40.2539336 120.748125,43.427762 L118.911639,44.5411129 C117.301736,42.3773641 114.181194,41.2291177 111.521836,41.9296188 C108.541819,42.7055692 107.255641,45.4889467 108.638724,48.1358078 C108.989564,48.8044786 109.477628,49.4017082 110.058824,49.9079268" id="path30" fill="#FFFFFF"></path>
                        <path d="M130.832416,38.1106975 C132.041494,38.8017674 138.699201,42.0649562 140.821217,42.6254042 C145.758676,42.8248737 151.492127,41.5511926 155.197167,39.8076029 C143.890359,40.4043609 130.832416,38.1106975 130.832416,38.1106975 Z M141.426698,45.6280566 C123.662125,39.6446792 114.137103,32.9226045 110.513407,29.9652218 C141.699731,33.878219 188.306744,28.5993509 188.306744,28.5993509 C179.061121,38.3759495 161.582548,42.9243726 141.426698,45.6280566 L141.426698,45.6280566 Z" id="path32" fill="#FFFFFF"></path>
                        <path d="M123.079278,19.2864835 C133.095664,22.1144704 141.840727,24.3654577 151.845325,25.8529908 L110.292246,25.8381367 C112.304389,24.0770993 116.517062,21.0249096 123.079278,19.2864835" id="path34" fill="#FFFFFF"></path>
                    </g>
                </g>
            </g>
        </g>
    </g>
</svg>