<?xml version="1.0" encoding="UTF-8"?>
<svg width="200px" height="200px" viewBox="0 0 200 200" version="1.1" xmlns="http://www.w3.org/2000/svg" xmlns:xlink="http://www.w3.org/1999/xlink">
    <!-- Generator: Sketch 54.1 (76490) - https://sketchapp.com -->
    <title>villanova</title>
    <desc>Created with Sketch.</desc>
    <g id="villanova" stroke="none" stroke-width="1" fill="none" fill-rule="evenodd">
        <g id="villanova_BGL">
            <g id="villanova" transform="translate(0.000000, 11.000000)">
                <g id="g10" transform="translate(99.999998, 88.636366) scale(-1, 1) rotate(-180.000000) translate(-99.999998, -88.636366) translate(0.000000, 0.000004)" fill-rule="nonzero">
                    <g id="g12">
                        <path d="M187.74242,164.701511 C187.74242,164.701511 181.993935,160.501511 177.787874,149.288633 L133.317421,30.7907568 C130.322572,22.8119691 129.737876,18.4954541 135.128481,13.3351057 L135.128481,11.5696058 L104.385603,11.5696058 L95.0490885,11.5696058 L64.3051499,11.5696058 L64.3051499,13.3351057 C69.6987861,18.4954541 69.1110589,22.8119691 66.1180287,30.7907568 L21.6477267,149.288633 C17.4407571,160.501511 11.6927118,164.701511 11.6927118,164.701511 L11.6927118,165.974238 L35.2580294,165.974238 L43.225605,165.974238 L75.9274223,165.974238 L75.9274223,164.701511 C75.9274223,164.701511 66.8140892,158.88939 71.4536346,146.480754 L99.7177248,70.3368164 L127.983027,146.480754 C132.623179,158.88939 123.505603,164.701511 123.505603,164.701511 L123.505603,165.974238 L156.209087,165.974238 L164.175753,165.974238 L187.74242,165.974238 L187.74242,164.701511 Z M116.624088,173.060602 L116.624088,160.931814 C116.624088,160.931814 125.142118,158.43636 121.560148,148.920451 L99.7177248,90.0822705 L77.8753011,148.920451 C74.2927254,158.43636 82.8095434,160.931814 82.8095434,160.931814 L82.8095434,173.060602 L4.20690899,173.060602 L4.20690899,160.931814 C4.20690899,160.931814 10.4817725,158.053026 14.5454542,146.875602 L58.6174228,29.4424235 C62.6869681,18.5966662 59.0424228,17.1774238 56.8140895,15.9469693 L56.8140895,4.21637868 L142.619542,4.21637868 L142.619542,15.9469693 C140.393027,17.1774238 136.747118,18.5966662 140.817421,29.4424235 L184.889389,146.875602 C188.954541,158.053026 195.230298,160.931814 195.230298,160.931814 L195.230298,173.060602 L116.624088,173.060602 L116.624088,173.060602 Z" id="path14" fill="#FFFFFF"></path>
                        <polyline id="path16" fill="#51BBED" points="156.209087 165.974238 99.7177248 20.0846965 43.225605 165.974238 35.2580294 165.974238 95.0490885 11.5696058 104.385603 11.5696058 164.175753 165.974238 156.209087 165.974238"></polyline>
                        <path d="M195.230298,160.931814 C195.230298,160.931814 188.954541,158.053026 184.889389,146.875602 L140.817421,29.4424235 C136.747118,18.5966662 140.393027,17.1774238 142.619542,15.9469693 L142.619542,4.21637868 L56.8140895,4.21637868 L56.8140895,15.9469693 C59.0424228,17.1774238 62.6869681,18.5966662 58.6174228,29.4424235 L14.5454542,146.875602 C10.4817725,158.053026 4.20690899,160.931814 4.20690899,160.931814 L4.20690899,173.060602 L82.8095434,173.060602 L82.8095434,160.931814 C82.8095434,160.931814 74.2927254,158.43636 77.8753011,148.920451 L99.7177248,90.0822705 L121.560148,148.920451 C125.142118,158.43636 116.624088,160.931814 116.624088,160.931814 L116.624088,173.060602 L195.230298,173.060602 L195.230298,160.931814 Z M112.408331,177.272723 L112.408331,158.33636 C112.408331,158.33636 120.106512,157.148481 117.615452,150.406057 L99.7177248,102.188028 L81.8181798,150.406057 C79.3265132,157.148481 87.026513,158.33636 87.026513,158.33636 L87.026513,177.272723 L0,177.272723 L0,158.33636 C0,158.33636 6.35653014,156.657572 10.5604846,145.520299 L54.6810592,27.9586357 C57.6822713,19.9668177 56.5903016,20.4349995 52.6018169,18.6031814 L52.6018169,0 L146.833633,0 L146.833633,18.6031814 C142.847421,20.4349995 141.752421,19.9668177 144.753178,27.9586357 L188.874238,145.520299 C193.077268,156.657572 199.434843,158.33636 199.434843,158.33636 L199.434843,177.272723 L112.408331,177.272723 L112.408331,177.272723 Z" id="path18" fill="#173A79"></path>
                        <path d="M11.6927118,165.974238 L11.6927118,164.701511 C11.6927118,164.701511 17.4407571,160.501511 21.6477267,149.288633 L66.1180287,30.7907568 C69.1110589,22.8119691 69.6987861,18.4954541 64.3051499,13.3351057 L64.3051499,11.5696058 L95.0490885,11.5696058 L35.2580294,165.974238 L11.6927118,165.974238" id="path20" fill="#173A79"></path>
                        <path d="M127.983027,146.480754 L99.7177248,70.3368164 L71.4536346,146.480754 C66.8140892,158.88939 75.9274223,164.701511 75.9274223,164.701511 L75.9274223,165.974238 L43.225605,165.974238 L99.7177248,20.0846965 L156.209087,165.974238 L123.505603,165.974238 L123.505603,164.701511 C123.505603,164.701511 132.623179,158.88939 127.983027,146.480754" id="path22" fill="#173A79"></path>
                        <path d="M135.128481,11.5696058 L135.128481,13.3351057 C129.737876,18.4954541 130.322572,22.8119691 133.317421,30.7907568 L177.787874,149.288633 C181.993935,160.501511 187.74242,164.701511 187.74242,164.701511 L187.74242,165.974238 L164.175753,165.974238 L104.385603,11.5696058 L135.128481,11.5696058" id="path24" fill="#173A79"></path>
                        <path d="M153.725754,0.828598464 C152.048481,0.828598464 150.69136,2.18809085 150.69136,3.85890899 C150.69136,5.53207562 152.048481,6.88921195 153.725754,6.88921195 C155.399996,6.88921195 156.754542,5.53207562 156.754542,3.85890899 C156.754542,2.18809085 155.399996,0.828598464 153.725754,0.828598464 L153.725754,0.828598464 Z M153.725754,7.71662102 C151.598481,7.71662102 149.868633,5.98780288 149.868633,3.85890899 C149.868633,1.72584844 151.598481,0 153.725754,0 C155.854542,0 157.584845,1.72584844 157.584845,3.85890899 C157.584845,5.98780288 155.854542,7.71662102 153.725754,7.71662102 L153.725754,7.71662102 Z" id="path26" fill="#173A79"></path>
                        <path d="M153.999996,4.27437868 L152.969693,4.27437868 L152.969693,5.23910593 L153.999996,5.23910593 C154.268178,5.23910593 154.480299,5.01834836 154.480299,4.75319685 C154.480299,4.48627262 154.268178,4.27437868 153.999996,4.27437868 Z M155.303026,4.75319685 C155.303026,5.48059077 154.716663,6.06237864 153.999996,6.06237864 L152.13939,6.06356045 L152.13939,1.65306056 L152.969693,1.65306056 L152.969693,3.44401507 L153.559087,3.44401507 L154.395451,1.65306056 L155.303026,1.65306056 L154.437875,3.52095446 C154.940905,3.7014696 155.303026,4.18619687 155.303026,4.75319685 L155.303026,4.75319685 Z" id="path28" fill="#173A79"></path>
                    </g>
                </g>
            </g>
        </g>
    </g>
</svg>