<?xml version="1.0" encoding="UTF-8"?>
<svg width="200px" height="200px" viewBox="0 0 200 200" version="1.1" xmlns="http://www.w3.org/2000/svg" xmlns:xlink="http://www.w3.org/1999/xlink">
    <!-- Generator: Sketch 54.1 (76490) - https://sketchapp.com -->
    <title>vmi</title>
    <desc>Created with Sketch.</desc>
    <g id="vmi" stroke="none" stroke-width="1" fill="none" fill-rule="evenodd">
        <g id="vmi_BGL">
            <g id="vmi" transform="translate(3.000000, 0.000000)">
                <polygon id="Path" fill="#DB1E26" fill-rule="nonzero" points="96.3124802 74.8906832 115.242907 43.9321832 134.662448 43.9321832 178.272173 152.867508 192.381273 152.867508 192.381273 177.797256 137.282799 177.797256 137.282799 152.867508 150.847535 152.867508 121.965163 83.3627519 96.3124802 124.394935 70.6597978 83.3627519 41.7774257 152.867508 55.3421615 152.867508 55.3421615 177.797256 54.6111009 177.797256 0.974747475 177.797256 0.243686869 177.797256 0.243686869 152.867508 14.3527872 152.867508 57.9625122 43.9321832 77.3820538 43.9321832"></polygon>
                <polygon id="Combined-Shape" fill="#DB1E26" fill-rule="nonzero" points="96.3124802 77.6940878 76.5626801 45.3955979 58.9517909 45.3955979 15.3420659 154.330923 1.70580808 154.330923 1.70580808 176.333841 53.8800403 176.333841 53.8800403 154.330923 39.5857696 154.330923 70.3972097 80.1839093 96.3124802 121.63611 122.227751 80.1839093 153.039191 154.330923 138.74492 154.330923 138.74492 176.333841 190.919152 176.333841 190.919152 154.330923 177.282894 154.330923 133.673169 45.3955979 116.06228 45.3955979"></polygon>
                <polygon id="Path" fill="#DB1E26" fill-rule="nonzero" points="96.3124802 176.510565 14.4409168 44.590664 3.15308542 44.590664 3.15308542 19.6609161 50.4931639 19.6609161 50.4931639 44.590664 49.7621033 44.590664 41.9914589 44.590664 96.3124802 132.737205 150.633501 44.590664 142.131796 44.590664 142.131796 19.6609161 189.471875 19.6609161 189.471875 44.590664 178.184044 44.590664"></polygon>
                <polygon id="Path" fill="#FCD313" fill-rule="nonzero" points="96.3124802 173.73713 177.371024 43.1272494 188.009754 43.1272494 188.009754 21.1243308 143.593918 21.1243308 143.593918 43.1272494 153.253224 43.1272494 96.3124802 135.524805 39.3717365 43.1272494 49.0310427 43.1272494 49.0310427 21.1243308 4.61520663 21.1243308 4.61520663 43.1272494 15.2539362 43.1272494"></polygon>
                <polygon id="Path" fill="#DB1E26" fill-rule="nonzero" points="109.195394 24.7801904 109.195394 175.25396 121.644627 175.25396 121.644627 199.790248 71.0390517 199.790248 71.0390517 175.25396 83.4882848 175.25396 83.4882848 24.7801904 71.0390517 24.7801904 71.0390517 0.243902439 121.644627 0.243902439 121.644627 24.7801904"></polygon>
                <polygon id="Path" fill="#FFFFFF" fill-rule="nonzero" points="107.733273 176.717374 107.733273 23.3167757 120.182506 23.3167757 120.182506 1.70731707 72.5011729 1.70731707 72.5011729 23.3167757 84.950406 23.3167757 84.950406 176.717374 72.5011729 176.717374 72.5011729 198.326833 120.182506 198.326833 120.182506 176.717374"></polygon>
                <polygon id="Combined-Shape" fill="#DB1E26" fill-rule="nonzero" points="109.014406 54.2038468 113.283022 69.2926334 109.24703 103.790387 96.3418393 124.432601 83.563109 103.992664 78.4282199 69.2940986 83.7335586 54.3089786 96.3418393 74.9283482"></polygon>
                <polygon id="Path" fill="#DB1E26" fill-rule="nonzero" points="96.3418393 77.7317528 76.5776466 45.4125381 60.8208156 45.4125381 70.4055151 80.2034108 96.3418393 121.673775 122.328428 80.2034108 129.788007 45.4125381 116.063182 45.4125381"></polygon>
            </g>
        </g>
    </g>
</svg>