<?xml version="1.0" encoding="UTF-8"?>
<svg width="200px" height="200px" viewBox="0 0 200 200" version="1.1" xmlns="http://www.w3.org/2000/svg" xmlns:xlink="http://www.w3.org/1999/xlink">
    <!-- Generator: Sketch 54.1 (76490) - https://sketchapp.com -->
    <title>weber-st</title>
    <desc>Created with Sketch.</desc>
    <g id="weber-st" stroke="none" stroke-width="1" fill="none" fill-rule="evenodd">
        <g id="weber-st_BGL">
            <g id="weber-st" transform="translate(0.000000, 5.000000)">
                <g id="g10" transform="translate(99.760189, 95.172664) scale(-1, 1) rotate(-180.000000) translate(-99.760189, -95.172664) translate(0.000000, 0.208638)" fill-rule="nonzero">
                    <g id="g12">
                        <path d="M190.35376,157.158365 C190.35376,157.308965 191.477022,160.414384 191.477022,160.414384 C191.477022,160.649013 192.400954,165.054001 192.400954,165.054001 C192.400954,165.054001 189.083544,161.794145 183.490643,158.790404 C180.658029,157.278269 171.316638,153.874337 162.413809,154.593761 C153.503497,155.30954 145.477406,155.828869 140.699853,155.311843 C140.520092,155.454193 140.30791,155.622826 140.30791,155.622826 C137.942059,157.449013 134.253618,157.619948 130.867719,158.734193 C131.797023,159.556447 134.719805,162.149253 134.719805,162.149253 L124.353186,162.985703 C115.218031,163.715488 110.987623,163.065703 103.930549,160.116831 C96.4949616,162.904744 82.8993744,165.778605 74.9356336,163.72297 L65.4998545,161.276159 C65.4998545,161.276159 67.8440271,159.745991 68.789063,159.12767 C65.3521327,158.092082 64.2041231,156.739373 59.9324685,154.841051 C59.9324685,154.841051 56.9273847,153.510979 56.5018691,153.323545 C49.6560179,154.080572 43.1909821,153.910404 40.5358263,153.783018 C33.5199992,157.838653 25.8910305,160.903785 20.0262825,163.133233 C13.8489205,165.261579 13.0298318,168.847382 11.1480861,170.938317 L6.0086905,177.562969 C6.0086905,177.562969 6.71762094,166.033377 6.6734195,164.296399 C6.54601422,159.491219 8.21642186,149.862826 19.796834,138.484025 C19.7880091,138.484025 19.7062825,138.484025 19.7062825,138.484025 L24.8732847,131.383402 C27.1439801,128.284697 30.3813901,125.287095 34.1734284,122.624457 C30.3027331,120.119901 23.011798,120.711939 20.0262825,120.569589 L9.45293022,120.041244 L17.1844984,113.086808 C19.1239516,111.353474 23.346762,108.250933 26.3458986,107.239134 C25.8572655,101.357887 24.0377932,95.923259 23.0875774,93.91712 C22.119328,91.9125157 14.2753378,79.1831155 14.2753378,79.1831155 C14.2753378,79.1831155 24.7976972,82.5553936 26.2845077,82.8650339 C14.4342059,65.1228761 38.7679607,25.8843159 38.7679607,25.8843159 L43.1909821,34.4387521 C43.1909821,34.4387521 43.6982243,35.4302149 43.7394713,35.5305507 C43.8137159,33.856498 44.5181763,29.4424933 45.4616775,24.7040761 L48.2119892,12.1912515 L53.4885358,24.0519898 C54.7737157,27.0931408 56.5647947,30.1482966 58.708104,33.2974572 C58.7109817,32.4813421 61.2702143,14.934062 61.2702143,14.934062 L68.902828,28.1062823 C72.5300701,33.8743397 79.9716047,38.809975 83.3333313,41.0956345 C84.3031154,38.8115098 104.608726,30.2743398 120.979373,42.1051308 C123.381292,39.0864259 129.560093,35.2540998 131.088918,31.5708385 L136.986663,17.3448821 L141.58791,34.6035483 C141.602874,34.6148672 149.044601,17.2302154 149.044601,17.2302154 C149.044601,17.2302154 158.70062,40.4128527 161.169876,55.9673847 C162.26014,53.8647469 166.546758,40.1655625 166.546758,40.1655625 C166.546758,40.1655625 169.904072,51.0401906 170.244984,59.9984637 C170.352226,62.8498785 170.428581,66.3368808 168.416495,71.8263771 C169.076063,70.7794707 174.608149,63.35808 174.608149,63.35808 C174.608149,63.35808 173.755967,86.184746 169.465703,96.3054173 C167.20767,101.45899 164.03261,105.152036 162.18532,108.385801 C162.50743,108.771796 164.495727,108.603163 166.360859,112.790789 C168.023017,116.512995 170.7246,119.062443 170.7246,119.062443 L163.391842,119.766903 C160.97496,119.786472 159.648533,120.659565 156.946951,121.753666 C161.956639,121.715297 167.447478,125.472035 167.447478,125.472035 C171.489108,130.093618 180.834144,134.412467 190.35376,157.158365" id="path14" fill="#231F20"></path>
                        <path d="M46.8569772,53.310886 L47.5606703,35.6999511 C47.6161139,34.4537162 48.2014376,30.5319896 49.2130443,25.4518938 L49.44844,24.3794718 L49.9932841,25.6070977 C51.2477685,28.5745796 53.0726126,31.8158265 55.5455142,35.4503588 L62.4901663,45.6556344 L62.5329481,33.4344356 C62.6012454,32.7299752 62.9952982,29.8635964 63.4877682,26.3886804 L65.5927082,30.0247475 C69.5961613,36.3946274 77.1844585,41.5453227 80.8310771,44.0197591 L85.0344343,46.877313 L86.5828276,43.2291596 C89.581005,41.2372172 105.639326,35.7365938 118.738798,45.206138 L121.698798,47.3433082 L123.97333,44.4867135 C124.680093,43.598656 126.10321,42.3696872 127.480476,41.1810062 C130.360476,38.6990878 133.337167,36.130071 134.622347,33.0373133 L136.198366,29.234148 L138.878845,39.2872892 L142.577263,38.2981285 C144.384649,37.8146753 144.384649,37.8146753 148.8399,27.4221576 L148.874433,27.3433087 C151.850931,35.3755387 155.942826,47.4332842 157.392802,56.5669051 L159.213809,68.044123 L164.5646,57.7277683 C164.868101,57.143212 165.328917,55.9637396 165.863401,54.4799986 C166.145799,56.3796629 166.353377,58.3123247 166.423017,60.1454182 C166.512993,62.5711255 166.627718,65.5950104 164.824552,70.5087752 L152.371795,104.485945 L169.696495,76.9732355 C168.967286,83.3446502 167.790691,90.4540985 165.943401,94.8126595 C164.630595,97.8125635 162.878461,100.387527 161.331027,102.660333 C160.429349,103.98465 159.57966,105.236832 158.863114,106.489014 L157.544169,108.79712 L159.249876,110.837024 C159.946855,111.672707 160.768917,111.994817 161.211123,112.168822 C161.459756,112.26628 162.041435,112.493235 162.867142,114.347239 C163.108485,114.888247 163.367862,115.407 163.635296,115.90158 L163.17966,115.944937 C160.61755,115.999038 158.876735,116.757407 157.038461,117.559134 C156.575919,117.760764 156.076159,117.978894 155.511747,118.207383 L136.943114,125.727575 L156.974576,125.577743 C159.807382,125.600189 163.454001,127.46628 164.939276,128.399997 C165.883545,129.417743 166.962682,130.369493 168.19165,131.451508 C172.475967,135.223977 178.813041,140.801148 185.465319,155.510404 C185.410643,155.479708 185.354432,155.449588 185.300523,155.421195 C182.545031,153.950116 172.358365,149.954337 162.106471,150.780812 C154.408629,151.400668 145.798174,152.018222 141.112131,151.507718 L139.553378,151.339085 L137.925752,152.630404 C137.080284,153.282298 135.352898,153.675008 133.526711,154.089397 C132.284121,154.371987 130.998942,154.664361 129.670213,155.101963 L123.345417,157.183689 L125.46321,159.058797 L124.046807,159.172754 C115.6564,159.844217 111.986568,159.338317 105.405465,156.587238 L104.007863,156.003449 L102.586856,156.53544 C94.7061847,159.490452 82.2564967,161.660619 75.8910293,160.019564 L74.8322283,159.745224 L77.7532834,157.835008 L69.8935234,155.464552 C68.3535714,155.001435 67.4371206,154.479996 66.0483437,153.689972 C64.9145308,153.04556 63.504267,152.242298 61.4852742,151.345224 L57.1034998,149.408725 L56.0813415,149.521147 C49.3780323,150.263018 43.1025409,150.076351 40.7194234,149.961819 L39.5953947,149.90791 L38.6211981,150.471363 C31.8996635,154.357023 24.4266661,157.368054 18.6668197,159.55779 C14.3030596,161.060332 11.9836544,163.321435 10.4848535,165.286327 C10.4983594,164.809588 10.5028487,164.436447 10.4976112,164.200476 C10.4099182,160.9105 11.4028774,152.094577 22.4782728,141.212466 L29.1480089,134.658989 L27.2205269,134.658989 L27.9668099,133.633762 C29.9161623,130.972659 32.8258985,128.244985 36.371414,125.755393 L41.0146752,122.495537 L36.2515099,119.413139 C32.1763062,116.775249 26.1532847,116.773906 22.168057,116.772371 C21.4029731,116.771604 20.7328532,116.773906 20.2075774,116.74839 L18.9051314,116.68393 L19.7429252,115.929973 C21.5654671,114.300812 25.308009,111.62628 27.5681528,110.863307 L30.4061383,109.906376 L30.1573134,106.922971 C29.6387523,100.678942 27.7120377,94.7443621 26.5436924,92.2781752 C26.0949634,91.3488706 24.5398555,88.7088707 22.8297356,85.8662808 C24.0744358,86.2380794 25.0622536,86.5175998 25.5058027,86.6096861 L34.6561142,88.5124198 L29.4657067,80.7403337 C22.1845558,69.8403819 31.6389441,46.926042 38.5977928,33.8841239 L39.7931885,36.1960662 L39.7931885,36.1960662 C39.7931885,36.1960662 40.1670973,36.9229727 40.2653227,37.1290159 L46.8569772,53.310886 Z M46.9753465,0 L41.8194714,23.4563064 L39.0699271,18.1392418 L35.5178888,23.8683927 C35.2615819,24.2820138 29.1884885,34.1277689 24.5099274,46.3541475 C19.7550115,58.7829242 18.1909444,69.0198544 19.8223496,76.9319885 C18.3917885,76.4815329 16.8884984,76.0042187 15.4421483,75.5418686 L5.59127084,72.3846505 L11.0191844,81.190022 C14.0115488,86.0470002 19.0003065,94.2484389 19.6425894,95.5792782 C20.2607189,96.8855611 21.546858,100.595681 22.216786,104.912228 C19.2940043,106.47923 16.29646,108.749925 14.6357982,110.233858 L0,123.398558 L19.8352033,124.389253 C21.1982729,124.455249 23.3715102,124.363738 25.8776013,124.491124 C24.3059946,126.00863 22.9287284,127.565273 21.788009,129.121723 L16.5557598,136.311363 C4.32479605,148.594912 2.71132847,159.153953 2.84922775,164.398269 C2.87694957,165.477406 2.48051792,172.609492 2.18975534,177.327574 L1.42910692,189.703976 L14.0947335,173.381291 C14.6964984,172.691794 15.1686135,171.976207 15.6272418,171.283065 C16.8127957,169.48508 17.837237,167.933233 21.2717501,166.749924 C27.1364981,164.522586 34.5525171,161.536303 41.474915,157.649876 C44.4093994,157.755584 49.9175047,157.821579 55.8858499,157.233186 L58.3834997,158.339373 C59.4334757,158.804792 60.2676244,159.230308 61.01314,159.637214 L56.1592312,162.806519 L73.9756336,167.426567 C82.6964008,169.675583 96.0462326,166.88767 103.84441,164.210068 C110.825129,166.969396 115.582347,167.524792 124.65899,166.797886 L143.968917,165.24201 L138.76508,160.625799 C139.811987,160.281051 140.834913,159.846327 141.795488,159.243161 C146.599133,159.551075 153.469732,159.150116 162.719612,158.405943 C170.473665,157.77803 178.990499,160.725368 181.690739,162.164217 C186.665895,164.837406 189.698029,167.759996 189.72719,167.789348 L198.708868,176.521243 L196.14388,164.268581 C196.14388,164.263401 195.48201,161.121914 195.303592,160.12508 L195.303592,159.744456 L195.075295,159.113473 C195.073376,159.107526 194.470978,157.453617 194.179372,156.588006 L194.179372,156.390979 L193.88201,155.681915 C186.05966,136.989733 178.038749,129.928054 173.246423,125.708966 C172.057166,124.661292 171.028101,123.755201 170.327478,122.95405 L170.317694,122.945225 L179.477597,122.064649 L173.349828,116.280669 C173.340044,116.270309 171.163161,114.162875 169.853041,111.232036 C169.079708,109.494865 168.240379,108.2517 167.398749,107.341964 C167.483545,107.216688 167.569684,107.090069 167.655823,106.964218 C169.30225,104.542156 171.352706,101.52959 172.969204,97.839422 C177.501578,87.152228 178.394816,64.4619648 178.429924,63.5004301 L178.889396,51.2163057 L173.949348,57.8447947 C173.250068,48.9920371 170.33496,39.4685841 170.202394,39.0376969 L166.571507,27.2796156 L162.897262,39.0227328 C162.571123,40.0652268 162.232514,41.1368815 161.887766,42.2100709 C158.155775,29.2191839 152.873857,16.4755679 152.576495,15.7598845 L149.093138,7.39808135 L145.52767,15.7261771 C144.592994,17.9106758 143.497359,20.4698316 142.436255,22.9406229 L137.774961,5.45563536 L127.555488,30.1057067 C126.967095,31.5221095 124.376592,33.7567378 122.48345,35.3889679 C121.777647,35.9975051 121.08815,36.5931885 120.439901,37.1829247 C108.087479,29.8823973 95.1176955,32.2655148 89.8612927,33.7342917 C88.0013407,34.2513181 85.3446501,35.1267138 83.1932833,36.3631646 C79.7129956,33.9328529 74.688919,30.1222055 72.1410054,26.0702152 L59.070694,3.50944835 L57.4850825,14.3809877 C57.0923727,17.0773329 56.758176,19.3832129 56.4748187,21.355587 L46.9753465,0 L46.9753465,0 Z" id="path16" fill="#D3D2D2"></path>
                        <path d="M190.35376,157.156831 C190.35376,157.310308 191.477022,160.414384 191.477022,160.414384 C191.477022,160.647478 192.400954,165.054001 192.400954,165.054001 C192.400954,165.054001 189.083544,161.794145 183.490643,158.790404 C180.658029,157.28038 171.316638,153.878174 162.413809,154.593761 C153.503497,155.311843 145.477406,155.824265 140.699853,155.311843 C140.520092,155.451891 140.30791,155.622826 140.30791,155.622826 C137.942059,157.451315 134.253618,157.619948 130.867719,158.735727 C131.797023,159.556447 134.719805,162.149253 134.719805,162.149253 L124.353186,162.985703 C115.218031,163.715488 110.987623,163.065703 103.930549,160.118365 C96.4928513,162.904744 82.8993744,165.778605 74.9356336,163.72297 L65.4967849,161.276159 C65.4967849,161.276159 67.8424923,159.745991 68.789063,159.124025 C65.3521327,158.092082 64.2041231,156.739373 59.9332359,154.842586 C59.9332359,154.842586 56.9273847,153.510979 56.5018691,153.323545 C49.6544832,154.076735 43.1909821,153.910404 40.5358263,153.783018 C33.5199992,157.838653 25.8894958,160.903785 20.0262825,163.133233 C13.8466759,165.261579 13.0290836,168.847382 11.1465896,170.938317 L6.0109351,177.562969 C6.0109351,177.562969 6.71762094,166.033377 6.6749159,164.296399 C6.54302142,159.492562 8.21417725,149.865128 19.796834,138.481723 C19.7880091,138.481723 19.7083928,138.481723 19.7083928,138.481723 L24.8732847,131.383402 C27.1447475,128.28604 30.3798554,125.284793 34.1734284,122.624457 C30.3019657,120.119901 23.0096877,120.713474 20.0262825,120.567287 L9.45293022,120.041244 L17.186743,113.089685 C19.125448,111.353474 23.346762,108.249398 26.3458986,107.235489 C25.8557308,101.357887 24.0377932,95.9209568 23.0845078,93.9186547 C22.119328,91.9140505 14.2753378,79.1831155 14.2753378,79.1831155 C14.2753378,79.1831155 24.7953951,82.5525159 26.2845077,82.8650339 C14.4342059,65.1228761 38.7679607,25.8843159 38.7679607,25.8843159 L43.1909821,34.4387521 C43.1909821,34.4387521 43.6982243,35.4302149 43.7394713,35.5305507 C43.8137159,33.856498 44.5181763,29.4424933 45.4593754,24.7040761 L48.2119892,12.1912515 L53.4885358,24.0519898 C54.7729483,27.0931408 56.5647947,30.1482966 58.708104,33.2974572 C58.709447,32.4813421 61.2679121,14.934062 61.2679121,14.934062 L68.902828,28.1062823 C72.5300701,33.8743397 79.9716047,38.809975 83.3333313,41.0956345 C84.3031154,38.8115098 104.608726,30.2743398 120.979373,42.1051308 C123.381292,39.0864259 129.560093,35.2540998 131.088918,31.5708385 L136.986663,17.3448821 L141.58791,34.6035483 C141.602874,34.6148672 149.044601,17.2302154 149.044601,17.2302154 C149.044601,17.2302154 158.70062,40.4128527 161.169876,55.9673847 C162.26014,53.8647469 166.546758,40.1655625 166.546758,40.1655625 C166.546758,40.1655625 169.904072,51.0401906 170.244984,59.9984637 C170.352226,62.8498785 170.428581,66.339183 168.416495,71.82772 C169.076063,70.7794707 174.608149,63.35808 174.608149,63.35808 C174.608149,63.35808 173.755967,86.184746 169.465703,96.3077194 C167.20767,101.461292 164.03261,105.152036 162.18532,108.381964 C162.50743,108.771796 164.495727,108.603163 166.360859,112.790789 C168.023017,116.512995 170.7246,119.067047 170.7246,119.067047 L163.391842,119.765369 C160.97496,119.786472 159.648533,120.662443 156.946951,121.753666 C161.956639,121.717599 167.447478,125.472035 167.447478,125.472035 C171.489108,130.093618 180.834144,134.40863 190.35376,157.156831" id="path18" fill="#231F20"></path>
                        <path d="M171.500236,137.082587 C169.001051,135.060716 162.230212,131.673474 160.115488,131.83827 C160.210643,131.755776 166.09707,130.191843 166.033377,130.140812 C163.736591,127.64911 161.737934,126.607383 157.994624,125.263882 C154.001723,123.817359 148.939661,124.130644 144.844121,124.861388 C150.183593,119.229541 155.545512,116.018414 162.466183,115.964505 C160.349157,113.448055 159.386279,110.244218 155.942826,109.656016 C159.296303,106.190117 165.718749,99.21688 167.007574,80.5492546 C164.941579,83.2283912 159.712226,84.976113 155.461675,87.9817724 C166.981483,75.5568326 166.737838,65.9449384 166.168245,54.4565934 C164.680667,57.7037875 162.661099,61.9656579 159.498701,66.8143868 C159.251411,49.9190395 148.364888,27.9863782 148.364888,27.9863782 C148.364888,27.9863782 144.711555,45.5462818 137.351555,50.5283441 C139.425992,43.9050349 137.814673,37.2040278 136.07616,32.0422054 C133.183498,38.9966417 126.206616,42.7219174 121.043258,47.5232602 C105.87146,35.82139 86.9371681,42.6273371 85.7509811,47.193476 C78.3813889,45.1439797 69.4964011,37.0068096 65.3521327,30.4197594 C65.0952502,36.7806226 61.103116,44.8418214 65.010454,50.2098788 C56.4786557,43.711078 53.4142912,34.7010063 49.6207182,25.7695917 C47.8012458,37.6911262 45.1169293,46.9709341 47.7339077,58.1511736 C41.358656,52.7451306 39.616306,36.5609583 39.616306,36.5609583 C35.1842677,48.793476 20.5484887,71.6748184 37.1021573,90.4203335 C34.6852749,89.663499 27.6011504,89.0737628 26.0140041,88.7478155 C31.6433565,99.2117002 31.1309345,101.405081 33.378992,109.17122 C30.4182247,108.756832 24.5083927,113.402971 21.4238844,116.168246 C28.9718938,116.54676 37.6498792,117.022539 45.0029725,124.871172 C43.2178406,124.672419 146.893809,150.425704 152.221963,150.498414 C164.456015,150.966711 182.31424,150.741867 186.402106,156.070212 C186.604504,155.672898 183.310883,146.576687 171.500236,137.082587" id="path20" fill="#FFFFFF"></path>
                        <path d="M113.972563,52.4730922 C113.320669,52.0069052 112.095345,51.8586078 110.465417,52.0744351 C110.31405,52.1223968 110.173043,52.2070011 110.060621,52.3104064 C110.060621,52.1680562 110.075777,52.0360658 110.056976,51.8885359 C109.479901,51.1990395 106.489782,51.0917973 106.257455,51.6748189 C106.197599,51.4463296 106.055249,51.2604304 105.766712,51.1554903 C103.023882,50.9007182 102.133523,51.3624927 102.042204,52.1223968 C102.027048,51.8810539 101.984458,51.6539076 101.881053,51.4515095 C101.015441,50.8416294 99.4027793,51.5437877 98.5087745,51.6201426 C98.1715083,51.6861378 98.0253213,51.9236438 98.0065203,52.2557301 C97.7555851,51.9086798 97.3621079,51.6487277 96.9273837,51.5414855 C95.2899736,51.2740515 93.522108,50.9553944 92.7645061,52.7299747 C91.2402855,56.2447948 91.6149617,58.5034038 92.0893982,61.739279 C93.0710768,58.430694 97.5157769,57.0518931 98.2127553,53.5432121 C98.2277194,53.4898788 98.2277194,53.4336677 98.2352014,53.382061 C98.6923716,54.5285358 99.6851774,55.9201904 100.547144,56.5820609 C101.154146,55.4234998 102.000957,53.7732361 102.06465,52.4767373 C102.192036,53.3550107 103.008918,54.5024447 103.38724,55.4877684 C103.584458,55.7404303 103.62935,56.1736197 103.896976,56.2538115 C104.320381,55.3206701 105.395681,54.0078644 105.94417,52.9339075 C105.957791,54.2244591 106.918558,55.4346269 107.756352,56.694483 C108.023786,55.7030202 108.925273,55.0081521 109.521148,54.0880562 C109.590021,55.1034998 110.056976,56.3025406 110.847575,57.2189914 C112.861964,59.4259937 114.242299,60.7224925 114.703306,62.9684397 C116.100908,58.0021089 115.519997,53.6734759 113.972563,52.4730922 L113.972563,52.4730922 Z M123.823498,90.0067124 C122.828198,86.139854 120.627335,80.2893025 117.239901,77.2295424 C118.397695,81.6748181 116.58417,85.902348 116.75664,90.1214366 C116.426856,90.1926117 116.100908,90.2676236 115.782443,90.3627795 C115.284026,89.6395181 114.638079,88.9051297 114.028774,87.8634031 C112.19875,89.188487 111.656976,91.1293982 111.574482,92.8941943 C111.484506,92.9256571 111.405849,92.9617243 111.312227,92.9841703 C110.697743,91.6028754 109.359997,90.1956812 108.605273,89.113475 C107.228007,90.6699258 106.339949,92.1051296 106.118942,93.5911727 C105.980237,93.5911727 105.841532,93.5911727 105.703019,93.5911727 C105.065897,92.0203334 103.783019,90.3798539 102.675297,89.1524198 C101.585033,89.8695421 100.648247,91.2170721 100.21736,92.6499737 C100.099758,92.5922279 99.9775515,92.5411967 99.8612925,92.48959 C99.1232589,90.792132 97.8102613,88.8602376 97.2796139,87.3837868 C95.9315084,88.277216 95.2938106,89.5510769 95.0547698,90.8872879 C94.850837,90.8349138 94.6643621,90.7861848 94.5024437,90.7575996 C94.1966403,89.5660409 93.8541943,88.5552016 93.8098778,88.1594223 C93.2748178,84.7384151 92.8402854,84.1703576 93.325849,78.6457534 C90.4324198,81.5460891 87.2976477,85.2615806 86.1277676,88.9801417 C81.9065687,87.6199498 76.0596624,88.3445541 70.0688711,91.7588466 C64.3952022,92.2160169 77.2032595,68.6465211 85.5215326,60.079423 C89.8043143,54.7811977 90.3215325,48.0065216 93.8330912,47.9788957 C101.397599,46.7190396 103.162396,46.9745792 113.496784,48.2375048 C120.319997,51.3137637 117.483546,58.5866652 119.299374,63.6076723 C121.734865,72.4258975 122.796736,76.7086791 127.364409,84.7871442 C129.365177,89.6470002 127.199421,90.1093503 123.823498,90.0067124 L123.823498,90.0067124 Z" id="path22" fill="#231F20"></path>
                        <path d="M152.236927,109.656016 C152.236927,109.656016 157.888917,112.365081 158.292178,113.686328 C152.386759,113.515393 146.294289,117.262347 145.286327,121.817359 C143.914817,115.863402 133.794145,114.480573 134.588582,114.51357 C140.774865,114.765465 147.796831,101.554914 140.156543,95.1551055 C135.221867,91.450933 136.00863,92.2902615 130.251891,90.2052735 C133.465896,88.9149138 133.552994,87.1178875 128.394817,79.0603338 C147.976591,76.2140988 146.865224,44.4746272 147.661963,39.6980326 C152.843929,47.3793753 154.496495,54.9108859 156.188581,70.0126601 C156.362394,71.2057536 158.469636,71.4754898 160.787526,68.7800462 C160.568821,70.7382237 159.262538,79.7736191 153.773234,84.0625399 C153.100236,89.2138107 151.708581,90.8594702 150.374672,92.6409569 C150.067526,93.0357771 158.389444,92.6835468 163.264456,87.4100698 C161.643353,101.538607 152.236927,109.656016 152.236927,109.656016" id="path24" fill="#43247E"></path>
                        <path d="M91.0520841,74.2791348 C91.0520841,74.2791348 91.6629234,77.7592307 99.1645059,76.126425 C98.9621078,76.1780317 101.999422,68.8047944 103.162396,67.6431638 C103.106184,68.6338592 100.487096,76.043931 102.068295,76.416305 C106.339949,77.4131396 111.334673,74.5653698 111.334673,74.5653698 C111.334673,74.5653698 115.107911,65.2164972 109.217647,58.5732359 C109.026568,58.3558738 108.418031,60.380622 108.067335,60.165562 C107.074338,59.5564494 105.845369,57.2354902 105.845369,57.2354902 L103.520765,60.1408138 L102.027048,57.3291113 L99.5391822,59.4896868 L98.0537146,57.6640753 C98.0537146,57.6640753 90.6655133,62.6087275 91.0520841,74.2791348" id="path26" fill="#918F90"></path>
                        <path d="M131.759613,125.355968 C129.260428,124.591652 124.65381,123.034242 122.906855,122.000956 C122.906855,122.000956 129.148006,129.159133 132.145608,128.904361 C135.139373,128.644409 134.253618,126.129301 131.759613,125.355968 L131.759613,125.355968 Z M76.558847,128.501292 C73.0417248,129.998462 74.7123243,133.435968 78.3011971,132.321723 C81.8870004,131.199805 86.4665686,124.321724 86.4665686,124.321724 C86.4665686,124.321724 80.0255136,127.032323 76.558847,128.501292 L76.558847,128.501292 Z M174.404216,152.155967 C160.858893,150.854289 137.709925,151.521339 134.378702,148.55731 C135.026951,151.08297 135.510404,151.543785 135.71875,152.586855 C135.585224,152.540428 135.457838,152.486519 135.326807,152.434145 C135.551651,152.562874 135.686519,152.634049 135.686519,152.634049 C135.686519,152.634049 133.831747,156.965751 121.562587,156.20719 C121.028102,156.173617 124.692755,158.556735 124.171891,158.725176 C119.92652,160.152898 109.296304,159.148773 104.001724,155.367862 C97.0712686,159.521147 83.7291106,161.261195 76.0230197,159.65237 C75.3949142,159.521147 79.3060891,157.295344 78.7813889,157.282682 C69.0639791,156.890739 61.8323246,150.888054 61.8323246,150.888054 C61.8323246,150.888054 63.6847946,149.351747 63.9013893,147.64086 C56.1277684,149.882394 44.7391835,150.183593 39.4626369,149.426759 C33.6481526,154.086519 21.5783208,158.044888 15.0479613,161.628389 C13.2029349,163.46532 11.7026376,165.310308 10.7201724,165.538797 C10.7201724,165.538797 10.0524506,159.521147 14.2078845,151.787238 C16.3354241,147.839421 23.380527,137.706088 35.4384643,133.560476 C32.249016,133.902922 30.0149633,134.150212 28.631558,133.768054 C30.1160664,131.98062 30.6070016,129.526328 38.8047952,124.47923 C40.1034043,123.851124 44.0115097,124.606616 44.5181763,124.776592 C44.6754905,124.832803 44.5525169,124.72652 44.3428286,124.542923 C41.5363059,122.864266 39.4589918,120.837023 37.9729487,118.828774 C35.6646514,115.68345 29.3419657,113.384362 28.101678,113.301868 C29.0977451,112.406328 34.0571694,109.28134 39.2266657,110.21429 C34.507625,106.264937 34.5225891,98.5910767 32.5509824,92.6499737 C36.6635962,93.8975516 41.2191836,93.2727075 41.1443635,93.1407171 C28.1243158,71.706473 37.5591358,51.8674328 38.1264259,47.9879125 C38.1264259,47.9879125 43.2554426,59.4626364 50.464651,68.3579839 C49.1606702,58.234435 50.6175527,48.3999988 52.9068572,39.270023 C56.3219171,57.1478163 56.8840274,66.730358 68.6225403,79.5353457 C66.3556818,86.1271921 63.0014373,89.5510769 68.1333316,93.4689665 C57.790694,105.914242 63.477984,113.974865 71.9881037,117.959326 C68.3842669,117.929398 64.3464732,118.607575 62.1365932,121.296496 C59.4776004,124.524122 60.4930441,126.028966 62.059279,126.607383 C63.5522286,127.149349 67.8618688,127.56815 69.9228759,125.248726 C73.8647464,120.822059 73.4674322,121.947623 74.5615329,120.713474 C74.9841708,120.24134 75.6752019,119.874146 76.3990389,119.610357 C79.5458973,120.516256 82.7660411,120.953282 85.5178876,120.909733 C86.2634031,120.939661 87.0046981,121.003354 87.7105014,121.09333 C90.0861368,121.24182 91.6291584,121.213234 91.6291584,121.213234 C91.3264246,121.337743 91.0319402,121.45899 90.7336188,121.578894 C92.072132,121.858606 92.9555852,122.113378 92.9555852,122.113378 L93.3738106,130.204505 C93.3738106,130.204505 94.8141943,122.424361 95.5591343,119.563162 C95.8056571,113.827911 97.2700215,112.242875 97.2700215,112.242875 C97.2700215,112.242875 107.338894,115.184266 118.345321,110.32441 C119.465704,113.955297 119.199613,119.378031 118.682587,123.75827 L120.319997,119.686712 C120.319997,119.686712 131.524985,126.903402 143.742538,126.163834 C146.512994,126.347431 156.671075,128.462155 161.434432,131.246232 C160.540236,131.483738 157.649109,133.560476 157.733905,134.936975 C157.756351,135.347718 167.505991,138.526615 170.938317,140.486327 C178.690835,144.940044 186.402106,156.070212 186.402106,156.070212 C186.402106,156.070212 182.953473,152.808821 174.404216,152.155967 L174.404216,152.155967 Z" id="path28" fill="#918F90"></path>
                        <path d="M51.8135239,139.974481 C49.5353465,139.24604 47.3726607,138.07098 44.8322291,137.838654 L44.8103586,137.350212 C46.2873849,136.43357 47.6274329,135.399517 49.0415335,134.432611 C41.9746752,134.090165 34.7765939,138.579181 29.1673854,143.331795 C36.9410063,139.754241 43.376114,139.74062 51.8135239,139.974481" id="path30" fill="#231F20"></path>
                        <path d="M98.0665683,107.855153 C98.0665683,107.855153 91.3849378,116.668966 101.573714,114.920477 C108.809206,113.686328 109.10887,112.805753 115.025417,114.354721 C120.958462,115.908294 119.044601,108.179757 117.517311,108.453331 C114.834338,113.27194 109.539949,108.970357 111.087383,107.201724 C112.293906,105.839422 112.739757,105.258511 112.638654,104.367575 C112.537551,103.472036 107.252755,98.1062805 107.861292,97.407 C108.454674,96.7086786 113.22839,96.6164005 115.171604,94.364506 C110.88345,94.9738106 103.520765,96.6300216 96.0918921,95.1011967 C95.3461847,95.7546259 102.31712,97.3734268 104.533906,97.407 C106.752036,97.4430671 101.907144,103.974098 101.999422,105.361916 C102.637887,106.770837 103.923067,106.93947 104.275297,107.837311 C104.891316,109.425992 104.222923,110.879805 102.274338,110.91357 C98.5910767,110.974961 98.2576474,109.092563 98.0665683,107.855153" id="path32" fill="#231F20"></path>
                        <path d="M52.8013416,39.0137161 C55.2953463,50.0337637 55.5831161,60.094387 61.8165932,70.5074323 C55.8910298,80.5365927 54.1703584,89.8058491 52.8013416,101.005657 C49.9811978,97.5359208 47.0944832,92.6731871 44.8103586,77.3208614 C47.95856,80.9239308 49.5242194,83.6443145 49.5242194,83.6443145 C49.5242194,83.6443145 44.8067135,63.485466 52.8013416,39.0137161" id="path34" fill="#43247E"></path>
                        <path d="M93.3707411,135.804889 C91.635873,135.407766 91.1128994,135.711268 89.6905493,135.517886 C88.7462808,135.184265 87.7068563,134.736304 88.3236429,132.831268 C88.8383671,130.770452 90.318463,127.132083 91.1570241,124.505321 C85.3905015,130.636927 83.7956814,135.206903 69.1944347,140.836255 C74.81266,136.139853 78.9778398,133.005848 84.8306933,125.307239 C77.9781275,127.585416 70.7854179,131.075296 64.9498305,133.884121 C65.8234996,132.491699 67.3659456,130.937551 68.2860415,129.788582 C66.4634995,129.261771 60.6887275,129.554913 58.1415813,124.79616 C61.9439793,125.635488 66.3518449,125.96815 70.2150582,125.515584 C70.6116049,127.032323 72.7157776,126.549829 73.6734754,126.126424 C72.5300701,123.457647 72.9780317,119.683067 75.542636,118.809973 C78.7470484,118.181868 80.583787,119.109637 84.2288708,119.664266 C88.0771201,119.955105 89.9948179,119.162203 92.3875277,118.567863 C94.5375516,118.024553 95.904458,117.764601 95.904458,117.764601 C95.3626835,122.069829 94.177072,128.483258 93.4330912,131.517503 C95.1589425,131.763258 98.2553453,132.055632 97.6529472,133.012563 C94.8763525,140.591267 93.4996619,143.015632 91.9911728,146.429157 C92.1567363,142.876927 92.5179833,139.957982 93.3707411,135.804889" id="path36" fill="#231F20"></path>
                        <path d="M83.4344344,125.777071 C82.6902617,126.04911 82.0638828,126.262827 81.5265207,126.489014 C81.5879116,126.452371 81.6590867,126.406711 81.7034032,126.376592 C82.081149,126.094193 82.0930435,124.415536 82.1012929,124.144265 C82.1492545,122.539661 81.0822042,120.603354 80.2877678,120.827431 C79.7047462,120.992995 78.7643146,122.354529 78.5889669,123.628582 C78.3813889,125.179853 78.8556335,127.118462 80.1910771,127.004697 C80.0592786,127.051891 79.7406215,127.220524 79.6080556,127.261771 C77.4737631,128.005177 76.0470005,125.762107 76.1091588,123.594817 C76.1720844,121.419278 77.6776959,119.309733 79.9378397,119.372083 C83.2494943,119.480668 84.3526118,121.307047 84.2820123,123.489877 C84.2662809,124.144265 84.0280075,125.559709 83.4344344,125.777071" id="path38" fill="#43247E"></path>
                        <path d="M79.7722762,127.362875 C79.7722762,127.362875 78.392516,127.53899 77.8373122,126.948486 C77.286329,126.361628 79.8965927,123.926903 79.8965927,123.926903 C79.8965927,123.926903 80.3911731,126.126424 79.7722762,127.362875" id="path40" fill="#FFFFFF"></path>
                        <path d="M117.888151,133.555872 C119.368246,133.103306 119.847863,133.331028 121.073186,133.08086 C121.87875,132.737647 122.350884,131.0964 121.700333,129.477599 C121.125561,127.694002 121.009493,126.569973 120.116064,124.312707 C123.05381,129.733906 130.92393,132.044313 138.890164,135.332754 C132.797503,129.84345 129.580428,128.45851 124.320381,122.682011 C129.788582,124.957311 136.222347,127.306663 142.188965,129.012946 C141.336975,127.84556 139.90791,126.579757 139.039997,125.628006 C140.606231,125.056112 141.985224,124.059469 143.393953,123.300333 C141.307047,121.352707 140.861004,121.45899 138.519133,120.021676 C138.389445,122.305992 135.435392,123.220141 134.094001,123.851124 C135.055536,121.725081 135.536495,116.977647 131.216304,116.18935 C128.378318,115.834817 126.809781,117.453618 123.922299,117.778031 C122.871748,118.22158 123.186376,119.845561 123.253906,120.870788 C122.152323,119.701676 122.19357,118.768726 121.144361,117.914434 L119.368246,117.133618 C118.768726,121.947623 117.202491,127.340428 117.075105,129.973714 C115.582347,130.299853 112.365081,131.319709 112.957119,132.130452 C115.829637,138.579181 121.98887,142.595872 124.962491,145.066663 C124.614098,141.971603 118.862347,137.126711 117.888151,133.555872" id="path42" fill="#231F20"></path>
                        <path d="M131.819469,123.202875 C131.504841,123.753666 130.391939,124.976112 129.88604,124.79616 C129.745992,124.751268 129.620141,124.704074 129.492563,124.664361 C129.500237,124.664361 129.513666,124.664361 129.521148,124.668774 C129.99616,124.700237 130.568054,123.167767 130.62791,122.91664 C131.126328,121.065704 130.783882,118.558846 129.331603,118.139278 C128.70062,117.959326 127.817743,119.299374 127.536687,120.789829 C127.269253,122.201052 127.428102,123.600956 127.975057,124.093234 C127.656592,123.954529 127.364409,123.843642 127.038462,123.73122 C125.236064,123.085273 125.084697,119.774385 126.266472,118.35664 C127.446711,116.93429 129.788582,116.559422 131.242587,117.814673 C132.697934,119.067047 132.716543,121.59405 131.819469,123.202875" id="path44" fill="#43247E"></path>
                        <path d="M128.537167,124.40652 C128.537167,124.40652 127.139565,124.321724 126.657647,123.675009 C126.180333,123.02676 129.106759,120.692371 129.106759,120.692371 C129.106759,120.692371 129.292659,123.241244 128.537167,124.40652" id="path46" fill="#FFFFFF"></path>
                        <path d="M65.6638833,103.553571 C65.6638833,103.553571 65.8175523,101.380333 66.4268569,99.9414843 C66.4268569,99.9414843 77.0983194,101.005657 91.0319402,99.9827313 C79.6583194,105.963738 65.6638833,103.553571 65.6638833,103.553571" id="path48" fill="#231F20"></path>
                        <path d="M91.5737147,104.739949 C75.1746744,107.29688 66.0258976,105.995201 66.0258976,105.995201 C66.0101662,108.069638 67.0495906,110.053139 67.0495906,110.053139 C67.0495906,110.053139 83.967384,109.597503 91.5737147,104.739949" id="path50" fill="#231F20"></path>
                        <path d="M90.0974558,109.970837 C73.3294946,112.657455 67.9982717,111.789542 67.9982717,111.789542 C68.5820606,114.094769 70.8970726,115.104074 70.8970726,115.104074 C70.8970726,115.104074 80.7217246,115.495441 90.0974558,109.970837" id="path52" fill="#231F20"></path>
                        <path d="M140.497646,101.315105 C140.497646,101.315105 140.666279,99.0183189 139.847095,97.9616282 C139.847095,97.9616282 131.988102,98.8047937 121.436544,97.8058489 C130.047191,103.415825 140.497646,101.315105 140.497646,101.315105" id="path54" fill="#231F20"></path>
                        <path d="M121.034242,102.236928 C133.441915,104.673954 140.37026,103.487 140.37026,103.487 C140.381387,105.420429 139.59309,107.255633 139.59309,107.255633 C139.59309,107.255633 126.787335,106.788103 121.034242,102.236928" id="path56" fill="#231F20"></path>
                        <path d="M122.152323,107.111748 C134.848534,109.665801 138.878845,108.875201 138.878845,108.875201 C138.440476,111.025992 136.690644,111.95664 136.690644,111.95664 C136.690644,111.95664 129.256591,112.282587 122.152323,107.111748" id="path58" fill="#231F20"></path>
                        <path d="M162.466183,133.57544 C167.071267,134.871939 172.684312,140.411507 174.792322,143.219373 C167.2399,140.004409 159.783401,136.383306 150.272035,137.92345 C152.916639,136.891507 154.515104,135.663882 157.156831,134.635009 C153.124984,130.665512 149.033282,128.126424 143.71261,126.139086 C149.134385,126.476352 154.820907,126.268774 159.673281,129.41544 C159.673281,129.41544 162.125272,130.675296 162.466183,133.57544" id="path60" fill="#231F20"></path>
                    </g>
                </g>
            </g>
        </g>
    </g>
</svg>