<?xml version="1.0" encoding="utf-8"?>
<!-- Generator: Adobe Illustrator 27.3.1, SVG Export Plug-In . SVG Version: 6.00 Build 0)  -->
<svg version="1.1" id="Layer_1" xmlns="http://www.w3.org/2000/svg" xmlns:xlink="http://www.w3.org/1999/xlink" x="0px" y="0px"
	 viewBox="0 0 500 500" style="enable-background:new 0 0 500 500;" xml:space="preserve">
<style type="text/css">
	.st0{fill:#061922;}
</style>
<g>
	<path class="st0" d="M475,97.3l-44,94.4H254.8l-55.5,119.1h-49.8c0.4-5.9,1.6-11.9,3.5-17.7c4.8-14.4,13.8-26.2,25-34.7
		c3,3.4,5.6,7,8,10.9c0.4,0.6,1.1,0.5,1.4,0l0,0l80.2-172H475z"/>
	<path class="st0" d="M67,347.6c-5,10.1-12.2,18.6-20.9,25.2c-7.3-8.4-13-18.4-16.8-29.6c-2.5-7.5-3.9-15.2-4.3-22.7h49.5
		C73.8,329.8,71.3,339,67,347.6"/>
	<path class="st0" d="M107.1,320.4v82.3c-20.2-1.2-39.5-9.4-54.2-23c9.5-7.3,17.3-16.7,22.7-27.7c5-10,7.9-20.7,8.5-31.6
		L107.1,320.4L107.1,320.4z"/>
	<path class="st0" d="M70.9,293c2,5.8,3.1,11.8,3.5,17.7H25c1.1-19.4,8.6-37.7,21.1-52.2C57.3,266.9,66.2,278.7,70.9,293"/>
	<path class="st0" d="M107.1,228.4v82.3H84.2c-0.4-7-1.7-14-4-20.8c-5.2-15.9-15-29-27.3-38.5c8.8-8.2,19.5-14.7,31.7-18.8
		C92.1,230.2,99.6,228.8,107.1,228.4"/>
	<path class="st0" d="M139.8,310.7h-22.9v-82.3c20.2,1.1,39.5,9.3,54.3,22.9c-12.7,9.8-22.2,23-27.3,38.7
		C141.6,296.7,140.2,303.8,139.8,310.7"/>
	<path class="st0" d="M171.2,379.8c-8.8,8.1-19.5,14.5-31.5,18.5c-7.6,2.5-15.2,3.9-22.8,4.3v-82.3h22.9c0.7,10.9,3.5,21.6,8.5,31.6
		C153.8,363,161.6,372.5,171.2,379.8"/>
	<path class="st0" d="M199.3,320.4c-1.1,19.4-8.7,37.9-21.2,52.4c-8.8-6.6-16-15.2-21.1-25.2c-4.3-8.6-6.8-17.8-7.4-27.2
		L199.3,320.4L199.3,320.4z"/>
</g>
</svg>
